<?xml version="1.0" encoding="UTF-8" standalone="no"?>
<svg xmlns="http://www.w3.org/2000/svg" xmlns:xlink="http://www.w3.org/1999/xlink" width="1100" height="700" viewBox="0 0 1100 700">
<title>Sketch Menu — Draw / Constraint / Dimension / Modify</title>
<rect x="0" y="0" width="1100" height="700" fill="#1f1f1f"/>
<rect x="0" y="0" width="1100" height="36" fill="#262626" stroke="#1a1a1a" stroke-width="1"/>
<text x="14" y="22" fill="#e6e6e6" font-size="14" font-family="Segoe UI, Inter, Roboto, Arial, sans-serif" font-weight="600" font-style="normal" text-anchor="start">Sketch Menu — Draw / Constraint / Dimension / Modify</text>
<text x="14" y="32" fill="#a8a8a8" font-size="10" font-family="Segoe UI, Inter, Roboto, Arial, sans-serif" font-weight="normal" font-style="normal" text-anchor="start">Block (grouping), Info, Parametric submenus</text>
<rect x="0" y="36" width="1100" height="22" fill="#1f1f1f" stroke="#1a1a1a" stroke-width="1"/>
<text x="12" y="51.32" fill="#e6e6e6" font-size="12" font-family="Segoe UI, Inter, Roboto, Arial, sans-serif" font-weight="normal" font-style="normal" text-anchor="start">File</text>
<text x="62" y="51.32" fill="#e6e6e6" font-size="12" font-family="Segoe UI, Inter, Roboto, Arial, sans-serif" font-weight="normal" font-style="normal" text-anchor="start">Edit</text>
<text x="112" y="51.32" fill="#e6e6e6" font-size="12" font-family="Segoe UI, Inter, Roboto, Arial, sans-serif" font-weight="normal" font-style="normal" text-anchor="start">View</text>
<text x="162" y="51.32" fill="#e6e6e6" font-size="12" font-family="Segoe UI, Inter, Roboto, Arial, sans-serif" font-weight="normal" font-style="normal" text-anchor="start">Insert</text>
<rect x="218" y="38" width="58" height="18" rx="2" fill="#3c3c3c" stroke="#0a84ff" stroke-width="0.8"/>
<text x="226" y="51.32" fill="#e6e6e6" font-size="12" font-family="Segoe UI, Inter, Roboto, Arial, sans-serif" font-weight="500" font-style="normal" text-anchor="start">Sketch</text>
<text x="290" y="51.32" fill="#e6e6e6" font-size="12" font-family="Segoe UI, Inter, Roboto, Arial, sans-serif" font-weight="normal" font-style="normal" text-anchor="start">Modify</text>
<text x="354" y="51.32" fill="#e6e6e6" font-size="12" font-family="Segoe UI, Inter, Roboto, Arial, sans-serif" font-weight="normal" font-style="normal" text-anchor="start">Sheet Metal</text>
<text x="453" y="51.32" fill="#e6e6e6" font-size="12" font-family="Segoe UI, Inter, Roboto, Arial, sans-serif" font-weight="normal" font-style="normal" text-anchor="start">Assembly</text>
<text x="531" y="51.32" fill="#e6e6e6" font-size="12" font-family="Segoe UI, Inter, Roboto, Arial, sans-serif" font-weight="normal" font-style="normal" text-anchor="start">CAM</text>
<text x="574" y="51.32" fill="#e6e6e6" font-size="12" font-family="Segoe UI, Inter, Roboto, Arial, sans-serif" font-weight="normal" font-style="normal" text-anchor="start">Drawing</text>
<text x="645" y="51.32" fill="#e6e6e6" font-size="12" font-family="Segoe UI, Inter, Roboto, Arial, sans-serif" font-weight="normal" font-style="normal" text-anchor="start">Simulation</text>
<text x="737" y="51.32" fill="#e6e6e6" font-size="12" font-family="Segoe UI, Inter, Roboto, Arial, sans-serif" font-weight="normal" font-style="normal" text-anchor="start">Parametric</text>
<text x="829" y="51.32" fill="#e6e6e6" font-size="12" font-family="Segoe UI, Inter, Roboto, Arial, sans-serif" font-weight="normal" font-style="normal" text-anchor="start">Optimize</text>
<text x="907" y="51.32" fill="#e6e6e6" font-size="12" font-family="Segoe UI, Inter, Roboto, Arial, sans-serif" font-weight="normal" font-style="normal" text-anchor="start">Generate</text>
<text x="985" y="51.32" fill="#e6e6e6" font-size="12" font-family="Segoe UI, Inter, Roboto, Arial, sans-serif" font-weight="normal" font-style="normal" text-anchor="start">GD&amp;T</text>
<text x="1035" y="51.32" fill="#e6e6e6" font-size="12" font-family="Segoe UI, Inter, Roboto, Arial, sans-serif" font-weight="normal" font-style="normal" text-anchor="start">Heal</text>
<text x="1085" y="51.32" fill="#e6e6e6" font-size="12" font-family="Segoe UI, Inter, Roboto, Arial, sans-serif" font-weight="normal" font-style="normal" text-anchor="start">Inspect</text>
<text x="1156" y="51.32" fill="#e6e6e6" font-size="12" font-family="Segoe UI, Inter, Roboto, Arial, sans-serif" font-weight="normal" font-style="normal" text-anchor="start">Mold</text>
<text x="1206" y="51.32" fill="#e6e6e6" font-size="12" font-family="Segoe UI, Inter, Roboto, Arial, sans-serif" font-weight="normal" font-style="normal" text-anchor="start">Tools</text>
<text x="1263" y="51.32" fill="#e6e6e6" font-size="12" font-family="Segoe UI, Inter, Roboto, Arial, sans-serif" font-weight="normal" font-style="normal" text-anchor="start">Scripting</text>
<text x="1348" y="51.32" fill="#e6e6e6" font-size="12" font-family="Segoe UI, Inter, Roboto, Arial, sans-serif" font-weight="normal" font-style="normal" text-anchor="start">AI</text>
<text x="1384" y="51.32" fill="#e6e6e6" font-size="12" font-family="Segoe UI, Inter, Roboto, Arial, sans-serif" font-weight="normal" font-style="normal" text-anchor="start">Window</text>
<text x="1448" y="51.32" fill="#e6e6e6" font-size="12" font-family="Segoe UI, Inter, Roboto, Arial, sans-serif" font-weight="normal" font-style="normal" text-anchor="start">Help</text>
<rect x="222" y="61" width="220" height="490" rx="3" fill="#000000" opacity="0.4"/>
<rect x="220" y="58" width="220" height="490" rx="3" fill="#2b2b2b" stroke="#111111" stroke-width="1"/>
<rect x="120" y="36" width="100" height="22" fill="#3c3c3c" stroke="#111111" stroke-width="1"/>
<text x="128" y="51.32" fill="#e6e6e6" font-size="12" font-family="Segoe UI, Inter, Roboto, Arial, sans-serif" font-weight="500" font-style="normal" text-anchor="start">Sketch</text>
<rect x="222" y="62" width="216" height="26" fill="none"/>
<line x1="229" y1="80" x2="239" y2="70" stroke="#e6e6e6" stroke-width="1.2"/>
<text x="248" y="79.32" fill="#e6e6e6" font-size="12" font-family="Segoe UI, Inter, Roboto, Arial, sans-serif" font-weight="normal" font-style="normal" text-anchor="start">New Sketch</text>
<text x="428" y="78.96000000000001" fill="#a8a8a8" font-size="11" font-family="Consolas, Menlo, monospace" font-weight="normal" font-style="normal" text-anchor="end">F2</text>
<line x1="228" y1="92.0" x2="432" y2="92.0" stroke="#454545" stroke-width="1"/>
<rect x="222" y="96" width="216" height="26" fill="none"/>
<circle cx="234.0" cy="109.0" r="6" fill="none" opacity="1.0" stroke="#e6e6e6" stroke-width="1.2"/>
<polyline points="231.0,109.0 233.0,112.0 237.0,107.0" fill="none" stroke="#e6e6e6" stroke-width="1.2"/>
<text x="248" y="113.32" fill="#e6e6e6" font-size="12" font-family="Segoe UI, Inter, Roboto, Arial, sans-serif" font-weight="normal" font-style="normal" text-anchor="start">Finish Sketch</text>
<text x="428" y="112.96000000000001" fill="#a8a8a8" font-size="11" font-family="Consolas, Menlo, monospace" font-weight="normal" font-style="normal" text-anchor="end">Esc</text>
<line x1="228" y1="126.0" x2="432" y2="126.0" stroke="#454545" stroke-width="1"/>
<rect x="222" y="130" width="216" height="26" fill="none"/>
<line x1="229" y1="148" x2="239" y2="138" stroke="#e6e6e6" stroke-width="1.2"/>
<text x="248" y="147.32" fill="#e6e6e6" font-size="12" font-family="Segoe UI, Inter, Roboto, Arial, sans-serif" font-weight="normal" font-style="normal" text-anchor="start">Line</text>
<text x="428" y="146.96" fill="#a8a8a8" font-size="11" font-family="Consolas, Menlo, monospace" font-weight="normal" font-style="normal" text-anchor="end">L</text>
<rect x="222" y="156" width="216" height="26" fill="none"/>
<rect x="229" y="164" width="10" height="10" fill="none" stroke="#e6e6e6" stroke-width="1.2"/>
<text x="248" y="173.32" fill="#e6e6e6" font-size="12" font-family="Segoe UI, Inter, Roboto, Arial, sans-serif" font-weight="normal" font-style="normal" text-anchor="start">Rectangle</text>
<text x="428" y="172.96" fill="#a8a8a8" font-size="11" font-family="Consolas, Menlo, monospace" font-weight="normal" font-style="normal" text-anchor="end">R</text>
<rect x="222" y="182" width="216" height="26" fill="none"/>
<circle cx="234.0" cy="195.0" r="6.4" fill="none" opacity="1.0" stroke="#e6e6e6" stroke-width="1.2"/>
<text x="248" y="199.32" fill="#e6e6e6" font-size="12" font-family="Segoe UI, Inter, Roboto, Arial, sans-serif" font-weight="normal" font-style="normal" text-anchor="start">Circle</text>
<text x="428" y="198.96" fill="#a8a8a8" font-size="11" font-family="Consolas, Menlo, monospace" font-weight="normal" font-style="normal" text-anchor="end">C</text>
<rect x="222" y="208" width="216" height="26" fill="none"/>
<path d="M229 226 A10 10 0 0 1 239 226" fill="none" stroke="#e6e6e6" stroke-width="1.2" opacity="1.0"/>
<text x="248" y="225.32" fill="#e6e6e6" font-size="12" font-family="Segoe UI, Inter, Roboto, Arial, sans-serif" font-weight="normal" font-style="normal" text-anchor="start">Arc</text>
<text x="428" y="224.96" fill="#a8a8a8" font-size="11" font-family="Consolas, Menlo, monospace" font-weight="normal" font-style="normal" text-anchor="end">A</text>
<rect x="222" y="234" width="216" height="26" fill="none"/>
<polyline points="229,252 232.4,242 235.6,252 239,242" fill="none" stroke="#e6e6e6" stroke-width="1.2"/>
<text x="248" y="251.32" fill="#e6e6e6" font-size="12" font-family="Segoe UI, Inter, Roboto, Arial, sans-serif" font-weight="normal" font-style="normal" text-anchor="start">Polyline</text>
<text x="428" y="250.96" fill="#a8a8a8" font-size="11" font-family="Consolas, Menlo, monospace" font-weight="normal" font-style="normal" text-anchor="end">P</text>
<rect x="222" y="260" width="216" height="26" fill="none"/>
<path d="M229 278 C230.8 265 237.2 281 239 268" fill="none" stroke="#e6e6e6" stroke-width="1.2" opacity="1.0"/>
<text x="248" y="277.32" fill="#e6e6e6" font-size="12" font-family="Segoe UI, Inter, Roboto, Arial, sans-serif" font-weight="normal" font-style="normal" text-anchor="start">Spline</text>
<text x="428" y="276.96" fill="#a8a8a8" font-size="11" font-family="Consolas, Menlo, monospace" font-weight="normal" font-style="normal" text-anchor="end">S</text>
<rect x="222" y="286" width="216" height="26" fill="none"/>
<circle cx="234.0" cy="299.0" r="1.5" fill="#e6e6e6" opacity="1.0"/>
<text x="248" y="303.32" fill="#e6e6e6" font-size="12" font-family="Segoe UI, Inter, Roboto, Arial, sans-serif" font-weight="normal" font-style="normal" text-anchor="start">Point</text>
<text x="428" y="302.96" fill="#a8a8a8" font-size="11" font-family="Consolas, Menlo, monospace" font-weight="normal" font-style="normal" text-anchor="end">Q</text>
<rect x="222" y="312" width="216" height="26" fill="none"/>
<ellipse cx="234.0" cy="325.0" rx="6.4" ry="4.0" fill="none" stroke="#e6e6e6" stroke-width="1.2"/>
<text x="248" y="329.32" fill="#e6e6e6" font-size="12" font-family="Segoe UI, Inter, Roboto, Arial, sans-serif" font-weight="normal" font-style="normal" text-anchor="start">Ellipse</text>
<text x="428" y="328.96" fill="#a8a8a8" font-size="11" font-family="Consolas, Menlo, monospace" font-weight="normal" font-style="normal" text-anchor="end">E</text>
<line x1="228" y1="342.0" x2="432" y2="342.0" stroke="#454545" stroke-width="1"/>
<rect x="222" y="346" width="216" height="26" fill="none"/>
<line x1="229" y1="354" x2="239" y2="356" stroke="#e6e6e6" stroke-width="1.2"/>
<line x1="229" y1="362" x2="239" y2="364" stroke="#e6e6e6" stroke-width="1.2"/>
<text x="248" y="363.32" fill="#e6e6e6" font-size="12" font-family="Segoe UI, Inter, Roboto, Arial, sans-serif" font-weight="normal" font-style="normal" text-anchor="start">Constraints</text>
<polyline points="431.6,355.0 436.4,359.0 431.6,363.0" fill="none" stroke="#a8a8a8" stroke-width="1.2"/>
<line x1="228" y1="376.0" x2="432" y2="376.0" stroke="#454545" stroke-width="1"/>
<rect x="222" y="380" width="216" height="26" fill="none"/>
<line x1="229" y1="388" x2="239" y2="388" stroke="#e6e6e6" stroke-width="1.2" stroke-dasharray="2 2"/>
<line x1="229" y1="388" x2="229" y2="398" stroke="#e6e6e6" stroke-width="1.2"/>
<line x1="239" y1="388" x2="239" y2="398" stroke="#e6e6e6" stroke-width="1.2"/>
<line x1="231" y1="397" x2="237" y2="397" stroke="#e6e6e6" stroke-width="1.2"/>
<polygon points="231,397 234,395 234,399" fill="#e6e6e6"/>
<polygon points="237,397 234,395 234,399" fill="#e6e6e6"/>
<text x="248" y="397.32" fill="#e6e6e6" font-size="12" font-family="Segoe UI, Inter, Roboto, Arial, sans-serif" font-weight="normal" font-style="normal" text-anchor="start">Dimension</text>
<polyline points="431.6,389.0 436.4,393.0 431.6,397.0" fill="none" stroke="#a8a8a8" stroke-width="1.2"/>
<line x1="228" y1="410.0" x2="432" y2="410.0" stroke="#454545" stroke-width="1"/>
<rect x="222" y="414" width="216" height="26" fill="none"/>
<line x1="229" y1="432" x2="239" y2="422" stroke="#e6e6e6" stroke-width="1.2"/>
<circle cx="239" cy="422" r="2.5" fill="#e6e6e6" opacity="1.0"/>
<text x="248" y="431.32" fill="#e6e6e6" font-size="12" font-family="Segoe UI, Inter, Roboto, Arial, sans-serif" font-weight="normal" font-style="normal" text-anchor="start">Modify</text>
<polyline points="431.6,423.0 436.4,427.0 431.6,431.0" fill="none" stroke="#a8a8a8" stroke-width="1.2"/>
<line x1="228" y1="444.0" x2="432" y2="444.0" stroke="#454545" stroke-width="1"/>
<rect x="222" y="448" width="216" height="26" fill="none"/>
<rect x="229" y="456" width="10" height="10" fill="none" stroke="#e6e6e6" stroke-width="1.2"/>
<line x1="229" y1="461.0" x2="239" y2="461.0" stroke="#e6e6e6" stroke-width="1.2" stroke-dasharray="2 2"/>
<text x="248" y="465.32" fill="#e6e6e6" font-size="12" font-family="Segoe UI, Inter, Roboto, Arial, sans-serif" font-weight="normal" font-style="normal" text-anchor="start">Block</text>
<polyline points="431.6,457.0 436.4,461.0 431.6,465.0" fill="none" stroke="#a8a8a8" stroke-width="1.2"/>
<line x1="228" y1="478.0" x2="432" y2="478.0" stroke="#454545" stroke-width="1"/>
<rect x="222" y="482" width="216" height="26" fill="none"/>
<circle cx="234.0" cy="495.0" r="6" fill="none" opacity="1.0" stroke="#e6e6e6" stroke-width="1.2"/>
<line x1="234.0" y1="493.0" x2="234.0" y2="496.0" stroke="#e6e6e6" stroke-width="1.2"/>
<circle cx="234.0" cy="498.0" r="0.8" fill="#e6e6e6" opacity="1.0"/>
<text x="248" y="499.32" fill="#e6e6e6" font-size="12" font-family="Segoe UI, Inter, Roboto, Arial, sans-serif" font-weight="normal" font-style="normal" text-anchor="start">Info</text>
<polyline points="431.6,491.0 436.4,495.0 431.6,499.0" fill="none" stroke="#a8a8a8" stroke-width="1.2"/>
<line x1="228" y1="512.0" x2="432" y2="512.0" stroke="#454545" stroke-width="1"/>
<rect x="222" y="516" width="216" height="26" fill="none"/>
<circle cx="234.0" cy="529.0" r="3" fill="none" opacity="1.0" stroke="#e6e6e6" stroke-width="1.2"/>
<line x1="238.0" y1="529.0" x2="240.0" y2="529.0" stroke="#e6e6e6" stroke-width="1.2"/>
<line x1="236.82842712474618" y1="531.8284271247462" x2="238.2426406871193" y2="533.2426406871193" stroke="#e6e6e6" stroke-width="1.2"/>
<line x1="234.0" y1="533.0" x2="234.0" y2="535.0" stroke="#e6e6e6" stroke-width="1.2"/>
<line x1="231.17157287525382" y1="531.8284271247462" x2="229.7573593128807" y2="533.2426406871193" stroke="#e6e6e6" stroke-width="1.2"/>
<line x1="230.0" y1="529.0" x2="228.0" y2="529.0" stroke="#e6e6e6" stroke-width="1.2"/>
<line x1="231.17157287525382" y1="526.1715728752538" x2="229.7573593128807" y2="524.7573593128807" stroke="#e6e6e6" stroke-width="1.2"/>
<line x1="234.0" y1="525.0" x2="234.0" y2="523.0" stroke="#e6e6e6" stroke-width="1.2"/>
<line x1="236.82842712474618" y1="526.1715728752538" x2="238.2426406871193" y2="524.7573593128807" stroke="#e6e6e6" stroke-width="1.2"/>
<text x="248" y="533.32" fill="#e6e6e6" font-size="12" font-family="Segoe UI, Inter, Roboto, Arial, sans-serif" font-weight="normal" font-style="normal" text-anchor="start">Parametric</text>
<polyline points="431.6,525.0 436.4,529.0 431.6,533.0" fill="none" stroke="#a8a8a8" stroke-width="1.2"/>
<rect x="0" y="670" width="1100" height="30" fill="#262626" stroke="#1a1a1a" stroke-width="1"/>
<text x="14" y="690" fill="#a8a8a8" font-size="11" font-family="Segoe UI, Inter, Roboto, Arial, sans-serif" font-weight="normal" font-style="normal" text-anchor="start">Menu: Sketch  ·  16 items</text>
<text x="1086" y="690" fill="#a8a8a8" font-size="10" font-family="Segoe UI, Inter, Roboto, Arial, sans-serif" font-weight="normal" font-style="normal" text-anchor="end">BRepCAD UI Mockup</text>
</svg>
