<?xml version="1.0" encoding="UTF-8" standalone="no"?>
<svg xmlns="http://www.w3.org/2000/svg" xmlns:xlink="http://www.w3.org/1999/xlink" width="1100" height="700" viewBox="0 0 1100 700">
<title>CAM Menu — Setup, Tools, Operations, Simulate, Post, 5-Axis, AI</title>
<rect x="0" y="0" width="1100" height="700" fill="#1f1f1f"/>
<rect x="0" y="0" width="1100" height="36" fill="#262626" stroke="#1a1a1a" stroke-width="1"/>
<text x="14" y="22" fill="#e6e6e6" font-size="14" font-family="Segoe UI, Inter, Roboto, Arial, sans-serif" font-weight="600" font-style="normal" text-anchor="start">CAM Menu — Setup, Tools, Operations, Simulate, Post, 5-Axis, AI</text>
<text x="14" y="32" fill="#a8a8a8" font-size="10" font-family="Segoe UI, Inter, Roboto, Arial, sans-serif" font-weight="normal" font-style="normal" text-anchor="start">7 post-processors + 6 5-axis ops + 6 AI optimization tools</text>
<rect x="0" y="36" width="1100" height="22" fill="#1f1f1f" stroke="#1a1a1a" stroke-width="1"/>
<text x="12" y="51.32" fill="#e6e6e6" font-size="12" font-family="Segoe UI, Inter, Roboto, Arial, sans-serif" font-weight="normal" font-style="normal" text-anchor="start">File</text>
<text x="62" y="51.32" fill="#e6e6e6" font-size="12" font-family="Segoe UI, Inter, Roboto, Arial, sans-serif" font-weight="normal" font-style="normal" text-anchor="start">Edit</text>
<text x="112" y="51.32" fill="#e6e6e6" font-size="12" font-family="Segoe UI, Inter, Roboto, Arial, sans-serif" font-weight="normal" font-style="normal" text-anchor="start">View</text>
<text x="162" y="51.32" fill="#e6e6e6" font-size="12" font-family="Segoe UI, Inter, Roboto, Arial, sans-serif" font-weight="normal" font-style="normal" text-anchor="start">Insert</text>
<text x="226" y="51.32" fill="#e6e6e6" font-size="12" font-family="Segoe UI, Inter, Roboto, Arial, sans-serif" font-weight="normal" font-style="normal" text-anchor="start">Sketch</text>
<text x="290" y="51.32" fill="#e6e6e6" font-size="12" font-family="Segoe UI, Inter, Roboto, Arial, sans-serif" font-weight="normal" font-style="normal" text-anchor="start">Modify</text>
<text x="354" y="51.32" fill="#e6e6e6" font-size="12" font-family="Segoe UI, Inter, Roboto, Arial, sans-serif" font-weight="normal" font-style="normal" text-anchor="start">Sheet Metal</text>
<text x="453" y="51.32" fill="#e6e6e6" font-size="12" font-family="Segoe UI, Inter, Roboto, Arial, sans-serif" font-weight="normal" font-style="normal" text-anchor="start">Assembly</text>
<rect x="523" y="38" width="37" height="18" rx="2" fill="#3c3c3c" stroke="#0a84ff" stroke-width="0.8"/>
<text x="531" y="51.32" fill="#e6e6e6" font-size="12" font-family="Segoe UI, Inter, Roboto, Arial, sans-serif" font-weight="500" font-style="normal" text-anchor="start">CAM</text>
<text x="574" y="51.32" fill="#e6e6e6" font-size="12" font-family="Segoe UI, Inter, Roboto, Arial, sans-serif" font-weight="normal" font-style="normal" text-anchor="start">Drawing</text>
<text x="645" y="51.32" fill="#e6e6e6" font-size="12" font-family="Segoe UI, Inter, Roboto, Arial, sans-serif" font-weight="normal" font-style="normal" text-anchor="start">Simulation</text>
<text x="737" y="51.32" fill="#e6e6e6" font-size="12" font-family="Segoe UI, Inter, Roboto, Arial, sans-serif" font-weight="normal" font-style="normal" text-anchor="start">Parametric</text>
<text x="829" y="51.32" fill="#e6e6e6" font-size="12" font-family="Segoe UI, Inter, Roboto, Arial, sans-serif" font-weight="normal" font-style="normal" text-anchor="start">Optimize</text>
<text x="907" y="51.32" fill="#e6e6e6" font-size="12" font-family="Segoe UI, Inter, Roboto, Arial, sans-serif" font-weight="normal" font-style="normal" text-anchor="start">Generate</text>
<text x="985" y="51.32" fill="#e6e6e6" font-size="12" font-family="Segoe UI, Inter, Roboto, Arial, sans-serif" font-weight="normal" font-style="normal" text-anchor="start">GD&amp;T</text>
<text x="1035" y="51.32" fill="#e6e6e6" font-size="12" font-family="Segoe UI, Inter, Roboto, Arial, sans-serif" font-weight="normal" font-style="normal" text-anchor="start">Heal</text>
<text x="1085" y="51.32" fill="#e6e6e6" font-size="12" font-family="Segoe UI, Inter, Roboto, Arial, sans-serif" font-weight="normal" font-style="normal" text-anchor="start">Inspect</text>
<text x="1156" y="51.32" fill="#e6e6e6" font-size="12" font-family="Segoe UI, Inter, Roboto, Arial, sans-serif" font-weight="normal" font-style="normal" text-anchor="start">Mold</text>
<text x="1206" y="51.32" fill="#e6e6e6" font-size="12" font-family="Segoe UI, Inter, Roboto, Arial, sans-serif" font-weight="normal" font-style="normal" text-anchor="start">Tools</text>
<text x="1263" y="51.32" fill="#e6e6e6" font-size="12" font-family="Segoe UI, Inter, Roboto, Arial, sans-serif" font-weight="normal" font-style="normal" text-anchor="start">Scripting</text>
<text x="1348" y="51.32" fill="#e6e6e6" font-size="12" font-family="Segoe UI, Inter, Roboto, Arial, sans-serif" font-weight="normal" font-style="normal" text-anchor="start">AI</text>
<text x="1384" y="51.32" fill="#e6e6e6" font-size="12" font-family="Segoe UI, Inter, Roboto, Arial, sans-serif" font-weight="normal" font-style="normal" text-anchor="start">Window</text>
<text x="1448" y="51.32" fill="#e6e6e6" font-size="12" font-family="Segoe UI, Inter, Roboto, Arial, sans-serif" font-weight="normal" font-style="normal" text-anchor="start">Help</text>
<rect x="527" y="61" width="220" height="240" rx="3" fill="#000000" opacity="0.4"/>
<rect x="525" y="58" width="220" height="240" rx="3" fill="#2b2b2b" stroke="#111111" stroke-width="1"/>
<rect x="425" y="36" width="100" height="22" fill="#3c3c3c" stroke="#111111" stroke-width="1"/>
<text x="433" y="51.32" fill="#e6e6e6" font-size="12" font-family="Segoe UI, Inter, Roboto, Arial, sans-serif" font-weight="500" font-style="normal" text-anchor="start">CAM</text>
<rect x="527" y="62" width="216" height="26" fill="none"/>
<circle cx="539.0" cy="75.0" r="3" fill="none" opacity="1.0" stroke="#e6e6e6" stroke-width="1.2"/>
<line x1="543.0" y1="75.0" x2="545.0" y2="75.0" stroke="#e6e6e6" stroke-width="1.2"/>
<line x1="541.8284271247462" y1="77.82842712474618" x2="543.2426406871193" y2="79.24264068711929" stroke="#e6e6e6" stroke-width="1.2"/>
<line x1="539.0" y1="79.0" x2="539.0" y2="81.0" stroke="#e6e6e6" stroke-width="1.2"/>
<line x1="536.1715728752538" y1="77.82842712474618" x2="534.7573593128807" y2="79.24264068711929" stroke="#e6e6e6" stroke-width="1.2"/>
<line x1="535.0" y1="75.0" x2="533.0" y2="75.0" stroke="#e6e6e6" stroke-width="1.2"/>
<line x1="536.1715728752538" y1="72.17157287525382" x2="534.7573593128807" y2="70.75735931288071" stroke="#e6e6e6" stroke-width="1.2"/>
<line x1="539.0" y1="71.0" x2="539.0" y2="69.0" stroke="#e6e6e6" stroke-width="1.2"/>
<line x1="541.8284271247462" y1="72.17157287525382" x2="543.2426406871193" y2="70.75735931288071" stroke="#e6e6e6" stroke-width="1.2"/>
<text x="553" y="79.32" fill="#e6e6e6" font-size="12" font-family="Segoe UI, Inter, Roboto, Arial, sans-serif" font-weight="normal" font-style="normal" text-anchor="start">CAM Setup</text>
<line x1="533" y1="92.0" x2="737" y2="92.0" stroke="#454545" stroke-width="1"/>
<rect x="527" y="96" width="216" height="26" fill="none"/>
<path d="M534 114 L540.6 107.4 L537.4 110.6 L534 114 M539.8 108.2 L545 103 L543 105 L542.2 109.0" fill="none" stroke="#e6e6e6" stroke-width="1.2" opacity="1.0"/>
<text x="553" y="113.32" fill="#e6e6e6" font-size="12" font-family="Segoe UI, Inter, Roboto, Arial, sans-serif" font-weight="normal" font-style="normal" text-anchor="start">Tools</text>
<polyline points="736.6,105.0 741.4,109.0 736.6,113.0" fill="none" stroke="#a8a8a8" stroke-width="1.2"/>
<line x1="533" y1="126.0" x2="737" y2="126.0" stroke="#454545" stroke-width="1"/>
<rect x="527" y="130" width="216" height="26" fill="none"/>
<rect x="534" y="138" width="10" height="10" fill="none" stroke="#e6e6e6" stroke-width="1.2"/>
<line x1="534" y1="138" x2="544" y2="148" stroke="#e6e6e6" stroke-width="1.2" stroke-dasharray="2 2"/>
<text x="553" y="147.32" fill="#e6e6e6" font-size="12" font-family="Segoe UI, Inter, Roboto, Arial, sans-serif" font-weight="normal" font-style="normal" text-anchor="start">Operations</text>
<polyline points="736.6,139.0 741.4,143.0 736.6,147.0" fill="none" stroke="#a8a8a8" stroke-width="1.2"/>
<line x1="533" y1="160.0" x2="737" y2="160.0" stroke="#454545" stroke-width="1"/>
<rect x="527" y="164" width="216" height="26" fill="none"/>
<polygon points="536,172 536,182 543,177.0" fill="#e6e6e6"/>
<text x="553" y="181.32" fill="#e6e6e6" font-size="12" font-family="Segoe UI, Inter, Roboto, Arial, sans-serif" font-weight="normal" font-style="normal" text-anchor="start">Simulate</text>
<polyline points="736.6,173.0 741.4,177.0 736.6,181.0" fill="none" stroke="#a8a8a8" stroke-width="1.2"/>
<line x1="533" y1="194.0" x2="737" y2="194.0" stroke="#454545" stroke-width="1"/>
<rect x="527" y="198" width="216" height="26" fill="none"/>
<path d="M534 216 L534 206 L537.0 206 M541.0 206 L544 206 L544 216 Z M539.0 206 L539.0 214 M536.0 208 L539.0 205 L542.0 208" fill="none" stroke="#e6e6e6" stroke-width="1.2" opacity="1.0"/>
<text x="553" y="215.32" fill="#e6e6e6" font-size="12" font-family="Segoe UI, Inter, Roboto, Arial, sans-serif" font-weight="normal" font-style="normal" text-anchor="start">Post Process</text>
<polyline points="736.6,207.0 741.4,211.0 736.6,215.0" fill="none" stroke="#a8a8a8" stroke-width="1.2"/>
<line x1="533" y1="228.0" x2="737" y2="228.0" stroke="#454545" stroke-width="1"/>
<rect x="527" y="232" width="216" height="26" fill="none"/>
<path d="M545.4 245.0 A6.4 6.4 0 1 0 532.6 244.0" fill="none" stroke="#e6e6e6" stroke-width="1.2" opacity="1.0"/>
<polygon points="532.6,242.0 532.6,246.0 529.6,244.0" fill="#e6e6e6"/>
<text x="553" y="249.32" fill="#e6e6e6" font-size="12" font-family="Segoe UI, Inter, Roboto, Arial, sans-serif" font-weight="normal" font-style="normal" text-anchor="start">5-Axis</text>
<polyline points="736.6,241.0 741.4,245.0 736.6,249.0" fill="none" stroke="#a8a8a8" stroke-width="1.2"/>
<line x1="533" y1="262.0" x2="737" y2="262.0" stroke="#454545" stroke-width="1"/>
<rect x="527" y="266" width="216" height="26" fill="none"/>
<rect x="533" y="273" width="12" height="12" rx="2" fill="none" stroke="#e6e6e6" stroke-width="1.2"/>
<text x="536" y="283" fill="#e6e6e6" font-size="7" font-family="Segoe UI, Inter, Roboto, Arial, sans-serif" font-weight="bold" font-style="normal" text-anchor="start">AI</text>
<text x="553" y="283.32" fill="#e6e6e6" font-size="12" font-family="Segoe UI, Inter, Roboto, Arial, sans-serif" font-weight="normal" font-style="normal" text-anchor="start">AI</text>
<polyline points="736.6,275.0 741.4,279.0 736.6,283.0" fill="none" stroke="#a8a8a8" stroke-width="1.2"/>
<rect x="0" y="670" width="1100" height="30" fill="#262626" stroke="#1a1a1a" stroke-width="1"/>
<text x="14" y="690" fill="#a8a8a8" font-size="11" font-family="Segoe UI, Inter, Roboto, Arial, sans-serif" font-weight="normal" font-style="normal" text-anchor="start">Menu: CAM  ·  7 items</text>
<text x="1086" y="690" fill="#a8a8a8" font-size="10" font-family="Segoe UI, Inter, Roboto, Arial, sans-serif" font-weight="normal" font-style="normal" text-anchor="end">BRepCAD UI Mockup</text>
</svg>
