<?xml version="1.0" encoding="UTF-8" standalone="no"?>
<svg xmlns="http://www.w3.org/2000/svg" xmlns:xlink="http://www.w3.org/1999/xlink" width="1400" height="220" viewBox="0 0 1400 220">
<title>Ribbon Tab: AI</title>
<rect x="0" y="0" width="1400" height="220" fill="#1f1f1f"/>
<rect x="0" y="0" width="1400" height="36" fill="#262626" stroke="#1a1a1a" stroke-width="1"/>
<text x="14" y="22" fill="#e6e6e6" font-size="14" font-family="Segoe UI, Inter, Roboto, Arial, sans-serif" font-weight="600" font-style="normal" text-anchor="start">Ribbon Tab: AI</text>
<text x="14" y="32" fill="#a8a8a8" font-size="10" font-family="Segoe UI, Inter, Roboto, Arial, sans-serif" font-weight="normal" font-style="normal" text-anchor="start">Ribbon groups shown when &#x27;AI&#x27; is active</text>
<rect x="0" y="36" width="1400" height="154" fill="#2b2b2b" stroke="#1a1a1a" stroke-width="1"/>
<rect x="0" y="36" width="1400" height="22" fill="#1f1f1f"/>
<text x="13" y="51.32" fill="#a8a8a8" font-size="12" font-family="Segoe UI, Inter, Roboto, Arial, sans-serif" font-weight="normal" font-style="normal" text-anchor="start">File</text>
<text x="59" y="51.32" fill="#a8a8a8" font-size="12" font-family="Segoe UI, Inter, Roboto, Arial, sans-serif" font-weight="normal" font-style="normal" text-anchor="start">Home</text>
<text x="105" y="51.32" fill="#a8a8a8" font-size="12" font-family="Segoe UI, Inter, Roboto, Arial, sans-serif" font-weight="normal" font-style="normal" text-anchor="start">Sketch</text>
<text x="165" y="51.32" fill="#a8a8a8" font-size="12" font-family="Segoe UI, Inter, Roboto, Arial, sans-serif" font-weight="normal" font-style="normal" text-anchor="start">Insert</text>
<text x="225" y="51.32" fill="#a8a8a8" font-size="12" font-family="Segoe UI, Inter, Roboto, Arial, sans-serif" font-weight="normal" font-style="normal" text-anchor="start">Modify</text>
<text x="285" y="51.32" fill="#a8a8a8" font-size="12" font-family="Segoe UI, Inter, Roboto, Arial, sans-serif" font-weight="normal" font-style="normal" text-anchor="start">Sheet Metal</text>
<text x="380" y="51.32" fill="#a8a8a8" font-size="12" font-family="Segoe UI, Inter, Roboto, Arial, sans-serif" font-weight="normal" font-style="normal" text-anchor="start">Assembly</text>
<text x="454" y="51.32" fill="#a8a8a8" font-size="12" font-family="Segoe UI, Inter, Roboto, Arial, sans-serif" font-weight="normal" font-style="normal" text-anchor="start">CAM</text>
<text x="493" y="51.32" fill="#a8a8a8" font-size="12" font-family="Segoe UI, Inter, Roboto, Arial, sans-serif" font-weight="normal" font-style="normal" text-anchor="start">Drawing</text>
<text x="560" y="51.32" fill="#a8a8a8" font-size="12" font-family="Segoe UI, Inter, Roboto, Arial, sans-serif" font-weight="normal" font-style="normal" text-anchor="start">Simulation</text>
<text x="648" y="51.32" fill="#a8a8a8" font-size="12" font-family="Segoe UI, Inter, Roboto, Arial, sans-serif" font-weight="normal" font-style="normal" text-anchor="start">Inspect</text>
<rect x="706" y="37" width="32" height="22" fill="#2b2b2b" stroke="#0a84ff" stroke-width="0"/>
<rect x="706" y="56" width="32" height="2" fill="#0a84ff"/>
<text x="715" y="51.32" fill="#e6e6e6" font-size="12" font-family="Segoe UI, Inter, Roboto, Arial, sans-serif" font-weight="600" font-style="normal" text-anchor="start">AI</text>
<text x="747" y="51.32" fill="#a8a8a8" font-size="12" font-family="Segoe UI, Inter, Roboto, Arial, sans-serif" font-weight="normal" font-style="normal" text-anchor="start">Tools</text>
<text x="800" y="51.32" fill="#a8a8a8" font-size="12" font-family="Segoe UI, Inter, Roboto, Arial, sans-serif" font-weight="normal" font-style="normal" text-anchor="start">View</text>
<line x1="0" y1="58" x2="1400" y2="58" stroke="#3e3e3e" stroke-width="1"/>
<rect x="6" y="62" width="150" height="124" rx="2" fill="#2b2b2b" stroke="#3e3e3e" stroke-width="0.5"/>
<rect x="10" y="66" width="32" height="32" rx="2" fill="#323232" stroke="#3e3e3e" stroke-width="0.5"/>
<rect x="20" y="76" width="12" height="12" rx="2" fill="none" stroke="#e6e6e6" stroke-width="1.2"/>
<text x="23" y="86" fill="#e6e6e6" font-size="7" font-family="Segoe UI, Inter, Roboto, Arial, sans-serif" font-weight="bold" font-style="normal" text-anchor="start">AI</text>
<rect x="46" y="66" width="32" height="32" rx="2" fill="#323232" stroke="#3e3e3e" stroke-width="0.5"/>
<circle cx="58" cy="78" r="1" fill="#e6e6e6" opacity="1.0"/>
<circle cx="58" cy="83" r="1" fill="#e6e6e6" opacity="1.0"/>
<circle cx="58" cy="88" r="1" fill="#e6e6e6" opacity="1.0"/>
<circle cx="63" cy="78" r="1" fill="#e6e6e6" opacity="1.0"/>
<circle cx="63" cy="83" r="1" fill="#e6e6e6" opacity="1.0"/>
<circle cx="63" cy="88" r="1" fill="#e6e6e6" opacity="1.0"/>
<circle cx="68" cy="78" r="1" fill="#e6e6e6" opacity="1.0"/>
<circle cx="68" cy="83" r="1" fill="#e6e6e6" opacity="1.0"/>
<circle cx="68" cy="88" r="1" fill="#e6e6e6" opacity="1.0"/>
<line x1="59" y1="78" x2="62" y2="78" stroke="#e6e6e6" stroke-width="0.72"/>
<line x1="59" y1="83" x2="62" y2="83" stroke="#e6e6e6" stroke-width="0.72"/>
<line x1="59" y1="88" x2="62" y2="88" stroke="#e6e6e6" stroke-width="0.72"/>
<line x1="64" y1="78" x2="67" y2="78" stroke="#e6e6e6" stroke-width="0.72"/>
<line x1="64" y1="83" x2="67" y2="83" stroke="#e6e6e6" stroke-width="0.72"/>
<line x1="64" y1="88" x2="67" y2="88" stroke="#e6e6e6" stroke-width="0.72"/>
<line x1="58" y1="79" x2="58" y2="82" stroke="#e6e6e6" stroke-width="0.72"/>
<line x1="58" y1="84" x2="58" y2="87" stroke="#e6e6e6" stroke-width="0.72"/>
<line x1="63" y1="79" x2="63" y2="82" stroke="#e6e6e6" stroke-width="0.72"/>
<line x1="63" y1="84" x2="63" y2="87" stroke="#e6e6e6" stroke-width="0.72"/>
<line x1="68" y1="79" x2="68" y2="82" stroke="#e6e6e6" stroke-width="0.72"/>
<line x1="68" y1="84" x2="68" y2="87" stroke="#e6e6e6" stroke-width="0.72"/>
<rect x="82" y="66" width="32" height="32" rx="2" fill="#323232" stroke="#3e3e3e" stroke-width="0.5"/>
<circle cx="94" cy="78" r="1" fill="#e6e6e6" opacity="1.0"/>
<circle cx="94" cy="83" r="1" fill="#e6e6e6" opacity="1.0"/>
<circle cx="94" cy="88" r="1" fill="#e6e6e6" opacity="1.0"/>
<circle cx="99" cy="78" r="1" fill="#e6e6e6" opacity="1.0"/>
<circle cx="99" cy="83" r="1" fill="#e6e6e6" opacity="1.0"/>
<circle cx="99" cy="88" r="1" fill="#e6e6e6" opacity="1.0"/>
<circle cx="104" cy="78" r="1" fill="#e6e6e6" opacity="1.0"/>
<circle cx="104" cy="83" r="1" fill="#e6e6e6" opacity="1.0"/>
<circle cx="104" cy="88" r="1" fill="#e6e6e6" opacity="1.0"/>
<line x1="95" y1="78" x2="98" y2="78" stroke="#e6e6e6" stroke-width="0.72"/>
<line x1="95" y1="83" x2="98" y2="83" stroke="#e6e6e6" stroke-width="0.72"/>
<line x1="95" y1="88" x2="98" y2="88" stroke="#e6e6e6" stroke-width="0.72"/>
<line x1="100" y1="78" x2="103" y2="78" stroke="#e6e6e6" stroke-width="0.72"/>
<line x1="100" y1="83" x2="103" y2="83" stroke="#e6e6e6" stroke-width="0.72"/>
<line x1="100" y1="88" x2="103" y2="88" stroke="#e6e6e6" stroke-width="0.72"/>
<line x1="94" y1="79" x2="94" y2="82" stroke="#e6e6e6" stroke-width="0.72"/>
<line x1="94" y1="84" x2="94" y2="87" stroke="#e6e6e6" stroke-width="0.72"/>
<line x1="99" y1="79" x2="99" y2="82" stroke="#e6e6e6" stroke-width="0.72"/>
<line x1="99" y1="84" x2="99" y2="87" stroke="#e6e6e6" stroke-width="0.72"/>
<line x1="104" y1="79" x2="104" y2="82" stroke="#e6e6e6" stroke-width="0.72"/>
<line x1="104" y1="84" x2="104" y2="87" stroke="#e6e6e6" stroke-width="0.72"/>
<rect x="10" y="102" width="32" height="32" rx="2" fill="#323232" stroke="#3e3e3e" stroke-width="0.5"/>
<circle cx="22" cy="114" r="1" fill="#e6e6e6" opacity="1.0"/>
<circle cx="22" cy="119" r="1" fill="#e6e6e6" opacity="1.0"/>
<circle cx="22" cy="124" r="1" fill="#e6e6e6" opacity="1.0"/>
<circle cx="27" cy="114" r="1" fill="#e6e6e6" opacity="1.0"/>
<circle cx="27" cy="119" r="1" fill="#e6e6e6" opacity="1.0"/>
<circle cx="27" cy="124" r="1" fill="#e6e6e6" opacity="1.0"/>
<circle cx="32" cy="114" r="1" fill="#e6e6e6" opacity="1.0"/>
<circle cx="32" cy="119" r="1" fill="#e6e6e6" opacity="1.0"/>
<circle cx="32" cy="124" r="1" fill="#e6e6e6" opacity="1.0"/>
<line x1="23" y1="114" x2="26" y2="114" stroke="#e6e6e6" stroke-width="0.72"/>
<line x1="23" y1="119" x2="26" y2="119" stroke="#e6e6e6" stroke-width="0.72"/>
<line x1="23" y1="124" x2="26" y2="124" stroke="#e6e6e6" stroke-width="0.72"/>
<line x1="28" y1="114" x2="31" y2="114" stroke="#e6e6e6" stroke-width="0.72"/>
<line x1="28" y1="119" x2="31" y2="119" stroke="#e6e6e6" stroke-width="0.72"/>
<line x1="28" y1="124" x2="31" y2="124" stroke="#e6e6e6" stroke-width="0.72"/>
<line x1="22" y1="115" x2="22" y2="118" stroke="#e6e6e6" stroke-width="0.72"/>
<line x1="22" y1="120" x2="22" y2="123" stroke="#e6e6e6" stroke-width="0.72"/>
<line x1="27" y1="115" x2="27" y2="118" stroke="#e6e6e6" stroke-width="0.72"/>
<line x1="27" y1="120" x2="27" y2="123" stroke="#e6e6e6" stroke-width="0.72"/>
<line x1="32" y1="115" x2="32" y2="118" stroke="#e6e6e6" stroke-width="0.72"/>
<line x1="32" y1="120" x2="32" y2="123" stroke="#e6e6e6" stroke-width="0.72"/>
<rect x="46" y="102" width="32" height="32" rx="2" fill="#323232" stroke="#3e3e3e" stroke-width="0.5"/>
<circle cx="58" cy="114" r="1" fill="#e6e6e6" opacity="1.0"/>
<circle cx="58" cy="119" r="1" fill="#e6e6e6" opacity="1.0"/>
<circle cx="58" cy="124" r="1" fill="#e6e6e6" opacity="1.0"/>
<circle cx="63" cy="114" r="1" fill="#e6e6e6" opacity="1.0"/>
<circle cx="63" cy="119" r="1" fill="#e6e6e6" opacity="1.0"/>
<circle cx="63" cy="124" r="1" fill="#e6e6e6" opacity="1.0"/>
<circle cx="68" cy="114" r="1" fill="#e6e6e6" opacity="1.0"/>
<circle cx="68" cy="119" r="1" fill="#e6e6e6" opacity="1.0"/>
<circle cx="68" cy="124" r="1" fill="#e6e6e6" opacity="1.0"/>
<line x1="59" y1="114" x2="62" y2="114" stroke="#e6e6e6" stroke-width="0.72"/>
<line x1="59" y1="119" x2="62" y2="119" stroke="#e6e6e6" stroke-width="0.72"/>
<line x1="59" y1="124" x2="62" y2="124" stroke="#e6e6e6" stroke-width="0.72"/>
<line x1="64" y1="114" x2="67" y2="114" stroke="#e6e6e6" stroke-width="0.72"/>
<line x1="64" y1="119" x2="67" y2="119" stroke="#e6e6e6" stroke-width="0.72"/>
<line x1="64" y1="124" x2="67" y2="124" stroke="#e6e6e6" stroke-width="0.72"/>
<line x1="58" y1="115" x2="58" y2="118" stroke="#e6e6e6" stroke-width="0.72"/>
<line x1="58" y1="120" x2="58" y2="123" stroke="#e6e6e6" stroke-width="0.72"/>
<line x1="63" y1="115" x2="63" y2="118" stroke="#e6e6e6" stroke-width="0.72"/>
<line x1="63" y1="120" x2="63" y2="123" stroke="#e6e6e6" stroke-width="0.72"/>
<line x1="68" y1="115" x2="68" y2="118" stroke="#e6e6e6" stroke-width="0.72"/>
<line x1="68" y1="120" x2="68" y2="123" stroke="#e6e6e6" stroke-width="0.72"/>
<text x="10" y="183.24" fill="#a8a8a8" font-size="9" font-family="Segoe UI, Inter, Roboto, Arial, sans-serif" font-weight="normal" font-style="normal" text-anchor="start">Generate</text>
<rect x="160" y="62" width="140" height="124" rx="2" fill="#2b2b2b" stroke="#3e3e3e" stroke-width="0.5"/>
<rect x="164" y="66" width="32" height="32" rx="2" fill="#323232" stroke="#3e3e3e" stroke-width="0.5"/>
<circle cx="176" cy="78" r="1" fill="#e6e6e6" opacity="1.0"/>
<circle cx="176" cy="83" r="1" fill="#e6e6e6" opacity="1.0"/>
<circle cx="176" cy="88" r="1" fill="#e6e6e6" opacity="1.0"/>
<circle cx="181" cy="78" r="1" fill="#e6e6e6" opacity="1.0"/>
<circle cx="181" cy="83" r="1" fill="#e6e6e6" opacity="1.0"/>
<circle cx="181" cy="88" r="1" fill="#e6e6e6" opacity="1.0"/>
<circle cx="186" cy="78" r="1" fill="#e6e6e6" opacity="1.0"/>
<circle cx="186" cy="83" r="1" fill="#e6e6e6" opacity="1.0"/>
<circle cx="186" cy="88" r="1" fill="#e6e6e6" opacity="1.0"/>
<line x1="177" y1="78" x2="180" y2="78" stroke="#e6e6e6" stroke-width="0.72"/>
<line x1="177" y1="83" x2="180" y2="83" stroke="#e6e6e6" stroke-width="0.72"/>
<line x1="177" y1="88" x2="180" y2="88" stroke="#e6e6e6" stroke-width="0.72"/>
<line x1="182" y1="78" x2="185" y2="78" stroke="#e6e6e6" stroke-width="0.72"/>
<line x1="182" y1="83" x2="185" y2="83" stroke="#e6e6e6" stroke-width="0.72"/>
<line x1="182" y1="88" x2="185" y2="88" stroke="#e6e6e6" stroke-width="0.72"/>
<line x1="176" y1="79" x2="176" y2="82" stroke="#e6e6e6" stroke-width="0.72"/>
<line x1="176" y1="84" x2="176" y2="87" stroke="#e6e6e6" stroke-width="0.72"/>
<line x1="181" y1="79" x2="181" y2="82" stroke="#e6e6e6" stroke-width="0.72"/>
<line x1="181" y1="84" x2="181" y2="87" stroke="#e6e6e6" stroke-width="0.72"/>
<line x1="186" y1="79" x2="186" y2="82" stroke="#e6e6e6" stroke-width="0.72"/>
<line x1="186" y1="84" x2="186" y2="87" stroke="#e6e6e6" stroke-width="0.72"/>
<rect x="200" y="66" width="32" height="32" rx="2" fill="#323232" stroke="#3e3e3e" stroke-width="0.5"/>
<circle cx="212" cy="78" r="1" fill="#e6e6e6" opacity="1.0"/>
<circle cx="212" cy="83" r="1" fill="#e6e6e6" opacity="1.0"/>
<circle cx="212" cy="88" r="1" fill="#e6e6e6" opacity="1.0"/>
<circle cx="217" cy="78" r="1" fill="#e6e6e6" opacity="1.0"/>
<circle cx="217" cy="83" r="1" fill="#e6e6e6" opacity="1.0"/>
<circle cx="217" cy="88" r="1" fill="#e6e6e6" opacity="1.0"/>
<circle cx="222" cy="78" r="1" fill="#e6e6e6" opacity="1.0"/>
<circle cx="222" cy="83" r="1" fill="#e6e6e6" opacity="1.0"/>
<circle cx="222" cy="88" r="1" fill="#e6e6e6" opacity="1.0"/>
<line x1="213" y1="78" x2="216" y2="78" stroke="#e6e6e6" stroke-width="0.72"/>
<line x1="213" y1="83" x2="216" y2="83" stroke="#e6e6e6" stroke-width="0.72"/>
<line x1="213" y1="88" x2="216" y2="88" stroke="#e6e6e6" stroke-width="0.72"/>
<line x1="218" y1="78" x2="221" y2="78" stroke="#e6e6e6" stroke-width="0.72"/>
<line x1="218" y1="83" x2="221" y2="83" stroke="#e6e6e6" stroke-width="0.72"/>
<line x1="218" y1="88" x2="221" y2="88" stroke="#e6e6e6" stroke-width="0.72"/>
<line x1="212" y1="79" x2="212" y2="82" stroke="#e6e6e6" stroke-width="0.72"/>
<line x1="212" y1="84" x2="212" y2="87" stroke="#e6e6e6" stroke-width="0.72"/>
<line x1="217" y1="79" x2="217" y2="82" stroke="#e6e6e6" stroke-width="0.72"/>
<line x1="217" y1="84" x2="217" y2="87" stroke="#e6e6e6" stroke-width="0.72"/>
<line x1="222" y1="79" x2="222" y2="82" stroke="#e6e6e6" stroke-width="0.72"/>
<line x1="222" y1="84" x2="222" y2="87" stroke="#e6e6e6" stroke-width="0.72"/>
<rect x="236" y="66" width="32" height="32" rx="2" fill="#323232" stroke="#3e3e3e" stroke-width="0.5"/>
<circle cx="248" cy="78" r="1" fill="#e6e6e6" opacity="1.0"/>
<circle cx="248" cy="83" r="1" fill="#e6e6e6" opacity="1.0"/>
<circle cx="248" cy="88" r="1" fill="#e6e6e6" opacity="1.0"/>
<circle cx="253" cy="78" r="1" fill="#e6e6e6" opacity="1.0"/>
<circle cx="253" cy="83" r="1" fill="#e6e6e6" opacity="1.0"/>
<circle cx="253" cy="88" r="1" fill="#e6e6e6" opacity="1.0"/>
<circle cx="258" cy="78" r="1" fill="#e6e6e6" opacity="1.0"/>
<circle cx="258" cy="83" r="1" fill="#e6e6e6" opacity="1.0"/>
<circle cx="258" cy="88" r="1" fill="#e6e6e6" opacity="1.0"/>
<line x1="249" y1="78" x2="252" y2="78" stroke="#e6e6e6" stroke-width="0.72"/>
<line x1="249" y1="83" x2="252" y2="83" stroke="#e6e6e6" stroke-width="0.72"/>
<line x1="249" y1="88" x2="252" y2="88" stroke="#e6e6e6" stroke-width="0.72"/>
<line x1="254" y1="78" x2="257" y2="78" stroke="#e6e6e6" stroke-width="0.72"/>
<line x1="254" y1="83" x2="257" y2="83" stroke="#e6e6e6" stroke-width="0.72"/>
<line x1="254" y1="88" x2="257" y2="88" stroke="#e6e6e6" stroke-width="0.72"/>
<line x1="248" y1="79" x2="248" y2="82" stroke="#e6e6e6" stroke-width="0.72"/>
<line x1="248" y1="84" x2="248" y2="87" stroke="#e6e6e6" stroke-width="0.72"/>
<line x1="253" y1="79" x2="253" y2="82" stroke="#e6e6e6" stroke-width="0.72"/>
<line x1="253" y1="84" x2="253" y2="87" stroke="#e6e6e6" stroke-width="0.72"/>
<line x1="258" y1="79" x2="258" y2="82" stroke="#e6e6e6" stroke-width="0.72"/>
<line x1="258" y1="84" x2="258" y2="87" stroke="#e6e6e6" stroke-width="0.72"/>
<rect x="164" y="102" width="32" height="32" rx="2" fill="#323232" stroke="#3e3e3e" stroke-width="0.5"/>
<line x1="175" y1="113.0" x2="185" y2="113.0" stroke="#e6e6e6" stroke-width="0.84"/>
<line x1="175" y1="116.33333333333333" x2="185" y2="116.33333333333333" stroke="#e6e6e6" stroke-width="0.84"/>
<line x1="175" y1="119.66666666666667" x2="185" y2="119.66666666666667" stroke="#e6e6e6" stroke-width="0.84"/>
<line x1="175" y1="123.0" x2="185" y2="123.0" stroke="#e6e6e6" stroke-width="0.84"/>
<line x1="175.0" y1="113" x2="175.0" y2="123" stroke="#e6e6e6" stroke-width="0.84"/>
<line x1="178.33333333333334" y1="113" x2="178.33333333333334" y2="123" stroke="#e6e6e6" stroke-width="0.84"/>
<line x1="181.66666666666666" y1="113" x2="181.66666666666666" y2="123" stroke="#e6e6e6" stroke-width="0.84"/>
<line x1="185.0" y1="113" x2="185.0" y2="123" stroke="#e6e6e6" stroke-width="0.84"/>
<text x="164" y="183.24" fill="#a8a8a8" font-size="9" font-family="Segoe UI, Inter, Roboto, Arial, sans-serif" font-weight="normal" font-style="normal" text-anchor="start">Optimize</text>
<rect x="304" y="62" width="140" height="124" rx="2" fill="#2b2b2b" stroke="#3e3e3e" stroke-width="0.5"/>
<rect x="308" y="66" width="32" height="32" rx="2" fill="#323232" stroke="#3e3e3e" stroke-width="0.5"/>
<rect x="318" y="76" width="12" height="12" rx="2" fill="none" stroke="#e6e6e6" stroke-width="1.2"/>
<text x="321" y="86" fill="#e6e6e6" font-size="7" font-family="Segoe UI, Inter, Roboto, Arial, sans-serif" font-weight="bold" font-style="normal" text-anchor="start">AI</text>
<rect x="344" y="66" width="32" height="32" rx="2" fill="#323232" stroke="#3e3e3e" stroke-width="0.5"/>
<circle cx="360.0" cy="82.0" r="6" fill="none" opacity="1.0" stroke="#e6e6e6" stroke-width="1.2"/>
<polyline points="357.0,82.0 359.0,85.0 363.0,80.0" fill="none" stroke="#e6e6e6" stroke-width="1.2"/>
<rect x="380" y="66" width="32" height="32" rx="2" fill="#323232" stroke="#3e3e3e" stroke-width="0.5"/>
<circle cx="396.0" cy="82.0" r="6" fill="none" opacity="1.0" stroke="#e6e6e6" stroke-width="1.2"/>
<line x1="396.0" y1="80.0" x2="396.0" y2="83.0" stroke="#e6e6e6" stroke-width="1.2"/>
<circle cx="396.0" cy="85.0" r="0.8" fill="#e6e6e6" opacity="1.0"/>
<rect x="308" y="102" width="32" height="32" rx="2" fill="#323232" stroke="#3e3e3e" stroke-width="0.5"/>
<circle cx="324.0" cy="118.0" r="6" fill="none" opacity="1.0" stroke="#e6e6e6" stroke-width="1.2"/>
<line x1="324.0" y1="116.0" x2="324.0" y2="119.0" stroke="#e6e6e6" stroke-width="1.2"/>
<circle cx="324.0" cy="121.0" r="0.8" fill="#e6e6e6" opacity="1.0"/>
<text x="308" y="183.24" fill="#a8a8a8" font-size="9" font-family="Segoe UI, Inter, Roboto, Arial, sans-serif" font-weight="normal" font-style="normal" text-anchor="start">Assistant</text>
<rect x="448" y="62" width="150" height="124" rx="2" fill="#2b2b2b" stroke="#3e3e3e" stroke-width="0.5"/>
<rect x="452" y="66" width="32" height="32" rx="2" fill="#323232" stroke="#3e3e3e" stroke-width="0.5"/>
<rect x="462" y="76" width="12" height="12" rx="2" fill="none" stroke="#e6e6e6" stroke-width="1.2"/>
<text x="465" y="86" fill="#e6e6e6" font-size="7" font-family="Segoe UI, Inter, Roboto, Arial, sans-serif" font-weight="bold" font-style="normal" text-anchor="start">AI</text>
<rect x="488" y="66" width="32" height="32" rx="2" fill="#323232" stroke="#3e3e3e" stroke-width="0.5"/>
<rect x="498" y="76" width="12" height="12" rx="2" fill="none" stroke="#e6e6e6" stroke-width="1.2"/>
<text x="501" y="86" fill="#e6e6e6" font-size="7" font-family="Segoe UI, Inter, Roboto, Arial, sans-serif" font-weight="bold" font-style="normal" text-anchor="start">AI</text>
<rect x="524" y="66" width="32" height="32" rx="2" fill="#323232" stroke="#3e3e3e" stroke-width="0.5"/>
<rect x="534" y="76" width="12" height="12" rx="2" fill="none" stroke="#e6e6e6" stroke-width="1.2"/>
<text x="537" y="86" fill="#e6e6e6" font-size="7" font-family="Segoe UI, Inter, Roboto, Arial, sans-serif" font-weight="bold" font-style="normal" text-anchor="start">AI</text>
<rect x="452" y="102" width="32" height="32" rx="2" fill="#323232" stroke="#3e3e3e" stroke-width="0.5"/>
<rect x="462" y="112" width="12" height="12" rx="2" fill="none" stroke="#e6e6e6" stroke-width="1.2"/>
<text x="465" y="122" fill="#e6e6e6" font-size="7" font-family="Segoe UI, Inter, Roboto, Arial, sans-serif" font-weight="bold" font-style="normal" text-anchor="start">AI</text>
<rect x="488" y="102" width="32" height="32" rx="2" fill="#323232" stroke="#3e3e3e" stroke-width="0.5"/>
<rect x="498" y="112" width="12" height="12" rx="2" fill="none" stroke="#e6e6e6" stroke-width="1.2"/>
<text x="501" y="122" fill="#e6e6e6" font-size="7" font-family="Segoe UI, Inter, Roboto, Arial, sans-serif" font-weight="bold" font-style="normal" text-anchor="start">AI</text>
<text x="452" y="183.24" fill="#a8a8a8" font-size="9" font-family="Segoe UI, Inter, Roboto, Arial, sans-serif" font-weight="normal" font-style="normal" text-anchor="start">Smart</text>
<rect x="602" y="62" width="100" height="124" rx="2" fill="#2b2b2b" stroke="#3e3e3e" stroke-width="0.5"/>
<rect x="606" y="66" width="32" height="32" rx="2" fill="#323232" stroke="#3e3e3e" stroke-width="0.5"/>
<circle cx="622.0" cy="82.0" r="3" fill="none" opacity="1.0" stroke="#e6e6e6" stroke-width="1.2"/>
<line x1="626.0" y1="82.0" x2="628.0" y2="82.0" stroke="#e6e6e6" stroke-width="1.2"/>
<line x1="624.8284271247462" y1="84.82842712474618" x2="626.2426406871193" y2="86.24264068711929" stroke="#e6e6e6" stroke-width="1.2"/>
<line x1="622.0" y1="86.0" x2="622.0" y2="88.0" stroke="#e6e6e6" stroke-width="1.2"/>
<line x1="619.1715728752538" y1="84.82842712474618" x2="617.7573593128807" y2="86.24264068711929" stroke="#e6e6e6" stroke-width="1.2"/>
<line x1="618.0" y1="82.0" x2="616.0" y2="82.0" stroke="#e6e6e6" stroke-width="1.2"/>
<line x1="619.1715728752538" y1="79.17157287525382" x2="617.7573593128807" y2="77.75735931288071" stroke="#e6e6e6" stroke-width="1.2"/>
<line x1="622.0" y1="78.0" x2="622.0" y2="76.0" stroke="#e6e6e6" stroke-width="1.2"/>
<line x1="624.8284271247462" y1="79.17157287525382" x2="626.2426406871193" y2="77.75735931288071" stroke="#e6e6e6" stroke-width="1.2"/>
<text x="606" y="183.24" fill="#a8a8a8" font-size="9" font-family="Segoe UI, Inter, Roboto, Arial, sans-serif" font-weight="normal" font-style="normal" text-anchor="start">Settings</text>
<rect x="0" y="198" width="1400" height="22" fill="#1a1a1a" stroke="#1a1a1a" stroke-width="1"/>
<line x1="0" y1="198" x2="1400" y2="198" stroke="#3e3e3e" stroke-width="1"/>
<text x="8" y="212.6" fill="#a8a8a8" font-size="10" font-family="Segoe UI, Inter, Roboto, Arial, sans-serif" font-weight="normal" font-style="normal" text-anchor="start">Ready</text>
<text x="1332" y="212.6" fill="#a8a8a8" font-size="10" font-family="Consolas, Menlo, monospace" font-weight="normal" font-style="normal" text-anchor="start">F8: Ortho</text>
<text x="1254" y="212.6" fill="#a8a8a8" font-size="10" font-family="Consolas, Menlo, monospace" font-weight="normal" font-style="normal" text-anchor="start">F2: Sketch</text>
<text x="1176" y="212.6" fill="#a8a8a8" font-size="10" font-family="Consolas, Menlo, monospace" font-weight="normal" font-style="normal" text-anchor="start">SNAP: Grid</text>
<text x="1146" y="212.6" fill="#a8a8a8" font-size="10" font-family="Consolas, Menlo, monospace" font-weight="normal" font-style="normal" text-anchor="start">mm</text>
<text x="1080" y="212.6" fill="#a8a8a8" font-size="10" font-family="Consolas, Menlo, monospace" font-weight="normal" font-style="normal" text-anchor="start">Z: 0.000</text>
<text x="1014" y="212.6" fill="#a8a8a8" font-size="10" font-family="Consolas, Menlo, monospace" font-weight="normal" font-style="normal" text-anchor="start">Y: 0.000</text>
<text x="948" y="212.6" fill="#a8a8a8" font-size="10" font-family="Consolas, Menlo, monospace" font-weight="normal" font-style="normal" text-anchor="start">X: 0.000</text>
</svg>
