<?xml version="1.0" encoding="UTF-8" standalone="no"?>
<svg xmlns="http://www.w3.org/2000/svg" xmlns:xlink="http://www.w3.org/1999/xlink" width="1200" height="700" viewBox="0 0 1200 700">
<title>Mode: Direct Modeling (gizmo on selected face)</title>

  <defs>
    <linearGradient id="lin1" x1="0" y1="0" x2="0" y2="1">
  <stop offset="0" stop-color="#202020"/>
  <stop offset="1" stop-color="#0d0d0d"/>
</linearGradient>
  </defs>
<rect x="0" y="0" width="1200" height="700" fill="#1f1f1f"/>
<rect x="0" y="0" width="1200" height="36" fill="#262626" stroke="#1a1a1a" stroke-width="1"/>
<text x="14" y="22" fill="#e6e6e6" font-size="14" font-family="Segoe UI, Inter, Roboto, Arial, sans-serif" font-weight="600" font-style="normal" text-anchor="start">Mode: Direct Modeling (gizmo on selected face)</text>
<text x="14" y="32" fill="#a8a8a8" font-size="10" font-family="Segoe UI, Inter, Roboto, Arial, sans-serif" font-weight="normal" font-style="normal" text-anchor="start">Triad manipulator: X red, Y green, Z blue, with rotation rings</text>
<rect x="0" y="36" width="1200" height="22" fill="#1f1f1f" stroke="#1a1a1a" stroke-width="1"/>
<text x="12" y="51.32" fill="#e6e6e6" font-size="12" font-family="Segoe UI, Inter, Roboto, Arial, sans-serif" font-weight="normal" font-style="normal" text-anchor="start">File</text>
<text x="62" y="51.32" fill="#e6e6e6" font-size="12" font-family="Segoe UI, Inter, Roboto, Arial, sans-serif" font-weight="normal" font-style="normal" text-anchor="start">Edit</text>
<text x="112" y="51.32" fill="#e6e6e6" font-size="12" font-family="Segoe UI, Inter, Roboto, Arial, sans-serif" font-weight="normal" font-style="normal" text-anchor="start">View</text>
<text x="162" y="51.32" fill="#e6e6e6" font-size="12" font-family="Segoe UI, Inter, Roboto, Arial, sans-serif" font-weight="normal" font-style="normal" text-anchor="start">Insert</text>
<text x="226" y="51.32" fill="#e6e6e6" font-size="12" font-family="Segoe UI, Inter, Roboto, Arial, sans-serif" font-weight="normal" font-style="normal" text-anchor="start">Sketch</text>
<text x="290" y="51.32" fill="#e6e6e6" font-size="12" font-family="Segoe UI, Inter, Roboto, Arial, sans-serif" font-weight="normal" font-style="normal" text-anchor="start">Modify</text>
<text x="354" y="51.32" fill="#e6e6e6" font-size="12" font-family="Segoe UI, Inter, Roboto, Arial, sans-serif" font-weight="normal" font-style="normal" text-anchor="start">Sheet Metal</text>
<text x="453" y="51.32" fill="#e6e6e6" font-size="12" font-family="Segoe UI, Inter, Roboto, Arial, sans-serif" font-weight="normal" font-style="normal" text-anchor="start">Assembly</text>
<text x="531" y="51.32" fill="#e6e6e6" font-size="12" font-family="Segoe UI, Inter, Roboto, Arial, sans-serif" font-weight="normal" font-style="normal" text-anchor="start">CAM</text>
<text x="574" y="51.32" fill="#e6e6e6" font-size="12" font-family="Segoe UI, Inter, Roboto, Arial, sans-serif" font-weight="normal" font-style="normal" text-anchor="start">Drawing</text>
<text x="645" y="51.32" fill="#e6e6e6" font-size="12" font-family="Segoe UI, Inter, Roboto, Arial, sans-serif" font-weight="normal" font-style="normal" text-anchor="start">Simulation</text>
<text x="737" y="51.32" fill="#e6e6e6" font-size="12" font-family="Segoe UI, Inter, Roboto, Arial, sans-serif" font-weight="normal" font-style="normal" text-anchor="start">Parametric</text>
<text x="829" y="51.32" fill="#e6e6e6" font-size="12" font-family="Segoe UI, Inter, Roboto, Arial, sans-serif" font-weight="normal" font-style="normal" text-anchor="start">Optimize</text>
<text x="907" y="51.32" fill="#e6e6e6" font-size="12" font-family="Segoe UI, Inter, Roboto, Arial, sans-serif" font-weight="normal" font-style="normal" text-anchor="start">Generate</text>
<text x="985" y="51.32" fill="#e6e6e6" font-size="12" font-family="Segoe UI, Inter, Roboto, Arial, sans-serif" font-weight="normal" font-style="normal" text-anchor="start">GD&amp;T</text>
<text x="1035" y="51.32" fill="#e6e6e6" font-size="12" font-family="Segoe UI, Inter, Roboto, Arial, sans-serif" font-weight="normal" font-style="normal" text-anchor="start">Heal</text>
<text x="1085" y="51.32" fill="#e6e6e6" font-size="12" font-family="Segoe UI, Inter, Roboto, Arial, sans-serif" font-weight="normal" font-style="normal" text-anchor="start">Inspect</text>
<text x="1156" y="51.32" fill="#e6e6e6" font-size="12" font-family="Segoe UI, Inter, Roboto, Arial, sans-serif" font-weight="normal" font-style="normal" text-anchor="start">Mold</text>
<text x="1206" y="51.32" fill="#e6e6e6" font-size="12" font-family="Segoe UI, Inter, Roboto, Arial, sans-serif" font-weight="normal" font-style="normal" text-anchor="start">Tools</text>
<text x="1263" y="51.32" fill="#e6e6e6" font-size="12" font-family="Segoe UI, Inter, Roboto, Arial, sans-serif" font-weight="normal" font-style="normal" text-anchor="start">Scripting</text>
<text x="1348" y="51.32" fill="#e6e6e6" font-size="12" font-family="Segoe UI, Inter, Roboto, Arial, sans-serif" font-weight="normal" font-style="normal" text-anchor="start">AI</text>
<text x="1384" y="51.32" fill="#e6e6e6" font-size="12" font-family="Segoe UI, Inter, Roboto, Arial, sans-serif" font-weight="normal" font-style="normal" text-anchor="start">Window</text>
<text x="1448" y="51.32" fill="#e6e6e6" font-size="12" font-family="Segoe UI, Inter, Roboto, Arial, sans-serif" font-weight="normal" font-style="normal" text-anchor="start">Help</text>
<rect x="0" y="58" width="1200" height="80" fill="#2b2b2b" stroke="#1a1a1a" stroke-width="1"/>
<rect x="0" y="58" width="1200" height="22" fill="#1f1f1f"/>
<text x="13" y="73.32" fill="#a8a8a8" font-size="12" font-family="Segoe UI, Inter, Roboto, Arial, sans-serif" font-weight="normal" font-style="normal" text-anchor="start">File</text>
<text x="59" y="73.32" fill="#a8a8a8" font-size="12" font-family="Segoe UI, Inter, Roboto, Arial, sans-serif" font-weight="normal" font-style="normal" text-anchor="start">Home</text>
<text x="105" y="73.32" fill="#a8a8a8" font-size="12" font-family="Segoe UI, Inter, Roboto, Arial, sans-serif" font-weight="normal" font-style="normal" text-anchor="start">Sketch</text>
<text x="165" y="73.32" fill="#a8a8a8" font-size="12" font-family="Segoe UI, Inter, Roboto, Arial, sans-serif" font-weight="normal" font-style="normal" text-anchor="start">Insert</text>
<rect x="216" y="59" width="60" height="22" fill="#2b2b2b" stroke="#0a84ff" stroke-width="0"/>
<rect x="216" y="78" width="60" height="2" fill="#0a84ff"/>
<text x="225" y="73.32" fill="#e6e6e6" font-size="12" font-family="Segoe UI, Inter, Roboto, Arial, sans-serif" font-weight="600" font-style="normal" text-anchor="start">Modify</text>
<text x="285" y="73.32" fill="#a8a8a8" font-size="12" font-family="Segoe UI, Inter, Roboto, Arial, sans-serif" font-weight="normal" font-style="normal" text-anchor="start">Sheet Metal</text>
<text x="380" y="73.32" fill="#a8a8a8" font-size="12" font-family="Segoe UI, Inter, Roboto, Arial, sans-serif" font-weight="normal" font-style="normal" text-anchor="start">Assembly</text>
<text x="454" y="73.32" fill="#a8a8a8" font-size="12" font-family="Segoe UI, Inter, Roboto, Arial, sans-serif" font-weight="normal" font-style="normal" text-anchor="start">CAM</text>
<text x="493" y="73.32" fill="#a8a8a8" font-size="12" font-family="Segoe UI, Inter, Roboto, Arial, sans-serif" font-weight="normal" font-style="normal" text-anchor="start">Drawing</text>
<text x="560" y="73.32" fill="#a8a8a8" font-size="12" font-family="Segoe UI, Inter, Roboto, Arial, sans-serif" font-weight="normal" font-style="normal" text-anchor="start">Simulation</text>
<text x="648" y="73.32" fill="#a8a8a8" font-size="12" font-family="Segoe UI, Inter, Roboto, Arial, sans-serif" font-weight="normal" font-style="normal" text-anchor="start">Inspect</text>
<text x="715" y="73.32" fill="#a8a8a8" font-size="12" font-family="Segoe UI, Inter, Roboto, Arial, sans-serif" font-weight="normal" font-style="normal" text-anchor="start">AI</text>
<text x="747" y="73.32" fill="#a8a8a8" font-size="12" font-family="Segoe UI, Inter, Roboto, Arial, sans-serif" font-weight="normal" font-style="normal" text-anchor="start">Tools</text>
<text x="800" y="73.32" fill="#a8a8a8" font-size="12" font-family="Segoe UI, Inter, Roboto, Arial, sans-serif" font-weight="normal" font-style="normal" text-anchor="start">View</text>
<line x1="0" y1="80" x2="1200" y2="80" stroke="#3e3e3e" stroke-width="1"/>
<rect x="6" y="84" width="180" height="50" rx="2" fill="#2b2b2b" stroke="#3e3e3e" stroke-width="0.5"/>
<rect x="10" y="88" width="32" height="32" rx="2" fill="#323232" stroke="#3e3e3e" stroke-width="0.5"/>
<rect x="21" y="99" width="10" height="10" fill="none" stroke="#e6e6e6" stroke-width="1.2"/>
<line x1="21" y1="99" x2="31" y2="109" stroke="#e6e6e6" stroke-width="1.2" stroke-dasharray="2 2"/>
<rect x="46" y="88" width="32" height="32" rx="2" fill="#323232" stroke="#3e3e3e" stroke-width="0.5"/>
<line x1="62.0" y1="104.0" x2="62.0" y2="98.4" stroke="#e6e6e6" stroke-width="1.2"/>
<line x1="62.0" y1="98.4" x2="59.5" y2="100.9" stroke="#e6e6e6" stroke-width="1.2"/>
<line x1="62.0" y1="98.4" x2="64.5" y2="100.9" stroke="#e6e6e6" stroke-width="1.2"/>
<line x1="62.0" y1="104.0" x2="62.0" y2="109.6" stroke="#e6e6e6" stroke-width="1.2"/>
<line x1="62.0" y1="109.6" x2="59.5" y2="107.1" stroke="#e6e6e6" stroke-width="1.2"/>
<line x1="62.0" y1="109.6" x2="64.5" y2="107.1" stroke="#e6e6e6" stroke-width="1.2"/>
<line x1="62.0" y1="104.0" x2="56.4" y2="104.0" stroke="#e6e6e6" stroke-width="1.2"/>
<line x1="56.4" y1="104.0" x2="58.9" y2="101.5" stroke="#e6e6e6" stroke-width="1.2"/>
<line x1="56.4" y1="104.0" x2="58.9" y2="106.5" stroke="#e6e6e6" stroke-width="1.2"/>
<line x1="62.0" y1="104.0" x2="67.6" y2="104.0" stroke="#e6e6e6" stroke-width="1.2"/>
<line x1="67.6" y1="104.0" x2="65.1" y2="101.5" stroke="#e6e6e6" stroke-width="1.2"/>
<line x1="67.6" y1="104.0" x2="65.1" y2="106.5" stroke="#e6e6e6" stroke-width="1.2"/>
<rect x="82" y="88" width="32" height="32" rx="2" fill="#323232" stroke="#3e3e3e" stroke-width="0.5"/>
<rect x="93" y="99" width="10" height="10" fill="none" stroke="#e6e6e6" stroke-width="1.2"/>
<line x1="93" y1="99" x2="103" y2="109" stroke="#e6e6e6" stroke-width="1.2" stroke-dasharray="2 2"/>
<rect x="10" y="124" width="32" height="32" rx="2" fill="#323232" stroke="#3e3e3e" stroke-width="0.5"/>
<line x1="21" y1="135" x2="31" y2="145" stroke="#e6e6e6" stroke-width="1.2"/>
<line x1="31" y1="135" x2="21" y2="145" stroke="#e6e6e6" stroke-width="1.2"/>
<rect x="46" y="124" width="32" height="32" rx="2" fill="#323232" stroke="#3e3e3e" stroke-width="0.5"/>
<rect x="57" y="135" width="10" height="10" fill="none" stroke="#e6e6e6" stroke-width="1.2"/>
<line x1="57" y1="135" x2="67" y2="145" stroke="#e6e6e6" stroke-width="1.2" stroke-dasharray="2 2"/>
<rect x="82" y="124" width="32" height="32" rx="2" fill="#323232" stroke="#3e3e3e" stroke-width="0.5"/>
<path d="M104.4 140.0 A6.4 6.4 0 1 0 91.6 139.0" fill="none" stroke="#e6e6e6" stroke-width="1.2" opacity="1.0"/>
<polygon points="91.6,137.0 91.6,141.0 88.6,139.0" fill="#e6e6e6" opacity="1.0"/>
<rect x="10" y="160" width="32" height="32" rx="2" fill="#323232" stroke="#3e3e3e" stroke-width="0.5"/>
<rect x="21" y="171" width="9.6" height="9.6" fill="none" stroke="#e6e6e6" stroke-width="1.2"/>
<rect x="24.4" y="174.4" width="8.8" height="8.8" fill="none" stroke="#e6e6e6" stroke-width="1.2"/>
<rect x="46" y="160" width="32" height="32" rx="2" fill="#323232" stroke="#3e3e3e" stroke-width="0.5"/>
<path d="M57 171 L60.0 171 L60.0 181 L57 181 Z M64.0 173 L67 173 L67 181 L64.0 181 Z" fill="none" stroke="#e6e6e6" stroke-width="1.2" opacity="1.0"/>
<text x="10" y="131.24" fill="#a8a8a8" font-size="9" font-family="Segoe UI, Inter, Roboto, Arial, sans-serif" font-weight="normal" font-style="normal" text-anchor="start">Direct</text>
<rect x="0" y="138" width="1200" height="540" fill="url(#lin1)"/>
<line x1="300" y1="489.0" x2="475.5" y2="678" stroke="#888888" stroke-width="0.5"/>
<line x1="300" y1="489.0" x2="124.5" y2="678" stroke="#888888" stroke-width="0.5"/>
<line x1="330" y1="489.0" x2="505.5" y2="678" stroke="#888888" stroke-width="0.5"/>
<line x1="330" y1="489.0" x2="154.5" y2="678" stroke="#888888" stroke-width="0.5"/>
<line x1="360" y1="489.0" x2="535.5" y2="678" stroke="#888888" stroke-width="0.5"/>
<line x1="360" y1="489.0" x2="184.5" y2="678" stroke="#888888" stroke-width="0.5"/>
<line x1="390" y1="489.0" x2="565.5" y2="678" stroke="#888888" stroke-width="0.5"/>
<line x1="390" y1="489.0" x2="214.5" y2="678" stroke="#888888" stroke-width="0.5"/>
<line x1="420" y1="489.0" x2="595.5" y2="678" stroke="#888888" stroke-width="0.5"/>
<line x1="420" y1="489.0" x2="244.5" y2="678" stroke="#888888" stroke-width="0.5"/>
<line x1="450" y1="489.0" x2="625.5" y2="678" stroke="#888888" stroke-width="0.5"/>
<line x1="450" y1="489.0" x2="274.5" y2="678" stroke="#888888" stroke-width="0.5"/>
<line x1="480" y1="489.0" x2="655.5" y2="678" stroke="#888888" stroke-width="0.5"/>
<line x1="480" y1="489.0" x2="304.5" y2="678" stroke="#888888" stroke-width="0.5"/>
<line x1="510" y1="489.0" x2="685.5" y2="678" stroke="#888888" stroke-width="0.5"/>
<line x1="510" y1="489.0" x2="334.5" y2="678" stroke="#888888" stroke-width="0.5"/>
<line x1="540" y1="489.0" x2="715.5" y2="678" stroke="#888888" stroke-width="0.5"/>
<line x1="540" y1="489.0" x2="364.5" y2="678" stroke="#888888" stroke-width="0.5"/>
<line x1="570" y1="489.0" x2="745.5" y2="678" stroke="#888888" stroke-width="0.5"/>
<line x1="570" y1="489.0" x2="394.5" y2="678" stroke="#888888" stroke-width="0.5"/>
<line x1="600" y1="489.0" x2="775.5" y2="678" stroke="#888888" stroke-width="0.5"/>
<line x1="600" y1="489.0" x2="424.5" y2="678" stroke="#888888" stroke-width="0.5"/>
<line x1="630" y1="489.0" x2="805.5" y2="678" stroke="#888888" stroke-width="0.5"/>
<line x1="630" y1="489.0" x2="454.5" y2="678" stroke="#888888" stroke-width="0.5"/>
<line x1="660" y1="489.0" x2="835.5" y2="678" stroke="#888888" stroke-width="0.5"/>
<line x1="660" y1="489.0" x2="484.5" y2="678" stroke="#888888" stroke-width="0.5"/>
<line x1="690" y1="489.0" x2="865.5" y2="678" stroke="#888888" stroke-width="0.5"/>
<line x1="690" y1="489.0" x2="514.5" y2="678" stroke="#888888" stroke-width="0.5"/>
<line x1="720" y1="489.0" x2="895.5" y2="678" stroke="#888888" stroke-width="0.5"/>
<line x1="720" y1="489.0" x2="544.5" y2="678" stroke="#888888" stroke-width="0.5"/>
<line x1="750" y1="489.0" x2="925.5" y2="678" stroke="#888888" stroke-width="0.5"/>
<line x1="750" y1="489.0" x2="574.5" y2="678" stroke="#888888" stroke-width="0.5"/>
<line x1="780" y1="489.0" x2="955.5" y2="678" stroke="#888888" stroke-width="0.5"/>
<line x1="780" y1="489.0" x2="604.5" y2="678" stroke="#888888" stroke-width="0.5"/>
<line x1="810" y1="489.0" x2="985.5" y2="678" stroke="#888888" stroke-width="0.5"/>
<line x1="810" y1="489.0" x2="634.5" y2="678" stroke="#888888" stroke-width="0.5"/>
<line x1="840" y1="489.0" x2="1015.5" y2="678" stroke="#888888" stroke-width="0.5"/>
<line x1="840" y1="489.0" x2="664.5" y2="678" stroke="#888888" stroke-width="0.5"/>
<line x1="870" y1="489.0" x2="1045.5" y2="678" stroke="#888888" stroke-width="0.5"/>
<line x1="870" y1="489.0" x2="694.5" y2="678" stroke="#888888" stroke-width="0.5"/>
<line x1="900" y1="489.0" x2="1075.5" y2="678" stroke="#888888" stroke-width="0.5"/>
<line x1="900" y1="489.0" x2="724.5" y2="678" stroke="#888888" stroke-width="0.5"/>
<line x1="0" y1="489.0" x2="1200" y2="489.0" stroke="#666666" stroke-width="1"/>
<line x1="50" y1="628" x2="80" y2="628" stroke="#e25555" stroke-width="2"/>
<text x="84" y="632" fill="#e25555" font-size="11" font-family="Segoe UI, Inter, Roboto, Arial, sans-serif" font-weight="bold" font-style="normal" text-anchor="start">X</text>
<line x1="50" y1="628" x2="50" y2="598" stroke="#5ac878" stroke-width="2"/>
<text x="47" y="592" fill="#5ac878" font-size="11" font-family="Segoe UI, Inter, Roboto, Arial, sans-serif" font-weight="bold" font-style="normal" text-anchor="start">Y</text>
<line x1="50" y1="628" x2="30" y2="643" stroke="#4a90e2" stroke-width="2"/>
<text x="20" y="650" fill="#4a90e2" font-size="11" font-family="Segoe UI, Inter, Roboto, Arial, sans-serif" font-weight="bold" font-style="normal" text-anchor="start">Z</text>
<polygon points="510.0,318.0 650.0,318.0 670.0,333.0 530.0,333.0" fill="#6a7280" opacity="1.0" stroke="#0d0d0d" stroke-width="0.5"/>
<polygon points="670.0,333.0 650.0,318.0 650.0,408.0 670.0,423.0" fill="#3a4049" opacity="1.0" stroke="#0d0d0d" stroke-width="0.5"/>
<polygon points="530.0,333.0 670.0,333.0 670.0,423.0 530.0,423.0" fill="#4a525c" opacity="1.0" stroke="#0d0d0d" stroke-width="0.5"/>
<polyline points="530.0,333.0 670.0,333.0 670.0,423.0 530.0,423.0 530.0,333.0" fill="none" stroke="#0d0d0d" stroke-width="1.2"/>
<polyline points="530.0,333.0 510.0,318.0 650.0,318.0 670.0,333.0" fill="none" stroke="#0d0d0d" stroke-width="1.2"/>
<line x1="670.0" y1="333.0" x2="650.0" y2="318.0" stroke="#0d0d0d" stroke-width="1.2"/>
<line x1="530.0" y1="423.0" x2="510.0" y2="408.0" stroke="#0d0d0d" stroke-width="1.2"/>
<line x1="670.0" y1="423.0" x2="650.0" y2="408.0" stroke="#0d0d0d" stroke-width="1.2"/>
<polygon points="530.0,235.0 670.0,235.0 670.0,325.0 530.0,325.0" fill="#e2a73a" opacity="0.35" stroke="#e2a73a" stroke-width="1.5"/>
<line x1="600" y1="280" x2="660" y2="280" stroke="#e25555" stroke-width="3"/>
<polygon points="660,280 654,276 654,284" fill="#e25555" opacity="1.0"/>
<text x="666" y="284" fill="#e25555" font-size="12" font-family="Segoe UI, Inter, Roboto, Arial, sans-serif" font-weight="bold" font-style="normal" text-anchor="start">X</text>
<line x1="600" y1="280" x2="600" y2="220" stroke="#5ac878" stroke-width="3"/>
<polygon points="600,220 596,226 604,226" fill="#5ac878" opacity="1.0"/>
<text x="597" y="214" fill="#5ac878" font-size="12" font-family="Segoe UI, Inter, Roboto, Arial, sans-serif" font-weight="bold" font-style="normal" text-anchor="start">Y</text>
<line x1="600" y1="280" x2="560" y2="310" stroke="#4a90e2" stroke-width="3"/>
<polygon points="560,310 568,305 565,314" fill="#4a90e2" opacity="1.0"/>
<text x="548" y="318" fill="#4a90e2" font-size="12" font-family="Segoe UI, Inter, Roboto, Arial, sans-serif" font-weight="bold" font-style="normal" text-anchor="start">Z</text>
<ellipse cx="600" cy="280" rx="38" ry="12" fill="none" opacity="1.0" stroke="#e25555" stroke-width="1.2" stroke-dasharray="3 2"/>
<ellipse cx="600" cy="280" rx="12" ry="38" fill="none" opacity="1.0" stroke="#5ac878" stroke-width="1.2" stroke-dasharray="3 2"/>
<ellipse cx="600" cy="280" rx="38" ry="38" fill="none" opacity="0.5" stroke="#4a90e2" stroke-width="1.2" stroke-dasharray="3 2"/>
<rect x="595" y="275" width="10" height="10" fill="#2b2b2b" stroke="#e6e6e6" stroke-width="1"/>
<rect x="900" y="160" width="280" height="180" rx="4" fill="#2b2b2b" stroke="#3e3e3e" stroke-width="1"/>
<rect x="900" y="160" width="280" height="22" fill="#323232" stroke="#1a1a1a" stroke-width="1"/>
<text x="908" y="174.96" fill="#e6e6e6" font-size="11" font-family="Segoe UI, Inter, Roboto, Arial, sans-serif" font-weight="600" font-style="normal" text-anchor="start">Push/Pull Face</text>
<circle cx="1168.0" cy="167.0" r="1.5" fill="#a8a8a8" opacity="1.0"/>
<circle cx="1168.0" cy="172.0" r="1.5" fill="#a8a8a8" opacity="1.0"/>
<circle cx="1168.0" cy="177.0" r="1.5" fill="#a8a8a8" opacity="1.0"/>
<text x="912" y="200" fill="#a8a8a8" font-size="11" font-family="Segoe UI, Inter, Roboto, Arial, sans-serif" font-weight="normal" font-style="normal" text-anchor="start">Distance:</text>
<rect x="980" y="188" width="180" height="22" rx="2" fill="#262626" stroke="#3e3e3e" stroke-width="1"/>
<text x="986" y="202.96" fill="#e6e6e6" font-size="11" font-family="Consolas, Menlo, monospace" font-weight="normal" font-style="normal" text-anchor="start">15.000 mm</text>
<line x1="1041" y1="192" x2="1041" y2="206" stroke="#0a84ff" stroke-width="1"/>
<text x="912" y="226" fill="#a8a8a8" font-size="11" font-family="Segoe UI, Inter, Roboto, Arial, sans-serif" font-weight="normal" font-style="normal" text-anchor="start">Direction:</text>
<rect x="980" y="214" width="180" height="22" rx="2" fill="#262626" stroke="#3e3e3e" stroke-width="1"/>
<text x="986" y="228.96" fill="#e6e6e6" font-size="11" font-family="Segoe UI, Inter, Roboto, Arial, sans-serif" font-weight="normal" font-style="normal" text-anchor="start">Normal</text>
<polyline points="1147.6,223.8 1150.0,227.4 1152.4,223.8" fill="none" stroke="#a8a8a8" stroke-width="1.2"/>
<text x="912" y="252" fill="#a8a8a8" font-size="11" font-family="Segoe UI, Inter, Roboto, Arial, sans-serif" font-weight="normal" font-style="normal" text-anchor="start">Taper angle:</text>
<rect x="980" y="240" width="180" height="22" rx="2" fill="#262626" stroke="#3e3e3e" stroke-width="1"/>
<text x="986" y="254.96" fill="#e6e6e6" font-size="11" font-family="Consolas, Menlo, monospace" font-weight="normal" font-style="normal" text-anchor="start">0.0°</text>
<line x1="1011" y1="244" x2="1011" y2="258" stroke="#0a84ff" stroke-width="1"/>
<rect x="914" y="270" width="10" height="10" rx="1" fill="none" stroke="#a8a8a8" stroke-width="1"/>
<text x="932" y="278.96" fill="#e6e6e6" font-size="11" font-family="Segoe UI, Inter, Roboto, Arial, sans-serif" font-weight="normal" font-style="normal" text-anchor="start">Keep original face</text>
<rect x="914" y="288" width="10" height="10" rx="1" fill="#0a84ff" stroke="#0a84ff" stroke-width="1"/>
<polyline points="917,293.0 918.0,296.0 922,291" fill="none" stroke="#ffffff" stroke-width="1.6"/>
<text x="932" y="296.96" fill="#e6e6e6" font-size="11" font-family="Segoe UI, Inter, Roboto, Arial, sans-serif" font-weight="normal" font-style="normal" text-anchor="start">Add as feature</text>
<rect x="1060" y="305" width="110" height="26" rx="3" fill="#0a84ff" stroke="#0a84ff" stroke-width="1"/>
<text x="1115.0" y="321.96" fill="#ffffff" font-size="11" font-family="Segoe UI, Inter, Roboto, Arial, sans-serif" font-weight="normal" font-style="normal" text-anchor="middle">Apply</text>
<rect x="950" y="305" width="100" height="26" rx="3" fill="#3a3a3a" stroke="#3e3e3e" stroke-width="1"/>
<text x="1000.0" y="321.96" fill="#e6e6e6" font-size="11" font-family="Segoe UI, Inter, Roboto, Arial, sans-serif" font-weight="normal" font-style="normal" text-anchor="middle">Cancel</text>
<rect x="0" y="678" width="1200" height="22" fill="#1a1a1a" stroke="#1a1a1a" stroke-width="1"/>
<line x1="0" y1="678" x2="1200" y2="678" stroke="#3e3e3e" stroke-width="1"/>
<text x="8" y="692.6" fill="#a8a8a8" font-size="10" font-family="Segoe UI, Inter, Roboto, Arial, sans-serif" font-weight="normal" font-style="normal" text-anchor="start">Ready</text>
<text x="1132" y="692.6" fill="#a8a8a8" font-size="10" font-family="Consolas, Menlo, monospace" font-weight="normal" font-style="normal" text-anchor="start">F8: Ortho</text>
<text x="1054" y="692.6" fill="#a8a8a8" font-size="10" font-family="Consolas, Menlo, monospace" font-weight="normal" font-style="normal" text-anchor="start">F2: Sketch</text>
<text x="976" y="692.6" fill="#a8a8a8" font-size="10" font-family="Consolas, Menlo, monospace" font-weight="normal" font-style="normal" text-anchor="start">SNAP: Grid</text>
<text x="946" y="692.6" fill="#a8a8a8" font-size="10" font-family="Consolas, Menlo, monospace" font-weight="normal" font-style="normal" text-anchor="start">mm</text>
<text x="880" y="692.6" fill="#a8a8a8" font-size="10" font-family="Consolas, Menlo, monospace" font-weight="normal" font-style="normal" text-anchor="start">Z: 0.000</text>
<text x="814" y="692.6" fill="#a8a8a8" font-size="10" font-family="Consolas, Menlo, monospace" font-weight="normal" font-style="normal" text-anchor="start">Y: 0.000</text>
<text x="748" y="692.6" fill="#a8a8a8" font-size="10" font-family="Consolas, Menlo, monospace" font-weight="normal" font-style="normal" text-anchor="start">X: 0.000</text>
</svg>
