<?xml version="1.0" encoding="UTF-8" standalone="no"?>
<svg xmlns="http://www.w3.org/2000/svg" xmlns:xlink="http://www.w3.org/1999/xlink" width="1400" height="900" viewBox="0 0 1400 900">
<title>Mode: Drawing (2D sheet with views + dimensions)</title>
<rect x="0" y="0" width="1400" height="900" fill="#1f1f1f"/>
<rect x="0" y="0" width="1400" height="36" fill="#262626" stroke="#1a1a1a" stroke-width="1"/>
<text x="14" y="22" fill="#e6e6e6" font-size="14" font-family="Segoe UI, Inter, Roboto, Arial, sans-serif" font-weight="600" font-style="normal" text-anchor="start">Mode: Drawing (2D sheet with views + dimensions)</text>
<text x="14" y="32" fill="#a8a8a8" font-size="10" font-family="Segoe UI, Inter, Roboto, Arial, sans-serif" font-weight="normal" font-style="normal" text-anchor="start">Multi-view technical drawing on ISO A3 sheet with BOM balloon</text>
<rect x="0" y="36" width="1400" height="22" fill="#1f1f1f" stroke="#1a1a1a" stroke-width="1"/>
<text x="12" y="51.32" fill="#e6e6e6" font-size="12" font-family="Segoe UI, Inter, Roboto, Arial, sans-serif" font-weight="normal" font-style="normal" text-anchor="start">File</text>
<text x="62" y="51.32" fill="#e6e6e6" font-size="12" font-family="Segoe UI, Inter, Roboto, Arial, sans-serif" font-weight="normal" font-style="normal" text-anchor="start">Edit</text>
<text x="112" y="51.32" fill="#e6e6e6" font-size="12" font-family="Segoe UI, Inter, Roboto, Arial, sans-serif" font-weight="normal" font-style="normal" text-anchor="start">View</text>
<text x="162" y="51.32" fill="#e6e6e6" font-size="12" font-family="Segoe UI, Inter, Roboto, Arial, sans-serif" font-weight="normal" font-style="normal" text-anchor="start">Insert</text>
<text x="226" y="51.32" fill="#e6e6e6" font-size="12" font-family="Segoe UI, Inter, Roboto, Arial, sans-serif" font-weight="normal" font-style="normal" text-anchor="start">Sketch</text>
<text x="290" y="51.32" fill="#e6e6e6" font-size="12" font-family="Segoe UI, Inter, Roboto, Arial, sans-serif" font-weight="normal" font-style="normal" text-anchor="start">Modify</text>
<text x="354" y="51.32" fill="#e6e6e6" font-size="12" font-family="Segoe UI, Inter, Roboto, Arial, sans-serif" font-weight="normal" font-style="normal" text-anchor="start">Sheet Metal</text>
<text x="453" y="51.32" fill="#e6e6e6" font-size="12" font-family="Segoe UI, Inter, Roboto, Arial, sans-serif" font-weight="normal" font-style="normal" text-anchor="start">Assembly</text>
<text x="531" y="51.32" fill="#e6e6e6" font-size="12" font-family="Segoe UI, Inter, Roboto, Arial, sans-serif" font-weight="normal" font-style="normal" text-anchor="start">CAM</text>
<rect x="566" y="38" width="65" height="18" rx="2" fill="#3c3c3c" stroke="#0a84ff" stroke-width="0.8"/>
<text x="574" y="51.32" fill="#e6e6e6" font-size="12" font-family="Segoe UI, Inter, Roboto, Arial, sans-serif" font-weight="500" font-style="normal" text-anchor="start">Drawing</text>
<text x="645" y="51.32" fill="#e6e6e6" font-size="12" font-family="Segoe UI, Inter, Roboto, Arial, sans-serif" font-weight="normal" font-style="normal" text-anchor="start">Simulation</text>
<text x="737" y="51.32" fill="#e6e6e6" font-size="12" font-family="Segoe UI, Inter, Roboto, Arial, sans-serif" font-weight="normal" font-style="normal" text-anchor="start">Parametric</text>
<text x="829" y="51.32" fill="#e6e6e6" font-size="12" font-family="Segoe UI, Inter, Roboto, Arial, sans-serif" font-weight="normal" font-style="normal" text-anchor="start">Optimize</text>
<text x="907" y="51.32" fill="#e6e6e6" font-size="12" font-family="Segoe UI, Inter, Roboto, Arial, sans-serif" font-weight="normal" font-style="normal" text-anchor="start">Generate</text>
<text x="985" y="51.32" fill="#e6e6e6" font-size="12" font-family="Segoe UI, Inter, Roboto, Arial, sans-serif" font-weight="normal" font-style="normal" text-anchor="start">GD&amp;T</text>
<text x="1035" y="51.32" fill="#e6e6e6" font-size="12" font-family="Segoe UI, Inter, Roboto, Arial, sans-serif" font-weight="normal" font-style="normal" text-anchor="start">Heal</text>
<text x="1085" y="51.32" fill="#e6e6e6" font-size="12" font-family="Segoe UI, Inter, Roboto, Arial, sans-serif" font-weight="normal" font-style="normal" text-anchor="start">Inspect</text>
<text x="1156" y="51.32" fill="#e6e6e6" font-size="12" font-family="Segoe UI, Inter, Roboto, Arial, sans-serif" font-weight="normal" font-style="normal" text-anchor="start">Mold</text>
<text x="1206" y="51.32" fill="#e6e6e6" font-size="12" font-family="Segoe UI, Inter, Roboto, Arial, sans-serif" font-weight="normal" font-style="normal" text-anchor="start">Tools</text>
<text x="1263" y="51.32" fill="#e6e6e6" font-size="12" font-family="Segoe UI, Inter, Roboto, Arial, sans-serif" font-weight="normal" font-style="normal" text-anchor="start">Scripting</text>
<text x="1348" y="51.32" fill="#e6e6e6" font-size="12" font-family="Segoe UI, Inter, Roboto, Arial, sans-serif" font-weight="normal" font-style="normal" text-anchor="start">AI</text>
<text x="1384" y="51.32" fill="#e6e6e6" font-size="12" font-family="Segoe UI, Inter, Roboto, Arial, sans-serif" font-weight="normal" font-style="normal" text-anchor="start">Window</text>
<text x="1448" y="51.32" fill="#e6e6e6" font-size="12" font-family="Segoe UI, Inter, Roboto, Arial, sans-serif" font-weight="normal" font-style="normal" text-anchor="start">Help</text>
<rect x="0" y="58" width="1400" height="80" fill="#2b2b2b" stroke="#1a1a1a" stroke-width="1"/>
<rect x="0" y="58" width="1400" height="22" fill="#1f1f1f"/>
<text x="13" y="73.32" fill="#a8a8a8" font-size="12" font-family="Segoe UI, Inter, Roboto, Arial, sans-serif" font-weight="normal" font-style="normal" text-anchor="start">File</text>
<text x="59" y="73.32" fill="#a8a8a8" font-size="12" font-family="Segoe UI, Inter, Roboto, Arial, sans-serif" font-weight="normal" font-style="normal" text-anchor="start">Home</text>
<text x="105" y="73.32" fill="#a8a8a8" font-size="12" font-family="Segoe UI, Inter, Roboto, Arial, sans-serif" font-weight="normal" font-style="normal" text-anchor="start">Sketch</text>
<text x="165" y="73.32" fill="#a8a8a8" font-size="12" font-family="Segoe UI, Inter, Roboto, Arial, sans-serif" font-weight="normal" font-style="normal" text-anchor="start">Insert</text>
<text x="225" y="73.32" fill="#a8a8a8" font-size="12" font-family="Segoe UI, Inter, Roboto, Arial, sans-serif" font-weight="normal" font-style="normal" text-anchor="start">Modify</text>
<text x="285" y="73.32" fill="#a8a8a8" font-size="12" font-family="Segoe UI, Inter, Roboto, Arial, sans-serif" font-weight="normal" font-style="normal" text-anchor="start">Sheet Metal</text>
<text x="380" y="73.32" fill="#a8a8a8" font-size="12" font-family="Segoe UI, Inter, Roboto, Arial, sans-serif" font-weight="normal" font-style="normal" text-anchor="start">Assembly</text>
<text x="454" y="73.32" fill="#a8a8a8" font-size="12" font-family="Segoe UI, Inter, Roboto, Arial, sans-serif" font-weight="normal" font-style="normal" text-anchor="start">CAM</text>
<rect x="484" y="59" width="67" height="22" fill="#2b2b2b" stroke="#0a84ff" stroke-width="0"/>
<rect x="484" y="78" width="67" height="2" fill="#0a84ff"/>
<text x="493" y="73.32" fill="#e6e6e6" font-size="12" font-family="Segoe UI, Inter, Roboto, Arial, sans-serif" font-weight="600" font-style="normal" text-anchor="start">Drawing</text>
<text x="560" y="73.32" fill="#a8a8a8" font-size="12" font-family="Segoe UI, Inter, Roboto, Arial, sans-serif" font-weight="normal" font-style="normal" text-anchor="start">Simulation</text>
<text x="648" y="73.32" fill="#a8a8a8" font-size="12" font-family="Segoe UI, Inter, Roboto, Arial, sans-serif" font-weight="normal" font-style="normal" text-anchor="start">Inspect</text>
<text x="715" y="73.32" fill="#a8a8a8" font-size="12" font-family="Segoe UI, Inter, Roboto, Arial, sans-serif" font-weight="normal" font-style="normal" text-anchor="start">AI</text>
<text x="747" y="73.32" fill="#a8a8a8" font-size="12" font-family="Segoe UI, Inter, Roboto, Arial, sans-serif" font-weight="normal" font-style="normal" text-anchor="start">Tools</text>
<text x="800" y="73.32" fill="#a8a8a8" font-size="12" font-family="Segoe UI, Inter, Roboto, Arial, sans-serif" font-weight="normal" font-style="normal" text-anchor="start">View</text>
<line x1="0" y1="80" x2="1400" y2="80" stroke="#3e3e3e" stroke-width="1"/>
<rect x="6" y="84" width="100" height="50" rx="2" fill="#2b2b2b" stroke="#3e3e3e" stroke-width="0.5"/>
<rect x="10" y="88" width="32" height="32" rx="2" fill="#323232" stroke="#3e3e3e" stroke-width="0.5"/>
<path d="M21 98 L29.2 98 L31 101 L31 110 L21 110 Z" fill="none" stroke="#e6e6e6" stroke-width="1.2" opacity="1.0"/>
<polyline points="29.2,98 29.2,101 31,101" fill="none" stroke="#e6e6e6" stroke-width="1.2"/>
<text x="10" y="131.24" fill="#a8a8a8" font-size="9" font-family="Segoe UI, Inter, Roboto, Arial, sans-serif" font-weight="normal" font-style="normal" text-anchor="start">Sheet</text>
<rect x="110" y="84" width="170" height="50" rx="2" fill="#2b2b2b" stroke="#3e3e3e" stroke-width="0.5"/>
<rect x="114" y="88" width="32" height="32" rx="2" fill="#323232" stroke="#3e3e3e" stroke-width="0.5"/>
<path d="M125 101 L130.0 98 L135 101 L135 108 L130.0 110 L125 108 Z" fill="none" stroke="#e6e6e6" stroke-width="1.2" opacity="1.0"/>
<line x1="125" y1="101" x2="130.0" y2="104" stroke="#e6e6e6" stroke-width="1.2"/>
<line x1="130.0" y1="98" x2="130.0" y2="104" stroke="#e6e6e6" stroke-width="1.2"/>
<line x1="135" y1="101" x2="130.0" y2="104" stroke="#e6e6e6" stroke-width="1.2"/>
<rect x="150" y="88" width="32" height="32" rx="2" fill="#323232" stroke="#3e3e3e" stroke-width="0.5"/>
<path d="M161 101 L166.0 98 L171 101 L171 108 L166.0 110 L161 108 Z" fill="none" stroke="#e6e6e6" stroke-width="1.2" opacity="1.0"/>
<line x1="161" y1="101" x2="166.0" y2="104" stroke="#e6e6e6" stroke-width="1.2"/>
<line x1="166.0" y1="98" x2="166.0" y2="104" stroke="#e6e6e6" stroke-width="1.2"/>
<line x1="171" y1="101" x2="166.0" y2="104" stroke="#e6e6e6" stroke-width="1.2"/>
<rect x="186" y="88" width="32" height="32" rx="2" fill="#323232" stroke="#3e3e3e" stroke-width="0.5"/>
<path d="M197 101 L202.0 98 L207 101 L207 108 L202.0 110 L197 108 Z" fill="none" stroke="#e6e6e6" stroke-width="1.2" opacity="1.0"/>
<line x1="197" y1="101" x2="202.0" y2="104" stroke="#e6e6e6" stroke-width="1.2"/>
<line x1="202.0" y1="98" x2="202.0" y2="104" stroke="#e6e6e6" stroke-width="1.2"/>
<line x1="207" y1="101" x2="202.0" y2="104" stroke="#e6e6e6" stroke-width="1.2"/>
<rect x="114" y="124" width="32" height="32" rx="2" fill="#323232" stroke="#3e3e3e" stroke-width="0.5"/>
<path d="M125 137 L130.0 134 L135 137 L135 144 L130.0 146 L125 144 Z" fill="none" stroke="#e6e6e6" stroke-width="1.2" opacity="1.0"/>
<line x1="125" y1="137" x2="130.0" y2="140" stroke="#e6e6e6" stroke-width="1.2"/>
<line x1="130.0" y1="134" x2="130.0" y2="140" stroke="#e6e6e6" stroke-width="1.2"/>
<line x1="135" y1="137" x2="130.0" y2="140" stroke="#e6e6e6" stroke-width="1.2"/>
<rect x="150" y="124" width="32" height="32" rx="2" fill="#323232" stroke="#3e3e3e" stroke-width="0.5"/>
<rect x="161" y="135" width="10" height="10" fill="none" stroke="#e6e6e6" stroke-width="1.2"/>
<line x1="161" y1="135" x2="171" y2="145" stroke="#e6e6e6" stroke-width="1.2" stroke-dasharray="2 2"/>
<rect x="186" y="124" width="32" height="32" rx="2" fill="#323232" stroke="#3e3e3e" stroke-width="0.5"/>
<circle cx="201.0" cy="139.0" r="4.8" fill="none" opacity="1.0" stroke="#e6e6e6" stroke-width="1.2"/>
<line x1="205.2" y1="143.2" x2="208" y2="146" stroke="#e6e6e6" stroke-width="1.2"/>
<text x="114" y="131.24" fill="#a8a8a8" font-size="9" font-family="Segoe UI, Inter, Roboto, Arial, sans-serif" font-weight="normal" font-style="normal" text-anchor="start">Views</text>
<rect x="284" y="84" width="160" height="50" rx="2" fill="#2b2b2b" stroke="#3e3e3e" stroke-width="0.5"/>
<rect x="288" y="88" width="32" height="32" rx="2" fill="#323232" stroke="#3e3e3e" stroke-width="0.5"/>
<line x1="299" y1="99" x2="309" y2="99" stroke="#e6e6e6" stroke-width="1.2" stroke-dasharray="2 2"/>
<line x1="299" y1="99" x2="299" y2="109" stroke="#e6e6e6" stroke-width="1.2"/>
<line x1="309" y1="99" x2="309" y2="109" stroke="#e6e6e6" stroke-width="1.2"/>
<line x1="301" y1="108" x2="307" y2="108" stroke="#e6e6e6" stroke-width="1.2"/>
<polygon points="301,108 304,106 304,110" fill="#e6e6e6" opacity="1.0"/>
<polygon points="307,108 304,106 304,110" fill="#e6e6e6" opacity="1.0"/>
<rect x="324" y="88" width="32" height="32" rx="2" fill="#323232" stroke="#3e3e3e" stroke-width="0.5"/>
<line x1="335" y1="99" x2="345" y2="99" stroke="#e6e6e6" stroke-width="1.2" stroke-dasharray="2 2"/>
<line x1="335" y1="99" x2="335" y2="109" stroke="#e6e6e6" stroke-width="1.2"/>
<line x1="345" y1="99" x2="345" y2="109" stroke="#e6e6e6" stroke-width="1.2"/>
<line x1="337" y1="108" x2="343" y2="108" stroke="#e6e6e6" stroke-width="1.2"/>
<polygon points="337,108 340,106 340,110" fill="#e6e6e6" opacity="1.0"/>
<polygon points="343,108 340,106 340,110" fill="#e6e6e6" opacity="1.0"/>
<rect x="360" y="88" width="32" height="32" rx="2" fill="#323232" stroke="#3e3e3e" stroke-width="0.5"/>
<line x1="371" y1="99" x2="381" y2="99" stroke="#e6e6e6" stroke-width="1.2" stroke-dasharray="2 2"/>
<line x1="371" y1="99" x2="371" y2="109" stroke="#e6e6e6" stroke-width="1.2"/>
<line x1="381" y1="99" x2="381" y2="109" stroke="#e6e6e6" stroke-width="1.2"/>
<line x1="373" y1="108" x2="379" y2="108" stroke="#e6e6e6" stroke-width="1.2"/>
<polygon points="373,108 376,106 376,110" fill="#e6e6e6" opacity="1.0"/>
<polygon points="379,108 376,106 376,110" fill="#e6e6e6" opacity="1.0"/>
<rect x="288" y="124" width="32" height="32" rx="2" fill="#323232" stroke="#3e3e3e" stroke-width="0.5"/>
<line x1="299" y1="135" x2="309" y2="135" stroke="#e6e6e6" stroke-width="1.2" stroke-dasharray="2 2"/>
<line x1="299" y1="135" x2="299" y2="145" stroke="#e6e6e6" stroke-width="1.2"/>
<line x1="309" y1="135" x2="309" y2="145" stroke="#e6e6e6" stroke-width="1.2"/>
<line x1="301" y1="144" x2="307" y2="144" stroke="#e6e6e6" stroke-width="1.2"/>
<polygon points="301,144 304,142 304,146" fill="#e6e6e6" opacity="1.0"/>
<polygon points="307,144 304,142 304,146" fill="#e6e6e6" opacity="1.0"/>
<text x="288" y="131.24" fill="#a8a8a8" font-size="9" font-family="Segoe UI, Inter, Roboto, Arial, sans-serif" font-weight="normal" font-style="normal" text-anchor="start">Dimensions</text>
<rect x="448" y="84" width="140" height="50" rx="2" fill="#2b2b2b" stroke="#3e3e3e" stroke-width="0.5"/>
<rect x="452" y="88" width="32" height="32" rx="2" fill="#323232" stroke="#3e3e3e" stroke-width="0.5"/>
<circle cx="468.0" cy="104.0" r="6" fill="none" opacity="1.0" stroke="#e6e6e6" stroke-width="1.2"/>
<line x1="468.0" y1="102.0" x2="468.0" y2="105.0" stroke="#e6e6e6" stroke-width="1.2"/>
<circle cx="468.0" cy="107.0" r="0.8" fill="#e6e6e6" opacity="1.0"/>
<rect x="488" y="88" width="32" height="32" rx="2" fill="#323232" stroke="#3e3e3e" stroke-width="0.5"/>
<circle cx="504.0" cy="104.0" r="6" fill="none" opacity="1.0" stroke="#e6e6e6" stroke-width="1.2"/>
<line x1="504.0" y1="102.0" x2="504.0" y2="105.0" stroke="#e6e6e6" stroke-width="1.2"/>
<circle cx="504.0" cy="107.0" r="0.8" fill="#e6e6e6" opacity="1.0"/>
<rect x="524" y="88" width="32" height="32" rx="2" fill="#323232" stroke="#3e3e3e" stroke-width="0.5"/>
<rect x="534" y="101" width="12" height="6" fill="none" stroke="#e6e6e6" stroke-width="1.2"/>
<text x="537" y="106" fill="#e6e6e6" font-size="7" font-family="Segoe UI, Inter, Roboto, Arial, sans-serif" font-weight="bold" font-style="normal" text-anchor="start">G</text>
<rect x="452" y="124" width="32" height="32" rx="2" fill="#323232" stroke="#3e3e3e" stroke-width="0.5"/>
<path d="M463 145 L468.0 135 L473 145 Z" fill="none" stroke="#e6e6e6" stroke-width="1.2" opacity="1.0"/>
<line x1="465" y1="145" x2="466.0" y2="137" stroke="#e6e6e6" stroke-width="1.2"/>
<line x1="470.0" y1="137" x2="471" y2="145" stroke="#e6e6e6" stroke-width="1.2"/>
<text x="452" y="131.24" fill="#a8a8a8" font-size="9" font-family="Segoe UI, Inter, Roboto, Arial, sans-serif" font-weight="normal" font-style="normal" text-anchor="start">Annotations</text>
<rect x="100" y="160" width="1200" height="700" fill="#ffffff" stroke="#888888" stroke-width="2"/>
<rect x="120" y="180" width="1160" height="660" fill="none" stroke="#888888" stroke-width="1"/>
<rect x="960" y="740" width="320" height="100" fill="none" stroke="#888888" stroke-width="1"/>
<line x1="960" y1="765" x2="1280" y2="765" stroke="#888888" stroke-width="1"/>
<line x1="960" y1="790" x2="1280" y2="790" stroke="#888888" stroke-width="1"/>
<line x1="960" y1="815" x2="1280" y2="815" stroke="#888888" stroke-width="1"/>
<line x1="1120.0" y1="740" x2="1120.0" y2="840" stroke="#888888" stroke-width="1"/>
<text x="968" y="758" fill="#000" font-size="11" font-family="Segoe UI, Inter, Roboto, Arial, sans-serif" font-weight="bold" font-style="normal" text-anchor="start">TITLE: Engine Block</text>
<text x="968" y="783" fill="#000" font-size="10" font-family="Segoe UI, Inter, Roboto, Arial, sans-serif" font-weight="normal" font-style="normal" text-anchor="start">DWG NO: ENG-2024-001</text>
<text x="968" y="808" fill="#000" font-size="10" font-family="Segoe UI, Inter, Roboto, Arial, sans-serif" font-weight="normal" font-style="normal" text-anchor="start">MATERIAL: Al 6061-T6</text>
<text x="968" y="833" fill="#000" font-size="10" font-family="Segoe UI, Inter, Roboto, Arial, sans-serif" font-weight="normal" font-style="normal" text-anchor="start">DATE: 2024-12-01</text>
<text x="1128.0" y="758" fill="#000" font-size="10" font-family="Segoe UI, Inter, Roboto, Arial, sans-serif" font-weight="normal" font-style="normal" text-anchor="start">SCALE: 1:2</text>
<text x="1128.0" y="783" fill="#000" font-size="10" font-family="Segoe UI, Inter, Roboto, Arial, sans-serif" font-weight="normal" font-style="normal" text-anchor="start">UNIT: mm</text>
<text x="1128.0" y="808" fill="#000" font-size="10" font-family="Segoe UI, Inter, Roboto, Arial, sans-serif" font-weight="normal" font-style="normal" text-anchor="start">SHEET 1/3</text>
<text x="1128.0" y="833" fill="#000" font-size="10" font-family="Segoe UI, Inter, Roboto, Arial, sans-serif" font-weight="normal" font-style="normal" text-anchor="start">REV: A</text>
<rect x="150" y="210" width="350" height="250" fill="none" stroke="#444444" stroke-width="0.5" stroke-dasharray="2 2"/>
<text x="155" y="225" fill="#000" font-size="10" font-family="Segoe UI, Inter, Roboto, Arial, sans-serif" font-weight="bold" font-style="normal" text-anchor="start">TOP VIEW</text>
<rect x="210" y="270" width="230" height="130" fill="none" stroke="#000" stroke-width="1.5"/>
<circle cx="275" cy="335" r="18" fill="none" opacity="1.0" stroke="#000" stroke-width="1.5"/>
<circle cx="375" cy="335" r="18" fill="none" opacity="1.0" stroke="#000" stroke-width="1.5"/>
<rect x="240" y="305" width="30" height="30" fill="none" stroke="#000" stroke-width="1"/>
<line x1="210" y1="250" x2="440" y2="250" stroke="#000" stroke-width="0.8"/>
<polygon points="210,250 215,247 215,253" fill="#000" opacity="1.0"/>
<polygon points="440,250 435,247 435,253" fill="#000" opacity="1.0"/>
<text x="315" y="246" fill="#000" font-size="10" font-family="Segoe UI, Inter, Roboto, Arial, sans-serif" font-weight="normal" font-style="normal" text-anchor="middle">230</text>
<rect x="150" y="490" width="350" height="220" fill="none" stroke="#444444" stroke-width="0.5" stroke-dasharray="2 2"/>
<text x="155" y="505" fill="#000" font-size="10" font-family="Segoe UI, Inter, Roboto, Arial, sans-serif" font-weight="bold" font-style="normal" text-anchor="start">FRONT VIEW</text>
<rect x="210" y="540" width="230" height="100" fill="none" stroke="#000" stroke-width="1.5"/>
<rect x="210" y="580" width="80" height="60" fill="none" stroke="#000" stroke-width="1.2"/>
<line x1="240" y1="540" x2="240" y2="640" stroke="#000" stroke-width="0.8" stroke-dasharray="4 2"/>
<line x1="410" y1="540" x2="410" y2="640" stroke="#000" stroke-width="0.8" stroke-dasharray="4 2"/>
<rect x="550" y="490" width="250" height="220" fill="none" stroke="#444444" stroke-width="0.5" stroke-dasharray="2 2"/>
<text x="555" y="505" fill="#000" font-size="10" font-family="Segoe UI, Inter, Roboto, Arial, sans-serif" font-weight="bold" font-style="normal" text-anchor="start">RIGHT VIEW</text>
<rect x="600" y="540" width="100" height="100" fill="none" stroke="#000" stroke-width="1.5"/>
<rect x="550" y="210" width="250" height="250" fill="none" stroke="#444444" stroke-width="0.5" stroke-dasharray="2 2"/>
<text x="555" y="225" fill="#000" font-size="10" font-family="Segoe UI, Inter, Roboto, Arial, sans-serif" font-weight="bold" font-style="normal" text-anchor="start">ISOMETRIC</text>
<polygon points="615,400 735,400 735,320 615,320" fill="#cccccc" opacity="1.0" stroke="#000" stroke-width="1.5"/>
<polygon points="615,320 600,305 720,305 735,320" fill="#dddddd" opacity="1.0" stroke="#000" stroke-width="1.5"/>
<polygon points="735,320 720,305 720,385 735,400" fill="#aaaaaa" opacity="1.0" stroke="#000" stroke-width="1.5"/>
<circle cx="305" cy="305" r="12" fill="#ffffff" opacity="1.0" stroke="#000" stroke-width="1.5"/>
<text x="305" y="309" fill="#000" font-size="10" font-family="Segoe UI, Inter, Roboto, Arial, sans-serif" font-weight="bold" font-style="normal" text-anchor="middle">1</text>
<line x1="275" y1="335" x2="297" y2="313" stroke="#000" stroke-width="0.8"/>
<circle cx="405" cy="305" r="12" fill="#ffffff" opacity="1.0" stroke="#000" stroke-width="1.5"/>
<text x="405" y="309" fill="#000" font-size="10" font-family="Segoe UI, Inter, Roboto, Arial, sans-serif" font-weight="bold" font-style="normal" text-anchor="middle">2</text>
<line x1="375" y1="335" x2="397" y2="313" stroke="#000" stroke-width="0.8"/>
<circle cx="270" cy="550" r="12" fill="#ffffff" opacity="1.0" stroke="#000" stroke-width="1.5"/>
<text x="270" y="554" fill="#000" font-size="10" font-family="Segoe UI, Inter, Roboto, Arial, sans-serif" font-weight="bold" font-style="normal" text-anchor="middle">3</text>
<line x1="240" y1="580" x2="262" y2="558" stroke="#000" stroke-width="0.8"/>
<text x="820" y="490" fill="#000" font-size="10" font-family="Segoe UI, Inter, Roboto, Arial, sans-serif" font-weight="bold" font-style="normal" text-anchor="start">SECTION A-A</text>
<line x1="325" y1="265" x2="325" y2="410" stroke="#000" stroke-width="1" stroke-dasharray="8 2 2 2"/>
<text x="320" y="260" fill="#000" font-size="10" font-family="Segoe UI, Inter, Roboto, Arial, sans-serif" font-weight="bold" font-style="normal" text-anchor="start">A</text>
<text x="320" y="425" fill="#000" font-size="10" font-family="Segoe UI, Inter, Roboto, Arial, sans-serif" font-weight="bold" font-style="normal" text-anchor="start">A</text>
<rect x="0" y="878" width="1400" height="22" fill="#1a1a1a" stroke="#1a1a1a" stroke-width="1"/>
<line x1="0" y1="878" x2="1400" y2="878" stroke="#3e3e3e" stroke-width="1"/>
<text x="8" y="892.6" fill="#a8a8a8" font-size="10" font-family="Segoe UI, Inter, Roboto, Arial, sans-serif" font-weight="normal" font-style="normal" text-anchor="start">Ready</text>
<text x="1332" y="892.6" fill="#a8a8a8" font-size="10" font-family="Consolas, Menlo, monospace" font-weight="normal" font-style="normal" text-anchor="start">F8: Ortho</text>
<text x="1254" y="892.6" fill="#a8a8a8" font-size="10" font-family="Consolas, Menlo, monospace" font-weight="normal" font-style="normal" text-anchor="start">F2: Sketch</text>
<text x="1176" y="892.6" fill="#a8a8a8" font-size="10" font-family="Consolas, Menlo, monospace" font-weight="normal" font-style="normal" text-anchor="start">SNAP: Grid</text>
<text x="1146" y="892.6" fill="#a8a8a8" font-size="10" font-family="Consolas, Menlo, monospace" font-weight="normal" font-style="normal" text-anchor="start">mm</text>
<text x="1080" y="892.6" fill="#a8a8a8" font-size="10" font-family="Consolas, Menlo, monospace" font-weight="normal" font-style="normal" text-anchor="start">Z: 0.000</text>
<text x="1014" y="892.6" fill="#a8a8a8" font-size="10" font-family="Consolas, Menlo, monospace" font-weight="normal" font-style="normal" text-anchor="start">Y: 0.000</text>
<text x="948" y="892.6" fill="#a8a8a8" font-size="10" font-family="Consolas, Menlo, monospace" font-weight="normal" font-style="normal" text-anchor="start">X: 0.000</text>
</svg>
