<?xml version="1.0" encoding="UTF-8" standalone="no"?>
<svg xmlns="http://www.w3.org/2000/svg" xmlns:xlink="http://www.w3.org/1999/xlink" width="1200" height="800" viewBox="0 0 1200 800">
<title>Dialog: Plugins Manager (Tools → Plugins Manager…)</title>
<rect x="0" y="0" width="1200" height="800" fill="#1f1f1f"/>
<rect x="0" y="0" width="1200" height="36" fill="#262626" stroke="#1a1a1a" stroke-width="1"/>
<text x="14" y="22" fill="#e6e6e6" font-size="14" font-family="Segoe UI, Inter, Roboto, Arial, sans-serif" font-weight="600" font-style="normal" text-anchor="start">Dialog: Plugins Manager (Tools → Plugins Manager…)</text>
<text x="14" y="32" fill="#a8a8a8" font-size="10" font-family="Segoe UI, Inter, Roboto, Arial, sans-serif" font-weight="normal" font-style="normal" text-anchor="start">Tabs: Installed / Marketplace / Settings. Per-plugin: enable, configure, hot-reload, uninstall</text>
<rect x="0" y="36" width="1200" height="764" fill="#000000" opacity="0.45"/>
<rect x="0" y="0" width="1200" height="800" fill="#000000" opacity="0.55"/>
<rect x="103" y="84" width="1000" height="660" rx="6" fill="#000000" opacity="0.6"/>
<rect x="100" y="80" width="1000" height="660" rx="6" fill="#2b2b2b" stroke="#3e3e3e" stroke-width="1"/>
<rect x="100" y="80" width="1000" height="32" rx="6" fill="#323232" stroke="#1a1a1a" stroke-width="1"/>
<rect x="100" y="95" width="1000" height="17" fill="#323232"/>
<text x="114" y="100.68" fill="#e6e6e6" font-size="13" font-family="Segoe UI, Inter, Roboto, Arial, sans-serif" font-weight="600" font-style="normal" text-anchor="start">Plugins Manager</text>
<rect x="1072" y="84" width="22" height="22" fill="#323232" stroke="#3e3e3e" stroke-width="0.5"/>
<line x1="1077" y1="89" x2="1087" y2="99" stroke="#a8a8a8" stroke-width="1.2"/>
<line x1="1087" y1="89" x2="1077" y2="99" stroke="#a8a8a8" stroke-width="1.2"/>
<rect x="101" y="112" width="998" height="584" fill="#2b2b2b"/>
<rect x="101" y="696" width="998" height="43" fill="#323232"/>
<line x1="100" y1="696" x2="1100" y2="696" stroke="#1a1a1a" stroke-width="1"/>
<rect x="1006" y="704" width="72" height="28" rx="3" fill="#0a84ff" stroke="#0a84ff" stroke-width="1"/>
<text x="1042.0" y="722.32" fill="#ffffff" font-size="12" font-family="Segoe UI, Inter, Roboto, Arial, sans-serif" font-weight="600" font-style="normal" text-anchor="middle">Close</text>
<rect x="918" y="704" width="80" height="28" rx="3" fill="#3a3a3a" stroke="#3e3e3e" stroke-width="1"/>
<text x="958.0" y="722.32" fill="#e6e6e6" font-size="12" font-family="Segoe UI, Inter, Roboto, Arial, sans-serif" font-weight="normal" font-style="normal" text-anchor="middle">Refresh</text>
<rect x="742" y="704" width="168" height="28" rx="3" fill="#3a3a3a" stroke="#3e3e3e" stroke-width="1"/>
<text x="826.0" y="722.32" fill="#e6e6e6" font-size="12" font-family="Segoe UI, Inter, Roboto, Arial, sans-serif" font-weight="normal" font-style="normal" text-anchor="middle">Install from File…</text>
<rect x="112" y="120" width="128" height="28" rx="2" fill="#2b2b2b" stroke="#0a84ff" stroke-width="1"/>
<rect x="112" y="146" width="128" height="2" fill="#0a84ff"/>
<text x="124" y="137.96" fill="#e6e6e6" font-size="11" font-family="Segoe UI, Inter, Roboto, Arial, sans-serif" font-weight="600" font-style="normal" text-anchor="start">Installed (8)</text>
<text x="256" y="137.96" fill="#a8a8a8" font-size="11" font-family="Segoe UI, Inter, Roboto, Arial, sans-serif" font-weight="normal" font-style="normal" text-anchor="start">Marketplace</text>
<text x="372" y="137.96" fill="#a8a8a8" font-size="11" font-family="Segoe UI, Inter, Roboto, Arial, sans-serif" font-weight="normal" font-style="normal" text-anchor="start">Settings</text>
<rect x="820" y="124" width="220" height="22" rx="2" fill="#262626" stroke="#3e3e3e" stroke-width="1"/>
<text x="826" y="138.96" fill="#6e6e6e" font-size="11" font-family="Segoe UI, Inter, Roboto, Arial, sans-serif" font-weight="normal" font-style="normal" text-anchor="start">Search plugins…</text>
<rect x="112" y="162" width="976" height="60" rx="3" fill="#323232" stroke="#3e3e3e" stroke-width="1"/>
<path d="M138.0 177 L138.0 180 L142.0 180 L142.0 177 M138.0 180 L138.0 203 L142.0 203 L142.0 180" fill="none" stroke="#0a84ff" stroke-width="2.2857142857142856" opacity="1.0"/>
<text x="168" y="184" fill="#e6e6e6" font-size="13" font-family="Segoe UI, Inter, Roboto, Arial, sans-serif" font-weight="600" font-style="normal" text-anchor="start">BRepCAD Render Boost</text>
<text x="316" y="184" fill="#a8a8a8" font-size="10" font-family="Consolas, Menlo, monospace" font-weight="normal" font-style="normal" text-anchor="start">v2.4.1</text>
<text x="168" y="202" fill="#a8a8a8" font-size="11" font-family="Segoe UI, Inter, Roboto, Arial, sans-serif" font-weight="normal" font-style="normal" text-anchor="start">GPU path-tracing render acceleration</text>
<text x="168" y="216" fill="#a8a8a8" font-size="10" font-family="Segoe UI, Inter, Roboto, Arial, sans-serif" font-weight="normal" font-style="normal" text-anchor="start">by Z.ai</text>
<text x="720" y="184" fill="#a8a8a8" font-size="10" font-family="Segoe UI, Inter, Roboto, Arial, sans-serif" font-weight="normal" font-style="normal" text-anchor="start">Enabled</text>
<rect x="780" y="176" width="36" height="18" rx="9" fill="#0a84ff"/>
<circle cx="807" cy="185" r="7" fill="#ffffff" opacity="1.0"/>
<rect x="840" y="174" width="80" height="18" rx="2" fill="#e2a73a"/>
<text x="880" y="186.6" fill="#000" font-size="10" font-family="Segoe UI, Inter, Roboto, Arial, sans-serif" font-weight="bold" font-style="normal" text-anchor="middle">Update</text>
<rect x="920" y="180" width="70" height="24" rx="3" fill="#3a3a3a" stroke="#3e3e3e" stroke-width="1"/>
<text x="955.0" y="195.96" fill="#e6e6e6" font-size="11" font-family="Segoe UI, Inter, Roboto, Arial, sans-serif" font-weight="normal" font-style="normal" text-anchor="middle">Settings</text>
<rect x="1000" y="180" width="80" height="24" rx="3" fill="#3a3a3a" stroke="#3e3e3e" stroke-width="1"/>
<text x="1040.0" y="195.96" fill="#e6e6e6" font-size="11" font-family="Segoe UI, Inter, Roboto, Arial, sans-serif" font-weight="normal" font-style="normal" text-anchor="middle">Uninstall</text>
<rect x="112" y="228" width="976" height="60" rx="3" fill="#323232" stroke="#3e3e3e" stroke-width="1"/>
<path d="M138.0 243 L138.0 246 L142.0 246 L142.0 243 M138.0 246 L138.0 269 L142.0 269 L142.0 246" fill="none" stroke="#0a84ff" stroke-width="2.2857142857142856" opacity="1.0"/>
<text x="168" y="250" fill="#e6e6e6" font-size="13" font-family="Segoe UI, Inter, Roboto, Arial, sans-serif" font-weight="600" font-style="normal" text-anchor="start">STEP AP242 Importer Pro</text>
<text x="337" y="250" fill="#a8a8a8" font-size="10" font-family="Consolas, Menlo, monospace" font-weight="normal" font-style="normal" text-anchor="start">v1.8.0</text>
<text x="168" y="268" fill="#a8a8a8" font-size="11" font-family="Segoe UI, Inter, Roboto, Arial, sans-serif" font-weight="normal" font-style="normal" text-anchor="start">Adds full AP242 import with PMI/GD&amp;T</text>
<text x="168" y="282" fill="#a8a8a8" font-size="10" font-family="Segoe UI, Inter, Roboto, Arial, sans-serif" font-weight="normal" font-style="normal" text-anchor="start">by Community</text>
<text x="720" y="250" fill="#a8a8a8" font-size="10" font-family="Segoe UI, Inter, Roboto, Arial, sans-serif" font-weight="normal" font-style="normal" text-anchor="start">Enabled</text>
<rect x="780" y="242" width="36" height="18" rx="9" fill="#0a84ff"/>
<circle cx="807" cy="251" r="7" fill="#ffffff" opacity="1.0"/>
<rect x="840" y="240" width="80" height="18" rx="2" fill="#e2a73a"/>
<text x="880" y="252.6" fill="#000" font-size="10" font-family="Segoe UI, Inter, Roboto, Arial, sans-serif" font-weight="bold" font-style="normal" text-anchor="middle">Update</text>
<rect x="920" y="246" width="70" height="24" rx="3" fill="#3a3a3a" stroke="#3e3e3e" stroke-width="1"/>
<text x="955.0" y="261.96" fill="#e6e6e6" font-size="11" font-family="Segoe UI, Inter, Roboto, Arial, sans-serif" font-weight="normal" font-style="normal" text-anchor="middle">Settings</text>
<rect x="1000" y="246" width="80" height="24" rx="3" fill="#3a3a3a" stroke="#3e3e3e" stroke-width="1"/>
<text x="1040.0" y="261.96" fill="#e6e6e6" font-size="11" font-family="Segoe UI, Inter, Roboto, Arial, sans-serif" font-weight="normal" font-style="normal" text-anchor="middle">Uninstall</text>
<rect x="112" y="294" width="976" height="60" rx="3" fill="#323232" stroke="#3e3e3e" stroke-width="1"/>
<path d="M138.0 309 L138.0 312 L142.0 312 L142.0 309 M138.0 312 L138.0 335 L142.0 335 L142.0 312" fill="none" stroke="#0a84ff" stroke-width="2.2857142857142856" opacity="1.0"/>
<text x="168" y="316" fill="#e6e6e6" font-size="13" font-family="Segoe UI, Inter, Roboto, Arial, sans-serif" font-weight="600" font-style="normal" text-anchor="start">Sheet Metal Bends Library</text>
<text x="351" y="316" fill="#a8a8a8" font-size="10" font-family="Consolas, Menlo, monospace" font-weight="normal" font-style="normal" text-anchor="start">v3.0.2</text>
<text x="168" y="334" fill="#a8a8a8" font-size="11" font-family="Segoe UI, Inter, Roboto, Arial, sans-serif" font-weight="normal" font-style="normal" text-anchor="start">Pre-built ISO/ANSI bend tables</text>
<text x="168" y="348" fill="#a8a8a8" font-size="10" font-family="Segoe UI, Inter, Roboto, Arial, sans-serif" font-weight="normal" font-style="normal" text-anchor="start">by Z.ai</text>
<text x="720" y="316" fill="#a8a8a8" font-size="10" font-family="Segoe UI, Inter, Roboto, Arial, sans-serif" font-weight="normal" font-style="normal" text-anchor="start">Enabled</text>
<rect x="780" y="308" width="36" height="18" rx="9" fill="#0a84ff"/>
<circle cx="807" cy="317" r="7" fill="#ffffff" opacity="1.0"/>
<rect x="920" y="312" width="70" height="24" rx="3" fill="#3a3a3a" stroke="#3e3e3e" stroke-width="1"/>
<text x="955.0" y="327.96" fill="#e6e6e6" font-size="11" font-family="Segoe UI, Inter, Roboto, Arial, sans-serif" font-weight="normal" font-style="normal" text-anchor="middle">Settings</text>
<rect x="1000" y="312" width="80" height="24" rx="3" fill="#3a3a3a" stroke="#3e3e3e" stroke-width="1"/>
<text x="1040.0" y="327.96" fill="#e6e6e6" font-size="11" font-family="Segoe UI, Inter, Roboto, Arial, sans-serif" font-weight="normal" font-style="normal" text-anchor="middle">Uninstall</text>
<rect x="112" y="360" width="976" height="60" rx="3" fill="#323232" stroke="#3e3e3e" stroke-width="1"/>
<path d="M138.0 375 L138.0 378 L142.0 378 L142.0 375 M138.0 378 L138.0 401 L142.0 401 L142.0 378" fill="none" stroke="#0a84ff" stroke-width="2.2857142857142856" opacity="1.0"/>
<text x="168" y="382" fill="#e6e6e6" font-size="13" font-family="Segoe UI, Inter, Roboto, Arial, sans-serif" font-weight="600" font-style="normal" text-anchor="start">FEA Material Database</text>
<text x="323" y="382" fill="#a8a8a8" font-size="10" font-family="Consolas, Menlo, monospace" font-weight="normal" font-style="normal" text-anchor="start">v5.1.0</text>
<text x="168" y="400" fill="#a8a8a8" font-size="11" font-family="Segoe UI, Inter, Roboto, Arial, sans-serif" font-weight="normal" font-style="normal" text-anchor="start">200+ engineering materials with curves</text>
<text x="168" y="414" fill="#a8a8a8" font-size="10" font-family="Segoe UI, Inter, Roboto, Arial, sans-serif" font-weight="normal" font-style="normal" text-anchor="start">by Altair Eng</text>
<text x="720" y="382" fill="#a8a8a8" font-size="10" font-family="Segoe UI, Inter, Roboto, Arial, sans-serif" font-weight="normal" font-style="normal" text-anchor="start">Enabled</text>
<rect x="780" y="374" width="36" height="18" rx="9" fill="#0a84ff"/>
<circle cx="807" cy="383" r="7" fill="#ffffff" opacity="1.0"/>
<rect x="840" y="372" width="80" height="18" rx="2" fill="#e2a73a"/>
<text x="880" y="384.6" fill="#000" font-size="10" font-family="Segoe UI, Inter, Roboto, Arial, sans-serif" font-weight="bold" font-style="normal" text-anchor="middle">Update</text>
<rect x="920" y="378" width="70" height="24" rx="3" fill="#3a3a3a" stroke="#3e3e3e" stroke-width="1"/>
<text x="955.0" y="393.96" fill="#e6e6e6" font-size="11" font-family="Segoe UI, Inter, Roboto, Arial, sans-serif" font-weight="normal" font-style="normal" text-anchor="middle">Settings</text>
<rect x="1000" y="378" width="80" height="24" rx="3" fill="#3a3a3a" stroke="#3e3e3e" stroke-width="1"/>
<text x="1040.0" y="393.96" fill="#e6e6e6" font-size="11" font-family="Segoe UI, Inter, Roboto, Arial, sans-serif" font-weight="normal" font-style="normal" text-anchor="middle">Uninstall</text>
<rect x="112" y="426" width="976" height="60" rx="3" fill="#323232" stroke="#3e3e3e" stroke-width="1"/>
<path d="M138.0 441 L138.0 444 L142.0 444 L142.0 441 M138.0 444 L138.0 467 L142.0 467 L142.0 444" fill="none" stroke="#0a84ff" stroke-width="2.2857142857142856" opacity="1.0"/>
<text x="168" y="448" fill="#e6e6e6" font-size="13" font-family="Segoe UI, Inter, Roboto, Arial, sans-serif" font-weight="600" font-style="normal" text-anchor="start">GCode Optimizer AI</text>
<text x="302" y="448" fill="#a8a8a8" font-size="10" font-family="Consolas, Menlo, monospace" font-weight="normal" font-style="normal" text-anchor="start">v0.9.4-beta</text>
<text x="168" y="466" fill="#a8a8a8" font-size="11" font-family="Segoe UI, Inter, Roboto, Arial, sans-serif" font-weight="normal" font-style="normal" text-anchor="start">AI-powered toolpath optimization</text>
<text x="168" y="480" fill="#a8a8a8" font-size="10" font-family="Segoe UI, Inter, Roboto, Arial, sans-serif" font-weight="normal" font-style="normal" text-anchor="start">by Community</text>
<text x="720" y="448" fill="#a8a8a8" font-size="10" font-family="Segoe UI, Inter, Roboto, Arial, sans-serif" font-weight="normal" font-style="normal" text-anchor="start">Enabled</text>
<rect x="780" y="440" width="36" height="18" rx="9" fill="#3a3a3a"/>
<circle cx="789" cy="449" r="7" fill="#a8a8a8" opacity="1.0"/>
<rect x="840" y="438" width="80" height="18" rx="2" fill="#e2a73a"/>
<text x="880" y="450.6" fill="#000" font-size="10" font-family="Segoe UI, Inter, Roboto, Arial, sans-serif" font-weight="bold" font-style="normal" text-anchor="middle">Update</text>
<rect x="920" y="444" width="70" height="24" rx="3" fill="#3a3a3a" stroke="#3e3e3e" stroke-width="1"/>
<text x="955.0" y="459.96" fill="#e6e6e6" font-size="11" font-family="Segoe UI, Inter, Roboto, Arial, sans-serif" font-weight="normal" font-style="normal" text-anchor="middle">Settings</text>
<rect x="1000" y="444" width="80" height="24" rx="3" fill="#3a3a3a" stroke="#3e3e3e" stroke-width="1"/>
<text x="1040.0" y="459.96" fill="#e6e6e6" font-size="11" font-family="Segoe UI, Inter, Roboto, Arial, sans-serif" font-weight="normal" font-style="normal" text-anchor="middle">Uninstall</text>
<rect x="112" y="492" width="976" height="60" rx="3" fill="#323232" stroke="#3e3e3e" stroke-width="1"/>
<path d="M138.0 507 L138.0 510 L142.0 510 L142.0 507 M138.0 510 L138.0 533 L142.0 533 L142.0 510" fill="none" stroke="#0a84ff" stroke-width="2.2857142857142856" opacity="1.0"/>
<text x="168" y="514" fill="#e6e6e6" font-size="13" font-family="Segoe UI, Inter, Roboto, Arial, sans-serif" font-weight="600" font-style="normal" text-anchor="start">Photorealistic Materials</text>
<text x="344" y="514" fill="#a8a8a8" font-size="10" font-family="Consolas, Menlo, monospace" font-weight="normal" font-style="normal" text-anchor="start">v2.0.0</text>
<text x="168" y="532" fill="#a8a8a8" font-size="11" font-family="Segoe UI, Inter, Roboto, Arial, sans-serif" font-weight="normal" font-style="normal" text-anchor="start">PBR material library (1000+ assets)</text>
<text x="168" y="546" fill="#a8a8a8" font-size="10" font-family="Segoe UI, Inter, Roboto, Arial, sans-serif" font-weight="normal" font-style="normal" text-anchor="start">by Z.ai</text>
<text x="720" y="514" fill="#a8a8a8" font-size="10" font-family="Segoe UI, Inter, Roboto, Arial, sans-serif" font-weight="normal" font-style="normal" text-anchor="start">Enabled</text>
<rect x="780" y="506" width="36" height="18" rx="9" fill="#0a84ff"/>
<circle cx="807" cy="515" r="7" fill="#ffffff" opacity="1.0"/>
<rect x="920" y="510" width="70" height="24" rx="3" fill="#3a3a3a" stroke="#3e3e3e" stroke-width="1"/>
<text x="955.0" y="525.96" fill="#e6e6e6" font-size="11" font-family="Segoe UI, Inter, Roboto, Arial, sans-serif" font-weight="normal" font-style="normal" text-anchor="middle">Settings</text>
<rect x="1000" y="510" width="80" height="24" rx="3" fill="#3a3a3a" stroke="#3e3e3e" stroke-width="1"/>
<text x="1040.0" y="525.96" fill="#e6e6e6" font-size="11" font-family="Segoe UI, Inter, Roboto, Arial, sans-serif" font-weight="normal" font-style="normal" text-anchor="middle">Uninstall</text>
<rect x="112" y="558" width="976" height="60" rx="3" fill="#323232" stroke="#3e3e3e" stroke-width="1"/>
<path d="M138.0 573 L138.0 576 L142.0 576 L142.0 573 M138.0 576 L138.0 599 L142.0 599 L142.0 576" fill="none" stroke="#0a84ff" stroke-width="2.2857142857142856" opacity="1.0"/>
<text x="168" y="580" fill="#e6e6e6" font-size="13" font-family="Segoe UI, Inter, Roboto, Arial, sans-serif" font-weight="600" font-style="normal" text-anchor="start">Simulation Visualizer</text>
<text x="323" y="580" fill="#a8a8a8" font-size="10" font-family="Consolas, Menlo, monospace" font-weight="normal" font-style="normal" text-anchor="start">v1.2.3</text>
<text x="168" y="598" fill="#a8a8a8" font-size="11" font-family="Segoe UI, Inter, Roboto, Arial, sans-serif" font-weight="normal" font-style="normal" text-anchor="start">Advanced FEA result post-processing</text>
<text x="168" y="612" fill="#a8a8a8" font-size="10" font-family="Segoe UI, Inter, Roboto, Arial, sans-serif" font-weight="normal" font-style="normal" text-anchor="start">by Community</text>
<text x="720" y="580" fill="#a8a8a8" font-size="10" font-family="Segoe UI, Inter, Roboto, Arial, sans-serif" font-weight="normal" font-style="normal" text-anchor="start">Enabled</text>
<rect x="780" y="572" width="36" height="18" rx="9" fill="#0a84ff"/>
<circle cx="807" cy="581" r="7" fill="#ffffff" opacity="1.0"/>
<rect x="840" y="570" width="80" height="18" rx="2" fill="#e2a73a"/>
<text x="880" y="582.6" fill="#000" font-size="10" font-family="Segoe UI, Inter, Roboto, Arial, sans-serif" font-weight="bold" font-style="normal" text-anchor="middle">Update</text>
<rect x="920" y="576" width="70" height="24" rx="3" fill="#3a3a3a" stroke="#3e3e3e" stroke-width="1"/>
<text x="955.0" y="591.96" fill="#e6e6e6" font-size="11" font-family="Segoe UI, Inter, Roboto, Arial, sans-serif" font-weight="normal" font-style="normal" text-anchor="middle">Settings</text>
<rect x="1000" y="576" width="80" height="24" rx="3" fill="#3a3a3a" stroke="#3e3e3e" stroke-width="1"/>
<text x="1040.0" y="591.96" fill="#e6e6e6" font-size="11" font-family="Segoe UI, Inter, Roboto, Arial, sans-serif" font-weight="normal" font-style="normal" text-anchor="middle">Uninstall</text>
</svg>
