<?xml version="1.0" encoding="UTF-8" standalone="no"?>
<svg xmlns="http://www.w3.org/2000/svg" xmlns:xlink="http://www.w3.org/1999/xlink" width="400" height="800" viewBox="0 0 400 800">
<title>Panel: Browser (Model Tree)</title>
<rect x="0" y="0" width="400" height="800" fill="#1f1f1f"/>
<rect x="0" y="0" width="400" height="36" fill="#262626" stroke="#1a1a1a" stroke-width="1"/>
<text x="14" y="22" fill="#e6e6e6" font-size="14" font-family="Segoe UI, Inter, Roboto, Arial, sans-serif" font-weight="600" font-style="normal" text-anchor="start">Panel: Browser (Model Tree)</text>
<text x="14" y="32" fill="#a8a8a8" font-size="10" font-family="Segoe UI, Inter, Roboto, Arial, sans-serif" font-weight="normal" font-style="normal" text-anchor="start">Tabs: Tree / Layers / Selection. Right-click context menu available on every node.</text>
<rect x="0" y="36" width="400" height="764" fill="#2b2b2b"/>
<rect x="0" y="36" width="400" height="26" fill="#323232" stroke="#1a1a1a" stroke-width="1"/>
<rect x="6" y="38" width="40" height="22" fill="#2b2b2b"/>
<text x="12" y="52.96" fill="#e6e6e6" font-size="11" font-family="Segoe UI, Inter, Roboto, Arial, sans-serif" font-weight="600" font-style="normal" text-anchor="start">Tree</text>
<text x="56" y="52.96" fill="#a8a8a8" font-size="11" font-family="Segoe UI, Inter, Roboto, Arial, sans-serif" font-weight="normal" font-style="normal" text-anchor="start">Layers</text>
<text x="114" y="52.96" fill="#a8a8a8" font-size="11" font-family="Segoe UI, Inter, Roboto, Arial, sans-serif" font-weight="normal" font-style="normal" text-anchor="start">Selection</text>
<circle cx="388.0" cy="45.0" r="1.5" fill="#a8a8a8" opacity="1.0"/>
<circle cx="388.0" cy="50.0" r="1.5" fill="#a8a8a8" opacity="1.0"/>
<circle cx="388.0" cy="55.0" r="1.5" fill="#a8a8a8" opacity="1.0"/>
<rect x="8" y="68" width="300" height="22" rx="2" fill="#262626" stroke="#3e3e3e" stroke-width="1"/>
<text x="14" y="82.96000000000001" fill="#6e6e6e" font-size="11" font-family="Segoe UI, Inter, Roboto, Arial, sans-serif" font-weight="normal" font-style="normal" text-anchor="start">Filter tree…</text>
<rect x="312" y="68" width="80" height="22" rx="3" fill="#3a3a3a" stroke="#3e3e3e" stroke-width="1"/>
<text x="352.0" y="82.96000000000001" fill="#e6e6e6" font-size="11" font-family="Segoe UI, Inter, Roboto, Arial, sans-serif" font-weight="normal" font-style="normal" text-anchor="middle">Filter</text>
<polyline points="384.8,77.4 388.0,82.2 391.2,77.4" fill="none" stroke="#e6e6e6" stroke-width="1.2"/>
<polyline points="13.5,105.9 17.0,110.1 20.5,105.9" fill="none" stroke="#a8a8a8" stroke-width="1.2"/>
<path d="M29 106 L33.0 103 L37 106 L37 110 L33.0 113 L29 110 Z" fill="none" stroke="#e6e6e6" stroke-width="1.2" opacity="1.0"/>
<text x="44" y="112.96000000000001" fill="#e6e6e6" font-size="11" font-family="Segoe UI, Inter, Roboto, Arial, sans-serif" font-weight="normal" font-style="normal" text-anchor="start">Engine_Assembly.brep</text>
<polyline points="27.5,125.9 31.0,130.1 34.5,125.9" fill="none" stroke="#a8a8a8" stroke-width="1.2"/>
<path d="M42 127 L42 132 L52 132 L52 126 L47.0 126 L45.0 124 L42 124 Z" fill="#e6e6e6" stroke="#e6e6e6" stroke-width="1.2" opacity="1.0"/>
<text x="58" y="132.96" fill="#e6e6e6" font-size="11" font-family="Segoe UI, Inter, Roboto, Arial, sans-serif" font-weight="normal" font-style="normal" text-anchor="start">Bodies</text>
<rect x="8" y="140" width="384" height="18" fill="#094771"/>
<polyline points="42.9,144.5 47.1,148.0 42.9,151.5" fill="none" stroke="#a8a8a8" stroke-width="1.2"/>
<path d="M57 146 L61.0 143 L65 146 L65 150 L61.0 153 L57 150 Z" fill="none" stroke="#e6e6e6" stroke-width="1.2" opacity="1.0"/>
<text x="72" y="152.96" fill="#e6e6e6" font-size="11" font-family="Segoe UI, Inter, Roboto, Arial, sans-serif" font-weight="normal" font-style="normal" text-anchor="start">Engine_Block</text>
<polyline points="42.9,164.5 47.1,168.0 42.9,171.5" fill="none" stroke="#a8a8a8" stroke-width="1.2"/>
<path d="M57 166 L61.0 163 L65 166 L65 170 L61.0 173 L57 170 Z" fill="none" stroke="#e6e6e6" stroke-width="1.2" opacity="1.0"/>
<text x="72" y="172.96" fill="#e6e6e6" font-size="11" font-family="Segoe UI, Inter, Roboto, Arial, sans-serif" font-weight="normal" font-style="normal" text-anchor="start">Cylinder_Head</text>
<polyline points="42.9,184.5 47.1,188.0 42.9,191.5" fill="none" stroke="#a8a8a8" stroke-width="1.2"/>
<path d="M57 186 L61.0 183 L65 186 L65 190 L61.0 193 L57 190 Z" fill="none" stroke="#e6e6e6" stroke-width="1.2" opacity="1.0"/>
<text x="72" y="192.96" fill="#e6e6e6" font-size="11" font-family="Segoe UI, Inter, Roboto, Arial, sans-serif" font-weight="normal" font-style="normal" text-anchor="start">Piston_1</text>
<polyline points="42.9,204.5 47.1,208.0 42.9,211.5" fill="none" stroke="#a8a8a8" stroke-width="1.2"/>
<path d="M57 206 L61.0 203 L65 206 L65 210 L61.0 213 L57 210 Z" fill="none" stroke="#e6e6e6" stroke-width="1.2" opacity="1.0"/>
<text x="72" y="212.96" fill="#e6e6e6" font-size="11" font-family="Segoe UI, Inter, Roboto, Arial, sans-serif" font-weight="normal" font-style="normal" text-anchor="start">Piston_2</text>
<polyline points="42.9,224.5 47.1,228.0 42.9,231.5" fill="none" stroke="#a8a8a8" stroke-width="1.2"/>
<path d="M57 226 L61.0 223 L65 226 L65 230 L61.0 233 L57 230 Z" fill="none" stroke="#e6e6e6" stroke-width="1.2" opacity="1.0"/>
<text x="72" y="232.96" fill="#e6e6e6" font-size="11" font-family="Segoe UI, Inter, Roboto, Arial, sans-serif" font-weight="normal" font-style="normal" text-anchor="start">Piston_3</text>
<polyline points="42.9,244.5 47.1,248.0 42.9,251.5" fill="none" stroke="#a8a8a8" stroke-width="1.2"/>
<path d="M57 246 L61.0 243 L65 246 L65 250 L61.0 253 L57 250 Z" fill="none" stroke="#e6e6e6" stroke-width="1.2" opacity="1.0"/>
<text x="72" y="252.96" fill="#e6e6e6" font-size="11" font-family="Segoe UI, Inter, Roboto, Arial, sans-serif" font-weight="normal" font-style="normal" text-anchor="start">Piston_4</text>
<polyline points="42.9,264.5 47.1,268.0 42.9,271.5" fill="none" stroke="#a8a8a8" stroke-width="1.2"/>
<path d="M57 266 L61.0 263 L65 266 L65 270 L61.0 273 L57 270 Z" fill="none" stroke="#e6e6e6" stroke-width="1.2" opacity="1.0"/>
<text x="72" y="272.96" fill="#e6e6e6" font-size="11" font-family="Segoe UI, Inter, Roboto, Arial, sans-serif" font-weight="normal" font-style="normal" text-anchor="start">Crankshaft</text>
<polyline points="42.9,284.5 47.1,288.0 42.9,291.5" fill="none" stroke="#a8a8a8" stroke-width="1.2"/>
<path d="M57 286 L61.0 283 L65 286 L65 290 L61.0 293 L57 290 Z" fill="none" stroke="#e6e6e6" stroke-width="1.2" opacity="1.0"/>
<text x="72" y="292.96" fill="#e6e6e6" font-size="11" font-family="Segoe UI, Inter, Roboto, Arial, sans-serif" font-weight="normal" font-style="normal" text-anchor="start">Con_Rod_1</text>
<polyline points="42.9,304.5 47.1,308.0 42.9,311.5" fill="none" stroke="#a8a8a8" stroke-width="1.2"/>
<path d="M57 306 L61.0 303 L65 306 L65 310 L61.0 313 L57 310 Z" fill="none" stroke="#e6e6e6" stroke-width="1.2" opacity="1.0"/>
<text x="72" y="312.96" fill="#e6e6e6" font-size="11" font-family="Segoe UI, Inter, Roboto, Arial, sans-serif" font-weight="normal" font-style="normal" text-anchor="start">Con_Rod_2</text>
<polyline points="42.9,324.5 47.1,328.0 42.9,331.5" fill="none" stroke="#a8a8a8" stroke-width="1.2"/>
<path d="M57 326 L61.0 323 L65 326 L65 330 L61.0 333 L57 330 Z" fill="none" stroke="#e6e6e6" stroke-width="1.2" opacity="1.0"/>
<text x="72" y="332.96" fill="#e6e6e6" font-size="11" font-family="Segoe UI, Inter, Roboto, Arial, sans-serif" font-weight="normal" font-style="normal" text-anchor="start">Con_Rod_3</text>
<polyline points="42.9,344.5 47.1,348.0 42.9,351.5" fill="none" stroke="#a8a8a8" stroke-width="1.2"/>
<path d="M57 346 L61.0 343 L65 346 L65 350 L61.0 353 L57 350 Z" fill="none" stroke="#e6e6e6" stroke-width="1.2" opacity="1.0"/>
<text x="72" y="352.96" fill="#e6e6e6" font-size="11" font-family="Segoe UI, Inter, Roboto, Arial, sans-serif" font-weight="normal" font-style="normal" text-anchor="start">Con_Rod_4</text>
<polyline points="42.9,364.5 47.1,368.0 42.9,371.5" fill="none" stroke="#a8a8a8" stroke-width="1.2"/>
<path d="M57 366 L61.0 363 L65 366 L65 370 L61.0 373 L57 370 Z" fill="none" stroke="#e6e6e6" stroke-width="1.2" opacity="1.0"/>
<text x="72" y="372.96" fill="#e6e6e6" font-size="11" font-family="Segoe UI, Inter, Roboto, Arial, sans-serif" font-weight="normal" font-style="normal" text-anchor="start">Bearing_Cap_1</text>
<text x="380" y="373" fill="#a8a8a8" font-size="11" font-family="Segoe UI, Inter, Roboto, Arial, sans-serif" font-weight="normal" font-style="normal" text-anchor="end">·</text>
<polyline points="42.9,384.5 47.1,388.0 42.9,391.5" fill="none" stroke="#a8a8a8" stroke-width="1.2"/>
<path d="M57 386 L61.0 383 L65 386 L65 390 L61.0 393 L57 390 Z" fill="none" stroke="#e6e6e6" stroke-width="1.2" opacity="1.0"/>
<text x="72" y="392.96" fill="#e6e6e6" font-size="11" font-family="Segoe UI, Inter, Roboto, Arial, sans-serif" font-weight="normal" font-style="normal" text-anchor="start">Bearing_Cap_2</text>
<polyline points="42.9,404.5 47.1,408.0 42.9,411.5" fill="none" stroke="#a8a8a8" stroke-width="1.2"/>
<path d="M56 407 L56 412 L66 412 L66 406 L61.0 406 L59.0 404 L56 404 Z" fill="#e6e6e6" stroke="#e6e6e6" stroke-width="1.2" opacity="1.0"/>
<text x="72" y="412.96" fill="#e6e6e6" font-size="11" font-family="Segoe UI, Inter, Roboto, Arial, sans-serif" font-weight="normal" font-style="normal" text-anchor="start">Bolts (8)</text>
<polyline points="28.9,424.5 33.1,428.0 28.9,431.5" fill="none" stroke="#a8a8a8" stroke-width="1.2"/>
<path d="M42 427 L42 432 L52 432 L52 426 L47.0 426 L45.0 424 L42 424 Z" fill="#e6e6e6" stroke="#e6e6e6" stroke-width="1.2" opacity="1.0"/>
<text x="58" y="432.96" fill="#e6e6e6" font-size="11" font-family="Segoe UI, Inter, Roboto, Arial, sans-serif" font-weight="normal" font-style="normal" text-anchor="start">Sketches</text>
<polyline points="27.5,445.9 31.0,450.1 34.5,445.9" fill="none" stroke="#a8a8a8" stroke-width="1.2"/>
<path d="M42 447 L42 452 L52 452 L52 446 L47.0 446 L45.0 444 L42 444 Z" fill="#e6e6e6" stroke="#e6e6e6" stroke-width="1.2" opacity="1.0"/>
<text x="58" y="452.96" fill="#e6e6e6" font-size="11" font-family="Segoe UI, Inter, Roboto, Arial, sans-serif" font-weight="normal" font-style="normal" text-anchor="start">Planes</text>
<polyline points="42.9,464.5 47.1,468.0 42.9,471.5" fill="none" stroke="#a8a8a8" stroke-width="1.2"/>
<path d="M61.0 464 L65 467 L61.0 470 L57 467 Z M61.0 469 L65 472 L61.0 475 L57 472 Z M61.0 474 L65 477 L61.0 480 L57 477 Z" fill="none" stroke="#e6e6e6" stroke-width="1.2" opacity="1.0"/>
<text x="72" y="472.96" fill="#e6e6e6" font-size="11" font-family="Segoe UI, Inter, Roboto, Arial, sans-serif" font-weight="normal" font-style="normal" text-anchor="start">XY Plane</text>
<polyline points="42.9,484.5 47.1,488.0 42.9,491.5" fill="none" stroke="#a8a8a8" stroke-width="1.2"/>
<path d="M61.0 484 L65 487 L61.0 490 L57 487 Z M61.0 489 L65 492 L61.0 495 L57 492 Z M61.0 494 L65 497 L61.0 500 L57 497 Z" fill="none" stroke="#e6e6e6" stroke-width="1.2" opacity="1.0"/>
<text x="72" y="492.96" fill="#e6e6e6" font-size="11" font-family="Segoe UI, Inter, Roboto, Arial, sans-serif" font-weight="normal" font-style="normal" text-anchor="start">XZ Plane</text>
<polyline points="42.9,504.5 47.1,508.0 42.9,511.5" fill="none" stroke="#a8a8a8" stroke-width="1.2"/>
<path d="M61.0 504 L65 507 L61.0 510 L57 507 Z M61.0 509 L65 512 L61.0 515 L57 512 Z M61.0 514 L65 517 L61.0 520 L57 517 Z" fill="none" stroke="#e6e6e6" stroke-width="1.2" opacity="1.0"/>
<text x="72" y="512.96" fill="#e6e6e6" font-size="11" font-family="Segoe UI, Inter, Roboto, Arial, sans-serif" font-weight="normal" font-style="normal" text-anchor="start">YZ Plane</text>
<polyline points="28.9,524.5 33.1,528.0 28.9,531.5" fill="none" stroke="#a8a8a8" stroke-width="1.2"/>
<path d="M42 527 L42 532 L52 532 L52 526 L47.0 526 L45.0 524 L42 524 Z" fill="#e6e6e6" stroke="#e6e6e6" stroke-width="1.2" opacity="1.0"/>
<text x="58" y="532.96" fill="#e6e6e6" font-size="11" font-family="Segoe UI, Inter, Roboto, Arial, sans-serif" font-weight="normal" font-style="normal" text-anchor="start">Origin</text>
<polyline points="28.9,544.5 33.1,548.0 28.9,551.5" fill="none" stroke="#a8a8a8" stroke-width="1.2"/>
<path d="M42 547 L42 552 L52 552 L52 546 L47.0 546 L45.0 544 L42 544 Z" fill="#e6e6e6" stroke="#e6e6e6" stroke-width="1.2" opacity="1.0"/>
<text x="58" y="552.96" fill="#e6e6e6" font-size="11" font-family="Segoe UI, Inter, Roboto, Arial, sans-serif" font-weight="normal" font-style="normal" text-anchor="start">Annotations</text>
<polyline points="28.9,564.5 33.1,568.0 28.9,571.5" fill="none" stroke="#a8a8a8" stroke-width="1.2"/>
<path d="M42 567 L42 572 L52 572 L52 566 L47.0 566 L45.0 564 L42 564 Z" fill="#e6e6e6" stroke="#e6e6e6" stroke-width="1.2" opacity="1.0"/>
<text x="58" y="572.96" fill="#e6e6e6" font-size="11" font-family="Segoe UI, Inter, Roboto, Arial, sans-serif" font-weight="normal" font-style="normal" text-anchor="start">Materials</text>
<polyline points="28.9,584.5 33.1,588.0 28.9,591.5" fill="none" stroke="#a8a8a8" stroke-width="1.2"/>
<path d="M42 587 L42 592 L52 592 L52 586 L47.0 586 L45.0 584 L42 584 Z" fill="#e6e6e6" stroke="#e6e6e6" stroke-width="1.2" opacity="1.0"/>
<text x="58" y="592.96" fill="#e6e6e6" font-size="11" font-family="Segoe UI, Inter, Roboto, Arial, sans-serif" font-weight="normal" font-style="normal" text-anchor="start">Mesh</text>
<polyline points="27.5,605.9 31.0,610.1 34.5,605.9" fill="none" stroke="#a8a8a8" stroke-width="1.2"/>
<path d="M42 607 L42 612 L52 612 L52 606 L47.0 606 L45.0 604 L42 604 Z" fill="#e6e6e6" stroke="#e6e6e6" stroke-width="1.2" opacity="1.0"/>
<text x="58" y="612.96" fill="#e6e6e6" font-size="11" font-family="Segoe UI, Inter, Roboto, Arial, sans-serif" font-weight="normal" font-style="normal" text-anchor="start">Simulation</text>
<polyline points="42.9,624.5 47.1,628.0 42.9,631.5" fill="none" stroke="#a8a8a8" stroke-width="1.2"/>
<rect x="57" y="624" width="8" height="8" fill="none" stroke="#e6e6e6" stroke-width="1.2"/>
<rect x="57" y="624" width="2.6666666666666665" height="4" fill="#5ac878" stroke="none" stroke-width="1"/>
<rect x="57" y="628" width="2.6666666666666665" height="4" fill="#e2a73a" stroke="none" stroke-width="1"/>
<rect x="57" y="632" width="2.6666666666666665" height="4" fill="#e25555" stroke="none" stroke-width="1"/>
<text x="72" y="632.96" fill="#e6e6e6" font-size="11" font-family="Segoe UI, Inter, Roboto, Arial, sans-serif" font-weight="normal" font-style="normal" text-anchor="start">Stress_Study_1</text>
<polyline points="42.9,644.5 47.1,648.0 42.9,651.5" fill="none" stroke="#a8a8a8" stroke-width="1.2"/>
<line x1="57" y1="652" x2="61" y2="648" stroke="#e6e6e6" stroke-width="1.2"/>
<line x1="60" y1="649" x2="64" y2="645" stroke="#e6e6e6" stroke-width="1.2"/>
<line x1="63" y1="646" x2="67" y2="642" stroke="#e6e6e6" stroke-width="1.2"/>
<text x="72" y="652.96" fill="#e6e6e6" font-size="11" font-family="Segoe UI, Inter, Roboto, Arial, sans-serif" font-weight="normal" font-style="normal" text-anchor="start">Modal_Study_1</text>
<polyline points="28.9,664.5 33.1,668.0 28.9,671.5" fill="none" stroke="#a8a8a8" stroke-width="1.2"/>
<circle cx="47.0" cy="668.0" r="3" fill="none" opacity="1.0" stroke="#e6e6e6" stroke-width="1.2"/>
<line x1="51.0" y1="668.0" x2="53.0" y2="668.0" stroke="#e6e6e6" stroke-width="1.2"/>
<line x1="49.82842712474619" y1="670.8284271247462" x2="51.242640687119284" y2="672.2426406871193" stroke="#e6e6e6" stroke-width="1.2"/>
<line x1="47.0" y1="672.0" x2="47.0" y2="674.0" stroke="#e6e6e6" stroke-width="1.2"/>
<line x1="44.17157287525381" y1="670.8284271247462" x2="42.757359312880716" y2="672.2426406871193" stroke="#e6e6e6" stroke-width="1.2"/>
<line x1="43.0" y1="668.0" x2="41.0" y2="668.0" stroke="#e6e6e6" stroke-width="1.2"/>
<line x1="44.17157287525381" y1="665.1715728752538" x2="42.757359312880716" y2="663.7573593128807" stroke="#e6e6e6" stroke-width="1.2"/>
<line x1="47.0" y1="664.0" x2="47.0" y2="662.0" stroke="#e6e6e6" stroke-width="1.2"/>
<line x1="49.82842712474619" y1="665.1715728752538" x2="51.242640687119284" y2="663.7573593128807" stroke="#e6e6e6" stroke-width="1.2"/>
<text x="58" y="672.96" fill="#e6e6e6" font-size="11" font-family="Segoe UI, Inter, Roboto, Arial, sans-serif" font-weight="normal" font-style="normal" text-anchor="start">CAM Setup</text>
<polyline points="27.5,685.9 31.0,690.1 34.5,685.9" fill="none" stroke="#a8a8a8" stroke-width="1.2"/>
<circle cx="47.0" cy="688.0" r="6" fill="none" opacity="1.0" stroke="#e6e6e6" stroke-width="1.2"/>
<polyline points="47.0,685.0 47.0,688.0 50.0,688.0" fill="none" stroke="#e6e6e6" stroke-width="1.2"/>
<text x="58" y="692.96" fill="#e6e6e6" font-size="11" font-family="Segoe UI, Inter, Roboto, Arial, sans-serif" font-weight="normal" font-style="normal" text-anchor="start">History</text>
<polyline points="42.9,704.5 47.1,708.0 42.9,711.5" fill="none" stroke="#a8a8a8" stroke-width="1.2"/>
<line x1="57" y1="712" x2="65" y2="704" stroke="#e6e6e6" stroke-width="1.2"/>
<text x="72" y="712.96" fill="#e6e6e6" font-size="11" font-family="Segoe UI, Inter, Roboto, Arial, sans-serif" font-weight="normal" font-style="normal" text-anchor="start">Sketch 1</text>
<polyline points="42.9,724.5 47.1,728.0 42.9,731.5" fill="none" stroke="#a8a8a8" stroke-width="1.2"/>
<path d="M57 726 L61.0 723 L65 726 L65 730 L61.0 733 L57 730 Z" fill="none" stroke="#e6e6e6" stroke-width="1.2" opacity="1.0"/>
<line x1="57" y1="726" x2="61.0" y2="729" stroke="#e6e6e6" stroke-width="1.2"/>
<line x1="61.0" y1="723" x2="61.0" y2="729" stroke="#e6e6e6" stroke-width="1.2"/>
<line x1="65" y1="726" x2="61.0" y2="729" stroke="#e6e6e6" stroke-width="1.2"/>
<text x="72" y="732.96" fill="#e6e6e6" font-size="11" font-family="Segoe UI, Inter, Roboto, Arial, sans-serif" font-weight="normal" font-style="normal" text-anchor="start">Extrude 1</text>
<polyline points="42.9,744.5 47.1,748.0 42.9,751.5" fill="none" stroke="#a8a8a8" stroke-width="1.2"/>
<path d="M57 752 L62.4 752 Q65 752 65 746.6" fill="none" stroke="#e6e6e6" stroke-width="1.2" opacity="1.0"/>
<line x1="57" y1="752" x2="57" y2="750" stroke="#e6e6e6" stroke-width="1.2"/>
<text x="72" y="752.96" fill="#e6e6e6" font-size="11" font-family="Segoe UI, Inter, Roboto, Arial, sans-serif" font-weight="normal" font-style="normal" text-anchor="start">Fillet 1 (R5)</text>
<polyline points="42.9,764.5 47.1,768.0 42.9,771.5" fill="none" stroke="#a8a8a8" stroke-width="1.2"/>
<circle cx="58.0" cy="766.0" r="5" fill="rgba(230,230,230,0.3)" opacity="1.0" stroke="#e6e6e6" stroke-width="1.2"/>
<circle cx="64.0" cy="766.0" r="5" fill="rgba(230,230,230,0.3)" opacity="1.0" stroke="#e6e6e6" stroke-width="1.2"/>
<text x="72" y="772.96" fill="#e6e6e6" font-size="11" font-family="Segoe UI, Inter, Roboto, Arial, sans-serif" font-weight="normal" font-style="normal" text-anchor="start">Boolean Union</text>
<polyline points="42.9,784.5 47.1,788.0 42.9,791.5" fill="none" stroke="#a8a8a8" stroke-width="1.2"/>
<path d="M57 784 L65 784 L65 792 L57 792 Z M59 786 L63 786 L63 790 L59 790 Z" fill="none" stroke="#e6e6e6" stroke-width="1.2" opacity="1.0"/>
<text x="72" y="792.96" fill="#e6e6e6" font-size="11" font-family="Segoe UI, Inter, Roboto, Arial, sans-serif" font-weight="normal" font-style="normal" text-anchor="start">Shell 1 (2mm)</text>
<polyline points="42.9,804.5 47.1,808.0 42.9,811.5" fill="none" stroke="#a8a8a8" stroke-width="1.2"/>
<rect x="57.0" y="806" width="5" height="5" fill="none" stroke="#e6e6e6" stroke-width="1.2"/>
<rect x="61.0" y="806" width="5" height="5" fill="none" stroke="#e6e6e6" stroke-width="1.2"/>
<rect x="65.0" y="806" width="5" height="5" fill="none" stroke="#e6e6e6" stroke-width="1.2"/>
<text x="72" y="812.96" fill="#e6e6e6" font-size="11" font-family="Segoe UI, Inter, Roboto, Arial, sans-serif" font-weight="normal" font-style="normal" text-anchor="start">Linear Pattern (4×)</text>
<rect x="0" y="770" width="400" height="30" fill="#262626" stroke="#1a1a1a" stroke-width="1"/>
<text x="8" y="786" fill="#a8a8a8" font-size="10" font-family="Segoe UI, Inter, Roboto, Arial, sans-serif" font-weight="normal" font-style="normal" text-anchor="start">36 nodes  ·  12 components  ·  1 selected</text>
</svg>
