v 1.185000 1.001197 -4.913818
v 1.191563 1.060884 -4.923456
v 1.185000 1.056502 -4.913818
v 1.191602 1.005848 -4.923514
v 1.197856 1.065194 -4.933170
v 1.197927 1.010418 -4.933284
v 1.203882 1.069432 -4.942962
v 1.203981 1.014907 -4.943128
v 1.209646 1.073595 -4.952827
v 1.209768 1.019312 -4.953043
v 1.215150 1.077681 -4.962766
v 1.215290 1.023632 -4.963027
v 1.220399 1.081688 -4.972776
v 1.220552 1.027864 -4.973077
v 1.225396 1.085615 -4.982855
v 1.225557 1.032008 -4.983192
v 1.230145 1.089460 -4.993003
v 1.230311 1.036060 -4.993369
v 1.234649 1.093221 -5.003217
v 1.234815 1.040020 -5.003606
v 1.238912 1.096897 -5.013496
v 1.239075 1.043885 -5.013902
v 1.242934 1.100484 -5.023837
v 1.243092 1.047654 -5.024252
v 1.246717 1.103983 -5.034234
v 1.246866 1.051325 -5.034653
v 1.250261 1.107390 -5.044685
v 1.250398 1.054898 -5.045101
v 1.253566 1.110704 -5.055186
v 1.253691 1.058370 -5.055593
v 1.256632 1.113924 -5.065731
v 1.256743 1.061740 -5.066126
v 1.259459 1.117047 -5.076318
v 1.259556 1.065006 -5.076695
v 1.262049 1.120072 -5.086942
v 1.262132 1.068168 -5.087297
v 1.264402 1.122997 -5.097600
v 1.264470 1.071224 -5.097929
v 1.266517 1.125821 -5.108287
v 1.266573 1.074173 -5.108586
v 1.268395 1.128542 -5.119000
v 1.268440 1.077013 -5.119267
v 1.270038 1.131160 -5.129736
v 1.270072 1.079745 -5.129969
v 1.271445 1.133675 -5.140493
v 1.271469 1.082369 -5.140689
v 1.272617 1.136088 -5.151269
v 1.272634 1.084885 -5.151427
v 1.273555 1.138396 -5.162060
v 1.273565 1.087292 -5.162179
v 1.274259 1.140601 -5.172863
v 1.274264 1.089591 -5.172943
v 1.274730 1.142702 -5.183677
v 1.274732 1.091782 -5.183718
v 1.274968 1.144699 -5.194497
v 1.274968 1.093864 -5.194501
v 1.274974 1.095837 -5.205290
v 1.274974 1.146591 -5.205323
v 1.274749 1.097702 -5.216084
v 1.274748 1.148379 -5.216151
v 1.274291 1.099458 -5.226881
v 1.274286 1.150062 -5.226981
v 1.273598 1.101106 -5.237680
v 1.273589 1.151641 -5.237811
v 1.272667 1.102645 -5.248481
v 1.272652 1.153116 -5.248641
v 1.271497 1.104076 -5.259282
v 1.271476 1.154486 -5.259470
v 1.270086 1.105399 -5.270083
v 1.270056 1.155752 -5.270296
v 1.268431 1.106613 -5.280882
v 1.268393 1.156914 -5.281118
v 1.266531 1.107719 -5.291679
v 1.266483 1.157971 -5.291936
v 1.264383 1.108717 -5.302472
v 1.264325 1.158925 -5.302748
v 1.261987 1.109607 -5.313257
v 1.261918 1.159775 -5.313550
v 1.259345 1.110391 -5.324023
v 1.259265 1.160523 -5.324329
v 1.256460 1.111070 -5.334759
v 1.256369 1.161170 -5.335076
v 1.253334 1.111644 -5.345453
v 1.253233 1.161717 -5.345777
v 1.249969 1.112116 -5.356094
v 1.249859 1.162165 -5.356422
v 1.246367 1.112486 -5.366671
v 1.246249 1.162517 -5.366999
v 1.242532 1.112756 -5.377172
v 1.242408 1.162772 -5.377496
v 1.238465 1.112926 -5.387588
v 1.238337 1.162932 -5.387903
v 1.234169 1.112999 -5.397905
v 1.234039 1.162999 -5.398207
v 1.229644 1.112975 -5.408117
v 1.229515 1.162975 -5.408400
v 1.224890 1.112858 -5.418224
v 1.224765 1.162861 -5.418483
v 1.219904 1.112651 -5.428227
v 1.219786 1.162661 -5.428459
v 1.214684 1.112355 -5.438130
v 1.214576 1.162377 -5.438330
v 1.209228 1.111974 -5.447932
v 1.209134 1.162012 -5.448098
v 1.203533 1.111512 -5.457637
v 1.203457 1.161570 -5.457765
v 1.197599 1.110969 -5.467246
v 1.197544 1.161052 -5.467333
v 1.191422 1.110351 -5.476760
v 1.191392 1.160462 -5.476804
v 1.185000 1.109658 -5.486182
v 1.185000 1.159802 -5.486182
f 1 2 3
f 1 4 2
f 4 5 2
f 4 6 5
f 6 7 5
f 6 8 7
f 8 9 7
f 8 10 9
f 10 11 9
f 10 12 11
f 12 13 11
f 12 14 13
f 14 15 13
f 14 16 15
f 16 17 15
f 16 18 17
f 18 19 17
f 18 20 19
f 20 21 19
f 20 22 21
f 22 23 21
f 22 24 23
f 24 25 23
f 24 26 25
f 26 27 25
f 26 28 27
f 28 29 27
f 28 30 29
f 30 31 29
f 30 32 31
f 32 33 31
f 32 34 33
f 34 35 33
f 34 36 35
f 36 37 35
f 36 38 37
f 38 39 37
f 38 40 39
f 40 41 39
f 40 42 41
f 42 43 41
f 42 44 43
f 44 45 43
f 44 46 45
f 46 47 45
f 46 48 47
f 48 49 47
f 48 50 49
f 50 51 49
f 50 52 51
f 52 53 51
f 52 54 53
f 54 55 53
f 54 56 55
f 56 57 55
f 57 58 55
f 57 59 58
f 59 60 58
f 59 61 60
f 61 62 60
f 61 63 62
f 63 64 62
f 63 65 64
f 65 66 64
f 65 67 66
f 67 68 66
f 67 69 68
f 69 70 68
f 69 71 70
f 71 72 70
f 71 73 72
f 73 74 72
f 73 75 74
f 75 76 74
f 75 77 76
f 77 78 76
f 77 79 78
f 79 80 78
f 79 81 80
f 81 82 80
f 81 83 82
f 83 84 82
f 83 85 84
f 85 86 84
f 85 87 86
f 87 88 86
f 87 89 88
f 89 90 88
f 89 91 90
f 91 92 90
f 91 93 92
f 93 94 92
f 93 95 94
f 95 96 94
f 95 97 96
f 97 98 96
f 97 99 98
f 99 100 98
f 99 101 100
f 101 102 100
f 101 103 102
f 103 104 102
f 103 105 104
f 105 106 104
f 105 107 106
f 107 108 106
f 107 109 108
f 109 110 108
f 109 111 110
f 111 112 110
