v -1.162583 -0.591875 -4.395930
v -1.171013 -0.500133 -4.210628
v -1.171013 -0.500532 -4.218773
v -1.171013 -0.502125 -4.235003
v -1.171013 -0.501196 -4.226901
v -1.171013 -0.503318 -4.243070
v -1.171013 -0.504773 -4.251094
v -1.171013 -0.506490 -4.259067
v -1.171012 -0.508465 -4.266979
v -1.171012 -0.510698 -4.274822
v -1.171012 -0.513185 -4.282589
v -1.171012 -0.515924 -4.290270
v -1.171012 -0.518912 -4.297858
v -1.171012 -0.522146 -4.305345
v -1.171012 -0.525622 -4.312721
v -1.171012 -0.529337 -4.319981
v -1.171012 -0.533287 -4.327116
v -1.171012 -0.537468 -4.334118
v -1.171012 -0.541875 -4.340979
v -1.171012 -0.546503 -4.347694
v -1.171012 -0.551348 -4.354254
v -1.171012 -0.556404 -4.360652
v -1.171012 -0.561666 -4.366883
v -1.171012 -0.567128 -4.372938
v -1.171012 -0.572785 -4.378812
v -1.171012 -0.578631 -4.384498
v -1.171012 -0.584659 -4.389990
v -1.171011 -0.590863 -4.395283
v -1.171011 -0.597236 -4.400371
v -1.171011 -0.603772 -4.405248
v -1.171011 -0.610464 -4.409910
v -1.171011 -0.617304 -4.414350
v -1.165259 -0.612273 -4.411036
v -1.159512 -0.607396 -4.407491
v -1.153779 -0.602677 -4.403718
v -1.148064 -0.598122 -4.399721
v -1.142375 -0.593735 -4.395505
v -1.136718 -0.589522 -4.391076
v -1.131099 -0.585486 -4.386437
v -1.125524 -0.581634 -4.381593
v -1.120000 -0.577968 -4.376551
v -1.114532 -0.574493 -4.371316
v -1.109127 -0.571213 -4.365893
v -1.103791 -0.568132 -4.360288
v -1.098529 -0.565252 -4.354509
v -1.093348 -0.562578 -4.348561
v -1.088253 -0.560112 -4.342450
v -1.083250 -0.557856 -4.336185
v -1.078344 -0.555814 -4.329770
v -1.073541 -0.553987 -4.323215
v -1.068847 -0.552378 -4.316525
v -1.064265 -0.550988 -4.309709
v -1.059803 -0.549819 -4.302774
v -1.055463 -0.548872 -4.295728
v -1.051252 -0.548149 -4.288578
v -1.047174 -0.547649 -4.281332
v -1.043234 -0.547375 -4.273999
v -1.039435 -0.547325 -4.266586
v -1.035782 -0.547500 -4.259103
v -1.032280 -0.547900 -4.251556
v -1.028931 -0.548524 -4.243955
v -1.025740 -0.549372 -4.236308
v -1.022710 -0.550443 -4.228623
v -1.165878 -0.500054 -4.203379
v -1.171011 -0.500000 -4.202474
v -1.033889 -0.543351 -4.233992
v -1.144646 -0.503400 -4.233992
v -1.157810 -0.502346 -4.233992
v -1.048106 -0.541472 -4.265007
v -1.145278 -0.509319 -4.265007
v -1.158127 -0.508290 -4.265007
v -1.063908 -0.543934 -4.295024
v -1.146322 -0.519078 -4.295024
v -1.158650 -0.518091 -4.295024
v -1.080617 -0.550837 -4.323564
v -1.147759 -0.532523 -4.323564
v -1.159369 -0.531593 -4.323564
v -1.097544 -0.562150 -4.350172
v -1.149568 -0.549438 -4.350172
v -1.160275 -0.548580 -4.350172
v -1.123255 -0.574921 -4.374423
v -1.151718 -0.569553 -4.374423
v -1.161352 -0.568782 -4.374423
v -1.145819 -0.593667 -4.395930
v -1.026841 -0.547346 -4.227895
v -1.160746 -0.500217 -4.204284
v -1.131556 -0.505153 -4.233992
v -1.132503 -0.511030 -4.265007
v -1.134064 -0.520720 -4.295024
v -1.136215 -0.534069 -4.323564
v -1.138921 -0.550863 -4.350172
v -1.142140 -0.570836 -4.374423
v -1.031033 -0.544338 -4.227156
v -1.155619 -0.500489 -4.205188
v -1.118577 -0.507601 -4.233992
v -1.119836 -0.513419 -4.265007
v -1.121911 -0.523012 -4.295024
v -1.124770 -0.536227 -4.323564
v -1.128366 -0.552854 -4.350172
v -1.132643 -0.572627 -4.374423
v -1.035287 -0.541419 -4.226406
v -1.150499 -0.500869 -4.206091
v -1.105748 -0.510736 -4.233992
v -1.107314 -0.516478 -4.265007
v -1.109897 -0.525948 -4.295024
v -1.113455 -0.538992 -4.323564
v -1.117932 -0.555404 -4.350172
v -1.145387 -0.501358 -4.206992
v -1.093103 -0.514549 -4.233992
v -1.094973 -0.520200 -4.265007
v -1.098057 -0.529519 -4.295024
v -1.102304 -0.542355 -4.323564
v -1.107648 -0.558505 -4.350172
v -1.154177 -0.592548 -4.395930
v -1.140287 -0.501954 -4.207891
v -1.080680 -0.519031 -4.233992
v -1.082848 -0.524574 -4.265007
v -1.086423 -0.533715 -4.295024
v -1.091348 -0.546307 -4.323564
v -1.135200 -0.502659 -4.208788
v -1.068513 -0.524167 -4.233992
v -1.070973 -0.529587 -4.265007
v -1.075029 -0.538525 -4.295024
v -1.130129 -0.503471 -4.209682
v -1.056636 -0.529943 -4.233992
v -1.059381 -0.535225 -4.265007
v -1.125075 -0.504390 -4.210573
v -1.045084 -0.536344 -4.233992
v -1.120042 -0.505416 -4.211461
v -1.115030 -0.506548 -4.212345
v -1.110043 -0.507787 -4.213224
v -1.105083 -0.509130 -4.214099
v -1.100151 -0.510578 -4.214968
v -1.095250 -0.512131 -4.215833
v -1.090382 -0.513787 -4.216691
v -1.039600 -0.538590 -4.225645
v -1.085548 -0.515545 -4.217543
v -1.043970 -0.535854 -4.224875
v -1.080753 -0.517406 -4.218389
v -1.048395 -0.533210 -4.224094
v -1.075996 -0.519367 -4.219228
v -1.052873 -0.530661 -4.223305
v -1.071281 -0.521429 -4.220059
v -1.057403 -0.528208 -4.222506
v -1.066609 -0.523591 -4.220883
v -1.061982 -0.525850 -4.221699
v -1.093884 -0.516910 -4.249594
v -1.100118 -0.514939 -4.249594
v -1.108481 -0.520755 -4.280171
f 1 2 3
f 4 5 1
f 4 6 7
f 7 8 9
f 9 10 11
f 11 12 13
f 13 14 15
f 15 16 17
f 17 18 19
f 19 20 21
f 21 22 23
f 23 24 25
f 25 26 27
f 27 28 29
f 29 30 31
f 31 32 33
f 33 34 35
f 35 36 37
f 37 38 39
f 39 40 41
f 41 42 43
f 43 44 45
f 45 46 47
f 47 48 49
f 49 50 51
f 51 52 53
f 53 54 55
f 55 56 57
f 57 58 59
f 59 60 61
f 61 62 63
f 64 65 66
f 68 148 147
f 148 69 147
f 68 147 67
f 71 149 70
f 149 72 70
f 73 74 75
f 76 77 78
f 79 80 81
f 82 83 84
f 5 3 1
f 4 7 9
f 9 11 13
f 13 15 17
f 17 19 21
f 21 23 25
f 25 27 29
f 29 31 33
f 33 35 37
f 37 39 41
f 41 43 45
f 45 47 49
f 49 51 53
f 53 55 57
f 57 59 61
f 61 63 85
f 86 64 66
f 67 147 87
f 147 69 87
f 88 70 72
f 89 73 75
f 90 76 78
f 91 79 81
f 92 82 84
f 1 4 9
f 9 13 17
f 17 21 25
f 25 29 33
f 37 41 45
f 45 49 53
f 53 57 61
f 61 85 93
f 94 86 66
f 95 87 69
f 96 88 72
f 97 89 75
f 98 90 78
f 99 91 81
f 100 92 84
f 1 9 17
f 17 25 33
f 45 53 61
f 61 93 101
f 102 94 66
f 103 95 69
f 104 96 72
f 105 97 75
f 106 98 78
f 107 99 81
f 81 100 84
f 1 17 33
f 108 102 66
f 109 103 69
f 110 104 72
f 111 105 75
f 112 106 78
f 113 107 81
f 114 1 33
f 115 108 66
f 116 109 69
f 117 110 72
f 118 111 75
f 119 112 78
f 78 113 81
f 84 114 33
f 120 115 66
f 121 116 69
f 122 117 72
f 123 118 75
f 75 119 78
f 84 33 37
f 124 120 66
f 125 121 69
f 126 122 72
f 72 123 75
f 81 84 37
f 127 124 66
f 128 125 69
f 69 126 72
f 78 81 37
f 129 127 66
f 66 128 69
f 78 37 45
f 130 129 66
f 75 78 45
f 131 130 66
f 69 72 45
f 72 75 45
f 132 131 66
f 66 69 45
f 133 132 66
f 66 45 61
f 134 133 66
f 66 61 101
f 135 134 66
f 66 101 136
f 137 135 66
f 66 136 138
f 139 137 66
f 66 138 140
f 141 139 66
f 66 140 142
f 143 141 66
f 66 142 144
f 145 143 66
f 66 144 146
f 146 145 66
f 65 2 64
