v 2.294230 0.565914 -5.579615
v 2.299151 0.566481 -5.575145
v 2.296715 0.566201 -5.577407
v 2.301537 0.566753 -5.572829
v 2.303871 0.567016 -5.570460
v 2.306152 0.567271 -5.568039
v 2.308380 0.567518 -5.565568
v 2.310553 0.567756 -5.563048
v 2.312670 0.567985 -5.560479
v 2.314730 0.568205 -5.557864
v 2.316732 0.568416 -5.555204
v 2.292837 0.575919 -5.579239
v 2.291553 0.585592 -5.578507
v 2.290375 0.594949 -5.577437
v 2.289294 0.604007 -5.576050
v 2.288308 0.612784 -5.574363
v 2.287412 0.621283 -5.572391
v 2.286607 0.629495 -5.570142
v 2.285894 0.637406 -5.567625
v 2.285273 0.645006 -5.564848
v 2.284746 0.652282 -5.561817
v 2.314167 0.578791 -5.556223
v 2.314151 0.578853 -5.556229
v 2.311376 0.588706 -5.557145
v 2.311341 0.588823 -5.557156
v 2.308393 0.598163 -5.557976
v 2.308338 0.598329 -5.557991
v 2.305254 0.607168 -5.558725
v 2.305177 0.607378 -5.558741
v 2.301989 0.615734 -5.559396
v 2.301890 0.615983 -5.559415
v 2.298629 0.623863 -5.559998
v 2.298508 0.624146 -5.560018
v 2.295211 0.631549 -5.560534
v 2.295068 0.631859 -5.560555
v 2.291769 0.638787 -5.561009
v 2.291606 0.639119 -5.561030
v 2.288336 0.645578 -5.561428
v 2.288155 0.645925 -5.561449
v 2.284941 0.651925 -5.561796
v 2.320558 0.568811 -5.549752
v 2.318675 0.568618 -5.552499
v 2.322380 0.568994 -5.546964
v 2.324140 0.569168 -5.544135
v 2.325838 0.569333 -5.541268
v 2.327472 0.569488 -5.538363
v 2.329042 0.569633 -5.535423
v 2.330547 0.569769 -5.532449
v 2.331986 0.569895 -5.529442
v 2.333358 0.570011 -5.526403
v 2.284311 0.659224 -5.558541
v 2.283970 0.665820 -5.555028
v 2.283722 0.672062 -5.551285
v 2.283568 0.677938 -5.547321
v 2.283506 0.683437 -5.543147
v 2.283536 0.688543 -5.538783
v 2.283655 0.693240 -5.534249
v 2.283861 0.697511 -5.529568
v 2.284154 0.701342 -5.524758
v 2.284528 0.704730 -5.519844
v 2.331640 0.580869 -5.526249
v 2.331629 0.580934 -5.526248
v 2.329660 0.591293 -5.526044
v 2.329634 0.591416 -5.526041
v 2.327452 0.601281 -5.525795
v 2.327411 0.601457 -5.525791
v 2.325051 0.610836 -5.525508
v 2.324991 0.611059 -5.525501
v 2.322486 0.619966 -5.525189
v 2.322408 0.620232 -5.525179
v 2.319789 0.628670 -5.524841
v 2.319691 0.628973 -5.524828
v 2.316995 0.636936 -5.524472
v 2.316877 0.637270 -5.524456
v 2.314137 0.644756 -5.524086
v 2.314000 0.645116 -5.524068
v 2.311247 0.652126 -5.523690
v 2.311093 0.652503 -5.523669
v 2.308356 0.659043 -5.523288
v 2.308188 0.659433 -5.523265
v 2.305494 0.665511 -5.522886
v 2.305313 0.665906 -5.522861
v 2.302685 0.671533 -5.522487
v 2.302495 0.671929 -5.522460
v 2.299953 0.677117 -5.522097
v 2.299757 0.677508 -5.522068
v 2.297321 0.682271 -5.521717
v 2.297122 0.682653 -5.521689
v 2.294810 0.687001 -5.521353
v 2.294609 0.687370 -5.521324
v 2.292437 0.691312 -5.521008
v 2.292240 0.691665 -5.520979
v 2.290223 0.695211 -5.520684
v 2.290032 0.695543 -5.520656
v 2.288183 0.698702 -5.520384
v 2.288002 0.699008 -5.520358
v 2.286332 0.701791 -5.520112
v 2.286165 0.702067 -5.520087
v 2.284680 0.704489 -5.519868
v 2.335901 0.570213 -5.520238
v 2.334664 0.570117 -5.523335
v 2.337070 0.570299 -5.517114
v 2.338170 0.570376 -5.513966
v 2.339200 0.570442 -5.510793
v 2.340160 0.570498 -5.507599
v 2.341050 0.570543 -5.504384
v 2.341868 0.570579 -5.501150
v 2.342615 0.570605 -5.497898
v 2.343291 0.570620 -5.494631
v 2.343894 0.570625 -5.491350
v 2.344425 0.570620 -5.488056
v 2.344883 0.570605 -5.484752
v 2.345268 0.570579 -5.481438
v 2.345580 0.570543 -5.478117
v 2.345819 0.570498 -5.474789
v 2.345984 0.570442 -5.471458
v 2.346076 0.570376 -5.468124
v 2.346095 0.570299 -5.464788
v 2.346040 0.570213 -5.461454
v 2.345911 0.570117 -5.458121
v 2.284978 0.707675 -5.514851
v 2.285501 0.710182 -5.509802
v 2.286090 0.712252 -5.504722
v 2.286741 0.713891 -5.499631
v 2.287452 0.715105 -5.494534
v 2.288223 0.715900 -5.489431
v 2.289050 0.716285 -5.484324
v 2.289934 0.716266 -5.479214
v 2.290873 0.715842 -5.474108
v 2.291867 0.715008 -5.469015
v 2.292915 0.713754 -5.463944
v 2.294017 0.712073 -5.458907
v 2.295171 0.709958 -5.453914
v 2.296376 0.707407 -5.448985
v 2.344245 0.581004 -5.457790
v 2.344234 0.581069 -5.457787
v 2.342314 0.591457 -5.457414
v 2.342289 0.591580 -5.457409
v 2.340153 0.601473 -5.457000
v 2.340112 0.601650 -5.456992
v 2.337796 0.611058 -5.456553
v 2.337737 0.611282 -5.456542
v 2.335272 0.620217 -5.456080
v 2.335195 0.620484 -5.456065
v 2.332614 0.628950 -5.455585
v 2.332517 0.629254 -5.455567
v 2.329856 0.637245 -5.455074
v 2.329740 0.637580 -5.455052
v 2.327032 0.645093 -5.454553
v 2.326897 0.645454 -5.454528
v 2.324174 0.652490 -5.454028
v 2.324023 0.652869 -5.454000
v 2.321313 0.659434 -5.453504
v 2.321147 0.659825 -5.453474
v 2.318478 0.665927 -5.452986
v 2.318299 0.666324 -5.452954
v 2.315693 0.671974 -5.452479
v 2.315506 0.672371 -5.452445
v 2.312985 0.677581 -5.451987
v 2.312791 0.677974 -5.451952
v 2.310374 0.682756 -5.451513
v 2.310176 0.683140 -5.451477
v 2.307881 0.687507 -5.451062
v 2.307682 0.687878 -5.451026
v 2.305526 0.691838 -5.450635
v 2.305329 0.692192 -5.450600
v 2.303326 0.695754 -5.450238
v 2.303136 0.696087 -5.450204
v 2.301300 0.699261 -5.449872
v 2.301120 0.699568 -5.449840
v 2.299461 0.702364 -5.449540
v 2.299295 0.702641 -5.449510
v 2.297818 0.705075 -5.449244
v 2.297669 0.705318 -5.449217
v 2.345434 0.569895 -5.451470
v 2.345709 0.570011 -5.454793
v 2.345086 0.569769 -5.448155
v 2.344664 0.569633 -5.444848
v 2.344170 0.569488 -5.441552
v 2.343603 0.569333 -5.438268
v 2.342964 0.569168 -5.434998
v 2.342253 0.568994 -5.431743
v 2.341470 0.568811 -5.428505
v 2.340616 0.568618 -5.425286
v 2.297628 0.704420 -5.444142
v 2.298923 0.700995 -5.439409
v 2.300259 0.697131 -5.434806
v 2.301631 0.692835 -5.430356
v 2.303035 0.688120 -5.426077
v 2.304465 0.683003 -5.421990
v 2.305916 0.677498 -5.418112
v 2.307384 0.671620 -5.414462
v 2.308865 0.665383 -5.411052
v 2.310357 0.658795 -5.407888
v 2.338601 0.579054 -5.423570
v 2.338588 0.579116 -5.423560
v 2.336338 0.589032 -5.421865
v 2.336309 0.589150 -5.421845
v 2.333861 0.598555 -5.420177
v 2.333815 0.598723 -5.420147
v 2.331207 0.607629 -5.418510
v 2.331141 0.607841 -5.418470
v 2.328405 0.616266 -5.416867
v 2.328320 0.616517 -5.416819
v 2.325488 0.624467 -5.415255
v 2.325382 0.624751 -5.415198
v 2.322491 0.632224 -5.413681
v 2.322365 0.632537 -5.413616
v 2.319448 0.639535 -5.412151
v 2.319303 0.639870 -5.412080
v 2.316391 0.646398 -5.410672
v 2.316230 0.646749 -5.410595
v 2.313351 0.652816 -5.409250
v 2.313175 0.653177 -5.409169
v 2.338696 0.568205 -5.418909
v 2.339691 0.568416 -5.422086
v 2.337631 0.567985 -5.415755
v 2.336497 0.567756 -5.412626
v 2.335294 0.567518 -5.409524
v 2.334023 0.567271 -5.406449
v 2.332684 0.567016 -5.403404
v 2.331278 0.566753 -5.400390
v 2.329807 0.566481 -5.397408
v 2.328269 0.566201 -5.394460
v 2.326667 0.565914 -5.391548
v 2.311856 0.651869 -5.404978
v 2.313361 0.644614 -5.402328
v 2.314868 0.637041 -5.399945
v 2.316374 0.629161 -5.397837
v 2.317877 0.620986 -5.396010
v 2.319372 0.612527 -5.394471
v 2.320858 0.603795 -5.393228
v 2.322331 0.594784 -5.392295
v 2.323792 0.585478 -5.391690
v 2.325237 0.575860 -5.391435
f 1 2 3
f 1 4 2
f 1 5 4
f 1 6 5
f 1 7 6
f 1 8 7
f 1 9 8
f 1 10 9
f 1 11 10
f 1 12 13
f 1 13 14
f 1 14 15
f 1 15 16
f 1 16 17
f 1 17 18
f 1 18 19
f 1 19 20
f 1 20 21
f 1 22 11
f 1 23 22
f 1 24 23
f 1 25 24
f 1 26 25
f 1 27 26
f 1 28 27
f 1 29 28
f 1 30 29
f 1 31 30
f 1 32 31
f 1 33 32
f 1 34 33
f 1 35 34
f 1 36 35
f 1 37 36
f 1 38 37
f 1 39 38
f 1 40 39
f 1 21 40
f 11 41 42
f 11 43 41
f 11 44 43
f 11 45 44
f 11 46 45
f 11 47 46
f 11 48 47
f 11 49 48
f 11 50 49
f 21 51 52
f 21 52 53
f 21 53 54
f 21 54 55
f 21 55 56
f 21 56 57
f 21 57 58
f 21 58 59
f 21 59 60
f 11 22 50
f 22 61 50
f 22 23 61
f 23 62 61
f 23 24 62
f 24 63 62
f 24 25 63
f 25 64 63
f 25 26 64
f 26 65 64
f 26 27 65
f 27 66 65
f 27 28 66
f 28 67 66
f 28 29 67
f 29 68 67
f 29 30 68
f 30 69 68
f 30 31 69
f 31 70 69
f 31 32 70
f 32 71 70
f 32 33 71
f 33 72 71
f 33 34 72
f 34 73 72
f 34 35 73
f 35 74 73
f 35 36 74
f 36 75 74
f 36 37 75
f 37 76 75
f 37 38 76
f 38 77 76
f 38 39 77
f 39 78 77
f 39 40 78
f 40 79 78
f 40 21 79
f 21 80 79
f 21 81 80
f 21 82 81
f 21 83 82
f 21 84 83
f 21 85 84
f 21 86 85
f 21 87 86
f 21 88 87
f 21 89 88
f 21 90 89
f 21 91 90
f 21 92 91
f 21 93 92
f 21 94 93
f 21 95 94
f 21 96 95
f 21 97 96
f 21 98 97
f 21 99 98
f 21 60 99
f 50 100 101
f 50 102 100
f 50 103 102
f 50 104 103
f 50 105 104
f 50 106 105
f 50 107 106
f 50 108 107
f 50 109 108
f 50 110 109
f 50 111 110
f 50 112 111
f 50 113 112
f 50 114 113
f 50 115 114
f 50 116 115
f 50 117 116
f 50 118 117
f 50 119 118
f 50 120 119
f 60 121 122
f 60 122 123
f 60 123 124
f 60 124 125
f 60 125 126
f 60 126 127
f 60 127 128
f 60 128 129
f 60 129 130
f 60 130 131
f 60 131 132
f 60 132 133
f 60 133 134
f 50 61 120
f 61 135 120
f 61 62 135
f 62 136 135
f 62 63 136
f 63 137 136
f 63 64 137
f 64 138 137
f 64 65 138
f 65 139 138
f 65 66 139
f 66 140 139
f 66 67 140
f 67 141 140
f 67 68 141
f 68 142 141
f 68 69 142
f 69 143 142
f 69 70 143
f 70 144 143
f 70 71 144
f 71 145 144
f 71 72 145
f 72 146 145
f 72 73 146
f 73 147 146
f 73 74 147
f 74 148 147
f 74 75 148
f 75 149 148
f 75 76 149
f 76 150 149
f 76 77 150
f 77 151 150
f 77 78 151
f 78 152 151
f 78 79 152
f 79 153 152
f 79 80 153
f 80 154 153
f 80 81 154
f 81 155 154
f 81 82 155
f 82 156 155
f 82 83 156
f 83 157 156
f 83 84 157
f 84 158 157
f 84 85 158
f 85 159 158
f 85 86 159
f 86 160 159
f 86 87 160
f 87 161 160
f 87 88 161
f 88 162 161
f 88 89 162
f 89 163 162
f 89 90 163
f 90 164 163
f 90 91 164
f 91 165 164
f 91 92 165
f 92 166 165
f 92 93 166
f 93 167 166
f 93 94 167
f 94 168 167
f 94 95 168
f 95 169 168
f 95 96 169
f 96 170 169
f 96 97 170
f 97 171 170
f 97 98 171
f 98 172 171
f 98 99 172
f 99 173 172
f 99 60 173
f 60 174 173
f 60 134 174
f 120 175 176
f 120 177 175
f 120 178 177
f 120 179 178
f 120 180 179
f 120 181 180
f 120 182 181
f 120 183 182
f 120 184 183
f 134 185 186
f 134 186 187
f 134 187 188
f 134 188 189
f 134 189 190
f 134 190 191
f 134 191 192
f 134 192 193
f 134 193 194
f 120 135 184
f 135 195 184
f 135 136 195
f 136 196 195
f 136 137 196
f 137 197 196
f 137 138 197
f 138 198 197
f 138 139 198
f 139 199 198
f 139 140 199
f 140 200 199
f 140 141 200
f 141 201 200
f 141 142 201
f 142 202 201
f 142 143 202
f 143 203 202
f 143 144 203
f 144 204 203
f 144 145 204
f 145 205 204
f 145 146 205
f 146 206 205
f 146 147 206
f 147 207 206
f 147 148 207
f 148 208 207
f 148 149 208
f 149 209 208
f 149 150 209
f 150 210 209
f 150 151 210
f 151 211 210
f 151 152 211
f 152 212 211
f 152 153 212
f 153 213 212
f 153 154 213
f 154 214 213
f 154 155 214
f 155 194 214
f 155 156 194
f 156 157 194
f 157 158 194
f 158 159 194
f 159 160 194
f 160 161 194
f 161 162 194
f 162 163 194
f 163 164 194
f 164 165 194
f 165 166 194
f 166 167 194
f 167 168 194
f 168 169 194
f 169 170 194
f 170 171 194
f 171 172 194
f 172 173 194
f 173 174 194
f 174 134 194
f 184 215 216
f 184 217 215
f 184 218 217
f 184 219 218
f 184 220 219
f 184 221 220
f 184 222 221
f 184 223 222
f 184 224 223
f 184 225 224
f 194 226 227
f 194 227 228
f 194 228 229
f 194 229 230
f 194 230 231
f 194 231 232
f 194 232 233
f 194 233 234
f 194 234 235
f 194 235 225
f 184 195 225
f 195 196 225
f 196 197 225
f 197 198 225
f 198 199 225
f 199 200 225
f 200 201 225
f 201 202 225
f 202 203 225
f 203 204 225
f 204 205 225
f 205 206 225
f 206 207 225
f 207 208 225
f 208 209 225
f 209 210 225
f 210 211 225
f 211 212 225
f 212 213 225
f 213 214 225
f 214 194 225
