v 1.050000 -1.142465 -5.617582
v 1.048446 -1.142271 -5.618602
v 1.050000 -1.091525 -5.617582
v 1.048445 -1.091321 -5.618602
v 1.046889 -1.142076 -5.619615
v 1.046888 -1.091118 -5.619615
v 1.045329 -1.141882 -5.620621
v 1.045327 -1.090915 -5.620623
v 1.043766 -1.141689 -5.621622
v 1.043763 -1.090712 -5.621624
v 1.042199 -1.141495 -5.622617
v 1.042196 -1.090509 -5.622619
v 1.040629 -1.141302 -5.623605
v 1.040626 -1.090307 -5.623607
v 1.039057 -1.141109 -5.624587
v 1.039052 -1.090105 -5.624590
v 1.037481 -1.140916 -5.625564
v 1.037476 -1.089903 -5.625567
v 1.035901 -1.140724 -5.626534
v 1.035896 -1.089702 -5.626537
v 1.034319 -1.140532 -5.627498
v 1.034313 -1.089501 -5.627501
v 1.032733 -1.140341 -5.628456
v 1.032727 -1.089300 -5.628459
v 1.031144 -1.140150 -5.629408
v 1.031137 -1.089100 -5.629411
v 1.029551 -1.139959 -5.630353
v 1.029544 -1.088901 -5.630357
v 1.027956 -1.139769 -5.631293
v 1.027948 -1.088701 -5.631298
v 1.026356 -1.139579 -5.632227
v 1.026349 -1.088502 -5.632231
v 1.024754 -1.139389 -5.633155
v 1.024746 -1.088304 -5.633159
v 1.023148 -1.139200 -5.634077
v 1.023140 -1.088106 -5.634081
v 1.021539 -1.139012 -5.634993
v 1.021530 -1.087909 -5.634997
v 1.019926 -1.138823 -5.635903
v 1.019918 -1.087712 -5.635907
v 1.018310 -1.138636 -5.636807
v 1.018301 -1.087515 -5.636812
v 1.016691 -1.138449 -5.637705
v 1.016682 -1.087319 -5.637710
v 1.015068 -1.138262 -5.638596
v 1.015059 -1.087124 -5.638602
v 1.013442 -1.138076 -5.639482
v 1.013433 -1.086929 -5.639487
v 1.011813 -1.137891 -5.640362
v 1.011804 -1.086735 -5.640367
v 1.010181 -1.137706 -5.641236
v 1.010172 -1.086541 -5.641241
v 1.008546 -1.137521 -5.642104
v 1.008536 -1.086348 -5.642109
v 1.006908 -1.137338 -5.642965
v 1.006898 -1.086156 -5.642970
v 1.005267 -1.137155 -5.643820
v 1.005257 -1.085964 -5.643825
v 1.003623 -1.136972 -5.644669
v 1.003613 -1.085773 -5.644674
v 1.001976 -1.136791 -5.645512
v 1.001967 -1.085583 -5.645517
v 1.000327 -1.136610 -5.646349
v 1.000318 -1.085393 -5.646353
v 0.998675 -1.136429 -5.647179
v 0.998666 -1.085205 -5.647184
v 0.997020 -1.136250 -5.648003
v 0.997011 -1.085017 -5.648007
v 0.995363 -1.136071 -5.648820
v 0.995354 -1.084830 -5.648825
v 0.993704 -1.135893 -5.649632
v 0.993695 -1.084643 -5.649636
v 0.992042 -1.135716 -5.650436
v 0.992033 -1.084458 -5.650441
v 0.990377 -1.135540 -5.651235
v 0.990369 -1.084273 -5.651239
v 0.988710 -1.135364 -5.652027
v 0.988702 -1.084089 -5.652030
v 0.987041 -1.135189 -5.652812
v 0.987033 -1.083906 -5.652816
v 0.985370 -1.135016 -5.653591
v 0.985362 -1.083725 -5.653595
v 0.983696 -1.134843 -5.654364
v 0.983689 -1.083543 -5.654367
v 0.982020 -1.134671 -5.655130
v 0.982013 -1.083363 -5.655133
v 0.980341 -1.134500 -5.655890
v 0.980334 -1.083184 -5.655893
v 0.978660 -1.134329 -5.656643
v 0.978654 -1.083006 -5.656646
v 0.976976 -1.134160 -5.657391
v 0.976970 -1.082829 -5.657393
v 0.975290 -1.133992 -5.658131
v 0.975285 -1.082652 -5.658134
v 0.973601 -1.133824 -5.658866
v 0.973597 -1.082477 -5.658868
v 0.971910 -1.133658 -5.659594
v 0.971906 -1.082303 -5.659596
v 0.970217 -1.133492 -5.660316
v 0.970213 -1.082129 -5.660318
v 0.968520 -1.133328 -5.661032
v 0.968517 -1.081957 -5.661033
v 0.966822 -1.133164 -5.661741
v 0.966819 -1.081786 -5.661742
v 0.965120 -1.133001 -5.662444
v 0.965118 -1.081615 -5.662445
v 0.963416 -1.132840 -5.663141
v 0.963415 -1.081446 -5.663141
v 0.961709 -1.132679 -5.663831
v 0.961709 -1.081278 -5.663832
v 0.960000 -1.132519 -5.664516
v 0.960000 -1.081111 -5.664516
f 1 2 3
f 2 4 3
f 2 5 4
f 5 6 4
f 5 7 6
f 7 8 6
f 7 9 8
f 9 10 8
f 9 11 10
f 11 12 10
f 11 13 12
f 13 14 12
f 13 15 14
f 15 16 14
f 15 17 16
f 17 18 16
f 17 19 18
f 19 20 18
f 19 21 20
f 21 22 20
f 21 23 22
f 23 24 22
f 23 25 24
f 25 26 24
f 25 27 26
f 27 28 26
f 27 29 28
f 29 30 28
f 29 31 30
f 31 32 30
f 31 33 32
f 33 34 32
f 33 35 34
f 35 36 34
f 35 37 36
f 37 38 36
f 37 39 38
f 39 40 38
f 39 41 40
f 41 42 40
f 41 43 42
f 43 44 42
f 43 45 44
f 45 46 44
f 45 47 46
f 47 48 46
f 47 49 48
f 49 50 48
f 49 51 50
f 51 52 50
f 51 53 52
f 53 54 52
f 53 55 54
f 55 56 54
f 55 57 56
f 57 58 56
f 57 59 58
f 59 60 58
f 59 61 60
f 61 62 60
f 61 63 62
f 63 64 62
f 63 65 64
f 65 66 64
f 65 67 66
f 67 68 66
f 67 69 68
f 69 70 68
f 69 71 70
f 71 72 70
f 71 73 72
f 73 74 72
f 73 75 74
f 75 76 74
f 75 77 76
f 77 78 76
f 77 79 78
f 79 80 78
f 79 81 80
f 81 82 80
f 81 83 82
f 83 84 82
f 83 85 84
f 85 86 84
f 85 87 86
f 87 88 86
f 87 89 88
f 89 90 88
f 89 91 90
f 91 92 90
f 91 93 92
f 93 94 92
f 93 95 94
f 95 96 94
f 95 97 96
f 97 98 96
f 97 99 98
f 99 100 98
f 99 101 100
f 101 102 100
f 101 103 102
f 103 104 102
f 103 105 104
f 105 106 104
f 105 107 106
f 107 108 106
f 107 109 108
f 109 110 108
f 109 111 110
f 111 112 110
