v -0.000000 1.302183 0.100000
v 0.000455 1.302182 0.100000
v 0.000909 1.302182 0.100000
v 0.001364 1.302182 0.100000
v 0.001818 1.302181 0.100000
v 0.002273 1.302181 0.100000
v 0.002727 1.302180 0.100000
v 0.003182 1.302179 0.100000
v 0.003637 1.302178 0.100000
v 0.004091 1.302176 0.100000
v 0.004546 1.302175 0.100000
v 0.005000 1.302173 0.100000
v 0.005455 1.302171 0.100000
v 0.005909 1.302169 0.100000
v 0.006364 1.302167 0.100000
v 0.006819 1.302165 0.100000
v 0.007273 1.302163 0.100000
v 0.007728 1.302160 0.100000
v 0.008182 1.302157 0.100000
v 0.008637 1.302154 0.100000
v 0.009091 1.302151 0.100000
v 0.009546 1.302148 0.100000
v 0.010001 1.302145 0.100000
v 0.010455 1.302141 0.100000
v 0.010910 1.302137 0.100000
v 0.011364 1.302134 0.100000
v 0.011819 1.302129 0.100000
v 0.012273 1.302125 0.100000
v 0.012728 1.302121 0.100000
v 0.013182 1.302116 0.100000
v 0.013637 1.302112 0.100000
v 0.014091 1.302107 0.100000
v 0.014546 1.302102 0.100000
v 0.015001 1.302097 0.100000
v 0.015455 1.302091 0.100000
v 0.015910 1.302086 0.100000
v 0.016364 1.302080 0.100000
v 0.016819 1.302074 0.100000
v 0.017273 1.302068 0.100000
v 0.017728 1.302062 0.100000
v 0.018182 1.302056 0.100000
v 0.018637 1.302050 0.100000
v 0.019091 1.302043 0.100000
v 0.019546 1.302036 0.100000
v 0.020000 1.302029 0.100000
v 0.020455 1.302022 0.100000
v 0.020909 1.302015 0.100000
v 0.021364 1.302008 0.100000
v 0.021818 1.302000 0.100000
v 0.022273 1.301993 0.100000
v 0.022727 1.301985 0.100000
v 0.023182 1.301977 0.100000
v 0.023636 1.301968 0.100000
v 0.024091 1.301960 0.100000
v 0.024545 1.301952 0.100000
v 0.025000 1.301943 0.100000
v 0.025000 1.325000 0.100000
v -0.375000 1.325000 0.100000
v -0.375000 1.302182 0.100000
v -0.368182 1.302182 0.100000
v -0.361364 1.302182 0.100000
v -0.354545 1.302182 0.100000
v -0.347727 1.302182 0.100000
v -0.340909 1.302182 0.100000
v -0.334091 1.302182 0.100000
v -0.327273 1.302182 0.100000
v -0.320455 1.302182 0.100000
v -0.313636 1.302182 0.100000
v -0.306818 1.302182 0.100000
v -0.300000 1.302182 0.100000
v -0.293182 1.302182 0.100000
v -0.286364 1.302182 0.100000
v -0.279545 1.302182 0.100000
v -0.272727 1.302182 0.100000
v -0.265909 1.302182 0.100000
v -0.259091 1.302182 0.100000
v -0.252273 1.302182 0.100000
v -0.245455 1.302182 0.100000
v -0.238636 1.302182 0.100000
v -0.231818 1.302182 0.100000
v -0.225000 1.302182 0.100000
v -0.218182 1.302182 0.100000
v -0.211364 1.302182 0.100000
v -0.204545 1.302182 0.100000
v -0.197727 1.302182 0.100000
v -0.190909 1.302182 0.100000
v -0.184091 1.302182 0.100000
v -0.177273 1.302182 0.100000
v -0.170455 1.302182 0.100000
v -0.163636 1.302182 0.100000
v -0.156818 1.302182 0.100000
v -0.150000 1.302182 0.100000
v -0.143182 1.302182 0.100000
v -0.136364 1.302182 0.100000
v -0.129545 1.302182 0.100000
v -0.122727 1.302182 0.100000
v -0.115909 1.302182 0.100000
v -0.109091 1.302182 0.100000
v -0.102273 1.302182 0.100000
v -0.095455 1.302182 0.100000
v -0.088636 1.302182 0.100000
v -0.081818 1.302182 0.100000
v -0.075000 1.302183 0.100000
v -0.068182 1.302183 0.100000
v -0.061364 1.302183 0.100000
v -0.054545 1.302183 0.100000
v -0.047727 1.302183 0.100000
v -0.040909 1.302183 0.100000
v -0.034091 1.302183 0.100000
v -0.027273 1.302183 0.100000
v -0.020455 1.302183 0.100000
v -0.013636 1.302183 0.100000
v -0.006818 1.302183 0.100000
f 59 58 60
f 60 58 61
f 61 58 62
f 62 58 63
f 63 58 64
f 64 58 65
f 65 58 66
f 66 58 67
f 67 58 68
f 68 58 69
f 69 58 70
f 70 58 71
f 71 58 72
f 72 58 73
f 73 58 74
f 74 58 75
f 75 58 76
f 76 58 77
f 77 58 78
f 78 58 79
f 79 58 80
f 80 58 81
f 81 58 82
f 82 58 83
f 83 58 84
f 84 58 85
f 85 58 86
f 86 58 87
f 87 58 88
f 88 58 89
f 89 58 90
f 90 58 91
f 91 58 92
f 92 58 93
f 93 58 94
f 94 58 95
f 95 58 96
f 96 58 97
f 97 58 98
f 98 58 99
f 99 58 100
f 100 58 101
f 101 58 102
f 102 58 103
f 103 58 104
f 104 58 105
f 105 58 106
f 106 58 107
f 107 58 108
f 108 58 109
f 109 58 110
f 110 58 111
f 111 58 112
f 112 58 113
f 113 58 1
f 1 58 2
f 2 58 3
f 3 58 4
f 4 58 5
f 5 58 6
f 6 58 7
f 7 58 8
f 8 58 9
f 9 58 10
f 10 58 11
f 11 58 12
f 12 58 13
f 13 58 14
f 14 58 15
f 15 58 16
f 16 58 17
f 17 58 18
f 18 58 19
f 19 58 20
f 20 58 21
f 21 58 22
f 22 58 23
f 23 58 24
f 24 58 25
f 25 58 26
f 26 58 27
f 27 58 28
f 28 58 29
f 29 58 30
f 30 58 31
f 31 58 32
f 32 58 33
f 33 58 34
f 34 58 35
f 35 58 36
f 36 58 37
f 37 58 38
f 38 58 39
f 39 58 40
f 40 58 41
f 41 58 42
f 42 58 43
f 43 58 44
f 44 58 45
f 45 58 46
f 46 58 47
f 47 58 48
f 48 58 49
f 49 58 50
f 50 58 51
f 51 58 52
f 52 58 53
f 53 58 54
f 54 58 55
f 55 58 57
f 55 57 56
