v -0.295426 0.010000 0.601351
v -0.293060 0.010000 0.602508
v -0.290690 0.010000 0.603655
v -0.288315 0.010000 0.604793
v -0.285936 0.010000 0.605921
v -0.283552 0.010000 0.607041
v -0.281164 0.010000 0.608150
v -0.278771 0.010000 0.609251
v -0.276375 0.010000 0.610342
v -0.273974 0.010000 0.611423
v -0.271568 0.010000 0.612495
v -0.295426 0.220000 0.601351
v -0.293060 0.220000 0.602508
v -0.290690 0.220000 0.603655
v -0.288315 0.220000 0.604793
v -0.285936 0.220000 0.605921
v -0.283552 0.220000 0.607041
v -0.281164 0.220000 0.608150
v -0.278771 0.220000 0.609251
v -0.276375 0.220000 0.610342
v -0.273974 0.220000 0.611423
v -0.271568 0.220000 0.612495
f 1 2 13
f 1 13 12
f 2 3 14
f 2 14 13
f 3 4 15
f 3 15 14
f 4 5 16
f 4 16 15
f 5 6 17
f 5 17 16
f 6 7 18
f 6 18 17
f 7 8 19
f 7 19 18
f 8 9 20
f 8 20 19
f 9 10 21
f 9 21 20
f 10 11 22
f 10 22 21
