v 2.173132 -0.559197 -5.788969
v 2.175652 -0.538994 -5.790290
v 2.174403 -0.549097 -5.789636
v 2.176877 -0.528887 -5.790933
v 2.178079 -0.518776 -5.791563
v 2.179258 -0.508662 -5.792181
v 2.180414 -0.498545 -5.792787
v 2.181546 -0.488424 -5.793380
v 2.182655 -0.478300 -5.793962
v 2.183741 -0.468173 -5.794532
v 2.184804 -0.458042 -5.795089
v 2.185843 -0.447908 -5.795634
v 2.186859 -0.437772 -5.796167
v 2.187852 -0.427632 -5.796688
v 2.188821 -0.417490 -5.797196
v 2.189768 -0.407344 -5.797693
v 2.190691 -0.397196 -5.798177
v 2.191590 -0.387045 -5.798649
v 2.192467 -0.376892 -5.799109
v 2.193320 -0.366736 -5.799557
v 2.194149 -0.356578 -5.799992
v 2.194956 -0.346417 -5.800415
v 2.195739 -0.336253 -5.800826
v 2.196499 -0.326088 -5.801225
v 2.197235 -0.315920 -5.801612
v 2.197948 -0.305750 -5.801986
v 2.198638 -0.295578 -5.802348
v 2.199304 -0.285404 -5.802698
v 2.199948 -0.275228 -5.803035
v 2.200567 -0.265050 -5.803361
v 2.201164 -0.254871 -5.803674
v 2.201737 -0.244690 -5.803975
v 2.202286 -0.234507 -5.804263
v 2.174094 -0.559470 -5.791481
v 2.174987 -0.559736 -5.794019
v 2.175813 -0.559995 -5.796580
v 2.176568 -0.560246 -5.799164
v 2.177254 -0.560490 -5.801768
v 2.177870 -0.560727 -5.804390
v 2.178415 -0.560955 -5.807028
v 2.178889 -0.561176 -5.809680
v 2.179291 -0.561389 -5.812345
v 2.179621 -0.561593 -5.815021
v 2.202032 -0.244726 -5.804747
v 2.201748 -0.254946 -5.805222
v 2.201435 -0.265168 -5.805687
v 2.201094 -0.275391 -5.806143
v 2.200722 -0.285614 -5.806591
v 2.200322 -0.295838 -5.807029
v 2.199893 -0.306063 -5.807457
v 2.199434 -0.316288 -5.807877
v 2.198946 -0.326514 -5.808287
v 2.198429 -0.336740 -5.808688
v 2.197883 -0.346966 -5.809079
v 2.197307 -0.357193 -5.809461
v 2.196702 -0.367419 -5.809833
v 2.196067 -0.377646 -5.810195
v 2.195404 -0.387872 -5.810548
v 2.194711 -0.398098 -5.810891
v 2.193988 -0.408324 -5.811225
v 2.193236 -0.418549 -5.811548
v 2.192455 -0.428773 -5.811862
v 2.191644 -0.438997 -5.812166
v 2.190804 -0.449220 -5.812460
v 2.189935 -0.459442 -5.812744
v 2.189036 -0.469664 -5.813017
v 2.188108 -0.479884 -5.813281
v 2.187150 -0.490103 -5.813535
v 2.186163 -0.500320 -5.813778
v 2.185146 -0.510536 -5.814011
v 2.184100 -0.520751 -5.814234
v 2.183024 -0.530964 -5.814446
v 2.181919 -0.541176 -5.814648
v 2.180785 -0.551385 -5.814840
v 2.203316 -0.214136 -5.804804
v 2.202813 -0.224322 -5.804540
v 2.203795 -0.203948 -5.805056
v 2.204251 -0.193760 -5.805295
v 2.204684 -0.183569 -5.805523
v 2.205093 -0.173378 -5.805738
v 2.205479 -0.163185 -5.805940
v 2.205842 -0.152992 -5.806131
v 2.206181 -0.142797 -5.806309
v 2.206497 -0.132601 -5.806475
v 2.206790 -0.122405 -5.806628
v 2.207059 -0.112207 -5.806770
v 2.207305 -0.102009 -5.806899
v 2.207527 -0.091810 -5.807016
v 2.207726 -0.081611 -5.807120
v 2.207901 -0.071411 -5.807212
v 2.208053 -0.061210 -5.807292
v 2.208182 -0.051009 -5.807360
v 2.208287 -0.040808 -5.807415
v 2.208369 -0.030606 -5.807458
v 2.208428 -0.020404 -5.807489
v 2.208463 -0.010202 -5.807507
v 2.208475 0.000000 -5.807513
v 2.210242 0.000000 -5.812505
v 2.211743 0.000000 -5.817584
v 2.212974 0.000000 -5.822735
v 2.213929 0.000000 -5.827944
v 2.214608 0.000000 -5.833196
v 2.215007 0.000000 -5.838477
v 2.215127 0.000000 -5.843772
v 2.214966 0.000000 -5.849065
v 2.214525 0.000000 -5.854343
v 2.213805 0.000000 -5.859589
v 2.179879 -0.561788 -5.817705
v 2.180065 -0.561975 -5.820396
v 2.180178 -0.562154 -5.823091
v 2.180219 -0.562323 -5.825789
v 2.180187 -0.562483 -5.828488
v 2.180083 -0.562635 -5.831185
v 2.179907 -0.562777 -5.833879
v 2.179658 -0.562909 -5.836568
v 2.179337 -0.563033 -5.839250
v 2.178944 -0.563146 -5.841922
v 2.213795 -0.010271 -5.859573
v 2.213762 -0.020543 -5.859545
v 2.213706 -0.030814 -5.859506
v 2.213627 -0.041085 -5.859455
v 2.213525 -0.051355 -5.859393
v 2.213399 -0.061626 -5.859320
v 2.213250 -0.071896 -5.859236
v 2.213079 -0.082165 -5.859140
v 2.212884 -0.092434 -5.859033
v 2.212666 -0.102702 -5.858915
v 2.212424 -0.112970 -5.858785
v 2.212160 -0.123237 -5.858645
v 2.211872 -0.133503 -5.858492
v 2.211562 -0.143768 -5.858329
v 2.211228 -0.154033 -5.858154
v 2.210871 -0.164296 -5.857968
v 2.210491 -0.174559 -5.857771
v 2.210088 -0.184820 -5.857562
v 2.209662 -0.195080 -5.857342
v 2.209212 -0.205339 -5.857111
v 2.208740 -0.215597 -5.856869
v 2.208244 -0.225853 -5.856615
v 2.207725 -0.236108 -5.856350
v 2.207183 -0.246362 -5.856073
v 2.206618 -0.256614 -5.855786
v 2.206030 -0.266864 -5.855487
v 2.205419 -0.277113 -5.855177
v 2.204785 -0.287360 -5.854855
v 2.204127 -0.297605 -5.854523
v 2.203447 -0.307848 -5.854179
v 2.202743 -0.318090 -5.853823
v 2.202016 -0.328329 -5.853457
v 2.201267 -0.338567 -5.853079
v 2.200494 -0.348802 -5.852690
v 2.199698 -0.359035 -5.852290
v 2.198879 -0.369266 -5.851878
v 2.198037 -0.379495 -5.851455
v 2.197172 -0.389721 -5.851021
v 2.196284 -0.399945 -5.850576
v 2.195373 -0.410166 -5.850119
v 2.194438 -0.420385 -5.849651
v 2.193481 -0.430601 -5.849172
v 2.192501 -0.440815 -5.848682
v 2.191498 -0.451025 -5.848180
v 2.190471 -0.461233 -5.847667
v 2.189422 -0.471439 -5.847143
v 2.188350 -0.481641 -5.846608
v 2.187254 -0.491840 -5.846062
v 2.186136 -0.502036 -5.845504
v 2.184995 -0.512229 -5.844935
v 2.183831 -0.522419 -5.844355
v 2.182643 -0.532606 -5.843764
v 2.181433 -0.542790 -5.843161
v 2.180200 -0.552970 -5.842547
v 2.211538 0.000000 -5.869932
v 2.212808 0.000000 -5.864791
v 2.209997 0.000000 -5.874999
v 2.208190 0.000000 -5.879977
v 2.206122 0.000000 -5.884852
v 2.203799 0.000000 -5.889611
v 2.201227 0.000000 -5.894241
v 2.198414 0.000000 -5.898727
v 2.195367 0.000000 -5.903059
v 2.192095 0.000000 -5.907223
v 2.178479 -0.563251 -5.844584
v 2.177943 -0.563345 -5.847232
v 2.177337 -0.563430 -5.849865
v 2.176660 -0.563504 -5.852482
v 2.175913 -0.563569 -5.855079
v 2.175096 -0.563625 -5.857656
v 2.174211 -0.563670 -5.860210
v 2.173258 -0.563705 -5.862740
v 2.172237 -0.563730 -5.865243
v 2.171150 -0.563745 -5.867718
v 2.169996 -0.563750 -5.870164
v 2.168778 -0.563745 -5.872577
v 2.167495 -0.563730 -5.874957
v 2.166149 -0.563705 -5.877302
v 2.164741 -0.563670 -5.879609
v 2.163272 -0.563625 -5.881878
v 2.161743 -0.563569 -5.884107
v 2.160154 -0.563504 -5.886294
v 2.158508 -0.563430 -5.888437
v 2.156805 -0.563345 -5.890535
v 2.155046 -0.563251 -5.892587
v 2.192046 -0.010275 -5.907262
v 2.191974 -0.020550 -5.907290
v 2.191879 -0.030824 -5.907307
v 2.191760 -0.041098 -5.907312
v 2.191619 -0.051372 -5.907306
v 2.191454 -0.061646 -5.907288
v 2.191266 -0.071919 -5.907259
v 2.191055 -0.082191 -5.907219
v 2.190821 -0.092463 -5.907168
v 2.190564 -0.102734 -5.907105
v 2.190283 -0.113005 -5.907031
v 2.189980 -0.123275 -5.906945
v 2.189653 -0.133544 -5.906849
v 2.189303 -0.143812 -5.906741
v 2.188930 -0.154079 -5.906621
v 2.188533 -0.164345 -5.906491
v 2.188114 -0.174610 -5.906349
v 2.187671 -0.184874 -5.906195
v 2.187205 -0.195136 -5.906031
v 2.186716 -0.205398 -5.905855
v 2.186204 -0.215658 -5.905668
v 2.185669 -0.225916 -5.905469
v 2.185110 -0.236174 -5.905259
v 2.184529 -0.246429 -5.905038
v 2.183924 -0.256683 -5.904806
v 2.183296 -0.266936 -5.904562
v 2.182645 -0.277187 -5.904307
v 2.181971 -0.287435 -5.904040
v 2.181274 -0.297683 -5.903763
v 2.180553 -0.307928 -5.903474
v 2.179810 -0.318171 -5.903174
v 2.179043 -0.328412 -5.902862
v 2.178254 -0.338651 -5.902539
v 2.177441 -0.348888 -5.902205
v 2.176605 -0.359123 -5.901860
v 2.175746 -0.369355 -5.901503
v 2.174864 -0.379585 -5.901135
v 2.173959 -0.389813 -5.900756
v 2.173031 -0.400038 -5.900365
v 2.172079 -0.410260 -5.899964
v 2.171105 -0.420480 -5.899551
v 2.170108 -0.430697 -5.899126
v 2.169087 -0.440912 -5.898691
v 2.168044 -0.451124 -5.898244
v 2.166977 -0.461332 -5.897786
v 2.165888 -0.471538 -5.897316
v 2.164775 -0.481741 -5.896836
v 2.163640 -0.491941 -5.896344
v 2.162481 -0.502138 -5.895841
v 2.161299 -0.512332 -5.895327
v 2.160095 -0.522522 -5.894801
v 2.158867 -0.532709 -5.894264
v 2.157616 -0.542893 -5.893716
v 2.156343 -0.553074 -5.893157
v 2.184913 0.000000 -5.915003
v 2.188607 0.000000 -5.911208
v 2.181023 0.000000 -5.918597
v 2.176949 0.000000 -5.921980
v 2.172701 0.000000 -5.925143
v 2.168292 0.000000 -5.928076
v 2.163733 0.000000 -5.930772
v 2.159038 0.000000 -5.933222
v 2.154220 0.000000 -5.935421
v 2.149293 0.000000 -5.937362
v 2.144270 0.000000 -5.939038
v 2.144257 -0.010202 -5.939033
v 2.144221 -0.020404 -5.939017
v 2.144161 -0.030606 -5.938989
v 2.144077 -0.040808 -5.938951
v 2.143968 -0.051009 -5.938902
v 2.143836 -0.061210 -5.938842
v 2.143679 -0.071411 -5.938772
v 2.143499 -0.081611 -5.938690
v 2.143294 -0.091810 -5.938597
v 2.143065 -0.102009 -5.938494
v 2.142812 -0.112207 -5.938380
v 2.142535 -0.122405 -5.938254
v 2.142234 -0.132601 -5.938118
v 2.141909 -0.142797 -5.937971
v 2.141560 -0.152992 -5.937813
v 2.141187 -0.163185 -5.937645
v 2.140790 -0.173378 -5.937465
v 2.140368 -0.183569 -5.937274
v 2.139923 -0.193760 -5.937073
v 2.139453 -0.203948 -5.936861
v 2.138960 -0.214136 -5.936638
v 2.138442 -0.224322 -5.936403
v 2.153234 -0.563146 -5.894590
v 2.151368 -0.563033 -5.896543
v 2.149451 -0.562909 -5.898446
v 2.147485 -0.562777 -5.900296
v 2.145469 -0.562635 -5.902093
v 2.143406 -0.562483 -5.903834
v 2.141298 -0.562323 -5.905519
v 2.139146 -0.562154 -5.907146
v 2.136951 -0.561975 -5.908715
v 2.134715 -0.561788 -5.910223
v 2.138744 -0.234544 -5.935899
v 2.139021 -0.244767 -5.935377
v 2.139272 -0.254991 -5.934837
v 2.139498 -0.265217 -5.934278
v 2.139698 -0.275444 -5.933701
v 2.139873 -0.285671 -5.933105
v 2.140022 -0.295900 -5.932492
v 2.140146 -0.306129 -5.931860
v 2.140243 -0.316359 -5.931210
v 2.140315 -0.326590 -5.930542
v 2.140362 -0.336821 -5.929856
v 2.140382 -0.347052 -5.929151
v 2.140376 -0.357283 -5.928429
v 2.140344 -0.367515 -5.927689
v 2.140286 -0.377746 -5.926930
v 2.140202 -0.387978 -5.926154
v 2.140092 -0.398209 -5.925359
v 2.139955 -0.408440 -5.924547
v 2.139792 -0.418670 -5.923716
v 2.139603 -0.428900 -5.922868
v 2.139387 -0.439129 -5.922002
v 2.139145 -0.449358 -5.921117
v 2.138876 -0.459585 -5.920216
v 2.138580 -0.469812 -5.919296
v 2.138258 -0.480038 -5.918358
v 2.137909 -0.490262 -5.917403
v 2.137534 -0.500485 -5.916430
v 2.137131 -0.510706 -5.915440
v 2.136702 -0.520926 -5.914432
v 2.136246 -0.531145 -5.913406
v 2.135763 -0.541361 -5.912363
v 2.135253 -0.551576 -5.911302
v 2.137335 -0.244690 -5.935903
v 2.137901 -0.234507 -5.936158
v 2.136745 -0.254871 -5.935636
v 2.136132 -0.265050 -5.935358
v 2.135494 -0.275228 -5.935070
v 2.134832 -0.285404 -5.934770
v 2.134146 -0.295578 -5.934460
v 2.133437 -0.305750 -5.934139
v 2.132703 -0.315920 -5.933807
v 2.131945 -0.326088 -5.933464
v 2.131163 -0.336253 -5.933111
v 2.130357 -0.346417 -5.932746
v 2.129528 -0.356578 -5.932370
v 2.128674 -0.366736 -5.931984
v 2.127796 -0.376892 -5.931587
v 2.126895 -0.387045 -5.931179
v 2.125969 -0.397196 -5.930760
v 2.125020 -0.407344 -5.930330
v 2.124046 -0.417490 -5.929889
v 2.123049 -0.427632 -5.929438
v 2.122027 -0.437772 -5.928975
v 2.120982 -0.447908 -5.928502
v 2.119913 -0.458042 -5.928018
v 2.118820 -0.468173 -5.927523
v 2.117703 -0.478300 -5.927017
v 2.116562 -0.488424 -5.926500
v 2.115398 -0.498545 -5.925973
v 2.114209 -0.508662 -5.925434
v 2.112997 -0.518776 -5.924885
v 2.111760 -0.528887 -5.924325
v 2.110500 -0.538994 -5.923754
v 2.109216 -0.549097 -5.923172
v 2.107909 -0.559197 -5.922580
v 2.132440 -0.561593 -5.911671
v 2.130128 -0.561389 -5.913056
v 2.127779 -0.561176 -5.914379
v 2.125396 -0.560955 -5.915637
v 2.122981 -0.560727 -5.916830
v 2.120535 -0.560490 -5.917958
v 2.118060 -0.560246 -5.919018
v 2.115559 -0.559995 -5.920012
v 2.113031 -0.559736 -5.920937
v 2.110481 -0.559470 -5.921793
f 1 2 3
f 1 4 2
f 1 5 4
f 1 6 5
f 1 7 6
f 1 8 7
f 1 9 8
f 1 10 9
f 1 11 10
f 1 12 11
f 1 13 12
f 1 14 13
f 1 15 14
f 1 16 15
f 1 17 16
f 1 18 17
f 1 19 18
f 1 20 19
f 1 21 20
f 1 22 21
f 1 23 22
f 1 24 23
f 1 25 24
f 1 26 25
f 1 27 26
f 1 28 27
f 1 29 28
f 1 30 29
f 1 31 30
f 1 32 31
f 1 33 32
f 1 34 35
f 1 35 36
f 1 36 37
f 1 37 38
f 1 38 39
f 1 39 40
f 1 40 41
f 1 41 42
f 1 42 43
f 1 44 33
f 1 45 44
f 1 46 45
f 1 47 46
f 1 48 47
f 1 49 48
f 1 50 49
f 1 51 50
f 1 52 51
f 1 53 52
f 1 54 53
f 1 55 54
f 1 56 55
f 1 57 56
f 1 58 57
f 1 59 58
f 1 60 59
f 1 61 60
f 1 62 61
f 1 63 62
f 1 64 63
f 1 65 64
f 1 66 65
f 1 67 66
f 1 68 67
f 1 69 68
f 1 70 69
f 1 71 70
f 1 72 71
f 1 73 72
f 1 74 73
f 1 43 74
f 33 75 76
f 33 77 75
f 33 78 77
f 33 79 78
f 33 80 79
f 33 81 80
f 33 82 81
f 33 83 82
f 33 84 83
f 33 85 84
f 33 86 85
f 33 87 86
f 33 88 87
f 33 89 88
f 33 90 89
f 33 91 90
f 33 92 91
f 33 93 92
f 33 94 93
f 33 95 94
f 33 96 95
f 33 97 96
f 33 98 97
f 33 99 98
f 33 100 99
f 33 101 100
f 33 102 101
f 33 103 102
f 33 104 103
f 33 105 104
f 33 106 105
f 33 107 106
f 43 108 109
f 43 109 110
f 43 110 111
f 43 111 112
f 43 112 113
f 43 113 114
f 43 114 115
f 43 115 116
f 43 116 117
f 33 118 107
f 33 119 118
f 33 120 119
f 33 121 120
f 33 122 121
f 33 123 122
f 33 124 123
f 33 125 124
f 33 126 125
f 33 127 126
f 33 128 127
f 33 129 128
f 33 130 129
f 33 131 130
f 33 132 131
f 33 133 132
f 33 134 133
f 33 135 134
f 33 136 135
f 33 137 136
f 33 138 137
f 33 139 138
f 33 140 139
f 33 44 140
f 44 141 140
f 44 45 141
f 45 142 141
f 45 46 142
f 46 143 142
f 46 47 143
f 47 144 143
f 47 48 144
f 48 145 144
f 48 49 145
f 49 146 145
f 49 50 146
f 50 147 146
f 50 51 147
f 51 148 147
f 51 52 148
f 52 149 148
f 52 53 149
f 53 150 149
f 53 54 150
f 54 151 150
f 54 55 151
f 55 152 151
f 55 56 152
f 56 153 152
f 56 57 153
f 57 154 153
f 57 58 154
f 58 155 154
f 58 59 155
f 59 156 155
f 59 60 156
f 60 157 156
f 60 61 157
f 61 158 157
f 61 62 158
f 62 159 158
f 62 63 159
f 63 160 159
f 63 64 160
f 64 161 160
f 64 65 161
f 65 162 161
f 65 66 162
f 66 163 162
f 66 67 163
f 67 164 163
f 67 68 164
f 68 165 164
f 68 69 165
f 69 166 165
f 69 70 166
f 70 167 166
f 70 71 167
f 71 168 167
f 71 72 168
f 72 169 168
f 72 73 169
f 73 170 169
f 73 74 170
f 74 171 170
f 74 43 171
f 43 117 171
f 107 172 173
f 107 174 172
f 107 175 174
f 107 176 175
f 107 177 176
f 107 178 177
f 107 179 178
f 107 180 179
f 107 181 180
f 117 182 183
f 117 183 184
f 117 184 185
f 117 185 186
f 117 186 187
f 117 187 188
f 117 188 189
f 117 189 190
f 117 190 191
f 117 191 192
f 117 192 193
f 117 193 194
f 117 194 195
f 117 195 196
f 117 196 197
f 117 197 198
f 117 198 199
f 117 199 200
f 117 200 201
f 117 201 202
f 107 118 181
f 118 203 181
f 118 119 203
f 119 204 203
f 119 120 204
f 120 205 204
f 120 121 205
f 121 206 205
f 121 122 206
f 122 207 206
f 122 123 207
f 123 208 207
f 123 124 208
f 124 209 208
f 124 125 209
f 125 210 209
f 125 126 210
f 126 211 210
f 126 127 211
f 127 212 211
f 127 128 212
f 128 213 212
f 128 129 213
f 129 214 213
f 129 130 214
f 130 215 214
f 130 131 215
f 131 216 215
f 131 132 216
f 132 217 216
f 132 133 217
f 133 218 217
f 133 134 218
f 134 219 218
f 134 135 219
f 135 220 219
f 135 136 220
f 136 221 220
f 136 137 221
f 137 222 221
f 137 138 222
f 138 223 222
f 138 139 223
f 139 224 223
f 139 140 224
f 140 225 224
f 140 141 225
f 141 226 225
f 141 142 226
f 142 227 226
f 142 143 227
f 143 228 227
f 143 144 228
f 144 229 228
f 144 145 229
f 145 230 229
f 145 146 230
f 146 231 230
f 146 147 231
f 147 232 231
f 147 148 232
f 148 233 232
f 148 149 233
f 149 234 233
f 149 150 234
f 150 235 234
f 150 151 235
f 151 236 235
f 151 152 236
f 152 237 236
f 152 153 237
f 153 238 237
f 153 154 238
f 154 239 238
f 154 155 239
f 155 240 239
f 155 156 240
f 156 241 240
f 156 157 241
f 157 242 241
f 157 158 242
f 158 243 242
f 158 159 243
f 159 244 243
f 159 160 244
f 160 245 244
f 160 161 245
f 161 246 245
f 161 162 246
f 162 247 246
f 162 163 247
f 163 248 247
f 163 164 248
f 164 249 248
f 164 165 249
f 165 250 249
f 165 166 250
f 166 251 250
f 166 167 251
f 167 252 251
f 167 168 252
f 168 253 252
f 168 169 253
f 169 254 253
f 169 170 254
f 170 255 254
f 170 171 255
f 171 256 255
f 171 117 256
f 117 202 256
f 181 257 258
f 181 259 257
f 181 260 259
f 181 261 260
f 181 262 261
f 181 263 262
f 181 264 263
f 181 265 264
f 181 266 265
f 181 267 266
f 181 268 267
f 181 269 268
f 181 270 269
f 181 271 270
f 181 272 271
f 181 273 272
f 181 274 273
f 181 275 274
f 181 276 275
f 181 277 276
f 181 278 277
f 181 279 278
f 181 280 279
f 181 281 280
f 181 282 281
f 181 283 282
f 181 284 283
f 181 285 284
f 181 286 285
f 181 287 286
f 181 288 287
f 181 289 288
f 202 290 291
f 202 291 292
f 202 292 293
f 202 293 294
f 202 294 295
f 202 295 296
f 202 296 297
f 202 297 298
f 202 298 299
f 181 203 289
f 203 204 289
f 204 205 289
f 205 206 289
f 206 207 289
f 207 208 289
f 208 209 289
f 209 210 289
f 210 211 289
f 211 212 289
f 212 213 289
f 213 214 289
f 214 215 289
f 215 216 289
f 216 217 289
f 217 218 289
f 218 219 289
f 219 220 289
f 220 221 289
f 221 222 289
f 222 223 289
f 223 224 289
f 224 225 289
f 225 300 289
f 225 226 300
f 226 301 300
f 226 227 301
f 227 302 301
f 227 228 302
f 228 303 302
f 228 229 303
f 229 304 303
f 229 230 304
f 230 305 304
f 230 231 305
f 231 306 305
f 231 232 306
f 232 307 306
f 232 233 307
f 233 308 307
f 233 234 308
f 234 309 308
f 234 235 309
f 235 310 309
f 235 236 310
f 236 311 310
f 236 237 311
f 237 312 311
f 237 238 312
f 238 313 312
f 238 239 313
f 239 314 313
f 239 240 314
f 240 315 314
f 240 241 315
f 241 316 315
f 241 242 316
f 242 317 316
f 242 243 317
f 243 318 317
f 243 244 318
f 244 319 318
f 244 245 319
f 245 320 319
f 245 246 320
f 246 321 320
f 246 247 321
f 247 322 321
f 247 248 322
f 248 323 322
f 248 249 323
f 249 324 323
f 249 250 324
f 250 325 324
f 250 251 325
f 251 326 325
f 251 252 326
f 252 327 326
f 252 253 327
f 253 328 327
f 253 254 328
f 254 329 328
f 254 255 329
f 255 330 329
f 255 256 330
f 256 331 330
f 256 202 331
f 202 299 331
f 289 332 333
f 289 334 332
f 289 335 334
f 289 336 335
f 289 337 336
f 289 338 337
f 289 339 338
f 289 340 339
f 289 341 340
f 289 342 341
f 289 343 342
f 289 344 343
f 289 345 344
f 289 346 345
f 289 347 346
f 289 348 347
f 289 349 348
f 289 350 349
f 289 351 350
f 289 352 351
f 289 353 352
f 289 354 353
f 289 355 354
f 289 356 355
f 289 357 356
f 289 358 357
f 289 359 358
f 289 360 359
f 289 361 360
f 289 362 361
f 289 363 362
f 289 364 363
f 299 365 366
f 299 366 367
f 299 367 368
f 299 368 369
f 299 369 370
f 299 370 371
f 299 371 372
f 299 372 373
f 299 373 374
f 299 374 364
f 289 300 364
f 300 301 364
f 301 302 364
f 302 303 364
f 303 304 364
f 304 305 364
f 305 306 364
f 306 307 364
f 307 308 364
f 308 309 364
f 309 310 364
f 310 311 364
f 311 312 364
f 312 313 364
f 313 314 364
f 314 315 364
f 315 316 364
f 316 317 364
f 317 318 364
f 318 319 364
f 319 320 364
f 320 321 364
f 321 322 364
f 322 323 364
f 323 324 364
f 324 325 364
f 325 326 364
f 326 327 364
f 327 328 364
f 328 329 364
f 329 330 364
f 330 331 364
f 331 299 364
