v 0.071935 0.010000 -0.666127
v 0.069317 0.010000 -0.666405
v 0.066697 0.010000 -0.666672
v 0.064076 0.010000 -0.666929
v 0.061454 0.010000 -0.667176
v 0.058832 0.010000 -0.667412
v 0.056208 0.010000 -0.667638
v 0.053583 0.010000 -0.667854
v 0.050958 0.010000 -0.668059
v 0.048332 0.010000 -0.668254
v 0.045705 0.010000 -0.668439
v 0.071935 0.220000 -0.666127
v 0.069317 0.220000 -0.666405
v 0.066697 0.220000 -0.666672
v 0.064076 0.220000 -0.666929
v 0.061454 0.220000 -0.667176
v 0.058832 0.220000 -0.667412
v 0.056208 0.220000 -0.667638
v 0.053583 0.220000 -0.667854
v 0.050958 0.220000 -0.668059
v 0.048332 0.220000 -0.668254
v 0.045705 0.220000 -0.668439
f 1 2 13
f 1 13 12
f 2 3 14
f 2 14 13
f 3 4 15
f 3 15 14
f 4 5 16
f 4 16 15
f 5 6 17
f 5 17 16
f 6 7 18
f 6 18 17
f 7 8 19
f 7 19 18
f 8 9 20
f 8 20 19
f 9 10 21
f 9 21 20
f 10 11 22
f 10 22 21
