v -0.423625 0.256060 -1.051000
v -0.422879 0.257291 -1.051103
v -0.422145 0.258492 -1.051408
v -0.421440 0.259641 -1.051909
v -0.420778 0.260713 -1.052596
v -0.420171 0.261689 -1.053453
v -0.419635 0.262548 -1.054463
v -0.419180 0.263274 -1.055605
v -0.418815 0.263854 -1.056856
v -0.418549 0.264276 -1.058190
v -0.418387 0.264532 -1.059581
v -0.418333 0.264618 -1.061000
v -0.477388 0.298235 -1.051000
v -0.476506 0.299360 -1.051103
v -0.475643 0.300459 -1.051408
v -0.474817 0.301513 -1.051909
v -0.474043 0.302499 -1.052595
v -0.473339 0.303397 -1.053452
v -0.472717 0.304189 -1.054462
v -0.472191 0.304860 -1.055605
v -0.471771 0.305396 -1.056856
v -0.471464 0.305786 -1.058190
v -0.471278 0.306024 -1.059581
v -0.471216 0.306103 -1.061000
v -0.531150 0.340410 -1.051000
v -0.530269 0.341535 -1.051103
v -0.529406 0.342634 -1.051408
v -0.528579 0.343688 -1.051909
v -0.527806 0.344674 -1.052595
v -0.527101 0.345572 -1.053452
v -0.526480 0.346364 -1.054462
v -0.525954 0.347035 -1.055605
v -0.525533 0.347571 -1.056856
v -0.525227 0.347961 -1.058190
v -0.525041 0.348199 -1.059581
v -0.524978 0.348278 -1.061000
f 1 14 2
f 1 13 14
f 2 15 3
f 2 14 15
f 3 16 4
f 3 15 16
f 4 17 5
f 4 16 17
f 5 18 6
f 5 17 18
f 6 19 7
f 6 18 19
f 7 20 8
f 7 19 20
f 8 21 9
f 8 20 21
f 9 22 10
f 9 21 22
f 10 23 11
f 10 22 23
f 11 24 12
f 11 23 24
f 13 26 14
f 13 25 26
f 14 27 15
f 14 26 27
f 15 28 16
f 15 27 28
f 16 29 17
f 16 28 29
f 17 30 18
f 17 29 30
f 18 31 19
f 18 30 31
f 19 32 20
f 19 31 32
f 20 33 21
f 20 32 33
f 21 34 22
f 21 33 34
f 22 35 23
f 22 34 35
f 23 36 24
f 23 35 36
