v 0.348278 -0.524978 -1.061000
v 0.348278 -0.524978 -1.084841
v 0.346751 -0.523032 -1.085500
v 0.345225 -0.521086 -1.086158
v 0.343698 -0.519140 -1.086816
v 0.342172 -0.517194 -1.087474
v 0.340646 -0.515249 -1.088132
v 0.339120 -0.513304 -1.088790
v 0.337594 -0.511359 -1.089448
v 0.336069 -0.509414 -1.090105
v 0.334544 -0.507470 -1.090763
v 0.333019 -0.505526 -1.091420
v 0.331494 -0.503582 -1.092078
v 0.329969 -0.501639 -1.092735
v 0.328445 -0.499696 -1.093392
v 0.326921 -0.497753 -1.094049
v 0.325397 -0.495810 -1.094706
v 0.323873 -0.493868 -1.095363
v 0.322350 -0.491925 -1.096019
v 0.320826 -0.489984 -1.096676
v 0.319303 -0.488042 -1.097332
v 0.317780 -0.486101 -1.097989
v 0.316258 -0.484160 -1.098645
v 0.314735 -0.482219 -1.099301
v 0.313213 -0.480278 -1.099957
v 0.311691 -0.478338 -1.100613
v 0.310169 -0.476398 -1.101269
v 0.308647 -0.474459 -1.101925
v 0.307126 -0.472519 -1.102581
v 0.305605 -0.470580 -1.103236
v 0.304084 -0.468641 -1.103892
v 0.302563 -0.466703 -1.104547
v 0.301043 -0.464765 -1.105202
v 0.299522 -0.462827 -1.105857
v 0.298002 -0.460889 -1.106512
v 0.296483 -0.458951 -1.107167
v 0.294963 -0.457014 -1.107822
v 0.293444 -0.455078 -1.108477
v 0.291924 -0.453141 -1.109131
v 0.290406 -0.451205 -1.109786
v 0.288887 -0.449269 -1.110440
v 0.287368 -0.447333 -1.111094
v 0.285850 -0.445398 -1.111748
v 0.284332 -0.443463 -1.112402
v 0.282814 -0.441528 -1.113056
v 0.281297 -0.439593 -1.113710
v 0.279779 -0.437659 -1.114363
v 0.278262 -0.435725 -1.115017
v 0.276745 -0.433792 -1.115670
v 0.275229 -0.431858 -1.116324
v 0.273712 -0.429925 -1.116977
v 0.272196 -0.427992 -1.117630
v 0.270680 -0.426060 -1.118283
v 0.269164 -0.424128 -1.118935
v 0.267649 -0.422196 -1.119588
v 0.266134 -0.420264 -1.120241
v 0.264618 -0.418333 -1.120893
v 0.264618 -0.418333 -1.061000
v 0.256060 -0.423625 -1.051000
v 0.339869 -0.530461 -1.051000
f 60 2 1
f 60 3 2
f 60 4 3
f 60 5 4
f 60 6 5
f 60 7 6
f 60 8 7
f 60 9 8
f 60 10 9
f 60 11 10
f 60 12 11
f 60 13 12
f 60 14 13
f 60 15 14
f 60 16 15
f 60 17 16
f 60 18 17
f 60 19 18
f 60 20 19
f 60 21 20
f 60 22 21
f 60 23 22
f 60 24 23
f 60 25 24
f 60 26 25
f 60 27 26
f 60 28 27
f 60 29 28
f 60 30 29
f 60 31 30
f 60 32 31
f 60 33 32
f 60 34 33
f 60 35 34
f 60 36 35
f 60 37 36
f 60 38 37
f 60 39 38
f 60 40 39
f 60 41 40
f 60 42 41
f 60 43 42
f 60 44 43
f 60 45 44
f 60 46 45
f 60 47 46
f 60 48 47
f 60 49 48
f 60 50 49
f 60 51 50
f 60 52 51
f 60 53 52
f 60 54 53
f 60 55 54
f 60 56 55
f 60 57 56
f 60 58 57
f 58 60 59
