v -0.080619 0.624820 -1.051000
v -0.082481 0.624577 -1.051000
v -0.084343 0.624329 -1.051000
v -0.086204 0.624074 -1.051000
v -0.088065 0.623815 -1.051000
v -0.089924 0.623549 -1.051000
v -0.091783 0.623278 -1.051000
v -0.093641 0.623002 -1.051000
v -0.095498 0.622720 -1.051000
v -0.097354 0.622432 -1.051000
v -0.099210 0.622139 -1.051000
v -0.101064 0.621841 -1.051000
v -0.102918 0.621537 -1.051000
v -0.104771 0.621227 -1.051000
v -0.106622 0.620912 -1.051000
v -0.108473 0.620591 -1.051000
v -0.110323 0.620265 -1.051000
v -0.112172 0.619933 -1.051000
v -0.114020 0.619596 -1.051000
v -0.115867 0.619253 -1.051000
v -0.117713 0.618905 -1.051000
v -0.119558 0.618552 -1.051000
v -0.121401 0.618192 -1.051000
v -0.123244 0.617828 -1.051000
v -0.125086 0.617457 -1.051000
v -0.126926 0.617082 -1.051000
v -0.128765 0.616700 -1.051000
v -0.130604 0.616314 -1.051000
v -0.132441 0.615922 -1.051000
v -0.134276 0.615524 -1.051000
v -0.136111 0.615121 -1.051000
v -0.137944 0.614712 -1.051000
v -0.095730 0.485655 -1.051000
v -0.095100 0.485779 -1.051000
v -0.094471 0.485902 -1.051000
v -0.093841 0.486024 -1.051000
v -0.093211 0.486145 -1.051000
v -0.092581 0.486265 -1.051000
v -0.091951 0.486385 -1.051000
v -0.091320 0.486503 -1.051000
v -0.090690 0.486621 -1.051000
v -0.090059 0.486739 -1.051000
v -0.089428 0.486855 -1.051000
v -0.088797 0.486970 -1.051000
v -0.088166 0.487085 -1.051000
v -0.087535 0.487199 -1.051000
v -0.086903 0.487312 -1.051000
v -0.086272 0.487424 -1.051000
v -0.085640 0.487535 -1.051000
v -0.085008 0.487646 -1.051000
v -0.084376 0.487756 -1.051000
v -0.083744 0.487865 -1.051000
v -0.083112 0.487973 -1.051000
v -0.082479 0.488080 -1.051000
v -0.081847 0.488187 -1.051000
v -0.081214 0.488292 -1.051000
v -0.080581 0.488397 -1.051000
v -0.079948 0.488501 -1.051000
v -0.079315 0.488604 -1.051000
v -0.078682 0.488707 -1.051000
v -0.078048 0.488808 -1.051000
v -0.077415 0.488909 -1.051000
v -0.076781 0.489009 -1.051000
v -0.076147 0.489108 -1.051000
v -0.066190 0.490555 -1.061000
v -0.070653 0.626026 -1.061000
f 66 1 2
f 66 2 3
f 66 3 4
f 66 4 5
f 66 5 6
f 66 6 7
f 66 7 8
f 66 8 9
f 66 9 10
f 66 10 11
f 66 11 12
f 66 12 13
f 66 13 14
f 66 14 15
f 66 15 16
f 66 16 17
f 66 17 18
f 66 18 19
f 66 19 20
f 66 20 21
f 66 21 22
f 66 22 23
f 66 23 24
f 66 24 25
f 66 25 26
f 66 26 27
f 66 27 28
f 66 28 29
f 66 29 30
f 66 30 31
f 66 31 32
f 66 32 33
f 66 33 34
f 66 34 35
f 66 35 36
f 66 36 37
f 66 37 38
f 66 38 39
f 66 39 40
f 66 40 41
f 66 41 42
f 66 42 43
f 66 43 44
f 66 44 45
f 66 45 46
f 66 46 47
f 66 47 48
f 66 48 49
f 66 49 50
f 66 50 51
f 66 51 52
f 66 52 53
f 66 53 54
f 66 54 55
f 66 55 56
f 66 56 57
f 66 57 58
f 66 58 59
f 66 59 60
f 66 60 61
f 66 61 62
f 66 62 63
f 66 63 64
f 64 65 66
