v 0.470607 -0.147295 -3.224393
v 0.468192 -0.147295 -3.224393
v 0.460973 -0.147295 -3.224393
v 0.449024 -0.147295 -3.224393
v 0.432468 -0.147295 -3.224393
v 0.411473 -0.147295 -3.224393
v 0.386257 -0.147295 -3.224393
v 0.357077 -0.147295 -3.224393
v 0.324232 -0.147295 -3.224393
v 0.288061 -0.147295 -3.224393
v 0.248934 -0.147295 -3.224393
v 0.207252 -0.147295 -3.224393
v 0.163444 -0.147295 -3.224393
v 0.117959 -0.147295 -3.224393
v 0.071263 -0.147295 -3.224393
v 0.023836 -0.147295 -3.224393
v -0.023836 -0.147295 -3.224393
v -0.071263 -0.147295 -3.224393
v -0.117959 -0.147295 -3.224393
v -0.163444 -0.147295 -3.224393
v -0.207252 -0.147295 -3.224393
v -0.248934 -0.147295 -3.224393
v -0.288061 -0.147295 -3.224393
v -0.324232 -0.147295 -3.224393
v -0.357077 -0.147295 -3.224393
v -0.386257 -0.147295 -3.224393
v -0.411473 -0.147295 -3.224393
v -0.432468 -0.147295 -3.224393
v -0.449024 -0.147295 -3.224393
v -0.460973 -0.147295 -3.224393
v -0.468192 -0.147295 -3.224393
v -0.470607 -0.147295 -3.224393
v -0.470872 -0.147295 -3.224121
v -0.471130 -0.147295 -3.223843
v -0.471381 -0.147295 -3.223557
v -0.471625 -0.147295 -3.223266
v -0.471862 -0.147295 -3.222968
v -0.472090 -0.147295 -3.222665
v -0.472311 -0.147295 -3.222356
v -0.472525 -0.147295 -3.222041
v -0.472730 -0.147295 -3.221721
v -0.472927 -0.147295 -3.221396
v -0.473115 -0.147295 -3.221066
v -0.473295 -0.147295 -3.220732
v -0.473467 -0.147295 -3.220393
v -0.473630 -0.147295 -3.220049
v -0.473784 -0.147295 -3.219702
v -0.473930 -0.147295 -3.219351
v -0.474066 -0.147295 -3.218996
v -0.474194 -0.147295 -3.218638
v -0.474312 -0.147295 -3.218277
v -0.474421 -0.147295 -3.217913
v -0.474521 -0.147295 -3.217547
v -0.474612 -0.147295 -3.217178
v -0.474693 -0.147295 -3.216806
v -0.474765 -0.147295 -3.216433
v -0.474827 -0.147295 -3.216058
v -0.474880 -0.147295 -3.215682
v -0.474923 -0.147295 -3.215304
v -0.474957 -0.147295 -3.214926
v -0.474981 -0.147295 -3.214547
v -0.474995 -0.147295 -3.214167
v -0.475000 -0.147295 -3.213787
v -0.470607 -0.147295 -3.224393
v -0.468192 -0.147295 -3.224393
v -0.460973 -0.147295 -3.224393
v -0.449024 -0.147295 -3.224393
v -0.432468 -0.147295 -3.224393
v -0.411473 -0.147295 -3.224393
v -0.386257 -0.147295 -3.224393
v -0.357077 -0.147295 -3.224393
v -0.324232 -0.147295 -3.224393
v -0.288061 -0.147295 -3.224393
v -0.248934 -0.147295 -3.224393
v -0.207252 -0.147295 -3.224393
v -0.163444 -0.147295 -3.224393
v -0.117959 -0.147295 -3.224393
v -0.071263 -0.147295 -3.224393
v -0.023836 -0.147295 -3.224393
v 0.023836 -0.147295 -3.224393
v 0.071263 -0.147295 -3.224393
v 0.117959 -0.147295 -3.224393
v 0.163444 -0.147295 -3.224393
v 0.207252 -0.147295 -3.224393
v 0.248934 -0.147295 -3.224393
v 0.288061 -0.147295 -3.224393
v 0.324232 -0.147295 -3.224393
v 0.357077 -0.147295 -3.224393
v 0.386257 -0.147295 -3.224393
v 0.411473 -0.147295 -3.224393
v 0.432468 -0.147295 -3.224393
v 0.449024 -0.147295 -3.224393
v 0.460973 -0.147295 -3.224393
v 0.468192 -0.147295 -3.224393
v 0.470607 -0.147295 -3.224393
v 0.475000 -0.147295 -3.213787
v 0.474995 -0.147295 -3.214167
v 0.474981 -0.147295 -3.214547
v 0.474957 -0.147295 -3.214926
v 0.474923 -0.147295 -3.215304
v 0.474880 -0.147295 -3.215682
v 0.474827 -0.147295 -3.216058
v 0.474765 -0.147295 -3.216433
v 0.474693 -0.147295 -3.216806
v 0.474612 -0.147295 -3.217178
v 0.474521 -0.147295 -3.217547
v 0.474421 -0.147295 -3.217913
v 0.474312 -0.147295 -3.218277
v 0.474194 -0.147295 -3.218638
v 0.474066 -0.147295 -3.218996
v 0.473930 -0.147295 -3.219351
v 0.473784 -0.147295 -3.219702
v 0.473630 -0.147295 -3.220049
v 0.473467 -0.147295 -3.220393
v 0.473295 -0.147295 -3.220732
v 0.473115 -0.147295 -3.221066
v 0.472927 -0.147295 -3.221396
v 0.472730 -0.147295 -3.221721
v 0.472525 -0.147295 -3.222041
v 0.472311 -0.147295 -3.222356
v 0.472090 -0.147295 -3.222665
v 0.471862 -0.147295 -3.222968
v 0.471625 -0.147295 -3.223266
v 0.471381 -0.147295 -3.223557
v 0.471130 -0.147295 -3.223843
v 0.470872 -0.147295 -3.224121
f 33 35 34
f 35 37 36
f 37 39 38
f 39 41 40
f 41 43 42
f 43 45 44
f 45 47 46
f 47 49 48
f 49 51 50
f 51 53 52
f 53 55 54
f 55 57 56
f 57 59 58
f 59 61 60
f 61 63 62
f 95 97 96
f 97 99 98
f 99 101 100
f 101 103 102
f 103 105 104
f 105 107 106
f 107 109 108
f 109 111 110
f 111 113 112
f 113 115 114
f 115 117 116
f 117 119 118
f 119 121 120
f 121 123 122
f 123 125 124
f 33 37 35
f 37 41 39
f 41 45 43
f 45 49 47
f 49 53 51
f 53 57 55
f 57 61 59
f 61 64 63
f 95 99 97
f 99 103 101
f 103 107 105
f 107 111 109
f 111 115 113
f 115 119 117
f 119 123 121
f 123 126 125
f 33 41 37
f 41 49 45
f 49 57 53
f 57 64 61
f 95 103 99
f 103 111 107
f 111 119 115
f 119 126 123
f 33 49 41
f 49 64 57
f 95 111 103
f 111 126 119
f 33 64 49
f 95 126 111
