v 0.152500 0.000000 -0.300000
v 0.151718 -0.015428 -0.300000
v 0.149378 -0.030698 -0.300000
v 0.145506 -0.045653 -0.300000
v 0.140141 -0.060139 -0.300000
v 0.133338 -0.074009 -0.300000
v 0.125166 -0.087118 -0.300000
v 0.115711 -0.099334 -0.300000
v 0.105067 -0.110531 -0.300000
v 0.093346 -0.120593 -0.300000
v 0.080667 -0.129418 -0.300000
v 0.067160 -0.136915 -0.300000
v 0.052964 -0.143007 -0.300000
v 0.038225 -0.147632 -0.300000
v 0.023093 -0.150741 -0.300000
v 0.007724 -0.152304 -0.300000
v -0.007724 -0.152304 -0.300000
v -0.023093 -0.150741 -0.300000
v -0.038225 -0.147632 -0.300000
v -0.052964 -0.143007 -0.300000
v -0.067160 -0.136915 -0.300000
v -0.080667 -0.129418 -0.300000
v -0.093346 -0.120593 -0.300000
v -0.105067 -0.110531 -0.300000
v -0.115711 -0.099334 -0.300000
v -0.125166 -0.087118 -0.300000
v -0.133338 -0.074009 -0.300000
v -0.140141 -0.060139 -0.300000
v -0.145506 -0.045653 -0.300000
v -0.149378 -0.030698 -0.300000
v -0.151718 -0.015428 -0.300000
v -0.152500 0.000000 -0.300000
v 0.152500 0.000000 -0.770000
v 0.151718 -0.015428 -0.770000
v 0.149378 -0.030698 -0.770000
v 0.145506 -0.045653 -0.770000
v 0.140141 -0.060139 -0.770000
v 0.133338 -0.074009 -0.770000
v 0.125166 -0.087118 -0.770000
v 0.115711 -0.099334 -0.770000
v 0.105067 -0.110531 -0.770000
v 0.093346 -0.120593 -0.770000
v 0.080667 -0.129418 -0.770000
v 0.067160 -0.136915 -0.770000
v 0.052964 -0.143007 -0.770000
v 0.038225 -0.147632 -0.770000
v 0.023093 -0.150741 -0.770000
v 0.007724 -0.152304 -0.770000
v -0.007724 -0.152304 -0.770000
v -0.023093 -0.150741 -0.770000
v -0.038225 -0.147632 -0.770000
v -0.052964 -0.143007 -0.770000
v -0.067160 -0.136915 -0.770000
v -0.080667 -0.129418 -0.770000
v -0.093346 -0.120593 -0.770000
v -0.105067 -0.110531 -0.770000
v -0.115711 -0.099334 -0.770000
v -0.125166 -0.087118 -0.770000
v -0.133338 -0.074009 -0.770000
v -0.140141 -0.060139 -0.770000
v -0.145506 -0.045653 -0.770000
v -0.149378 -0.030698 -0.770000
v -0.151718 -0.015428 -0.770000
v -0.152500 0.000000 -0.770000
f 1 2 34
f 1 34 33
f 2 3 35
f 2 35 34
f 3 4 36
f 3 36 35
f 4 5 37
f 4 37 36
f 5 6 38
f 5 38 37
f 6 7 39
f 6 39 38
f 7 8 40
f 7 40 39
f 8 9 41
f 8 41 40
f 9 10 42
f 9 42 41
f 10 11 43
f 10 43 42
f 11 12 44
f 11 44 43
f 12 13 45
f 12 45 44
f 13 14 46
f 13 46 45
f 14 15 47
f 14 47 46
f 15 16 48
f 15 48 47
f 16 17 49
f 16 49 48
f 17 18 50
f 17 50 49
f 18 19 51
f 18 51 50
f 19 20 52
f 19 52 51
f 20 21 53
f 20 53 52
f 21 22 54
f 21 54 53
f 22 23 55
f 22 55 54
f 23 24 56
f 23 56 55
f 24 25 57
f 24 57 56
f 25 26 58
f 25 58 57
f 26 27 59
f 26 59 58
f 27 28 60
f 27 60 59
f 28 29 61
f 28 61 60
f 29 30 62
f 29 62 61
f 30 31 63
f 30 63 62
f 31 32 64
f 31 64 63
