v -2.540000 0.500000 -3.150000
v -0.983868 0.499956 -3.145227
v -0.985432 0.500000 -3.150000
v -0.982525 0.499819 -3.140371
v -2.540000 0.499679 -3.137338
v -0.981420 0.499581 -3.135424
v -0.980568 0.499234 -3.130375
v -0.979985 0.498770 -3.125214
v -2.540000 0.498717 -3.124708
v -0.979688 0.498183 -3.119933
v -0.979689 0.497466 -3.114536
v -2.540000 0.497117 -3.112143
v -0.979997 0.496614 -3.109042
v -0.980621 0.495625 -3.103469
v -2.540000 0.494882 -3.099675
v -0.981571 0.494494 -3.097836
v -0.982854 0.493218 -3.092163
v -2.540000 0.492019 -3.087337
v -0.984476 0.491793 -3.086467
v -0.986430 0.490220 -3.080760
v -2.540000 0.488535 -3.075159
v -0.988703 0.488500 -3.075053
v -0.991284 0.486635 -3.069358
v -0.994162 0.484627 -3.063686
v -2.540000 0.484438 -3.063174
v -0.997324 0.482476 -3.058048
v -1.000760 0.480183 -3.052450
v -2.540000 0.479739 -3.051411
v -1.004456 0.477749 -3.046895
v -1.008399 0.475173 -3.041386
v -2.540000 0.474451 -3.039901
v -1.012578 0.472456 -3.035924
v -1.016979 0.469597 -3.030512
v -2.540000 0.468587 -3.028675
v -1.021592 0.466595 -3.025152
v -1.026408 0.463447 -3.019844
v -2.540000 0.462161 -3.017759
v -1.031421 0.460150 -3.014584
v -1.036623 0.456698 -3.009374
v -2.540000 0.455191 -3.007183
v -1.042008 0.453089 -3.004210
v -1.047569 0.449317 -2.999092
v -2.540000 0.447694 -2.996974
v -1.053301 0.445377 -2.994019
v -1.059201 0.441259 -2.988992
v -2.540000 0.439690 -2.987157
v -1.065268 0.436954 -2.984013
v -1.071497 0.432452 -2.979081
v -2.540000 0.431198 -2.977758
v -1.077887 0.427746 -2.974198
v -1.084435 0.422825 -2.969365
v -2.540000 0.422242 -2.968802
v -1.091133 0.417682 -2.964587
v -2.540000 0.412843 -2.960310
v -1.097975 0.412309 -2.959871
v -1.104954 0.406700 -2.955222
v -2.540000 0.403026 -2.952306
v -1.112063 0.400847 -2.950646
v -1.119295 0.394741 -2.946150
v -2.540000 0.392817 -2.944809
v -1.126651 0.388360 -2.941740
v -2.540000 0.382241 -2.937839
v -1.134137 0.381664 -2.937426
v -1.141761 0.374614 -2.933218
v -2.540000 0.371325 -2.931413
v -1.149530 0.367171 -2.929125
v -2.540000 0.360099 -2.925549
v -1.157450 0.359296 -2.925157
v -1.165516 0.350962 -2.921329
v -2.540000 0.348589 -2.920261
v -1.173668 0.342202 -2.917681
v -2.540000 0.336826 -2.915562
v -1.181833 0.333059 -2.914262
v -2.540000 0.324841 -2.911465
v -1.189936 0.323580 -2.911118
v -1.197904 0.313809 -2.908296
v -2.540000 0.312663 -2.907981
v -1.205666 0.303791 -2.905842
v -2.540000 0.300325 -2.905118
v -1.213183 0.293541 -2.903791
v -2.540000 0.287857 -2.902883
v -1.220449 0.283049 -2.902162
v -2.540000 0.275292 -2.901283
v -1.227460 0.272303 -2.900974
v -2.540000 0.262662 -2.900321
v -1.234213 0.261291 -2.900247
v -2.540000 0.250000 -2.900000
v -1.240702 0.250000 -2.900000
f 1 2 3
f 1 4 2
f 1 5 4
f 5 6 4
f 5 7 6
f 5 8 7
f 5 9 8
f 9 10 8
f 9 11 10
f 9 12 11
f 12 13 11
f 12 14 13
f 12 15 14
f 15 16 14
f 15 17 16
f 15 18 17
f 18 19 17
f 18 20 19
f 18 21 20
f 21 22 20
f 21 23 22
f 21 24 23
f 21 25 24
f 25 26 24
f 25 27 26
f 25 28 27
f 28 29 27
f 28 30 29
f 28 31 30
f 31 32 30
f 31 33 32
f 31 34 33
f 34 35 33
f 34 36 35
f 34 37 36
f 37 38 36
f 37 39 38
f 37 40 39
f 40 41 39
f 40 42 41
f 40 43 42
f 43 44 42
f 43 45 44
f 43 46 45
f 46 47 45
f 46 48 47
f 46 49 48
f 49 50 48
f 49 51 50
f 49 52 51
f 52 53 51
f 52 54 53
f 54 55 53
f 54 56 55
f 54 57 56
f 57 58 56
f 57 59 58
f 57 60 59
f 60 61 59
f 60 62 61
f 62 63 61
f 62 64 63
f 62 65 64
f 65 66 64
f 65 67 66
f 67 68 66
f 67 69 68
f 67 70 69
f 70 71 69
f 70 72 71
f 72 73 71
f 72 74 73
f 74 75 73
f 74 76 75
f 74 77 76
f 77 78 76
f 77 79 78
f 79 80 78
f 79 81 80
f 81 82 80
f 81 83 82
f 83 84 82
f 83 85 84
f 85 86 84
f 85 87 86
f 87 88 86
