v -0.373073 0.010000 -0.556522
v -0.375257 0.010000 -0.555052
v -0.377436 0.010000 -0.553572
v -0.379609 0.010000 -0.552085
v -0.381776 0.010000 -0.550588
v -0.383937 0.010000 -0.549083
v -0.386092 0.010000 -0.547570
v -0.388241 0.010000 -0.546048
v -0.390384 0.010000 -0.544518
v -0.392521 0.010000 -0.542980
v -0.394652 0.010000 -0.541433
v -0.373073 0.220000 -0.556522
v -0.375257 0.220000 -0.555052
v -0.377436 0.220000 -0.553572
v -0.379609 0.220000 -0.552085
v -0.381776 0.220000 -0.550588
v -0.383937 0.220000 -0.549083
v -0.386092 0.220000 -0.547570
v -0.388241 0.220000 -0.546048
v -0.390384 0.220000 -0.544518
v -0.392521 0.220000 -0.542980
v -0.394652 0.220000 -0.541433
f 1 2 13
f 1 13 12
f 2 3 14
f 2 14 13
f 3 4 15
f 3 15 14
f 4 5 16
f 4 16 15
f 5 6 17
f 5 17 16
f 6 7 18
f 6 18 17
f 7 8 19
f 7 19 18
f 8 9 20
f 8 20 19
f 9 10 21
f 9 21 20
f 10 11 22
f 10 22 21
