v -0.153288 0.010000 -0.652229
v -0.150918 0.010000 -0.652781
v -0.148546 0.010000 -0.653325
v -0.146172 0.010000 -0.653861
v -0.143796 0.010000 -0.654387
v -0.141418 0.010000 -0.654905
v -0.139039 0.010000 -0.655415
v -0.136657 0.010000 -0.655915
v -0.134274 0.010000 -0.656407
v -0.131889 0.010000 -0.656891
v -0.129502 0.010000 -0.657365
v -0.127113 0.010000 -0.657831
v -0.124723 0.010000 -0.658289
v -0.122331 0.010000 -0.658738
v -0.119938 0.010000 -0.659178
v -0.117542 0.010000 -0.659609
v -0.115146 0.010000 -0.660031
v -0.112748 0.010000 -0.660445
v -0.110348 0.010000 -0.660850
v -0.107947 0.010000 -0.661247
v -0.105544 0.010000 -0.661635
v -0.103140 0.010000 -0.662014
v -0.100735 0.010000 -0.662384
v -0.098328 0.010000 -0.662745
v -0.095921 0.010000 -0.663098
v -0.093511 0.010000 -0.663442
v -0.091101 0.010000 -0.663778
v -0.088689 0.010000 -0.664104
v -0.086277 0.010000 -0.664422
v -0.083863 0.010000 -0.664731
v -0.081448 0.010000 -0.665031
v -0.079032 0.010000 -0.665322
v -0.153288 0.000000 -0.652229
v -0.150918 0.000000 -0.652781
v -0.148546 0.000000 -0.653325
v -0.146172 0.000000 -0.653861
v -0.143796 0.000000 -0.654387
v -0.141418 0.000000 -0.654905
v -0.139039 0.000000 -0.655415
v -0.136657 0.000000 -0.655915
v -0.134274 0.000000 -0.656407
v -0.131889 0.000000 -0.656891
v -0.129502 0.000000 -0.657365
v -0.127113 0.000000 -0.657831
v -0.124723 0.000000 -0.658289
v -0.122331 0.000000 -0.658738
v -0.119938 0.000000 -0.659178
v -0.117542 0.000000 -0.659609
v -0.115146 0.000000 -0.660031
v -0.112748 0.000000 -0.660445
v -0.110348 0.000000 -0.660850
v -0.107947 0.000000 -0.661247
v -0.105544 0.000000 -0.661635
v -0.103140 0.000000 -0.662014
v -0.100735 0.000000 -0.662384
v -0.098328 0.000000 -0.662745
v -0.095921 0.000000 -0.663098
v -0.093511 0.000000 -0.663442
v -0.091101 0.000000 -0.663778
v -0.088689 0.000000 -0.664104
v -0.086277 0.000000 -0.664422
v -0.083863 0.000000 -0.664731
v -0.081448 0.000000 -0.665031
v -0.079032 0.000000 -0.665322
f 1 2 34
f 1 34 33
f 2 3 35
f 2 35 34
f 3 4 36
f 3 36 35
f 4 5 37
f 4 37 36
f 5 6 38
f 5 38 37
f 6 7 39
f 6 39 38
f 7 8 40
f 7 40 39
f 8 9 41
f 8 41 40
f 9 10 42
f 9 42 41
f 10 11 43
f 10 43 42
f 11 12 44
f 11 44 43
f 12 13 45
f 12 45 44
f 13 14 46
f 13 46 45
f 14 15 47
f 14 47 46
f 15 16 48
f 15 48 47
f 16 17 49
f 16 49 48
f 17 18 50
f 17 50 49
f 18 19 51
f 18 51 50
f 19 20 52
f 19 52 51
f 20 21 53
f 20 53 52
f 21 22 54
f 21 54 53
f 22 23 55
f 22 55 54
f 23 24 56
f 23 56 55
f 24 25 57
f 24 57 56
f 25 26 58
f 25 58 57
f 26 27 59
f 26 59 58
f 27 28 60
f 27 60 59
f 28 29 61
f 28 61 60
f 29 30 62
f 29 62 61
f 30 31 63
f 30 63 62
f 31 32 64
f 31 64 63
