v -3.337500 0.652074 -4.437000
v -3.337242 0.665465 -4.446204
v -3.337500 0.350000 -4.437000
v -3.336666 0.350000 -4.453440
v -3.336466 0.678402 -4.455360
v -3.335168 0.690905 -4.464466
v -3.334174 0.350000 -4.469711
v -3.333343 0.702996 -4.473520
v -3.330990 0.714683 -4.482509
v -3.330048 0.350000 -4.485647
v -3.328118 0.725941 -4.491391
v -3.324736 0.736734 -4.500118
v -3.324331 0.350000 -4.501083
v -3.320855 0.747028 -4.508642
v -3.317081 0.350000 -4.515862
v -3.316490 0.756796 -4.516920
v -3.311664 0.766028 -4.524917
v -3.308374 0.350000 -4.529831
v -3.306404 0.774717 -4.532600
v -3.300737 0.782855 -4.539938
v -3.298298 0.350000 -4.542848
v -3.294690 0.790441 -4.546904
v -3.288292 0.797482 -4.553482
v -3.286957 0.350000 -4.554779
v -3.281575 0.803991 -4.559662
v -3.274567 0.809975 -4.565429
v -3.274467 0.350000 -4.565501
v -3.267282 0.815450 -4.570775
v -3.260957 0.350000 -4.574905
v -3.259704 0.820431 -4.575703
v -3.251811 0.824937 -4.580214
v -3.246564 0.350000 -4.582893
v -3.243586 0.828985 -4.584309
v -3.235043 0.832578 -4.587977
v -3.231437 0.350000 -4.589385
v -3.226248 0.835694 -4.591184
v -3.217272 0.838311 -4.593896
v -3.215731 0.350000 -4.594313
v -3.208184 0.840406 -4.596080
v -3.199607 0.350000 -4.597626
v -3.199032 0.841973 -4.597720
v -3.189839 0.843024 -4.598824
v -3.183230 0.350000 -4.599291
v -3.180627 0.843572 -4.599402
v -3.171416 0.843629 -4.599463
v -3.166770 0.350000 -4.599291
v -3.162222 0.843196 -4.599006
v -3.153050 0.842261 -4.598023
v -3.150393 0.350000 -4.597626
v -3.143908 0.840811 -4.596504
v -3.134805 0.838834 -4.594441
v -3.134269 0.350000 -4.594313
v -3.125782 0.836333 -4.591844
v -3.118563 0.350000 -4.589385
v -3.116910 0.833323 -4.588740
v -3.108259 0.829817 -4.585155
v -3.103436 0.350000 -4.582893
v -3.099897 0.825830 -4.581114
v -3.091848 0.821362 -4.576632
v -3.089043 0.350000 -4.574905
v -3.084105 0.816403 -4.571715
v -3.076663 0.810945 -4.566371
v -3.075533 0.350000 -4.565501
v -3.069516 0.804976 -4.560605
v -3.063043 0.350000 -4.554779
v -3.062679 0.798484 -4.554427
v -3.056175 0.791455 -4.547844
v -3.051702 0.350000 -4.542848
v -3.050027 0.783873 -4.540865
v -3.044260 0.775726 -4.533502
v -3.041626 0.350000 -4.529831
v -3.038901 0.767015 -4.525782
v -3.033980 0.757752 -4.517740
v -3.032919 0.350000 -4.515862
v -3.029526 0.747945 -4.509412
v -3.025669 0.350000 -4.501083
v -3.025565 0.737607 -4.500833
v -3.022114 0.726761 -4.492045
v -3.019952 0.350000 -4.485647
v -3.019180 0.715433 -4.483093
v -3.016773 0.703653 -4.474019
v -3.015826 0.350000 -4.469711
v -3.014902 0.691440 -4.464862
v -3.013567 0.678786 -4.455636
v -3.013334 0.350000 -4.453440
v -3.012766 0.665670 -4.446347
v -3.012500 0.652074 -4.437000
v -3.012500 0.350000 -4.437000
f 1 2 3
f 2 4 3
f 2 5 4
f 5 6 4
f 6 7 4
f 6 8 7
f 8 9 7
f 9 10 7
f 9 11 10
f 11 12 10
f 12 13 10
f 12 14 13
f 14 15 13
f 14 16 15
f 16 17 15
f 17 18 15
f 17 19 18
f 19 20 18
f 20 21 18
f 20 22 21
f 22 23 21
f 23 24 21
f 23 25 24
f 25 26 24
f 26 27 24
f 26 28 27
f 28 29 27
f 28 30 29
f 30 31 29
f 31 32 29
f 31 33 32
f 33 34 32
f 34 35 32
f 34 36 35
f 36 37 35
f 37 38 35
f 37 39 38
f 39 40 38
f 39 41 40
f 41 42 40
f 42 43 40
f 42 44 43
f 44 45 43
f 45 46 43
f 45 47 46
f 47 48 46
f 48 49 46
f 48 50 49
f 50 51 49
f 51 52 49
f 51 53 52
f 53 54 52
f 53 55 54
f 55 56 54
f 56 57 54
f 56 58 57
f 58 59 57
f 59 60 57
f 59 61 60
f 61 62 60
f 62 63 60
f 62 64 63
f 64 65 63
f 64 66 65
f 66 67 65
f 67 68 65
f 67 69 68
f 69 70 68
f 70 71 68
f 70 72 71
f 72 73 71
f 73 74 71
f 73 75 74
f 75 76 74
f 75 77 76
f 77 78 76
f 78 79 76
f 78 80 79
f 80 81 79
f 81 82 79
f 81 83 82
f 83 84 82
f 84 85 82
f 84 86 85
f 86 87 85
f 87 88 85
