v 0.612851 0.010000 -0.270766
v 0.611782 0.010000 -0.273172
v 0.610703 0.010000 -0.275575
v 0.609615 0.010000 -0.277973
v 0.608518 0.010000 -0.280367
v 0.607412 0.010000 -0.282756
v 0.606296 0.010000 -0.285142
v 0.605170 0.010000 -0.287522
v 0.604035 0.010000 -0.289899
v 0.602891 0.010000 -0.292271
v 0.601738 0.010000 -0.294638
v 0.612851 0.220000 -0.270766
v 0.611782 0.220000 -0.273172
v 0.610703 0.220000 -0.275575
v 0.609615 0.220000 -0.277973
v 0.608518 0.220000 -0.280367
v 0.607412 0.220000 -0.282756
v 0.606296 0.220000 -0.285142
v 0.605170 0.220000 -0.287522
v 0.604035 0.220000 -0.289899
v 0.602891 0.220000 -0.292271
v 0.601738 0.220000 -0.294638
f 1 2 13
f 1 13 12
f 2 3 14
f 2 14 13
f 3 4 15
f 3 15 14
f 4 5 16
f 4 16 15
f 5 6 17
f 5 17 16
f 6 7 18
f 6 18 17
f 7 8 19
f 7 19 18
f 8 9 20
f 8 20 19
f 9 10 21
f 9 21 20
f 10 11 22
f 10 22 21
