v -3.575000 0.000000 -5.545000
v -3.575000 0.011668 -5.544530
v -3.575000 0.023260 -5.543122
v -3.575000 0.034701 -5.540787
v -3.575000 0.045917 -5.537538
v -3.575000 0.056835 -5.533397
v -3.575000 0.067385 -5.528391
v -3.575000 0.077498 -5.522553
v -3.575000 0.087108 -5.515919
v -3.575000 0.096153 -5.508534
v -3.575000 0.104574 -5.500445
v -3.575000 0.112318 -5.491705
v -3.575000 0.119333 -5.482369
v -3.575000 0.125574 -5.472500
v -3.575000 0.131000 -5.462160
v -3.575000 0.135577 -5.451418
v -3.575000 0.139275 -5.440342
v -3.575000 0.142070 -5.429004
v -3.575000 0.143943 -5.417478
v -3.575000 0.144882 -5.405839
v -3.575000 0.144882 -5.394161
v -3.575000 0.143943 -5.382522
v -3.575000 0.142070 -5.370996
v -3.575000 0.139275 -5.359658
v -3.575000 0.135577 -5.348582
v -3.575000 0.131000 -5.337840
v -3.575000 0.125574 -5.327500
v -3.575000 0.119333 -5.317631
v -3.575000 0.112318 -5.308295
v -3.575000 0.104574 -5.299555
v -3.575000 0.096153 -5.291466
v -3.575000 0.087108 -5.284081
v -3.575000 0.077498 -5.277447
v -3.575000 0.067385 -5.271609
v -3.575000 0.056835 -5.266603
v -3.575000 0.045917 -5.262462
v -3.575000 0.034701 -5.259213
v -3.575000 0.023260 -5.256878
v -3.575000 0.011668 -5.255470
v -3.575000 0.000000 -5.255000
v -3.575000 0.000000 -4.287000
v -3.575000 0.089559 -4.290609
v -3.575000 0.178538 -4.301413
v -3.575000 0.266358 -4.319342
v -3.575000 0.352451 -4.344279
v -3.575000 0.436259 -4.376063
v -3.575000 0.517237 -4.414487
v -3.575000 0.594860 -4.459303
v -3.575000 0.668626 -4.510220
v -3.575000 0.738056 -4.566908
v -3.575000 0.802698 -4.628998
v -3.575000 0.862135 -4.696088
v -3.575000 0.915981 -4.767744
v -3.575000 0.963886 -4.843500
v -3.575000 1.005540 -4.922865
v -3.575000 1.040673 -5.005325
v -3.575000 1.069057 -5.090344
v -3.575000 1.090507 -5.177371
v -3.575000 1.104885 -5.265843
v -3.575000 1.112097 -5.355184
v -3.575000 1.112097 -5.444816
v -3.575000 1.104885 -5.534157
v -3.575000 1.090507 -5.622629
v -3.575000 1.069057 -5.709656
v -3.575000 1.040673 -5.794675
v -3.575000 1.005540 -5.877135
v -3.575000 0.963886 -5.956500
v -3.575000 0.915981 -6.032256
v -3.575000 0.862135 -6.103912
v -3.575000 0.802698 -6.171002
v -3.575000 0.738056 -6.233092
v -3.575000 0.668626 -6.289780
v -3.575000 0.594860 -6.340697
v -3.575000 0.517237 -6.385513
v -3.575000 0.436259 -6.423937
v -3.575000 0.352451 -6.455721
v -3.575000 0.266358 -6.480658
v -3.575000 0.178538 -6.498587
v -3.575000 0.089559 -6.509391
v -3.575000 0.000000 -6.513000
f 80 1 2
f 80 2 3
f 80 3 4
f 80 4 5
f 80 5 6
f 80 6 7
f 80 7 8
f 80 8 9
f 80 9 10
f 80 10 11
f 80 11 12
f 80 12 13
f 80 13 14
f 80 14 15
f 80 15 16
f 80 16 17
f 80 17 18
f 80 18 19
f 39 40 41
f 38 39 41
f 37 38 41
f 36 37 41
f 35 36 41
f 34 35 41
f 33 34 41
f 32 33 41
f 31 32 41
f 30 31 41
f 29 30 41
f 28 29 41
f 27 28 41
f 26 27 41
f 25 26 41
f 24 25 41
f 23 24 41
f 22 23 41
f 22 41 42
f 21 22 42
f 21 42 43
f 20 21 43
f 20 43 44
f 19 20 44
f 19 44 45
f 80 19 45
f 80 45 46
f 80 46 47
f 80 47 48
f 80 48 49
f 80 49 50
f 80 50 51
f 80 51 52
f 80 52 53
f 80 53 54
f 80 54 55
f 80 55 56
f 80 56 57
f 80 57 58
f 80 58 59
f 80 59 60
f 80 60 61
f 80 61 62
f 80 62 63
f 80 63 64
f 80 64 65
f 80 65 66
f 80 66 67
f 80 67 68
f 80 68 69
f 80 69 70
f 80 70 71
f 80 71 72
f 80 72 73
f 80 73 74
f 80 74 75
f 80 75 76
f 80 76 77
f 80 77 78
f 78 79 80
