v 0.710000 0.325000 -6.413000
v 0.709461 0.325000 -6.402377
v 0.707851 0.325000 -6.391864
v 0.705185 0.325000 -6.381567
v 0.701491 0.325000 -6.371593
v 0.696806 0.325000 -6.362043
v 0.691180 0.325000 -6.353017
v 0.684670 0.325000 -6.344606
v 0.677342 0.325000 -6.336897
v 0.669271 0.325000 -6.329969
v 0.660541 0.325000 -6.323892
v 0.651241 0.325000 -6.318731
v 0.641467 0.325000 -6.314536
v 0.631319 0.325000 -6.311352
v 0.620900 0.325000 -6.309211
v 0.610318 0.325000 -6.308135
v 0.599682 0.325000 -6.308135
v 0.589100 0.325000 -6.309211
v 0.578681 0.325000 -6.311352
v 0.568533 0.325000 -6.314536
v 0.558759 0.325000 -6.318731
v 0.549459 0.325000 -6.323892
v 0.540729 0.325000 -6.329969
v 0.532658 0.325000 -6.336897
v 0.525330 0.325000 -6.344606
v 0.518820 0.325000 -6.353017
v 0.513194 0.325000 -6.362043
v 0.508509 0.325000 -6.371593
v 0.504815 0.325000 -6.381567
v 0.502149 0.325000 -6.391864
v 0.500539 0.325000 -6.402377
v 0.500000 0.325000 -6.413000
v 0.710000 0.275000 -6.413000
v 0.709461 0.275000 -6.402377
v 0.707851 0.275000 -6.391864
v 0.705185 0.275000 -6.381567
v 0.701491 0.275000 -6.371593
v 0.696806 0.275000 -6.362043
v 0.691180 0.275000 -6.353017
v 0.684670 0.275000 -6.344606
v 0.677342 0.275000 -6.336897
v 0.669271 0.275000 -6.329969
v 0.660541 0.275000 -6.323892
v 0.651241 0.275000 -6.318731
v 0.641467 0.275000 -6.314536
v 0.631319 0.275000 -6.311352
v 0.620900 0.275000 -6.309211
v 0.610318 0.275000 -6.308135
v 0.599682 0.275000 -6.308135
v 0.589100 0.275000 -6.309211
v 0.578681 0.275000 -6.311352
v 0.568533 0.275000 -6.314536
v 0.558759 0.275000 -6.318731
v 0.549459 0.275000 -6.323892
v 0.540729 0.275000 -6.329969
v 0.532658 0.275000 -6.336897
v 0.525330 0.275000 -6.344606
v 0.518820 0.275000 -6.353017
v 0.513194 0.275000 -6.362043
v 0.508509 0.275000 -6.371593
v 0.504815 0.275000 -6.381567
v 0.502149 0.275000 -6.391864
v 0.500539 0.275000 -6.402377
v 0.500000 0.275000 -6.413000
f 1 34 2
f 1 33 34
f 2 35 3
f 2 34 35
f 3 36 4
f 3 35 36
f 4 37 5
f 4 36 37
f 5 38 6
f 5 37 38
f 6 39 7
f 6 38 39
f 7 40 8
f 7 39 40
f 8 41 9
f 8 40 41
f 9 42 10
f 9 41 42
f 10 43 11
f 10 42 43
f 11 44 12
f 11 43 44
f 12 45 13
f 12 44 45
f 13 46 14
f 13 45 46
f 14 47 15
f 14 46 47
f 15 48 16
f 15 47 48
f 16 49 17
f 16 48 49
f 17 50 18
f 17 49 50
f 18 51 19
f 18 50 51
f 19 52 20
f 19 51 52
f 20 53 21
f 20 52 53
f 21 54 22
f 21 53 54
f 22 55 23
f 22 54 55
f 23 56 24
f 23 55 56
f 24 57 25
f 24 56 57
f 25 58 26
f 25 57 58
f 26 59 27
f 26 58 59
f 27 60 28
f 27 59 60
f 28 61 29
f 28 60 61
f 29 62 30
f 29 61 62
f 30 63 31
f 30 62 63
f 31 64 32
f 31 63 64
