v 0.230000 -0.439547 -6.354318
v 0.230000 -0.439073 -6.368338
v 0.230000 -0.442513 -6.381939
v 0.230000 -0.449596 -6.394049
v 0.230000 -0.459764 -6.403714
v 0.230000 -0.472217 -6.410174
v 0.230000 -0.485974 -6.412921
v -0.970000 -0.439547 -6.354318
v -0.970000 -0.439073 -6.368338
v -0.970000 -0.442513 -6.381939
v -0.970000 -0.449596 -6.394049
v -0.970000 -0.459764 -6.403714
v -0.970000 -0.472217 -6.410174
v -0.970000 -0.485974 -6.412921
f 1 2 9
f 1 9 8
f 2 3 10
f 2 10 9
f 3 4 11
f 3 11 10
f 4 5 12
f 4 12 11
f 5 6 13
f 5 13 12
f 6 7 14
f 6 14 13
