v 0.450842 0.220000 -0.571497
v 0.406998 0.220000 -0.540797
v 0.406998 0.016837 -0.540797
v 0.406891 0.016713 -0.540722
v 0.406783 0.016588 -0.540647
v 0.406676 0.016463 -0.540571
v 0.406568 0.016338 -0.540496
v 0.406461 0.016214 -0.540421
v 0.406353 0.016089 -0.540345
v 0.406246 0.015964 -0.540270
v 0.406138 0.015839 -0.540195
v 0.406031 0.015715 -0.540120
v 0.405923 0.015590 -0.540045
v 0.405816 0.015465 -0.539969
v 0.405709 0.015341 -0.539894
v 0.405601 0.015216 -0.539819
v 0.405494 0.015092 -0.539744
v 0.405387 0.014967 -0.539669
v 0.405279 0.014842 -0.539593
v 0.405172 0.014718 -0.539518
v 0.405065 0.014593 -0.539443
v 0.404957 0.014469 -0.539368
v 0.404850 0.014344 -0.539293
v 0.404743 0.014220 -0.539218
v 0.404636 0.014096 -0.539143
v 0.404528 0.013971 -0.539068
v 0.404421 0.013847 -0.538993
v 0.404314 0.013722 -0.538918
v 0.404207 0.013598 -0.538843
v 0.404100 0.013474 -0.538767
v 0.403992 0.013349 -0.538692
v 0.403885 0.013225 -0.538617
v 0.403778 0.013101 -0.538542
v 0.403671 0.012977 -0.538467
v 0.403564 0.012852 -0.538392
v 0.403457 0.012728 -0.538317
v 0.403350 0.012604 -0.538242
v 0.403243 0.012480 -0.538168
v 0.403136 0.012356 -0.538093
v 0.403029 0.012231 -0.538018
v 0.402922 0.012107 -0.537943
v 0.402815 0.011983 -0.537868
v 0.402708 0.011859 -0.537793
v 0.402601 0.011735 -0.537718
v 0.402494 0.011611 -0.537643
v 0.402387 0.011487 -0.537568
v 0.402280 0.011363 -0.537493
v 0.402173 0.011239 -0.537418
v 0.402066 0.011115 -0.537344
v 0.401959 0.010991 -0.537269
v 0.401852 0.010867 -0.537194
v 0.401745 0.010743 -0.537119
v 0.401639 0.010619 -0.537044
v 0.401532 0.010495 -0.536970
v 0.401425 0.010371 -0.536895
v 0.401318 0.010248 -0.536820
v 0.401211 0.010124 -0.536745
v 0.401105 0.010000 -0.536670
v 0.401105 0.000000 -0.536670
v 0.450842 0.000000 -0.571497
f 60 1 2
f 60 2 3
f 60 3 4
f 60 4 5
f 60 5 6
f 60 6 7
f 60 7 8
f 60 8 9
f 60 9 10
f 60 10 11
f 60 11 12
f 60 12 13
f 60 13 14
f 60 14 15
f 60 15 16
f 60 16 17
f 60 17 18
f 60 18 19
f 60 19 20
f 60 20 21
f 60 21 22
f 60 22 23
f 60 23 24
f 60 24 25
f 60 25 26
f 60 26 27
f 60 27 28
f 60 28 29
f 60 29 30
f 60 30 31
f 60 31 32
f 60 32 33
f 60 33 34
f 60 34 35
f 60 35 36
f 60 36 37
f 60 37 38
f 60 38 39
f 60 39 40
f 60 40 41
f 60 41 42
f 60 42 43
f 60 43 44
f 60 44 45
f 60 45 46
f 60 46 47
f 60 47 48
f 60 48 49
f 60 49 50
f 60 50 51
f 60 51 52
f 60 52 53
f 60 53 54
f 60 54 55
f 60 55 56
f 60 56 57
f 60 57 58
f 58 59 60
