v -0.147996 0.220000 -0.712717
v -0.152661 0.220000 -0.659396
v -0.152661 0.016837 -0.659396
v -0.152673 0.016713 -0.659266
v -0.152684 0.016588 -0.659135
v -0.152696 0.016463 -0.659004
v -0.152707 0.016338 -0.658873
v -0.152718 0.016214 -0.658743
v -0.152730 0.016089 -0.658612
v -0.152741 0.015964 -0.658481
v -0.152753 0.015839 -0.658351
v -0.152764 0.015715 -0.658220
v -0.152776 0.015590 -0.658089
v -0.152787 0.015465 -0.657959
v -0.152798 0.015341 -0.657828
v -0.152810 0.015216 -0.657698
v -0.152821 0.015092 -0.657567
v -0.152833 0.014967 -0.657436
v -0.152844 0.014842 -0.657306
v -0.152856 0.014718 -0.657175
v -0.152867 0.014593 -0.657045
v -0.152878 0.014469 -0.656914
v -0.152890 0.014344 -0.656784
v -0.152901 0.014220 -0.656654
v -0.152913 0.014096 -0.656523
v -0.152924 0.013971 -0.656393
v -0.152935 0.013847 -0.656262
v -0.152947 0.013722 -0.656132
v -0.152958 0.013598 -0.656002
v -0.152970 0.013474 -0.655871
v -0.152981 0.013349 -0.655741
v -0.152992 0.013225 -0.655611
v -0.153004 0.013101 -0.655480
v -0.153015 0.012977 -0.655350
v -0.153027 0.012852 -0.655220
v -0.153038 0.012728 -0.655090
v -0.153049 0.012604 -0.654959
v -0.153061 0.012480 -0.654829
v -0.153072 0.012356 -0.654699
v -0.153084 0.012231 -0.654569
v -0.153095 0.012107 -0.654439
v -0.153106 0.011983 -0.654309
v -0.153118 0.011859 -0.654179
v -0.153129 0.011735 -0.654048
v -0.153141 0.011611 -0.653918
v -0.153152 0.011487 -0.653788
v -0.153163 0.011363 -0.653658
v -0.153175 0.011239 -0.653528
v -0.153186 0.011115 -0.653398
v -0.153197 0.010991 -0.653268
v -0.153209 0.010867 -0.653138
v -0.153220 0.010743 -0.653008
v -0.153232 0.010619 -0.652878
v -0.153243 0.010495 -0.652749
v -0.153254 0.010371 -0.652619
v -0.153266 0.010248 -0.652489
v -0.153277 0.010124 -0.652359
v -0.153288 0.010000 -0.652229
v -0.153288 0.000000 -0.652229
v -0.147996 0.000000 -0.712717
f 60 1 2
f 60 2 3
f 60 3 4
f 60 4 5
f 60 5 6
f 60 6 7
f 60 7 8
f 60 8 9
f 60 9 10
f 60 10 11
f 60 11 12
f 60 12 13
f 60 13 14
f 60 14 15
f 60 15 16
f 60 16 17
f 60 17 18
f 60 18 19
f 60 19 20
f 60 20 21
f 60 21 22
f 60 22 23
f 60 23 24
f 60 24 25
f 60 25 26
f 60 26 27
f 60 27 28
f 60 28 29
f 60 29 30
f 60 30 31
f 60 31 32
f 60 32 33
f 60 33 34
f 60 34 35
f 60 35 36
f 60 36 37
f 60 37 38
f 60 38 39
f 60 39 40
f 60 40 41
f 60 41 42
f 60 42 43
f 60 43 44
f 60 44 45
f 60 45 46
f 60 46 47
f 60 47 48
f 60 48 49
f 60 49 50
f 60 50 51
f 60 51 52
f 60 52 53
f 60 53 54
f 60 54 55
f 60 55 56
f 60 56 57
f 60 57 58
f 58 59 60
