v 0.138225 -0.614649 -1.051004
v 0.139619 -0.614334 -1.051148
v 0.140977 -0.614024 -1.051492
v 0.142271 -0.613725 -1.052030
v 0.143476 -0.613445 -1.052751
v 0.144568 -0.613189 -1.053639
v 0.145523 -0.612963 -1.054677
v 0.146324 -0.612772 -1.055843
v 0.146954 -0.612621 -1.057113
v 0.147402 -0.612514 -1.058462
v 0.147658 -0.612452 -1.059862
v 0.096013 -0.485599 -1.051004
v 0.097421 -0.485319 -1.051148
v 0.098791 -0.485042 -1.051493
v 0.100096 -0.484774 -1.052032
v 0.101310 -0.484522 -1.052754
v 0.102409 -0.484291 -1.053643
v 0.103371 -0.484086 -1.054681
v 0.104176 -0.483913 -1.055847
v 0.104811 -0.483776 -1.057117
v 0.105260 -0.483679 -1.058465
v 0.105518 -0.483623 -1.059863
f 1 13 2
f 1 12 13
f 2 14 3
f 2 13 14
f 3 15 4
f 3 14 15
f 4 16 5
f 4 15 16
f 5 17 6
f 5 16 17
f 6 18 7
f 6 17 18
f 7 19 8
f 7 18 19
f 8 20 9
f 8 19 20
f 9 21 10
f 9 20 21
f 10 22 11
f 10 21 22
