v -2.905000 -0.300000 -6.388000
v -2.904953 -0.300000 -6.391130
v -2.905000 -0.350000 -6.388000
v -2.904813 -0.300000 -6.394257
v -2.904580 -0.300000 -6.397379
v -2.904461 -0.350000 -6.398623
v -2.904254 -0.300000 -6.400492
v -2.903836 -0.300000 -6.403594
v -2.903325 -0.300000 -6.406683
v -2.902851 -0.350000 -6.409136
v -2.902722 -0.300000 -6.409754
v -2.902028 -0.300000 -6.412807
v -2.901243 -0.300000 -6.415837
v -2.900368 -0.300000 -6.418843
v -2.900185 -0.350000 -6.419433
v -2.899404 -0.300000 -6.421821
v -2.898352 -0.300000 -6.424769
v -2.897212 -0.300000 -6.427685
v -2.896491 -0.350000 -6.429407
v -2.895986 -0.300000 -6.430565
v -2.894674 -0.300000 -6.433407
v -2.893278 -0.300000 -6.436209
v -2.891806 -0.350000 -6.438957
v -2.891800 -0.300000 -6.438968
v -2.890240 -0.300000 -6.441682
v -2.888599 -0.300000 -6.444348
v -2.886880 -0.300000 -6.446964
v -2.886180 -0.350000 -6.447983
v -2.885084 -0.300000 -6.449528
v -2.883212 -0.300000 -6.452037
v -2.881266 -0.300000 -6.454489
v -2.879670 -0.350000 -6.456394
v -2.879248 -0.300000 -6.456882
v -2.877160 -0.300000 -6.459214
v -2.875002 -0.300000 -6.461482
v -2.872779 -0.300000 -6.463685
v -2.872342 -0.350000 -6.464103
v -2.870490 -0.300000 -6.465821
v -2.868139 -0.300000 -6.467888
v -2.865727 -0.300000 -6.469884
v -2.864271 -0.350000 -6.471031
v -2.863257 -0.300000 -6.471806
v -2.861409 -0.295085 -6.473170
v -2.859552 -0.290283 -6.474479
v -2.857686 -0.285594 -6.475735
v -2.855811 -0.281019 -6.476939
v -2.855541 -0.350000 -6.477108
v -2.853928 -0.276558 -6.478093
v -2.852037 -0.272212 -6.479199
v -2.850136 -0.267980 -6.480257
v -2.848224 -0.263861 -6.481271
v -2.846303 -0.259858 -6.482240
v -2.846241 -0.350000 -6.482269
v -2.844370 -0.255974 -6.483165
v -2.842425 -0.252210 -6.484048
v -2.840468 -0.248571 -6.484888
v -2.838499 -0.245057 -6.485687
v -2.836514 -0.241670 -6.486446
v -2.836467 -0.350000 -6.486464
v -2.834515 -0.238411 -6.487166
v -2.832492 -0.235278 -6.487848
v -2.830430 -0.232263 -6.488496
v -2.828312 -0.229358 -6.489112
v -2.826319 -0.350000 -6.489648
v -2.826121 -0.226555 -6.489698
v -2.823855 -0.223872 -6.490252
v -2.821518 -0.221337 -6.490770
v -2.819116 -0.218982 -6.491245
v -2.816650 -0.216835 -6.491674
v -2.815900 -0.350000 -6.491789
v -2.814102 -0.214923 -6.492052
v -2.811448 -0.213271 -6.492376
v -2.808668 -0.211907 -6.492641
v -2.805755 -0.210871 -6.492842
v -2.805318 -0.350000 -6.492865
v -2.802729 -0.210228 -6.492966
v -2.799610 -0.210046 -6.493000
v -2.796423 -0.210386 -6.492935
v -2.794682 -0.350000 -6.492865
v -2.793215 -0.211235 -6.492771
v -2.790050 -0.212531 -6.492520
v -2.786993 -0.214213 -6.492191
v -2.784100 -0.350000 -6.491789
v -2.784090 -0.216226 -6.491795
v -2.781324 -0.218539 -6.491334
v -2.778658 -0.221129 -6.490812
v -2.776056 -0.223972 -6.490232
v -2.773681 -0.350000 -6.489648
v -2.773500 -0.227041 -6.489597
v -2.770999 -0.230303 -6.488912
v -2.768562 -0.233727 -6.488182
v -2.766200 -0.237282 -6.487413
v -2.763908 -0.240956 -6.486605
v -2.763533 -0.350000 -6.486464
v -2.761672 -0.244749 -6.485756
v -2.759481 -0.248663 -6.484867
v -2.757321 -0.252697 -6.483934
v -2.755188 -0.256854 -6.482957
v -2.753759 -0.350000 -6.482269
v -2.753078 -0.261135 -6.481932
v -2.750988 -0.265542 -6.480859
v -2.748914 -0.270077 -6.479735
v -2.746855 -0.274741 -6.478558
v -2.744810 -0.279533 -6.477325
v -2.744459 -0.350000 -6.477108
v -2.742776 -0.284456 -6.476036
v -2.740753 -0.289509 -6.474688
v -2.738741 -0.294691 -6.473278
v -2.736743 -0.300000 -6.471806
v -2.735729 -0.350000 -6.471031
v -2.734273 -0.300000 -6.469884
v -2.731861 -0.300000 -6.467888
v -2.729510 -0.300000 -6.465821
v -2.727658 -0.350000 -6.464103
v -2.727221 -0.300000 -6.463685
v -2.724998 -0.300000 -6.461482
v -2.722840 -0.300000 -6.459214
v -2.720752 -0.300000 -6.456882
v -2.720330 -0.350000 -6.456394
v -2.718734 -0.300000 -6.454489
v -2.716788 -0.300000 -6.452037
v -2.714916 -0.300000 -6.449528
v -2.713820 -0.350000 -6.447983
v -2.713120 -0.300000 -6.446964
v -2.711401 -0.300000 -6.444348
v -2.709760 -0.300000 -6.441682
v -2.708200 -0.300000 -6.438968
v -2.708194 -0.350000 -6.438957
v -2.706722 -0.300000 -6.436209
v -2.705326 -0.300000 -6.433407
v -2.704014 -0.300000 -6.430565
v -2.703509 -0.350000 -6.429407
v -2.702788 -0.300000 -6.427685
v -2.701648 -0.300000 -6.424769
v -2.700596 -0.300000 -6.421821
v -2.699815 -0.350000 -6.419433
v -2.699632 -0.300000 -6.418843
v -2.698757 -0.300000 -6.415837
v -2.697972 -0.300000 -6.412807
v -2.697278 -0.300000 -6.409754
v -2.697149 -0.350000 -6.409136
v -2.696675 -0.300000 -6.406683
v -2.696164 -0.300000 -6.403594
v -2.695746 -0.300000 -6.400492
v -2.695539 -0.350000 -6.398623
v -2.695420 -0.300000 -6.397379
v -2.695187 -0.300000 -6.394257
v -2.695047 -0.300000 -6.391130
v -2.695000 -0.300000 -6.388000
v -2.695000 -0.350000 -6.388000
f 1 2 3
f 2 4 3
f 4 5 3
f 5 6 3
f 5 7 6
f 7 8 6
f 8 9 6
f 9 10 6
f 9 11 10
f 11 12 10
f 12 13 10
f 13 14 10
f 14 15 10
f 14 16 15
f 16 17 15
f 17 18 15
f 18 19 15
f 18 20 19
f 20 21 19
f 21 22 19
f 22 23 19
f 22 24 23
f 24 25 23
f 25 26 23
f 26 27 23
f 27 28 23
f 27 29 28
f 29 30 28
f 30 31 28
f 31 32 28
f 31 33 32
f 33 34 32
f 34 35 32
f 35 36 32
f 36 37 32
f 36 38 37
f 38 39 37
f 39 40 37
f 40 41 37
f 40 42 41
f 42 43 41
f 43 44 41
f 44 45 41
f 45 46 41
f 46 47 41
f 46 48 47
f 48 49 47
f 49 50 47
f 50 51 47
f 51 52 47
f 52 53 47
f 52 54 53
f 54 55 53
f 55 56 53
f 56 57 53
f 57 58 53
f 58 59 53
f 58 60 59
f 60 61 59
f 61 62 59
f 62 63 59
f 63 64 59
f 63 65 64
f 65 66 64
f 66 67 64
f 67 68 64
f 68 69 64
f 69 70 64
f 69 71 70
f 71 72 70
f 72 73 70
f 73 74 70
f 74 75 70
f 74 76 75
f 76 77 75
f 77 78 75
f 78 79 75
f 78 80 79
f 80 81 79
f 81 82 79
f 82 83 79
f 82 84 83
f 84 85 83
f 85 86 83
f 86 87 83
f 87 88 83
f 87 89 88
f 89 90 88
f 90 91 88
f 91 92 88
f 92 93 88
f 93 94 88
f 93 95 94
f 95 96 94
f 96 97 94
f 97 98 94
f 98 99 94
f 98 100 99
f 100 101 99
f 101 102 99
f 102 103 99
f 103 104 99
f 104 105 99
f 104 106 105
f 106 107 105
f 107 108 105
f 108 109 105
f 109 110 105
f 109 111 110
f 111 112 110
f 112 113 110
f 113 114 110
f 113 115 114
f 115 116 114
f 116 117 114
f 117 118 114
f 118 119 114
f 118 120 119
f 120 121 119
f 121 122 119
f 122 123 119
f 122 124 123
f 124 125 123
f 125 126 123
f 126 127 123
f 127 128 123
f 127 129 128
f 129 130 128
f 130 131 128
f 131 132 128
f 131 133 132
f 133 134 132
f 134 135 132
f 135 136 132
f 135 137 136
f 137 138 136
f 138 139 136
f 139 140 136
f 140 141 136
f 140 142 141
f 142 143 141
f 143 144 141
f 144 145 141
f 144 146 145
f 146 147 145
f 147 148 145
f 148 149 145
f 149 150 145
