v 0.262968 0.000000 -0.686458
v 0.239801 0.000000 -0.694890
v 0.239402 0.000000 -0.695026
v 0.238997 0.000000 -0.695145
v 0.238587 0.000000 -0.695247
v 0.238173 0.000000 -0.695331
v 0.237756 0.000000 -0.695398
v 0.237337 0.000000 -0.695447
v 0.236916 0.000000 -0.695479
v 0.236494 0.000000 -0.695493
v 0.236072 0.000000 -0.695488
v 0.235650 0.000000 -0.695466
v 0.235230 0.000000 -0.695427
v 0.234811 0.000000 -0.695369
v 0.234396 0.000000 -0.695294
v 0.233984 0.000000 -0.695202
v 0.233576 0.000000 -0.695092
v 0.233174 0.000000 -0.694965
v 0.232777 0.000000 -0.694821
v 0.232386 0.000000 -0.694660
v 0.232003 0.000000 -0.694484
v 0.231627 0.000000 -0.694291
v 0.231260 0.000000 -0.694082
v 0.230902 0.000000 -0.693858
v 0.230554 0.000000 -0.693620
v 0.230216 0.000000 -0.693366
v 0.229889 0.000000 -0.693099
v 0.229574 0.000000 -0.692818
v 0.229271 0.000000 -0.692524
v 0.228980 0.000000 -0.692218
v 0.228703 0.000000 -0.691899
v 0.228439 0.000000 -0.691570
v 0.228190 0.000000 -0.691229
v 0.193363 0.000000 -0.641491
v 0.195692 0.000000 -0.640784
v 0.198018 0.000000 -0.640069
v 0.200342 0.000000 -0.639346
v 0.202662 0.000000 -0.638614
v 0.204981 0.000000 -0.637874
v 0.207296 0.000000 -0.637125
v 0.209609 0.000000 -0.636368
v 0.211919 0.000000 -0.635602
v 0.214226 0.000000 -0.634828
v 0.216531 0.000000 -0.634046
v 0.218833 0.000000 -0.633255
v 0.221131 0.000000 -0.632456
v 0.223427 0.000000 -0.631649
v 0.225720 0.000000 -0.630833
v 0.228010 0.000000 -0.630009
v 0.230297 0.000000 -0.629177
v 0.232580 0.000000 -0.628336
v 0.234861 0.000000 -0.627487
v 0.237139 0.000000 -0.626630
v 0.239413 0.000000 -0.625765
v 0.241685 0.000000 -0.624891
v 0.243953 0.000000 -0.624009
v 0.246218 0.000000 -0.623119
v 0.248479 0.000000 -0.622220
v 0.250738 0.000000 -0.621314
v 0.252993 0.000000 -0.620399
v 0.255245 0.000000 -0.619476
v 0.257493 0.000000 -0.618544
v 0.259738 0.000000 -0.617605
v 0.261980 0.000000 -0.616658
v 0.264218 0.000000 -0.615702
v 0.269510 0.000000 -0.676190
v 0.269538 0.000000 -0.676611
v 0.269548 0.000000 -0.677033
v 0.269540 0.000000 -0.677455
v 0.269515 0.000000 -0.677877
v 0.269471 0.000000 -0.678297
v 0.269410 0.000000 -0.678714
v 0.269332 0.000000 -0.679129
v 0.269236 0.000000 -0.679540
v 0.269122 0.000000 -0.679947
v 0.268992 0.000000 -0.680349
v 0.268845 0.000000 -0.680744
v 0.268681 0.000000 -0.681134
v 0.268501 0.000000 -0.681516
v 0.268305 0.000000 -0.681890
v 0.268093 0.000000 -0.682255
v 0.267867 0.000000 -0.682611
v 0.267625 0.000000 -0.682957
v 0.267369 0.000000 -0.683293
v 0.267099 0.000000 -0.683618
v 0.266815 0.000000 -0.683930
v 0.266519 0.000000 -0.684231
v 0.266210 0.000000 -0.684519
v 0.265889 0.000000 -0.684793
v 0.265557 0.000000 -0.685054
v 0.265214 0.000000 -0.685301
v 0.264861 0.000000 -0.685533
v 0.264499 0.000000 -0.685749
v 0.264128 0.000000 -0.685951
v 0.263749 0.000000 -0.686136
v 0.263362 0.000000 -0.686305
f 96 1 2
f 96 2 3
f 96 3 4
f 96 4 5
f 96 5 6
f 96 6 7
f 96 7 8
f 96 8 9
f 96 9 10
f 96 10 11
f 96 11 12
f 96 12 13
f 96 13 14
f 96 14 15
f 96 15 16
f 96 16 17
f 96 17 18
f 96 18 19
f 96 19 20
f 96 20 21
f 96 21 22
f 96 22 23
f 96 23 24
f 96 24 25
f 96 25 26
f 96 26 27
f 96 27 28
f 96 28 29
f 96 29 30
f 96 30 31
f 96 31 32
f 96 32 33
f 96 33 34
f 96 34 35
f 96 35 36
f 96 36 37
f 96 37 38
f 96 38 39
f 96 39 40
f 96 40 41
f 96 41 42
f 96 42 43
f 96 43 44
f 96 44 45
f 96 45 46
f 96 46 47
f 96 47 48
f 96 48 49
f 96 49 50
f 96 50 51
f 96 51 52
f 96 52 53
f 96 53 54
f 96 54 55
f 96 55 56
f 96 56 57
f 96 57 58
f 96 58 59
f 96 59 60
f 96 60 61
f 96 61 62
f 96 62 63
f 96 63 64
f 96 64 65
f 96 65 66
f 96 66 67
f 96 67 68
f 96 68 69
f 96 69 70
f 96 70 71
f 96 71 72
f 96 72 73
f 96 73 74
f 96 74 75
f 96 75 76
f 96 76 77
f 96 77 78
f 96 78 79
f 96 79 80
f 96 80 81
f 96 81 82
f 96 82 83
f 96 83 84
f 96 84 85
f 96 85 86
f 96 86 87
f 96 87 88
f 96 88 89
f 96 89 90
f 96 90 91
f 96 91 92
f 96 92 93
f 96 93 94
f 94 95 96
