v -0.601329 0.187893 -1.051000
v -0.601755 0.186525 -1.051103
v -0.602168 0.185184 -1.051407
v -0.602562 0.183900 -1.051907
v -0.602928 0.182697 -1.052593
v -0.603259 0.181600 -1.053449
v -0.603550 0.180631 -1.054458
v -0.603795 0.179811 -1.055601
v -0.603990 0.179155 -1.056852
v -0.604131 0.178677 -1.058187
v -0.604217 0.178386 -1.059579
v -0.604246 0.178288 -1.061000
v -0.535320 0.173998 -1.051000
v -0.535614 0.172602 -1.051102
v -0.535902 0.171236 -1.051407
v -0.536178 0.169926 -1.051907
v -0.536436 0.168700 -1.052592
v -0.536671 0.167583 -1.053449
v -0.536878 0.166597 -1.054458
v -0.537054 0.165762 -1.055600
v -0.537195 0.165094 -1.056852
v -0.537297 0.164608 -1.058187
v -0.537359 0.164312 -1.059579
v -0.537380 0.164213 -1.061000
v -0.468454 0.159923 -1.051000
v -0.468748 0.158527 -1.051102
v -0.469036 0.157160 -1.051407
v -0.469312 0.155851 -1.051907
v -0.469570 0.154625 -1.052592
v -0.469805 0.153508 -1.053449
v -0.470012 0.152522 -1.054458
v -0.470188 0.151687 -1.055600
v -0.470329 0.151019 -1.056852
v -0.470431 0.150533 -1.058187
v -0.470493 0.150237 -1.059579
v -0.470514 0.150138 -1.061000
f 1 14 2
f 1 13 14
f 2 15 3
f 2 14 15
f 3 16 4
f 3 15 16
f 4 17 5
f 4 16 17
f 5 18 6
f 5 17 18
f 6 19 7
f 6 18 19
f 7 20 8
f 7 19 20
f 8 21 9
f 8 20 21
f 9 22 10
f 9 21 22
f 10 23 11
f 10 22 23
f 11 24 12
f 11 23 24
f 13 26 14
f 13 25 26
f 14 27 15
f 14 26 27
f 15 28 16
f 15 27 28
f 16 29 17
f 16 28 29
f 17 30 18
f 17 29 30
f 18 31 19
f 18 30 31
f 19 32 20
f 19 31 32
f 20 33 21
f 20 32 33
f 21 34 22
f 21 33 34
f 22 35 23
f 22 34 35
f 23 36 24
f 23 35 36
