v 0.264845 0.016837 -0.622869
v 0.264845 0.220000 -0.622869
v 0.269510 0.220000 -0.676190
v 0.262968 0.220000 -0.686458
v 0.262968 0.000000 -0.686458
v 0.269510 0.000000 -0.676190
v 0.264218 0.000000 -0.615702
v 0.264218 0.010000 -0.615702
v 0.264845 0.016837 -0.622869
v 0.264827 0.016611 -0.622631
v 0.264815 0.016388 -0.622394
v 0.264808 0.016168 -0.622157
v 0.264807 0.015951 -0.621922
v 0.264812 0.015736 -0.621687
v 0.264821 0.015525 -0.621453
v 0.264837 0.015317 -0.621220
v 0.264858 0.015112 -0.620989
v 0.264884 0.014911 -0.620758
v 0.264915 0.014712 -0.620529
v 0.264952 0.014517 -0.620301
v 0.264993 0.014325 -0.620075
v 0.265040 0.014137 -0.619850
v 0.265092 0.013952 -0.619627
v 0.265149 0.013770 -0.619405
v 0.265211 0.013592 -0.619185
v 0.265277 0.013418 -0.618966
v 0.265349 0.013247 -0.618750
v 0.265425 0.013080 -0.618535
v 0.265506 0.012916 -0.618323
v 0.265592 0.012757 -0.618112
v 0.265683 0.012601 -0.617904
v 0.265778 0.012450 -0.617698
v 0.265878 0.012302 -0.617494
v 0.265982 0.012159 -0.617293
v 0.266091 0.012020 -0.617095
v 0.266204 0.011885 -0.616899
v 0.266322 0.011754 -0.616706
v 0.266444 0.011628 -0.616515
v 0.266570 0.011506 -0.616328
v 0.266701 0.011388 -0.616143
v 0.266835 0.011275 -0.615962
v 0.266973 0.011166 -0.615784
v 0.267115 0.011063 -0.615609
v 0.267261 0.010963 -0.615438
v 0.267410 0.010869 -0.615270
v 0.267563 0.010779 -0.615105
v 0.267719 0.010694 -0.614945
v 0.267878 0.010614 -0.614788
v 0.268040 0.010539 -0.614636
v 0.268205 0.010469 -0.614487
v 0.268373 0.010403 -0.614342
v 0.268543 0.010343 -0.614202
v 0.268716 0.010288 -0.614066
v 0.268892 0.010237 -0.613934
v 0.269070 0.010192 -0.613806
v 0.269251 0.010151 -0.613683
v 0.269433 0.010116 -0.613564
v 0.269618 0.010085 -0.613449
v 0.269805 0.010059 -0.613339
v 0.269994 0.010038 -0.613232
v 0.270184 0.010021 -0.613130
v 0.270376 0.010009 -0.613033
v 0.270570 0.010002 -0.612940
v 0.270766 0.010000 -0.612851
f 3 4 5
f 2 3 5
f 2 5 6
f 6 7 8
f 10 11 12
f 10 12 13
f 10 13 14
f 10 14 15
f 10 15 16
f 10 16 17
f 10 17 18
f 10 18 19
f 10 19 20
f 10 20 21
f 10 21 22
f 10 22 23
f 10 23 24
f 10 24 25
f 10 25 26
f 10 26 27
f 10 27 28
f 10 28 29
f 10 29 30
f 10 30 31
f 10 31 32
f 10 32 33
f 10 33 34
f 10 34 35
f 10 35 36
f 10 36 37
f 10 37 38
f 10 38 39
f 10 39 40
f 10 40 41
f 10 41 42
f 10 42 43
f 10 43 44
f 10 44 45
f 10 45 46
f 10 46 47
f 10 47 48
f 10 48 49
f 10 49 50
f 10 50 51
f 10 51 52
f 10 52 53
f 10 53 54
f 10 54 55
f 10 55 56
f 10 56 57
f 10 57 58
f 10 58 59
f 10 59 60
f 10 60 61
f 10 61 62
f 10 62 63
f 10 63 64
f 1 2 6
f 1 6 8
f 1 8 9
f 1 9 10
f 1 10 64
