v 0.489108 0.076147 -1.051000
v 0.489327 0.074725 -1.051103
v 0.489538 0.073333 -1.051408
v 0.489736 0.072000 -1.051909
v 0.489917 0.070753 -1.052596
v 0.490080 0.069616 -1.053453
v 0.490222 0.068613 -1.054463
v 0.490340 0.067764 -1.055605
v 0.490433 0.067085 -1.056856
v 0.490500 0.066591 -1.058190
v 0.490541 0.066291 -1.059581
v 0.490555 0.066190 -1.061000
v 0.624820 0.080619 -1.051000
v 0.625002 0.079197 -1.051103
v 0.625177 0.077806 -1.051407
v 0.625341 0.076472 -1.051907
v 0.625493 0.075224 -1.052593
v 0.625629 0.074086 -1.053449
v 0.625747 0.073082 -1.054458
v 0.625846 0.072231 -1.055601
v 0.625924 0.071551 -1.056852
v 0.625980 0.071056 -1.058187
v 0.626014 0.070755 -1.059579
v 0.626026 0.070653 -1.061000
f 1 14 2
f 1 13 14
f 2 15 3
f 2 14 15
f 3 16 4
f 3 15 16
f 4 17 5
f 4 16 17
f 5 18 6
f 5 17 18
f 6 19 7
f 6 18 19
f 7 20 8
f 7 19 20
f 8 21 9
f 8 20 21
f 9 22 10
f 9 21 22
f 10 23 11
f 10 22 23
f 11 24 12
f 11 23 24
