v -0.994581 0.454410 -6.453631
v -0.985803 0.449592 -6.453631
v -0.970000 0.488788 -6.463000
v -0.975065 0.488788 -6.462872
v -0.980117 0.488788 -6.462487
v -1.069872 0.488788 -6.368065
v -1.070000 0.488788 -6.363000
v -1.069872 0.483800 -6.362120
v -1.069487 0.478824 -6.361243
v -1.068847 0.473875 -6.360370
v -1.067953 0.468964 -6.359504
v -1.066808 0.464103 -6.358647
v -1.065414 0.459306 -6.357802
v -1.063775 0.454585 -6.356969
v -1.061896 0.449951 -6.356152
v -1.059780 0.445417 -6.355353
v -1.057435 0.440995 -6.354573
v -1.054864 0.436695 -6.353815
v -1.052076 0.432529 -6.353080
v -1.049078 0.428507 -6.352371
v -1.045876 0.424640 -6.351689
v -1.042479 0.420938 -6.351036
v -1.038897 0.417409 -6.350414
v -1.035137 0.414065 -6.349824
v -1.031211 0.410911 -6.349268
v -1.027127 0.407958 -6.348748
v -1.022896 0.405212 -6.348263
v -1.018530 0.402681 -6.347817
v -1.014039 0.400371 -6.347410
v -1.009436 0.398288 -6.347042
v -1.004731 0.396437 -6.346716
v -0.999936 0.394823 -6.346432
v -0.995065 0.393451 -6.346190
v -0.990130 0.392323 -6.345991
v -0.985143 0.391442 -6.345835
v -0.980117 0.390812 -6.345724
v -0.975065 0.390433 -6.345657
v -0.970000 0.390307 -6.345635
v -0.970000 0.477551 -6.462367
v -0.970000 0.483160 -6.462842
v -0.973143 0.467373 -6.460630
v -0.978093 0.468714 -6.460630
v -0.976137 0.446974 -6.453631
v -1.007357 0.396130 -6.367362
v -1.006119 0.399202 -6.388882
v -1.028109 0.407521 -6.367362
v -1.026183 0.410215 -6.388882
v -1.003168 0.406521 -6.409175
v -0.998644 0.417740 -6.427279
v -0.992763 0.432328 -6.442335
v -1.014557 0.426474 -6.427279
v -1.063881 0.466061 -6.388882
v -1.055898 0.444610 -6.388882
v -1.037121 0.430799 -6.409175
v -1.029167 0.474464 -6.442335
v -1.038123 0.453752 -6.427279
v -1.027967 0.438707 -6.427279
v -1.005408 0.439268 -6.442335
v -1.016065 0.448990 -6.442335
v -0.991036 0.483695 -6.460630
v -1.007583 0.469459 -6.453631
v -0.989248 0.478889 -6.460630
v -1.001980 0.461159 -6.453631
v -0.986378 0.474638 -6.460630
v -0.985143 0.488788 -6.461847
v -0.990130 0.488788 -6.460953
v -1.069487 0.488788 -6.373117
v -0.970000 0.389486 -6.351204
v -0.970000 0.471978 -6.461577
v -1.045599 0.423474 -6.367362
v -1.021593 0.416634 -6.409175
v -1.048880 0.448219 -6.409175
v -1.024136 0.460945 -6.442335
v -0.970000 0.388979 -6.356811
v -0.970000 0.466457 -6.460475
v -1.056211 0.467918 -6.409175
v -1.065414 0.488788 -6.392936
v -1.066808 0.488788 -6.388065
v -1.067953 0.488788 -6.383130
v -1.068847 0.488788 -6.378143
v -0.970000 0.461007 -6.459064
v -1.043092 0.425640 -6.388882
v -1.011075 0.478844 -6.453631
v -0.982589 0.471182 -6.460630
v -1.054864 0.488788 -6.415896
v -1.057435 0.488788 -6.411530
v -1.059780 0.488788 -6.407039
v -1.061896 0.488788 -6.402436
v -1.063775 0.488788 -6.397731
v -0.970000 0.455646 -6.457348
v -1.058844 0.443095 -6.367362
v -0.995065 0.488788 -6.459808
v -0.999936 0.488788 -6.458414
v -1.004731 0.488788 -6.456775
v -1.009436 0.488788 -6.454896
v -1.014039 0.488788 -6.452780
v -1.018530 0.488788 -6.450435
v -1.022896 0.488788 -6.447864
v -1.027127 0.488788 -6.445076
v -1.031211 0.488788 -6.442078
v -1.035137 0.488788 -6.438876
v -1.038897 0.488788 -6.435479
v -1.042479 0.488788 -6.431897
v -1.045876 0.488788 -6.428137
v -1.049078 0.488788 -6.424211
v -1.052076 0.488788 -6.420127
v -0.970000 0.388789 -6.362437
v -0.970000 0.450389 -6.455334
v -0.970000 0.388916 -6.368065
v -0.970000 0.435414 -6.447565
v -0.970000 0.440257 -6.450435
v -0.970000 0.445254 -6.453027
v -0.970000 0.426250 -6.441032
v -0.970000 0.430740 -6.444428
v -0.970000 0.407034 -6.420588
v -0.970000 0.410404 -6.425097
v -0.970000 0.414023 -6.429409
v -0.970000 0.417878 -6.433511
v -0.970000 0.421958 -6.437390
v -0.970000 0.401081 -6.411037
v -0.970000 0.403923 -6.415896
v -0.970000 0.390118 -6.379255
v -0.970000 0.391189 -6.384781
v -0.970000 0.392569 -6.390239
v -0.970000 0.394254 -6.395610
v -0.970000 0.396239 -6.400878
v -0.970000 0.398517 -6.406026
v -1.044454 0.470764 -6.427279
v -0.970000 0.389359 -6.373677
v -1.067100 0.465282 -6.367362
v -0.978840 0.428557 -6.442335
v -0.981124 0.412995 -6.427279
v -0.982881 0.401027 -6.409175
v -0.984027 0.393219 -6.388882
v -0.984507 0.389942 -6.367362
v -1.024210 0.412974 -6.399244
f 1 2 3
f 3 4 5
f 6 7 8
f 8 9 10
f 10 11 12
f 12 13 14
f 14 15 16
f 16 17 18
f 18 19 20
f 20 21 22
f 22 23 24
f 24 25 26
f 26 27 28
f 28 29 30
f 30 31 32
f 32 33 34
f 34 35 36
f 36 37 38
f 39 40 41
f 41 42 43
f 44 45 46
f 47 48 49
f 49 50 51
f 52 53 54
f 55 56 57
f 57 58 59
f 60 61 62
f 62 63 64
f 5 65 3
f 65 66 3
f 67 6 8
f 8 10 12
f 12 14 16
f 16 18 20
f 20 22 24
f 24 26 28
f 28 30 32
f 32 34 36
f 36 38 68
f 69 39 41
f 49 136 47
f 136 70 47
f 49 51 71
f 52 54 72
f 57 59 73
f 67 8 12
f 12 16 20
f 20 24 28
f 28 32 36
f 36 68 74
f 75 69 41
f 70 136 71
f 136 49 71
f 52 72 76
f 55 57 73
f 77 78 12
f 78 79 12
f 79 80 12
f 80 67 12
f 12 20 28
f 28 36 74
f 81 75 41
f 70 71 82
f 55 73 83
f 84 1 3
f 85 86 12
f 86 87 12
f 87 88 12
f 88 89 12
f 89 77 12
f 12 28 74
f 90 81 41
f 70 82 91
f 64 84 3
f 66 92 12
f 92 93 12
f 93 94 12
f 94 95 12
f 95 96 12
f 96 97 12
f 97 98 12
f 98 99 12
f 99 100 12
f 100 101 12
f 101 102 12
f 102 103 12
f 103 104 12
f 104 105 12
f 105 106 12
f 106 85 12
f 12 74 107
f 108 90 41
f 62 64 3
f 12 107 109
f 110 111 41
f 111 112 41
f 112 108 41
f 60 62 3
f 113 114 41
f 114 110 41
f 60 3 66
f 115 116 41
f 116 117 41
f 117 118 41
f 118 119 41
f 119 113 41
f 83 60 66
f 120 121 41
f 121 115 41
f 55 83 66
f 122 123 41
f 123 124 41
f 124 125 41
f 125 126 41
f 126 127 41
f 127 120 41
f 128 55 66
f 129 122 41
f 76 128 66
f 109 129 41
f 52 76 66
f 109 41 43
f 130 52 66
f 109 43 131
f 130 66 12
f 109 131 132
f 91 130 12
f 109 132 133
f 70 91 12
f 109 133 134
f 46 70 12
f 109 134 135
f 44 46 12
f 12 109 135
f 135 44 12
