v 0.392500 0.378429 -6.413000
v 0.392793 0.376481 -6.424046
v 0.392500 0.275000 -6.413000
v 0.393590 0.275000 -6.434498
v 0.393688 0.374498 -6.435293
v 0.395208 0.372489 -6.446687
v 0.396850 0.275000 -6.455776
v 0.397375 0.370463 -6.458173
v 0.400212 0.368431 -6.469697
v 0.402245 0.275000 -6.476615
v 0.403743 0.366402 -6.481206
v 0.407991 0.364385 -6.492644
v 0.409721 0.275000 -6.496801
v 0.412967 0.362391 -6.503956
v 0.418656 0.360430 -6.515076
v 0.419201 0.275000 -6.516127
v 0.425035 0.358514 -6.525939
v 0.430588 0.275000 -6.534394
v 0.432083 0.356656 -6.536478
v 0.439779 0.354866 -6.546629
v 0.443764 0.275000 -6.551417
v 0.448101 0.353156 -6.556326
v 0.457027 0.351538 -6.565502
v 0.458595 0.275000 -6.567018
v 0.466517 0.350021 -6.574105
v 0.474927 0.275000 -6.581040
v 0.476497 0.348610 -6.582107
v 0.486889 0.347310 -6.589483
v 0.492595 0.275000 -6.593337
v 0.497615 0.346124 -6.596208
v 0.508595 0.345057 -6.602257
v 0.511416 0.275000 -6.603783
v 0.519752 0.344115 -6.607605
v 0.531008 0.343300 -6.612227
v 0.531198 0.275000 -6.612272
v 0.542313 0.342613 -6.616118
v 0.551736 0.275000 -6.618716
v 0.553657 0.342052 -6.619301
v 0.565033 0.341612 -6.621799
v 0.572822 0.275000 -6.623050
v 0.576434 0.341288 -6.623637
v 0.587853 0.341076 -6.624838
v 0.594237 0.275000 -6.625227
v 0.599283 0.340972 -6.625427
v 0.610717 0.340972 -6.625427
v 0.615763 0.275000 -6.625227
v 0.622147 0.341076 -6.624838
v 0.633566 0.341288 -6.623637
v 0.637178 0.275000 -6.623050
v 0.644967 0.341612 -6.621799
v 0.656343 0.342052 -6.619301
v 0.658264 0.275000 -6.618716
v 0.667687 0.342613 -6.616118
v 0.678802 0.275000 -6.612272
v 0.678992 0.343300 -6.612227
v 0.690248 0.344115 -6.607605
v 0.698584 0.275000 -6.603783
v 0.701405 0.345057 -6.602257
v 0.712385 0.346124 -6.596208
v 0.717405 0.275000 -6.593337
v 0.723111 0.347310 -6.589483
v 0.733503 0.348610 -6.582107
v 0.735073 0.275000 -6.581040
v 0.743483 0.350021 -6.574105
v 0.751405 0.275000 -6.567018
v 0.752973 0.351538 -6.565502
v 0.761899 0.353156 -6.556326
v 0.766236 0.275000 -6.551417
v 0.770221 0.354866 -6.546629
v 0.777917 0.356656 -6.536478
v 0.779412 0.275000 -6.534394
v 0.784965 0.358514 -6.525939
v 0.790799 0.275000 -6.516127
v 0.791344 0.360430 -6.515076
v 0.797033 0.362391 -6.503956
v 0.800279 0.275000 -6.496801
v 0.802009 0.364385 -6.492644
v 0.806257 0.366402 -6.481206
v 0.807755 0.275000 -6.476615
v 0.809788 0.368431 -6.469697
v 0.812625 0.370463 -6.458173
v 0.813150 0.275000 -6.455776
v 0.814792 0.372489 -6.446687
v 0.816312 0.374498 -6.435293
v 0.816410 0.275000 -6.434498
v 0.817207 0.376481 -6.424046
v 0.817500 0.378429 -6.413000
v 0.817500 0.275000 -6.413000
f 1 2 3
f 2 4 3
f 2 5 4
f 5 6 4
f 6 7 4
f 6 8 7
f 8 9 7
f 9 10 7
f 9 11 10
f 11 12 10
f 12 13 10
f 12 14 13
f 14 15 13
f 15 16 13
f 15 17 16
f 17 18 16
f 17 19 18
f 19 20 18
f 20 21 18
f 20 22 21
f 22 23 21
f 23 24 21
f 23 25 24
f 25 26 24
f 25 27 26
f 27 28 26
f 28 29 26
f 28 30 29
f 30 31 29
f 31 32 29
f 31 33 32
f 33 34 32
f 34 35 32
f 34 36 35
f 36 37 35
f 36 38 37
f 38 39 37
f 39 40 37
f 39 41 40
f 41 42 40
f 42 43 40
f 42 44 43
f 44 45 43
f 45 46 43
f 45 47 46
f 47 48 46
f 48 49 46
f 48 50 49
f 50 51 49
f 51 52 49
f 51 53 52
f 53 54 52
f 53 55 54
f 55 56 54
f 56 57 54
f 56 58 57
f 58 59 57
f 59 60 57
f 59 61 60
f 61 62 60
f 62 63 60
f 62 64 63
f 64 65 63
f 64 66 65
f 66 67 65
f 67 68 65
f 67 69 68
f 69 70 68
f 70 71 68
f 70 72 71
f 72 73 71
f 72 74 73
f 74 75 73
f 75 76 73
f 75 77 76
f 77 78 76
f 78 79 76
f 78 80 79
f 80 81 79
f 81 82 79
f 81 83 82
f 83 84 82
f 84 85 82
f 84 86 85
f 86 87 85
f 87 88 85
