v -0.044829 0.010000 -0.668499
v -0.047456 0.010000 -0.668317
v -0.050083 0.010000 -0.668126
v -0.052708 0.010000 -0.667924
v -0.055333 0.010000 -0.667711
v -0.057957 0.010000 -0.667489
v -0.060580 0.010000 -0.667256
v -0.063202 0.010000 -0.667012
v -0.065823 0.010000 -0.666759
v -0.068444 0.010000 -0.666495
v -0.071063 0.010000 -0.666221
v -0.044829 0.220000 -0.668499
v -0.047456 0.220000 -0.668317
v -0.050083 0.220000 -0.668126
v -0.052708 0.220000 -0.667924
v -0.055333 0.220000 -0.667711
v -0.057957 0.220000 -0.667489
v -0.060580 0.220000 -0.667256
v -0.063202 0.220000 -0.667012
v -0.065823 0.220000 -0.666759
v -0.068444 0.220000 -0.666495
v -0.071063 0.220000 -0.666221
f 1 2 13
f 1 13 12
f 2 3 14
f 2 14 13
f 3 4 15
f 3 15 14
f 4 5 16
f 4 16 15
f 5 6 17
f 5 17 16
f 6 7 18
f 6 18 17
f 7 8 19
f 7 19 18
f 8 9 20
f 8 20 19
f 9 10 21
f 9 21 20
f 10 11 22
f 10 22 21
