v 0.025000 -1.301943 0.100000
v 0.029931 -1.301842 0.100024
v 0.025000 -1.325000 0.100000
v 0.034933 -1.301746 0.100099
v 0.040004 -1.301655 0.100226
v 0.045143 -1.301569 0.100407
v 0.050325 -1.325000 0.100642
v 0.050348 -1.301490 0.100644
v 0.055618 -1.301416 0.100939
v 0.060951 -1.301349 0.101294
v 0.066347 -1.301288 0.101712
v 0.071806 -1.301234 0.102194
v 0.075584 -1.325000 0.102565
v 0.077332 -1.301187 0.102744
v 0.082925 -1.301147 0.103365
v 0.088587 -1.301115 0.104059
v 0.094321 -1.301090 0.104828
v 0.100127 -1.301074 0.105676
v 0.100714 -1.325000 0.105766
v 0.106009 -1.301065 0.106606
v 0.111964 -1.301066 0.107621
v 0.117995 -1.301075 0.108724
v 0.124101 -1.301093 0.109919
v 0.125649 -1.325000 0.110235
v 0.130282 -1.301121 0.111210
v 0.136538 -1.301158 0.112600
v 0.142870 -1.301206 0.114092
v 0.149277 -1.301263 0.115690
v 0.150326 -1.325000 0.115961
v 0.155760 -1.301331 0.117400
v 0.162317 -1.301409 0.119224
v 0.168950 -1.301498 0.121169
v 0.174682 -1.325000 0.122930
v 0.175658 -1.301598 0.123237
v 0.182440 -1.301710 0.125434
v 0.189296 -1.301833 0.127764
v 0.196226 -1.301967 0.130232
v 0.198653 -1.325000 0.131124
v 0.203226 -1.302113 0.132842
v 0.210295 -1.302270 0.135600
v 0.217429 -1.302439 0.138511
v 0.222178 -1.325000 0.140521
v 0.224626 -1.302620 0.141578
v 0.231883 -1.302812 0.144808
v 0.239199 -1.303016 0.148205
v 0.245197 -1.325000 0.151098
v 0.246569 -1.303231 0.151774
v 0.253990 -1.303457 0.155520
v 0.261458 -1.303694 0.159448
v 0.267651 -1.325000 0.162827
v 0.268969 -1.303941 0.163563
v 0.276520 -1.304198 0.167870
v 0.284106 -1.304464 0.172374
v 0.289482 -1.325000 0.175678
v 0.291723 -1.304740 0.177081
v 0.299370 -1.305024 0.181997
v 0.307043 -1.305316 0.187133
v 0.310634 -1.325000 0.189618
v 0.314742 -1.305615 0.192498
v 0.322462 -1.305921 0.198101
v 0.330203 -1.306233 0.203951
v 0.331053 -1.325000 0.204612
v 0.337962 -1.306549 0.210058
v 0.345736 -1.306870 0.216430
v 0.350686 -1.325000 0.220621
v 0.353515 -1.307193 0.223072
v 0.361285 -1.307517 0.229989
v 0.369035 -1.307840 0.237182
v 0.369483 -1.325000 0.237604
v 0.376750 -1.308160 0.244655
v 0.384420 -1.308474 0.252413
v 0.387396 -1.325000 0.255517
v 0.392030 -1.308783 0.260458
v 0.398058 -1.309022 0.267094
v 0.403906 -1.309249 0.273767
v 0.404379 -1.325000 0.274314
v 0.409576 -1.309463 0.280472
v 0.415068 -1.309664 0.287204
v 0.420388 -1.325000 0.293947
v 0.420386 -1.309853 0.293956
v 0.425532 -1.310028 0.300724
v 0.430507 -1.310190 0.307501
v 0.435314 -1.310338 0.314282
v 0.435382 -1.325000 0.314366
v 0.439955 -1.310472 0.321062
v 0.444431 -1.310592 0.327834
v 0.448744 -1.310697 0.334593
v 0.449322 -1.325000 0.335518
v 0.452898 -1.310788 0.341335
v 0.456896 -1.310864 0.348058
v 0.460740 -1.310927 0.354760
v 0.462173 -1.325000 0.357349
v 0.464436 -1.310974 0.361441
v 0.467987 -1.311009 0.368099
v 0.471397 -1.311029 0.374733
v 0.473902 -1.325000 0.379803
v 0.474670 -1.311036 0.381343
v 0.477809 -1.311030 0.387926
v 0.480818 -1.311012 0.394483
v 0.483702 -1.310980 0.401012
v 0.484479 -1.325000 0.402822
v 0.486463 -1.310936 0.407512
v 0.489107 -1.310879 0.413982
v 0.491634 -1.310811 0.420421
v 0.493876 -1.325000 0.426347
v 0.494048 -1.310731 0.426827
v 0.496351 -1.310639 0.433198
v 0.498546 -1.310536 0.439535
v 0.500634 -1.310422 0.445834
v 0.502070 -1.325000 0.450318
v 0.502619 -1.310296 0.452095
v 0.504502 -1.310161 0.458317
v 0.506286 -1.310015 0.464498
v 0.507973 -1.309858 0.470636
v 0.509039 -1.325000 0.474674
v 0.509567 -1.309692 0.476731
v 0.511068 -1.309516 0.482782
v 0.512480 -1.309331 0.488788
v 0.513804 -1.309136 0.494750
v 0.514765 -1.325000 0.499351
v 0.515042 -1.308933 0.500669
v 0.516197 -1.308720 0.506545
v 0.517271 -1.308498 0.512378
v 0.518266 -1.308268 0.518170
v 0.519185 -1.308030 0.523921
v 0.519234 -1.325000 0.524286
v 0.520028 -1.307783 0.529631
v 0.520798 -1.307528 0.535301
v 0.521499 -1.307266 0.540931
v 0.522130 -1.306996 0.546521
v 0.522435 -1.325000 0.549416
v 0.522695 -1.306718 0.552072
v 0.523194 -1.306433 0.557580
v 0.523629 -1.306141 0.563046
v 0.524001 -1.305843 0.568468
v 0.524312 -1.305538 0.573844
v 0.524358 -1.325000 0.574675
v 0.524564 -1.305227 0.579173
v 0.524757 -1.304910 0.584455
v 0.524893 -1.304588 0.589688
v 0.524973 -1.304260 0.594870
v 0.525000 -1.303926 0.600000
v 0.525000 -1.325000 0.600000
f 1 3 2
f 2 3 4
f 4 3 5
f 5 3 6
f 6 3 7
f 6 7 8
f 8 7 9
f 9 7 10
f 10 7 11
f 11 7 12
f 12 7 13
f 12 13 14
f 14 13 15
f 15 13 16
f 16 13 17
f 17 13 18
f 18 13 19
f 18 19 20
f 20 19 21
f 21 19 22
f 22 19 23
f 23 19 24
f 23 24 25
f 25 24 26
f 26 24 27
f 27 24 28
f 28 24 29
f 28 29 30
f 30 29 31
f 31 29 32
f 32 29 33
f 32 33 34
f 34 33 35
f 35 33 36
f 36 33 37
f 37 33 38
f 37 38 39
f 39 38 40
f 40 38 41
f 41 38 42
f 41 42 43
f 43 42 44
f 44 42 45
f 45 42 46
f 45 46 47
f 47 46 48
f 48 46 49
f 49 46 50
f 49 50 51
f 51 50 52
f 52 50 53
f 53 50 54
f 53 54 55
f 55 54 56
f 56 54 57
f 57 54 58
f 57 58 59
f 59 58 60
f 60 58 61
f 61 58 62
f 61 62 63
f 63 62 64
f 64 62 65
f 64 65 66
f 66 65 67
f 67 65 68
f 68 65 69
f 68 69 70
f 70 69 71
f 71 69 72
f 71 72 73
f 73 72 74
f 74 72 75
f 75 72 76
f 75 76 77
f 77 76 78
f 78 76 79
f 78 79 80
f 80 79 81
f 81 79 82
f 82 79 83
f 83 79 84
f 83 84 85
f 85 84 86
f 86 84 87
f 87 84 88
f 87 88 89
f 89 88 90
f 90 88 91
f 91 88 92
f 91 92 93
f 93 92 94
f 94 92 95
f 95 92 96
f 95 96 97
f 97 96 98
f 98 96 99
f 99 96 100
f 100 96 101
f 100 101 102
f 102 101 103
f 103 101 104
f 104 101 105
f 104 105 106
f 106 105 107
f 107 105 108
f 108 105 109
f 109 105 110
f 109 110 111
f 111 110 112
f 112 110 113
f 113 110 114
f 114 110 115
f 114 115 116
f 116 115 117
f 117 115 118
f 118 115 119
f 119 115 120
f 119 120 121
f 121 120 122
f 122 120 123
f 123 120 124
f 124 120 125
f 125 120 126
f 125 126 127
f 127 126 128
f 128 126 129
f 129 126 130
f 130 126 131
f 130 131 132
f 132 131 133
f 133 131 134
f 134 131 135
f 135 131 136
f 136 131 137
f 136 137 138
f 138 137 139
f 139 137 140
f 140 137 141
f 141 137 142
f 142 137 143
