v 1.889011 0.565914 -6.288094
v 1.891222 0.545468 -6.289946
v 1.890126 0.555693 -6.289028
v 1.892296 0.535240 -6.290847
v 1.893351 0.525008 -6.291730
v 1.894385 0.514772 -6.292597
v 1.895399 0.504534 -6.293446
v 1.896392 0.494291 -6.294278
v 1.897366 0.484046 -6.295093
v 1.898318 0.473797 -6.295891
v 1.899251 0.463545 -6.296672
v 1.900163 0.453290 -6.297436
v 1.901054 0.443032 -6.298182
v 1.901926 0.432770 -6.298912
v 1.902776 0.422506 -6.299624
v 1.903607 0.412240 -6.300320
v 1.904417 0.401970 -6.300998
v 1.905207 0.391698 -6.301659
v 1.905976 0.381423 -6.302303
v 1.906724 0.371146 -6.302930
v 1.907453 0.360866 -6.303539
v 1.908161 0.350583 -6.304132
v 1.908848 0.340299 -6.304707
v 1.909515 0.330012 -6.305265
v 1.910161 0.319723 -6.305806
v 1.910787 0.309431 -6.306330
v 1.911393 0.299138 -6.306837
v 1.911978 0.288842 -6.307326
v 1.912542 0.278545 -6.307799
v 1.913087 0.268246 -6.308254
v 1.913610 0.257944 -6.308692
v 1.914113 0.247641 -6.309113
v 1.914596 0.237337 -6.309517
v 1.892292 0.566201 -6.287565
v 1.895562 0.566481 -6.286964
v 1.898818 0.566753 -6.286291
v 1.902059 0.567016 -6.285545
v 1.905284 0.567271 -6.284727
v 1.908490 0.567518 -6.283838
v 1.911676 0.567756 -6.282878
v 1.914841 0.567985 -6.281848
v 1.917982 0.568205 -6.280748
v 1.921100 0.568416 -6.279578
v 1.915121 0.247680 -6.308951
v 1.915625 0.258024 -6.308361
v 1.916109 0.268370 -6.307748
v 1.916573 0.278716 -6.307110
v 1.917016 0.289063 -6.306448
v 1.917439 0.299411 -6.305763
v 1.917842 0.309760 -6.305054
v 1.918223 0.320110 -6.304321
v 1.918584 0.330460 -6.303563
v 1.918925 0.340810 -6.302782
v 1.919245 0.351161 -6.301978
v 1.919544 0.361512 -6.301149
v 1.919822 0.371863 -6.300296
v 1.920079 0.382214 -6.299420
v 1.920315 0.392565 -6.298520
v 1.920531 0.402916 -6.297595
v 1.920725 0.413266 -6.296647
v 1.920899 0.423617 -6.295676
v 1.921051 0.433966 -6.294680
v 1.921183 0.444315 -6.293661
v 1.921293 0.454664 -6.292618
v 1.921382 0.465011 -6.291551
v 1.921450 0.475358 -6.290460
v 1.921497 0.485703 -6.289346
v 1.921522 0.496047 -6.288208
v 1.921526 0.506391 -6.287046
v 1.921508 0.516732 -6.285860
v 1.921470 0.527072 -6.284651
v 1.921409 0.537411 -6.283418
v 1.921328 0.547748 -6.282162
v 1.921224 0.558083 -6.280881
v 1.915500 0.216722 -6.310273
v 1.915058 0.227030 -6.309903
v 1.915921 0.206413 -6.310625
v 1.916321 0.196102 -6.310960
v 1.916701 0.185789 -6.311278
v 1.917061 0.175475 -6.311579
v 1.917400 0.165160 -6.311863
v 1.917718 0.154844 -6.312129
v 1.918016 0.144526 -6.312378
v 1.918294 0.134208 -6.312610
v 1.918550 0.123888 -6.312825
v 1.918787 0.113567 -6.313023
v 1.919003 0.103246 -6.313203
v 1.919198 0.092924 -6.313367
v 1.919373 0.082601 -6.313513
v 1.919527 0.072277 -6.313642
v 1.919660 0.061953 -6.313753
v 1.919773 0.051628 -6.313848
v 1.919866 0.041303 -6.313925
v 1.919938 0.030978 -6.313986
v 1.919989 0.020652 -6.314029
v 1.920020 0.010326 -6.314054
v 1.920030 0.000000 -6.314063
v 1.926461 0.000000 -6.312895
v 1.932835 0.000000 -6.311448
v 1.939140 0.000000 -6.309724
v 1.945363 0.000000 -6.307728
v 1.951494 0.000000 -6.305462
v 1.957520 0.000000 -6.302932
v 1.963430 0.000000 -6.300141
v 1.969213 0.000000 -6.297095
v 1.974858 0.000000 -6.293801
v 1.980354 0.000000 -6.290263
v 1.924191 0.568618 -6.278339
v 1.927254 0.568811 -6.277032
v 1.930289 0.568994 -6.275657
v 1.933292 0.569168 -6.274216
v 1.936264 0.569333 -6.272708
v 1.939202 0.569488 -6.271135
v 1.942104 0.569633 -6.269497
v 1.944971 0.569769 -6.267796
v 1.947799 0.569895 -6.266031
v 1.950588 0.570011 -6.264204
v 1.980333 0.010398 -6.290262
v 1.980293 0.020796 -6.290244
v 1.980233 0.031193 -6.290207
v 1.980155 0.041591 -6.290154
v 1.980057 0.051988 -6.290082
v 1.979939 0.062384 -6.289994
v 1.979802 0.072780 -6.289887
v 1.979646 0.083176 -6.289763
v 1.979471 0.093571 -6.289622
v 1.979276 0.103965 -6.289463
v 1.979062 0.114358 -6.289286
v 1.978829 0.124751 -6.289092
v 1.978577 0.135142 -6.288881
v 1.978305 0.145533 -6.288652
v 1.978014 0.155923 -6.288405
v 1.977703 0.166312 -6.288141
v 1.977374 0.176699 -6.287859
v 1.977025 0.187086 -6.287560
v 1.976657 0.197471 -6.287244
v 1.976269 0.207855 -6.286910
v 1.975863 0.218237 -6.286558
v 1.975437 0.228618 -6.286189
v 1.974991 0.238997 -6.285802
v 1.974527 0.249375 -6.285398
v 1.974043 0.259752 -6.284976
v 1.973540 0.270126 -6.284537
v 1.973018 0.280499 -6.284080
v 1.972476 0.290870 -6.283606
v 1.971915 0.301240 -6.283115
v 1.971335 0.311607 -6.282605
v 1.970736 0.321973 -6.282079
v 1.970117 0.332336 -6.281535
v 1.969479 0.342698 -6.280973
v 1.968822 0.353057 -6.280394
v 1.968146 0.363414 -6.279798
v 1.967451 0.373769 -6.279184
v 1.966736 0.384122 -6.278552
v 1.966002 0.394472 -6.277903
v 1.965249 0.404820 -6.277237
v 1.964477 0.415166 -6.276553
v 1.963685 0.425509 -6.275852
v 1.962874 0.435849 -6.275133
v 1.962044 0.446187 -6.274397
v 1.961195 0.456522 -6.273643
v 1.960327 0.466855 -6.272872
v 1.959439 0.477184 -6.272084
v 1.958532 0.487511 -6.271278
v 1.957606 0.497834 -6.270455
v 1.956661 0.508155 -6.269614
v 1.955697 0.518472 -6.268756
v 1.954714 0.528787 -6.267880
v 1.953711 0.539098 -6.266987
v 1.952689 0.549405 -6.266077
v 1.951648 0.559710 -6.265149
v 1.990858 0.000000 -6.282488
v 1.985691 0.000000 -6.286490
v 1.995846 0.000000 -6.278264
v 2.000645 0.000000 -6.273827
v 2.005247 0.000000 -6.269186
v 2.009642 0.000000 -6.264348
v 2.013822 0.000000 -6.259323
v 2.017779 0.000000 -6.254121
v 2.021505 0.000000 -6.248752
v 2.024995 0.000000 -6.243225
v 1.953337 0.570117 -6.262316
v 1.956043 0.570213 -6.260368
v 1.958706 0.570299 -6.258360
v 1.961324 0.570376 -6.256294
v 1.963897 0.570442 -6.254170
v 1.966422 0.570498 -6.251990
v 1.968898 0.570543 -6.249755
v 1.971325 0.570579 -6.247466
v 1.973701 0.570605 -6.245124
v 1.976024 0.570620 -6.242730
v 1.978295 0.570625 -6.240286
v 1.980510 0.570620 -6.237792
v 1.982671 0.570605 -6.235250
v 1.984775 0.570579 -6.232661
v 1.986821 0.570543 -6.230026
v 1.988809 0.570498 -6.227347
v 1.990737 0.570442 -6.224625
v 1.992604 0.570376 -6.221861
v 1.994410 0.570299 -6.219057
v 1.996154 0.570213 -6.216214
v 1.997834 0.570117 -6.213334
v 2.025022 0.010402 -6.243155
v 2.025030 0.020803 -6.243067
v 2.025019 0.031204 -6.242962
v 2.024988 0.041604 -6.242839
v 2.024938 0.052005 -6.242698
v 2.024869 0.062404 -6.242540
v 2.024780 0.072804 -6.242364
v 2.024672 0.083202 -6.242171
v 2.024544 0.093600 -6.241961
v 2.024398 0.103997 -6.241732
v 2.024232 0.114394 -6.241486
v 2.024046 0.124789 -6.241223
v 2.023842 0.135184 -6.240942
v 2.023618 0.145577 -6.240644
v 2.023374 0.155970 -6.240328
v 2.023112 0.166361 -6.239994
v 2.022830 0.176752 -6.239643
v 2.022529 0.187140 -6.239274
v 2.022208 0.197528 -6.238888
v 2.021868 0.207914 -6.238484
v 2.021509 0.218299 -6.238063
v 2.021131 0.228682 -6.237624
v 2.020733 0.239064 -6.237168
v 2.020316 0.249444 -6.236694
v 2.019879 0.259823 -6.236203
v 2.019424 0.270199 -6.235694
v 2.018949 0.280574 -6.235168
v 2.018455 0.290947 -6.234624
v 2.017941 0.301319 -6.234063
v 2.017408 0.311688 -6.233484
v 2.016856 0.322055 -6.232888
v 2.016285 0.332420 -6.232274
v 2.015694 0.342784 -6.231642
v 2.015085 0.353145 -6.230994
v 2.014455 0.363503 -6.230327
v 2.013807 0.373860 -6.229643
v 2.013139 0.384214 -6.228942
v 2.012453 0.394566 -6.228223
v 2.011746 0.404915 -6.227487
v 2.011021 0.415262 -6.226733
v 2.010276 0.425606 -6.225962
v 2.009513 0.435947 -6.225174
v 2.008729 0.446286 -6.224367
v 2.007927 0.456622 -6.223544
v 2.007106 0.466956 -6.222703
v 2.006265 0.477286 -6.221844
v 2.005405 0.487613 -6.220969
v 2.004526 0.497937 -6.220075
v 2.003627 0.508259 -6.219164
v 2.002710 0.518577 -6.218236
v 2.001773 0.528891 -6.217291
v 2.000817 0.539203 -6.216327
v 1.999842 0.549511 -6.215347
v 1.998848 0.559816 -6.214349
v 2.031235 0.000000 -6.231743
v 2.028240 0.000000 -6.237552
v 2.033974 0.000000 -6.225808
v 2.036452 0.000000 -6.219760
v 2.038664 0.000000 -6.213610
v 2.040606 0.000000 -6.207369
v 2.042275 0.000000 -6.201050
v 2.043666 0.000000 -6.194664
v 2.044778 0.000000 -6.188223
v 2.045608 0.000000 -6.181740
v 2.046156 0.000000 -6.175227
v 2.046146 0.010326 -6.175218
v 2.046117 0.020652 -6.175189
v 2.046070 0.030978 -6.175142
v 2.046003 0.041303 -6.175076
v 2.045917 0.051628 -6.174992
v 2.045812 0.061953 -6.174888
v 2.045688 0.072277 -6.174766
v 2.045545 0.082601 -6.174625
v 2.045383 0.092924 -6.174465
v 2.045202 0.103246 -6.174286
v 2.045001 0.113567 -6.174089
v 2.044782 0.123888 -6.173872
v 2.044543 0.134208 -6.173637
v 2.044286 0.144526 -6.173383
v 2.044009 0.154844 -6.173111
v 2.043714 0.165160 -6.172819
v 2.043399 0.175475 -6.172509
v 2.043065 0.185789 -6.172180
v 2.042712 0.196102 -6.171832
v 2.042340 0.206413 -6.171465
v 2.041949 0.216722 -6.171080
v 2.041539 0.227030 -6.170676
v 1.999451 0.570011 -6.210417
v 2.001002 0.569895 -6.207466
v 2.002488 0.569769 -6.204482
v 2.003908 0.569633 -6.201466
v 2.005260 0.569488 -6.198419
v 2.006545 0.569333 -6.195344
v 2.007761 0.569168 -6.192242
v 2.008908 0.568994 -6.189114
v 2.009986 0.568811 -6.185962
v 2.010994 0.568618 -6.182788
v 2.041041 0.237376 -6.171340
v 2.040515 0.247723 -6.171986
v 2.039963 0.258071 -6.172614
v 2.039384 0.268421 -6.173223
v 2.038778 0.278772 -6.173815
v 2.038146 0.289124 -6.174388
v 2.037487 0.299476 -6.174944
v 2.036801 0.309830 -6.175480
v 2.036089 0.320184 -6.175999
v 2.035350 0.330539 -6.176499
v 2.034584 0.340894 -6.176980
v 2.033791 0.351250 -6.177443
v 2.032972 0.361606 -6.177888
v 2.032126 0.371963 -6.178313
v 2.031253 0.382319 -6.178720
v 2.030354 0.392675 -6.179109
v 2.029428 0.403032 -6.179478
v 2.028475 0.413388 -6.179828
v 2.027496 0.423743 -6.180160
v 2.026490 0.434098 -6.180473
v 2.025457 0.444453 -6.180766
v 2.024398 0.454807 -6.181041
v 2.023312 0.465160 -6.181296
v 2.022200 0.475512 -6.181533
v 2.021061 0.485863 -6.181750
v 2.019895 0.496212 -6.181947
v 2.018703 0.506561 -6.182126
v 2.017485 0.516908 -6.182285
v 2.016239 0.527253 -6.182424
v 2.014968 0.537597 -6.182545
v 2.013670 0.547939 -6.182645
v 2.012345 0.558280 -6.182726
v 2.040662 0.247641 -6.169811
v 2.041110 0.237337 -6.170253
v 2.040195 0.257944 -6.169350
v 2.039709 0.268246 -6.168871
v 2.039203 0.278545 -6.168373
v 2.038679 0.288842 -6.167856
v 2.038136 0.299138 -6.167321
v 2.037573 0.309431 -6.166767
v 2.036992 0.319723 -6.166194
v 2.036392 0.330012 -6.165602
v 2.035772 0.340299 -6.164991
v 2.035134 0.350583 -6.164362
v 2.034476 0.360866 -6.163714
v 2.033800 0.371146 -6.163048
v 2.033104 0.381423 -6.162363
v 2.032390 0.391698 -6.161659
v 2.031656 0.401970 -6.160936
v 2.030903 0.412240 -6.160194
v 2.030132 0.422506 -6.159434
v 2.029341 0.432770 -6.158656
v 2.028532 0.443032 -6.157858
v 2.027703 0.453290 -6.157042
v 2.026855 0.463545 -6.156207
v 2.025989 0.473797 -6.155354
v 2.025103 0.484046 -6.154482
v 2.024199 0.494291 -6.153591
v 2.023275 0.504534 -6.152682
v 2.022333 0.514772 -6.151754
v 2.021372 0.525008 -6.150808
v 2.020391 0.535240 -6.149843
v 2.019392 0.545468 -6.148859
v 2.018374 0.555693 -6.147857
v 2.017336 0.565914 -6.146836
v 2.011931 0.568416 -6.179592
v 2.012797 0.568205 -6.176378
v 2.013592 0.567985 -6.173145
v 2.014315 0.567756 -6.169896
v 2.014965 0.567518 -6.166633
v 2.015543 0.567271 -6.163356
v 2.016048 0.567016 -6.160068
v 2.016480 0.566753 -6.156771
v 2.016839 0.566481 -6.153465
v 2.017125 0.566201 -6.150153
f 1 2 3
f 1 4 2
f 1 5 4
f 1 6 5
f 1 7 6
f 1 8 7
f 1 9 8
f 1 10 9
f 1 11 10
f 1 12 11
f 1 13 12
f 1 14 13
f 1 15 14
f 1 16 15
f 1 17 16
f 1 18 17
f 1 19 18
f 1 20 19
f 1 21 20
f 1 22 21
f 1 23 22
f 1 24 23
f 1 25 24
f 1 26 25
f 1 27 26
f 1 28 27
f 1 29 28
f 1 30 29
f 1 31 30
f 1 32 31
f 1 33 32
f 1 34 35
f 1 35 36
f 1 36 37
f 1 37 38
f 1 38 39
f 1 39 40
f 1 40 41
f 1 41 42
f 1 42 43
f 1 44 33
f 1 45 44
f 1 46 45
f 1 47 46
f 1 48 47
f 1 49 48
f 1 50 49
f 1 51 50
f 1 52 51
f 1 53 52
f 1 54 53
f 1 55 54
f 1 56 55
f 1 57 56
f 1 58 57
f 1 59 58
f 1 60 59
f 1 61 60
f 1 62 61
f 1 63 62
f 1 64 63
f 1 65 64
f 1 66 65
f 1 67 66
f 1 68 67
f 1 69 68
f 1 70 69
f 1 71 70
f 1 72 71
f 1 73 72
f 1 74 73
f 1 43 74
f 33 75 76
f 33 77 75
f 33 78 77
f 33 79 78
f 33 80 79
f 33 81 80
f 33 82 81
f 33 83 82
f 33 84 83
f 33 85 84
f 33 86 85
f 33 87 86
f 33 88 87
f 33 89 88
f 33 90 89
f 33 91 90
f 33 92 91
f 33 93 92
f 33 94 93
f 33 95 94
f 33 96 95
f 33 97 96
f 33 98 97
f 33 99 98
f 33 100 99
f 33 101 100
f 33 102 101
f 33 103 102
f 33 104 103
f 33 105 104
f 33 106 105
f 33 107 106
f 43 108 109
f 43 109 110
f 43 110 111
f 43 111 112
f 43 112 113
f 43 113 114
f 43 114 115
f 43 115 116
f 43 116 117
f 33 118 107
f 33 119 118
f 33 120 119
f 33 121 120
f 33 122 121
f 33 123 122
f 33 124 123
f 33 125 124
f 33 126 125
f 33 127 126
f 33 128 127
f 33 129 128
f 33 130 129
f 33 131 130
f 33 132 131
f 33 133 132
f 33 134 133
f 33 135 134
f 33 136 135
f 33 137 136
f 33 138 137
f 33 139 138
f 33 140 139
f 33 44 140
f 44 141 140
f 44 45 141
f 45 142 141
f 45 46 142
f 46 143 142
f 46 47 143
f 47 144 143
f 47 48 144
f 48 145 144
f 48 49 145
f 49 146 145
f 49 50 146
f 50 147 146
f 50 51 147
f 51 148 147
f 51 52 148
f 52 149 148
f 52 53 149
f 53 150 149
f 53 54 150
f 54 151 150
f 54 55 151
f 55 152 151
f 55 56 152
f 56 153 152
f 56 57 153
f 57 154 153
f 57 58 154
f 58 155 154
f 58 59 155
f 59 156 155
f 59 60 156
f 60 157 156
f 60 61 157
f 61 158 157
f 61 62 158
f 62 159 158
f 62 63 159
f 63 160 159
f 63 64 160
f 64 161 160
f 64 65 161
f 65 162 161
f 65 66 162
f 66 163 162
f 66 67 163
f 67 164 163
f 67 68 164
f 68 165 164
f 68 69 165
f 69 166 165
f 69 70 166
f 70 167 166
f 70 71 167
f 71 168 167
f 71 72 168
f 72 169 168
f 72 73 169
f 73 170 169
f 73 74 170
f 74 171 170
f 74 43 171
f 43 117 171
f 107 172 173
f 107 174 172
f 107 175 174
f 107 176 175
f 107 177 176
f 107 178 177
f 107 179 178
f 107 180 179
f 107 181 180
f 117 182 183
f 117 183 184
f 117 184 185
f 117 185 186
f 117 186 187
f 117 187 188
f 117 188 189
f 117 189 190
f 117 190 191
f 117 191 192
f 117 192 193
f 117 193 194
f 117 194 195
f 117 195 196
f 117 196 197
f 117 197 198
f 117 198 199
f 117 199 200
f 117 200 201
f 117 201 202
f 107 118 181
f 118 203 181
f 118 119 203
f 119 204 203
f 119 120 204
f 120 205 204
f 120 121 205
f 121 206 205
f 121 122 206
f 122 207 206
f 122 123 207
f 123 208 207
f 123 124 208
f 124 209 208
f 124 125 209
f 125 210 209
f 125 126 210
f 126 211 210
f 126 127 211
f 127 212 211
f 127 128 212
f 128 213 212
f 128 129 213
f 129 214 213
f 129 130 214
f 130 215 214
f 130 131 215
f 131 216 215
f 131 132 216
f 132 217 216
f 132 133 217
f 133 218 217
f 133 134 218
f 134 219 218
f 134 135 219
f 135 220 219
f 135 136 220
f 136 221 220
f 136 137 221
f 137 222 221
f 137 138 222
f 138 223 222
f 138 139 223
f 139 224 223
f 139 140 224
f 140 225 224
f 140 141 225
f 141 226 225
f 141 142 226
f 142 227 226
f 142 143 227
f 143 228 227
f 143 144 228
f 144 229 228
f 144 145 229
f 145 230 229
f 145 146 230
f 146 231 230
f 146 147 231
f 147 232 231
f 147 148 232
f 148 233 232
f 148 149 233
f 149 234 233
f 149 150 234
f 150 235 234
f 150 151 235
f 151 236 235
f 151 152 236
f 152 237 236
f 152 153 237
f 153 238 237
f 153 154 238
f 154 239 238
f 154 155 239
f 155 240 239
f 155 156 240
f 156 241 240
f 156 157 241
f 157 242 241
f 157 158 242
f 158 243 242
f 158 159 243
f 159 244 243
f 159 160 244
f 160 245 244
f 160 161 245
f 161 246 245
f 161 162 246
f 162 247 246
f 162 163 247
f 163 248 247
f 163 164 248
f 164 249 248
f 164 165 249
f 165 250 249
f 165 166 250
f 166 251 250
f 166 167 251
f 167 252 251
f 167 168 252
f 168 253 252
f 168 169 253
f 169 254 253
f 169 170 254
f 170 255 254
f 170 171 255
f 171 256 255
f 171 117 256
f 117 202 256
f 181 257 258
f 181 259 257
f 181 260 259
f 181 261 260
f 181 262 261
f 181 263 262
f 181 264 263
f 181 265 264
f 181 266 265
f 181 267 266
f 181 268 267
f 181 269 268
f 181 270 269
f 181 271 270
f 181 272 271
f 181 273 272
f 181 274 273
f 181 275 274
f 181 276 275
f 181 277 276
f 181 278 277
f 181 279 278
f 181 280 279
f 181 281 280
f 181 282 281
f 181 283 282
f 181 284 283
f 181 285 284
f 181 286 285
f 181 287 286
f 181 288 287
f 181 289 288
f 202 290 291
f 202 291 292
f 202 292 293
f 202 293 294
f 202 294 295
f 202 295 296
f 202 296 297
f 202 297 298
f 202 298 299
f 181 203 289
f 203 204 289
f 204 205 289
f 205 206 289
f 206 207 289
f 207 208 289
f 208 209 289
f 209 210 289
f 210 211 289
f 211 212 289
f 212 213 289
f 213 214 289
f 214 215 289
f 215 216 289
f 216 217 289
f 217 218 289
f 218 219 289
f 219 220 289
f 220 221 289
f 221 222 289
f 222 223 289
f 223 224 289
f 224 225 289
f 225 300 289
f 225 226 300
f 226 301 300
f 226 227 301
f 227 302 301
f 227 228 302
f 228 303 302
f 228 229 303
f 229 304 303
f 229 230 304
f 230 305 304
f 230 231 305
f 231 306 305
f 231 232 306
f 232 307 306
f 232 233 307
f 233 308 307
f 233 234 308
f 234 309 308
f 234 235 309
f 235 310 309
f 235 236 310
f 236 311 310
f 236 237 311
f 237 312 311
f 237 238 312
f 238 313 312
f 238 239 313
f 239 314 313
f 239 240 314
f 240 315 314
f 240 241 315
f 241 316 315
f 241 242 316
f 242 317 316
f 242 243 317
f 243 318 317
f 243 244 318
f 244 319 318
f 244 245 319
f 245 320 319
f 245 246 320
f 246 321 320
f 246 247 321
f 247 322 321
f 247 248 322
f 248 323 322
f 248 249 323
f 249 324 323
f 249 250 324
f 250 325 324
f 250 251 325
f 251 326 325
f 251 252 326
f 252 327 326
f 252 253 327
f 253 328 327
f 253 254 328
f 254 329 328
f 254 255 329
f 255 330 329
f 255 256 330
f 256 331 330
f 256 202 331
f 202 299 331
f 289 332 333
f 289 334 332
f 289 335 334
f 289 336 335
f 289 337 336
f 289 338 337
f 289 339 338
f 289 340 339
f 289 341 340
f 289 342 341
f 289 343 342
f 289 344 343
f 289 345 344
f 289 346 345
f 289 347 346
f 289 348 347
f 289 349 348
f 289 350 349
f 289 351 350
f 289 352 351
f 289 353 352
f 289 354 353
f 289 355 354
f 289 356 355
f 289 357 356
f 289 358 357
f 289 359 358
f 289 360 359
f 289 361 360
f 289 362 361
f 289 363 362
f 289 364 363
f 299 365 366
f 299 366 367
f 299 367 368
f 299 368 369
f 299 369 370
f 299 370 371
f 299 371 372
f 299 372 373
f 299 373 374
f 299 374 364
f 289 300 364
f 300 301 364
f 301 302 364
f 302 303 364
f 303 304 364
f 304 305 364
f 305 306 364
f 306 307 364
f 307 308 364
f 308 309 364
f 309 310 364
f 310 311 364
f 311 312 364
f 312 313 364
f 313 314 364
f 314 315 364
f 315 316 364
f 316 317 364
f 317 318 364
f 318 319 364
f 319 320 364
f 320 321 364
f 321 322 364
f 322 323 364
f 323 324 364
f 324 325 364
f 325 326 364
f 326 327 364
f 327 328 364
f 328 329 364
f 329 330 364
f 330 331 364
f 331 299 364
