v -0.056779 0.617008 -1.097769
v -0.059554 0.616747 -1.097769
v -0.060462 0.627092 -1.095000
v -0.049349 0.628064 -1.095000
v -0.048966 0.628094 -1.095000
v -0.048605 0.625566 -1.095680
v -0.030154 0.496444 -1.130371
v -0.029819 0.494101 -1.131000
v -0.030679 0.494048 -1.131000
v -0.055577 0.491870 -1.131000
v -0.056434 0.491773 -1.131000
v -0.056510 0.494134 -1.130372
v -0.053098 0.502587 -1.128231
v -0.055358 0.502344 -1.128231
v -0.033386 0.514688 -1.125462
v -0.054189 0.512915 -1.125462
v -0.056496 0.512666 -1.125462
v -0.036419 0.524892 -1.122692
v -0.052926 0.523485 -1.122692
v -0.055280 0.523242 -1.122692
v -0.037138 0.535252 -1.119923
v -0.053971 0.533817 -1.119923
v -0.056371 0.533569 -1.119923
v -0.037857 0.545611 -1.117154
v -0.055015 0.544149 -1.117154
v -0.057462 0.543896 -1.117154
v -0.038576 0.555971 -1.114385
v -0.056060 0.554481 -1.114385
v -0.058554 0.554223 -1.114385
v -0.041842 0.566148 -1.111615
v -0.054563 0.565064 -1.111615
v -0.057105 0.564813 -1.111615
v -0.042607 0.576505 -1.108846
v -0.055561 0.575401 -1.108846
v -0.058149 0.575145 -1.108846
v -0.043373 0.586861 -1.106077
v -0.056560 0.585737 -1.106077
v -0.059194 0.585477 -1.106077
v -0.046824 0.597013 -1.103308
v -0.054876 0.596327 -1.103308
v -0.057558 0.596074 -1.103308
v -0.047636 0.607366 -1.100538
v -0.055827 0.606667 -1.100538
v -0.058556 0.606410 -1.100538
v -0.048448 0.617718 -1.097769
v -0.054003 0.617258 -1.097769
v -0.049733 0.628034 -1.095000
v -0.030490 0.498790 -1.129741
v -0.054721 0.491966 -1.131000
v -0.050837 0.502821 -1.128231
v -0.051882 0.513153 -1.125462
v -0.050571 0.523718 -1.122692
v -0.051569 0.534054 -1.119923
v -0.052567 0.544391 -1.117154
v -0.053565 0.554728 -1.114385
v -0.052021 0.565304 -1.111615
v -0.052973 0.575645 -1.108846
v -0.053924 0.585986 -1.106077
v -0.052193 0.596567 -1.103308
v -0.053098 0.606912 -1.100538
v -0.051226 0.617494 -1.097769
v -0.050116 0.628003 -1.095000
v -0.030825 0.501139 -1.129110
v -0.053864 0.492061 -1.131000
v -0.048575 0.503045 -1.128231
v -0.049573 0.513381 -1.125462
v -0.048215 0.523940 -1.122692
v -0.049166 0.534281 -1.119923
v -0.050118 0.544622 -1.117154
v -0.051069 0.554963 -1.114385
v -0.049478 0.565532 -1.111615
v -0.050383 0.575877 -1.108846
v -0.051288 0.586222 -1.106077
v -0.049509 0.596796 -1.103308
v -0.050367 0.607145 -1.100538
v -0.050500 0.627973 -1.095000
v -0.031162 0.503492 -1.128479
v -0.053007 0.492154 -1.131000
v -0.046311 0.503258 -1.128231
v -0.047263 0.513599 -1.125462
v -0.045857 0.524152 -1.122692
v -0.046762 0.534497 -1.119923
v -0.047667 0.544842 -1.117154
v -0.048573 0.555187 -1.114385
v -0.046933 0.565749 -1.111615
v -0.047792 0.576098 -1.108846
v -0.048650 0.586447 -1.106077
v -0.060080 0.627129 -1.095000
v -0.050883 0.627942 -1.095000
v -0.031499 0.505849 -1.127846
v -0.052150 0.492245 -1.131000
v -0.044047 0.503461 -1.128231
v -0.044952 0.513807 -1.125462
v -0.043499 0.524353 -1.122692
v -0.044358 0.534702 -1.119923
v -0.045216 0.545051 -1.117154
v -0.046075 0.555400 -1.114385
v -0.044388 0.565954 -1.111615
v -0.045200 0.576307 -1.108846
v -0.046012 0.586660 -1.106077
v -0.059697 0.627165 -1.095000
v -0.051267 0.627911 -1.095000
v -0.031836 0.508208 -1.127212
v -0.051293 0.492335 -1.131000
v -0.041782 0.503655 -1.128231
v -0.042641 0.514004 -1.125462
v -0.041140 0.524543 -1.122692
v -0.041952 0.534896 -1.119923
v -0.042764 0.545249 -1.117154
v -0.043576 0.555601 -1.114385
v -0.059314 0.627202 -1.095000
v -0.051650 0.627879 -1.095000
v -0.032174 0.510572 -1.126577
v -0.050436 0.492424 -1.131000
v -0.060762 0.624498 -1.095681
v -0.060845 0.627055 -1.095000
v -0.032714 0.504325 -1.128231
v -0.039516 0.503837 -1.128231
v -0.040328 0.514190 -1.125462
v -0.038780 0.524723 -1.122692
v -0.039546 0.535079 -1.119923
v -0.040311 0.545435 -1.117154
v -0.041076 0.555792 -1.114385
v -0.058931 0.627238 -1.095000
v -0.052033 0.627848 -1.095000
v -0.032512 0.512939 -1.125942
v -0.049578 0.492511 -1.131000
v -0.060678 0.621945 -1.096361
v -0.037249 0.504010 -1.128231
v -0.038015 0.514366 -1.125462
v -0.058548 0.627274 -1.095000
v -0.052417 0.627816 -1.095000
v -0.032851 0.515309 -1.125305
v -0.048720 0.492597 -1.131000
v -0.060595 0.619395 -1.097039
v -0.034982 0.504172 -1.128231
v -0.035701 0.514532 -1.125462
v -0.058165 0.627309 -1.095000
v -0.052800 0.627784 -1.095000
v -0.033191 0.517683 -1.124668
v -0.047863 0.492681 -1.131000
v -0.060512 0.616849 -1.097717
v -0.057782 0.627345 -1.095000
v -0.053183 0.627751 -1.095000
v -0.033530 0.520061 -1.124029
v -0.047005 0.492763 -1.131000
v -0.060429 0.614307 -1.098394
v -0.057399 0.627380 -1.095000
v -0.053567 0.627719 -1.095000
v -0.033871 0.522442 -1.123390
v -0.046146 0.492844 -1.131000
v -0.060346 0.611768 -1.099070
v -0.057015 0.627415 -1.095000
v -0.053950 0.627686 -1.095000
v -0.034212 0.524826 -1.122749
v -0.045288 0.492924 -1.131000
v -0.060263 0.609233 -1.099745
v -0.056632 0.627449 -1.095000
v -0.054333 0.627653 -1.095000
v -0.034553 0.527214 -1.122108
v -0.044430 0.493002 -1.131000
v -0.060180 0.606701 -1.100419
v -0.056249 0.627484 -1.095000
v -0.054717 0.627619 -1.095000
v -0.034895 0.529606 -1.121466
v -0.043571 0.493079 -1.131000
v -0.060098 0.604173 -1.101092
v -0.055866 0.627518 -1.095000
v -0.055100 0.627586 -1.095000
v -0.035237 0.532001 -1.120822
v -0.042713 0.493154 -1.131000
v -0.060015 0.601648 -1.101764
v -0.055483 0.627552 -1.095000
v -0.035580 0.534399 -1.120178
v -0.041854 0.493227 -1.131000
v -0.059933 0.599127 -1.102435
v -0.035923 0.536801 -1.119533
v -0.040995 0.493300 -1.131000
v -0.059851 0.596610 -1.103106
v -0.036267 0.539207 -1.118887
v -0.040136 0.493370 -1.131000
v -0.059769 0.594096 -1.103775
v -0.048244 0.623040 -1.096359
v -0.036611 0.541616 -1.118240
v -0.039277 0.493439 -1.131000
v -0.059687 0.591586 -1.104443
v -0.047884 0.620518 -1.097036
v -0.036956 0.544028 -1.117592
v -0.038418 0.493507 -1.131000
v -0.059605 0.589079 -1.105110
v -0.047524 0.618000 -1.097713
v -0.037301 0.546444 -1.116942
v -0.037558 0.493573 -1.131000
v -0.059523 0.586576 -1.105777
v -0.047165 0.615485 -1.098389
v -0.037647 0.548864 -1.116292
v -0.036699 0.493638 -1.131000
v -0.059442 0.584076 -1.106442
v -0.046806 0.612973 -1.099065
v -0.037993 0.551287 -1.115642
v -0.035839 0.493701 -1.131000
v -0.059360 0.581580 -1.107106
v -0.046448 0.610465 -1.099739
v -0.038340 0.553713 -1.114990
v -0.034980 0.493763 -1.131000
v -0.059279 0.579087 -1.107770
v -0.046090 0.607960 -1.100412
v -0.038687 0.556143 -1.114337
v -0.034120 0.493823 -1.131000
v -0.059198 0.576598 -1.108432
v -0.045733 0.605459 -1.101084
v -0.039035 0.558576 -1.113683
v -0.033260 0.493881 -1.131000
v -0.059117 0.574113 -1.109094
v -0.045376 0.602961 -1.101756
v -0.039383 0.561013 -1.113028
v -0.032400 0.493939 -1.131000
v -0.059036 0.571631 -1.109754
v -0.045020 0.600466 -1.102426
v -0.039732 0.563453 -1.112373
v -0.031540 0.493994 -1.131000
v -0.058955 0.569153 -1.110414
v -0.044664 0.597975 -1.103096
v -0.040081 0.565897 -1.111716
v -0.058874 0.566678 -1.111072
v -0.044308 0.595487 -1.103764
v -0.040430 0.568344 -1.111059
v -0.056587 0.496499 -1.129743
v -0.058793 0.564207 -1.111730
v -0.043953 0.593003 -1.104432
v -0.040781 0.570795 -1.110400
v -0.056664 0.498868 -1.129113
v -0.058713 0.561740 -1.112387
v -0.043599 0.590522 -1.105099
v -0.041131 0.573249 -1.109741
v -0.056742 0.501240 -1.128482
v -0.058633 0.559276 -1.113042
v -0.043245 0.588044 -1.105765
v -0.041482 0.575706 -1.109080
v -0.056819 0.503616 -1.127850
v -0.058552 0.556816 -1.113697
v -0.042891 0.585570 -1.106430
v -0.041834 0.578167 -1.108419
v -0.056896 0.505995 -1.127218
v -0.058472 0.554359 -1.114351
v -0.042538 0.583099 -1.107094
v -0.056974 0.508379 -1.126584
v -0.058392 0.551906 -1.115004
v -0.042186 0.580631 -1.107757
v -0.057052 0.510766 -1.125949
v -0.058312 0.549457 -1.115655
v -0.057129 0.513156 -1.125313
v -0.058233 0.547011 -1.116306
v -0.057207 0.515551 -1.124676
v -0.058153 0.544569 -1.116956
v -0.057285 0.517949 -1.124038
v -0.058073 0.542130 -1.117605
v -0.057364 0.520350 -1.123399
v -0.057994 0.539696 -1.118253
v -0.057442 0.522756 -1.122759
v -0.057915 0.537265 -1.118899
v -0.057521 0.525165 -1.122119
v -0.057836 0.534837 -1.119545
v -0.057599 0.527577 -1.121477
v -0.057757 0.532414 -1.120190
v -0.057678 0.529994 -1.120834
f 1 2 3
f 4 5 6
f 7 8 9
f 10 11 12
f 13 14 15
f 16 17 18
f 19 20 21
f 22 23 24
f 25 26 27
f 28 29 30
f 31 32 33
f 34 35 36
f 37 38 39
f 40 41 42
f 43 44 45
f 46 1 3
f 47 4 6
f 48 7 9
f 49 10 12
f 50 13 15
f 51 16 18
f 52 19 21
f 53 22 24
f 54 25 27
f 55 28 30
f 56 31 33
f 57 34 36
f 58 37 39
f 59 40 42
f 60 43 45
f 61 46 3
f 62 47 6
f 63 48 9
f 64 49 12
f 65 50 15
f 66 51 18
f 67 52 21
f 68 53 24
f 69 54 27
f 70 55 30
f 71 56 33
f 72 57 36
f 73 58 39
f 74 59 42
f 75 60 45
f 45 61 3
f 76 62 6
f 77 63 9
f 78 64 12
f 79 65 15
f 80 66 18
f 81 67 21
f 82 68 24
f 83 69 27
f 84 70 30
f 85 71 33
f 86 72 36
f 87 73 39
f 39 74 42
f 42 75 45
f 45 3 88
f 89 76 6
f 90 77 9
f 91 78 12
f 92 79 15
f 93 80 18
f 94 81 21
f 95 82 24
f 96 83 27
f 97 84 30
f 98 85 33
f 99 86 36
f 100 87 39
f 45 88 101
f 102 89 6
f 103 90 9
f 104 91 12
f 105 92 15
f 106 93 18
f 107 94 21
f 108 95 24
f 109 96 27
f 110 97 30
f 30 98 33
f 33 99 36
f 36 100 39
f 45 101 111
f 112 102 6
f 113 103 9
f 114 104 12
f 115 116 117
f 118 105 15
f 119 106 18
f 120 107 21
f 121 108 24
f 122 109 27
f 123 110 30
f 36 39 42
f 45 111 124
f 125 112 6
f 126 113 9
f 127 114 12
f 128 115 117
f 129 118 15
f 130 119 18
f 18 120 21
f 21 121 24
f 24 122 27
f 36 42 45
f 45 124 131
f 132 125 6
f 133 126 9
f 134 127 12
f 135 128 117
f 136 129 15
f 137 130 18
f 45 131 138
f 139 132 6
f 140 133 9
f 141 134 12
f 142 135 117
f 117 136 15
f 15 137 18
f 45 138 143
f 144 139 6
f 145 140 9
f 146 141 12
f 147 142 117
f 15 18 21
f 45 143 148
f 149 144 6
f 150 145 9
f 151 146 12
f 152 147 117
f 15 21 24
f 45 148 153
f 154 149 6
f 155 150 9
f 156 151 12
f 157 152 117
f 45 153 158
f 159 154 6
f 160 155 9
f 161 156 12
f 162 157 117
f 45 158 163
f 164 159 6
f 165 160 9
f 166 161 12
f 167 162 117
f 45 163 168
f 169 164 6
f 170 165 9
f 171 166 12
f 172 167 117
f 45 168 173
f 173 169 6
f 174 170 9
f 175 171 12
f 176 172 117
f 45 173 6
f 177 174 9
f 178 175 12
f 179 176 117
f 36 45 6
f 180 177 9
f 181 178 12
f 182 179 117
f 36 6 183
f 184 180 9
f 185 181 12
f 186 182 117
f 36 183 187
f 188 184 9
f 189 185 12
f 190 186 117
f 36 187 191
f 192 188 9
f 193 189 12
f 194 190 117
f 36 191 195
f 196 192 9
f 197 193 12
f 198 194 117
f 36 195 199
f 200 196 9
f 201 197 12
f 202 198 117
f 36 199 203
f 204 200 9
f 205 201 12
f 206 202 117
f 15 24 27
f 36 203 207
f 208 204 9
f 209 205 12
f 210 206 117
f 27 123 30
f 36 207 211
f 212 208 9
f 213 209 12
f 214 210 117
f 27 30 33
f 36 211 215
f 216 212 9
f 217 213 12
f 218 214 117
f 36 215 219
f 220 216 9
f 221 217 12
f 222 218 117
f 27 33 36
f 36 219 223
f 224 220 9
f 9 221 12
f 225 222 117
f 36 223 226
f 227 224 9
f 9 12 228
f 229 225 117
f 36 226 230
f 231 227 9
f 9 228 232
f 233 229 117
f 36 230 234
f 235 231 9
f 9 232 236
f 237 233 117
f 36 234 238
f 239 235 9
f 9 236 240
f 241 237 117
f 36 238 242
f 243 239 9
f 9 240 244
f 245 241 117
f 36 242 246
f 9 244 247
f 248 245 117
f 36 246 249
f 9 247 250
f 251 248 117
f 36 249 243
f 9 250 252
f 253 251 117
f 27 36 243
f 9 252 254
f 255 253 117
f 9 254 256
f 257 255 117
f 9 256 258
f 259 257 117
f 9 258 260
f 261 259 117
f 9 260 262
f 263 261 117
f 9 262 264
f 265 263 117
f 9 264 266
f 266 265 117
f 9 266 117
f 9 117 15
f 243 9 15
