v 0.000000 -0.636000 -0.750000
v -0.629446 -0.636000 -4.319765
v -0.624043 -0.636000 -4.319692
v -0.618636 -0.636000 -4.319606
v -0.613224 -0.636000 -4.319506
v -0.607805 -0.636000 -4.319393
v -0.602381 -0.636000 -4.319266
v -0.596949 -0.636000 -4.319126
v -0.591509 -0.636000 -4.318971
v -0.586060 -0.636000 -4.318803
v -0.580603 -0.636000 -4.318620
v -0.575136 -0.636000 -4.318424
v -0.569659 -0.636000 -4.318214
v -0.564170 -0.636000 -4.317989
v -0.558670 -0.636000 -4.317750
v -0.553158 -0.636000 -4.317496
v -0.547633 -0.636000 -4.317229
v -0.542095 -0.636000 -4.316946
v -0.536542 -0.636000 -4.316649
v -0.530975 -0.636000 -4.316337
v -0.525392 -0.636000 -4.316011
v -0.519795 -0.636000 -4.315670
v -0.514186 -0.636000 -4.315318
v -0.508566 -0.636000 -4.314955
v -0.502937 -0.636000 -4.314584
v -0.497301 -0.636000 -4.314205
v -0.491661 -0.636000 -4.313820
v -0.486017 -0.636000 -4.313432
v -0.480372 -0.636000 -4.313041
v -0.474728 -0.636000 -4.312650
v -0.469086 -0.636000 -4.312260
v -0.463448 -0.636000 -4.311872
v -0.457817 -0.636000 -4.311488
v -0.452194 -0.636000 -4.311111
v -0.446581 -0.636000 -4.310741
v -0.440980 -0.636000 -4.310380
v -0.435393 -0.636000 -4.310029
v -0.429821 -0.636000 -4.309691
v -0.424267 -0.636000 -4.309367
v -0.418731 -0.636000 -4.309058
v -0.413213 -0.636000 -4.308765
v -0.407712 -0.636000 -4.308485
v -0.402227 -0.636000 -4.308221
v -0.396757 -0.636000 -4.307972
v -0.391302 -0.636000 -4.307736
v -0.385861 -0.636000 -4.307516
v -0.380433 -0.636000 -4.307310
v -0.375018 -0.636000 -4.307118
v -0.369614 -0.636000 -4.306940
v -0.364221 -0.636000 -4.306776
v -0.358838 -0.636000 -4.306626
v -0.353464 -0.636000 -4.306490
v -0.348098 -0.636000 -4.306368
v -0.342741 -0.636000 -4.306260
v -0.337390 -0.636000 -4.306165
v -0.332045 -0.636000 -4.306083
v -0.326706 -0.636000 -4.306015
v -0.306995 -0.636000 -4.241360
v -0.287289 -0.636000 -4.176705
v -0.267599 -0.636000 -4.112049
v -0.247936 -0.636000 -4.047394
v -0.228308 -0.636000 -3.982739
v -0.208727 -0.636000 -3.918084
v -0.189205 -0.636000 -3.853428
v -0.169759 -0.636000 -3.788773
v -0.150408 -0.636000 -3.724118
v -0.131168 -0.636000 -3.659463
v -0.112056 -0.636000 -3.594809
v -0.093091 -0.636000 -3.530154
v -0.074289 -0.636000 -3.465499
v -0.055667 -0.636000 -3.400845
v -0.037243 -0.636000 -3.336190
v -0.019035 -0.636000 -3.271535
v -0.001060 -0.636000 -3.206881
v 0.016666 -0.636000 -3.142226
v 0.034124 -0.636000 -3.077572
v 0.051297 -0.636000 -3.012917
v 0.068168 -0.636000 -2.948262
v 0.084720 -0.636000 -2.883608
v 0.100936 -0.636000 -2.818953
v 0.116803 -0.636000 -2.754298
v 0.132305 -0.636000 -2.689643
v 0.147429 -0.636000 -2.624989
v 0.162160 -0.636000 -2.560334
v 0.176485 -0.636000 -2.495679
v 0.190389 -0.636000 -2.431024
v 0.203858 -0.636000 -2.366369
v 0.216882 -0.636000 -2.301715
v 0.229455 -0.636000 -2.237060
v 0.241568 -0.636000 -2.172405
v 0.253215 -0.636000 -2.107750
v 0.264389 -0.636000 -2.043096
v 0.275081 -0.636000 -1.978441
v 0.285286 -0.636000 -1.913786
v 0.294995 -0.636000 -1.849131
v 0.304201 -0.636000 -1.784476
v 0.312899 -0.636000 -1.719822
v 0.321082 -0.636000 -1.655167
v 0.328744 -0.636000 -1.590512
v 0.335877 -0.636000 -1.525857
v 0.342477 -0.636000 -1.461203
v 0.348536 -0.636000 -1.396548
v 0.354048 -0.636000 -1.331893
v 0.359007 -0.636000 -1.267238
v 0.363407 -0.636000 -1.202583
v 0.367240 -0.636000 -1.137929
v 0.370502 -0.636000 -1.073274
v 0.373184 -0.636000 -1.008619
v 0.375281 -0.636000 -0.943964
v 0.376788 -0.636000 -0.879310
v 0.377696 -0.636000 -0.814655
v 0.378000 -0.636000 -0.750000
v 0.378000 -0.636000 -0.500000
v 0.000000 -0.636000 -0.500000
f 3 2 4
f 4 2 5
f 5 2 6
f 6 2 7
f 7 2 8
f 8 2 9
f 9 2 10
f 10 2 11
f 11 2 12
f 12 2 13
f 13 2 14
f 14 2 15
f 15 2 16
f 16 2 17
f 17 2 18
f 18 2 19
f 19 2 20
f 20 2 21
f 21 2 22
f 22 2 23
f 23 2 24
f 24 2 25
f 25 2 26
f 26 2 27
f 27 2 28
f 28 2 29
f 29 2 30
f 30 2 31
f 31 2 32
f 32 2 33
f 33 2 34
f 34 2 35
f 35 2 36
f 36 2 37
f 37 2 38
f 38 2 39
f 39 2 40
f 40 2 41
f 41 2 42
f 42 2 43
f 43 2 44
f 44 2 45
f 45 2 46
f 46 2 47
f 47 2 48
f 48 2 49
f 49 2 50
f 50 2 51
f 51 2 52
f 52 2 53
f 53 2 54
f 54 2 55
f 55 2 56
f 56 2 57
f 57 2 58
f 58 2 59
f 59 2 60
f 60 2 61
f 61 2 62
f 62 2 63
f 63 2 64
f 64 2 65
f 65 2 66
f 66 2 67
f 67 2 68
f 68 2 69
f 69 2 70
f 70 2 71
f 71 2 72
f 72 2 73
f 73 2 74
f 74 2 75
f 75 2 76
f 76 2 77
f 77 2 78
f 78 2 79
f 79 2 80
f 80 2 81
f 81 2 82
f 82 2 83
f 83 2 84
f 84 2 85
f 85 2 86
f 86 2 87
f 87 2 88
f 88 2 89
f 89 2 90
f 90 2 91
f 91 2 92
f 92 2 93
f 93 2 94
f 94 2 95
f 95 2 96
f 96 2 97
f 97 2 98
f 98 2 99
f 99 2 100
f 100 2 101
f 101 2 102
f 102 2 103
f 103 2 104
f 104 2 105
f 105 2 106
f 106 2 107
f 107 2 108
f 108 2 109
f 109 2 110
f 110 2 1
f 110 1 111
f 111 1 112
f 112 1 114
f 112 114 113
