v -2.615000 0.000000 -3.987000
v -2.616539 0.000000 -4.017350
v -2.615385 0.000000 -4.002195
v -2.618460 0.000000 -4.032428
v -2.621141 0.000000 -4.047390
v -2.624577 0.000000 -4.062196
v -2.628758 0.000000 -4.076809
v -2.615000 -0.375000 -4.037670
v -2.615385 -0.370967 -4.052320
v -2.616539 -0.366945 -4.066932
v -2.618460 -0.362944 -4.081469
v -2.621141 -0.358973 -4.095894
v -2.624577 -0.355044 -4.110169
v -2.628758 -0.351165 -4.124258
v -2.628758 -0.009113 -4.076840
v -2.615000 -0.009732 -3.987034
v -2.628758 -0.018226 -4.076934
v -2.615000 -0.019463 -3.987134
v -2.628758 -0.027338 -4.077091
v -2.615000 -0.029194 -3.987302
v -2.628758 -0.036449 -4.077311
v -2.615000 -0.038923 -3.987536
v -2.628758 -0.045558 -4.077593
v -2.615000 -0.048650 -3.987838
v -2.628758 -0.054665 -4.077939
v -2.615000 -0.058375 -3.988206
v -2.628758 -0.063769 -4.078346
v -2.615000 -0.068098 -3.988642
v -2.628758 -0.072871 -4.078817
v -2.615000 -0.077817 -3.989144
v -2.628758 -0.081968 -4.079350
v -2.615000 -0.087532 -3.989714
v -2.628758 -0.091062 -4.079946
v -2.615000 -0.097243 -3.990350
v -2.628758 -0.100152 -4.080605
v -2.615000 -0.106950 -3.991053
v -2.628758 -0.109237 -4.081326
v -2.615000 -0.116651 -3.991823
v -2.628758 -0.118316 -4.082109
v -2.615000 -0.126347 -3.992660
v -2.628758 -0.127391 -4.082955
v -2.615000 -0.136037 -3.993564
v -2.628758 -0.136459 -4.083864
v -2.615000 -0.145720 -3.994534
v -2.628758 -0.145520 -4.084835
v -2.615000 -0.155397 -3.995571
v -2.628758 -0.154575 -4.085869
v -2.615000 -0.165066 -3.996675
v -2.628758 -0.163622 -4.086964
v -2.615000 -0.174727 -3.997845
v -2.628758 -0.172662 -4.088122
v -2.615000 -0.184381 -3.999081
v -2.628758 -0.181693 -4.089343
v -2.615000 -0.194025 -4.000385
v -2.628758 -0.190716 -4.090625
v -2.615000 -0.203660 -4.001754
v -2.628758 -0.199729 -4.091970
v -2.615000 -0.213286 -4.003190
v -2.628758 -0.208733 -4.093377
v -2.615000 -0.222901 -4.004692
v -2.628758 -0.217728 -4.094845
v -2.615000 -0.232506 -4.006260
v -2.628758 -0.226712 -4.096376
v -2.615000 -0.242099 -4.007895
v -2.628758 -0.235685 -4.097968
v -2.615000 -0.251682 -4.009595
v -2.628758 -0.244647 -4.099622
v -2.615000 -0.261252 -4.011362
v -2.628758 -0.253597 -4.101338
v -2.615000 -0.270810 -4.013194
v -2.628758 -0.262536 -4.103115
v -2.615000 -0.280355 -4.015092
v -2.628758 -0.271462 -4.104954
v -2.615000 -0.289887 -4.017056
v -2.628758 -0.280375 -4.106855
v -2.615000 -0.299405 -4.019085
v -2.628758 -0.289275 -4.108817
v -2.615000 -0.308909 -4.021180
v -2.628758 -0.298161 -4.110840
v -2.615000 -0.318398 -4.023340
v -2.628758 -0.307033 -4.112924
v -2.615000 -0.327872 -4.025566
v -2.628758 -0.315890 -4.115069
v -2.615000 -0.337330 -4.027857
v -2.628758 -0.324732 -4.117275
v -2.615000 -0.346773 -4.030213
v -2.628758 -0.333559 -4.119542
v -2.615000 -0.356199 -4.032633
v -2.628758 -0.342370 -4.121870
v -2.615000 -0.365608 -4.035119
v -2.639313 0.000000 -4.105307
v -2.633674 0.000000 -4.091192
v -2.645659 0.000000 -4.119118
v -2.652696 0.000000 -4.132591
v -2.660407 0.000000 -4.145689
v -2.668771 0.000000 -4.158380
v -2.633674 -0.347348 -4.138125
v -2.639313 -0.343602 -4.151734
v -2.645659 -0.339937 -4.165050
v -2.652696 -0.336361 -4.178039
v -2.660407 -0.332885 -4.190668
v -2.668771 -0.329517 -4.202904
v -2.668771 -0.008552 -4.158410
v -2.668771 -0.017103 -4.158498
v -2.668771 -0.025653 -4.158646
v -2.668771 -0.034202 -4.158852
v -2.668771 -0.042750 -4.159117
v -2.668771 -0.051295 -4.159440
v -2.668771 -0.059838 -4.159823
v -2.668771 -0.068378 -4.160265
v -2.668771 -0.076915 -4.160765
v -2.668771 -0.085449 -4.161324
v -2.668771 -0.093978 -4.161942
v -2.668771 -0.102503 -4.162619
v -2.668771 -0.111023 -4.163354
v -2.668771 -0.119537 -4.164148
v -2.668771 -0.128046 -4.165001
v -2.668771 -0.136549 -4.165912
v -2.668771 -0.145046 -4.166882
v -2.668771 -0.153535 -4.167910
v -2.668771 -0.162017 -4.168997
v -2.668771 -0.170492 -4.170142
v -2.668771 -0.178958 -4.171345
v -2.668771 -0.187416 -4.172607
v -2.668771 -0.195866 -4.173927
v -2.668771 -0.204305 -4.175305
v -2.668771 -0.212736 -4.176741
v -2.668771 -0.221156 -4.178235
v -2.668771 -0.229565 -4.179787
v -2.668771 -0.237964 -4.181397
v -2.668771 -0.246351 -4.183065
v -2.668771 -0.254727 -4.184791
v -2.668771 -0.263090 -4.186574
v -2.668771 -0.271442 -4.188415
v -2.668771 -0.279780 -4.190313
v -2.668771 -0.288105 -4.192269
v -2.668771 -0.296416 -4.194282
v -2.668771 -0.304713 -4.196352
v -2.668771 -0.312996 -4.198479
v -2.668771 -0.321264 -4.200663
v -2.687373 0.000000 -4.182412
v -2.677767 0.000000 -4.170632
v -2.697562 0.000000 -4.193690
v -2.708310 0.000000 -4.204438
v -2.719588 0.000000 -4.214627
v -2.731368 0.000000 -4.224233
v -2.677767 -0.326265 -4.214716
v -2.687373 -0.323139 -4.226074
v -2.697562 -0.320146 -4.236948
v -2.708310 -0.317294 -4.247310
v -2.719588 -0.314589 -4.257134
v -2.731368 -0.312040 -4.266395
v -2.731368 -0.008098 -4.224261
v -2.731368 -0.016196 -4.224344
v -2.731368 -0.024292 -4.224484
v -2.731368 -0.032388 -4.224679
v -2.731368 -0.040482 -4.224930
v -2.731368 -0.048575 -4.225237
v -2.731368 -0.056664 -4.225599
v -2.731368 -0.064752 -4.226017
v -2.731368 -0.072836 -4.226491
v -2.731368 -0.080917 -4.227020
v -2.731368 -0.088993 -4.227606
v -2.731368 -0.097066 -4.228246
v -2.731368 -0.105134 -4.228943
v -2.731368 -0.113197 -4.229694
v -2.731368 -0.121255 -4.230502
v -2.731368 -0.129307 -4.231365
v -2.731368 -0.137353 -4.232283
v -2.731368 -0.145392 -4.233257
v -2.731368 -0.153424 -4.234286
v -2.731368 -0.161449 -4.235370
v -2.731368 -0.169467 -4.236510
v -2.731368 -0.177476 -4.237705
v -2.731368 -0.185477 -4.238954
v -2.731368 -0.193470 -4.240259
v -2.731368 -0.201453 -4.241619
v -2.731368 -0.209426 -4.243034
v -2.731368 -0.217390 -4.244504
v -2.731368 -0.225343 -4.246029
v -2.731368 -0.233285 -4.247608
v -2.731368 -0.241217 -4.249242
v -2.731368 -0.249137 -4.250931
v -2.731368 -0.257045 -4.252674
v -2.731368 -0.264941 -4.254472
v -2.731368 -0.272825 -4.256324
v -2.731368 -0.280695 -4.258230
v -2.731368 -0.288552 -4.260190
v -2.731368 -0.296396 -4.262205
v -2.731368 -0.304225 -4.264273
v -2.756311 0.000000 -4.241593
v -2.743620 0.000000 -4.233229
v -2.769409 0.000000 -4.249304
v -2.782882 0.000000 -4.256341
v -2.796693 0.000000 -4.262687
v -2.810808 0.000000 -4.268326
v -2.743620 -0.309653 -4.275069
v -2.756311 -0.307433 -4.283133
v -2.769409 -0.305386 -4.290568
v -2.782882 -0.303519 -4.297353
v -2.796693 -0.301835 -4.303471
v -2.810808 -0.300338 -4.308907
v -2.810808 -0.007794 -4.268352
v -2.810808 -0.015588 -4.268433
v -2.810808 -0.023381 -4.268567
v -2.810808 -0.031174 -4.268755
v -2.810808 -0.038964 -4.268997
v -2.810808 -0.046753 -4.269292
v -2.810808 -0.054539 -4.269641
v -2.810808 -0.062323 -4.270043
v -2.810808 -0.070104 -4.270499
v -2.810808 -0.077882 -4.271009
v -2.810808 -0.085656 -4.271572
v -2.810808 -0.093426 -4.272189
v -2.810808 -0.101192 -4.272859
v -2.810808 -0.108952 -4.273583
v -2.810808 -0.116708 -4.274360
v -2.810808 -0.124458 -4.275190
v -2.810808 -0.132202 -4.276074
v -2.810808 -0.139940 -4.277011
v -2.810808 -0.147671 -4.278002
v -2.810808 -0.155395 -4.279045
v -2.810808 -0.163112 -4.280142
v -2.810808 -0.170821 -4.281292
v -2.810808 -0.178522 -4.282495
v -2.810808 -0.186214 -4.283751
v -2.810808 -0.193898 -4.285060
v -2.810808 -0.201572 -4.286422
v -2.810808 -0.209237 -4.287837
v -2.810808 -0.216892 -4.289304
v -2.810808 -0.224537 -4.290825
v -2.810808 -0.232171 -4.292397
v -2.810808 -0.239794 -4.294023
v -2.810808 -0.247406 -4.295701
v -2.810808 -0.255005 -4.297431
v -2.810808 -0.262593 -4.299213
v -2.810808 -0.270169 -4.301048
v -2.810808 -0.277731 -4.302935
v -2.810808 -0.285280 -4.304874
v -2.810808 -0.292816 -4.306864
v -2.839804 0.000000 -4.277423
v -2.825191 0.000000 -4.273242
v -2.854610 0.000000 -4.280859
v -2.869572 0.000000 -4.283540
v -2.884650 0.000000 -4.285461
v -2.899805 0.000000 -4.286615
v -2.915000 0.000000 -4.287000
v -2.825191 -0.299033 -4.313647
v -2.839804 -0.297924 -4.317678
v -2.854610 -0.297012 -4.320991
v -2.869572 -0.296300 -4.323576
v -2.884650 -0.295791 -4.325428
v -2.899805 -0.295484 -4.326541
v -2.915000 -0.295382 -4.326912
v -2.915000 -0.007666 -4.287026
v -2.915000 -0.015331 -4.287106
v -2.915000 -0.022996 -4.287238
v -2.915000 -0.030659 -4.287422
v -2.915000 -0.038321 -4.287660
v -2.915000 -0.045981 -4.287950
v -2.915000 -0.053639 -4.288293
v -2.915000 -0.061295 -4.288689
v -2.915000 -0.068948 -4.289138
v -2.915000 -0.076597 -4.289639
v -2.915000 -0.084243 -4.290193
v -2.915000 -0.091884 -4.290799
v -2.915000 -0.099522 -4.291458
v -2.915000 -0.107154 -4.292170
v -2.915000 -0.114782 -4.292934
v -2.915000 -0.122404 -4.293751
v -2.915000 -0.130020 -4.294621
v -2.915000 -0.137630 -4.295542
v -2.915000 -0.145234 -4.296516
v -2.915000 -0.152831 -4.297543
v -2.915000 -0.160420 -4.298622
v -2.915000 -0.168002 -4.299753
v -2.915000 -0.175576 -4.300936
v -2.915000 -0.183141 -4.302171
v -2.915000 -0.190698 -4.303459
v -2.915000 -0.198246 -4.304798
v -2.915000 -0.205784 -4.306189
v -2.915000 -0.213313 -4.307633
v -2.915000 -0.220832 -4.309128
v -2.915000 -0.228340 -4.310675
v -2.915000 -0.235837 -4.312273
v -2.915000 -0.243323 -4.313923
v -2.915000 -0.250797 -4.315625
v -2.915000 -0.258260 -4.317378
v -2.915000 -0.265710 -4.319182
v -2.915000 -0.273148 -4.321038
v -2.915000 -0.280573 -4.322945
v -2.915000 -0.287984 -4.324903
f 1 3 2
f 1 2 4
f 1 4 5
f 1 5 6
f 1 6 7
f 8 10 9
f 8 11 10
f 8 12 11
f 8 13 12
f 8 14 13
f 1 7 15
f 1 15 16
f 16 15 17
f 16 17 18
f 18 17 19
f 18 19 20
f 20 19 21
f 20 21 22
f 22 21 23
f 22 23 24
f 24 23 25
f 24 25 26
f 26 25 27
f 26 27 28
f 28 27 29
f 28 29 30
f 30 29 31
f 30 31 32
f 32 31 33
f 32 33 34
f 34 33 35
f 34 35 36
f 36 35 37
f 36 37 38
f 38 37 39
f 38 39 40
f 40 39 41
f 40 41 42
f 42 41 43
f 42 43 44
f 44 43 45
f 44 45 46
f 46 45 47
f 46 47 48
f 48 47 49
f 48 49 50
f 50 49 51
f 50 51 52
f 52 51 53
f 52 53 54
f 54 53 55
f 54 55 56
f 56 55 57
f 56 57 58
f 58 57 59
f 58 59 60
f 60 59 61
f 60 61 62
f 62 61 63
f 62 63 64
f 64 63 65
f 64 65 66
f 66 65 67
f 66 67 68
f 68 67 69
f 68 69 70
f 70 69 71
f 70 71 72
f 72 71 73
f 72 73 74
f 74 73 75
f 74 75 76
f 76 75 77
f 76 77 78
f 78 77 79
f 78 79 80
f 80 79 81
f 80 81 82
f 82 81 83
f 82 83 84
f 84 83 85
f 84 85 86
f 86 85 87
f 86 87 88
f 88 87 89
f 88 89 90
f 90 89 8
f 8 89 14
f 7 92 91
f 7 91 93
f 7 93 94
f 7 94 95
f 7 95 96
f 14 98 97
f 14 99 98
f 14 100 99
f 14 101 100
f 14 102 101
f 7 96 15
f 15 96 103
f 15 103 17
f 17 103 104
f 17 104 19
f 19 104 105
f 19 105 21
f 21 105 106
f 21 106 23
f 23 106 107
f 23 107 25
f 25 107 108
f 25 108 27
f 27 108 109
f 27 109 29
f 29 109 110
f 29 110 31
f 31 110 111
f 31 111 33
f 33 111 112
f 33 112 35
f 35 112 113
f 35 113 37
f 37 113 114
f 37 114 39
f 39 114 115
f 39 115 41
f 41 115 116
f 41 116 43
f 43 116 117
f 43 117 45
f 45 117 118
f 45 118 47
f 47 118 119
f 47 119 49
f 49 119 120
f 49 120 51
f 51 120 121
f 51 121 53
f 53 121 122
f 53 122 55
f 55 122 123
f 55 123 57
f 57 123 124
f 57 124 59
f 59 124 125
f 59 125 61
f 61 125 126
f 61 126 63
f 63 126 127
f 63 127 65
f 65 127 128
f 65 128 67
f 67 128 129
f 67 129 69
f 69 129 130
f 69 130 71
f 71 130 131
f 71 131 73
f 73 131 132
f 73 132 75
f 75 132 133
f 75 133 77
f 77 133 134
f 77 134 79
f 79 134 135
f 79 135 81
f 81 135 136
f 81 136 83
f 83 136 137
f 83 137 85
f 85 137 138
f 85 138 87
f 87 138 139
f 87 139 89
f 89 139 140
f 89 140 14
f 14 140 102
f 96 142 141
f 96 141 143
f 96 143 144
f 96 144 145
f 96 145 146
f 102 148 147
f 102 149 148
f 102 150 149
f 102 151 150
f 102 152 151
f 96 146 103
f 103 146 153
f 103 153 104
f 104 153 154
f 104 154 105
f 105 154 155
f 105 155 106
f 106 155 156
f 106 156 107
f 107 156 157
f 107 157 108
f 108 157 158
f 108 158 109
f 109 158 159
f 109 159 110
f 110 159 160
f 110 160 111
f 111 160 161
f 111 161 112
f 112 161 162
f 112 162 113
f 113 162 163
f 113 163 114
f 114 163 164
f 114 164 115
f 115 164 165
f 115 165 116
f 116 165 166
f 116 166 117
f 117 166 167
f 117 167 118
f 118 167 168
f 118 168 119
f 119 168 169
f 119 169 120
f 120 169 170
f 120 170 121
f 121 170 171
f 121 171 122
f 122 171 172
f 122 172 123
f 123 172 173
f 123 173 124
f 124 173 174
f 124 174 125
f 125 174 175
f 125 175 126
f 126 175 176
f 126 176 127
f 127 176 177
f 127 177 128
f 128 177 178
f 128 178 129
f 129 178 179
f 129 179 130
f 130 179 180
f 130 180 131
f 131 180 181
f 131 181 132
f 132 181 182
f 132 182 133
f 133 182 183
f 133 183 134
f 134 183 184
f 134 184 135
f 135 184 185
f 135 185 136
f 136 185 186
f 136 186 137
f 137 186 187
f 137 187 138
f 138 187 188
f 138 188 139
f 139 188 189
f 139 189 140
f 140 189 190
f 140 190 102
f 102 190 152
f 146 192 191
f 146 191 193
f 146 193 194
f 146 194 195
f 146 195 196
f 152 198 197
f 152 199 198
f 152 200 199
f 152 201 200
f 152 202 201
f 146 196 153
f 153 196 203
f 153 203 154
f 154 203 204
f 154 204 155
f 155 204 205
f 155 205 156
f 156 205 206
f 156 206 157
f 157 206 207
f 157 207 158
f 158 207 208
f 158 208 159
f 159 208 209
f 159 209 160
f 160 209 210
f 160 210 161
f 161 210 211
f 161 211 162
f 162 211 212
f 162 212 163
f 163 212 213
f 163 213 164
f 164 213 214
f 164 214 165
f 165 214 215
f 165 215 166
f 166 215 216
f 166 216 167
f 167 216 217
f 167 217 168
f 168 217 218
f 168 218 169
f 169 218 219
f 169 219 170
f 170 219 220
f 170 220 171
f 171 220 221
f 171 221 172
f 172 221 222
f 172 222 173
f 173 222 223
f 173 223 174
f 174 223 224
f 174 224 175
f 175 224 225
f 175 225 176
f 176 225 226
f 176 226 177
f 177 226 227
f 177 227 178
f 178 227 228
f 178 228 179
f 179 228 229
f 179 229 180
f 180 229 230
f 180 230 181
f 181 230 231
f 181 231 182
f 182 231 232
f 182 232 183
f 183 232 233
f 183 233 184
f 184 233 234
f 184 234 185
f 185 234 235
f 185 235 186
f 186 235 236
f 186 236 187
f 187 236 237
f 187 237 188
f 188 237 238
f 188 238 189
f 189 238 239
f 189 239 190
f 190 239 240
f 190 240 152
f 152 240 202
f 196 242 241
f 196 241 243
f 196 243 244
f 196 244 245
f 196 245 246
f 196 246 247
f 202 249 248
f 202 250 249
f 202 251 250
f 202 252 251
f 202 253 252
f 202 254 253
f 196 247 203
f 203 247 255
f 203 255 204
f 204 255 256
f 204 256 205
f 205 256 257
f 205 257 206
f 206 257 258
f 206 258 207
f 207 258 259
f 207 259 208
f 208 259 260
f 208 260 209
f 209 260 261
f 209 261 210
f 210 261 262
f 210 262 211
f 211 262 263
f 211 263 212
f 212 263 264
f 212 264 213
f 213 264 265
f 213 265 214
f 214 265 266
f 214 266 215
f 215 266 267
f 215 267 216
f 216 267 268
f 216 268 217
f 217 268 269
f 217 269 218
f 218 269 270
f 218 270 219
f 219 270 271
f 219 271 220
f 220 271 272
f 220 272 221
f 221 272 273
f 221 273 222
f 222 273 274
f 222 274 223
f 223 274 275
f 223 275 224
f 224 275 276
f 224 276 225
f 225 276 277
f 225 277 226
f 226 277 278
f 226 278 227
f 227 278 279
f 227 279 228
f 228 279 280
f 228 280 229
f 229 280 281
f 229 281 230
f 230 281 282
f 230 282 231
f 231 282 283
f 231 283 232
f 232 283 284
f 232 284 233
f 233 284 285
f 233 285 234
f 234 285 286
f 234 286 235
f 235 286 287
f 235 287 236
f 236 287 288
f 236 288 237
f 237 288 289
f 237 289 238
f 238 289 290
f 238 290 239
f 239 290 291
f 239 291 240
f 240 291 292
f 240 292 254
f 240 254 202
