v -0.970000 -0.439547 -6.354318
v -0.972532 -0.439610 -6.354329
v -0.975058 -0.439800 -6.354362
v -0.977571 -0.440115 -6.354418
v -0.980065 -0.440555 -6.354495
v -0.982533 -0.441119 -6.354595
v -0.984968 -0.441805 -6.354716
v -0.987365 -0.442612 -6.354858
v -0.989718 -0.443538 -6.355021
v -0.992020 -0.444579 -6.355205
v -0.994265 -0.445734 -6.355409
v -0.996448 -0.447000 -6.355632
v -0.998563 -0.448373 -6.355874
v -1.000605 -0.449850 -6.356134
v -1.002569 -0.451426 -6.356412
v -1.004448 -0.453099 -6.356707
v -1.006240 -0.454863 -6.357018
v -1.007938 -0.456714 -6.357345
v -1.009539 -0.458647 -6.357685
v -1.011038 -0.460658 -6.358040
v -1.012432 -0.462741 -6.358407
v -1.013717 -0.464891 -6.358786
v -1.014890 -0.467102 -6.359176
v -1.015948 -0.469369 -6.359576
v -1.016888 -0.471686 -6.359985
v -1.017707 -0.474047 -6.360401
v -1.018404 -0.476445 -6.360824
v -1.018976 -0.478876 -6.361252
v -1.019423 -0.481331 -6.361685
v -1.019743 -0.483806 -6.362122
v -1.019936 -0.486294 -6.362560
v -1.020000 -0.488788 -6.363000
v -0.970000 -0.474813 -6.154318
v -0.972532 -0.474876 -6.154329
v -0.975058 -0.475065 -6.154362
v -0.977571 -0.475380 -6.154418
v -0.980065 -0.475821 -6.154495
v -0.982533 -0.476385 -6.154595
v -0.984968 -0.477071 -6.154716
v -0.987365 -0.477878 -6.154858
v -0.989718 -0.478803 -6.155021
v -0.992020 -0.479845 -6.155205
v -0.994265 -0.481000 -6.155409
v -0.996448 -0.482265 -6.155632
v -0.998563 -0.483638 -6.155874
v -1.000605 -0.485115 -6.156134
v -1.002569 -0.486691 -6.156412
v -1.004448 -0.488364 -6.156707
v -1.006240 -0.490128 -6.157018
v -1.007938 -0.491979 -6.157345
v -1.009539 -0.493913 -6.157685
v -1.011038 -0.495924 -6.158040
v -1.012432 -0.498007 -6.158407
v -1.013717 -0.500157 -6.158786
v -1.014890 -0.502368 -6.159176
v -1.015948 -0.504635 -6.159576
v -1.016888 -0.506952 -6.159985
v -1.017707 -0.509312 -6.160401
v -1.018404 -0.511711 -6.160824
v -1.018976 -0.514141 -6.161252
v -1.019423 -0.516597 -6.161685
v -1.019743 -0.519071 -6.162122
v -1.019936 -0.521559 -6.162560
v -1.020000 -0.524053 -6.163000
f 1 2 34
f 1 34 33
f 2 3 35
f 2 35 34
f 3 4 36
f 3 36 35
f 4 5 37
f 4 37 36
f 5 6 38
f 5 38 37
f 6 7 39
f 6 39 38
f 7 8 40
f 7 40 39
f 8 9 41
f 8 41 40
f 9 10 42
f 9 42 41
f 10 11 43
f 10 43 42
f 11 12 44
f 11 44 43
f 12 13 45
f 12 45 44
f 13 14 46
f 13 46 45
f 14 15 47
f 14 47 46
f 15 16 48
f 15 48 47
f 16 17 49
f 16 49 48
f 17 18 50
f 17 50 49
f 18 19 51
f 18 51 50
f 19 20 52
f 19 52 51
f 20 21 53
f 20 53 52
f 21 22 54
f 21 54 53
f 22 23 55
f 22 55 54
f 23 24 56
f 23 56 55
f 24 25 57
f 24 57 56
f 25 26 58
f 25 58 57
f 26 27 59
f 26 59 58
f 27 28 60
f 27 60 59
f 28 29 61
f 28 61 60
f 29 30 62
f 29 62 61
f 30 31 63
f 30 63 62
f 31 32 64
f 31 64 63
