v 1.317813 -0.559197 -6.576891
v 1.318483 -0.538994 -6.579656
v 1.318151 -0.549097 -6.578287
v 1.318810 -0.528887 -6.581001
v 1.319129 -0.518776 -6.582320
v 1.319443 -0.508662 -6.583613
v 1.319751 -0.498545 -6.584881
v 1.320052 -0.488424 -6.586124
v 1.320347 -0.478300 -6.587341
v 1.320636 -0.468173 -6.588533
v 1.320918 -0.458042 -6.589699
v 1.321195 -0.447908 -6.590840
v 1.321465 -0.437772 -6.591955
v 1.321729 -0.427632 -6.593044
v 1.321987 -0.417490 -6.594108
v 1.322238 -0.407344 -6.595147
v 1.322484 -0.397196 -6.596160
v 1.322723 -0.387045 -6.597147
v 1.322956 -0.376892 -6.598109
v 1.323182 -0.366736 -6.599046
v 1.323403 -0.356578 -6.599956
v 1.323617 -0.346417 -6.600842
v 1.323825 -0.336253 -6.601701
v 1.324027 -0.326088 -6.602535
v 1.324223 -0.315920 -6.603343
v 1.324412 -0.305750 -6.604126
v 1.324595 -0.295578 -6.604883
v 1.324772 -0.285404 -6.605615
v 1.324943 -0.275228 -6.606321
v 1.325108 -0.265050 -6.607001
v 1.325266 -0.254871 -6.607656
v 1.325418 -0.244690 -6.608285
v 1.325564 -0.234507 -6.608889
v 1.316560 -0.559470 -6.579272
v 1.315244 -0.559736 -6.581618
v 1.313864 -0.559995 -6.583929
v 1.312422 -0.560246 -6.586202
v 1.310918 -0.560490 -6.588435
v 1.309355 -0.560727 -6.590628
v 1.307732 -0.560955 -6.592779
v 1.306052 -0.561176 -6.594885
v 1.304315 -0.561389 -6.596946
v 1.302523 -0.561593 -6.598960
v 1.325033 -0.244726 -6.609016
v 1.324489 -0.254946 -6.609117
v 1.323933 -0.265168 -6.609189
v 1.323364 -0.275391 -6.609233
v 1.322783 -0.285614 -6.609250
v 1.322190 -0.295838 -6.609238
v 1.321585 -0.306063 -6.609198
v 1.320967 -0.316288 -6.609130
v 1.320337 -0.326514 -6.609035
v 1.319694 -0.336740 -6.608910
v 1.319040 -0.346966 -6.608758
v 1.318373 -0.357193 -6.608577
v 1.317694 -0.367419 -6.608369
v 1.317003 -0.377646 -6.608131
v 1.316300 -0.387872 -6.607865
v 1.315585 -0.398098 -6.607571
v 1.314857 -0.408324 -6.607249
v 1.314118 -0.418549 -6.606897
v 1.313367 -0.428773 -6.606517
v 1.312604 -0.438997 -6.606109
v 1.311828 -0.449220 -6.605672
v 1.311041 -0.459442 -6.605206
v 1.310242 -0.469664 -6.604711
v 1.309432 -0.479884 -6.604188
v 1.308609 -0.490103 -6.603636
v 1.307775 -0.500320 -6.603055
v 1.306929 -0.510536 -6.602445
v 1.306071 -0.520751 -6.601806
v 1.305201 -0.530964 -6.601138
v 1.304320 -0.541176 -6.600441
v 1.303427 -0.551385 -6.599715
v 1.325837 -0.214136 -6.610018
v 1.325704 -0.224322 -6.609466
v 1.325965 -0.203948 -6.610545
v 1.326086 -0.193760 -6.611046
v 1.326201 -0.183569 -6.611521
v 1.326309 -0.173378 -6.611970
v 1.326412 -0.163185 -6.612394
v 1.326508 -0.152992 -6.612792
v 1.326598 -0.142797 -6.613165
v 1.326682 -0.132601 -6.613512
v 1.326759 -0.122405 -6.613833
v 1.326831 -0.112207 -6.614128
v 1.326896 -0.102009 -6.614398
v 1.326955 -0.091810 -6.614642
v 1.327008 -0.081611 -6.614860
v 1.327054 -0.071411 -6.615053
v 1.327095 -0.061210 -6.615220
v 1.327129 -0.051009 -6.615361
v 1.327157 -0.040808 -6.615477
v 1.327179 -0.030606 -6.615567
v 1.327194 -0.020404 -6.615631
v 1.327203 -0.010202 -6.615670
v 1.327207 0.000000 -6.615683
v 1.324623 0.000000 -6.620305
v 1.321798 0.000000 -6.624785
v 1.318740 0.000000 -6.629109
v 1.315457 0.000000 -6.633264
v 1.311959 0.000000 -6.637241
v 1.308256 0.000000 -6.641026
v 1.304357 0.000000 -6.644610
v 1.300274 0.000000 -6.647983
v 1.296018 0.000000 -6.651134
v 1.291601 0.000000 -6.654056
v 1.300677 -0.561788 -6.600926
v 1.298778 -0.561975 -6.602841
v 1.296828 -0.562154 -6.604705
v 1.294828 -0.562323 -6.606516
v 1.292780 -0.562483 -6.608274
v 1.290685 -0.562635 -6.609976
v 1.288544 -0.562777 -6.611621
v 1.286360 -0.562909 -6.613209
v 1.284133 -0.563033 -6.614737
v 1.281866 -0.563146 -6.616206
v 1.291607 -0.010271 -6.654038
v 1.291606 -0.020543 -6.653995
v 1.291598 -0.030814 -6.653927
v 1.291584 -0.041085 -6.653834
v 1.291563 -0.051355 -6.653716
v 1.291535 -0.061626 -6.653574
v 1.291500 -0.071896 -6.653407
v 1.291459 -0.082165 -6.653214
v 1.291411 -0.092434 -6.652997
v 1.291355 -0.102702 -6.652755
v 1.291294 -0.112970 -6.652489
v 1.291225 -0.123237 -6.652197
v 1.291150 -0.133503 -6.651881
v 1.291067 -0.143768 -6.651539
v 1.290978 -0.154033 -6.651173
v 1.290883 -0.164296 -6.650782
v 1.290780 -0.174559 -6.650366
v 1.290671 -0.184820 -6.649926
v 1.290554 -0.195080 -6.649460
v 1.290432 -0.205339 -6.648970
v 1.290302 -0.215597 -6.648455
v 1.290165 -0.225853 -6.647915
v 1.290022 -0.236108 -6.647351
v 1.289872 -0.246362 -6.646761
v 1.289715 -0.256614 -6.646147
v 1.289552 -0.266864 -6.645508
v 1.289381 -0.277113 -6.644844
v 1.289204 -0.287360 -6.644155
v 1.289020 -0.297605 -6.643442
v 1.288830 -0.307848 -6.642703
v 1.288632 -0.318090 -6.641940
v 1.288428 -0.328329 -6.641153
v 1.288217 -0.338567 -6.640340
v 1.287999 -0.348802 -6.639503
v 1.287775 -0.359035 -6.638640
v 1.287543 -0.369266 -6.637753
v 1.287305 -0.379495 -6.636842
v 1.287061 -0.389721 -6.635905
v 1.286809 -0.399945 -6.634944
v 1.286551 -0.410166 -6.633958
v 1.286286 -0.420385 -6.632948
v 1.286014 -0.430601 -6.631912
v 1.285735 -0.440815 -6.630852
v 1.285450 -0.451025 -6.629768
v 1.285158 -0.461233 -6.628658
v 1.284859 -0.471439 -6.627524
v 1.284553 -0.481641 -6.626365
v 1.284241 -0.491840 -6.625182
v 1.283922 -0.502036 -6.623973
v 1.283596 -0.512229 -6.622740
v 1.283264 -0.522419 -6.621483
v 1.282924 -0.532606 -6.620201
v 1.282578 -0.542790 -6.618894
v 1.282225 -0.552970 -6.617562
v 1.282335 0.000000 -6.659179
v 1.287036 0.000000 -6.656740
v 1.277511 0.000000 -6.661365
v 1.272578 0.000000 -6.663293
v 1.267551 0.000000 -6.664957
v 1.262442 0.000000 -6.666353
v 1.257267 0.000000 -6.667476
v 1.252039 0.000000 -6.668324
v 1.246774 0.000000 -6.668893
v 1.241486 0.000000 -6.669183
v 1.279560 -0.563251 -6.617613
v 1.277217 -0.563345 -6.618959
v 1.274838 -0.563430 -6.620241
v 1.272426 -0.563504 -6.621459
v 1.269981 -0.563569 -6.622612
v 1.267506 -0.563625 -6.623699
v 1.265003 -0.563670 -6.624720
v 1.262474 -0.563705 -6.625673
v 1.259919 -0.563730 -6.626559
v 1.257342 -0.563745 -6.627375
v 1.254744 -0.563750 -6.628123
v 1.252126 -0.563745 -6.628800
v 1.249492 -0.563730 -6.629407
v 1.246842 -0.563705 -6.629943
v 1.244179 -0.563670 -6.630409
v 1.241505 -0.563625 -6.630802
v 1.238821 -0.563569 -6.631124
v 1.236130 -0.563504 -6.631374
v 1.233433 -0.563430 -6.631552
v 1.230733 -0.563345 -6.631657
v 1.228031 -0.563251 -6.631690
v 1.241424 -0.010275 -6.669173
v 1.241356 -0.020550 -6.669137
v 1.241281 -0.030824 -6.669076
v 1.241199 -0.041098 -6.668991
v 1.241110 -0.051372 -6.668880
v 1.241015 -0.061646 -6.668745
v 1.240912 -0.071919 -6.668585
v 1.240803 -0.082191 -6.668400
v 1.240687 -0.092463 -6.668190
v 1.240565 -0.102734 -6.667955
v 1.240435 -0.113005 -6.667696
v 1.240299 -0.123275 -6.667411
v 1.240156 -0.133544 -6.667102
v 1.240006 -0.143812 -6.666767
v 1.239849 -0.154079 -6.666408
v 1.239686 -0.164345 -6.666024
v 1.239516 -0.174610 -6.665615
v 1.239339 -0.184874 -6.665182
v 1.239155 -0.195136 -6.664723
v 1.238964 -0.205398 -6.664240
v 1.238767 -0.215658 -6.663731
v 1.238563 -0.225916 -6.663198
v 1.238352 -0.236174 -6.662640
v 1.238134 -0.246429 -6.662057
v 1.237910 -0.256683 -6.661449
v 1.237678 -0.266936 -6.660817
v 1.237440 -0.277187 -6.660159
v 1.237196 -0.287435 -6.659477
v 1.236944 -0.297683 -6.658770
v 1.236686 -0.307928 -6.658038
v 1.236421 -0.318171 -6.657282
v 1.236149 -0.328412 -6.656500
v 1.235870 -0.338651 -6.655694
v 1.235585 -0.348888 -6.654863
v 1.235293 -0.359123 -6.654007
v 1.234994 -0.369355 -6.653126
v 1.234688 -0.379585 -6.652220
v 1.234375 -0.389813 -6.651290
v 1.234056 -0.400038 -6.650335
v 1.233730 -0.410260 -6.649355
v 1.233398 -0.420480 -6.648351
v 1.233058 -0.430697 -6.647321
v 1.232712 -0.440912 -6.646267
v 1.232359 -0.451124 -6.645188
v 1.231999 -0.461332 -6.644085
v 1.231633 -0.471538 -6.642956
v 1.231259 -0.481741 -6.641803
v 1.230879 -0.491941 -6.640626
v 1.230493 -0.502138 -6.639423
v 1.230099 -0.512332 -6.638196
v 1.229699 -0.522522 -6.636944
v 1.229292 -0.532709 -6.635667
v 1.228878 -0.542893 -6.634366
v 1.228458 -0.553074 -6.633040
v 1.230901 0.000000 -6.668922
v 1.236190 0.000000 -6.669193
v 1.225634 0.000000 -6.668372
v 1.220403 0.000000 -6.667544
v 1.215224 0.000000 -6.666440
v 1.210110 0.000000 -6.665063
v 1.205076 0.000000 -6.663418
v 1.200137 0.000000 -6.661508
v 1.195305 0.000000 -6.659339
v 1.190595 0.000000 -6.656918
v 1.186020 0.000000 -6.654251
v 1.186016 -0.010202 -6.654238
v 1.186005 -0.020404 -6.654200
v 1.185985 -0.030606 -6.654137
v 1.185958 -0.040808 -6.654049
v 1.185924 -0.051009 -6.653935
v 1.185881 -0.061210 -6.653796
v 1.185831 -0.071411 -6.653631
v 1.185773 -0.081611 -6.653442
v 1.185708 -0.091810 -6.653227
v 1.185634 -0.102009 -6.652987
v 1.185553 -0.112207 -6.652721
v 1.185465 -0.122405 -6.652431
v 1.185368 -0.132601 -6.652115
v 1.185264 -0.142797 -6.651773
v 1.185152 -0.152992 -6.651407
v 1.185033 -0.163185 -6.651015
v 1.184905 -0.173378 -6.650598
v 1.184771 -0.183569 -6.650156
v 1.184628 -0.193760 -6.649688
v 1.184478 -0.203948 -6.649195
v 1.184319 -0.214136 -6.648677
v 1.184154 -0.224322 -6.648134
v 1.225330 -0.563146 -6.631650
v 1.222631 -0.563033 -6.631538
v 1.219936 -0.562909 -6.631354
v 1.217248 -0.562777 -6.631097
v 1.214568 -0.562635 -6.630769
v 1.211899 -0.562483 -6.630368
v 1.209242 -0.562323 -6.629896
v 1.206598 -0.562154 -6.629353
v 1.203972 -0.561975 -6.628740
v 1.201363 -0.561788 -6.628056
v 1.184732 -0.234544 -6.648028
v 1.185307 -0.244767 -6.647891
v 1.185879 -0.254991 -6.647723
v 1.186447 -0.265217 -6.647524
v 1.187013 -0.275444 -6.647294
v 1.187576 -0.285671 -6.647032
v 1.188135 -0.295900 -6.646739
v 1.188691 -0.306129 -6.646415
v 1.189244 -0.316359 -6.646060
v 1.189794 -0.326590 -6.645673
v 1.190340 -0.336821 -6.645254
v 1.190882 -0.347052 -6.644805
v 1.191421 -0.357283 -6.644324
v 1.191956 -0.367515 -6.643811
v 1.192488 -0.377746 -6.643267
v 1.193016 -0.387978 -6.642691
v 1.193540 -0.398209 -6.642084
v 1.194060 -0.408440 -6.641445
v 1.194576 -0.418670 -6.640775
v 1.195089 -0.428900 -6.640072
v 1.195597 -0.439129 -6.639339
v 1.196101 -0.449358 -6.638573
v 1.196602 -0.459585 -6.637776
v 1.197097 -0.469812 -6.636947
v 1.197589 -0.480038 -6.636086
v 1.198077 -0.490262 -6.635194
v 1.198560 -0.500485 -6.634270
v 1.199038 -0.510706 -6.633313
v 1.199512 -0.520926 -6.632326
v 1.199982 -0.531145 -6.631306
v 1.200447 -0.541361 -6.630254
v 1.200907 -0.551576 -6.629171
v 1.183799 -0.244690 -6.646971
v 1.183980 -0.234507 -6.647565
v 1.183610 -0.254871 -6.646352
v 1.183414 -0.265050 -6.645708
v 1.183210 -0.275228 -6.645039
v 1.182998 -0.285404 -6.644344
v 1.182778 -0.295578 -6.643624
v 1.182551 -0.305750 -6.642879
v 1.182316 -0.315920 -6.642108
v 1.182074 -0.326088 -6.641313
v 1.181824 -0.336253 -6.640492
v 1.181566 -0.346417 -6.639646
v 1.181300 -0.356578 -6.638775
v 1.181027 -0.366736 -6.637879
v 1.180746 -0.376892 -6.636957
v 1.180458 -0.387045 -6.636010
v 1.180162 -0.397196 -6.635038
v 1.179858 -0.407344 -6.634041
v 1.179547 -0.417490 -6.633019
v 1.179228 -0.427632 -6.631972
v 1.178901 -0.437772 -6.630899
v 1.178567 -0.447908 -6.629802
v 1.178225 -0.458042 -6.628679
v 1.177875 -0.468173 -6.627531
v 1.177518 -0.478300 -6.626358
v 1.177153 -0.488424 -6.625160
v 1.176781 -0.498545 -6.623937
v 1.176401 -0.508662 -6.622689
v 1.176014 -0.518776 -6.621415
v 1.175618 -0.528887 -6.620117
v 1.175216 -0.538994 -6.618793
v 1.174805 -0.549097 -6.617445
v 1.174388 -0.559197 -6.616071
v 1.198774 -0.561593 -6.627302
v 1.196206 -0.561389 -6.626479
v 1.193663 -0.561176 -6.625587
v 1.191145 -0.560955 -6.624627
v 1.188655 -0.560727 -6.623600
v 1.186193 -0.560490 -6.622507
v 1.183763 -0.560246 -6.621348
v 1.181366 -0.559995 -6.620124
v 1.179003 -0.559736 -6.618835
v 1.176676 -0.559470 -6.617484
f 1 2 3
f 1 4 2
f 1 5 4
f 1 6 5
f 1 7 6
f 1 8 7
f 1 9 8
f 1 10 9
f 1 11 10
f 1 12 11
f 1 13 12
f 1 14 13
f 1 15 14
f 1 16 15
f 1 17 16
f 1 18 17
f 1 19 18
f 1 20 19
f 1 21 20
f 1 22 21
f 1 23 22
f 1 24 23
f 1 25 24
f 1 26 25
f 1 27 26
f 1 28 27
f 1 29 28
f 1 30 29
f 1 31 30
f 1 32 31
f 1 33 32
f 1 34 35
f 1 35 36
f 1 36 37
f 1 37 38
f 1 38 39
f 1 39 40
f 1 40 41
f 1 41 42
f 1 42 43
f 1 44 33
f 1 45 44
f 1 46 45
f 1 47 46
f 1 48 47
f 1 49 48
f 1 50 49
f 1 51 50
f 1 52 51
f 1 53 52
f 1 54 53
f 1 55 54
f 1 56 55
f 1 57 56
f 1 58 57
f 1 59 58
f 1 60 59
f 1 61 60
f 1 62 61
f 1 63 62
f 1 64 63
f 1 65 64
f 1 66 65
f 1 67 66
f 1 68 67
f 1 69 68
f 1 70 69
f 1 71 70
f 1 72 71
f 1 73 72
f 1 74 73
f 1 43 74
f 33 75 76
f 33 77 75
f 33 78 77
f 33 79 78
f 33 80 79
f 33 81 80
f 33 82 81
f 33 83 82
f 33 84 83
f 33 85 84
f 33 86 85
f 33 87 86
f 33 88 87
f 33 89 88
f 33 90 89
f 33 91 90
f 33 92 91
f 33 93 92
f 33 94 93
f 33 95 94
f 33 96 95
f 33 97 96
f 33 98 97
f 33 99 98
f 33 100 99
f 33 101 100
f 33 102 101
f 33 103 102
f 33 104 103
f 33 105 104
f 33 106 105
f 33 107 106
f 43 108 109
f 43 109 110
f 43 110 111
f 43 111 112
f 43 112 113
f 43 113 114
f 43 114 115
f 43 115 116
f 43 116 117
f 33 118 107
f 33 119 118
f 33 120 119
f 33 121 120
f 33 122 121
f 33 123 122
f 33 124 123
f 33 125 124
f 33 126 125
f 33 127 126
f 33 128 127
f 33 129 128
f 33 130 129
f 33 131 130
f 33 132 131
f 33 133 132
f 33 134 133
f 33 135 134
f 33 136 135
f 33 137 136
f 33 138 137
f 33 139 138
f 33 140 139
f 33 44 140
f 44 141 140
f 44 45 141
f 45 142 141
f 45 46 142
f 46 143 142
f 46 47 143
f 47 144 143
f 47 48 144
f 48 145 144
f 48 49 145
f 49 146 145
f 49 50 146
f 50 147 146
f 50 51 147
f 51 148 147
f 51 52 148
f 52 149 148
f 52 53 149
f 53 150 149
f 53 54 150
f 54 151 150
f 54 55 151
f 55 152 151
f 55 56 152
f 56 153 152
f 56 57 153
f 57 154 153
f 57 58 154
f 58 155 154
f 58 59 155
f 59 156 155
f 59 60 156
f 60 157 156
f 60 61 157
f 61 158 157
f 61 62 158
f 62 159 158
f 62 63 159
f 63 160 159
f 63 64 160
f 64 161 160
f 64 65 161
f 65 162 161
f 65 66 162
f 66 163 162
f 66 67 163
f 67 164 163
f 67 68 164
f 68 165 164
f 68 69 165
f 69 166 165
f 69 70 166
f 70 167 166
f 70 71 167
f 71 168 167
f 71 72 168
f 72 169 168
f 72 73 169
f 73 170 169
f 73 74 170
f 74 171 170
f 74 43 171
f 43 117 171
f 107 172 173
f 107 174 172
f 107 175 174
f 107 176 175
f 107 177 176
f 107 178 177
f 107 179 178
f 107 180 179
f 107 181 180
f 117 182 183
f 117 183 184
f 117 184 185
f 117 185 186
f 117 186 187
f 117 187 188
f 117 188 189
f 117 189 190
f 117 190 191
f 117 191 192
f 117 192 193
f 117 193 194
f 117 194 195
f 117 195 196
f 117 196 197
f 117 197 198
f 117 198 199
f 117 199 200
f 117 200 201
f 117 201 202
f 107 118 181
f 118 203 181
f 118 119 203
f 119 204 203
f 119 120 204
f 120 205 204
f 120 121 205
f 121 206 205
f 121 122 206
f 122 207 206
f 122 123 207
f 123 208 207
f 123 124 208
f 124 209 208
f 124 125 209
f 125 210 209
f 125 126 210
f 126 211 210
f 126 127 211
f 127 212 211
f 127 128 212
f 128 213 212
f 128 129 213
f 129 214 213
f 129 130 214
f 130 215 214
f 130 131 215
f 131 216 215
f 131 132 216
f 132 217 216
f 132 133 217
f 133 218 217
f 133 134 218
f 134 219 218
f 134 135 219
f 135 220 219
f 135 136 220
f 136 221 220
f 136 137 221
f 137 222 221
f 137 138 222
f 138 223 222
f 138 139 223
f 139 224 223
f 139 140 224
f 140 225 224
f 140 141 225
f 141 226 225
f 141 142 226
f 142 227 226
f 142 143 227
f 143 228 227
f 143 144 228
f 144 229 228
f 144 145 229
f 145 230 229
f 145 146 230
f 146 231 230
f 146 147 231
f 147 232 231
f 147 148 232
f 148 233 232
f 148 149 233
f 149 234 233
f 149 150 234
f 150 235 234
f 150 151 235
f 151 236 235
f 151 152 236
f 152 237 236
f 152 153 237
f 153 238 237
f 153 154 238
f 154 239 238
f 154 155 239
f 155 240 239
f 155 156 240
f 156 241 240
f 156 157 241
f 157 242 241
f 157 158 242
f 158 243 242
f 158 159 243
f 159 244 243
f 159 160 244
f 160 245 244
f 160 161 245
f 161 246 245
f 161 162 246
f 162 247 246
f 162 163 247
f 163 248 247
f 163 164 248
f 164 249 248
f 164 165 249
f 165 250 249
f 165 166 250
f 166 251 250
f 166 167 251
f 167 252 251
f 167 168 252
f 168 253 252
f 168 169 253
f 169 254 253
f 169 170 254
f 170 255 254
f 170 171 255
f 171 256 255
f 171 117 256
f 117 202 256
f 181 257 258
f 181 259 257
f 181 260 259
f 181 261 260
f 181 262 261
f 181 263 262
f 181 264 263
f 181 265 264
f 181 266 265
f 181 267 266
f 181 268 267
f 181 269 268
f 181 270 269
f 181 271 270
f 181 272 271
f 181 273 272
f 181 274 273
f 181 275 274
f 181 276 275
f 181 277 276
f 181 278 277
f 181 279 278
f 181 280 279
f 181 281 280
f 181 282 281
f 181 283 282
f 181 284 283
f 181 285 284
f 181 286 285
f 181 287 286
f 181 288 287
f 181 289 288
f 202 290 291
f 202 291 292
f 202 292 293
f 202 293 294
f 202 294 295
f 202 295 296
f 202 296 297
f 202 297 298
f 202 298 299
f 181 203 289
f 203 204 289
f 204 205 289
f 205 206 289
f 206 207 289
f 207 208 289
f 208 209 289
f 209 210 289
f 210 211 289
f 211 212 289
f 212 213 289
f 213 214 289
f 214 215 289
f 215 216 289
f 216 217 289
f 217 218 289
f 218 219 289
f 219 220 289
f 220 221 289
f 221 222 289
f 222 223 289
f 223 224 289
f 224 225 289
f 225 300 289
f 225 226 300
f 226 301 300
f 226 227 301
f 227 302 301
f 227 228 302
f 228 303 302
f 228 229 303
f 229 304 303
f 229 230 304
f 230 305 304
f 230 231 305
f 231 306 305
f 231 232 306
f 232 307 306
f 232 233 307
f 233 308 307
f 233 234 308
f 234 309 308
f 234 235 309
f 235 310 309
f 235 236 310
f 236 311 310
f 236 237 311
f 237 312 311
f 237 238 312
f 238 313 312
f 238 239 313
f 239 314 313
f 239 240 314
f 240 315 314
f 240 241 315
f 241 316 315
f 241 242 316
f 242 317 316
f 242 243 317
f 243 318 317
f 243 244 318
f 244 319 318
f 244 245 319
f 245 320 319
f 245 246 320
f 246 321 320
f 246 247 321
f 247 322 321
f 247 248 322
f 248 323 322
f 248 249 323
f 249 324 323
f 249 250 324
f 250 325 324
f 250 251 325
f 251 326 325
f 251 252 326
f 252 327 326
f 252 253 327
f 253 328 327
f 253 254 328
f 254 329 328
f 254 255 329
f 255 330 329
f 255 256 330
f 256 331 330
f 256 299 331
f 256 202 299
f 289 332 333
f 289 334 332
f 289 335 334
f 289 336 335
f 289 337 336
f 289 338 337
f 289 339 338
f 289 340 339
f 289 341 340
f 289 342 341
f 289 343 342
f 289 344 343
f 289 345 344
f 289 346 345
f 289 347 346
f 289 348 347
f 289 349 348
f 289 350 349
f 289 351 350
f 289 352 351
f 289 353 352
f 289 354 353
f 289 355 354
f 289 356 355
f 289 357 356
f 289 358 357
f 289 359 358
f 289 360 359
f 289 361 360
f 289 362 361
f 289 363 362
f 289 364 363
f 299 365 366
f 299 366 367
f 299 367 368
f 299 368 369
f 299 369 370
f 299 370 371
f 299 371 372
f 299 372 373
f 299 373 374
f 299 374 364
f 289 300 364
f 300 301 364
f 301 302 364
f 302 303 364
f 303 304 364
f 304 305 364
f 305 306 364
f 306 307 364
f 307 308 364
f 308 309 364
f 309 310 364
f 310 311 364
f 311 312 364
f 312 313 364
f 313 314 364
f 314 315 364
f 315 316 364
f 316 317 364
f 317 318 364
f 318 319 364
f 319 320 364
f 320 321 364
f 321 322 364
f 322 323 364
f 323 324 364
f 324 325 364
f 325 326 364
f 326 327 364
f 327 328 364
f 328 329 364
f 329 330 364
f 330 331 364
f 331 299 364
