v 0.817500 -0.275000 -6.413000
v 0.817207 -0.380376 -6.401954
v 0.817500 -0.378429 -6.413000
v 0.816410 -0.275000 -6.391502
v 0.816312 -0.382360 -6.390707
v 0.814792 -0.384369 -6.379313
v 0.813150 -0.275000 -6.370224
v 0.812625 -0.386394 -6.367827
v 0.809788 -0.388426 -6.356303
v 0.807755 -0.275000 -6.349385
v 0.806257 -0.390455 -6.344794
v 0.802009 -0.392472 -6.333356
v 0.800279 -0.275000 -6.329199
v 0.797033 -0.394467 -6.322044
v 0.791344 -0.396427 -6.310924
v 0.790799 -0.275000 -6.309873
v 0.784965 -0.398343 -6.300061
v 0.779412 -0.275000 -6.291606
v 0.777917 -0.400201 -6.289522
v 0.770221 -0.401991 -6.279371
v 0.766236 -0.275000 -6.274583
v 0.761899 -0.403701 -6.269674
v 0.752973 -0.405319 -6.260498
v 0.751405 -0.275000 -6.258982
v 0.743483 -0.406836 -6.251895
v 0.735073 -0.275000 -6.244960
v 0.733503 -0.408247 -6.243893
v 0.723111 -0.409547 -6.236517
v 0.717405 -0.275000 -6.232663
v 0.712385 -0.410733 -6.229792
v 0.701405 -0.411800 -6.223743
v 0.698584 -0.275000 -6.222217
v 0.690248 -0.412743 -6.218395
v 0.678992 -0.413558 -6.213773
v 0.678802 -0.275000 -6.213728
v 0.667687 -0.414244 -6.209882
v 0.658264 -0.275000 -6.207284
v 0.656343 -0.414805 -6.206699
v 0.644967 -0.415246 -6.204201
v 0.637178 -0.275000 -6.202950
v 0.633566 -0.415570 -6.202363
v 0.622147 -0.415781 -6.201162
v 0.615763 -0.275000 -6.200773
v 0.610717 -0.415885 -6.200573
v 0.599283 -0.415885 -6.200573
v 0.594237 -0.275000 -6.200773
v 0.587853 -0.415781 -6.201162
v 0.576434 -0.415570 -6.202363
v 0.572822 -0.275000 -6.202950
v 0.565033 -0.415246 -6.204201
v 0.553657 -0.414805 -6.206699
v 0.551736 -0.275000 -6.207284
v 0.542313 -0.414244 -6.209882
v 0.531198 -0.275000 -6.213728
v 0.531008 -0.413558 -6.213773
v 0.519752 -0.412743 -6.218395
v 0.511416 -0.275000 -6.222217
v 0.508595 -0.411800 -6.223743
v 0.497615 -0.410733 -6.229792
v 0.492595 -0.275000 -6.232663
v 0.486889 -0.409547 -6.236517
v 0.476497 -0.408247 -6.243893
v 0.474927 -0.275000 -6.244960
v 0.466517 -0.406836 -6.251895
v 0.458595 -0.275000 -6.258982
v 0.457027 -0.405319 -6.260498
v 0.448101 -0.403701 -6.269674
v 0.443764 -0.275000 -6.274583
v 0.439779 -0.401991 -6.279371
v 0.432083 -0.400201 -6.289522
v 0.430588 -0.275000 -6.291606
v 0.425035 -0.398343 -6.300061
v 0.419201 -0.275000 -6.309873
v 0.418656 -0.396427 -6.310924
v 0.412967 -0.394467 -6.322044
v 0.409721 -0.275000 -6.329199
v 0.407991 -0.392472 -6.333356
v 0.403743 -0.390455 -6.344794
v 0.402245 -0.275000 -6.349385
v 0.400212 -0.388426 -6.356303
v 0.397375 -0.386394 -6.367827
v 0.396850 -0.275000 -6.370224
v 0.395208 -0.384369 -6.379313
v 0.393688 -0.382360 -6.390707
v 0.393590 -0.275000 -6.391502
v 0.392793 -0.380376 -6.401954
v 0.392500 -0.275000 -6.413000
v 0.392500 -0.378429 -6.413000
f 1 3 2
f 1 2 4
f 4 2 5
f 4 5 6
f 4 6 7
f 7 6 8
f 7 8 9
f 7 9 10
f 10 9 11
f 10 11 12
f 10 12 13
f 13 12 14
f 13 14 15
f 13 15 16
f 16 15 17
f 16 17 18
f 18 17 19
f 18 19 20
f 18 20 21
f 21 20 22
f 21 22 23
f 21 23 24
f 24 23 25
f 24 25 26
f 26 25 27
f 26 27 28
f 26 28 29
f 29 28 30
f 29 30 31
f 29 31 32
f 32 31 33
f 32 33 34
f 32 34 35
f 35 34 36
f 35 36 37
f 37 36 38
f 37 38 39
f 37 39 40
f 40 39 41
f 40 41 42
f 40 42 43
f 43 42 44
f 43 44 45
f 43 45 46
f 46 45 47
f 46 47 48
f 46 48 49
f 49 48 50
f 49 50 51
f 49 51 52
f 52 51 53
f 52 53 54
f 54 53 55
f 54 55 56
f 54 56 57
f 57 56 58
f 57 58 59
f 57 59 60
f 60 59 61
f 60 61 62
f 60 62 63
f 63 62 64
f 63 64 65
f 65 64 66
f 65 66 67
f 65 67 68
f 68 67 69
f 68 69 70
f 68 70 71
f 71 70 72
f 71 72 73
f 73 72 74
f 73 74 75
f 73 75 76
f 76 75 77
f 76 77 78
f 76 78 79
f 79 78 80
f 79 80 81
f 79 81 82
f 82 81 83
f 82 83 84
f 82 84 85
f 85 84 86
f 85 86 87
f 87 86 88
