v -0.970000 -0.831850 -6.463000
v -0.973663 -0.831869 -6.462941
v -0.970000 -0.488788 -6.463000
v -0.975065 -0.488788 -6.462872
v -0.977207 -0.831923 -6.462769
v -0.980117 -0.488788 -6.462487
v -0.980636 -0.832012 -6.462487
v -0.983956 -0.832134 -6.462101
v -0.985143 -0.488788 -6.461847
v -0.987172 -0.832287 -6.461616
v -0.990130 -0.488788 -6.460953
v -0.990289 -0.832469 -6.461037
v -0.993313 -0.832680 -6.460369
v -0.995065 -0.488788 -6.459808
v -0.996249 -0.832917 -6.459616
v -0.999101 -0.833179 -6.458784
v -0.999936 -0.488788 -6.458414
v -1.001876 -0.833465 -6.457878
v -1.004577 -0.833773 -6.456903
v -1.004731 -0.488788 -6.456775
v -1.007211 -0.834101 -6.455863
v -1.009436 -0.488788 -6.454896
v -1.009783 -0.834447 -6.454763
v -1.012298 -0.834811 -6.453609
v -1.014039 -0.488788 -6.452780
v -1.014759 -0.835191 -6.452404
v -1.017167 -0.835587 -6.451149
v -1.018530 -0.488788 -6.450435
v -1.019523 -0.835998 -6.449844
v -1.021827 -0.836426 -6.448489
v -1.022896 -0.488788 -6.447864
v -1.024080 -0.836868 -6.447085
v -1.026281 -0.837326 -6.445632
v -1.027127 -0.488788 -6.445076
v -1.028432 -0.837800 -6.444131
v -1.030532 -0.838288 -6.442582
v -1.031211 -0.488788 -6.442078
v -1.032582 -0.838792 -6.440985
v -1.034583 -0.839310 -6.439340
v -1.035137 -0.488788 -6.438876
v -1.036534 -0.839843 -6.437649
v -1.038436 -0.840391 -6.435911
v -1.038897 -0.488788 -6.435479
v -1.040291 -0.840954 -6.434128
v -1.042097 -0.841531 -6.432298
v -1.042479 -0.488788 -6.431897
v -1.043855 -0.842122 -6.430422
v -1.045564 -0.842728 -6.428501
v -1.045876 -0.488788 -6.428137
v -1.047226 -0.843348 -6.426533
v -1.048838 -0.843984 -6.424518
v -1.049078 -0.488788 -6.424211
v -1.050401 -0.844634 -6.422457
v -1.051914 -0.845298 -6.420348
v -1.052076 -0.488788 -6.420127
v -1.053378 -0.845978 -6.418192
v -1.054792 -0.846673 -6.415988
v -1.054864 -0.488788 -6.415896
v -1.056155 -0.847383 -6.413735
v -1.057435 -0.488788 -6.411530
v -1.057467 -0.848109 -6.411435
v -1.058728 -0.848849 -6.409086
v -1.059780 -0.488788 -6.407039
v -1.059938 -0.849606 -6.406687
v -1.061097 -0.850377 -6.404240
v -1.061896 -0.488788 -6.402436
v -1.062203 -0.851165 -6.401743
v -1.063254 -0.851969 -6.399193
v -1.063775 -0.488788 -6.397731
v -1.064245 -0.852791 -6.396586
v -1.065173 -0.853632 -6.393918
v -1.065414 -0.488788 -6.392936
v -1.066032 -0.854493 -6.391186
v -1.066819 -0.855377 -6.388384
v -1.066808 -0.488788 -6.388065
v -1.067530 -0.856283 -6.385510
v -1.067953 -0.488788 -6.383130
v -1.068160 -0.857214 -6.382558
v -1.068704 -0.858170 -6.379525
v -1.068847 -0.488788 -6.378143
v -1.069159 -0.859153 -6.376407
v -1.069521 -0.860164 -6.373200
v -1.069487 -0.488788 -6.373117
v -1.069784 -0.861205 -6.369899
v -1.069872 -0.488788 -6.368065
v -1.069945 -0.862277 -6.366500
v -1.070000 -0.863380 -6.363000
v -1.070000 -0.488788 -6.363000
f 1 2 3
f 2 4 3
f 2 5 4
f 5 6 4
f 5 7 6
f 7 8 6
f 8 9 6
f 8 10 9
f 10 11 9
f 10 12 11
f 12 13 11
f 13 14 11
f 13 15 14
f 15 16 14
f 16 17 14
f 16 18 17
f 18 19 17
f 19 20 17
f 19 21 20
f 21 22 20
f 21 23 22
f 23 24 22
f 24 25 22
f 24 26 25
f 26 27 25
f 27 28 25
f 27 29 28
f 29 30 28
f 30 31 28
f 30 32 31
f 32 33 31
f 33 34 31
f 33 35 34
f 35 36 34
f 36 37 34
f 36 38 37
f 38 39 37
f 39 40 37
f 39 41 40
f 41 42 40
f 42 43 40
f 42 44 43
f 44 45 43
f 45 46 43
f 45 47 46
f 47 48 46
f 48 49 46
f 48 50 49
f 50 51 49
f 51 52 49
f 51 53 52
f 53 54 52
f 54 55 52
f 54 56 55
f 56 57 55
f 57 58 55
f 57 59 58
f 59 60 58
f 59 61 60
f 61 62 60
f 62 63 60
f 62 64 63
f 64 65 63
f 65 66 63
f 65 67 66
f 67 68 66
f 68 69 66
f 68 70 69
f 70 71 69
f 71 72 69
f 71 73 72
f 73 74 72
f 74 75 72
f 74 76 75
f 76 77 75
f 76 78 77
f 78 79 77
f 79 80 77
f 79 81 80
f 81 82 80
f 82 83 80
f 82 84 83
f 84 85 83
f 84 86 85
f 86 87 85
f 87 88 85
