v -0.464044 0.010000 0.483284
v -0.464044 0.220000 0.483284
v -0.461907 0.220000 0.494723
v -0.484527 0.220000 0.543233
v -0.484527 0.000000 0.543233
v -0.458866 0.000000 0.488203
v -0.458866 0.010000 0.488203
v -0.461907 0.016837 0.494723
v -0.461808 0.016611 0.494506
v -0.461716 0.016388 0.494287
v -0.461629 0.016168 0.494067
v -0.461547 0.015951 0.493846
v -0.461471 0.015737 0.493624
v -0.461400 0.015525 0.493401
v -0.461335 0.015317 0.493177
v -0.461276 0.015113 0.492952
v -0.461221 0.014911 0.492727
v -0.461172 0.014712 0.492501
v -0.461129 0.014517 0.492274
v -0.461091 0.014325 0.492047
v -0.461058 0.014137 0.491820
v -0.461030 0.013952 0.491592
v -0.461007 0.013770 0.491364
v -0.460990 0.013592 0.491136
v -0.460978 0.013418 0.490908
v -0.460971 0.013247 0.490680
v -0.460970 0.013080 0.490452
v -0.460973 0.012917 0.490225
v -0.460982 0.012757 0.489998
v -0.460996 0.012602 0.489771
v -0.461015 0.012450 0.489545
v -0.461039 0.012303 0.489320
v -0.461068 0.012159 0.489095
v -0.461103 0.012020 0.488871
v -0.461142 0.011885 0.488648
v -0.461187 0.011754 0.488427
v -0.461236 0.011628 0.488206
v -0.461291 0.011506 0.487986
v -0.461350 0.011388 0.487768
v -0.461414 0.011275 0.487552
v -0.461483 0.011167 0.487337
v -0.461557 0.011063 0.487125
v -0.461635 0.010964 0.486914
v -0.461718 0.010869 0.486705
v -0.461805 0.010779 0.486498
v -0.461897 0.010694 0.486294
v -0.461993 0.010614 0.486093
v -0.462093 0.010539 0.485894
v -0.462197 0.010469 0.485698
v -0.462305 0.010403 0.485504
v -0.462417 0.010343 0.485314
v -0.462534 0.010288 0.485127
v -0.462654 0.010237 0.484943
v -0.462777 0.010192 0.484762
v -0.462905 0.010151 0.484584
v -0.463036 0.010116 0.484410
v -0.463170 0.010085 0.484239
v -0.463308 0.010059 0.484071
v -0.463449 0.010038 0.483907
v -0.463593 0.010021 0.483746
v -0.463740 0.010009 0.483588
v -0.463890 0.010002 0.483434
f 62 1 2
f 62 2 3
f 62 3 4
f 5 6 7
f 5 7 8
f 4 5 8
f 62 4 8
f 62 8 9
f 62 9 10
f 62 10 11
f 62 11 12
f 62 12 13
f 62 13 14
f 62 14 15
f 62 15 16
f 62 16 17
f 62 17 18
f 62 18 19
f 62 19 20
f 62 20 21
f 62 21 22
f 62 22 23
f 62 23 24
f 62 24 25
f 62 25 26
f 62 26 27
f 62 27 28
f 62 28 29
f 62 29 30
f 62 30 31
f 62 31 32
f 62 32 33
f 62 33 34
f 62 34 35
f 62 35 36
f 62 36 37
f 62 37 38
f 62 38 39
f 62 39 40
f 62 40 41
f 62 41 42
f 62 42 43
f 62 43 44
f 62 44 45
f 62 45 46
f 62 46 47
f 62 47 48
f 62 48 49
f 62 49 50
f 62 50 51
f 62 51 52
f 62 52 53
f 62 53 54
f 62 54 55
f 62 55 56
f 62 56 57
f 62 57 58
f 62 58 59
f 62 59 60
f 60 61 62
