v 0.640822 -0.157948 -0.860000
v -0.645000 0.000000 -0.895000
v -0.641691 -0.065254 -0.895000
v 0.641691 -0.065254 -0.895000
v 0.645000 0.000000 -0.895000
v 0.660000 0.000000 -0.860000
v 0.660000 -0.040000 -0.857174
v 0.660250 -0.040000 -0.856591
v 0.660501 -0.040000 -0.856008
v 0.660751 -0.040000 -0.855425
v 0.661002 -0.040000 -0.854842
v 0.661252 -0.040000 -0.854258
v 0.661503 -0.040000 -0.853675
v 0.661753 -0.040000 -0.853091
v 0.662004 -0.040000 -0.852508
v 0.662254 -0.040000 -0.851924
v 0.662505 -0.040000 -0.851340
v 0.662755 -0.040000 -0.850757
v 0.663006 -0.040000 -0.850173
v 0.663257 -0.040000 -0.849589
v 0.663508 -0.040000 -0.849005
v 0.663758 -0.040000 -0.848421
v 0.664009 -0.040000 -0.847837
v 0.664260 -0.040000 -0.847252
v 0.664511 -0.040000 -0.846668
v 0.664762 -0.040000 -0.846084
v 0.665013 -0.040000 -0.845499
v 0.665264 -0.040000 -0.844915
v 0.665515 -0.040000 -0.844330
v 0.665766 -0.040000 -0.843746
v 0.666017 -0.040000 -0.843161
v 0.666268 -0.040000 -0.842576
v 0.666519 -0.040000 -0.841991
v 0.666770 -0.040000 -0.841406
v 0.667021 -0.040000 -0.840822
v 0.667272 -0.040000 -0.840236
v 0.667523 -0.040000 -0.839651
v 0.667775 -0.040000 -0.839066
v 0.668026 -0.040000 -0.838481
v 0.668277 -0.040000 -0.837896
v 0.668529 -0.040000 -0.837310
v 0.668780 -0.040000 -0.836725
v 0.669031 -0.040000 -0.836139
v 0.669283 -0.040000 -0.835553
v 0.669534 -0.040000 -0.834968
v 0.669786 -0.040000 -0.834382
v 0.670037 -0.040000 -0.833796
v 0.670289 -0.040000 -0.833210
v 0.670540 -0.040000 -0.832624
v 0.670792 -0.040000 -0.832038
v 0.671044 -0.040000 -0.831452
v 0.671295 -0.040000 -0.830866
v 0.671547 -0.040000 -0.830280
v 0.671799 -0.040000 -0.829693
v 0.672051 -0.040000 -0.829107
v 0.672302 -0.040000 -0.828520
v 0.672554 -0.040000 -0.827934
v 0.672806 -0.040000 -0.827347
v 0.673058 -0.040000 -0.826761
v 0.673562 -0.040000 -0.825587
v 0.673310 -0.040000 -0.826174
v 0.673498 -0.045008 -0.825000
v 0.673814 -0.040000 -0.825000
v 0.648275 -0.188056 -0.825000
v 0.646859 -0.192870 -0.825000
v 0.646622 -0.192784 -0.825587
v 0.646385 -0.192698 -0.826174
v 0.646148 -0.192612 -0.826760
v 0.645912 -0.192526 -0.827347
v 0.645675 -0.192439 -0.827934
v 0.645438 -0.192353 -0.828520
v 0.645202 -0.192267 -0.829107
v 0.644965 -0.192181 -0.829693
v 0.644729 -0.192095 -0.830279
v 0.644492 -0.192009 -0.830866
v 0.644256 -0.191923 -0.831452
v 0.644019 -0.191837 -0.832038
v 0.643783 -0.191751 -0.832624
v 0.643546 -0.191665 -0.833210
v 0.643310 -0.191579 -0.833796
v 0.643074 -0.191493 -0.834382
v 0.642837 -0.191407 -0.834968
v 0.642601 -0.191321 -0.835553
v 0.642365 -0.191235 -0.836139
v 0.642129 -0.191149 -0.836724
v 0.641892 -0.191063 -0.837310
v 0.641656 -0.190977 -0.837895
v 0.641420 -0.190891 -0.838481
v 0.641184 -0.190805 -0.839066
v 0.640948 -0.190719 -0.839651
v 0.640712 -0.190633 -0.840236
v 0.640476 -0.190547 -0.840821
v 0.640240 -0.190461 -0.841406
v 0.640004 -0.190375 -0.841991
v 0.639768 -0.190289 -0.842576
v 0.639532 -0.190203 -0.843161
v 0.639296 -0.190118 -0.843746
v 0.639060 -0.190032 -0.844330
v 0.638824 -0.189946 -0.844915
v 0.638588 -0.189860 -0.845499
v 0.638353 -0.189774 -0.846084
v 0.638117 -0.189688 -0.846668
v 0.637881 -0.189603 -0.847252
v 0.637645 -0.189517 -0.847837
v 0.637410 -0.189431 -0.848421
v 0.637174 -0.189345 -0.849005
v 0.636938 -0.189260 -0.849589
v 0.636703 -0.189174 -0.850173
v 0.636467 -0.189088 -0.850757
v 0.636232 -0.189002 -0.851340
v 0.635996 -0.188917 -0.851924
v 0.635761 -0.188831 -0.852508
v 0.635525 -0.188745 -0.853091
v 0.635290 -0.188659 -0.853675
v 0.635054 -0.188574 -0.854258
v 0.634819 -0.188488 -0.854842
v 0.634584 -0.188402 -0.855425
v 0.634348 -0.188317 -0.856008
v 0.634113 -0.188231 -0.856591
v 0.633878 -0.188146 -0.857174
v 0.606516 -0.263321 -0.857174
v 0.606752 -0.263407 -0.856591
v 0.606987 -0.263492 -0.856008
v 0.607222 -0.263578 -0.855425
v 0.607457 -0.263664 -0.854842
v 0.607693 -0.263749 -0.854258
v 0.607928 -0.263835 -0.853675
v 0.608164 -0.263921 -0.853091
v 0.608399 -0.264006 -0.852508
v 0.608635 -0.264092 -0.851924
v 0.608870 -0.264178 -0.851340
v 0.609106 -0.264263 -0.850757
v 0.609341 -0.264349 -0.850173
v 0.609577 -0.264435 -0.849589
v 0.609812 -0.264521 -0.849005
v 0.610048 -0.264606 -0.848421
v 0.610284 -0.264692 -0.847837
v 0.610519 -0.264778 -0.847252
v 0.610755 -0.264864 -0.846668
v 0.610991 -0.264950 -0.846084
v 0.611227 -0.265035 -0.845499
v 0.611462 -0.265121 -0.844915
v 0.611698 -0.265207 -0.844330
v 0.611934 -0.265293 -0.843746
v 0.612170 -0.265379 -0.843161
v 0.612406 -0.265465 -0.842576
v 0.612642 -0.265551 -0.841991
v 0.612878 -0.265636 -0.841406
v 0.613114 -0.265722 -0.840822
v 0.613350 -0.265808 -0.840236
v 0.613586 -0.265894 -0.839651
v 0.613822 -0.265980 -0.839066
v 0.614058 -0.266066 -0.838481
v 0.614294 -0.266152 -0.837896
v 0.614531 -0.266238 -0.837310
v 0.614767 -0.266324 -0.836725
v 0.615003 -0.266410 -0.836139
v 0.615239 -0.266496 -0.835553
v 0.615476 -0.266582 -0.834968
v 0.615712 -0.266668 -0.834382
v 0.615948 -0.266754 -0.833796
v 0.616185 -0.266840 -0.833210
v 0.616421 -0.266926 -0.832624
v 0.616658 -0.267012 -0.832038
v 0.616894 -0.267098 -0.831452
v 0.617131 -0.267184 -0.830866
v 0.617367 -0.267270 -0.830280
v 0.617604 -0.267356 -0.829693
v 0.617840 -0.267443 -0.829107
v 0.618077 -0.267529 -0.828520
v 0.618313 -0.267615 -0.827934
v 0.618550 -0.267701 -0.827347
v 0.618787 -0.267787 -0.826761
v 0.619260 -0.267959 -0.825587
v 0.619023 -0.267873 -0.826174
v 0.617487 -0.272644 -0.825000
v 0.619497 -0.268046 -0.825000
v 0.544860 -0.398438 -0.825000
v 0.541883 -0.402477 -0.825000
v 0.541690 -0.402315 -0.825587
v 0.541497 -0.402153 -0.826174
v 0.541304 -0.401992 -0.826760
v 0.541111 -0.401830 -0.827347
v 0.540918 -0.401668 -0.827934
v 0.540725 -0.401506 -0.828520
v 0.540532 -0.401344 -0.829107
v 0.540339 -0.401182 -0.829693
v 0.540146 -0.401020 -0.830279
v 0.539954 -0.400859 -0.830866
v 0.539761 -0.400697 -0.831452
v 0.539568 -0.400535 -0.832038
v 0.539375 -0.400373 -0.832624
v 0.539183 -0.400212 -0.833210
v 0.538990 -0.400050 -0.833796
v 0.538797 -0.399888 -0.834382
v 0.538605 -0.399727 -0.834968
v 0.538412 -0.399565 -0.835553
v 0.538219 -0.399403 -0.836139
v 0.538027 -0.399242 -0.836724
v 0.537834 -0.399080 -0.837310
v 0.537642 -0.398919 -0.837895
v 0.537449 -0.398757 -0.838481
v 0.537257 -0.398596 -0.839066
v 0.537064 -0.398434 -0.839651
v 0.536872 -0.398273 -0.840236
v 0.536679 -0.398111 -0.840821
v 0.536487 -0.397950 -0.841406
v 0.536295 -0.397788 -0.841991
v 0.536102 -0.397627 -0.842576
v 0.535910 -0.397466 -0.843161
v 0.535718 -0.397304 -0.843746
v 0.535525 -0.397143 -0.844330
v 0.535333 -0.396981 -0.844915
v 0.535141 -0.396820 -0.845499
v 0.534949 -0.396659 -0.846084
v 0.534756 -0.396498 -0.846668
v 0.534564 -0.396336 -0.847252
v 0.534372 -0.396175 -0.847837
v 0.534180 -0.396014 -0.848421
v 0.533988 -0.395853 -0.849005
v 0.533796 -0.395692 -0.849589
v 0.533604 -0.395530 -0.850173
v 0.533412 -0.395369 -0.850757
v 0.533220 -0.395208 -0.851340
v 0.533028 -0.395047 -0.851924
v 0.532836 -0.394886 -0.852508
v 0.532644 -0.394725 -0.853091
v 0.532452 -0.394564 -0.853675
v 0.532260 -0.394403 -0.854258
v 0.532068 -0.394242 -0.854842
v 0.531876 -0.394081 -0.855425
v 0.531684 -0.393920 -0.856008
v 0.531493 -0.393759 -0.856591
v 0.531301 -0.393598 -0.857174
v 0.479878 -0.454882 -0.857174
v 0.480070 -0.455043 -0.856591
v 0.480261 -0.455203 -0.856008
v 0.480453 -0.455364 -0.855425
v 0.480645 -0.455525 -0.854842
v 0.480837 -0.455686 -0.854258
v 0.481029 -0.455847 -0.853675
v 0.481221 -0.456008 -0.853091
v 0.481413 -0.456169 -0.852508
v 0.481605 -0.456331 -0.851924
v 0.481797 -0.456492 -0.851340
v 0.481989 -0.456653 -0.850757
v 0.482181 -0.456814 -0.850173
v 0.482373 -0.456975 -0.849589
v 0.482565 -0.457136 -0.849005
v 0.482757 -0.457297 -0.848421
v 0.482949 -0.457459 -0.847837
v 0.483141 -0.457620 -0.847252
v 0.483333 -0.457781 -0.846668
v 0.483526 -0.457942 -0.846084
v 0.483718 -0.458104 -0.845499
v 0.483910 -0.458265 -0.844915
v 0.484102 -0.458426 -0.844330
v 0.484295 -0.458588 -0.843746
v 0.484487 -0.458749 -0.843161
v 0.484679 -0.458910 -0.842576
v 0.484872 -0.459072 -0.841991
v 0.485064 -0.459233 -0.841406
v 0.485256 -0.459395 -0.840822
v 0.485449 -0.459556 -0.840236
v 0.485641 -0.459718 -0.839651
v 0.485834 -0.459879 -0.839066
v 0.486026 -0.460041 -0.838481
v 0.486219 -0.460202 -0.837896
v 0.486411 -0.460364 -0.837310
v 0.486604 -0.460525 -0.836725
v 0.486796 -0.460687 -0.836139
v 0.486989 -0.460849 -0.835553
v 0.487182 -0.461010 -0.834968
v 0.487374 -0.461172 -0.834382
v 0.487567 -0.461333 -0.833796
v 0.487760 -0.461495 -0.833210
v 0.487952 -0.461657 -0.832624
v 0.488145 -0.461819 -0.832038
v 0.488338 -0.461980 -0.831452
v 0.488531 -0.462142 -0.830866
v 0.488723 -0.462304 -0.830280
v 0.488916 -0.462466 -0.829693
v 0.489109 -0.462628 -0.829107
v 0.489302 -0.462789 -0.828520
v 0.489495 -0.462951 -0.827934
v 0.489688 -0.463113 -0.827347
v 0.489881 -0.463275 -0.826761
v 0.490267 -0.463599 -0.825587
v 0.490074 -0.463437 -0.826174
v 0.486998 -0.467395 -0.825000
v 0.490460 -0.463761 -0.825000
v 0.375727 -0.560762 -0.825000
v 0.371548 -0.563540 -0.825000
v 0.371422 -0.563322 -0.825587
v 0.371296 -0.563103 -0.826174
v 0.371170 -0.562885 -0.826760
v 0.371044 -0.562667 -0.827347
v 0.370918 -0.562449 -0.827934
v 0.370792 -0.562231 -0.828520
v 0.370666 -0.562013 -0.829107
v 0.370540 -0.561795 -0.829693
v 0.370415 -0.561577 -0.830279
v 0.370289 -0.561359 -0.830866
v 0.370163 -0.561141 -0.831452
v 0.370037 -0.560923 -0.832038
v 0.369911 -0.560705 -0.832624
v 0.369785 -0.560487 -0.833210
v 0.369660 -0.560269 -0.833796
v 0.369534 -0.560052 -0.834382
v 0.369408 -0.559834 -0.834968
v 0.369282 -0.559616 -0.835553
v 0.369157 -0.559398 -0.836139
v 0.369031 -0.559181 -0.836724
v 0.368905 -0.558963 -0.837310
v 0.368780 -0.558745 -0.837895
v 0.368654 -0.558528 -0.838481
v 0.368528 -0.558310 -0.839066
v 0.368403 -0.558092 -0.839651
v 0.368277 -0.557875 -0.840236
v 0.368152 -0.557657 -0.840821
v 0.368026 -0.557440 -0.841406
v 0.367900 -0.557222 -0.841991
v 0.367775 -0.557005 -0.842576
v 0.367649 -0.556787 -0.843161
v 0.367524 -0.556570 -0.843746
v 0.367398 -0.556353 -0.844330
v 0.367273 -0.556135 -0.844915
v 0.367147 -0.555918 -0.845499
v 0.367022 -0.555701 -0.846084
v 0.366896 -0.555483 -0.846668
v 0.366771 -0.555266 -0.847252
v 0.366646 -0.555049 -0.847837
v 0.366520 -0.554832 -0.848421
v 0.366395 -0.554614 -0.849005
v 0.366269 -0.554397 -0.849589
v 0.366144 -0.554180 -0.850173
v 0.366019 -0.553963 -0.850757
v 0.365893 -0.553746 -0.851340
v 0.365768 -0.553529 -0.851924
v 0.365643 -0.553312 -0.852508
v 0.365518 -0.553095 -0.853091
v 0.365392 -0.552878 -0.853675
v 0.365267 -0.552661 -0.854258
v 0.365142 -0.552444 -0.854842
v 0.365017 -0.552227 -0.855425
v 0.364891 -0.552010 -0.856008
v 0.364766 -0.551794 -0.856591
v 0.364641 -0.551577 -0.857174
v 0.295359 -0.591577 -0.857174
v 0.295484 -0.591794 -0.856591
v 0.295609 -0.592010 -0.856008
v 0.295735 -0.592227 -0.855425
v 0.295860 -0.592444 -0.854842
v 0.295985 -0.592661 -0.854258
v 0.296110 -0.592878 -0.853675
v 0.296236 -0.593095 -0.853091
v 0.296361 -0.593312 -0.852508
v 0.296486 -0.593529 -0.851924
v 0.296611 -0.593746 -0.851340
v 0.296737 -0.593963 -0.850757
v 0.296862 -0.594180 -0.850173
v 0.296987 -0.594397 -0.849589
v 0.297113 -0.594614 -0.849005
v 0.297238 -0.594832 -0.848421
v 0.297364 -0.595049 -0.847837
v 0.297489 -0.595266 -0.847252
v 0.297614 -0.595483 -0.846668
v 0.297740 -0.595701 -0.846084
v 0.297865 -0.595918 -0.845499
v 0.297991 -0.596135 -0.844915
v 0.298116 -0.596353 -0.844330
v 0.298242 -0.596570 -0.843746
v 0.298367 -0.596787 -0.843161
v 0.298493 -0.597005 -0.842576
v 0.298618 -0.597222 -0.841991
v 0.298744 -0.597440 -0.841406
v 0.298870 -0.597657 -0.840822
v 0.298995 -0.597875 -0.840236
v 0.299121 -0.598092 -0.839651
v 0.299246 -0.598310 -0.839066
v 0.299372 -0.598527 -0.838481
v 0.299498 -0.598745 -0.837896
v 0.299623 -0.598963 -0.837310
v 0.299749 -0.599180 -0.836725
v 0.299875 -0.599398 -0.836139
v 0.300000 -0.599616 -0.835553
v 0.300126 -0.599834 -0.834968
v 0.300252 -0.600052 -0.834382
v 0.300378 -0.600269 -0.833796
v 0.300503 -0.600487 -0.833210
v 0.300629 -0.600705 -0.832624
v 0.300755 -0.600923 -0.832038
v 0.300881 -0.601141 -0.831452
v 0.301007 -0.601359 -0.830866
v 0.301133 -0.601577 -0.830280
v 0.301258 -0.601795 -0.829693
v 0.301384 -0.602013 -0.829107
v 0.301510 -0.602231 -0.828520
v 0.301636 -0.602449 -0.827934
v 0.301762 -0.602667 -0.827347
v 0.301888 -0.602885 -0.826761
v 0.302140 -0.603322 -0.825587
v 0.302014 -0.603103 -0.826174
v 0.297770 -0.605770 -0.825000
v 0.302266 -0.603540 -0.825000
v 0.161276 -0.655450 -0.825000
v 0.156399 -0.656631 -0.825000
v 0.156355 -0.656383 -0.825587
v 0.156311 -0.656135 -0.826174
v 0.156268 -0.655887 -0.826760
v 0.156224 -0.655639 -0.827347
v 0.156180 -0.655391 -0.827934
v 0.156136 -0.655143 -0.828520
v 0.156093 -0.654895 -0.829107
v 0.156049 -0.654647 -0.829693
v 0.156005 -0.654399 -0.830279
v 0.155962 -0.654151 -0.830866
v 0.155918 -0.653903 -0.831452
v 0.155874 -0.653655 -0.832038
v 0.155830 -0.653408 -0.832624
v 0.155787 -0.653160 -0.833210
v 0.155743 -0.652912 -0.833796
v 0.155699 -0.652664 -0.834382
v 0.155656 -0.652417 -0.834968
v 0.155612 -0.652169 -0.835553
v 0.155568 -0.651921 -0.836139
v 0.155525 -0.651674 -0.836724
v 0.155481 -0.651426 -0.837310
v 0.155437 -0.651179 -0.837895
v 0.155394 -0.650931 -0.838481
v 0.155350 -0.650684 -0.839066
v 0.155307 -0.650436 -0.839651
v 0.155263 -0.650189 -0.840236
v 0.155219 -0.649942 -0.840821
v 0.155176 -0.649694 -0.841406
v 0.155132 -0.649447 -0.841991
v 0.155088 -0.649200 -0.842576
v 0.155045 -0.648952 -0.843161
v 0.155001 -0.648705 -0.843746
v 0.154958 -0.648458 -0.844330
v 0.154914 -0.648211 -0.844915
v 0.154871 -0.647964 -0.845499
v 0.154827 -0.647717 -0.846084
v 0.154783 -0.647470 -0.846668
v 0.154740 -0.647223 -0.847252
v 0.154696 -0.646975 -0.847837
v 0.154653 -0.646729 -0.848421
v 0.154609 -0.646482 -0.849005
v 0.154566 -0.646235 -0.849589
v 0.154522 -0.645988 -0.850173
v 0.154479 -0.645741 -0.850757
v 0.154435 -0.645494 -0.851340
v 0.154392 -0.645247 -0.851924
v 0.154348 -0.645000 -0.852508
v 0.154305 -0.644754 -0.853091
v 0.154261 -0.644507 -0.853675
v 0.154218 -0.644260 -0.854258
v 0.154174 -0.644014 -0.854842
v 0.154131 -0.643767 -0.855425
v 0.154087 -0.643520 -0.856008
v 0.154044 -0.643274 -0.856591
v 0.154000 -0.643027 -0.857174
v 0.075215 -0.656919 -0.857174
v 0.075259 -0.657166 -0.856591
v 0.075302 -0.657412 -0.856008
v 0.075346 -0.657659 -0.855425
v 0.075389 -0.657905 -0.854842
v 0.075433 -0.658152 -0.854258
v 0.075476 -0.658399 -0.853675
v 0.075520 -0.658645 -0.853091
v 0.075563 -0.658892 -0.852508
v 0.075607 -0.659139 -0.851924
v 0.075650 -0.659386 -0.851340
v 0.075694 -0.659633 -0.850757
v 0.075737 -0.659880 -0.850173
v 0.075781 -0.660126 -0.849589
v 0.075825 -0.660373 -0.849005
v 0.075868 -0.660620 -0.848421
v 0.075912 -0.660867 -0.847837
v 0.075955 -0.661114 -0.847252
v 0.075999 -0.661361 -0.846668
v 0.076042 -0.661608 -0.846084
v 0.076086 -0.661856 -0.845499
v 0.076129 -0.662103 -0.844915
v 0.076173 -0.662350 -0.844330
v 0.076217 -0.662597 -0.843746
v 0.076260 -0.662844 -0.843161
v 0.076304 -0.663092 -0.842576
v 0.076347 -0.663339 -0.841991
v 0.076391 -0.663586 -0.841406
v 0.076435 -0.663833 -0.840822
v 0.076478 -0.664081 -0.840236
v 0.076522 -0.664328 -0.839651
v 0.076566 -0.664576 -0.839066
v 0.076609 -0.664823 -0.838481
v 0.076653 -0.665071 -0.837896
v 0.076696 -0.665318 -0.837310
v 0.076740 -0.665566 -0.836725
v 0.076784 -0.665813 -0.836139
v 0.076827 -0.666061 -0.835553
v 0.076871 -0.666309 -0.834968
v 0.076915 -0.666556 -0.834382
v 0.076958 -0.666804 -0.833796
v 0.077002 -0.667052 -0.833210
v 0.077046 -0.667299 -0.832624
v 0.077090 -0.667547 -0.832038
v 0.077133 -0.667795 -0.831452
v 0.077177 -0.668043 -0.830866
v 0.077221 -0.668291 -0.830280
v 0.077264 -0.668539 -0.829693
v 0.077308 -0.668787 -0.829107
v 0.077352 -0.669035 -0.828520
v 0.077396 -0.669283 -0.827934
v 0.077439 -0.669531 -0.827347
v 0.077483 -0.669779 -0.826761
v 0.077570 -0.670275 -0.825587
v 0.077527 -0.670027 -0.826174
v 0.072627 -0.671081 -0.825000
v 0.077614 -0.670523 -0.825000
v -0.072627 -0.671081 -0.825000
v -0.077614 -0.670523 -0.825000
v -0.077570 -0.670275 -0.825587
v -0.077527 -0.670027 -0.826174
v -0.077483 -0.669779 -0.826760
v -0.077439 -0.669531 -0.827347
v -0.077396 -0.669283 -0.827934
v -0.077352 -0.669035 -0.828520
v -0.077308 -0.668787 -0.829107
v -0.077264 -0.668539 -0.829693
v -0.077221 -0.668291 -0.830279
v -0.077177 -0.668043 -0.830866
v -0.077133 -0.667795 -0.831452
v -0.077090 -0.667547 -0.832038
v -0.077046 -0.667299 -0.832624
v -0.077002 -0.667052 -0.833210
v -0.076958 -0.666804 -0.833796
v -0.076915 -0.666556 -0.834382
v -0.076871 -0.666309 -0.834968
v -0.076827 -0.666061 -0.835553
v -0.076784 -0.665813 -0.836139
v -0.076740 -0.665566 -0.836724
v -0.076696 -0.665318 -0.837310
v -0.076653 -0.665071 -0.837895
v -0.076609 -0.664823 -0.838481
v -0.076566 -0.664576 -0.839066
v -0.076522 -0.664328 -0.839651
v -0.076478 -0.664081 -0.840236
v -0.076435 -0.663834 -0.840821
v -0.076391 -0.663586 -0.841406
v -0.076347 -0.663339 -0.841991
v -0.076304 -0.663092 -0.842576
v -0.076260 -0.662844 -0.843161
v -0.076217 -0.662597 -0.843746
v -0.076173 -0.662350 -0.844330
v -0.076130 -0.662103 -0.844915
v -0.076086 -0.661856 -0.845499
v -0.076042 -0.661608 -0.846084
v -0.075999 -0.661361 -0.846668
v -0.075955 -0.661114 -0.847252
v -0.075912 -0.660867 -0.847837
v -0.075868 -0.660620 -0.848421
v -0.075825 -0.660373 -0.849005
v -0.075781 -0.660126 -0.849589
v -0.075738 -0.659880 -0.850173
v -0.075694 -0.659633 -0.850757
v -0.075650 -0.659386 -0.851340
v -0.075607 -0.659139 -0.851924
v -0.075563 -0.658892 -0.852508
v -0.075520 -0.658645 -0.853091
v -0.075476 -0.658399 -0.853675
v -0.075433 -0.658152 -0.854258
v -0.075389 -0.657905 -0.854842
v -0.075346 -0.657659 -0.855425
v -0.075302 -0.657412 -0.856008
v -0.075259 -0.657166 -0.856591
v -0.075215 -0.656919 -0.857174
v -0.154000 -0.643027 -0.857174
v -0.154044 -0.643274 -0.856591
v -0.154087 -0.643520 -0.856008
v -0.154131 -0.643767 -0.855425
v -0.154174 -0.644014 -0.854842
v -0.154218 -0.644260 -0.854258
v -0.154261 -0.644507 -0.853675
v -0.154305 -0.644754 -0.853091
v -0.154348 -0.645000 -0.852508
v -0.154392 -0.645247 -0.851924
v -0.154435 -0.645494 -0.851340
v -0.154479 -0.645741 -0.850757
v -0.154522 -0.645988 -0.850173
v -0.154566 -0.646235 -0.849589
v -0.154609 -0.646481 -0.849005
v -0.154653 -0.646728 -0.848421
v -0.154696 -0.646975 -0.847837
v -0.154740 -0.647222 -0.847252
v -0.154783 -0.647469 -0.846668
v -0.154827 -0.647717 -0.846084
v -0.154871 -0.647964 -0.845499
v -0.154914 -0.648211 -0.844915
v -0.154958 -0.648458 -0.844330
v -0.155001 -0.648705 -0.843746
v -0.155045 -0.648952 -0.843161
v -0.155088 -0.649200 -0.842576
v -0.155132 -0.649447 -0.841991
v -0.155176 -0.649694 -0.841406
v -0.155219 -0.649942 -0.840822
v -0.155263 -0.650189 -0.840236
v -0.155307 -0.650436 -0.839651
v -0.155350 -0.650684 -0.839066
v -0.155394 -0.650931 -0.838481
v -0.155437 -0.651179 -0.837896
v -0.155481 -0.651426 -0.837310
v -0.155525 -0.651674 -0.836725
v -0.155568 -0.651921 -0.836139
v -0.155612 -0.652169 -0.835553
v -0.155656 -0.652417 -0.834968
v -0.155699 -0.652664 -0.834382
v -0.155743 -0.652912 -0.833796
v -0.155787 -0.653160 -0.833210
v -0.155830 -0.653408 -0.832624
v -0.155874 -0.653655 -0.832038
v -0.155918 -0.653903 -0.831452
v -0.155962 -0.654151 -0.830866
v -0.156005 -0.654399 -0.830280
v -0.156049 -0.654647 -0.829693
v -0.156093 -0.654895 -0.829107
v -0.156136 -0.655143 -0.828520
v -0.156180 -0.655391 -0.827934
v -0.156224 -0.655639 -0.827347
v -0.156268 -0.655887 -0.826761
v -0.156355 -0.656383 -0.825587
v -0.156311 -0.656135 -0.826174
v -0.161276 -0.655450 -0.825000
v -0.156399 -0.656631 -0.825000
v -0.297770 -0.605770 -0.825000
v -0.302266 -0.603540 -0.825000
v -0.302140 -0.603322 -0.825587
v -0.302014 -0.603103 -0.826174
v -0.301888 -0.602885 -0.826760
v -0.301762 -0.602667 -0.827347
v -0.301636 -0.602449 -0.827934
v -0.301510 -0.602231 -0.828520
v -0.301384 -0.602013 -0.829107
v -0.301258 -0.601795 -0.829693
v -0.301133 -0.601577 -0.830279
v -0.301007 -0.601359 -0.830866
v -0.300881 -0.601141 -0.831452
v -0.300755 -0.600923 -0.832038
v -0.300629 -0.600705 -0.832624
v -0.300503 -0.600487 -0.833210
v -0.300378 -0.600269 -0.833796
v -0.300252 -0.600052 -0.834382
v -0.300126 -0.599834 -0.834968
v -0.300000 -0.599616 -0.835553
v -0.299875 -0.599398 -0.836139
v -0.299749 -0.599181 -0.836724
v -0.299623 -0.598963 -0.837310
v -0.299498 -0.598745 -0.837895
v -0.299372 -0.598528 -0.838481
v -0.299246 -0.598310 -0.839066
v -0.299121 -0.598092 -0.839651
v -0.298995 -0.597875 -0.840236
v -0.298870 -0.597657 -0.840821
v -0.298744 -0.597440 -0.841406
v -0.298618 -0.597222 -0.841991
v -0.298493 -0.597005 -0.842576
v -0.298367 -0.596787 -0.843161
v -0.298242 -0.596570 -0.843746
v -0.298116 -0.596353 -0.844330
v -0.297991 -0.596135 -0.844915
v -0.297865 -0.595918 -0.845499
v -0.297740 -0.595701 -0.846084
v -0.297614 -0.595483 -0.846668
v -0.297489 -0.595266 -0.847252
v -0.297364 -0.595049 -0.847837
v -0.297238 -0.594832 -0.848421
v -0.297113 -0.594614 -0.849005
v -0.296987 -0.594397 -0.849589
v -0.296862 -0.594180 -0.850173
v -0.296737 -0.593963 -0.850757
v -0.296611 -0.593746 -0.851340
v -0.296486 -0.593529 -0.851924
v -0.296361 -0.593312 -0.852508
v -0.296236 -0.593095 -0.853091
v -0.296110 -0.592878 -0.853675
v -0.295985 -0.592661 -0.854258
v -0.295860 -0.592444 -0.854842
v -0.295735 -0.592227 -0.855425
v -0.295609 -0.592010 -0.856008
v -0.295484 -0.591794 -0.856591
v -0.295359 -0.591577 -0.857174
v -0.364641 -0.551577 -0.857174
v -0.364766 -0.551794 -0.856591
v -0.364891 -0.552010 -0.856008
v -0.365017 -0.552227 -0.855425
v -0.365142 -0.552444 -0.854842
v -0.365267 -0.552661 -0.854258
v -0.365392 -0.552878 -0.853675
v -0.365518 -0.553095 -0.853091
v -0.365643 -0.553312 -0.852508
v -0.365768 -0.553529 -0.851924
v -0.365893 -0.553746 -0.851340
v -0.366019 -0.553963 -0.850757
v -0.366144 -0.554180 -0.850173
v -0.366269 -0.554397 -0.849589
v -0.366395 -0.554614 -0.849005
v -0.366520 -0.554832 -0.848421
v -0.366646 -0.555049 -0.847837
v -0.366771 -0.555266 -0.847252
v -0.366896 -0.555483 -0.846668
v -0.367022 -0.555701 -0.846084
v -0.367147 -0.555918 -0.845499
v -0.367273 -0.556135 -0.844915
v -0.367398 -0.556353 -0.844330
v -0.367524 -0.556570 -0.843746
v -0.367649 -0.556787 -0.843161
v -0.367775 -0.557005 -0.842576
v -0.367900 -0.557222 -0.841991
v -0.368026 -0.557440 -0.841406
v -0.368152 -0.557657 -0.840822
v -0.368277 -0.557875 -0.840236
v -0.368403 -0.558092 -0.839651
v -0.368528 -0.558310 -0.839066
v -0.368654 -0.558527 -0.838481
v -0.368780 -0.558745 -0.837896
v -0.368905 -0.558963 -0.837310
v -0.369031 -0.559180 -0.836725
v -0.369157 -0.559398 -0.836139
v -0.369282 -0.559616 -0.835553
v -0.369408 -0.559834 -0.834968
v -0.369534 -0.560052 -0.834382
v -0.369660 -0.560269 -0.833796
v -0.369785 -0.560487 -0.833210
v -0.369911 -0.560705 -0.832624
v -0.370037 -0.560923 -0.832038
v -0.370163 -0.561141 -0.831452
v -0.370289 -0.561359 -0.830866
v -0.370415 -0.561577 -0.830280
v -0.370540 -0.561795 -0.829693
v -0.370666 -0.562013 -0.829107
v -0.370792 -0.562231 -0.828520
v -0.370918 -0.562449 -0.827934
v -0.371044 -0.562667 -0.827347
v -0.371170 -0.562885 -0.826761
v -0.371422 -0.563322 -0.825587
v -0.371296 -0.563103 -0.826174
v -0.375727 -0.560762 -0.825000
v -0.371548 -0.563540 -0.825000
v -0.486998 -0.467395 -0.825000
v -0.490460 -0.463761 -0.825000
v -0.490267 -0.463599 -0.825587
v -0.490074 -0.463437 -0.826174
v -0.489881 -0.463275 -0.826760
v -0.489688 -0.463113 -0.827347
v -0.489495 -0.462951 -0.827934
v -0.489302 -0.462789 -0.828520
v -0.489109 -0.462628 -0.829107
v -0.488916 -0.462466 -0.829693
v -0.488723 -0.462304 -0.830279
v -0.488531 -0.462142 -0.830866
v -0.488338 -0.461980 -0.831452
v -0.488145 -0.461819 -0.832038
v -0.487952 -0.461657 -0.832624
v -0.487760 -0.461495 -0.833210
v -0.487567 -0.461334 -0.833796
v -0.487374 -0.461172 -0.834382
v -0.487182 -0.461010 -0.834968
v -0.486989 -0.460849 -0.835553
v -0.486796 -0.460687 -0.836139
v -0.486604 -0.460525 -0.836724
v -0.486411 -0.460364 -0.837310
v -0.486219 -0.460202 -0.837895
v -0.486026 -0.460041 -0.838481
v -0.485834 -0.459879 -0.839066
v -0.485641 -0.459718 -0.839651
v -0.485449 -0.459556 -0.840236
v -0.485256 -0.459395 -0.840821
v -0.485064 -0.459233 -0.841406
v -0.484872 -0.459072 -0.841991
v -0.484679 -0.458910 -0.842576
v -0.484487 -0.458749 -0.843161
v -0.484295 -0.458588 -0.843746
v -0.484102 -0.458426 -0.844330
v -0.483910 -0.458265 -0.844915
v -0.483718 -0.458104 -0.845499
v -0.483526 -0.457942 -0.846084
v -0.483333 -0.457781 -0.846668
v -0.483141 -0.457620 -0.847252
v -0.482949 -0.457459 -0.847837
v -0.482757 -0.457297 -0.848421
v -0.482565 -0.457136 -0.849005
v -0.482373 -0.456975 -0.849589
v -0.482181 -0.456814 -0.850173
v -0.481989 -0.456653 -0.850757
v -0.481797 -0.456492 -0.851340
v -0.481605 -0.456331 -0.851924
v -0.481413 -0.456170 -0.852508
v -0.481221 -0.456008 -0.853091
v -0.481029 -0.455847 -0.853675
v -0.480837 -0.455686 -0.854258
v -0.480645 -0.455525 -0.854842
v -0.480453 -0.455364 -0.855425
v -0.480261 -0.455203 -0.856008
v -0.480070 -0.455043 -0.856591
v -0.479878 -0.454882 -0.857174
v -0.531301 -0.393598 -0.857174
v -0.531493 -0.393759 -0.856591
v -0.531684 -0.393920 -0.856008
v -0.531876 -0.394081 -0.855425
v -0.532068 -0.394242 -0.854842
v -0.532260 -0.394403 -0.854258
v -0.532452 -0.394564 -0.853675
v -0.532644 -0.394725 -0.853091
v -0.532836 -0.394886 -0.852508
v -0.533028 -0.395047 -0.851924
v -0.533220 -0.395208 -0.851340
v -0.533412 -0.395369 -0.850757
v -0.533604 -0.395530 -0.850173
v -0.533796 -0.395692 -0.849589
v -0.533988 -0.395853 -0.849005
v -0.534180 -0.396014 -0.848421
v -0.534372 -0.396175 -0.847837
v -0.534564 -0.396336 -0.847252
v -0.534756 -0.396498 -0.846668
v -0.534949 -0.396659 -0.846084
v -0.535141 -0.396820 -0.845499
v -0.535333 -0.396981 -0.844915
v -0.535525 -0.397143 -0.844330
v -0.535718 -0.397304 -0.843746
v -0.535910 -0.397465 -0.843161
v -0.536102 -0.397627 -0.842576
v -0.536295 -0.397788 -0.841991
v -0.536487 -0.397950 -0.841406
v -0.536679 -0.398111 -0.840822
v -0.536872 -0.398273 -0.840236
v -0.537064 -0.398434 -0.839651
v -0.537257 -0.398596 -0.839066
v -0.537449 -0.398757 -0.838481
v -0.537642 -0.398919 -0.837896
v -0.537834 -0.399080 -0.837310
v -0.538027 -0.399242 -0.836725
v -0.538219 -0.399403 -0.836139
v -0.538412 -0.399565 -0.835553
v -0.538605 -0.399727 -0.834968
v -0.538797 -0.399888 -0.834382
v -0.538990 -0.400050 -0.833796
v -0.539183 -0.400212 -0.833210
v -0.539375 -0.400373 -0.832624
v -0.539568 -0.400535 -0.832038
v -0.539761 -0.400697 -0.831452
v -0.539954 -0.400859 -0.830866
v -0.540146 -0.401020 -0.830280
v -0.540339 -0.401182 -0.829693
v -0.540532 -0.401344 -0.829107
v -0.540725 -0.401506 -0.828520
v -0.540918 -0.401668 -0.827934
v -0.541111 -0.401830 -0.827347
v -0.541304 -0.401992 -0.826761
v -0.541690 -0.402315 -0.825587
v -0.541497 -0.402153 -0.826174
v -0.544860 -0.398438 -0.825000
v -0.541883 -0.402477 -0.825000
v -0.617487 -0.272644 -0.825000
v -0.619497 -0.268046 -0.825000
v -0.619260 -0.267959 -0.825587
v -0.619024 -0.267873 -0.826174
v -0.618787 -0.267787 -0.826760
v -0.618550 -0.267701 -0.827347
v -0.618313 -0.267615 -0.827934
v -0.618077 -0.267529 -0.828520
v -0.617840 -0.267443 -0.829107
v -0.617604 -0.267356 -0.829693
v -0.617367 -0.267270 -0.830279
v -0.617131 -0.267184 -0.830866
v -0.616894 -0.267098 -0.831452
v -0.616658 -0.267012 -0.832038
v -0.616421 -0.266926 -0.832624
v -0.616185 -0.266840 -0.833210
v -0.615948 -0.266754 -0.833796
v -0.615712 -0.266668 -0.834382
v -0.615476 -0.266582 -0.834968
v -0.615239 -0.266496 -0.835553
v -0.615003 -0.266410 -0.836139
v -0.614767 -0.266324 -0.836724
v -0.614531 -0.266238 -0.837310
v -0.614295 -0.266152 -0.837895
v -0.614058 -0.266066 -0.838481
v -0.613822 -0.265980 -0.839066
v -0.613586 -0.265894 -0.839651
v -0.613350 -0.265808 -0.840236
v -0.613114 -0.265722 -0.840821
v -0.612878 -0.265636 -0.841406
v -0.612642 -0.265551 -0.841991
v -0.612406 -0.265465 -0.842576
v -0.612170 -0.265379 -0.843161
v -0.611934 -0.265293 -0.843746
v -0.611698 -0.265207 -0.844330
v -0.611463 -0.265121 -0.844915
v -0.611227 -0.265035 -0.845499
v -0.610991 -0.264950 -0.846084
v -0.610755 -0.264864 -0.846668
v -0.610519 -0.264778 -0.847252
v -0.610284 -0.264692 -0.847837
v -0.610048 -0.264606 -0.848421
v -0.609812 -0.264521 -0.849005
v -0.609577 -0.264435 -0.849589
v -0.609341 -0.264349 -0.850173
v -0.609106 -0.264263 -0.850757
v -0.608870 -0.264178 -0.851340
v -0.608635 -0.264092 -0.851924
v -0.608399 -0.264006 -0.852508
v -0.608164 -0.263921 -0.853091
v -0.607928 -0.263835 -0.853675
v -0.607693 -0.263749 -0.854258
v -0.607458 -0.263664 -0.854842
v -0.607222 -0.263578 -0.855425
v -0.606987 -0.263492 -0.856008
v -0.606752 -0.263407 -0.856591
v -0.606516 -0.263321 -0.857174
v -0.633878 -0.188146 -0.857174
v -0.634113 -0.188231 -0.856591
v -0.634348 -0.188317 -0.856008
v -0.634584 -0.188402 -0.855425
v -0.634819 -0.188488 -0.854842
v -0.635054 -0.188574 -0.854258
v -0.635290 -0.188659 -0.853675
v -0.635525 -0.188745 -0.853091
v -0.635761 -0.188831 -0.852508
v -0.635996 -0.188917 -0.851924
v -0.636232 -0.189002 -0.851340
v -0.636467 -0.189088 -0.850757
v -0.636703 -0.189174 -0.850173
v -0.636938 -0.189259 -0.849589
v -0.637174 -0.189345 -0.849005
v -0.637410 -0.189431 -0.848421
v -0.637645 -0.189517 -0.847837
v -0.637881 -0.189603 -0.847252
v -0.638117 -0.189688 -0.846668
v -0.638352 -0.189774 -0.846084
v -0.638588 -0.189860 -0.845499
v -0.638824 -0.189946 -0.844915
v -0.639060 -0.190032 -0.844330
v -0.639296 -0.190118 -0.843746
v -0.639532 -0.190203 -0.843161
v -0.639768 -0.190289 -0.842576
v -0.640004 -0.190375 -0.841991
v -0.640240 -0.190461 -0.841406
v -0.640476 -0.190547 -0.840822
v -0.640712 -0.190633 -0.840236
v -0.640948 -0.190719 -0.839651
v -0.641184 -0.190805 -0.839066
v -0.641420 -0.190891 -0.838481
v -0.641656 -0.190977 -0.837896
v -0.641892 -0.191063 -0.837310
v -0.642128 -0.191149 -0.836725
v -0.642365 -0.191235 -0.836139
v -0.642601 -0.191321 -0.835553
v -0.642837 -0.191407 -0.834968
v -0.643074 -0.191493 -0.834382
v -0.643310 -0.191579 -0.833796
v -0.643546 -0.191665 -0.833210
v -0.643783 -0.191751 -0.832624
v -0.644019 -0.191837 -0.832038
v -0.644256 -0.191923 -0.831452
v -0.644492 -0.192009 -0.830866
v -0.644729 -0.192095 -0.830280
v -0.644965 -0.192181 -0.829693
v -0.645202 -0.192267 -0.829107
v -0.645438 -0.192353 -0.828520
v -0.645675 -0.192439 -0.827934
v -0.645912 -0.192526 -0.827347
v -0.646148 -0.192612 -0.826761
v -0.646622 -0.192784 -0.825587
v -0.646385 -0.192698 -0.826174
v -0.648275 -0.188056 -0.825000
v -0.646859 -0.192870 -0.825000
v -0.673498 -0.045008 -0.825000
v -0.673814 -0.040000 -0.825000
v -0.673562 -0.040000 -0.825587
v -0.673310 -0.040000 -0.826174
v -0.673058 -0.040000 -0.826760
v -0.672806 -0.040000 -0.827347
v -0.672554 -0.040000 -0.827934
v -0.672302 -0.040000 -0.828520
v -0.672051 -0.040000 -0.829107
v -0.671799 -0.040000 -0.829693
v -0.671547 -0.040000 -0.830279
v -0.671295 -0.040000 -0.830866
v -0.671044 -0.040000 -0.831452
v -0.670792 -0.040000 -0.832038
v -0.670541 -0.040000 -0.832624
v -0.670289 -0.040000 -0.833210
v -0.670037 -0.040000 -0.833796
v -0.669786 -0.040000 -0.834382
v -0.669534 -0.040000 -0.834968
v -0.669283 -0.040000 -0.835553
v -0.669032 -0.040000 -0.836139
v -0.668780 -0.040000 -0.836724
v -0.668529 -0.040000 -0.837310
v -0.668277 -0.040000 -0.837895
v -0.668026 -0.040000 -0.838481
v -0.667775 -0.040000 -0.839066
v -0.667524 -0.040000 -0.839651
v -0.667272 -0.040000 -0.840236
v -0.667021 -0.040000 -0.840821
v -0.666770 -0.040000 -0.841406
v -0.666519 -0.040000 -0.841991
v -0.666268 -0.040000 -0.842576
v -0.666017 -0.040000 -0.843161
v -0.665766 -0.040000 -0.843746
v -0.665515 -0.040000 -0.844330
v -0.665264 -0.040000 -0.844915
v -0.665013 -0.040000 -0.845499
v -0.664762 -0.040000 -0.846084
v -0.664511 -0.040000 -0.846668
v -0.664260 -0.040000 -0.847252
v -0.664009 -0.040000 -0.847837
v -0.663758 -0.040000 -0.848421
v -0.663508 -0.040000 -0.849005
v -0.663257 -0.040000 -0.849589
v -0.663006 -0.040000 -0.850173
v -0.662756 -0.040000 -0.850757
v -0.662505 -0.040000 -0.851340
v -0.662254 -0.040000 -0.851924
v -0.662004 -0.040000 -0.852508
v -0.661753 -0.040000 -0.853091
v -0.661503 -0.040000 -0.853675
v -0.661252 -0.040000 -0.854258
v -0.661002 -0.040000 -0.854842
v -0.660751 -0.040000 -0.855425
v -0.660501 -0.040000 -0.856008
v -0.660250 -0.040000 -0.856591
v -0.660000 -0.040000 -0.857174
v -0.660000 -0.000723 -0.859999
v -0.660000 0.000000 -0.860000
v -0.640822 -0.157948 -0.860000
v -0.631797 -0.129838 -0.895000
v 0.631797 -0.129838 -0.895000
v 0.649655 -0.183231 -0.825000
v 0.547807 -0.394376 -0.825000
v 0.379886 -0.557953 -0.825000
v 0.166145 -0.654233 -0.825000
v -0.067636 -0.671603 -0.825000
v -0.293258 -0.607968 -0.825000
v -0.483510 -0.471002 -0.825000
v -0.615443 -0.277227 -0.825000
v -0.673145 -0.050015 -0.825000
v -0.660000 -0.001446 -0.859996
v -0.615420 -0.193089 -0.895000
v 0.615420 -0.193089 -0.895000
v 0.650999 -0.178396 -0.825000
v 0.550724 -0.390292 -0.825000
v 0.384024 -0.555113 -0.825000
v 0.171004 -0.652980 -0.825000
v -0.062641 -0.672087 -0.825000
v -0.288730 -0.610131 -0.825000
v -0.479995 -0.474584 -0.825000
v -0.613365 -0.281795 -0.825000
v -0.672754 -0.055018 -0.825000
v -0.660000 -0.002170 -0.859992
v -0.592728 -0.254360 -0.895000
v 0.592728 -0.254360 -0.895000
v 0.673145 -0.050015 -0.825000
v 0.652308 -0.173551 -0.825000
v 0.615443 -0.277227 -0.825000
v 0.553611 -0.386187 -0.825000
v 0.483510 -0.471002 -0.825000
v 0.388140 -0.552243 -0.825000
v 0.293258 -0.607968 -0.825000
v 0.175854 -0.651690 -0.825000
v 0.067636 -0.671603 -0.825000
v -0.057642 -0.672534 -0.825000
v -0.166145 -0.654233 -0.825000
v -0.284186 -0.612261 -0.825000
v -0.379886 -0.557953 -0.825000
v -0.476453 -0.478140 -0.825000
v -0.547807 -0.394376 -0.825000
v -0.611253 -0.286348 -0.825000
v -0.649655 -0.183231 -0.825000
v -0.672326 -0.060018 -0.825000
v -0.660000 -0.002894 -0.859985
v -0.563954 -0.313020 -0.895000
v 0.563954 -0.313020 -0.895000
v 0.653580 -0.168696 -0.825000
v 0.556467 -0.382060 -0.825000
v 0.392235 -0.549342 -0.825000
v 0.180695 -0.650365 -0.825000
v -0.052640 -0.672944 -0.825000
v -0.279626 -0.614357 -0.825000
v -0.472885 -0.481669 -0.825000
v -0.609107 -0.290884 -0.825000
v -0.671862 -0.065015 -0.825000
v -0.660000 -0.003617 -0.859977
v -0.529392 -0.368468 -0.895000
v 0.529392 -0.368468 -0.895000
v 0.654816 -0.163832 -0.825000
v 0.559292 -0.377912 -0.825000
v 0.396309 -0.546410 -0.825000
v 0.185525 -0.649003 -0.825000
v -0.047636 -0.673317 -0.825000
v -0.275051 -0.616419 -0.825000
v -0.469291 -0.485171 -0.825000
v -0.606928 -0.295405 -0.825000
v -0.671360 -0.070008 -0.825000
v -0.660000 -0.004341 -0.859967
v -0.489399 -0.420135 -0.895000
v 0.489399 -0.420135 -0.895000
v 0.672754 -0.055018 -0.825000
v 0.656016 -0.158960 -0.825000
v 0.613365 -0.281795 -0.825000
v 0.562086 -0.373744 -0.825000
v 0.479995 -0.474584 -0.825000
v 0.400360 -0.543449 -0.825000
v 0.288730 -0.610131 -0.825000
v 0.190345 -0.647606 -0.825000
v 0.062641 -0.672087 -0.825000
v -0.042629 -0.673653 -0.825000
v -0.171004 -0.652980 -0.825000
v -0.270461 -0.618447 -0.825000
v -0.384024 -0.555113 -0.825000
v -0.465671 -0.488647 -0.825000
v -0.550724 -0.390292 -0.825000
v -0.604715 -0.299909 -0.825000
v -0.650999 -0.178396 -0.825000
v -0.670821 -0.074998 -0.825000
v -0.660000 -0.005065 -0.859955
v -0.444384 -0.467491 -0.895000
v 0.444384 -0.467491 -0.895000
v 0.672326 -0.060018 -0.825000
v 0.657180 -0.154078 -0.825000
v 0.611253 -0.286348 -0.825000
v 0.564849 -0.369554 -0.825000
v 0.476453 -0.478140 -0.825000
v 0.404389 -0.540457 -0.825000
v 0.284186 -0.612261 -0.825000
v 0.195154 -0.646173 -0.825000
v 0.057642 -0.672534 -0.825000
v -0.037619 -0.673951 -0.825000
v -0.175854 -0.651690 -0.825000
v -0.265855 -0.620440 -0.825000
v -0.388140 -0.552243 -0.825000
v -0.462025 -0.492095 -0.825000
v -0.553611 -0.386187 -0.825000
v -0.602468 -0.304396 -0.825000
v -0.652308 -0.173551 -0.825000
v -0.670245 -0.079983 -0.825000
v -0.660000 -0.005790 -0.859941
v -0.394808 -0.510050 -0.895000
v 0.394808 -0.510050 -0.895000
v 0.671862 -0.065015 -0.825000
v 0.658307 -0.149188 -0.825000
v 0.609107 -0.290884 -0.825000
v 0.567581 -0.365345 -0.825000
v 0.472885 -0.481669 -0.825000
v 0.408396 -0.537436 -0.825000
v 0.279626 -0.614357 -0.825000
v 0.199953 -0.644704 -0.825000
v 0.052640 -0.672944 -0.825000
v -0.032607 -0.674212 -0.825000
v -0.180695 -0.650365 -0.825000
v -0.261235 -0.622400 -0.825000
v -0.392235 -0.549342 -0.825000
v -0.458354 -0.495517 -0.825000
v -0.556467 -0.382060 -0.825000
v -0.600188 -0.308867 -0.825000
v -0.653580 -0.168696 -0.825000
v -0.669631 -0.084964 -0.825000
v -0.660000 -0.006514 -0.859925
v -0.341182 -0.547376 -0.895000
v 0.341182 -0.547376 -0.895000
v 0.671360 -0.070008 -0.825000
v 0.659398 -0.144289 -0.825000
v 0.606928 -0.295405 -0.825000
v 0.570282 -0.361115 -0.825000
v 0.469291 -0.485171 -0.825000
v 0.412381 -0.534385 -0.825000
v 0.275051 -0.616419 -0.825000
v 0.204741 -0.643200 -0.825000
v 0.047636 -0.673317 -0.825000
v -0.027594 -0.674436 -0.825000
v -0.185525 -0.649003 -0.825000
v -0.256600 -0.624325 -0.825000
v -0.396309 -0.546410 -0.825000
v -0.454657 -0.498911 -0.825000
v -0.559292 -0.377912 -0.825000
v -0.597875 -0.313321 -0.825000
v -0.654816 -0.163832 -0.825000
v -0.668981 -0.089940 -0.825000
v -0.660000 -0.007238 -0.859907
v -0.284054 -0.579084 -0.895000
v 0.284054 -0.579084 -0.895000
v 0.670821 -0.074998 -0.825000
v 0.660452 -0.139383 -0.825000
v 0.604715 -0.299909 -0.825000
v 0.572951 -0.356865 -0.825000
v 0.465671 -0.488647 -0.825000
v 0.416342 -0.531304 -0.825000
v 0.270461 -0.618447 -0.825000
v 0.209517 -0.641660 -0.825000
v 0.042629 -0.673653 -0.825000
v -0.022579 -0.674622 -0.825000
v -0.190345 -0.647606 -0.825000
v -0.251952 -0.626215 -0.825000
v -0.400360 -0.543449 -0.825000
v -0.450935 -0.502277 -0.825000
v -0.562086 -0.373744 -0.825000
v -0.595529 -0.317757 -0.825000
v -0.656016 -0.158960 -0.825000
v -0.668294 -0.094911 -0.825000
v -0.660000 -0.007963 -0.859888
v -0.224012 -0.604850 -0.895000
v 0.224012 -0.604850 -0.895000
v 0.670245 -0.079983 -0.825000
v 0.661470 -0.134469 -0.825000
v 0.602468 -0.304396 -0.825000
v 0.575588 -0.352595 -0.825000
v 0.462025 -0.492095 -0.825000
v 0.420281 -0.528194 -0.825000
v 0.265855 -0.620440 -0.825000
v 0.214282 -0.640085 -0.825000
v 0.037619 -0.673951 -0.825000
v -0.017563 -0.674771 -0.825000
v -0.195154 -0.646173 -0.825000
v -0.247289 -0.628071 -0.825000
v -0.404389 -0.540457 -0.825000
v -0.447189 -0.505616 -0.825000
v -0.564849 -0.369554 -0.825000
v -0.593151 -0.322176 -0.825000
v -0.657180 -0.154078 -0.825000
v -0.667570 -0.099877 -0.825000
v -0.660000 -0.008688 -0.859867
v -0.161671 -0.624410 -0.895000
v 0.161671 -0.624410 -0.895000
v 0.669631 -0.084964 -0.825000
v 0.662452 -0.129547 -0.825000
v 0.600188 -0.308867 -0.825000
v 0.578193 -0.348306 -0.825000
v 0.458354 -0.495517 -0.825000
v 0.424196 -0.525055 -0.825000
v 0.261235 -0.622400 -0.825000
v 0.219035 -0.638474 -0.825000
v 0.032607 -0.674212 -0.825000
v -0.012545 -0.674883 -0.825000
v -0.199953 -0.644704 -0.825000
v -0.242613 -0.629892 -0.825000
v -0.408396 -0.537436 -0.825000
v -0.443417 -0.508927 -0.825000
v -0.567581 -0.365345 -0.825000
v -0.590739 -0.326577 -0.825000
v -0.658307 -0.149188 -0.825000
v -0.666809 -0.104837 -0.825000
v -0.660000 -0.009413 -0.859843
v -0.097671 -0.637562 -0.895000
v 0.097671 -0.637562 -0.895000
v 0.668981 -0.089940 -0.825000
v 0.663397 -0.124618 -0.825000
v 0.597875 -0.313321 -0.825000
v 0.580767 -0.343998 -0.825000
v 0.454657 -0.498911 -0.825000
v 0.428088 -0.521886 -0.825000
v 0.256600 -0.624325 -0.825000
v 0.223776 -0.636828 -0.825000
v 0.027594 -0.674436 -0.825000
v -0.007528 -0.674958 -0.825000
v -0.204741 -0.643200 -0.825000
v -0.237923 -0.631679 -0.825000
v -0.412381 -0.534385 -0.825000
v -0.439621 -0.512209 -0.825000
v -0.570282 -0.361115 -0.825000
v -0.588295 -0.330960 -0.825000
v -0.659398 -0.144289 -0.825000
v -0.666011 -0.109792 -0.825000
v -0.660000 -0.010138 -0.859818
v -0.032669 -0.644172 -0.895000
v 0.032669 -0.644172 -0.895000
v 0.668294 -0.094911 -0.825000
v 0.664305 -0.119683 -0.825000
v 0.595529 -0.317757 -0.825000
v 0.583308 -0.339671 -0.825000
v 0.450935 -0.502277 -0.825000
v 0.431956 -0.518689 -0.825000
v 0.251952 -0.626215 -0.825000
v 0.228504 -0.635146 -0.825000
v 0.022579 -0.674622 -0.825000
v -0.002509 -0.674995 -0.825000
v -0.209517 -0.641660 -0.825000
v -0.233220 -0.633430 -0.825000
v -0.416342 -0.531304 -0.825000
v -0.435801 -0.515464 -0.825000
v -0.572951 -0.356865 -0.825000
v -0.585818 -0.335325 -0.825000
v -0.660452 -0.139383 -0.825000
v -0.665176 -0.114741 -0.825000
v -0.660000 -0.010863 -0.859791
v 0.660000 -0.000723 -0.859999
v 0.667570 -0.099877 -0.825000
v 0.665176 -0.114741 -0.825000
v 0.593151 -0.322176 -0.825000
v 0.585818 -0.335325 -0.825000
v 0.447189 -0.505616 -0.825000
v 0.435801 -0.515464 -0.825000
v 0.247289 -0.628071 -0.825000
v 0.233220 -0.633430 -0.825000
v 0.017563 -0.674771 -0.825000
v 0.002509 -0.674995 -0.825000
v -0.214282 -0.640085 -0.825000
v -0.228504 -0.635146 -0.825000
v -0.420281 -0.528194 -0.825000
v -0.431956 -0.518689 -0.825000
v -0.575588 -0.352595 -0.825000
v -0.583308 -0.339671 -0.825000
v -0.661470 -0.134469 -0.825000
v -0.664305 -0.119683 -0.825000
v -0.660000 -0.011589 -0.859763
v 0.666809 -0.104837 -0.825000
v 0.666011 -0.109792 -0.825000
v 0.590739 -0.326577 -0.825000
v 0.588295 -0.330960 -0.825000
v 0.443417 -0.508927 -0.825000
v 0.439621 -0.512209 -0.825000
v 0.242613 -0.629892 -0.825000
v 0.237923 -0.631679 -0.825000
v 0.012545 -0.674883 -0.825000
v 0.007528 -0.674958 -0.825000
v -0.219035 -0.638474 -0.825000
v -0.223776 -0.636828 -0.825000
v -0.424196 -0.525055 -0.825000
v -0.428088 -0.521886 -0.825000
v -0.578193 -0.348306 -0.825000
v -0.580767 -0.343998 -0.825000
v -0.662452 -0.129547 -0.825000
v -0.663397 -0.124618 -0.825000
v -0.660000 -0.012314 -0.859732
v 0.584401 -0.306717 -0.860000
v -0.660000 -0.013040 -0.859699
v 0.374923 -0.543169 -0.860000
v -0.660000 -0.013766 -0.859665
v 0.234039 -0.617111 -0.860000
v 0.660000 -0.039269 -0.857277
v 0.607014 -0.261954 -0.857376
v 0.480813 -0.453767 -0.857376
v 0.296619 -0.590849 -0.857376
v 0.076648 -0.656666 -0.857376
v -0.152568 -0.643280 -0.857376
v -0.363381 -0.552304 -0.857376
v -0.530366 -0.394712 -0.857376
v -0.633380 -0.189512 -0.857376
v -0.660000 -0.014492 -0.859629
v -0.234039 -0.617111 -0.860000
v 0.660000 -0.038537 -0.857377
v 0.607511 -0.260587 -0.857570
v 0.481748 -0.452653 -0.857570
v 0.297878 -0.590122 -0.857570
v 0.078081 -0.656414 -0.857570
v -0.151135 -0.643532 -0.857570
v -0.362122 -0.553031 -0.857570
v -0.529431 -0.395827 -0.857570
v -0.632883 -0.190879 -0.857570
v -0.660000 -0.015218 -0.859591
v -0.374923 -0.543169 -0.860000
v 0.660000 -0.037806 -0.857475
v 0.608009 -0.259220 -0.857757
v 0.482683 -0.451539 -0.857757
v 0.299138 -0.589395 -0.857757
v 0.079513 -0.656161 -0.857757
v -0.149703 -0.643785 -0.857757
v -0.360862 -0.553759 -0.857757
v -0.528496 -0.396941 -0.857757
v -0.632385 -0.192246 -0.857757
v -0.660000 -0.015945 -0.859551
v -0.584401 -0.306717 -0.860000
v 0.660000 -0.037075 -0.857572
v 0.608506 -0.257853 -0.857936
v 0.483618 -0.450424 -0.857936
v 0.300398 -0.588668 -0.857936
v 0.080946 -0.655909 -0.857936
v -0.148270 -0.644038 -0.857936
v -0.359602 -0.554486 -0.857936
v -0.527561 -0.398055 -0.857936
v -0.631888 -0.193613 -0.857936
v -0.660000 -0.016671 -0.859509
v 0.660000 -0.036345 -0.857667
v 0.609004 -0.256487 -0.858108
v 0.484553 -0.449310 -0.858108
v 0.301658 -0.587940 -0.858108
v 0.082378 -0.655656 -0.858108
v -0.146838 -0.644290 -0.858108
v -0.358342 -0.555213 -0.858108
v -0.526626 -0.399170 -0.858108
v -0.631390 -0.194980 -0.858108
v -0.660000 -0.017398 -0.859465
v 0.660000 -0.035614 -0.857760
v 0.609501 -0.255120 -0.858272
v 0.485488 -0.448196 -0.858272
v 0.302917 -0.587213 -0.858272
v 0.083811 -0.655403 -0.858272
v -0.145405 -0.644543 -0.858272
v -0.357083 -0.555941 -0.858272
v -0.525691 -0.400284 -0.858272
v -0.630893 -0.196347 -0.858272
v -0.660000 -0.018125 -0.859419
v 0.660000 -0.034884 -0.857850
v 0.609999 -0.253753 -0.858429
v 0.486423 -0.447082 -0.858429
v 0.304177 -0.586486 -0.858429
v 0.085243 -0.655151 -0.858429
v -0.143973 -0.644795 -0.858429
v -0.355823 -0.556668 -0.858429
v -0.524756 -0.401398 -0.858429
v -0.630395 -0.197714 -0.858429
v -0.660000 -0.018852 -0.859372
v 0.660000 -0.034153 -0.857939
v 0.610496 -0.252386 -0.858579
v 0.487358 -0.445967 -0.858579
v 0.305437 -0.585758 -0.858579
v 0.086676 -0.654898 -0.858579
v -0.142540 -0.645048 -0.858579
v -0.354563 -0.557395 -0.858579
v -0.523821 -0.402512 -0.858579
v -0.629898 -0.199081 -0.858579
v -0.660000 -0.019579 -0.859323
v 0.660000 -0.033423 -0.858027
v 0.610994 -0.251019 -0.858720
v 0.488293 -0.444853 -0.858720
v 0.306697 -0.585031 -0.858720
v 0.088108 -0.654646 -0.858720
v -0.141108 -0.645301 -0.858720
v -0.353303 -0.558123 -0.858720
v -0.522886 -0.403627 -0.858720
v -0.629400 -0.200448 -0.858720
v -0.660000 -0.020306 -0.859271
v 0.660000 -0.032693 -0.858112
v 0.611491 -0.249652 -0.858855
v 0.489228 -0.443739 -0.858855
v 0.307956 -0.584304 -0.858855
v 0.089541 -0.654393 -0.858855
v -0.139675 -0.645553 -0.858855
v -0.352044 -0.558850 -0.858855
v -0.521951 -0.404741 -0.858855
v -0.628903 -0.201814 -0.858855
v -0.660000 -0.021034 -0.859218
v 0.660000 -0.031963 -0.858195
v 0.611989 -0.248285 -0.858982
v 0.490163 -0.442624 -0.858982
v 0.309216 -0.583576 -0.858982
v 0.090973 -0.654141 -0.858982
v -0.138243 -0.645806 -0.858982
v -0.350784 -0.559577 -0.858982
v -0.521016 -0.405855 -0.858982
v -0.628405 -0.203181 -0.858982
v -0.660000 -0.021761 -0.859163
v 0.660000 -0.031233 -0.858277
v 0.612486 -0.246918 -0.859102
v 0.491098 -0.441510 -0.859102
v 0.310476 -0.582849 -0.859102
v 0.092406 -0.653888 -0.859102
v -0.136810 -0.646058 -0.859102
v -0.349524 -0.560304 -0.859102
v -0.520081 -0.406970 -0.859102
v -0.627908 -0.204548 -0.859102
v -0.660000 -0.022489 -0.859106
v 0.660000 -0.030504 -0.858356
v 0.612984 -0.245552 -0.859214
v 0.492033 -0.440396 -0.859214
v 0.311735 -0.582122 -0.859214
v 0.093838 -0.653635 -0.859214
v -0.135378 -0.646311 -0.859214
v -0.348265 -0.561032 -0.859214
v -0.519146 -0.408084 -0.859214
v -0.627410 -0.205915 -0.859214
v -0.660000 -0.023217 -0.859047
v 0.660000 -0.029774 -0.858434
v 0.613481 -0.244185 -0.859318
v 0.492968 -0.439282 -0.859318
v 0.312995 -0.581395 -0.859318
v 0.095270 -0.653383 -0.859318
v -0.133945 -0.646563 -0.859318
v -0.347005 -0.561759 -0.859318
v -0.518211 -0.409198 -0.859318
v -0.626913 -0.207282 -0.859318
v -0.660000 -0.023945 -0.858987
v 0.660000 -0.029045 -0.858509
v 0.613979 -0.242818 -0.859416
v 0.493903 -0.438167 -0.859416
v 0.314255 -0.580667 -0.859416
v 0.096703 -0.653130 -0.859416
v -0.132513 -0.646816 -0.859416
v -0.345745 -0.562486 -0.859416
v -0.517276 -0.410312 -0.859416
v -0.626415 -0.208649 -0.859416
v -0.660000 -0.024673 -0.858924
v 0.660000 -0.028316 -0.858583
v 0.614476 -0.241451 -0.859505
v 0.494838 -0.437053 -0.859505
v 0.315514 -0.579940 -0.859505
v 0.098135 -0.652878 -0.859505
v -0.131080 -0.647069 -0.859505
v -0.344486 -0.563214 -0.859505
v -0.516341 -0.411427 -0.859505
v -0.625918 -0.210016 -0.859505
v -0.660000 -0.025401 -0.858860
v 0.660000 -0.027587 -0.858655
v 0.614974 -0.240084 -0.859588
v 0.495773 -0.435939 -0.859588
v 0.316774 -0.579213 -0.859588
v 0.099568 -0.652625 -0.859588
v -0.129648 -0.647321 -0.859588
v -0.343226 -0.563941 -0.859588
v -0.515406 -0.412541 -0.859588
v -0.625420 -0.211382 -0.859588
v -0.660000 -0.026130 -0.858794
v 0.660000 -0.026858 -0.858725
v 0.615471 -0.238717 -0.859662
v 0.496708 -0.434825 -0.859662
v 0.318034 -0.578485 -0.859662
v 0.101000 -0.652372 -0.859662
v -0.128215 -0.647574 -0.859662
v -0.341966 -0.564668 -0.859662
v -0.514471 -0.413655 -0.859662
v -0.624923 -0.212749 -0.859662
v -0.660000 -0.026859 -0.858725
v 0.660000 -0.026130 -0.858794
v 0.615969 -0.237351 -0.859730
v 0.497643 -0.433710 -0.859730
v 0.319293 -0.577758 -0.859730
v 0.102433 -0.652120 -0.859730
v -0.126783 -0.647826 -0.859730
v -0.340707 -0.565395 -0.859730
v -0.513536 -0.414769 -0.859730
v -0.624425 -0.214116 -0.859730
v -0.660000 -0.027587 -0.858655
v 0.660000 -0.025401 -0.858860
v 0.616466 -0.235984 -0.859790
v 0.498578 -0.432596 -0.859790
v 0.320553 -0.577031 -0.859790
v 0.103865 -0.651867 -0.859790
v -0.125350 -0.648079 -0.859790
v -0.339447 -0.566123 -0.859790
v -0.512601 -0.415884 -0.859790
v -0.623928 -0.215483 -0.859790
v -0.660000 -0.028316 -0.858583
v 0.660000 -0.024673 -0.858924
v 0.616964 -0.234617 -0.859842
v 0.499513 -0.431482 -0.859842
v 0.321813 -0.576304 -0.859842
v 0.105298 -0.651615 -0.859842
v -0.123918 -0.648331 -0.859842
v -0.338187 -0.566850 -0.859842
v -0.511666 -0.416998 -0.859842
v -0.623430 -0.216850 -0.859842
v -0.660000 -0.029045 -0.858509
v 0.660000 -0.023944 -0.858987
v 0.617461 -0.233250 -0.859887
v 0.500448 -0.430368 -0.859887
v 0.323073 -0.575576 -0.859887
v 0.106730 -0.651362 -0.859887
v -0.122485 -0.648584 -0.859887
v -0.336927 -0.567577 -0.859887
v -0.510731 -0.418112 -0.859887
v -0.622933 -0.218217 -0.859887
v -0.660000 -0.029775 -0.858434
v 0.660000 -0.023216 -0.859048
v 0.617959 -0.231883 -0.859924
v 0.501383 -0.429253 -0.859924
v 0.324332 -0.574849 -0.859924
v 0.108163 -0.651110 -0.859924
v -0.121053 -0.648837 -0.859924
v -0.335668 -0.568304 -0.859924
v -0.509796 -0.419226 -0.859924
v -0.622436 -0.219583 -0.859924
v -0.660000 -0.030504 -0.858356
v 0.660000 -0.022489 -0.859106
v 0.618456 -0.230516 -0.859954
v 0.502318 -0.428139 -0.859954
v 0.325592 -0.574122 -0.859954
v 0.109595 -0.650857 -0.859954
v -0.119621 -0.649089 -0.859954
v -0.334408 -0.569032 -0.859954
v -0.508861 -0.420341 -0.859954
v -0.621938 -0.220950 -0.859954
v -0.660000 -0.031234 -0.858277
v 0.660000 -0.021761 -0.859163
v 0.618954 -0.229150 -0.859977
v 0.503252 -0.427025 -0.859977
v 0.326852 -0.573395 -0.859977
v 0.111028 -0.650604 -0.859977
v -0.118188 -0.649342 -0.859977
v -0.333148 -0.569759 -0.859977
v -0.507926 -0.421455 -0.859977
v -0.621441 -0.222317 -0.859977
v -0.660000 -0.031963 -0.858195
v 0.660000 -0.021033 -0.859218
v 0.530366 -0.394712 -0.857376
v 0.363381 -0.552304 -0.857376
v 0.152568 -0.643280 -0.857376
v -0.076648 -0.656666 -0.857376
v -0.296619 -0.590850 -0.857376
v -0.480813 -0.453767 -0.857376
v -0.607014 -0.261954 -0.857376
v -0.660000 -0.039269 -0.857277
v -0.660000 -0.032693 -0.858112
v 0.660000 -0.020306 -0.859271
v 0.529431 -0.395826 -0.857570
v 0.362122 -0.553031 -0.857570
v 0.151135 -0.643532 -0.857570
v -0.078080 -0.656414 -0.857570
v -0.297878 -0.590122 -0.857570
v -0.481748 -0.452653 -0.857570
v -0.607511 -0.260587 -0.857570
v -0.660000 -0.038537 -0.857377
v -0.660000 -0.033423 -0.858027
v 0.660000 -0.019579 -0.859323
v 0.528496 -0.396941 -0.857757
v 0.360862 -0.553759 -0.857757
v 0.149703 -0.643785 -0.857757
v -0.079513 -0.656161 -0.857757
v -0.299138 -0.589395 -0.857757
v -0.482683 -0.451539 -0.857757
v -0.608009 -0.259221 -0.857757
v -0.660000 -0.037806 -0.857475
v -0.660000 -0.034153 -0.857939
v 0.660000 -0.018851 -0.859372
v 0.527561 -0.398055 -0.857936
v 0.359602 -0.554486 -0.857936
v 0.148270 -0.644037 -0.857936
v -0.080945 -0.655909 -0.857936
v -0.300398 -0.588668 -0.857936
v -0.483618 -0.450425 -0.857936
v -0.608506 -0.257854 -0.857936
v -0.660000 -0.037075 -0.857572
v -0.660000 -0.034884 -0.857850
v 0.660000 -0.018124 -0.859419
v 0.526626 -0.399169 -0.858108
v 0.358343 -0.555213 -0.858108
v 0.146838 -0.644290 -0.858108
v -0.082378 -0.655656 -0.858108
v -0.301657 -0.587940 -0.858108
v -0.484553 -0.449310 -0.858108
v -0.609004 -0.256487 -0.858108
v -0.660000 -0.036345 -0.857667
v -0.660000 -0.035614 -0.857760
v 0.660000 -0.017398 -0.859465
v 0.619451 -0.227783 -0.859992
v 0.504187 -0.425911 -0.859992
v 0.328111 -0.572667 -0.859992
v 0.112460 -0.650352 -0.859992
v -0.116756 -0.649594 -0.859992
v -0.331889 -0.570486 -0.859992
v -0.506991 -0.422569 -0.859992
v 0.660000 -0.016671 -0.859509
v 0.525691 -0.400283 -0.858272
v 0.357083 -0.555940 -0.858272
v 0.145406 -0.644543 -0.858272
v -0.083810 -0.655404 -0.858272
v -0.302917 -0.587213 -0.858272
v -0.485487 -0.448196 -0.858272
v -0.609501 -0.255120 -0.858272
v 0.660000 -0.015944 -0.859551
v 0.524756 -0.401398 -0.858429
v 0.355824 -0.556668 -0.858429
v 0.143973 -0.644795 -0.858429
v -0.085242 -0.655151 -0.858429
v -0.304176 -0.586486 -0.858429
v -0.486422 -0.447082 -0.858429
v -0.609999 -0.253753 -0.858429
v -0.620943 -0.223684 -0.859992
v 0.660000 -0.015218 -0.859591
v 0.523821 -0.402512 -0.858578
v 0.354564 -0.557395 -0.858578
v 0.142541 -0.645048 -0.858578
v -0.086675 -0.654898 -0.858578
v -0.305436 -0.585759 -0.858578
v -0.487357 -0.445968 -0.858578
v -0.610496 -0.252387 -0.858578
v -0.620446 -0.225051 -0.859999
v 0.660000 -0.014492 -0.859629
v 0.522886 -0.403626 -0.858720
v 0.353304 -0.558122 -0.858720
v 0.141108 -0.645300 -0.858720
v -0.088107 -0.654646 -0.858720
v -0.306696 -0.585031 -0.858720
v -0.488292 -0.444854 -0.858720
v -0.610994 -0.251020 -0.858720
v -0.619948 -0.226417 -0.859999
v 0.660000 -0.013766 -0.859665
v 0.521951 -0.404740 -0.858855
v 0.352045 -0.558849 -0.858855
v 0.139676 -0.645553 -0.858855
v -0.089540 -0.654393 -0.858855
v -0.307955 -0.584304 -0.858855
v -0.489227 -0.443739 -0.858855
v -0.611491 -0.249653 -0.858855
v 0.660000 -0.013040 -0.859699
v 0.521016 -0.405854 -0.858982
v 0.350785 -0.559577 -0.858982
v 0.138244 -0.645805 -0.858982
v -0.090972 -0.654141 -0.858982
v -0.309215 -0.583577 -0.858982
v -0.490162 -0.442625 -0.858982
v -0.611989 -0.248286 -0.858982
v 0.660000 -0.012314 -0.859732
v 0.619949 -0.226416 -0.859999
v 0.505122 -0.424796 -0.859999
v 0.329371 -0.571940 -0.859999
v 0.113892 -0.650099 -0.859999
v -0.115323 -0.649847 -0.859999
v -0.330629 -0.571214 -0.859999
v -0.506056 -0.423683 -0.859999
v 0.660000 -0.011589 -0.859763
v 0.520082 -0.406969 -0.859102
v 0.349525 -0.560304 -0.859102
v 0.136811 -0.646058 -0.859102
v -0.092404 -0.653888 -0.859102
v -0.310475 -0.582850 -0.859102
v -0.491097 -0.441511 -0.859102
v -0.612486 -0.246919 -0.859102
v 0.660000 -0.010863 -0.859791
v 0.519147 -0.408083 -0.859214
v 0.348266 -0.561031 -0.859214
v 0.135379 -0.646311 -0.859214
v -0.093837 -0.653636 -0.859214
v -0.311734 -0.582122 -0.859214
v -0.492032 -0.440397 -0.859214
v -0.612983 -0.245553 -0.859214
v 0.660000 -0.010138 -0.859818
v 0.518212 -0.409197 -0.859318
v 0.347006 -0.561758 -0.859318
v 0.133946 -0.646563 -0.859318
v -0.095269 -0.653383 -0.859318
v -0.312994 -0.581395 -0.859318
v -0.492967 -0.439283 -0.859318
v -0.613481 -0.244186 -0.859318
v 0.660000 -0.009413 -0.859843
v 0.517277 -0.410311 -0.859416
v 0.345746 -0.562486 -0.859416
v 0.132514 -0.646816 -0.859416
v -0.096702 -0.653130 -0.859416
v -0.314254 -0.580668 -0.859416
v -0.493902 -0.438168 -0.859416
v -0.613978 -0.242819 -0.859416
v 0.660000 -0.008688 -0.859867
v 0.516342 -0.411426 -0.859505
v 0.344487 -0.563213 -0.859505
v 0.131081 -0.647068 -0.859505
v -0.098134 -0.652878 -0.859505
v -0.315513 -0.579941 -0.859505
v -0.494837 -0.437054 -0.859505
v -0.614476 -0.241452 -0.859505
v 0.660000 -0.007963 -0.859888
v 0.515407 -0.412540 -0.859588
v 0.343227 -0.563940 -0.859588
v 0.129649 -0.647321 -0.859588
v -0.099567 -0.652625 -0.859588
v -0.316773 -0.579213 -0.859588
v -0.495772 -0.435940 -0.859588
v -0.614973 -0.240086 -0.859588
v 0.660000 -0.007238 -0.859907
v 0.514472 -0.413654 -0.859662
v 0.341967 -0.564667 -0.859662
v 0.128217 -0.647574 -0.859662
v -0.100999 -0.652373 -0.859662
v -0.318033 -0.578486 -0.859662
v -0.496707 -0.434826 -0.859662
v -0.615471 -0.238719 -0.859662
v 0.660000 -0.006514 -0.859925
v 0.513537 -0.414768 -0.859730
v 0.340708 -0.565395 -0.859730
v 0.126784 -0.647826 -0.859730
v -0.102431 -0.652120 -0.859730
v -0.319292 -0.577759 -0.859730
v -0.497642 -0.433711 -0.859730
v -0.615968 -0.237352 -0.859730
v 0.660000 -0.005789 -0.859941
v 0.512602 -0.415882 -0.859790
v 0.339448 -0.566122 -0.859790
v 0.125352 -0.648079 -0.859790
v -0.103864 -0.651868 -0.859790
v -0.320552 -0.577032 -0.859790
v -0.498577 -0.432597 -0.859790
v -0.616466 -0.235985 -0.859790
v 0.660000 -0.005065 -0.859955
v 0.511667 -0.416997 -0.859842
v 0.338188 -0.566849 -0.859842
v 0.123919 -0.648331 -0.859842
v -0.105296 -0.651615 -0.859842
v -0.321812 -0.576304 -0.859842
v -0.499512 -0.431483 -0.859842
v -0.616963 -0.234618 -0.859842
v 0.660000 -0.004341 -0.859967
v 0.510732 -0.418111 -0.859887
v 0.336929 -0.567576 -0.859887
v 0.122487 -0.648584 -0.859887
v -0.106729 -0.651362 -0.859887
v -0.323071 -0.575577 -0.859887
v -0.500447 -0.430369 -0.859887
v -0.617461 -0.233252 -0.859887
v 0.633380 -0.189512 -0.857376
v 0.509797 -0.419225 -0.859924
v 0.335669 -0.568304 -0.859924
v 0.121055 -0.648836 -0.859924
v -0.108161 -0.651110 -0.859924
v -0.324331 -0.574850 -0.859924
v -0.501382 -0.429254 -0.859924
v -0.617958 -0.231885 -0.859924
v 0.508862 -0.420339 -0.859954
v 0.334410 -0.569031 -0.859954
v 0.119622 -0.649089 -0.859954
v -0.109593 -0.650857 -0.859954
v -0.325590 -0.574123 -0.859954
v -0.502316 -0.428140 -0.859954
v -0.618456 -0.230518 -0.859954
v 0.660000 -0.003617 -0.859977
v 0.632883 -0.190879 -0.857570
v 0.507927 -0.421454 -0.859977
v 0.333150 -0.569758 -0.859977
v 0.118190 -0.649342 -0.859977
v -0.111026 -0.650605 -0.859977
v -0.326850 -0.573395 -0.859977
v -0.503251 -0.427026 -0.859977
v -0.618953 -0.229151 -0.859977
v 0.632386 -0.192246 -0.857757
v 0.506992 -0.422568 -0.859992
v 0.331890 -0.570485 -0.859992
v 0.116757 -0.649594 -0.859992
v -0.112458 -0.650352 -0.859992
v -0.328110 -0.572668 -0.859992
v -0.504186 -0.425912 -0.859992
v -0.619451 -0.227784 -0.859992
v 0.631888 -0.193613 -0.857936
v 0.506057 -0.423682 -0.859999
v 0.330631 -0.571213 -0.859999
v 0.115325 -0.649847 -0.859999
v -0.113891 -0.650100 -0.859999
v -0.329369 -0.571941 -0.859999
v -0.505121 -0.424798 -0.859999
v 0.660000 -0.002893 -0.859985
v 0.631391 -0.194980 -0.858108
v 0.630893 -0.196346 -0.858272
v 0.660000 -0.002170 -0.859992
v 0.630396 -0.197713 -0.858429
v 0.629898 -0.199080 -0.858578
v 0.629401 -0.200447 -0.858720
v 0.660000 -0.001446 -0.859996
v 0.628903 -0.201814 -0.858855
v 0.620446 -0.225049 -0.859999
v 0.628406 -0.203180 -0.858982
v 0.620944 -0.223682 -0.859992
v 0.627908 -0.204547 -0.859102
v 0.621441 -0.222316 -0.859977
v 0.627411 -0.205914 -0.859214
v 0.621939 -0.220949 -0.859954
v 0.622436 -0.219582 -0.859924
v 0.626913 -0.207281 -0.859318
v 0.622934 -0.218215 -0.859887
v 0.626416 -0.208647 -0.859416
v 0.623431 -0.216848 -0.859842
v 0.625918 -0.210014 -0.859505
v 0.623928 -0.215481 -0.859790
v 0.625421 -0.211381 -0.859588
v 0.624426 -0.214115 -0.859730
v 0.624923 -0.212748 -0.859662
v -0.000000 -0.660000 -0.860000
f 1 2 3
f 4 5 6
f 7 8 9
f 9 10 11
f 11 12 13
f 13 14 15
f 15 16 17
f 17 18 19
f 19 20 21
f 21 22 23
f 23 24 25
f 25 26 27
f 27 28 29
f 29 30 31
f 31 32 33
f 33 34 35
f 35 36 37
f 37 38 39
f 39 40 41
f 41 42 43
f 43 44 45
f 45 46 47
f 47 48 49
f 49 50 51
f 51 52 53
f 53 54 55
f 55 56 57
f 57 58 59
f 60 61 62
f 60 63 62
f 64 65 66
f 66 67 68
f 68 69 70
f 70 71 72
f 72 73 74
f 74 75 76
f 76 77 78
f 78 79 80
f 80 81 82
f 82 83 84
f 84 85 86
f 86 87 88
f 88 89 90
f 90 91 92
f 92 93 94
f 94 95 96
f 96 97 98
f 98 99 100
f 100 101 102
f 102 103 104
f 104 105 106
f 106 107 108
f 108 109 110
f 110 111 112
f 112 113 114
f 114 115 116
f 116 117 118
f 118 119 120
f 121 122 123
f 123 124 125
f 125 126 127
f 127 128 129
f 129 130 131
f 131 132 133
f 133 134 135
f 135 136 137
f 137 138 139
f 139 140 141
f 141 142 143
f 143 144 145
f 145 146 147
f 147 148 149
f 149 150 151
f 151 152 153
f 153 154 155
f 155 156 157
f 157 158 159
f 159 160 161
f 161 162 163
f 163 164 165
f 165 166 167
f 167 168 169
f 169 170 171
f 171 172 173
f 174 175 176
f 174 177 176
f 178 179 180
f 180 181 182
f 182 183 184
f 184 185 186
f 186 187 188
f 188 189 190
f 190 191 192
f 192 193 194
f 194 195 196
f 196 197 198
f 198 199 200
f 200 201 202
f 202 203 204
f 204 205 206
f 206 207 208
f 208 209 210
f 210 211 212
f 212 213 214
f 214 215 216
f 216 217 218
f 218 219 220
f 220 221 222
f 222 223 224
f 224 225 226
f 226 227 228
f 228 229 230
f 230 231 232
f 232 233 234
f 235 236 237
f 237 238 239
f 239 240 241
f 241 242 243
f 243 244 245
f 245 246 247
f 247 248 249
f 249 250 251
f 251 252 253
f 253 254 255
f 255 256 257
f 257 258 259
f 259 260 261
f 261 262 263
f 263 264 265
f 265 266 267
f 267 268 269
f 269 270 271
f 271 272 273
f 273 274 275
f 275 276 277
f 277 278 279
f 279 280 281
f 281 282 283
f 283 284 285
f 285 286 287
f 288 289 290
f 288 291 290
f 292 293 294
f 294 295 296
f 296 297 298
f 298 299 300
f 300 301 302
f 302 303 304
f 304 305 306
f 306 307 308
f 308 309 310
f 310 311 312
f 312 313 314
f 314 315 316
f 316 317 318
f 318 319 320
f 320 321 322
f 322 323 324
f 324 325 326
f 326 327 328
f 328 329 330
f 330 331 332
f 332 333 334
f 334 335 336
f 336 337 338
f 338 339 340
f 340 341 342
f 342 343 344
f 344 345 346
f 346 347 348
f 349 350 351
f 351 352 353
f 353 354 355
f 355 356 357
f 357 358 359
f 359 360 361
f 361 362 363
f 363 364 365
f 365 366 367
f 367 368 369
f 369 370 371
f 371 372 373
f 373 374 375
f 375 376 377
f 377 378 379
f 379 380 381
f 381 382 383
f 383 384 385
f 385 386 387
f 387 388 389
f 389 390 391
f 391 392 393
f 393 394 395
f 395 396 397
f 397 398 399
f 399 400 401
f 402 403 404
f 402 405 404
f 406 407 408
f 408 409 410
f 410 411 412
f 412 413 414
f 414 415 416
f 416 417 418
f 418 419 420
f 420 421 422
f 422 423 424
f 424 425 426
f 426 427 428
f 428 429 430
f 430 431 432
f 432 433 434
f 434 435 436
f 436 437 438
f 438 439 440
f 440 441 442
f 442 443 444
f 444 445 446
f 446 447 448
f 448 449 450
f 450 451 452
f 452 453 454
f 454 455 456
f 456 457 458
f 458 459 460
f 460 461 462
f 463 464 465
f 465 466 467
f 467 468 469
f 469 470 471
f 471 472 473
f 473 474 475
f 475 476 477
f 477 478 479
f 479 480 481
f 481 482 483
f 483 484 485
f 485 486 487
f 487 488 489
f 489 490 491
f 491 492 493
f 493 494 495
f 495 496 497
f 497 498 499
f 499 500 501
f 501 502 503
f 503 504 505
f 505 506 507
f 507 508 509
f 509 510 511
f 511 512 513
f 513 514 515
f 516 517 518
f 516 519 518
f 520 521 522
f 522 523 524
f 524 525 526
f 526 527 528
f 528 529 530
f 530 531 532
f 532 533 534
f 534 535 536
f 536 537 538
f 538 539 540
f 540 541 542
f 542 543 544
f 544 545 546
f 546 547 548
f 548 549 550
f 550 551 552
f 552 553 554
f 554 555 556
f 556 557 558
f 558 559 560
f 560 561 562
f 562 563 564
f 564 565 566
f 566 567 568
f 568 569 570
f 570 571 572
f 572 573 574
f 574 575 576
f 577 578 579
f 579 580 581
f 581 582 583
f 583 584 585
f 585 586 587
f 587 588 589
f 589 590 591
f 591 592 593
f 593 594 595
f 595 596 597
f 597 598 599
f 599 600 601
f 601 602 603
f 603 604 605
f 605 606 607
f 607 608 609
f 609 610 611
f 611 612 613
f 613 614 615
f 615 616 617
f 617 618 619
f 619 620 621
f 621 622 623
f 623 624 625
f 625 626 627
f 627 628 629
f 630 631 632
f 630 633 632
f 634 635 636
f 636 637 638
f 638 639 640
f 640 641 642
f 642 643 644
f 644 645 646
f 646 647 648
f 648 649 650
f 650 651 652
f 652 653 654
f 654 655 656
f 656 657 658
f 658 659 660
f 660 661 662
f 662 663 664
f 664 665 666
f 666 667 668
f 668 669 670
f 670 671 672
f 672 673 674
f 674 675 676
f 676 677 678
f 678 679 680
f 680 681 682
f 682 683 684
f 684 685 686
f 686 687 688
f 688 689 690
f 691 692 693
f 693 694 695
f 695 696 697
f 697 698 699
f 699 700 701
f 701 702 703
f 703 704 705
f 705 706 707
f 707 708 709
f 709 710 711
f 711 712 713
f 713 714 715
f 715 716 717
f 717 718 719
f 719 720 721
f 721 722 723
f 723 724 725
f 725 726 727
f 727 728 729
f 729 730 731
f 731 732 733
f 733 734 735
f 735 736 737
f 737 738 739
f 739 740 741
f 741 742 743
f 744 745 746
f 744 747 746
f 748 749 750
f 750 751 752
f 752 753 754
f 754 755 756
f 756 757 758
f 758 759 760
f 760 761 762
f 762 763 764
f 764 765 766
f 766 767 768
f 768 769 770
f 770 771 772
f 772 773 774
f 774 775 776
f 776 777 778
f 778 779 780
f 780 781 782
f 782 783 784
f 784 785 786
f 786 787 788
f 788 789 790
f 790 791 792
f 792 793 794
f 794 795 796
f 796 797 798
f 798 799 800
f 800 801 802
f 802 803 804
f 805 806 807
f 807 808 809
f 809 810 811
f 811 812 813
f 813 814 815
f 815 816 817
f 817 818 819
f 819 820 821
f 821 822 823
f 823 824 825
f 825 826 827
f 827 828 829
f 829 830 831
f 831 832 833
f 833 834 835
f 835 836 837
f 837 838 839
f 839 840 841
f 841 842 843
f 843 844 845
f 845 846 847
f 847 848 849
f 849 850 851
f 851 852 853
f 853 854 855
f 855 856 857
f 858 859 860
f 858 861 860
f 862 863 864
f 864 865 866
f 866 867 868
f 868 869 870
f 870 871 872
f 872 873 874
f 874 875 876
f 876 877 878
f 878 879 880
f 880 881 882
f 882 883 884
f 884 885 886
f 886 887 888
f 888 889 890
f 890 891 892
f 892 893 894
f 894 895 896
f 896 897 898
f 898 899 900
f 900 901 902
f 902 903 904
f 904 905 906
f 906 907 908
f 908 909 910
f 910 911 912
f 912 913 914
f 914 915 916
f 916 917 918
f 919 920 921
f 921 922 923
f 923 924 925
f 925 926 927
f 927 928 929
f 929 930 931
f 931 932 933
f 933 934 935
f 935 936 937
f 937 938 939
f 939 940 941
f 941 942 943
f 943 944 945
f 945 946 947
f 947 948 949
f 949 950 951
f 951 952 953
f 953 954 955
f 955 956 957
f 957 958 959
f 959 960 961
f 961 962 963
f 963 964 965
f 965 966 967
f 967 968 969
f 969 970 971
f 972 973 974
f 972 975 974
f 976 977 978
f 978 979 980
f 980 981 982
f 982 983 984
f 984 985 986
f 986 987 988
f 988 989 990
f 990 991 992
f 992 993 994
f 994 995 996
f 996 997 998
f 998 999 1000
f 1000 1001 1002
f 1002 1003 1004
f 1004 1005 1006
f 1006 1007 1008
f 1008 1009 1010
f 1010 1011 1012
f 1012 1013 1014
f 1014 1015 1016
f 1016 1017 1018
f 1018 1019 1020
f 1020 1021 1022
f 1022 1023 1024
f 1024 1025 1026
f 1026 1027 1028
f 1028 1029 1030
f 1030 1031 1032
f 1033 1034 1035
f 1 3 1036
f 1037 4 6
f 7 9 11
f 11 13 15
f 15 17 19
f 19 21 23
f 23 25 27
f 27 29 31
f 31 33 35
f 35 37 39
f 39 41 43
f 43 45 47
f 47 49 51
f 51 53 55
f 55 57 59
f 61 59 62
f 1038 64 66
f 66 68 70
f 70 72 74
f 74 76 78
f 78 80 82
f 82 84 86
f 86 88 90
f 90 92 94
f 94 96 98
f 98 100 102
f 102 104 106
f 106 108 110
f 110 112 114
f 114 116 118
f 121 123 125
f 125 127 129
f 129 131 133
f 133 135 137
f 137 139 141
f 141 143 145
f 145 147 149
f 149 151 153
f 153 155 157
f 157 159 161
f 161 163 165
f 165 167 169
f 169 171 173
f 175 173 176
f 1039 178 180
f 180 182 184
f 184 186 188
f 188 190 192
f 192 194 196
f 196 198 200
f 200 202 204
f 204 206 208
f 208 210 212
f 212 214 216
f 216 218 220
f 220 222 224
f 224 226 228
f 228 230 232
f 235 237 239
f 239 241 243
f 243 245 247
f 247 249 251
f 251 253 255
f 255 257 259
f 259 261 263
f 263 265 267
f 267 269 271
f 271 273 275
f 275 277 279
f 279 281 283
f 283 285 287
f 289 287 290
f 1040 292 294
f 294 296 298
f 298 300 302
f 302 304 306
f 306 308 310
f 310 312 314
f 314 316 318
f 318 320 322
f 322 324 326
f 326 328 330
f 330 332 334
f 334 336 338
f 338 340 342
f 342 344 346
f 349 351 353
f 353 355 357
f 357 359 361
f 361 363 365
f 365 367 369
f 369 371 373
f 373 375 377
f 377 379 381
f 381 383 385
f 385 387 389
f 389 391 393
f 393 395 397
f 397 399 401
f 403 401 404
f 1041 406 408
f 408 410 412
f 412 414 416
f 416 418 420
f 420 422 424
f 424 426 428
f 428 430 432
f 432 434 436
f 436 438 440
f 440 442 444
f 444 446 448
f 448 450 452
f 452 454 456
f 456 458 460
f 463 465 467
f 467 469 471
f 471 473 475
f 475 477 479
f 479 481 483
f 483 485 487
f 487 489 491
f 491 493 495
f 495 497 499
f 499 501 503
f 503 505 507
f 507 509 511
f 511 513 515
f 517 515 518
f 1042 520 522
f 522 524 526
f 526 528 530
f 530 532 534
f 534 536 538
f 538 540 542
f 542 544 546
f 546 548 550
f 550 552 554
f 554 556 558
f 558 560 562
f 562 564 566
f 566 568 570
f 570 572 574
f 577 579 581
f 581 583 585
f 585 587 589
f 589 591 593
f 593 595 597
f 597 599 601
f 601 603 605
f 605 607 609
f 609 611 613
f 613 615 617
f 617 619 621
f 621 623 625
f 625 627 629
f 631 629 632
f 1043 634 636
f 636 638 640
f 640 642 644
f 644 646 648
f 648 650 652
f 652 654 656
f 656 658 660
f 660 662 664
f 664 666 668
f 668 670 672
f 672 674 676
f 676 678 680
f 680 682 684
f 684 686 688
f 691 693 695
f 695 697 699
f 699 701 703
f 703 705 707
f 707 709 711
f 711 713 715
f 715 717 719
f 719 721 723
f 723 725 727
f 727 729 731
f 731 733 735
f 735 737 739
f 739 741 743
f 745 743 746
f 1044 748 750
f 750 752 754
f 754 756 758
f 758 760 762
f 762 764 766
f 766 768 770
f 770 772 774
f 774 776 778
f 778 780 782
f 782 784 786
f 786 788 790
f 790 792 794
f 794 796 798
f 798 800 802
f 805 807 809
f 809 811 813
f 813 815 817
f 817 819 821
f 821 823 825
f 825 827 829
f 829 831 833
f 833 835 837
f 837 839 841
f 841 843 845
f 845 847 849
f 849 851 853
f 853 855 857
f 859 857 860
f 1045 862 864
f 864 866 868
f 868 870 872
f 872 874 876
f 876 878 880
f 880 882 884
f 884 886 888
f 888 890 892
f 892 894 896
f 896 898 900
f 900 902 904
f 904 906 908
f 908 910 912
f 912 914 916
f 919 921 923
f 923 925 927
f 927 929 931
f 931 933 935
f 935 937 939
f 939 941 943
f 943 945 947
f 947 949 951
f 951 953 955
f 955 957 959
f 959 961 963
f 963 965 967
f 967 969 971
f 973 971 974
f 1046 976 978
f 978 980 982
f 982 984 986
f 986 988 990
f 990 992 994
f 994 996 998
f 998 1000 1002
f 1002 1004 1006
f 1006 1008 1010
f 1010 1012 1014
f 1014 1016 1018
f 1018 1020 1022
f 1022 1024 1026
f 1026 1028 1030
f 1047 1033 1035
f 1 1036 1048
f 1049 1037 6
f 7 11 15
f 15 19 23
f 23 27 31
f 31 35 39
f 39 43 47
f 47 51 55
f 55 59 62
f 1050 1038 66
f 66 70 74
f 74 78 82
f 82 86 90
f 90 94 98
f 98 102 106
f 106 110 114
f 114 118 120
f 121 125 129
f 129 133 137
f 137 141 145
f 145 149 153
f 153 157 161
f 161 165 169
f 169 173 176
f 1051 1039 180
f 180 184 188
f 188 192 196
f 196 200 204
f 204 208 212
f 212 216 220
f 220 224 228
f 228 232 234
f 235 239 243
f 243 247 251
f 251 255 259
f 259 263 267
f 267 271 275
f 275 279 283
f 283 287 290
f 1052 1040 294
f 294 298 302
f 302 306 310
f 310 314 318
f 318 322 326
f 326 330 334
f 334 338 342
f 342 346 348
f 349 353 357
f 357 361 365
f 365 369 373
f 373 377 381
f 381 385 389
f 389 393 397
f 397 401 404
f 1053 1041 408
f 408 412 416
f 416 420 424
f 424 428 432
f 432 436 440
f 440 444 448
f 448 452 456
f 456 460 462
f 463 467 471
f 471 475 479
f 479 483 487
f 487 491 495
f 495 499 503
f 503 507 511
f 511 515 518
f 1054 1042 522
f 522 526 530
f 530 534 538
f 538 542 546
f 546 550 554
f 554 558 562
f 562 566 570
f 570 574 576
f 577 581 585
f 585 589 593
f 593 597 601
f 601 605 609
f 609 613 617
f 617 621 625
f 625 629 632
f 1055 1043 636
f 636 640 644
f 644 648 652
f 652 656 660
f 660 664 668
f 668 672 676
f 676 680 684
f 684 688 690
f 691 695 699
f 699 703 707
f 707 711 715
f 715 719 723
f 723 727 731
f 731 735 739
f 739 743 746
f 1056 1044 750
f 750 754 758
f 758 762 766
f 766 770 774
f 774 778 782
f 782 786 790
f 790 794 798
f 798 802 804
f 805 809 813
f 813 817 821
f 821 825 829
f 829 833 837
f 837 841 845
f 845 849 853
f 853 857 860
f 1057 1045 864
f 864 868 872
f 872 876 880
f 880 884 888
f 888 892 896
f 896 900 904
f 904 908 912
f 912 916 918
f 919 923 927
f 927 931 935
f 935 939 943
f 943 947 951
f 951 955 959
f 959 963 967
f 967 971 974
f 1058 1046 978
f 978 982 986
f 986 990 994
f 994 998 1002
f 1002 1006 1010
f 1010 1014 1018
f 1018 1022 1026
f 1026 1030 1032
f 1059 1047 1035
f 1 1048 1060
f 1061 1049 6
f 7 15 23
f 23 31 39
f 39 47 55
f 55 62 1062
f 1063 1050 66
f 66 74 82
f 82 90 98
f 98 106 114
f 121 129 137
f 137 145 153
f 153 161 169
f 169 176 1064
f 1065 1051 180
f 180 188 196
f 196 204 212
f 212 220 228
f 235 243 251
f 251 259 267
f 267 275 283
f 283 290 1066
f 1067 1052 294
f 294 302 310
f 310 318 326
f 326 334 342
f 349 357 365
f 365 373 381
f 381 389 397
f 397 404 1068
f 1069 1053 408
f 408 416 424
f 424 432 440
f 440 448 456
f 463 471 479
f 479 487 495
f 495 503 511
f 511 518 1070
f 1071 1054 522
f 522 530 538
f 538 546 554
f 554 562 570
f 577 585 593
f 593 601 609
f 609 617 625
f 625 632 1072
f 1073 1055 636
f 636 644 652
f 652 660 668
f 668 676 684
f 691 699 707
f 707 715 723
f 723 731 739
f 739 746 1074
f 1075 1056 750
f 750 758 766
f 766 774 782
f 782 790 798
f 805 813 821
f 821 829 837
f 837 845 853
f 853 860 1076
f 1077 1057 864
f 864 872 880
f 880 888 896
f 896 904 912
f 919 927 935
f 935 943 951
f 951 959 967
f 967 974 1078
f 1079 1058 978
f 978 986 994
f 994 1002 1010
f 1010 1018 1026
f 1080 1059 1035
f 1 1060 1081
f 1082 1061 6
f 7 23 39
f 39 55 1062
f 1083 1063 66
f 66 82 98
f 98 114 120
f 121 137 153
f 153 169 1064
f 1084 1065 180
f 180 196 212
f 212 228 234
f 235 251 267
f 267 283 1066
f 1085 1067 294
f 294 310 326
f 326 342 348
f 349 365 381
f 381 397 1068
f 1086 1069 408
f 408 424 440
f 440 456 462
f 463 479 495
f 495 511 1070
f 1087 1071 522
f 522 538 554
f 554 570 576
f 577 593 609
f 609 625 1072
f 1088 1073 636
f 636 652 668
f 668 684 690
f 691 707 723
f 723 739 1074
f 1089 1075 750
f 750 766 782
f 782 798 804
f 805 821 837
f 837 853 1076
f 1090 1077 864
f 864 880 896
f 896 912 918
f 919 935 951
f 951 967 1078
f 1091 1079 978
f 978 994 1010
f 1010 1026 1032
f 1092 1080 1035
f 1 1081 1093
f 1094 1082 6
f 7 39 1062
f 1095 1083 66
f 66 98 120
f 121 153 1064
f 1096 1084 180
f 180 212 234
f 235 267 1066
f 1097 1085 294
f 294 326 348
f 349 381 1068
f 1098 1086 408
f 408 440 462
f 463 495 1070
f 1099 1087 522
f 522 554 576
f 577 609 1072
f 1100 1088 636
f 636 668 690
f 691 723 1074
f 1101 1089 750
f 750 782 804
f 805 837 1076
f 1102 1090 864
f 864 896 918
f 919 951 1078
f 1103 1091 978
f 978 1010 1032
f 1104 1092 1035
f 1 1093 1105
f 1106 1094 6
f 7 1062 1107
f 1108 1095 66
f 121 1064 1109
f 1110 1096 180
f 235 1066 1111
f 1112 1097 294
f 349 1068 1113
f 1114 1098 408
f 463 1070 1115
f 1116 1099 522
f 577 1072 1117
f 1118 1100 636
f 691 1074 1119
f 1120 1101 750
f 805 1076 1121
f 1122 1102 864
f 919 1078 1123
f 1124 1103 978
f 1125 1104 1035
f 1 1105 1126
f 1127 1106 6
f 7 1107 1128
f 1129 1108 66
f 121 1109 1130
f 1131 1110 180
f 235 1111 1132
f 1133 1112 294
f 349 1113 1134
f 1135 1114 408
f 463 1115 1136
f 1137 1116 522
f 577 1117 1138
f 1139 1118 636
f 691 1119 1140
f 1141 1120 750
f 805 1121 1142
f 1143 1122 864
f 919 1123 1144
f 1145 1124 978
f 1146 1125 1035
f 1 1126 1147
f 1148 1127 6
f 7 1128 1149
f 1150 1129 66
f 121 1130 1151
f 1152 1131 180
f 235 1132 1153
f 1154 1133 294
f 349 1134 1155
f 1156 1135 408
f 463 1136 1157
f 1158 1137 522
f 577 1138 1159
f 1160 1139 636
f 691 1140 1161
f 1162 1141 750
f 805 1142 1163
f 1164 1143 864
f 919 1144 1165
f 1166 1145 978
f 1167 1146 1035
f 1 1147 1168
f 1169 1148 6
f 7 1149 1170
f 1171 1150 66
f 121 1151 1172
f 1173 1152 180
f 235 1153 1174
f 1175 1154 294
f 349 1155 1176
f 1177 1156 408
f 463 1157 1178
f 1179 1158 522
f 577 1159 1180
f 1181 1160 636
f 691 1161 1182
f 1183 1162 750
f 805 1163 1184
f 1185 1164 864
f 919 1165 1186
f 1187 1166 978
f 1188 1167 1035
f 1 1168 1189
f 1190 1169 6
f 7 1170 1191
f 1192 1171 66
f 121 1172 1193
f 1194 1173 180
f 235 1174 1195
f 1196 1175 294
f 349 1176 1197
f 1198 1177 408
f 463 1178 1199
f 1200 1179 522
f 577 1180 1201
f 1202 1181 636
f 691 1182 1203
f 1204 1183 750
f 805 1184 1205
f 1206 1185 864
f 919 1186 1207
f 1208 1187 978
f 1209 1188 1035
f 1 1189 1210
f 1211 1190 6
f 7 1191 1212
f 1213 1192 66
f 121 1193 1214
f 1215 1194 180
f 235 1195 1216
f 1217 1196 294
f 349 1197 1218
f 1219 1198 408
f 463 1199 1220
f 1221 1200 522
f 577 1201 1222
f 1223 1202 636
f 691 1203 1224
f 1225 1204 750
f 805 1205 1226
f 1227 1206 864
f 919 1207 1228
f 1229 1208 978
f 1230 1209 1035
f 1 1210 1231
f 1232 1211 6
f 7 1212 1233
f 1234 1213 66
f 121 1214 1235
f 1236 1215 180
f 235 1216 1237
f 1238 1217 294
f 349 1218 1239
f 1240 1219 408
f 463 1220 1241
f 1242 1221 522
f 577 1222 1243
f 1244 1223 636
f 691 1224 1245
f 1246 1225 750
f 805 1226 1247
f 1248 1227 864
f 919 1228 1249
f 1250 1229 978
f 1251 1230 1035
f 1 1231 1252
f 1253 1232 6
f 7 1233 1254
f 1255 1234 66
f 121 1235 1256
f 1257 1236 180
f 235 1237 1258
f 1259 1238 294
f 349 1239 1260
f 1261 1240 408
f 463 1241 1262
f 1263 1242 522
f 577 1243 1264
f 1265 1244 636
f 691 1245 1266
f 1267 1246 750
f 805 1247 1268
f 1269 1248 864
f 919 1249 1270
f 1271 1250 978
f 1272 1251 1035
f 1 1252 1273
f 1274 1253 6
f 7 1254 1275
f 1276 1255 66
f 121 1256 1277
f 1278 1257 180
f 235 1258 1279
f 1280 1259 294
f 349 1260 1281
f 1282 1261 408
f 463 1262 1283
f 1284 1263 522
f 577 1264 1285
f 1286 1265 636
f 691 1266 1287
f 1288 1267 750
f 805 1268 1289
f 1290 1269 864
f 919 1270 1291
f 1292 1271 978
f 1293 1272 1035
f 1 1273 1274
f 1274 6 1294
f 7 1275 1295
f 1296 1276 66
f 121 1277 1297
f 1298 1278 180
f 235 1279 1299
f 1300 1280 294
f 349 1281 1301
f 1302 1282 408
f 463 1283 1303
f 1304 1284 522
f 577 1285 1305
f 1306 1286 636
f 691 1287 1307
f 1308 1288 750
f 805 1289 1309
f 1310 1290 864
f 919 1291 1311
f 1312 1292 978
f 1313 1293 1035
f 1 1274 1294
f 7 1295 1314
f 1315 1296 66
f 121 1297 1316
f 1317 1298 180
f 235 1299 1318
f 1319 1300 294
f 349 1301 1320
f 1321 1302 408
f 463 1303 1322
f 1323 1304 522
f 577 1305 1324
f 1325 1306 636
f 691 1307 1326
f 1327 1308 750
f 805 1309 1328
f 1329 1310 864
f 919 1311 1330
f 1331 1312 978
f 1332 1313 1035
f 1333 1 1294
f 7 1314 1315
f 1315 66 120
f 121 1316 1317
f 1317 180 234
f 235 1318 1319
f 1319 294 348
f 349 1320 1321
f 1321 408 462
f 463 1322 1323
f 1323 522 576
f 577 1324 1325
f 1325 636 690
f 691 1326 1327
f 1327 750 804
f 805 1328 1329
f 1329 864 918
f 919 1330 1331
f 1331 978 1032
f 1334 1332 1035
f 1335 1333 1294
f 7 1315 120
f 121 1317 234
f 235 1319 348
f 349 1321 462
f 463 1323 576
f 577 1325 690
f 691 1327 804
f 805 1329 918
f 919 1331 1032
f 1336 1334 1035
f 1337 1335 1294
f 1338 7 120
f 1339 121 234
f 1340 235 348
f 1341 349 462
f 1342 463 576
f 1343 577 690
f 1344 691 804
f 1345 805 918
f 1346 919 1032
f 1347 1336 1035
f 1348 1861 1294
f 1861 1337 1294
f 1349 1338 120
f 1350 1339 234
f 1351 1340 348
f 1352 1341 462
f 1353 1342 576
f 1354 1343 690
f 1355 1344 804
f 1356 1345 918
f 1357 1346 1032
f 1358 1347 1035
f 1359 1348 1294
f 1360 1349 120
f 1361 1350 234
f 1362 1351 348
f 1363 1352 462
f 1364 1353 576
f 1365 1354 690
f 1366 1355 804
f 1367 1356 918
f 1368 1357 1032
f 1369 1358 1035
f 1370 1359 1294
f 1371 1360 120
f 1372 1361 234
f 1373 1362 348
f 1374 1363 462
f 1375 1364 576
f 1376 1365 690
f 1377 1366 804
f 1378 1367 918
f 1379 1368 1032
f 1380 1369 1035
f 1035 1370 1294
f 1381 1371 120
f 1382 1372 234
f 1383 1373 348
f 1384 1374 462
f 1385 1375 576
f 1386 1376 690
f 1387 1377 804
f 1388 1378 918
f 1389 1379 1032
f 1390 1380 1035
f 1391 1381 120
f 1392 1382 234
f 1393 1383 348
f 1394 1384 462
f 1395 1385 576
f 1396 1386 690
f 1397 1387 804
f 1398 1388 918
f 1399 1389 1032
f 1400 1390 1035
f 1401 1391 120
f 1402 1392 234
f 1403 1393 348
f 1404 1394 462
f 1405 1395 576
f 1406 1396 690
f 1407 1397 804
f 1408 1398 918
f 1409 1399 1032
f 1410 1400 1035
f 1411 1401 120
f 1412 1402 234
f 1413 1403 348
f 1414 1404 462
f 1415 1405 576
f 1416 1406 690
f 1417 1407 804
f 1418 1408 918
f 1419 1409 1032
f 1420 1410 1035
f 1421 1411 120
f 1422 1412 234
f 1423 1413 348
f 1424 1414 462
f 1425 1415 576
f 1426 1416 690
f 1427 1417 804
f 1428 1418 918
f 1429 1419 1032
f 1430 1420 1035
f 1431 1421 120
f 1432 1422 234
f 1433 1423 348
f 1434 1424 462
f 1435 1425 576
f 1436 1426 690
f 1437 1427 804
f 1438 1428 918
f 1439 1429 1032
f 1440 1430 1035
f 1441 1431 120
f 1442 1432 234
f 1443 1433 348
f 1444 1434 462
f 1445 1435 576
f 1446 1436 690
f 1447 1437 804
f 1448 1438 918
f 1449 1439 1032
f 1450 1440 1035
f 1451 1441 120
f 1452 1442 234
f 1453 1443 348
f 1454 1444 462
f 1455 1445 576
f 1456 1446 690
f 1457 1447 804
f 1458 1448 918
f 1459 1449 1032
f 1460 1450 1035
f 1461 1451 120
f 1462 1452 234
f 1463 1453 348
f 1464 1454 462
f 1465 1455 576
f 1466 1456 690
f 1467 1457 804
f 1468 1458 918
f 1469 1459 1032
f 1470 1460 1035
f 1471 1461 120
f 1472 1462 234
f 1473 1463 348
f 1474 1464 462
f 1475 1465 576
f 1476 1466 690
f 1477 1467 804
f 1478 1468 918
f 1479 1469 1032
f 1480 1470 1035
f 1481 1471 120
f 1482 1472 234
f 1483 1473 348
f 1484 1474 462
f 1485 1475 576
f 1486 1476 690
f 1487 1477 804
f 1488 1478 918
f 1489 1479 1032
f 1490 1480 1035
f 1491 1481 120
f 1492 1482 234
f 1493 1483 348
f 1494 1484 462
f 1495 1485 576
f 1496 1486 690
f 1497 1487 804
f 1498 1488 918
f 1499 1489 1032
f 1500 1490 1035
f 1501 1491 120
f 1502 1492 234
f 1503 1493 348
f 1504 1494 462
f 1505 1495 576
f 1506 1496 690
f 1507 1497 804
f 1508 1498 918
f 1509 1499 1032
f 1510 1500 1035
f 1511 1501 120
f 1512 1502 234
f 1513 1503 348
f 1514 1504 462
f 1515 1505 576
f 1516 1506 690
f 1517 1507 804
f 1518 1508 918
f 1519 1509 1032
f 1520 1510 1035
f 1521 1511 120
f 1522 1512 234
f 1523 1513 348
f 1524 1514 462
f 1525 1515 576
f 1526 1516 690
f 1527 1517 804
f 1528 1518 918
f 1529 1519 1032
f 1530 1520 1035
f 1531 1521 120
f 1532 1522 234
f 1533 1523 348
f 1534 1524 462
f 1535 1525 576
f 1536 1526 690
f 1537 1527 804
f 1538 1528 918
f 1539 1529 1032
f 1540 1530 1035
f 1541 1531 120
f 1542 1532 234
f 1543 1533 348
f 1544 1534 462
f 1545 1535 576
f 1546 1536 690
f 1547 1537 804
f 1548 1538 918
f 1549 1539 1032
f 1550 1540 1035
f 1551 1541 120
f 1552 1542 234
f 1553 1543 348
f 1554 1544 462
f 1555 1545 576
f 1556 1546 690
f 1557 1547 804
f 1558 1548 918
f 1559 1549 1032
f 1560 1550 1035
f 1561 1551 120
f 1562 1552 234
f 1563 1553 348
f 1564 1554 462
f 1565 1555 576
f 1566 1556 690
f 1567 1557 804
f 1568 1558 918
f 1569 1559 1032
f 1570 1560 1035
f 1571 1561 120
f 1572 1562 234
f 1573 1563 348
f 1574 1564 462
f 1575 1565 576
f 1576 1566 690
f 1577 1567 804
f 1578 1568 918
f 1579 1569 1032
f 1580 1570 1035
f 1581 1571 120
f 1582 1572 234
f 1583 1573 348
f 1584 1574 462
f 1585 1575 576
f 1586 1576 690
f 1587 1577 804
f 1588 1578 918
f 1589 1579 1032
f 1590 1580 1035
f 1591 1581 120
f 1582 234 1592
f 1583 348 1593
f 1584 462 1594
f 1585 576 1595
f 1586 690 1596
f 1587 804 1597
f 1588 918 1598
f 1589 1032 1599
f 1600 1590 1035
f 1601 1591 120
f 1582 1592 1602
f 1583 1593 1603
f 1584 1594 1604
f 1585 1595 1605
f 1586 1596 1606
f 1587 1597 1607
f 1588 1598 1608
f 1589 1599 1609
f 1610 1600 1035
f 1611 1601 120
f 1582 1602 1612
f 1583 1603 1613
f 1584 1604 1614
f 1585 1605 1615
f 1586 1606 1616
f 1587 1607 1617
f 1588 1608 1618
f 1589 1609 1619
f 1620 1610 1035
f 1621 1611 120
f 1582 1612 1622
f 1583 1613 1623
f 1584 1614 1624
f 1585 1615 1625
f 1586 1616 1626
f 1587 1617 1627
f 1588 1618 1628
f 1589 1619 1629
f 1630 1620 1035
f 1631 1621 120
f 1582 1622 1632
f 1583 1623 1633
f 1584 1624 1634
f 1585 1625 1635
f 1586 1626 1636
f 1587 1627 1637
f 1588 1628 1638
f 1589 1629 1639
f 1640 1630 1035
f 1641 1631 120
f 1642 1582 1632
f 1643 1583 1633
f 1644 1584 1634
f 1645 1585 1635
f 1646 1586 1636
f 1647 1587 1637
f 1648 1588 1638
f 1589 1639 1640
f 1649 1641 120
f 1642 1632 1650
f 1643 1633 1651
f 1644 1634 1652
f 1645 1635 1653
f 1646 1636 1654
f 1647 1637 1655
f 1648 1638 1656
f 1589 1640 1035
f 1657 1649 120
f 1642 1650 1658
f 1643 1651 1659
f 1644 1652 1660
f 1645 1653 1661
f 1646 1654 1662
f 1647 1655 1663
f 1648 1656 1664
f 1665 1589 1035
f 1666 1657 120
f 1642 1658 1667
f 1643 1659 1668
f 1644 1660 1669
f 1645 1661 1670
f 1646 1662 1671
f 1647 1663 1672
f 1648 1664 1673
f 1674 1665 1035
f 1675 1666 120
f 1642 1667 1676
f 1643 1668 1677
f 1644 1669 1678
f 1645 1670 1679
f 1646 1671 1680
f 1647 1672 1681
f 1648 1673 1682
f 1683 1674 1035
f 1684 1675 120
f 1642 1676 1685
f 1643 1677 1686
f 1644 1678 1687
f 1645 1679 1688
f 1646 1680 1689
f 1647 1681 1690
f 1648 1682 1691
f 1692 1684 120
f 1642 1685 1693
f 1643 1686 1694
f 1644 1687 1695
f 1645 1688 1696
f 1646 1689 1697
f 1647 1690 1698
f 1648 1691 1699
f 1700 1692 120
f 1701 1642 1693
f 1702 1643 1694
f 1703 1644 1695
f 1704 1645 1696
f 1705 1646 1697
f 1706 1647 1698
f 1707 1648 1699
f 1708 1700 120
f 1701 1693 1709
f 1702 1694 1710
f 1703 1695 1711
f 1704 1696 1712
f 1705 1697 1713
f 1706 1698 1714
f 1707 1699 1715
f 1716 1708 120
f 1701 1709 1717
f 1702 1710 1718
f 1703 1711 1719
f 1704 1712 1720
f 1705 1713 1721
f 1706 1714 1722
f 1707 1715 1723
f 1724 1716 120
f 1701 1717 1725
f 1702 1718 1726
f 1703 1719 1727
f 1704 1720 1728
f 1705 1721 1729
f 1706 1722 1730
f 1707 1723 1731
f 1732 1724 120
f 1701 1725 1733
f 1702 1726 1734
f 1703 1727 1735
f 1704 1728 1736
f 1705 1729 1737
f 1706 1730 1738
f 1707 1731 1739
f 1740 1732 120
f 1701 1733 1741
f 1702 1734 1742
f 1703 1735 1743
f 1704 1736 1744
f 1705 1737 1745
f 1706 1738 1746
f 1707 1739 1747
f 1748 1740 120
f 1701 1741 1749
f 1702 1742 1750
f 1703 1743 1751
f 1704 1744 1752
f 1705 1745 1753
f 1706 1746 1754
f 1707 1747 1755
f 1756 1748 120
f 1701 1749 1757
f 1702 1750 1758
f 1703 1751 1759
f 1704 1752 1760
f 1705 1753 1761
f 1706 1754 1762
f 1707 1755 1763
f 1764 1756 120
f 1701 1757 1765
f 1702 1758 1766
f 1703 1759 1767
f 1704 1760 1768
f 1705 1761 1769
f 1706 1762 1770
f 1707 1763 1771
f 1772 1764 120
f 1701 1765 1773
f 1702 1766 1774
f 1703 1767 1775
f 1704 1768 1776
f 1705 1769 1777
f 1706 1770 1778
f 1707 1771 1779
f 1780 1772 120
f 1701 1773 1781
f 1702 1774 1782
f 1703 1775 1783
f 1704 1776 1784
f 1705 1777 1785
f 1706 1778 1786
f 1707 1779 1787
f 1788 1780 120
f 1701 1781 1789
f 1702 1782 1790
f 1703 1783 1791
f 1704 1784 1792
f 1705 1785 1793
f 1706 1786 1794
f 1707 1787 1795
f 1788 120 1796
f 1701 1789 1797
f 1702 1790 1798
f 1703 1791 1799
f 1704 1792 1800
f 1705 1793 1801
f 1706 1794 1802
f 1707 1795 1803
f 1701 1797 1804
f 1702 1798 1805
f 1703 1799 1806
f 1704 1800 1807
f 1705 1801 1808
f 1706 1802 1809
f 1707 1803 1810
f 1811 1788 1812
f 1788 1796 1812
f 1701 1804 1813
f 1702 1805 1814
f 1703 1806 1815
f 1704 1807 1816
f 1705 1808 1817
f 1706 1809 1818
f 1707 1810 1819
f 1811 1812 1820
f 1701 1813 1821
f 1702 1814 1822
f 1703 1815 1823
f 1704 1816 1824
f 1705 1817 1825
f 1706 1818 1826
f 1707 1819 1827
f 1811 1820 1828
f 1701 1821 1829
f 1702 1822 1830
f 1703 1823 1831
f 1704 1824 1832
f 1705 1825 1833
f 1706 1826 1834
f 1707 1827 1683
f 1835 1811 1828
f 1701 1829 1702
f 1702 1830 1703
f 1703 1831 1704
f 1704 1832 1705
f 1705 1833 1706
f 1706 1834 1707
f 1707 1683 1035
f 1835 1828 1836
f 1706 1707 1035
f 1835 1836 1837
f 1705 1706 1035
f 1838 1835 1837
f 1704 1705 1035
f 1838 1837 1839
f 1703 1704 1035
f 1838 1839 1840
f 1702 1703 1035
f 1838 1840 1841
f 1701 1702 1035
f 1842 1838 1841
f 1701 1035 1294
f 1842 1841 1843
f 1844 1701 1294
f 1842 1843 1845
f 1846 1844 1294
f 1842 1845 1847
f 1848 1846 1294
f 1842 1847 1849
f 1850 1848 1294
f 1294 1842 1849
f 1851 1850 1294
f 1294 1849 1852
f 1853 1851 1294
f 1294 1852 1854
f 1855 1853 1294
f 1294 1854 1856
f 1857 1855 1294
f 1294 1856 1858
f 1859 1857 1294
f 1294 1858 1860
f 1860 1859 1294
f 1034 2 1033
