v -2.905000 -0.300000 -6.388000
v -2.904461 -0.300000 -6.377377
v -2.902851 -0.300000 -6.366864
v -2.900185 -0.300000 -6.356567
v -2.896491 -0.300000 -6.346593
v -2.891806 -0.300000 -6.337043
v -2.886180 -0.300000 -6.328017
v -2.879670 -0.300000 -6.319606
v -2.872342 -0.300000 -6.311897
v -2.864271 -0.300000 -6.304969
v -2.855541 -0.300000 -6.298892
v -2.846241 -0.300000 -6.293731
v -2.836467 -0.300000 -6.289536
v -2.826319 -0.300000 -6.286352
v -2.815900 -0.300000 -6.284211
v -2.805318 -0.300000 -6.283135
v -2.794682 -0.300000 -6.283135
v -2.784100 -0.300000 -6.284211
v -2.773681 -0.300000 -6.286352
v -2.763533 -0.300000 -6.289536
v -2.753759 -0.300000 -6.293731
v -2.744459 -0.300000 -6.298892
v -2.735729 -0.300000 -6.304969
v -2.727658 -0.300000 -6.311897
v -2.720330 -0.300000 -6.319606
v -2.713820 -0.300000 -6.328017
v -2.708194 -0.300000 -6.337043
v -2.703509 -0.300000 -6.346593
v -2.699815 -0.300000 -6.356567
v -2.697149 -0.300000 -6.366864
v -2.695539 -0.300000 -6.377377
v -2.695000 -0.300000 -6.388000
v -2.695047 -0.300000 -6.391130
v -2.695187 -0.300000 -6.394257
v -2.695420 -0.300000 -6.397379
v -2.695746 -0.300000 -6.400492
v -2.696164 -0.300000 -6.403594
v -2.696675 -0.300000 -6.406683
v -2.697278 -0.300000 -6.409754
v -2.697972 -0.300000 -6.412807
v -2.698757 -0.300000 -6.415837
v -2.699632 -0.300000 -6.418843
v -2.700596 -0.300000 -6.421821
v -2.701648 -0.300000 -6.424769
v -2.702788 -0.300000 -6.427685
v -2.704014 -0.300000 -6.430565
v -2.705326 -0.300000 -6.433407
v -2.706722 -0.300000 -6.436209
v -2.708200 -0.300000 -6.438968
v -2.709760 -0.300000 -6.441682
v -2.711401 -0.300000 -6.444348
v -2.713120 -0.300000 -6.446964
v -2.714916 -0.300000 -6.449528
v -2.716788 -0.300000 -6.452037
v -2.718734 -0.300000 -6.454489
v -2.720752 -0.300000 -6.456882
v -2.722840 -0.300000 -6.459214
v -2.724998 -0.300000 -6.461482
v -2.727221 -0.300000 -6.463685
v -2.729510 -0.300000 -6.465821
v -2.731861 -0.300000 -6.467888
v -2.734273 -0.300000 -6.469884
v -2.736743 -0.300000 -6.471806
v -2.587500 -0.300000 -6.471806
v -2.587500 -0.300000 -6.388000
v -2.588590 -0.300000 -6.366502
v -2.591850 -0.300000 -6.345224
v -2.597245 -0.300000 -6.324385
v -2.604721 -0.300000 -6.304199
v -2.614201 -0.300000 -6.284873
v -2.625588 -0.300000 -6.266606
v -2.638764 -0.300000 -6.249583
v -2.653595 -0.300000 -6.233982
v -2.669927 -0.300000 -6.219960
v -2.687595 -0.300000 -6.207663
v -2.706416 -0.300000 -6.197217
v -2.726198 -0.300000 -6.188728
v -2.746736 -0.300000 -6.182284
v -2.767822 -0.300000 -6.177950
v -2.789237 -0.300000 -6.175773
v -2.810763 -0.300000 -6.175773
v -2.832178 -0.300000 -6.177950
v -2.853264 -0.300000 -6.182284
v -2.873802 -0.300000 -6.188728
v -2.893584 -0.300000 -6.197217
v -2.912405 -0.300000 -6.207663
v -2.930073 -0.300000 -6.219960
v -2.946405 -0.300000 -6.233982
v -2.961236 -0.300000 -6.249583
v -2.974412 -0.300000 -6.266606
v -2.985799 -0.300000 -6.284873
v -2.995279 -0.300000 -6.304199
v -3.002755 -0.300000 -6.324385
v -3.008150 -0.300000 -6.345224
v -3.011410 -0.300000 -6.366502
v -3.012500 -0.300000 -6.388000
v -3.012500 -0.300000 -6.471806
v -2.863257 -0.300000 -6.471806
v -2.865727 -0.300000 -6.469884
v -2.868139 -0.300000 -6.467888
v -2.870490 -0.300000 -6.465821
v -2.872779 -0.300000 -6.463685
v -2.875002 -0.300000 -6.461482
v -2.877160 -0.300000 -6.459214
v -2.879248 -0.300000 -6.456882
v -2.881266 -0.300000 -6.454489
v -2.883212 -0.300000 -6.452037
v -2.885084 -0.300000 -6.449528
v -2.886880 -0.300000 -6.446964
v -2.888599 -0.300000 -6.444348
v -2.890240 -0.300000 -6.441682
v -2.891800 -0.300000 -6.438968
v -2.893278 -0.300000 -6.436209
v -2.894674 -0.300000 -6.433407
v -2.895986 -0.300000 -6.430565
v -2.897212 -0.300000 -6.427685
v -2.898352 -0.300000 -6.424769
v -2.899404 -0.300000 -6.421821
v -2.900368 -0.300000 -6.418843
v -2.901243 -0.300000 -6.415837
v -2.902028 -0.300000 -6.412807
v -2.902722 -0.300000 -6.409754
v -2.903325 -0.300000 -6.406683
v -2.903836 -0.300000 -6.403594
v -2.904254 -0.300000 -6.400492
v -2.904580 -0.300000 -6.397379
v -2.904813 -0.300000 -6.394257
v -2.904953 -0.300000 -6.391130
f 62 64 63
f 61 64 62
f 60 64 61
f 59 64 60
f 58 64 59
f 57 64 58
f 56 64 57
f 55 64 56
f 54 64 55
f 53 64 54
f 52 64 53
f 51 64 52
f 50 64 51
f 49 64 50
f 48 64 49
f 47 64 48
f 46 64 47
f 45 64 46
f 44 64 45
f 43 64 44
f 42 64 43
f 41 64 42
f 40 64 41
f 39 64 40
f 38 64 39
f 37 64 38
f 36 64 37
f 35 64 36
f 34 64 35
f 33 64 34
f 32 64 33
f 31 64 32
f 30 64 31
f 29 64 30
f 28 64 29
f 27 64 28
f 26 64 27
f 25 64 26
f 25 65 64
f 24 65 25
f 23 65 24
f 22 65 23
f 22 66 65
f 21 66 22
f 21 67 66
f 20 67 21
f 20 68 67
f 19 68 20
f 19 69 68
f 18 69 19
f 18 70 69
f 17 70 18
f 17 71 70
f 16 71 17
f 16 72 71
f 15 72 16
f 15 73 72
f 14 73 15
f 14 74 73
f 13 74 14
f 13 75 74
f 12 75 13
f 12 76 75
f 11 76 12
f 11 77 76
f 10 77 11
f 10 78 77
f 9 78 10
f 9 79 78
f 8 79 9
f 8 80 79
f 7 80 8
f 7 81 80
f 6 81 7
f 6 82 81
f 5 82 6
f 5 83 82
f 4 83 5
f 4 84 83
f 3 84 4
f 3 85 84
f 2 85 3
f 2 86 85
f 1 86 2
f 128 86 1
f 128 87 86
f 128 88 87
f 128 89 88
f 128 90 89
f 128 91 90
f 128 92 91
f 128 93 92
f 128 94 93
f 128 95 94
f 128 96 95
f 128 97 96
f 97 99 98
f 97 100 99
f 97 101 100
f 97 102 101
f 97 103 102
f 97 104 103
f 97 105 104
f 97 106 105
f 97 107 106
f 97 108 107
f 97 109 108
f 97 110 109
f 97 111 110
f 97 112 111
f 97 113 112
f 97 114 113
f 97 115 114
f 97 116 115
f 97 117 116
f 97 118 117
f 97 119 118
f 97 120 119
f 97 121 120
f 97 122 121
f 97 123 122
f 97 124 123
f 97 125 124
f 97 126 125
f 97 127 126
f 97 128 127
