v -2.962500 -0.300000 -4.328194
v -3.387500 -0.300000 -4.328194
v -3.387500 -0.300000 -4.437000
v -3.386410 -0.300000 -4.458498
v -3.383150 -0.300000 -4.479776
v -3.377755 -0.300000 -4.500615
v -3.370279 -0.300000 -4.520801
v -3.360799 -0.300000 -4.540127
v -3.349412 -0.300000 -4.558394
v -3.336236 -0.300000 -4.575417
v -3.321405 -0.300000 -4.591018
v -3.305073 -0.300000 -4.605040
v -3.287405 -0.300000 -4.617337
v -3.268584 -0.300000 -4.627783
v -3.248802 -0.300000 -4.636272
v -3.228264 -0.300000 -4.642716
v -3.207178 -0.300000 -4.647050
v -3.185763 -0.300000 -4.649227
v -3.164237 -0.300000 -4.649227
v -3.142822 -0.300000 -4.647050
v -3.121736 -0.300000 -4.642716
v -3.101198 -0.300000 -4.636272
v -3.081416 -0.300000 -4.627783
v -3.062595 -0.300000 -4.617337
v -3.044927 -0.300000 -4.605040
v -3.028595 -0.300000 -4.591018
v -3.013764 -0.300000 -4.575417
v -3.000588 -0.300000 -4.558394
v -2.989201 -0.300000 -4.540127
v -2.979721 -0.300000 -4.520801
v -2.972245 -0.300000 -4.500615
v -2.966850 -0.300000 -4.479776
v -2.963590 -0.300000 -4.458498
v -2.962500 -0.300000 -4.437000
v -3.280000 -0.300000 -4.437000
v -3.279461 -0.300000 -4.426377
v -3.277851 -0.300000 -4.415864
v -3.275185 -0.300000 -4.405567
v -3.271491 -0.300000 -4.395593
v -3.266806 -0.300000 -4.386043
v -3.261180 -0.300000 -4.377017
v -3.254670 -0.300000 -4.368606
v -3.247342 -0.300000 -4.360897
v -3.239271 -0.300000 -4.353969
v -3.230541 -0.300000 -4.347892
v -3.221241 -0.300000 -4.342731
v -3.211467 -0.300000 -4.338536
v -3.201319 -0.300000 -4.335352
v -3.190900 -0.300000 -4.333211
v -3.180318 -0.300000 -4.332135
v -3.169682 -0.300000 -4.332135
v -3.159100 -0.300000 -4.333211
v -3.148681 -0.300000 -4.335352
v -3.138533 -0.300000 -4.338536
v -3.128759 -0.300000 -4.342731
v -3.119459 -0.300000 -4.347892
v -3.110729 -0.300000 -4.353969
v -3.102658 -0.300000 -4.360897
v -3.095330 -0.300000 -4.368606
v -3.088820 -0.300000 -4.377017
v -3.083194 -0.300000 -4.386043
v -3.078509 -0.300000 -4.395593
v -3.074815 -0.300000 -4.405567
v -3.072149 -0.300000 -4.415864
v -3.070539 -0.300000 -4.426377
v -3.070000 -0.300000 -4.437000
v -3.070539 -0.300000 -4.447623
v -3.072149 -0.300000 -4.458136
v -3.074815 -0.300000 -4.468433
v -3.078509 -0.300000 -4.478407
v -3.083194 -0.300000 -4.487957
v -3.088820 -0.300000 -4.496983
v -3.095330 -0.300000 -4.505394
v -3.102658 -0.300000 -4.513103
v -3.110729 -0.300000 -4.520031
v -3.119459 -0.300000 -4.526108
v -3.128759 -0.300000 -4.531269
v -3.138533 -0.300000 -4.535464
v -3.148681 -0.300000 -4.538648
v -3.159100 -0.300000 -4.540789
v -3.169682 -0.300000 -4.541865
v -3.180318 -0.300000 -4.541865
v -3.190900 -0.300000 -4.540789
v -3.201319 -0.300000 -4.538648
v -3.211467 -0.300000 -4.535464
v -3.221241 -0.300000 -4.531269
v -3.230541 -0.300000 -4.526108
v -3.239271 -0.300000 -4.520031
v -3.247342 -0.300000 -4.513103
v -3.254670 -0.300000 -4.505394
v -3.261180 -0.300000 -4.496983
v -3.266806 -0.300000 -4.487957
v -3.271491 -0.300000 -4.478407
v -3.275185 -0.300000 -4.468433
v -3.277851 -0.300000 -4.458136
v -3.279461 -0.300000 -4.447623
f 2 35 3
f 96 3 35
f 3 5 4
f 5 7 6
f 7 9 8
f 9 11 10
f 11 13 12
f 13 15 14
f 15 17 16
f 17 19 18
f 19 21 20
f 21 23 22
f 23 25 24
f 25 27 26
f 27 29 28
f 29 31 30
f 31 33 32
f 33 1 34
f 2 36 35
f 95 3 96
f 3 7 5
f 7 11 9
f 11 15 13
f 15 19 17
f 19 23 21
f 23 27 25
f 27 31 29
f 31 1 33
f 2 37 36
f 94 3 95
f 3 11 7
f 11 19 15
f 19 27 23
f 27 1 31
f 2 38 37
f 93 3 94
f 3 19 11
f 19 1 27
f 2 39 38
f 92 3 93
f 2 40 39
f 91 3 92
f 2 41 40
f 90 3 91
f 2 42 41
f 89 3 90
f 2 43 42
f 88 3 89
f 2 44 43
f 87 3 88
f 2 45 44
f 87 19 3
f 2 46 45
f 86 19 87
f 2 47 46
f 85 19 86
f 2 48 47
f 84 19 85
f 2 49 48
f 83 19 84
f 2 50 49
f 82 19 83
f 1 50 2
f 81 19 82
f 1 51 50
f 80 19 81
f 1 52 51
f 79 19 80
f 1 53 52
f 78 19 79
f 1 54 53
f 77 19 78
f 1 55 54
f 76 19 77
f 1 56 55
f 75 19 76
f 1 57 56
f 74 19 75
f 1 58 57
f 73 19 74
f 1 59 58
f 72 19 73
f 1 60 59
f 71 19 72
f 1 61 60
f 71 1 19
f 1 62 61
f 70 1 71
f 1 63 62
f 69 1 70
f 1 64 63
f 68 1 69
f 1 65 64
f 67 1 68
f 1 66 65
f 66 1 67
