v 1.617500 -0.300000 -4.837000
v 1.617871 -0.948000 -4.849482
v 1.617500 -0.940546 -4.837000
v 1.618590 -0.300000 -4.858498
v 1.618959 -0.955006 -4.861763
v 1.620720 -0.961563 -4.873792
v 1.621850 -0.300000 -4.879776
v 1.623116 -0.967670 -4.885520
v 1.626107 -0.973326 -4.896900
v 1.627245 -0.300000 -4.900615
v 1.629666 -0.978546 -4.907924
v 1.633774 -0.983354 -4.918601
v 1.634721 -0.300000 -4.920801
v 1.638412 -0.987772 -4.928939
v 1.643559 -0.991823 -4.938947
v 1.644201 -0.300000 -4.940127
v 1.649193 -0.995519 -4.948618
v 1.655286 -0.998864 -4.957932
v 1.655588 -0.300000 -4.958394
v 1.661812 -1.001862 -4.966866
v 1.668743 -1.004518 -4.975400
v 1.668764 -0.300000 -4.975417
v 1.676065 -1.006837 -4.983521
v 1.683595 -0.300000 -4.991018
v 1.683784 -1.008821 -4.991232
v 1.691908 -1.010478 -4.998536
v 1.699927 -0.300000 -5.005040
v 1.700444 -1.011812 -5.005436
v 1.709387 -1.012826 -5.011928
v 1.717595 -0.300000 -5.017337
v 1.718691 -1.013518 -5.017981
v 1.728302 -1.013886 -5.023559
v 1.736416 -0.300000 -5.027783
v 1.738165 -1.013928 -5.028628
v 1.748230 -1.013641 -5.033154
v 1.756198 -0.300000 -5.036272
v 1.758488 -1.013021 -5.037131
v 1.768941 -1.012067 -5.040560
v 1.776736 -0.300000 -5.042716
v 1.779592 -1.010776 -5.043441
v 1.790442 -1.009144 -5.045777
v 1.797822 -0.300000 -5.047050
v 1.801466 -1.007171 -5.047558
v 1.812616 -1.004854 -5.048772
v 1.819237 -0.300000 -5.049227
v 1.823845 -1.002192 -5.049405
v 1.835107 -0.999184 -5.049441
v 1.840763 -0.300000 -5.049227
v 1.846366 -0.995828 -5.048874
v 1.857602 -0.992120 -5.047703
v 1.862178 -0.300000 -5.047050
v 1.868797 -0.988056 -5.045929
v 1.879933 -0.983632 -5.043551
v 1.883264 -0.300000 -5.042716
v 1.890992 -0.978840 -5.040564
v 1.901970 -0.973658 -5.036949
v 1.903802 -0.300000 -5.036272
v 1.912859 -0.968065 -5.032685
v 1.923584 -0.300000 -5.027783
v 1.923654 -0.962036 -5.027749
v 1.934344 -0.955549 -5.022120
v 1.942405 -0.300000 -5.017337
v 1.944892 -0.948582 -5.015771
v 1.955250 -0.941113 -5.008675
v 1.960073 -0.300000 -5.005040
v 1.965373 -0.933121 -5.000803
v 1.975213 -0.924586 -4.992133
v 1.976405 -0.300000 -4.991018
v 1.984694 -0.915520 -4.982671
v 1.991236 -0.300000 -4.975417
v 1.993725 -0.905947 -4.972446
v 2.002215 -0.895897 -4.961487
v 2.004412 -0.300000 -4.958394
v 2.010074 -0.885397 -4.949824
v 2.015799 -0.300000 -4.940127
v 2.017225 -0.874484 -4.937497
v 2.023608 -0.863207 -4.924563
v 2.025279 -0.300000 -4.920801
v 2.029161 -0.851616 -4.911080
v 2.032755 -0.300000 -4.900615
v 2.033826 -0.839758 -4.897104
v 2.037544 -0.827680 -4.882682
v 2.038150 -0.300000 -4.879776
v 2.040263 -0.815418 -4.867841
v 2.041410 -0.300000 -4.858498
v 2.041932 -0.803009 -4.852606
v 2.042500 -0.300000 -4.837000
v 2.042500 -0.790488 -4.837000
f 1 2 3
f 1 4 2
f 4 5 2
f 4 6 5
f 4 7 6
f 7 8 6
f 7 9 8
f 7 10 9
f 10 11 9
f 10 12 11
f 10 13 12
f 13 14 12
f 13 15 14
f 13 16 15
f 16 17 15
f 16 18 17
f 16 19 18
f 19 20 18
f 19 21 20
f 19 22 21
f 22 23 21
f 22 24 23
f 24 25 23
f 24 26 25
f 24 27 26
f 27 28 26
f 27 29 28
f 27 30 29
f 30 31 29
f 30 32 31
f 30 33 32
f 33 34 32
f 33 35 34
f 33 36 35
f 36 37 35
f 36 38 37
f 36 39 38
f 39 40 38
f 39 41 40
f 39 42 41
f 42 43 41
f 42 44 43
f 42 45 44
f 45 46 44
f 45 47 46
f 45 48 47
f 48 49 47
f 48 50 49
f 48 51 50
f 51 52 50
f 51 53 52
f 51 54 53
f 54 55 53
f 54 56 55
f 54 57 56
f 57 58 56
f 57 59 58
f 59 60 58
f 59 61 60
f 59 62 61
f 62 63 61
f 62 64 63
f 62 65 64
f 65 66 64
f 65 67 66
f 65 68 67
f 68 69 67
f 68 70 69
f 70 71 69
f 70 72 71
f 70 73 72
f 73 74 72
f 73 75 74
f 75 76 74
f 75 77 76
f 75 78 77
f 78 79 77
f 78 80 79
f 80 81 79
f 80 82 81
f 80 83 82
f 83 84 82
f 83 85 84
f 85 86 84
f 85 87 86
f 87 88 86
