v 0.025000 1.525000 0.350000
v 0.025000 1.524743 0.339870
v 0.025000 1.523974 0.329766
v 0.025000 1.522694 0.319714
v 0.025000 1.520906 0.309740
v 0.025000 1.518615 0.299869
v 0.025000 1.515828 0.290127
v 0.025000 1.512550 0.280539
v 0.025000 1.508792 0.271129
v 0.025000 1.504561 0.261921
v 0.025000 1.499869 0.252940
v 0.025000 1.494729 0.244207
v 0.025000 1.489153 0.235746
v 0.025000 1.483155 0.227579
v 0.025000 1.476752 0.219726
v 0.025000 1.469959 0.212207
v 0.025000 1.462793 0.205041
v 0.025000 1.455274 0.198248
v 0.025000 1.447421 0.191845
v 0.025000 1.439254 0.185847
v 0.025000 1.430793 0.180271
v 0.025000 1.422060 0.175131
v 0.025000 1.413079 0.170439
v 0.025000 1.403871 0.166208
v 0.025000 1.394461 0.162450
v 0.025000 1.384873 0.159172
v 0.025000 1.375131 0.156385
v 0.025000 1.365260 0.154094
v 0.025000 1.355286 0.152306
v 0.025000 1.345234 0.151026
v 0.025000 1.335130 0.150257
v 0.025000 1.325000 0.150000
v -0.375000 1.525000 0.350000
v -0.375000 1.524743 0.339870
v -0.375000 1.523974 0.329766
v -0.375000 1.522694 0.319714
v -0.375000 1.520906 0.309740
v -0.375000 1.518615 0.299869
v -0.375000 1.515828 0.290127
v -0.375000 1.512550 0.280539
v -0.375000 1.508792 0.271129
v -0.375000 1.504561 0.261921
v -0.375000 1.499869 0.252940
v -0.375000 1.494729 0.244207
v -0.375000 1.489153 0.235746
v -0.375000 1.483155 0.227579
v -0.375000 1.476752 0.219726
v -0.375000 1.469959 0.212207
v -0.375000 1.462793 0.205041
v -0.375000 1.455274 0.198248
v -0.375000 1.447421 0.191845
v -0.375000 1.439254 0.185847
v -0.375000 1.430793 0.180271
v -0.375000 1.422060 0.175131
v -0.375000 1.413079 0.170439
v -0.375000 1.403871 0.166208
v -0.375000 1.394461 0.162450
v -0.375000 1.384873 0.159172
v -0.375000 1.375131 0.156385
v -0.375000 1.365260 0.154094
v -0.375000 1.355286 0.152306
v -0.375000 1.345234 0.151026
v -0.375000 1.335130 0.150257
v -0.375000 1.325000 0.150000
f 1 34 2
f 1 33 34
f 2 35 3
f 2 34 35
f 3 36 4
f 3 35 36
f 4 37 5
f 4 36 37
f 5 38 6
f 5 37 38
f 6 39 7
f 6 38 39
f 7 40 8
f 7 39 40
f 8 41 9
f 8 40 41
f 9 42 10
f 9 41 42
f 10 43 11
f 10 42 43
f 11 44 12
f 11 43 44
f 12 45 13
f 12 44 45
f 13 46 14
f 13 45 46
f 14 47 15
f 14 46 47
f 15 48 16
f 15 47 48
f 16 49 17
f 16 48 49
f 17 50 18
f 17 49 50
f 18 51 19
f 18 50 51
f 19 52 20
f 19 51 52
f 20 53 21
f 20 52 53
f 21 54 22
f 21 53 54
f 22 55 23
f 22 54 55
f 23 56 24
f 23 55 56
f 24 57 25
f 24 56 57
f 25 58 26
f 25 57 58
f 26 59 27
f 26 58 59
f 27 60 28
f 27 59 60
f 28 61 29
f 28 60 61
f 29 62 30
f 29 61 62
f 30 63 31
f 30 62 63
f 31 64 32
f 31 63 64
