v -0.075215 0.656919 -0.016211
v -0.076648 0.656666 -0.016125
v -0.078080 0.656414 -0.016041
v -0.079513 0.656161 -0.015961
v -0.080945 0.655909 -0.015885
v -0.082378 0.655656 -0.015811
v -0.083810 0.655404 -0.015741
v -0.085243 0.655151 -0.015673
v -0.086675 0.654898 -0.015609
v -0.088108 0.654646 -0.015548
v -0.089540 0.654393 -0.015491
v -0.090972 0.654141 -0.015436
v -0.092405 0.653888 -0.015385
v -0.093837 0.653636 -0.015337
v -0.095270 0.653383 -0.015292
v -0.096702 0.653130 -0.015250
v -0.098135 0.652878 -0.015212
v -0.099567 0.652625 -0.015177
v -0.101000 0.652373 -0.015145
v -0.102432 0.652120 -0.015116
v -0.103865 0.651867 -0.015090
v -0.105297 0.651615 -0.015068
v -0.106729 0.651362 -0.015049
v -0.108162 0.651110 -0.015032
v -0.109594 0.650857 -0.015020
v -0.111027 0.650605 -0.015010
v -0.112459 0.650352 -0.015004
v -0.113892 0.650099 -0.015000
v -0.115324 0.649847 -0.015000
v -0.116757 0.649594 -0.015004
v -0.118189 0.649342 -0.015010
v -0.119621 0.649089 -0.015020
v -0.121054 0.648837 -0.015032
v -0.122486 0.648584 -0.015049
v -0.123919 0.648331 -0.015068
v -0.125351 0.648079 -0.015090
v -0.126784 0.647826 -0.015116
v -0.128216 0.647574 -0.015145
v -0.129649 0.647321 -0.015177
v -0.131081 0.647068 -0.015212
v -0.132513 0.646816 -0.015250
v -0.133946 0.646563 -0.015292
v -0.135378 0.646311 -0.015337
v -0.136811 0.646058 -0.015385
v -0.138243 0.645806 -0.015436
v -0.139676 0.645553 -0.015491
v -0.141108 0.645300 -0.015548
v -0.142541 0.645048 -0.015609
v -0.143973 0.644795 -0.015673
v -0.145405 0.644543 -0.015741
v -0.146838 0.644290 -0.015811
v -0.148270 0.644038 -0.015885
v -0.149703 0.643785 -0.015961
v -0.151135 0.643532 -0.016041
v -0.152568 0.643280 -0.016125
v -0.154000 0.643027 -0.016211
v -0.154000 0.643027 -0.857174
v -0.152568 0.643280 -0.857376
v -0.151135 0.643532 -0.857570
v -0.149703 0.643785 -0.857757
v -0.148270 0.644037 -0.857936
v -0.146838 0.644290 -0.858108
v -0.145406 0.644543 -0.858272
v -0.143973 0.644795 -0.858429
v -0.142541 0.645048 -0.858578
v -0.141108 0.645300 -0.858720
v -0.139676 0.645553 -0.858855
v -0.138244 0.645805 -0.858982
v -0.136811 0.646058 -0.859102
v -0.135379 0.646311 -0.859214
v -0.133946 0.646563 -0.859318
v -0.132514 0.646816 -0.859416
v -0.131081 0.647068 -0.859505
v -0.129649 0.647321 -0.859588
v -0.128217 0.647574 -0.859662
v -0.126784 0.647826 -0.859730
v -0.125352 0.648079 -0.859790
v -0.123919 0.648331 -0.859842
v -0.122487 0.648584 -0.859887
v -0.121055 0.648836 -0.859924
v -0.119622 0.649089 -0.859954
v -0.118190 0.649342 -0.859977
v -0.116757 0.649594 -0.859992
v -0.115325 0.649847 -0.859999
v -0.113892 0.650099 -0.859999
v -0.112460 0.650352 -0.859992
v -0.111028 0.650604 -0.859977
v -0.109595 0.650857 -0.859954
v -0.108163 0.651110 -0.859924
v -0.106730 0.651362 -0.859887
v -0.105298 0.651615 -0.859842
v -0.103865 0.651867 -0.859790
v -0.102433 0.652120 -0.859730
v -0.101000 0.652372 -0.859662
v -0.099568 0.652625 -0.859588
v -0.098135 0.652878 -0.859505
v -0.096703 0.653130 -0.859416
v -0.095270 0.653383 -0.859318
v -0.093838 0.653635 -0.859214
v -0.092406 0.653888 -0.859102
v -0.090973 0.654141 -0.858982
v -0.089541 0.654393 -0.858855
v -0.088108 0.654646 -0.858720
v -0.086676 0.654898 -0.858579
v -0.085243 0.655151 -0.858429
v -0.083811 0.655403 -0.858272
v -0.082378 0.655656 -0.858108
v -0.080946 0.655909 -0.857936
v -0.079513 0.656161 -0.857757
v -0.078081 0.656414 -0.857570
v -0.076648 0.656666 -0.857376
v -0.075215 0.656919 -0.857174
f 29 28 27
f 29 27 30
f 30 27 26
f 30 26 31
f 31 26 25
f 31 25 32
f 32 25 24
f 32 24 33
f 33 24 23
f 33 23 34
f 34 23 22
f 34 22 35
f 35 22 21
f 35 21 36
f 36 21 20
f 36 20 37
f 37 20 19
f 37 19 38
f 38 19 18
f 38 18 39
f 39 18 17
f 39 17 40
f 40 17 16
f 40 16 41
f 41 16 15
f 41 15 42
f 42 15 14
f 42 14 43
f 43 14 13
f 43 13 44
f 44 13 12
f 44 12 45
f 45 12 11
f 45 11 46
f 46 11 10
f 46 10 47
f 47 10 9
f 47 9 48
f 48 9 8
f 48 8 49
f 49 8 7
f 49 7 50
f 50 7 6
f 50 6 51
f 51 6 5
f 51 5 52
f 52 5 4
f 52 4 53
f 53 4 3
f 53 3 54
f 54 3 2
f 54 2 55
f 55 2 1
f 55 1 56
f 56 1 112
f 56 112 57
f 57 112 111
f 57 111 58
f 58 111 110
f 58 110 59
f 59 110 109
f 59 109 60
f 60 109 61
f 61 109 108
f 61 108 62
f 62 108 107
f 62 107 63
f 63 107 106
f 63 106 64
f 64 106 105
f 64 105 65
f 65 105 104
f 65 104 66
f 66 104 103
f 66 103 67
f 67 103 102
f 67 102 68
f 68 102 101
f 68 101 69
f 69 101 100
f 69 100 70
f 70 100 99
f 70 99 71
f 71 99 98
f 71 98 72
f 72 98 97
f 72 97 73
f 73 97 96
f 73 96 74
f 74 96 95
f 74 95 75
f 75 95 94
f 75 94 76
f 76 94 93
f 76 93 77
f 77 93 92
f 77 92 78
f 78 92 91
f 78 91 79
f 79 91 90
f 79 90 80
f 80 90 89
f 80 89 81
f 81 89 88
f 81 88 82
f 82 88 87
f 82 87 83
f 83 87 86
f 83 86 84
f 84 86 85
