v 0.671628 0.016611 -0.081969
v 0.670221 0.015112 -0.081121
v 0.668835 0.013592 -0.079913
v 0.667705 0.012302 -0.078490
v 0.666771 0.011166 -0.076686
v 0.666223 0.010403 -0.074754
v 0.666078 0.010021 -0.072579
v 0.671628 0.115000 -0.081969
v 0.670221 0.115000 -0.081121
v 0.668835 0.115000 -0.079913
v 0.667705 0.115000 -0.078490
v 0.666770 0.115000 -0.076686
v 0.666223 0.115000 -0.074754
v 0.666079 0.115000 -0.072579
v 0.671628 0.220000 -0.081969
v 0.670221 0.220000 -0.081121
v 0.668835 0.220000 -0.079913
v 0.667705 0.220000 -0.078490
v 0.666770 0.220000 -0.076686
v 0.666223 0.220000 -0.074754
v 0.666079 0.220000 -0.072579
f 1 9 2
f 1 8 9
f 2 10 3
f 2 9 10
f 3 11 4
f 3 10 11
f 4 12 5
f 4 11 12
f 5 13 6
f 5 12 13
f 6 14 7
f 6 13 14
f 8 16 9
f 8 15 16
f 9 17 10
f 9 16 17
f 10 18 11
f 10 17 18
f 11 19 12
f 11 18 19
f 12 20 13
f 12 19 20
f 13 21 14
f 13 20 21
