v 0.029105 0.629327 -1.051000
v 0.027229 0.629411 -1.051000
v 0.025352 0.629490 -1.051000
v 0.023475 0.629562 -1.051000
v 0.021598 0.629630 -1.051000
v 0.019720 0.629691 -1.051000
v 0.017843 0.629747 -1.051000
v 0.015965 0.629798 -1.051000
v 0.014087 0.629842 -1.051000
v 0.012209 0.629882 -1.051000
v 0.010331 0.629915 -1.051000
v 0.008453 0.629943 -1.051000
v 0.006574 0.629966 -1.051000
v 0.004696 0.629982 -1.051000
v 0.002818 0.629994 -1.051000
v 0.000939 0.629999 -1.051000
v -0.000939 0.629999 -1.051000
v -0.002818 0.629994 -1.051000
v -0.004696 0.629982 -1.051000
v -0.006574 0.629966 -1.051000
v -0.008453 0.629943 -1.051000
v -0.010331 0.629915 -1.051000
v -0.012209 0.629882 -1.051000
v -0.014087 0.629842 -1.051000
v -0.015965 0.629798 -1.051000
v -0.017843 0.629747 -1.051000
v -0.019720 0.629691 -1.051000
v -0.021598 0.629630 -1.051000
v -0.023475 0.629562 -1.051000
v -0.025352 0.629490 -1.051000
v -0.027229 0.629411 -1.051000
v -0.029105 0.629327 -1.051000
v -0.009942 0.494900 -1.051000
v -0.009301 0.494913 -1.051000
v -0.008660 0.494924 -1.051000
v -0.008018 0.494935 -1.051000
v -0.007377 0.494945 -1.051000
v -0.006735 0.494954 -1.051000
v -0.006094 0.494962 -1.051000
v -0.005452 0.494970 -1.051000
v -0.004811 0.494977 -1.051000
v -0.004170 0.494982 -1.051000
v -0.003528 0.494987 -1.051000
v -0.002887 0.494992 -1.051000
v -0.002245 0.494995 -1.051000
v -0.001604 0.494997 -1.051000
v -0.000962 0.494999 -1.051000
v -0.000321 0.495000 -1.051000
v 0.000321 0.495000 -1.051000
v 0.000962 0.494999 -1.051000
v 0.001604 0.494997 -1.051000
v 0.002245 0.494995 -1.051000
v 0.002887 0.494992 -1.051000
v 0.003528 0.494987 -1.051000
v 0.004170 0.494982 -1.051000
v 0.004811 0.494977 -1.051000
v 0.005452 0.494970 -1.051000
v 0.006094 0.494962 -1.051000
v 0.006735 0.494954 -1.051000
v 0.007377 0.494945 -1.051000
v 0.008018 0.494935 -1.051000
v 0.008660 0.494924 -1.051000
v 0.009301 0.494913 -1.051000
v 0.009942 0.494900 -1.051000
v 0.020000 0.494596 -1.061000
v 0.039129 0.628784 -1.061000
f 66 1 2
f 66 2 3
f 66 3 4
f 66 4 5
f 66 5 6
f 66 6 7
f 66 7 8
f 66 8 9
f 66 9 10
f 66 10 11
f 66 11 12
f 66 12 13
f 66 13 14
f 66 14 15
f 66 15 16
f 66 16 17
f 66 17 18
f 66 18 19
f 66 19 20
f 66 20 21
f 66 21 22
f 66 22 23
f 66 23 24
f 66 24 25
f 66 25 26
f 66 26 27
f 66 27 28
f 66 28 29
f 66 29 30
f 66 30 31
f 66 31 32
f 66 32 33
f 66 33 34
f 66 34 35
f 66 35 36
f 66 36 37
f 66 37 38
f 66 38 39
f 66 39 40
f 66 40 41
f 66 41 42
f 66 42 43
f 66 43 44
f 66 44 45
f 66 45 46
f 66 46 47
f 66 47 48
f 66 48 49
f 66 49 50
f 66 50 51
f 66 51 52
f 66 52 53
f 66 53 54
f 66 54 55
f 66 55 56
f 66 56 57
f 66 57 58
f 66 58 59
f 66 59 60
f 66 60 61
f 66 61 62
f 66 62 63
f 66 63 64
f 64 65 66
