v -0.310499 0.385506 -1.051000
v -0.309377 0.386407 -1.051103
v -0.308277 0.387286 -1.051408
v -0.307222 0.388123 -1.051909
v -0.306232 0.388904 -1.052596
v -0.305329 0.389614 -1.053453
v -0.304531 0.390238 -1.054463
v -0.303855 0.390765 -1.055605
v -0.303314 0.391185 -1.056856
v -0.302920 0.391490 -1.058190
v -0.302680 0.391676 -1.059581
v -0.302599 0.391738 -1.061000
v -0.382228 0.500801 -1.051000
v -0.381088 0.501669 -1.051103
v -0.379970 0.502516 -1.051407
v -0.378898 0.503325 -1.051907
v -0.377893 0.504080 -1.052593
v -0.376975 0.504767 -1.053449
v -0.376164 0.505372 -1.054458
v -0.375477 0.505882 -1.055601
v -0.374927 0.506290 -1.056852
v -0.374526 0.506587 -1.058187
v -0.374282 0.506767 -1.059579
v -0.374200 0.506828 -1.061000
f 1 14 2
f 1 13 14
f 2 15 3
f 2 14 15
f 3 16 4
f 3 15 16
f 4 17 5
f 4 16 17
f 5 18 6
f 5 17 18
f 6 19 7
f 6 18 19
f 7 20 8
f 7 19 20
f 8 21 9
f 8 20 21
f 9 22 10
f 9 21 22
f 10 23 11
f 10 22 23
f 11 24 12
f 11 23 24
