v 1.105000 0.772167 -6.644075
v 1.105000 0.774169 -6.643655
v 1.105000 0.776150 -6.643197
v 1.105000 0.778111 -6.642703
v 1.105000 0.780051 -6.642171
v 1.105000 0.781971 -6.641603
v 1.105000 0.783870 -6.640999
v 1.105000 0.785750 -6.640359
v 1.105000 0.787611 -6.639684
v 1.105000 0.789452 -6.638974
v 1.105000 0.791274 -6.638229
v 1.105000 0.793078 -6.637450
v 1.105000 0.794863 -6.636636
v 1.105000 0.796630 -6.635790
v 1.105000 0.798378 -6.634910
v 1.105000 0.800109 -6.633997
v 1.105000 0.801821 -6.633051
v 1.105000 0.803515 -6.632073
v 1.105000 0.805188 -6.631063
v 1.105000 0.806843 -6.630021
v 1.105000 0.808476 -6.628947
v 1.105000 0.810089 -6.627842
v 1.105000 0.811681 -6.626706
v 1.105000 0.813252 -6.625538
v 1.105000 0.814800 -6.624340
v 1.105000 0.816325 -6.623111
v 1.105000 0.817827 -6.621852
v 1.105000 0.819306 -6.620563
v 1.105000 0.820761 -6.619244
v 1.105000 0.822191 -6.617896
v 1.105000 0.823596 -6.616519
v 1.105000 0.824976 -6.615114
v 1.105000 0.826329 -6.613682
v 1.105000 0.827656 -6.612224
v 1.105000 0.828955 -6.610740
v 1.105000 0.830226 -6.609231
v 1.105000 0.831470 -6.607697
v 1.105000 0.832684 -6.606140
v 1.105000 0.833868 -6.604560
v 1.105000 0.835023 -6.602958
v 1.105000 0.836147 -6.601335
v 1.105000 0.837239 -6.599691
v 1.105000 0.838300 -6.598026
v 1.105000 0.839329 -6.596342
v 1.105000 0.840326 -6.594637
v 1.105000 0.841291 -6.592912
v 1.105000 0.842223 -6.591165
v 1.105000 0.843123 -6.589397
v 1.105000 0.843991 -6.587607
v 1.105000 0.844825 -6.585795
v 1.105000 0.845627 -6.583961
v 1.105000 0.846396 -6.582104
v 1.105000 0.847132 -6.580223
v 1.105000 0.847834 -6.578320
v 1.105000 0.848504 -6.576392
v 1.105000 0.849140 -6.574441
v 1.105000 0.915807 -6.363000
v 1.105000 0.691873 -6.363000
v 1.105000 0.638020 -6.668415
v 1.105000 0.640467 -6.668014
v 1.105000 0.642914 -6.667611
v 1.105000 0.645361 -6.667207
v 1.105000 0.647807 -6.666801
v 1.105000 0.650253 -6.666394
v 1.105000 0.652699 -6.665985
v 1.105000 0.655144 -6.665574
v 1.105000 0.657589 -6.665162
v 1.105000 0.660034 -6.664749
v 1.105000 0.662478 -6.664334
v 1.105000 0.664922 -6.663917
v 1.105000 0.667366 -6.663499
v 1.105000 0.669810 -6.663080
v 1.105000 0.672253 -6.662658
v 1.105000 0.674696 -6.662236
v 1.105000 0.677139 -6.661812
v 1.105000 0.679581 -6.661386
v 1.105000 0.682023 -6.660959
v 1.105000 0.684465 -6.660530
v 1.105000 0.686906 -6.660099
v 1.105000 0.689347 -6.659668
v 1.105000 0.691788 -6.659234
v 1.105000 0.694229 -6.658799
v 1.105000 0.696669 -6.658363
v 1.105000 0.699109 -6.657925
v 1.105000 0.701549 -6.657485
v 1.105000 0.703988 -6.657044
v 1.105000 0.706427 -6.656602
v 1.105000 0.708866 -6.656158
v 1.105000 0.711304 -6.655712
v 1.105000 0.713742 -6.655265
v 1.105000 0.716180 -6.654816
v 1.105000 0.718618 -6.654366
v 1.105000 0.721055 -6.653914
v 1.105000 0.723492 -6.653461
v 1.105000 0.725928 -6.653006
v 1.105000 0.728365 -6.652550
v 1.105000 0.730801 -6.652092
v 1.105000 0.733236 -6.651633
v 1.105000 0.735672 -6.651172
v 1.105000 0.738107 -6.650710
v 1.105000 0.740542 -6.650246
v 1.105000 0.742976 -6.649780
v 1.105000 0.745411 -6.649313
v 1.105000 0.747844 -6.648845
v 1.105000 0.750278 -6.648374
v 1.105000 0.752711 -6.647903
v 1.105000 0.755144 -6.647430
v 1.105000 0.757577 -6.646955
v 1.105000 0.760010 -6.646479
v 1.105000 0.762442 -6.646001
v 1.105000 0.764873 -6.645522
v 1.105000 0.767305 -6.645041
v 1.105000 0.769736 -6.644559
f 1 2 3
f 1 3 4
f 1 4 5
f 1 5 6
f 1 6 7
f 1 7 8
f 1 8 9
f 1 9 10
f 1 10 11
f 1 11 12
f 1 12 13
f 1 13 14
f 1 14 15
f 1 15 16
f 1 16 17
f 1 17 18
f 1 18 19
f 1 19 20
f 1 20 21
f 1 21 22
f 1 22 23
f 1 23 24
f 1 24 25
f 1 25 26
f 1 26 27
f 1 27 28
f 1 28 29
f 1 29 30
f 1 30 31
f 1 31 32
f 1 32 33
f 1 33 34
f 1 34 35
f 1 35 36
f 1 36 37
f 1 37 38
f 1 38 39
f 1 39 40
f 1 40 41
f 1 41 42
f 1 42 43
f 1 43 44
f 1 44 45
f 1 45 46
f 1 46 47
f 1 47 48
f 1 48 49
f 1 49 50
f 1 50 51
f 1 51 52
f 1 52 53
f 1 53 54
f 1 54 55
f 1 55 56
f 1 56 57
f 1 57 58
f 1 58 59
f 1 59 60
f 1 60 61
f 1 61 62
f 1 62 63
f 1 63 64
f 1 64 65
f 1 65 66
f 1 66 67
f 1 67 68
f 1 68 69
f 1 69 70
f 1 70 71
f 1 71 72
f 1 72 73
f 1 73 74
f 1 74 75
f 1 75 76
f 1 76 77
f 1 77 78
f 1 78 79
f 1 79 80
f 1 80 81
f 1 81 82
f 1 82 83
f 1 83 84
f 1 84 85
f 1 85 86
f 1 86 87
f 1 87 88
f 1 88 89
f 1 89 90
f 1 90 91
f 1 91 92
f 1 92 93
f 1 93 94
f 1 94 95
f 1 95 96
f 1 96 97
f 1 97 98
f 1 98 99
f 1 99 100
f 1 100 101
f 1 101 102
f 1 102 103
f 1 103 104
f 1 104 105
f 1 105 106
f 1 106 107
f 1 107 108
f 1 108 109
f 1 109 110
f 1 110 111
f 1 111 112
f 1 112 113
