v -0.972532 0.488788 -6.412936
v -0.977571 0.488788 -6.412423
v -0.982533 0.488788 -6.411404
v -0.987365 0.488788 -6.409888
v -0.992020 0.488788 -6.407890
v -0.996448 0.488788 -6.405432
v -1.000605 0.488788 -6.402539
v -1.004448 0.488788 -6.399240
v -1.007938 0.488788 -6.395569
v -1.011038 0.488788 -6.391563
v -1.013717 0.488788 -6.387265
v -1.015948 0.488788 -6.382718
v -1.017707 0.488788 -6.377968
v -1.018976 0.488788 -6.373065
v -1.019743 0.488788 -6.368058
v -1.020000 0.488788 -6.363000
v -0.971836 0.900050 -6.412975
v -0.977034 0.900167 -6.412604
v -0.981797 0.900414 -6.411818
v -0.986162 0.900782 -6.410653
v -0.990166 0.901258 -6.409143
v -0.995005 0.902043 -6.406654
v -0.999354 0.902975 -6.403697
v -1.003300 0.904028 -6.400356
v -1.006928 0.905177 -6.396712
v -1.010259 0.906416 -6.392784
v -1.013223 0.907764 -6.388507
v -1.015746 0.909246 -6.383808
v -1.017302 0.910458 -6.379964
v -1.018535 0.911767 -6.375812
v -1.019413 0.913183 -6.371321
v -1.019904 0.914716 -6.366460
f 1 2 18
f 1 18 17
f 2 3 19
f 2 19 18
f 3 4 20
f 3 20 19
f 4 5 21
f 4 21 20
f 5 6 22
f 5 22 21
f 6 7 23
f 6 23 22
f 7 8 24
f 7 24 23
f 8 9 25
f 8 25 24
f 9 10 26
f 9 26 25
f 10 11 27
f 10 27 26
f 11 12 28
f 11 28 27
f 12 13 29
f 12 29 28
f 13 14 30
f 13 30 29
f 14 15 31
f 14 31 30
f 15 16 32
f 15 32 31
