v -0.344754 0.220000 0.641103
v -0.306906 0.220000 0.603256
v -0.295426 0.220000 0.601351
v -0.295426 0.010000 0.601351
v -0.306906 0.016837 0.603256
v -0.306814 0.016713 0.603163
v -0.306721 0.016588 0.603070
v -0.306628 0.016463 0.602977
v -0.306535 0.016338 0.602884
v -0.306442 0.016214 0.602792
v -0.306350 0.016089 0.602699
v -0.306257 0.015964 0.602606
v -0.306164 0.015839 0.602513
v -0.306071 0.015715 0.602421
v -0.305979 0.015590 0.602328
v -0.305886 0.015465 0.602235
v -0.305793 0.015341 0.602143
v -0.305701 0.015216 0.602050
v -0.305608 0.015092 0.601957
v -0.305515 0.014967 0.601865
v -0.305423 0.014842 0.601772
v -0.305330 0.014718 0.601679
v -0.305237 0.014593 0.601587
v -0.305145 0.014469 0.601494
v -0.305052 0.014344 0.601401
v -0.304960 0.014220 0.601309
v -0.304867 0.014096 0.601216
v -0.304774 0.013971 0.601124
v -0.304682 0.013847 0.601031
v -0.304589 0.013722 0.600939
v -0.304497 0.013598 0.600846
v -0.304404 0.013474 0.600754
v -0.304312 0.013349 0.600661
v -0.304219 0.013225 0.600569
v -0.304127 0.013101 0.600476
v -0.304034 0.012977 0.600384
v -0.303942 0.012852 0.600291
v -0.303850 0.012728 0.600199
v -0.303757 0.012604 0.600106
v -0.303665 0.012480 0.600014
v -0.303572 0.012356 0.599922
v -0.303480 0.012231 0.599829
v -0.303388 0.012107 0.599737
v -0.303295 0.011983 0.599644
v -0.303203 0.011859 0.599552
v -0.303111 0.011735 0.599460
v -0.303018 0.011611 0.599367
v -0.302926 0.011487 0.599275
v -0.302834 0.011363 0.599183
v -0.302741 0.011239 0.599090
v -0.302649 0.011115 0.598998
v -0.302557 0.010991 0.598906
v -0.302464 0.010867 0.598814
v -0.302372 0.010743 0.598721
v -0.302280 0.010619 0.598629
v -0.302188 0.010495 0.598537
v -0.302096 0.010371 0.598445
v -0.302003 0.010248 0.598353
v -0.301911 0.010124 0.598260
v -0.301819 0.010000 0.598168
v -0.301819 0.000000 0.598168
v -0.344754 0.000000 0.641103
f 62 1 2
f 62 2 3
f 3 4 5
f 62 3 5
f 62 5 6
f 62 6 7
f 62 7 8
f 62 8 9
f 62 9 10
f 62 10 11
f 62 11 12
f 62 12 13
f 62 13 14
f 62 14 15
f 62 15 16
f 62 16 17
f 62 17 18
f 62 18 19
f 62 19 20
f 62 20 21
f 62 21 22
f 62 22 23
f 62 23 24
f 62 24 25
f 62 25 26
f 62 26 27
f 62 27 28
f 62 28 29
f 62 29 30
f 62 30 31
f 62 31 32
f 62 32 33
f 62 33 34
f 62 34 35
f 62 35 36
f 62 36 37
f 62 37 38
f 62 38 39
f 62 39 40
f 62 40 41
f 62 41 42
f 62 42 43
f 62 43 44
f 62 44 45
f 62 45 46
f 62 46 47
f 62 47 48
f 62 48 49
f 62 49 50
f 62 50 51
f 62 51 52
f 62 52 53
f 62 53 54
f 62 54 55
f 62 55 56
f 62 56 57
f 62 57 58
f 62 58 59
f 62 59 60
f 60 61 62
