v 0.269510 0.220000 0.676190
v 0.264845 0.220000 0.622869
v 0.270766 0.220000 0.612851
v 0.270766 0.010000 0.612851
v 0.264845 0.016837 0.622869
v 0.264834 0.016713 0.622738
v 0.264822 0.016588 0.622608
v 0.264811 0.016463 0.622477
v 0.264799 0.016338 0.622346
v 0.264788 0.016214 0.622216
v 0.264776 0.016089 0.622085
v 0.264765 0.015964 0.621954
v 0.264753 0.015839 0.621823
v 0.264742 0.015715 0.621693
v 0.264731 0.015590 0.621562
v 0.264719 0.015465 0.621432
v 0.264708 0.015341 0.621301
v 0.264696 0.015216 0.621170
v 0.264685 0.015092 0.621040
v 0.264673 0.014967 0.620909
v 0.264662 0.014842 0.620779
v 0.264651 0.014718 0.620648
v 0.264639 0.014593 0.620518
v 0.264628 0.014469 0.620387
v 0.264616 0.014344 0.620257
v 0.264605 0.014220 0.620126
v 0.264594 0.014096 0.619996
v 0.264582 0.013971 0.619866
v 0.264571 0.013847 0.619735
v 0.264559 0.013722 0.619605
v 0.264548 0.013598 0.619475
v 0.264537 0.013474 0.619344
v 0.264525 0.013349 0.619214
v 0.264514 0.013225 0.619084
v 0.264502 0.013101 0.618953
v 0.264491 0.012977 0.618823
v 0.264480 0.012852 0.618693
v 0.264468 0.012728 0.618563
v 0.264457 0.012604 0.618432
v 0.264445 0.012480 0.618302
v 0.264434 0.012356 0.618172
v 0.264423 0.012231 0.618042
v 0.264411 0.012107 0.617912
v 0.264400 0.011983 0.617782
v 0.264388 0.011859 0.617651
v 0.264377 0.011735 0.617521
v 0.264366 0.011611 0.617391
v 0.264354 0.011487 0.617261
v 0.264343 0.011363 0.617131
v 0.264332 0.011239 0.617001
v 0.264320 0.011115 0.616871
v 0.264309 0.010991 0.616741
v 0.264297 0.010867 0.616611
v 0.264286 0.010743 0.616481
v 0.264275 0.010619 0.616351
v 0.264263 0.010495 0.616221
v 0.264252 0.010371 0.616092
v 0.264241 0.010248 0.615962
v 0.264229 0.010124 0.615832
v 0.264218 0.010000 0.615702
v 0.264218 0.000000 0.615702
v 0.269510 0.000000 0.676190
v 0.262968 0.000000 0.686458
v 0.262968 0.220000 0.686458
f 2 3 4
f 1 2 4
f 64 1 4
f 64 4 5
f 59 60 61
f 58 59 61
f 57 58 61
f 56 57 61
f 55 56 61
f 54 55 61
f 53 54 61
f 52 53 61
f 51 52 61
f 50 51 61
f 49 50 61
f 48 49 61
f 47 48 61
f 46 47 61
f 45 46 61
f 44 45 61
f 43 44 61
f 42 43 61
f 41 42 61
f 40 41 61
f 39 40 61
f 38 39 61
f 37 38 61
f 36 37 61
f 35 36 61
f 34 35 61
f 33 34 61
f 32 33 61
f 31 32 61
f 30 31 61
f 29 30 61
f 28 29 61
f 27 28 61
f 26 27 61
f 25 26 61
f 24 25 61
f 23 24 61
f 22 23 61
f 21 22 61
f 20 21 61
f 19 20 61
f 18 19 61
f 17 18 61
f 16 17 61
f 15 16 61
f 14 15 61
f 13 14 61
f 12 13 61
f 11 12 61
f 10 11 61
f 9 10 61
f 8 9 61
f 7 8 61
f 6 7 61
f 5 6 61
f 5 61 62
f 64 5 62
f 62 63 64
