v 0.459363 -0.120876 -2.880000
v 0.459311 -0.121074 -2.887104
v 0.257356 -0.004247 -2.880000
v 0.257035 -0.004802 -2.892646
v 0.459154 -0.121669 -2.894127
v 0.458890 -0.122660 -2.901078
v 0.256076 -0.006463 -2.905162
v 0.458517 -0.124044 -2.907967
v 0.458033 -0.125821 -2.914801
v 0.254489 -0.009211 -2.917420
v 0.457434 -0.127984 -2.921562
v 0.456715 -0.130527 -2.928221
v 0.252291 -0.013020 -2.929294
v 0.455871 -0.133442 -2.934747
v 0.249502 -0.017849 -2.940663
v 0.454898 -0.136722 -2.941111
v 0.453791 -0.140354 -2.947287
v 0.246153 -0.023650 -2.951409
v 0.452545 -0.144319 -2.953251
v 0.451158 -0.148599 -2.958979
v 0.242278 -0.030362 -2.961422
v 0.449624 -0.153176 -2.964450
v 0.447941 -0.158028 -2.969640
v 0.237916 -0.037917 -2.970599
v 0.446109 -0.163129 -2.974531
v 0.233112 -0.046238 -2.978847
v 0.444127 -0.168453 -2.979102
v 0.441994 -0.173972 -2.983336
v 0.227916 -0.055238 -2.986081
v 0.439712 -0.179660 -2.987214
v 0.437283 -0.185492 -2.990728
v 0.222380 -0.064826 -2.992226
v 0.434712 -0.191442 -2.993869
v 0.432002 -0.197483 -2.996628
v 0.216562 -0.074903 -2.997219
v 0.429156 -0.203592 -2.999000
v 0.426181 -0.209747 -3.000980
v 0.210521 -0.085366 -3.001010
v 0.423083 -0.215929 -3.002567
v 0.204320 -0.096107 -3.003559
v 0.419867 -0.222118 -3.003758
v 0.416541 -0.228295 -3.004553
v 0.198021 -0.107017 -3.004840
v 0.413112 -0.234442 -3.004951
v 0.409588 -0.240546 -3.004950
v 0.191690 -0.117983 -3.004840
v 0.405979 -0.246589 -3.004553
v 0.402293 -0.252558 -3.003758
v 0.185391 -0.128893 -3.003559
v 0.398541 -0.258436 -3.002567
v 0.179190 -0.139634 -3.001010
v 0.394737 -0.264210 -3.000980
v 0.390895 -0.269863 -2.999000
v 0.173149 -0.150097 -2.997219
v 0.387027 -0.275381 -2.996629
v 0.383151 -0.280749 -2.993870
v 0.167331 -0.160174 -2.992226
v 0.379284 -0.285950 -2.990729
v 0.375448 -0.290969 -2.987216
v 0.161795 -0.169762 -2.986081
v 0.371663 -0.295790 -2.983338
v 0.367950 -0.300396 -2.979105
v 0.156599 -0.178762 -2.978847
v 0.364330 -0.304775 -2.974533
v 0.151795 -0.187083 -2.970599
v 0.360829 -0.308913 -2.969642
v 0.357468 -0.312796 -2.964452
v 0.147433 -0.194638 -2.961422
v 0.354271 -0.316413 -2.958982
v 0.351258 -0.319755 -2.953253
v 0.143558 -0.201350 -2.951409
v 0.348446 -0.322816 -2.947290
v 0.345855 -0.325591 -2.941114
v 0.140209 -0.207151 -2.940663
v 0.343501 -0.328074 -2.934750
v 0.137421 -0.211980 -2.929294
v 0.341398 -0.330263 -2.928223
v 0.339555 -0.332157 -2.921564
v 0.135222 -0.215789 -2.917420
v 0.337981 -0.333758 -2.914802
v 0.336684 -0.335065 -2.907967
v 0.133635 -0.218537 -2.905162
v 0.335672 -0.336081 -2.901078
v 0.334946 -0.336804 -2.894127
v 0.132676 -0.220198 -2.892646
v 0.334509 -0.337238 -2.887104
v 0.132356 -0.220753 -2.880000
v 0.334363 -0.337382 -2.880000
f 1 2 3
f 2 4 3
f 2 5 4
f 5 6 4
f 6 7 4
f 6 8 7
f 8 9 7
f 9 10 7
f 9 11 10
f 11 12 10
f 12 13 10
f 12 14 13
f 14 15 13
f 14 16 15
f 16 17 15
f 17 18 15
f 17 19 18
f 19 20 18
f 20 21 18
f 20 22 21
f 22 23 21
f 23 24 21
f 23 25 24
f 25 26 24
f 25 27 26
f 27 28 26
f 28 29 26
f 28 30 29
f 30 31 29
f 31 32 29
f 31 33 32
f 33 34 32
f 34 35 32
f 34 36 35
f 36 37 35
f 37 38 35
f 37 39 38
f 39 40 38
f 39 41 40
f 41 42 40
f 42 43 40
f 42 44 43
f 44 45 43
f 45 46 43
f 45 47 46
f 47 48 46
f 48 49 46
f 48 50 49
f 50 51 49
f 50 52 51
f 52 53 51
f 53 54 51
f 53 55 54
f 55 56 54
f 56 57 54
f 56 58 57
f 58 59 57
f 59 60 57
f 59 61 60
f 61 62 60
f 62 63 60
f 62 64 63
f 64 65 63
f 64 66 65
f 66 67 65
f 67 68 65
f 67 69 68
f 69 70 68
f 70 71 68
f 70 72 71
f 72 73 71
f 73 74 71
f 73 75 74
f 75 76 74
f 75 77 76
f 77 78 76
f 78 79 76
f 78 80 79
f 80 81 79
f 81 82 79
f 81 83 82
f 83 84 82
f 84 85 82
f 84 86 85
f 86 87 85
f 86 88 87
