v 0.104692 0.220000 -0.720352
v 0.082072 0.220000 -0.671843
v 0.082072 0.016837 -0.671843
v 0.082017 0.016713 -0.671724
v 0.081961 0.016588 -0.671605
v 0.081906 0.016463 -0.671486
v 0.081850 0.016338 -0.671367
v 0.081795 0.016214 -0.671248
v 0.081739 0.016089 -0.671129
v 0.081684 0.015964 -0.671011
v 0.081629 0.015839 -0.670892
v 0.081573 0.015715 -0.670773
v 0.081518 0.015590 -0.670654
v 0.081462 0.015465 -0.670535
v 0.081407 0.015341 -0.670416
v 0.081351 0.015216 -0.670298
v 0.081296 0.015092 -0.670179
v 0.081241 0.014967 -0.670060
v 0.081185 0.014842 -0.669941
v 0.081130 0.014718 -0.669823
v 0.081075 0.014593 -0.669704
v 0.081019 0.014469 -0.669585
v 0.080964 0.014344 -0.669466
v 0.080909 0.014220 -0.669348
v 0.080853 0.014096 -0.669229
v 0.080798 0.013971 -0.669110
v 0.080743 0.013847 -0.668992
v 0.080687 0.013722 -0.668873
v 0.080632 0.013598 -0.668755
v 0.080577 0.013474 -0.668636
v 0.080521 0.013349 -0.668518
v 0.080466 0.013225 -0.668399
v 0.080411 0.013101 -0.668280
v 0.080356 0.012977 -0.668162
v 0.080300 0.012852 -0.668043
v 0.080245 0.012728 -0.667925
v 0.080190 0.012604 -0.667807
v 0.080135 0.012480 -0.667688
v 0.080079 0.012356 -0.667570
v 0.080024 0.012231 -0.667451
v 0.079969 0.012107 -0.667333
v 0.079914 0.011983 -0.667214
v 0.079859 0.011859 -0.667096
v 0.079803 0.011735 -0.666978
v 0.079748 0.011611 -0.666859
v 0.079693 0.011487 -0.666741
v 0.079638 0.011363 -0.666623
v 0.079583 0.011239 -0.666505
v 0.079528 0.011115 -0.666386
v 0.079472 0.010991 -0.666268
v 0.079417 0.010867 -0.666150
v 0.079362 0.010743 -0.666032
v 0.079307 0.010619 -0.665913
v 0.079252 0.010495 -0.665795
v 0.079197 0.010371 -0.665677
v 0.079142 0.010248 -0.665559
v 0.079087 0.010124 -0.665441
v 0.079032 0.010000 -0.665322
v 0.079032 0.000000 -0.665322
v 0.104692 0.000000 -0.720352
f 60 1 2
f 60 2 3
f 60 3 4
f 60 4 5
f 60 5 6
f 60 6 7
f 60 7 8
f 60 8 9
f 60 9 10
f 60 10 11
f 60 11 12
f 60 12 13
f 60 13 14
f 60 14 15
f 60 15 16
f 60 16 17
f 60 17 18
f 60 18 19
f 60 19 20
f 60 20 21
f 60 21 22
f 60 22 23
f 60 23 24
f 60 24 25
f 60 25 26
f 60 26 27
f 60 27 28
f 60 28 29
f 60 29 30
f 60 30 31
f 60 31 32
f 60 32 33
f 60 33 34
f 60 34 35
f 60 35 36
f 60 36 37
f 60 37 38
f 60 38 39
f 60 39 40
f 60 40 41
f 60 41 42
f 60 42 43
f 60 43 44
f 60 44 45
f 60 45 46
f 60 46 47
f 60 47 48
f 60 48 49
f 60 49 50
f 60 50 51
f 60 51 52
f 60 52 53
f 60 53 54
f 60 54 55
f 60 55 56
f 60 56 57
f 60 57 58
f 58 59 60
