v 0.464044 0.220000 -0.483284
v 0.461952 0.220000 -0.485284
v 0.459851 0.220000 -0.487275
v 0.457742 0.220000 -0.489257
v 0.455624 0.220000 -0.491230
v 0.453497 0.220000 -0.493194
v 0.451363 0.220000 -0.495148
v 0.449219 0.220000 -0.497093
v 0.447068 0.220000 -0.499029
v 0.444908 0.220000 -0.500956
v 0.442740 0.220000 -0.502873
v 0.440563 0.220000 -0.504781
v 0.438378 0.220000 -0.506680
v 0.436186 0.220000 -0.508569
v 0.433984 0.220000 -0.510448
v 0.431775 0.220000 -0.512318
v 0.429558 0.220000 -0.514179
v 0.427333 0.220000 -0.516030
v 0.425100 0.220000 -0.517871
v 0.422859 0.220000 -0.519702
v 0.420609 0.220000 -0.521524
v 0.418353 0.220000 -0.523337
v 0.416088 0.220000 -0.525139
v 0.413815 0.220000 -0.526931
v 0.411535 0.220000 -0.528714
v 0.409247 0.220000 -0.530487
v 0.406952 0.220000 -0.532250
v 0.404649 0.220000 -0.534003
v 0.402338 0.220000 -0.535746
v 0.400020 0.220000 -0.537479
v 0.397694 0.220000 -0.539202
v 0.395361 0.220000 -0.540915
v 0.395690 0.220000 -0.540685
v 0.396027 0.220000 -0.540469
v 0.396372 0.220000 -0.540266
v 0.396725 0.220000 -0.540077
v 0.397086 0.220000 -0.539902
v 0.397453 0.220000 -0.539742
v 0.397827 0.220000 -0.539597
v 0.398206 0.220000 -0.539467
v 0.398589 0.220000 -0.539352
v 0.398978 0.220000 -0.539253
v 0.399369 0.220000 -0.539169
v 0.399764 0.220000 -0.539101
v 0.400161 0.220000 -0.539049
v 0.400560 0.220000 -0.539013
v 0.400961 0.220000 -0.538993
v 0.401361 0.220000 -0.538989
v 0.401762 0.220000 -0.539001
v 0.402161 0.220000 -0.539029
v 0.402559 0.220000 -0.539073
v 0.402956 0.220000 -0.539133
v 0.403349 0.220000 -0.539209
v 0.403739 0.220000 -0.539300
v 0.404125 0.220000 -0.539407
v 0.404507 0.220000 -0.539530
v 0.404883 0.220000 -0.539667
v 0.405253 0.220000 -0.539820
v 0.405617 0.220000 -0.539987
v 0.405975 0.220000 -0.540168
v 0.406324 0.220000 -0.540364
v 0.406665 0.220000 -0.540574
v 0.406998 0.220000 -0.540797
v 0.450842 0.220000 -0.571497
v 0.451193 0.220000 -0.571732
v 0.451554 0.220000 -0.571952
v 0.451923 0.220000 -0.572156
v 0.452301 0.220000 -0.572345
v 0.452686 0.220000 -0.572517
v 0.453079 0.220000 -0.572673
v 0.453477 0.220000 -0.572813
v 0.453881 0.220000 -0.572935
v 0.454290 0.220000 -0.573040
v 0.454703 0.220000 -0.573128
v 0.455120 0.220000 -0.573199
v 0.455539 0.220000 -0.573251
v 0.455959 0.220000 -0.573287
v 0.456381 0.220000 -0.573304
v 0.456803 0.220000 -0.573303
v 0.457225 0.220000 -0.573285
v 0.457646 0.220000 -0.573249
v 0.458065 0.220000 -0.573195
v 0.458481 0.220000 -0.573123
v 0.458893 0.220000 -0.573034
v 0.459302 0.220000 -0.572928
v 0.459706 0.220000 -0.572804
v 0.460104 0.220000 -0.572664
v 0.460496 0.220000 -0.572506
v 0.460881 0.220000 -0.572333
v 0.461258 0.220000 -0.572143
v 0.461627 0.220000 -0.571938
v 0.461987 0.220000 -0.571717
v 0.462337 0.220000 -0.571481
v 0.462677 0.220000 -0.571231
v 0.463006 0.220000 -0.570966
v 0.481892 0.220000 -0.555119
v 0.482209 0.220000 -0.554841
v 0.482515 0.220000 -0.554550
v 0.482808 0.220000 -0.554246
v 0.483088 0.220000 -0.553930
v 0.483354 0.220000 -0.553602
v 0.483607 0.220000 -0.553263
v 0.483844 0.220000 -0.552915
v 0.484067 0.220000 -0.552556
v 0.484275 0.220000 -0.552188
v 0.484467 0.220000 -0.551812
v 0.484642 0.220000 -0.551428
v 0.484802 0.220000 -0.551037
v 0.484944 0.220000 -0.550640
v 0.485070 0.220000 -0.550237
v 0.485179 0.220000 -0.549829
v 0.485270 0.220000 -0.549417
v 0.485344 0.220000 -0.549001
v 0.485401 0.220000 -0.548582
v 0.485439 0.220000 -0.548162
v 0.485460 0.220000 -0.547740
v 0.485463 0.220000 -0.547318
v 0.485448 0.220000 -0.546896
v 0.485415 0.220000 -0.546475
v 0.485365 0.220000 -0.546056
v 0.485297 0.220000 -0.545639
v 0.485211 0.220000 -0.545226
v 0.485108 0.220000 -0.544816
v 0.484988 0.220000 -0.544411
v 0.484851 0.220000 -0.544012
v 0.484697 0.220000 -0.543619
v 0.484527 0.220000 -0.543233
v 0.461907 0.220000 -0.494723
v 0.461745 0.220000 -0.494357
v 0.461597 0.220000 -0.493984
v 0.461465 0.220000 -0.493606
v 0.461348 0.220000 -0.493223
v 0.461247 0.220000 -0.492835
v 0.461161 0.220000 -0.492444
v 0.461091 0.220000 -0.492050
v 0.461037 0.220000 -0.491653
v 0.460998 0.220000 -0.491254
v 0.460976 0.220000 -0.490854
v 0.460970 0.220000 -0.490453
v 0.460980 0.220000 -0.490053
v 0.461005 0.220000 -0.489653
v 0.461047 0.220000 -0.489255
v 0.461105 0.220000 -0.488858
v 0.461179 0.220000 -0.488464
v 0.461268 0.220000 -0.488074
v 0.461373 0.220000 -0.487687
v 0.461493 0.220000 -0.487305
v 0.461628 0.220000 -0.486928
v 0.461779 0.220000 -0.486557
v 0.461944 0.220000 -0.486192
v 0.462124 0.220000 -0.485833
v 0.462318 0.220000 -0.485483
v 0.462526 0.220000 -0.485140
v 0.462747 0.220000 -0.484806
v 0.462981 0.220000 -0.484482
v 0.463229 0.220000 -0.484167
v 0.463489 0.220000 -0.483862
v 0.463760 0.220000 -0.483567
f 158 1 2
f 31 32 33
f 31 33 34
f 30 31 34
f 29 30 34
f 29 34 35
f 28 29 35
f 28 35 36
f 27 28 36
f 27 36 37
f 26 27 37
f 26 37 38
f 25 26 38
f 24 25 38
f 24 38 39
f 23 24 39
f 23 39 40
f 22 23 40
f 22 40 41
f 21 22 41
f 21 41 42
f 20 21 42
f 19 20 42
f 19 42 43
f 18 19 43
f 18 43 44
f 17 18 44
f 17 44 45
f 16 17 45
f 16 45 46
f 15 16 46
f 14 15 46
f 14 46 47
f 13 14 47
f 13 47 48
f 12 13 48
f 12 48 49
f 11 12 49
f 11 49 50
f 10 11 50
f 10 50 51
f 9 10 51
f 9 51 52
f 8 9 52
f 7 8 52
f 7 52 53
f 6 7 53
f 6 53 54
f 5 6 54
f 5 54 55
f 4 5 55
f 4 55 56
f 3 4 56
f 3 56 57
f 2 3 57
f 158 2 57
f 158 57 58
f 158 58 59
f 158 59 60
f 158 60 61
f 158 61 62
f 158 62 63
f 63 64 65
f 63 65 66
f 63 66 67
f 63 67 68
f 63 68 69
f 63 69 70
f 63 70 71
f 63 71 72
f 63 72 73
f 63 73 74
f 63 74 75
f 63 75 76
f 63 76 77
f 63 77 78
f 63 78 79
f 63 79 80
f 63 80 81
f 63 81 82
f 63 82 83
f 63 83 84
f 63 84 85
f 63 85 86
f 63 86 87
f 63 87 88
f 63 88 89
f 63 89 90
f 63 90 91
f 63 91 92
f 63 92 93
f 63 93 94
f 63 94 95
f 63 95 96
f 63 96 97
f 63 97 98
f 63 98 99
f 63 99 100
f 63 100 101
f 63 101 102
f 63 102 103
f 63 103 104
f 63 104 105
f 63 105 106
f 63 106 107
f 63 107 108
f 63 108 109
f 63 109 110
f 63 110 111
f 63 111 112
f 63 112 113
f 63 113 114
f 63 114 115
f 63 115 116
f 63 116 117
f 63 117 118
f 63 118 119
f 63 119 120
f 63 120 121
f 63 121 122
f 63 122 123
f 63 123 124
f 63 124 125
f 63 125 126
f 63 126 127
f 63 127 128
f 63 128 129
f 63 129 130
f 63 130 131
f 63 131 132
f 63 132 133
f 63 133 134
f 63 134 135
f 63 135 136
f 63 136 137
f 63 137 138
f 63 138 139
f 63 139 140
f 63 140 141
f 63 141 142
f 63 142 143
f 63 143 144
f 63 144 145
f 63 145 146
f 63 146 147
f 63 147 148
f 63 148 149
f 63 149 150
f 63 150 151
f 63 151 152
f 63 152 153
f 63 153 154
f 63 154 155
f 63 155 156
f 63 156 157
f 63 157 158
