v -0.674553 -1.352246 0.266724
v -0.667793 -1.350379 0.260439
v -0.660904 -1.348517 0.254315
v -0.653889 -1.346662 0.248355
v -0.646754 -1.344821 0.242564
v -0.639500 -1.342996 0.236943
v -0.632133 -1.341192 0.231497
v -0.624656 -1.339412 0.226226
v -0.617074 -1.337660 0.221131
v -0.609391 -1.335938 0.216213
v -0.601611 -1.334249 0.211471
v -0.593739 -1.332598 0.206907
v -0.585779 -1.330986 0.202521
v -0.577736 -1.329417 0.198313
v -0.569613 -1.327894 0.194284
v -0.561416 -1.326421 0.190434
v -0.553148 -1.325000 0.186765
v -0.380908 -1.325000 0.150039
v -0.375000 -1.325000 0.150000
v -0.375000 -1.335130 0.150257
v -0.624679 -1.525000 0.587338
v -0.625000 -1.525000 0.600000
v -0.632938 -1.524842 0.600000
v -0.433681 -1.338081 0.154274
v -0.404403 -1.338081 0.151391
v -0.647901 -1.351105 0.244348
v -0.433513 -1.351105 0.155546
v -0.404320 -1.351105 0.152671
v -0.710439 -1.364018 0.305828
v -0.433235 -1.364018 0.157660
v -0.404180 -1.364018 0.154798
v -0.743495 -1.376764 0.353780
v -0.432847 -1.376764 0.160606
v -0.403986 -1.376764 0.157764
v -0.791068 -1.389288 0.458764
v -0.432351 -1.389288 0.164373
v -0.403737 -1.389288 0.161555
v -0.808845 -1.401537 0.571564
v -0.431750 -1.401537 0.168944
v -0.403436 -1.401537 0.166155
v -0.803455 -1.413458 0.571918
v -0.431045 -1.413458 0.174299
v -0.403082 -1.413458 0.171545
v -0.797299 -1.425000 0.572321
v -0.430239 -1.425000 0.180415
v -0.402679 -1.425000 0.177701
v -0.790403 -1.436114 0.572773
v -0.429337 -1.436114 0.187268
v -0.402227 -1.436114 0.184597
v -0.782796 -1.446752 0.573272
v -0.428342 -1.446752 0.194826
v -0.401728 -1.446752 0.192204
v -0.774511 -1.456869 0.573815
v -0.427259 -1.456869 0.203057
v -0.401185 -1.456869 0.200489
v -0.765583 -1.466421 0.574400
v -0.426091 -1.466421 0.211927
v -0.400600 -1.466421 0.209417
v -0.756052 -1.475368 0.575025
v -0.424844 -1.475368 0.221398
v -0.399975 -1.475368 0.218948
v -0.745956 -1.483671 0.575686
v -0.423523 -1.483671 0.231428
v -0.399314 -1.483671 0.229044
v -0.735341 -1.491294 0.576382
v -0.422135 -1.491294 0.241975
v -0.398618 -1.491294 0.239659
v -0.724251 -1.498205 0.577109
v -0.420684 -1.498205 0.252994
v -0.397891 -1.498205 0.250749
v -0.712733 -1.504375 0.577864
v -0.419178 -1.504375 0.264438
v -0.397136 -1.504375 0.262267
v -0.700838 -1.509776 0.578643
v -0.417622 -1.509776 0.276257
v -0.396357 -1.509776 0.274162
v -0.688615 -1.514386 0.579445
v -0.416023 -1.514386 0.288401
v -0.395555 -1.514386 0.286385
v -0.676118 -1.518185 0.580264
v -0.414388 -1.518185 0.300818
v -0.394736 -1.518185 0.298882
v -0.663399 -1.521157 0.581097
v -0.412724 -1.521157 0.313455
v -0.393903 -1.521157 0.311601
v -0.650514 -1.523289 0.581942
v -0.411039 -1.523289 0.326257
v -0.393058 -1.523289 0.324486
v -0.637517 -1.524572 0.582794
v -0.386816 -1.325000 0.150155
v -0.622117 -1.525000 0.562143
v -0.623717 -1.525000 0.574708
v -0.462707 -1.338081 0.159067
v -0.462457 -1.351105 0.160325
v -0.462041 -1.364018 0.162416
v -0.461461 -1.376764 0.165331
v -0.460720 -1.389288 0.169057
v -0.459821 -1.401537 0.173578
v -0.458767 -1.413458 0.178876
v -0.457563 -1.425000 0.184927
v -0.456215 -1.436114 0.191705
v -0.454728 -1.446752 0.199182
v -0.453108 -1.456869 0.207325
v -0.451363 -1.466421 0.216100
v -0.449499 -1.475368 0.225468
v -0.447525 -1.483671 0.235391
v -0.445450 -1.491294 0.245825
v -0.443282 -1.498205 0.256725
v -0.441030 -1.504375 0.268046
v -0.438704 -1.509776 0.279738
v -0.436315 -1.514386 0.291751
v -0.433871 -1.518185 0.304034
v -0.431385 -1.521157 0.316535
v -0.428865 -1.523289 0.329200
v -0.681180 -1.354112 0.273166
v -0.547707 -1.325000 0.184461
v -0.392721 -1.325000 0.150349
v -0.619882 -1.525000 0.549675
v -0.491358 -1.338081 0.165747
v -0.491026 -1.351105 0.166986
v -0.490474 -1.364018 0.169045
v -0.489705 -1.376764 0.171916
v -0.488721 -1.389288 0.175586
v -0.487528 -1.401537 0.180039
v -0.486130 -1.413458 0.185256
v -0.484534 -1.425000 0.191215
v -0.482745 -1.436114 0.197891
v -0.480772 -1.446752 0.205254
v -0.478623 -1.456869 0.213274
v -0.476307 -1.466421 0.221916
v -0.473835 -1.475368 0.231143
v -0.471217 -1.483671 0.240915
v -0.468463 -1.491294 0.251191
v -0.465587 -1.498205 0.261926
v -0.462599 -1.504375 0.273075
v -0.459514 -1.509776 0.284590
v -0.456344 -1.514386 0.296421
v -0.453102 -1.518185 0.308519
v -0.449803 -1.521157 0.320830
v -0.446461 -1.523289 0.333303
v -0.542236 -1.325000 0.182230
v -0.398623 -1.325000 0.150620
v -0.640863 -1.524370 0.600000
v -0.810747 -1.399149 0.600000
v -0.599786 -1.338081 0.210659
v -0.573841 -1.338081 0.196791
v -0.519510 -1.338081 0.174287
v -0.519098 -1.351105 0.175502
v -0.518412 -1.364018 0.177520
v -0.517457 -1.376764 0.180335
v -0.516236 -1.389288 0.183932
v -0.514754 -1.401537 0.188298
v -0.513018 -1.413458 0.193412
v -0.511035 -1.425000 0.199254
v -0.508813 -1.436114 0.205799
v -0.506363 -1.446752 0.213017
v -0.503694 -1.456869 0.220879
v -0.500818 -1.466421 0.229351
v -0.497748 -1.475368 0.238397
v -0.494496 -1.483671 0.247977
v -0.491076 -1.491294 0.258050
v -0.487504 -1.498205 0.268574
v -0.483794 -1.504375 0.279504
v -0.479962 -1.509776 0.290793
v -0.476025 -1.514386 0.302391
v -0.471999 -1.518185 0.314251
v -0.467902 -1.521157 0.326320
v -0.463751 -1.523289 0.338548
v -0.687670 -1.355974 0.279763
v -0.536737 -1.325000 0.180070
v -0.404521 -1.325000 0.150969
v -0.547044 -1.338081 0.184650
v -0.546553 -1.351105 0.185835
v -0.545737 -1.364018 0.187805
v -0.544600 -1.376764 0.190550
v -0.543146 -1.389288 0.194060
v -0.541382 -1.401537 0.198319
v -0.539315 -1.413458 0.203310
v -0.536954 -1.425000 0.209009
v -0.534309 -1.436114 0.215395
v -0.531392 -1.446752 0.222438
v -0.528214 -1.456869 0.230108
v -0.524790 -1.466421 0.238374
v -0.521135 -1.475368 0.247199
v -0.517263 -1.483671 0.256546
v -0.513192 -1.491294 0.266374
v -0.508939 -1.498205 0.276642
v -0.504522 -1.504375 0.287306
v -0.499960 -1.509776 0.298319
v -0.495273 -1.514386 0.309636
v -0.490480 -1.518185 0.321207
v -0.485602 -1.521157 0.332982
v -0.480661 -1.523289 0.344912
v -0.694020 -1.357827 0.286510
v -0.531209 -1.325000 0.177983
v -0.410414 -1.325000 0.151396
v -0.573273 -1.351105 0.197942
v -0.572330 -1.364018 0.199854
v -0.571016 -1.376764 0.202519
v -0.569335 -1.389288 0.205927
v -0.567296 -1.401537 0.210061
v -0.564908 -1.413458 0.214906
v -0.562179 -1.425000 0.220439
v -0.559122 -1.436114 0.226637
v -0.555750 -1.446752 0.233474
v -0.552078 -1.456869 0.240921
v -0.548121 -1.466421 0.248945
v -0.543896 -1.475368 0.257512
v -0.539422 -1.483671 0.266585
v -0.534717 -1.491294 0.276127
v -0.529801 -1.498205 0.286095
v -0.524696 -1.504375 0.296446
v -0.519423 -1.509776 0.307138
v -0.514006 -1.514386 0.318124
v -0.508467 -1.518185 0.329356
v -0.502829 -1.521157 0.340788
v -0.497118 -1.523289 0.352369
v -0.700226 -1.359668 0.293403
v -0.525655 -1.325000 0.175968
v -0.416301 -1.325000 0.151899
v -0.599144 -1.351105 0.211770
v -0.598079 -1.364018 0.213617
v -0.596593 -1.376764 0.216190
v -0.594693 -1.389288 0.219481
v -0.592388 -1.401537 0.223473
v -0.589687 -1.413458 0.228151
v -0.586603 -1.425000 0.233494
v -0.583147 -1.436114 0.239479
v -0.579335 -1.446752 0.246081
v -0.575184 -1.456869 0.253271
v -0.570711 -1.466421 0.261019
v -0.565935 -1.475368 0.269292
v -0.560876 -1.483671 0.278053
v -0.555557 -1.491294 0.287266
v -0.550000 -1.498205 0.296891
v -0.544229 -1.504375 0.306887
v -0.538268 -1.509776 0.317211
v -0.532144 -1.514386 0.327819
v -0.525882 -1.518185 0.338665
v -0.519509 -1.521157 0.349703
v -0.513053 -1.523289 0.360886
v -0.706283 -1.361491 0.300441
v -0.520074 -1.325000 0.174026
v -0.422181 -1.325000 0.152480
v -0.624056 -1.351105 0.227261
v -0.622872 -1.364018 0.229034
v -0.621220 -1.376764 0.231505
v -0.619110 -1.389288 0.234664
v -0.616549 -1.401537 0.238497
v -0.613548 -1.413458 0.242988
v -0.610120 -1.425000 0.248118
v -0.606281 -1.436114 0.253864
v -0.602045 -1.446752 0.260203
v -0.597433 -1.456869 0.267106
v -0.592462 -1.466421 0.274545
v -0.587155 -1.475368 0.282487
v -0.581535 -1.483671 0.290899
v -0.575624 -1.491294 0.299745
v -0.569450 -1.498205 0.308986
v -0.563037 -1.504375 0.318583
v -0.556414 -1.509776 0.328495
v -0.549609 -1.514386 0.338679
v -0.542651 -1.518185 0.349093
v -0.535570 -1.521157 0.359690
v -0.528396 -1.523289 0.370427
v -0.428053 -1.325000 0.153138
v -0.375000 -1.345234 0.151026
v -0.387662 -1.525000 0.350321
v -0.375000 -1.355286 0.152306
v -0.375000 -1.365260 0.154094
v -0.375000 -1.375131 0.156385
v -0.375000 -1.384873 0.159172
v -0.375000 -1.394461 0.162450
v -0.375000 -1.403871 0.166208
v -0.375000 -1.413079 0.170439
v -0.375000 -1.422060 0.175131
v -0.375000 -1.430793 0.180271
v -0.375000 -1.439254 0.185847
v -0.375000 -1.447421 0.191845
v -0.375000 -1.455274 0.198248
v -0.375000 -1.462793 0.205041
v -0.375000 -1.469959 0.212207
v -0.375000 -1.476752 0.219726
v -0.375000 -1.483155 0.227579
v -0.375000 -1.489153 0.235746
v -0.375000 -1.494729 0.244207
v -0.375000 -1.499869 0.252940
v -0.375000 -1.504561 0.261921
v -0.375000 -1.508792 0.271129
v -0.375000 -1.512550 0.280539
v -0.375000 -1.515828 0.290127
v -0.375000 -1.518615 0.299869
v -0.375000 -1.520906 0.309740
v -0.375000 -1.522694 0.319714
v -0.375000 -1.523974 0.329766
v -0.375000 -1.524743 0.339870
v -0.375000 -1.525000 0.350000
v -0.646603 -1.364018 0.246040
v -0.644794 -1.376764 0.248398
v -0.642481 -1.389288 0.251412
v -0.639675 -1.401537 0.255069
v -0.636387 -1.413458 0.259354
v -0.632631 -1.425000 0.264249
v -0.628424 -1.436114 0.269732
v -0.623783 -1.446752 0.275780
v -0.618729 -1.456869 0.282367
v -0.613282 -1.466421 0.289465
v -0.607467 -1.475368 0.297043
v -0.601308 -1.483671 0.305069
v -0.594832 -1.491294 0.313509
v -0.588067 -1.498205 0.322326
v -0.581040 -1.504375 0.331483
v -0.573783 -1.509776 0.340941
v -0.566326 -1.514386 0.350659
v -0.558702 -1.518185 0.360595
v -0.550943 -1.521157 0.370707
v -0.543082 -1.523289 0.380951
v -0.712189 -1.363292 0.307618
v -0.433915 -1.325000 0.153873
v -0.669172 -1.364018 0.264561
v -0.667212 -1.376764 0.266796
v -0.664707 -1.389288 0.269652
v -0.661668 -1.401537 0.273118
v -0.658106 -1.413458 0.277179
v -0.654039 -1.425000 0.281818
v -0.649482 -1.436114 0.287014
v -0.644455 -1.446752 0.292745
v -0.638981 -1.456869 0.298987
v -0.633082 -1.466421 0.305714
v -0.626784 -1.475368 0.312896
v -0.620113 -1.483671 0.320502
v -0.613099 -1.491294 0.328500
v -0.605771 -1.498205 0.336856
v -0.598161 -1.504375 0.345534
v -0.590301 -1.509776 0.354497
v -0.582224 -1.514386 0.363706
v -0.573967 -1.518185 0.373122
v -0.565563 -1.521157 0.382705
v -0.557049 -1.523289 0.392413
v -0.717940 -1.365068 0.314932
v -0.439768 -1.325000 0.154685
v -0.690481 -1.364018 0.284519
v -0.688379 -1.376764 0.286621
v -0.685693 -1.389288 0.289307
v -0.682433 -1.401537 0.292567
v -0.678614 -1.413458 0.296386
v -0.674251 -1.425000 0.300749
v -0.669364 -1.436114 0.305636
v -0.663974 -1.446752 0.311026
v -0.658103 -1.456869 0.316897
v -0.651777 -1.466421 0.323223
v -0.645022 -1.475368 0.329978
v -0.637869 -1.483671 0.337131
v -0.630346 -1.491294 0.344654
v -0.622487 -1.498205 0.352513
v -0.614326 -1.504375 0.360674
v -0.605896 -1.509776 0.369104
v -0.597235 -1.514386 0.377765
v -0.588379 -1.518185 0.386621
v -0.579367 -1.521157 0.395633
v -0.570236 -1.523289 0.404764
v -0.723534 -1.366816 0.322380
v -0.445609 -1.325000 0.155574
v -0.708204 -1.376764 0.307788
v -0.705348 -1.389288 0.310293
v -0.701882 -1.401537 0.313332
v -0.697821 -1.413458 0.316894
v -0.693182 -1.425000 0.320961
v -0.687986 -1.436114 0.325518
v -0.682255 -1.446752 0.330545
v -0.676013 -1.456869 0.336019
v -0.669286 -1.466421 0.341918
v -0.662104 -1.475368 0.348216
v -0.654498 -1.483671 0.354887
v -0.646500 -1.491294 0.361901
v -0.638144 -1.498205 0.369229
v -0.629466 -1.504375 0.376839
v -0.620503 -1.509776 0.384699
v -0.611294 -1.514386 0.392776
v -0.601878 -1.518185 0.401033
v -0.592295 -1.521157 0.409437
v -0.582587 -1.523289 0.417951
v -0.728970 -1.368531 0.329958
v -0.451438 -1.325000 0.156540
v -0.726602 -1.376764 0.330206
v -0.723588 -1.389288 0.332519
v -0.719931 -1.401537 0.335325
v -0.715646 -1.413458 0.338613
v -0.710751 -1.425000 0.342369
v -0.705268 -1.436114 0.346576
v -0.699220 -1.446752 0.351217
v -0.692633 -1.456869 0.356271
v -0.685535 -1.466421 0.361718
v -0.677957 -1.475368 0.367533
v -0.669931 -1.483671 0.373692
v -0.661491 -1.491294 0.380168
v -0.652674 -1.498205 0.386933
v -0.643517 -1.504375 0.393960
v -0.634059 -1.509776 0.401217
v -0.624341 -1.514386 0.408674
v -0.614405 -1.518185 0.416298
v -0.604293 -1.521157 0.424057
v -0.594049 -1.523289 0.431918
v -0.734247 -1.370211 0.337665
v -0.457254 -1.325000 0.157581
v -0.740336 -1.389288 0.355890
v -0.736503 -1.401537 0.358451
v -0.732012 -1.413458 0.361452
v -0.726882 -1.425000 0.364880
v -0.721136 -1.436114 0.368719
v -0.714797 -1.446752 0.372955
v -0.707894 -1.456869 0.377567
v -0.700455 -1.466421 0.382538
v -0.692513 -1.475368 0.387845
v -0.684101 -1.483671 0.393465
v -0.675255 -1.491294 0.399376
v -0.666014 -1.498205 0.405550
v -0.656417 -1.504375 0.411963
v -0.646505 -1.509776 0.418586
v -0.636321 -1.514386 0.425391
v -0.625907 -1.518185 0.432349
v -0.615310 -1.521157 0.439430
v -0.604573 -1.523289 0.446604
v -0.739365 -1.371853 0.345497
v -0.463056 -1.325000 0.158699
v -0.755519 -1.389288 0.380307
v -0.751527 -1.401537 0.382612
v -0.746849 -1.413458 0.385313
v -0.741506 -1.425000 0.388397
v -0.735521 -1.436114 0.391853
v -0.728919 -1.446752 0.395665
v -0.721729 -1.456869 0.399816
v -0.713981 -1.466421 0.404289
v -0.705708 -1.475368 0.409065
v -0.696947 -1.483671 0.414124
v -0.687734 -1.491294 0.419443
v -0.678109 -1.498205 0.425000
v -0.668113 -1.504375 0.430771
v -0.657789 -1.509776 0.436732
v -0.647181 -1.514386 0.442856
v -0.636335 -1.518185 0.449118
v -0.625297 -1.521157 0.455491
v -0.614114 -1.523289 0.461947
v -0.744321 -1.373454 0.353451
v -0.468842 -1.325000 0.159894
v -0.769073 -1.389288 0.405665
v -0.764939 -1.401537 0.407704
v -0.760094 -1.413458 0.410092
v -0.754561 -1.425000 0.412821
v -0.748363 -1.436114 0.415878
v -0.741526 -1.446752 0.419250
v -0.734079 -1.456869 0.422922
v -0.726055 -1.466421 0.426879
v -0.717488 -1.475368 0.431104
v -0.708415 -1.483671 0.435578
v -0.698873 -1.491294 0.440283
v -0.688905 -1.498205 0.445199
v -0.678554 -1.504375 0.450304
v -0.667862 -1.509776 0.455577
v -0.656876 -1.514386 0.460994
v -0.645644 -1.518185 0.466533
v -0.634212 -1.521157 0.472171
v -0.622631 -1.523289 0.477882
v -0.749116 -1.375010 0.361525
v -0.474613 -1.325000 0.161164
v -0.780940 -1.389288 0.431854
v -0.776681 -1.401537 0.433618
v -0.771690 -1.413458 0.435685
v -0.765991 -1.425000 0.438046
v -0.759605 -1.436114 0.440691
v -0.752562 -1.446752 0.443608
v -0.744892 -1.456869 0.446786
v -0.736626 -1.466421 0.450210
v -0.727801 -1.475368 0.453865
v -0.718454 -1.483671 0.457737
v -0.708626 -1.491294 0.461808
v -0.698358 -1.498205 0.466061
v -0.687694 -1.504375 0.470478
v -0.676681 -1.509776 0.475040
v -0.665364 -1.514386 0.479727
v -0.653793 -1.518185 0.484520
v -0.642018 -1.521157 0.489398
v -0.630088 -1.523289 0.494339
v -0.480366 -1.325000 0.162509
v -0.786702 -1.401537 0.460246
v -0.781588 -1.413458 0.461982
v -0.775746 -1.425000 0.463965
v -0.769201 -1.436114 0.466187
v -0.761983 -1.446752 0.468637
v -0.754121 -1.456869 0.471306
v -0.745649 -1.466421 0.474182
v -0.736603 -1.475368 0.477252
v -0.727023 -1.483671 0.480504
v -0.716950 -1.491294 0.483924
v -0.706426 -1.498205 0.487496
v -0.695496 -1.504375 0.491206
v -0.684207 -1.509776 0.495038
v -0.672609 -1.514386 0.498975
v -0.660749 -1.518185 0.503001
v -0.648680 -1.521157 0.507098
v -0.636452 -1.523289 0.511249
v -0.392206 -1.524572 0.337483
v -0.813544 -1.391718 0.600000
v -0.813300 -1.392104 0.590254
v -0.486101 -1.325000 0.163931
v -0.794961 -1.401537 0.487472
v -0.789744 -1.413458 0.488870
v -0.783785 -1.425000 0.490466
v -0.777109 -1.436114 0.492255
v -0.769746 -1.446752 0.494228
v -0.761726 -1.456869 0.496377
v -0.753084 -1.466421 0.498693
v -0.743857 -1.475368 0.501165
v -0.734085 -1.483671 0.503783
v -0.723809 -1.491294 0.506537
v -0.713074 -1.498205 0.509413
v -0.701925 -1.504375 0.512401
v -0.690410 -1.509776 0.515486
v -0.678579 -1.514386 0.518656
v -0.666481 -1.518185 0.521898
v -0.654170 -1.521157 0.525197
v -0.641697 -1.523289 0.528539
v -0.812873 -1.392399 0.580533
v -0.491817 -1.325000 0.165427
v -0.801422 -1.401537 0.515179
v -0.796124 -1.413458 0.516233
v -0.790073 -1.425000 0.517437
v -0.783295 -1.436114 0.518785
v -0.775818 -1.446752 0.520272
v -0.767675 -1.456869 0.521892
v -0.758900 -1.466421 0.523637
v -0.749532 -1.475368 0.525501
v -0.739609 -1.483671 0.527475
v -0.729175 -1.491294 0.529550
v -0.718275 -1.498205 0.531718
v -0.706954 -1.504375 0.533970
v -0.695262 -1.509776 0.536296
v -0.683249 -1.514386 0.538685
v -0.670966 -1.518185 0.541129
v -0.658465 -1.521157 0.543615
v -0.645800 -1.523289 0.546135
v -0.812265 -1.392604 0.570837
v -0.497512 -1.325000 0.166998
v -0.806056 -1.401537 0.543250
v -0.800701 -1.413458 0.543955
v -0.794585 -1.425000 0.544761
v -0.787732 -1.436114 0.545663
v -0.780174 -1.446752 0.546658
v -0.771943 -1.456869 0.547741
v -0.763073 -1.466421 0.548909
v -0.753602 -1.475368 0.550156
v -0.743572 -1.483671 0.551477
v -0.733025 -1.491294 0.552865
v -0.722006 -1.498205 0.554316
v -0.710562 -1.504375 0.555822
v -0.698743 -1.509776 0.557378
v -0.686599 -1.514386 0.558977
v -0.674182 -1.518185 0.560612
v -0.661545 -1.521157 0.562276
v -0.648743 -1.523289 0.563961
v -0.811475 -1.392719 0.561169
v -0.503187 -1.325000 0.168644
v -0.810503 -1.392747 0.551531
v -0.508840 -1.325000 0.170364
v -0.809350 -1.392686 0.541925
v -0.514469 -1.325000 0.172158
v -0.808016 -1.392539 0.532353
v -0.806501 -1.392305 0.522816
v -0.753748 -1.376518 0.369716
v -0.804806 -1.391987 0.513317
v -0.802930 -1.391584 0.503858
v -0.800875 -1.391097 0.494440
v -0.798640 -1.390527 0.485067
v -0.796226 -1.389877 0.475742
v -0.793635 -1.389148 0.466472
v -0.790868 -1.388342 0.457263
v -0.787925 -1.387461 0.448119
v -0.784808 -1.386508 0.439047
v -0.781519 -1.385484 0.430053
v -0.778058 -1.384392 0.421141
v -0.774426 -1.383233 0.412318
v -0.770625 -1.382010 0.403589
v -0.766655 -1.380724 0.394960
v -0.762518 -1.379378 0.386436
v -0.758216 -1.377975 0.378020
v -0.723697 -1.498951 0.600000
v -0.730524 -1.494896 0.600000
v -0.737183 -1.490574 0.600000
v -0.743667 -1.485991 0.600000
v -0.749963 -1.481155 0.600000
v -0.756062 -1.476072 0.600000
v -0.761955 -1.470751 0.600000
v -0.767631 -1.465201 0.600000
v -0.773083 -1.459430 0.600000
v -0.778302 -1.453446 0.600000
v -0.783279 -1.447261 0.600000
v -0.788007 -1.440882 0.600000
v -0.792478 -1.434321 0.600000
v -0.796685 -1.427588 0.600000
v -0.800621 -1.420693 0.600000
v -0.804281 -1.413648 0.600000
v -0.807658 -1.406462 0.600000
v -0.409339 -1.524572 0.339170
v -0.716716 -1.502731 0.600000
v -0.426324 -1.524572 0.341974
v -0.709589 -1.506231 0.600000
v -0.443090 -1.524572 0.345884
v -0.702330 -1.509445 0.600000
v -0.459564 -1.524572 0.350881
v -0.694948 -1.512369 0.600000
v -0.475677 -1.524572 0.356945
v -0.687457 -1.514998 0.600000
v -0.491358 -1.524572 0.364050
v -0.679867 -1.517327 0.600000
v -0.506540 -1.524572 0.372165
v -0.672190 -1.519353 0.600000
v -0.521160 -1.524572 0.381256
v -0.664439 -1.521073 0.600000
v -0.535153 -1.524572 0.391284
v -0.656626 -1.522484 0.600000
v -0.548461 -1.524572 0.402206
v -0.648763 -1.523583 0.600000
v -0.561026 -1.524572 0.413974
v -0.572794 -1.524572 0.426539
v -0.583716 -1.524572 0.439847
v -0.593744 -1.524572 0.453840
v -0.602835 -1.524572 0.468460
v -0.610950 -1.524572 0.483642
v -0.618055 -1.524572 0.499323
v -0.624119 -1.524572 0.515436
v -0.629116 -1.524572 0.531910
v -0.633026 -1.524572 0.548676
v -0.635830 -1.524572 0.565661
v -0.400292 -1.525000 0.351283
v -0.412857 -1.525000 0.352883
v -0.425325 -1.525000 0.355118
v -0.437663 -1.525000 0.357981
v -0.449841 -1.525000 0.361465
v -0.461826 -1.525000 0.365562
v -0.473589 -1.525000 0.370261
v -0.485099 -1.525000 0.375549
v -0.496325 -1.525000 0.381413
v -0.507241 -1.525000 0.387839
v -0.517817 -1.525000 0.394809
v -0.528026 -1.525000 0.402306
v -0.537843 -1.525000 0.410310
v -0.547242 -1.525000 0.418802
v -0.556198 -1.525000 0.427758
v -0.564690 -1.525000 0.437157
v -0.572694 -1.525000 0.446974
v -0.580191 -1.525000 0.457183
v -0.587161 -1.525000 0.467759
v -0.593587 -1.525000 0.478675
v -0.599451 -1.525000 0.489901
v -0.604739 -1.525000 0.501411
v -0.609438 -1.525000 0.513174
v -0.613535 -1.525000 0.525159
v -0.617019 -1.525000 0.537337
v -0.546839 -1.344603 0.185144
v -0.533173 -1.344603 0.179744
v -0.560321 -1.344603 0.190988
v -0.573604 -1.344603 0.197271
v -0.586675 -1.344603 0.203985
v -0.585869 -1.357579 0.205491
v -0.572848 -1.357579 0.198803
v -0.598664 -1.357579 0.212602
v -0.611220 -1.357579 0.220128
v -0.623522 -1.357579 0.228060
v -0.635559 -1.357579 0.236390
v -0.647316 -1.357579 0.245110
v -0.658782 -1.357579 0.254210
v -0.609872 -1.370415 0.222296
v -0.597388 -1.370415 0.214813
v -0.622104 -1.370415 0.230183
v -0.634072 -1.370415 0.238466
v -0.645762 -1.370415 0.247136
v -0.657163 -1.370415 0.256184
v -0.668261 -1.370415 0.265600
v -0.679045 -1.370415 0.275374
v -0.689504 -1.370415 0.285496
v -0.699626 -1.370415 0.295955
v -0.655014 -1.383057 0.258802
v -0.643700 -1.383057 0.249823
v -0.666027 -1.383057 0.268147
v -0.676729 -1.383057 0.277847
v -0.687109 -1.383057 0.287891
v -0.697153 -1.383057 0.298271
v -0.706853 -1.383057 0.308973
v -0.716198 -1.383057 0.319986
v -0.725177 -1.383057 0.331300
v -0.733781 -1.383057 0.342901
v -0.742001 -1.383057 0.354778
v -0.749828 -1.383057 0.366917
v -0.757253 -1.383057 0.379306
v -0.764270 -1.383057 0.391931
v -0.694083 -1.395450 0.301146
v -0.684134 -1.395450 0.290866
v -0.703690 -1.395450 0.311746
v -0.712946 -1.395450 0.322655
v -0.721839 -1.395450 0.333861
v -0.730361 -1.395450 0.345352
v -0.738503 -1.395450 0.357115
v -0.746255 -1.395450 0.369139
v -0.753610 -1.395450 0.381409
v -0.760559 -1.395450 0.393914
v -0.767096 -1.395450 0.406640
v -0.773213 -1.395450 0.419572
v -0.778903 -1.395450 0.432698
v -0.784160 -1.395450 0.446003
v -0.788980 -1.395450 0.459473
v -0.793356 -1.395450 0.473093
v -0.797285 -1.395450 0.486849
v -0.800761 -1.395450 0.500727
v -0.690427 -1.407541 0.304570
v -0.680592 -1.407541 0.294408
v -0.699925 -1.407541 0.315049
v -0.709074 -1.407541 0.325832
v -0.717866 -1.407541 0.336910
v -0.726290 -1.407541 0.348269
v -0.734339 -1.407541 0.359898
v -0.742002 -1.407541 0.371783
v -0.749273 -1.407541 0.383914
v -0.756142 -1.407541 0.396275
v -0.762604 -1.407541 0.408855
v -0.768651 -1.407541 0.421639
v -0.774276 -1.407541 0.434615
v -0.779473 -1.407541 0.447767
v -0.784237 -1.407541 0.461083
v -0.788564 -1.407541 0.474547
v -0.792447 -1.407541 0.488145
v -0.795883 -1.407541 0.501864
v -0.686203 -1.419279 0.308527
v -0.676499 -1.419279 0.298501
v -0.695573 -1.419279 0.318865
v -0.704599 -1.419279 0.329505
v -0.713273 -1.419279 0.340434
v -0.721585 -1.419279 0.351641
v -0.729526 -1.419279 0.363114
v -0.737086 -1.419279 0.374840
v -0.744260 -1.419279 0.386808
v -0.751037 -1.419279 0.399004
v -0.757412 -1.419279 0.411415
v -0.763378 -1.419279 0.424028
v -0.768928 -1.419279 0.436830
v -0.774056 -1.419279 0.449806
v -0.778756 -1.419279 0.462943
v -0.783024 -1.419279 0.476227
v -0.786856 -1.419279 0.489644
v -0.790246 -1.419279 0.503178
v -0.681426 -1.430614 0.313000
v -0.671872 -1.430614 0.303128
v -0.690653 -1.430614 0.323180
v -0.699541 -1.430614 0.333656
v -0.708082 -1.430614 0.344417
v -0.716266 -1.430614 0.355452
v -0.724085 -1.430614 0.366749
v -0.731529 -1.430614 0.378296
v -0.738593 -1.430614 0.390080
v -0.745266 -1.430614 0.402089
v -0.751543 -1.430614 0.414309
v -0.757417 -1.430614 0.426729
v -0.762882 -1.430614 0.439334
v -0.767931 -1.430614 0.452111
v -0.772560 -1.430614 0.465047
v -0.776762 -1.430614 0.478127
v -0.780535 -1.430614 0.491337
v -0.783873 -1.430614 0.504664
v -0.676120 -1.441496 0.317971
v -0.666731 -1.441496 0.308269
v -0.685186 -1.441496 0.327974
v -0.693920 -1.441496 0.338269
v -0.702313 -1.441496 0.348844
v -0.710356 -1.441496 0.359688
v -0.718039 -1.441496 0.370789
v -0.725355 -1.441496 0.382135
v -0.732296 -1.441496 0.393715
v -0.738854 -1.441496 0.405516
v -0.745022 -1.441496 0.417525
v -0.750795 -1.441496 0.429730
v -0.756164 -1.441496 0.442117
v -0.761126 -1.441496 0.454672
v -0.765674 -1.441496 0.467384
v -0.769804 -1.441496 0.480237
v -0.773511 -1.441496 0.493219
v -0.776792 -1.441496 0.506315
v -0.670305 -1.451879 0.323417
v -0.661097 -1.451879 0.313903
v -0.679196 -1.451879 0.333227
v -0.687762 -1.451879 0.343323
v -0.695992 -1.451879 0.353694
v -0.703879 -1.451879 0.364328
v -0.711414 -1.451879 0.375215
v -0.718589 -1.451879 0.386343
v -0.725396 -1.451879 0.397699
v -0.731827 -1.451879 0.409272
v -0.737877 -1.451879 0.421049
v -0.743537 -1.451879 0.433018
v -0.748804 -1.451879 0.445165
v -0.753670 -1.451879 0.457479
v -0.758130 -1.451879 0.469945
v -0.762180 -1.451879 0.482550
v -0.765816 -1.451879 0.495281
v -0.769033 -1.451879 0.508124
v -0.664006 -1.461718 0.329316
v -0.654995 -1.461718 0.320005
v -0.672708 -1.461718 0.338917
v -0.681091 -1.461718 0.348797
v -0.689146 -1.461718 0.358947
v -0.696865 -1.461718 0.369355
v -0.704239 -1.461718 0.380009
v -0.711261 -1.461718 0.390899
v -0.717923 -1.461718 0.402014
v -0.724217 -1.461718 0.413340
v -0.730137 -1.461718 0.424866
v -0.735677 -1.461718 0.436579
v -0.740831 -1.461718 0.448468
v -0.745593 -1.461718 0.460519
v -0.749959 -1.461718 0.472719
v -0.753922 -1.461718 0.485055
v -0.757480 -1.461718 0.497515
v -0.760629 -1.461718 0.510084
v -0.657252 -1.470973 0.335642
v -0.648451 -1.470973 0.326549
v -0.665750 -1.470973 0.345019
v -0.673937 -1.470973 0.354668
v -0.681804 -1.470973 0.364581
v -0.689343 -1.470973 0.374745
v -0.696545 -1.470973 0.385151
v -0.703402 -1.470973 0.395786
v -0.709908 -1.470973 0.406641
v -0.716055 -1.470973 0.417702
v -0.721837 -1.470973 0.428959
v -0.727248 -1.470973 0.440399
v -0.732281 -1.470973 0.452009
v -0.736932 -1.470973 0.463778
v -0.741195 -1.470973 0.475693
v -0.745067 -1.470973 0.487742
v -0.748541 -1.470973 0.499910
v -0.751616 -1.470973 0.512185
v -0.650070 -1.479602 0.342369
v -0.641493 -1.479602 0.333507
v -0.658352 -1.479602 0.351507
v -0.666331 -1.479602 0.360911
v -0.673998 -1.479602 0.370571
v -0.681345 -1.479602 0.380477
v -0.688363 -1.479602 0.390617
v -0.695046 -1.479602 0.400982
v -0.701387 -1.479602 0.411561
v -0.707377 -1.479602 0.422341
v -0.713012 -1.479602 0.433311
v -0.718285 -1.479602 0.444460
v -0.723190 -1.479602 0.455775
v -0.727723 -1.479602 0.467244
v -0.731878 -1.479602 0.478856
v -0.735650 -1.479602 0.490598
v -0.739037 -1.479602 0.502457
v -0.742033 -1.479602 0.514420
v -0.642492 -1.487569 0.349466
v -0.634151 -1.487569 0.340849
v -0.650546 -1.487569 0.358353
v -0.658305 -1.487569 0.367498
v -0.665760 -1.487569 0.376892
v -0.672905 -1.487569 0.386525
v -0.679730 -1.487569 0.396386
v -0.686229 -1.487569 0.406465
v -0.692394 -1.487569 0.416752
v -0.698220 -1.487569 0.427235
v -0.703700 -1.487569 0.437903
v -0.708828 -1.487569 0.448745
v -0.713598 -1.487569 0.459748
v -0.718005 -1.487569 0.470902
v -0.722046 -1.487569 0.482194
v -0.725714 -1.487569 0.493612
v -0.729008 -1.487569 0.505144
v -0.731922 -1.487569 0.516778
v -0.634550 -1.494840 0.356905
v -0.626457 -1.494840 0.348543
v -0.642364 -1.494840 0.365528
v -0.649893 -1.494840 0.374401
v -0.657127 -1.494840 0.383516
v -0.664059 -1.494840 0.392863
v -0.670682 -1.494840 0.402432
v -0.676988 -1.494840 0.412212
v -0.682970 -1.494840 0.422193
v -0.688623 -1.494840 0.432365
v -0.693940 -1.494840 0.442716
v -0.698916 -1.494840 0.453236
v -0.703544 -1.494840 0.463913
v -0.707821 -1.494840 0.474735
v -0.711741 -1.494840 0.485692
v -0.715301 -1.494840 0.496771
v -0.718496 -1.494840 0.507960
v -0.626277 -1.501384 0.364653
v -0.618442 -1.501384 0.356558
v -0.633843 -1.501384 0.373001
v -0.641132 -1.501384 0.381591
v -0.648135 -1.501384 0.390416
v -0.654846 -1.501384 0.399465
v -0.661258 -1.501384 0.408729
v -0.667363 -1.501384 0.418197
v -0.673155 -1.501384 0.427860
v -0.678627 -1.501384 0.437708
v -0.683775 -1.501384 0.447729
v -0.688592 -1.501384 0.457913
v -0.693073 -1.501384 0.468250
v -0.697213 -1.501384 0.478728
v -0.701009 -1.501384 0.489335
v -0.704455 -1.501384 0.500061
v -0.707548 -1.501384 0.510894
v -0.617710 -1.507173 0.372677
v -0.610142 -1.507173 0.364858
v -0.625018 -1.507173 0.380740
v -0.632058 -1.507173 0.389038
v -0.638823 -1.507173 0.397562
v -0.645305 -1.507173 0.406302
v -0.651498 -1.507173 0.415250
v -0.657395 -1.507173 0.424396
v -0.662989 -1.507173 0.433729
v -0.668275 -1.507173 0.443241
v -0.673247 -1.507173 0.452921
v -0.677900 -1.507173 0.462758
v -0.682228 -1.507173 0.472742
v -0.686227 -1.507173 0.482862
v -0.689893 -1.507173 0.493108
v -0.693222 -1.507173 0.503468
v -0.696210 -1.507173 0.513932
v -0.608885 -1.512181 0.380943
v -0.601592 -1.512181 0.373408
v -0.615927 -1.512181 0.388713
v -0.622711 -1.512181 0.396709
v -0.629230 -1.512181 0.404922
v -0.635477 -1.512181 0.413345
v -0.641444 -1.512181 0.421968
v -0.647127 -1.512181 0.430781
v -0.652518 -1.512181 0.439775
v -0.657612 -1.512181 0.448941
v -0.662403 -1.512181 0.458269
v -0.666886 -1.512181 0.467748
v -0.671057 -1.512181 0.477369
v -0.674911 -1.512181 0.487121
v -0.678444 -1.512181 0.496995
v -0.681652 -1.512181 0.506978
v -0.684531 -1.512181 0.517061
v -0.599840 -1.516388 0.389415
v -0.592829 -1.516388 0.382171
v -0.606609 -1.516388 0.396884
v -0.613131 -1.516388 0.404571
v -0.619398 -1.516388 0.412467
v -0.625403 -1.516388 0.420564
v -0.631140 -1.516388 0.428853
v -0.636603 -1.516388 0.437325
v -0.641785 -1.516388 0.445972
v -0.646682 -1.516388 0.454783
v -0.651288 -1.516388 0.463750
v -0.655598 -1.516388 0.472863
v -0.659608 -1.516388 0.482112
v -0.663312 -1.516388 0.491487
v -0.666708 -1.516388 0.500978
v -0.669792 -1.516388 0.510576
v -0.672560 -1.516388 0.520269
v -0.590613 -1.519775 0.398056
v -0.583890 -1.519775 0.391110
v -0.597105 -1.519775 0.405219
v -0.603359 -1.519775 0.412591
v -0.609369 -1.519775 0.420163
v -0.615127 -1.519775 0.427927
v -0.620629 -1.519775 0.435876
v -0.625867 -1.519775 0.444001
v -0.630837 -1.519775 0.452292
v -0.635533 -1.519775 0.460742
v -0.639950 -1.519775 0.469341
v -0.644083 -1.519775 0.478080
v -0.647928 -1.519775 0.486949
v -0.651481 -1.519775 0.495940
v -0.654738 -1.519775 0.505042
v -0.657695 -1.519775 0.514245
v -0.660349 -1.519775 0.523541
v -0.581244 -1.522329 0.406831
v -0.574814 -1.522329 0.400186
v -0.587454 -1.522329 0.413683
v -0.593437 -1.522329 0.420734
v -0.599185 -1.522329 0.427977
v -0.604693 -1.522329 0.435404
v -0.609956 -1.522329 0.443007
v -0.614967 -1.522329 0.450779
v -0.619721 -1.522329 0.458710
v -0.624213 -1.522329 0.466793
v -0.628437 -1.522329 0.475018
v -0.632391 -1.522329 0.483378
v -0.636069 -1.522329 0.491862
v -0.639467 -1.522329 0.500461
v -0.642583 -1.522329 0.509168
v -0.645411 -1.522329 0.517972
v -0.647950 -1.522329 0.526863
v -0.571774 -1.524037 0.415701
v -0.565638 -1.524037 0.409362
v -0.577699 -1.524037 0.422238
v -0.583406 -1.524037 0.428965
v -0.588891 -1.524037 0.435876
v -0.594146 -1.524037 0.442962
v -0.599167 -1.524037 0.450216
v -0.603948 -1.524037 0.457631
v -0.608483 -1.524037 0.465198
v -0.612769 -1.524037 0.472910
v -0.616800 -1.524037 0.480757
v -0.620572 -1.524037 0.488733
v -0.624081 -1.524037 0.496827
v -0.627323 -1.524037 0.505032
v -0.630296 -1.524037 0.513339
v -0.632994 -1.524037 0.521738
v -0.635417 -1.524037 0.530221
v -0.511994 -1.354346 0.173633
v -0.505000 -1.354346 0.171448
v -0.490908 -1.354346 0.167424
v -0.652739 -1.360803 0.250052
v -0.646976 -1.360803 0.245554
v -0.658427 -1.360803 0.254643
v -0.525082 -1.367222 0.180549
v -0.518199 -1.367222 0.178150
v -0.504320 -1.367222 0.173690
v -0.683781 -1.373596 0.280945
v -0.678519 -1.373596 0.275936
v -0.688960 -1.373596 0.286040
v -0.694055 -1.373596 0.291219
v -0.699064 -1.373596 0.296481
v -0.550929 -1.379918 0.194181
v -0.544266 -1.379918 0.191357
v -0.530805 -1.379918 0.186037
v -0.737137 -1.386181 0.349361
v -0.732988 -1.386181 0.343470
v -0.741190 -1.386181 0.355320
v -0.745144 -1.386181 0.361344
v -0.748999 -1.386181 0.367432
v -0.752754 -1.386181 0.373583
v -0.756408 -1.386181 0.379794
v -0.759960 -1.386181 0.386064
v -0.763409 -1.386181 0.392391
v -0.575265 -1.392378 0.210117
v -0.568859 -1.392378 0.206893
v -0.555893 -1.392378 0.200760
v -0.775031 -1.398503 0.426580
v -0.772140 -1.398503 0.420058
v -0.777815 -1.398503 0.433149
v -0.780491 -1.398503 0.439762
v -0.783058 -1.398503 0.446418
v -0.785516 -1.398503 0.453115
v -0.787865 -1.398503 0.459851
v -0.790103 -1.398503 0.466625
v -0.792229 -1.398503 0.473435
v -0.794244 -1.398503 0.480278
v -0.796147 -1.398503 0.487154
v -0.797937 -1.398503 0.494060
v -0.799614 -1.398503 0.500994
v -0.573067 -1.404550 0.214396
v -0.566732 -1.404550 0.211207
v -0.553908 -1.404550 0.205142
v -0.770255 -1.410511 0.428651
v -0.767398 -1.410511 0.422207
v -0.773005 -1.410511 0.435141
v -0.775649 -1.410511 0.441675
v -0.778186 -1.410511 0.448251
v -0.780615 -1.410511 0.454869
v -0.782935 -1.410511 0.461525
v -0.785147 -1.410511 0.468218
v -0.787248 -1.410511 0.474946
v -0.789239 -1.410511 0.481708
v -0.791119 -1.410511 0.488501
v -0.792887 -1.410511 0.495325
v -0.794544 -1.410511 0.502176
v -0.570511 -1.416381 0.219373
v -0.564257 -1.416381 0.216225
v -0.551599 -1.416381 0.210238
v -0.764768 -1.422153 0.431029
v -0.761951 -1.422153 0.424675
v -0.767481 -1.422153 0.437429
v -0.770088 -1.422153 0.443873
v -0.772590 -1.422153 0.450358
v -0.774985 -1.422153 0.456883
v -0.777273 -1.422153 0.463447
v -0.779453 -1.422153 0.470047
v -0.781526 -1.422153 0.476682
v -0.783489 -1.422153 0.483350
v -0.785343 -1.422153 0.490049
v -0.787087 -1.422153 0.496778
v -0.788721 -1.422153 0.503534
v -0.567606 -1.427821 0.225028
v -0.561445 -1.427821 0.221927
v -0.548975 -1.427821 0.216029
v -0.758595 -1.433378 0.433705
v -0.755823 -1.433378 0.427451
v -0.761265 -1.433378 0.440004
v -0.763831 -1.433378 0.446345
v -0.766293 -1.433378 0.452728
v -0.768650 -1.433378 0.459150
v -0.770902 -1.433378 0.465609
v -0.773048 -1.433378 0.472105
v -0.775087 -1.433378 0.478635
v -0.777019 -1.433378 0.485197
v -0.778844 -1.433378 0.491790
v -0.780560 -1.433378 0.498412
v -0.782168 -1.433378 0.505062
v -0.564365 -1.438820 0.231337
v -0.558308 -1.438820 0.228288
v -0.546048 -1.438820 0.222489
v -0.751761 -1.444140 0.436668
v -0.749039 -1.444140 0.430525
v -0.754383 -1.444140 0.442854
v -0.756904 -1.444140 0.449083
v -0.759322 -1.444140 0.455352
v -0.761637 -1.444140 0.461659
v -0.763849 -1.444140 0.468004
v -0.765956 -1.444140 0.474384
v -0.767959 -1.444140 0.480797
v -0.769857 -1.444140 0.487243
v -0.771649 -1.444140 0.493718
v -0.773335 -1.444140 0.500222
v -0.774914 -1.444140 0.506753
v -0.560803 -1.449332 0.238272
v -0.554860 -1.449332 0.235280
v -0.542830 -1.449332 0.229591
v -0.744297 -1.454391 0.439904
v -0.741628 -1.454391 0.433883
v -0.746867 -1.454391 0.445968
v -0.749337 -1.454391 0.452073
v -0.751707 -1.454391 0.458217
v -0.753977 -1.454391 0.464400
v -0.756145 -1.454391 0.470619
v -0.758210 -1.454391 0.476872
v -0.760174 -1.454391 0.483159
v -0.762034 -1.454391 0.489477
v -0.763790 -1.454391 0.495824
v -0.765443 -1.454391 0.502199
v -0.766991 -1.454391 0.508601
v -0.556935 -1.459312 0.245803
v -0.551115 -1.459312 0.242874
v -0.539336 -1.459312 0.237303
v -0.736233 -1.464089 0.443400
v -0.733622 -1.464089 0.437510
v -0.738746 -1.464089 0.449331
v -0.741163 -1.464089 0.455303
v -0.743481 -1.464089 0.461313
v -0.745701 -1.464089 0.467361
v -0.747822 -1.464089 0.473444
v -0.749843 -1.464089 0.479561
v -0.751763 -1.464089 0.485710
v -0.753583 -1.464089 0.491890
v -0.755301 -1.464089 0.498099
v -0.756917 -1.464089 0.504335
v -0.758431 -1.464089 0.510596
v -0.552776 -1.468716 0.253899
v -0.547089 -1.468716 0.251037
v -0.535580 -1.468716 0.245593
v -0.727604 -1.473190 0.447141
v -0.725056 -1.473190 0.441392
v -0.730058 -1.473190 0.452930
v -0.732417 -1.473190 0.458759
v -0.734680 -1.473190 0.464626
v -0.736847 -1.473190 0.470529
v -0.738916 -1.473190 0.476467
v -0.740889 -1.473190 0.482438
v -0.742763 -1.473190 0.488440
v -0.744540 -1.473190 0.494472
v -0.746217 -1.473190 0.500533
v -0.747794 -1.473190 0.506620
v -0.749272 -1.473190 0.512732
v -0.548345 -1.477505 0.262525
v -0.542800 -1.477505 0.259734
v -0.531577 -1.477505 0.254426
v -0.718448 -1.481657 0.451110
v -0.715966 -1.481657 0.445510
v -0.720838 -1.481657 0.456749
v -0.723135 -1.481657 0.462427
v -0.725340 -1.481657 0.468141
v -0.727450 -1.481657 0.473891
v -0.729466 -1.481657 0.479675
v -0.731388 -1.481657 0.485491
v -0.733214 -1.481657 0.491337
v -0.734943 -1.481657 0.497213
v -0.736577 -1.481657 0.503116
v -0.738114 -1.481657 0.509045
v -0.739553 -1.481657 0.514998
v -0.543661 -1.485641 0.271644
v -0.538266 -1.485641 0.268929
v -0.527347 -1.485641 0.263764
v -0.708803 -1.489454 0.455291
v -0.706391 -1.489454 0.449849
v -0.711126 -1.489454 0.460772
v -0.713359 -1.489454 0.466290
v -0.715501 -1.489454 0.471844
v -0.717553 -1.489454 0.477433
v -0.719512 -1.489454 0.483054
v -0.721379 -1.489454 0.488706
v -0.723154 -1.489454 0.494389
v -0.724835 -1.489454 0.500099
v -0.726423 -1.489454 0.505836
v -0.727917 -1.489454 0.511599
v -0.538744 -1.493090 0.281217
v -0.533507 -1.493090 0.278580
v -0.522905 -1.493090 0.273566
v -0.698711 -1.496546 0.459666
v -0.696371 -1.496546 0.454388
v -0.700964 -1.496546 0.464981
v -0.703129 -1.496546 0.470333
v -0.705207 -1.496546 0.475719
v -0.707196 -1.496546 0.481138
v -0.709096 -1.496546 0.486590
v -0.710907 -1.496546 0.492071
v -0.712628 -1.496546 0.497582
v -0.714259 -1.496546 0.503119
v -0.715798 -1.496546 0.508683
v -0.717247 -1.496546 0.514272
v -0.533615 -1.499818 0.291202
v -0.528542 -1.499818 0.288648
v -0.518272 -1.499818 0.283791
v -0.688215 -1.502903 0.464216
v -0.685951 -1.502903 0.459110
v -0.690395 -1.502903 0.469359
v -0.692490 -1.502903 0.474537
v -0.694500 -1.502903 0.479749
v -0.696425 -1.502903 0.484992
v -0.698264 -1.502903 0.490267
v -0.700016 -1.502903 0.495571
v -0.701681 -1.502903 0.500902
v -0.703259 -1.502903 0.506261
v -0.704749 -1.502903 0.511644
v -0.706150 -1.502903 0.517051
v -0.528296 -1.505798 0.301558
v -0.523393 -1.505798 0.299089
v -0.513468 -1.505798 0.294395
v -0.677360 -1.508499 0.468922
v -0.675175 -1.508499 0.463993
v -0.679464 -1.508499 0.473887
v -0.681487 -1.508499 0.478885
v -0.683428 -1.508499 0.483916
v -0.685286 -1.508499 0.488978
v -0.687061 -1.508499 0.494070
v -0.688752 -1.508499 0.499190
v -0.690359 -1.508499 0.504337
v -0.691882 -1.508499 0.509509
v -0.693321 -1.508499 0.514706
v -0.694674 -1.508499 0.519926
v -0.522810 -1.511003 0.312239
v -0.518082 -1.511003 0.309859
v -0.508512 -1.511003 0.305333
v -0.666193 -1.513309 0.473763
v -0.664088 -1.513309 0.469016
v -0.668219 -1.513309 0.478545
v -0.670167 -1.513309 0.483359
v -0.672036 -1.513309 0.488204
v -0.673825 -1.513309 0.493079
v -0.675535 -1.513309 0.497982
v -0.677164 -1.513309 0.502913
v -0.678712 -1.513309 0.507870
v -0.680179 -1.513309 0.512852
v -0.681564 -1.513309 0.517857
v -0.682867 -1.513309 0.522883
v -0.517180 -1.515413 0.323200
v -0.512632 -1.515413 0.320911
v -0.503426 -1.515413 0.316557
v -0.654760 -1.517312 0.478719
v -0.652739 -1.517312 0.474158
v -0.656707 -1.517312 0.483313
v -0.658579 -1.517312 0.487938
v -0.660374 -1.517312 0.492593
v -0.662093 -1.517312 0.497276
v -0.663736 -1.517312 0.501987
v -0.665301 -1.517312 0.506725
v -0.666788 -1.517312 0.511487
v -0.668197 -1.517312 0.516273
v -0.669528 -1.517312 0.521081
v -0.511430 -1.519006 0.334394
v -0.507066 -1.519006 0.332197
v -0.498233 -1.519006 0.328020
v -0.643112 -1.520492 0.483769
v -0.641175 -1.520492 0.479398
v -0.644978 -1.520492 0.488171
v -0.646772 -1.520492 0.492604
v -0.648493 -1.520492 0.497065
v -0.650140 -1.520492 0.501553
v -0.651714 -1.520492 0.506068
v -0.653214 -1.520492 0.510608
v -0.654639 -1.520492 0.515172
v -0.655990 -1.520492 0.519759
v -0.657265 -1.520492 0.524367
v -0.505585 -1.521769 0.345773
v -0.501408 -1.521769 0.343671
v -0.492953 -1.521769 0.339672
v -0.631299 -1.522835 0.488891
v -0.629446 -1.522835 0.484712
v -0.633082 -1.522835 0.493099
v -0.634797 -1.522835 0.497336
v -0.636442 -1.522835 0.501600
v -0.638017 -1.522835 0.505891
v -0.639521 -1.522835 0.510207
v -0.640955 -1.522835 0.514547
v -0.642318 -1.522835 0.518910
v -0.643609 -1.522835 0.523295
v -0.644828 -1.522835 0.527700
v -0.499670 -1.523690 0.357289
v -0.495682 -1.523690 0.355282
v -0.487610 -1.523690 0.351464
v -0.619369 -1.524331 0.494062
v -0.617603 -1.524331 0.490078
v -0.621070 -1.524331 0.498074
v -0.622705 -1.524331 0.502114
v -0.624273 -1.524331 0.506180
v -0.625775 -1.524331 0.510271
v -0.627209 -1.524331 0.514386
v -0.628576 -1.524331 0.518524
v -0.629876 -1.524331 0.522684
v -0.631106 -1.524331 0.526865
v -0.632269 -1.524331 0.531065
v -0.532750 -1.354346 0.180868
v -0.538726 -1.367222 0.185684
v -0.545483 -1.367222 0.188419
v -0.564113 -1.379918 0.200154
v -0.570630 -1.379918 0.203302
v -0.587914 -1.392378 0.216878
v -0.594154 -1.392378 0.220413
v -0.585578 -1.404550 0.221083
v -0.591749 -1.404550 0.224579
v -0.582860 -1.416381 0.225974
v -0.588952 -1.416381 0.229425
v -0.579771 -1.427821 0.231531
v -0.585773 -1.427821 0.234931
v -0.576326 -1.438820 0.237730
v -0.582227 -1.438820 0.241073
v -0.572539 -1.449332 0.244545
v -0.578329 -1.449332 0.247824
v -0.568426 -1.459312 0.251946
v -0.574095 -1.459312 0.255157
v -0.564005 -1.468716 0.259901
v -0.569544 -1.468716 0.263039
v -0.559294 -1.477505 0.268378
v -0.564696 -1.477505 0.271438
v -0.554315 -1.485641 0.277338
v -0.559570 -1.485641 0.280315
v -0.549087 -1.493090 0.286745
v -0.554189 -1.493090 0.289635
v -0.543634 -1.499818 0.296557
v -0.548576 -1.499818 0.299357
v -0.537979 -1.505798 0.306733
v -0.542756 -1.505798 0.309439
v -0.532146 -1.511003 0.317229
v -0.536752 -1.511003 0.319838
v -0.526160 -1.515413 0.328000
v -0.530590 -1.515413 0.330510
v -0.520047 -1.519006 0.339000
v -0.524298 -1.519006 0.341408
v -0.513833 -1.521769 0.350182
v -0.517902 -1.521769 0.352487
v -0.507544 -1.523690 0.361498
v -0.511429 -1.523690 0.363699
v -0.558858 -1.367222 0.194217
v -0.565473 -1.367222 0.197280
v -0.583505 -1.379918 0.209915
v -0.589859 -1.379918 0.213379
v -0.606457 -1.392378 0.227787
v -0.612516 -1.392378 0.231624
v -0.603917 -1.404550 0.231872
v -0.609909 -1.404550 0.235667
v -0.600962 -1.416381 0.236624
v -0.606877 -1.416381 0.240369
v -0.597605 -1.427821 0.242022
v -0.603432 -1.427821 0.245713
v -0.593860 -1.438820 0.248045
v -0.599589 -1.438820 0.251673
v -0.589743 -1.449332 0.254666
v -0.595364 -1.449332 0.258225
v -0.585271 -1.459312 0.261856
v -0.590776 -1.459312 0.265342
v -0.580465 -1.468716 0.269585
v -0.585844 -1.468716 0.272991
v -0.575344 -1.477505 0.277820
v -0.580589 -1.477505 0.281141
v -0.569931 -1.485641 0.286526
v -0.575034 -1.485641 0.289757
v -0.564248 -1.493090 0.295664
v -0.569202 -1.493090 0.298802
v -0.558320 -1.499818 0.305197
v -0.563119 -1.499818 0.308236
v -0.552173 -1.505798 0.315083
v -0.556811 -1.505798 0.318020
v -0.545832 -1.511003 0.325280
v -0.550304 -1.511003 0.328112
v -0.539324 -1.515413 0.335745
v -0.543626 -1.515413 0.338469
v -0.532679 -1.519006 0.346432
v -0.536807 -1.519006 0.349045
v -0.525924 -1.521769 0.357295
v -0.529874 -1.521769 0.359797
v -0.519087 -1.523690 0.368289
v -0.522859 -1.523690 0.370677
v -0.585004 -1.367222 0.207111
v -0.602394 -1.379918 0.220616
v -0.608571 -1.379918 0.224387
v -0.624442 -1.392378 0.239593
v -0.630305 -1.392378 0.243722
v -0.621704 -1.404550 0.243548
v -0.627503 -1.404550 0.247632
v -0.618520 -1.416381 0.248149
v -0.624244 -1.416381 0.252180
v -0.614902 -1.427821 0.253376
v -0.620541 -1.427821 0.257348
v -0.610866 -1.438820 0.259208
v -0.616410 -1.438820 0.263113
v -0.606429 -1.449332 0.265619
v -0.611869 -1.449332 0.269450
v -0.601610 -1.459312 0.272581
v -0.606937 -1.459312 0.276332
v -0.596430 -1.468716 0.280065
v -0.601635 -1.468716 0.283731
v -0.590912 -1.477505 0.288039
v -0.595987 -1.477505 0.291613
v -0.585078 -1.485641 0.296468
v -0.590016 -1.485641 0.299946
v -0.578953 -1.493090 0.305317
v -0.583747 -1.493090 0.308693
v -0.572565 -1.499818 0.314547
v -0.577209 -1.499818 0.317818
v -0.565939 -1.505798 0.324120
v -0.570428 -1.505798 0.327281
v -0.559106 -1.511003 0.333994
v -0.563433 -1.511003 0.337041
v -0.552093 -1.515413 0.344126
v -0.556256 -1.515413 0.347058
v -0.544931 -1.519006 0.354474
v -0.548926 -1.519006 0.357287
v -0.537651 -1.521769 0.364993
v -0.541474 -1.521769 0.367686
v -0.530283 -1.523690 0.375638
v -0.533933 -1.523690 0.378209
v -0.620736 -1.379918 0.232231
v -0.626720 -1.379918 0.236301
v -0.641826 -1.392378 0.252266
v -0.647479 -1.392378 0.256679
v -0.638897 -1.404550 0.256082
v -0.644489 -1.404550 0.260446
v -0.635491 -1.416381 0.260522
v -0.641011 -1.416381 0.264829
v -0.631621 -1.427821 0.265565
v -0.637058 -1.427821 0.269809
v -0.627303 -1.438820 0.271192
v -0.632650 -1.438820 0.275364
v -0.622557 -1.449332 0.277377
v -0.627803 -1.449332 0.281471
v -0.617403 -1.459312 0.284094
v -0.622539 -1.459312 0.288103
v -0.611862 -1.468716 0.291315
v -0.616881 -1.468716 0.295232
v -0.605959 -1.477505 0.299009
v -0.610853 -1.477505 0.302828
v -0.599718 -1.485641 0.307142
v -0.604480 -1.485641 0.310858
v -0.593167 -1.493090 0.315679
v -0.597790 -1.493090 0.319287
v -0.586333 -1.499818 0.324585
v -0.590811 -1.499818 0.328080
v -0.579246 -1.505798 0.333821
v -0.583574 -1.505798 0.337199
v -0.571936 -1.511003 0.343348
v -0.576109 -1.511003 0.346604
v -0.564435 -1.515413 0.353124
v -0.568449 -1.515413 0.356256
v -0.556774 -1.519006 0.363108
v -0.560625 -1.519006 0.366114
v -0.548986 -1.521769 0.373257
v -0.552673 -1.521769 0.376134
v -0.541105 -1.523690 0.383528
v -0.544625 -1.523690 0.386274
v -0.638485 -1.379918 0.244731
v -0.644263 -1.379918 0.249090
v -0.658567 -1.392378 0.265778
v -0.663997 -1.392378 0.270462
v -0.655455 -1.404550 0.269445
v -0.660826 -1.404550 0.274078
v -0.651835 -1.416381 0.273712
v -0.657136 -1.416381 0.278285
v -0.647722 -1.427821 0.278560
v -0.652944 -1.427821 0.283065
v -0.643133 -1.438820 0.283968
v -0.648268 -1.438820 0.288397
v -0.638089 -1.449332 0.289913
v -0.643128 -1.449332 0.294259
v -0.632612 -1.459312 0.296369
v -0.637545 -1.459312 0.300625
v -0.626723 -1.468716 0.303309
v -0.631544 -1.468716 0.307468
v -0.620450 -1.477505 0.310704
v -0.625150 -1.477505 0.314759
v -0.613817 -1.485641 0.318521
v -0.618391 -1.485641 0.322466
v -0.606855 -1.493090 0.326727
v -0.611295 -1.493090 0.330557
v -0.599593 -1.499818 0.335287
v -0.603894 -1.499818 0.338997
v -0.592061 -1.505798 0.344164
v -0.596218 -1.505798 0.347749
v -0.584292 -1.511003 0.353320
v -0.588300 -1.511003 0.356777
v -0.576320 -1.515413 0.362716
v -0.580176 -1.515413 0.366042
v -0.568179 -1.519006 0.372312
v -0.571878 -1.519006 0.375504
v -0.559902 -1.521769 0.382067
v -0.563443 -1.521769 0.385122
v -0.551527 -1.523690 0.391939
v -0.554907 -1.523690 0.394855
v -0.655600 -1.379918 0.258088
v -0.661157 -1.379918 0.262725
v -0.674625 -1.392378 0.280094
v -0.679819 -1.392378 0.285039
v -0.671337 -1.404550 0.283605
v -0.676474 -1.404550 0.288496
v -0.667511 -1.416381 0.287689
v -0.672582 -1.416381 0.292517
v -0.663165 -1.427821 0.292329
v -0.668161 -1.427821 0.297085
v -0.658317 -1.438820 0.297505
v -0.663229 -1.438820 0.302181
v -0.652988 -1.449332 0.303195
v -0.657807 -1.449332 0.307783
v -0.647200 -1.459312 0.309375
v -0.651918 -1.459312 0.313868
v -0.640978 -1.468716 0.316018
v -0.645589 -1.468716 0.320408
v -0.634349 -1.477505 0.323096
v -0.638845 -1.477505 0.327376
v -0.627341 -1.485641 0.330578
v -0.631716 -1.485641 0.334743
v -0.619985 -1.493090 0.338433
v -0.624232 -1.493090 0.342476
v -0.612311 -1.499818 0.346626
v -0.616425 -1.499818 0.350542
v -0.604353 -1.505798 0.355123
v -0.608329 -1.505798 0.358908
v -0.596144 -1.511003 0.363887
v -0.599978 -1.511003 0.367537
v -0.587721 -1.515413 0.372880
v -0.591408 -1.515413 0.376391
v -0.579118 -1.519006 0.382065
v -0.582656 -1.519006 0.385434
v -0.570373 -1.521769 0.391402
v -0.573760 -1.521769 0.394627
v -0.561523 -1.523690 0.400851
v -0.564757 -1.523690 0.403930
v -0.677361 -1.379918 0.277172
v -0.689961 -1.392378 0.295181
v -0.694906 -1.392378 0.300375
v -0.686504 -1.404550 0.298526
v -0.691395 -1.404550 0.303663
v -0.682483 -1.416381 0.302418
v -0.687311 -1.416381 0.307489
v -0.677915 -1.427821 0.306839
v -0.682671 -1.427821 0.311835
v -0.672819 -1.438820 0.311771
v -0.677495 -1.438820 0.316683
v -0.667217 -1.449332 0.317193
v -0.671805 -1.449332 0.322012
v -0.661132 -1.459312 0.323082
v -0.665625 -1.459312 0.327800
v -0.654592 -1.468716 0.329411
v -0.658982 -1.468716 0.334022
v -0.647624 -1.477505 0.336155
v -0.651904 -1.477505 0.340651
v -0.640257 -1.485641 0.343284
v -0.644422 -1.485641 0.347659
v -0.632524 -1.493090 0.350768
v -0.636567 -1.493090 0.355015
v -0.624458 -1.499818 0.358575
v -0.628374 -1.499818 0.362689
v -0.616092 -1.505798 0.366671
v -0.619877 -1.505798 0.370647
v -0.607463 -1.511003 0.375022
v -0.611113 -1.511003 0.378856
v -0.598609 -1.515413 0.383592
v -0.602120 -1.515413 0.387279
v -0.589566 -1.519006 0.392344
v -0.592935 -1.519006 0.395882
v -0.580373 -1.521769 0.401240
v -0.583598 -1.521769 0.404627
v -0.571070 -1.523690 0.410243
v -0.574149 -1.523690 0.413477
v -0.704538 -1.392378 0.311003
v -0.709222 -1.392378 0.316433
v -0.700922 -1.404550 0.314174
v -0.705555 -1.404550 0.319545
v -0.696715 -1.416381 0.317864
v -0.701288 -1.416381 0.323165
v -0.691935 -1.427821 0.322056
v -0.696440 -1.427821 0.327278
v -0.686603 -1.438820 0.326732
v -0.691032 -1.438820 0.331867
v -0.680741 -1.449332 0.331872
v -0.685087 -1.449332 0.336911
v -0.674375 -1.459312 0.337455
v -0.678631 -1.459312 0.342388
v -0.667532 -1.468716 0.343456
v -0.671691 -1.468716 0.348277
v -0.660241 -1.477505 0.349850
v -0.664296 -1.477505 0.354550
v -0.652534 -1.485641 0.356609
v -0.656479 -1.485641 0.361183
v -0.644443 -1.493090 0.363705
v -0.648273 -1.493090 0.368145
v -0.636003 -1.499818 0.371106
v -0.639713 -1.499818 0.375407
v -0.627251 -1.505798 0.378782
v -0.630836 -1.505798 0.382939
v -0.618223 -1.511003 0.386700
v -0.621680 -1.511003 0.390708
v -0.608958 -1.515413 0.394824
v -0.612284 -1.515413 0.398680
v -0.599496 -1.519006 0.403122
v -0.602688 -1.519006 0.406821
v -0.589878 -1.521769 0.411557
v -0.592933 -1.521769 0.415098
v -0.580145 -1.523690 0.420093
v -0.583061 -1.523690 0.423473
v -0.718321 -1.392378 0.327521
v -0.722734 -1.392378 0.333174
v -0.714554 -1.404550 0.330511
v -0.718918 -1.404550 0.336103
v -0.710171 -1.416381 0.333989
v -0.714478 -1.416381 0.339509
v -0.705191 -1.427821 0.337942
v -0.709435 -1.427821 0.343379
v -0.699636 -1.438820 0.342350
v -0.703808 -1.438820 0.347697
v -0.693529 -1.449332 0.347197
v -0.697623 -1.449332 0.352443
v -0.686897 -1.459312 0.352461
v -0.690906 -1.459312 0.357597
v -0.679768 -1.468716 0.358119
v -0.683685 -1.468716 0.363138
v -0.672172 -1.477505 0.364147
v -0.675991 -1.477505 0.369041
v -0.664142 -1.485641 0.370520
v -0.667858 -1.485641 0.375282
v -0.655713 -1.493090 0.377210
v -0.659321 -1.493090 0.381833
v -0.646920 -1.499818 0.384189
v -0.650415 -1.499818 0.388667
v -0.637801 -1.505798 0.391426
v -0.641179 -1.505798 0.395754
v -0.628396 -1.511003 0.398891
v -0.631652 -1.511003 0.403064
v -0.618744 -1.515413 0.406551
v -0.621876 -1.515413 0.410565
v -0.611892 -1.519006 0.418226
v -0.601743 -1.521769 0.426014
v -0.591472 -1.523690 0.433895
v -0.731278 -1.392378 0.344695
v -0.735407 -1.392378 0.350558
v -0.727368 -1.404550 0.347497
v -0.731452 -1.404550 0.353296
v -0.722820 -1.416381 0.350756
v -0.726851 -1.416381 0.356480
v -0.717652 -1.427821 0.354459
v -0.721624 -1.427821 0.360098
v -0.711887 -1.438820 0.358590
v -0.715792 -1.438820 0.364134
v -0.705550 -1.449332 0.363131
v -0.709381 -1.449332 0.368571
v -0.698668 -1.459312 0.368063
v -0.702419 -1.459312 0.373390
v -0.691269 -1.468716 0.373365
v -0.694935 -1.468716 0.378570
v -0.683387 -1.477505 0.379013
v -0.686961 -1.477505 0.384088
v -0.678532 -1.485641 0.389922
v -0.669683 -1.493090 0.396047
v -0.660453 -1.499818 0.402435
v -0.650880 -1.505798 0.409061
v -0.641006 -1.511003 0.415894
v -0.630874 -1.515413 0.422907
v -0.747213 -1.392378 0.368543
v -0.743128 -1.404550 0.371083
v -0.738376 -1.416381 0.374038
v -0.732978 -1.427821 0.377395
v -0.726955 -1.438820 0.381140
v -0.720334 -1.449332 0.385257
v -0.713144 -1.459312 0.389729
v -0.705415 -1.468716 0.394535
v -0.697180 -1.477505 0.399656
f 1 3 2
f 3 5 4
f 5 7 6
f 7 9 8
f 9 11 10
f 11 13 12
f 13 15 14
f 15 17 16
f 18 20 19
f 21 23 22
f 24 660 659
f 659 660 26
f 24 25 660
f 27 665 1013
f 664 1013 1012
f 1013 1012 27
f 665 1015 1016
f 1016 1015 29
f 665 664 1015
f 28 1013 1014
f 1014 1013 665
f 28 27 1013
f 30 673 1019
f 672 1019 1018
f 1019 1018 30
f 673 1021 1022
f 1022 1021 32
f 673 672 1021
f 31 1019 1020
f 1020 1019 673
f 31 30 1019
f 33 683 1027
f 682 1027 1026
f 1027 1026 33
f 683 1029 1030
f 1030 1029 35
f 683 682 1029
f 34 1027 1028
f 1028 1027 683
f 34 33 1027
f 36 697 1039
f 696 1039 1038
f 1039 1038 36
f 697 1041 1042
f 1042 1041 38
f 697 696 1041
f 37 1039 1040
f 1040 1039 697
f 37 36 1039
f 39 715 1055
f 714 1055 1054
f 1055 1054 39
f 715 1057 1058
f 1058 1057 41
f 715 714 1057
f 40 1055 1056
f 1056 1055 715
f 40 39 1055
f 42 733 1071
f 732 1071 1070
f 1071 1070 42
f 733 1073 1074
f 1074 1073 44
f 733 732 1073
f 43 1071 1072
f 1072 1071 733
f 43 42 1071
f 45 751 1087
f 750 1087 1086
f 1087 1086 45
f 751 1089 1090
f 1090 1089 47
f 751 750 1089
f 46 1087 1088
f 1088 1087 751
f 46 45 1087
f 48 769 1103
f 768 1103 1102
f 1103 1102 48
f 769 1105 1106
f 1106 1105 50
f 769 768 1105
f 49 1103 1104
f 1104 1103 769
f 49 48 1103
f 51 787 1119
f 786 1119 1118
f 1119 1118 51
f 787 1121 1122
f 1122 1121 53
f 787 786 1121
f 52 1119 1120
f 1120 1119 787
f 52 51 1119
f 54 805 1135
f 804 1135 1134
f 1135 1134 54
f 805 1137 1138
f 1138 1137 56
f 805 804 1137
f 55 1135 1136
f 1136 1135 805
f 55 54 1135
f 57 823 1151
f 822 1151 1150
f 1151 1150 57
f 823 1153 1154
f 1154 1153 59
f 823 822 1153
f 58 1151 1152
f 1152 1151 823
f 58 57 1151
f 60 841 1167
f 840 1167 1166
f 1167 1166 60
f 841 1169 1170
f 1170 1169 62
f 841 840 1169
f 61 1167 1168
f 1168 1167 841
f 61 60 1167
f 63 859 1183
f 858 1183 1182
f 1183 1182 63
f 859 1185 1186
f 1186 1185 65
f 859 858 1185
f 64 1183 1184
f 1184 1183 859
f 64 63 1183
f 66 877 1198
f 876 1198 1197
f 1198 1197 66
f 877 1200 1201
f 1201 1200 68
f 877 876 1200
f 67 1198 1199
f 1199 1198 877
f 67 66 1198
f 69 894 1213
f 893 1213 1212
f 1213 1212 69
f 894 1215 1216
f 1216 1215 71
f 894 893 1215
f 70 1213 1214
f 1214 1213 894
f 70 69 1213
f 72 911 1228
f 910 1228 1227
f 1228 1227 72
f 911 1230 1231
f 1231 1230 74
f 911 910 1230
f 73 1228 1229
f 1229 1228 911
f 73 72 1228
f 75 928 1243
f 927 1243 1242
f 1243 1242 75
f 928 1245 1246
f 1246 1245 77
f 928 927 1245
f 76 1243 1244
f 1244 1243 928
f 76 75 1243
f 78 945 1258
f 944 1258 1257
f 1258 1257 78
f 945 1260 1261
f 1261 1260 80
f 945 944 1260
f 79 1258 1259
f 1259 1258 945
f 79 78 1258
f 81 962 1272
f 961 1272 1271
f 1272 1271 81
f 962 1274 1275
f 1275 1274 83
f 962 961 1274
f 82 1272 1273
f 1273 1272 962
f 82 81 1272
f 84 979 1286
f 978 1286 1285
f 1286 1285 84
f 979 1288 1289
f 1289 1288 86
f 979 978 1288
f 85 1286 1287
f 1287 1286 979
f 85 84 1286
f 87 996 1300
f 995 1300 1299
f 1300 1299 87
f 996 1302 1303
f 1303 1302 89
f 996 995 1302
f 88 1300 1301
f 1301 1300 996
f 88 87 1300
f 1 5 3
f 5 9 7
f 9 13 11
f 13 17 15
f 90 20 18
f 91 23 92
f 92 23 21
f 93 659 661
f 661 659 26
f 93 24 659
f 666 664 1313
f 1313 664 94
f 664 1017 1015
f 1015 1017 29
f 664 666 1017
f 27 94 1012
f 1012 94 664
f 95 672 1314
f 674 1314 1315
f 1314 1315 95
f 672 1023 1021
f 1021 1023 32
f 672 674 1023
f 30 1314 1018
f 1018 1314 672
f 30 95 1314
f 96 682 1316
f 684 1316 1317
f 1316 1317 96
f 682 1031 1029
f 1029 1031 35
f 682 684 1031
f 33 1316 1026
f 1026 1316 682
f 33 96 1316
f 97 696 1318
f 698 1318 1319
f 1318 1319 97
f 696 1043 1041
f 1041 1043 38
f 696 698 1043
f 36 1318 1038
f 1038 1318 696
f 36 97 1318
f 98 714 1320
f 716 1320 1321
f 1320 1321 98
f 714 1059 1057
f 1057 1059 41
f 714 716 1059
f 39 1320 1054
f 1054 1320 714
f 39 98 1320
f 99 732 1322
f 734 1322 1323
f 1322 1323 99
f 732 1075 1073
f 1073 1075 44
f 732 734 1075
f 42 1322 1070
f 1070 1322 732
f 42 99 1322
f 100 750 1324
f 752 1324 1325
f 1324 1325 100
f 750 1091 1089
f 1089 1091 47
f 750 752 1091
f 45 1324 1086
f 1086 1324 750
f 45 100 1324
f 101 768 1326
f 770 1326 1327
f 1326 1327 101
f 768 1107 1105
f 1105 1107 50
f 768 770 1107
f 48 1326 1102
f 1102 1326 768
f 48 101 1326
f 102 786 1328
f 788 1328 1329
f 1328 1329 102
f 786 1123 1121
f 1121 1123 53
f 786 788 1123
f 51 1328 1118
f 1118 1328 786
f 51 102 1328
f 103 804 1330
f 806 1330 1331
f 1330 1331 103
f 804 1139 1137
f 1137 1139 56
f 804 806 1139
f 54 1330 1134
f 1134 1330 804
f 54 103 1330
f 104 822 1332
f 824 1332 1333
f 1332 1333 104
f 822 1155 1153
f 1153 1155 59
f 822 824 1155
f 57 1332 1150
f 1150 1332 822
f 57 104 1332
f 105 840 1334
f 842 1334 1335
f 1334 1335 105
f 840 1171 1169
f 1169 1171 62
f 840 842 1171
f 60 1334 1166
f 1166 1334 840
f 60 105 1334
f 106 858 1336
f 860 1336 1337
f 1336 1337 106
f 858 1187 1185
f 1185 1187 65
f 858 860 1187
f 63 1336 1182
f 1182 1336 858
f 63 106 1336
f 107 876 1338
f 878 1338 1339
f 1338 1339 107
f 876 1202 1200
f 1200 1202 68
f 876 878 1202
f 66 1338 1197
f 1197 1338 876
f 66 107 1338
f 108 893 1340
f 895 1340 1341
f 1340 1341 108
f 893 1217 1215
f 1215 1217 71
f 893 895 1217
f 69 1340 1212
f 1212 1340 893
f 69 108 1340
f 109 910 1342
f 912 1342 1343
f 1342 1343 109
f 910 1232 1230
f 1230 1232 74
f 910 912 1232
f 72 1342 1227
f 1227 1342 910
f 72 109 1342
f 110 927 1344
f 929 1344 1345
f 1344 1345 110
f 927 1247 1245
f 1245 1247 77
f 927 929 1247
f 75 1344 1242
f 1242 1344 927
f 75 110 1344
f 111 944 1346
f 946 1346 1347
f 1346 1347 111
f 944 1262 1260
f 1260 1262 80
f 944 946 1262
f 78 1346 1257
f 1257 1346 944
f 78 111 1346
f 112 961 1348
f 963 1348 1349
f 1348 1349 112
f 961 1276 1274
f 1274 1276 83
f 961 963 1276
f 81 1348 1271
f 1271 1348 961
f 81 112 1348
f 113 978 1350
f 980 1350 1351
f 1350 1351 113
f 978 1290 1288
f 1288 1290 86
f 978 980 1290
f 84 1350 1285
f 1285 1350 978
f 84 113 1350
f 114 995 1352
f 997 1352 1353
f 1352 1353 114
f 995 1304 1302
f 1302 1304 89
f 995 997 1304
f 87 1352 1299
f 1299 1352 995
f 87 114 1352
f 115 5 1
f 5 13 9
f 13 116 17
f 117 20 90
f 118 23 91
f 119 661 662
f 662 661 26
f 119 93 661
f 120 666 667
f 666 667 1017
f 1017 667 29
f 94 120 1313
f 1313 120 666
f 121 674 1354
f 675 1354 1355
f 1354 1355 121
f 674 1024 1023
f 1023 1024 32
f 674 675 1024
f 95 1354 1315
f 1315 1354 674
f 95 121 1354
f 122 684 1356
f 685 1356 1357
f 1356 1357 122
f 684 1032 1031
f 1031 1032 35
f 684 685 1032
f 96 1356 1317
f 1317 1356 684
f 96 122 1356
f 123 698 1358
f 699 1358 1359
f 1358 1359 123
f 698 1044 1043
f 1043 1044 38
f 698 699 1044
f 97 1358 1319
f 1319 1358 698
f 97 123 1358
f 124 716 1360
f 717 1360 1361
f 1360 1361 124
f 716 1060 1059
f 1059 1060 41
f 716 717 1060
f 98 1360 1321
f 1321 1360 716
f 98 124 1360
f 125 734 1362
f 735 1362 1363
f 1362 1363 125
f 734 1076 1075
f 1075 1076 44
f 734 735 1076
f 99 1362 1323
f 1323 1362 734
f 99 125 1362
f 126 752 1364
f 753 1364 1365
f 1364 1365 126
f 752 1092 1091
f 1091 1092 47
f 752 753 1092
f 100 1364 1325
f 1325 1364 752
f 100 126 1364
f 127 770 1366
f 771 1366 1367
f 1366 1367 127
f 770 1108 1107
f 1107 1108 50
f 770 771 1108
f 101 1366 1327
f 1327 1366 770
f 101 127 1366
f 128 788 1368
f 789 1368 1369
f 1368 1369 128
f 788 1124 1123
f 1123 1124 53
f 788 789 1124
f 102 1368 1329
f 1329 1368 788
f 102 128 1368
f 129 806 1370
f 807 1370 1371
f 1370 1371 129
f 806 1140 1139
f 1139 1140 56
f 806 807 1140
f 103 1370 1331
f 1331 1370 806
f 103 129 1370
f 130 824 1372
f 825 1372 1373
f 1372 1373 130
f 824 1156 1155
f 1155 1156 59
f 824 825 1156
f 104 1372 1333
f 1333 1372 824
f 104 130 1372
f 131 842 1374
f 843 1374 1375
f 1374 1375 131
f 842 1172 1171
f 1171 1172 62
f 842 843 1172
f 105 1374 1335
f 1335 1374 842
f 105 131 1374
f 132 860 1376
f 861 1376 1377
f 1376 1377 132
f 860 1188 1187
f 1187 1188 65
f 860 861 1188
f 106 1376 1337
f 1337 1376 860
f 106 132 1376
f 133 878 1378
f 879 1378 1379
f 1378 1379 133
f 878 1203 1202
f 1202 1203 68
f 878 879 1203
f 107 1378 1339
f 1339 1378 878
f 107 133 1378
f 134 895 1380
f 896 1380 1381
f 1380 1381 134
f 895 1218 1217
f 1217 1218 71
f 895 896 1218
f 108 1380 1341
f 1341 1380 895
f 108 134 1380
f 135 912 1382
f 913 1382 1383
f 1382 1383 135
f 912 1233 1232
f 1232 1233 74
f 912 913 1233
f 109 1382 1343
f 1343 1382 912
f 109 135 1382
f 136 929 1384
f 930 1384 1385
f 1384 1385 136
f 929 1248 1247
f 1247 1248 77
f 929 930 1248
f 110 1384 1345
f 1345 1384 929
f 110 136 1384
f 137 946 1386
f 947 1386 1387
f 1386 1387 137
f 946 1263 1262
f 1262 1263 80
f 946 947 1263
f 111 1386 1347
f 1347 1386 946
f 111 137 1386
f 138 963 1388
f 964 1388 1389
f 1388 1389 138
f 963 1277 1276
f 1276 1277 83
f 963 964 1277
f 112 1388 1349
f 1349 1388 963
f 112 138 1388
f 139 980 1390
f 981 1390 1391
f 1390 1391 139
f 980 1291 1290
f 1290 1291 86
f 980 981 1291
f 113 1390 1351
f 1351 1390 980
f 113 139 1390
f 140 997 1392
f 998 1392 1393
f 1392 1393 140
f 997 1305 1304
f 1304 1305 89
f 997 998 1305
f 114 1392 1353
f 1353 1392 997
f 114 140 1392
f 115 13 5
f 13 141 116
f 142 20 117
f 118 143 23
f 144 146 145
f 147 662 663
f 663 662 26
f 147 119 662
f 148 667 668
f 668 667 29
f 148 120 667
f 676 675 1394
f 1394 675 149
f 675 1025 1024
f 1024 1025 32
f 675 676 1025
f 121 149 1355
f 1355 149 675
f 150 685 1395
f 686 1395 1396
f 1395 1396 150
f 685 1033 1032
f 1032 1033 35
f 685 686 1033
f 122 1395 1357
f 1357 1395 685
f 122 150 1395
f 151 699 1397
f 700 1397 1398
f 1397 1398 151
f 699 1045 1044
f 1044 1045 38
f 699 700 1045
f 123 1397 1359
f 1359 1397 699
f 123 151 1397
f 152 717 1399
f 718 1399 1400
f 1399 1400 152
f 717 1061 1060
f 1060 1061 41
f 717 718 1061
f 124 1399 1361
f 1361 1399 717
f 124 152 1399
f 153 735 1401
f 736 1401 1402
f 1401 1402 153
f 735 1077 1076
f 1076 1077 44
f 735 736 1077
f 125 1401 1363
f 1363 1401 735
f 125 153 1401
f 154 753 1403
f 754 1403 1404
f 1403 1404 154
f 753 1093 1092
f 1092 1093 47
f 753 754 1093
f 126 1403 1365
f 1365 1403 753
f 126 154 1403
f 155 771 1405
f 772 1405 1406
f 1405 1406 155
f 771 1109 1108
f 1108 1109 50
f 771 772 1109
f 127 1405 1367
f 1367 1405 771
f 127 155 1405
f 156 789 1407
f 790 1407 1408
f 1407 1408 156
f 789 1125 1124
f 1124 1125 53
f 789 790 1125
f 128 1407 1369
f 1369 1407 789
f 128 156 1407
f 157 807 1409
f 808 1409 1410
f 1409 1410 157
f 807 1141 1140
f 1140 1141 56
f 807 808 1141
f 129 1409 1371
f 1371 1409 807
f 129 157 1409
f 158 825 1411
f 826 1411 1412
f 1411 1412 158
f 825 1157 1156
f 1156 1157 59
f 825 826 1157
f 130 1411 1373
f 1373 1411 825
f 130 158 1411
f 159 843 1413
f 844 1413 1414
f 1413 1414 159
f 843 1173 1172
f 1172 1173 62
f 843 844 1173
f 131 1413 1375
f 1375 1413 843
f 131 159 1413
f 160 861 1415
f 862 1415 1416
f 1415 1416 160
f 861 1189 1188
f 1188 1189 65
f 861 862 1189
f 132 1415 1377
f 1377 1415 861
f 132 160 1415
f 161 879 1417
f 880 1417 1418
f 1417 1418 161
f 879 1204 1203
f 1203 1204 68
f 879 880 1204
f 133 1417 1379
f 1379 1417 879
f 133 161 1417
f 162 896 1419
f 897 1419 1420
f 1419 1420 162
f 896 1219 1218
f 1218 1219 71
f 896 897 1219
f 134 1419 1381
f 1381 1419 896
f 134 162 1419
f 163 913 1421
f 914 1421 1422
f 1421 1422 163
f 913 1234 1233
f 1233 1234 74
f 913 914 1234
f 135 1421 1383
f 1383 1421 913
f 135 163 1421
f 164 930 1423
f 931 1423 1424
f 1423 1424 164
f 930 1249 1248
f 1248 1249 77
f 930 931 1249
f 136 1423 1385
f 1385 1423 930
f 136 164 1423
f 165 947 1425
f 948 1425 1426
f 1425 1426 165
f 947 1264 1263
f 1263 1264 80
f 947 948 1264
f 137 1425 1387
f 1387 1425 947
f 137 165 1425
f 166 964 1427
f 965 1427 1428
f 1427 1428 166
f 964 1278 1277
f 1277 1278 83
f 964 965 1278
f 138 1427 1389
f 1389 1427 964
f 138 166 1427
f 167 981 1429
f 982 1429 1430
f 1429 1430 167
f 981 1292 1291
f 1291 1292 86
f 981 982 1292
f 139 1429 1391
f 1391 1429 981
f 139 167 1429
f 168 998 1431
f 999 1431 1432
f 1431 1432 168
f 998 1306 1305
f 1305 1306 89
f 998 999 1306
f 140 1431 1393
f 1393 1431 998
f 140 168 1431
f 169 13 115
f 13 170 141
f 171 20 142
f 26 172 663
f 663 172 147
f 173 668 669
f 669 668 29
f 173 148 668
f 174 676 677
f 676 677 1025
f 1025 677 32
f 149 174 1394
f 1394 174 676
f 175 686 1433
f 687 1433 1434
f 1433 1434 175
f 686 1034 1033
f 1033 1034 35
f 686 687 1034
f 150 1433 1396
f 1396 1433 686
f 150 175 1433
f 176 700 1435
f 701 1435 1436
f 1435 1436 176
f 700 1046 1045
f 1045 1046 38
f 700 701 1046
f 151 1435 1398
f 1398 1435 700
f 151 176 1435
f 177 718 1437
f 719 1437 1438
f 1437 1438 177
f 718 1062 1061
f 1061 1062 41
f 718 719 1062
f 152 1437 1400
f 1400 1437 718
f 152 177 1437
f 178 736 1439
f 737 1439 1440
f 1439 1440 178
f 736 1078 1077
f 1077 1078 44
f 736 737 1078
f 153 1439 1402
f 1402 1439 736
f 153 178 1439
f 179 754 1441
f 755 1441 1442
f 1441 1442 179
f 754 1094 1093
f 1093 1094 47
f 754 755 1094
f 154 1441 1404
f 1404 1441 754
f 154 179 1441
f 180 772 1443
f 773 1443 1444
f 1443 1444 180
f 772 1110 1109
f 1109 1110 50
f 772 773 1110
f 155 1443 1406
f 1406 1443 772
f 155 180 1443
f 181 790 1445
f 791 1445 1446
f 1445 1446 181
f 790 1126 1125
f 1125 1126 53
f 790 791 1126
f 156 1445 1408
f 1408 1445 790
f 156 181 1445
f 182 808 1447
f 809 1447 1448
f 1447 1448 182
f 808 1142 1141
f 1141 1142 56
f 808 809 1142
f 157 1447 1410
f 1410 1447 808
f 157 182 1447
f 183 826 1449
f 827 1449 1450
f 1449 1450 183
f 826 1158 1157
f 1157 1158 59
f 826 827 1158
f 158 1449 1412
f 1412 1449 826
f 158 183 1449
f 184 844 1451
f 845 1451 1452
f 1451 1452 184
f 844 1174 1173
f 1173 1174 62
f 844 845 1174
f 159 1451 1414
f 1414 1451 844
f 159 184 1451
f 185 862 1453
f 863 1453 1454
f 1453 1454 185
f 862 1190 1189
f 1189 1190 65
f 862 863 1190
f 160 1453 1416
f 1416 1453 862
f 160 185 1453
f 186 880 1455
f 881 1455 1456
f 1455 1456 186
f 880 1205 1204
f 1204 1205 68
f 880 881 1205
f 161 1455 1418
f 1418 1455 880
f 161 186 1455
f 187 897 1457
f 898 1457 1458
f 1457 1458 187
f 897 1220 1219
f 1219 1220 71
f 897 898 1220
f 162 1457 1420
f 1420 1457 897
f 162 187 1457
f 188 914 1459
f 915 1459 1460
f 1459 1460 188
f 914 1235 1234
f 1234 1235 74
f 914 915 1235
f 163 1459 1422
f 1422 1459 914
f 163 188 1459
f 189 931 1461
f 932 1461 1462
f 1461 1462 189
f 931 1250 1249
f 1249 1250 77
f 931 932 1250
f 164 1461 1424
f 1424 1461 931
f 164 189 1461
f 190 948 1463
f 949 1463 1464
f 1463 1464 190
f 948 1265 1264
f 1264 1265 80
f 948 949 1265
f 165 1463 1426
f 1426 1463 948
f 165 190 1463
f 191 965 1465
f 966 1465 1466
f 1465 1466 191
f 965 1279 1278
f 1278 1279 83
f 965 966 1279
f 166 1465 1428
f 1428 1465 965
f 166 191 1465
f 192 982 1467
f 983 1467 1468
f 1467 1468 192
f 982 1293 1292
f 1292 1293 86
f 982 983 1293
f 167 1467 1430
f 1430 1467 982
f 167 192 1467
f 193 999 1469
f 1000 1469 1470
f 1469 1470 193
f 999 1307 1306
f 1306 1307 89
f 999 1000 1307
f 168 1469 1432
f 1432 1469 999
f 168 193 1469
f 194 13 169
f 13 195 170
f 196 20 171
f 146 26 172
f 197 669 670
f 670 669 29
f 197 173 669
f 198 677 678
f 678 677 32
f 198 174 677
f 199 687 1471
f 688 1471 1472
f 1471 1472 199
f 687 1035 1034
f 1034 1035 35
f 687 688 1035
f 175 1471 1434
f 1434 1471 687
f 175 199 1471
f 200 701 1473
f 702 1473 1474
f 1473 1474 200
f 701 1047 1046
f 1046 1047 38
f 701 702 1047
f 176 1473 1436
f 1436 1473 701
f 176 200 1473
f 201 719 1475
f 720 1475 1476
f 1475 1476 201
f 719 1063 1062
f 1062 1063 41
f 719 720 1063
f 177 1475 1438
f 1438 1475 719
f 177 201 1475
f 202 737 1477
f 738 1477 1478
f 1477 1478 202
f 737 1079 1078
f 1078 1079 44
f 737 738 1079
f 178 1477 1440
f 1440 1477 737
f 178 202 1477
f 203 755 1479
f 756 1479 1480
f 1479 1480 203
f 755 1095 1094
f 1094 1095 47
f 755 756 1095
f 179 1479 1442
f 1442 1479 755
f 179 203 1479
f 204 773 1481
f 774 1481 1482
f 1481 1482 204
f 773 1111 1110
f 1110 1111 50
f 773 774 1111
f 180 1481 1444
f 1444 1481 773
f 180 204 1481
f 205 791 1483
f 792 1483 1484
f 1483 1484 205
f 791 1127 1126
f 1126 1127 53
f 791 792 1127
f 181 1483 1446
f 1446 1483 791
f 181 205 1483
f 206 809 1485
f 810 1485 1486
f 1485 1486 206
f 809 1143 1142
f 1142 1143 56
f 809 810 1143
f 182 1485 1448
f 1448 1485 809
f 182 206 1485
f 207 827 1487
f 828 1487 1488
f 1487 1488 207
f 827 1159 1158
f 1158 1159 59
f 827 828 1159
f 183 1487 1450
f 1450 1487 827
f 183 207 1487
f 208 845 1489
f 846 1489 1490
f 1489 1490 208
f 845 1175 1174
f 1174 1175 62
f 845 846 1175
f 184 1489 1452
f 1452 1489 845
f 184 208 1489
f 209 863 1491
f 864 1491 1492
f 1491 1492 209
f 863 1191 1190
f 1190 1191 65
f 863 864 1191
f 185 1491 1454
f 1454 1491 863
f 185 209 1491
f 210 881 1493
f 882 1493 1494
f 1493 1494 210
f 881 1206 1205
f 1205 1206 68
f 881 882 1206
f 186 1493 1456
f 1456 1493 881
f 186 210 1493
f 211 898 1495
f 899 1495 1496
f 1495 1496 211
f 898 1221 1220
f 1220 1221 71
f 898 899 1221
f 187 1495 1458
f 1458 1495 898
f 187 211 1495
f 212 915 1497
f 916 1497 1498
f 1497 1498 212
f 915 1236 1235
f 1235 1236 74
f 915 916 1236
f 188 1497 1460
f 1460 1497 915
f 188 212 1497
f 213 932 1499
f 933 1499 1500
f 1499 1500 213
f 932 1251 1250
f 1250 1251 77
f 932 933 1251
f 189 1499 1462
f 1462 1499 932
f 189 213 1499
f 214 949 1501
f 950 1501 1502
f 1501 1502 214
f 949 1266 1265
f 1265 1266 80
f 949 950 1266
f 190 1501 1464
f 1464 1501 949
f 190 214 1501
f 215 966 1503
f 967 1503 1504
f 1503 1504 215
f 966 1280 1279
f 1279 1280 83
f 966 967 1280
f 191 1503 1466
f 1466 1503 966
f 191 215 1503
f 216 983 1505
f 984 1505 1506
f 1505 1506 216
f 983 1294 1293
f 1293 1294 86
f 983 984 1294
f 192 1505 1468
f 1468 1505 983
f 192 216 1505
f 217 1000 1507
f 1001 1507 1508
f 1507 1508 217
f 1000 1308 1307
f 1307 1308 89
f 1000 1001 1308
f 193 1507 1470
f 1470 1507 1000
f 193 217 1507
f 218 13 194
f 13 219 195
f 220 20 196
f 144 26 146
f 221 670 671
f 671 670 29
f 221 197 670
f 222 678 679
f 679 678 32
f 222 198 678
f 223 688 1509
f 689 1509 1510
f 1509 1510 223
f 688 1036 1035
f 1035 1036 35
f 688 689 1036
f 199 1509 1472
f 1472 1509 688
f 199 223 1509
f 224 702 1511
f 703 1511 1512
f 1511 1512 224
f 702 1048 1047
f 1047 1048 38
f 702 703 1048
f 200 1511 1474
f 1474 1511 702
f 200 224 1511
f 225 720 1513
f 721 1513 1514
f 1513 1514 225
f 720 1064 1063
f 1063 1064 41
f 720 721 1064
f 201 1513 1476
f 1476 1513 720
f 201 225 1513
f 226 738 1515
f 739 1515 1516
f 1515 1516 226
f 738 1080 1079
f 1079 1080 44
f 738 739 1080
f 202 1515 1478
f 1478 1515 738
f 202 226 1515
f 227 756 1517
f 757 1517 1518
f 1517 1518 227
f 756 1096 1095
f 1095 1096 47
f 756 757 1096
f 203 1517 1480
f 1480 1517 756
f 203 227 1517
f 228 774 1519
f 775 1519 1520
f 1519 1520 228
f 774 1112 1111
f 1111 1112 50
f 774 775 1112
f 204 1519 1482
f 1482 1519 774
f 204 228 1519
f 229 792 1521
f 793 1521 1522
f 1521 1522 229
f 792 1128 1127
f 1127 1128 53
f 792 793 1128
f 205 1521 1484
f 1484 1521 792
f 205 229 1521
f 230 810 1523
f 811 1523 1524
f 1523 1524 230
f 810 1144 1143
f 1143 1144 56
f 810 811 1144
f 206 1523 1486
f 1486 1523 810
f 206 230 1523
f 231 828 1525
f 829 1525 1526
f 1525 1526 231
f 828 1160 1159
f 1159 1160 59
f 828 829 1160
f 207 1525 1488
f 1488 1525 828
f 207 231 1525
f 232 846 1527
f 847 1527 1528
f 1527 1528 232
f 846 1176 1175
f 1175 1176 62
f 846 847 1176
f 208 1527 1490
f 1490 1527 846
f 208 232 1527
f 233 864 1529
f 865 1529 1530
f 1529 1530 233
f 864 1192 1191
f 1191 1192 65
f 864 865 1192
f 209 1529 1492
f 1492 1529 864
f 209 233 1529
f 234 882 1531
f 883 1531 1532
f 1531 1532 234
f 882 1207 1206
f 1206 1207 68
f 882 883 1207
f 210 1531 1494
f 1494 1531 882
f 210 234 1531
f 235 899 1533
f 900 1533 1534
f 1533 1534 235
f 899 1222 1221
f 1221 1222 71
f 899 900 1222
f 211 1533 1496
f 1496 1533 899
f 211 235 1533
f 236 916 1535
f 917 1535 1536
f 1535 1536 236
f 916 1237 1236
f 1236 1237 74
f 916 917 1237
f 212 1535 1498
f 1498 1535 916
f 212 236 1535
f 237 933 1537
f 934 1537 1538
f 1537 1538 237
f 933 1252 1251
f 1251 1252 77
f 933 934 1252
f 213 1537 1500
f 1500 1537 933
f 213 237 1537
f 238 950 1539
f 951 1539 1540
f 1539 1540 238
f 950 1267 1266
f 1266 1267 80
f 950 951 1267
f 214 1539 1502
f 1502 1539 950
f 214 238 1539
f 239 967 1541
f 968 1541 1542
f 1541 1542 239
f 967 1281 1280
f 1280 1281 83
f 967 968 1281
f 215 1541 1504
f 1504 1541 967
f 215 239 1541
f 240 984 1543
f 985 1543 1544
f 1543 1544 240
f 984 1295 1294
f 1294 1295 86
f 984 985 1295
f 216 1543 1506
f 1506 1543 984
f 216 240 1543
f 241 1001 1545
f 1002 1545 1546
f 1545 1546 241
f 1001 1309 1308
f 1308 1309 89
f 1001 1002 1309
f 217 1545 1508
f 1508 1545 1001
f 217 241 1545
f 242 13 218
f 13 243 219
f 244 20 220
f 29 245 671
f 671 245 221
f 246 679 680
f 680 679 32
f 246 222 679
f 690 689 1547
f 1547 689 247
f 689 1037 1036
f 1036 1037 35
f 689 690 1037
f 223 247 1510
f 1510 247 689
f 248 703 1548
f 704 1548 1549
f 1548 1549 248
f 703 1049 1048
f 1048 1049 38
f 703 704 1049
f 224 1548 1512
f 1512 1548 703
f 224 248 1548
f 249 721 1550
f 722 1550 1551
f 1550 1551 249
f 721 1065 1064
f 1064 1065 41
f 721 722 1065
f 225 1550 1514
f 1514 1550 721
f 225 249 1550
f 250 739 1552
f 740 1552 1553
f 1552 1553 250
f 739 1081 1080
f 1080 1081 44
f 739 740 1081
f 226 1552 1516
f 1516 1552 739
f 226 250 1552
f 251 757 1554
f 758 1554 1555
f 1554 1555 251
f 757 1097 1096
f 1096 1097 47
f 757 758 1097
f 227 1554 1518
f 1518 1554 757
f 227 251 1554
f 252 775 1556
f 776 1556 1557
f 1556 1557 252
f 775 1113 1112
f 1112 1113 50
f 775 776 1113
f 228 1556 1520
f 1520 1556 775
f 228 252 1556
f 253 793 1558
f 794 1558 1559
f 1558 1559 253
f 793 1129 1128
f 1128 1129 53
f 793 794 1129
f 229 1558 1522
f 1522 1558 793
f 229 253 1558
f 254 811 1560
f 812 1560 1561
f 1560 1561 254
f 811 1145 1144
f 1144 1145 56
f 811 812 1145
f 230 1560 1524
f 1524 1560 811
f 230 254 1560
f 255 829 1562
f 830 1562 1563
f 1562 1563 255
f 829 1161 1160
f 1160 1161 59
f 829 830 1161
f 231 1562 1526
f 1526 1562 829
f 231 255 1562
f 256 847 1564
f 848 1564 1565
f 1564 1565 256
f 847 1177 1176
f 1176 1177 62
f 847 848 1177
f 232 1564 1528
f 1528 1564 847
f 232 256 1564
f 257 865 1566
f 866 1566 1567
f 1566 1567 257
f 865 1193 1192
f 1192 1193 65
f 865 866 1193
f 233 1566 1530
f 1530 1566 865
f 233 257 1566
f 258 883 1568
f 884 1568 1569
f 1568 1569 258
f 883 1208 1207
f 1207 1208 68
f 883 884 1208
f 234 1568 1532
f 1532 1568 883
f 234 258 1568
f 259 900 1570
f 901 1570 1571
f 1570 1571 259
f 900 1223 1222
f 1222 1223 71
f 900 901 1223
f 235 1570 1534
f 1534 1570 900
f 235 259 1570
f 260 917 1572
f 918 1572 1573
f 1572 1573 260
f 917 1238 1237
f 1237 1238 74
f 917 918 1238
f 236 1572 1536
f 1536 1572 917
f 236 260 1572
f 261 934 1574
f 935 1574 1575
f 1574 1575 261
f 934 1253 1252
f 1252 1253 77
f 934 935 1253
f 237 1574 1538
f 1538 1574 934
f 237 261 1574
f 262 951 1576
f 952 1576 1577
f 1576 1577 262
f 951 1268 1267
f 1267 1268 80
f 951 952 1268
f 238 1576 1540
f 1540 1576 951
f 238 262 1576
f 263 968 1578
f 969 1578 1579
f 1578 1579 263
f 968 1282 1281
f 1281 1282 83
f 968 969 1282
f 239 1578 1542
f 1542 1578 968
f 239 263 1578
f 264 985 1580
f 986 1580 1581
f 1580 1581 264
f 985 1296 1295
f 1295 1296 86
f 985 986 1296
f 240 1580 1544
f 1544 1580 985
f 240 264 1580
f 265 1002 1582
f 1003 1582 1583
f 1582 1583 265
f 1002 1310 1309
f 1309 1310 89
f 1002 1003 1310
f 241 1582 1546
f 1546 1582 1002
f 241 265 1582
f 242 243 13
f 266 20 244
f 20 268 267
f 267 268 269
f 269 268 270
f 270 268 271
f 271 268 272
f 272 268 273
f 273 268 274
f 274 268 275
f 275 268 276
f 276 268 277
f 277 268 278
f 278 268 279
f 279 268 280
f 280 268 281
f 281 268 282
f 282 268 283
f 283 268 284
f 284 268 285
f 285 268 286
f 286 268 287
f 287 268 288
f 288 268 289
f 289 268 290
f 290 268 291
f 291 268 292
f 292 268 293
f 293 268 294
f 294 268 295
f 295 268 296
f 296 268 297
f 26 29 245
f 298 680 681
f 681 680 32
f 298 246 680
f 299 690 691
f 690 691 1037
f 1037 691 35
f 247 299 1547
f 1547 299 690
f 300 704 1584
f 705 1584 1585
f 1584 1585 300
f 704 1050 1049
f 1049 1050 38
f 704 705 1050
f 248 1584 1549
f 1549 1584 704
f 248 300 1584
f 301 722 1586
f 723 1586 1587
f 1586 1587 301
f 722 1066 1065
f 1065 1066 41
f 722 723 1066
f 249 1586 1551
f 1551 1586 722
f 249 301 1586
f 302 740 1588
f 741 1588 1589
f 1588 1589 302
f 740 1082 1081
f 1081 1082 44
f 740 741 1082
f 250 1588 1553
f 1553 1588 740
f 250 302 1588
f 303 758 1590
f 759 1590 1591
f 1590 1591 303
f 758 1098 1097
f 1097 1098 47
f 758 759 1098
f 251 1590 1555
f 1555 1590 758
f 251 303 1590
f 304 776 1592
f 777 1592 1593
f 1592 1593 304
f 776 1114 1113
f 1113 1114 50
f 776 777 1114
f 252 1592 1557
f 1557 1592 776
f 252 304 1592
f 305 794 1594
f 795 1594 1595
f 1594 1595 305
f 794 1130 1129
f 1129 1130 53
f 794 795 1130
f 253 1594 1559
f 1559 1594 794
f 253 305 1594
f 306 812 1596
f 813 1596 1597
f 1596 1597 306
f 812 1146 1145
f 1145 1146 56
f 812 813 1146
f 254 1596 1561
f 1561 1596 812
f 254 306 1596
f 307 830 1598
f 831 1598 1599
f 1598 1599 307
f 830 1162 1161
f 1161 1162 59
f 830 831 1162
f 255 1598 1563
f 1563 1598 830
f 255 307 1598
f 308 848 1600
f 849 1600 1601
f 1600 1601 308
f 848 1178 1177
f 1177 1178 62
f 848 849 1178
f 256 1600 1565
f 1565 1600 848
f 256 308 1600
f 309 866 1602
f 867 1602 1603
f 1602 1603 309
f 866 1194 1193
f 1193 1194 65
f 866 867 1194
f 257 1602 1567
f 1567 1602 866
f 257 309 1602
f 310 884 1604
f 885 1604 1605
f 1604 1605 310
f 884 1209 1208
f 1208 1209 68
f 884 885 1209
f 258 1604 1569
f 1569 1604 884
f 258 310 1604
f 311 901 1606
f 902 1606 1607
f 1606 1607 311
f 901 1224 1223
f 1223 1224 71
f 901 902 1224
f 259 1606 1571
f 1571 1606 901
f 259 311 1606
f 312 918 1608
f 919 1608 1609
f 1608 1609 312
f 918 1239 1238
f 1238 1239 74
f 918 919 1239
f 260 1608 1573
f 1573 1608 918
f 260 312 1608
f 313 935 1610
f 936 1610 1611
f 1610 1611 313
f 935 1254 1253
f 1253 1254 77
f 935 936 1254
f 261 1610 1575
f 1575 1610 935
f 261 313 1610
f 314 952 1612
f 953 1612 1613
f 1612 1613 314
f 952 1269 1268
f 1268 1269 80
f 952 953 1269
f 262 1612 1577
f 1577 1612 952
f 262 314 1612
f 315 969 1614
f 970 1614 1615
f 1614 1615 315
f 969 1283 1282
f 1282 1283 83
f 969 970 1283
f 263 1614 1579
f 1579 1614 969
f 263 315 1614
f 316 986 1616
f 987 1616 1617
f 1616 1617 316
f 986 1297 1296
f 1296 1297 86
f 986 987 1297
f 264 1616 1581
f 1581 1616 986
f 264 316 1616
f 317 1003 1618
f 1004 1618 1619
f 1618 1619 317
f 1003 1311 1310
f 1310 1311 89
f 1003 1004 1311
f 265 1618 1583
f 1583 1618 1003
f 265 317 1618
f 318 243 242
f 319 20 266
f 32 320 681
f 681 320 298
f 321 691 692
f 692 691 35
f 321 299 691
f 322 705 1620
f 706 1620 1621
f 1620 1621 322
f 705 1051 1050
f 1050 1051 38
f 705 706 1051
f 300 1620 1585
f 1585 1620 705
f 300 322 1620
f 323 723 1622
f 724 1622 1623
f 1622 1623 323
f 723 1067 1066
f 1066 1067 41
f 723 724 1067
f 301 1622 1587
f 1587 1622 723
f 301 323 1622
f 324 741 1624
f 742 1624 1625
f 1624 1625 324
f 741 1083 1082
f 1082 1083 44
f 741 742 1083
f 302 1624 1589
f 1589 1624 741
f 302 324 1624
f 325 759 1626
f 760 1626 1627
f 1626 1627 325
f 759 1099 1098
f 1098 1099 47
f 759 760 1099
f 303 1626 1591
f 1591 1626 759
f 303 325 1626
f 326 777 1628
f 778 1628 1629
f 1628 1629 326
f 777 1115 1114
f 1114 1115 50
f 777 778 1115
f 304 1628 1593
f 1593 1628 777
f 304 326 1628
f 327 795 1630
f 796 1630 1631
f 1630 1631 327
f 795 1131 1130
f 1130 1131 53
f 795 796 1131
f 305 1630 1595
f 1595 1630 795
f 305 327 1630
f 328 813 1632
f 814 1632 1633
f 1632 1633 328
f 813 1147 1146
f 1146 1147 56
f 813 814 1147
f 306 1632 1597
f 1597 1632 813
f 306 328 1632
f 329 831 1634
f 832 1634 1635
f 1634 1635 329
f 831 1163 1162
f 1162 1163 59
f 831 832 1163
f 307 1634 1599
f 1599 1634 831
f 307 329 1634
f 330 849 1636
f 850 1636 1637
f 1636 1637 330
f 849 1179 1178
f 1178 1179 62
f 849 850 1179
f 308 1636 1601
f 1601 1636 849
f 308 330 1636
f 331 867 1638
f 868 1638 1639
f 1638 1639 331
f 867 1195 1194
f 1194 1195 65
f 867 868 1195
f 309 1638 1603
f 1603 1638 867
f 309 331 1638
f 332 885 1640
f 886 1640 1641
f 1640 1641 332
f 885 1210 1209
f 1209 1210 68
f 885 886 1210
f 310 1640 1605
f 1605 1640 885
f 310 332 1640
f 333 902 1642
f 903 1642 1643
f 1642 1643 333
f 902 1225 1224
f 1224 1225 71
f 902 903 1225
f 311 1642 1607
f 1607 1642 902
f 311 333 1642
f 334 919 1644
f 920 1644 1645
f 1644 1645 334
f 919 1240 1239
f 1239 1240 74
f 919 920 1240
f 312 1644 1609
f 1609 1644 919
f 312 334 1644
f 335 936 1646
f 937 1646 1647
f 1646 1647 335
f 936 1255 1254
f 1254 1255 77
f 936 937 1255
f 313 1646 1611
f 1611 1646 936
f 313 335 1646
f 336 953 1648
f 954 1648 1649
f 1648 1649 336
f 953 1270 1269
f 1269 1270 80
f 953 954 1270
f 314 1648 1613
f 1613 1648 953
f 314 336 1648
f 971 970 1650
f 1650 970 337
f 970 1284 1283
f 1283 1284 83
f 970 971 1284
f 315 337 1615
f 1615 337 970
f 988 987 1651
f 1651 987 338
f 987 1298 1297
f 1297 1298 86
f 987 988 1298
f 316 338 1617
f 1617 338 987
f 1005 1004 1652
f 1652 1004 339
f 1004 1312 1311
f 1311 1312 89
f 1004 1005 1312
f 317 339 1619
f 1619 339 1004
f 340 243 318
f 341 20 319
f 342 32 320
f 343 692 693
f 693 692 35
f 343 321 692
f 344 706 1653
f 707 1653 1654
f 1653 1654 344
f 706 1052 1051
f 1051 1052 38
f 706 707 1052
f 322 1653 1621
f 1621 1653 706
f 322 344 1653
f 345 724 1655
f 725 1655 1656
f 1655 1656 345
f 724 1068 1067
f 1067 1068 41
f 724 725 1068
f 323 1655 1623
f 1623 1655 724
f 323 345 1655
f 346 742 1657
f 743 1657 1658
f 1657 1658 346
f 742 1084 1083
f 1083 1084 44
f 742 743 1084
f 324 1657 1625
f 1625 1657 742
f 324 346 1657
f 347 760 1659
f 761 1659 1660
f 1659 1660 347
f 760 1100 1099
f 1099 1100 47
f 760 761 1100
f 325 1659 1627
f 1627 1659 760
f 325 347 1659
f 348 778 1661
f 779 1661 1662
f 1661 1662 348
f 778 1116 1115
f 1115 1116 50
f 778 779 1116
f 326 1661 1629
f 1629 1661 778
f 326 348 1661
f 349 796 1663
f 797 1663 1664
f 1663 1664 349
f 796 1132 1131
f 1131 1132 53
f 796 797 1132
f 327 1663 1631
f 1631 1663 796
f 327 349 1663
f 350 814 1665
f 815 1665 1666
f 1665 1666 350
f 814 1148 1147
f 1147 1148 56
f 814 815 1148
f 328 1665 1633
f 1633 1665 814
f 328 350 1665
f 351 832 1667
f 833 1667 1668
f 1667 1668 351
f 832 1164 1163
f 1163 1164 59
f 832 833 1164
f 329 1667 1635
f 1635 1667 832
f 329 351 1667
f 352 850 1669
f 851 1669 1670
f 1669 1670 352
f 850 1180 1179
f 1179 1180 62
f 850 851 1180
f 330 1669 1637
f 1637 1669 850
f 330 352 1669
f 869 868 1671
f 1671 868 353
f 868 1196 1195
f 1195 1196 65
f 868 869 1196
f 331 353 1639
f 1639 353 868
f 887 886 1672
f 1672 886 354
f 886 1211 1210
f 1210 1211 68
f 886 887 1211
f 332 354 1641
f 1641 354 886
f 904 903 1673
f 1673 903 355
f 903 1226 1225
f 1225 1226 71
f 903 904 1226
f 333 355 1643
f 1643 355 903
f 921 920 1674
f 1674 920 356
f 920 1241 1240
f 1240 1241 74
f 920 921 1241
f 334 356 1645
f 1645 356 920
f 938 937 1675
f 1675 937 357
f 937 1256 1255
f 1255 1256 77
f 937 938 1256
f 335 357 1647
f 1647 357 937
f 955 954 1676
f 1676 954 358
f 954 955 1270
f 1270 955 80
f 336 358 1649
f 1649 358 954
f 359 971 972
f 971 972 1284
f 1284 972 83
f 337 359 1650
f 1650 359 971
f 360 988 989
f 988 989 1298
f 1298 989 86
f 338 360 1651
f 1651 360 988
f 361 1005 1006
f 1005 1006 1312
f 1312 1006 89
f 339 361 1652
f 1652 361 1005
f 362 243 340
f 363 20 341
f 29 32 342
f 364 693 694
f 694 693 35
f 364 343 693
f 708 707 1677
f 1677 707 365
f 707 1053 1052
f 1052 1053 38
f 707 708 1053
f 344 365 1654
f 1654 365 707
f 726 725 1678
f 1678 725 366
f 725 1069 1068
f 1068 1069 41
f 725 726 1069
f 345 366 1656
f 1656 366 725
f 744 743 1679
f 1679 743 367
f 743 1085 1084
f 1084 1085 44
f 743 744 1085
f 346 367 1658
f 1658 367 743
f 762 761 1680
f 1680 761 368
f 761 1101 1100
f 1100 1101 47
f 761 762 1101
f 347 368 1660
f 1660 368 761
f 780 779 1681
f 1681 779 369
f 779 1117 1116
f 1116 1117 50
f 779 780 1117
f 348 369 1662
f 1662 369 779
f 798 797 1682
f 1682 797 370
f 797 1133 1132
f 1132 1133 53
f 797 798 1133
f 349 370 1664
f 1664 370 797
f 816 815 1683
f 1683 815 371
f 815 1149 1148
f 1148 1149 56
f 815 816 1149
f 350 371 1666
f 1666 371 815
f 834 833 1684
f 1684 833 372
f 833 1165 1164
f 1164 1165 59
f 833 834 1165
f 351 372 1668
f 1668 372 833
f 852 851 1685
f 1685 851 373
f 851 1181 1180
f 1180 1181 62
f 851 852 1181
f 352 373 1670
f 1670 373 851
f 374 869 870
f 869 870 1196
f 1196 870 65
f 353 374 1671
f 1671 374 869
f 375 887 888
f 887 888 1211
f 1211 888 68
f 354 375 1672
f 1672 375 887
f 376 904 905
f 904 905 1226
f 1226 905 71
f 355 376 1673
f 1673 376 904
f 377 921 922
f 921 922 1241
f 1241 922 74
f 356 377 1674
f 1674 377 921
f 378 938 939
f 938 939 1256
f 1256 939 77
f 357 378 1675
f 1675 378 938
f 379 955 956
f 956 955 80
f 358 379 1676
f 1676 379 955
f 380 972 973
f 973 972 83
f 380 359 972
f 381 989 990
f 990 989 86
f 381 360 989
f 382 1006 1007
f 1007 1006 89
f 382 361 1006
f 383 243 362
f 384 20 363
f 385 694 695
f 695 694 35
f 385 364 694
f 386 708 709
f 708 709 1053
f 1053 709 38
f 365 386 1677
f 1677 386 708
f 387 726 727
f 726 727 1069
f 1069 727 41
f 366 387 1678
f 1678 387 726
f 388 744 745
f 744 745 1085
f 1085 745 44
f 367 388 1679
f 1679 388 744
f 389 762 763
f 762 763 1101
f 1101 763 47
f 368 389 1680
f 1680 389 762
f 390 780 781
f 780 781 1117
f 1117 781 50
f 369 390 1681
f 1681 390 780
f 391 798 799
f 798 799 1133
f 1133 799 53
f 370 391 1682
f 1682 391 798
f 392 816 817
f 816 817 1149
f 1149 817 56
f 371 392 1683
f 1683 392 816
f 393 834 835
f 834 835 1165
f 1165 835 59
f 372 393 1684
f 1684 393 834
f 394 852 853
f 852 853 1181
f 1181 853 62
f 373 394 1685
f 1685 394 852
f 395 870 871
f 871 870 65
f 395 374 870
f 396 888 889
f 889 888 68
f 396 375 888
f 397 905 906
f 906 905 71
f 397 376 905
f 398 922 923
f 923 922 74
f 398 377 922
f 399 939 940
f 940 939 77
f 399 378 939
f 400 956 957
f 957 956 80
f 400 379 956
f 401 973 974
f 974 973 83
f 401 380 973
f 402 990 991
f 991 990 86
f 402 381 990
f 403 1007 1008
f 1008 1007 89
f 403 382 1007
f 404 243 383
f 405 20 384
f 35 32 695
f 695 32 385
f 406 709 710
f 710 709 38
f 406 386 709
f 407 727 728
f 728 727 41
f 407 387 727
f 408 745 746
f 746 745 44
f 408 388 745
f 409 763 764
f 764 763 47
f 409 389 763
f 410 781 782
f 782 781 50
f 410 390 781
f 411 799 800
f 800 799 53
f 411 391 799
f 412 817 818
f 818 817 56
f 412 392 817
f 413 835 836
f 836 835 59
f 413 393 835
f 414 853 854
f 854 853 62
f 414 394 853
f 415 871 872
f 872 871 65
f 415 395 871
f 416 889 890
f 890 889 68
f 416 396 889
f 417 906 907
f 907 906 71
f 417 397 906
f 418 923 924
f 924 923 74
f 418 398 923
f 419 940 941
f 941 940 77
f 419 399 940
f 420 957 958
f 958 957 80
f 420 400 957
f 421 974 975
f 975 974 83
f 421 401 974
f 422 991 992
f 992 991 86
f 422 402 991
f 423 1008 1009
f 1009 1008 89
f 423 403 1008
f 424 243 404
f 425 20 405
f 426 710 711
f 711 710 38
f 426 406 710
f 427 728 729
f 729 728 41
f 427 407 728
f 428 746 747
f 747 746 44
f 428 408 746
f 429 764 765
f 765 764 47
f 429 409 764
f 430 782 783
f 783 782 50
f 430 410 782
f 431 800 801
f 801 800 53
f 431 411 800
f 432 818 819
f 819 818 56
f 432 412 818
f 433 836 837
f 837 836 59
f 433 413 836
f 434 854 855
f 855 854 62
f 434 414 854
f 435 872 873
f 873 872 65
f 435 415 872
f 436 890 891
f 891 890 68
f 436 416 890
f 437 907 908
f 908 907 71
f 437 417 907
f 438 924 925
f 925 924 74
f 438 418 924
f 439 941 942
f 942 941 77
f 439 419 941
f 440 958 959
f 959 958 80
f 440 420 958
f 441 975 976
f 976 975 83
f 441 421 975
f 442 992 993
f 993 992 86
f 442 422 992
f 443 1009 1010
f 1010 1009 89
f 443 423 1009
f 444 243 424
f 445 20 425
f 446 711 712
f 712 711 38
f 446 426 711
f 447 729 730
f 730 729 41
f 447 427 729
f 448 747 748
f 748 747 44
f 448 428 747
f 449 765 766
f 766 765 47
f 449 429 765
f 450 783 784
f 784 783 50
f 450 430 783
f 451 801 802
f 802 801 53
f 451 431 801
f 452 819 820
f 820 819 56
f 452 432 819
f 453 837 838
f 838 837 59
f 453 433 837
f 454 855 856
f 856 855 62
f 454 434 855
f 455 873 874
f 874 873 65
f 455 435 873
f 456 891 892
f 892 891 68
f 456 436 891
f 457 908 909
f 909 908 71
f 457 437 908
f 458 925 926
f 926 925 74
f 458 438 925
f 459 942 943
f 943 942 77
f 459 439 942
f 460 959 960
f 960 959 80
f 460 440 959
f 461 976 977
f 977 976 83
f 461 441 976
f 462 993 994
f 994 993 86
f 462 442 993
f 463 1010 1011
f 1011 1010 89
f 463 443 1010
f 464 243 444
f 465 20 445
f 466 712 713
f 713 712 38
f 466 446 712
f 467 730 731
f 731 730 41
f 467 447 730
f 468 748 749
f 749 748 44
f 468 448 748
f 469 766 767
f 767 766 47
f 469 449 766
f 470 784 785
f 785 784 50
f 470 450 784
f 471 802 803
f 803 802 53
f 471 451 802
f 472 820 821
f 821 820 56
f 472 452 820
f 473 838 839
f 839 838 59
f 473 453 838
f 474 856 857
f 857 856 62
f 474 454 856
f 475 874 875
f 875 874 65
f 475 455 874
f 68 476 892
f 892 476 456
f 71 477 909
f 909 477 457
f 74 478 926
f 926 478 458
f 77 479 943
f 943 479 459
f 80 480 960
f 960 480 460
f 83 481 977
f 977 481 461
f 86 482 994
f 994 482 462
f 89 483 1011
f 1011 483 463
f 484 20 465
f 38 35 713
f 713 35 466
f 41 485 731
f 731 485 467
f 44 486 749
f 749 486 468
f 47 487 767
f 767 487 469
f 50 488 785
f 785 488 470
f 53 489 803
f 803 489 471
f 56 490 821
f 821 490 472
f 59 491 839
f 839 491 473
f 62 492 857
f 857 492 474
f 65 493 875
f 875 493 475
f 494 68 476
f 495 71 477
f 496 74 478
f 497 77 479
f 498 80 480
f 499 83 481
f 500 86 482
f 501 89 483
f 502 504 503
f 505 20 484
f 506 41 485
f 507 44 486
f 508 47 487
f 509 50 488
f 510 53 489
f 511 56 490
f 512 59 491
f 513 62 492
f 514 65 493
f 515 68 494
f 516 71 495
f 517 74 496
f 518 77 497
f 519 80 498
f 520 83 499
f 521 86 500
f 522 89 501
f 502 523 504
f 524 20 505
f 525 41 506
f 526 44 507
f 527 47 508
f 528 50 509
f 529 53 510
f 530 56 511
f 531 59 512
f 532 62 513
f 533 65 514
f 534 68 515
f 535 71 516
f 536 74 517
f 537 77 518
f 538 80 519
f 539 83 520
f 540 86 521
f 541 89 522
f 502 542 523
f 543 20 524
f 544 41 525
f 545 44 526
f 546 47 527
f 547 50 528
f 548 53 529
f 549 56 530
f 550 59 531
f 551 62 532
f 552 65 533
f 553 68 534
f 554 71 535
f 555 74 536
f 556 77 537
f 557 80 538
f 558 83 539
f 559 86 540
f 560 89 541
f 502 561 542
f 562 20 543
f 38 41 544
f 41 44 545
f 44 47 546
f 47 50 547
f 50 53 548
f 53 56 549
f 56 59 550
f 59 62 551
f 62 65 552
f 65 68 553
f 68 71 554
f 71 74 555
f 74 77 556
f 77 80 557
f 80 83 558
f 83 86 559
f 86 89 560
f 502 563 561
f 564 20 562
f 502 565 563
f 566 20 564
f 144 29 26
f 502 567 565
f 464 566 243
f 566 268 20
f 502 568 567
f 569 566 464
f 502 570 568
f 502 571 570
f 502 572 571
f 502 573 572
f 502 574 573
f 502 575 574
f 502 576 575
f 502 577 576
f 502 578 577
f 502 579 578
f 502 580 579
f 502 581 580
f 502 582 581
f 502 583 582
f 502 584 583
f 502 585 584
f 502 569 585
f 144 32 29
f 502 566 569
f 32 144 35
f 35 144 38
f 502 268 566
f 586 38 587
f 587 38 588
f 588 38 589
f 589 38 590
f 590 38 591
f 591 38 592
f 592 38 593
f 593 38 594
f 594 38 595
f 595 38 596
f 596 38 597
f 597 38 598
f 598 38 599
f 599 38 600
f 600 38 601
f 601 38 602
f 602 38 144
f 603 268 502
f 604 38 586
f 605 268 603
f 606 38 604
f 607 268 605
f 608 38 606
f 609 268 607
f 610 38 608
f 611 268 609
f 612 38 610
f 613 268 611
f 614 38 612
f 615 268 613
f 616 38 614
f 617 268 615
f 618 38 616
f 619 268 617
f 620 38 618
f 621 268 619
f 622 38 620
f 623 268 621
f 143 38 622
f 624 268 623
f 143 41 38
f 625 268 624
f 143 44 41
f 626 268 625
f 143 47 44
f 627 268 626
f 143 50 47
f 628 268 627
f 143 53 50
f 629 268 628
f 143 56 53
f 630 268 629
f 143 59 56
f 631 268 630
f 143 62 59
f 632 268 631
f 143 65 62
f 633 268 632
f 143 68 65
f 89 268 633
f 143 71 68
f 89 634 268
f 143 74 71
f 634 89 635
f 635 89 636
f 636 89 637
f 637 89 638
f 638 89 639
f 143 77 74
f 639 89 640
f 640 89 641
f 641 89 642
f 642 89 643
f 643 89 644
f 644 89 645
f 645 89 646
f 646 89 647
f 647 89 648
f 648 89 649
f 649 89 650
f 650 89 651
f 651 89 652
f 652 89 653
f 653 89 654
f 654 89 655
f 655 89 656
f 656 89 657
f 657 89 658
f 658 89 118
f 143 80 77
f 89 143 118
f 143 83 80
f 86 143 89
f 143 86 83
f 144 504 503
