v 0.077614 0.670523 -0.036213
v 0.077613 0.670517 -0.035778
v 0.077614 0.670521 -0.035995
v 0.077612 0.670510 -0.035562
v 0.077610 0.670499 -0.035347
v 0.077608 0.670486 -0.035132
v 0.077605 0.670469 -0.034918
v 0.077601 0.670450 -0.034705
v 0.077597 0.670427 -0.034493
v 0.077593 0.670402 -0.034282
v 0.077588 0.670374 -0.034071
v 0.077582 0.670342 -0.033860
v 0.077576 0.670308 -0.033651
v 0.077570 0.670270 -0.033442
v 0.077563 0.670230 -0.033233
v 0.077555 0.670186 -0.033026
v 0.077547 0.670140 -0.032818
v 0.077538 0.670091 -0.032611
v 0.077529 0.670038 -0.032405
v 0.077519 0.669983 -0.032199
v 0.077509 0.669924 -0.031994
v 0.077498 0.669863 -0.031789
v 0.077487 0.669799 -0.031585
v 0.077475 0.669732 -0.031381
v 0.077462 0.669662 -0.031178
v 0.077449 0.669589 -0.030977
v 0.077436 0.669513 -0.030776
v 0.077422 0.669435 -0.030576
v 0.077408 0.669353 -0.030377
v 0.077393 0.669270 -0.030180
v 0.077378 0.669183 -0.029983
v 0.077362 0.669094 -0.029788
v 0.077346 0.669002 -0.029595
v 0.077329 0.668908 -0.029403
v 0.077312 0.668811 -0.029212
v 0.077295 0.668711 -0.029023
v 0.077277 0.668609 -0.028836
v 0.077258 0.668505 -0.028650
v 0.077239 0.668398 -0.028467
v 0.077220 0.668288 -0.028285
v 0.077200 0.668176 -0.028105
v 0.077180 0.668062 -0.027927
v 0.077160 0.667945 -0.027750
v 0.077139 0.667826 -0.027575
v 0.077117 0.667704 -0.027402
v 0.077095 0.667579 -0.027231
v 0.077073 0.667452 -0.027061
v 0.077050 0.667322 -0.026893
v 0.077027 0.667190 -0.026727
v 0.077003 0.667055 -0.026562
v 0.076978 0.666917 -0.026399
v 0.076954 0.666777 -0.026237
v 0.076928 0.666634 -0.026077
v 0.076903 0.666488 -0.025919
v 0.076877 0.666340 -0.025762
v 0.076850 0.666189 -0.025607
v -0.077614 0.670523 -0.036213
v -0.077614 0.670521 -0.035995
v -0.077613 0.670517 -0.035778
v -0.077612 0.670510 -0.035562
v -0.077610 0.670499 -0.035347
v -0.077608 0.670486 -0.035132
v -0.077605 0.670469 -0.034918
v -0.077601 0.670450 -0.034705
v -0.077597 0.670427 -0.034493
v -0.077593 0.670402 -0.034282
v -0.077588 0.670374 -0.034071
v -0.077582 0.670342 -0.033860
v -0.077576 0.670308 -0.033651
v -0.077570 0.670270 -0.033442
v -0.077563 0.670230 -0.033233
v -0.077555 0.670186 -0.033026
v -0.077547 0.670140 -0.032818
v -0.077538 0.670091 -0.032611
v -0.077529 0.670038 -0.032405
v -0.077519 0.669983 -0.032199
v -0.077509 0.669924 -0.031994
v -0.077498 0.669863 -0.031789
v -0.077487 0.669799 -0.031585
v -0.077475 0.669732 -0.031381
v -0.077462 0.669662 -0.031178
v -0.077449 0.669589 -0.030977
v -0.077436 0.669513 -0.030776
v -0.077422 0.669435 -0.030576
v -0.077408 0.669353 -0.030377
v -0.077393 0.669270 -0.030180
v -0.077378 0.669183 -0.029983
v -0.077362 0.669094 -0.029788
v -0.077346 0.669002 -0.029595
v -0.077329 0.668908 -0.029403
v -0.077312 0.668811 -0.029212
v -0.077295 0.668711 -0.029023
v -0.077277 0.668609 -0.028836
v -0.077258 0.668505 -0.028650
v -0.077239 0.668398 -0.028467
v -0.077220 0.668288 -0.028285
v -0.077200 0.668176 -0.028105
v -0.077180 0.668062 -0.027927
v -0.077160 0.667945 -0.027750
v -0.077139 0.667826 -0.027575
v -0.077117 0.667704 -0.027402
v -0.077095 0.667579 -0.027231
v -0.077073 0.667452 -0.027061
v -0.077050 0.667322 -0.026893
v -0.077027 0.667190 -0.026727
v -0.077003 0.667055 -0.026562
v -0.076978 0.666917 -0.026399
v -0.076954 0.666777 -0.026237
v -0.076928 0.666634 -0.026077
v -0.076903 0.666488 -0.025919
v -0.076877 0.666340 -0.025762
v -0.076850 0.666189 -0.025607
v 0.072627 0.671081 -0.036213
v 0.071912 0.666740 -0.025607
v 0.067636 0.671603 -0.036213
v 0.066969 0.667254 -0.025607
v 0.062641 0.672087 -0.036213
v 0.062023 0.667732 -0.025607
v 0.057642 0.672534 -0.036213
v 0.057074 0.668173 -0.025607
v 0.052640 0.672944 -0.036213
v 0.052122 0.668578 -0.025607
v 0.047636 0.673317 -0.036213
v 0.047166 0.668946 -0.025607
v 0.042629 0.673653 -0.036213
v 0.042208 0.669277 -0.025607
v 0.037619 0.673951 -0.036213
v 0.037248 0.669571 -0.025607
v 0.032607 0.674212 -0.036213
v 0.032286 0.669829 -0.025607
v 0.027594 0.674436 -0.036213
v 0.027322 0.670050 -0.025607
v 0.022579 0.674622 -0.036213
v 0.022356 0.670234 -0.025607
v 0.017563 0.674771 -0.036213
v 0.017389 0.670381 -0.025607
v 0.012545 0.674883 -0.036213
v 0.012422 0.670492 -0.025607
v 0.007528 0.674958 -0.036213
v 0.007453 0.670565 -0.025607
v 0.002509 0.674995 -0.036213
v 0.002484 0.670602 -0.025607
v -0.002484 0.670602 -0.025607
v -0.002509 0.674995 -0.036213
v -0.007453 0.670565 -0.025607
v -0.007528 0.674958 -0.036213
v -0.012422 0.670492 -0.025607
v -0.012545 0.674883 -0.036213
v -0.017389 0.670381 -0.025607
v -0.017563 0.674771 -0.036213
v -0.022356 0.670234 -0.025607
v -0.022579 0.674622 -0.036213
v -0.027322 0.670050 -0.025607
v -0.027594 0.674436 -0.036213
v -0.032286 0.669829 -0.025607
v -0.032607 0.674212 -0.036213
v -0.037248 0.669571 -0.025607
v -0.037619 0.673951 -0.036213
v -0.042208 0.669277 -0.025607
v -0.042629 0.673653 -0.036213
v -0.047166 0.668946 -0.025607
v -0.047636 0.673317 -0.036213
v -0.052122 0.668578 -0.025607
v -0.052640 0.672944 -0.036213
v -0.057074 0.668173 -0.025607
v -0.057642 0.672534 -0.036213
v -0.062023 0.667732 -0.025607
v -0.062641 0.672087 -0.036213
v -0.066969 0.667254 -0.025607
v -0.067636 0.671603 -0.036213
v -0.071912 0.666740 -0.025607
v -0.072627 0.671081 -0.036213
f 1 2 3
f 1 4 2
f 1 5 4
f 1 6 5
f 1 7 6
f 1 8 7
f 1 9 8
f 1 10 9
f 1 11 10
f 1 12 11
f 1 13 12
f 1 14 13
f 1 15 14
f 1 16 15
f 1 17 16
f 1 18 17
f 1 19 18
f 1 20 19
f 1 21 20
f 1 22 21
f 1 23 22
f 1 24 23
f 1 25 24
f 1 26 25
f 1 27 26
f 1 28 27
f 1 29 28
f 1 30 29
f 1 31 30
f 1 32 31
f 1 33 32
f 1 34 33
f 1 35 34
f 1 36 35
f 1 37 36
f 1 38 37
f 1 39 38
f 1 40 39
f 1 41 40
f 1 42 41
f 1 43 42
f 1 44 43
f 1 45 44
f 1 46 45
f 1 47 46
f 1 48 47
f 1 49 48
f 1 50 49
f 1 51 50
f 1 52 51
f 1 53 52
f 1 54 53
f 1 55 54
f 1 56 55
f 57 58 59
f 57 59 60
f 57 60 61
f 57 61 62
f 57 62 63
f 57 63 64
f 57 64 65
f 57 65 66
f 57 66 67
f 57 67 68
f 57 68 69
f 57 69 70
f 57 70 71
f 57 71 72
f 57 72 73
f 57 73 74
f 57 74 75
f 57 75 76
f 57 76 77
f 57 77 78
f 57 78 79
f 57 79 80
f 57 80 81
f 57 81 82
f 57 82 83
f 57 83 84
f 57 84 85
f 57 85 86
f 57 86 87
f 57 87 88
f 57 88 89
f 57 89 90
f 57 90 91
f 57 91 92
f 57 92 93
f 57 93 94
f 57 94 95
f 57 95 96
f 57 96 97
f 57 97 98
f 57 98 99
f 57 99 100
f 57 100 101
f 57 101 102
f 57 102 103
f 57 103 104
f 57 104 105
f 57 105 106
f 57 106 107
f 57 107 108
f 57 108 109
f 57 109 110
f 57 110 111
f 57 111 112
f 1 113 56
f 113 114 56
f 113 115 114
f 115 116 114
f 115 117 116
f 117 118 116
f 117 119 118
f 119 120 118
f 119 121 120
f 121 122 120
f 121 123 122
f 123 124 122
f 123 125 124
f 125 126 124
f 125 127 126
f 127 128 126
f 127 129 128
f 129 130 128
f 129 131 130
f 131 132 130
f 131 133 132
f 133 134 132
f 133 135 134
f 135 136 134
f 135 137 136
f 137 138 136
f 137 139 138
f 139 140 138
f 139 141 140
f 141 142 140
f 141 143 142
f 141 144 143
f 144 145 143
f 144 146 145
f 146 147 145
f 146 148 147
f 148 149 147
f 148 150 149
f 150 151 149
f 150 152 151
f 152 153 151
f 152 154 153
f 154 155 153
f 154 156 155
f 156 157 155
f 156 158 157
f 158 159 157
f 158 160 159
f 160 161 159
f 160 162 161
f 162 163 161
f 162 164 163
f 164 165 163
f 164 166 165
f 166 167 165
f 166 168 167
f 168 169 167
f 168 170 169
f 170 171 169
f 170 172 171
f 172 112 171
f 172 57 112
