v 0.855000 -0.425572 -6.145635
v 0.855364 -0.332410 -6.673988
v 0.855000 -0.332409 -6.673988
v 0.855728 -0.332410 -6.673988
v 0.856092 -0.332411 -6.673988
v 0.856456 -0.332413 -6.673988
v 0.856819 -0.332415 -6.673988
v 0.857183 -0.332418 -6.673988
v 0.857547 -0.332420 -6.673987
v 0.857911 -0.332424 -6.673987
v 0.858275 -0.332428 -6.673987
v 0.858639 -0.332432 -6.673986
v 0.859003 -0.332437 -6.673986
v 0.859367 -0.332442 -6.673986
v 0.859730 -0.332448 -6.673985
v 0.860094 -0.332454 -6.673985
v 0.860458 -0.332461 -6.673984
v 0.860822 -0.332468 -6.673983
v 0.861186 -0.332475 -6.673983
v 0.861550 -0.332483 -6.673982
v 0.861913 -0.332491 -6.673981
v 0.862277 -0.332500 -6.673981
v 0.862516 -0.425657 -6.145704
v 0.862641 -0.332510 -6.673980
v 0.863005 -0.332519 -6.673979
v 0.863369 -0.332530 -6.673978
v 0.863732 -0.332540 -6.673977
v 0.864096 -0.332551 -6.673976
v 0.864460 -0.332563 -6.673975
v 0.864823 -0.332575 -6.673974
v 0.865187 -0.332588 -6.673973
v 0.865551 -0.332601 -6.673972
v 0.865915 -0.332614 -6.673971
v 0.866278 -0.332628 -6.673970
v 0.866642 -0.332642 -6.673969
v 0.867005 -0.332657 -6.673967
v 0.867369 -0.332672 -6.673966
v 0.867733 -0.332688 -6.673965
v 0.868096 -0.332704 -6.673963
v 0.868460 -0.332721 -6.673962
v 0.868823 -0.332738 -6.673961
v 0.869187 -0.332755 -6.673959
v 0.869550 -0.332773 -6.673958
v 0.869914 -0.332792 -6.673956
v 0.870055 -0.425910 -6.145911
v 0.870277 -0.332811 -6.673954
v 0.870641 -0.332830 -6.673953
v 0.871004 -0.332850 -6.673951
v 0.871367 -0.332870 -6.673949
v 0.871731 -0.332891 -6.673948
v 0.872094 -0.332912 -6.673946
v 0.872458 -0.332933 -6.673944
v 0.872821 -0.332955 -6.673942
v 0.873184 -0.332978 -6.673940
v 0.873547 -0.333001 -6.673938
v 0.873911 -0.333024 -6.673936
v 0.874274 -0.333048 -6.673934
v 0.874637 -0.333072 -6.673932
v 0.875000 -0.333097 -6.673930
v 0.877610 -0.426333 -6.146256
v 0.882581 -0.333722 -6.673857
v 0.885176 -0.426927 -6.146741
v 0.890175 -0.334555 -6.673726
v 0.892746 -0.427692 -6.147366
v 0.897779 -0.335599 -6.673537
v 0.900315 -0.428631 -6.148133
v 0.905388 -0.336856 -6.673289
v 0.907878 -0.429743 -6.149040
v 0.912997 -0.338328 -6.672981
v 0.915427 -0.431030 -6.150091
v 0.920601 -0.340017 -6.672614
v 0.922958 -0.432492 -6.151285
v 0.928195 -0.341926 -6.672188
v 0.930467 -0.434132 -6.152623
v 0.935776 -0.344058 -6.671700
v 0.937951 -0.435950 -6.154107
v 0.943337 -0.346414 -6.671152
v 0.945408 -0.437948 -6.155737
v 0.950874 -0.348997 -6.670543
v 0.952833 -0.440127 -6.157516
v 0.958380 -0.351805 -6.669874
v 0.960225 -0.442488 -6.159443
v 0.965845 -0.354837 -6.669146
v 0.967579 -0.445033 -6.161520
v 0.973260 -0.358091 -6.668359
v 0.974892 -0.447763 -6.163748
v 0.980616 -0.361564 -6.667516
v 0.982162 -0.450679 -6.166129
v 0.987905 -0.365254 -6.666617
v 0.989381 -0.453783 -6.168663
v 0.995118 -0.369161 -6.665664
v 0.996544 -0.457076 -6.171351
v 1.002245 -0.373280 -6.664658
v 1.003645 -0.460559 -6.174194
v 1.009278 -0.377612 -6.663599
v 1.010679 -0.464234 -6.177193
v 1.016208 -0.382152 -6.662489
v 1.017639 -0.468101 -6.180350
v 1.023028 -0.386900 -6.661330
v 1.024520 -0.472162 -6.183665
v 1.029733 -0.391851 -6.660124
v 1.031316 -0.476419 -6.187140
v 1.036318 -0.397002 -6.658871
v 1.038021 -0.480871 -6.190774
v 1.042778 -0.402349 -6.657575
v 1.044625 -0.485518 -6.194567
v 1.049107 -0.407890 -6.656237
v 1.051122 -0.490360 -6.198520
v 1.055301 -0.413621 -6.654859
v 1.057504 -0.495396 -6.202630
v 1.061354 -0.419539 -6.653442
v 1.063761 -0.500625 -6.206899
v 1.067261 -0.425641 -6.651989
v 1.069887 -0.506047 -6.211324
v 1.073017 -0.431923 -6.650502
v 1.075873 -0.511662 -6.215907
v 1.078617 -0.438380 -6.648982
v 1.081711 -0.517468 -6.220646
v 1.084055 -0.445008 -6.647432
v 1.087392 -0.523464 -6.225539
v 1.089327 -0.451799 -6.645854
v 1.092907 -0.529645 -6.230584
v 1.094427 -0.458749 -6.644252
v 1.098247 -0.536008 -6.235777
v 1.099350 -0.465851 -6.642628
v 1.103401 -0.542550 -6.241116
v 1.104092 -0.473100 -6.640983
v 1.108361 -0.549265 -6.246597
v 1.108646 -0.480490 -6.639321
v 1.113009 -0.488014 -6.637645
v 1.113117 -0.556151 -6.252217
v 1.117174 -0.495668 -6.635956
v 1.117659 -0.563204 -6.257974
v 1.121138 -0.503446 -6.634257
v 1.121978 -0.570420 -6.263864
v 1.124898 -0.511341 -6.632550
v 1.126065 -0.577790 -6.269880
v 1.128450 -0.519349 -6.630838
v 1.129914 -0.585304 -6.276014
v 1.131792 -0.527463 -6.629123
v 1.133515 -0.592952 -6.282257
v 1.134921 -0.535677 -6.627406
v 1.136861 -0.600724 -6.288602
v 1.137835 -0.543987 -6.625691
v 1.139944 -0.608608 -6.295038
v 1.140529 -0.552386 -6.623979
v 1.142757 -0.616596 -6.301559
v 1.143003 -0.560869 -6.622273
v 1.145252 -0.569430 -6.620575
v 1.145291 -0.624676 -6.308154
v 1.147273 -0.578064 -6.618886
v 1.147540 -0.632839 -6.314817
v 1.149066 -0.586763 -6.617210
v 1.149498 -0.641079 -6.321542
v 1.150627 -0.595524 -6.615547
v 1.151164 -0.649390 -6.328326
v 1.151953 -0.604339 -6.613899
v 1.152534 -0.657770 -6.335165
v 1.153044 -0.613204 -6.612268
v 1.153605 -0.666213 -6.342056
v 1.153896 -0.622111 -6.610656
v 1.154375 -0.674714 -6.348994
v 1.154508 -0.631056 -6.609065
v 1.154841 -0.683269 -6.355977
v 1.154877 -0.640032 -6.607496
v 1.155000 -0.649034 -6.605951
v 1.155000 -0.691873 -6.363000
f 1 2 3
f 1 4 2
f 1 5 4
f 1 6 5
f 1 7 6
f 1 8 7
f 1 9 8
f 1 10 9
f 1 11 10
f 1 12 11
f 1 13 12
f 1 14 13
f 1 15 14
f 1 16 15
f 1 17 16
f 1 18 17
f 1 19 18
f 1 20 19
f 1 21 20
f 1 22 21
f 1 23 22
f 23 24 22
f 23 25 24
f 23 26 25
f 23 27 26
f 23 28 27
f 23 29 28
f 23 30 29
f 23 31 30
f 23 32 31
f 23 33 32
f 23 34 33
f 23 35 34
f 23 36 35
f 23 37 36
f 23 38 37
f 23 39 38
f 23 40 39
f 23 41 40
f 23 42 41
f 23 43 42
f 23 44 43
f 23 45 44
f 45 46 44
f 45 47 46
f 45 48 47
f 45 49 48
f 45 50 49
f 45 51 50
f 45 52 51
f 45 53 52
f 45 54 53
f 45 55 54
f 45 56 55
f 45 57 56
f 45 58 57
f 45 59 58
f 45 60 59
f 60 61 59
f 60 62 61
f 62 63 61
f 62 64 63
f 64 65 63
f 64 66 65
f 66 67 65
f 66 68 67
f 68 69 67
f 68 70 69
f 70 71 69
f 70 72 71
f 72 73 71
f 72 74 73
f 74 75 73
f 74 76 75
f 76 77 75
f 76 78 77
f 78 79 77
f 78 80 79
f 80 81 79
f 80 82 81
f 82 83 81
f 82 84 83
f 84 85 83
f 84 86 85
f 86 87 85
f 86 88 87
f 88 89 87
f 88 90 89
f 90 91 89
f 90 92 91
f 92 93 91
f 92 94 93
f 94 95 93
f 94 96 95
f 96 97 95
f 96 98 97
f 98 99 97
f 98 100 99
f 100 101 99
f 100 102 101
f 102 103 101
f 102 104 103
f 104 105 103
f 104 106 105
f 106 107 105
f 106 108 107
f 108 109 107
f 108 110 109
f 110 111 109
f 110 112 111
f 112 113 111
f 112 114 113
f 114 115 113
f 114 116 115
f 116 117 115
f 116 118 117
f 118 119 117
f 118 120 119
f 120 121 119
f 120 122 121
f 122 123 121
f 122 124 123
f 124 125 123
f 124 126 125
f 126 127 125
f 126 128 127
f 128 129 127
f 128 130 129
f 128 131 130
f 131 132 130
f 131 133 132
f 133 134 132
f 133 135 134
f 135 136 134
f 135 137 136
f 137 138 136
f 137 139 138
f 139 140 138
f 139 141 140
f 141 142 140
f 141 143 142
f 143 144 142
f 143 145 144
f 145 146 144
f 145 147 146
f 147 148 146
f 147 149 148
f 147 150 149
f 150 151 149
f 150 152 151
f 152 153 151
f 152 154 153
f 154 155 153
f 154 156 155
f 156 157 155
f 156 158 157
f 158 159 157
f 158 160 159
f 160 161 159
f 160 162 161
f 162 163 161
f 162 164 163
f 164 165 163
f 164 166 165
f 164 167 166
