v 0.368981 0.016837 -0.567417
v 0.368981 0.220000 -0.567417
v 0.382835 0.220000 -0.619117
v 0.378175 0.220000 -0.630365
v 0.378175 0.000000 -0.630365
v 0.382835 0.000000 -0.619117
v 0.367119 0.000000 -0.560467
v 0.367119 0.010000 -0.560467
v 0.368981 0.016837 -0.567417
v 0.368922 0.016611 -0.567185
v 0.368869 0.016388 -0.566954
v 0.368822 0.016168 -0.566722
v 0.368780 0.015951 -0.566490
v 0.368743 0.015736 -0.566258
v 0.368712 0.015525 -0.566026
v 0.368687 0.015317 -0.565794
v 0.368667 0.015112 -0.565563
v 0.368653 0.014911 -0.565331
v 0.368644 0.014712 -0.565100
v 0.368641 0.014517 -0.564869
v 0.368642 0.014325 -0.564639
v 0.368650 0.014137 -0.564409
v 0.368662 0.013952 -0.564180
v 0.368679 0.013770 -0.563952
v 0.368702 0.013592 -0.563724
v 0.368730 0.013418 -0.563498
v 0.368763 0.013247 -0.563272
v 0.368800 0.013080 -0.563048
v 0.368843 0.012916 -0.562824
v 0.368891 0.012757 -0.562602
v 0.368944 0.012601 -0.562381
v 0.369002 0.012450 -0.562162
v 0.369065 0.012302 -0.561944
v 0.369133 0.012159 -0.561728
v 0.369206 0.012020 -0.561514
v 0.369284 0.011885 -0.561301
v 0.369366 0.011754 -0.561090
v 0.369453 0.011628 -0.560881
v 0.369545 0.011506 -0.560675
v 0.369641 0.011388 -0.560471
v 0.369742 0.011275 -0.560269
v 0.369847 0.011166 -0.560069
v 0.369957 0.011063 -0.559872
v 0.370070 0.010963 -0.559678
v 0.370188 0.010869 -0.559487
v 0.370310 0.010779 -0.559299
v 0.370436 0.010694 -0.559114
v 0.370565 0.010614 -0.558932
v 0.370698 0.010539 -0.558753
v 0.370835 0.010469 -0.558578
v 0.370975 0.010403 -0.558407
v 0.371119 0.010343 -0.558239
v 0.371265 0.010288 -0.558075
v 0.371416 0.010237 -0.557914
v 0.371569 0.010192 -0.557758
v 0.371725 0.010151 -0.557605
v 0.371884 0.010116 -0.557456
v 0.372046 0.010085 -0.557311
v 0.372211 0.010059 -0.557169
v 0.372378 0.010038 -0.557032
v 0.372548 0.010021 -0.556899
v 0.372721 0.010009 -0.556769
v 0.372895 0.010002 -0.556644
v 0.373073 0.010000 -0.556522
f 3 4 5
f 2 3 5
f 2 5 6
f 6 7 8
f 10 11 12
f 10 12 13
f 10 13 14
f 10 14 15
f 10 15 16
f 10 16 17
f 10 17 18
f 10 18 19
f 10 19 20
f 10 20 21
f 10 21 22
f 10 22 23
f 10 23 24
f 10 24 25
f 10 25 26
f 10 26 27
f 10 27 28
f 10 28 29
f 10 29 30
f 10 30 31
f 10 31 32
f 10 32 33
f 10 33 34
f 10 34 35
f 10 35 36
f 10 36 37
f 10 37 38
f 10 38 39
f 10 39 40
f 10 40 41
f 10 41 42
f 10 42 43
f 10 43 44
f 10 44 45
f 10 45 46
f 10 46 47
f 10 47 48
f 10 48 49
f 10 49 50
f 10 50 51
f 10 51 52
f 10 52 53
f 10 53 54
f 10 54 55
f 10 55 56
f 10 56 57
f 10 57 58
f 10 58 59
f 10 59 60
f 10 60 61
f 10 61 62
f 10 62 63
f 10 63 64
f 1 2 6
f 1 6 8
f 1 8 9
f 1 9 10
f 1 10 64
