v 0.147996 0.220000 0.712717
v 0.152661 0.220000 0.659396
v 0.160232 0.220000 0.650558
v 0.160232 0.010000 0.650558
v 0.152661 0.016837 0.659396
v 0.152673 0.016713 0.659266
v 0.152684 0.016588 0.659135
v 0.152696 0.016463 0.659004
v 0.152707 0.016338 0.658873
v 0.152718 0.016214 0.658743
v 0.152730 0.016089 0.658612
v 0.152741 0.015964 0.658481
v 0.152753 0.015839 0.658351
v 0.152764 0.015715 0.658220
v 0.152776 0.015590 0.658089
v 0.152787 0.015465 0.657959
v 0.152798 0.015341 0.657828
v 0.152810 0.015216 0.657698
v 0.152821 0.015092 0.657567
v 0.152833 0.014967 0.657436
v 0.152844 0.014842 0.657306
v 0.152856 0.014718 0.657175
v 0.152867 0.014593 0.657045
v 0.152878 0.014469 0.656914
v 0.152890 0.014344 0.656784
v 0.152901 0.014220 0.656654
v 0.152913 0.014096 0.656523
v 0.152924 0.013971 0.656393
v 0.152935 0.013847 0.656262
v 0.152947 0.013722 0.656132
v 0.152958 0.013598 0.656002
v 0.152970 0.013474 0.655871
v 0.152981 0.013349 0.655741
v 0.152992 0.013225 0.655611
v 0.153004 0.013101 0.655480
v 0.153015 0.012977 0.655350
v 0.153027 0.012852 0.655220
v 0.153038 0.012728 0.655090
v 0.153049 0.012604 0.654959
v 0.153061 0.012480 0.654829
v 0.153072 0.012356 0.654699
v 0.153084 0.012231 0.654569
v 0.153095 0.012107 0.654439
v 0.153106 0.011983 0.654309
v 0.153118 0.011859 0.654179
v 0.153129 0.011735 0.654048
v 0.153141 0.011611 0.653918
v 0.153152 0.011487 0.653788
v 0.153163 0.011363 0.653658
v 0.153175 0.011239 0.653528
v 0.153186 0.011115 0.653398
v 0.153197 0.010991 0.653268
v 0.153209 0.010867 0.653138
v 0.153220 0.010743 0.653008
v 0.153232 0.010619 0.652878
v 0.153243 0.010495 0.652749
v 0.153254 0.010371 0.652619
v 0.153266 0.010248 0.652489
v 0.153277 0.010124 0.652359
v 0.153288 0.010000 0.652229
v 0.153288 0.000000 0.652229
v 0.147996 0.000000 0.712717
v 0.139771 0.000000 0.721693
v 0.139771 0.220000 0.721693
f 2 3 4
f 1 2 4
f 64 1 4
f 64 4 5
f 59 60 61
f 58 59 61
f 57 58 61
f 56 57 61
f 55 56 61
f 54 55 61
f 53 54 61
f 52 53 61
f 51 52 61
f 50 51 61
f 49 50 61
f 48 49 61
f 47 48 61
f 46 47 61
f 45 46 61
f 44 45 61
f 43 44 61
f 42 43 61
f 41 42 61
f 40 41 61
f 39 40 61
f 38 39 61
f 37 38 61
f 36 37 61
f 35 36 61
f 34 35 61
f 33 34 61
f 32 33 61
f 31 32 61
f 30 31 61
f 29 30 61
f 28 29 61
f 27 28 61
f 26 27 61
f 25 26 61
f 24 25 61
f 23 24 61
f 22 23 61
f 21 22 61
f 20 21 61
f 19 20 61
f 18 19 61
f 17 18 61
f 16 17 61
f 15 16 61
f 14 15 61
f 13 14 61
f 12 13 61
f 11 12 61
f 10 11 61
f 9 10 61
f 8 9 61
f 7 8 61
f 6 7 61
f 5 6 61
f 5 61 62
f 64 5 62
f 62 63 64
