v -2.665000 0.375000 -3.150000
v -2.664885 0.380422 -4.042251
v -2.665000 0.375000 -4.037670
v -2.664840 0.381331 -3.150000
v -2.664553 0.385657 -4.046873
v -2.664359 0.387646 -3.150000
v -2.664021 0.390710 -4.051524
v -2.663559 0.393928 -3.150000
v -2.663306 0.395585 -4.056191
v -2.662441 0.400162 -3.150000
v -2.662425 0.400288 -4.060862
v -2.661394 0.404824 -4.065525
v -2.661010 0.406332 -3.150000
v -2.660231 0.409197 -4.070167
v -2.659267 0.412420 -3.150000
v -2.658951 0.413413 -4.074779
v -2.657563 0.417476 -4.079353
v -2.657219 0.418413 -3.150000
v -2.656074 0.421392 -4.083883
v -2.654870 0.424294 -3.150000
v -2.654494 0.425165 -4.088364
v -2.652831 0.428801 -4.092791
v -2.652226 0.430049 -3.150000
v -2.651091 0.432303 -4.097156
v -2.649293 0.435663 -3.150000
v -2.649285 0.435678 -4.101455
v -2.647417 0.438931 -4.105682
v -2.646081 0.441121 -3.150000
v -2.645491 0.442066 -4.109840
v -2.643509 0.445088 -4.113926
v -2.642595 0.446409 -3.150000
v -2.641473 0.448005 -4.117942
v -2.639385 0.450819 -4.121888
v -2.638847 0.451513 -3.150000
v -2.637247 0.453538 -4.125765
v -2.635063 0.456167 -4.129572
v -2.634845 0.456422 -3.150000
v -2.632832 0.458708 -4.133308
v -2.630599 0.461121 -3.150000
v -2.630557 0.461165 -4.136973
v -2.628238 0.463539 -4.140564
v -2.626121 0.465599 -3.150000
v -2.625877 0.465831 -4.144080
v -2.623474 0.468044 -4.147519
v -2.621422 0.469845 -3.150000
v -2.621030 0.470179 -4.150879
v -2.618547 0.472239 -4.154159
v -2.616513 0.473847 -3.150000
v -2.616025 0.474223 -4.157356
v -2.613465 0.476134 -4.160470
v -2.611409 0.477595 -3.150000
v -2.610866 0.477971 -4.163499
v -2.608229 0.479737 -4.166441
v -2.606121 0.481081 -3.150000
v -2.605555 0.481431 -4.169295
v -2.602843 0.483054 -4.172059
v -2.600663 0.484293 -3.150000
v -2.600095 0.484607 -4.174732
v -2.597310 0.486091 -4.177310
v -2.595049 0.487226 -3.150000
v -2.594487 0.487504 -4.179788
v -2.591627 0.488846 -4.182161
v -2.589294 0.489870 -3.150000
v -2.588730 0.490116 -4.184423
v -2.585794 0.491313 -4.186570
v -2.583413 0.492219 -3.150000
v -2.582821 0.492438 -4.188596
v -2.579809 0.493488 -4.190496
v -2.577420 0.494267 -3.150000
v -2.576765 0.494464 -4.192267
v -2.573696 0.495363 -4.193905
v -2.571332 0.496010 -3.150000
v -2.570608 0.496185 -4.195406
v -2.567510 0.496927 -4.196767
v -2.565162 0.497441 -3.150000
v -2.564410 0.497589 -4.197985
v -2.561313 0.498169 -4.199056
v -2.558928 0.498559 -3.150000
v -2.558228 0.498666 -4.199977
v -2.555156 0.499082 -4.200749
v -2.552646 0.499359 -3.150000
v -2.552097 0.499417 -4.201376
v -2.549052 0.499675 -4.201859
v -2.546331 0.499840 -3.150000
v -2.546021 0.499857 -4.202202
v -2.543003 0.499964 -4.202406
v -2.540000 0.500000 -3.150000
v -2.540000 0.500000 -4.202474
f 1 2 3
f 1 4 2
f 4 5 2
f 4 6 5
f 6 7 5
f 6 8 7
f 8 9 7
f 8 10 9
f 10 11 9
f 10 12 11
f 10 13 12
f 13 14 12
f 13 15 14
f 15 16 14
f 15 17 16
f 15 18 17
f 18 19 17
f 18 20 19
f 20 21 19
f 20 22 21
f 20 23 22
f 23 24 22
f 23 25 24
f 25 26 24
f 25 27 26
f 25 28 27
f 28 29 27
f 28 30 29
f 28 31 30
f 31 32 30
f 31 33 32
f 31 34 33
f 34 35 33
f 34 36 35
f 34 37 36
f 37 38 36
f 37 39 38
f 39 40 38
f 39 41 40
f 39 42 41
f 42 43 41
f 42 44 43
f 42 45 44
f 45 46 44
f 45 47 46
f 45 48 47
f 48 49 47
f 48 50 49
f 48 51 50
f 51 52 50
f 51 53 52
f 51 54 53
f 54 55 53
f 54 56 55
f 54 57 56
f 57 58 56
f 57 59 58
f 57 60 59
f 60 61 59
f 60 62 61
f 60 63 62
f 63 64 62
f 63 65 64
f 63 66 65
f 66 67 65
f 66 68 67
f 66 69 68
f 69 70 68
f 69 71 70
f 69 72 71
f 72 73 71
f 72 74 73
f 72 75 74
f 75 76 74
f 75 77 76
f 75 78 77
f 78 79 77
f 78 80 79
f 78 81 80
f 81 82 80
f 81 83 82
f 81 84 83
f 84 85 83
f 84 86 85
f 84 87 86
f 87 88 86
