v 0.484527 0.220000 0.543233
v 0.461907 0.220000 0.494723
v 0.464044 0.220000 0.483284
v 0.464044 0.010000 0.483284
v 0.461907 0.016837 0.494723
v 0.461851 0.016713 0.494604
v 0.461796 0.016588 0.494485
v 0.461740 0.016463 0.494366
v 0.461685 0.016338 0.494248
v 0.461629 0.016214 0.494129
v 0.461574 0.016089 0.494010
v 0.461518 0.015964 0.493891
v 0.461463 0.015839 0.493772
v 0.461408 0.015715 0.493653
v 0.461352 0.015590 0.493534
v 0.461297 0.015465 0.493415
v 0.461241 0.015341 0.493297
v 0.461186 0.015216 0.493178
v 0.461131 0.015092 0.493059
v 0.461075 0.014967 0.492940
v 0.461020 0.014842 0.492822
v 0.460964 0.014718 0.492703
v 0.460909 0.014593 0.492584
v 0.460854 0.014469 0.492465
v 0.460798 0.014344 0.492347
v 0.460743 0.014220 0.492228
v 0.460688 0.014096 0.492109
v 0.460632 0.013971 0.491991
v 0.460577 0.013847 0.491872
v 0.460522 0.013722 0.491754
v 0.460467 0.013598 0.491635
v 0.460411 0.013474 0.491516
v 0.460356 0.013349 0.491398
v 0.460301 0.013225 0.491279
v 0.460245 0.013101 0.491161
v 0.460190 0.012977 0.491042
v 0.460135 0.012852 0.490924
v 0.460080 0.012728 0.490805
v 0.460024 0.012604 0.490687
v 0.459969 0.012480 0.490568
v 0.459914 0.012356 0.490450
v 0.459859 0.012231 0.490332
v 0.459804 0.012107 0.490213
v 0.459748 0.011983 0.490095
v 0.459693 0.011859 0.489976
v 0.459638 0.011735 0.489858
v 0.459583 0.011611 0.489740
v 0.459528 0.011487 0.489621
v 0.459472 0.011363 0.489503
v 0.459417 0.011239 0.489385
v 0.459362 0.011115 0.489266
v 0.459307 0.010991 0.489148
v 0.459252 0.010867 0.489030
v 0.459197 0.010743 0.488912
v 0.459142 0.010619 0.488794
v 0.459086 0.010495 0.488675
v 0.459031 0.010371 0.488557
v 0.458976 0.010248 0.488439
v 0.458921 0.010124 0.488321
v 0.458866 0.010000 0.488203
v 0.458866 0.000000 0.488203
v 0.484527 0.000000 0.543233
v 0.481892 0.000000 0.555119
v 0.481892 0.220000 0.555119
f 2 3 4
f 1 2 4
f 64 1 4
f 64 4 5
f 59 60 61
f 58 59 61
f 57 58 61
f 56 57 61
f 55 56 61
f 54 55 61
f 53 54 61
f 52 53 61
f 51 52 61
f 50 51 61
f 49 50 61
f 48 49 61
f 47 48 61
f 46 47 61
f 45 46 61
f 44 45 61
f 43 44 61
f 42 43 61
f 41 42 61
f 40 41 61
f 39 40 61
f 38 39 61
f 37 38 61
f 36 37 61
f 35 36 61
f 34 35 61
f 33 34 61
f 32 33 61
f 31 32 61
f 30 31 61
f 29 30 61
f 28 29 61
f 27 28 61
f 26 27 61
f 25 26 61
f 24 25 61
f 23 24 61
f 22 23 61
f 21 22 61
f 20 21 61
f 19 20 61
f 18 19 61
f 17 18 61
f 16 17 61
f 15 16 61
f 14 15 61
f 13 14 61
f 12 13 61
f 11 12 61
f 10 11 61
f 9 10 61
f 8 9 61
f 7 8 61
f 6 7 61
f 5 6 61
f 5 61 62
f 64 5 62
f 62 63 64
