v -0.629446 -0.686000 -4.319765
v 0.000000 -0.686000 -0.750000
v 0.000000 -0.686000 -0.500000
v 0.378000 -0.686000 -0.500000
v 0.378000 -0.686000 -0.750000
v 0.377696 -0.686000 -0.814655
v 0.376788 -0.686000 -0.879309
v 0.375282 -0.686000 -0.943964
v 0.373184 -0.686000 -1.008619
v 0.370502 -0.686000 -1.073274
v 0.367241 -0.686000 -1.137928
v 0.363408 -0.686000 -1.202583
v 0.359009 -0.686000 -1.267238
v 0.354050 -0.686000 -1.331893
v 0.348539 -0.686000 -1.396547
v 0.342480 -0.686000 -1.461202
v 0.335880 -0.686000 -1.525857
v 0.328747 -0.686000 -1.590512
v 0.321086 -0.686000 -1.655166
v 0.312903 -0.686000 -1.719821
v 0.304205 -0.686000 -1.784476
v 0.294999 -0.686000 -1.849131
v 0.285290 -0.686000 -1.913785
v 0.275086 -0.686000 -1.978440
v 0.264393 -0.686000 -2.043095
v 0.253220 -0.686000 -2.107750
v 0.241573 -0.686000 -2.172404
v 0.229459 -0.686000 -2.237059
v 0.216887 -0.686000 -2.301714
v 0.203862 -0.686000 -2.366369
v 0.190393 -0.686000 -2.431023
v 0.176489 -0.686000 -2.495678
v 0.162164 -0.686000 -2.560333
v 0.147433 -0.686000 -2.624988
v 0.132309 -0.686000 -2.689643
v 0.116807 -0.686000 -2.754297
v 0.100940 -0.686000 -2.818952
v 0.084724 -0.686000 -2.883607
v 0.068173 -0.686000 -2.948261
v 0.051302 -0.686000 -3.012916
v 0.034129 -0.686000 -3.077570
v 0.016671 -0.686000 -3.142225
v -0.001055 -0.686000 -3.206879
v -0.019030 -0.686000 -3.271534
v -0.037238 -0.686000 -3.336188
v -0.055662 -0.686000 -3.400843
v -0.074283 -0.686000 -3.465497
v -0.093085 -0.686000 -3.530152
v -0.112051 -0.686000 -3.594807
v -0.131163 -0.686000 -3.659461
v -0.150403 -0.686000 -3.724116
v -0.169754 -0.686000 -3.788771
v -0.189200 -0.686000 -3.853427
v -0.208722 -0.686000 -3.918082
v -0.228304 -0.686000 -3.982738
v -0.247932 -0.686000 -4.047394
v -0.267596 -0.686000 -4.112049
v -0.287287 -0.686000 -4.176705
v -0.306993 -0.686000 -4.241360
v -0.326704 -0.686000 -4.306015
v -0.332043 -0.686000 -4.306084
v -0.337388 -0.686000 -4.306165
v -0.342739 -0.686000 -4.306260
v -0.348096 -0.686000 -4.306369
v -0.353462 -0.686000 -4.306491
v -0.358836 -0.686000 -4.306627
v -0.364219 -0.686000 -4.306777
v -0.369612 -0.686000 -4.306940
v -0.375017 -0.686000 -4.307118
v -0.380432 -0.686000 -4.307310
v -0.385860 -0.686000 -4.307516
v -0.391302 -0.686000 -4.307737
v -0.396757 -0.686000 -4.307972
v -0.402226 -0.686000 -4.308221
v -0.407711 -0.686000 -4.308486
v -0.413213 -0.686000 -4.308765
v -0.418731 -0.686000 -4.309059
v -0.424267 -0.686000 -4.309367
v -0.429821 -0.686000 -4.309691
v -0.435393 -0.686000 -4.310029
v -0.440980 -0.686000 -4.310379
v -0.446581 -0.686000 -4.310741
v -0.452195 -0.686000 -4.311111
v -0.457818 -0.686000 -4.311488
v -0.463449 -0.686000 -4.311872
v -0.469086 -0.686000 -4.312260
v -0.474728 -0.686000 -4.312650
v -0.480372 -0.686000 -4.313041
v -0.486017 -0.686000 -4.313432
v -0.491661 -0.686000 -4.313820
v -0.497301 -0.686000 -4.314205
v -0.502937 -0.686000 -4.314584
v -0.508566 -0.686000 -4.314955
v -0.514186 -0.686000 -4.315318
v -0.519795 -0.686000 -4.315670
v -0.525392 -0.686000 -4.316011
v -0.530975 -0.686000 -4.316337
v -0.536542 -0.686000 -4.316649
v -0.542095 -0.686000 -4.316946
v -0.547633 -0.686000 -4.317229
v -0.553158 -0.686000 -4.317496
v -0.558670 -0.686000 -4.317750
v -0.564170 -0.686000 -4.317989
v -0.569659 -0.686000 -4.318214
v -0.575136 -0.686000 -4.318424
v -0.580603 -0.686000 -4.318620
v -0.586060 -0.686000 -4.318803
v -0.591509 -0.686000 -4.318971
v -0.596949 -0.686000 -4.319126
v -0.602381 -0.686000 -4.319266
v -0.607805 -0.686000 -4.319393
v -0.613224 -0.686000 -4.319506
v -0.618636 -0.686000 -4.319606
v -0.624043 -0.686000 -4.319692
f 1 114 113
f 1 113 112
f 1 112 111
f 1 111 110
f 1 110 109
f 1 109 108
f 1 108 107
f 1 107 106
f 1 106 105
f 1 105 104
f 1 104 103
f 1 103 102
f 1 102 101
f 1 101 100
f 1 100 99
f 1 99 98
f 1 98 97
f 1 97 96
f 1 96 95
f 1 95 94
f 1 94 93
f 1 93 92
f 1 92 91
f 1 91 90
f 1 90 89
f 1 89 88
f 1 88 87
f 1 87 86
f 1 86 85
f 1 85 84
f 1 84 83
f 1 83 82
f 1 82 81
f 1 81 80
f 1 80 79
f 1 79 78
f 1 78 77
f 1 77 76
f 1 76 75
f 1 75 74
f 1 74 73
f 1 73 72
f 1 72 71
f 1 71 70
f 1 70 69
f 1 69 68
f 1 68 67
f 1 67 66
f 1 66 65
f 1 65 64
f 1 64 63
f 1 63 62
f 1 62 61
f 1 61 60
f 1 60 59
f 1 59 58
f 1 58 57
f 1 57 56
f 1 56 55
f 1 55 54
f 1 54 53
f 1 53 52
f 1 52 51
f 1 51 50
f 1 50 49
f 1 49 48
f 1 48 47
f 1 47 46
f 1 46 45
f 1 45 44
f 1 44 43
f 1 43 42
f 1 42 41
f 1 41 40
f 1 40 39
f 1 39 38
f 1 38 37
f 1 37 36
f 1 36 35
f 1 35 34
f 1 34 33
f 1 33 32
f 1 32 31
f 1 31 30
f 1 30 29
f 1 29 28
f 1 28 27
f 1 27 26
f 1 26 25
f 1 25 24
f 1 24 23
f 1 23 22
f 1 22 21
f 1 21 20
f 1 20 19
f 1 19 18
f 1 18 17
f 1 17 16
f 1 16 15
f 1 15 14
f 1 14 13
f 1 13 12
f 1 12 11
f 1 11 10
f 1 10 9
f 1 9 8
f 1 8 7
f 1 7 2
f 2 7 6
f 2 6 5
f 2 5 3
f 3 5 4
