v 0.855000 0.375000 -6.720383
v 0.855364 0.375000 -6.720383
v 0.855000 0.474813 -6.154318
v 0.855728 0.375001 -6.720383
v 0.856092 0.375002 -6.720383
v 0.856456 0.375004 -6.720383
v 0.856820 0.375007 -6.720382
v 0.857184 0.375010 -6.720382
v 0.857548 0.375013 -6.720382
v 0.857912 0.375018 -6.720381
v 0.858276 0.375022 -6.720381
v 0.858640 0.375027 -6.720381
v 0.859004 0.375033 -6.720380
v 0.859368 0.375039 -6.720379
v 0.859732 0.375046 -6.720379
v 0.860096 0.375054 -6.720378
v 0.860460 0.375062 -6.720377
v 0.860824 0.375070 -6.720376
v 0.861187 0.375079 -6.720376
v 0.861264 0.474881 -6.154384
v 0.861551 0.375089 -6.720375
v 0.861915 0.375099 -6.720374
v 0.862279 0.375109 -6.720373
v 0.862643 0.375121 -6.720372
v 0.863007 0.375132 -6.720371
v 0.863371 0.375145 -6.720369
v 0.863734 0.375158 -6.720368
v 0.864098 0.375171 -6.720367
v 0.864462 0.375185 -6.720366
v 0.864826 0.375199 -6.720364
v 0.865189 0.375215 -6.720363
v 0.865553 0.375230 -6.720361
v 0.865917 0.375246 -6.720360
v 0.866281 0.375263 -6.720358
v 0.866644 0.375280 -6.720357
v 0.867008 0.375298 -6.720355
v 0.867371 0.375316 -6.720353
v 0.867546 0.475088 -6.154582
v 0.867735 0.375335 -6.720352
v 0.868098 0.375355 -6.720350
v 0.868462 0.375375 -6.720348
v 0.868825 0.375395 -6.720346
v 0.869189 0.375416 -6.720344
v 0.869552 0.375438 -6.720342
v 0.869916 0.375460 -6.720340
v 0.870279 0.375483 -6.720338
v 0.870643 0.375506 -6.720335
v 0.871006 0.375530 -6.720333
v 0.871369 0.375554 -6.720331
v 0.871732 0.375579 -6.720329
v 0.872096 0.375604 -6.720326
v 0.872459 0.375630 -6.720324
v 0.872822 0.375657 -6.720321
v 0.873185 0.375684 -6.720319
v 0.873548 0.375711 -6.720316
v 0.873842 0.475433 -6.154914
v 0.873911 0.375740 -6.720313
v 0.874274 0.375768 -6.720311
v 0.874637 0.375798 -6.720308
v 0.875000 0.375827 -6.720305
v 0.880147 0.475917 -6.155379
v 0.881384 0.376445 -6.720233
v 0.886456 0.476541 -6.155979
v 0.887763 0.377238 -6.720116
v 0.892764 0.477306 -6.156715
v 0.894134 0.378208 -6.719955
v 0.899066 0.478212 -6.157586
v 0.900491 0.379353 -6.719750
v 0.905357 0.479261 -6.158595
v 0.906830 0.380675 -6.719502
v 0.911632 0.480453 -6.159741
v 0.913146 0.382173 -6.719209
v 0.917890 0.481790 -6.161026
v 0.919434 0.383846 -6.718873
v 0.924127 0.483272 -6.162451
v 0.925691 0.385695 -6.718494
v 0.930341 0.484900 -6.164016
v 0.931910 0.387719 -6.718071
v 0.936529 0.486676 -6.165723
v 0.938088 0.389919 -6.717606
v 0.942688 0.488601 -6.167574
v 0.944220 0.392294 -6.717098
v 0.948816 0.490675 -6.169568
v 0.950303 0.394843 -6.716548
v 0.954911 0.492900 -6.171707
v 0.956332 0.397566 -6.715957
v 0.960968 0.495277 -6.173993
v 0.962305 0.400462 -6.715326
v 0.966984 0.497807 -6.176425
v 0.968217 0.403531 -6.714654
v 0.972953 0.500491 -6.179005
v 0.974065 0.406773 -6.713942
v 0.978871 0.503330 -6.181735
v 0.979844 0.410185 -6.713192
v 0.984732 0.506325 -6.184614
v 0.985550 0.413769 -6.712403
v 0.990532 0.509478 -6.187645
v 0.991181 0.417523 -6.711577
v 0.996267 0.512788 -6.190828
v 0.996732 0.421445 -6.710713
v 1.001930 0.516257 -6.194163
v 1.002197 0.425535 -6.709814
v 1.007517 0.519886 -6.197652
v 1.007571 0.429789 -6.708880
v 1.012851 0.434206 -6.707913
v 1.013021 0.523674 -6.201294
v 1.018030 0.438783 -6.706913
v 1.018435 0.527621 -6.205088
v 1.023105 0.443518 -6.705882
v 1.023753 0.531726 -6.209035
v 1.028069 0.448410 -6.704821
v 1.028967 0.535988 -6.213133
v 1.032919 0.453456 -6.703731
v 1.034072 0.540408 -6.217382
v 1.037649 0.458655 -6.702614
v 1.039060 0.544984 -6.221781
v 1.042255 0.464002 -6.701470
v 1.043925 0.549717 -6.226331
v 1.046731 0.469493 -6.700302
v 1.048660 0.554603 -6.231029
v 1.051073 0.475123 -6.699111
v 1.053256 0.559641 -6.235872
v 1.055277 0.480889 -6.697899
v 1.057706 0.564828 -6.240858
v 1.059337 0.486785 -6.696668
v 1.062001 0.570159 -6.245984
v 1.063248 0.492806 -6.695419
v 1.066134 0.575633 -6.251246
v 1.067006 0.498949 -6.694155
v 1.070097 0.581246 -6.256643
v 1.070606 0.505208 -6.692877
v 1.073882 0.586995 -6.262170
v 1.074044 0.511578 -6.691587
v 1.077314 0.518055 -6.690286
v 1.077482 0.592877 -6.267825
v 1.080415 0.524631 -6.688978
v 1.080888 0.598886 -6.273602
v 1.083343 0.531300 -6.687663
v 1.084095 0.605012 -6.279491
v 1.086097 0.538054 -6.686344
v 1.087096 0.611247 -6.285486
v 1.088672 0.544886 -6.685022
v 1.089885 0.617582 -6.291576
v 1.091067 0.551790 -6.683701
v 1.092454 0.624009 -6.297755
v 1.093278 0.558758 -6.682381
v 1.094798 0.630518 -6.304014
v 1.095303 0.565784 -6.681064
v 1.096910 0.637103 -6.310344
v 1.097139 0.572860 -6.679754
v 1.098783 0.643753 -6.316738
v 1.098784 0.579980 -6.678451
v 1.100237 0.587140 -6.677156
v 1.100415 0.650466 -6.323192
v 1.101498 0.594335 -6.675870
v 1.101803 0.657237 -6.329702
v 1.102566 0.601562 -6.674596
v 1.102944 0.664065 -6.336265
v 1.103441 0.608816 -6.673332
v 1.103837 0.670945 -6.342880
v 1.104122 0.616093 -6.672082
v 1.104479 0.677875 -6.349543
v 1.104610 0.623389 -6.670845
v 1.104867 0.684852 -6.356250
v 1.104902 0.630699 -6.669622
v 1.105000 0.638020 -6.668415
v 1.105000 0.691873 -6.363000
f 1 2 3
f 2 4 3
f 4 5 3
f 5 6 3
f 6 7 3
f 7 8 3
f 8 9 3
f 9 10 3
f 10 11 3
f 11 12 3
f 12 13 3
f 13 14 3
f 14 15 3
f 15 16 3
f 16 17 3
f 17 18 3
f 18 19 3
f 19 20 3
f 19 21 20
f 21 22 20
f 22 23 20
f 23 24 20
f 24 25 20
f 25 26 20
f 26 27 20
f 27 28 20
f 28 29 20
f 29 30 20
f 30 31 20
f 31 32 20
f 32 33 20
f 33 34 20
f 34 35 20
f 35 36 20
f 36 37 20
f 37 38 20
f 37 39 38
f 39 40 38
f 40 41 38
f 41 42 38
f 42 43 38
f 43 44 38
f 44 45 38
f 45 46 38
f 46 47 38
f 47 48 38
f 48 49 38
f 49 50 38
f 50 51 38
f 51 52 38
f 52 53 38
f 53 54 38
f 54 55 38
f 55 56 38
f 55 57 56
f 57 58 56
f 58 59 56
f 59 60 56
f 60 61 56
f 60 62 61
f 62 63 61
f 62 64 63
f 64 65 63
f 64 66 65
f 66 67 65
f 66 68 67
f 68 69 67
f 68 70 69
f 70 71 69
f 70 72 71
f 72 73 71
f 72 74 73
f 74 75 73
f 74 76 75
f 76 77 75
f 76 78 77
f 78 79 77
f 78 80 79
f 80 81 79
f 80 82 81
f 82 83 81
f 82 84 83
f 84 85 83
f 84 86 85
f 86 87 85
f 86 88 87
f 88 89 87
f 88 90 89
f 90 91 89
f 90 92 91
f 92 93 91
f 92 94 93
f 94 95 93
f 94 96 95
f 96 97 95
f 96 98 97
f 98 99 97
f 98 100 99
f 100 101 99
f 100 102 101
f 102 103 101
f 102 104 103
f 104 105 103
f 105 106 103
f 105 107 106
f 107 108 106
f 107 109 108
f 109 110 108
f 109 111 110
f 111 112 110
f 111 113 112
f 113 114 112
f 113 115 114
f 115 116 114
f 115 117 116
f 117 118 116
f 117 119 118
f 119 120 118
f 119 121 120
f 121 122 120
f 121 123 122
f 123 124 122
f 123 125 124
f 125 126 124
f 125 127 126
f 127 128 126
f 127 129 128
f 129 130 128
f 129 131 130
f 131 132 130
f 131 133 132
f 133 134 132
f 134 135 132
f 134 136 135
f 136 137 135
f 136 138 137
f 138 139 137
f 138 140 139
f 140 141 139
f 140 142 141
f 142 143 141
f 142 144 143
f 144 145 143
f 144 146 145
f 146 147 145
f 146 148 147
f 148 149 147
f 148 150 149
f 150 151 149
f 150 152 151
f 152 153 151
f 153 154 151
f 153 155 154
f 155 156 154
f 155 157 156
f 157 158 156
f 157 159 158
f 159 160 158
f 159 161 160
f 161 162 160
f 161 163 162
f 163 164 162
f 163 165 164
f 165 166 164
f 166 167 164
