v -0.643838 -0.158692 -0.018107
v -0.660171 -0.040000 -0.016381
v -0.660342 -0.040000 -0.016552
v -0.660683 -0.040000 -0.016893
v -0.660512 -0.040000 -0.016722
v -0.661025 -0.040000 -0.017234
v -0.660854 -0.040000 -0.017063
v -0.661366 -0.040000 -0.017575
v -0.661196 -0.040000 -0.017404
v -0.661537 -0.040000 -0.017746
v -0.661708 -0.040000 -0.017916
v -0.661879 -0.040000 -0.018087
v -0.662050 -0.040000 -0.018257
v -0.662221 -0.040000 -0.018428
v -0.662392 -0.040000 -0.018599
v -0.662563 -0.040000 -0.018769
v -0.662734 -0.040000 -0.018940
v -0.662905 -0.040000 -0.019111
v -0.663076 -0.040000 -0.019281
v -0.663247 -0.040000 -0.019452
v -0.663418 -0.040000 -0.019623
v -0.663589 -0.040000 -0.019793
v -0.663760 -0.040000 -0.019964
v -0.663931 -0.040000 -0.020135
v -0.664102 -0.040000 -0.020306
v -0.664273 -0.040000 -0.020476
v -0.664444 -0.040000 -0.020647
v -0.664615 -0.040000 -0.020818
v -0.664787 -0.040000 -0.020989
v -0.664958 -0.040000 -0.021160
v -0.665129 -0.040000 -0.021331
v -0.665300 -0.040000 -0.021501
v -0.665471 -0.040000 -0.021672
v -0.665642 -0.040000 -0.021843
v -0.665814 -0.040000 -0.022014
v -0.665985 -0.040000 -0.022185
v -0.666156 -0.040000 -0.022356
v -0.666327 -0.040000 -0.022527
v -0.666499 -0.040000 -0.022698
v -0.666670 -0.040000 -0.022869
v -0.666841 -0.040000 -0.023040
v -0.667013 -0.040000 -0.023211
v -0.667184 -0.040000 -0.023382
v -0.667355 -0.040000 -0.023553
v -0.667527 -0.040000 -0.023724
v -0.667698 -0.040000 -0.023895
v -0.667869 -0.040000 -0.024066
v -0.668041 -0.040000 -0.024237
v -0.668212 -0.040000 -0.024408
v -0.668555 -0.040000 -0.024751
v -0.668384 -0.040000 -0.024580
v -0.673814 -0.040000 -0.036213
v -0.668898 -0.040000 -0.025093
v -0.668727 -0.040000 -0.024922
v -0.669241 -0.040000 -0.025435
v -0.669070 -0.040000 -0.025264
v -0.669413 -0.040000 -0.025607
v -0.648275 -0.188056 -0.036213
v -0.646859 -0.192870 -0.036213
v -0.642723 -0.191365 -0.025607
v -0.642562 -0.191306 -0.025435
v -0.642401 -0.191248 -0.025264
v -0.642239 -0.191189 -0.025093
v -0.642078 -0.191130 -0.024922
v -0.641917 -0.191072 -0.024751
v -0.641756 -0.191013 -0.024580
v -0.641595 -0.190954 -0.024408
v -0.641434 -0.190896 -0.024237
v -0.641273 -0.190837 -0.024066
v -0.641112 -0.190778 -0.023895
v -0.640951 -0.190720 -0.023724
v -0.640790 -0.190661 -0.023553
v -0.640629 -0.190603 -0.023382
v -0.640468 -0.190544 -0.023211
v -0.640307 -0.190485 -0.023040
v -0.640146 -0.190427 -0.022869
v -0.639985 -0.190368 -0.022698
v -0.639824 -0.190310 -0.022527
v -0.639663 -0.190251 -0.022356
v -0.639502 -0.190193 -0.022185
v -0.639341 -0.190134 -0.022014
v -0.639180 -0.190075 -0.021843
v -0.639019 -0.190017 -0.021672
v -0.638858 -0.189958 -0.021501
v -0.638697 -0.189900 -0.021331
v -0.638537 -0.189841 -0.021160
v -0.638376 -0.189783 -0.020989
v -0.638215 -0.189724 -0.020818
v -0.638054 -0.189666 -0.020647
v -0.637893 -0.189607 -0.020476
v -0.637733 -0.189549 -0.020306
v -0.637572 -0.189490 -0.020135
v -0.637411 -0.189432 -0.019964
v -0.637250 -0.189373 -0.019793
v -0.637090 -0.189315 -0.019623
v -0.636929 -0.189256 -0.019452
v -0.636768 -0.189198 -0.019281
v -0.636608 -0.189139 -0.019111
v -0.636447 -0.189081 -0.018940
v -0.636286 -0.189022 -0.018769
v -0.636126 -0.188964 -0.018599
v -0.635965 -0.188905 -0.018428
v -0.635804 -0.188847 -0.018257
v -0.635644 -0.188788 -0.018087
v -0.635483 -0.188730 -0.017916
v -0.635323 -0.188671 -0.017746
v -0.635162 -0.188613 -0.017575
v -0.635001 -0.188555 -0.017404
v -0.634841 -0.188496 -0.017234
v -0.634680 -0.188438 -0.017063
v -0.634520 -0.188379 -0.016893
v -0.634359 -0.188321 -0.016722
v -0.634199 -0.188262 -0.016552
v -0.634038 -0.188204 -0.016381
v -0.606516 -0.263321 -0.016211
v -0.606677 -0.263379 -0.016381
v -0.606837 -0.263438 -0.016552
v -0.606998 -0.263496 -0.016722
v -0.607158 -0.263555 -0.016893
v -0.607319 -0.263613 -0.017063
v -0.607479 -0.263671 -0.017234
v -0.607640 -0.263730 -0.017404
v -0.607800 -0.263788 -0.017575
v -0.607961 -0.263847 -0.017746
v -0.608122 -0.263905 -0.017916
v -0.608282 -0.263964 -0.018087
v -0.608443 -0.264022 -0.018257
v -0.608603 -0.264081 -0.018428
v -0.608764 -0.264139 -0.018599
v -0.608925 -0.264198 -0.018769
v -0.609085 -0.264256 -0.018940
v -0.609246 -0.264315 -0.019111
v -0.609407 -0.264373 -0.019281
v -0.609567 -0.264431 -0.019452
v -0.609728 -0.264490 -0.019623
v -0.609889 -0.264548 -0.019793
v -0.610050 -0.264607 -0.019964
v -0.610210 -0.264665 -0.020135
v -0.610371 -0.264724 -0.020306
v -0.610532 -0.264783 -0.020476
v -0.610693 -0.264841 -0.020647
v -0.610853 -0.264900 -0.020818
v -0.611014 -0.264958 -0.020989
v -0.611175 -0.265017 -0.021160
v -0.611336 -0.265075 -0.021331
v -0.611497 -0.265134 -0.021501
v -0.611658 -0.265192 -0.021672
v -0.611819 -0.265251 -0.021843
v -0.611979 -0.265309 -0.022014
v -0.612140 -0.265368 -0.022185
v -0.612301 -0.265427 -0.022356
v -0.612462 -0.265485 -0.022527
v -0.612623 -0.265544 -0.022698
v -0.612784 -0.265602 -0.022869
v -0.612945 -0.265661 -0.023040
v -0.613106 -0.265719 -0.023211
v -0.613267 -0.265778 -0.023382
v -0.613428 -0.265837 -0.023553
v -0.613589 -0.265895 -0.023724
v -0.613750 -0.265954 -0.023895
v -0.613911 -0.266013 -0.024066
v -0.614072 -0.266071 -0.024237
v -0.614233 -0.266130 -0.024408
v -0.614556 -0.266247 -0.024751
v -0.614394 -0.266188 -0.024580
v -0.619497 -0.268046 -0.036213
v -0.614878 -0.266364 -0.025093
v -0.614717 -0.266306 -0.024922
v -0.615200 -0.266482 -0.025435
v -0.615039 -0.266423 -0.025264
v -0.615361 -0.266540 -0.025607
v -0.544860 -0.398438 -0.036213
v -0.541883 -0.402477 -0.036213
v -0.538511 -0.399648 -0.025607
v -0.538380 -0.399538 -0.025435
v -0.538249 -0.399428 -0.025264
v -0.538117 -0.399318 -0.025093
v -0.537986 -0.399207 -0.024922
v -0.537854 -0.399097 -0.024751
v -0.537723 -0.398987 -0.024580
v -0.537592 -0.398877 -0.024408
v -0.537460 -0.398767 -0.024237
v -0.537329 -0.398656 -0.024066
v -0.537198 -0.398546 -0.023895
v -0.537067 -0.398436 -0.023724
v -0.536935 -0.398326 -0.023553
v -0.536804 -0.398216 -0.023382
v -0.536673 -0.398106 -0.023211
v -0.536542 -0.397996 -0.023040
v -0.536410 -0.397885 -0.022869
v -0.536279 -0.397775 -0.022698
v -0.536148 -0.397665 -0.022527
v -0.536017 -0.397555 -0.022356
v -0.535886 -0.397445 -0.022185
v -0.535754 -0.397335 -0.022014
v -0.535623 -0.397225 -0.021843
v -0.535492 -0.397115 -0.021672
v -0.535361 -0.397005 -0.021501
v -0.535230 -0.396895 -0.021331
v -0.535099 -0.396785 -0.021160
v -0.534968 -0.396675 -0.020989
v -0.534836 -0.396565 -0.020818
v -0.534705 -0.396455 -0.020647
v -0.534574 -0.396345 -0.020476
v -0.534443 -0.396235 -0.020306
v -0.534312 -0.396125 -0.020135
v -0.534181 -0.396015 -0.019964
v -0.534050 -0.395905 -0.019793
v -0.533919 -0.395795 -0.019623
v -0.533788 -0.395685 -0.019452
v -0.533657 -0.395575 -0.019281
v -0.533526 -0.395465 -0.019111
v -0.533395 -0.395355 -0.018940
v -0.533264 -0.395245 -0.018769
v -0.533133 -0.395136 -0.018599
v -0.533002 -0.395026 -0.018428
v -0.532871 -0.394916 -0.018257
v -0.532740 -0.394806 -0.018087
v -0.532609 -0.394696 -0.017916
v -0.532479 -0.394586 -0.017746
v -0.532348 -0.394476 -0.017575
v -0.532217 -0.394367 -0.017404
v -0.532086 -0.394257 -0.017234
v -0.531955 -0.394147 -0.017063
v -0.531824 -0.394037 -0.016893
v -0.531693 -0.393927 -0.016722
v -0.531562 -0.393818 -0.016552
v -0.531432 -0.393708 -0.016381
v -0.479878 -0.454882 -0.016211
v -0.480009 -0.454991 -0.016381
v -0.480139 -0.455101 -0.016552
v -0.480270 -0.455211 -0.016722
v -0.480401 -0.455321 -0.016893
v -0.480532 -0.455431 -0.017063
v -0.480663 -0.455540 -0.017234
v -0.480794 -0.455650 -0.017404
v -0.480925 -0.455760 -0.017575
v -0.481056 -0.455870 -0.017746
v -0.481186 -0.455980 -0.017916
v -0.481317 -0.456089 -0.018087
v -0.481448 -0.456199 -0.018257
v -0.481579 -0.456309 -0.018428
v -0.481710 -0.456419 -0.018599
v -0.481841 -0.456529 -0.018769
v -0.481972 -0.456639 -0.018940
v -0.482103 -0.456749 -0.019111
v -0.482234 -0.456859 -0.019281
v -0.482365 -0.456969 -0.019452
v -0.482496 -0.457079 -0.019623
v -0.482627 -0.457189 -0.019793
v -0.482758 -0.457298 -0.019964
v -0.482889 -0.457408 -0.020135
v -0.483020 -0.457518 -0.020306
v -0.483151 -0.457628 -0.020476
v -0.483282 -0.457738 -0.020647
v -0.483413 -0.457848 -0.020818
v -0.483545 -0.457958 -0.020989
v -0.483676 -0.458068 -0.021160
v -0.483807 -0.458178 -0.021331
v -0.483938 -0.458288 -0.021501
v -0.484069 -0.458398 -0.021672
v -0.484200 -0.458509 -0.021843
v -0.484331 -0.458619 -0.022014
v -0.484463 -0.458729 -0.022185
v -0.484594 -0.458839 -0.022356
v -0.484725 -0.458949 -0.022527
v -0.484856 -0.459059 -0.022698
v -0.484987 -0.459169 -0.022869
v -0.485119 -0.459279 -0.023040
v -0.485250 -0.459389 -0.023211
v -0.485381 -0.459499 -0.023382
v -0.485512 -0.459610 -0.023553
v -0.485644 -0.459720 -0.023724
v -0.485775 -0.459830 -0.023895
v -0.485906 -0.459940 -0.024066
v -0.486037 -0.460050 -0.024237
v -0.486169 -0.460160 -0.024408
v -0.486431 -0.460381 -0.024751
v -0.486300 -0.460271 -0.024580
v -0.490460 -0.463761 -0.036213
v -0.486694 -0.460601 -0.025093
v -0.486563 -0.460491 -0.024922
v -0.486957 -0.460822 -0.025435
v -0.486826 -0.460711 -0.025264
v -0.487088 -0.460932 -0.025607
v -0.375727 -0.560762 -0.036213
v -0.371548 -0.563540 -0.036213
v -0.369347 -0.559728 -0.025607
v -0.369262 -0.559580 -0.025435
v -0.369176 -0.559431 -0.025264
v -0.369090 -0.559283 -0.025093
v -0.369004 -0.559134 -0.024922
v -0.368919 -0.558986 -0.024751
v -0.368833 -0.558837 -0.024580
v -0.368747 -0.558689 -0.024408
v -0.368661 -0.558540 -0.024237
v -0.368576 -0.558392 -0.024066
v -0.368490 -0.558243 -0.023895
v -0.368404 -0.558095 -0.023724
v -0.368319 -0.557947 -0.023553
v -0.368233 -0.557798 -0.023382
v -0.368147 -0.557650 -0.023211
v -0.368062 -0.557502 -0.023040
v -0.367976 -0.557353 -0.022869
v -0.367890 -0.557205 -0.022698
v -0.367805 -0.557056 -0.022527
v -0.367719 -0.556908 -0.022356
v -0.367633 -0.556760 -0.022185
v -0.367548 -0.556612 -0.022014
v -0.367462 -0.556463 -0.021843
v -0.367377 -0.556315 -0.021672
v -0.367291 -0.556167 -0.021501
v -0.367205 -0.556019 -0.021331
v -0.367120 -0.555870 -0.021160
v -0.367034 -0.555722 -0.020989
v -0.366949 -0.555574 -0.020818
v -0.366863 -0.555426 -0.020647
v -0.366778 -0.555277 -0.020476
v -0.366692 -0.555129 -0.020306
v -0.366607 -0.554981 -0.020135
v -0.366521 -0.554833 -0.019964
v -0.366435 -0.554685 -0.019793
v -0.366350 -0.554537 -0.019623
v -0.366264 -0.554389 -0.019452
v -0.366179 -0.554240 -0.019281
v -0.366093 -0.554092 -0.019111
v -0.366008 -0.553944 -0.018940
v -0.365922 -0.553796 -0.018769
v -0.365837 -0.553648 -0.018599
v -0.365751 -0.553500 -0.018428
v -0.365666 -0.553352 -0.018257
v -0.365581 -0.553204 -0.018087
v -0.365495 -0.553056 -0.017916
v -0.365410 -0.552908 -0.017746
v -0.365324 -0.552760 -0.017575
v -0.365239 -0.552612 -0.017404
v -0.365153 -0.552464 -0.017234
v -0.365068 -0.552316 -0.017063
v -0.364983 -0.552168 -0.016893
v -0.364897 -0.552020 -0.016722
v -0.364812 -0.551873 -0.016552
v -0.364726 -0.551725 -0.016381
v -0.295359 -0.591577 -0.016211
v -0.295444 -0.591725 -0.016381
v -0.295530 -0.591873 -0.016552
v -0.295615 -0.592020 -0.016722
v -0.295701 -0.592168 -0.016893
v -0.295786 -0.592316 -0.017063
v -0.295871 -0.592464 -0.017234
v -0.295957 -0.592612 -0.017404
v -0.296042 -0.592760 -0.017575
v -0.296128 -0.592908 -0.017746
v -0.296213 -0.593056 -0.017916
v -0.296299 -0.593204 -0.018087
v -0.296384 -0.593352 -0.018257
v -0.296469 -0.593500 -0.018428
v -0.296555 -0.593648 -0.018599
v -0.296640 -0.593796 -0.018769
v -0.296726 -0.593944 -0.018940
v -0.296811 -0.594092 -0.019111
v -0.296897 -0.594241 -0.019281
v -0.296982 -0.594389 -0.019452
v -0.297068 -0.594537 -0.019623
v -0.297153 -0.594685 -0.019793
v -0.297239 -0.594833 -0.019964
v -0.297325 -0.594981 -0.020135
v -0.297410 -0.595129 -0.020306
v -0.297496 -0.595277 -0.020476
v -0.297581 -0.595426 -0.020647
v -0.297667 -0.595574 -0.020818
v -0.297752 -0.595722 -0.020989
v -0.297838 -0.595870 -0.021160
v -0.297923 -0.596019 -0.021331
v -0.298009 -0.596167 -0.021501
v -0.298095 -0.596315 -0.021672
v -0.298180 -0.596463 -0.021843
v -0.298266 -0.596612 -0.022014
v -0.298351 -0.596760 -0.022185
v -0.298437 -0.596908 -0.022356
v -0.298523 -0.597057 -0.022527
v -0.298608 -0.597205 -0.022698
v -0.298694 -0.597353 -0.022869
v -0.298780 -0.597502 -0.023040
v -0.298865 -0.597650 -0.023211
v -0.298951 -0.597798 -0.023382
v -0.299037 -0.597947 -0.023553
v -0.299122 -0.598095 -0.023724
v -0.299208 -0.598243 -0.023895
v -0.299294 -0.598392 -0.024066
v -0.299379 -0.598540 -0.024237
v -0.299465 -0.598689 -0.024408
v -0.299637 -0.598986 -0.024751
v -0.299551 -0.598837 -0.024580
v -0.302266 -0.603540 -0.036213
v -0.299808 -0.599283 -0.025093
v -0.299722 -0.599134 -0.024922
v -0.299980 -0.599580 -0.025435
v -0.299894 -0.599431 -0.025264
v -0.300065 -0.599728 -0.025607
v -0.161276 -0.655450 -0.036213
v -0.156399 -0.656631 -0.036213
v -0.155635 -0.652297 -0.025607
v -0.155605 -0.652128 -0.025435
v -0.155575 -0.651959 -0.025264
v -0.155545 -0.651790 -0.025093
v -0.155515 -0.651621 -0.024922
v -0.155486 -0.651452 -0.024751
v -0.155456 -0.651284 -0.024580
v -0.155426 -0.651115 -0.024408
v -0.155396 -0.650946 -0.024237
v -0.155367 -0.650777 -0.024066
v -0.155337 -0.650608 -0.023895
v -0.155307 -0.650440 -0.023724
v -0.155277 -0.650271 -0.023553
v -0.155248 -0.650102 -0.023382
v -0.155218 -0.649933 -0.023211
v -0.155188 -0.649765 -0.023040
v -0.155158 -0.649596 -0.022869
v -0.155129 -0.649427 -0.022698
v -0.155099 -0.649258 -0.022527
v -0.155069 -0.649090 -0.022356
v -0.155039 -0.648921 -0.022185
v -0.155010 -0.648753 -0.022014
v -0.154980 -0.648584 -0.021843
v -0.154950 -0.648415 -0.021672
v -0.154920 -0.648247 -0.021501
v -0.154891 -0.648078 -0.021331
v -0.154861 -0.647910 -0.021160
v -0.154831 -0.647741 -0.020989
v -0.154802 -0.647572 -0.020818
v -0.154772 -0.647404 -0.020647
v -0.154742 -0.647235 -0.020476
v -0.154712 -0.647067 -0.020306
v -0.154683 -0.646898 -0.020135
v -0.154653 -0.646730 -0.019964
v -0.154623 -0.646562 -0.019793
v -0.154594 -0.646393 -0.019623
v -0.154564 -0.646225 -0.019452
v -0.154534 -0.646056 -0.019281
v -0.154505 -0.645888 -0.019111
v -0.154475 -0.645719 -0.018940
v -0.154445 -0.645551 -0.018769
v -0.154415 -0.645383 -0.018599
v -0.154386 -0.645214 -0.018428
v -0.154356 -0.645046 -0.018257
v -0.154326 -0.644878 -0.018087
v -0.154297 -0.644709 -0.017916
v -0.154267 -0.644541 -0.017746
v -0.154237 -0.644373 -0.017575
v -0.154208 -0.644205 -0.017404
v -0.154178 -0.644036 -0.017234
v -0.154148 -0.643868 -0.017063
v -0.154119 -0.643700 -0.016893
v -0.154089 -0.643532 -0.016722
v -0.154059 -0.643364 -0.016552
v -0.154030 -0.643195 -0.016381
v -0.075215 -0.656919 -0.016211
v -0.075245 -0.657087 -0.016381
v -0.075275 -0.657255 -0.016552
v -0.075304 -0.657424 -0.016722
v -0.075334 -0.657592 -0.016893
v -0.075364 -0.657760 -0.017063
v -0.075393 -0.657928 -0.017234
v -0.075423 -0.658096 -0.017404
v -0.075453 -0.658265 -0.017575
v -0.075482 -0.658433 -0.017746
v -0.075512 -0.658601 -0.017916
v -0.075542 -0.658770 -0.018087
v -0.075571 -0.658938 -0.018257
v -0.075601 -0.659106 -0.018428
v -0.075631 -0.659275 -0.018599
v -0.075661 -0.659443 -0.018769
v -0.075690 -0.659611 -0.018940
v -0.075720 -0.659780 -0.019111
v -0.075750 -0.659948 -0.019281
v -0.075779 -0.660117 -0.019452
v -0.075809 -0.660285 -0.019623
v -0.075839 -0.660453 -0.019793
v -0.075868 -0.660622 -0.019964
v -0.075898 -0.660790 -0.020135
v -0.075928 -0.660959 -0.020306
v -0.075958 -0.661127 -0.020476
v -0.075987 -0.661296 -0.020647
v -0.076017 -0.661464 -0.020818
v -0.076047 -0.661633 -0.020989
v -0.076076 -0.661801 -0.021160
v -0.076106 -0.661970 -0.021331
v -0.076136 -0.662139 -0.021501
v -0.076166 -0.662307 -0.021672
v -0.076195 -0.662476 -0.021843
v -0.076225 -0.662644 -0.022014
v -0.076255 -0.662813 -0.022185
v -0.076284 -0.662982 -0.022356
v -0.076314 -0.663150 -0.022527
v -0.076344 -0.663319 -0.022698
v -0.076374 -0.663488 -0.022869
v -0.076403 -0.663656 -0.023040
v -0.076433 -0.663825 -0.023211
v -0.076463 -0.663994 -0.023382
v -0.076493 -0.664163 -0.023553
v -0.076522 -0.664331 -0.023724
v -0.076552 -0.664500 -0.023895
v -0.076582 -0.664669 -0.024066
v -0.076612 -0.664838 -0.024237
v -0.076642 -0.665007 -0.024408
v -0.076701 -0.665344 -0.024751
v -0.076671 -0.665175 -0.024580
v -0.077614 -0.670523 -0.036213
v -0.076761 -0.665682 -0.025093
v -0.076731 -0.665513 -0.024922
v -0.076820 -0.666020 -0.025435
v -0.076790 -0.665851 -0.025264
v -0.076850 -0.666189 -0.025607
v 0.072627 -0.671081 -0.036213
v 0.077614 -0.670523 -0.036213
v 0.076850 -0.666189 -0.025607
v 0.076820 -0.666020 -0.025435
v 0.076790 -0.665851 -0.025264
v 0.076761 -0.665682 -0.025093
v 0.076731 -0.665513 -0.024922
v 0.076701 -0.665344 -0.024751
v 0.076671 -0.665175 -0.024580
v 0.076642 -0.665007 -0.024408
v 0.076612 -0.664838 -0.024237
v 0.076582 -0.664669 -0.024066
v 0.076552 -0.664500 -0.023895
v 0.076522 -0.664331 -0.023724
v 0.076493 -0.664163 -0.023553
v 0.076463 -0.663994 -0.023382
v 0.076433 -0.663825 -0.023211
v 0.076403 -0.663656 -0.023040
v 0.076374 -0.663488 -0.022869
v 0.076344 -0.663319 -0.022698
v 0.076314 -0.663150 -0.022527
v 0.076284 -0.662982 -0.022356
v 0.076255 -0.662813 -0.022185
v 0.076225 -0.662644 -0.022014
v 0.076195 -0.662476 -0.021843
v 0.076166 -0.662307 -0.021672
v 0.076136 -0.662139 -0.021501
v 0.076106 -0.661970 -0.021331
v 0.076076 -0.661801 -0.021160
v 0.076047 -0.661633 -0.020989
v 0.076017 -0.661464 -0.020818
v 0.075987 -0.661296 -0.020647
v 0.075958 -0.661127 -0.020476
v 0.075928 -0.660959 -0.020306
v 0.075898 -0.660790 -0.020135
v 0.075868 -0.660622 -0.019964
v 0.075839 -0.660453 -0.019793
v 0.075809 -0.660285 -0.019623
v 0.075779 -0.660117 -0.019452
v 0.075750 -0.659948 -0.019281
v 0.075720 -0.659780 -0.019111
v 0.075690 -0.659611 -0.018940
v 0.075661 -0.659443 -0.018769
v 0.075631 -0.659275 -0.018599
v 0.075601 -0.659106 -0.018428
v 0.075571 -0.658938 -0.018257
v 0.075542 -0.658770 -0.018087
v 0.075512 -0.658601 -0.017916
v 0.075482 -0.658433 -0.017746
v 0.075453 -0.658265 -0.017575
v 0.075423 -0.658096 -0.017404
v 0.075393 -0.657928 -0.017234
v 0.075364 -0.657760 -0.017063
v 0.075334 -0.657592 -0.016893
v 0.075304 -0.657424 -0.016722
v 0.075275 -0.657255 -0.016552
v 0.075245 -0.657087 -0.016381
v 0.154000 -0.643027 -0.016211
v 0.154030 -0.643195 -0.016381
v 0.154059 -0.643364 -0.016552
v 0.154089 -0.643532 -0.016722
v 0.154119 -0.643700 -0.016893
v 0.154148 -0.643868 -0.017063
v 0.154178 -0.644036 -0.017234
v 0.154208 -0.644205 -0.017404
v 0.154237 -0.644373 -0.017575
v 0.154267 -0.644541 -0.017746
v 0.154297 -0.644709 -0.017916
v 0.154326 -0.644878 -0.018087
v 0.154356 -0.645046 -0.018257
v 0.154386 -0.645214 -0.018428
v 0.154415 -0.645383 -0.018599
v 0.154445 -0.645551 -0.018769
v 0.154475 -0.645720 -0.018940
v 0.154505 -0.645888 -0.019111
v 0.154534 -0.646056 -0.019281
v 0.154564 -0.646225 -0.019452
v 0.154594 -0.646393 -0.019623
v 0.154623 -0.646562 -0.019793
v 0.154653 -0.646730 -0.019964
v 0.154683 -0.646899 -0.020135
v 0.154712 -0.647067 -0.020306
v 0.154742 -0.647235 -0.020476
v 0.154772 -0.647404 -0.020647
v 0.154802 -0.647573 -0.020818
v 0.154831 -0.647741 -0.020989
v 0.154861 -0.647910 -0.021160
v 0.154891 -0.648078 -0.021331
v 0.154920 -0.648247 -0.021501
v 0.154950 -0.648415 -0.021672
v 0.154980 -0.648584 -0.021843
v 0.155010 -0.648753 -0.022014
v 0.155039 -0.648921 -0.022185
v 0.155069 -0.649090 -0.022356
v 0.155099 -0.649259 -0.022527
v 0.155129 -0.649427 -0.022698
v 0.155158 -0.649596 -0.022869
v 0.155188 -0.649765 -0.023040
v 0.155218 -0.649933 -0.023211
v 0.155248 -0.650102 -0.023382
v 0.155277 -0.650271 -0.023553
v 0.155307 -0.650440 -0.023724
v 0.155337 -0.650608 -0.023895
v 0.155367 -0.650777 -0.024066
v 0.155396 -0.650946 -0.024237
v 0.155426 -0.651115 -0.024408
v 0.155486 -0.651452 -0.024751
v 0.155456 -0.651284 -0.024580
v 0.156399 -0.656631 -0.036213
v 0.155545 -0.651790 -0.025093
v 0.155515 -0.651621 -0.024922
v 0.155605 -0.652128 -0.025435
v 0.155575 -0.651959 -0.025264
v 0.155635 -0.652297 -0.025607
v 0.297770 -0.605770 -0.036213
v 0.302266 -0.603540 -0.036213
v 0.300065 -0.599728 -0.025607
v 0.299980 -0.599580 -0.025435
v 0.299894 -0.599431 -0.025264
v 0.299808 -0.599283 -0.025093
v 0.299722 -0.599134 -0.024922
v 0.299637 -0.598986 -0.024751
v 0.299551 -0.598837 -0.024580
v 0.299465 -0.598689 -0.024408
v 0.299379 -0.598540 -0.024237
v 0.299294 -0.598392 -0.024066
v 0.299208 -0.598243 -0.023895
v 0.299122 -0.598095 -0.023724
v 0.299037 -0.597947 -0.023553
v 0.298951 -0.597798 -0.023382
v 0.298865 -0.597650 -0.023211
v 0.298780 -0.597502 -0.023040
v 0.298694 -0.597353 -0.022869
v 0.298608 -0.597205 -0.022698
v 0.298523 -0.597056 -0.022527
v 0.298437 -0.596908 -0.022356
v 0.298351 -0.596760 -0.022185
v 0.298266 -0.596612 -0.022014
v 0.298180 -0.596463 -0.021843
v 0.298095 -0.596315 -0.021672
v 0.298009 -0.596167 -0.021501
v 0.297923 -0.596019 -0.021331
v 0.297838 -0.595870 -0.021160
v 0.297752 -0.595722 -0.020989
v 0.297667 -0.595574 -0.020818
v 0.297581 -0.595426 -0.020647
v 0.297496 -0.595277 -0.020476
v 0.297410 -0.595129 -0.020306
v 0.297324 -0.594981 -0.020135
v 0.297239 -0.594833 -0.019964
v 0.297153 -0.594685 -0.019793
v 0.297068 -0.594537 -0.019623
v 0.296982 -0.594389 -0.019452
v 0.296897 -0.594240 -0.019281
v 0.296811 -0.594092 -0.019111
v 0.296726 -0.593944 -0.018940
v 0.296640 -0.593796 -0.018769
v 0.296555 -0.593648 -0.018599
v 0.296469 -0.593500 -0.018428
v 0.296384 -0.593352 -0.018257
v 0.296299 -0.593204 -0.018087
v 0.296213 -0.593056 -0.017916
v 0.296128 -0.592908 -0.017746
v 0.296042 -0.592760 -0.017575
v 0.295957 -0.592612 -0.017404
v 0.295871 -0.592464 -0.017234
v 0.295786 -0.592316 -0.017063
v 0.295701 -0.592168 -0.016893
v 0.295615 -0.592020 -0.016722
v 0.295530 -0.591873 -0.016552
v 0.295444 -0.591725 -0.016381
v 0.364641 -0.551577 -0.016211
v 0.364726 -0.551725 -0.016381
v 0.364812 -0.551873 -0.016552
v 0.364897 -0.552020 -0.016722
v 0.364983 -0.552168 -0.016893
v 0.365068 -0.552316 -0.017063
v 0.365153 -0.552464 -0.017234
v 0.365239 -0.552612 -0.017404
v 0.365324 -0.552760 -0.017575
v 0.365410 -0.552908 -0.017746
v 0.365495 -0.553056 -0.017916
v 0.365581 -0.553204 -0.018087
v 0.365666 -0.553352 -0.018257
v 0.365752 -0.553500 -0.018428
v 0.365837 -0.553648 -0.018599
v 0.365922 -0.553796 -0.018769
v 0.366008 -0.553944 -0.018940
v 0.366093 -0.554092 -0.019111
v 0.366179 -0.554241 -0.019281
v 0.366264 -0.554389 -0.019452
v 0.366350 -0.554537 -0.019623
v 0.366435 -0.554685 -0.019793
v 0.366521 -0.554833 -0.019964
v 0.366607 -0.554981 -0.020135
v 0.366692 -0.555129 -0.020306
v 0.366778 -0.555277 -0.020476
v 0.366863 -0.555426 -0.020647
v 0.366949 -0.555574 -0.020818
v 0.367034 -0.555722 -0.020989
v 0.367120 -0.555870 -0.021160
v 0.367205 -0.556019 -0.021331
v 0.367291 -0.556167 -0.021501
v 0.367377 -0.556315 -0.021672
v 0.367462 -0.556463 -0.021843
v 0.367548 -0.556612 -0.022014
v 0.367633 -0.556760 -0.022185
v 0.367719 -0.556908 -0.022356
v 0.367805 -0.557057 -0.022527
v 0.367890 -0.557205 -0.022698
v 0.367976 -0.557353 -0.022869
v 0.368062 -0.557502 -0.023040
v 0.368147 -0.557650 -0.023211
v 0.368233 -0.557798 -0.023382
v 0.368319 -0.557947 -0.023553
v 0.368404 -0.558095 -0.023724
v 0.368490 -0.558243 -0.023895
v 0.368576 -0.558392 -0.024066
v 0.368661 -0.558540 -0.024237
v 0.368747 -0.558689 -0.024408
v 0.368919 -0.558986 -0.024751
v 0.368833 -0.558837 -0.024580
v 0.371548 -0.563540 -0.036213
v 0.369090 -0.559283 -0.025093
v 0.369004 -0.559134 -0.024922
v 0.369262 -0.559580 -0.025435
v 0.369176 -0.559431 -0.025264
v 0.369347 -0.559728 -0.025607
v 0.486998 -0.467395 -0.036213
v 0.490460 -0.463761 -0.036213
v 0.487088 -0.460932 -0.025607
v 0.486957 -0.460822 -0.025435
v 0.486826 -0.460711 -0.025264
v 0.486694 -0.460601 -0.025093
v 0.486563 -0.460491 -0.024922
v 0.486431 -0.460381 -0.024751
v 0.486300 -0.460271 -0.024580
v 0.486169 -0.460160 -0.024408
v 0.486037 -0.460050 -0.024237
v 0.485906 -0.459940 -0.024066
v 0.485775 -0.459830 -0.023895
v 0.485644 -0.459720 -0.023724
v 0.485512 -0.459610 -0.023553
v 0.485381 -0.459499 -0.023382
v 0.485250 -0.459389 -0.023211
v 0.485119 -0.459279 -0.023040
v 0.484987 -0.459169 -0.022869
v 0.484856 -0.459059 -0.022698
v 0.484725 -0.458949 -0.022527
v 0.484594 -0.458839 -0.022356
v 0.484463 -0.458729 -0.022185
v 0.484331 -0.458619 -0.022014
v 0.484200 -0.458509 -0.021843
v 0.484069 -0.458398 -0.021672
v 0.483938 -0.458288 -0.021501
v 0.483807 -0.458178 -0.021331
v 0.483676 -0.458068 -0.021160
v 0.483545 -0.457958 -0.020989
v 0.483413 -0.457848 -0.020818
v 0.483282 -0.457738 -0.020647
v 0.483151 -0.457628 -0.020476
v 0.483020 -0.457518 -0.020306
v 0.482889 -0.457408 -0.020135
v 0.482758 -0.457298 -0.019964
v 0.482627 -0.457188 -0.019793
v 0.482496 -0.457079 -0.019623
v 0.482365 -0.456969 -0.019452
v 0.482234 -0.456859 -0.019281
v 0.482103 -0.456749 -0.019111
v 0.481972 -0.456639 -0.018940
v 0.481841 -0.456529 -0.018769
v 0.481710 -0.456419 -0.018599
v 0.481579 -0.456309 -0.018428
v 0.481448 -0.456199 -0.018257
v 0.481317 -0.456089 -0.018087
v 0.481186 -0.455980 -0.017916
v 0.481055 -0.455870 -0.017746
v 0.480925 -0.455760 -0.017575
v 0.480794 -0.455650 -0.017404
v 0.480663 -0.455540 -0.017234
v 0.480532 -0.455430 -0.017063
v 0.480401 -0.455321 -0.016893
v 0.480270 -0.455211 -0.016722
v 0.480139 -0.455101 -0.016552
v 0.480009 -0.454991 -0.016381
v 0.531301 -0.393598 -0.016211
v 0.531432 -0.393708 -0.016381
v 0.531562 -0.393818 -0.016552
v 0.531693 -0.393927 -0.016722
v 0.531824 -0.394037 -0.016893
v 0.531955 -0.394147 -0.017063
v 0.532086 -0.394257 -0.017234
v 0.532217 -0.394367 -0.017404
v 0.532348 -0.394476 -0.017575
v 0.532479 -0.394586 -0.017746
v 0.532609 -0.394696 -0.017916
v 0.532740 -0.394806 -0.018087
v 0.532871 -0.394916 -0.018257
v 0.533002 -0.395026 -0.018428
v 0.533133 -0.395136 -0.018599
v 0.533264 -0.395245 -0.018769
v 0.533395 -0.395355 -0.018940
v 0.533526 -0.395465 -0.019111
v 0.533657 -0.395575 -0.019281
v 0.533788 -0.395685 -0.019452
v 0.533919 -0.395795 -0.019623
v 0.534050 -0.395905 -0.019793
v 0.534181 -0.396015 -0.019964
v 0.534312 -0.396125 -0.020135
v 0.534443 -0.396235 -0.020306
v 0.534574 -0.396345 -0.020476
v 0.534705 -0.396455 -0.020647
v 0.534836 -0.396565 -0.020818
v 0.534968 -0.396675 -0.020989
v 0.535099 -0.396785 -0.021160
v 0.535230 -0.396895 -0.021331
v 0.535361 -0.397005 -0.021501
v 0.535492 -0.397115 -0.021672
v 0.535623 -0.397225 -0.021843
v 0.535754 -0.397335 -0.022014
v 0.535886 -0.397445 -0.022185
v 0.536017 -0.397555 -0.022356
v 0.536148 -0.397665 -0.022527
v 0.536279 -0.397775 -0.022698
v 0.536410 -0.397885 -0.022869
v 0.536542 -0.397996 -0.023040
v 0.536673 -0.398106 -0.023211
v 0.536804 -0.398216 -0.023382
v 0.536935 -0.398326 -0.023553
v 0.537067 -0.398436 -0.023724
v 0.537198 -0.398546 -0.023895
v 0.537329 -0.398656 -0.024066
v 0.537460 -0.398767 -0.024237
v 0.537592 -0.398877 -0.024408
v 0.537854 -0.399097 -0.024751
v 0.537723 -0.398987 -0.024580
v 0.541883 -0.402477 -0.036213
v 0.538117 -0.399318 -0.025093
v 0.537986 -0.399207 -0.024922
v 0.538380 -0.399538 -0.025435
v 0.538249 -0.399428 -0.025264
v 0.538511 -0.399648 -0.025607
v 0.617487 -0.272644 -0.036213
v 0.619497 -0.268046 -0.036213
v 0.615361 -0.266540 -0.025607
v 0.615200 -0.266482 -0.025435
v 0.615039 -0.266423 -0.025264
v 0.614878 -0.266364 -0.025093
v 0.614717 -0.266306 -0.024922
v 0.614556 -0.266247 -0.024751
v 0.614394 -0.266188 -0.024580
v 0.614233 -0.266130 -0.024408
v 0.614072 -0.266071 -0.024237
v 0.613911 -0.266013 -0.024066
v 0.613750 -0.265954 -0.023895
v 0.613589 -0.265895 -0.023724
v 0.613428 -0.265837 -0.023553
v 0.613267 -0.265778 -0.023382
v 0.613106 -0.265719 -0.023211
v 0.612945 -0.265661 -0.023040
v 0.612784 -0.265602 -0.022869
v 0.612623 -0.265544 -0.022698
v 0.612462 -0.265485 -0.022527
v 0.612301 -0.265427 -0.022356
v 0.612140 -0.265368 -0.022185
v 0.611979 -0.265309 -0.022014
v 0.611818 -0.265251 -0.021843
v 0.611658 -0.265192 -0.021672
v 0.611497 -0.265134 -0.021501
v 0.611336 -0.265075 -0.021331
v 0.611175 -0.265017 -0.021160
v 0.611014 -0.264958 -0.020989
v 0.610853 -0.264900 -0.020818
v 0.610693 -0.264841 -0.020647
v 0.610532 -0.264783 -0.020476
v 0.610371 -0.264724 -0.020306
v 0.610210 -0.264665 -0.020135
v 0.610050 -0.264607 -0.019964
v 0.609889 -0.264548 -0.019793
v 0.609728 -0.264490 -0.019623
v 0.609567 -0.264431 -0.019452
v 0.609407 -0.264373 -0.019281
v 0.609246 -0.264315 -0.019111
v 0.609085 -0.264256 -0.018940
v 0.608925 -0.264198 -0.018769
v 0.608764 -0.264139 -0.018599
v 0.608603 -0.264081 -0.018428
v 0.608443 -0.264022 -0.018257
v 0.608282 -0.263964 -0.018087
v 0.608122 -0.263905 -0.017916
v 0.607961 -0.263847 -0.017746
v 0.607800 -0.263788 -0.017575
v 0.607640 -0.263730 -0.017404
v 0.607479 -0.263671 -0.017234
v 0.607319 -0.263613 -0.017063
v 0.607158 -0.263555 -0.016893
v 0.606998 -0.263496 -0.016722
v 0.606837 -0.263438 -0.016552
v 0.606677 -0.263379 -0.016381
v 0.633878 -0.188146 -0.016211
v 0.634038 -0.188204 -0.016381
v 0.634199 -0.188262 -0.016552
v 0.634359 -0.188321 -0.016722
v 0.634520 -0.188379 -0.016893
v 0.634680 -0.188438 -0.017063
v 0.634841 -0.188496 -0.017234
v 0.635001 -0.188555 -0.017404
v 0.635162 -0.188613 -0.017575
v 0.635323 -0.188671 -0.017746
v 0.635483 -0.188730 -0.017916
v 0.635644 -0.188788 -0.018087
v 0.635804 -0.188847 -0.018257
v 0.635965 -0.188905 -0.018428
v 0.636126 -0.188964 -0.018599
v 0.636286 -0.189022 -0.018769
v 0.636447 -0.189081 -0.018940
v 0.636608 -0.189139 -0.019111
v 0.636768 -0.189198 -0.019281
v 0.636929 -0.189256 -0.019452
v 0.637090 -0.189315 -0.019623
v 0.637250 -0.189373 -0.019793
v 0.637411 -0.189432 -0.019964
v 0.637572 -0.189490 -0.020135
v 0.637733 -0.189549 -0.020306
v 0.637893 -0.189607 -0.020476
v 0.638054 -0.189666 -0.020647
v 0.638215 -0.189724 -0.020818
v 0.638376 -0.189783 -0.020989
v 0.638537 -0.189841 -0.021160
v 0.638698 -0.189900 -0.021331
v 0.638858 -0.189958 -0.021501
v 0.639019 -0.190017 -0.021672
v 0.639180 -0.190075 -0.021843
v 0.639341 -0.190134 -0.022014
v 0.639502 -0.190193 -0.022185
v 0.639663 -0.190251 -0.022356
v 0.639824 -0.190310 -0.022527
v 0.639985 -0.190368 -0.022698
v 0.640146 -0.190427 -0.022869
v 0.640307 -0.190485 -0.023040
v 0.640468 -0.190544 -0.023211
v 0.640629 -0.190603 -0.023382
v 0.640790 -0.190661 -0.023553
v 0.640951 -0.190720 -0.023724
v 0.641112 -0.190778 -0.023895
v 0.641273 -0.190837 -0.024066
v 0.641434 -0.190896 -0.024237
v 0.641595 -0.190954 -0.024408
v 0.641917 -0.191072 -0.024751
v 0.641756 -0.191013 -0.024580
v 0.646859 -0.192870 -0.036213
v 0.642239 -0.191189 -0.025093
v 0.642078 -0.191130 -0.024922
v 0.642562 -0.191306 -0.025435
v 0.642401 -0.191248 -0.025264
v 0.642723 -0.191365 -0.025607
v 0.673498 -0.045008 -0.036213
v 0.673814 -0.040000 -0.036213
v 0.669413 -0.040000 -0.025607
v 0.669241 -0.040000 -0.025435
v 0.669070 -0.040000 -0.025264
v 0.668898 -0.040000 -0.025093
v 0.668727 -0.040000 -0.024922
v 0.668555 -0.040000 -0.024751
v 0.668384 -0.040000 -0.024580
v 0.668212 -0.040000 -0.024408
v 0.668041 -0.040000 -0.024237
v 0.667869 -0.040000 -0.024066
v 0.667698 -0.040000 -0.023895
v 0.667527 -0.040000 -0.023724
v 0.667355 -0.040000 -0.023553
v 0.667184 -0.040000 -0.023382
v 0.667013 -0.040000 -0.023211
v 0.666841 -0.040000 -0.023040
v 0.666670 -0.040000 -0.022869
v 0.666499 -0.040000 -0.022698
v 0.666327 -0.040000 -0.022527
v 0.666156 -0.040000 -0.022356
v 0.665985 -0.040000 -0.022185
v 0.665814 -0.040000 -0.022014
v 0.665642 -0.040000 -0.021843
v 0.665471 -0.040000 -0.021672
v 0.665300 -0.040000 -0.021501
v 0.665129 -0.040000 -0.021331
v 0.664958 -0.040000 -0.021160
v 0.664787 -0.040000 -0.020989
v 0.664615 -0.040000 -0.020818
v 0.664444 -0.040000 -0.020647
v 0.664273 -0.040000 -0.020476
v 0.664102 -0.040000 -0.020306
v 0.663931 -0.040000 -0.020135
v 0.663760 -0.040000 -0.019964
v 0.663589 -0.040000 -0.019793
v 0.663418 -0.040000 -0.019623
v 0.663247 -0.040000 -0.019452
v 0.663076 -0.040000 -0.019281
v 0.662905 -0.040000 -0.019111
v 0.662734 -0.040000 -0.018940
v 0.662563 -0.040000 -0.018769
v 0.662392 -0.040000 -0.018599
v 0.662221 -0.040000 -0.018428
v 0.662050 -0.040000 -0.018257
v 0.661879 -0.040000 -0.018087
v 0.661708 -0.040000 -0.017916
v 0.661537 -0.040000 -0.017746
v 0.661366 -0.040000 -0.017575
v 0.661196 -0.040000 -0.017404
v 0.661025 -0.040000 -0.017234
v 0.660854 -0.040000 -0.017063
v 0.660683 -0.040000 -0.016893
v 0.660512 -0.040000 -0.016722
v 0.660342 -0.040000 -0.016552
v 0.660171 -0.040000 -0.016381
v 0.660000 -0.000727 -0.015000
v 0.660000 0.000000 -0.015000
v 0.649393 0.000000 -0.004393
v 0.638787 0.000000 0.000000
v 0.635509 -0.064625 0.000000
v -0.635509 -0.064625 0.000000
v -0.638787 0.000000 0.000000
v -0.649393 0.000000 -0.004393
v -0.660000 0.000000 -0.015000
v -0.660000 -0.000727 -0.015000
v -0.660000 -0.039272 -0.016167
v -0.660000 -0.040000 -0.016211
v 0.587152 -0.308161 -0.018107
v -0.649655 -0.183231 -0.036213
v -0.633878 -0.188146 -0.016211
v -0.547807 -0.394376 -0.036213
v -0.531301 -0.393598 -0.016211
v -0.379886 -0.557953 -0.036213
v -0.364641 -0.551577 -0.016211
v -0.166145 -0.654233 -0.036213
v -0.154000 -0.643027 -0.016211
v 0.067636 -0.671603 -0.036213
v 0.075215 -0.656919 -0.016211
v 0.293258 -0.607968 -0.036213
v 0.295359 -0.591577 -0.016211
v 0.483510 -0.471002 -0.036213
v 0.479878 -0.454882 -0.016211
v 0.615443 -0.277227 -0.036213
v 0.606516 -0.263321 -0.016211
v 0.673145 -0.050015 -0.036213
v 0.660000 -0.040000 -0.016211
v 0.660000 -0.001454 -0.015002
v 0.625711 -0.128587 0.000000
v -0.625711 -0.128587 0.000000
v -0.660000 -0.001454 -0.015002
v -0.660000 -0.038544 -0.016125
v -0.650999 -0.178396 -0.036213
v -0.550724 -0.390292 -0.036213
v -0.384024 -0.555113 -0.036213
v -0.171004 -0.652980 -0.036213
v 0.062641 -0.672087 -0.036213
v 0.288730 -0.610131 -0.036213
v 0.479995 -0.474584 -0.036213
v 0.613365 -0.281795 -0.036213
v 0.672754 -0.055018 -0.036213
v 0.660000 -0.002180 -0.015004
v 0.609492 -0.191229 0.000000
v -0.609492 -0.191229 0.000000
v -0.660000 -0.002180 -0.015004
v -0.660000 -0.037817 -0.016083
v -0.673498 -0.045008 -0.036213
v -0.652308 -0.173551 -0.036213
v -0.617487 -0.272644 -0.036213
v -0.553611 -0.386187 -0.036213
v -0.486998 -0.467395 -0.036213
v -0.388140 -0.552243 -0.036213
v -0.297770 -0.605770 -0.036213
v -0.175854 -0.651690 -0.036213
v -0.072627 -0.671081 -0.036213
v 0.057642 -0.672534 -0.036213
v 0.161276 -0.655450 -0.036213
v 0.284186 -0.612261 -0.036213
v 0.375727 -0.560762 -0.036213
v 0.476453 -0.478140 -0.036213
v 0.544860 -0.398438 -0.036213
v 0.611253 -0.286348 -0.036213
v 0.648275 -0.188056 -0.036213
v 0.672326 -0.060018 -0.036213
v 0.660000 -0.002907 -0.015006
v 0.587018 -0.251909 0.000000
v -0.587018 -0.251909 0.000000
v -0.660000 -0.002907 -0.015006
v -0.660000 -0.037089 -0.016041
v -0.587152 -0.308161 -0.018107
v -0.673145 -0.050015 -0.036213
v -0.653580 -0.168696 -0.036213
v -0.556467 -0.382060 -0.036213
v -0.392235 -0.549342 -0.036213
v -0.180695 -0.650365 -0.036213
v 0.052640 -0.672944 -0.036213
v 0.279626 -0.614357 -0.036213
v 0.472885 -0.481669 -0.036213
v 0.609107 -0.290884 -0.036213
v 0.671862 -0.065015 -0.036213
v 0.660000 -0.003634 -0.015010
v 0.558521 -0.310004 0.000000
v -0.558521 -0.310004 0.000000
v -0.660000 -0.003634 -0.015010
v -0.496342 -0.439721 -0.018107
v -0.654816 -0.163832 -0.036213
v -0.559292 -0.377912 -0.036213
v -0.396309 -0.546410 -0.036213
v -0.185525 -0.649003 -0.036213
v 0.047636 -0.673317 -0.036213
v 0.275051 -0.616419 -0.036213
v 0.469291 -0.485171 -0.036213
v 0.606928 -0.295405 -0.036213
v 0.671360 -0.070008 -0.036213
v 0.660000 -0.004361 -0.015014
v 0.524293 -0.364919 0.000000
v -0.524293 -0.364919 0.000000
v -0.660000 -0.004361 -0.015014
v -0.376687 -0.545726 -0.018107
v -0.672754 -0.055018 -0.036213
v -0.656016 -0.158960 -0.036213
v -0.615443 -0.277227 -0.036213
v -0.562086 -0.373744 -0.036213
v -0.483510 -0.471002 -0.036213
v -0.400360 -0.543449 -0.036213
v -0.293258 -0.607968 -0.036213
v -0.190345 -0.647606 -0.036213
v -0.067636 -0.671603 -0.036213
v 0.042629 -0.673653 -0.036213
v 0.166145 -0.654233 -0.036213
v 0.270461 -0.618447 -0.036213
v 0.379886 -0.557953 -0.036213
v 0.465671 -0.488647 -0.036213
v 0.547807 -0.394376 -0.036213
v 0.604715 -0.299909 -0.036213
v 0.649655 -0.183231 -0.036213
v 0.670821 -0.074998 -0.036213
v 0.660000 -0.005088 -0.015020
v 0.484685 -0.416088 0.000000
v -0.484685 -0.416088 0.000000
v -0.660000 -0.005088 -0.015020
v -0.079929 -0.658272 -0.018107
v -0.672326 -0.060018 -0.036213
v -0.657180 -0.154078 -0.036213
v -0.613365 -0.281795 -0.036213
v -0.564849 -0.369554 -0.036213
v -0.479995 -0.474584 -0.036213
v -0.404389 -0.540457 -0.036213
v -0.288730 -0.610131 -0.036213
v -0.195154 -0.646173 -0.036213
v -0.062641 -0.672087 -0.036213
v 0.037619 -0.673951 -0.036213
v 0.171004 -0.652980 -0.036213
v 0.265855 -0.620440 -0.036213
v 0.384024 -0.555113 -0.036213
v 0.462025 -0.492095 -0.036213
v 0.550724 -0.390292 -0.036213
v 0.602468 -0.304396 -0.036213
v 0.650999 -0.178396 -0.036213
v 0.670245 -0.079983 -0.036213
v 0.660000 -0.005815 -0.015026
v 0.440103 -0.462988 0.000000
v -0.440103 -0.462988 0.000000
v -0.660000 -0.005815 -0.015026
v 0.079929 -0.658272 -0.018107
v -0.671862 -0.065015 -0.036213
v -0.658307 -0.149188 -0.036213
v -0.611253 -0.286348 -0.036213
v -0.567581 -0.365345 -0.036213
v -0.476453 -0.478140 -0.036213
v -0.408396 -0.537436 -0.036213
v -0.284186 -0.612261 -0.036213
v -0.199953 -0.644704 -0.036213
v -0.057642 -0.672534 -0.036213
v 0.032607 -0.674212 -0.036213
v 0.175854 -0.651690 -0.036213
v 0.261235 -0.622400 -0.036213
v 0.388140 -0.552243 -0.036213
v 0.458354 -0.495517 -0.036213
v 0.553611 -0.386187 -0.036213
v 0.600188 -0.308867 -0.036213
v 0.652308 -0.173551 -0.036213
v 0.669631 -0.084964 -0.036213
v 0.660000 -0.006542 -0.015032
v 0.391005 -0.505137 0.000000
v -0.391005 -0.505137 0.000000
v -0.660000 -0.006542 -0.015032
v 0.235141 -0.620015 -0.018107
v -0.671360 -0.070008 -0.036213
v -0.659398 -0.144289 -0.036213
v -0.609107 -0.290884 -0.036213
v -0.570282 -0.361115 -0.036213
v -0.472885 -0.481669 -0.036213
v -0.412381 -0.534385 -0.036213
v -0.279626 -0.614357 -0.036213
v -0.204741 -0.643200 -0.036213
v -0.052640 -0.672944 -0.036213
v 0.027594 -0.674436 -0.036213
v 0.180695 -0.650365 -0.036213
v 0.256600 -0.624325 -0.036213
v 0.392235 -0.549342 -0.036213
v 0.454657 -0.498911 -0.036213
v 0.556467 -0.382060 -0.036213
v 0.597875 -0.313321 -0.036213
v 0.653580 -0.168696 -0.036213
v 0.668981 -0.089940 -0.036213
v 0.660000 -0.007269 -0.015040
v 0.337895 -0.542103 0.000000
v -0.337895 -0.542103 0.000000
v -0.660000 -0.007269 -0.015040
v 0.496342 -0.439721 -0.018107
v -0.670821 -0.074998 -0.036213
v -0.660452 -0.139383 -0.036213
v -0.606928 -0.295405 -0.036213
v -0.572951 -0.356865 -0.036213
v -0.469291 -0.485171 -0.036213
v -0.416342 -0.531304 -0.036213
v -0.275051 -0.616419 -0.036213
v -0.209517 -0.641660 -0.036213
v -0.047636 -0.673317 -0.036213
v 0.022579 -0.674622 -0.036213
v 0.185525 -0.649003 -0.036213
v 0.251952 -0.626215 -0.036213
v 0.396309 -0.546410 -0.036213
v 0.450935 -0.502277 -0.036213
v 0.559292 -0.377912 -0.036213
v 0.595529 -0.317757 -0.036213
v 0.654816 -0.163832 -0.036213
v 0.668294 -0.094911 -0.036213
v 0.660000 -0.007995 -0.015048
v 0.281318 -0.573506 0.000000
v -0.281318 -0.573506 0.000000
v -0.660000 -0.007996 -0.015048
v -0.670245 -0.079983 -0.036213
v -0.661470 -0.134469 -0.036213
v -0.604715 -0.299909 -0.036213
v -0.575588 -0.352595 -0.036213
v -0.465671 -0.488647 -0.036213
v -0.420281 -0.528194 -0.036213
v -0.270461 -0.618447 -0.036213
v -0.214282 -0.640085 -0.036213
v -0.042629 -0.673653 -0.036213
v 0.017563 -0.674771 -0.036213
v 0.190345 -0.647606 -0.036213
v 0.247289 -0.628071 -0.036213
v 0.400360 -0.543449 -0.036213
v 0.447189 -0.505616 -0.036213
v 0.562086 -0.373744 -0.036213
v 0.593151 -0.322176 -0.036213
v 0.656016 -0.158960 -0.036213
v 0.667570 -0.099877 -0.036213
v 0.660000 -0.008722 -0.015058
v 0.221854 -0.599024 0.000000
v -0.221854 -0.599024 0.000000
v -0.660000 -0.008723 -0.015058
v -0.662452 -0.129547 -0.036213
v -0.602468 -0.304396 -0.036213
v -0.578193 -0.348306 -0.036213
v -0.462025 -0.492095 -0.036213
v -0.424196 -0.525055 -0.036213
v -0.265855 -0.620440 -0.036213
v -0.219035 -0.638474 -0.036213
v -0.037619 -0.673951 -0.036213
v 0.012545 -0.674883 -0.036213
v 0.195154 -0.646173 -0.036213
v 0.242613 -0.629892 -0.036213
v 0.404389 -0.540457 -0.036213
v 0.443417 -0.508927 -0.036213
v 0.564849 -0.369554 -0.036213
v 0.590739 -0.326577 -0.036213
v 0.657180 -0.154078 -0.036213
v 0.666809 -0.104837 -0.036213
v 0.660000 -0.009449 -0.015068
v 0.160114 -0.618395 0.000000
v -0.160114 -0.618395 0.000000
v -0.660000 -0.009450 -0.015068
v -0.669631 -0.084964 -0.036213
v -0.663397 -0.124618 -0.036213
v -0.600188 -0.308867 -0.036213
v -0.580767 -0.343998 -0.036213
v -0.458354 -0.495517 -0.036213
v -0.428088 -0.521886 -0.036213
v -0.261235 -0.622400 -0.036213
v -0.223776 -0.636828 -0.036213
v -0.032607 -0.674212 -0.036213
v 0.007528 -0.674958 -0.036213
v 0.199953 -0.644704 -0.036213
v 0.237923 -0.631679 -0.036213
v 0.408396 -0.537436 -0.036213
v 0.439621 -0.512209 -0.036213
v 0.567581 -0.365345 -0.036213
v 0.588295 -0.330960 -0.036213
v 0.658307 -0.149188 -0.036213
v 0.666011 -0.109792 -0.036213
v 0.660000 -0.010176 -0.015078
v 0.096730 -0.631421 0.000000
v -0.096730 -0.631421 0.000000
v -0.660000 -0.010177 -0.015078
v -0.668981 -0.089940 -0.036213
v -0.664305 -0.119683 -0.036213
v -0.597875 -0.313321 -0.036213
v -0.583308 -0.339671 -0.036213
v -0.454657 -0.498911 -0.036213
v -0.431956 -0.518689 -0.036213
v -0.256600 -0.624325 -0.036213
v -0.228504 -0.635146 -0.036213
v -0.027594 -0.674436 -0.036213
v 0.002509 -0.674995 -0.036213
v 0.204741 -0.643200 -0.036213
v 0.233220 -0.633430 -0.036213
v 0.412381 -0.534385 -0.036213
v 0.435801 -0.515464 -0.036213
v 0.570282 -0.361115 -0.036213
v 0.585818 -0.335325 -0.036213
v 0.659398 -0.144289 -0.036213
v 0.665176 -0.114741 -0.036213
v 0.660000 -0.010903 -0.015090
v 0.032354 -0.637967 0.000000
v -0.032354 -0.637967 0.000000
v -0.660000 -0.010904 -0.015090
v -0.668294 -0.094911 -0.036213
v -0.665176 -0.114741 -0.036213
v -0.595529 -0.317757 -0.036213
v -0.585818 -0.335325 -0.036213
v -0.450935 -0.502277 -0.036213
v -0.435801 -0.515464 -0.036213
v -0.251952 -0.626215 -0.036213
v -0.233220 -0.633430 -0.036213
v -0.022579 -0.674622 -0.036213
v -0.002509 -0.674995 -0.036213
v 0.209517 -0.641660 -0.036213
v 0.228504 -0.635146 -0.036213
v 0.416342 -0.531304 -0.036213
v 0.431956 -0.518689 -0.036213
v 0.572951 -0.356865 -0.036213
v 0.583308 -0.339671 -0.036213
v 0.660452 -0.139383 -0.036213
v 0.664305 -0.119683 -0.036213
v 0.660000 -0.011631 -0.015102
v -0.667570 -0.099877 -0.036213
v -0.666011 -0.109792 -0.036213
v -0.593151 -0.322176 -0.036213
v -0.588295 -0.330960 -0.036213
v -0.447189 -0.505616 -0.036213
v -0.439621 -0.512209 -0.036213
v -0.247289 -0.628071 -0.036213
v -0.237923 -0.631679 -0.036213
v -0.017563 -0.674771 -0.036213
v -0.007528 -0.674958 -0.036213
v 0.214282 -0.640085 -0.036213
v 0.223776 -0.636828 -0.036213
v 0.420281 -0.528194 -0.036213
v 0.428088 -0.521886 -0.036213
v 0.575588 -0.352595 -0.036213
v 0.580767 -0.343998 -0.036213
v 0.661470 -0.134469 -0.036213
v 0.663397 -0.124618 -0.036213
v 0.660000 -0.012358 -0.015116
v -0.666809 -0.104837 -0.036213
v -0.590739 -0.326577 -0.036213
v -0.443417 -0.508927 -0.036213
v -0.242613 -0.629892 -0.036213
v -0.012545 -0.674883 -0.036213
v 0.219035 -0.638474 -0.036213
v 0.424196 -0.525055 -0.036213
v 0.578193 -0.348306 -0.036213
v 0.662452 -0.129547 -0.036213
v 0.660000 -0.013085 -0.015130
v -0.660000 -0.011631 -0.015102
v 0.660000 -0.013812 -0.015145
v -0.660000 -0.012358 -0.015116
v 0.660000 -0.014539 -0.015160
v -0.660000 -0.013085 -0.015130
v -0.607014 -0.261954 -0.016125
v -0.480813 -0.453767 -0.016125
v -0.296619 -0.590849 -0.016125
v -0.076648 -0.656666 -0.016125
v 0.152568 -0.643280 -0.016125
v 0.363381 -0.552304 -0.016125
v 0.633380 -0.189512 -0.016125
v 0.660000 -0.015266 -0.015177
v -0.660000 -0.013812 -0.015145
v -0.607511 -0.260587 -0.016041
v -0.481748 -0.452653 -0.016041
v -0.297878 -0.590122 -0.016041
v -0.078080 -0.656414 -0.016041
v 0.151135 -0.643532 -0.016041
v 0.362122 -0.553031 -0.016041
v 0.632883 -0.190879 -0.016041
v 0.660000 -0.015993 -0.015194
v -0.660000 -0.014539 -0.015160
v -0.608009 -0.259221 -0.015961
v -0.482683 -0.451539 -0.015961
v -0.299138 -0.589395 -0.015961
v -0.079513 -0.656161 -0.015961
v 0.149703 -0.643785 -0.015961
v 0.360862 -0.553759 -0.015961
v 0.632385 -0.192246 -0.015961
v 0.660000 -0.016720 -0.015212
v -0.660000 -0.015266 -0.015177
v -0.608506 -0.257854 -0.015885
v -0.483618 -0.450425 -0.015885
v -0.300398 -0.588668 -0.015885
v -0.080945 -0.655909 -0.015885
v 0.148270 -0.644038 -0.015885
v 0.359602 -0.554486 -0.015885
v 0.631888 -0.193613 -0.015885
v 0.660000 -0.017448 -0.015231
v -0.660000 -0.015993 -0.015194
v -0.609004 -0.256487 -0.015811
v -0.484553 -0.449310 -0.015811
v -0.301657 -0.587940 -0.015811
v -0.082378 -0.655656 -0.015811
v 0.146838 -0.644290 -0.015811
v 0.358343 -0.555213 -0.015811
v 0.631391 -0.194980 -0.015811
v 0.660000 -0.018175 -0.015250
v -0.660000 -0.016720 -0.015212
v -0.609501 -0.255120 -0.015741
v -0.485488 -0.448196 -0.015741
v -0.302917 -0.587213 -0.015741
v -0.083810 -0.655404 -0.015741
v 0.145405 -0.644543 -0.015741
v 0.357083 -0.555940 -0.015741
v 0.630893 -0.196347 -0.015741
v 0.660000 -0.018902 -0.015271
v -0.660000 -0.017448 -0.015231
v -0.609999 -0.253753 -0.015673
v -0.486423 -0.447082 -0.015673
v -0.304177 -0.586486 -0.015673
v -0.085243 -0.655151 -0.015673
v 0.143973 -0.644795 -0.015673
v 0.355823 -0.556668 -0.015673
v 0.630396 -0.197713 -0.015673
v 0.660000 -0.019629 -0.015292
v -0.660000 -0.018175 -0.015250
v -0.610496 -0.252386 -0.015609
v -0.487358 -0.445968 -0.015609
v -0.305436 -0.585759 -0.015609
v -0.086675 -0.654898 -0.015609
v 0.142541 -0.645048 -0.015609
v 0.354564 -0.557395 -0.015609
v 0.629898 -0.199080 -0.015609
v 0.660000 -0.020357 -0.015314
v -0.660000 -0.018902 -0.015271
v -0.610994 -0.251020 -0.015548
v -0.488292 -0.444853 -0.015548
v -0.306696 -0.585031 -0.015548
v -0.088108 -0.654646 -0.015548
v 0.141108 -0.645300 -0.015548
v 0.353304 -0.558122 -0.015548
v 0.629401 -0.200447 -0.015548
v 0.660000 -0.021084 -0.015337
v -0.660000 -0.019629 -0.015292
v -0.611491 -0.249653 -0.015491
v -0.489227 -0.443739 -0.015491
v -0.307956 -0.584304 -0.015491
v -0.089540 -0.654393 -0.015491
v 0.139676 -0.645553 -0.015491
v 0.352044 -0.558849 -0.015491
v 0.628903 -0.201814 -0.015491
v 0.660000 -0.021811 -0.015360
v -0.660000 -0.020357 -0.015314
v -0.611989 -0.248286 -0.015436
v -0.490162 -0.442625 -0.015436
v -0.309215 -0.583577 -0.015436
v -0.090972 -0.654141 -0.015436
v 0.138243 -0.645806 -0.015436
v 0.350785 -0.559577 -0.015436
v 0.628406 -0.203181 -0.015436
v 0.660000 -0.022538 -0.015385
v -0.660000 -0.021084 -0.015337
v -0.612486 -0.246919 -0.015385
v -0.491097 -0.441511 -0.015385
v -0.310475 -0.582850 -0.015385
v -0.092405 -0.653888 -0.015385
v 0.136811 -0.646058 -0.015385
v 0.349525 -0.560304 -0.015385
v 0.627908 -0.204547 -0.015385
v 0.660000 -0.023266 -0.015410
v -0.660000 -0.021811 -0.015360
v -0.612984 -0.245552 -0.015337
v -0.492032 -0.440396 -0.015337
v -0.311735 -0.582122 -0.015337
v -0.093837 -0.653636 -0.015337
v 0.135378 -0.646311 -0.015337
v 0.348265 -0.561031 -0.015337
v 0.627411 -0.205914 -0.015337
v 0.660000 -0.023993 -0.015436
v -0.660000 -0.022539 -0.015385
v -0.613481 -0.244185 -0.015292
v -0.492967 -0.439282 -0.015292
v -0.312994 -0.581395 -0.015292
v -0.095270 -0.653383 -0.015292
v 0.133946 -0.646563 -0.015292
v 0.347006 -0.561759 -0.015292
v 0.626913 -0.207281 -0.015292
v 0.660000 -0.024721 -0.015463
v -0.660000 -0.023266 -0.015410
v -0.613979 -0.242819 -0.015250
v -0.493902 -0.438168 -0.015250
v -0.314254 -0.580668 -0.015250
v -0.096702 -0.653130 -0.015250
v 0.132513 -0.646816 -0.015250
v 0.345746 -0.562486 -0.015250
v 0.626416 -0.208648 -0.015250
v 0.660000 -0.025448 -0.015490
v -0.660000 -0.023993 -0.015436
v -0.614476 -0.241452 -0.015212
v -0.494837 -0.437054 -0.015212
v -0.315514 -0.579940 -0.015212
v -0.098135 -0.652878 -0.015212
v 0.131081 -0.647068 -0.015212
v 0.344486 -0.563213 -0.015212
v 0.625918 -0.210015 -0.015212
v 0.660000 -0.026175 -0.015519
v -0.660000 -0.024721 -0.015463
v -0.614974 -0.240085 -0.015177
v -0.495772 -0.435939 -0.015177
v -0.316773 -0.579213 -0.015177
v -0.099567 -0.652625 -0.015177
v 0.129649 -0.647321 -0.015177
v 0.343227 -0.563940 -0.015177
v 0.625421 -0.211382 -0.015177
v 0.660000 -0.026903 -0.015548
v -0.660000 -0.025448 -0.015490
v -0.615471 -0.238718 -0.015145
v -0.496707 -0.434825 -0.015145
v -0.318033 -0.578486 -0.015145
v -0.101000 -0.652373 -0.015145
v 0.128216 -0.647574 -0.015145
v 0.341967 -0.564668 -0.015145
v 0.624923 -0.212748 -0.015145
v 0.660000 -0.027630 -0.015578
v -0.660000 -0.026175 -0.015519
v -0.615969 -0.237351 -0.015116
v -0.497642 -0.433711 -0.015116
v -0.319293 -0.577759 -0.015116
v -0.102432 -0.652120 -0.015116
v 0.126784 -0.647826 -0.015116
v 0.340707 -0.565395 -0.015116
v 0.624426 -0.214115 -0.015116
v 0.660000 -0.028358 -0.015609
v -0.660000 -0.026903 -0.015548
v -0.616466 -0.235985 -0.015090
v -0.498577 -0.432597 -0.015090
v -0.320552 -0.577031 -0.015090
v -0.103864 -0.651867 -0.015090
v 0.125351 -0.648079 -0.015090
v 0.339448 -0.566122 -0.015090
v 0.623928 -0.215482 -0.015090
v 0.660000 -0.029085 -0.015641
v -0.660000 -0.027630 -0.015578
v -0.616963 -0.234618 -0.015068
v -0.499512 -0.431482 -0.015068
v -0.321812 -0.576304 -0.015068
v -0.105297 -0.651615 -0.015068
v 0.123919 -0.648331 -0.015068
v 0.338188 -0.566849 -0.015068
v 0.623431 -0.216849 -0.015068
v 0.660000 -0.029813 -0.015673
v -0.660000 -0.028358 -0.015609
v -0.617461 -0.233251 -0.015049
v -0.500447 -0.430368 -0.015049
v -0.323072 -0.575577 -0.015049
v -0.106729 -0.651362 -0.015049
v 0.122486 -0.648584 -0.015049
v 0.336928 -0.567577 -0.015049
v 0.622933 -0.218216 -0.015049
v 0.660000 -0.030540 -0.015706
v -0.660000 -0.029085 -0.015641
v -0.617958 -0.231884 -0.015032
v -0.501382 -0.429254 -0.015032
v -0.324331 -0.574850 -0.015032
v -0.108162 -0.651110 -0.015032
v 0.121054 -0.648837 -0.015032
v 0.335669 -0.568304 -0.015032
v 0.622436 -0.219583 -0.015032
v 0.660000 -0.031268 -0.015740
v -0.660000 -0.029813 -0.015673
v -0.618456 -0.230517 -0.015020
v -0.502317 -0.428140 -0.015020
v -0.325591 -0.574122 -0.015020
v -0.109594 -0.650857 -0.015020
v 0.119621 -0.649089 -0.015020
v 0.334409 -0.569031 -0.015020
v 0.621938 -0.220949 -0.015020
v 0.660000 -0.031995 -0.015775
v -0.660000 -0.030540 -0.015706
v -0.618953 -0.229150 -0.015010
v -0.503252 -0.427025 -0.015010
v -0.326851 -0.573395 -0.015010
v -0.111027 -0.650605 -0.015010
v 0.118189 -0.649342 -0.015010
v 0.333149 -0.569759 -0.015010
v 0.621441 -0.222316 -0.015010
v 0.660000 -0.032723 -0.015811
v -0.660000 -0.031268 -0.015740
v -0.530366 -0.394712 -0.016125
v -0.363381 -0.552304 -0.016125
v -0.152568 -0.643280 -0.016125
v 0.076648 -0.656666 -0.016125
v 0.296619 -0.590849 -0.016125
v 0.480813 -0.453767 -0.016125
v 0.660000 -0.039272 -0.016167
v 0.660000 -0.033451 -0.015847
v -0.660000 -0.031996 -0.015775
v -0.529431 -0.395827 -0.016041
v -0.362122 -0.553031 -0.016041
v -0.151135 -0.643532 -0.016041
v 0.078080 -0.656414 -0.016041
v 0.297878 -0.590122 -0.016041
v 0.481748 -0.452653 -0.016041
v 0.660000 -0.038544 -0.016125
v 0.660000 -0.034178 -0.015884
v -0.660000 -0.032723 -0.015811
v -0.528496 -0.396941 -0.015961
v -0.360862 -0.553759 -0.015961
v -0.149703 -0.643785 -0.015961
v 0.079513 -0.656161 -0.015961
v 0.299138 -0.589395 -0.015961
v 0.482683 -0.451539 -0.015961
v 0.660000 -0.037817 -0.016083
v 0.660000 -0.034906 -0.015922
v -0.660000 -0.033451 -0.015847
v -0.527561 -0.398055 -0.015885
v -0.359602 -0.554486 -0.015885
v -0.148270 -0.644038 -0.015885
v 0.080945 -0.655909 -0.015885
v 0.300398 -0.588668 -0.015885
v 0.483618 -0.450425 -0.015885
v 0.660000 -0.037089 -0.016041
v 0.660000 -0.035634 -0.015961
v -0.660000 -0.034178 -0.015884
v -0.526626 -0.399169 -0.015811
v -0.358343 -0.555213 -0.015811
v -0.146838 -0.644290 -0.015811
v 0.082378 -0.655656 -0.015811
v 0.301657 -0.587940 -0.015811
v 0.484553 -0.449310 -0.015811
v 0.660000 -0.036361 -0.016001
v -0.660000 -0.034906 -0.015922
v -0.619451 -0.227784 -0.015004
v -0.504187 -0.425911 -0.015004
v -0.328110 -0.572668 -0.015004
v -0.112459 -0.650352 -0.015004
v 0.116757 -0.649594 -0.015004
v 0.331890 -0.570486 -0.015004
v -0.660000 -0.035634 -0.015961
v -0.525691 -0.400284 -0.015741
v -0.357083 -0.555940 -0.015741
v -0.145405 -0.644543 -0.015741
v 0.083810 -0.655404 -0.015741
v 0.302917 -0.587213 -0.015741
v 0.485488 -0.448196 -0.015741
v 0.620943 -0.223683 -0.015004
v -0.660000 -0.036361 -0.016001
v -0.524756 -0.401398 -0.015673
v -0.355823 -0.556668 -0.015673
v -0.143973 -0.644795 -0.015673
v 0.085243 -0.655151 -0.015673
v 0.304177 -0.586486 -0.015673
v 0.486423 -0.447082 -0.015673
v 0.620446 -0.225050 -0.015000
v -0.523821 -0.402512 -0.015609
v -0.354564 -0.557395 -0.015609
v -0.142540 -0.645048 -0.015609
v 0.086675 -0.654898 -0.015609
v 0.305436 -0.585759 -0.015609
v 0.487358 -0.445968 -0.015609
v 0.619948 -0.226417 -0.015000
v -0.522886 -0.403626 -0.015548
v -0.353304 -0.558122 -0.015548
v -0.141108 -0.645300 -0.015548
v 0.088108 -0.654646 -0.015548
v 0.306696 -0.585031 -0.015548
v 0.488293 -0.444853 -0.015548
v 0.619451 -0.227783 -0.015004
v -0.521951 -0.404741 -0.015491
v -0.352044 -0.558850 -0.015491
v -0.139676 -0.645553 -0.015491
v 0.089540 -0.654393 -0.015491
v 0.307956 -0.584304 -0.015491
v 0.489228 -0.443739 -0.015491
v 0.618953 -0.229150 -0.015010
v -0.521016 -0.405855 -0.015436
v -0.350785 -0.559577 -0.015436
v -0.138243 -0.645806 -0.015436
v 0.090972 -0.654141 -0.015436
v 0.309215 -0.583577 -0.015436
v 0.490162 -0.442625 -0.015436
v 0.618456 -0.230517 -0.015020
v 0.617958 -0.231884 -0.015032
v -0.619948 -0.226417 -0.015000
v -0.520081 -0.406969 -0.015385
v -0.505122 -0.424797 -0.015000
v -0.349525 -0.560304 -0.015385
v -0.329370 -0.571940 -0.015000
v -0.136811 -0.646058 -0.015385
v -0.113892 -0.650099 -0.015000
v 0.092405 -0.653888 -0.015385
v 0.115324 -0.649847 -0.015000
v 0.310475 -0.582849 -0.015385
v 0.330630 -0.571213 -0.015000
v 0.491097 -0.441511 -0.015385
v 0.617461 -0.233251 -0.015049
v -0.519146 -0.408083 -0.015337
v -0.348265 -0.561031 -0.015337
v -0.135378 -0.646311 -0.015337
v 0.093837 -0.653636 -0.015337
v 0.311735 -0.582122 -0.015337
v 0.492032 -0.440396 -0.015337
v 0.616964 -0.234618 -0.015068
v -0.518211 -0.409198 -0.015292
v -0.347006 -0.561759 -0.015292
v -0.133946 -0.646563 -0.015292
v 0.095270 -0.653383 -0.015292
v 0.312994 -0.581395 -0.015292
v 0.492967 -0.439282 -0.015292
v 0.616466 -0.235984 -0.015090
v -0.517276 -0.410312 -0.015250
v -0.345746 -0.562486 -0.015250
v -0.132513 -0.646816 -0.015250
v 0.096702 -0.653130 -0.015250
v 0.314254 -0.580668 -0.015250
v 0.493902 -0.438168 -0.015250
v 0.615969 -0.237351 -0.015116
v -0.516341 -0.411426 -0.015212
v -0.344486 -0.563213 -0.015212
v -0.131081 -0.647068 -0.015212
v 0.098135 -0.652878 -0.015212
v 0.315514 -0.579940 -0.015212
v 0.494837 -0.437054 -0.015212
v 0.615471 -0.238718 -0.015145
v -0.515406 -0.412540 -0.015177
v -0.343227 -0.563940 -0.015177
v -0.129648 -0.647321 -0.015177
v 0.099567 -0.652625 -0.015177
v 0.316773 -0.579213 -0.015177
v 0.495772 -0.435939 -0.015177
v 0.614974 -0.240085 -0.015177
v -0.514471 -0.413655 -0.015145
v -0.341967 -0.564668 -0.015145
v -0.128216 -0.647574 -0.015145
v 0.101000 -0.652373 -0.015145
v 0.318033 -0.578486 -0.015145
v 0.496707 -0.434825 -0.015145
v 0.614476 -0.241452 -0.015212
v -0.513536 -0.414769 -0.015116
v -0.340707 -0.565395 -0.015116
v -0.126784 -0.647826 -0.015116
v 0.102432 -0.652120 -0.015116
v 0.319293 -0.577759 -0.015116
v 0.497642 -0.433711 -0.015116
v 0.613979 -0.242819 -0.015250
v -0.512602 -0.415883 -0.015090
v -0.339447 -0.566122 -0.015090
v -0.125351 -0.648079 -0.015090
v 0.103865 -0.651867 -0.015090
v 0.320553 -0.577031 -0.015090
v 0.498577 -0.432597 -0.015090
v 0.613481 -0.244185 -0.015292
v -0.511667 -0.416997 -0.015068
v -0.338188 -0.566850 -0.015068
v -0.123919 -0.648331 -0.015068
v 0.105297 -0.651615 -0.015068
v 0.321812 -0.576304 -0.015068
v 0.499512 -0.431482 -0.015068
v 0.612984 -0.245552 -0.015337
v -0.510732 -0.418112 -0.015049
v -0.336928 -0.567577 -0.015049
v -0.122486 -0.648584 -0.015049
v 0.106729 -0.651362 -0.015049
v 0.323072 -0.575577 -0.015049
v 0.500447 -0.430368 -0.015049
v 0.612486 -0.246919 -0.015385
v -0.509797 -0.419226 -0.015032
v -0.335668 -0.568304 -0.015032
v -0.121054 -0.648837 -0.015032
v 0.108162 -0.651110 -0.015032
v 0.324332 -0.574849 -0.015032
v 0.501382 -0.429254 -0.015032
v 0.611989 -0.248286 -0.015436
v -0.508862 -0.420340 -0.015020
v -0.334409 -0.569031 -0.015020
v -0.119621 -0.649089 -0.015020
v 0.109594 -0.650857 -0.015020
v 0.325591 -0.574122 -0.015020
v 0.502317 -0.428140 -0.015020
v 0.611491 -0.249653 -0.015491
v -0.507927 -0.421454 -0.015010
v -0.333149 -0.569759 -0.015010
v -0.118189 -0.649342 -0.015010
v 0.111027 -0.650605 -0.015010
v 0.326851 -0.573395 -0.015010
v 0.503252 -0.427025 -0.015010
v 0.610994 -0.251020 -0.015548
v -0.506992 -0.422568 -0.015004
v -0.331889 -0.570486 -0.015004
v -0.116756 -0.649594 -0.015004
v 0.112459 -0.650352 -0.015004
v 0.328111 -0.572668 -0.015004
v 0.504187 -0.425911 -0.015004
v 0.610496 -0.252386 -0.015609
v -0.506057 -0.423683 -0.015000
v -0.330630 -0.571213 -0.015000
v -0.115324 -0.649847 -0.015000
v 0.113892 -0.650099 -0.015000
v 0.329370 -0.571940 -0.015000
v 0.505122 -0.424797 -0.015000
v -0.633380 -0.189512 -0.016125
v -0.632883 -0.190879 -0.016041
v 0.530366 -0.394712 -0.016125
v -0.632385 -0.192246 -0.015961
v 0.529431 -0.395827 -0.016041
v -0.631888 -0.193613 -0.015885
v 0.528496 -0.396941 -0.015961
v -0.631391 -0.194980 -0.015811
v 0.527561 -0.398055 -0.015885
v -0.630893 -0.196347 -0.015741
v 0.526626 -0.399169 -0.015811
v -0.630396 -0.197713 -0.015673
v 0.525691 -0.400284 -0.015741
v -0.629898 -0.199080 -0.015609
v 0.524756 -0.401398 -0.015673
v -0.629401 -0.200447 -0.015548
v 0.523821 -0.402512 -0.015609
v -0.628903 -0.201814 -0.015491
v 0.522886 -0.403626 -0.015548
v -0.628406 -0.203181 -0.015436
v 0.521951 -0.404741 -0.015491
v -0.627908 -0.204548 -0.015385
v 0.521016 -0.405855 -0.015436
v -0.627411 -0.205914 -0.015337
v 0.520081 -0.406969 -0.015385
v -0.626913 -0.207281 -0.015292
v 0.519146 -0.408083 -0.015337
v -0.626416 -0.208648 -0.015250
v 0.518211 -0.409197 -0.015292
v -0.625918 -0.210015 -0.015212
v 0.517276 -0.410312 -0.015250
v -0.625421 -0.211382 -0.015177
v 0.516341 -0.411426 -0.015212
v -0.624923 -0.212749 -0.015145
v 0.515406 -0.412540 -0.015177
v -0.624426 -0.214115 -0.015116
v 0.514472 -0.413654 -0.015145
v -0.623928 -0.215482 -0.015090
v 0.513537 -0.414769 -0.015116
v -0.623431 -0.216849 -0.015068
v 0.512602 -0.415883 -0.015090
v -0.622933 -0.218216 -0.015049
v 0.511667 -0.416997 -0.015068
v -0.622436 -0.219583 -0.015032
v 0.510732 -0.418111 -0.015049
v -0.621938 -0.220949 -0.015020
v 0.509797 -0.419226 -0.015032
v -0.621441 -0.222316 -0.015010
v 0.508862 -0.420340 -0.015020
v 0.507927 -0.421454 -0.015010
v -0.620943 -0.223683 -0.015004
v 0.607014 -0.261954 -0.016125
v -0.620446 -0.225050 -0.015000
v 0.607511 -0.260587 -0.016041
v 0.608009 -0.259220 -0.015961
v 0.506057 -0.423683 -0.015000
v 0.608506 -0.257854 -0.015885
v 0.506992 -0.422568 -0.015004
v 0.609004 -0.256487 -0.015811
v 0.609999 -0.253753 -0.015673
v 0.609501 -0.255120 -0.015741
f 1 2 3
f 4 5 1
f 6 7 1
f 8 9 1
f 8 10 11
f 11 12 13
f 13 14 15
f 15 16 17
f 17 18 19
f 19 20 21
f 21 22 23
f 23 24 25
f 25 26 27
f 27 28 29
f 29 30 31
f 31 32 33
f 33 34 35
f 35 36 37
f 37 38 39
f 39 40 41
f 41 42 43
f 43 44 45
f 45 46 47
f 47 48 49
f 50 51 52
f 53 54 52
f 55 56 52
f 55 57 52
f 58 59 60
f 60 61 62
f 62 63 64
f 64 65 66
f 66 67 68
f 68 69 70
f 70 71 72
f 72 73 74
f 74 75 76
f 76 77 78
f 78 79 80
f 80 81 82
f 82 83 84
f 84 85 86
f 86 87 88
f 88 89 90
f 90 91 92
f 92 93 94
f 94 95 96
f 96 97 98
f 98 99 100
f 100 101 102
f 102 103 104
f 104 105 106
f 106 107 108
f 108 109 110
f 110 111 112
f 112 113 114
f 115 116 117
f 117 118 119
f 119 120 121
f 121 122 123
f 123 124 125
f 125 126 127
f 127 128 129
f 129 130 131
f 131 132 133
f 133 134 135
f 135 136 137
f 137 138 139
f 139 140 141
f 141 142 143
f 143 144 145
f 145 146 147
f 147 148 149
f 149 150 151
f 151 152 153
f 153 154 155
f 155 156 157
f 157 158 159
f 159 160 161
f 161 162 163
f 164 165 166
f 167 168 166
f 169 170 166
f 169 171 166
f 172 173 174
f 174 175 176
f 176 177 178
f 178 179 180
f 180 181 182
f 182 183 184
f 184 185 186
f 186 187 188
f 188 189 190
f 190 191 192
f 192 193 194
f 194 195 196
f 196 197 198
f 198 199 200
f 200 201 202
f 202 203 204
f 204 205 206
f 206 207 208
f 208 209 210
f 210 211 212
f 212 213 214
f 214 215 216
f 216 217 218
f 218 219 220
f 220 221 222
f 222 223 224
f 224 225 226
f 226 227 228
f 229 230 231
f 231 232 233
f 233 234 235
f 235 236 237
f 237 238 239
f 239 240 241
f 241 242 243
f 243 244 245
f 245 246 247
f 247 248 249
f 249 250 251
f 251 252 253
f 253 254 255
f 255 256 257
f 257 258 259
f 259 260 261
f 261 262 263
f 263 264 265
f 265 266 267
f 267 268 269
f 269 270 271
f 271 272 273
f 273 274 275
f 275 276 277
f 278 279 280
f 281 282 280
f 283 284 280
f 283 285 280
f 286 287 288
f 288 289 290
f 290 291 292
f 292 293 294
f 294 295 296
f 296 297 298
f 298 299 300
f 300 301 302
f 302 303 304
f 304 305 306
f 306 307 308
f 308 309 310
f 310 311 312
f 312 313 314
f 314 315 316
f 316 317 318
f 318 319 320
f 320 321 322
f 322 323 324
f 324 325 326
f 326 327 328
f 328 329 330
f 330 331 332
f 332 333 334
f 334 335 336
f 336 337 338
f 338 339 340
f 340 341 342
f 343 344 345
f 345 346 347
f 347 348 349
f 349 350 351
f 351 352 353
f 353 354 355
f 355 356 357
f 357 358 359
f 359 360 361
f 361 362 363
f 363 364 365
f 365 366 367
f 367 368 369
f 369 370 371
f 371 372 373
f 373 374 375
f 375 376 377
f 377 378 379
f 379 380 381
f 381 382 383
f 383 384 385
f 385 386 387
f 387 388 389
f 389 390 391
f 392 393 394
f 395 396 394
f 397 398 394
f 397 399 394
f 400 401 402
f 402 403 404
f 404 405 406
f 406 407 408
f 408 409 410
f 410 411 412
f 412 413 414
f 414 415 416
f 416 417 418
f 418 419 420
f 420 421 422
f 422 423 424
f 424 425 426
f 426 427 428
f 428 429 430
f 430 431 432
f 432 433 434
f 434 435 436
f 436 437 438
f 438 439 440
f 440 441 442
f 442 443 444
f 444 445 446
f 446 447 448
f 448 449 450
f 450 451 452
f 452 453 454
f 454 455 456
f 457 458 459
f 459 460 461
f 461 462 463
f 463 464 465
f 465 466 467
f 467 468 469
f 469 470 471
f 471 472 473
f 473 474 475
f 475 476 477
f 477 478 479
f 479 480 481
f 481 482 483
f 483 484 485
f 485 486 487
f 487 488 489
f 489 490 491
f 491 492 493
f 493 494 495
f 495 496 497
f 497 498 499
f 499 500 501
f 501 502 503
f 503 504 505
f 506 507 508
f 509 510 508
f 511 512 508
f 511 513 508
f 514 515 516
f 516 517 518
f 518 519 520
f 520 521 522
f 522 523 524
f 524 525 526
f 526 527 528
f 528 529 530
f 530 531 532
f 532 533 534
f 534 535 536
f 536 537 538
f 538 539 540
f 540 541 542
f 542 543 544
f 544 545 546
f 546 547 548
f 548 549 550
f 550 551 552
f 552 553 554
f 554 555 556
f 556 557 558
f 558 559 560
f 560 561 562
f 562 563 564
f 564 565 566
f 566 567 568
f 568 569 570
f 571 572 573
f 573 574 575
f 575 576 577
f 577 578 579
f 579 580 581
f 581 582 583
f 583 584 585
f 585 586 587
f 587 588 589
f 589 590 591
f 591 592 593
f 593 594 595
f 595 596 597
f 597 598 599
f 599 600 601
f 601 602 603
f 603 604 605
f 605 606 607
f 607 608 609
f 609 610 611
f 611 612 613
f 613 614 615
f 615 616 617
f 617 618 619
f 620 621 622
f 623 624 622
f 625 626 622
f 625 627 622
f 628 629 630
f 630 631 632
f 632 633 634
f 634 635 636
f 636 637 638
f 638 639 640
f 640 641 642
f 642 643 644
f 644 645 646
f 646 647 648
f 648 649 650
f 650 651 652
f 652 653 654
f 654 655 656
f 656 657 658
f 658 659 660
f 660 661 662
f 662 663 664
f 664 665 666
f 666 667 668
f 668 669 670
f 670 671 672
f 672 673 674
f 674 675 676
f 676 677 678
f 678 679 680
f 680 681 682
f 682 683 684
f 685 686 687
f 687 688 689
f 689 690 691
f 691 692 693
f 693 694 695
f 695 696 697
f 697 698 699
f 699 700 701
f 701 702 703
f 703 704 705
f 705 706 707
f 707 708 709
f 709 710 711
f 711 712 713
f 713 714 715
f 715 716 717
f 717 718 719
f 719 720 721
f 721 722 723
f 723 724 725
f 725 726 727
f 727 728 729
f 729 730 731
f 731 732 733
f 734 735 736
f 737 738 736
f 739 740 736
f 739 741 736
f 742 743 744
f 744 745 746
f 746 747 748
f 748 749 750
f 750 751 752
f 752 753 754
f 754 755 756
f 756 757 758
f 758 759 760
f 760 761 762
f 762 763 764
f 764 765 766
f 766 767 768
f 768 769 770
f 770 771 772
f 772 773 774
f 774 775 776
f 776 777 778
f 778 779 780
f 780 781 782
f 782 783 784
f 784 785 786
f 786 787 788
f 788 789 790
f 790 791 792
f 792 793 794
f 794 795 796
f 796 797 798
f 799 800 801
f 801 802 803
f 803 804 805
f 805 806 807
f 807 808 809
f 809 810 811
f 811 812 813
f 813 814 815
f 815 816 817
f 817 818 819
f 819 820 821
f 821 822 823
f 823 824 825
f 825 826 827
f 827 828 829
f 829 830 831
f 831 832 833
f 833 834 835
f 835 836 837
f 837 838 839
f 839 840 841
f 841 842 843
f 843 844 845
f 845 846 847
f 848 849 850
f 851 852 850
f 853 854 850
f 853 855 850
f 856 857 858
f 858 859 860
f 860 861 862
f 862 863 864
f 864 865 866
f 866 867 868
f 868 869 870
f 870 871 872
f 872 873 874
f 874 875 876
f 876 877 878
f 878 879 880
f 880 881 882
f 882 883 884
f 884 885 886
f 886 887 888
f 888 889 890
f 890 891 892
f 892 893 894
f 894 895 896
f 896 897 898
f 898 899 900
f 900 901 902
f 902 903 904
f 904 905 906
f 906 907 908
f 908 909 910
f 910 911 912
f 913 914 915
f 915 916 917
f 917 918 919
f 919 920 921
f 921 922 923
f 923 924 925
f 925 926 927
f 927 928 929
f 929 930 931
f 931 932 933
f 933 934 935
f 935 936 937
f 937 938 939
f 939 940 941
f 941 942 943
f 943 944 945
f 945 946 947
f 947 948 949
f 949 950 951
f 951 952 953
f 953 954 955
f 955 956 957
f 957 958 959
f 959 960 961
f 962 963 964
f 965 966 964
f 967 968 964
f 967 969 964
f 970 971 972
f 972 973 974
f 974 975 976
f 976 977 978
f 978 979 980
f 980 981 982
f 982 983 984
f 984 985 986
f 986 987 988
f 988 989 990
f 990 991 992
f 992 993 994
f 994 995 996
f 996 997 998
f 998 999 1000
f 1000 1001 1002
f 1002 1003 1004
f 1004 1005 1006
f 1006 1007 1008
f 1008 1009 1010
f 1010 1011 1012
f 1012 1013 1014
f 1014 1015 1016
f 1016 1017 1018
f 1018 1019 1020
f 1020 1021 1022
f 1022 1023 1024
f 1024 1025 1026
f 1027 1028 1029
f 1029 1030 1031
f 1032 1033 1034
f 1034 1035 1036
f 1037 1038 1039
f 5 3 1
f 9 6 1
f 8 11 13
f 13 15 17
f 17 19 21
f 21 23 25
f 25 27 29
f 29 31 33
f 33 35 37
f 37 39 41
f 41 43 45
f 45 47 49
f 54 50 52
f 56 53 52
f 1040 58 60
f 60 62 64
f 64 66 68
f 68 70 72
f 72 74 76
f 76 78 80
f 80 82 84
f 84 86 88
f 88 90 92
f 92 94 96
f 96 98 100
f 100 102 104
f 104 106 108
f 108 110 112
f 112 114 1041
f 115 117 119
f 119 121 123
f 123 125 127
f 127 129 131
f 131 133 135
f 135 137 139
f 139 141 143
f 143 145 147
f 147 149 151
f 151 153 155
f 155 157 159
f 159 161 163
f 168 164 166
f 170 167 166
f 1042 172 174
f 174 176 178
f 178 180 182
f 182 184 186
f 186 188 190
f 190 192 194
f 194 196 198
f 198 200 202
f 202 204 206
f 206 208 210
f 210 212 214
f 214 216 218
f 218 220 222
f 222 224 226
f 226 228 1043
f 229 231 233
f 233 235 237
f 237 239 241
f 241 243 245
f 245 247 249
f 249 251 253
f 253 255 257
f 257 259 261
f 261 263 265
f 265 267 269
f 269 271 273
f 273 275 277
f 282 278 280
f 284 281 280
f 1044 286 288
f 288 290 292
f 292 294 296
f 296 298 300
f 300 302 304
f 304 306 308
f 308 310 312
f 312 314 316
f 316 318 320
f 320 322 324
f 324 326 328
f 328 330 332
f 332 334 336
f 336 338 340
f 340 342 1045
f 343 345 347
f 347 349 351
f 351 353 355
f 355 357 359
f 359 361 363
f 363 365 367
f 367 369 371
f 371 373 375
f 375 377 379
f 379 381 383
f 383 385 387
f 387 389 391
f 396 392 394
f 398 395 394
f 1046 400 402
f 402 404 406
f 406 408 410
f 410 412 414
f 414 416 418
f 418 420 422
f 422 424 426
f 426 428 430
f 430 432 434
f 434 436 438
f 438 440 442
f 442 444 446
f 446 448 450
f 450 452 454
f 454 456 1047
f 457 459 461
f 461 463 465
f 465 467 469
f 469 471 473
f 473 475 477
f 477 479 481
f 481 483 485
f 485 487 489
f 489 491 493
f 493 495 497
f 497 499 501
f 501 503 505
f 510 506 508
f 512 509 508
f 1048 514 516
f 516 518 520
f 520 522 524
f 524 526 528
f 528 530 532
f 532 534 536
f 536 538 540
f 540 542 544
f 544 546 548
f 548 550 552
f 552 554 556
f 556 558 560
f 560 562 564
f 564 566 568
f 568 570 1049
f 571 573 575
f 575 577 579
f 579 581 583
f 583 585 587
f 587 589 591
f 591 593 595
f 595 597 599
f 599 601 603
f 603 605 607
f 607 609 611
f 611 613 615
f 615 617 619
f 624 620 622
f 626 623 622
f 1050 628 630
f 630 632 634
f 634 636 638
f 638 640 642
f 642 644 646
f 646 648 650
f 650 652 654
f 654 656 658
f 658 660 662
f 662 664 666
f 666 668 670
f 670 672 674
f 674 676 678
f 678 680 682
f 682 684 1051
f 685 687 689
f 689 691 693
f 693 695 697
f 697 699 701
f 701 703 705
f 705 707 709
f 709 711 713
f 713 715 717
f 717 719 721
f 721 723 725
f 725 727 729
f 729 731 733
f 738 734 736
f 740 737 736
f 1052 742 744
f 744 746 748
f 748 750 752
f 752 754 756
f 756 758 760
f 760 762 764
f 764 766 768
f 768 770 772
f 772 774 776
f 776 778 780
f 780 782 784
f 784 786 788
f 788 790 792
f 792 794 796
f 796 798 1053
f 799 801 803
f 803 805 807
f 807 809 811
f 811 813 815
f 815 817 819
f 819 821 823
f 823 825 827
f 827 829 831
f 831 833 835
f 835 837 839
f 839 841 843
f 843 845 847
f 852 848 850
f 854 851 850
f 1054 856 858
f 858 860 862
f 862 864 866
f 866 868 870
f 870 872 874
f 874 876 878
f 878 880 882
f 882 884 886
f 886 888 890
f 890 892 894
f 894 896 898
f 898 900 902
f 902 904 906
f 906 908 910
f 910 912 1055
f 913 915 917
f 917 919 921
f 921 923 925
f 925 927 929
f 929 931 933
f 933 935 937
f 937 939 941
f 941 943 945
f 945 947 949
f 949 951 953
f 953 955 957
f 957 959 961
f 966 962 964
f 968 965 964
f 1056 970 972
f 972 974 976
f 976 978 980
f 980 982 984
f 984 986 988
f 988 990 992
f 992 994 996
f 996 998 1000
f 1000 1002 1004
f 1004 1006 1008
f 1008 1010 1012
f 1012 1014 1016
f 1016 1018 1020
f 1020 1022 1024
f 1024 1026 1057
f 1058 1027 1029
f 1029 1031 1059
f 1060 1032 1034
f 1034 1036 1061
f 1062 1037 1039
f 7 4 1
f 8 13 17
f 17 21 25
f 25 29 33
f 33 37 41
f 41 45 49
f 51 49 52
f 1063 1040 60
f 60 64 68
f 68 72 76
f 76 80 84
f 84 88 92
f 92 96 100
f 100 104 108
f 108 112 1041
f 115 119 123
f 123 127 131
f 131 135 139
f 139 143 147
f 147 151 155
f 155 159 163
f 165 163 166
f 1064 1042 174
f 174 178 182
f 182 186 190
f 190 194 198
f 198 202 206
f 206 210 214
f 214 218 222
f 222 226 1043
f 229 233 237
f 237 241 245
f 245 249 253
f 253 257 261
f 261 265 269
f 269 273 277
f 279 277 280
f 1065 1044 288
f 288 292 296
f 296 300 304
f 304 308 312
f 312 316 320
f 320 324 328
f 328 332 336
f 336 340 1045
f 343 347 351
f 351 355 359
f 359 363 367
f 367 371 375
f 375 379 383
f 383 387 391
f 393 391 394
f 1066 1046 402
f 402 406 410
f 410 414 418
f 418 422 426
f 426 430 434
f 434 438 442
f 442 446 450
f 450 454 1047
f 457 461 465
f 465 469 473
f 473 477 481
f 481 485 489
f 489 493 497
f 497 501 505
f 507 505 508
f 1067 1048 516
f 516 520 524
f 524 528 532
f 532 536 540
f 540 544 548
f 548 552 556
f 556 560 564
f 564 568 1049
f 571 575 579
f 579 583 587
f 587 591 595
f 595 599 603
f 603 607 611
f 611 615 619
f 621 619 622
f 1068 1050 630
f 630 634 638
f 638 642 646
f 646 650 654
f 654 658 662
f 662 666 670
f 670 674 678
f 678 682 1051
f 685 689 693
f 693 697 701
f 701 705 709
f 709 713 717
f 717 721 725
f 725 729 733
f 735 733 736
f 1069 1052 744
f 744 748 752
f 752 756 760
f 760 764 768
f 768 772 776
f 776 780 784
f 784 788 792
f 792 796 1053
f 799 803 807
f 807 811 815
f 815 819 823
f 823 827 831
f 831 835 839
f 839 843 847
f 849 847 850
f 1070 1054 858
f 858 862 866
f 866 870 874
f 874 878 882
f 882 886 890
f 890 894 898
f 898 902 906
f 906 910 1055
f 913 917 921
f 921 925 929
f 929 933 937
f 937 941 945
f 945 949 953
f 953 957 961
f 963 961 964
f 1071 1056 972
f 972 976 980
f 980 984 988
f 988 992 996
f 996 1000 1004
f 1004 1008 1012
f 1012 1016 1020
f 1020 1024 1057
f 1072 1058 1029
f 1029 1059 1073
f 1074 1060 1034
f 1034 1061 1075
f 1076 1062 1039
f 1 8 17
f 17 25 33
f 33 41 49
f 49 52 1077
f 1078 1063 60
f 60 68 76
f 76 84 92
f 92 100 108
f 115 123 131
f 131 139 147
f 147 155 163
f 163 166 1079
f 1080 1064 174
f 174 182 190
f 190 198 206
f 206 214 222
f 229 237 245
f 245 253 261
f 261 269 277
f 277 280 1081
f 1082 1065 288
f 288 296 304
f 304 312 320
f 320 328 336
f 343 351 359
f 359 367 375
f 375 383 391
f 391 394 1083
f 1084 1066 402
f 402 410 418
f 418 426 434
f 434 442 450
f 457 465 473
f 473 481 489
f 489 497 505
f 505 508 1085
f 1086 1067 516
f 516 524 532
f 532 540 548
f 548 556 564
f 571 579 587
f 587 595 603
f 603 611 619
f 619 622 1087
f 1088 1068 630
f 630 638 646
f 646 654 662
f 662 670 678
f 685 693 701
f 701 709 717
f 717 725 733
f 733 736 1089
f 1090 1069 744
f 744 752 760
f 760 768 776
f 776 784 792
f 799 807 815
f 815 823 831
f 831 839 847
f 847 850 1091
f 1092 1070 858
f 858 866 874
f 874 882 890
f 890 898 906
f 913 921 929
f 929 937 945
f 945 953 961
f 961 964 1093
f 1094 1071 972
f 972 980 988
f 988 996 1004
f 1004 1012 1020
f 1095 1072 1029
f 1029 1073 1096
f 1097 1074 1034
f 1034 1075 1098
f 1099 1076 1039
f 1100 1 17
f 17 33 49
f 49 1077 1101
f 1102 1078 60
f 60 76 92
f 92 108 1041
f 115 131 147
f 147 163 1079
f 1103 1080 174
f 174 190 206
f 206 222 1043
f 229 245 261
f 261 277 1081
f 1104 1082 288
f 288 304 320
f 320 336 1045
f 343 359 375
f 375 391 1083
f 1105 1084 402
f 402 418 434
f 434 450 1047
f 457 473 489
f 489 505 1085
f 1106 1086 516
f 516 532 548
f 548 564 1049
f 571 587 603
f 603 619 1087
f 1107 1088 630
f 630 646 662
f 662 678 1051
f 685 701 717
f 717 733 1089
f 1108 1090 744
f 744 760 776
f 776 792 1053
f 799 815 831
f 831 847 1091
f 1109 1092 858
f 858 874 890
f 890 906 1055
f 913 929 945
f 945 961 1093
f 1110 1094 972
f 972 988 1004
f 1004 1020 1057
f 1111 1095 1029
f 1029 1096 1112
f 1113 1097 1034
f 1034 1098 1114
f 1115 1100 17
f 17 49 1101
f 1116 1102 60
f 60 92 1041
f 115 147 1079
f 1117 1103 174
f 174 206 1043
f 229 261 1081
f 1118 1104 288
f 288 320 1045
f 343 375 1083
f 1119 1105 402
f 402 434 1047
f 457 489 1085
f 1120 1106 516
f 516 548 1049
f 571 603 1087
f 1121 1107 630
f 630 662 1051
f 685 717 1089
f 1122 1108 744
f 744 776 1053
f 799 831 1091
f 1123 1109 858
f 858 890 1055
f 913 945 1093
f 1124 1110 972
f 972 1004 1057
f 1125 1111 1029
f 1029 1112 1126
f 1127 1113 1034
f 1034 1114 1128
f 1129 1115 17
f 17 1101 1130
f 1131 1116 60
f 115 1079 1132
f 1133 1117 174
f 229 1081 1134
f 1135 1118 288
f 343 1083 1136
f 1137 1119 402
f 457 1085 1138
f 1139 1120 516
f 571 1087 1140
f 1141 1121 630
f 685 1089 1142
f 1143 1122 744
f 799 1091 1144
f 1145 1123 858
f 913 1093 1146
f 1147 1124 972
f 1148 1125 1029
f 1029 1126 1149
f 1150 1127 1034
f 1034 1128 1151
f 1152 1129 17
f 17 1130 1153
f 1154 1131 60
f 115 1132 1155
f 1156 1133 174
f 229 1134 1157
f 1158 1135 288
f 343 1136 1159
f 1160 1137 402
f 457 1138 1161
f 1162 1139 516
f 571 1140 1163
f 1164 1141 630
f 685 1142 1165
f 1166 1143 744
f 799 1144 1167
f 1168 1145 858
f 913 1146 1169
f 1170 1147 972
f 1171 1148 1029
f 1029 1149 1172
f 1173 1150 1034
f 1034 1151 1174
f 1175 1152 17
f 17 1153 1176
f 1177 1154 60
f 115 1155 1178
f 1179 1156 174
f 229 1157 1180
f 1181 1158 288
f 343 1159 1182
f 1183 1160 402
f 457 1161 1184
f 1185 1162 516
f 571 1163 1186
f 1187 1164 630
f 685 1165 1188
f 1189 1166 744
f 799 1167 1190
f 1191 1168 858
f 913 1169 1192
f 1193 1170 972
f 1194 1171 1029
f 1029 1172 1195
f 1196 1173 1034
f 1034 1174 1197
f 1198 1175 17
f 17 1176 1199
f 1200 1177 60
f 115 1178 1201
f 1202 1179 174
f 229 1180 1203
f 1204 1181 288
f 343 1182 1205
f 1206 1183 402
f 457 1184 1207
f 1208 1185 516
f 571 1186 1209
f 1210 1187 630
f 685 1188 1211
f 1212 1189 744
f 799 1190 1213
f 1214 1191 858
f 913 1192 1215
f 1216 1193 972
f 1217 1194 1029
f 1029 1195 1218
f 1219 1196 1034
f 1034 1197 1220
f 1221 1198 17
f 17 1199 1222
f 1223 1200 60
f 115 1201 1224
f 1225 1202 174
f 229 1203 1226
f 1227 1204 288
f 343 1205 1228
f 1229 1206 402
f 457 1207 1230
f 1231 1208 516
f 571 1209 1232
f 1233 1210 630
f 685 1211 1234
f 1235 1212 744
f 799 1213 1236
f 1237 1214 858
f 913 1215 1238
f 1239 1216 972
f 1240 1217 1029
f 1029 1218 1241
f 1242 1219 1034
f 1034 1220 1243
f 1039 1221 17
f 17 1222 1244
f 1245 1223 60
f 115 1224 1246
f 1247 1225 174
f 229 1226 1248
f 1249 1227 288
f 343 1228 1250
f 1251 1229 402
f 457 1230 1252
f 1253 1231 516
f 571 1232 1254
f 1255 1233 630
f 685 1234 1256
f 1257 1235 744
f 799 1236 1258
f 1259 1237 858
f 913 1238 1260
f 1261 1239 972
f 1262 1240 1029
f 1029 1241 1263
f 1264 1242 1034
f 1034 1243 1265
f 1039 17 1244
f 1266 1245 60
f 115 1246 1267
f 1268 1247 174
f 229 1248 1269
f 1270 1249 288
f 343 1250 1271
f 1272 1251 402
f 457 1252 1273
f 1274 1253 516
f 571 1254 1275
f 1276 1255 630
f 685 1256 1277
f 1278 1257 744
f 799 1258 1279
f 1280 1259 858
f 913 1260 1281
f 1282 1261 972
f 1283 1262 1029
f 1029 1263 1284
f 1285 1264 1034
f 1034 1265 1286
f 1039 1244 1287
f 1288 1266 60
f 115 1267 1289
f 1290 1268 174
f 229 1269 1291
f 1292 1270 288
f 343 1271 1293
f 1294 1272 402
f 457 1273 1295
f 1296 1274 516
f 571 1275 1297
f 1298 1276 630
f 685 1277 1299
f 1300 1278 744
f 799 1279 1301
f 1302 1280 858
f 913 1281 1303
f 1304 1282 972
f 1305 1283 1029
f 1029 1284 1306
f 1307 1285 1034
f 1034 1286 1308
f 1039 1287 1309
f 1310 1288 60
f 115 1289 1311
f 1312 1290 174
f 229 1291 1313
f 1314 1292 288
f 343 1293 1315
f 1316 1294 402
f 457 1295 1317
f 1318 1296 516
f 571 1297 1319
f 1320 1298 630
f 685 1299 1321
f 1322 1300 744
f 799 1301 1323
f 1324 1302 858
f 913 1303 1325
f 1326 1304 972
f 1327 1305 1029
f 1029 1306 1328
f 1329 1307 1034
f 1034 1308 1330
f 1039 1309 1331
f 1332 1310 60
f 115 1311 1333
f 1334 1312 174
f 229 1313 1335
f 1336 1314 288
f 343 1315 1337
f 1338 1316 402
f 457 1317 1339
f 1340 1318 516
f 571 1319 1341
f 1342 1320 630
f 685 1321 1343
f 1344 1322 744
f 799 1323 1345
f 1346 1324 858
f 913 1325 1347
f 1348 1326 972
f 1349 1327 1029
f 1029 1328 1329
f 1329 1034 1330
f 1039 1331 1350
f 1351 1332 60
f 115 1333 1352
f 1353 1334 174
f 229 1335 1354
f 1355 1336 288
f 343 1337 1356
f 1357 1338 402
f 457 1339 1358
f 1359 1340 516
f 571 1341 1360
f 1361 1342 630
f 685 1343 1362
f 1363 1344 744
f 799 1345 1364
f 1365 1346 858
f 913 1347 1366
f 1367 1348 972
f 1368 1349 1029
f 1029 1329 1330
f 1039 1350 1369
f 1369 1351 60
f 115 1352 1370
f 1370 1353 174
f 229 1354 1371
f 1371 1355 288
f 343 1356 1372
f 1372 1357 402
f 457 1358 1373
f 1373 1359 516
f 571 1360 1374
f 1374 1361 630
f 685 1362 1375
f 1375 1363 744
f 799 1364 1376
f 1376 1365 858
f 913 1366 1377
f 1377 1367 972
f 1378 1368 1029
f 1029 1330 1379
f 1369 60 1041
f 115 1370 174
f 229 1371 288
f 343 1372 402
f 457 1373 516
f 571 1374 630
f 685 1375 744
f 799 1376 858
f 913 1377 972
f 1380 1378 1029
f 1029 1379 1381
f 115 174 1043
f 229 288 1045
f 343 402 1047
f 457 516 1049
f 571 630 1051
f 685 744 1053
f 913 972 1057
f 1382 1380 1029
f 1029 1381 1383
f 1384 115 1043
f 1385 229 1045
f 1386 343 1047
f 1387 457 1049
f 1388 571 1051
f 1389 685 1053
f 1390 913 1057
f 1391 1382 1029
f 1029 1383 1392
f 1393 1384 1043
f 1394 1385 1045
f 1395 1386 1047
f 1396 1387 1049
f 1397 1388 1051
f 1398 1389 1053
f 1399 1390 1057
f 1400 1391 1029
f 1029 1392 1401
f 1402 1393 1043
f 1403 1394 1045
f 1404 1395 1047
f 1405 1396 1049
f 1406 1397 1051
f 1407 1398 1053
f 1408 1399 1057
f 1409 1400 1029
f 1029 1401 1410
f 1411 1402 1043
f 1412 1403 1045
f 1413 1404 1047
f 1414 1405 1049
f 1415 1406 1051
f 1416 1407 1053
f 1417 1408 1057
f 1418 1409 1029
f 1029 1410 1419
f 1420 1411 1043
f 1421 1412 1045
f 1422 1413 1047
f 1423 1414 1049
f 1424 1415 1051
f 1425 1416 1053
f 1426 1417 1057
f 1427 1418 1029
f 1029 1419 1428
f 1429 1420 1043
f 1430 1421 1045
f 1431 1422 1047
f 1432 1423 1049
f 1433 1424 1051
f 1434 1425 1053
f 1435 1426 1057
f 1436 1427 1029
f 1029 1428 1437
f 1438 1429 1043
f 1439 1430 1045
f 1440 1431 1047
f 1441 1432 1049
f 1442 1433 1051
f 1443 1434 1053
f 1444 1435 1057
f 1445 1436 1029
f 1029 1437 1446
f 1447 1438 1043
f 1448 1439 1045
f 1449 1440 1047
f 1450 1441 1049
f 1451 1442 1051
f 1452 1443 1053
f 1453 1444 1057
f 1454 1445 1029
f 1029 1446 1455
f 1456 1447 1043
f 1457 1448 1045
f 1458 1449 1047
f 1459 1450 1049
f 1460 1451 1051
f 1461 1452 1053
f 1462 1453 1057
f 1463 1454 1029
f 1029 1455 1464
f 1465 1456 1043
f 1466 1457 1045
f 1467 1458 1047
f 1468 1459 1049
f 1469 1460 1051
f 1470 1461 1053
f 1471 1462 1057
f 1472 1463 1029
f 1029 1464 1473
f 1474 1465 1043
f 1475 1466 1045
f 1476 1467 1047
f 1477 1468 1049
f 1478 1469 1051
f 1479 1470 1053
f 1480 1471 1057
f 1481 1472 1029
f 1029 1473 1482
f 1483 1474 1043
f 1484 1475 1045
f 1485 1476 1047
f 1486 1477 1049
f 1487 1478 1051
f 1488 1479 1053
f 1489 1480 1057
f 1490 1481 1029
f 1029 1482 1491
f 1492 1483 1043
f 1493 1484 1045
f 1494 1485 1047
f 1495 1486 1049
f 1496 1487 1051
f 1497 1488 1053
f 1498 1489 1057
f 1499 1490 1029
f 1029 1491 1500
f 1501 1492 1043
f 1502 1493 1045
f 1503 1494 1047
f 1504 1495 1049
f 1505 1496 1051
f 1506 1497 1053
f 1507 1498 1057
f 1508 1499 1029
f 1029 1500 1509
f 1510 1501 1043
f 1511 1502 1045
f 1512 1503 1047
f 1513 1504 1049
f 1514 1505 1051
f 1515 1506 1053
f 1516 1507 1057
f 1517 1508 1029
f 1029 1509 1518
f 1519 1510 1043
f 1520 1511 1045
f 1521 1512 1047
f 1522 1513 1049
f 1523 1514 1051
f 1524 1515 1053
f 1525 1516 1057
f 1526 1517 1029
f 1029 1518 1527
f 1528 1519 1043
f 1529 1520 1045
f 1530 1521 1047
f 1531 1522 1049
f 1532 1523 1051
f 1533 1524 1053
f 1534 1525 1057
f 1535 1526 1029
f 1029 1527 1536
f 1537 1528 1043
f 1538 1529 1045
f 1539 1530 1047
f 1540 1531 1049
f 1541 1532 1051
f 1542 1533 1053
f 1543 1534 1057
f 1544 1535 1029
f 1029 1536 1545
f 1546 1537 1043
f 1547 1538 1045
f 1548 1539 1047
f 1549 1540 1049
f 1550 1541 1051
f 1551 1542 1053
f 1552 1543 1057
f 1553 1544 1029
f 1029 1545 1554
f 1555 1546 1043
f 1556 1547 1045
f 1557 1548 1047
f 1558 1549 1049
f 1559 1550 1051
f 1560 1551 1053
f 1561 1552 1057
f 1562 1553 1029
f 1029 1554 1563
f 1564 1555 1043
f 1565 1556 1045
f 1566 1557 1047
f 1567 1558 1049
f 1568 1559 1051
f 1569 1560 1053
f 1570 1561 1057
f 1571 1562 1029
f 1029 1563 1572
f 1573 1564 1043
f 1574 1565 1045
f 1575 1566 1047
f 1576 1567 1049
f 1577 1568 1051
f 1578 1569 1053
f 1579 1570 1057
f 1580 1571 1029
f 1029 1572 1581
f 1582 1573 1043
f 1583 1574 1045
f 1584 1575 1047
f 1585 1576 1049
f 1586 1577 1051
f 1587 1578 1053
f 1588 1579 1057
f 1589 1580 1029
f 1029 1581 1590
f 1591 1582 1043
f 1592 1583 1045
f 1593 1584 1047
f 1594 1585 1049
f 1595 1586 1051
f 1596 1587 1053
f 1597 1588 1057
f 1598 1589 1029
f 1029 1590 1599
f 1600 1591 1043
f 1601 1592 1045
f 1602 1593 1047
f 1603 1594 1049
f 1604 1595 1051
f 1605 1596 1053
f 1606 1597 1057
f 1607 1598 1029
f 1029 1599 1608
f 1600 1043 1609
f 1601 1045 1610
f 1602 1047 1611
f 1603 1049 1612
f 1604 1051 1613
f 1605 1053 1614
f 1606 1057 1615
f 1616 1607 1029
f 1029 1608 1617
f 1600 1609 1618
f 1601 1610 1619
f 1602 1611 1620
f 1603 1612 1621
f 1604 1613 1622
f 1605 1614 1623
f 1606 1615 1624
f 1625 1616 1029
f 1029 1617 1626
f 1600 1618 1627
f 1601 1619 1628
f 1602 1620 1629
f 1603 1621 1630
f 1604 1622 1631
f 1605 1623 1632
f 1606 1624 1633
f 1634 1625 1029
f 1029 1626 1635
f 1600 1627 1636
f 1601 1628 1637
f 1602 1629 1638
f 1603 1630 1639
f 1604 1631 1640
f 1605 1632 1641
f 1606 1633 1642
f 1643 1634 1029
f 1029 1635 1644
f 1600 1636 1645
f 1601 1637 1646
f 1602 1638 1647
f 1603 1639 1648
f 1604 1640 1649
f 1605 1641 1650
f 1606 1642 1651
f 1651 1643 1029
f 1029 1644 1652
f 1653 1600 1645
f 1654 1601 1646
f 1655 1602 1647
f 1656 1603 1648
f 1657 1604 1649
f 1658 1605 1650
f 1606 1651 1029
f 1029 1652 1659
f 1653 1645 1660
f 1654 1646 1661
f 1655 1647 1662
f 1656 1648 1663
f 1657 1649 1664
f 1658 1650 1665
f 1666 1606 1029
f 1029 1659 1667
f 1653 1660 1668
f 1654 1661 1669
f 1655 1662 1670
f 1656 1663 1671
f 1657 1664 1672
f 1658 1665 1673
f 1674 1666 1029
f 1029 1667 1099
f 1653 1668 1675
f 1654 1669 1676
f 1655 1670 1677
f 1656 1671 1678
f 1657 1672 1679
f 1658 1673 1680
f 1681 1674 1029
f 1653 1675 1682
f 1654 1676 1683
f 1655 1677 1684
f 1656 1678 1685
f 1657 1679 1686
f 1658 1680 1687
f 1688 1681 1029
f 1653 1682 1689
f 1654 1683 1690
f 1655 1684 1691
f 1656 1685 1692
f 1657 1686 1693
f 1658 1687 1694
f 1695 1688 1029
f 1653 1689 1696
f 1654 1690 1697
f 1655 1691 1698
f 1656 1692 1699
f 1657 1693 1700
f 1658 1694 1701
f 1702 1695 1029
f 1703 1702 1029
f 1704 1696 1705
f 1706 1697 1707
f 1708 1698 1709
f 1710 1699 1711
f 1712 1700 1713
f 1714 1701 1715
f 1716 1703 1029
f 1704 1705 1717
f 1706 1707 1718
f 1708 1709 1719
f 1710 1711 1720
f 1712 1713 1721
f 1714 1715 1722
f 1723 1716 1029
f 1704 1717 1724
f 1706 1718 1725
f 1708 1719 1726
f 1710 1720 1727
f 1712 1721 1728
f 1714 1722 1729
f 1730 1723 1029
f 1704 1724 1731
f 1706 1725 1732
f 1708 1726 1733
f 1710 1727 1734
f 1712 1728 1735
f 1714 1729 1736
f 1737 1730 1029
f 1704 1731 1738
f 1706 1732 1739
f 1708 1733 1740
f 1710 1734 1741
f 1712 1735 1742
f 1714 1736 1743
f 1744 1737 1029
f 1704 1738 1745
f 1706 1739 1746
f 1708 1740 1747
f 1710 1741 1748
f 1712 1742 1749
f 1714 1743 1750
f 1751 1744 1029
f 1704 1745 1752
f 1706 1746 1753
f 1708 1747 1754
f 1710 1748 1755
f 1712 1749 1756
f 1714 1750 1757
f 1758 1751 1029
f 1704 1752 1759
f 1706 1753 1760
f 1708 1754 1761
f 1710 1755 1762
f 1712 1756 1763
f 1714 1757 1764
f 1765 1758 1029
f 1704 1759 1766
f 1706 1760 1767
f 1708 1761 1768
f 1710 1762 1769
f 1712 1763 1770
f 1714 1764 1771
f 1772 1765 1029
f 1704 1766 1773
f 1706 1767 1774
f 1708 1768 1775
f 1710 1769 1776
f 1712 1770 1777
f 1714 1771 1778
f 1779 1772 1029
f 1704 1773 1780
f 1706 1774 1781
f 1708 1775 1782
f 1710 1776 1783
f 1712 1777 1784
f 1714 1778 1785
f 1786 1779 1029
f 1704 1780 1787
f 1706 1781 1788
f 1708 1782 1789
f 1710 1783 1790
f 1712 1784 1791
f 1714 1785 1792
f 1793 1786 1029
f 1704 1787 1794
f 1706 1788 1795
f 1708 1789 1796
f 1710 1790 1797
f 1712 1791 1798
f 1714 1792 1799
f 1800 1793 1029
f 1704 1794 1801
f 1706 1795 1802
f 1708 1796 1803
f 1710 1797 1804
f 1712 1798 1805
f 1714 1799 1806
f 1807 1800 1029
f 1704 1801 1808
f 1706 1802 1809
f 1708 1803 1810
f 1710 1804 1811
f 1712 1805 1812
f 1714 1806 1813
f 1814 1807 1029
f 1704 1808 1815
f 1706 1809 1816
f 1708 1810 1817
f 1710 1811 1818
f 1712 1812 1819
f 1714 1813 1820
f 1099 1039 1041
f 1099 1041 1821
f 799 858 1055
f 1099 1821 1822
f 1823 799 1055
f 1099 1822 1824
f 1825 1823 1055
f 1099 1824 1826
f 1827 1825 1055
f 1099 1826 1828
f 1829 1827 1055
f 1099 1828 1830
f 1831 1829 1055
f 1099 1830 1832
f 1833 1831 1055
f 1099 1832 1834
f 1835 1833 1055
f 1099 1834 1836
f 1837 1835 1055
f 1099 1836 1838
f 1839 1837 1055
f 1099 1838 1840
f 1841 1839 1055
f 1099 1840 1842
f 1843 1841 1055
f 1099 1842 1844
f 1845 1843 1055
f 1099 1844 1846
f 1847 1845 1055
f 1099 1846 1848
f 1849 1847 1055
f 1099 1848 1850
f 1851 1849 1055
f 1099 1850 1852
f 1853 1851 1055
f 1099 1852 1854
f 1855 1853 1055
f 1099 1854 1856
f 1857 1855 1055
f 1099 1856 1858
f 1859 1857 1055
f 1099 1858 1860
f 1861 1859 1055
f 1099 1860 1862
f 1863 1861 1055
f 1099 1862 1864
f 1865 1863 1055
f 1099 1864 1866
f 1867 1865 1055
f 1099 1866 1868
f 1869 1867 1055
f 1029 1099 1868
f 1870 1869 1055
f 1029 1868 1871
f 1870 1055 1872
f 1029 1871 1873
f 1870 1872 1874
f 1873 1704 1029
f 1704 1815 1029
f 1815 1706 1029
f 1706 1816 1029
f 1816 1708 1029
f 1708 1817 1029
f 1817 1710 1029
f 1710 1818 1029
f 1818 1712 1029
f 1712 1819 1029
f 1819 1714 1029
f 1714 1820 1029
f 1870 1874 1875
f 1029 1820 1876
f 1870 1875 1877
f 1029 1876 1878
f 1870 1877 1879
f 1814 1029 1878
f 1878 1870 1879
f 1880 1814 1878
f 1878 1879 1881
f 1881 1880 1878
f 1704 1653 1696
f 1706 1654 1697
f 1708 1655 1698
f 1710 1656 1699
f 1712 1657 1700
f 1714 1658 1701
f 1038 2 3
