v 0.353110 0.509153 -1.097769
v 0.350816 0.510736 -1.097769
v 0.356770 0.519245 -1.095000
v 0.365908 0.512846 -1.095000
v 0.366221 0.512623 -1.095000
v 0.364872 0.510454 -1.095680
v 0.296008 0.399680 -1.130371
v 0.294759 0.397671 -1.131000
v 0.294066 0.398183 -1.131000
v 0.273593 0.412519 -1.131000
v 0.272875 0.412994 -1.131000
v 0.274334 0.414853 -1.130372
v 0.282381 0.419135 -1.128231
v 0.280493 0.420401 -1.128231
v 0.305260 0.415734 -1.125462
v 0.288184 0.427748 -1.125462
v 0.286257 0.429040 -1.125462
v 0.309495 0.425500 -1.122692
v 0.295946 0.435033 -1.122692
v 0.293986 0.436360 -1.122692
v 0.315604 0.433899 -1.119923
v 0.301787 0.443619 -1.119923
v 0.299788 0.444972 -1.119923
v 0.321712 0.442297 -1.117154
v 0.307628 0.452206 -1.117154
v 0.305591 0.453585 -1.117154
v 0.327820 0.450695 -1.114385
v 0.313469 0.460792 -1.114385
v 0.311393 0.462197 -1.114385
v 0.331860 0.460590 -1.111615
v 0.321418 0.467937 -1.111615
v 0.319310 0.469378 -1.111615
v 0.337931 0.469015 -1.108846
v 0.327298 0.476497 -1.108846
v 0.325151 0.477964 -1.108846
v 0.344002 0.477441 -1.106077
v 0.333177 0.485056 -1.106077
v 0.330992 0.486550 -1.106077
v 0.347883 0.487436 -1.103308
v 0.341274 0.492086 -1.103308
v 0.339057 0.493616 -1.103308
v 0.353916 0.495889 -1.100538
v 0.347192 0.500619 -1.100538
v 0.344937 0.502176 -1.100538
v 0.359949 0.504341 -1.097769
v 0.355397 0.507559 -1.097769
v 0.365595 0.513070 -1.095000
v 0.297259 0.401693 -1.129741
v 0.274311 0.412042 -1.131000
v 0.284264 0.417861 -1.128231
v 0.290105 0.426447 -1.125462
v 0.297900 0.433698 -1.122692
v 0.303779 0.442257 -1.119923
v 0.309659 0.450817 -1.117154
v 0.315539 0.459377 -1.114385
v 0.323520 0.466486 -1.111615
v 0.329438 0.475020 -1.108846
v 0.335356 0.483553 -1.106077
v 0.343484 0.490546 -1.103308
v 0.349440 0.499053 -1.100538
v 0.357676 0.505955 -1.097769
v 0.365281 0.513293 -1.095000
v 0.298512 0.403709 -1.129110
v 0.275028 0.411563 -1.131000
v 0.286141 0.416578 -1.128231
v 0.292020 0.425138 -1.125462
v 0.299848 0.432353 -1.122692
v 0.305766 0.440886 -1.119923
v 0.311684 0.449420 -1.117154
v 0.317602 0.457953 -1.114385
v 0.325615 0.465026 -1.111615
v 0.331571 0.473533 -1.108846
v 0.337528 0.482039 -1.106077
v 0.345687 0.488996 -1.103308
v 0.351682 0.497476 -1.100538
v 0.364968 0.513516 -1.095000
v 0.299767 0.405728 -1.128479
v 0.275745 0.411084 -1.131000
v 0.288012 0.415287 -1.128231
v 0.293930 0.423820 -1.125462
v 0.301789 0.431000 -1.122692
v 0.307746 0.439507 -1.119923
v 0.313702 0.448013 -1.117154
v 0.319659 0.456520 -1.114385
v 0.327703 0.463557 -1.111615
v 0.333698 0.472037 -1.108846
v 0.339693 0.480516 -1.106077
v 0.357087 0.519027 -1.095000
v 0.364654 0.513738 -1.095000
v 0.301024 0.407749 -1.127846
v 0.276460 0.410603 -1.131000
v 0.289877 0.413987 -1.128231
v 0.295833 0.422493 -1.125462
v 0.303725 0.429638 -1.122692
v 0.309720 0.438118 -1.119923
v 0.315714 0.446598 -1.117154
v 0.321709 0.455077 -1.114385
v 0.329785 0.462078 -1.111615
v 0.335818 0.470531 -1.108846
v 0.341851 0.478983 -1.106077
v 0.357404 0.518809 -1.095000
v 0.364341 0.513961 -1.095000
v 0.302282 0.409774 -1.127212
v 0.277174 0.410121 -1.131000
v 0.291736 0.412679 -1.128231
v 0.297731 0.421158 -1.125462
v 0.305655 0.428268 -1.122692
v 0.311687 0.436720 -1.119923
v 0.317720 0.445173 -1.117154
v 0.323753 0.453626 -1.114385
v 0.357721 0.518590 -1.095000
v 0.364027 0.514183 -1.095000
v 0.303543 0.411802 -1.126577
v 0.277888 0.409638 -1.131000
v 0.354873 0.517450 -1.095681
v 0.356453 0.519463 -1.095000
v 0.299114 0.407363 -1.128231
v 0.293589 0.411362 -1.128231
v 0.299622 0.419815 -1.125462
v 0.307578 0.426888 -1.122692
v 0.313649 0.435314 -1.119923
v 0.319719 0.443739 -1.117154
v 0.325790 0.452165 -1.114385
v 0.358037 0.518372 -1.095000
v 0.363713 0.514406 -1.095000
v 0.304805 0.413833 -1.125942
v 0.278601 0.409153 -1.131000
v 0.353296 0.515441 -1.096361
v 0.295437 0.410037 -1.128231
v 0.301507 0.418463 -1.125462
v 0.358354 0.518153 -1.095000
v 0.363399 0.514628 -1.095000
v 0.306069 0.415866 -1.125305
v 0.279313 0.408668 -1.131000
v 0.351721 0.513434 -1.097039
v 0.297278 0.408704 -1.128231
v 0.303387 0.417102 -1.125462
v 0.358670 0.517934 -1.095000
v 0.363084 0.514849 -1.095000
v 0.307335 0.417903 -1.124668
v 0.280024 0.408181 -1.131000
v 0.350148 0.511430 -1.097717
v 0.358986 0.517715 -1.095000
v 0.362770 0.515071 -1.095000
v 0.308603 0.419943 -1.124029
v 0.280734 0.407692 -1.131000
v 0.348578 0.509429 -1.098394
v 0.359302 0.517496 -1.095000
v 0.362455 0.515292 -1.095000
v 0.309873 0.421985 -1.123390
v 0.281444 0.407203 -1.131000
v 0.347009 0.507431 -1.099070
v 0.359618 0.517276 -1.095000
v 0.362141 0.515514 -1.095000
v 0.311144 0.424031 -1.122749
v 0.282153 0.406712 -1.131000
v 0.345443 0.505436 -1.099745
v 0.359934 0.517057 -1.095000
v 0.361826 0.515735 -1.095000
v 0.312418 0.426080 -1.122108
v 0.282860 0.406220 -1.131000
v 0.343879 0.503443 -1.100419
v 0.360249 0.516837 -1.095000
v 0.361511 0.515955 -1.095000
v 0.313693 0.428131 -1.121466
v 0.283567 0.405727 -1.131000
v 0.342317 0.501453 -1.101092
v 0.360565 0.516617 -1.095000
v 0.361196 0.516176 -1.095000
v 0.314970 0.430186 -1.120822
v 0.284273 0.405233 -1.131000
v 0.340758 0.499466 -1.101764
v 0.360880 0.516397 -1.095000
v 0.316249 0.432244 -1.120178
v 0.284978 0.404737 -1.131000
v 0.339200 0.497482 -1.102435
v 0.317530 0.434304 -1.119533
v 0.285683 0.404240 -1.131000
v 0.337645 0.495501 -1.103106
v 0.318813 0.436368 -1.118887
v 0.286386 0.403742 -1.131000
v 0.336092 0.493522 -1.103775
v 0.363525 0.508287 -1.096359
v 0.320098 0.438435 -1.118240
v 0.287089 0.403243 -1.131000
v 0.334541 0.491547 -1.104443
v 0.362180 0.506124 -1.097036
v 0.321385 0.440505 -1.117592
v 0.287790 0.402743 -1.131000
v 0.332992 0.489574 -1.105110
v 0.360837 0.503963 -1.097713
v 0.322673 0.442577 -1.116942
v 0.288491 0.402241 -1.131000
v 0.331446 0.487604 -1.105777
v 0.359496 0.501806 -1.098389
v 0.323964 0.444653 -1.116292
v 0.289191 0.401738 -1.131000
v 0.329902 0.485637 -1.106442
v 0.358156 0.499651 -1.099065
v 0.325256 0.446732 -1.115642
v 0.289890 0.401234 -1.131000
v 0.328360 0.483672 -1.107106
v 0.356818 0.497500 -1.099739
v 0.326550 0.448813 -1.114990
v 0.290589 0.400728 -1.131000
v 0.326820 0.481710 -1.107770
v 0.355482 0.495351 -1.100412
v 0.327846 0.450898 -1.114337
v 0.291286 0.400222 -1.131000
v 0.325282 0.479752 -1.108432
v 0.354148 0.493205 -1.101084
v 0.329144 0.452985 -1.113683
v 0.291982 0.399714 -1.131000
v 0.323747 0.477795 -1.109094
v 0.352816 0.491062 -1.101756
v 0.330443 0.455076 -1.113028
v 0.292678 0.399205 -1.131000
v 0.322214 0.475842 -1.109754
v 0.351485 0.488922 -1.102426
v 0.331745 0.457169 -1.112373
v 0.293373 0.398695 -1.131000
v 0.320682 0.473892 -1.110414
v 0.350157 0.486785 -1.103096
v 0.333048 0.459266 -1.111716
v 0.319154 0.471944 -1.111072
v 0.348830 0.484650 -1.103764
v 0.334353 0.461365 -1.111059
v 0.275795 0.416714 -1.129743
v 0.317627 0.469999 -1.111730
v 0.347505 0.482519 -1.104432
v 0.335660 0.463468 -1.110400
v 0.277258 0.418578 -1.129113
v 0.316103 0.468057 -1.112387
v 0.346181 0.480391 -1.105099
v 0.336969 0.465573 -1.109741
v 0.278724 0.420445 -1.128482
v 0.314580 0.466118 -1.113042
v 0.344860 0.478265 -1.105765
v 0.338280 0.467681 -1.109080
v 0.280192 0.422315 -1.127850
v 0.313061 0.464182 -1.113697
v 0.343540 0.476142 -1.106430
v 0.339592 0.469792 -1.108419
v 0.281662 0.424187 -1.127218
v 0.311543 0.462249 -1.114351
v 0.342222 0.474023 -1.107094
v 0.283135 0.426063 -1.126584
v 0.310027 0.460318 -1.115004
v 0.340906 0.471906 -1.107757
v 0.284610 0.427941 -1.125949
v 0.308514 0.458391 -1.115655
v 0.286087 0.429823 -1.125313
v 0.307003 0.456466 -1.116306
v 0.287566 0.431707 -1.124676
v 0.305494 0.454544 -1.116956
v 0.289048 0.433594 -1.124038
v 0.303988 0.452625 -1.117605
v 0.290532 0.435484 -1.123399
v 0.302484 0.450709 -1.118253
v 0.292018 0.437377 -1.122759
v 0.300982 0.448796 -1.118899
v 0.293506 0.439273 -1.122119
v 0.299482 0.446885 -1.119545
v 0.294997 0.441172 -1.121477
v 0.297985 0.444978 -1.120190
v 0.296489 0.443073 -1.120834
f 1 2 3
f 4 5 6
f 7 8 9
f 10 11 12
f 13 14 15
f 16 17 18
f 19 20 21
f 22 23 24
f 25 26 27
f 28 29 30
f 31 32 33
f 34 35 36
f 37 38 39
f 40 41 42
f 43 44 45
f 46 1 3
f 47 4 6
f 48 7 9
f 49 10 12
f 50 13 15
f 51 16 18
f 52 19 21
f 53 22 24
f 54 25 27
f 55 28 30
f 56 31 33
f 57 34 36
f 58 37 39
f 59 40 42
f 60 43 45
f 61 46 3
f 62 47 6
f 63 48 9
f 64 49 12
f 65 50 15
f 66 51 18
f 67 52 21
f 68 53 24
f 69 54 27
f 70 55 30
f 71 56 33
f 72 57 36
f 73 58 39
f 74 59 42
f 75 60 45
f 45 61 3
f 76 62 6
f 77 63 9
f 78 64 12
f 79 65 15
f 80 66 18
f 81 67 21
f 82 68 24
f 83 69 27
f 84 70 30
f 85 71 33
f 86 72 36
f 87 73 39
f 39 74 42
f 42 75 45
f 45 3 88
f 89 76 6
f 90 77 9
f 91 78 12
f 92 79 15
f 93 80 18
f 94 81 21
f 95 82 24
f 96 83 27
f 97 84 30
f 98 85 33
f 99 86 36
f 100 87 39
f 45 88 101
f 102 89 6
f 103 90 9
f 104 91 12
f 105 92 15
f 106 93 18
f 107 94 21
f 108 95 24
f 109 96 27
f 110 97 30
f 30 98 33
f 33 99 36
f 36 100 39
f 45 101 111
f 112 102 6
f 113 103 9
f 114 104 12
f 115 116 117
f 118 105 15
f 119 106 18
f 120 107 21
f 121 108 24
f 122 109 27
f 123 110 30
f 36 39 42
f 45 111 124
f 125 112 6
f 126 113 9
f 127 114 12
f 128 115 117
f 129 118 15
f 130 119 18
f 18 120 21
f 21 121 24
f 24 122 27
f 36 42 45
f 45 124 131
f 132 125 6
f 133 126 9
f 134 127 12
f 135 128 117
f 136 129 15
f 137 130 18
f 45 131 138
f 139 132 6
f 140 133 9
f 141 134 12
f 142 135 117
f 117 136 15
f 15 137 18
f 45 138 143
f 144 139 6
f 145 140 9
f 146 141 12
f 147 142 117
f 15 18 21
f 45 143 148
f 149 144 6
f 150 145 9
f 151 146 12
f 152 147 117
f 15 21 24
f 45 148 153
f 154 149 6
f 155 150 9
f 156 151 12
f 157 152 117
f 45 153 158
f 159 154 6
f 160 155 9
f 161 156 12
f 162 157 117
f 45 158 163
f 164 159 6
f 165 160 9
f 166 161 12
f 167 162 117
f 45 163 168
f 169 164 6
f 170 165 9
f 171 166 12
f 172 167 117
f 45 168 173
f 173 169 6
f 174 170 9
f 175 171 12
f 176 172 117
f 45 173 6
f 177 174 9
f 178 175 12
f 179 176 117
f 36 45 6
f 180 177 9
f 181 178 12
f 182 179 117
f 36 6 183
f 184 180 9
f 185 181 12
f 186 182 117
f 36 183 187
f 188 184 9
f 189 185 12
f 190 186 117
f 36 187 191
f 192 188 9
f 193 189 12
f 194 190 117
f 36 191 195
f 196 192 9
f 197 193 12
f 198 194 117
f 36 195 199
f 200 196 9
f 201 197 12
f 202 198 117
f 36 199 203
f 204 200 9
f 205 201 12
f 206 202 117
f 15 24 27
f 36 203 207
f 208 204 9
f 209 205 12
f 210 206 117
f 27 123 30
f 36 207 211
f 212 208 9
f 213 209 12
f 214 210 117
f 27 30 33
f 36 211 215
f 216 212 9
f 217 213 12
f 218 214 117
f 36 215 219
f 220 216 9
f 221 217 12
f 222 218 117
f 27 33 36
f 36 219 223
f 224 220 9
f 9 221 12
f 225 222 117
f 36 223 226
f 227 224 9
f 9 12 228
f 229 225 117
f 36 226 230
f 231 227 9
f 9 228 232
f 233 229 117
f 36 230 234
f 235 231 9
f 9 232 236
f 237 233 117
f 36 234 238
f 239 235 9
f 9 236 240
f 241 237 117
f 36 238 242
f 243 239 9
f 9 240 244
f 245 241 117
f 36 242 246
f 9 244 247
f 248 245 117
f 36 246 249
f 9 247 250
f 251 248 117
f 36 249 243
f 9 250 252
f 253 251 117
f 27 36 243
f 9 252 254
f 255 253 117
f 9 254 256
f 257 255 117
f 9 256 258
f 259 257 117
f 9 258 260
f 261 259 117
f 9 260 262
f 263 261 117
f 9 262 264
f 265 263 117
f 9 264 266
f 266 265 117
f 9 266 117
f 9 117 15
f 243 9 15
