v 0.044829 0.220000 -0.668499
v 0.041941 0.220000 -0.668686
v 0.039052 0.220000 -0.668861
v 0.036162 0.220000 -0.669023
v 0.033272 0.220000 -0.669173
v 0.030380 0.220000 -0.669311
v 0.027489 0.220000 -0.669436
v 0.024597 0.220000 -0.669548
v 0.021704 0.220000 -0.669648
v 0.018811 0.220000 -0.669736
v 0.015918 0.220000 -0.669811
v 0.013024 0.220000 -0.669873
v 0.010130 0.220000 -0.669923
v 0.007236 0.220000 -0.669961
v 0.004342 0.220000 -0.669986
v 0.001447 0.220000 -0.669998
v -0.001447 0.220000 -0.669998
v -0.004342 0.220000 -0.669986
v -0.007236 0.220000 -0.669961
v -0.010130 0.220000 -0.669923
v -0.013024 0.220000 -0.669873
v -0.015918 0.220000 -0.669811
v -0.018811 0.220000 -0.669736
v -0.021704 0.220000 -0.669648
v -0.024597 0.220000 -0.669548
v -0.027489 0.220000 -0.669436
v -0.030380 0.220000 -0.669311
v -0.033272 0.220000 -0.669173
v -0.036162 0.220000 -0.669023
v -0.039052 0.220000 -0.668861
v -0.041941 0.220000 -0.668686
v -0.044829 0.220000 -0.668499
v -0.044430 0.220000 -0.668533
v -0.044033 0.220000 -0.668584
v -0.043638 0.220000 -0.668651
v -0.043246 0.220000 -0.668733
v -0.042857 0.220000 -0.668831
v -0.042473 0.220000 -0.668945
v -0.042094 0.220000 -0.669074
v -0.041720 0.220000 -0.669218
v -0.041352 0.220000 -0.669376
v -0.040991 0.220000 -0.669550
v -0.040637 0.220000 -0.669737
v -0.040291 0.220000 -0.669939
v -0.039953 0.220000 -0.670155
v -0.039624 0.220000 -0.670383
v -0.039305 0.220000 -0.670625
v -0.038995 0.220000 -0.670880
v -0.038696 0.220000 -0.671146
v -0.038408 0.220000 -0.671425
v -0.038131 0.220000 -0.671714
v -0.037866 0.220000 -0.672015
v -0.037613 0.220000 -0.672326
v -0.037373 0.220000 -0.672646
v -0.037146 0.220000 -0.672976
v -0.036933 0.220000 -0.673315
v -0.036733 0.220000 -0.673663
v -0.036547 0.220000 -0.674018
v -0.036376 0.220000 -0.674380
v -0.036219 0.220000 -0.674748
v -0.036077 0.220000 -0.675123
v -0.035950 0.220000 -0.675503
v -0.035839 0.220000 -0.675888
v -0.021986 0.220000 -0.727588
v -0.021868 0.220000 -0.727994
v -0.021733 0.220000 -0.728394
v -0.021582 0.220000 -0.728788
v -0.021413 0.220000 -0.729175
v -0.021229 0.220000 -0.729555
v -0.021029 0.220000 -0.729927
v -0.020813 0.220000 -0.730290
v -0.020582 0.220000 -0.730643
v -0.020337 0.220000 -0.730987
v -0.020077 0.220000 -0.731319
v -0.019803 0.220000 -0.731641
v -0.019516 0.220000 -0.731951
v -0.019216 0.220000 -0.732248
v -0.018904 0.220000 -0.732532
v -0.018580 0.220000 -0.732803
v -0.018246 0.220000 -0.733060
v -0.017900 0.220000 -0.733303
v -0.017545 0.220000 -0.733531
v -0.017180 0.220000 -0.733743
v -0.016806 0.220000 -0.733941
v -0.016425 0.220000 -0.734122
v -0.016036 0.220000 -0.734287
v -0.015641 0.220000 -0.734435
v -0.015240 0.220000 -0.734566
v -0.014833 0.220000 -0.734681
v -0.014422 0.220000 -0.734778
v -0.014008 0.220000 -0.734858
v -0.013590 0.220000 -0.734920
v -0.013170 0.220000 -0.734964
v -0.012749 0.220000 -0.734991
v -0.012327 0.220000 -0.735000
v 0.012327 0.220000 -0.735000
v 0.012749 0.220000 -0.734991
v 0.013170 0.220000 -0.734964
v 0.013590 0.220000 -0.734920
v 0.014008 0.220000 -0.734858
v 0.014422 0.220000 -0.734778
v 0.014833 0.220000 -0.734681
v 0.015240 0.220000 -0.734566
v 0.015641 0.220000 -0.734435
v 0.016036 0.220000 -0.734287
v 0.016425 0.220000 -0.734122
v 0.016806 0.220000 -0.733941
v 0.017180 0.220000 -0.733743
v 0.017545 0.220000 -0.733531
v 0.017900 0.220000 -0.733303
v 0.018246 0.220000 -0.733060
v 0.018580 0.220000 -0.732803
v 0.018904 0.220000 -0.732532
v 0.019216 0.220000 -0.732248
v 0.019516 0.220000 -0.731951
v 0.019803 0.220000 -0.731641
v 0.020077 0.220000 -0.731319
v 0.020337 0.220000 -0.730987
v 0.020582 0.220000 -0.730643
v 0.020813 0.220000 -0.730290
v 0.021029 0.220000 -0.729927
v 0.021229 0.220000 -0.729555
v 0.021413 0.220000 -0.729175
v 0.021582 0.220000 -0.728788
v 0.021733 0.220000 -0.728394
v 0.021868 0.220000 -0.727994
v 0.021986 0.220000 -0.727588
v 0.035839 0.220000 -0.675888
v 0.035950 0.220000 -0.675503
v 0.036077 0.220000 -0.675123
v 0.036219 0.220000 -0.674748
v 0.036376 0.220000 -0.674380
v 0.036547 0.220000 -0.674018
v 0.036733 0.220000 -0.673663
v 0.036933 0.220000 -0.673315
v 0.037146 0.220000 -0.672976
v 0.037373 0.220000 -0.672646
v 0.037613 0.220000 -0.672326
v 0.037866 0.220000 -0.672015
v 0.038131 0.220000 -0.671714
v 0.038408 0.220000 -0.671425
v 0.038696 0.220000 -0.671146
v 0.038995 0.220000 -0.670880
v 0.039305 0.220000 -0.670625
v 0.039624 0.220000 -0.670383
v 0.039953 0.220000 -0.670155
v 0.040291 0.220000 -0.669939
v 0.040637 0.220000 -0.669737
v 0.040991 0.220000 -0.669550
v 0.041352 0.220000 -0.669376
v 0.041720 0.220000 -0.669218
v 0.042094 0.220000 -0.669074
v 0.042473 0.220000 -0.668945
v 0.042857 0.220000 -0.668831
v 0.043246 0.220000 -0.668733
v 0.043638 0.220000 -0.668651
v 0.044033 0.220000 -0.668584
v 0.044430 0.220000 -0.668533
f 158 1 2
f 31 32 33
f 31 33 34
f 30 31 34
f 29 30 34
f 29 34 35
f 28 29 35
f 28 35 36
f 27 28 36
f 27 36 37
f 26 27 37
f 26 37 38
f 25 26 38
f 24 25 38
f 24 38 39
f 23 24 39
f 23 39 40
f 22 23 40
f 22 40 41
f 21 22 41
f 21 41 42
f 20 21 42
f 19 20 42
f 19 42 43
f 18 19 43
f 18 43 44
f 17 18 44
f 17 44 45
f 16 17 45
f 16 45 46
f 15 16 46
f 14 15 46
f 14 46 47
f 13 14 47
f 13 47 48
f 12 13 48
f 12 48 49
f 11 12 49
f 11 49 50
f 10 11 50
f 10 50 51
f 9 10 51
f 9 51 52
f 8 9 52
f 7 8 52
f 7 52 53
f 6 7 53
f 6 53 54
f 5 6 54
f 5 54 55
f 4 5 55
f 4 55 56
f 3 4 56
f 3 56 57
f 2 3 57
f 158 2 57
f 158 57 58
f 158 58 59
f 158 59 60
f 158 60 61
f 158 61 62
f 158 62 63
f 63 64 65
f 63 65 66
f 63 66 67
f 63 67 68
f 63 68 69
f 63 69 70
f 63 70 71
f 63 71 72
f 63 72 73
f 63 73 74
f 63 74 75
f 63 75 76
f 63 76 77
f 63 77 78
f 63 78 79
f 63 79 80
f 63 80 81
f 63 81 82
f 63 82 83
f 63 83 84
f 63 84 85
f 63 85 86
f 63 86 87
f 63 87 88
f 63 88 89
f 63 89 90
f 63 90 91
f 63 91 92
f 63 92 93
f 63 93 94
f 63 94 95
f 63 95 96
f 63 96 97
f 63 97 98
f 63 98 99
f 63 99 100
f 63 100 101
f 63 101 102
f 63 102 103
f 63 103 104
f 63 104 105
f 63 105 106
f 63 106 107
f 63 107 108
f 63 108 109
f 63 109 110
f 63 110 111
f 63 111 112
f 63 112 113
f 63 113 114
f 63 114 115
f 63 115 116
f 63 116 117
f 63 117 118
f 63 118 119
f 63 119 120
f 63 120 121
f 63 121 122
f 63 122 123
f 63 123 124
f 63 124 125
f 63 125 126
f 63 126 127
f 63 127 128
f 63 128 129
f 63 129 130
f 63 130 131
f 63 131 132
f 63 132 133
f 63 133 134
f 63 134 135
f 63 135 136
f 63 136 137
f 63 137 138
f 63 138 139
f 63 139 140
f 63 140 141
f 63 141 142
f 63 142 143
f 63 143 144
f 63 144 145
f 63 145 146
f 63 146 147
f 63 147 148
f 63 148 149
f 63 149 150
f 63 150 151
f 63 151 152
f 63 152 153
f 63 153 154
f 63 154 155
f 63 155 156
f 63 156 157
f 63 157 158
