v 0.671843 0.016837 -0.082072
v 0.671843 0.220000 -0.082072
v 0.720352 0.220000 -0.104692
v 0.725974 0.220000 -0.115492
v 0.725974 0.000000 -0.115492
v 0.720352 0.000000 -0.104692
v 0.665322 0.000000 -0.079032
v 0.665322 0.010000 -0.079032
v 0.671843 0.016837 -0.082072
v 0.671628 0.016611 -0.081969
v 0.671416 0.016388 -0.081861
v 0.671208 0.016168 -0.081748
v 0.671003 0.015951 -0.081631
v 0.670802 0.015736 -0.081510
v 0.670605 0.015525 -0.081384
v 0.670411 0.015317 -0.081255
v 0.670221 0.015112 -0.081121
v 0.670034 0.014911 -0.080983
v 0.669852 0.014712 -0.080841
v 0.669673 0.014517 -0.080696
v 0.669497 0.014325 -0.080546
v 0.669326 0.014137 -0.080393
v 0.669158 0.013952 -0.080237
v 0.668995 0.013770 -0.080077
v 0.668835 0.013592 -0.079913
v 0.668679 0.013418 -0.079746
v 0.668528 0.013247 -0.079576
v 0.668380 0.013080 -0.079403
v 0.668236 0.012916 -0.079226
v 0.668097 0.012757 -0.079046
v 0.667962 0.012601 -0.078864
v 0.667831 0.012450 -0.078678
v 0.667705 0.012302 -0.078490
v 0.667583 0.012159 -0.078299
v 0.667465 0.012020 -0.078106
v 0.667352 0.011885 -0.077910
v 0.667244 0.011754 -0.077711
v 0.667140 0.011628 -0.077510
v 0.667041 0.011506 -0.077307
v 0.666946 0.011388 -0.077102
v 0.666856 0.011275 -0.076895
v 0.666771 0.011166 -0.076686
v 0.666691 0.011063 -0.076476
v 0.666615 0.010963 -0.076264
v 0.666544 0.010869 -0.076051
v 0.666478 0.010779 -0.075836
v 0.666417 0.010694 -0.075621
v 0.666361 0.010614 -0.075405
v 0.666310 0.010539 -0.075188
v 0.666264 0.010469 -0.074971
v 0.666223 0.010403 -0.074754
v 0.666186 0.010343 -0.074536
v 0.666155 0.010288 -0.074318
v 0.666129 0.010237 -0.074100
v 0.666107 0.010192 -0.073882
v 0.666090 0.010151 -0.073664
v 0.666079 0.010116 -0.073446
v 0.666072 0.010085 -0.073228
v 0.666069 0.010059 -0.073011
v 0.666071 0.010038 -0.072795
v 0.666078 0.010021 -0.072579
v 0.666090 0.010009 -0.072364
v 0.666106 0.010002 -0.072149
v 0.666127 0.010000 -0.071935
f 3 4 5
f 2 3 5
f 2 5 6
f 6 7 8
f 10 11 12
f 10 12 13
f 10 13 14
f 10 14 15
f 10 15 16
f 10 16 17
f 10 17 18
f 10 18 19
f 10 19 20
f 10 20 21
f 10 21 22
f 10 22 23
f 10 23 24
f 10 24 25
f 10 25 26
f 10 26 27
f 10 27 28
f 10 28 29
f 10 29 30
f 10 30 31
f 10 31 32
f 10 32 33
f 10 33 34
f 10 34 35
f 10 35 36
f 10 36 37
f 10 37 38
f 10 38 39
f 10 39 40
f 10 40 41
f 10 41 42
f 10 42 43
f 10 43 44
f 10 44 45
f 10 45 46
f 10 46 47
f 10 47 48
f 10 48 49
f 10 49 50
f 10 50 51
f 10 51 52
f 10 52 53
f 10 53 54
f 10 54 55
f 10 55 56
f 10 56 57
f 10 57 58
f 10 58 59
f 10 59 60
f 10 60 61
f 10 61 62
f 10 62 63
f 10 63 64
f 1 2 6
f 1 6 8
f 1 8 9
f 1 9 10
f 1 10 64
