v 0.392500 -0.275000 -6.413000
v 0.392793 -0.376481 -6.424046
v 0.392500 -0.378429 -6.413000
v 0.393590 -0.275000 -6.434498
v 0.393688 -0.374498 -6.435293
v 0.395208 -0.372489 -6.446687
v 0.396850 -0.275000 -6.455776
v 0.397375 -0.370463 -6.458173
v 0.400212 -0.368431 -6.469697
v 0.402245 -0.275000 -6.476615
v 0.403743 -0.366402 -6.481206
v 0.407991 -0.364385 -6.492644
v 0.409721 -0.275000 -6.496801
v 0.412967 -0.362391 -6.503956
v 0.418656 -0.360430 -6.515076
v 0.419201 -0.275000 -6.516127
v 0.425035 -0.358514 -6.525939
v 0.430588 -0.275000 -6.534394
v 0.432083 -0.356656 -6.536478
v 0.439779 -0.354866 -6.546629
v 0.443764 -0.275000 -6.551417
v 0.448101 -0.353156 -6.556326
v 0.457027 -0.351538 -6.565502
v 0.458595 -0.275000 -6.567018
v 0.466517 -0.350021 -6.574105
v 0.474927 -0.275000 -6.581040
v 0.476497 -0.348610 -6.582107
v 0.486889 -0.347310 -6.589483
v 0.492595 -0.275000 -6.593337
v 0.497615 -0.346124 -6.596208
v 0.508595 -0.345057 -6.602257
v 0.511416 -0.275000 -6.603783
v 0.519752 -0.344115 -6.607605
v 0.531008 -0.343300 -6.612227
v 0.531198 -0.275000 -6.612272
v 0.542313 -0.342613 -6.616118
v 0.551736 -0.275000 -6.618716
v 0.553657 -0.342052 -6.619301
v 0.565033 -0.341612 -6.621799
v 0.572822 -0.275000 -6.623050
v 0.576434 -0.341288 -6.623637
v 0.587853 -0.341076 -6.624838
v 0.594237 -0.275000 -6.625227
v 0.599283 -0.340972 -6.625427
v 0.610717 -0.340972 -6.625427
v 0.615763 -0.275000 -6.625227
v 0.622147 -0.341076 -6.624838
v 0.633566 -0.341288 -6.623637
v 0.637178 -0.275000 -6.623050
v 0.644967 -0.341612 -6.621799
v 0.656343 -0.342052 -6.619301
v 0.658264 -0.275000 -6.618716
v 0.667687 -0.342613 -6.616118
v 0.678802 -0.275000 -6.612272
v 0.678992 -0.343300 -6.612227
v 0.690248 -0.344115 -6.607605
v 0.698584 -0.275000 -6.603783
v 0.701405 -0.345057 -6.602257
v 0.712385 -0.346124 -6.596208
v 0.717405 -0.275000 -6.593337
v 0.723111 -0.347310 -6.589483
v 0.733503 -0.348610 -6.582107
v 0.735073 -0.275000 -6.581040
v 0.743483 -0.350021 -6.574105
v 0.751405 -0.275000 -6.567018
v 0.752973 -0.351538 -6.565502
v 0.761899 -0.353156 -6.556326
v 0.766236 -0.275000 -6.551417
v 0.770221 -0.354866 -6.546629
v 0.777917 -0.356656 -6.536478
v 0.779412 -0.275000 -6.534394
v 0.784965 -0.358514 -6.525939
v 0.790799 -0.275000 -6.516127
v 0.791344 -0.360430 -6.515076
v 0.797033 -0.362391 -6.503956
v 0.800279 -0.275000 -6.496801
v 0.802009 -0.364385 -6.492644
v 0.806257 -0.366402 -6.481206
v 0.807755 -0.275000 -6.476615
v 0.809788 -0.368431 -6.469697
v 0.812625 -0.370463 -6.458173
v 0.813150 -0.275000 -6.455776
v 0.814792 -0.372489 -6.446687
v 0.816312 -0.374498 -6.435293
v 0.816410 -0.275000 -6.434498
v 0.817207 -0.376481 -6.424046
v 0.817500 -0.275000 -6.413000
v 0.817500 -0.378429 -6.413000
f 1 2 3
f 1 4 2
f 4 5 2
f 4 6 5
f 4 7 6
f 7 8 6
f 7 9 8
f 7 10 9
f 10 11 9
f 10 12 11
f 10 13 12
f 13 14 12
f 13 15 14
f 13 16 15
f 16 17 15
f 16 18 17
f 18 19 17
f 18 20 19
f 18 21 20
f 21 22 20
f 21 23 22
f 21 24 23
f 24 25 23
f 24 26 25
f 26 27 25
f 26 28 27
f 26 29 28
f 29 30 28
f 29 31 30
f 29 32 31
f 32 33 31
f 32 34 33
f 32 35 34
f 35 36 34
f 35 37 36
f 37 38 36
f 37 39 38
f 37 40 39
f 40 41 39
f 40 42 41
f 40 43 42
f 43 44 42
f 43 45 44
f 43 46 45
f 46 47 45
f 46 48 47
f 46 49 48
f 49 50 48
f 49 51 50
f 49 52 51
f 52 53 51
f 52 54 53
f 54 55 53
f 54 56 55
f 54 57 56
f 57 58 56
f 57 59 58
f 57 60 59
f 60 61 59
f 60 62 61
f 60 63 62
f 63 64 62
f 63 65 64
f 65 66 64
f 65 67 66
f 65 68 67
f 68 69 67
f 68 70 69
f 68 71 70
f 71 72 70
f 71 73 72
f 73 74 72
f 73 75 74
f 73 76 75
f 76 77 75
f 76 78 77
f 76 79 78
f 79 80 78
f 79 81 80
f 79 82 81
f 82 83 81
f 82 84 83
f 82 85 84
f 85 86 84
f 85 87 86
f 87 88 86
