v -0.484527 0.220000 -0.543233
v -0.461907 0.220000 -0.494723
v -0.461907 0.016837 -0.494723
v -0.461851 0.016713 -0.494604
v -0.461796 0.016588 -0.494485
v -0.461740 0.016463 -0.494366
v -0.461685 0.016338 -0.494248
v -0.461629 0.016214 -0.494129
v -0.461574 0.016089 -0.494010
v -0.461518 0.015964 -0.493891
v -0.461463 0.015839 -0.493772
v -0.461408 0.015715 -0.493653
v -0.461352 0.015590 -0.493534
v -0.461297 0.015465 -0.493415
v -0.461241 0.015341 -0.493297
v -0.461186 0.015216 -0.493178
v -0.461131 0.015092 -0.493059
v -0.461075 0.014967 -0.492940
v -0.461020 0.014842 -0.492822
v -0.460964 0.014718 -0.492703
v -0.460909 0.014593 -0.492584
v -0.460854 0.014469 -0.492465
v -0.460798 0.014344 -0.492347
v -0.460743 0.014220 -0.492228
v -0.460688 0.014096 -0.492109
v -0.460632 0.013971 -0.491991
v -0.460577 0.013847 -0.491872
v -0.460522 0.013722 -0.491754
v -0.460467 0.013598 -0.491635
v -0.460411 0.013474 -0.491516
v -0.460356 0.013349 -0.491398
v -0.460301 0.013225 -0.491279
v -0.460245 0.013101 -0.491161
v -0.460190 0.012977 -0.491042
v -0.460135 0.012852 -0.490924
v -0.460080 0.012728 -0.490805
v -0.460024 0.012604 -0.490687
v -0.459969 0.012480 -0.490568
v -0.459914 0.012356 -0.490450
v -0.459859 0.012231 -0.490332
v -0.459804 0.012107 -0.490213
v -0.459748 0.011983 -0.490095
v -0.459693 0.011859 -0.489976
v -0.459638 0.011735 -0.489858
v -0.459583 0.011611 -0.489740
v -0.459528 0.011487 -0.489621
v -0.459472 0.011363 -0.489503
v -0.459417 0.011239 -0.489385
v -0.459362 0.011115 -0.489266
v -0.459307 0.010991 -0.489148
v -0.459252 0.010867 -0.489030
v -0.459197 0.010743 -0.488912
v -0.459142 0.010619 -0.488794
v -0.459086 0.010495 -0.488675
v -0.459031 0.010371 -0.488557
v -0.458976 0.010248 -0.488439
v -0.458921 0.010124 -0.488321
v -0.458866 0.010000 -0.488203
v -0.458866 0.000000 -0.488203
v -0.484527 0.000000 -0.543233
f 60 1 2
f 60 2 3
f 60 3 4
f 60 4 5
f 60 5 6
f 60 6 7
f 60 7 8
f 60 8 9
f 60 9 10
f 60 10 11
f 60 11 12
f 60 12 13
f 60 13 14
f 60 14 15
f 60 15 16
f 60 16 17
f 60 17 18
f 60 18 19
f 60 19 20
f 60 20 21
f 60 21 22
f 60 22 23
f 60 23 24
f 60 24 25
f 60 25 26
f 60 26 27
f 60 27 28
f 60 28 29
f 60 29 30
f 60 30 31
f 60 31 32
f 60 32 33
f 60 33 34
f 60 34 35
f 60 35 36
f 60 36 37
f 60 37 38
f 60 38 39
f 60 39 40
f 60 40 41
f 60 41 42
f 60 42 43
f 60 43 44
f 60 44 45
f 60 45 46
f 60 46 47
f 60 47 48
f 60 48 49
f 60 49 50
f 60 50 51
f 60 51 52
f 60 52 53
f 60 53 54
f 60 54 55
f 60 55 56
f 60 56 57
f 60 57 58
f 58 59 60
