v -0.152661 0.220000 0.659396
v -0.147996 0.220000 0.712717
v -0.147996 0.000000 0.712717
v -0.153288 0.000000 0.652229
v -0.153288 0.010000 0.652229
v -0.152661 0.016837 0.659396
v -0.152685 0.016611 0.659159
v -0.152714 0.016388 0.658923
v -0.152749 0.016168 0.658689
v -0.152788 0.015951 0.658457
v -0.152834 0.015737 0.658226
v -0.152884 0.015525 0.657998
v -0.152940 0.015317 0.657771
v -0.153000 0.015113 0.657547
v -0.153066 0.014911 0.657324
v -0.153137 0.014712 0.657104
v -0.153212 0.014517 0.656886
v -0.153293 0.014325 0.656671
v -0.153378 0.014137 0.656457
v -0.153468 0.013952 0.656246
v -0.153562 0.013770 0.656038
v -0.153661 0.013592 0.655831
v -0.153765 0.013418 0.655628
v -0.153873 0.013247 0.655427
v -0.153985 0.013080 0.655229
v -0.154102 0.012917 0.655034
v -0.154223 0.012757 0.654842
v -0.154349 0.012602 0.654652
v -0.154478 0.012450 0.654466
v -0.154612 0.012303 0.654283
v -0.154749 0.012159 0.654103
v -0.154891 0.012020 0.653926
v -0.155037 0.011885 0.653753
v -0.155186 0.011754 0.653583
v -0.155339 0.011628 0.653417
v -0.155496 0.011506 0.653254
v -0.155657 0.011388 0.653095
v -0.155821 0.011275 0.652940
v -0.155988 0.011167 0.652788
v -0.156158 0.011063 0.652641
v -0.156331 0.010964 0.652497
v -0.156507 0.010869 0.652358
v -0.156686 0.010779 0.652223
v -0.156867 0.010694 0.652092
v -0.157051 0.010614 0.651965
v -0.157237 0.010539 0.651843
v -0.157425 0.010469 0.651725
v -0.157616 0.010403 0.651612
v -0.157808 0.010343 0.651503
v -0.158002 0.010288 0.651399
v -0.158198 0.010237 0.651300
v -0.158396 0.010192 0.651205
v -0.158595 0.010151 0.651115
v -0.158796 0.010116 0.651029
v -0.158998 0.010085 0.650948
v -0.159201 0.010059 0.650872
v -0.159405 0.010038 0.650800
v -0.159610 0.010021 0.650733
v -0.159817 0.010009 0.650670
v -0.160024 0.010002 0.650612
v -0.160232 0.010000 0.650558
v -0.160232 0.220000 0.650558
f 1 2 3
f 62 1 3
f 3 4 5
f 3 5 6
f 62 3 6
f 62 6 7
f 62 7 8
f 62 8 9
f 62 9 10
f 62 10 11
f 62 11 12
f 62 12 13
f 62 13 14
f 62 14 15
f 62 15 16
f 62 16 17
f 62 17 18
f 62 18 19
f 62 19 20
f 62 20 21
f 62 21 22
f 62 22 23
f 62 23 24
f 62 24 25
f 62 25 26
f 62 26 27
f 62 27 28
f 62 28 29
f 62 29 30
f 62 30 31
f 62 31 32
f 62 32 33
f 62 33 34
f 62 34 35
f 62 35 36
f 62 36 37
f 62 37 38
f 62 38 39
f 62 39 40
f 62 40 41
f 62 41 42
f 62 42 43
f 62 43 44
f 62 44 45
f 62 45 46
f 62 46 47
f 62 47 48
f 62 48 49
f 62 49 50
f 62 50 51
f 62 51 52
f 62 52 53
f 62 53 54
f 62 54 55
f 62 55 56
f 62 56 57
f 62 57 58
f 62 58 59
f 62 59 60
f 60 61 62
