v -3.387500 0.558032 -4.437000
v -3.387500 0.551791 -4.433411
v -3.387500 0.545528 -4.429862
v -3.387500 0.539241 -4.426353
v -3.387500 0.532932 -4.422885
v -3.387500 0.526600 -4.419459
v -3.387500 0.520246 -4.416073
v -3.387500 0.513871 -4.412728
v -3.387500 0.507474 -4.409425
v -3.387500 0.501056 -4.406163
v -3.387500 0.494617 -4.402943
v -3.387500 0.488157 -4.399764
v -3.387500 0.481677 -4.396627
v -3.387500 0.475177 -4.393533
v -3.387500 0.468656 -4.390480
v -3.387500 0.462116 -4.387470
v -3.387500 0.455557 -4.384502
v -3.387500 0.448979 -4.381576
v -3.387500 0.442382 -4.378693
v -3.387500 0.435766 -4.375853
v -3.387500 0.429133 -4.373056
v -3.387500 0.422481 -4.370302
v -3.387500 0.415811 -4.367590
v -3.387500 0.409125 -4.364922
v -3.387500 0.402421 -4.362297
v -3.387500 0.395700 -4.359716
v -3.387500 0.388963 -4.357178
v -3.387500 0.382209 -4.354684
v -3.387500 0.375439 -4.352234
v -3.387500 0.368654 -4.349827
v -3.387500 0.361853 -4.347464
v -3.387500 0.355038 -4.345146
v -3.387500 0.348207 -4.342871
v -3.387500 0.341362 -4.340641
v -3.387500 0.334502 -4.338455
v -3.387500 0.327628 -4.336314
v -3.387500 0.320741 -4.334217
v -3.387500 0.313840 -4.332164
v -3.387500 0.306927 -4.330157
v -3.387500 0.300000 -4.328194
v -3.387500 0.300000 -4.437000
f 1 2 3
f 1 3 4
f 1 4 5
f 1 5 6
f 1 6 7
f 1 7 8
f 1 8 9
f 1 9 10
f 1 10 11
f 1 11 12
f 1 12 13
f 1 13 14
f 1 14 15
f 1 15 16
f 1 16 17
f 1 17 18
f 1 18 19
f 1 19 20
f 1 20 21
f 1 21 22
f 1 22 23
f 1 23 24
f 1 24 25
f 1 25 26
f 1 26 27
f 1 27 28
f 1 28 29
f 1 29 30
f 1 30 31
f 1 31 32
f 1 32 33
f 1 33 34
f 1 34 35
f 1 35 36
f 1 36 37
f 1 37 38
f 1 38 39
f 1 39 40
f 1 40 41
