v 1.363167 -0.180000 0.600000
v 1.515000 -0.180000 0.600000
v 1.532370 -0.180000 0.599289
v 1.549624 -0.180000 0.597160
v 1.566646 -0.180000 0.593628
v 1.583323 -0.180000 0.588717
v 1.599542 -0.180000 0.582459
v 1.615196 -0.180000 0.574895
v 1.630179 -0.180000 0.566078
v 1.644390 -0.180000 0.556066
v 1.657736 -0.180000 0.544925
v 1.670127 -0.180000 0.532730
v 1.681479 -0.180000 0.519564
v 1.691717 -0.180000 0.505514
v 1.700773 -0.180000 0.490673
v 1.708585 -0.180000 0.475143
v 1.715101 -0.180000 0.459025
v 1.720278 -0.180000 0.442429
v 1.724081 -0.180000 0.425466
v 1.726485 -0.180000 0.408248
v 1.727473 -0.180000 0.390891
v 1.727039 -0.180000 0.373512
v 1.725186 -0.180000 0.356226
v 1.721926 -0.180000 0.339150
v 1.717282 -0.180000 0.322397
v 1.711283 -0.180000 0.306080
v 1.703971 -0.180000 0.290308
v 1.695393 -0.180000 0.275186
v 1.685609 -0.180000 0.260816
v 1.674683 -0.180000 0.247294
v 1.662687 -0.180000 0.234710
v 1.649704 -0.180000 0.223149
v 1.635819 -0.180000 0.212688
v 1.159228 -0.180000 -0.116701
v 1.159981 -0.180000 -0.114598
v 1.160734 -0.180000 -0.112494
v 1.161488 -0.180000 -0.110390
v 1.162241 -0.180000 -0.108285
v 1.162995 -0.180000 -0.106179
v 1.163748 -0.180000 -0.104072
v 1.164502 -0.180000 -0.101965
v 1.165256 -0.180000 -0.099857
v 1.166010 -0.180000 -0.097749
v 1.166764 -0.180000 -0.095639
v 1.167518 -0.180000 -0.093529
v 1.168272 -0.180000 -0.091418
v 1.169027 -0.180000 -0.089307
v 1.169781 -0.180000 -0.087195
v 1.170536 -0.180000 -0.085082
v 1.171291 -0.180000 -0.082969
v 1.172046 -0.180000 -0.080854
v 1.172800 -0.180000 -0.078740
v 1.173556 -0.180000 -0.076624
v 1.174311 -0.180000 -0.074508
v 1.175066 -0.180000 -0.072391
v 1.175821 -0.180000 -0.070273
v 1.176577 -0.180000 -0.068155
v 1.177333 -0.180000 -0.066036
v 1.178088 -0.180000 -0.063916
v 1.178844 -0.180000 -0.061795
v 1.179600 -0.180000 -0.059674
v 1.180356 -0.180000 -0.057552
v 1.181112 -0.180000 -0.055430
v 1.181869 -0.180000 -0.053307
v 1.182625 -0.180000 -0.051183
v 1.183382 -0.180000 -0.049058
v 1.184138 -0.180000 -0.046933
v 1.184895 -0.180000 -0.044807
v 1.185652 -0.180000 -0.042680
v 1.186409 -0.180000 -0.040553
v 1.187166 -0.180000 -0.038425
v 1.187923 -0.180000 -0.036296
v 1.188681 -0.180000 -0.034166
v 1.189438 -0.180000 -0.032036
v 1.190196 -0.180000 -0.029905
v 1.190953 -0.180000 -0.027774
v 1.191711 -0.180000 -0.025641
v 1.192469 -0.180000 -0.023508
v 1.193227 -0.180000 -0.021375
v 1.193985 -0.180000 -0.019240
v 1.194744 -0.180000 -0.017105
v 1.195502 -0.180000 -0.014970
v 1.196261 -0.180000 -0.012833
v 1.197019 -0.180000 -0.010696
v 1.197778 -0.180000 -0.008558
v 1.198537 -0.180000 -0.006420
v 1.199296 -0.180000 -0.004281
v 1.200055 -0.180000 -0.002141
v 1.200814 -0.180000 -0.000000
v 1.207163 -0.180000 0.009683
v 1.213386 -0.180000 0.019422
v 1.219483 -0.180000 0.029216
v 1.225457 -0.180000 0.039067
v 1.231307 -0.180000 0.048975
v 1.237033 -0.180000 0.058941
v 1.242638 -0.180000 0.068964
v 1.248120 -0.180000 0.079045
v 1.253480 -0.180000 0.089186
v 1.258720 -0.180000 0.099385
v 1.263840 -0.180000 0.109645
v 1.268840 -0.180000 0.119965
v 1.273722 -0.180000 0.130346
v 1.278484 -0.180000 0.140787
v 1.283129 -0.180000 0.151290
v 1.287654 -0.180000 0.161853
v 1.292058 -0.180000 0.172472
v 1.296341 -0.180000 0.183147
v 1.300502 -0.180000 0.193876
v 1.304539 -0.180000 0.204656
v 1.308451 -0.180000 0.215485
v 1.312237 -0.180000 0.226363
v 1.315897 -0.180000 0.237286
v 1.319428 -0.180000 0.248253
v 1.322831 -0.180000 0.259262
v 1.326103 -0.180000 0.270311
v 1.329244 -0.180000 0.281399
v 1.332254 -0.180000 0.292522
v 1.335130 -0.180000 0.303680
v 1.337874 -0.180000 0.314870
v 1.340484 -0.180000 0.326089
v 1.342962 -0.180000 0.337337
v 1.345307 -0.180000 0.348610
v 1.347520 -0.180000 0.359907
v 1.349599 -0.180000 0.371225
v 1.351546 -0.180000 0.382562
v 1.353360 -0.180000 0.393916
v 1.355041 -0.180000 0.405285
v 1.356589 -0.180000 0.416667
v 1.358004 -0.180000 0.428060
v 1.359286 -0.180000 0.439461
v 1.360435 -0.180000 0.450869
v 1.361452 -0.180000 0.462283
v 1.362334 -0.180000 0.473704
v 1.363084 -0.180000 0.485132
v 1.363699 -0.180000 0.496570
v 1.364180 -0.180000 0.508016
v 1.364527 -0.180000 0.519472
v 1.364739 -0.180000 0.530939
v 1.364816 -0.180000 0.542417
v 1.364757 -0.180000 0.553907
v 1.364564 -0.180000 0.565410
v 1.364234 -0.180000 0.576925
v 1.363769 -0.180000 0.588455
v 1.410000 -0.180000 0.387500
v 1.410539 -0.180000 0.376877
v 1.412149 -0.180000 0.366364
v 1.414815 -0.180000 0.356067
v 1.418509 -0.180000 0.346093
v 1.423194 -0.180000 0.336543
v 1.428820 -0.180000 0.327517
v 1.435330 -0.180000 0.319106
v 1.442658 -0.180000 0.311397
v 1.450729 -0.180000 0.304469
v 1.459459 -0.180000 0.298392
v 1.468759 -0.180000 0.293231
v 1.478533 -0.180000 0.289036
v 1.488681 -0.180000 0.285852
v 1.499100 -0.180000 0.283711
v 1.509682 -0.180000 0.282635
v 1.520318 -0.180000 0.282635
v 1.530900 -0.180000 0.283711
v 1.541319 -0.180000 0.285852
v 1.551467 -0.180000 0.289036
v 1.561241 -0.180000 0.293231
v 1.570541 -0.180000 0.298392
v 1.579271 -0.180000 0.304469
v 1.587342 -0.180000 0.311397
v 1.594670 -0.180000 0.319106
v 1.601180 -0.180000 0.327517
v 1.606806 -0.180000 0.336543
v 1.611491 -0.180000 0.346093
v 1.615185 -0.180000 0.356067
v 1.617851 -0.180000 0.366364
v 1.619461 -0.180000 0.376877
v 1.620000 -0.180000 0.387500
v 1.619461 -0.180000 0.398123
v 1.617851 -0.180000 0.408636
v 1.615185 -0.180000 0.418933
v 1.611491 -0.180000 0.428907
v 1.606806 -0.180000 0.438457
v 1.601180 -0.180000 0.447483
v 1.594670 -0.180000 0.455894
v 1.587342 -0.180000 0.463603
v 1.579271 -0.180000 0.470531
v 1.570541 -0.180000 0.476608
v 1.561241 -0.180000 0.481769
v 1.551467 -0.180000 0.485964
v 1.541319 -0.180000 0.489148
v 1.530900 -0.180000 0.491289
v 1.520318 -0.180000 0.492365
v 1.509682 -0.180000 0.492365
v 1.499100 -0.180000 0.491289
v 1.488681 -0.180000 0.489148
v 1.478533 -0.180000 0.485964
v 1.468759 -0.180000 0.481769
v 1.459459 -0.180000 0.476608
v 1.450729 -0.180000 0.470531
v 1.442658 -0.180000 0.463603
v 1.435330 -0.180000 0.455894
v 1.428820 -0.180000 0.447483
v 1.423194 -0.180000 0.438457
v 1.418509 -0.180000 0.428907
v 1.414815 -0.180000 0.418933
v 1.412149 -0.180000 0.408636
v 1.410539 -0.180000 0.398123
f 143 1 2
f 2 3 4
f 4 5 6
f 6 7 8
f 8 9 10
f 10 11 12
f 12 13 14
f 14 15 16
f 16 17 18
f 18 19 20
f 20 21 22
f 22 23 24
f 24 25 26
f 26 27 28
f 28 29 30
f 30 31 32
f 32 33 34
f 88 89 90
f 124 125 144
f 205 144 125
f 142 143 2
f 2 4 6
f 6 8 10
f 10 12 14
f 14 16 18
f 18 20 22
f 22 24 26
f 26 28 30
f 30 32 34
f 87 88 90
f 123 124 144
f 204 205 125
f 141 142 2
f 2 6 10
f 10 14 18
f 18 22 26
f 26 30 34
f 86 87 90
f 122 123 144
f 203 204 125
f 140 141 2
f 2 10 18
f 18 26 34
f 85 86 90
f 121 122 144
f 202 203 125
f 139 140 2
f 18 34 35
f 84 85 90
f 120 121 144
f 201 202 125
f 138 139 2
f 18 35 36
f 83 84 90
f 119 120 144
f 200 201 125
f 137 138 2
f 18 36 37
f 82 83 90
f 118 119 144
f 199 200 125
f 136 137 2
f 18 37 38
f 81 82 90
f 117 118 144
f 198 199 125
f 135 136 2
f 80 81 90
f 116 117 144
f 198 125 126
f 134 135 2
f 79 80 90
f 115 116 144
f 197 198 126
f 133 134 2
f 78 79 90
f 114 115 144
f 197 126 127
f 132 133 2
f 77 78 90
f 113 114 144
f 196 197 127
f 131 132 2
f 76 77 90
f 112 113 144
f 196 127 128
f 130 131 2
f 75 76 90
f 111 112 144
f 196 128 129
f 129 130 2
f 74 75 90
f 110 111 144
f 195 196 129
f 73 74 90
f 109 110 144
f 195 129 2
f 72 73 90
f 108 109 144
f 194 195 2
f 71 72 90
f 107 108 144
f 193 194 2
f 70 71 90
f 106 107 144
f 192 193 2
f 69 70 90
f 105 106 144
f 191 192 2
f 68 69 90
f 104 105 144
f 190 191 2
f 67 68 90
f 103 104 144
f 189 190 2
f 66 67 90
f 102 103 144
f 188 189 2
f 65 66 90
f 101 102 144
f 187 188 2
f 64 65 90
f 100 101 144
f 186 187 2
f 63 64 90
f 99 100 144
f 185 186 2
f 62 63 90
f 98 99 144
f 184 185 2
f 61 62 90
f 98 144 145
f 183 184 2
f 60 61 90
f 97 98 145
f 182 183 2
f 59 60 90
f 96 97 145
f 181 182 2
f 58 59 90
f 96 145 146
f 180 181 2
f 57 58 90
f 95 96 146
f 180 2 18
f 56 57 90
f 95 146 147
f 179 180 18
f 55 56 90
f 94 95 147
f 178 179 18
f 54 55 90
f 93 94 147
f 177 178 18
f 53 54 90
f 93 147 148
f 176 177 18
f 52 53 90
f 92 93 148
f 175 176 18
f 51 52 90
f 91 92 148
f 174 175 18
f 50 51 90
f 91 148 149
f 173 174 18
f 49 50 90
f 90 91 149
f 172 173 18
f 48 49 90
f 90 149 150
f 171 172 18
f 47 48 90
f 90 150 151
f 170 171 18
f 46 47 90
f 90 151 152
f 169 170 18
f 45 46 90
f 90 152 153
f 168 169 18
f 44 45 90
f 90 153 154
f 167 168 18
f 43 44 90
f 90 154 155
f 167 18 38
f 42 43 90
f 90 155 156
f 166 167 38
f 41 42 90
f 90 156 157
f 165 166 38
f 40 41 90
f 90 157 158
f 164 165 38
f 39 40 90
f 90 158 159
f 163 164 38
f 38 39 90
f 90 159 160
f 162 163 38
f 38 90 160
f 161 162 38
f 38 160 161
