v -0.125000 0.458258 -2.880000
v -0.124802 0.458312 -2.887105
v -0.125000 0.225000 -2.880000
v -0.124359 0.225000 -2.892646
v -0.124208 0.458474 -2.894128
v -0.123218 0.458740 -2.901079
v -0.122441 0.225000 -2.905162
v -0.121833 0.459110 -2.907968
v -0.120052 0.459579 -2.914802
v -0.119267 0.225000 -2.917420
v -0.117879 0.460142 -2.921563
v -0.115318 0.460790 -2.928221
v -0.114870 0.225000 -2.929294
v -0.112371 0.461517 -2.934748
v -0.109293 0.225000 -2.940663
v -0.109044 0.462314 -2.941112
v -0.105346 0.463171 -2.947287
v -0.102595 0.225000 -2.951409
v -0.101289 0.464075 -2.953250
v -0.096889 0.465014 -2.958979
v -0.094845 0.225000 -2.961422
v -0.092158 0.465974 -2.964449
v -0.087115 0.466943 -2.969639
v -0.086121 0.225000 -2.970599
v -0.081781 0.467906 -2.974530
v -0.076513 0.225000 -2.978847
v -0.076180 0.468851 -2.979102
v -0.070334 0.469764 -2.983335
v -0.066121 0.225000 -2.986081
v -0.064267 0.470632 -2.987214
v -0.058002 0.471444 -2.990727
v -0.055049 0.225000 -2.992226
v -0.051564 0.472192 -2.993868
v -0.044977 0.472866 -2.996628
v -0.043413 0.225000 -2.997219
v -0.038264 0.473456 -2.999000
v -0.031446 0.473957 -3.000980
v -0.031332 0.225000 -3.001010
v -0.024543 0.474365 -3.002566
v -0.018928 0.225000 -3.003559
v -0.017575 0.474675 -3.003758
v -0.010563 0.474882 -3.004553
v -0.006331 0.225000 -3.004840
v -0.003524 0.474986 -3.004951
v 0.003524 0.474986 -3.004951
v 0.006331 0.225000 -3.004840
v 0.010563 0.474882 -3.004553
v 0.017575 0.474675 -3.003758
v 0.018928 0.225000 -3.003559
v 0.024543 0.474365 -3.002566
v 0.031332 0.225000 -3.001010
v 0.031445 0.473957 -3.000980
v 0.038263 0.473456 -2.999000
v 0.043413 0.225000 -2.997219
v 0.044976 0.472866 -2.996628
v 0.051564 0.472192 -2.993868
v 0.055049 0.225000 -2.992226
v 0.058002 0.471444 -2.990727
v 0.064266 0.470632 -2.987214
v 0.066121 0.225000 -2.986081
v 0.070334 0.469764 -2.983335
v 0.076179 0.468851 -2.979102
v 0.076513 0.225000 -2.978847
v 0.081781 0.467906 -2.974530
v 0.086121 0.225000 -2.970599
v 0.087115 0.466943 -2.969640
v 0.092158 0.465974 -2.964449
v 0.094845 0.225000 -2.961422
v 0.096889 0.465014 -2.958979
v 0.101289 0.464075 -2.953251
v 0.102595 0.225000 -2.951409
v 0.105345 0.463171 -2.947287
v 0.109044 0.462314 -2.941112
v 0.109293 0.225000 -2.940663
v 0.112371 0.461517 -2.934748
v 0.114870 0.225000 -2.929294
v 0.115317 0.460790 -2.928222
v 0.117879 0.460142 -2.921563
v 0.119267 0.225000 -2.917420
v 0.120052 0.459579 -2.914802
v 0.121833 0.459110 -2.907968
v 0.122441 0.225000 -2.905162
v 0.123218 0.458741 -2.901079
v 0.124208 0.458474 -2.894128
v 0.124359 0.225000 -2.892646
v 0.124802 0.458312 -2.887105
v 0.125000 0.458258 -2.880000
v 0.125000 0.225000 -2.880000
f 1 2 3
f 2 4 3
f 2 5 4
f 5 6 4
f 6 7 4
f 6 8 7
f 8 9 7
f 9 10 7
f 9 11 10
f 11 12 10
f 12 13 10
f 12 14 13
f 14 15 13
f 14 16 15
f 16 17 15
f 17 18 15
f 17 19 18
f 19 20 18
f 20 21 18
f 20 22 21
f 22 23 21
f 23 24 21
f 23 25 24
f 25 26 24
f 25 27 26
f 27 28 26
f 28 29 26
f 28 30 29
f 30 31 29
f 31 32 29
f 31 33 32
f 33 34 32
f 34 35 32
f 34 36 35
f 36 37 35
f 37 38 35
f 37 39 38
f 39 40 38
f 39 41 40
f 41 42 40
f 42 43 40
f 42 44 43
f 44 45 43
f 45 46 43
f 45 47 46
f 47 48 46
f 48 49 46
f 48 50 49
f 50 51 49
f 50 52 51
f 52 53 51
f 53 54 51
f 53 55 54
f 55 56 54
f 56 57 54
f 56 58 57
f 58 59 57
f 59 60 57
f 59 61 60
f 61 62 60
f 62 63 60
f 62 64 63
f 64 65 63
f 64 66 65
f 66 67 65
f 67 68 65
f 67 69 68
f 69 70 68
f 70 71 68
f 70 72 71
f 72 73 71
f 73 74 71
f 73 75 74
f 75 76 74
f 75 77 76
f 77 78 76
f 78 79 76
f 78 80 79
f 80 81 79
f 81 82 79
f 81 83 82
f 83 84 82
f 84 85 82
f 84 86 85
f 86 87 85
f 87 88 85
