v -2.540000 0.500042 -4.207070
v -2.539998 0.500678 -4.220844
v -2.539994 0.502070 -4.234562
v -2.539993 0.504216 -4.248182
v -2.539998 0.507108 -4.261663
v -2.540010 0.510741 -4.274964
v -2.540025 0.515104 -4.288044
v -2.540034 0.520179 -4.300865
v -2.540026 0.525951 -4.313386
v -2.539992 0.532406 -4.325570
v -2.539935 0.539523 -4.337378
v -2.539884 0.547281 -4.348775
v -2.539874 0.555655 -4.359729
v -2.539941 0.564620 -4.370207
v -2.540114 0.574153 -4.380174
v -2.540335 0.584222 -4.389600
v -2.540476 0.594794 -4.398456
v -2.540407 0.605833 -4.406716
v -2.540000 0.617304 -4.414350
v -1.855747 0.500042 -4.207070
v -1.855747 0.500676 -4.220844
v -1.855747 0.502068 -4.234562
v -1.855747 0.504214 -4.248182
v -1.855747 0.507108 -4.261663
v -1.855747 0.510740 -4.274964
v -1.855747 0.515101 -4.288045
v -1.855747 0.520176 -4.300866
v -1.855747 0.525950 -4.313387
v -1.855747 0.532406 -4.325570
v -1.855747 0.539522 -4.337378
v -1.855747 0.547279 -4.348776
v -1.855747 0.555654 -4.359730
v -1.855747 0.564620 -4.370207
v -1.855747 0.574152 -4.380174
v -1.855747 0.584220 -4.389602
v -1.855747 0.594792 -4.398459
v -1.855747 0.605832 -4.406718
v -1.855747 0.617304 -4.414350
v -1.171011 0.500042 -4.207070
v -1.171011 0.500676 -4.220844
v -1.171011 0.502068 -4.234562
v -1.171011 0.504214 -4.248182
v -1.171011 0.507108 -4.261663
v -1.171011 0.510740 -4.274964
v -1.171011 0.515101 -4.288045
v -1.171011 0.520176 -4.300866
v -1.171011 0.525950 -4.313387
v -1.171011 0.532406 -4.325570
v -1.171011 0.539522 -4.337378
v -1.171011 0.547279 -4.348776
v -1.171011 0.555654 -4.359730
v -1.171011 0.564620 -4.370207
v -1.171011 0.574152 -4.380174
v -1.171011 0.584220 -4.389602
v -1.171011 0.594792 -4.398459
v -1.171011 0.605832 -4.406718
v -1.171011 0.617304 -4.414350
f 1 2 21
f 1 21 20
f 2 3 22
f 2 22 21
f 3 4 23
f 3 23 22
f 4 5 24
f 4 24 23
f 5 6 25
f 5 25 24
f 6 7 26
f 6 26 25
f 7 8 27
f 7 27 26
f 8 9 28
f 8 28 27
f 9 10 29
f 9 29 28
f 10 11 30
f 10 30 29
f 11 12 31
f 11 31 30
f 12 13 32
f 12 32 31
f 13 14 33
f 13 33 32
f 14 15 34
f 14 34 33
f 15 16 35
f 15 35 34
f 16 17 36
f 16 36 35
f 17 18 37
f 17 37 36
f 18 19 38
f 18 38 37
f 20 21 40
f 20 40 39
f 21 22 41
f 21 41 40
f 22 23 42
f 22 42 41
f 23 24 43
f 23 43 42
f 24 25 44
f 24 44 43
f 25 26 45
f 25 45 44
f 26 27 46
f 26 46 45
f 27 28 47
f 27 47 46
f 28 29 48
f 28 48 47
f 29 30 49
f 29 49 48
f 30 31 50
f 30 50 49
f 31 32 51
f 31 51 50
f 32 33 52
f 32 52 51
f 33 34 53
f 33 53 52
f 34 35 54
f 34 54 53
f 35 36 55
f 35 55 54
f 36 37 56
f 36 56 55
f 37 38 57
f 37 57 56
