v -2.665000 0.000000 -3.025000
v -2.664840 0.000000 -3.018669
v -2.664359 0.000000 -3.012354
v -2.663559 0.000000 -3.006072
v -2.662441 0.000000 -2.999838
v -2.661010 0.000000 -2.993668
v -2.659267 0.000000 -2.987580
v -2.657219 0.000000 -2.981587
v -2.654870 0.000000 -2.975706
v -2.652226 0.000000 -2.969951
v -2.649293 0.000000 -2.964337
v -2.646081 0.000000 -2.958879
v -2.642595 0.000000 -2.953591
v -2.638847 0.000000 -2.948487
v -2.634845 0.000000 -2.943578
v -2.630599 0.000000 -2.938879
v -2.626121 0.000000 -2.934401
v -2.621422 0.000000 -2.930155
v -2.616513 0.000000 -2.926153
v -2.611409 0.000000 -2.922405
v -2.606121 0.000000 -2.918919
v -2.600663 0.000000 -2.915707
v -2.595049 0.000000 -2.912774
v -2.589294 0.000000 -2.910130
v -2.583413 0.000000 -2.907781
v -2.577420 0.000000 -2.905733
v -2.571332 0.000000 -2.903990
v -2.565162 0.000000 -2.902559
v -2.558928 0.000000 -2.901441
v -2.552646 0.000000 -2.900641
v -2.546331 0.000000 -2.900160
v -2.540000 0.000000 -2.900000
v -2.665000 0.250000 -3.025000
v -2.664840 0.250000 -3.018669
v -2.664359 0.250000 -3.012354
v -2.663559 0.250000 -3.006072
v -2.662441 0.250000 -2.999838
v -2.661010 0.250000 -2.993668
v -2.659267 0.250000 -2.987580
v -2.657219 0.250000 -2.981587
v -2.654870 0.250000 -2.975706
v -2.652226 0.250000 -2.969951
v -2.649293 0.250000 -2.964337
v -2.646081 0.250000 -2.958879
v -2.642595 0.250000 -2.953591
v -2.638847 0.250000 -2.948487
v -2.634845 0.250000 -2.943578
v -2.630599 0.250000 -2.938879
v -2.626121 0.250000 -2.934401
v -2.621422 0.250000 -2.930155
v -2.616513 0.250000 -2.926153
v -2.611409 0.250000 -2.922405
v -2.606121 0.250000 -2.918919
v -2.600663 0.250000 -2.915707
v -2.595049 0.250000 -2.912774
v -2.589294 0.250000 -2.910130
v -2.583413 0.250000 -2.907781
v -2.577420 0.250000 -2.905733
v -2.571332 0.250000 -2.903990
v -2.565162 0.250000 -2.902559
v -2.558928 0.250000 -2.901441
v -2.552646 0.250000 -2.900641
v -2.546331 0.250000 -2.900160
v -2.540000 0.250000 -2.900000
f 1 2 34
f 1 34 33
f 2 3 35
f 2 35 34
f 3 4 36
f 3 36 35
f 4 5 37
f 4 37 36
f 5 6 38
f 5 38 37
f 6 7 39
f 6 39 38
f 7 8 40
f 7 40 39
f 8 9 41
f 8 41 40
f 9 10 42
f 9 42 41
f 10 11 43
f 10 43 42
f 11 12 44
f 11 44 43
f 12 13 45
f 12 45 44
f 13 14 46
f 13 46 45
f 14 15 47
f 14 47 46
f 15 16 48
f 15 48 47
f 16 17 49
f 16 49 48
f 17 18 50
f 17 50 49
f 18 19 51
f 18 51 50
f 19 20 52
f 19 52 51
f 20 21 53
f 20 53 52
f 21 22 54
f 21 54 53
f 22 23 55
f 22 55 54
f 23 24 56
f 23 56 55
f 24 25 57
f 24 57 56
f 25 26 58
f 25 58 57
f 26 27 59
f 26 59 58
f 27 28 60
f 27 60 59
f 28 29 61
f 28 61 60
f 29 30 62
f 29 62 61
f 30 31 63
f 30 63 62
f 31 32 64
f 31 64 63
