v 1.889011 0.565914 -6.288094
v 1.895562 0.566481 -6.286964
v 1.892292 0.566201 -6.287565
v 1.898818 0.566753 -6.286291
v 1.902059 0.567016 -6.285545
v 1.905284 0.567271 -6.284727
v 1.908490 0.567518 -6.283838
v 1.911676 0.567756 -6.282878
v 1.914841 0.567985 -6.281848
v 1.917982 0.568205 -6.280748
v 1.921100 0.568416 -6.279578
v 1.888037 0.575919 -6.287029
v 1.887347 0.585592 -6.285722
v 1.886927 0.594949 -6.284187
v 1.886761 0.604007 -6.282436
v 1.886834 0.612784 -6.280483
v 1.887136 0.621283 -6.278339
v 1.887664 0.629495 -6.276010
v 1.888414 0.637406 -6.273503
v 1.889381 0.645006 -6.270826
v 1.890563 0.652282 -6.267986
v 1.918389 0.578791 -6.279061
v 1.918372 0.578853 -6.279057
v 1.915539 0.588706 -6.278340
v 1.915504 0.588823 -6.278330
v 1.912576 0.598163 -6.277441
v 1.912522 0.598329 -6.277423
v 1.909526 0.607168 -6.276387
v 1.909452 0.607378 -6.276360
v 1.906411 0.615734 -6.275201
v 1.906317 0.615983 -6.275163
v 1.903253 0.623863 -6.273905
v 1.903140 0.624146 -6.273856
v 1.900082 0.631549 -6.272522
v 1.899950 0.631859 -6.272463
v 1.896923 0.638787 -6.271075
v 1.896774 0.639119 -6.271005
v 1.893801 0.645578 -6.269585
v 1.893637 0.645925 -6.269506
v 1.890739 0.651925 -6.268074
v 1.927254 0.568811 -6.277032
v 1.924191 0.568618 -6.278339
v 1.930289 0.568994 -6.275657
v 1.933292 0.569168 -6.274216
v 1.936264 0.569333 -6.272708
v 1.939202 0.569488 -6.271135
v 1.942104 0.569633 -6.269497
v 1.944971 0.569769 -6.267796
v 1.947799 0.569895 -6.266031
v 1.950588 0.570011 -6.264204
v 1.891955 0.659224 -6.264989
v 1.893553 0.665820 -6.261842
v 1.895353 0.672062 -6.258551
v 1.897351 0.677938 -6.255124
v 1.899540 0.683437 -6.251569
v 1.901908 0.688543 -6.247903
v 1.904442 0.693240 -6.244142
v 1.907129 0.697511 -6.240303
v 1.909958 0.701342 -6.236402
v 1.912911 0.704730 -6.232457
v 1.949222 0.580869 -6.263152
v 1.949213 0.580934 -6.263145
v 1.947661 0.591293 -6.261916
v 1.947641 0.591416 -6.261900
v 1.945932 0.601281 -6.260521
v 1.945899 0.601457 -6.260495
v 1.944060 0.610836 -6.258990
v 1.944013 0.611059 -6.258952
v 1.942068 0.619966 -6.257343
v 1.942007 0.620232 -6.257292
v 1.939979 0.628670 -6.255602
v 1.939903 0.628973 -6.255539
v 1.937819 0.636936 -6.253790
v 1.937728 0.637270 -6.253714
v 1.935615 0.644756 -6.251931
v 1.935510 0.645116 -6.251842
v 1.933389 0.652126 -6.250045
v 1.933271 0.652503 -6.249945
v 1.931166 0.659043 -6.248155
v 1.931037 0.659433 -6.248045
v 1.928967 0.665511 -6.246278
v 1.928829 0.665906 -6.246160
v 1.926811 0.671533 -6.244434
v 1.926666 0.671929 -6.244310
v 1.924717 0.677117 -6.242638
v 1.924566 0.677508 -6.242509
v 1.922700 0.682271 -6.240906
v 1.922547 0.682653 -6.240774
v 1.920776 0.687001 -6.239250
v 1.920623 0.687370 -6.239118
v 1.918960 0.691312 -6.237685
v 1.918809 0.691665 -6.237555
v 1.917265 0.695211 -6.236223
v 1.917119 0.695543 -6.236096
v 1.915705 0.698702 -6.234875
v 1.915567 0.699008 -6.234755
v 1.914290 0.701791 -6.233651
v 1.914162 0.702067 -6.233541
v 1.913027 0.704489 -6.232558
v 1.956043 0.570213 -6.260368
v 1.953337 0.570117 -6.262316
v 1.958706 0.570299 -6.258360
v 1.961324 0.570376 -6.256294
v 1.963897 0.570442 -6.254170
v 1.966422 0.570498 -6.251990
v 1.968898 0.570543 -6.249755
v 1.971325 0.570579 -6.247466
v 1.973701 0.570605 -6.245124
v 1.976024 0.570620 -6.242730
v 1.978295 0.570625 -6.240286
v 1.980510 0.570620 -6.237792
v 1.982671 0.570605 -6.235250
v 1.984775 0.570579 -6.232661
v 1.986821 0.570543 -6.230026
v 1.988809 0.570498 -6.227347
v 1.990737 0.570442 -6.224625
v 1.992604 0.570376 -6.221861
v 1.994410 0.570299 -6.219057
v 1.996154 0.570213 -6.216214
v 1.997834 0.570117 -6.213334
v 1.915972 0.707675 -6.228486
v 1.919123 0.710182 -6.224507
v 1.922347 0.712252 -6.220537
v 1.925629 0.713891 -6.216591
v 1.928966 0.715105 -6.212673
v 1.932355 0.715900 -6.208781
v 1.935795 0.716285 -6.204917
v 1.939284 0.716266 -6.201080
v 1.942817 0.715842 -6.197276
v 1.946390 0.715008 -6.193512
v 1.949996 0.713754 -6.189797
v 1.953630 0.712073 -6.186138
v 1.957284 0.709958 -6.182546
v 1.960947 0.707407 -6.179034
v 1.996607 0.581004 -6.212160
v 1.996599 0.581069 -6.212152
v 1.995179 0.591457 -6.210806
v 1.995161 0.591580 -6.210788
v 1.993578 0.601473 -6.209296
v 1.993548 0.601650 -6.209268
v 1.991829 0.611058 -6.207654
v 1.991786 0.611282 -6.207613
v 1.989954 0.620217 -6.205900
v 1.989897 0.620484 -6.205846
v 1.987978 0.628950 -6.204056
v 1.987906 0.629254 -6.203988
v 1.985925 0.637245 -6.202144
v 1.985839 0.637580 -6.202063
v 1.983822 0.645093 -6.200188
v 1.983722 0.645454 -6.200095
v 1.981693 0.652490 -6.198211
v 1.981579 0.652869 -6.198106
v 1.979560 0.659434 -6.196234
v 1.979436 0.659825 -6.196119
v 1.977445 0.665927 -6.194275
v 1.977312 0.666324 -6.194151
v 1.975369 0.671974 -6.192352
v 1.975228 0.672371 -6.192222
v 1.973348 0.677581 -6.190483
v 1.973203 0.677974 -6.190349
v 1.971399 0.682756 -6.188681
v 1.971251 0.683140 -6.188545
v 1.969538 0.687507 -6.186962
v 1.969390 0.687878 -6.186825
v 1.967780 0.691838 -6.185338
v 1.967633 0.692192 -6.185203
v 1.966138 0.695754 -6.183822
v 1.965996 0.696087 -6.183691
v 1.964624 0.699261 -6.182426
v 1.964490 0.699568 -6.182302
v 1.963251 0.702364 -6.181159
v 1.963127 0.702641 -6.181044
v 1.962024 0.705075 -6.180027
v 1.961913 0.705318 -6.179924
v 2.001002 0.569895 -6.207466
v 1.999451 0.570011 -6.210417
v 2.002488 0.569769 -6.204482
v 2.003908 0.569633 -6.201466
v 2.005260 0.569488 -6.198419
v 2.006545 0.569333 -6.195344
v 2.007761 0.569168 -6.192242
v 2.008908 0.568994 -6.189114
v 2.009986 0.568811 -6.185962
v 2.010994 0.568618 -6.182788
v 1.964602 0.704420 -6.175620
v 1.968236 0.700995 -6.172322
v 1.971834 0.697131 -6.169156
v 1.975380 0.692835 -6.166138
v 1.978861 0.688120 -6.163281
v 1.982262 0.683003 -6.160600
v 1.985569 0.677498 -6.158108
v 1.988766 0.671620 -6.155817
v 1.991847 0.665383 -6.153735
v 1.994804 0.658795 -6.151866
v 2.010215 0.579054 -6.180259
v 2.010210 0.579116 -6.180243
v 2.009220 0.589032 -6.177605
v 2.009207 0.589150 -6.177573
v 2.008037 0.598555 -6.174852
v 2.008014 0.598723 -6.174801
v 2.006693 0.607629 -6.172020
v 2.006659 0.607841 -6.171952
v 2.005211 0.616266 -6.169131
v 2.005165 0.616517 -6.169044
v 2.003615 0.624467 -6.166205
v 2.003556 0.624751 -6.166100
v 2.001932 0.632224 -6.163267
v 2.001860 0.632537 -6.163145
v 2.000186 0.639535 -6.160343
v 2.000102 0.639870 -6.160205
v 1.998400 0.646398 -6.157454
v 1.998305 0.646749 -6.157303
v 1.996599 0.652816 -6.154622
v 1.996494 0.653177 -6.154459
v 2.012797 0.568205 -6.176378
v 2.011931 0.568416 -6.179592
v 2.013592 0.567985 -6.173145
v 2.014315 0.567756 -6.169896
v 2.014965 0.567518 -6.166633
v 2.015543 0.567271 -6.163356
v 2.016048 0.567016 -6.160068
v 2.016480 0.566753 -6.156771
v 2.016839 0.566481 -6.153465
v 2.017125 0.566201 -6.150153
v 2.017336 0.565914 -6.146836
v 1.997631 0.651869 -6.150216
v 2.000323 0.644614 -6.148787
v 2.002874 0.637041 -6.147586
v 2.005276 0.629161 -6.146616
v 2.007525 0.620986 -6.145881
v 2.009612 0.612527 -6.145386
v 2.011533 0.603795 -6.145135
v 2.013277 0.594784 -6.145138
v 2.014834 0.585478 -6.145412
v 2.016191 0.575860 -6.145973
f 1 2 3
f 1 4 2
f 1 5 4
f 1 6 5
f 1 7 6
f 1 8 7
f 1 9 8
f 1 10 9
f 1 11 10
f 1 12 13
f 1 13 14
f 1 14 15
f 1 15 16
f 1 16 17
f 1 17 18
f 1 18 19
f 1 19 20
f 1 20 21
f 1 22 11
f 1 23 22
f 1 24 23
f 1 25 24
f 1 26 25
f 1 27 26
f 1 28 27
f 1 29 28
f 1 30 29
f 1 31 30
f 1 32 31
f 1 33 32
f 1 34 33
f 1 35 34
f 1 36 35
f 1 37 36
f 1 38 37
f 1 39 38
f 1 40 39
f 1 21 40
f 11 41 42
f 11 43 41
f 11 44 43
f 11 45 44
f 11 46 45
f 11 47 46
f 11 48 47
f 11 49 48
f 11 50 49
f 21 51 52
f 21 52 53
f 21 53 54
f 21 54 55
f 21 55 56
f 21 56 57
f 21 57 58
f 21 58 59
f 21 59 60
f 11 22 50
f 22 61 50
f 22 23 61
f 23 62 61
f 23 24 62
f 24 63 62
f 24 25 63
f 25 64 63
f 25 26 64
f 26 65 64
f 26 27 65
f 27 66 65
f 27 28 66
f 28 67 66
f 28 29 67
f 29 68 67
f 29 30 68
f 30 69 68
f 30 31 69
f 31 70 69
f 31 32 70
f 32 71 70
f 32 33 71
f 33 72 71
f 33 34 72
f 34 73 72
f 34 35 73
f 35 74 73
f 35 36 74
f 36 75 74
f 36 37 75
f 37 76 75
f 37 38 76
f 38 77 76
f 38 39 77
f 39 78 77
f 39 40 78
f 40 79 78
f 40 21 79
f 21 80 79
f 21 81 80
f 21 82 81
f 21 83 82
f 21 84 83
f 21 85 84
f 21 86 85
f 21 87 86
f 21 88 87
f 21 89 88
f 21 90 89
f 21 91 90
f 21 92 91
f 21 93 92
f 21 94 93
f 21 95 94
f 21 96 95
f 21 97 96
f 21 98 97
f 21 99 98
f 21 60 99
f 50 100 101
f 50 102 100
f 50 103 102
f 50 104 103
f 50 105 104
f 50 106 105
f 50 107 106
f 50 108 107
f 50 109 108
f 50 110 109
f 50 111 110
f 50 112 111
f 50 113 112
f 50 114 113
f 50 115 114
f 50 116 115
f 50 117 116
f 50 118 117
f 50 119 118
f 50 120 119
f 60 121 122
f 60 122 123
f 60 123 124
f 60 124 125
f 60 125 126
f 60 126 127
f 60 127 128
f 60 128 129
f 60 129 130
f 60 130 131
f 60 131 132
f 60 132 133
f 60 133 134
f 50 61 120
f 61 135 120
f 61 62 135
f 62 136 135
f 62 63 136
f 63 137 136
f 63 64 137
f 64 138 137
f 64 65 138
f 65 139 138
f 65 66 139
f 66 140 139
f 66 67 140
f 67 141 140
f 67 68 141
f 68 142 141
f 68 69 142
f 69 143 142
f 69 70 143
f 70 144 143
f 70 71 144
f 71 145 144
f 71 72 145
f 72 146 145
f 72 73 146
f 73 147 146
f 73 74 147
f 74 148 147
f 74 75 148
f 75 149 148
f 75 76 149
f 76 150 149
f 76 77 150
f 77 151 150
f 77 78 151
f 78 152 151
f 78 79 152
f 79 153 152
f 79 80 153
f 80 154 153
f 80 81 154
f 81 155 154
f 81 82 155
f 82 156 155
f 82 83 156
f 83 157 156
f 83 84 157
f 84 158 157
f 84 85 158
f 85 159 158
f 85 86 159
f 86 160 159
f 86 87 160
f 87 161 160
f 87 88 161
f 88 162 161
f 88 89 162
f 89 163 162
f 89 90 163
f 90 164 163
f 90 91 164
f 91 165 164
f 91 92 165
f 92 166 165
f 92 93 166
f 93 167 166
f 93 94 167
f 94 168 167
f 94 95 168
f 95 169 168
f 95 96 169
f 96 170 169
f 96 97 170
f 97 171 170
f 97 98 171
f 98 172 171
f 98 99 172
f 99 173 172
f 99 60 173
f 60 174 173
f 60 134 174
f 120 175 176
f 120 177 175
f 120 178 177
f 120 179 178
f 120 180 179
f 120 181 180
f 120 182 181
f 120 183 182
f 120 184 183
f 134 185 186
f 134 186 187
f 134 187 188
f 134 188 189
f 134 189 190
f 134 190 191
f 134 191 192
f 134 192 193
f 134 193 194
f 120 135 184
f 135 195 184
f 135 136 195
f 136 196 195
f 136 137 196
f 137 197 196
f 137 138 197
f 138 198 197
f 138 139 198
f 139 199 198
f 139 140 199
f 140 200 199
f 140 141 200
f 141 201 200
f 141 142 201
f 142 202 201
f 142 143 202
f 143 203 202
f 143 144 203
f 144 204 203
f 144 145 204
f 145 205 204
f 145 146 205
f 146 206 205
f 146 147 206
f 147 207 206
f 147 148 207
f 148 208 207
f 148 149 208
f 149 209 208
f 149 150 209
f 150 210 209
f 150 151 210
f 151 211 210
f 151 152 211
f 152 212 211
f 152 153 212
f 153 213 212
f 153 154 213
f 154 214 213
f 154 155 214
f 155 194 214
f 155 156 194
f 156 157 194
f 157 158 194
f 158 159 194
f 159 160 194
f 160 161 194
f 161 162 194
f 162 163 194
f 163 164 194
f 164 165 194
f 165 166 194
f 166 167 194
f 167 168 194
f 168 169 194
f 169 170 194
f 170 171 194
f 171 172 194
f 172 173 194
f 173 174 194
f 174 134 194
f 184 215 216
f 184 217 215
f 184 218 217
f 184 219 218
f 184 220 219
f 184 221 220
f 184 222 221
f 184 223 222
f 184 224 223
f 184 225 224
f 194 226 227
f 194 227 228
f 194 228 229
f 194 229 230
f 194 230 231
f 194 231 232
f 194 232 233
f 194 233 234
f 194 234 235
f 194 235 225
f 184 195 225
f 195 196 225
f 196 197 225
f 197 198 225
f 198 199 225
f 199 200 225
f 200 201 225
f 201 202 225
f 202 203 225
f 203 204 225
f 204 205 225
f 205 206 225
f 206 207 225
f 207 208 225
f 208 209 225
f 209 210 225
f 210 211 225
f 211 212 225
f 212 213 225
f 213 214 225
f 214 194 225
