v -0.494723 0.016837 -0.461907
v -0.494723 0.220000 -0.461907
v -0.543233 0.220000 -0.484527
v -0.543233 0.000000 -0.484527
v -0.488203 0.000000 -0.458866
v -0.488203 0.010000 -0.458866
v -0.494723 0.016837 -0.461907
v -0.494506 0.016611 -0.461808
v -0.494287 0.016388 -0.461716
v -0.494067 0.016168 -0.461629
v -0.493846 0.015951 -0.461547
v -0.493624 0.015736 -0.461471
v -0.493401 0.015525 -0.461400
v -0.493177 0.015317 -0.461335
v -0.492952 0.015112 -0.461276
v -0.492727 0.014911 -0.461221
v -0.492501 0.014712 -0.461172
v -0.492274 0.014517 -0.461129
v -0.492047 0.014325 -0.461091
v -0.491820 0.014137 -0.461058
v -0.491592 0.013952 -0.461030
v -0.491364 0.013770 -0.461007
v -0.491136 0.013592 -0.460990
v -0.490908 0.013418 -0.460978
v -0.490680 0.013247 -0.460971
v -0.490452 0.013080 -0.460970
v -0.490225 0.012917 -0.460973
v -0.489998 0.012757 -0.460982
v -0.489771 0.012602 -0.460996
v -0.489545 0.012450 -0.461015
v -0.489320 0.012302 -0.461039
v -0.489095 0.012159 -0.461068
v -0.488871 0.012020 -0.461103
v -0.488648 0.011885 -0.461142
v -0.488426 0.011754 -0.461187
v -0.488206 0.011628 -0.461236
v -0.487986 0.011506 -0.461291
v -0.487768 0.011388 -0.461350
v -0.487552 0.011275 -0.461414
v -0.487337 0.011167 -0.461483
v -0.487124 0.011063 -0.461557
v -0.486914 0.010963 -0.461635
v -0.486705 0.010869 -0.461718
v -0.486498 0.010779 -0.461805
v -0.486294 0.010694 -0.461897
v -0.486093 0.010614 -0.461993
v -0.485894 0.010539 -0.462093
v -0.485697 0.010469 -0.462197
v -0.485504 0.010403 -0.462305
v -0.485314 0.010343 -0.462418
v -0.485127 0.010288 -0.462534
v -0.484943 0.010237 -0.462654
v -0.484762 0.010192 -0.462777
v -0.484584 0.010151 -0.462905
v -0.484410 0.010116 -0.463036
v -0.484239 0.010085 -0.463170
v -0.484071 0.010059 -0.463308
v -0.483907 0.010038 -0.463449
v -0.483746 0.010021 -0.463593
v -0.483588 0.010009 -0.463740
v -0.483434 0.010002 -0.463890
v -0.483284 0.010000 -0.464044
f 2 3 4
f 4 5 6
f 8 9 10
f 8 10 11
f 8 11 12
f 8 12 13
f 8 13 14
f 8 14 15
f 8 15 16
f 8 16 17
f 8 17 18
f 8 18 19
f 8 19 20
f 8 20 21
f 8 21 22
f 8 22 23
f 8 23 24
f 8 24 25
f 8 25 26
f 8 26 27
f 8 27 28
f 8 28 29
f 8 29 30
f 8 30 31
f 8 31 32
f 8 32 33
f 8 33 34
f 8 34 35
f 8 35 36
f 8 36 37
f 8 37 38
f 8 38 39
f 8 39 40
f 8 40 41
f 8 41 42
f 8 42 43
f 8 43 44
f 8 44 45
f 8 45 46
f 8 46 47
f 8 47 48
f 8 48 49
f 8 49 50
f 8 50 51
f 8 51 52
f 8 52 53
f 8 53 54
f 8 54 55
f 8 55 56
f 8 56 57
f 8 57 58
f 8 58 59
f 8 59 60
f 8 60 61
f 8 61 62
f 1 2 4
f 1 4 6
f 1 6 7
f 1 7 8
f 1 8 62
