v 1.547701 0.559197 -6.477430
v 1.552905 0.559736 -6.478794
v 1.550293 0.559470 -6.478147
v 1.555534 0.559995 -6.479370
v 1.558178 0.560246 -6.479875
v 1.560835 0.560490 -6.480309
v 1.563504 0.560727 -6.480670
v 1.566182 0.560955 -6.480960
v 1.568868 0.561176 -6.481178
v 1.571559 0.561389 -6.481323
v 1.574254 0.561593 -6.481395
v 1.547127 0.567822 -6.476327
v 1.546774 0.576185 -6.475126
v 1.546629 0.584300 -6.473833
v 1.546684 0.592181 -6.472452
v 1.546928 0.599839 -6.470988
v 1.547359 0.607279 -6.469443
v 1.547980 0.614499 -6.467815
v 1.548792 0.621498 -6.466106
v 1.549797 0.628275 -6.464315
v 1.550995 0.634819 -6.462444
v 1.572080 0.570631 -6.480154
v 1.572080 0.570632 -6.480153
v 1.569832 0.579280 -6.478697
v 1.569832 0.579283 -6.478697
v 1.567527 0.587541 -6.477055
v 1.567526 0.587545 -6.477054
v 1.565180 0.595417 -6.475253
v 1.565178 0.595423 -6.475251
v 1.562803 0.602916 -6.473315
v 1.562801 0.602923 -6.473313
v 1.560413 0.610039 -6.471267
v 1.560410 0.610047 -6.471265
v 1.558023 0.616787 -6.469134
v 1.558020 0.616796 -6.469131
v 1.555648 0.623163 -6.466938
v 1.555645 0.623172 -6.466935
v 1.553301 0.629174 -6.464702
v 1.553297 0.629183 -6.464699
v 1.579647 0.561975 -6.481323
v 1.576951 0.561788 -6.481395
v 1.582341 0.562154 -6.481178
v 1.585030 0.562323 -6.480960
v 1.587713 0.562483 -6.480670
v 1.590388 0.562635 -6.480308
v 1.593053 0.562777 -6.479875
v 1.595706 0.562909 -6.479370
v 1.598345 0.563033 -6.478793
v 1.600967 0.563146 -6.478146
v 1.552385 0.641114 -6.460498
v 1.553964 0.647145 -6.458481
v 1.555731 0.652895 -6.456398
v 1.557687 0.658352 -6.454251
v 1.559839 0.663512 -6.452035
v 1.562197 0.668371 -6.449746
v 1.564768 0.672925 -6.447381
v 1.567553 0.677163 -6.444940
v 1.570532 0.681055 -6.442442
v 1.573678 0.684562 -6.439907
v 1.576967 0.687651 -6.437359
v 1.600254 0.572684 -6.476866
v 1.600254 0.572686 -6.476866
v 1.599410 0.581868 -6.475374
v 1.599409 0.581872 -6.475374
v 1.598449 0.590693 -6.473697
v 1.598449 0.590698 -6.473696
v 1.597388 0.599159 -6.471859
v 1.597387 0.599166 -6.471858
v 1.596239 0.607270 -6.469883
v 1.596238 0.607278 -6.469881
v 1.595019 0.615022 -6.467793
v 1.595018 0.615031 -6.467791
v 1.593741 0.622411 -6.465613
v 1.593739 0.622420 -6.465610
v 1.592419 0.629436 -6.463366
v 1.592417 0.629446 -6.463362
v 1.591067 0.636098 -6.461072
v 1.591064 0.636108 -6.461068
v 1.589697 0.642394 -6.458755
v 1.589695 0.642405 -6.458751
v 1.588326 0.648318 -6.456439
v 1.588324 0.648329 -6.456435
v 1.586967 0.653864 -6.454147
v 1.586964 0.653876 -6.454142
v 1.585633 0.659032 -6.451900
v 1.585630 0.659044 -6.451895
v 1.584336 0.663826 -6.449718
v 1.584332 0.663838 -6.449712
v 1.583084 0.668257 -6.447614
v 1.583080 0.668269 -6.447608
v 1.581884 0.672339 -6.445600
v 1.581881 0.672351 -6.445594
v 1.580744 0.676084 -6.443687
v 1.580740 0.676095 -6.443680
v 1.579670 0.679498 -6.441886
v 1.579666 0.679509 -6.441880
v 1.578674 0.682572 -6.440217
v 1.578670 0.682583 -6.440211
v 1.577769 0.685294 -6.438702
v 1.577766 0.685304 -6.438696
v 1.606157 0.563345 -6.476642
v 1.603572 0.563251 -6.477429
v 1.608720 0.563430 -6.475787
v 1.611259 0.563504 -6.474862
v 1.613773 0.563569 -6.473870
v 1.616260 0.563625 -6.472811
v 1.618718 0.563670 -6.471685
v 1.621145 0.563705 -6.470494
v 1.623539 0.563730 -6.469238
v 1.625899 0.563745 -6.467919
v 1.628222 0.563750 -6.466537
v 1.630508 0.563745 -6.465093
v 1.632754 0.563730 -6.463588
v 1.634959 0.563705 -6.462024
v 1.637122 0.563670 -6.460402
v 1.639240 0.563625 -6.458722
v 1.641312 0.563569 -6.456986
v 1.643336 0.563504 -6.455196
v 1.645312 0.563430 -6.453352
v 1.647237 0.563345 -6.451456
v 1.649111 0.563251 -6.449509
v 1.580375 0.690288 -6.434816
v 1.583883 0.692469 -6.432291
v 1.587475 0.694203 -6.429791
v 1.591137 0.695497 -6.427324
v 1.594853 0.696358 -6.424898
v 1.598612 0.696789 -6.422520
v 1.602408 0.696790 -6.420192
v 1.606233 0.696361 -6.417921
v 1.610080 0.695502 -6.415709
v 1.613940 0.694210 -6.413564
v 1.617798 0.692478 -6.411496
v 1.621640 0.690298 -6.409514
v 1.648208 0.572818 -6.448375
v 1.648208 0.572820 -6.448375
v 1.647179 0.582032 -6.447024
v 1.647179 0.582036 -6.447024
v 1.646039 0.590888 -6.445483
v 1.646038 0.590893 -6.445482
v 1.644804 0.599385 -6.443774
v 1.644803 0.599391 -6.443773
v 1.643486 0.607527 -6.441922
v 1.643485 0.607534 -6.441920
v 1.642103 0.615310 -6.439951
v 1.642101 0.615318 -6.439948
v 1.640667 0.622730 -6.437883
v 1.640665 0.622739 -6.437881
v 1.639193 0.629785 -6.435743
v 1.639191 0.629795 -6.435740
v 1.637694 0.636476 -6.433551
v 1.637692 0.636487 -6.433548
v 1.636185 0.642802 -6.431331
v 1.636182 0.642812 -6.431327
v 1.634680 0.648753 -6.429106
v 1.634677 0.648764 -6.429102
v 1.633194 0.654327 -6.426899
v 1.633191 0.654338 -6.426894
v 1.631740 0.659520 -6.424732
v 1.631737 0.659532 -6.424727
v 1.630331 0.664338 -6.422624
v 1.630327 0.664350 -6.422618
v 1.628973 0.668793 -6.420588
v 1.628969 0.668805 -6.420582
v 1.627675 0.672896 -6.418638
v 1.627672 0.672908 -6.418632
v 1.626444 0.676661 -6.416782
v 1.626440 0.676673 -6.416777
v 1.625286 0.680094 -6.415035
v 1.625282 0.680105 -6.415029
v 1.624213 0.683185 -6.413414
v 1.624210 0.683196 -6.413409
v 1.623240 0.685922 -6.411941
v 1.623237 0.685932 -6.411936
v 1.622379 0.688293 -6.410636
v 1.622376 0.688302 -6.410632
v 1.621640 0.690288 -6.409517
v 1.652698 0.563033 -6.445469
v 1.650932 0.563146 -6.447513
v 1.654408 0.562909 -6.443379
v 1.656062 0.562777 -6.441244
v 1.657657 0.562635 -6.439066
v 1.659193 0.562483 -6.436846
v 1.660668 0.562323 -6.434586
v 1.662082 0.562154 -6.432288
v 1.663433 0.561975 -6.429953
v 1.664721 0.561788 -6.427583
v 1.625452 0.687662 -6.407630
v 1.629216 0.684575 -6.405854
v 1.632903 0.681068 -6.404199
v 1.636482 0.677177 -6.402677
v 1.639922 0.672939 -6.401301
v 1.643197 0.668385 -6.400082
v 1.646308 0.663526 -6.399018
v 1.649260 0.658366 -6.398104
v 1.652063 0.652909 -6.397335
v 1.654721 0.647158 -6.396704
v 1.657235 0.641126 -6.396212
v 1.664577 0.570888 -6.425198
v 1.664577 0.570890 -6.425198
v 1.664279 0.579604 -6.422645
v 1.664279 0.579607 -6.422644
v 1.663842 0.587934 -6.419951
v 1.663842 0.587939 -6.419950
v 1.663284 0.595883 -6.417142
v 1.663284 0.595889 -6.417140
v 1.662620 0.603458 -6.414240
v 1.662620 0.603465 -6.414238
v 1.661866 0.610659 -6.411271
v 1.661865 0.610666 -6.411267
v 1.661036 0.617485 -6.408257
v 1.661035 0.617494 -6.408254
v 1.660146 0.623941 -6.405224
v 1.660144 0.623950 -6.405219
v 1.659207 0.630032 -6.402190
v 1.659205 0.630041 -6.402186
v 1.658234 0.635758 -6.399181
v 1.658233 0.635768 -6.399175
v 1.657242 0.641118 -6.396219
v 1.667102 0.561389 -6.422745
v 1.665944 0.561593 -6.425180
v 1.668193 0.561176 -6.420281
v 1.669218 0.560955 -6.417789
v 1.670174 0.560727 -6.415270
v 1.671062 0.560490 -6.412728
v 1.671881 0.560246 -6.410163
v 1.672631 0.559995 -6.407577
v 1.673309 0.559736 -6.404973
v 1.673918 0.559470 -6.402352
v 1.674454 0.559197 -6.399717
v 1.659601 0.634830 -6.395856
v 1.661812 0.628285 -6.395636
v 1.663865 0.621508 -6.395553
v 1.665757 0.614509 -6.395604
v 1.667489 0.607287 -6.395789
v 1.669063 0.599846 -6.396106
v 1.670478 0.592187 -6.396552
v 1.671734 0.584305 -6.397130
v 1.672822 0.576188 -6.397845
v 1.673732 0.567824 -6.398705
f 1 2 3
f 1 4 2
f 1 5 4
f 1 6 5
f 1 7 6
f 1 8 7
f 1 9 8
f 1 10 9
f 1 11 10
f 1 12 13
f 1 13 14
f 1 14 15
f 1 15 16
f 1 16 17
f 1 17 18
f 1 18 19
f 1 19 20
f 1 20 21
f 1 22 11
f 1 23 22
f 1 24 23
f 1 25 24
f 1 26 25
f 1 27 26
f 1 28 27
f 1 29 28
f 1 30 29
f 1 31 30
f 1 32 31
f 1 33 32
f 1 34 33
f 1 35 34
f 1 36 35
f 1 37 36
f 1 38 37
f 1 39 38
f 1 21 39
f 11 40 41
f 11 42 40
f 11 43 42
f 11 44 43
f 11 45 44
f 11 46 45
f 11 47 46
f 11 48 47
f 11 49 48
f 21 50 51
f 21 51 52
f 21 52 53
f 21 53 54
f 21 54 55
f 21 55 56
f 21 56 57
f 21 57 58
f 21 58 59
f 21 59 60
f 11 22 49
f 22 61 49
f 22 23 61
f 23 62 61
f 23 24 62
f 24 63 62
f 24 25 63
f 25 64 63
f 25 26 64
f 26 65 64
f 26 27 65
f 27 66 65
f 27 28 66
f 28 67 66
f 28 29 67
f 29 68 67
f 29 30 68
f 30 69 68
f 30 31 69
f 31 70 69
f 31 32 70
f 32 71 70
f 32 33 71
f 33 72 71
f 33 34 72
f 34 73 72
f 34 35 73
f 35 74 73
f 35 36 74
f 36 75 74
f 36 37 75
f 37 76 75
f 37 38 76
f 38 77 76
f 38 39 77
f 39 78 77
f 39 21 78
f 21 79 78
f 21 80 79
f 21 81 80
f 21 82 81
f 21 83 82
f 21 84 83
f 21 85 84
f 21 86 85
f 21 87 86
f 21 88 87
f 21 89 88
f 21 90 89
f 21 91 90
f 21 92 91
f 21 93 92
f 21 94 93
f 21 95 94
f 21 96 95
f 21 97 96
f 21 98 97
f 21 99 98
f 21 100 99
f 21 60 100
f 49 101 102
f 49 103 101
f 49 104 103
f 49 105 104
f 49 106 105
f 49 107 106
f 49 108 107
f 49 109 108
f 49 110 109
f 49 111 110
f 49 112 111
f 49 113 112
f 49 114 113
f 49 115 114
f 49 116 115
f 49 117 116
f 49 118 117
f 49 119 118
f 49 120 119
f 49 121 120
f 60 122 123
f 60 123 124
f 60 124 125
f 60 125 126
f 60 126 127
f 60 127 128
f 60 128 129
f 60 129 130
f 60 130 131
f 60 131 132
f 60 132 133
f 49 61 121
f 61 134 121
f 61 62 134
f 62 135 134
f 62 63 135
f 63 136 135
f 63 64 136
f 64 137 136
f 64 65 137
f 65 138 137
f 65 66 138
f 66 139 138
f 66 67 139
f 67 140 139
f 67 68 140
f 68 141 140
f 68 69 141
f 69 142 141
f 69 70 142
f 70 143 142
f 70 71 143
f 71 144 143
f 71 72 144
f 72 145 144
f 72 73 145
f 73 146 145
f 73 74 146
f 74 147 146
f 74 75 147
f 75 148 147
f 75 76 148
f 76 149 148
f 76 77 149
f 77 150 149
f 77 78 150
f 78 151 150
f 78 79 151
f 79 152 151
f 79 80 152
f 80 153 152
f 80 81 153
f 81 154 153
f 81 82 154
f 82 155 154
f 82 83 155
f 83 156 155
f 83 84 156
f 84 157 156
f 84 85 157
f 85 158 157
f 85 86 158
f 86 159 158
f 86 87 159
f 87 160 159
f 87 88 160
f 88 161 160
f 88 89 161
f 89 162 161
f 89 90 162
f 90 163 162
f 90 91 163
f 91 164 163
f 91 92 164
f 92 165 164
f 92 93 165
f 93 166 165
f 93 94 166
f 94 167 166
f 94 95 167
f 95 168 167
f 95 96 168
f 96 169 168
f 96 97 169
f 97 170 169
f 97 98 170
f 98 171 170
f 98 99 171
f 99 172 171
f 99 100 172
f 100 173 172
f 100 60 173
f 60 174 173
f 60 175 174
f 60 176 175
f 60 133 176
f 121 177 178
f 121 179 177
f 121 180 179
f 121 181 180
f 121 182 181
f 121 183 182
f 121 184 183
f 121 185 184
f 121 186 185
f 133 187 188
f 133 188 189
f 133 189 190
f 133 190 191
f 133 191 192
f 133 192 193
f 133 193 194
f 133 194 195
f 133 195 196
f 133 196 197
f 121 134 186
f 134 198 186
f 134 135 198
f 135 199 198
f 135 136 199
f 136 200 199
f 136 137 200
f 137 201 200
f 137 138 201
f 138 202 201
f 138 139 202
f 139 203 202
f 139 140 203
f 140 204 203
f 140 141 204
f 141 205 204
f 141 142 205
f 142 206 205
f 142 143 206
f 143 207 206
f 143 144 207
f 144 208 207
f 144 145 208
f 145 209 208
f 145 146 209
f 146 210 209
f 146 147 210
f 147 211 210
f 147 148 211
f 148 212 211
f 148 149 212
f 149 213 212
f 149 150 213
f 150 214 213
f 150 151 214
f 151 215 214
f 151 152 215
f 152 216 215
f 152 153 216
f 153 217 216
f 153 154 217
f 154 218 217
f 154 155 218
f 155 197 218
f 155 156 197
f 156 157 197
f 157 158 197
f 158 159 197
f 159 160 197
f 160 161 197
f 161 162 197
f 162 163 197
f 163 164 197
f 164 165 197
f 165 166 197
f 166 167 197
f 167 168 197
f 168 169 197
f 169 170 197
f 170 171 197
f 171 172 197
f 172 173 197
f 173 174 197
f 174 175 197
f 175 176 197
f 176 133 197
f 186 219 220
f 186 221 219
f 186 222 221
f 186 223 222
f 186 224 223
f 186 225 224
f 186 226 225
f 186 227 226
f 186 228 227
f 186 229 228
f 197 230 231
f 197 231 232
f 197 232 233
f 197 233 234
f 197 234 235
f 197 235 236
f 197 236 237
f 197 237 238
f 197 238 239
f 197 239 229
f 186 198 229
f 198 199 229
f 199 200 229
f 200 201 229
f 201 202 229
f 202 203 229
f 203 204 229
f 204 205 229
f 205 206 229
f 206 207 229
f 207 208 229
f 208 209 229
f 209 210 229
f 210 211 229
f 211 212 229
f 212 213 229
f 213 214 229
f 214 215 229
f 215 216 229
f 216 217 229
f 217 218 229
f 218 197 229
