v 0.025000 -1.325000 0.150000
v 0.025000 -1.345234 0.151026
v 0.025000 -1.335130 0.150257
v 0.025000 -1.355286 0.152306
v 0.025000 -1.365260 0.154094
v 0.025000 -1.375131 0.156385
v 0.025000 -1.384873 0.159172
v 0.025000 -1.394461 0.162450
v 0.475000 -1.325000 0.600000
v 0.474743 -1.335130 0.600000
v 0.473974 -1.345234 0.600000
v 0.472694 -1.355286 0.600000
v 0.470906 -1.365260 0.600000
v 0.468615 -1.375131 0.600000
v 0.465828 -1.384873 0.600000
v 0.462550 -1.394461 0.600000
v 0.047792 -1.325000 0.150578
v 0.047162 -1.394461 0.163011
v 0.070526 -1.325000 0.152309
v 0.069266 -1.394461 0.164695
v 0.091257 -1.394461 0.167495
v 0.093142 -1.325000 0.155189
v 0.113078 -1.394461 0.171406
v 0.115584 -1.325000 0.159212
v 0.134673 -1.394461 0.176417
v 0.137794 -1.325000 0.164365
v 0.159713 -1.325000 0.170637
v 0.155986 -1.394461 0.182516
v 0.176964 -1.394461 0.189686
v 0.181287 -1.325000 0.178012
v 0.202460 -1.325000 0.186469
v 0.197551 -1.394461 0.197910
v 0.217695 -1.394461 0.207165
v 0.223177 -1.325000 0.195988
v 0.237344 -1.394461 0.217429
v 0.243386 -1.325000 0.206544
v 0.263034 -1.325000 0.218110
v 0.256448 -1.394461 0.228675
v 0.274959 -1.394461 0.240875
v 0.282071 -1.325000 0.230656
v 0.292827 -1.394461 0.253996
v 0.300448 -1.325000 0.244151
v 0.318118 -1.325000 0.258559
v 0.310008 -1.394461 0.268005
v 0.326458 -1.394461 0.282867
v 0.335035 -1.325000 0.273843
v 0.351157 -1.325000 0.289965
v 0.342133 -1.394461 0.298542
v 0.356995 -1.394461 0.314992
v 0.366441 -1.325000 0.306882
v 0.371004 -1.394461 0.332173
v 0.380849 -1.325000 0.324552
v 0.394344 -1.325000 0.342929
v 0.384125 -1.394461 0.350041
v 0.406890 -1.325000 0.361966
v 0.396325 -1.394461 0.368552
v 0.407571 -1.394461 0.387656
v 0.418456 -1.325000 0.381614
v 0.429012 -1.325000 0.401823
v 0.417835 -1.394461 0.407305
v 0.438531 -1.325000 0.422540
v 0.427090 -1.394461 0.427449
v 0.446988 -1.325000 0.443713
v 0.435314 -1.394461 0.448036
v 0.442484 -1.394461 0.469014
v 0.454363 -1.325000 0.465287
v 0.460635 -1.325000 0.487206
v 0.448583 -1.394461 0.490327
v 0.453594 -1.394461 0.511922
v 0.465788 -1.325000 0.509416
v 0.457505 -1.394461 0.533743
v 0.469811 -1.325000 0.531858
v 0.460305 -1.394461 0.555734
v 0.472691 -1.325000 0.554474
v 0.461989 -1.394461 0.577838
v 0.474422 -1.325000 0.577208
v 0.025000 -1.413079 0.170439
v 0.025000 -1.403871 0.166208
v 0.025000 -1.422060 0.175131
v 0.025000 -1.430793 0.180271
v 0.025000 -1.439254 0.185847
v 0.025000 -1.447421 0.191845
v 0.025000 -1.455274 0.198248
v 0.025000 -1.462793 0.205041
v 0.458792 -1.403871 0.600000
v 0.454561 -1.413079 0.600000
v 0.449869 -1.422060 0.600000
v 0.444729 -1.430793 0.600000
v 0.439153 -1.439254 0.600000
v 0.433155 -1.447421 0.600000
v 0.426752 -1.455274 0.600000
v 0.419959 -1.462793 0.600000
v 0.045004 -1.462793 0.205548
v 0.064957 -1.462793 0.207068
v 0.084808 -1.462793 0.209596
v 0.104505 -1.462793 0.213126
v 0.123997 -1.462793 0.217650
v 0.143236 -1.462793 0.223155
v 0.162171 -1.462793 0.229627
v 0.180754 -1.462793 0.237050
v 0.198937 -1.462793 0.245404
v 0.216674 -1.462793 0.254669
v 0.233919 -1.462793 0.264821
v 0.250627 -1.462793 0.275832
v 0.266756 -1.462793 0.287676
v 0.282265 -1.462793 0.300322
v 0.297113 -1.462793 0.313737
v 0.311263 -1.462793 0.327887
v 0.324678 -1.462793 0.342735
v 0.337324 -1.462793 0.358244
v 0.349168 -1.462793 0.374373
v 0.360179 -1.462793 0.391081
v 0.370331 -1.462793 0.408326
v 0.379596 -1.462793 0.426063
v 0.387950 -1.462793 0.444246
v 0.395373 -1.462793 0.462829
v 0.401845 -1.462793 0.481764
v 0.407350 -1.462793 0.501003
v 0.411874 -1.462793 0.520495
v 0.415404 -1.462793 0.540192
v 0.417932 -1.462793 0.560043
v 0.419452 -1.462793 0.579996
v 0.025000 -1.476752 0.219726
v 0.025000 -1.469959 0.212207
v 0.025000 -1.483155 0.227579
v 0.025000 -1.489153 0.235746
v 0.025000 -1.494729 0.244207
v 0.025000 -1.499869 0.252940
v 0.025000 -1.504561 0.261921
v 0.025000 -1.508792 0.271129
v 0.412793 -1.469959 0.600000
v 0.405274 -1.476752 0.600000
v 0.397421 -1.483155 0.600000
v 0.389254 -1.489153 0.600000
v 0.380793 -1.494729 0.600000
v 0.372060 -1.499869 0.600000
v 0.363079 -1.504561 0.600000
v 0.353871 -1.508792 0.600000
v 0.041657 -1.508792 0.271551
v 0.058271 -1.508792 0.272816
v 0.074800 -1.508792 0.274921
v 0.091201 -1.508792 0.277861
v 0.107432 -1.508792 0.281627
v 0.123452 -1.508792 0.286211
v 0.139219 -1.508792 0.291600
v 0.154692 -1.508792 0.297781
v 0.169833 -1.508792 0.304738
v 0.184602 -1.508792 0.312453
v 0.198961 -1.508792 0.320905
v 0.212874 -1.508792 0.330075
v 0.226304 -1.508792 0.339937
v 0.239218 -1.508792 0.350466
v 0.251581 -1.508792 0.361637
v 0.263363 -1.508792 0.373419
v 0.274534 -1.508792 0.385782
v 0.285063 -1.508792 0.398696
v 0.294925 -1.508792 0.412126
v 0.304095 -1.508792 0.426039
v 0.312547 -1.508792 0.440398
v 0.320262 -1.508792 0.455167
v 0.327219 -1.508792 0.470308
v 0.333400 -1.508792 0.485781
v 0.338789 -1.508792 0.501548
v 0.343373 -1.508792 0.517568
v 0.347139 -1.508792 0.533799
v 0.350079 -1.508792 0.550200
v 0.352184 -1.508792 0.566729
v 0.353449 -1.508792 0.583343
v 0.025000 -1.515828 0.290127
v 0.025000 -1.512550 0.280539
v 0.025000 -1.518615 0.299869
v 0.025000 -1.520906 0.309740
v 0.025000 -1.522694 0.319714
v 0.025000 -1.523974 0.329766
v 0.025000 -1.524743 0.339870
v 0.025000 -1.525000 0.350000
v 0.344461 -1.512550 0.600000
v 0.334873 -1.515828 0.600000
v 0.325131 -1.518615 0.600000
v 0.315260 -1.520906 0.600000
v 0.305286 -1.522694 0.600000
v 0.295234 -1.523974 0.600000
v 0.285130 -1.524743 0.600000
v 0.275000 -1.525000 0.600000
v 0.037662 -1.525000 0.350321
v 0.050292 -1.525000 0.351283
v 0.062857 -1.525000 0.352883
v 0.075325 -1.525000 0.355118
v 0.087663 -1.525000 0.357981
v 0.099841 -1.525000 0.361465
v 0.111826 -1.525000 0.365562
v 0.123589 -1.525000 0.370261
v 0.135099 -1.525000 0.375549
v 0.146325 -1.525000 0.381413
v 0.157241 -1.525000 0.387839
v 0.167817 -1.525000 0.394809
v 0.178026 -1.525000 0.402306
v 0.187843 -1.525000 0.410310
v 0.197242 -1.525000 0.418802
v 0.206198 -1.525000 0.427758
v 0.214690 -1.525000 0.437157
v 0.222694 -1.525000 0.446974
v 0.230191 -1.525000 0.457183
v 0.237161 -1.525000 0.467759
v 0.243587 -1.525000 0.478675
v 0.249451 -1.525000 0.489901
v 0.254739 -1.525000 0.501411
v 0.259438 -1.525000 0.513174
v 0.263535 -1.525000 0.525159
v 0.267019 -1.525000 0.537337
v 0.269882 -1.525000 0.549675
v 0.272117 -1.525000 0.562143
v 0.273717 -1.525000 0.574708
v 0.274679 -1.525000 0.587338
f 1 3 2
f 1 2 4
f 1 4 5
f 1 5 6
f 1 6 7
f 1 7 8
f 9 11 10
f 9 12 11
f 9 13 12
f 9 14 13
f 9 15 14
f 9 16 15
f 1 8 17
f 17 8 18
f 17 18 19
f 19 18 20
f 19 20 21
f 19 21 22
f 22 21 23
f 22 23 24
f 24 23 25
f 24 25 26
f 26 25 27
f 27 25 28
f 27 28 29
f 27 29 30
f 30 29 31
f 31 29 32
f 31 32 33
f 31 33 34
f 34 33 35
f 34 35 36
f 36 35 37
f 37 35 38
f 37 38 39
f 37 39 40
f 40 39 41
f 40 41 42
f 42 41 43
f 43 41 44
f 43 44 45
f 43 45 46
f 46 45 47
f 47 45 48
f 47 48 49
f 47 49 50
f 50 49 51
f 50 51 52
f 52 51 53
f 53 51 54
f 53 54 55
f 55 54 56
f 55 56 57
f 55 57 58
f 58 57 59
f 59 57 60
f 59 60 61
f 61 60 62
f 61 62 63
f 63 62 64
f 63 64 65
f 63 65 66
f 66 65 67
f 67 65 68
f 67 68 69
f 67 69 70
f 70 69 71
f 70 71 72
f 72 71 73
f 72 73 74
f 74 73 75
f 74 75 76
f 76 75 9
f 9 75 16
f 8 78 77
f 8 77 79
f 8 79 80
f 8 80 81
f 8 81 82
f 8 82 83
f 8 83 84
f 16 86 85
f 16 87 86
f 16 88 87
f 16 89 88
f 16 90 89
f 16 91 90
f 16 92 91
f 8 84 18
f 18 84 93
f 18 93 20
f 20 93 94
f 20 94 21
f 21 94 95
f 21 95 23
f 23 95 96
f 23 96 25
f 25 96 97
f 25 97 28
f 28 97 98
f 28 98 29
f 29 98 99
f 29 99 32
f 32 99 100
f 32 100 33
f 33 100 101
f 33 101 35
f 35 101 102
f 35 102 38
f 38 102 103
f 38 103 39
f 39 103 104
f 39 104 41
f 41 104 105
f 41 105 44
f 44 105 106
f 44 106 45
f 45 106 107
f 45 107 48
f 48 107 108
f 48 108 49
f 49 108 109
f 49 109 51
f 51 109 110
f 51 110 54
f 54 110 111
f 54 111 56
f 56 111 112
f 56 112 57
f 57 112 113
f 57 113 60
f 60 113 114
f 60 114 62
f 62 114 115
f 62 115 64
f 64 115 116
f 64 116 65
f 65 116 117
f 65 117 68
f 68 117 118
f 68 118 69
f 69 118 119
f 69 119 71
f 71 119 120
f 71 120 73
f 73 120 121
f 73 121 75
f 75 121 122
f 75 122 92
f 75 92 16
f 84 124 123
f 84 123 125
f 84 125 126
f 84 126 127
f 84 127 128
f 84 128 129
f 84 129 130
f 92 132 131
f 92 133 132
f 92 134 133
f 92 135 134
f 92 136 135
f 92 137 136
f 92 138 137
f 84 130 93
f 93 130 139
f 93 139 94
f 94 139 140
f 94 140 95
f 95 140 141
f 95 141 96
f 96 141 142
f 96 142 97
f 97 142 143
f 97 143 98
f 98 143 144
f 98 144 99
f 99 144 145
f 99 145 100
f 100 145 146
f 100 146 101
f 101 146 147
f 101 147 102
f 102 147 148
f 102 148 103
f 103 148 149
f 103 149 104
f 104 149 150
f 104 150 105
f 105 150 151
f 105 151 106
f 106 151 152
f 106 152 107
f 107 152 153
f 107 153 108
f 108 153 154
f 108 154 109
f 109 154 155
f 109 155 110
f 110 155 156
f 110 156 111
f 111 156 157
f 111 157 112
f 112 157 158
f 112 158 113
f 113 158 159
f 113 159 114
f 114 159 160
f 114 160 115
f 115 160 161
f 115 161 116
f 116 161 162
f 116 162 117
f 117 162 163
f 117 163 118
f 118 163 164
f 118 164 119
f 119 164 165
f 119 165 120
f 120 165 166
f 120 166 121
f 121 166 167
f 121 167 122
f 122 167 168
f 122 168 92
f 92 168 138
f 130 170 169
f 130 169 171
f 130 171 172
f 130 172 173
f 130 173 174
f 130 174 175
f 130 175 176
f 138 178 177
f 138 179 178
f 138 180 179
f 138 181 180
f 138 182 181
f 138 183 182
f 138 184 183
f 130 176 139
f 139 176 185
f 139 185 140
f 140 185 186
f 140 186 141
f 141 186 187
f 141 187 142
f 142 187 188
f 142 188 143
f 143 188 189
f 143 189 144
f 144 189 190
f 144 190 145
f 145 190 191
f 145 191 146
f 146 191 192
f 146 192 147
f 147 192 193
f 147 193 148
f 148 193 194
f 148 194 149
f 149 194 195
f 149 195 150
f 150 195 196
f 150 196 151
f 151 196 197
f 151 197 152
f 152 197 198
f 152 198 153
f 153 198 199
f 153 199 154
f 154 199 200
f 154 200 155
f 155 200 201
f 155 201 156
f 156 201 202
f 156 202 157
f 157 202 203
f 157 203 158
f 158 203 204
f 158 204 159
f 159 204 205
f 159 205 160
f 160 205 206
f 160 206 161
f 161 206 207
f 161 207 162
f 162 207 208
f 162 208 163
f 163 208 209
f 163 209 164
f 164 209 210
f 164 210 165
f 165 210 211
f 165 211 166
f 166 211 212
f 166 212 167
f 167 212 213
f 167 213 168
f 168 213 214
f 168 214 138
f 138 214 184
