v -0.264218 0.010000 -0.615702
v -0.261980 0.010000 -0.616658
v -0.259738 0.010000 -0.617605
v -0.257493 0.010000 -0.618544
v -0.255245 0.010000 -0.619476
v -0.252993 0.010000 -0.620399
v -0.250738 0.010000 -0.621314
v -0.248479 0.010000 -0.622220
v -0.246218 0.010000 -0.623119
v -0.243953 0.010000 -0.624009
v -0.241685 0.010000 -0.624891
v -0.239413 0.010000 -0.625765
v -0.237139 0.010000 -0.626630
v -0.234861 0.010000 -0.627487
v -0.232580 0.010000 -0.628336
v -0.230297 0.010000 -0.629177
v -0.228010 0.010000 -0.630009
v -0.225720 0.010000 -0.630833
v -0.223427 0.010000 -0.631649
v -0.221131 0.010000 -0.632456
v -0.218833 0.010000 -0.633255
v -0.216531 0.010000 -0.634046
v -0.214226 0.010000 -0.634828
v -0.211919 0.010000 -0.635602
v -0.209609 0.010000 -0.636368
v -0.207296 0.010000 -0.637125
v -0.204981 0.010000 -0.637874
v -0.202662 0.010000 -0.638614
v -0.200342 0.010000 -0.639346
v -0.198018 0.010000 -0.640069
v -0.195692 0.010000 -0.640784
v -0.193363 0.010000 -0.641491
v -0.264218 0.000000 -0.615702
v -0.261980 0.000000 -0.616658
v -0.259738 0.000000 -0.617605
v -0.257493 0.000000 -0.618544
v -0.255245 0.000000 -0.619476
v -0.252993 0.000000 -0.620399
v -0.250738 0.000000 -0.621314
v -0.248479 0.000000 -0.622220
v -0.246218 0.000000 -0.623119
v -0.243953 0.000000 -0.624009
v -0.241685 0.000000 -0.624891
v -0.239413 0.000000 -0.625765
v -0.237139 0.000000 -0.626630
v -0.234861 0.000000 -0.627487
v -0.232580 0.000000 -0.628336
v -0.230297 0.000000 -0.629177
v -0.228010 0.000000 -0.630009
v -0.225720 0.000000 -0.630833
v -0.223427 0.000000 -0.631649
v -0.221131 0.000000 -0.632456
v -0.218833 0.000000 -0.633255
v -0.216531 0.000000 -0.634046
v -0.214226 0.000000 -0.634828
v -0.211919 0.000000 -0.635602
v -0.209609 0.000000 -0.636368
v -0.207296 0.000000 -0.637125
v -0.204981 0.000000 -0.637874
v -0.202662 0.000000 -0.638614
v -0.200342 0.000000 -0.639346
v -0.198018 0.000000 -0.640069
v -0.195692 0.000000 -0.640784
v -0.193363 0.000000 -0.641491
f 1 2 34
f 1 34 33
f 2 3 35
f 2 35 34
f 3 4 36
f 3 36 35
f 4 5 37
f 4 37 36
f 5 6 38
f 5 38 37
f 6 7 39
f 6 39 38
f 7 8 40
f 7 40 39
f 8 9 41
f 8 41 40
f 9 10 42
f 9 42 41
f 10 11 43
f 10 43 42
f 11 12 44
f 11 44 43
f 12 13 45
f 12 45 44
f 13 14 46
f 13 46 45
f 14 15 47
f 14 47 46
f 15 16 48
f 15 48 47
f 16 17 49
f 16 49 48
f 17 18 50
f 17 50 49
f 18 19 51
f 18 51 50
f 19 20 52
f 19 52 51
f 20 21 53
f 20 53 52
f 21 22 54
f 21 54 53
f 22 23 55
f 22 55 54
f 23 24 56
f 23 56 55
f 24 25 57
f 24 57 56
f 25 26 58
f 25 58 57
f 26 27 59
f 26 59 58
f 27 28 60
f 27 60 59
f 28 29 61
f 28 61 60
f 29 30 62
f 29 62 61
f 30 31 63
f 30 63 62
f 31 32 64
f 31 64 63
