v -0.564107 -0.280505 -1.084841
v -0.564107 -0.280505 -1.061000
v -0.438333 -0.229977 -1.061000
v -0.438333 -0.229977 -1.120893
v -0.440610 -0.230892 -1.120241
v -0.442888 -0.231808 -1.119588
v -0.445167 -0.232723 -1.118935
v -0.447446 -0.233638 -1.118283
v -0.449725 -0.234554 -1.117630
v -0.452004 -0.235470 -1.116977
v -0.454284 -0.236386 -1.116324
v -0.456564 -0.237302 -1.115670
v -0.458845 -0.238218 -1.115017
v -0.461126 -0.239134 -1.114363
v -0.463407 -0.240051 -1.113710
v -0.465688 -0.240967 -1.113056
v -0.467970 -0.241884 -1.112402
v -0.470252 -0.242801 -1.111748
v -0.472535 -0.243718 -1.111094
v -0.474818 -0.244635 -1.110440
v -0.477101 -0.245552 -1.109786
v -0.479385 -0.246469 -1.109131
v -0.481668 -0.247387 -1.108477
v -0.483953 -0.248305 -1.107822
v -0.486237 -0.249222 -1.107167
v -0.488522 -0.250140 -1.106512
v -0.490807 -0.251058 -1.105857
v -0.493093 -0.251977 -1.105202
v -0.495379 -0.252895 -1.104547
v -0.497665 -0.253813 -1.103892
v -0.499952 -0.254732 -1.103236
v -0.502239 -0.255651 -1.102581
v -0.504526 -0.256570 -1.101925
v -0.506813 -0.257489 -1.101269
v -0.509101 -0.258408 -1.100613
v -0.511390 -0.259327 -1.099957
v -0.513678 -0.260246 -1.099301
v -0.515967 -0.261166 -1.098645
v -0.518256 -0.262085 -1.097989
v -0.520546 -0.263005 -1.097332
v -0.522835 -0.263925 -1.096676
v -0.525126 -0.264845 -1.096019
v -0.527416 -0.265765 -1.095363
v -0.529707 -0.266686 -1.094706
v -0.531998 -0.267606 -1.094049
v -0.534289 -0.268527 -1.093392
v -0.536581 -0.269447 -1.092735
v -0.538873 -0.270368 -1.092078
v -0.541166 -0.271289 -1.091420
v -0.543458 -0.272210 -1.090763
v -0.545751 -0.273131 -1.090105
v -0.548045 -0.274053 -1.089448
v -0.550338 -0.274974 -1.088790
v -0.552632 -0.275896 -1.088132
v -0.554927 -0.276817 -1.087474
v -0.557221 -0.277739 -1.086816
v -0.559516 -0.278661 -1.086158
v -0.561811 -0.279583 -1.085500
f 1 3 2
f 1 4 3
f 1 5 4
f 1 6 5
f 1 7 6
f 1 8 7
f 1 9 8
f 1 10 9
f 1 11 10
f 1 12 11
f 1 13 12
f 1 14 13
f 1 15 14
f 1 16 15
f 1 17 16
f 1 18 17
f 1 19 18
f 1 20 19
f 1 21 20
f 1 22 21
f 1 23 22
f 1 24 23
f 1 25 24
f 1 26 25
f 1 27 26
f 1 28 27
f 1 29 28
f 1 30 29
f 1 31 30
f 1 32 31
f 1 33 32
f 1 34 33
f 1 35 34
f 1 36 35
f 1 37 36
f 1 38 37
f 1 39 38
f 1 40 39
f 1 41 40
f 1 42 41
f 1 43 42
f 1 44 43
f 1 45 44
f 1 46 45
f 1 47 46
f 1 48 47
f 1 49 48
f 1 50 49
f 1 51 50
f 1 52 51
f 1 53 52
f 1 54 53
f 1 55 54
f 1 56 55
f 1 57 56
f 1 58 57
