v -0.302266 0.603540 -0.825000
v -0.302266 0.603540 -0.036213
v -0.302265 0.603539 -0.035995
v -0.302263 0.603535 -0.035778
v -0.302259 0.603528 -0.035562
v -0.302254 0.603519 -0.035347
v -0.302247 0.603507 -0.035132
v -0.302239 0.603493 -0.034918
v -0.302229 0.603475 -0.034705
v -0.302217 0.603456 -0.034493
v -0.302204 0.603433 -0.034282
v -0.302190 0.603408 -0.034071
v -0.302174 0.603381 -0.033860
v -0.302157 0.603351 -0.033651
v -0.302138 0.603318 -0.033442
v -0.302117 0.603282 -0.033233
v -0.302095 0.603244 -0.033026
v -0.302071 0.603203 -0.032818
v -0.302046 0.603160 -0.032611
v -0.302020 0.603114 -0.032405
v -0.301992 0.603065 -0.032199
v -0.301962 0.603014 -0.031994
v -0.301931 0.602960 -0.031789
v -0.301898 0.602903 -0.031585
v -0.301864 0.602844 -0.031381
v -0.301829 0.602782 -0.031178
v -0.301792 0.602718 -0.030977
v -0.301753 0.602652 -0.030776
v -0.301713 0.602583 -0.030576
v -0.301672 0.602511 -0.030377
v -0.301630 0.602438 -0.030180
v -0.301586 0.602362 -0.029983
v -0.301540 0.602283 -0.029788
v -0.301494 0.602202 -0.029595
v -0.301446 0.602119 -0.029403
v -0.301396 0.602034 -0.029212
v -0.301346 0.601946 -0.029023
v -0.301294 0.601857 -0.028836
v -0.301241 0.601765 -0.028650
v -0.301187 0.601671 -0.028467
v -0.301131 0.601575 -0.028285
v -0.301075 0.601476 -0.028105
v -0.301016 0.601376 -0.027927
v -0.300957 0.601273 -0.027750
v -0.300896 0.601168 -0.027575
v -0.300835 0.601061 -0.027402
v -0.300771 0.600951 -0.027231
v -0.300707 0.600839 -0.027061
v -0.300641 0.600725 -0.026893
v -0.300574 0.600609 -0.026727
v -0.300505 0.600490 -0.026562
v -0.300435 0.600369 -0.026399
v -0.300364 0.600246 -0.026237
v -0.300291 0.600120 -0.026077
v -0.300217 0.599992 -0.025919
v -0.300142 0.599861 -0.025762
v -0.300065 0.599728 -0.025607
v -0.299980 0.599580 -0.025435
v -0.299894 0.599431 -0.025264
v -0.299808 0.599283 -0.025093
v -0.299722 0.599134 -0.024922
v -0.299637 0.598986 -0.024751
v -0.299551 0.598837 -0.024580
v -0.299465 0.598689 -0.024408
v -0.299379 0.598540 -0.024237
v -0.299294 0.598392 -0.024066
v -0.299208 0.598243 -0.023895
v -0.299122 0.598095 -0.023724
v -0.299037 0.597947 -0.023553
v -0.298951 0.597798 -0.023382
v -0.298865 0.597650 -0.023211
v -0.298780 0.597502 -0.023040
v -0.298694 0.597353 -0.022869
v -0.298608 0.597205 -0.022698
v -0.298523 0.597056 -0.022527
v -0.298437 0.596908 -0.022356
v -0.298351 0.596760 -0.022185
v -0.298266 0.596612 -0.022014
v -0.298180 0.596463 -0.021843
v -0.298095 0.596315 -0.021672
v -0.298009 0.596167 -0.021501
v -0.297923 0.596019 -0.021331
v -0.297838 0.595870 -0.021160
v -0.297752 0.595722 -0.020989
v -0.297667 0.595574 -0.020818
v -0.297581 0.595426 -0.020647
v -0.297496 0.595277 -0.020476
v -0.297410 0.595129 -0.020306
v -0.297324 0.594981 -0.020135
v -0.297239 0.594833 -0.019964
v -0.297153 0.594685 -0.019793
v -0.297068 0.594537 -0.019623
v -0.296982 0.594389 -0.019452
v -0.296897 0.594240 -0.019281
v -0.296811 0.594092 -0.019111
v -0.296726 0.593944 -0.018940
v -0.296640 0.593796 -0.018769
v -0.296555 0.593648 -0.018599
v -0.296469 0.593500 -0.018428
v -0.296384 0.593352 -0.018257
v -0.296299 0.593204 -0.018087
v -0.296213 0.593056 -0.017916
v -0.296128 0.592908 -0.017746
v -0.296042 0.592760 -0.017575
v -0.295957 0.592612 -0.017404
v -0.295871 0.592464 -0.017234
v -0.295786 0.592316 -0.017063
v -0.295701 0.592168 -0.016893
v -0.295615 0.592020 -0.016722
v -0.295530 0.591873 -0.016552
v -0.295444 0.591725 -0.016381
v -0.295359 0.591577 -0.016211
v -0.295359 0.591577 -0.857174
v -0.295484 0.591794 -0.856591
v -0.295609 0.592010 -0.856008
v -0.295735 0.592227 -0.855425
v -0.295860 0.592444 -0.854842
v -0.295985 0.592661 -0.854258
v -0.296110 0.592878 -0.853675
v -0.296236 0.593095 -0.853091
v -0.296361 0.593312 -0.852508
v -0.296486 0.593529 -0.851924
v -0.296611 0.593746 -0.851340
v -0.296737 0.593963 -0.850757
v -0.296862 0.594180 -0.850173
v -0.296987 0.594397 -0.849589
v -0.297113 0.594614 -0.849005
v -0.297238 0.594832 -0.848421
v -0.297364 0.595049 -0.847837
v -0.297489 0.595266 -0.847252
v -0.297614 0.595483 -0.846668
v -0.297740 0.595701 -0.846084
v -0.297865 0.595918 -0.845499
v -0.297991 0.596135 -0.844915
v -0.298116 0.596353 -0.844330
v -0.298242 0.596570 -0.843746
v -0.298367 0.596787 -0.843161
v -0.298493 0.597005 -0.842576
v -0.298618 0.597222 -0.841991
v -0.298744 0.597440 -0.841406
v -0.298870 0.597657 -0.840822
v -0.298995 0.597875 -0.840236
v -0.299121 0.598092 -0.839651
v -0.299246 0.598310 -0.839066
v -0.299372 0.598527 -0.838481
v -0.299498 0.598745 -0.837896
v -0.299623 0.598963 -0.837310
v -0.299749 0.599180 -0.836725
v -0.299875 0.599398 -0.836139
v -0.300000 0.599616 -0.835553
v -0.300126 0.599834 -0.834968
v -0.300252 0.600052 -0.834382
v -0.300378 0.600269 -0.833796
v -0.300503 0.600487 -0.833210
v -0.300629 0.600705 -0.832624
v -0.300755 0.600923 -0.832038
v -0.300881 0.601141 -0.831452
v -0.301007 0.601359 -0.830866
v -0.301133 0.601577 -0.830280
v -0.301258 0.601795 -0.829693
v -0.301384 0.602013 -0.829107
v -0.301510 0.602231 -0.828520
v -0.301636 0.602449 -0.827934
v -0.301762 0.602667 -0.827347
v -0.301888 0.602885 -0.826761
v -0.302014 0.603103 -0.826174
v -0.302140 0.603322 -0.825587
f 112 110 111
f 112 109 110
f 112 108 109
f 112 107 108
f 112 106 107
f 112 105 106
f 112 104 105
f 112 103 104
f 112 102 103
f 112 101 102
f 112 100 101
f 112 99 100
f 112 98 99
f 112 97 98
f 112 96 97
f 112 95 96
f 112 94 95
f 112 93 94
f 112 92 93
f 112 91 92
f 112 90 91
f 112 89 90
f 112 88 89
f 112 87 88
f 112 86 87
f 112 85 86
f 112 84 85
f 112 83 84
f 112 82 83
f 112 81 82
f 112 80 81
f 112 79 80
f 112 78 79
f 112 77 78
f 112 76 77
f 112 75 76
f 112 74 75
f 112 73 74
f 112 72 73
f 112 71 72
f 112 70 71
f 112 69 70
f 112 68 69
f 112 67 68
f 112 66 67
f 112 65 66
f 112 64 65
f 112 63 64
f 112 62 63
f 112 61 62
f 112 60 61
f 112 59 60
f 112 58 59
f 112 57 58
f 112 56 57
f 112 55 56
f 112 54 55
f 112 53 54
f 112 52 53
f 112 51 52
f 112 50 51
f 112 49 50
f 112 48 49
f 112 47 48
f 112 46 47
f 112 45 46
f 112 44 45
f 112 43 44
f 112 42 43
f 112 41 42
f 112 40 41
f 112 39 40
f 112 38 39
f 112 37 38
f 112 36 37
f 112 35 36
f 112 34 35
f 112 33 34
f 112 32 33
f 112 31 32
f 112 30 31
f 112 29 30
f 112 28 29
f 112 27 28
f 112 26 27
f 112 25 26
f 112 24 25
f 112 23 24
f 112 22 23
f 112 21 22
f 112 20 21
f 112 19 20
f 112 18 19
f 112 17 18
f 112 16 17
f 112 15 16
f 112 14 15
f 112 13 14
f 112 12 13
f 112 11 12
f 112 10 11
f 112 9 10
f 112 8 9
f 112 7 8
f 112 6 7
f 112 5 6
f 112 4 5
f 112 3 4
f 112 2 3
f 112 1 2
f 112 167 1
f 112 166 167
f 112 165 166
f 112 164 165
f 112 163 164
f 112 162 163
f 112 161 162
f 112 160 161
f 112 159 160
f 112 158 159
f 112 157 158
f 112 156 157
f 112 155 156
f 112 154 155
f 112 153 154
f 112 152 153
f 112 151 152
f 112 150 151
f 112 149 150
f 112 148 149
f 112 147 148
f 112 146 147
f 112 145 146
f 112 144 145
f 112 143 144
f 112 142 143
f 112 141 142
f 112 140 141
f 112 139 140
f 112 138 139
f 112 137 138
f 112 136 137
f 112 135 136
f 112 134 135
f 112 133 134
f 112 132 133
f 112 131 132
f 112 130 131
f 112 129 130
f 112 128 129
f 112 127 128
f 112 126 127
f 112 125 126
f 112 124 125
f 112 123 124
f 112 122 123
f 112 121 122
f 112 120 121
f 112 119 120
f 112 118 119
f 112 117 118
f 112 116 117
f 112 115 116
f 112 114 115
f 112 113 114
