v 0.560467 0.010000 -0.367119
v 0.561797 0.010000 -0.365081
v 0.563119 0.010000 -0.363038
v 0.564434 0.010000 -0.360990
v 0.565742 0.010000 -0.358938
v 0.567042 0.010000 -0.356881
v 0.568334 0.010000 -0.354819
v 0.569619 0.010000 -0.352752
v 0.570897 0.010000 -0.350681
v 0.572167 0.010000 -0.348605
v 0.573429 0.010000 -0.346524
v 0.574684 0.010000 -0.344439
v 0.575931 0.010000 -0.342349
v 0.577171 0.010000 -0.340255
v 0.578403 0.010000 -0.338156
v 0.579628 0.010000 -0.336053
v 0.580844 0.010000 -0.333946
v 0.582054 0.010000 -0.331834
v 0.583255 0.010000 -0.329717
v 0.584449 0.010000 -0.327597
v 0.585635 0.010000 -0.325472
v 0.586813 0.010000 -0.323342
v 0.587984 0.010000 -0.321209
v 0.589147 0.010000 -0.319071
v 0.590302 0.010000 -0.316929
v 0.591449 0.010000 -0.314783
v 0.592588 0.010000 -0.312632
v 0.593720 0.010000 -0.310478
v 0.594844 0.010000 -0.308319
v 0.595960 0.010000 -0.306156
v 0.597068 0.010000 -0.303990
v 0.598168 0.010000 -0.301819
v 0.560467 0.000000 -0.367119
v 0.561797 0.000000 -0.365081
v 0.563119 0.000000 -0.363038
v 0.564434 0.000000 -0.360990
v 0.565742 0.000000 -0.358938
v 0.567042 0.000000 -0.356881
v 0.568334 0.000000 -0.354819
v 0.569619 0.000000 -0.352752
v 0.570897 0.000000 -0.350681
v 0.572167 0.000000 -0.348605
v 0.573429 0.000000 -0.346524
v 0.574684 0.000000 -0.344439
v 0.575931 0.000000 -0.342349
v 0.577171 0.000000 -0.340255
v 0.578403 0.000000 -0.338156
v 0.579628 0.000000 -0.336053
v 0.580844 0.000000 -0.333946
v 0.582054 0.000000 -0.331834
v 0.583255 0.000000 -0.329717
v 0.584449 0.000000 -0.327597
v 0.585635 0.000000 -0.325472
v 0.586813 0.000000 -0.323342
v 0.587984 0.000000 -0.321209
v 0.589147 0.000000 -0.319071
v 0.590302 0.000000 -0.316929
v 0.591449 0.000000 -0.314783
v 0.592588 0.000000 -0.312632
v 0.593720 0.000000 -0.310478
v 0.594844 0.000000 -0.308319
v 0.595960 0.000000 -0.306156
v 0.597068 0.000000 -0.303990
v 0.598168 0.000000 -0.301819
f 1 2 34
f 1 34 33
f 2 3 35
f 2 35 34
f 3 4 36
f 3 36 35
f 4 5 37
f 4 37 36
f 5 6 38
f 5 38 37
f 6 7 39
f 6 39 38
f 7 8 40
f 7 40 39
f 8 9 41
f 8 41 40
f 9 10 42
f 9 42 41
f 10 11 43
f 10 43 42
f 11 12 44
f 11 44 43
f 12 13 45
f 12 45 44
f 13 14 46
f 13 46 45
f 14 15 47
f 14 47 46
f 15 16 48
f 15 48 47
f 16 17 49
f 16 49 48
f 17 18 50
f 17 50 49
f 18 19 51
f 18 51 50
f 19 20 52
f 19 52 51
f 20 21 53
f 20 53 52
f 21 22 54
f 21 54 53
f 22 23 55
f 22 55 54
f 23 24 56
f 23 56 55
f 24 25 57
f 24 57 56
f 25 26 58
f 25 58 57
f 26 27 59
f 26 59 58
f 27 28 60
f 27 60 59
f 28 29 61
f 28 61 60
f 29 30 62
f 29 62 61
f 30 31 63
f 30 63 62
f 31 32 64
f 31 64 63
