v 0.443334 -0.325000 -6.429440
v 0.445826 -0.325000 -6.445711
v 0.449952 -0.325000 -6.461647
v 0.455669 -0.325000 -6.477083
v 0.462919 -0.325000 -6.491862
v 0.471626 -0.325000 -6.505831
v 0.481702 -0.325000 -6.518848
v 0.493043 -0.325000 -6.530779
v 0.505533 -0.325000 -6.541501
v 0.519043 -0.325000 -6.550905
v 0.533436 -0.325000 -6.558893
v 0.548563 -0.325000 -6.565385
v 0.564269 -0.325000 -6.570313
v 0.580393 -0.325000 -6.573626
v 0.596770 -0.325000 -6.575291
v 0.613230 -0.325000 -6.575291
v 0.629607 -0.325000 -6.573626
v 0.645731 -0.325000 -6.570313
v 0.661437 -0.325000 -6.565385
v 0.676564 -0.325000 -6.558893
v 0.690957 -0.325000 -6.550905
v 0.704467 -0.325000 -6.541501
v 0.716957 -0.325000 -6.530779
v 0.728298 -0.325000 -6.518848
v 0.738374 -0.325000 -6.505831
v 0.747081 -0.325000 -6.491862
v 0.754331 -0.325000 -6.477083
v 0.760048 -0.325000 -6.461647
v 0.764174 -0.325000 -6.445711
v 0.766666 -0.325000 -6.429440
v 0.767500 -0.325000 -6.413000
v 0.766666 -0.325000 -6.396560
v 0.764174 -0.325000 -6.380289
v 0.760048 -0.325000 -6.364353
v 0.754331 -0.325000 -6.348917
v 0.747081 -0.325000 -6.334138
v 0.738374 -0.325000 -6.320169
v 0.728298 -0.325000 -6.307152
v 0.716957 -0.325000 -6.295221
v 0.704467 -0.325000 -6.284499
v 0.690957 -0.325000 -6.275095
v 0.676564 -0.325000 -6.267107
v 0.661437 -0.325000 -6.260615
v 0.645731 -0.325000 -6.255687
v 0.629607 -0.325000 -6.252374
v 0.613230 -0.325000 -6.250709
v 0.596770 -0.325000 -6.250709
v 0.580393 -0.325000 -6.252374
v 0.564269 -0.325000 -6.255687
v 0.548563 -0.325000 -6.260615
v 0.533436 -0.325000 -6.267107
v 0.519043 -0.325000 -6.275095
v 0.505533 -0.325000 -6.284499
v 0.493043 -0.325000 -6.295221
v 0.481702 -0.325000 -6.307152
v 0.471626 -0.325000 -6.320169
v 0.462919 -0.325000 -6.334138
v 0.455669 -0.325000 -6.348917
v 0.449952 -0.325000 -6.364353
v 0.445826 -0.325000 -6.380289
v 0.443334 -0.325000 -6.396560
v 0.442500 -0.325000 -6.413000
v 0.500539 -0.325000 -6.423623
v 0.502149 -0.325000 -6.434136
v 0.504815 -0.325000 -6.444433
v 0.508509 -0.325000 -6.454407
v 0.513194 -0.325000 -6.463957
v 0.518820 -0.325000 -6.472983
v 0.525330 -0.325000 -6.481394
v 0.532658 -0.325000 -6.489103
v 0.540729 -0.325000 -6.496031
v 0.549459 -0.325000 -6.502108
v 0.558759 -0.325000 -6.507269
v 0.568533 -0.325000 -6.511464
v 0.578681 -0.325000 -6.514648
v 0.589100 -0.325000 -6.516789
v 0.599682 -0.325000 -6.517865
v 0.610318 -0.325000 -6.517865
v 0.620900 -0.325000 -6.516789
v 0.631319 -0.325000 -6.514648
v 0.641467 -0.325000 -6.511464
v 0.651241 -0.325000 -6.507269
v 0.660541 -0.325000 -6.502108
v 0.669271 -0.325000 -6.496031
v 0.677342 -0.325000 -6.489103
v 0.684670 -0.325000 -6.481394
v 0.691180 -0.325000 -6.472983
v 0.696806 -0.325000 -6.463957
v 0.701491 -0.325000 -6.454407
v 0.705185 -0.325000 -6.444433
v 0.707851 -0.325000 -6.434136
v 0.709461 -0.325000 -6.423623
v 0.710000 -0.325000 -6.413000
v 0.709461 -0.325000 -6.402377
v 0.707851 -0.325000 -6.391864
v 0.705185 -0.325000 -6.381567
v 0.701491 -0.325000 -6.371593
v 0.696806 -0.325000 -6.362043
v 0.691180 -0.325000 -6.353017
v 0.684670 -0.325000 -6.344606
v 0.677342 -0.325000 -6.336897
v 0.669271 -0.325000 -6.329969
v 0.660541 -0.325000 -6.323892
v 0.651241 -0.325000 -6.318731
v 0.641467 -0.325000 -6.314536
v 0.631319 -0.325000 -6.311352
v 0.620900 -0.325000 -6.309211
v 0.610318 -0.325000 -6.308135
v 0.599682 -0.325000 -6.308135
v 0.589100 -0.325000 -6.309211
v 0.578681 -0.325000 -6.311352
v 0.568533 -0.325000 -6.314536
v 0.558759 -0.325000 -6.318731
v 0.549459 -0.325000 -6.323892
v 0.540729 -0.325000 -6.329969
v 0.532658 -0.325000 -6.336897
v 0.525330 -0.325000 -6.344606
v 0.518820 -0.325000 -6.353017
v 0.513194 -0.325000 -6.362043
v 0.508509 -0.325000 -6.371593
v 0.504815 -0.325000 -6.381567
v 0.502149 -0.325000 -6.391864
v 0.500539 -0.325000 -6.402377
v 0.500000 -0.325000 -6.413000
f 1 64 2
f 1 63 64
f 2 65 3
f 2 64 65
f 3 66 4
f 3 65 66
f 4 67 5
f 4 66 67
f 5 68 6
f 5 67 68
f 6 69 7
f 6 68 69
f 7 70 8
f 7 69 70
f 8 71 9
f 8 70 71
f 9 72 10
f 9 71 72
f 10 73 11
f 10 72 73
f 11 74 12
f 11 73 74
f 12 75 13
f 12 74 75
f 13 76 14
f 13 75 76
f 14 77 15
f 14 76 77
f 15 78 16
f 15 77 78
f 16 79 17
f 16 78 79
f 17 80 18
f 17 79 80
f 18 81 19
f 18 80 81
f 19 82 20
f 19 81 82
f 20 83 21
f 20 82 83
f 21 84 22
f 21 83 84
f 22 85 23
f 22 84 85
f 23 86 24
f 23 85 86
f 24 87 25
f 24 86 87
f 25 88 26
f 25 87 88
f 26 89 27
f 26 88 89
f 27 90 28
f 27 89 90
f 28 91 29
f 28 90 91
f 29 92 30
f 29 91 92
f 30 93 31
f 30 92 93
f 31 94 32
f 31 93 94
f 32 95 33
f 32 94 95
f 33 96 34
f 33 95 96
f 34 97 35
f 34 96 97
f 35 98 36
f 35 97 98
f 36 99 37
f 36 98 99
f 37 100 38
f 37 99 100
f 38 101 39
f 38 100 101
f 39 102 40
f 39 101 102
f 40 103 41
f 40 102 103
f 41 104 42
f 41 103 104
f 42 105 43
f 42 104 105
f 43 106 44
f 43 105 106
f 44 107 45
f 44 106 107
f 45 108 46
f 45 107 108
f 46 109 47
f 46 108 109
f 47 110 48
f 47 109 110
f 48 111 49
f 48 110 111
f 49 112 50
f 49 111 112
f 50 113 51
f 50 112 113
f 51 114 52
f 51 113 114
f 52 115 53
f 52 114 115
f 53 116 54
f 53 115 116
f 54 117 55
f 54 116 117
f 55 118 56
f 55 117 118
f 56 119 57
f 56 118 119
f 57 120 58
f 57 119 120
f 58 121 59
f 58 120 121
f 59 122 60
f 59 121 122
f 60 123 61
f 60 122 123
f 61 124 62
f 61 123 124
f 62 63 1
f 62 124 63
