v 1.014000 0.000000 -0.750000
v 1.013184 0.032213 -0.750000
v 1.010737 0.064343 -0.750000
v 1.006666 0.096308 -0.750000
v 1.000981 0.128026 -0.750000
v 0.993697 0.159415 -0.750000
v 0.984833 0.190395 -0.750000
v 0.974410 0.220886 -0.750000
v 0.962457 0.250810 -0.750000
v 0.949004 0.280091 -0.750000
v 0.934084 0.308652 -0.750000
v 0.917738 0.336421 -0.750000
v 0.900006 0.363327 -0.750000
v 0.880933 0.389299 -0.750000
v 0.860570 0.414273 -0.750000
v 0.838968 0.438183 -0.750000
v 0.816183 0.460968 -0.750000
v 0.792273 0.482570 -0.750000
v 0.767299 0.502933 -0.750000
v 0.741327 0.522006 -0.750000
v 0.714421 0.539738 -0.750000
v 0.686652 0.556084 -0.750000
v 0.658091 0.571004 -0.750000
v 0.628810 0.584457 -0.750000
v 0.598886 0.596410 -0.750000
v 0.568395 0.606833 -0.750000
v 0.537415 0.615697 -0.750000
v 0.506026 0.622981 -0.750000
v 0.474308 0.628666 -0.750000
v 0.442343 0.632737 -0.750000
v 0.410213 0.635184 -0.750000
v 0.378000 0.636000 -0.750000
v 1.014000 0.000000 -0.500000
v 1.013184 0.032213 -0.500000
v 1.010737 0.064343 -0.500000
v 1.006666 0.096308 -0.500000
v 1.000981 0.128026 -0.500000
v 0.993697 0.159415 -0.500000
v 0.984833 0.190395 -0.500000
v 0.974410 0.220886 -0.500000
v 0.962457 0.250810 -0.500000
v 0.949004 0.280091 -0.500000
v 0.934084 0.308652 -0.500000
v 0.917738 0.336421 -0.500000
v 0.900006 0.363327 -0.500000
v 0.880933 0.389299 -0.500000
v 0.860570 0.414273 -0.500000
v 0.838968 0.438183 -0.500000
v 0.816183 0.460968 -0.500000
v 0.792273 0.482570 -0.500000
v 0.767299 0.502933 -0.500000
v 0.741327 0.522006 -0.500000
v 0.714421 0.539738 -0.500000
v 0.686652 0.556084 -0.500000
v 0.658091 0.571004 -0.500000
v 0.628810 0.584457 -0.500000
v 0.598886 0.596410 -0.500000
v 0.568395 0.606833 -0.500000
v 0.537415 0.615697 -0.500000
v 0.506026 0.622981 -0.500000
v 0.474308 0.628666 -0.500000
v 0.442343 0.632737 -0.500000
v 0.410213 0.635184 -0.500000
v 0.378000 0.636000 -0.500000
f 1 2 34
f 1 34 33
f 2 3 35
f 2 35 34
f 3 4 36
f 3 36 35
f 4 5 37
f 4 37 36
f 5 6 38
f 5 38 37
f 6 7 39
f 6 39 38
f 7 8 40
f 7 40 39
f 8 9 41
f 8 41 40
f 9 10 42
f 9 42 41
f 10 11 43
f 10 43 42
f 11 12 44
f 11 44 43
f 12 13 45
f 12 45 44
f 13 14 46
f 13 46 45
f 14 15 47
f 14 47 46
f 15 16 48
f 15 48 47
f 16 17 49
f 16 49 48
f 17 18 50
f 17 50 49
f 18 19 51
f 18 51 50
f 19 20 52
f 19 52 51
f 20 21 53
f 20 53 52
f 21 22 54
f 21 54 53
f 22 23 55
f 22 55 54
f 23 24 56
f 23 56 55
f 24 25 57
f 24 57 56
f 25 26 58
f 25 58 57
f 26 27 59
f 26 59 58
f 27 28 60
f 27 60 59
f 28 29 61
f 28 61 60
f 29 30 62
f 29 62 61
f 30 31 63
f 30 63 62
f 31 32 64
f 31 64 63
