v -1.164851 -0.450065 -4.203560
v -1.171011 -0.450000 -4.202474
v -1.171011 -0.450160 -4.212259
v -1.171011 -0.582556 -4.451397
v -1.171011 -0.590764 -4.456726
v -1.164108 -0.584728 -4.452749
v -1.157212 -0.578875 -4.448494
v -1.150332 -0.573213 -4.443966
v -1.143475 -0.567746 -4.439170
v -1.136648 -0.562482 -4.434112
v -1.129859 -0.557426 -4.428796
v -1.123117 -0.552584 -4.423229
v -1.116427 -0.547961 -4.417417
v -1.109798 -0.543562 -4.411366
v -1.103236 -0.539392 -4.405084
v -1.096750 -0.535456 -4.398577
v -1.090347 -0.531758 -4.391851
v -1.084033 -0.528303 -4.384916
v -1.077815 -0.525094 -4.377778
v -1.071701 -0.522134 -4.370446
v -1.065698 -0.519427 -4.362927
v -1.059811 -0.516976 -4.355230
v -1.054047 -0.514784 -4.347363
v -1.048414 -0.512853 -4.339336
v -1.042916 -0.511185 -4.331156
v -1.037561 -0.509783 -4.322834
v -1.032354 -0.508647 -4.314378
v -1.027301 -0.507778 -4.305798
v -1.022407 -0.507179 -4.297104
v -1.017678 -0.506850 -4.288304
v -1.013120 -0.506790 -4.279409
v -1.008736 -0.507000 -4.270428
v -1.004533 -0.507480 -4.261373
v -1.000515 -0.508229 -4.252251
v -0.996686 -0.509247 -4.243075
v -1.006464 -0.502021 -4.240295
v -1.139371 -0.454080 -4.240295
v -1.155169 -0.452816 -4.240295
v -1.023525 -0.499767 -4.277514
v -1.140130 -0.461183 -4.277514
v -1.155549 -0.459948 -4.277514
v -1.042487 -0.502721 -4.313534
v -1.141383 -0.472894 -4.313534
v -1.156176 -0.471710 -4.313534
v -1.062538 -0.511004 -4.347783
v -1.143108 -0.489027 -4.347783
v -1.157040 -0.487912 -4.347783
v -1.082850 -0.524580 -4.379712
v -1.145278 -0.509325 -4.379712
v -1.158126 -0.508297 -4.379712
v -1.113704 -0.539905 -4.408813
v -1.147859 -0.533464 -4.408813
v -1.159419 -0.532538 -4.408813
v -1.140780 -0.562401 -4.434622
v -1.158693 -0.450261 -4.204646
v -1.171011 -0.574527 -4.445803
v -1.019898 -0.493613 -4.240295
v -1.123663 -0.456184 -4.240295
v -1.124799 -0.463236 -4.277514
v -1.126673 -0.474864 -4.313534
v -1.129255 -0.490883 -4.347783
v -1.132502 -0.511036 -4.379712
v -1.136365 -0.535003 -4.408813
v -1.152541 -0.450587 -4.205731
v -1.171011 -0.566684 -4.439950
v -1.033761 -0.485932 -4.240295
v -1.108089 -0.459121 -4.240295
v -1.109600 -0.466103 -4.277514
v -1.112090 -0.477615 -4.313534
v -1.115520 -0.493473 -4.347783
v -1.119836 -0.513425 -4.379712
v -1.124969 -0.537152 -4.408813
v -1.146396 -0.451043 -4.206814
v -1.171011 -0.559036 -4.433845
v -1.048012 -0.479000 -4.240295
v -1.092694 -0.462883 -4.240295
v -1.094574 -0.469774 -4.277514
v -1.097673 -0.481137 -4.313534
v -1.101943 -0.496791 -4.347783
v -1.107315 -0.516485 -4.379712
v -1.140263 -0.451629 -4.207896
v -1.171011 -0.551591 -4.427493
v -1.062613 -0.472837 -4.240295
v -1.077521 -0.467460 -4.240295
v -1.079765 -0.474241 -4.277514
v -1.083465 -0.485423 -4.313534
v -1.088562 -0.500826 -4.347783
v -1.094975 -0.520207 -4.379712
v -1.134142 -0.452345 -4.208975
v -1.171011 -0.544357 -4.420902
v -1.065215 -0.479489 -4.277514
v -1.069505 -0.490458 -4.313534
v -1.075414 -0.505569 -4.347783
v -1.128038 -0.453191 -4.210051
v -1.171011 -0.537343 -4.414079
v -1.050965 -0.485505 -4.277514
v -1.055832 -0.496230 -4.313534
v -1.160896 -0.560250 -4.434622
v -0.993050 -0.510531 -4.233853
v -0.998006 -0.506815 -4.232979
v -1.121952 -0.454165 -4.211124
v -1.171011 -0.530554 -4.407030
v -1.037055 -0.492270 -4.277514
v -1.003038 -0.503205 -4.232092
v -1.115888 -0.455268 -4.212194
v -1.171011 -0.523999 -4.399764
v -1.008142 -0.499702 -4.231192
v -1.109848 -0.456499 -4.213259
v -1.171011 -0.517684 -4.392288
v -1.013317 -0.496308 -4.230279
v -1.103834 -0.457858 -4.214319
v -1.171011 -0.511617 -4.384610
v -1.018561 -0.493025 -4.229355
v -1.097850 -0.459344 -4.215374
v -1.171011 -0.505803 -4.376738
v -1.023871 -0.489853 -4.228419
v -1.091897 -0.460956 -4.216424
v -1.171011 -0.500250 -4.368681
v -1.029245 -0.486794 -4.227471
v -1.085979 -0.462694 -4.217467
v -1.171011 -0.494961 -4.360446
v -1.034681 -0.483849 -4.226512
v -1.080097 -0.464557 -4.218504
v -1.171011 -0.489945 -4.352044
v -1.040176 -0.481021 -4.225544
v -1.074256 -0.466544 -4.219534
v -1.171011 -0.485205 -4.343483
v -1.150809 -0.561058 -4.434622
v -1.045728 -0.478309 -4.224565
v -1.068456 -0.468654 -4.220557
v -1.171011 -0.480746 -4.334771
v -1.051334 -0.475715 -4.223576
v -1.062701 -0.470887 -4.221572
v -1.171011 -0.476575 -4.325919
v -1.056993 -0.473241 -4.222578
v -1.171011 -0.472694 -4.316935
v -1.171011 -0.469108 -4.307830
v -1.171011 -0.465821 -4.298612
v -1.171011 -0.450638 -4.222033
v -1.171011 -0.462837 -4.289292
v -1.171011 -0.451435 -4.231786
v -1.171011 -0.460158 -4.279880
v -1.171011 -0.452550 -4.241509
v -1.171011 -0.457788 -4.270385
v -1.171011 -0.453982 -4.251189
v -1.171011 -0.455728 -4.260818
v -1.078458 -0.470292 -4.259017
v -1.085939 -0.467927 -4.259017
v -1.071043 -0.472855 -4.259017
v -1.088676 -0.477002 -4.295710
v -1.095974 -0.474907 -4.295710
v -1.106655 -0.486635 -4.330915
f 1 2 3
f 4 5 6
f 6 7 8
f 8 9 10
f 10 11 12
f 12 13 14
f 14 15 16
f 16 17 18
f 18 19 20
f 20 21 22
f 22 23 24
f 24 25 26
f 26 27 28
f 28 29 30
f 30 31 32
f 32 33 34
f 34 35 36
f 38 148 147
f 148 39 147
f 38 147 37
f 41 151 150
f 151 42 150
f 41 150 40
f 44 152 43
f 152 45 43
f 46 47 48
f 49 50 51
f 52 53 54
f 55 1 3
f 56 4 6
f 6 8 10
f 10 12 14
f 14 16 18
f 18 20 22
f 22 24 26
f 26 28 30
f 30 32 34
f 34 36 57
f 37 147 149
f 147 39 149
f 37 149 58
f 40 150 59
f 150 42 59
f 60 43 45
f 61 46 48
f 62 49 51
f 63 52 54
f 64 55 3
f 65 56 6
f 10 14 18
f 18 22 26
f 26 30 34
f 34 57 66
f 58 149 67
f 149 39 67
f 68 59 42
f 69 60 45
f 70 61 48
f 71 62 51
f 72 63 54
f 73 64 3
f 74 65 6
f 18 26 34
f 34 66 75
f 76 67 39
f 77 68 42
f 78 69 45
f 79 70 48
f 80 71 51
f 51 72 54
f 81 73 3
f 82 74 6
f 34 75 83
f 84 76 39
f 85 77 42
f 86 78 45
f 87 79 48
f 88 80 51
f 89 81 3
f 90 82 6
f 34 83 84
f 91 85 42
f 92 86 45
f 93 87 48
f 48 88 51
f 94 89 3
f 95 90 6
f 34 84 39
f 96 91 42
f 97 92 45
f 45 93 48
f 98 99 100
f 101 94 3
f 102 95 6
f 18 34 39
f 103 96 42
f 42 97 45
f 98 100 104
f 105 101 3
f 106 102 6
f 39 103 42
f 98 104 107
f 108 105 3
f 109 106 6
f 18 39 42
f 98 107 110
f 111 108 3
f 112 109 6
f 42 45 18
f 45 48 18
f 98 110 113
f 114 111 3
f 115 112 6
f 10 18 48
f 98 113 116
f 117 114 3
f 118 115 6
f 10 48 51
f 98 116 119
f 120 117 3
f 121 118 6
f 10 51 54
f 98 119 122
f 123 120 3
f 124 121 6
f 6 10 54
f 98 122 125
f 126 123 3
f 127 124 6
f 6 54 128
f 98 125 129
f 130 126 3
f 131 127 6
f 6 128 98
f 98 129 132
f 133 130 3
f 134 131 6
f 98 132 135
f 135 133 3
f 136 134 6
f 98 135 3
f 137 136 6
f 6 98 3
f 138 137 6
f 6 3 139
f 140 138 6
f 6 139 141
f 142 140 6
f 6 141 143
f 144 142 6
f 6 143 145
f 146 144 6
f 6 145 146
f 35 99 100
