v 0.668938 0.010000 -0.037701
v 0.669006 0.010000 -0.036486
v 0.669071 0.010000 -0.035271
v 0.669134 0.010000 -0.034056
v 0.669195 0.010000 -0.032841
v 0.669253 0.010000 -0.031625
v 0.669310 0.010000 -0.030410
v 0.669364 0.010000 -0.029194
v 0.669416 0.010000 -0.027978
v 0.669465 0.010000 -0.026763
v 0.669513 0.010000 -0.025547
v 0.669558 0.010000 -0.024331
v 0.669601 0.010000 -0.023115
v 0.669642 0.010000 -0.021899
v 0.669681 0.010000 -0.020682
v 0.669717 0.010000 -0.019466
v 0.669751 0.010000 -0.018250
v 0.669783 0.010000 -0.017033
v 0.669813 0.010000 -0.015817
v 0.669841 0.010000 -0.014601
v 0.669866 0.010000 -0.013384
v 0.669890 0.010000 -0.012167
v 0.669911 0.010000 -0.010951
v 0.669929 0.010000 -0.009734
v 0.669946 0.010000 -0.008517
v 0.669960 0.010000 -0.007301
v 0.669972 0.010000 -0.006084
v 0.669982 0.010000 -0.004867
v 0.669990 0.010000 -0.003650
v 0.669996 0.010000 -0.002434
v 0.669999 0.010000 -0.001217
v 0.670000 0.010000 0.000000
v 0.669999 0.010000 0.001217
v 0.669996 0.010000 0.002434
v 0.669990 0.010000 0.003650
v 0.669982 0.010000 0.004867
v 0.669972 0.010000 0.006084
v 0.669960 0.010000 0.007301
v 0.669946 0.010000 0.008517
v 0.669929 0.010000 0.009734
v 0.669911 0.010000 0.010951
v 0.669890 0.010000 0.012167
v 0.669866 0.010000 0.013384
v 0.669841 0.010000 0.014601
v 0.669813 0.010000 0.015817
v 0.669783 0.010000 0.017033
v 0.669751 0.010000 0.018250
v 0.669717 0.010000 0.019466
v 0.669681 0.010000 0.020682
v 0.669642 0.010000 0.021899
v 0.669601 0.010000 0.023115
v 0.669558 0.010000 0.024331
v 0.669513 0.010000 0.025547
v 0.669465 0.010000 0.026763
v 0.669416 0.010000 0.027978
v 0.669364 0.010000 0.029194
v 0.669310 0.010000 0.030410
v 0.669253 0.010000 0.031625
v 0.669195 0.010000 0.032841
v 0.669134 0.010000 0.034056
v 0.669071 0.010000 0.035271
v 0.669006 0.010000 0.036486
v 0.668938 0.010000 0.037701
v 0.668938 0.005000 -0.037701
v 0.669006 0.005000 -0.036486
v 0.669071 0.005000 -0.035271
v 0.669134 0.005000 -0.034056
v 0.669195 0.005000 -0.032841
v 0.669253 0.005000 -0.031625
v 0.669310 0.005000 -0.030410
v 0.669364 0.005000 -0.029194
v 0.669416 0.005000 -0.027978
v 0.669465 0.005000 -0.026763
v 0.669513 0.005000 -0.025547
v 0.669558 0.005000 -0.024331
v 0.669601 0.005000 -0.023115
v 0.669642 0.005000 -0.021899
v 0.669681 0.005000 -0.020682
v 0.669717 0.005000 -0.019466
v 0.669751 0.005000 -0.018250
v 0.669783 0.005000 -0.017033
v 0.669813 0.005000 -0.015817
v 0.669841 0.005000 -0.014601
v 0.669866 0.005000 -0.013384
v 0.669890 0.005000 -0.012167
v 0.669911 0.005000 -0.010951
v 0.669929 0.005000 -0.009734
v 0.669946 0.005000 -0.008517
v 0.669960 0.005000 -0.007301
v 0.669972 0.005000 -0.006084
v 0.669982 0.005000 -0.004867
v 0.669990 0.005000 -0.003650
v 0.669996 0.005000 -0.002434
v 0.669999 0.005000 -0.001217
v 0.670000 0.005000 -0.000000
v 0.669999 0.005000 0.001217
v 0.669996 0.005000 0.002434
v 0.669990 0.005000 0.003650
v 0.669982 0.005000 0.004867
v 0.669972 0.005000 0.006084
v 0.669960 0.005000 0.007301
v 0.669946 0.005000 0.008517
v 0.669929 0.005000 0.009734
v 0.669911 0.005000 0.010951
v 0.669890 0.005000 0.012167
v 0.669866 0.005000 0.013384
v 0.669841 0.005000 0.014601
v 0.669813 0.005000 0.015817
v 0.669783 0.005000 0.017033
v 0.669751 0.005000 0.018250
v 0.669717 0.005000 0.019466
v 0.669681 0.005000 0.020682
v 0.669642 0.005000 0.021899
v 0.669601 0.005000 0.023115
v 0.669558 0.005000 0.024331
v 0.669513 0.005000 0.025547
v 0.669465 0.005000 0.026763
v 0.669416 0.005000 0.027978
v 0.669364 0.005000 0.029194
v 0.669310 0.005000 0.030410
v 0.669253 0.005000 0.031625
v 0.669195 0.005000 0.032841
v 0.669134 0.005000 0.034056
v 0.669071 0.005000 0.035271
v 0.669006 0.005000 0.036486
v 0.668938 0.005000 0.037701
v 0.668938 0.000000 -0.037701
v 0.669006 0.000000 -0.036486
v 0.669071 0.000000 -0.035271
v 0.669134 0.000000 -0.034056
v 0.669195 0.000000 -0.032841
v 0.669253 0.000000 -0.031625
v 0.669310 0.000000 -0.030410
v 0.669364 0.000000 -0.029194
v 0.669416 0.000000 -0.027978
v 0.669465 0.000000 -0.026763
v 0.669513 0.000000 -0.025547
v 0.669558 0.000000 -0.024331
v 0.669601 0.000000 -0.023115
v 0.669642 0.000000 -0.021899
v 0.669681 0.000000 -0.020682
v 0.669717 0.000000 -0.019466
v 0.669751 0.000000 -0.018250
v 0.669783 0.000000 -0.017033
v 0.669813 0.000000 -0.015817
v 0.669841 0.000000 -0.014601
v 0.669866 0.000000 -0.013384
v 0.669890 0.000000 -0.012167
v 0.669911 0.000000 -0.010951
v 0.669929 0.000000 -0.009734
v 0.669946 0.000000 -0.008517
v 0.669960 0.000000 -0.007301
v 0.669972 0.000000 -0.006084
v 0.669982 0.000000 -0.004867
v 0.669990 0.000000 -0.003650
v 0.669996 0.000000 -0.002434
v 0.669999 0.000000 -0.001217
v 0.670000 0.000000 -0.000000
v 0.669999 0.000000 0.001217
v 0.669996 0.000000 0.002434
v 0.669990 0.000000 0.003650
v 0.669982 0.000000 0.004867
v 0.669972 0.000000 0.006084
v 0.669960 0.000000 0.007301
v 0.669946 0.000000 0.008517
v 0.669929 0.000000 0.009734
v 0.669911 0.000000 0.010951
v 0.669890 0.000000 0.012167
v 0.669866 0.000000 0.013384
v 0.669841 0.000000 0.014601
v 0.669813 0.000000 0.015817
v 0.669783 0.000000 0.017033
v 0.669751 0.000000 0.018250
v 0.669717 0.000000 0.019466
v 0.669681 0.000000 0.020682
v 0.669642 0.000000 0.021899
v 0.669601 0.000000 0.023115
v 0.669558 0.000000 0.024331
v 0.669513 0.000000 0.025547
v 0.669465 0.000000 0.026763
v 0.669416 0.000000 0.027978
v 0.669364 0.000000 0.029194
v 0.669310 0.000000 0.030410
v 0.669253 0.000000 0.031625
v 0.669195 0.000000 0.032841
v 0.669134 0.000000 0.034056
v 0.669071 0.000000 0.035271
v 0.669006 0.000000 0.036486
v 0.668938 0.000000 0.037701
f 1 2 65
f 1 65 64
f 2 3 66
f 2 66 65
f 3 4 67
f 3 67 66
f 4 5 68
f 4 68 67
f 5 6 69
f 5 69 68
f 6 7 70
f 6 70 69
f 7 8 71
f 7 71 70
f 8 9 72
f 8 72 71
f 9 10 73
f 9 73 72
f 10 11 74
f 10 74 73
f 11 12 75
f 11 75 74
f 12 13 76
f 12 76 75
f 13 14 77
f 13 77 76
f 14 15 78
f 14 78 77
f 15 16 79
f 15 79 78
f 16 17 80
f 16 80 79
f 17 18 81
f 17 81 80
f 18 19 82
f 18 82 81
f 19 20 83
f 19 83 82
f 20 21 84
f 20 84 83
f 21 22 85
f 21 85 84
f 22 23 86
f 22 86 85
f 23 24 87
f 23 87 86
f 24 25 88
f 24 88 87
f 25 26 89
f 25 89 88
f 26 27 90
f 26 90 89
f 27 28 91
f 27 91 90
f 28 29 92
f 28 92 91
f 29 30 93
f 29 93 92
f 30 31 94
f 30 94 93
f 31 32 95
f 31 95 94
f 32 33 96
f 32 96 95
f 33 34 97
f 33 97 96
f 34 35 98
f 34 98 97
f 35 36 99
f 35 99 98
f 36 37 100
f 36 100 99
f 37 38 101
f 37 101 100
f 38 39 102
f 38 102 101
f 39 40 103
f 39 103 102
f 40 41 104
f 40 104 103
f 41 42 105
f 41 105 104
f 42 43 106
f 42 106 105
f 43 44 107
f 43 107 106
f 44 45 108
f 44 108 107
f 45 46 109
f 45 109 108
f 46 47 110
f 46 110 109
f 47 48 111
f 47 111 110
f 48 49 112
f 48 112 111
f 49 50 113
f 49 113 112
f 50 51 114
f 50 114 113
f 51 52 115
f 51 115 114
f 52 53 116
f 52 116 115
f 53 54 117
f 53 117 116
f 54 55 118
f 54 118 117
f 55 56 119
f 55 119 118
f 56 57 120
f 56 120 119
f 57 58 121
f 57 121 120
f 58 59 122
f 58 122 121
f 59 60 123
f 59 123 122
f 60 61 124
f 60 124 123
f 61 62 125
f 61 125 124
f 62 63 126
f 62 126 125
f 64 65 128
f 64 128 127
f 65 66 129
f 65 129 128
f 66 67 130
f 66 130 129
f 67 68 131
f 67 131 130
f 68 69 132
f 68 132 131
f 69 70 133
f 69 133 132
f 70 71 134
f 70 134 133
f 71 72 135
f 71 135 134
f 72 73 136
f 72 136 135
f 73 74 137
f 73 137 136
f 74 75 138
f 74 138 137
f 75 76 139
f 75 139 138
f 76 77 140
f 76 140 139
f 77 78 141
f 77 141 140
f 78 79 142
f 78 142 141
f 79 80 143
f 79 143 142
f 80 81 144
f 80 144 143
f 81 82 145
f 81 145 144
f 82 83 146
f 82 146 145
f 83 84 147
f 83 147 146
f 84 85 148
f 84 148 147
f 85 86 149
f 85 149 148
f 86 87 150
f 86 150 149
f 87 88 151
f 87 151 150
f 88 89 152
f 88 152 151
f 89 90 153
f 89 153 152
f 90 91 154
f 90 154 153
f 91 92 155
f 91 155 154
f 92 93 156
f 92 156 155
f 93 94 157
f 93 157 156
f 94 95 158
f 94 158 157
f 95 96 159
f 95 159 158
f 96 97 160
f 96 160 159
f 97 98 161
f 97 161 160
f 98 99 162
f 98 162 161
f 99 100 163
f 99 163 162
f 100 101 164
f 100 164 163
f 101 102 165
f 101 165 164
f 102 103 166
f 102 166 165
f 103 104 167
f 103 167 166
f 104 105 168
f 104 168 167
f 105 106 169
f 105 169 168
f 106 107 170
f 106 170 169
f 107 108 171
f 107 171 170
f 108 109 172
f 108 172 171
f 109 110 173
f 109 173 172
f 110 111 174
f 110 174 173
f 111 112 175
f 111 175 174
f 112 113 176
f 112 176 175
f 113 114 177
f 113 177 176
f 114 115 178
f 114 178 177
f 115 116 179
f 115 179 178
f 116 117 180
f 116 180 179
f 117 118 181
f 117 181 180
f 118 119 182
f 118 182 181
f 119 120 183
f 119 183 182
f 120 121 184
f 120 184 183
f 121 122 185
f 121 185 184
f 122 123 186
f 122 186 185
f 123 124 187
f 123 187 186
f 124 125 188
f 124 188 187
f 125 126 189
f 125 189 188
