v -0.151718 0.015428 -0.820000
v -0.149378 0.030698 -0.820000
v -0.145506 0.045653 -0.820000
v -0.140141 0.060139 -0.820000
v -0.133338 0.074009 -0.820000
v -0.125166 0.087118 -0.820000
v -0.115711 0.099334 -0.820000
v -0.105067 0.110531 -0.820000
v -0.093346 0.120593 -0.820000
v -0.080667 0.129418 -0.820000
v -0.067160 0.136915 -0.820000
v -0.052964 0.143007 -0.820000
v -0.038225 0.147632 -0.820000
v -0.023093 0.150741 -0.820000
v -0.007724 0.152304 -0.820000
v 0.007724 0.152304 -0.820000
v 0.023093 0.150741 -0.820000
v 0.038225 0.147632 -0.820000
v 0.052964 0.143007 -0.820000
v 0.067160 0.136915 -0.820000
v 0.080667 0.129418 -0.820000
v 0.093346 0.120593 -0.820000
v 0.105067 0.110531 -0.820000
v 0.115711 0.099334 -0.820000
v 0.125166 0.087118 -0.820000
v 0.133338 0.074009 -0.820000
v 0.140141 0.060139 -0.820000
v 0.145506 0.045653 -0.820000
v 0.149378 0.030698 -0.820000
v 0.151718 0.015428 -0.820000
v 0.152500 0.000000 -0.820000
v 0.151718 -0.015428 -0.820000
v 0.149378 -0.030698 -0.820000
v 0.145506 -0.045653 -0.820000
v 0.140141 -0.060139 -0.820000
v 0.133338 -0.074009 -0.820000
v 0.125166 -0.087118 -0.820000
v 0.115711 -0.099334 -0.820000
v 0.105067 -0.110531 -0.820000
v 0.093346 -0.120593 -0.820000
v 0.080667 -0.129418 -0.820000
v 0.067160 -0.136915 -0.820000
v 0.052964 -0.143007 -0.820000
v 0.038225 -0.147632 -0.820000
v 0.023093 -0.150741 -0.820000
v 0.007724 -0.152304 -0.820000
v -0.007724 -0.152304 -0.820000
v -0.023093 -0.150741 -0.820000
v -0.038225 -0.147632 -0.820000
v -0.052964 -0.143007 -0.820000
v -0.067160 -0.136915 -0.820000
v -0.080667 -0.129418 -0.820000
v -0.093346 -0.120593 -0.820000
v -0.105067 -0.110531 -0.820000
v -0.115711 -0.099334 -0.820000
v -0.125166 -0.087118 -0.820000
v -0.133338 -0.074009 -0.820000
v -0.140141 -0.060139 -0.820000
v -0.145506 -0.045653 -0.820000
v -0.149378 -0.030698 -0.820000
v -0.151718 -0.015428 -0.820000
v -0.152500 0.000000 -0.820000
v -0.124359 0.012646 -0.820000
v -0.122441 0.025162 -0.820000
v -0.119267 0.037420 -0.820000
v -0.114870 0.049294 -0.820000
v -0.109293 0.060663 -0.820000
v -0.102595 0.071409 -0.820000
v -0.094845 0.081422 -0.820000
v -0.086121 0.090599 -0.820000
v -0.076513 0.098847 -0.820000
v -0.066121 0.106081 -0.820000
v -0.055049 0.112226 -0.820000
v -0.043413 0.117219 -0.820000
v -0.031332 0.121010 -0.820000
v -0.018928 0.123559 -0.820000
v -0.006331 0.124840 -0.820000
v 0.006331 0.124840 -0.820000
v 0.018928 0.123559 -0.820000
v 0.031332 0.121010 -0.820000
v 0.043413 0.117219 -0.820000
v 0.055049 0.112226 -0.820000
v 0.066121 0.106081 -0.820000
v 0.076513 0.098847 -0.820000
v 0.086121 0.090599 -0.820000
v 0.094845 0.081422 -0.820000
v 0.102595 0.071409 -0.820000
v 0.109293 0.060663 -0.820000
v 0.114870 0.049294 -0.820000
v 0.119267 0.037420 -0.820000
v 0.122441 0.025162 -0.820000
v 0.124359 0.012646 -0.820000
v 0.125000 0.000000 -0.820000
v 0.124359 -0.012646 -0.820000
v 0.122441 -0.025162 -0.820000
v 0.119267 -0.037420 -0.820000
v 0.114870 -0.049294 -0.820000
v 0.109293 -0.060663 -0.820000
v 0.102595 -0.071409 -0.820000
v 0.094845 -0.081422 -0.820000
v 0.086121 -0.090599 -0.820000
v 0.076513 -0.098847 -0.820000
v 0.066121 -0.106081 -0.820000
v 0.055049 -0.112226 -0.820000
v 0.043413 -0.117219 -0.820000
v 0.031332 -0.121010 -0.820000
v 0.018928 -0.123559 -0.820000
v 0.006331 -0.124840 -0.820000
v -0.006331 -0.124840 -0.820000
v -0.018928 -0.123559 -0.820000
v -0.031332 -0.121010 -0.820000
v -0.043413 -0.117219 -0.820000
v -0.055049 -0.112226 -0.820000
v -0.066121 -0.106081 -0.820000
v -0.076513 -0.098847 -0.820000
v -0.086121 -0.090599 -0.820000
v -0.094845 -0.081422 -0.820000
v -0.102595 -0.071409 -0.820000
v -0.109293 -0.060663 -0.820000
v -0.114870 -0.049294 -0.820000
v -0.119267 -0.037420 -0.820000
v -0.122441 -0.025162 -0.820000
v -0.124359 -0.012646 -0.820000
v -0.125000 0.000000 -0.820000
f 1 64 2
f 1 63 64
f 2 65 3
f 2 64 65
f 3 66 4
f 3 65 66
f 4 67 5
f 4 66 67
f 5 68 6
f 5 67 68
f 6 69 7
f 6 68 69
f 7 70 8
f 7 69 70
f 8 71 9
f 8 70 71
f 9 72 10
f 9 71 72
f 10 73 11
f 10 72 73
f 11 74 12
f 11 73 74
f 12 75 13
f 12 74 75
f 13 76 14
f 13 75 76
f 14 77 15
f 14 76 77
f 15 78 16
f 15 77 78
f 16 79 17
f 16 78 79
f 17 80 18
f 17 79 80
f 18 81 19
f 18 80 81
f 19 82 20
f 19 81 82
f 20 83 21
f 20 82 83
f 21 84 22
f 21 83 84
f 22 85 23
f 22 84 85
f 23 86 24
f 23 85 86
f 24 87 25
f 24 86 87
f 25 88 26
f 25 87 88
f 26 89 27
f 26 88 89
f 27 90 28
f 27 89 90
f 28 91 29
f 28 90 91
f 29 92 30
f 29 91 92
f 30 93 31
f 30 92 93
f 31 94 32
f 31 93 94
f 32 95 33
f 32 94 95
f 33 96 34
f 33 95 96
f 34 97 35
f 34 96 97
f 35 98 36
f 35 97 98
f 36 99 37
f 36 98 99
f 37 100 38
f 37 99 100
f 38 101 39
f 38 100 101
f 39 102 40
f 39 101 102
f 40 103 41
f 40 102 103
f 41 104 42
f 41 103 104
f 42 105 43
f 42 104 105
f 43 106 44
f 43 105 106
f 44 107 45
f 44 106 107
f 45 108 46
f 45 107 108
f 46 109 47
f 46 108 109
f 47 110 48
f 47 109 110
f 48 111 49
f 48 110 111
f 49 112 50
f 49 111 112
f 50 113 51
f 50 112 113
f 51 114 52
f 51 113 114
f 52 115 53
f 52 114 115
f 53 116 54
f 53 115 116
f 54 117 55
f 54 116 117
f 55 118 56
f 55 117 118
f 56 119 57
f 56 118 119
f 57 120 58
f 57 119 120
f 58 121 59
f 58 120 121
f 59 122 60
f 59 121 122
f 60 123 61
f 60 122 123
f 61 124 62
f 61 123 124
f 62 63 1
f 62 124 63
