v -2.615000 0.375000 -3.150000
v -2.614939 0.378106 -4.042037
v -2.615000 0.375000 -4.037670
v -2.614904 0.378799 -3.150000
v -2.614763 0.381094 -4.046416
v -2.614615 0.382588 -3.150000
v -2.614479 0.383970 -4.050802
v -2.614135 0.386357 -3.150000
v -2.614096 0.386740 -4.055190
v -2.613622 0.389411 -4.059576
v -2.613465 0.390097 -3.150000
v -2.613064 0.391989 -4.063954
v -2.612606 0.393799 -3.150000
v -2.612432 0.394480 -4.068321
v -2.611733 0.396890 -4.072671
v -2.611560 0.397452 -3.150000
v -2.610975 0.399225 -4.076999
v -2.610331 0.401048 -3.150000
v -2.610161 0.401487 -4.081300
v -2.609295 0.403676 -4.085569
v -2.608922 0.404577 -3.150000
v -2.608380 0.405795 -4.089799
v -2.607421 0.407844 -4.093986
v -2.607335 0.408030 -3.150000
v -2.606421 0.409826 -4.098124
v -2.605576 0.411398 -3.150000
v -2.605382 0.411741 -4.102208
v -2.604310 0.413591 -4.106231
v -2.603648 0.414672 -3.150000
v -2.603207 0.415379 -4.110192
v -2.602072 0.417106 -4.114089
v -2.601557 0.417845 -3.150000
v -2.600908 0.418775 -4.117924
v -2.599715 0.420390 -4.121698
v -2.599308 0.420908 -3.150000
v -2.598492 0.421952 -4.125411
v -2.597242 0.423465 -4.129064
v -2.596907 0.423853 -3.150000
v -2.595964 0.424932 -4.132659
v -2.594660 0.426354 -4.136195
v -2.594359 0.426673 -3.150000
v -2.593329 0.427734 -4.139673
v -2.591971 0.429073 -4.143091
v -2.591673 0.429359 -3.150000
v -2.590586 0.430371 -4.146447
v -2.589174 0.431629 -4.149740
v -2.588853 0.431907 -3.150000
v -2.587735 0.432848 -4.152967
v -2.586267 0.434028 -4.156128
v -2.585908 0.434308 -3.150000
v -2.584772 0.435170 -4.159219
v -2.583249 0.436275 -4.162241
v -2.582845 0.436557 -3.150000
v -2.581697 0.437342 -4.165190
v -2.580116 0.438372 -4.168061
v -2.579672 0.438648 -3.150000
v -2.578505 0.439364 -4.170852
v -2.576864 0.440318 -4.173559
v -2.576398 0.440576 -3.150000
v -2.575192 0.441233 -4.176177
v -2.573489 0.442109 -4.178703
v -2.573030 0.442335 -3.150000
v -2.571754 0.442947 -4.181133
v -2.569986 0.443744 -4.183464
v -2.569577 0.443922 -3.150000
v -2.568187 0.444501 -4.185690
v -2.566355 0.445216 -4.187805
v -2.566048 0.445331 -3.150000
v -2.564493 0.445887 -4.189804
v -2.562601 0.446513 -4.191681
v -2.562452 0.446560 -3.150000
v -2.560678 0.447093 -4.193430
v -2.558799 0.447606 -3.150000
v -2.558727 0.447624 -4.195046
v -2.556746 0.448106 -4.196522
v -2.555097 0.448465 -3.150000
v -2.554738 0.448538 -4.197852
v -2.552703 0.448916 -4.199031
v -2.551357 0.449135 -3.150000
v -2.550642 0.449241 -4.200049
v -2.548557 0.449510 -4.200900
v -2.547588 0.449615 -3.150000
v -2.546449 0.449722 -4.201575
v -2.544319 0.449875 -4.202068
v -2.543799 0.449904 -3.150000
v -2.542169 0.449968 -4.202370
v -2.540000 0.450000 -3.150000
v -2.540000 0.450000 -4.202474
f 1 2 3
f 1 4 2
f 4 5 2
f 4 6 5
f 6 7 5
f 6 8 7
f 8 9 7
f 8 10 9
f 8 11 10
f 11 12 10
f 11 13 12
f 13 14 12
f 13 15 14
f 13 16 15
f 16 17 15
f 16 18 17
f 18 19 17
f 18 20 19
f 18 21 20
f 21 22 20
f 21 23 22
f 21 24 23
f 24 25 23
f 24 26 25
f 26 27 25
f 26 28 27
f 26 29 28
f 29 30 28
f 29 31 30
f 29 32 31
f 32 33 31
f 32 34 33
f 32 35 34
f 35 36 34
f 35 37 36
f 35 38 37
f 38 39 37
f 38 40 39
f 38 41 40
f 41 42 40
f 41 43 42
f 41 44 43
f 44 45 43
f 44 46 45
f 44 47 46
f 47 48 46
f 47 49 48
f 47 50 49
f 50 51 49
f 50 52 51
f 50 53 52
f 53 54 52
f 53 55 54
f 53 56 55
f 56 57 55
f 56 58 57
f 56 59 58
f 59 60 58
f 59 61 60
f 59 62 61
f 62 63 61
f 62 64 63
f 62 65 64
f 65 66 64
f 65 67 66
f 65 68 67
f 68 69 67
f 68 70 69
f 68 71 70
f 71 72 70
f 71 73 72
f 73 74 72
f 73 75 74
f 73 76 75
f 76 77 75
f 76 78 77
f 76 79 78
f 79 80 78
f 79 81 80
f 79 82 81
f 82 83 81
f 82 84 83
f 82 85 84
f 85 86 84
f 85 87 86
f 87 88 86
