v -0.021986 0.220000 0.727588
v -0.035839 0.220000 0.675888
v -0.035950 0.220000 0.675503
v -0.036077 0.220000 0.675123
v -0.036219 0.220000 0.674748
v -0.036376 0.220000 0.674380
v -0.036547 0.220000 0.674018
v -0.036733 0.220000 0.673663
v -0.036933 0.220000 0.673315
v -0.037146 0.220000 0.672976
v -0.037373 0.220000 0.672646
v -0.037613 0.220000 0.672326
v -0.037866 0.220000 0.672015
v -0.038131 0.220000 0.671714
v -0.038408 0.220000 0.671425
v -0.038696 0.220000 0.671146
v -0.038995 0.220000 0.670880
v -0.039305 0.220000 0.670625
v -0.039624 0.220000 0.670383
v -0.039953 0.220000 0.670155
v -0.040291 0.220000 0.669939
v -0.040637 0.220000 0.669737
v -0.040991 0.220000 0.669550
v -0.041352 0.220000 0.669376
v -0.041720 0.220000 0.669218
v -0.042094 0.220000 0.669074
v -0.042473 0.220000 0.668945
v -0.042857 0.220000 0.668831
v -0.043246 0.220000 0.668733
v -0.043638 0.220000 0.668651
v -0.044033 0.220000 0.668584
v -0.044430 0.220000 0.668533
v -0.044829 0.220000 0.668499
v -0.041941 0.220000 0.668686
v -0.039052 0.220000 0.668861
v -0.036162 0.220000 0.669023
v -0.033272 0.220000 0.669173
v -0.030380 0.220000 0.669311
v -0.027489 0.220000 0.669436
v -0.024597 0.220000 0.669548
v -0.021704 0.220000 0.669648
v -0.018811 0.220000 0.669736
v -0.015918 0.220000 0.669811
v -0.013024 0.220000 0.669873
v -0.010130 0.220000 0.669923
v -0.007236 0.220000 0.669961
v -0.004342 0.220000 0.669986
v -0.001447 0.220000 0.669998
v 0.001447 0.220000 0.669998
v 0.004342 0.220000 0.669986
v 0.007236 0.220000 0.669961
v 0.010130 0.220000 0.669923
v 0.013024 0.220000 0.669873
v 0.015918 0.220000 0.669811
v 0.018811 0.220000 0.669736
v 0.021704 0.220000 0.669648
v 0.024597 0.220000 0.669548
v 0.027489 0.220000 0.669436
v 0.030380 0.220000 0.669311
v 0.033272 0.220000 0.669173
v 0.036162 0.220000 0.669023
v 0.039052 0.220000 0.668861
v 0.041941 0.220000 0.668686
v 0.044829 0.220000 0.668499
v 0.044430 0.220000 0.668533
v 0.044033 0.220000 0.668584
v 0.043638 0.220000 0.668651
v 0.043246 0.220000 0.668733
v 0.042857 0.220000 0.668831
v 0.042473 0.220000 0.668945
v 0.042094 0.220000 0.669074
v 0.041720 0.220000 0.669218
v 0.041352 0.220000 0.669376
v 0.040991 0.220000 0.669550
v 0.040637 0.220000 0.669737
v 0.040291 0.220000 0.669939
v 0.039953 0.220000 0.670155
v 0.039624 0.220000 0.670383
v 0.039305 0.220000 0.670625
v 0.038995 0.220000 0.670880
v 0.038696 0.220000 0.671146
v 0.038408 0.220000 0.671425
v 0.038131 0.220000 0.671714
v 0.037866 0.220000 0.672015
v 0.037613 0.220000 0.672326
v 0.037373 0.220000 0.672646
v 0.037146 0.220000 0.672976
v 0.036933 0.220000 0.673315
v 0.036733 0.220000 0.673663
v 0.036547 0.220000 0.674018
v 0.036376 0.220000 0.674380
v 0.036219 0.220000 0.674748
v 0.036077 0.220000 0.675123
v 0.035950 0.220000 0.675503
v 0.035839 0.220000 0.675888
v 0.021986 0.220000 0.727588
v 0.021868 0.220000 0.727994
v 0.021733 0.220000 0.728394
v 0.021582 0.220000 0.728788
v 0.021413 0.220000 0.729175
v 0.021229 0.220000 0.729555
v 0.021029 0.220000 0.729927
v 0.020813 0.220000 0.730290
v 0.020582 0.220000 0.730643
v 0.020337 0.220000 0.730987
v 0.020077 0.220000 0.731319
v 0.019803 0.220000 0.731641
v 0.019516 0.220000 0.731951
v 0.019216 0.220000 0.732248
v 0.018904 0.220000 0.732532
v 0.018580 0.220000 0.732803
v 0.018246 0.220000 0.733060
v 0.017900 0.220000 0.733303
v 0.017545 0.220000 0.733531
v 0.017180 0.220000 0.733743
v 0.016806 0.220000 0.733941
v 0.016425 0.220000 0.734122
v 0.016036 0.220000 0.734287
v 0.015641 0.220000 0.734435
v 0.015240 0.220000 0.734566
v 0.014833 0.220000 0.734681
v 0.014422 0.220000 0.734778
v 0.014008 0.220000 0.734858
v 0.013590 0.220000 0.734920
v 0.013170 0.220000 0.734964
v 0.012749 0.220000 0.734991
v 0.012327 0.220000 0.735000
v -0.012327 0.220000 0.735000
v -0.012749 0.220000 0.734991
v -0.013170 0.220000 0.734964
v -0.013590 0.220000 0.734920
v -0.014008 0.220000 0.734858
v -0.014422 0.220000 0.734778
v -0.014833 0.220000 0.734681
v -0.015240 0.220000 0.734566
v -0.015641 0.220000 0.734435
v -0.016036 0.220000 0.734287
v -0.016425 0.220000 0.734122
v -0.016806 0.220000 0.733941
v -0.017180 0.220000 0.733743
v -0.017545 0.220000 0.733531
v -0.017900 0.220000 0.733303
v -0.018246 0.220000 0.733060
v -0.018580 0.220000 0.732803
v -0.018904 0.220000 0.732532
v -0.019216 0.220000 0.732248
v -0.019516 0.220000 0.731951
v -0.019803 0.220000 0.731641
v -0.020077 0.220000 0.731319
v -0.020337 0.220000 0.730987
v -0.020582 0.220000 0.730643
v -0.020813 0.220000 0.730290
v -0.021029 0.220000 0.729927
v -0.021229 0.220000 0.729555
v -0.021413 0.220000 0.729175
v -0.021582 0.220000 0.728788
v -0.021733 0.220000 0.728394
v -0.021868 0.220000 0.727994
f 158 1 2
f 32 33 34
f 31 32 34
f 30 31 34
f 29 30 34
f 28 29 34
f 27 28 34
f 26 27 34
f 25 26 34
f 24 25 34
f 23 24 34
f 22 23 34
f 21 22 34
f 20 21 34
f 19 20 34
f 19 34 35
f 18 19 35
f 17 18 35
f 16 17 35
f 15 16 35
f 14 15 35
f 13 14 35
f 12 13 35
f 11 12 35
f 10 11 35
f 9 10 35
f 8 9 35
f 7 8 35
f 7 35 36
f 6 7 36
f 5 6 36
f 4 5 36
f 3 4 36
f 2 3 36
f 158 2 36
f 158 36 37
f 158 37 38
f 158 38 39
f 158 39 40
f 158 40 41
f 158 41 42
f 158 42 43
f 158 43 44
f 158 44 45
f 158 45 46
f 158 46 47
f 158 47 48
f 158 48 49
f 158 49 50
f 158 50 51
f 158 51 52
f 158 52 53
f 158 53 54
f 158 54 55
f 158 55 56
f 158 56 57
f 158 57 58
f 158 58 59
f 158 59 60
f 158 60 61
f 158 61 62
f 63 64 65
f 63 65 66
f 62 63 66
f 62 66 67
f 62 67 68
f 62 68 69
f 62 69 70
f 62 70 71
f 62 71 72
f 62 72 73
f 62 73 74
f 62 74 75
f 62 75 76
f 62 76 77
f 62 77 78
f 62 78 79
f 62 79 80
f 62 80 81
f 158 62 81
f 158 81 82
f 158 82 83
f 158 83 84
f 158 84 85
f 158 85 86
f 158 86 87
f 158 87 88
f 158 88 89
f 158 89 90
f 158 90 91
f 158 91 92
f 158 92 93
f 158 93 94
f 158 94 95
f 158 95 96
f 158 96 97
f 158 97 98
f 158 98 99
f 158 99 100
f 158 100 101
f 158 101 102
f 158 102 103
f 158 103 104
f 158 104 105
f 158 105 106
f 158 106 107
f 158 107 108
f 158 108 109
f 158 109 110
f 158 110 111
f 158 111 112
f 158 112 113
f 158 113 114
f 158 114 115
f 158 115 116
f 158 116 117
f 158 117 118
f 158 118 119
f 158 119 120
f 158 120 121
f 158 121 122
f 158 122 123
f 158 123 124
f 158 124 125
f 158 125 126
f 158 126 127
f 158 127 128
f 158 128 129
f 158 129 130
f 158 130 131
f 158 131 132
f 158 132 133
f 158 133 134
f 158 134 135
f 158 135 136
f 158 136 137
f 158 137 138
f 158 138 139
f 158 139 140
f 158 140 141
f 158 141 142
f 158 142 143
f 158 143 144
f 158 144 145
f 158 145 146
f 158 146 147
f 158 147 148
f 158 148 149
f 158 149 150
f 158 150 151
f 158 151 152
f 158 152 153
f 158 153 154
f 158 154 155
f 158 155 156
f 156 157 158
