v 0.536670 0.010000 0.401105
v 0.535210 0.010000 0.403051
v 0.533742 0.010000 0.404993
v 0.532268 0.010000 0.406929
v 0.530786 0.010000 0.408859
v 0.529298 0.010000 0.410785
v 0.527802 0.010000 0.412704
v 0.526300 0.010000 0.414619
v 0.524790 0.010000 0.416528
v 0.523274 0.010000 0.418431
v 0.521750 0.010000 0.420329
v 0.520220 0.010000 0.422221
v 0.518683 0.010000 0.424108
v 0.517139 0.010000 0.425989
v 0.515589 0.010000 0.427865
v 0.514031 0.010000 0.429735
v 0.512467 0.010000 0.431599
v 0.510896 0.010000 0.433458
v 0.509318 0.010000 0.435311
v 0.507733 0.010000 0.437158
v 0.506142 0.010000 0.438999
v 0.504544 0.010000 0.440835
v 0.502940 0.010000 0.442664
v 0.501329 0.010000 0.444488
v 0.499711 0.010000 0.446306
v 0.498086 0.010000 0.448118
v 0.496455 0.010000 0.449924
v 0.494818 0.010000 0.451725
v 0.493174 0.010000 0.453519
v 0.491523 0.010000 0.455307
v 0.489866 0.010000 0.457090
v 0.488203 0.010000 0.458866
v 0.536670 0.000000 0.401105
v 0.535210 0.000000 0.403051
v 0.533742 0.000000 0.404993
v 0.532268 0.000000 0.406929
v 0.530786 0.000000 0.408859
v 0.529298 0.000000 0.410785
v 0.527802 0.000000 0.412704
v 0.526300 0.000000 0.414619
v 0.524790 0.000000 0.416528
v 0.523274 0.000000 0.418431
v 0.521750 0.000000 0.420329
v 0.520220 0.000000 0.422221
v 0.518683 0.000000 0.424108
v 0.517139 0.000000 0.425989
v 0.515589 0.000000 0.427865
v 0.514031 0.000000 0.429735
v 0.512467 0.000000 0.431599
v 0.510896 0.000000 0.433458
v 0.509318 0.000000 0.435311
v 0.507733 0.000000 0.437158
v 0.506142 0.000000 0.438999
v 0.504544 0.000000 0.440835
v 0.502940 0.000000 0.442664
v 0.501329 0.000000 0.444488
v 0.499711 0.000000 0.446306
v 0.498086 0.000000 0.448118
v 0.496455 0.000000 0.449924
v 0.494818 0.000000 0.451725
v 0.493174 0.000000 0.453519
v 0.491523 0.000000 0.455307
v 0.489866 0.000000 0.457090
v 0.488203 0.000000 0.458866
f 1 2 34
f 1 34 33
f 2 3 35
f 2 35 34
f 3 4 36
f 3 36 35
f 4 5 37
f 4 37 36
f 5 6 38
f 5 38 37
f 6 7 39
f 6 39 38
f 7 8 40
f 7 40 39
f 8 9 41
f 8 41 40
f 9 10 42
f 9 42 41
f 10 11 43
f 10 43 42
f 11 12 44
f 11 44 43
f 12 13 45
f 12 45 44
f 13 14 46
f 13 46 45
f 14 15 47
f 14 47 46
f 15 16 48
f 15 48 47
f 16 17 49
f 16 49 48
f 17 18 50
f 17 50 49
f 18 19 51
f 18 51 50
f 19 20 52
f 19 52 51
f 20 21 53
f 20 53 52
f 21 22 54
f 21 54 53
f 22 23 55
f 22 55 54
f 23 24 56
f 23 56 55
f 24 25 57
f 24 57 56
f 25 26 58
f 25 58 57
f 26 27 59
f 26 59 58
f 27 28 60
f 27 60 59
f 28 29 61
f 28 61 60
f 29 30 62
f 29 62 61
f 30 31 63
f 30 63 62
f 31 32 64
f 31 64 63
