v -0.012327 0.000000 0.735000
v 0.012327 0.000000 0.735000
v 0.012749 0.000000 0.734991
v 0.013170 0.000000 0.734964
v 0.013590 0.000000 0.734920
v 0.014008 0.000000 0.734858
v 0.014422 0.000000 0.734778
v 0.014833 0.000000 0.734681
v 0.015240 0.000000 0.734566
v 0.015641 0.000000 0.734435
v 0.016036 0.000000 0.734287
v 0.016425 0.000000 0.734122
v 0.016806 0.000000 0.733941
v 0.017180 0.000000 0.733743
v 0.017545 0.000000 0.733531
v 0.017900 0.000000 0.733303
v 0.018246 0.000000 0.733060
v 0.018580 0.000000 0.732803
v 0.018904 0.000000 0.732532
v 0.019216 0.000000 0.732248
v 0.019516 0.000000 0.731951
v 0.019803 0.000000 0.731641
v 0.020077 0.000000 0.731319
v 0.020337 0.000000 0.730987
v 0.020582 0.000000 0.730643
v 0.020813 0.000000 0.730290
v 0.021029 0.000000 0.729927
v 0.021229 0.000000 0.729555
v 0.021413 0.000000 0.729175
v 0.021582 0.000000 0.728788
v 0.021733 0.000000 0.728394
v 0.021868 0.000000 0.727994
v 0.021986 0.000000 0.727588
v 0.037701 0.000000 0.668938
v 0.035271 0.000000 0.669071
v 0.032841 0.000000 0.669195
v 0.030410 0.000000 0.669310
v 0.027978 0.000000 0.669416
v 0.025547 0.000000 0.669513
v 0.023115 0.000000 0.669601
v 0.020682 0.000000 0.669681
v 0.018250 0.000000 0.669751
v 0.015817 0.000000 0.669813
v 0.013384 0.000000 0.669866
v 0.010951 0.000000 0.669911
v 0.008517 0.000000 0.669946
v 0.006084 0.000000 0.669972
v 0.003650 0.000000 0.669990
v 0.001217 0.000000 0.669999
v -0.001217 0.000000 0.669999
v -0.003650 0.000000 0.669990
v -0.006084 0.000000 0.669972
v -0.008517 0.000000 0.669946
v -0.010951 0.000000 0.669911
v -0.013384 0.000000 0.669866
v -0.015817 0.000000 0.669813
v -0.018250 0.000000 0.669751
v -0.020682 0.000000 0.669681
v -0.023115 0.000000 0.669601
v -0.025547 0.000000 0.669513
v -0.027978 0.000000 0.669416
v -0.030410 0.000000 0.669310
v -0.032841 0.000000 0.669195
v -0.035271 0.000000 0.669071
v -0.037701 0.000000 0.668938
v -0.021986 0.000000 0.727588
v -0.021868 0.000000 0.727994
v -0.021733 0.000000 0.728394
v -0.021582 0.000000 0.728788
v -0.021413 0.000000 0.729175
v -0.021229 0.000000 0.729555
v -0.021029 0.000000 0.729927
v -0.020813 0.000000 0.730290
v -0.020582 0.000000 0.730643
v -0.020337 0.000000 0.730987
v -0.020077 0.000000 0.731319
v -0.019803 0.000000 0.731641
v -0.019516 0.000000 0.731951
v -0.019216 0.000000 0.732248
v -0.018904 0.000000 0.732532
v -0.018580 0.000000 0.732803
v -0.018246 0.000000 0.733060
v -0.017900 0.000000 0.733303
v -0.017545 0.000000 0.733531
v -0.017180 0.000000 0.733743
v -0.016806 0.000000 0.733941
v -0.016425 0.000000 0.734122
v -0.016036 0.000000 0.734287
v -0.015641 0.000000 0.734435
v -0.015240 0.000000 0.734566
v -0.014833 0.000000 0.734681
v -0.014422 0.000000 0.734778
v -0.014008 0.000000 0.734858
v -0.013590 0.000000 0.734920
v -0.013170 0.000000 0.734964
v -0.012749 0.000000 0.734991
f 96 1 2
f 96 2 3
f 96 3 4
f 96 4 5
f 96 5 6
f 96 6 7
f 96 7 8
f 96 8 9
f 96 9 10
f 96 10 11
f 96 11 12
f 96 12 13
f 96 13 14
f 96 14 15
f 96 15 16
f 96 16 17
f 96 17 18
f 96 18 19
f 96 19 20
f 96 20 21
f 96 21 22
f 96 22 23
f 96 23 24
f 96 24 25
f 96 25 26
f 96 26 27
f 96 27 28
f 96 28 29
f 96 29 30
f 96 30 31
f 96 31 32
f 96 32 33
f 96 33 34
f 96 34 35
f 96 35 36
f 96 36 37
f 96 37 38
f 96 38 39
f 96 39 40
f 96 40 41
f 96 41 42
f 96 42 43
f 96 43 44
f 96 44 45
f 96 45 46
f 96 46 47
f 96 47 48
f 96 48 49
f 96 49 50
f 96 50 51
f 96 51 52
f 96 52 53
f 96 53 54
f 96 54 55
f 96 55 56
f 96 56 57
f 96 57 58
f 96 58 59
f 96 59 60
f 96 60 61
f 96 61 62
f 96 62 63
f 96 63 64
f 96 64 65
f 96 65 66
f 96 66 67
f 96 67 68
f 96 68 69
f 96 69 70
f 96 70 71
f 96 71 72
f 96 72 73
f 96 73 74
f 96 74 75
f 96 75 76
f 96 76 77
f 96 77 78
f 96 78 79
f 96 79 80
f 96 80 81
f 96 81 82
f 96 82 83
f 96 83 84
f 96 84 85
f 96 85 86
f 96 86 87
f 96 87 88
f 96 88 89
f 96 89 90
f 96 90 91
f 96 91 92
f 96 92 93
f 96 93 94
f 94 95 96
