v -2.637500 0.613535 -6.388000
v -2.637752 0.627840 -6.378972
v -2.637500 0.350000 -6.388000
v -2.638334 0.350000 -6.371560
v -2.638504 0.641640 -6.369983
v -2.639752 0.654941 -6.361052
v -2.640826 0.350000 -6.355289
v -2.641493 0.667750 -6.352197
v -2.643724 0.680073 -6.343437
v -2.644952 0.350000 -6.339353
v -2.646452 0.691922 -6.334782
v -2.649685 0.703310 -6.326244
v -2.650669 0.350000 -6.323917
v -2.653430 0.714246 -6.317835
v -2.657688 0.724730 -6.309576
v -2.657919 0.350000 -6.309138
v -2.662436 0.734727 -6.301519
v -2.666626 0.350000 -6.295169
v -2.667651 0.744195 -6.293721
v -2.673308 0.753094 -6.286239
v -2.676702 0.350000 -6.282152
v -2.679379 0.761397 -6.279118
v -2.685826 0.769106 -6.272381
v -2.688043 0.350000 -6.270221
v -2.692611 0.776226 -6.266051
v -2.699697 0.782764 -6.260145
v -2.700533 0.350000 -6.259499
v -2.707064 0.788731 -6.254678
v -2.714043 0.350000 -6.250095
v -2.714725 0.794148 -6.249647
v -2.722698 0.799037 -6.245051
v -2.728436 0.350000 -6.242107
v -2.730999 0.803418 -6.240885
v -2.739610 0.807296 -6.237162
v -2.743563 0.350000 -6.235615
v -2.748464 0.810653 -6.233913
v -2.757488 0.813466 -6.231169
v -2.759269 0.350000 -6.230687
v -2.766613 0.815715 -6.228962
v -2.775393 0.350000 -6.227374
v -2.775789 0.817396 -6.227306
v -2.784996 0.818524 -6.226191
v -2.791770 0.350000 -6.225709
v -2.794214 0.819115 -6.225603
v -2.803426 0.819185 -6.225533
v -2.808230 0.350000 -6.225709
v -2.812620 0.818735 -6.225980
v -2.821794 0.817751 -6.226955
v -2.824607 0.350000 -6.227374
v -2.830947 0.816217 -6.228468
v -2.840075 0.814119 -6.230529
v -2.840731 0.350000 -6.230687
v -2.849137 0.811457 -6.233131
v -2.856437 0.350000 -6.235615
v -2.858062 0.808242 -6.236250
v -2.866780 0.804487 -6.239863
v -2.871564 0.350000 -6.242107
v -2.875221 0.800202 -6.243947
v -2.883360 0.795383 -6.248491
v -2.885957 0.350000 -6.250095
v -2.891199 0.790017 -6.253489
v -2.898742 0.784089 -6.258938
v -2.899467 0.350000 -6.259499
v -2.905990 0.777586 -6.264830
v -2.911957 0.350000 -6.270221
v -2.912921 0.770496 -6.271153
v -2.919504 0.762813 -6.277889
v -2.923298 0.350000 -6.282152
v -2.925704 0.754526 -6.285020
v -2.931489 0.745631 -6.292525
v -2.933374 0.350000 -6.295169
v -2.936832 0.736147 -6.300362
v -2.941706 0.726105 -6.308480
v -2.942081 0.350000 -6.309138
v -2.946085 0.715537 -6.316829
v -2.949331 0.350000 -6.323917
v -2.949945 0.704470 -6.325361
v -2.953284 0.692916 -6.334043
v -2.955048 0.350000 -6.339353
v -2.956103 0.680883 -6.342850
v -2.958407 0.668375 -6.351758
v -2.959174 0.350000 -6.355289
v -2.960198 0.655396 -6.360742
v -2.961477 0.641938 -6.369787
v -2.961666 0.350000 -6.371560
v -2.962244 0.627988 -6.378877
v -2.962500 0.613535 -6.388000
v -2.962500 0.350000 -6.388000
f 1 3 2
f 2 3 4
f 2 4 5
f 5 4 6
f 6 4 7
f 6 7 8
f 8 7 9
f 9 7 10
f 9 10 11
f 11 10 12
f 12 10 13
f 12 13 14
f 14 13 15
f 15 13 16
f 15 16 17
f 17 16 18
f 17 18 19
f 19 18 20
f 20 18 21
f 20 21 22
f 22 21 23
f 23 21 24
f 23 24 25
f 25 24 26
f 26 24 27
f 26 27 28
f 28 27 29
f 28 29 30
f 30 29 31
f 31 29 32
f 31 32 33
f 33 32 34
f 34 32 35
f 34 35 36
f 36 35 37
f 37 35 38
f 37 38 39
f 39 38 40
f 39 40 41
f 41 40 42
f 42 40 43
f 42 43 44
f 44 43 45
f 45 43 46
f 45 46 47
f 47 46 48
f 48 46 49
f 48 49 50
f 50 49 51
f 51 49 52
f 51 52 53
f 53 52 54
f 53 54 55
f 55 54 56
f 56 54 57
f 56 57 58
f 58 57 59
f 59 57 60
f 59 60 61
f 61 60 62
f 62 60 63
f 62 63 64
f 64 63 65
f 64 65 66
f 66 65 67
f 67 65 68
f 67 68 69
f 69 68 70
f 70 68 71
f 70 71 72
f 72 71 73
f 73 71 74
f 73 74 75
f 75 74 76
f 75 76 77
f 77 76 78
f 78 76 79
f 78 79 80
f 80 79 81
f 81 79 82
f 81 82 83
f 83 82 84
f 84 82 85
f 84 85 86
f 86 85 87
f 87 85 88
