v -0.166642 0.230000 0.052157
v -0.165787 0.230000 0.052157
v -0.163231 0.230000 0.052157
v -0.159000 0.230000 0.052157
v -0.153137 0.230000 0.052157
v -0.145703 0.230000 0.052157
v -0.136774 0.230000 0.052157
v -0.126441 0.230000 0.052157
v -0.114811 0.230000 0.052157
v -0.102003 0.230000 0.052157
v -0.088148 0.230000 0.052157
v -0.073388 0.230000 0.052157
v -0.057876 0.230000 0.052157
v -0.041769 0.230000 0.052157
v -0.025234 0.230000 0.052157
v -0.008440 0.230000 0.052157
v 0.008440 0.230000 0.052157
v 0.025234 0.230000 0.052157
v 0.041769 0.230000 0.052157
v 0.057876 0.230000 0.052157
v 0.073388 0.230000 0.052157
v 0.088148 0.230000 0.052157
v 0.102003 0.230000 0.052157
v 0.114811 0.230000 0.052157
v 0.126441 0.230000 0.052157
v 0.136774 0.230000 0.052157
v 0.145703 0.230000 0.052157
v 0.153137 0.230000 0.052157
v 0.159000 0.230000 0.052157
v 0.163231 0.230000 0.052157
v 0.165787 0.230000 0.052157
v 0.166642 0.230000 0.052157
v 0.159571 0.227071 0.052157
v 0.159752 0.227248 0.052157
v 0.159938 0.227420 0.052157
v 0.160128 0.227588 0.052157
v 0.160323 0.227750 0.052157
v 0.160521 0.227908 0.052157
v 0.160723 0.228060 0.052157
v 0.160929 0.228208 0.052157
v 0.161139 0.228350 0.052157
v 0.161352 0.228486 0.052157
v 0.161569 0.228618 0.052157
v 0.161789 0.228743 0.052157
v 0.162012 0.228864 0.052157
v 0.162238 0.228978 0.052157
v 0.162467 0.229087 0.052157
v 0.162699 0.229190 0.052157
v 0.162933 0.229287 0.052157
v 0.163169 0.229378 0.052157
v 0.163408 0.229462 0.052157
v 0.163649 0.229541 0.052157
v 0.163891 0.229614 0.052157
v 0.164136 0.229681 0.052157
v 0.164382 0.229741 0.052157
v 0.164629 0.229795 0.052157
v 0.164878 0.229843 0.052157
v 0.165128 0.229885 0.052157
v 0.165379 0.229920 0.052157
v 0.165630 0.229949 0.052157
v 0.165883 0.229971 0.052157
v 0.166136 0.229987 0.052157
v 0.166389 0.229997 0.052157
v 0.166642 0.230000 0.052157
v 0.165787 0.230000 0.052157
v 0.163231 0.230000 0.052157
v 0.159000 0.230000 0.052157
v 0.153137 0.230000 0.052157
v 0.145703 0.230000 0.052157
v 0.136774 0.230000 0.052157
v 0.126441 0.230000 0.052157
v 0.114811 0.230000 0.052157
v 0.102003 0.230000 0.052157
v 0.088148 0.230000 0.052157
v 0.073388 0.230000 0.052157
v 0.057876 0.230000 0.052157
v 0.041769 0.230000 0.052157
v 0.025234 0.230000 0.052157
v 0.008440 0.230000 0.052157
v -0.008440 0.230000 0.052157
v -0.025234 0.230000 0.052157
v -0.041769 0.230000 0.052157
v -0.057876 0.230000 0.052157
v -0.073388 0.230000 0.052157
v -0.088148 0.230000 0.052157
v -0.102003 0.230000 0.052157
v -0.114811 0.230000 0.052157
v -0.126441 0.230000 0.052157
v -0.136774 0.230000 0.052157
v -0.145703 0.230000 0.052157
v -0.153137 0.230000 0.052157
v -0.159000 0.230000 0.052157
v -0.163231 0.230000 0.052157
v -0.165787 0.230000 0.052157
v -0.166642 0.230000 0.052157
v -0.166389 0.229997 0.052157
v -0.166136 0.229987 0.052157
v -0.165883 0.229971 0.052157
v -0.165630 0.229949 0.052157
v -0.165379 0.229920 0.052157
v -0.165128 0.229885 0.052157
v -0.164878 0.229843 0.052157
v -0.164629 0.229795 0.052157
v -0.164382 0.229741 0.052157
v -0.164136 0.229681 0.052157
v -0.163891 0.229614 0.052157
v -0.163649 0.229541 0.052157
v -0.163408 0.229462 0.052157
v -0.163169 0.229378 0.052157
v -0.162933 0.229287 0.052157
v -0.162699 0.229190 0.052157
v -0.162467 0.229087 0.052157
v -0.162238 0.228978 0.052157
v -0.162012 0.228864 0.052157
v -0.161789 0.228743 0.052157
v -0.161569 0.228618 0.052157
v -0.161352 0.228486 0.052157
v -0.161139 0.228350 0.052157
v -0.160929 0.228208 0.052157
v -0.160723 0.228060 0.052157
v -0.160521 0.227908 0.052157
v -0.160323 0.227750 0.052157
v -0.160128 0.227588 0.052157
v -0.159938 0.227420 0.052157
v -0.159752 0.227248 0.052157
v -0.159571 0.227071 0.052157
f 33 35 34
f 35 37 36
f 37 39 38
f 39 41 40
f 41 43 42
f 43 45 44
f 45 47 46
f 47 49 48
f 49 51 50
f 51 53 52
f 53 55 54
f 55 57 56
f 57 59 58
f 59 61 60
f 61 63 62
f 95 97 96
f 97 99 98
f 99 101 100
f 101 103 102
f 103 105 104
f 105 107 106
f 107 109 108
f 109 111 110
f 111 113 112
f 113 115 114
f 115 117 116
f 117 119 118
f 119 121 120
f 121 123 122
f 123 125 124
f 33 37 35
f 37 41 39
f 41 45 43
f 45 49 47
f 49 53 51
f 53 57 55
f 57 61 59
f 61 64 63
f 95 99 97
f 99 103 101
f 103 107 105
f 107 111 109
f 111 115 113
f 115 119 117
f 119 123 121
f 123 126 125
f 33 41 37
f 41 49 45
f 49 57 53
f 57 64 61
f 95 103 99
f 103 111 107
f 111 119 115
f 119 126 123
f 33 49 41
f 49 64 57
f 95 111 103
f 111 126 119
f 33 64 49
f 95 126 111
