v -0.660000 0.040000 -0.016211
v -0.660000 0.039272 -0.016167
v -0.660000 0.038544 -0.016125
v -0.660000 0.037817 -0.016083
v -0.660000 0.037089 -0.016041
v -0.660000 0.036361 -0.016001
v -0.660000 0.035634 -0.015961
v -0.660000 0.034906 -0.015922
v -0.660000 0.034178 -0.015884
v -0.660000 0.033451 -0.015847
v -0.660000 0.032723 -0.015811
v -0.660000 0.031995 -0.015775
v -0.660000 0.031268 -0.015740
v -0.660000 0.030540 -0.015706
v -0.660000 0.029813 -0.015673
v -0.660000 0.029085 -0.015641
v -0.660000 0.028358 -0.015609
v -0.660000 0.027630 -0.015578
v -0.660000 0.026903 -0.015548
v -0.660000 0.026175 -0.015519
v -0.660000 0.025448 -0.015490
v -0.660000 0.024721 -0.015463
v -0.660000 0.023993 -0.015436
v -0.660000 0.023266 -0.015410
v -0.660000 0.022538 -0.015385
v -0.660000 0.021811 -0.015360
v -0.660000 0.021084 -0.015337
v -0.660000 0.020357 -0.015314
v -0.660000 0.019629 -0.015292
v -0.660000 0.018902 -0.015271
v -0.660000 0.018175 -0.015250
v -0.660000 0.017448 -0.015231
v -0.660000 0.016720 -0.015212
v -0.660000 0.015993 -0.015194
v -0.660000 0.015266 -0.015177
v -0.660000 0.014539 -0.015160
v -0.660000 0.013812 -0.015145
v -0.660000 0.013085 -0.015130
v -0.660000 0.012358 -0.015116
v -0.660000 0.011631 -0.015102
v -0.660000 0.010903 -0.015090
v -0.660000 0.010176 -0.015078
v -0.660000 0.009449 -0.015068
v -0.660000 0.008722 -0.015058
v -0.660000 0.007995 -0.015048
v -0.660000 0.007269 -0.015040
v -0.660000 0.006542 -0.015032
v -0.660000 0.005815 -0.015026
v -0.660000 0.005088 -0.015020
v -0.660000 0.004361 -0.015014
v -0.660000 0.003634 -0.015010
v -0.660000 0.002907 -0.015006
v -0.660000 0.002180 -0.015004
v -0.660000 0.001454 -0.015002
v -0.660000 0.000727 -0.015000
v -0.660000 0.000000 -0.015000
v -0.660000 -0.000727 -0.015000
v -0.660000 -0.001454 -0.015002
v -0.660000 -0.002180 -0.015004
v -0.660000 -0.002907 -0.015006
v -0.660000 -0.003634 -0.015010
v -0.660000 -0.004361 -0.015014
v -0.660000 -0.005088 -0.015020
v -0.660000 -0.005815 -0.015026
v -0.660000 -0.006542 -0.015032
v -0.660000 -0.007269 -0.015040
v -0.660000 -0.007996 -0.015048
v -0.660000 -0.008723 -0.015058
v -0.660000 -0.009450 -0.015068
v -0.660000 -0.010177 -0.015078
v -0.660000 -0.010904 -0.015090
v -0.660000 -0.011631 -0.015102
v -0.660000 -0.012358 -0.015116
v -0.660000 -0.013085 -0.015130
v -0.660000 -0.013812 -0.015145
v -0.660000 -0.014539 -0.015160
v -0.660000 -0.015266 -0.015177
v -0.660000 -0.015993 -0.015194
v -0.660000 -0.016720 -0.015212
v -0.660000 -0.017448 -0.015231
v -0.660000 -0.018175 -0.015250
v -0.660000 -0.018902 -0.015271
v -0.660000 -0.019629 -0.015292
v -0.660000 -0.020357 -0.015314
v -0.660000 -0.021084 -0.015337
v -0.660000 -0.021811 -0.015360
v -0.660000 -0.022539 -0.015385
v -0.660000 -0.023266 -0.015410
v -0.660000 -0.023993 -0.015436
v -0.660000 -0.024721 -0.015463
v -0.660000 -0.025448 -0.015490
v -0.660000 -0.026175 -0.015519
v -0.660000 -0.026903 -0.015548
v -0.660000 -0.027630 -0.015578
v -0.660000 -0.028358 -0.015609
v -0.660000 -0.029085 -0.015641
v -0.660000 -0.029813 -0.015673
v -0.660000 -0.030540 -0.015706
v -0.660000 -0.031268 -0.015740
v -0.660000 -0.031996 -0.015775
v -0.660000 -0.032723 -0.015811
v -0.660000 -0.033451 -0.015847
v -0.660000 -0.034178 -0.015884
v -0.660000 -0.034906 -0.015922
v -0.660000 -0.035634 -0.015961
v -0.660000 -0.036361 -0.016001
v -0.660000 -0.037089 -0.016041
v -0.660000 -0.037817 -0.016083
v -0.660000 -0.038544 -0.016125
v -0.660000 -0.039272 -0.016167
v -0.660000 -0.040000 -0.016211
v -0.660000 -0.040000 -0.857174
v -0.660000 -0.039269 -0.857277
v -0.660000 -0.038537 -0.857377
v -0.660000 -0.037806 -0.857475
v -0.660000 -0.037075 -0.857572
v -0.660000 -0.036345 -0.857667
v -0.660000 -0.035614 -0.857760
v -0.660000 -0.034884 -0.857850
v -0.660000 -0.034153 -0.857939
v -0.660000 -0.033423 -0.858027
v -0.660000 -0.032693 -0.858112
v -0.660000 -0.031963 -0.858195
v -0.660000 -0.031234 -0.858277
v -0.660000 -0.030504 -0.858356
v -0.660000 -0.029775 -0.858434
v -0.660000 -0.029045 -0.858509
v -0.660000 -0.028316 -0.858583
v -0.660000 -0.027587 -0.858655
v -0.660000 -0.026859 -0.858725
v -0.660000 -0.026130 -0.858794
v -0.660000 -0.025401 -0.858860
v -0.660000 -0.024673 -0.858924
v -0.660000 -0.023945 -0.858987
v -0.660000 -0.023217 -0.859047
v -0.660000 -0.022489 -0.859106
v -0.660000 -0.021761 -0.859163
v -0.660000 -0.021034 -0.859218
v -0.660000 -0.020306 -0.859271
v -0.660000 -0.019579 -0.859323
v -0.660000 -0.018852 -0.859372
v -0.660000 -0.018125 -0.859419
v -0.660000 -0.017398 -0.859465
v -0.660000 -0.016671 -0.859509
v -0.660000 -0.015945 -0.859551
v -0.660000 -0.015218 -0.859591
v -0.660000 -0.014492 -0.859629
v -0.660000 -0.013766 -0.859665
v -0.660000 -0.013040 -0.859699
v -0.660000 -0.012314 -0.859732
v -0.660000 -0.011589 -0.859763
v -0.660000 -0.010863 -0.859791
v -0.660000 -0.010138 -0.859818
v -0.660000 -0.009413 -0.859843
v -0.660000 -0.008688 -0.859867
v -0.660000 -0.007963 -0.859888
v -0.660000 -0.007238 -0.859907
v -0.660000 -0.006514 -0.859925
v -0.660000 -0.005790 -0.859941
v -0.660000 -0.005065 -0.859955
v -0.660000 -0.004341 -0.859967
v -0.660000 -0.003617 -0.859977
v -0.660000 -0.002894 -0.859985
v -0.660000 -0.002170 -0.859992
v -0.660000 -0.001446 -0.859996
v -0.660000 -0.000723 -0.859999
v -0.660000 0.000000 -0.860000
v -0.660000 0.000723 -0.859999
v -0.660000 0.001446 -0.859996
v -0.660000 0.002170 -0.859992
v -0.660000 0.002893 -0.859985
v -0.660000 0.003617 -0.859977
v -0.660000 0.004341 -0.859967
v -0.660000 0.005065 -0.859955
v -0.660000 0.005789 -0.859941
v -0.660000 0.006514 -0.859925
v -0.660000 0.007238 -0.859907
v -0.660000 0.007963 -0.859888
v -0.660000 0.008688 -0.859867
v -0.660000 0.009413 -0.859843
v -0.660000 0.010138 -0.859818
v -0.660000 0.010863 -0.859791
v -0.660000 0.011589 -0.859763
v -0.660000 0.012314 -0.859732
v -0.660000 0.013040 -0.859699
v -0.660000 0.013766 -0.859665
v -0.660000 0.014492 -0.859629
v -0.660000 0.015218 -0.859591
v -0.660000 0.015944 -0.859551
v -0.660000 0.016671 -0.859509
v -0.660000 0.017398 -0.859465
v -0.660000 0.018124 -0.859419
v -0.660000 0.018851 -0.859372
v -0.660000 0.019579 -0.859323
v -0.660000 0.020306 -0.859271
v -0.660000 0.021033 -0.859218
v -0.660000 0.021761 -0.859163
v -0.660000 0.022489 -0.859106
v -0.660000 0.023216 -0.859048
v -0.660000 0.023944 -0.858987
v -0.660000 0.024673 -0.858924
v -0.660000 0.025401 -0.858860
v -0.660000 0.026130 -0.858794
v -0.660000 0.026858 -0.858725
v -0.660000 0.027587 -0.858655
v -0.660000 0.028316 -0.858583
v -0.660000 0.029045 -0.858509
v -0.660000 0.029774 -0.858434
v -0.660000 0.030504 -0.858356
v -0.660000 0.031233 -0.858277
v -0.660000 0.031963 -0.858195
v -0.660000 0.032693 -0.858112
v -0.660000 0.033423 -0.858027
v -0.660000 0.034153 -0.857939
v -0.660000 0.034884 -0.857850
v -0.660000 0.035614 -0.857760
v -0.660000 0.036345 -0.857667
v -0.660000 0.037075 -0.857572
v -0.660000 0.037806 -0.857475
v -0.660000 0.038537 -0.857377
v -0.660000 0.039269 -0.857277
v -0.660000 0.040000 -0.857174
f 56 55 57
f 57 55 54
f 57 54 58
f 58 54 53
f 58 53 59
f 59 53 52
f 59 52 60
f 60 52 51
f 60 51 61
f 61 51 50
f 61 50 62
f 62 50 49
f 62 49 63
f 63 49 48
f 63 48 64
f 64 48 47
f 64 47 65
f 65 47 46
f 65 46 66
f 66 46 45
f 66 45 67
f 67 45 44
f 67 44 68
f 68 44 43
f 68 43 69
f 69 43 42
f 69 42 70
f 70 42 41
f 70 41 71
f 71 41 40
f 71 40 72
f 72 40 39
f 72 39 73
f 73 39 38
f 73 38 74
f 74 38 37
f 74 37 75
f 75 37 36
f 75 36 76
f 76 36 35
f 76 35 77
f 77 35 34
f 77 34 78
f 78 34 33
f 78 33 79
f 79 33 32
f 79 32 80
f 80 32 31
f 80 31 81
f 81 31 30
f 81 30 82
f 82 30 29
f 82 29 83
f 83 29 28
f 83 28 84
f 84 28 27
f 84 27 85
f 85 27 26
f 85 26 86
f 86 26 25
f 86 25 87
f 87 25 24
f 87 24 88
f 88 24 23
f 88 23 89
f 89 23 22
f 89 22 90
f 90 22 21
f 90 21 91
f 91 21 20
f 91 20 92
f 92 20 19
f 92 19 93
f 93 19 18
f 93 18 94
f 94 18 17
f 94 17 95
f 95 17 16
f 95 16 96
f 96 16 15
f 96 15 97
f 97 15 14
f 97 14 98
f 98 14 13
f 98 13 99
f 99 13 12
f 99 12 100
f 100 12 11
f 100 11 101
f 101 11 10
f 101 10 102
f 102 10 9
f 102 9 103
f 103 9 8
f 103 8 104
f 104 8 7
f 104 7 105
f 105 7 6
f 105 6 106
f 106 6 5
f 106 5 107
f 107 5 4
f 107 4 108
f 108 4 3
f 108 3 109
f 109 3 2
f 109 2 110
f 110 2 1
f 110 1 111
f 111 1 222
f 111 222 112
f 112 222 221
f 112 221 113
f 113 221 220
f 113 220 114
f 114 220 115
f 115 220 219
f 115 219 116
f 116 219 218
f 116 218 117
f 117 218 217
f 117 217 118
f 118 217 216
f 118 216 119
f 119 216 215
f 119 215 120
f 120 215 214
f 120 214 121
f 121 214 213
f 121 213 122
f 122 213 212
f 122 212 123
f 123 212 211
f 123 211 124
f 124 211 210
f 124 210 125
f 125 210 209
f 125 209 126
f 126 209 208
f 126 208 127
f 127 208 207
f 127 207 128
f 128 207 206
f 128 206 129
f 129 206 205
f 129 205 130
f 130 205 204
f 130 204 131
f 131 204 203
f 131 203 132
f 132 203 202
f 132 202 133
f 133 202 201
f 133 201 134
f 134 201 200
f 134 200 135
f 135 200 199
f 135 199 136
f 136 199 198
f 136 198 137
f 137 198 197
f 137 197 138
f 138 197 196
f 138 196 139
f 139 196 195
f 139 195 140
f 140 195 194
f 140 194 141
f 141 194 193
f 141 193 142
f 142 193 192
f 142 192 143
f 143 192 191
f 143 191 144
f 144 191 190
f 144 190 145
f 145 190 189
f 145 189 146
f 146 189 188
f 146 188 147
f 147 188 187
f 147 187 148
f 148 187 186
f 148 186 149
f 149 186 185
f 149 185 150
f 150 185 184
f 150 184 151
f 151 184 183
f 151 183 152
f 152 183 182
f 152 182 153
f 153 182 181
f 153 181 154
f 154 181 180
f 154 180 155
f 155 180 179
f 155 179 156
f 156 179 178
f 156 178 157
f 157 178 177
f 157 177 158
f 158 177 176
f 158 176 159
f 159 176 175
f 159 175 160
f 160 175 174
f 160 174 161
f 161 174 173
f 161 173 162
f 162 173 172
f 162 172 163
f 163 172 171
f 163 171 164
f 164 171 170
f 164 170 169
f 164 169 165
f 165 169 168
f 165 168 166
f 166 168 167
