v -0.156399 0.656631 -0.036213
v -0.156398 0.656625 -0.035778
v -0.156399 0.656630 -0.035995
v -0.156396 0.656618 -0.035562
v -0.156395 0.656607 -0.035347
v -0.156392 0.656594 -0.035132
v -0.156389 0.656577 -0.034918
v -0.156386 0.656558 -0.034705
v -0.156382 0.656535 -0.034493
v -0.156378 0.656510 -0.034282
v -0.156372 0.656482 -0.034071
v -0.156367 0.656450 -0.033860
v -0.156361 0.656416 -0.033651
v -0.156354 0.656378 -0.033442
v -0.156347 0.656338 -0.033233
v -0.156340 0.656295 -0.033026
v -0.156331 0.656248 -0.032818
v -0.156323 0.656199 -0.032611
v -0.156313 0.656146 -0.032405
v -0.156304 0.656091 -0.032199
v -0.156293 0.656033 -0.031994
v -0.156282 0.655971 -0.031789
v -0.156271 0.655907 -0.031585
v -0.156259 0.655840 -0.031381
v -0.156247 0.655770 -0.031178
v -0.156234 0.655697 -0.030977
v -0.156221 0.655621 -0.030776
v -0.156207 0.655543 -0.030576
v -0.156193 0.655462 -0.030377
v -0.156178 0.655378 -0.030180
v -0.156163 0.655291 -0.029983
v -0.156147 0.655202 -0.029788
v -0.156131 0.655110 -0.029595
v -0.156114 0.655016 -0.029403
v -0.156097 0.654919 -0.029212
v -0.156079 0.654819 -0.029023
v -0.156061 0.654717 -0.028836
v -0.156043 0.654613 -0.028650
v -0.156024 0.654506 -0.028467
v -0.156005 0.654396 -0.028285
v -0.155985 0.654285 -0.028105
v -0.155965 0.654170 -0.027927
v -0.155944 0.654053 -0.027750
v -0.155923 0.653934 -0.027575
v -0.155902 0.653812 -0.027402
v -0.155880 0.653687 -0.027231
v -0.155857 0.653560 -0.027061
v -0.155834 0.653430 -0.026893
v -0.155811 0.653298 -0.026727
v -0.155787 0.653163 -0.026562
v -0.155763 0.653025 -0.026399
v -0.155738 0.652885 -0.026237
v -0.155713 0.652742 -0.026077
v -0.155687 0.652596 -0.025919
v -0.155661 0.652448 -0.025762
v -0.155635 0.652297 -0.025607
v -0.302266 0.603540 -0.036213
v -0.302265 0.603539 -0.035995
v -0.302263 0.603535 -0.035778
v -0.302259 0.603528 -0.035562
v -0.302254 0.603519 -0.035347
v -0.302247 0.603507 -0.035132
v -0.302239 0.603493 -0.034918
v -0.302229 0.603475 -0.034705
v -0.302217 0.603456 -0.034493
v -0.302204 0.603433 -0.034282
v -0.302190 0.603408 -0.034071
v -0.302174 0.603381 -0.033860
v -0.302157 0.603351 -0.033651
v -0.302138 0.603318 -0.033442
v -0.302117 0.603282 -0.033233
v -0.302095 0.603244 -0.033026
v -0.302071 0.603203 -0.032818
v -0.302046 0.603160 -0.032611
v -0.302020 0.603114 -0.032405
v -0.301992 0.603065 -0.032199
v -0.301962 0.603014 -0.031994
v -0.301931 0.602960 -0.031789
v -0.301898 0.602903 -0.031585
v -0.301864 0.602844 -0.031381
v -0.301829 0.602782 -0.031178
v -0.301792 0.602718 -0.030977
v -0.301753 0.602652 -0.030776
v -0.301713 0.602583 -0.030576
v -0.301672 0.602511 -0.030377
v -0.301630 0.602438 -0.030180
v -0.301586 0.602362 -0.029983
v -0.301540 0.602283 -0.029788
v -0.301494 0.602202 -0.029595
v -0.301446 0.602119 -0.029403
v -0.301396 0.602034 -0.029212
v -0.301346 0.601946 -0.029023
v -0.301294 0.601857 -0.028836
v -0.301241 0.601765 -0.028650
v -0.301187 0.601671 -0.028467
v -0.301131 0.601575 -0.028285
v -0.301075 0.601476 -0.028105
v -0.301016 0.601376 -0.027927
v -0.300957 0.601273 -0.027750
v -0.300896 0.601168 -0.027575
v -0.300835 0.601061 -0.027402
v -0.300771 0.600951 -0.027231
v -0.300707 0.600839 -0.027061
v -0.300641 0.600725 -0.026893
v -0.300574 0.600609 -0.026727
v -0.300505 0.600490 -0.026562
v -0.300435 0.600369 -0.026399
v -0.300364 0.600246 -0.026237
v -0.300291 0.600120 -0.026077
v -0.300217 0.599992 -0.025919
v -0.300142 0.599861 -0.025762
v -0.300065 0.599728 -0.025607
v -0.161276 0.655450 -0.036213
v -0.160464 0.651126 -0.025607
v -0.166145 0.654233 -0.036213
v -0.165284 0.649919 -0.025607
v -0.171004 0.652980 -0.036213
v -0.170095 0.648676 -0.025607
v -0.175854 0.651690 -0.036213
v -0.174897 0.647398 -0.025607
v -0.180695 0.650365 -0.036213
v -0.179689 0.646084 -0.025607
v -0.185525 0.649003 -0.036213
v -0.184471 0.644735 -0.025607
v -0.190345 0.647606 -0.036213
v -0.189243 0.643351 -0.025607
v -0.195154 0.646173 -0.036213
v -0.194005 0.641931 -0.025607
v -0.199953 0.644704 -0.036213
v -0.198756 0.640476 -0.025607
v -0.204741 0.643200 -0.036213
v -0.203496 0.638985 -0.025607
v -0.209517 0.641660 -0.036213
v -0.208225 0.637460 -0.025607
v -0.214282 0.640085 -0.036213
v -0.212943 0.635900 -0.025607
v -0.219035 0.638474 -0.036213
v -0.217649 0.634304 -0.025607
v -0.223776 0.636828 -0.036213
v -0.222343 0.632674 -0.025607
v -0.228504 0.635146 -0.036213
v -0.227025 0.631009 -0.025607
v -0.231694 0.629310 -0.025607
v -0.233220 0.633430 -0.036213
v -0.236351 0.627576 -0.025607
v -0.237923 0.631679 -0.036213
v -0.240994 0.625807 -0.025607
v -0.242613 0.629892 -0.036213
v -0.245625 0.624005 -0.025607
v -0.247289 0.628071 -0.036213
v -0.250241 0.622168 -0.025607
v -0.251952 0.626215 -0.036213
v -0.254845 0.620296 -0.025607
v -0.256600 0.624325 -0.036213
v -0.259434 0.618391 -0.025607
v -0.261235 0.622400 -0.036213
v -0.264009 0.616452 -0.025607
v -0.265855 0.620440 -0.036213
v -0.268569 0.614479 -0.025607
v -0.270461 0.618447 -0.036213
v -0.273115 0.612472 -0.025607
v -0.275051 0.616419 -0.036213
v -0.277645 0.610431 -0.025607
v -0.279626 0.614357 -0.036213
v -0.282161 0.608357 -0.025607
v -0.284186 0.612261 -0.036213
v -0.286661 0.606250 -0.025607
v -0.288730 0.610131 -0.036213
v -0.291145 0.604109 -0.025607
v -0.293258 0.607968 -0.036213
v -0.295613 0.601935 -0.025607
v -0.297770 0.605770 -0.036213
f 1 2 3
f 1 4 2
f 1 5 4
f 1 6 5
f 1 7 6
f 1 8 7
f 1 9 8
f 1 10 9
f 1 11 10
f 1 12 11
f 1 13 12
f 1 14 13
f 1 15 14
f 1 16 15
f 1 17 16
f 1 18 17
f 1 19 18
f 1 20 19
f 1 21 20
f 1 22 21
f 1 23 22
f 1 24 23
f 1 25 24
f 1 26 25
f 1 27 26
f 1 28 27
f 1 29 28
f 1 30 29
f 1 31 30
f 1 32 31
f 1 33 32
f 1 34 33
f 1 35 34
f 1 36 35
f 1 37 36
f 1 38 37
f 1 39 38
f 1 40 39
f 1 41 40
f 1 42 41
f 1 43 42
f 1 44 43
f 1 45 44
f 1 46 45
f 1 47 46
f 1 48 47
f 1 49 48
f 1 50 49
f 1 51 50
f 1 52 51
f 1 53 52
f 1 54 53
f 1 55 54
f 1 56 55
f 57 58 59
f 57 59 60
f 57 60 61
f 57 61 62
f 57 62 63
f 57 63 64
f 57 64 65
f 57 65 66
f 57 66 67
f 57 67 68
f 57 68 69
f 57 69 70
f 57 70 71
f 57 71 72
f 57 72 73
f 57 73 74
f 57 74 75
f 57 75 76
f 57 76 77
f 57 77 78
f 57 78 79
f 57 79 80
f 57 80 81
f 57 81 82
f 57 82 83
f 57 83 84
f 57 84 85
f 57 85 86
f 57 86 87
f 57 87 88
f 57 88 89
f 57 89 90
f 57 90 91
f 57 91 92
f 57 92 93
f 57 93 94
f 57 94 95
f 57 95 96
f 57 96 97
f 57 97 98
f 57 98 99
f 57 99 100
f 57 100 101
f 57 101 102
f 57 102 103
f 57 103 104
f 57 104 105
f 57 105 106
f 57 106 107
f 57 107 108
f 57 108 109
f 57 109 110
f 57 110 111
f 57 111 112
f 1 113 56
f 113 114 56
f 113 115 114
f 115 116 114
f 115 117 116
f 117 118 116
f 117 119 118
f 119 120 118
f 119 121 120
f 121 122 120
f 121 123 122
f 123 124 122
f 123 125 124
f 125 126 124
f 125 127 126
f 127 128 126
f 127 129 128
f 129 130 128
f 129 131 130
f 131 132 130
f 131 133 132
f 133 134 132
f 133 135 134
f 135 136 134
f 135 137 136
f 137 138 136
f 137 139 138
f 139 140 138
f 139 141 140
f 141 142 140
f 141 143 142
f 141 144 143
f 144 145 143
f 144 146 145
f 146 147 145
f 146 148 147
f 148 149 147
f 148 150 149
f 150 151 149
f 150 152 151
f 152 153 151
f 152 154 153
f 154 155 153
f 154 156 155
f 156 157 155
f 156 158 157
f 158 159 157
f 158 160 159
f 160 161 159
f 160 162 161
f 162 163 161
f 162 164 163
f 164 165 163
f 164 166 165
f 166 167 165
f 166 168 167
f 168 169 167
f 168 170 169
f 170 171 169
f 170 172 171
f 172 112 171
f 172 57 112
