v -0.735000 0.000000 -0.012327
v -0.735000 0.000000 0.012327
v -0.734991 0.000000 0.012749
v -0.734964 0.000000 0.013170
v -0.734920 0.000000 0.013590
v -0.734858 0.000000 0.014008
v -0.734778 0.000000 0.014422
v -0.734681 0.000000 0.014833
v -0.734566 0.000000 0.015240
v -0.734435 0.000000 0.015641
v -0.734287 0.000000 0.016036
v -0.734122 0.000000 0.016425
v -0.733941 0.000000 0.016806
v -0.733743 0.000000 0.017180
v -0.733531 0.000000 0.017545
v -0.733303 0.000000 0.017900
v -0.733060 0.000000 0.018246
v -0.732803 0.000000 0.018580
v -0.732532 0.000000 0.018904
v -0.732248 0.000000 0.019216
v -0.731951 0.000000 0.019516
v -0.731641 0.000000 0.019803
v -0.731319 0.000000 0.020077
v -0.730987 0.000000 0.020337
v -0.730643 0.000000 0.020582
v -0.730290 0.000000 0.020813
v -0.729927 0.000000 0.021029
v -0.729555 0.000000 0.021229
v -0.729175 0.000000 0.021413
v -0.728788 0.000000 0.021582
v -0.728394 0.000000 0.021733
v -0.727994 0.000000 0.021868
v -0.727588 0.000000 0.021986
v -0.668938 0.000000 0.037701
v -0.669071 0.000000 0.035271
v -0.669195 0.000000 0.032841
v -0.669310 0.000000 0.030410
v -0.669416 0.000000 0.027978
v -0.669513 0.000000 0.025547
v -0.669601 0.000000 0.023115
v -0.669681 0.000000 0.020682
v -0.669751 0.000000 0.018250
v -0.669813 0.000000 0.015817
v -0.669866 0.000000 0.013384
v -0.669911 0.000000 0.010951
v -0.669946 0.000000 0.008517
v -0.669972 0.000000 0.006084
v -0.669990 0.000000 0.003650
v -0.669999 0.000000 0.001217
v -0.669999 0.000000 -0.001217
v -0.669990 0.000000 -0.003650
v -0.669972 0.000000 -0.006084
v -0.669946 0.000000 -0.008517
v -0.669911 0.000000 -0.010951
v -0.669866 0.000000 -0.013384
v -0.669813 0.000000 -0.015817
v -0.669751 0.000000 -0.018250
v -0.669681 0.000000 -0.020682
v -0.669601 0.000000 -0.023115
v -0.669513 0.000000 -0.025547
v -0.669416 0.000000 -0.027978
v -0.669310 0.000000 -0.030410
v -0.669195 0.000000 -0.032841
v -0.669071 0.000000 -0.035271
v -0.668938 0.000000 -0.037701
v -0.727588 0.000000 -0.021986
v -0.727994 0.000000 -0.021868
v -0.728394 0.000000 -0.021733
v -0.728788 0.000000 -0.021582
v -0.729175 0.000000 -0.021413
v -0.729555 0.000000 -0.021229
v -0.729927 0.000000 -0.021029
v -0.730290 0.000000 -0.020813
v -0.730643 0.000000 -0.020582
v -0.730987 0.000000 -0.020337
v -0.731319 0.000000 -0.020077
v -0.731641 0.000000 -0.019803
v -0.731951 0.000000 -0.019516
v -0.732248 0.000000 -0.019216
v -0.732532 0.000000 -0.018904
v -0.732803 0.000000 -0.018580
v -0.733060 0.000000 -0.018246
v -0.733303 0.000000 -0.017900
v -0.733531 0.000000 -0.017545
v -0.733743 0.000000 -0.017180
v -0.733941 0.000000 -0.016806
v -0.734122 0.000000 -0.016425
v -0.734287 0.000000 -0.016036
v -0.734435 0.000000 -0.015641
v -0.734566 0.000000 -0.015240
v -0.734681 0.000000 -0.014833
v -0.734778 0.000000 -0.014422
v -0.734858 0.000000 -0.014008
v -0.734920 0.000000 -0.013590
v -0.734964 0.000000 -0.013170
v -0.734991 0.000000 -0.012749
f 96 1 2
f 96 2 3
f 96 3 4
f 96 4 5
f 96 5 6
f 96 6 7
f 96 7 8
f 96 8 9
f 96 9 10
f 96 10 11
f 96 11 12
f 96 12 13
f 96 13 14
f 96 14 15
f 96 15 16
f 96 16 17
f 96 17 18
f 96 18 19
f 96 19 20
f 96 20 21
f 96 21 22
f 96 22 23
f 96 23 24
f 96 24 25
f 96 25 26
f 96 26 27
f 96 27 28
f 96 28 29
f 96 29 30
f 96 30 31
f 96 31 32
f 96 32 33
f 96 33 34
f 96 34 35
f 96 35 36
f 96 36 37
f 96 37 38
f 96 38 39
f 96 39 40
f 96 40 41
f 96 41 42
f 96 42 43
f 96 43 44
f 96 44 45
f 96 45 46
f 96 46 47
f 96 47 48
f 96 48 49
f 96 49 50
f 96 50 51
f 96 51 52
f 96 52 53
f 96 53 54
f 96 54 55
f 96 55 56
f 96 56 57
f 96 57 58
f 96 58 59
f 96 59 60
f 96 60 61
f 96 61 62
f 96 62 63
f 96 63 64
f 96 64 65
f 96 65 66
f 96 66 67
f 96 67 68
f 96 68 69
f 96 69 70
f 96 70 71
f 96 71 72
f 96 72 73
f 96 73 74
f 96 74 75
f 96 75 76
f 96 76 77
f 96 77 78
f 96 78 79
f 96 79 80
f 96 80 81
f 96 81 82
f 96 82 83
f 96 83 84
f 96 84 85
f 96 85 86
f 96 86 87
f 96 87 88
f 96 88 89
f 96 89 90
f 96 90 91
f 96 91 92
f 96 92 93
f 96 93 94
f 94 95 96
