v -0.601351 0.010000 -0.295426
v -0.602508 0.010000 -0.293060
v -0.603655 0.010000 -0.290690
v -0.604793 0.010000 -0.288315
v -0.605921 0.010000 -0.285936
v -0.607041 0.010000 -0.283552
v -0.608150 0.010000 -0.281164
v -0.609251 0.010000 -0.278771
v -0.610342 0.010000 -0.276375
v -0.611423 0.010000 -0.273974
v -0.612495 0.010000 -0.271568
v -0.601351 0.220000 -0.295426
v -0.602508 0.220000 -0.293060
v -0.603655 0.220000 -0.290690
v -0.604793 0.220000 -0.288315
v -0.605921 0.220000 -0.285936
v -0.607041 0.220000 -0.283552
v -0.608150 0.220000 -0.281164
v -0.609251 0.220000 -0.278771
v -0.610342 0.220000 -0.276375
v -0.611423 0.220000 -0.273974
v -0.612495 0.220000 -0.271568
f 1 2 13
f 1 13 12
f 2 3 14
f 2 14 13
f 3 4 15
f 3 15 14
f 4 5 16
f 4 16 15
f 5 6 17
f 5 17 16
f 6 7 18
f 6 18 17
f 7 8 19
f 7 19 18
f 8 9 20
f 8 20 19
f 9 10 21
f 9 21 20
f 10 11 22
f 10 22 21
