v -3.575000 0.000000 -5.545000
v -3.625000 0.000000 -5.545000
v -3.625000 0.000000 -6.563000
v -2.543183 0.000000 -6.563000
v -2.539958 0.000000 -6.563039
v -2.536756 0.000000 -6.563154
v -2.533576 0.000000 -6.563347
v -2.530417 0.000000 -6.563616
v -2.527278 0.000000 -6.563961
v -2.524158 0.000000 -6.564382
v -2.521057 0.000000 -6.564879
v -2.517973 0.000000 -6.565452
v -2.514906 0.000000 -6.566100
v -2.511856 0.000000 -6.566823
v -2.508821 0.000000 -6.567620
v -2.505800 0.000000 -6.568492
v -2.502797 0.000000 -6.569438
v -2.499813 0.000000 -6.570457
v -2.496851 0.000000 -6.571547
v -2.493913 0.000000 -6.572709
v -2.491002 0.000000 -6.573942
v -2.488119 0.000000 -6.575245
v -2.485268 0.000000 -6.576616
v -2.482451 0.000000 -6.578056
v -2.479670 0.000000 -6.579563
v -2.476928 0.000000 -6.581136
v -2.474227 0.000000 -6.582776
v -2.471568 0.000000 -6.584480
v -2.468953 0.000000 -6.586249
v -2.466383 0.000000 -6.588080
v -2.463858 0.000000 -6.589973
v -2.461381 0.000000 -6.591927
v -2.458953 0.000000 -6.593942
v -2.456574 0.000000 -6.596015
v -2.454245 0.000000 -6.598146
v -2.451969 0.000000 -6.600335
v -2.449747 0.000000 -6.602580
v -2.447578 0.000000 -6.604880
v -2.445466 0.000000 -6.607233
v -2.443411 0.000000 -6.609637
v -2.441414 0.000000 -6.612089
v -2.439478 0.000000 -6.614588
v -2.437602 0.000000 -6.617132
v -2.435789 0.000000 -6.619718
v -2.434039 0.000000 -6.622344
v -2.432355 0.000000 -6.625007
v -2.430737 0.000000 -6.627707
v -2.429187 0.000000 -6.630440
v -2.427706 0.000000 -6.633204
v -2.426294 0.000000 -6.636001
v -2.424951 0.000000 -6.638831
v -2.423677 0.000000 -6.641695
v -2.422473 0.000000 -6.644594
v -2.421338 0.000000 -6.647528
v -2.420273 0.000000 -6.650499
v -2.419277 0.000000 -6.653507
v -2.418350 0.000000 -6.656553
v -2.417493 0.000000 -6.659638
v -2.416706 0.000000 -6.662762
v -2.412134 0.000000 -6.678755
v -2.406008 0.000000 -6.694181
v -2.398247 0.000000 -6.708889
v -2.389003 0.000000 -6.722768
v -2.378444 0.000000 -6.735711
v -2.366739 0.000000 -6.747617
v -2.354056 0.000000 -6.758469
v -2.340558 0.000000 -6.768322
v -2.326413 0.000000 -6.777235
v -2.311776 0.000000 -6.785263
v -2.296733 0.000000 -6.792442
v -2.281331 0.000000 -6.798800
v -2.265620 0.000000 -6.804365
v -2.249647 0.000000 -6.809164
v -2.233460 0.000000 -6.813225
v -2.217108 0.000000 -6.816575
v -2.200638 0.000000 -6.819242
v -2.184092 0.000000 -6.821254
v -2.167489 0.000000 -6.822645
v -2.150846 0.000000 -6.823447
v -2.134180 0.000000 -6.823695
v -2.117509 0.000000 -6.823421
v -2.100848 0.000000 -6.822659
v -2.084214 0.000000 -6.821443
v -2.067624 0.000000 -6.819805
v -2.051085 0.000000 -6.817782
v -2.034594 0.000000 -6.815412
v -2.018148 0.000000 -6.812734
v -2.001742 0.000000 -6.809785
v -1.985375 0.000000 -6.806606
v -1.969042 0.000000 -6.803233
v -1.952742 0.000000 -6.799705
v -1.936469 0.000000 -6.796062
v -1.920216 0.000000 -6.792345
v -1.903975 0.000000 -6.788596
v -1.887737 0.000000 -6.784857
v -1.871492 0.000000 -6.781171
v -1.855233 0.000000 -6.777580
v -1.838951 0.000000 -6.774126
v -1.822637 0.000000 -6.770852
v -1.806286 0.000000 -6.767780
v -1.789900 0.000000 -6.764893
v -1.773482 0.000000 -6.762171
v -1.757036 0.000000 -6.759592
v -1.740565 0.000000 -6.757133
v -1.724072 0.000000 -6.754772
v -1.707560 0.000000 -6.752482
v -1.691033 0.000000 -6.750240
v -1.674494 0.000000 -6.748034
v -1.657944 0.000000 -6.745862
v -1.641386 0.000000 -6.743721
v -1.624821 0.000000 -6.741634
v -1.608242 0.000000 -6.739800
v -1.591638 0.000000 -6.738496
v -1.575000 0.000000 -6.738000
v 0.875000 0.000000 -6.738000
v 0.882850 0.000000 -6.737979
v 0.890700 0.000000 -6.737918
v 0.898549 0.000000 -6.737815
v 0.906398 0.000000 -6.737671
v 0.914246 0.000000 -6.737486
v 0.922093 0.000000 -6.737261
v 0.929938 0.000000 -6.736994
v 0.937782 0.000000 -6.736686
v 0.945625 0.000000 -6.736336
v 0.953465 0.000000 -6.735946
v 0.961303 0.000000 -6.735515
v 0.969139 0.000000 -6.735043
v 0.976972 0.000000 -6.734530
v 0.984803 0.000000 -6.733976
v 0.992630 0.000000 -6.733381
v 1.000455 0.000000 -6.732745
v 1.008275 0.000000 -6.732067
v 1.016093 0.000000 -6.731350
v 1.023906 0.000000 -6.730591
v 1.031715 0.000000 -6.729791
v 1.039520 0.000000 -6.728950
v 1.047321 0.000000 -6.728069
v 1.055116 0.000000 -6.727147
v 1.062907 0.000000 -6.726184
v 1.070693 0.000000 -6.725180
v 1.078473 0.000000 -6.724136
v 1.086248 0.000000 -6.723050
v 1.094017 0.000000 -6.721924
v 1.101779 0.000000 -6.720758
v 1.109536 0.000000 -6.719551
v 1.117286 0.000000 -6.718303
v 1.125030 0.000000 -6.717015
v 1.132767 0.000000 -6.715686
v 1.140497 0.000000 -6.714317
v 1.148219 0.000000 -6.712907
v 1.155934 0.000000 -6.711457
v 1.163641 0.000000 -6.709967
v 1.171341 0.000000 -6.708436
v 1.179032 0.000000 -6.706865
v 1.185085 0.000000 -6.709332
v 1.191239 0.000000 -6.711532
v 1.197483 0.000000 -6.713463
v 1.203806 0.000000 -6.715119
v 1.210195 0.000000 -6.716499
v 1.216637 0.000000 -6.717599
v 1.223122 0.000000 -6.718417
v 1.229636 0.000000 -6.718952
v 1.236167 0.000000 -6.719203
v 1.242703 0.000000 -6.719169
v 1.249231 0.000000 -6.718850
v 1.255739 0.000000 -6.718247
v 1.262215 0.000000 -6.717361
v 1.268646 0.000000 -6.716194
v 1.275020 0.000000 -6.714748
v 1.281325 0.000000 -6.713026
v 1.287549 0.000000 -6.711031
v 1.293680 0.000000 -6.708766
v 1.299706 0.000000 -6.706237
v 1.305617 0.000000 -6.703447
v 1.311401 0.000000 -6.700402
v 1.317046 0.000000 -6.697109
v 1.322543 0.000000 -6.693572
v 1.327880 0.000000 -6.689800
v 1.333048 0.000000 -6.685799
v 1.338037 0.000000 -6.681576
v 1.342837 0.000000 -6.677140
v 1.347439 0.000000 -6.672499
v 1.351835 0.000000 -6.667662
v 1.356015 0.000000 -6.662638
v 1.359973 0.000000 -6.657437
v 1.365727 0.000000 -6.655458
v 1.371473 0.000000 -6.653456
v 1.377211 0.000000 -6.651430
v 1.382940 0.000000 -6.649381
v 1.388662 0.000000 -6.647309
v 1.394374 0.000000 -6.645214
v 1.400078 0.000000 -6.643095
v 1.405774 0.000000 -6.640954
v 1.411460 0.000000 -6.638789
v 1.417138 0.000000 -6.636601
v 1.422807 0.000000 -6.634391
v 1.428467 0.000000 -6.632157
v 1.434118 0.000000 -6.629900
v 1.439760 0.000000 -6.627621
v 1.445392 0.000000 -6.625319
v 1.451015 0.000000 -6.622993
v 1.456629 0.000000 -6.620645
v 1.462233 0.000000 -6.618275
v 1.467827 0.000000 -6.615881
v 1.473411 0.000000 -6.613465
v 1.478986 0.000000 -6.611026
v 1.484551 0.000000 -6.608565
v 1.490105 0.000000 -6.606081
v 1.495650 0.000000 -6.603574
v 1.501184 0.000000 -6.601046
v 1.506708 0.000000 -6.598494
v 1.512222 0.000000 -6.595920
v 1.517725 0.000000 -6.593324
v 1.523218 0.000000 -6.590706
v 1.528700 0.000000 -6.588065
v 1.534171 0.000000 -6.585403
v 1.539631 0.000000 -6.582718
v 1.545081 0.000000 -6.580010
v 1.550519 0.000000 -6.577281
v 1.555946 0.000000 -6.574530
v 1.561362 0.000000 -6.571757
v 1.566767 0.000000 -6.568961
v 1.572160 0.000000 -6.566144
v 1.577542 0.000000 -6.563305
v 1.584043 0.000000 -6.563982
v 1.590567 0.000000 -6.564374
v 1.597102 0.000000 -6.564482
v 1.603636 0.000000 -6.564305
v 1.610156 0.000000 -6.563843
v 1.616649 0.000000 -6.563098
v 1.623104 0.000000 -6.562071
v 1.629508 0.000000 -6.560764
v 1.635848 0.000000 -6.559179
v 1.642114 0.000000 -6.557319
v 1.648293 0.000000 -6.555188
v 1.654373 0.000000 -6.552790
v 1.660343 0.000000 -6.550129
v 1.666191 0.000000 -6.547211
v 1.671907 0.000000 -6.544040
v 1.677479 0.000000 -6.540624
v 1.682897 0.000000 -6.536968
v 1.688150 0.000000 -6.533080
v 1.693230 0.000000 -6.528967
v 1.698125 0.000000 -6.524636
v 1.702827 0.000000 -6.520096
v 1.707326 0.000000 -6.515355
v 1.711615 0.000000 -6.510423
v 1.715685 0.000000 -6.505309
v 1.719528 0.000000 -6.500023
v 1.723138 0.000000 -6.494574
v 1.726506 0.000000 -6.488972
v 1.729627 0.000000 -6.483230
v 1.732496 0.000000 -6.477357
v 1.735105 0.000000 -6.471365
v 1.737451 0.000000 -6.465264
v 1.742423 0.000000 -6.461756
v 1.747380 0.000000 -6.458227
v 1.752322 0.000000 -6.454678
v 1.757251 0.000000 -6.451109
v 1.762164 0.000000 -6.447520
v 1.767064 0.000000 -6.443912
v 1.771948 0.000000 -6.440283
v 1.776818 0.000000 -6.436635
v 1.781673 0.000000 -6.432967
v 1.786512 0.000000 -6.429279
v 1.791337 0.000000 -6.425571
v 1.796147 0.000000 -6.421844
v 1.800942 0.000000 -6.418098
v 1.805721 0.000000 -6.414332
v 1.810486 0.000000 -6.410547
v 1.815234 0.000000 -6.406743
v 1.819968 0.000000 -6.402919
v 1.824685 0.000000 -6.399076
v 1.829387 0.000000 -6.395214
v 1.834074 0.000000 -6.391333
v 1.838744 0.000000 -6.387433
v 1.843399 0.000000 -6.383514
v 1.848038 0.000000 -6.379577
v 1.852661 0.000000 -6.375620
v 1.857268 0.000000 -6.371645
v 1.861858 0.000000 -6.367651
v 1.866432 0.000000 -6.363638
v 1.870990 0.000000 -6.359607
v 1.875532 0.000000 -6.355558
v 1.880057 0.000000 -6.351490
v 1.884566 0.000000 -6.347404
v 1.889058 0.000000 -6.343299
v 1.893533 0.000000 -6.339177
v 1.897992 0.000000 -6.335036
v 1.902433 0.000000 -6.330877
v 1.906858 0.000000 -6.326700
v 1.911266 0.000000 -6.322506
v 1.915657 0.000000 -6.318293
v 1.920030 0.000000 -6.314063
v 1.926461 0.000000 -6.312895
v 1.932835 0.000000 -6.311448
v 1.939140 0.000000 -6.309724
v 1.945363 0.000000 -6.307728
v 1.951494 0.000000 -6.305462
v 1.957520 0.000000 -6.302932
v 1.963430 0.000000 -6.300141
v 1.969213 0.000000 -6.297095
v 1.974858 0.000000 -6.293801
v 1.980354 0.000000 -6.290263
v 1.985691 0.000000 -6.286490
v 1.990858 0.000000 -6.282488
v 1.995846 0.000000 -6.278264
v 2.000645 0.000000 -6.273827
v 2.005247 0.000000 -6.269186
v 2.009642 0.000000 -6.264348
v 2.013822 0.000000 -6.259323
v 2.017779 0.000000 -6.254121
v 2.021505 0.000000 -6.248752
v 2.024995 0.000000 -6.243225
v 2.028240 0.000000 -6.237552
v 2.031235 0.000000 -6.231743
v 2.033974 0.000000 -6.225808
v 2.036452 0.000000 -6.219760
v 2.038664 0.000000 -6.213610
v 2.040606 0.000000 -6.207369
v 2.042275 0.000000 -6.201050
v 2.043666 0.000000 -6.194664
v 2.044778 0.000000 -6.188223
v 2.045608 0.000000 -6.181740
v 2.046156 0.000000 -6.175227
v 2.049948 0.000000 -6.170469
v 2.053721 0.000000 -6.165695
v 2.057474 0.000000 -6.160906
v 2.061208 0.000000 -6.156101
v 2.064923 0.000000 -6.151282
v 2.068618 0.000000 -6.146447
v 2.072293 0.000000 -6.141598
v 2.075949 0.000000 -6.136734
v 2.079584 0.000000 -6.131855
v 2.083201 0.000000 -6.126961
v 2.086797 0.000000 -6.122053
v 2.090373 0.000000 -6.117130
v 2.093929 0.000000 -6.112192
v 2.097465 0.000000 -6.107240
v 2.100981 0.000000 -6.102274
v 2.104477 0.000000 -6.097294
v 2.107953 0.000000 -6.092300
v 2.111408 0.000000 -6.087291
v 2.114843 0.000000 -6.082269
v 2.118258 0.000000 -6.077232
v 2.121652 0.000000 -6.072182
v 2.125025 0.000000 -6.067118
v 2.128378 0.000000 -6.062040
v 2.131711 0.000000 -6.056949
v 2.135022 0.000000 -6.051845
v 2.138313 0.000000 -6.046727
v 2.141584 0.000000 -6.041595
v 2.144833 0.000000 -6.036451
v 2.148062 0.000000 -6.031293
v 2.151269 0.000000 -6.026123
v 2.154456 0.000000 -6.020939
v 2.157621 0.000000 -6.015742
v 2.160765 0.000000 -6.010533
v 2.163889 0.000000 -6.005311
v 2.166991 0.000000 -6.000076
v 2.170071 0.000000 -5.994829
v 2.173131 0.000000 -5.989569
v 2.176169 0.000000 -5.984297
v 2.179186 0.000000 -5.979013
v 2.185033 0.000000 -5.976094
v 2.190748 0.000000 -5.972922
v 2.196320 0.000000 -5.969505
v 2.201737 0.000000 -5.965848
v 2.206990 0.000000 -5.961959
v 2.212069 0.000000 -5.957845
v 2.216963 0.000000 -5.953513
v 2.221664 0.000000 -5.948972
v 2.226163 0.000000 -5.944231
v 2.230451 0.000000 -5.939298
v 2.234520 0.000000 -5.934184
v 2.238362 0.000000 -5.928896
v 2.241971 0.000000 -5.923447
v 2.245338 0.000000 -5.917845
v 2.248458 0.000000 -5.912102
v 2.251326 0.000000 -5.906229
v 2.253934 0.000000 -5.900236
v 2.256279 0.000000 -5.894135
v 2.258356 0.000000 -5.887938
v 2.260162 0.000000 -5.881656
v 2.261691 0.000000 -5.875302
v 2.262943 0.000000 -5.868887
v 2.263914 0.000000 -5.862423
v 2.264602 0.000000 -5.855924
v 2.265007 0.000000 -5.849400
v 2.265127 0.000000 -5.842865
v 2.264962 0.000000 -5.836332
v 2.264513 0.000000 -5.829811
v 2.263780 0.000000 -5.823316
v 2.262765 0.000000 -5.816860
v 2.261469 0.000000 -5.810453
v 2.263780 0.000000 -5.804824
v 2.266068 0.000000 -5.799186
v 2.268333 0.000000 -5.793539
v 2.270575 0.000000 -5.787882
v 2.272794 0.000000 -5.782216
v 2.274990 0.000000 -5.776542
v 2.277163 0.000000 -5.770858
v 2.279313 0.000000 -5.765166
v 2.281440 0.000000 -5.759465
v 2.283544 0.000000 -5.753755
v 2.285625 0.000000 -5.748037
v 2.287682 0.000000 -5.742311
v 2.289716 0.000000 -5.736576
v 2.291727 0.000000 -5.730833
v 2.293714 0.000000 -5.725082
v 2.295679 0.000000 -5.719323
v 2.297619 0.000000 -5.713556
v 2.299537 0.000000 -5.707782
v 2.301431 0.000000 -5.701999
v 2.303301 0.000000 -5.696209
v 2.305148 0.000000 -5.690411
v 2.306972 0.000000 -5.684606
v 2.308772 0.000000 -5.678794
v 2.310548 0.000000 -5.672974
v 2.312301 0.000000 -5.667147
v 2.314030 0.000000 -5.661313
v 2.315735 0.000000 -5.655472
v 2.317417 0.000000 -5.649624
v 2.319074 0.000000 -5.643770
v 2.320709 0.000000 -5.637909
v 2.322319 0.000000 -5.632041
v 2.323905 0.000000 -5.626166
v 2.325468 0.000000 -5.620286
v 2.327007 0.000000 -5.614399
v 2.328522 0.000000 -5.608506
v 2.330013 0.000000 -5.602606
v 2.331480 0.000000 -5.596701
v 2.332923 0.000000 -5.590790
v 2.334342 0.000000 -5.584873
v 2.339141 0.000000 -5.580435
v 2.343741 0.000000 -5.575793
v 2.348135 0.000000 -5.570954
v 2.352314 0.000000 -5.565929
v 2.356270 0.000000 -5.560726
v 2.359996 0.000000 -5.555356
v 2.363485 0.000000 -5.549829
v 2.366729 0.000000 -5.544155
v 2.369723 0.000000 -5.538345
v 2.372461 0.000000 -5.532410
v 2.374938 0.000000 -5.526362
v 2.377149 0.000000 -5.520211
v 2.379090 0.000000 -5.513970
v 2.380757 0.000000 -5.507650
v 2.382148 0.000000 -5.501264
v 2.383258 0.000000 -5.494823
v 2.384088 0.000000 -5.488340
v 2.384634 0.000000 -5.481827
v 2.384896 0.000000 -5.475296
v 2.384873 0.000000 -5.468760
v 2.384565 0.000000 -5.462232
v 2.383973 0.000000 -5.455723
v 2.383098 0.000000 -5.449245
v 2.381942 0.000000 -5.442813
v 2.380507 0.000000 -5.436436
v 2.378796 0.000000 -5.430128
v 2.376811 0.000000 -5.423901
v 2.374557 0.000000 -5.417766
v 2.372037 0.000000 -5.411735
v 2.369258 0.000000 -5.405820
v 2.366223 0.000000 -5.400031
v 2.366667 0.000000 -5.395892
v 2.367099 0.000000 -5.391752
v 2.367520 0.000000 -5.387610
v 2.367930 0.000000 -5.383468
v 2.368328 0.000000 -5.379324
v 2.368714 0.000000 -5.375179
v 2.369089 0.000000 -5.371033
v 2.369452 0.000000 -5.366886
v 2.369804 0.000000 -5.362739
v 2.370145 0.000000 -5.358590
v 2.370474 0.000000 -5.354440
v 2.370791 0.000000 -5.350289
v 2.371097 0.000000 -5.346138
v 2.371391 0.000000 -5.341986
v 2.371674 0.000000 -5.337832
v 2.371945 0.000000 -5.333679
v 2.372205 0.000000 -5.329524
v 2.372453 0.000000 -5.325369
v 2.372690 0.000000 -5.321212
v 2.372915 0.000000 -5.317056
v 2.373129 0.000000 -5.312899
v 2.373331 0.000000 -5.308741
v 2.373522 0.000000 -5.304582
v 2.373701 0.000000 -5.300423
v 2.373868 0.000000 -5.296264
v 2.374024 0.000000 -5.292104
v 2.374168 0.000000 -5.287944
v 2.374301 0.000000 -5.283783
v 2.374422 0.000000 -5.279622
v 2.374532 0.000000 -5.275461
v 2.374630 0.000000 -5.271299
v 2.374717 0.000000 -5.267137
v 2.374792 0.000000 -5.262975
v 2.374856 0.000000 -5.258813
v 2.374908 0.000000 -5.254651
v 2.374948 0.000000 -5.250488
v 2.374977 0.000000 -5.246325
v 2.374994 0.000000 -5.242163
v 2.375000 0.000000 -5.238000
v 2.375000 0.000000 -4.664620
v 2.374960 0.000000 -4.661805
v 2.374841 0.000000 -4.658993
v 2.374643 0.000000 -4.656186
v 2.374366 0.000000 -4.653385
v 2.374011 0.000000 -4.650592
v 2.373577 0.000000 -4.647811
v 2.373065 0.000000 -4.645044
v 2.372475 0.000000 -4.642292
v 2.371808 0.000000 -4.639557
v 2.371064 0.000000 -4.636842
v 2.370244 0.000000 -4.634150
v 2.369349 0.000000 -4.631481
v 2.368379 0.000000 -4.628839
v 2.367335 0.000000 -4.626225
v 2.366218 0.000000 -4.623642
v 2.365029 0.000000 -4.621091
v 2.363768 0.000000 -4.618574
v 2.362437 0.000000 -4.616094
v 2.361037 0.000000 -4.613653
v 2.359568 0.000000 -4.611251
v 2.358033 0.000000 -4.608892
v 2.356431 0.000000 -4.606578
v 2.354765 0.000000 -4.604309
v 2.353037 0.000000 -4.602088
v 2.351246 0.000000 -4.599916
v 2.349395 0.000000 -4.597796
v 2.347484 0.000000 -4.595729
v 2.345517 0.000000 -4.593716
v 2.343493 0.000000 -4.591760
v 2.341416 0.000000 -4.589861
v 2.339286 0.000000 -4.588021
v 2.318562 0.000000 -4.570942
v 2.297536 0.000000 -4.554237
v 2.276214 0.000000 -4.537911
v 2.254603 0.000000 -4.521970
v 2.232710 0.000000 -4.506418
v 2.210543 0.000000 -4.491260
v 2.188108 0.000000 -4.476502
v 2.165412 0.000000 -4.462147
v 2.142462 0.000000 -4.448201
v 2.119267 0.000000 -4.434669
v 2.095833 0.000000 -4.421553
v 2.072168 0.000000 -4.408860
v 2.048280 0.000000 -4.396592
v 2.024176 0.000000 -4.384753
v 1.999864 0.000000 -4.373348
v 1.975351 0.000000 -4.362381
v 1.950646 0.000000 -4.351853
v 1.925757 0.000000 -4.341770
v 1.900691 0.000000 -4.332134
v 1.875456 0.000000 -4.322948
v 1.850062 0.000000 -4.314215
v 1.824514 0.000000 -4.305939
v 1.798823 0.000000 -4.298121
v 1.772996 0.000000 -4.290764
v 1.747042 0.000000 -4.283871
v 1.720968 0.000000 -4.277443
v 1.694783 0.000000 -4.271483
v 1.668496 0.000000 -4.265994
v 1.642115 0.000000 -4.260975
v 1.615648 0.000000 -4.256430
v 1.589104 0.000000 -4.252359
v 1.562491 0.000000 -4.248764
v 1.535819 0.000000 -4.245646
v 1.509094 0.000000 -4.243006
v 1.482327 0.000000 -4.240845
v 1.455525 0.000000 -4.239163
v 1.428698 0.000000 -4.237961
v 1.401853 0.000000 -4.237240
v 1.375000 0.000000 -4.237000
v 0.825423 0.000000 -4.237000
v 0.805600 0.000000 -4.236404
v 0.785850 0.000000 -4.234619
v 0.766242 0.000000 -4.231650
v 0.746848 0.000000 -4.227509
v 0.727738 0.000000 -4.222211
v 0.708981 0.000000 -4.215774
v 0.690644 0.000000 -4.208222
v 0.672794 0.000000 -4.199582
v 0.655495 0.000000 -4.189886
v 0.638809 0.000000 -4.179168
v 0.622798 0.000000 -4.167468
v 0.607518 0.000000 -4.154826
v 0.593026 0.000000 -4.141290
v 0.579372 0.000000 -4.126907
v 0.566607 0.000000 -4.111731
v 0.554777 0.000000 -4.095815
v 0.543924 0.000000 -4.079217
v 0.534088 0.000000 -4.061997
v 0.525304 0.000000 -4.044218
v 0.517603 0.000000 -4.025943
v 0.511015 0.000000 -4.007238
v 0.505561 0.000000 -3.988172
v 0.501263 0.000000 -3.968812
v 0.498136 0.000000 -3.949229
v 0.496190 0.000000 -3.929494
v 0.495433 0.000000 -3.909677
v 0.495868 0.000000 -3.889851
v 0.497494 0.000000 -3.870086
v 0.500303 0.000000 -3.850455
v 0.504287 0.000000 -3.831028
v 0.509424 0.000000 -3.811874
v 0.526145 0.000000 -3.756204
v 0.542783 0.000000 -3.700533
v 0.559328 0.000000 -3.644863
v 0.575769 0.000000 -3.589193
v 0.592097 0.000000 -3.533523
v 0.608301 0.000000 -3.477852
v 0.624370 0.000000 -3.422182
v 0.640294 0.000000 -3.366512
v 0.656062 0.000000 -3.310842
v 0.671664 0.000000 -3.255172
v 0.687089 0.000000 -3.199502
v 0.702327 0.000000 -3.143832
v 0.717368 0.000000 -3.088162
v 0.732200 0.000000 -3.032492
v 0.746814 0.000000 -2.976821
v 0.761199 0.000000 -2.921151
v 0.775344 0.000000 -2.865481
v 0.789240 0.000000 -2.809810
v 0.802878 0.000000 -2.754140
v 0.816247 0.000000 -2.698469
v 0.829339 0.000000 -2.642799
v 0.842143 0.000000 -2.587128
v 0.854651 0.000000 -2.531457
v 0.866853 0.000000 -2.475787
v 0.878740 0.000000 -2.420116
v 0.890302 0.000000 -2.364446
v 0.901534 0.000000 -2.308775
v 0.912430 0.000000 -2.253105
v 0.922987 0.000000 -2.197434
v 0.933200 0.000000 -2.141763
v 0.943064 0.000000 -2.086093
v 0.952575 0.000000 -2.030422
v 0.961728 0.000000 -1.974752
v 0.970518 0.000000 -1.919081
v 0.978941 0.000000 -1.863411
v 0.986993 0.000000 -1.807740
v 0.994668 0.000000 -1.752070
v 1.001964 0.000000 -1.696399
v 1.008876 0.000000 -1.640729
v 1.015401 0.000000 -1.585058
v 1.021533 0.000000 -1.529388
v 1.027270 0.000000 -1.473717
v 1.032607 0.000000 -1.418047
v 1.037540 0.000000 -1.362376
v 1.042065 0.000000 -1.306705
v 1.046179 0.000000 -1.251035
v 1.049876 0.000000 -1.195364
v 1.053154 0.000000 -1.139694
v 1.056007 0.000000 -1.084023
v 1.058433 0.000000 -1.028353
v 1.060426 0.000000 -0.972682
v 1.061984 0.000000 -0.917012
v 1.063101 0.000000 -0.861341
v 1.063775 0.000000 -0.805671
v 1.064000 0.000000 -0.750000
v 1.064000 0.000000 -0.500000
v 1.064006 0.000000 -0.498077
v 1.064023 0.000000 -0.496155
v 1.064051 0.000000 -0.494234
v 1.064090 0.000000 -0.492315
v 1.064141 0.000000 -0.490397
v 1.064203 0.000000 -0.488481
v 1.064277 0.000000 -0.486565
v 1.064361 0.000000 -0.484651
v 1.064457 0.000000 -0.482738
v 1.064565 0.000000 -0.480826
v 1.064683 0.000000 -0.478915
v 1.064813 0.000000 -0.477006
v 1.064954 0.000000 -0.475097
v 1.065107 0.000000 -0.473189
v 1.065270 0.000000 -0.471282
v 1.065445 0.000000 -0.469376
v 1.065632 0.000000 -0.467470
v 1.065829 0.000000 -0.465566
v 1.066038 0.000000 -0.463662
v 1.066258 0.000000 -0.461759
v 1.066490 0.000000 -0.459857
v 1.066732 0.000000 -0.457956
v 1.066986 0.000000 -0.456057
v 1.067251 0.000000 -0.454158
v 1.067527 0.000000 -0.452261
v 1.067814 0.000000 -0.450366
v 1.068113 0.000000 -0.448472
v 1.068422 0.000000 -0.446580
v 1.068743 0.000000 -0.444689
v 1.069075 0.000000 -0.442801
v 1.069418 0.000000 -0.440915
v 1.069771 0.000000 -0.439031
v 1.070136 0.000000 -0.437149
v 1.070512 0.000000 -0.435270
v 1.070899 0.000000 -0.433394
v 1.071297 0.000000 -0.431520
v 1.071706 0.000000 -0.429649
v 1.072125 0.000000 -0.427781
v 1.072556 0.000000 -0.425915
v 1.072997 0.000000 -0.424053
v 1.073450 0.000000 -0.422193
v 1.073914 0.000000 -0.420336
v 1.074388 0.000000 -0.418482
v 1.074874 0.000000 -0.416630
v 1.075370 0.000000 -0.414781
v 1.075878 0.000000 -0.412935
v 1.076396 0.000000 -0.411091
v 1.076926 0.000000 -0.409249
v 1.077467 0.000000 -0.407411
v 1.078019 0.000000 -0.405574
v 1.078582 0.000000 -0.403740
v 1.079156 0.000000 -0.401908
v 1.079741 0.000000 -0.400079
v 1.080338 0.000000 -0.398252
v 1.080945 0.000000 -0.396427
v 1.179766 0.000000 -0.102506
v 1.635819 0.000000 0.212688
v 1.649704 0.000000 0.223149
v 1.662687 0.000000 0.234710
v 1.674683 0.000000 0.247294
v 1.685609 0.000000 0.260816
v 1.695393 0.000000 0.275186
v 1.703971 0.000000 0.290308
v 1.711283 0.000000 0.306080
v 1.717282 0.000000 0.322397
v 1.721926 0.000000 0.339150
v 1.725186 0.000000 0.356226
v 1.727039 0.000000 0.373512
v 1.727473 0.000000 0.390891
v 1.726485 0.000000 0.408248
v 1.724081 0.000000 0.425466
v 1.720278 0.000000 0.442429
v 1.715101 0.000000 0.459025
v 1.708585 0.000000 0.475143
v 1.700773 0.000000 0.490673
v 1.691717 0.000000 0.505514
v 1.681479 0.000000 0.519564
v 1.670127 0.000000 0.532730
v 1.657736 0.000000 0.544925
v 1.644390 0.000000 0.556066
v 1.630179 0.000000 0.566078
v 1.615196 0.000000 0.574895
v 1.599542 0.000000 0.582459
v 1.583323 0.000000 0.588717
v 1.566646 0.000000 0.593628
v 1.549624 0.000000 0.597160
v 1.532370 0.000000 0.599289
v 1.515000 0.000000 0.600000
v 1.324913 0.000000 0.600000
v 1.325517 0.000000 0.588946
v 1.325990 0.000000 0.577884
v 1.326331 0.000000 0.566818
v 1.326542 0.000000 0.555748
v 1.326622 0.000000 0.544675
v 1.326571 0.000000 0.533602
v 1.326389 0.000000 0.522529
v 1.326078 0.000000 0.511459
v 1.325636 0.000000 0.500393
v 1.325064 0.000000 0.489333
v 1.324362 0.000000 0.478280
v 1.323530 0.000000 0.467235
v 1.322569 0.000000 0.456200
v 1.321479 0.000000 0.445178
v 1.320259 0.000000 0.434168
v 1.318909 0.000000 0.423174
v 1.317431 0.000000 0.412196
v 1.315824 0.000000 0.401236
v 1.314089 0.000000 0.390296
v 1.312225 0.000000 0.379376
v 1.310232 0.000000 0.368480
v 1.308111 0.000000 0.357607
v 1.305862 0.000000 0.346761
v 1.303485 0.000000 0.335941
v 1.300981 0.000000 0.325151
v 1.298349 0.000000 0.314391
v 1.295589 0.000000 0.303663
v 1.292702 0.000000 0.292969
v 1.289688 0.000000 0.282309
v 1.286548 0.000000 0.271687
v 1.283282 0.000000 0.261102
v 1.279891 0.000000 0.250556
v 1.276377 0.000000 0.240051
v 1.272738 0.000000 0.229588
v 1.268977 0.000000 0.219169
v 1.265093 0.000000 0.208795
v 1.261087 0.000000 0.198467
v 1.256961 0.000000 0.188188
v 1.252714 0.000000 0.177957
v 1.248348 0.000000 0.167777
v 1.243862 0.000000 0.157649
v 1.239258 0.000000 0.147575
v 1.234536 0.000000 0.137556
v 1.229697 0.000000 0.127593
v 1.224741 0.000000 0.117688
v 1.219670 0.000000 0.107842
v 1.214483 0.000000 0.098057
v 1.209182 0.000000 0.088334
v 1.203767 0.000000 0.078675
v 1.198239 0.000000 0.069080
v 1.192598 0.000000 0.059552
v 1.186845 0.000000 0.050092
v 1.180981 0.000000 0.040701
v 1.175006 0.000000 0.031380
v 1.168921 0.000000 0.022132
v 1.033552 0.000000 -0.380493
v 1.032854 0.000000 -0.382591
v 1.032167 0.000000 -0.384694
v 1.031494 0.000000 -0.386800
v 1.030832 0.000000 -0.388911
v 1.030184 0.000000 -0.391025
v 1.029547 0.000000 -0.393143
v 1.028923 0.000000 -0.395265
v 1.028312 0.000000 -0.397390
v 1.027713 0.000000 -0.399519
v 1.027127 0.000000 -0.401651
v 1.026553 0.000000 -0.403787
v 1.025992 0.000000 -0.405926
v 1.025444 0.000000 -0.408068
v 1.024908 0.000000 -0.410214
v 1.024385 0.000000 -0.412363
v 1.023874 0.000000 -0.414514
v 1.023377 0.000000 -0.416669
v 1.022892 0.000000 -0.418826
v 1.022419 0.000000 -0.420987
v 1.021960 0.000000 -0.423150
v 1.021513 0.000000 -0.425315
v 1.021079 0.000000 -0.427484
v 1.020657 0.000000 -0.429654
v 1.020249 0.000000 -0.431828
v 1.019853 0.000000 -0.434003
v 1.019471 0.000000 -0.436181
v 1.019101 0.000000 -0.438361
v 1.018744 0.000000 -0.440543
v 1.018399 0.000000 -0.442728
v 1.018068 0.000000 -0.444914
v 1.017750 0.000000 -0.447102
v 1.017444 0.000000 -0.449292
v 1.017152 0.000000 -0.451484
v 1.016872 0.000000 -0.453678
v 1.016606 0.000000 -0.455873
v 1.016352 0.000000 -0.458070
v 1.016111 0.000000 -0.460268
v 1.015884 0.000000 -0.462467
v 1.015669 0.000000 -0.464668
v 1.015467 0.000000 -0.466870
v 1.015278 0.000000 -0.469074
v 1.015102 0.000000 -0.471278
v 1.014939 0.000000 -0.473484
v 1.014789 0.000000 -0.475690
v 1.014653 0.000000 -0.477897
v 1.014529 0.000000 -0.480105
v 1.014418 0.000000 -0.482314
v 1.014320 0.000000 -0.484523
v 1.014235 0.000000 -0.486733
v 1.014163 0.000000 -0.488943
v 1.014105 0.000000 -0.491154
v 1.014059 0.000000 -0.493365
v 1.014026 0.000000 -0.495577
v 1.014007 0.000000 -0.497788
v 1.014000 0.000000 -0.500000
v 1.014000 0.000000 -0.750000
v 1.013776 0.000000 -0.805267
v 1.013108 0.000000 -0.860537
v 1.011998 0.000000 -0.915811
v 1.010451 0.000000 -0.971089
v 1.008472 0.000000 -1.026372
v 1.006063 0.000000 -1.081658
v 1.003229 0.000000 -1.136948
v 0.999973 0.000000 -1.192242
v 0.996301 0.000000 -1.247540
v 0.992214 0.000000 -1.302842
v 0.987719 0.000000 -1.358149
v 0.982818 0.000000 -1.413459
v 0.977515 0.000000 -1.468774
v 0.971814 0.000000 -1.524092
v 0.965720 0.000000 -1.579415
v 0.959236 0.000000 -1.634742
v 0.952366 0.000000 -1.690074
v 0.945114 0.000000 -1.745409
v 0.937484 0.000000 -1.800749
v 0.929480 0.000000 -1.856094
v 0.921105 0.000000 -1.911442
v 0.912365 0.000000 -1.966795
v 0.903264 0.000000 -2.022153
v 0.893806 0.000000 -2.077516
v 0.883995 0.000000 -2.132884
v 0.873837 0.000000 -2.188258
v 0.863335 0.000000 -2.243638
v 0.852494 0.000000 -2.299024
v 0.841318 0.000000 -2.354416
v 0.829813 0.000000 -2.409814
v 0.817983 0.000000 -2.465220
v 0.805837 0.000000 -2.520632
v 0.793385 0.000000 -2.576052
v 0.780637 0.000000 -2.631480
v 0.767600 0.000000 -2.686915
v 0.754286 0.000000 -2.742359
v 0.740702 0.000000 -2.797811
v 0.726858 0.000000 -2.853272
v 0.712763 0.000000 -2.908742
v 0.698428 0.000000 -2.964221
v 0.683862 0.000000 -3.019708
v 0.669075 0.000000 -3.075205
v 0.654079 0.000000 -3.130711
v 0.638884 0.000000 -3.186226
v 0.623499 0.000000 -3.241750
v 0.607936 0.000000 -3.297283
v 0.592205 0.000000 -3.352825
v 0.576316 0.000000 -3.408375
v 0.560280 0.000000 -3.463934
v 0.544106 0.000000 -3.519502
v 0.527806 0.000000 -3.575078
v 0.511391 0.000000 -3.630663
v 0.494869 0.000000 -3.686257
v 0.478252 0.000000 -3.741859
v 0.461550 0.000000 -3.797470
v 0.455628 0.000000 -3.819524
v 0.451041 0.000000 -3.841894
v 0.447807 0.000000 -3.864500
v 0.445936 0.000000 -3.887258
v 0.445435 0.000000 -3.910088
v 0.446307 0.000000 -3.932907
v 0.448547 0.000000 -3.955633
v 0.452149 0.000000 -3.978182
v 0.457099 0.000000 -4.000475
v 0.463379 0.000000 -4.022430
v 0.470966 0.000000 -4.043969
v 0.479833 0.000000 -4.065012
v 0.489948 0.000000 -4.085485
v 0.501275 0.000000 -4.105314
v 0.513772 0.000000 -4.124426
v 0.527395 0.000000 -4.142753
v 0.542094 0.000000 -4.160229
v 0.557816 0.000000 -4.176790
v 0.574505 0.000000 -4.192377
v 0.592099 0.000000 -4.206934
v 0.610537 0.000000 -4.220407
v 0.629750 0.000000 -4.232749
v 0.649670 0.000000 -4.243914
v 0.670224 0.000000 -4.253862
v 0.691339 0.000000 -4.262558
v 0.712939 0.000000 -4.269970
v 0.734944 0.000000 -4.276071
v 0.757276 0.000000 -4.280840
v 0.779854 0.000000 -4.284258
v 0.802597 0.000000 -4.286314
v 0.825423 0.000000 -4.287000
v 1.375000 0.000000 -4.287000
v 1.400958 0.000000 -4.287232
v 1.426908 0.000000 -4.287929
v 1.452841 0.000000 -4.289091
v 1.478749 0.000000 -4.290716
v 1.504624 0.000000 -4.292806
v 1.530458 0.000000 -4.295358
v 1.556242 0.000000 -4.298372
v 1.581967 0.000000 -4.301847
v 1.607626 0.000000 -4.305782
v 1.633211 0.000000 -4.310176
v 1.658713 0.000000 -4.315027
v 1.684124 0.000000 -4.320334
v 1.709436 0.000000 -4.326095
v 1.734640 0.000000 -4.332308
v 1.759730 0.000000 -4.338972
v 1.784696 0.000000 -4.346083
v 1.809531 0.000000 -4.353641
v 1.834226 0.000000 -4.361641
v 1.858775 0.000000 -4.370083
v 1.883168 0.000000 -4.378963
v 1.907398 0.000000 -4.388278
v 1.931458 0.000000 -4.398025
v 1.955339 0.000000 -4.408201
v 1.979035 0.000000 -4.418803
v 2.002537 0.000000 -4.429828
v 2.025837 0.000000 -4.441272
v 2.048929 0.000000 -4.453131
v 2.071805 0.000000 -4.465402
v 2.094458 0.000000 -4.478080
v 2.116880 0.000000 -4.491161
v 2.139064 0.000000 -4.504642
v 2.161004 0.000000 -4.518518
v 2.182691 0.000000 -4.532785
v 2.204120 0.000000 -4.547437
v 2.225283 0.000000 -4.562471
v 2.246173 0.000000 -4.577881
v 2.266785 0.000000 -4.593663
v 2.287110 0.000000 -4.609811
v 2.307143 0.000000 -4.626320
v 2.308208 0.000000 -4.627240
v 2.309247 0.000000 -4.628190
v 2.310258 0.000000 -4.629168
v 2.311242 0.000000 -4.630174
v 2.312197 0.000000 -4.631208
v 2.313123 0.000000 -4.632268
v 2.314018 0.000000 -4.633354
v 2.314883 0.000000 -4.634464
v 2.315715 0.000000 -4.635599
v 2.316516 0.000000 -4.636756
v 2.317284 0.000000 -4.637936
v 2.318018 0.000000 -4.639136
v 2.318718 0.000000 -4.640357
v 2.319384 0.000000 -4.641597
v 2.320014 0.000000 -4.642855
v 2.320609 0.000000 -4.644131
v 2.321167 0.000000 -4.645422
v 2.321689 0.000000 -4.646729
v 2.322174 0.000000 -4.648051
v 2.322622 0.000000 -4.649385
v 2.323032 0.000000 -4.650731
v 2.323404 0.000000 -4.652088
v 2.323737 0.000000 -4.653456
v 2.324032 0.000000 -4.654832
v 2.324288 0.000000 -4.656216
v 2.324505 0.000000 -4.657606
v 2.324683 0.000000 -4.659002
v 2.324821 0.000000 -4.660403
v 2.324920 0.000000 -4.661806
v 2.324980 0.000000 -4.663213
v 2.325000 0.000000 -4.664620
v 2.325000 0.000000 -5.238000
v 2.324993 0.000000 -5.242473
v 2.324972 0.000000 -5.246946
v 2.324938 0.000000 -5.251419
v 2.324890 0.000000 -5.255891
v 2.324828 0.000000 -5.260364
v 2.324752 0.000000 -5.264836
v 2.324662 0.000000 -5.269308
v 2.324558 0.000000 -5.273780
v 2.324441 0.000000 -5.278251
v 2.324310 0.000000 -5.282722
v 2.324165 0.000000 -5.287193
v 2.324007 0.000000 -5.291663
v 2.323834 0.000000 -5.296132
v 2.323648 0.000000 -5.300601
v 2.323448 0.000000 -5.305070
v 2.323234 0.000000 -5.309538
v 2.323007 0.000000 -5.314005
v 2.322765 0.000000 -5.318471
v 2.322510 0.000000 -5.322937
v 2.322241 0.000000 -5.327402
v 2.321959 0.000000 -5.331866
v 2.321662 0.000000 -5.336329
v 2.321352 0.000000 -5.340791
v 2.321028 0.000000 -5.345252
v 2.320690 0.000000 -5.349712
v 2.320339 0.000000 -5.354171
v 2.319974 0.000000 -5.358629
v 2.319595 0.000000 -5.363086
v 2.319202 0.000000 -5.367542
v 2.318795 0.000000 -5.371996
v 2.318375 0.000000 -5.376449
v 2.317941 0.000000 -5.380901
v 2.317494 0.000000 -5.385351
v 2.317032 0.000000 -5.389801
v 2.316557 0.000000 -5.394248
v 2.316068 0.000000 -5.398694
v 2.315566 0.000000 -5.403139
v 2.315049 0.000000 -5.407582
v 2.314519 0.000000 -5.412023
v 2.317612 0.000000 -5.416322
v 2.320473 0.000000 -5.420779
v 2.323094 0.000000 -5.425380
v 2.325468 0.000000 -5.430115
v 2.327588 0.000000 -5.434968
v 2.329448 0.000000 -5.439926
v 2.331043 0.000000 -5.444976
v 2.332368 0.000000 -5.450104
v 2.333420 0.000000 -5.455294
v 2.334195 0.000000 -5.460533
v 2.334693 0.000000 -5.465805
v 2.334910 0.000000 -5.471097
v 2.334847 0.000000 -5.476392
v 2.334504 0.000000 -5.481677
v 2.333881 0.000000 -5.486936
v 2.332981 0.000000 -5.492155
v 2.331806 0.000000 -5.497319
v 2.330359 0.000000 -5.502413
v 2.328644 0.000000 -5.507424
v 2.326667 0.000000 -5.512337
v 2.324432 0.000000 -5.517138
v 2.321947 0.000000 -5.521814
v 2.319217 0.000000 -5.526352
v 2.316250 0.000000 -5.530739
v 2.313056 0.000000 -5.534963
v 2.309643 0.000000 -5.539012
v 2.306020 0.000000 -5.542875
v 2.302197 0.000000 -5.546540
v 2.298186 0.000000 -5.549998
v 2.293997 0.000000 -5.553239
v 2.289643 0.000000 -5.556253
v 2.288139 0.000000 -5.562864
v 2.286605 0.000000 -5.569468
v 2.285040 0.000000 -5.576065
v 2.283444 0.000000 -5.582654
v 2.281817 0.000000 -5.589236
v 2.280159 0.000000 -5.595810
v 2.278471 0.000000 -5.602376
v 2.276752 0.000000 -5.608934
v 2.275002 0.000000 -5.615484
v 2.273222 0.000000 -5.622026
v 2.271411 0.000000 -5.628559
v 2.269569 0.000000 -5.635084
v 2.267698 0.000000 -5.641601
v 2.265795 0.000000 -5.648108
v 2.263862 0.000000 -5.654607
v 2.261899 0.000000 -5.661096
v 2.259906 0.000000 -5.667576
v 2.257882 0.000000 -5.674047
v 2.255828 0.000000 -5.680508
v 2.253744 0.000000 -5.686959
v 2.251630 0.000000 -5.693401
v 2.249486 0.000000 -5.699833
v 2.247311 0.000000 -5.706254
v 2.245107 0.000000 -5.712666
v 2.242872 0.000000 -5.719067
v 2.240608 0.000000 -5.725457
v 2.238314 0.000000 -5.731837
v 2.235990 0.000000 -5.738206
v 2.233636 0.000000 -5.744564
v 2.231253 0.000000 -5.750911
v 2.228840 0.000000 -5.757247
v 2.226397 0.000000 -5.763572
v 2.223925 0.000000 -5.769885
v 2.221423 0.000000 -5.776186
v 2.218892 0.000000 -5.782475
v 2.216332 0.000000 -5.788753
v 2.213742 0.000000 -5.795019
v 2.211123 0.000000 -5.801272
v 2.208475 0.000000 -5.807513
v 2.210242 0.000000 -5.812505
v 2.211743 0.000000 -5.817584
v 2.212974 0.000000 -5.822735
v 2.213929 0.000000 -5.827944
v 2.214608 0.000000 -5.833196
v 2.215007 0.000000 -5.838477
v 2.215127 0.000000 -5.843772
v 2.214966 0.000000 -5.849065
v 2.214525 0.000000 -5.854343
v 2.213805 0.000000 -5.859589
v 2.212808 0.000000 -5.864791
v 2.211538 0.000000 -5.869932
v 2.209997 0.000000 -5.874999
v 2.208190 0.000000 -5.879977
v 2.206122 0.000000 -5.884852
v 2.203799 0.000000 -5.889611
v 2.201227 0.000000 -5.894241
v 2.198414 0.000000 -5.898727
v 2.195367 0.000000 -5.903059
v 2.192095 0.000000 -5.907223
v 2.188607 0.000000 -5.911208
v 2.184913 0.000000 -5.915003
v 2.181023 0.000000 -5.918597
v 2.176949 0.000000 -5.921980
v 2.172701 0.000000 -5.925143
v 2.168292 0.000000 -5.928076
v 2.163733 0.000000 -5.930772
v 2.159038 0.000000 -5.933222
v 2.154220 0.000000 -5.935421
v 2.149293 0.000000 -5.937362
v 2.144270 0.000000 -5.939038
v 2.140978 0.000000 -5.944965
v 2.137658 0.000000 -5.950877
v 2.134311 0.000000 -5.956773
v 2.130937 0.000000 -5.962653
v 2.127535 0.000000 -5.968518
v 2.124106 0.000000 -5.974366
v 2.120649 0.000000 -5.980199
v 2.117165 0.000000 -5.986015
v 2.113654 0.000000 -5.991815
v 2.110116 0.000000 -5.997598
v 2.106551 0.000000 -6.003365
v 2.102958 0.000000 -6.009115
v 2.099340 0.000000 -6.014848
v 2.095694 0.000000 -6.020564
v 2.092022 0.000000 -6.026263
v 2.088323 0.000000 -6.031945
v 2.084597 0.000000 -6.037609
v 2.080845 0.000000 -6.043256
v 2.077067 0.000000 -6.048886
v 2.073262 0.000000 -6.054497
v 2.069431 0.000000 -6.060091
v 2.065574 0.000000 -6.065667
v 2.061692 0.000000 -6.071225
v 2.057783 0.000000 -6.076764
v 2.053848 0.000000 -6.082285
v 2.049887 0.000000 -6.087788
v 2.045901 0.000000 -6.093272
v 2.041889 0.000000 -6.098738
v 2.037852 0.000000 -6.104184
v 2.033789 0.000000 -6.109612
v 2.029701 0.000000 -6.115020
v 2.025588 0.000000 -6.120410
v 2.021450 0.000000 -6.125780
v 2.017286 0.000000 -6.131131
v 2.013098 0.000000 -6.136462
v 2.008884 0.000000 -6.141774
v 2.004646 0.000000 -6.147065
v 2.000383 0.000000 -6.152337
v 1.996096 0.000000 -6.157589
v 1.996397 0.000000 -6.162877
v 1.996419 0.000000 -6.168172
v 1.996160 0.000000 -6.173462
v 1.995621 0.000000 -6.178730
v 1.994805 0.000000 -6.183963
v 1.993712 0.000000 -6.189145
v 1.992346 0.000000 -6.194262
v 1.990712 0.000000 -6.199299
v 1.988813 0.000000 -6.204243
v 1.986655 0.000000 -6.209079
v 1.984244 0.000000 -6.213794
v 1.981587 0.000000 -6.218375
v 1.978691 0.000000 -6.222809
v 1.975565 0.000000 -6.227084
v 1.972216 0.000000 -6.231187
v 1.968655 0.000000 -6.235106
v 1.964892 0.000000 -6.238832
v 1.960936 0.000000 -6.242354
v 1.956800 0.000000 -6.245661
v 1.952494 0.000000 -6.248744
v 1.948031 0.000000 -6.251595
v 1.943424 0.000000 -6.254206
v 1.938685 0.000000 -6.256570
v 1.933827 0.000000 -6.258679
v 1.928864 0.000000 -6.260528
v 1.923811 0.000000 -6.262111
v 1.918680 0.000000 -6.263425
v 1.913488 0.000000 -6.264466
v 1.908247 0.000000 -6.265230
v 1.902974 0.000000 -6.265715
v 1.897682 0.000000 -6.265921
v 1.892864 0.000000 -6.270692
v 1.888025 0.000000 -6.275440
v 1.883163 0.000000 -6.280165
v 1.878279 0.000000 -6.284867
v 1.873373 0.000000 -6.289547
v 1.868446 0.000000 -6.294204
v 1.863496 0.000000 -6.298837
v 1.858525 0.000000 -6.303447
v 1.853533 0.000000 -6.308034
v 1.848519 0.000000 -6.312598
v 1.843484 0.000000 -6.317138
v 1.838427 0.000000 -6.321655
v 1.833350 0.000000 -6.326148
v 1.828252 0.000000 -6.330617
v 1.823133 0.000000 -6.335062
v 1.817993 0.000000 -6.339483
v 1.812832 0.000000 -6.343880
v 1.807651 0.000000 -6.348253
v 1.802450 0.000000 -6.352602
v 1.797228 0.000000 -6.356926
v 1.791986 0.000000 -6.361226
v 1.786724 0.000000 -6.365501
v 1.781443 0.000000 -6.369752
v 1.776141 0.000000 -6.373978
v 1.770820 0.000000 -6.378179
v 1.765479 0.000000 -6.382355
v 1.760118 0.000000 -6.386506
v 1.754739 0.000000 -6.390632
v 1.749340 0.000000 -6.394733
v 1.743921 0.000000 -6.398808
v 1.738484 0.000000 -6.402858
v 1.733028 0.000000 -6.406883
v 1.727554 0.000000 -6.410882
v 1.722060 0.000000 -6.414855
v 1.716548 0.000000 -6.418803
v 1.711018 0.000000 -6.422725
v 1.705470 0.000000 -6.426621
v 1.699903 0.000000 -6.430491
v 1.694318 0.000000 -6.434335
v 1.693130 0.000000 -6.439496
v 1.691670 0.000000 -6.444587
v 1.689943 0.000000 -6.449593
v 1.687953 0.000000 -6.454501
v 1.685706 0.000000 -6.459296
v 1.683208 0.000000 -6.463966
v 1.680466 0.000000 -6.468497
v 1.677489 0.000000 -6.472877
v 1.674284 0.000000 -6.477093
v 1.670860 0.000000 -6.481133
v 1.667227 0.000000 -6.484986
v 1.663395 0.000000 -6.488642
v 1.659375 0.000000 -6.492089
v 1.655178 0.000000 -6.495319
v 1.650816 0.000000 -6.498322
v 1.646301 0.000000 -6.501090
v 1.641646 0.000000 -6.503616
v 1.636864 0.000000 -6.505891
v 1.631968 0.000000 -6.507910
v 1.626972 0.000000 -6.509666
v 1.621890 0.000000 -6.511156
v 1.616736 0.000000 -6.512375
v 1.611525 0.000000 -6.513319
v 1.606272 0.000000 -6.513986
v 1.600990 0.000000 -6.514374
v 1.595695 0.000000 -6.514482
v 1.590402 0.000000 -6.514309
v 1.585126 0.000000 -6.513857
v 1.579881 0.000000 -6.513125
v 1.574681 0.000000 -6.512117
v 1.569543 0.000000 -6.510835
v 1.563584 0.000000 -6.514069
v 1.557610 0.000000 -6.517275
v 1.551621 0.000000 -6.520452
v 1.545617 0.000000 -6.523602
v 1.539599 0.000000 -6.526723
v 1.533566 0.000000 -6.529817
v 1.527519 0.000000 -6.532882
v 1.521457 0.000000 -6.535919
v 1.515381 0.000000 -6.538927
v 1.509292 0.000000 -6.541907
v 1.503188 0.000000 -6.544859
v 1.497071 0.000000 -6.547782
v 1.490940 0.000000 -6.550676
v 1.484795 0.000000 -6.553542
v 1.478638 0.000000 -6.556378
v 1.472467 0.000000 -6.559186
v 1.466283 0.000000 -6.561966
v 1.460086 0.000000 -6.564716
v 1.453876 0.000000 -6.567437
v 1.447654 0.000000 -6.570129
v 1.441419 0.000000 -6.572792
v 1.435171 0.000000 -6.575426
v 1.428912 0.000000 -6.578030
v 1.422640 0.000000 -6.580606
v 1.416357 0.000000 -6.583152
v 1.410061 0.000000 -6.585668
v 1.403754 0.000000 -6.588155
v 1.397435 0.000000 -6.590613
v 1.391105 0.000000 -6.593041
v 1.384764 0.000000 -6.595439
v 1.378411 0.000000 -6.597808
v 1.372048 0.000000 -6.600147
v 1.365673 0.000000 -6.602456
v 1.359288 0.000000 -6.604735
v 1.352893 0.000000 -6.606985
v 1.346486 0.000000 -6.609204
v 1.340070 0.000000 -6.611394
v 1.333643 0.000000 -6.613553
v 1.327207 0.000000 -6.615683
v 1.324623 0.000000 -6.620305
v 1.321798 0.000000 -6.624785
v 1.318740 0.000000 -6.629109
v 1.315457 0.000000 -6.633264
v 1.311959 0.000000 -6.637241
v 1.308256 0.000000 -6.641026
v 1.304357 0.000000 -6.644610
v 1.300274 0.000000 -6.647983
v 1.296018 0.000000 -6.651134
v 1.291601 0.000000 -6.654056
v 1.287036 0.000000 -6.656740
v 1.282335 0.000000 -6.659179
v 1.277511 0.000000 -6.661365
v 1.272578 0.000000 -6.663293
v 1.267551 0.000000 -6.664957
v 1.262442 0.000000 -6.666353
v 1.257267 0.000000 -6.667476
v 1.252039 0.000000 -6.668324
v 1.246774 0.000000 -6.668893
v 1.241486 0.000000 -6.669183
v 1.236190 0.000000 -6.669193
v 1.230901 0.000000 -6.668922
v 1.225634 0.000000 -6.668372
v 1.220403 0.000000 -6.667544
v 1.215224 0.000000 -6.666440
v 1.210110 0.000000 -6.665063
v 1.205076 0.000000 -6.663418
v 1.200137 0.000000 -6.661508
v 1.195305 0.000000 -6.659339
v 1.190595 0.000000 -6.656918
v 1.186020 0.000000 -6.654251
v 1.178165 0.000000 -6.655953
v 1.170301 0.000000 -6.657612
v 1.162427 0.000000 -6.659227
v 1.154545 0.000000 -6.660798
v 1.146654 0.000000 -6.662326
v 1.138755 0.000000 -6.663810
v 1.130848 0.000000 -6.665250
v 1.122933 0.000000 -6.666646
v 1.115010 0.000000 -6.667998
v 1.107080 0.000000 -6.669307
v 1.099143 0.000000 -6.670571
v 1.091199 0.000000 -6.671792
v 1.083248 0.000000 -6.672968
v 1.075291 0.000000 -6.674100
v 1.067327 0.000000 -6.675188
v 1.059358 0.000000 -6.676232
v 1.051383 0.000000 -6.677232
v 1.043403 0.000000 -6.678188
v 1.035417 0.000000 -6.679099
v 1.027427 0.000000 -6.679966
v 1.019432 0.000000 -6.680789
v 1.011432 0.000000 -6.681567
v 1.003429 0.000000 -6.682301
v 0.995421 0.000000 -6.682991
v 0.987410 0.000000 -6.683636
v 0.979395 0.000000 -6.684237
v 0.971377 0.000000 -6.684794
v 0.963356 0.000000 -6.685306
v 0.955332 0.000000 -6.685773
v 0.947306 0.000000 -6.686196
v 0.939278 0.000000 -6.686575
v 0.931247 0.000000 -6.686909
v 0.923215 0.000000 -6.687198
v 0.915181 0.000000 -6.687443
v 0.907147 0.000000 -6.687644
v 0.899111 0.000000 -6.687800
v 0.891074 0.000000 -6.687911
v 0.883037 0.000000 -6.687978
v 0.875000 0.000000 -6.688000
v -1.575000 0.000000 -6.688000
v -1.591519 0.000000 -6.688446
v -1.608477 0.000000 -6.689656
v -1.625907 0.000000 -6.691439
v -1.643843 0.000000 -6.693604
v -1.662317 0.000000 -6.695962
v -1.681312 0.000000 -6.698415
v -1.700746 0.000000 -6.700973
v -1.720534 0.000000 -6.703655
v -1.740591 0.000000 -6.706482
v -1.760831 0.000000 -6.709472
v -1.781176 0.000000 -6.712651
v -1.801549 0.000000 -6.716048
v -1.821872 0.000000 -6.719692
v -1.842069 0.000000 -6.723612
v -1.862079 0.000000 -6.727798
v -1.881873 0.000000 -6.732168
v -1.901424 0.000000 -6.736631
v -1.920708 0.000000 -6.741096
v -1.939699 0.000000 -6.745475
v -1.958383 0.000000 -6.749699
v -1.976753 0.000000 -6.753717
v -1.994801 0.000000 -6.757473
v -2.012520 0.000000 -6.760915
v -2.029903 0.000000 -6.763996
v -2.046948 0.000000 -6.766691
v -2.063652 0.000000 -6.768976
v -2.080012 0.000000 -6.770831
v -2.096026 0.000000 -6.772234
v -2.111686 0.000000 -6.773173
v -2.126978 0.000000 -6.773649
v -2.141890 0.000000 -6.773662
v -2.156407 0.000000 -6.773211
v -2.170518 0.000000 -6.772297
v -2.184225 0.000000 -6.770931
v -2.197536 0.000000 -6.769123
v -2.210455 0.000000 -6.766883
v -2.222989 0.000000 -6.764223
v -2.235139 0.000000 -6.761156
v -2.246897 0.000000 -6.757701
v -2.258253 0.000000 -6.753874
v -2.269199 0.000000 -6.749695
v -2.279725 0.000000 -6.745177
v -2.289829 0.000000 -6.740306
v -2.299510 0.000000 -6.735052
v -2.308768 0.000000 -6.729385
v -2.317601 0.000000 -6.723274
v -2.325984 0.000000 -6.716708
v -2.333832 0.000000 -6.709717
v -2.341050 0.000000 -6.702337
v -2.347544 0.000000 -6.694606
v -2.353223 0.000000 -6.686558
v -2.358070 0.000000 -6.678204
v -2.362127 0.000000 -6.669536
v -2.365436 0.000000 -6.660543
v -2.368040 0.000000 -6.651217
v -2.369120 0.000000 -6.646919
v -2.370293 0.000000 -6.642673
v -2.371562 0.000000 -6.638478
v -2.372927 0.000000 -6.634333
v -2.374388 0.000000 -6.630235
v -2.375948 0.000000 -6.626183
v -2.377606 0.000000 -6.622176
v -2.379363 0.000000 -6.618211
v -2.381221 0.000000 -6.614288
v -2.383180 0.000000 -6.610405
v -2.385241 0.000000 -6.606560
v -2.387405 0.000000 -6.602752
v -2.389667 0.000000 -6.598985
v -2.392026 0.000000 -6.595264
v -2.394476 0.000000 -6.591593
v -2.397016 0.000000 -6.587977
v -2.399641 0.000000 -6.584420
v -2.402347 0.000000 -6.580928
v -2.405131 0.000000 -6.577504
v -2.407990 0.000000 -6.574153
v -2.410921 0.000000 -6.570880
v -2.413918 0.000000 -6.567690
v -2.416980 0.000000 -6.564585
v -2.420107 0.000000 -6.561567
v -2.423299 0.000000 -6.558636
v -2.426557 0.000000 -6.555790
v -2.429880 0.000000 -6.553029
v -2.433270 0.000000 -6.550353
v -2.436728 0.000000 -6.547762
v -2.440253 0.000000 -6.545255
v -2.443846 0.000000 -6.542831
v -2.447508 0.000000 -6.540491
v -2.451239 0.000000 -6.538233
v -2.455040 0.000000 -6.536059
v -2.458905 0.000000 -6.533969
v -2.462829 0.000000 -6.531966
v -2.466807 0.000000 -6.530053
v -2.470834 0.000000 -6.528231
v -2.474904 0.000000 -6.526504
v -2.479012 0.000000 -6.524873
v -2.483153 0.000000 -6.523342
v -2.487322 0.000000 -6.521912
v -2.491513 0.000000 -6.520585
v -2.495721 0.000000 -6.519365
v -2.499942 0.000000 -6.518253
v -2.504177 0.000000 -6.517249
v -2.508426 0.000000 -6.516352
v -2.512693 0.000000 -6.515563
v -2.516978 0.000000 -6.514880
v -2.521284 0.000000 -6.514304
v -2.525612 0.000000 -6.513833
v -2.529964 0.000000 -6.513468
v -2.534342 0.000000 -6.513208
v -2.538748 0.000000 -6.513052
v -2.543183 0.000000 -6.513000
v -3.575000 0.000000 -6.513000
v 1.620000 0.000000 0.387500
v 1.619461 0.000000 0.376877
v 1.617851 0.000000 0.366364
v 1.615185 0.000000 0.356067
v 1.611491 0.000000 0.346093
v 1.606806 0.000000 0.336543
v 1.601180 0.000000 0.327517
v 1.594670 0.000000 0.319106
v 1.587342 0.000000 0.311397
v 1.579271 0.000000 0.304469
v 1.570541 0.000000 0.298392
v 1.561241 0.000000 0.293231
v 1.551467 0.000000 0.289036
v 1.541319 0.000000 0.285852
v 1.530900 0.000000 0.283711
v 1.520318 0.000000 0.282635
v 1.509682 0.000000 0.282635
v 1.499100 0.000000 0.283711
v 1.488681 0.000000 0.285852
v 1.478533 0.000000 0.289036
v 1.468759 0.000000 0.293231
v 1.459459 0.000000 0.298392
v 1.450729 0.000000 0.304469
v 1.442658 0.000000 0.311397
v 1.435330 0.000000 0.319106
v 1.428820 0.000000 0.327517
v 1.423194 0.000000 0.336543
v 1.418509 0.000000 0.346093
v 1.414815 0.000000 0.356067
v 1.412149 0.000000 0.366364
v 1.410539 0.000000 0.376877
v 1.410000 0.000000 0.387500
v 1.410539 0.000000 0.398123
v 1.412149 0.000000 0.408636
v 1.414815 0.000000 0.418933
v 1.418509 0.000000 0.428907
v 1.423194 0.000000 0.438457
v 1.428820 0.000000 0.447483
v 1.435330 0.000000 0.455894
v 1.442658 0.000000 0.463603
v 1.450729 0.000000 0.470531
v 1.459459 0.000000 0.476608
v 1.468759 0.000000 0.481769
v 1.478533 0.000000 0.485964
v 1.488681 0.000000 0.489148
v 1.499100 0.000000 0.491289
v 1.509682 0.000000 0.492365
v 1.520318 0.000000 0.492365
v 1.530900 0.000000 0.491289
v 1.541319 0.000000 0.489148
v 1.551467 0.000000 0.485964
v 1.561241 0.000000 0.481769
v 1.570541 0.000000 0.476608
v 1.579271 0.000000 0.470531
v 1.587342 0.000000 0.463603
v 1.594670 0.000000 0.455894
v 1.601180 0.000000 0.447483
v 1.606806 0.000000 0.438457
v 1.611491 0.000000 0.428907
v 1.615185 0.000000 0.418933
v 1.617851 0.000000 0.408636
v 1.619461 0.000000 0.398123
f 1523 2 1
f 58 60 59
f 60 62 61
f 62 64 63
f 64 66 65
f 66 68 67
f 68 70 69
f 70 72 71
f 72 74 73
f 74 76 75
f 76 78 77
f 78 80 79
f 80 82 81
f 82 84 83
f 84 86 85
f 86 88 87
f 88 90 89
f 90 92 91
f 92 94 93
f 114 116 115
f 116 118 117
f 118 120 119
f 120 122 121
f 122 124 123
f 124 126 125
f 126 128 127
f 128 130 129
f 130 132 131
f 132 134 133
f 134 136 135
f 136 138 137
f 138 140 139
f 140 142 141
f 142 144 143
f 144 146 145
f 146 148 147
f 148 150 149
f 150 152 151
f 152 154 153
f 154 156 155
f 156 158 157
f 158 160 159
f 160 162 161
f 162 164 163
f 164 166 165
f 166 168 167
f 168 170 169
f 170 172 171
f 172 174 173
f 174 176 175
f 176 178 177
f 178 180 179
f 180 182 181
f 182 184 183
f 185 187 186
f 187 189 188
f 189 191 190
f 191 193 192
f 193 195 194
f 195 197 196
f 197 199 198
f 199 201 200
f 201 203 202
f 203 205 204
f 205 207 206
f 207 209 208
f 209 211 210
f 211 213 212
f 213 215 214
f 215 217 216
f 217 219 218
f 219 221 220
f 221 223 222
f 224 226 225
f 226 228 227
f 228 230 229
f 230 232 231
f 232 234 233
f 234 236 235
f 236 238 237
f 238 240 239
f 240 242 241
f 242 244 243
f 244 246 245
f 246 248 247
f 248 250 249
f 250 252 251
f 252 254 253
f 255 257 256
f 257 259 258
f 259 261 260
f 261 263 262
f 263 265 264
f 265 267 266
f 267 269 268
f 269 271 270
f 271 273 272
f 273 275 274
f 275 277 276
f 277 279 278
f 279 281 280
f 281 283 282
f 283 285 284
f 285 287 286
f 287 289 288
f 289 291 290
f 291 293 292
f 294 296 295
f 296 298 297
f 298 300 299
f 300 302 301
f 302 304 303
f 304 306 305
f 306 308 307
f 308 310 309
f 310 312 311
f 312 314 313
f 314 316 315
f 316 318 317
f 318 320 319
f 320 322 321
f 322 324 323
f 325 327 326
f 327 329 328
f 329 331 330
f 331 333 332
f 333 335 334
f 335 337 336
f 337 339 338
f 339 341 340
f 341 343 342
f 343 345 344
f 345 347 346
f 347 349 348
f 349 351 350
f 351 353 352
f 353 355 354
f 355 357 356
f 357 359 358
f 359 361 360
f 361 363 362
f 364 366 365
f 366 368 367
f 368 370 369
f 370 372 371
f 372 374 373
f 374 376 375
f 376 378 377
f 378 380 379
f 380 382 381
f 382 384 383
f 384 386 385
f 386 388 387
f 388 390 389
f 390 392 391
f 392 394 393
f 395 397 396
f 397 399 398
f 399 401 400
f 401 403 402
f 403 405 404
f 405 407 406
f 407 409 408
f 409 411 410
f 411 413 412
f 413 415 414
f 415 417 416
f 417 419 418
f 419 421 420
f 421 423 422
f 423 425 424
f 425 427 426
f 427 429 428
f 429 431 430
f 431 433 432
f 434 436 435
f 436 438 437
f 438 440 439
f 440 442 441
f 442 444 443
f 444 446 445
f 446 448 447
f 448 450 449
f 450 452 451
f 452 454 453
f 454 456 455
f 456 458 457
f 458 460 459
f 460 462 461
f 462 464 463
f 465 467 466
f 467 469 468
f 469 471 470
f 471 473 472
f 473 475 474
f 475 477 476
f 477 479 478
f 479 481 480
f 481 483 482
f 483 485 484
f 485 487 486
f 487 489 488
f 489 491 490
f 491 493 492
f 493 495 494
f 495 497 496
f 497 499 498
f 499 501 500
f 501 503 502
f 503 505 504
f 505 507 506
f 507 509 508
f 509 511 510
f 511 513 512
f 513 515 514
f 515 517 516
f 517 519 518
f 519 521 520
f 521 523 522
f 523 525 524
f 525 527 526
f 527 529 528
f 529 531 530
f 531 533 532
f 533 535 534
f 535 537 536
f 537 539 538
f 539 541 540
f 541 543 542
f 543 545 544
f 545 547 546
f 547 549 548
f 549 551 550
f 551 553 552
f 553 555 554
f 555 557 556
f 557 559 558
f 559 561 560
f 561 563 562
f 563 565 564
f 565 567 566
f 567 569 568
f 569 571 570
f 571 573 572
f 573 575 574
f 607 609 608
f 609 611 610
f 611 613 612
f 613 615 614
f 615 617 616
f 617 619 618
f 619 621 620
f 621 623 622
f 623 625 624
f 625 627 626
f 627 629 628
f 629 631 630
f 631 633 632
f 633 635 634
f 635 637 636
f 637 639 638
f 639 641 640
f 641 643 642
f 643 645 644
f 645 647 646
f 647 649 648
f 649 651 650
f 651 653 652
f 653 655 654
f 655 657 656
f 657 659 658
f 659 661 660
f 661 663 662
f 719 721 720
f 721 723 722
f 723 725 724
f 725 727 726
f 727 729 728
f 729 731 730
f 731 733 732
f 733 735 734
f 735 737 736
f 737 739 738
f 739 741 740
f 741 743 742
f 743 745 744
f 745 747 746
f 747 749 748
f 749 751 750
f 751 753 752
f 771 1555 772
f 1554 772 1555
f 806 808 807
f 808 810 809
f 810 812 811
f 812 814 813
f 814 816 815
f 816 818 817
f 818 820 819
f 820 822 821
f 822 824 823
f 824 826 825
f 826 828 827
f 828 830 829
f 830 832 831
f 832 834 833
f 834 836 835
f 836 838 837
f 838 840 839
f 840 842 841
f 842 844 843
f 844 846 845
f 846 848 847
f 848 850 849
f 850 852 851
f 852 854 853
f 854 856 855
f 856 858 857
f 858 860 859
f 860 862 861
f 862 864 863
f 918 920 919
f 920 922 921
f 922 924 923
f 924 926 925
f 926 928 927
f 928 930 929
f 930 932 931
f 932 934 933
f 934 936 935
f 936 938 937
f 938 940 939
f 940 942 941
f 942 944 943
f 944 946 945
f 946 948 947
f 948 950 949
f 1060 1062 1061
f 1091 1093 1092
f 1130 1132 1131
f 1161 1163 1162
f 1200 1202 1201
f 1231 1233 1232
f 1270 1272 1271
f 1301 1303 1302
f 1340 1342 1341
f 1371 1373 1372
f 1411 1413 1412
f 1413 1415 1414
f 1415 1417 1416
f 1417 1419 1418
f 1419 1421 1420
f 1421 1423 1422
f 1423 1425 1424
f 1425 1427 1426
f 1427 1429 1428
f 1467 1469 1468
f 1469 1471 1470
f 1471 1473 1472
f 1473 1475 1474
f 1475 1477 1476
f 1477 1479 1478
f 1479 1481 1480
f 1481 1483 1482
f 1483 1485 1484
f 1485 1487 1486
f 1487 1489 1488
f 1489 1491 1490
f 1491 1493 1492
f 1493 1495 1494
f 1495 1497 1496
f 1497 1499 1498
f 1499 1501 1500
f 1501 1503 1502
f 1503 1505 1504
f 1505 1507 1506
f 1507 1509 1508
f 1509 1511 1510
f 1511 1513 1512
f 1513 1515 1514
f 1515 1517 1516
f 1517 1519 1518
f 1519 1521 1520
f 1521 1523 1522
f 1523 3 2
f 57 60 58
f 60 64 62
f 64 68 66
f 68 72 70
f 72 76 74
f 76 80 78
f 80 84 82
f 84 88 86
f 88 92 90
f 92 95 94
f 114 118 116
f 118 122 120
f 122 126 124
f 126 130 128
f 130 134 132
f 134 138 136
f 138 142 140
f 142 146 144
f 146 150 148
f 150 154 152
f 154 158 156
f 158 162 160
f 162 166 164
f 166 170 168
f 170 174 172
f 174 178 176
f 178 182 180
f 182 185 184
f 185 189 187
f 189 193 191
f 193 197 195
f 197 201 199
f 201 205 203
f 205 209 207
f 209 213 211
f 213 217 215
f 217 221 219
f 221 224 223
f 224 228 226
f 228 232 230
f 232 236 234
f 236 240 238
f 240 244 242
f 244 248 246
f 248 252 250
f 252 255 254
f 255 259 257
f 259 263 261
f 263 267 265
f 267 271 269
f 271 275 273
f 275 279 277
f 279 283 281
f 283 287 285
f 287 291 289
f 291 294 293
f 294 298 296
f 298 302 300
f 302 306 304
f 306 310 308
f 310 314 312
f 314 318 316
f 318 322 320
f 322 325 324
f 325 329 327
f 329 333 331
f 333 337 335
f 337 341 339
f 341 345 343
f 345 349 347
f 349 353 351
f 353 357 355
f 357 361 359
f 361 364 363
f 364 368 366
f 368 372 370
f 372 376 374
f 376 380 378
f 380 384 382
f 384 388 386
f 388 392 390
f 392 395 394
f 395 399 397
f 399 403 401
f 403 407 405
f 407 411 409
f 411 415 413
f 415 419 417
f 419 423 421
f 423 427 425
f 427 431 429
f 431 434 433
f 434 438 436
f 438 442 440
f 442 446 444
f 446 450 448
f 450 454 452
f 454 458 456
f 458 462 460
f 462 465 464
f 465 469 467
f 469 473 471
f 473 477 475
f 477 481 479
f 481 485 483
f 485 489 487
f 489 493 491
f 493 497 495
f 497 501 499
f 501 505 503
f 505 509 507
f 509 513 511
f 513 517 515
f 517 521 519
f 521 525 523
f 525 529 527
f 529 533 531
f 533 537 535
f 537 541 539
f 541 545 543
f 545 549 547
f 549 553 551
f 553 557 555
f 557 561 559
f 561 565 563
f 565 569 567
f 569 573 571
f 573 576 575
f 607 611 609
f 611 615 613
f 615 619 617
f 619 623 621
f 623 627 625
f 627 631 629
f 631 635 633
f 635 639 637
f 639 643 641
f 643 647 645
f 647 651 649
f 651 655 653
f 655 659 657
f 659 663 661
f 719 723 721
f 723 727 725
f 727 731 729
f 731 735 733
f 735 739 737
f 739 743 741
f 743 747 745
f 747 751 749
f 751 754 753
f 770 1555 771
f 1553 772 1554
f 805 808 806
f 808 812 810
f 812 816 814
f 816 820 818
f 820 824 822
f 824 828 826
f 828 832 830
f 832 836 834
f 836 840 838
f 840 844 842
f 844 848 846
f 848 852 850
f 852 856 854
f 856 860 858
f 860 864 862
f 917 920 918
f 920 924 922
f 924 928 926
f 928 932 930
f 932 936 934
f 936 940 938
f 940 944 942
f 944 948 946
f 948 951 950
f 1059 1062 1060
f 1090 1093 1091
f 1129 1132 1130
f 1160 1163 1161
f 1199 1202 1200
f 1230 1233 1231
f 1269 1272 1270
f 1300 1303 1301
f 1339 1342 1340
f 1370 1373 1371
f 1411 1415 1413
f 1415 1419 1417
f 1419 1423 1421
f 1423 1427 1425
f 1427 1430 1429
f 1467 1471 1469
f 1471 1475 1473
f 1475 1479 1477
f 1479 1483 1481
f 1483 1487 1485
f 1487 1491 1489
f 1491 1495 1493
f 1495 1499 1497
f 1499 1503 1501
f 1503 1507 1505
f 1507 1511 1509
f 1511 1515 1513
f 1515 1519 1517
f 1519 1523 1521
f 1523 4 3
f 57 64 60
f 64 72 68
f 72 80 76
f 80 88 84
f 88 95 92
f 114 122 118
f 122 130 126
f 130 138 134
f 138 146 142
f 146 154 150
f 154 162 158
f 162 170 166
f 170 178 174
f 178 185 182
f 185 193 189
f 193 201 197
f 201 209 205
f 209 217 213
f 217 224 221
f 224 232 228
f 232 240 236
f 240 248 244
f 248 255 252
f 255 263 259
f 263 271 267
f 271 279 275
f 279 287 283
f 287 294 291
f 294 302 298
f 302 310 306
f 310 318 314
f 318 325 322
f 325 333 329
f 333 341 337
f 341 349 345
f 349 357 353
f 357 364 361
f 364 372 368
f 372 380 376
f 380 388 384
f 388 395 392
f 395 403 399
f 403 411 407
f 411 419 415
f 419 427 423
f 427 434 431
f 434 442 438
f 442 450 446
f 450 458 454
f 458 465 462
f 465 473 469
f 473 481 477
f 481 489 485
f 489 497 493
f 497 505 501
f 505 513 509
f 513 521 517
f 521 529 525
f 529 537 533
f 537 545 541
f 545 553 549
f 553 561 557
f 561 569 565
f 569 576 573
f 607 615 611
f 615 623 619
f 623 631 627
f 631 639 635
f 639 647 643
f 647 655 651
f 655 663 659
f 719 727 723
f 727 735 731
f 735 743 739
f 743 751 747
f 751 755 754
f 769 1555 770
f 1552 772 1553
f 804 808 805
f 808 816 812
f 816 824 820
f 824 832 828
f 832 840 836
f 840 848 844
f 848 856 852
f 856 864 860
f 916 920 917
f 920 928 924
f 928 936 932
f 936 944 940
f 944 951 948
f 1058 1062 1059
f 1089 1093 1090
f 1128 1132 1129
f 1159 1163 1160
f 1198 1202 1199
f 1229 1233 1230
f 1268 1272 1269
f 1299 1303 1300
f 1338 1342 1339
f 1369 1373 1370
f 1411 1419 1415
f 1419 1427 1423
f 1427 1431 1430
f 1466 1471 1467
f 1471 1479 1475
f 1479 1487 1483
f 1487 1495 1491
f 1495 1503 1499
f 1503 1511 1507
f 1511 1519 1515
f 1519 4 1523
f 56 64 57
f 64 80 72
f 80 95 88
f 114 130 122
f 130 146 138
f 154 170 162
f 170 185 178
f 185 201 193
f 201 217 209
f 224 240 232
f 240 255 248
f 255 271 263
f 271 287 279
f 294 310 302
f 310 325 318
f 325 341 333
f 341 357 349
f 364 380 372
f 380 395 388
f 395 411 403
f 411 427 419
f 434 450 442
f 450 465 458
f 465 481 473
f 481 497 489
f 497 513 505
f 513 529 521
f 529 545 537
f 545 561 553
f 561 576 569
f 607 623 615
f 623 639 631
f 639 655 647
f 655 664 663
f 719 735 727
f 735 751 743
f 751 756 755
f 768 1555 769
f 1551 772 1552
f 803 808 804
f 808 824 816
f 824 840 832
f 840 856 848
f 915 920 916
f 920 936 928
f 944 952 951
f 1057 1062 1058
f 1088 1093 1089
f 1127 1132 1128
f 1158 1163 1159
f 1197 1202 1198
f 1228 1233 1229
f 1267 1272 1268
f 1298 1303 1299
f 1337 1342 1338
f 1368 1373 1369
f 1410 1419 1411
f 1419 1431 1427
f 1466 1479 1471
f 1479 1495 1487
f 1495 1511 1503
f 1511 4 1519
f 55 64 56
f 80 96 95
f 114 146 130
f 154 185 170
f 185 217 201
f 224 255 240
f 255 287 271
f 294 325 310
f 325 357 341
f 364 395 380
f 395 427 411
f 434 465 450
f 465 497 481
f 497 529 513
f 529 561 545
f 561 577 576
f 607 639 623
f 639 664 655
f 735 756 751
f 767 1555 768
f 1550 772 1551
f 802 808 803
f 808 840 824
f 840 864 856
f 944 953 952
f 1056 1062 1057
f 1087 1093 1088
f 1126 1132 1127
f 1157 1163 1158
f 1196 1202 1197
f 1227 1233 1228
f 1266 1272 1267
f 1297 1303 1298
f 1336 1342 1337
f 1367 1373 1368
f 1419 1432 1431
f 1465 1479 1466
f 1479 1511 1495
f 1511 5 4
f 54 64 55
f 80 97 96
f 114 154 146
f 154 217 185
f 217 255 224
f 255 294 287
f 294 357 325
f 357 395 364
f 395 434 427
f 434 497 465
f 606 639 607
f 639 665 664
f 766 1555 767
f 1549 772 1550
f 801 808 802
f 808 864 840
f 1055 1062 1056
f 1087 1094 1093
f 1125 1132 1126
f 1157 1164 1163
f 1195 1202 1196
f 1227 1234 1233
f 1265 1272 1266
f 1297 1304 1303
f 1335 1342 1336
f 1367 1374 1373
f 1419 1433 1432
f 1465 1511 1479
f 1511 6 5
f 53 64 54
f 80 98 97
f 154 255 217
f 294 395 357
f 434 529 497
f 639 666 665
f 765 1555 766
f 1548 772 1549
f 800 808 801
f 808 865 864
f 1054 1062 1055
f 1086 1094 1087
f 1124 1132 1125
f 1156 1164 1157
f 1194 1202 1195
f 1226 1234 1227
f 1264 1272 1265
f 1296 1304 1297
f 1334 1342 1335
f 1366 1374 1367
f 1419 1434 1433
f 1464 1511 1465
f 1511 7 6
f 52 64 53
f 80 99 98
f 639 667 666
f 764 1555 765
f 1547 772 1548
f 799 808 800
f 808 866 865
f 1053 1062 1054
f 1086 1095 1094
f 1123 1132 1124
f 1156 1165 1164
f 1193 1202 1194
f 1226 1235 1234
f 1263 1272 1264
f 1296 1305 1304
f 1333 1342 1334
f 1365 1374 1366
f 1419 1435 1434
f 1463 1511 1464
f 1511 8 7
f 51 64 52
f 80 100 99
f 639 668 667
f 763 1555 764
f 1546 772 1547
f 798 808 799
f 808 867 866
f 1052 1062 1053
f 1085 1095 1086
f 1122 1132 1123
f 1155 1165 1156
f 1192 1202 1193
f 1225 1235 1226
f 1262 1272 1263
f 1295 1305 1296
f 1332 1342 1333
f 1365 1375 1374
f 1462 1511 1463
f 1511 9 8
f 50 64 51
f 80 101 100
f 639 669 668
f 762 1555 763
f 1545 772 1546
f 797 808 798
f 808 868 867
f 1051 1062 1052
f 1085 1096 1095
f 1121 1132 1122
f 1155 1166 1165
f 1191 1202 1192
f 1225 1236 1235
f 1261 1272 1262
f 1295 1306 1305
f 1331 1342 1332
f 1364 1375 1365
f 1461 1511 1462
f 1511 10 9
f 639 670 669
f 761 1555 762
f 1544 772 1545
f 796 808 797
f 808 869 868
f 1050 1062 1051
f 1084 1096 1085
f 1120 1132 1121
f 1154 1166 1155
f 1190 1202 1191
f 1224 1236 1225
f 1260 1272 1261
f 1294 1306 1295
f 1330 1342 1331
f 1364 1376 1375
f 1511 11 10
f 639 671 670
f 760 1555 761
f 1544 773 772
f 795 808 796
f 1049 1062 1050
f 1084 1097 1096
f 1119 1132 1120
f 1154 1167 1166
f 1189 1202 1190
f 1224 1237 1236
f 1259 1272 1260
f 1294 1307 1306
f 1329 1342 1330
f 1364 1377 1376
f 1511 12 11
f 639 672 671
f 759 1555 760
f 1544 774 773
f 794 808 795
f 1048 1062 1049
f 1083 1097 1084
f 1118 1132 1119
f 1153 1167 1154
f 1188 1202 1189
f 1223 1237 1224
f 1258 1272 1259
f 1293 1307 1294
f 1328 1342 1329
f 1363 1377 1364
f 1511 13 12
f 639 673 672
f 758 1555 759
f 1543 774 1544
f 793 808 794
f 1047 1062 1048
f 1083 1098 1097
f 1117 1132 1118
f 1153 1168 1167
f 1187 1202 1188
f 1223 1238 1237
f 1257 1272 1258
f 1293 1308 1307
f 1327 1342 1328
f 1363 1378 1377
f 1511 14 13
f 639 674 673
f 757 1555 758
f 1543 775 774
f 792 808 793
f 1046 1062 1047
f 1083 1099 1098
f 1117 1133 1132
f 1153 1169 1168
f 1187 1203 1202
f 1223 1239 1238
f 1257 1273 1272
f 1293 1309 1308
f 1327 1343 1342
f 1363 1379 1378
f 1511 15 14
f 639 675 674
f 756 1555 757
f 1543 776 775
f 791 808 792
f 1045 1062 1046
f 1083 1100 1099
f 1116 1133 1117
f 1153 1170 1169
f 1186 1203 1187
f 1223 1240 1239
f 1256 1273 1257
f 1293 1310 1309
f 1326 1343 1327
f 1362 1379 1363
f 1511 16 15
f 756 1556 1555
f 1542 776 1543
f 790 808 791
f 1044 1062 1045
f 1082 1100 1083
f 1115 1133 1116
f 1152 1170 1153
f 1185 1203 1186
f 1222 1240 1223
f 1255 1273 1256
f 1292 1310 1293
f 1325 1343 1326
f 1362 1380 1379
f 1511 17 16
f 756 1557 1556
f 1542 777 776
f 789 808 790
f 1043 1062 1044
f 1082 1101 1100
f 1114 1133 1115
f 1152 1171 1170
f 1184 1203 1185
f 1222 1241 1240
f 1254 1273 1255
f 1292 1311 1310
f 1324 1343 1325
f 1362 1381 1380
f 1511 18 17
f 756 1558 1557
f 1542 778 777
f 1042 1062 1043
f 1082 1102 1101
f 1113 1133 1114
f 1152 1172 1171
f 1183 1203 1184
f 1222 1242 1241
f 1253 1273 1254
f 1292 1312 1311
f 1323 1343 1324
f 1362 1382 1381
f 1511 19 18
f 756 1559 1558
f 1541 778 1542
f 1041 1062 1042
f 1082 1103 1102
f 1112 1133 1113
f 1152 1173 1172
f 1182 1203 1183
f 1222 1243 1242
f 1252 1273 1253
f 1292 1313 1312
f 1322 1343 1323
f 1362 1383 1382
f 1511 20 19
f 756 1560 1559
f 1541 779 778
f 1040 1062 1041
f 1082 1104 1103
f 1111 1133 1112
f 1152 1174 1173
f 1181 1203 1182
f 1222 1244 1243
f 1251 1273 1252
f 1292 1314 1313
f 1321 1343 1322
f 1361 1383 1362
f 1511 21 20
f 756 1561 1560
f 1540 779 1541
f 1039 1062 1040
f 1081 1104 1082
f 1111 1134 1133
f 1151 1174 1152
f 1181 1204 1203
f 1221 1244 1222
f 1251 1274 1273
f 1291 1314 1292
f 1321 1344 1343
f 1361 1384 1383
f 1511 22 21
f 756 1562 1561
f 1540 780 779
f 1039 1063 1062
f 1081 1105 1104
f 1110 1134 1111
f 1151 1175 1174
f 1180 1204 1181
f 1221 1245 1244
f 1250 1274 1251
f 1291 1315 1314
f 1320 1344 1321
f 1361 1385 1384
f 1511 23 22
f 756 1563 1562
f 1540 781 780
f 1038 1063 1039
f 1081 1106 1105
f 1109 1134 1110
f 1151 1176 1175
f 1179 1204 1180
f 1221 1246 1245
f 1249 1274 1250
f 1291 1316 1315
f 1319 1344 1320
f 1361 1386 1385
f 1511 24 23
f 756 1564 1563
f 1539 781 1540
f 1037 1063 1038
f 1081 1107 1106
f 1108 1134 1109
f 1151 1177 1176
f 1178 1204 1179
f 1221 1247 1246
f 1248 1274 1249
f 1291 1317 1316
f 1318 1344 1319
f 1361 1387 1386
f 1511 25 24
f 756 1565 1564
f 1539 782 781
f 1036 1063 1037
f 1081 1108 1107
f 1108 1135 1134
f 1151 1178 1177
f 1178 1205 1204
f 1221 1248 1247
f 1248 1275 1274
f 1291 1318 1317
f 1318 1345 1344
f 1361 1388 1387
f 1511 26 25
f 756 1566 1565
f 1539 783 782
f 1035 1063 1036
f 1081 1135 1108
f 1151 1205 1178
f 1221 1275 1248
f 1291 1345 1318
f 1361 1389 1388
f 1511 27 26
f 756 1567 1566
f 1539 784 783
f 1034 1063 1035
f 1080 1135 1081
f 1150 1205 1151
f 1220 1275 1221
f 1290 1345 1291
f 1361 1390 1389
f 1511 28 27
f 756 1568 1567
f 1538 784 1539
f 1033 1063 1034
f 1080 1136 1135
f 1150 1206 1205
f 1220 1276 1275
f 1290 1346 1345
f 1361 1391 1390
f 1511 29 28
f 756 1569 1568
f 1538 785 784
f 1032 1063 1033
f 1080 1137 1136
f 1150 1207 1206
f 1220 1277 1276
f 1290 1347 1346
f 1361 1392 1391
f 1511 30 29
f 756 1570 1569
f 1538 786 785
f 1031 1063 1032
f 1080 1138 1137
f 1150 1208 1207
f 1220 1278 1277
f 1290 1348 1347
f 1361 1393 1392
f 1511 31 30
f 756 1571 1570
f 1537 786 1538
f 1031 1064 1063
f 1079 1138 1080
f 1149 1208 1150
f 1219 1278 1220
f 1289 1348 1290
f 1361 1394 1393
f 1511 32 31
f 756 1572 1571
f 1537 787 786
f 1030 1064 1031
f 1079 1139 1138
f 1149 1209 1208
f 1219 1279 1278
f 1289 1349 1348
f 1361 1395 1394
f 1511 33 32
f 756 1573 1572
f 1537 788 787
f 1029 1064 1030
f 1079 1140 1139
f 1149 1210 1209
f 1219 1280 1279
f 1289 1350 1349
f 1360 1395 1361
f 1511 34 33
f 735 1573 756
f 1537 789 788
f 1028 1064 1029
f 1079 1141 1140
f 1149 1211 1210
f 1219 1281 1280
f 1289 1351 1350
f 1360 1396 1395
f 1511 35 34
f 735 1574 1573
f 1027 1064 1028
f 1079 1142 1141
f 1149 1212 1211
f 1219 1282 1281
f 1289 1352 1351
f 1360 1397 1396
f 1461 35 1511
f 735 1575 1574
f 1026 1064 1027
f 1079 1143 1142
f 1149 1213 1212
f 1219 1283 1282
f 1289 1353 1352
f 1360 1398 1397
f 1460 35 1461
f 735 1576 1575
f 1079 1144 1143
f 1149 1214 1213
f 1219 1284 1283
f 1289 1354 1353
f 1360 1399 1398
f 1460 36 35
f 735 1577 1576
f 1025 1065 1026
f 1026 1065 1064
f 1360 1400 1399
f 1460 37 36
f 735 1578 1577
f 1024 1065 1025
f 1360 1401 1400
f 1460 38 37
f 735 1579 1578
f 1023 1065 1024
f 1460 39 38
f 735 1580 1579
f 1022 1065 1023
f 1460 40 39
f 735 1581 1580
f 1021 1065 1022
f 1460 41 40
f 735 1582 1581
f 1021 1066 1065
f 1460 42 41
f 735 1583 1582
f 1021 1067 1066
f 1460 43 42
f 735 1584 1583
f 1021 1068 1067
f 1460 44 43
f 735 1585 1584
f 1021 1069 1068
f 1459 44 1460
f 735 1524 1585
f 1021 1070 1069
f 1459 45 44
f 735 1525 1524
f 1021 1071 1070
f 1459 46 45
f 735 1526 1525
f 1021 1072 1071
f 1459 47 46
f 735 1527 1526
f 1021 1073 1072
f 1459 48 47
f 735 1528 1527
f 1459 49 48
f 735 1529 1528
f 1459 50 49
f 735 1530 1529
f 1459 64 50
f 735 1531 1530
f 1458 64 1459
f 735 1532 1531
f 1457 64 1458
f 719 1532 735
f 1456 64 1457
f 719 1533 1532
f 1455 64 1456
f 719 1534 1533
f 1454 64 1455
f 719 1535 1534
f 1453 64 1454
f 719 1536 1535
f 1452 64 1453
f 719 1537 1536
f 1451 64 1452
f 719 789 1537
f 1450 64 1451
f 718 789 719
f 1449 64 1450
f 717 789 718
f 1448 64 1449
f 716 789 717
f 1448 80 64
f 715 789 716
f 1447 80 1448
f 714 789 715
f 1446 80 1447
f 713 789 714
f 1445 80 1446
f 713 808 789
f 1444 80 1445
f 712 808 713
f 1443 80 1444
f 711 808 712
f 1442 80 1443
f 710 808 711
f 1441 80 1442
f 709 808 710
f 1440 80 1441
f 708 808 709
f 1439 80 1440
f 707 808 708
f 1438 80 1439
f 706 808 707
f 1437 80 1438
f 705 808 706
f 1436 80 1437
f 704 808 705
f 1435 80 1436
f 703 808 704
f 1419 80 1435
f 702 808 703
f 1419 101 80
f 701 808 702
f 1419 102 101
f 700 808 701
f 1419 103 102
f 699 808 700
f 1419 104 103
f 698 808 699
f 1419 105 104
f 697 808 698
f 1419 106 105
f 696 808 697
f 1419 107 106
f 695 808 696
f 1419 108 107
f 694 808 695
f 1419 109 108
f 693 808 694
f 1419 110 109
f 692 808 693
f 1419 111 110
f 691 808 692
f 1419 112 111
f 690 808 691
f 1419 113 112
f 689 808 690
f 1419 114 113
f 688 808 689
f 1410 114 1419
f 687 808 688
f 1409 114 1410
f 686 808 687
f 1408 114 1409
f 685 808 686
f 1407 114 1408
f 684 808 685
f 1407 154 114
f 683 808 684
f 1406 154 1407
f 682 808 683
f 1405 154 1406
f 681 808 682
f 1404 154 1405
f 680 808 681
f 1403 154 1404
f 679 808 680
f 1402 154 1403
f 678 808 679
f 1401 154 1402
f 677 808 678
f 1360 154 1401
f 676 808 677
f 1359 154 1360
f 675 808 676
f 1358 154 1359
f 675 869 808
f 1357 154 1358
f 675 870 869
f 1356 154 1357
f 675 871 870
f 1355 154 1356
f 639 871 675
f 1354 154 1355
f 639 872 871
f 1289 154 1354
f 639 873 872
f 1289 255 154
f 639 874 873
f 1288 255 1289
f 639 875 874
f 1287 255 1288
f 639 876 875
f 1286 255 1287
f 639 877 876
f 1285 255 1286
f 639 878 877
f 1284 255 1285
f 639 879 878
f 1219 255 1284
f 639 880 879
f 1218 255 1219
f 639 881 880
f 1217 255 1218
f 639 882 881
f 1217 294 255
f 639 883 882
f 1216 294 1217
f 639 884 883
f 1215 294 1216
f 639 885 884
f 1214 294 1215
f 639 886 885
f 1149 294 1214
f 639 887 886
f 1149 395 294
f 639 888 887
f 1148 395 1149
f 639 889 888
f 1147 395 1148
f 639 890 889
f 1146 395 1147
f 639 891 890
f 1145 395 1146
f 639 892 891
f 1144 395 1145
f 639 893 892
f 1079 395 1144
f 639 894 893
f 1078 395 1079
f 639 895 894
f 1077 395 1078
f 639 896 895
f 1077 434 395
f 639 897 896
f 1076 434 1077
f 639 898 897
f 1075 434 1076
f 606 898 639
f 1074 434 1075
f 606 899 898
f 1073 434 1074
f 606 900 899
f 1073 529 434
f 606 901 900
f 1021 529 1073
f 606 902 901
f 1020 529 1021
f 606 903 902
f 1019 529 1020
f 606 904 903
f 1018 529 1019
f 606 905 904
f 1017 529 1018
f 606 906 905
f 1016 529 1017
f 606 907 906
f 1015 529 1016
f 606 908 907
f 1014 529 1015
f 606 909 908
f 1013 529 1014
f 605 909 606
f 1012 529 1013
f 605 910 909
f 1011 529 1012
f 605 911 910
f 1010 529 1011
f 605 912 911
f 1009 529 1010
f 605 913 912
f 1008 529 1009
f 605 914 913
f 1007 529 1008
f 604 914 605
f 1006 529 1007
f 604 915 914
f 1005 529 1006
f 604 920 915
f 1004 529 1005
f 603 920 604
f 1003 529 1004
f 602 920 603
f 1002 529 1003
f 601 920 602
f 1001 529 1002
f 600 920 601
f 1000 529 1001
f 599 920 600
f 999 529 1000
f 598 920 599
f 998 529 999
f 597 920 598
f 997 529 998
f 597 936 920
f 996 529 997
f 596 936 597
f 995 529 996
f 595 936 596
f 994 529 995
f 594 936 595
f 993 529 994
f 593 936 594
f 992 529 993
f 592 936 593
f 991 529 992
f 591 936 592
f 990 529 991
f 590 936 591
f 989 529 990
f 589 936 590
f 988 529 989
f 588 936 589
f 987 529 988
f 587 936 588
f 986 529 987
f 586 936 587
f 985 529 986
f 585 936 586
f 984 529 985
f 584 936 585
f 983 529 984
f 583 936 584
f 982 529 983
f 582 936 583
f 981 529 982
f 581 936 582
f 980 529 981
f 581 944 936
f 979 529 980
f 580 944 581
f 978 529 979
f 579 944 580
f 977 529 978
f 578 944 579
f 977 561 529
f 577 944 578
f 976 561 977
f 561 944 577
f 975 561 976
f 561 953 944
f 974 561 975
f 561 954 953
f 973 561 974
f 561 955 954
f 972 561 973
f 561 956 955
f 971 561 972
f 561 957 956
f 970 561 971
f 561 958 957
f 969 561 970
f 561 959 958
f 968 561 969
f 561 960 959
f 967 561 968
f 561 961 960
f 966 561 967
f 561 962 961
f 965 561 966
f 561 963 962
f 964 561 965
f 561 964 963
