v 1.185000 1.159802 -5.486182
v 1.185000 1.109658 -5.486182
v 1.185000 1.110726 -5.471107
v 1.185000 1.111589 -5.456018
v 1.185000 1.112248 -5.440919
v 1.185000 1.112701 -5.425813
v 1.185000 1.112949 -5.410702
v 1.185000 1.112991 -5.395589
v 1.185000 1.112829 -5.380477
v 1.185000 1.112461 -5.365369
v 1.185000 1.111888 -5.350266
v 1.185000 1.111110 -5.335173
v 1.185000 1.110128 -5.320092
v 1.185000 1.108940 -5.305026
v 1.185000 1.107549 -5.289977
v 1.185000 1.105953 -5.274949
v 1.185000 1.104153 -5.259943
v 1.185000 1.102149 -5.244964
v 1.185000 1.099942 -5.230013
v 1.185000 1.097533 -5.215093
v 1.185000 1.094921 -5.200207
v 1.185000 1.092107 -5.185358
v 1.185000 1.089092 -5.170549
v 1.185000 1.085876 -5.155782
v 1.185000 1.082460 -5.141060
v 1.185000 1.078844 -5.126386
v 1.185000 1.075029 -5.111763
v 1.185000 1.071017 -5.097192
v 1.185000 1.066806 -5.082677
v 1.185000 1.062399 -5.068221
v 1.185000 1.057796 -5.053826
v 1.185000 1.052998 -5.039495
v 1.185000 1.048006 -5.025230
v 1.185000 1.042821 -5.011035
v 1.185000 1.037443 -4.996911
v 1.185000 1.031874 -4.982861
v 1.185000 1.026115 -4.968889
v 1.185000 1.020167 -4.954995
v 1.185000 1.014030 -4.941184
v 1.185000 1.007707 -4.927458
v 1.185000 1.001197 -4.913818
v 1.185000 1.056502 -4.913818
v 1.185000 1.062714 -4.927551
v 1.185000 1.068748 -4.941364
v 1.185000 1.074602 -4.955254
v 1.185000 1.080276 -4.969218
v 1.185000 1.085768 -4.983255
v 1.185000 1.091078 -4.997361
v 1.185000 1.096205 -5.011536
v 1.185000 1.101147 -5.025775
v 1.185000 1.105905 -5.040078
v 1.185000 1.110476 -5.054441
v 1.185000 1.114862 -5.068861
v 1.185000 1.119060 -5.083338
v 1.185000 1.123070 -5.097868
v 1.185000 1.126891 -5.112448
v 1.185000 1.130523 -5.127077
v 1.185000 1.133965 -5.141752
v 1.185000 1.137217 -5.156470
v 1.185000 1.140277 -5.171229
v 1.185000 1.143147 -5.186026
v 1.185000 1.145824 -5.200859
v 1.185000 1.148308 -5.215726
v 1.185000 1.150600 -5.230624
v 1.185000 1.152699 -5.245550
v 1.185000 1.154604 -5.260502
v 1.185000 1.156314 -5.275477
v 1.185000 1.157831 -5.290474
v 1.185000 1.159153 -5.305489
v 1.185000 1.160281 -5.320519
v 1.185000 1.161214 -5.335563
v 1.185000 1.161951 -5.350618
v 1.185000 1.162494 -5.365681
v 1.185000 1.162841 -5.380750
v 1.185000 1.162992 -5.395823
v 1.185000 1.162949 -5.410895
v 1.185000 1.162710 -5.425967
v 1.185000 1.162276 -5.441033
v 1.185000 1.161646 -5.456093
v 1.185000 1.160822 -5.471143
f 2 1 80
f 2 80 3
f 3 80 79
f 3 79 4
f 4 79 78
f 4 78 5
f 5 78 77
f 5 77 6
f 6 77 76
f 6 76 7
f 7 76 75
f 7 75 8
f 8 75 74
f 8 74 9
f 9 74 73
f 9 73 10
f 10 73 72
f 10 72 11
f 11 72 71
f 11 71 12
f 12 71 70
f 12 70 13
f 13 70 69
f 13 69 14
f 14 69 68
f 14 68 15
f 15 68 67
f 15 67 16
f 16 67 66
f 16 66 17
f 17 66 65
f 17 65 18
f 18 65 64
f 18 64 19
f 19 64 63
f 19 63 20
f 20 63 62
f 20 62 21
f 21 62 61
f 21 61 22
f 22 61 60
f 22 60 23
f 23 60 59
f 23 59 24
f 24 59 58
f 24 58 25
f 25 58 57
f 25 57 26
f 26 57 56
f 26 56 27
f 27 56 55
f 27 55 28
f 28 55 54
f 28 54 29
f 29 54 53
f 29 53 30
f 30 53 52
f 30 52 31
f 31 52 51
f 31 51 32
f 32 51 50
f 32 50 33
f 33 50 49
f 33 49 34
f 34 49 48
f 34 48 35
f 35 48 47
f 35 47 36
f 36 47 46
f 36 46 37
f 37 46 45
f 37 45 38
f 38 45 44
f 38 44 39
f 39 44 43
f 39 43 40
f 40 43 42
f 40 42 41
