v -0.500976 0.381999 -1.051004
v -0.501841 0.380862 -1.051148
v -0.502682 0.379751 -1.051492
v -0.503481 0.378691 -1.052030
v -0.504224 0.377701 -1.052751
v -0.504895 0.376803 -1.053639
v -0.505482 0.376016 -1.054677
v -0.505973 0.375356 -1.055843
v -0.506359 0.374834 -1.057113
v -0.506632 0.374465 -1.058462
v -0.506789 0.374253 -1.059862
v -0.385687 0.310274 -1.051004
v -0.386585 0.309155 -1.051148
v -0.387457 0.308062 -1.051493
v -0.388285 0.307018 -1.052032
v -0.389053 0.306044 -1.052754
v -0.389746 0.305161 -1.053643
v -0.390351 0.304386 -1.054681
v -0.390857 0.303736 -1.055847
v -0.391255 0.303223 -1.057117
v -0.391537 0.302859 -1.058465
v -0.391698 0.302651 -1.059863
f 1 13 2
f 1 12 13
f 2 14 3
f 2 13 14
f 3 15 4
f 3 14 15
f 4 16 5
f 4 15 16
f 5 17 6
f 5 16 17
f 6 18 7
f 6 17 18
f 7 19 8
f 7 18 19
f 8 20 9
f 8 19 20
f 9 21 10
f 9 20 21
f 10 22 11
f 10 21 22
