v -0.456525 0.434149 -1.084841
v -0.456525 0.434149 -1.061000
v -0.366027 0.333241 -1.061000
v -0.366027 0.333241 -1.120893
v -0.367666 0.335068 -1.120241
v -0.369305 0.336896 -1.119588
v -0.370944 0.338724 -1.118935
v -0.372584 0.340552 -1.118283
v -0.374224 0.342381 -1.117630
v -0.375864 0.344210 -1.116977
v -0.377504 0.346039 -1.116324
v -0.379145 0.347868 -1.115670
v -0.380786 0.349698 -1.115017
v -0.382427 0.351528 -1.114363
v -0.384068 0.353358 -1.113710
v -0.385710 0.355188 -1.113056
v -0.387352 0.357019 -1.112402
v -0.388994 0.358850 -1.111748
v -0.390636 0.360681 -1.111094
v -0.392279 0.362513 -1.110440
v -0.393922 0.364345 -1.109786
v -0.395565 0.366177 -1.109131
v -0.397208 0.368009 -1.108477
v -0.398852 0.369842 -1.107822
v -0.400495 0.371674 -1.107167
v -0.402139 0.373508 -1.106512
v -0.403784 0.375341 -1.105857
v -0.405428 0.377175 -1.105202
v -0.407073 0.379009 -1.104547
v -0.408718 0.380843 -1.103892
v -0.410363 0.382677 -1.103236
v -0.412009 0.384512 -1.102581
v -0.413655 0.386347 -1.101925
v -0.415300 0.388183 -1.101269
v -0.416947 0.390018 -1.100613
v -0.418593 0.391854 -1.099957
v -0.420240 0.393690 -1.099301
v -0.421887 0.395526 -1.098645
v -0.423534 0.397363 -1.097989
v -0.425181 0.399200 -1.097332
v -0.426829 0.401037 -1.096676
v -0.428477 0.402874 -1.096019
v -0.430125 0.404712 -1.095363
v -0.431773 0.406550 -1.094706
v -0.433421 0.408388 -1.094049
v -0.435070 0.410226 -1.093392
v -0.436719 0.412065 -1.092735
v -0.438368 0.413904 -1.092078
v -0.440018 0.415743 -1.091420
v -0.441667 0.417582 -1.090763
v -0.443317 0.419422 -1.090105
v -0.444967 0.421262 -1.089448
v -0.446618 0.423102 -1.088790
v -0.448268 0.424943 -1.088132
v -0.449919 0.426783 -1.087474
v -0.451570 0.428624 -1.086816
v -0.453222 0.430465 -1.086158
v -0.454873 0.432307 -1.085500
f 1 3 2
f 1 4 3
f 1 5 4
f 1 6 5
f 1 7 6
f 1 8 7
f 1 9 8
f 1 10 9
f 1 11 10
f 1 12 11
f 1 13 12
f 1 14 13
f 1 15 14
f 1 16 15
f 1 17 16
f 1 18 17
f 1 19 18
f 1 20 19
f 1 21 20
f 1 22 21
f 1 23 22
f 1 24 23
f 1 25 24
f 1 26 25
f 1 27 26
f 1 28 27
f 1 29 28
f 1 30 29
f 1 31 30
f 1 32 31
f 1 33 32
f 1 34 33
f 1 35 34
f 1 36 35
f 1 37 36
f 1 38 37
f 1 39 38
f 1 40 39
f 1 41 40
f 1 42 41
f 1 43 42
f 1 44 43
f 1 45 44
f 1 46 45
f 1 47 46
f 1 48 47
f 1 49 48
f 1 50 49
f 1 51 50
f 1 52 51
f 1 53 52
f 1 54 53
f 1 55 54
f 1 56 55
f 1 57 56
f 1 58 57
