v 1.174388 0.559197 -6.616071
v 1.179003 0.559736 -6.618835
v 1.176676 0.559470 -6.617484
v 1.181366 0.559995 -6.620124
v 1.183763 0.560246 -6.621348
v 1.186193 0.560490 -6.622507
v 1.188655 0.560727 -6.623600
v 1.191145 0.560955 -6.624627
v 1.193663 0.561176 -6.625587
v 1.196206 0.561389 -6.626479
v 1.198774 0.561593 -6.627302
v 1.174145 0.567818 -6.614852
v 1.174141 0.576177 -6.613601
v 1.174364 0.584289 -6.612320
v 1.174802 0.592166 -6.611010
v 1.175445 0.599822 -6.609673
v 1.176290 0.607260 -6.608311
v 1.177340 0.614478 -6.606922
v 1.178596 0.621475 -6.605509
v 1.180061 0.628250 -6.604071
v 1.181733 0.634793 -6.602610
v 1.197033 0.570626 -6.625502
v 1.197031 0.570636 -6.625500
v 1.195281 0.579271 -6.623476
v 1.195277 0.579290 -6.623471
v 1.193526 0.587529 -6.621255
v 1.193520 0.587555 -6.621248
v 1.191775 0.595402 -6.618870
v 1.191768 0.595435 -6.618859
v 1.190035 0.602898 -6.616346
v 1.190025 0.602937 -6.616332
v 1.188311 0.610019 -6.613712
v 1.188300 0.610063 -6.613695
v 1.186613 0.616765 -6.610996
v 1.186600 0.616813 -6.610976
v 1.184946 0.623140 -6.608225
v 1.184932 0.623191 -6.608202
v 1.183316 0.629149 -6.605422
v 1.183301 0.629202 -6.605397
v 1.203972 0.561975 -6.628740
v 1.201363 0.561788 -6.628056
v 1.206598 0.562154 -6.629353
v 1.209242 0.562323 -6.629896
v 1.211899 0.562483 -6.630368
v 1.214568 0.562635 -6.630769
v 1.217248 0.562777 -6.631097
v 1.219936 0.562909 -6.631354
v 1.222631 0.563033 -6.631538
v 1.225330 0.563146 -6.631650
v 1.183610 0.641088 -6.601130
v 1.185688 0.647119 -6.599636
v 1.187965 0.652868 -6.598130
v 1.190441 0.658324 -6.596616
v 1.193125 0.663483 -6.595091
v 1.196026 0.668341 -6.593554
v 1.199152 0.672894 -6.592002
v 1.202506 0.677133 -6.590438
v 1.206060 0.681025 -6.588873
v 1.209786 0.684534 -6.587320
v 1.213654 0.687625 -6.585793
v 1.225001 0.572680 -6.630222
v 1.225000 0.572690 -6.630221
v 1.224604 0.581859 -6.628555
v 1.224603 0.581879 -6.628551
v 1.224148 0.590680 -6.626677
v 1.224147 0.590709 -6.626670
v 1.223641 0.599143 -6.624617
v 1.223638 0.599179 -6.624607
v 1.223089 0.607251 -6.622400
v 1.223085 0.607294 -6.622387
v 1.222499 0.615001 -6.620053
v 1.222495 0.615049 -6.620038
v 1.221879 0.622387 -6.617604
v 1.221875 0.622440 -6.617586
v 1.221237 0.629411 -6.615077
v 1.221231 0.629467 -6.615056
v 1.220577 0.636072 -6.612498
v 1.220571 0.636130 -6.612475
v 1.219909 0.642367 -6.609892
v 1.219902 0.642428 -6.609866
v 1.219238 0.648290 -6.607285
v 1.219231 0.648352 -6.607257
v 1.218572 0.653837 -6.604705
v 1.218564 0.653899 -6.604675
v 1.217918 0.659004 -6.602176
v 1.217910 0.659067 -6.602144
v 1.217281 0.663797 -6.599719
v 1.217272 0.663861 -6.599685
v 1.216666 0.668228 -6.597349
v 1.216657 0.668293 -6.597314
v 1.216076 0.672309 -6.595081
v 1.216067 0.672374 -6.595044
v 1.215515 0.676054 -6.592926
v 1.215505 0.676117 -6.592888
v 1.214986 0.679468 -6.590896
v 1.214976 0.679530 -6.590859
v 1.214495 0.682544 -6.589016
v 1.214486 0.682601 -6.588980
v 1.214049 0.685266 -6.587307
v 1.214040 0.685320 -6.587273
v 1.230733 0.563345 -6.631657
v 1.228031 0.563251 -6.631690
v 1.233433 0.563430 -6.631552
v 1.236130 0.563504 -6.631374
v 1.238821 0.563569 -6.631124
v 1.241505 0.563625 -6.630802
v 1.244179 0.563670 -6.630409
v 1.246842 0.563705 -6.629943
v 1.249492 0.563730 -6.629407
v 1.252126 0.563745 -6.628800
v 1.254744 0.563750 -6.628123
v 1.257342 0.563745 -6.627375
v 1.259919 0.563730 -6.626559
v 1.262474 0.563705 -6.625673
v 1.265003 0.563670 -6.624720
v 1.267506 0.563625 -6.623699
v 1.269981 0.563569 -6.622612
v 1.272426 0.563504 -6.621459
v 1.274838 0.563430 -6.620241
v 1.277217 0.563345 -6.618959
v 1.279560 0.563251 -6.617613
v 1.217634 0.690265 -6.584305
v 1.221706 0.692450 -6.582860
v 1.225852 0.694188 -6.581464
v 1.230056 0.695486 -6.580119
v 1.234301 0.696352 -6.578829
v 1.238574 0.696787 -6.577596
v 1.242869 0.696793 -6.576422
v 1.247176 0.696368 -6.575309
v 1.251489 0.695513 -6.574260
v 1.255795 0.694226 -6.573279
v 1.260079 0.692497 -6.572371
v 1.264324 0.690321 -6.571541
v 1.279008 0.572814 -6.616275
v 1.279007 0.572824 -6.616273
v 1.278395 0.582024 -6.614692
v 1.278394 0.582044 -6.614689
v 1.277730 0.590876 -6.612896
v 1.277727 0.590904 -6.612890
v 1.277019 0.599370 -6.610912
v 1.277016 0.599406 -6.610903
v 1.276270 0.607510 -6.608769
v 1.276266 0.607552 -6.608757
v 1.275491 0.615291 -6.606491
v 1.275486 0.615339 -6.606476
v 1.274688 0.622709 -6.604107
v 1.274682 0.622762 -6.604089
v 1.273870 0.629763 -6.601642
v 1.273863 0.629820 -6.601622
v 1.273042 0.636455 -6.599121
v 1.273034 0.636514 -6.599098
v 1.272212 0.642780 -6.596569
v 1.272204 0.642841 -6.596544
v 1.271388 0.648732 -6.594013
v 1.271379 0.648794 -6.593986
v 1.270576 0.654306 -6.591480
v 1.270567 0.654368 -6.591451
v 1.269785 0.659500 -6.588995
v 1.269775 0.659563 -6.588964
v 1.269019 0.664318 -6.586578
v 1.269009 0.664382 -6.586545
v 1.268284 0.668772 -6.584245
v 1.268273 0.668837 -6.584210
v 1.267582 0.672876 -6.582011
v 1.267571 0.672940 -6.581975
v 1.266917 0.676641 -6.579886
v 1.266906 0.676705 -6.579850
v 1.266292 0.680075 -6.577885
v 1.266281 0.680136 -6.577849
v 1.265715 0.683167 -6.576029
v 1.265704 0.683226 -6.575994
v 1.265191 0.685906 -6.574343
v 1.265181 0.685960 -6.574310
v 1.264728 0.688279 -6.572849
v 1.264718 0.688327 -6.572818
v 1.264331 0.690276 -6.571566
v 1.284133 0.563033 -6.614737
v 1.281866 0.563146 -6.616206
v 1.286360 0.562909 -6.613209
v 1.288544 0.562777 -6.611621
v 1.290685 0.562635 -6.609976
v 1.292780 0.562483 -6.608274
v 1.294828 0.562323 -6.606516
v 1.296828 0.562154 -6.604705
v 1.298778 0.561975 -6.602841
v 1.300677 0.561788 -6.600926
v 1.268514 0.687688 -6.570797
v 1.272627 0.684604 -6.570143
v 1.276632 0.681099 -6.569583
v 1.280497 0.677210 -6.569121
v 1.284187 0.672972 -6.568761
v 1.287676 0.668419 -6.568506
v 1.290962 0.663559 -6.568353
v 1.294056 0.658398 -6.568300
v 1.296964 0.652939 -6.568344
v 1.299695 0.647187 -6.568482
v 1.302249 0.641155 -6.568711
v 1.301204 0.570884 -6.598598
v 1.301205 0.570894 -6.598595
v 1.301630 0.579596 -6.596066
v 1.301631 0.579615 -6.596060
v 1.301963 0.587923 -6.593360
v 1.301964 0.587950 -6.593351
v 1.302211 0.595870 -6.590510
v 1.302212 0.595903 -6.590497
v 1.302384 0.603442 -6.587541
v 1.302385 0.603482 -6.587525
v 1.302489 0.610642 -6.584481
v 1.302490 0.610686 -6.584462
v 1.302534 0.617467 -6.581359
v 1.302534 0.617516 -6.581336
v 1.302526 0.623923 -6.578199
v 1.302526 0.623975 -6.578173
v 1.302473 0.630014 -6.575027
v 1.302472 0.630067 -6.574998
v 1.302380 0.635740 -6.571867
v 1.302379 0.635795 -6.571836
v 1.302254 0.641101 -6.568747
v 1.304315 0.561389 -6.596946
v 1.302523 0.561593 -6.598960
v 1.306052 0.561176 -6.594885
v 1.307732 0.560955 -6.592779
v 1.309355 0.560727 -6.590628
v 1.310918 0.560490 -6.588435
v 1.312422 0.560246 -6.586202
v 1.313864 0.559995 -6.583929
v 1.315244 0.559736 -6.581618
v 1.316560 0.559470 -6.579272
v 1.317813 0.559197 -6.576891
v 1.304621 0.634857 -6.569030
v 1.306807 0.628310 -6.569438
v 1.308803 0.621532 -6.569931
v 1.310607 0.614530 -6.570510
v 1.312219 0.607306 -6.571171
v 1.313642 0.599863 -6.571915
v 1.314878 0.592200 -6.572740
v 1.315923 0.584315 -6.573646
v 1.316768 0.576196 -6.574637
v 1.317401 0.567827 -6.575717
f 1 2 3
f 1 4 2
f 1 5 4
f 1 6 5
f 1 7 6
f 1 8 7
f 1 9 8
f 1 10 9
f 1 11 10
f 1 12 13
f 1 13 14
f 1 14 15
f 1 15 16
f 1 16 17
f 1 17 18
f 1 18 19
f 1 19 20
f 1 20 21
f 1 22 11
f 1 23 22
f 1 24 23
f 1 25 24
f 1 26 25
f 1 27 26
f 1 28 27
f 1 29 28
f 1 30 29
f 1 31 30
f 1 32 31
f 1 33 32
f 1 34 33
f 1 35 34
f 1 36 35
f 1 37 36
f 1 38 37
f 1 39 38
f 1 21 39
f 11 40 41
f 11 42 40
f 11 43 42
f 11 44 43
f 11 45 44
f 11 46 45
f 11 47 46
f 11 48 47
f 11 49 48
f 21 50 51
f 21 51 52
f 21 52 53
f 21 53 54
f 21 54 55
f 21 55 56
f 21 56 57
f 21 57 58
f 21 58 59
f 21 59 60
f 11 22 49
f 22 61 49
f 22 23 61
f 23 62 61
f 23 24 62
f 24 63 62
f 24 25 63
f 25 64 63
f 25 26 64
f 26 65 64
f 26 27 65
f 27 66 65
f 27 28 66
f 28 67 66
f 28 29 67
f 29 68 67
f 29 30 68
f 30 69 68
f 30 31 69
f 31 70 69
f 31 32 70
f 32 71 70
f 32 33 71
f 33 72 71
f 33 34 72
f 34 73 72
f 34 35 73
f 35 74 73
f 35 36 74
f 36 75 74
f 36 37 75
f 37 76 75
f 37 38 76
f 38 77 76
f 38 39 77
f 39 78 77
f 39 21 78
f 21 79 78
f 21 80 79
f 21 81 80
f 21 82 81
f 21 83 82
f 21 84 83
f 21 85 84
f 21 86 85
f 21 87 86
f 21 88 87
f 21 89 88
f 21 90 89
f 21 91 90
f 21 92 91
f 21 93 92
f 21 94 93
f 21 95 94
f 21 96 95
f 21 97 96
f 21 98 97
f 21 99 98
f 21 100 99
f 21 60 100
f 49 101 102
f 49 103 101
f 49 104 103
f 49 105 104
f 49 106 105
f 49 107 106
f 49 108 107
f 49 109 108
f 49 110 109
f 49 111 110
f 49 112 111
f 49 113 112
f 49 114 113
f 49 115 114
f 49 116 115
f 49 117 116
f 49 118 117
f 49 119 118
f 49 120 119
f 49 121 120
f 60 122 123
f 60 123 124
f 60 124 125
f 60 125 126
f 60 126 127
f 60 127 128
f 60 128 129
f 60 129 130
f 60 130 131
f 60 131 132
f 60 132 133
f 49 61 121
f 61 134 121
f 61 62 134
f 62 135 134
f 62 63 135
f 63 136 135
f 63 64 136
f 64 137 136
f 64 65 137
f 65 138 137
f 65 66 138
f 66 139 138
f 66 67 139
f 67 140 139
f 67 68 140
f 68 141 140
f 68 69 141
f 69 142 141
f 69 70 142
f 70 143 142
f 70 71 143
f 71 144 143
f 71 72 144
f 72 145 144
f 72 73 145
f 73 146 145
f 73 74 146
f 74 147 146
f 74 75 147
f 75 148 147
f 75 76 148
f 76 149 148
f 76 77 149
f 77 150 149
f 77 78 150
f 78 151 150
f 78 79 151
f 79 152 151
f 79 80 152
f 80 153 152
f 80 81 153
f 81 154 153
f 81 82 154
f 82 155 154
f 82 83 155
f 83 156 155
f 83 84 156
f 84 157 156
f 84 85 157
f 85 158 157
f 85 86 158
f 86 159 158
f 86 87 159
f 87 160 159
f 87 88 160
f 88 161 160
f 88 89 161
f 89 162 161
f 89 90 162
f 90 163 162
f 90 91 163
f 91 164 163
f 91 92 164
f 92 165 164
f 92 93 165
f 93 166 165
f 93 94 166
f 94 167 166
f 94 95 167
f 95 168 167
f 95 96 168
f 96 169 168
f 96 97 169
f 97 170 169
f 97 98 170
f 98 171 170
f 98 99 171
f 99 172 171
f 99 100 172
f 100 173 172
f 100 60 173
f 60 174 173
f 60 175 174
f 60 176 175
f 60 133 176
f 121 177 178
f 121 179 177
f 121 180 179
f 121 181 180
f 121 182 181
f 121 183 182
f 121 184 183
f 121 185 184
f 121 186 185
f 133 187 188
f 133 188 189
f 133 189 190
f 133 190 191
f 133 191 192
f 133 192 193
f 133 193 194
f 133 194 195
f 133 195 196
f 133 196 197
f 121 134 186
f 134 198 186
f 134 135 198
f 135 199 198
f 135 136 199
f 136 200 199
f 136 137 200
f 137 201 200
f 137 138 201
f 138 202 201
f 138 139 202
f 139 203 202
f 139 140 203
f 140 204 203
f 140 141 204
f 141 205 204
f 141 142 205
f 142 206 205
f 142 143 206
f 143 207 206
f 143 144 207
f 144 208 207
f 144 145 208
f 145 209 208
f 145 146 209
f 146 210 209
f 146 147 210
f 147 211 210
f 147 148 211
f 148 212 211
f 148 149 212
f 149 213 212
f 149 150 213
f 150 214 213
f 150 151 214
f 151 215 214
f 151 152 215
f 152 216 215
f 152 153 216
f 153 217 216
f 153 154 217
f 154 218 217
f 154 155 218
f 155 197 218
f 155 156 197
f 156 157 197
f 157 158 197
f 158 159 197
f 159 160 197
f 160 161 197
f 161 162 197
f 162 163 197
f 163 164 197
f 164 165 197
f 165 166 197
f 166 167 197
f 167 168 197
f 168 169 197
f 169 170 197
f 170 171 197
f 171 172 197
f 172 173 197
f 173 174 197
f 174 175 197
f 175 176 197
f 176 133 197
f 186 219 220
f 186 221 219
f 186 222 221
f 186 223 222
f 186 224 223
f 186 225 224
f 186 226 225
f 186 227 226
f 186 228 227
f 186 229 228
f 197 230 231
f 197 231 232
f 197 232 233
f 197 233 234
f 197 234 235
f 197 235 236
f 197 236 237
f 197 237 238
f 197 238 239
f 197 239 229
f 186 198 229
f 198 199 229
f 199 200 229
f 200 201 229
f 201 202 229
f 202 203 229
f 203 204 229
f 204 205 229
f 205 206 229
f 206 207 229
f 207 208 229
f 208 209 229
f 209 210 229
f 210 211 229
f 211 212 229
f 212 213 229
f 213 214 229
f 214 215 229
f 215 216 229
f 216 217 229
f 217 218 229
f 218 197 229
