v -2.665000 -0.375000 -4.037670
v -2.664885 -0.380422 -4.042251
v -2.665000 -0.375000 -3.150000
v -2.664840 -0.381331 -3.150000
v -2.664553 -0.385657 -4.046873
v -2.664359 -0.387646 -3.150000
v -2.664021 -0.390710 -4.051524
v -2.663559 -0.393928 -3.150000
v -2.663306 -0.395585 -4.056191
v -2.662441 -0.400162 -3.150000
v -2.662425 -0.400288 -4.060862
v -2.661394 -0.404824 -4.065525
v -2.661010 -0.406332 -3.150000
v -2.660231 -0.409197 -4.070167
v -2.659267 -0.412420 -3.150000
v -2.658951 -0.413413 -4.074779
v -2.657563 -0.417476 -4.079353
v -2.657219 -0.418413 -3.150000
v -2.656074 -0.421392 -4.083883
v -2.654870 -0.424294 -3.150000
v -2.654494 -0.425165 -4.088364
v -2.652831 -0.428801 -4.092791
v -2.652226 -0.430049 -3.150000
v -2.651091 -0.432303 -4.097156
v -2.649293 -0.435663 -3.150000
v -2.649285 -0.435678 -4.101455
v -2.647417 -0.438931 -4.105682
v -2.646081 -0.441121 -3.150000
v -2.645491 -0.442066 -4.109840
v -2.643509 -0.445088 -4.113926
v -2.642595 -0.446409 -3.150000
v -2.641473 -0.448005 -4.117942
v -2.639385 -0.450819 -4.121888
v -2.638847 -0.451513 -3.150000
v -2.637247 -0.453538 -4.125765
v -2.635063 -0.456167 -4.129572
v -2.634845 -0.456422 -3.150000
v -2.632832 -0.458708 -4.133308
v -2.630599 -0.461121 -3.150000
v -2.630557 -0.461165 -4.136973
v -2.628238 -0.463539 -4.140564
v -2.626121 -0.465599 -3.150000
v -2.625877 -0.465831 -4.144080
v -2.623474 -0.468044 -4.147519
v -2.621422 -0.469845 -3.150000
v -2.621030 -0.470179 -4.150879
v -2.618547 -0.472239 -4.154159
v -2.616513 -0.473847 -3.150000
v -2.616025 -0.474223 -4.157356
v -2.613465 -0.476134 -4.160470
v -2.611409 -0.477595 -3.150000
v -2.610866 -0.477971 -4.163499
v -2.608229 -0.479737 -4.166441
v -2.606121 -0.481081 -3.150000
v -2.605555 -0.481431 -4.169295
v -2.602843 -0.483054 -4.172059
v -2.600663 -0.484293 -3.150000
v -2.600095 -0.484607 -4.174732
v -2.597310 -0.486091 -4.177310
v -2.595049 -0.487226 -3.150000
v -2.594487 -0.487504 -4.179788
v -2.591627 -0.488846 -4.182161
v -2.589294 -0.489870 -3.150000
v -2.588730 -0.490116 -4.184423
v -2.585794 -0.491313 -4.186570
v -2.583413 -0.492219 -3.150000
v -2.582821 -0.492438 -4.188596
v -2.579809 -0.493488 -4.190496
v -2.577420 -0.494267 -3.150000
v -2.576765 -0.494464 -4.192267
v -2.573696 -0.495363 -4.193905
v -2.571332 -0.496010 -3.150000
v -2.570608 -0.496185 -4.195406
v -2.567510 -0.496927 -4.196767
v -2.565162 -0.497441 -3.150000
v -2.564410 -0.497589 -4.197985
v -2.561313 -0.498169 -4.199056
v -2.558928 -0.498559 -3.150000
v -2.558228 -0.498666 -4.199977
v -2.555156 -0.499082 -4.200749
v -2.552646 -0.499359 -3.150000
v -2.552097 -0.499417 -4.201376
v -2.549052 -0.499675 -4.201859
v -2.546331 -0.499840 -3.150000
v -2.546021 -0.499857 -4.202202
v -2.543003 -0.499964 -4.202406
v -2.540000 -0.500000 -4.202474
v -2.540000 -0.500000 -3.150000
f 1 2 3
f 2 4 3
f 2 5 4
f 5 6 4
f 5 7 6
f 7 8 6
f 7 9 8
f 9 10 8
f 9 11 10
f 11 12 10
f 12 13 10
f 12 14 13
f 14 15 13
f 14 16 15
f 16 17 15
f 17 18 15
f 17 19 18
f 19 20 18
f 19 21 20
f 21 22 20
f 22 23 20
f 22 24 23
f 24 25 23
f 24 26 25
f 26 27 25
f 27 28 25
f 27 29 28
f 29 30 28
f 30 31 28
f 30 32 31
f 32 33 31
f 33 34 31
f 33 35 34
f 35 36 34
f 36 37 34
f 36 38 37
f 38 39 37
f 38 40 39
f 40 41 39
f 41 42 39
f 41 43 42
f 43 44 42
f 44 45 42
f 44 46 45
f 46 47 45
f 47 48 45
f 47 49 48
f 49 50 48
f 50 51 48
f 50 52 51
f 52 53 51
f 53 54 51
f 53 55 54
f 55 56 54
f 56 57 54
f 56 58 57
f 58 59 57
f 59 60 57
f 59 61 60
f 61 62 60
f 62 63 60
f 62 64 63
f 64 65 63
f 65 66 63
f 65 67 66
f 67 68 66
f 68 69 66
f 68 70 69
f 70 71 69
f 71 72 69
f 71 73 72
f 73 74 72
f 74 75 72
f 74 76 75
f 76 77 75
f 77 78 75
f 77 79 78
f 79 80 78
f 80 81 78
f 80 82 81
f 82 83 81
f 83 84 81
f 83 85 84
f 85 86 84
f 86 87 84
f 87 88 84
