v 1.363167 -0.180000 0.600000
v 1.357971 -0.215731 0.600000
v 1.351838 -0.251313 0.600000
v 1.344774 -0.286721 0.600000
v 1.336781 -0.321932 0.600000
v 1.327868 -0.356921 0.600000
v 1.318038 -0.391664 0.600000
v 1.307300 -0.426137 0.600000
v 1.295660 -0.460316 0.600000
v 1.283127 -0.494177 0.600000
v 1.269709 -0.527698 0.600000
v 1.255415 -0.560855 0.600000
v 1.240256 -0.593625 0.600000
v 1.224241 -0.625986 0.600000
v 1.207383 -0.657915 0.600000
v 1.189692 -0.689390 0.600000
v 1.171180 -0.720390 0.600000
v 1.151861 -0.750894 0.600000
v 1.131748 -0.780879 0.600000
v 1.110854 -0.810326 0.600000
v 1.089194 -0.839215 0.600000
v 1.066783 -0.867524 0.600000
v 1.043637 -0.895236 0.600000
v 1.019771 -0.922330 0.600000
v 0.995202 -0.948788 0.600000
v 0.969946 -0.974592 0.600000
v 0.944022 -0.999724 0.600000
v 0.917447 -1.024166 0.600000
v 0.890239 -1.047903 0.600000
v 0.862417 -1.070916 0.600000
v 0.834000 -1.093192 0.600000
v 0.805009 -1.114713 0.600000
v 0.775462 -1.135466 0.600000
v 0.745381 -1.155436 0.600000
v 0.714786 -1.174609 0.600000
v 0.683697 -1.192972 0.600000
v 0.652138 -1.210513 0.600000
v 0.620129 -1.227219 0.600000
v 0.587692 -1.243078 0.600000
v 0.554849 -1.258081 0.600000
v 0.553852 -1.258533 0.600000
v 0.552872 -1.259001 0.600000
v 0.551910 -1.259485 0.600000
v 0.550964 -1.259987 0.600000
v 0.550034 -1.260504 0.600000
v 0.549122 -1.261039 0.600000
v 0.548225 -1.261590 0.600000
v 0.547345 -1.262158 0.600000
v 0.546480 -1.262742 0.600000
v 0.545631 -1.263343 0.600000
v 0.544798 -1.263962 0.600000
v 0.543980 -1.264597 0.600000
v 0.543177 -1.265249 0.600000
v 0.542388 -1.265919 0.600000
v 0.541614 -1.266605 0.600000
v 0.540855 -1.267309 0.600000
v 0.540109 -1.268030 0.600000
v 0.539378 -1.268768 0.600000
v 0.538661 -1.269524 0.600000
v 0.537957 -1.270297 0.600000
v 0.537268 -1.271086 0.600000
v 0.536593 -1.271890 0.600000
v 0.535934 -1.272710 0.600000
v 0.535291 -1.273544 0.600000
v 0.534663 -1.274392 0.600000
v 0.534052 -1.275253 0.600000
v 0.533458 -1.276126 0.600000
v 0.532881 -1.277011 0.600000
v 0.532322 -1.277908 0.600000
v 0.531782 -1.278815 0.600000
v 0.531259 -1.279732 0.600000
v 0.530756 -1.280658 0.600000
v 0.530272 -1.281593 0.600000
v 0.529808 -1.282536 0.600000
v 0.529364 -1.283486 0.600000
v 0.528941 -1.284443 0.600000
v 0.528539 -1.285406 0.600000
v 0.528159 -1.286375 0.600000
v 0.527800 -1.287349 0.600000
v 0.527462 -1.288330 0.600000
v 0.527146 -1.289317 0.600000
v 0.526851 -1.290311 0.600000
v 0.526578 -1.291312 0.600000
v 0.526327 -1.292319 0.600000
v 0.526097 -1.293334 0.600000
v 0.525889 -1.294356 0.600000
v 0.525703 -1.295386 0.600000
v 0.525539 -1.296424 0.600000
v 0.525396 -1.297470 0.600000
v 0.525275 -1.298524 0.600000
v 0.525176 -1.299586 0.600000
v 0.525099 -1.300658 0.600000
v 0.525044 -1.301738 0.600000
v 0.525011 -1.302828 0.600000
v 0.525000 -1.303926 0.600000
v 0.525000 -1.325000 0.600000
v 0.524679 -1.337662 0.600000
v 0.523717 -1.350292 0.600000
v 0.522117 -1.362857 0.600000
v 0.519882 -1.375325 0.600000
v 0.517019 -1.387663 0.600000
v 0.513535 -1.399841 0.600000
v 0.509438 -1.411826 0.600000
v 0.504739 -1.423589 0.600000
v 0.499451 -1.435099 0.600000
v 0.493587 -1.446325 0.600000
v 0.487161 -1.457241 0.600000
v 0.480191 -1.467817 0.600000
v 0.472694 -1.478026 0.600000
v 0.464690 -1.487843 0.600000
v 0.456198 -1.497242 0.600000
v 0.447242 -1.506198 0.600000
v 0.437843 -1.514690 0.600000
v 0.428026 -1.522694 0.600000
v 0.417817 -1.530191 0.600000
v 0.407241 -1.537161 0.600000
v 0.396325 -1.543587 0.600000
v 0.385099 -1.549451 0.600000
v 0.373589 -1.554739 0.600000
v 0.361826 -1.559438 0.600000
v 0.349841 -1.563535 0.600000
v 0.337663 -1.567019 0.600000
v 0.325325 -1.569882 0.600000
v 0.312857 -1.572117 0.600000
v 0.300292 -1.573717 0.600000
v 0.287662 -1.574679 0.600000
v 0.275000 -1.575000 0.600000
v -0.625000 -1.575000 0.600000
v -0.634926 -1.574803 0.600000
v -0.644836 -1.574212 0.600000
v -0.654715 -1.573228 0.600000
v -0.664547 -1.571852 0.600000
v -0.674317 -1.570087 0.600000
v -0.684009 -1.567936 0.600000
v -0.693607 -1.565402 0.600000
v -0.703098 -1.562488 0.600000
v -0.712466 -1.559200 0.600000
v -0.721695 -1.555543 0.600000
v -0.730772 -1.551522 0.600000
v -0.739682 -1.547144 0.600000
v -0.748412 -1.542415 0.600000
v -0.756947 -1.537344 0.600000
v -0.765273 -1.531938 0.600000
v -0.773379 -1.526206 0.600000
v -0.781251 -1.520156 0.600000
v -0.788876 -1.513798 0.600000
v -0.796242 -1.507143 0.600000
v -0.803339 -1.500200 0.600000
v -0.810154 -1.492982 0.600000
v -0.816678 -1.485498 0.600000
v -0.822899 -1.477761 0.600000
v -0.828808 -1.469783 0.600000
v -0.834396 -1.461577 0.600000
v -0.839653 -1.453156 0.600000
v -0.844572 -1.444532 0.600000
v -0.849145 -1.435720 0.600000
v -0.853364 -1.426734 0.600000
v -0.857223 -1.417587 0.600000
v -0.860732 -1.408300 0.600000
v -0.861124 -1.407232 0.600000
v -0.861536 -1.406179 0.600000
v -0.861970 -1.405140 0.600000
v -0.862425 -1.404116 0.600000
v -0.862901 -1.403105 0.600000
v -0.863399 -1.402110 0.600000
v -0.863918 -1.401128 0.600000
v -0.864458 -1.400159 0.600000
v -0.865019 -1.399205 0.600000
v -0.865601 -1.398264 0.600000
v -0.866205 -1.397337 0.600000
v -0.866829 -1.396423 0.600000
v -0.867474 -1.395522 0.600000
v -0.868141 -1.394635 0.600000
v -0.868828 -1.393760 0.600000
v -0.869536 -1.392899 0.600000
v -0.870263 -1.392053 0.600000
v -0.871010 -1.391221 0.600000
v -0.871776 -1.390405 0.600000
v -0.872561 -1.389606 0.600000
v -0.873364 -1.388823 0.600000
v -0.874184 -1.388057 0.600000
v -0.875022 -1.387309 0.600000
v -0.875876 -1.386580 0.600000
v -0.876747 -1.385870 0.600000
v -0.877634 -1.385180 0.600000
v -0.878537 -1.384510 0.600000
v -0.879454 -1.383861 0.600000
v -0.880386 -1.383233 0.600000
v -0.881331 -1.382627 0.600000
v -0.882290 -1.382043 0.600000
v -0.883261 -1.381481 0.600000
v -0.884244 -1.380941 0.600000
v -0.885238 -1.380423 0.600000
v -0.886242 -1.379927 0.600000
v -0.887256 -1.379454 0.600000
v -0.888279 -1.379005 0.600000
v -0.889311 -1.378578 0.600000
v -0.890350 -1.378174 0.600000
v -0.891396 -1.377794 0.600000
v -0.892449 -1.377438 0.600000
v -0.893507 -1.377105 0.600000
v -0.894571 -1.376796 0.600000
v -0.895641 -1.376511 0.600000
v -0.896717 -1.376251 0.600000
v -0.897799 -1.376015 0.600000
v -0.898888 -1.375803 0.600000
v -0.899984 -1.375615 0.600000
v -0.901087 -1.375453 0.600000
v -0.902197 -1.375315 0.600000
v -0.903315 -1.375202 0.600000
v -0.904440 -1.375113 0.600000
v -0.905573 -1.375050 0.600000
v -0.906715 -1.375012 0.600000
v -0.907865 -1.374999 0.600000
v -1.428260 -1.375000 0.600000
v -1.550124 -1.375000 0.600000
v -1.561694 -1.374867 0.600000
v -1.573195 -1.374471 0.600000
v -1.584629 -1.373811 0.600000
v -1.595999 -1.372891 0.600000
v -1.607306 -1.371711 0.600000
v -1.618552 -1.370274 0.600000
v -1.629741 -1.368580 0.600000
v -1.640870 -1.366631 0.600000
v -1.651937 -1.364430 0.600000
v -1.662933 -1.361978 0.600000
v -1.673854 -1.359277 0.600000
v -1.684693 -1.356328 0.600000
v -1.695445 -1.353134 0.600000
v -1.706101 -1.349696 0.600000
v -1.716659 -1.346017 0.600000
v -1.727113 -1.342097 0.600000
v -1.737458 -1.337941 0.600000
v -1.747692 -1.333550 0.600000
v -1.757811 -1.328927 0.600000
v -1.767809 -1.324073 0.600000
v -1.777683 -1.318992 0.600000
v -1.787429 -1.313686 0.600000
v -1.797044 -1.308157 0.600000
v -1.806522 -1.302409 0.600000
v -1.815860 -1.296443 0.600000
v -1.825054 -1.290262 0.600000
v -1.834099 -1.283869 0.600000
v -1.842992 -1.277268 0.600000
v -1.851729 -1.270459 0.600000
v -1.860306 -1.263448 0.600000
v -1.868720 -1.256236 0.600000
v -1.876966 -1.248827 0.600000
v -1.885041 -1.241224 0.600000
v -1.892941 -1.233430 0.600000
v -1.900663 -1.225448 0.600000
v -1.908202 -1.217282 0.600000
v -1.915557 -1.208935 0.600000
v -1.922722 -1.200409 0.600000
v -1.929695 -1.191709 0.600000
v -1.936472 -1.182836 0.600000
v -1.943050 -1.173795 0.600000
v -1.949426 -1.164589 0.600000
v -1.955595 -1.155223 0.600000
v -1.961554 -1.145701 0.600000
v -1.967301 -1.136029 0.600000
v -1.972831 -1.126212 0.600000
v -1.978141 -1.116257 0.600000
v -1.983227 -1.106168 0.600000
v -1.988086 -1.095949 0.600000
v -1.992717 -1.085600 0.600000
v -1.997119 -1.075119 0.600000
v -2.001290 -1.064504 0.600000
v -2.005230 -1.053751 0.600000
v -2.008938 -1.042858 0.600000
v -2.012414 -1.031823 0.600000
v -2.013123 -1.029473 0.600000
v -2.013831 -1.027123 0.600000
v -2.014538 -1.024772 0.600000
v -2.015242 -1.022421 0.600000
v -2.015945 -1.020070 0.600000
v -2.016647 -1.017717 0.600000
v -2.017347 -1.015365 0.600000
v -2.018045 -1.013012 0.600000
v -2.018742 -1.010658 0.600000
v -2.019437 -1.008304 0.600000
v -2.020130 -1.005949 0.600000
v -2.020822 -1.003594 0.600000
v -2.021512 -1.001239 0.600000
v -2.022201 -0.998883 0.600000
v -2.022888 -0.996527 0.600000
v -2.023573 -0.994170 0.600000
v -2.024257 -0.991812 0.600000
v -2.024939 -0.989454 0.600000
v -2.025619 -0.987096 0.600000
v -2.026298 -0.984737 0.600000
v -2.026975 -0.982378 0.600000
v -2.027651 -0.980018 0.600000
v -2.028325 -0.977658 0.600000
v -2.028997 -0.975297 0.600000
v -2.029668 -0.972936 0.600000
v -2.030337 -0.970575 0.600000
v -2.031004 -0.968213 0.600000
v -2.031670 -0.965850 0.600000
v -2.032334 -0.963487 0.600000
v -2.032997 -0.961124 0.600000
v -2.033658 -0.958760 0.600000
v -2.034317 -0.956396 0.600000
v -2.034975 -0.954031 0.600000
v -2.035631 -0.951666 0.600000
v -2.036285 -0.949300 0.600000
v -2.036938 -0.946934 0.600000
v -2.037589 -0.944567 0.600000
v -2.038238 -0.942200 0.600000
v -2.038886 -0.939833 0.600000
v -2.039533 -0.937465 0.600000
v -2.040177 -0.935097 0.600000
v -2.040820 -0.932728 0.600000
v -2.041462 -0.930358 0.600000
v -2.042101 -0.927989 0.600000
v -2.042739 -0.925619 0.600000
v -2.043376 -0.923248 0.600000
v -2.044011 -0.920877 0.600000
v -2.044644 -0.918506 0.600000
v -2.045276 -0.916134 0.600000
v -2.045906 -0.913761 0.600000
v -2.046534 -0.911389 0.600000
v -2.047161 -0.909016 0.600000
v -2.047786 -0.906642 0.600000
v -2.048409 -0.904268 0.600000
v -2.049031 -0.901893 0.600000
v -2.049651 -0.899519 0.600000
v -2.050269 -0.897143 0.600000
v -2.050886 -0.894767 0.600000
v -2.051502 -0.892391 0.600000
v -2.055297 -0.877582 0.600000
v -2.059028 -0.862757 0.600000
v -2.062696 -0.847915 0.600000
v -2.066300 -0.833058 0.600000
v -2.069841 -0.818186 0.600000
v -2.073318 -0.803299 0.600000
v -2.076731 -0.788397 0.600000
v -2.080079 -0.773480 0.600000
v -2.083364 -0.758550 0.600000
v -2.086585 -0.743605 0.600000
v -2.089742 -0.728646 0.600000
v -2.092835 -0.713675 0.600000
v -2.095863 -0.698690 0.600000
v -2.098827 -0.683692 0.600000
v -2.101727 -0.668682 0.600000
v -2.104562 -0.653659 0.600000
v -2.107333 -0.638624 0.600000
v -2.110039 -0.623578 0.600000
v -2.112681 -0.608520 0.600000
v -2.115258 -0.593451 0.600000
v -2.117771 -0.578371 0.600000
v -2.120219 -0.563280 0.600000
v -2.122602 -0.548180 0.600000
v -2.124920 -0.533068 0.600000
v -2.127174 -0.517948 0.600000
v -2.129363 -0.502817 0.600000
v -2.131486 -0.487678 0.600000
v -2.133545 -0.472529 0.600000
v -2.135539 -0.457372 0.600000
v -2.137468 -0.442206 0.600000
v -2.139332 -0.427032 0.600000
v -2.141130 -0.411851 0.600000
v -2.142864 -0.396661 0.600000
v -2.144532 -0.381465 0.600000
v -2.146136 -0.366261 0.600000
v -2.147674 -0.351051 0.600000
v -2.149146 -0.335834 0.600000
v -2.150554 -0.320611 0.600000
v -2.151896 -0.305383 0.600000
v -2.153173 -0.290148 0.600000
v -2.154385 -0.274908 0.600000
v -2.155531 -0.259664 0.600000
v -2.156612 -0.244414 0.600000
v -2.157627 -0.229160 0.600000
v -2.158577 -0.213902 0.600000
v -2.159462 -0.198639 0.600000
v -2.160281 -0.183373 0.600000
v -2.161034 -0.168104 0.600000
v -2.161723 -0.152832 0.600000
v -2.162345 -0.137557 0.600000
v -2.162902 -0.122279 0.600000
v -2.163394 -0.106999 0.600000
v -2.163820 -0.091717 0.600000
v -2.164181 -0.076433 0.600000
v -2.164476 -0.061148 0.600000
v -2.164705 -0.045862 0.600000
v -2.164869 -0.030575 0.600000
v -2.164967 -0.015288 0.600000
v -2.165000 0.000000 0.600000
v -2.114913 0.000000 0.600000
v -2.114876 -0.016170 0.600000
v -2.114763 -0.032339 0.600000
v -2.114577 -0.048507 0.600000
v -2.114315 -0.064675 0.600000
v -2.113979 -0.080841 0.600000
v -2.113568 -0.097005 0.600000
v -2.113083 -0.113167 0.600000
v -2.112524 -0.129327 0.600000
v -2.111890 -0.145484 0.600000
v -2.111181 -0.161638 0.600000
v -2.110398 -0.177789 0.600000
v -2.109541 -0.193935 0.600000
v -2.108610 -0.210078 0.600000
v -2.107604 -0.226216 0.600000
v -2.106525 -0.242350 0.600000
v -2.105371 -0.258478 0.600000
v -2.104143 -0.274601 0.600000
v -2.102841 -0.290718 0.600000
v -2.101465 -0.306829 0.600000
v -2.100015 -0.322933 0.600000
v -2.098491 -0.339031 0.600000
v -2.096893 -0.355121 0.600000
v -2.095221 -0.371204 0.600000
v -2.093476 -0.387279 0.600000
v -2.091657 -0.403346 0.600000
v -2.089764 -0.419404 0.600000
v -2.087797 -0.435454 0.600000
v -2.085757 -0.451494 0.600000
v -2.083643 -0.467525 0.600000
v -2.081456 -0.483546 0.600000
v -2.079195 -0.499557 0.600000
v -2.076861 -0.515557 0.600000
v -2.074454 -0.531547 0.600000
v -2.071973 -0.547525 0.600000
v -2.069419 -0.563491 0.600000
v -2.066791 -0.579446 0.600000
v -2.064090 -0.595388 0.600000
v -2.061316 -0.611318 0.600000
v -2.058469 -0.627235 0.600000
v -2.055549 -0.643139 0.600000
v -2.052556 -0.659029 0.600000
v -2.049490 -0.674905 0.600000
v -2.046351 -0.690767 0.600000
v -2.043138 -0.706614 0.600000
v -2.039853 -0.722446 0.600000
v -2.036496 -0.738263 0.600000
v -2.033065 -0.754065 0.600000
v -2.029562 -0.769850 0.600000
v -2.025985 -0.785619 0.600000
v -2.022337 -0.801372 0.600000
v -2.018615 -0.817107 0.600000
v -2.014821 -0.832825 0.600000
v -2.010955 -0.848526 0.600000
v -2.007016 -0.864208 0.600000
v -2.003004 -0.879872 0.600000
v -2.002344 -0.882422 0.600000
v -2.001682 -0.884971 0.600000
v -2.001019 -0.887517 0.600000
v -2.000354 -0.890062 0.600000
v -1.999687 -0.892605 0.600000
v -1.999019 -0.895147 0.600000
v -1.998350 -0.897687 0.600000
v -1.997679 -0.900225 0.600000
v -1.997006 -0.902761 0.600000
v -1.996332 -0.905296 0.600000
v -1.995656 -0.907829 0.600000
v -1.994979 -0.910361 0.600000
v -1.994300 -0.912891 0.600000
v -1.993620 -0.915419 0.600000
v -1.992938 -0.917946 0.600000
v -1.992254 -0.920472 0.600000
v -1.991569 -0.922996 0.600000
v -1.990882 -0.925519 0.600000
v -1.990194 -0.928041 0.600000
v -1.989504 -0.930561 0.600000
v -1.988813 -0.933079 0.600000
v -1.988120 -0.935596 0.600000
v -1.987425 -0.938112 0.600000
v -1.986729 -0.940626 0.600000
v -1.986032 -0.943137 0.600000
v -1.985333 -0.945647 0.600000
v -1.984633 -0.948155 0.600000
v -1.983931 -0.950661 0.600000
v -1.983228 -0.953165 0.600000
v -1.982524 -0.955667 0.600000
v -1.981818 -0.958166 0.600000
v -1.981112 -0.960663 0.600000
v -1.980403 -0.963158 0.600000
v -1.979694 -0.965650 0.600000
v -1.978984 -0.968139 0.600000
v -1.978272 -0.970626 0.600000
v -1.977559 -0.973110 0.600000
v -1.976845 -0.975591 0.600000
v -1.976130 -0.978069 0.600000
v -1.975413 -0.980545 0.600000
v -1.974696 -0.983017 0.600000
v -1.973977 -0.985488 0.600000
v -1.973257 -0.987955 0.600000
v -1.972536 -0.990420 0.600000
v -1.971814 -0.992882 0.600000
v -1.971091 -0.995342 0.600000
v -1.970366 -0.997799 0.600000
v -1.969640 -1.000253 0.600000
v -1.968913 -1.002705 0.600000
v -1.968185 -1.005155 0.600000
v -1.967456 -1.007602 0.600000
v -1.966725 -1.010046 0.600000
v -1.965993 -1.012489 0.600000
v -1.965260 -1.014929 0.600000
v -1.964525 -1.017366 0.600000
v -1.961381 -1.027364 0.600000
v -1.958029 -1.037219 0.600000
v -1.954472 -1.046933 0.600000
v -1.950709 -1.056508 0.600000
v -1.946744 -1.065946 0.600000
v -1.942576 -1.075251 0.600000
v -1.938208 -1.084423 0.600000
v -1.933639 -1.093466 0.600000
v -1.928873 -1.102381 0.600000
v -1.923910 -1.111171 0.600000
v -1.918753 -1.119832 0.600000
v -1.913405 -1.128360 0.600000
v -1.907871 -1.136751 0.600000
v -1.902154 -1.144999 0.600000
v -1.896257 -1.153100 0.600000
v -1.890183 -1.161049 0.600000
v -1.883937 -1.168843 0.600000
v -1.877522 -1.176476 0.600000
v -1.870941 -1.183943 0.600000
v -1.864198 -1.191243 0.600000
v -1.857296 -1.198373 0.600000
v -1.850237 -1.205330 0.600000
v -1.843026 -1.212115 0.600000
v -1.835664 -1.218723 0.600000
v -1.828155 -1.225155 0.600000
v -1.820503 -1.231407 0.600000
v -1.812709 -1.237478 0.600000
v -1.804778 -1.243366 0.600000
v -1.796712 -1.249069 0.600000
v -1.788513 -1.254584 0.600000
v -1.780185 -1.259910 0.600000
v -1.771729 -1.265044 0.600000
v -1.763149 -1.269983 0.600000
v -1.754447 -1.274725 0.600000
v -1.745626 -1.279268 0.600000
v -1.736688 -1.283610 0.600000
v -1.727635 -1.287747 0.600000
v -1.718472 -1.291679 0.600000
v -1.709204 -1.295402 0.600000
v -1.699836 -1.298915 0.600000
v -1.690374 -1.302215 0.600000
v -1.680824 -1.305301 0.600000
v -1.671190 -1.308170 0.600000
v -1.661478 -1.310821 0.600000
v -1.651694 -1.313250 0.600000
v -1.641844 -1.315457 0.600000
v -1.631930 -1.317439 0.600000
v -1.621951 -1.319194 0.600000
v -1.611907 -1.320720 0.600000
v -1.601795 -1.322016 0.600000
v -1.591612 -1.323080 0.600000
v -1.581359 -1.323909 0.600000
v -1.571031 -1.324502 0.600000
v -1.560629 -1.324858 0.600000
v -1.550149 -1.324973 0.600000
v -1.547958 -1.324972 0.600000
v -1.545766 -1.324970 0.600000
v -1.543574 -1.324968 0.600000
v -1.541380 -1.324967 0.600000
v -1.539186 -1.324965 0.600000
v -1.536991 -1.324963 0.600000
v -1.534794 -1.324962 0.600000
v -1.532597 -1.324960 0.600000
v -1.530399 -1.324958 0.600000
v -1.528200 -1.324957 0.600000
v -1.526001 -1.324955 0.600000
v -1.523800 -1.324953 0.600000
v -1.521599 -1.324952 0.600000
v -1.519396 -1.324950 0.600000
v -1.517193 -1.324948 0.600000
v -1.514989 -1.324947 0.600000
v -1.512784 -1.324945 0.600000
v -1.510579 -1.324943 0.600000
v -1.508372 -1.324942 0.600000
v -1.506165 -1.324940 0.600000
v -1.503957 -1.324939 0.600000
v -1.501748 -1.324937 0.600000
v -1.499538 -1.324936 0.600000
v -1.497327 -1.324935 0.600000
v -1.495116 -1.324933 0.600000
v -1.492903 -1.324932 0.600000
v -1.490689 -1.324931 0.600000
v -1.488475 -1.324929 0.600000
v -1.486259 -1.324928 0.600000
v -1.484042 -1.324927 0.600000
v -1.481824 -1.324926 0.600000
v -1.479606 -1.324925 0.600000
v -1.477386 -1.324924 0.600000
v -1.475165 -1.324923 0.600000
v -1.472943 -1.324922 0.600000
v -1.470719 -1.324921 0.600000
v -1.468495 -1.324920 0.600000
v -1.466269 -1.324919 0.600000
v -1.464042 -1.324919 0.600000
v -1.461814 -1.324918 0.600000
v -1.459585 -1.324917 0.600000
v -1.457355 -1.324917 0.600000
v -1.455124 -1.324916 0.600000
v -1.452891 -1.324916 0.600000
v -1.450657 -1.324915 0.600000
v -1.448423 -1.324915 0.600000
v -1.446187 -1.324914 0.600000
v -1.443950 -1.324914 0.600000
v -1.441711 -1.324914 0.600000
v -1.439472 -1.324913 0.600000
v -1.437232 -1.324913 0.600000
v -1.434990 -1.324913 0.600000
v -1.432748 -1.324913 0.600000
v -1.430504 -1.324913 0.600000
v -1.428260 -1.324913 0.600000
v -0.907905 -1.324911 0.600000
v -0.905609 -1.324936 0.600000
v -0.903329 -1.325012 0.600000
v -0.901066 -1.325138 0.600000
v -0.898818 -1.325314 0.600000
v -0.896585 -1.325540 0.600000
v -0.894368 -1.325816 0.600000
v -0.892164 -1.326141 0.600000
v -0.889974 -1.326515 0.600000
v -0.887798 -1.326938 0.600000
v -0.885634 -1.327410 0.600000
v -0.883483 -1.327931 0.600000
v -0.881343 -1.328500 0.600000
v -0.879215 -1.329118 0.600000
v -0.877098 -1.329783 0.600000
v -0.874992 -1.330496 0.600000
v -0.872898 -1.331257 0.600000
v -0.870818 -1.332065 0.600000
v -0.868754 -1.332919 0.600000
v -0.866706 -1.333820 0.600000
v -0.864675 -1.334766 0.600000
v -0.862665 -1.335758 0.600000
v -0.860675 -1.336795 0.600000
v -0.858707 -1.337876 0.600000
v -0.856763 -1.339002 0.600000
v -0.854844 -1.340172 0.600000
v -0.852951 -1.341385 0.600000
v -0.851086 -1.342641 0.600000
v -0.849250 -1.343940 0.600000
v -0.847445 -1.345281 0.600000
v -0.845671 -1.346662 0.600000
v -0.843929 -1.348083 0.600000
v -0.842220 -1.349542 0.600000
v -0.840544 -1.351039 0.600000
v -0.838903 -1.352571 0.600000
v -0.837297 -1.354139 0.600000
v -0.835727 -1.355740 0.600000
v -0.834195 -1.357373 0.600000
v -0.832700 -1.359038 0.600000
v -0.831244 -1.360733 0.600000
v -0.829827 -1.362457 0.600000
v -0.828451 -1.364208 0.600000
v -0.827116 -1.365987 0.600000
v -0.825822 -1.367792 0.600000
v -0.824569 -1.369624 0.600000
v -0.823358 -1.371484 0.600000
v -0.822189 -1.373372 0.600000
v -0.821061 -1.375289 0.600000
v -0.819975 -1.377235 0.600000
v -0.818931 -1.379210 0.600000
v -0.817928 -1.381216 0.600000
v -0.816968 -1.383253 0.600000
v -0.816049 -1.385321 0.600000
v -0.815172 -1.387421 0.600000
v -0.814337 -1.389553 0.600000
v -0.813544 -1.391718 0.600000
v -0.810747 -1.399149 0.600000
v -0.807658 -1.406462 0.600000
v -0.804281 -1.413648 0.600000
v -0.800621 -1.420693 0.600000
v -0.796685 -1.427588 0.600000
v -0.792478 -1.434321 0.600000
v -0.788007 -1.440882 0.600000
v -0.783279 -1.447261 0.600000
v -0.778302 -1.453446 0.600000
v -0.773083 -1.459430 0.600000
v -0.767631 -1.465201 0.600000
v -0.761955 -1.470751 0.600000
v -0.756062 -1.476072 0.600000
v -0.749963 -1.481155 0.600000
v -0.743667 -1.485991 0.600000
v -0.737183 -1.490574 0.600000
v -0.730524 -1.494896 0.600000
v -0.723697 -1.498951 0.600000
v -0.716716 -1.502731 0.600000
v -0.709589 -1.506231 0.600000
v -0.702330 -1.509445 0.600000
v -0.694948 -1.512369 0.600000
v -0.687457 -1.514998 0.600000
v -0.679867 -1.517327 0.600000
v -0.672190 -1.519353 0.600000
v -0.664439 -1.521073 0.600000
v -0.656626 -1.522484 0.600000
v -0.648763 -1.523583 0.600000
v -0.640863 -1.524370 0.600000
v -0.632938 -1.524842 0.600000
v -0.625000 -1.525000 0.600000
v 0.275000 -1.525000 0.600000
v 0.285130 -1.524743 0.600000
v 0.295234 -1.523974 0.600000
v 0.305286 -1.522694 0.600000
v 0.315260 -1.520906 0.600000
v 0.325131 -1.518615 0.600000
v 0.334873 -1.515828 0.600000
v 0.344461 -1.512550 0.600000
v 0.353871 -1.508792 0.600000
v 0.363079 -1.504561 0.600000
v 0.372060 -1.499869 0.600000
v 0.380793 -1.494729 0.600000
v 0.389254 -1.489153 0.600000
v 0.397421 -1.483155 0.600000
v 0.405274 -1.476752 0.600000
v 0.412793 -1.469959 0.600000
v 0.419959 -1.462793 0.600000
v 0.426752 -1.455274 0.600000
v 0.433155 -1.447421 0.600000
v 0.439153 -1.439254 0.600000
v 0.444729 -1.430793 0.600000
v 0.449869 -1.422060 0.600000
v 0.454561 -1.413079 0.600000
v 0.458792 -1.403871 0.600000
v 0.462550 -1.394461 0.600000
v 0.465828 -1.384873 0.600000
v 0.468615 -1.375131 0.600000
v 0.470906 -1.365260 0.600000
v 0.472694 -1.355286 0.600000
v 0.473974 -1.345234 0.600000
v 0.474743 -1.335130 0.600000
v 0.475000 -1.325000 0.600000
v 0.475000 -1.303926 0.600000
v 0.475022 -1.301766 0.600000
v 0.475089 -1.299619 0.600000
v 0.475201 -1.297486 0.600000
v 0.475357 -1.295367 0.600000
v 0.475557 -1.293261 0.600000
v 0.475800 -1.291167 0.600000
v 0.476088 -1.289086 0.600000
v 0.476419 -1.287017 0.600000
v 0.476793 -1.284959 0.600000
v 0.477211 -1.282912 0.600000
v 0.477671 -1.280876 0.600000
v 0.478174 -1.278850 0.600000
v 0.478720 -1.276835 0.600000
v 0.479309 -1.274829 0.600000
v 0.479939 -1.272833 0.600000
v 0.480611 -1.270847 0.600000
v 0.481325 -1.268873 0.600000
v 0.482081 -1.266913 0.600000
v 0.482877 -1.264966 0.600000
v 0.483714 -1.263035 0.600000
v 0.484591 -1.261121 0.600000
v 0.485508 -1.259224 0.600000
v 0.486465 -1.257346 0.600000
v 0.487462 -1.255487 0.600000
v 0.488497 -1.253650 0.600000
v 0.489572 -1.251835 0.600000
v 0.490685 -1.250044 0.600000
v 0.491836 -1.248276 0.600000
v 0.493025 -1.246535 0.600000
v 0.494250 -1.244819 0.600000
v 0.495512 -1.243130 0.600000
v 0.496808 -1.241469 0.600000
v 0.498138 -1.239836 0.600000
v 0.499501 -1.238232 0.600000
v 0.500895 -1.236658 0.600000
v 0.502321 -1.235114 0.600000
v 0.503777 -1.233602 0.600000
v 0.505262 -1.232121 0.600000
v 0.506776 -1.230673 0.600000
v 0.508316 -1.229258 0.600000
v 0.509884 -1.227877 0.600000
v 0.511476 -1.226531 0.600000
v 0.513094 -1.225219 0.600000
v 0.514738 -1.223943 0.600000
v 0.516409 -1.222702 0.600000
v 0.518106 -1.221496 0.600000
v 0.519830 -1.220325 0.600000
v 0.521582 -1.219189 0.600000
v 0.523363 -1.218088 0.600000
v 0.525172 -1.217022 0.600000
v 0.527010 -1.215992 0.600000
v 0.528877 -1.214997 0.600000
v 0.530774 -1.214038 0.600000
v 0.532702 -1.213113 0.600000
v 0.534660 -1.212225 0.600001
v 0.560004 -1.200721 0.600000
v 0.585102 -1.188690 0.600000
v 0.609943 -1.176135 0.600000
v 0.634515 -1.163064 0.600000
v 0.658808 -1.149481 0.600000
v 0.682811 -1.135392 0.600000
v 0.706513 -1.120804 0.600000
v 0.729903 -1.105721 0.600000
v 0.752970 -1.090149 0.600000
v 0.775703 -1.074095 0.600000
v 0.798091 -1.057563 0.600000
v 0.820126 -1.040562 0.600000
v 0.841798 -1.023100 0.600000
v 0.863098 -1.005186 0.600000
v 0.884018 -0.986829 0.600000
v 0.904550 -0.968038 0.600000
v 0.924684 -0.948820 0.600000
v 0.944411 -0.929186 0.600000
v 0.963723 -0.909144 0.600000
v 0.982612 -0.888701 0.600000
v 1.001068 -0.867868 0.600000
v 1.019083 -0.846653 0.600000
v 1.036648 -0.825064 0.600000
v 1.053755 -0.803111 0.600000
v 1.070394 -0.780802 0.600000
v 1.086557 -0.758145 0.600000
v 1.102238 -0.735152 0.600000
v 1.117432 -0.711834 0.600000
v 1.132132 -0.688200 0.600000
v 1.146333 -0.664264 0.600000
v 1.160030 -0.640034 0.600000
v 1.173216 -0.615523 0.600000
v 1.185887 -0.590742 0.600000
v 1.198037 -0.565700 0.600000
v 1.209660 -0.540411 0.600000
v 1.220751 -0.514883 0.600000
v 1.231303 -0.489130 0.600000
v 1.241312 -0.463160 0.600000
v 1.250772 -0.436986 0.600000
v 1.259677 -0.410619 0.600000
v 1.268022 -0.384069 0.600000
v 1.275805 -0.357349 0.600000
v 1.283023 -0.330470 0.600000
v 1.289675 -0.303445 0.600000
v 1.295759 -0.276286 0.600000
v 1.301272 -0.249006 0.600000
v 1.306213 -0.221615 0.600000
v 1.310580 -0.194127 0.600000
v 1.314371 -0.166554 0.600000
v 1.317584 -0.138907 0.600000
v 1.320217 -0.111199 0.600000
v 1.322269 -0.083442 0.600000
v 1.323737 -0.055649 0.600000
v 1.324619 -0.027831 0.600000
v 1.324913 0.000000 0.600000
v 1.515000 0.000000 0.600000
v 1.515000 -0.180000 0.600000
f 1 3 2
f 1 4 3
f 1 5 4
f 1 6 5
f 1 7 6
f 1 8 7
f 1 9 8
f 1 10 9
f 1 11 10
f 1 12 11
f 1 13 12
f 1 14 13
f 1 15 14
f 1 16 15
f 1 17 16
f 1 18 17
f 1 19 18
f 1 20 19
f 1 21 20
f 21 23 22
f 21 24 23
f 21 25 24
f 21 26 25
f 21 27 26
f 21 28 27
f 21 29 28
f 21 30 29
f 21 31 30
f 21 32 31
f 21 33 32
f 21 34 33
f 21 35 34
f 21 36 35
f 21 37 36
f 21 38 37
f 21 39 38
f 21 40 39
f 21 41 40
f 21 42 41
f 21 43 42
f 21 44 43
f 21 45 44
f 21 46 45
f 21 47 46
f 21 48 47
f 21 49 48
f 21 50 49
f 21 51 50
f 21 52 51
f 95 97 96
f 95 98 97
f 94 98 95
f 94 99 98
f 93 99 94
f 93 100 99
f 92 100 93
f 92 101 100
f 91 101 92
f 91 102 101
f 90 102 91
f 89 102 90
f 89 103 102
f 88 103 89
f 88 104 103
f 87 104 88
f 87 105 104
f 86 105 87
f 86 106 105
f 85 106 86
f 85 107 106
f 84 107 85
f 84 108 107
f 83 108 84
f 83 109 108
f 82 109 83
f 82 110 109
f 81 110 82
f 81 111 110
f 80 111 81
f 80 112 111
f 79 112 80
f 79 113 112
f 78 113 79
f 77 113 78
f 77 114 113
f 76 114 77
f 76 115 114
f 75 115 76
f 75 116 115
f 74 116 75
f 74 117 116
f 73 117 74
f 73 118 117
f 72 118 73
f 118 120 119
f 118 121 120
f 118 122 121
f 118 123 122
f 118 124 123
f 118 125 124
f 118 126 125
f 118 127 126
f 118 128 127
f 118 129 128
f 118 130 129
f 118 131 130
f 118 132 131
f 118 133 132
f 118 134 133
f 118 135 134
f 118 136 135
f 118 137 136
f 118 138 137
f 118 139 138
f 118 140 139
f 118 141 140
f 118 142 141
f 118 143 142
f 118 144 143
f 144 146 145
f 144 147 146
f 144 148 147
f 144 149 148
f 144 150 149
f 144 151 150
f 144 152 151
f 144 153 152
f 144 154 153
f 144 155 154
f 144 156 155
f 144 157 156
f 144 158 157
f 144 159 158
f 144 160 159
f 144 161 160
f 144 162 161
f 144 163 162
f 144 164 163
f 144 165 164
f 144 166 165
f 144 167 166
f 144 168 167
f 144 169 168
f 144 170 169
f 144 171 170
f 144 172 171
f 214 216 215
f 214 217 216
f 214 218 217
f 214 219 218
f 214 220 219
f 214 221 220
f 214 222 221
f 214 223 222
f 214 224 223
f 213 224 214
f 213 225 224
f 213 226 225
f 213 227 226
f 213 228 227
f 213 229 228
f 213 230 229
f 213 231 230
f 212 231 213
f 212 232 231
f 212 233 232
f 212 234 233
f 212 235 234
f 212 236 235
f 211 236 212
f 211 237 236
f 211 238 237
f 211 239 238
f 239 241 240
f 239 242 241
f 239 243 242
f 239 244 243
f 239 245 244
f 239 246 245
f 239 247 246
f 239 248 247
f 239 249 248
f 239 250 249
f 239 251 250
f 239 252 251
f 239 253 252
f 239 254 253
f 239 255 254
f 239 256 255
f 239 257 256
f 239 258 257
f 239 259 258
f 239 260 259
f 239 261 260
f 239 262 261
f 239 263 262
f 239 264 263
f 239 265 264
f 239 266 265
f 239 267 266
f 239 268 267
f 239 269 268
f 239 270 269
f 239 271 270
f 239 272 271
f 239 273 272
f 239 274 273
f 239 275 274
f 239 276 275
f 239 277 276
f 239 278 277
f 239 279 278
f 239 280 279
f 239 281 280
f 239 282 281
f 239 283 282
f 239 284 283
f 239 285 284
f 239 286 285
f 239 287 286
f 239 288 287
f 239 289 288
f 239 290 289
f 239 291 290
f 239 292 291
f 239 293 292
f 239 294 293
f 239 295 294
f 239 296 295
f 239 297 296
f 239 298 297
f 239 299 298
f 239 300 299
f 239 301 300
f 239 302 301
f 239 303 302
f 239 304 303
f 239 305 304
f 239 306 305
f 239 307 306
f 239 308 307
f 239 309 308
f 239 310 309
f 239 311 310
f 239 312 311
f 239 313 312
f 313 315 314
f 313 316 315
f 313 317 316
f 313 318 317
f 313 319 318
f 313 320 319
f 313 321 320
f 313 322 321
f 313 323 322
f 313 324 323
f 313 325 324
f 313 326 325
f 313 327 326
f 313 328 327
f 313 329 328
f 313 330 329
f 313 331 330
f 313 332 331
f 313 333 332
f 313 334 333
f 313 335 334
f 313 336 335
f 313 337 336
f 313 338 337
f 313 339 338
f 313 340 339
f 313 341 340
f 313 342 341
f 313 343 342
f 313 344 343
f 313 345 344
f 313 346 345
f 313 347 346
f 313 348 347
f 313 349 348
f 313 350 349
f 313 351 350
f 313 352 351
f 313 353 352
f 313 354 353
f 313 355 354
f 313 356 355
f 313 357 356
f 313 358 357
f 313 359 358
f 313 360 359
f 313 361 360
f 313 362 361
f 313 363 362
f 313 364 363
f 313 365 364
f 313 366 365
f 313 367 366
f 313 368 367
f 313 369 368
f 313 370 369
f 313 371 370
f 313 372 371
f 313 373 372
f 313 374 373
f 313 375 374
f 313 376 375
f 313 377 376
f 313 378 377
f 313 379 378
f 313 380 379
f 313 381 380
f 313 382 381
f 313 383 382
f 313 384 383
f 313 385 384
f 313 386 385
f 313 387 386
f 313 388 387
f 313 389 388
f 389 391 390
f 389 392 391
f 389 393 392
f 389 394 393
f 389 395 394
f 389 396 395
f 389 397 396
f 389 398 397
f 389 399 398
f 389 400 399
f 389 401 400
f 389 402 401
f 389 403 402
f 389 404 403
f 389 405 404
f 389 406 405
f 389 407 406
f 389 408 407
f 389 409 408
f 389 410 409
f 389 411 410
f 313 411 389
f 313 412 411
f 313 413 412
f 313 414 413
f 313 415 414
f 313 416 415
f 313 417 416
f 313 418 417
f 313 419 418
f 313 420 419
f 313 421 420
f 313 422 421
f 313 423 422
f 313 424 423
f 313 425 424
f 313 426 425
f 313 427 426
f 313 428 427
f 313 429 428
f 313 430 429
f 313 431 430
f 313 432 431
f 313 433 432
f 313 434 433
f 313 435 434
f 313 436 435
f 313 437 436
f 313 438 437
f 313 439 438
f 313 440 439
f 313 441 440
f 313 442 441
f 313 443 442
f 313 444 443
f 313 445 444
f 313 446 445
f 313 447 446
f 313 448 447
f 313 449 448
f 313 450 449
f 313 451 450
f 313 452 451
f 313 453 452
f 313 454 453
f 313 455 454
f 313 456 455
f 313 457 456
f 313 458 457
f 313 459 458
f 313 460 459
f 313 461 460
f 313 462 461
f 313 463 462
f 313 464 463
f 313 465 464
f 313 466 465
f 313 467 466
f 313 468 467
f 313 469 468
f 313 470 469
f 313 471 470
f 313 472 471
f 313 473 472
f 313 474 473
f 313 475 474
f 313 476 475
f 313 477 476
f 313 478 477
f 313 479 478
f 313 480 479
f 313 481 480
f 313 482 481
f 313 483 482
f 313 484 483
f 313 485 484
f 313 486 485
f 313 487 486
f 313 488 487
f 313 489 488
f 313 490 489
f 313 491 490
f 313 492 491
f 313 493 492
f 313 494 493
f 313 495 494
f 313 496 495
f 313 497 496
f 313 498 497
f 313 499 498
f 313 500 499
f 313 501 500
f 313 502 501
f 313 503 502
f 313 504 503
f 313 505 504
f 313 506 505
f 313 507 506
f 313 508 507
f 313 509 508
f 313 510 509
f 313 511 510
f 313 512 511
f 239 512 313
f 239 513 512
f 239 514 513
f 239 515 514
f 239 516 515
f 239 517 516
f 239 518 517
f 239 519 518
f 239 520 519
f 239 521 520
f 239 522 521
f 239 523 522
f 239 524 523
f 239 525 524
f 239 526 525
f 239 527 526
f 239 528 527
f 239 529 528
f 239 530 529
f 239 531 530
f 239 532 531
f 239 533 532
f 239 534 533
f 239 535 534
f 239 536 535
f 239 537 536
f 239 538 537
f 239 539 538
f 239 540 539
f 239 541 540
f 239 542 541
f 239 543 542
f 239 544 543
f 239 545 544
f 239 546 545
f 239 547 546
f 239 548 547
f 239 549 548
f 239 550 549
f 239 551 550
f 239 552 551
f 211 552 239
f 211 553 552
f 211 554 553
f 211 555 554
f 211 556 555
f 211 557 556
f 211 558 557
f 210 558 211
f 210 559 558
f 210 560 559
f 210 561 560
f 210 562 561
f 210 563 562
f 210 564 563
f 210 565 564
f 210 566 565
f 210 567 566
f 210 568 567
f 210 569 568
f 210 570 569
f 210 571 570
f 210 572 571
f 210 573 572
f 210 574 573
f 210 575 574
f 210 576 575
f 210 577 576
f 210 578 577
f 210 579 578
f 210 580 579
f 210 581 580
f 210 582 581
f 210 583 582
f 210 584 583
f 210 585 584
f 210 586 585
f 210 587 586
f 210 588 587
f 210 589 588
f 210 590 589
f 210 591 590
f 210 592 591
f 210 593 592
f 210 594 593
f 210 595 594
f 210 596 595
f 210 597 596
f 210 598 597
f 210 599 598
f 210 600 599
f 210 601 600
f 210 602 601
f 210 603 602
f 210 604 603
f 210 605 604
f 210 606 605
f 210 607 606
f 210 608 607
f 210 609 608
f 210 610 609
f 210 611 610
f 209 611 210
f 208 611 209
f 207 611 208
f 206 611 207
f 205 611 206
f 204 611 205
f 203 611 204
f 202 611 203
f 201 611 202
f 200 611 201
f 199 611 200
f 198 611 199
f 197 611 198
f 196 611 197
f 195 611 196
f 194 611 195
f 193 611 194
f 192 611 193
f 191 611 192
f 190 611 191
f 189 611 190
f 188 611 189
f 187 611 188
f 186 611 187
f 185 611 186
f 184 611 185
f 183 611 184
f 182 611 183
f 181 611 182
f 180 611 181
f 179 611 180
f 178 611 179
f 177 611 178
f 176 611 177
f 175 611 176
f 174 611 175
f 173 611 174
f 172 611 173
f 144 611 172
f 144 612 611
f 144 613 612
f 144 614 613
f 144 615 614
f 144 616 615
f 144 617 616
f 144 618 617
f 144 619 618
f 144 620 619
f 144 621 620
f 144 622 621
f 144 623 622
f 144 624 623
f 144 625 624
f 144 626 625
f 144 627 626
f 144 628 627
f 144 629 628
f 144 630 629
f 144 631 630
f 144 632 631
f 144 633 632
f 144 634 633
f 144 635 634
f 144 636 635
f 144 637 636
f 144 638 637
f 144 639 638
f 144 640 639
f 144 641 640
f 144 642 641
f 144 643 642
f 144 644 643
f 144 645 644
f 144 646 645
f 144 647 646
f 144 648 647
f 144 649 648
f 144 650 649
f 144 651 650
f 144 652 651
f 144 653 652
f 144 654 653
f 144 655 654
f 144 656 655
f 144 657 656
f 144 658 657
f 144 659 658
f 144 660 659
f 144 661 660
f 144 662 661
f 144 663 662
f 144 664 663
f 144 665 664
f 144 666 665
f 144 667 666
f 144 668 667
f 144 669 668
f 144 670 669
f 144 671 670
f 144 672 671
f 144 673 672
f 144 674 673
f 144 675 674
f 144 676 675
f 144 677 676
f 144 678 677
f 144 679 678
f 144 680 679
f 144 681 680
f 144 682 681
f 144 683 682
f 144 684 683
f 144 685 684
f 144 686 685
f 144 687 686
f 144 688 687
f 144 689 688
f 144 690 689
f 144 691 690
f 144 692 691
f 144 693 692
f 144 694 693
f 144 695 694
f 144 696 695
f 118 696 144
f 118 697 696
f 118 698 697
f 118 699 698
f 118 700 699
f 118 701 700
f 118 702 701
f 118 703 702
f 118 704 703
f 118 705 704
f 118 706 705
f 118 707 706
f 118 708 707
f 118 709 708
f 118 710 709
f 118 711 710
f 118 712 711
f 118 713 712
f 118 714 713
f 118 715 714
f 118 716 715
f 118 717 716
f 118 718 717
f 118 719 718
f 72 719 118
f 71 719 72
f 70 719 71
f 70 720 719
f 70 721 720
f 70 722 721
f 69 722 70
f 69 723 722
f 69 724 723
f 68 724 69
f 67 724 68
f 67 725 724
f 66 725 67
f 66 726 725
f 65 726 66
f 64 726 65
f 64 727 726
f 63 727 64
f 62 727 63
f 61 727 62
f 61 728 727
f 60 728 61
f 59 728 60
f 58 728 59
f 58 729 728
f 57 729 58
f 56 729 57
f 55 729 56
f 54 729 55
f 54 730 729
f 53 730 54
f 52 730 53
f 21 730 52
f 21 731 730
f 731 733 732
f 731 734 733
f 731 735 734
f 731 736 735
f 731 737 736
f 731 738 737
f 731 739 738
f 731 740 739
f 731 741 740
f 731 742 741
f 731 743 742
f 731 744 743
f 731 745 744
f 731 746 745
f 731 747 746
f 731 748 747
f 731 749 748
f 731 750 749
f 731 751 750
f 731 752 751
f 731 753 752
f 731 754 753
f 731 755 754
f 731 756 755
f 731 757 756
f 731 758 757
f 731 759 758
f 731 760 759
f 731 761 760
f 731 762 761
f 731 763 762
f 731 764 763
f 731 765 764
f 731 766 765
f 731 767 766
f 731 768 767
f 731 769 768
f 731 770 769
f 731 771 770
f 731 772 771
f 731 773 772
f 731 774 773
f 731 775 774
f 731 776 775
f 731 777 776
f 731 778 777
f 731 779 778
f 731 780 779
f 731 781 780
f 731 782 781
f 731 783 782
f 731 784 783
f 731 785 784
f 731 786 785
f 731 787 786
f 731 788 787
f 731 789 788
f 731 790 789
f 731 791 790
f 731 792 791
f 731 793 792
f 731 794 793
f 731 795 794
f 731 796 795
f 21 796 731
f 21 797 796
f 21 798 797
f 21 799 798
f 21 800 799
f 21 801 800
f 21 802 801
f 21 803 802
f 21 804 803
f 21 805 804
f 21 806 805
f 21 807 806
f 21 808 807
f 21 809 808
f 21 810 809
f 21 811 810
f 21 812 811
f 21 813 812
f 21 814 813
f 21 815 814
f 21 816 815
f 21 817 816
f 21 818 817
f 21 819 818
f 21 820 819
f 21 821 820
f 1 821 21
f 1 822 821
f 1 823 822
f 1 824 823
f 1 825 824
f 1 826 825
f 1 827 826
f 1 828 827
f 1 829 828
f 1 830 829
f 1 831 830
f 1 832 831
f 1 833 832
f 1 834 833
f 842 834 1
f 842 835 834
f 842 836 835
f 842 837 836
f 842 838 837
f 842 839 838
f 842 840 839
f 840 842 841
