v -0.643516 0.220000 0.186514
v -0.642704 0.220000 0.189293
v -0.641880 0.220000 0.192067
v -0.641044 0.220000 0.194838
v -0.640197 0.220000 0.197606
v -0.639337 0.220000 0.200370
v -0.638466 0.220000 0.203130
v -0.637582 0.220000 0.205886
v -0.636687 0.220000 0.208638
v -0.635780 0.220000 0.211387
v -0.634860 0.220000 0.214131
v -0.633930 0.220000 0.216872
v -0.632987 0.220000 0.219608
v -0.632032 0.220000 0.222341
v -0.631066 0.220000 0.225069
v -0.630088 0.220000 0.227793
v -0.629098 0.220000 0.230513
v -0.628096 0.220000 0.233228
v -0.627083 0.220000 0.235940
v -0.626057 0.220000 0.238646
v -0.625021 0.220000 0.241349
v -0.623972 0.220000 0.244046
v -0.622912 0.220000 0.246740
v -0.621840 0.220000 0.249428
v -0.620757 0.220000 0.252112
v -0.619662 0.220000 0.254792
v -0.618556 0.220000 0.257466
v -0.617438 0.220000 0.260136
v -0.616308 0.220000 0.262801
v -0.615167 0.220000 0.265461
v -0.614015 0.220000 0.268116
v -0.612851 0.220000 0.270766
v -0.613020 0.220000 0.270402
v -0.613204 0.220000 0.270046
v -0.613401 0.220000 0.269698
v -0.613613 0.220000 0.269358
v -0.613838 0.220000 0.269026
v -0.614076 0.220000 0.268704
v -0.614327 0.220000 0.268392
v -0.614590 0.220000 0.268090
v -0.614865 0.220000 0.267798
v -0.615151 0.220000 0.267518
v -0.615449 0.220000 0.267250
v -0.615757 0.220000 0.266993
v -0.616075 0.220000 0.266750
v -0.616402 0.220000 0.266519
v -0.616739 0.220000 0.266302
v -0.617084 0.220000 0.266098
v -0.617436 0.220000 0.265908
v -0.617796 0.220000 0.265732
v -0.618163 0.220000 0.265571
v -0.618536 0.220000 0.265425
v -0.618915 0.220000 0.265294
v -0.619298 0.220000 0.265178
v -0.619686 0.220000 0.265078
v -0.620078 0.220000 0.264993
v -0.620472 0.220000 0.264924
v -0.620870 0.220000 0.264871
v -0.621268 0.220000 0.264834
v -0.621668 0.220000 0.264812
v -0.622069 0.220000 0.264807
v -0.622470 0.220000 0.264818
v -0.622869 0.220000 0.264845
v -0.676190 0.220000 0.269510
v -0.676611 0.220000 0.269538
v -0.677033 0.220000 0.269548
v -0.677455 0.220000 0.269540
v -0.677877 0.220000 0.269515
v -0.678297 0.220000 0.269471
v -0.678714 0.220000 0.269410
v -0.679129 0.220000 0.269332
v -0.679540 0.220000 0.269236
v -0.679947 0.220000 0.269122
v -0.680349 0.220000 0.268992
v -0.680744 0.220000 0.268845
v -0.681134 0.220000 0.268681
v -0.681516 0.220000 0.268501
v -0.681890 0.220000 0.268305
v -0.682255 0.220000 0.268093
v -0.682611 0.220000 0.267867
v -0.682957 0.220000 0.267625
v -0.683293 0.220000 0.267369
v -0.683618 0.220000 0.267099
v -0.683930 0.220000 0.266815
v -0.684231 0.220000 0.266519
v -0.684519 0.220000 0.266210
v -0.684793 0.220000 0.265889
v -0.685054 0.220000 0.265557
v -0.685301 0.220000 0.265214
v -0.685533 0.220000 0.264861
v -0.685749 0.220000 0.264499
v -0.685951 0.220000 0.264128
v -0.686136 0.220000 0.263749
v -0.686305 0.220000 0.263362
v -0.686458 0.220000 0.262968
v -0.694890 0.220000 0.239801
v -0.695026 0.220000 0.239402
v -0.695145 0.220000 0.238997
v -0.695247 0.220000 0.238587
v -0.695331 0.220000 0.238173
v -0.695398 0.220000 0.237756
v -0.695447 0.220000 0.237337
v -0.695479 0.220000 0.236916
v -0.695493 0.220000 0.236494
v -0.695488 0.220000 0.236072
v -0.695466 0.220000 0.235650
v -0.695427 0.220000 0.235230
v -0.695369 0.220000 0.234811
v -0.695294 0.220000 0.234396
v -0.695202 0.220000 0.233984
v -0.695092 0.220000 0.233576
v -0.694965 0.220000 0.233174
v -0.694821 0.220000 0.232777
v -0.694660 0.220000 0.232386
v -0.694484 0.220000 0.232003
v -0.694291 0.220000 0.231627
v -0.694082 0.220000 0.231260
v -0.693858 0.220000 0.230902
v -0.693620 0.220000 0.230554
v -0.693366 0.220000 0.230216
v -0.693099 0.220000 0.229889
v -0.692818 0.220000 0.229574
v -0.692524 0.220000 0.229271
v -0.692218 0.220000 0.228980
v -0.691899 0.220000 0.228703
v -0.691570 0.220000 0.228439
v -0.691229 0.220000 0.228190
v -0.647385 0.220000 0.197490
v -0.647061 0.220000 0.197253
v -0.646747 0.220000 0.197004
v -0.646444 0.220000 0.196743
v -0.646151 0.220000 0.196469
v -0.645869 0.220000 0.196184
v -0.645599 0.220000 0.195888
v -0.645341 0.220000 0.195582
v -0.645096 0.220000 0.195265
v -0.644863 0.220000 0.194939
v -0.644644 0.220000 0.194604
v -0.644438 0.220000 0.194260
v -0.644246 0.220000 0.193908
v -0.644069 0.220000 0.193549
v -0.643906 0.220000 0.193183
v -0.643758 0.220000 0.192811
v -0.643625 0.220000 0.192433
v -0.643507 0.220000 0.192050
v -0.643404 0.220000 0.191663
v -0.643317 0.220000 0.191272
v -0.643246 0.220000 0.190878
v -0.643191 0.220000 0.190481
v -0.643151 0.220000 0.190082
v -0.643128 0.220000 0.189682
v -0.643120 0.220000 0.189282
v -0.643129 0.220000 0.188881
v -0.643154 0.220000 0.188481
v -0.643195 0.220000 0.188083
v -0.643251 0.220000 0.187686
v -0.643324 0.220000 0.187292
v -0.643412 0.220000 0.186901
f 158 1 2
f 31 32 33
f 31 33 34
f 30 31 34
f 29 30 34
f 29 34 35
f 28 29 35
f 28 35 36
f 27 28 36
f 27 36 37
f 26 27 37
f 26 37 38
f 25 26 38
f 24 25 38
f 24 38 39
f 23 24 39
f 23 39 40
f 22 23 40
f 22 40 41
f 21 22 41
f 21 41 42
f 20 21 42
f 19 20 42
f 19 42 43
f 18 19 43
f 18 43 44
f 17 18 44
f 17 44 45
f 16 17 45
f 16 45 46
f 15 16 46
f 14 15 46
f 14 46 47
f 13 14 47
f 13 47 48
f 12 13 48
f 12 48 49
f 11 12 49
f 11 49 50
f 10 11 50
f 10 50 51
f 9 10 51
f 9 51 52
f 8 9 52
f 7 8 52
f 7 52 53
f 6 7 53
f 6 53 54
f 5 6 54
f 5 54 55
f 4 5 55
f 4 55 56
f 3 4 56
f 3 56 57
f 2 3 57
f 158 2 57
f 158 57 58
f 158 58 59
f 158 59 60
f 158 60 61
f 158 61 62
f 158 62 63
f 63 64 65
f 63 65 66
f 63 66 67
f 63 67 68
f 63 68 69
f 63 69 70
f 63 70 71
f 63 71 72
f 63 72 73
f 63 73 74
f 63 74 75
f 63 75 76
f 63 76 77
f 63 77 78
f 63 78 79
f 63 79 80
f 63 80 81
f 63 81 82
f 63 82 83
f 63 83 84
f 63 84 85
f 63 85 86
f 63 86 87
f 63 87 88
f 63 88 89
f 63 89 90
f 63 90 91
f 63 91 92
f 63 92 93
f 63 93 94
f 63 94 95
f 63 95 96
f 63 96 97
f 63 97 98
f 63 98 99
f 63 99 100
f 63 100 101
f 63 101 102
f 63 102 103
f 63 103 104
f 63 104 105
f 63 105 106
f 63 106 107
f 63 107 108
f 63 108 109
f 63 109 110
f 63 110 111
f 63 111 112
f 63 112 113
f 63 113 114
f 63 114 115
f 63 115 116
f 63 116 117
f 63 117 118
f 63 118 119
f 63 119 120
f 63 120 121
f 63 121 122
f 63 122 123
f 63 123 124
f 63 124 125
f 63 125 126
f 63 126 127
f 63 127 128
f 63 128 129
f 63 129 130
f 63 130 131
f 63 131 132
f 63 132 133
f 63 133 134
f 63 134 135
f 63 135 136
f 63 136 137
f 63 137 138
f 63 138 139
f 63 139 140
f 63 140 141
f 63 141 142
f 63 142 143
f 63 143 144
f 63 144 145
f 63 145 146
f 63 146 147
f 63 147 148
f 63 148 149
f 63 149 150
f 63 150 151
f 63 151 152
f 63 152 153
f 63 153 154
f 63 154 155
f 63 155 156
f 63 156 157
f 63 157 158
