v 0.650558 0.010000 -0.160232
v 0.649923 0.010000 -0.162787
v 0.649278 0.010000 -0.165341
v 0.648624 0.010000 -0.167891
v 0.647959 0.010000 -0.170439
v 0.647284 0.010000 -0.172985
v 0.646599 0.010000 -0.175528
v 0.645904 0.010000 -0.178068
v 0.645199 0.010000 -0.180605
v 0.644484 0.010000 -0.183139
v 0.643759 0.010000 -0.185671
v 0.650558 0.220000 -0.160232
v 0.649923 0.220000 -0.162787
v 0.649278 0.220000 -0.165341
v 0.648624 0.220000 -0.167891
v 0.647959 0.220000 -0.170439
v 0.647284 0.220000 -0.172985
v 0.646599 0.220000 -0.175528
v 0.645904 0.220000 -0.178068
v 0.645199 0.220000 -0.180605
v 0.644484 0.220000 -0.183139
v 0.643759 0.220000 -0.185671
f 1 2 13
f 1 13 12
f 2 3 14
f 2 14 13
f 3 4 15
f 3 15 14
f 4 5 16
f 4 16 15
f 5 6 17
f 5 17 16
f 6 7 18
f 6 18 17
f 7 8 19
f 7 19 18
f 8 9 20
f 8 20 19
f 9 10 21
f 9 21 20
f 10 11 22
f 10 22 21
