v -0.622869 0.016837 -0.264845
v -0.622869 0.220000 -0.264845
v -0.676190 0.220000 -0.269510
v -0.676190 0.000000 -0.269510
v -0.615702 0.000000 -0.264218
v -0.615702 0.010000 -0.264218
v -0.622869 0.016837 -0.264845
v -0.622631 0.016611 -0.264827
v -0.622394 0.016388 -0.264815
v -0.622157 0.016168 -0.264808
v -0.621922 0.015951 -0.264807
v -0.621687 0.015736 -0.264812
v -0.621453 0.015525 -0.264821
v -0.621220 0.015317 -0.264837
v -0.620989 0.015112 -0.264858
v -0.620759 0.014911 -0.264884
v -0.620529 0.014712 -0.264915
v -0.620302 0.014517 -0.264952
v -0.620075 0.014325 -0.264993
v -0.619850 0.014137 -0.265040
v -0.619627 0.013952 -0.265092
v -0.619405 0.013770 -0.265149
v -0.619185 0.013592 -0.265211
v -0.618966 0.013418 -0.265277
v -0.618750 0.013247 -0.265349
v -0.618535 0.013080 -0.265425
v -0.618323 0.012917 -0.265506
v -0.618112 0.012757 -0.265592
v -0.617904 0.012602 -0.265683
v -0.617698 0.012450 -0.265778
v -0.617495 0.012302 -0.265878
v -0.617294 0.012159 -0.265982
v -0.617095 0.012020 -0.266091
v -0.616899 0.011885 -0.266204
v -0.616706 0.011754 -0.266322
v -0.616515 0.011628 -0.266444
v -0.616328 0.011506 -0.266570
v -0.616143 0.011388 -0.266701
v -0.615962 0.011275 -0.266835
v -0.615784 0.011167 -0.266973
v -0.615609 0.011063 -0.267115
v -0.615438 0.010963 -0.267261
v -0.615270 0.010869 -0.267410
v -0.615106 0.010779 -0.267563
v -0.614945 0.010694 -0.267719
v -0.614788 0.010614 -0.267878
v -0.614636 0.010539 -0.268040
v -0.614487 0.010469 -0.268205
v -0.614343 0.010403 -0.268373
v -0.614202 0.010343 -0.268543
v -0.614066 0.010288 -0.268716
v -0.613934 0.010237 -0.268892
v -0.613807 0.010192 -0.269070
v -0.613683 0.010151 -0.269251
v -0.613564 0.010116 -0.269433
v -0.613449 0.010085 -0.269618
v -0.613339 0.010059 -0.269805
v -0.613232 0.010038 -0.269993
v -0.613130 0.010021 -0.270184
v -0.613033 0.010009 -0.270376
v -0.612940 0.010002 -0.270570
v -0.612851 0.010000 -0.270766
f 2 3 4
f 4 5 6
f 8 9 10
f 8 10 11
f 8 11 12
f 8 12 13
f 8 13 14
f 8 14 15
f 8 15 16
f 8 16 17
f 8 17 18
f 8 18 19
f 8 19 20
f 8 20 21
f 8 21 22
f 8 22 23
f 8 23 24
f 8 24 25
f 8 25 26
f 8 26 27
f 8 27 28
f 8 28 29
f 8 29 30
f 8 30 31
f 8 31 32
f 8 32 33
f 8 33 34
f 8 34 35
f 8 35 36
f 8 36 37
f 8 37 38
f 8 38 39
f 8 39 40
f 8 40 41
f 8 41 42
f 8 42 43
f 8 43 44
f 8 44 45
f 8 45 46
f 8 46 47
f 8 47 48
f 8 48 49
f 8 49 50
f 8 50 51
f 8 51 52
f 8 52 53
f 8 53 54
f 8 54 55
f 8 55 56
f 8 56 57
f 8 57 58
f 8 58 59
f 8 59 60
f 8 60 61
f 8 61 62
f 1 2 4
f 1 4 6
f 1 6 7
f 1 7 8
f 1 8 62
