v 0.371548 -0.563540 -0.036213
v 0.369347 -0.559728 -0.025607
v 0.369424 -0.559861 -0.025762
v 0.369499 -0.559992 -0.025919
v 0.369573 -0.560120 -0.026077
v 0.369646 -0.560246 -0.026237
v 0.369717 -0.560369 -0.026399
v 0.369787 -0.560490 -0.026562
v 0.369856 -0.560609 -0.026727
v 0.369923 -0.560725 -0.026893
v 0.369989 -0.560839 -0.027061
v 0.370053 -0.560951 -0.027231
v 0.370117 -0.561061 -0.027402
v 0.370178 -0.561168 -0.027575
v 0.370239 -0.561273 -0.027750
v 0.370298 -0.561376 -0.027927
v 0.370357 -0.561476 -0.028105
v 0.370413 -0.561575 -0.028285
v 0.370469 -0.561671 -0.028467
v 0.370523 -0.561765 -0.028650
v 0.370576 -0.561857 -0.028836
v 0.370628 -0.561946 -0.029023
v 0.370678 -0.562034 -0.029212
v 0.370728 -0.562119 -0.029403
v 0.370776 -0.562202 -0.029595
v 0.370822 -0.562283 -0.029788
v 0.370868 -0.562362 -0.029983
v 0.370912 -0.562438 -0.030180
v 0.370954 -0.562511 -0.030377
v 0.370995 -0.562583 -0.030576
v 0.371035 -0.562652 -0.030776
v 0.371074 -0.562718 -0.030977
v 0.371111 -0.562782 -0.031178
v 0.371146 -0.562844 -0.031381
v 0.371180 -0.562903 -0.031585
v 0.371213 -0.562960 -0.031789
v 0.371244 -0.563014 -0.031994
v 0.371274 -0.563065 -0.032199
v 0.371302 -0.563114 -0.032405
v 0.371328 -0.563160 -0.032611
v 0.371354 -0.563203 -0.032818
v 0.371377 -0.563244 -0.033026
v 0.371399 -0.563282 -0.033233
v 0.371420 -0.563318 -0.033442
v 0.371439 -0.563351 -0.033651
v 0.371456 -0.563381 -0.033860
v 0.371472 -0.563408 -0.034071
v 0.371486 -0.563433 -0.034282
v 0.371499 -0.563456 -0.034493
v 0.371511 -0.563475 -0.034705
v 0.371521 -0.563493 -0.034918
v 0.371529 -0.563507 -0.035132
v 0.371536 -0.563519 -0.035347
v 0.371541 -0.563528 -0.035562
v 0.371545 -0.563535 -0.035778
v 0.371547 -0.563539 -0.035995
v 0.375727 -0.560762 -0.036213
v 0.379886 -0.557953 -0.036213
v 0.384024 -0.555113 -0.036213
v 0.388140 -0.552243 -0.036213
v 0.392235 -0.549342 -0.036213
v 0.396309 -0.546410 -0.036213
v 0.400360 -0.543449 -0.036213
v 0.404389 -0.540457 -0.036213
v 0.408396 -0.537436 -0.036213
v 0.412381 -0.534385 -0.036213
v 0.416342 -0.531304 -0.036213
v 0.420281 -0.528194 -0.036213
v 0.424196 -0.525055 -0.036213
v 0.428088 -0.521886 -0.036213
v 0.431956 -0.518689 -0.036213
v 0.435801 -0.515464 -0.036213
v 0.439621 -0.512209 -0.036213
v 0.443417 -0.508927 -0.036213
v 0.447189 -0.505616 -0.036213
v 0.450935 -0.502277 -0.036213
v 0.454657 -0.498911 -0.036213
v 0.458354 -0.495517 -0.036213
v 0.462025 -0.492095 -0.036213
v 0.465671 -0.488647 -0.036213
v 0.469291 -0.485171 -0.036213
v 0.472885 -0.481669 -0.036213
v 0.476453 -0.478140 -0.036213
v 0.479995 -0.474584 -0.036213
v 0.483510 -0.471002 -0.036213
v 0.486998 -0.467395 -0.036213
v 0.490460 -0.463761 -0.036213
v 0.490459 -0.463760 -0.035995
v 0.490455 -0.463757 -0.035778
v 0.490449 -0.463752 -0.035562
v 0.490441 -0.463745 -0.035347
v 0.490431 -0.463737 -0.035132
v 0.490418 -0.463726 -0.034918
v 0.490403 -0.463713 -0.034705
v 0.490385 -0.463699 -0.034493
v 0.490366 -0.463682 -0.034282
v 0.490344 -0.463663 -0.034071
v 0.490319 -0.463643 -0.033860
v 0.490292 -0.463620 -0.033651
v 0.490263 -0.463596 -0.033442
v 0.490232 -0.463570 -0.033233
v 0.490198 -0.463541 -0.033026
v 0.490162 -0.463511 -0.032818
v 0.490124 -0.463479 -0.032611
v 0.490083 -0.463445 -0.032405
v 0.490040 -0.463408 -0.032199
v 0.489994 -0.463370 -0.031994
v 0.489947 -0.463330 -0.031789
v 0.489897 -0.463288 -0.031585
v 0.489844 -0.463244 -0.031381
v 0.489790 -0.463199 -0.031178
v 0.489733 -0.463151 -0.030977
v 0.489674 -0.463102 -0.030776
v 0.489613 -0.463051 -0.030576
v 0.489550 -0.462998 -0.030377
v 0.489485 -0.462943 -0.030180
v 0.489417 -0.462886 -0.029983
v 0.489348 -0.462828 -0.029788
v 0.489277 -0.462768 -0.029595
v 0.489203 -0.462707 -0.029403
v 0.489128 -0.462643 -0.029212
v 0.489050 -0.462578 -0.029023
v 0.488971 -0.462512 -0.028836
v 0.488890 -0.462444 -0.028650
v 0.488807 -0.462374 -0.028467
v 0.488722 -0.462302 -0.028285
v 0.488635 -0.462229 -0.028105
v 0.488546 -0.462155 -0.027927
v 0.488455 -0.462078 -0.027750
v 0.488362 -0.462000 -0.027575
v 0.488267 -0.461921 -0.027402
v 0.488170 -0.461840 -0.027231
v 0.488071 -0.461757 -0.027061
v 0.487970 -0.461672 -0.026893
v 0.487867 -0.461585 -0.026727
v 0.487762 -0.461497 -0.026562
v 0.487655 -0.461408 -0.026399
v 0.487546 -0.461316 -0.026237
v 0.487435 -0.461223 -0.026077
v 0.487321 -0.461127 -0.025919
v 0.487206 -0.461031 -0.025762
v 0.487088 -0.460932 -0.025607
f 1 2 3
f 1 3 4
f 1 4 5
f 1 5 6
f 1 6 7
f 1 7 8
f 1 8 9
f 1 9 10
f 1 10 11
f 1 11 12
f 1 12 13
f 1 13 14
f 1 14 15
f 1 15 16
f 1 16 17
f 1 17 18
f 1 18 19
f 1 19 20
f 1 20 21
f 1 21 22
f 1 22 23
f 1 23 24
f 1 24 25
f 1 25 26
f 1 26 27
f 1 27 28
f 1 28 29
f 1 29 30
f 1 30 31
f 1 31 32
f 1 32 33
f 1 33 34
f 1 34 35
f 1 35 36
f 1 36 37
f 1 37 38
f 1 38 39
f 1 39 40
f 1 40 41
f 1 41 42
f 1 42 43
f 1 43 44
f 1 44 45
f 1 45 46
f 1 46 47
f 1 47 48
f 1 48 49
f 1 49 50
f 1 50 51
f 1 51 52
f 1 52 53
f 1 53 54
f 1 54 55
f 1 55 56
f 1 57 58
f 1 58 59
f 1 59 60
f 1 60 61
f 1 61 62
f 1 62 63
f 1 63 64
f 1 64 65
f 1 65 66
f 1 66 67
f 1 67 68
f 1 68 69
f 1 69 70
f 1 70 71
f 1 71 72
f 1 72 73
f 1 73 74
f 1 74 75
f 1 75 76
f 1 76 77
f 1 77 78
f 1 78 79
f 1 79 80
f 1 80 81
f 1 81 82
f 1 82 83
f 1 83 84
f 1 84 85
f 1 85 86
f 1 86 87
f 1 87 88
f 1 88 89
f 1 89 90
f 1 90 91
f 1 91 92
f 1 92 93
f 1 93 94
f 1 94 95
f 1 95 96
f 1 96 97
f 1 97 98
f 1 98 99
f 1 99 100
f 1 100 101
f 1 101 102
f 1 102 103
f 1 103 104
f 1 104 105
f 1 105 106
f 1 106 107
f 1 107 108
f 1 108 109
f 1 109 110
f 1 110 111
f 1 111 112
f 1 112 113
f 1 113 114
f 1 114 115
f 1 115 116
f 1 116 117
f 1 117 118
f 1 118 119
f 1 119 120
f 1 120 121
f 1 121 122
f 1 122 123
f 1 123 124
f 1 124 125
f 1 125 126
f 1 126 127
f 1 127 128
f 1 128 129
f 1 129 130
f 1 130 131
f 1 131 132
f 1 132 133
f 1 133 134
f 1 134 135
f 1 135 136
f 1 136 137
f 1 137 138
f 1 138 139
f 1 139 140
f 1 140 141
f 1 141 142
f 1 142 57
f 57 142 58
f 58 142 59
f 59 142 60
f 60 142 61
f 61 142 62
f 62 142 63
f 63 142 64
f 64 142 65
f 65 142 66
f 66 142 67
f 67 142 68
f 68 142 69
f 69 142 70
f 70 142 71
f 71 142 72
f 72 142 73
f 73 142 74
f 74 142 75
f 75 142 76
f 76 142 77
f 77 142 78
f 78 142 79
f 79 142 80
f 80 142 81
f 81 142 82
f 82 142 83
f 83 142 84
f 84 142 85
f 85 142 86
f 86 142 87
