v 1.410000 0.000000 0.387500
v 1.410539 0.000000 0.398123
v 1.412149 0.000000 0.408636
v 1.414815 0.000000 0.418933
v 1.418509 0.000000 0.428907
v 1.423194 0.000000 0.438457
v 1.428820 0.000000 0.447483
v 1.435330 0.000000 0.455894
v 1.442658 0.000000 0.463603
v 1.450729 0.000000 0.470531
v 1.459459 0.000000 0.476608
v 1.468759 0.000000 0.481769
v 1.478533 0.000000 0.485964
v 1.488681 0.000000 0.489148
v 1.499100 0.000000 0.491289
v 1.509682 0.000000 0.492365
v 1.520318 0.000000 0.492365
v 1.530900 0.000000 0.491289
v 1.541319 0.000000 0.489148
v 1.551467 0.000000 0.485964
v 1.561241 0.000000 0.481769
v 1.570541 0.000000 0.476608
v 1.579271 0.000000 0.470531
v 1.587342 0.000000 0.463603
v 1.594670 0.000000 0.455894
v 1.601180 0.000000 0.447483
v 1.606806 0.000000 0.438457
v 1.611491 0.000000 0.428907
v 1.615185 0.000000 0.418933
v 1.617851 0.000000 0.408636
v 1.619461 0.000000 0.398123
v 1.620000 0.000000 0.387500
v 1.410000 0.180000 0.387500
v 1.410539 0.180000 0.398123
v 1.412149 0.180000 0.408636
v 1.414815 0.180000 0.418933
v 1.418509 0.180000 0.428907
v 1.423194 0.180000 0.438457
v 1.428820 0.180000 0.447483
v 1.435330 0.180000 0.455894
v 1.442658 0.180000 0.463603
v 1.450729 0.180000 0.470531
v 1.459459 0.180000 0.476608
v 1.468759 0.180000 0.481769
v 1.478533 0.180000 0.485964
v 1.488681 0.180000 0.489148
v 1.499100 0.180000 0.491289
v 1.509682 0.180000 0.492365
v 1.520318 0.180000 0.492365
v 1.530900 0.180000 0.491289
v 1.541319 0.180000 0.489148
v 1.551467 0.180000 0.485964
v 1.561241 0.180000 0.481769
v 1.570541 0.180000 0.476608
v 1.579271 0.180000 0.470531
v 1.587342 0.180000 0.463603
v 1.594670 0.180000 0.455894
v 1.601180 0.180000 0.447483
v 1.606806 0.180000 0.438457
v 1.611491 0.180000 0.428907
v 1.615185 0.180000 0.418933
v 1.617851 0.180000 0.408636
v 1.619461 0.180000 0.398123
v 1.620000 0.180000 0.387500
f 1 2 34
f 1 34 33
f 2 3 35
f 2 35 34
f 3 4 36
f 3 36 35
f 4 5 37
f 4 37 36
f 5 6 38
f 5 38 37
f 6 7 39
f 6 39 38
f 7 8 40
f 7 40 39
f 8 9 41
f 8 41 40
f 9 10 42
f 9 42 41
f 10 11 43
f 10 43 42
f 11 12 44
f 11 44 43
f 12 13 45
f 12 45 44
f 13 14 46
f 13 46 45
f 14 15 47
f 14 47 46
f 15 16 48
f 15 48 47
f 16 17 49
f 16 49 48
f 17 18 50
f 17 50 49
f 18 19 51
f 18 51 50
f 19 20 52
f 19 52 51
f 20 21 53
f 20 53 52
f 21 22 54
f 21 54 53
f 22 23 55
f 22 55 54
f 23 24 56
f 23 56 55
f 24 25 57
f 24 57 56
f 25 26 58
f 25 58 57
f 26 27 59
f 26 59 58
f 27 28 60
f 27 60 59
f 28 29 61
f 28 61 60
f 29 30 62
f 29 62 61
f 30 31 63
f 30 63 62
f 31 32 64
f 31 64 63
