v 0.519142 -0.000000 0.027901
v 0.518685 -0.000000 0.027901
v 0.517317 -0.000000 0.027901
v 0.515054 -0.000000 0.027901
v 0.511918 0.000000 0.027901
v 0.507941 0.000000 0.027901
v 0.503165 0.000000 0.027901
v 0.497637 0.000000 0.027901
v 0.491416 0.000000 0.027901
v 0.484564 0.000000 0.027901
v 0.477153 0.000000 0.027901
v 0.469258 0.000000 0.027901
v 0.460960 0.000000 0.027901
v 0.452344 0.000000 0.027901
v 0.443499 0.000000 0.027901
v 0.434515 0.000000 0.027901
v 0.425485 0.000000 0.027901
v 0.416501 0.000000 0.027901
v 0.407656 0.000000 0.027901
v 0.399040 0.000000 0.027901
v 0.390742 0.000000 0.027901
v 0.382847 0.000000 0.027901
v 0.375436 0.000000 0.027901
v 0.368584 0.000000 0.027901
v 0.362363 0.000000 0.027901
v 0.356835 0.000000 0.027901
v 0.352059 0.000000 0.027901
v 0.348082 0.000000 0.027901
v 0.344946 -0.000000 0.027901
v 0.342683 -0.000000 0.027901
v 0.341315 -0.000000 0.027901
v 0.340858 -0.000000 0.027901
v 0.347929 0.002929 0.027901
v 0.347748 0.002752 0.027901
v 0.347562 0.002580 0.027901
v 0.347372 0.002412 0.027901
v 0.347177 0.002250 0.027901
v 0.346979 0.002092 0.027901
v 0.346777 0.001940 0.027901
v 0.346571 0.001792 0.027901
v 0.346361 0.001650 0.027901
v 0.346148 0.001514 0.027901
v 0.345931 0.001382 0.027901
v 0.345711 0.001257 0.027901
v 0.345488 0.001136 0.027901
v 0.345262 0.001022 0.027901
v 0.345033 0.000913 0.027901
v 0.344801 0.000810 0.027901
v 0.344567 0.000713 0.027901
v 0.344331 0.000622 0.027901
v 0.344092 0.000538 0.027901
v 0.343851 0.000459 0.027901
v 0.343609 0.000386 0.027901
v 0.343364 0.000319 0.027901
v 0.343118 0.000259 0.027901
v 0.342871 0.000205 0.027901
v 0.342622 0.000157 0.027901
v 0.342372 0.000115 0.027901
v 0.342121 0.000080 0.027901
v 0.341870 0.000051 0.027901
v 0.341617 0.000029 0.027901
v 0.341364 0.000013 0.027901
v 0.341111 0.000003 0.027901
v 0.340858 -0.000000 0.027901
v 0.341315 -0.000000 0.027901
v 0.342683 -0.000000 0.027901
v 0.344946 -0.000000 0.027901
v 0.348082 0.000000 0.027901
v 0.352059 0.000000 0.027901
v 0.356835 0.000000 0.027901
v 0.362363 0.000000 0.027901
v 0.368584 0.000000 0.027901
v 0.375436 0.000000 0.027901
v 0.382847 0.000000 0.027901
v 0.390742 0.000000 0.027901
v 0.399040 0.000000 0.027901
v 0.407656 0.000000 0.027901
v 0.416501 0.000000 0.027901
v 0.425485 0.000000 0.027901
v 0.434515 0.000000 0.027901
v 0.443499 0.000000 0.027901
v 0.452344 0.000000 0.027901
v 0.460960 0.000000 0.027901
v 0.469258 0.000000 0.027901
v 0.477153 0.000000 0.027901
v 0.484564 0.000000 0.027901
v 0.491416 0.000000 0.027901
v 0.497637 0.000000 0.027901
v 0.503165 0.000000 0.027901
v 0.507941 0.000000 0.027901
v 0.511918 0.000000 0.027901
v 0.515054 -0.000000 0.027901
v 0.517317 -0.000000 0.027901
v 0.518685 -0.000000 0.027901
v 0.519142 -0.000000 0.027901
v 0.518889 0.000003 0.027901
v 0.518636 0.000013 0.027901
v 0.518383 0.000029 0.027901
v 0.518130 0.000051 0.027901
v 0.517879 0.000080 0.027901
v 0.517628 0.000115 0.027901
v 0.517378 0.000157 0.027901
v 0.517129 0.000205 0.027901
v 0.516882 0.000259 0.027901
v 0.516636 0.000319 0.027901
v 0.516391 0.000386 0.027901
v 0.516149 0.000459 0.027901
v 0.515908 0.000538 0.027901
v 0.515669 0.000622 0.027901
v 0.515433 0.000713 0.027901
v 0.515199 0.000810 0.027901
v 0.514967 0.000913 0.027901
v 0.514738 0.001022 0.027901
v 0.514512 0.001136 0.027901
v 0.514289 0.001257 0.027901
v 0.514069 0.001382 0.027901
v 0.513852 0.001514 0.027901
v 0.513639 0.001650 0.027901
v 0.513429 0.001792 0.027901
v 0.513223 0.001940 0.027901
v 0.513021 0.002092 0.027901
v 0.512823 0.002250 0.027901
v 0.512628 0.002412 0.027901
v 0.512438 0.002580 0.027901
v 0.512252 0.002752 0.027901
v 0.512071 0.002929 0.027901
f 33 35 34
f 35 37 36
f 37 39 38
f 39 41 40
f 41 43 42
f 43 45 44
f 45 47 46
f 47 49 48
f 49 51 50
f 51 53 52
f 53 55 54
f 55 57 56
f 57 59 58
f 59 61 60
f 61 63 62
f 95 97 96
f 97 99 98
f 99 101 100
f 101 103 102
f 103 105 104
f 105 107 106
f 107 109 108
f 109 111 110
f 111 113 112
f 113 115 114
f 115 117 116
f 117 119 118
f 119 121 120
f 121 123 122
f 123 125 124
f 33 37 35
f 37 41 39
f 41 45 43
f 45 49 47
f 49 53 51
f 53 57 55
f 57 61 59
f 61 64 63
f 95 99 97
f 99 103 101
f 103 107 105
f 107 111 109
f 111 115 113
f 115 119 117
f 119 123 121
f 123 126 125
f 33 41 37
f 41 49 45
f 49 57 53
f 57 64 61
f 95 103 99
f 103 111 107
f 111 119 115
f 119 126 123
f 33 49 41
f 49 64 57
f 95 111 103
f 111 126 119
f 33 64 49
f 95 126 111
