v -3.625000 0.000000 -5.545000
v -3.625000 0.011668 -5.544530
v -3.625000 0.023260 -5.543122
v -3.625000 0.034701 -5.540787
v -3.625000 0.045917 -5.537538
v -3.625000 0.056835 -5.533397
v -3.625000 0.067385 -5.528391
v -3.625000 0.077498 -5.522553
v -3.625000 0.087108 -5.515919
v -3.625000 0.096153 -5.508534
v -3.625000 0.104574 -5.500445
v -3.625000 0.112318 -5.491705
v -3.625000 0.119333 -5.482369
v -3.625000 0.125574 -5.472500
v -3.625000 0.131000 -5.462160
v -3.625000 0.135577 -5.451418
v -3.625000 0.139275 -5.440342
v -3.625000 0.142070 -5.429004
v -3.625000 0.143943 -5.417478
v -3.625000 0.144882 -5.405839
v -3.625000 0.144882 -5.394161
v -3.625000 0.143943 -5.382522
v -3.625000 0.142070 -5.370996
v -3.625000 0.139275 -5.359658
v -3.625000 0.135577 -5.348582
v -3.625000 0.131000 -5.337840
v -3.625000 0.125574 -5.327500
v -3.625000 0.119333 -5.317631
v -3.625000 0.112318 -5.308295
v -3.625000 0.104574 -5.299555
v -3.625000 0.096153 -5.291466
v -3.625000 0.087108 -5.284081
v -3.625000 0.077498 -5.277447
v -3.625000 0.067385 -5.271609
v -3.625000 0.056835 -5.266603
v -3.625000 0.045917 -5.262462
v -3.625000 0.034701 -5.259213
v -3.625000 0.023260 -5.256878
v -3.625000 0.011668 -5.255470
v -3.625000 0.000000 -5.255000
v -3.575000 0.000000 -5.545000
v -3.575000 0.011668 -5.544530
v -3.575000 0.023260 -5.543122
v -3.575000 0.034701 -5.540787
v -3.575000 0.045917 -5.537538
v -3.575000 0.056835 -5.533397
v -3.575000 0.067385 -5.528391
v -3.575000 0.077498 -5.522553
v -3.575000 0.087108 -5.515919
v -3.575000 0.096153 -5.508534
v -3.575000 0.104574 -5.500445
v -3.575000 0.112318 -5.491705
v -3.575000 0.119333 -5.482369
v -3.575000 0.125574 -5.472500
v -3.575000 0.131000 -5.462160
v -3.575000 0.135577 -5.451418
v -3.575000 0.139275 -5.440342
v -3.575000 0.142070 -5.429004
v -3.575000 0.143943 -5.417478
v -3.575000 0.144882 -5.405839
v -3.575000 0.144882 -5.394161
v -3.575000 0.143943 -5.382522
v -3.575000 0.142070 -5.370996
v -3.575000 0.139275 -5.359658
v -3.575000 0.135577 -5.348582
v -3.575000 0.131000 -5.337840
v -3.575000 0.125574 -5.327500
v -3.575000 0.119333 -5.317631
v -3.575000 0.112318 -5.308295
v -3.575000 0.104574 -5.299555
v -3.575000 0.096153 -5.291466
v -3.575000 0.087108 -5.284081
v -3.575000 0.077498 -5.277447
v -3.575000 0.067385 -5.271609
v -3.575000 0.056835 -5.266603
v -3.575000 0.045917 -5.262462
v -3.575000 0.034701 -5.259213
v -3.575000 0.023260 -5.256878
v -3.575000 0.011668 -5.255470
v -3.575000 0.000000 -5.255000
f 1 42 2
f 1 41 42
f 2 43 3
f 2 42 43
f 3 44 4
f 3 43 44
f 4 45 5
f 4 44 45
f 5 46 6
f 5 45 46
f 6 47 7
f 6 46 47
f 7 48 8
f 7 47 48
f 8 49 9
f 8 48 49
f 9 50 10
f 9 49 50
f 10 51 11
f 10 50 51
f 11 52 12
f 11 51 52
f 12 53 13
f 12 52 53
f 13 54 14
f 13 53 54
f 14 55 15
f 14 54 55
f 15 56 16
f 15 55 56
f 16 57 17
f 16 56 57
f 17 58 18
f 17 57 58
f 18 59 19
f 18 58 59
f 19 60 20
f 19 59 60
f 20 61 21
f 20 60 61
f 21 62 22
f 21 61 62
f 22 63 23
f 22 62 63
f 23 64 24
f 23 63 64
f 24 65 25
f 24 64 65
f 25 66 26
f 25 65 66
f 26 67 27
f 26 66 67
f 27 68 28
f 27 67 68
f 28 69 29
f 28 68 69
f 29 70 30
f 29 69 70
f 30 71 31
f 30 70 71
f 31 72 32
f 31 71 72
f 32 73 33
f 32 72 73
f 33 74 34
f 33 73 74
f 34 75 35
f 34 74 75
f 35 76 36
f 35 75 76
f 36 77 37
f 36 76 77
f 37 78 38
f 37 77 78
f 38 79 39
f 38 78 79
f 39 80 40
f 39 79 80
