v 0.029392 -0.629314 -1.051004
v 0.030820 -0.629246 -1.051148
v 0.032211 -0.629176 -1.051492
v 0.033538 -0.629107 -1.052030
v 0.034773 -0.629040 -1.052751
v 0.035892 -0.628977 -1.053639
v 0.036872 -0.628920 -1.054677
v 0.037694 -0.628871 -1.055843
v 0.038341 -0.628832 -1.057113
v 0.038800 -0.628804 -1.058462
v 0.039063 -0.628788 -1.059862
v 0.019869 -0.562507 -1.051004
v 0.021278 -0.562306 -1.051147
v 0.022651 -0.562111 -1.051491
v 0.023961 -0.561924 -1.052030
v 0.025181 -0.561750 -1.052750
v 0.026286 -0.561592 -1.053639
v 0.027255 -0.561454 -1.054677
v 0.028067 -0.561338 -1.055843
v 0.028707 -0.561247 -1.057113
v 0.029161 -0.561183 -1.058462
v 0.029421 -0.561145 -1.059862
v 0.010226 -0.494860 -1.051004
v 0.011635 -0.494659 -1.051147
v 0.013008 -0.494463 -1.051491
v 0.014317 -0.494276 -1.052030
v 0.015538 -0.494103 -1.052750
v 0.016643 -0.493945 -1.053639
v 0.017612 -0.493807 -1.054677
v 0.018424 -0.493691 -1.055843
v 0.019064 -0.493600 -1.057113
v 0.019518 -0.493535 -1.058462
v 0.019778 -0.493498 -1.059862
f 1 13 2
f 1 12 13
f 2 14 3
f 2 13 14
f 3 15 4
f 3 14 15
f 4 16 5
f 4 15 16
f 5 17 6
f 5 16 17
f 6 18 7
f 6 17 18
f 7 19 8
f 7 18 19
f 8 20 9
f 8 19 20
f 9 21 10
f 9 20 21
f 10 22 11
f 10 21 22
f 12 24 13
f 12 23 24
f 13 25 14
f 13 24 25
f 14 26 15
f 14 25 26
f 15 27 16
f 15 26 27
f 16 28 17
f 16 27 28
f 17 29 18
f 17 28 29
f 18 30 19
f 18 29 30
f 19 31 20
f 19 30 31
f 20 32 21
f 20 31 32
f 21 33 22
f 21 32 33
