v 2.060550 1.076262 -5.683599
v 2.060262 1.075987 -5.684644
v 1.966014 1.089485 -5.627581
v 2.059973 1.075710 -5.685688
v 2.059684 1.075432 -5.686732
v 2.059393 1.075153 -5.687777
v 2.059103 1.074873 -5.688821
v 2.058812 1.074592 -5.689865
v 2.058520 1.074310 -5.690909
v 2.058227 1.074026 -5.691953
v 2.057934 1.073742 -5.692997
v 2.057640 1.073457 -5.694041
v 2.057346 1.073170 -5.695085
v 2.057051 1.072883 -5.696128
v 2.056756 1.072594 -5.697172
v 2.056460 1.072304 -5.698216
v 2.056163 1.072013 -5.699259
v 2.055866 1.071722 -5.700303
v 2.055568 1.071429 -5.701346
v 2.055270 1.071135 -5.702389
v 2.054971 1.070840 -5.703433
v 2.054671 1.070543 -5.704476
v 2.054371 1.070246 -5.705519
v 2.054070 1.069948 -5.706562
v 2.053769 1.069649 -5.707605
v 2.053467 1.069348 -5.708648
v 2.053164 1.069047 -5.709690
v 2.052861 1.068744 -5.710733
v 2.052558 1.068440 -5.711776
v 2.052253 1.068136 -5.712818
v 2.051948 1.067830 -5.713861
v 2.051643 1.067523 -5.714903
v 2.051336 1.067215 -5.715945
v 2.051030 1.066906 -5.716987
v 2.050722 1.066596 -5.718029
v 2.050414 1.066285 -5.719071
v 2.050105 1.065972 -5.720113
v 2.049796 1.065659 -5.721154
v 2.049486 1.065344 -5.722196
v 2.049176 1.065029 -5.723237
v 2.048864 1.064712 -5.724279
v 2.048553 1.064395 -5.725320
v 2.048240 1.064076 -5.726361
v 2.047927 1.063756 -5.727402
v 2.047614 1.063435 -5.728443
v 2.047300 1.063113 -5.729483
v 2.046985 1.062790 -5.730524
v 2.046670 1.062466 -5.731565
v 2.046354 1.062141 -5.732605
v 2.046037 1.061814 -5.733645
v 2.045720 1.061487 -5.734686
v -2.425000 1.061487 -5.734686
v -2.428572 1.053451 -5.759179
v -2.432232 1.044863 -5.783448
v -2.435959 1.035728 -5.807484
v -2.439732 1.026049 -5.831280
v -2.443529 1.015831 -5.854827
v -2.447329 1.005079 -5.878117
v -2.543183 0.000000 -6.513000
v -3.575000 0.000000 -6.513000
v -2.808668 0.211907 -6.492641
v -3.575000 0.000000 -4.287000
v -2.915000 0.000000 -4.287000
v -3.373669 0.204513 -4.305951
v -3.387500 0.300000 -4.328194
v -2.915000 0.007666 -4.287026
v -2.915000 0.015331 -4.287106
v -2.688890 0.566472 -4.441939
v -2.983459 0.692938 -4.529021
v -2.699084 0.562862 -4.439815
v -3.012500 0.300000 -6.471806
v -2.863257 0.300000 -6.471806
v -2.861409 0.295085 -6.473170
v -2.738741 0.294691 -6.473278
v -2.736743 0.300000 -6.471806
v -2.587500 0.300000 -6.471806
v -3.575000 1.040673 -5.794675
v -2.869555 0.786861 -6.187162
v -2.880998 0.782496 -6.191501
v -2.540000 0.590764 -4.456726
v -1.171011 0.590764 -4.456726
v -1.161005 0.597167 -4.460767
v -0.613131 0.749933 -4.577583
v 0.285000 0.883357 -4.722912
v -0.618573 0.749876 -4.577531
v -0.607684 0.749997 -4.577642
v -0.596775 0.750149 -4.577780
v -0.602232 0.750069 -4.577707
v -0.585842 0.750332 -4.577947
v -0.591312 0.750237 -4.577860
v -0.574880 0.750546 -4.578142
v -0.580365 0.750435 -4.578041
v -0.563885 0.750791 -4.578366
v -0.569387 0.750665 -4.578251
v -0.552854 0.751068 -4.578620
v -0.558375 0.750926 -4.578489
v -0.541782 0.751377 -4.578902
v -0.547324 0.751219 -4.578757
v -0.530665 0.751717 -4.579214
v -0.536230 0.751543 -4.579054
v -0.519500 0.752089 -4.579554
v -0.525088 0.751899 -4.579381
v -0.508296 0.752486 -4.579919
v -0.513902 0.752285 -4.579734
v -0.497064 0.752902 -4.580302
v -0.502683 0.752692 -4.580109
v -0.485818 0.753330 -4.580695
v -0.491442 0.753115 -4.580497
v -0.474569 0.753763 -4.581093
v -0.480193 0.753547 -4.580894
v 0.261949 0.640619 -4.489856
v 0.293973 0.627073 -4.480472
v 0.375000 0.866608 -4.701603
v 0.285000 0.866608 -4.701603
v 0.488878 0.521917 -4.416958
v 0.512662 0.505730 -4.408534
v 0.600000 0.866608 -4.701603
v 0.438364 0.553511 -4.434395
v 0.510000 0.866608 -4.701603
v 0.726535 0.297037 -4.327371
v 0.738580 0.279007 -4.322539
v 0.960000 0.892854 -4.735484
v 0.825000 0.866608 -4.701603
v 0.735000 0.866608 -4.701603
v 0.652949 0.585919 -4.453708
v 0.825126 0.016529 -4.287123
v 0.825423 0.000000 -4.287000
v 1.375000 0.000000 -4.287000
v 1.185000 1.109658 -5.486182
v 1.380128 1.113000 -5.400023
v 1.385270 1.113000 -5.400092
v 1.390424 1.113000 -5.400206
v 1.395591 1.113001 -5.400366
v 1.400771 1.113001 -5.400573
v 1.405963 1.113001 -5.400827
v 1.411167 1.113001 -5.401127
v 1.416384 1.113000 -5.401475
v 1.421613 1.113000 -5.401870
v 1.426853 1.112999 -5.402313
v 1.432106 1.112998 -5.402803
v 1.437370 1.112996 -5.403343
v 1.442646 1.112994 -5.403931
v 1.447934 1.112991 -5.404567
v 1.453232 1.112988 -5.405253
v 1.458542 1.112984 -5.405989
v 1.463863 1.112979 -5.406774
v 1.469195 1.112974 -5.407609
v 1.474538 1.112968 -5.408495
v 1.479892 1.112961 -5.409431
v 1.485258 1.112952 -5.410419
v 1.490635 1.112943 -5.411458
v 1.496024 1.112932 -5.412549
v 1.501426 1.112918 -5.413694
v 1.506841 1.112903 -5.414892
v 1.512269 1.112886 -5.416143
v 1.517712 1.112867 -5.417449
v 1.523168 1.112844 -5.418809
v 1.528638 1.112819 -5.420225
v 1.534124 1.112791 -5.421697
v 1.539624 1.112760 -5.423225
v 1.545141 1.112725 -5.424810
v 1.550673 1.112687 -5.426452
v 1.556222 1.112645 -5.428152
v 1.561788 1.112598 -5.429910
v 1.567370 1.112548 -5.431727
v 1.572971 1.112493 -5.433604
v 1.578588 1.112433 -5.435540
v 1.584224 1.112368 -5.437537
v 1.589876 1.112297 -5.439594
v 1.050000 1.091525 -5.617582
v 1.595544 1.112220 -5.441711
v 1.601229 1.112137 -5.443890
v 1.606929 1.112047 -5.446130
v 1.612645 1.111950 -5.448431
v 1.618376 1.111844 -5.450795
v 1.624121 1.111731 -5.453220
v 1.629880 1.111609 -5.455708
v 1.635654 1.111478 -5.458259
v 1.641441 1.111337 -5.460873
v 1.647240 1.111187 -5.463550
v 1.653053 1.111026 -5.466291
v 1.658878 1.110854 -5.469097
v 1.664714 1.110672 -5.471966
v 1.670563 1.110477 -5.474900
v 1.676422 1.110271 -5.477898
v 1.683577 1.110005 -5.481596
v 1.690727 1.109727 -5.485292
v 1.697872 1.109437 -5.488985
v 1.705013 1.109135 -5.492676
v 1.712149 1.108821 -5.496365
v 1.719281 1.108494 -5.500051
v 1.726409 1.108156 -5.503735
v 1.733532 1.107805 -5.507417
v 1.740651 1.107442 -5.511097
v 1.747766 1.107067 -5.514774
v 1.754878 1.106680 -5.518450
v 1.761985 1.106281 -5.522124
v 1.769088 1.105869 -5.525795
v 1.776188 1.105445 -5.529465
v 1.783284 1.105010 -5.533133
v 1.790377 1.104562 -5.536799
v 1.797466 1.104101 -5.540463
v 1.804551 1.103629 -5.544125
v 1.811633 1.103145 -5.547786
v 1.818712 1.102648 -5.551444
v 1.825787 1.102139 -5.555101
v 1.832858 1.101619 -5.558756
v 1.839924 1.101086 -5.562408
v 1.846986 1.100541 -5.566058
v 1.854042 1.099984 -5.569705
v 1.861093 1.099416 -5.573350
v 1.868139 1.098835 -5.576992
v 1.875178 1.098243 -5.580630
v 1.882211 1.097639 -5.584265
v 1.889238 1.097023 -5.587897
v 1.896258 1.096396 -5.591526
v 1.903270 1.095757 -5.595150
v 1.910275 1.095106 -5.598771
v 1.917273 1.094444 -5.602388
v 1.924262 1.093770 -5.606000
v 1.931242 1.093084 -5.609608
v 1.938214 1.092387 -5.613212
v 1.945178 1.091679 -5.616811
v 1.952132 1.090959 -5.620405
v 1.959077 1.090228 -5.623995
v 1.972942 1.088731 -5.631162
v 1.979862 1.087965 -5.634738
v 1.986773 1.087189 -5.638311
v 1.993676 1.086400 -5.641879
v 2.061697 1.077355 -5.679420
v 2.000571 1.085601 -5.645442
v 2.007458 1.084790 -5.649002
v 2.014336 1.083967 -5.652557
v 2.021207 1.083134 -5.656108
v 2.028069 1.082289 -5.659655
v 2.034924 1.081433 -5.663198
v 2.041771 1.080565 -5.666737
v 2.048610 1.079686 -5.670272
v 2.055442 1.078796 -5.673804
v 2.062266 1.077895 -5.677331
v 2.061982 1.077625 -5.678376
v 2.061411 1.077083 -5.680465
v 2.061125 1.076811 -5.681510
v 2.060838 1.076537 -5.682554
v -2.805755 0.210871 -6.492842
v -3.575000 0.089559 -4.290609
v -2.915000 0.022996 -4.287238
v -2.978497 0.678719 -4.517895
v -2.859552 0.290283 -6.474479
v -2.740753 0.289509 -6.474688
v -2.989086 0.706390 -4.539896
v -1.151000 0.603413 -4.464767
v 0.228924 0.653663 -4.499173
v 0.324969 0.613079 -4.471080
v 0.464119 0.537850 -4.425584
v 0.535487 0.489303 -4.400325
v 0.713623 0.315045 -4.332521
v 0.749765 0.260976 -4.318029
v 1.375000 0.044816 -4.287903
v -2.799610 0.210046 -6.493000
v -2.802729 0.210228 -6.492966
v -3.575000 0.178538 -4.301413
v -2.915000 0.030659 -4.287422
v -2.709156 0.559006 -4.437565
v -2.857686 0.285594 -6.475735
v -2.742776 0.284456 -6.476036
v -2.678586 0.569834 -4.443934
v -1.140998 0.609506 -4.468724
v -0.468947 0.753978 -4.581292
v 0.194925 0.666154 -4.508368
v 0.250288 0.749823 -4.577483
v 0.354912 0.598689 -4.461735
v 0.557370 0.472648 -4.392344
v 0.699833 0.333010 -4.337987
v 0.760100 0.242964 -4.313843
v 0.824225 0.033205 -4.287495
v 0.285000 1.072254 -5.698397
v -2.451110 0.993798 -5.901141
v -2.796423 0.210386 -6.492935
v -3.575000 0.266358 -4.319342
v -2.915000 0.038321 -4.287660
v -3.575000 1.090507 -5.622629
v -2.971007 1.070512 -5.704587
v -2.855811 0.281019 -6.476939
v -2.744810 0.279533 -6.477325
v -3.575000 1.069057 -5.709656
v -2.857738 0.790530 -6.183475
v -1.130999 0.615445 -4.472636
v 0.160008 0.678036 -4.517376
v 0.383781 0.583949 -4.452490
v 0.411592 0.568884 -4.443370
v 0.578326 0.455778 -4.384601
v 0.685158 0.350910 -4.343765
v 0.786175 0.189198 -4.303199
v 1.375000 0.089559 -4.290609
v 0.778288 0.207060 -4.306431
v -2.587500 0.311282 -6.468584
v -2.454851 0.981991 -5.923891
v -2.793215 0.211235 -6.492771
v -3.387500 0.306927 -4.330157
v -2.915000 0.045981 -4.287950
v -2.719090 0.554905 -4.435195
v -2.853928 0.276558 -6.478093
v -2.746855 0.274741 -6.478558
v -2.668189 0.572948 -4.445796
v -1.121004 0.621232 -4.476500
v -0.624011 0.749827 -4.577487
v -0.463329 0.754193 -4.581489
v 0.124349 0.689244 -4.526107
v 0.598371 0.438705 -4.377109
v 0.669590 0.368724 -4.349853
v 0.793281 0.171416 -4.300279
v 0.822703 0.050024 -4.288125
v -2.790050 0.212531 -6.492520
v -2.542412 0.025645 -6.512704
v -3.575000 0.352451 -4.344279
v -2.915000 0.053639 -4.288293
v -2.974210 0.663739 -4.506570
v -2.852037 0.272212 -6.479199
v -2.748914 0.270077 -6.479735
v -2.995345 0.719062 -4.550462
v -1.111013 0.626869 -4.480314
v -0.457717 0.754404 -4.581684
v 0.088152 0.699710 -4.534467
v 0.375000 0.883357 -4.722912
v 0.510000 0.883357 -4.722912
v 0.617518 0.421443 -4.369878
v 0.653127 0.386432 -4.356240
v 0.799624 0.153728 -4.297667
v 0.820546 0.066984 -4.289017
v -2.541618 0.051276 -6.511816
v -3.387500 0.313840 -4.332164
v -2.915000 0.061295 -4.288689
v -2.892119 0.777413 -6.196492
v -2.850136 0.267980 -6.480257
v -2.750988 0.265542 -6.480859
v -2.657714 0.575811 -4.447522
v -1.101026 0.632356 -4.484077
v -0.452112 0.754612 -4.581875
v 0.051622 0.709367 -4.542359
v 0.451619 0.888193 -4.729268
v 0.510000 0.899583 -4.744622
v 0.375000 0.899583 -4.744622
v 0.652949 0.749823 -4.577483
v 0.635770 0.404012 -4.362919
v 0.805221 0.136142 -4.295358
v 0.817737 0.084080 -4.290180
v -2.784090 0.216226 -6.491795
v -2.786993 0.214213 -6.492191
v -3.387500 0.320741 -4.334217
v -2.915000 0.068948 -4.289138
v -2.728874 0.550565 -4.432711
v -2.848224 0.263861 -6.481271
v -2.753078 0.261135 -6.481932
v -2.845493 0.793525 -6.180440
v -1.091045 0.637696 -4.487786
v -0.446515 0.754816 -4.582064
v 0.014965 0.718147 -4.549686
v 0.375000 0.915275 -4.766722
v 0.510000 0.915275 -4.766722
v 0.600000 0.883357 -4.722912
v 0.810093 0.118667 -4.293344
v 0.814259 0.101311 -4.291621
v -2.540801 0.076880 -6.510339
v -3.387500 0.327628 -4.336314
v -2.915000 0.076597 -4.289639
v -2.970596 0.648007 -4.495095
v -2.738498 0.545991 -4.430122
v -2.846303 0.259858 -6.482240
v -2.755188 0.256854 -6.482957
v -2.647175 0.578424 -4.449107
v -1.081070 0.642890 -4.491438
v -0.629446 0.749786 -4.577449
v 0.375000 0.930424 -4.789196
v 0.510000 0.930424 -4.789196
v 0.735000 0.883357 -4.722912
v 0.652949 0.888193 -4.729268
v 0.769602 0.224987 -4.309978
v 0.961652 0.893346 -4.736146
v -2.781324 0.218539 -6.491334
v -2.539960 0.102442 -6.508272
v -3.387500 0.334502 -4.338455
v -2.915000 0.084243 -4.290193
v -3.575000 1.005540 -5.877135
v -2.902968 0.771590 -6.202133
v -2.844370 0.255974 -6.483165
v -2.568345 0.204513 -6.494049
v -3.002199 0.730941 -4.560660
v -1.071100 0.647938 -4.495032
v -0.440929 0.755015 -4.582247
v 0.048957 0.749823 -4.577483
v 0.375000 0.945021 -4.812033
v 0.510000 0.945021 -4.812033
v 0.600000 0.899583 -4.744622
v 0.735000 0.899583 -4.744622
v 0.600000 0.915275 -4.766722
v 0.854280 0.749823 -4.577483
v 0.854280 0.402062 -4.362158
v -2.778658 0.221129 -6.490812
v -3.387500 0.341362 -4.340641
v -2.915000 0.091884 -4.290799
v -2.747949 0.541191 -4.427435
v -2.842425 0.252210 -6.484048
v -2.537278 0.178746 -6.498553
v -2.757321 0.252697 -6.483934
v -2.832842 0.795839 -6.178082
v -1.061138 0.652843 -4.498565
v -0.435354 0.755208 -4.582425
v -0.021623 0.725996 -4.556366
v -0.057981 0.732917 -4.562366
v 0.375000 0.959058 -4.835219
v 0.510000 0.959058 -4.835219
v 0.735000 0.915275 -4.766722
v 0.600000 0.930424 -4.789196
v 0.825000 0.883357 -4.722912
v 0.963304 0.893842 -4.736814
v -3.387500 0.348207 -4.342871
v -2.915000 0.099522 -4.291458
v -2.967654 0.631531 -4.483519
v -2.757215 0.536168 -4.424656
v -2.840468 0.248571 -6.484888
v -2.759481 0.248663 -6.484867
v -2.636589 0.580786 -4.450549
v -1.051183 0.657606 -4.502035
v -0.429793 0.755394 -4.582596
v -0.093958 0.738928 -4.567666
v 0.375000 0.972526 -4.858740
v 0.510000 0.972526 -4.858740
v 0.735000 0.930424 -4.789196
v 0.600000 0.945021 -4.812033
v 0.825000 0.899583 -4.744622
v 0.854280 0.888193 -4.729268
v 0.964955 0.894342 -4.737488
v -3.387500 0.355038 -4.345146
v -2.915000 0.107154 -4.292170
v -2.913526 0.765018 -6.208403
v -2.838499 0.245057 -6.485687
v -2.761672 0.244749 -6.485756
v -2.625969 0.582895 -4.451843
v -1.041236 0.662228 -4.505440
v -0.424246 0.755572 -4.582761
v -0.129402 0.744045 -4.572245
v 0.375000 0.985417 -4.882581
v 0.510000 0.985417 -4.882581
v 0.735000 0.945021 -4.812033
v 0.600000 0.959058 -4.835219
v 0.960000 0.907616 -4.755793
v -3.387500 0.361853 -4.347464
v -2.915000 0.114782 -4.292934
v -2.766285 0.530929 -4.421795
v -2.836514 0.241670 -6.486446
v -2.538199 0.153389 -6.502378
v -2.819890 0.797427 -6.176454
v -1.031297 0.666709 -4.508778
v -0.418715 0.755742 -4.582918
v -0.164160 0.748285 -4.576083
v 0.375000 0.997724 -4.906730
v 0.510000 0.997724 -4.906730
v 0.451619 0.996317 -4.903893
v 0.735000 0.959058 -4.835219
v 0.600000 0.972526 -4.858740
v 0.825000 0.915275 -4.766722
v 0.966606 0.894846 -4.738170
v -3.387500 0.368654 -4.349827
v -2.915000 0.122404 -4.293751
v -2.965383 0.614313 -4.471888
v -2.775147 0.525480 -4.418857
v -2.834515 0.238411 -6.487166
v -2.763908 0.240956 -6.486605
v -3.009611 0.742015 -4.570431
v -1.021367 0.671053 -4.512047
v -0.413199 0.755903 -4.583067
v -0.198114 0.751669 -4.579169
v 0.375000 1.009440 -4.931171
v 0.510000 1.009440 -4.931171
v 0.735000 0.972526 -4.858740
v 0.600000 0.985417 -4.882581
v 0.960000 0.921916 -4.776429
v 1.375000 0.134157 -4.295115
v 1.055611 0.204513 -4.305951
v -3.387500 0.375439 -4.352234
v -2.915000 0.130020 -4.294621
v -3.575000 0.963886 -5.956500
v -2.923730 0.757699 -6.215266
v -2.832492 0.235278 -6.487848
v -2.766200 0.237282 -6.487413
v -2.615329 0.584751 -4.452986
v -1.011446 0.675260 -4.515244
v -0.407697 0.756056 -4.583208
v -0.231282 0.754234 -4.581521
v 0.375000 1.020556 -4.955890
v 0.510000 1.020556 -4.955890
v 0.735000 0.985417 -4.882581
v 0.600000 0.997724 -4.906730
v 0.825000 0.930424 -4.789196
v 1.375000 0.178538 -4.301413
v 1.375000 0.222629 -4.309493
v -3.387500 0.382209 -4.354684
v -2.915000 0.137630 -4.295542
v -2.783789 0.519826 -4.415851
v -2.830430 0.232263 -6.488496
v -2.768562 0.233727 -6.488182
v -2.604668 0.586355 -4.453977
v -1.001536 0.679331 -4.518367
v -0.639174 0.749722 -4.577390
v -0.263713 0.756018 -4.583169
v 0.375000 1.031068 -4.980872
v 0.510000 1.031068 -4.980872
v 0.652949 0.996317 -4.903893
v 0.735000 0.997724 -4.906730
v 0.600000 1.009440 -4.931171
v 0.960000 0.935747 -4.797383
v 1.375000 0.266358 -4.319342
v -3.387500 0.388963 -4.357178
v -2.971007 0.204513 -4.305951
v -2.963774 0.596338 -4.460237
v -2.828312 0.229358 -6.489112
v -2.539093 0.127949 -6.505618
v -0.991635 0.683268 -4.521414
v -0.402210 0.756201 -4.583342
v -0.295461 0.757063 -4.584139
v 0.375000 1.040968 -5.006103
v 0.510000 1.040968 -5.006103
v 0.735000 1.009440 -4.931171
v 0.600000 1.020556 -4.955890
v 0.825000 0.945021 -4.812033
v 1.375000 0.309656 -4.330943
v -3.387500 0.395700 -4.359716
v -2.962500 0.300000 -4.328194
v -2.915000 0.145234 -4.296516
v -2.933515 0.749634 -6.222689
v -2.826121 0.226555 -6.489698
v -2.536328 0.204009 -6.494143
v -3.017551 0.752284 -4.579729
v -0.326574 0.757407 -4.584461
v 0.375000 1.050251 -5.031568
v 0.510000 1.050251 -5.031568
v 0.735000 1.020556 -4.955890
v 0.600000 1.031068 -4.980872
v 0.960000 0.949101 -4.818643
v 1.375000 0.352451 -4.344279
v -3.575000 0.436259 -4.376063
v -2.915000 0.152831 -4.297543
v -2.792202 0.513975 -4.412785
v -2.823855 0.223872 -6.490252
v -2.535348 0.229162 -6.489152
v -2.593983 0.587708 -4.454816
v -0.981746 0.687072 -4.524383
v -0.971868 0.690745 -4.527273
v -0.331919 0.757369 -4.584426
v 0.375000 1.058911 -5.057251
v 0.510000 1.058911 -5.057251
v 0.735000 1.031068 -4.980872
v 0.600000 1.040968 -5.006103
v 0.825000 0.959058 -4.835219
v 1.375000 0.394675 -4.359327
v -3.387500 0.402421 -4.362297
v -2.915000 0.160420 -4.298622
v -2.962817 0.577585 -4.448598
v -2.800375 0.507939 -4.409667
v -2.821518 0.221337 -6.490770
v -2.534337 0.254194 -6.483581
v -2.572516 0.589668 -4.456037
v -3.025999 0.761772 -4.588532
v -2.583267 0.588812 -4.455503
v -0.962000 0.694288 -4.530084
v -0.337270 0.757325 -4.584385
v 0.375000 1.066943 -5.083137
v 0.510000 1.066943 -5.083137
v 0.735000 1.040968 -5.006103
v 0.600000 1.050251 -5.031568
v 0.960000 0.961973 -4.840200
v 1.375000 0.436259 -4.376063
v -3.387500 0.409125 -4.364922
v -2.915000 0.168002 -4.299753
v -2.808301 0.501728 -4.406507
v -2.819116 0.218982 -6.491245
v -2.533292 0.279089 -6.477436
v -2.806752 0.798247 -6.175611
v -0.952142 0.697704 -4.532816
v -0.342629 0.757273 -4.584337
v 0.375000 1.074342 -5.109211
v 0.510000 1.074342 -5.109211
v 0.735000 1.050251 -5.031568
v 0.600000 1.058911 -5.057251
v 0.825000 0.972526 -4.858740
v 1.375000 0.477135 -4.394460
v -3.387500 0.415811 -4.367590
v -2.915000 0.175576 -4.300936
v -2.962500 0.558032 -4.437000
v -2.815969 0.495354 -4.403314
v -2.816650 0.216835 -6.491674
v -2.532213 0.303836 -6.470720
v -2.793539 0.798254 -6.175604
v -0.942292 0.700994 -4.535468
v -0.347996 0.757214 -4.584282
v 0.375000 1.081104 -5.135458
v 0.510000 1.081104 -5.135458
v 0.735000 1.058911 -5.057251
v 0.600000 1.066943 -5.083137
v 0.960000 0.974356 -4.862041
v 1.375000 0.517237 -4.414487
v -3.387500 0.422481 -4.370302
v -2.915000 0.183141 -4.302171
v -2.823372 0.488828 -4.400096
v -2.814102 0.214923 -6.492052
v -2.780368 0.797447 -6.176435
v -0.932452 0.704160 -4.538039
v -0.353371 0.757147 -4.584220
v 0.375000 1.087225 -5.161861
v 0.510000 1.087225 -5.161861
v 0.735000 1.066943 -5.083137
v 0.652949 1.070512 -5.095413
v 0.825000 0.985417 -4.882581
v 1.375000 0.556500 -4.436114
v -3.387500 0.429133 -4.373056
v -2.915000 0.190698 -4.303459
v -2.962500 0.551791 -4.433411
v -2.811448 0.213271 -6.492376
v -2.767364 0.795866 -6.178054
v -0.922619 0.707205 -4.540531
v -0.358755 0.757073 -4.584151
v 0.375000 1.092702 -5.188406
v 0.510000 1.092702 -5.188406
v 0.600000 1.074342 -5.109211
v 0.735000 1.074342 -5.109211
v 0.600000 1.081104 -5.135458
v 0.960000 0.986242 -4.884155
v 1.256942 0.585919 -4.453708
v -3.387500 0.435766 -4.375853
v -2.915000 0.198246 -4.304798
v -2.962500 0.545528 -4.429862
v -2.830500 0.482162 -4.396863
v -2.754649 0.793555 -6.180410
v -0.912794 0.710129 -4.542943
v -0.364148 0.756991 -4.584075
v 0.375000 1.097530 -5.215076
v 0.510000 1.097530 -5.215076
v 0.735000 1.081104 -5.135458
v 0.600000 1.087225 -5.161861
v 0.825000 0.997724 -4.906730
v 1.375000 0.594860 -4.459303
v -3.387500 0.442382 -4.378693
v -2.915000 0.205784 -4.306189
v -2.962500 0.539241 -4.426353
v -2.742341 0.790553 -6.183452
v -0.902977 0.712934 -4.545274
v -0.369552 0.756902 -4.583992
v 0.375000 1.101707 -5.241856
v 0.510000 1.101707 -5.241856
v 0.735000 1.087225 -5.161861
v 0.600000 1.092702 -5.188406
v 0.854280 0.996317 -4.903893
v 1.375000 0.632256 -4.484019
v -3.387500 0.448979 -4.381576
v -2.915000 0.213313 -4.307633
v -2.962500 0.532932 -4.422885
v -2.730468 0.786868 -6.187154
v -0.893165 0.715624 -4.547524
v -0.374966 0.756805 -4.583902
v 0.375000 1.105232 -5.268729
v 0.510000 1.105232 -5.268729
v 0.735000 1.092702 -5.188406
v 0.600000 1.097530 -5.215076
v 0.960000 0.997627 -4.906533
v 0.960000 1.008504 -4.929161
v 1.375000 0.668626 -4.510220
v -3.387500 0.455557 -4.384502
v -2.915000 0.220832 -4.309128
v -2.962500 0.526600 -4.419459
v -2.837344 0.475365 -4.393622
v -2.718981 0.782485 -6.191511
v -0.883360 0.718198 -4.549694
v -0.380391 0.756700 -4.583805
v 0.375000 1.108100 -5.295681
v 0.510000 1.108100 -5.295681
v 0.735000 1.097530 -5.215076
v 0.600000 1.101707 -5.241856
v 0.825000 1.009440 -4.931171
v 1.256942 0.749823 -4.577483
v -3.387500 0.462116 -4.387470
v -2.915000 0.228340 -4.310675
v -2.962500 0.520246 -4.416073
v -2.707829 0.777386 -6.196518
v -0.873559 0.720660 -4.551782
v -0.385827 0.756587 -4.583700
v 0.451619 1.108252 -5.297305
v 0.510000 1.110312 -5.322694
v 0.375000 1.110312 -5.322694
v 0.735000 1.101707 -5.241856
v 0.600000 1.105232 -5.268729
v 0.960000 1.018868 -4.952029
v 1.375000 0.703912 -4.537865
v 0.968257 0.895355 -4.738858
v -3.387500 0.468656 -4.390480
v -2.915000 0.235837 -4.312273
v -2.843896 0.468451 -4.390385
v -2.696966 0.771554 -6.202168
v -0.863764 0.723011 -4.553789
v -0.391275 0.756467 -4.583588
v 0.375000 1.111865 -5.349753
v 0.510000 1.111865 -5.349753
v 0.735000 1.105232 -5.268729
v 0.600000 1.108100 -5.295681
v 0.825000 1.020556 -4.955890
v 0.969907 0.895868 -4.739553
v -3.387500 0.475177 -4.393533
v -2.915000 0.243323 -4.313923
v -2.962500 0.507474 -4.409425
v -2.962500 0.513871 -4.412728
v -2.686408 0.764979 -6.208441
v -0.853973 0.725252 -4.555715
v -0.396736 0.756338 -4.583469
v 0.375000 1.112759 -5.376842
v 0.510000 1.112759 -5.376842
v 0.735000 1.108100 -5.295681
v 0.652949 1.108252 -5.297305
v 0.960000 1.028713 -4.975125
v 0.971558 0.896385 -4.740255
v -3.575000 0.517237 -4.414487
v -2.915000 0.250797 -4.315625
v -2.850152 0.461427 -4.387156
v -2.676211 0.757659 -6.215305
v -0.844185 0.727387 -4.557559
v 0.375000 1.112993 -5.403945
v 0.510000 1.112993 -5.403945
v 0.600000 1.110312 -5.322694
v 0.735000 1.110312 -5.322694
v 0.600000 1.111865 -5.349753
v 0.825000 1.031068 -4.980872
v 0.973207 0.896906 -4.740964
v -3.387500 0.481677 -4.396627
v -2.915000 0.258260 -4.317378
v -2.962500 0.501056 -4.406163
v -2.666435 0.749591 -6.222728
v -0.834401 0.729416 -4.559320
v -0.648906 0.749572 -4.577252
v 0.375000 1.112567 -5.431045
v 0.510000 1.112567 -5.431045
v 0.735000 1.111865 -5.349753
v 0.600000 1.112759 -5.376842
v 0.960000 1.038035 -4.998437
v 0.974857 0.897432 -4.741679
v -3.387500 0.488157 -4.399764
v -2.915000 0.265710 -4.319182
v -2.856111 0.454303 -4.383941
v -2.657135 0.740771 -6.230681
v -0.824620 0.731341 -4.561000
v -0.658643 0.749335 -4.577034
v 0.375000 1.111481 -5.458127
v 0.510000 1.111481 -5.458127
v 0.735000 1.112759 -5.376842
v 0.600000 1.112993 -5.403945
v 0.825000 1.040968 -5.006103
v 0.976506 0.897961 -4.742402
v -3.387500 0.494617 -4.402943
v -2.915000 0.273148 -4.321038
v -2.962500 0.494617 -4.402943
v -2.648341 0.731183 -6.239134
v -0.814840 0.733164 -4.562598
v -0.668383 0.749011 -4.576737
v 0.375000 1.109736 -5.485175
v 0.510000 1.109736 -5.485175
v 0.735000 1.112993 -5.403945
v 0.600000 1.112567 -5.431045
v 0.960000 1.046829 -5.021954
v 0.978155 0.898495 -4.743132
v -3.387500 0.501056 -4.406163
v -2.915000 0.280573 -4.322945
v -2.962500 0.488157 -4.399764
v -2.861775 0.447087 -4.380746
v -2.640070 0.720809 -6.248062
v -0.805062 0.734888 -4.564112
v -0.678128 0.748599 -4.576361
v 0.375000 1.107333 -5.512172
v 0.510000 1.107333 -5.512172
v 0.451619 1.108252 -5.502695
v 0.735000 1.112567 -5.431045
v 0.600000 1.111481 -5.458127
v 0.825000 1.050251 -5.031568
v 0.979804 0.899033 -4.743868
v -3.387500 0.507474 -4.409425
v -2.915000 0.287984 -4.324903
v -2.962500 0.481677 -4.396627
v -2.632337 0.709626 -6.257439
v -0.795286 0.736512 -4.565545
v -0.687875 0.748098 -4.575904
v 0.375000 1.104273 -5.539102
v 0.510000 1.104273 -5.539102
v 0.735000 1.111481 -5.458127
v 0.600000 1.109736 -5.485175
v 0.960000 1.055090 -5.045663
v 0.981452 0.899576 -4.744612
v -3.387500 0.513871 -4.412728
v -2.915000 0.295382 -4.326912
v -2.962500 0.475177 -4.393533
v -2.625159 0.697616 -6.267236
v -0.785510 0.738040 -4.566894
v -0.697627 0.747508 -4.575367
v 0.375000 1.100559 -5.565950
v 0.510000 1.100559 -5.565950
v 0.735000 1.109736 -5.485175
v 0.600000 1.107333 -5.512172
v 0.825000 1.058911 -5.057251
v 0.983100 0.900122 -4.745363
v -3.387500 0.520246 -4.416073
v -2.914878 0.302974 -4.329030
v -2.867143 0.439787 -4.377574
v -2.618560 0.684780 -6.277407
v -2.550887 0.590643 -4.456649
v -0.707381 0.746827 -4.574750
v 0.375000 1.096192 -5.592700
v 0.510000 1.096192 -5.592700
v 0.735000 1.107333 -5.512172
v 0.600000 1.104273 -5.539102
v 0.960000 1.062814 -5.069552
v 0.984748 0.900673 -4.746121
v -3.387500 0.526600 -4.419459
v -2.962500 0.306927 -4.330157
v -2.962500 0.468656 -4.390480
v -2.612564 0.671125 -6.287896
v -0.775737 0.739470 -4.568162
v -0.717138 0.746055 -4.574052
v 0.375000 1.091174 -5.619335
v 0.510000 1.091174 -5.619335
v 0.735000 1.104273 -5.539102
v 0.600000 1.100559 -5.565950
v 0.825000 1.066943 -5.083137
v 1.375000 0.738056 -4.566908
v -3.387500 0.532932 -4.422885
v -2.914511 0.310568 -4.331207
v -2.872215 0.432411 -4.374433
v -2.607199 0.656658 -6.298648
v -0.765965 0.740804 -4.569348
v -0.726899 0.745192 -4.573274
v 0.375000 1.085510 -5.645840
v 0.510000 1.085510 -5.645840
v 0.735000 1.100559 -5.565950
v 0.600000 1.096192 -5.592700
v 0.960000 1.069997 -5.093609
v 0.986396 0.901228 -4.746886
v -3.387500 0.539241 -4.426353
v -2.962500 0.313840 -4.332164
v -2.962500 0.462116 -4.387470
v -2.602487 0.641389 -6.309608
v -2.598431 0.625325 -6.320725
v -2.561724 0.590278 -4.456419
v -0.736662 0.744235 -4.572414
v 0.375000 1.079202 -5.672199
v 0.510000 1.079202 -5.672199
v 0.735000 1.096192 -5.592700
v 0.600000 1.091174 -5.619335
v 0.854280 1.070512 -5.095413
v 0.988044 0.901787 -4.747659
v -3.387500 0.545528 -4.429862
v -2.913895 0.318168 -4.333444
v -2.962500 0.455557 -4.384502
v -2.595028 0.608476 -6.331945
v -0.756195 0.742042 -4.570451
v -0.957698 0.749823 -4.577483
v 0.375000 1.072254 -5.698397
v 0.735000 1.091174 -5.619335
v 0.600000 1.085510 -5.645840
v 0.825000 1.074342 -5.109211
v 0.960000 1.076636 -5.117822
v 0.989691 0.902351 -4.748439
v -3.387500 0.551791 -4.433411
v -2.962500 0.320741 -4.334217
v -2.962500 0.448979 -4.381576
v -2.876993 0.424967 -4.371325
v -2.592272 0.590851 -6.343220
v -0.746427 0.743186 -4.571473
v 0.510000 1.072254 -5.698397
v 0.735000 1.085510 -5.645840
v 0.600000 1.079202 -5.672199
v 0.825000 1.081104 -5.135458
v 0.991339 0.902918 -4.749226
v -3.387500 0.558032 -4.437000
v -2.962500 0.327628 -4.336314
v -2.962500 0.442382 -4.378693
v -2.590157 0.572454 -6.354499
v 0.285000 0.899583 -4.744622
v 0.285000 0.915275 -4.766722
v 0.735000 1.079202 -5.672199
v 0.960000 1.082727 -5.142179
v 0.992986 0.903490 -4.750020
v -3.575000 0.594860 -4.459303
v -2.913025 0.325776 -4.335742
v -2.881475 0.417465 -4.368258
v -2.588669 0.553272 -6.365745
v 0.048957 0.888193 -4.729268
v 0.600000 1.072254 -5.698397
v 0.825000 1.087225 -5.161861
v 0.994633 0.904067 -4.750822
v -3.387184 0.577574 -4.448591
v -2.962500 0.334502 -4.338455
v -2.962500 0.435766 -4.375853
v 0.285000 0.930424 -4.789196
v 0.285000 0.945021 -4.812033
v 0.735000 1.072254 -5.698397
v 0.960000 1.088267 -5.166667
v 0.996279 0.904647 -4.751631
v -3.386227 0.596315 -4.460223
v -2.911898 0.333393 -4.338103
v -2.885662 0.409912 -4.365234
v 0.285000 0.959058 -4.835219
v 0.825000 1.092702 -5.188406
v 0.997925 0.905231 -4.752447
v -3.384621 0.614278 -4.471865
v -2.962500 0.341362 -4.340641
v -2.962500 0.429133 -4.373056
v 0.285000 0.972526 -4.858740
v 0.960000 1.093253 -5.191274
v 0.999571 0.905820 -4.753270
v -3.575000 0.668626 -4.510220
v -2.910510 0.341022 -4.340529
v -2.962500 0.422481 -4.370302
v 0.285000 0.985417 -4.882581
v 0.825000 1.097530 -5.215076
v 1.001216 0.906412 -4.754101
v -3.382353 0.631484 -4.483486
v -2.962500 0.348207 -4.342871
v -2.889557 0.402316 -4.362259
v 0.285000 0.997724 -4.906730
v 0.960000 1.097683 -5.215987
v 1.002860 0.907009 -4.754939
v -3.379415 0.647948 -4.495053
v -2.908856 0.348664 -4.343021
v -2.962500 0.415811 -4.367590
v 0.285000 1.009440 -4.931171
v 0.960000 1.101555 -5.240794
v 1.004503 0.907610 -4.755785
v -3.375807 0.663667 -4.506517
v -2.962500 0.355038 -4.345146
v -2.893162 0.394687 -4.359335
v 0.285000 1.020556 -4.955890
v 0.825000 1.101707 -5.241856
v 1.006146 0.908214 -4.756637
v -3.371529 0.678633 -4.517829
v -2.962500 0.361853 -4.347464
v -2.962500 0.409125 -4.364922
v 0.285000 1.031068 -4.980872
v 0.960000 1.104865 -5.265681
v 1.007788 0.908823 -4.757497
v -3.575000 0.738056 -4.566908
v -2.906933 0.356323 -4.345579
v -2.896479 0.387031 -4.356465
v 0.285000 1.040968 -5.006103
v 0.825000 1.105232 -5.268729
v 1.009429 0.909435 -4.758364
v -3.366580 0.692836 -4.528939
v -2.962500 0.368654 -4.349827
v -2.962500 0.402421 -4.362297
v 0.285000 1.050251 -5.031568
v 0.960000 1.107614 -5.290637
v 1.375000 0.771002 -4.597302
v -3.360971 0.706269 -4.539796
v -2.904736 0.363996 -4.348206
v -2.962500 0.395700 -4.359716
v 0.285000 1.058911 -5.057251
v 0.825000 1.108100 -5.295681
v 1.011069 0.910051 -4.759238
v -3.354733 0.718923 -4.550344
v -2.962500 0.375439 -4.352234
v -2.899512 0.379359 -4.353652
v 0.285000 1.066943 -5.083137
v 0.854280 1.108252 -5.297305
v 1.012707 0.910671 -4.760120
v -3.347899 0.730787 -4.560526
v -2.902264 0.371678 -4.350898
v -2.962500 0.388963 -4.357178
v 0.285000 1.074342 -5.109211
v 0.960000 1.109799 -5.315649
v 0.825000 1.110312 -5.322694
v 1.014345 0.911295 -4.761009
v -3.575000 0.802698 -4.628998
v -2.962500 0.382209 -4.354684
v 0.285000 1.081104 -5.135458
v 0.960000 1.111419 -5.340703
v 1.015981 0.911923 -4.761904
v -3.340505 0.741854 -4.570287
v 0.285000 1.087225 -5.161861
v 0.825000 1.111865 -5.349753
v 1.017616 0.912554 -4.762808
v -3.332580 0.752122 -4.579581
v 0.285000 1.092702 -5.188406
v 0.960000 1.112474 -5.365788
v 1.019250 0.913189 -4.763718
v -3.324146 0.761615 -4.588386
v 0.285000 1.097530 -5.215076
v 0.825000 1.112759 -5.376842
v 1.020882 0.913828 -4.764635
v -3.575000 0.862135 -4.696088
v 0.285000 1.101707 -5.241856
v 0.960000 1.112963 -5.390890
v 1.022512 0.914470 -4.765560
v -3.315220 0.770358 -4.596682
v 0.285000 1.105232 -5.268729
v 0.825000 1.112993 -5.403945
v 1.024141 0.915116 -4.766492
v -3.305823 0.778375 -4.604450
v 0.285000 1.108100 -5.295681
v 0.960000 1.112885 -5.415997
v 1.025768 0.915765 -4.767431
v -3.295989 0.785685 -4.611668
v 0.285000 1.110312 -5.322694
v 0.825000 1.112567 -5.431045
v 1.027394 0.916418 -4.768378
v -3.285779 0.792293 -4.618309
v 0.285000 1.111865 -5.349753
v 0.960000 1.112241 -5.441095
v 1.029018 0.917075 -4.769332
v -3.575000 0.915981 -4.767744
v 0.285000 1.112759 -5.376842
v 0.825000 1.111481 -5.458127
v 1.030641 0.917735 -4.770293
v -3.275257 0.798203 -4.624346
v 0.285000 1.112993 -5.403945
v 0.960000 1.111031 -5.466173
v 1.032262 0.918399 -4.771262
v -3.264485 0.803422 -4.629751
v 0.285000 1.112567 -5.431045
v 0.825000 1.109736 -5.485175
v 1.050000 1.003489 -4.918565
v 1.185000 1.001197 -4.913818
v 1.185000 1.007707 -4.927458
v -3.253486 0.807959 -4.634510
v 0.285000 1.111481 -5.458127
v 0.960000 1.109256 -5.491217
v 1.050000 1.012975 -4.938859
v -3.575000 0.963886 -4.843500
v 0.285000 1.109736 -5.485175
v 0.854280 1.108252 -5.502695
v 1.185000 1.014030 -4.941184
v -3.242221 0.811839 -4.638625
v -3.044355 0.778517 -4.604588
v -3.034940 0.770507 -4.596824
v 0.285000 1.107333 -5.512172
v 0.825000 1.107333 -5.512172
v 0.960000 1.106916 -5.516215
v 1.185000 1.020167 -4.954995
v -3.230648 0.815082 -4.642101
v -3.054211 0.785821 -4.611804
v 0.285000 1.104273 -5.539102
v 0.825000 1.104273 -5.539102
v 1.050000 1.022051 -4.959340
v -3.373669 0.888193 -4.729268
v -3.064442 0.792423 -4.618442
v 0.285000 1.100559 -5.565950
v 0.960000 1.104013 -5.541153
v 1.185000 1.026115 -4.968889
v -3.575000 1.005540 -4.922865
v -3.218727 0.817713 -4.644941
v -3.074981 0.798326 -4.624472
v 0.285000 1.096192 -5.592700
v 0.825000 1.100559 -5.565950
v 1.050000 1.030712 -4.979999
v -3.206477 0.819730 -4.647130
v -3.085760 0.803531 -4.629865
v 0.285000 1.091174 -5.619335
v 0.960000 1.100548 -5.566020
v 1.185000 1.031874 -4.982861
v -3.193993 0.821105 -4.648630
v -3.096754 0.808050 -4.634606
v 0.285000 1.085510 -5.645840
v 0.960000 1.096523 -5.590802
v 1.185000 1.037443 -4.996911
v -3.575000 1.040673 -5.005325
v -3.575000 1.104885 -5.534157
v -3.575000 1.112097 -5.444816
v 0.285000 1.079202 -5.672199
v 0.825000 1.096192 -5.592700
v 1.050000 1.038957 -5.000829
v -3.181373 0.821809 -4.649400
v 0.960000 1.091941 -5.615487
v 1.185000 1.042821 -5.011035
v -3.168714 0.821812 -4.649404
v -0.353705 1.070512 -5.095413
v 0.825000 1.091174 -5.619335
v 1.050000 1.046780 -5.021820
v -3.575000 1.069057 -5.090344
v -3.373669 0.996317 -5.896107
v -1.360360 0.996317 -4.903893
v 0.960000 1.086802 -5.640063
v 1.185000 1.048006 -5.025230
v -3.156113 0.821116 -4.648642
v -3.172338 0.888193 -6.070732
v -2.568345 0.749823 -4.577483
v 0.825000 1.085510 -5.645840
v 1.185000 1.052998 -5.039495
v -3.143658 0.819751 -4.647153
v 0.960000 1.081111 -5.664516
v 1.050000 1.054180 -5.042964
v -3.373669 0.996317 -4.903893
v -3.373669 0.888193 -6.070732
v 0.825000 1.079202 -5.672199
v 1.185000 1.057796 -5.053826
v -3.575000 1.090507 -5.177371
v -3.131443 0.817747 -4.644977
v -3.575000 0.915981 -6.032256
v -2.942819 0.740821 -6.230636
v 0.825000 1.072254 -5.698397
v 1.050000 1.061152 -5.064253
v -3.575000 1.104885 -5.265843
v -2.951612 0.731245 -6.239081
v 1.185000 1.062399 -5.068221
v -3.119553 0.815133 -4.642155
v -3.575000 0.862135 -6.103912
v 1.050000 1.067694 -5.085678
v -3.108004 0.811909 -4.638700
v -2.959882 0.720879 -6.248003
v 1.185000 1.066806 -5.082677
v -2.769676 1.108252 -5.297305
v -2.967616 0.709700 -6.257378
v 1.185000 1.071017 -5.097192
v -3.172338 0.749823 -6.222517
v 1.050000 1.073804 -5.107231
v -3.575000 1.112097 -5.355184
v -2.981412 0.684832 -6.277365
v -3.575000 0.802698 -6.171002
v -2.974801 0.697683 -6.267181
v 1.185000 1.075029 -5.111763
v -3.172338 1.108252 -5.502695
v 1.050000 1.079479 -5.128902
v -2.992795 0.656674 -6.298637
v -3.575000 0.738056 -6.233092
v -2.987420 0.671158 -6.287870
v 1.185000 1.078844 -5.126386
v -2.997514 0.641392 -6.309607
v -3.373669 0.749823 -6.222517
v 1.185000 1.082460 -5.141060
v -3.575000 0.668626 -6.289780
v 1.050000 1.084716 -5.150683
v -3.001572 0.625320 -6.320729
v 1.185000 1.085876 -5.155782
v -3.004975 0.608467 -6.331952
v 1.050000 1.089515 -5.172564
v -3.007730 0.590841 -6.343226
v 1.185000 1.089092 -5.170549
v -3.575000 0.594860 -6.340697
v 1.185000 1.092107 -5.185358
v -3.009843 0.572444 -6.354505
v -3.172338 0.585919 -6.346292
v 1.050000 1.093871 -5.194538
v 1.375000 0.802698 -4.628998
v -3.011331 0.553263 -6.365750
v 1.185000 1.094921 -5.200207
v 1.033882 0.919067 -4.772238
v -3.575000 0.517237 -6.385513
v 1.050000 1.097785 -5.216596
v 1.035500 0.919738 -4.773221
v -3.012211 0.533278 -6.376927
v 1.185000 1.097533 -5.215093
v 1.037117 0.920413 -4.774213
v -3.012500 0.512470 -6.388000
v 1.185000 1.099942 -5.230013
v 1.038733 0.921091 -4.775211
v -3.012500 0.507255 -6.390688
v 1.050000 1.101254 -5.238727
v 1.040347 0.921773 -4.776218
v -3.012500 0.502026 -6.393348
v 1.185000 1.102149 -5.244964
v 1.041959 0.922458 -4.777232
v -3.012500 0.496783 -6.395980
v 1.050000 1.104277 -5.260924
v 1.043570 0.923147 -4.778253
v -3.012500 0.491526 -6.398585
v 1.185000 1.104153 -5.259943
v 1.050000 0.993596 -4.898466
v -3.012500 0.486255 -6.401162
v 1.185000 1.105953 -5.274949
v 1.045180 0.923839 -4.779283
v -3.012500 0.480971 -6.403711
v 1.050000 1.106852 -5.283177
v 1.046788 0.924535 -4.780320
v -3.012500 0.475674 -6.406232
v 1.185000 1.107549 -5.289977
v 1.048395 0.925235 -4.781365
v -3.575000 0.436259 -6.423937
v 1.050000 1.108979 -5.305477
v 1.050000 0.925938 -4.782418
v -3.012500 0.470363 -6.408726
v 1.185000 1.108940 -5.305026
v 1.375000 0.833092 -4.661944
v -3.012500 0.465040 -6.411191
v 1.185000 1.110128 -5.320092
v 1.050000 0.983300 -4.878570
v -3.012500 0.459703 -6.413628
v 1.050000 1.110657 -5.327816
v 1.375000 0.862135 -4.696088
v -3.012500 0.454354 -6.416037
v 1.185000 1.111110 -5.335173
v 1.256942 0.888193 -4.729268
v -3.012500 0.448992 -6.418418
v 1.050000 1.111885 -5.350184
v 1.375000 0.889780 -4.731374
v 1.375000 0.915981 -4.767744
v -3.012500 0.443618 -6.420771
v 1.185000 1.111888 -5.350266
v 1.050000 0.972607 -4.858885
v -3.012500 0.438231 -6.423095
v 1.185000 1.112461 -5.365369
v -3.012500 0.432832 -6.425390
v 1.050000 1.112662 -5.372573
v 1.050000 0.961519 -4.839420
v -3.012500 0.427421 -6.427658
v 1.185000 1.112829 -5.380477
v 1.050000 0.938180 -4.801178
v -3.012500 0.421998 -6.429896
v 1.050000 1.112989 -5.394972
v 1.050000 0.950042 -4.820182
v -3.012500 0.416564 -6.432106
v 1.185000 1.112991 -5.395589
v -3.012500 0.411118 -6.434288
v 1.185000 1.112949 -5.410702
v 1.375000 0.940697 -4.805140
v -3.012500 0.405660 -6.436441
v 1.050000 1.112864 -5.417373
v 1.375000 0.963886 -4.843500
v -3.012500 0.400191 -6.438564
v 1.185000 1.112701 -5.425813
v 1.191602 1.005848 -4.923514
v -3.012500 0.394711 -6.440659
v 1.050000 1.112289 -5.439768
v 1.256942 0.996317 -4.903893
v -3.172338 0.402062 -6.437842
v 1.185000 1.112248 -5.440919
v 1.375000 0.985513 -4.882763
v 1.197927 1.010418 -4.933284
v -3.012500 0.389220 -6.442726
v -3.575000 0.352451 -6.455721
v 1.185000 1.111589 -5.456018
v 1.203981 1.014907 -4.943128
v -3.012500 0.383719 -6.444763
v 1.050000 1.111264 -5.462146
v 1.209768 1.019312 -4.953043
v -3.012500 0.378206 -6.446771
v 1.185000 1.110726 -5.471107
v 1.375000 1.005540 -4.922865
v -3.012500 0.372683 -6.448750
v 1.050000 1.109788 -5.484499
v 1.215290 1.023632 -4.963027
v -3.012500 0.367150 -6.450700
v 1.220552 1.027864 -4.973077
v -3.012500 0.361607 -6.452620
v 1.050000 1.107862 -5.506818
v 1.225557 1.032008 -4.983192
v -3.012500 0.356053 -6.454512
v 1.050000 1.105488 -5.529093
v 1.375000 1.023937 -4.963741
v -3.012500 0.350490 -6.456374
v 1.050000 1.102666 -5.551316
v 1.230311 1.036060 -4.993369
v -3.012500 0.344917 -6.458207
v 1.050000 1.099397 -5.573478
v 1.234815 1.040020 -5.003606
v -3.012500 0.339334 -6.460010
v 1.050000 1.095683 -5.595570
v 1.239075 1.043885 -5.013902
v -3.012500 0.333742 -6.461784
v 1.375000 1.040673 -5.005325
v -3.012500 0.328141 -6.463528
v 1.243092 1.047654 -5.024252
v -3.012500 0.322530 -6.465243
v 1.246866 1.051325 -5.034653
v -3.012500 0.316911 -6.466929
v 1.250398 1.054898 -5.045101
v -3.012500 0.311282 -6.468584
v 1.375000 1.055721 -5.047549
v -3.575000 0.266358 -6.480658
v 1.253691 1.058370 -5.055593
v -3.012500 0.305645 -6.470210
v 1.256743 1.061740 -5.066126
v 1.259556 1.065006 -5.076695
v -3.575000 0.178538 -6.498587
v 1.262132 1.068168 -5.087297
v -3.373669 0.204513 -6.494049
v 1.375000 1.069057 -5.090344
v -3.575000 0.089559 -6.509391
v 1.264470 1.071224 -5.097929
v -3.172338 0.204513 -6.494049
v 1.266573 1.074173 -5.108586
v 1.268440 1.077013 -5.119267
v 1.375000 1.080658 -5.133642
v 1.270072 1.079745 -5.129969
v 1.271469 1.082369 -5.140689
v -2.776056 0.223972 -6.490232
v 1.272634 1.084885 -5.151427
v 1.273565 1.087292 -5.162179
v -2.773500 0.227041 -6.489597
v 1.375000 1.090507 -5.177371
v -2.770999 0.230303 -6.488912
v 1.274264 1.089591 -5.172943
v 1.274732 1.091782 -5.183718
v -2.587500 0.305645 -6.470210
v 1.274968 1.093864 -5.194501
v 1.375000 1.098587 -5.221462
v -2.531097 0.328421 -6.463438
v 1.274974 1.095837 -5.205290
v -2.529942 0.352830 -6.455592
v 1.274749 1.097702 -5.216084
v -2.528748 0.377050 -6.447187
v 1.274291 1.099458 -5.226881
v -2.527512 0.401067 -6.438227
v 1.273598 1.101106 -5.237680
v -2.526232 0.424869 -6.428716
v 1.375000 1.104885 -5.265843
v -2.524907 0.448443 -6.418660
v 1.272667 1.102645 -5.248481
v -2.523532 0.471777 -6.408065
v 1.271497 1.104076 -5.259282
v -2.522107 0.494858 -6.396938
v 1.270086 1.105399 -5.270083
v -2.520629 0.517675 -6.385284
v 1.268431 1.106613 -5.280882
v -2.519095 0.540214 -6.373110
v 1.375000 1.109391 -5.310441
v -2.517502 0.562463 -6.360420
v 1.266531 1.107719 -5.291679
v -2.515849 0.584410 -6.347222
v 1.264383 1.108717 -5.302472
v -2.514133 0.606043 -6.333524
v 1.261987 1.109607 -5.313257
v -2.512351 0.627350 -6.319335
v 1.375000 1.112097 -5.355184
v -2.510502 0.648319 -6.304667
v 1.259345 1.110391 -5.324023
v -2.508582 0.668936 -6.289528
v 1.256460 1.111070 -5.334759
v -2.506590 0.689192 -6.273931
v 1.253334 1.111644 -5.345453
v -2.504523 0.709072 -6.257885
v 1.249969 1.112116 -5.356094
v -2.502379 0.728566 -6.241401
v 1.375000 1.113000 -5.400000
v -2.500156 0.747661 -6.224488
v 1.246367 1.112486 -5.366671
v -2.497848 0.766348 -6.207155
v 1.242532 1.112756 -5.377172
v -2.495452 0.784624 -6.189407
v 1.238465 1.112926 -5.387588
v -2.492962 0.802482 -6.171249
v 1.234169 1.112999 -5.397905
v -2.490373 0.819918 -6.152687
v 1.229644 1.112975 -5.408117
v -2.487679 0.836926 -6.133725
v 1.224890 1.112858 -5.418224
v -2.484875 0.853501 -6.114369
v 1.219904 1.112651 -5.428227
v -2.481956 0.869638 -6.094625
v 1.214684 1.112355 -5.438130
v -2.478918 0.885331 -6.074498
v 1.209228 1.111974 -5.447932
v -2.475764 0.900573 -6.053998
v 1.203533 1.111512 -5.457637
v -2.472502 0.915353 -6.033138
v 1.197599 1.110969 -5.467246
v -2.469139 0.929662 -6.011932
v 1.191422 1.110351 -5.476760
v -2.465685 0.943490 -5.990391
v -2.462147 0.956827 -5.968529
v -2.458533 0.969664 -5.946358
v 1.256942 1.108252 -5.502695
v 1.048445 1.091321 -5.618602
v 1.046888 1.091118 -5.619615
v -2.587500 0.316911 -6.466929
v -2.587500 0.322530 -6.465243
v 1.045327 1.090915 -5.620623
v -2.587500 0.328141 -6.463528
v 1.043763 1.090712 -5.621624
v -2.587500 0.333742 -6.461784
v 1.042196 1.090509 -5.622619
v -2.587500 0.339334 -6.460010
v 1.040626 1.090307 -5.623607
v -2.587500 0.344917 -6.458207
v 1.039052 1.090105 -5.624590
v -2.587500 0.350490 -6.456374
v 1.037476 1.089903 -5.625567
v -2.587500 0.356053 -6.454512
v 1.035896 1.089702 -5.626537
v -2.587500 0.361607 -6.452620
v 1.034313 1.089501 -5.627501
v -2.587500 0.367150 -6.450700
v 1.032727 1.089300 -5.628459
v -2.587500 0.372683 -6.448750
v 1.031137 1.089100 -5.629411
v -2.587500 0.378206 -6.446771
v 1.029544 1.088901 -5.630357
v -2.587500 0.383719 -6.444763
v 1.027948 1.088701 -5.631298
v -2.587500 0.389220 -6.442726
v 1.026349 1.088502 -5.632231
v -2.587500 0.394711 -6.440659
v 1.024746 1.088304 -5.633159
v -2.587500 0.400191 -6.438564
v 1.023140 1.088106 -5.634081
v -2.587500 0.405660 -6.436441
v 1.021530 1.087909 -5.634997
v -2.587500 0.411118 -6.434288
v 1.019918 1.087712 -5.635907
v -2.587500 0.416564 -6.432106
v 1.018301 1.087515 -5.636812
v -2.587500 0.421998 -6.429896
v 1.016682 1.087319 -5.637710
v -2.587500 0.427421 -6.427658
v 1.015059 1.087124 -5.638602
v -2.587500 0.432832 -6.425390
v 1.013433 1.086929 -5.639487
v -2.587500 0.438231 -6.423095
v 1.011804 1.086735 -5.640367
v -2.587500 0.443618 -6.420771
v 1.010172 1.086541 -5.641241
v -2.587500 0.448992 -6.418418
v 1.008536 1.086348 -5.642109
v -2.587500 0.454354 -6.416037
v 1.006898 1.086156 -5.642970
v -2.587500 0.459703 -6.413628
v 1.005257 1.085964 -5.643825
v -2.587500 0.465040 -6.411191
v 1.003613 1.085773 -5.644674
v -2.587500 0.470363 -6.408726
v 1.001967 1.085583 -5.645517
v -2.587500 0.475674 -6.406232
v 1.000318 1.085393 -5.646353
v -2.587500 0.480971 -6.403711
v 0.998666 1.085205 -5.647184
v -2.587500 0.486255 -6.401162
v 0.997011 1.085017 -5.648007
v -2.587500 0.491526 -6.398585
v 0.995354 1.084830 -5.648825
v -2.587500 0.496783 -6.395980
v 0.993695 1.084643 -5.649636
v -2.587500 0.502026 -6.393348
v 0.992033 1.084458 -5.650441
v -2.587500 0.507255 -6.390688
v 0.990369 1.084273 -5.651239
v -2.587500 0.512470 -6.388000
v 0.988702 1.084089 -5.652030
v -2.587789 0.533284 -6.376923
v 0.987033 1.083906 -5.652816
v 0.985362 1.083725 -5.653595
v 0.983689 1.083543 -5.654367
v 0.982013 1.083363 -5.655133
v 0.980334 1.083184 -5.655893
v 0.978654 1.083006 -5.656646
v 0.976970 1.082829 -5.657393
v 0.975285 1.082652 -5.658134
v 0.973597 1.082477 -5.658868
v 0.971906 1.082303 -5.659596
v 0.961709 1.081278 -5.663832
v 0.970213 1.082129 -5.660318
v 0.963415 1.081446 -5.663141
v 0.968517 1.081957 -5.661033
v 0.965118 1.081615 -5.662445
v 0.966819 1.081786 -5.661742
v 1.256942 0.204513 -4.305951
v 1.055611 0.585919 -4.453708
v 1.055611 0.402062 -4.362158
v -1.360360 1.070512 -5.704587
v -0.957698 0.888193 -4.729268
v -0.152374 1.108252 -5.502695
v -0.555036 1.070512 -5.095413
v -0.555036 1.108252 -5.502695
v -0.957698 1.108252 -5.297305
v -0.555036 1.108252 -5.297305
v -1.360360 1.108252 -5.502695
v -0.756367 0.996317 -4.903893
v -0.756367 1.070512 -5.095413
v -0.957698 1.070512 -5.095413
v -0.756367 1.108252 -5.297305
v -0.756367 1.108252 -5.502695
v -0.957698 0.996317 -4.903893
v -1.159029 0.996317 -4.903893
v -1.360360 1.108252 -5.297305
v -0.957698 1.108252 -5.502695
v -2.367014 0.888193 -4.729268
v -1.360360 0.749823 -4.577483
v -1.360360 1.070512 -5.095413
v -1.159029 1.108252 -5.502695
v -1.159029 0.888193 -4.729268
v -1.763022 0.749823 -4.577483
v -1.561691 0.749823 -4.577483
v -1.964353 0.749823 -4.577483
v -2.165684 1.108252 -5.502695
v -1.561691 0.888193 -4.729268
v -1.561691 0.996317 -4.903893
v -1.763022 0.888193 -4.729268
v -1.763022 0.996317 -4.903893
v -1.964353 1.070512 -5.095413
v -1.964353 0.888193 -4.729268
v -2.165684 1.108252 -5.297305
v -1.964353 0.996317 -4.903893
v -2.165684 0.888193 -4.729268
v -2.165684 1.070512 -5.095413
v -2.165684 0.996317 -4.903893
v -2.367014 1.108252 -5.297305
v -2.367014 0.996317 -4.903893
v -2.367014 1.070512 -5.095413
v -2.568345 1.108252 -5.297305
v -2.769676 0.749823 -4.577483
v -2.769676 0.888193 -4.729268
v -2.568345 0.996317 -4.903893
v -2.568345 1.070512 -5.095413
v -2.769676 0.996317 -4.903893
v -2.971007 1.108252 -5.502695
v -3.172338 0.996317 -4.903893
v -3.172338 1.108252 -5.297305
v -2.769676 1.108252 -5.502695
v -2.769676 0.888193 -6.070732
v -2.971007 0.888193 -6.070732
v -2.769676 0.996317 -5.896107
v -2.971007 1.070512 -5.095413
v -3.172338 1.070512 -5.704587
v -3.373669 1.070512 -5.704587
v -2.971007 0.996317 -5.896107
v -3.172338 0.996317 -5.896107
v -2.971007 0.204513 -6.494049
v -3.172338 1.070512 -5.095413
v -3.373669 1.070512 -5.095413
v -3.373669 1.108252 -5.297305
v -3.373669 0.402062 -6.437842
v -0.253040 1.108252 -5.297305
v -2.568345 0.888193 -4.729268
v -0.353705 1.108252 -5.297305
v -1.662356 1.070512 -5.095413
v -1.863687 1.094049 -5.195487
v -1.863687 0.996317 -4.903893
v -1.964353 1.037842 -4.997938
v -2.065018 0.996317 -4.903893
v -2.065018 1.070512 -5.095413
v -2.266349 1.037842 -4.997938
v -2.266349 0.996317 -4.903893
v -2.669011 1.070512 -5.095413
v -1.410693 0.996317 -4.903893
v -1.511358 1.018166 -4.950436
v -1.914020 1.108252 -5.297305
v -2.014685 1.111812 -5.348598
v -1.712689 1.055303 -5.046298
v -1.863687 0.972342 -4.858409
v -1.914020 0.996317 -4.903893
v -2.065018 1.083437 -5.145178
v -2.216016 0.972342 -4.858409
v -2.316682 1.083437 -5.145178
f 1 2 3
f 4 5 3
f 6 7 3
f 3 8 9
f 10 11 3
f 3 12 13
f 14 15 3
f 3 16 17
f 18 19 3
f 20 21 3
f 22 23 3
f 3 24 25
f 26 27 3
f 27 28 29
f 29 30 31
f 31 32 33
f 33 34 35
f 35 36 37
f 37 38 39
f 39 40 41
f 41 42 43
f 43 44 45
f 45 46 47
f 47 48 49
f 49 50 51
f 52 53 54
f 55 56 52
f 57 58 52
f 59 60 61
f 62 63 64
f 65 63 66
f 65 66 67
f 68 69 70
f 71 72 73
f 74 75 76
f 77 78 79
f 80 81 82
f 83 84 85
f 86 84 83
f 87 84 88
f 89 84 90
f 91 84 92
f 93 84 94
f 95 84 96
f 97 84 98
f 99 84 100
f 101 84 102
f 103 84 104
f 105 84 106
f 107 84 108
f 109 84 110
f 111 112 113
f 111 113 114
f 115 116 117
f 118 117 119
f 120 121 122
f 123 124 125
f 126 127 128
f 129 130 131
f 132 133 129
f 129 134 135
f 136 137 129
f 129 138 139
f 140 141 129
f 142 143 129
f 144 145 129
f 146 147 129
f 148 149 129
f 150 151 129
f 152 153 129
f 154 155 129
f 129 156 157
f 129 158 159
f 129 160 161
f 129 162 163
f 129 164 165
f 129 166 167
f 168 169 170
f 171 172 170
f 173 174 170
f 175 176 170
f 177 178 170
f 179 180 170
f 181 182 170
f 183 184 170
f 170 185 186
f 170 187 188
f 189 190 170
f 161 191 192
f 193 194 161
f 194 195 196
f 196 197 198
f 170 199 200
f 201 202 170
f 170 203 204
f 205 206 170
f 207 208 170
f 209 210 170
f 211 212 27
f 213 214 27
f 215 216 27
f 217 218 27
f 27 219 220
f 221 222 27
f 223 224 27
f 225 3 27
f 3 226 227
f 228 229 230
f 230 231 232
f 233 234 230
f 230 235 236
f 237 238 230
f 239 240 241
f 230 239 241
f 242 243 3
f 1 3 244
f 6 3 5
f 10 3 9
f 14 3 13
f 18 3 17
f 22 3 21
f 26 3 25
f 27 29 31
f 31 33 35
f 35 37 39
f 39 41 43
f 43 45 47
f 47 49 51
f 55 52 54
f 59 61 245
f 62 65 246
f 65 67 247
f 70 69 248
f 71 73 249
f 250 74 76
f 68 251 69
f 80 82 252
f 88 84 86
f 90 84 87
f 94 84 91
f 98 84 95
f 102 84 99
f 106 84 103
f 110 84 107
f 253 111 114
f 113 112 254
f 117 255 115
f 117 116 256
f 257 120 122
f 122 121 258
f 126 128 259
f 132 129 131
f 136 129 135
f 140 129 139
f 144 129 143
f 148 129 147
f 152 129 151
f 155 156 129
f 159 160 129
f 163 164 129
f 170 167 168
f 170 172 173
f 170 176 177
f 181 170 180
f 184 185 170
f 188 189 170
f 193 161 192
f 210 196 198
f 201 170 200
f 205 170 204
f 209 170 208
f 215 27 214
f 217 27 216
f 221 27 220
f 225 27 224
f 228 230 227
f 233 230 232
f 237 230 236
f 230 238 239
f 244 3 243
f 3 7 8
f 3 15 16
f 3 23 24
f 27 31 35
f 35 39 43
f 43 47 51
f 57 52 56
f 260 59 261
f 246 65 262
f 65 247 263
f 70 248 264
f 71 249 265
f 266 250 76
f 267 251 68
f 80 252 268
f 92 84 89
f 96 84 93
f 104 84 101
f 269 84 109
f 270 253 271
f 113 254 272
f 118 255 117
f 124 256 273
f 274 257 122
f 258 275 122
f 126 259 276
f 129 133 134
f 142 129 141
f 150 129 149
f 157 158 129
f 165 166 129
f 170 174 175
f 183 170 182
f 161 190 191
f 170 202 203
f 207 170 206
f 27 218 219
f 223 27 222
f 230 229 231
f 230 234 235
f 4 3 2
f 20 3 19
f 27 35 43
f 277 51 52
f 52 58 278
f 279 59 260
f 262 65 280
f 65 263 281
f 282 52 283
f 71 265 284
f 285 266 76
f 286 287 78
f 80 268 288
f 100 84 97
f 108 84 105
f 289 270 114
f 272 290 119
f 291 118 119
f 273 292 124
f 293 274 123
f 294 295 296
f 276 259 295
f 129 137 138
f 154 129 153
f 170 169 171
f 186 187 170
f 211 27 210
f 213 27 212
f 242 3 230
f 3 11 12
f 51 27 43
f 297 278 298
f 299 59 279
f 280 65 300
f 65 281 301
f 264 248 302
f 71 284 303
f 304 285 76
f 305 251 267
f 80 288 306
f 85 84 307
f 308 84 269
f 309 289 114
f 272 119 113
f 290 291 119
f 124 292 310
f 311 293 123
f 312 295 294
f 276 295 313
f 146 129 145
f 179 170 178
f 170 210 27
f 229 27 3
f 314 315 299
f 280 300 316
f 65 301 317
f 302 248 318
f 71 303 319
f 320 304 76
f 305 321 251
f 80 306 322
f 323 84 308
f 324 309 114
f 113 119 325
f 119 326 325
f 123 310 327
f 328 311 123
f 329 295 312
f 313 295 330
f 161 162 129
f 170 198 199
f 314 331 315
f 316 300 332
f 65 317 333
f 77 79 334
f 71 319 335
f 336 320 76
f 337 321 305
f 80 322 338
f 339 84 323
f 340 324 114
f 325 326 341
f 326 342 343
f 124 117 344
f 345 328 123
f 346 295 329
f 330 295 347
f 194 198 170
f 348 331 349
f 316 332 350
f 65 333 351
f 302 318 352
f 71 335 353
f 354 336 76
f 286 355 287
f 80 338 356
f 357 84 339
f 358 340 114
f 343 342 359
f 342 360 359
f 117 124 361
f 327 345 123
f 362 295 346
f 347 295 363
f 348 364 331
f 316 350 365
f 65 351 366
f 367 368 318
f 71 353 369
f 370 354 76
f 371 321 337
f 80 356 372
f 307 84 373
f 358 114 84
f 359 360 374
f 360 375 374
f 361 124 376
f 361 376 377
f 363 295 362
f 296 295 378
f 346 379 122
f 380 381 364
f 316 365 382
f 65 366 383
f 384 334 385
f 71 369 386
f 370 76 387
f 371 388 321
f 80 372 389
f 390 84 357
f 358 84 391
f 374 375 392
f 375 393 392
f 394 376 395
f 394 395 396
f 274 122 397
f 379 275 398
f 399 381 380
f 316 382 400
f 65 383 401
f 367 402 368
f 71 386 403
f 370 404 405
f 355 52 406
f 80 389 407
f 408 84 390
f 409 84 410
f 392 393 411
f 393 412 411
f 396 395 413
f 396 413 414
f 415 123 122
f 379 295 416
f 316 400 417
f 65 401 418
f 419 420 402
f 71 403 421
f 405 404 422
f 423 388 371
f 80 407 424
f 425 84 408
f 410 84 426
f 411 412 427
f 412 428 427
f 414 413 429
f 414 429 430
f 431 415 432
f 416 295 433
f 316 417 434
f 65 418 435
f 384 385 436
f 71 421 437
f 422 404 438
f 439 388 423
f 80 424 440
f 441 84 425
f 426 84 442
f 427 428 443
f 428 444 443
f 430 429 445
f 430 445 446
f 431 122 447
f 378 295 275
f 316 434 448
f 65 435 449
f 419 450 420
f 71 437 451
f 438 404 452
f 406 52 453
f 80 440 454
f 455 84 441
f 442 84 456
f 443 444 457
f 444 458 459
f 446 445 460
f 446 460 461
f 431 447 462
f 295 463 433
f 316 448 464
f 65 449 465
f 466 467 450
f 71 451 468
f 438 452 469
f 439 470 388
f 80 454 471
f 472 84 455
f 456 84 473
f 457 458 474
f 458 475 474
f 461 460 476
f 461 476 477
f 462 447 478
f 275 479 480
f 316 464 481
f 65 465 482
f 483 436 484
f 71 468 485
f 469 452 486
f 487 470 439
f 80 471 488
f 489 84 472
f 473 84 490
f 474 475 491
f 475 492 491
f 477 476 493
f 477 493 494
f 462 478 495
f 275 496 497
f 316 481 498
f 65 482 499
f 466 500 467
f 71 485 501
f 486 452 502
f 503 470 487
f 80 488 504
f 373 84 505
f 490 84 506
f 491 492 507
f 492 508 507
f 494 493 509
f 494 510 511
f 495 478 512
f 275 497 513
f 316 498 514
f 65 499 515
f 516 500 466
f 71 501 517
f 502 452 518
f 298 453 52
f 80 504 519
f 520 84 489
f 506 84 521
f 507 508 522
f 508 523 522
f 511 510 524
f 511 524 525
f 495 512 526
f 275 513 527
f 316 514 528
f 529 499 530
f 483 484 531
f 71 517 532
f 404 76 533
f 503 534 470
f 521 84 535
f 522 523 536
f 523 537 536
f 525 524 538
f 525 538 539
f 526 512 540
f 275 527 541
f 316 528 542
f 529 530 543
f 516 544 500
f 71 532 545
f 533 76 546
f 547 534 503
f 80 548 549
f 80 519 548
f 535 84 550
f 536 537 551
f 537 552 551
f 539 538 553
f 539 553 554
f 526 540 555
f 275 541 556
f 542 528 557
f 529 543 558
f 559 560 516
f 71 545 561
f 546 76 562
f 563 564 565
f 80 549 566
f 550 84 567
f 551 552 568
f 552 569 568
f 554 553 570
f 554 570 571
f 555 540 572
f 275 556 573
f 542 557 574
f 529 558 575
f 559 576 560
f 71 561 577
f 562 76 578
f 298 579 453
f 80 566 580
f 567 84 581
f 568 569 582
f 569 583 582
f 571 570 584
f 571 584 585
f 555 572 586
f 275 573 587
f 542 574 588
f 529 575 589
f 590 591 576
f 71 577 592
f 578 76 593
f 298 594 579
f 80 580 595
f 581 84 596
f 582 583 597
f 583 598 597
f 585 584 599
f 585 599 600
f 586 572 601
f 275 587 602
f 542 588 603
f 529 589 604
f 590 605 591
f 71 592 606
f 594 298 607
f 80 595 608
f 596 84 609
f 597 598 610
f 598 611 610
f 600 599 612
f 600 612 613
f 586 601 614
f 275 602 615
f 542 603 616
f 529 604 617
f 618 605 590
f 60 606 619
f 607 298 620
f 80 608 621
f 609 84 622
f 610 611 623
f 611 624 623
f 625 612 626
f 625 626 627
f 614 601 628
f 275 615 629
f 542 616 630
f 529 617 631
f 632 633 605
f 619 61 60
f 620 298 634
f 80 621 635
f 622 84 636
f 623 624 637
f 624 638 637
f 627 626 639
f 627 639 640
f 614 628 641
f 463 615 642
f 542 630 643
f 529 631 644
f 645 633 632
f 634 298 646
f 80 635 647
f 636 84 648
f 637 638 649
f 638 650 649
f 640 639 651
f 640 651 652
f 641 628 653
f 463 642 654
f 542 643 655
f 529 644 656
f 657 633 645
f 646 298 658
f 80 647 659
f 648 84 660
f 649 650 661
f 650 662 661
f 652 651 663
f 652 663 664
f 641 665 666
f 463 654 667
f 542 655 668
f 529 656 669
f 670 671 657
f 658 298 672
f 80 659 673
f 660 84 674
f 661 662 675
f 662 676 675
f 664 663 677
f 664 677 678
f 641 666 679
f 463 667 680
f 542 668 681
f 529 669 682
f 683 671 670
f 672 298 684
f 80 673 685
f 674 84 686
f 675 676 687
f 676 688 689
f 678 677 690
f 678 690 691
f 679 666 692
f 463 693 694
f 542 681 695
f 529 682 696
f 683 697 671
f 684 298 698
f 80 685 699
f 686 84 700
f 689 688 701
f 688 702 701
f 691 690 703
f 691 703 704
f 679 692 705
f 694 693 706
f 542 695 707
f 529 696 708
f 709 697 710
f 698 298 711
f 80 699 712
f 700 84 713
f 701 702 714
f 702 715 714
f 704 703 716
f 704 716 717
f 705 692 718
f 706 693 719
f 542 707 720
f 529 708 721
f 709 722 697
f 711 298 723
f 80 712 724
f 713 84 520
f 714 715 725
f 715 726 725
f 727 716 728
f 727 728 729
f 705 718 730
f 719 693 731
f 720 707 732
f 529 721 733
f 734 722 709
f 723 298 735
f 80 724 736
f 505 84 737
f 725 726 738
f 726 739 738
f 729 728 740
f 729 740 741
f 730 718 742
f 731 693 743
f 720 732 744
f 529 733 745
f 734 746 722
f 735 298 747
f 80 736 748
f 737 84 749
f 738 739 750
f 739 751 750
f 741 740 752
f 741 752 753
f 730 742 754
f 743 693 755
f 720 744 756
f 529 745 757
f 758 746 734
f 747 298 759
f 80 748 760
f 749 84 761
f 750 751 762
f 751 763 762
f 753 752 764
f 753 764 765
f 754 742 766
f 755 693 767
f 720 756 768
f 529 757 769
f 770 771 746
f 759 298 772
f 80 760 773
f 761 84 774
f 762 763 775
f 763 776 777
f 765 764 778
f 765 778 779
f 754 766 780
f 767 693 781
f 720 768 782
f 529 769 783
f 784 771 770
f 772 298 785
f 80 773 786
f 774 84 787
f 775 776 788
f 776 789 788
f 779 778 790
f 779 790 791
f 780 766 792
f 781 693 793
f 720 782 794
f 529 783 795
f 796 771 784
f 785 298 797
f 80 786 798
f 787 84 799
f 788 789 800
f 789 801 800
f 791 790 802
f 791 802 803
f 780 792 804
f 793 693 805
f 720 794 806
f 529 795 807
f 796 808 771
f 797 298 809
f 80 798 810
f 799 84 811
f 800 801 812
f 801 813 812
f 803 802 814
f 803 814 815
f 804 792 816
f 805 693 817
f 720 806 818
f 529 807 819
f 820 808 796
f 809 298 821
f 810 798 822
f 811 84 823
f 812 813 824
f 813 825 824
f 815 814 826
f 815 826 827
f 804 816 828
f 817 693 829
f 720 818 830
f 819 807 831
f 820 832 808
f 821 298 833
f 810 822 834
f 823 84 835
f 824 825 836
f 825 837 836
f 827 826 838
f 827 838 839
f 828 816 840
f 817 829 841
f 720 830 842
f 819 831 843
f 844 832 820
f 845 298 846
f 810 834 847
f 835 84 848
f 836 837 849
f 837 850 849
f 839 838 851
f 839 851 852
f 828 840 853
f 841 829 854
f 720 842 855
f 843 831 856
f 857 832 844
f 846 298 858
f 847 834 859
f 84 847 860
f 849 850 861
f 852 851 862
f 852 862 863
f 864 840 865
f 854 829 866
f 720 855 867
f 843 856 868
f 869 870 857
f 858 298 871
f 84 859 872
f 848 84 872
f 861 850 873
f 863 862 874
f 863 874 875
f 864 865 876
f 866 829 877
f 720 867 878
f 868 856 879
f 880 870 869
f 871 298 881
f 872 882 883
f 875 874 884
f 876 865 885
f 877 829 886
f 720 878 887
f 879 856 888
f 880 889 870
f 881 298 890
f 872 883 891
f 875 884 892
f 876 885 893
f 886 829 894
f 887 878 895
f 879 888 896
f 897 889 880
f 833 298 845
f 872 898 899
f 892 884 900
f 893 885 901
f 894 829 902
f 887 895 903
f 896 888 904
f 897 905 889
f 872 899 906
f 893 901 907
f 902 829 908
f 887 903 909
f 896 904 910
f 911 905 897
f 872 906 912
f 907 901 913
f 908 829 914
f 887 909 915
f 910 904 916
f 917 905 911
f 872 912 918
f 907 913 919
f 914 829 920
f 915 909 921
f 910 916 922
f 917 923 905
f 872 918 924
f 919 913 925
f 920 829 926
f 915 921 927
f 922 916 928
f 929 923 917
f 872 924 930
f 919 925 931
f 926 829 932
f 915 927 933
f 922 928 934
f 929 935 923
f 872 930 936
f 919 931 937
f 932 829 938
f 915 933 939
f 934 928 940
f 941 935 929
f 872 936 942
f 937 931 943
f 938 829 944
f 915 939 945
f 940 928 946
f 941 947 935
f 872 942 948
f 937 943 949
f 944 829 950
f 945 939 951
f 940 946 952
f 953 947 941
f 872 948 954
f 949 943 955
f 950 829 956
f 945 951 957
f 952 946 958
f 959 947 953
f 872 954 960
f 949 955 961
f 950 956 962
f 945 957 963
f 952 958 964
f 959 965 947
f 872 960 966
f 961 955 967
f 962 956 968
f 945 963 969
f 964 958 970
f 971 965 959
f 872 966 972
f 961 973 974
f 968 956 975
f 945 969 976
f 964 970 977
f 971 970 965
f 872 972 978
f 974 973 979
f 975 956 980
f 976 969 981
f 977 970 971
f 872 978 982
f 974 979 983
f 980 956 984
f 976 981 985
f 857 870 832
f 872 982 986
f 983 979 987
f 984 956 988
f 976 985 989
f 770 746 758
f 872 986 990
f 983 987 991
f 988 956 992
f 976 989 993
f 710 697 683
f 872 990 994
f 991 987 995
f 992 956 996
f 993 989 997
f 657 671 633
f 872 994 998
f 991 995 999
f 996 956 1000
f 993 997 1001
f 632 605 618
f 872 998 1002
f 999 995 1003
f 1000 956 1004
f 993 1001 1005
f 590 576 559
f 872 1002 1006
f 999 1003 1007
f 1004 956 1008
f 993 1005 1009
f 516 560 544
f 872 1006 1010
f 1007 1003 1011
f 1008 956 1012
f 993 1009 1013
f 466 450 419
f 872 1010 1014
f 1007 1011 1015
f 1012 956 1016
f 1013 1009 1017
f 419 402 367
f 872 1014 1018
f 1015 1011 1019
f 1016 956 1020
f 1013 1017 1021
f 318 368 352
f 872 1018 1022
f 1015 1019 1023
f 1024 1025 1026
f 1013 1021 1027
f 564 534 547
f 872 1022 1028
f 1023 1019 1029
f 1024 1026 1030
f 1013 1027 1031
f 565 564 547
f 872 1028 1032
f 1023 1029 1033
f 1030 1026 1034
f 1031 1027 1035
f 1036 1037 52
f 872 1032 1038
f 1039 1029 1040
f 1030 1034 1041
f 1031 1035 1042
f 1043 1036 52
f 872 1038 1044
f 1039 1040 1045
f 1030 1041 1046
f 1031 1042 1047
f 1048 1043 52
f 872 1044 1049
f 1045 1040 1050
f 1046 1041 1051
f 1052 1042 1053
f 1054 1048 52
f 872 1049 1055
f 1045 1050 1056
f 1046 1051 1057
f 1052 1053 1058
f 1059 1054 52
f 872 1055 1060
f 1056 1050 1061
f 1057 1051 1062
f 1052 1058 1063
f 1064 1059 52
f 872 1060 1065
f 1056 1061 1066
f 1057 1062 1067
f 1052 1063 1068
f 1069 1070 52
f 872 1065 1071
f 1056 1066 1072
f 1057 1067 1073
f 1068 1063 1074
f 282 1069 52
f 872 1071 277
f 1072 1066 1075
f 1073 1067 1076
f 1068 1074 1077
f 286 282 355
f 872 277 1078
f 1072 1075 1079
f 1073 1076 1080
f 1068 1077 1081
f 77 286 1082
f 872 52 1083
f 1079 1075 1084
f 1080 1076 1085
f 1081 1077 1086
f 384 77 1087
f 847 52 1088
f 1079 1084 1089
f 1080 1085 1090
f 1081 1086 1091
f 483 384 436
f 847 1037 563
f 1089 1084 1092
f 1080 1090 1093
f 1081 1091 1094
f 483 531 1095
f 1089 1092 1096
f 1093 1090 1097
f 1098 1091 1099
f 1100 531 1101
f 1096 1092 1102
f 1093 1097 1103
f 1098 1099 1104
f 1100 1101 1105
f 1103 1097 1106
f 1104 1099 1107
f 1100 1105 1108
f 1103 1106 1109
f 1107 1110 52
f 1108 1105 1111
f 1109 1106 1112
f 1107 52 1113
f 1108 1111 1114
f 1109 1112 1115
f 1110 1064 52
f 1108 1114 1116
f 1109 1115 1117
f 52 1118 1104
f 1119 1120 1121
f 1117 1115 1122
f 1070 1118 1123
f 1121 1120 1114
f 1117 1122 1124
f 1125 1126 1127
f 1127 1120 1119
f 1124 1122 1128
f 1129 1126 1125
f 1127 1126 1130
f 1124 1128 1131
f 1129 1132 1126
f 1124 1131 1133
f 1134 1132 1129
f 1133 1131 1135
f 1136 1132 1134
f 1133 1135 1137
f 1138 1132 1136
f 1137 1135 1139
f 1138 1140 1132
f 1137 1139 1141
f 1142 1140 1143
f 1137 1141 1144
f 1020 956 1145
f 1146 1140 1142
f 1144 1141 1147
f 1020 1145 1148
f 1146 1149 1140
f 1144 1147 1150
f 1148 1145 1151
f 1152 1149 1146
f 1150 1147 1153
f 1151 1145 1154
f 1155 1149 1152
f 1150 1153 1156
f 1154 1145 1157
f 1158 1149 1155
f 1150 1156 1159
f 1157 1145 1160
f 1161 1149 1158
f 1159 1156 1162
f 1160 1145 1163
f 1164 1149 1161
f 1159 1162 1165
f 1163 1145 1166
f 1167 1149 1164
f 1165 1162 1168
f 1169 1025 1024
f 1170 1149 1167
f 1165 1168 1171
f 1166 1145 1172
f 1173 1149 1170
f 1165 1171 1174
f 1172 1145 1175
f 1176 1149 1173
f 1174 1171 1177
f 1175 1145 1178
f 1176 1179 1149
f 1174 1177 1180
f 1178 1145 1181
f 1179 1176 1182
f 1180 1177 1183
f 1181 1145 1184
f 1179 1182 1185
f 1180 1183 1186
f 1187 1025 1169
f 1179 1185 1188
f 1180 1186 1189
f 1181 1184 1190
f 1179 1188 1191
f 1189 1186 1192
f 1181 1190 1193
f 1179 1191 1194
f 1189 1192 1195
f 1181 1196 1197
f 1179 1194 1198
f 1195 1192 1199
f 1200 1025 1187
f 1179 1198 1201
f 1195 1199 1202
f 1181 1197 1025
f 1179 1201 1203
f 1195 1202 1204
f 1205 1025 1200
f 1179 1203 1206
f 1204 1202 1207
f 1181 1025 1208
f 1179 1206 1209
f 1204 1207 1210
f 1211 1025 1205
f 1179 1209 1212
f 1210 1207 1213
f 1208 1025 1211
f 1179 1212 1214
f 1210 1213 1215
f 1025 1197 1216
f 1179 1214 1217
f 1210 1215 1218
f 1025 1216 1219
f 1179 1217 1220
f 1218 1215 1221
f 1025 1219 1222
f 1179 1220 1223
f 1218 1221 1224
f 1222 1219 1225
f 1179 1223 1226
f 1224 1221 1227
f 1222 1228 1229
f 1230 1231 1223
f 1224 1227 1232
f 1229 1228 1233
f 1234 1231 1230
f 1224 1232 1235
f 1233 1228 1236
f 1237 1231 1234
f 1235 1232 1238
f 1236 1228 1239
f 1240 1231 1237
f 1235 1238 1241
f 1236 1239 1242
f 1243 1231 1240
f 1241 1238 129
f 1242 1239 1244
f 1245 1231 1243
f 1241 129 1246
f 1244 1239 1247
f 1248 1231 1245
f 1246 129 1249
f 1247 1239 1250
f 1251 1231 1248
f 1249 129 1252
f 1247 1250 1253
f 1254 1231 1251
f 1252 129 1255
f 1253 1250 1256
f 1257 1231 1254
f 1255 129 1258
f 1256 1250 1259
f 1260 1231 1257
f 1258 129 170
f 1259 1250 1261
f 1262 1231 1260
f 1259 1261 1263
f 1264 1231 1262
f 1263 1261 1265
f 1266 1231 1264
f 1265 1261 1267
f 1268 1231 1266
f 1267 1261 1269
f 1268 1270 1231
f 1267 1269 1271
f 1270 1268 1272
f 1271 1269 1273
f 1270 1272 71
f 1273 1269 1274
f 1270 71 1275
f 1274 1269 1276
f 1275 71 1277
f 1276 1269 1278
f 1279 71 60
f 1276 1278 1280
f 60 71 1281
f 1280 1278 1282
f 261 59 245
f 1282 1278 1283
f 299 315 59
f 1283 1278 1284
f 349 331 314
f 1283 1284 1285
f 380 364 348
f 1285 1284 1286
f 1287 381 399
f 1286 1284 1288
f 1287 518 381
f 1288 1284 1289
f 1290 518 1287
f 1289 1284 1291
f 1292 518 1290
f 1289 1291 1293
f 502 518 1292
f 1293 1291 1294
f 593 76 1295
f 1294 1291 1296
f 593 1295 297
f 1296 1291 1297
f 593 297 1298
f 1296 1297 1299
f 1298 297 1300
f 1299 1297 1301
f 1300 297 1302
f 1301 1297 1303
f 1302 297 1304
f 1303 1297 1305
f 1304 297 1306
f 1305 1297 1307
f 1306 297 1308
f 1305 1307 1309
f 1308 297 1310
f 1309 1307 1311
f 1310 297 1312
f 1311 1307 1313
f 1312 297 1314
f 1313 1307 1315
f 1314 297 1316
f 1315 1307 1317
f 1316 297 1318
f 1315 1317 1319
f 1318 297 1320
f 1319 1317 1321
f 1320 297 1322
f 1321 1317 1323
f 1322 297 1324
f 1323 1317 1325
f 1324 297 1326
f 1323 1325 1327
f 1326 297 1328
f 1327 1325 1329
f 1328 297 1330
f 1329 1325 1331
f 1330 297 1332
f 1331 1325 1333
f 1332 297 1334
f 1333 1325 1335
f 1334 297 1336
f 1333 1335 1337
f 1336 297 1338
f 1337 1335 1339
f 1338 297 1340
f 1339 1335 1341
f 1340 297 1342
f 1341 1335 1343
f 1342 297 1344
f 1343 1335 1345
f 1344 297 1346
f 1345 1335 1347
f 1346 297 1348
f 1347 1335 1349
f 1348 297 1350
f 1349 1335 1351
f 1350 297 1352
f 1351 1335 1353
f 1352 297 1354
f 1353 1335 1355
f 1354 297 1356
f 1355 1335 1357
f 1356 297 1358
f 1357 1335 1359
f 1358 297 1360
f 1359 1335 129
f 1360 297 1361
f 129 1335 130
f 1361 297 1362
f 170 129 1363
f 1362 297 298
f 1364 170 27
f 297 52 278
f 1365 1364 27
f 298 1366 1367
f 1368 1365 27
f 298 1367 1369
f 1370 1368 27
f 298 1369 1371
f 1372 1370 27
f 298 1371 1373
f 1374 1372 27
f 298 1373 1375
f 1376 1374 27
f 298 1375 1377
f 1378 1376 27
f 298 1377 1379
f 1380 1378 27
f 298 1379 1381
f 1382 1380 27
f 298 1381 1383
f 1384 1382 27
f 298 1383 1385
f 1386 1384 27
f 298 1385 1387
f 1388 1386 27
f 298 1387 1389
f 1390 1388 27
f 298 1389 1391
f 1392 1390 27
f 298 1391 1393
f 1394 1392 27
f 298 1393 1395
f 1396 1394 27
f 298 1395 1397
f 1398 1396 27
f 298 1397 1399
f 1400 1398 27
f 298 1399 1401
f 1402 1400 27
f 298 1401 1403
f 1404 1402 27
f 298 1403 1405
f 1406 1404 27
f 298 1405 1407
f 1408 1406 27
f 298 1407 1409
f 1410 1408 27
f 298 1409 1411
f 1412 1410 27
f 298 1411 1413
f 1414 1412 27
f 298 1413 1415
f 1416 1414 27
f 298 1415 1417
f 1418 1416 27
f 298 1417 1419
f 1420 1418 27
f 298 1419 1421
f 1422 1420 27
f 298 1421 1423
f 1424 1422 27
f 298 1423 1425
f 1426 1424 27
f 298 1425 1427
f 1428 1426 27
f 298 1427 1429
f 1430 1428 27
f 298 1429 1431
f 1432 1430 27
f 298 1431 1433
f 1434 1432 27
f 298 1433 1435
f 1436 1434 27
f 298 1435 1437
f 1438 1436 27
f 298 1437 1439
f 1440 1438 27
f 890 298 1439
f 1441 1440 27
f 563 1037 564
f 1442 1441 27
f 52 277 861
f 1443 1442 27
f 52 861 873
f 1444 1443 27
f 52 873 27
f 1445 1444 27
f 27 873 892
f 1446 1445 27
f 27 892 900
f 1447 1446 27
f 27 900 1102
f 1448 1447 27
f 27 1102 1092
f 1449 1448 27
f 27 1092 1450
f 1451 1449 27
f 27 1450 1452
f 1453 1451 27
f 27 1452 1454
f 1455 1453 27
f 27 1454 1455
f 275 295 1456
f 295 379 1456
f 615 463 629
f 463 275 1457
f 667 693 680
f 693 463 680
f 1190 1196 1193
f 1196 1181 1193
f 1219 1228 1225
f 1228 1222 1225
f 129 167 1363
f 167 170 1363
f 479 496 480
f 496 275 480
f 275 1456 1458
f 1456 379 1458
f 275 629 1457
f 629 463 1457
f 275 1458 398
f 1458 379 398
f 122 123 397
f 123 274 397
f 415 122 432
f 122 431 432
f 628 665 653
f 665 641 653
f 840 864 853
f 864 828 853
f 955 973 967
f 973 961 967
f 1029 1039 1033
f 1039 1023 1033
f 124 310 125
f 310 123 125
f 117 256 344
f 256 124 344
f 376 394 377
f 394 361 377
f 493 510 509
f 510 494 509
f 612 625 613
f 625 600 613
f 716 727 717
f 727 704 717
f 326 343 341
f 343 325 341
f 458 457 459
f 457 444 459
f 676 689 687
f 689 675 687
f 776 775 777
f 775 763 777
f 253 114 271
f 114 270 271
f 84 409 391
f 409 358 391
f 883 898 891
f 898 872 891
f 277 52 1459
f 52 872 1460
f 1461 1522 277
f 1522 1078 277
f 1078 1522 872
f 1522 1461 872
f 1461 1524 872
f 1524 1462 872
f 1461 52 1463
f 52 1462 1464
f 1462 1524 1465
f 1524 1461 1465
f 52 1465 1466
f 1465 1461 1463
f 872 1462 1467
f 1462 52 1468
f 52 1467 1469
f 1467 1462 1468
f 1462 1465 1470
f 1465 52 1470
f 1465 1463 1471
f 1463 52 1471
f 847 859 860
f 859 84 860
f 872 1467 1460
f 1467 52 1472
f 52 1460 1473
f 1460 1467 1472
f 1467 1468 1469
f 1468 52 1474
f 1462 1470 1464
f 1470 52 1464
f 1465 1471 1475
f 1471 52 1475
f 52 847 1476
f 847 872 1477
f 1460 1472 1473
f 1472 52 1478
f 1465 1475 1479
f 1475 52 1479
f 872 1480 1477
f 1480 847 1481
f 52 1480 1083
f 1480 872 1083
f 52 1473 1478
f 1473 1472 1478
f 52 1469 1474
f 1469 1468 1474
f 1465 1479 1466
f 1479 52 1466
f 52 1461 1459
f 1461 277 1459
f 847 1477 1482
f 1477 1480 1482
f 847 1480 1483
f 1484 1536 52
f 1536 1525 52
f 1525 1534 52
f 1534 1480 52
f 52 1485 1486
f 1485 1480 1486
f 847 1482 1481
f 1482 1480 1481
f 847 1485 1487
f 1485 52 1488
f 1487 1527 52
f 1527 1489 52
f 1487 1485 1488
f 1480 1485 1483
f 1485 847 1483
f 847 1487 1490
f 1491 1541 52
f 1541 1528 52
f 1528 1539 52
f 1539 1487 52
f 52 1490 1492
f 1490 1487 1492
f 1489 1527 1488
f 1527 1487 1488
f 1488 52 1489
f 847 1490 1493
f 1494 1529 52
f 1529 1490 52
f 52 1493 1495
f 1493 1490 1495
f 52 1495 1494
f 1490 1529 1495
f 1529 1494 1495
f 1492 1530 52
f 1530 1491 52
f 1487 1539 1528
f 1530 1540 1539
f 1539 1487 1540
f 1528 1541 1530
f 1541 1491 1530
f 1487 1540 1492
f 1540 1530 1492
f 1486 1538 52
f 1538 1526 52
f 1526 1537 52
f 1537 1484 52
f 1480 1534 1525
f 1526 1535 1534
f 1534 1480 1535
f 1525 1536 1537
f 1536 1484 1537
f 1525 1537 1526
f 1480 1535 1538
f 1535 1526 1538
f 1480 1538 1486
f 847 1493 1476
f 1496 1543 52
f 1543 1531 52
f 1531 1542 52
f 1542 1493 52
f 52 1476 1497
f 1476 1493 1497
f 52 1497 1498
f 1493 1532 1497
f 1532 1498 1497
f 52 1498 1496
f 1498 1532 1531
f 1493 1542 1532
f 1542 1531 1532
f 1531 1543 1498
f 1543 1496 1498
f 52 1037 1499
f 1037 847 1500
f 1037 1088 1501
f 1502 1523 52
f 1523 1088 52
f 1037 1502 1503
f 1502 52 1503
f 1037 1503 1504
f 1503 52 1499
f 76 404 387
f 404 370 387
f 847 1088 1500
f 1088 1037 1500
f 1088 1523 1501
f 1523 1502 1501
f 1502 1037 1501
f 1499 1533 1503
f 1533 1504 1503
f 1504 1533 1037
f 1533 1499 1037
f 52 1104 1505
f 1104 1107 1506
f 1104 1113 1507
f 1113 52 1508
f 52 355 1509
f 355 282 1510
f 355 1511 1509
f 1511 52 1509
f 499 529 515
f 529 65 515
f 1107 1113 1512
f 1113 1104 1512
f 1104 1508 1505
f 1508 52 1505
f 52 1511 283
f 1511 282 1513
f 282 1511 1514
f 1511 355 1515
f 282 1515 1516
f 1515 355 1510
f 71 606 1517
f 606 60 1517
f 1107 1512 1506
f 1512 1104 1518
f 1104 1506 1519
f 1506 1512 1518
f 1113 1508 1507
f 1508 1104 1520
f 1118 52 1123
f 52 1070 1123
f 282 283 1513
f 283 1511 1513
f 1515 1510 1516
f 1510 282 1516
f 77 334 1087
f 334 384 1087
f 1114 1120 1116
f 1120 1108 1116
f 1140 1138 1143
f 1138 1142 1143
f 1223 1231 1226
f 1231 1179 1521
f 71 1517 1281
f 1517 60 1281
f 63 65 64
f 65 62 64
f 1042 1052 1047
f 1052 1031 1047
f 1091 1098 1094
f 1098 1081 1094
f 1506 1518 1519
f 1518 1104 1519
f 1104 1507 1520
f 1507 1508 1520
f 1511 1515 1514
f 1515 282 1514
f 286 78 1082
f 78 77 1082
f 531 1100 1095
f 1100 483 1095
f 1126 1120 1130
f 1120 1127 1130
f 1179 1226 1521
f 1226 1231 1521
f 71 1279 1277
f 1279 1275 1277
f 295 479 275
f 239 529 1078
f 379 1025 1211
f 123 119 377
f 117 114 341
f 84 882 872
f 113 72 1459
f 297 1366 298
