v -0.660000 0.000727 -0.015000
v -0.660000 0.000000 -0.015000
v -0.649393 0.000000 -0.004393
v 0.646062 0.065698 -0.004393
v 0.649393 0.000000 -0.004393
v 0.660000 0.000000 -0.015000
v 0.660000 0.040000 -0.016211
v 0.660171 0.040000 -0.016381
v 0.660342 0.040000 -0.016552
v 0.660512 0.040000 -0.016722
v 0.660683 0.040000 -0.016893
v 0.660854 0.040000 -0.017063
v 0.661025 0.040000 -0.017234
v 0.661196 0.040000 -0.017404
v 0.661366 0.040000 -0.017575
v 0.661537 0.040000 -0.017746
v 0.661708 0.040000 -0.017916
v 0.661879 0.040000 -0.018087
v 0.662050 0.040000 -0.018257
v 0.662221 0.040000 -0.018428
v 0.662392 0.040000 -0.018599
v 0.662563 0.040000 -0.018769
v 0.662734 0.040000 -0.018940
v 0.662905 0.040000 -0.019111
v 0.663076 0.040000 -0.019281
v 0.663247 0.040000 -0.019452
v 0.663418 0.040000 -0.019623
v 0.663589 0.040000 -0.019793
v 0.663760 0.040000 -0.019964
v 0.663931 0.040000 -0.020135
v 0.664102 0.040000 -0.020306
v 0.664273 0.040000 -0.020476
v 0.664444 0.040000 -0.020647
v 0.664615 0.040000 -0.020818
v 0.664787 0.040000 -0.020989
v 0.664958 0.040000 -0.021160
v 0.665129 0.040000 -0.021331
v 0.665300 0.040000 -0.021501
v 0.665471 0.040000 -0.021672
v 0.665642 0.040000 -0.021843
v 0.665814 0.040000 -0.022014
v 0.665985 0.040000 -0.022185
v 0.666156 0.040000 -0.022356
v 0.666327 0.040000 -0.022527
v 0.666499 0.040000 -0.022698
v 0.666670 0.040000 -0.022869
v 0.666841 0.040000 -0.023040
v 0.667013 0.040000 -0.023211
v 0.667184 0.040000 -0.023382
v 0.667355 0.040000 -0.023553
v 0.667527 0.040000 -0.023724
v 0.667698 0.040000 -0.023895
v 0.667869 0.040000 -0.024066
v 0.668041 0.040000 -0.024237
v 0.668212 0.040000 -0.024408
v 0.668384 0.040000 -0.024580
v 0.668555 0.040000 -0.024751
v 0.668727 0.040000 -0.024922
v 0.668898 0.040000 -0.025093
v 0.669241 0.040000 -0.025435
v 0.669070 0.040000 -0.025264
v 0.669098 0.044959 -0.025607
v 0.669413 0.040000 -0.025607
v 0.644123 0.186597 -0.025607
v 0.642723 0.191365 -0.025607
v 0.642562 0.191306 -0.025435
v 0.642401 0.191248 -0.025264
v 0.642239 0.191189 -0.025093
v 0.642078 0.191130 -0.024922
v 0.641917 0.191072 -0.024751
v 0.641756 0.191013 -0.024580
v 0.641595 0.190954 -0.024408
v 0.641434 0.190896 -0.024237
v 0.641273 0.190837 -0.024066
v 0.641112 0.190778 -0.023895
v 0.640951 0.190720 -0.023724
v 0.640790 0.190661 -0.023553
v 0.640629 0.190603 -0.023382
v 0.640468 0.190544 -0.023211
v 0.640307 0.190485 -0.023040
v 0.640146 0.190427 -0.022869
v 0.639985 0.190368 -0.022698
v 0.639824 0.190310 -0.022527
v 0.639663 0.190251 -0.022356
v 0.639502 0.190193 -0.022185
v 0.639341 0.190134 -0.022014
v 0.639180 0.190075 -0.021843
v 0.639019 0.190017 -0.021672
v 0.638858 0.189958 -0.021501
v 0.638697 0.189900 -0.021331
v 0.638537 0.189841 -0.021160
v 0.638376 0.189783 -0.020989
v 0.638215 0.189724 -0.020818
v 0.638054 0.189666 -0.020647
v 0.637893 0.189607 -0.020476
v 0.637733 0.189549 -0.020306
v 0.637572 0.189490 -0.020135
v 0.637411 0.189432 -0.019964
v 0.637250 0.189373 -0.019793
v 0.637090 0.189315 -0.019623
v 0.636929 0.189256 -0.019452
v 0.636768 0.189198 -0.019281
v 0.636608 0.189139 -0.019111
v 0.636447 0.189081 -0.018940
v 0.636286 0.189022 -0.018769
v 0.636126 0.188964 -0.018599
v 0.635965 0.188905 -0.018428
v 0.635804 0.188847 -0.018257
v 0.635644 0.188788 -0.018087
v 0.635483 0.188730 -0.017916
v 0.635323 0.188671 -0.017746
v 0.635162 0.188613 -0.017575
v 0.635001 0.188555 -0.017404
v 0.634841 0.188496 -0.017234
v 0.634680 0.188438 -0.017063
v 0.634520 0.188379 -0.016893
v 0.634359 0.188321 -0.016722
v 0.634199 0.188262 -0.016552
v 0.634038 0.188204 -0.016381
v 0.633878 0.188146 -0.016211
v 0.606516 0.263321 -0.016211
v 0.606677 0.263379 -0.016381
v 0.606837 0.263438 -0.016552
v 0.606998 0.263496 -0.016722
v 0.607158 0.263555 -0.016893
v 0.607319 0.263613 -0.017063
v 0.607479 0.263671 -0.017234
v 0.607640 0.263730 -0.017404
v 0.607800 0.263788 -0.017575
v 0.607961 0.263847 -0.017746
v 0.608122 0.263905 -0.017916
v 0.608282 0.263964 -0.018087
v 0.608443 0.264022 -0.018257
v 0.608603 0.264081 -0.018428
v 0.608764 0.264139 -0.018599
v 0.608925 0.264198 -0.018769
v 0.609085 0.264256 -0.018940
v 0.609246 0.264315 -0.019111
v 0.609407 0.264373 -0.019281
v 0.609567 0.264431 -0.019452
v 0.609728 0.264490 -0.019623
v 0.609889 0.264548 -0.019793
v 0.610050 0.264607 -0.019964
v 0.610210 0.264665 -0.020135
v 0.610371 0.264724 -0.020306
v 0.610532 0.264783 -0.020476
v 0.610693 0.264841 -0.020647
v 0.610853 0.264900 -0.020818
v 0.611014 0.264958 -0.020989
v 0.611175 0.265017 -0.021160
v 0.611336 0.265075 -0.021331
v 0.611497 0.265134 -0.021501
v 0.611658 0.265192 -0.021672
v 0.611819 0.265251 -0.021843
v 0.611979 0.265309 -0.022014
v 0.612140 0.265368 -0.022185
v 0.612301 0.265427 -0.022356
v 0.612462 0.265485 -0.022527
v 0.612623 0.265544 -0.022698
v 0.612784 0.265602 -0.022869
v 0.612945 0.265661 -0.023040
v 0.613106 0.265719 -0.023211
v 0.613267 0.265778 -0.023382
v 0.613428 0.265837 -0.023553
v 0.613589 0.265895 -0.023724
v 0.613750 0.265954 -0.023895
v 0.613911 0.266013 -0.024066
v 0.614072 0.266071 -0.024237
v 0.614233 0.266130 -0.024408
v 0.614394 0.266188 -0.024580
v 0.614556 0.266247 -0.024751
v 0.614717 0.266306 -0.024922
v 0.614878 0.266364 -0.025093
v 0.615200 0.266482 -0.025435
v 0.615039 0.266423 -0.025264
v 0.613369 0.271093 -0.025607
v 0.615361 0.266540 -0.025607
v 0.541458 0.395647 -0.025607
v 0.538511 0.399648 -0.025607
v 0.538380 0.399538 -0.025435
v 0.538249 0.399428 -0.025264
v 0.538117 0.399318 -0.025093
v 0.537986 0.399207 -0.024922
v 0.537854 0.399097 -0.024751
v 0.537723 0.398987 -0.024580
v 0.537592 0.398877 -0.024408
v 0.537460 0.398767 -0.024237
v 0.537329 0.398656 -0.024066
v 0.537198 0.398546 -0.023895
v 0.537067 0.398436 -0.023724
v 0.536935 0.398326 -0.023553
v 0.536804 0.398216 -0.023382
v 0.536673 0.398106 -0.023211
v 0.536542 0.397996 -0.023040
v 0.536410 0.397885 -0.022869
v 0.536279 0.397775 -0.022698
v 0.536148 0.397665 -0.022527
v 0.536017 0.397555 -0.022356
v 0.535886 0.397445 -0.022185
v 0.535754 0.397335 -0.022014
v 0.535623 0.397225 -0.021843
v 0.535492 0.397115 -0.021672
v 0.535361 0.397005 -0.021501
v 0.535230 0.396895 -0.021331
v 0.535099 0.396785 -0.021160
v 0.534968 0.396675 -0.020989
v 0.534836 0.396565 -0.020818
v 0.534705 0.396455 -0.020647
v 0.534574 0.396345 -0.020476
v 0.534443 0.396235 -0.020306
v 0.534312 0.396125 -0.020135
v 0.534181 0.396015 -0.019964
v 0.534050 0.395905 -0.019793
v 0.533919 0.395795 -0.019623
v 0.533788 0.395685 -0.019452
v 0.533657 0.395575 -0.019281
v 0.533526 0.395465 -0.019111
v 0.533395 0.395355 -0.018940
v 0.533264 0.395245 -0.018769
v 0.533133 0.395136 -0.018599
v 0.533002 0.395026 -0.018428
v 0.532871 0.394916 -0.018257
v 0.532740 0.394806 -0.018087
v 0.532609 0.394696 -0.017916
v 0.532479 0.394586 -0.017746
v 0.532348 0.394476 -0.017575
v 0.532217 0.394367 -0.017404
v 0.532086 0.394257 -0.017234
v 0.531955 0.394147 -0.017063
v 0.531824 0.394037 -0.016893
v 0.531693 0.393927 -0.016722
v 0.531562 0.393818 -0.016552
v 0.531432 0.393708 -0.016381
v 0.531301 0.393598 -0.016211
v 0.479878 0.454882 -0.016211
v 0.480009 0.454991 -0.016381
v 0.480139 0.455101 -0.016552
v 0.480270 0.455211 -0.016722
v 0.480401 0.455321 -0.016893
v 0.480532 0.455431 -0.017063
v 0.480663 0.455540 -0.017234
v 0.480794 0.455650 -0.017404
v 0.480925 0.455760 -0.017575
v 0.481056 0.455870 -0.017746
v 0.481186 0.455980 -0.017916
v 0.481317 0.456089 -0.018087
v 0.481448 0.456199 -0.018257
v 0.481579 0.456309 -0.018428
v 0.481710 0.456419 -0.018599
v 0.481841 0.456529 -0.018769
v 0.481972 0.456639 -0.018940
v 0.482103 0.456749 -0.019111
v 0.482234 0.456859 -0.019281
v 0.482365 0.456969 -0.019452
v 0.482496 0.457079 -0.019623
v 0.482627 0.457189 -0.019793
v 0.482758 0.457298 -0.019964
v 0.482889 0.457408 -0.020135
v 0.483020 0.457518 -0.020306
v 0.483151 0.457628 -0.020476
v 0.483282 0.457738 -0.020647
v 0.483413 0.457848 -0.020818
v 0.483545 0.457958 -0.020989
v 0.483676 0.458068 -0.021160
v 0.483807 0.458178 -0.021331
v 0.483938 0.458288 -0.021501
v 0.484069 0.458398 -0.021672
v 0.484200 0.458509 -0.021843
v 0.484331 0.458619 -0.022014
v 0.484463 0.458729 -0.022185
v 0.484594 0.458839 -0.022356
v 0.484725 0.458949 -0.022527
v 0.484856 0.459059 -0.022698
v 0.484987 0.459169 -0.022869
v 0.485119 0.459279 -0.023040
v 0.485250 0.459389 -0.023211
v 0.485381 0.459499 -0.023382
v 0.485512 0.459610 -0.023553
v 0.485644 0.459720 -0.023724
v 0.485775 0.459830 -0.023895
v 0.485906 0.459940 -0.024066
v 0.486037 0.460050 -0.024237
v 0.486169 0.460160 -0.024408
v 0.486300 0.460271 -0.024580
v 0.486431 0.460381 -0.024751
v 0.486563 0.460491 -0.024922
v 0.486694 0.460601 -0.025093
v 0.486957 0.460822 -0.025435
v 0.486826 0.460711 -0.025264
v 0.483660 0.464528 -0.025607
v 0.487088 0.460932 -0.025607
v 0.373485 0.556976 -0.025607
v 0.369347 0.559728 -0.025607
v 0.369262 0.559580 -0.025435
v 0.369176 0.559431 -0.025264
v 0.369090 0.559283 -0.025093
v 0.369004 0.559134 -0.024922
v 0.368919 0.558986 -0.024751
v 0.368833 0.558837 -0.024580
v 0.368747 0.558689 -0.024408
v 0.368661 0.558540 -0.024237
v 0.368576 0.558392 -0.024066
v 0.368490 0.558243 -0.023895
v 0.368404 0.558095 -0.023724
v 0.368319 0.557947 -0.023553
v 0.368233 0.557798 -0.023382
v 0.368147 0.557650 -0.023211
v 0.368062 0.557502 -0.023040
v 0.367976 0.557353 -0.022869
v 0.367890 0.557205 -0.022698
v 0.367805 0.557056 -0.022527
v 0.367719 0.556908 -0.022356
v 0.367633 0.556760 -0.022185
v 0.367548 0.556612 -0.022014
v 0.367462 0.556463 -0.021843
v 0.367377 0.556315 -0.021672
v 0.367291 0.556167 -0.021501
v 0.367205 0.556019 -0.021331
v 0.367120 0.555870 -0.021160
v 0.367034 0.555722 -0.020989
v 0.366949 0.555574 -0.020818
v 0.366863 0.555426 -0.020647
v 0.366778 0.555277 -0.020476
v 0.366692 0.555129 -0.020306
v 0.366607 0.554981 -0.020135
v 0.366521 0.554833 -0.019964
v 0.366435 0.554685 -0.019793
v 0.366350 0.554537 -0.019623
v 0.366264 0.554389 -0.019452
v 0.366179 0.554240 -0.019281
v 0.366093 0.554092 -0.019111
v 0.366008 0.553944 -0.018940
v 0.365922 0.553796 -0.018769
v 0.365837 0.553648 -0.018599
v 0.365751 0.553500 -0.018428
v 0.365666 0.553352 -0.018257
v 0.365581 0.553204 -0.018087
v 0.365495 0.553056 -0.017916
v 0.365410 0.552908 -0.017746
v 0.365324 0.552760 -0.017575
v 0.365239 0.552612 -0.017404
v 0.365153 0.552464 -0.017234
v 0.365068 0.552316 -0.017063
v 0.364983 0.552168 -0.016893
v 0.364897 0.552020 -0.016722
v 0.364812 0.551873 -0.016552
v 0.364726 0.551725 -0.016381
v 0.364641 0.551577 -0.016211
v 0.295359 0.591577 -0.016211
v 0.295444 0.591725 -0.016381
v 0.295530 0.591873 -0.016552
v 0.295615 0.592020 -0.016722
v 0.295701 0.592168 -0.016893
v 0.295786 0.592316 -0.017063
v 0.295871 0.592464 -0.017234
v 0.295957 0.592612 -0.017404
v 0.296042 0.592760 -0.017575
v 0.296128 0.592908 -0.017746
v 0.296213 0.593056 -0.017916
v 0.296299 0.593204 -0.018087
v 0.296384 0.593352 -0.018257
v 0.296469 0.593500 -0.018428
v 0.296555 0.593648 -0.018599
v 0.296640 0.593796 -0.018769
v 0.296726 0.593944 -0.018940
v 0.296811 0.594092 -0.019111
v 0.296897 0.594241 -0.019281
v 0.296982 0.594389 -0.019452
v 0.297068 0.594537 -0.019623
v 0.297153 0.594685 -0.019793
v 0.297239 0.594833 -0.019964
v 0.297325 0.594981 -0.020135
v 0.297410 0.595129 -0.020306
v 0.297496 0.595277 -0.020476
v 0.297581 0.595426 -0.020647
v 0.297667 0.595574 -0.020818
v 0.297752 0.595722 -0.020989
v 0.297838 0.595870 -0.021160
v 0.297923 0.596019 -0.021331
v 0.298009 0.596167 -0.021501
v 0.298095 0.596315 -0.021672
v 0.298180 0.596463 -0.021843
v 0.298266 0.596612 -0.022014
v 0.298351 0.596760 -0.022185
v 0.298437 0.596908 -0.022356
v 0.298523 0.597057 -0.022527
v 0.298608 0.597205 -0.022698
v 0.298694 0.597353 -0.022869
v 0.298780 0.597502 -0.023040
v 0.298865 0.597650 -0.023211
v 0.298951 0.597798 -0.023382
v 0.299037 0.597947 -0.023553
v 0.299122 0.598095 -0.023724
v 0.299208 0.598243 -0.023895
v 0.299294 0.598392 -0.024066
v 0.299379 0.598540 -0.024237
v 0.299465 0.598689 -0.024408
v 0.299551 0.598837 -0.024580
v 0.299637 0.598986 -0.024751
v 0.299722 0.599134 -0.024922
v 0.299808 0.599283 -0.025093
v 0.299980 0.599580 -0.025435
v 0.299894 0.599431 -0.025264
v 0.295613 0.601935 -0.025607
v 0.300065 0.599728 -0.025607
v 0.160464 0.651126 -0.025607
v 0.155635 0.652297 -0.025607
v 0.155605 0.652128 -0.025435
v 0.155575 0.651959 -0.025264
v 0.155545 0.651790 -0.025093
v 0.155515 0.651621 -0.024922
v 0.155486 0.651452 -0.024751
v 0.155456 0.651284 -0.024580
v 0.155426 0.651115 -0.024408
v 0.155396 0.650946 -0.024237
v 0.155367 0.650777 -0.024066
v 0.155337 0.650608 -0.023895
v 0.155307 0.650440 -0.023724
v 0.155277 0.650271 -0.023553
v 0.155248 0.650102 -0.023382
v 0.155218 0.649933 -0.023211
v 0.155188 0.649765 -0.023040
v 0.155158 0.649596 -0.022869
v 0.155129 0.649427 -0.022698
v 0.155099 0.649258 -0.022527
v 0.155069 0.649090 -0.022356
v 0.155039 0.648921 -0.022185
v 0.155010 0.648753 -0.022014
v 0.154980 0.648584 -0.021843
v 0.154950 0.648415 -0.021672
v 0.154920 0.648247 -0.021501
v 0.154891 0.648078 -0.021331
v 0.154861 0.647910 -0.021160
v 0.154831 0.647741 -0.020989
v 0.154802 0.647572 -0.020818
v 0.154772 0.647404 -0.020647
v 0.154742 0.647235 -0.020476
v 0.154712 0.647067 -0.020306
v 0.154683 0.646898 -0.020135
v 0.154653 0.646730 -0.019964
v 0.154623 0.646562 -0.019793
v 0.154594 0.646393 -0.019623
v 0.154564 0.646225 -0.019452
v 0.154534 0.646056 -0.019281
v 0.154505 0.645888 -0.019111
v 0.154475 0.645719 -0.018940
v 0.154445 0.645551 -0.018769
v 0.154415 0.645383 -0.018599
v 0.154386 0.645214 -0.018428
v 0.154356 0.645046 -0.018257
v 0.154326 0.644878 -0.018087
v 0.154297 0.644709 -0.017916
v 0.154267 0.644541 -0.017746
v 0.154237 0.644373 -0.017575
v 0.154208 0.644205 -0.017404
v 0.154178 0.644036 -0.017234
v 0.154148 0.643868 -0.017063
v 0.154119 0.643700 -0.016893
v 0.154089 0.643532 -0.016722
v 0.154059 0.643364 -0.016552
v 0.154030 0.643195 -0.016381
v 0.154000 0.643027 -0.016211
v 0.075215 0.656919 -0.016211
v 0.075245 0.657087 -0.016381
v 0.075275 0.657255 -0.016552
v 0.075304 0.657424 -0.016722
v 0.075334 0.657592 -0.016893
v 0.075364 0.657760 -0.017063
v 0.075393 0.657928 -0.017234
v 0.075423 0.658096 -0.017404
v 0.075453 0.658265 -0.017575
v 0.075482 0.658433 -0.017746
v 0.075512 0.658601 -0.017916
v 0.075542 0.658770 -0.018087
v 0.075571 0.658938 -0.018257
v 0.075601 0.659106 -0.018428
v 0.075631 0.659275 -0.018599
v 0.075661 0.659443 -0.018769
v 0.075690 0.659611 -0.018940
v 0.075720 0.659780 -0.019111
v 0.075750 0.659948 -0.019281
v 0.075779 0.660117 -0.019452
v 0.075809 0.660285 -0.019623
v 0.075839 0.660453 -0.019793
v 0.075868 0.660622 -0.019964
v 0.075898 0.660790 -0.020135
v 0.075928 0.660959 -0.020306
v 0.075958 0.661127 -0.020476
v 0.075987 0.661296 -0.020647
v 0.076017 0.661464 -0.020818
v 0.076047 0.661633 -0.020989
v 0.076076 0.661801 -0.021160
v 0.076106 0.661970 -0.021331
v 0.076136 0.662139 -0.021501
v 0.076166 0.662307 -0.021672
v 0.076195 0.662476 -0.021843
v 0.076225 0.662644 -0.022014
v 0.076255 0.662813 -0.022185
v 0.076284 0.662982 -0.022356
v 0.076314 0.663150 -0.022527
v 0.076344 0.663319 -0.022698
v 0.076374 0.663488 -0.022869
v 0.076403 0.663656 -0.023040
v 0.076433 0.663825 -0.023211
v 0.076463 0.663994 -0.023382
v 0.076493 0.664163 -0.023553
v 0.076522 0.664331 -0.023724
v 0.076552 0.664500 -0.023895
v 0.076582 0.664669 -0.024066
v 0.076612 0.664838 -0.024237
v 0.076642 0.665007 -0.024408
v 0.076671 0.665175 -0.024580
v 0.076701 0.665344 -0.024751
v 0.076731 0.665513 -0.024922
v 0.076761 0.665682 -0.025093
v 0.076820 0.666020 -0.025435
v 0.076790 0.665851 -0.025264
v 0.071912 0.666740 -0.025607
v 0.076850 0.666189 -0.025607
v -0.071912 0.666740 -0.025607
v -0.076850 0.666189 -0.025607
v -0.076820 0.666020 -0.025435
v -0.076790 0.665851 -0.025264
v -0.076761 0.665682 -0.025093
v -0.076731 0.665513 -0.024922
v -0.076701 0.665344 -0.024751
v -0.076671 0.665175 -0.024580
v -0.076642 0.665007 -0.024408
v -0.076612 0.664838 -0.024237
v -0.076582 0.664669 -0.024066
v -0.076552 0.664500 -0.023895
v -0.076522 0.664331 -0.023724
v -0.076493 0.664163 -0.023553
v -0.076463 0.663994 -0.023382
v -0.076433 0.663825 -0.023211
v -0.076403 0.663656 -0.023040
v -0.076374 0.663488 -0.022869
v -0.076344 0.663319 -0.022698
v -0.076314 0.663150 -0.022527
v -0.076284 0.662982 -0.022356
v -0.076255 0.662813 -0.022185
v -0.076225 0.662644 -0.022014
v -0.076195 0.662476 -0.021843
v -0.076166 0.662307 -0.021672
v -0.076136 0.662139 -0.021501
v -0.076106 0.661970 -0.021331
v -0.076076 0.661801 -0.021160
v -0.076047 0.661633 -0.020989
v -0.076017 0.661464 -0.020818
v -0.075987 0.661296 -0.020647
v -0.075958 0.661127 -0.020476
v -0.075928 0.660959 -0.020306
v -0.075898 0.660790 -0.020135
v -0.075868 0.660622 -0.019964
v -0.075839 0.660453 -0.019793
v -0.075809 0.660285 -0.019623
v -0.075779 0.660117 -0.019452
v -0.075750 0.659948 -0.019281
v -0.075720 0.659780 -0.019111
v -0.075690 0.659611 -0.018940
v -0.075661 0.659443 -0.018769
v -0.075631 0.659275 -0.018599
v -0.075601 0.659106 -0.018428
v -0.075571 0.658938 -0.018257
v -0.075542 0.658770 -0.018087
v -0.075512 0.658601 -0.017916
v -0.075482 0.658433 -0.017746
v -0.075453 0.658265 -0.017575
v -0.075423 0.658096 -0.017404
v -0.075393 0.657928 -0.017234
v -0.075364 0.657760 -0.017063
v -0.075334 0.657592 -0.016893
v -0.075304 0.657424 -0.016722
v -0.075275 0.657255 -0.016552
v -0.075245 0.657087 -0.016381
v -0.075215 0.656919 -0.016211
v -0.154000 0.643027 -0.016211
v -0.154030 0.643195 -0.016381
v -0.154059 0.643364 -0.016552
v -0.154089 0.643532 -0.016722
v -0.154119 0.643700 -0.016893
v -0.154148 0.643868 -0.017063
v -0.154178 0.644036 -0.017234
v -0.154208 0.644205 -0.017404
v -0.154237 0.644373 -0.017575
v -0.154267 0.644541 -0.017746
v -0.154297 0.644709 -0.017916
v -0.154326 0.644878 -0.018087
v -0.154356 0.645046 -0.018257
v -0.154386 0.645214 -0.018428
v -0.154415 0.645383 -0.018599
v -0.154445 0.645551 -0.018769
v -0.154475 0.645720 -0.018940
v -0.154505 0.645888 -0.019111
v -0.154534 0.646056 -0.019281
v -0.154564 0.646225 -0.019452
v -0.154594 0.646393 -0.019623
v -0.154623 0.646562 -0.019793
v -0.154653 0.646730 -0.019964
v -0.154683 0.646899 -0.020135
v -0.154712 0.647067 -0.020306
v -0.154742 0.647235 -0.020476
v -0.154772 0.647404 -0.020647
v -0.154802 0.647573 -0.020818
v -0.154831 0.647741 -0.020989
v -0.154861 0.647910 -0.021160
v -0.154891 0.648078 -0.021331
v -0.154920 0.648247 -0.021501
v -0.154950 0.648415 -0.021672
v -0.154980 0.648584 -0.021843
v -0.155010 0.648753 -0.022014
v -0.155039 0.648921 -0.022185
v -0.155069 0.649090 -0.022356
v -0.155099 0.649259 -0.022527
v -0.155129 0.649427 -0.022698
v -0.155158 0.649596 -0.022869
v -0.155188 0.649765 -0.023040
v -0.155218 0.649933 -0.023211
v -0.155248 0.650102 -0.023382
v -0.155277 0.650271 -0.023553
v -0.155307 0.650440 -0.023724
v -0.155337 0.650608 -0.023895
v -0.155367 0.650777 -0.024066
v -0.155396 0.650946 -0.024237
v -0.155426 0.651115 -0.024408
v -0.155456 0.651284 -0.024580
v -0.155486 0.651452 -0.024751
v -0.155515 0.651621 -0.024922
v -0.155545 0.651790 -0.025093
v -0.155605 0.652128 -0.025435
v -0.155575 0.651959 -0.025264
v -0.160464 0.651126 -0.025607
v -0.155635 0.652297 -0.025607
v -0.295613 0.601935 -0.025607
v -0.300065 0.599728 -0.025607
v -0.299980 0.599580 -0.025435
v -0.299894 0.599431 -0.025264
v -0.299808 0.599283 -0.025093
v -0.299722 0.599134 -0.024922
v -0.299637 0.598986 -0.024751
v -0.299551 0.598837 -0.024580
v -0.299465 0.598689 -0.024408
v -0.299379 0.598540 -0.024237
v -0.299294 0.598392 -0.024066
v -0.299208 0.598243 -0.023895
v -0.299122 0.598095 -0.023724
v -0.299037 0.597947 -0.023553
v -0.298951 0.597798 -0.023382
v -0.298865 0.597650 -0.023211
v -0.298780 0.597502 -0.023040
v -0.298694 0.597353 -0.022869
v -0.298608 0.597205 -0.022698
v -0.298523 0.597056 -0.022527
v -0.298437 0.596908 -0.022356
v -0.298351 0.596760 -0.022185
v -0.298266 0.596612 -0.022014
v -0.298180 0.596463 -0.021843
v -0.298095 0.596315 -0.021672
v -0.298009 0.596167 -0.021501
v -0.297923 0.596019 -0.021331
v -0.297838 0.595870 -0.021160
v -0.297752 0.595722 -0.020989
v -0.297667 0.595574 -0.020818
v -0.297581 0.595426 -0.020647
v -0.297496 0.595277 -0.020476
v -0.297410 0.595129 -0.020306
v -0.297324 0.594981 -0.020135
v -0.297239 0.594833 -0.019964
v -0.297153 0.594685 -0.019793
v -0.297068 0.594537 -0.019623
v -0.296982 0.594389 -0.019452
v -0.296897 0.594240 -0.019281
v -0.296811 0.594092 -0.019111
v -0.296726 0.593944 -0.018940
v -0.296640 0.593796 -0.018769
v -0.296555 0.593648 -0.018599
v -0.296469 0.593500 -0.018428
v -0.296384 0.593352 -0.018257
v -0.296299 0.593204 -0.018087
v -0.296213 0.593056 -0.017916
v -0.296128 0.592908 -0.017746
v -0.296042 0.592760 -0.017575
v -0.295957 0.592612 -0.017404
v -0.295871 0.592464 -0.017234
v -0.295786 0.592316 -0.017063
v -0.295701 0.592168 -0.016893
v -0.295615 0.592020 -0.016722
v -0.295530 0.591873 -0.016552
v -0.295444 0.591725 -0.016381
v -0.295359 0.591577 -0.016211
v -0.364641 0.551577 -0.016211
v -0.364726 0.551725 -0.016381
v -0.364812 0.551873 -0.016552
v -0.364897 0.552020 -0.016722
v -0.364983 0.552168 -0.016893
v -0.365068 0.552316 -0.017063
v -0.365153 0.552464 -0.017234
v -0.365239 0.552612 -0.017404
v -0.365324 0.552760 -0.017575
v -0.365410 0.552908 -0.017746
v -0.365495 0.553056 -0.017916
v -0.365581 0.553204 -0.018087
v -0.365666 0.553352 -0.018257
v -0.365752 0.553500 -0.018428
v -0.365837 0.553648 -0.018599
v -0.365922 0.553796 -0.018769
v -0.366008 0.553944 -0.018940
v -0.366093 0.554092 -0.019111
v -0.366179 0.554241 -0.019281
v -0.366264 0.554389 -0.019452
v -0.366350 0.554537 -0.019623
v -0.366435 0.554685 -0.019793
v -0.366521 0.554833 -0.019964
v -0.366607 0.554981 -0.020135
v -0.366692 0.555129 -0.020306
v -0.366778 0.555277 -0.020476
v -0.366863 0.555426 -0.020647
v -0.366949 0.555574 -0.020818
v -0.367034 0.555722 -0.020989
v -0.367120 0.555870 -0.021160
v -0.367205 0.556019 -0.021331
v -0.367291 0.556167 -0.021501
v -0.367377 0.556315 -0.021672
v -0.367462 0.556463 -0.021843
v -0.367548 0.556612 -0.022014
v -0.367633 0.556760 -0.022185
v -0.367719 0.556908 -0.022356
v -0.367805 0.557057 -0.022527
v -0.367890 0.557205 -0.022698
v -0.367976 0.557353 -0.022869
v -0.368062 0.557502 -0.023040
v -0.368147 0.557650 -0.023211
v -0.368233 0.557798 -0.023382
v -0.368319 0.557947 -0.023553
v -0.368404 0.558095 -0.023724
v -0.368490 0.558243 -0.023895
v -0.368576 0.558392 -0.024066
v -0.368661 0.558540 -0.024237
v -0.368747 0.558689 -0.024408
v -0.368833 0.558837 -0.024580
v -0.368919 0.558986 -0.024751
v -0.369004 0.559134 -0.024922
v -0.369090 0.559283 -0.025093
v -0.369262 0.559580 -0.025435
v -0.369176 0.559431 -0.025264
v -0.373485 0.556976 -0.025607
v -0.369347 0.559728 -0.025607
v -0.483660 0.464528 -0.025607
v -0.487088 0.460932 -0.025607
v -0.486957 0.460822 -0.025435
v -0.486826 0.460711 -0.025264
v -0.486694 0.460601 -0.025093
v -0.486563 0.460491 -0.024922
v -0.486431 0.460381 -0.024751
v -0.486300 0.460271 -0.024580
v -0.486169 0.460160 -0.024408
v -0.486037 0.460050 -0.024237
v -0.485906 0.459940 -0.024066
v -0.485775 0.459830 -0.023895
v -0.485644 0.459720 -0.023724
v -0.485512 0.459610 -0.023553
v -0.485381 0.459499 -0.023382
v -0.485250 0.459389 -0.023211
v -0.485119 0.459279 -0.023040
v -0.484987 0.459169 -0.022869
v -0.484856 0.459059 -0.022698
v -0.484725 0.458949 -0.022527
v -0.484594 0.458839 -0.022356
v -0.484463 0.458729 -0.022185
v -0.484331 0.458619 -0.022014
v -0.484200 0.458509 -0.021843
v -0.484069 0.458398 -0.021672
v -0.483938 0.458288 -0.021501
v -0.483807 0.458178 -0.021331
v -0.483676 0.458068 -0.021160
v -0.483545 0.457958 -0.020989
v -0.483413 0.457848 -0.020818
v -0.483282 0.457738 -0.020647
v -0.483151 0.457628 -0.020476
v -0.483020 0.457518 -0.020306
v -0.482889 0.457408 -0.020135
v -0.482758 0.457298 -0.019964
v -0.482627 0.457188 -0.019793
v -0.482496 0.457079 -0.019623
v -0.482365 0.456969 -0.019452
v -0.482234 0.456859 -0.019281
v -0.482103 0.456749 -0.019111
v -0.481972 0.456639 -0.018940
v -0.481841 0.456529 -0.018769
v -0.481710 0.456419 -0.018599
v -0.481579 0.456309 -0.018428
v -0.481448 0.456199 -0.018257
v -0.481317 0.456089 -0.018087
v -0.481186 0.455980 -0.017916
v -0.481055 0.455870 -0.017746
v -0.480925 0.455760 -0.017575
v -0.480794 0.455650 -0.017404
v -0.480663 0.455540 -0.017234
v -0.480532 0.455430 -0.017063
v -0.480401 0.455321 -0.016893
v -0.480270 0.455211 -0.016722
v -0.480139 0.455101 -0.016552
v -0.480009 0.454991 -0.016381
v -0.479878 0.454882 -0.016211
v -0.531301 0.393598 -0.016211
v -0.531432 0.393708 -0.016381
v -0.531562 0.393818 -0.016552
v -0.531693 0.393927 -0.016722
v -0.531824 0.394037 -0.016893
v -0.531955 0.394147 -0.017063
v -0.532086 0.394257 -0.017234
v -0.532217 0.394367 -0.017404
v -0.532348 0.394476 -0.017575
v -0.532479 0.394586 -0.017746
v -0.532609 0.394696 -0.017916
v -0.532740 0.394806 -0.018087
v -0.532871 0.394916 -0.018257
v -0.533002 0.395026 -0.018428
v -0.533133 0.395136 -0.018599
v -0.533264 0.395245 -0.018769
v -0.533395 0.395355 -0.018940
v -0.533526 0.395465 -0.019111
v -0.533657 0.395575 -0.019281
v -0.533788 0.395685 -0.019452
v -0.533919 0.395795 -0.019623
v -0.534050 0.395905 -0.019793
v -0.534181 0.396015 -0.019964
v -0.534312 0.396125 -0.020135
v -0.534443 0.396235 -0.020306
v -0.534574 0.396345 -0.020476
v -0.534705 0.396455 -0.020647
v -0.534836 0.396565 -0.020818
v -0.534968 0.396675 -0.020989
v -0.535099 0.396785 -0.021160
v -0.535230 0.396895 -0.021331
v -0.535361 0.397005 -0.021501
v -0.535492 0.397115 -0.021672
v -0.535623 0.397225 -0.021843
v -0.535754 0.397335 -0.022014
v -0.535886 0.397445 -0.022185
v -0.536017 0.397555 -0.022356
v -0.536148 0.397665 -0.022527
v -0.536279 0.397775 -0.022698
v -0.536410 0.397885 -0.022869
v -0.536542 0.397996 -0.023040
v -0.536673 0.398106 -0.023211
v -0.536804 0.398216 -0.023382
v -0.536935 0.398326 -0.023553
v -0.537067 0.398436 -0.023724
v -0.537198 0.398546 -0.023895
v -0.537329 0.398656 -0.024066
v -0.537460 0.398767 -0.024237
v -0.537592 0.398877 -0.024408
v -0.537723 0.398987 -0.024580
v -0.537854 0.399097 -0.024751
v -0.537986 0.399207 -0.024922
v -0.538117 0.399318 -0.025093
v -0.538380 0.399538 -0.025435
v -0.538249 0.399428 -0.025264
v -0.541458 0.395647 -0.025607
v -0.538511 0.399648 -0.025607
v -0.613369 0.271093 -0.025607
v -0.615361 0.266540 -0.025607
v -0.615200 0.266482 -0.025435
v -0.615039 0.266423 -0.025264
v -0.614878 0.266364 -0.025093
v -0.614717 0.266306 -0.024922
v -0.614556 0.266247 -0.024751
v -0.614394 0.266188 -0.024580
v -0.614233 0.266130 -0.024408
v -0.614072 0.266071 -0.024237
v -0.613911 0.266013 -0.024066
v -0.613750 0.265954 -0.023895
v -0.613589 0.265895 -0.023724
v -0.613428 0.265837 -0.023553
v -0.613267 0.265778 -0.023382
v -0.613106 0.265719 -0.023211
v -0.612945 0.265661 -0.023040
v -0.612784 0.265602 -0.022869
v -0.612623 0.265544 -0.022698
v -0.612462 0.265485 -0.022527
v -0.612301 0.265427 -0.022356
v -0.612140 0.265368 -0.022185
v -0.611979 0.265309 -0.022014
v -0.611818 0.265251 -0.021843
v -0.611658 0.265192 -0.021672
v -0.611497 0.265134 -0.021501
v -0.611336 0.265075 -0.021331
v -0.611175 0.265017 -0.021160
v -0.611014 0.264958 -0.020989
v -0.610853 0.264900 -0.020818
v -0.610693 0.264841 -0.020647
v -0.610532 0.264783 -0.020476
v -0.610371 0.264724 -0.020306
v -0.610210 0.264665 -0.020135
v -0.610050 0.264607 -0.019964
v -0.609889 0.264548 -0.019793
v -0.609728 0.264490 -0.019623
v -0.609567 0.264431 -0.019452
v -0.609407 0.264373 -0.019281
v -0.609246 0.264315 -0.019111
v -0.609085 0.264256 -0.018940
v -0.608925 0.264198 -0.018769
v -0.608764 0.264139 -0.018599
v -0.608603 0.264081 -0.018428
v -0.608443 0.264022 -0.018257
v -0.608282 0.263964 -0.018087
v -0.608122 0.263905 -0.017916
v -0.607961 0.263847 -0.017746
v -0.607800 0.263788 -0.017575
v -0.607640 0.263730 -0.017404
v -0.607479 0.263671 -0.017234
v -0.607319 0.263613 -0.017063
v -0.607158 0.263555 -0.016893
v -0.606998 0.263496 -0.016722
v -0.606837 0.263438 -0.016552
v -0.606677 0.263379 -0.016381
v -0.606516 0.263321 -0.016211
v -0.633878 0.188146 -0.016211
v -0.634038 0.188204 -0.016381
v -0.634199 0.188262 -0.016552
v -0.634359 0.188321 -0.016722
v -0.634520 0.188379 -0.016893
v -0.634680 0.188438 -0.017063
v -0.634841 0.188496 -0.017234
v -0.635001 0.188555 -0.017404
v -0.635162 0.188613 -0.017575
v -0.635323 0.188671 -0.017746
v -0.635483 0.188730 -0.017916
v -0.635644 0.188788 -0.018087
v -0.635804 0.188847 -0.018257
v -0.635965 0.188905 -0.018428
v -0.636126 0.188964 -0.018599
v -0.636286 0.189022 -0.018769
v -0.636447 0.189081 -0.018940
v -0.636608 0.189139 -0.019111
v -0.636768 0.189198 -0.019281
v -0.636929 0.189256 -0.019452
v -0.637090 0.189315 -0.019623
v -0.637250 0.189373 -0.019793
v -0.637411 0.189432 -0.019964
v -0.637572 0.189490 -0.020135
v -0.637733 0.189549 -0.020306
v -0.637893 0.189607 -0.020476
v -0.638054 0.189666 -0.020647
v -0.638215 0.189724 -0.020818
v -0.638376 0.189783 -0.020989
v -0.638537 0.189841 -0.021160
v -0.638698 0.189900 -0.021331
v -0.638858 0.189958 -0.021501
v -0.639019 0.190017 -0.021672
v -0.639180 0.190075 -0.021843
v -0.639341 0.190134 -0.022014
v -0.639502 0.190193 -0.022185
v -0.639663 0.190251 -0.022356
v -0.639824 0.190310 -0.022527
v -0.639985 0.190368 -0.022698
v -0.640146 0.190427 -0.022869
v -0.640307 0.190485 -0.023040
v -0.640468 0.190544 -0.023211
v -0.640629 0.190603 -0.023382
v -0.640790 0.190661 -0.023553
v -0.640951 0.190720 -0.023724
v -0.641112 0.190778 -0.023895
v -0.641273 0.190837 -0.024066
v -0.641434 0.190896 -0.024237
v -0.641595 0.190954 -0.024408
v -0.641756 0.191013 -0.024580
v -0.641917 0.191072 -0.024751
v -0.642078 0.191130 -0.024922
v -0.642239 0.191189 -0.025093
v -0.642562 0.191306 -0.025435
v -0.642401 0.191248 -0.025264
v -0.644123 0.186597 -0.025607
v -0.642723 0.191365 -0.025607
v -0.669098 0.044959 -0.025607
v -0.669413 0.040000 -0.025607
v -0.669241 0.040000 -0.025435
v -0.669070 0.040000 -0.025264
v -0.668898 0.040000 -0.025093
v -0.668727 0.040000 -0.024922
v -0.668555 0.040000 -0.024751
v -0.668384 0.040000 -0.024580
v -0.668212 0.040000 -0.024408
v -0.668041 0.040000 -0.024237
v -0.667869 0.040000 -0.024066
v -0.667698 0.040000 -0.023895
v -0.667527 0.040000 -0.023724
v -0.667355 0.040000 -0.023553
v -0.667184 0.040000 -0.023382
v -0.667013 0.040000 -0.023211
v -0.666841 0.040000 -0.023040
v -0.666670 0.040000 -0.022869
v -0.666499 0.040000 -0.022698
v -0.666327 0.040000 -0.022527
v -0.666156 0.040000 -0.022356
v -0.665985 0.040000 -0.022185
v -0.665814 0.040000 -0.022014
v -0.665642 0.040000 -0.021843
v -0.665471 0.040000 -0.021672
v -0.665300 0.040000 -0.021501
v -0.665129 0.040000 -0.021331
v -0.664958 0.040000 -0.021160
v -0.664787 0.040000 -0.020989
v -0.664615 0.040000 -0.020818
v -0.664444 0.040000 -0.020647
v -0.664273 0.040000 -0.020476
v -0.664102 0.040000 -0.020306
v -0.663931 0.040000 -0.020135
v -0.663760 0.040000 -0.019964
v -0.663589 0.040000 -0.019793
v -0.663418 0.040000 -0.019623
v -0.663247 0.040000 -0.019452
v -0.663076 0.040000 -0.019281
v -0.662905 0.040000 -0.019111
v -0.662734 0.040000 -0.018940
v -0.662563 0.040000 -0.018769
v -0.662392 0.040000 -0.018599
v -0.662221 0.040000 -0.018428
v -0.662050 0.040000 -0.018257
v -0.661879 0.040000 -0.018087
v -0.661708 0.040000 -0.017916
v -0.661537 0.040000 -0.017746
v -0.661366 0.040000 -0.017575
v -0.661196 0.040000 -0.017404
v -0.661025 0.040000 -0.017234
v -0.660854 0.040000 -0.017063
v -0.660683 0.040000 -0.016893
v -0.660512 0.040000 -0.016722
v -0.660342 0.040000 -0.016552
v -0.660000 0.040000 -0.016211
v -0.660171 0.040000 -0.016381
v -0.640822 0.157948 -0.015000
v -0.660000 0.001454 -0.015002
v 0.636100 0.130722 -0.004393
v 0.645488 0.181819 -0.025607
v 0.544374 0.391624 -0.025607
v 0.377601 0.554194 -0.025607
v 0.165284 0.649919 -0.025607
v -0.066969 0.667254 -0.025607
v -0.291145 0.604109 -0.025607
v -0.480204 0.468099 -0.025607
v -0.611344 0.275630 -0.025607
v -0.668746 0.049916 -0.025607
v -0.660000 0.002180 -0.015004
v 0.619612 0.194404 -0.004393
v 0.646818 0.177032 -0.025607
v 0.547261 0.387580 -0.025607
v 0.381697 0.551380 -0.025607
v 0.170095 0.648676 -0.025607
v -0.062023 0.667732 -0.025607
v -0.286661 0.606250 -0.025607
v -0.476723 0.471645 -0.025607
v -0.609285 0.280152 -0.025607
v -0.668358 0.054869 -0.025607
v -0.660000 0.002907 -0.015006
v 0.596765 0.256092 -0.004393
v 0.668746 0.049916 -0.025607
v 0.648112 0.172234 -0.025607
v 0.611344 0.275630 -0.025607
v 0.550118 0.383514 -0.025607
v 0.480204 0.468099 -0.025607
v 0.385772 0.548537 -0.025607
v 0.291145 0.604109 -0.025607
v 0.174897 0.647398 -0.025607
v 0.066969 0.667254 -0.025607
v -0.057074 0.668173 -0.025607
v -0.165284 0.649919 -0.025607
v -0.282161 0.608357 -0.025607
v -0.377601 0.554194 -0.025607
v -0.473215 0.475164 -0.025607
v -0.544374 0.391624 -0.025607
v -0.607192 0.284659 -0.025607
v -0.645488 0.181819 -0.025607
v -0.667933 0.059820 -0.025607
v -0.660000 0.003634 -0.015010
v 0.567795 0.315152 -0.004393
v 0.649370 0.167427 -0.025607
v 0.552945 0.379428 -0.025607
v 0.389826 0.545664 -0.025607
v 0.179689 0.646084 -0.025607
v -0.052122 0.668578 -0.025607
v -0.277645 0.610431 -0.025607
v -0.469681 0.478657 -0.025607
v -0.605066 0.289150 -0.025607
v -0.667472 0.064768 -0.025607
v -0.660000 0.004361 -0.015014
v 0.532998 0.370978 -0.004393
v 0.650593 0.162611 -0.025607
v 0.555741 0.375320 -0.025607
v 0.393859 0.542760 -0.025607
v 0.184471 0.644735 -0.025607
v -0.047166 0.668946 -0.025607
v -0.273115 0.612472 -0.025607
v -0.466122 0.482124 -0.025607
v -0.602907 0.293626 -0.025607
v -0.666973 0.069711 -0.025607
v -0.660000 0.005088 -0.015020
v 0.492733 0.422997 -0.004393
v 0.668358 0.054869 -0.025607
v 0.651780 0.157786 -0.025607
v 0.609285 0.280152 -0.025607
v 0.558507 0.371192 -0.025607
v 0.476723 0.471645 -0.025607
v 0.397869 0.539827 -0.025607
v 0.286661 0.606250 -0.025607
v 0.189243 0.643351 -0.025607
v 0.062023 0.667732 -0.025607
v -0.042208 0.669277 -0.025607
v -0.170095 0.648676 -0.025607
v -0.268569 0.614479 -0.025607
v -0.381697 0.551380 -0.025607
v -0.462536 0.485565 -0.025607
v -0.547261 0.387580 -0.025607
v -0.600715 0.298085 -0.025607
v -0.646818 0.177032 -0.025607
v -0.666439 0.074652 -0.025607
v -0.660000 0.005815 -0.015026
v 0.447411 0.470676 -0.004393
v 0.667933 0.059820 -0.025607
v 0.652931 0.152952 -0.025607
v 0.607192 0.284659 -0.025607
v 0.561242 0.367044 -0.025607
v 0.473215 0.475164 -0.025607
v 0.401858 0.536864 -0.025607
v 0.282161 0.608357 -0.025607
v 0.194005 0.641931 -0.025607
v 0.057074 0.668173 -0.025607
v -0.037248 0.669571 -0.025607
v -0.174897 0.647398 -0.025607
v -0.264009 0.616452 -0.025607
v -0.385772 0.548537 -0.025607
v -0.458926 0.488979 -0.025607
v -0.550118 0.383514 -0.025607
v -0.598490 0.302528 -0.025607
v -0.648112 0.172234 -0.025607
v -0.665867 0.079588 -0.025607
v -0.660000 0.006542 -0.015032
v 0.397498 0.513525 -0.004393
v 0.667472 0.064768 -0.025607
v 0.654046 0.148110 -0.025607
v 0.605066 0.289150 -0.025607
v 0.563946 0.362875 -0.025607
v 0.469681 0.478657 -0.025607
v 0.405825 0.533872 -0.025607
v 0.277645 0.610431 -0.025607
v 0.198756 0.640476 -0.025607
v 0.052122 0.668578 -0.025607
v -0.032286 0.669829 -0.025607
v -0.179689 0.646084 -0.025607
v -0.259434 0.618391 -0.025607
v -0.389826 0.545664 -0.025607
v -0.455290 0.492366 -0.025607
v -0.552945 0.379428 -0.025607
v -0.596232 0.306954 -0.025607
v -0.649370 0.167427 -0.025607
v -0.665259 0.084519 -0.025607
v -0.660000 0.007269 -0.015040
v 0.343506 0.551104 -0.004393
v 0.666973 0.069711 -0.025607
v 0.655126 0.143260 -0.025607
v 0.602907 0.293626 -0.025607
v 0.566619 0.358686 -0.025607
v 0.466122 0.482124 -0.025607
v 0.409770 0.530850 -0.025607
v 0.273115 0.612472 -0.025607
v 0.203496 0.638985 -0.025607
v 0.047166 0.668946 -0.025607
v -0.027322 0.670050 -0.025607
v -0.184471 0.644735 -0.025607
v -0.254845 0.620296 -0.025607
v -0.393859 0.542760 -0.025607
v -0.451629 0.495726 -0.025607
v -0.555741 0.375320 -0.025607
v -0.593941 0.311364 -0.025607
v -0.650593 0.162611 -0.025607
v -0.664615 0.089446 -0.025607
v -0.660000 0.007995 -0.015048
v 0.285989 0.583028 -0.004393
v 0.666439 0.074652 -0.025607
v 0.656169 0.138402 -0.025607
v 0.600715 0.298085 -0.025607
v 0.569261 0.354478 -0.025607
v 0.462536 0.485565 -0.025607
v 0.413692 0.527799 -0.025607
v 0.268569 0.614479 -0.025607
v 0.208225 0.637460 -0.025607
v 0.042208 0.669277 -0.025607
v -0.022356 0.670234 -0.025607
v -0.189243 0.643351 -0.025607
v -0.250241 0.622168 -0.025607
v -0.397869 0.539827 -0.025607
v -0.447944 0.499059 -0.025607
v -0.558507 0.371192 -0.025607
v -0.591618 0.315756 -0.025607
v -0.651780 0.157786 -0.025607
v -0.663934 0.094368 -0.025607
v -0.660000 0.008722 -0.015058
v 0.225538 0.608970 -0.004393
v 0.665867 0.079588 -0.025607
v 0.657177 0.133536 -0.025607
v 0.598490 0.302528 -0.025607
v 0.571872 0.350250 -0.025607
v 0.458926 0.488979 -0.025607
v 0.417592 0.524719 -0.025607
v 0.264009 0.616452 -0.025607
v 0.212943 0.635900 -0.025607
v 0.037248 0.669571 -0.025607
v -0.017389 0.670381 -0.025607
v -0.194005 0.641931 -0.025607
v -0.245625 0.624005 -0.025607
v -0.401858 0.536864 -0.025607
v -0.444234 0.502364 -0.025607
v -0.561242 0.367044 -0.025607
v -0.589262 0.320131 -0.025607
v -0.652931 0.152952 -0.025607
v -0.663216 0.099285 -0.025607
v -0.660000 0.009449 -0.015068
v 0.162772 0.628663 -0.004393
v 0.665259 0.084519 -0.025607
v 0.658148 0.128663 -0.025607
v 0.596232 0.306954 -0.025607
v 0.574452 0.346003 -0.025607
v 0.455290 0.492366 -0.025607
v 0.421468 0.521611 -0.025607
v 0.259434 0.618391 -0.025607
v 0.217649 0.634304 -0.025607
v 0.032286 0.669829 -0.025607
v -0.012422 0.670492 -0.025607
v -0.198756 0.640476 -0.025607
v -0.240994 0.625807 -0.025607
v -0.405825 0.533872 -0.025607
v -0.440499 0.505642 -0.025607
v -0.563946 0.362875 -0.025607
v -0.586874 0.324488 -0.025607
v -0.654046 0.148110 -0.025607
v -0.662462 0.104197 -0.025607
v -0.660000 0.010176 -0.015078
v 0.098336 0.641905 -0.004393
v 0.664615 0.089446 -0.025607
v 0.659084 0.123783 -0.025607
v 0.593941 0.311364 -0.025607
v 0.577000 0.341737 -0.025607
v 0.451629 0.495726 -0.025607
v 0.425321 0.518474 -0.025607
v 0.254845 0.620296 -0.025607
v 0.222343 0.632674 -0.025607
v 0.027322 0.670050 -0.025607
v -0.007453 0.670565 -0.025607
v -0.203496 0.638985 -0.025607
v -0.236351 0.627576 -0.025607
v -0.409770 0.530850 -0.025607
v -0.436741 0.508892 -0.025607
v -0.566619 0.358686 -0.025607
v -0.584453 0.328828 -0.025607
v -0.655126 0.143260 -0.025607
v -0.661672 0.109102 -0.025607
v -0.660000 0.010903 -0.015090
v 0.032891 0.648560 -0.004393
v 0.663934 0.094368 -0.025607
v 0.659983 0.118896 -0.025607
v 0.591618 0.315756 -0.025607
v 0.579516 0.337453 -0.025607
v 0.447944 0.499059 -0.025607
v 0.429151 0.515308 -0.025607
v 0.250241 0.622168 -0.025607
v 0.227025 0.631009 -0.025607
v 0.022356 0.670234 -0.025607
v -0.002484 0.670602 -0.025607
v -0.208225 0.637460 -0.025607
v -0.231694 0.629310 -0.025607
v -0.413692 0.527799 -0.025607
v -0.432958 0.512114 -0.025607
v -0.569261 0.354478 -0.025607
v -0.582001 0.333149 -0.025607
v -0.656169 0.138402 -0.025607
v -0.660845 0.114002 -0.025607
v -0.660000 0.011631 -0.015102
v -0.032891 0.648560 -0.004393
v 0.663216 0.099285 -0.025607
v 0.660845 0.114002 -0.025607
v 0.589262 0.320131 -0.025607
v 0.582001 0.333149 -0.025607
v 0.444234 0.502364 -0.025607
v 0.432958 0.512114 -0.025607
v 0.245625 0.624005 -0.025607
v 0.231694 0.629310 -0.025607
v 0.017389 0.670381 -0.025607
v 0.002484 0.670602 -0.025607
v -0.212943 0.635900 -0.025607
v -0.227025 0.631009 -0.025607
v -0.417592 0.524719 -0.025607
v -0.429151 0.515308 -0.025607
v -0.571872 0.350250 -0.025607
v -0.579516 0.337453 -0.025607
v -0.657177 0.133536 -0.025607
v -0.659983 0.118896 -0.025607
v -0.660000 0.012358 -0.015116
v -0.098336 0.641905 -0.004393
v 0.662462 0.104197 -0.025607
v 0.661672 0.109102 -0.025607
v 0.586874 0.324488 -0.025607
v 0.584453 0.328828 -0.025607
v 0.440499 0.505642 -0.025607
v 0.436741 0.508892 -0.025607
v 0.240994 0.625807 -0.025607
v 0.236351 0.627576 -0.025607
v 0.012422 0.670492 -0.025607
v 0.007453 0.670565 -0.025607
v -0.217649 0.634304 -0.025607
v -0.222343 0.632674 -0.025607
v -0.421468 0.521611 -0.025607
v -0.425321 0.518474 -0.025607
v -0.574452 0.346003 -0.025607
v -0.577000 0.341737 -0.025607
v -0.658148 0.128663 -0.025607
v -0.659084 0.123783 -0.025607
v -0.660000 0.013085 -0.015130
v -0.162772 0.628663 -0.004393
v -0.660000 0.013812 -0.015145
v -0.225538 0.608970 -0.004393
v -0.660000 0.014539 -0.015160
v -0.285989 0.583028 -0.004393
v 0.660000 0.039272 -0.016167
v 0.607014 0.261954 -0.016125
v 0.480813 0.453767 -0.016125
v 0.296619 0.590849 -0.016125
v 0.076648 0.656666 -0.016125
v -0.152568 0.643280 -0.016125
v -0.363381 0.552304 -0.016125
v -0.530366 0.394712 -0.016125
v -0.633380 0.189512 -0.016125
v -0.660000 0.015266 -0.015177
v -0.343506 0.551104 -0.004393
v 0.660000 0.038544 -0.016125
v 0.607511 0.260587 -0.016041
v 0.481748 0.452653 -0.016041
v 0.297878 0.590122 -0.016041
v 0.078080 0.656414 -0.016041
v -0.151135 0.643532 -0.016041
v -0.362122 0.553031 -0.016041
v -0.529431 0.395827 -0.016041
v -0.632883 0.190879 -0.016041
v -0.660000 0.015993 -0.015194
v -0.397498 0.513525 -0.004393
v 0.660000 0.037817 -0.016083
v 0.608009 0.259221 -0.015961
v 0.482683 0.451539 -0.015961
v 0.299138 0.589395 -0.015961
v 0.079513 0.656161 -0.015961
v -0.149703 0.643785 -0.015961
v -0.360862 0.553759 -0.015961
v -0.528496 0.396941 -0.015961
v -0.632385 0.192246 -0.015961
v -0.660000 0.016720 -0.015212
v -0.447411 0.470676 -0.004393
v 0.660000 0.037089 -0.016041
v 0.608506 0.257854 -0.015885
v 0.483618 0.450425 -0.015885
v 0.300398 0.588668 -0.015885
v 0.080945 0.655909 -0.015885
v -0.148270 0.644038 -0.015885
v -0.359602 0.554486 -0.015885
v -0.527561 0.398055 -0.015885
v -0.631888 0.193613 -0.015885
v -0.660000 0.017448 -0.015231
v -0.492733 0.422997 -0.004393
v 0.660000 0.036361 -0.016001
v 0.609004 0.256487 -0.015811
v 0.484553 0.449310 -0.015811
v 0.301657 0.587940 -0.015811
v 0.082378 0.655656 -0.015811
v -0.146838 0.644290 -0.015811
v -0.358343 0.555213 -0.015811
v -0.526626 0.399169 -0.015811
v -0.631391 0.194980 -0.015811
v -0.660000 0.018175 -0.015250
v -0.532998 0.370978 -0.004393
v 0.660000 0.035634 -0.015961
v 0.609501 0.255120 -0.015741
v 0.485488 0.448196 -0.015741
v 0.302917 0.587213 -0.015741
v 0.083810 0.655404 -0.015741
v -0.145405 0.644543 -0.015741
v -0.357083 0.555940 -0.015741
v -0.525691 0.400284 -0.015741
v -0.630893 0.196347 -0.015741
v -0.660000 0.018902 -0.015271
v -0.567795 0.315152 -0.004393
v 0.660000 0.034906 -0.015922
v 0.609999 0.253753 -0.015673
v 0.486423 0.447082 -0.015673
v 0.304177 0.586486 -0.015673
v 0.085243 0.655151 -0.015673
v -0.143973 0.644795 -0.015673
v -0.355823 0.556668 -0.015673
v -0.524756 0.401398 -0.015673
v -0.630396 0.197713 -0.015673
v -0.660000 0.019629 -0.015292
v -0.596765 0.256092 -0.004393
v 0.660000 0.034178 -0.015884
v 0.610496 0.252386 -0.015609
v 0.487358 0.445968 -0.015609
v 0.305436 0.585759 -0.015609
v 0.086675 0.654898 -0.015609
v -0.142541 0.645048 -0.015609
v -0.354564 0.557395 -0.015609
v -0.523821 0.402512 -0.015609
v -0.629898 0.199080 -0.015609
v -0.660000 0.020357 -0.015314
v -0.619612 0.194404 -0.004393
v 0.660000 0.033451 -0.015847
v 0.610994 0.251020 -0.015548
v 0.488292 0.444853 -0.015548
v 0.306696 0.585031 -0.015548
v 0.088108 0.654646 -0.015548
v -0.141108 0.645300 -0.015548
v -0.353304 0.558122 -0.015548
v -0.522886 0.403626 -0.015548
v -0.629401 0.200447 -0.015548
v -0.660000 0.021084 -0.015337
v -0.636100 0.130722 -0.004393
v 0.660000 0.032723 -0.015811
v 0.611491 0.249653 -0.015491
v 0.489227 0.443739 -0.015491
v 0.307956 0.584304 -0.015491
v 0.089540 0.654393 -0.015491
v -0.139676 0.645553 -0.015491
v -0.352044 0.558849 -0.015491
v -0.521951 0.404741 -0.015491
v -0.628903 0.201814 -0.015491
v -0.660000 0.021811 -0.015360
v -0.646062 0.065698 -0.004393
v 0.660000 0.031996 -0.015775
v 0.611989 0.248286 -0.015436
v 0.490162 0.442625 -0.015436
v 0.309215 0.583577 -0.015436
v 0.090972 0.654141 -0.015436
v -0.138243 0.645806 -0.015436
v -0.350785 0.559577 -0.015436
v -0.521016 0.405855 -0.015436
v -0.628406 0.203181 -0.015436
v -0.660000 0.022538 -0.015385
v 0.660000 0.031268 -0.015740
v 0.612486 0.246919 -0.015385
v 0.491097 0.441511 -0.015385
v 0.310475 0.582850 -0.015385
v 0.092405 0.653888 -0.015385
v -0.136811 0.646058 -0.015385
v -0.349525 0.560304 -0.015385
v -0.520081 0.406969 -0.015385
v -0.627908 0.204547 -0.015385
v -0.660000 0.023266 -0.015410
v 0.660000 0.000727 -0.015000
v 0.660000 0.030540 -0.015706
v 0.612984 0.245552 -0.015337
v 0.492032 0.440396 -0.015337
v 0.311735 0.582122 -0.015337
v 0.093837 0.653636 -0.015337
v -0.135378 0.646311 -0.015337
v -0.348265 0.561031 -0.015337
v -0.519146 0.408083 -0.015337
v -0.627411 0.205914 -0.015337
v -0.660000 0.023993 -0.015436
v 0.660000 0.001454 -0.015002
v 0.660000 0.029813 -0.015673
v 0.613481 0.244185 -0.015292
v 0.492967 0.439282 -0.015292
v 0.312994 0.581395 -0.015292
v 0.095270 0.653383 -0.015292
v -0.133946 0.646563 -0.015292
v -0.347006 0.561759 -0.015292
v -0.518211 0.409197 -0.015292
v -0.626913 0.207281 -0.015292
v -0.660000 0.024721 -0.015463
v 0.660000 0.002180 -0.015004
v 0.660000 0.029085 -0.015641
v 0.613979 0.242819 -0.015250
v 0.493902 0.438168 -0.015250
v 0.314254 0.580668 -0.015250
v 0.096702 0.653130 -0.015250
v -0.132513 0.646816 -0.015250
v -0.345746 0.562486 -0.015250
v -0.517276 0.410312 -0.015250
v -0.626416 0.208648 -0.015250
v -0.660000 0.025448 -0.015490
v 0.660000 0.002907 -0.015006
v 0.660000 0.028358 -0.015609
v 0.614476 0.241452 -0.015212
v 0.494837 0.437054 -0.015212
v 0.315514 0.579940 -0.015212
v 0.098135 0.652878 -0.015212
v -0.131081 0.647068 -0.015212
v -0.344486 0.563213 -0.015212
v -0.516341 0.411426 -0.015212
v -0.625918 0.210015 -0.015212
v -0.660000 0.026175 -0.015519
v 0.660000 0.003634 -0.015010
v 0.660000 0.027630 -0.015578
v 0.614974 0.240085 -0.015177
v 0.495772 0.435939 -0.015177
v 0.316773 0.579213 -0.015177
v 0.099567 0.652625 -0.015177
v -0.129649 0.647321 -0.015177
v -0.343227 0.563940 -0.015177
v -0.515406 0.412540 -0.015177
v -0.625421 0.211382 -0.015177
v -0.660000 0.026903 -0.015548
v 0.660000 0.004361 -0.015014
v 0.660000 0.026903 -0.015548
v 0.615471 0.238718 -0.015145
v 0.496707 0.434825 -0.015145
v 0.318033 0.578486 -0.015145
v 0.101000 0.652373 -0.015145
v -0.128216 0.647574 -0.015145
v -0.341967 0.564668 -0.015145
v -0.514472 0.413654 -0.015145
v -0.624923 0.212748 -0.015145
v -0.660000 0.027630 -0.015578
v 0.660000 0.005088 -0.015020
v 0.660000 0.026175 -0.015519
v 0.615969 0.237351 -0.015116
v 0.497642 0.433711 -0.015116
v 0.319293 0.577759 -0.015116
v 0.102432 0.652120 -0.015116
v -0.126784 0.647826 -0.015116
v -0.340707 0.565395 -0.015116
v -0.513537 0.414769 -0.015116
v -0.624426 0.214115 -0.015116
v -0.660000 0.028358 -0.015609
v 0.660000 0.005815 -0.015026
v 0.660000 0.025448 -0.015490
v 0.616466 0.235985 -0.015090
v 0.498577 0.432597 -0.015090
v 0.320552 0.577031 -0.015090
v 0.103864 0.651867 -0.015090
v -0.125351 0.648079 -0.015090
v -0.339448 0.566122 -0.015090
v -0.512602 0.415883 -0.015090
v -0.623928 0.215482 -0.015090
v -0.660000 0.029085 -0.015641
v 0.660000 0.006542 -0.015032
v 0.660000 0.024721 -0.015463
v 0.616963 0.234618 -0.015068
v 0.499512 0.431482 -0.015068
v 0.321812 0.576304 -0.015068
v 0.105297 0.651615 -0.015068
v -0.123919 0.648331 -0.015068
v -0.338188 0.566849 -0.015068
v -0.511667 0.416997 -0.015068
v -0.623431 0.216849 -0.015068
v -0.660000 0.029813 -0.015673
v 0.660000 0.007269 -0.015040
v 0.660000 0.023993 -0.015436
v 0.617461 0.233251 -0.015049
v 0.500447 0.430368 -0.015049
v 0.323072 0.575577 -0.015049
v 0.106729 0.651362 -0.015049
v -0.122486 0.648584 -0.015049
v -0.336928 0.567577 -0.015049
v -0.510732 0.418111 -0.015049
v -0.622933 0.218216 -0.015049
v -0.660000 0.030540 -0.015706
v 0.660000 0.007996 -0.015048
v 0.660000 0.023266 -0.015410
v 0.617958 0.231884 -0.015032
v 0.501382 0.429254 -0.015032
v 0.324331 0.574850 -0.015032
v 0.108162 0.651110 -0.015032
v -0.121054 0.648837 -0.015032
v -0.335669 0.568304 -0.015032
v -0.509797 0.419226 -0.015032
v -0.622436 0.219583 -0.015032
v -0.660000 0.031268 -0.015740
v 0.660000 0.008723 -0.015058
v 0.660000 0.022539 -0.015385
v 0.618456 0.230517 -0.015020
v 0.502317 0.428140 -0.015020
v 0.325591 0.574122 -0.015020
v 0.109594 0.650857 -0.015020
v -0.119621 0.649089 -0.015020
v -0.334409 0.569031 -0.015020
v -0.508862 0.420340 -0.015020
v -0.621938 0.220949 -0.015020
v -0.660000 0.031995 -0.015775
v 0.660000 0.009450 -0.015068
v 0.660000 0.021811 -0.015360
v 0.618953 0.229150 -0.015010
v 0.503252 0.427025 -0.015010
v 0.326851 0.573395 -0.015010
v 0.111027 0.650605 -0.015010
v -0.118189 0.649342 -0.015010
v -0.333149 0.569759 -0.015010
v -0.507927 0.421454 -0.015010
v -0.621441 0.222316 -0.015010
v -0.660000 0.032723 -0.015811
v 0.660000 0.010177 -0.015078
v 0.660000 0.021084 -0.015337
v 0.530366 0.394712 -0.016125
v 0.363381 0.552304 -0.016125
v 0.152568 0.643280 -0.016125
v -0.076648 0.656666 -0.016125
v -0.296619 0.590849 -0.016125
v -0.480813 0.453767 -0.016125
v -0.607014 0.261954 -0.016125
v -0.620943 0.223683 -0.015004
v -0.660000 0.033451 -0.015847
v 0.660000 0.010904 -0.015090
v 0.660000 0.020357 -0.015314
v 0.529431 0.395827 -0.016041
v 0.362122 0.553031 -0.016041
v 0.151135 0.643532 -0.016041
v -0.078080 0.656414 -0.016041
v -0.297878 0.590122 -0.016041
v -0.481748 0.452653 -0.016041
v -0.607511 0.260587 -0.016041
v -0.620446 0.225050 -0.015000
v -0.660000 0.034178 -0.015884
v 0.660000 0.011631 -0.015102
v 0.660000 0.019629 -0.015292
v 0.528496 0.396941 -0.015961
v 0.360862 0.553759 -0.015961
v 0.149703 0.643785 -0.015961
v -0.079513 0.656161 -0.015961
v -0.299138 0.589395 -0.015961
v -0.482683 0.451539 -0.015961
v -0.608009 0.259220 -0.015961
v -0.660000 0.034906 -0.015922
v 0.660000 0.012358 -0.015116
v 0.660000 0.018902 -0.015271
v 0.527561 0.398055 -0.015885
v 0.359602 0.554486 -0.015885
v 0.148270 0.644038 -0.015885
v -0.080945 0.655909 -0.015885
v -0.300398 0.588668 -0.015885
v -0.483618 0.450425 -0.015885
v -0.608506 0.257854 -0.015885
v -0.619948 0.226417 -0.015000
v -0.584401 0.306717 -0.015000
v -0.660000 0.035634 -0.015961
v 0.660000 0.013085 -0.015130
v 0.660000 0.018175 -0.015250
v 0.526626 0.399169 -0.015811
v 0.358343 0.555213 -0.015811
v 0.146838 0.644290 -0.015811
v -0.082378 0.655656 -0.015811
v -0.301657 0.587940 -0.015811
v -0.484553 0.449310 -0.015811
v -0.609004 0.256487 -0.015811
v -0.619451 0.227783 -0.015004
v -0.660000 0.036361 -0.016001
v 0.660000 0.013812 -0.015145
v 0.660000 0.017448 -0.015231
v 0.619451 0.227784 -0.015004
v 0.504187 0.425911 -0.015004
v 0.328110 0.572668 -0.015004
v 0.112459 0.650352 -0.015004
v -0.116757 0.649594 -0.015004
v -0.331890 0.570486 -0.015004
v -0.506992 0.422568 -0.015004
v -0.618953 0.229150 -0.015010
v -0.660000 0.037089 -0.016041
v 0.660000 0.014539 -0.015160
v 0.660000 0.016720 -0.015212
v 0.525691 0.400284 -0.015741
v 0.357083 0.555940 -0.015741
v 0.145405 0.644543 -0.015741
v -0.083810 0.655404 -0.015741
v -0.302917 0.587213 -0.015741
v -0.485488 0.448196 -0.015741
v -0.609501 0.255120 -0.015741
v -0.618456 0.230517 -0.015020
v -0.660000 0.037817 -0.016083
v 0.660000 0.015266 -0.015177
v 0.660000 0.015993 -0.015194
v 0.524756 0.401398 -0.015673
v 0.355823 0.556668 -0.015673
v 0.143973 0.644795 -0.015673
v -0.085243 0.655151 -0.015673
v -0.304177 0.586486 -0.015673
v -0.486423 0.447082 -0.015673
v -0.609999 0.253753 -0.015673
v -0.617958 0.231884 -0.015032
v -0.660000 0.038544 -0.016125
v 0.633380 0.189512 -0.016125
v 0.523821 0.402512 -0.015609
v 0.354564 0.557395 -0.015609
v 0.142540 0.645048 -0.015609
v -0.086675 0.654898 -0.015609
v -0.305436 0.585759 -0.015609
v -0.487358 0.445968 -0.015609
v -0.610496 0.252386 -0.015609
v -0.617461 0.233251 -0.015049
v -0.660000 0.039272 -0.016167
v 0.632883 0.190879 -0.016041
v 0.522886 0.403626 -0.015548
v 0.353304 0.558122 -0.015548
v 0.141108 0.645300 -0.015548
v -0.088108 0.654646 -0.015548
v -0.306696 0.585031 -0.015548
v -0.488293 0.444853 -0.015548
v -0.610994 0.251020 -0.015548
v -0.616964 0.234618 -0.015068
v 0.632385 0.192246 -0.015961
v 0.521951 0.404741 -0.015491
v 0.352044 0.558850 -0.015491
v 0.139676 0.645553 -0.015491
v -0.089540 0.654393 -0.015491
v -0.307956 0.584304 -0.015491
v -0.489228 0.443739 -0.015491
v -0.611491 0.249653 -0.015491
v -0.616466 0.235984 -0.015090
v 0.631888 0.193613 -0.015885
v 0.521016 0.405855 -0.015436
v 0.350785 0.559577 -0.015436
v 0.138243 0.645806 -0.015436
v -0.090972 0.654141 -0.015436
v -0.309215 0.583577 -0.015436
v -0.490162 0.442625 -0.015436
v -0.611989 0.248286 -0.015436
v -0.615969 0.237351 -0.015116
v 0.631391 0.194980 -0.015811
v 0.619948 0.226417 -0.015000
v 0.505122 0.424797 -0.015000
v 0.329370 0.571940 -0.015000
v 0.113892 0.650099 -0.015000
v -0.115324 0.649847 -0.015000
v -0.330630 0.571213 -0.015000
v -0.615471 0.238718 -0.015145
v 0.630893 0.196347 -0.015741
v 0.520081 0.406969 -0.015385
v 0.349525 0.560304 -0.015385
v 0.136811 0.646058 -0.015385
v -0.092405 0.653888 -0.015385
v -0.310475 0.582849 -0.015385
v -0.491097 0.441511 -0.015385
v -0.506057 0.423683 -0.015000
v -0.612486 0.246919 -0.015385
v -0.614974 0.240085 -0.015177
v 0.630396 0.197713 -0.015673
v 0.519146 0.408083 -0.015337
v 0.348265 0.561031 -0.015337
v 0.135378 0.646311 -0.015337
v -0.093837 0.653636 -0.015337
v -0.311735 0.582122 -0.015337
v -0.492032 0.440396 -0.015337
v -0.612984 0.245552 -0.015337
v -0.614476 0.241452 -0.015212
v 0.629898 0.199080 -0.015609
v 0.518211 0.409198 -0.015292
v 0.347006 0.561759 -0.015292
v 0.133946 0.646563 -0.015292
v -0.095270 0.653383 -0.015292
v -0.312994 0.581395 -0.015292
v -0.492967 0.439282 -0.015292
v -0.613481 0.244185 -0.015292
v -0.613979 0.242819 -0.015250
v 0.629401 0.200447 -0.015548
v 0.517276 0.410312 -0.015250
v 0.345746 0.562486 -0.015250
v 0.132513 0.646816 -0.015250
v -0.096702 0.653130 -0.015250
v -0.314254 0.580668 -0.015250
v -0.493902 0.438168 -0.015250
v 0.628903 0.201814 -0.015491
v 0.516341 0.411426 -0.015212
v 0.344486 0.563213 -0.015212
v 0.131081 0.647068 -0.015212
v -0.098135 0.652878 -0.015212
v -0.315514 0.579940 -0.015212
v -0.494837 0.437054 -0.015212
v 0.628406 0.203181 -0.015436
v 0.515406 0.412540 -0.015177
v 0.343227 0.563940 -0.015177
v 0.129648 0.647321 -0.015177
v -0.099567 0.652625 -0.015177
v -0.316773 0.579213 -0.015177
v -0.495772 0.435939 -0.015177
v 0.627908 0.204548 -0.015385
v 0.514471 0.413655 -0.015145
v 0.341967 0.564668 -0.015145
v 0.128216 0.647574 -0.015145
v -0.101000 0.652373 -0.015145
v -0.318033 0.578486 -0.015145
v -0.496707 0.434825 -0.015145
v -0.505122 0.424797 -0.015000
v -0.494017 0.437661 -0.015000
v 0.627411 0.205914 -0.015337
v 0.513536 0.414769 -0.015116
v 0.340707 0.565395 -0.015116
v 0.126784 0.647826 -0.015116
v -0.102432 0.652120 -0.015116
v -0.319293 0.577759 -0.015116
v -0.497642 0.433711 -0.015116
v -0.504187 0.425911 -0.015004
v 0.626913 0.207281 -0.015292
v 0.512602 0.415883 -0.015090
v 0.339447 0.566122 -0.015090
v 0.125351 0.648079 -0.015090
v -0.103865 0.651867 -0.015090
v -0.320553 0.577031 -0.015090
v -0.498577 0.432597 -0.015090
v -0.503252 0.427025 -0.015010
v 0.626416 0.208648 -0.015250
v 0.511667 0.416997 -0.015068
v 0.338188 0.566850 -0.015068
v 0.123919 0.648331 -0.015068
v -0.105297 0.651615 -0.015068
v -0.321812 0.576304 -0.015068
v -0.499512 0.431482 -0.015068
v -0.502317 0.428140 -0.015020
v 0.625918 0.210015 -0.015212
v 0.510732 0.418112 -0.015049
v 0.336928 0.567577 -0.015049
v 0.122486 0.648584 -0.015049
v -0.106729 0.651362 -0.015049
v -0.323072 0.575577 -0.015049
v -0.500447 0.430368 -0.015049
v -0.501382 0.429254 -0.015032
v 0.625421 0.211382 -0.015177
v 0.509797 0.419226 -0.015032
v 0.335668 0.568304 -0.015032
v 0.121054 0.648837 -0.015032
v -0.108162 0.651110 -0.015032
v -0.324332 0.574849 -0.015032
v 0.624923 0.212749 -0.015145
v 0.508862 0.420340 -0.015020
v 0.334409 0.569031 -0.015020
v 0.119621 0.649089 -0.015020
v -0.109594 0.650857 -0.015020
v -0.325591 0.574122 -0.015020
v 0.624426 0.214115 -0.015116
v 0.507927 0.421454 -0.015010
v 0.333149 0.569759 -0.015010
v 0.118189 0.649342 -0.015010
v -0.111027 0.650605 -0.015010
v -0.326851 0.573395 -0.015010
v -0.329370 0.571940 -0.015000
v 0.623928 0.215482 -0.015090
v 0.506992 0.422568 -0.015004
v 0.331889 0.570486 -0.015004
v 0.116756 0.649594 -0.015004
v -0.112459 0.650352 -0.015004
v -0.328111 0.572668 -0.015004
v 0.494017 0.437661 -0.015000
v 0.623431 0.216849 -0.015068
v 0.506057 0.423683 -0.015000
v 0.330630 0.571213 -0.015000
v 0.115324 0.649847 -0.015000
v -0.113892 0.650099 -0.015000
v 0.584401 0.306717 -0.015000
v 0.622933 0.218216 -0.015049
v 0.620446 0.225050 -0.015000
v 0.640822 0.157948 -0.015000
v 0.622436 0.219583 -0.015032
v 0.621938 0.220949 -0.015020
v 0.621441 0.222316 -0.015010
v 0.620943 0.223683 -0.015004
f 1 2 3
f 4 5 6
f 7 8 9
f 9 10 11
f 11 12 13
f 13 14 15
f 15 16 17
f 17 18 19
f 19 20 21
f 21 22 23
f 23 24 25
f 25 26 27
f 27 28 29
f 29 30 31
f 31 32 33
f 33 34 35
f 35 36 37
f 37 38 39
f 39 40 41
f 41 42 43
f 43 44 45
f 45 46 47
f 47 48 49
f 49 50 51
f 51 52 53
f 53 54 55
f 55 56 57
f 57 58 59
f 60 61 62
f 60 63 62
f 64 65 66
f 66 67 68
f 68 69 70
f 70 71 72
f 72 73 74
f 74 75 76
f 76 77 78
f 78 79 80
f 80 81 82
f 82 83 84
f 84 85 86
f 86 87 88
f 88 89 90
f 90 91 92
f 92 93 94
f 94 95 96
f 96 97 98
f 98 99 100
f 100 101 102
f 102 103 104
f 104 105 106
f 106 107 108
f 108 109 110
f 110 111 112
f 112 113 114
f 114 115 116
f 116 117 118
f 118 119 120
f 121 122 123
f 123 124 125
f 125 126 127
f 127 128 129
f 129 130 131
f 131 132 133
f 133 134 135
f 135 136 137
f 137 138 139
f 139 140 141
f 141 142 143
f 143 144 145
f 145 146 147
f 147 148 149
f 149 150 151
f 151 152 153
f 153 154 155
f 155 156 157
f 157 158 159
f 159 160 161
f 161 162 163
f 163 164 165
f 165 166 167
f 167 168 169
f 169 170 171
f 171 172 173
f 174 175 176
f 174 177 176
f 178 179 180
f 180 181 182
f 182 183 184
f 184 185 186
f 186 187 188
f 188 189 190
f 190 191 192
f 192 193 194
f 194 195 196
f 196 197 198
f 198 199 200
f 200 201 202
f 202 203 204
f 204 205 206
f 206 207 208
f 208 209 210
f 210 211 212
f 212 213 214
f 214 215 216
f 216 217 218
f 218 219 220
f 220 221 222
f 222 223 224
f 224 225 226
f 226 227 228
f 228 229 230
f 230 231 232
f 232 233 234
f 235 236 237
f 237 238 239
f 239 240 241
f 241 242 243
f 243 244 245
f 245 246 247
f 247 248 249
f 249 250 251
f 251 252 253
f 253 254 255
f 255 256 257
f 257 258 259
f 259 260 261
f 261 262 263
f 263 264 265
f 265 266 267
f 267 268 269
f 269 270 271
f 271 272 273
f 273 274 275
f 275 276 277
f 277 278 279
f 279 280 281
f 281 282 283
f 283 284 285
f 285 286 287
f 288 289 290
f 288 291 290
f 292 293 294
f 294 295 296
f 296 297 298
f 298 299 300
f 300 301 302
f 302 303 304
f 304 305 306
f 306 307 308
f 308 309 310
f 310 311 312
f 312 313 314
f 314 315 316
f 316 317 318
f 318 319 320
f 320 321 322
f 322 323 324
f 324 325 326
f 326 327 328
f 328 329 330
f 330 331 332
f 332 333 334
f 334 335 336
f 336 337 338
f 338 339 340
f 340 341 342
f 342 343 344
f 344 345 346
f 346 347 348
f 349 350 351
f 351 352 353
f 353 354 355
f 355 356 357
f 357 358 359
f 359 360 361
f 361 362 363
f 363 364 365
f 365 366 367
f 367 368 369
f 369 370 371
f 371 372 373
f 373 374 375
f 375 376 377
f 377 378 379
f 379 380 381
f 381 382 383
f 383 384 385
f 385 386 387
f 387 388 389
f 389 390 391
f 391 392 393
f 393 394 395
f 395 396 397
f 397 398 399
f 399 400 401
f 402 403 404
f 402 405 404
f 406 407 408
f 408 409 410
f 410 411 412
f 412 413 414
f 414 415 416
f 416 417 418
f 418 419 420
f 420 421 422
f 422 423 424
f 424 425 426
f 426 427 428
f 428 429 430
f 430 431 432
f 432 433 434
f 434 435 436
f 436 437 438
f 438 439 440
f 440 441 442
f 442 443 444
f 444 445 446
f 446 447 448
f 448 449 450
f 450 451 452
f 452 453 454
f 454 455 456
f 456 457 458
f 458 459 460
f 460 461 462
f 463 464 465
f 465 466 467
f 467 468 469
f 469 470 471
f 471 472 473
f 473 474 475
f 475 476 477
f 477 478 479
f 479 480 481
f 481 482 483
f 483 484 485
f 485 486 487
f 487 488 489
f 489 490 491
f 491 492 493
f 493 494 495
f 495 496 497
f 497 498 499
f 499 500 501
f 501 502 503
f 503 504 505
f 505 506 507
f 507 508 509
f 509 510 511
f 511 512 513
f 513 514 515
f 516 517 518
f 516 519 518
f 520 521 522
f 522 523 524
f 524 525 526
f 526 527 528
f 528 529 530
f 530 531 532
f 532 533 534
f 534 535 536
f 536 537 538
f 538 539 540
f 540 541 542
f 542 543 544
f 544 545 546
f 546 547 548
f 548 549 550
f 550 551 552
f 552 553 554
f 554 555 556
f 556 557 558
f 558 559 560
f 560 561 562
f 562 563 564
f 564 565 566
f 566 567 568
f 568 569 570
f 570 571 572
f 572 573 574
f 574 575 576
f 577 578 579
f 579 580 581
f 581 582 583
f 583 584 585
f 585 586 587
f 587 588 589
f 589 590 591
f 591 592 593
f 593 594 595
f 595 596 597
f 597 598 599
f 599 600 601
f 601 602 603
f 603 604 605
f 605 606 607
f 607 608 609
f 609 610 611
f 611 612 613
f 613 614 615
f 615 616 617
f 617 618 619
f 619 620 621
f 621 622 623
f 623 624 625
f 625 626 627
f 627 628 629
f 630 631 632
f 630 633 632
f 634 635 636
f 636 637 638
f 638 639 640
f 640 641 642
f 642 643 644
f 644 645 646
f 646 647 648
f 648 649 650
f 650 651 652
f 652 653 654
f 654 655 656
f 656 657 658
f 658 659 660
f 660 661 662
f 662 663 664
f 664 665 666
f 666 667 668
f 668 669 670
f 670 671 672
f 672 673 674
f 674 675 676
f 676 677 678
f 678 679 680
f 680 681 682
f 682 683 684
f 684 685 686
f 686 687 688
f 688 689 690
f 691 692 693
f 693 694 695
f 695 696 697
f 697 698 699
f 699 700 701
f 701 702 703
f 703 704 705
f 705 706 707
f 707 708 709
f 709 710 711
f 711 712 713
f 713 714 715
f 715 716 717
f 717 718 719
f 719 720 721
f 721 722 723
f 723 724 725
f 725 726 727
f 727 728 729
f 729 730 731
f 731 732 733
f 733 734 735
f 735 736 737
f 737 738 739
f 739 740 741
f 741 742 743
f 744 745 746
f 744 747 746
f 748 749 750
f 750 751 752
f 752 753 754
f 754 755 756
f 756 757 758
f 758 759 760
f 760 761 762
f 762 763 764
f 764 765 766
f 766 767 768
f 768 769 770
f 770 771 772
f 772 773 774
f 774 775 776
f 776 777 778
f 778 779 780
f 780 781 782
f 782 783 784
f 784 785 786
f 786 787 788
f 788 789 790
f 790 791 792
f 792 793 794
f 794 795 796
f 796 797 798
f 798 799 800
f 800 801 802
f 802 803 804
f 805 806 807
f 807 808 809
f 809 810 811
f 811 812 813
f 813 814 815
f 815 816 817
f 817 818 819
f 819 820 821
f 821 822 823
f 823 824 825
f 825 826 827
f 827 828 829
f 829 830 831
f 831 832 833
f 833 834 835
f 835 836 837
f 837 838 839
f 839 840 841
f 841 842 843
f 843 844 845
f 845 846 847
f 847 848 849
f 849 850 851
f 851 852 853
f 853 854 855
f 855 856 857
f 858 859 860
f 858 861 860
f 862 863 864
f 864 865 866
f 866 867 868
f 868 869 870
f 870 871 872
f 872 873 874
f 874 875 876
f 876 877 878
f 878 879 880
f 880 881 882
f 882 883 884
f 884 885 886
f 886 887 888
f 888 889 890
f 890 891 892
f 892 893 894
f 894 895 896
f 896 897 898
f 898 899 900
f 900 901 902
f 902 903 904
f 904 905 906
f 906 907 908
f 908 909 910
f 910 911 912
f 912 913 914
f 914 915 916
f 916 917 918
f 919 920 921
f 921 922 923
f 923 924 925
f 925 926 927
f 927 928 929
f 929 930 931
f 931 932 933
f 933 934 935
f 935 936 937
f 937 938 939
f 939 940 941
f 941 942 943
f 943 944 945
f 945 946 947
f 947 948 949
f 949 950 951
f 951 952 953
f 953 954 955
f 955 956 957
f 957 958 959
f 959 960 961
f 961 962 963
f 963 964 965
f 965 966 967
f 967 968 969
f 969 970 971
f 972 973 974
f 972 975 974
f 976 977 978
f 978 979 980
f 980 981 982
f 982 983 984
f 984 985 986
f 986 987 988
f 988 989 990
f 990 991 992
f 992 993 994
f 994 995 996
f 996 997 998
f 998 999 1000
f 1000 1001 1002
f 1002 1003 1004
f 1004 1005 1006
f 1006 1007 1008
f 1008 1009 1010
f 1010 1011 1012
f 1012 1013 1014
f 1014 1015 1016
f 1016 1017 1018
f 1018 1019 1020
f 1020 1021 1022
f 1022 1023 1024
f 1024 1025 1026
f 1026 1027 1028
f 1028 1029 1030
f 1031 1032 1033
f 1034 1 3
f 1035 4 6
f 7 9 11
f 11 13 15
f 15 17 19
f 19 21 23
f 23 25 27
f 27 29 31
f 31 33 35
f 35 37 39
f 39 41 43
f 43 45 47
f 47 49 51
f 51 53 55
f 55 57 59
f 61 59 62
f 1036 64 66
f 66 68 70
f 70 72 74
f 74 76 78
f 78 80 82
f 82 84 86
f 86 88 90
f 90 92 94
f 94 96 98
f 98 100 102
f 102 104 106
f 106 108 110
f 110 112 114
f 114 116 118
f 121 123 125
f 125 127 129
f 129 131 133
f 133 135 137
f 137 139 141
f 141 143 145
f 145 147 149
f 149 151 153
f 153 155 157
f 157 159 161
f 161 163 165
f 165 167 169
f 169 171 173
f 175 173 176
f 1037 178 180
f 180 182 184
f 184 186 188
f 188 190 192
f 192 194 196
f 196 198 200
f 200 202 204
f 204 206 208
f 208 210 212
f 212 214 216
f 216 218 220
f 220 222 224
f 224 226 228
f 228 230 232
f 235 237 239
f 239 241 243
f 243 245 247
f 247 249 251
f 251 253 255
f 255 257 259
f 259 261 263
f 263 265 267
f 267 269 271
f 271 273 275
f 275 277 279
f 279 281 283
f 283 285 287
f 289 287 290
f 1038 292 294
f 294 296 298
f 298 300 302
f 302 304 306
f 306 308 310
f 310 312 314
f 314 316 318
f 318 320 322
f 322 324 326
f 326 328 330
f 330 332 334
f 334 336 338
f 338 340 342
f 342 344 346
f 349 351 353
f 353 355 357
f 357 359 361
f 361 363 365
f 365 367 369
f 369 371 373
f 373 375 377
f 377 379 381
f 381 383 385
f 385 387 389
f 389 391 393
f 393 395 397
f 397 399 401
f 403 401 404
f 1039 406 408
f 408 410 412
f 412 414 416
f 416 418 420
f 420 422 424
f 424 426 428
f 428 430 432
f 432 434 436
f 436 438 440
f 440 442 444
f 444 446 448
f 448 450 452
f 452 454 456
f 456 458 460
f 463 465 467
f 467 469 471
f 471 473 475
f 475 477 479
f 479 481 483
f 483 485 487
f 487 489 491
f 491 493 495
f 495 497 499
f 499 501 503
f 503 505 507
f 507 509 511
f 511 513 515
f 517 515 518
f 1040 520 522
f 522 524 526
f 526 528 530
f 530 532 534
f 534 536 538
f 538 540 542
f 542 544 546
f 546 548 550
f 550 552 554
f 554 556 558
f 558 560 562
f 562 564 566
f 566 568 570
f 570 572 574
f 577 579 581
f 581 583 585
f 585 587 589
f 589 591 593
f 593 595 597
f 597 599 601
f 601 603 605
f 605 607 609
f 609 611 613
f 613 615 617
f 617 619 621
f 621 623 625
f 625 627 629
f 631 629 632
f 1041 634 636
f 636 638 640
f 640 642 644
f 644 646 648
f 648 650 652
f 652 654 656
f 656 658 660
f 660 662 664
f 664 666 668
f 668 670 672
f 672 674 676
f 676 678 680
f 680 682 684
f 684 686 688
f 691 693 695
f 695 697 699
f 699 701 703
f 703 705 707
f 707 709 711
f 711 713 715
f 715 717 719
f 719 721 723
f 723 725 727
f 727 729 731
f 731 733 735
f 735 737 739
f 739 741 743
f 745 743 746
f 1042 748 750
f 750 752 754
f 754 756 758
f 758 760 762
f 762 764 766
f 766 768 770
f 770 772 774
f 774 776 778
f 778 780 782
f 782 784 786
f 786 788 790
f 790 792 794
f 794 796 798
f 798 800 802
f 805 807 809
f 809 811 813
f 813 815 817
f 817 819 821
f 821 823 825
f 825 827 829
f 829 831 833
f 833 835 837
f 837 839 841
f 841 843 845
f 845 847 849
f 849 851 853
f 853 855 857
f 859 857 860
f 1043 862 864
f 864 866 868
f 868 870 872
f 872 874 876
f 876 878 880
f 880 882 884
f 884 886 888
f 888 890 892
f 892 894 896
f 896 898 900
f 900 902 904
f 904 906 908
f 908 910 912
f 912 914 916
f 919 921 923
f 923 925 927
f 927 929 931
f 931 933 935
f 935 937 939
f 939 941 943
f 943 945 947
f 947 949 951
f 951 953 955
f 955 957 959
f 959 961 963
f 963 965 967
f 967 969 971
f 973 971 974
f 1044 976 978
f 978 980 982
f 982 984 986
f 986 988 990
f 990 992 994
f 994 996 998
f 998 1000 1002
f 1002 1004 1006
f 1006 1008 1010
f 1010 1012 1014
f 1014 1016 1018
f 1018 1020 1022
f 1022 1024 1026
f 1026 1028 1030
f 1032 1030 1033
f 1045 1034 3
f 1046 1035 6
f 7 11 15
f 15 19 23
f 23 27 31
f 31 35 39
f 39 43 47
f 47 51 55
f 55 59 62
f 1047 1036 66
f 66 70 74
f 74 78 82
f 82 86 90
f 90 94 98
f 98 102 106
f 106 110 114
f 114 118 120
f 121 125 129
f 129 133 137
f 137 141 145
f 145 149 153
f 153 157 161
f 161 165 169
f 169 173 176
f 1048 1037 180
f 180 184 188
f 188 192 196
f 196 200 204
f 204 208 212
f 212 216 220
f 220 224 228
f 228 232 234
f 235 239 243
f 243 247 251
f 251 255 259
f 259 263 267
f 267 271 275
f 275 279 283
f 283 287 290
f 1049 1038 294
f 294 298 302
f 302 306 310
f 310 314 318
f 318 322 326
f 326 330 334
f 334 338 342
f 342 346 348
f 349 353 357
f 357 361 365
f 365 369 373
f 373 377 381
f 381 385 389
f 389 393 397
f 397 401 404
f 1050 1039 408
f 408 412 416
f 416 420 424
f 424 428 432
f 432 436 440
f 440 444 448
f 448 452 456
f 456 460 462
f 463 467 471
f 471 475 479
f 479 483 487
f 487 491 495
f 495 499 503
f 503 507 511
f 511 515 518
f 1051 1040 522
f 522 526 530
f 530 534 538
f 538 542 546
f 546 550 554
f 554 558 562
f 562 566 570
f 570 574 576
f 577 581 585
f 585 589 593
f 593 597 601
f 601 605 609
f 609 613 617
f 617 621 625
f 625 629 632
f 1052 1041 636
f 636 640 644
f 644 648 652
f 652 656 660
f 660 664 668
f 668 672 676
f 676 680 684
f 684 688 690
f 691 695 699
f 699 703 707
f 707 711 715
f 715 719 723
f 723 727 731
f 731 735 739
f 739 743 746
f 1053 1042 750
f 750 754 758
f 758 762 766
f 766 770 774
f 774 778 782
f 782 786 790
f 790 794 798
f 798 802 804
f 805 809 813
f 813 817 821
f 821 825 829
f 829 833 837
f 837 841 845
f 845 849 853
f 853 857 860
f 1054 1043 864
f 864 868 872
f 872 876 880
f 880 884 888
f 888 892 896
f 896 900 904
f 904 908 912
f 912 916 918
f 919 923 927
f 927 931 935
f 935 939 943
f 943 947 951
f 951 955 959
f 959 963 967
f 967 971 974
f 1055 1044 978
f 978 982 986
f 986 990 994
f 994 998 1002
f 1002 1006 1010
f 1010 1014 1018
f 1018 1022 1026
f 1026 1030 1033
f 1056 1045 3
f 1057 1046 6
f 7 15 23
f 23 31 39
f 39 47 55
f 55 62 1058
f 1059 1047 66
f 66 74 82
f 82 90 98
f 98 106 114
f 121 129 137
f 137 145 153
f 153 161 169
f 169 176 1060
f 1061 1048 180
f 180 188 196
f 196 204 212
f 212 220 228
f 235 243 251
f 251 259 267
f 267 275 283
f 283 290 1062
f 1063 1049 294
f 294 302 310
f 310 318 326
f 326 334 342
f 349 357 365
f 365 373 381
f 381 389 397
f 397 404 1064
f 1065 1050 408
f 408 416 424
f 424 432 440
f 440 448 456
f 463 471 479
f 479 487 495
f 495 503 511
f 511 518 1066
f 1067 1051 522
f 522 530 538
f 538 546 554
f 554 562 570
f 577 585 593
f 593 601 609
f 609 617 625
f 625 632 1068
f 1069 1052 636
f 636 644 652
f 652 660 668
f 668 676 684
f 691 699 707
f 707 715 723
f 723 731 739
f 739 746 1070
f 1071 1053 750
f 750 758 766
f 766 774 782
f 782 790 798
f 805 813 821
f 821 829 837
f 837 845 853
f 853 860 1072
f 1073 1054 864
f 864 872 880
f 880 888 896
f 896 904 912
f 919 927 935
f 935 943 951
f 951 959 967
f 967 974 1074
f 1075 1055 978
f 978 986 994
f 994 1002 1010
f 1010 1018 1026
f 1076 1056 3
f 1077 1057 6
f 7 23 39
f 39 55 1058
f 1078 1059 66
f 66 82 98
f 98 114 120
f 121 137 153
f 153 169 1060
f 1079 1061 180
f 180 196 212
f 212 228 234
f 235 251 267
f 267 283 1062
f 1080 1063 294
f 294 310 326
f 326 342 348
f 349 365 381
f 381 397 1064
f 1081 1065 408
f 408 424 440
f 440 456 462
f 463 479 495
f 495 511 1066
f 1082 1067 522
f 522 538 554
f 554 570 576
f 577 593 609
f 609 625 1068
f 1083 1069 636
f 636 652 668
f 668 684 690
f 691 707 723
f 723 739 1070
f 1084 1071 750
f 750 766 782
f 782 798 804
f 805 821 837
f 837 853 1072
f 1085 1073 864
f 864 880 896
f 896 912 918
f 919 935 951
f 951 967 1074
f 1086 1075 978
f 978 994 1010
f 1010 1026 1033
f 1087 1076 3
f 1088 1077 6
f 7 39 1058
f 1089 1078 66
f 66 98 120
f 121 153 1060
f 1090 1079 180
f 180 212 234
f 235 267 1062
f 1091 1080 294
f 294 326 348
f 349 381 1064
f 1092 1081 408
f 408 440 462
f 463 495 1066
f 1093 1082 522
f 522 554 576
f 577 609 1068
f 1094 1083 636
f 636 668 690
f 691 723 1070
f 1095 1084 750
f 750 782 804
f 805 837 1072
f 1096 1085 864
f 864 896 918
f 919 951 1074
f 1097 1086 978
f 978 1010 1033
f 1098 1087 3
f 1099 1088 6
f 7 1058 1100
f 1101 1089 66
f 121 1060 1102
f 1103 1090 180
f 235 1062 1104
f 1105 1091 294
f 349 1064 1106
f 1107 1092 408
f 463 1066 1108
f 1109 1093 522
f 577 1068 1110
f 1111 1094 636
f 691 1070 1112
f 1113 1095 750
f 805 1072 1114
f 1115 1096 864
f 919 1074 1116
f 1117 1097 978
f 1118 1098 3
f 1119 1099 6
f 7 1100 1120
f 1121 1101 66
f 121 1102 1122
f 1123 1103 180
f 235 1104 1124
f 1125 1105 294
f 349 1106 1126
f 1127 1107 408
f 463 1108 1128
f 1129 1109 522
f 577 1110 1130
f 1131 1111 636
f 691 1112 1132
f 1133 1113 750
f 805 1114 1134
f 1135 1115 864
f 919 1116 1136
f 1137 1117 978
f 1138 1118 3
f 1139 1119 6
f 7 1120 1140
f 1141 1121 66
f 121 1122 1142
f 1143 1123 180
f 235 1124 1144
f 1145 1125 294
f 349 1126 1146
f 1147 1127 408
f 463 1128 1148
f 1149 1129 522
f 577 1130 1150
f 1151 1131 636
f 691 1132 1152
f 1153 1133 750
f 805 1134 1154
f 1155 1135 864
f 919 1136 1156
f 1157 1137 978
f 1158 1138 3
f 1159 1139 6
f 7 1140 1160
f 1161 1141 66
f 121 1142 1162
f 1163 1143 180
f 235 1144 1164
f 1165 1145 294
f 349 1146 1166
f 1167 1147 408
f 463 1148 1168
f 1169 1149 522
f 577 1150 1170
f 1171 1151 636
f 691 1152 1172
f 1173 1153 750
f 805 1154 1174
f 1175 1155 864
f 919 1156 1176
f 1177 1157 978
f 1178 1158 3
f 1179 1159 6
f 7 1160 1180
f 1181 1161 66
f 121 1162 1182
f 1183 1163 180
f 235 1164 1184
f 1185 1165 294
f 349 1166 1186
f 1187 1167 408
f 463 1168 1188
f 1189 1169 522
f 577 1170 1190
f 1191 1171 636
f 691 1172 1192
f 1193 1173 750
f 805 1174 1194
f 1195 1175 864
f 919 1176 1196
f 1197 1177 978
f 1198 1178 3
f 1199 1179 6
f 7 1180 1200
f 1201 1181 66
f 121 1182 1202
f 1203 1183 180
f 235 1184 1204
f 1205 1185 294
f 349 1186 1206
f 1207 1187 408
f 463 1188 1208
f 1209 1189 522
f 577 1190 1210
f 1211 1191 636
f 691 1192 1212
f 1213 1193 750
f 805 1194 1214
f 1215 1195 864
f 919 1196 1216
f 1217 1197 978
f 1218 1198 3
f 1219 1199 6
f 7 1200 1220
f 1221 1201 66
f 121 1202 1222
f 1223 1203 180
f 235 1204 1224
f 1225 1205 294
f 349 1206 1226
f 1227 1207 408
f 463 1208 1228
f 1229 1209 522
f 577 1210 1230
f 1231 1211 636
f 691 1212 1232
f 1233 1213 750
f 805 1214 1234
f 1235 1215 864
f 919 1216 1236
f 1237 1217 978
f 1238 1218 3
f 1239 1219 6
f 7 1220 1240
f 1241 1221 66
f 121 1222 1242
f 1243 1223 180
f 235 1224 1244
f 1245 1225 294
f 349 1226 1246
f 1247 1227 408
f 463 1228 1248
f 1249 1229 522
f 577 1230 1250
f 1251 1231 636
f 691 1232 1252
f 1253 1233 750
f 805 1234 1254
f 1255 1235 864
f 919 1236 1256
f 1257 1237 978
f 1258 1238 3
f 1259 1239 6
f 7 1240 1260
f 1261 1241 66
f 121 1242 1262
f 1263 1243 180
f 235 1244 1264
f 1265 1245 294
f 349 1246 1266
f 1267 1247 408
f 463 1248 1268
f 1269 1249 522
f 577 1250 1270
f 1271 1251 636
f 691 1252 1272
f 1273 1253 750
f 805 1254 1274
f 1275 1255 864
f 919 1256 1276
f 1277 1257 978
f 1278 1258 3
f 1279 1259 6
f 7 1260 1280
f 1281 1261 66
f 121 1262 1282
f 1283 1263 180
f 235 1264 1284
f 1285 1265 294
f 349 1266 1286
f 1287 1267 408
f 463 1268 1288
f 1289 1269 522
f 577 1270 1290
f 1291 1271 636
f 691 1272 1292
f 1293 1273 750
f 805 1274 1294
f 1295 1275 864
f 919 1276 1296
f 1297 1277 978
f 1298 1278 3
f 1299 1279 6
f 7 1280 1300
f 1301 1281 66
f 121 1282 1302
f 1303 1283 180
f 235 1284 1304
f 1305 1285 294
f 349 1286 1306
f 1307 1287 408
f 463 1288 1308
f 1309 1289 522
f 577 1290 1310
f 1311 1291 636
f 691 1292 1312
f 1313 1293 750
f 805 1294 1314
f 1315 1295 864
f 919 1296 1316
f 1317 1297 978
f 1318 1298 3
f 1319 1299 6
f 7 1300 1301
f 1301 66 120
f 121 1302 1303
f 1303 180 234
f 235 1304 1305
f 1305 294 348
f 349 1306 1307
f 1307 408 462
f 463 1308 1309
f 1309 522 576
f 577 1310 1311
f 1311 636 690
f 691 1312 1313
f 1313 750 804
f 805 1314 1315
f 1315 864 918
f 919 1316 1317
f 1317 978 1033
f 1320 1318 3
f 1321 1319 6
f 7 1301 120
f 121 1303 234
f 235 1305 348
f 349 1307 462
f 463 1309 576
f 577 1311 690
f 691 1313 804
f 805 1315 918
f 919 1317 1033
f 1322 1320 3
f 1323 1321 6
f 1324 7 120
f 1325 121 234
f 1326 235 348
f 1327 349 462
f 1328 463 576
f 1329 577 690
f 1330 691 804
f 1331 805 918
f 1332 919 1033
f 1333 1322 3
f 1334 1323 6
f 1335 1324 120
f 1336 1325 234
f 1337 1326 348
f 1338 1327 462
f 1339 1328 576
f 1340 1329 690
f 1341 1330 804
f 1342 1331 918
f 1343 1332 1033
f 1344 1333 3
f 1345 1334 6
f 1346 1335 120
f 1347 1336 234
f 1348 1337 348
f 1349 1338 462
f 1350 1339 576
f 1351 1340 690
f 1352 1341 804
f 1353 1342 918
f 1354 1343 1033
f 1355 1344 3
f 1356 1345 6
f 1357 1346 120
f 1358 1347 234
f 1359 1348 348
f 1360 1349 462
f 1361 1350 576
f 1362 1351 690
f 1363 1352 804
f 1364 1353 918
f 1365 1354 1033
f 1366 1355 3
f 1367 1356 6
f 1368 1357 120
f 1369 1358 234
f 1370 1359 348
f 1371 1360 462
f 1372 1361 576
f 1373 1362 690
f 1374 1363 804
f 1375 1364 918
f 1376 1365 1033
f 1377 1366 3
f 1378 1367 6
f 1379 1368 120
f 1380 1369 234
f 1381 1370 348
f 1382 1371 462
f 1383 1372 576
f 1384 1373 690
f 1385 1374 804
f 1386 1375 918
f 1387 1376 1033
f 1388 1377 3
f 1389 1378 6
f 1390 1379 120
f 1391 1380 234
f 1392 1381 348
f 1393 1382 462
f 1394 1383 576
f 1395 1384 690
f 1396 1385 804
f 1397 1386 918
f 1398 1387 1033
f 1399 1388 3
f 1400 1389 6
f 1401 1390 120
f 1402 1391 234
f 1403 1392 348
f 1404 1393 462
f 1405 1394 576
f 1406 1395 690
f 1407 1396 804
f 1408 1397 918
f 1409 1398 1033
f 1410 1399 3
f 1411 1400 6
f 1412 1401 120
f 1413 1402 234
f 1414 1403 348
f 1415 1404 462
f 1416 1405 576
f 1417 1406 690
f 1418 1407 804
f 1419 1408 918
f 1420 1409 1033
f 1421 1410 3
f 1422 1411 6
f 1423 1412 120
f 1424 1413 234
f 1425 1414 348
f 1426 1415 462
f 1427 1416 576
f 1428 1417 690
f 1429 1418 804
f 1430 1419 918
f 1431 1420 1033
f 1432 1421 3
f 1433 1422 6
f 1434 1423 120
f 1435 1424 234
f 1436 1425 348
f 1437 1426 462
f 1438 1427 576
f 1439 1428 690
f 1440 1429 804
f 1441 1430 918
f 1442 1431 1033
f 1443 1432 3
f 3 1433 6
f 1444 1434 120
f 1445 1435 234
f 1446 1436 348
f 1447 1437 462
f 1448 1438 576
f 1449 1439 690
f 1450 1440 804
f 1451 1441 918
f 1452 1442 1033
f 1453 1443 3
f 3 6 1454
f 1455 1444 120
f 1456 1445 234
f 1457 1446 348
f 1458 1447 462
f 1459 1448 576
f 1460 1449 690
f 1461 1450 804
f 1462 1451 918
f 1463 1452 1033
f 1464 1453 3
f 3 1454 1465
f 1466 1455 120
f 1467 1456 234
f 1468 1457 348
f 1469 1458 462
f 1470 1459 576
f 1471 1460 690
f 1472 1461 804
f 1473 1462 918
f 1474 1463 1033
f 1475 1464 3
f 3 1465 1476
f 1477 1466 120
f 1478 1467 234
f 1479 1468 348
f 1480 1469 462
f 1481 1470 576
f 1482 1471 690
f 1483 1472 804
f 1484 1473 918
f 1485 1474 1033
f 1486 1475 3
f 3 1476 1487
f 1488 1477 120
f 1489 1478 234
f 1490 1479 348
f 1491 1480 462
f 1492 1481 576
f 1493 1482 690
f 1494 1483 804
f 1495 1484 918
f 1496 1485 1033
f 1497 1486 3
f 3 1487 1498
f 1499 1488 120
f 1500 1489 234
f 1501 1490 348
f 1502 1491 462
f 1503 1492 576
f 1504 1493 690
f 1505 1494 804
f 1506 1495 918
f 1507 1496 1033
f 1508 1497 3
f 3 1498 1509
f 1510 1499 120
f 1511 1500 234
f 1512 1501 348
f 1513 1502 462
f 1514 1503 576
f 1515 1504 690
f 1516 1505 804
f 1517 1506 918
f 1518 1507 1033
f 1519 1508 3
f 3 1509 1520
f 1521 1510 120
f 1522 1511 234
f 1523 1512 348
f 1524 1513 462
f 1525 1514 576
f 1526 1515 690
f 1527 1516 804
f 1528 1517 918
f 1529 1518 1033
f 1530 1519 3
f 3 1520 1531
f 1532 1521 120
f 1533 1522 234
f 1534 1523 348
f 1535 1524 462
f 1536 1525 576
f 1537 1526 690
f 1538 1527 804
f 1539 1528 918
f 1540 1529 1033
f 1541 1530 3
f 3 1531 1542
f 1543 1532 120
f 1544 1533 234
f 1545 1534 348
f 1546 1535 462
f 1547 1536 576
f 1548 1537 690
f 1549 1538 804
f 1550 1539 918
f 1551 1540 1033
f 1552 1541 3
f 3 1542 1553
f 1554 1543 120
f 1555 1544 234
f 1556 1545 348
f 1557 1546 462
f 1558 1547 576
f 1559 1548 690
f 1560 1549 804
f 1561 1550 918
f 1562 1551 1033
f 1563 1552 3
f 3 1553 1564
f 1565 1554 120
f 1566 1555 234
f 1567 1556 348
f 1568 1557 462
f 1569 1558 576
f 1570 1559 690
f 1571 1560 804
f 1572 1561 918
f 1573 1562 1033
f 1574 1563 3
f 3 1564 1575
f 1576 1565 120
f 1577 1566 234
f 1578 1567 348
f 1579 1568 462
f 1580 1569 576
f 1581 1570 690
f 1582 1571 804
f 1583 1572 918
f 1584 1573 1033
f 1585 1574 3
f 3 1575 1586
f 1587 1576 120
f 1588 1577 234
f 1589 1578 348
f 1590 1579 462
f 1591 1580 576
f 1592 1581 690
f 1593 1582 804
f 1594 1583 918
f 1595 1584 1033
f 1596 1585 3
f 3 1586 1597
f 1598 1587 120
f 1588 234 1599
f 1589 348 1600
f 1590 462 1601
f 1591 576 1602
f 1592 690 1603
f 1593 804 1604
f 1594 918 1605
f 1606 1595 1033
f 1607 1596 3
f 3 1597 1608
f 1609 1598 120
f 1588 1599 1610
f 1589 1600 1611
f 1590 1601 1612
f 1591 1602 1613
f 1592 1603 1614
f 1593 1604 1615
f 1594 1605 1616
f 1617 1606 1033
f 1618 1607 3
f 3 1608 1619
f 1620 1609 120
f 1588 1610 1621
f 1589 1611 1622
f 1590 1612 1623
f 1591 1613 1624
f 1592 1614 1625
f 1593 1615 1626
f 1594 1616 1627
f 1628 1618 3
f 3 1619 1629
f 1630 1620 120
f 1588 1621 1631
f 1589 1622 1632
f 1590 1623 1633
f 1591 1624 1634
f 1592 1625 1635
f 1593 1626 1636
f 1594 1627 1637
f 1638 1033 1639
f 1640 1628 3
f 3 1629 1641
f 1642 1630 120
f 1588 1631 1643
f 1589 1632 1644
f 1590 1633 1645
f 1591 1634 1646
f 1592 1635 1647
f 1593 1636 1648
f 1594 1637 1649
f 1650 1638 1639
f 1651 1640 3
f 3 1641 1652
f 1653 1642 120
f 1654 1588 1643
f 1655 1589 1644
f 1656 1590 1645
f 1657 1591 1646
f 1658 1592 1647
f 1659 1593 1648
f 1660 1594 1649
f 1661 1650 1639
f 1662 1651 3
f 3 1652 1663
f 1664 1653 120
f 1654 1643 1665
f 1655 1644 1666
f 1656 1645 1667
f 1657 1646 1668
f 1658 1647 1669
f 1659 1648 1670
f 1660 1649 1671
f 1672 1661 1639
f 1673 1662 3
f 3 1663 1674
f 1675 1664 120
f 1654 1665 1676
f 1655 1666 1677
f 1656 1667 1678
f 1657 1668 1679
f 1658 1669 1680
f 1659 1670 1681
f 1660 1671 1682
f 1683 1672 1639
f 1684 1673 3
f 3 1674 1675
f 1675 120 1685
f 1654 1676 1686
f 1655 1677 1687
f 1656 1678 1688
f 1657 1679 1689
f 1658 1680 1690
f 1659 1681 1691
f 1660 1682 1692
f 1693 1683 1639
f 1694 1684 3
f 1675 1685 1695
f 1654 1686 1696
f 1655 1687 1697
f 1656 1688 1698
f 1657 1689 1699
f 1658 1690 1700
f 1659 1691 1701
f 1660 1692 1702
f 1703 1693 1639
f 1675 1695 1704
f 1654 1696 1705
f 1655 1697 1706
f 1656 1698 1707
f 1657 1699 1708
f 1658 1700 1709
f 1659 1701 1710
f 1660 1702 1711
f 1712 1703 1639
f 1675 1704 1713
f 1654 1705 1714
f 1655 1706 1715
f 1656 1707 1716
f 1657 1708 1717
f 1658 1709 1718
f 1659 1710 1719
f 1660 1711 1720
f 1721 1712 1639
f 1675 1713 1722
f 1723 1654 1714
f 1724 1655 1715
f 1725 1656 1716
f 1726 1657 1717
f 1727 1658 1718
f 1728 1659 1719
f 1729 1721 1639
f 1675 1722 1730
f 1723 1714 1731
f 1724 1715 1732
f 1725 1716 1733
f 1726 1717 1734
f 1727 1718 1735
f 1728 1719 1736
f 1737 1720 1738
f 1739 1729 1639
f 1675 1730 1740
f 1723 1731 1741
f 1724 1732 1742
f 1725 1733 1743
f 1726 1734 1744
f 1727 1735 1745
f 1728 1736 1746
f 1737 1738 1747
f 1748 1739 1639
f 1675 1740 1749
f 1723 1741 1750
f 1724 1742 1751
f 1725 1743 1752
f 1726 1744 1753
f 1727 1745 1754
f 1728 1746 1755
f 1737 1747 1756
f 1757 1748 1639
f 1675 1749 1758
f 1723 1750 1759
f 1724 1751 1760
f 1725 1752 1761
f 1726 1753 1762
f 1727 1754 1763
f 1728 1755 1764
f 1737 1756 1757
f 1675 1758 1765
f 1723 1759 1766
f 1724 1760 1767
f 1725 1761 1768
f 1726 1762 1769
f 1727 1763 1770
f 1728 1764 1771
f 1737 1757 1639
f 1675 1765 1772
f 1723 1766 1773
f 1724 1767 1774
f 1725 1768 1775
f 1726 1769 1776
f 1727 1770 1777
f 1728 1771 1778
f 1675 1772 1779
f 1723 1773 1780
f 1724 1774 1781
f 1725 1775 1782
f 1726 1776 1783
f 1727 1777 1784
f 1728 1778 1785
f 1786 1639 1787
f 1675 1779 1788
f 1723 1780 1789
f 1724 1781 1790
f 1725 1782 1791
f 1726 1783 1792
f 1727 1784 1793
f 1728 1785 1794
f 1795 1786 1787
f 1675 1788 1796
f 1723 1789 1797
f 1724 1790 1798
f 1725 1791 1799
f 1726 1792 1800
f 1727 1793 1801
f 1728 1794 1802
f 1803 1795 1787
f 1675 1796 1804
f 1723 1797 1805
f 1724 1798 1806
f 1725 1799 1807
f 1726 1800 1808
f 1727 1801 1809
f 1728 1802 1810
f 1811 1803 1787
f 1675 1804 1812
f 1723 1805 1813
f 1724 1806 1814
f 1725 1807 1815
f 1726 1808 1816
f 1727 1809 1817
f 1728 1810 1818
f 1819 1811 1787
f 1675 1812 1820
f 1723 1813 1821
f 1724 1814 1822
f 1725 1815 1823
f 1726 1816 1824
f 1727 1817 1825
f 1728 1818 1819
f 1675 1820 1826
f 1723 1821 1827
f 1724 1822 1828
f 1725 1823 1829
f 1726 1824 1830
f 1727 1825 1831
f 1728 1819 1787
f 1675 1826 1832
f 1723 1827 1833
f 1724 1828 1834
f 1725 1829 1835
f 1726 1830 1836
f 1727 1831 1837
f 1838 1728 1787
f 1675 1832 1839
f 1723 1833 1840
f 1724 1834 1841
f 1725 1835 1842
f 1726 1836 1843
f 1727 1837 1844
f 1838 1787 1845
f 1675 1839 1846
f 1723 1840 1847
f 1724 1841 1848
f 1725 1842 1849
f 1726 1843 1850
f 1727 1844 1838
f 1838 1845 1851
f 1675 1846 1852
f 1853 1723 1847
f 1847 1724 1848
f 1848 1725 1849
f 1849 1726 1850
f 1850 1727 1838
f 1838 1851 1854
f 1675 1852 1855
f 1850 1838 1854
f 1675 1855 1856
f 1849 1850 1854
f 1675 1856 1857
f 1848 1849 1854
f 3 1675 1857
f 1847 1848 1854
f 3 1857 1858
f 1853 1847 1854
f 1854 1694 3
f 3 1858 1853
