v -2.638334 -0.350000 -6.371560
v -2.640826 -0.350000 -6.355289
v -2.644952 -0.350000 -6.339353
v -2.650669 -0.350000 -6.323917
v -2.657919 -0.350000 -6.309138
v -2.666626 -0.350000 -6.295169
v -2.676702 -0.350000 -6.282152
v -2.688043 -0.350000 -6.270221
v -2.700533 -0.350000 -6.259499
v -2.714043 -0.350000 -6.250095
v -2.728436 -0.350000 -6.242107
v -2.743563 -0.350000 -6.235615
v -2.759269 -0.350000 -6.230687
v -2.775393 -0.350000 -6.227374
v -2.791770 -0.350000 -6.225709
v -2.808230 -0.350000 -6.225709
v -2.824607 -0.350000 -6.227374
v -2.840731 -0.350000 -6.230687
v -2.856437 -0.350000 -6.235615
v -2.871564 -0.350000 -6.242107
v -2.885957 -0.350000 -6.250095
v -2.899467 -0.350000 -6.259499
v -2.911957 -0.350000 -6.270221
v -2.923298 -0.350000 -6.282152
v -2.933374 -0.350000 -6.295169
v -2.942081 -0.350000 -6.309138
v -2.949331 -0.350000 -6.323917
v -2.955048 -0.350000 -6.339353
v -2.959174 -0.350000 -6.355289
v -2.961666 -0.350000 -6.371560
v -2.962500 -0.350000 -6.388000
v -2.962500 -0.350000 -6.509085
v -2.637500 -0.350000 -6.509085
v -2.637500 -0.350000 -6.388000
v -2.695539 -0.350000 -6.398623
v -2.697149 -0.350000 -6.409136
v -2.699815 -0.350000 -6.419433
v -2.703509 -0.350000 -6.429407
v -2.708194 -0.350000 -6.438957
v -2.713820 -0.350000 -6.447983
v -2.720330 -0.350000 -6.456394
v -2.727658 -0.350000 -6.464103
v -2.735729 -0.350000 -6.471031
v -2.744459 -0.350000 -6.477108
v -2.753759 -0.350000 -6.482269
v -2.763533 -0.350000 -6.486464
v -2.773681 -0.350000 -6.489648
v -2.784100 -0.350000 -6.491789
v -2.794682 -0.350000 -6.492865
v -2.805318 -0.350000 -6.492865
v -2.815900 -0.350000 -6.491789
v -2.826319 -0.350000 -6.489648
v -2.836467 -0.350000 -6.486464
v -2.846241 -0.350000 -6.482269
v -2.855541 -0.350000 -6.477108
v -2.864271 -0.350000 -6.471031
v -2.872342 -0.350000 -6.464103
v -2.879670 -0.350000 -6.456394
v -2.886180 -0.350000 -6.447983
v -2.891806 -0.350000 -6.438957
v -2.896491 -0.350000 -6.429407
v -2.900185 -0.350000 -6.419433
v -2.902851 -0.350000 -6.409136
v -2.904461 -0.350000 -6.398623
v -2.905000 -0.350000 -6.388000
v -2.904461 -0.350000 -6.377377
v -2.902851 -0.350000 -6.366864
v -2.900185 -0.350000 -6.356567
v -2.896491 -0.350000 -6.346593
v -2.891806 -0.350000 -6.337043
v -2.886180 -0.350000 -6.328017
v -2.879670 -0.350000 -6.319606
v -2.872342 -0.350000 -6.311897
v -2.864271 -0.350000 -6.304969
v -2.855541 -0.350000 -6.298892
v -2.846241 -0.350000 -6.293731
v -2.836467 -0.350000 -6.289536
v -2.826319 -0.350000 -6.286352
v -2.815900 -0.350000 -6.284211
v -2.805318 -0.350000 -6.283135
v -2.794682 -0.350000 -6.283135
v -2.784100 -0.350000 -6.284211
v -2.773681 -0.350000 -6.286352
v -2.763533 -0.350000 -6.289536
v -2.753759 -0.350000 -6.293731
v -2.744459 -0.350000 -6.298892
v -2.735729 -0.350000 -6.304969
v -2.727658 -0.350000 -6.311897
v -2.720330 -0.350000 -6.319606
v -2.713820 -0.350000 -6.328017
v -2.708194 -0.350000 -6.337043
v -2.703509 -0.350000 -6.346593
v -2.699815 -0.350000 -6.356567
v -2.697149 -0.350000 -6.366864
v -2.695539 -0.350000 -6.377377
v -2.695000 -0.350000 -6.388000
f 34 2 1
f 2 4 3
f 4 6 5
f 6 8 7
f 8 10 9
f 10 12 11
f 12 14 13
f 14 16 15
f 16 18 17
f 18 20 19
f 20 22 21
f 22 24 23
f 24 26 25
f 26 28 27
f 28 30 29
f 30 65 31
f 64 31 65
f 33 2 34
f 2 6 4
f 6 10 8
f 10 14 12
f 14 18 16
f 18 22 20
f 22 26 24
f 26 30 28
f 30 66 65
f 63 31 64
f 33 6 2
f 6 14 10
f 14 22 18
f 22 30 26
f 30 67 66
f 62 31 63
f 6 22 14
f 22 67 30
f 61 31 62
f 22 68 67
f 60 31 61
f 22 69 68
f 59 31 60
f 22 70 69
f 58 31 59
f 22 71 70
f 57 31 58
f 22 72 71
f 56 31 57
f 22 73 72
f 56 32 31
f 22 74 73
f 55 32 56
f 22 75 74
f 54 32 55
f 22 76 75
f 53 32 54
f 22 77 76
f 52 32 53
f 22 78 77
f 51 32 52
f 22 79 78
f 50 32 51
f 22 80 79
f 49 32 50
f 22 81 80
f 49 33 32
f 6 81 22
f 48 33 49
f 6 82 81
f 47 33 48
f 6 83 82
f 46 33 47
f 6 84 83
f 45 33 46
f 6 85 84
f 44 33 45
f 6 86 85
f 43 33 44
f 6 87 86
f 42 33 43
f 6 88 87
f 41 33 42
f 6 89 88
f 40 33 41
f 6 90 89
f 39 33 40
f 6 91 90
f 38 33 39
f 6 92 91
f 37 33 38
f 33 92 6
f 36 33 37
f 33 93 92
f 35 33 36
f 33 94 93
f 96 33 35
f 33 95 94
f 95 33 96
