v 1.155000 -0.804753 -6.548942
v 1.176969 -0.806417 -6.543664
v 1.198804 -0.808202 -6.538002
v 1.220510 -0.810110 -6.531951
v 1.242090 -0.812141 -6.525510
v 1.263549 -0.814296 -6.518674
v 1.284891 -0.816577 -6.511442
v 1.306120 -0.818983 -6.503810
v 1.327241 -0.821517 -6.495775
v 1.348257 -0.824178 -6.487334
v 1.369172 -0.826968 -6.478485
v 1.389976 -0.829886 -6.469231
v 1.410655 -0.832930 -6.459574
v 1.431195 -0.836100 -6.449521
v 1.451583 -0.839394 -6.439074
v 1.471804 -0.842811 -6.428237
v 1.491845 -0.846349 -6.417015
v 1.511691 -0.850008 -6.405412
v 1.531329 -0.853785 -6.393432
v 1.550745 -0.857680 -6.381079
v 1.569930 -0.861691 -6.368358
v 1.588878 -0.865816 -6.355274
v 1.607581 -0.870055 -6.341831
v 1.626033 -0.874404 -6.328035
v 1.644228 -0.878864 -6.313891
v 1.662159 -0.883432 -6.299404
v 1.679820 -0.888107 -6.284578
v 1.697204 -0.892886 -6.269419
v 1.714305 -0.897769 -6.253932
v 1.731116 -0.902755 -6.238120
v 1.747633 -0.907842 -6.221985
v 1.763850 -0.913030 -6.205530
v 1.779762 -0.918319 -6.188756
v 1.795364 -0.923708 -6.171665
v 1.810650 -0.929195 -6.154261
v 1.825615 -0.934782 -6.136544
v 1.840253 -0.940466 -6.118517
v 1.854560 -0.946247 -6.100181
v 1.868528 -0.952122 -6.081547
v 1.882147 -0.958086 -6.062632
v 1.895405 -0.964132 -6.043456
v 1.908292 -0.970254 -6.024039
v 1.920797 -0.976446 -6.004402
v 1.932910 -0.982701 -5.984564
v 1.944618 -0.989013 -5.964544
v 1.955912 -0.995376 -5.944362
v 1.966780 -1.001784 -5.924039
v 1.977217 -1.008233 -5.903587
v 1.987225 -1.014723 -5.883002
v 1.996810 -1.021257 -5.862279
v 2.005976 -1.027837 -5.841411
v 2.014730 -1.034464 -5.820392
v 2.023076 -1.041140 -5.799217
v 2.031020 -1.047869 -5.777878
v 2.038566 -1.054650 -5.756369
v 2.045720 -1.061487 -5.734686
v -2.425000 -1.061487 -5.734686
v -2.413892 -1.051234 -5.767203
v -2.403196 -1.041104 -5.799331
v -2.392822 -1.031103 -5.831052
v -2.382685 -1.021236 -5.862345
v -2.372695 -1.011510 -5.893192
v -2.362766 -1.001931 -5.923573
v -2.352814 -0.992505 -5.953468
v -2.342778 -0.983243 -5.982843
v -2.332608 -0.974157 -6.011661
v -2.322251 -0.965258 -6.039885
v -2.311655 -0.956558 -6.067478
v -2.300768 -0.948068 -6.094403
v -2.289543 -0.939801 -6.120624
v -2.277961 -0.931762 -6.146119
v -2.266017 -0.923958 -6.170870
v -2.253709 -0.916394 -6.194861
v -2.241030 -0.909076 -6.218073
v -2.227979 -0.902007 -6.240490
v -2.214551 -0.895195 -6.262096
v -2.200763 -0.888640 -6.282886
v -2.186644 -0.882341 -6.302863
v -2.172223 -0.876298 -6.322029
v -2.157529 -0.870510 -6.340388
v -2.142590 -0.864975 -6.357941
v -2.127435 -0.859694 -6.374691
v -2.112091 -0.854663 -6.390647
v -2.096583 -0.849879 -6.405820
v -2.080938 -0.845339 -6.420220
v -2.065180 -0.841038 -6.433860
v -2.049335 -0.836974 -6.446750
v -2.033428 -0.833142 -6.458903
v -2.017468 -0.829537 -6.470336
v -2.001444 -0.826152 -6.481072
v -1.985345 -0.822979 -6.491136
v -1.969160 -0.820010 -6.500552
v -1.952878 -0.817238 -6.509344
v -1.936487 -0.814655 -6.517536
v -1.919958 -0.812253 -6.525154
v -1.903233 -0.810024 -6.532223
v -1.886252 -0.807961 -6.538768
v -1.868956 -0.806053 -6.544817
v -1.851285 -0.804295 -6.550395
v -1.833179 -0.802677 -6.555527
v -1.814595 -0.801194 -6.560229
v -1.795520 -0.799850 -6.564492
v -1.775947 -0.798648 -6.568304
v -1.755870 -0.797592 -6.571655
v -1.735281 -0.796684 -6.574532
v -1.714173 -0.795930 -6.576925
v -1.692540 -0.795331 -6.578824
v -1.670385 -0.794889 -6.580226
v -1.647709 -0.794605 -6.581128
v -1.624516 -0.794478 -6.581530
v -1.600809 -0.794510 -6.581430
v -1.576589 -0.794700 -6.580824
v 0.305000 -0.794700 -6.580824
v 0.305000 -0.808203 -6.538000
v 0.304964 -0.809032 -6.535371
v 0.304856 -0.809839 -6.532809
v 0.304678 -0.810626 -6.530315
v 0.304432 -0.811392 -6.527885
v 0.304119 -0.812138 -6.525519
v 0.303743 -0.812865 -6.523214
v 0.303303 -0.813573 -6.520969
v 0.302803 -0.814262 -6.518782
v 0.302243 -0.814934 -6.516652
v 0.301626 -0.815588 -6.514576
v 0.300953 -0.816226 -6.512554
v 0.300226 -0.816848 -6.510583
v 0.299448 -0.817453 -6.508661
v 0.298619 -0.818044 -6.506788
v 0.297741 -0.818620 -6.504961
v 0.296817 -0.819182 -6.503178
v 0.295847 -0.819731 -6.501438
v 0.294835 -0.820266 -6.499740
v 0.293781 -0.820789 -6.498081
v 0.292687 -0.821300 -6.496460
v 0.291556 -0.821800 -6.494875
v 0.290388 -0.822289 -6.493324
v 0.289186 -0.822768 -6.491807
v 0.287951 -0.823236 -6.490320
v 0.286686 -0.823696 -6.488862
v 0.285392 -0.824147 -6.487433
v 0.284070 -0.824589 -6.486029
v 0.282723 -0.825024 -6.484649
v 0.281350 -0.825451 -6.483295
v 0.279950 -0.825870 -6.481966
v 0.278520 -0.826280 -6.480666
v 0.277058 -0.826681 -6.479396
v 0.275563 -0.827071 -6.478158
v 0.274031 -0.827451 -6.476954
v 0.272462 -0.827819 -6.475786
v 0.270853 -0.828175 -6.474657
v 0.269202 -0.828519 -6.473567
v 0.267508 -0.828849 -6.472519
v 0.265767 -0.829166 -6.471515
v 0.263978 -0.829468 -6.470557
v 0.262139 -0.829755 -6.469646
v 0.260249 -0.830026 -6.468785
v 0.258304 -0.830281 -6.467976
v 0.256302 -0.830520 -6.467221
v 0.254243 -0.830740 -6.466521
v 0.252123 -0.830943 -6.465878
v 0.249942 -0.831127 -6.465295
v 0.247695 -0.831291 -6.464773
v 0.245383 -0.831436 -6.464314
v 0.243002 -0.831560 -6.463921
v 0.240551 -0.831663 -6.463594
v 0.238027 -0.831744 -6.463337
v 0.235428 -0.831803 -6.463151
v 0.232753 -0.831838 -6.463038
v 0.230000 -0.831850 -6.463000
v -0.970000 -0.831850 -6.463000
v -0.973663 -0.831869 -6.462941
v -0.977207 -0.831923 -6.462769
v -0.980636 -0.832012 -6.462487
v -0.983956 -0.832134 -6.462101
v -0.987172 -0.832287 -6.461616
v -0.990289 -0.832469 -6.461037
v -0.993313 -0.832680 -6.460369
v -0.996249 -0.832917 -6.459616
v -0.999101 -0.833179 -6.458784
v -1.001876 -0.833465 -6.457878
v -1.004577 -0.833773 -6.456903
v -1.007211 -0.834101 -6.455863
v -1.009783 -0.834447 -6.454763
v -1.012298 -0.834811 -6.453609
v -1.014759 -0.835191 -6.452404
v -1.017167 -0.835587 -6.451149
v -1.019523 -0.835998 -6.449844
v -1.021827 -0.836426 -6.448489
v -1.024080 -0.836868 -6.447085
v -1.026281 -0.837326 -6.445632
v -1.028432 -0.837800 -6.444131
v -1.030532 -0.838288 -6.442582
v -1.032582 -0.838792 -6.440985
v -1.034583 -0.839310 -6.439340
v -1.036534 -0.839843 -6.437649
v -1.038436 -0.840391 -6.435911
v -1.040291 -0.840954 -6.434128
v -1.042097 -0.841531 -6.432298
v -1.043855 -0.842122 -6.430422
v -1.045564 -0.842728 -6.428501
v -1.047226 -0.843348 -6.426533
v -1.048838 -0.843984 -6.424518
v -1.050401 -0.844634 -6.422457
v -1.051914 -0.845298 -6.420348
v -1.053378 -0.845978 -6.418192
v -1.054792 -0.846673 -6.415988
v -1.056155 -0.847383 -6.413735
v -1.057467 -0.848109 -6.411435
v -1.058728 -0.848849 -6.409086
v -1.059938 -0.849606 -6.406687
v -1.061097 -0.850377 -6.404240
v -1.062203 -0.851165 -6.401743
v -1.063254 -0.851969 -6.399193
v -1.064245 -0.852791 -6.396586
v -1.065173 -0.853632 -6.393918
v -1.066032 -0.854493 -6.391186
v -1.066819 -0.855377 -6.388384
v -1.067530 -0.856283 -6.385510
v -1.068160 -0.857214 -6.382558
v -1.068704 -0.858170 -6.379525
v -1.069159 -0.859153 -6.376407
v -1.069521 -0.860164 -6.373200
v -1.069784 -0.861205 -6.369899
v -1.069945 -0.862277 -6.366500
v -1.070000 -0.863380 -6.363000
v -1.070000 -0.926440 -6.163000
v -1.069945 -0.927544 -6.159500
v -1.069784 -0.928615 -6.156101
v -1.069521 -0.929656 -6.152800
v -1.069159 -0.930667 -6.149593
v -1.068704 -0.931650 -6.146475
v -1.068160 -0.932607 -6.143442
v -1.067530 -0.933537 -6.140490
v -1.066819 -0.934444 -6.137616
v -1.066032 -0.935327 -6.134814
v -1.065173 -0.936188 -6.132082
v -1.064245 -0.937030 -6.129414
v -1.063254 -0.937851 -6.126807
v -1.062203 -0.938655 -6.124257
v -1.061097 -0.939443 -6.121760
v -1.059938 -0.940215 -6.119313
v -1.058728 -0.940971 -6.116914
v -1.057467 -0.941711 -6.114565
v -1.056155 -0.942437 -6.112265
v -1.054792 -0.943147 -6.110012
v -1.053378 -0.943842 -6.107808
v -1.051914 -0.944522 -6.105652
v -1.050401 -0.945187 -6.103543
v -1.048838 -0.945837 -6.101482
v -1.047226 -0.946472 -6.099467
v -1.045564 -0.947092 -6.097499
v -1.043855 -0.947698 -6.095578
v -1.042097 -0.948289 -6.093702
v -1.040291 -0.948866 -6.091872
v -1.038436 -0.949429 -6.090089
v -1.036534 -0.949977 -6.088351
v -1.034583 -0.950510 -6.086660
v -1.032582 -0.951028 -6.085015
v -1.030532 -0.951532 -6.083418
v -1.028432 -0.952020 -6.081869
v -1.026281 -0.952494 -6.080368
v -1.024080 -0.952952 -6.078915
v -1.021827 -0.953394 -6.077511
v -1.019523 -0.953822 -6.076156
v -1.017167 -0.954233 -6.074851
v -1.014759 -0.954629 -6.073596
v -1.012298 -0.955009 -6.072391
v -1.009783 -0.955373 -6.071237
v -1.007211 -0.955719 -6.070137
v -1.004577 -0.956047 -6.069097
v -1.001876 -0.956355 -6.068122
v -0.999101 -0.956641 -6.067216
v -0.996249 -0.956903 -6.066384
v -0.993313 -0.957140 -6.065631
v -0.990289 -0.957351 -6.064963
v -0.987172 -0.957534 -6.064384
v -0.983956 -0.957686 -6.063899
v -0.980636 -0.957808 -6.063513
v -0.977207 -0.957897 -6.063231
v -0.973663 -0.957951 -6.063059
v -0.970000 -0.957970 -6.063000
v 0.855000 -0.957970 -6.063000
v 0.865989 -0.957914 -6.063176
v 0.876620 -0.957751 -6.063694
v 0.886908 -0.957485 -6.064539
v 0.896868 -0.957120 -6.065697
v 0.906516 -0.956661 -6.067151
v 0.915868 -0.956113 -6.068889
v 0.924940 -0.955481 -6.070894
v 0.933746 -0.954769 -6.073151
v 0.942303 -0.953982 -6.075647
v 0.950627 -0.953125 -6.078366
v 0.958732 -0.952202 -6.081292
v 0.966634 -0.951219 -6.084412
v 0.974349 -0.950179 -6.087711
v 0.981893 -0.949087 -6.091173
v 0.989277 -0.947947 -6.094788
v 0.996502 -0.946760 -6.098553
v 1.003570 -0.945525 -6.102469
v 1.010482 -0.944244 -6.106533
v 1.017240 -0.942916 -6.110745
v 1.023844 -0.941542 -6.115104
v 1.030295 -0.940122 -6.119607
v 1.036596 -0.938656 -6.124255
v 1.042746 -0.937146 -6.129046
v 1.048748 -0.935590 -6.133979
v 1.054602 -0.933991 -6.139052
v 1.060309 -0.932347 -6.144266
v 1.065872 -0.930659 -6.149617
v 1.071290 -0.928929 -6.155107
v 1.076564 -0.927155 -6.160733
v 1.081693 -0.925337 -6.166498
v 1.086677 -0.923476 -6.172402
v 1.091513 -0.921570 -6.178446
v 1.096202 -0.919620 -6.184630
v 1.100743 -0.917625 -6.190956
v 1.105134 -0.915586 -6.197425
v 1.109375 -0.913501 -6.204037
v 1.113464 -0.911371 -6.210794
v 1.117401 -0.909194 -6.217696
v 1.121185 -0.906972 -6.224743
v 1.124815 -0.904704 -6.231938
v 1.128290 -0.902389 -6.239280
v 1.131609 -0.900027 -6.246772
v 1.134761 -0.897615 -6.254422
v 1.137735 -0.895149 -6.262242
v 1.140518 -0.892626 -6.270245
v 1.143097 -0.890041 -6.278443
v 1.145458 -0.887391 -6.286847
v 1.147590 -0.884672 -6.295471
v 1.149479 -0.881880 -6.304326
v 1.151112 -0.879011 -6.313424
v 1.152478 -0.876062 -6.322779
v 1.153562 -0.873028 -6.332401
v 1.154352 -0.869905 -6.342304
v 1.154836 -0.866691 -6.352500
v 1.155000 -0.863380 -6.363000
f 2 1 337
f 170 169 168
f 168 167 166
f 166 165 164
f 164 163 162
f 162 161 160
f 160 159 158
f 158 157 156
f 156 155 154
f 154 153 152
f 152 151 150
f 150 149 148
f 148 147 146
f 146 145 144
f 144 143 142
f 142 141 140
f 140 139 138
f 138 137 136
f 136 135 134
f 134 133 132
f 132 131 130
f 130 129 128
f 128 127 126
f 126 125 124
f 124 123 122
f 122 121 120
f 120 119 118
f 118 117 116
f 116 115 114
f 114 113 112
f 112 111 110
f 110 109 108
f 108 107 106
f 106 105 104
f 104 103 102
f 102 101 100
f 100 99 98
f 98 97 96
f 96 95 94
f 94 93 92
f 92 91 90
f 90 89 88
f 88 87 86
f 86 85 84
f 84 83 82
f 82 81 80
f 80 79 78
f 78 77 76
f 76 75 74
f 74 73 72
f 72 71 70
f 70 69 68
f 68 67 66
f 66 65 64
f 64 63 62
f 58 57 56
f 56 55 54
f 54 53 52
f 52 51 50
f 50 49 48
f 48 47 46
f 46 45 44
f 44 43 42
f 42 41 40
f 40 39 38
f 38 37 36
f 36 35 34
f 34 33 32
f 32 31 30
f 30 29 28
f 28 27 26
f 26 25 24
f 24 23 22
f 22 21 20
f 20 19 18
f 18 17 16
f 16 15 14
f 14 13 12
f 12 11 10
f 10 9 8
f 8 7 6
f 6 5 4
f 4 3 2
f 2 337 336
f 170 168 166
f 166 164 162
f 162 160 158
f 158 156 154
f 154 152 150
f 150 148 146
f 146 144 142
f 142 140 138
f 138 136 134
f 134 132 130
f 130 128 126
f 126 124 122
f 122 120 118
f 118 116 114
f 114 112 110
f 110 108 106
f 106 104 102
f 102 100 98
f 98 96 94
f 94 92 90
f 90 88 86
f 86 84 82
f 82 80 78
f 78 76 74
f 74 72 70
f 70 68 66
f 66 64 62
f 59 58 56
f 56 54 52
f 52 50 48
f 48 46 44
f 44 42 40
f 40 38 36
f 36 34 32
f 32 30 28
f 28 26 24
f 24 22 20
f 20 18 16
f 16 14 12
f 12 10 8
f 8 6 4
f 4 2 336
f 170 166 162
f 162 158 154
f 154 150 146
f 146 142 138
f 138 134 130
f 130 126 122
f 122 118 114
f 114 110 106
f 106 102 98
f 98 94 90
f 90 86 82
f 82 78 74
f 74 70 66
f 66 62 61
f 60 59 56
f 56 52 48
f 48 44 40
f 40 36 32
f 32 28 24
f 24 20 16
f 16 12 8
f 8 4 336
f 170 162 154
f 154 146 138
f 138 130 122
f 122 114 106
f 106 98 90
f 90 82 74
f 74 66 61
f 61 60 56
f 56 48 40
f 40 32 24
f 24 16 8
f 8 336 335
f 170 154 138
f 138 122 106
f 106 90 74
f 61 56 40
f 40 24 8
f 8 335 334
f 171 170 138
f 106 74 61
f 40 8 334
f 171 138 106
f 40 334 333
f 172 171 106
f 40 333 332
f 173 172 106
f 40 332 331
f 174 173 106
f 40 331 330
f 175 174 106
f 40 330 329
f 176 175 106
f 40 329 328
f 177 176 106
f 40 328 327
f 178 177 106
f 40 327 326
f 179 178 106
f 40 326 325
f 180 179 106
f 40 325 324
f 181 180 106
f 40 324 323
f 182 181 106
f 40 323 322
f 183 182 106
f 40 322 321
f 184 183 106
f 40 321 320
f 185 184 106
f 40 320 319
f 186 185 106
f 40 319 318
f 187 186 106
f 40 318 317
f 188 187 106
f 40 317 316
f 189 188 106
f 40 316 315
f 190 189 106
f 40 315 314
f 191 190 106
f 40 314 313
f 192 191 106
f 40 313 312
f 193 192 106
f 40 312 311
f 194 193 106
f 40 311 310
f 195 194 106
f 40 310 309
f 196 195 106
f 40 309 308
f 197 196 106
f 40 308 307
f 198 197 106
f 40 307 306
f 199 198 106
f 40 306 305
f 200 199 106
f 40 305 304
f 201 200 106
f 40 304 303
f 202 201 106
f 40 303 302
f 203 202 106
f 40 302 301
f 204 203 106
f 40 301 300
f 205 204 106
f 40 300 299
f 206 205 106
f 40 299 298
f 207 206 106
f 40 298 297
f 208 207 106
f 40 297 296
f 209 208 106
f 40 296 295
f 210 209 106
f 40 295 294
f 211 210 106
f 40 294 293
f 212 211 106
f 40 293 292
f 213 212 106
f 40 292 291
f 214 213 106
f 40 291 290
f 215 214 106
f 40 290 289
f 216 215 106
f 40 289 288
f 217 216 106
f 40 288 287
f 218 217 106
f 40 287 286
f 219 218 106
f 40 286 285
f 220 219 106
f 40 285 284
f 221 220 106
f 61 40 284
f 222 221 106
f 61 284 283
f 223 222 106
f 61 283 282
f 224 223 106
f 61 282 281
f 225 224 106
f 61 281 280
f 226 225 106
f 61 280 279
f 227 226 106
f 61 279 278
f 228 227 106
f 61 278 277
f 229 228 106
f 61 277 276
f 230 229 106
f 61 276 275
f 231 230 106
f 61 275 274
f 232 231 106
f 61 274 273
f 233 232 106
f 61 273 272
f 234 233 106
f 61 272 271
f 235 234 106
f 61 271 270
f 236 235 106
f 61 270 269
f 237 236 106
f 61 269 268
f 238 237 106
f 61 268 267
f 239 238 106
f 61 267 266
f 240 239 106
f 61 266 265
f 241 240 106
f 61 265 264
f 242 241 106
f 61 264 263
f 243 242 106
f 61 263 262
f 244 243 106
f 61 262 261
f 245 244 106
f 61 261 260
f 246 245 106
f 106 61 260
f 247 246 106
f 106 260 259
f 248 247 106
f 106 259 258
f 249 248 106
f 106 258 257
f 250 249 106
f 106 257 256
f 251 250 106
f 106 256 255
f 252 251 106
f 106 255 254
f 253 252 106
f 106 254 253
