v -1.013050 -0.507302 -6.143866
v -1.019936 -0.521559 -6.162560
v -1.019743 -0.519071 -6.162122
v -0.972532 -0.474876 -6.154329
v -0.970000 -0.474813 -6.154318
v -0.970000 -0.475253 -6.152109
v -0.970000 -0.521802 -6.113051
v -0.970000 -0.524053 -6.113000
v -0.972532 -0.524053 -6.113064
v -1.019936 -0.524053 -6.160468
v -1.020000 -0.524053 -6.163000
v -1.018198 -0.515006 -6.153245
v -1.015401 -0.515531 -6.143866
v -1.015701 -0.506270 -6.153245
v -1.011636 -0.498144 -6.153245
v -0.983175 -0.476817 -6.153245
v -0.974235 -0.475197 -6.153245
v -0.973989 -0.478032 -6.143866
v -0.982411 -0.479557 -6.143866
v -0.973590 -0.482635 -6.135221
v -0.973053 -0.488830 -6.127645
v -0.971652 -0.504990 -6.116806
v -0.970842 -0.514335 -6.113961
v -0.972621 -0.514657 -6.113961
v -0.974309 -0.515302 -6.113961
v -0.975141 -0.505622 -6.116806
v -0.990406 -0.482611 -6.143866
v -0.988365 -0.486756 -6.135221
v -0.997701 -0.487086 -6.143866
v -1.000640 -0.495954 -6.135221
v -0.994930 -0.490784 -6.135221
v -0.985618 -0.492334 -6.127645
v -0.982271 -0.499132 -6.121427
v -0.991202 -0.495760 -6.127645
v -0.978453 -0.506887 -6.116806
v -0.975850 -0.516247 -6.113961
v -0.981474 -0.508741 -6.116806
v -0.977189 -0.517460 -6.113961
v -0.978282 -0.518899 -6.113961
v -0.986246 -0.513944 -6.116806
v -0.979091 -0.520516 -6.113961
v -0.979587 -0.522254 -6.113961
v -0.988806 -0.520523 -6.116806
v -0.987832 -0.517114 -6.116806
v -0.995888 -0.513980 -6.121427
v -0.997302 -0.518928 -6.121427
v -1.004749 -0.517531 -6.127645
v -1.010860 -0.516384 -6.135221
v -1.002949 -0.511232 -6.127645
v -1.005298 -0.502089 -6.135221
v -1.008744 -0.508977 -6.135221
v -1.019423 -0.516597 -6.161685
v -0.975058 -0.475065 -6.154362
v -0.970000 -0.519555 -6.113203
v -1.019743 -0.524053 -6.157942
v -1.006142 -0.490908 -6.153245
v -0.991663 -0.480058 -6.153245
v -0.972399 -0.496378 -6.121427
v -0.996057 -0.500157 -6.127645
v -0.986658 -0.501823 -6.121427
v -0.984102 -0.511121 -6.116806
v -0.990473 -0.505278 -6.121427
v -0.993585 -0.509377 -6.121427
v -0.977571 -0.475380 -6.154418
v -0.970000 -0.517317 -6.113456
v -0.999407 -0.484810 -6.153245
v -1.018976 -0.514141 -6.161252
v -0.980065 -0.475821 -6.154495
v -0.970000 -0.515094 -6.113809
v -0.977463 -0.497296 -6.121427
v -1.009221 -0.499648 -6.143866
v -1.000018 -0.505374 -6.127645
v -1.018404 -0.511711 -6.160824
v -0.982533 -0.476385 -6.154595
v -0.970000 -0.512888 -6.114263
v -0.979499 -0.489998 -6.127645
v -1.017707 -0.509312 -6.160401
v -0.984968 -0.477071 -6.154716
v -0.970000 -0.510705 -6.114815
v -0.975058 -0.524053 -6.113257
v -0.977571 -0.524053 -6.113577
v -0.980065 -0.524053 -6.114024
v -0.982533 -0.524053 -6.114596
v -0.984968 -0.524053 -6.115293
v -0.987365 -0.524053 -6.116112
v -0.989718 -0.524053 -6.117052
v -0.992020 -0.524053 -6.118110
v -0.994265 -0.524053 -6.119283
v -0.996448 -0.524053 -6.120568
v -0.998563 -0.524053 -6.121962
v -1.000605 -0.524053 -6.123461
v -1.002569 -0.524053 -6.125062
v -1.004448 -0.524053 -6.126760
v -1.006240 -0.524053 -6.128552
v -1.007938 -0.524053 -6.130431
v -1.009539 -0.524053 -6.132395
v -1.011038 -0.524053 -6.134437
v -1.012432 -0.524053 -6.136552
v -1.013717 -0.524053 -6.138735
v -1.014890 -0.524053 -6.140980
v -1.015948 -0.524053 -6.143282
v -1.016888 -0.524053 -6.145635
v -1.017707 -0.524053 -6.148032
v -1.018404 -0.524053 -6.150467
v -1.018976 -0.524053 -6.152935
v -1.019423 -0.524053 -6.155429
v -0.981169 -0.484008 -6.135221
v -1.016888 -0.506952 -6.159985
v -0.987365 -0.477878 -6.154858
v -0.970000 -0.508549 -6.115465
v -1.015948 -0.504635 -6.159576
v -0.989718 -0.478803 -6.155021
v -0.970000 -0.506424 -6.116211
v -0.992020 -0.479845 -6.155205
v -0.970000 -0.504335 -6.117052
v -1.004045 -0.492831 -6.143866
v -0.994265 -0.481000 -6.155409
v -0.970000 -0.502286 -6.117987
v -0.996448 -0.482265 -6.155632
v -0.970000 -0.500282 -6.119012
v -1.014890 -0.502368 -6.159176
v -0.998563 -0.483638 -6.155874
v -0.970000 -0.498325 -6.120127
v -1.013717 -0.500157 -6.158786
v -1.000605 -0.485115 -6.156134
v -0.970000 -0.496421 -6.121329
v -1.012432 -0.498007 -6.158407
v -1.002569 -0.486691 -6.156412
v -0.970000 -0.494573 -6.122615
v -1.011038 -0.495924 -6.158040
v -1.004448 -0.488364 -6.156707
v -0.970000 -0.492784 -6.123984
v -1.009539 -0.493913 -6.157685
v -0.970000 -0.475793 -6.149923
v -0.970000 -0.491059 -6.125431
v -1.007938 -0.491979 -6.157345
v -1.006240 -0.490128 -6.157018
v -0.970000 -0.489401 -6.126955
v -0.970000 -0.476431 -6.147763
v -0.970000 -0.477165 -6.145635
v -0.970000 -0.487813 -6.128552
v -0.970000 -0.486299 -6.130218
v -0.970000 -0.484861 -6.131951
v -0.970000 -0.477995 -6.143541
v -0.970000 -0.483503 -6.133748
v -0.970000 -0.478918 -6.141487
v -0.970000 -0.479932 -6.139477
v -0.970000 -0.482227 -6.135603
v -0.970000 -0.481036 -6.137514
f 1 3 2
f 4 6 5
f 7 9 8
f 10 12 11
f 13 15 14
f 16 18 17
f 19 21 20
f 22 24 23
f 24 26 25
f 27 29 28
f 30 32 31
f 32 34 33
f 35 37 36
f 37 39 38
f 40 42 41
f 42 44 43
f 45 47 46
f 47 49 48
f 50 1 51
f 1 52 3
f 53 6 4
f 54 9 7
f 55 12 10
f 13 56 15
f 57 18 16
f 19 58 21
f 58 24 22
f 30 34 32
f 59 37 60
f 60 37 35
f 37 61 39
f 62 42 40
f 63 47 45
f 50 52 1
f 64 6 53
f 65 9 54
f 55 13 12
f 13 66 56
f 66 18 57
f 58 26 24
f 30 59 34
f 37 62 61
f 62 44 42
f 63 49 47
f 50 67 52
f 68 6 64
f 69 9 65
f 66 19 18
f 58 70 26
f 71 59 30
f 59 62 37
f 62 63 44
f 63 72 49
f 50 73 67
f 74 6 68
f 75 9 69
f 58 76 70
f 71 62 59
f 62 72 63
f 50 77 73
f 78 6 74
f 79 9 75
f 9 13 80
f 80 13 81
f 81 13 82
f 82 13 83
f 83 13 84
f 84 13 85
f 85 13 86
f 86 13 87
f 87 13 88
f 88 13 89
f 89 13 90
f 90 13 91
f 91 13 92
f 92 13 93
f 93 13 94
f 94 13 95
f 95 13 96
f 96 13 97
f 97 13 98
f 98 13 99
f 99 13 100
f 100 13 101
f 101 13 102
f 102 13 103
f 103 13 104
f 104 13 105
f 105 13 106
f 106 13 55
f 58 107 76
f 62 50 72
f 50 108 77
f 109 6 78
f 110 9 79
f 19 107 58
f 71 50 62
f 50 111 108
f 112 6 109
f 113 9 110
f 19 27 107
f 71 111 50
f 114 6 112
f 115 9 113
f 66 27 19
f 116 111 71
f 117 6 114
f 118 9 115
f 9 66 13
f 66 29 27
f 29 111 116
f 119 6 117
f 120 9 118
f 9 29 66
f 29 121 111
f 122 6 119
f 123 9 120
f 29 124 121
f 125 6 122
f 126 9 123
f 29 127 124
f 128 6 125
f 129 9 126
f 29 130 127
f 131 6 128
f 132 9 129
f 29 133 130
f 131 134 6
f 135 9 132
f 29 136 133
f 137 134 131
f 138 9 135
f 29 137 136
f 134 137 139
f 139 137 140
f 141 9 138
f 29 140 137
f 142 9 141
f 9 140 29
f 143 9 142
f 9 144 140
f 145 9 143
f 144 9 146
f 146 9 147
f 148 9 145
f 9 149 147
f 149 9 148
f 11 10 2
