v -0.378175 0.000000 0.630365
v -0.356825 0.000000 0.642692
v -0.356455 0.000000 0.642895
v -0.356076 0.000000 0.643083
v -0.355691 0.000000 0.643254
v -0.355298 0.000000 0.643409
v -0.354899 0.000000 0.643548
v -0.354494 0.000000 0.643669
v -0.354085 0.000000 0.643773
v -0.353672 0.000000 0.643860
v -0.353255 0.000000 0.643929
v -0.352836 0.000000 0.643980
v -0.352416 0.000000 0.644014
v -0.351994 0.000000 0.644030
v -0.351571 0.000000 0.644029
v -0.351150 0.000000 0.644009
v -0.350729 0.000000 0.643972
v -0.350310 0.000000 0.643916
v -0.349895 0.000000 0.643844
v -0.349482 0.000000 0.643754
v -0.349074 0.000000 0.643646
v -0.348670 0.000000 0.643521
v -0.348273 0.000000 0.643380
v -0.347881 0.000000 0.643221
v -0.347497 0.000000 0.643047
v -0.347120 0.000000 0.642856
v -0.346752 0.000000 0.642650
v -0.346393 0.000000 0.642428
v -0.346043 0.000000 0.642191
v -0.345704 0.000000 0.641940
v -0.345375 0.000000 0.641674
v -0.345058 0.000000 0.641395
v -0.344754 0.000000 0.641103
v -0.301819 0.000000 0.598168
v -0.303990 0.000000 0.597068
v -0.306156 0.000000 0.595960
v -0.308319 0.000000 0.594844
v -0.310478 0.000000 0.593720
v -0.312632 0.000000 0.592588
v -0.314783 0.000000 0.591449
v -0.316929 0.000000 0.590302
v -0.319071 0.000000 0.589147
v -0.321209 0.000000 0.587984
v -0.323342 0.000000 0.586813
v -0.325472 0.000000 0.585635
v -0.327597 0.000000 0.584449
v -0.329717 0.000000 0.583255
v -0.331834 0.000000 0.582054
v -0.333946 0.000000 0.580844
v -0.336053 0.000000 0.579628
v -0.338156 0.000000 0.578403
v -0.340255 0.000000 0.577171
v -0.342349 0.000000 0.575931
v -0.344439 0.000000 0.574684
v -0.346524 0.000000 0.573429
v -0.348605 0.000000 0.572167
v -0.350681 0.000000 0.570897
v -0.352752 0.000000 0.569619
v -0.354819 0.000000 0.568334
v -0.356881 0.000000 0.567042
v -0.358938 0.000000 0.565742
v -0.360990 0.000000 0.564434
v -0.363038 0.000000 0.563119
v -0.365081 0.000000 0.561797
v -0.367119 0.000000 0.560467
v -0.382835 0.000000 0.619117
v -0.382935 0.000000 0.619527
v -0.383018 0.000000 0.619941
v -0.383084 0.000000 0.620358
v -0.383132 0.000000 0.620777
v -0.383162 0.000000 0.621199
v -0.383175 0.000000 0.621621
v -0.383170 0.000000 0.622043
v -0.383146 0.000000 0.622464
v -0.383105 0.000000 0.622885
v -0.383047 0.000000 0.623303
v -0.382971 0.000000 0.623718
v -0.382877 0.000000 0.624130
v -0.382766 0.000000 0.624537
v -0.382638 0.000000 0.624939
v -0.382493 0.000000 0.625336
v -0.382331 0.000000 0.625726
v -0.382153 0.000000 0.626109
v -0.381959 0.000000 0.626484
v -0.381750 0.000000 0.626851
v -0.381525 0.000000 0.627208
v -0.381285 0.000000 0.627556
v -0.381031 0.000000 0.627893
v -0.380763 0.000000 0.628219
v -0.380481 0.000000 0.628533
v -0.380186 0.000000 0.628836
v -0.379879 0.000000 0.629125
v -0.379560 0.000000 0.629402
v -0.379229 0.000000 0.629664
v -0.378888 0.000000 0.629913
v -0.378536 0.000000 0.630147
f 96 1 2
f 96 2 3
f 96 3 4
f 96 4 5
f 96 5 6
f 96 6 7
f 96 7 8
f 96 8 9
f 96 9 10
f 96 10 11
f 96 11 12
f 96 12 13
f 96 13 14
f 96 14 15
f 96 15 16
f 96 16 17
f 96 17 18
f 96 18 19
f 96 19 20
f 96 20 21
f 96 21 22
f 96 22 23
f 96 23 24
f 96 24 25
f 96 25 26
f 96 26 27
f 96 27 28
f 96 28 29
f 96 29 30
f 96 30 31
f 96 31 32
f 96 32 33
f 96 33 34
f 96 34 35
f 96 35 36
f 96 36 37
f 96 37 38
f 96 38 39
f 96 39 40
f 96 40 41
f 96 41 42
f 96 42 43
f 96 43 44
f 96 44 45
f 96 45 46
f 96 46 47
f 96 47 48
f 96 48 49
f 96 49 50
f 96 50 51
f 96 51 52
f 96 52 53
f 96 53 54
f 96 54 55
f 96 55 56
f 96 56 57
f 96 57 58
f 96 58 59
f 96 59 60
f 96 60 61
f 96 61 62
f 96 62 63
f 96 63 64
f 96 64 65
f 96 65 66
f 96 66 67
f 96 67 68
f 96 68 69
f 96 69 70
f 96 70 71
f 96 71 72
f 96 72 73
f 96 73 74
f 96 74 75
f 96 75 76
f 96 76 77
f 96 77 78
f 96 78 79
f 96 79 80
f 96 80 81
f 96 81 82
f 96 82 83
f 96 83 84
f 96 84 85
f 96 85 86
f 96 86 87
f 96 87 88
f 96 88 89
f 96 89 90
f 96 90 91
f 96 91 92
f 96 92 93
f 96 93 94
f 94 95 96
