v -0.673814 -0.040000 -0.036213
v -0.673814 -0.040000 -0.825000
v -0.673562 -0.040000 -0.825587
v -0.673310 -0.040000 -0.826174
v -0.673058 -0.040000 -0.826760
v -0.672806 -0.040000 -0.827347
v -0.672554 -0.040000 -0.827934
v -0.672302 -0.040000 -0.828520
v -0.672051 -0.040000 -0.829107
v -0.671799 -0.040000 -0.829693
v -0.671547 -0.040000 -0.830279
v -0.671295 -0.040000 -0.830866
v -0.671044 -0.040000 -0.831452
v -0.670792 -0.040000 -0.832038
v -0.670541 -0.040000 -0.832624
v -0.670289 -0.040000 -0.833210
v -0.670037 -0.040000 -0.833796
v -0.669786 -0.040000 -0.834382
v -0.669534 -0.040000 -0.834968
v -0.669283 -0.040000 -0.835553
v -0.669032 -0.040000 -0.836139
v -0.668780 -0.040000 -0.836724
v -0.668529 -0.040000 -0.837310
v -0.668277 -0.040000 -0.837895
v -0.668026 -0.040000 -0.838481
v -0.667775 -0.040000 -0.839066
v -0.667524 -0.040000 -0.839651
v -0.667272 -0.040000 -0.840236
v -0.667021 -0.040000 -0.840821
v -0.666770 -0.040000 -0.841406
v -0.666519 -0.040000 -0.841991
v -0.666268 -0.040000 -0.842576
v -0.666017 -0.040000 -0.843161
v -0.665766 -0.040000 -0.843746
v -0.665515 -0.040000 -0.844330
v -0.665264 -0.040000 -0.844915
v -0.665013 -0.040000 -0.845499
v -0.664762 -0.040000 -0.846084
v -0.664511 -0.040000 -0.846668
v -0.664260 -0.040000 -0.847252
v -0.664009 -0.040000 -0.847837
v -0.663758 -0.040000 -0.848421
v -0.663508 -0.040000 -0.849005
v -0.663257 -0.040000 -0.849589
v -0.663006 -0.040000 -0.850173
v -0.662756 -0.040000 -0.850757
v -0.662505 -0.040000 -0.851340
v -0.662254 -0.040000 -0.851924
v -0.662004 -0.040000 -0.852508
v -0.661753 -0.040000 -0.853091
v -0.661503 -0.040000 -0.853675
v -0.661252 -0.040000 -0.854258
v -0.661002 -0.040000 -0.854842
v -0.660751 -0.040000 -0.855425
v -0.660501 -0.040000 -0.856008
v -0.660250 -0.040000 -0.856591
v -0.660000 -0.040000 -0.857174
v -0.660000 -0.040000 -0.016211
v -0.660171 -0.040000 -0.016381
v -0.660342 -0.040000 -0.016552
v -0.660512 -0.040000 -0.016722
v -0.660683 -0.040000 -0.016893
v -0.660854 -0.040000 -0.017063
v -0.661025 -0.040000 -0.017234
v -0.661196 -0.040000 -0.017404
v -0.661366 -0.040000 -0.017575
v -0.661537 -0.040000 -0.017746
v -0.661708 -0.040000 -0.017916
v -0.661879 -0.040000 -0.018087
v -0.662050 -0.040000 -0.018257
v -0.662221 -0.040000 -0.018428
v -0.662392 -0.040000 -0.018599
v -0.662563 -0.040000 -0.018769
v -0.662734 -0.040000 -0.018940
v -0.662905 -0.040000 -0.019111
v -0.663076 -0.040000 -0.019281
v -0.663247 -0.040000 -0.019452
v -0.663418 -0.040000 -0.019623
v -0.663589 -0.040000 -0.019793
v -0.663760 -0.040000 -0.019964
v -0.663931 -0.040000 -0.020135
v -0.664102 -0.040000 -0.020306
v -0.664273 -0.040000 -0.020476
v -0.664444 -0.040000 -0.020647
v -0.664615 -0.040000 -0.020818
v -0.664787 -0.040000 -0.020989
v -0.664958 -0.040000 -0.021160
v -0.665129 -0.040000 -0.021331
v -0.665300 -0.040000 -0.021501
v -0.665471 -0.040000 -0.021672
v -0.665642 -0.040000 -0.021843
v -0.665814 -0.040000 -0.022014
v -0.665985 -0.040000 -0.022185
v -0.666156 -0.040000 -0.022356
v -0.666327 -0.040000 -0.022527
v -0.666499 -0.040000 -0.022698
v -0.666670 -0.040000 -0.022869
v -0.666841 -0.040000 -0.023040
v -0.667013 -0.040000 -0.023211
v -0.667184 -0.040000 -0.023382
v -0.667355 -0.040000 -0.023553
v -0.667527 -0.040000 -0.023724
v -0.667698 -0.040000 -0.023895
v -0.667869 -0.040000 -0.024066
v -0.668041 -0.040000 -0.024237
v -0.668212 -0.040000 -0.024408
v -0.668384 -0.040000 -0.024580
v -0.668555 -0.040000 -0.024751
v -0.668727 -0.040000 -0.024922
v -0.668898 -0.040000 -0.025093
v -0.669070 -0.040000 -0.025264
v -0.669241 -0.040000 -0.025435
v -0.669413 -0.040000 -0.025607
v -0.669566 -0.040000 -0.025762
v -0.669717 -0.040000 -0.025919
v -0.669865 -0.040000 -0.026077
v -0.670010 -0.040000 -0.026237
v -0.670153 -0.040000 -0.026399
v -0.670292 -0.040000 -0.026562
v -0.670429 -0.040000 -0.026727
v -0.670564 -0.040000 -0.026893
v -0.670696 -0.040000 -0.027061
v -0.670825 -0.040000 -0.027231
v -0.670951 -0.040000 -0.027402
v -0.671075 -0.040000 -0.027575
v -0.671196 -0.040000 -0.027750
v -0.671315 -0.040000 -0.027927
v -0.671431 -0.040000 -0.028105
v -0.671545 -0.040000 -0.028285
v -0.671656 -0.040000 -0.028467
v -0.671764 -0.040000 -0.028650
v -0.671870 -0.040000 -0.028836
v -0.671974 -0.040000 -0.029023
v -0.672075 -0.040000 -0.029212
v -0.672173 -0.040000 -0.029403
v -0.672269 -0.040000 -0.029595
v -0.672363 -0.040000 -0.029788
v -0.672453 -0.040000 -0.029983
v -0.672541 -0.040000 -0.030180
v -0.672626 -0.040000 -0.030377
v -0.672709 -0.040000 -0.030576
v -0.672788 -0.040000 -0.030776
v -0.672865 -0.040000 -0.030977
v -0.672939 -0.040000 -0.031178
v -0.673010 -0.040000 -0.031381
v -0.673078 -0.040000 -0.031585
v -0.673144 -0.040000 -0.031789
v -0.673206 -0.040000 -0.031994
v -0.673265 -0.040000 -0.032199
v -0.673322 -0.040000 -0.032405
v -0.673375 -0.040000 -0.032611
v -0.673425 -0.040000 -0.032818
v -0.673472 -0.040000 -0.033026
v -0.673516 -0.040000 -0.033233
v -0.673557 -0.040000 -0.033442
v -0.673595 -0.040000 -0.033651
v -0.673630 -0.040000 -0.033860
v -0.673662 -0.040000 -0.034071
v -0.673691 -0.040000 -0.034282
v -0.673717 -0.040000 -0.034493
v -0.673739 -0.040000 -0.034705
v -0.673759 -0.040000 -0.034918
v -0.673776 -0.040000 -0.035132
v -0.673790 -0.040000 -0.035347
v -0.673800 -0.040000 -0.035562
v -0.673808 -0.040000 -0.035778
v -0.673812 -0.040000 -0.035995
f 57 55 56
f 57 54 55
f 57 53 54
f 57 52 53
f 57 51 52
f 57 50 51
f 57 49 50
f 57 48 49
f 57 47 48
f 57 46 47
f 57 45 46
f 57 44 45
f 57 43 44
f 57 42 43
f 57 41 42
f 57 40 41
f 57 39 40
f 57 38 39
f 57 37 38
f 57 36 37
f 57 35 36
f 57 34 35
f 57 33 34
f 57 32 33
f 57 31 32
f 57 30 31
f 57 29 30
f 57 28 29
f 57 27 28
f 57 26 27
f 57 25 26
f 57 24 25
f 57 23 24
f 57 22 23
f 57 21 22
f 57 20 21
f 57 19 20
f 57 18 19
f 57 17 18
f 57 16 17
f 57 15 16
f 57 14 15
f 57 13 14
f 57 12 13
f 57 11 12
f 57 10 11
f 57 9 10
f 57 8 9
f 57 7 8
f 57 6 7
f 57 5 6
f 57 4 5
f 57 3 4
f 57 2 3
f 57 1 2
f 57 167 1
f 57 166 167
f 57 165 166
f 57 164 165
f 57 163 164
f 57 162 163
f 57 161 162
f 57 160 161
f 57 159 160
f 57 158 159
f 57 157 158
f 57 156 157
f 57 155 156
f 57 154 155
f 57 153 154
f 57 152 153
f 57 151 152
f 57 150 151
f 57 149 150
f 57 148 149
f 57 147 148
f 57 146 147
f 57 145 146
f 57 144 145
f 57 143 144
f 57 142 143
f 57 141 142
f 57 140 141
f 57 139 140
f 57 138 139
f 57 137 138
f 57 136 137
f 57 135 136
f 57 134 135
f 57 133 134
f 57 132 133
f 57 131 132
f 57 130 131
f 57 129 130
f 57 128 129
f 57 127 128
f 57 126 127
f 57 125 126
f 57 124 125
f 57 123 124
f 57 122 123
f 57 121 122
f 57 120 121
f 57 119 120
f 57 118 119
f 57 117 118
f 57 116 117
f 57 115 116
f 57 114 115
f 57 113 114
f 57 112 113
f 57 111 112
f 57 110 111
f 57 109 110
f 57 108 109
f 57 107 108
f 57 106 107
f 57 105 106
f 57 104 105
f 57 103 104
f 57 102 103
f 57 101 102
f 57 100 101
f 57 99 100
f 57 98 99
f 57 97 98
f 57 96 97
f 57 95 96
f 57 94 95
f 57 93 94
f 57 92 93
f 57 91 92
f 57 90 91
f 57 89 90
f 57 88 89
f 57 87 88
f 57 86 87
f 57 85 86
f 57 84 85
f 57 83 84
f 57 82 83
f 57 81 82
f 57 80 81
f 57 79 80
f 57 78 79
f 57 77 78
f 57 76 77
f 57 75 76
f 57 74 75
f 57 73 74
f 57 72 73
f 57 71 72
f 57 70 71
f 57 69 70
f 57 68 69
f 57 67 68
f 57 66 67
f 57 65 66
f 57 64 65
f 57 63 64
f 57 62 63
f 57 61 62
f 57 60 61
f 57 59 60
f 57 58 59
