v -0.652493 0.230000 0.066352
v -0.642432 0.230000 0.132023
v -0.625780 0.230000 0.196340
v -0.602706 0.230000 0.258641
v -0.573447 0.230000 0.318289
v -0.538304 0.230000 0.374671
v -0.497637 0.230000 0.427208
v -0.451864 0.230000 0.475361
v -0.401455 0.230000 0.518636
v -0.346925 0.230000 0.556590
v -0.288836 0.230000 0.588832
v -0.227783 0.230000 0.615032
v -0.164392 0.230000 0.634921
v -0.099315 0.230000 0.648295
v -0.033219 0.230000 0.655016
v 0.033219 0.230000 0.655016
v 0.099315 0.230000 0.648295
v 0.164392 0.230000 0.634921
v 0.227783 0.230000 0.615032
v 0.288836 0.230000 0.588832
v 0.346925 0.230000 0.556590
v 0.401455 0.230000 0.518636
v 0.451864 0.230000 0.475361
v 0.497637 0.230000 0.427208
v 0.538304 0.230000 0.374671
v 0.573447 0.230000 0.318289
v 0.602706 0.230000 0.258641
v 0.625780 0.230000 0.196340
v 0.642432 0.230000 0.132023
v 0.652493 0.230000 0.066352
v 0.655858 0.230000 0.000000
v 0.652493 0.230000 -0.066352
v 0.642432 0.230000 -0.132023
v 0.625780 0.230000 -0.196340
v 0.602706 0.230000 -0.258641
v 0.573447 0.230000 -0.318289
v 0.538304 0.230000 -0.374671
v 0.497637 0.230000 -0.427208
v 0.451864 0.230000 -0.475361
v 0.401455 0.230000 -0.518636
v 0.346925 0.230000 -0.556590
v 0.288836 0.230000 -0.588832
v 0.227783 0.230000 -0.615032
v 0.164392 0.230000 -0.634921
v 0.099315 0.230000 -0.648295
v 0.033219 0.230000 -0.655016
v -0.033219 0.230000 -0.655016
v -0.099315 0.230000 -0.648295
v -0.164392 0.230000 -0.634921
v -0.227783 0.230000 -0.615032
v -0.288836 0.230000 -0.588832
v -0.346925 0.230000 -0.556590
v -0.401455 0.230000 -0.518636
v -0.451864 0.230000 -0.475361
v -0.497637 0.230000 -0.427208
v -0.538304 0.230000 -0.374671
v -0.573447 0.230000 -0.318289
v -0.602706 0.230000 -0.258641
v -0.625780 0.230000 -0.196340
v -0.642432 0.230000 -0.132023
v -0.652493 0.230000 -0.066352
v -0.655858 0.230000 0.000000
v -0.511650 0.230000 -0.008303
v -0.510391 0.230000 -0.016521
v -0.508307 0.230000 -0.024569
v -0.505420 0.230000 -0.032365
v -0.501759 0.230000 -0.039829
v -0.497361 0.230000 -0.046885
v -0.492272 0.230000 -0.053459
v -0.486544 0.230000 -0.059485
v -0.480236 0.230000 -0.064900
v -0.473413 0.230000 -0.069649
v -0.466144 0.230000 -0.073684
v -0.458504 0.230000 -0.076962
v -0.450571 0.230000 -0.079451
v -0.442428 0.230000 -0.081125
v -0.434157 0.230000 -0.081966
v -0.425843 0.230000 -0.081966
v -0.417572 0.230000 -0.081125
v -0.409429 0.230000 -0.079451
v -0.401496 0.230000 -0.076962
v -0.393856 0.230000 -0.073684
v -0.386587 0.230000 -0.069649
v -0.379764 0.230000 -0.064900
v -0.373456 0.230000 -0.059485
v -0.367728 0.230000 -0.053459
v -0.362639 0.230000 -0.046885
v -0.358241 0.230000 -0.039829
v -0.354580 0.230000 -0.032365
v -0.351693 0.230000 -0.024569
v -0.349609 0.230000 -0.016521
v -0.348350 0.230000 -0.008303
v -0.347929 0.230000 0.000000
v -0.348350 0.230000 0.008303
v -0.349609 0.230000 0.016521
v -0.351693 0.230000 0.024569
v -0.354580 0.230000 0.032365
v -0.358241 0.230000 0.039829
v -0.362639 0.230000 0.046885
v -0.367728 0.230000 0.053459
v -0.373456 0.230000 0.059485
v -0.379764 0.230000 0.064900
v -0.386587 0.230000 0.069649
v -0.393856 0.230000 0.073684
v -0.401496 0.230000 0.076962
v -0.409429 0.230000 0.079451
v -0.417572 0.230000 0.081125
v -0.425843 0.230000 0.081966
v -0.434157 0.230000 0.081966
v -0.442428 0.230000 0.081125
v -0.450571 0.230000 0.079451
v -0.458504 0.230000 0.076962
v -0.466144 0.230000 0.073684
v -0.473413 0.230000 0.069649
v -0.480236 0.230000 0.064900
v -0.486544 0.230000 0.059485
v -0.492272 0.230000 0.053459
v -0.497361 0.230000 0.046885
v -0.501759 0.230000 0.039829
v -0.505420 0.230000 0.032365
v -0.508307 0.230000 0.024569
v -0.510391 0.230000 0.016521
v -0.511650 0.230000 0.008303
v -0.512071 0.230000 0.000000
v -0.165787 0.230000 -0.016859
v -0.163231 0.230000 -0.033545
v -0.159000 0.230000 -0.049887
v -0.153137 0.230000 -0.065716
v -0.145703 0.230000 -0.080872
v -0.136774 0.230000 -0.095197
v -0.126441 0.230000 -0.108546
v -0.114811 0.230000 -0.120781
v -0.102003 0.230000 -0.131777
v -0.088148 0.230000 -0.141420
v -0.073388 0.230000 -0.149612
v -0.057876 0.230000 -0.156269
v -0.041769 0.230000 -0.161322
v -0.025234 0.230000 -0.164720
v -0.008440 0.230000 -0.166428
v 0.008440 0.230000 -0.166428
v 0.025234 0.230000 -0.164720
v 0.041769 0.230000 -0.161322
v 0.057876 0.230000 -0.156269
v 0.073388 0.230000 -0.149612
v 0.088148 0.230000 -0.141420
v 0.102003 0.230000 -0.131777
v 0.114811 0.230000 -0.120781
v 0.126441 0.230000 -0.108546
v 0.136774 0.230000 -0.095197
v 0.145703 0.230000 -0.080872
v 0.153137 0.230000 -0.065716
v 0.159000 0.230000 -0.049887
v 0.163231 0.230000 -0.033545
v 0.165787 0.230000 -0.016859
v 0.166642 0.230000 0.000000
v 0.165787 0.230000 0.016859
v 0.163231 0.230000 0.033545
v 0.159000 0.230000 0.049887
v 0.153137 0.230000 0.065716
v 0.145703 0.230000 0.080872
v 0.136774 0.230000 0.095197
v 0.126441 0.230000 0.108546
v 0.114811 0.230000 0.120781
v 0.102003 0.230000 0.131777
v 0.088148 0.230000 0.141420
v 0.073388 0.230000 0.149612
v 0.057876 0.230000 0.156269
v 0.041769 0.230000 0.161322
v 0.025234 0.230000 0.164720
v 0.008440 0.230000 0.166428
v -0.008440 0.230000 0.166428
v -0.025234 0.230000 0.164720
v -0.041769 0.230000 0.161322
v -0.057876 0.230000 0.156269
v -0.073388 0.230000 0.149612
v -0.088148 0.230000 0.141420
v -0.102003 0.230000 0.131777
v -0.114811 0.230000 0.120781
v -0.126441 0.230000 0.108546
v -0.136774 0.230000 0.095197
v -0.145703 0.230000 0.080872
v -0.153137 0.230000 0.065716
v -0.159000 0.230000 0.049887
v -0.163231 0.230000 0.033545
v -0.165787 0.230000 0.016859
v -0.166642 0.230000 0.000000
v 0.341315 0.230000 -0.009018
v 0.342683 0.230000 -0.017944
v 0.344946 0.230000 -0.026686
v 0.348082 0.230000 -0.035154
v 0.352059 0.230000 -0.043261
v 0.356835 0.230000 -0.050924
v 0.362363 0.230000 -0.058065
v 0.368584 0.230000 -0.064610
v 0.375436 0.230000 -0.070491
v 0.382847 0.230000 -0.075650
v 0.390742 0.230000 -0.080032
v 0.399040 0.230000 -0.083593
v 0.407656 0.230000 -0.086296
v 0.416501 0.230000 -0.088114
v 0.425485 0.230000 -0.089028
v 0.434515 0.230000 -0.089028
v 0.443499 0.230000 -0.088114
v 0.452344 0.230000 -0.086296
v 0.460960 0.230000 -0.083593
v 0.469258 0.230000 -0.080032
v 0.477153 0.230000 -0.075650
v 0.484564 0.230000 -0.070491
v 0.491416 0.230000 -0.064610
v 0.497637 0.230000 -0.058065
v 0.503165 0.230000 -0.050924
v 0.507941 0.230000 -0.043261
v 0.511918 0.230000 -0.035154
v 0.515054 0.230000 -0.026686
v 0.517317 0.230000 -0.017944
v 0.518685 0.230000 -0.009018
v 0.519142 0.230000 0.000000
v 0.518685 0.230000 0.009018
v 0.517317 0.230000 0.017944
v 0.515054 0.230000 0.026686
v 0.511918 0.230000 0.035154
v 0.507941 0.230000 0.043261
v 0.503165 0.230000 0.050924
v 0.497637 0.230000 0.058065
v 0.491416 0.230000 0.064610
v 0.484564 0.230000 0.070491
v 0.477153 0.230000 0.075650
v 0.469258 0.230000 0.080032
v 0.460960 0.230000 0.083593
v 0.452344 0.230000 0.086296
v 0.443499 0.230000 0.088114
v 0.434515 0.230000 0.089028
v 0.425485 0.230000 0.089028
v 0.416501 0.230000 0.088114
v 0.407656 0.230000 0.086296
v 0.399040 0.230000 0.083593
v 0.390742 0.230000 0.080032
v 0.382847 0.230000 0.075650
v 0.375436 0.230000 0.070491
v 0.368584 0.230000 0.064610
v 0.362363 0.230000 0.058065
v 0.356835 0.230000 0.050924
v 0.352059 0.230000 0.043261
v 0.348082 0.230000 0.035154
v 0.344946 0.230000 0.026686
v 0.342683 0.230000 0.017944
v 0.341315 0.230000 0.009018
v 0.340858 0.230000 0.000000
f 92 93 186
f 154 155 248
f 247 248 155
f 185 186 93
f 123 124 62
f 62 1 2
f 2 3 4
f 4 5 6
f 6 7 8
f 8 9 10
f 10 11 12
f 12 13 14
f 14 15 16
f 16 17 18
f 18 19 20
f 20 21 22
f 22 23 24
f 24 25 26
f 26 27 28
f 28 29 30
f 30 31 32
f 32 33 34
f 34 35 36
f 36 37 38
f 38 39 40
f 40 41 42
f 42 43 44
f 44 45 46
f 46 47 48
f 48 49 50
f 50 51 52
f 52 53 54
f 54 55 56
f 56 57 58
f 58 59 60
f 60 61 62
f 62 124 63
f 91 92 186
f 153 154 248
f 246 247 155
f 184 185 93
f 122 123 62
f 62 2 4
f 4 6 8
f 8 10 12
f 12 14 16
f 16 18 20
f 20 22 24
f 24 26 28
f 28 30 32
f 32 34 36
f 36 38 40
f 40 42 44
f 44 46 48
f 48 50 52
f 52 54 56
f 56 58 60
f 60 62 63
f 90 91 186
f 152 153 248
f 245 246 155
f 183 184 93
f 121 122 62
f 62 4 8
f 8 12 16
f 16 20 24
f 24 28 32
f 32 36 40
f 40 44 48
f 48 52 56
f 56 60 63
f 89 90 186
f 151 152 248
f 244 245 155
f 182 183 93
f 120 121 62
f 62 8 16
f 16 24 32
f 32 40 48
f 56 63 64
f 88 89 186
f 150 151 248
f 243 244 155
f 181 182 93
f 119 120 62
f 32 48 56
f 56 64 65
f 87 88 186
f 149 150 248
f 242 243 155
f 180 181 93
f 118 119 62
f 56 65 66
f 86 87 186
f 148 149 248
f 241 242 155
f 179 180 93
f 117 118 62
f 56 66 67
f 85 86 186
f 147 148 248
f 240 241 155
f 178 179 93
f 116 117 62
f 56 67 68
f 84 85 186
f 146 147 248
f 239 240 155
f 177 178 93
f 115 116 62
f 56 68 69
f 83 84 186
f 145 146 248
f 238 239 155
f 176 177 93
f 114 115 62
f 56 69 70
f 82 83 186
f 145 248 187
f 237 238 155
f 175 176 93
f 113 114 62
f 56 70 71
f 81 82 186
f 144 145 187
f 236 237 155
f 175 93 94
f 112 113 62
f 56 71 72
f 81 186 125
f 144 187 188
f 236 155 156
f 175 94 95
f 112 62 16
f 56 72 73
f 80 81 125
f 144 188 189
f 235 236 156
f 175 95 96
f 111 112 16
f 56 73 74
f 80 125 126
f 144 189 190
f 235 156 157
f 175 96 97
f 110 111 16
f 56 74 75
f 79 80 126
f 143 144 190
f 235 157 158
f 174 175 97
f 109 110 16
f 56 75 76
f 79 126 127
f 143 190 191
f 234 235 158
f 174 97 98
f 108 109 16
f 56 76 77
f 79 127 128
f 143 191 192
f 234 158 159
f 174 98 99
f 107 108 16
f 56 77 78
f 78 79 128
f 143 192 193
f 233 234 159
f 174 99 100
f 106 107 16
f 56 78 128
f 143 193 194
f 233 159 160
f 174 100 101
f 105 106 16
f 56 128 129
f 142 143 194
f 233 160 161
f 173 174 101
f 104 105 16
f 56 129 130
f 142 194 195
f 232 233 161
f 173 101 102
f 103 104 16
f 56 130 131
f 142 195 196
f 232 161 162
f 173 102 103
f 56 131 132
f 142 196 197
f 232 162 163
f 173 103 16
f 56 132 133
f 142 197 198
f 232 163 164
f 172 173 16
f 56 133 134
f 142 198 199
f 231 232 164
f 171 172 16
f 56 134 135
f 141 142 199
f 231 164 165
f 170 171 16
f 56 135 136
f 141 199 200
f 231 165 166
f 169 170 16
f 56 136 137
f 141 200 201
f 231 166 167
f 168 169 16
f 56 137 138
f 141 201 202
f 231 167 168
f 56 138 139
f 141 202 203
f 231 168 16
f 56 139 140
f 230 231 16
f 56 140 141
f 229 230 16
f 32 56 141
f 228 229 16
f 32 141 203
f 227 228 16
f 32 203 204
f 226 227 16
f 32 204 205
f 225 226 16
f 32 205 206
f 224 225 16
f 32 206 207
f 224 16 32
f 32 207 208
f 223 224 32
f 32 208 209
f 222 223 32
f 32 209 210
f 221 222 32
f 32 210 211
f 220 221 32
f 32 211 212
f 219 220 32
f 32 212 213
f 218 219 32
f 32 213 214
f 217 218 32
f 32 214 215
f 216 217 32
f 32 215 216
