v -0.187893 -0.601329 -1.051000
v -0.186525 -0.601755 -1.051103
v -0.185184 -0.602168 -1.051407
v -0.183900 -0.602562 -1.051907
v -0.182697 -0.602928 -1.052593
v -0.181600 -0.603259 -1.053449
v -0.180631 -0.603550 -1.054458
v -0.179811 -0.603795 -1.055601
v -0.179155 -0.603990 -1.056852
v -0.178677 -0.604131 -1.058187
v -0.178386 -0.604217 -1.059579
v -0.178288 -0.604246 -1.061000
v -0.173998 -0.535320 -1.051000
v -0.172602 -0.535614 -1.051102
v -0.171236 -0.535902 -1.051407
v -0.169926 -0.536178 -1.051907
v -0.168700 -0.536436 -1.052592
v -0.167583 -0.536671 -1.053449
v -0.166597 -0.536878 -1.054458
v -0.165762 -0.537054 -1.055600
v -0.165094 -0.537195 -1.056852
v -0.164608 -0.537297 -1.058187
v -0.164312 -0.537359 -1.059579
v -0.164213 -0.537380 -1.061000
v -0.159923 -0.468454 -1.051000
v -0.158527 -0.468748 -1.051102
v -0.157160 -0.469036 -1.051407
v -0.155851 -0.469312 -1.051907
v -0.154625 -0.469570 -1.052592
v -0.153508 -0.469805 -1.053449
v -0.152522 -0.470012 -1.054458
v -0.151687 -0.470188 -1.055600
v -0.151019 -0.470329 -1.056852
v -0.150533 -0.470431 -1.058187
v -0.150237 -0.470493 -1.059579
v -0.150138 -0.470514 -1.061000
f 1 14 2
f 1 13 14
f 2 15 3
f 2 14 15
f 3 16 4
f 3 15 16
f 4 17 5
f 4 16 17
f 5 18 6
f 5 17 18
f 6 19 7
f 6 18 19
f 7 20 8
f 7 19 20
f 8 21 9
f 8 20 21
f 9 22 10
f 9 21 22
f 10 23 11
f 10 22 23
f 11 24 12
f 11 23 24
f 13 26 14
f 13 25 26
f 14 27 15
f 14 26 27
f 15 28 16
f 15 27 28
f 16 29 17
f 16 28 29
f 17 30 18
f 17 29 30
f 18 31 19
f 18 30 31
f 19 32 20
f 19 31 32
f 20 33 21
f 20 32 33
f 21 34 22
f 21 33 34
f 22 35 23
f 22 34 35
f 23 36 24
f 23 35 36
