v 0.409472 0.240744 -2.549899
v 0.461216 0.113598 -2.549899
v -0.455165 0.135832 -2.684798
v 0.409472 0.240744 -2.684798
v 0.461216 0.113598 -2.684798
v -0.455165 0.135832 -2.819697
v 0.409472 0.240744 -2.819697
v 0.461216 0.113598 -2.819697
v -0.455165 0.135832 -2.954596
v 0.409472 0.240744 -2.954596
v 0.461216 0.113598 -2.954596
v -0.455165 0.135832 -3.089494
v -0.125000 0.458258 -2.880000
v -0.124802 0.458312 -2.872895
v -0.124208 0.458474 -2.865872
v -0.123218 0.458741 -2.858921
v -0.121833 0.459110 -2.852032
v -0.120052 0.459579 -2.845198
v -0.117879 0.460142 -2.838437
v -0.115317 0.460790 -2.831778
v -0.112371 0.461517 -2.825252
v -0.109044 0.462314 -2.818888
v -0.105345 0.463171 -2.812713
v -0.101289 0.464075 -2.806749
v -0.096889 0.465014 -2.801021
v -0.092158 0.465974 -2.795551
v -0.087115 0.466943 -2.790360
v -0.081781 0.467906 -2.785470
v -0.076179 0.468851 -2.780898
v -0.070334 0.469764 -2.776665
v -0.064266 0.470632 -2.772786
v -0.058002 0.471444 -2.769273
v -0.051564 0.472192 -2.766132
v -0.044976 0.472866 -2.763372
v -0.038263 0.473456 -2.761000
v -0.031445 0.473957 -2.759020
v -0.024543 0.474365 -2.757434
v -0.017575 0.474675 -2.756242
v -0.010563 0.474882 -2.755447
v -0.003524 0.474986 -2.755049
v 0.003524 0.474986 -2.755049
v 0.010563 0.474882 -2.755447
v 0.017575 0.474675 -2.756242
v 0.024543 0.474365 -2.757434
v 0.031446 0.473957 -2.759020
v 0.038264 0.473456 -2.761000
v 0.044977 0.472866 -2.763372
v 0.051564 0.472192 -2.766132
v 0.058002 0.471444 -2.769273
v 0.064267 0.470632 -2.772786
v 0.070334 0.469764 -2.776665
v 0.076180 0.468851 -2.780898
v 0.081781 0.467906 -2.785470
v 0.087115 0.466943 -2.790361
v 0.092158 0.465974 -2.795551
v 0.096889 0.465014 -2.801021
v 0.101289 0.464075 -2.806750
v 0.105346 0.463171 -2.812713
v 0.109044 0.462314 -2.818888
v 0.112371 0.461517 -2.825252
v 0.115318 0.460790 -2.831779
v 0.117879 0.460142 -2.838437
v 0.120052 0.459579 -2.845198
v 0.121833 0.459110 -2.852032
v 0.123218 0.458740 -2.858921
v 0.124208 0.458474 -2.865872
v 0.124802 0.458312 -2.872895
v 0.125000 0.458258 -2.880000
v 0.124802 0.458312 -2.887105
v 0.124208 0.458474 -2.894128
v 0.123218 0.458741 -2.901079
v 0.121833 0.459110 -2.907968
v 0.120052 0.459579 -2.914802
v 0.117879 0.460142 -2.921563
v 0.115317 0.460790 -2.928222
v 0.112371 0.461517 -2.934748
v 0.109044 0.462314 -2.941112
v 0.105345 0.463171 -2.947287
v 0.101289 0.464075 -2.953251
v 0.096889 0.465014 -2.958979
v 0.092158 0.465974 -2.964449
v 0.087115 0.466943 -2.969640
v 0.081781 0.467906 -2.974530
v 0.076179 0.468851 -2.979102
v 0.070334 0.469764 -2.983335
v 0.064266 0.470632 -2.987214
v 0.058002 0.471444 -2.990727
v 0.051564 0.472192 -2.993868
v 0.044976 0.472866 -2.996628
v 0.038263 0.473456 -2.999000
v 0.031445 0.473957 -3.000980
v 0.024543 0.474365 -3.002566
v 0.017575 0.474675 -3.003758
v 0.010563 0.474882 -3.004553
v 0.003524 0.474986 -3.004951
v -0.003524 0.474986 -3.004951
v -0.010563 0.474882 -3.004553
v -0.017575 0.474675 -3.003758
v -0.024543 0.474365 -3.002566
v -0.031446 0.473957 -3.000980
v -0.038264 0.473456 -2.999000
v -0.044977 0.472866 -2.996628
v -0.051564 0.472192 -2.993868
v -0.058002 0.471444 -2.990727
v -0.064267 0.470632 -2.987214
v -0.070334 0.469764 -2.983335
v -0.076180 0.468851 -2.979102
v -0.081781 0.467906 -2.974530
v -0.087115 0.466943 -2.969639
v -0.092158 0.465974 -2.964449
v -0.096889 0.465014 -2.958979
v -0.101289 0.464075 -2.953250
v -0.105346 0.463171 -2.947287
v -0.109044 0.462314 -2.941112
v -0.112371 0.461517 -2.934748
v -0.115318 0.460790 -2.928221
v -0.117879 0.460142 -2.921563
v -0.120052 0.459579 -2.914802
v -0.121833 0.459110 -2.907968
v -0.123218 0.458740 -2.901079
v -0.124208 0.458474 -2.894128
v 0.472563 0.048055 -2.415000
v 0.475000 0.000000 -2.415000
v 0.475000 0.000000 -3.213787
v 0.470607 0.000000 -3.224393
v 0.468192 0.047610 -3.224393
v -0.468192 0.047610 -3.224393
v -0.470607 0.000000 -3.224393
v -0.475000 0.000000 -3.213787
v -0.475000 0.000000 -2.415000
v -0.455165 0.135832 -2.549899
v 0.323529 0.347784 -2.549899
v 0.323529 0.347784 -2.684798
v 0.323529 0.347784 -2.819697
v 0.323529 0.347784 -2.954596
v -0.472563 0.048055 -2.415000
v 0.465277 0.095617 -2.415000
v 0.460973 0.094732 -3.224393
v -0.460973 0.094732 -3.224393
v 0.210566 0.425778 -2.549899
v 0.210566 0.425778 -2.684798
v 0.210566 0.425778 -2.819697
v 0.210566 0.425778 -2.954596
v -0.124802 0.458312 -2.887105
v -0.465277 0.095617 -2.415000
v 0.453216 0.142197 -2.415000
v 0.449024 0.140882 -3.224393
v -0.449024 0.140882 -3.224393
v 0.080016 0.468212 -2.549899
v 0.080016 0.468212 -2.684798
v 0.080016 0.468212 -2.819697
v 0.080016 0.468212 -2.954596
v -0.453216 0.142197 -2.415000
v 0.436505 0.187319 -2.415000
v 0.432468 0.185586 -3.224393
v -0.432468 0.185586 -3.224393
v -0.057216 0.471541 -2.549899
v -0.057216 0.471541 -2.684798
v -0.057216 0.471541 -2.819697
v -0.057216 0.471541 -2.954596
v -0.436505 0.187319 -2.415000
v 0.415315 0.230518 -2.415000
v 0.411473 0.228386 -3.224393
v -0.411473 0.228386 -3.224393
v -0.189669 0.435489 -2.549899
v -0.189669 0.435489 -2.684798
v -0.189669 0.435489 -2.819697
v -0.189669 0.435489 -2.954596
v -0.415315 0.230518 -2.415000
v 0.389863 0.271352 -2.415000
v 0.386257 0.268843 -3.224393
v -0.386257 0.268843 -3.224393
v -0.306282 0.363065 -2.549899
v -0.306282 0.363065 -2.684798
v -0.306282 0.363065 -2.819697
v -0.306282 0.363065 -2.954596
v -0.389863 0.271352 -2.415000
v 0.360410 0.309402 -2.415000
v 0.357077 0.306540 -3.224393
v -0.357077 0.306540 -3.224393
v -0.397315 0.260319 -2.549899
v -0.397315 0.260319 -2.684798
v -0.397315 0.260319 -2.819697
v -0.397315 0.260319 -2.954596
v 0.461216 0.113598 -3.089494
v 0.327259 0.344277 -2.415000
v 0.324232 0.341092 -3.224393
v -0.324232 0.341092 -3.224393
v -0.360410 0.309402 -2.415000
v 0.290750 0.375618 -2.415000
v 0.288061 0.372144 -3.224393
v -0.288061 0.372144 -3.224393
v -0.327259 0.344277 -2.415000
v 0.251258 0.403106 -2.415000
v 0.248934 0.399378 -3.224393
v -0.248934 0.399378 -3.224393
v -0.290750 0.375618 -2.415000
v 0.209187 0.426457 -2.415000
v 0.207252 0.422513 -3.224393
v -0.207252 0.422513 -3.224393
v -0.251258 0.403106 -2.415000
v 0.164970 0.445432 -2.415000
v 0.163444 0.441312 -3.224393
v -0.163444 0.441312 -3.224393
v -0.209187 0.426457 -2.415000
v 0.119060 0.459837 -2.415000
v 0.117959 0.455583 -3.224393
v -0.117959 0.455583 -3.224393
v -0.397315 0.260319 -3.089494
v -0.164970 0.445432 -2.415000
v 0.071928 0.469522 -2.415000
v 0.071263 0.465180 -3.224393
v -0.071263 0.465180 -3.224393
v -0.306282 0.363065 -3.089494
v -0.119060 0.459837 -2.415000
v 0.024058 0.474390 -2.415000
v 0.023836 0.470003 -3.224393
v -0.023836 0.470003 -3.224393
v -0.189669 0.435489 -3.089494
v -0.071928 0.469522 -2.415000
v -0.024058 0.474390 -2.415000
v -0.057216 0.471541 -3.089494
v 0.080016 0.468212 -3.089494
v 0.210566 0.425778 -3.089494
v 0.323529 0.347784 -3.089494
v 0.409472 0.240744 -3.089494
v -0.057216 0.471541 -2.617348
v 0.011521 0.474860 -2.617348
v -0.124752 0.458325 -2.617348
v -0.189669 0.435489 -2.617348
v -0.250606 0.403512 -2.617348
v -0.306282 0.363065 -2.617348
v -0.355529 0.314998 -2.617348
v -0.397315 0.260319 -2.617348
v -0.057216 0.471541 -2.752247
v 0.011521 0.474860 -2.752247
v -0.124752 0.458325 -2.752247
v -0.189669 0.435489 -2.752247
v -0.250606 0.403512 -2.752247
v -0.306282 0.363065 -2.752247
v -0.355529 0.314998 -2.752247
v -0.397315 0.260319 -2.752247
v -0.057216 0.471541 -2.887146
v 0.011521 0.474860 -2.887146
v -0.124752 0.458325 -2.887146
v -0.189669 0.435489 -2.887146
v -0.250606 0.403512 -2.887146
v -0.306282 0.363065 -2.887146
v -0.355529 0.314998 -2.887146
v -0.397315 0.260319 -2.887146
v -0.057216 0.471541 -3.022045
v 0.011521 0.474860 -3.022045
v -0.124752 0.458325 -3.022045
v -0.189669 0.435489 -3.022045
v -0.250606 0.403512 -3.022045
v -0.306282 0.363065 -3.022045
v -0.355529 0.314998 -3.022045
v -0.397315 0.260319 -3.022045
v 0.210566 0.425778 -2.583624
v 0.179170 0.439913 -2.583624
v 0.269880 0.390884 -2.583624
v 0.297486 0.370307 -2.583624
v -0.306282 0.363065 -2.651073
v -0.279177 0.384298 -2.651073
v -0.331777 0.339925 -2.651073
v -0.355529 0.314998 -2.651073
v -0.377414 0.288416 -2.651073
v -0.397315 0.260319 -2.651073
v -0.415128 0.230854 -2.651073
v 0.210566 0.425778 -2.718523
v 0.179170 0.439913 -2.718523
v 0.269880 0.390884 -2.718523
v 0.297486 0.370307 -2.718523
v -0.306282 0.363065 -2.785972
v -0.279177 0.384298 -2.785972
v -0.331777 0.339925 -2.785972
v -0.355529 0.314998 -2.785972
v -0.377414 0.288416 -2.785972
v -0.397315 0.260319 -2.785972
v -0.415128 0.230854 -2.785972
v 0.210566 0.425778 -2.853421
v 0.179170 0.439913 -2.853421
v 0.269880 0.390884 -2.853421
v 0.297486 0.370307 -2.853421
v -0.306282 0.363065 -2.920871
v -0.279177 0.384298 -2.920871
v -0.331777 0.339925 -2.920871
v -0.355529 0.314998 -2.920871
v -0.377414 0.288416 -2.920871
v -0.397315 0.260319 -2.920871
v -0.415128 0.230854 -2.920871
v 0.210566 0.425778 -2.988320
v 0.179170 0.439913 -2.988320
v 0.269880 0.390884 -2.988320
v 0.297486 0.370307 -2.988320
v -0.306282 0.363065 -3.055770
v -0.279177 0.384298 -3.055770
v -0.331777 0.339925 -3.055770
v -0.355529 0.314998 -3.055770
v -0.377414 0.288416 -3.055770
v -0.397315 0.260319 -3.055770
v -0.415128 0.230854 -3.055770
v 0.113723 0.461186 -2.583624
v 0.080016 0.468212 -2.583624
v 0.113723 0.461186 -2.718523
v 0.080016 0.468212 -2.718523
v 0.113723 0.461186 -2.853421
v 0.080016 0.468212 -2.853421
v 0.113723 0.461186 -2.988320
v 0.080016 0.468212 -2.988320
v 0.011521 0.474860 -2.583624
v -0.022907 0.474447 -2.583624
v 0.011521 0.474860 -2.718523
v -0.022907 0.474447 -2.718523
v 0.011521 0.474860 -2.853421
v -0.022907 0.474447 -2.853421
v 0.011521 0.474860 -2.988320
v -0.022907 0.474447 -2.988320
v -0.091223 0.466158 -2.583624
v -0.124752 0.458325 -2.583624
v -0.091223 0.466158 -2.718523
v -0.124752 0.458325 -2.718523
v -0.091223 0.466158 -2.853421
v -0.124752 0.458325 -2.853421
v -0.091223 0.466158 -2.988320
v -0.124752 0.458325 -2.988320
v -0.189669 0.435489 -2.583624
v -0.220717 0.420605 -2.583624
v -0.189669 0.435489 -2.718523
v -0.220717 0.420605 -2.718523
v -0.189669 0.435489 -2.853421
v -0.220717 0.420605 -2.853421
v -0.189669 0.435489 -2.988320
v -0.220717 0.420605 -2.988320
v -0.279177 0.384298 -2.583624
v -0.306282 0.363065 -2.583624
v -0.279177 0.384298 -2.718523
v -0.306282 0.363065 -2.718523
v -0.279177 0.384298 -2.853421
v -0.306282 0.363065 -2.853421
v -0.279177 0.384298 -2.988320
v -0.306282 0.363065 -2.988320
f 2 262 228
f 227 261 262
f 262 2 261
f 228 264 263
f 264 3 263
f 228 263 227
f 2 261 259
f 261 227 259
f 2 259 1
f 5 273 236
f 235 272 273
f 273 5 272
f 236 275 274
f 275 6 274
f 236 274 235
f 5 272 270
f 272 235 270
f 5 270 4
f 8 284 244
f 243 283 284
f 284 8 283
f 244 286 285
f 286 9 285
f 244 285 243
f 8 283 281
f 283 243 281
f 8 281 7
f 11 295 252
f 251 294 295
f 295 11 294
f 252 297 296
f 297 12 296
f 252 296 251
f 11 294 292
f 294 251 292
f 11 292 10
f 13 14 15
f 15 16 17
f 17 18 19
f 19 20 21
f 21 22 23
f 23 24 25
f 25 26 27
f 27 28 29
f 29 30 31
f 31 32 33
f 33 34 35
f 35 36 37
f 37 38 39
f 39 40 41
f 41 42 43
f 43 44 45
f 45 46 47
f 47 48 49
f 49 50 51
f 51 52 53
f 53 54 55
f 55 56 57
f 57 58 59
f 59 60 61
f 61 62 63
f 63 64 65
f 65 66 67
f 67 68 69
f 69 70 71
f 71 72 73
f 73 74 75
f 75 76 77
f 77 78 79
f 79 80 81
f 81 82 83
f 83 84 85
f 85 86 87
f 87 88 89
f 89 90 91
f 91 92 93
f 93 94 95
f 95 96 97
f 97 98 99
f 99 100 101
f 101 102 103
f 103 104 105
f 105 106 107
f 107 108 109
f 109 110 111
f 111 112 113
f 113 114 115
f 115 116 117
f 117 118 119
f 119 120 121
f 122 123 124
f 124 125 126
f 127 128 129
f 129 130 131
f 1 259 227
f 229 260 259
f 259 1 260
f 227 263 265
f 263 3 265
f 227 265 229
f 1 260 303
f 260 229 303
f 1 303 132
f 4 270 235
f 237 271 270
f 270 4 271
f 235 274 276
f 274 6 276
f 235 276 237
f 4 271 305
f 271 237 305
f 4 305 133
f 7 281 243
f 245 282 281
f 281 7 282
f 243 285 287
f 285 9 287
f 243 287 245
f 7 282 307
f 282 245 307
f 7 307 134
f 10 292 251
f 253 293 292
f 292 10 293
f 251 296 298
f 296 12 298
f 251 298 253
f 10 293 309
f 293 253 309
f 10 309 135
f 13 15 17
f 17 19 21
f 21 23 25
f 25 27 29
f 29 31 33
f 33 35 37
f 37 39 41
f 41 43 45
f 45 47 49
f 49 51 53
f 53 55 57
f 57 59 61
f 61 63 65
f 65 67 69
f 69 71 73
f 73 75 77
f 77 79 81
f 81 83 85
f 85 87 89
f 89 91 93
f 93 95 97
f 97 99 101
f 101 103 105
f 105 107 109
f 109 111 113
f 113 115 117
f 117 119 121
f 131 130 136
f 137 122 124
f 124 126 138
f 139 127 129
f 132 303 229
f 230 304 303
f 303 132 304
f 229 265 266
f 265 3 266
f 229 266 230
f 132 304 311
f 304 230 311
f 132 311 140
f 133 305 237
f 238 306 305
f 305 133 306
f 237 276 277
f 276 6 277
f 237 277 238
f 133 306 313
f 306 238 313
f 133 313 141
f 134 307 245
f 246 308 307
f 307 134 308
f 245 287 288
f 287 9 288
f 245 288 246
f 134 308 315
f 308 246 315
f 134 315 142
f 135 309 253
f 254 310 309
f 309 135 310
f 253 298 299
f 298 12 299
f 253 299 254
f 135 310 317
f 310 254 317
f 135 317 143
f 13 17 21
f 21 25 29
f 29 33 37
f 37 41 45
f 45 49 53
f 53 57 61
f 61 65 69
f 69 73 77
f 77 81 85
f 85 89 93
f 93 97 101
f 101 105 109
f 109 113 117
f 117 121 144
f 131 136 145
f 146 137 124
f 124 138 147
f 148 139 129
f 140 311 230
f 231 312 311
f 311 140 312
f 230 266 267
f 266 3 267
f 230 267 231
f 140 312 319
f 312 231 319
f 140 319 149
f 141 313 238
f 239 314 313
f 313 141 314
f 238 277 278
f 277 6 278
f 238 278 239
f 141 314 321
f 314 239 321
f 141 321 150
f 142 315 246
f 247 316 315
f 315 142 316
f 246 288 289
f 288 9 289
f 246 289 247
f 142 316 323
f 316 247 323
f 142 323 151
f 143 317 254
f 255 318 317
f 317 143 318
f 254 299 300
f 299 12 300
f 254 300 255
f 143 318 325
f 318 255 325
f 143 325 152
f 13 21 29
f 29 37 45
f 45 53 61
f 61 69 77
f 77 85 93
f 93 101 109
f 109 117 144
f 131 145 153
f 154 146 124
f 124 147 155
f 156 148 129
f 149 319 231
f 232 320 319
f 319 149 320
f 231 267 268
f 267 3 268
f 231 268 232
f 149 320 327
f 320 232 327
f 149 327 157
f 150 321 239
f 240 322 321
f 321 150 322
f 239 278 279
f 278 6 279
f 239 279 240
f 150 322 329
f 322 240 329
f 150 329 158
f 151 323 247
f 248 324 323
f 323 151 324
f 247 289 290
f 289 9 290
f 247 290 248
f 151 324 331
f 324 248 331
f 151 331 159
f 152 325 255
f 256 326 325
f 325 152 326
f 255 300 301
f 300 12 301
f 255 301 256
f 152 326 333
f 326 256 333
f 152 333 160
f 13 29 45
f 45 61 77
f 77 93 109
f 131 153 161
f 162 154 124
f 124 155 163
f 164 156 129
f 157 327 232
f 233 328 327
f 327 157 328
f 232 268 269
f 268 3 269
f 232 269 233
f 157 328 335
f 328 233 335
f 157 335 165
f 158 329 240
f 241 330 329
f 329 158 330
f 240 279 280
f 279 6 280
f 240 280 241
f 158 330 337
f 330 241 337
f 158 337 166
f 159 331 248
f 249 332 331
f 331 159 332
f 248 290 291
f 290 9 291
f 248 291 249
f 159 332 339
f 332 249 339
f 159 339 167
f 160 333 256
f 257 334 333
f 333 160 334
f 256 301 302
f 301 12 302
f 256 302 257
f 160 334 341
f 334 257 341
f 160 341 168
f 13 45 77
f 77 109 144
f 131 161 169
f 170 162 124
f 124 163 171
f 172 164 129
f 165 335 233
f 234 336 335
f 335 165 336
f 233 269 234
f 269 3 234
f 165 336 173
f 336 234 173
f 166 337 241
f 242 338 337
f 337 166 338
f 241 280 242
f 280 6 242
f 166 338 174
f 338 242 174
f 167 339 249
f 250 340 339
f 339 167 340
f 249 291 250
f 291 9 250
f 167 340 175
f 340 250 175
f 168 341 257
f 258 342 341
f 341 168 342
f 257 302 258
f 302 12 258
f 168 342 176
f 342 258 176
f 13 77 144
f 131 169 177
f 178 170 124
f 124 171 179
f 180 172 129
f 173 234 181
f 234 3 181
f 174 242 182
f 242 6 182
f 175 250 183
f 250 9 183
f 176 258 184
f 258 12 184
f 185 13 144
f 144 131 177
f 186 178 124
f 124 179 187
f 188 180 129
f 131 181 3
f 3 182 6
f 6 183 9
f 9 184 12
f 144 177 189
f 190 186 124
f 124 187 191
f 192 188 129
f 129 131 3
f 144 189 193
f 194 190 124
f 124 191 195
f 196 192 129
f 129 3 6
f 144 193 197
f 198 194 124
f 124 195 199
f 200 196 129
f 129 6 9
f 144 197 201
f 202 198 124
f 124 199 203
f 204 200 129
f 129 9 12
f 144 201 205
f 206 202 124
f 124 203 207
f 208 204 129
f 129 12 209
f 144 205 210
f 211 206 124
f 124 207 212
f 213 208 129
f 129 209 214
f 144 210 215
f 216 211 124
f 124 212 217
f 218 213 129
f 129 214 219
f 144 215 220
f 124 217 218
f 218 129 219
f 144 220 221
f 124 218 219
f 144 221 216
f 124 219 222
f 124 222 223
f 124 223 224
f 124 224 225
f 124 225 226
f 124 226 185
f 216 124 185
