v 2.325000 0.000000 -5.238000
v 2.324974 0.014330 -5.238000
v 2.325000 0.000000 -4.664620
v 2.324941 0.021648 -4.664848
v 2.324896 0.028660 -5.238000
v 2.324768 0.042963 -4.665521
v 2.324766 0.042990 -5.238000
v 2.324584 0.057319 -5.238000
v 2.324485 0.063948 -4.666624
v 2.324350 0.071647 -5.238000
v 2.324097 0.084602 -4.668139
v 2.324064 0.085975 -5.238000
v 2.323726 0.100301 -5.238000
v 2.323610 0.104927 -4.670049
v 2.323336 0.114626 -5.238000
v 2.323028 0.124923 -4.672339
v 2.322895 0.128950 -5.238000
v 2.322401 0.143271 -5.238000
v 2.322355 0.144593 -4.674991
v 2.321855 0.157591 -5.238000
v 2.321598 0.163936 -4.677989
v 2.321257 0.171909 -5.238000
v 2.320761 0.182954 -4.681316
v 2.320608 0.186225 -5.238000
v 2.319906 0.200538 -5.238000
v 2.319849 0.201647 -4.684956
v 2.319153 0.214848 -5.238000
v 2.318866 0.220013 -4.688893
v 2.318347 0.229156 -5.238000
v 2.317818 0.238049 -4.693112
v 2.317490 0.243460 -5.238000
v 2.316709 0.255750 -4.697599
v 2.316581 0.257762 -5.238000
v 2.315620 0.272060 -5.238000
v 2.315544 0.273114 -4.702339
v 2.314607 0.286354 -5.238000
v 2.314327 0.290136 -4.707316
v 2.313542 0.300645 -5.238000
v 2.313064 0.306814 -4.712517
v 2.312425 0.314931 -5.238000
v 2.311758 0.323143 -4.717926
v 2.311257 0.329214 -5.238000
v 2.310415 0.339121 -4.723528
v 2.310037 0.343492 -5.238000
v 2.309040 0.354744 -4.729308
v 2.308765 0.357766 -5.238000
v 2.307635 0.370014 -4.735256
v 2.307441 0.372035 -5.238000
v 2.306203 0.384940 -4.741362
v 2.306065 0.386299 -5.238000
v 2.304749 0.399527 -4.747617
v 2.304638 0.400558 -5.238000
v 2.303273 0.413783 -4.754010
v 2.303159 0.414812 -5.238000
v 2.301780 0.427714 -4.760534
v 2.301628 0.429060 -5.238000
v 2.300272 0.441326 -4.767178
v 2.300046 0.443303 -5.238000
v 2.298752 0.454628 -4.773934
v 2.298411 0.457539 -5.238000
v 2.297223 0.467625 -4.780791
v 2.296726 0.471770 -5.238000
v 2.295687 0.480325 -4.787741
v 2.294988 0.485995 -5.238000
v 2.294147 0.492733 -4.794777
v 2.293199 0.500213 -5.238000
v 2.292604 0.504856 -4.801892
v 2.291359 0.514425 -5.238000
v 2.291060 0.516700 -4.809082
v 2.289517 0.528269 -4.816340
v 2.289467 0.528629 -5.238000
v 2.287975 0.539571 -4.823663
v 2.287523 0.542827 -5.238000
v 2.286436 0.550611 -4.831043
v 2.285528 0.557018 -5.238000
v 2.284903 0.561395 -4.838475
v 2.283482 0.571201 -5.238000
v 2.283375 0.571928 -4.845955
v 2.281856 0.582217 -4.853477
v 2.281384 0.585377 -5.238000
v 2.280345 0.592268 -4.861036
v 2.279234 0.599545 -5.238000
v 2.278845 0.602085 -4.868629
v 2.277354 0.611674 -4.876254
v 2.277034 0.613706 -5.238000
v 2.275875 0.621040 -4.883907
v 2.274781 0.627858 -5.238000
v 2.274407 0.630189 -4.891585
v 2.272952 0.639126 -4.899285
v 2.272478 0.642002 -5.238000
v 2.271510 0.647856 -4.907005
v 2.270123 0.656137 -5.238000
v 2.270082 0.656385 -4.914742
v 2.268668 0.664718 -4.922492
v 2.267717 0.670264 -5.238000
v 2.267269 0.672860 -4.930253
v 2.265886 0.680813 -4.938021
v 2.265260 0.684382 -5.238000
v 2.264519 0.688582 -4.945794
v 2.263168 0.696169 -4.953568
v 2.262751 0.698491 -5.238000
v 2.261835 0.703577 -4.961340
v 2.260518 0.710810 -4.969107
v 2.260192 0.712591 -5.238000
v 2.259220 0.717870 -4.976867
v 2.257940 0.724760 -4.984616
v 2.257581 0.726681 -5.238000
v 2.256679 0.731484 -4.992350
v 2.255928 0.735457 -4.996998
v 2.255181 0.739387 -5.001644
v 2.254919 0.740762 -5.238000
v 2.254439 0.743273 -5.006289
v 2.253701 0.747116 -5.010931
v 2.252967 0.750916 -5.015572
v 2.252238 0.754673 -5.020209
v 2.252206 0.754833 -5.238000
v 2.251513 0.758389 -5.024844
v 2.250792 0.762063 -5.029475
v 2.250076 0.765696 -5.034101
v 2.249442 0.768894 -5.238000
v 2.249365 0.769288 -5.038724
v 2.248658 0.772840 -5.043341
v 2.247955 0.776351 -5.047954
v 2.247258 0.779823 -5.052561
v 2.246627 0.782945 -5.238000
v 2.246565 0.783256 -5.057162
v 2.245877 0.786649 -5.061756
v 2.245193 0.790004 -5.066344
v 2.244515 0.793321 -5.070925
v 2.243841 0.796599 -5.075498
v 2.243761 0.796986 -5.238000
v 2.243172 0.799841 -5.080063
v 2.242508 0.803045 -5.084620
v 2.241849 0.806213 -5.089169
v 2.241195 0.809345 -5.093709
v 2.240844 0.811017 -5.238000
v 2.240546 0.812440 -5.098241
v 2.239901 0.815501 -5.102764
v 2.239262 0.818526 -5.107278
v 2.238627 0.821517 -5.111784
v 2.237997 0.824474 -5.116280
v 2.237877 0.825036 -5.238000
v 2.237372 0.827397 -5.120768
v 2.236752 0.830287 -5.125246
v 2.236137 0.833144 -5.129715
v 2.235526 0.835969 -5.134174
v 2.234920 0.838761 -5.138624
v 2.234858 0.839045 -5.238000
v 2.234319 0.841522 -5.143064
v 2.233723 0.844252 -5.147494
v 2.233131 0.846951 -5.151914
v 2.232544 0.849620 -5.156325
v 2.231962 0.852259 -5.160725
v 2.231789 0.853043 -5.238000
v 2.231384 0.854868 -5.165115
v 2.230812 0.857448 -5.169494
v 2.230243 0.859999 -5.173863
v 2.229680 0.862521 -5.178220
v 2.229121 0.865015 -5.182567
v 2.228668 0.867029 -5.238000
v 2.228567 0.867481 -5.186903
v 2.228017 0.869919 -5.191227
v 2.227472 0.872329 -5.195540
v 2.226932 0.874712 -5.199842
v 2.226397 0.877067 -5.204131
v 2.225865 0.879396 -5.208408
v 2.225498 0.881004 -5.238000
v 2.225339 0.881698 -5.212674
v 2.224817 0.883974 -5.216927
v 2.224300 0.886224 -5.221167
v 2.223787 0.888448 -5.225395
v 2.223279 0.890646 -5.229610
v 2.222775 0.892819 -5.233811
v 2.222276 0.894968 -5.238000
f 1 2 3
f 2 4 3
f 2 5 4
f 5 6 4
f 5 7 6
f 7 8 6
f 8 9 6
f 8 10 9
f 10 11 9
f 10 12 11
f 12 13 11
f 13 14 11
f 13 15 14
f 15 16 14
f 15 17 16
f 17 18 16
f 18 19 16
f 18 20 19
f 20 21 19
f 20 22 21
f 22 23 21
f 22 24 23
f 24 25 23
f 25 26 23
f 25 27 26
f 27 28 26
f 27 29 28
f 29 30 28
f 29 31 30
f 31 32 30
f 31 33 32
f 33 34 32
f 34 35 32
f 34 36 35
f 36 37 35
f 36 38 37
f 38 39 37
f 38 40 39
f 40 41 39
f 40 42 41
f 42 43 41
f 42 44 43
f 44 45 43
f 44 46 45
f 46 47 45
f 46 48 47
f 48 49 47
f 48 50 49
f 50 51 49
f 50 52 51
f 52 53 51
f 52 54 53
f 54 55 53
f 54 56 55
f 56 57 55
f 56 58 57
f 58 59 57
f 58 60 59
f 60 61 59
f 60 62 61
f 62 63 61
f 62 64 63
f 64 65 63
f 64 66 65
f 66 67 65
f 66 68 67
f 68 69 67
f 68 70 69
f 68 71 70
f 71 72 70
f 71 73 72
f 73 74 72
f 73 75 74
f 75 76 74
f 75 77 76
f 77 78 76
f 77 79 78
f 77 80 79
f 80 81 79
f 80 82 81
f 82 83 81
f 82 84 83
f 82 85 84
f 85 86 84
f 85 87 86
f 87 88 86
f 87 89 88
f 87 90 89
f 90 91 89
f 90 92 91
f 92 93 91
f 92 94 93
f 92 95 94
f 95 96 94
f 95 97 96
f 95 98 97
f 98 99 97
f 98 100 99
f 98 101 100
f 101 102 100
f 101 103 102
f 101 104 103
f 104 105 103
f 104 106 105
f 104 107 106
f 107 108 106
f 107 109 108
f 107 110 109
f 107 111 110
f 111 112 110
f 111 113 112
f 111 114 113
f 111 115 114
f 111 116 115
f 116 117 115
f 116 118 117
f 116 119 118
f 116 120 119
f 120 121 119
f 120 122 121
f 120 123 122
f 120 124 123
f 120 125 124
f 125 126 124
f 125 127 126
f 125 128 127
f 125 129 128
f 125 130 129
f 125 131 130
f 131 132 130
f 131 133 132
f 131 134 133
f 131 135 134
f 131 136 135
f 136 137 135
f 136 138 137
f 136 139 138
f 136 140 139
f 136 141 140
f 136 142 141
f 142 143 141
f 142 144 143
f 142 145 144
f 142 146 145
f 142 147 146
f 142 148 147
f 148 149 147
f 148 150 149
f 148 151 150
f 148 152 151
f 148 153 152
f 148 154 153
f 154 155 153
f 154 156 155
f 154 157 156
f 154 158 157
f 154 159 158
f 154 160 159
f 160 161 159
f 160 162 161
f 160 163 162
f 160 164 163
f 160 165 164
f 160 166 165
f 160 167 166
f 167 168 166
f 167 169 168
f 167 170 169
f 167 171 170
f 167 172 171
f 167 173 172
f 167 174 173
