v -0.433681 1.338081 0.154274
v -0.404403 1.338081 0.151391
v -0.553148 1.325000 0.186765
v -0.561416 1.326421 0.190434
v -0.569613 1.327894 0.194284
v -0.577736 1.329417 0.198313
v -0.585779 1.330986 0.202521
v -0.593739 1.332598 0.206907
v -0.601611 1.334249 0.211471
v -0.609391 1.335938 0.216213
v -0.617074 1.337660 0.221131
v -0.624656 1.339412 0.226226
v -0.632133 1.341192 0.231497
v -0.639500 1.342996 0.236943
v -0.646754 1.344821 0.242564
v -0.653889 1.346662 0.248355
v -0.660904 1.348517 0.254315
v -0.667793 1.350379 0.260439
v -0.674553 1.352246 0.266724
v -0.813300 1.392104 0.590254
v -0.813544 1.391718 0.600000
v -0.810747 1.399149 0.600000
v -0.632938 1.524842 0.600000
v -0.625000 1.525000 0.600000
v -0.624679 1.525000 0.587338
v -0.613535 1.525000 0.525159
v -0.617019 1.525000 0.537337
v -0.457254 1.325000 0.157581
v -0.604739 1.525000 0.501411
v -0.609438 1.525000 0.513174
v -0.593587 1.525000 0.478675
v -0.599451 1.525000 0.489901
v -0.580191 1.525000 0.457183
v -0.587161 1.525000 0.467759
v -0.564690 1.525000 0.437157
v -0.572694 1.525000 0.446974
v -0.428053 1.325000 0.153138
v -0.528026 1.525000 0.402306
v -0.537843 1.525000 0.410310
v -0.507241 1.525000 0.387839
v -0.517817 1.525000 0.394809
v -0.485099 1.525000 0.375549
v -0.496325 1.525000 0.381413
v -0.461826 1.525000 0.365562
v -0.473589 1.525000 0.370261
v -0.437663 1.525000 0.357981
v -0.449841 1.525000 0.361465
v -0.375000 1.520906 0.309740
v -0.412857 1.525000 0.352883
v -0.425325 1.525000 0.355118
v -0.375000 1.524743 0.339870
v -0.375000 1.525000 0.350000
v -0.387662 1.525000 0.350321
v -0.375000 1.523974 0.329766
v -0.375000 1.522694 0.319714
v -0.400292 1.525000 0.351283
v -0.375000 1.515828 0.290127
v -0.375000 1.518615 0.299869
v -0.375000 1.508792 0.271129
v -0.375000 1.512550 0.280539
v -0.375000 1.499869 0.252940
v -0.375000 1.504561 0.261921
v -0.375000 1.489153 0.235746
v -0.375000 1.494729 0.244207
v -0.375000 1.476752 0.219726
v -0.375000 1.483155 0.227579
v -0.375000 1.462793 0.205041
v -0.375000 1.469959 0.212207
v -0.398623 1.325000 0.150620
v -0.375000 1.447421 0.191845
v -0.375000 1.455274 0.198248
v -0.375000 1.413079 0.170439
v -0.375000 1.422060 0.175131
v -0.375000 1.394461 0.162450
v -0.375000 1.403871 0.166208
v -0.375000 1.375131 0.156385
v -0.375000 1.384873 0.159172
v -0.375000 1.335130 0.150257
v -0.375000 1.345234 0.151026
v -0.375000 1.325000 0.150000
v -0.380908 1.325000 0.150039
v -0.542236 1.325000 0.182230
v -0.547707 1.325000 0.184461
v -0.637517 1.524572 0.582794
v -0.409339 1.524572 0.339170
v -0.392206 1.524572 0.337483
v -0.650514 1.523289 0.581942
v -0.411039 1.523289 0.326257
v -0.393058 1.523289 0.324486
v -0.663399 1.521157 0.581097
v -0.412724 1.521157 0.313455
v -0.393903 1.521157 0.311601
v -0.676118 1.518185 0.580264
v -0.414388 1.518185 0.300818
v -0.394736 1.518185 0.298882
v -0.688615 1.514386 0.579445
v -0.416023 1.514386 0.288401
v -0.395555 1.514386 0.286385
v -0.700838 1.509776 0.578643
v -0.417622 1.509776 0.276257
v -0.396357 1.509776 0.274162
v -0.712733 1.504375 0.577864
v -0.419178 1.504375 0.264438
v -0.397136 1.504375 0.262267
v -0.724251 1.498205 0.577109
v -0.420684 1.498205 0.252994
v -0.397891 1.498205 0.250749
v -0.735341 1.491294 0.576382
v -0.422135 1.491294 0.241975
v -0.398618 1.491294 0.239659
v -0.745956 1.483671 0.575686
v -0.423523 1.483671 0.231428
v -0.399314 1.483671 0.229044
v -0.756052 1.475368 0.575025
v -0.424844 1.475368 0.221398
v -0.399975 1.475368 0.218948
v -0.765583 1.466421 0.574400
v -0.426091 1.466421 0.211927
v -0.400600 1.466421 0.209417
v -0.774511 1.456869 0.573815
v -0.427259 1.456869 0.203057
v -0.401185 1.456869 0.200489
v -0.782796 1.446752 0.573272
v -0.428342 1.446752 0.194826
v -0.401728 1.446752 0.192204
v -0.790403 1.436114 0.572773
v -0.429337 1.436114 0.187268
v -0.402227 1.436114 0.184597
v -0.797299 1.425000 0.572321
v -0.430239 1.425000 0.180415
v -0.402679 1.425000 0.177701
v -0.803455 1.413458 0.571918
v -0.431045 1.413458 0.174299
v -0.403082 1.413458 0.171545
v -0.808845 1.401537 0.571564
v -0.431750 1.401537 0.168944
v -0.403436 1.401537 0.166155
v -0.791068 1.389288 0.458764
v -0.432351 1.389288 0.164373
v -0.403737 1.389288 0.161555
v -0.743495 1.376764 0.353780
v -0.432847 1.376764 0.160606
v -0.403986 1.376764 0.157764
v -0.710439 1.364018 0.305828
v -0.433235 1.364018 0.157660
v -0.404180 1.364018 0.154798
v -0.647901 1.351105 0.244348
v -0.433513 1.351105 0.155546
v -0.404320 1.351105 0.152671
v -0.599786 1.338081 0.210659
v -0.462707 1.338081 0.159067
v -0.812873 1.392399 0.580533
v -0.640863 1.524370 0.600000
v -0.547242 1.525000 0.418802
v -0.375000 1.430793 0.180271
v -0.375000 1.355286 0.152306
v -0.386816 1.325000 0.150155
v -0.426324 1.524572 0.341974
v -0.428865 1.523289 0.329200
v -0.431385 1.521157 0.316535
v -0.433871 1.518185 0.304034
v -0.436315 1.514386 0.291751
v -0.438704 1.509776 0.279738
v -0.441030 1.504375 0.268046
v -0.443282 1.498205 0.256725
v -0.445450 1.491294 0.245825
v -0.447525 1.483671 0.235391
v -0.449499 1.475368 0.225468
v -0.451363 1.466421 0.216100
v -0.453108 1.456869 0.207325
v -0.454728 1.446752 0.199182
v -0.456215 1.436114 0.191705
v -0.457563 1.425000 0.184927
v -0.458767 1.413458 0.178876
v -0.459821 1.401537 0.173578
v -0.460720 1.389288 0.169057
v -0.461461 1.376764 0.165331
v -0.462041 1.364018 0.162416
v -0.462457 1.351105 0.160325
v -0.491358 1.338081 0.165747
v -0.812265 1.392604 0.570837
v -0.648763 1.523583 0.600000
v -0.556198 1.525000 0.427758
v -0.375000 1.439254 0.185847
v -0.375000 1.365260 0.154094
v -0.392721 1.325000 0.150349
v -0.443090 1.524572 0.345884
v -0.446461 1.523289 0.333303
v -0.449803 1.521157 0.320830
v -0.453102 1.518185 0.308519
v -0.456344 1.514386 0.296421
v -0.459514 1.509776 0.284590
v -0.462599 1.504375 0.273075
v -0.465587 1.498205 0.261926
v -0.468463 1.491294 0.251191
v -0.471217 1.483671 0.240915
v -0.473835 1.475368 0.231143
v -0.476307 1.466421 0.221916
v -0.478623 1.456869 0.213274
v -0.480772 1.446752 0.205254
v -0.482745 1.436114 0.197891
v -0.484534 1.425000 0.191215
v -0.486130 1.413458 0.185256
v -0.487528 1.401537 0.180039
v -0.488721 1.389288 0.175586
v -0.489705 1.376764 0.171916
v -0.490474 1.364018 0.169045
v -0.491026 1.351105 0.166986
v -0.519510 1.338081 0.174287
v -0.811475 1.392719 0.561169
v -0.656626 1.522484 0.600000
v -0.459564 1.524572 0.350881
v -0.463751 1.523289 0.338548
v -0.467902 1.521157 0.326320
v -0.471999 1.518185 0.314251
v -0.476025 1.514386 0.302391
v -0.479962 1.509776 0.290793
v -0.483794 1.504375 0.279504
v -0.487504 1.498205 0.268574
v -0.491076 1.491294 0.258050
v -0.494496 1.483671 0.247977
v -0.497748 1.475368 0.238397
v -0.500818 1.466421 0.229351
v -0.503694 1.456869 0.220879
v -0.506363 1.446752 0.213017
v -0.508813 1.436114 0.205799
v -0.511035 1.425000 0.199254
v -0.513018 1.413458 0.193412
v -0.514754 1.401537 0.188298
v -0.516236 1.389288 0.183932
v -0.517457 1.376764 0.180335
v -0.518412 1.364018 0.177520
v -0.519098 1.351105 0.175502
v -0.547044 1.338081 0.184650
v -0.681180 1.354112 0.273166
v -0.810503 1.392747 0.551531
v -0.664439 1.521073 0.600000
v -0.475677 1.524572 0.356945
v -0.480661 1.523289 0.344912
v -0.485602 1.521157 0.332982
v -0.490480 1.518185 0.321207
v -0.495273 1.514386 0.309636
v -0.499960 1.509776 0.298319
v -0.504522 1.504375 0.287306
v -0.508939 1.498205 0.276642
v -0.513192 1.491294 0.266374
v -0.517263 1.483671 0.256546
v -0.521135 1.475368 0.247199
v -0.524790 1.466421 0.238374
v -0.528214 1.456869 0.230108
v -0.531392 1.446752 0.222438
v -0.534309 1.436114 0.215395
v -0.536954 1.425000 0.209009
v -0.539315 1.413458 0.203310
v -0.541382 1.401537 0.198319
v -0.543146 1.389288 0.194060
v -0.544600 1.376764 0.190550
v -0.545737 1.364018 0.187805
v -0.546553 1.351105 0.185835
v -0.573841 1.338081 0.196791
v -0.687670 1.355974 0.279763
v -0.809350 1.392686 0.541925
v -0.672190 1.519353 0.600000
v -0.491358 1.524572 0.364050
v -0.497118 1.523289 0.352369
v -0.502829 1.521157 0.340788
v -0.508467 1.518185 0.329356
v -0.514006 1.514386 0.318124
v -0.519423 1.509776 0.307138
v -0.524696 1.504375 0.296446
v -0.529801 1.498205 0.286095
v -0.534717 1.491294 0.276127
v -0.539422 1.483671 0.266585
v -0.543896 1.475368 0.257512
v -0.548121 1.466421 0.248945
v -0.552078 1.456869 0.240921
v -0.555750 1.446752 0.233474
v -0.559122 1.436114 0.226637
v -0.562179 1.425000 0.220439
v -0.564908 1.413458 0.214906
v -0.567296 1.401537 0.210061
v -0.569335 1.389288 0.205927
v -0.571016 1.376764 0.202519
v -0.572330 1.364018 0.199854
v -0.573273 1.351105 0.197942
v -0.694020 1.357827 0.286510
v -0.808016 1.392539 0.532353
v -0.679867 1.517327 0.600000
v -0.506540 1.524572 0.372165
v -0.513053 1.523289 0.360886
v -0.519509 1.521157 0.349703
v -0.525882 1.518185 0.338665
v -0.532144 1.514386 0.327819
v -0.538268 1.509776 0.317211
v -0.544229 1.504375 0.306887
v -0.550000 1.498205 0.296891
v -0.555557 1.491294 0.287266
v -0.560876 1.483671 0.278053
v -0.565935 1.475368 0.269292
v -0.570711 1.466421 0.261019
v -0.575184 1.456869 0.253271
v -0.579335 1.446752 0.246081
v -0.583147 1.436114 0.239479
v -0.586603 1.425000 0.233494
v -0.589687 1.413458 0.228151
v -0.592388 1.401537 0.223473
v -0.594693 1.389288 0.219481
v -0.596593 1.376764 0.216190
v -0.598079 1.364018 0.213617
v -0.599144 1.351105 0.211770
v -0.806501 1.392305 0.522816
v -0.687457 1.514998 0.600000
v -0.521160 1.524572 0.381256
v -0.528396 1.523289 0.370427
v -0.535570 1.521157 0.359690
v -0.542651 1.518185 0.349093
v -0.549609 1.514386 0.338679
v -0.556414 1.509776 0.328495
v -0.563037 1.504375 0.318583
v -0.569450 1.498205 0.308986
v -0.575624 1.491294 0.299745
v -0.581535 1.483671 0.290899
v -0.587155 1.475368 0.282487
v -0.592462 1.466421 0.274545
v -0.597433 1.456869 0.267106
v -0.602045 1.446752 0.260203
v -0.606281 1.436114 0.253864
v -0.610120 1.425000 0.248118
v -0.613548 1.413458 0.242988
v -0.616549 1.401537 0.238497
v -0.619110 1.389288 0.234664
v -0.621220 1.376764 0.231505
v -0.622872 1.364018 0.229034
v -0.624056 1.351105 0.227261
v -0.700226 1.359668 0.293403
v -0.804806 1.391987 0.513317
v -0.694948 1.512369 0.600000
v -0.404521 1.325000 0.150969
v -0.535153 1.524572 0.391284
v -0.543082 1.523289 0.380951
v -0.550943 1.521157 0.370707
v -0.558702 1.518185 0.360595
v -0.566326 1.514386 0.350659
v -0.573783 1.509776 0.340941
v -0.581040 1.504375 0.331483
v -0.588067 1.498205 0.322326
v -0.594832 1.491294 0.313509
v -0.601308 1.483671 0.305069
v -0.607467 1.475368 0.297043
v -0.613282 1.466421 0.289465
v -0.618729 1.456869 0.282367
v -0.623783 1.446752 0.275780
v -0.628424 1.436114 0.269732
v -0.632631 1.425000 0.264249
v -0.636387 1.413458 0.259354
v -0.639675 1.401537 0.255069
v -0.642481 1.389288 0.251412
v -0.644794 1.376764 0.248398
v -0.646603 1.364018 0.246040
v -0.706283 1.361491 0.300441
v -0.802930 1.391584 0.503858
v -0.702330 1.509445 0.600000
v -0.410414 1.325000 0.151396
v -0.548461 1.524572 0.402206
v -0.557049 1.523289 0.392413
v -0.565563 1.521157 0.382705
v -0.573967 1.518185 0.373122
v -0.582224 1.514386 0.363706
v -0.590301 1.509776 0.354497
v -0.598161 1.504375 0.345534
v -0.605771 1.498205 0.336856
v -0.613099 1.491294 0.328500
v -0.620113 1.483671 0.320502
v -0.626784 1.475368 0.312896
v -0.633082 1.466421 0.305714
v -0.638981 1.456869 0.298987
v -0.644455 1.446752 0.292745
v -0.649482 1.436114 0.287014
v -0.654039 1.425000 0.281818
v -0.658106 1.413458 0.277179
v -0.661668 1.401537 0.273118
v -0.664707 1.389288 0.269652
v -0.667212 1.376764 0.266796
v -0.669172 1.364018 0.264561
v -0.800875 1.391097 0.494440
v -0.709589 1.506231 0.600000
v -0.416301 1.325000 0.151899
v -0.561026 1.524572 0.413974
v -0.570236 1.523289 0.404764
v -0.579367 1.521157 0.395633
v -0.588379 1.518185 0.386621
v -0.597235 1.514386 0.377765
v -0.605896 1.509776 0.369104
v -0.614326 1.504375 0.360674
v -0.622487 1.498205 0.352513
v -0.630346 1.491294 0.344654
v -0.637869 1.483671 0.337131
v -0.645022 1.475368 0.329978
v -0.651777 1.466421 0.323223
v -0.658103 1.456869 0.316897
v -0.663974 1.446752 0.311026
v -0.669364 1.436114 0.305636
v -0.674251 1.425000 0.300749
v -0.678614 1.413458 0.296386
v -0.682433 1.401537 0.292567
v -0.685693 1.389288 0.289307
v -0.688379 1.376764 0.286621
v -0.690481 1.364018 0.284519
v -0.712189 1.363292 0.307618
v -0.798640 1.390527 0.485067
v -0.716716 1.502731 0.600000
v -0.422181 1.325000 0.152480
v -0.572794 1.524572 0.426539
v -0.582587 1.523289 0.417951
v -0.592295 1.521157 0.409437
v -0.601878 1.518185 0.401033
v -0.611294 1.514386 0.392776
v -0.620503 1.509776 0.384699
v -0.629466 1.504375 0.376839
v -0.638144 1.498205 0.369229
v -0.646500 1.491294 0.361901
v -0.654498 1.483671 0.354887
v -0.662104 1.475368 0.348216
v -0.669286 1.466421 0.341918
v -0.676013 1.456869 0.336019
v -0.682255 1.446752 0.330545
v -0.687986 1.436114 0.325518
v -0.693182 1.425000 0.320961
v -0.697821 1.413458 0.316894
v -0.701882 1.401537 0.313332
v -0.705348 1.389288 0.310293
v -0.708204 1.376764 0.307788
v -0.717940 1.365068 0.314932
v -0.796226 1.389877 0.475742
v -0.723697 1.498951 0.600000
v -0.583716 1.524572 0.439847
v -0.594049 1.523289 0.431918
v -0.604293 1.521157 0.424057
v -0.614405 1.518185 0.416298
v -0.624341 1.514386 0.408674
v -0.634059 1.509776 0.401217
v -0.643517 1.504375 0.393960
v -0.652674 1.498205 0.386933
v -0.661491 1.491294 0.380168
v -0.669931 1.483671 0.373692
v -0.677957 1.475368 0.367533
v -0.685535 1.466421 0.361718
v -0.692633 1.456869 0.356271
v -0.699220 1.446752 0.351217
v -0.705268 1.436114 0.346576
v -0.710751 1.425000 0.342369
v -0.715646 1.413458 0.338613
v -0.719931 1.401537 0.335325
v -0.723588 1.389288 0.332519
v -0.726602 1.376764 0.330206
v -0.593744 1.524572 0.453840
v -0.604573 1.523289 0.446604
v -0.615310 1.521157 0.439430
v -0.625907 1.518185 0.432349
v -0.636321 1.514386 0.425391
v -0.646505 1.509776 0.418586
v -0.656417 1.504375 0.411963
v -0.666014 1.498205 0.405550
v -0.675255 1.491294 0.399376
v -0.684101 1.483671 0.393465
v -0.692513 1.475368 0.387845
v -0.700455 1.466421 0.382538
v -0.707894 1.456869 0.377567
v -0.714797 1.446752 0.372955
v -0.721136 1.436114 0.368719
v -0.726882 1.425000 0.364880
v -0.732012 1.413458 0.361452
v -0.736503 1.401537 0.358451
v -0.740336 1.389288 0.355890
v -0.723534 1.366816 0.322380
v -0.433915 1.325000 0.153873
v -0.602835 1.524572 0.468460
v -0.614114 1.523289 0.461947
v -0.625297 1.521157 0.455491
v -0.636335 1.518185 0.449118
v -0.647181 1.514386 0.442856
v -0.657789 1.509776 0.436732
v -0.668113 1.504375 0.430771
v -0.678109 1.498205 0.425000
v -0.687734 1.491294 0.419443
v -0.696947 1.483671 0.414124
v -0.705708 1.475368 0.409065
v -0.713981 1.466421 0.404289
v -0.721729 1.456869 0.399816
v -0.728919 1.446752 0.395665
v -0.735521 1.436114 0.391853
v -0.741506 1.425000 0.388397
v -0.746849 1.413458 0.385313
v -0.751527 1.401537 0.382612
v -0.755519 1.389288 0.380307
v -0.439768 1.325000 0.154685
v -0.610950 1.524572 0.483642
v -0.622631 1.523289 0.477882
v -0.634212 1.521157 0.472171
v -0.645644 1.518185 0.466533
v -0.656876 1.514386 0.460994
v -0.667862 1.509776 0.455577
v -0.678554 1.504375 0.450304
v -0.688905 1.498205 0.445199
v -0.698873 1.491294 0.440283
v -0.708415 1.483671 0.435578
v -0.717488 1.475368 0.431104
v -0.726055 1.466421 0.426879
v -0.734079 1.456869 0.422922
v -0.741526 1.446752 0.419250
v -0.748363 1.436114 0.415878
v -0.754561 1.425000 0.412821
v -0.760094 1.413458 0.410092
v -0.764939 1.401537 0.407704
v -0.769073 1.389288 0.405665
v -0.728970 1.368531 0.329958
v -0.807658 1.406462 0.600000
v -0.804281 1.413648 0.600000
v -0.800621 1.420693 0.600000
v -0.796685 1.427588 0.600000
v -0.792478 1.434321 0.600000
v -0.788007 1.440882 0.600000
v -0.783279 1.447261 0.600000
v -0.778302 1.453446 0.600000
v -0.773083 1.459430 0.600000
v -0.767631 1.465201 0.600000
v -0.761955 1.470751 0.600000
v -0.756062 1.476072 0.600000
v -0.749963 1.481155 0.600000
v -0.743667 1.485991 0.600000
v -0.737183 1.490574 0.600000
v -0.730524 1.494896 0.600000
v -0.445609 1.325000 0.155574
v -0.618055 1.524572 0.499323
v -0.630088 1.523289 0.494339
v -0.642018 1.521157 0.489398
v -0.653793 1.518185 0.484520
v -0.665364 1.514386 0.479727
v -0.676681 1.509776 0.475040
v -0.687694 1.504375 0.470478
v -0.698358 1.498205 0.466061
v -0.708626 1.491294 0.461808
v -0.718454 1.483671 0.457737
v -0.727801 1.475368 0.453865
v -0.736626 1.466421 0.450210
v -0.744892 1.456869 0.446786
v -0.752562 1.446752 0.443608
v -0.759605 1.436114 0.440691
v -0.765991 1.425000 0.438046
v -0.771690 1.413458 0.435685
v -0.776681 1.401537 0.433618
v -0.780940 1.389288 0.431854
v -0.734247 1.370211 0.337665
v -0.451438 1.325000 0.156540
v -0.624119 1.524572 0.515436
v -0.636452 1.523289 0.511249
v -0.648680 1.521157 0.507098
v -0.660749 1.518185 0.503001
v -0.672609 1.514386 0.498975
v -0.684207 1.509776 0.495038
v -0.695496 1.504375 0.491206
v -0.706426 1.498205 0.487496
v -0.716950 1.491294 0.483924
v -0.727023 1.483671 0.480504
v -0.736603 1.475368 0.477252
v -0.745649 1.466421 0.474182
v -0.754121 1.456869 0.471306
v -0.761983 1.446752 0.468637
v -0.769201 1.436114 0.466187
v -0.775746 1.425000 0.463965
v -0.781588 1.413458 0.461982
v -0.786702 1.401537 0.460246
v -0.739365 1.371853 0.345497
v -0.629116 1.524572 0.531910
v -0.641697 1.523289 0.528539
v -0.654170 1.521157 0.525197
v -0.666481 1.518185 0.521898
v -0.678579 1.514386 0.518656
v -0.690410 1.509776 0.515486
v -0.701925 1.504375 0.512401
v -0.713074 1.498205 0.509413
v -0.723809 1.491294 0.506537
v -0.734085 1.483671 0.503783
v -0.743857 1.475368 0.501165
v -0.753084 1.466421 0.498693
v -0.761726 1.456869 0.496377
v -0.769746 1.446752 0.494228
v -0.777109 1.436114 0.492255
v -0.783785 1.425000 0.490466
v -0.789744 1.413458 0.488870
v -0.794961 1.401537 0.487472
v -0.744321 1.373454 0.353451
v -0.619882 1.525000 0.549675
v -0.536737 1.325000 0.180070
v -0.633026 1.524572 0.548676
v -0.645800 1.523289 0.546135
v -0.658465 1.521157 0.543615
v -0.670966 1.518185 0.541129
v -0.683249 1.514386 0.538685
v -0.695262 1.509776 0.536296
v -0.706954 1.504375 0.533970
v -0.718275 1.498205 0.531718
v -0.729175 1.491294 0.529550
v -0.739609 1.483671 0.527475
v -0.749532 1.475368 0.525501
v -0.758900 1.466421 0.523637
v -0.767675 1.456869 0.521892
v -0.775818 1.446752 0.520272
v -0.783295 1.436114 0.518785
v -0.790073 1.425000 0.517437
v -0.796124 1.413458 0.516233
v -0.801422 1.401537 0.515179
v -0.749116 1.375010 0.361525
v -0.622117 1.525000 0.562143
v -0.531209 1.325000 0.177983
v -0.635830 1.524572 0.565661
v -0.648743 1.523289 0.563961
v -0.661545 1.521157 0.562276
v -0.674182 1.518185 0.560612
v -0.686599 1.514386 0.558977
v -0.698743 1.509776 0.557378
v -0.710562 1.504375 0.555822
v -0.722006 1.498205 0.554316
v -0.733025 1.491294 0.552865
v -0.743572 1.483671 0.551477
v -0.753602 1.475368 0.550156
v -0.763073 1.466421 0.548909
v -0.771943 1.456869 0.547741
v -0.780174 1.446752 0.546658
v -0.787732 1.436114 0.545663
v -0.794585 1.425000 0.544761
v -0.800701 1.413458 0.543955
v -0.806056 1.401537 0.543250
v -0.753748 1.376518 0.369716
v -0.623717 1.525000 0.574708
v -0.525655 1.325000 0.175968
v -0.758216 1.377975 0.378020
v -0.463056 1.325000 0.158699
v -0.520074 1.325000 0.174026
v -0.762518 1.379378 0.386436
v -0.468842 1.325000 0.159894
v -0.514469 1.325000 0.172158
v -0.766655 1.380724 0.394960
v -0.474613 1.325000 0.161164
v -0.508840 1.325000 0.170364
v -0.770625 1.382010 0.403589
v -0.480366 1.325000 0.162509
v -0.503187 1.325000 0.168644
v -0.774426 1.383233 0.412318
v -0.486101 1.325000 0.163931
v -0.497512 1.325000 0.166998
v -0.778058 1.384392 0.421141
v -0.491817 1.325000 0.165427
v -0.781519 1.385484 0.430053
v -0.784808 1.386508 0.439047
v -0.787925 1.387461 0.448119
v -0.790868 1.388342 0.457263
v -0.793635 1.389148 0.466472
v -0.571774 1.524037 0.415701
v -0.565638 1.524037 0.409362
v -0.577699 1.524037 0.422238
v -0.583406 1.524037 0.428965
v -0.588891 1.524037 0.435876
v -0.594146 1.524037 0.442962
v -0.599167 1.524037 0.450216
v -0.603948 1.524037 0.457631
v -0.608483 1.524037 0.465198
v -0.612769 1.524037 0.472910
v -0.616800 1.524037 0.480757
v -0.620572 1.524037 0.488733
v -0.624081 1.524037 0.496827
v -0.627323 1.524037 0.505032
v -0.630296 1.524037 0.513339
v -0.632994 1.524037 0.521738
v -0.635417 1.524037 0.530221
v -0.581244 1.522329 0.406831
v -0.574814 1.522329 0.400186
v -0.587454 1.522329 0.413683
v -0.593437 1.522329 0.420734
v -0.599185 1.522329 0.427977
v -0.604693 1.522329 0.435404
v -0.609956 1.522329 0.443007
v -0.614967 1.522329 0.450779
v -0.619721 1.522329 0.458710
v -0.624213 1.522329 0.466793
v -0.628437 1.522329 0.475018
v -0.632391 1.522329 0.483378
v -0.636069 1.522329 0.491862
v -0.639467 1.522329 0.500461
v -0.642583 1.522329 0.509168
v -0.645411 1.522329 0.517972
v -0.647950 1.522329 0.526863
v -0.590613 1.519775 0.398056
v -0.583890 1.519775 0.391110
v -0.597105 1.519775 0.405219
v -0.603359 1.519775 0.412591
v -0.609369 1.519775 0.420163
v -0.615127 1.519775 0.427927
v -0.620629 1.519775 0.435876
v -0.625867 1.519775 0.444001
v -0.630837 1.519775 0.452292
v -0.635533 1.519775 0.460742
v -0.639950 1.519775 0.469341
v -0.644083 1.519775 0.478080
v -0.647928 1.519775 0.486949
v -0.651481 1.519775 0.495940
v -0.654738 1.519775 0.505042
v -0.657695 1.519775 0.514245
v -0.660349 1.519775 0.523541
v -0.599840 1.516388 0.389415
v -0.592829 1.516388 0.382171
v -0.606609 1.516388 0.396884
v -0.613131 1.516388 0.404571
v -0.619398 1.516388 0.412467
v -0.625403 1.516388 0.420564
v -0.631140 1.516388 0.428853
v -0.636603 1.516388 0.437325
v -0.641785 1.516388 0.445972
v -0.646682 1.516388 0.454783
v -0.651288 1.516388 0.463750
v -0.655598 1.516388 0.472863
v -0.659608 1.516388 0.482112
v -0.663312 1.516388 0.491487
v -0.666708 1.516388 0.500978
v -0.669792 1.516388 0.510576
v -0.672560 1.516388 0.520269
v -0.608885 1.512181 0.380943
v -0.601592 1.512181 0.373408
v -0.615927 1.512181 0.388713
v -0.622711 1.512181 0.396709
v -0.629230 1.512181 0.404922
v -0.635477 1.512181 0.413345
v -0.641444 1.512181 0.421968
v -0.647127 1.512181 0.430781
v -0.652518 1.512181 0.439775
v -0.657612 1.512181 0.448941
v -0.662403 1.512181 0.458269
v -0.666886 1.512181 0.467748
v -0.671057 1.512181 0.477369
v -0.674911 1.512181 0.487121
v -0.678444 1.512181 0.496995
v -0.681652 1.512181 0.506978
v -0.684531 1.512181 0.517061
v -0.617710 1.507173 0.372677
v -0.610142 1.507173 0.364858
v -0.625018 1.507173 0.380740
v -0.632058 1.507173 0.389038
v -0.638823 1.507173 0.397562
v -0.645305 1.507173 0.406302
v -0.651498 1.507173 0.415250
v -0.657395 1.507173 0.424396
v -0.662989 1.507173 0.433729
v -0.668275 1.507173 0.443241
v -0.673247 1.507173 0.452921
v -0.677900 1.507173 0.462758
v -0.682228 1.507173 0.472742
v -0.686227 1.507173 0.482862
v -0.689893 1.507173 0.493108
v -0.693222 1.507173 0.503468
v -0.696210 1.507173 0.513932
v -0.626277 1.501384 0.364653
v -0.618442 1.501384 0.356558
v -0.633843 1.501384 0.373001
v -0.641132 1.501384 0.381591
v -0.648135 1.501384 0.390416
v -0.654846 1.501384 0.399465
v -0.661258 1.501384 0.408729
v -0.667363 1.501384 0.418197
v -0.673155 1.501384 0.427860
v -0.678627 1.501384 0.437708
v -0.683775 1.501384 0.447729
v -0.688592 1.501384 0.457913
v -0.693073 1.501384 0.468250
v -0.697213 1.501384 0.478728
v -0.701009 1.501384 0.489335
v -0.704455 1.501384 0.500061
v -0.707548 1.501384 0.510894
v -0.634550 1.494840 0.356905
v -0.626457 1.494840 0.348543
v -0.642364 1.494840 0.365528
v -0.649893 1.494840 0.374401
v -0.657127 1.494840 0.383516
v -0.664059 1.494840 0.392863
v -0.670682 1.494840 0.402432
v -0.676988 1.494840 0.412212
v -0.682970 1.494840 0.422193
v -0.688623 1.494840 0.432365
v -0.693940 1.494840 0.442716
v -0.698916 1.494840 0.453236
v -0.703544 1.494840 0.463913
v -0.707821 1.494840 0.474735
v -0.711741 1.494840 0.485692
v -0.715301 1.494840 0.496771
v -0.718496 1.494840 0.507960
v -0.642492 1.487569 0.349466
v -0.634151 1.487569 0.340849
v -0.650546 1.487569 0.358353
v -0.658305 1.487569 0.367498
v -0.665760 1.487569 0.376892
v -0.672905 1.487569 0.386525
v -0.679730 1.487569 0.396386
v -0.686229 1.487569 0.406465
v -0.692394 1.487569 0.416752
v -0.698220 1.487569 0.427235
v -0.703700 1.487569 0.437903
v -0.708828 1.487569 0.448745
v -0.713598 1.487569 0.459748
v -0.718005 1.487569 0.470902
v -0.722046 1.487569 0.482194
v -0.725714 1.487569 0.493612
v -0.729008 1.487569 0.505144
v -0.731922 1.487569 0.516778
v -0.650070 1.479602 0.342369
v -0.641493 1.479602 0.333507
v -0.658352 1.479602 0.351507
v -0.666331 1.479602 0.360911
v -0.673998 1.479602 0.370571
v -0.681345 1.479602 0.380477
v -0.688363 1.479602 0.390617
v -0.695046 1.479602 0.400982
v -0.701387 1.479602 0.411561
v -0.707377 1.479602 0.422341
v -0.713012 1.479602 0.433311
v -0.718285 1.479602 0.444460
v -0.723190 1.479602 0.455775
v -0.727723 1.479602 0.467244
v -0.731878 1.479602 0.478856
v -0.735650 1.479602 0.490598
v -0.739037 1.479602 0.502457
v -0.742033 1.479602 0.514420
v -0.657252 1.470973 0.335642
v -0.648451 1.470973 0.326549
v -0.665750 1.470973 0.345019
v -0.673937 1.470973 0.354668
v -0.681804 1.470973 0.364581
v -0.689343 1.470973 0.374745
v -0.696545 1.470973 0.385151
v -0.703402 1.470973 0.395786
v -0.709908 1.470973 0.406641
v -0.716055 1.470973 0.417702
v -0.721837 1.470973 0.428959
v -0.727248 1.470973 0.440399
v -0.732281 1.470973 0.452009
v -0.736932 1.470973 0.463778
v -0.741195 1.470973 0.475693
v -0.745067 1.470973 0.487742
v -0.748541 1.470973 0.499910
v -0.751616 1.470973 0.512185
v -0.664006 1.461718 0.329316
v -0.654995 1.461718 0.320005
v -0.672708 1.461718 0.338917
v -0.681091 1.461718 0.348797
v -0.689146 1.461718 0.358947
v -0.696865 1.461718 0.369355
v -0.704239 1.461718 0.380009
v -0.711261 1.461718 0.390899
v -0.717923 1.461718 0.402014
v -0.724217 1.461718 0.413340
v -0.730137 1.461718 0.424866
v -0.735677 1.461718 0.436579
v -0.740831 1.461718 0.448468
v -0.745593 1.461718 0.460519
v -0.749959 1.461718 0.472719
v -0.753922 1.461718 0.485055
v -0.757480 1.461718 0.497515
v -0.760629 1.461718 0.510084
v -0.670305 1.451879 0.323417
v -0.661097 1.451879 0.313903
v -0.679196 1.451879 0.333227
v -0.687762 1.451879 0.343323
v -0.695992 1.451879 0.353694
v -0.703879 1.451879 0.364328
v -0.711414 1.451879 0.375215
v -0.718589 1.451879 0.386343
v -0.725396 1.451879 0.397699
v -0.731827 1.451879 0.409272
v -0.737877 1.451879 0.421049
v -0.743537 1.451879 0.433018
v -0.748804 1.451879 0.445165
v -0.753670 1.451879 0.457479
v -0.758130 1.451879 0.469945
v -0.762180 1.451879 0.482550
v -0.765816 1.451879 0.495281
v -0.769033 1.451879 0.508124
v -0.676120 1.441496 0.317971
v -0.666731 1.441496 0.308269
v -0.685186 1.441496 0.327974
v -0.693920 1.441496 0.338269
v -0.702313 1.441496 0.348844
v -0.710356 1.441496 0.359688
v -0.718039 1.441496 0.370789
v -0.725355 1.441496 0.382135
v -0.732296 1.441496 0.393715
v -0.738854 1.441496 0.405516
v -0.745022 1.441496 0.417525
v -0.750795 1.441496 0.429730
v -0.756164 1.441496 0.442117
v -0.761126 1.441496 0.454672
v -0.765674 1.441496 0.467384
v -0.769804 1.441496 0.480237
v -0.773511 1.441496 0.493219
v -0.776792 1.441496 0.506315
v -0.681426 1.430614 0.313000
v -0.671872 1.430614 0.303128
v -0.690653 1.430614 0.323180
v -0.699541 1.430614 0.333656
v -0.708082 1.430614 0.344417
v -0.716266 1.430614 0.355452
v -0.724085 1.430614 0.366749
v -0.731529 1.430614 0.378296
v -0.738593 1.430614 0.390080
v -0.745266 1.430614 0.402089
v -0.751543 1.430614 0.414309
v -0.757417 1.430614 0.426729
v -0.762882 1.430614 0.439334
v -0.767931 1.430614 0.452111
v -0.772560 1.430614 0.465047
v -0.776762 1.430614 0.478127
v -0.780535 1.430614 0.491337
v -0.783873 1.430614 0.504664
v -0.686203 1.419279 0.308527
v -0.676499 1.419279 0.298501
v -0.695573 1.419279 0.318865
v -0.704599 1.419279 0.329505
v -0.713273 1.419279 0.340434
v -0.721585 1.419279 0.351641
v -0.729526 1.419279 0.363114
v -0.737086 1.419279 0.374840
v -0.744260 1.419279 0.386808
v -0.751037 1.419279 0.399004
v -0.757412 1.419279 0.411415
v -0.763378 1.419279 0.424028
v -0.768928 1.419279 0.436830
v -0.774056 1.419279 0.449806
v -0.778756 1.419279 0.462943
v -0.783024 1.419279 0.476227
v -0.786856 1.419279 0.489644
v -0.790246 1.419279 0.503178
v -0.690427 1.407541 0.304570
v -0.680592 1.407541 0.294408
v -0.699925 1.407541 0.315049
v -0.709074 1.407541 0.325832
v -0.717866 1.407541 0.336910
v -0.726290 1.407541 0.348269
v -0.734339 1.407541 0.359898
v -0.742002 1.407541 0.371783
v -0.749273 1.407541 0.383914
v -0.756142 1.407541 0.396275
v -0.762604 1.407541 0.408855
v -0.768651 1.407541 0.421639
v -0.774276 1.407541 0.434615
v -0.779473 1.407541 0.447767
v -0.784237 1.407541 0.461083
v -0.788564 1.407541 0.474547
v -0.792447 1.407541 0.488145
v -0.795883 1.407541 0.501864
v -0.652345 1.395450 0.262054
v -0.641139 1.395450 0.253161
v -0.663254 1.395450 0.271310
v -0.673854 1.395450 0.280917
v -0.684134 1.395450 0.290866
v -0.694083 1.395450 0.301146
v -0.703690 1.395450 0.311746
v -0.712946 1.395450 0.322655
v -0.721839 1.395450 0.333861
v -0.730361 1.395450 0.345352
v -0.738503 1.395450 0.357115
v -0.746255 1.395450 0.369139
v -0.753610 1.395450 0.381409
v -0.760559 1.395450 0.393914
v -0.608083 1.383057 0.225172
v -0.595694 1.383057 0.217747
v -0.620222 1.383057 0.232999
v -0.632099 1.383057 0.241219
v -0.643700 1.383057 0.249823
v -0.655014 1.383057 0.258802
v -0.666027 1.383057 0.268147
v -0.676729 1.383057 0.277847
v -0.687109 1.383057 0.287891
v -0.697153 1.383057 0.298271
v -0.584666 1.370415 0.207743
v -0.571719 1.370415 0.201093
v -0.597388 1.370415 0.214813
v -0.609872 1.370415 0.222296
v -0.622104 1.370415 0.230183
v -0.634072 1.370415 0.238466
v -0.645762 1.370415 0.247136
v -0.657163 1.370415 0.256184
v -0.546185 1.357579 0.186722
v -0.532572 1.357579 0.181342
v -0.559616 1.357579 0.192544
v -0.572848 1.357579 0.198803
v -0.585869 1.357579 0.205491
v -0.519338 1.344603 0.174793
v -0.505349 1.344603 0.170298
v -0.533173 1.344603 0.179744
v -0.496694 1.524331 0.363083
v -0.492801 1.524331 0.361123
v -0.484922 1.524331 0.357397
v -0.625345 1.523690 0.491471
v -0.623536 1.523690 0.487390
v -0.627087 1.523690 0.495582
v -0.628762 1.523690 0.499721
v -0.630369 1.523690 0.503886
v -0.631907 1.523690 0.508077
v -0.633377 1.523690 0.512293
v -0.634777 1.523690 0.516532
v -0.636108 1.523690 0.520794
v -0.637369 1.523690 0.525076
v -0.638560 1.523690 0.529379
v -0.502634 1.522835 0.351517
v -0.498552 1.522835 0.349462
v -0.490288 1.522835 0.345554
v -0.637223 1.521769 0.486322
v -0.635328 1.521769 0.482047
v -0.639048 1.521769 0.490628
v -0.640802 1.521769 0.494963
v -0.642485 1.521769 0.499326
v -0.644096 1.521769 0.503716
v -0.645636 1.521769 0.508132
v -0.647103 1.521769 0.512572
v -0.648497 1.521769 0.517036
v -0.649818 1.521769 0.521522
v -0.651065 1.521769 0.526029
v -0.508518 1.520492 0.340064
v -0.504247 1.520492 0.337914
v -0.495602 1.520492 0.333825
v -0.648960 1.519006 0.481234
v -0.646980 1.519006 0.476767
v -0.650867 1.519006 0.485732
v -0.652699 1.519006 0.490261
v -0.654458 1.519006 0.494820
v -0.656141 1.519006 0.499406
v -0.657750 1.519006 0.504019
v -0.659282 1.519006 0.508659
v -0.660739 1.519006 0.513322
v -0.662119 1.519006 0.518009
v -0.663422 1.519006 0.522718
v -0.514318 1.517312 0.328771
v -0.509862 1.517312 0.326528
v -0.500842 1.517312 0.322261
v -0.660507 1.515413 0.476228
v -0.658443 1.515413 0.471574
v -0.662493 1.515413 0.480916
v -0.664403 1.515413 0.485636
v -0.666236 1.515413 0.490387
v -0.667990 1.515413 0.495166
v -0.669666 1.515413 0.499974
v -0.671263 1.515413 0.504809
v -0.672781 1.515413 0.509669
v -0.674219 1.515413 0.514553
v -0.675577 1.515413 0.519461
v -0.676855 1.515413 0.524389
v -0.520011 1.513309 0.317687
v -0.515373 1.513309 0.315352
v -0.505984 1.513309 0.310912
v -0.671812 1.511003 0.471327
v -0.669667 1.511003 0.466488
v -0.673878 1.511003 0.476201
v -0.675864 1.511003 0.481107
v -0.677769 1.511003 0.486046
v -0.679593 1.511003 0.491015
v -0.681335 1.511003 0.496013
v -0.682995 1.511003 0.501039
v -0.684573 1.511003 0.506092
v -0.686068 1.511003 0.511170
v -0.687480 1.511003 0.516271
v -0.688808 1.511003 0.521395
v -0.525573 1.508499 0.306860
v -0.520756 1.508499 0.304436
v -0.511007 1.508499 0.299825
v -0.682830 1.505798 0.466551
v -0.680605 1.505798 0.461532
v -0.684972 1.505798 0.471605
v -0.687031 1.505798 0.476694
v -0.689007 1.505798 0.481816
v -0.690898 1.505798 0.486970
v -0.692706 1.505798 0.492154
v -0.694428 1.505798 0.497366
v -0.696064 1.505798 0.502606
v -0.697615 1.505798 0.507872
v -0.699079 1.505798 0.513163
v -0.700456 1.505798 0.518477
v -0.530978 1.502903 0.296336
v -0.525989 1.502903 0.293825
v -0.515890 1.502903 0.289049
v -0.693511 1.499818 0.461921
v -0.691209 1.499818 0.456728
v -0.695727 1.499818 0.467150
v -0.697858 1.499818 0.472416
v -0.699902 1.499818 0.477715
v -0.701860 1.499818 0.483048
v -0.703729 1.499818 0.488411
v -0.705511 1.499818 0.493805
v -0.707204 1.499818 0.499227
v -0.708809 1.499818 0.504676
v -0.710324 1.499818 0.510150
v -0.711749 1.499818 0.515649
v -0.536205 1.496546 0.286160
v -0.531049 1.496546 0.283565
v -0.520612 1.496546 0.278629
v -0.703810 1.493090 0.457456
v -0.701434 1.493090 0.452095
v -0.706098 1.493090 0.462855
v -0.708298 1.493090 0.468290
v -0.710408 1.493090 0.473761
v -0.712429 1.493090 0.479266
v -0.714359 1.493090 0.484803
v -0.716199 1.493090 0.490371
v -0.717947 1.493090 0.495968
v -0.719603 1.493090 0.501593
v -0.721167 1.493090 0.507245
v -0.722638 1.493090 0.512921
v -0.541231 1.489454 0.276376
v -0.535913 1.489454 0.273700
v -0.525151 1.489454 0.268609
v -0.713684 1.485641 0.453175
v -0.711236 1.485641 0.447653
v -0.716041 1.485641 0.458736
v -0.718306 1.485641 0.464335
v -0.720480 1.485641 0.469970
v -0.722561 1.485641 0.475641
v -0.724550 1.485641 0.481344
v -0.726444 1.485641 0.487079
v -0.728245 1.485641 0.492844
v -0.729951 1.485641 0.498638
v -0.731562 1.485641 0.504460
v -0.733077 1.485641 0.510306
v -0.546034 1.481657 0.267026
v -0.540563 1.481657 0.264272
v -0.529490 1.481657 0.259034
v -0.723089 1.477505 0.449098
v -0.720574 1.477505 0.443423
v -0.725512 1.477505 0.454813
v -0.727840 1.477505 0.460568
v -0.730075 1.477505 0.466359
v -0.732214 1.477505 0.472187
v -0.734257 1.477505 0.478049
v -0.736204 1.477505 0.483943
v -0.738055 1.477505 0.489869
v -0.739808 1.477505 0.495823
v -0.741464 1.477505 0.501806
v -0.743021 1.477505 0.507815
v -0.744480 1.477505 0.513849
v -0.550594 1.473190 0.258148
v -0.544977 1.473190 0.255321
v -0.533608 1.473190 0.249944
v -0.731987 1.468716 0.445241
v -0.729407 1.468716 0.439420
v -0.734471 1.468716 0.451102
v -0.736859 1.468716 0.457004
v -0.739150 1.468716 0.462944
v -0.741344 1.468716 0.468920
v -0.743440 1.468716 0.474932
v -0.745437 1.468716 0.480977
v -0.747335 1.468716 0.487054
v -0.749133 1.468716 0.493161
v -0.750831 1.468716 0.499296
v -0.752428 1.468716 0.505459
v -0.753924 1.468716 0.511647
v -0.554891 1.464089 0.249783
v -0.549136 1.464089 0.246887
v -0.537490 1.464089 0.241378
v -0.740337 1.459312 0.441620
v -0.737697 1.459312 0.435664
v -0.742880 1.459312 0.447619
v -0.745324 1.459312 0.453659
v -0.747669 1.459312 0.459737
v -0.749914 1.459312 0.465854
v -0.752058 1.459312 0.472006
v -0.754102 1.459312 0.478192
v -0.756044 1.459312 0.484411
v -0.757885 1.459312 0.490661
v -0.759622 1.459312 0.496941
v -0.761257 1.459312 0.503248
v -0.762788 1.459312 0.509580
v -0.558906 1.454391 0.241965
v -0.553024 1.454391 0.239004
v -0.541117 1.454391 0.233372
v -0.748106 1.449332 0.438253
v -0.745409 1.449332 0.432170
v -0.750702 1.449332 0.444379
v -0.753198 1.449332 0.450547
v -0.755593 1.449332 0.456755
v -0.757886 1.449332 0.463001
v -0.760076 1.449332 0.469284
v -0.762163 1.449332 0.475602
v -0.764147 1.449332 0.481954
v -0.766026 1.449332 0.488337
v -0.767801 1.449332 0.494749
v -0.769470 1.449332 0.501190
v -0.771034 1.449332 0.507658
v -0.562624 1.444140 0.234728
v -0.556622 1.444140 0.231707
v -0.544475 1.444140 0.225961
v -0.755259 1.438820 0.435152
v -0.752511 1.438820 0.428952
v -0.757905 1.438820 0.441395
v -0.760449 1.438820 0.447682
v -0.762890 1.438820 0.454009
v -0.765226 1.438820 0.460375
v -0.767459 1.438820 0.466778
v -0.769586 1.438820 0.473217
v -0.771607 1.438820 0.479690
v -0.773523 1.438820 0.486196
v -0.775331 1.438820 0.492731
v -0.777033 1.438820 0.499296
v -0.778627 1.438820 0.505887
v -0.566027 1.433378 0.228102
v -0.559916 1.433378 0.225027
v -0.547549 1.433378 0.219177
v -0.761766 1.427821 0.432331
v -0.758971 1.427821 0.426025
v -0.764457 1.427821 0.438681
v -0.767045 1.427821 0.445075
v -0.769527 1.427821 0.451510
v -0.771904 1.427821 0.457986
v -0.774174 1.427821 0.464499
v -0.776338 1.427821 0.471048
v -0.778394 1.427821 0.477632
v -0.780342 1.427821 0.484248
v -0.782182 1.427821 0.490896
v -0.783913 1.427821 0.497573
v -0.785534 1.427821 0.504277
v -0.569101 1.422153 0.222117
v -0.562892 1.422153 0.218992
v -0.550325 1.422153 0.213049
v -0.767599 1.416381 0.429802
v -0.764762 1.416381 0.423401
v -0.770331 1.416381 0.436249
v -0.772957 1.416381 0.442739
v -0.775477 1.416381 0.449271
v -0.777890 1.416381 0.455844
v -0.780194 1.416381 0.462455
v -0.782391 1.416381 0.469103
v -0.784478 1.416381 0.475786
v -0.786455 1.416381 0.482503
v -0.788323 1.416381 0.489250
v -0.790080 1.416381 0.496028
v -0.791725 1.416381 0.502833
v -0.571833 1.410511 0.216798
v -0.565537 1.410511 0.213629
v -0.552793 1.410511 0.207602
v -0.772733 1.404550 0.427576
v -0.769858 1.404550 0.421092
v -0.775501 1.404550 0.434107
v -0.778161 1.404550 0.440682
v -0.780714 1.404550 0.447300
v -0.783158 1.404550 0.453959
v -0.785493 1.404550 0.460656
v -0.787718 1.404550 0.467391
v -0.789833 1.404550 0.474162
v -0.791836 1.404550 0.480966
v -0.793728 1.404550 0.487802
v -0.795507 1.404550 0.494668
v -0.797175 1.404550 0.501563
v -0.548420 1.398503 0.199969
v -0.541851 1.398503 0.197185
v -0.528582 1.398503 0.191942
v -0.735407 1.392378 0.350558
v -0.731278 1.392378 0.344695
v -0.739440 1.392378 0.356489
v -0.743376 1.392378 0.362484
v -0.747213 1.392378 0.368543
v -0.750950 1.392378 0.374664
v -0.754587 1.392378 0.380846
v -0.758122 1.392378 0.387086
v -0.761554 1.392378 0.393383
v -0.523371 1.386181 0.185332
v -0.516566 1.386181 0.182960
v -0.502845 1.386181 0.178551
v -0.682603 1.379918 0.282162
v -0.677361 1.379918 0.277172
v -0.687762 1.379918 0.287238
v -0.692838 1.379918 0.292397
v -0.697828 1.379918 0.297639
v -0.510823 1.373596 0.177278
v -0.503888 1.373596 0.175112
v -0.489917 1.373596 0.171123
v -0.651945 1.367222 0.251052
v -0.646199 1.367222 0.246567
v -0.657617 1.367222 0.255630
v -0.504380 1.524331 0.367191
v -0.508172 1.524331 0.369339
v -0.510696 1.522835 0.355826
v -0.514673 1.522835 0.358079
v -0.516951 1.520492 0.344571
v -0.521111 1.520492 0.346928
v -0.523118 1.517312 0.333474
v -0.527459 1.517312 0.335933
v -0.529171 1.513309 0.322583
v -0.533689 1.513309 0.325143
v -0.535083 1.508499 0.311944
v -0.539775 1.508499 0.314602
v -0.540830 1.502903 0.301602
v -0.545690 1.502903 0.304356
v -0.546387 1.496546 0.291603
v -0.551410 1.496546 0.294448
v -0.551730 1.489454 0.281988
v -0.556910 1.489454 0.284923
v -0.556837 1.481657 0.272800
v -0.562166 1.481657 0.275819
v -0.561685 1.473190 0.264077
v -0.567156 1.473190 0.267176
v -0.566253 1.464089 0.255856
v -0.571858 1.464089 0.259032
v -0.570522 1.454391 0.248174
v -0.576253 1.454391 0.251420
v -0.574475 1.444140 0.241062
v -0.580321 1.444140 0.244374
v -0.578093 1.433378 0.234552
v -0.584045 1.433378 0.237924
v -0.581361 1.422153 0.228671
v -0.587409 1.422153 0.232097
v -0.584266 1.410511 0.223444
v -0.590399 1.410511 0.226918
v -0.561416 1.398503 0.205858
v -0.567839 1.398503 0.208960
v -0.536859 1.386181 0.190409
v -0.543539 1.386181 0.193112
v -0.531401 1.373596 0.184452
v -0.515648 1.524331 0.373820
v -0.519330 1.524331 0.376151
v -0.522514 1.522835 0.362779
v -0.526375 1.522835 0.365224
v -0.529313 1.520492 0.351844
v -0.533353 1.520492 0.354402
v -0.536017 1.517312 0.341063
v -0.540232 1.517312 0.343732
v -0.542597 1.513309 0.330482
v -0.546984 1.513309 0.333260
v -0.549025 1.508499 0.320146
v -0.553580 1.508499 0.323030
v -0.555272 1.502903 0.310099
v -0.559991 1.502903 0.313087
v -0.561313 1.496546 0.300384
v -0.566190 1.496546 0.303473
v -0.567122 1.489454 0.291043
v -0.572151 1.489454 0.294228
v -0.572673 1.481657 0.282116
v -0.577847 1.481657 0.285393
v -0.577943 1.473190 0.273642
v -0.583255 1.473190 0.277006
v -0.582909 1.464089 0.265655
v -0.588352 1.464089 0.269102
v -0.587550 1.454391 0.258191
v -0.593114 1.454391 0.261715
v -0.591847 1.444140 0.251282
v -0.597523 1.444140 0.254877
v -0.595780 1.433378 0.244957
v -0.601559 1.433378 0.248617
v -0.599333 1.422153 0.239244
v -0.605205 1.422153 0.242962
v -0.602491 1.410511 0.234166
v -0.608446 1.410511 0.237937
v -0.580531 1.398503 0.215479
v -0.586795 1.398503 0.218894
v -0.556761 1.386181 0.198844
v -0.563301 1.386181 0.201872
v -0.526577 1.524331 0.380994
v -0.530140 1.524331 0.383503
v -0.533976 1.522835 0.370303
v -0.537713 1.522835 0.372934
v -0.541304 1.520492 0.359715
v -0.545213 1.520492 0.362468
v -0.548529 1.517312 0.349276
v -0.552608 1.517312 0.352149
v -0.555620 1.513309 0.339030
v -0.559866 1.513309 0.342020
v -0.562547 1.508499 0.329022
v -0.566955 1.508499 0.332127
v -0.569280 1.502903 0.319293
v -0.573847 1.502903 0.322510
v -0.575790 1.496546 0.309887
v -0.580510 1.496546 0.313211
v -0.582050 1.489454 0.300842
v -0.586917 1.489454 0.304270
v -0.588032 1.481657 0.292199
v -0.593040 1.481657 0.295725
v -0.593712 1.473190 0.283993
v -0.598853 1.473190 0.287613
v -0.599064 1.464089 0.276260
v -0.604331 1.464089 0.279969
v -0.604066 1.454391 0.269033
v -0.609450 1.454391 0.272825
v -0.608696 1.444140 0.262343
v -0.614190 1.444140 0.266211
v -0.612935 1.433378 0.256218
v -0.618528 1.433378 0.260157
v -0.616764 1.422153 0.250686
v -0.622447 1.422153 0.254688
v -0.620167 1.410511 0.245769
v -0.625930 1.410511 0.249827
v -0.599151 1.398503 0.226027
v -0.605239 1.398503 0.229745
v -0.582609 1.386181 0.211591
v -0.537140 1.524331 0.388695
v -0.540576 1.524331 0.391376
v -0.545055 1.522835 0.378380
v -0.548658 1.522835 0.381192
v -0.552894 1.520492 0.368164
v -0.556663 1.520492 0.371106
v -0.560622 1.517312 0.358092
v -0.564555 1.517312 0.361162
v -0.568207 1.513309 0.348207
v -0.572301 1.513309 0.351402
v -0.575617 1.508499 0.338551
v -0.579868 1.508499 0.341868
v -0.582819 1.502903 0.329164
v -0.587223 1.502903 0.332601
v -0.589784 1.496546 0.320089
v -0.594335 1.496546 0.323640
v -0.596480 1.489454 0.311362
v -0.601173 1.489454 0.315025
v -0.602879 1.481657 0.303022
v -0.607708 1.481657 0.306791
v -0.608954 1.473190 0.295105
v -0.613912 1.473190 0.298974
v -0.614679 1.464089 0.287644
v -0.619758 1.464089 0.291607
v -0.620030 1.454391 0.280671
v -0.625222 1.454391 0.284723
v -0.624983 1.444140 0.274216
v -0.630280 1.444140 0.278350
v -0.629517 1.433378 0.268307
v -0.634910 1.433378 0.272516
v -0.633613 1.422153 0.262969
v -0.639093 1.422153 0.267246
v -0.637253 1.410511 0.258225
v -0.642810 1.410511 0.262562
v -0.617231 1.398503 0.237476
v -0.623130 1.398503 0.241488
v -0.547313 1.524331 0.396905
v -0.550613 1.524331 0.399752
v -0.555725 1.522835 0.386991
v -0.559186 1.522835 0.389976
v -0.564055 1.520492 0.377173
v -0.567676 1.520492 0.380296
v -0.572268 1.517312 0.367492
v -0.576046 1.517312 0.370751
v -0.580330 1.513309 0.357991
v -0.584262 1.513309 0.361383
v -0.588204 1.508499 0.348709
v -0.592287 1.508499 0.352231
v -0.595858 1.502903 0.339688
v -0.600088 1.502903 0.343336
v -0.603259 1.496546 0.330965
v -0.607631 1.496546 0.334735
v -0.610376 1.489454 0.322577
v -0.614883 1.489454 0.326466
v -0.617176 1.481657 0.314562
v -0.621814 1.481657 0.318562
v -0.623633 1.473190 0.306952
v -0.628394 1.473190 0.311059
v -0.629717 1.464089 0.299781
v -0.634595 1.464089 0.303988
v -0.635403 1.454391 0.293079
v -0.640390 1.454391 0.297380
v -0.640667 1.444140 0.286875
v -0.645755 1.444140 0.291263
v -0.645486 1.433378 0.281195
v -0.650666 1.433378 0.285664
v -0.649839 1.422153 0.276065
v -0.655102 1.422153 0.280605
v -0.653707 1.410511 0.271505
v -0.659045 1.410511 0.276109
v -0.634727 1.398503 0.249799
v -0.640422 1.398503 0.254095
v -0.557071 1.524331 0.405605
v -0.560227 1.524331 0.408610
v -0.565959 1.522835 0.396115
v -0.569269 1.522835 0.399267
v -0.574761 1.520492 0.386717
v -0.578224 1.520492 0.390014
v -0.583439 1.517312 0.377452
v -0.587053 1.517312 0.380892
v -0.591957 1.513309 0.368357
v -0.595718 1.513309 0.371938
v -0.600278 1.508499 0.359474
v -0.604183 1.508499 0.363192
v -0.608365 1.502903 0.350838
v -0.612411 1.502903 0.354690
v -0.616185 1.496546 0.342489
v -0.620366 1.496546 0.346470
v -0.623705 1.489454 0.334461
v -0.628016 1.489454 0.338566
v -0.630891 1.481657 0.326788
v -0.635327 1.481657 0.331012
v -0.637713 1.473190 0.319505
v -0.642267 1.473190 0.323841
v -0.644141 1.464089 0.312641
v -0.648807 1.464089 0.317083
v -0.650150 1.454391 0.306226
v -0.654919 1.454391 0.310767
v -0.655711 1.444140 0.300288
v -0.660578 1.444140 0.304921
v -0.660803 1.433378 0.294851
v -0.665757 1.433378 0.299568
v -0.665402 1.422153 0.289941
v -0.670437 1.422153 0.294734
v -0.669490 1.410511 0.285576
v -0.674595 1.410511 0.290437
v -0.651598 1.398503 0.262965
v -0.657075 1.398503 0.267535
v -0.566390 1.524331 0.414773
v -0.569395 1.524331 0.417929
v -0.575733 1.522835 0.405731
v -0.578885 1.522835 0.409041
v -0.584986 1.520492 0.396776
v -0.588283 1.520492 0.400239
v -0.594108 1.517312 0.387947
v -0.597548 1.517312 0.391561
v -0.603062 1.513309 0.379282
v -0.606643 1.513309 0.383043
v -0.611808 1.508499 0.370817
v -0.615526 1.508499 0.374722
v -0.620310 1.502903 0.362589
v -0.624162 1.502903 0.366635
v -0.628530 1.496546 0.354634
v -0.632511 1.496546 0.358815
v -0.636434 1.489454 0.346984
v -0.640539 1.489454 0.351295
v -0.643988 1.481657 0.339673
v -0.648212 1.481657 0.344109
v -0.651159 1.473190 0.332733
v -0.655495 1.473190 0.337287
v -0.657917 1.464089 0.326193
v -0.662359 1.464089 0.330859
v -0.664233 1.454391 0.320081
v -0.668774 1.454391 0.324850
v -0.670079 1.444140 0.314422
v -0.674712 1.444140 0.319289
v -0.675432 1.433378 0.309243
v -0.680149 1.433378 0.314197
v -0.680266 1.422153 0.304563
v -0.685059 1.422153 0.309598
v -0.684563 1.410511 0.300405
v -0.689424 1.410511 0.305510
v -0.673049 1.398503 0.281777
v -0.575248 1.524331 0.424387
v -0.578095 1.524331 0.427687
v -0.585024 1.522835 0.415814
v -0.588009 1.522835 0.419275
v -0.594704 1.520492 0.407324
v -0.597827 1.520492 0.410945
v -0.604249 1.517312 0.398954
v -0.607508 1.517312 0.402732
v -0.613617 1.513309 0.390738
v -0.617009 1.513309 0.394670
v -0.622769 1.508499 0.382713
v -0.626291 1.508499 0.386796
v -0.631664 1.502903 0.374912
v -0.635312 1.502903 0.379142
v -0.640265 1.496546 0.367369
v -0.644035 1.496546 0.371741
v -0.648534 1.489454 0.360117
v -0.652423 1.489454 0.364624
v -0.656438 1.481657 0.353186
v -0.660438 1.481657 0.357824
v -0.663941 1.473190 0.346606
v -0.668048 1.473190 0.351367
v -0.671012 1.464089 0.340405
v -0.675219 1.464089 0.345283
v -0.677620 1.454391 0.334610
v -0.681921 1.454391 0.339597
v -0.683737 1.444140 0.329245
v -0.688125 1.444140 0.334333
v -0.689336 1.433378 0.324334
v -0.693805 1.433378 0.329514
v -0.694395 1.422153 0.319898
v -0.698935 1.422153 0.325161
v -0.698891 1.410511 0.315955
v -0.703495 1.410511 0.321293
v -0.586305 1.524331 0.437860
v -0.596620 1.522835 0.429945
v -0.606836 1.520492 0.422106
v -0.616908 1.517312 0.414378
v -0.623598 1.513309 0.402699
v -0.626793 1.513309 0.406793
v -0.633132 1.508499 0.395132
v -0.636449 1.508499 0.399383
v -0.642399 1.502903 0.387777
v -0.645836 1.502903 0.392181
v -0.651360 1.496546 0.380665
v -0.654911 1.496546 0.385216
v -0.659975 1.489454 0.373827
v -0.663638 1.489454 0.378520
v -0.668209 1.481657 0.367292
v -0.671978 1.481657 0.372121
v -0.676026 1.473190 0.361088
v -0.679895 1.473190 0.366046
v -0.683393 1.464089 0.355242
v -0.687356 1.464089 0.360321
v -0.690277 1.454391 0.349778
v -0.694329 1.454391 0.354970
v -0.696650 1.444140 0.344720
v -0.700784 1.444140 0.350017
v -0.702484 1.433378 0.340090
v -0.706693 1.433378 0.345483
v -0.707754 1.422153 0.335907
v -0.712031 1.422153 0.341387
v -0.712438 1.410511 0.332190
v -0.716775 1.410511 0.337747
v -0.635970 1.513309 0.419380
v -0.645978 1.508499 0.412453
v -0.655707 1.502903 0.405720
v -0.665113 1.496546 0.399210
v -0.674158 1.489454 0.392950
v -0.679275 1.481657 0.381960
v -0.682801 1.481657 0.386968
v -0.687387 1.473190 0.376147
v -0.691007 1.473190 0.381288
v -0.695031 1.464089 0.370669
v -0.698740 1.464089 0.375936
v -0.702175 1.454391 0.365550
v -0.705967 1.454391 0.370934
v -0.708789 1.444140 0.360810
v -0.712657 1.444140 0.366304
v -0.714843 1.433378 0.356472
v -0.718782 1.433378 0.362065
v -0.720312 1.422153 0.352553
v -0.724314 1.422153 0.358236
v -0.725173 1.410511 0.349070
v -0.729231 1.410511 0.354833
v -0.692884 1.481657 0.402327
v -0.701358 1.473190 0.397057
v -0.709345 1.464089 0.392091
v -0.716809 1.454391 0.387450
v -0.723718 1.444140 0.383153
v -0.730043 1.433378 0.379220
v -0.735756 1.422153 0.375667
v -0.740834 1.410511 0.372509
f 1 3 2
f 3 5 4
f 5 7 6
f 7 9 8
f 9 11 10
f 11 13 12
f 13 15 14
f 15 17 16
f 17 19 18
f 20 22 21
f 23 25 24
f 26 28 27
f 29 28 30
f 31 28 32
f 33 28 34
f 35 37 36
f 38 37 39
f 40 37 41
f 42 37 43
f 44 37 45
f 46 48 47
f 49 48 50
f 51 53 52
f 54 53 51
f 48 56 55
f 57 44 58
f 59 44 60
f 61 44 62
f 63 44 64
f 65 44 66
f 67 69 68
f 70 69 71
f 72 69 73
f 74 69 75
f 76 69 77
f 78 69 79
f 78 81 80
f 82 84 83
f 85 660 998
f 659 998 997
f 998 997 85
f 660 1000 1001
f 1001 1000 87
f 660 659 1000
f 86 998 999
f 999 998 660
f 86 85 998
f 88 677 1012
f 676 1012 1011
f 1012 1011 88
f 677 1014 1015
f 1015 1014 90
f 677 676 1014
f 89 1012 1013
f 1013 1012 677
f 89 88 1012
f 91 694 1026
f 693 1026 1025
f 1026 1025 91
f 694 1028 1029
f 1029 1028 93
f 694 693 1028
f 92 1026 1027
f 1027 1026 694
f 92 91 1026
f 94 711 1040
f 710 1040 1039
f 1040 1039 94
f 711 1042 1043
f 1043 1042 96
f 711 710 1042
f 95 1040 1041
f 1041 1040 711
f 95 94 1040
f 97 728 1055
f 727 1055 1054
f 1055 1054 97
f 728 1057 1058
f 1058 1057 99
f 728 727 1057
f 98 1055 1056
f 1056 1055 728
f 98 97 1055
f 100 745 1070
f 744 1070 1069
f 1070 1069 100
f 745 1072 1073
f 1073 1072 102
f 745 744 1072
f 101 1070 1071
f 1071 1070 745
f 101 100 1070
f 103 762 1085
f 761 1085 1084
f 1085 1084 103
f 762 1087 1088
f 1088 1087 105
f 762 761 1087
f 104 1085 1086
f 1086 1085 762
f 104 103 1085
f 106 779 1100
f 778 1100 1099
f 1100 1099 106
f 779 1102 1103
f 1103 1102 108
f 779 778 1102
f 107 1100 1101
f 1101 1100 779
f 107 106 1100
f 109 796 1115
f 795 1115 1114
f 1115 1114 109
f 796 1117 1118
f 1118 1117 111
f 796 795 1117
f 110 1115 1116
f 1116 1115 796
f 110 109 1115
f 112 814 1130
f 813 1130 1129
f 1130 1129 112
f 814 1132 1133
f 1133 1132 114
f 814 813 1132
f 113 1130 1131
f 1131 1130 814
f 113 112 1130
f 115 832 1146
f 831 1146 1145
f 1146 1145 115
f 832 1148 1149
f 1149 1148 117
f 832 831 1148
f 116 1146 1147
f 1147 1146 832
f 116 115 1146
f 118 850 1162
f 849 1162 1161
f 1162 1161 118
f 850 1164 1165
f 1165 1164 120
f 850 849 1164
f 119 1162 1163
f 1163 1162 850
f 119 118 1162
f 121 868 1178
f 867 1178 1177
f 1178 1177 121
f 868 1180 1181
f 1181 1180 123
f 868 867 1180
f 122 1178 1179
f 1179 1178 868
f 122 121 1178
f 124 886 1194
f 885 1194 1193
f 1194 1193 124
f 886 1196 1197
f 1197 1196 126
f 886 885 1196
f 125 1194 1195
f 1195 1194 886
f 125 124 1194
f 127 904 1210
f 903 1210 1209
f 1210 1209 127
f 904 1212 1213
f 1213 1212 129
f 904 903 1212
f 128 1210 1211
f 1211 1210 904
f 128 127 1210
f 130 922 1226
f 921 1226 1225
f 1226 1225 130
f 922 1228 1229
f 1229 1228 132
f 922 921 1228
f 131 1226 1227
f 1227 1226 922
f 131 130 1226
f 133 940 1242
f 939 1242 1241
f 1242 1241 133
f 940 1244 1245
f 1245 1244 135
f 940 939 1244
f 134 1242 1243
f 1243 1242 940
f 134 133 1242
f 136 958 1258
f 957 1258 1257
f 1258 1257 136
f 958 1260 1261
f 1261 1260 138
f 958 957 1260
f 137 1258 1259
f 1259 1258 958
f 137 136 1258
f 139 972 1270
f 971 1270 1269
f 1270 1269 139
f 972 1272 1273
f 1273 1272 141
f 972 971 1272
f 140 1270 1271
f 1271 1270 972
f 140 139 1270
f 142 982 1278
f 981 1278 1277
f 1278 1277 142
f 982 1280 1281
f 1281 1280 144
f 982 981 1280
f 143 1278 1279
f 1279 1278 982
f 143 142 1278
f 145 990 989
f 989 990 147
f 145 146 990
f 148 995 994
f 994 995 150
f 148 149 995
f 151 3 1
f 3 7 5
f 7 11 9
f 11 15 13
f 15 19 17
f 152 22 20
f 153 25 23
f 32 28 29
f 39 37 154
f 43 37 40
f 56 48 49
f 53 54 56
f 60 44 57
f 66 44 63
f 71 69 67
f 73 69 155
f 79 69 156
f 78 157 81
f 158 659 1283
f 661 1283 1284
f 1283 1284 158
f 659 1002 1000
f 1000 1002 87
f 659 661 1002
f 85 1283 997
f 997 1283 659
f 85 158 1283
f 159 676 1285
f 678 1285 1286
f 1285 1286 159
f 676 1016 1014
f 1014 1016 90
f 676 678 1016
f 88 1285 1011
f 1011 1285 676
f 88 159 1285
f 160 693 1287
f 695 1287 1288
f 1287 1288 160
f 693 1030 1028
f 1028 1030 93
f 693 695 1030
f 91 1287 1025
f 1025 1287 693
f 91 160 1287
f 161 710 1289
f 712 1289 1290
f 1289 1290 161
f 710 1044 1042
f 1042 1044 96
f 710 712 1044
f 94 1289 1039
f 1039 1289 710
f 94 161 1289
f 162 727 1291
f 729 1291 1292
f 1291 1292 162
f 727 1059 1057
f 1057 1059 99
f 727 729 1059
f 97 1291 1054
f 1054 1291 727
f 97 162 1291
f 163 744 1293
f 746 1293 1294
f 1293 1294 163
f 744 1074 1072
f 1072 1074 102
f 744 746 1074
f 100 1293 1069
f 1069 1293 744
f 100 163 1293
f 164 761 1295
f 763 1295 1296
f 1295 1296 164
f 761 1089 1087
f 1087 1089 105
f 761 763 1089
f 103 1295 1084
f 1084 1295 761
f 103 164 1295
f 165 778 1297
f 780 1297 1298
f 1297 1298 165
f 778 1104 1102
f 1102 1104 108
f 778 780 1104
f 106 1297 1099
f 1099 1297 778
f 106 165 1297
f 166 795 1299
f 797 1299 1300
f 1299 1300 166
f 795 1119 1117
f 1117 1119 111
f 795 797 1119
f 109 1299 1114
f 1114 1299 795
f 109 166 1299
f 167 813 1301
f 815 1301 1302
f 1301 1302 167
f 813 1134 1132
f 1132 1134 114
f 813 815 1134
f 112 1301 1129
f 1129 1301 813
f 112 167 1301
f 168 831 1303
f 833 1303 1304
f 1303 1304 168
f 831 1150 1148
f 1148 1150 117
f 831 833 1150
f 115 1303 1145
f 1145 1303 831
f 115 168 1303
f 169 849 1305
f 851 1305 1306
f 1305 1306 169
f 849 1166 1164
f 1164 1166 120
f 849 851 1166
f 118 1305 1161
f 1161 1305 849
f 118 169 1305
f 170 867 1307
f 869 1307 1308
f 1307 1308 170
f 867 1182 1180
f 1180 1182 123
f 867 869 1182
f 121 1307 1177
f 1177 1307 867
f 121 170 1307
f 171 885 1309
f 887 1309 1310
f 1309 1310 171
f 885 1198 1196
f 1196 1198 126
f 885 887 1198
f 124 1309 1193
f 1193 1309 885
f 124 171 1309
f 172 903 1311
f 905 1311 1312
f 1311 1312 172
f 903 1214 1212
f 1212 1214 129
f 903 905 1214
f 127 1311 1209
f 1209 1311 903
f 127 172 1311
f 173 921 1313
f 923 1313 1314
f 1313 1314 173
f 921 1230 1228
f 1228 1230 132
f 921 923 1230
f 130 1313 1225
f 1225 1313 921
f 130 173 1313
f 174 939 1315
f 941 1315 1316
f 1315 1316 174
f 939 1246 1244
f 1244 1246 135
f 939 941 1246
f 133 1315 1241
f 1241 1315 939
f 133 174 1315
f 175 957 1317
f 959 1317 1318
f 1317 1318 175
f 957 1262 1260
f 1260 1262 138
f 957 959 1262
f 136 1317 1257
f 1257 1317 957
f 136 175 1317
f 176 971 1319
f 973 1319 1320
f 1319 1320 176
f 971 1274 1272
f 1272 1274 141
f 971 973 1274
f 139 1319 1269
f 1269 1319 971
f 139 176 1319
f 983 981 1321
f 1321 981 177
f 981 1282 1280
f 1280 1282 144
f 981 983 1282
f 142 177 1277
f 1277 177 981
f 178 989 991
f 991 989 147
f 178 145 989
f 179 994 996
f 996 994 150
f 179 148 994
f 180 3 151
f 3 11 7
f 11 19 15
f 181 22 152
f 182 25 153
f 34 28 31
f 154 37 183
f 45 37 42
f 50 48 46
f 55 56 54
f 184 69 70
f 75 69 72
f 156 69 185
f 78 186 157
f 187 661 1322
f 662 1322 1323
f 1322 1323 187
f 661 1003 1002
f 1002 1003 87
f 661 662 1003
f 158 1322 1284
f 1284 1322 661
f 158 187 1322
f 188 678 1324
f 679 1324 1325
f 1324 1325 188
f 678 1017 1016
f 1016 1017 90
f 678 679 1017
f 159 1324 1286
f 1286 1324 678
f 159 188 1324
f 189 695 1326
f 696 1326 1327
f 1326 1327 189
f 695 1031 1030
f 1030 1031 93
f 695 696 1031
f 160 1326 1288
f 1288 1326 695
f 160 189 1326
f 190 712 1328
f 713 1328 1329
f 1328 1329 190
f 712 1045 1044
f 1044 1045 96
f 712 713 1045
f 161 1328 1290
f 1290 1328 712
f 161 190 1328
f 191 729 1330
f 730 1330 1331
f 1330 1331 191
f 729 1060 1059
f 1059 1060 99
f 729 730 1060
f 162 1330 1292
f 1292 1330 729
f 162 191 1330
f 192 746 1332
f 747 1332 1333
f 1332 1333 192
f 746 1075 1074
f 1074 1075 102
f 746 747 1075
f 163 1332 1294
f 1294 1332 746
f 163 192 1332
f 193 763 1334
f 764 1334 1335
f 1334 1335 193
f 763 1090 1089
f 1089 1090 105
f 763 764 1090
f 164 1334 1296
f 1296 1334 763
f 164 193 1334
f 194 780 1336
f 781 1336 1337
f 1336 1337 194
f 780 1105 1104
f 1104 1105 108
f 780 781 1105
f 165 1336 1298
f 1298 1336 780
f 165 194 1336
f 195 797 1338
f 798 1338 1339
f 1338 1339 195
f 797 1120 1119
f 1119 1120 111
f 797 798 1120
f 166 1338 1300
f 1300 1338 797
f 166 195 1338
f 196 815 1340
f 816 1340 1341
f 1340 1341 196
f 815 1135 1134
f 1134 1135 114
f 815 816 1135
f 167 1340 1302
f 1302 1340 815
f 167 196 1340
f 197 833 1342
f 834 1342 1343
f 1342 1343 197
f 833 1151 1150
f 1150 1151 117
f 833 834 1151
f 168 1342 1304
f 1304 1342 833
f 168 197 1342
f 198 851 1344
f 852 1344 1345
f 1344 1345 198
f 851 1167 1166
f 1166 1167 120
f 851 852 1167
f 169 1344 1306
f 1306 1344 851
f 169 198 1344
f 199 869 1346
f 870 1346 1347
f 1346 1347 199
f 869 1183 1182
f 1182 1183 123
f 869 870 1183
f 170 1346 1308
f 1308 1346 869
f 170 199 1346
f 200 887 1348
f 888 1348 1349
f 1348 1349 200
f 887 1199 1198
f 1198 1199 126
f 887 888 1199
f 171 1348 1310
f 1310 1348 887
f 171 200 1348
f 201 905 1350
f 906 1350 1351
f 1350 1351 201
f 905 1215 1214
f 1214 1215 129
f 905 906 1215
f 172 1350 1312
f 1312 1350 905
f 172 201 1350
f 202 923 1352
f 924 1352 1353
f 1352 1353 202
f 923 1231 1230
f 1230 1231 132
f 923 924 1231
f 173 1352 1314
f 1314 1352 923
f 173 202 1352
f 203 941 1354
f 942 1354 1355
f 1354 1355 203
f 941 1247 1246
f 1246 1247 135
f 941 942 1247
f 174 1354 1316
f 1316 1354 941
f 174 203 1354
f 204 959 1356
f 960 1356 1357
f 1356 1357 204
f 959 1263 1262
f 1262 1263 138
f 959 960 1263
f 175 1356 1318
f 1318 1356 959
f 175 204 1356
f 205 973 1358
f 974 1358 1359
f 1358 1359 205
f 973 1275 1274
f 1274 1275 141
f 973 974 1275
f 176 1358 1320
f 1320 1358 973
f 176 205 1358
f 206 983 984
f 983 984 1282
f 1282 984 144
f 177 206 1321
f 1321 206 983
f 207 991 992
f 992 991 147
f 207 178 991
f 150 208 996
f 996 208 179
f 209 3 180
f 3 19 11
f 210 22 181
f 211 25 182
f 30 28 26
f 183 37 35
f 47 48 44
f 185 69 76
f 78 69 186
f 212 662 1360
f 663 1360 1361
f 1360 1361 212
f 662 1004 1003
f 1003 1004 87
f 662 663 1004
f 187 1360 1323
f 1323 1360 662
f 187 212 1360
f 213 679 1362
f 680 1362 1363
f 1362 1363 213
f 679 1018 1017
f 1017 1018 90
f 679 680 1018
f 188 1362 1325
f 1325 1362 679
f 188 213 1362
f 214 696 1364
f 697 1364 1365
f 1364 1365 214
f 696 1032 1031
f 1031 1032 93
f 696 697 1032
f 189 1364 1327
f 1327 1364 696
f 189 214 1364
f 215 713 1366
f 714 1366 1367
f 1366 1367 215
f 713 1046 1045
f 1045 1046 96
f 713 714 1046
f 190 1366 1329
f 1329 1366 713
f 190 215 1366
f 216 730 1368
f 731 1368 1369
f 1368 1369 216
f 730 1061 1060
f 1060 1061 99
f 730 731 1061
f 191 1368 1331
f 1331 1368 730
f 191 216 1368
f 217 747 1370
f 748 1370 1371
f 1370 1371 217
f 747 1076 1075
f 1075 1076 102
f 747 748 1076
f 192 1370 1333
f 1333 1370 747
f 192 217 1370
f 218 764 1372
f 765 1372 1373
f 1372 1373 218
f 764 1091 1090
f 1090 1091 105
f 764 765 1091
f 193 1372 1335
f 1335 1372 764
f 193 218 1372
f 219 781 1374
f 782 1374 1375
f 1374 1375 219
f 781 1106 1105
f 1105 1106 108
f 781 782 1106
f 194 1374 1337
f 1337 1374 781
f 194 219 1374
f 220 798 1376
f 799 1376 1377
f 1376 1377 220
f 798 1121 1120
f 1120 1121 111
f 798 799 1121
f 195 1376 1339
f 1339 1376 798
f 195 220 1376
f 221 816 1378
f 817 1378 1379
f 1378 1379 221
f 816 1136 1135
f 1135 1136 114
f 816 817 1136
f 196 1378 1341
f 1341 1378 816
f 196 221 1378
f 222 834 1380
f 835 1380 1381
f 1380 1381 222
f 834 1152 1151
f 1151 1152 117
f 834 835 1152
f 197 1380 1343
f 1343 1380 834
f 197 222 1380
f 223 852 1382
f 853 1382 1383
f 1382 1383 223
f 852 1168 1167
f 1167 1168 120
f 852 853 1168
f 198 1382 1345
f 1345 1382 852
f 198 223 1382
f 224 870 1384
f 871 1384 1385
f 1384 1385 224
f 870 1184 1183
f 1183 1184 123
f 870 871 1184
f 199 1384 1347
f 1347 1384 870
f 199 224 1384
f 225 888 1386
f 889 1386 1387
f 1386 1387 225
f 888 1200 1199
f 1199 1200 126
f 888 889 1200
f 200 1386 1349
f 1349 1386 888
f 200 225 1386
f 226 906 1388
f 907 1388 1389
f 1388 1389 226
f 906 1216 1215
f 1215 1216 129
f 906 907 1216
f 201 1388 1351
f 1351 1388 906
f 201 226 1388
f 227 924 1390
f 925 1390 1391
f 1390 1391 227
f 924 1232 1231
f 1231 1232 132
f 924 925 1232
f 202 1390 1353
f 1353 1390 924
f 202 227 1390
f 228 942 1392
f 943 1392 1393
f 1392 1393 228
f 942 1248 1247
f 1247 1248 135
f 942 943 1248
f 203 1392 1355
f 1355 1392 942
f 203 228 1392
f 229 960 1394
f 961 1394 1395
f 1394 1395 229
f 960 1264 1263
f 1263 1264 138
f 960 961 1264
f 204 1394 1357
f 1357 1394 960
f 204 229 1394
f 975 974 1396
f 1396 974 230
f 974 1276 1275
f 1275 1276 141
f 974 975 1276
f 205 230 1359
f 1359 230 974
f 231 984 985
f 985 984 144
f 231 206 984
f 232 992 993
f 993 992 147
f 232 207 992
f 233 150 208
f 234 3 209
f 3 235 19
f 236 22 210
f 237 25 211
f 41 37 38
f 58 44 48
f 77 69 74
f 238 663 1397
f 664 1397 1398
f 1397 1398 238
f 663 1005 1004
f 1004 1005 87
f 663 664 1005
f 212 1397 1361
f 1361 1397 663
f 212 238 1397
f 239 680 1399
f 681 1399 1400
f 1399 1400 239
f 680 1019 1018
f 1018 1019 90
f 680 681 1019
f 213 1399 1363
f 1363 1399 680
f 213 239 1399
f 240 697 1401
f 698 1401 1402
f 1401 1402 240
f 697 1033 1032
f 1032 1033 93
f 697 698 1033
f 214 1401 1365
f 1365 1401 697
f 214 240 1401
f 241 714 1403
f 715 1403 1404
f 1403 1404 241
f 714 1047 1046
f 1046 1047 96
f 714 715 1047
f 215 1403 1367
f 1367 1403 714
f 215 241 1403
f 242 731 1405
f 732 1405 1406
f 1405 1406 242
f 731 1062 1061
f 1061 1062 99
f 731 732 1062
f 216 1405 1369
f 1369 1405 731
f 216 242 1405
f 243 748 1407
f 749 1407 1408
f 1407 1408 243
f 748 1077 1076
f 1076 1077 102
f 748 749 1077
f 217 1407 1371
f 1371 1407 748
f 217 243 1407
f 244 765 1409
f 766 1409 1410
f 1409 1410 244
f 765 1092 1091
f 1091 1092 105
f 765 766 1092
f 218 1409 1373
f 1373 1409 765
f 218 244 1409
f 245 782 1411
f 783 1411 1412
f 1411 1412 245
f 782 1107 1106
f 1106 1107 108
f 782 783 1107
f 219 1411 1375
f 1375 1411 782
f 219 245 1411
f 246 799 1413
f 800 1413 1414
f 1413 1414 246
f 799 1122 1121
f 1121 1122 111
f 799 800 1122
f 220 1413 1377
f 1377 1413 799
f 220 246 1413
f 247 817 1415
f 818 1415 1416
f 1415 1416 247
f 817 1137 1136
f 1136 1137 114
f 817 818 1137
f 221 1415 1379
f 1379 1415 817
f 221 247 1415
f 248 835 1417
f 836 1417 1418
f 1417 1418 248
f 835 1153 1152
f 1152 1153 117
f 835 836 1153
f 222 1417 1381
f 1381 1417 835
f 222 248 1417
f 249 853 1419
f 854 1419 1420
f 1419 1420 249
f 853 1169 1168
f 1168 1169 120
f 853 854 1169
f 223 1419 1383
f 1383 1419 853
f 223 249 1419
f 250 871 1421
f 872 1421 1422
f 1421 1422 250
f 871 1185 1184
f 1184 1185 123
f 871 872 1185
f 224 1421 1385
f 1385 1421 871
f 224 250 1421
f 251 889 1423
f 890 1423 1424
f 1423 1424 251
f 889 1201 1200
f 1200 1201 126
f 889 890 1201
f 225 1423 1387
f 1387 1423 889
f 225 251 1423
f 252 907 1425
f 908 1425 1426
f 1425 1426 252
f 907 1217 1216
f 1216 1217 129
f 907 908 1217
f 226 1425 1389
f 1389 1425 907
f 226 252 1425
f 253 925 1427
f 926 1427 1428
f 1427 1428 253
f 925 1233 1232
f 1232 1233 132
f 925 926 1233
f 227 1427 1391
f 1391 1427 925
f 227 253 1427
f 254 943 1429
f 944 1429 1430
f 1429 1430 254
f 943 1249 1248
f 1248 1249 135
f 943 944 1249
f 228 1429 1393
f 1393 1429 943
f 228 254 1429
f 255 961 1431
f 962 1431 1432
f 1431 1432 255
f 961 1265 1264
f 1264 1265 138
f 961 962 1265
f 229 1431 1395
f 1395 1431 961
f 229 255 1431
f 256 975 976
f 975 976 1276
f 1276 976 141
f 230 256 1396
f 1396 256 975
f 257 985 986
f 986 985 144
f 257 231 985
f 147 258 993
f 993 258 232
f 259 150 233
f 260 3 234
f 3 261 235
f 262 22 236
f 263 25 237
f 62 44 59
f 155 69 184
f 264 664 1433
f 665 1433 1434
f 1433 1434 264
f 664 1006 1005
f 1005 1006 87
f 664 665 1006
f 238 1433 1398
f 1398 1433 664
f 238 264 1433
f 265 681 1435
f 682 1435 1436
f 1435 1436 265
f 681 1020 1019
f 1019 1020 90
f 681 682 1020
f 239 1435 1400
f 1400 1435 681
f 239 265 1435
f 266 698 1437
f 699 1437 1438
f 1437 1438 266
f 698 1034 1033
f 1033 1034 93
f 698 699 1034
f 240 1437 1402
f 1402 1437 698
f 240 266 1437
f 267 715 1439
f 716 1439 1440
f 1439 1440 267
f 715 1048 1047
f 1047 1048 96
f 715 716 1048
f 241 1439 1404
f 1404 1439 715
f 241 267 1439
f 268 732 1441
f 733 1441 1442
f 1441 1442 268
f 732 1063 1062
f 1062 1063 99
f 732 733 1063
f 242 1441 1406
f 1406 1441 732
f 242 268 1441
f 269 749 1443
f 750 1443 1444
f 1443 1444 269
f 749 1078 1077
f 1077 1078 102
f 749 750 1078
f 243 1443 1408
f 1408 1443 749
f 243 269 1443
f 270 766 1445
f 767 1445 1446
f 1445 1446 270
f 766 1093 1092
f 1092 1093 105
f 766 767 1093
f 244 1445 1410
f 1410 1445 766
f 244 270 1445
f 271 783 1447
f 784 1447 1448
f 1447 1448 271
f 783 1108 1107
f 1107 1108 108
f 783 784 1108
f 245 1447 1412
f 1412 1447 783
f 245 271 1447
f 272 800 1449
f 801 1449 1450
f 1449 1450 272
f 800 1123 1122
f 1122 1123 111
f 800 801 1123
f 246 1449 1414
f 1414 1449 800
f 246 272 1449
f 273 818 1451
f 819 1451 1452
f 1451 1452 273
f 818 1138 1137
f 1137 1138 114
f 818 819 1138
f 247 1451 1416
f 1416 1451 818
f 247 273 1451
f 274 836 1453
f 837 1453 1454
f 1453 1454 274
f 836 1154 1153
f 1153 1154 117
f 836 837 1154
f 248 1453 1418
f 1418 1453 836
f 248 274 1453
f 275 854 1455
f 855 1455 1456
f 1455 1456 275
f 854 1170 1169
f 1169 1170 120
f 854 855 1170
f 249 1455 1420
f 1420 1455 854
f 249 275 1455
f 276 872 1457
f 873 1457 1458
f 1457 1458 276
f 872 1186 1185
f 1185 1186 123
f 872 873 1186
f 250 1457 1422
f 1422 1457 872
f 250 276 1457
f 277 890 1459
f 891 1459 1460
f 1459 1460 277
f 890 1202 1201
f 1201 1202 126
f 890 891 1202
f 251 1459 1424
f 1424 1459 890
f 251 277 1459
f 278 908 1461
f 909 1461 1462
f 1461 1462 278
f 908 1218 1217
f 1217 1218 129
f 908 909 1218
f 252 1461 1426
f 1426 1461 908
f 252 278 1461
f 279 926 1463
f 927 1463 1464
f 1463 1464 279
f 926 1234 1233
f 1233 1234 132
f 926 927 1234
f 253 1463 1428
f 1428 1463 926
f 253 279 1463
f 280 944 1465
f 945 1465 1466
f 1465 1466 280
f 944 1250 1249
f 1249 1250 135
f 944 945 1250
f 254 1465 1430
f 1430 1465 944
f 254 280 1465
f 281 962 1467
f 963 1467 1468
f 1467 1468 281
f 962 1266 1265
f 1265 1266 138
f 962 963 1266
f 255 1467 1432
f 1432 1467 962
f 255 281 1467
f 282 976 977
f 977 976 141
f 282 256 976
f 283 986 987
f 987 986 144
f 283 257 986
f 284 147 258
f 285 150 259
f 150 3 260
f 3 286 261
f 287 22 262
f 288 25 263
f 64 44 61
f 68 69 65
f 289 665 1469
f 666 1469 1470
f 1469 1470 289
f 665 1007 1006
f 1006 1007 87
f 665 666 1007
f 264 1469 1434
f 1434 1469 665
f 264 289 1469
f 290 682 1471
f 683 1471 1472
f 1471 1472 290
f 682 1021 1020
f 1020 1021 90
f 682 683 1021
f 265 1471 1436
f 1436 1471 682
f 265 290 1471
f 291 699 1473
f 700 1473 1474
f 1473 1474 291
f 699 1035 1034
f 1034 1035 93
f 699 700 1035
f 266 1473 1438
f 1438 1473 699
f 266 291 1473
f 292 716 1475
f 717 1475 1476
f 1475 1476 292
f 716 1049 1048
f 1048 1049 96
f 716 717 1049
f 267 1475 1440
f 1440 1475 716
f 267 292 1475
f 293 733 1477
f 734 1477 1478
f 1477 1478 293
f 733 1064 1063
f 1063 1064 99
f 733 734 1064
f 268 1477 1442
f 1442 1477 733
f 268 293 1477
f 294 750 1479
f 751 1479 1480
f 1479 1480 294
f 750 1079 1078
f 1078 1079 102
f 750 751 1079
f 269 1479 1444
f 1444 1479 750
f 269 294 1479
f 295 767 1481
f 768 1481 1482
f 1481 1482 295
f 767 1094 1093
f 1093 1094 105
f 767 768 1094
f 270 1481 1446
f 1446 1481 767
f 270 295 1481
f 296 784 1483
f 785 1483 1484
f 1483 1484 296
f 784 1109 1108
f 1108 1109 108
f 784 785 1109
f 271 1483 1448
f 1448 1483 784
f 271 296 1483
f 297 801 1485
f 802 1485 1486
f 1485 1486 297
f 801 1124 1123
f 1123 1124 111
f 801 802 1124
f 272 1485 1450
f 1450 1485 801
f 272 297 1485
f 298 819 1487
f 820 1487 1488
f 1487 1488 298
f 819 1139 1138
f 1138 1139 114
f 819 820 1139
f 273 1487 1452
f 1452 1487 819
f 273 298 1487
f 299 837 1489
f 838 1489 1490
f 1489 1490 299
f 837 1155 1154
f 1154 1155 117
f 837 838 1155
f 274 1489 1454
f 1454 1489 837
f 274 299 1489
f 300 855 1491
f 856 1491 1492
f 1491 1492 300
f 855 1171 1170
f 1170 1171 120
f 855 856 1171
f 275 1491 1456
f 1456 1491 855
f 275 300 1491
f 301 873 1493
f 874 1493 1494
f 1493 1494 301
f 873 1187 1186
f 1186 1187 123
f 873 874 1187
f 276 1493 1458
f 1458 1493 873
f 276 301 1493
f 302 891 1495
f 892 1495 1496
f 1495 1496 302
f 891 1203 1202
f 1202 1203 126
f 891 892 1203
f 277 1495 1460
f 1460 1495 891
f 277 302 1495
f 303 909 1497
f 910 1497 1498
f 1497 1498 303
f 909 1219 1218
f 1218 1219 129
f 909 910 1219
f 278 1497 1462
f 1462 1497 909
f 278 303 1497
f 304 927 1499
f 928 1499 1500
f 1499 1500 304
f 927 1235 1234
f 1234 1235 132
f 927 928 1235
f 279 1499 1464
f 1464 1499 927
f 279 304 1499
f 305 945 1501
f 946 1501 1502
f 1501 1502 305
f 945 1251 1250
f 1250 1251 135
f 945 946 1251
f 280 1501 1466
f 1466 1501 945
f 280 305 1501
f 306 963 1503
f 964 1503 1504
f 1503 1504 306
f 963 1267 1266
f 1266 1267 138
f 963 964 1267
f 281 1503 1468
f 1468 1503 963
f 281 306 1503
f 307 977 978
f 978 977 141
f 307 282 977
f 308 987 988
f 988 987 144
f 308 283 987
f 309 147 284
f 310 150 285
f 150 286 3
f 311 22 287
f 312 25 288
f 44 69 65
f 313 666 1505
f 667 1505 1506
f 1505 1506 313
f 666 1008 1007
f 1007 1008 87
f 666 667 1008
f 289 1505 1470
f 1470 1505 666
f 289 313 1505
f 314 683 1507
f 684 1507 1508
f 1507 1508 314
f 683 1022 1021
f 1021 1022 90
f 683 684 1022
f 290 1507 1472
f 1472 1507 683
f 290 314 1507
f 315 700 1509
f 701 1509 1510
f 1509 1510 315
f 700 1036 1035
f 1035 1036 93
f 700 701 1036
f 291 1509 1474
f 1474 1509 700
f 291 315 1509
f 316 717 1511
f 718 1511 1512
f 1511 1512 316
f 717 1050 1049
f 1049 1050 96
f 717 718 1050
f 292 1511 1476
f 1476 1511 717
f 292 316 1511
f 317 734 1513
f 735 1513 1514
f 1513 1514 317
f 734 1065 1064
f 1064 1065 99
f 734 735 1065
f 293 1513 1478
f 1478 1513 734
f 293 317 1513
f 318 751 1515
f 752 1515 1516
f 1515 1516 318
f 751 1080 1079
f 1079 1080 102
f 751 752 1080
f 294 1515 1480
f 1480 1515 751
f 294 318 1515
f 319 768 1517
f 769 1517 1518
f 1517 1518 319
f 768 1095 1094
f 1094 1095 105
f 768 769 1095
f 295 1517 1482
f 1482 1517 768
f 295 319 1517
f 320 785 1519
f 786 1519 1520
f 1519 1520 320
f 785 1110 1109
f 1109 1110 108
f 785 786 1110
f 296 1519 1484
f 1484 1519 785
f 296 320 1519
f 321 802 1521
f 803 1521 1522
f 1521 1522 321
f 802 1125 1124
f 1124 1125 111
f 802 803 1125
f 297 1521 1486
f 1486 1521 802
f 297 321 1521
f 322 820 1523
f 821 1523 1524
f 1523 1524 322
f 820 1140 1139
f 1139 1140 114
f 820 821 1140
f 298 1523 1488
f 1488 1523 820
f 298 322 1523
f 323 838 1525
f 839 1525 1526
f 1525 1526 323
f 838 1156 1155
f 1155 1156 117
f 838 839 1156
f 299 1525 1490
f 1490 1525 838
f 299 323 1525
f 324 856 1527
f 857 1527 1528
f 1527 1528 324
f 856 1172 1171
f 1171 1172 120
f 856 857 1172
f 300 1527 1492
f 1492 1527 856
f 300 324 1527
f 325 874 1529
f 875 1529 1530
f 1529 1530 325
f 874 1188 1187
f 1187 1188 123
f 874 875 1188
f 301 1529 1494
f 1494 1529 874
f 301 325 1529
f 326 892 1531
f 893 1531 1532
f 1531 1532 326
f 892 1204 1203
f 1203 1204 126
f 892 893 1204
f 302 1531 1496
f 1496 1531 892
f 302 326 1531
f 327 910 1533
f 911 1533 1534
f 1533 1534 327
f 910 1220 1219
f 1219 1220 129
f 910 911 1220
f 303 1533 1498
f 1498 1533 910
f 303 327 1533
f 328 928 1535
f 929 1535 1536
f 1535 1536 328
f 928 1236 1235
f 1235 1236 132
f 928 929 1236
f 304 1535 1500
f 1500 1535 928
f 304 328 1535
f 329 946 1537
f 947 1537 1538
f 1537 1538 329
f 946 1252 1251
f 1251 1252 135
f 946 947 1252
f 305 1537 1502
f 1502 1537 946
f 305 329 1537
f 965 964 1539
f 1539 964 330
f 964 1268 1267
f 1267 1268 138
f 964 965 1268
f 306 330 1504
f 1504 330 964
f 331 978 979
f 979 978 141
f 331 307 978
f 144 332 988
f 988 332 308
f 333 147 309
f 334 150 310
f 150 335 286
f 336 22 311
f 337 25 312
f 44 338 69
f 339 667 1540
f 668 1540 1541
f 1540 1541 339
f 667 1009 1008
f 1008 1009 87
f 667 668 1009
f 313 1540 1506
f 1506 1540 667
f 313 339 1540
f 340 684 1542
f 685 1542 1543
f 1542 1543 340
f 684 1023 1022
f 1022 1023 90
f 684 685 1023
f 314 1542 1508
f 1508 1542 684
f 314 340 1542
f 341 701 1544
f 702 1544 1545
f 1544 1545 341
f 701 1037 1036
f 1036 1037 93
f 701 702 1037
f 315 1544 1510
f 1510 1544 701
f 315 341 1544
f 342 718 1546
f 719 1546 1547
f 1546 1547 342
f 718 1051 1050
f 1050 1051 96
f 718 719 1051
f 316 1546 1512
f 1512 1546 718
f 316 342 1546
f 343 735 1548
f 736 1548 1549
f 1548 1549 343
f 735 1066 1065
f 1065 1066 99
f 735 736 1066
f 317 1548 1514
f 1514 1548 735
f 317 343 1548
f 344 752 1550
f 753 1550 1551
f 1550 1551 344
f 752 1081 1080
f 1080 1081 102
f 752 753 1081
f 318 1550 1516
f 1516 1550 752
f 318 344 1550
f 345 769 1552
f 770 1552 1553
f 1552 1553 345
f 769 1096 1095
f 1095 1096 105
f 769 770 1096
f 319 1552 1518
f 1518 1552 769
f 319 345 1552
f 346 786 1554
f 787 1554 1555
f 1554 1555 346
f 786 1111 1110
f 1110 1111 108
f 786 787 1111
f 320 1554 1520
f 1520 1554 786
f 320 346 1554
f 347 803 1556
f 804 1556 1557
f 1556 1557 347
f 803 1126 1125
f 1125 1126 111
f 803 804 1126
f 321 1556 1522
f 1522 1556 803
f 321 347 1556
f 348 821 1558
f 822 1558 1559
f 1558 1559 348
f 821 1141 1140
f 1140 1141 114
f 821 822 1141
f 322 1558 1524
f 1524 1558 821
f 322 348 1558
f 349 839 1560
f 840 1560 1561
f 1560 1561 349
f 839 1157 1156
f 1156 1157 117
f 839 840 1157
f 323 1560 1526
f 1526 1560 839
f 323 349 1560
f 350 857 1562
f 858 1562 1563
f 1562 1563 350
f 857 1173 1172
f 1172 1173 120
f 857 858 1173
f 324 1562 1528
f 1528 1562 857
f 324 350 1562
f 351 875 1564
f 876 1564 1565
f 1564 1565 351
f 875 1189 1188
f 1188 1189 123
f 875 876 1189
f 325 1564 1530
f 1530 1564 875
f 325 351 1564
f 352 893 1566
f 894 1566 1567
f 1566 1567 352
f 893 1205 1204
f 1204 1205 126
f 893 894 1205
f 326 1566 1532
f 1532 1566 893
f 326 352 1566
f 353 911 1568
f 912 1568 1569
f 1568 1569 353
f 911 1221 1220
f 1220 1221 129
f 911 912 1221
f 327 1568 1534
f 1534 1568 911
f 327 353 1568
f 354 929 1570
f 930 1570 1571
f 1570 1571 354
f 929 1237 1236
f 1236 1237 132
f 929 930 1237
f 328 1570 1536
f 1536 1570 929
f 328 354 1570
f 355 947 1572
f 948 1572 1573
f 1572 1573 355
f 947 1253 1252
f 1252 1253 135
f 947 948 1253
f 329 1572 1538
f 1538 1572 947
f 329 355 1572
f 356 965 966
f 965 966 1268
f 1268 966 138
f 330 356 1539
f 1539 356 965
f 357 979 980
f 980 979 141
f 357 331 979
f 358 144 332
f 359 147 333
f 147 150 334
f 150 360 335
f 361 22 336
f 362 25 337
f 44 363 338
f 669 668 1574
f 1574 668 364
f 668 1010 1009
f 1009 1010 87
f 668 669 1010
f 339 364 1541
f 1541 364 668
f 686 685 1575
f 1575 685 365
f 685 1024 1023
f 1023 1024 90
f 685 686 1024
f 340 365 1543
f 1543 365 685
f 703 702 1576
f 1576 702 366
f 702 1038 1037
f 1037 1038 93
f 702 703 1038
f 341 366 1545
f 1545 366 702
f 720 719 1577
f 1577 719 367
f 719 1052 1051
f 1051 1052 96
f 719 720 1052
f 342 367 1547
f 1547 367 719
f 368 736 1578
f 737 1578 1579
f 1578 1579 368
f 736 1067 1066
f 1066 1067 99
f 736 737 1067
f 343 1578 1549
f 1549 1578 736
f 343 368 1578
f 369 753 1580
f 754 1580 1581
f 1580 1581 369
f 753 1082 1081
f 1081 1082 102
f 753 754 1082
f 344 1580 1551
f 1551 1580 753
f 344 369 1580
f 370 770 1582
f 771 1582 1583
f 1582 1583 370
f 770 1097 1096
f 1096 1097 105
f 770 771 1097
f 345 1582 1553
f 1553 1582 770
f 345 370 1582
f 371 787 1584
f 788 1584 1585
f 1584 1585 371
f 787 1112 1111
f 1111 1112 108
f 787 788 1112
f 346 1584 1555
f 1555 1584 787
f 346 371 1584
f 372 804 1586
f 805 1586 1587
f 1586 1587 372
f 804 1127 1126
f 1126 1127 111
f 804 805 1127
f 347 1586 1557
f 1557 1586 804
f 347 372 1586
f 373 822 1588
f 823 1588 1589
f 1588 1589 373
f 822 1142 1141
f 1141 1142 114
f 822 823 1142
f 348 1588 1559
f 1559 1588 822
f 348 373 1588
f 374 840 1590
f 841 1590 1591
f 1590 1591 374
f 840 1158 1157
f 1157 1158 117
f 840 841 1158
f 349 1590 1561
f 1561 1590 840
f 349 374 1590
f 375 858 1592
f 859 1592 1593
f 1592 1593 375
f 858 1174 1173
f 1173 1174 120
f 858 859 1174
f 350 1592 1563
f 1563 1592 858
f 350 375 1592
f 376 876 1594
f 877 1594 1595
f 1594 1595 376
f 876 1190 1189
f 1189 1190 123
f 876 877 1190
f 351 1594 1565
f 1565 1594 876
f 351 376 1594
f 377 894 1596
f 895 1596 1597
f 1596 1597 377
f 894 1206 1205
f 1205 1206 126
f 894 895 1206
f 352 1596 1567
f 1567 1596 894
f 352 377 1596
f 378 912 1598
f 913 1598 1599
f 1598 1599 378
f 912 1222 1221
f 1221 1222 129
f 912 913 1222
f 353 1598 1569
f 1569 1598 912
f 353 378 1598
f 379 930 1600
f 931 1600 1601
f 1600 1601 379
f 930 1238 1237
f 1237 1238 132
f 930 931 1238
f 354 1600 1571
f 1571 1600 930
f 354 379 1600
f 380 948 1602
f 949 1602 1603
f 1602 1603 380
f 948 1254 1253
f 1253 1254 135
f 948 949 1254
f 355 1602 1573
f 1573 1602 948
f 355 380 1602
f 381 966 967
f 967 966 138
f 381 356 966
f 141 382 980
f 980 382 357
f 383 144 358
f 384 147 359
f 147 360 150
f 385 22 361
f 386 25 362
f 44 387 363
f 388 669 670
f 669 670 1010
f 1010 670 87
f 364 388 1574
f 1574 388 669
f 389 686 687
f 686 687 1024
f 1024 687 90
f 365 389 1575
f 1575 389 686
f 390 703 704
f 703 704 1038
f 1038 704 93
f 366 390 1576
f 1576 390 703
f 391 720 721
f 720 1053 1052
f 1052 1053 96
f 720 721 1053
f 367 391 1577
f 1577 391 720
f 738 737 1604
f 1604 737 392
f 737 1068 1067
f 1067 1068 99
f 737 738 1068
f 368 392 1579
f 1579 392 737
f 755 754 1605
f 1605 754 393
f 754 1083 1082
f 1082 1083 102
f 754 755 1083
f 369 393 1581
f 1581 393 754
f 772 771 1606
f 1606 771 394
f 771 1098 1097
f 1097 1098 105
f 771 772 1098
f 370 394 1583
f 1583 394 771
f 789 788 1607
f 1607 788 395
f 788 1113 1112
f 1112 1113 108
f 788 789 1113
f 371 395 1585
f 1585 395 788
f 806 805 1608
f 1608 805 396
f 805 1128 1127
f 1127 1128 111
f 805 806 1128
f 372 396 1587
f 1587 396 805
f 397 823 1609
f 824 1609 1610
f 1609 1610 397
f 823 1143 1142
f 1142 1143 114
f 823 824 1143
f 373 1609 1589
f 1589 1609 823
f 373 397 1609
f 398 841 1611
f 842 1611 1612
f 1611 1612 398
f 841 1159 1158
f 1158 1159 117
f 841 842 1159
f 374 1611 1591
f 1591 1611 841
f 374 398 1611
f 399 859 1613
f 860 1613 1614
f 1613 1614 399
f 859 1175 1174
f 1174 1175 120
f 859 860 1175
f 375 1613 1593
f 1593 1613 859
f 375 399 1613
f 400 877 1615
f 878 1615 1616
f 1615 1616 400
f 877 1191 1190
f 1190 1191 123
f 877 878 1191
f 376 1615 1595
f 1595 1615 877
f 376 400 1615
f 401 895 1617
f 896 1617 1618
f 1617 1618 401
f 895 1207 1206
f 1206 1207 126
f 895 896 1207
f 377 1617 1597
f 1597 1617 895
f 377 401 1617
f 402 913 1619
f 914 1619 1620
f 1619 1620 402
f 913 1223 1222
f 1222 1223 129
f 913 914 1223
f 378 1619 1599
f 1599 1619 913
f 378 402 1619
f 403 931 1621
f 932 1621 1622
f 1621 1622 403
f 931 1239 1238
f 1238 1239 132
f 931 932 1239
f 379 1621 1601
f 1601 1621 931
f 379 403 1621
f 404 949 1623
f 950 1623 1624
f 1623 1624 404
f 949 1255 1254
f 1254 1255 135
f 949 950 1255
f 380 1623 1603
f 1603 1623 949
f 380 404 1623
f 405 967 968
f 968 967 138
f 405 381 967
f 406 141 382
f 407 144 383
f 408 147 384
f 147 409 360
f 410 22 385
f 411 25 386
f 44 412 387
f 413 670 671
f 671 670 87
f 413 388 670
f 414 687 688
f 688 687 90
f 414 389 687
f 415 704 705
f 705 704 93
f 415 390 704
f 416 721 722
f 721 722 1053
f 1053 722 96
f 416 391 721
f 417 738 739
f 738 739 1068
f 1068 739 99
f 392 417 1604
f 1604 417 738
f 418 755 756
f 755 756 1083
f 1083 756 102
f 393 418 1605
f 1605 418 755
f 419 772 773
f 772 773 1098
f 1098 773 105
f 394 419 1606
f 1606 419 772
f 420 789 790
f 789 790 1113
f 1113 790 108
f 395 420 1607
f 1607 420 789
f 421 806 807
f 806 807 1128
f 1128 807 111
f 396 421 1608
f 1608 421 806
f 825 824 1625
f 1625 824 422
f 824 1144 1143
f 1143 1144 114
f 824 825 1144
f 397 422 1610
f 1610 422 824
f 843 842 1626
f 1626 842 423
f 842 1160 1159
f 1159 1160 117
f 842 843 1160
f 398 423 1612
f 1612 423 842
f 861 860 1627
f 1627 860 424
f 860 1176 1175
f 1175 1176 120
f 860 861 1176
f 399 424 1614
f 1614 424 860
f 879 878 1628
f 1628 878 425
f 878 1192 1191
f 1191 1192 123
f 878 879 1192
f 400 425 1616
f 1616 425 878
f 897 896 1629
f 1629 896 426
f 896 1208 1207
f 1207 1208 126
f 896 897 1208
f 401 426 1618
f 1618 426 896
f 915 914 1630
f 1630 914 427
f 914 1224 1223
f 1223 1224 129
f 914 915 1224
f 402 427 1620
f 1620 427 914
f 933 932 1631
f 1631 932 428
f 932 1240 1239
f 1239 1240 132
f 932 933 1240
f 403 428 1622
f 1622 428 932
f 951 950 1632
f 1632 950 429
f 950 1256 1255
f 1255 1256 135
f 950 951 1256
f 404 429 1624
f 1624 429 950
f 430 968 969
f 969 968 138
f 430 405 968
f 431 141 406
f 432 144 407
f 144 147 408
f 147 433 409
f 434 22 410
f 435 25 411
f 44 37 412
f 436 671 672
f 672 671 87
f 436 413 671
f 437 688 689
f 689 688 90
f 437 414 688
f 438 705 706
f 706 705 93
f 438 415 705
f 439 722 723
f 723 722 96
f 439 416 722
f 440 739 740
f 740 739 99
f 440 417 739
f 441 756 757
f 757 756 102
f 441 418 756
f 442 773 774
f 774 773 105
f 442 419 773
f 443 790 791
f 791 790 108
f 443 420 790
f 444 807 808
f 808 807 111
f 444 421 807
f 445 825 826
f 825 826 1144
f 1144 826 114
f 422 445 1625
f 1625 445 825
f 446 843 844
f 843 844 1160
f 1160 844 117
f 423 446 1626
f 1626 446 843
f 447 861 862
f 861 862 1176
f 1176 862 120
f 424 447 1627
f 1627 447 861
f 448 879 880
f 879 880 1192
f 1192 880 123
f 425 448 1628
f 1628 448 879
f 449 897 898
f 897 898 1208
f 1208 898 126
f 426 449 1629
f 1629 449 897
f 450 915 916
f 915 916 1224
f 1224 916 129
f 427 450 1630
f 1630 450 915
f 451 933 934
f 933 934 1240
f 1240 934 132
f 428 451 1631
f 1631 451 933
f 452 951 952
f 951 952 1256
f 1256 952 135
f 429 452 1632
f 1632 452 951
f 453 969 970
f 970 969 138
f 453 430 969
f 454 141 431
f 455 144 432
f 144 433 147
f 36 37 33
f 456 672 673
f 673 672 87
f 456 436 672
f 457 689 690
f 690 689 90
f 457 437 689
f 458 706 707
f 707 706 93
f 458 438 706
f 459 723 724
f 724 723 96
f 459 439 723
f 460 740 741
f 741 740 99
f 460 440 740
f 461 757 758
f 758 757 102
f 461 441 757
f 462 774 775
f 775 774 105
f 462 442 774
f 463 791 792
f 792 791 108
f 463 443 791
f 464 808 809
f 809 808 111
f 464 444 808
f 465 826 827
f 827 826 114
f 465 445 826
f 466 844 845
f 845 844 117
f 466 446 844
f 467 862 863
f 863 862 120
f 467 447 862
f 468 880 881
f 881 880 123
f 468 448 880
f 469 898 899
f 899 898 126
f 469 449 898
f 470 916 917
f 917 916 129
f 470 450 916
f 471 934 935
f 935 934 132
f 471 451 934
f 472 952 953
f 953 952 135
f 472 452 952
f 138 473 970
f 970 473 453
f 474 141 454
f 141 144 455
f 144 475 433
f 33 476 37
f 477 673 674
f 674 673 87
f 477 456 673
f 478 690 691
f 691 690 90
f 478 457 690
f 479 707 708
f 708 707 93
f 479 458 707
f 480 724 725
f 725 724 96
f 480 459 724
f 481 741 742
f 742 741 99
f 481 460 741
f 482 758 759
f 759 758 102
f 482 461 758
f 483 775 776
f 776 775 105
f 483 462 775
f 484 792 793
f 793 792 108
f 484 463 792
f 485 809 810
f 810 809 111
f 485 464 809
f 486 827 828
f 828 827 114
f 486 465 827
f 487 845 846
f 846 845 117
f 487 466 845
f 488 863 864
f 864 863 120
f 488 467 863
f 489 881 882
f 882 881 123
f 489 468 881
f 490 899 900
f 900 899 126
f 490 469 899
f 491 917 918
f 918 917 129
f 491 470 917
f 492 935 936
f 936 935 132
f 492 471 935
f 493 953 954
f 954 953 135
f 493 472 953
f 494 138 473
f 495 141 474
f 141 475 144
f 33 496 476
f 497 674 675
f 675 674 87
f 497 477 674
f 498 691 692
f 692 691 90
f 498 478 691
f 499 708 709
f 709 708 93
f 499 479 708
f 500 725 726
f 726 725 96
f 500 480 725
f 501 742 743
f 743 742 99
f 501 481 742
f 502 759 760
f 760 759 102
f 502 482 759
f 503 776 777
f 777 776 105
f 503 483 776
f 504 793 794
f 794 793 108
f 504 484 793
f 505 810 811
f 811 810 111
f 505 485 810
f 506 828 829
f 829 828 114
f 506 486 828
f 507 846 847
f 847 846 117
f 507 487 846
f 508 864 865
f 865 864 120
f 508 488 864
f 509 882 883
f 883 882 123
f 509 489 882
f 510 900 901
f 901 900 126
f 510 490 900
f 511 918 919
f 919 918 129
f 511 491 918
f 512 936 937
f 937 936 132
f 512 492 936
f 513 954 955
f 955 954 135
f 513 493 954
f 514 138 494
f 515 141 495
f 141 516 475
f 22 25 517
f 517 25 518
f 518 25 519
f 519 25 520
f 520 25 521
f 521 25 522
f 522 25 523
f 523 25 524
f 524 25 525
f 525 25 526
f 526 25 527
f 527 25 528
f 528 25 529
f 529 25 530
f 530 25 531
f 531 25 532
f 532 25 435
f 33 533 496
f 87 534 675
f 675 534 497
f 90 535 692
f 692 535 498
f 93 536 709
f 709 536 499
f 96 537 726
f 726 537 500
f 99 538 743
f 743 538 501
f 102 539 760
f 760 539 502
f 105 540 777
f 777 540 503
f 108 541 794
f 794 541 504
f 542 811 812
f 812 811 111
f 542 505 811
f 543 829 830
f 830 829 114
f 543 506 829
f 544 847 848
f 848 847 117
f 544 507 847
f 545 865 866
f 866 865 120
f 545 508 865
f 546 883 884
f 884 883 123
f 546 509 883
f 547 901 902
f 902 901 126
f 547 510 901
f 548 919 920
f 920 919 129
f 548 511 919
f 549 937 938
f 938 937 132
f 549 512 937
f 550 955 956
f 956 955 135
f 550 513 955
f 551 138 514
f 552 141 515
f 141 553 516
f 33 554 533
f 555 87 534
f 556 90 535
f 557 93 536
f 558 96 537
f 559 99 538
f 560 102 539
f 561 105 540
f 562 108 541
f 111 563 812
f 812 563 542
f 114 564 830
f 830 564 543
f 117 565 848
f 848 565 544
f 120 566 866
f 866 566 545
f 123 567 884
f 884 567 546
f 126 568 902
f 902 568 547
f 129 569 920
f 920 569 548
f 132 570 938
f 938 570 549
f 135 571 956
f 956 571 550
f 572 138 551
f 138 141 552
f 141 573 553
f 33 28 554
f 574 87 555
f 575 90 556
f 576 93 557
f 577 96 558
f 578 99 559
f 579 102 560
f 580 105 561
f 581 108 562
f 582 111 563
f 583 114 564
f 584 117 565
f 585 120 566
f 586 123 567
f 587 126 568
f 588 129 569
f 589 132 570
f 590 135 571
f 591 138 572
f 141 592 573
f 27 28 593
f 594 84 82
f 595 87 574
f 596 90 575
f 597 93 576
f 598 96 577
f 599 99 578
f 600 102 579
f 601 105 580
f 602 108 581
f 603 111 582
f 604 114 583
f 605 117 584
f 606 120 585
f 607 123 586
f 608 126 587
f 609 129 588
f 610 132 589
f 611 135 590
f 612 138 591
f 141 613 592
f 614 28 593
f 615 84 594
f 616 87 595
f 617 90 596
f 618 93 597
f 619 96 598
f 620 99 599
f 621 102 600
f 622 105 601
f 623 108 602
f 624 111 603
f 625 114 604
f 626 117 605
f 627 120 606
f 628 123 607
f 629 126 608
f 630 129 609
f 631 132 610
f 632 135 611
f 633 138 612
f 141 634 613
f 25 28 635
f 635 28 614
f 636 84 615
f 84 87 616
f 87 90 617
f 90 93 618
f 93 96 619
f 96 99 620
f 99 102 621
f 102 105 622
f 105 108 623
f 108 111 624
f 111 114 625
f 114 117 626
f 117 120 627
f 120 123 628
f 123 126 629
f 126 129 630
f 129 132 631
f 132 135 632
f 135 138 633
f 141 637 634
f 25 638 28
f 639 84 636
f 141 640 637
f 25 641 638
f 642 84 639
f 141 643 640
f 25 644 641
f 645 84 642
f 141 646 643
f 25 647 644
f 648 84 645
f 141 649 646
f 25 650 647
f 651 84 648
f 141 652 649
f 25 653 650
f 653 84 651
f 141 654 652
f 25 84 653
f 135 654 138
f 138 654 141
f 22 84 25
f 135 655 654
f 22 87 84
f 135 656 655
f 22 90 87
f 135 657 656
f 22 93 90
f 135 658 657
f 22 96 93
f 135 434 658
f 22 99 96
f 135 22 434
f 22 102 99
f 132 22 135
f 22 105 102
f 129 22 132
f 22 108 105
f 126 22 129
f 22 111 108
f 123 22 126
f 22 114 111
f 120 22 123
f 22 117 114
f 117 22 120
