v 0.510000 1.124068 -5.698397
v 0.510000 1.072254 -5.698397
v 0.510000 1.079202 -5.672199
v 0.510000 1.085510 -5.645840
v 0.510000 1.091174 -5.619335
v 0.510000 1.096192 -5.592700
v 0.510000 1.100559 -5.565950
v 0.510000 1.104273 -5.539102
v 0.510000 1.107333 -5.512172
v 0.510000 1.109736 -5.485175
v 0.510000 1.111481 -5.458127
v 0.510000 1.112567 -5.431045
v 0.510000 1.112993 -5.403945
v 0.510000 1.112759 -5.376842
v 0.510000 1.111865 -5.349753
v 0.510000 1.110312 -5.322694
v 0.510000 1.108100 -5.295681
v 0.510000 1.105232 -5.268729
v 0.510000 1.101707 -5.241856
v 0.510000 1.097530 -5.215076
v 0.510000 1.092702 -5.188406
v 0.510000 1.087225 -5.161861
v 0.510000 1.081104 -5.135458
v 0.510000 1.074342 -5.109211
v 0.510000 1.066943 -5.083137
v 0.510000 1.058911 -5.057251
v 0.510000 1.050251 -5.031568
v 0.510000 1.040968 -5.006103
v 0.510000 1.031068 -4.980872
v 0.510000 1.020556 -4.955890
v 0.510000 1.009440 -4.931171
v 0.510000 0.997724 -4.906730
v 0.510000 0.985417 -4.882581
v 0.510000 0.972526 -4.858740
v 0.510000 0.959058 -4.835219
v 0.510000 0.945021 -4.812033
v 0.510000 0.930424 -4.789196
v 0.510000 0.915275 -4.766722
v 0.510000 0.899583 -4.744622
v 0.510000 0.883357 -4.722912
v 0.510000 0.866608 -4.701603
v 0.510000 0.929952 -4.701603
v 0.510000 0.945882 -4.723335
v 0.510000 0.961305 -4.745430
v 0.510000 0.976212 -4.767877
v 0.510000 0.990595 -4.790664
v 0.510000 1.004446 -4.813777
v 0.510000 1.017758 -4.837205
v 0.510000 1.030523 -4.860935
v 0.510000 1.042735 -4.884955
v 0.510000 1.054388 -4.909251
v 0.510000 1.065475 -4.933810
v 0.510000 1.075989 -4.958620
v 0.510000 1.085926 -4.983666
v 0.510000 1.095280 -5.008937
v 0.510000 1.104046 -5.034417
v 0.510000 1.112220 -5.060093
v 0.510000 1.119796 -5.085952
v 0.510000 1.126771 -5.111979
v 0.510000 1.133141 -5.138161
v 0.510000 1.138903 -5.164484
v 0.510000 1.144054 -5.190933
v 0.510000 1.148591 -5.217494
v 0.510000 1.152511 -5.244153
v 0.510000 1.155812 -5.270896
v 0.510000 1.158493 -5.297708
v 0.510000 1.160552 -5.324575
v 0.510000 1.161988 -5.351483
v 0.510000 1.162800 -5.378416
v 0.510000 1.162988 -5.405362
v 0.510000 1.162551 -5.432304
v 0.510000 1.161491 -5.459229
v 0.510000 1.159807 -5.486122
v 0.510000 1.157500 -5.512969
v 0.510000 1.154572 -5.539755
v 0.510000 1.151025 -5.566466
v 0.510000 1.146859 -5.593088
v 0.510000 1.142078 -5.619607
v 0.510000 1.136684 -5.646007
v 0.510000 1.130679 -5.672275
f 2 1 80
f 2 80 3
f 3 80 79
f 3 79 4
f 4 79 78
f 4 78 5
f 5 78 77
f 5 77 6
f 6 77 76
f 6 76 7
f 7 76 75
f 7 75 8
f 8 75 74
f 8 74 9
f 9 74 73
f 9 73 10
f 10 73 72
f 10 72 11
f 11 72 71
f 11 71 12
f 12 71 70
f 12 70 13
f 13 70 69
f 13 69 14
f 14 69 68
f 14 68 15
f 15 68 67
f 15 67 16
f 16 67 66
f 16 66 17
f 17 66 65
f 17 65 18
f 18 65 64
f 18 64 19
f 19 64 63
f 19 63 20
f 20 63 62
f 20 62 21
f 21 62 61
f 21 61 22
f 22 61 60
f 22 60 23
f 23 60 59
f 23 59 24
f 24 59 58
f 24 58 25
f 25 58 57
f 25 57 26
f 26 57 56
f 26 56 27
f 27 56 55
f 27 55 28
f 28 55 54
f 28 54 29
f 29 54 53
f 29 53 30
f 30 53 52
f 30 52 31
f 31 52 51
f 31 51 32
f 32 51 50
f 32 50 33
f 33 50 49
f 33 49 34
f 34 49 48
f 34 48 35
f 35 48 47
f 35 47 36
f 36 47 46
f 36 46 37
f 37 46 45
f 37 45 38
f 38 45 44
f 38 44 39
f 39 44 43
f 39 43 40
f 40 43 42
f 40 42 41
