v -0.298461 0.030350 -1.395000
v -0.293859 0.060390 -1.395000
v -0.286242 0.089809 -1.395000
v -0.275687 0.118307 -1.395000
v -0.262304 0.145591 -1.395000
v -0.246229 0.171380 -1.395000
v -0.227627 0.195412 -1.395000
v -0.206690 0.217438 -1.395000
v -0.183632 0.237233 -1.395000
v -0.158689 0.254593 -1.395000
v -0.132118 0.269341 -1.395000
v -0.104192 0.281326 -1.395000
v -0.075196 0.290423 -1.395000
v -0.045428 0.296540 -1.395000
v -0.015195 0.299615 -1.395000
v 0.015195 0.299615 -1.395000
v 0.045428 0.296540 -1.395000
v 0.075196 0.290423 -1.395000
v 0.104192 0.281326 -1.395000
v 0.132118 0.269341 -1.395000
v 0.158689 0.254593 -1.395000
v 0.183632 0.237233 -1.395000
v 0.206690 0.217438 -1.395000
v 0.227627 0.195412 -1.395000
v 0.246229 0.171380 -1.395000
v 0.262304 0.145591 -1.395000
v 0.275687 0.118307 -1.395000
v 0.286242 0.089809 -1.395000
v 0.293859 0.060390 -1.395000
v 0.298461 0.030350 -1.395000
v 0.300000 0.000000 -1.395000
v 0.298461 -0.030350 -1.395000
v 0.293859 -0.060390 -1.395000
v 0.286242 -0.089809 -1.395000
v 0.275687 -0.118307 -1.395000
v 0.262304 -0.145591 -1.395000
v 0.246229 -0.171380 -1.395000
v 0.227627 -0.195412 -1.395000
v 0.206690 -0.217438 -1.395000
v 0.183632 -0.237233 -1.395000
v 0.158689 -0.254593 -1.395000
v 0.132118 -0.269341 -1.395000
v 0.104192 -0.281326 -1.395000
v 0.075196 -0.290423 -1.395000
v 0.045428 -0.296540 -1.395000
v 0.015195 -0.299615 -1.395000
v -0.015195 -0.299615 -1.395000
v -0.045428 -0.296540 -1.395000
v -0.075196 -0.290423 -1.395000
v -0.104192 -0.281326 -1.395000
v -0.132118 -0.269341 -1.395000
v -0.158689 -0.254593 -1.395000
v -0.183632 -0.237233 -1.395000
v -0.206690 -0.217438 -1.395000
v -0.227627 -0.195412 -1.395000
v -0.246229 -0.171380 -1.395000
v -0.262304 -0.145591 -1.395000
v -0.275687 -0.118307 -1.395000
v -0.286242 -0.089809 -1.395000
v -0.293859 -0.060390 -1.395000
v -0.298461 -0.030350 -1.395000
v -0.300000 0.000000 -1.395000
v -0.233794 0.023775 -1.395000
v -0.230190 0.047305 -1.395000
v -0.224223 0.070350 -1.395000
v -0.215955 0.092674 -1.395000
v -0.205471 0.114046 -1.395000
v -0.192879 0.134248 -1.395000
v -0.178308 0.153073 -1.395000
v -0.161907 0.170326 -1.395000
v -0.143845 0.185832 -1.395000
v -0.124307 0.199431 -1.395000
v -0.103493 0.210984 -1.395000
v -0.081617 0.220372 -1.395000
v -0.058903 0.227498 -1.395000
v -0.035586 0.232290 -1.395000
v -0.011903 0.234698 -1.395000
v 0.011903 0.234698 -1.395000
v 0.035586 0.232290 -1.395000
v 0.058903 0.227498 -1.395000
v 0.081617 0.220372 -1.395000
v 0.103493 0.210984 -1.395000
v 0.124307 0.199431 -1.395000
v 0.143845 0.185832 -1.395000
v 0.161907 0.170326 -1.395000
v 0.178308 0.153073 -1.395000
v 0.192879 0.134248 -1.395000
v 0.205471 0.114046 -1.395000
v 0.215955 0.092674 -1.395000
v 0.224223 0.070350 -1.395000
v 0.230190 0.047305 -1.395000
v 0.233794 0.023775 -1.395000
v 0.235000 0.000000 -1.395000
v 0.233794 -0.023775 -1.395000
v 0.230190 -0.047305 -1.395000
v 0.224223 -0.070350 -1.395000
v 0.215955 -0.092674 -1.395000
v 0.205471 -0.114046 -1.395000
v 0.192879 -0.134248 -1.395000
v 0.178308 -0.153073 -1.395000
v 0.161907 -0.170326 -1.395000
v 0.143845 -0.185832 -1.395000
v 0.124307 -0.199431 -1.395000
v 0.103493 -0.210984 -1.395000
v 0.081617 -0.220372 -1.395000
v 0.058903 -0.227498 -1.395000
v 0.035586 -0.232290 -1.395000
v 0.011903 -0.234698 -1.395000
v -0.011903 -0.234698 -1.395000
v -0.035586 -0.232290 -1.395000
v -0.058903 -0.227498 -1.395000
v -0.081617 -0.220372 -1.395000
v -0.103493 -0.210984 -1.395000
v -0.124307 -0.199431 -1.395000
v -0.143845 -0.185832 -1.395000
v -0.161907 -0.170326 -1.395000
v -0.178308 -0.153073 -1.395000
v -0.192879 -0.134248 -1.395000
v -0.205471 -0.114046 -1.395000
v -0.215955 -0.092674 -1.395000
v -0.224223 -0.070350 -1.395000
v -0.230190 -0.047305 -1.395000
v -0.233794 -0.023775 -1.395000
v -0.235000 0.000000 -1.395000
f 1 64 2
f 1 63 64
f 2 65 3
f 2 64 65
f 3 66 4
f 3 65 66
f 4 67 5
f 4 66 67
f 5 68 6
f 5 67 68
f 6 69 7
f 6 68 69
f 7 70 8
f 7 69 70
f 8 71 9
f 8 70 71
f 9 72 10
f 9 71 72
f 10 73 11
f 10 72 73
f 11 74 12
f 11 73 74
f 12 75 13
f 12 74 75
f 13 76 14
f 13 75 76
f 14 77 15
f 14 76 77
f 15 78 16
f 15 77 78
f 16 79 17
f 16 78 79
f 17 80 18
f 17 79 80
f 18 81 19
f 18 80 81
f 19 82 20
f 19 81 82
f 20 83 21
f 20 82 83
f 21 84 22
f 21 83 84
f 22 85 23
f 22 84 85
f 23 86 24
f 23 85 86
f 24 87 25
f 24 86 87
f 25 88 26
f 25 87 88
f 26 89 27
f 26 88 89
f 27 90 28
f 27 89 90
f 28 91 29
f 28 90 91
f 29 92 30
f 29 91 92
f 30 93 31
f 30 92 93
f 31 94 32
f 31 93 94
f 32 95 33
f 32 94 95
f 33 96 34
f 33 95 96
f 34 97 35
f 34 96 97
f 35 98 36
f 35 97 98
f 36 99 37
f 36 98 99
f 37 100 38
f 37 99 100
f 38 101 39
f 38 100 101
f 39 102 40
f 39 101 102
f 40 103 41
f 40 102 103
f 41 104 42
f 41 103 104
f 42 105 43
f 42 104 105
f 43 106 44
f 43 105 106
f 44 107 45
f 44 106 107
f 45 108 46
f 45 107 108
f 46 109 47
f 46 108 109
f 47 110 48
f 47 109 110
f 48 111 49
f 48 110 111
f 49 112 50
f 49 111 112
f 50 113 51
f 50 112 113
f 51 114 52
f 51 113 114
f 52 115 53
f 52 114 115
f 53 116 54
f 53 115 116
f 54 117 55
f 54 116 117
f 55 118 56
f 55 117 118
f 56 119 57
f 56 118 119
f 57 120 58
f 57 119 120
f 58 121 59
f 58 120 121
f 59 122 60
f 59 121 122
f 60 123 61
f 60 122 123
f 61 124 62
f 61 123 124
f 62 63 1
f 62 124 63
