v -0.066050 0.038134 -0.027354
v -0.073669 0.019740 -0.027354
v 0.085000 0.000000 -0.035295
v 0.003047 0.000000 -0.000039
v 0.000000 0.000000 0.000000
v -0.003047 0.000000 -0.000039
v -0.082822 0.000000 -0.033164
v -0.085000 0.000000 -0.035295
v -0.084564 0.008599 -0.035295
v -0.010209 0.005894 -0.000580
v -0.011386 0.003051 -0.000580
v 0.022662 0.006072 -0.002316
v -0.020319 0.011731 -0.002316
v -0.022662 0.006072 -0.002316
v 0.033719 0.009035 -0.005190
v -0.030232 0.017454 -0.005190
v -0.033719 0.009035 -0.005190
v 0.044450 0.011910 -0.009174
v -0.039853 0.023009 -0.009174
v -0.044450 0.011910 -0.009174
v 0.054751 0.014670 -0.014231
v -0.049088 0.028341 -0.014231
v -0.054751 0.014670 -0.014231
v 0.064522 0.017289 -0.020311
v -0.057849 0.033399 -0.020311
v -0.064522 0.017289 -0.020311
v 0.073669 0.019740 -0.027354
v -0.053930 0.053930 -0.027354
v 0.006091 0.000000 -0.000155
v -0.080591 0.000000 -0.031089
v -0.008335 0.008335 -0.000580
v -0.016590 0.016590 -0.002316
v -0.024684 0.024684 -0.005190
v -0.032540 0.032540 -0.009174
v -0.040081 0.040081 -0.014231
v -0.047234 0.047234 -0.020311
v -0.038134 0.066050 -0.027354
v 0.009132 0.000000 -0.000348
v -0.078307 0.000000 -0.029072
v -0.005894 0.010209 -0.000580
v -0.011731 0.020319 -0.002316
v -0.017454 0.030232 -0.005190
v -0.023009 0.039853 -0.009174
v -0.028341 0.049088 -0.014231
v -0.033399 0.057849 -0.020311
v -0.019740 0.073669 -0.027354
v 0.012167 0.000000 -0.000618
v -0.075974 0.000000 -0.027113
v -0.003051 0.011386 -0.000580
v -0.006072 0.022662 -0.002316
v -0.009035 0.033719 -0.005190
v -0.011910 0.044450 -0.009174
v -0.014670 0.054751 -0.014231
v -0.017289 0.064522 -0.020311
v 0.000000 0.076268 -0.027354
v -0.006091 0.000000 -0.000155
v -0.073591 0.000000 -0.025214
v 0.000000 0.011788 -0.000580
v 0.000000 0.023462 -0.002316
v 0.000000 0.034909 -0.005190
v 0.000000 0.046018 -0.009174
v 0.000000 0.056682 -0.014231
v 0.000000 0.066798 -0.020311
v 0.019740 0.073669 -0.027354
v -0.009132 0.000000 -0.000348
v -0.071161 0.000000 -0.023376
v 0.003051 0.011386 -0.000580
v 0.006072 0.022662 -0.002316
v 0.009035 0.033719 -0.005190
v 0.011910 0.044450 -0.009174
v 0.014670 0.054751 -0.014231
v 0.017289 0.064522 -0.020311
v 0.038134 0.066050 -0.027354
v -0.068685 0.000000 -0.021601
v 0.005894 0.010209 -0.000580
v 0.011731 0.020319 -0.002316
v 0.017454 0.030232 -0.005190
v 0.023009 0.039853 -0.009174
v 0.028341 0.049088 -0.014231
v 0.033399 0.057849 -0.020311
v 0.053930 0.053930 -0.027354
v -0.066164 0.000000 -0.019889
v 0.008335 0.008335 -0.000580
v 0.016590 0.016590 -0.002316
v 0.024684 0.024684 -0.005190
v 0.032540 0.032540 -0.009174
v 0.040081 0.040081 -0.014231
v 0.047234 0.047234 -0.020311
v 0.066050 0.038134 -0.027354
v -0.063601 0.000000 -0.018241
v 0.010209 0.005894 -0.000580
v 0.020319 0.011731 -0.002316
v 0.030232 0.017454 -0.005190
v 0.039853 0.023009 -0.009174
v 0.049088 0.028341 -0.014231
v 0.057849 0.033399 -0.020311
v 0.015194 0.000000 -0.000966
v -0.060997 0.000000 -0.016659
v 0.011386 0.003051 -0.000580
v 0.082822 0.000000 -0.033164
v 0.018211 0.000000 -0.001390
v -0.058354 0.000000 -0.015144
v 0.084564 0.008599 -0.035295
v 0.021217 0.000000 -0.001891
v -0.055673 0.000000 -0.013696
v 0.024208 0.000000 -0.002467
v -0.052956 0.000000 -0.012317
v 0.027185 0.000000 -0.003120
v -0.050205 0.000000 -0.011007
v 0.081102 0.025446 -0.035295
v 0.083260 0.017110 -0.035295
v 0.080591 0.000000 -0.031089
v 0.030143 0.000000 -0.003848
v -0.047421 0.000000 -0.009768
v 0.004305 0.084891 -0.035295
v 0.012871 0.084020 -0.035295
v 0.021305 0.082287 -0.035295
v 0.029521 0.079709 -0.035295
v 0.037434 0.076313 -0.035295
v 0.044962 0.072135 -0.035295
v 0.052029 0.067216 -0.035295
v 0.058562 0.061607 -0.035295
v 0.064494 0.055367 -0.035295
v 0.069765 0.048558 -0.035295
v 0.074319 0.041251 -0.035295
v 0.078111 0.033520 -0.035295
v 0.078307 0.000000 -0.029072
v 0.033083 0.000000 -0.004650
v -0.044608 0.000000 -0.008599
v -0.004305 0.084891 -0.035295
v 0.075974 0.000000 -0.027113
v 0.036001 0.000000 -0.005527
v -0.041765 0.000000 -0.007502
v -0.081102 0.025446 -0.035295
v -0.078111 0.033520 -0.035295
v -0.074319 0.041251 -0.035295
v -0.069765 0.048558 -0.035295
v -0.064494 0.055367 -0.035295
v -0.058562 0.061607 -0.035295
v -0.052029 0.067216 -0.035295
v -0.044962 0.072135 -0.035295
v -0.037434 0.076313 -0.035295
v -0.029521 0.079709 -0.035295
v -0.021305 0.082287 -0.035295
v -0.012871 0.084020 -0.035295
v 0.073591 0.000000 -0.025214
v 0.038895 0.000000 -0.006478
v -0.038895 0.000000 -0.006478
v -0.083260 0.017110 -0.035295
v 0.071161 0.000000 -0.023376
v 0.041765 0.000000 -0.007502
v -0.036001 0.000000 -0.005527
v 0.068685 0.000000 -0.021601
v 0.044608 0.000000 -0.008599
v -0.033083 0.000000 -0.004650
v 0.066164 0.000000 -0.019889
v 0.047421 0.000000 -0.009768
v -0.030143 0.000000 -0.003848
v 0.063601 0.000000 -0.018241
v -0.012167 0.000000 -0.000618
v -0.027185 0.000000 -0.003120
v 0.060997 0.000000 -0.016659
v -0.015194 0.000000 -0.000966
v -0.024208 0.000000 -0.002467
v 0.058354 0.000000 -0.015144
v -0.018211 0.000000 -0.001390
v -0.021217 0.000000 -0.001891
v 0.055673 0.000000 -0.013696
v 0.052956 0.000000 -0.012317
v 0.050205 0.000000 -0.011007
v 0.002303 0.017495 -0.001305
v 0.000000 0.017646 -0.001305
v 0.004567 0.017045 -0.001305
v 0.006753 0.016303 -0.001305
v 0.008823 0.015282 -0.001305
v 0.010742 0.014000 -0.001305
v 0.003814 0.028971 -0.003612
v 0.000000 0.029221 -0.003612
v 0.007563 0.028225 -0.003612
v 0.011182 0.026996 -0.003612
v 0.014610 0.025306 -0.003612
v 0.017788 0.023182 -0.003612
v 0.005288 0.040166 -0.007045
v 0.000000 0.040513 -0.007045
v 0.010485 0.039132 -0.007045
v 0.015503 0.037429 -0.007045
v 0.020256 0.035085 -0.007045
v 0.024663 0.032141 -0.007045
v 0.028647 0.028647 -0.007045
v 0.006711 0.050973 -0.011571
v 0.000000 0.051413 -0.011571
v 0.013307 0.049661 -0.011571
v 0.019675 0.047499 -0.011571
v 0.025706 0.044525 -0.011571
v 0.031298 0.040788 -0.011571
v 0.036354 0.036354 -0.011571
v 0.008068 0.061286 -0.017146
v 0.000000 0.061815 -0.017146
v 0.015999 0.059709 -0.017146
v 0.023656 0.057110 -0.017146
v 0.030908 0.053533 -0.017146
v 0.037631 0.049041 -0.017146
v 0.043710 0.043710 -0.017146
v 0.049041 0.037631 -0.017146
v 0.009348 0.071007 -0.023716
v 0.000000 0.071620 -0.023716
v 0.018537 0.069179 -0.023716
v 0.027408 0.066168 -0.023716
v 0.035810 0.062025 -0.023716
v 0.043599 0.056820 -0.023716
v 0.050643 0.050643 -0.023716
v 0.056820 0.043599 -0.023716
v -0.010083 0.024344 -0.002929
v -0.014639 0.021909 -0.002929
v -0.016040 0.020904 -0.002929
v 0.021148 0.024115 -0.004366
v 0.019526 0.025446 -0.004366
v -0.016684 0.033832 -0.006083
v -0.014436 0.034851 -0.006083
v -0.020957 0.031365 -0.006083
v -0.022964 0.029927 -0.006083
v 0.028535 0.032539 -0.008076
v 0.026346 0.034335 -0.008076
v 0.030603 0.030603 -0.008076
v -0.021553 0.043705 -0.010340
v -0.018648 0.045021 -0.010340
v -0.027073 0.040518 -0.010340
v -0.029665 0.038660 -0.010340
v 0.035647 0.040647 -0.012869
v 0.032912 0.042892 -0.012869
v 0.038229 0.038229 -0.012869
v 0.040647 0.035647 -0.012869
v -0.026213 0.053155 -0.015657
v -0.022680 0.054755 -0.015657
v -0.032927 0.049278 -0.015657
v -0.036079 0.047019 -0.015657
v 0.042413 0.048363 -0.018698
v 0.039159 0.051033 -0.018698
v 0.045485 0.045485 -0.018698
v 0.048363 0.042413 -0.018698
v 0.051033 0.039159 -0.018698
v -0.030620 0.062090 -0.021984
v -0.026493 0.063960 -0.021984
v -0.038462 0.057563 -0.021984
v -0.042145 0.054924 -0.021984
v 0.048769 0.055611 -0.025507
v 0.045028 0.058681 -0.025507
v 0.052302 0.052302 -0.025507
v 0.055611 0.048769 -0.025507
v 0.058681 0.045028 -0.025507
v -0.009763 0.036437 -0.006083
v -0.007359 0.036997 -0.006083
v -0.012612 0.047070 -0.010340
v -0.009507 0.047794 -0.010340
v -0.015339 0.057247 -0.015657
v -0.011562 0.058128 -0.015657
v -0.017918 0.066871 -0.021984
v -0.013506 0.067900 -0.021984
v 0.000000 0.037722 -0.006083
v -0.003187 0.048626 -0.010340
v 0.000000 0.048730 -0.010340
v -0.003876 0.059140 -0.015657
v 0.000000 0.059267 -0.015657
v -0.004528 0.069082 -0.021984
v 0.000000 0.069230 -0.021984
v 0.009507 0.047794 -0.010340
v 0.011562 0.058128 -0.015657
v 0.009036 0.068638 -0.021984
v 0.013506 0.067900 -0.021984
v 0.026493 0.063960 -0.021984
f 1 2 3
f 4 5 6
f 7 8 9
f 11 172 171
f 172 12 171
f 11 171 10
f 14 215 178
f 177 214 215
f 215 14 214
f 178 217 216
f 217 15 216
f 178 216 177
f 14 214 13
f 214 177 13
f 17 221 184
f 183 220 221
f 221 17 220
f 184 223 222
f 223 18 222
f 184 222 183
f 17 220 218
f 220 183 218
f 17 218 16
f 20 228 191
f 190 227 228
f 228 20 227
f 191 230 229
f 230 21 229
f 191 229 190
f 20 227 225
f 227 190 225
f 20 225 19
f 23 236 198
f 197 235 236
f 236 23 235
f 198 238 237
f 238 24 237
f 198 237 197
f 23 235 233
f 235 197 233
f 23 233 22
f 26 245 206
f 205 244 245
f 245 26 244
f 206 247 246
f 247 27 246
f 206 246 205
f 26 244 242
f 244 205 242
f 26 242 25
f 28 1 3
f 29 4 6
f 30 7 9
f 10 171 173
f 171 12 173
f 10 173 31
f 179 213 177
f 213 13 177
f 177 216 179
f 216 15 179
f 13 213 32
f 213 179 32
f 16 218 183
f 185 219 218
f 218 16 219
f 183 222 224
f 222 18 224
f 183 224 185
f 16 219 251
f 219 185 251
f 16 251 33
f 19 225 190
f 192 226 225
f 225 19 226
f 190 229 231
f 229 21 231
f 190 231 192
f 19 226 253
f 226 192 253
f 19 253 34
f 22 233 197
f 199 234 233
f 233 22 234
f 197 237 239
f 237 24 239
f 197 239 199
f 22 234 255
f 234 199 255
f 22 255 35
f 25 242 205
f 207 243 242
f 242 25 243
f 205 246 248
f 246 27 248
f 205 248 207
f 25 243 257
f 243 207 257
f 25 257 36
f 37 28 3
f 38 29 6
f 39 30 9
f 31 173 174
f 173 12 174
f 31 174 40
f 32 179 180
f 179 15 180
f 32 180 41
f 33 251 185
f 186 252 251
f 251 33 252
f 185 224 186
f 224 18 186
f 33 252 42
f 252 186 42
f 34 253 192
f 193 254 253
f 253 34 254
f 192 231 232
f 231 21 232
f 192 232 193
f 34 254 260
f 254 193 260
f 34 260 43
f 35 255 199
f 200 256 255
f 255 35 256
f 199 239 240
f 239 24 240
f 199 240 200
f 35 256 262
f 256 200 262
f 35 262 44
f 36 257 207
f 208 258 257
f 257 36 258
f 207 248 249
f 248 27 249
f 207 249 208
f 36 258 264
f 258 208 264
f 36 264 45
f 46 37 3
f 47 38 6
f 48 39 9
f 40 174 175
f 174 12 175
f 40 175 49
f 41 180 181
f 180 15 181
f 41 181 50
f 187 259 186
f 259 42 186
f 186 18 187
f 42 259 51
f 259 187 51
f 43 260 193
f 194 261 260
f 260 43 261
f 193 232 194
f 232 21 194
f 43 261 52
f 261 194 52
f 44 262 200
f 201 263 262
f 262 44 263
f 200 240 241
f 240 24 241
f 200 241 201
f 44 263 53
f 263 201 53
f 45 264 208
f 209 265 264
f 264 45 265
f 208 249 250
f 249 27 250
f 208 250 209
f 45 265 268
f 265 209 268
f 45 268 54
f 55 46 3
f 47 6 56
f 57 48 9
f 49 175 176
f 175 12 176
f 49 176 58
f 50 181 182
f 181 15 182
f 50 182 59
f 51 187 188
f 187 18 188
f 51 188 60
f 195 266 194
f 266 52 194
f 194 21 195
f 52 266 61
f 266 195 61
f 202 267 201
f 267 53 201
f 201 241 202
f 241 24 202
f 53 267 62
f 267 202 62
f 54 268 209
f 210 269 268
f 268 54 269
f 209 250 210
f 250 27 210
f 54 269 63
f 269 210 63
f 64 55 3
f 47 56 65
f 66 57 9
f 58 176 67
f 176 12 67
f 59 182 68
f 182 15 68
f 60 188 189
f 188 18 189
f 60 189 69
f 61 195 196
f 195 21 196
f 61 196 70
f 62 202 203
f 202 24 203
f 62 203 71
f 211 270 210
f 270 63 210
f 210 27 211
f 63 270 72
f 270 211 72
f 73 64 3
f 74 66 9
f 75 67 12
f 76 68 15
f 69 189 77
f 189 18 77
f 70 196 78
f 196 21 78
f 71 203 204
f 203 24 204
f 71 204 79
f 72 211 212
f 211 27 212
f 72 212 80
f 81 73 3
f 82 74 9
f 83 75 12
f 84 76 15
f 85 77 18
f 86 78 21
f 79 204 87
f 204 24 87
f 80 212 88
f 212 27 88
f 89 81 3
f 90 82 9
f 91 83 12
f 92 84 15
f 93 85 18
f 94 86 21
f 95 87 24
f 96 88 27
f 27 89 3
f 97 47 65
f 98 90 9
f 99 91 12
f 12 92 15
f 15 93 18
f 18 94 21
f 21 95 24
f 24 96 27
f 27 3 100
f 101 97 65
f 102 98 9
f 103 99 12
f 24 27 100
f 104 101 65
f 105 102 9
f 103 12 15
f 21 24 100
f 106 104 65
f 107 105 9
f 103 15 18
f 18 21 100
f 108 106 65
f 109 107 9
f 110 111 18
f 111 103 18
f 18 100 112
f 113 108 65
f 114 109 9
f 115 116 18
f 116 117 18
f 117 118 18
f 118 119 18
f 119 120 18
f 120 121 18
f 121 122 18
f 122 123 18
f 123 124 18
f 124 125 18
f 125 126 18
f 126 110 18
f 18 112 127
f 128 113 65
f 129 114 9
f 130 115 18
f 18 127 131
f 132 128 65
f 133 129 9
f 134 135 18
f 135 136 18
f 136 137 18
f 137 138 18
f 138 139 18
f 139 140 18
f 140 141 18
f 141 142 18
f 142 143 18
f 143 144 18
f 144 145 18
f 145 130 18
f 18 131 146
f 147 132 65
f 148 133 9
f 9 149 18
f 149 134 18
f 18 146 150
f 151 147 65
f 152 148 9
f 18 150 153
f 154 151 65
f 155 152 9
f 18 153 156
f 157 154 65
f 158 155 9
f 18 156 159
f 157 65 160
f 161 158 9
f 18 159 162
f 157 160 163
f 164 161 9
f 18 162 165
f 157 163 166
f 167 164 9
f 18 165 168
f 157 166 167
f 167 9 18
f 18 168 169
f 157 167 18
f 18 169 170
f 170 157 18
f 103 3 100
