v 0.817500 0.378429 -6.413000
v 0.817207 0.380376 -6.401954
v 0.817500 0.275000 -6.413000
v 0.816410 0.275000 -6.391502
v 0.816312 0.382360 -6.390707
v 0.814792 0.384369 -6.379313
v 0.813150 0.275000 -6.370224
v 0.812625 0.386394 -6.367827
v 0.809788 0.388426 -6.356303
v 0.807755 0.275000 -6.349385
v 0.806257 0.390455 -6.344794
v 0.802009 0.392472 -6.333356
v 0.800279 0.275000 -6.329199
v 0.797033 0.394467 -6.322044
v 0.791344 0.396427 -6.310924
v 0.790799 0.275000 -6.309873
v 0.784965 0.398343 -6.300061
v 0.779412 0.275000 -6.291606
v 0.777917 0.400201 -6.289522
v 0.770221 0.401991 -6.279371
v 0.766236 0.275000 -6.274583
v 0.761899 0.403701 -6.269674
v 0.752973 0.405319 -6.260498
v 0.751405 0.275000 -6.258982
v 0.743483 0.406836 -6.251895
v 0.735073 0.275000 -6.244960
v 0.733503 0.408247 -6.243893
v 0.723111 0.409547 -6.236517
v 0.717405 0.275000 -6.232663
v 0.712385 0.410733 -6.229792
v 0.701405 0.411800 -6.223743
v 0.698584 0.275000 -6.222217
v 0.690248 0.412743 -6.218395
v 0.678992 0.413558 -6.213773
v 0.678802 0.275000 -6.213728
v 0.667687 0.414244 -6.209882
v 0.658264 0.275000 -6.207284
v 0.656343 0.414805 -6.206699
v 0.644967 0.415246 -6.204201
v 0.637178 0.275000 -6.202950
v 0.633566 0.415570 -6.202363
v 0.622147 0.415781 -6.201162
v 0.615763 0.275000 -6.200773
v 0.610717 0.415885 -6.200573
v 0.599283 0.415885 -6.200573
v 0.594237 0.275000 -6.200773
v 0.587853 0.415781 -6.201162
v 0.576434 0.415570 -6.202363
v 0.572822 0.275000 -6.202950
v 0.565033 0.415246 -6.204201
v 0.553657 0.414805 -6.206699
v 0.551736 0.275000 -6.207284
v 0.542313 0.414244 -6.209882
v 0.531198 0.275000 -6.213728
v 0.531008 0.413558 -6.213773
v 0.519752 0.412743 -6.218395
v 0.511416 0.275000 -6.222217
v 0.508595 0.411800 -6.223743
v 0.497615 0.410733 -6.229792
v 0.492595 0.275000 -6.232663
v 0.486889 0.409547 -6.236517
v 0.476497 0.408247 -6.243893
v 0.474927 0.275000 -6.244960
v 0.466517 0.406836 -6.251895
v 0.458595 0.275000 -6.258982
v 0.457027 0.405319 -6.260498
v 0.448101 0.403701 -6.269674
v 0.443764 0.275000 -6.274583
v 0.439779 0.401991 -6.279371
v 0.432083 0.400201 -6.289522
v 0.430588 0.275000 -6.291606
v 0.425035 0.398343 -6.300061
v 0.419201 0.275000 -6.309873
v 0.418656 0.396427 -6.310924
v 0.412967 0.394467 -6.322044
v 0.409721 0.275000 -6.329199
v 0.407991 0.392472 -6.333356
v 0.403743 0.390455 -6.344794
v 0.402245 0.275000 -6.349385
v 0.400212 0.388426 -6.356303
v 0.397375 0.386394 -6.367827
v 0.396850 0.275000 -6.370224
v 0.395208 0.384369 -6.379313
v 0.393688 0.382360 -6.390707
v 0.393590 0.275000 -6.391502
v 0.392793 0.380376 -6.401954
v 0.392500 0.378429 -6.413000
v 0.392500 0.275000 -6.413000
f 1 3 2
f 2 3 4
f 2 4 5
f 5 4 6
f 6 4 7
f 6 7 8
f 8 7 9
f 9 7 10
f 9 10 11
f 11 10 12
f 12 10 13
f 12 13 14
f 14 13 15
f 15 13 16
f 15 16 17
f 17 16 18
f 17 18 19
f 19 18 20
f 20 18 21
f 20 21 22
f 22 21 23
f 23 21 24
f 23 24 25
f 25 24 26
f 25 26 27
f 27 26 28
f 28 26 29
f 28 29 30
f 30 29 31
f 31 29 32
f 31 32 33
f 33 32 34
f 34 32 35
f 34 35 36
f 36 35 37
f 36 37 38
f 38 37 39
f 39 37 40
f 39 40 41
f 41 40 42
f 42 40 43
f 42 43 44
f 44 43 45
f 45 43 46
f 45 46 47
f 47 46 48
f 48 46 49
f 48 49 50
f 50 49 51
f 51 49 52
f 51 52 53
f 53 52 54
f 53 54 55
f 55 54 56
f 56 54 57
f 56 57 58
f 58 57 59
f 59 57 60
f 59 60 61
f 61 60 62
f 62 60 63
f 62 63 64
f 64 63 65
f 64 65 66
f 66 65 67
f 67 65 68
f 67 68 69
f 69 68 70
f 70 68 71
f 70 71 72
f 72 71 73
f 72 73 74
f 74 73 75
f 75 73 76
f 75 76 77
f 77 76 78
f 78 76 79
f 78 79 80
f 80 79 81
f 81 79 82
f 81 82 83
f 83 82 84
f 84 82 85
f 84 85 86
f 86 85 87
f 87 85 88
