v -0.509153 0.353110 -1.097769
v -0.510736 0.350816 -1.097769
v -0.519245 0.356770 -1.095000
v -0.512846 0.365908 -1.095000
v -0.512623 0.366221 -1.095000
v -0.510454 0.364872 -1.095680
v -0.399680 0.296008 -1.130371
v -0.397671 0.294759 -1.131000
v -0.398183 0.294066 -1.131000
v -0.412519 0.273593 -1.131000
v -0.412994 0.272875 -1.131000
v -0.414853 0.274334 -1.130372
v -0.419135 0.282381 -1.128231
v -0.420401 0.280493 -1.128231
v -0.415734 0.305260 -1.125462
v -0.427748 0.288184 -1.125462
v -0.429040 0.286257 -1.125462
v -0.425500 0.309495 -1.122692
v -0.435033 0.295946 -1.122692
v -0.436360 0.293986 -1.122692
v -0.433899 0.315604 -1.119923
v -0.443619 0.301787 -1.119923
v -0.444972 0.299788 -1.119923
v -0.442297 0.321712 -1.117154
v -0.452206 0.307628 -1.117154
v -0.453585 0.305591 -1.117154
v -0.450695 0.327820 -1.114385
v -0.460792 0.313469 -1.114385
v -0.462197 0.311393 -1.114385
v -0.460590 0.331860 -1.111615
v -0.467937 0.321418 -1.111615
v -0.469378 0.319310 -1.111615
v -0.469015 0.337931 -1.108846
v -0.476497 0.327298 -1.108846
v -0.477964 0.325151 -1.108846
v -0.477441 0.344002 -1.106077
v -0.485056 0.333177 -1.106077
v -0.486550 0.330992 -1.106077
v -0.487436 0.347883 -1.103308
v -0.492086 0.341274 -1.103308
v -0.493616 0.339057 -1.103308
v -0.495889 0.353916 -1.100538
v -0.500619 0.347192 -1.100538
v -0.502176 0.344937 -1.100538
v -0.504341 0.359949 -1.097769
v -0.507559 0.355397 -1.097769
v -0.513070 0.365595 -1.095000
v -0.401693 0.297259 -1.129741
v -0.412042 0.274311 -1.131000
v -0.417861 0.284264 -1.128231
v -0.426447 0.290105 -1.125462
v -0.433698 0.297900 -1.122692
v -0.442257 0.303779 -1.119923
v -0.450817 0.309659 -1.117154
v -0.459377 0.315539 -1.114385
v -0.466486 0.323520 -1.111615
v -0.475020 0.329438 -1.108846
v -0.483553 0.335356 -1.106077
v -0.490546 0.343484 -1.103308
v -0.499053 0.349440 -1.100538
v -0.505955 0.357676 -1.097769
v -0.513293 0.365281 -1.095000
v -0.403709 0.298512 -1.129110
v -0.411563 0.275028 -1.131000
v -0.416578 0.286141 -1.128231
v -0.425138 0.292020 -1.125462
v -0.432353 0.299848 -1.122692
v -0.440886 0.305766 -1.119923
v -0.449420 0.311684 -1.117154
v -0.457953 0.317602 -1.114385
v -0.465026 0.325615 -1.111615
v -0.473533 0.331571 -1.108846
v -0.482039 0.337528 -1.106077
v -0.488996 0.345687 -1.103308
v -0.497476 0.351682 -1.100538
v -0.513516 0.364968 -1.095000
v -0.405728 0.299767 -1.128479
v -0.411084 0.275745 -1.131000
v -0.415287 0.288012 -1.128231
v -0.423820 0.293930 -1.125462
v -0.431000 0.301789 -1.122692
v -0.439507 0.307746 -1.119923
v -0.448013 0.313702 -1.117154
v -0.456520 0.319659 -1.114385
v -0.463557 0.327703 -1.111615
v -0.472037 0.333698 -1.108846
v -0.480516 0.339693 -1.106077
v -0.519027 0.357087 -1.095000
v -0.513738 0.364654 -1.095000
v -0.407749 0.301024 -1.127846
v -0.410603 0.276460 -1.131000
v -0.413987 0.289877 -1.128231
v -0.422493 0.295833 -1.125462
v -0.429638 0.303725 -1.122692
v -0.438118 0.309720 -1.119923
v -0.446598 0.315714 -1.117154
v -0.455077 0.321709 -1.114385
v -0.462078 0.329785 -1.111615
v -0.470531 0.335818 -1.108846
v -0.478983 0.341851 -1.106077
v -0.518809 0.357404 -1.095000
v -0.513961 0.364341 -1.095000
v -0.409774 0.302282 -1.127212
v -0.410121 0.277174 -1.131000
v -0.412679 0.291736 -1.128231
v -0.421158 0.297731 -1.125462
v -0.428268 0.305655 -1.122692
v -0.436720 0.311687 -1.119923
v -0.445173 0.317720 -1.117154
v -0.453626 0.323753 -1.114385
v -0.518590 0.357721 -1.095000
v -0.514183 0.364027 -1.095000
v -0.411802 0.303543 -1.126577
v -0.409638 0.277888 -1.131000
v -0.517450 0.354873 -1.095681
v -0.519463 0.356453 -1.095000
v -0.407363 0.299114 -1.128231
v -0.411362 0.293589 -1.128231
v -0.419815 0.299622 -1.125462
v -0.426888 0.307578 -1.122692
v -0.435314 0.313649 -1.119923
v -0.443739 0.319719 -1.117154
v -0.452165 0.325790 -1.114385
v -0.518372 0.358037 -1.095000
v -0.514406 0.363713 -1.095000
v -0.413833 0.304805 -1.125942
v -0.409153 0.278601 -1.131000
v -0.515441 0.353296 -1.096361
v -0.410037 0.295437 -1.128231
v -0.418463 0.301507 -1.125462
v -0.518153 0.358354 -1.095000
v -0.514628 0.363399 -1.095000
v -0.415866 0.306069 -1.125305
v -0.408668 0.279313 -1.131000
v -0.513434 0.351721 -1.097039
v -0.408704 0.297278 -1.128231
v -0.417102 0.303387 -1.125462
v -0.517934 0.358670 -1.095000
v -0.514849 0.363084 -1.095000
v -0.417903 0.307335 -1.124668
v -0.408181 0.280024 -1.131000
v -0.511430 0.350148 -1.097717
v -0.517715 0.358986 -1.095000
v -0.515071 0.362770 -1.095000
v -0.419943 0.308603 -1.124029
v -0.407692 0.280734 -1.131000
v -0.509429 0.348578 -1.098394
v -0.517496 0.359302 -1.095000
v -0.515292 0.362455 -1.095000
v -0.421985 0.309873 -1.123390
v -0.407203 0.281444 -1.131000
v -0.507431 0.347009 -1.099070
v -0.517276 0.359618 -1.095000
v -0.515514 0.362141 -1.095000
v -0.424031 0.311144 -1.122749
v -0.406712 0.282153 -1.131000
v -0.505436 0.345443 -1.099745
v -0.517057 0.359934 -1.095000
v -0.515735 0.361826 -1.095000
v -0.426080 0.312418 -1.122108
v -0.406220 0.282860 -1.131000
v -0.503443 0.343879 -1.100419
v -0.516837 0.360249 -1.095000
v -0.515955 0.361511 -1.095000
v -0.428131 0.313693 -1.121466
v -0.405727 0.283567 -1.131000
v -0.501453 0.342317 -1.101092
v -0.516617 0.360565 -1.095000
v -0.516176 0.361196 -1.095000
v -0.430186 0.314970 -1.120822
v -0.405233 0.284273 -1.131000
v -0.499466 0.340758 -1.101764
v -0.516397 0.360880 -1.095000
v -0.432244 0.316249 -1.120178
v -0.404737 0.284978 -1.131000
v -0.497482 0.339200 -1.102435
v -0.434304 0.317530 -1.119533
v -0.404240 0.285683 -1.131000
v -0.495501 0.337645 -1.103106
v -0.436368 0.318813 -1.118887
v -0.403742 0.286386 -1.131000
v -0.493522 0.336092 -1.103775
v -0.508287 0.363525 -1.096359
v -0.438435 0.320098 -1.118240
v -0.403243 0.287089 -1.131000
v -0.491547 0.334541 -1.104443
v -0.506124 0.362180 -1.097036
v -0.440505 0.321385 -1.117592
v -0.402743 0.287790 -1.131000
v -0.489574 0.332992 -1.105110
v -0.503963 0.360837 -1.097713
v -0.442577 0.322673 -1.116942
v -0.402241 0.288491 -1.131000
v -0.487604 0.331446 -1.105777
v -0.501806 0.359496 -1.098389
v -0.444653 0.323964 -1.116292
v -0.401738 0.289191 -1.131000
v -0.485637 0.329902 -1.106442
v -0.499651 0.358156 -1.099065
v -0.446732 0.325256 -1.115642
v -0.401234 0.289890 -1.131000
v -0.483672 0.328360 -1.107106
v -0.497500 0.356818 -1.099739
v -0.448813 0.326550 -1.114990
v -0.400728 0.290589 -1.131000
v -0.481710 0.326820 -1.107770
v -0.495351 0.355482 -1.100412
v -0.450898 0.327846 -1.114337
v -0.400222 0.291286 -1.131000
v -0.479752 0.325282 -1.108432
v -0.493205 0.354148 -1.101084
v -0.452985 0.329144 -1.113683
v -0.399714 0.291982 -1.131000
v -0.477795 0.323747 -1.109094
v -0.491062 0.352816 -1.101756
v -0.455076 0.330443 -1.113028
v -0.399205 0.292678 -1.131000
v -0.475842 0.322214 -1.109754
v -0.488922 0.351485 -1.102426
v -0.457169 0.331745 -1.112373
v -0.398695 0.293373 -1.131000
v -0.473892 0.320682 -1.110414
v -0.486785 0.350157 -1.103096
v -0.459266 0.333048 -1.111716
v -0.471944 0.319154 -1.111072
v -0.484650 0.348830 -1.103764
v -0.461365 0.334353 -1.111059
v -0.416714 0.275795 -1.129743
v -0.469999 0.317627 -1.111730
v -0.482519 0.347505 -1.104432
v -0.463468 0.335660 -1.110400
v -0.418578 0.277258 -1.129113
v -0.468057 0.316103 -1.112387
v -0.480391 0.346181 -1.105099
v -0.465573 0.336969 -1.109741
v -0.420445 0.278724 -1.128482
v -0.466118 0.314580 -1.113042
v -0.478265 0.344860 -1.105765
v -0.467681 0.338280 -1.109080
v -0.422315 0.280192 -1.127850
v -0.464182 0.313061 -1.113697
v -0.476142 0.343540 -1.106430
v -0.469792 0.339592 -1.108419
v -0.424187 0.281662 -1.127218
v -0.462249 0.311543 -1.114351
v -0.474023 0.342222 -1.107094
v -0.426063 0.283135 -1.126584
v -0.460318 0.310027 -1.115004
v -0.471906 0.340906 -1.107757
v -0.427941 0.284610 -1.125949
v -0.458391 0.308514 -1.115655
v -0.429823 0.286087 -1.125313
v -0.456466 0.307003 -1.116306
v -0.431707 0.287566 -1.124676
v -0.454544 0.305494 -1.116956
v -0.433594 0.289048 -1.124038
v -0.452625 0.303988 -1.117605
v -0.435484 0.290532 -1.123399
v -0.450709 0.302484 -1.118253
v -0.437377 0.292018 -1.122759
v -0.448796 0.300982 -1.118899
v -0.439273 0.293506 -1.122119
v -0.446885 0.299482 -1.119545
v -0.441172 0.294997 -1.121477
v -0.444978 0.297985 -1.120190
v -0.443073 0.296489 -1.120834
f 1 2 3
f 4 5 6
f 7 8 9
f 10 11 12
f 13 14 15
f 16 17 18
f 19 20 21
f 22 23 24
f 25 26 27
f 28 29 30
f 31 32 33
f 34 35 36
f 37 38 39
f 40 41 42
f 43 44 45
f 46 1 3
f 47 4 6
f 48 7 9
f 49 10 12
f 50 13 15
f 51 16 18
f 52 19 21
f 53 22 24
f 54 25 27
f 55 28 30
f 56 31 33
f 57 34 36
f 58 37 39
f 59 40 42
f 60 43 45
f 61 46 3
f 62 47 6
f 63 48 9
f 64 49 12
f 65 50 15
f 66 51 18
f 67 52 21
f 68 53 24
f 69 54 27
f 70 55 30
f 71 56 33
f 72 57 36
f 73 58 39
f 74 59 42
f 75 60 45
f 45 61 3
f 76 62 6
f 77 63 9
f 78 64 12
f 79 65 15
f 80 66 18
f 81 67 21
f 82 68 24
f 83 69 27
f 84 70 30
f 85 71 33
f 86 72 36
f 87 73 39
f 39 74 42
f 42 75 45
f 45 3 88
f 89 76 6
f 90 77 9
f 91 78 12
f 92 79 15
f 93 80 18
f 94 81 21
f 95 82 24
f 96 83 27
f 97 84 30
f 98 85 33
f 99 86 36
f 100 87 39
f 45 88 101
f 102 89 6
f 103 90 9
f 104 91 12
f 105 92 15
f 106 93 18
f 107 94 21
f 108 95 24
f 109 96 27
f 110 97 30
f 30 98 33
f 33 99 36
f 36 100 39
f 45 101 111
f 112 102 6
f 113 103 9
f 114 104 12
f 115 116 117
f 118 105 15
f 119 106 18
f 120 107 21
f 121 108 24
f 122 109 27
f 123 110 30
f 36 39 42
f 45 111 124
f 125 112 6
f 126 113 9
f 127 114 12
f 128 115 117
f 129 118 15
f 130 119 18
f 18 120 21
f 21 121 24
f 24 122 27
f 36 42 45
f 45 124 131
f 132 125 6
f 133 126 9
f 134 127 12
f 135 128 117
f 136 129 15
f 137 130 18
f 45 131 138
f 139 132 6
f 140 133 9
f 141 134 12
f 142 135 117
f 117 136 15
f 15 137 18
f 45 138 143
f 144 139 6
f 145 140 9
f 146 141 12
f 147 142 117
f 15 18 21
f 45 143 148
f 149 144 6
f 150 145 9
f 151 146 12
f 152 147 117
f 15 21 24
f 45 148 153
f 154 149 6
f 155 150 9
f 156 151 12
f 157 152 117
f 45 153 158
f 159 154 6
f 160 155 9
f 161 156 12
f 162 157 117
f 45 158 163
f 164 159 6
f 165 160 9
f 166 161 12
f 167 162 117
f 45 163 168
f 169 164 6
f 170 165 9
f 171 166 12
f 172 167 117
f 45 168 173
f 173 169 6
f 174 170 9
f 175 171 12
f 176 172 117
f 45 173 6
f 177 174 9
f 178 175 12
f 179 176 117
f 36 45 6
f 180 177 9
f 181 178 12
f 182 179 117
f 36 6 183
f 184 180 9
f 185 181 12
f 186 182 117
f 36 183 187
f 188 184 9
f 189 185 12
f 190 186 117
f 36 187 191
f 192 188 9
f 193 189 12
f 194 190 117
f 36 191 195
f 196 192 9
f 197 193 12
f 198 194 117
f 36 195 199
f 200 196 9
f 201 197 12
f 202 198 117
f 36 199 203
f 204 200 9
f 205 201 12
f 206 202 117
f 15 24 27
f 36 203 207
f 208 204 9
f 209 205 12
f 210 206 117
f 27 123 30
f 36 207 211
f 212 208 9
f 213 209 12
f 214 210 117
f 27 30 33
f 36 211 215
f 216 212 9
f 217 213 12
f 218 214 117
f 36 215 219
f 220 216 9
f 221 217 12
f 222 218 117
f 27 33 36
f 36 219 223
f 224 220 9
f 9 221 12
f 225 222 117
f 36 223 226
f 227 224 9
f 9 12 228
f 229 225 117
f 36 226 230
f 231 227 9
f 9 228 232
f 233 229 117
f 36 230 234
f 235 231 9
f 9 232 236
f 237 233 117
f 36 234 238
f 239 235 9
f 9 236 240
f 241 237 117
f 36 238 242
f 243 239 9
f 9 240 244
f 245 241 117
f 36 242 246
f 9 244 247
f 248 245 117
f 36 246 249
f 9 247 250
f 251 248 117
f 36 249 243
f 9 250 252
f 253 251 117
f 27 36 243
f 9 252 254
f 255 253 117
f 9 254 256
f 257 255 117
f 9 256 258
f 259 257 117
f 9 258 260
f 261 259 117
f 9 260 262
f 263 261 117
f 9 262 264
f 265 263 117
f 9 264 266
f 266 265 117
f 9 266 117
f 9 117 15
f 243 9 15
