v -0.673814 -0.040000 -0.825000
v -0.673145 -0.050015 -0.825000
v -0.672326 -0.060018 -0.825000
v -0.671360 -0.070008 -0.825000
v -0.670245 -0.079983 -0.825000
v -0.668981 -0.089940 -0.825000
v -0.667570 -0.099877 -0.825000
v -0.666011 -0.109792 -0.825000
v -0.664305 -0.119683 -0.825000
v -0.662452 -0.129547 -0.825000
v -0.660452 -0.139383 -0.825000
v -0.658307 -0.149188 -0.825000
v -0.656016 -0.158960 -0.825000
v -0.653580 -0.168696 -0.825000
v -0.650999 -0.178396 -0.825000
v -0.648275 -0.188056 -0.825000
v -0.673814 -0.040000 -0.036213
v -0.673145 -0.050015 -0.036213
v -0.672326 -0.060018 -0.036213
v -0.671360 -0.070008 -0.036213
v -0.670245 -0.079983 -0.036213
v -0.668981 -0.089940 -0.036213
v -0.667570 -0.099877 -0.036213
v -0.666011 -0.109792 -0.036213
v -0.664305 -0.119683 -0.036213
v -0.662452 -0.129547 -0.036213
v -0.660452 -0.139383 -0.036213
v -0.658307 -0.149188 -0.036213
v -0.656016 -0.158960 -0.036213
v -0.653580 -0.168696 -0.036213
v -0.650999 -0.178396 -0.036213
v -0.648275 -0.188056 -0.036213
f 1 2 18
f 1 18 17
f 2 3 19
f 2 19 18
f 3 4 20
f 3 20 19
f 4 5 21
f 4 21 20
f 5 6 22
f 5 22 21
f 6 7 23
f 6 23 22
f 7 8 24
f 7 24 23
f 8 9 25
f 8 25 24
f 9 10 26
f 9 26 25
f 10 11 27
f 10 27 26
f 11 12 28
f 11 28 27
f 12 13 29
f 12 29 28
f 13 14 30
f 13 30 29
f 14 15 31
f 14 31 30
f 15 16 32
f 15 32 31
