v 1.618590 0.300000 -4.858498
v 1.621850 0.300000 -4.879776
v 1.627245 0.300000 -4.900615
v 1.634721 0.300000 -4.920801
v 1.644201 0.300000 -4.940127
v 1.655588 0.300000 -4.958394
v 1.668764 0.300000 -4.975417
v 1.683595 0.300000 -4.991018
v 1.699927 0.300000 -5.005040
v 1.717595 0.300000 -5.017337
v 1.736416 0.300000 -5.027783
v 1.756198 0.300000 -5.036272
v 1.776736 0.300000 -5.042716
v 1.797822 0.300000 -5.047050
v 1.819237 0.300000 -5.049227
v 1.840763 0.300000 -5.049227
v 1.862178 0.300000 -5.047050
v 1.883264 0.300000 -5.042716
v 1.903802 0.300000 -5.036272
v 1.923584 0.300000 -5.027783
v 1.942405 0.300000 -5.017337
v 1.960073 0.300000 -5.005040
v 1.976405 0.300000 -4.991018
v 1.991236 0.300000 -4.975417
v 2.004412 0.300000 -4.958394
v 2.015799 0.300000 -4.940127
v 2.025279 0.300000 -4.920801
v 2.032755 0.300000 -4.900615
v 2.038150 0.300000 -4.879776
v 2.041410 0.300000 -4.858498
v 2.042500 0.300000 -4.837000
v 2.041410 0.300000 -4.815502
v 2.038150 0.300000 -4.794224
v 2.032755 0.300000 -4.773385
v 2.025279 0.300000 -4.753199
v 2.015799 0.300000 -4.733873
v 2.004412 0.300000 -4.715606
v 1.991236 0.300000 -4.698583
v 1.976405 0.300000 -4.682982
v 1.960073 0.300000 -4.668960
v 1.942405 0.300000 -4.656663
v 1.923584 0.300000 -4.646217
v 1.903802 0.300000 -4.637728
v 1.883264 0.300000 -4.631284
v 1.862178 0.300000 -4.626950
v 1.840763 0.300000 -4.624773
v 1.819237 0.300000 -4.624773
v 1.797822 0.300000 -4.626950
v 1.776736 0.300000 -4.631284
v 1.756198 0.300000 -4.637728
v 1.736416 0.300000 -4.646217
v 1.717595 0.300000 -4.656663
v 1.699927 0.300000 -4.668960
v 1.683595 0.300000 -4.682982
v 1.668764 0.300000 -4.698583
v 1.655588 0.300000 -4.715606
v 1.644201 0.300000 -4.733873
v 1.634721 0.300000 -4.753199
v 1.627245 0.300000 -4.773385
v 1.621850 0.300000 -4.794224
v 1.618590 0.300000 -4.815502
v 1.617500 0.300000 -4.837000
v 1.725539 0.300000 -4.847623
v 1.727149 0.300000 -4.858136
v 1.729815 0.300000 -4.868433
v 1.733509 0.300000 -4.878407
v 1.738194 0.300000 -4.887957
v 1.743820 0.300000 -4.896983
v 1.750330 0.300000 -4.905394
v 1.757658 0.300000 -4.913103
v 1.765729 0.300000 -4.920031
v 1.774459 0.300000 -4.926108
v 1.783759 0.300000 -4.931269
v 1.793533 0.300000 -4.935464
v 1.803681 0.300000 -4.938648
v 1.814100 0.300000 -4.940789
v 1.824682 0.300000 -4.941865
v 1.835318 0.300000 -4.941865
v 1.845900 0.300000 -4.940789
v 1.856319 0.300000 -4.938648
v 1.866467 0.300000 -4.935464
v 1.876241 0.300000 -4.931269
v 1.885541 0.300000 -4.926108
v 1.894271 0.300000 -4.920031
v 1.902342 0.300000 -4.913103
v 1.909670 0.300000 -4.905394
v 1.916180 0.300000 -4.896983
v 1.921806 0.300000 -4.887957
v 1.926491 0.300000 -4.878407
v 1.930185 0.300000 -4.868433
v 1.932851 0.300000 -4.858136
v 1.934461 0.300000 -4.847623
v 1.935000 0.300000 -4.837000
v 1.934461 0.300000 -4.826377
v 1.932851 0.300000 -4.815864
v 1.930185 0.300000 -4.805567
v 1.926491 0.300000 -4.795593
v 1.921806 0.300000 -4.786043
v 1.916180 0.300000 -4.777017
v 1.909670 0.300000 -4.768606
v 1.902342 0.300000 -4.760897
v 1.894271 0.300000 -4.753969
v 1.885541 0.300000 -4.747892
v 1.876241 0.300000 -4.742731
v 1.866467 0.300000 -4.738536
v 1.856319 0.300000 -4.735352
v 1.845900 0.300000 -4.733211
v 1.835318 0.300000 -4.732135
v 1.824682 0.300000 -4.732135
v 1.814100 0.300000 -4.733211
v 1.803681 0.300000 -4.735352
v 1.793533 0.300000 -4.738536
v 1.783759 0.300000 -4.742731
v 1.774459 0.300000 -4.747892
v 1.765729 0.300000 -4.753969
v 1.757658 0.300000 -4.760897
v 1.750330 0.300000 -4.768606
v 1.743820 0.300000 -4.777017
v 1.738194 0.300000 -4.786043
v 1.733509 0.300000 -4.795593
v 1.729815 0.300000 -4.805567
v 1.727149 0.300000 -4.815864
v 1.725539 0.300000 -4.826377
v 1.725000 0.300000 -4.837000
f 1 2 64
f 1 64 63
f 2 3 65
f 2 65 64
f 3 4 66
f 3 66 65
f 4 5 67
f 4 67 66
f 5 6 68
f 5 68 67
f 6 7 69
f 6 69 68
f 7 8 70
f 7 70 69
f 8 9 71
f 8 71 70
f 9 10 72
f 9 72 71
f 10 11 73
f 10 73 72
f 11 12 74
f 11 74 73
f 12 13 75
f 12 75 74
f 13 14 76
f 13 76 75
f 14 15 77
f 14 77 76
f 15 16 78
f 15 78 77
f 16 17 79
f 16 79 78
f 17 18 80
f 17 80 79
f 18 19 81
f 18 81 80
f 19 20 82
f 19 82 81
f 20 21 83
f 20 83 82
f 21 22 84
f 21 84 83
f 22 23 85
f 22 85 84
f 23 24 86
f 23 86 85
f 24 25 87
f 24 87 86
f 25 26 88
f 25 88 87
f 26 27 89
f 26 89 88
f 27 28 90
f 27 90 89
f 28 29 91
f 28 91 90
f 29 30 92
f 29 92 91
f 30 31 93
f 30 93 92
f 31 32 94
f 31 94 93
f 32 33 95
f 32 95 94
f 33 34 96
f 33 96 95
f 34 35 97
f 34 97 96
f 35 36 98
f 35 98 97
f 36 37 99
f 36 99 98
f 37 38 100
f 37 100 99
f 38 39 101
f 38 101 100
f 39 40 102
f 39 102 101
f 40 41 103
f 40 103 102
f 41 42 104
f 41 104 103
f 42 43 105
f 42 105 104
f 43 44 106
f 43 106 105
f 44 45 107
f 44 107 106
f 45 46 108
f 45 108 107
f 46 47 109
f 46 109 108
f 47 48 110
f 47 110 109
f 48 49 111
f 48 111 110
f 49 50 112
f 49 112 111
f 50 51 113
f 50 113 112
f 51 52 114
f 51 114 113
f 52 53 115
f 52 115 114
f 53 54 116
f 53 116 115
f 54 55 117
f 54 117 116
f 55 56 118
f 55 118 117
f 56 57 119
f 56 119 118
f 57 58 120
f 57 120 119
f 58 59 121
f 58 121 120
f 59 60 122
f 59 122 121
f 60 61 123
f 60 123 122
f 61 62 124
f 61 124 123
f 62 1 63
f 62 63 124
