v -1.171013 -0.500133 -4.210628
v -1.171013 -0.501196 -4.226901
v -1.171013 -0.503318 -4.243070
v -1.171013 -0.506490 -4.259067
v -1.171012 -0.510698 -4.274822
v -1.171012 -0.515924 -4.290270
v -1.171012 -0.522146 -4.305345
v -1.171012 -0.529337 -4.319981
v -1.171012 -0.537468 -4.334118
v -1.171012 -0.546503 -4.347694
v -1.171012 -0.556404 -4.360652
v -1.171012 -0.567128 -4.372938
v -1.171012 -0.578631 -4.384498
v -1.171011 -0.590863 -4.395283
v -1.171011 -0.603772 -4.405248
v -1.171011 -0.617304 -4.414350
v -1.855747 -0.500133 -4.210628
v -1.855747 -0.501196 -4.226901
v -1.855747 -0.503318 -4.243070
v -1.855747 -0.506490 -4.259067
v -1.855747 -0.510698 -4.274822
v -1.855747 -0.515924 -4.290270
v -1.855747 -0.522146 -4.305345
v -1.855747 -0.529337 -4.319981
v -1.855747 -0.537468 -4.334118
v -1.855747 -0.546503 -4.347694
v -1.855747 -0.556404 -4.360652
v -1.855747 -0.567128 -4.372938
v -1.855747 -0.578631 -4.384498
v -1.855747 -0.590863 -4.395283
v -1.855747 -0.603772 -4.405248
v -1.855747 -0.617304 -4.414350
v -2.540483 -0.500133 -4.210628
v -2.540483 -0.501196 -4.226901
v -2.540483 -0.503318 -4.243070
v -2.540483 -0.506490 -4.259067
v -2.540483 -0.510698 -4.274822
v -2.540483 -0.515924 -4.290270
v -2.540483 -0.522146 -4.305345
v -2.540483 -0.529337 -4.319981
v -2.540483 -0.537468 -4.334118
v -2.540483 -0.546503 -4.347694
v -2.540483 -0.556404 -4.360652
v -2.540483 -0.567128 -4.372938
v -2.540483 -0.578631 -4.384498
v -2.540483 -0.590863 -4.395283
v -2.540483 -0.603772 -4.405248
v -2.540483 -0.617304 -4.414350
f 1 2 18
f 1 18 17
f 2 3 19
f 2 19 18
f 3 4 20
f 3 20 19
f 4 5 21
f 4 21 20
f 5 6 22
f 5 22 21
f 6 7 23
f 6 23 22
f 7 8 24
f 7 24 23
f 8 9 25
f 8 25 24
f 9 10 26
f 9 26 25
f 10 11 27
f 10 27 26
f 11 12 28
f 11 28 27
f 12 13 29
f 12 29 28
f 13 14 30
f 13 30 29
f 14 15 31
f 14 31 30
f 15 16 32
f 15 32 31
f 17 18 34
f 17 34 33
f 18 19 35
f 18 35 34
f 19 20 36
f 19 36 35
f 20 21 37
f 20 37 36
f 21 22 38
f 21 38 37
f 22 23 39
f 22 39 38
f 23 24 40
f 23 40 39
f 24 25 41
f 24 41 40
f 25 26 42
f 25 42 41
f 26 27 43
f 26 43 42
f 27 28 44
f 27 44 43
f 28 29 45
f 28 45 44
f 29 30 46
f 29 46 45
f 30 31 47
f 30 47 46
f 31 32 48
f 31 48 47
