v -0.360000 0.215000 0.000000
v -0.360359 0.215000 -0.007082
v -0.361433 0.215000 -0.014091
v -0.363210 0.215000 -0.020955
v -0.365673 0.215000 -0.027605
v -0.368796 0.215000 -0.033971
v -0.372547 0.215000 -0.039989
v -0.376887 0.215000 -0.045596
v -0.381772 0.215000 -0.050735
v -0.387153 0.215000 -0.055354
v -0.392973 0.215000 -0.059405
v -0.399172 0.215000 -0.062846
v -0.405689 0.215000 -0.065643
v -0.412454 0.215000 -0.067765
v -0.419400 0.215000 -0.069193
v -0.426455 0.215000 -0.069910
v -0.433545 0.215000 -0.069910
v -0.440600 0.215000 -0.069193
v -0.447546 0.215000 -0.067765
v -0.454311 0.215000 -0.065643
v -0.460828 0.215000 -0.062846
v -0.467027 0.215000 -0.059405
v -0.472847 0.215000 -0.055354
v -0.478228 0.215000 -0.050735
v -0.483113 0.215000 -0.045596
v -0.487453 0.215000 -0.039989
v -0.491204 0.215000 -0.033971
v -0.494327 0.215000 -0.027605
v -0.496790 0.215000 -0.020955
v -0.498567 0.215000 -0.014091
v -0.499641 0.215000 -0.007082
v -0.500000 0.215000 0.000000
v -0.347929 0.227071 0.000000
v -0.348350 0.227071 -0.008303
v -0.349609 0.227071 -0.016521
v -0.351693 0.227071 -0.024569
v -0.354580 0.227071 -0.032365
v -0.358241 0.227071 -0.039829
v -0.362639 0.227071 -0.046885
v -0.367728 0.227071 -0.053459
v -0.373456 0.227071 -0.059485
v -0.379764 0.227071 -0.064900
v -0.386587 0.227071 -0.069649
v -0.393856 0.227071 -0.073684
v -0.401496 0.227071 -0.076962
v -0.409429 0.227071 -0.079451
v -0.417572 0.227071 -0.081125
v -0.425843 0.227071 -0.081966
v -0.434157 0.227071 -0.081966
v -0.442428 0.227071 -0.081125
v -0.450571 0.227071 -0.079451
v -0.458504 0.227071 -0.076962
v -0.466144 0.227071 -0.073684
v -0.473413 0.227071 -0.069649
v -0.480236 0.227071 -0.064900
v -0.486544 0.227071 -0.059485
v -0.492272 0.227071 -0.053459
v -0.497361 0.227071 -0.046885
v -0.501759 0.227071 -0.039829
v -0.505420 0.227071 -0.032365
v -0.508307 0.227071 -0.024569
v -0.510391 0.227071 -0.016521
v -0.511650 0.227071 -0.008303
v -0.512071 0.227071 0.000000
f 1 34 2
f 1 33 34
f 2 35 3
f 2 34 35
f 3 36 4
f 3 35 36
f 4 37 5
f 4 36 37
f 5 38 6
f 5 37 38
f 6 39 7
f 6 38 39
f 7 40 8
f 7 39 40
f 8 41 9
f 8 40 41
f 9 42 10
f 9 41 42
f 10 43 11
f 10 42 43
f 11 44 12
f 11 43 44
f 12 45 13
f 12 44 45
f 13 46 14
f 13 45 46
f 14 47 15
f 14 46 47
f 15 48 16
f 15 47 48
f 16 49 17
f 16 48 49
f 17 50 18
f 17 49 50
f 18 51 19
f 18 50 51
f 19 52 20
f 19 51 52
f 20 53 21
f 20 52 53
f 21 54 22
f 21 53 54
f 22 55 23
f 22 54 55
f 23 56 24
f 23 55 56
f 24 57 25
f 24 56 57
f 25 58 26
f 25 57 58
f 26 59 27
f 26 58 59
f 27 60 28
f 27 59 60
f 28 61 29
f 28 60 61
f 29 62 30
f 29 61 62
f 30 63 31
f 30 62 63
f 31 64 32
f 31 63 64
