v -2.915000 0.000000 -4.237000
v -2.889708 0.000000 -4.235717
v -2.902338 0.000000 -4.236679
v -2.877143 0.000000 -4.234117
v -2.864675 0.000000 -4.231882
v -2.852337 0.000000 -4.229019
v -2.840159 0.000000 -4.225535
v -2.828174 0.000000 -4.221438
v -2.915000 0.308652 -4.278705
v -2.902338 0.308737 -4.278395
v -2.889708 0.308992 -4.277468
v -2.877143 0.309417 -4.275925
v -2.864675 0.310010 -4.273771
v -2.852337 0.310770 -4.271010
v -2.840159 0.311695 -4.267651
v -2.828174 0.312782 -4.263701
v -2.915000 0.008010 -4.237028
v -2.828174 0.008117 -4.221466
v -2.915000 0.016020 -4.237110
v -2.828174 0.016234 -4.221550
v -2.915000 0.024029 -4.237248
v -2.828174 0.024350 -4.221690
v -2.915000 0.032036 -4.237441
v -2.828174 0.032465 -4.221885
v -2.915000 0.040043 -4.237690
v -2.828174 0.040579 -4.222137
v -2.915000 0.048047 -4.237993
v -2.828174 0.048690 -4.222444
v -2.915000 0.056049 -4.238351
v -2.828174 0.056799 -4.222808
v -2.915000 0.064049 -4.238765
v -2.828174 0.064906 -4.223227
v -2.915000 0.072045 -4.239234
v -2.828174 0.073009 -4.223702
v -2.915000 0.080038 -4.239757
v -2.828174 0.081109 -4.224232
v -2.915000 0.088027 -4.240336
v -2.828174 0.089205 -4.224819
v -2.915000 0.096012 -4.240970
v -2.828174 0.097297 -4.225461
v -2.915000 0.103993 -4.241659
v -2.828174 0.105384 -4.226159
v -2.915000 0.111968 -4.242402
v -2.828174 0.113466 -4.226913
v -2.915000 0.119938 -4.243201
v -2.828174 0.121543 -4.227722
v -2.915000 0.127903 -4.244055
v -2.828174 0.129614 -4.228587
v -2.915000 0.135861 -4.244963
v -2.828174 0.137679 -4.229507
v -2.915000 0.143813 -4.245926
v -2.828174 0.145738 -4.230483
v -2.915000 0.151758 -4.246944
v -2.828174 0.153789 -4.231515
v -2.915000 0.159696 -4.248016
v -2.828174 0.161833 -4.232602
v -2.915000 0.167627 -4.249144
v -2.828174 0.169870 -4.233744
v -2.915000 0.175549 -4.250325
v -2.828174 0.177898 -4.234942
v -2.915000 0.183463 -4.251562
v -2.828174 0.185918 -4.236195
v -2.915000 0.191369 -4.252853
v -2.828174 0.193929 -4.237503
v -2.915000 0.199265 -4.254198
v -2.828174 0.201931 -4.238866
v -2.915000 0.207152 -4.255598
v -2.828174 0.209924 -4.240284
v -2.915000 0.215029 -4.257051
v -2.828174 0.217906 -4.241758
v -2.915000 0.222896 -4.258560
v -2.828174 0.225878 -4.243286
v -2.915000 0.230752 -4.260122
v -2.828174 0.233840 -4.244869
v -2.915000 0.238598 -4.261738
v -2.828174 0.241790 -4.246507
v -2.915000 0.246432 -4.263408
v -2.828174 0.249729 -4.248200
v -2.915000 0.254254 -4.265133
v -2.828174 0.257656 -4.249947
v -2.915000 0.262064 -4.266911
v -2.828174 0.265571 -4.251749
v -2.915000 0.269862 -4.268743
v -2.828174 0.273473 -4.253605
v -2.915000 0.277647 -4.270628
v -2.828174 0.281362 -4.255516
v -2.915000 0.285419 -4.272567
v -2.828174 0.289238 -4.257481
v -2.915000 0.293177 -4.274560
v -2.828174 0.297100 -4.259500
v -2.915000 0.300922 -4.276606
v -2.828174 0.304948 -4.261574
v -2.804901 0.000000 -4.211451
v -2.816411 0.000000 -4.216739
v -2.793675 0.000000 -4.205587
v -2.782759 0.000000 -4.199161
v -2.772183 0.000000 -4.192191
v -2.761974 0.000000 -4.184694
v -2.752157 0.000000 -4.176690
v -2.742758 0.000000 -4.168198
v -2.816411 0.314029 -4.259171
v -2.804901 0.315432 -4.254072
v -2.793675 0.316989 -4.248418
v -2.782759 0.318694 -4.242223
v -2.772183 0.320544 -4.235502
v -2.761974 0.322533 -4.228274
v -2.752157 0.324658 -4.220557
v -2.742758 0.326911 -4.212370
v -2.742758 0.008484 -4.168227
v -2.742758 0.016967 -4.168315
v -2.742758 0.025450 -4.168461
v -2.742758 0.033932 -4.168666
v -2.742758 0.042412 -4.168929
v -2.742758 0.050889 -4.169250
v -2.742758 0.059365 -4.169630
v -2.742758 0.067838 -4.170068
v -2.742758 0.076307 -4.170564
v -2.742758 0.084773 -4.171119
v -2.742758 0.093235 -4.171732
v -2.742758 0.101692 -4.172403
v -2.742758 0.110145 -4.173133
v -2.742758 0.118592 -4.173920
v -2.742758 0.127034 -4.174766
v -2.742758 0.135469 -4.175670
v -2.742758 0.143899 -4.176632
v -2.742758 0.152321 -4.177652
v -2.742758 0.160736 -4.178730
v -2.742758 0.169144 -4.179866
v -2.742758 0.177543 -4.181060
v -2.742758 0.185935 -4.182312
v -2.742758 0.194317 -4.183622
v -2.742758 0.202690 -4.184989
v -2.742758 0.211053 -4.186414
v -2.742758 0.219407 -4.187896
v -2.742758 0.227750 -4.189436
v -2.742758 0.236082 -4.191033
v -2.742758 0.244403 -4.192688
v -2.742758 0.252713 -4.194400
v -2.742758 0.261010 -4.196169
v -2.742758 0.269295 -4.197995
v -2.742758 0.277568 -4.199878
v -2.742758 0.285827 -4.201819
v -2.742758 0.294072 -4.203816
v -2.742758 0.302304 -4.205869
v -2.742758 0.310521 -4.207980
v -2.742758 0.318724 -4.210147
v -2.725310 0.000000 -4.149843
v -2.733802 0.000000 -4.159242
v -2.717306 0.000000 -4.140026
v -2.709809 0.000000 -4.129817
v -2.702839 0.000000 -4.119241
v -2.696413 0.000000 -4.108325
v -2.690549 0.000000 -4.097099
v -2.685261 0.000000 -4.085589
v -2.733802 0.329288 -4.203735
v -2.725310 0.331783 -4.194673
v -2.717306 0.334388 -4.185209
v -2.709809 0.337097 -4.175365
v -2.702839 0.339904 -4.165169
v -2.696413 0.342801 -4.154644
v -2.690549 0.345781 -4.143820
v -2.685261 0.348835 -4.132723
v -2.685261 0.009053 -4.085620
v -2.685261 0.018105 -4.085714
v -2.685261 0.027157 -4.085870
v -2.685261 0.036207 -4.086088
v -2.685261 0.045256 -4.086368
v -2.685261 0.054302 -4.086711
v -2.685261 0.063346 -4.087116
v -2.685261 0.072387 -4.087584
v -2.685261 0.081425 -4.088113
v -2.685261 0.090458 -4.088705
v -2.685261 0.099487 -4.089359
v -2.685261 0.108512 -4.090076
v -2.685261 0.117531 -4.090854
v -2.685261 0.126545 -4.091695
v -2.685261 0.135553 -4.092597
v -2.685261 0.144554 -4.093562
v -2.685261 0.153549 -4.094589
v -2.685261 0.162536 -4.095677
v -2.685261 0.171516 -4.096827
v -2.685261 0.180487 -4.098040
v -2.685261 0.189450 -4.099314
v -2.685261 0.198404 -4.100649
v -2.685261 0.207348 -4.102047
v -2.685261 0.216283 -4.103505
v -2.685261 0.225207 -4.105026
v -2.685261 0.234121 -4.106608
v -2.685261 0.243024 -4.108251
v -2.685261 0.251915 -4.109955
v -2.685261 0.260794 -4.111721
v -2.685261 0.269661 -4.113548
v -2.685261 0.278514 -4.115435
v -2.685261 0.287355 -4.117384
v -2.685261 0.296182 -4.119394
v -2.685261 0.304995 -4.121464
v -2.685261 0.313794 -4.123595
v -2.685261 0.322578 -4.125786
v -2.685261 0.331346 -4.128038
v -2.685261 0.340099 -4.130351
v -2.676465 0.000000 -4.061841
v -2.680562 0.000000 -4.073826
v -2.672981 0.000000 -4.049663
v -2.670118 0.000000 -4.037325
v -2.667883 0.000000 -4.024857
v -2.666283 0.000000 -4.012292
v -2.665321 0.000000 -3.999662
v -2.665000 0.000000 -3.987000
v -2.680562 0.351957 -4.121382
v -2.676465 0.355138 -4.109827
v -2.672981 0.358370 -4.098086
v -2.670118 0.361644 -4.086190
v -2.667883 0.364953 -4.074169
v -2.666283 0.368288 -4.062055
v -2.665321 0.371640 -4.049878
v -2.665000 0.375000 -4.037670
v -2.665000 0.009732 -3.987034
v -2.665000 0.019463 -3.987134
v -2.665000 0.029194 -3.987302
v -2.665000 0.038923 -3.987536
v -2.665000 0.048650 -3.987838
v -2.665000 0.058375 -3.988206
v -2.665000 0.068098 -3.988642
v -2.665000 0.077817 -3.989144
v -2.665000 0.087532 -3.989714
v -2.665000 0.097243 -3.990350
v -2.665000 0.106950 -3.991053
v -2.665000 0.116651 -3.991823
v -2.665000 0.126347 -3.992660
v -2.665000 0.136037 -3.993564
v -2.665000 0.145720 -3.994534
v -2.665000 0.155397 -3.995571
v -2.665000 0.165066 -3.996675
v -2.665000 0.174727 -3.997845
v -2.665000 0.184381 -3.999081
v -2.665000 0.194025 -4.000385
v -2.665000 0.203660 -4.001754
v -2.665000 0.213286 -4.003190
v -2.665000 0.222901 -4.004692
v -2.665000 0.232506 -4.006260
v -2.665000 0.242099 -4.007895
v -2.665000 0.251682 -4.009595
v -2.665000 0.261252 -4.011362
v -2.665000 0.270810 -4.013194
v -2.665000 0.280355 -4.015092
v -2.665000 0.289887 -4.017056
v -2.665000 0.299405 -4.019085
v -2.665000 0.308909 -4.021180
v -2.665000 0.318398 -4.023340
v -2.665000 0.327872 -4.025566
v -2.665000 0.337330 -4.027857
v -2.665000 0.346773 -4.030213
v -2.665000 0.356199 -4.032633
v -2.665000 0.365608 -4.035119
v -2.782759 0.008271 -4.199190
v -2.782759 0.012406 -4.199225
v -2.782759 0.016541 -4.199275
v -2.782759 0.020676 -4.199339
v -2.782759 0.024810 -4.199417
v -2.782759 0.028945 -4.199510
v -2.782759 0.033079 -4.199617
v -2.782759 0.037212 -4.199738
v -2.782759 0.041346 -4.199873
v -2.782759 0.045478 -4.200023
v -2.782759 0.049610 -4.200186
v -2.782759 0.053742 -4.200364
v -2.782759 0.057873 -4.200556
v -2.782759 0.062003 -4.200763
v -2.782759 0.066132 -4.200983
v -2.782759 0.070261 -4.201218
v -2.782759 0.074389 -4.201467
v -2.782759 0.078516 -4.201731
v -2.782759 0.082642 -4.202008
v -2.782759 0.086767 -4.202300
v -2.782759 0.090891 -4.202606
v -2.782759 0.095014 -4.202926
v -2.782759 0.099136 -4.203260
v -2.782759 0.103257 -4.203609
v -2.782759 0.107376 -4.203971
v -2.782759 0.111494 -4.204348
v -2.782759 0.115611 -4.204739
v -2.782759 0.119726 -4.205144
v -2.782759 0.123841 -4.205564
v -2.782759 0.127953 -4.205997
v -2.782759 0.132064 -4.206445
v -2.782759 0.136174 -4.206907
v -2.782759 0.140282 -4.207383
v -2.782759 0.144388 -4.207873
v -2.782759 0.148492 -4.208377
v -2.782759 0.152595 -4.208896
v -2.782759 0.156696 -4.209428
v -2.782759 0.160795 -4.209975
v -2.782759 0.164892 -4.210536
v -2.782759 0.168987 -4.211111
v -2.782759 0.173081 -4.211700
v -2.782759 0.177172 -4.212303
v -2.782759 0.181261 -4.212920
v -2.782759 0.185348 -4.213551
v -2.782759 0.189432 -4.214197
v -2.782759 0.193515 -4.214856
v -2.782759 0.197595 -4.215530
v -2.782759 0.201673 -4.216217
v -2.782759 0.205748 -4.216919
v -2.782759 0.209821 -4.217634
v -2.782759 0.213892 -4.218364
v -2.782759 0.217960 -4.219107
v -2.782759 0.222025 -4.219865
v -2.782759 0.226088 -4.220636
v -2.782759 0.230148 -4.221422
v -2.782759 0.234205 -4.222222
v -2.782759 0.238260 -4.223035
v -2.782759 0.242312 -4.223863
v -2.782759 0.246360 -4.224704
v -2.782759 0.250406 -4.225559
v -2.782759 0.254449 -4.226429
v -2.782759 0.258489 -4.227312
v -2.782759 0.262526 -4.228209
v -2.782759 0.266560 -4.229120
v -2.782759 0.270591 -4.230045
v -2.782759 0.274618 -4.230984
v -2.782759 0.278642 -4.231936
v -2.782759 0.282663 -4.232903
v -2.782759 0.286680 -4.233883
v -2.782759 0.290695 -4.234877
v -2.782759 0.294705 -4.235885
v -2.782759 0.298712 -4.236907
v -2.782759 0.302716 -4.237943
v -2.782759 0.306716 -4.238992
v -2.782759 0.310712 -4.240055
v -2.709809 0.008748 -4.129847
v -2.709809 0.013122 -4.129885
v -2.709809 0.017496 -4.129938
v -2.709809 0.021870 -4.130005
v -2.709809 0.026243 -4.130088
v -2.709809 0.030616 -4.130186
v -2.709809 0.034989 -4.130299
v -2.709809 0.039361 -4.130427
v -2.709809 0.043733 -4.130570
v -2.709809 0.048104 -4.130728
v -2.709809 0.052475 -4.130901
v -2.709809 0.056845 -4.131090
v -2.709809 0.061215 -4.131293
v -2.709809 0.065583 -4.131511
v -2.709809 0.069951 -4.131745
v -2.709809 0.074318 -4.131993
v -2.709809 0.078685 -4.132257
v -2.709809 0.083050 -4.132535
v -2.709809 0.087414 -4.132829
v -2.709809 0.091778 -4.133137
v -2.709809 0.096140 -4.133461
v -2.709809 0.100501 -4.133799
v -2.709809 0.104861 -4.134153
v -2.709809 0.109219 -4.134521
v -2.709809 0.113577 -4.134905
v -2.709809 0.117933 -4.135304
v -2.709809 0.122287 -4.135717
v -2.709809 0.126640 -4.136146
v -2.709809 0.130992 -4.136590
v -2.709809 0.135342 -4.137048
v -2.709809 0.139690 -4.137522
v -2.709809 0.144037 -4.138010
v -2.709809 0.148382 -4.138514
v -2.709809 0.152726 -4.139032
v -2.709809 0.157067 -4.139566
v -2.709809 0.161407 -4.140114
v -2.709809 0.165745 -4.140677
v -2.709809 0.170080 -4.141256
v -2.709809 0.174414 -4.141849
v -2.709809 0.178746 -4.142457
v -2.709809 0.183075 -4.143080
v -2.709809 0.187403 -4.143718
v -2.709809 0.191728 -4.144371
v -2.709809 0.196051 -4.145038
v -2.709809 0.200371 -4.145721
v -2.709809 0.204690 -4.146418
v -2.709809 0.209005 -4.147131
v -2.709809 0.213319 -4.147858
v -2.709809 0.217630 -4.148600
v -2.709809 0.221938 -4.149357
v -2.709809 0.226243 -4.150129
v -2.709809 0.230546 -4.150915
v -2.709809 0.234846 -4.151716
v -2.709809 0.239144 -4.152533
v -2.709809 0.243438 -4.153363
v -2.709809 0.247730 -4.154209
v -2.709809 0.252018 -4.155070
v -2.709809 0.256304 -4.155945
v -2.709809 0.260587 -4.156835
v -2.709809 0.264866 -4.157740
v -2.709809 0.269143 -4.158659
v -2.709809 0.273416 -4.159593
v -2.709809 0.277686 -4.160542
v -2.709809 0.281953 -4.161506
v -2.709809 0.286216 -4.162484
v -2.709809 0.290476 -4.163477
v -2.709809 0.294733 -4.164485
v -2.709809 0.298986 -4.165507
v -2.709809 0.303235 -4.166544
v -2.709809 0.307481 -4.167596
v -2.709809 0.311723 -4.168662
v -2.709809 0.315962 -4.169743
v -2.709809 0.320197 -4.170838
v -2.709809 0.324428 -4.171948
v -2.709809 0.328655 -4.173073
v -2.782759 0.012406 -4.199225
v -2.782759 0.020676 -4.199339
v -2.782759 0.028945 -4.199510
v -2.782759 0.037212 -4.199738
v -2.782759 0.045478 -4.200023
v -2.782759 0.053742 -4.200364
v -2.782759 0.062003 -4.200763
v -2.782759 0.070261 -4.201218
v -2.782759 0.078516 -4.201731
v -2.782759 0.086767 -4.202300
v -2.782759 0.095014 -4.202926
v -2.782759 0.103257 -4.203609
v -2.782759 0.111494 -4.204348
v -2.782759 0.119726 -4.205144
v -2.782759 0.127953 -4.205997
v -2.782759 0.136174 -4.206907
v -2.782759 0.144388 -4.207873
v -2.782759 0.152595 -4.208896
v -2.782759 0.160795 -4.209975
v -2.782759 0.168987 -4.211111
v -2.782759 0.177172 -4.212303
v -2.782759 0.185348 -4.213551
v -2.782759 0.193515 -4.214856
v -2.782759 0.201673 -4.216217
v -2.782759 0.209821 -4.217634
v -2.782759 0.217960 -4.219107
v -2.782759 0.226088 -4.220636
v -2.782759 0.234205 -4.222222
v -2.782759 0.242312 -4.223863
v -2.782759 0.250406 -4.225559
v -2.782759 0.258489 -4.227312
v -2.782759 0.266560 -4.229120
v -2.782759 0.274618 -4.230984
v -2.782759 0.282663 -4.232903
v -2.782759 0.290695 -4.234877
v -2.782759 0.298712 -4.236907
v -2.782759 0.306716 -4.238992
v -2.709809 0.013122 -4.129885
v -2.709809 0.021870 -4.130005
v -2.709809 0.030616 -4.130186
v -2.709809 0.039361 -4.130427
v -2.709809 0.048104 -4.130728
v -2.709809 0.056845 -4.131090
v -2.709809 0.065583 -4.131511
v -2.709809 0.074318 -4.131993
v -2.709809 0.083050 -4.132535
v -2.709809 0.091778 -4.133137
v -2.709809 0.100501 -4.133799
v -2.709809 0.109219 -4.134521
v -2.709809 0.117933 -4.135304
v -2.709809 0.126640 -4.136146
v -2.709809 0.135342 -4.137048
v -2.709809 0.144037 -4.138010
v -2.709809 0.152726 -4.139032
v -2.709809 0.161407 -4.140114
v -2.709809 0.170080 -4.141256
v -2.709809 0.178746 -4.142457
v -2.709809 0.187403 -4.143718
v -2.709809 0.196051 -4.145038
v -2.709809 0.204690 -4.146418
v -2.709809 0.213319 -4.147858
v -2.709809 0.221938 -4.149357
v -2.709809 0.230546 -4.150915
v -2.709809 0.239144 -4.152533
v -2.709809 0.247730 -4.154209
v -2.709809 0.256304 -4.155945
v -2.709809 0.264866 -4.157740
v -2.709809 0.273416 -4.159593
v -2.709809 0.281953 -4.161506
v -2.709809 0.290476 -4.163477
v -2.709809 0.298986 -4.165507
v -2.709809 0.307481 -4.167596
v -2.709809 0.315962 -4.169743
v -2.709809 0.324428 -4.171948
f 1 3 2
f 1 2 4
f 1 4 5
f 1 5 6
f 1 6 7
f 1 7 8
f 9 11 10
f 9 12 11
f 9 13 12
f 9 14 13
f 9 15 14
f 9 16 15
f 1 8 17
f 17 8 18
f 17 18 19
f 19 18 20
f 19 20 21
f 21 20 22
f 21 22 23
f 23 22 24
f 23 24 25
f 25 24 26
f 25 26 27
f 27 26 28
f 27 28 29
f 29 28 30
f 29 30 31
f 31 30 32
f 31 32 33
f 33 32 34
f 33 34 35
f 35 34 36
f 35 36 37
f 37 36 38
f 37 38 39
f 39 38 40
f 39 40 41
f 41 40 42
f 41 42 43
f 43 42 44
f 43 44 45
f 45 44 46
f 45 46 47
f 47 46 48
f 47 48 49
f 49 48 50
f 49 50 51
f 51 50 52
f 51 52 53
f 53 52 54
f 53 54 55
f 55 54 56
f 55 56 57
f 57 56 58
f 57 58 59
f 59 58 60
f 59 60 61
f 61 60 62
f 61 62 63
f 63 62 64
f 63 64 65
f 65 64 66
f 65 66 67
f 67 66 68
f 67 68 69
f 69 68 70
f 69 70 71
f 71 70 72
f 71 72 73
f 73 72 74
f 73 74 75
f 75 74 76
f 75 76 77
f 77 76 78
f 77 78 79
f 79 78 80
f 79 80 81
f 81 80 82
f 81 82 83
f 83 82 84
f 83 84 85
f 85 84 86
f 85 86 87
f 87 86 88
f 87 88 89
f 89 88 90
f 89 90 91
f 91 90 92
f 91 92 9
f 9 92 16
f 8 94 93
f 8 93 95
f 8 95 96
f 8 96 97
f 8 97 98
f 8 98 99
f 8 99 100
f 16 102 101
f 16 103 102
f 16 104 103
f 16 105 104
f 16 106 105
f 16 107 106
f 16 108 107
f 8 100 18
f 109 100 255
f 255 100 18
f 18 256 255
f 255 256 109
f 18 20 256
f 20 256 405
f 405 256 109
f 110 256 257
f 256 257 20
f 20 258 257
f 257 258 110
f 20 22 258
f 22 258 406
f 406 258 110
f 111 258 259
f 258 259 22
f 22 260 259
f 259 260 111
f 22 24 260
f 24 260 407
f 407 260 111
f 112 260 261
f 260 261 24
f 24 262 261
f 261 262 112
f 24 26 262
f 26 262 408
f 408 262 112
f 113 262 263
f 262 263 26
f 26 264 263
f 263 264 113
f 26 28 264
f 28 264 409
f 409 264 113
f 114 264 265
f 264 265 28
f 28 266 265
f 265 266 114
f 28 30 266
f 30 266 410
f 410 266 114
f 115 266 267
f 266 267 30
f 30 268 267
f 267 268 115
f 30 32 268
f 32 268 411
f 411 268 115
f 116 268 269
f 268 269 32
f 32 270 269
f 269 270 116
f 32 34 270
f 34 270 412
f 412 270 116
f 117 270 271
f 270 271 34
f 34 272 271
f 271 272 117
f 34 36 272
f 36 272 413
f 413 272 117
f 118 272 273
f 272 273 36
f 36 274 273
f 273 274 118
f 36 38 274
f 38 274 414
f 414 274 118
f 119 274 275
f 274 275 38
f 38 276 275
f 275 276 119
f 38 40 276
f 40 276 415
f 415 276 119
f 120 276 277
f 276 277 40
f 40 278 277
f 277 278 120
f 40 42 278
f 42 278 416
f 416 278 120
f 121 278 279
f 278 279 42
f 42 280 279
f 279 280 121
f 42 44 280
f 44 280 417
f 417 280 121
f 122 280 281
f 280 281 44
f 44 282 281
f 281 282 122
f 44 46 282
f 46 282 418
f 418 282 122
f 123 282 283
f 282 283 46
f 46 284 283
f 283 284 123
f 46 48 284
f 48 284 419
f 419 284 123
f 124 284 285
f 284 285 48
f 48 286 285
f 285 286 124
f 48 50 286
f 50 286 420
f 420 286 124
f 125 286 287
f 286 287 50
f 50 288 287
f 287 288 125
f 50 52 288
f 52 288 421
f 421 288 125
f 126 288 289
f 288 289 52
f 52 290 289
f 289 290 126
f 52 54 290
f 54 290 422
f 422 290 126
f 127 290 291
f 290 291 54
f 54 292 291
f 291 292 127
f 54 56 292
f 56 292 423
f 423 292 127
f 128 292 293
f 292 293 56
f 56 294 293
f 293 294 128
f 56 58 294
f 58 294 424
f 424 294 128
f 129 294 295
f 294 295 58
f 58 296 295
f 295 296 129
f 58 60 296
f 60 296 425
f 425 296 129
f 130 296 297
f 296 297 60
f 60 298 297
f 297 298 130
f 60 62 298
f 62 298 426
f 426 298 130
f 131 298 299
f 298 299 62
f 62 300 299
f 299 300 131
f 62 64 300
f 64 300 427
f 427 300 131
f 132 300 301
f 300 301 64
f 64 302 301
f 301 302 132
f 64 66 302
f 66 302 428
f 428 302 132
f 133 302 303
f 302 303 66
f 66 304 303
f 303 304 133
f 66 68 304
f 68 304 429
f 429 304 133
f 134 304 305
f 304 305 68
f 68 306 305
f 305 306 134
f 68 70 306
f 70 306 430
f 430 306 134
f 135 306 307
f 306 307 70
f 70 308 307
f 307 308 135
f 70 72 308
f 72 308 431
f 431 308 135
f 136 308 309
f 308 309 72
f 72 310 309
f 309 310 136
f 72 74 310
f 74 310 432
f 432 310 136
f 137 310 311
f 310 311 74
f 74 312 311
f 311 312 137
f 74 76 312
f 76 312 433
f 433 312 137
f 138 312 313
f 312 313 76
f 76 314 313
f 313 314 138
f 76 78 314
f 78 314 434
f 434 314 138
f 139 314 315
f 314 315 78
f 78 316 315
f 315 316 139
f 78 80 316
f 80 316 435
f 435 316 139
f 140 316 317
f 316 317 80
f 80 318 317
f 317 318 140
f 80 82 318
f 82 318 436
f 436 318 140
f 141 318 319
f 318 319 82
f 82 320 319
f 319 320 141
f 82 84 320
f 84 320 437
f 437 320 141
f 142 320 321
f 320 321 84
f 84 322 321
f 321 322 142
f 84 86 322
f 86 322 438
f 438 322 142
f 143 322 323
f 322 323 86
f 86 324 323
f 323 324 143
f 86 88 324
f 88 324 439
f 439 324 143
f 144 324 325
f 324 325 88
f 88 326 325
f 325 326 144
f 88 90 326
f 90 326 440
f 440 326 144
f 145 326 327
f 326 327 90
f 90 328 327
f 327 328 145
f 90 92 328
f 92 328 441
f 441 328 145
f 146 328 329
f 328 329 92
f 92 108 329
f 329 108 146
f 92 108 16
f 100 148 147
f 100 147 149
f 100 149 150
f 100 150 151
f 100 151 152
f 100 152 153
f 100 153 154
f 108 156 155
f 108 157 156
f 108 158 157
f 108 159 158
f 108 160 159
f 108 161 160
f 108 162 161
f 100 154 109
f 163 154 330
f 330 154 109
f 109 331 330
f 330 331 163
f 109 110 331
f 110 331 442
f 442 331 163
f 164 331 332
f 331 332 110
f 110 333 332
f 332 333 164
f 110 111 333
f 111 333 443
f 443 333 164
f 165 333 334
f 333 334 111
f 111 335 334
f 334 335 165
f 111 112 335
f 112 335 444
f 444 335 165
f 166 335 336
f 335 336 112
f 112 337 336
f 336 337 166
f 112 113 337
f 113 337 445
f 445 337 166
f 167 337 338
f 337 338 113
f 113 339 338
f 338 339 167
f 113 114 339
f 114 339 446
f 446 339 167
f 168 339 340
f 339 340 114
f 114 341 340
f 340 341 168
f 114 115 341
f 115 341 447
f 447 341 168
f 169 341 342
f 341 342 115
f 115 343 342
f 342 343 169
f 115 116 343
f 116 343 448
f 448 343 169
f 170 343 344
f 343 344 116
f 116 345 344
f 344 345 170
f 116 117 345
f 117 345 449
f 449 345 170
f 171 345 346
f 345 346 117
f 117 347 346
f 346 347 171
f 117 118 347
f 118 347 450
f 450 347 171
f 172 347 348
f 347 348 118
f 118 349 348
f 348 349 172
f 118 119 349
f 119 349 451
f 451 349 172
f 173 349 350
f 349 350 119
f 119 351 350
f 350 351 173
f 119 120 351
f 120 351 452
f 452 351 173
f 174 351 352
f 351 352 120
f 120 353 352
f 352 353 174
f 120 121 353
f 121 353 453
f 453 353 174
f 175 353 354
f 353 354 121
f 121 355 354
f 354 355 175
f 121 122 355
f 122 355 454
f 454 355 175
f 176 355 356
f 355 356 122
f 122 357 356
f 356 357 176
f 122 123 357
f 123 357 455
f 455 357 176
f 177 357 358
f 357 358 123
f 123 359 358
f 358 359 177
f 123 124 359
f 124 359 456
f 456 359 177
f 178 359 360
f 359 360 124
f 124 361 360
f 360 361 178
f 124 125 361
f 125 361 457
f 457 361 178
f 179 361 362
f 361 362 125
f 125 363 362
f 362 363 179
f 125 126 363
f 126 363 458
f 458 363 179
f 180 363 364
f 363 364 126
f 126 365 364
f 364 365 180
f 126 127 365
f 127 365 459
f 459 365 180
f 181 365 366
f 365 366 127
f 127 367 366
f 366 367 181
f 127 128 367
f 128 367 460
f 460 367 181
f 182 367 368
f 367 368 128
f 128 369 368
f 368 369 182
f 128 129 369
f 129 369 461
f 461 369 182
f 183 369 370
f 369 370 129
f 129 371 370
f 370 371 183
f 129 130 371
f 130 371 462
f 462 371 183
f 184 371 372
f 371 372 130
f 130 373 372
f 372 373 184
f 130 131 373
f 131 373 463
f 463 373 184
f 185 373 374
f 373 374 131
f 131 375 374
f 374 375 185
f 131 132 375
f 132 375 464
f 464 375 185
f 186 375 376
f 375 376 132
f 132 377 376
f 376 377 186
f 132 133 377
f 133 377 465
f 465 377 186
f 187 377 378
f 377 378 133
f 133 379 378
f 378 379 187
f 133 134 379
f 134 379 466
f 466 379 187
f 188 379 380
f 379 380 134
f 134 381 380
f 380 381 188
f 134 135 381
f 135 381 467
f 467 381 188
f 189 381 382
f 381 382 135
f 135 383 382
f 382 383 189
f 135 136 383
f 136 383 468
f 468 383 189
f 190 383 384
f 383 384 136
f 136 385 384
f 384 385 190
f 136 137 385
f 137 385 469
f 469 385 190
f 191 385 386
f 385 386 137
f 137 387 386
f 386 387 191
f 137 138 387
f 138 387 470
f 470 387 191
f 192 387 388
f 387 388 138
f 138 389 388
f 388 389 192
f 138 139 389
f 139 389 471
f 471 389 192
f 193 389 390
f 389 390 139
f 139 391 390
f 390 391 193
f 139 140 391
f 140 391 472
f 472 391 193
f 194 391 392
f 391 392 140
f 140 393 392
f 392 393 194
f 140 141 393
f 141 393 473
f 473 393 194
f 195 393 394
f 393 394 141
f 141 395 394
f 394 395 195
f 141 142 395
f 142 395 474
f 474 395 195
f 196 395 396
f 395 396 142
f 142 397 396
f 396 397 196
f 142 143 397
f 143 397 475
f 475 397 196
f 197 397 398
f 397 398 143
f 143 399 398
f 398 399 197
f 143 144 399
f 144 399 476
f 476 399 197
f 198 399 400
f 399 400 144
f 144 401 400
f 400 401 198
f 144 145 401
f 145 401 477
f 477 401 198
f 199 401 402
f 401 402 145
f 145 403 402
f 402 403 199
f 145 146 403
f 146 403 478
f 478 403 199
f 200 403 404
f 403 404 146
f 146 162 404
f 404 162 200
f 146 162 108
f 154 202 201
f 154 201 203
f 154 203 204
f 154 204 205
f 154 205 206
f 154 206 207
f 154 207 208
f 162 210 209
f 162 211 210
f 162 212 211
f 162 213 212
f 162 214 213
f 162 215 214
f 162 216 215
f 154 208 163
f 163 208 217
f 163 217 164
f 164 217 218
f 164 218 165
f 165 218 219
f 165 219 166
f 166 219 220
f 166 220 167
f 167 220 221
f 167 221 168
f 168 221 222
f 168 222 169
f 169 222 223
f 169 223 170
f 170 223 224
f 170 224 171
f 171 224 225
f 171 225 172
f 172 225 226
f 172 226 173
f 173 226 227
f 173 227 174
f 174 227 228
f 174 228 175
f 175 228 229
f 175 229 176
f 176 229 230
f 176 230 177
f 177 230 231
f 177 231 178
f 178 231 232
f 178 232 179
f 179 232 233
f 179 233 180
f 180 233 234
f 180 234 181
f 181 234 235
f 181 235 182
f 182 235 236
f 182 236 183
f 183 236 237
f 183 237 184
f 184 237 238
f 184 238 185
f 185 238 239
f 185 239 186
f 186 239 240
f 186 240 187
f 187 240 241
f 187 241 188
f 188 241 242
f 188 242 189
f 189 242 243
f 189 243 190
f 190 243 244
f 190 244 191
f 191 244 245
f 191 245 192
f 192 245 246
f 192 246 193
f 193 246 247
f 193 247 194
f 194 247 248
f 194 248 195
f 195 248 249
f 195 249 196
f 196 249 250
f 196 250 197
f 197 250 251
f 197 251 198
f 198 251 252
f 198 252 199
f 199 252 253
f 199 253 200
f 200 253 254
f 200 254 216
f 200 216 162
