v -0.155795 -0.638546 -1.087726
v -0.157008 -0.610122 -1.094996
v -0.156729 -0.610193 -1.094984
v -0.156453 -0.610264 -1.094963
v -0.156181 -0.610334 -1.094935
v -0.155911 -0.610403 -1.094899
v -0.155644 -0.610471 -1.094855
v -0.155380 -0.610538 -1.094802
v -0.155118 -0.610605 -1.094743
v -0.154859 -0.610671 -1.094675
v -0.154602 -0.610736 -1.094599
v -0.154348 -0.610800 -1.094516
v -0.154096 -0.610864 -1.094426
v -0.153847 -0.610926 -1.094327
v -0.153599 -0.610989 -1.094221
v -0.153354 -0.611050 -1.094108
v -0.153111 -0.611111 -1.093987
v -0.152871 -0.611171 -1.093859
v -0.152634 -0.611231 -1.093724
v -0.152400 -0.611289 -1.093582
v -0.152169 -0.611347 -1.093432
v -0.151942 -0.611403 -1.093276
v -0.151719 -0.611458 -1.093113
v -0.151500 -0.611513 -1.092943
v -0.151285 -0.611566 -1.092766
v -0.151075 -0.611618 -1.092582
v -0.150870 -0.611668 -1.092392
v -0.150670 -0.611718 -1.092195
v -0.150475 -0.611766 -1.091992
v -0.150286 -0.611812 -1.091782
v -0.150103 -0.611857 -1.091567
v -0.149926 -0.611901 -1.091346
v -0.149754 -0.611943 -1.091119
v -0.149589 -0.611983 -1.090887
v -0.149430 -0.612022 -1.090650
v -0.149277 -0.612059 -1.090409
v -0.149130 -0.612095 -1.090163
v -0.148991 -0.612129 -1.089913
v -0.148858 -0.612161 -1.089658
v -0.148731 -0.612192 -1.089401
v -0.148612 -0.612221 -1.089139
v -0.148500 -0.612248 -1.088875
v -0.148395 -0.612274 -1.088608
v -0.148297 -0.612297 -1.088338
v -0.148207 -0.612319 -1.088065
v -0.148124 -0.612339 -1.087789
v -0.148048 -0.612358 -1.087510
v -0.147981 -0.612374 -1.087227
v -0.147920 -0.612388 -1.086941
v -0.147868 -0.612401 -1.086652
v -0.147824 -0.612412 -1.086360
v -0.147787 -0.612421 -1.086064
v -0.147758 -0.612428 -1.085764
v -0.147738 -0.612432 -1.085460
v -0.147726 -0.612435 -1.085153
v -0.147721 -0.612436 -1.084841
v -0.168808 -0.606963 -1.095000
v -0.141458 -0.476818 -1.130371
v -0.140972 -0.474502 -1.131000
v -0.140145 -0.474747 -1.131000
v -0.116004 -0.481215 -1.131000
v -0.115166 -0.481416 -1.131000
v -0.115901 -0.483662 -1.130372
v -0.122104 -0.490859 -1.128115
v -0.119895 -0.491404 -1.128115
v -0.144905 -0.495900 -1.125230
v -0.124715 -0.501358 -1.125230
v -0.122459 -0.501914 -1.125230
v -0.145660 -0.506944 -1.122345
v -0.129628 -0.511279 -1.122345
v -0.127327 -0.511857 -1.122345
v -0.148648 -0.517342 -1.119460
v -0.132287 -0.521765 -1.119460
v -0.129938 -0.522355 -1.119460
v -0.151635 -0.527740 -1.116575
v -0.134946 -0.532252 -1.116575
v -0.132550 -0.532854 -1.116575
v -0.152201 -0.538828 -1.113690
v -0.140044 -0.542114 -1.113690
v -0.137604 -0.542739 -1.113690
v -0.155141 -0.549239 -1.110805
v -0.142750 -0.552589 -1.110805
v -0.140263 -0.553225 -1.110805
v -0.158082 -0.559650 -1.107921
v -0.145456 -0.563063 -1.107921
v -0.142922 -0.563712 -1.107921
v -0.158457 -0.570780 -1.105036
v -0.150740 -0.572866 -1.105036
v -0.148162 -0.573538 -1.105036
v -0.161351 -0.581204 -1.102151
v -0.153493 -0.583328 -1.102151
v -0.150868 -0.584013 -1.102151
v -0.164245 -0.591628 -1.099266
v -0.156246 -0.593791 -1.099266
v -0.153574 -0.594487 -1.099266
v -0.167139 -0.602052 -1.096381
v -0.158999 -0.604253 -1.096381
v -0.156280 -0.604962 -1.096381
v -0.164516 -0.613981 -1.093496
v -0.158986 -0.615437 -1.093496
v -0.156216 -0.616145 -1.093496
v -0.161692 -0.625911 -1.090611
v -0.158874 -0.626632 -1.090611
v -0.156054 -0.627340 -1.090611
v -0.158666 -0.637839 -1.087726
v -0.141945 -0.479137 -1.129741
v -0.116842 -0.481012 -1.131000
v -0.124310 -0.490305 -1.128115
v -0.126969 -0.500792 -1.125230
v -0.131927 -0.510690 -1.122345
v -0.134632 -0.521165 -1.119460
v -0.137338 -0.531640 -1.116575
v -0.142481 -0.541479 -1.113690
v -0.145234 -0.551941 -1.110805
v -0.147987 -0.562403 -1.107921
v -0.153316 -0.572182 -1.105036
v -0.156116 -0.582632 -1.102151
v -0.158916 -0.593082 -1.099266
v -0.161716 -0.603532 -1.096381
v -0.161752 -0.614715 -1.093496
v -0.142433 -0.481460 -1.129110
v -0.117679 -0.480808 -1.131000
v -0.156493 -0.607618 -1.095681
v -0.157289 -0.610049 -1.095000
v -0.141870 -0.485515 -1.128115
v -0.126515 -0.489741 -1.128115
v -0.129221 -0.500216 -1.125230
v -0.134222 -0.510092 -1.122345
v -0.136975 -0.520554 -1.119460
v -0.139728 -0.531016 -1.116575
v -0.144916 -0.540832 -1.113690
v -0.147716 -0.551282 -1.110805
v -0.150516 -0.561732 -1.107921
v -0.155888 -0.571487 -1.105036
v -0.158735 -0.581924 -1.102151
v -0.161582 -0.592361 -1.099266
v -0.164429 -0.602798 -1.096381
v -0.142922 -0.483786 -1.128479
v -0.118516 -0.480603 -1.131000
v -0.155699 -0.605190 -1.096361
v -0.128716 -0.489167 -1.128115
v -0.131469 -0.499629 -1.125230
v -0.136516 -0.509483 -1.122345
v -0.139316 -0.519933 -1.119460
v -0.142116 -0.530383 -1.116575
v -0.147347 -0.540175 -1.113690
v -0.150194 -0.550612 -1.110805
v -0.153041 -0.561049 -1.107921
v -0.143411 -0.486115 -1.127846
v -0.119353 -0.480396 -1.131000
v -0.130915 -0.488583 -1.128115
v -0.133715 -0.499033 -1.125230
v -0.138806 -0.508864 -1.122345
v -0.141653 -0.519301 -1.119460
v -0.144500 -0.529738 -1.116575
v -0.149775 -0.539507 -1.113690
v -0.152669 -0.549931 -1.110805
v -0.155563 -0.560355 -1.107921
v -0.143901 -0.488448 -1.127212
v -0.120189 -0.480187 -1.131000
v -0.133112 -0.487989 -1.128115
v -0.135959 -0.498426 -1.125230
v -0.141093 -0.508234 -1.122345
v -0.143987 -0.518658 -1.119460
v -0.146881 -0.529083 -1.116575
v -0.144392 -0.490785 -1.126577
v -0.121025 -0.479977 -1.131000
v -0.135306 -0.487386 -1.128115
v -0.138200 -0.497810 -1.125230
v -0.143378 -0.507594 -1.122345
v -0.146319 -0.518005 -1.119460
v -0.149260 -0.528417 -1.116575
v -0.144884 -0.493125 -1.125942
v -0.121861 -0.479766 -1.131000
v -0.154905 -0.602766 -1.097039
v -0.137497 -0.486772 -1.128115
v -0.140437 -0.497183 -1.125230
v -0.145376 -0.495468 -1.125305
v -0.122696 -0.479553 -1.131000
v -0.154112 -0.600345 -1.097717
v -0.139685 -0.486149 -1.128115
v -0.142672 -0.496546 -1.125230
v -0.168282 -0.604463 -1.095680
v -0.145869 -0.497815 -1.124668
v -0.123531 -0.479338 -1.131000
v -0.153321 -0.597927 -1.098394
v -0.146363 -0.500165 -1.124029
v -0.124365 -0.479122 -1.131000
v -0.152530 -0.595513 -1.099070
v -0.167758 -0.601967 -1.096359
v -0.146857 -0.502519 -1.123390
v -0.125199 -0.478905 -1.131000
v -0.151741 -0.593103 -1.099745
v -0.167234 -0.599474 -1.097036
v -0.147353 -0.504876 -1.122749
v -0.126033 -0.478686 -1.131000
v -0.150953 -0.590695 -1.100419
v -0.166710 -0.596984 -1.097713
v -0.147849 -0.507237 -1.122108
v -0.126866 -0.478466 -1.131000
v -0.150166 -0.588291 -1.101092
v -0.166188 -0.594498 -1.098389
v -0.148345 -0.509601 -1.121466
v -0.127699 -0.478245 -1.131000
v -0.149380 -0.585891 -1.101764
v -0.148843 -0.511969 -1.120822
v -0.128532 -0.478022 -1.131000
v -0.148595 -0.583494 -1.102435
v -0.165666 -0.592015 -1.099065
v -0.149341 -0.514340 -1.120178
v -0.129364 -0.477797 -1.131000
v -0.147811 -0.581100 -1.103106
v -0.165145 -0.589536 -1.099739
v -0.149840 -0.516714 -1.119533
v -0.130196 -0.477571 -1.131000
v -0.147028 -0.578710 -1.103775
v -0.164624 -0.587060 -1.100412
v -0.150340 -0.519092 -1.118887
v -0.131027 -0.477344 -1.131000
v -0.146247 -0.576323 -1.104443
v -0.164104 -0.584587 -1.101084
v -0.150840 -0.521474 -1.118240
v -0.131858 -0.477115 -1.131000
v -0.145466 -0.573939 -1.105110
v -0.163585 -0.582117 -1.101756
v -0.151341 -0.523859 -1.117592
v -0.132688 -0.476884 -1.131000
v -0.144687 -0.571559 -1.105777
v -0.163067 -0.579651 -1.102426
v -0.151843 -0.526247 -1.116942
v -0.133519 -0.476653 -1.131000
v -0.143909 -0.569182 -1.106442
v -0.162549 -0.577189 -1.103096
v -0.152346 -0.528639 -1.116292
v -0.134348 -0.476419 -1.131000
v -0.143132 -0.566809 -1.107106
v -0.162032 -0.574729 -1.103764
v -0.152849 -0.531034 -1.115642
v -0.135178 -0.476185 -1.131000
v -0.142356 -0.564439 -1.107770
v -0.161516 -0.572273 -1.104432
v -0.153353 -0.533433 -1.114990
v -0.136007 -0.475949 -1.131000
v -0.141581 -0.562072 -1.108432
v -0.161001 -0.569821 -1.105099
v -0.153858 -0.535835 -1.114337
v -0.136835 -0.475711 -1.131000
v -0.140807 -0.559709 -1.109094
v -0.160486 -0.567371 -1.105765
v -0.154364 -0.538241 -1.113683
v -0.137663 -0.475472 -1.131000
v -0.140034 -0.557349 -1.109754
v -0.159972 -0.564925 -1.106430
v -0.154870 -0.540650 -1.113028
v -0.138491 -0.475232 -1.131000
v -0.139262 -0.554992 -1.110414
v -0.159458 -0.562483 -1.107094
v -0.155377 -0.543062 -1.112373
v -0.139318 -0.474990 -1.131000
v -0.138492 -0.552639 -1.111072
v -0.155885 -0.545478 -1.111716
v -0.137723 -0.550290 -1.111730
v -0.158946 -0.560043 -1.107757
v -0.156393 -0.547897 -1.111059
v -0.116638 -0.485910 -1.129743
v -0.136954 -0.547944 -1.112387
v -0.158434 -0.557607 -1.108419
v -0.156902 -0.550320 -1.110400
v -0.117376 -0.488163 -1.129113
v -0.136187 -0.545601 -1.113042
v -0.157923 -0.555175 -1.109080
v -0.157412 -0.552745 -1.109741
v -0.118114 -0.490418 -1.128482
v -0.135421 -0.543262 -1.113697
v -0.118854 -0.492677 -1.127850
v -0.134656 -0.540926 -1.114351
v -0.119596 -0.494940 -1.127218
v -0.133892 -0.538593 -1.115004
v -0.120338 -0.497206 -1.126584
v -0.133130 -0.536264 -1.115655
v -0.132368 -0.533939 -1.116306
v -0.121081 -0.499476 -1.125949
v -0.131608 -0.531617 -1.116956
v -0.121826 -0.501749 -1.125313
v -0.130848 -0.529298 -1.117605
v -0.122571 -0.504025 -1.124676
v -0.130090 -0.526983 -1.118253
v -0.123318 -0.506305 -1.124038
v -0.129333 -0.524672 -1.118899
v -0.124066 -0.508589 -1.123399
v -0.128577 -0.522364 -1.119545
v -0.124815 -0.510876 -1.122759
v -0.127823 -0.520059 -1.120190
v -0.125565 -0.513166 -1.122119
v -0.127069 -0.517758 -1.120834
v -0.126317 -0.515460 -1.121477
f 1 2 3
f 3 4 5
f 5 6 7
f 7 8 9
f 9 10 11
f 11 12 13
f 13 14 15
f 15 16 17
f 17 18 19
f 19 20 21
f 21 22 23
f 23 24 25
f 25 26 27
f 27 28 29
f 29 30 31
f 31 32 33
f 33 34 35
f 35 36 37
f 37 38 39
f 39 40 41
f 41 42 43
f 43 44 45
f 45 46 47
f 47 48 49
f 49 50 51
f 51 52 53
f 53 54 55
f 55 56 57
f 58 59 60
f 61 62 63
f 64 65 66
f 67 68 69
f 70 71 72
f 73 74 75
f 76 77 78
f 79 80 81
f 82 83 84
f 85 86 87
f 88 89 90
f 91 92 93
f 94 95 96
f 97 98 99
f 100 101 102
f 103 104 105
f 1 3 5
f 5 7 9
f 9 11 13
f 13 15 17
f 17 19 21
f 21 23 25
f 25 27 29
f 29 31 33
f 33 35 37
f 37 39 41
f 41 43 45
f 45 47 49
f 49 51 53
f 53 55 57
f 106 58 60
f 107 61 63
f 108 64 66
f 109 67 69
f 110 70 72
f 111 73 75
f 112 76 78
f 113 79 81
f 114 82 84
f 115 85 87
f 116 88 90
f 117 91 93
f 118 94 96
f 119 97 99
f 120 100 102
f 102 103 105
f 1 5 9
f 9 13 17
f 17 21 25
f 25 29 33
f 33 37 41
f 41 45 49
f 121 106 60
f 122 107 63
f 123 124 125
f 126 108 66
f 127 109 69
f 128 110 72
f 129 111 75
f 130 112 78
f 131 113 81
f 132 114 84
f 133 115 87
f 134 116 90
f 135 117 93
f 136 118 96
f 137 119 99
f 99 120 102
f 1 9 17
f 17 25 33
f 33 41 49
f 138 121 60
f 139 122 63
f 140 123 125
f 141 126 66
f 142 127 69
f 143 128 72
f 144 129 75
f 145 130 78
f 146 131 81
f 147 132 84
f 148 133 87
f 87 134 90
f 90 135 93
f 93 136 96
f 96 137 99
f 1 17 33
f 33 49 53
f 149 138 60
f 150 139 63
f 151 141 66
f 152 142 69
f 153 143 72
f 154 144 75
f 155 145 78
f 156 146 81
f 157 147 84
f 158 148 87
f 1 33 53
f 159 149 60
f 160 150 63
f 161 151 66
f 162 152 69
f 163 153 72
f 164 154 75
f 165 155 78
f 78 156 81
f 81 157 84
f 84 158 87
f 105 1 53
f 166 159 60
f 167 160 63
f 168 161 66
f 169 162 69
f 170 163 72
f 171 164 75
f 172 165 78
f 84 87 90
f 105 53 57
f 173 166 60
f 174 167 63
f 175 140 125
f 176 168 66
f 177 169 69
f 69 170 72
f 72 171 75
f 75 172 78
f 84 90 93
f 96 99 57
f 99 102 57
f 102 105 57
f 178 173 60
f 179 174 63
f 180 175 125
f 181 176 66
f 182 177 69
f 75 78 81
f 84 93 96
f 96 57 183
f 184 178 60
f 185 179 63
f 186 180 125
f 125 181 66
f 66 182 69
f 75 81 84
f 84 96 183
f 187 184 60
f 188 185 63
f 189 186 125
f 66 69 72
f 84 183 190
f 191 187 60
f 192 188 63
f 193 189 125
f 66 72 75
f 84 190 194
f 195 191 60
f 196 192 63
f 197 193 125
f 84 194 198
f 199 195 60
f 200 196 63
f 201 197 125
f 84 198 202
f 203 199 60
f 204 200 63
f 205 201 125
f 75 84 202
f 206 203 60
f 207 204 63
f 208 205 125
f 75 202 209
f 210 206 60
f 211 207 63
f 212 208 125
f 75 209 213
f 214 210 60
f 215 211 63
f 216 212 125
f 75 213 217
f 218 214 60
f 219 215 63
f 220 216 125
f 75 217 221
f 222 218 60
f 223 219 63
f 224 220 125
f 75 221 225
f 226 222 60
f 227 223 63
f 228 224 125
f 75 225 229
f 230 226 60
f 231 227 63
f 232 228 125
f 75 229 233
f 234 230 60
f 235 231 63
f 236 232 125
f 75 233 237
f 238 234 60
f 239 235 63
f 240 236 125
f 75 237 241
f 242 238 60
f 243 239 63
f 244 240 125
f 75 241 245
f 246 242 60
f 247 243 63
f 248 244 125
f 75 245 249
f 250 246 60
f 251 247 63
f 252 248 125
f 75 249 253
f 254 250 60
f 255 251 63
f 256 252 125
f 75 253 257
f 258 254 60
f 259 255 63
f 260 256 125
f 66 75 257
f 261 258 60
f 60 259 63
f 262 260 125
f 66 257 263
f 264 261 60
f 60 63 265
f 266 262 125
f 66 263 267
f 268 264 60
f 60 265 269
f 270 266 125
f 66 267 271
f 272 268 60
f 60 269 273
f 274 270 125
f 66 271 272
f 60 273 275
f 276 274 125
f 66 272 60
f 60 275 277
f 278 276 125
f 125 66 60
f 60 277 279
f 280 278 125
f 125 60 279
f 281 280 125
f 125 279 282
f 283 281 125
f 125 282 284
f 285 283 125
f 125 284 286
f 287 285 125
f 125 286 288
f 289 287 125
f 125 288 290
f 291 289 125
f 125 290 292
f 293 291 125
f 125 292 294
f 295 293 125
f 125 294 296
f 296 295 125
f 124 2 3
