v 1.174388 0.559197 -6.616071
v 1.175216 0.538994 -6.618793
v 1.174805 0.549097 -6.617445
v 1.175618 0.528887 -6.620117
v 1.176014 0.518776 -6.621415
v 1.176401 0.508662 -6.622689
v 1.176781 0.498545 -6.623937
v 1.177153 0.488424 -6.625160
v 1.177518 0.478300 -6.626358
v 1.177875 0.468173 -6.627531
v 1.178225 0.458042 -6.628679
v 1.178567 0.447908 -6.629802
v 1.178901 0.437772 -6.630899
v 1.179228 0.427632 -6.631972
v 1.179547 0.417490 -6.633019
v 1.179858 0.407344 -6.634041
v 1.180162 0.397196 -6.635038
v 1.180458 0.387045 -6.636010
v 1.180746 0.376892 -6.636957
v 1.181027 0.366736 -6.637879
v 1.181300 0.356578 -6.638775
v 1.181566 0.346417 -6.639646
v 1.181824 0.336253 -6.640492
v 1.182074 0.326088 -6.641313
v 1.182316 0.315920 -6.642108
v 1.182551 0.305750 -6.642879
v 1.182778 0.295578 -6.643624
v 1.182998 0.285404 -6.644344
v 1.183210 0.275228 -6.645039
v 1.183414 0.265050 -6.645708
v 1.183610 0.254871 -6.646352
v 1.183799 0.244690 -6.646971
v 1.183980 0.234507 -6.647565
v 1.176676 0.559470 -6.617484
v 1.179003 0.559736 -6.618835
v 1.181366 0.559995 -6.620124
v 1.183763 0.560246 -6.621348
v 1.186193 0.560490 -6.622507
v 1.188655 0.560727 -6.623600
v 1.191145 0.560955 -6.624627
v 1.193663 0.561176 -6.625587
v 1.196206 0.561389 -6.626479
v 1.198774 0.561593 -6.627302
v 1.184503 0.244726 -6.647405
v 1.185022 0.254946 -6.647215
v 1.185538 0.265168 -6.646995
v 1.186050 0.275391 -6.646744
v 1.186558 0.285614 -6.646463
v 1.187063 0.295838 -6.646151
v 1.187564 0.306063 -6.645809
v 1.188062 0.316288 -6.645437
v 1.188556 0.326514 -6.645034
v 1.189046 0.336740 -6.644600
v 1.189532 0.346966 -6.644136
v 1.190014 0.357193 -6.643642
v 1.190493 0.367419 -6.643116
v 1.190967 0.377646 -6.642561
v 1.191438 0.387872 -6.641974
v 1.191904 0.398098 -6.641357
v 1.192366 0.408324 -6.640710
v 1.192824 0.418549 -6.640031
v 1.193278 0.428773 -6.639322
v 1.193728 0.438997 -6.638583
v 1.194173 0.449220 -6.637812
v 1.194614 0.459442 -6.637011
v 1.195050 0.469664 -6.636179
v 1.195482 0.479884 -6.635316
v 1.195910 0.490103 -6.634422
v 1.196333 0.500320 -6.633497
v 1.196752 0.510536 -6.632542
v 1.197165 0.520751 -6.631556
v 1.197575 0.530964 -6.630539
v 1.197979 0.541176 -6.629491
v 1.198379 0.551385 -6.628412
v 1.184319 0.214136 -6.648677
v 1.184154 0.224322 -6.648134
v 1.184478 0.203948 -6.649195
v 1.184628 0.193760 -6.649688
v 1.184771 0.183569 -6.650156
v 1.184905 0.173378 -6.650598
v 1.185033 0.163185 -6.651015
v 1.185152 0.152992 -6.651407
v 1.185264 0.142797 -6.651773
v 1.185368 0.132601 -6.652115
v 1.185465 0.122405 -6.652431
v 1.185553 0.112207 -6.652721
v 1.185634 0.102009 -6.652987
v 1.185708 0.091810 -6.653227
v 1.185773 0.081611 -6.653442
v 1.185831 0.071411 -6.653631
v 1.185881 0.061210 -6.653796
v 1.185924 0.051009 -6.653935
v 1.185958 0.040808 -6.654049
v 1.185985 0.030606 -6.654137
v 1.186005 0.020404 -6.654200
v 1.186016 0.010202 -6.654238
v 1.186020 0.000000 -6.654251
v 1.190595 0.000000 -6.656918
v 1.195305 0.000000 -6.659339
v 1.200137 0.000000 -6.661508
v 1.205076 0.000000 -6.663418
v 1.210110 0.000000 -6.665063
v 1.215224 0.000000 -6.666440
v 1.220403 0.000000 -6.667544
v 1.225634 0.000000 -6.668372
v 1.230901 0.000000 -6.668922
v 1.236190 0.000000 -6.669193
v 1.201363 0.561788 -6.628056
v 1.203972 0.561975 -6.628740
v 1.206598 0.562154 -6.629353
v 1.209242 0.562323 -6.629896
v 1.211899 0.562483 -6.630368
v 1.214568 0.562635 -6.630769
v 1.217248 0.562777 -6.631097
v 1.219936 0.562909 -6.631354
v 1.222631 0.563033 -6.631538
v 1.225330 0.563146 -6.631650
v 1.236176 0.010271 -6.669180
v 1.236154 0.020543 -6.669143
v 1.236126 0.030814 -6.669080
v 1.236092 0.041085 -6.668993
v 1.236050 0.051355 -6.668881
v 1.236002 0.061626 -6.668744
v 1.235946 0.071896 -6.668582
v 1.235884 0.082165 -6.668396
v 1.235816 0.092434 -6.668184
v 1.235740 0.102702 -6.667948
v 1.235658 0.112970 -6.667687
v 1.235569 0.123237 -6.667401
v 1.235473 0.133503 -6.667090
v 1.235370 0.143768 -6.666754
v 1.235260 0.154033 -6.666394
v 1.235144 0.164296 -6.666008
v 1.235021 0.174559 -6.665598
v 1.234891 0.184820 -6.665163
v 1.234755 0.195080 -6.664703
v 1.234611 0.205339 -6.664219
v 1.234461 0.215597 -6.663709
v 1.234304 0.225853 -6.663175
v 1.234140 0.236108 -6.662616
v 1.233970 0.246362 -6.662032
v 1.233793 0.256614 -6.661423
v 1.233609 0.266864 -6.660790
v 1.233418 0.277113 -6.660132
v 1.233220 0.287360 -6.659448
v 1.233016 0.297605 -6.658741
v 1.232805 0.307848 -6.658008
v 1.232587 0.318090 -6.657250
v 1.232362 0.328329 -6.656468
v 1.232131 0.338567 -6.655661
v 1.231892 0.348802 -6.654829
v 1.231647 0.359035 -6.653973
v 1.231396 0.369266 -6.653091
v 1.231137 0.379495 -6.652185
v 1.230872 0.389721 -6.651255
v 1.230600 0.399945 -6.650299
v 1.230321 0.410166 -6.649319
v 1.230036 0.420385 -6.648314
v 1.229743 0.430601 -6.647284
v 1.229444 0.440815 -6.646230
v 1.229138 0.451025 -6.645150
v 1.228826 0.461233 -6.644046
v 1.228507 0.471439 -6.642918
v 1.228181 0.481641 -6.641765
v 1.227848 0.491840 -6.640587
v 1.227508 0.502036 -6.639384
v 1.227162 0.512229 -6.638157
v 1.226809 0.522419 -6.636905
v 1.226449 0.532606 -6.635628
v 1.226083 0.542790 -6.634327
v 1.225710 0.552970 -6.633001
v 1.246774 0.000000 -6.668893
v 1.241486 0.000000 -6.669183
v 1.252039 0.000000 -6.668324
v 1.257267 0.000000 -6.667476
v 1.262442 0.000000 -6.666353
v 1.267551 0.000000 -6.664957
v 1.272578 0.000000 -6.663293
v 1.277511 0.000000 -6.661365
v 1.282335 0.000000 -6.659179
v 1.287036 0.000000 -6.656740
v 1.228031 0.563251 -6.631690
v 1.230733 0.563345 -6.631657
v 1.233433 0.563430 -6.631552
v 1.236130 0.563504 -6.631374
v 1.238821 0.563569 -6.631124
v 1.241505 0.563625 -6.630802
v 1.244179 0.563670 -6.630409
v 1.246842 0.563705 -6.629943
v 1.249492 0.563730 -6.629407
v 1.252126 0.563745 -6.628800
v 1.254744 0.563750 -6.628123
v 1.257342 0.563745 -6.627375
v 1.259919 0.563730 -6.626559
v 1.262474 0.563705 -6.625673
v 1.265003 0.563670 -6.624720
v 1.267506 0.563625 -6.623699
v 1.269981 0.563569 -6.622612
v 1.272426 0.563504 -6.621459
v 1.274838 0.563430 -6.620241
v 1.277217 0.563345 -6.618959
v 1.279560 0.563251 -6.617613
v 1.287083 0.010275 -6.656700
v 1.287124 0.020550 -6.656634
v 1.287158 0.030824 -6.656544
v 1.287185 0.041098 -6.656429
v 1.287205 0.051372 -6.656289
v 1.287219 0.061646 -6.656123
v 1.287225 0.071919 -6.655934
v 1.287225 0.082191 -6.655719
v 1.287218 0.092463 -6.655479
v 1.287205 0.102734 -6.655215
v 1.287184 0.113005 -6.654925
v 1.287157 0.123275 -6.654611
v 1.287123 0.133544 -6.654272
v 1.287082 0.143812 -6.653908
v 1.287034 0.154079 -6.653519
v 1.286980 0.164345 -6.653105
v 1.286918 0.174610 -6.652666
v 1.286850 0.184874 -6.652203
v 1.286775 0.195136 -6.651714
v 1.286694 0.205398 -6.651201
v 1.286605 0.215658 -6.650663
v 1.286510 0.225916 -6.650100
v 1.286408 0.236174 -6.649512
v 1.286299 0.246429 -6.648900
v 1.286183 0.256683 -6.648262
v 1.286061 0.266936 -6.647600
v 1.285931 0.277187 -6.646913
v 1.285795 0.287435 -6.646201
v 1.285653 0.297683 -6.645464
v 1.285503 0.307928 -6.644703
v 1.285346 0.318171 -6.643916
v 1.285183 0.328412 -6.643105
v 1.285013 0.338651 -6.642269
v 1.284836 0.348888 -6.641408
v 1.284653 0.359123 -6.640523
v 1.284463 0.369355 -6.639612
v 1.284265 0.379585 -6.638677
v 1.284062 0.389813 -6.637717
v 1.283851 0.400038 -6.636733
v 1.283633 0.410260 -6.635723
v 1.283409 0.420480 -6.634689
v 1.283178 0.430697 -6.633630
v 1.282940 0.440912 -6.632546
v 1.282696 0.451124 -6.631438
v 1.282445 0.461332 -6.630304
v 1.282187 0.471538 -6.629146
v 1.281922 0.481741 -6.627964
v 1.281650 0.491941 -6.626756
v 1.281372 0.502138 -6.625524
v 1.281087 0.512332 -6.624268
v 1.280795 0.522522 -6.622986
v 1.280496 0.532709 -6.621680
v 1.280191 0.542893 -6.620349
v 1.279879 0.553074 -6.618994
v 1.296018 0.000000 -6.651134
v 1.291601 0.000000 -6.654056
v 1.300274 0.000000 -6.647983
v 1.304357 0.000000 -6.644610
v 1.308256 0.000000 -6.641026
v 1.311959 0.000000 -6.637241
v 1.315457 0.000000 -6.633264
v 1.318740 0.000000 -6.629109
v 1.321798 0.000000 -6.624785
v 1.324623 0.000000 -6.620305
v 1.327207 0.000000 -6.615683
v 1.327203 0.010202 -6.615670
v 1.327194 0.020404 -6.615631
v 1.327179 0.030606 -6.615567
v 1.327157 0.040808 -6.615477
v 1.327129 0.051009 -6.615361
v 1.327095 0.061210 -6.615220
v 1.327054 0.071411 -6.615053
v 1.327008 0.081611 -6.614860
v 1.326955 0.091810 -6.614642
v 1.326896 0.102009 -6.614398
v 1.326831 0.112207 -6.614128
v 1.326759 0.122405 -6.613833
v 1.326682 0.132601 -6.613512
v 1.326598 0.142797 -6.613165
v 1.326508 0.152992 -6.612792
v 1.326412 0.163185 -6.612394
v 1.326309 0.173378 -6.611970
v 1.326201 0.183569 -6.611521
v 1.326086 0.193760 -6.611046
v 1.325965 0.203948 -6.610545
v 1.325837 0.214136 -6.610018
v 1.325704 0.224322 -6.609466
v 1.281866 0.563146 -6.616206
v 1.284133 0.563033 -6.614737
v 1.286360 0.562909 -6.613209
v 1.288544 0.562777 -6.611621
v 1.290685 0.562635 -6.609976
v 1.292780 0.562483 -6.608274
v 1.294828 0.562323 -6.606516
v 1.296828 0.562154 -6.604705
v 1.298778 0.561975 -6.602841
v 1.300677 0.561788 -6.600926
v 1.325152 0.234544 -6.609669
v 1.324588 0.244767 -6.609843
v 1.324010 0.254991 -6.609990
v 1.323419 0.265217 -6.610107
v 1.322814 0.275444 -6.610197
v 1.322197 0.285671 -6.610257
v 1.321566 0.295900 -6.610290
v 1.320922 0.306129 -6.610293
v 1.320266 0.316359 -6.610268
v 1.319596 0.326590 -6.610214
v 1.318913 0.336821 -6.610132
v 1.318217 0.347052 -6.610020
v 1.317509 0.357283 -6.609880
v 1.316787 0.367515 -6.609711
v 1.316053 0.377746 -6.609512
v 1.315305 0.387978 -6.609285
v 1.314545 0.398209 -6.609028
v 1.313773 0.408440 -6.608743
v 1.312987 0.418670 -6.608428
v 1.312189 0.428900 -6.608084
v 1.311378 0.439129 -6.607710
v 1.310555 0.449358 -6.607308
v 1.309719 0.459585 -6.606875
v 1.308870 0.469812 -6.606414
v 1.308009 0.480038 -6.605923
v 1.307136 0.490262 -6.605402
v 1.306250 0.500485 -6.604851
v 1.305352 0.510706 -6.604272
v 1.304441 0.520926 -6.603662
v 1.303518 0.531145 -6.603022
v 1.302583 0.541361 -6.602353
v 1.301636 0.551576 -6.601654
v 1.325418 0.244690 -6.608285
v 1.325564 0.234507 -6.608889
v 1.325266 0.254871 -6.607656
v 1.325108 0.265050 -6.607001
v 1.324943 0.275228 -6.606321
v 1.324772 0.285404 -6.605615
v 1.324595 0.295578 -6.604883
v 1.324412 0.305750 -6.604126
v 1.324223 0.315920 -6.603343
v 1.324027 0.326088 -6.602535
v 1.323825 0.336253 -6.601701
v 1.323617 0.346417 -6.600842
v 1.323403 0.356578 -6.599956
v 1.323182 0.366736 -6.599046
v 1.322956 0.376892 -6.598109
v 1.322723 0.387045 -6.597147
v 1.322484 0.397196 -6.596160
v 1.322238 0.407344 -6.595147
v 1.321987 0.417490 -6.594108
v 1.321729 0.427632 -6.593044
v 1.321465 0.437772 -6.591955
v 1.321195 0.447908 -6.590840
v 1.320918 0.458042 -6.589699
v 1.320636 0.468173 -6.588533
v 1.320347 0.478300 -6.587341
v 1.320052 0.488424 -6.586124
v 1.319751 0.498545 -6.584881
v 1.319443 0.508662 -6.583613
v 1.319129 0.518776 -6.582320
v 1.318810 0.528887 -6.581001
v 1.318483 0.538994 -6.579656
v 1.318151 0.549097 -6.578287
v 1.317813 0.559197 -6.576891
v 1.302523 0.561593 -6.598960
v 1.304315 0.561389 -6.596946
v 1.306052 0.561176 -6.594885
v 1.307732 0.560955 -6.592779
v 1.309355 0.560727 -6.590628
v 1.310918 0.560490 -6.588435
v 1.312422 0.560246 -6.586202
v 1.313864 0.559995 -6.583929
v 1.315244 0.559736 -6.581618
v 1.316560 0.559470 -6.579272
f 1 2 3
f 1 4 2
f 1 5 4
f 1 6 5
f 1 7 6
f 1 8 7
f 1 9 8
f 1 10 9
f 1 11 10
f 1 12 11
f 1 13 12
f 1 14 13
f 1 15 14
f 1 16 15
f 1 17 16
f 1 18 17
f 1 19 18
f 1 20 19
f 1 21 20
f 1 22 21
f 1 23 22
f 1 24 23
f 1 25 24
f 1 26 25
f 1 27 26
f 1 28 27
f 1 29 28
f 1 30 29
f 1 31 30
f 1 32 31
f 1 33 32
f 1 34 35
f 1 35 36
f 1 36 37
f 1 37 38
f 1 38 39
f 1 39 40
f 1 40 41
f 1 41 42
f 1 42 43
f 1 44 33
f 1 45 44
f 1 46 45
f 1 47 46
f 1 48 47
f 1 49 48
f 1 50 49
f 1 51 50
f 1 52 51
f 1 53 52
f 1 54 53
f 1 55 54
f 1 56 55
f 1 57 56
f 1 58 57
f 1 59 58
f 1 60 59
f 1 61 60
f 1 62 61
f 1 63 62
f 1 64 63
f 1 65 64
f 1 66 65
f 1 67 66
f 1 68 67
f 1 69 68
f 1 70 69
f 1 71 70
f 1 72 71
f 1 73 72
f 1 74 73
f 1 43 74
f 33 75 76
f 33 77 75
f 33 78 77
f 33 79 78
f 33 80 79
f 33 81 80
f 33 82 81
f 33 83 82
f 33 84 83
f 33 85 84
f 33 86 85
f 33 87 86
f 33 88 87
f 33 89 88
f 33 90 89
f 33 91 90
f 33 92 91
f 33 93 92
f 33 94 93
f 33 95 94
f 33 96 95
f 33 97 96
f 33 98 97
f 33 99 98
f 33 100 99
f 33 101 100
f 33 102 101
f 33 103 102
f 33 104 103
f 33 105 104
f 33 106 105
f 33 107 106
f 43 108 109
f 43 109 110
f 43 110 111
f 43 111 112
f 43 112 113
f 43 113 114
f 43 114 115
f 43 115 116
f 43 116 117
f 33 118 107
f 33 119 118
f 33 120 119
f 33 121 120
f 33 122 121
f 33 123 122
f 33 124 123
f 33 125 124
f 33 126 125
f 33 127 126
f 33 128 127
f 33 129 128
f 33 130 129
f 33 131 130
f 33 132 131
f 33 133 132
f 33 134 133
f 33 135 134
f 33 136 135
f 33 137 136
f 33 138 137
f 33 139 138
f 33 140 139
f 33 44 140
f 44 141 140
f 44 45 141
f 45 142 141
f 45 46 142
f 46 143 142
f 46 47 143
f 47 144 143
f 47 48 144
f 48 145 144
f 48 49 145
f 49 146 145
f 49 50 146
f 50 147 146
f 50 51 147
f 51 148 147
f 51 52 148
f 52 149 148
f 52 53 149
f 53 150 149
f 53 54 150
f 54 151 150
f 54 55 151
f 55 152 151
f 55 56 152
f 56 153 152
f 56 57 153
f 57 154 153
f 57 58 154
f 58 155 154
f 58 59 155
f 59 156 155
f 59 60 156
f 60 157 156
f 60 61 157
f 61 158 157
f 61 62 158
f 62 159 158
f 62 63 159
f 63 160 159
f 63 64 160
f 64 161 160
f 64 65 161
f 65 162 161
f 65 66 162
f 66 163 162
f 66 67 163
f 67 164 163
f 67 68 164
f 68 165 164
f 68 69 165
f 69 166 165
f 69 70 166
f 70 167 166
f 70 71 167
f 71 168 167
f 71 72 168
f 72 169 168
f 72 73 169
f 73 170 169
f 73 74 170
f 74 171 170
f 74 43 171
f 43 117 171
f 107 172 173
f 107 174 172
f 107 175 174
f 107 176 175
f 107 177 176
f 107 178 177
f 107 179 178
f 107 180 179
f 107 181 180
f 117 182 183
f 117 183 184
f 117 184 185
f 117 185 186
f 117 186 187
f 117 187 188
f 117 188 189
f 117 189 190
f 117 190 191
f 117 191 192
f 117 192 193
f 117 193 194
f 117 194 195
f 117 195 196
f 117 196 197
f 117 197 198
f 117 198 199
f 117 199 200
f 117 200 201
f 117 201 202
f 107 118 181
f 118 203 181
f 118 119 203
f 119 204 203
f 119 120 204
f 120 205 204
f 120 121 205
f 121 206 205
f 121 122 206
f 122 207 206
f 122 123 207
f 123 208 207
f 123 124 208
f 124 209 208
f 124 125 209
f 125 210 209
f 125 126 210
f 126 211 210
f 126 127 211
f 127 212 211
f 127 128 212
f 128 213 212
f 128 129 213
f 129 214 213
f 129 130 214
f 130 215 214
f 130 131 215
f 131 216 215
f 131 132 216
f 132 217 216
f 132 133 217
f 133 218 217
f 133 134 218
f 134 219 218
f 134 135 219
f 135 220 219
f 135 136 220
f 136 221 220
f 136 137 221
f 137 222 221
f 137 138 222
f 138 223 222
f 138 139 223
f 139 224 223
f 139 140 224
f 140 225 224
f 140 141 225
f 141 226 225
f 141 142 226
f 142 227 226
f 142 143 227
f 143 228 227
f 143 144 228
f 144 229 228
f 144 145 229
f 145 230 229
f 145 146 230
f 146 231 230
f 146 147 231
f 147 232 231
f 147 148 232
f 148 233 232
f 148 149 233
f 149 234 233
f 149 150 234
f 150 235 234
f 150 151 235
f 151 236 235
f 151 152 236
f 152 237 236
f 152 153 237
f 153 238 237
f 153 154 238
f 154 239 238
f 154 155 239
f 155 240 239
f 155 156 240
f 156 241 240
f 156 157 241
f 157 242 241
f 157 158 242
f 158 243 242
f 158 159 243
f 159 244 243
f 159 160 244
f 160 245 244
f 160 161 245
f 161 246 245
f 161 162 246
f 162 247 246
f 162 163 247
f 163 248 247
f 163 164 248
f 164 249 248
f 164 165 249
f 165 250 249
f 165 166 250
f 166 251 250
f 166 167 251
f 167 252 251
f 167 168 252
f 168 253 252
f 168 169 253
f 169 254 253
f 169 170 254
f 170 255 254
f 170 171 255
f 171 256 255
f 171 202 256
f 171 117 202
f 181 257 258
f 181 259 257
f 181 260 259
f 181 261 260
f 181 262 261
f 181 263 262
f 181 264 263
f 181 265 264
f 181 266 265
f 181 267 266
f 181 268 267
f 181 269 268
f 181 270 269
f 181 271 270
f 181 272 271
f 181 273 272
f 181 274 273
f 181 275 274
f 181 276 275
f 181 277 276
f 181 278 277
f 181 279 278
f 181 280 279
f 181 281 280
f 181 282 281
f 181 283 282
f 181 284 283
f 181 285 284
f 181 286 285
f 181 287 286
f 181 288 287
f 181 289 288
f 202 290 291
f 202 291 292
f 202 292 293
f 202 293 294
f 202 294 295
f 202 295 296
f 202 296 297
f 202 297 298
f 202 298 299
f 181 203 289
f 203 204 289
f 204 205 289
f 205 206 289
f 206 207 289
f 207 208 289
f 208 209 289
f 209 210 289
f 210 211 289
f 211 212 289
f 212 213 289
f 213 214 289
f 214 215 289
f 215 216 289
f 216 217 289
f 217 218 289
f 218 219 289
f 219 220 289
f 220 221 289
f 221 222 289
f 222 223 289
f 223 224 289
f 224 225 289
f 225 300 289
f 225 226 300
f 226 301 300
f 226 227 301
f 227 302 301
f 227 228 302
f 228 303 302
f 228 229 303
f 229 304 303
f 229 230 304
f 230 305 304
f 230 231 305
f 231 306 305
f 231 232 306
f 232 307 306
f 232 233 307
f 233 308 307
f 233 234 308
f 234 309 308
f 234 235 309
f 235 310 309
f 235 236 310
f 236 311 310
f 236 237 311
f 237 312 311
f 237 238 312
f 238 313 312
f 238 239 313
f 239 314 313
f 239 240 314
f 240 315 314
f 240 241 315
f 241 316 315
f 241 242 316
f 242 317 316
f 242 243 317
f 243 318 317
f 243 244 318
f 244 319 318
f 244 245 319
f 245 320 319
f 245 246 320
f 246 321 320
f 246 247 321
f 247 322 321
f 247 248 322
f 248 323 322
f 248 249 323
f 249 324 323
f 249 250 324
f 250 325 324
f 250 251 325
f 251 326 325
f 251 252 326
f 252 327 326
f 252 253 327
f 253 328 327
f 253 254 328
f 254 329 328
f 254 255 329
f 255 330 329
f 255 256 330
f 256 331 330
f 256 202 331
f 202 299 331
f 289 332 333
f 289 334 332
f 289 335 334
f 289 336 335
f 289 337 336
f 289 338 337
f 289 339 338
f 289 340 339
f 289 341 340
f 289 342 341
f 289 343 342
f 289 344 343
f 289 345 344
f 289 346 345
f 289 347 346
f 289 348 347
f 289 349 348
f 289 350 349
f 289 351 350
f 289 352 351
f 289 353 352
f 289 354 353
f 289 355 354
f 289 356 355
f 289 357 356
f 289 358 357
f 289 359 358
f 289 360 359
f 289 361 360
f 289 362 361
f 289 363 362
f 289 364 363
f 299 365 366
f 299 366 367
f 299 367 368
f 299 368 369
f 299 369 370
f 299 370 371
f 299 371 372
f 299 372 373
f 299 373 374
f 299 374 364
f 289 300 364
f 300 301 364
f 301 302 364
f 302 303 364
f 303 304 364
f 304 305 364
f 305 306 364
f 306 307 364
f 307 308 364
f 308 309 364
f 309 310 364
f 310 311 364
f 311 312 364
f 312 313 364
f 313 314 364
f 314 315 364
f 315 316 364
f 316 317 364
f 317 318 364
f 318 319 364
f 319 320 364
f 320 321 364
f 321 322 364
f 322 323 364
f 323 324 364
f 324 325 364
f 325 326 364
f 326 327 364
f 327 328 364
f 328 329 364
f 329 330 364
f 330 331 364
f 331 299 364
