v -0.334363 -0.337382 -2.880000
v -0.334509 -0.337238 -2.887104
v 0.023836 -0.470003 -3.224393
v 0.334946 -0.336804 -2.865873
v 0.334509 -0.337238 -2.872896
v 0.459311 -0.121074 -2.872895
v 0.459363 -0.120876 -2.880000
v 0.475000 0.000000 -3.213787
v -0.459311 -0.121074 -2.872896
v -0.475000 0.000000 -2.415000
v -0.475000 0.000000 -3.213787
v -0.470607 0.000000 -3.224393
v -0.468192 -0.047610 -3.224393
v 0.468192 -0.047610 -3.224393
v 0.470607 0.000000 -3.224393
v 0.475000 0.000000 -2.415000
v 0.334363 -0.337382 -2.880000
v -0.334509 -0.337238 -2.872896
v 0.459154 -0.121670 -2.865873
v -0.459154 -0.121669 -2.865873
v -0.458890 -0.122660 -2.858922
v -0.460973 -0.094732 -3.224393
v 0.458517 -0.124044 -2.907967
v 0.459311 -0.121074 -2.887104
v -0.334946 -0.336804 -2.894127
v 0.335672 -0.336081 -2.858922
v 0.458890 -0.122660 -2.858922
v -0.458517 -0.124044 -2.852033
v -0.449024 -0.140882 -3.224393
v 0.460973 -0.094732 -3.224393
v 0.456715 -0.130527 -2.928221
v 0.459154 -0.121669 -2.894127
v 0.334509 -0.337238 -2.887104
v -0.334946 -0.336804 -2.865873
v 0.458517 -0.124044 -2.852033
v -0.457434 -0.127984 -2.838438
v -0.458033 -0.125821 -2.845199
v -0.432468 -0.185586 -3.224393
v 0.449024 -0.140882 -3.224393
v 0.458815 -0.122939 -3.108766
v 0.458890 -0.122660 -2.901078
v -0.335672 -0.336081 -2.901078
v 0.336684 -0.335065 -2.852033
v 0.458033 -0.125821 -2.845199
v -0.456715 -0.130527 -2.831779
v -0.472563 -0.048055 -2.415000
v -0.411473 -0.228386 -3.224393
v 0.432468 -0.185586 -3.224393
v 0.439712 -0.179660 -2.987214
v 0.334946 -0.336804 -2.894127
v -0.335672 -0.336081 -2.858922
v 0.457434 -0.127984 -2.838437
v 0.419867 -0.222118 -3.003758
v -0.386257 -0.268843 -3.224393
v 0.432002 -0.197483 -2.996628
v 0.429156 -0.203592 -2.999000
v 0.458033 -0.125821 -2.914801
v -0.336684 -0.335065 -2.907967
v 0.337981 -0.333758 -2.845199
v 0.472563 -0.048055 -2.415000
v -0.357077 -0.306540 -3.224393
v 0.423083 -0.215929 -3.002567
v 0.426181 -0.209747 -3.000980
v 0.457434 -0.127984 -2.921562
v 0.335672 -0.336081 -2.901078
v -0.336684 -0.335065 -2.852033
v 0.456715 -0.130527 -2.831779
v -0.324232 -0.341092 -3.224393
v 0.411473 -0.228386 -3.224393
v -0.337981 -0.333758 -2.914801
v 0.339555 -0.332157 -2.838437
v 0.455871 -0.133442 -2.825252
v -0.288061 -0.372144 -3.224393
v 0.357077 -0.306540 -3.224393
v 0.386257 -0.268843 -3.224393
v 0.455871 -0.133442 -2.934747
v 0.336684 -0.335065 -2.907967
v -0.337981 -0.333758 -2.845198
v 0.454898 -0.136722 -2.818888
v -0.248934 -0.399378 -3.224393
v 0.324232 -0.341092 -3.224393
v 0.288061 -0.372144 -3.224393
v 0.454898 -0.136722 -2.941111
v -0.339555 -0.332157 -2.921563
v -0.339555 -0.332157 -2.838436
v -0.237500 -0.411362 -2.877511
v 0.453791 -0.140354 -2.812713
v -0.207252 -0.422513 -3.224393
v 0.248934 -0.399378 -3.224393
v 0.453791 -0.140354 -2.947287
v 0.337981 -0.333758 -2.914802
v 0.452545 -0.144319 -2.806749
v -0.163444 -0.441312 -3.224393
v 0.207252 -0.422513 -3.224393
v 0.452545 -0.144319 -2.953251
v -0.341397 -0.330263 -2.928222
v 0.341397 -0.330263 -2.831778
v 0.451158 -0.148599 -2.801020
v -0.117959 -0.455583 -3.224393
v 0.163444 -0.441312 -3.224393
v 0.451158 -0.148599 -2.958979
v 0.339555 -0.332157 -2.921564
v -0.341398 -0.330263 -2.831777
v 0.449624 -0.153176 -2.795550
v -0.071263 -0.465180 -3.224393
v 0.117959 -0.455583 -3.224393
v 0.449624 -0.153176 -2.964450
v -0.343500 -0.328074 -2.934749
v 0.343500 -0.328074 -2.825251
v 0.447941 -0.158028 -2.790360
v -0.023836 -0.470003 -3.224393
v 0.071263 -0.465180 -3.224393
v 0.447941 -0.158028 -2.969640
v 0.341398 -0.330263 -2.928223
v -0.343501 -0.328074 -2.825250
v 0.446109 -0.163130 -2.785469
v 0.446109 -0.163129 -2.974531
v -0.345854 -0.325591 -2.941113
v 0.345854 -0.325591 -2.818887
v 0.458815 -0.122939 -2.646255
v 0.444127 -0.168453 -2.979102
v 0.343501 -0.328074 -2.934750
v -0.345855 -0.325591 -2.818886
v 0.444126 -0.168453 -2.780897
v 0.441994 -0.173972 -2.776664
v 0.441994 -0.173972 -2.983336
v -0.348446 -0.322816 -2.947289
v 0.348446 -0.322816 -2.812711
v 0.439712 -0.179661 -2.772785
v 0.345855 -0.325591 -2.941114
v -0.348446 -0.322816 -2.812710
v 0.437283 -0.185493 -2.769272
v 0.437283 -0.185492 -2.990728
v -0.351258 -0.319755 -2.953253
v 0.351258 -0.319755 -2.806747
v 0.434712 -0.191442 -2.766131
v 0.434712 -0.191442 -2.993869
v 0.348446 -0.322816 -2.947290
v -0.351258 -0.319755 -2.806747
v 0.432001 -0.197484 -2.763371
v -0.354271 -0.316414 -2.958981
v 0.354271 -0.316414 -2.801018
v 0.429156 -0.203593 -2.761000
v 0.351258 -0.319755 -2.953253
v -0.354271 -0.316413 -2.801018
v 0.426181 -0.209748 -2.759020
v -0.357468 -0.312797 -2.964452
v 0.357468 -0.312797 -2.795548
v 0.423083 -0.215929 -2.757433
v 0.411362 -0.237500 -3.108766
v 0.354271 -0.316413 -2.958982
v -0.357468 -0.312796 -2.795548
v 0.419867 -0.222118 -2.756242
v -0.360828 -0.308913 -2.969642
v 0.360828 -0.308913 -2.790358
v 0.416541 -0.228295 -2.755447
v 0.357468 -0.312796 -2.964452
v -0.360829 -0.308913 -2.790358
v 0.413111 -0.234443 -2.755049
v 0.416541 -0.228295 -3.004553
v 0.413112 -0.234442 -3.004951
v -0.364330 -0.304775 -2.974533
v 0.364330 -0.304775 -2.785467
v 0.409588 -0.240546 -2.755050
v 0.409588 -0.240546 -3.004950
v 0.360829 -0.308913 -2.969642
v -0.364330 -0.304775 -2.785467
v 0.405979 -0.246589 -2.755447
v 0.405979 -0.246589 -3.004553
v -0.367949 -0.300397 -2.979104
v 0.367949 -0.300397 -2.780896
v 0.402293 -0.252558 -2.756242
v 0.402293 -0.252558 -3.003758
v 0.364330 -0.304775 -2.974533
v 0.411362 -0.237500 -2.646255
v 0.398541 -0.258437 -2.757433
v 0.367950 -0.300396 -2.979105
v 0.371663 -0.295790 -2.776662
v 0.394737 -0.264210 -2.759020
v 0.371663 -0.295790 -2.983338
v -0.367949 -0.300396 -2.780895
v 0.390894 -0.269863 -2.761000
v 0.375448 -0.290969 -2.987216
v 0.465277 -0.095617 -2.415000
v 0.453216 -0.142197 -2.415000
v 0.387027 -0.275382 -2.763371
v 0.379284 -0.285950 -2.990729
v 0.436505 -0.187319 -2.415000
v 0.383150 -0.280749 -2.766131
v 0.383151 -0.280749 -2.993870
v 0.415315 -0.230518 -2.415000
v 0.379284 -0.285951 -2.769271
v 0.387027 -0.275381 -2.996629
v 0.389863 -0.271352 -2.415000
v 0.375448 -0.290970 -2.772784
v 0.390895 -0.269863 -2.999000
v 0.360410 -0.309402 -2.415000
v 0.394737 -0.264210 -3.000980
v 0.327259 -0.344277 -2.415000
v 0.251258 -0.403106 -2.415000
v 0.209187 -0.426457 -2.415000
v 0.398541 -0.258436 -3.002567
v 0.335876 -0.335876 -2.530628
v 0.290750 -0.375618 -2.415000
v 0.335876 -0.335876 -2.646255
v 0.164970 -0.445432 -2.415000
v -0.371663 -0.295790 -2.983338
v 0.119060 -0.459837 -2.415000
v -0.375448 -0.290970 -2.987216
v 0.071928 -0.469522 -2.415000
v -0.379284 -0.285951 -2.990729
v 0.024058 -0.474390 -2.415000
v -0.383150 -0.280749 -2.993869
v 0.122939 -0.458815 -2.530628
v -0.387027 -0.275382 -2.996629
v -0.024058 -0.474390 -2.415000
v 0.237500 -0.411362 -2.646255
v -0.390894 -0.269863 -2.999000
v -0.071928 -0.469522 -2.415000
v -0.394737 -0.264210 -3.000980
v -0.119060 -0.459837 -2.415000
v -0.335876 -0.335876 -3.108766
v -0.164970 -0.445432 -2.415000
v -0.398541 -0.258437 -3.002567
v -0.209187 -0.426457 -2.415000
v -0.402293 -0.252558 -3.003758
v -0.251258 -0.403106 -2.415000
v -0.405979 -0.246589 -3.004553
v -0.335876 -0.335876 -2.646255
v -0.409588 -0.240546 -3.004950
v -0.290750 -0.375618 -2.415000
v -0.335876 -0.335876 -2.530628
v -0.413111 -0.234443 -3.004951
v -0.327259 -0.344277 -2.415000
v -0.360410 -0.309402 -2.415000
v -0.416541 -0.228295 -3.004553
v -0.371663 -0.295790 -2.776662
v -0.419867 -0.222118 -3.003758
v -0.375448 -0.290969 -2.772784
v -0.423083 -0.215929 -3.002567
v -0.379284 -0.285950 -2.769271
v -0.426181 -0.209748 -3.000980
v -0.383151 -0.280749 -2.766130
v -0.429156 -0.203593 -2.999000
v -0.387027 -0.275381 -2.763371
v -0.432001 -0.197484 -2.996629
v -0.389863 -0.271352 -2.415000
v -0.434712 -0.191442 -2.993869
v -0.390895 -0.269863 -2.761000
v -0.437283 -0.185493 -2.990728
v -0.394737 -0.264210 -2.759020
v -0.439712 -0.179661 -2.987215
v -0.398541 -0.258436 -2.757433
v -0.441994 -0.173972 -2.983336
v -0.402293 -0.252558 -2.756242
v -0.444126 -0.168453 -2.979103
v -0.405979 -0.246589 -2.755447
v -0.446109 -0.163130 -2.974531
v -0.415315 -0.230518 -2.415000
v -0.447941 -0.158028 -2.969640
v -0.409588 -0.240546 -2.755050
v -0.449624 -0.153176 -2.964450
v -0.413112 -0.234442 -2.755049
v -0.451158 -0.148599 -2.958980
v -0.416541 -0.228295 -2.755447
v -0.452545 -0.144319 -2.953251
v -0.419867 -0.222118 -2.756242
v -0.453791 -0.140354 -2.947287
v -0.423083 -0.215929 -2.757433
v -0.454898 -0.136722 -2.941112
v -0.436505 -0.187319 -2.415000
v -0.455871 -0.133442 -2.934748
v -0.426181 -0.209747 -2.759020
v -0.456715 -0.130527 -2.928222
v -0.429156 -0.203592 -2.761000
v -0.457434 -0.127984 -2.921563
v -0.432002 -0.197483 -2.763372
v -0.458033 -0.125821 -2.914801
v -0.434712 -0.191442 -2.766131
v -0.458517 -0.124044 -2.907967
v -0.437283 -0.185492 -2.769272
v -0.458890 -0.122660 -2.901078
v -0.453216 -0.142197 -2.415000
v -0.459154 -0.121670 -2.894127
v -0.439712 -0.179660 -2.772786
v -0.459311 -0.121074 -2.887105
v -0.441994 -0.173972 -2.776664
v -0.459363 -0.120876 -2.880000
v -0.444127 -0.168453 -2.780898
v -0.446109 -0.163129 -2.785469
v -0.447941 -0.158028 -2.790360
v -0.458815 -0.122939 -2.530628
v -0.465277 -0.095617 -2.415000
v -0.449624 -0.153176 -2.795550
v -0.455871 -0.133442 -2.825253
v -0.451158 -0.148599 -2.801021
v -0.454898 -0.136722 -2.818889
v -0.452545 -0.144319 -2.806749
v -0.458815 -0.122939 -2.646255
v -0.453791 -0.140354 -2.812713
v 0.411362 -0.237500 -2.530628
v 0.335876 -0.335876 -2.761883
v -0.122939 -0.458815 -2.530628
v 0.237500 -0.411362 -2.761883
v 0.000000 -0.475000 -2.530628
v -0.237500 -0.411362 -2.646255
v -0.122939 -0.458815 -2.646255
v -0.122939 -0.458815 -2.761883
v 0.237500 -0.411362 -2.877511
v 0.122939 -0.458815 -2.993138
v -0.122939 -0.458815 -2.877511
v -0.122939 -0.458815 -2.993138
v 0.000000 -0.475000 -2.993138
v -0.411362 -0.237500 -3.108766
v 0.122939 -0.458815 -2.588441
v 0.181775 -0.438843 -2.646255
v 0.122939 -0.458815 -2.761883
v 0.062000 -0.470936 -2.704069
v -0.122939 -0.458815 -2.588441
v 0.062000 -0.470936 -2.877511
v 0.000000 -0.475000 -2.935324
v 0.313189 -0.357124 -2.588441
v 0.289162 -0.376843 -2.646255
v 0.237500 -0.411362 -2.761883
v 0.152684 -0.449792 -2.732976
v -0.031066 -0.473983 -2.675162
v 0.031066 -0.473983 -2.704069
v 0.000000 -0.475000 -2.761883
v 0.152684 -0.449792 -2.877511
v 0.122939 -0.458815 -2.906417
v -0.031066 -0.473983 -2.877511
f 1 2 3
f 4 3 5
f 6 7 8
f 9 10 11
f 11 12 13
f 14 15 8
f 6 8 16
f 5 3 17
f 18 1 3
f 19 6 16
f 10 20 21
f 11 13 22
f 14 8 23
f 8 7 24
f 2 25 3
f 26 3 4
f 27 19 16
f 10 21 28
f 11 22 29
f 30 14 31
f 8 24 32
f 3 33 17
f 34 18 3
f 35 27 16
f 36 10 37
f 11 29 38
f 39 30 40
f 8 32 41
f 25 42 3
f 43 3 26
f 44 35 16
f 45 46 36
f 11 38 47
f 48 39 49
f 8 41 23
f 3 50 33
f 51 34 3
f 52 44 16
f 53 47 54
f 48 55 56
f 14 23 57
f 42 58 3
f 59 3 43
f 52 16 60
f 54 61 53
f 62 48 63
f 57 64 14
f 3 65 50
f 66 51 3
f 52 60 67
f 53 61 68
f 53 69 62
f 14 64 31
f 58 70 3
f 71 3 59
f 67 60 72
f 68 73 53
f 53 74 75
f 30 31 76
f 3 77 65
f 78 66 3
f 72 60 79
f 53 73 80
f 81 53 82
f 76 83 30
f 70 84 3
f 85 3 86
f 79 60 87
f 80 88 53
f 82 53 89
f 30 83 90
f 3 91 77
f 85 78 3
f 87 60 92
f 53 88 93
f 89 53 94
f 90 95 30
f 84 96 3
f 85 71 97
f 92 60 98
f 93 99 53
f 94 53 100
f 30 95 101
f 3 102 91
f 85 97 103
f 98 60 104
f 53 99 105
f 100 53 106
f 39 101 107
f 96 108 3
f 103 97 109
f 104 60 110
f 105 111 53
f 106 53 112
f 107 113 39
f 3 114 102
f 103 109 115
f 110 60 116
f 53 111 3
f 39 113 117
f 108 118 3
f 115 109 119
f 116 60 120
f 112 53 3
f 117 121 39
f 3 122 114
f 115 119 123
f 124 60 125
f 39 121 126
f 118 127 3
f 123 119 128
f 125 60 129
f 39 126 49
f 3 130 122
f 123 128 131
f 129 60 132
f 48 49 133
f 127 134 3
f 131 128 135
f 132 60 136
f 48 133 137
f 3 138 130
f 131 135 139
f 136 60 140
f 137 55 48
f 134 141 3
f 139 135 142
f 140 60 143
f 63 48 56
f 3 144 138
f 139 142 145
f 143 60 146
f 62 69 48
f 141 147 3
f 145 142 148
f 146 60 149
f 53 75 150
f 3 151 144
f 145 148 152
f 149 60 153
f 74 53 81
f 147 154 3
f 152 148 155
f 153 60 156
f 53 11 47
f 3 157 151
f 152 155 158
f 156 60 159
f 3 160 161
f 154 162 3
f 158 155 163
f 159 60 164
f 3 161 165
f 3 166 157
f 158 163 167
f 164 60 168
f 3 165 169
f 162 170 3
f 163 171 60
f 168 60 172
f 173 3 169
f 3 174 166
f 163 60 175
f 172 60 176
f 174 3 177
f 178 60 171
f 176 60 179
f 177 3 180
f 60 181 167
f 179 60 182
f 180 3 183
f 171 184 185
f 182 60 186
f 183 3 187
f 171 185 188
f 186 60 189
f 187 3 190
f 171 188 191
f 189 60 192
f 190 3 193
f 171 191 194
f 192 60 195
f 193 3 196
f 171 194 197
f 195 60 178
f 196 3 198
f 171 197 199
f 171 200 201
f 198 3 202
f 171 199 203
f 171 204 205
f 202 3 173
f 171 201 206
f 3 170 207
f 171 206 208
f 3 207 209
f 171 208 210
f 3 209 211
f 171 210 212
f 3 211 213
f 171 212 214
f 3 213 215
f 171 216 217
f 3 215 218
f 181 216 219
f 3 218 220
f 181 219 221
f 3 220 222
f 181 221 223
f 11 220 224
f 181 223 225
f 11 224 226
f 181 225 227
f 11 226 228
f 181 227 229
f 11 228 230
f 181 231 232
f 11 230 233
f 181 234 235
f 11 233 236
f 181 235 237
f 11 236 238
f 237 235 239
f 11 238 240
f 239 235 241
f 11 240 242
f 241 235 243
f 11 242 244
f 243 235 245
f 11 244 246
f 245 235 247
f 11 246 248
f 245 247 249
f 11 248 250
f 249 247 251
f 11 250 252
f 251 247 253
f 11 252 254
f 253 247 255
f 11 254 256
f 255 247 257
f 11 256 258
f 257 247 259
f 11 258 260
f 257 259 261
f 11 260 262
f 261 259 263
f 11 262 264
f 263 259 265
f 11 264 266
f 265 259 267
f 11 266 268
f 267 259 269
f 11 268 270
f 269 259 271
f 11 270 272
f 269 271 273
f 11 272 274
f 273 271 275
f 11 274 276
f 275 271 277
f 11 276 278
f 277 271 279
f 11 278 280
f 279 271 281
f 11 280 282
f 281 271 283
f 11 282 284
f 281 283 285
f 11 284 286
f 285 283 287
f 11 286 288
f 287 283 289
f 11 288 9
f 289 283 290
f 9 20 10
f 290 283 291
f 37 10 28
f 291 283 292
f 36 46 10
f 291 293 294
f 295 46 45
f 294 293 296
f 297 46 295
f 296 293 298
f 297 293 46
f 298 293 299
f 300 293 297
f 60 167 301
f 167 163 302
f 199 204 203
f 204 171 203
f 212 216 214
f 216 171 214
f 216 181 303
f 181 171 304
f 305 319 181
f 319 306 181
f 305 216 303
f 231 234 232
f 234 181 232
f 283 293 292
f 293 291 292
f 60 124 120
f 124 116 120
f 60 301 175
f 301 163 175
f 204 200 205
f 200 171 205
f 305 315 216
f 315 217 216
f 217 315 171
f 315 305 171
f 171 305 307
f 305 181 307
f 306 319 303
f 319 305 303
f 303 181 306
f 227 231 229
f 231 181 229
f 293 300 299
f 300 298 299
f 163 301 302
f 308 327 167
f 327 316 167
f 316 322 167
f 322 301 167
f 307 326 171
f 326 318 171
f 318 325 171
f 325 304 171
f 304 325 181
f 325 318 181
f 318 326 181
f 326 307 181
f 302 324 167
f 324 317 167
f 317 328 167
f 328 308 167
f 301 322 316
f 317 323 322
f 322 301 323
f 316 327 328
f 327 308 328
f 316 328 317
f 301 323 324
f 323 317 324
f 301 324 302
f 3 71 309
f 71 85 309
f 3 309 310
f 311 331 85
f 331 320 85
f 320 329 85
f 329 309 85
f 3 311 312
f 311 85 86
f 309 329 320
f 321 330 329
f 329 309 330
f 320 331 321
f 331 311 321
f 309 330 310
f 330 321 310
f 311 3 313
f 3 310 313
f 310 321 313
f 321 311 313
f 311 86 312
f 86 3 312
f 30 101 40
f 101 39 40
f 75 69 150
f 69 53 150
f 220 11 314
f 11 3 222
f 11 222 314
f 222 220 314
f 60 184 171
f 16 7 6
f 160 53 3
f 24 1 309
f 2 60 217
