v 1.050000 0.985475 -4.782418
v 1.050000 0.925938 -4.782418
v 1.050000 0.938180 -4.801178
v 1.050000 0.950042 -4.820182
v 1.050000 0.961519 -4.839420
v 1.050000 0.972607 -4.858885
v 1.050000 0.983300 -4.878570
v 1.050000 0.993596 -4.898466
v 1.050000 1.003489 -4.918565
v 1.050000 1.012975 -4.938859
v 1.050000 1.022051 -4.959340
v 1.050000 1.030712 -4.979999
v 1.050000 1.038957 -5.000829
v 1.050000 1.046780 -5.021820
v 1.050000 1.054180 -5.042964
v 1.050000 1.061152 -5.064253
v 1.050000 1.067694 -5.085678
v 1.050000 1.073804 -5.107231
v 1.050000 1.079479 -5.128902
v 1.050000 1.084716 -5.150683
v 1.050000 1.089515 -5.172564
v 1.050000 1.093871 -5.194538
v 1.050000 1.097785 -5.216596
v 1.050000 1.101254 -5.238727
v 1.050000 1.104277 -5.260924
v 1.050000 1.106852 -5.283177
v 1.050000 1.108979 -5.305477
v 1.050000 1.110657 -5.327816
v 1.050000 1.111885 -5.350184
v 1.050000 1.112662 -5.372573
v 1.050000 1.112989 -5.394972
v 1.050000 1.112864 -5.417373
v 1.050000 1.112289 -5.439768
v 1.050000 1.111264 -5.462146
v 1.050000 1.109788 -5.484499
v 1.050000 1.107862 -5.506818
v 1.050000 1.105488 -5.529093
v 1.050000 1.102666 -5.551316
v 1.050000 1.099397 -5.573478
v 1.050000 1.095683 -5.595570
v 1.050000 1.091525 -5.617582
v 1.050000 1.142465 -5.617582
v 1.050000 1.146428 -5.595632
v 1.050000 1.149969 -5.573609
v 1.050000 1.153087 -5.551522
v 1.050000 1.155781 -5.529380
v 1.050000 1.158050 -5.507190
v 1.050000 1.159893 -5.484961
v 1.050000 1.161309 -5.462700
v 1.050000 1.162298 -5.440416
v 1.050000 1.162859 -5.418118
v 1.050000 1.162992 -5.395813
v 1.050000 1.162698 -5.373509
v 1.050000 1.161976 -5.351215
v 1.050000 1.160827 -5.328939
v 1.050000 1.159251 -5.306689
v 1.050000 1.157248 -5.284474
v 1.050000 1.154819 -5.262301
v 1.050000 1.151966 -5.240179
v 1.050000 1.148689 -5.218115
v 1.050000 1.144990 -5.196118
v 1.050000 1.140869 -5.174197
v 1.050000 1.136329 -5.152358
v 1.050000 1.131370 -5.130611
v 1.050000 1.125996 -5.108962
v 1.050000 1.120207 -5.087421
v 1.050000 1.114006 -5.065995
v 1.050000 1.107395 -5.044691
v 1.050000 1.100377 -5.023518
v 1.050000 1.092955 -5.002484
v 1.050000 1.085130 -4.981596
v 1.050000 1.076906 -4.960862
v 1.050000 1.068286 -4.940289
v 1.050000 1.059273 -4.919886
v 1.050000 1.049870 -4.899659
v 1.050000 1.040081 -4.879616
v 1.050000 1.029910 -4.859764
v 1.050000 1.019360 -4.840112
v 1.050000 1.008434 -4.820665
v 1.050000 0.997138 -4.801431
f 2 3 1
f 3 80 1
f 3 4 80
f 4 79 80
f 4 5 79
f 5 78 79
f 5 6 78
f 6 77 78
f 6 7 77
f 7 76 77
f 7 8 76
f 8 75 76
f 8 9 75
f 9 74 75
f 9 10 74
f 10 73 74
f 10 11 73
f 11 72 73
f 11 12 72
f 12 71 72
f 12 13 71
f 13 70 71
f 13 14 70
f 14 69 70
f 14 15 69
f 15 68 69
f 15 16 68
f 16 67 68
f 16 17 67
f 17 66 67
f 17 18 66
f 18 65 66
f 18 19 65
f 19 64 65
f 19 20 64
f 20 63 64
f 20 21 63
f 21 62 63
f 21 22 62
f 22 61 62
f 22 23 61
f 23 60 61
f 23 24 60
f 24 59 60
f 24 25 59
f 25 58 59
f 25 26 58
f 26 57 58
f 26 27 57
f 27 56 57
f 27 28 56
f 28 55 56
f 28 29 55
f 29 54 55
f 29 30 54
f 30 53 54
f 30 31 53
f 31 52 53
f 31 32 52
f 32 51 52
f 32 33 51
f 33 50 51
f 33 34 50
f 34 49 50
f 34 35 49
f 35 48 49
f 35 36 48
f 36 47 48
f 36 37 47
f 37 46 47
f 37 38 46
f 38 45 46
f 38 39 45
f 39 44 45
f 39 40 44
f 40 43 44
f 40 41 43
f 41 42 43
