v -0.463189 -0.427031 -1.051004
v -0.462219 -0.428081 -1.051148
v -0.461272 -0.429102 -1.051492
v -0.460366 -0.430073 -1.052030
v -0.459521 -0.430976 -1.052751
v -0.458753 -0.431793 -1.053639
v -0.458080 -0.432508 -1.054677
v -0.457514 -0.433106 -1.055843
v -0.457068 -0.433577 -1.057113
v -0.456752 -0.433910 -1.058462
v -0.456570 -0.434101 -1.059862
v -0.372534 -0.325949 -1.051004
v -0.371588 -0.327028 -1.051148
v -0.370663 -0.328076 -1.051493
v -0.369779 -0.329073 -1.052032
v -0.368953 -0.329998 -1.052754
v -0.368203 -0.330834 -1.053643
v -0.367545 -0.331565 -1.054681
v -0.366993 -0.332176 -1.055847
v -0.366557 -0.332657 -1.057117
v -0.366248 -0.332998 -1.058465
v -0.366071 -0.333192 -1.059863
f 1 13 2
f 1 12 13
f 2 14 3
f 2 13 14
f 3 15 4
f 3 14 15
f 4 16 5
f 4 15 16
f 5 17 6
f 5 16 17
f 6 18 7
f 6 17 18
f 7 19 8
f 7 18 19
f 8 20 9
f 8 19 20
f 9 21 10
f 9 20 21
f 10 22 11
f 10 21 22
