v 0.666127 0.010000 0.071935
v 0.666405 0.010000 0.069317
v 0.666672 0.010000 0.066697
v 0.666929 0.010000 0.064076
v 0.667176 0.010000 0.061454
v 0.667412 0.010000 0.058832
v 0.667638 0.010000 0.056208
v 0.667854 0.010000 0.053583
v 0.668059 0.010000 0.050958
v 0.668254 0.010000 0.048332
v 0.668439 0.010000 0.045705
v 0.666127 0.220000 0.071935
v 0.666405 0.220000 0.069317
v 0.666672 0.220000 0.066697
v 0.666929 0.220000 0.064076
v 0.667176 0.220000 0.061454
v 0.667412 0.220000 0.058832
v 0.667638 0.220000 0.056208
v 0.667854 0.220000 0.053583
v 0.668059 0.220000 0.050958
v 0.668254 0.220000 0.048332
v 0.668439 0.220000 0.045705
f 1 2 13
f 1 13 12
f 2 3 14
f 2 14 13
f 3 4 15
f 3 15 14
f 4 5 16
f 4 16 15
f 5 6 17
f 5 17 16
f 6 7 18
f 6 18 17
f 7 8 19
f 7 19 18
f 8 9 20
f 8 20 19
f 9 10 21
f 9 21 20
f 10 11 22
f 10 22 21
