v 0.382228 -0.500801 -1.051000
v 0.383719 -0.499659 -1.051000
v 0.385208 -0.498513 -1.051000
v 0.386692 -0.497362 -1.051000
v 0.388173 -0.496207 -1.051000
v 0.389651 -0.495047 -1.051000
v 0.391126 -0.493883 -1.051000
v 0.392596 -0.492715 -1.051000
v 0.394064 -0.491542 -1.051000
v 0.395528 -0.490365 -1.051000
v 0.396988 -0.489184 -1.051000
v 0.398445 -0.487998 -1.051000
v 0.399898 -0.486808 -1.051000
v 0.401348 -0.485613 -1.051000
v 0.402794 -0.484414 -1.051000
v 0.404236 -0.483211 -1.051000
v 0.405675 -0.482004 -1.051000
v 0.407111 -0.480792 -1.051000
v 0.408542 -0.479576 -1.051000
v 0.409970 -0.478356 -1.051000
v 0.411395 -0.477131 -1.051000
v 0.412816 -0.475903 -1.051000
v 0.414233 -0.474670 -1.051000
v 0.415646 -0.473432 -1.051000
v 0.417056 -0.472191 -1.051000
v 0.418462 -0.470945 -1.051000
v 0.419864 -0.469696 -1.051000
v 0.421263 -0.468442 -1.051000
v 0.422658 -0.467184 -1.051000
v 0.424049 -0.465921 -1.051000
v 0.425436 -0.464655 -1.051000
v 0.426820 -0.463384 -1.051000
v 0.325732 -0.372725 -1.051000
v 0.325249 -0.373147 -1.051000
v 0.324765 -0.373568 -1.051000
v 0.324280 -0.373988 -1.051000
v 0.323795 -0.374408 -1.051000
v 0.323310 -0.374827 -1.051000
v 0.322824 -0.375246 -1.051000
v 0.322337 -0.375664 -1.051000
v 0.321850 -0.376082 -1.051000
v 0.321363 -0.376498 -1.051000
v 0.320874 -0.376915 -1.051000
v 0.320386 -0.377330 -1.051000
v 0.319896 -0.377745 -1.051000
v 0.319407 -0.378159 -1.051000
v 0.318916 -0.378573 -1.051000
v 0.318426 -0.378986 -1.051000
v 0.317934 -0.379398 -1.051000
v 0.317442 -0.379810 -1.051000
v 0.316950 -0.380221 -1.051000
v 0.316457 -0.380631 -1.051000
v 0.315963 -0.381041 -1.051000
v 0.315469 -0.381450 -1.051000
v 0.314974 -0.381859 -1.051000
v 0.314479 -0.382267 -1.051000
v 0.313984 -0.382674 -1.051000
v 0.313488 -0.383080 -1.051000
v 0.312991 -0.383486 -1.051000
v 0.312494 -0.383892 -1.051000
v 0.311996 -0.384296 -1.051000
v 0.311498 -0.384700 -1.051000
v 0.310999 -0.385104 -1.051000
v 0.310499 -0.385506 -1.051000
v 0.302599 -0.391738 -1.061000
v 0.374200 -0.506828 -1.061000
f 66 1 2
f 66 2 3
f 66 3 4
f 66 4 5
f 66 5 6
f 66 6 7
f 66 7 8
f 66 8 9
f 66 9 10
f 66 10 11
f 66 11 12
f 66 12 13
f 66 13 14
f 66 14 15
f 66 15 16
f 66 16 17
f 66 17 18
f 66 18 19
f 66 19 20
f 66 20 21
f 66 21 22
f 66 22 23
f 66 23 24
f 66 24 25
f 66 25 26
f 66 26 27
f 66 27 28
f 66 28 29
f 66 29 30
f 66 30 31
f 66 31 32
f 66 32 33
f 66 33 34
f 66 34 35
f 66 35 36
f 66 36 37
f 66 37 38
f 66 38 39
f 66 39 40
f 66 40 41
f 66 41 42
f 66 42 43
f 66 43 44
f 66 44 45
f 66 45 46
f 66 46 47
f 66 47 48
f 66 48 49
f 66 49 50
f 66 50 51
f 66 51 52
f 66 52 53
f 66 53 54
f 66 54 55
f 66 55 56
f 66 56 57
f 66 57 58
f 66 58 59
f 66 59 60
f 66 60 61
f 66 61 62
f 66 62 63
f 66 63 64
f 64 65 66
