v -0.475000 0.000000 -2.415000
v -0.472563 0.048055 -2.415000
v -0.465277 0.095617 -2.415000
v -0.453216 0.142197 -2.415000
v -0.436505 0.187319 -2.415000
v -0.415315 0.230518 -2.415000
v -0.389863 0.271352 -2.415000
v -0.360410 0.309402 -2.415000
v -0.327259 0.344277 -2.415000
v -0.290750 0.375618 -2.415000
v -0.251258 0.403106 -2.415000
v -0.209187 0.426457 -2.415000
v -0.164970 0.445432 -2.415000
v -0.119060 0.459837 -2.415000
v -0.071928 0.469522 -2.415000
v -0.024058 0.474390 -2.415000
v 0.024058 0.474390 -2.415000
v 0.071928 0.469522 -2.415000
v 0.119060 0.459837 -2.415000
v 0.164970 0.445432 -2.415000
v 0.209187 0.426457 -2.415000
v 0.251258 0.403106 -2.415000
v 0.290750 0.375618 -2.415000
v 0.327259 0.344277 -2.415000
v 0.360410 0.309402 -2.415000
v 0.389863 0.271352 -2.415000
v 0.415315 0.230518 -2.415000
v 0.436505 0.187319 -2.415000
v 0.453216 0.142197 -2.415000
v 0.465277 0.095617 -2.415000
v 0.472563 0.048055 -2.415000
v 0.475000 0.000000 -2.415000
v 0.472563 -0.048055 -2.415000
v 0.465277 -0.095617 -2.415000
v 0.453216 -0.142197 -2.415000
v 0.436505 -0.187319 -2.415000
v 0.415315 -0.230518 -2.415000
v 0.389863 -0.271352 -2.415000
v 0.360410 -0.309402 -2.415000
v 0.327259 -0.344277 -2.415000
v 0.290750 -0.375618 -2.415000
v 0.251258 -0.403106 -2.415000
v 0.209187 -0.426457 -2.415000
v 0.164970 -0.445432 -2.415000
v 0.119060 -0.459837 -2.415000
v 0.071928 -0.469522 -2.415000
v 0.024058 -0.474390 -2.415000
v -0.024058 -0.474390 -2.415000
v -0.071928 -0.469522 -2.415000
v -0.119060 -0.459837 -2.415000
v -0.164970 -0.445432 -2.415000
v -0.209187 -0.426457 -2.415000
v -0.251258 -0.403106 -2.415000
v -0.290750 -0.375618 -2.415000
v -0.327259 -0.344277 -2.415000
v -0.360410 -0.309402 -2.415000
v -0.389863 -0.271352 -2.415000
v -0.415315 -0.230518 -2.415000
v -0.436505 -0.187319 -2.415000
v -0.453216 -0.142197 -2.415000
v -0.465277 -0.095617 -2.415000
v -0.472563 -0.048055 -2.415000
v -0.425000 0.000000 -2.415000
v -0.422819 0.042997 -2.415000
v -0.416300 0.085552 -2.415000
v -0.405509 0.127229 -2.415000
v -0.390557 0.167601 -2.415000
v -0.371597 0.206253 -2.415000
v -0.348824 0.242789 -2.415000
v -0.322472 0.276833 -2.415000
v -0.292811 0.308037 -2.415000
v -0.260145 0.336080 -2.415000
v -0.224810 0.360674 -2.415000
v -0.187168 0.381567 -2.415000
v -0.147605 0.398545 -2.415000
v -0.106527 0.411433 -2.415000
v -0.064357 0.420099 -2.415000
v -0.021526 0.424455 -2.415000
v 0.021526 0.424455 -2.415000
v 0.064357 0.420099 -2.415000
v 0.106527 0.411433 -2.415000
v 0.147605 0.398545 -2.415000
v 0.187168 0.381567 -2.415000
v 0.224810 0.360674 -2.415000
v 0.260145 0.336080 -2.415000
v 0.292811 0.308037 -2.415000
v 0.322472 0.276833 -2.415000
v 0.348824 0.242789 -2.415000
v 0.371597 0.206253 -2.415000
v 0.390557 0.167601 -2.415000
v 0.405509 0.127229 -2.415000
v 0.416300 0.085552 -2.415000
v 0.422819 0.042997 -2.415000
v 0.425000 0.000000 -2.415000
v 0.422819 -0.042997 -2.415000
v 0.416300 -0.085552 -2.415000
v 0.405509 -0.127229 -2.415000
v 0.390557 -0.167601 -2.415000
v 0.371597 -0.206253 -2.415000
v 0.348824 -0.242789 -2.415000
v 0.322472 -0.276833 -2.415000
v 0.292811 -0.308037 -2.415000
v 0.260145 -0.336080 -2.415000
v 0.224810 -0.360674 -2.415000
v 0.187168 -0.381567 -2.415000
v 0.147605 -0.398545 -2.415000
v 0.106527 -0.411433 -2.415000
v 0.064357 -0.420099 -2.415000
v 0.021526 -0.424455 -2.415000
v -0.021526 -0.424455 -2.415000
v -0.064357 -0.420099 -2.415000
v -0.106527 -0.411433 -2.415000
v -0.147605 -0.398545 -2.415000
v -0.187168 -0.381567 -2.415000
v -0.224810 -0.360674 -2.415000
v -0.260145 -0.336080 -2.415000
v -0.292811 -0.308037 -2.415000
v -0.322472 -0.276833 -2.415000
v -0.348824 -0.242789 -2.415000
v -0.371597 -0.206253 -2.415000
v -0.390557 -0.167601 -2.415000
v -0.405509 -0.127229 -2.415000
v -0.416300 -0.085552 -2.415000
v -0.422819 -0.042997 -2.415000
f 1 2 64
f 1 64 63
f 2 3 65
f 2 65 64
f 3 4 66
f 3 66 65
f 4 5 67
f 4 67 66
f 5 6 68
f 5 68 67
f 6 7 69
f 6 69 68
f 7 8 70
f 7 70 69
f 8 9 71
f 8 71 70
f 9 10 72
f 9 72 71
f 10 11 73
f 10 73 72
f 11 12 74
f 11 74 73
f 12 13 75
f 12 75 74
f 13 14 76
f 13 76 75
f 14 15 77
f 14 77 76
f 15 16 78
f 15 78 77
f 16 17 79
f 16 79 78
f 17 18 80
f 17 80 79
f 18 19 81
f 18 81 80
f 19 20 82
f 19 82 81
f 20 21 83
f 20 83 82
f 21 22 84
f 21 84 83
f 22 23 85
f 22 85 84
f 23 24 86
f 23 86 85
f 24 25 87
f 24 87 86
f 25 26 88
f 25 88 87
f 26 27 89
f 26 89 88
f 27 28 90
f 27 90 89
f 28 29 91
f 28 91 90
f 29 30 92
f 29 92 91
f 30 31 93
f 30 93 92
f 31 32 94
f 31 94 93
f 32 33 95
f 32 95 94
f 33 34 96
f 33 96 95
f 34 35 97
f 34 97 96
f 35 36 98
f 35 98 97
f 36 37 99
f 36 99 98
f 37 38 100
f 37 100 99
f 38 39 101
f 38 101 100
f 39 40 102
f 39 102 101
f 40 41 103
f 40 103 102
f 41 42 104
f 41 104 103
f 42 43 105
f 42 105 104
f 43 44 106
f 43 106 105
f 44 45 107
f 44 107 106
f 45 46 108
f 45 108 107
f 46 47 109
f 46 109 108
f 47 48 110
f 47 110 109
f 48 49 111
f 48 111 110
f 49 50 112
f 49 112 111
f 50 51 113
f 50 113 112
f 51 52 114
f 51 114 113
f 52 53 115
f 52 115 114
f 53 54 116
f 53 116 115
f 54 55 117
f 54 117 116
f 55 56 118
f 55 118 117
f 56 57 119
f 56 119 118
f 57 58 120
f 57 120 119
f 58 59 121
f 58 121 120
f 59 60 122
f 59 122 121
f 60 61 123
f 60 123 122
f 61 62 124
f 61 124 123
f 62 1 63
f 62 63 124
