v -0.553148 1.325000 0.186765
v -0.547707 1.325000 0.184461
v -0.549956 1.324203 0.185403
v -0.546759 1.323419 0.184069
v -0.543557 1.322647 0.182761
v -0.542236 1.325000 0.182230
v -0.540350 1.321887 0.181480
v -0.537139 1.321141 0.180226
v -0.536737 1.325000 0.180070
v -0.533924 1.320407 0.178999
v -0.531209 1.325000 0.177983
v -0.530705 1.319686 0.177798
v -0.527482 1.318978 0.176623
v -0.525655 1.325000 0.175968
v -0.524256 1.318283 0.175475
v -0.521026 1.317602 0.174354
v -0.520074 1.325000 0.174026
v -0.517794 1.316935 0.173258
v -0.514559 1.316281 0.172189
v -0.514469 1.325000 0.172158
v -0.511321 1.315640 0.171147
v -0.508840 1.325000 0.170364
v -0.508081 1.315014 0.170130
v -0.504839 1.314402 0.169139
v -0.503187 1.325000 0.168644
v -0.501595 1.313804 0.168175
v -0.498350 1.313220 0.167236
v -0.497512 1.325000 0.166998
v -0.495104 1.312651 0.166324
v -0.491856 1.312096 0.165437
v -0.491817 1.325000 0.165427
v -0.488607 1.311556 0.164576
v -0.486101 1.325000 0.163931
v -0.485358 1.311031 0.163741
v -0.482108 1.310521 0.162931
v -0.480366 1.325000 0.162509
v -0.478857 1.310025 0.162147
v -0.475605 1.309544 0.161388
v -0.474613 1.325000 0.161164
v -0.472353 1.309078 0.160654
v -0.469100 1.308627 0.159946
v -0.468842 1.325000 0.159894
v -0.465847 1.308191 0.159263
v -0.463056 1.325000 0.158699
v -0.462594 1.307770 0.158605
v -0.459340 1.307364 0.157972
v -0.457254 1.325000 0.157581
v -0.456086 1.306974 0.157363
v -0.452831 1.306598 0.156780
v -0.451438 1.325000 0.156540
v -0.449577 1.306237 0.156221
v -0.446322 1.305892 0.155686
v -0.445609 1.325000 0.155574
v -0.443068 1.305562 0.155177
v -0.439813 1.305247 0.154691
v -0.439768 1.325000 0.154685
v -0.436559 1.304948 0.154230
v -0.433915 1.325000 0.153873
v -0.433305 1.304664 0.153793
v -0.430051 1.304396 0.153381
v -0.428053 1.325000 0.153138
v -0.426798 1.304143 0.152992
v -0.423546 1.303905 0.152627
v -0.422181 1.325000 0.152480
v -0.420294 1.303683 0.152287
v -0.417044 1.303476 0.151970
v -0.416301 1.325000 0.151899
v -0.413795 1.303284 0.151677
v -0.410548 1.303108 0.151408
v -0.410414 1.325000 0.151396
v -0.407303 1.302947 0.151163
v -0.404521 1.325000 0.150969
v -0.404060 1.302802 0.150941
v -0.400819 1.302672 0.150743
v -0.398623 1.325000 0.150620
v -0.397580 1.302557 0.150568
v -0.394345 1.302457 0.150417
v -0.392721 1.325000 0.150349
v -0.391112 1.302373 0.150289
v -0.387882 1.302304 0.150185
v -0.386816 1.325000 0.150155
v -0.384656 1.302251 0.150104
v -0.381434 1.302213 0.150046
v -0.380908 1.325000 0.150039
v -0.378215 1.302190 0.150012
v -0.375000 1.302182 0.150000
v -0.375000 1.325000 0.150000
f 1 3 2
f 2 3 4
f 2 4 5
f 2 5 6
f 6 5 7
f 6 7 8
f 6 8 9
f 9 8 10
f 9 10 11
f 11 10 12
f 11 12 13
f 11 13 14
f 14 13 15
f 14 15 16
f 14 16 17
f 17 16 18
f 17 18 19
f 17 19 20
f 20 19 21
f 20 21 22
f 22 21 23
f 22 23 24
f 22 24 25
f 25 24 26
f 25 26 27
f 25 27 28
f 28 27 29
f 28 29 30
f 28 30 31
f 31 30 32
f 31 32 33
f 33 32 34
f 33 34 35
f 33 35 36
f 36 35 37
f 36 37 38
f 36 38 39
f 39 38 40
f 39 40 41
f 39 41 42
f 42 41 43
f 42 43 44
f 44 43 45
f 44 45 46
f 44 46 47
f 47 46 48
f 47 48 49
f 47 49 50
f 50 49 51
f 50 51 52
f 50 52 53
f 53 52 54
f 53 54 55
f 53 55 56
f 56 55 57
f 56 57 58
f 58 57 59
f 58 59 60
f 58 60 61
f 61 60 62
f 61 62 63
f 61 63 64
f 64 63 65
f 64 65 66
f 64 66 67
f 67 66 68
f 67 68 69
f 67 69 70
f 70 69 71
f 70 71 72
f 72 71 73
f 72 73 74
f 72 74 75
f 75 74 76
f 75 76 77
f 75 77 78
f 78 77 79
f 78 79 80
f 78 80 81
f 81 80 82
f 81 82 83
f 81 83 84
f 84 83 85
f 84 85 86
f 84 86 87
