v 0.541883 -0.402477 -0.036213
v 0.538511 -0.399648 -0.025607
v 0.538629 -0.399747 -0.025762
v 0.538744 -0.399844 -0.025919
v 0.538858 -0.399939 -0.026077
v 0.538969 -0.400032 -0.026237
v 0.539078 -0.400124 -0.026399
v 0.539185 -0.400214 -0.026562
v 0.539290 -0.400302 -0.026727
v 0.539393 -0.400388 -0.026893
v 0.539494 -0.400473 -0.027061
v 0.539593 -0.400556 -0.027231
v 0.539690 -0.400637 -0.027402
v 0.539785 -0.400717 -0.027575
v 0.539878 -0.400795 -0.027750
v 0.539969 -0.400871 -0.027927
v 0.540058 -0.400946 -0.028105
v 0.540145 -0.401019 -0.028285
v 0.540230 -0.401090 -0.028467
v 0.540313 -0.401160 -0.028650
v 0.540394 -0.401228 -0.028836
v 0.540473 -0.401295 -0.029023
v 0.540551 -0.401360 -0.029212
v 0.540626 -0.401423 -0.029403
v 0.540700 -0.401485 -0.029595
v 0.540771 -0.401545 -0.029788
v 0.540841 -0.401603 -0.029983
v 0.540908 -0.401659 -0.030180
v 0.540973 -0.401714 -0.030377
v 0.541036 -0.401767 -0.030576
v 0.541097 -0.401818 -0.030776
v 0.541156 -0.401868 -0.030977
v 0.541213 -0.401915 -0.031178
v 0.541267 -0.401961 -0.031381
v 0.541320 -0.402005 -0.031585
v 0.541370 -0.402047 -0.031789
v 0.541417 -0.402087 -0.031994
v 0.541463 -0.402125 -0.032199
v 0.541506 -0.402161 -0.032405
v 0.541547 -0.402195 -0.032611
v 0.541585 -0.402227 -0.032818
v 0.541621 -0.402258 -0.033026
v 0.541655 -0.402286 -0.033233
v 0.541686 -0.402312 -0.033442
v 0.541715 -0.402337 -0.033651
v 0.541742 -0.402359 -0.033860
v 0.541767 -0.402380 -0.034071
v 0.541789 -0.402398 -0.034282
v 0.541808 -0.402415 -0.034493
v 0.541826 -0.402430 -0.034705
v 0.541841 -0.402442 -0.034918
v 0.541854 -0.402453 -0.035132
v 0.541864 -0.402462 -0.035347
v 0.541872 -0.402469 -0.035562
v 0.541878 -0.402473 -0.035778
v 0.541882 -0.402476 -0.035995
v 0.544860 -0.398438 -0.036213
v 0.547807 -0.394376 -0.036213
v 0.550724 -0.390292 -0.036213
v 0.553611 -0.386187 -0.036213
v 0.556467 -0.382060 -0.036213
v 0.559292 -0.377912 -0.036213
v 0.562086 -0.373744 -0.036213
v 0.564849 -0.369554 -0.036213
v 0.567581 -0.365345 -0.036213
v 0.570282 -0.361115 -0.036213
v 0.572951 -0.356865 -0.036213
v 0.575588 -0.352595 -0.036213
v 0.578193 -0.348306 -0.036213
v 0.580767 -0.343998 -0.036213
v 0.583308 -0.339671 -0.036213
v 0.585818 -0.335325 -0.036213
v 0.588295 -0.330960 -0.036213
v 0.590739 -0.326577 -0.036213
v 0.593151 -0.322176 -0.036213
v 0.595529 -0.317757 -0.036213
v 0.597875 -0.313321 -0.036213
v 0.600188 -0.308867 -0.036213
v 0.602468 -0.304396 -0.036213
v 0.604715 -0.299909 -0.036213
v 0.606928 -0.295405 -0.036213
v 0.609107 -0.290884 -0.036213
v 0.611253 -0.286348 -0.036213
v 0.613365 -0.281795 -0.036213
v 0.615443 -0.277227 -0.036213
v 0.617487 -0.272644 -0.036213
v 0.619497 -0.268046 -0.036213
v 0.619496 -0.268045 -0.035995
v 0.619491 -0.268044 -0.035778
v 0.619484 -0.268041 -0.035562
v 0.619474 -0.268037 -0.035347
v 0.619461 -0.268033 -0.035132
v 0.619446 -0.268027 -0.034918
v 0.619427 -0.268020 -0.034705
v 0.619406 -0.268012 -0.034493
v 0.619382 -0.268004 -0.034282
v 0.619354 -0.267994 -0.034071
v 0.619324 -0.267983 -0.033860
v 0.619292 -0.267971 -0.033651
v 0.619256 -0.267958 -0.033442
v 0.619217 -0.267944 -0.033233
v 0.619176 -0.267929 -0.033026
v 0.619132 -0.267913 -0.032818
v 0.619085 -0.267895 -0.032611
v 0.619035 -0.267877 -0.032405
v 0.618982 -0.267858 -0.032199
v 0.618926 -0.267838 -0.031994
v 0.618867 -0.267816 -0.031789
v 0.618806 -0.267794 -0.031585
v 0.618742 -0.267771 -0.031381
v 0.618675 -0.267746 -0.031178
v 0.618606 -0.267721 -0.030977
v 0.618533 -0.267695 -0.030776
v 0.618459 -0.267668 -0.030576
v 0.618381 -0.267639 -0.030377
v 0.618301 -0.267610 -0.030180
v 0.618218 -0.267580 -0.029983
v 0.618133 -0.267549 -0.029788
v 0.618046 -0.267517 -0.029595
v 0.617956 -0.267485 -0.029403
v 0.617863 -0.267451 -0.029212
v 0.617768 -0.267416 -0.029023
v 0.617671 -0.267381 -0.028836
v 0.617571 -0.267345 -0.028650
v 0.617469 -0.267307 -0.028467
v 0.617365 -0.267269 -0.028285
v 0.617258 -0.267231 -0.028105
v 0.617149 -0.267191 -0.027927
v 0.617037 -0.267150 -0.027750
v 0.616923 -0.267109 -0.027575
v 0.616807 -0.267066 -0.027402
v 0.616688 -0.267023 -0.027231
v 0.616567 -0.266979 -0.027061
v 0.616443 -0.266934 -0.026893
v 0.616317 -0.266888 -0.026727
v 0.616188 -0.266841 -0.026562
v 0.616057 -0.266793 -0.026399
v 0.615923 -0.266745 -0.026237
v 0.615786 -0.266695 -0.026077
v 0.615647 -0.266644 -0.025919
v 0.615506 -0.266593 -0.025762
v 0.615361 -0.266540 -0.025607
f 1 2 3
f 1 3 4
f 1 4 5
f 1 5 6
f 1 6 7
f 1 7 8
f 1 8 9
f 1 9 10
f 1 10 11
f 1 11 12
f 1 12 13
f 1 13 14
f 1 14 15
f 1 15 16
f 1 16 17
f 1 17 18
f 1 18 19
f 1 19 20
f 1 20 21
f 1 21 22
f 1 22 23
f 1 23 24
f 1 24 25
f 1 25 26
f 1 26 27
f 1 27 28
f 1 28 29
f 1 29 30
f 1 30 31
f 1 31 32
f 1 32 33
f 1 33 34
f 1 34 35
f 1 35 36
f 1 36 37
f 1 37 38
f 1 38 39
f 1 39 40
f 1 40 41
f 1 41 42
f 1 42 43
f 1 43 44
f 1 44 45
f 1 45 46
f 1 46 47
f 1 47 48
f 1 48 49
f 1 49 50
f 1 50 51
f 1 51 52
f 1 52 53
f 1 53 54
f 1 54 55
f 1 55 56
f 1 57 58
f 1 58 59
f 1 59 60
f 1 60 61
f 1 61 62
f 1 62 63
f 1 63 64
f 1 64 65
f 1 65 66
f 1 66 67
f 1 67 68
f 1 68 69
f 1 69 70
f 1 70 71
f 1 71 72
f 1 72 73
f 1 73 74
f 1 74 75
f 1 75 76
f 1 76 77
f 1 77 78
f 1 78 79
f 1 79 80
f 1 80 81
f 1 81 82
f 1 82 83
f 1 83 84
f 1 84 85
f 1 85 86
f 1 86 87
f 1 87 88
f 1 88 89
f 1 89 90
f 1 90 91
f 1 91 92
f 1 92 93
f 1 93 94
f 1 94 95
f 1 95 96
f 1 96 97
f 1 97 98
f 1 98 99
f 1 99 100
f 1 100 101
f 1 101 102
f 1 102 103
f 1 103 104
f 1 104 105
f 1 105 106
f 1 106 107
f 1 107 108
f 1 108 109
f 1 109 110
f 1 110 111
f 1 111 112
f 1 112 113
f 1 113 114
f 1 114 115
f 1 115 116
f 1 116 117
f 1 117 118
f 1 118 119
f 1 119 120
f 1 120 121
f 1 121 122
f 1 122 123
f 1 123 124
f 1 124 125
f 1 125 126
f 1 126 127
f 1 127 128
f 1 128 129
f 1 129 130
f 1 130 131
f 1 131 132
f 1 132 133
f 1 133 134
f 1 134 135
f 1 135 136
f 1 136 137
f 1 137 138
f 1 138 139
f 1 139 140
f 1 140 141
f 1 141 142
f 1 142 57
f 57 142 58
f 58 142 59
f 59 142 60
f 60 142 61
f 61 142 62
f 62 142 63
f 63 142 64
f 64 142 65
f 65 142 66
f 66 142 67
f 67 142 68
f 68 142 69
f 69 142 70
f 70 142 71
f 71 142 72
f 72 142 73
f 73 142 74
f 74 142 75
f 75 142 76
f 76 142 77
f 77 142 78
f 78 142 79
f 79 142 80
f 80 142 81
f 81 142 82
f 82 142 83
f 83 142 84
f 84 142 85
f 85 142 86
f 86 142 87
