v -0.649393 0.203253 -0.004393
v -0.646062 0.203253 -0.004393
v -0.636100 0.203253 -0.004393
v -0.619612 0.203253 -0.004393
v -0.596765 0.203253 -0.004393
v -0.567795 0.203253 -0.004393
v -0.532998 0.203253 -0.004393
v -0.492733 0.203253 -0.004393
v -0.447411 0.203253 -0.004393
v -0.397498 0.203253 -0.004393
v -0.343506 0.203253 -0.004393
v -0.285989 0.203253 -0.004393
v -0.225538 0.203253 -0.004393
v -0.162772 0.203253 -0.004393
v -0.098336 0.203253 -0.004393
v -0.032891 0.203253 -0.004393
v 0.032891 0.203253 -0.004393
v 0.098336 0.203253 -0.004393
v 0.162772 0.203253 -0.004393
v 0.225538 0.203253 -0.004393
v 0.285989 0.203253 -0.004393
v 0.343506 0.203253 -0.004393
v 0.397498 0.203253 -0.004393
v 0.447411 0.203253 -0.004393
v 0.492733 0.203253 -0.004393
v 0.532998 0.203253 -0.004393
v 0.567795 0.203253 -0.004393
v 0.596765 0.203253 -0.004393
v 0.619612 0.203253 -0.004393
v 0.636100 0.203253 -0.004393
v 0.646062 0.203253 -0.004393
v 0.649393 0.203253 -0.004393
v 0.649121 0.203253 -0.004128
v 0.648843 0.203253 -0.003870
v 0.648557 0.203253 -0.003619
v 0.648266 0.203253 -0.003375
v 0.647968 0.203253 -0.003138
v 0.647665 0.203253 -0.002910
v 0.647356 0.203253 -0.002689
v 0.647041 0.203253 -0.002475
v 0.646721 0.203253 -0.002270
v 0.646396 0.203253 -0.002073
v 0.646066 0.203253 -0.001885
v 0.645732 0.203253 -0.001705
v 0.645393 0.203253 -0.001533
v 0.645049 0.203253 -0.001370
v 0.644702 0.203253 -0.001216
v 0.644351 0.203253 -0.001070
v 0.643996 0.203253 -0.000934
v 0.643638 0.203253 -0.000806
v 0.643277 0.203253 -0.000688
v 0.642913 0.203253 -0.000579
v 0.642547 0.203253 -0.000479
v 0.642178 0.203253 -0.000388
v 0.641806 0.203253 -0.000307
v 0.641433 0.203253 -0.000235
v 0.641058 0.203253 -0.000173
v 0.640682 0.203253 -0.000120
v 0.640304 0.203253 -0.000077
v 0.639926 0.203253 -0.000043
v 0.639547 0.203253 -0.000019
v 0.639167 0.203253 -0.000005
v 0.638787 0.203253 0.000000
v 0.649393 0.203253 -0.004393
v 0.646062 0.203253 -0.004393
v 0.636100 0.203253 -0.004393
v 0.619612 0.203253 -0.004393
v 0.596765 0.203253 -0.004393
v 0.567795 0.203253 -0.004393
v 0.532998 0.203253 -0.004393
v 0.492733 0.203253 -0.004393
v 0.447411 0.203253 -0.004393
v 0.397498 0.203253 -0.004393
v 0.343506 0.203253 -0.004393
v 0.285989 0.203253 -0.004393
v 0.225538 0.203253 -0.004393
v 0.162772 0.203253 -0.004393
v 0.098336 0.203253 -0.004393
v 0.032891 0.203253 -0.004393
v -0.032891 0.203253 -0.004393
v -0.098336 0.203253 -0.004393
v -0.162772 0.203253 -0.004393
v -0.225538 0.203253 -0.004393
v -0.285989 0.203253 -0.004393
v -0.343506 0.203253 -0.004393
v -0.397498 0.203253 -0.004393
v -0.447411 0.203253 -0.004393
v -0.492733 0.203253 -0.004393
v -0.532998 0.203253 -0.004393
v -0.567795 0.203253 -0.004393
v -0.596765 0.203253 -0.004393
v -0.619612 0.203253 -0.004393
v -0.636100 0.203253 -0.004393
v -0.646062 0.203253 -0.004393
v -0.649393 0.203253 -0.004393
v -0.638787 0.203253 0.000000
v -0.639167 0.203253 -0.000005
v -0.639547 0.203253 -0.000019
v -0.639926 0.203253 -0.000043
v -0.640304 0.203253 -0.000077
v -0.640682 0.203253 -0.000120
v -0.641058 0.203253 -0.000173
v -0.641433 0.203253 -0.000235
v -0.641806 0.203253 -0.000307
v -0.642178 0.203253 -0.000388
v -0.642547 0.203253 -0.000479
v -0.642913 0.203253 -0.000579
v -0.643277 0.203253 -0.000688
v -0.643638 0.203253 -0.000806
v -0.643996 0.203253 -0.000934
v -0.644351 0.203253 -0.001070
v -0.644702 0.203253 -0.001216
v -0.645049 0.203253 -0.001370
v -0.645393 0.203253 -0.001533
v -0.645732 0.203253 -0.001705
v -0.646066 0.203253 -0.001885
v -0.646396 0.203253 -0.002073
v -0.646721 0.203253 -0.002270
v -0.647041 0.203253 -0.002475
v -0.647356 0.203253 -0.002689
v -0.647665 0.203253 -0.002910
v -0.647968 0.203253 -0.003138
v -0.648266 0.203253 -0.003375
v -0.648557 0.203253 -0.003619
v -0.648843 0.203253 -0.003870
v -0.649121 0.203253 -0.004128
f 33 35 34
f 35 37 36
f 37 39 38
f 39 41 40
f 41 43 42
f 43 45 44
f 45 47 46
f 47 49 48
f 49 51 50
f 51 53 52
f 53 55 54
f 55 57 56
f 57 59 58
f 59 61 60
f 61 63 62
f 95 97 96
f 97 99 98
f 99 101 100
f 101 103 102
f 103 105 104
f 105 107 106
f 107 109 108
f 109 111 110
f 111 113 112
f 113 115 114
f 115 117 116
f 117 119 118
f 119 121 120
f 121 123 122
f 123 125 124
f 33 37 35
f 37 41 39
f 41 45 43
f 45 49 47
f 49 53 51
f 53 57 55
f 57 61 59
f 61 64 63
f 95 99 97
f 99 103 101
f 103 107 105
f 107 111 109
f 111 115 113
f 115 119 117
f 119 123 121
f 123 126 125
f 33 41 37
f 41 49 45
f 49 57 53
f 57 64 61
f 95 103 99
f 103 111 107
f 111 119 115
f 119 126 123
f 33 49 41
f 49 64 57
f 95 111 103
f 111 126 119
f 33 64 49
f 95 126 111
