v 0.540797 0.016837 -0.406998
v 0.539966 0.015317 -0.405574
v 0.539390 0.013952 -0.404066
v 0.539040 0.012601 -0.402279
v 0.539021 0.011506 -0.400470
v 0.539383 0.010614 -0.398483
v 0.540221 0.010085 -0.396453
v 0.540797 0.115000 -0.406998
v 0.539966 0.115000 -0.405574
v 0.539390 0.115000 -0.404066
v 0.539040 0.115000 -0.402279
v 0.539020 0.115000 -0.400470
v 0.539383 0.115000 -0.398483
v 0.540221 0.115000 -0.396454
v 0.540797 0.220000 -0.406998
v 0.539966 0.220000 -0.405574
v 0.539390 0.220000 -0.404066
v 0.539040 0.220000 -0.402279
v 0.539020 0.220000 -0.400470
v 0.539383 0.220000 -0.398483
v 0.540221 0.220000 -0.396454
f 1 9 2
f 1 8 9
f 2 10 3
f 2 9 10
f 3 11 4
f 3 10 11
f 4 12 5
f 4 11 12
f 5 13 6
f 5 12 13
f 6 14 7
f 6 13 14
f 8 16 9
f 8 15 16
f 9 17 10
f 9 16 17
f 10 18 11
f 10 17 18
f 11 19 12
f 11 18 19
f 12 20 13
f 12 19 20
f 13 21 14
f 13 20 21
