v 0.960000 -1.081111 -5.664516
v 2.047614 -1.063435 -5.728443
v 2.047927 -1.063756 -5.727402
v 2.048240 -1.064076 -5.726361
v 2.048553 -1.064395 -5.725320
v 2.048864 -1.064712 -5.724279
v 2.049176 -1.065029 -5.723237
v 2.049486 -1.065344 -5.722196
v 2.049796 -1.065659 -5.721154
v 2.050105 -1.065972 -5.720113
v 2.050414 -1.066285 -5.719071
v 2.050722 -1.066596 -5.718029
v 2.051030 -1.066906 -5.716987
v 1.375000 -1.113000 -5.400000
v 2.051336 -1.067215 -5.715945
v 2.051643 -1.067523 -5.714903
v 2.051948 -1.067830 -5.713861
v 2.052253 -1.068136 -5.712818
v 2.052558 -1.068440 -5.711776
v 2.052861 -1.068744 -5.710733
v 2.053164 -1.069047 -5.709690
v 2.053467 -1.069348 -5.708648
v 2.053769 -1.069649 -5.707605
v 2.054070 -1.069948 -5.706562
v 2.054371 -1.070246 -5.705519
v 2.054671 -1.070543 -5.704476
v 2.054971 -1.070840 -5.703433
v 2.055270 -1.071135 -5.702389
v 2.055568 -1.071429 -5.701346
v 2.055866 -1.071722 -5.700303
v 2.056163 -1.072013 -5.699259
v 2.056460 -1.072304 -5.698216
v 2.056756 -1.072594 -5.697172
v 2.057051 -1.072883 -5.696128
v 2.057346 -1.073170 -5.695085
v 2.057640 -1.073457 -5.694041
v 2.057934 -1.073742 -5.692997
v 2.058227 -1.074026 -5.691953
v 2.058520 -1.074310 -5.690909
v 2.058812 -1.074592 -5.689865
v 2.059103 -1.074873 -5.688821
v 2.059393 -1.075153 -5.687777
v 2.059684 -1.075432 -5.686732
v 2.059973 -1.075710 -5.685688
v 2.060262 -1.075987 -5.684644
v 2.060550 -1.076262 -5.683599
v 2.060838 -1.076537 -5.682554
v 2.061125 -1.076811 -5.681510
v 2.061411 -1.077083 -5.680465
v 2.061697 -1.077355 -5.679420
v 2.061982 -1.077625 -5.678376
v 2.055442 -1.078796 -5.673804
v 2.062266 -1.077895 -5.677331
v 2.034924 -1.081433 -5.663198
v 2.028069 -1.082289 -5.659655
v 2.021207 -1.083134 -5.656108
v 2.014336 -1.083967 -5.652557
v 2.007458 -1.084790 -5.649002
v 2.000571 -1.085601 -5.645442
v 1.993676 -1.086400 -5.641879
v 1.986773 -1.087189 -5.638311
v 1.979862 -1.087965 -5.634738
v 1.972942 -1.088731 -5.631162
v 1.966014 -1.089485 -5.627581
v 1.959077 -1.090228 -5.623995
v 1.952132 -1.090959 -5.620405
v 1.945178 -1.091679 -5.616811
v 1.938214 -1.092387 -5.613212
v 1.931242 -1.093084 -5.609608
v 1.924262 -1.093770 -5.606000
v 1.917273 -1.094444 -5.602388
v 1.910275 -1.095106 -5.598771
v 1.903270 -1.095757 -5.595150
v 1.896258 -1.096396 -5.591526
v 1.889238 -1.097023 -5.587897
v 1.882211 -1.097639 -5.584265
v 1.875178 -1.098243 -5.580630
v 1.868139 -1.098835 -5.576992
v 1.861093 -1.099416 -5.573350
v 1.854042 -1.099984 -5.569705
v 2.048610 -1.079686 -5.670272
v 1.846986 -1.100541 -5.566058
v 1.839924 -1.101086 -5.562408
v 1.832858 -1.101619 -5.558756
v 1.825787 -1.102139 -5.555101
v 1.658878 -1.110854 -5.469097
v 1.818712 -1.102648 -5.551444
v 1.811633 -1.103145 -5.547786
v 1.804551 -1.103629 -5.544125
v 1.797466 -1.104101 -5.540463
v 1.790377 -1.104562 -5.536799
v 1.783284 -1.105010 -5.533133
v 1.776188 -1.105445 -5.529465
v 1.769088 -1.105869 -5.525795
v 1.761985 -1.106281 -5.522124
v 1.754878 -1.106680 -5.518450
v 1.747766 -1.107067 -5.514774
v 1.740651 -1.107442 -5.511097
v 1.612645 -1.111950 -5.448431
v 1.733532 -1.107805 -5.507417
v 1.726409 -1.108156 -5.503735
v 1.719281 -1.108494 -5.500051
v 1.712149 -1.108821 -5.496365
v 1.705013 -1.109135 -5.492676
v 1.697872 -1.109437 -5.488985
v 1.690727 -1.109727 -5.485292
v 1.683577 -1.110005 -5.481596
v 1.676422 -1.110271 -5.477898
v 1.670563 -1.110477 -5.474900
v 1.664714 -1.110672 -5.471966
v 1.437370 -1.112996 -5.403343
v 1.653053 -1.111026 -5.466291
v 1.647240 -1.111187 -5.463550
v 1.641441 -1.111337 -5.460873
v 1.635654 -1.111478 -5.458259
v 1.629880 -1.111609 -5.455708
v 1.624121 -1.111731 -5.453220
v 1.618376 -1.111844 -5.450795
v 1.606929 -1.112047 -5.446130
v 1.601229 -1.112137 -5.443890
v 1.595544 -1.112220 -5.441711
v 1.589876 -1.112297 -5.439594
v 1.584224 -1.112368 -5.437537
v 1.578588 -1.112433 -5.435540
v 1.572971 -1.112493 -5.433604
v 1.567370 -1.112548 -5.431727
v 1.561788 -1.112598 -5.429910
v 1.556222 -1.112645 -5.428152
v 1.550673 -1.112687 -5.426452
v 1.545141 -1.112725 -5.424810
v 1.539624 -1.112760 -5.423225
v 1.534124 -1.112791 -5.421697
v 1.528638 -1.112819 -5.420225
v 1.523168 -1.112844 -5.418809
v 1.517712 -1.112867 -5.417449
v 1.512269 -1.112886 -5.416143
v 1.506841 -1.112903 -5.414892
v 1.501426 -1.112918 -5.413694
v 1.496024 -1.112932 -5.412549
v 1.490635 -1.112943 -5.411458
v 1.485258 -1.112952 -5.410419
v 1.479892 -1.112961 -5.409431
v 1.474538 -1.112968 -5.408495
v 1.469195 -1.112974 -5.407609
v 1.463863 -1.112979 -5.406774
v 1.458542 -1.112984 -5.405989
v 1.453232 -1.112988 -5.405253
v 1.447934 -1.112991 -5.404567
v 1.442646 -1.112994 -5.403931
v 1.432106 -1.112998 -5.402803
v 1.426853 -1.112999 -5.402313
v 1.421613 -1.113000 -5.401870
v 1.416384 -1.113000 -5.401475
v 1.411167 -1.113001 -5.401127
v 1.405963 -1.113001 -5.400827
v 1.400771 -1.113001 -5.400573
v 1.395591 -1.113001 -5.400366
v 1.390424 -1.113000 -5.400206
v 1.385270 -1.113000 -5.400092
v 1.380128 -1.113000 -5.400023
v 1.375000 -0.044816 -4.287903
v 1.375000 0.000000 -4.287000
v 0.825423 0.000000 -4.287000
v 1.375000 -0.963886 -4.843500
v 1.191602 -1.005848 -4.923514
v 1.256942 -0.996317 -4.903893
v 1.375000 -0.915981 -4.767744
v 1.050000 -0.925938 -4.782418
v 1.185000 -1.001197 -4.913818
v 0.983100 -0.900122 -4.745363
v 0.769602 -0.224987 -4.309978
v 0.760100 -0.242964 -4.313843
v 0.981452 -0.899576 -4.744612
v 0.699833 -0.333010 -4.337987
v 0.960000 -0.892854 -4.735484
v 0.713623 -0.315045 -4.332521
v 0.600000 -0.866608 -4.701603
v 0.488878 -0.521917 -4.416958
v 0.464119 -0.537850 -4.425584
v 0.261949 -0.640619 -4.489856
v 0.285000 -0.866608 -4.701603
v 0.375000 -0.866608 -4.701603
v -0.497064 -0.752902 -4.580302
v 0.285000 -1.112993 -5.403945
v 0.285000 -1.112759 -5.376842
v -0.513902 -0.752285 -4.579734
v -0.508296 -0.752486 -4.579919
v -0.530665 -0.751717 -4.579214
v -0.519500 -0.752089 -4.579554
v 0.285000 -1.111481 -5.458127
v -0.525088 -0.751899 -4.579381
v -0.536230 -0.751543 -4.579054
v -0.541782 -0.751377 -4.578902
v -0.547324 -0.751219 -4.578757
v -0.552854 -0.751068 -4.578620
v -0.558375 -0.750926 -4.578489
v -0.563885 -0.750791 -4.578366
v -0.569387 -0.750665 -4.578251
v -0.574880 -0.750546 -4.578142
v 0.285000 -1.109736 -5.485175
v -0.580365 -0.750435 -4.578041
v -0.585842 -0.750332 -4.577947
v -0.591312 -0.750237 -4.577860
v -0.596775 -0.750149 -4.577780
v -0.602232 -0.750069 -4.577707
v -0.607684 -0.749997 -4.577642
v -0.613131 -0.749933 -4.577583
v -0.618573 -0.749876 -4.577531
v -0.624011 -0.749827 -4.577487
v -0.629446 -0.749786 -4.577449
v -1.171011 -0.590764 -4.456726
v -2.540000 -0.590764 -4.456726
v -2.367014 -0.749823 -4.577483
v -2.962817 -0.577585 -4.448598
v -2.792202 -0.513975 -4.412785
v -2.800375 -0.507939 -4.409667
v -2.587500 -0.300000 -6.471806
v -2.736743 -0.300000 -6.471806
v -2.738741 -0.294691 -6.473278
v -2.861409 -0.295085 -6.473170
v -2.863257 -0.300000 -6.471806
v -3.012500 -0.300000 -6.471806
v -2.625969 -0.582895 -4.451843
v -2.806752 -0.798247 -6.175611
v -2.793539 -0.798254 -6.175604
v -2.915000 0.000000 -4.287000
v -3.575000 0.000000 -4.287000
v -3.373669 -0.204513 -4.305951
v -2.915000 -0.250797 -4.315625
v -2.962500 -0.300000 -4.328194
v -2.915000 -0.258260 -4.317378
v -3.387500 -0.300000 -4.328194
v -3.575000 -0.089559 -4.290609
v -2.793215 -0.211235 -6.492771
v -2.543183 0.000000 -6.513000
v -2.542412 -0.025645 -6.512704
v -2.432232 -1.044863 -5.783448
v -2.435959 -1.035728 -5.807484
v -2.428572 -1.053451 -5.759179
v -2.425000 -1.061487 -5.734686
v 2.046037 -1.061814 -5.733645
v 2.046354 -1.062141 -5.732605
v 0.963415 -1.081446 -5.663141
v 2.045720 -1.061487 -5.734686
v 2.046985 -1.062790 -5.730524
v 2.047300 -1.063113 -5.729483
v 2.041771 -1.080565 -5.666737
v 1.375000 -0.089559 -4.290609
v 1.203981 -1.014907 -4.943128
v 1.375000 -0.985513 -4.882763
v 1.197927 -1.010418 -4.933284
v 1.050000 -0.938180 -4.801178
v 0.984748 -0.900673 -4.746121
v 0.979804 -0.899033 -4.743868
v 0.726535 -0.297037 -4.327371
v 0.825000 -0.866608 -4.701603
v 0.854280 -0.749823 -4.577483
v 0.512662 -0.505730 -4.408534
v 0.438364 -0.553511 -4.434395
v 0.293973 -0.627073 -4.480472
v 0.228924 -0.653663 -4.499173
v 0.285000 -1.112567 -5.431045
v -1.161005 -0.597167 -4.460767
v -2.783789 -0.519826 -4.415851
v -2.740753 -0.289509 -6.474688
v -2.859552 -0.290283 -6.474479
v -2.769676 -0.749823 -4.577483
v -2.915000 -0.007666 -4.287026
v -3.575000 -0.178538 -4.301413
v -2.808668 -0.211907 -6.492641
v -3.575000 0.000000 -6.513000
v -2.439732 -1.026049 -5.831280
v 2.046670 -1.062466 -5.731565
v 1.375000 -0.134157 -4.295115
v 1.209768 -1.019312 -4.953043
v 1.375000 -1.005540 -4.922865
v 1.050000 -0.950042 -4.820182
v 0.986396 -0.901228 -4.746886
v 0.978155 -0.898495 -4.743132
v 0.825000 -0.883357 -4.722912
v 0.685158 -0.350910 -4.343765
v 0.535487 -0.489303 -4.400325
v 0.510000 -0.866608 -4.701603
v 0.324969 -0.613079 -4.471080
v 0.250288 -0.749823 -4.577483
v -0.502683 -0.752692 -4.580109
v -1.151000 -0.603413 -4.464767
v -2.775147 -0.525480 -4.418857
v -2.742776 -0.284456 -6.476036
v -2.857686 -0.285594 -6.475735
v -2.819890 -0.797427 -6.176454
v -2.915000 -0.015331 -4.287106
v -3.575000 -0.266358 -4.319342
v -2.811448 -0.213271 -6.492376
v -2.443529 -1.015831 -5.854827
v 1.375000 -0.178538 -4.301413
v 1.220552 -1.027864 -4.973077
v 1.215290 -1.023632 -4.963027
v 1.050000 -0.961519 -4.839420
v 0.988044 -0.901787 -4.747659
v 0.976506 -0.897961 -4.742402
v 0.854280 -0.888193 -4.729268
v 0.669590 -0.368724 -4.349853
v 0.652949 -0.749823 -4.577483
v 0.411592 -0.568884 -4.443370
v 0.354912 -0.598689 -4.461735
v 0.194925 -0.666154 -4.508368
v 0.160008 -0.678036 -4.517376
v -0.491442 -0.753115 -4.580497
v -1.140998 -0.609506 -4.468724
v -2.766285 -0.530929 -4.421795
v -2.744810 -0.279533 -6.477325
v -2.855811 -0.281019 -6.476939
v -2.832842 -0.795839 -6.178082
v -2.915000 -0.022996 -4.287238
v -3.387500 -0.306927 -4.330157
v -2.814102 -0.214923 -6.492052
v -2.447329 -1.005079 -5.878117
v 1.375000 -0.222629 -4.309493
v 1.225557 -1.032008 -4.983192
v 1.375000 -1.023937 -4.963741
v 1.050000 -0.972607 -4.858885
v 0.989691 -0.902351 -4.748439
v 0.974857 -0.897432 -4.741679
v 0.825000 -0.899583 -4.744622
v 0.960000 -0.907616 -4.755793
v 0.653127 -0.386432 -4.356240
v 0.735000 -0.866608 -4.701603
v 0.557370 -0.472648 -4.392344
v 0.383781 -0.583949 -4.452490
v 0.124349 -0.689244 -4.526107
v -0.485818 -0.753330 -4.580695
v 0.285000 -1.107333 -5.512172
v -0.639174 -0.749722 -4.577390
v -1.130999 -0.615445 -4.472636
v -2.757215 -0.536168 -4.424656
v -2.746855 -0.274741 -6.478558
v -2.853928 -0.276558 -6.478093
v -2.845493 -0.793525 -6.180440
v -2.915000 -0.030659 -4.287422
v -3.575000 -0.352451 -4.344279
v -3.172338 -0.204513 -6.494049
v -2.451110 -0.993798 -5.901141
v 1.375000 -0.266358 -4.319342
v 1.256942 -0.204513 -4.305951
v 1.234815 -1.040020 -5.003606
v 1.230311 -1.036060 -4.993369
v 1.050000 -0.983300 -4.878570
v 0.991339 -0.902918 -4.749226
v 0.973207 -0.896906 -4.740964
v 0.825000 -0.915275 -4.766722
v 0.635770 -0.404012 -4.362919
v 0.735000 -0.883357 -4.722912
v 0.510000 -0.883357 -4.722912
v 0.088152 -0.699710 -4.534467
v -0.480193 -0.753547 -4.580894
v -1.121004 -0.621232 -4.476500
v -2.747949 -0.541191 -4.427435
v -2.748914 -0.270077 -6.479735
v -2.852037 -0.272212 -6.479199
v -2.857738 -0.790530 -6.183475
v -2.915000 -0.038321 -4.287660
v -3.387500 -0.313840 -4.332164
v -3.575000 -0.266358 -6.480658
v -3.575000 -0.178538 -6.498587
v 1.375000 -0.309656 -4.330943
v 1.239075 -1.043885 -5.013902
v 1.375000 -1.040673 -5.005325
v 1.050000 -0.993596 -4.898466
v 0.992986 -0.903490 -4.750020
v 0.971558 -0.896385 -4.740255
v 0.960000 -0.921916 -4.776429
v 0.617518 -0.421443 -4.369878
v 0.600000 -0.883357 -4.722912
v 0.375000 -0.883357 -4.722912
v 0.510000 -0.899583 -4.744622
v 0.451619 -0.888193 -4.729268
v 0.051622 -0.709367 -4.542359
v -0.474569 -0.753763 -4.581093
v -1.111013 -0.626869 -4.480314
v -2.738498 -0.545991 -4.430122
v -2.750988 -0.265542 -6.480859
v -2.850136 -0.267980 -6.480257
v -2.869555 -0.786861 -6.187162
v -2.915000 -0.045981 -4.287950
v -3.387500 -0.320741 -4.334217
v -3.012500 -0.305645 -6.470210
v -3.012500 -0.311282 -6.468584
v 1.238465 -1.112926 -5.387588
v 1.659604 -1.108252 -5.502695
v 1.375000 -0.352451 -4.344279
v 1.246866 -1.051325 -5.034653
v 1.243092 -1.047654 -5.024252
v 1.050000 -1.003489 -4.918565
v 0.994633 -0.904067 -4.750822
v 0.969907 -0.895868 -4.739553
v 0.825000 -0.930424 -4.789196
v 0.598371 -0.438705 -4.377109
v 0.652949 -0.888193 -4.729268
v 0.510000 -0.915275 -4.766722
v 0.375000 -0.899583 -4.744622
v 0.375000 -0.915275 -4.766722
v 0.014965 -0.718147 -4.549686
v -1.101026 -0.632356 -4.484077
v -2.728874 -0.550565 -4.432711
v -2.753078 -0.261135 -6.481932
v -2.848224 -0.263861 -6.481271
v -2.880998 -0.782496 -6.191501
v -2.915000 -0.053639 -4.288293
v -3.387500 -0.327628 -4.336314
v -3.575000 -0.352451 -6.455721
v 1.375000 -0.394675 -4.359327
v 1.250398 -1.054898 -5.045101
v 1.375000 -1.055721 -5.047549
v 1.185000 -1.007707 -4.927458
v 0.996279 -0.904647 -4.751631
v 0.968257 -0.895355 -4.738858
v 0.960000 -0.935747 -4.797383
v 0.652949 -0.585919 -4.453708
v 0.735000 -0.899583 -4.744622
v 0.600000 -0.899583 -4.744622
v 0.510000 -0.930424 -4.789196
v 0.285000 -0.883357 -4.722912
v 0.285000 -1.104273 -5.539102
v -0.648906 -0.749572 -4.577252
v -1.091045 -0.637696 -4.487786
v -2.719090 -0.554905 -4.435195
v -2.755188 -0.256854 -6.482957
v -2.846303 -0.259858 -6.482240
v -2.808301 -0.501728 -4.406507
v -2.915000 -0.061295 -4.288689
v -3.387500 -0.334502 -4.338455
v 1.375000 -0.436259 -4.376063
v 1.256743 -1.061740 -5.066126
v 1.253691 -1.058370 -5.055593
v 1.050000 -1.012975 -4.938859
v 0.997925 -0.905231 -4.752447
v 0.966606 -0.894846 -4.738170
v 0.825000 -0.945021 -4.812033
v 0.578326 -0.455778 -4.384601
v 0.375000 -0.930424 -4.789196
v 0.510000 -0.945021 -4.812033
v 0.285000 -0.899583 -4.744622
v -1.081070 -0.642890 -4.491438
v -2.709156 -0.559006 -4.437565
v -2.757321 -0.252697 -6.483934
v -2.844370 -0.255974 -6.483165
v -2.892119 -0.777413 -6.196492
v -2.915000 -0.068948 -4.289138
v -3.387500 -0.341362 -4.340641
v 1.375000 -0.477135 -4.394460
v 1.262132 -1.068168 -5.087297
v 1.259556 -1.065006 -5.076695
v 1.185000 -1.014030 -4.941184
v 0.999571 -0.905820 -4.753270
v 0.749765 -0.260976 -4.318029
v 0.825000 -0.959058 -4.835219
v 0.960000 -0.949101 -4.818643
v 0.735000 -0.915275 -4.766722
v 0.600000 -0.915275 -4.766722
v 0.375000 -0.945021 -4.812033
v 0.510000 -0.959058 -4.835219
v 0.048957 -0.749823 -4.577483
v -1.071100 -0.647938 -4.495032
v -2.699084 -0.562862 -4.439815
v -2.759481 -0.248663 -6.484867
v -2.842425 -0.252210 -6.484048
v -2.815969 -0.495354 -4.403314
v -2.962500 -0.558032 -4.437000
v -2.915000 -0.076597 -4.289639
v -3.387500 -0.348207 -4.342871
v 1.375000 -0.517237 -4.414487
v 1.256942 -0.402062 -4.362158
v 1.264470 -1.071224 -5.097929
v 1.375000 -1.069057 -5.090344
v 1.185000 -1.020167 -4.954995
v 0.778288 -0.207060 -4.306431
v 0.964955 -0.894342 -4.737488
v 0.825000 -0.972526 -4.858740
v 0.960000 -0.961973 -4.840200
v 0.600000 -0.930424 -4.789196
v 0.735000 -0.930424 -4.789196
v 0.375000 -0.959058 -4.835219
v 0.510000 -0.972526 -4.858740
v -0.021623 -0.725996 -4.556366
v 0.250288 -0.888193 -4.729268
v -0.658643 -0.749335 -4.577034
v -1.061138 -0.652843 -4.498565
v -2.688890 -0.566472 -4.441939
v -2.761672 -0.244749 -6.485756
v -2.840468 -0.248571 -6.484888
v -2.823372 -0.488828 -4.400096
v -2.915000 -0.084243 -4.290193
v -3.387500 -0.355038 -4.345146
v 1.032262 -0.918399 -4.771262
v 1.256942 -0.585919 -4.453708
v 1.268440 -1.077013 -5.119267
v 1.266573 -1.074173 -5.108586
v 1.050000 -1.022051 -4.959340
v 1.001216 -0.906412 -4.754101
v 0.963304 -0.893842 -4.736814
v 0.960000 -0.974356 -4.862041
v 0.600000 -0.945021 -4.812033
v 0.735000 -0.959058 -4.835219
v 0.735000 -0.945021 -4.812033
v 0.375000 -0.972526 -4.858740
v 0.510000 -0.985417 -4.882581
v 0.285000 -0.915275 -4.766722
v -0.057981 -0.732917 -4.562366
v 0.285000 -1.100559 -5.565950
v -1.051183 -0.657606 -4.502035
v -2.678586 -0.569834 -4.443934
v -2.763908 -0.240956 -6.486605
v -2.838499 -0.245057 -6.485687
v -2.902968 -0.771590 -6.202133
v -2.915000 -0.091884 -4.290799
v -3.387500 -0.361853 -4.347464
v 1.375000 -0.556500 -4.436114
v 1.185000 -1.026115 -4.968889
v 1.002860 -0.907009 -4.754939
v 0.961652 -0.893346 -4.736146
v 0.825000 -0.985417 -4.882581
v 0.600000 -0.959058 -4.835219
v 0.375000 -0.985417 -4.882581
v 0.510000 -0.997724 -4.906730
v 0.285000 -0.930424 -4.789196
v -0.668383 -0.749011 -4.576737
v -1.041236 -0.662228 -4.505440
v -2.668189 -0.572948 -4.445796
v -2.766200 -0.237282 -6.487413
v -2.836514 -0.241670 -6.486446
v -2.830500 -0.482162 -4.396863
v -2.962500 -0.545528 -4.429862
v -2.915000 -0.099522 -4.291458
v -3.387500 -0.368654 -4.349827
v 1.375000 -0.594860 -4.459303
v 1.033882 -0.919067 -4.772238
v 1.050000 -1.030712 -4.979999
v 1.004503 -0.907610 -4.755785
v 0.960000 -0.986242 -4.884155
v 0.735000 -0.972526 -4.858740
v 0.600000 -0.972526 -4.858740
v 0.451619 -0.996317 -4.903893
v 0.375000 -0.997724 -4.906730
v 0.510000 -1.009440 -4.931171
v 0.285000 -0.945021 -4.812033
v 0.285000 -1.096192 -5.592700
v -1.031297 -0.666709 -4.508778
v -2.657714 -0.575811 -4.447522
v -2.768562 -0.233727 -6.488182
v -2.834515 -0.238411 -6.487166
v -2.962500 -0.532932 -4.422885
v -2.837344 -0.475365 -4.393622
v -2.915000 -0.107154 -4.292170
v -3.387500 -0.375439 -4.352234
v 1.375000 -0.632256 -4.484019
v 1.185000 -1.031874 -4.982861
v 1.006146 -0.908214 -4.756637
v 0.738580 -0.279007 -4.322539
v 0.825000 -0.997724 -4.906730
v 0.735000 -0.985417 -4.882581
v 0.600000 -0.985417 -4.882581
v 0.375000 -1.009440 -4.931171
v 0.510000 -1.020556 -4.955890
v -0.093958 -0.738928 -4.567666
v -0.678128 -0.748599 -4.576361
v 0.285000 -1.091174 -5.619335
v -1.021367 -0.671053 -4.512047
v -2.647175 -0.578424 -4.449107
v -2.770999 -0.230303 -6.488912
v -2.832492 -0.235278 -6.487848
v -2.913526 -0.765018 -6.208403
v -2.915000 -0.114782 -4.292934
v -3.387500 -0.382209 -4.354684
v 1.375000 -0.668626 -4.510220
v 1.256942 -0.749823 -4.577483
v 1.185000 -1.037443 -4.996911
v 1.007788 -0.908823 -4.757497
v 0.960000 -0.997627 -4.906533
v 0.854280 -0.996317 -4.903893
v 0.735000 -0.997724 -4.906730
v 0.600000 -0.997724 -4.906730
v 0.652949 -0.996317 -4.903893
v 0.375000 -1.020556 -4.955890
v 0.510000 -1.031068 -4.980872
v 0.285000 -0.959058 -4.835219
v -0.687875 -0.748098 -4.575904
v -1.011446 -0.675260 -4.515244
v -2.636589 -0.580786 -4.450549
v -2.773500 -0.227041 -6.489597
v -2.830430 -0.232263 -6.488496
v -2.843896 -0.468451 -4.390385
v -2.962500 -0.520246 -4.416073
v -2.915000 -0.122404 -4.293751
v -3.387500 -0.388963 -4.357178
v 1.375000 -0.703912 -4.537865
v 1.050000 -1.038957 -5.000829
v 1.009429 -0.909435 -4.758364
v 0.735000 -1.009440 -4.931171
v 0.600000 -1.009440 -4.931171
v 0.375000 -1.031068 -4.980872
v 0.510000 -1.040968 -5.006103
v 0.285000 -0.972526 -4.858740
v -1.001536 -0.679331 -4.518367
v -2.776056 -0.223972 -6.490232
v -2.828312 -0.229358 -6.489112
v -2.962500 -0.507474 -4.409425
v -2.850152 -0.461427 -4.387156
v -2.915000 -0.130020 -4.294621
v -3.387500 -0.395700 -4.359716
v 1.375000 -0.738056 -4.566908
v 1.185000 -1.042821 -5.011035
v 1.011069 -0.910051 -4.759238
v 0.960000 -1.008504 -4.929161
v 0.825000 -1.009440 -4.931171
v 0.735000 -1.020556 -4.955890
v 0.600000 -1.020556 -4.955890
v 0.375000 -1.040968 -5.006103
v 0.510000 -1.050251 -5.031568
v -0.129402 -0.744045 -4.572245
v -0.991635 -0.683268 -4.521414
v -2.615329 -0.584751 -4.452986
v -2.778658 -0.221129 -6.490812
v -2.826121 -0.226555 -6.489698
v -2.923730 -0.757699 -6.215266
v -2.915000 -0.137630 -4.295542
v -3.575000 -0.436259 -4.376063
v 1.375000 -0.771002 -4.597302
v 1.050000 -1.046780 -5.021820
v 1.012707 -0.910671 -4.760120
v 0.960000 -1.018868 -4.952029
v 0.825000 -1.020556 -4.955890
v 0.735000 -1.031068 -4.980872
v 0.600000 -1.031068 -4.980872
v 0.375000 -1.050251 -5.031568
v 0.510000 -1.058911 -5.057251
v 0.285000 -0.985417 -4.882581
v -0.981746 -0.687072 -4.524383
v -2.604668 -0.586355 -4.453977
v -2.781324 -0.218539 -6.491334
v -2.823855 -0.223872 -6.490252
v -2.856111 -0.454303 -4.383941
v -2.962500 -0.501056 -4.406163
v -2.971007 -0.204513 -4.305951
v -3.387500 -0.402421 -4.362297
v 1.375000 -0.802698 -4.628998
v 1.185000 -1.048006 -5.025230
v 1.014345 -0.911295 -4.761009
v 0.960000 -1.028713 -4.975125
v 0.825000 -1.031068 -4.980872
v 0.735000 -1.040968 -5.006103
v 0.600000 -1.040968 -5.006103
v 0.375000 -1.058911 -5.057251
v 0.510000 -1.066943 -5.083137
v 0.285000 -0.997724 -4.906730
v -0.971868 -0.690745 -4.527273
v -2.593983 -0.587708 -4.454816
v -2.784090 -0.216226 -6.491795
v -2.821518 -0.221337 -6.490770
v -2.962500 -0.488157 -4.399764
v -2.861775 -0.447087 -4.380746
v -2.915000 -0.145234 -4.296516
v -3.387500 -0.409125 -4.364922
v 1.375000 -0.833092 -4.661944
v 1.185000 -1.052998 -5.039495
v 0.786175 -0.189198 -4.303199
v 0.960000 -1.038035 -4.998437
v 0.825000 -1.040968 -5.006103
v 0.735000 -1.050251 -5.031568
v 0.600000 -1.050251 -5.031568
v 0.375000 -1.066943 -5.083137
v 0.451619 -1.070512 -5.095413
v -0.164160 -0.748285 -4.576083
v -0.962000 -0.694288 -4.530084
v -2.780368 -0.797447 -6.176435
v -2.786993 -0.214213 -6.492191
v -2.819116 -0.218982 -6.491245
v -2.867143 -0.439787 -4.377574
v -2.962500 -0.475177 -4.393533
v -2.915000 -0.152831 -4.297543
v -3.387500 -0.415811 -4.367590
v 1.375000 -0.862135 -4.696088
v 1.050000 -1.054180 -5.042964
v 1.015981 -0.911923 -4.761904
v 0.960000 -1.046829 -5.021954
v 0.825000 -1.050251 -5.031568
v 0.735000 -1.058911 -5.057251
v 0.600000 -1.058911 -5.057251
v 0.510000 -1.074342 -5.109211
v 0.375000 -1.074342 -5.109211
v 0.510000 -1.081104 -5.135458
v 0.285000 -1.009440 -4.931171
v -0.952142 -0.697704 -4.532816
v -2.583267 -0.588812 -4.455503
v -2.790050 -0.212531 -6.492520
v -2.816650 -0.216835 -6.491674
v -2.933515 -0.749634 -6.222689
v -2.915000 -0.160420 -4.298622
v -3.387500 -0.422481 -4.370302
v 1.375000 -0.889780 -4.731374
v 1.256942 -0.888193 -4.729268
v 1.185000 -1.057796 -5.053826
v 1.017616 -0.912554 -4.762808
v 0.960000 -1.055090 -5.045663
v 0.825000 -1.058911 -5.057251
v 0.735000 -1.066943 -5.083137
v 0.600000 -1.066943 -5.083137
v 0.375000 -1.081104 -5.135458
v 0.510000 -1.087225 -5.161861
v 0.285000 -1.020556 -4.955890
v -0.942292 -0.700994 -4.535468
v -2.572516 -0.589668 -4.456037
v -2.872215 -0.432411 -4.374433
v -2.962500 -0.468656 -4.390480
v -2.915000 -0.168002 -4.299753
v -3.387500 -0.429133 -4.373056
v 1.050000 -1.061152 -5.064253
v 1.019250 -0.913189 -4.763718
v 0.960000 -1.062814 -5.069552
v 0.825000 -1.066943 -5.083137
v 0.735000 -1.074342 -5.109211
v 0.652949 -1.070512 -5.095413
v 0.375000 -1.087225 -5.161861
v 0.510000 -1.092702 -5.188406
v -0.198114 -0.751669 -4.579169
v -0.932452 -0.704160 -4.538039
v -2.767364 -0.795866 -6.178054
v -3.373669 -0.204513 -6.494049
v -2.962500 -0.455557 -4.384502
v -2.876993 -0.424967 -4.371325
v -2.915000 -0.175576 -4.300936
v -3.387500 -0.435766 -4.375853
v 1.375000 -0.940697 -4.805140
v 1.185000 -1.062399 -5.068221
v 1.020882 -0.913828 -4.764635
v 0.960000 -1.069997 -5.093609
v 0.825000 -1.074342 -5.109211
v 0.854280 -1.070512 -5.095413
v 0.600000 -1.074342 -5.109211
v 0.735000 -1.081104 -5.135458
v 0.600000 -1.081104 -5.135458
v 0.375000 -1.092702 -5.188406
v 0.510000 -1.097530 -5.215076
v 0.285000 -1.031068 -4.980872
v -0.922619 -0.707205 -4.540531
v -2.561724 -0.590278 -4.456419
v -2.942819 -0.740821 -6.230636
v -2.915000 -0.183141 -4.302171
v -3.387500 -0.442382 -4.378693
v 1.050000 -1.067694 -5.085678
v 1.022512 -0.914470 -4.765560
v 0.960000 -1.076636 -5.117822
v 0.825000 -1.081104 -5.135458
v 0.735000 -1.087225 -5.161861
v 0.600000 -1.087225 -5.161861
v 0.375000 -1.097530 -5.215076
v 0.510000 -1.101707 -5.241856
v 0.285000 -1.040968 -5.006103
v -0.912794 -0.710129 -4.542943
v -2.550887 -0.590643 -4.456649
v -2.962500 -0.442382 -4.378693
v -2.881475 -0.417465 -4.368258
v -2.915000 -0.190698 -4.303459
v -3.387500 -0.448979 -4.381576
v 1.185000 -1.066806 -5.082677
v 1.024141 -0.915116 -4.766492
v 0.960000 -1.082727 -5.142179
v 0.825000 -1.087225 -5.161861
v 0.735000 -1.092702 -5.188406
v 0.600000 -1.092702 -5.188406
v 0.375000 -1.101707 -5.241856
v 0.510000 -1.105232 -5.268729
v -0.231282 -0.754234 -4.581521
v -0.902977 -0.712934 -4.545274
v -2.951612 -0.731245 -6.239081
v -2.915000 -0.198246 -4.304798
v -3.387500 -0.455557 -4.384502
v 1.185000 -1.071017 -5.097192
v 1.025768 -0.915765 -4.767431
v 0.960000 -1.088267 -5.166667
v 0.825000 -1.092702 -5.188406
v 0.735000 -1.097530 -5.215076
v 0.600000 -1.097530 -5.215076
v 0.375000 -1.105232 -5.268729
v 0.510000 -1.108100 -5.295681
v 0.285000 -1.050251 -5.031568
v -0.893165 -0.715624 -4.547524
v -2.754649 -0.793555 -6.180410
v -2.962500 -0.435766 -4.375853
v -2.885662 -0.409912 -4.365234
v -2.915000 -0.205784 -4.306189
v -3.387500 -0.462116 -4.387470
v 1.050000 -1.073804 -5.107231
v 1.027394 -0.916418 -4.768378
v 0.960000 -1.093253 -5.191274
v 0.825000 -1.097530 -5.215076
v 0.735000 -1.101707 -5.241856
v 0.600000 -1.101707 -5.241856
v 0.375000 -1.108100 -5.295681
v 0.451619 -1.108252 -5.297305
v -0.263713 -0.756018 -4.583169
v -0.883360 -0.718198 -4.549694
v -2.742341 -0.790553 -6.183452
v -2.889557 -0.402316 -4.362259
v -2.962500 -0.422481 -4.370302
v -2.915000 -0.213313 -4.307633
v -3.387500 -0.468656 -4.390480
v 1.185000 -1.075029 -5.111763
v 1.029018 -0.917075 -4.769332
v 0.960000 -1.097683 -5.215987
v 0.960000 -1.101555 -5.240794
v 0.735000 -1.105232 -5.268729
v 0.600000 -1.105232 -5.268729
v 0.510000 -1.110312 -5.322694
v 0.375000 -1.110312 -5.322694
v 0.510000 -1.111865 -5.349753
v 0.285000 -1.058911 -5.057251
v -0.873559 -0.720660 -4.551782
v -2.730468 -0.786868 -6.187154
v -2.959882 -0.720879 -6.248003
v -2.915000 -0.220832 -4.309128
v -3.387500 -0.475177 -4.393533
v 1.050000 -1.079479 -5.128902
v 1.030641 -0.917735 -4.770293
v 0.825000 -1.101707 -5.241856
v 0.960000 -1.104865 -5.265681
v 0.735000 -1.108100 -5.295681
v 0.600000 -1.108100 -5.295681
v 0.375000 -1.111865 -5.349753
v 0.510000 -1.112759 -5.376842
v 0.285000 -1.066943 -5.083137
v -0.863764 -0.723011 -4.553789
v -2.718981 -0.782485 -6.191511
v -2.893162 -0.394687 -4.359335
v -2.962500 -0.415811 -4.367590
v -2.915000 -0.228340 -4.310675
v -3.575000 -0.517237 -4.414487
v 1.185000 -1.078844 -5.126386
v 0.793281 -0.171416 -4.300279
v 0.825000 -1.105232 -5.268729
v 0.960000 -1.107614 -5.290637
v 0.652949 -1.108252 -5.297305
v 0.735000 -1.110312 -5.322694
v 0.600000 -1.110312 -5.322694
v 0.375000 -1.112759 -5.376842
v 0.510000 -1.112993 -5.403945
v -0.295461 -0.757063 -4.584139
v -0.853973 -0.725252 -4.555715
v -2.707829 -0.777386 -6.196518
v -2.896479 -0.387031 -4.356465
v -2.962500 -0.409125 -4.364922
v -2.915000 -0.235837 -4.312273
v -3.387500 -0.481677 -4.396627
v 0.825000 -1.108100 -5.295681
v 0.854280 -1.108252 -5.297305
v 0.735000 -1.111865 -5.349753
v 0.600000 -1.111865 -5.349753
v 0.375000 -1.112993 -5.403945
v 0.510000 -1.112567 -5.431045
v 0.285000 -1.074342 -5.109211
v -0.844185 -0.727387 -4.557559
v -2.696966 -0.771554 -6.202168
v -2.967616 -0.709700 -6.257378
v -2.915000 -0.243323 -4.313923
v -3.387500 -0.488157 -4.399764
v 0.960000 -1.109799 -5.315649
v 0.825000 -1.110312 -5.322694
v 0.960000 -1.111419 -5.340703
v 0.735000 -1.112759 -5.376842
v 0.600000 -1.112759 -5.376842
v 0.375000 -1.112567 -5.431045
v 0.510000 -1.111481 -5.458127
v 0.285000 -1.081104 -5.135458
v -0.834401 -0.729416 -4.559320
v -2.686408 -0.764979 -6.208441
v -2.962500 -0.395700 -4.359716
v -2.899512 -0.379359 -4.353652
v -3.387500 -0.494617 -4.402943
v 0.799624 -0.153728 -4.297667
v 0.825000 -1.111865 -5.349753
v 0.960000 -1.112474 -5.365788
v 0.735000 -1.112993 -5.403945
v 0.600000 -1.112993 -5.403945
v 0.375000 -1.111481 -5.458127
v 0.510000 -1.109736 -5.485175
v -0.326574 -0.757407 -4.584461
v -0.824620 -0.731341 -4.561000
v -2.676211 -0.757659 -6.215305
v -2.962500 -0.388963 -4.357178
v -2.902264 -0.371678 -4.350898
v -2.915000 -0.265710 -4.319182
v -3.387500 -0.501056 -4.406163
v 0.805221 -0.136142 -4.295358
v 0.825000 -1.112759 -5.376842
v 0.960000 -1.112963 -5.390890
v 0.735000 -1.112567 -5.431045
v 0.600000 -1.112567 -5.431045
v 0.375000 -1.109736 -5.485175
v 0.510000 -1.107333 -5.512172
v 0.285000 -1.087225 -5.161861
v -0.814840 -0.733164 -4.562598
v -2.666435 -0.749591 -6.222728
v -2.974801 -0.697683 -6.267181
v -2.915000 -0.273148 -4.321038
v -3.387500 -0.507474 -4.409425
v 0.810093 -0.118667 -4.293344
v 0.825000 -1.112993 -5.403945
v 0.960000 -1.112885 -5.415997
v 0.735000 -1.111481 -5.458127
v 0.600000 -1.111481 -5.458127
v 0.451619 -1.108252 -5.502695
v 0.375000 -1.107333 -5.512172
v 0.510000 -1.104273 -5.539102
v 0.285000 -1.092702 -5.188406
v -0.805062 -0.734888 -4.564112
v -2.657135 -0.740771 -6.230681
v -2.962500 -0.375439 -4.352234
v -2.904736 -0.363996 -4.348206
v -2.915000 -0.280573 -4.322945
v -3.387500 -0.513871 -4.412728
v 0.814259 -0.101311 -4.291621
v 0.825000 -1.112567 -5.431045
v 0.960000 -1.112241 -5.441095
v 0.735000 -1.109736 -5.485175
v 0.600000 -1.109736 -5.485175
v 0.375000 -1.104273 -5.539102
v 0.510000 -1.100559 -5.565950
v -0.331919 -0.757369 -4.584426
v -0.795286 -0.736512 -4.565545
v -2.648341 -0.731183 -6.239134
v -2.981412 -0.684832 -6.277365
v -2.915000 -0.287984 -4.324903
v -3.387500 -0.520246 -4.416073
v 0.817737 -0.084080 -4.290180
v 0.825000 -1.111481 -5.458127
v 0.735000 -1.107333 -5.512172
v 0.652949 -1.108252 -5.502695
v 0.375000 -1.100559 -5.565950
v 0.510000 -1.096192 -5.592700
v -0.337270 -0.757325 -4.584385
v -1.561691 -1.070512 -5.095413
v -2.640070 -0.720809 -6.248062
v -2.962500 -0.368654 -4.349827
v -2.906933 -0.356323 -4.345579
v -2.915000 -0.295382 -4.326912
v -3.387500 -0.526600 -4.419459
v 1.375000 -1.080658 -5.133642
v 0.820546 -0.066984 -4.289017
v 0.960000 -1.111031 -5.466173
v 0.600000 -1.107333 -5.512172
v 0.735000 -1.104273 -5.539102
v 0.375000 -1.096192 -5.592700
v -0.342629 -0.757273 -4.584337
v 0.285000 -1.072254 -5.698397
v -0.785510 -0.738040 -4.566894
v -2.632337 -0.709626 -6.257439
v -2.962500 -0.361853 -4.347464
v -2.908856 -0.348664 -4.343021
v -2.914878 -0.302974 -4.329030
v -3.387500 -0.532932 -4.422885
v 1.270072 -1.079745 -5.129969
v 0.822703 -0.050024 -4.288125
v 0.825000 -1.109736 -5.485175
v 0.600000 -1.104273 -5.539102
v 0.510000 -1.091174 -5.619335
v -0.347996 -0.757214 -4.584282
v -0.775737 -0.739470 -4.568162
v -2.625159 -0.697616 -6.267236
v -2.963774 -0.596338 -4.460237
v -2.965383 -0.614313 -4.471888
v -2.962500 -0.306927 -4.330157
v -3.387500 -0.539241 -4.426353
v 1.271469 -1.082369 -5.140689
v 0.824225 -0.033205 -4.287495
v 0.960000 -1.109256 -5.491217
v 0.735000 -1.100559 -5.565950
v 0.375000 -1.091174 -5.619335
v 0.285000 -1.097530 -5.215076
v -0.765965 -0.740804 -4.569348
v -2.618560 -0.684780 -6.277407
v -2.967654 -0.631531 -4.483519
v -2.914511 -0.310568 -4.331207
v -3.387500 -0.545528 -4.429862
v 1.272634 -1.084885 -5.151427
v 0.825126 -0.016529 -4.287123
v 0.854280 -1.108252 -5.502695
v 0.600000 -1.100559 -5.565950
v 0.510000 -1.085510 -5.645840
v -0.353371 -0.757147 -4.584220
v -0.756195 -0.742042 -4.570451
v -2.612564 -0.671125 -6.287896
v -2.970596 -0.648007 -4.495095
v -2.962500 -0.313840 -4.332164
v -3.387500 -0.551791 -4.433411
v 1.273565 -1.087292 -5.162179
v 0.825000 -1.107333 -5.512172
v 0.960000 -1.106916 -5.516215
v 0.735000 -1.096192 -5.592700
v 0.375000 -1.085510 -5.645840
v -0.358755 -0.757073 -4.584151
v -0.746427 -0.743186 -4.571473
v -2.607199 -0.656658 -6.298648
v -2.974210 -0.663739 -4.506570
v -2.913895 -0.318168 -4.333444
v -3.387500 -0.558032 -4.437000
v 1.375000 -1.090507 -5.177371
v 1.035500 -0.919738 -4.773221
v 0.825000 -1.104273 -5.539102
v 0.600000 -1.096192 -5.592700
v 0.510000 -1.079202 -5.672199
v -0.364148 -0.756991 -4.584075
v -0.736662 -0.744235 -4.572414
v -2.602487 -0.641389 -6.309608
v -2.962500 -0.320741 -4.334217
v -3.575000 -0.594860 -4.459303
v 1.274264 -1.089591 -5.172943
v 1.037117 -0.920413 -4.774213
v 0.960000 -1.104013 -5.541153
v 0.735000 -1.091174 -5.619335
v 0.375000 -1.079202 -5.672199
v -0.369552 -0.756902 -4.583992
v -2.598431 -0.625325 -6.320725
v -2.978497 -0.678719 -4.517895
v -2.962500 -0.327628 -4.336314
v -3.387184 -0.577574 -4.448591
v 1.274732 -1.091782 -5.183718
v 1.038733 -0.921091 -4.775211
v 0.825000 -1.100559 -5.565950
v 0.600000 -1.091174 -5.619335
v 0.510000 -1.072254 -5.698397
v 0.285000 -1.101707 -5.241856
v -2.595028 -0.608476 -6.331945
v -2.983459 -0.692938 -4.529021
v -2.913025 -0.325776 -4.335742
v -3.386227 -0.596315 -4.460223
v 1.274968 -1.093864 -5.194501
v 1.040347 -0.921773 -4.776218
v 0.960000 -1.100548 -5.566020
v 0.735000 -1.085510 -5.645840
v 0.375000 -1.072254 -5.698397
v -0.374966 -0.756805 -4.583902
v -2.592272 -0.590851 -6.343220
v -2.962500 -0.334502 -4.338455
v -3.384621 -0.614278 -4.471865
v 1.375000 -1.098587 -5.221462
v 1.041959 -0.922458 -4.777232
v 0.960000 -1.096523 -5.590802
v 0.600000 -1.085510 -5.645840
v -0.380391 -0.756700 -4.583805
v -2.590157 -0.572454 -6.354499
v -2.911898 -0.333393 -4.338103
v -3.575000 -0.668626 -4.510220
v 1.274974 -1.095837 -5.205290
v 1.043570 -0.923147 -4.778253
v 0.825000 -1.096192 -5.592700
v 0.735000 -1.079202 -5.672199
v -0.385827 -0.756587 -4.583700
v -2.588669 -0.553272 -6.365745
v -2.962500 -0.341362 -4.340641
v -3.382353 -0.631484 -4.483486
v 1.274749 -1.097702 -5.216084
v 1.045180 -0.923839 -4.779283
v 0.960000 -1.091941 -5.615487
v 0.600000 -1.079202 -5.672199
v -0.391275 -0.756467 -4.583588
v -2.587789 -0.533284 -6.376923
v -2.910510 -0.341022 -4.340529
v -3.379415 -0.647948 -4.495053
v 1.274291 -1.099458 -5.226881
v 1.046788 -0.924535 -4.780320
v 0.825000 -1.091174 -5.619335
v 0.735000 -1.072254 -5.698397
v 0.285000 -1.105232 -5.268729
v -2.587500 -0.512470 -6.388000
v -2.962500 -0.348207 -4.342871
v -3.375807 -0.663667 -4.506517
v 1.273598 -1.101106 -5.237680
v 1.048395 -0.925235 -4.781365
v 0.960000 -1.086802 -5.640063
v 0.600000 -1.072254 -5.698397
v -0.396736 -0.756338 -4.583469
v -2.587500 -0.507255 -6.390688
v -3.371529 -0.678633 -4.517829
v 1.375000 -1.104885 -5.265843
v 0.825000 -1.085510 -5.645840
v -0.402210 -0.756201 -4.583342
v -2.587500 -0.502026 -6.393348
v -2.962500 -0.355038 -4.345146
v -3.575000 -0.738056 -4.566908
v 1.272667 -1.102645 -5.248481
v 1.185000 -1.082460 -5.141060
v -0.407697 -0.756056 -4.583208
v -2.587500 -0.496783 -6.395980
v -3.366580 -0.692836 -4.528939
v 1.271497 -1.104076 -5.259282
v 1.050000 -1.084716 -5.150683
v 0.825000 -1.079202 -5.672199
v 0.285000 -1.108100 -5.295681
v -2.587500 -0.491526 -6.398585
v -3.360971 -0.706269 -4.539796
v 1.270086 -1.105399 -5.270083
v 1.185000 -1.085876 -5.155782
v 0.825000 -1.072254 -5.698397
v -0.413199 -0.755903 -4.583067
v -2.587500 -0.486255 -6.401162
v -3.354733 -0.718923 -4.550344
v 1.268431 -1.106613 -5.280882
v 1.050000 -1.089515 -5.172564
v -0.418715 -0.755742 -4.582918
v -2.587500 -0.480971 -6.403711
v -2.962500 -0.382209 -4.354684
v -3.347899 -0.730787 -4.560526
v 1.375000 -1.109391 -5.310441
v 1.185000 -1.089092 -5.170549
v -0.424246 -0.755572 -4.582761
v -2.587500 -0.475674 -6.406232
v -3.575000 -0.802698 -4.628998
v 1.266531 -1.107719 -5.291679
v 1.185000 -1.092107 -5.185358
v -0.429793 -0.755394 -4.582596
v -2.587500 -0.470363 -6.408726
v -3.340505 -0.741854 -4.570287
v 1.264383 -1.108717 -5.302472
v 1.050000 -1.093871 -5.194538
v 0.285000 -1.110312 -5.322694
v -2.587500 -0.465040 -6.411191
v -2.962500 -0.402421 -4.362297
v -3.332580 -0.752122 -4.579581
v 1.261987 -1.109607 -5.313257
v 1.185000 -1.094921 -5.200207
v -0.435354 -0.755208 -4.582425
v -2.587500 -0.459703 -6.413628
v -3.324146 -0.761615 -4.588386
v 1.375000 -1.112097 -5.355184
v 1.050000 -1.097785 -5.216596
v -0.440929 -0.755015 -4.582247
v -2.587500 -0.454354 -6.416037
v -3.575000 -0.862135 -4.696088
v 1.259345 -1.110391 -5.324023
v 1.185000 -1.097533 -5.215093
v -0.446515 -0.754816 -4.582064
v -2.587500 -0.448992 -6.418418
v -3.315220 -0.770358 -4.596682
v 1.256460 -1.111070 -5.334759
v 1.185000 -1.099942 -5.230013
v -0.452112 -0.754612 -4.581875
v -2.587500 -0.443618 -6.420771
v -2.962500 -0.429133 -4.373056
v -3.305823 -0.778375 -4.604450
v 1.253334 -1.111644 -5.345453
v 1.050000 -1.101254 -5.238727
v 0.285000 -1.111865 -5.349753
v -2.587500 -0.438231 -6.423095
v -3.295989 -0.785685 -4.611668
v 1.249969 -1.112116 -5.356094
v 1.185000 -1.102149 -5.244964
v -0.457717 -0.754404 -4.581684
v -2.587500 -0.432832 -6.425390
v -3.285779 -0.792293 -4.618309
v 1.050000 -1.104277 -5.260924
v -0.463329 -0.754193 -4.581489
v -2.587500 -0.427421 -6.427658
v -2.962500 -0.448979 -4.381576
v -3.575000 -0.915981 -4.767744
v 1.246367 -1.112486 -5.366671
v 1.185000 -1.104153 -5.259943
v -0.468947 -0.753978 -4.581292
v -2.587500 -0.421998 -6.429896
v -3.275257 -0.798203 -4.624346
v 1.242532 -1.112756 -5.377172
v 1.185000 -1.105953 -5.274949
v -2.587500 -0.416564 -6.432106
v -2.962500 -0.462116 -4.387470
v -3.264485 -0.803422 -4.629751
v 1.050000 -1.106852 -5.283177
v -2.587500 -0.411118 -6.434288
v -3.253486 -0.807959 -4.634510
v 1.185000 -1.107549 -5.289977
v -2.587500 -0.405660 -6.436441
v -3.575000 -0.963886 -4.843500
v 1.234169 -1.112999 -5.397905
v 1.229644 -1.112975 -5.408117
v 1.050000 -1.108979 -5.305477
v 0.285000 -1.085510 -5.645840
v -2.587500 -0.400191 -6.438564
v -2.962500 -0.481677 -4.396627
v -3.242221 -0.811839 -4.638625
v 1.224890 -1.112858 -5.418224
v 1.185000 -1.108940 -5.305026
v -0.697627 -0.747508 -4.575367
v -2.587500 -0.394711 -6.440659
v -3.230648 -0.815082 -4.642101
v 1.219904 -1.112651 -5.428227
v 1.185000 -1.110128 -5.320092
v 0.285000 -1.079202 -5.672199
v -2.587500 -0.389220 -6.442726
v -2.962500 -0.494617 -4.402943
v -3.373669 -0.888193 -4.729268
v 1.214684 -1.112355 -5.438130
v 1.050000 -1.110657 -5.327816
v -0.707381 -0.746827 -4.574750
v -2.587500 -0.383719 -6.444763
v -3.575000 -1.005540 -4.922865
v -3.218727 -0.817713 -4.644941
v 1.209228 -1.111974 -5.447932
v 1.185000 -1.111110 -5.335173
v -2.587500 -0.378206 -6.446771
v -3.206477 -0.819730 -4.647130
v 1.203533 -1.111512 -5.457637
v 1.050000 -1.111885 -5.350184
v -0.717138 -0.746055 -4.574052
v -2.587500 -0.372683 -6.448750
v -2.962500 -0.513871 -4.412728
v -3.193993 -0.821105 -4.648630
v 1.197599 -1.110969 -5.467246
v 1.185000 -1.111888 -5.350266
v -0.726899 -0.745192 -4.573274
v -2.587500 -0.367150 -6.450700
v -3.575000 -1.040673 -5.005325
v 1.191422 -1.110351 -5.476760
v 1.185000 -1.112461 -5.365369
v -2.587500 -0.361607 -6.452620
v -2.962500 -0.526600 -4.419459
v -3.181373 -0.821809 -4.649400
v 1.185000 -1.109658 -5.486182
v 1.050000 -1.112662 -5.372573
v -2.587500 -0.356053 -6.454512
v -3.168714 -0.821812 -4.649404
v 1.050000 -1.091525 -5.617582
v 1.185000 -1.112829 -5.380477
v -2.587500 -0.350490 -6.456374
v -2.962500 -0.539241 -4.426353
v -3.575000 -1.069057 -5.090344
v 1.050000 -1.112989 -5.394972
v -2.587500 -0.344917 -6.458207
v -3.156113 -0.821116 -4.648642
v 1.185000 -1.112991 -5.395589
v -2.587500 -0.339334 -6.460010
v -2.962500 -0.551791 -4.433411
v -3.143658 -0.819751 -4.647153
v 1.185000 -1.112949 -5.410702
v -2.587500 -0.333742 -6.461784
v -3.373669 -0.996317 -4.903893
v 1.050000 -1.112864 -5.417373
v -2.587500 -0.328141 -6.463528
v -3.575000 -1.090507 -5.177371
v -3.131443 -0.817747 -4.644977
v 1.185000 -1.112701 -5.425813
v -2.587500 -0.322530 -6.465243
v -2.989086 -0.706390 -4.539896
v -3.575000 -1.104885 -5.265843
v 1.050000 -1.112289 -5.439768
v -2.587500 -0.316911 -6.466929
v -2.995345 -0.719062 -4.550462
v -3.119553 -0.815133 -4.642155
v 1.185000 -1.112248 -5.440919
v -2.587500 -0.311282 -6.468584
v -3.002199 -0.730941 -4.560660
v -3.108004 -0.811909 -4.638700
v 1.185000 -1.111589 -5.456018
v -2.587500 -0.305645 -6.470210
v -3.009611 -0.742015 -4.570431
v -3.575000 -1.112097 -5.355184
v 1.050000 -1.111264 -5.462146
v -3.017551 -0.752284 -4.579729
v -3.096754 -0.808050 -4.634606
v 1.185000 -1.110726 -5.471107
v -3.025999 -0.761772 -4.588532
v -3.575000 -1.112097 -5.444816
v 1.050000 -1.109788 -5.484499
v -3.034940 -0.770507 -4.596824
v -3.085760 -0.803531 -4.629865
v -3.044355 -0.778517 -4.604588
v -3.575000 -1.040673 -5.794675
v -3.575000 -1.069057 -5.709656
v 1.050000 -1.107862 -5.506818
v -3.054211 -0.785821 -4.611804
v -3.575000 -0.802698 -6.171002
v -3.575000 -0.862135 -6.103912
v 1.050000 -1.105488 -5.529093
v -3.064442 -0.792423 -4.618442
v -3.575000 -0.594860 -6.340697
v -3.009843 -0.572444 -6.354505
v -3.172338 -0.585919 -6.346292
v 1.050000 -1.102666 -5.551316
v -3.074981 -0.798326 -4.624472
v -3.012500 -0.454354 -6.416037
v -3.575000 -0.436259 -6.423937
v -3.012500 -0.448992 -6.418418
v 1.050000 -1.099397 -5.573478
v -3.012500 -0.438231 -6.423095
v -3.012500 -0.443618 -6.420771
v 1.050000 -1.095683 -5.595570
v -3.172338 -0.996317 -4.903893
v -3.012500 -0.432832 -6.425390
v -3.575000 -1.104885 -5.534157
v -3.012500 -0.421998 -6.429896
v -3.012500 -0.427421 -6.427658
v 1.458273 -1.108252 -5.502695
v -3.575000 -1.090507 -5.622629
v -3.012500 -0.411118 -6.434288
v -3.012500 -0.416564 -6.432106
v 1.048445 -1.091321 -5.618602
v -3.373669 -0.996317 -5.896107
v -3.012500 -0.405660 -6.436441
v 1.046888 -1.091118 -5.619615
v -3.575000 -1.005540 -5.877135
v -3.012500 -0.394711 -6.440659
v -3.012500 -0.400191 -6.438564
v 1.045327 -1.090915 -5.620623
v -3.575000 -0.963886 -5.956500
v -3.373669 -0.888193 -6.070732
v -3.373669 -0.402062 -6.437842
v 1.043763 -1.090712 -5.621624
v -3.575000 -0.915981 -6.032256
v -3.012500 -0.383719 -6.444763
v -3.012500 -0.389220 -6.442726
v 1.042196 -1.090509 -5.622619
v -3.172338 -0.749823 -6.222517
v -3.012500 -0.372683 -6.448750
v -3.012500 -0.378206 -6.446771
v 1.040626 -1.090307 -5.623607
v -2.987420 -0.671158 -6.287870
v -3.012500 -0.367150 -6.450700
v 1.039052 -1.090105 -5.624590
v -3.575000 -0.738056 -6.233092
v -3.373669 -0.749823 -6.222517
v -3.012500 -0.356053 -6.454512
v -3.012500 -0.361607 -6.452620
v 1.037476 -1.089903 -5.625567
v -2.992795 -0.656674 -6.298637
v -3.012500 -0.344917 -6.458207
v -3.012500 -0.350490 -6.456374
v 1.035896 -1.089702 -5.626537
v -2.997514 -0.641392 -6.309607
v -3.012500 -0.339334 -6.460010
v 1.034313 -1.089501 -5.627501
v -3.575000 -0.668626 -6.289780
v -3.012500 -0.328141 -6.463528
v -3.012500 -0.333742 -6.461784
v 1.032727 -1.089300 -5.628459
v -3.001572 -0.625320 -6.320729
v -3.012500 -0.316911 -6.466929
v -3.012500 -0.322530 -6.465243
v 1.031137 -1.089100 -5.629411
v -3.004975 -0.608467 -6.331952
v 1.029544 -1.088901 -5.630357
v -3.007730 -0.590841 -6.343226
v 1.027948 -1.088701 -5.631298
v 1.026349 -1.088502 -5.632231
v -3.011331 -0.553263 -6.365750
v 1.024746 -1.088304 -5.633159
v -3.575000 -0.517237 -6.385513
v 1.023140 -1.088106 -5.634081
v -3.012211 -0.533278 -6.376927
v 1.021530 -1.087909 -5.634997
v -3.012500 -0.512470 -6.388000
v 1.019918 -1.087712 -5.635907
v -3.012500 -0.507255 -6.390688
v 1.018301 -1.087515 -5.636812
v -3.012500 -0.502026 -6.393348
v 1.016682 -1.087319 -5.637710
v -3.012500 -0.496783 -6.395980
v 1.015059 -1.087124 -5.638602
v -3.012500 -0.491526 -6.398585
v 1.013433 -1.086929 -5.639487
v -3.012500 -0.486255 -6.401162
v 1.011804 -1.086735 -5.640367
v -3.012500 -0.480971 -6.403711
v 1.010172 -1.086541 -5.641241
v -3.012500 -0.475674 -6.406232
v 1.008536 -1.086348 -5.642109
v 1.006898 -1.086156 -5.642970
v -3.012500 -0.470363 -6.408726
v 1.005257 -1.085964 -5.643825
v -3.012500 -0.465040 -6.411191
v 1.003613 -1.085773 -5.644674
v -3.012500 -0.459703 -6.413628
v 1.001967 -1.085583 -5.645517
v 1.000318 -1.085393 -5.646353
v 0.998666 -1.085205 -5.647184
v 0.997011 -1.085017 -5.648007
v 0.995354 -1.084830 -5.648825
v 0.993695 -1.084643 -5.649636
v 0.992033 -1.084458 -5.650441
v 0.990369 -1.084273 -5.651239
v 0.988702 -1.084089 -5.652030
v 0.987033 -1.083906 -5.652816
v 0.985362 -1.083725 -5.653595
v 0.983689 -1.083543 -5.654367
v 0.982013 -1.083363 -5.655133
v -3.575000 -0.089559 -6.509391
v 0.980334 -1.083184 -5.655893
v -2.805755 -0.210871 -6.492842
v 0.978654 -1.083006 -5.656646
v -2.802729 -0.210228 -6.492966
v 0.976970 -1.082829 -5.657393
v -2.799610 -0.210046 -6.493000
v 0.975285 -1.082652 -5.658134
v -2.796423 -0.210386 -6.492935
v 0.973597 -1.082477 -5.658868
v 0.971906 -1.082303 -5.659596
v 0.970213 -1.082129 -5.660318
v 0.968517 -1.081957 -5.661033
v 0.966819 -1.081786 -5.661742
v -2.541618 -0.051276 -6.511816
v -2.540801 -0.076880 -6.510339
v 0.965118 -1.081615 -5.662445
v -2.539960 -0.102442 -6.508272
v -2.539093 -0.127949 -6.505618
v 0.961709 -1.081278 -5.663832
v -2.538199 -0.153389 -6.502378
v -2.537278 -0.178746 -6.498553
v 1.458273 -1.070512 -5.704587
v -2.536328 -0.204009 -6.494143
v -2.535348 -0.229162 -6.489152
v -2.534337 -0.254194 -6.483581
v -2.533292 -0.279089 -6.477436
v -2.532213 -0.303836 -6.470720
v -2.531097 -0.328421 -6.463438
v -2.529942 -0.352830 -6.455592
v -2.528748 -0.377050 -6.447187
v -2.454851 -0.981991 -5.923891
v -2.527512 -0.401067 -6.438227
v -2.458533 -0.969664 -5.946358
v -2.526232 -0.424869 -6.428716
v -2.462147 -0.956827 -5.968529
v -2.524907 -0.448443 -6.418660
v -2.465685 -0.943490 -5.990391
v -2.523532 -0.471777 -6.408065
v -2.469139 -0.929662 -6.011932
v -2.522107 -0.494858 -6.396938
v -2.472502 -0.915353 -6.033138
v -2.520629 -0.517675 -6.385284
v -2.475764 -0.900573 -6.053998
v -2.519095 -0.540214 -6.373110
v -2.478918 -0.885331 -6.074498
v -2.517502 -0.562463 -6.360420
v -2.481956 -0.869638 -6.094625
v -2.515849 -0.584410 -6.347222
v -2.484875 -0.853501 -6.114369
v -2.514133 -0.606043 -6.333524
v -2.487679 -0.836926 -6.133725
v -2.512351 -0.627350 -6.319335
v -2.510502 -0.648319 -6.304667
v -2.490373 -0.819918 -6.152687
v -2.508582 -0.668936 -6.289528
v -2.492962 -0.802482 -6.171249
v -2.506590 -0.689192 -6.273931
v -2.495452 -0.784624 -6.189407
v -2.504523 -0.709072 -6.257885
v -2.497848 -0.766348 -6.207155
v -2.502379 -0.728566 -6.241401
v -2.500156 -0.747661 -6.224488
v -3.373669 -1.108252 -5.297305
v -3.373669 -1.070512 -5.704587
v -3.172338 -0.996317 -5.896107
v -3.373669 -1.108252 -5.502695
v -3.172338 -1.070512 -5.704587
v -3.172338 -1.070512 -5.095413
v -3.172338 -1.108252 -5.297305
v -3.172338 -1.108252 -5.502695
v -2.769676 -1.070512 -5.704587
v -2.769676 -1.070512 -5.095413
v -2.165684 -1.108252 -5.297305
v -1.964353 -0.749823 -4.577483
v -2.165684 -0.888193 -4.729268
v -1.964353 -0.888193 -4.729268
v -2.165684 -0.996317 -4.903893
v -1.763022 -0.888193 -4.729268
v -2.165684 -1.070512 -5.095413
v -1.763022 -0.749823 -4.577483
v -1.964353 -0.996317 -4.903893
v -1.964353 -1.070512 -5.704587
v -0.756367 -0.888193 -4.729268
v -1.964353 -1.108252 -5.502695
v -1.763022 -1.108252 -5.297305
v -1.561691 -1.108252 -5.297305
v -1.561691 -1.108252 -5.502695
v -0.756367 -1.108252 -5.502695
v -1.360360 -1.108252 -5.502695
v -0.957698 -0.888193 -4.729268
v -0.555036 -1.108252 -5.502695
v -1.159029 -1.070512 -5.095413
v -0.756367 -1.108252 -5.297305
v -1.159029 -1.108252 -5.297305
v -1.159029 -1.108252 -5.502695
v -0.957698 -1.070512 -5.095413
v -0.152374 -1.108252 -5.502695
v -0.957698 -1.108252 -5.297305
v -0.957698 -1.108252 -5.502695
v -0.756367 -1.070512 -5.095413
v -0.353705 -1.070512 -5.095413
v -0.756367 -0.996317 -4.903893
v -0.555036 -1.070512 -5.095413
v -0.353705 -1.108252 -5.297305
v 0.048957 -1.108252 -5.502695
v 1.055611 -0.402062 -4.362158
v -2.769676 -0.946292 -4.814081
v -3.273004 -1.070512 -5.095413
v -3.273004 -1.094049 -5.604513
v -3.273004 -1.108252 -5.502695
v -3.273004 -1.070512 -5.704587
v -2.769676 -1.113000 -5.400000
v -0.857032 -0.996317 -4.903893
v -0.555036 -0.996317 -4.903893
v -1.259694 -1.037842 -4.997938
v -1.058363 -0.996317 -4.903893
v -0.655702 -1.108252 -5.297305
v -0.555036 -1.108252 -5.297305
v -0.152374 -1.108252 -5.297305
v -0.353705 -1.094049 -5.195487
v -2.769676 -0.856269 -4.688964
v -3.323336 -1.111812 -5.451402
v -3.222671 -1.055303 -5.753702
v -2.769676 -1.102327 -5.553768
v -2.769676 -1.018166 -4.950436
v -2.769676 -1.102327 -5.246232
v -1.410693 -1.083437 -5.145178
v -1.108696 -0.972342 -4.858409
v -0.454371 -1.070512 -5.095413
v -0.555036 -1.055303 -5.046298
v -0.152374 -1.111812 -5.348598
f 1 2 3
f 4 5 1
f 6 7 1
f 8 9 1
f 1 10 11
f 12 13 1
f 14 15 16
f 14 17 18
f 14 19 20
f 14 21 22
f 22 23 24
f 24 25 26
f 26 27 28
f 28 29 30
f 30 31 32
f 32 33 34
f 34 35 36
f 36 37 38
f 38 39 40
f 40 41 42
f 42 43 44
f 44 45 46
f 46 47 48
f 48 49 50
f 50 51 52
f 51 53 52
f 26 54 24
f 55 56 22
f 22 57 58
f 59 60 22
f 22 61 62
f 63 64 22
f 22 65 66
f 67 68 22
f 68 69 70
f 70 71 72
f 72 73 74
f 74 75 76
f 76 77 78
f 78 79 80
f 81 82 83
f 84 85 81
f 86 87 88
f 89 90 86
f 86 91 92
f 93 94 86
f 86 95 96
f 97 98 86
f 99 100 101
f 102 103 99
f 86 104 105
f 106 107 86
f 107 108 109
f 109 110 86
f 111 112 113
f 114 115 111
f 116 117 111
f 118 99 111
f 99 119 120
f 120 121 122
f 122 123 124
f 124 125 126
f 126 127 128
f 128 129 130
f 130 131 132
f 132 133 134
f 134 135 136
f 136 137 138
f 138 139 140
f 140 141 142
f 142 143 144
f 144 145 146
f 146 147 148
f 148 149 111
f 111 150 151
f 151 152 153
f 153 154 155
f 155 156 157
f 157 158 159
f 159 160 14
f 161 162 163
f 164 165 166
f 167 168 169
f 170 171 172
f 170 172 173
f 174 175 176
f 177 178 179
f 180 181 182
f 183 184 185
f 186 184 187
f 188 184 189
f 190 189 191
f 190 191 188
f 190 192 193
f 194 195 190
f 190 196 197
f 198 199 200
f 201 202 200
f 200 203 204
f 205 206 200
f 200 207 208
f 209 210 200
f 211 212 213
f 214 215 216
f 217 218 219
f 220 221 222
f 223 224 225
f 226 227 228
f 229 230 231
f 232 227 233
f 234 235 236
f 237 212 238
f 239 212 237
f 239 240 212
f 241 242 243
f 241 243 244
f 1 245 246
f 4 1 3
f 8 1 7
f 12 1 11
f 16 17 14
f 20 21 14
f 28 247 26
f 32 247 30
f 34 81 247
f 36 38 81
f 81 40 42
f 44 46 52
f 48 50 52
f 52 81 42
f 55 22 54
f 59 22 58
f 63 22 62
f 67 22 66
f 68 70 72
f 72 74 76
f 76 78 80
f 84 81 83
f 89 86 88
f 93 86 92
f 97 86 96
f 102 99 101
f 106 86 105
f 107 109 86
f 114 111 113
f 118 111 117
f 134 120 122
f 124 126 134
f 126 128 130
f 130 132 134
f 111 136 138
f 138 140 142
f 142 144 146
f 146 148 111
f 111 151 153
f 153 155 157
f 157 159 14
f 248 161 163
f 249 250 251
f 169 168 252
f 253 171 170
f 173 172 254
f 176 175 255
f 174 256 257
f 178 177 258
f 177 179 259
f 180 182 260
f 181 180 261
f 189 184 186
f 188 262 184
f 194 190 193
f 190 195 196
f 201 200 199
f 205 200 204
f 209 200 208
f 211 240 263
f 264 215 214
f 217 219 265
f 266 220 222
f 223 214 267
f 226 232 268
f 232 233 269
f 235 270 271
f 238 212 272
f 273 240 244
f 1 246 2
f 1 9 10
f 18 19 14
f 30 247 28
f 36 81 34
f 52 42 44
f 52 46 48
f 22 56 57
f 22 64 65
f 68 72 76
f 81 80 82
f 86 90 91
f 99 98 100
f 111 86 112
f 116 111 115
f 124 134 122
f 126 130 134
f 138 142 111
f 142 146 111
f 111 153 157
f 274 248 163
f 275 276 250
f 169 252 277
f 278 171 253
f 254 172 279
f 175 256 280
f 256 174 281
f 258 177 282
f 177 259 283
f 260 182 284
f 181 261 285
f 187 184 286
f 190 188 192
f 200 202 203
f 200 206 207
f 263 240 287
f 288 264 214
f 217 265 289
f 290 266 222
f 224 214 291
f 268 232 292
f 232 269 293
f 271 270 294
f 272 212 295
f 1 273 245
f 13 15 14
f 34 247 32
f 81 38 40
f 22 60 61
f 80 68 76
f 86 94 95
f 113 14 86
f 134 99 120
f 111 134 136
f 111 157 14
f 296 274 163
f 297 276 298
f 169 277 299
f 300 171 278
f 279 172 301
f 175 280 302
f 256 281 303
f 282 177 304
f 283 259 305
f 284 182 306
f 181 307 308
f 183 185 309
f 198 200 197
f 287 240 310
f 311 288 214
f 217 289 312
f 313 290 222
f 291 214 314
f 292 232 315
f 232 293 316
f 271 294 317
f 295 212 318
f 273 1 242
f 26 247 54
f 68 85 22
f 86 85 87
f 122 111 99
f 319 296 163
f 320 321 276
f 169 299 322
f 323 171 300
f 301 172 324
f 175 325 326
f 256 303 327
f 282 328 329
f 283 305 330
f 306 182 283
f 181 308 331
f 309 185 332
f 333 210 334
f 310 240 335
f 336 311 214
f 217 312 337
f 338 313 222
f 314 214 339
f 315 232 340
f 316 293 341
f 271 317 342
f 318 212 343
f 24 54 22
f 105 14 103
f 344 319 345
f 346 321 347
f 169 322 348
f 349 171 323
f 324 172 350
f 326 325 351
f 256 327 352
f 328 177 353
f 306 283 330
f 283 182 354
f 181 331 355
f 332 185 356
f 202 190 197
f 335 240 357
f 358 336 214
f 217 337 359
f 360 338 222
f 339 214 361
f 340 232 362
f 316 341 363
f 222 364 365
f 103 14 85
f 366 344 163
f 367 368 321
f 169 348 369
f 370 171 349
f 350 172 371
f 326 351 372
f 256 352 373
f 353 177 374
f 375 376 377
f 375 354 182
f 181 355 378
f 356 185 379
f 357 240 380
f 381 358 214
f 217 359 382
f 383 360 222
f 361 214 384
f 362 232 385
f 363 341 386
f 364 387 388
f 389 85 390
f 391 366 163
f 392 368 393
f 169 369 394
f 395 171 370
f 371 172 396
f 372 351 397
f 256 373 398
f 353 374 399
f 400 401 402
f 376 375 401
f 181 378 403
f 286 184 183
f 380 240 404
f 405 381 214
f 217 382 406
f 407 383 222
f 384 214 408
f 385 232 409
f 386 341 410
f 364 388 411
f 412 391 163
f 413 414 368
f 169 394 415
f 416 171 395
f 396 172 417
f 372 397 418
f 256 398 419
f 420 374 421
f 400 402 422
f 376 401 400
f 181 403 423
f 424 334 425
f 404 240 426
f 427 405 214
f 217 406 428
f 429 407 222
f 216 430 214
f 409 232 431
f 410 341 432
f 433 412 163
f 434 414 435
f 415 394 436
f 437 171 416
f 417 172 438
f 418 397 439
f 328 398 440
f 329 328 440
f 441 422 402
f 441 442 422
f 423 403 443
f 333 200 210
f 426 240 444
f 445 427 214
f 217 428 446
f 447 429 222
f 408 214 448
f 431 232 449
f 432 341 450
f 451 433 163
f 452 414 453
f 415 436 454
f 455 171 437
f 438 172 456
f 457 458 439
f 420 421 459
f 460 459 421
f 442 441 461
f 442 461 462
f 443 403 463
f 424 333 334
f 444 240 464
f 465 445 214
f 217 446 466
f 467 447 222
f 430 468 469
f 449 232 470
f 450 341 471
f 472 451 473
f 474 475 452
f 454 436 476
f 455 477 171
f 438 456 478
f 479 480 457
f 481 482 460
f 460 482 459
f 462 461 483
f 462 483 484
f 443 485 486
f 424 425 487
f 464 240 488
f 489 465 214
f 217 466 490
f 491 467 222
f 469 468 492
f 470 232 493
f 471 341 494
f 495 472 496
f 497 475 498
f 476 436 499
f 500 477 455
f 478 456 501
f 479 502 480
f 503 504 505
f 481 505 482
f 484 483 506
f 484 506 507
f 508 485 509
f 424 487 510
f 488 240 511
f 512 489 214
f 217 490 513
f 514 491 222
f 448 214 515
f 493 232 516
f 494 341 517
f 518 472 495
f 476 499 519
f 520 477 500
f 501 456 521
f 522 502 479
f 523 504 503
f 503 505 481
f 507 506 524
f 507 524 525
f 508 509 526
f 510 487 527
f 511 240 528
f 529 512 214
f 236 513 530
f 531 514 222
f 492 532 533
f 516 232 534
f 517 341 535
f 536 518 537
f 519 499 538
f 539 477 520
f 521 456 175
f 522 540 502
f 523 541 504
f 541 523 542
f 525 524 543
f 525 544 545
f 526 509 546
f 510 527 547
f 528 240 548
f 549 529 214
f 530 550 236
f 551 531 222
f 552 532 553
f 534 232 554
f 535 341 555
f 537 556 536
f 519 538 557
f 558 477 539
f 175 456 559
f 560 540 522
f 541 542 561
f 561 542 562
f 545 544 563
f 545 563 564
f 546 509 565
f 566 567 547
f 548 240 568
f 569 549 214
f 236 550 570
f 571 551 222
f 515 214 572
f 554 232 573
f 555 341 574
f 575 556 576
f 557 538 577
f 578 477 558
f 255 175 559
f 560 579 580
f 561 562 581
f 582 581 583
f 564 563 584
f 564 584 585
f 546 565 586
f 587 567 566
f 568 240 588
f 589 569 214
f 570 590 236
f 591 571 222
f 553 592 593
f 573 232 594
f 574 341 595
f 537 596 575
f 577 538 597
f 598 477 578
f 418 439 458
f 457 480 458
f 582 599 581
f 599 582 600
f 585 584 601
f 585 601 602
f 586 565 603
f 588 240 604
f 223 589 214
f 236 590 605
f 606 591 222
f 607 592 608
f 594 232 609
f 595 341 610
f 611 596 537
f 577 597 612
f 613 477 598
f 560 614 579
f 615 614 560
f 599 600 616
f 616 600 617
f 602 601 618
f 602 618 619
f 603 565 620
f 604 240 621
f 622 223 225
f 605 623 236
f 624 606 222
f 572 214 625
f 609 232 626
f 610 341 627
f 628 611 537
f 612 597 629
f 630 477 613
f 615 631 614
f 631 615 632
f 616 617 633
f 633 617 634
f 619 618 635
f 619 635 636
f 603 620 637
f 621 240 638
f 639 622 225
f 236 623 640
f 641 624 222
f 608 642 643
f 626 232 644
f 610 627 645
f 646 628 537
f 612 629 647
f 648 477 630
f 631 632 649
f 649 632 650
f 633 634 651
f 651 634 652
f 636 635 653
f 636 653 654
f 637 620 655
f 638 240 656
f 657 639 225
f 640 658 236
f 659 641 222
f 660 642 661
f 626 230 662
f 645 627 663
f 664 646 168
f 647 629 665
f 648 666 477
f 649 650 667
f 667 650 668
f 651 652 669
f 669 652 670
f 654 653 671
f 654 671 672
f 655 620 673
f 656 240 674
f 657 225 675
f 236 658 676
f 677 659 222
f 661 678 679
f 662 230 680
f 663 627 681
f 682 664 168
f 665 629 683
f 684 666 648
f 667 668 685
f 685 668 686
f 669 670 687
f 687 670 688
f 689 671 690
f 689 690 691
f 655 673 692
f 674 240 693
f 657 675 694
f 676 695 236
f 696 677 222
f 214 697 625
f 680 230 698
f 681 627 699
f 700 682 701
f 665 683 702
f 703 666 684
f 685 686 704
f 704 686 705
f 687 688 706
f 706 688 707
f 691 690 708
f 691 708 709
f 692 673 710
f 693 240 711
f 694 675 712
f 317 696 222
f 678 713 714
f 698 230 715
f 699 627 716
f 167 700 168
f 702 683 717
f 718 666 703
f 704 705 719
f 719 705 720
f 706 707 721
f 721 707 722
f 709 708 723
f 709 723 724
f 710 673 725
f 711 240 726
f 712 675 727
f 222 365 728
f 729 713 730
f 715 230 731
f 716 627 732
f 167 169 733
f 702 717 734
f 735 666 718
f 719 720 736
f 737 736 738
f 721 739 740
f 740 739 741
f 724 723 742
f 724 742 743
f 710 725 744
f 726 240 745
f 712 727 746
f 387 364 222
f 697 214 747
f 731 230 748
f 732 627 749
f 733 169 164
f 734 717 750
f 751 666 735
f 737 752 736
f 752 737 753
f 740 741 754
f 754 741 755
f 743 742 756
f 743 756 757
f 744 725 758
f 745 240 759
f 746 727 760
f 761 730 762
f 748 230 763
f 749 627 764
f 164 169 165
f 734 750 765
f 766 666 751
f 752 753 767
f 767 753 768
f 754 755 769
f 769 755 770
f 757 756 771
f 757 771 772
f 758 725 773
f 759 240 774
f 760 727 212
f 214 775 747
f 763 230 776
f 764 627 777
f 250 165 251
f 765 750 778
f 779 666 766
f 767 768 780
f 780 768 781
f 769 770 782
f 782 770 783
f 772 771 784
f 772 784 785
f 758 773 786
f 774 240 787
f 212 727 788
f 789 762 790
f 776 230 791
f 777 627 792
f 275 250 249
f 778 750 793
f 794 666 779
f 780 781 795
f 795 781 796
f 782 783 797
f 797 783 798
f 785 784 799
f 785 799 800
f 786 773 801
f 787 240 802
f 212 788 803
f 790 804 805
f 791 230 806
f 792 627 807
f 298 276 275
f 778 793 808
f 809 666 794
f 795 796 810
f 810 796 811
f 797 798 812
f 812 798 813
f 814 799 815
f 814 815 816
f 786 801 817
f 802 240 818
f 212 803 819
f 775 214 820
f 806 230 821
f 807 627 822
f 320 276 297
f 808 793 823
f 824 666 809
f 811 796 825
f 811 825 826
f 812 813 827
f 827 813 828
f 816 815 829
f 816 829 830
f 817 801 831
f 818 240 832
f 212 819 833
f 804 834 835
f 821 230 836
f 822 627 837
f 347 321 320
f 808 823 838
f 824 839 666
f 826 825 840
f 826 840 841
f 827 828 842
f 843 828 844
f 830 829 845
f 830 845 846
f 831 801 847
f 832 240 848
f 212 833 849
f 834 850 851
f 836 230 852
f 822 837 853
f 367 321 346
f 495 839 824
f 841 840 854
f 841 854 855
f 843 844 856
f 856 844 857
f 846 845 858
f 846 858 859
f 831 847 860
f 848 240 861
f 212 849 862
f 820 214 863
f 852 230 864
f 853 837 865
f 393 368 367
f 537 839 495
f 866 854 867
f 866 867 868
f 856 857 869
f 869 857 870
f 859 858 871
f 859 871 872
f 860 847 873
f 861 240 874
f 212 862 875
f 876 850 877
f 864 230 229
f 865 837 878
f 413 368 392
f 537 879 839
f 868 867 880
f 868 880 881
f 869 870 882
f 882 870 883
f 872 871 884
f 872 884 885
f 873 847 886
f 874 240 887
f 212 875 888
f 889 877 890
f 231 230 891
f 878 837 892
f 435 414 413
f 537 893 879
f 881 880 894
f 881 894 895
f 882 883 896
f 896 883 897
f 885 884 898
f 885 898 899
f 873 886 900
f 887 240 901
f 212 888 902
f 863 214 903
f 891 230 904
f 892 837 905
f 453 414 434
f 537 906 893
f 895 894 907
f 895 907 908
f 896 897 909
f 909 897 910
f 899 898 911
f 899 912 913
f 900 886 914
f 901 240 915
f 212 902 916
f 917 890 918
f 904 230 919
f 905 837 920
f 452 475 414
f 537 921 906
f 908 907 922
f 908 922 923
f 909 910 924
f 924 910 925
f 913 912 926
f 913 926 927
f 914 886 928
f 915 240 929
f 212 916 930
f 214 931 903
f 919 230 932
f 920 837 933
f 498 475 474
f 537 934 921
f 923 922 935
f 924 925 936
f 936 925 937
f 927 926 938
f 927 938 939
f 914 928 940
f 929 240 941
f 212 930 942
f 943 918 944
f 932 230 945
f 933 837 946
f 497 947 475
f 537 948 934
f 923 935 949
f 936 950 951
f 939 938 952
f 914 940 953
f 929 954 955
f 212 942 956
f 957 944 958
f 945 230 959
f 946 837 960
f 961 947 497
f 537 962 948
f 949 935 963
f 951 950 964
f 939 952 965
f 914 953 966
f 955 954 967
f 212 956 968
f 890 969 970
f 959 230 971
f 960 837 972
f 973 947 961
f 537 974 962
f 949 963 975
f 951 964 976
f 965 952 977
f 914 966 978
f 967 954 979
f 212 968 980
f 890 970 981
f 959 971 982
f 972 837 983
f 984 947 973
f 537 985 974
f 975 963 986
f 976 964 987
f 965 977 988
f 978 966 989
f 979 954 990
f 212 980 991
f 890 981 992
f 982 971 993
f 983 837 994
f 995 947 984
f 495 518 985
f 975 996 997
f 976 987 998
f 988 977 999
f 978 989 1000
f 990 954 1001
f 212 991 1002
f 890 992 1003
f 982 993 1004
f 994 837 1005
f 995 1006 947
f 646 537 1007
f 997 996 1008
f 998 987 1009
f 988 999 1010
f 978 1000 1011
f 1001 954 1012
f 212 1002 1013
f 890 1003 931
f 1004 993 1014
f 1005 837 1015
f 1016 1006 995
f 646 1007 1017
f 997 1008 1018
f 998 1009 1019
f 1010 999 1020
f 978 1011 1021
f 212 1013 1022
f 931 1003 1023
f 1004 1014 1024
f 1005 1015 1025
f 1026 1006 1016
f 646 1017 1027
f 1018 1008 1028
f 1019 1009 1029
f 1010 1020 1030
f 978 1021 1031
f 212 1022 1032
f 931 1023 1033
f 1004 1024 1034
f 1025 1015 1035
f 1036 1006 1026
f 646 1027 1037
f 1018 1028 1038
f 1019 1029 1039
f 1030 1020 1040
f 1031 1021 1041
f 212 1032 1042
f 1034 1024 1043
f 1035 1015 1044
f 1036 1045 1006
f 646 1037 1046
f 1038 1028 1047
f 1039 1029 1048
f 1031 1041 1049
f 212 1042 1050
f 1034 1043 1051
f 1044 1015 1052
f 1053 1045 1036
f 646 1046 1054
f 1047 1028 1055
f 1039 1048 1056
f 1031 1049 1057
f 212 1050 1058
f 1051 1043 1059
f 1044 1052 1060
f 1061 1045 1053
f 646 1054 1062
f 1047 1055 1063
f 1056 1048 1064
f 1031 1057 1065
f 1058 1066 236
f 1051 1059 1067
f 1060 1052 1068
f 1069 1045 1061
f 646 1062 1070
f 1063 1055 1071
f 1056 1064 1072
f 1031 1065 1073
f 236 1066 1074
f 1067 1059 1075
f 1068 1052 1076
f 1077 1045 1069
f 646 1070 1078
f 1063 1071 1079
f 1072 1064 1080
f 1073 1065 1081
f 1074 1082 236
f 1067 1075 958
f 1076 1052 1083
f 1077 1084 1045
f 646 1078 168
f 1079 1071 1085
f 1073 1081 1086
f 236 1082 1087
f 958 1075 1088
f 1083 1052 1089
f 1090 1084 1077
f 838 823 1091
f 1079 1085 1
f 1073 1086 1092
f 1087 1093 236
f 958 1088 957
f 1083 1089 1094
f 1095 1084 1090
f 1091 823 1096
f 1 1085 1097
f 1073 1092 1098
f 236 1093 1099
f 957 943 944
f 1094 1089 1100
f 1101 1084 1095
f 1091 1096 1102
f 1 1097 1103
f 1098 1092 1104
f 1099 1105 236
f 943 917 918
f 1100 1089 1106
f 1107 1084 1101
f 1102 1096 1108
f 1098 1104 1109
f 236 1105 1110
f 917 1111 890
f 1106 1089 1112
f 1107 1113 1084
f 1102 1108 1114
f 1098 1109 1115
f 1110 1116 236
f 890 1111 889
f 1112 1089 1117
f 1118 1113 1107
f 1114 1108 1119
f 1098 1115 1120
f 236 1116 1121
f 889 876 877
f 1112 1117 1122
f 1123 1113 1118
f 1119 1108 1124
f 1098 1120 1125
f 1121 1126 236
f 876 1127 850
f 1122 1117 1128
f 1129 1113 1123
f 1119 1124 1130
f 1125 1120 1131
f 236 1126 1132
f 850 1127 851
f 1128 1117 1133
f 1129 1134 1113
f 1130 1124 1135
f 1125 1131 1136
f 1132 1137 236
f 834 851 835
f 1133 1117 1138
f 1139 1134 1129
f 1130 1135 1140
f 1125 1136 1141
f 236 1137 1142
f 804 835 805
f 1133 1138 1143
f 1144 1134 1139
f 1140 1135 1145
f 1125 1141 1146
f 1142 1147 236
f 790 805 1148
f 1143 1138 1149
f 1150 1134 1144
f 1145 1135 1151
f 1125 1146 1152
f 236 1147 1153
f 1148 789 790
f 1149 1138 1154
f 1134 1150 1155
f 1145 1151 1156
f 1152 1146 1157
f 1153 1158 236
f 789 761 762
f 1154 1138 1159
f 1134 1155 14
f 1156 1151 1160
f 1152 1157 1161
f 236 1158 1162
f 761 1163 730
f 1159 1138 1164
f 14 1155 1165
f 1156 1160 1166
f 1152 1161 1167
f 1162 1168 236
f 730 1163 729
f 1159 1164 1169
f 14 1165 1170
f 1166 1160 1171
f 1152 1167 379
f 236 1168 1172
f 729 1173 713
f 1169 1164 1174
f 14 1170 389
f 1171 1160 1175
f 1152 379 185
f 1172 1176 236
f 713 1173 714
f 1174 1164 1177
f 389 22 85
f 1171 1175 1178
f 566 547 527
f 236 1176 1179
f 678 714 679
f 1177 1164 1180
f 14 1181 1182
f 1178 1175 1183
f 587 1184 567
f 1179 1185 236
f 661 679 1186
f 1177 1180 1187
f 14 1182 1188
f 1178 1183 1189
f 1184 587 1190
f 236 1185 1191
f 1186 660 661
f 1187 1180 1192
f 14 1188 1193
f 1189 1183 1194
f 1184 1190 1195
f 1191 1196 236
f 660 1197 642
f 1192 1180 1198
f 14 1193 1199
f 1194 1183 1200
f 1201 1195 1190
f 236 1196 1202
f 642 1197 643
f 1192 1203 1204
f 14 1199 1205
f 1194 1200 1206
f 1201 954 1195
f 1202 1207 236
f 608 643 607
f 1204 1203 1208
f 14 1205 1209
f 1206 1200 1210
f 954 1201 1211
f 236 1207 1212
f 607 1213 592
f 1208 1203 1214
f 14 1209 1215
f 1206 1210 1216
f 1217 954 1211
f 1212 1218 236
f 592 1213 593
f 1214 1203 1219
f 14 1215 1220
f 1216 1210 1221
f 236 1218 1222
f 553 593 1223
f 1214 1219 1224
f 14 1220 1225
f 1221 1210 1226
f 1222 1227 236
f 1223 552 553
f 1224 1219 1228
f 1229 14 1225
f 1221 1226 1230
f 236 1227 1231
f 552 1232 532
f 1228 1219 1233
f 1230 1226 1234
f 1231 1235 236
f 532 1232 533
f 1228 1233 1236
f 1230 1234 1237
f 236 1235 1238
f 492 533 1239
f 1236 1233 1240
f 1237 1234 1241
f 1238 1242 236
f 1239 469 492
f 1240 1233 1243
f 1241 1234 1244
f 236 1242 1245
f 430 469 214
f 1240 1246 1247
f 1241 1244 1248
f 1245 1249 236
f 931 1033 1250
f 1247 1246 1251
f 1248 1244 1252
f 236 1249 1253
f 931 1250 1254
f 1247 1251 1255
f 1248 1252 1256
f 1253 1257 236
f 931 1254 1258
f 1255 1251 1259
f 1256 1252 1260
f 236 1257 1261
f 931 1258 1262
f 1259 1251 1263
f 1260 1252 1264
f 1261 217 236
f 931 1262 1265
f 1259 1263 1266
f 1260 1264 1267
f 931 1265 1268
f 1266 1263 1269
f 1267 1264 1270
f 931 1268 1271
f 1266 1269 1272
f 1267 1270 1225
f 931 1271 1273
f 1274 931 1275
f 1225 1270 1276
f 931 1273 1277
f 1278 931 1279
f 1225 1276 1280
f 931 1277 1281
f 1282 1283 1284
f 1225 1280 1285
f 931 1281 1286
f 1287 1288 1289
f 1225 1285 1290
f 931 1286 1272
f 1288 1291 1292
f 1225 1290 1293
f 931 1272 1294
f 1288 1295 1291
f 1225 1293 1229
f 931 1269 1296
f 1288 1297 1298
f 13 14 1299
f 931 1296 1300
f 1288 1301 1302
f 1229 1303 13
f 931 1300 1304
f 1288 1305 1301
f 13 1303 1306
f 1307 931 1274
f 1288 1308 1309
f 1306 1310 13
f 1311 931 1312
f 411 1308 1313
f 13 1310 1314
f 1315 931 1311
f 411 1316 1317
f 1314 1318 13
f 1279 931 1319
f 411 1320 1321
f 13 1318 1322
f 1278 1323 931
f 411 1324 1320
f 1322 1325 13
f 1326 1323 1327
f 411 1328 1329
f 13 1325 1330
f 1326 1331 1323
f 411 1332 1333
f 1330 1334 13
f 1326 1335 1331
f 411 1336 1332
f 13 1334 1337
f 1338 1335 1326
f 411 1339 1340
f 1337 1341 13
f 1338 1342 1335
f 411 1343 1344
f 13 1341 1345
f 1338 1346 1342
f 1345 1347 13
f 1338 1348 1346
f 13 1347 1349
f 1282 1348 1338
f 1349 1350 13
f 1282 1351 1283
f 13 1350 1352
f 1353 1351 1282
f 1352 1354 13
f 1353 1355 1351
f 13 1354 1356
f 1353 1357 1355
f 1356 1358 13
f 1353 1359 1357
f 13 1358 1360
f 1353 1361 1359
f 1360 1362 13
f 1353 1363 1361
f 13 1362 1364
f 1353 1365 1363
f 1364 1366 13
f 1353 1367 1365
f 13 1366 1368
f 1353 1369 1367
f 1368 1370 13
f 1353 1371 1369
f 13 1370 1372
f 1371 1353 1288
f 1372 1373 13
f 1371 1288 1374
f 13 1373 1375
f 1374 1288 1376
f 1375 1377 13
f 1376 1288 1378
f 13 1377 1379
f 1378 1288 1287
f 1379 1380 13
f 1288 1292 1289
f 13 1380 1381
f 1288 1298 1295
f 1381 1382 13
f 1288 1302 1297
f 13 1382 1383
f 1288 1309 1305
f 1383 1384 13
f 411 1317 1308
f 13 1384 1385
f 411 1321 1316
f 1385 1386 13
f 411 1329 1324
f 13 1386 1387
f 411 1333 1328
f 1387 1388 13
f 411 1340 1336
f 13 1388 1389
f 411 1344 1339
f 1389 1390 13
f 411 388 1343
f 13 1390 1391
f 271 222 1392
f 1391 1393 13
f 1394 270 235
f 13 1393 1395
f 1396 1394 235
f 1395 1397 13
f 1398 1396 235
f 13 1397 1399
f 1400 1398 235
f 1399 1401 13
f 234 1400 235
f 13 1401 1402
f 695 234 236
f 1402 1403 13
f 236 217 513
f 13 1403 1404
f 1058 236 212
f 1404 1405 13
f 1261 1406 1407
f 13 1405 1408
f 1261 1407 1409
f 13 1408 243
f 1261 1409 1410
f 243 1411 6
f 1261 1410 1412
f 5 1411 1
f 1261 1412 1413
f 1 1103 1414
f 1261 1413 1415
f 5 1103 1072
f 1261 1415 1416
f 5 1072 1080
f 1261 1416 1417
f 5 1080 1030
f 1261 1417 1418
f 5 1030 1040
f 1261 1418 1419
f 5 1040 954
f 1261 1419 1420
f 5 954 240
f 1261 1420 1421
f 1012 954 1217
f 1261 1421 1422
f 343 212 1423
f 1261 1422 1424
f 1425 1423 212
f 1261 1424 1426
f 1427 1425 212
f 1261 1426 1428
f 1429 1427 212
f 1261 1428 1430
f 1431 1429 212
f 1261 1430 1432
f 1433 1431 212
f 1261 1432 1434
f 1435 1433 212
f 1261 1434 1436
f 1437 1435 212
f 1261 1436 1438
f 1439 1437 212
f 1261 1438 1440
f 1441 1439 212
f 1261 1440 1442
f 1443 1441 212
f 1261 1442 1444
f 1443 212 1261
f 1261 1444 1445
f 1443 1261 1446
f 1261 1445 1447
f 1446 1261 1448
f 1261 1447 1449
f 1448 1261 1450
f 1261 1449 1451
f 1450 1261 1452
f 1261 1451 1453
f 1452 1261 1454
f 1454 1261 1453
f 227 232 228
f 232 226 228
f 1180 1203 1198
f 1203 1192 1198
f 1233 1246 1243
f 1246 1240 1243
f 1272 1269 1455
f 1269 931 1456
f 1455 1514 931
f 1514 1501 931
f 1501 1515 931
f 1515 1457 931
f 1455 1269 1458
f 931 1458 1456
f 1458 1269 1456
f 1300 1275 1304
f 1275 931 1304
f 931 1307 1312
f 1307 1311 1312
f 1323 1278 1327
f 1278 1326 1327
f 1308 1288 1313
f 1288 411 1313
f 365 1392 728
f 1392 222 728
f 1455 1500 1272
f 1500 1294 1272
f 1459 1502 931
f 1502 1455 931
f 931 1294 1460
f 1294 1500 1460
f 1500 1455 1460
f 931 1460 1461
f 1460 1455 1461
f 931 1461 1462
f 1461 1455 1462
f 931 1462 1459
f 1455 1502 1462
f 1502 1459 1462
f 1458 1503 1501
f 1457 1515 1503
f 1515 1501 1503
f 1501 1514 1458
f 1514 1455 1458
f 1457 1503 931
f 1503 1458 931
f 931 1315 1319
f 1315 1279 1319
f 1283 1348 1284
f 1348 1282 1284
f 317 222 342
f 222 271 342
f 232 230 644
f 230 626 644
f 214 224 267
f 224 223 1463
f 267 1513 223
f 1513 1499 223
f 1499 1517 223
f 1517 1464 223
f 1464 1517 224
f 1517 1499 224
f 1499 1513 224
f 1513 267 224
f 1464 1518 223
f 1518 1504 223
f 1504 1516 223
f 1516 1463 223
f 1463 1516 224
f 1516 1504 224
f 1504 1518 224
f 1518 1464 224
f 212 240 213
f 240 211 1465
f 211 213 1466
f 213 240 1467
f 211 1467 1468
f 1467 240 1469
f 211 1469 1470
f 1469 240 1471
f 211 1471 1465
f 1471 240 1465
f 213 1467 1466
f 1467 211 1472
f 1467 1469 1468
f 1469 211 1468
f 1469 1471 1473
f 1471 211 1473
f 240 954 1474
f 954 929 1475
f 954 1476 1474
f 1476 240 1474
f 211 1466 1472
f 1466 1467 1472
f 1469 1473 1470
f 1473 211 1470
f 240 1476 1477
f 1476 929 1477
f 240 1477 941
f 1477 929 941
f 929 1476 1478
f 1476 954 1479
f 954 1478 1480
f 1478 1476 1479
f 1478 1479 1481
f 1479 954 1481
f 1478 1519 929
f 1519 1507 929
f 1507 1520 929
f 1520 1482 929
f 1478 954 1483
f 954 1484 1485
f 1484 1478 1486
f 1478 1481 1487
f 1481 954 1487
f 1484 1508 1507
f 1482 1520 1508
f 1520 1507 1508
f 1507 1519 1484
f 1519 1478 1484
f 1482 1508 929
f 1508 1484 929
f 929 1484 1488
f 1489 1509 954
f 1509 1484 954
f 1484 1486 1490
f 1486 954 1490
f 1478 1487 1491
f 1487 954 1491
f 1488 1505 929
f 1505 1475 929
f 1488 954 1492
f 1475 1506 954
f 1506 1493 954
f 1475 1505 1494
f 1505 1488 1494
f 954 1494 1495
f 1494 1488 1492
f 1484 1490 1485
f 1490 954 1485
f 1478 1491 1480
f 1491 954 1480
f 1494 1492 1495
f 1492 954 1496
f 954 1486 1483
f 1486 1478 1483
f 1493 1506 1494
f 1506 1475 1494
f 1497 1523 954
f 1523 1512 954
f 1512 1522 954
f 1522 1494 954
f 954 1495 1496
f 1495 1492 1496
f 1488 1510 954
f 1510 1489 954
f 1484 1509 1510
f 1509 1489 1510
f 1484 1510 1488
f 403 485 463
f 485 443 463
f 1493 1511 954
f 1511 1497 954
f 1494 1522 1512
f 1511 1521 1522
f 1522 1494 1521
f 1512 1523 1511
f 1523 1497 1511
f 1494 1521 1493
f 1521 1511 1493
f 261 307 285
f 307 181 285
f 485 508 486
f 508 443 486
f 376 354 377
f 354 375 377
f 524 544 543
f 544 525 543
f 671 689 672
f 689 654 672
f 799 814 800
f 814 785 800
f 898 912 911
f 912 899 911
f 398 328 419
f 328 256 419
f 177 328 304
f 328 282 304
f 374 420 399
f 420 353 399
f 581 562 583
f 562 582 583
f 707 739 722
f 739 721 722
f 828 843 842
f 843 827 842
f 925 950 937
f 950 936 937
f 256 175 257
f 175 174 257
f 280 325 302
f 325 175 302
f 579 540 580
f 540 560 580
f 736 720 738
f 720 737 738
f 854 866 855
f 866 841 855
f 963 996 986
f 996 975 986
f 472 163 1498
f 163 495 1498
f 319 163 345
f 163 344 345
f 451 163 473
f 163 472 473
f 472 1498 496
f 1498 495 496
f 556 537 576
f 537 575 576
f 682 168 701
f 168 700 701
f 165 250 166
f 250 164 166
f 14 1229 1299
f 1229 13 1299
f 1103 5 1414
f 5 1 1414
f 85 14 390
f 14 389 390
f 5 6 1411
f 103 104 105
f 163 985 495
f 236 1406 1261
f 240 232 1464
f 316 1 1484
f 1411 1225 1290
f 389 1181 14
f 1103 1030 5
f 1080 954 5
f 200 190 197
f 190 262 188
