v 0.264827 0.016611 -0.622631
v 0.264858 0.015112 -0.620989
v 0.265211 0.013592 -0.619185
v 0.265878 0.012302 -0.617494
v 0.266973 0.011166 -0.615784
v 0.268373 0.010403 -0.614342
v 0.270184 0.010021 -0.613130
v 0.264827 0.115000 -0.622631
v 0.264858 0.115000 -0.620989
v 0.265211 0.115000 -0.619185
v 0.265878 0.115000 -0.617495
v 0.266973 0.115000 -0.615783
v 0.268373 0.115000 -0.614343
v 0.270184 0.115000 -0.613130
v 0.264827 0.220000 -0.622631
v 0.264858 0.220000 -0.620989
v 0.265211 0.220000 -0.619185
v 0.265878 0.220000 -0.617495
v 0.266973 0.220000 -0.615783
v 0.268373 0.220000 -0.614343
v 0.270184 0.220000 -0.613130
f 1 9 2
f 1 8 9
f 2 10 3
f 2 9 10
f 3 11 4
f 3 10 11
f 4 12 5
f 4 11 12
f 5 13 6
f 5 12 13
f 6 14 7
f 6 13 14
f 8 16 9
f 8 15 16
f 9 17 10
f 9 16 17
f 10 18 11
f 10 17 18
f 11 19 12
f 11 18 19
f 12 20 13
f 12 19 20
f 13 21 14
f 13 20 21
