v 0.289202 0.559698 -1.051004
v 0.287932 0.560353 -1.051148
v 0.286692 0.560988 -1.051492
v 0.285509 0.561591 -1.052030
v 0.284406 0.562151 -1.052751
v 0.283405 0.562656 -1.053639
v 0.282528 0.563097 -1.054677
v 0.281792 0.563465 -1.055843
v 0.281212 0.563755 -1.057113
v 0.280800 0.563960 -1.058462
v 0.280564 0.564078 -1.059862
v 0.238587 0.433707 -1.051004
v 0.237328 0.434396 -1.051148
v 0.236101 0.435065 -1.051493
v 0.234929 0.435699 -1.052032
v 0.233837 0.436286 -1.052754
v 0.232846 0.436816 -1.053643
v 0.231978 0.437277 -1.054681
v 0.231250 0.437663 -1.055847
v 0.230676 0.437965 -1.057117
v 0.230269 0.438180 -1.058465
v 0.230035 0.438302 -1.059863
f 1 13 2
f 1 12 13
f 2 14 3
f 2 13 14
f 3 15 4
f 3 14 15
f 4 16 5
f 4 15 16
f 5 17 6
f 5 16 17
f 6 18 7
f 6 17 18
f 7 19 8
f 7 18 19
f 8 20 9
f 8 19 20
f 9 21 10
f 9 20 21
f 10 22 11
f 10 21 22
