v 0.178288 -0.604246 -1.084841
v 0.178288 -0.604246 -1.061000
v 0.150368 -0.471608 -1.061000
v 0.150368 -0.471608 -1.120893
v 0.150874 -0.474011 -1.120241
v 0.151379 -0.476413 -1.119588
v 0.151885 -0.478816 -1.118935
v 0.152391 -0.481219 -1.118283
v 0.152897 -0.483622 -1.117630
v 0.153403 -0.486026 -1.116977
v 0.153909 -0.488431 -1.116324
v 0.154415 -0.490835 -1.115670
v 0.154921 -0.493240 -1.115017
v 0.155428 -0.495645 -1.114363
v 0.155934 -0.498051 -1.113710
v 0.156440 -0.500457 -1.113056
v 0.156947 -0.502863 -1.112402
v 0.157454 -0.505270 -1.111748
v 0.157960 -0.507677 -1.111094
v 0.158467 -0.510085 -1.110440
v 0.158974 -0.512492 -1.109786
v 0.159481 -0.514901 -1.109131
v 0.159988 -0.517309 -1.108477
v 0.160495 -0.519718 -1.107822
v 0.161002 -0.522127 -1.107167
v 0.161509 -0.524537 -1.106512
v 0.162016 -0.526947 -1.105857
v 0.162524 -0.529357 -1.105202
v 0.163031 -0.531768 -1.104547
v 0.163539 -0.534179 -1.103892
v 0.164046 -0.536590 -1.103236
v 0.164554 -0.539002 -1.102581
v 0.165062 -0.541414 -1.101925
v 0.165569 -0.543826 -1.101269
v 0.166077 -0.546239 -1.100613
v 0.166585 -0.548652 -1.099957
v 0.167093 -0.551065 -1.099301
v 0.167601 -0.553479 -1.098645
v 0.168110 -0.555893 -1.097989
v 0.168618 -0.558308 -1.097332
v 0.169126 -0.560723 -1.096676
v 0.169634 -0.563138 -1.096019
v 0.170143 -0.565553 -1.095363
v 0.170651 -0.567969 -1.094706
v 0.171160 -0.570385 -1.094049
v 0.171669 -0.572801 -1.093392
v 0.172177 -0.575218 -1.092735
v 0.172686 -0.577635 -1.092078
v 0.173195 -0.580053 -1.091420
v 0.173704 -0.582471 -1.090763
v 0.174213 -0.584889 -1.090105
v 0.174722 -0.587307 -1.089448
v 0.175231 -0.589726 -1.088790
v 0.175741 -0.592145 -1.088132
v 0.176250 -0.594565 -1.087474
v 0.176759 -0.596985 -1.086816
v 0.177269 -0.599405 -1.086158
v 0.177778 -0.601825 -1.085500
f 1 3 2
f 1 4 3
f 1 5 4
f 1 6 5
f 1 7 6
f 1 8 7
f 1 9 8
f 1 10 9
f 1 11 10
f 1 12 11
f 1 13 12
f 1 14 13
f 1 15 14
f 1 16 15
f 1 17 16
f 1 18 17
f 1 19 18
f 1 20 19
f 1 21 20
f 1 22 21
f 1 23 22
f 1 24 23
f 1 25 24
f 1 26 25
f 1 27 26
f 1 28 27
f 1 29 28
f 1 30 29
f 1 31 30
f 1 32 31
f 1 33 32
f 1 34 33
f 1 35 34
f 1 36 35
f 1 37 36
f 1 38 37
f 1 39 38
f 1 40 39
f 1 41 40
f 1 42 41
f 1 43 42
f 1 44 43
f 1 45 44
f 1 46 45
f 1 47 46
f 1 48 47
f 1 49 48
f 1 50 49
f 1 51 50
f 1 52 51
f 1 53 52
f 1 54 53
f 1 55 54
f 1 56 55
f 1 57 56
f 1 58 57
