v -0.640822 0.157948 -0.860000
v -0.673498 0.045008 -0.825000
v -0.673145 0.050015 -0.825000
v -0.648275 0.188056 -0.825000
v -0.646859 0.192870 -0.825000
v -0.646622 0.192784 -0.825587
v -0.646385 0.192698 -0.826174
v -0.646148 0.192612 -0.826760
v -0.645912 0.192526 -0.827347
v -0.645675 0.192439 -0.827934
v -0.645438 0.192353 -0.828520
v -0.645202 0.192267 -0.829107
v -0.644965 0.192181 -0.829693
v -0.644729 0.192095 -0.830279
v -0.644492 0.192009 -0.830866
v -0.644256 0.191923 -0.831452
v -0.644019 0.191837 -0.832038
v -0.643783 0.191751 -0.832624
v -0.643546 0.191665 -0.833210
v -0.643310 0.191579 -0.833796
v -0.643074 0.191493 -0.834382
v -0.642837 0.191407 -0.834968
v -0.642601 0.191321 -0.835553
v -0.642365 0.191235 -0.836139
v -0.642129 0.191149 -0.836724
v -0.641892 0.191063 -0.837310
v -0.641656 0.190977 -0.837895
v -0.641420 0.190891 -0.838481
v -0.641184 0.190805 -0.839066
v -0.640948 0.190719 -0.839651
v -0.640712 0.190633 -0.840236
v -0.640476 0.190547 -0.840821
v -0.640240 0.190461 -0.841406
v -0.640004 0.190375 -0.841991
v -0.639768 0.190289 -0.842576
v -0.639532 0.190203 -0.843161
v -0.639296 0.190118 -0.843746
v -0.639060 0.190032 -0.844330
v -0.638824 0.189946 -0.844915
v -0.638588 0.189860 -0.845499
v -0.638353 0.189774 -0.846084
v -0.638117 0.189688 -0.846668
v -0.637881 0.189603 -0.847252
v -0.637645 0.189517 -0.847837
v -0.637410 0.189431 -0.848421
v -0.637174 0.189345 -0.849005
v -0.636938 0.189260 -0.849589
v -0.636703 0.189174 -0.850173
v -0.636467 0.189088 -0.850757
v -0.636232 0.189002 -0.851340
v -0.635996 0.188917 -0.851924
v -0.635761 0.188831 -0.852508
v -0.635525 0.188745 -0.853091
v -0.635290 0.188659 -0.853675
v -0.635054 0.188574 -0.854258
v -0.634819 0.188488 -0.854842
v -0.634584 0.188402 -0.855425
v -0.634348 0.188317 -0.856008
v -0.634113 0.188231 -0.856591
v -0.633878 0.188146 -0.857174
v -0.606516 0.263321 -0.857174
v -0.606752 0.263407 -0.856591
v -0.606987 0.263492 -0.856008
v -0.607222 0.263578 -0.855425
v -0.607457 0.263664 -0.854842
v -0.607693 0.263749 -0.854258
v -0.607928 0.263835 -0.853675
v -0.608164 0.263921 -0.853091
v -0.608399 0.264006 -0.852508
v -0.608635 0.264092 -0.851924
v -0.608870 0.264178 -0.851340
v -0.609106 0.264263 -0.850757
v -0.609341 0.264349 -0.850173
v -0.609577 0.264435 -0.849589
v -0.609812 0.264521 -0.849005
v -0.610048 0.264606 -0.848421
v -0.610284 0.264692 -0.847837
v -0.610519 0.264778 -0.847252
v -0.610755 0.264864 -0.846668
v -0.610991 0.264950 -0.846084
v -0.611227 0.265035 -0.845499
v -0.611462 0.265121 -0.844915
v -0.611698 0.265207 -0.844330
v -0.611934 0.265293 -0.843746
v -0.612170 0.265379 -0.843161
v -0.612406 0.265465 -0.842576
v -0.612642 0.265551 -0.841991
v -0.612878 0.265636 -0.841406
v -0.613114 0.265722 -0.840822
v -0.613350 0.265808 -0.840236
v -0.613586 0.265894 -0.839651
v -0.613822 0.265980 -0.839066
v -0.614058 0.266066 -0.838481
v -0.614294 0.266152 -0.837896
v -0.614531 0.266238 -0.837310
v -0.614767 0.266324 -0.836725
v -0.615003 0.266410 -0.836139
v -0.615239 0.266496 -0.835553
v -0.615476 0.266582 -0.834968
v -0.615712 0.266668 -0.834382
v -0.615948 0.266754 -0.833796
v -0.616185 0.266840 -0.833210
v -0.616421 0.266926 -0.832624
v -0.616658 0.267012 -0.832038
v -0.616894 0.267098 -0.831452
v -0.617131 0.267184 -0.830866
v -0.617367 0.267270 -0.830280
v -0.617604 0.267356 -0.829693
v -0.617840 0.267443 -0.829107
v -0.618077 0.267529 -0.828520
v -0.618313 0.267615 -0.827934
v -0.618550 0.267701 -0.827347
v -0.618787 0.267787 -0.826761
v -0.619260 0.267959 -0.825587
v -0.619023 0.267873 -0.826174
v -0.617487 0.272644 -0.825000
v -0.619497 0.268046 -0.825000
v -0.544860 0.398438 -0.825000
v -0.541883 0.402477 -0.825000
v -0.541690 0.402315 -0.825587
v -0.541497 0.402153 -0.826174
v -0.541304 0.401992 -0.826760
v -0.541111 0.401830 -0.827347
v -0.540918 0.401668 -0.827934
v -0.540725 0.401506 -0.828520
v -0.540532 0.401344 -0.829107
v -0.540339 0.401182 -0.829693
v -0.540146 0.401020 -0.830279
v -0.539954 0.400859 -0.830866
v -0.539761 0.400697 -0.831452
v -0.539568 0.400535 -0.832038
v -0.539375 0.400373 -0.832624
v -0.539183 0.400212 -0.833210
v -0.538990 0.400050 -0.833796
v -0.538797 0.399888 -0.834382
v -0.538605 0.399727 -0.834968
v -0.538412 0.399565 -0.835553
v -0.538219 0.399403 -0.836139
v -0.538027 0.399242 -0.836724
v -0.537834 0.399080 -0.837310
v -0.537642 0.398919 -0.837895
v -0.537449 0.398757 -0.838481
v -0.537257 0.398596 -0.839066
v -0.537064 0.398434 -0.839651
v -0.536872 0.398273 -0.840236
v -0.536679 0.398111 -0.840821
v -0.536487 0.397950 -0.841406
v -0.536295 0.397788 -0.841991
v -0.536102 0.397627 -0.842576
v -0.535910 0.397466 -0.843161
v -0.535718 0.397304 -0.843746
v -0.535525 0.397143 -0.844330
v -0.535333 0.396981 -0.844915
v -0.535141 0.396820 -0.845499
v -0.534949 0.396659 -0.846084
v -0.534756 0.396498 -0.846668
v -0.534564 0.396336 -0.847252
v -0.534372 0.396175 -0.847837
v -0.534180 0.396014 -0.848421
v -0.533988 0.395853 -0.849005
v -0.533796 0.395692 -0.849589
v -0.533604 0.395530 -0.850173
v -0.533412 0.395369 -0.850757
v -0.533220 0.395208 -0.851340
v -0.533028 0.395047 -0.851924
v -0.532836 0.394886 -0.852508
v -0.532644 0.394725 -0.853091
v -0.532452 0.394564 -0.853675
v -0.532260 0.394403 -0.854258
v -0.532068 0.394242 -0.854842
v -0.531876 0.394081 -0.855425
v -0.531684 0.393920 -0.856008
v -0.531493 0.393759 -0.856591
v -0.531301 0.393598 -0.857174
v -0.479878 0.454882 -0.857174
v -0.480070 0.455043 -0.856591
v -0.480261 0.455203 -0.856008
v -0.480453 0.455364 -0.855425
v -0.480645 0.455525 -0.854842
v -0.480837 0.455686 -0.854258
v -0.481029 0.455847 -0.853675
v -0.481221 0.456008 -0.853091
v -0.481413 0.456169 -0.852508
v -0.481605 0.456331 -0.851924
v -0.481797 0.456492 -0.851340
v -0.481989 0.456653 -0.850757
v -0.482181 0.456814 -0.850173
v -0.482373 0.456975 -0.849589
v -0.482565 0.457136 -0.849005
v -0.482757 0.457297 -0.848421
v -0.482949 0.457459 -0.847837
v -0.483141 0.457620 -0.847252
v -0.483333 0.457781 -0.846668
v -0.483526 0.457942 -0.846084
v -0.483718 0.458104 -0.845499
v -0.483910 0.458265 -0.844915
v -0.484102 0.458426 -0.844330
v -0.484295 0.458588 -0.843746
v -0.484487 0.458749 -0.843161
v -0.484679 0.458910 -0.842576
v -0.484872 0.459072 -0.841991
v -0.485064 0.459233 -0.841406
v -0.485256 0.459395 -0.840822
v -0.485449 0.459556 -0.840236
v -0.485641 0.459718 -0.839651
v -0.485834 0.459879 -0.839066
v -0.486026 0.460041 -0.838481
v -0.486219 0.460202 -0.837896
v -0.486411 0.460364 -0.837310
v -0.486604 0.460525 -0.836725
v -0.486796 0.460687 -0.836139
v -0.486989 0.460849 -0.835553
v -0.487182 0.461010 -0.834968
v -0.487374 0.461172 -0.834382
v -0.487567 0.461333 -0.833796
v -0.487760 0.461495 -0.833210
v -0.487952 0.461657 -0.832624
v -0.488145 0.461819 -0.832038
v -0.488338 0.461980 -0.831452
v -0.488531 0.462142 -0.830866
v -0.488723 0.462304 -0.830280
v -0.488916 0.462466 -0.829693
v -0.489109 0.462628 -0.829107
v -0.489302 0.462789 -0.828520
v -0.489495 0.462951 -0.827934
v -0.489688 0.463113 -0.827347
v -0.489881 0.463275 -0.826761
v -0.490267 0.463599 -0.825587
v -0.490074 0.463437 -0.826174
v -0.486998 0.467395 -0.825000
v -0.490460 0.463761 -0.825000
v -0.375727 0.560762 -0.825000
v -0.371548 0.563540 -0.825000
v -0.371422 0.563322 -0.825587
v -0.371296 0.563103 -0.826174
v -0.371170 0.562885 -0.826760
v -0.371044 0.562667 -0.827347
v -0.370918 0.562449 -0.827934
v -0.370792 0.562231 -0.828520
v -0.370666 0.562013 -0.829107
v -0.370540 0.561795 -0.829693
v -0.370415 0.561577 -0.830279
v -0.370289 0.561359 -0.830866
v -0.370163 0.561141 -0.831452
v -0.370037 0.560923 -0.832038
v -0.369911 0.560705 -0.832624
v -0.369785 0.560487 -0.833210
v -0.369660 0.560269 -0.833796
v -0.369534 0.560052 -0.834382
v -0.369408 0.559834 -0.834968
v -0.369282 0.559616 -0.835553
v -0.369157 0.559398 -0.836139
v -0.369031 0.559181 -0.836724
v -0.368905 0.558963 -0.837310
v -0.368780 0.558745 -0.837895
v -0.368654 0.558528 -0.838481
v -0.368528 0.558310 -0.839066
v -0.368403 0.558092 -0.839651
v -0.368277 0.557875 -0.840236
v -0.368152 0.557657 -0.840821
v -0.368026 0.557440 -0.841406
v -0.367900 0.557222 -0.841991
v -0.367775 0.557005 -0.842576
v -0.367649 0.556787 -0.843161
v -0.367524 0.556570 -0.843746
v -0.367398 0.556353 -0.844330
v -0.367273 0.556135 -0.844915
v -0.367147 0.555918 -0.845499
v -0.367022 0.555701 -0.846084
v -0.366896 0.555483 -0.846668
v -0.366771 0.555266 -0.847252
v -0.366646 0.555049 -0.847837
v -0.366520 0.554832 -0.848421
v -0.366395 0.554614 -0.849005
v -0.366269 0.554397 -0.849589
v -0.366144 0.554180 -0.850173
v -0.366019 0.553963 -0.850757
v -0.365893 0.553746 -0.851340
v -0.365768 0.553529 -0.851924
v -0.365643 0.553312 -0.852508
v -0.365518 0.553095 -0.853091
v -0.365392 0.552878 -0.853675
v -0.365267 0.552661 -0.854258
v -0.365142 0.552444 -0.854842
v -0.365017 0.552227 -0.855425
v -0.364891 0.552010 -0.856008
v -0.364766 0.551794 -0.856591
v -0.364641 0.551577 -0.857174
v -0.295359 0.591577 -0.857174
v -0.295484 0.591794 -0.856591
v -0.295609 0.592010 -0.856008
v -0.295735 0.592227 -0.855425
v -0.295860 0.592444 -0.854842
v -0.295985 0.592661 -0.854258
v -0.296110 0.592878 -0.853675
v -0.296236 0.593095 -0.853091
v -0.296361 0.593312 -0.852508
v -0.296486 0.593529 -0.851924
v -0.296611 0.593746 -0.851340
v -0.296737 0.593963 -0.850757
v -0.296862 0.594180 -0.850173
v -0.296987 0.594397 -0.849589
v -0.297113 0.594614 -0.849005
v -0.297238 0.594832 -0.848421
v -0.297364 0.595049 -0.847837
v -0.297489 0.595266 -0.847252
v -0.297614 0.595483 -0.846668
v -0.297740 0.595701 -0.846084
v -0.297865 0.595918 -0.845499
v -0.297991 0.596135 -0.844915
v -0.298116 0.596353 -0.844330
v -0.298242 0.596570 -0.843746
v -0.298367 0.596787 -0.843161
v -0.298493 0.597005 -0.842576
v -0.298618 0.597222 -0.841991
v -0.298744 0.597440 -0.841406
v -0.298870 0.597657 -0.840822
v -0.298995 0.597875 -0.840236
v -0.299121 0.598092 -0.839651
v -0.299246 0.598310 -0.839066
v -0.299372 0.598527 -0.838481
v -0.299498 0.598745 -0.837896
v -0.299623 0.598963 -0.837310
v -0.299749 0.599180 -0.836725
v -0.299875 0.599398 -0.836139
v -0.300000 0.599616 -0.835553
v -0.300126 0.599834 -0.834968
v -0.300252 0.600052 -0.834382
v -0.300378 0.600269 -0.833796
v -0.300503 0.600487 -0.833210
v -0.300629 0.600705 -0.832624
v -0.300755 0.600923 -0.832038
v -0.300881 0.601141 -0.831452
v -0.301007 0.601359 -0.830866
v -0.301133 0.601577 -0.830280
v -0.301258 0.601795 -0.829693
v -0.301384 0.602013 -0.829107
v -0.301510 0.602231 -0.828520
v -0.301636 0.602449 -0.827934
v -0.301762 0.602667 -0.827347
v -0.301888 0.602885 -0.826761
v -0.302140 0.603322 -0.825587
v -0.302014 0.603103 -0.826174
v -0.297770 0.605770 -0.825000
v -0.302266 0.603540 -0.825000
v -0.161276 0.655450 -0.825000
v -0.156399 0.656631 -0.825000
v -0.156355 0.656383 -0.825587
v -0.156311 0.656135 -0.826174
v -0.156268 0.655887 -0.826760
v -0.156224 0.655639 -0.827347
v -0.156180 0.655391 -0.827934
v -0.156136 0.655143 -0.828520
v -0.156093 0.654895 -0.829107
v -0.156049 0.654647 -0.829693
v -0.156005 0.654399 -0.830279
v -0.155962 0.654151 -0.830866
v -0.155918 0.653903 -0.831452
v -0.155874 0.653655 -0.832038
v -0.155830 0.653408 -0.832624
v -0.155787 0.653160 -0.833210
v -0.155743 0.652912 -0.833796
v -0.155699 0.652664 -0.834382
v -0.155656 0.652417 -0.834968
v -0.155612 0.652169 -0.835553
v -0.155568 0.651921 -0.836139
v -0.155525 0.651674 -0.836724
v -0.155481 0.651426 -0.837310
v -0.155437 0.651179 -0.837895
v -0.155394 0.650931 -0.838481
v -0.155350 0.650684 -0.839066
v -0.155307 0.650436 -0.839651
v -0.155263 0.650189 -0.840236
v -0.155219 0.649942 -0.840821
v -0.155176 0.649694 -0.841406
v -0.155132 0.649447 -0.841991
v -0.155088 0.649200 -0.842576
v -0.155045 0.648952 -0.843161
v -0.155001 0.648705 -0.843746
v -0.154958 0.648458 -0.844330
v -0.154914 0.648211 -0.844915
v -0.154871 0.647964 -0.845499
v -0.154827 0.647717 -0.846084
v -0.154783 0.647470 -0.846668
v -0.154740 0.647223 -0.847252
v -0.154696 0.646975 -0.847837
v -0.154653 0.646729 -0.848421
v -0.154609 0.646482 -0.849005
v -0.154566 0.646235 -0.849589
v -0.154522 0.645988 -0.850173
v -0.154479 0.645741 -0.850757
v -0.154435 0.645494 -0.851340
v -0.154392 0.645247 -0.851924
v -0.154348 0.645000 -0.852508
v -0.154305 0.644754 -0.853091
v -0.154261 0.644507 -0.853675
v -0.154218 0.644260 -0.854258
v -0.154174 0.644014 -0.854842
v -0.154131 0.643767 -0.855425
v -0.154087 0.643520 -0.856008
v -0.154044 0.643274 -0.856591
v -0.154000 0.643027 -0.857174
v -0.075215 0.656919 -0.857174
v -0.075259 0.657166 -0.856591
v -0.075302 0.657412 -0.856008
v -0.075346 0.657659 -0.855425
v -0.075389 0.657905 -0.854842
v -0.075433 0.658152 -0.854258
v -0.075476 0.658399 -0.853675
v -0.075520 0.658645 -0.853091
v -0.075563 0.658892 -0.852508
v -0.075607 0.659139 -0.851924
v -0.075650 0.659386 -0.851340
v -0.075694 0.659633 -0.850757
v -0.075737 0.659880 -0.850173
v -0.075781 0.660126 -0.849589
v -0.075825 0.660373 -0.849005
v -0.075868 0.660620 -0.848421
v -0.075912 0.660867 -0.847837
v -0.075955 0.661114 -0.847252
v -0.075999 0.661361 -0.846668
v -0.076042 0.661608 -0.846084
v -0.076086 0.661856 -0.845499
v -0.076129 0.662103 -0.844915
v -0.076173 0.662350 -0.844330
v -0.076217 0.662597 -0.843746
v -0.076260 0.662844 -0.843161
v -0.076304 0.663092 -0.842576
v -0.076347 0.663339 -0.841991
v -0.076391 0.663586 -0.841406
v -0.076435 0.663833 -0.840822
v -0.076478 0.664081 -0.840236
v -0.076522 0.664328 -0.839651
v -0.076566 0.664576 -0.839066
v -0.076609 0.664823 -0.838481
v -0.076653 0.665071 -0.837896
v -0.076696 0.665318 -0.837310
v -0.076740 0.665566 -0.836725
v -0.076784 0.665813 -0.836139
v -0.076827 0.666061 -0.835553
v -0.076871 0.666309 -0.834968
v -0.076915 0.666556 -0.834382
v -0.076958 0.666804 -0.833796
v -0.077002 0.667052 -0.833210
v -0.077046 0.667299 -0.832624
v -0.077090 0.667547 -0.832038
v -0.077133 0.667795 -0.831452
v -0.077177 0.668043 -0.830866
v -0.077221 0.668291 -0.830280
v -0.077264 0.668539 -0.829693
v -0.077308 0.668787 -0.829107
v -0.077352 0.669035 -0.828520
v -0.077396 0.669283 -0.827934
v -0.077439 0.669531 -0.827347
v -0.077483 0.669779 -0.826761
v -0.077570 0.670275 -0.825587
v -0.077527 0.670027 -0.826174
v -0.072627 0.671081 -0.825000
v -0.077614 0.670523 -0.825000
v 0.072627 0.671081 -0.825000
v 0.077614 0.670523 -0.825000
v 0.077570 0.670275 -0.825587
v 0.077527 0.670027 -0.826174
v 0.077483 0.669779 -0.826760
v 0.077439 0.669531 -0.827347
v 0.077396 0.669283 -0.827934
v 0.077352 0.669035 -0.828520
v 0.077308 0.668787 -0.829107
v 0.077264 0.668539 -0.829693
v 0.077221 0.668291 -0.830279
v 0.077177 0.668043 -0.830866
v 0.077133 0.667795 -0.831452
v 0.077090 0.667547 -0.832038
v 0.077046 0.667299 -0.832624
v 0.077002 0.667052 -0.833210
v 0.076958 0.666804 -0.833796
v 0.076915 0.666556 -0.834382
v 0.076871 0.666309 -0.834968
v 0.076827 0.666061 -0.835553
v 0.076784 0.665813 -0.836139
v 0.076740 0.665566 -0.836724
v 0.076696 0.665318 -0.837310
v 0.076653 0.665071 -0.837895
v 0.076609 0.664823 -0.838481
v 0.076566 0.664576 -0.839066
v 0.076522 0.664328 -0.839651
v 0.076478 0.664081 -0.840236
v 0.076435 0.663834 -0.840821
v 0.076391 0.663586 -0.841406
v 0.076347 0.663339 -0.841991
v 0.076304 0.663092 -0.842576
v 0.076260 0.662844 -0.843161
v 0.076217 0.662597 -0.843746
v 0.076173 0.662350 -0.844330
v 0.076130 0.662103 -0.844915
v 0.076086 0.661856 -0.845499
v 0.076042 0.661608 -0.846084
v 0.075999 0.661361 -0.846668
v 0.075955 0.661114 -0.847252
v 0.075912 0.660867 -0.847837
v 0.075868 0.660620 -0.848421
v 0.075825 0.660373 -0.849005
v 0.075781 0.660126 -0.849589
v 0.075738 0.659880 -0.850173
v 0.075694 0.659633 -0.850757
v 0.075650 0.659386 -0.851340
v 0.075607 0.659139 -0.851924
v 0.075563 0.658892 -0.852508
v 0.075520 0.658645 -0.853091
v 0.075476 0.658399 -0.853675
v 0.075433 0.658152 -0.854258
v 0.075389 0.657905 -0.854842
v 0.075346 0.657659 -0.855425
v 0.075302 0.657412 -0.856008
v 0.075259 0.657166 -0.856591
v 0.075215 0.656919 -0.857174
v 0.154000 0.643027 -0.857174
v 0.154044 0.643274 -0.856591
v 0.154087 0.643520 -0.856008
v 0.154131 0.643767 -0.855425
v 0.154174 0.644014 -0.854842
v 0.154218 0.644260 -0.854258
v 0.154261 0.644507 -0.853675
v 0.154305 0.644754 -0.853091
v 0.154348 0.645000 -0.852508
v 0.154392 0.645247 -0.851924
v 0.154435 0.645494 -0.851340
v 0.154479 0.645741 -0.850757
v 0.154522 0.645988 -0.850173
v 0.154566 0.646235 -0.849589
v 0.154609 0.646481 -0.849005
v 0.154653 0.646728 -0.848421
v 0.154696 0.646975 -0.847837
v 0.154740 0.647222 -0.847252
v 0.154783 0.647469 -0.846668
v 0.154827 0.647717 -0.846084
v 0.154871 0.647964 -0.845499
v 0.154914 0.648211 -0.844915
v 0.154958 0.648458 -0.844330
v 0.155001 0.648705 -0.843746
v 0.155045 0.648952 -0.843161
v 0.155088 0.649200 -0.842576
v 0.155132 0.649447 -0.841991
v 0.155176 0.649694 -0.841406
v 0.155219 0.649942 -0.840822
v 0.155263 0.650189 -0.840236
v 0.155307 0.650436 -0.839651
v 0.155350 0.650684 -0.839066
v 0.155394 0.650931 -0.838481
v 0.155437 0.651179 -0.837896
v 0.155481 0.651426 -0.837310
v 0.155525 0.651674 -0.836725
v 0.155568 0.651921 -0.836139
v 0.155612 0.652169 -0.835553
v 0.155656 0.652417 -0.834968
v 0.155699 0.652664 -0.834382
v 0.155743 0.652912 -0.833796
v 0.155787 0.653160 -0.833210
v 0.155830 0.653408 -0.832624
v 0.155874 0.653655 -0.832038
v 0.155918 0.653903 -0.831452
v 0.155962 0.654151 -0.830866
v 0.156005 0.654399 -0.830280
v 0.156049 0.654647 -0.829693
v 0.156093 0.654895 -0.829107
v 0.156136 0.655143 -0.828520
v 0.156180 0.655391 -0.827934
v 0.156224 0.655639 -0.827347
v 0.156268 0.655887 -0.826761
v 0.156355 0.656383 -0.825587
v 0.156311 0.656135 -0.826174
v 0.161276 0.655450 -0.825000
v 0.156399 0.656631 -0.825000
v 0.297770 0.605770 -0.825000
v 0.302266 0.603540 -0.825000
v 0.302140 0.603322 -0.825587
v 0.302014 0.603103 -0.826174
v 0.301888 0.602885 -0.826760
v 0.301762 0.602667 -0.827347
v 0.301636 0.602449 -0.827934
v 0.301510 0.602231 -0.828520
v 0.301384 0.602013 -0.829107
v 0.301258 0.601795 -0.829693
v 0.301133 0.601577 -0.830279
v 0.301007 0.601359 -0.830866
v 0.300881 0.601141 -0.831452
v 0.300755 0.600923 -0.832038
v 0.300629 0.600705 -0.832624
v 0.300503 0.600487 -0.833210
v 0.300378 0.600269 -0.833796
v 0.300252 0.600052 -0.834382
v 0.300126 0.599834 -0.834968
v 0.300000 0.599616 -0.835553
v 0.299875 0.599398 -0.836139
v 0.299749 0.599181 -0.836724
v 0.299623 0.598963 -0.837310
v 0.299498 0.598745 -0.837895
v 0.299372 0.598528 -0.838481
v 0.299246 0.598310 -0.839066
v 0.299121 0.598092 -0.839651
v 0.298995 0.597875 -0.840236
v 0.298870 0.597657 -0.840821
v 0.298744 0.597440 -0.841406
v 0.298618 0.597222 -0.841991
v 0.298493 0.597005 -0.842576
v 0.298367 0.596787 -0.843161
v 0.298242 0.596570 -0.843746
v 0.298116 0.596353 -0.844330
v 0.297991 0.596135 -0.844915
v 0.297865 0.595918 -0.845499
v 0.297740 0.595701 -0.846084
v 0.297614 0.595483 -0.846668
v 0.297489 0.595266 -0.847252
v 0.297364 0.595049 -0.847837
v 0.297238 0.594832 -0.848421
v 0.297113 0.594614 -0.849005
v 0.296987 0.594397 -0.849589
v 0.296862 0.594180 -0.850173
v 0.296737 0.593963 -0.850757
v 0.296611 0.593746 -0.851340
v 0.296486 0.593529 -0.851924
v 0.296361 0.593312 -0.852508
v 0.296236 0.593095 -0.853091
v 0.296110 0.592878 -0.853675
v 0.295985 0.592661 -0.854258
v 0.295860 0.592444 -0.854842
v 0.295735 0.592227 -0.855425
v 0.295609 0.592010 -0.856008
v 0.295484 0.591794 -0.856591
v 0.295359 0.591577 -0.857174
v 0.364641 0.551577 -0.857174
v 0.364766 0.551794 -0.856591
v 0.364891 0.552010 -0.856008
v 0.365017 0.552227 -0.855425
v 0.365142 0.552444 -0.854842
v 0.365267 0.552661 -0.854258
v 0.365392 0.552878 -0.853675
v 0.365518 0.553095 -0.853091
v 0.365643 0.553312 -0.852508
v 0.365768 0.553529 -0.851924
v 0.365893 0.553746 -0.851340
v 0.366019 0.553963 -0.850757
v 0.366144 0.554180 -0.850173
v 0.366269 0.554397 -0.849589
v 0.366395 0.554614 -0.849005
v 0.366520 0.554832 -0.848421
v 0.366646 0.555049 -0.847837
v 0.366771 0.555266 -0.847252
v 0.366896 0.555483 -0.846668
v 0.367022 0.555701 -0.846084
v 0.367147 0.555918 -0.845499
v 0.367273 0.556135 -0.844915
v 0.367398 0.556353 -0.844330
v 0.367524 0.556570 -0.843746
v 0.367649 0.556787 -0.843161
v 0.367775 0.557005 -0.842576
v 0.367900 0.557222 -0.841991
v 0.368026 0.557440 -0.841406
v 0.368152 0.557657 -0.840822
v 0.368277 0.557875 -0.840236
v 0.368403 0.558092 -0.839651
v 0.368528 0.558310 -0.839066
v 0.368654 0.558527 -0.838481
v 0.368780 0.558745 -0.837896
v 0.368905 0.558963 -0.837310
v 0.369031 0.559180 -0.836725
v 0.369157 0.559398 -0.836139
v 0.369282 0.559616 -0.835553
v 0.369408 0.559834 -0.834968
v 0.369534 0.560052 -0.834382
v 0.369660 0.560269 -0.833796
v 0.369785 0.560487 -0.833210
v 0.369911 0.560705 -0.832624
v 0.370037 0.560923 -0.832038
v 0.370163 0.561141 -0.831452
v 0.370289 0.561359 -0.830866
v 0.370415 0.561577 -0.830280
v 0.370540 0.561795 -0.829693
v 0.370666 0.562013 -0.829107
v 0.370792 0.562231 -0.828520
v 0.370918 0.562449 -0.827934
v 0.371044 0.562667 -0.827347
v 0.371170 0.562885 -0.826761
v 0.371422 0.563322 -0.825587
v 0.371296 0.563103 -0.826174
v 0.375727 0.560762 -0.825000
v 0.371548 0.563540 -0.825000
v 0.486998 0.467395 -0.825000
v 0.490460 0.463761 -0.825000
v 0.490267 0.463599 -0.825587
v 0.490074 0.463437 -0.826174
v 0.489881 0.463275 -0.826760
v 0.489688 0.463113 -0.827347
v 0.489495 0.462951 -0.827934
v 0.489302 0.462789 -0.828520
v 0.489109 0.462628 -0.829107
v 0.488916 0.462466 -0.829693
v 0.488723 0.462304 -0.830279
v 0.488531 0.462142 -0.830866
v 0.488338 0.461980 -0.831452
v 0.488145 0.461819 -0.832038
v 0.487952 0.461657 -0.832624
v 0.487760 0.461495 -0.833210
v 0.487567 0.461334 -0.833796
v 0.487374 0.461172 -0.834382
v 0.487182 0.461010 -0.834968
v 0.486989 0.460849 -0.835553
v 0.486796 0.460687 -0.836139
v 0.486604 0.460525 -0.836724
v 0.486411 0.460364 -0.837310
v 0.486219 0.460202 -0.837895
v 0.486026 0.460041 -0.838481
v 0.485834 0.459879 -0.839066
v 0.485641 0.459718 -0.839651
v 0.485449 0.459556 -0.840236
v 0.485256 0.459395 -0.840821
v 0.485064 0.459233 -0.841406
v 0.484872 0.459072 -0.841991
v 0.484679 0.458910 -0.842576
v 0.484487 0.458749 -0.843161
v 0.484295 0.458588 -0.843746
v 0.484102 0.458426 -0.844330
v 0.483910 0.458265 -0.844915
v 0.483718 0.458104 -0.845499
v 0.483526 0.457942 -0.846084
v 0.483333 0.457781 -0.846668
v 0.483141 0.457620 -0.847252
v 0.482949 0.457459 -0.847837
v 0.482757 0.457297 -0.848421
v 0.482565 0.457136 -0.849005
v 0.482373 0.456975 -0.849589
v 0.482181 0.456814 -0.850173
v 0.481989 0.456653 -0.850757
v 0.481797 0.456492 -0.851340
v 0.481605 0.456331 -0.851924
v 0.481413 0.456170 -0.852508
v 0.481221 0.456008 -0.853091
v 0.481029 0.455847 -0.853675
v 0.480837 0.455686 -0.854258
v 0.480645 0.455525 -0.854842
v 0.480453 0.455364 -0.855425
v 0.480261 0.455203 -0.856008
v 0.480070 0.455043 -0.856591
v 0.479878 0.454882 -0.857174
v 0.531301 0.393598 -0.857174
v 0.531493 0.393759 -0.856591
v 0.531684 0.393920 -0.856008
v 0.531876 0.394081 -0.855425
v 0.532068 0.394242 -0.854842
v 0.532260 0.394403 -0.854258
v 0.532452 0.394564 -0.853675
v 0.532644 0.394725 -0.853091
v 0.532836 0.394886 -0.852508
v 0.533028 0.395047 -0.851924
v 0.533220 0.395208 -0.851340
v 0.533412 0.395369 -0.850757
v 0.533604 0.395530 -0.850173
v 0.533796 0.395692 -0.849589
v 0.533988 0.395853 -0.849005
v 0.534180 0.396014 -0.848421
v 0.534372 0.396175 -0.847837
v 0.534564 0.396336 -0.847252
v 0.534756 0.396498 -0.846668
v 0.534949 0.396659 -0.846084
v 0.535141 0.396820 -0.845499
v 0.535333 0.396981 -0.844915
v 0.535525 0.397143 -0.844330
v 0.535718 0.397304 -0.843746
v 0.535910 0.397465 -0.843161
v 0.536102 0.397627 -0.842576
v 0.536295 0.397788 -0.841991
v 0.536487 0.397950 -0.841406
v 0.536679 0.398111 -0.840822
v 0.536872 0.398273 -0.840236
v 0.537064 0.398434 -0.839651
v 0.537257 0.398596 -0.839066
v 0.537449 0.398757 -0.838481
v 0.537642 0.398919 -0.837896
v 0.537834 0.399080 -0.837310
v 0.538027 0.399242 -0.836725
v 0.538219 0.399403 -0.836139
v 0.538412 0.399565 -0.835553
v 0.538605 0.399727 -0.834968
v 0.538797 0.399888 -0.834382
v 0.538990 0.400050 -0.833796
v 0.539183 0.400212 -0.833210
v 0.539375 0.400373 -0.832624
v 0.539568 0.400535 -0.832038
v 0.539761 0.400697 -0.831452
v 0.539954 0.400859 -0.830866
v 0.540146 0.401020 -0.830280
v 0.540339 0.401182 -0.829693
v 0.540532 0.401344 -0.829107
v 0.540725 0.401506 -0.828520
v 0.540918 0.401668 -0.827934
v 0.541111 0.401830 -0.827347
v 0.541304 0.401992 -0.826761
v 0.541690 0.402315 -0.825587
v 0.541497 0.402153 -0.826174
v 0.544860 0.398438 -0.825000
v 0.541883 0.402477 -0.825000
v 0.617487 0.272644 -0.825000
v 0.619497 0.268046 -0.825000
v 0.619260 0.267959 -0.825587
v 0.619024 0.267873 -0.826174
v 0.618787 0.267787 -0.826760
v 0.618550 0.267701 -0.827347
v 0.618313 0.267615 -0.827934
v 0.618077 0.267529 -0.828520
v 0.617840 0.267443 -0.829107
v 0.617604 0.267356 -0.829693
v 0.617367 0.267270 -0.830279
v 0.617131 0.267184 -0.830866
v 0.616894 0.267098 -0.831452
v 0.616658 0.267012 -0.832038
v 0.616421 0.266926 -0.832624
v 0.616185 0.266840 -0.833210
v 0.615948 0.266754 -0.833796
v 0.615712 0.266668 -0.834382
v 0.615476 0.266582 -0.834968
v 0.615239 0.266496 -0.835553
v 0.615003 0.266410 -0.836139
v 0.614767 0.266324 -0.836724
v 0.614531 0.266238 -0.837310
v 0.614295 0.266152 -0.837895
v 0.614058 0.266066 -0.838481
v 0.613822 0.265980 -0.839066
v 0.613586 0.265894 -0.839651
v 0.613350 0.265808 -0.840236
v 0.613114 0.265722 -0.840821
v 0.612878 0.265636 -0.841406
v 0.612642 0.265551 -0.841991
v 0.612406 0.265465 -0.842576
v 0.612170 0.265379 -0.843161
v 0.611934 0.265293 -0.843746
v 0.611698 0.265207 -0.844330
v 0.611463 0.265121 -0.844915
v 0.611227 0.265035 -0.845499
v 0.610991 0.264950 -0.846084
v 0.610755 0.264864 -0.846668
v 0.610519 0.264778 -0.847252
v 0.610284 0.264692 -0.847837
v 0.610048 0.264606 -0.848421
v 0.609812 0.264521 -0.849005
v 0.609577 0.264435 -0.849589
v 0.609341 0.264349 -0.850173
v 0.609106 0.264263 -0.850757
v 0.608870 0.264178 -0.851340
v 0.608635 0.264092 -0.851924
v 0.608399 0.264006 -0.852508
v 0.608164 0.263921 -0.853091
v 0.607928 0.263835 -0.853675
v 0.607693 0.263749 -0.854258
v 0.607458 0.263664 -0.854842
v 0.607222 0.263578 -0.855425
v 0.606987 0.263492 -0.856008
v 0.606752 0.263407 -0.856591
v 0.606516 0.263321 -0.857174
v 0.633878 0.188146 -0.857174
v 0.634113 0.188231 -0.856591
v 0.634348 0.188317 -0.856008
v 0.634584 0.188402 -0.855425
v 0.634819 0.188488 -0.854842
v 0.635054 0.188574 -0.854258
v 0.635290 0.188659 -0.853675
v 0.635525 0.188745 -0.853091
v 0.635761 0.188831 -0.852508
v 0.635996 0.188917 -0.851924
v 0.636232 0.189002 -0.851340
v 0.636467 0.189088 -0.850757
v 0.636703 0.189174 -0.850173
v 0.636938 0.189259 -0.849589
v 0.637174 0.189345 -0.849005
v 0.637410 0.189431 -0.848421
v 0.637645 0.189517 -0.847837
v 0.637881 0.189603 -0.847252
v 0.638117 0.189688 -0.846668
v 0.638352 0.189774 -0.846084
v 0.638588 0.189860 -0.845499
v 0.638824 0.189946 -0.844915
v 0.639060 0.190032 -0.844330
v 0.639296 0.190118 -0.843746
v 0.639532 0.190203 -0.843161
v 0.639768 0.190289 -0.842576
v 0.640004 0.190375 -0.841991
v 0.640240 0.190461 -0.841406
v 0.640476 0.190547 -0.840822
v 0.640712 0.190633 -0.840236
v 0.640948 0.190719 -0.839651
v 0.641184 0.190805 -0.839066
v 0.641420 0.190891 -0.838481
v 0.641656 0.190977 -0.837896
v 0.641892 0.191063 -0.837310
v 0.642128 0.191149 -0.836725
v 0.642365 0.191235 -0.836139
v 0.642601 0.191321 -0.835553
v 0.642837 0.191407 -0.834968
v 0.643074 0.191493 -0.834382
v 0.643310 0.191579 -0.833796
v 0.643546 0.191665 -0.833210
v 0.643783 0.191751 -0.832624
v 0.644019 0.191837 -0.832038
v 0.644256 0.191923 -0.831452
v 0.644492 0.192009 -0.830866
v 0.644729 0.192095 -0.830280
v 0.644965 0.192181 -0.829693
v 0.645202 0.192267 -0.829107
v 0.645438 0.192353 -0.828520
v 0.645675 0.192439 -0.827934
v 0.645912 0.192526 -0.827347
v 0.646148 0.192612 -0.826761
v 0.646622 0.192784 -0.825587
v 0.646385 0.192698 -0.826174
v 0.648275 0.188056 -0.825000
v 0.646859 0.192870 -0.825000
v 0.673498 0.045008 -0.825000
v 0.673814 0.040000 -0.825000
v 0.673562 0.040000 -0.825587
v 0.673310 0.040000 -0.826174
v 0.673058 0.040000 -0.826760
v 0.672806 0.040000 -0.827347
v 0.672554 0.040000 -0.827934
v 0.672302 0.040000 -0.828520
v 0.672051 0.040000 -0.829107
v 0.671799 0.040000 -0.829693
v 0.671547 0.040000 -0.830279
v 0.671295 0.040000 -0.830866
v 0.671044 0.040000 -0.831452
v 0.670792 0.040000 -0.832038
v 0.670541 0.040000 -0.832624
v 0.670289 0.040000 -0.833210
v 0.670037 0.040000 -0.833796
v 0.669786 0.040000 -0.834382
v 0.669534 0.040000 -0.834968
v 0.669283 0.040000 -0.835553
v 0.669032 0.040000 -0.836139
v 0.668780 0.040000 -0.836724
v 0.668529 0.040000 -0.837310
v 0.668277 0.040000 -0.837895
v 0.668026 0.040000 -0.838481
v 0.667775 0.040000 -0.839066
v 0.667524 0.040000 -0.839651
v 0.667272 0.040000 -0.840236
v 0.667021 0.040000 -0.840821
v 0.666770 0.040000 -0.841406
v 0.666519 0.040000 -0.841991
v 0.666268 0.040000 -0.842576
v 0.666017 0.040000 -0.843161
v 0.665766 0.040000 -0.843746
v 0.665515 0.040000 -0.844330
v 0.665264 0.040000 -0.844915
v 0.665013 0.040000 -0.845499
v 0.664762 0.040000 -0.846084
v 0.664511 0.040000 -0.846668
v 0.664260 0.040000 -0.847252
v 0.664009 0.040000 -0.847837
v 0.663758 0.040000 -0.848421
v 0.663508 0.040000 -0.849005
v 0.663257 0.040000 -0.849589
v 0.663006 0.040000 -0.850173
v 0.662756 0.040000 -0.850757
v 0.662505 0.040000 -0.851340
v 0.662254 0.040000 -0.851924
v 0.662004 0.040000 -0.852508
v 0.661753 0.040000 -0.853091
v 0.661503 0.040000 -0.853675
v 0.661252 0.040000 -0.854258
v 0.661002 0.040000 -0.854842
v 0.660751 0.040000 -0.855425
v 0.660501 0.040000 -0.856008
v 0.660250 0.040000 -0.856591
v 0.660000 0.040000 -0.857174
v 0.660000 0.000723 -0.859999
v 0.660000 0.000000 -0.860000
v 0.645000 0.000000 -0.895000
v -0.641691 0.065254 -0.895000
v -0.645000 0.000000 -0.895000
v -0.660000 0.000000 -0.860000
v -0.660000 0.040000 -0.857174
v -0.660250 0.040000 -0.856591
v -0.660501 0.040000 -0.856008
v -0.660751 0.040000 -0.855425
v -0.661002 0.040000 -0.854842
v -0.661252 0.040000 -0.854258
v -0.661503 0.040000 -0.853675
v -0.661753 0.040000 -0.853091
v -0.662004 0.040000 -0.852508
v -0.662254 0.040000 -0.851924
v -0.662505 0.040000 -0.851340
v -0.662755 0.040000 -0.850757
v -0.663006 0.040000 -0.850173
v -0.663257 0.040000 -0.849589
v -0.663508 0.040000 -0.849005
v -0.663758 0.040000 -0.848421
v -0.664009 0.040000 -0.847837
v -0.664260 0.040000 -0.847252
v -0.664511 0.040000 -0.846668
v -0.664762 0.040000 -0.846084
v -0.665013 0.040000 -0.845499
v -0.665264 0.040000 -0.844915
v -0.665515 0.040000 -0.844330
v -0.665766 0.040000 -0.843746
v -0.666017 0.040000 -0.843161
v -0.666268 0.040000 -0.842576
v -0.666519 0.040000 -0.841991
v -0.666770 0.040000 -0.841406
v -0.667021 0.040000 -0.840822
v -0.667272 0.040000 -0.840236
v -0.667523 0.040000 -0.839651
v -0.667775 0.040000 -0.839066
v -0.668026 0.040000 -0.838481
v -0.668277 0.040000 -0.837896
v -0.668529 0.040000 -0.837310
v -0.668780 0.040000 -0.836725
v -0.669031 0.040000 -0.836139
v -0.669283 0.040000 -0.835553
v -0.669534 0.040000 -0.834968
v -0.669786 0.040000 -0.834382
v -0.670037 0.040000 -0.833796
v -0.670289 0.040000 -0.833210
v -0.670540 0.040000 -0.832624
v -0.670792 0.040000 -0.832038
v -0.671044 0.040000 -0.831452
v -0.671295 0.040000 -0.830866
v -0.671547 0.040000 -0.830280
v -0.671799 0.040000 -0.829693
v -0.672051 0.040000 -0.829107
v -0.672302 0.040000 -0.828520
v -0.672554 0.040000 -0.827934
v -0.672806 0.040000 -0.827347
v -0.673058 0.040000 -0.826761
v -0.673310 0.040000 -0.826174
v -0.673562 0.040000 -0.825587
v -0.672754 0.055018 -0.825000
v -0.649655 0.183231 -0.825000
v -0.547807 0.394376 -0.825000
v -0.379886 0.557953 -0.825000
v -0.166145 0.654233 -0.825000
v 0.067636 0.671603 -0.825000
v 0.293258 0.607968 -0.825000
v 0.483510 0.471002 -0.825000
v 0.615443 0.277227 -0.825000
v 0.673145 0.050015 -0.825000
v 0.660000 0.001446 -0.859996
v -0.631797 0.129838 -0.895000
v -0.673814 0.040000 -0.825000
v -0.672326 0.060018 -0.825000
v -0.650999 0.178396 -0.825000
v -0.550724 0.390292 -0.825000
v -0.384024 0.555113 -0.825000
v -0.171004 0.652980 -0.825000
v 0.062641 0.672087 -0.825000
v 0.288730 0.610131 -0.825000
v 0.479995 0.474584 -0.825000
v 0.613365 0.281795 -0.825000
v 0.672754 0.055018 -0.825000
v 0.660000 0.002170 -0.859992
v -0.615420 0.193089 -0.895000
v -0.671862 0.065015 -0.825000
v -0.652308 0.173551 -0.825000
v -0.615443 0.277227 -0.825000
v -0.553611 0.386187 -0.825000
v -0.483510 0.471002 -0.825000
v -0.388140 0.552243 -0.825000
v -0.293258 0.607968 -0.825000
v -0.175854 0.651690 -0.825000
v -0.067636 0.671603 -0.825000
v 0.057642 0.672534 -0.825000
v 0.166145 0.654233 -0.825000
v 0.284186 0.612261 -0.825000
v 0.379886 0.557953 -0.825000
v 0.476453 0.478140 -0.825000
v 0.547807 0.394376 -0.825000
v 0.611253 0.286348 -0.825000
v 0.649655 0.183231 -0.825000
v 0.672326 0.060018 -0.825000
v 0.660000 0.002894 -0.859985
v -0.592728 0.254360 -0.895000
v -0.671360 0.070008 -0.825000
v -0.653580 0.168696 -0.825000
v -0.556467 0.382060 -0.825000
v -0.392235 0.549342 -0.825000
v -0.180695 0.650365 -0.825000
v 0.052640 0.672944 -0.825000
v 0.279626 0.614357 -0.825000
v 0.472885 0.481669 -0.825000
v 0.609107 0.290884 -0.825000
v 0.671862 0.065015 -0.825000
v 0.660000 0.003617 -0.859977
v -0.563954 0.313020 -0.895000
v -0.670821 0.074998 -0.825000
v -0.654816 0.163832 -0.825000
v -0.559292 0.377912 -0.825000
v -0.396309 0.546410 -0.825000
v -0.185525 0.649003 -0.825000
v 0.047636 0.673317 -0.825000
v 0.275051 0.616419 -0.825000
v 0.469291 0.485171 -0.825000
v 0.606928 0.295405 -0.825000
v 0.671360 0.070008 -0.825000
v 0.660000 0.004341 -0.859967
v -0.529392 0.368468 -0.895000
v -0.670245 0.079983 -0.825000
v -0.656016 0.158960 -0.825000
v -0.613365 0.281795 -0.825000
v -0.562086 0.373744 -0.825000
v -0.479995 0.474584 -0.825000
v -0.400360 0.543449 -0.825000
v -0.288730 0.610131 -0.825000
v -0.190345 0.647606 -0.825000
v -0.062641 0.672087 -0.825000
v 0.042629 0.673653 -0.825000
v 0.171004 0.652980 -0.825000
v 0.270461 0.618447 -0.825000
v 0.384024 0.555113 -0.825000
v 0.465671 0.488647 -0.825000
v 0.550724 0.390292 -0.825000
v 0.604715 0.299909 -0.825000
v 0.650999 0.178396 -0.825000
v 0.670821 0.074998 -0.825000
v 0.660000 0.005065 -0.859955
v -0.489399 0.420135 -0.895000
v -0.669631 0.084964 -0.825000
v -0.657180 0.154078 -0.825000
v -0.611253 0.286348 -0.825000
v -0.564849 0.369554 -0.825000
v -0.476453 0.478140 -0.825000
v -0.404389 0.540457 -0.825000
v -0.284186 0.612261 -0.825000
v -0.195154 0.646173 -0.825000
v -0.057642 0.672534 -0.825000
v 0.037619 0.673951 -0.825000
v 0.175854 0.651690 -0.825000
v 0.265855 0.620440 -0.825000
v 0.388140 0.552243 -0.825000
v 0.462025 0.492095 -0.825000
v 0.553611 0.386187 -0.825000
v 0.602468 0.304396 -0.825000
v 0.652308 0.173551 -0.825000
v 0.670245 0.079983 -0.825000
v 0.660000 0.005790 -0.859941
v -0.444384 0.467491 -0.895000
v -0.668981 0.089940 -0.825000
v -0.658307 0.149188 -0.825000
v -0.609107 0.290884 -0.825000
v -0.567581 0.365345 -0.825000
v -0.472885 0.481669 -0.825000
v -0.408396 0.537436 -0.825000
v -0.279626 0.614357 -0.825000
v -0.199953 0.644704 -0.825000
v -0.052640 0.672944 -0.825000
v 0.032607 0.674212 -0.825000
v 0.180695 0.650365 -0.825000
v 0.261235 0.622400 -0.825000
v 0.392235 0.549342 -0.825000
v 0.458354 0.495517 -0.825000
v 0.556467 0.382060 -0.825000
v 0.600188 0.308867 -0.825000
v 0.653580 0.168696 -0.825000
v 0.669631 0.084964 -0.825000
v 0.660000 0.006514 -0.859925
v -0.394808 0.510050 -0.895000
v -0.668294 0.094911 -0.825000
v -0.659398 0.144289 -0.825000
v -0.606928 0.295405 -0.825000
v -0.570282 0.361115 -0.825000
v -0.469291 0.485171 -0.825000
v -0.412381 0.534385 -0.825000
v -0.275051 0.616419 -0.825000
v -0.204741 0.643200 -0.825000
v -0.047636 0.673317 -0.825000
v 0.027594 0.674436 -0.825000
v 0.185525 0.649003 -0.825000
v 0.256600 0.624325 -0.825000
v 0.396309 0.546410 -0.825000
v 0.454657 0.498911 -0.825000
v 0.559292 0.377912 -0.825000
v 0.597875 0.313321 -0.825000
v 0.654816 0.163832 -0.825000
v 0.668981 0.089940 -0.825000
v 0.660000 0.007238 -0.859907
v -0.341182 0.547376 -0.895000
v -0.667570 0.099877 -0.825000
v -0.660452 0.139383 -0.825000
v -0.604715 0.299909 -0.825000
v -0.572951 0.356865 -0.825000
v -0.465671 0.488647 -0.825000
v -0.416342 0.531304 -0.825000
v -0.270461 0.618447 -0.825000
v -0.209517 0.641660 -0.825000
v -0.042629 0.673653 -0.825000
v 0.022579 0.674622 -0.825000
v 0.190345 0.647606 -0.825000
v 0.251952 0.626215 -0.825000
v 0.400360 0.543449 -0.825000
v 0.450935 0.502277 -0.825000
v 0.562086 0.373744 -0.825000
v 0.595529 0.317757 -0.825000
v 0.656016 0.158960 -0.825000
v 0.668294 0.094911 -0.825000
v 0.660000 0.007963 -0.859888
v -0.284054 0.579084 -0.895000
v -0.666809 0.104837 -0.825000
v -0.661470 0.134469 -0.825000
v -0.602468 0.304396 -0.825000
v -0.575588 0.352595 -0.825000
v -0.462025 0.492095 -0.825000
v -0.420281 0.528194 -0.825000
v -0.265855 0.620440 -0.825000
v -0.214282 0.640085 -0.825000
v -0.037619 0.673951 -0.825000
v 0.017563 0.674771 -0.825000
v 0.195154 0.646173 -0.825000
v 0.247289 0.628071 -0.825000
v 0.404389 0.540457 -0.825000
v 0.447189 0.505616 -0.825000
v 0.564849 0.369554 -0.825000
v 0.593151 0.322176 -0.825000
v 0.657180 0.154078 -0.825000
v 0.667570 0.099877 -0.825000
v 0.660000 0.008688 -0.859867
v -0.224012 0.604850 -0.895000
v -0.666011 0.109792 -0.825000
v -0.662452 0.129547 -0.825000
v -0.600188 0.308867 -0.825000
v -0.578193 0.348306 -0.825000
v -0.458354 0.495517 -0.825000
v -0.424196 0.525055 -0.825000
v -0.261235 0.622400 -0.825000
v -0.219035 0.638474 -0.825000
v -0.032607 0.674212 -0.825000
v 0.012545 0.674883 -0.825000
v 0.199953 0.644704 -0.825000
v 0.242613 0.629892 -0.825000
v 0.408396 0.537436 -0.825000
v 0.443417 0.508927 -0.825000
v 0.567581 0.365345 -0.825000
v 0.590739 0.326577 -0.825000
v 0.658307 0.149188 -0.825000
v 0.666809 0.104837 -0.825000
v 0.660000 0.009413 -0.859843
v -0.161671 0.624410 -0.895000
v -0.665176 0.114741 -0.825000
v -0.663397 0.124618 -0.825000
v -0.597875 0.313321 -0.825000
v -0.580767 0.343998 -0.825000
v -0.454657 0.498911 -0.825000
v -0.428088 0.521886 -0.825000
v -0.256600 0.624325 -0.825000
v -0.223776 0.636828 -0.825000
v -0.027594 0.674436 -0.825000
v 0.007528 0.674958 -0.825000
v 0.204741 0.643200 -0.825000
v 0.237923 0.631679 -0.825000
v 0.412381 0.534385 -0.825000
v 0.439621 0.512209 -0.825000
v 0.570282 0.361115 -0.825000
v 0.588295 0.330960 -0.825000
v 0.659398 0.144289 -0.825000
v 0.666011 0.109792 -0.825000
v 0.660000 0.010138 -0.859818
v -0.097671 0.637562 -0.895000
v -0.664305 0.119683 -0.825000
v -0.595529 0.317757 -0.825000
v -0.583308 0.339671 -0.825000
v -0.450935 0.502277 -0.825000
v -0.431956 0.518689 -0.825000
v -0.251952 0.626215 -0.825000
v -0.228504 0.635146 -0.825000
v -0.022579 0.674622 -0.825000
v 0.002509 0.674995 -0.825000
v 0.209517 0.641660 -0.825000
v 0.233220 0.633430 -0.825000
v 0.416342 0.531304 -0.825000
v 0.435801 0.515464 -0.825000
v 0.572951 0.356865 -0.825000
v 0.585818 0.335325 -0.825000
v 0.660452 0.139383 -0.825000
v 0.665176 0.114741 -0.825000
v 0.660000 0.010863 -0.859791
v -0.032669 0.644172 -0.895000
v -0.593151 0.322176 -0.825000
v -0.585818 0.335325 -0.825000
v -0.447189 0.505616 -0.825000
v -0.435801 0.515464 -0.825000
v -0.247289 0.628071 -0.825000
v -0.233220 0.633430 -0.825000
v -0.017563 0.674771 -0.825000
v -0.002509 0.674995 -0.825000
v 0.214282 0.640085 -0.825000
v 0.228504 0.635146 -0.825000
v 0.420281 0.528194 -0.825000
v 0.431956 0.518689 -0.825000
v 0.575588 0.352595 -0.825000
v 0.583308 0.339671 -0.825000
v 0.661470 0.134469 -0.825000
v 0.664305 0.119683 -0.825000
v 0.660000 0.011589 -0.859763
v 0.032669 0.644172 -0.895000
v -0.590739 0.326577 -0.825000
v -0.588295 0.330960 -0.825000
v -0.443417 0.508927 -0.825000
v -0.439621 0.512209 -0.825000
v -0.242613 0.629892 -0.825000
v -0.237923 0.631679 -0.825000
v -0.012545 0.674883 -0.825000
v -0.007528 0.674958 -0.825000
v 0.219035 0.638474 -0.825000
v 0.223776 0.636828 -0.825000
v 0.424196 0.525055 -0.825000
v 0.428088 0.521886 -0.825000
v 0.578193 0.348306 -0.825000
v 0.580767 0.343998 -0.825000
v 0.662452 0.129547 -0.825000
v 0.663397 0.124618 -0.825000
v 0.660000 0.012314 -0.859732
v 0.097671 0.637562 -0.895000
v -0.633380 0.189512 -0.857376
v 0.660000 0.013040 -0.859699
v 0.161671 0.624410 -0.895000
v -0.632883 0.190879 -0.857570
v 0.660000 0.013766 -0.859665
v 0.224012 0.604850 -0.895000
v -0.632386 0.192246 -0.857757
v -0.607014 0.261954 -0.857376
v -0.480813 0.453767 -0.857376
v -0.296619 0.590849 -0.857376
v -0.076648 0.656666 -0.857376
v 0.152568 0.643280 -0.857376
v 0.363381 0.552304 -0.857376
v 0.530366 0.394712 -0.857376
v 0.633380 0.189512 -0.857376
v 0.660000 0.014492 -0.859629
v 0.284054 0.579084 -0.895000
v -0.631888 0.193613 -0.857936
v -0.607511 0.260587 -0.857570
v -0.481748 0.452653 -0.857570
v -0.297878 0.590122 -0.857570
v -0.078081 0.656414 -0.857570
v 0.151135 0.643532 -0.857570
v 0.362122 0.553031 -0.857570
v 0.529431 0.395827 -0.857570
v 0.632883 0.190879 -0.857570
v 0.660000 0.015218 -0.859591
v 0.341182 0.547376 -0.895000
v -0.631391 0.194980 -0.858108
v -0.608009 0.259220 -0.857757
v -0.482683 0.451539 -0.857757
v -0.299138 0.589395 -0.857757
v -0.079513 0.656161 -0.857757
v 0.149703 0.643785 -0.857757
v 0.360862 0.553759 -0.857757
v 0.528496 0.396941 -0.857757
v 0.632385 0.192246 -0.857757
v 0.660000 0.015945 -0.859551
v 0.394808 0.510050 -0.895000
v -0.630893 0.196346 -0.858272
v -0.608506 0.257853 -0.857936
v -0.483618 0.450424 -0.857936
v -0.300398 0.588668 -0.857936
v -0.080946 0.655909 -0.857936
v 0.148270 0.644038 -0.857936
v 0.359602 0.554486 -0.857936
v 0.527561 0.398055 -0.857936
v 0.631888 0.193613 -0.857936
v 0.660000 0.016671 -0.859509
v 0.444384 0.467491 -0.895000
v -0.630396 0.197713 -0.858429
v -0.609004 0.256487 -0.858108
v -0.484553 0.449310 -0.858108
v -0.301658 0.587940 -0.858108
v -0.082378 0.655656 -0.858108
v 0.146838 0.644290 -0.858108
v 0.358342 0.555213 -0.858108
v 0.526626 0.399170 -0.858108
v 0.631390 0.194980 -0.858108
v 0.660000 0.017398 -0.859465
v 0.489399 0.420135 -0.895000
v -0.629898 0.199080 -0.858578
v -0.609501 0.255120 -0.858272
v -0.485488 0.448196 -0.858272
v -0.302917 0.587213 -0.858272
v -0.083811 0.655403 -0.858272
v 0.145405 0.644543 -0.858272
v 0.357083 0.555941 -0.858272
v 0.525691 0.400284 -0.858272
v 0.630893 0.196347 -0.858272
v 0.660000 0.018125 -0.859419
v 0.529392 0.368468 -0.895000
v -0.629401 0.200447 -0.858720
v -0.609999 0.253753 -0.858429
v -0.486423 0.447082 -0.858429
v -0.304177 0.586486 -0.858429
v -0.085243 0.655151 -0.858429
v 0.143973 0.644795 -0.858429
v 0.355823 0.556668 -0.858429
v 0.524756 0.401398 -0.858429
v 0.630395 0.197714 -0.858429
v 0.660000 0.018852 -0.859372
v 0.563954 0.313020 -0.895000
v -0.628903 0.201814 -0.858855
v -0.610496 0.252386 -0.858579
v -0.487358 0.445967 -0.858579
v -0.305437 0.585758 -0.858579
v -0.086676 0.654898 -0.858579
v 0.142540 0.645048 -0.858579
v 0.354563 0.557395 -0.858579
v 0.523821 0.402512 -0.858579
v 0.629898 0.199081 -0.858579
v 0.660000 0.019579 -0.859323
v 0.592728 0.254360 -0.895000
v -0.628406 0.203180 -0.858982
v -0.610994 0.251019 -0.858720
v -0.488293 0.444853 -0.858720
v -0.306697 0.585031 -0.858720
v -0.088108 0.654646 -0.858720
v 0.141108 0.645301 -0.858720
v 0.353303 0.558123 -0.858720
v 0.522886 0.403627 -0.858720
v 0.629400 0.200448 -0.858720
v 0.660000 0.020306 -0.859271
v 0.615420 0.193089 -0.895000
v -0.627908 0.204547 -0.859102
v -0.611491 0.249652 -0.858855
v -0.489228 0.443739 -0.858855
v -0.307956 0.584304 -0.858855
v -0.089541 0.654393 -0.858855
v 0.139675 0.645553 -0.858855
v 0.352044 0.558850 -0.858855
v 0.521951 0.404741 -0.858855
v 0.628903 0.201814 -0.858855
v 0.660000 0.021034 -0.859218
v 0.631797 0.129838 -0.895000
v -0.627411 0.205914 -0.859214
v -0.611989 0.248285 -0.858982
v -0.490163 0.442624 -0.858982
v -0.309216 0.583576 -0.858982
v -0.090973 0.654141 -0.858982
v 0.138243 0.645806 -0.858982
v 0.350784 0.559577 -0.858982
v 0.521016 0.405855 -0.858982
v 0.628405 0.203181 -0.858982
v 0.660000 0.021761 -0.859163
v 0.641691 0.065254 -0.895000
v -0.626913 0.207281 -0.859318
v -0.612486 0.246918 -0.859102
v -0.491098 0.441510 -0.859102
v -0.310476 0.582849 -0.859102
v -0.092406 0.653888 -0.859102
v 0.136810 0.646058 -0.859102
v 0.349524 0.560304 -0.859102
v 0.520081 0.406970 -0.859102
v 0.627908 0.204548 -0.859102
v 0.660000 0.022489 -0.859106
v -0.626416 0.208647 -0.859416
v -0.612984 0.245552 -0.859214
v -0.492033 0.440396 -0.859214
v -0.311735 0.582122 -0.859214
v -0.093838 0.653635 -0.859214
v 0.135378 0.646311 -0.859214
v 0.348265 0.561032 -0.859214
v 0.519146 0.408084 -0.859214
v 0.627410 0.205915 -0.859214
v 0.660000 0.023217 -0.859047
v -0.660000 0.000723 -0.859999
v -0.625918 0.210014 -0.859505
v -0.613481 0.244185 -0.859318
v -0.492968 0.439282 -0.859318
v -0.312995 0.581395 -0.859318
v -0.095270 0.653383 -0.859318
v 0.133945 0.646563 -0.859318
v 0.347005 0.561759 -0.859318
v 0.518211 0.409198 -0.859318
v 0.626913 0.207282 -0.859318
v 0.660000 0.023945 -0.858987
v -0.660000 0.001446 -0.859996
v -0.625421 0.211381 -0.859588
v -0.613979 0.242818 -0.859416
v -0.493903 0.438167 -0.859416
v -0.314255 0.580667 -0.859416
v -0.096703 0.653130 -0.859416
v 0.132513 0.646816 -0.859416
v 0.345745 0.562486 -0.859416
v 0.517276 0.410312 -0.859416
v 0.626415 0.208649 -0.859416
v 0.660000 0.024673 -0.858924
v -0.660000 0.002170 -0.859992
v -0.624923 0.212748 -0.859662
v -0.614476 0.241451 -0.859505
v -0.494838 0.437053 -0.859505
v -0.315514 0.579940 -0.859505
v -0.098135 0.652878 -0.859505
v 0.131080 0.647069 -0.859505
v 0.344486 0.563214 -0.859505
v 0.516341 0.411427 -0.859505
v 0.625918 0.210016 -0.859505
v 0.660000 0.025401 -0.858860
v -0.660000 0.002893 -0.859985
v -0.624426 0.214115 -0.859730
v -0.614974 0.240084 -0.859588
v -0.495773 0.435939 -0.859588
v -0.316774 0.579213 -0.859588
v -0.099568 0.652625 -0.859588
v 0.129648 0.647321 -0.859588
v 0.343226 0.563941 -0.859588
v 0.515406 0.412541 -0.859588
v 0.625420 0.211382 -0.859588
v 0.660000 0.026130 -0.858794
v -0.660000 0.003617 -0.859977
v -0.623928 0.215481 -0.859790
v -0.615471 0.238717 -0.859662
v -0.496708 0.434825 -0.859662
v -0.318034 0.578485 -0.859662
v -0.101000 0.652372 -0.859662
v 0.128215 0.647574 -0.859662
v 0.341966 0.564668 -0.859662
v 0.514471 0.413655 -0.859662
v 0.624923 0.212749 -0.859662
v 0.660000 0.026859 -0.858725
v -0.660000 0.004341 -0.859967
v -0.623431 0.216848 -0.859842
v -0.615969 0.237351 -0.859730
v -0.497643 0.433710 -0.859730
v -0.319293 0.577758 -0.859730
v -0.102433 0.652120 -0.859730
v 0.126783 0.647826 -0.859730
v 0.340707 0.565395 -0.859730
v 0.513536 0.414769 -0.859730
v 0.624425 0.214116 -0.859730
v 0.660000 0.027587 -0.858655
v -0.660000 0.005065 -0.859955
v -0.622934 0.218215 -0.859887
v -0.616466 0.235984 -0.859790
v -0.498578 0.432596 -0.859790
v -0.320553 0.577031 -0.859790
v -0.103865 0.651867 -0.859790
v 0.125350 0.648079 -0.859790
v 0.339447 0.566123 -0.859790
v 0.512601 0.415884 -0.859790
v 0.623928 0.215483 -0.859790
v 0.660000 0.028316 -0.858583
v -0.660000 0.005789 -0.859941
v -0.622436 0.219582 -0.859924
v -0.616964 0.234617 -0.859842
v -0.499513 0.431482 -0.859842
v -0.321813 0.576304 -0.859842
v -0.105298 0.651615 -0.859842
v 0.123918 0.648331 -0.859842
v 0.338187 0.566850 -0.859842
v 0.511666 0.416998 -0.859842
v 0.623430 0.216850 -0.859842
v 0.660000 0.029045 -0.858509
v -0.660000 0.006514 -0.859925
v -0.621939 0.220949 -0.859954
v -0.617461 0.233250 -0.859887
v -0.500448 0.430368 -0.859887
v -0.323073 0.575576 -0.859887
v -0.106730 0.651362 -0.859887
v 0.122485 0.648584 -0.859887
v 0.336927 0.567577 -0.859887
v 0.510731 0.418112 -0.859887
v 0.622933 0.218217 -0.859887
v 0.660000 0.029775 -0.858434
v -0.660000 0.007238 -0.859907
v -0.621441 0.222316 -0.859977
v -0.617959 0.231883 -0.859924
v -0.501383 0.429253 -0.859924
v -0.324332 0.574849 -0.859924
v -0.108163 0.651110 -0.859924
v 0.121053 0.648837 -0.859924
v 0.335668 0.568304 -0.859924
v 0.509796 0.419226 -0.859924
v 0.622436 0.219583 -0.859924
v 0.660000 0.030504 -0.858356
v -0.660000 0.007963 -0.859888
v -0.620944 0.223682 -0.859992
v -0.618456 0.230516 -0.859954
v -0.502318 0.428139 -0.859954
v -0.325592 0.574122 -0.859954
v -0.109595 0.650857 -0.859954
v 0.119621 0.649089 -0.859954
v 0.334408 0.569032 -0.859954
v 0.508861 0.420341 -0.859954
v 0.621938 0.220950 -0.859954
v 0.660000 0.031234 -0.858277
v -0.660000 0.008688 -0.859867
v -0.620446 0.225049 -0.859999
v -0.618954 0.229150 -0.859977
v -0.503252 0.427025 -0.859977
v -0.326852 0.573395 -0.859977
v -0.111028 0.650604 -0.859977
v 0.118188 0.649342 -0.859977
v 0.333148 0.569759 -0.859977
v 0.507926 0.421455 -0.859977
v 0.621441 0.222317 -0.859977
v 0.660000 0.031963 -0.858195
v -0.660000 0.009413 -0.859843
v -0.584401 0.306717 -0.860000
v -0.530366 0.394712 -0.857376
v -0.363381 0.552304 -0.857376
v -0.152568 0.643280 -0.857376
v 0.076648 0.656666 -0.857376
v 0.296619 0.590850 -0.857376
v 0.480813 0.453767 -0.857376
v 0.607014 0.261954 -0.857376
v 0.660000 0.039269 -0.857277
v 0.660000 0.032693 -0.858112
v -0.660000 0.010138 -0.859818
v -0.529431 0.395826 -0.857570
v -0.362122 0.553031 -0.857570
v -0.151135 0.643532 -0.857570
v 0.078080 0.656414 -0.857570
v 0.297878 0.590122 -0.857570
v 0.481748 0.452653 -0.857570
v 0.607511 0.260587 -0.857570
v 0.660000 0.038537 -0.857377
v 0.660000 0.033423 -0.858027
v -0.660000 0.010863 -0.859791
v -0.374923 0.543169 -0.860000
v -0.619949 0.226416 -0.859999
v -0.528496 0.396941 -0.857757
v -0.360862 0.553759 -0.857757
v -0.149703 0.643785 -0.857757
v 0.079513 0.656161 -0.857757
v 0.299138 0.589395 -0.857757
v 0.482683 0.451539 -0.857757
v 0.608009 0.259221 -0.857757
v 0.660000 0.037806 -0.857475
v 0.660000 0.034153 -0.857939
v -0.660000 0.011589 -0.859763
v -0.527561 0.398055 -0.857936
v -0.359602 0.554486 -0.857936
v -0.148270 0.644037 -0.857936
v 0.080945 0.655909 -0.857936
v 0.300398 0.588668 -0.857936
v 0.483618 0.450425 -0.857936
v 0.608506 0.257854 -0.857936
v 0.660000 0.037075 -0.857572
v 0.660000 0.034884 -0.857850
v -0.660000 0.012314 -0.859732
v 0.234039 0.617111 -0.860000
v -0.234039 0.617111 -0.860000
v -0.526626 0.399169 -0.858108
v -0.358343 0.555213 -0.858108
v -0.146838 0.644290 -0.858108
v 0.082378 0.655656 -0.858108
v 0.301657 0.587940 -0.858108
v 0.484553 0.449310 -0.858108
v 0.609004 0.256487 -0.858108
v 0.660000 0.036345 -0.857667
v 0.660000 0.035614 -0.857760
v -0.660000 0.013040 -0.859699
v -0.619451 0.227783 -0.859992
v -0.504187 0.425911 -0.859992
v -0.328111 0.572667 -0.859992
v -0.112460 0.650352 -0.859992
v 0.116756 0.649594 -0.859992
v 0.331889 0.570486 -0.859992
v 0.506991 0.422569 -0.859992
v -0.660000 0.013766 -0.859665
v -0.525691 0.400283 -0.858272
v -0.357083 0.555940 -0.858272
v -0.145406 0.644543 -0.858272
v 0.083810 0.655404 -0.858272
v 0.302917 0.587213 -0.858272
v 0.485487 0.448196 -0.858272
v 0.609501 0.255120 -0.858272
v -0.660000 0.014492 -0.859629
v -0.524756 0.401398 -0.858429
v -0.355824 0.556668 -0.858429
v -0.143973 0.644795 -0.858429
v 0.085242 0.655151 -0.858429
v 0.304176 0.586486 -0.858429
v 0.486422 0.447082 -0.858429
v 0.609999 0.253753 -0.858429
v 0.620943 0.223684 -0.859992
v -0.660000 0.015218 -0.859591
v -0.523821 0.402512 -0.858578
v -0.354564 0.557395 -0.858578
v -0.142541 0.645048 -0.858578
v 0.086675 0.654898 -0.858578
v 0.305436 0.585759 -0.858578
v 0.487357 0.445968 -0.858578
v 0.610496 0.252387 -0.858578
v 0.620446 0.225051 -0.859999
v -0.660000 0.015944 -0.859551
v -0.522886 0.403626 -0.858720
v -0.353304 0.558122 -0.858720
v -0.141108 0.645300 -0.858720
v 0.088107 0.654646 -0.858720
v 0.306696 0.585031 -0.858720
v 0.488292 0.444854 -0.858720
v 0.610994 0.251020 -0.858720
v 0.619948 0.226417 -0.859999
v -0.660000 0.016671 -0.859509
v -0.521951 0.404740 -0.858855
v -0.352045 0.558849 -0.858855
v -0.139676 0.645553 -0.858855
v 0.089540 0.654393 -0.858855
v 0.307955 0.584304 -0.858855
v 0.489227 0.443739 -0.858855
v 0.611491 0.249653 -0.858855
v 0.619451 0.227784 -0.859992
v -0.660000 0.017398 -0.859465
v -0.521016 0.405854 -0.858982
v -0.350785 0.559577 -0.858982
v -0.138244 0.645805 -0.858982
v 0.090972 0.654141 -0.858982
v 0.309215 0.583577 -0.858982
v 0.490162 0.442625 -0.858982
v 0.611989 0.248286 -0.858982
v 0.618953 0.229151 -0.859977
v -0.660000 0.018124 -0.859419
v 0.618456 0.230518 -0.859954
v -0.660000 0.018851 -0.859372
v -0.520082 0.406969 -0.859102
v -0.505122 0.424796 -0.859999
v -0.349525 0.560304 -0.859102
v -0.329371 0.571940 -0.859999
v -0.136811 0.646058 -0.859102
v -0.113892 0.650099 -0.859999
v 0.092404 0.653888 -0.859102
v 0.115323 0.649847 -0.859999
v 0.310475 0.582850 -0.859102
v 0.330629 0.571214 -0.859999
v 0.491097 0.441511 -0.859102
v 0.506056 0.423683 -0.859999
v 0.612486 0.246919 -0.859102
v 0.617958 0.231885 -0.859924
v -0.660000 0.019579 -0.859323
v -0.519147 0.408083 -0.859214
v -0.348266 0.561031 -0.859214
v -0.135379 0.646311 -0.859214
v 0.093837 0.653636 -0.859214
v 0.311734 0.582122 -0.859214
v 0.492032 0.440397 -0.859214
v 0.612983 0.245553 -0.859214
v 0.617461 0.233252 -0.859887
v -0.660000 0.020306 -0.859271
v -0.518212 0.409197 -0.859318
v -0.347006 0.561758 -0.859318
v -0.133946 0.646563 -0.859318
v 0.095269 0.653383 -0.859318
v 0.312994 0.581395 -0.859318
v 0.492967 0.439283 -0.859318
v 0.613481 0.244186 -0.859318
v 0.616963 0.234618 -0.859842
v -0.660000 0.021033 -0.859218
v -0.517277 0.410311 -0.859416
v -0.345746 0.562486 -0.859416
v -0.132514 0.646816 -0.859416
v 0.096702 0.653130 -0.859416
v 0.314254 0.580668 -0.859416
v 0.493902 0.438168 -0.859416
v 0.613978 0.242819 -0.859416
v 0.616466 0.235985 -0.859790
v -0.660000 0.021761 -0.859163
v -0.516342 0.411426 -0.859505
v -0.344487 0.563213 -0.859505
v -0.131081 0.647068 -0.859505
v 0.098134 0.652878 -0.859505
v 0.315513 0.579941 -0.859505
v 0.494837 0.437054 -0.859505
v 0.614476 0.241452 -0.859505
v 0.615968 0.237352 -0.859730
v -0.660000 0.022489 -0.859106
v -0.515407 0.412540 -0.859588
v -0.343227 0.563940 -0.859588
v -0.129649 0.647321 -0.859588
v 0.099567 0.652625 -0.859588
v 0.316773 0.579213 -0.859588
v 0.495772 0.435940 -0.859588
v 0.614973 0.240086 -0.859588
v 0.615471 0.238719 -0.859662
v -0.660000 0.023216 -0.859048
v 0.640822 0.157948 -0.860000
v -0.514472 0.413654 -0.859662
v -0.341967 0.564667 -0.859662
v -0.128217 0.647574 -0.859662
v 0.100999 0.652373 -0.859662
v 0.318033 0.578486 -0.859662
v 0.496707 0.434826 -0.859662
v -0.660000 0.023944 -0.858987
v -0.660000 0.039269 -0.857277
v -0.513537 0.414768 -0.859730
v -0.340708 0.565395 -0.859730
v -0.126784 0.647826 -0.859730
v 0.102431 0.652120 -0.859730
v 0.319292 0.577759 -0.859730
v 0.497642 0.433711 -0.859730
v -0.660000 0.024673 -0.858924
v -0.660000 0.038537 -0.857377
v -0.512602 0.415882 -0.859790
v -0.339448 0.566122 -0.859790
v -0.125352 0.648079 -0.859790
v 0.103864 0.651868 -0.859790
v 0.320552 0.577032 -0.859790
v 0.498577 0.432597 -0.859790
v 0.505121 0.424798 -0.859999
v -0.660000 0.025401 -0.858860
v -0.660000 0.037806 -0.857475
v -0.511667 0.416997 -0.859842
v -0.338188 0.566849 -0.859842
v -0.123919 0.648331 -0.859842
v 0.105296 0.651615 -0.859842
v 0.321812 0.576304 -0.859842
v 0.499512 0.431483 -0.859842
v 0.504186 0.425912 -0.859992
v -0.660000 0.026130 -0.858794
v -0.660000 0.037075 -0.857572
v -0.510732 0.418111 -0.859887
v -0.336929 0.567576 -0.859887
v -0.122487 0.648584 -0.859887
v 0.106729 0.651362 -0.859887
v 0.323071 0.575577 -0.859887
v 0.500447 0.430369 -0.859887
v 0.503251 0.427026 -0.859977
v -0.660000 0.026858 -0.858725
v -0.660000 0.036345 -0.857667
v -0.509797 0.419225 -0.859924
v -0.335669 0.568304 -0.859924
v -0.121055 0.648836 -0.859924
v 0.108161 0.651110 -0.859924
v 0.324331 0.574850 -0.859924
v 0.501382 0.429254 -0.859924
v 0.502316 0.428140 -0.859954
v -0.660000 0.027587 -0.858655
v -0.660000 0.035614 -0.857760
v -0.508862 0.420339 -0.859954
v -0.334410 0.569031 -0.859954
v -0.119622 0.649089 -0.859954
v 0.109593 0.650857 -0.859954
v 0.325590 0.574123 -0.859954
v -0.660000 0.028316 -0.858583
v -0.660000 0.034884 -0.857850
v -0.507927 0.421454 -0.859977
v -0.333150 0.569758 -0.859977
v -0.118190 0.649342 -0.859977
v 0.111026 0.650605 -0.859977
v 0.326850 0.573395 -0.859977
v -0.660000 0.029045 -0.858509
v -0.660000 0.034153 -0.857939
v -0.506992 0.422568 -0.859992
v -0.331890 0.570485 -0.859992
v -0.116757 0.649594 -0.859992
v 0.112458 0.650352 -0.859992
v 0.328110 0.572668 -0.859992
v 0.329369 0.571941 -0.859999
v -0.660000 0.029774 -0.858434
v -0.660000 0.033423 -0.858027
v -0.506057 0.423682 -0.859999
v -0.330631 0.571213 -0.859999
v -0.115325 0.649847 -0.859999
v 0.113891 0.650100 -0.859999
v -0.660000 0.030504 -0.858356
v -0.660000 0.032693 -0.858112
v -0.660000 0.031233 -0.858277
v -0.660000 0.031963 -0.858195
v 0.584401 0.306717 -0.860000
v 0.374923 0.543169 -0.860000
v -0.000000 0.660000 -0.860000
f 1 2 3
f 4 5 6
f 6 7 8
f 8 9 10
f 10 11 12
f 12 13 14
f 14 15 16
f 16 17 18
f 18 19 20
f 20 21 22
f 22 23 24
f 24 25 26
f 26 27 28
f 28 29 30
f 30 31 32
f 32 33 34
f 34 35 36
f 36 37 38
f 38 39 40
f 40 41 42
f 42 43 44
f 44 45 46
f 46 47 48
f 48 49 50
f 50 51 52
f 52 53 54
f 54 55 56
f 56 57 58
f 58 59 60
f 61 62 63
f 63 64 65
f 65 66 67
f 67 68 69
f 69 70 71
f 71 72 73
f 73 74 75
f 75 76 77
f 77 78 79
f 79 80 81
f 81 82 83
f 83 84 85
f 85 86 87
f 87 88 89
f 89 90 91
f 91 92 93
f 93 94 95
f 95 96 97
f 97 98 99
f 99 100 101
f 101 102 103
f 103 104 105
f 105 106 107
f 107 108 109
f 109 110 111
f 111 112 113
f 114 115 116
f 114 117 116
f 118 119 120
f 120 121 122
f 122 123 124
f 124 125 126
f 126 127 128
f 128 129 130
f 130 131 132
f 132 133 134
f 134 135 136
f 136 137 138
f 138 139 140
f 140 141 142
f 142 143 144
f 144 145 146
f 146 147 148
f 148 149 150
f 150 151 152
f 152 153 154
f 154 155 156
f 156 157 158
f 158 159 160
f 160 161 162
f 162 163 164
f 164 165 166
f 166 167 168
f 168 169 170
f 170 171 172
f 172 173 174
f 175 176 177
f 177 178 179
f 179 180 181
f 181 182 183
f 183 184 185
f 185 186 187
f 187 188 189
f 189 190 191
f 191 192 193
f 193 194 195
f 195 196 197
f 197 198 199
f 199 200 201
f 201 202 203
f 203 204 205
f 205 206 207
f 207 208 209
f 209 210 211
f 211 212 213
f 213 214 215
f 215 216 217
f 217 218 219
f 219 220 221
f 221 222 223
f 223 224 225
f 225 226 227
f 228 229 230
f 228 231 230
f 232 233 234
f 234 235 236
f 236 237 238
f 238 239 240
f 240 241 242
f 242 243 244
f 244 245 246
f 246 247 248
f 248 249 250
f 250 251 252
f 252 253 254
f 254 255 256
f 256 257 258
f 258 259 260
f 260 261 262
f 262 263 264
f 264 265 266
f 266 267 268
f 268 269 270
f 270 271 272
f 272 273 274
f 274 275 276
f 276 277 278
f 278 279 280
f 280 281 282
f 282 283 284
f 284 285 286
f 286 287 288
f 289 290 291
f 291 292 293
f 293 294 295
f 295 296 297
f 297 298 299
f 299 300 301
f 301 302 303
f 303 304 305
f 305 306 307
f 307 308 309
f 309 310 311
f 311 312 313
f 313 314 315
f 315 316 317
f 317 318 319
f 319 320 321
f 321 322 323
f 323 324 325
f 325 326 327
f 327 328 329
f 329 330 331
f 331 332 333
f 333 334 335
f 335 336 337
f 337 338 339
f 339 340 341
f 342 343 344
f 342 345 344
f 346 347 348
f 348 349 350
f 350 351 352
f 352 353 354
f 354 355 356
f 356 357 358
f 358 359 360
f 360 361 362
f 362 363 364
f 364 365 366
f 366 367 368
f 368 369 370
f 370 371 372
f 372 373 374
f 374 375 376
f 376 377 378
f 378 379 380
f 380 381 382
f 382 383 384
f 384 385 386
f 386 387 388
f 388 389 390
f 390 391 392
f 392 393 394
f 394 395 396
f 396 397 398
f 398 399 400
f 400 401 402
f 403 404 405
f 405 406 407
f 407 408 409
f 409 410 411
f 411 412 413
f 413 414 415
f 415 416 417
f 417 418 419
f 419 420 421
f 421 422 423
f 423 424 425
f 425 426 427
f 427 428 429
f 429 430 431
f 431 432 433
f 433 434 435
f 435 436 437
f 437 438 439
f 439 440 441
f 441 442 443
f 443 444 445
f 445 446 447
f 447 448 449
f 449 450 451
f 451 452 453
f 453 454 455
f 456 457 458
f 456 459 458
f 460 461 462
f 462 463 464
f 464 465 466
f 466 467 468
f 468 469 470
f 470 471 472
f 472 473 474
f 474 475 476
f 476 477 478
f 478 479 480
f 480 481 482
f 482 483 484
f 484 485 486
f 486 487 488
f 488 489 490
f 490 491 492
f 492 493 494
f 494 495 496
f 496 497 498
f 498 499 500
f 500 501 502
f 502 503 504
f 504 505 506
f 506 507 508
f 508 509 510
f 510 511 512
f 512 513 514
f 514 515 516
f 517 518 519
f 519 520 521
f 521 522 523
f 523 524 525
f 525 526 527
f 527 528 529
f 529 530 531
f 531 532 533
f 533 534 535
f 535 536 537
f 537 538 539
f 539 540 541
f 541 542 543
f 543 544 545
f 545 546 547
f 547 548 549
f 549 550 551
f 551 552 553
f 553 554 555
f 555 556 557
f 557 558 559
f 559 560 561
f 561 562 563
f 563 564 565
f 565 566 567
f 567 568 569
f 570 571 572
f 570 573 572
f 574 575 576
f 576 577 578
f 578 579 580
f 580 581 582
f 582 583 584
f 584 585 586
f 586 587 588
f 588 589 590
f 590 591 592
f 592 593 594
f 594 595 596
f 596 597 598
f 598 599 600
f 600 601 602
f 602 603 604
f 604 605 606
f 606 607 608
f 608 609 610
f 610 611 612
f 612 613 614
f 614 615 616
f 616 617 618
f 618 619 620
f 620 621 622
f 622 623 624
f 624 625 626
f 626 627 628
f 628 629 630
f 631 632 633
f 633 634 635
f 635 636 637
f 637 638 639
f 639 640 641
f 641 642 643
f 643 644 645
f 645 646 647
f 647 648 649
f 649 650 651
f 651 652 653
f 653 654 655
f 655 656 657
f 657 658 659
f 659 660 661
f 661 662 663
f 663 664 665
f 665 666 667
f 667 668 669
f 669 670 671
f 671 672 673
f 673 674 675
f 675 676 677
f 677 678 679
f 679 680 681
f 681 682 683
f 684 685 686
f 684 687 686
f 688 689 690
f 690 691 692
f 692 693 694
f 694 695 696
f 696 697 698
f 698 699 700
f 700 701 702
f 702 703 704
f 704 705 706
f 706 707 708
f 708 709 710
f 710 711 712
f 712 713 714
f 714 715 716
f 716 717 718
f 718 719 720
f 720 721 722
f 722 723 724
f 724 725 726
f 726 727 728
f 728 729 730
f 730 731 732
f 732 733 734
f 734 735 736
f 736 737 738
f 738 739 740
f 740 741 742
f 742 743 744
f 745 746 747
f 747 748 749
f 749 750 751
f 751 752 753
f 753 754 755
f 755 756 757
f 757 758 759
f 759 760 761
f 761 762 763
f 763 764 765
f 765 766 767
f 767 768 769
f 769 770 771
f 771 772 773
f 773 774 775
f 775 776 777
f 777 778 779
f 779 780 781
f 781 782 783
f 783 784 785
f 785 786 787
f 787 788 789
f 789 790 791
f 791 792 793
f 793 794 795
f 795 796 797
f 798 799 800
f 798 801 800
f 802 803 804
f 804 805 806
f 806 807 808
f 808 809 810
f 810 811 812
f 812 813 814
f 814 815 816
f 816 817 818
f 818 819 820
f 820 821 822
f 822 823 824
f 824 825 826
f 826 827 828
f 828 829 830
f 830 831 832
f 832 833 834
f 834 835 836
f 836 837 838
f 838 839 840
f 840 841 842
f 842 843 844
f 844 845 846
f 846 847 848
f 848 849 850
f 850 851 852
f 852 853 854
f 854 855 856
f 856 857 858
f 859 860 861
f 861 862 863
f 863 864 865
f 865 866 867
f 867 868 869
f 869 870 871
f 871 872 873
f 873 874 875
f 875 876 877
f 877 878 879
f 879 880 881
f 881 882 883
f 883 884 885
f 885 886 887
f 887 888 889
f 889 890 891
f 891 892 893
f 893 894 895
f 895 896 897
f 897 898 899
f 899 900 901
f 901 902 903
f 903 904 905
f 905 906 907
f 907 908 909
f 909 910 911
f 912 913 914
f 912 915 914
f 916 917 918
f 918 919 920
f 920 921 922
f 922 923 924
f 924 925 926
f 926 927 928
f 928 929 930
f 930 931 932
f 932 933 934
f 934 935 936
f 936 937 938
f 938 939 940
f 940 941 942
f 942 943 944
f 944 945 946
f 946 947 948
f 948 949 950
f 950 951 952
f 952 953 954
f 954 955 956
f 956 957 958
f 958 959 960
f 960 961 962
f 962 963 964
f 964 965 966
f 966 967 968
f 968 969 970
f 970 971 972
f 973 974 975
f 976 977 978
f 979 980 981
f 981 982 983
f 983 984 985
f 985 986 987
f 987 988 989
f 989 990 991
f 991 992 993
f 993 994 995
f 995 996 997
f 997 998 999
f 999 1000 1001
f 1001 1002 1003
f 1003 1004 1005
f 1005 1006 1007
f 1007 1008 1009
f 1009 1010 1011
f 1011 1012 1013
f 1013 1014 1015
f 1015 1016 1017
f 1017 1018 1019
f 1019 1020 1021
f 1021 1022 1023
f 1023 1024 1025
f 1025 1026 1027
f 1027 1028 1029
f 1029 1030 1031
f 1031 1032 1033
f 1 3 1034
f 1035 4 6
f 6 8 10
f 10 12 14
f 14 16 18
f 18 20 22
f 22 24 26
f 26 28 30
f 30 32 34
f 34 36 38
f 38 40 42
f 42 44 46
f 46 48 50
f 50 52 54
f 54 56 58
f 61 63 65
f 65 67 69
f 69 71 73
f 73 75 77
f 77 79 81
f 81 83 85
f 85 87 89
f 89 91 93
f 93 95 97
f 97 99 101
f 101 103 105
f 105 107 109
f 109 111 113
f 115 113 116
f 1036 118 120
f 120 122 124
f 124 126 128
f 128 130 132
f 132 134 136
f 136 138 140
f 140 142 144
f 144 146 148
f 148 150 152
f 152 154 156
f 156 158 160
f 160 162 164
f 164 166 168
f 168 170 172
f 175 177 179
f 179 181 183
f 183 185 187
f 187 189 191
f 191 193 195
f 195 197 199
f 199 201 203
f 203 205 207
f 207 209 211
f 211 213 215
f 215 217 219
f 219 221 223
f 223 225 227
f 229 227 230
f 1037 232 234
f 234 236 238
f 238 240 242
f 242 244 246
f 246 248 250
f 250 252 254
f 254 256 258
f 258 260 262
f 262 264 266
f 266 268 270
f 270 272 274
f 274 276 278
f 278 280 282
f 282 284 286
f 289 291 293
f 293 295 297
f 297 299 301
f 301 303 305
f 305 307 309
f 309 311 313
f 313 315 317
f 317 319 321
f 321 323 325
f 325 327 329
f 329 331 333
f 333 335 337
f 337 339 341
f 343 341 344
f 1038 346 348
f 348 350 352
f 352 354 356
f 356 358 360
f 360 362 364
f 364 366 368
f 368 370 372
f 372 374 376
f 376 378 380
f 380 382 384
f 384 386 388
f 388 390 392
f 392 394 396
f 396 398 400
f 403 405 407
f 407 409 411
f 411 413 415
f 415 417 419
f 419 421 423
f 423 425 427
f 427 429 431
f 431 433 435
f 435 437 439
f 439 441 443
f 443 445 447
f 447 449 451
f 451 453 455
f 457 455 458
f 1039 460 462
f 462 464 466
f 466 468 470
f 470 472 474
f 474 476 478
f 478 480 482
f 482 484 486
f 486 488 490
f 490 492 494
f 494 496 498
f 498 500 502
f 502 504 506
f 506 508 510
f 510 512 514
f 517 519 521
f 521 523 525
f 525 527 529
f 529 531 533
f 533 535 537
f 537 539 541
f 541 543 545
f 545 547 549
f 549 551 553
f 553 555 557
f 557 559 561
f 561 563 565
f 565 567 569
f 571 569 572
f 1040 574 576
f 576 578 580
f 580 582 584
f 584 586 588
f 588 590 592
f 592 594 596
f 596 598 600
f 600 602 604
f 604 606 608
f 608 610 612
f 612 614 616
f 616 618 620
f 620 622 624
f 624 626 628
f 631 633 635
f 635 637 639
f 639 641 643
f 643 645 647
f 647 649 651
f 651 653 655
f 655 657 659
f 659 661 663
f 663 665 667
f 667 669 671
f 671 673 675
f 675 677 679
f 679 681 683
f 685 683 686
f 1041 688 690
f 690 692 694
f 694 696 698
f 698 700 702
f 702 704 706
f 706 708 710
f 710 712 714
f 714 716 718
f 718 720 722
f 722 724 726
f 726 728 730
f 730 732 734
f 734 736 738
f 738 740 742
f 745 747 749
f 749 751 753
f 753 755 757
f 757 759 761
f 761 763 765
f 765 767 769
f 769 771 773
f 773 775 777
f 777 779 781
f 781 783 785
f 785 787 789
f 789 791 793
f 793 795 797
f 799 797 800
f 1042 802 804
f 804 806 808
f 808 810 812
f 812 814 816
f 816 818 820
f 820 822 824
f 824 826 828
f 828 830 832
f 832 834 836
f 836 838 840
f 840 842 844
f 844 846 848
f 848 850 852
f 852 854 856
f 859 861 863
f 863 865 867
f 867 869 871
f 871 873 875
f 875 877 879
f 879 881 883
f 883 885 887
f 887 889 891
f 891 893 895
f 895 897 899
f 899 901 903
f 903 905 907
f 907 909 911
f 913 911 914
f 1043 916 918
f 918 920 922
f 922 924 926
f 926 928 930
f 930 932 934
f 934 936 938
f 938 940 942
f 942 944 946
f 946 948 950
f 950 952 954
f 954 956 958
f 958 960 962
f 962 964 966
f 966 968 970
f 1044 973 975
f 1045 976 978
f 979 981 983
f 983 985 987
f 987 989 991
f 991 993 995
f 995 997 999
f 999 1001 1003
f 1003 1005 1007
f 1007 1009 1011
f 1011 1013 1015
f 1015 1017 1019
f 1019 1021 1023
f 1023 1025 1027
f 1027 1029 1031
f 1031 1033 1046
f 1 1034 1047
f 1048 1035 6
f 6 10 14
f 14 18 22
f 22 26 30
f 30 34 38
f 38 42 46
f 46 50 54
f 54 58 60
f 61 65 69
f 69 73 77
f 77 81 85
f 85 89 93
f 93 97 101
f 101 105 109
f 109 113 116
f 1049 1036 120
f 120 124 128
f 128 132 136
f 136 140 144
f 144 148 152
f 152 156 160
f 160 164 168
f 168 172 174
f 175 179 183
f 183 187 191
f 191 195 199
f 199 203 207
f 207 211 215
f 215 219 223
f 223 227 230
f 1050 1037 234
f 234 238 242
f 242 246 250
f 250 254 258
f 258 262 266
f 266 270 274
f 274 278 282
f 282 286 288
f 289 293 297
f 297 301 305
f 305 309 313
f 313 317 321
f 321 325 329
f 329 333 337
f 337 341 344
f 1051 1038 348
f 348 352 356
f 356 360 364
f 364 368 372
f 372 376 380
f 380 384 388
f 388 392 396
f 396 400 402
f 403 407 411
f 411 415 419
f 419 423 427
f 427 431 435
f 435 439 443
f 443 447 451
f 451 455 458
f 1052 1039 462
f 462 466 470
f 470 474 478
f 478 482 486
f 486 490 494
f 494 498 502
f 502 506 510
f 510 514 516
f 517 521 525
f 525 529 533
f 533 537 541
f 541 545 549
f 549 553 557
f 557 561 565
f 565 569 572
f 1053 1040 576
f 576 580 584
f 584 588 592
f 592 596 600
f 600 604 608
f 608 612 616
f 616 620 624
f 624 628 630
f 631 635 639
f 639 643 647
f 647 651 655
f 655 659 663
f 663 667 671
f 671 675 679
f 679 683 686
f 1054 1041 690
f 690 694 698
f 698 702 706
f 706 710 714
f 714 718 722
f 722 726 730
f 730 734 738
f 738 742 744
f 745 749 753
f 753 757 761
f 761 765 769
f 769 773 777
f 777 781 785
f 785 789 793
f 793 797 800
f 1055 1042 804
f 804 808 812
f 812 816 820
f 820 824 828
f 828 832 836
f 836 840 844
f 844 848 852
f 852 856 858
f 859 863 867
f 867 871 875
f 875 879 883
f 883 887 891
f 891 895 899
f 899 903 907
f 907 911 914
f 1056 1043 918
f 918 922 926
f 926 930 934
f 934 938 942
f 942 946 950
f 950 954 958
f 958 962 966
f 966 970 972
f 1057 1044 975
f 1058 1045 978
f 979 983 987
f 987 991 995
f 995 999 1003
f 1003 1007 1011
f 1011 1015 1019
f 1019 1023 1027
f 1027 1031 1046
f 1 1047 1059
f 1060 1048 6
f 6 14 22
f 22 30 38
f 38 46 54
f 61 69 77
f 77 85 93
f 93 101 109
f 109 116 1061
f 1062 1049 120
f 120 128 136
f 136 144 152
f 152 160 168
f 175 183 191
f 191 199 207
f 207 215 223
f 223 230 1063
f 1064 1050 234
f 234 242 250
f 250 258 266
f 266 274 282
f 289 297 305
f 305 313 321
f 321 329 337
f 337 344 1065
f 1066 1051 348
f 348 356 364
f 364 372 380
f 380 388 396
f 403 411 419
f 419 427 435
f 435 443 451
f 451 458 1067
f 1068 1052 462
f 462 470 478
f 478 486 494
f 494 502 510
f 517 525 533
f 533 541 549
f 549 557 565
f 565 572 1069
f 1070 1053 576
f 576 584 592
f 592 600 608
f 608 616 624
f 631 639 647
f 647 655 663
f 663 671 679
f 679 686 1071
f 1072 1054 690
f 690 698 706
f 706 714 722
f 722 730 738
f 745 753 761
f 761 769 777
f 777 785 793
f 793 800 1073
f 1074 1055 804
f 804 812 820
f 820 828 836
f 836 844 852
f 859 867 875
f 875 883 891
f 891 899 907
f 907 914 1075
f 1076 1056 918
f 918 926 934
f 934 942 950
f 950 958 966
f 1077 1057 975
f 1078 1058 978
f 979 987 995
f 995 1003 1011
f 1011 1019 1027
f 1 1059 1079
f 1080 1060 6
f 6 22 38
f 38 54 60
f 61 77 93
f 93 109 1061
f 1081 1062 120
f 120 136 152
f 152 168 174
f 175 191 207
f 207 223 1063
f 1082 1064 234
f 234 250 266
f 266 282 288
f 289 305 321
f 321 337 1065
f 1083 1066 348
f 348 364 380
f 380 396 402
f 403 419 435
f 435 451 1067
f 1084 1068 462
f 462 478 494
f 494 510 516
f 517 533 549
f 549 565 1069
f 1085 1070 576
f 576 592 608
f 608 624 630
f 631 647 663
f 663 679 1071
f 1086 1072 690
f 690 706 722
f 722 738 744
f 745 761 777
f 777 793 1073
f 1087 1074 804
f 804 820 836
f 836 852 858
f 859 875 891
f 891 907 1075
f 1088 1076 918
f 918 934 950
f 950 966 972
f 1089 1077 975
f 1090 1078 978
f 979 995 1011
f 1011 1027 1046
f 1 1079 1091
f 1092 1080 6
f 6 38 60
f 61 93 1061
f 1093 1081 120
f 120 152 174
f 175 207 1063
f 1094 1082 234
f 234 266 288
f 289 321 1065
f 1095 1083 348
f 348 380 402
f 403 435 1067
f 1096 1084 462
f 462 494 516
f 517 549 1069
f 1097 1085 576
f 576 608 630
f 631 663 1071
f 1098 1086 690
f 690 722 744
f 745 777 1073
f 1099 1087 804
f 804 836 858
f 859 891 1075
f 1100 1088 918
f 918 950 972
f 1101 1089 975
f 1102 1090 978
f 979 1011 1046
f 1 1091 1103
f 1104 1092 6
f 61 1061 1105
f 1106 1093 120
f 175 1063 1107
f 1108 1094 234
f 289 1065 1109
f 1110 1095 348
f 403 1067 1111
f 1112 1096 462
f 517 1069 1113
f 1114 1097 576
f 631 1071 1115
f 1116 1098 690
f 745 1073 1117
f 1118 1099 804
f 859 1075 1119
f 1120 1100 918
f 1121 1101 975
f 1122 1102 978
f 1 1103 1123
f 1124 1104 6
f 61 1105 1125
f 1126 1106 120
f 175 1107 1127
f 1128 1108 234
f 289 1109 1129
f 1130 1110 348
f 403 1111 1131
f 1132 1112 462
f 517 1113 1133
f 1134 1114 576
f 631 1115 1135
f 1136 1116 690
f 745 1117 1137
f 1138 1118 804
f 859 1119 1139
f 1140 1120 918
f 1141 1121 975
f 1142 1122 978
f 1 1123 1143
f 1144 1124 6
f 61 1125 1145
f 1146 1126 120
f 175 1127 1147
f 1148 1128 234
f 289 1129 1149
f 1150 1130 348
f 403 1131 1151
f 1152 1132 462
f 517 1133 1153
f 1154 1134 576
f 631 1135 1155
f 1156 1136 690
f 745 1137 1157
f 1158 1138 804
f 859 1139 1159
f 1160 1140 918
f 1161 1141 975
f 1162 1142 978
f 1 1143 1163
f 1164 1144 6
f 61 1145 1165
f 1166 1146 120
f 175 1147 1167
f 1168 1148 234
f 289 1149 1169
f 1170 1150 348
f 403 1151 1171
f 1172 1152 462
f 517 1153 1173
f 1174 1154 576
f 631 1155 1175
f 1176 1156 690
f 745 1157 1177
f 1178 1158 804
f 859 1159 1179
f 1180 1160 918
f 1181 1161 975
f 1182 1162 978
f 1 1163 1183
f 1184 1164 6
f 61 1165 1185
f 1186 1166 120
f 175 1167 1187
f 1188 1168 234
f 289 1169 1189
f 1190 1170 348
f 403 1171 1191
f 1192 1172 462
f 517 1173 1193
f 1194 1174 576
f 631 1175 1195
f 1196 1176 690
f 745 1177 1197
f 1198 1178 804
f 859 1179 1199
f 1200 1180 918
f 1201 1181 975
f 1202 1182 978
f 1 1183 1203
f 1204 1184 6
f 61 1185 1205
f 1206 1186 120
f 175 1187 1207
f 1208 1188 234
f 289 1189 1209
f 1210 1190 348
f 403 1191 1211
f 1212 1192 462
f 517 1193 1213
f 1214 1194 576
f 631 1195 1215
f 1216 1196 690
f 745 1197 1217
f 1218 1198 804
f 859 1199 1219
f 1220 1200 918
f 1221 1201 975
f 1222 1202 978
f 1 1203 1223
f 1224 1204 6
f 61 1205 1225
f 1226 1206 120
f 175 1207 1227
f 1228 1208 234
f 289 1209 1229
f 1230 1210 348
f 403 1211 1231
f 1232 1212 462
f 517 1213 1233
f 1234 1214 576
f 631 1215 1235
f 1236 1216 690
f 745 1217 1237
f 1238 1218 804
f 859 1219 1239
f 1240 1220 918
f 1241 1221 975
f 1242 1222 978
f 1 1223 1243
f 1244 1224 6
f 61 1225 1245
f 1246 1226 120
f 175 1227 1247
f 1248 1228 234
f 289 1229 1249
f 1250 1230 348
f 403 1231 1251
f 1252 1232 462
f 517 1233 1253
f 1254 1234 576
f 631 1235 1255
f 1256 1236 690
f 745 1237 1257
f 1258 1238 804
f 859 1239 1259
f 1260 1240 918
f 1261 1241 975
f 1262 1242 978
f 1 1243 1263
f 1263 1244 6
f 61 1245 1264
f 1265 1246 120
f 175 1247 1266
f 1267 1248 234
f 289 1249 1268
f 1269 1250 348
f 403 1251 1270
f 1271 1252 462
f 517 1253 1272
f 1273 1254 576
f 631 1255 1274
f 1275 1256 690
f 745 1257 1276
f 1277 1258 804
f 859 1259 1278
f 1279 1260 918
f 1280 1261 975
f 1281 1262 978
f 1 1263 6
f 61 1264 1282
f 1283 1265 120
f 175 1266 1284
f 1285 1267 234
f 289 1268 1286
f 1287 1269 348
f 403 1270 1288
f 1289 1271 462
f 517 1272 1290
f 1291 1273 576
f 631 1274 1292
f 1293 1275 690
f 745 1276 1294
f 1295 1277 804
f 859 1278 1296
f 1297 1279 918
f 1298 1280 975
f 1299 1281 978
f 1 6 60
f 61 1282 1300
f 1301 1283 120
f 175 1284 1302
f 1303 1285 234
f 289 1286 1304
f 1305 1287 348
f 403 1288 1306
f 1307 1289 462
f 517 1290 1308
f 1309 1291 576
f 631 1292 1310
f 1311 1293 690
f 745 1294 1312
f 1313 1295 804
f 859 1296 1314
f 1315 1297 918
f 1316 1298 975
f 1317 1299 978
f 1 60 1318
f 61 1300 1301
f 1301 120 174
f 175 1302 1303
f 1303 234 288
f 289 1304 1305
f 1305 348 402
f 403 1306 1307
f 1307 462 516
f 517 1308 1309
f 1309 576 630
f 631 1310 1311
f 1311 690 744
f 745 1312 1313
f 1313 804 858
f 859 1314 1315
f 1315 918 972
f 1319 1316 975
f 1320 1317 978
f 1 1318 1321
f 61 1301 174
f 175 1303 288
f 289 1305 402
f 403 1307 516
f 517 1309 630
f 631 1311 744
f 745 1313 858
f 859 1315 972
f 1322 1319 975
f 1323 1320 978
f 1 1321 1324
f 1325 61 174
f 1326 175 288
f 1327 289 402
f 1328 403 516
f 1329 517 630
f 1330 631 744
f 1331 745 858
f 1332 859 972
f 1333 1322 975
f 1334 1323 978
f 1 1324 1335
f 1336 1325 174
f 1337 1326 288
f 1338 1327 402
f 1339 1328 516
f 1340 1329 630
f 1341 1330 744
f 1342 1331 858
f 1343 1332 972
f 1344 1333 975
f 1345 1334 978
f 1 1335 1346
f 1347 1336 174
f 1348 1337 288
f 1349 1338 402
f 1350 1339 516
f 1351 1340 630
f 1352 1341 744
f 1353 1342 858
f 1354 1343 972
f 1355 1344 975
f 1356 1345 978
f 1 1346 1357
f 1358 1347 174
f 1359 1348 288
f 1360 1349 402
f 1361 1350 516
f 1362 1351 630
f 1363 1352 744
f 1364 1353 858
f 1365 1354 972
f 1366 1355 975
f 1367 1356 978
f 1 1357 1368
f 1369 1358 174
f 1370 1359 288
f 1371 1360 402
f 1372 1361 516
f 1373 1362 630
f 1374 1363 744
f 1375 1364 858
f 1376 1365 972
f 1377 1366 975
f 1378 1367 978
f 1 1368 1379
f 1380 1369 174
f 1381 1370 288
f 1382 1371 402
f 1383 1372 516
f 1384 1373 630
f 1385 1374 744
f 1386 1375 858
f 1387 1376 972
f 1388 1377 975
f 1389 1378 978
f 1 1379 1390
f 1391 1380 174
f 1392 1381 288
f 1393 1382 402
f 1394 1383 516
f 1395 1384 630
f 1396 1385 744
f 1397 1386 858
f 1398 1387 972
f 1399 1388 975
f 1400 1389 978
f 1 1390 1401
f 1402 1391 174
f 1403 1392 288
f 1404 1393 402
f 1405 1394 516
f 1406 1395 630
f 1407 1396 744
f 1408 1397 858
f 1409 1398 972
f 1410 1399 975
f 1411 1400 978
f 1 1401 1412
f 1413 1402 174
f 1414 1403 288
f 1415 1404 402
f 1416 1405 516
f 1417 1406 630
f 1418 1407 744
f 1419 1408 858
f 1420 1409 972
f 1421 1410 975
f 1422 1411 978
f 1 1412 1423
f 1424 1413 174
f 1425 1414 288
f 1426 1415 402
f 1427 1416 516
f 1428 1417 630
f 1429 1418 744
f 1430 1419 858
f 1431 1420 972
f 1432 1421 975
f 1433 1422 978
f 1 1423 1434
f 1435 1424 174
f 1436 1425 288
f 1437 1426 402
f 1438 1427 516
f 1439 1428 630
f 1440 1429 744
f 1441 1430 858
f 1442 1431 972
f 1443 1432 975
f 1444 1433 978
f 1 1434 1445
f 1446 1435 174
f 1447 1436 288
f 1448 1437 402
f 1449 1438 516
f 1450 1439 630
f 1451 1440 744
f 1452 1441 858
f 1453 1442 972
f 1454 1443 975
f 975 1444 978
f 1 1445 1455
f 1456 1446 174
f 1457 1447 288
f 1458 1448 402
f 1459 1449 516
f 1460 1450 630
f 1461 1451 744
f 1462 1452 858
f 1463 1453 972
f 1464 1454 975
f 975 978 1465
f 1 1455 1466
f 1467 1456 174
f 1468 1457 288
f 1469 1458 402
f 1470 1459 516
f 1471 1460 630
f 1472 1461 744
f 1473 1462 858
f 1474 1463 972
f 1475 1464 975
f 975 1465 1476
f 1 1466 1477
f 1478 1467 174
f 1479 1468 288
f 1480 1469 402
f 1481 1470 516
f 1482 1471 630
f 1483 1472 744
f 1484 1473 858
f 1485 1474 972
f 1486 1475 975
f 975 1476 1487
f 1 1477 1488
f 1489 1478 174
f 1490 1479 288
f 1491 1480 402
f 1492 1481 516
f 1493 1482 630
f 1494 1483 744
f 1495 1484 858
f 1496 1485 972
f 1497 1486 975
f 975 1487 1498
f 1 1488 1499
f 1500 1489 174
f 1501 1490 288
f 1502 1491 402
f 1503 1492 516
f 1504 1493 630
f 1505 1494 744
f 1506 1495 858
f 1507 1496 972
f 1508 1497 975
f 975 1498 1509
f 1 1499 1510
f 1511 1500 174
f 1512 1501 288
f 1513 1502 402
f 1514 1503 516
f 1515 1504 630
f 1516 1505 744
f 1517 1506 858
f 1518 1507 972
f 1519 1508 975
f 975 1509 1520
f 1 1510 1521
f 1522 1511 174
f 1523 1512 288
f 1524 1513 402
f 1525 1514 516
f 1526 1515 630
f 1527 1516 744
f 1528 1517 858
f 1529 1518 972
f 1530 1519 975
f 975 1520 1531
f 1 1521 1532
f 1533 1522 174
f 1534 1523 288
f 1535 1524 402
f 1536 1525 516
f 1537 1526 630
f 1538 1527 744
f 1539 1528 858
f 1540 1529 972
f 1541 1530 975
f 975 1531 1542
f 1 1532 1543
f 1544 1533 174
f 1545 1534 288
f 1546 1535 402
f 1547 1536 516
f 1548 1537 630
f 1549 1538 744
f 1550 1539 858
f 1551 1540 972
f 1552 1541 975
f 975 1542 1553
f 1 1543 1554
f 1555 1544 174
f 1556 1545 288
f 1557 1546 402
f 1558 1547 516
f 1559 1548 630
f 1560 1549 744
f 1561 1550 858
f 1562 1551 972
f 1563 1552 975
f 975 1553 1564
f 1 1554 1565
f 1566 1555 174
f 1567 1556 288
f 1568 1557 402
f 1569 1558 516
f 1570 1559 630
f 1571 1560 744
f 1572 1561 858
f 1573 1562 972
f 1574 1563 975
f 975 1564 1575
f 1 1565 1576
f 1577 1566 174
f 1578 1567 288
f 1579 1568 402
f 1580 1569 516
f 1581 1570 630
f 1582 1571 744
f 1583 1572 858
f 1584 1573 972
f 1585 1574 975
f 975 1575 1586
f 1 1576 1587
f 1588 1577 174
f 1589 1578 288
f 1590 1579 402
f 1591 1580 516
f 1592 1581 630
f 1593 1582 744
f 1594 1583 858
f 1595 1584 972
f 1596 1585 975
f 975 1586 1597
f 1598 1 1587
f 1588 174 1599
f 1589 288 1600
f 1590 402 1601
f 1591 516 1602
f 1592 630 1603
f 1593 744 1604
f 1594 858 1605
f 1595 972 1606
f 1607 1596 975
f 975 1597 1608
f 1588 1599 1609
f 1589 1600 1610
f 1590 1601 1611
f 1591 1602 1612
f 1592 1603 1613
f 1593 1604 1614
f 1594 1605 1615
f 1595 1606 1616
f 1617 1607 975
f 975 1608 1618
f 1619 1598 1620
f 1588 1609 1621
f 1589 1610 1622
f 1590 1611 1623
f 1591 1612 1624
f 1592 1613 1625
f 1593 1614 1626
f 1594 1615 1627
f 1595 1616 1628
f 1629 1617 975
f 975 1618 1630
f 1588 1621 1631
f 1589 1622 1632
f 1590 1623 1633
f 1591 1624 1634
f 1592 1625 1635
f 1593 1626 1636
f 1594 1627 1637
f 1595 1628 1638
f 1639 1629 975
f 975 1630 1640
f 1641 1861 1620
f 1861 1642 1620
f 1588 1631 1643
f 1589 1632 1644
f 1590 1633 1645
f 1591 1634 1646
f 1592 1635 1647
f 1593 1636 1648
f 1594 1637 1649
f 1595 1638 1650
f 1651 1639 975
f 975 1640 1652
f 1653 1588 1643
f 1654 1589 1644
f 1655 1590 1645
f 1656 1591 1646
f 1657 1592 1647
f 1658 1593 1648
f 1659 1594 1649
f 1595 1650 1651
f 975 1652 1660
f 1653 1643 1661
f 1654 1644 1662
f 1655 1645 1663
f 1656 1646 1664
f 1657 1647 1665
f 1658 1648 1666
f 1659 1649 1667
f 1595 1651 975
f 975 1660 1668
f 1653 1661 1669
f 1654 1662 1670
f 1655 1663 1671
f 1656 1664 1672
f 1657 1665 1673
f 1658 1666 1674
f 1659 1667 1675
f 1676 1595 975
f 975 1668 1677
f 1653 1669 1678
f 1654 1670 1679
f 1655 1671 1680
f 1656 1672 1681
f 1657 1673 1682
f 1658 1674 1683
f 1659 1675 1684
f 1685 1676 975
f 975 1677 1686
f 1653 1678 1687
f 1654 1679 1688
f 1655 1680 1689
f 1656 1681 1690
f 1657 1682 1691
f 1658 1683 1692
f 1659 1684 1693
f 1694 1685 975
f 975 1686 1695
f 1653 1687 1696
f 1654 1688 1697
f 1655 1689 1698
f 1656 1690 1699
f 1657 1691 1700
f 1658 1692 1701
f 1659 1693 1702
f 1703 1694 975
f 975 1695 1704
f 1653 1696 1705
f 1654 1697 1706
f 1655 1698 1707
f 1656 1699 1708
f 1657 1700 1709
f 1658 1701 1710
f 1659 1702 1711
f 1712 1703 975
f 975 1704 1713
f 1714 1712 975
f 975 1713 1715
f 1620 1705 1716
f 1717 1706 1718
f 1719 1707 1720
f 1721 1708 1722
f 1723 1709 1724
f 1725 1658 1726
f 1658 1710 1726
f 1727 1659 1728
f 1659 1711 1728
f 1729 1714 975
f 975 1715 1730
f 1620 1716 1731
f 1717 1718 1732
f 1719 1720 1733
f 1721 1722 1734
f 1723 1724 1735
f 1725 1726 1736
f 1727 1728 1737
f 1738 1729 975
f 975 1730 1739
f 1620 1731 1740
f 1717 1732 1741
f 1719 1733 1742
f 1721 1734 1743
f 1723 1735 1744
f 1725 1736 1745
f 1727 1737 1746
f 1747 1738 975
f 975 1739 1748
f 1620 1740 1749
f 1717 1741 1750
f 1719 1742 1751
f 1721 1743 1752
f 1723 1744 1753
f 1725 1745 1754
f 1727 1746 1755
f 1756 1747 975
f 975 1748 1757
f 1620 1749 1758
f 1717 1750 1759
f 1719 1751 1760
f 1721 1752 1761
f 1723 1753 1762
f 1725 1754 1763
f 1727 1755 1764
f 1765 1756 975
f 975 1757 1766
f 1620 1758 1767
f 1717 1759 1768
f 1719 1760 1769
f 1721 1761 1770
f 1723 1762 1771
f 1725 1763 1772
f 1727 1764 1773
f 1774 1765 975
f 975 1766 1775
f 979 1046 1776
f 1620 1767 1777
f 1717 1768 1778
f 1719 1769 1779
f 1721 1770 1780
f 1723 1771 1781
f 1725 1772 1782
f 1727 1773 1774
f 975 1775 1783
f 1784 979 1776
f 1620 1777 1785
f 1717 1778 1786
f 1719 1779 1787
f 1721 1780 1788
f 1723 1781 1789
f 1725 1782 1790
f 1727 1774 975
f 975 1783 1791
f 1792 1784 1776
f 1620 1785 1793
f 1717 1786 1794
f 1719 1787 1795
f 1721 1788 1796
f 1723 1789 1797
f 1725 1790 1798
f 1799 1727 975
f 975 1791 1800
f 1801 1792 1776
f 1620 1793 1802
f 1717 1794 1803
f 1719 1795 1804
f 1721 1796 1805
f 1723 1797 1806
f 1725 1798 1807
f 1808 1799 975
f 975 1800 1809
f 1810 1801 1776
f 1620 1802 1811
f 1717 1803 1812
f 1719 1804 1813
f 1721 1805 1814
f 1723 1806 1815
f 1725 1807 1816
f 1817 1808 975
f 975 1809 1818
f 1819 1810 1776
f 1620 1811 1820
f 1717 1812 1821
f 1719 1813 1822
f 1721 1814 1823
f 1723 1815 1824
f 1725 1816 1825
f 1826 1817 975
f 975 1818 1827
f 1828 1819 1776
f 1620 1820 1829
f 1717 1821 1830
f 1719 1822 1831
f 1721 1823 1832
f 1723 1824 1833
f 1725 1825 1826
f 975 1827 1834
f 1835 1828 1776
f 1620 1829 1836
f 1717 1830 1837
f 1719 1831 1838
f 1721 1832 1839
f 1723 1833 1840
f 1725 1826 975
f 975 1834 1841
f 1842 1835 1776
f 1620 1836 1843
f 1717 1837 1844
f 1719 1838 1845
f 1721 1839 1846
f 1723 1840 1847
f 1848 1725 975
f 975 1841 1849
f 1850 1842 1776
f 1851 1598 1843
f 1598 1620 1843
f 1852 1619 1844
f 1619 1717 1844
f 1719 1845 1853
f 1721 1846 1854
f 1723 1847 1848
f 975 1849 1855
f 1856 1850 1776
f 1723 1848 975
f 975 1855 1857
f 1858 1856 1776
f 1721 1723 975
f 975 1857 1858
f 1719 1721 975
f 1776 1859 1858
f 1859 1860 1858
f 1860 1641 1858
f 1641 1723 1858
f 1723 1854 1858
f 1854 1721 1858
f 1721 1853 1858
f 1853 1642 1858
f 1642 1719 1858
f 1719 975 1858
