v -0.468548 -0.159650 -1.051004
v -0.469009 -0.158290 -1.051148
v -0.469454 -0.156965 -1.051493
v -0.469875 -0.155701 -1.052032
v -0.470263 -0.154524 -1.052754
v -0.470613 -0.153456 -1.053643
v -0.470916 -0.152521 -1.054681
v -0.471170 -0.151737 -1.055847
v -0.471368 -0.151119 -1.057117
v -0.471508 -0.150681 -1.058465
v -0.471589 -0.150430 -1.059863
v -0.601415 -0.187618 -1.051004
v -0.601839 -0.186253 -1.051148
v -0.602249 -0.184922 -1.051492
v -0.602637 -0.183652 -1.052030
v -0.602997 -0.182469 -1.052751
v -0.603321 -0.181395 -1.053639
v -0.603603 -0.180455 -1.054677
v -0.603838 -0.179666 -1.055843
v -0.604022 -0.179044 -1.057113
v -0.604153 -0.178603 -1.058462
v -0.604228 -0.178351 -1.059862
f 1 13 2
f 1 12 13
f 2 14 3
f 2 13 14
f 3 15 4
f 3 14 15
f 4 16 5
f 4 15 16
f 5 17 6
f 5 16 17
f 6 18 7
f 6 17 18
f 7 19 8
f 7 18 19
f 8 20 9
f 8 19 20
f 9 21 10
f 9 20 21
f 10 22 11
f 10 21 22
