v -0.490460 -0.463761 -0.825000
v -0.483510 -0.471002 -0.825000
v -0.476453 -0.478140 -0.825000
v -0.469291 -0.485171 -0.825000
v -0.462025 -0.492095 -0.825000
v -0.454657 -0.498911 -0.825000
v -0.447189 -0.505616 -0.825000
v -0.439621 -0.512209 -0.825000
v -0.431956 -0.518689 -0.825000
v -0.424196 -0.525055 -0.825000
v -0.416342 -0.531304 -0.825000
v -0.408396 -0.537436 -0.825000
v -0.400360 -0.543449 -0.825000
v -0.392235 -0.549342 -0.825000
v -0.384024 -0.555113 -0.825000
v -0.375727 -0.560762 -0.825000
v -0.490460 -0.463761 -0.036213
v -0.483510 -0.471002 -0.036213
v -0.476453 -0.478140 -0.036213
v -0.469291 -0.485171 -0.036213
v -0.462025 -0.492095 -0.036213
v -0.454657 -0.498911 -0.036213
v -0.447189 -0.505616 -0.036213
v -0.439621 -0.512209 -0.036213
v -0.431956 -0.518689 -0.036213
v -0.424196 -0.525055 -0.036213
v -0.416342 -0.531304 -0.036213
v -0.408396 -0.537436 -0.036213
v -0.400360 -0.543449 -0.036213
v -0.392235 -0.549342 -0.036213
v -0.384024 -0.555113 -0.036213
v -0.375727 -0.560762 -0.036213
f 1 2 18
f 1 18 17
f 2 3 19
f 2 19 18
f 3 4 20
f 3 20 19
f 4 5 21
f 4 21 20
f 5 6 22
f 5 22 21
f 6 7 23
f 6 23 22
f 7 8 24
f 7 24 23
f 8 9 25
f 8 25 24
f 9 10 26
f 9 26 25
f 10 11 27
f 10 27 26
f 11 12 28
f 11 28 27
f 12 13 29
f 12 29 28
f 13 14 30
f 13 30 29
f 14 15 31
f 14 31 30
f 15 16 32
f 15 32 31
