v 1.967346 -0.559197 -6.129904
v 1.969396 -0.538994 -6.131877
v 1.968381 -0.549097 -6.130900
v 1.970393 -0.528887 -6.132836
v 1.971371 -0.518776 -6.133777
v 1.972330 -0.508662 -6.134700
v 1.973270 -0.498545 -6.135605
v 1.974192 -0.488424 -6.136492
v 1.975094 -0.478300 -6.137360
v 1.975977 -0.468173 -6.138210
v 1.976842 -0.458042 -6.139043
v 1.977687 -0.447908 -6.139857
v 1.978514 -0.437772 -6.140652
v 1.979322 -0.427632 -6.141430
v 1.980110 -0.417490 -6.142189
v 1.980880 -0.407344 -6.142931
v 1.981631 -0.397196 -6.143654
v 1.982363 -0.387045 -6.144358
v 1.983075 -0.376892 -6.145045
v 1.983769 -0.366736 -6.145713
v 1.984444 -0.356578 -6.146363
v 1.985100 -0.346417 -6.146995
v 1.985737 -0.336253 -6.147608
v 1.986355 -0.326088 -6.148204
v 1.986954 -0.315920 -6.148781
v 1.987534 -0.305750 -6.149339
v 1.988095 -0.295578 -6.149880
v 1.988637 -0.285404 -6.150402
v 1.989160 -0.275228 -6.150906
v 1.989664 -0.265050 -6.151392
v 1.990150 -0.254871 -6.151859
v 1.990616 -0.244690 -6.152308
v 1.991063 -0.234507 -6.152739
v 1.967567 -0.559470 -6.132585
v 1.967716 -0.559736 -6.135271
v 1.967792 -0.559995 -6.137961
v 1.967796 -0.560246 -6.140653
v 1.967727 -0.560490 -6.143345
v 1.967585 -0.560727 -6.146034
v 1.967370 -0.560955 -6.148720
v 1.967084 -0.561176 -6.151399
v 1.966724 -0.561389 -6.154070
v 1.966294 -0.561593 -6.156731
v 1.990683 -0.244726 -6.153132
v 1.990278 -0.254946 -6.153508
v 1.989848 -0.265168 -6.153868
v 1.989392 -0.275391 -6.154210
v 1.988911 -0.285614 -6.154536
v 1.988404 -0.295838 -6.154845
v 1.987872 -0.306063 -6.155136
v 1.987314 -0.316288 -6.155411
v 1.986731 -0.326514 -6.155668
v 1.986122 -0.336740 -6.155908
v 1.985488 -0.346966 -6.156131
v 1.984829 -0.357193 -6.156337
v 1.984144 -0.367419 -6.156525
v 1.983433 -0.377646 -6.156696
v 1.982698 -0.387872 -6.156849
v 1.981936 -0.398098 -6.156985
v 1.981149 -0.408324 -6.157103
v 1.980337 -0.418549 -6.157203
v 1.979499 -0.428773 -6.157286
v 1.978636 -0.438997 -6.157351
v 1.977747 -0.449220 -6.157399
v 1.976833 -0.459442 -6.157428
v 1.975894 -0.469664 -6.157440
v 1.974929 -0.479884 -6.157433
v 1.973938 -0.490103 -6.157409
v 1.972922 -0.500320 -6.157367
v 1.971881 -0.510536 -6.157306
v 1.970814 -0.520751 -6.157228
v 1.969722 -0.530964 -6.157131
v 1.968605 -0.541176 -6.157016
v 1.967462 -0.551385 -6.156883
v 1.991900 -0.214136 -6.153546
v 1.991491 -0.224322 -6.153151
v 1.992290 -0.203948 -6.153921
v 1.992661 -0.193760 -6.154279
v 1.993013 -0.183569 -6.154618
v 1.993346 -0.173378 -6.154939
v 1.993660 -0.163185 -6.155242
v 1.993955 -0.152992 -6.155526
v 1.994231 -0.142797 -6.155792
v 1.994488 -0.132601 -6.156039
v 1.994725 -0.122405 -6.156269
v 1.994944 -0.112207 -6.156479
v 1.995144 -0.102009 -6.156672
v 1.995325 -0.091810 -6.156846
v 1.995487 -0.081611 -6.157002
v 1.995629 -0.071411 -6.157140
v 1.995753 -0.061210 -6.157259
v 1.995858 -0.051009 -6.157360
v 1.995943 -0.040808 -6.157442
v 1.996010 -0.030606 -6.157507
v 1.996058 -0.020404 -6.157553
v 1.996086 -0.010202 -6.157580
v 1.996096 0.000000 -6.157589
v 1.996397 0.000000 -6.162877
v 1.996419 0.000000 -6.168172
v 1.996160 0.000000 -6.173462
v 1.995621 0.000000 -6.178730
v 1.994805 0.000000 -6.183963
v 1.993712 0.000000 -6.189145
v 1.992346 0.000000 -6.194262
v 1.990712 0.000000 -6.199299
v 1.988813 0.000000 -6.204243
v 1.986655 0.000000 -6.209079
v 1.965791 -0.561788 -6.159381
v 1.965217 -0.561975 -6.162016
v 1.964573 -0.562154 -6.164635
v 1.963858 -0.562323 -6.167237
v 1.963073 -0.562483 -6.169820
v 1.962219 -0.562635 -6.172380
v 1.961296 -0.562777 -6.174917
v 1.960305 -0.562909 -6.177430
v 1.959247 -0.563033 -6.179915
v 1.958123 -0.563146 -6.182371
v 1.986651 -0.010271 -6.209060
v 1.986627 -0.020543 -6.209024
v 1.986584 -0.030814 -6.208971
v 1.986522 -0.041085 -6.208900
v 1.986441 -0.051355 -6.208812
v 1.986341 -0.061626 -6.208707
v 1.986222 -0.071896 -6.208585
v 1.986083 -0.082165 -6.208445
v 1.985926 -0.092434 -6.208288
v 1.985750 -0.102702 -6.208113
v 1.985554 -0.112970 -6.207921
v 1.985340 -0.123237 -6.207712
v 1.985106 -0.133503 -6.207486
v 1.984854 -0.143768 -6.207242
v 1.984582 -0.154033 -6.206981
v 1.984292 -0.164296 -6.206702
v 1.983982 -0.174559 -6.206407
v 1.983653 -0.184820 -6.206094
v 1.983305 -0.195080 -6.205763
v 1.982938 -0.205339 -6.205416
v 1.982552 -0.215597 -6.205051
v 1.982148 -0.225853 -6.204668
v 1.981724 -0.236108 -6.204269
v 1.981280 -0.246362 -6.203852
v 1.980818 -0.256614 -6.203418
v 1.980337 -0.266864 -6.202967
v 1.979837 -0.277113 -6.202498
v 1.979318 -0.287360 -6.202012
v 1.978780 -0.297605 -6.201509
v 1.978223 -0.307848 -6.200988
v 1.977646 -0.318090 -6.200450
v 1.977051 -0.328329 -6.199895
v 1.976437 -0.338567 -6.199323
v 1.975804 -0.348802 -6.198733
v 1.975152 -0.359035 -6.198127
v 1.974480 -0.369266 -6.197502
v 1.973790 -0.379495 -6.196861
v 1.973081 -0.389721 -6.196202
v 1.972353 -0.399945 -6.195527
v 1.971605 -0.410166 -6.194833
v 1.970839 -0.420385 -6.194123
v 1.970054 -0.430601 -6.193396
v 1.969250 -0.440815 -6.192651
v 1.968427 -0.451025 -6.191889
v 1.967585 -0.461233 -6.191109
v 1.966724 -0.471439 -6.190313
v 1.965844 -0.481641 -6.189499
v 1.964945 -0.491840 -6.188668
v 1.964027 -0.502036 -6.187820
v 1.963091 -0.512229 -6.186955
v 1.962135 -0.522419 -6.186072
v 1.961160 -0.532606 -6.185173
v 1.960167 -0.542790 -6.184256
v 1.959154 -0.552970 -6.183322
v 1.981587 0.000000 -6.218375
v 1.984244 0.000000 -6.213794
v 1.978691 0.000000 -6.222809
v 1.975565 0.000000 -6.227084
v 1.972216 0.000000 -6.231187
v 1.968655 0.000000 -6.235106
v 1.964892 0.000000 -6.238832
v 1.960936 0.000000 -6.242354
v 1.956800 0.000000 -6.245661
v 1.952494 0.000000 -6.248744
v 1.956933 -0.563251 -6.184796
v 1.955678 -0.563345 -6.187189
v 1.954360 -0.563430 -6.189548
v 1.952978 -0.563504 -6.191870
v 1.951535 -0.563569 -6.194156
v 1.950031 -0.563625 -6.196401
v 1.948467 -0.563670 -6.198606
v 1.946844 -0.563705 -6.200769
v 1.945164 -0.563730 -6.202887
v 1.943428 -0.563745 -6.204959
v 1.941637 -0.563750 -6.206985
v 1.939793 -0.563745 -6.208961
v 1.937896 -0.563730 -6.210888
v 1.935948 -0.563705 -6.212763
v 1.933951 -0.563670 -6.214585
v 1.931906 -0.563625 -6.216352
v 1.929815 -0.563569 -6.218065
v 1.927678 -0.563504 -6.219720
v 1.925498 -0.563430 -6.221318
v 1.923277 -0.563345 -6.222856
v 1.921015 -0.563251 -6.224334
v 1.952436 -0.010275 -6.248768
v 1.952360 -0.020550 -6.248775
v 1.952264 -0.030824 -6.248764
v 1.952149 -0.041098 -6.248736
v 1.952014 -0.051372 -6.248690
v 1.951861 -0.061646 -6.248628
v 1.951689 -0.071919 -6.248548
v 1.951498 -0.082191 -6.248450
v 1.951287 -0.092463 -6.248335
v 1.951058 -0.102734 -6.248203
v 1.950809 -0.113005 -6.248053
v 1.950541 -0.123275 -6.247886
v 1.950254 -0.133544 -6.247702
v 1.949948 -0.143812 -6.247501
v 1.949624 -0.154079 -6.247282
v 1.949279 -0.164345 -6.247045
v 1.948916 -0.174610 -6.246792
v 1.948534 -0.184874 -6.246521
v 1.948133 -0.195136 -6.246233
v 1.947713 -0.205398 -6.245927
v 1.947273 -0.215658 -6.245604
v 1.946815 -0.225916 -6.245264
v 1.946337 -0.236174 -6.244906
v 1.945841 -0.246429 -6.244531
v 1.945325 -0.256683 -6.244139
v 1.944790 -0.266936 -6.243729
v 1.944237 -0.277187 -6.243303
v 1.943664 -0.287435 -6.242858
v 1.943072 -0.297683 -6.242397
v 1.942461 -0.307928 -6.241918
v 1.941831 -0.318171 -6.241422
v 1.941182 -0.328412 -6.240909
v 1.940515 -0.338651 -6.240378
v 1.939828 -0.348888 -6.239830
v 1.939122 -0.359123 -6.239265
v 1.938397 -0.369355 -6.238682
v 1.937653 -0.379585 -6.238082
v 1.936890 -0.389813 -6.237465
v 1.936108 -0.400038 -6.236831
v 1.935307 -0.410260 -6.236179
v 1.934487 -0.420480 -6.235510
v 1.933648 -0.430697 -6.234824
v 1.932790 -0.440912 -6.234120
v 1.931913 -0.451124 -6.233400
v 1.931017 -0.461332 -6.232662
v 1.930102 -0.471538 -6.231906
v 1.929168 -0.481741 -6.231134
v 1.928215 -0.491941 -6.230344
v 1.927243 -0.502138 -6.229537
v 1.926252 -0.512332 -6.228713
v 1.925243 -0.522522 -6.227872
v 1.924214 -0.532709 -6.227013
v 1.923167 -0.542893 -6.226137
v 1.922100 -0.553074 -6.225244
v 1.943424 0.000000 -6.254206
v 1.948031 0.000000 -6.251595
v 1.938685 0.000000 -6.256570
v 1.933827 0.000000 -6.258679
v 1.928864 0.000000 -6.260528
v 1.923811 0.000000 -6.262111
v 1.918680 0.000000 -6.263425
v 1.913488 0.000000 -6.264466
v 1.908247 0.000000 -6.265230
v 1.902974 0.000000 -6.265715
v 1.897682 0.000000 -6.265921
v 1.897672 -0.010202 -6.265913
v 1.897642 -0.020404 -6.265887
v 1.897591 -0.030606 -6.265844
v 1.897521 -0.040808 -6.265784
v 1.897431 -0.051009 -6.265706
v 1.897320 -0.061210 -6.265612
v 1.897190 -0.071411 -6.265500
v 1.897039 -0.081611 -6.265371
v 1.896868 -0.091810 -6.265225
v 1.896678 -0.102009 -6.265062
v 1.896467 -0.112207 -6.264881
v 1.896236 -0.122405 -6.264684
v 1.895985 -0.132601 -6.264469
v 1.895714 -0.142797 -6.264237
v 1.895423 -0.152992 -6.263988
v 1.895112 -0.163185 -6.263721
v 1.894780 -0.173378 -6.263438
v 1.894429 -0.183569 -6.263137
v 1.894058 -0.193760 -6.262819
v 1.893666 -0.203948 -6.262484
v 1.893255 -0.214136 -6.262132
v 1.892823 -0.224322 -6.261762
v 1.918714 -0.563146 -6.225751
v 1.916377 -0.563033 -6.227105
v 1.914005 -0.562909 -6.228396
v 1.911599 -0.562777 -6.229623
v 1.909162 -0.562635 -6.230784
v 1.906695 -0.562483 -6.231879
v 1.904200 -0.562323 -6.232908
v 1.901678 -0.562154 -6.233868
v 1.899132 -0.561975 -6.234761
v 1.896564 -0.561788 -6.235584
v 1.893254 -0.234544 -6.261363
v 1.893666 -0.244767 -6.260939
v 1.894058 -0.254991 -6.260490
v 1.894431 -0.265217 -6.260016
v 1.894785 -0.275444 -6.259518
v 1.895119 -0.285671 -6.258996
v 1.895434 -0.295900 -6.258448
v 1.895729 -0.306129 -6.257876
v 1.896005 -0.316359 -6.257280
v 1.896261 -0.326590 -6.256658
v 1.896497 -0.336821 -6.256012
v 1.896713 -0.347052 -6.255342
v 1.896909 -0.357283 -6.254646
v 1.897086 -0.367515 -6.253927
v 1.897242 -0.377746 -6.253182
v 1.897378 -0.387978 -6.252413
v 1.897495 -0.398209 -6.251619
v 1.897591 -0.408440 -6.250801
v 1.897666 -0.418670 -6.249958
v 1.897722 -0.428900 -6.249091
v 1.897757 -0.439129 -6.248199
v 1.897771 -0.449358 -6.247282
v 1.897765 -0.459585 -6.246341
v 1.897739 -0.469812 -6.245375
v 1.897691 -0.480038 -6.244385
v 1.897623 -0.490262 -6.243371
v 1.897535 -0.500485 -6.242332
v 1.897425 -0.510706 -6.241268
v 1.897295 -0.520926 -6.240180
v 1.897144 -0.531145 -6.239068
v 1.896972 -0.541361 -6.237931
v 1.896778 -0.551576 -6.236770
v 1.891900 -0.244690 -6.260972
v 1.892372 -0.234507 -6.261376
v 1.891409 -0.254871 -6.260551
v 1.890897 -0.265050 -6.260113
v 1.890365 -0.275228 -6.259658
v 1.889814 -0.285404 -6.259185
v 1.889242 -0.295578 -6.258696
v 1.888650 -0.305750 -6.258189
v 1.888039 -0.315920 -6.257665
v 1.887407 -0.326088 -6.257124
v 1.886755 -0.336253 -6.256566
v 1.886083 -0.346417 -6.255990
v 1.885392 -0.356578 -6.255398
v 1.884680 -0.366736 -6.254788
v 1.883949 -0.376892 -6.254162
v 1.883197 -0.387045 -6.253518
v 1.882425 -0.397196 -6.252857
v 1.881634 -0.407344 -6.252179
v 1.880822 -0.417490 -6.251483
v 1.879991 -0.427632 -6.250771
v 1.879140 -0.437772 -6.250041
v 1.878268 -0.447908 -6.249295
v 1.877377 -0.458042 -6.248531
v 1.876466 -0.468173 -6.247750
v 1.875535 -0.478300 -6.246952
v 1.874584 -0.488424 -6.246137
v 1.873614 -0.498545 -6.245305
v 1.872623 -0.508662 -6.244456
v 1.871612 -0.518776 -6.243590
v 1.870582 -0.528887 -6.242706
v 1.869532 -0.538994 -6.241806
v 1.868462 -0.549097 -6.240888
v 1.867372 -0.559197 -6.239954
v 1.893975 -0.561593 -6.236338
v 1.891367 -0.561389 -6.237022
v 1.888743 -0.561176 -6.237635
v 1.886103 -0.560955 -6.238177
v 1.883451 -0.560727 -6.238647
v 1.880787 -0.560490 -6.239046
v 1.878114 -0.560246 -6.239373
v 1.875435 -0.559995 -6.239627
v 1.872750 -0.559736 -6.239808
v 1.870061 -0.559470 -6.239917
f 1 2 3
f 1 4 2
f 1 5 4
f 1 6 5
f 1 7 6
f 1 8 7
f 1 9 8
f 1 10 9
f 1 11 10
f 1 12 11
f 1 13 12
f 1 14 13
f 1 15 14
f 1 16 15
f 1 17 16
f 1 18 17
f 1 19 18
f 1 20 19
f 1 21 20
f 1 22 21
f 1 23 22
f 1 24 23
f 1 25 24
f 1 26 25
f 1 27 26
f 1 28 27
f 1 29 28
f 1 30 29
f 1 31 30
f 1 32 31
f 1 33 32
f 1 34 35
f 1 35 36
f 1 36 37
f 1 37 38
f 1 38 39
f 1 39 40
f 1 40 41
f 1 41 42
f 1 42 43
f 1 44 33
f 1 45 44
f 1 46 45
f 1 47 46
f 1 48 47
f 1 49 48
f 1 50 49
f 1 51 50
f 1 52 51
f 1 53 52
f 1 54 53
f 1 55 54
f 1 56 55
f 1 57 56
f 1 58 57
f 1 59 58
f 1 60 59
f 1 61 60
f 1 62 61
f 1 63 62
f 1 64 63
f 1 65 64
f 1 66 65
f 1 67 66
f 1 68 67
f 1 69 68
f 1 70 69
f 1 71 70
f 1 72 71
f 1 73 72
f 1 74 73
f 1 43 74
f 33 75 76
f 33 77 75
f 33 78 77
f 33 79 78
f 33 80 79
f 33 81 80
f 33 82 81
f 33 83 82
f 33 84 83
f 33 85 84
f 33 86 85
f 33 87 86
f 33 88 87
f 33 89 88
f 33 90 89
f 33 91 90
f 33 92 91
f 33 93 92
f 33 94 93
f 33 95 94
f 33 96 95
f 33 97 96
f 33 98 97
f 33 99 98
f 33 100 99
f 33 101 100
f 33 102 101
f 33 103 102
f 33 104 103
f 33 105 104
f 33 106 105
f 33 107 106
f 43 108 109
f 43 109 110
f 43 110 111
f 43 111 112
f 43 112 113
f 43 113 114
f 43 114 115
f 43 115 116
f 43 116 117
f 33 118 107
f 33 119 118
f 33 120 119
f 33 121 120
f 33 122 121
f 33 123 122
f 33 124 123
f 33 125 124
f 33 126 125
f 33 127 126
f 33 128 127
f 33 129 128
f 33 130 129
f 33 131 130
f 33 132 131
f 33 133 132
f 33 134 133
f 33 135 134
f 33 136 135
f 33 137 136
f 33 138 137
f 33 139 138
f 33 140 139
f 33 44 140
f 44 141 140
f 44 45 141
f 45 142 141
f 45 46 142
f 46 143 142
f 46 47 143
f 47 144 143
f 47 48 144
f 48 145 144
f 48 49 145
f 49 146 145
f 49 50 146
f 50 147 146
f 50 51 147
f 51 148 147
f 51 52 148
f 52 149 148
f 52 53 149
f 53 150 149
f 53 54 150
f 54 151 150
f 54 55 151
f 55 152 151
f 55 56 152
f 56 153 152
f 56 57 153
f 57 154 153
f 57 58 154
f 58 155 154
f 58 59 155
f 59 156 155
f 59 60 156
f 60 157 156
f 60 61 157
f 61 158 157
f 61 62 158
f 62 159 158
f 62 63 159
f 63 160 159
f 63 64 160
f 64 161 160
f 64 65 161
f 65 162 161
f 65 66 162
f 66 163 162
f 66 67 163
f 67 164 163
f 67 68 164
f 68 165 164
f 68 69 165
f 69 166 165
f 69 70 166
f 70 167 166
f 70 71 167
f 71 168 167
f 71 72 168
f 72 169 168
f 72 73 169
f 73 170 169
f 73 74 170
f 74 171 170
f 74 43 171
f 43 117 171
f 107 172 173
f 107 174 172
f 107 175 174
f 107 176 175
f 107 177 176
f 107 178 177
f 107 179 178
f 107 180 179
f 107 181 180
f 117 182 183
f 117 183 184
f 117 184 185
f 117 185 186
f 117 186 187
f 117 187 188
f 117 188 189
f 117 189 190
f 117 190 191
f 117 191 192
f 117 192 193
f 117 193 194
f 117 194 195
f 117 195 196
f 117 196 197
f 117 197 198
f 117 198 199
f 117 199 200
f 117 200 201
f 117 201 202
f 107 118 181
f 118 203 181
f 118 119 203
f 119 204 203
f 119 120 204
f 120 205 204
f 120 121 205
f 121 206 205
f 121 122 206
f 122 207 206
f 122 123 207
f 123 208 207
f 123 124 208
f 124 209 208
f 124 125 209
f 125 210 209
f 125 126 210
f 126 211 210
f 126 127 211
f 127 212 211
f 127 128 212
f 128 213 212
f 128 129 213
f 129 214 213
f 129 130 214
f 130 215 214
f 130 131 215
f 131 216 215
f 131 132 216
f 132 217 216
f 132 133 217
f 133 218 217
f 133 134 218
f 134 219 218
f 134 135 219
f 135 220 219
f 135 136 220
f 136 221 220
f 136 137 221
f 137 222 221
f 137 138 222
f 138 223 222
f 138 139 223
f 139 224 223
f 139 140 224
f 140 225 224
f 140 141 225
f 141 226 225
f 141 142 226
f 142 227 226
f 142 143 227
f 143 228 227
f 143 144 228
f 144 229 228
f 144 145 229
f 145 230 229
f 145 146 230
f 146 231 230
f 146 147 231
f 147 232 231
f 147 148 232
f 148 233 232
f 148 149 233
f 149 234 233
f 149 150 234
f 150 235 234
f 150 151 235
f 151 236 235
f 151 152 236
f 152 237 236
f 152 153 237
f 153 238 237
f 153 154 238
f 154 239 238
f 154 155 239
f 155 240 239
f 155 156 240
f 156 241 240
f 156 157 241
f 157 242 241
f 157 158 242
f 158 243 242
f 158 159 243
f 159 244 243
f 159 160 244
f 160 245 244
f 160 161 245
f 161 246 245
f 161 162 246
f 162 247 246
f 162 163 247
f 163 248 247
f 163 164 248
f 164 249 248
f 164 165 249
f 165 250 249
f 165 166 250
f 166 251 250
f 166 167 251
f 167 252 251
f 167 168 252
f 168 253 252
f 168 169 253
f 169 254 253
f 169 170 254
f 170 255 254
f 170 171 255
f 171 256 255
f 171 202 256
f 171 117 202
f 181 257 258
f 181 259 257
f 181 260 259
f 181 261 260
f 181 262 261
f 181 263 262
f 181 264 263
f 181 265 264
f 181 266 265
f 181 267 266
f 181 268 267
f 181 269 268
f 181 270 269
f 181 271 270
f 181 272 271
f 181 273 272
f 181 274 273
f 181 275 274
f 181 276 275
f 181 277 276
f 181 278 277
f 181 279 278
f 181 280 279
f 181 281 280
f 181 282 281
f 181 283 282
f 181 284 283
f 181 285 284
f 181 286 285
f 181 287 286
f 181 288 287
f 181 289 288
f 202 290 291
f 202 291 292
f 202 292 293
f 202 293 294
f 202 294 295
f 202 295 296
f 202 296 297
f 202 297 298
f 202 298 299
f 181 203 289
f 203 204 289
f 204 205 289
f 205 206 289
f 206 207 289
f 207 208 289
f 208 209 289
f 209 210 289
f 210 211 289
f 211 212 289
f 212 213 289
f 213 214 289
f 214 215 289
f 215 216 289
f 216 217 289
f 217 218 289
f 218 219 289
f 219 220 289
f 220 221 289
f 221 222 289
f 222 223 289
f 223 224 289
f 224 225 289
f 225 300 289
f 225 226 300
f 226 301 300
f 226 227 301
f 227 302 301
f 227 228 302
f 228 303 302
f 228 229 303
f 229 304 303
f 229 230 304
f 230 305 304
f 230 231 305
f 231 306 305
f 231 232 306
f 232 307 306
f 232 233 307
f 233 308 307
f 233 234 308
f 234 309 308
f 234 235 309
f 235 310 309
f 235 236 310
f 236 311 310
f 236 237 311
f 237 312 311
f 237 238 312
f 238 313 312
f 238 239 313
f 239 314 313
f 239 240 314
f 240 315 314
f 240 241 315
f 241 316 315
f 241 242 316
f 242 317 316
f 242 243 317
f 243 318 317
f 243 244 318
f 244 319 318
f 244 245 319
f 245 320 319
f 245 246 320
f 246 321 320
f 246 247 321
f 247 322 321
f 247 248 322
f 248 323 322
f 248 249 323
f 249 324 323
f 249 250 324
f 250 325 324
f 250 251 325
f 251 326 325
f 251 252 326
f 252 327 326
f 252 253 327
f 253 328 327
f 253 254 328
f 254 329 328
f 254 255 329
f 255 330 329
f 255 256 330
f 256 331 330
f 256 299 331
f 256 202 299
f 289 332 333
f 289 334 332
f 289 335 334
f 289 336 335
f 289 337 336
f 289 338 337
f 289 339 338
f 289 340 339
f 289 341 340
f 289 342 341
f 289 343 342
f 289 344 343
f 289 345 344
f 289 346 345
f 289 347 346
f 289 348 347
f 289 349 348
f 289 350 349
f 289 351 350
f 289 352 351
f 289 353 352
f 289 354 353
f 289 355 354
f 289 356 355
f 289 357 356
f 289 358 357
f 289 359 358
f 289 360 359
f 289 361 360
f 289 362 361
f 289 363 362
f 289 364 363
f 299 365 366
f 299 366 367
f 299 367 368
f 299 368 369
f 299 369 370
f 299 370 371
f 299 371 372
f 299 372 373
f 299 373 374
f 299 374 364
f 289 300 364
f 300 301 364
f 301 302 364
f 302 303 364
f 303 304 364
f 304 305 364
f 305 306 364
f 306 307 364
f 307 308 364
f 308 309 364
f 309 310 364
f 310 311 364
f 311 312 364
f 312 313 364
f 313 314 364
f 314 315 364
f 315 316 364
f 316 317 364
f 317 318 364
f 318 319 364
f 319 320 364
f 320 321 364
f 321 322 364
f 322 323 364
f 323 324 364
f 324 325 364
f 325 326 364
f 326 327 364
f 327 328 364
f 328 329 364
f 329 330 364
f 330 331 364
f 331 299 364
