v -0.238840 0.433567 -1.051000
v -0.237578 0.434260 -1.051103
v -0.236342 0.434934 -1.051408
v -0.235157 0.435575 -1.051909
v -0.234048 0.436173 -1.052596
v -0.233035 0.436715 -1.053453
v -0.232141 0.437191 -1.054463
v -0.231384 0.437592 -1.055605
v -0.230778 0.437912 -1.056856
v -0.230336 0.438144 -1.058190
v -0.230068 0.438285 -1.059581
v -0.229977 0.438333 -1.061000
v -0.289458 0.559566 -1.051000
v -0.288184 0.560223 -1.051103
v -0.286937 0.560863 -1.051407
v -0.285740 0.561474 -1.051907
v -0.284619 0.562043 -1.052593
v -0.283596 0.562560 -1.053449
v -0.282692 0.563014 -1.054458
v -0.281927 0.563398 -1.055601
v -0.281314 0.563704 -1.056852
v -0.280868 0.563926 -1.058187
v -0.280597 0.564061 -1.059579
v -0.280505 0.564107 -1.061000
f 1 14 2
f 1 13 14
f 2 15 3
f 2 14 15
f 3 16 4
f 3 15 16
f 4 17 5
f 4 16 17
f 5 18 6
f 5 17 18
f 6 19 7
f 6 18 19
f 7 20 8
f 7 19 20
f 8 21 9
f 8 20 21
f 9 22 10
f 9 21 22
f 10 23 11
f 10 22 23
f 11 24 12
f 11 23 24
