v -0.630000 0.000000 -1.051000
v -0.629999 -0.000939 -1.051000
v -0.629997 -0.001878 -1.051000
v -0.629994 -0.002818 -1.051000
v -0.629989 -0.003757 -1.051000
v -0.629982 -0.004696 -1.051000
v -0.629975 -0.005635 -1.051000
v -0.629966 -0.006574 -1.051000
v -0.629955 -0.007513 -1.051000
v -0.629943 -0.008453 -1.051000
v -0.629930 -0.009392 -1.051000
v -0.629915 -0.010331 -1.051000
v -0.629899 -0.011270 -1.051000
v -0.629882 -0.012209 -1.051000
v -0.629863 -0.013148 -1.051000
v -0.629842 -0.014087 -1.051000
v -0.629821 -0.015026 -1.051000
v -0.629798 -0.015965 -1.051000
v -0.629773 -0.016904 -1.051000
v -0.629747 -0.017843 -1.051000
v -0.629720 -0.018781 -1.051000
v -0.629691 -0.019720 -1.051000
v -0.629661 -0.020659 -1.051000
v -0.629630 -0.021598 -1.051000
v -0.629597 -0.022536 -1.051000
v -0.629562 -0.023475 -1.051000
v -0.629527 -0.024413 -1.051000
v -0.629490 -0.025352 -1.051000
v -0.629451 -0.026290 -1.051000
v -0.629411 -0.027229 -1.051000
v -0.629370 -0.028167 -1.051000
v -0.629327 -0.029105 -1.051000
v -0.494900 -0.009942 -1.051000
v -0.494906 -0.009622 -1.051000
v -0.494913 -0.009301 -1.051000
v -0.494919 -0.008980 -1.051000
v -0.494924 -0.008660 -1.051000
v -0.494930 -0.008339 -1.051000
v -0.494935 -0.008018 -1.051000
v -0.494940 -0.007697 -1.051000
v -0.494945 -0.007377 -1.051000
v -0.494950 -0.007056 -1.051000
v -0.494954 -0.006735 -1.051000
v -0.494958 -0.006415 -1.051000
v -0.494962 -0.006094 -1.051000
v -0.494966 -0.005773 -1.051000
v -0.494970 -0.005452 -1.051000
v -0.494973 -0.005132 -1.051000
v -0.494977 -0.004811 -1.051000
v -0.494980 -0.004490 -1.051000
v -0.494982 -0.004170 -1.051000
v -0.494985 -0.003849 -1.051000
v -0.494987 -0.003528 -1.051000
v -0.494990 -0.003207 -1.051000
v -0.494992 -0.002887 -1.051000
v -0.494993 -0.002566 -1.051000
v -0.494995 -0.002245 -1.051000
v -0.494996 -0.001924 -1.051000
v -0.494997 -0.001604 -1.051000
v -0.494998 -0.001283 -1.051000
v -0.494999 -0.000962 -1.051000
v -0.495000 -0.000641 -1.051000
v -0.495000 -0.000321 -1.051000
v -0.495000 0.000000 -1.051000
v -0.495000 0.000321 -1.051000
v -0.495000 0.000641 -1.051000
v -0.494999 0.000962 -1.051000
v -0.494998 0.001283 -1.051000
v -0.494997 0.001604 -1.051000
v -0.494996 0.001924 -1.051000
v -0.494995 0.002245 -1.051000
v -0.494993 0.002566 -1.051000
v -0.494992 0.002887 -1.051000
v -0.494990 0.003207 -1.051000
v -0.494987 0.003528 -1.051000
v -0.494985 0.003849 -1.051000
v -0.494982 0.004170 -1.051000
v -0.494980 0.004490 -1.051000
v -0.494977 0.004811 -1.051000
v -0.494973 0.005132 -1.051000
v -0.494970 0.005452 -1.051000
v -0.494966 0.005773 -1.051000
v -0.494962 0.006094 -1.051000
v -0.494958 0.006415 -1.051000
v -0.494954 0.006735 -1.051000
v -0.494950 0.007056 -1.051000
v -0.494945 0.007377 -1.051000
v -0.494940 0.007697 -1.051000
v -0.494935 0.008018 -1.051000
v -0.494930 0.008339 -1.051000
v -0.494924 0.008660 -1.051000
v -0.494919 0.008980 -1.051000
v -0.494913 0.009301 -1.051000
v -0.494906 0.009622 -1.051000
v -0.494900 0.009942 -1.051000
v -0.629327 0.029105 -1.051000
v -0.629370 0.028167 -1.051000
v -0.629411 0.027229 -1.051000
v -0.629451 0.026290 -1.051000
v -0.629490 0.025352 -1.051000
v -0.629527 0.024413 -1.051000
v -0.629562 0.023475 -1.051000
v -0.629597 0.022536 -1.051000
v -0.629630 0.021598 -1.051000
v -0.629661 0.020659 -1.051000
v -0.629691 0.019720 -1.051000
v -0.629720 0.018781 -1.051000
v -0.629747 0.017843 -1.051000
v -0.629773 0.016904 -1.051000
v -0.629798 0.015965 -1.051000
v -0.629821 0.015026 -1.051000
v -0.629842 0.014087 -1.051000
v -0.629863 0.013148 -1.051000
v -0.629882 0.012209 -1.051000
v -0.629899 0.011270 -1.051000
v -0.629915 0.010331 -1.051000
v -0.629930 0.009392 -1.051000
v -0.629943 0.008453 -1.051000
v -0.629955 0.007513 -1.051000
v -0.629966 0.006574 -1.051000
v -0.629975 0.005635 -1.051000
v -0.629982 0.004696 -1.051000
v -0.629989 0.003757 -1.051000
v -0.629994 0.002818 -1.051000
v -0.629997 0.001878 -1.051000
v -0.629999 0.000939 -1.051000
f 1 2 3
f 1 3 4
f 1 4 5
f 1 5 6
f 1 6 7
f 1 7 8
f 1 8 9
f 1 9 10
f 1 10 11
f 1 11 12
f 1 12 13
f 1 13 14
f 1 14 15
f 1 15 16
f 1 16 17
f 1 17 18
f 1 18 19
f 1 19 20
f 1 20 21
f 1 21 22
f 1 22 23
f 1 23 24
f 1 24 25
f 1 25 26
f 1 26 27
f 1 27 28
f 1 28 29
f 1 29 30
f 1 30 31
f 1 31 32
f 1 32 33
f 1 33 34
f 1 34 35
f 1 35 36
f 1 36 37
f 1 37 38
f 1 38 39
f 1 39 40
f 1 40 41
f 1 41 42
f 1 42 43
f 1 43 44
f 1 44 45
f 1 45 46
f 1 46 47
f 1 47 48
f 1 48 49
f 1 49 50
f 1 50 51
f 1 51 52
f 1 52 53
f 1 53 54
f 1 54 55
f 1 55 56
f 1 56 57
f 1 57 58
f 1 58 59
f 1 59 60
f 1 60 61
f 1 61 62
f 1 62 63
f 1 63 64
f 1 64 65
f 1 65 66
f 1 66 67
f 1 67 68
f 1 68 69
f 1 69 70
f 1 70 71
f 1 71 72
f 1 72 73
f 1 73 74
f 1 74 75
f 1 75 76
f 1 76 77
f 1 77 78
f 1 78 79
f 1 79 80
f 1 80 81
f 1 81 82
f 1 82 83
f 1 83 84
f 1 84 85
f 1 85 86
f 1 86 87
f 1 87 88
f 1 88 89
f 1 89 90
f 1 90 91
f 1 91 92
f 1 92 93
f 1 93 94
f 1 94 95
f 1 95 96
f 1 96 97
f 1 97 98
f 1 98 99
f 1 99 100
f 1 100 101
f 1 101 102
f 1 102 103
f 1 103 104
f 1 104 105
f 1 105 106
f 1 106 107
f 1 107 108
f 1 108 109
f 1 109 110
f 1 110 111
f 1 111 112
f 1 112 113
f 1 113 114
f 1 114 115
f 1 115 116
f 1 116 117
f 1 117 118
f 1 118 119
f 1 119 120
f 1 120 121
f 1 121 122
f 1 122 123
f 1 123 124
f 1 124 125
f 1 125 126
