v -0.360000 0.015000 0.000000
v -0.360359 0.015000 0.007082
v -0.361433 0.015000 0.014091
v -0.363210 0.015000 0.020955
v -0.365673 0.015000 0.027605
v -0.368796 0.015000 0.033971
v -0.372547 0.015000 0.039989
v -0.376887 0.015000 0.045596
v -0.381772 0.015000 0.050735
v -0.387153 0.015000 0.055354
v -0.392973 0.015000 0.059405
v -0.399172 0.015000 0.062846
v -0.405689 0.015000 0.065643
v -0.412454 0.015000 0.067765
v -0.419400 0.015000 0.069193
v -0.426455 0.015000 0.069910
v -0.433545 0.015000 0.069910
v -0.440600 0.015000 0.069193
v -0.447546 0.015000 0.067765
v -0.454311 0.015000 0.065643
v -0.460828 0.015000 0.062846
v -0.467027 0.015000 0.059405
v -0.472847 0.015000 0.055354
v -0.478228 0.015000 0.050735
v -0.483113 0.015000 0.045596
v -0.487453 0.015000 0.039989
v -0.491204 0.015000 0.033971
v -0.494327 0.015000 0.027605
v -0.496790 0.015000 0.020955
v -0.498567 0.015000 0.014091
v -0.499641 0.015000 0.007082
v -0.500000 0.015000 0.000000
v -0.340858 0.000000 0.000000
v -0.341315 0.000000 0.009018
v -0.342683 0.000000 0.017944
v -0.344946 0.000000 0.026686
v -0.348082 0.000000 0.035154
v -0.352059 0.000000 0.043261
v -0.356835 0.000000 0.050924
v -0.362363 0.000000 0.058065
v -0.368584 0.000000 0.064610
v -0.375436 0.000000 0.070491
v -0.382847 0.000000 0.075650
v -0.390742 0.000000 0.080032
v -0.399040 0.000000 0.083593
v -0.407656 0.000000 0.086296
v -0.416501 0.000000 0.088114
v -0.425485 0.000000 0.089028
v -0.434515 0.000000 0.089028
v -0.443499 0.000000 0.088114
v -0.452344 0.000000 0.086296
v -0.460960 0.000000 0.083593
v -0.469258 0.000000 0.080032
v -0.477153 0.000000 0.075650
v -0.484564 0.000000 0.070491
v -0.491416 0.000000 0.064610
v -0.497637 0.000000 0.058065
v -0.503165 0.000000 0.050924
v -0.507941 0.000000 0.043261
v -0.511918 0.000000 0.035154
v -0.515054 0.000000 0.026686
v -0.517317 0.000000 0.017944
v -0.518685 0.000000 0.009018
v -0.519142 0.000000 0.000000
f 1 2 34
f 1 34 33
f 2 3 35
f 2 35 34
f 3 4 36
f 3 36 35
f 4 5 37
f 4 37 36
f 5 6 38
f 5 38 37
f 6 7 39
f 6 39 38
f 7 8 40
f 7 40 39
f 8 9 41
f 8 41 40
f 9 10 42
f 9 42 41
f 10 11 43
f 10 43 42
f 11 12 44
f 11 44 43
f 12 13 45
f 12 45 44
f 13 14 46
f 13 46 45
f 14 15 47
f 14 47 46
f 15 16 48
f 15 48 47
f 16 17 49
f 16 49 48
f 17 18 50
f 17 50 49
f 18 19 51
f 18 51 50
f 19 20 52
f 19 52 51
f 20 21 53
f 20 53 52
f 21 22 54
f 21 54 53
f 22 23 55
f 22 55 54
f 23 24 56
f 23 56 55
f 24 25 57
f 24 57 56
f 25 26 58
f 25 58 57
f 26 27 59
f 26 59 58
f 27 28 60
f 27 60 59
f 28 29 61
f 28 61 60
f 29 30 62
f 29 62 61
f 30 31 63
f 30 63 62
f 31 32 64
f 31 64 63
