v -0.372725 0.325732 -1.051000
v -0.371776 0.326814 -1.051103
v -0.370845 0.327870 -1.051408
v -0.369951 0.328878 -1.051909
v -0.369113 0.329819 -1.052596
v -0.368346 0.330675 -1.053453
v -0.367669 0.331428 -1.054463
v -0.367095 0.332064 -1.055605
v -0.366635 0.332572 -1.056856
v -0.366299 0.332941 -1.058190
v -0.366095 0.333165 -1.059581
v -0.366027 0.333241 -1.061000
v -0.418347 0.376602 -1.051000
v -0.417283 0.377556 -1.051103
v -0.416243 0.378489 -1.051408
v -0.415246 0.379383 -1.051909
v -0.414313 0.380220 -1.052595
v -0.413463 0.380982 -1.053452
v -0.412714 0.381654 -1.054462
v -0.412079 0.382223 -1.055605
v -0.411572 0.382678 -1.056856
v -0.411202 0.383010 -1.058190
v -0.410978 0.383211 -1.059581
v -0.410902 0.383279 -1.061000
v -0.463969 0.427472 -1.051000
v -0.462906 0.428426 -1.051103
v -0.461865 0.429359 -1.051408
v -0.460868 0.430253 -1.051909
v -0.459936 0.431090 -1.052595
v -0.459086 0.431852 -1.053452
v -0.458336 0.432524 -1.054462
v -0.457701 0.433094 -1.055605
v -0.457194 0.433548 -1.056856
v -0.456825 0.433880 -1.058190
v -0.456600 0.434081 -1.059581
v -0.456525 0.434149 -1.061000
f 1 14 2
f 1 13 14
f 2 15 3
f 2 14 15
f 3 16 4
f 3 15 16
f 4 17 5
f 4 16 17
f 5 18 6
f 5 17 18
f 6 19 7
f 6 18 19
f 7 20 8
f 7 19 20
f 8 21 9
f 8 20 21
f 9 22 10
f 9 21 22
f 10 23 11
f 10 22 23
f 11 24 12
f 11 23 24
f 13 26 14
f 13 25 26
f 14 27 15
f 14 26 27
f 15 28 16
f 15 27 28
f 16 29 17
f 16 28 29
f 17 30 18
f 17 29 30
f 18 31 19
f 18 30 31
f 19 32 20
f 19 31 32
f 20 33 21
f 20 32 33
f 21 34 22
f 21 33 34
f 22 35 23
f 22 34 35
f 23 36 24
f 23 35 36
