v 0.812089 -0.126861 -6.685962
v 0.812089 -0.063439 -6.687491
v 0.855000 -0.332409 -6.673988
v 0.305000 -0.751533 -6.615847
v 0.305000 -0.756592 -6.614863
v -1.575786 -0.756592 -6.614863
v -1.575961 -0.743002 -6.617491
v -1.576132 -0.729403 -6.620070
v -1.576299 -0.715795 -6.622603
v -1.576461 -0.702178 -6.625087
v -1.576618 -0.688553 -6.627524
v -1.576771 -0.674919 -6.629913
v -1.576919 -0.661277 -6.632254
v -1.577061 -0.647627 -6.634547
v -1.577198 -0.633969 -6.636793
v -1.577329 -0.620302 -6.638990
v -1.577454 -0.606629 -6.641140
v -1.577574 -0.592947 -6.643242
v -1.577687 -0.579258 -6.645296
v -1.577793 -0.565563 -6.647302
v -1.577893 -0.551860 -6.649260
v -1.577986 -0.538150 -6.651169
v -1.578072 -0.524433 -6.653031
v -1.578151 -0.510710 -6.654845
v -1.578223 -0.496980 -6.656611
v -1.578286 -0.483244 -6.658328
v -1.578343 -0.469503 -6.659998
v -1.578392 -0.455755 -6.661619
v -1.578433 -0.442001 -6.663192
v -1.578467 -0.428243 -6.664717
v -1.578494 -0.414478 -6.666194
v -1.578513 -0.400709 -6.667622
v -1.578525 -0.386935 -6.669002
v -1.578529 -0.373156 -6.670334
v -1.578526 -0.359372 -6.671618
v -1.578516 -0.345584 -6.672853
v -1.578499 -0.331792 -6.674040
v -1.578474 -0.317996 -6.675179
v -1.578442 -0.304196 -6.676269
v -1.578403 -0.290392 -6.677311
v -1.578356 -0.276585 -6.678305
v -1.578303 -0.262775 -6.679250
v -1.578242 -0.248961 -6.680146
v -1.578173 -0.235145 -6.680995
v -1.578097 -0.221326 -6.681794
v -1.578011 -0.207504 -6.682546
v -1.577915 -0.193680 -6.683249
v -1.577808 -0.179854 -6.683903
v -1.577688 -0.166026 -6.684509
v -1.577556 -0.152196 -6.685067
v -1.577411 -0.138364 -6.685576
v -1.577250 -0.124531 -6.686036
v -1.577074 -0.110697 -6.686448
v -1.576882 -0.096862 -6.686812
v -1.576672 -0.083025 -6.687127
v -1.576445 -0.069188 -6.687394
v -1.576197 -0.055351 -6.687612
v -1.575930 -0.041513 -6.687782
v -1.575642 -0.027675 -6.687903
v -1.575333 -0.013838 -6.687976
v -1.575000 0.000000 -6.688000
v 0.875000 0.000000 -6.688000
v 0.875000 -0.327822 -6.674373
v 0.875000 -0.333097 -6.673930
v 0.874637 -0.333072 -6.673932
v -1.515618 -0.126861 -6.685962
v -1.515618 -0.063439 -6.687491
v -1.452707 -0.694230 -6.626514
v -1.452707 -0.126861 -6.685962
v -1.452707 -0.063439 -6.687491
v -1.389796 -0.694230 -6.626514
v -1.389796 -0.126861 -6.685962
v -1.389796 -0.063439 -6.687491
v -1.326885 -0.694230 -6.626514
v -1.326885 -0.126861 -6.685962
v -1.326885 -0.063439 -6.687491
v -1.263974 -0.694230 -6.626514
v -1.263974 -0.126861 -6.685962
v -1.263974 -0.063439 -6.687491
v -1.201063 -0.694230 -6.626514
v -1.201063 -0.126861 -6.685962
v -1.201063 -0.063439 -6.687491
v -1.138152 -0.694230 -6.626514
v -1.138152 -0.126861 -6.685962
v -1.138152 -0.063439 -6.687491
v -1.075241 -0.694230 -6.626514
v -1.075241 -0.126861 -6.685962
v -1.075241 -0.063439 -6.687491
v -1.012330 -0.694230 -6.626514
v -1.012330 -0.126861 -6.685962
v -1.012330 -0.063439 -6.687491
v -0.949419 -0.694230 -6.626514
v -0.949419 -0.126861 -6.685962
v -0.949419 -0.063439 -6.687491
v -0.886508 -0.694230 -6.626514
v -0.886508 -0.126861 -6.685962
v -0.886508 -0.063439 -6.687491
v -0.823597 -0.694230 -6.626514
v -0.823597 -0.126861 -6.685962
v -0.823597 -0.063439 -6.687491
v -0.760686 -0.694230 -6.626514
v -0.760686 -0.126861 -6.685962
v -0.760686 -0.063439 -6.687491
v -0.697775 -0.694230 -6.626514
v -0.697775 -0.126861 -6.685962
v -0.697775 -0.063439 -6.687491
v -0.634864 -0.694230 -6.626514
v -0.634864 -0.126861 -6.685962
v -0.634864 -0.063439 -6.687491
v -0.571953 -0.694230 -6.626514
v -0.571953 -0.126861 -6.685962
v -0.571953 -0.063439 -6.687491
v -0.509042 -0.694230 -6.626514
v -0.509042 -0.126861 -6.685962
v -0.509042 -0.063439 -6.687491
v -0.446131 -0.694230 -6.626514
v -0.446131 -0.126861 -6.685962
v -0.446131 -0.063439 -6.687491
v -0.383220 -0.694230 -6.626514
v -0.383220 -0.126861 -6.685962
v -0.383220 -0.063439 -6.687491
v -0.320309 -0.694230 -6.626514
v -0.320309 -0.126861 -6.685962
v -0.320309 -0.063439 -6.687491
v -0.257398 -0.694230 -6.626514
v -0.257398 -0.126861 -6.685962
v -0.257398 -0.063439 -6.687491
v -0.194487 -0.694230 -6.626514
v -0.194487 -0.126861 -6.685962
v -0.194487 -0.063439 -6.687491
v -0.131576 -0.694230 -6.626514
v -0.131576 -0.126861 -6.685962
v -0.131576 -0.063439 -6.687491
v -0.068665 -0.694230 -6.626514
v -0.068665 -0.126861 -6.685962
v -0.068665 -0.063439 -6.687491
v -0.005754 -0.694230 -6.626514
v -0.005754 -0.126861 -6.685962
v -0.005754 -0.063439 -6.687491
v 0.057157 -0.694230 -6.626514
v 0.057157 -0.126861 -6.685962
v 0.057157 -0.063439 -6.687491
v 0.120068 -0.694230 -6.626514
v 0.120068 -0.126861 -6.685962
v 0.120068 -0.063439 -6.687491
v 0.182979 -0.694230 -6.626514
v 0.182979 -0.126861 -6.685962
v 0.182979 -0.063439 -6.687491
v 0.245890 -0.694230 -6.626514
v 0.245890 -0.126861 -6.685962
v 0.245890 -0.063439 -6.687491
v 0.308801 -0.380059 -6.669673
v 0.308801 -0.126861 -6.685962
v 0.308801 -0.063439 -6.687491
v 0.371712 -0.316866 -6.675270
v 0.371712 -0.126861 -6.685962
v 0.371712 -0.063439 -6.687491
v 0.434623 -0.316866 -6.675270
v 0.434623 -0.126861 -6.685962
v 0.434623 -0.063439 -6.687491
v 0.497534 -0.316866 -6.675270
v 0.497534 -0.126861 -6.685962
v 0.497534 -0.063439 -6.687491
v 0.560445 -0.316866 -6.675270
v 0.560445 -0.126861 -6.685962
v 0.560445 -0.063439 -6.687491
v 0.623356 -0.316866 -6.675270
v 0.623356 -0.126861 -6.685962
v 0.623356 -0.063439 -6.687491
v 0.686267 -0.316866 -6.675270
v 0.686267 -0.126861 -6.685962
v 0.686267 -0.063439 -6.687491
v 0.749178 -0.316866 -6.675270
v 0.749178 -0.126861 -6.685962
v 0.749178 -0.063439 -6.687491
v 0.812089 -0.316866 -6.675270
v 0.812089 -0.190250 -6.683416
v 0.305000 -0.746473 -6.616824
v 0.875000 -0.322547 -6.674809
v -1.515618 -0.190250 -6.683416
v -1.452707 -0.190250 -6.683416
v -1.389796 -0.190250 -6.683416
v -1.326885 -0.190250 -6.683416
v -1.263974 -0.190250 -6.683416
v -1.201063 -0.190250 -6.683416
v -1.138152 -0.190250 -6.683416
v -1.075241 -0.190250 -6.683416
v -1.012330 -0.190250 -6.683416
v -0.949419 -0.190250 -6.683416
v -0.886508 -0.190250 -6.683416
v -0.823597 -0.190250 -6.683416
v -0.760686 -0.190250 -6.683416
v -0.697775 -0.190250 -6.683416
v -0.634864 -0.190250 -6.683416
v -0.571953 -0.190250 -6.683416
v -0.509042 -0.190250 -6.683416
v -0.446131 -0.190250 -6.683416
v -0.383220 -0.190250 -6.683416
v -0.320309 -0.190250 -6.683416
v -0.257398 -0.190250 -6.683416
v -0.194487 -0.190250 -6.683416
v -0.131576 -0.190250 -6.683416
v -0.068665 -0.190250 -6.683416
v -0.005754 -0.190250 -6.683416
v 0.057157 -0.190250 -6.683416
v 0.120068 -0.190250 -6.683416
v 0.182979 -0.190250 -6.683416
v 0.245890 -0.190250 -6.683416
v 0.308801 -0.190250 -6.683416
v 0.371712 -0.190250 -6.683416
v 0.434623 -0.190250 -6.683416
v 0.497534 -0.190250 -6.683416
v 0.560445 -0.190250 -6.683416
v 0.623356 -0.190250 -6.683416
v 0.686267 -0.190250 -6.683416
v 0.749178 -0.190250 -6.683416
v 0.812089 -0.253591 -6.679851
v 0.305000 -0.741411 -6.617795
v 0.875000 -0.317271 -6.675238
v -1.515618 -0.253591 -6.679851
v -1.452707 -0.253591 -6.679851
v -1.389796 -0.253591 -6.679851
v -1.326885 -0.253591 -6.679851
v -1.263974 -0.253591 -6.679851
v -1.201063 -0.253591 -6.679851
v -1.138152 -0.253591 -6.679851
v -1.075241 -0.253591 -6.679851
v -1.012330 -0.253591 -6.679851
v -0.949419 -0.253591 -6.679851
v -0.886508 -0.253591 -6.679851
v -0.823597 -0.253591 -6.679851
v -0.760686 -0.253591 -6.679851
v -0.697775 -0.253591 -6.679851
v -0.634864 -0.253591 -6.679851
v -0.571953 -0.253591 -6.679851
v -0.509042 -0.253591 -6.679851
v -0.446131 -0.253591 -6.679851
v -0.383220 -0.253591 -6.679851
v -0.320309 -0.253591 -6.679851
v -0.257398 -0.253591 -6.679851
v -0.194487 -0.253591 -6.679851
v -0.131576 -0.253591 -6.679851
v -0.068665 -0.253591 -6.679851
v -0.005754 -0.253591 -6.679851
v 0.057157 -0.253591 -6.679851
v 0.120068 -0.253591 -6.679851
v 0.182979 -0.253591 -6.679851
v 0.245890 -0.253591 -6.679851
v 0.308801 -0.253591 -6.679851
v 0.371712 -0.253591 -6.679851
v 0.434623 -0.253591 -6.679851
v 0.497534 -0.253591 -6.679851
v 0.560445 -0.253591 -6.679851
v 0.623356 -0.253591 -6.679851
v 0.686267 -0.253591 -6.679851
v 0.749178 -0.253591 -6.679851
v 0.305000 -0.736349 -6.618759
v 0.875000 -0.005294 -6.687996
v 0.875000 -0.311994 -6.675659
v -1.515618 -0.316866 -6.675270
v -1.452707 -0.316866 -6.675270
v -1.389796 -0.316866 -6.675270
v -1.326885 -0.316866 -6.675270
v -1.263974 -0.316866 -6.675270
v -1.201063 -0.316866 -6.675270
v -1.138152 -0.316866 -6.675270
v -1.075241 -0.316866 -6.675270
v -1.012330 -0.316866 -6.675270
v -0.949419 -0.316866 -6.675270
v -0.886508 -0.316866 -6.675270
v -0.823597 -0.316866 -6.675270
v -0.760686 -0.316866 -6.675270
v -0.697775 -0.316866 -6.675270
v -0.634864 -0.316866 -6.675270
v -0.571953 -0.316866 -6.675270
v -0.509042 -0.316866 -6.675270
v -0.446131 -0.316866 -6.675270
v -0.383220 -0.316866 -6.675270
v -0.320309 -0.316866 -6.675270
v -0.257398 -0.316866 -6.675270
v -0.194487 -0.316866 -6.675270
v -0.131576 -0.316866 -6.675270
v -0.068665 -0.316866 -6.675270
v -0.005754 -0.316866 -6.675270
v 0.057157 -0.316866 -6.675270
v 0.120068 -0.316866 -6.675270
v 0.182979 -0.316866 -6.675270
v 0.245890 -0.316866 -6.675270
v 0.308801 -0.316866 -6.675270
v 0.405000 -0.332409 -6.673988
v 0.305000 -0.731285 -6.619716
v 0.875000 -0.306717 -6.676074
v -1.515618 -0.380059 -6.669673
v -1.452707 -0.380059 -6.669673
v -1.389796 -0.380059 -6.669673
v -1.326885 -0.380059 -6.669673
v -1.263974 -0.380059 -6.669673
v -1.201063 -0.380059 -6.669673
v -1.138152 -0.380059 -6.669673
v -1.075241 -0.380059 -6.669673
v -1.012330 -0.380059 -6.669673
v -0.949419 -0.380059 -6.669673
v -0.886508 -0.380059 -6.669673
v -0.823597 -0.380059 -6.669673
v -0.760686 -0.380059 -6.669673
v -0.697775 -0.380059 -6.669673
v -0.634864 -0.380059 -6.669673
v -0.571953 -0.380059 -6.669673
v -0.509042 -0.380059 -6.669673
v -0.446131 -0.380059 -6.669673
v -0.383220 -0.380059 -6.669673
v -0.320309 -0.380059 -6.669673
v -0.257398 -0.380059 -6.669673
v -0.194487 -0.380059 -6.669673
v -0.131576 -0.380059 -6.669673
v -0.068665 -0.380059 -6.669673
v -0.005754 -0.380059 -6.669673
v 0.057157 -0.380059 -6.669673
v 0.120068 -0.380059 -6.669673
v 0.182979 -0.380059 -6.669673
v 0.245890 -0.380059 -6.669673
v 0.305000 -0.726220 -6.620667
v 0.875000 -0.010587 -6.687986
v 0.875000 -0.301439 -6.676481
v -1.515618 -0.443154 -6.663062
v -1.452707 -0.443154 -6.663062
v -1.389796 -0.443154 -6.663062
v -1.326885 -0.443154 -6.663062
v -1.263974 -0.443154 -6.663062
v -1.201063 -0.443154 -6.663062
v -1.138152 -0.443154 -6.663062
v -1.075241 -0.443154 -6.663062
v -1.012330 -0.443154 -6.663062
v -0.949419 -0.443154 -6.663062
v -0.886508 -0.443154 -6.663062
v -0.823597 -0.443154 -6.663062
v -0.760686 -0.443154 -6.663062
v -0.697775 -0.443154 -6.663062
v -0.634864 -0.443154 -6.663062
v -0.571953 -0.443154 -6.663062
v -0.509042 -0.443154 -6.663062
v -0.446131 -0.443154 -6.663062
v -0.383220 -0.443154 -6.663062
v -0.320309 -0.443154 -6.663062
v -0.257398 -0.443154 -6.663062
v -0.194487 -0.443154 -6.663062
v -0.131576 -0.443154 -6.663062
v -0.068665 -0.443154 -6.663062
v -0.005754 -0.443154 -6.663062
v 0.057157 -0.443154 -6.663062
v 0.120068 -0.443154 -6.663062
v 0.182979 -0.443154 -6.663062
v 0.245890 -0.443154 -6.663062
v 0.305000 -0.721154 -6.621611
v 0.875000 -0.015881 -6.687968
v 0.875000 -0.296160 -6.676882
v -1.515618 -0.506135 -6.655439
v -1.452707 -0.506135 -6.655439
v -1.389796 -0.506135 -6.655439
v -1.326885 -0.506135 -6.655439
v -1.263974 -0.506135 -6.655439
v -1.201063 -0.506135 -6.655439
v -1.138152 -0.506135 -6.655439
v -1.075241 -0.506135 -6.655439
v -1.012330 -0.506135 -6.655439
v -0.949419 -0.506135 -6.655439
v -0.886508 -0.506135 -6.655439
v -0.823597 -0.506135 -6.655439
v -0.760686 -0.506135 -6.655439
v -0.697775 -0.506135 -6.655439
v -0.634864 -0.506135 -6.655439
v -0.571953 -0.506135 -6.655439
v -0.509042 -0.506135 -6.655439
v -0.446131 -0.506135 -6.655439
v -0.383220 -0.506135 -6.655439
v -0.320309 -0.506135 -6.655439
v -0.257398 -0.506135 -6.655439
v -0.194487 -0.506135 -6.655439
v -0.131576 -0.506135 -6.655439
v -0.068665 -0.506135 -6.655439
v -0.005754 -0.506135 -6.655439
v 0.057157 -0.506135 -6.655439
v 0.120068 -0.506135 -6.655439
v 0.182979 -0.506135 -6.655439
v 0.245890 -0.506135 -6.655439
v 0.305000 -0.716086 -6.622549
v 0.875000 -0.021174 -6.687943
v 0.875000 -0.290881 -6.677275
v -1.515618 -0.568986 -6.646805
v -1.452707 -0.568986 -6.646805
v -1.389796 -0.568986 -6.646805
v -1.326885 -0.568986 -6.646805
v -1.263974 -0.568986 -6.646805
v -1.201063 -0.568986 -6.646805
v -1.138152 -0.568986 -6.646805
v -1.075241 -0.568986 -6.646805
v -1.012330 -0.568986 -6.646805
v -0.949419 -0.568986 -6.646805
v -0.886508 -0.568986 -6.646805
v -0.823597 -0.568986 -6.646805
v -0.760686 -0.568986 -6.646805
v -0.697775 -0.568986 -6.646805
v -0.634864 -0.568986 -6.646805
v -0.571953 -0.568986 -6.646805
v -0.509042 -0.568986 -6.646805
v -0.446131 -0.568986 -6.646805
v -0.383220 -0.568986 -6.646805
v -0.320309 -0.568986 -6.646805
v -0.257398 -0.568986 -6.646805
v -0.194487 -0.568986 -6.646805
v -0.131576 -0.568986 -6.646805
v -0.068665 -0.568986 -6.646805
v -0.005754 -0.568986 -6.646805
v 0.057157 -0.568986 -6.646805
v 0.120068 -0.568986 -6.646805
v 0.182979 -0.568986 -6.646805
v 0.245890 -0.568986 -6.646805
v 0.305000 -0.711017 -6.623480
v 0.875000 -0.026468 -6.687911
v 0.875000 -0.285602 -6.677661
v -1.515618 -0.631689 -6.637163
v -1.452707 -0.631689 -6.637163
v -1.389796 -0.631689 -6.637163
v -1.326885 -0.631689 -6.637163
v -1.263974 -0.631689 -6.637163
v -1.201063 -0.631689 -6.637163
v -1.138152 -0.631689 -6.637163
v -1.075241 -0.631689 -6.637163
v -1.012330 -0.631689 -6.637163
v -0.949419 -0.631689 -6.637163
v -0.886508 -0.631689 -6.637163
v -0.823597 -0.631689 -6.637163
v -0.760686 -0.631689 -6.637163
v -0.697775 -0.631689 -6.637163
v -0.634864 -0.631689 -6.637163
v -0.571953 -0.631689 -6.637163
v -0.509042 -0.631689 -6.637163
v -0.446131 -0.631689 -6.637163
v -0.383220 -0.631689 -6.637163
v -0.320309 -0.631689 -6.637163
v -0.257398 -0.631689 -6.637163
v -0.194487 -0.631689 -6.637163
v -0.131576 -0.631689 -6.637163
v -0.068665 -0.631689 -6.637163
v -0.005754 -0.631689 -6.637163
v 0.057157 -0.631689 -6.637163
v 0.120068 -0.631689 -6.637163
v 0.182979 -0.631689 -6.637163
v 0.245890 -0.631689 -6.637163
v 0.305000 -0.705947 -6.624404
v 0.875000 -0.031761 -6.687872
v 0.875000 -0.280322 -6.678041
v -1.515618 -0.694230 -6.626514
v 0.305000 -0.700876 -6.625322
v 0.875000 -0.037054 -6.687826
v 0.875000 -0.275042 -6.678413
v 0.305000 -0.695804 -6.626233
v 0.875000 -0.042348 -6.687773
v 0.875000 -0.269761 -6.678778
v 0.402235 -0.332448 -6.673985
v 0.875000 -0.047641 -6.687713
v 0.875000 -0.264479 -6.679136
v 0.399468 -0.332565 -6.673975
v 0.875000 -0.052934 -6.687645
v 0.875000 -0.259197 -6.679487
v 0.396698 -0.332760 -6.673959
v 0.875000 -0.058227 -6.687571
v 0.875000 -0.253915 -6.679830
v 0.393929 -0.333035 -6.673936
v 0.875000 -0.063520 -6.687489
v 0.875000 -0.248632 -6.680167
v 0.391161 -0.333390 -6.673906
v 0.875000 -0.068813 -6.687401
v 0.875000 -0.243349 -6.680497
v 0.388398 -0.333826 -6.673869
v 0.875000 -0.074105 -6.687305
v 0.875000 -0.238065 -6.680819
v 0.385639 -0.334345 -6.673825
v 0.875000 -0.079398 -6.687202
v 0.875000 -0.232781 -6.681135
v 0.382888 -0.334947 -6.673773
v 0.875000 -0.084690 -6.687092
v 0.875000 -0.227496 -6.681443
v 0.380145 -0.335632 -6.673715
v 0.875000 -0.089982 -6.686975
v 0.875000 -0.222212 -6.681745
v 0.377412 -0.336402 -6.673649
v 0.875000 -0.095275 -6.686851
v 0.875000 -0.216926 -6.682039
v 0.374692 -0.337258 -6.673576
v 0.875000 -0.100566 -6.686720
v 0.875000 -0.211640 -6.682326
v 0.371986 -0.338200 -6.673495
v 0.875000 -0.105858 -6.686581
v 0.875000 -0.206354 -6.682606
v 0.369298 -0.339225 -6.673407
v 0.875000 -0.111150 -6.686436
v 0.875000 -0.201068 -6.682879
v 0.366632 -0.340332 -6.673311
v 0.875000 -0.116441 -6.686283
v 0.875000 -0.195781 -6.683145
v 0.363991 -0.341518 -6.673208
v 0.875000 -0.121732 -6.686124
v 0.875000 -0.190494 -6.683404
v 0.361381 -0.342782 -6.673098
v 0.875000 -0.127023 -6.685957
v 0.875000 -0.185206 -6.683656
v 0.358805 -0.344119 -6.672982
v 0.875000 -0.132314 -6.685783
v 0.875000 -0.179918 -6.683900
v 0.356267 -0.345529 -6.672858
v 0.875000 -0.137604 -6.685602
v 0.875000 -0.174630 -6.684138
v 0.353770 -0.347008 -6.672728
v 0.875000 -0.142895 -6.685414
v 0.875000 -0.169342 -6.684368
v 0.351320 -0.348555 -6.672591
v 0.875000 -0.148184 -6.685219
v 0.875000 -0.164053 -6.684592
v 0.348920 -0.350167 -6.672448
v 0.875000 -0.153474 -6.685017
v 0.875000 -0.158764 -6.684808
v 0.346574 -0.351841 -6.672299
v 0.874274 -0.333048 -6.673934
v 0.873911 -0.333024 -6.673936
v 0.344286 -0.353576 -6.672143
v 0.873547 -0.333001 -6.673938
v 0.342055 -0.355371 -6.671982
v 0.873184 -0.332978 -6.673940
v 0.339883 -0.357227 -6.671814
v 0.872821 -0.332955 -6.673942
v 0.337768 -0.359143 -6.671640
v 0.872458 -0.332933 -6.673944
v 0.335711 -0.361121 -6.671459
v 0.872094 -0.332912 -6.673946
v 0.333712 -0.363159 -6.671271
v 0.871731 -0.332891 -6.673948
v 0.331769 -0.365259 -6.671076
v 0.871367 -0.332870 -6.673949
v 0.329884 -0.367420 -6.670875
v 0.871004 -0.332850 -6.673951
v 0.328056 -0.369643 -6.670667
v 0.870641 -0.332830 -6.673953
v 0.326285 -0.371928 -6.670451
v 0.870277 -0.332811 -6.673954
v 0.324571 -0.374275 -6.670228
v 0.869914 -0.332792 -6.673956
v 0.322914 -0.376683 -6.669998
v 0.869550 -0.332773 -6.673958
v 0.321316 -0.379150 -6.669761
v 0.869187 -0.332755 -6.673959
v 0.319780 -0.381672 -6.669517
v 0.868823 -0.332738 -6.673961
v 0.318307 -0.384245 -6.669266
v 0.868460 -0.332721 -6.673962
v 0.316902 -0.386867 -6.669009
v 0.868096 -0.332704 -6.673963
v 0.315565 -0.389533 -6.668745
v 0.867733 -0.332688 -6.673965
v 0.314300 -0.392240 -6.668476
v 0.867369 -0.332672 -6.673966
v 0.313108 -0.394984 -6.668202
v 0.867005 -0.332657 -6.673967
v 0.311994 -0.397762 -6.667921
v 0.866642 -0.332642 -6.673969
v 0.310958 -0.400571 -6.667636
v 0.866278 -0.332628 -6.673970
v 0.310003 -0.403406 -6.667346
v 0.865915 -0.332614 -6.673971
v 0.309132 -0.406265 -6.667052
v 0.865551 -0.332601 -6.673972
v 0.308345 -0.409145 -6.666753
v 0.865187 -0.332588 -6.673973
v 0.307641 -0.412045 -6.666450
v 0.864823 -0.332575 -6.673974
v 0.864460 -0.332563 -6.673975
v 0.307021 -0.414962 -6.666143
v 0.864096 -0.332551 -6.673976
v 0.306484 -0.417896 -6.665832
v 0.863732 -0.332540 -6.673977
v 0.306030 -0.420844 -6.665517
v 0.863369 -0.332530 -6.673978
v 0.305659 -0.423804 -6.665199
v 0.863005 -0.332519 -6.673979
v 0.305370 -0.426775 -6.664877
v 0.862641 -0.332510 -6.673980
v 0.305164 -0.429754 -6.664552
v 0.862277 -0.332500 -6.673981
v 0.305041 -0.432740 -6.664224
v 0.861913 -0.332491 -6.673981
v 0.305000 -0.435732 -6.663893
v 0.861550 -0.332483 -6.673982
v 0.305000 -0.440854 -6.663321
v 0.861186 -0.332475 -6.673983
v 0.305000 -0.445975 -6.662743
v 0.860822 -0.332468 -6.673983
v 0.305000 -0.451095 -6.662158
v 0.860458 -0.332461 -6.673984
v 0.305000 -0.456214 -6.661566
v 0.860094 -0.332454 -6.673985
v 0.305000 -0.461333 -6.660967
v 0.859730 -0.332448 -6.673985
v 0.305000 -0.466451 -6.660362
v 0.859367 -0.332442 -6.673986
v 0.305000 -0.471568 -6.659750
v 0.859003 -0.332437 -6.673986
v 0.305000 -0.476685 -6.659131
v 0.858639 -0.332432 -6.673986
v 0.305000 -0.481800 -6.658506
v 0.858275 -0.332428 -6.673987
v 0.305000 -0.486915 -6.657874
v 0.857911 -0.332424 -6.673987
v 0.305000 -0.492029 -6.657236
v 0.857547 -0.332420 -6.673987
v 0.305000 -0.497142 -6.656590
v 0.857183 -0.332418 -6.673988
v 0.305000 -0.502254 -6.655938
v 0.856819 -0.332415 -6.673988
v 0.305000 -0.507365 -6.655280
v 0.856456 -0.332413 -6.673988
v 0.856092 -0.332411 -6.673988
v 0.305000 -0.512476 -6.654614
v 0.305000 -0.517585 -6.653942
v 0.305000 -0.522694 -6.653264
v 0.855728 -0.332410 -6.673988
v 0.305000 -0.527802 -6.652579
v 0.855364 -0.332410 -6.673988
v 0.305000 -0.532909 -6.651887
v 0.305000 -0.538015 -6.651188
v 0.305000 -0.543120 -6.650483
v 0.305000 -0.548224 -6.649771
v 0.305000 -0.553327 -6.649052
v 0.305000 -0.558429 -6.648327
v 0.305000 -0.563531 -6.647595
v 0.305000 -0.568631 -6.646856
v 0.305000 -0.573731 -6.646111
v 0.305000 -0.578829 -6.645359
v 0.305000 -0.583926 -6.644601
v 0.305000 -0.589023 -6.643836
v 0.305000 -0.594118 -6.643064
v 0.305000 -0.599213 -6.642285
v 0.305000 -0.604306 -6.641500
v 0.305000 -0.609399 -6.640708
v 0.305000 -0.614490 -6.639910
v 0.305000 -0.619580 -6.639105
v 0.305000 -0.624670 -6.638293
v 0.305000 -0.629758 -6.637475
v 0.305000 -0.634845 -6.636650
v 0.305000 -0.639931 -6.635818
v 0.305000 -0.645016 -6.634980
v 0.305000 -0.650100 -6.634135
v 0.305000 -0.655182 -6.633284
v 0.305000 -0.660264 -6.632426
v 0.305000 -0.665345 -6.631561
v 0.305000 -0.670424 -6.630690
v 0.305000 -0.675502 -6.629812
v 0.305000 -0.680579 -6.628927
v 0.305000 -0.685655 -6.628036
v 0.305000 -0.690730 -6.627138
v -1.484163 -0.411620 -6.666494
v -1.484163 -0.380059 -6.669673
v -1.484163 -0.443154 -6.663062
v -1.484163 -0.474660 -6.659377
v -1.421252 -0.411620 -6.666494
v -1.421252 -0.380059 -6.669673
v -1.421252 -0.443154 -6.663062
v -1.421252 -0.474660 -6.659377
v -1.358341 -0.411620 -6.666494
v -1.358341 -0.380059 -6.669673
v -1.358341 -0.443154 -6.663062
v -1.358341 -0.474660 -6.659377
v -1.295430 -0.411620 -6.666494
v -1.295430 -0.380059 -6.669673
v -1.295430 -0.443154 -6.663062
v -1.295430 -0.474660 -6.659377
v -1.232519 -0.411620 -6.666494
v -1.232519 -0.380059 -6.669673
v -1.232519 -0.443154 -6.663062
v -1.232519 -0.474660 -6.659377
v -1.169608 -0.411620 -6.666494
v -1.169608 -0.380059 -6.669673
v -1.169608 -0.443154 -6.663062
v -1.169608 -0.474660 -6.659377
v -1.106697 -0.411620 -6.666494
v -1.106697 -0.380059 -6.669673
v -1.106697 -0.443154 -6.663062
v -1.106697 -0.474660 -6.659377
v -1.043786 -0.411620 -6.666494
v -1.043786 -0.380059 -6.669673
v -1.043786 -0.443154 -6.663062
v -1.043786 -0.474660 -6.659377
v -0.980875 -0.411620 -6.666494
v -0.980875 -0.380059 -6.669673
v -0.980875 -0.443154 -6.663062
v -0.980875 -0.474660 -6.659377
v -0.917964 -0.411620 -6.666494
v -0.917964 -0.380059 -6.669673
v -0.917964 -0.443154 -6.663062
v -0.917964 -0.474660 -6.659377
v -0.855053 -0.411620 -6.666494
v -0.855053 -0.380059 -6.669673
v -0.855053 -0.443154 -6.663062
v -0.855053 -0.474660 -6.659377
v -0.792142 -0.411620 -6.666494
v -0.792142 -0.380059 -6.669673
v -0.792142 -0.443154 -6.663062
v -0.792142 -0.474660 -6.659377
v -0.729231 -0.411620 -6.666494
v -0.729231 -0.380059 -6.669673
v -0.729231 -0.443154 -6.663062
v -0.729231 -0.474660 -6.659377
v -0.666320 -0.411620 -6.666494
v -0.666320 -0.380059 -6.669673
v -0.666320 -0.443154 -6.663062
v -0.666320 -0.474660 -6.659377
v -0.603409 -0.411620 -6.666494
v -0.603409 -0.380059 -6.669673
v -0.603409 -0.443154 -6.663062
v -0.603409 -0.474660 -6.659377
v -0.540498 -0.411620 -6.666494
v -0.540498 -0.380059 -6.669673
v -0.540498 -0.443154 -6.663062
v -0.540498 -0.474660 -6.659377
v -0.477587 -0.411620 -6.666494
v -0.477587 -0.380059 -6.669673
v -0.477587 -0.443154 -6.663062
v -0.477587 -0.474660 -6.659377
v -0.414676 -0.411620 -6.666494
v -0.414676 -0.380059 -6.669673
v -0.414676 -0.443154 -6.663062
v -0.414676 -0.474660 -6.659377
v -0.351765 -0.411620 -6.666494
v -0.351765 -0.380059 -6.669673
v -0.351765 -0.443154 -6.663062
v -0.351765 -0.474660 -6.659377
v -0.288854 -0.411620 -6.666494
v -0.288854 -0.380059 -6.669673
v -0.288854 -0.443154 -6.663062
v -0.288854 -0.474660 -6.659377
v -0.225943 -0.411620 -6.666494
v -0.225943 -0.380059 -6.669673
v -0.225943 -0.443154 -6.663062
v -0.225943 -0.474660 -6.659377
v -0.163032 -0.411620 -6.666494
v -0.163032 -0.380059 -6.669673
v -0.163032 -0.443154 -6.663062
v -0.163032 -0.474660 -6.659377
v -0.100121 -0.411620 -6.666494
v -0.100121 -0.380059 -6.669673
v -0.100121 -0.443154 -6.663062
v -0.100121 -0.474660 -6.659377
v -0.037210 -0.411620 -6.666494
v -0.037210 -0.380059 -6.669673
v -0.037210 -0.443154 -6.663062
v -0.037210 -0.474660 -6.659377
v 0.025701 -0.411620 -6.666494
v 0.025701 -0.380059 -6.669673
v 0.025701 -0.443154 -6.663062
v 0.025701 -0.474660 -6.659377
v 0.088612 -0.411620 -6.666494
v 0.088612 -0.380059 -6.669673
v 0.088612 -0.443154 -6.663062
v 0.088612 -0.474660 -6.659377
v 0.151523 -0.411620 -6.666494
v 0.151523 -0.380059 -6.669673
v 0.151523 -0.443154 -6.663062
v 0.151523 -0.474660 -6.659377
v 0.214434 -0.411620 -6.666494
v 0.214434 -0.380059 -6.669673
v 0.214434 -0.443154 -6.663062
v 0.214434 -0.474660 -6.659377
f 1 2 3
f 4 5 6
f 6 7 8
f 8 9 10
f 10 11 12
f 12 13 14
f 14 15 16
f 16 17 18
f 18 19 20
f 20 21 22
f 22 23 24
f 24 25 26
f 26 27 28
f 28 29 30
f 30 31 32
f 32 33 34
f 34 35 36
f 36 37 38
f 38 39 40
f 40 41 42
f 42 43 44
f 44 45 46
f 46 47 48
f 48 49 50
f 50 51 52
f 52 53 54
f 54 55 56
f 56 57 58
f 58 59 60
f 60 61 62
f 63 64 65
f 67 661 660
f 661 68 660
f 67 660 66
f 70 665 664
f 665 71 664
f 70 664 69
f 73 669 668
f 669 74 668
f 73 668 72
f 76 673 672
f 673 77 672
f 76 672 75
f 79 677 676
f 677 80 676
f 79 676 78
f 82 681 680
f 681 83 680
f 82 680 81
f 85 685 684
f 685 86 684
f 85 684 84
f 88 689 688
f 689 89 688
f 88 688 87
f 91 693 692
f 693 92 692
f 91 692 90
f 94 697 696
f 697 95 696
f 94 696 93
f 97 701 700
f 701 98 700
f 97 700 96
f 100 705 704
f 705 101 704
f 100 704 99
f 103 709 708
f 709 104 708
f 103 708 102
f 106 713 712
f 713 107 712
f 106 712 105
f 109 717 716
f 717 110 716
f 109 716 108
f 112 721 720
f 721 113 720
f 112 720 111
f 115 725 724
f 725 116 724
f 115 724 114
f 118 729 728
f 729 119 728
f 118 728 117
f 121 733 732
f 733 122 732
f 121 732 120
f 124 737 736
f 737 125 736
f 124 736 123
f 127 741 740
f 741 128 740
f 127 740 126
f 130 745 744
f 745 131 744
f 130 744 129
f 133 749 748
f 749 134 748
f 133 748 132
f 136 753 752
f 753 137 752
f 136 752 135
f 139 757 756
f 757 140 756
f 139 756 138
f 142 761 760
f 761 143 760
f 142 760 141
f 145 765 764
f 765 146 764
f 145 764 144
f 148 769 768
f 769 149 768
f 148 768 147
f 150 151 152
f 153 154 155
f 156 157 158
f 159 160 161
f 162 163 164
f 165 166 167
f 168 169 170
f 171 172 173
f 174 175 176
f 177 1 3
f 178 4 6
f 6 8 10
f 10 12 14
f 14 16 18
f 18 20 22
f 22 24 26
f 26 28 30
f 30 32 34
f 34 36 38
f 38 40 42
f 42 44 46
f 46 48 50
f 50 52 54
f 54 56 58
f 58 60 62
f 179 63 65
f 66 660 662
f 660 68 662
f 66 662 180
f 69 664 666
f 664 71 666
f 69 666 181
f 72 668 670
f 668 74 670
f 72 670 182
f 75 672 674
f 672 77 674
f 75 674 183
f 78 676 678
f 676 80 678
f 78 678 184
f 81 680 682
f 680 83 682
f 81 682 185
f 84 684 686
f 684 86 686
f 84 686 186
f 87 688 690
f 688 89 690
f 87 690 187
f 90 692 694
f 692 92 694
f 90 694 188
f 93 696 698
f 696 95 698
f 93 698 189
f 96 700 702
f 700 98 702
f 96 702 190
f 99 704 706
f 704 101 706
f 99 706 191
f 102 708 710
f 708 104 710
f 102 710 192
f 105 712 714
f 712 107 714
f 105 714 193
f 108 716 718
f 716 110 718
f 108 718 194
f 111 720 722
f 720 113 722
f 111 722 195
f 114 724 726
f 724 116 726
f 114 726 196
f 117 728 730
f 728 119 730
f 117 730 197
f 120 732 734
f 732 122 734
f 120 734 198
f 123 736 738
f 736 125 738
f 123 738 199
f 126 740 742
f 740 128 742
f 126 742 200
f 129 744 746
f 744 131 746
f 129 746 201
f 132 748 750
f 748 134 750
f 132 750 202
f 135 752 754
f 752 137 754
f 135 754 203
f 138 756 758
f 756 140 758
f 138 758 204
f 141 760 762
f 760 143 762
f 141 762 205
f 144 764 766
f 764 146 766
f 144 766 206
f 147 768 770
f 768 149 770
f 147 770 207
f 208 150 152
f 209 153 155
f 210 156 158
f 211 159 161
f 212 162 164
f 213 165 167
f 214 168 170
f 215 171 173
f 216 174 176
f 217 177 3
f 218 178 6
f 6 10 14
f 14 18 22
f 22 26 30
f 30 34 38
f 38 42 46
f 46 50 54
f 54 58 62
f 219 179 65
f 180 662 663
f 662 68 663
f 180 663 220
f 181 666 667
f 666 71 667
f 181 667 221
f 182 670 671
f 670 74 671
f 182 671 222
f 183 674 675
f 674 77 675
f 183 675 223
f 184 678 679
f 678 80 679
f 184 679 224
f 185 682 683
f 682 83 683
f 185 683 225
f 186 686 687
f 686 86 687
f 186 687 226
f 187 690 691
f 690 89 691
f 187 691 227
f 188 694 695
f 694 92 695
f 188 695 228
f 189 698 699
f 698 95 699
f 189 699 229
f 190 702 703
f 702 98 703
f 190 703 230
f 191 706 707
f 706 101 707
f 191 707 231
f 192 710 711
f 710 104 711
f 192 711 232
f 193 714 715
f 714 107 715
f 193 715 233
f 194 718 719
f 718 110 719
f 194 719 234
f 195 722 723
f 722 113 723
f 195 723 235
f 196 726 727
f 726 116 727
f 196 727 236
f 197 730 731
f 730 119 731
f 197 731 237
f 198 734 735
f 734 122 735
f 198 735 238
f 199 738 739
f 738 125 739
f 199 739 239
f 200 742 743
f 742 128 743
f 200 743 240
f 201 746 747
f 746 131 747
f 201 747 241
f 202 750 751
f 750 134 751
f 202 751 242
f 203 754 755
f 754 137 755
f 203 755 243
f 204 758 759
f 758 140 759
f 204 759 244
f 205 762 763
f 762 143 763
f 205 763 245
f 206 766 767
f 766 146 767
f 206 767 246
f 207 770 771
f 770 149 771
f 207 771 247
f 248 208 152
f 249 209 155
f 250 210 158
f 251 211 161
f 252 212 164
f 253 213 167
f 254 214 170
f 255 215 173
f 256 216 176
f 176 217 3
f 257 218 6
f 6 14 22
f 22 30 38
f 38 46 54
f 54 62 258
f 259 219 65
f 220 663 260
f 663 68 260
f 221 667 261
f 667 71 261
f 222 671 262
f 671 74 262
f 223 675 263
f 675 77 263
f 224 679 264
f 679 80 264
f 225 683 265
f 683 83 265
f 226 687 266
f 687 86 266
f 227 691 267
f 691 89 267
f 228 695 268
f 695 92 268
f 229 699 269
f 699 95 269
f 230 703 270
f 703 98 270
f 231 707 271
f 707 101 271
f 232 711 272
f 711 104 272
f 233 715 273
f 715 107 273
f 234 719 274
f 719 110 274
f 235 723 275
f 723 113 275
f 236 727 276
f 727 116 276
f 237 731 277
f 731 119 277
f 238 735 278
f 735 122 278
f 239 739 279
f 739 125 279
f 240 743 280
f 743 128 280
f 241 747 281
f 747 131 281
f 242 751 282
f 751 134 282
f 243 755 283
f 755 137 283
f 244 759 284
f 759 140 284
f 245 763 285
f 763 143 285
f 246 767 286
f 767 146 286
f 247 771 287
f 771 149 287
f 288 248 152
f 289 249 155
f 155 250 158
f 158 251 161
f 161 252 164
f 164 253 167
f 167 254 170
f 170 255 173
f 173 256 176
f 176 3 290
f 291 257 6
f 6 22 38
f 38 54 258
f 292 259 65
f 293 260 68
f 294 261 71
f 295 262 74
f 296 263 77
f 297 264 80
f 298 265 83
f 299 266 86
f 300 267 89
f 301 268 92
f 302 269 95
f 303 270 98
f 304 271 101
f 305 272 104
f 306 273 107
f 307 274 110
f 308 275 113
f 309 276 116
f 310 277 119
f 311 278 122
f 312 279 125
f 313 280 128
f 314 281 131
f 315 282 134
f 316 283 137
f 317 284 140
f 318 285 143
f 319 286 146
f 320 287 149
f 321 288 152
f 152 289 155
f 173 176 290
f 322 291 6
f 38 258 323
f 324 292 65
f 325 293 68
f 326 294 71
f 327 295 74
f 328 296 77
f 329 297 80
f 330 298 83
f 331 299 86
f 332 300 89
f 333 301 92
f 334 302 95
f 335 303 98
f 336 304 101
f 337 305 104
f 338 306 107
f 339 307 110
f 340 308 113
f 341 309 116
f 342 310 119
f 343 311 122
f 344 312 125
f 345 313 128
f 346 314 131
f 347 315 134
f 348 316 137
f 349 317 140
f 350 318 143
f 351 319 146
f 352 320 149
f 353 321 152
f 170 173 290
f 354 322 6
f 38 323 355
f 356 324 65
f 357 325 68
f 358 326 71
f 359 327 74
f 360 328 77
f 361 329 80
f 362 330 83
f 363 331 86
f 364 332 89
f 365 333 92
f 366 334 95
f 367 335 98
f 368 336 101
f 369 337 104
f 370 338 107
f 371 339 110
f 372 340 113
f 373 341 116
f 374 342 119
f 375 343 122
f 376 344 125
f 377 345 128
f 378 346 131
f 379 347 134
f 380 348 137
f 381 349 140
f 382 350 143
f 383 351 146
f 384 352 149
f 385 353 152
f 167 170 290
f 386 354 6
f 38 355 387
f 388 356 65
f 389 357 68
f 390 358 71
f 391 359 74
f 392 360 77
f 393 361 80
f 394 362 83
f 395 363 86
f 396 364 89
f 397 365 92
f 398 366 95
f 399 367 98
f 400 368 101
f 401 369 104
f 402 370 107
f 403 371 110
f 404 372 113
f 405 373 116
f 406 374 119
f 407 375 122
f 408 376 125
f 409 377 128
f 410 378 131
f 411 379 134
f 412 380 137
f 413 381 140
f 414 382 143
f 415 383 146
f 416 384 149
f 417 385 152
f 164 167 290
f 418 386 6
f 38 387 419
f 420 388 65
f 421 389 68
f 422 390 71
f 423 391 74
f 424 392 77
f 425 393 80
f 426 394 83
f 427 395 86
f 428 396 89
f 429 397 92
f 430 398 95
f 431 399 98
f 432 400 101
f 433 401 104
f 434 402 107
f 435 403 110
f 436 404 113
f 437 405 116
f 438 406 119
f 439 407 122
f 440 408 125
f 441 409 128
f 442 410 131
f 443 411 134
f 444 412 137
f 445 413 140
f 446 414 143
f 447 415 146
f 448 416 149
f 449 417 152
f 161 164 290
f 450 418 6
f 38 419 451
f 452 420 65
f 453 421 68
f 68 422 71
f 71 423 74
f 74 424 77
f 77 425 80
f 80 426 83
f 83 427 86
f 86 428 89
f 89 429 92
f 92 430 95
f 95 431 98
f 98 432 101
f 101 433 104
f 104 434 107
f 107 435 110
f 110 436 113
f 113 437 116
f 116 438 119
f 119 439 122
f 122 440 125
f 125 441 128
f 128 442 131
f 131 443 134
f 134 444 137
f 137 445 140
f 140 446 143
f 143 447 146
f 146 448 149
f 149 449 152
f 158 161 290
f 454 450 6
f 38 451 455
f 456 452 65
f 155 158 290
f 457 454 6
f 38 455 458
f 459 456 65
f 155 290 460
f 38 458 461
f 462 459 65
f 155 460 463
f 38 461 464
f 465 462 65
f 155 463 466
f 38 464 467
f 468 465 65
f 155 466 469
f 38 467 470
f 471 468 65
f 155 469 472
f 38 470 473
f 474 471 65
f 155 472 475
f 38 473 476
f 477 474 65
f 155 475 478
f 38 476 479
f 480 477 65
f 155 478 481
f 38 479 482
f 483 480 65
f 155 481 484
f 38 482 485
f 486 483 65
f 155 484 487
f 38 485 488
f 489 486 65
f 155 487 490
f 38 488 491
f 492 489 65
f 155 490 493
f 38 491 494
f 495 492 65
f 155 493 496
f 38 494 497
f 498 495 65
f 155 496 499
f 38 497 500
f 501 498 65
f 155 499 502
f 38 500 503
f 504 501 65
f 155 502 505
f 38 503 506
f 507 504 65
f 155 505 508
f 38 506 509
f 510 507 65
f 155 508 511
f 38 509 512
f 513 510 65
f 155 511 514
f 38 512 515
f 516 513 65
f 155 514 517
f 38 515 518
f 519 516 65
f 155 517 520
f 38 518 521
f 522 519 65
f 155 520 523
f 38 521 522
f 522 65 524
f 152 155 523
f 522 524 525
f 152 523 526
f 522 525 527
f 152 526 528
f 522 527 529
f 152 528 530
f 522 529 531
f 152 530 532
f 522 531 533
f 152 532 534
f 522 533 535
f 152 534 536
f 522 535 537
f 152 536 538
f 522 537 539
f 152 538 540
f 522 539 541
f 152 540 542
f 522 541 543
f 152 542 544
f 522 543 545
f 152 544 546
f 522 545 547
f 152 546 548
f 522 547 549
f 152 548 550
f 522 549 551
f 152 550 552
f 522 551 553
f 152 552 554
f 522 553 555
f 152 554 556
f 522 555 557
f 152 556 558
f 522 557 559
f 152 558 560
f 522 559 561
f 152 560 562
f 522 561 563
f 152 562 564
f 522 563 565
f 152 564 566
f 522 565 567
f 152 566 568
f 522 567 569
f 152 568 570
f 522 569 571
f 152 570 572
f 522 571 573
f 152 572 574
f 522 573 575
f 149 152 574
f 522 575 576
f 149 574 577
f 522 576 578
f 149 577 579
f 522 578 580
f 149 579 581
f 522 580 582
f 149 581 583
f 522 582 584
f 149 583 585
f 522 584 586
f 149 585 587
f 522 586 588
f 149 587 589
f 522 588 590
f 149 589 591
f 522 590 592
f 149 591 593
f 522 592 594
f 149 593 595
f 522 594 596
f 149 595 597
f 522 596 598
f 149 597 599
f 522 598 600
f 149 599 601
f 522 600 602
f 149 601 603
f 522 602 604
f 149 603 605
f 522 604 606
f 149 605 607
f 522 606 608
f 149 607 609
f 522 608 610
f 149 609 611
f 522 610 612
f 149 611 613
f 522 612 614
f 149 613 615
f 522 614 616
f 149 615 617
f 522 616 618
f 149 617 619
f 618 620 522
f 620 621 522
f 621 38 522
f 149 619 622
f 149 622 623
f 149 623 624
f 38 621 625
f 149 624 626
f 38 625 627
f 149 626 628
f 38 627 453
f 149 628 629
f 6 38 453
f 149 629 630
f 457 6 453
f 149 630 631
f 457 453 68
f 149 631 632
f 457 68 71
f 149 632 633
f 457 71 74
f 149 633 634
f 457 74 77
f 149 634 635
f 457 77 80
f 149 635 636
f 457 80 83
f 149 636 637
f 457 83 86
f 149 637 638
f 457 86 89
f 149 638 639
f 457 89 92
f 149 639 640
f 457 92 95
f 149 640 641
f 457 95 98
f 149 641 642
f 457 98 101
f 149 642 643
f 457 101 104
f 149 643 644
f 457 104 107
f 149 644 645
f 457 107 110
f 149 645 646
f 457 110 113
f 149 646 647
f 457 113 116
f 149 647 648
f 457 116 119
f 149 648 649
f 457 119 122
f 149 649 650
f 457 122 125
f 149 650 651
f 457 125 128
f 149 651 652
f 457 128 131
f 149 652 653
f 457 131 134
f 149 653 654
f 457 134 137
f 149 654 655
f 457 137 140
f 149 655 656
f 457 140 143
f 149 656 657
f 457 143 146
f 149 657 658
f 457 146 149
f 149 658 659
f 659 457 149
