v -3.337500 -0.350000 -4.437000
v -3.337242 -0.665465 -4.446204
v -3.337500 -0.652074 -4.437000
v -3.336666 -0.350000 -4.453440
v -3.336466 -0.678402 -4.455360
v -3.335168 -0.690905 -4.464466
v -3.334174 -0.350000 -4.469711
v -3.333343 -0.702996 -4.473520
v -3.330990 -0.714683 -4.482509
v -3.330048 -0.350000 -4.485647
v -3.328118 -0.725941 -4.491391
v -3.324736 -0.736734 -4.500118
v -3.324331 -0.350000 -4.501083
v -3.320855 -0.747028 -4.508642
v -3.317081 -0.350000 -4.515862
v -3.316490 -0.756796 -4.516920
v -3.311664 -0.766028 -4.524917
v -3.308374 -0.350000 -4.529831
v -3.306404 -0.774717 -4.532600
v -3.300737 -0.782855 -4.539938
v -3.298298 -0.350000 -4.542848
v -3.294690 -0.790441 -4.546904
v -3.288292 -0.797482 -4.553482
v -3.286957 -0.350000 -4.554779
v -3.281575 -0.803991 -4.559662
v -3.274567 -0.809975 -4.565429
v -3.274467 -0.350000 -4.565501
v -3.267282 -0.815450 -4.570775
v -3.260957 -0.350000 -4.574905
v -3.259704 -0.820431 -4.575703
v -3.251811 -0.824937 -4.580214
v -3.246564 -0.350000 -4.582893
v -3.243586 -0.828985 -4.584309
v -3.235043 -0.832578 -4.587977
v -3.231437 -0.350000 -4.589385
v -3.226248 -0.835694 -4.591184
v -3.217272 -0.838311 -4.593896
v -3.215731 -0.350000 -4.594313
v -3.208184 -0.840406 -4.596080
v -3.199607 -0.350000 -4.597626
v -3.199032 -0.841973 -4.597720
v -3.189839 -0.843024 -4.598824
v -3.183230 -0.350000 -4.599291
v -3.180627 -0.843572 -4.599402
v -3.171416 -0.843629 -4.599463
v -3.166770 -0.350000 -4.599291
v -3.162222 -0.843196 -4.599006
v -3.153050 -0.842261 -4.598023
v -3.150393 -0.350000 -4.597626
v -3.143908 -0.840811 -4.596504
v -3.134805 -0.838834 -4.594441
v -3.134269 -0.350000 -4.594313
v -3.125782 -0.836333 -4.591844
v -3.118563 -0.350000 -4.589385
v -3.116910 -0.833323 -4.588740
v -3.108259 -0.829817 -4.585155
v -3.103436 -0.350000 -4.582893
v -3.099897 -0.825830 -4.581114
v -3.091848 -0.821362 -4.576632
v -3.089043 -0.350000 -4.574905
v -3.084105 -0.816403 -4.571715
v -3.076663 -0.810945 -4.566371
v -3.075533 -0.350000 -4.565501
v -3.069516 -0.804976 -4.560605
v -3.063043 -0.350000 -4.554779
v -3.062679 -0.798484 -4.554427
v -3.056175 -0.791455 -4.547844
v -3.051702 -0.350000 -4.542848
v -3.050027 -0.783873 -4.540865
v -3.044260 -0.775726 -4.533502
v -3.041626 -0.350000 -4.529831
v -3.038901 -0.767015 -4.525782
v -3.033980 -0.757752 -4.517740
v -3.032919 -0.350000 -4.515862
v -3.029526 -0.747945 -4.509412
v -3.025669 -0.350000 -4.501083
v -3.025565 -0.737607 -4.500833
v -3.022114 -0.726761 -4.492045
v -3.019952 -0.350000 -4.485647
v -3.019180 -0.715433 -4.483093
v -3.016773 -0.703653 -4.474019
v -3.015826 -0.350000 -4.469711
v -3.014902 -0.691440 -4.464862
v -3.013567 -0.678786 -4.455636
v -3.013334 -0.350000 -4.453440
v -3.012766 -0.665670 -4.446347
v -3.012500 -0.350000 -4.437000
v -3.012500 -0.652074 -4.437000
f 1 2 3
f 1 4 2
f 4 5 2
f 4 6 5
f 4 7 6
f 7 8 6
f 7 9 8
f 7 10 9
f 10 11 9
f 10 12 11
f 10 13 12
f 13 14 12
f 13 15 14
f 15 16 14
f 15 17 16
f 15 18 17
f 18 19 17
f 18 20 19
f 18 21 20
f 21 22 20
f 21 23 22
f 21 24 23
f 24 25 23
f 24 26 25
f 24 27 26
f 27 28 26
f 27 29 28
f 29 30 28
f 29 31 30
f 29 32 31
f 32 33 31
f 32 34 33
f 32 35 34
f 35 36 34
f 35 37 36
f 35 38 37
f 38 39 37
f 38 40 39
f 40 41 39
f 40 42 41
f 40 43 42
f 43 44 42
f 43 45 44
f 43 46 45
f 46 47 45
f 46 48 47
f 46 49 48
f 49 50 48
f 49 51 50
f 49 52 51
f 52 53 51
f 52 54 53
f 54 55 53
f 54 56 55
f 54 57 56
f 57 58 56
f 57 59 58
f 57 60 59
f 60 61 59
f 60 62 61
f 60 63 62
f 63 64 62
f 63 65 64
f 65 66 64
f 65 67 66
f 65 68 67
f 68 69 67
f 68 70 69
f 68 71 70
f 71 72 70
f 71 73 72
f 71 74 73
f 74 75 73
f 74 76 75
f 76 77 75
f 76 78 77
f 76 79 78
f 79 80 78
f 79 81 80
f 79 82 81
f 82 83 81
f 82 84 83
f 82 85 84
f 85 86 84
f 85 87 86
f 87 88 86
