v -2.540000 0.450000 -3.150000
v -0.983737 0.449958 -3.145833
v -0.985432 0.450000 -3.150000
v -0.982315 0.449828 -3.141612
v -2.540000 0.449743 -3.139870
v -0.981180 0.449603 -3.137325
v -0.980347 0.449276 -3.132962
v -2.540000 0.448974 -3.129766
v -0.979834 0.448842 -3.128511
v -0.979653 0.448294 -3.123966
v -2.540000 0.447694 -3.119714
v -0.979814 0.447630 -3.119341
v -0.980322 0.446847 -3.114657
v -0.981184 0.445942 -3.109932
v -2.540000 0.445906 -3.109740
v -0.982406 0.444915 -3.105186
v -0.983993 0.443762 -3.100437
v -2.540000 0.443615 -3.099869
v -0.985932 0.442487 -3.095696
v -0.988208 0.441090 -3.090971
v -2.540000 0.440828 -3.090127
v -0.990808 0.439575 -3.086273
v -0.993717 0.437943 -3.081609
v -2.540000 0.437550 -3.080539
v -0.996918 0.436197 -3.076988
v -1.000398 0.434337 -3.072414
v -2.540000 0.433792 -3.071129
v -1.004138 0.432366 -3.067887
v -1.008124 0.430284 -3.063411
v -2.540000 0.429561 -3.061921
v -1.012340 0.428092 -3.058987
v -1.016770 0.425791 -3.054617
v -2.540000 0.424869 -3.052940
v -1.021402 0.423380 -3.050301
v -1.026228 0.420857 -3.046037
v -2.540000 0.419729 -3.044207
v -1.031238 0.418220 -3.041824
v -1.036420 0.415469 -3.037661
v -2.540000 0.414153 -3.035746
v -1.041766 0.412600 -3.033548
v -1.047271 0.409611 -3.029483
v -2.540000 0.408155 -3.027579
v -1.052930 0.406497 -3.025466
v -1.058738 0.403255 -3.021497
v -2.540000 0.401752 -3.019726
v -1.064692 0.399879 -3.017576
v -1.070786 0.396367 -3.013701
v -2.540000 0.394959 -3.012207
v -1.077018 0.392710 -3.009875
v -1.083384 0.388901 -3.006098
v -2.540000 0.387793 -3.005041
v -1.089880 0.384932 -3.002371
v -1.096504 0.380794 -2.998696
v -2.540000 0.380274 -2.998248
v -1.103252 0.376480 -2.995074
v -2.540000 0.372421 -2.991845
v -1.110120 0.371981 -2.991510
v -1.117103 0.367288 -2.988009
v -2.540000 0.364254 -2.985847
v -1.124196 0.362394 -2.984575
v -1.131395 0.357288 -2.981213
v -2.540000 0.355793 -2.980271
v -1.138696 0.351961 -2.977929
v -2.540000 0.347060 -2.975131
v -1.146099 0.346387 -2.974734
v -1.153602 0.340540 -2.971639
v -2.540000 0.338079 -2.970439
v -1.161205 0.334393 -2.968658
v -2.540000 0.328871 -2.966208
v -1.168909 0.327918 -2.965802
v -1.176699 0.321101 -2.963087
v -2.540000 0.319461 -2.962450
v -1.184516 0.313975 -2.960544
v -2.540000 0.309873 -2.959172
v -1.192283 0.306585 -2.958206
v -2.540000 0.300131 -2.956385
v -1.199928 0.298975 -2.956109
v -1.207374 0.291190 -2.954288
v -2.540000 0.290260 -2.954094
v -1.214562 0.283266 -2.952771
v -2.540000 0.280286 -2.952306
v -1.221484 0.275199 -2.951574
v -2.540000 0.270234 -2.951026
v -1.228144 0.266975 -2.950706
v -2.540000 0.260130 -2.950257
v -1.234549 0.258580 -2.950178
v -2.540000 0.250000 -2.950000
v -1.240702 0.250000 -2.950000
f 1 2 3
f 1 4 2
f 1 5 4
f 5 6 4
f 5 7 6
f 5 8 7
f 8 9 7
f 8 10 9
f 8 11 10
f 11 12 10
f 11 13 12
f 11 14 13
f 11 15 14
f 15 16 14
f 15 17 16
f 15 18 17
f 18 19 17
f 18 20 19
f 18 21 20
f 21 22 20
f 21 23 22
f 21 24 23
f 24 25 23
f 24 26 25
f 24 27 26
f 27 28 26
f 27 29 28
f 27 30 29
f 30 31 29
f 30 32 31
f 30 33 32
f 33 34 32
f 33 35 34
f 33 36 35
f 36 37 35
f 36 38 37
f 36 39 38
f 39 40 38
f 39 41 40
f 39 42 41
f 42 43 41
f 42 44 43
f 42 45 44
f 45 46 44
f 45 47 46
f 45 48 47
f 48 49 47
f 48 50 49
f 48 51 50
f 51 52 50
f 51 53 52
f 51 54 53
f 54 55 53
f 54 56 55
f 56 57 55
f 56 58 57
f 56 59 58
f 59 60 58
f 59 61 60
f 59 62 61
f 62 63 61
f 62 64 63
f 64 65 63
f 64 66 65
f 64 67 66
f 67 68 66
f 67 69 68
f 69 70 68
f 69 71 70
f 69 72 71
f 72 73 71
f 72 74 73
f 74 75 73
f 74 76 75
f 76 77 75
f 76 78 77
f 76 79 78
f 79 80 78
f 79 81 80
f 81 82 80
f 81 83 82
f 83 84 82
f 83 85 84
f 85 86 84
f 85 87 86
f 87 88 86
