v 0.483284 0.010000 -0.464044
v 0.481456 0.010000 -0.465940
v 0.479621 0.010000 -0.467828
v 0.477779 0.010000 -0.469710
v 0.475929 0.010000 -0.471584
v 0.474072 0.010000 -0.473451
v 0.472207 0.010000 -0.475311
v 0.470335 0.010000 -0.477163
v 0.468456 0.010000 -0.479008
v 0.466570 0.010000 -0.480845
v 0.464677 0.010000 -0.482676
v 0.483284 0.220000 -0.464044
v 0.481456 0.220000 -0.465940
v 0.479621 0.220000 -0.467828
v 0.477779 0.220000 -0.469710
v 0.475929 0.220000 -0.471584
v 0.474072 0.220000 -0.473451
v 0.472207 0.220000 -0.475311
v 0.470335 0.220000 -0.477163
v 0.468456 0.220000 -0.479008
v 0.466570 0.220000 -0.480845
v 0.464677 0.220000 -0.482676
f 1 2 13
f 1 13 12
f 2 3 14
f 2 14 13
f 3 4 15
f 3 15 14
f 4 5 16
f 4 16 15
f 5 6 17
f 5 17 16
f 6 7 18
f 6 18 17
f 7 8 19
f 7 19 18
f 8 9 20
f 8 20 19
f 9 10 21
f 9 21 20
f 10 11 22
f 10 22 21
