v 0.712717 0.220000 -0.147996
v 0.659396 0.220000 -0.152661
v 0.659396 0.016837 -0.152661
v 0.659266 0.016713 -0.152673
v 0.659135 0.016588 -0.152684
v 0.659004 0.016463 -0.152696
v 0.658873 0.016338 -0.152707
v 0.658743 0.016214 -0.152718
v 0.658612 0.016089 -0.152730
v 0.658481 0.015964 -0.152741
v 0.658351 0.015839 -0.152753
v 0.658220 0.015715 -0.152764
v 0.658089 0.015590 -0.152776
v 0.657959 0.015465 -0.152787
v 0.657828 0.015341 -0.152798
v 0.657698 0.015216 -0.152810
v 0.657567 0.015092 -0.152821
v 0.657436 0.014967 -0.152833
v 0.657306 0.014842 -0.152844
v 0.657175 0.014718 -0.152856
v 0.657045 0.014593 -0.152867
v 0.656914 0.014469 -0.152878
v 0.656784 0.014344 -0.152890
v 0.656654 0.014220 -0.152901
v 0.656523 0.014096 -0.152913
v 0.656393 0.013971 -0.152924
v 0.656262 0.013847 -0.152935
v 0.656132 0.013722 -0.152947
v 0.656002 0.013598 -0.152958
v 0.655871 0.013474 -0.152970
v 0.655741 0.013349 -0.152981
v 0.655611 0.013225 -0.152992
v 0.655480 0.013101 -0.153004
v 0.655350 0.012977 -0.153015
v 0.655220 0.012852 -0.153027
v 0.655090 0.012728 -0.153038
v 0.654959 0.012604 -0.153049
v 0.654829 0.012480 -0.153061
v 0.654699 0.012356 -0.153072
v 0.654569 0.012231 -0.153084
v 0.654439 0.012107 -0.153095
v 0.654309 0.011983 -0.153106
v 0.654179 0.011859 -0.153118
v 0.654048 0.011735 -0.153129
v 0.653918 0.011611 -0.153141
v 0.653788 0.011487 -0.153152
v 0.653658 0.011363 -0.153163
v 0.653528 0.011239 -0.153175
v 0.653398 0.011115 -0.153186
v 0.653268 0.010991 -0.153197
v 0.653138 0.010867 -0.153209
v 0.653008 0.010743 -0.153220
v 0.652878 0.010619 -0.153232
v 0.652749 0.010495 -0.153243
v 0.652619 0.010371 -0.153254
v 0.652489 0.010248 -0.153266
v 0.652359 0.010124 -0.153277
v 0.652229 0.010000 -0.153288
v 0.652229 0.000000 -0.153288
v 0.712717 0.000000 -0.147996
f 60 1 2
f 60 2 3
f 60 3 4
f 60 4 5
f 60 5 6
f 60 6 7
f 60 7 8
f 60 8 9
f 60 9 10
f 60 10 11
f 60 11 12
f 60 12 13
f 60 13 14
f 60 14 15
f 60 15 16
f 60 16 17
f 60 17 18
f 60 18 19
f 60 19 20
f 60 20 21
f 60 21 22
f 60 22 23
f 60 23 24
f 60 24 25
f 60 25 26
f 60 26 27
f 60 27 28
f 60 28 29
f 60 29 30
f 60 30 31
f 60 31 32
f 60 32 33
f 60 33 34
f 60 34 35
f 60 35 36
f 60 36 37
f 60 37 38
f 60 38 39
f 60 39 40
f 60 40 41
f 60 41 42
f 60 42 43
f 60 43 44
f 60 44 45
f 60 45 46
f 60 46 47
f 60 47 48
f 60 48 49
f 60 49 50
f 60 50 51
f 60 51 52
f 60 52 53
f 60 53 54
f 60 54 55
f 60 55 56
f 60 56 57
f 60 57 58
f 58 59 60
