v 0.855000 -0.994631 -6.113000
v 0.861254 -0.524106 -6.113079
v 0.855000 -0.524053 -6.113000
v 0.864158 -0.994585 -6.113147
v 0.867526 -0.524266 -6.113316
v 0.873017 -0.994449 -6.113578
v 0.873812 -0.524532 -6.113712
v 0.880107 -0.524905 -6.114268
v 0.881590 -0.994227 -6.114283
v 0.886406 -0.525386 -6.114985
v 0.889890 -0.993923 -6.115247
v 0.892703 -0.525975 -6.115863
v 0.897930 -0.993541 -6.116459
v 0.898994 -0.526674 -6.116903
v 0.905273 -0.527481 -6.118107
v 0.905724 -0.993084 -6.117907
v 0.911536 -0.528399 -6.119474
v 0.913283 -0.992557 -6.119578
v 0.917781 -0.529428 -6.121006
v 0.920622 -0.991964 -6.121459
v 0.924006 -0.530569 -6.122706
v 0.927753 -0.991308 -6.123539
v 0.930208 -0.531823 -6.124574
v 0.934689 -0.990594 -6.125805
v 0.936386 -0.533191 -6.126613
v 0.941443 -0.989825 -6.128244
v 0.942538 -0.534675 -6.128823
v 0.948028 -0.989005 -6.130844
v 0.948661 -0.536275 -6.131206
v 0.954458 -0.988139 -6.133592
v 0.954753 -0.537992 -6.133764
v 0.960744 -0.987229 -6.136477
v 0.960812 -0.539828 -6.136499
v 0.966832 -0.541782 -6.139410
v 0.966897 -0.986279 -6.139490
v 0.972807 -0.543856 -6.142500
v 0.972918 -0.985290 -6.142628
v 0.978733 -0.546051 -6.145769
v 0.978808 -0.984261 -6.145891
v 0.984603 -0.548367 -6.149219
v 0.984569 -0.983193 -6.149278
v 0.990200 -0.982086 -6.152788
v 0.990413 -0.550804 -6.152850
v 0.995703 -0.980941 -6.156420
v 0.996156 -0.553364 -6.156663
v 1.001079 -0.979758 -6.160173
v 1.001828 -0.556047 -6.160660
v 1.006330 -0.978537 -6.164046
v 1.007422 -0.558853 -6.164840
v 1.011455 -0.977278 -6.168038
v 1.012933 -0.561782 -6.169204
v 1.016457 -0.975982 -6.172149
v 1.018353 -0.564834 -6.173750
v 1.021335 -0.974649 -6.176377
v 1.023676 -0.568008 -6.178478
v 1.026091 -0.973279 -6.180721
v 1.028895 -0.571304 -6.183388
v 1.030726 -0.971873 -6.185181
v 1.034004 -0.574721 -6.188480
v 1.035241 -0.970430 -6.189756
v 1.038997 -0.578260 -6.193751
v 1.039637 -0.968952 -6.194444
v 1.043866 -0.581920 -6.199203
v 1.043911 -0.967437 -6.199248
v 1.048064 -0.965886 -6.204168
v 1.048605 -0.585698 -6.204832
v 1.052094 -0.964298 -6.209205
v 1.053205 -0.589594 -6.210636
v 1.056002 -0.962673 -6.214359
v 1.057659 -0.593605 -6.216610
v 1.059786 -0.961011 -6.219630
v 1.061958 -0.597727 -6.222753
v 1.063445 -0.959311 -6.225021
v 1.066095 -0.601961 -6.229059
v 1.066979 -0.957574 -6.230531
v 1.070062 -0.606301 -6.235525
v 1.070387 -0.955799 -6.236162
v 1.073668 -0.953985 -6.241913
v 1.073851 -0.610748 -6.242149
v 1.076821 -0.952133 -6.247786
v 1.077453 -0.615297 -6.248927
v 1.079846 -0.950243 -6.253782
v 1.080863 -0.619945 -6.255849
v 1.082742 -0.948314 -6.259900
v 1.084074 -0.624683 -6.262908
v 1.085507 -0.946345 -6.266144
v 1.087078 -0.629506 -6.270092
v 1.088134 -0.944335 -6.272519
v 1.089869 -0.634406 -6.277392
v 1.090613 -0.942281 -6.279035
v 1.092441 -0.639377 -6.284797
v 1.092932 -0.940178 -6.285704
v 1.094787 -0.644413 -6.292299
v 1.095081 -0.938024 -6.292536
v 1.097048 -0.935816 -6.299539
v 1.096901 -0.649506 -6.299886
v 1.098825 -0.933550 -6.306726
v 1.098777 -0.654651 -6.307550
v 1.100399 -0.931223 -6.314105
v 1.100410 -0.659843 -6.315285
v 1.101760 -0.928833 -6.321687
v 1.101799 -0.665081 -6.323088
v 1.102898 -0.926375 -6.329482
v 1.102942 -0.670362 -6.330955
v 1.103802 -0.923846 -6.337501
v 1.103836 -0.675684 -6.338883
v 1.104460 -0.921244 -6.345754
v 1.104478 -0.681045 -6.346869
v 1.104863 -0.918566 -6.354250
v 1.104867 -0.686442 -6.354909
v 1.105000 -0.915807 -6.363000
v 1.105000 -0.691873 -6.363000
f 1 3 2
f 1 2 4
f 4 2 5
f 4 5 6
f 6 5 7
f 6 7 8
f 6 8 9
f 9 8 10
f 9 10 11
f 11 10 12
f 11 12 13
f 13 12 14
f 13 14 15
f 13 15 16
f 16 15 17
f 16 17 18
f 18 17 19
f 18 19 20
f 20 19 21
f 20 21 22
f 22 21 23
f 22 23 24
f 24 23 25
f 24 25 26
f 26 25 27
f 26 27 28
f 28 27 29
f 28 29 30
f 30 29 31
f 30 31 32
f 32 31 33
f 32 33 34
f 32 34 35
f 35 34 36
f 35 36 37
f 37 36 38
f 37 38 39
f 39 38 40
f 39 40 41
f 41 40 42
f 42 40 43
f 42 43 44
f 44 43 45
f 44 45 46
f 46 45 47
f 46 47 48
f 48 47 49
f 48 49 50
f 50 49 51
f 50 51 52
f 52 51 53
f 52 53 54
f 54 53 55
f 54 55 56
f 56 55 57
f 56 57 58
f 58 57 59
f 58 59 60
f 60 59 61
f 60 61 62
f 62 61 63
f 62 63 64
f 64 63 65
f 65 63 66
f 65 66 67
f 67 66 68
f 67 68 69
f 69 68 70
f 69 70 71
f 71 70 72
f 71 72 73
f 73 72 74
f 73 74 75
f 75 74 76
f 75 76 77
f 77 76 78
f 78 76 79
f 78 79 80
f 80 79 81
f 80 81 82
f 82 81 83
f 82 83 84
f 84 83 85
f 84 85 86
f 86 85 87
f 86 87 88
f 88 87 89
f 88 89 90
f 90 89 91
f 90 91 92
f 92 91 93
f 92 93 94
f 94 93 95
f 95 93 96
f 95 96 97
f 97 96 98
f 97 98 99
f 99 98 100
f 99 100 101
f 101 100 102
f 101 102 103
f 103 102 104
f 103 104 105
f 105 104 106
f 105 106 107
f 107 106 108
f 107 108 109
f 109 108 110
f 109 110 111
f 111 110 112
