v 0.960000 -0.954457 -4.735484
v 0.961652 -0.893346 -4.736146
v 0.960000 -0.892854 -4.735484
v 0.961659 -0.954919 -4.736148
v 0.963304 -0.893842 -4.736814
v 0.963317 -0.955385 -4.736819
v 0.964955 -0.894342 -4.737488
v 0.964975 -0.955855 -4.737496
v 0.966606 -0.894846 -4.738170
v 0.966632 -0.956328 -4.738180
v 0.968257 -0.895355 -4.738858
v 0.968289 -0.956806 -4.738871
v 0.969907 -0.895868 -4.739553
v 0.969945 -0.957288 -4.739569
v 0.971558 -0.896385 -4.740255
v 0.971600 -0.957773 -4.740273
v 0.973207 -0.896906 -4.740964
v 0.973255 -0.958263 -4.740984
v 0.974857 -0.897432 -4.741679
v 0.974909 -0.958756 -4.741702
v 0.976506 -0.897961 -4.742402
v 0.976562 -0.959253 -4.742427
v 0.978155 -0.898495 -4.743132
v 0.978215 -0.959755 -4.743159
v 0.979804 -0.899033 -4.743868
v 0.979868 -0.960260 -4.743897
v 0.981452 -0.899576 -4.744612
v 0.981520 -0.960769 -4.744643
v 0.983100 -0.900122 -4.745363
v 0.983172 -0.961282 -4.745396
v 0.984748 -0.900673 -4.746121
v 0.984823 -0.961799 -4.746156
v 0.986396 -0.901228 -4.746886
v 0.986474 -0.962320 -4.746923
v 0.988044 -0.901787 -4.747659
v 0.988124 -0.962844 -4.747697
v 0.989691 -0.902351 -4.748439
v 0.989774 -0.963373 -4.748478
v 0.991339 -0.902918 -4.749226
v 0.991423 -0.963906 -4.749266
v 0.992986 -0.903490 -4.750020
v 0.993072 -0.964442 -4.750062
v 0.994633 -0.904067 -4.750822
v 0.994720 -0.964983 -4.750865
v 0.996279 -0.904647 -4.751631
v 0.996368 -0.965527 -4.751675
v 0.997925 -0.905231 -4.752447
v 0.998015 -0.966076 -4.752492
v 0.999571 -0.905820 -4.753270
v 0.999662 -0.966628 -4.753316
v 1.001216 -0.906412 -4.754101
v 1.001307 -0.967183 -4.754148
v 1.002860 -0.907009 -4.754939
v 1.002952 -0.967743 -4.754986
v 1.004503 -0.907610 -4.755785
v 1.004595 -0.968306 -4.755832
v 1.006146 -0.908214 -4.756637
v 1.006238 -0.968873 -4.756685
v 1.007788 -0.908823 -4.757497
v 1.007879 -0.969443 -4.757545
v 1.009429 -0.909435 -4.758364
v 1.009520 -0.970017 -4.758412
v 1.011069 -0.910051 -4.759238
v 1.011159 -0.970595 -4.759286
v 1.012707 -0.910671 -4.760120
v 1.012796 -0.971176 -4.760168
v 1.014345 -0.911295 -4.761009
v 1.014432 -0.971761 -4.761056
v 1.015981 -0.911923 -4.761904
v 1.016067 -0.972349 -4.761952
v 1.017616 -0.912554 -4.762808
v 1.017700 -0.972941 -4.762854
v 1.019250 -0.913189 -4.763718
v 1.019331 -0.973536 -4.763764
v 1.020882 -0.913828 -4.764635
v 1.020961 -0.974134 -4.764680
v 1.022512 -0.914470 -4.765560
v 1.022589 -0.974736 -4.765604
v 1.024141 -0.915116 -4.766492
v 1.024215 -0.975341 -4.766535
v 1.025768 -0.915765 -4.767431
v 1.025839 -0.975950 -4.767473
v 1.027394 -0.916418 -4.768378
v 1.027462 -0.976562 -4.768418
v 1.029018 -0.917075 -4.769332
v 1.029083 -0.977177 -4.769370
v 1.030641 -0.917735 -4.770293
v 1.030702 -0.977795 -4.770329
v 1.032262 -0.918399 -4.771262
v 1.032319 -0.978417 -4.771296
v 1.033882 -0.919067 -4.772238
v 1.033935 -0.979042 -4.772270
v 1.035500 -0.919738 -4.773221
v 1.035549 -0.979671 -4.773251
v 1.037117 -0.920413 -4.774213
v 1.037161 -0.980303 -4.774240
v 1.038733 -0.921091 -4.775211
v 1.038772 -0.980938 -4.775236
v 1.040347 -0.921773 -4.776218
v 1.040381 -0.981576 -4.776239
v 1.041959 -0.922458 -4.777232
v 1.041988 -0.982218 -4.777250
v 1.043570 -0.923147 -4.778253
v 1.043594 -0.982863 -4.778268
v 1.045180 -0.923839 -4.779283
v 1.045198 -0.983511 -4.779294
v 1.046788 -0.924535 -4.780320
v 1.046800 -0.984162 -4.780328
v 1.048395 -0.925235 -4.781365
v 1.048401 -0.984817 -4.781369
v 1.050000 -0.985475 -4.782418
v 1.050000 -0.925938 -4.782418
f 1 3 2
f 1 2 4
f 4 2 5
f 4 5 6
f 6 5 7
f 6 7 8
f 8 7 9
f 8 9 10
f 10 9 11
f 10 11 12
f 12 11 13
f 12 13 14
f 14 13 15
f 14 15 16
f 16 15 17
f 16 17 18
f 18 17 19
f 18 19 20
f 20 19 21
f 20 21 22
f 22 21 23
f 22 23 24
f 24 23 25
f 24 25 26
f 26 25 27
f 26 27 28
f 28 27 29
f 28 29 30
f 30 29 31
f 30 31 32
f 32 31 33
f 32 33 34
f 34 33 35
f 34 35 36
f 36 35 37
f 36 37 38
f 38 37 39
f 38 39 40
f 40 39 41
f 40 41 42
f 42 41 43
f 42 43 44
f 44 43 45
f 44 45 46
f 46 45 47
f 46 47 48
f 48 47 49
f 48 49 50
f 50 49 51
f 50 51 52
f 52 51 53
f 52 53 54
f 54 53 55
f 54 55 56
f 56 55 57
f 56 57 58
f 58 57 59
f 58 59 60
f 60 59 61
f 60 61 62
f 62 61 63
f 62 63 64
f 64 63 65
f 64 65 66
f 66 65 67
f 66 67 68
f 68 67 69
f 68 69 70
f 70 69 71
f 70 71 72
f 72 71 73
f 72 73 74
f 74 73 75
f 74 75 76
f 76 75 77
f 76 77 78
f 78 77 79
f 78 79 80
f 80 79 81
f 80 81 82
f 82 81 83
f 82 83 84
f 84 83 85
f 84 85 86
f 86 85 87
f 86 87 88
f 88 87 89
f 88 89 90
f 90 89 91
f 90 91 92
f 92 91 93
f 92 93 94
f 94 93 95
f 94 95 96
f 96 95 97
f 96 97 98
f 98 97 99
f 98 99 100
f 100 99 101
f 100 101 102
f 102 101 103
f 102 103 104
f 104 103 105
f 104 105 106
f 106 105 107
f 106 107 108
f 108 107 109
f 108 109 110
f 110 109 111
f 111 109 112
