v 1.064000 0.000000 -0.750000
v 1.063120 0.034745 -0.750000
v 1.060480 0.069401 -0.750000
v 1.056089 0.103879 -0.750000
v 1.049958 0.138091 -0.750000
v 1.042101 0.171948 -0.750000
v 1.032540 0.205363 -0.750000
v 1.021298 0.238251 -0.750000
v 1.008405 0.270528 -0.750000
v 0.993894 0.302110 -0.750000
v 0.977802 0.332917 -0.750000
v 0.960170 0.362869 -0.750000
v 0.941044 0.391890 -0.750000
v 0.920472 0.419905 -0.750000
v 0.898508 0.446842 -0.750000
v 0.875208 0.472631 -0.750000
v 0.850631 0.497208 -0.750000
v 0.824842 0.520508 -0.750000
v 0.797905 0.542472 -0.750000
v 0.769890 0.563044 -0.750000
v 0.740869 0.582170 -0.750000
v 0.710917 0.599802 -0.750000
v 0.680110 0.615894 -0.750000
v 0.648528 0.630405 -0.750000
v 0.616251 0.643298 -0.750000
v 0.583363 0.654540 -0.750000
v 0.549948 0.664101 -0.750000
v 0.516091 0.671958 -0.750000
v 0.481879 0.678089 -0.750000
v 0.447401 0.682480 -0.750000
v 0.412745 0.685120 -0.750000
v 0.378000 0.686000 -0.750000
v 1.064000 0.000000 -0.500000
v 1.063120 0.034745 -0.500000
v 1.060480 0.069401 -0.500000
v 1.056089 0.103879 -0.500000
v 1.049958 0.138091 -0.500000
v 1.042101 0.171948 -0.500000
v 1.032540 0.205363 -0.500000
v 1.021298 0.238251 -0.500000
v 1.008405 0.270528 -0.500000
v 0.993894 0.302110 -0.500000
v 0.977802 0.332917 -0.500000
v 0.960170 0.362869 -0.500000
v 0.941044 0.391890 -0.500000
v 0.920472 0.419905 -0.500000
v 0.898508 0.446842 -0.500000
v 0.875208 0.472631 -0.500000
v 0.850631 0.497208 -0.500000
v 0.824842 0.520508 -0.500000
v 0.797905 0.542472 -0.500000
v 0.769890 0.563044 -0.500000
v 0.740869 0.582170 -0.500000
v 0.710917 0.599802 -0.500000
v 0.680110 0.615894 -0.500000
v 0.648528 0.630405 -0.500000
v 0.616251 0.643298 -0.500000
v 0.583363 0.654540 -0.500000
v 0.549948 0.664101 -0.500000
v 0.516091 0.671958 -0.500000
v 0.481879 0.678089 -0.500000
v 0.447401 0.682480 -0.500000
v 0.412745 0.685120 -0.500000
v 0.378000 0.686000 -0.500000
f 1 2 34
f 1 34 33
f 2 3 35
f 2 35 34
f 3 4 36
f 3 36 35
f 4 5 37
f 4 37 36
f 5 6 38
f 5 38 37
f 6 7 39
f 6 39 38
f 7 8 40
f 7 40 39
f 8 9 41
f 8 41 40
f 9 10 42
f 9 42 41
f 10 11 43
f 10 43 42
f 11 12 44
f 11 44 43
f 12 13 45
f 12 45 44
f 13 14 46
f 13 46 45
f 14 15 47
f 14 47 46
f 15 16 48
f 15 48 47
f 16 17 49
f 16 49 48
f 17 18 50
f 17 50 49
f 18 19 51
f 18 51 50
f 19 20 52
f 19 52 51
f 20 21 53
f 20 53 52
f 21 22 54
f 21 54 53
f 22 23 55
f 22 55 54
f 23 24 56
f 23 56 55
f 24 25 57
f 24 57 56
f 25 26 58
f 25 58 57
f 26 27 59
f 26 59 58
f 27 28 60
f 27 60 59
f 28 29 61
f 28 61 60
f 29 30 62
f 29 62 61
f 30 31 63
f 30 63 62
f 31 32 64
f 31 64 63
