v 0.156399 -0.656631 -0.825000
v 0.166145 -0.654233 -0.825000
v 0.175854 -0.651690 -0.825000
v 0.185525 -0.649003 -0.825000
v 0.195154 -0.646173 -0.825000
v 0.204741 -0.643200 -0.825000
v 0.214282 -0.640085 -0.825000
v 0.223776 -0.636828 -0.825000
v 0.233220 -0.633430 -0.825000
v 0.242613 -0.629892 -0.825000
v 0.251952 -0.626215 -0.825000
v 0.261235 -0.622400 -0.825000
v 0.270461 -0.618447 -0.825000
v 0.279626 -0.614357 -0.825000
v 0.288730 -0.610131 -0.825000
v 0.297770 -0.605770 -0.825000
v 0.156399 -0.656631 -0.036213
v 0.166145 -0.654233 -0.036213
v 0.175854 -0.651690 -0.036213
v 0.185525 -0.649003 -0.036213
v 0.195154 -0.646173 -0.036213
v 0.204741 -0.643200 -0.036213
v 0.214282 -0.640085 -0.036213
v 0.223776 -0.636828 -0.036213
v 0.233220 -0.633430 -0.036213
v 0.242613 -0.629892 -0.036213
v 0.251952 -0.626215 -0.036213
v 0.261235 -0.622400 -0.036213
v 0.270461 -0.618447 -0.036213
v 0.279626 -0.614357 -0.036213
v 0.288730 -0.610131 -0.036213
v 0.297770 -0.605770 -0.036213
f 1 2 18
f 1 18 17
f 2 3 19
f 2 19 18
f 3 4 20
f 3 20 19
f 4 5 21
f 4 21 20
f 5 6 22
f 5 22 21
f 6 7 23
f 6 23 22
f 7 8 24
f 7 24 23
f 8 9 25
f 8 25 24
f 9 10 26
f 9 26 25
f 10 11 27
f 10 27 26
f 11 12 28
f 11 28 27
f 12 13 29
f 12 29 28
f 13 14 30
f 13 30 29
f 14 15 31
f 14 31 30
f 15 16 32
f 15 32 31
