v 0.025000 1.325000 0.100000
v 0.029931 1.301842 0.100024
v 0.025000 1.301943 0.100000
v 0.034933 1.301746 0.100099
v 0.040004 1.301655 0.100226
v 0.045143 1.301569 0.100407
v 0.050325 1.325000 0.100642
v 0.050348 1.301490 0.100644
v 0.055618 1.301416 0.100939
v 0.060951 1.301349 0.101294
v 0.066347 1.301288 0.101712
v 0.071806 1.301234 0.102194
v 0.075584 1.325000 0.102565
v 0.077332 1.301187 0.102744
v 0.082925 1.301147 0.103365
v 0.088587 1.301115 0.104059
v 0.094321 1.301090 0.104828
v 0.100127 1.301074 0.105676
v 0.100714 1.325000 0.105766
v 0.106009 1.301065 0.106606
v 0.111964 1.301066 0.107621
v 0.117995 1.301075 0.108724
v 0.124101 1.301093 0.109919
v 0.125649 1.325000 0.110235
v 0.130282 1.301121 0.111210
v 0.136538 1.301158 0.112600
v 0.142870 1.301206 0.114092
v 0.149277 1.301263 0.115690
v 0.150326 1.325000 0.115961
v 0.155760 1.301331 0.117400
v 0.162317 1.301409 0.119224
v 0.168950 1.301498 0.121169
v 0.174682 1.325000 0.122930
v 0.175658 1.301598 0.123237
v 0.182440 1.301710 0.125434
v 0.189296 1.301833 0.127764
v 0.196226 1.301967 0.130232
v 0.198653 1.325000 0.131124
v 0.203226 1.302113 0.132842
v 0.210295 1.302270 0.135600
v 0.217429 1.302439 0.138511
v 0.222178 1.325000 0.140521
v 0.224626 1.302620 0.141578
v 0.231883 1.302812 0.144808
v 0.239199 1.303016 0.148205
v 0.245197 1.325000 0.151098
v 0.246569 1.303231 0.151774
v 0.253990 1.303457 0.155520
v 0.261458 1.303694 0.159448
v 0.267651 1.325000 0.162827
v 0.268969 1.303941 0.163563
v 0.276520 1.304198 0.167870
v 0.284106 1.304464 0.172374
v 0.289482 1.325000 0.175678
v 0.291723 1.304740 0.177081
v 0.299370 1.305024 0.181997
v 0.307043 1.305316 0.187133
v 0.310634 1.325000 0.189618
v 0.314742 1.305615 0.192498
v 0.322462 1.305921 0.198101
v 0.330203 1.306233 0.203951
v 0.331053 1.325000 0.204612
v 0.337962 1.306549 0.210058
v 0.345736 1.306870 0.216430
v 0.350686 1.325000 0.220621
v 0.353515 1.307193 0.223072
v 0.361285 1.307517 0.229989
v 0.369035 1.307840 0.237182
v 0.369483 1.325000 0.237604
v 0.376750 1.308160 0.244655
v 0.384420 1.308474 0.252413
v 0.387396 1.325000 0.255517
v 0.392030 1.308783 0.260458
v 0.398058 1.309022 0.267094
v 0.403906 1.309249 0.273767
v 0.404379 1.325000 0.274314
v 0.409576 1.309463 0.280472
v 0.415068 1.309664 0.287204
v 0.420388 1.325000 0.293947
v 0.420386 1.309853 0.293956
v 0.425532 1.310028 0.300724
v 0.430507 1.310190 0.307501
v 0.435314 1.310338 0.314282
v 0.435382 1.325000 0.314366
v 0.439955 1.310472 0.321062
v 0.444431 1.310592 0.327834
v 0.448744 1.310697 0.334593
v 0.449322 1.325000 0.335518
v 0.452898 1.310788 0.341335
v 0.456896 1.310864 0.348058
v 0.460740 1.310927 0.354760
v 0.462173 1.325000 0.357349
v 0.464436 1.310974 0.361441
v 0.467987 1.311009 0.368099
v 0.471397 1.311029 0.374733
v 0.473902 1.325000 0.379803
v 0.474670 1.311036 0.381343
v 0.477809 1.311030 0.387926
v 0.480818 1.311012 0.394483
v 0.483702 1.310980 0.401012
v 0.484479 1.325000 0.402822
v 0.486463 1.310936 0.407512
v 0.489107 1.310879 0.413982
v 0.491634 1.310811 0.420421
v 0.493876 1.325000 0.426347
v 0.494048 1.310731 0.426827
v 0.496351 1.310639 0.433198
v 0.498546 1.310536 0.439535
v 0.500634 1.310422 0.445834
v 0.502070 1.325000 0.450318
v 0.502619 1.310296 0.452095
v 0.504502 1.310161 0.458317
v 0.506286 1.310015 0.464498
v 0.507973 1.309858 0.470636
v 0.509039 1.325000 0.474674
v 0.509567 1.309692 0.476731
v 0.511068 1.309516 0.482782
v 0.512480 1.309331 0.488788
v 0.513804 1.309136 0.494750
v 0.514765 1.325000 0.499351
v 0.515042 1.308933 0.500669
v 0.516197 1.308720 0.506545
v 0.517271 1.308498 0.512378
v 0.518266 1.308268 0.518170
v 0.519185 1.308030 0.523921
v 0.519234 1.325000 0.524286
v 0.520028 1.307783 0.529631
v 0.520798 1.307528 0.535301
v 0.521499 1.307266 0.540931
v 0.522130 1.306996 0.546521
v 0.522435 1.325000 0.549416
v 0.522695 1.306718 0.552072
v 0.523194 1.306433 0.557580
v 0.523629 1.306141 0.563046
v 0.524001 1.305843 0.568468
v 0.524312 1.305538 0.573844
v 0.524358 1.325000 0.574675
v 0.524564 1.305227 0.579173
v 0.524757 1.304910 0.584455
v 0.524893 1.304588 0.589688
v 0.524973 1.304260 0.594870
v 0.525000 1.325000 0.600000
v 0.525000 1.303926 0.600000
f 1 3 2
f 1 2 4
f 1 4 5
f 1 5 6
f 1 6 7
f 7 6 8
f 7 8 9
f 7 9 10
f 7 10 11
f 7 11 12
f 7 12 13
f 13 12 14
f 13 14 15
f 13 15 16
f 13 16 17
f 13 17 18
f 13 18 19
f 19 18 20
f 19 20 21
f 19 21 22
f 19 22 23
f 19 23 24
f 24 23 25
f 24 25 26
f 24 26 27
f 24 27 28
f 24 28 29
f 29 28 30
f 29 30 31
f 29 31 32
f 29 32 33
f 33 32 34
f 33 34 35
f 33 35 36
f 33 36 37
f 33 37 38
f 38 37 39
f 38 39 40
f 38 40 41
f 38 41 42
f 42 41 43
f 42 43 44
f 42 44 45
f 42 45 46
f 46 45 47
f 46 47 48
f 46 48 49
f 46 49 50
f 50 49 51
f 50 51 52
f 50 52 53
f 50 53 54
f 54 53 55
f 54 55 56
f 54 56 57
f 54 57 58
f 58 57 59
f 58 59 60
f 58 60 61
f 58 61 62
f 62 61 63
f 62 63 64
f 62 64 65
f 65 64 66
f 65 66 67
f 65 67 68
f 65 68 69
f 69 68 70
f 69 70 71
f 69 71 72
f 72 71 73
f 72 73 74
f 72 74 75
f 72 75 76
f 76 75 77
f 76 77 78
f 76 78 79
f 79 78 80
f 79 80 81
f 79 81 82
f 79 82 83
f 79 83 84
f 84 83 85
f 84 85 86
f 84 86 87
f 84 87 88
f 88 87 89
f 88 89 90
f 88 90 91
f 88 91 92
f 92 91 93
f 92 93 94
f 92 94 95
f 92 95 96
f 96 95 97
f 96 97 98
f 96 98 99
f 96 99 100
f 96 100 101
f 101 100 102
f 101 102 103
f 101 103 104
f 101 104 105
f 105 104 106
f 105 106 107
f 105 107 108
f 105 108 109
f 105 109 110
f 110 109 111
f 110 111 112
f 110 112 113
f 110 113 114
f 110 114 115
f 115 114 116
f 115 116 117
f 115 117 118
f 115 118 119
f 115 119 120
f 120 119 121
f 120 121 122
f 120 122 123
f 120 123 124
f 120 124 125
f 120 125 126
f 126 125 127
f 126 127 128
f 126 128 129
f 126 129 130
f 126 130 131
f 131 130 132
f 131 132 133
f 131 133 134
f 131 134 135
f 131 135 136
f 131 136 137
f 137 136 138
f 137 138 139
f 137 139 140
f 137 140 141
f 137 141 142
f 142 141 143
