v 1.179766 0.000000 -0.102506
v 1.635819 0.000000 0.212688
v 1.635819 0.180000 0.212688
v 1.159228 0.180000 -0.116701
v 1.159957 0.176864 -0.116197
v 1.160672 0.173723 -0.115703
v 1.161375 0.170577 -0.115217
v 1.162065 0.167426 -0.114740
v 1.162742 0.164269 -0.114272
v 1.163406 0.161107 -0.113813
v 1.164057 0.157940 -0.113364
v 1.164695 0.154767 -0.112923
v 1.165320 0.151588 -0.112491
v 1.165932 0.148404 -0.112068
v 1.166531 0.145214 -0.111654
v 1.167117 0.142018 -0.111249
v 1.167690 0.138817 -0.110853
v 1.168250 0.135609 -0.110465
v 1.168797 0.132396 -0.110087
v 1.169331 0.129176 -0.109718
v 1.169853 0.125950 -0.109358
v 1.170361 0.122719 -0.109007
v 1.170856 0.119481 -0.108664
v 1.171338 0.116236 -0.108331
v 1.171808 0.112986 -0.108007
v 1.172264 0.109730 -0.107691
v 1.172707 0.106469 -0.107385
v 1.173137 0.103202 -0.107088
v 1.173554 0.099930 -0.106800
v 1.173957 0.096653 -0.106521
v 1.174348 0.093371 -0.106251
v 1.174725 0.090084 -0.105990
v 1.175089 0.086793 -0.105739
v 1.175439 0.083497 -0.105497
v 1.175776 0.080198 -0.105264
v 1.176100 0.076894 -0.105040
v 1.176410 0.073587 -0.104826
v 1.176706 0.070276 -0.104621
v 1.176989 0.066962 -0.104425
v 1.177259 0.063645 -0.104239
v 1.177515 0.060324 -0.104062
v 1.177757 0.057001 -0.103895
v 1.177986 0.053675 -0.103737
v 1.178200 0.050345 -0.103588
v 1.178402 0.047013 -0.103449
v 1.178589 0.043677 -0.103320
v 1.178763 0.040339 -0.103200
v 1.178923 0.036997 -0.103089
v 1.179069 0.033651 -0.102988
v 1.179201 0.030302 -0.102897
v 1.179319 0.026950 -0.102815
v 1.179424 0.023594 -0.102743
v 1.179515 0.020235 -0.102680
v 1.179591 0.016872 -0.102627
v 1.179654 0.013505 -0.102583
v 1.179703 0.010135 -0.102550
v 1.179738 0.006760 -0.102525
v 1.179759 0.003382 -0.102511
f 58 2 1
f 58 3 2
f 3 5 4
f 3 6 5
f 3 7 6
f 3 8 7
f 3 9 8
f 3 10 9
f 3 11 10
f 3 12 11
f 3 13 12
f 3 14 13
f 3 15 14
f 3 16 15
f 3 17 16
f 3 18 17
f 3 19 18
f 3 20 19
f 3 21 20
f 3 22 21
f 3 23 22
f 3 24 23
f 3 25 24
f 3 26 25
f 3 27 26
f 3 28 27
f 3 29 28
f 3 30 29
f 3 31 30
f 3 32 31
f 3 33 32
f 3 34 33
f 3 35 34
f 3 36 35
f 3 37 36
f 3 38 37
f 3 39 38
f 3 40 39
f 3 41 40
f 3 42 41
f 3 43 42
f 3 44 43
f 3 45 44
f 3 46 45
f 3 47 46
f 3 48 47
f 3 49 48
f 3 50 49
f 3 51 50
f 3 52 51
f 3 53 52
f 3 54 53
f 3 55 54
f 3 56 55
f 3 57 56
f 3 58 57
