v 0.178878 0.461549 -1.051004
v 0.180215 0.461029 -1.051148
v 0.181517 0.460518 -1.051493
v 0.182755 0.460028 -1.052032
v 0.183907 0.459568 -1.052754
v 0.184950 0.459150 -1.053643
v 0.185861 0.458782 -1.054681
v 0.186625 0.458472 -1.055847
v 0.187225 0.458227 -1.057117
v 0.187651 0.458052 -1.058465
v 0.187895 0.457953 -1.059863
v 0.242858 0.581309 -1.051004
v 0.244176 0.580756 -1.051148
v 0.245459 0.580215 -1.051492
v 0.246682 0.579696 -1.052030
v 0.247820 0.579211 -1.052751
v 0.248850 0.578769 -1.053639
v 0.249752 0.578381 -1.054677
v 0.250507 0.578054 -1.055843
v 0.251102 0.577795 -1.057113
v 0.251524 0.577612 -1.058462
v 0.251766 0.577507 -1.059862
f 1 13 2
f 1 12 13
f 2 14 3
f 2 13 14
f 3 15 4
f 3 14 15
f 4 16 5
f 4 15 16
f 5 17 6
f 5 16 17
f 6 18 7
f 6 17 18
f 7 19 8
f 7 18 19
f 8 20 9
f 8 19 20
f 9 21 10
f 9 20 21
f 10 22 11
f 10 21 22
