v 0.334363 -0.337382 -2.880000
v 0.334509 -0.337238 -2.872896
v 0.132356 -0.220753 -2.880000
v 0.132676 -0.220198 -2.867354
v 0.334946 -0.336804 -2.865873
v 0.335672 -0.336081 -2.858922
v 0.133635 -0.218537 -2.854838
v 0.336684 -0.335065 -2.852033
v 0.337981 -0.333758 -2.845199
v 0.135222 -0.215789 -2.842580
v 0.339555 -0.332157 -2.838437
v 0.341397 -0.330263 -2.831778
v 0.137421 -0.211980 -2.830706
v 0.343500 -0.328074 -2.825251
v 0.140209 -0.207151 -2.819337
v 0.345854 -0.325591 -2.818887
v 0.348446 -0.322816 -2.812711
v 0.143558 -0.201350 -2.808591
v 0.351258 -0.319755 -2.806747
v 0.354271 -0.316414 -2.801018
v 0.147433 -0.194638 -2.798578
v 0.357468 -0.312797 -2.795548
v 0.360828 -0.308913 -2.790358
v 0.151795 -0.187083 -2.789401
v 0.364330 -0.304775 -2.785467
v 0.156599 -0.178762 -2.781153
v 0.367949 -0.300397 -2.780896
v 0.371663 -0.295790 -2.776662
v 0.161795 -0.169762 -2.773919
v 0.375448 -0.290970 -2.772784
v 0.379284 -0.285951 -2.769271
v 0.167331 -0.160174 -2.767774
v 0.383150 -0.280749 -2.766131
v 0.387027 -0.275382 -2.763371
v 0.173149 -0.150097 -2.762781
v 0.390894 -0.269863 -2.761000
v 0.394737 -0.264210 -2.759020
v 0.179190 -0.139634 -2.758990
v 0.398541 -0.258437 -2.757433
v 0.185391 -0.128893 -2.756441
v 0.402293 -0.252558 -2.756242
v 0.405979 -0.246589 -2.755447
v 0.191690 -0.117983 -2.755160
v 0.409588 -0.240546 -2.755050
v 0.413111 -0.234443 -2.755049
v 0.198021 -0.107017 -2.755160
v 0.416541 -0.228295 -2.755447
v 0.419867 -0.222118 -2.756242
v 0.204320 -0.096107 -2.756441
v 0.423083 -0.215929 -2.757433
v 0.210521 -0.085366 -2.758990
v 0.426181 -0.209748 -2.759020
v 0.429156 -0.203593 -2.761000
v 0.216562 -0.074903 -2.762781
v 0.432001 -0.197484 -2.763371
v 0.434712 -0.191442 -2.766131
v 0.222380 -0.064826 -2.767774
v 0.437283 -0.185493 -2.769272
v 0.439712 -0.179661 -2.772785
v 0.227916 -0.055238 -2.773919
v 0.441994 -0.173972 -2.776664
v 0.444126 -0.168453 -2.780897
v 0.233112 -0.046238 -2.781153
v 0.446109 -0.163130 -2.785469
v 0.237916 -0.037917 -2.789401
v 0.447941 -0.158028 -2.790360
v 0.449624 -0.153176 -2.795550
v 0.242278 -0.030362 -2.798578
v 0.451158 -0.148599 -2.801020
v 0.452545 -0.144319 -2.806749
v 0.246153 -0.023650 -2.808591
v 0.453791 -0.140354 -2.812713
v 0.454898 -0.136722 -2.818888
v 0.249502 -0.017849 -2.819337
v 0.455871 -0.133442 -2.825252
v 0.252291 -0.013020 -2.830706
v 0.456715 -0.130527 -2.831779
v 0.457434 -0.127984 -2.838437
v 0.254489 -0.009211 -2.842580
v 0.458033 -0.125821 -2.845199
v 0.458517 -0.124044 -2.852033
v 0.256076 -0.006463 -2.854838
v 0.458890 -0.122660 -2.858922
v 0.459154 -0.121670 -2.865873
v 0.257035 -0.004802 -2.867354
v 0.459311 -0.121074 -2.872895
v 0.459363 -0.120876 -2.880000
v 0.257356 -0.004247 -2.880000
f 1 3 2
f 2 3 4
f 2 4 5
f 5 4 6
f 6 4 7
f 6 7 8
f 8 7 9
f 9 7 10
f 9 10 11
f 11 10 12
f 12 10 13
f 12 13 14
f 14 13 15
f 14 15 16
f 16 15 17
f 17 15 18
f 17 18 19
f 19 18 20
f 20 18 21
f 20 21 22
f 22 21 23
f 23 21 24
f 23 24 25
f 25 24 26
f 25 26 27
f 27 26 28
f 28 26 29
f 28 29 30
f 30 29 31
f 31 29 32
f 31 32 33
f 33 32 34
f 34 32 35
f 34 35 36
f 36 35 37
f 37 35 38
f 37 38 39
f 39 38 40
f 39 40 41
f 41 40 42
f 42 40 43
f 42 43 44
f 44 43 45
f 45 43 46
f 45 46 47
f 47 46 48
f 48 46 49
f 48 49 50
f 50 49 51
f 50 51 52
f 52 51 53
f 53 51 54
f 53 54 55
f 55 54 56
f 56 54 57
f 56 57 58
f 58 57 59
f 59 57 60
f 59 60 61
f 61 60 62
f 62 60 63
f 62 63 64
f 64 63 65
f 64 65 66
f 66 65 67
f 67 65 68
f 67 68 69
f 69 68 70
f 70 68 71
f 70 71 72
f 72 71 73
f 73 71 74
f 73 74 75
f 75 74 76
f 75 76 77
f 77 76 78
f 78 76 79
f 78 79 80
f 80 79 81
f 81 79 82
f 81 82 83
f 83 82 84
f 84 82 85
f 84 85 86
f 86 85 87
f 87 85 88
