v 0.347929 0.002929 -0.027901
v 0.347748 0.002752 -0.027901
v 0.347562 0.002580 -0.027901
v 0.347372 0.002412 -0.027901
v 0.347177 0.002250 -0.027901
v 0.346979 0.002092 -0.027901
v 0.346777 0.001940 -0.027901
v 0.346571 0.001792 -0.027901
v 0.346361 0.001650 -0.027901
v 0.346148 0.001514 -0.027901
v 0.345931 0.001382 -0.027901
v 0.345711 0.001257 -0.027901
v 0.345488 0.001136 -0.027901
v 0.345262 0.001022 -0.027901
v 0.345033 0.000913 -0.027901
v 0.344801 0.000810 -0.027901
v 0.344567 0.000713 -0.027901
v 0.344331 0.000622 -0.027901
v 0.344092 0.000538 -0.027901
v 0.343851 0.000459 -0.027901
v 0.343609 0.000386 -0.027901
v 0.343364 0.000319 -0.027901
v 0.343118 0.000259 -0.027901
v 0.342871 0.000205 -0.027901
v 0.342622 0.000157 -0.027901
v 0.342372 0.000115 -0.027901
v 0.342121 0.000080 -0.027901
v 0.341870 0.000051 -0.027901
v 0.341617 0.000029 -0.027901
v 0.341364 0.000013 -0.027901
v 0.341111 0.000003 -0.027901
v 0.340858 0.000000 -0.027901
v 0.341315 0.000000 -0.027901
v 0.342683 0.000000 -0.027901
v 0.344946 0.000000 -0.027901
v 0.348082 -0.000000 -0.027901
v 0.352059 -0.000000 -0.027901
v 0.356835 -0.000000 -0.027901
v 0.362363 -0.000000 -0.027901
v 0.368584 -0.000000 -0.027901
v 0.375436 -0.000000 -0.027901
v 0.382847 -0.000000 -0.027901
v 0.390742 -0.000000 -0.027901
v 0.399040 -0.000000 -0.027901
v 0.407656 -0.000000 -0.027901
v 0.416501 -0.000000 -0.027901
v 0.425485 -0.000000 -0.027901
v 0.434515 -0.000000 -0.027901
v 0.443499 -0.000000 -0.027901
v 0.452344 -0.000000 -0.027901
v 0.460960 -0.000000 -0.027901
v 0.469258 -0.000000 -0.027901
v 0.477153 -0.000000 -0.027901
v 0.484564 -0.000000 -0.027901
v 0.491416 -0.000000 -0.027901
v 0.497637 -0.000000 -0.027901
v 0.503165 -0.000000 -0.027901
v 0.507941 -0.000000 -0.027901
v 0.511918 -0.000000 -0.027901
v 0.515054 0.000000 -0.027901
v 0.517317 0.000000 -0.027901
v 0.518685 0.000000 -0.027901
v 0.519142 0.000000 -0.027901
v 0.518889 0.000003 -0.027901
v 0.518636 0.000013 -0.027901
v 0.518383 0.000029 -0.027901
v 0.518130 0.000051 -0.027901
v 0.517879 0.000080 -0.027901
v 0.517628 0.000115 -0.027901
v 0.517378 0.000157 -0.027901
v 0.517129 0.000205 -0.027901
v 0.516882 0.000259 -0.027901
v 0.516636 0.000319 -0.027901
v 0.516391 0.000386 -0.027901
v 0.516149 0.000459 -0.027901
v 0.515908 0.000538 -0.027901
v 0.515669 0.000622 -0.027901
v 0.515433 0.000713 -0.027901
v 0.515199 0.000810 -0.027901
v 0.514967 0.000913 -0.027901
v 0.514738 0.001022 -0.027901
v 0.514512 0.001136 -0.027901
v 0.514289 0.001257 -0.027901
v 0.514069 0.001382 -0.027901
v 0.513852 0.001514 -0.027901
v 0.513639 0.001650 -0.027901
v 0.513429 0.001792 -0.027901
v 0.513223 0.001940 -0.027901
v 0.513021 0.002092 -0.027901
v 0.512823 0.002250 -0.027901
v 0.512628 0.002412 -0.027901
v 0.512438 0.002580 -0.027901
v 0.512252 0.002752 -0.027901
v 0.512071 0.002929 -0.027901
v 0.519142 0.000000 -0.027901
v 0.518685 0.000000 -0.027901
v 0.517317 0.000000 -0.027901
v 0.515054 0.000000 -0.027901
v 0.511918 -0.000000 -0.027901
v 0.507941 -0.000000 -0.027901
v 0.503165 -0.000000 -0.027901
v 0.497637 -0.000000 -0.027901
v 0.491416 -0.000000 -0.027901
v 0.484564 -0.000000 -0.027901
v 0.477153 -0.000000 -0.027901
v 0.469258 -0.000000 -0.027901
v 0.460960 -0.000000 -0.027901
v 0.452344 -0.000000 -0.027901
v 0.443499 -0.000000 -0.027901
v 0.434515 -0.000000 -0.027901
v 0.425485 -0.000000 -0.027901
v 0.416501 -0.000000 -0.027901
v 0.407656 -0.000000 -0.027901
v 0.399040 -0.000000 -0.027901
v 0.390742 -0.000000 -0.027901
v 0.382847 -0.000000 -0.027901
v 0.375436 -0.000000 -0.027901
v 0.368584 -0.000000 -0.027901
v 0.362363 -0.000000 -0.027901
v 0.356835 -0.000000 -0.027901
v 0.352059 -0.000000 -0.027901
v 0.348082 -0.000000 -0.027901
v 0.344946 0.000000 -0.027901
v 0.342683 0.000000 -0.027901
v 0.341315 0.000000 -0.027901
v 0.340858 0.000000 -0.027901
f 1 3 2
f 3 5 4
f 5 7 6
f 7 9 8
f 9 11 10
f 11 13 12
f 13 15 14
f 15 17 16
f 17 19 18
f 19 21 20
f 21 23 22
f 23 25 24
f 25 27 26
f 27 29 28
f 29 31 30
f 63 65 64
f 65 67 66
f 67 69 68
f 69 71 70
f 71 73 72
f 73 75 74
f 75 77 76
f 77 79 78
f 79 81 80
f 81 83 82
f 83 85 84
f 85 87 86
f 87 89 88
f 89 91 90
f 91 93 92
f 1 5 3
f 5 9 7
f 9 13 11
f 13 17 15
f 17 21 19
f 21 25 23
f 25 29 27
f 29 32 31
f 63 67 65
f 67 71 69
f 71 75 73
f 75 79 77
f 79 83 81
f 83 87 85
f 87 91 89
f 91 94 93
f 1 9 5
f 9 17 13
f 17 25 21
f 25 32 29
f 63 71 67
f 71 79 75
f 79 87 83
f 87 94 91
f 1 17 9
f 17 32 25
f 63 79 71
f 79 94 87
f 1 32 17
f 63 94 79
