v 1.166802 0.565914 -6.668303
v 1.167673 0.545468 -6.671053
v 1.167241 0.555693 -6.669690
v 1.168096 0.535240 -6.672389
v 1.168511 0.525008 -6.673701
v 1.168919 0.514772 -6.674987
v 1.169318 0.504534 -6.676248
v 1.169710 0.494291 -6.677483
v 1.170093 0.484046 -6.678693
v 1.170469 0.473797 -6.679878
v 1.170836 0.463545 -6.681037
v 1.171196 0.453290 -6.682171
v 1.171547 0.443032 -6.683280
v 1.171890 0.432770 -6.684363
v 1.172226 0.422506 -6.685421
v 1.172553 0.412240 -6.686453
v 1.172873 0.401970 -6.687460
v 1.173184 0.391698 -6.688442
v 1.173487 0.381423 -6.689398
v 1.173782 0.371146 -6.690329
v 1.174070 0.360866 -6.691234
v 1.174349 0.350583 -6.692114
v 1.174620 0.340299 -6.692968
v 1.174883 0.330012 -6.693797
v 1.175138 0.319723 -6.694601
v 1.175385 0.309431 -6.695379
v 1.175624 0.299138 -6.696132
v 1.175854 0.288842 -6.696859
v 1.176077 0.278545 -6.697560
v 1.176292 0.268246 -6.698236
v 1.176498 0.257944 -6.698887
v 1.176697 0.247641 -6.699512
v 1.176887 0.237337 -6.700112
v 1.169854 0.566201 -6.669619
v 1.172935 0.566481 -6.670867
v 1.176044 0.566753 -6.672047
v 1.179179 0.567016 -6.673157
v 1.182338 0.567271 -6.674198
v 1.185520 0.567518 -6.675169
v 1.188724 0.567756 -6.676070
v 1.191947 0.567985 -6.676899
v 1.195189 0.568205 -6.677658
v 1.198447 0.568416 -6.678344
v 1.177634 0.247680 -6.699916
v 1.178376 0.258024 -6.699690
v 1.179114 0.268370 -6.699432
v 1.179848 0.278716 -6.699143
v 1.180577 0.289063 -6.698823
v 1.181301 0.299411 -6.698472
v 1.182022 0.309760 -6.698089
v 1.182737 0.320110 -6.697675
v 1.183448 0.330460 -6.697230
v 1.184155 0.340810 -6.696754
v 1.184857 0.351161 -6.696247
v 1.185554 0.361512 -6.695708
v 1.186246 0.371863 -6.695138
v 1.186934 0.382214 -6.694537
v 1.187616 0.392565 -6.693904
v 1.188294 0.402916 -6.693240
v 1.188967 0.413266 -6.692545
v 1.189635 0.423617 -6.691818
v 1.190299 0.433966 -6.691060
v 1.190957 0.444315 -6.690270
v 1.191610 0.454664 -6.689450
v 1.192257 0.465011 -6.688597
v 1.192900 0.475358 -6.687713
v 1.193538 0.485703 -6.686798
v 1.194170 0.496047 -6.685852
v 1.194797 0.506391 -6.684874
v 1.195419 0.516732 -6.683864
v 1.196035 0.527072 -6.682823
v 1.196646 0.537411 -6.681750
v 1.197252 0.547748 -6.680646
v 1.197852 0.558083 -6.679511
v 1.177244 0.216722 -6.701235
v 1.177070 0.227030 -6.700686
v 1.177410 0.206413 -6.701758
v 1.177568 0.196102 -6.702256
v 1.177718 0.185789 -6.702728
v 1.177860 0.175475 -6.703175
v 1.177994 0.165160 -6.703596
v 1.178119 0.154844 -6.703992
v 1.178237 0.144526 -6.704362
v 1.178346 0.134208 -6.704707
v 1.178448 0.123888 -6.705026
v 1.178541 0.113567 -6.705320
v 1.178626 0.103246 -6.705588
v 1.178703 0.092924 -6.705831
v 1.178772 0.082601 -6.706048
v 1.178833 0.072277 -6.706239
v 1.178886 0.061953 -6.706405
v 1.178931 0.051628 -6.706546
v 1.178967 0.041303 -6.706661
v 1.178995 0.030978 -6.706750
v 1.179016 0.020652 -6.706814
v 1.179028 0.010326 -6.706852
v 1.179032 0.000000 -6.706865
v 1.185085 0.000000 -6.709332
v 1.191239 0.000000 -6.711532
v 1.197483 0.000000 -6.713463
v 1.203806 0.000000 -6.715119
v 1.210195 0.000000 -6.716499
v 1.216637 0.000000 -6.717599
v 1.223122 0.000000 -6.718417
v 1.229636 0.000000 -6.718952
v 1.236167 0.000000 -6.719203
v 1.242703 0.000000 -6.719169
v 1.201720 0.568618 -6.678958
v 1.205006 0.568811 -6.679500
v 1.208304 0.568994 -6.679969
v 1.211612 0.569168 -6.680366
v 1.214928 0.569333 -6.680689
v 1.218251 0.569488 -6.680939
v 1.221580 0.569633 -6.681115
v 1.224911 0.569769 -6.681218
v 1.228245 0.569895 -6.681248
v 1.231579 0.570011 -6.681204
v 1.242686 0.010398 -6.719157
v 1.242662 0.020796 -6.719119
v 1.242631 0.031193 -6.719057
v 1.242594 0.041591 -6.718969
v 1.242549 0.051988 -6.718856
v 1.242498 0.062384 -6.718718
v 1.242439 0.072780 -6.718555
v 1.242374 0.083176 -6.718367
v 1.242302 0.093571 -6.718153
v 1.242223 0.103965 -6.717915
v 1.242138 0.114358 -6.717651
v 1.242045 0.124751 -6.717362
v 1.241946 0.135142 -6.717048
v 1.241839 0.145533 -6.716709
v 1.241726 0.155923 -6.716345
v 1.241606 0.166312 -6.715955
v 1.241479 0.176699 -6.715541
v 1.241345 0.187086 -6.715101
v 1.241205 0.197471 -6.714636
v 1.241057 0.207855 -6.714146
v 1.240903 0.218237 -6.713631
v 1.240741 0.228618 -6.713091
v 1.240573 0.238997 -6.712526
v 1.240398 0.249375 -6.711935
v 1.240216 0.259752 -6.711320
v 1.240028 0.270126 -6.710679
v 1.239832 0.280499 -6.710014
v 1.239630 0.290870 -6.709323
v 1.239421 0.301240 -6.708607
v 1.239205 0.311607 -6.707866
v 1.238982 0.321973 -6.707100
v 1.238752 0.332336 -6.706309
v 1.238515 0.342698 -6.705493
v 1.238272 0.353057 -6.704652
v 1.238021 0.363414 -6.703785
v 1.237764 0.373769 -6.702894
v 1.237500 0.384122 -6.701978
v 1.237229 0.394472 -6.701036
v 1.236952 0.404820 -6.700070
v 1.236667 0.415166 -6.699078
v 1.236376 0.425509 -6.698061
v 1.236077 0.435849 -6.697020
v 1.235772 0.446187 -6.695953
v 1.235460 0.456522 -6.694861
v 1.235142 0.466855 -6.693745
v 1.234816 0.477184 -6.692603
v 1.234484 0.487511 -6.691436
v 1.234145 0.497834 -6.690245
v 1.233798 0.508155 -6.689028
v 1.233446 0.518472 -6.687786
v 1.233086 0.528787 -6.686520
v 1.232719 0.539098 -6.685228
v 1.232346 0.549405 -6.683912
v 1.231966 0.559710 -6.682570
v 1.255739 0.000000 -6.718247
v 1.249231 0.000000 -6.718850
v 1.262215 0.000000 -6.717361
v 1.268646 0.000000 -6.716194
v 1.275020 0.000000 -6.714748
v 1.281325 0.000000 -6.713026
v 1.287549 0.000000 -6.711031
v 1.293680 0.000000 -6.708766
v 1.299706 0.000000 -6.706237
v 1.305617 0.000000 -6.703447
v 1.234911 0.570117 -6.681086
v 1.238241 0.570213 -6.680895
v 1.241565 0.570299 -6.680631
v 1.244883 0.570376 -6.680293
v 1.248194 0.570442 -6.679882
v 1.251494 0.570498 -6.679399
v 1.254783 0.570543 -6.678842
v 1.258059 0.570579 -6.678214
v 1.261321 0.570605 -6.677513
v 1.264567 0.570620 -6.676741
v 1.267794 0.570625 -6.675897
v 1.271003 0.570620 -6.674983
v 1.274190 0.570605 -6.673998
v 1.277355 0.570579 -6.672943
v 1.280496 0.570543 -6.671818
v 1.283611 0.570498 -6.670625
v 1.286699 0.570442 -6.669364
v 1.289758 0.570376 -6.668034
v 1.292787 0.570299 -6.666638
v 1.295784 0.570213 -6.665176
v 1.298749 0.570117 -6.663647
v 1.305678 0.010402 -6.703402
v 1.305732 0.020803 -6.703332
v 1.305779 0.031204 -6.703237
v 1.305819 0.041604 -6.703117
v 1.305852 0.052005 -6.702972
v 1.305878 0.062404 -6.702801
v 1.305898 0.072804 -6.702605
v 1.305911 0.083202 -6.702384
v 1.305916 0.093600 -6.702138
v 1.305915 0.103997 -6.701867
v 1.305907 0.114394 -6.701570
v 1.305892 0.124789 -6.701249
v 1.305870 0.135184 -6.700902
v 1.305841 0.145577 -6.700530
v 1.305806 0.155970 -6.700132
v 1.305763 0.166361 -6.699710
v 1.305714 0.176752 -6.699262
v 1.305658 0.187140 -6.698790
v 1.305594 0.197528 -6.698292
v 1.305524 0.207914 -6.697769
v 1.305447 0.218299 -6.697221
v 1.305364 0.228682 -6.696647
v 1.305273 0.239064 -6.696049
v 1.305175 0.249444 -6.695425
v 1.305071 0.259823 -6.694776
v 1.304960 0.270199 -6.694102
v 1.304842 0.280574 -6.693403
v 1.304717 0.290947 -6.692679
v 1.304585 0.301319 -6.691930
v 1.304446 0.311688 -6.691156
v 1.304300 0.322055 -6.690356
v 1.304148 0.332420 -6.689532
v 1.303988 0.342784 -6.688682
v 1.303822 0.353144 -6.687807
v 1.303649 0.363503 -6.686907
v 1.303469 0.373860 -6.685982
v 1.303282 0.384214 -6.685032
v 1.303089 0.394566 -6.684057
v 1.302888 0.404915 -6.683057
v 1.302681 0.415262 -6.682031
v 1.302467 0.425606 -6.680981
v 1.302245 0.435947 -6.679906
v 1.302018 0.446286 -6.678805
v 1.301783 0.456622 -6.677680
v 1.301541 0.466956 -6.676529
v 1.301293 0.477286 -6.675353
v 1.301037 0.487613 -6.674153
v 1.300775 0.497937 -6.672927
v 1.300506 0.508259 -6.671676
v 1.300230 0.518577 -6.670401
v 1.299948 0.528891 -6.669100
v 1.299658 0.539203 -6.667774
v 1.299362 0.549511 -6.666424
v 1.299059 0.559816 -6.665048
v 1.317046 0.000000 -6.697109
v 1.311401 0.000000 -6.700402
v 1.322543 0.000000 -6.693572
v 1.327880 0.000000 -6.689800
v 1.333048 0.000000 -6.685799
v 1.338037 0.000000 -6.681576
v 1.342837 0.000000 -6.677140
v 1.347439 0.000000 -6.672499
v 1.351835 0.000000 -6.667662
v 1.356015 0.000000 -6.662638
v 1.359973 0.000000 -6.657437
v 1.359970 0.010326 -6.657424
v 1.359961 0.020652 -6.657385
v 1.359946 0.030978 -6.657319
v 1.359925 0.041303 -6.657228
v 1.359898 0.051628 -6.657110
v 1.359865 0.061953 -6.656967
v 1.359826 0.072277 -6.656797
v 1.359781 0.082601 -6.656601
v 1.359730 0.092924 -6.656379
v 1.359674 0.103246 -6.656131
v 1.359611 0.113567 -6.655857
v 1.359542 0.123888 -6.655556
v 1.359467 0.134208 -6.655230
v 1.359386 0.144526 -6.654877
v 1.359299 0.154844 -6.654499
v 1.359206 0.165160 -6.654094
v 1.359107 0.175475 -6.653663
v 1.359002 0.185789 -6.653207
v 1.358891 0.196102 -6.652724
v 1.358774 0.206413 -6.652215
v 1.358651 0.216722 -6.651680
v 1.358522 0.227030 -6.651119
v 1.301678 0.570011 -6.662054
v 1.304571 0.569895 -6.660397
v 1.307427 0.569769 -6.658677
v 1.310244 0.569633 -6.656895
v 1.313020 0.569488 -6.655050
v 1.315755 0.569333 -6.653146
v 1.318446 0.569168 -6.651181
v 1.321093 0.568994 -6.649158
v 1.323694 0.568811 -6.647078
v 1.326249 0.568618 -6.644940
v 1.357745 0.237376 -6.651411
v 1.356955 0.247723 -6.651674
v 1.356152 0.258071 -6.651907
v 1.355336 0.268421 -6.652111
v 1.354507 0.278772 -6.652285
v 1.353666 0.289124 -6.652430
v 1.352812 0.299476 -6.652544
v 1.351945 0.309830 -6.652629
v 1.351066 0.320184 -6.652684
v 1.350174 0.330539 -6.652709
v 1.349269 0.340894 -6.652704
v 1.348352 0.351250 -6.652669
v 1.347422 0.361606 -6.652604
v 1.346480 0.371963 -6.652509
v 1.345525 0.382319 -6.652384
v 1.344558 0.392675 -6.652229
v 1.343578 0.403032 -6.652043
v 1.342587 0.413388 -6.651828
v 1.341582 0.423743 -6.651582
v 1.340566 0.434098 -6.651306
v 1.339537 0.444453 -6.650999
v 1.338496 0.454807 -6.650662
v 1.337443 0.465160 -6.650295
v 1.336377 0.475512 -6.649897
v 1.335300 0.485863 -6.649468
v 1.334210 0.496212 -6.649010
v 1.333109 0.506561 -6.648520
v 1.331995 0.516908 -6.648000
v 1.330870 0.527253 -6.647450
v 1.329732 0.537597 -6.646868
v 1.328583 0.547939 -6.646256
v 1.327422 0.558280 -6.645614
v 1.358246 0.247641 -6.649918
v 1.358387 0.237337 -6.650531
v 1.358099 0.257944 -6.649279
v 1.357946 0.268246 -6.648613
v 1.357787 0.278545 -6.647922
v 1.357622 0.288842 -6.647205
v 1.357451 0.299138 -6.646461
v 1.357275 0.309431 -6.645692
v 1.357092 0.319723 -6.644896
v 1.356903 0.330012 -6.644075
v 1.356708 0.340299 -6.643227
v 1.356507 0.350583 -6.642353
v 1.356300 0.360866 -6.641454
v 1.356087 0.371146 -6.640528
v 1.355868 0.381423 -6.639577
v 1.355643 0.391698 -6.638599
v 1.355412 0.401970 -6.637596
v 1.355175 0.412240 -6.636566
v 1.354932 0.422506 -6.635511
v 1.354683 0.432770 -6.634429
v 1.354428 0.443032 -6.633322
v 1.354167 0.453290 -6.632189
v 1.353900 0.463545 -6.631029
v 1.353627 0.473797 -6.629844
v 1.353348 0.484046 -6.628633
v 1.353063 0.494291 -6.627396
v 1.352772 0.504534 -6.626133
v 1.352475 0.514772 -6.624844
v 1.352172 0.525008 -6.623530
v 1.351863 0.535240 -6.622189
v 1.351548 0.545468 -6.620823
v 1.351227 0.555693 -6.619431
v 1.350900 0.565914 -6.618012
v 1.328755 0.568416 -6.642747
v 1.331211 0.568205 -6.640500
v 1.333617 0.567985 -6.638199
v 1.335971 0.567756 -6.635846
v 1.338272 0.567518 -6.633442
v 1.340518 0.567271 -6.630988
v 1.342710 0.567016 -6.628485
v 1.344844 0.566753 -6.625935
v 1.346922 0.566481 -6.623339
v 1.348941 0.566201 -6.620697
f 1 2 3
f 1 4 2
f 1 5 4
f 1 6 5
f 1 7 6
f 1 8 7
f 1 9 8
f 1 10 9
f 1 11 10
f 1 12 11
f 1 13 12
f 1 14 13
f 1 15 14
f 1 16 15
f 1 17 16
f 1 18 17
f 1 19 18
f 1 20 19
f 1 21 20
f 1 22 21
f 1 23 22
f 1 24 23
f 1 25 24
f 1 26 25
f 1 27 26
f 1 28 27
f 1 29 28
f 1 30 29
f 1 31 30
f 1 32 31
f 1 33 32
f 1 34 35
f 1 35 36
f 1 36 37
f 1 37 38
f 1 38 39
f 1 39 40
f 1 40 41
f 1 41 42
f 1 42 43
f 1 44 33
f 1 45 44
f 1 46 45
f 1 47 46
f 1 48 47
f 1 49 48
f 1 50 49
f 1 51 50
f 1 52 51
f 1 53 52
f 1 54 53
f 1 55 54
f 1 56 55
f 1 57 56
f 1 58 57
f 1 59 58
f 1 60 59
f 1 61 60
f 1 62 61
f 1 63 62
f 1 64 63
f 1 65 64
f 1 66 65
f 1 67 66
f 1 68 67
f 1 69 68
f 1 70 69
f 1 71 70
f 1 72 71
f 1 73 72
f 1 74 73
f 1 43 74
f 33 75 76
f 33 77 75
f 33 78 77
f 33 79 78
f 33 80 79
f 33 81 80
f 33 82 81
f 33 83 82
f 33 84 83
f 33 85 84
f 33 86 85
f 33 87 86
f 33 88 87
f 33 89 88
f 33 90 89
f 33 91 90
f 33 92 91
f 33 93 92
f 33 94 93
f 33 95 94
f 33 96 95
f 33 97 96
f 33 98 97
f 33 99 98
f 33 100 99
f 33 101 100
f 33 102 101
f 33 103 102
f 33 104 103
f 33 105 104
f 33 106 105
f 33 107 106
f 43 108 109
f 43 109 110
f 43 110 111
f 43 111 112
f 43 112 113
f 43 113 114
f 43 114 115
f 43 115 116
f 43 116 117
f 33 118 107
f 33 119 118
f 33 120 119
f 33 121 120
f 33 122 121
f 33 123 122
f 33 124 123
f 33 125 124
f 33 126 125
f 33 127 126
f 33 128 127
f 33 129 128
f 33 130 129
f 33 131 130
f 33 132 131
f 33 133 132
f 33 134 133
f 33 135 134
f 33 136 135
f 33 137 136
f 33 138 137
f 33 139 138
f 33 140 139
f 33 44 140
f 44 141 140
f 44 45 141
f 45 142 141
f 45 46 142
f 46 143 142
f 46 47 143
f 47 144 143
f 47 48 144
f 48 145 144
f 48 49 145
f 49 146 145
f 49 50 146
f 50 147 146
f 50 51 147
f 51 148 147
f 51 52 148
f 52 149 148
f 52 53 149
f 53 150 149
f 53 54 150
f 54 151 150
f 54 55 151
f 55 152 151
f 55 56 152
f 56 153 152
f 56 57 153
f 57 154 153
f 57 58 154
f 58 155 154
f 58 59 155
f 59 156 155
f 59 60 156
f 60 157 156
f 60 61 157
f 61 158 157
f 61 62 158
f 62 159 158
f 62 63 159
f 63 160 159
f 63 64 160
f 64 161 160
f 64 65 161
f 65 162 161
f 65 66 162
f 66 163 162
f 66 67 163
f 67 164 163
f 67 68 164
f 68 165 164
f 68 69 165
f 69 166 165
f 69 70 166
f 70 167 166
f 70 71 167
f 71 168 167
f 71 72 168
f 72 169 168
f 72 73 169
f 73 170 169
f 73 74 170
f 74 171 170
f 74 43 171
f 43 117 171
f 107 172 173
f 107 174 172
f 107 175 174
f 107 176 175
f 107 177 176
f 107 178 177
f 107 179 178
f 107 180 179
f 107 181 180
f 117 182 183
f 117 183 184
f 117 184 185
f 117 185 186
f 117 186 187
f 117 187 188
f 117 188 189
f 117 189 190
f 117 190 191
f 117 191 192
f 117 192 193
f 117 193 194
f 117 194 195
f 117 195 196
f 117 196 197
f 117 197 198
f 117 198 199
f 117 199 200
f 117 200 201
f 117 201 202
f 107 118 181
f 118 203 181
f 118 119 203
f 119 204 203
f 119 120 204
f 120 205 204
f 120 121 205
f 121 206 205
f 121 122 206
f 122 207 206
f 122 123 207
f 123 208 207
f 123 124 208
f 124 209 208
f 124 125 209
f 125 210 209
f 125 126 210
f 126 211 210
f 126 127 211
f 127 212 211
f 127 128 212
f 128 213 212
f 128 129 213
f 129 214 213
f 129 130 214
f 130 215 214
f 130 131 215
f 131 216 215
f 131 132 216
f 132 217 216
f 132 133 217
f 133 218 217
f 133 134 218
f 134 219 218
f 134 135 219
f 135 220 219
f 135 136 220
f 136 221 220
f 136 137 221
f 137 222 221
f 137 138 222
f 138 223 222
f 138 139 223
f 139 224 223
f 139 140 224
f 140 225 224
f 140 141 225
f 141 226 225
f 141 142 226
f 142 227 226
f 142 143 227
f 143 228 227
f 143 144 228
f 144 229 228
f 144 145 229
f 145 230 229
f 145 146 230
f 146 231 230
f 146 147 231
f 147 232 231
f 147 148 232
f 148 233 232
f 148 149 233
f 149 234 233
f 149 150 234
f 150 235 234
f 150 151 235
f 151 236 235
f 151 152 236
f 152 237 236
f 152 153 237
f 153 238 237
f 153 154 238
f 154 239 238
f 154 155 239
f 155 240 239
f 155 156 240
f 156 241 240
f 156 157 241
f 157 242 241
f 157 158 242
f 158 243 242
f 158 159 243
f 159 244 243
f 159 160 244
f 160 245 244
f 160 161 245
f 161 246 245
f 161 162 246
f 162 247 246
f 162 163 247
f 163 248 247
f 163 164 248
f 164 249 248
f 164 165 249
f 165 250 249
f 165 166 250
f 166 251 250
f 166 167 251
f 167 252 251
f 167 168 252
f 168 253 252
f 168 169 253
f 169 254 253
f 169 170 254
f 170 255 254
f 170 171 255
f 171 256 255
f 171 117 256
f 117 202 256
f 181 257 258
f 181 259 257
f 181 260 259
f 181 261 260
f 181 262 261
f 181 263 262
f 181 264 263
f 181 265 264
f 181 266 265
f 181 267 266
f 181 268 267
f 181 269 268
f 181 270 269
f 181 271 270
f 181 272 271
f 181 273 272
f 181 274 273
f 181 275 274
f 181 276 275
f 181 277 276
f 181 278 277
f 181 279 278
f 181 280 279
f 181 281 280
f 181 282 281
f 181 283 282
f 181 284 283
f 181 285 284
f 181 286 285
f 181 287 286
f 181 288 287
f 181 289 288
f 202 290 291
f 202 291 292
f 202 292 293
f 202 293 294
f 202 294 295
f 202 295 296
f 202 296 297
f 202 297 298
f 202 298 299
f 181 203 289
f 203 204 289
f 204 205 289
f 205 206 289
f 206 207 289
f 207 208 289
f 208 209 289
f 209 210 289
f 210 211 289
f 211 212 289
f 212 213 289
f 213 214 289
f 214 215 289
f 215 216 289
f 216 217 289
f 217 218 289
f 218 219 289
f 219 220 289
f 220 221 289
f 221 222 289
f 222 223 289
f 223 224 289
f 224 225 289
f 225 300 289
f 225 226 300
f 226 301 300
f 226 227 301
f 227 302 301
f 227 228 302
f 228 303 302
f 228 229 303
f 229 304 303
f 229 230 304
f 230 305 304
f 230 231 305
f 231 306 305
f 231 232 306
f 232 307 306
f 232 233 307
f 233 308 307
f 233 234 308
f 234 309 308
f 234 235 309
f 235 310 309
f 235 236 310
f 236 311 310
f 236 237 311
f 237 312 311
f 237 238 312
f 238 313 312
f 238 239 313
f 239 314 313
f 239 240 314
f 240 315 314
f 240 241 315
f 241 316 315
f 241 242 316
f 242 317 316
f 242 243 317
f 243 318 317
f 243 244 318
f 244 319 318
f 244 245 319
f 245 320 319
f 245 246 320
f 246 321 320
f 246 247 321
f 247 322 321
f 247 248 322
f 248 323 322
f 248 249 323
f 249 324 323
f 249 250 324
f 250 325 324
f 250 251 325
f 251 326 325
f 251 252 326
f 252 327 326
f 252 253 327
f 253 328 327
f 253 254 328
f 254 329 328
f 254 255 329
f 255 330 329
f 255 256 330
f 256 331 330
f 256 202 331
f 202 299 331
f 289 332 333
f 289 334 332
f 289 335 334
f 289 336 335
f 289 337 336
f 289 338 337
f 289 339 338
f 289 340 339
f 289 341 340
f 289 342 341
f 289 343 342
f 289 344 343
f 289 345 344
f 289 346 345
f 289 347 346
f 289 348 347
f 289 349 348
f 289 350 349
f 289 351 350
f 289 352 351
f 289 353 352
f 289 354 353
f 289 355 354
f 289 356 355
f 289 357 356
f 289 358 357
f 289 359 358
f 289 360 359
f 289 361 360
f 289 362 361
f 289 363 362
f 289 364 363
f 299 365 366
f 299 366 367
f 299 367 368
f 299 368 369
f 299 369 370
f 299 370 371
f 299 371 372
f 299 372 373
f 299 373 374
f 299 374 364
f 289 300 364
f 300 301 364
f 301 302 364
f 302 303 364
f 303 304 364
f 304 305 364
f 305 306 364
f 306 307 364
f 307 308 364
f 308 309 364
f 309 310 364
f 310 311 364
f 311 312 364
f 312 313 364
f 313 314 364
f 314 315 364
f 315 316 364
f 316 317 364
f 317 318 364
f 318 319 364
f 319 320 364
f 320 321 364
f 321 322 364
f 322 323 364
f 323 324 364
f 324 325 364
f 325 326 364
f 326 327 364
f 327 328 364
f 328 329 364
f 329 330 364
f 330 331 364
f 331 299 364
