v 0.077614 -0.670523 -0.036213
v 0.076877 -0.666340 -0.025762
v 0.076850 -0.666189 -0.025607
v 0.076903 -0.666488 -0.025919
v 0.076928 -0.666634 -0.026077
v 0.076954 -0.666777 -0.026237
v 0.076978 -0.666917 -0.026399
v 0.077003 -0.667055 -0.026562
v 0.077027 -0.667190 -0.026727
v 0.077050 -0.667322 -0.026893
v 0.077073 -0.667452 -0.027061
v 0.077095 -0.667579 -0.027231
v 0.077117 -0.667704 -0.027402
v 0.077139 -0.667826 -0.027575
v 0.077160 -0.667945 -0.027750
v 0.077180 -0.668062 -0.027927
v 0.077200 -0.668176 -0.028105
v 0.077220 -0.668288 -0.028285
v 0.077239 -0.668398 -0.028467
v 0.077258 -0.668505 -0.028650
v 0.077277 -0.668609 -0.028836
v 0.077295 -0.668711 -0.029023
v 0.077312 -0.668811 -0.029212
v 0.077329 -0.668908 -0.029403
v 0.077346 -0.669002 -0.029595
v 0.077362 -0.669094 -0.029788
v 0.077378 -0.669183 -0.029983
v 0.077393 -0.669270 -0.030180
v 0.077408 -0.669353 -0.030377
v 0.077422 -0.669435 -0.030576
v 0.077436 -0.669513 -0.030776
v 0.077449 -0.669589 -0.030977
v 0.077462 -0.669662 -0.031178
v 0.077475 -0.669732 -0.031381
v 0.077487 -0.669799 -0.031585
v 0.077498 -0.669863 -0.031789
v 0.077509 -0.669924 -0.031994
v 0.077519 -0.669983 -0.032199
v 0.077529 -0.670038 -0.032405
v 0.077538 -0.670091 -0.032611
v 0.077547 -0.670140 -0.032818
v 0.077555 -0.670186 -0.033026
v 0.077563 -0.670230 -0.033233
v 0.077570 -0.670270 -0.033442
v 0.077576 -0.670308 -0.033651
v 0.077582 -0.670342 -0.033860
v 0.077588 -0.670374 -0.034071
v 0.077593 -0.670402 -0.034282
v 0.077597 -0.670427 -0.034493
v 0.077601 -0.670450 -0.034705
v 0.077605 -0.670469 -0.034918
v 0.077608 -0.670486 -0.035132
v 0.077610 -0.670499 -0.035347
v 0.077612 -0.670510 -0.035562
v 0.077613 -0.670517 -0.035778
v 0.077614 -0.670521 -0.035995
v 0.072627 -0.671081 -0.036213
v 0.067636 -0.671603 -0.036213
v 0.062641 -0.672087 -0.036213
v 0.057642 -0.672534 -0.036213
v 0.052640 -0.672944 -0.036213
v 0.047636 -0.673317 -0.036213
v 0.042629 -0.673653 -0.036213
v 0.037619 -0.673951 -0.036213
v 0.032607 -0.674212 -0.036213
v 0.027594 -0.674436 -0.036213
v 0.022579 -0.674622 -0.036213
v 0.017563 -0.674771 -0.036213
v 0.012545 -0.674883 -0.036213
v 0.007528 -0.674958 -0.036213
v 0.002509 -0.674995 -0.036213
v -0.002509 -0.674995 -0.036213
v -0.007528 -0.674958 -0.036213
v -0.012545 -0.674883 -0.036213
v -0.017563 -0.674771 -0.036213
v -0.022579 -0.674622 -0.036213
v -0.027594 -0.674436 -0.036213
v -0.032607 -0.674212 -0.036213
v -0.037619 -0.673951 -0.036213
v -0.042629 -0.673653 -0.036213
v -0.047636 -0.673317 -0.036213
v -0.052640 -0.672944 -0.036213
v -0.057642 -0.672534 -0.036213
v -0.062641 -0.672087 -0.036213
v -0.067636 -0.671603 -0.036213
v -0.072627 -0.671081 -0.036213
v -0.077614 -0.670523 -0.036213
v -0.077614 -0.670521 -0.035995
v -0.077613 -0.670517 -0.035778
v -0.077612 -0.670510 -0.035562
v -0.077610 -0.670499 -0.035347
v -0.077608 -0.670486 -0.035132
v -0.077605 -0.670469 -0.034918
v -0.077601 -0.670450 -0.034705
v -0.077597 -0.670427 -0.034493
v -0.077593 -0.670402 -0.034282
v -0.077588 -0.670374 -0.034071
v -0.077582 -0.670342 -0.033860
v -0.077576 -0.670308 -0.033651
v -0.077570 -0.670270 -0.033442
v -0.077563 -0.670230 -0.033233
v -0.077555 -0.670186 -0.033026
v -0.077547 -0.670140 -0.032818
v -0.077538 -0.670091 -0.032611
v -0.077529 -0.670038 -0.032405
v -0.077519 -0.669983 -0.032199
v -0.077509 -0.669924 -0.031994
v -0.077498 -0.669863 -0.031789
v -0.077487 -0.669799 -0.031585
v -0.077475 -0.669732 -0.031381
v -0.077462 -0.669662 -0.031178
v -0.077449 -0.669589 -0.030977
v -0.077436 -0.669513 -0.030776
v -0.077422 -0.669435 -0.030576
v -0.077408 -0.669353 -0.030377
v -0.077393 -0.669270 -0.030180
v -0.077378 -0.669183 -0.029983
v -0.077362 -0.669094 -0.029788
v -0.077346 -0.669002 -0.029595
v -0.077329 -0.668908 -0.029403
v -0.077312 -0.668811 -0.029212
v -0.077295 -0.668711 -0.029023
v -0.077277 -0.668609 -0.028836
v -0.077258 -0.668505 -0.028650
v -0.077239 -0.668398 -0.028467
v -0.077220 -0.668288 -0.028285
v -0.077200 -0.668176 -0.028105
v -0.077180 -0.668062 -0.027927
v -0.077160 -0.667945 -0.027750
v -0.077139 -0.667826 -0.027575
v -0.077117 -0.667704 -0.027402
v -0.077095 -0.667579 -0.027231
v -0.077073 -0.667452 -0.027061
v -0.077050 -0.667322 -0.026893
v -0.077027 -0.667190 -0.026727
v -0.077003 -0.667055 -0.026562
v -0.076978 -0.666917 -0.026399
v -0.076954 -0.666777 -0.026237
v -0.076928 -0.666634 -0.026077
v -0.076903 -0.666488 -0.025919
v -0.076877 -0.666340 -0.025762
v -0.076850 -0.666189 -0.025607
f 1 2 3
f 1 4 2
f 1 5 4
f 1 6 5
f 1 7 6
f 1 8 7
f 1 9 8
f 1 10 9
f 1 11 10
f 1 12 11
f 1 13 12
f 1 14 13
f 1 15 14
f 1 16 15
f 1 17 16
f 1 18 17
f 1 19 18
f 1 20 19
f 1 21 20
f 1 22 21
f 1 23 22
f 1 24 23
f 1 25 24
f 1 26 25
f 1 27 26
f 1 28 27
f 1 29 28
f 1 30 29
f 1 31 30
f 1 32 31
f 1 33 32
f 1 34 33
f 1 35 34
f 1 36 35
f 1 37 36
f 1 38 37
f 1 39 38
f 1 40 39
f 1 41 40
f 1 42 41
f 1 43 42
f 1 44 43
f 1 45 44
f 1 46 45
f 1 47 46
f 1 48 47
f 1 49 48
f 1 50 49
f 1 51 50
f 1 52 51
f 1 53 52
f 1 54 53
f 1 55 54
f 1 56 55
f 1 58 57
f 1 59 58
f 1 60 59
f 1 61 60
f 1 62 61
f 1 63 62
f 1 64 63
f 1 65 64
f 1 66 65
f 1 67 66
f 1 68 67
f 1 69 68
f 1 70 69
f 1 71 70
f 1 72 71
f 1 73 72
f 1 74 73
f 1 75 74
f 1 76 75
f 1 77 76
f 1 78 77
f 1 79 78
f 1 80 79
f 1 81 80
f 1 82 81
f 1 83 82
f 1 84 83
f 1 85 84
f 1 86 85
f 1 87 86
f 1 88 87
f 1 89 88
f 1 90 89
f 1 91 90
f 1 92 91
f 1 93 92
f 1 94 93
f 1 95 94
f 1 96 95
f 1 97 96
f 1 98 97
f 1 99 98
f 1 100 99
f 1 101 100
f 1 102 101
f 1 103 102
f 1 104 103
f 1 105 104
f 1 106 105
f 1 107 106
f 1 108 107
f 1 109 108
f 1 110 109
f 1 111 110
f 1 112 111
f 1 113 112
f 1 114 113
f 1 115 114
f 1 116 115
f 1 117 116
f 1 118 117
f 1 119 118
f 1 120 119
f 1 121 120
f 1 122 121
f 1 123 122
f 1 124 123
f 1 125 124
f 1 126 125
f 1 127 126
f 1 128 127
f 1 129 128
f 1 130 129
f 1 131 130
f 1 132 131
f 1 133 132
f 1 134 133
f 1 135 134
f 1 136 135
f 1 137 136
f 1 138 137
f 1 139 138
f 1 140 139
f 1 141 140
f 1 142 141
f 87 142 86
f 86 142 85
f 85 142 84
f 84 142 83
f 83 142 82
f 82 142 81
f 81 142 80
f 80 142 79
f 79 142 78
f 78 142 77
f 77 142 76
f 76 142 75
f 75 142 74
f 74 142 73
f 73 142 72
f 72 142 71
f 71 142 70
f 70 142 69
f 69 142 68
f 68 142 67
f 67 142 66
f 66 142 65
f 65 142 64
f 64 142 63
f 63 142 62
f 62 142 61
f 61 142 60
f 60 142 59
f 59 142 58
f 58 142 57
f 57 142 1
