v -0.540915 0.010000 0.395361
v -0.540915 0.220000 0.395361
v -0.540797 0.220000 0.406998
v -0.571497 0.220000 0.450842
v -0.571497 0.000000 0.450842
v -0.536670 0.000000 0.401105
v -0.536670 0.010000 0.401105
v -0.540797 0.016837 0.406998
v -0.540663 0.016611 0.406801
v -0.540533 0.016388 0.406602
v -0.540409 0.016168 0.406400
v -0.540290 0.015951 0.406197
v -0.540177 0.015737 0.405991
v -0.540069 0.015525 0.405784
v -0.539966 0.015317 0.405574
v -0.539868 0.015113 0.405363
v -0.539775 0.014911 0.405151
v -0.539688 0.014712 0.404937
v -0.539606 0.014517 0.404721
v -0.539529 0.014325 0.404504
v -0.539457 0.014137 0.404286
v -0.539390 0.013952 0.404067
v -0.539328 0.013770 0.403846
v -0.539272 0.013592 0.403625
v -0.539220 0.013418 0.403402
v -0.539174 0.013247 0.403179
v -0.539133 0.013080 0.402955
v -0.539097 0.012917 0.402730
v -0.539066 0.012757 0.402505
v -0.539040 0.012602 0.402279
v -0.539020 0.012450 0.402053
v -0.539004 0.012303 0.401827
v -0.538994 0.012159 0.401601
v -0.538989 0.012020 0.401375
v -0.538989 0.011885 0.401148
v -0.538995 0.011754 0.400922
v -0.539005 0.011628 0.400696
v -0.539021 0.011506 0.400471
v -0.539041 0.011388 0.400246
v -0.539067 0.011275 0.400021
v -0.539098 0.011167 0.399798
v -0.539133 0.011063 0.399575
v -0.539174 0.010964 0.399354
v -0.539219 0.010869 0.399134
v -0.539269 0.010779 0.398916
v -0.539324 0.010694 0.398699
v -0.539383 0.010614 0.398484
v -0.539447 0.010539 0.398270
v -0.539516 0.010469 0.398059
v -0.539589 0.010403 0.397850
v -0.539666 0.010343 0.397643
v -0.539748 0.010288 0.397439
v -0.539834 0.010237 0.397237
v -0.539925 0.010192 0.397037
v -0.540019 0.010151 0.396840
v -0.540118 0.010116 0.396645
v -0.540221 0.010085 0.396454
v -0.540327 0.010059 0.396264
v -0.540437 0.010038 0.396078
v -0.540551 0.010021 0.395894
v -0.540669 0.010009 0.395714
v -0.540790 0.010002 0.395536
f 62 1 2
f 62 2 3
f 62 3 4
f 5 6 7
f 5 7 8
f 4 5 8
f 62 4 8
f 62 8 9
f 62 9 10
f 62 10 11
f 62 11 12
f 62 12 13
f 62 13 14
f 62 14 15
f 62 15 16
f 62 16 17
f 62 17 18
f 62 18 19
f 62 19 20
f 62 20 21
f 62 21 22
f 62 22 23
f 62 23 24
f 62 24 25
f 62 25 26
f 62 26 27
f 62 27 28
f 62 28 29
f 62 29 30
f 62 30 31
f 62 31 32
f 62 32 33
f 62 33 34
f 62 34 35
f 62 35 36
f 62 36 37
f 62 37 38
f 62 38 39
f 62 39 40
f 62 40 41
f 62 41 42
f 62 42 43
f 62 43 44
f 62 44 45
f 62 45 46
f 62 46 47
f 62 47 48
f 62 48 49
f 62 49 50
f 62 50 51
f 62 51 52
f 62 52 53
f 62 53 54
f 62 54 55
f 62 55 56
f 62 56 57
f 62 57 58
f 62 58 59
f 62 59 60
f 60 61 62
