v 0.125000 0.225000 -2.880000
v 0.124359 0.225000 -2.867354
v 0.122441 0.225000 -2.854838
v 0.119267 0.225000 -2.842580
v 0.114870 0.225000 -2.830706
v 0.109293 0.225000 -2.819337
v 0.102595 0.225000 -2.808591
v 0.094845 0.225000 -2.798578
v 0.086121 0.225000 -2.789401
v 0.076513 0.225000 -2.781153
v 0.066121 0.225000 -2.773919
v 0.055049 0.225000 -2.767774
v 0.043413 0.225000 -2.762781
v 0.031332 0.225000 -2.758990
v 0.018928 0.225000 -2.756441
v 0.006331 0.225000 -2.755160
v -0.006331 0.225000 -2.755160
v -0.018928 0.225000 -2.756441
v -0.031332 0.225000 -2.758990
v -0.043413 0.225000 -2.762781
v -0.055049 0.225000 -2.767774
v -0.066121 0.225000 -2.773919
v -0.076513 0.225000 -2.781153
v -0.086121 0.225000 -2.789401
v -0.094845 0.225000 -2.798578
v -0.102595 0.225000 -2.808591
v -0.109293 0.225000 -2.819337
v -0.114870 0.225000 -2.830706
v -0.119267 0.225000 -2.842580
v -0.122441 0.225000 -2.854838
v -0.124359 0.225000 -2.867354
v -0.125000 0.225000 -2.880000
v -0.124359 0.225000 -2.892646
v -0.122441 0.225000 -2.905162
v -0.119267 0.225000 -2.917420
v -0.114870 0.225000 -2.929294
v -0.109293 0.225000 -2.940663
v -0.102595 0.225000 -2.951409
v -0.094845 0.225000 -2.961422
v -0.086121 0.225000 -2.970599
v -0.076513 0.225000 -2.978847
v -0.066121 0.225000 -2.986081
v -0.055049 0.225000 -2.992226
v -0.043413 0.225000 -2.997219
v -0.031332 0.225000 -3.001010
v -0.018928 0.225000 -3.003559
v -0.006331 0.225000 -3.004840
v 0.006331 0.225000 -3.004840
v 0.018928 0.225000 -3.003559
v 0.031332 0.225000 -3.001010
v 0.043413 0.225000 -2.997219
v 0.055049 0.225000 -2.992226
v 0.066121 0.225000 -2.986081
v 0.076513 0.225000 -2.978847
v 0.086121 0.225000 -2.970599
v 0.094845 0.225000 -2.961422
v 0.102595 0.225000 -2.951409
v 0.109293 0.225000 -2.940663
v 0.114870 0.225000 -2.929294
v 0.119267 0.225000 -2.917420
v 0.122441 0.225000 -2.905162
v 0.124359 0.225000 -2.892646
f 1 3 2
f 1 4 3
f 1 5 4
f 1 6 5
f 1 7 6
f 1 8 7
f 1 9 8
f 1 10 9
f 1 11 10
f 1 12 11
f 1 13 12
f 1 14 13
f 1 15 14
f 1 16 15
f 1 17 16
f 1 18 17
f 1 19 18
f 1 20 19
f 1 21 20
f 1 22 21
f 1 23 22
f 1 24 23
f 1 25 24
f 1 26 25
f 1 27 26
f 1 28 27
f 1 29 28
f 1 30 29
f 1 31 30
f 1 32 31
f 1 33 32
f 1 34 33
f 1 35 34
f 1 36 35
f 1 37 36
f 1 38 37
f 1 39 38
f 1 40 39
f 1 41 40
f 1 42 41
f 1 43 42
f 1 44 43
f 1 45 44
f 1 46 45
f 1 47 46
f 1 48 47
f 1 49 48
f 1 50 49
f 1 51 50
f 1 52 51
f 1 53 52
f 1 54 53
f 1 55 54
f 1 56 55
f 1 57 56
f 1 58 57
f 1 59 58
f 1 60 59
f 1 61 60
f 1 62 61
