v 1.532370 0.180000 0.599289
v 1.549624 0.180000 0.597160
v 1.566646 0.180000 0.593628
v 1.583323 0.180000 0.588717
v 1.599542 0.180000 0.582459
v 1.615196 0.180000 0.574895
v 1.630179 0.180000 0.566078
v 1.644390 0.180000 0.556066
v 1.657736 0.180000 0.544925
v 1.670127 0.180000 0.532730
v 1.681479 0.180000 0.519564
v 1.691717 0.180000 0.505514
v 1.700773 0.180000 0.490673
v 1.708585 0.180000 0.475143
v 1.715101 0.180000 0.459025
v 1.720278 0.180000 0.442429
v 1.724081 0.180000 0.425466
v 1.726485 0.180000 0.408248
v 1.727473 0.180000 0.390891
v 1.727039 0.180000 0.373512
v 1.725186 0.180000 0.356226
v 1.721926 0.180000 0.339150
v 1.717282 0.180000 0.322397
v 1.711283 0.180000 0.306080
v 1.703971 0.180000 0.290308
v 1.695393 0.180000 0.275186
v 1.685609 0.180000 0.260816
v 1.674683 0.180000 0.247294
v 1.662687 0.180000 0.234710
v 1.649704 0.180000 0.223149
v 1.635819 0.180000 0.212688
v 1.159228 0.180000 -0.116701
v 1.159981 0.180000 -0.114598
v 1.160734 0.180000 -0.112494
v 1.161488 0.180000 -0.110390
v 1.162241 0.180000 -0.108285
v 1.162995 0.180000 -0.106179
v 1.163748 0.180000 -0.104072
v 1.164502 0.180000 -0.101965
v 1.165256 0.180000 -0.099857
v 1.166010 0.180000 -0.097749
v 1.166764 0.180000 -0.095639
v 1.167518 0.180000 -0.093529
v 1.168272 0.180000 -0.091418
v 1.169027 0.180000 -0.089307
v 1.169781 0.180000 -0.087195
v 1.170536 0.180000 -0.085082
v 1.171291 0.180000 -0.082969
v 1.172046 0.180000 -0.080854
v 1.172800 0.180000 -0.078740
v 1.173556 0.180000 -0.076624
v 1.174311 0.180000 -0.074508
v 1.175066 0.180000 -0.072391
v 1.175821 0.180000 -0.070273
v 1.176577 0.180000 -0.068155
v 1.177333 0.180000 -0.066036
v 1.178088 0.180000 -0.063916
v 1.178844 0.180000 -0.061795
v 1.179600 0.180000 -0.059674
v 1.180356 0.180000 -0.057552
v 1.181112 0.180000 -0.055430
v 1.181869 0.180000 -0.053307
v 1.182625 0.180000 -0.051183
v 1.183382 0.180000 -0.049058
v 1.184138 0.180000 -0.046933
v 1.184895 0.180000 -0.044807
v 1.185652 0.180000 -0.042680
v 1.186409 0.180000 -0.040553
v 1.187166 0.180000 -0.038425
v 1.187923 0.180000 -0.036296
v 1.188681 0.180000 -0.034166
v 1.189438 0.180000 -0.032036
v 1.190196 0.180000 -0.029905
v 1.190953 0.180000 -0.027774
v 1.191711 0.180000 -0.025641
v 1.192469 0.180000 -0.023508
v 1.193227 0.180000 -0.021375
v 1.193985 0.180000 -0.019240
v 1.194744 0.180000 -0.017105
v 1.195502 0.180000 -0.014970
v 1.196261 0.180000 -0.012833
v 1.197019 0.180000 -0.010696
v 1.197778 0.180000 -0.008558
v 1.198537 0.180000 -0.006420
v 1.199296 0.180000 -0.004281
v 1.200055 0.180000 -0.002141
v 1.200814 0.180000 -0.000000
v 1.207163 0.180000 0.009683
v 1.213386 0.180000 0.019422
v 1.219483 0.180000 0.029216
v 1.225457 0.180000 0.039067
v 1.231307 0.180000 0.048975
v 1.237033 0.180000 0.058941
v 1.242638 0.180000 0.068964
v 1.248120 0.180000 0.079045
v 1.253480 0.180000 0.089186
v 1.258720 0.180000 0.099385
v 1.263840 0.180000 0.109645
v 1.268840 0.180000 0.119965
v 1.273722 0.180000 0.130346
v 1.278484 0.180000 0.140787
v 1.283129 0.180000 0.151290
v 1.287654 0.180000 0.161853
v 1.292058 0.180000 0.172472
v 1.296341 0.180000 0.183147
v 1.300502 0.180000 0.193876
v 1.304539 0.180000 0.204656
v 1.308451 0.180000 0.215485
v 1.312237 0.180000 0.226363
v 1.315897 0.180000 0.237286
v 1.319428 0.180000 0.248253
v 1.322831 0.180000 0.259262
v 1.326103 0.180000 0.270311
v 1.329244 0.180000 0.281399
v 1.332254 0.180000 0.292522
v 1.335130 0.180000 0.303680
v 1.337874 0.180000 0.314870
v 1.340484 0.180000 0.326089
v 1.342962 0.180000 0.337337
v 1.345307 0.180000 0.348610
v 1.347520 0.180000 0.359907
v 1.349599 0.180000 0.371225
v 1.351546 0.180000 0.382562
v 1.353360 0.180000 0.393916
v 1.355041 0.180000 0.405285
v 1.356589 0.180000 0.416667
v 1.358004 0.180000 0.428060
v 1.359286 0.180000 0.439461
v 1.360435 0.180000 0.450869
v 1.361452 0.180000 0.462283
v 1.362334 0.180000 0.473704
v 1.363084 0.180000 0.485132
v 1.363699 0.180000 0.496570
v 1.364180 0.180000 0.508016
v 1.364527 0.180000 0.519472
v 1.364739 0.180000 0.530939
v 1.364816 0.180000 0.542417
v 1.364757 0.180000 0.553907
v 1.364564 0.180000 0.565410
v 1.364234 0.180000 0.576925
v 1.363769 0.180000 0.588455
v 1.363167 0.180000 0.600000
v 1.515000 0.180000 0.600000
v 1.619461 0.180000 0.398123
v 1.617851 0.180000 0.408636
v 1.615185 0.180000 0.418933
v 1.611491 0.180000 0.428907
v 1.606806 0.180000 0.438457
v 1.601180 0.180000 0.447483
v 1.594670 0.180000 0.455894
v 1.587342 0.180000 0.463603
v 1.579271 0.180000 0.470531
v 1.570541 0.180000 0.476608
v 1.561241 0.180000 0.481769
v 1.551467 0.180000 0.485964
v 1.541319 0.180000 0.489148
v 1.530900 0.180000 0.491289
v 1.520318 0.180000 0.492365
v 1.509682 0.180000 0.492365
v 1.499100 0.180000 0.491289
v 1.488681 0.180000 0.489148
v 1.478533 0.180000 0.485964
v 1.468759 0.180000 0.481769
v 1.459459 0.180000 0.476608
v 1.450729 0.180000 0.470531
v 1.442658 0.180000 0.463603
v 1.435330 0.180000 0.455894
v 1.428820 0.180000 0.447483
v 1.423194 0.180000 0.438457
v 1.418509 0.180000 0.428907
v 1.414815 0.180000 0.418933
v 1.412149 0.180000 0.408636
v 1.410539 0.180000 0.398123
v 1.410000 0.180000 0.387500
v 1.410539 0.180000 0.376877
v 1.412149 0.180000 0.366364
v 1.414815 0.180000 0.356067
v 1.418509 0.180000 0.346093
v 1.423194 0.180000 0.336543
v 1.428820 0.180000 0.327517
v 1.435330 0.180000 0.319106
v 1.442658 0.180000 0.311397
v 1.450729 0.180000 0.304469
v 1.459459 0.180000 0.298392
v 1.468759 0.180000 0.293231
v 1.478533 0.180000 0.289036
v 1.488681 0.180000 0.285852
v 1.499100 0.180000 0.283711
v 1.509682 0.180000 0.282635
v 1.520318 0.180000 0.282635
v 1.530900 0.180000 0.283711
v 1.541319 0.180000 0.285852
v 1.551467 0.180000 0.289036
v 1.561241 0.180000 0.293231
v 1.570541 0.180000 0.298392
v 1.579271 0.180000 0.304469
v 1.587342 0.180000 0.311397
v 1.594670 0.180000 0.319106
v 1.601180 0.180000 0.327517
v 1.606806 0.180000 0.336543
v 1.611491 0.180000 0.346093
v 1.615185 0.180000 0.356067
v 1.617851 0.180000 0.366364
v 1.619461 0.180000 0.376877
v 1.620000 0.180000 0.387500
f 143 2 1
f 2 4 3
f 4 6 5
f 6 8 7
f 8 10 9
f 10 12 11
f 12 14 13
f 14 16 15
f 16 18 17
f 18 20 19
f 20 22 21
f 22 24 23
f 24 26 25
f 26 28 27
f 28 30 29
f 30 32 31
f 86 88 87
f 122 174 123
f 173 123 174
f 141 143 142
f 143 4 2
f 4 8 6
f 8 12 10
f 12 16 14
f 16 20 18
f 20 24 22
f 24 28 26
f 28 32 30
f 85 88 86
f 121 174 122
f 172 123 173
f 140 143 141
f 143 8 4
f 8 16 12
f 16 24 20
f 24 32 28
f 84 88 85
f 120 174 121
f 171 123 172
f 139 143 140
f 143 16 8
f 16 32 24
f 83 88 84
f 119 174 120
f 170 123 171
f 138 143 139
f 16 33 32
f 82 88 83
f 118 174 119
f 169 123 170
f 137 143 138
f 16 34 33
f 81 88 82
f 117 174 118
f 168 123 169
f 136 143 137
f 16 35 34
f 80 88 81
f 116 174 117
f 167 123 168
f 135 143 136
f 16 36 35
f 79 88 80
f 115 174 116
f 166 123 167
f 134 143 135
f 78 88 79
f 114 174 115
f 166 124 123
f 133 143 134
f 77 88 78
f 113 174 114
f 165 124 166
f 132 143 133
f 76 88 77
f 112 174 113
f 165 125 124
f 131 143 132
f 75 88 76
f 111 174 112
f 164 125 165
f 130 143 131
f 74 88 75
f 110 174 111
f 164 126 125
f 129 143 130
f 73 88 74
f 109 174 110
f 164 127 126
f 128 143 129
f 72 88 73
f 108 174 109
f 163 127 164
f 127 143 128
f 71 88 72
f 107 174 108
f 163 143 127
f 70 88 71
f 106 174 107
f 162 143 163
f 69 88 70
f 105 174 106
f 161 143 162
f 68 88 69
f 104 174 105
f 160 143 161
f 67 88 68
f 103 174 104
f 159 143 160
f 66 88 67
f 102 174 103
f 158 143 159
f 65 88 66
f 101 174 102
f 157 143 158
f 64 88 65
f 100 174 101
f 156 143 157
f 63 88 64
f 99 174 100
f 155 143 156
f 62 88 63
f 98 174 99
f 154 143 155
f 61 88 62
f 97 174 98
f 153 143 154
f 60 88 61
f 96 174 97
f 152 143 153
f 59 88 60
f 96 175 174
f 151 143 152
f 58 88 59
f 95 175 96
f 150 143 151
f 57 88 58
f 94 175 95
f 149 143 150
f 56 88 57
f 94 176 175
f 148 143 149
f 55 88 56
f 93 176 94
f 148 16 143
f 54 88 55
f 93 177 176
f 147 16 148
f 53 88 54
f 92 177 93
f 146 16 147
f 52 88 53
f 91 177 92
f 145 16 146
f 51 88 52
f 91 178 177
f 144 16 145
f 50 88 51
f 90 178 91
f 205 16 144
f 49 88 50
f 89 178 90
f 204 16 205
f 48 88 49
f 89 179 178
f 203 16 204
f 47 88 48
f 88 179 89
f 202 16 203
f 46 88 47
f 88 180 179
f 201 16 202
f 45 88 46
f 88 181 180
f 200 16 201
f 44 88 45
f 88 182 181
f 199 16 200
f 43 88 44
f 88 183 182
f 198 16 199
f 42 88 43
f 88 184 183
f 197 16 198
f 41 88 42
f 88 185 184
f 197 36 16
f 40 88 41
f 88 186 185
f 196 36 197
f 39 88 40
f 88 187 186
f 195 36 196
f 38 88 39
f 88 188 187
f 194 36 195
f 37 88 38
f 88 189 188
f 193 36 194
f 36 88 37
f 88 190 189
f 192 36 193
f 36 190 88
f 191 36 192
f 36 191 190
