v 2.055272 -1.119256 -5.715969
v 2.014347 -1.132662 -5.663909
v 2.007469 -1.133521 -5.660194
v 2.000584 -1.134368 -5.656475
v 1.993690 -1.135204 -5.652752
v 1.567341 -1.162528 -5.433143
v 1.986788 -1.136027 -5.649024
v 1.979878 -1.136839 -5.645292
v 1.972959 -1.137639 -5.641555
v 1.966031 -1.138427 -5.637814
v 1.959095 -1.139203 -5.634068
v 1.952150 -1.139967 -5.630317
v 1.945196 -1.140719 -5.626561
v 1.938234 -1.141459 -5.622801
v 1.931262 -1.142187 -5.619035
v 1.924281 -1.142904 -5.615265
v 1.917293 -1.143608 -5.611490
v 1.910295 -1.144300 -5.607711
v 1.903290 -1.144980 -5.603928
v 1.896278 -1.145648 -5.600141
v 1.889258 -1.146304 -5.596349
v 1.882231 -1.146947 -5.592554
v 1.875198 -1.147579 -5.588756
v 1.868158 -1.148197 -5.584953
v 1.861113 -1.148804 -5.581148
v 1.854061 -1.149398 -5.577340
v 1.847004 -1.149980 -5.573528
v 1.839942 -1.150549 -5.569714
v 1.832876 -1.151106 -5.565897
v 1.825804 -1.151650 -5.562078
v 1.818729 -1.152182 -5.558257
v 1.811650 -1.152701 -5.554434
v 1.804567 -1.153207 -5.550608
v 1.797481 -1.153701 -5.546781
v 1.790391 -1.154181 -5.542952
v 1.783298 -1.154650 -5.539121
v 1.776201 -1.155105 -5.535288
v 1.769101 -1.155548 -5.531453
v 1.761996 -1.155978 -5.527616
v 1.754888 -1.156395 -5.523777
v 1.658874 -1.160758 -5.472199
v 1.747776 -1.156800 -5.519936
v 1.740660 -1.157192 -5.516093
v 1.733540 -1.157571 -5.512247
v 1.726416 -1.157938 -5.508399
v 1.719287 -1.158292 -5.504549
v 1.712154 -1.158633 -5.500697
v 1.705017 -1.158961 -5.496842
v 1.697875 -1.159277 -5.492985
v 1.690729 -1.159580 -5.489125
v 1.683578 -1.159870 -5.485263
v 1.676422 -1.160148 -5.481398
v 1.670562 -1.160364 -5.478264
v 1.664712 -1.160567 -5.475198
v 1.653048 -1.160937 -5.469267
v 1.647234 -1.161106 -5.466403
v 1.641433 -1.161263 -5.463604
v 1.635644 -1.161410 -5.460872
v 1.629869 -1.161547 -5.458206
v 1.624107 -1.161674 -5.455606
v 1.618360 -1.161793 -5.453070
v 1.612628 -1.161903 -5.450600
v 1.606910 -1.162005 -5.448195
v 1.601208 -1.162099 -5.445854
v 1.595521 -1.162186 -5.443577
v 1.589851 -1.162266 -5.441363
v 1.584198 -1.162340 -5.439214
v 1.578561 -1.162408 -5.437127
v 1.572942 -1.162470 -5.435104
v 1.561758 -1.162581 -5.431244
v 1.556192 -1.162629 -5.429406
v 1.550642 -1.162673 -5.427630
v 1.545110 -1.162713 -5.425914
v 1.539593 -1.162750 -5.424259
v 1.534093 -1.162782 -5.422662
v 1.528608 -1.162812 -5.421125
v 1.523137 -1.162838 -5.419646
v 1.517682 -1.162861 -5.418224
v 1.512240 -1.162881 -5.416860
v 1.506812 -1.162899 -5.415553
v 1.501398 -1.162915 -5.414302
v 1.495997 -1.162929 -5.413107
v 1.490609 -1.162940 -5.411967
v 1.485232 -1.162950 -5.410881
v 1.479868 -1.162959 -5.409850
v 1.474515 -1.162966 -5.408872
v 1.469173 -1.162973 -5.407947
v 1.463842 -1.162978 -5.407075
v 1.458522 -1.162983 -5.406255
v 1.453213 -1.162987 -5.405487
v 1.447915 -1.162991 -5.404770
v 1.442629 -1.162993 -5.404105
v 1.437354 -1.162996 -5.403491
v 1.432091 -1.162998 -5.402928
v 1.426839 -1.162999 -5.402415
v 1.421600 -1.163000 -5.401953
v 1.416372 -1.163000 -5.401540
v 1.411157 -1.163001 -5.401177
v 1.405954 -1.163001 -5.400863
v 1.400763 -1.163001 -5.400599
v 1.395585 -1.163001 -5.400383
v 1.390419 -1.163000 -5.400215
v 1.385267 -1.163000 -5.400096
v 1.380127 -1.163000 -5.400024
v 1.375000 -1.163000 -5.400000
v 1.375000 -0.046829 -4.237943
v 1.375000 0.000000 -4.237000
v 0.825423 0.000000 -4.237000
v 1.375000 -1.029785 -4.859527
v 1.185000 -1.056502 -4.913818
v 1.191563 -1.060884 -4.923456
v 1.375000 -0.957130 -4.739341
v 1.050000 -0.985475 -4.782418
v 0.984823 -0.961799 -4.746156
v 0.760834 -0.252483 -4.264740
v 0.983172 -0.961282 -4.745396
v 0.981520 -0.960769 -4.744643
v 0.979868 -0.960260 -4.743897
v 0.978215 -0.959755 -4.743159
v 0.599906 -0.457007 -4.330561
v 0.735000 -0.929952 -4.701603
v 0.825000 -0.929952 -4.701603
v 0.579891 -0.474897 -4.338383
v 0.357065 -0.624510 -4.418906
v 0.510000 -0.929952 -4.701603
v 0.385871 -0.609051 -4.409233
v 0.375000 -0.929952 -4.701603
v 0.377150 -0.783508 -4.540533
v -0.497064 -0.786726 -4.543478
v 0.285000 -1.162988 -5.405362
v 0.285000 -1.162800 -5.378416
v -0.513902 -0.786080 -4.542885
v -0.508296 -0.786291 -4.543078
v -0.530665 -0.785487 -4.542341
v -0.519500 -0.785875 -4.542697
v 0.285000 -1.161491 -5.459229
v -0.525088 -0.785677 -4.542515
v -0.536230 -0.785305 -4.542174
v -0.541782 -0.785132 -4.542015
v -0.547324 -0.784966 -4.541864
v -0.552854 -0.784809 -4.541720
v -0.558375 -0.784660 -4.541584
v -0.563885 -0.784520 -4.541456
v -0.569387 -0.784387 -4.541335
v -0.574880 -0.784263 -4.541221
v 0.285000 -1.159807 -5.486122
v -0.580365 -0.784147 -4.541116
v -0.585842 -0.784040 -4.541017
v -0.591312 -0.783940 -4.540926
v -0.596775 -0.783848 -4.540843
v -0.602232 -0.783765 -4.540767
v -0.607684 -0.783690 -4.540698
v -0.613131 -0.783622 -4.540637
v -0.618573 -0.783563 -4.540583
v -0.624011 -0.783512 -4.540536
v -0.629446 -0.783469 -4.540497
v 0.285000 -1.157500 -5.512969
v -1.171011 -0.617304 -4.414350
v -2.540000 -0.617304 -4.414350
v -2.361163 -0.783508 -4.540533
v -2.875221 -0.800202 -6.243947
v -2.800612 -0.530569 -4.365081
v -2.808527 -0.524077 -4.361780
v -2.647437 -0.604345 -4.406351
v -2.812620 -0.818735 -6.225980
v -2.803426 -0.819185 -6.225533
v -2.915000 0.000000 -4.237000
v -3.625000 0.000000 -4.237000
v -3.414361 -0.213701 -4.256802
v -2.915000 -0.285419 -4.272567
v -3.012500 -0.350000 -4.290915
v -2.915000 -0.293177 -4.274560
v -3.337500 -0.350000 -4.290915
v -3.625000 -0.093583 -4.240771
v -2.543183 0.000000 -6.563000
v -2.542411 -0.026808 -6.562690
v -2.962500 -0.350000 -6.509085
v -2.432229 -1.091808 -5.800660
v -2.435956 -1.082263 -5.825776
v -2.428570 -1.100779 -5.775306
v -2.425000 -1.109173 -5.749721
v 2.045720 -1.109173 -5.749721
v 2.046037 -1.109515 -5.748634
v 2.046354 -1.109856 -5.747546
v 2.047928 -1.111545 -5.742107
v 2.050415 -1.114187 -5.733400
v 0.960000 -1.132519 -5.664516
v 2.046985 -1.110535 -5.745371
v 2.047300 -1.110873 -5.744283
v 2.047614 -1.111209 -5.743195
v 2.048241 -1.111879 -5.741019
v 2.048553 -1.112212 -5.739931
v 2.048865 -1.112544 -5.738843
v 2.049176 -1.112875 -5.737754
v 2.049487 -1.113205 -5.736666
v 2.049797 -1.113533 -5.735577
v 2.050106 -1.113861 -5.734489
v 2.050723 -1.114513 -5.732311
v 2.051030 -1.114837 -5.731222
v 2.051337 -1.115160 -5.730133
v 2.051644 -1.115481 -5.729044
v 2.051949 -1.115802 -5.727955
v 2.052254 -1.116122 -5.726866
v 2.052559 -1.116440 -5.725776
v 2.052863 -1.116758 -5.724687
v 2.053166 -1.117074 -5.723597
v 2.053469 -1.117389 -5.722508
v 2.053771 -1.117703 -5.721418
v 2.054072 -1.118016 -5.720328
v 2.054373 -1.118327 -5.719238
v 2.054673 -1.118638 -5.718149
v 2.054973 -1.118947 -5.717059
v 2.034930 -1.130014 -5.675026
v 2.055570 -1.119563 -5.714879
v 2.055868 -1.119869 -5.713788
v 2.056166 -1.120174 -5.712698
v 2.056462 -1.120477 -5.711608
v 2.056758 -1.120780 -5.710518
v 2.057054 -1.121082 -5.709427
v 2.057348 -1.121382 -5.708337
v 2.057643 -1.121681 -5.707246
v 2.057936 -1.121980 -5.706155
v 2.058229 -1.122277 -5.705065
v 2.058522 -1.122573 -5.703974
v 2.058813 -1.122867 -5.702883
v 2.059104 -1.123161 -5.701792
v 2.059395 -1.123454 -5.700702
v 2.059685 -1.123745 -5.699611
v 2.059974 -1.124035 -5.698520
v 2.060263 -1.124325 -5.697428
v 2.060551 -1.124613 -5.696337
v 2.060838 -1.124900 -5.695246
v 2.061125 -1.125185 -5.694155
v 2.061411 -1.125470 -5.693064
v 2.061697 -1.125754 -5.691972
v 2.061982 -1.126036 -5.690881
v 2.062266 -1.126318 -5.689790
v 2.055444 -1.127259 -5.686105
v 2.048614 -1.128189 -5.682416
v 2.041776 -1.129107 -5.678723
v 2.028077 -1.130908 -5.671324
v 2.021216 -1.131791 -5.667619
v 1.375000 -0.093583 -4.240771
v 1.197856 -1.065194 -4.933170
v 1.050000 -0.997138 -4.801431
v 0.986474 -0.962320 -4.746923
v 0.960000 -0.954457 -4.735484
v 0.825000 -0.945882 -4.723335
v 0.825000 -0.961305 -4.745430
v 0.750584 -0.271265 -4.269080
v 0.619013 -0.438925 -4.323012
v 0.558967 -0.492574 -4.346465
v 0.413613 -0.593258 -4.399693
v 0.327174 -0.639598 -4.428672
v 0.285000 -1.162551 -5.432304
v -1.160925 -0.624045 -4.418606
v -2.792449 -0.536879 -4.368339
v -2.668472 -0.598602 -4.402879
v -2.821794 -0.817751 -6.226955
v -2.915000 -0.008010 -4.237028
v -3.625000 -0.186558 -4.252061
v -2.993082 -0.213701 -6.543198
v -2.439728 -1.072148 -5.850645
v 2.046670 -1.110196 -5.746459
v 1.375000 -0.140184 -4.245480
v 1.203882 -1.069432 -4.942962
v 1.375000 -1.050713 -4.901431
v 1.050000 -1.008434 -4.820665
v 0.988124 -0.962844 -4.747697
v 0.960000 -0.968508 -4.756136
v 0.825000 -0.976212 -4.767877
v 0.976562 -0.959253 -4.742427
v 0.637212 -0.420674 -4.315751
v 0.537132 -0.510013 -4.354793
v 0.587790 -0.612241 -4.411197
v 0.440310 -0.577165 -4.390320
v 0.296180 -0.654276 -4.438493
v -0.502683 -0.786506 -4.543276
v -1.150844 -0.630616 -4.422815
v -2.866780 -0.804487 -6.239863
v -2.784047 -0.542997 -4.371544
v -2.689185 -0.591815 -4.398837
v -2.830947 -0.816217 -6.228468
v -2.915000 -0.016020 -4.237110
v -3.625000 -0.278324 -4.270795
v -3.625000 0.000000 -6.563000
v -3.625000 -0.093583 -6.559229
v -2.443525 -1.061466 -5.875259
v 1.375000 -0.186558 -4.252061
v 1.215150 -1.077681 -4.962766
v 1.209646 -1.073595 -4.952827
v 1.050000 -1.019360 -4.840112
v 0.989774 -0.963373 -4.748478
v 0.960000 -0.982112 -4.777084
v 0.825000 -0.990595 -4.790664
v 0.974909 -0.958756 -4.741702
v 0.654505 -0.402278 -4.308789
v 0.514373 -0.527201 -4.363355
v 0.600000 -0.929952 -4.701603
v 0.264063 -0.668505 -4.448330
v -0.491442 -0.786948 -4.543682
v -1.140770 -0.637019 -4.426976
v -2.775413 -0.548909 -4.374686
v -2.709456 -0.583993 -4.394256
v -2.840075 -0.814119 -6.230529
v -2.915000 -0.024029 -4.237248
v -3.625000 -0.368285 -4.296852
v -3.414361 -0.213701 -6.543198
v -2.447324 -1.050222 -5.899610
v 1.375000 -0.232630 -4.260503
v 1.220399 -1.081688 -4.972776
v 1.375000 -1.069936 -4.944143
v 1.050000 -1.029910 -4.859764
v 0.991423 -0.963906 -4.749266
v 0.960000 -0.995264 -4.798320
v 0.825000 -1.004446 -4.813777
v 0.973255 -0.958263 -4.740984
v 0.670895 -0.383758 -4.302139
v 0.587790 -0.783508 -4.540533
v 0.465986 -0.560785 -4.381131
v 0.285000 -0.929952 -4.701603
v -0.485818 -0.787173 -4.543889
v -0.639110 -0.783404 -4.540437
v -1.130704 -0.643255 -4.431087
v -2.858062 -0.808242 -6.236250
v -2.766559 -0.554609 -4.377757
v -2.738791 -0.570369 -4.386467
v -2.849137 -0.811457 -6.233131
v -2.915000 -0.032036 -4.237441
v -3.337500 -0.358224 -4.293544
v -3.625000 -0.186558 -6.547939
v -3.625000 -0.278324 -6.529205
v -2.451106 -1.038420 -5.923691
v 1.375000 -0.278324 -4.270795
v 1.230145 -1.089460 -4.993003
v 1.225396 -1.085615 -4.982855
v 1.050000 -1.040081 -4.879616
v 0.993072 -0.964442 -4.750062
v 0.960000 -1.007956 -4.819833
v 0.825000 -1.017758 -4.837205
v 0.971600 -0.957773 -4.740273
v 0.686386 -0.365137 -4.295808
v 0.490665 -0.544128 -4.372139
v 0.375000 -0.945882 -4.723335
v 0.230808 -0.682247 -4.458143
v -0.480193 -0.787399 -4.544097
v -1.120648 -0.649326 -4.435144
v -2.757497 -0.560090 -4.380750
v -2.915000 -0.040043 -4.237690
v -3.337500 -0.366428 -4.296234
v -3.625000 -0.368285 -6.503148
v 1.375000 -0.323567 -4.282917
v 1.219708 -0.213701 -4.256802
v 1.234649 -1.093221 -5.003217
v 1.375000 -1.087424 -4.987595
v 1.050000 -1.049870 -4.899659
v 0.994720 -0.964983 -4.750865
v 0.960000 -1.020183 -4.841614
v 0.825000 -1.030523 -4.860935
v 0.969945 -0.957288 -4.739569
v 0.700984 -0.346436 -4.289799
v 0.196502 -0.695438 -4.467858
v -0.474569 -0.787625 -4.544305
v -1.110604 -0.655233 -4.439145
v -2.748237 -0.565345 -4.383655
v -2.915000 -0.048047 -4.237993
v -3.337500 -0.374612 -4.298985
v -2.962500 -0.357103 -6.506818
v 1.229515 -1.162975 -5.408400
v 1.375000 -0.368285 -4.296852
v 1.242934 -1.100484 -5.023837
v 1.238912 -1.096897 -5.013496
v 1.050000 -1.059273 -4.919886
v 0.770255 -0.233743 -4.260734
v 0.960000 -1.031940 -4.863652
v 0.825000 -1.042735 -4.884955
v 0.968289 -0.956806 -4.738871
v 0.798429 -0.783508 -4.540533
v 0.510000 -0.945882 -4.723335
v 0.161333 -0.707995 -4.477370
v -1.100573 -0.660979 -4.443089
v -2.915000 -0.056049 -4.238351
v -3.337500 -0.382775 -4.301796
v -2.962500 -0.364191 -6.504506
v 1.375000 -0.412405 -4.312576
v 1.246717 -1.103983 -5.034234
v 1.375000 -1.103148 -5.031715
v 1.185000 -1.062714 -4.927551
v 0.996368 -0.965527 -4.751675
v 0.960000 -1.043221 -4.885938
v 0.825000 -1.054388 -4.909251
v 0.966632 -0.956328 -4.738180
v 0.714697 -0.327677 -4.284118
v 0.510000 -0.961305 -4.745430
v 0.125495 -0.719832 -4.486574
v 0.285000 -1.154572 -5.539755
v -0.648781 -0.783251 -4.540297
v -1.090557 -0.666565 -4.446971
v -2.729171 -0.575155 -4.389176
v -2.883360 -0.795383 -6.248491
v -2.915000 -0.064049 -4.238765
v -3.337500 -0.390917 -4.304668
v -2.962500 -0.371265 -6.502149
v 1.375000 -0.455857 -4.330064
v 1.253566 -1.110704 -5.055186
v 1.250261 -1.107390 -5.044685
v 1.050000 -1.068286 -4.940289
v 0.998015 -0.966076 -4.752492
v 0.960000 -1.054020 -4.908461
v 0.960000 -1.064334 -4.931211
v 0.964975 -0.955855 -4.737496
v 0.727529 -0.308881 -4.278768
v 0.375000 -0.961305 -4.745430
v 0.166511 -0.783508 -4.540533
v -1.080558 -0.671992 -4.450791
v -2.719389 -0.579699 -4.391775
v -2.816184 -0.517415 -4.358444
v -2.915000 -0.072045 -4.239234
v -3.337500 -0.399038 -4.307600
v -2.962500 -0.378323 -6.499746
v 1.375000 -0.498569 -4.349287
v 1.259459 -1.117047 -5.076318
v 1.256632 -1.113924 -5.065731
v 1.185000 -1.068748 -4.941364
v 0.999662 -0.966628 -4.753316
v 0.825000 -1.065475 -4.933810
v 0.960000 -1.074156 -4.954177
v 0.963317 -0.955385 -4.736819
v 0.739488 -0.290071 -4.273755
v 0.510000 -0.976212 -4.767877
v 0.089181 -0.730864 -4.495363
v 0.052584 -0.741006 -4.503630
v -1.070577 -0.677262 -4.454544
v -2.823575 -0.510595 -4.355082
v -2.915000 -0.080038 -4.239757
v -3.337500 -0.407136 -4.310592
v 1.375000 -0.540473 -4.370215
v 1.262049 -1.120072 -5.086942
v 1.375000 -1.117083 -5.076433
v 1.185000 -1.074602 -4.955254
v 1.001307 -0.967183 -4.754148
v 0.825000 -1.075989 -4.958620
v 0.960000 -1.083483 -4.977349
v 0.961659 -0.954919 -4.736148
v 0.375000 -0.976212 -4.767877
v 0.015891 -0.750187 -4.511281
v 0.285000 -1.151025 -5.566466
v -1.060616 -0.682376 -4.458230
v -2.699383 -0.588033 -4.396612
v -3.012500 -0.358224 -4.293544
v -2.915000 -0.088027 -4.240336
v -3.337500 -0.415213 -4.313645
v 1.375000 -0.581500 -4.392812
v 1.219708 -0.420124 -4.315535
v 1.266517 -1.125821 -5.108287
v 1.264402 -1.122997 -5.097600
v 1.050000 -1.076906 -4.960862
v 1.002952 -0.967743 -4.754986
v 0.825000 -1.085926 -4.983666
v 0.960000 -1.092310 -5.000715
v 0.510000 -0.990595 -4.790664
v -0.020731 -0.758402 -4.518271
v -0.658459 -0.783011 -4.540077
v -1.050677 -0.687337 -4.461845
v -2.830691 -0.503629 -4.351705
v -2.915000 -0.096012 -4.240970
v -3.414361 -0.420124 -4.315535
v 1.041988 -0.982218 -4.777250
v 1.219708 -0.612241 -4.411197
v 1.268395 -1.128542 -5.119000
v 1.375000 -1.129205 -5.121676
v 1.185000 -1.080276 -4.969218
v 1.004595 -0.968306 -4.755832
v 0.825000 -1.095280 -5.008937
v 0.960000 -1.100633 -5.024266
v 0.735000 -0.945882 -4.723335
v 0.375000 -0.990595 -4.790664
v 0.285000 -0.945882 -4.723335
v -0.668144 -0.782680 -4.539775
v -1.040761 -0.692146 -4.465387
v -2.678876 -0.595338 -4.400927
v -2.844063 -0.489304 -4.344940
v -2.837523 -0.496528 -4.348321
v -2.915000 -0.103993 -4.241659
v -3.625000 -0.455857 -4.330064
v -3.337500 -0.423266 -4.316757
v 1.375000 -0.621584 -4.417044
v 1.050000 -1.085130 -4.981596
v 1.006238 -0.968873 -4.756685
v 0.825000 -1.104046 -5.034417
v 0.960000 -1.108449 -5.047990
v 0.600000 -0.945882 -4.723335
v 0.510000 -1.004446 -4.813777
v 0.285000 -0.961305 -4.745430
v -0.677839 -0.782259 -4.539390
v 0.285000 -1.146859 -5.593088
v -1.030870 -0.696805 -4.468854
v -2.915000 -0.111968 -4.242402
v -3.337500 -0.431296 -4.319929
v 1.375000 -0.660659 -4.442870
v 1.185000 -1.085768 -4.983255
v 1.007879 -0.969443 -4.757545
v 0.825000 -1.112220 -5.060093
v 0.960000 -1.115753 -5.071877
v 0.735000 -0.961305 -4.745430
v 0.375000 -1.004446 -4.813777
v -0.057121 -0.765662 -4.524570
v 0.285000 -1.142078 -5.619607
v -1.021004 -0.701315 -4.472243
v -2.657987 -0.601604 -4.404688
v -2.850307 -0.481968 -4.341569
v -2.915000 -0.119938 -4.243201
v -3.337500 -0.439302 -4.323161
v 1.375000 -0.698663 -4.470248
v 1.185000 -1.091078 -4.997361
v 1.009520 -0.970017 -4.758412
v 0.825000 -1.119796 -5.085952
v 0.960000 -1.122542 -5.095915
v 0.600000 -0.961305 -4.745430
v 0.510000 -1.017758 -4.837205
v 0.285000 -0.976212 -4.767877
v -0.687542 -0.781745 -4.538923
v -1.011160 -0.705678 -4.475555
v -2.856255 -0.474527 -4.338213
v -2.993082 -0.213701 -4.256802
v -3.337500 -0.447284 -4.326452
v 1.375000 -0.735534 -4.499134
v 1.050000 -1.092955 -5.002484
v 1.011159 -0.970595 -4.759286
v 0.825000 -1.126771 -5.111979
v 0.960000 -1.128814 -5.120093
v 0.735000 -0.976212 -4.767877
v 0.375000 -1.017758 -4.837205
v 0.285000 -0.990595 -4.790664
v -1.001336 -0.709899 -4.478788
v -2.636836 -0.606823 -4.407863
v -2.891199 -0.790017 -6.253489
v -2.915000 -0.127903 -4.244055
v -3.337500 -0.455241 -4.329802
v 1.375000 -0.771212 -4.529482
v 1.185000 -1.096205 -5.011536
v 0.778863 -0.215062 -4.257059
v 0.825000 -1.133141 -5.138161
v 0.960000 -1.134565 -5.144400
v 0.600000 -0.976212 -4.767877
v 0.510000 -1.030523 -4.860935
v 0.166511 -0.928094 -4.699136
v -0.991528 -0.713979 -4.481944
v -2.626199 -0.609036 -4.409220
v -2.861907 -0.466990 -4.334877
v -2.915000 -0.135861 -4.244963
v -3.337500 -0.463174 -4.333211
v 1.375000 -0.805638 -4.561242
v 1.050000 -1.100377 -5.023518
v 1.012796 -0.971176 -4.760168
v 0.825000 -1.138903 -5.164484
v 0.960000 -1.139793 -5.168825
v 0.735000 -0.990595 -4.790664
v 0.375000 -1.030523 -4.860935
v -0.093120 -0.771977 -4.530145
v 0.285000 -1.004446 -4.813777
v -0.981733 -0.717920 -4.485020
v -2.794214 -0.819115 -6.225603
v -2.867263 -0.459366 -4.331567
v -2.915000 -0.143813 -4.245926
v -3.337500 -0.471080 -4.336679
v 1.375000 -0.838758 -4.594362
v 1.185000 -1.101147 -5.025775
v 1.014432 -0.971761 -4.761056
v 0.825000 -1.144054 -5.190933
v 0.960000 -1.144495 -5.193357
v 0.600000 -0.990595 -4.790664
v 0.510000 -1.042735 -4.884955
v 0.285000 -1.017758 -4.837205
v -0.971949 -0.721726 -4.488018
v -2.615539 -0.610985 -4.410420
v -3.012500 -0.366428 -4.296234
v -3.012500 -0.374612 -4.298985
v -2.915000 -0.151758 -4.246944
v -3.337500 -0.478961 -4.340205
v 1.375000 -0.870518 -4.628788
v 1.043594 -0.982863 -4.778268
v 1.185000 -1.105905 -5.040078
v 1.016067 -0.972349 -4.761952
v 0.825000 -1.148591 -5.217494
v 0.960000 -1.148668 -5.217984
v 0.735000 -1.004446 -4.813777
v 0.375000 -1.042735 -4.884955
v -0.128565 -0.777359 -4.534963
v -0.962171 -0.725399 -4.490937
v -2.604857 -0.612669 -4.411461
v -2.872325 -0.451664 -4.328288
v -2.915000 -0.159696 -4.248016
v -3.337500 -0.486815 -4.343790
v 1.375000 -0.900866 -4.664466
v 1.050000 -1.107395 -5.044691
v 1.017700 -0.972941 -4.762854
v 0.960000 -1.152313 -5.242695
v 0.825000 -1.152511 -5.244153
v 0.600000 -1.004446 -4.813777
v 0.510000 -1.054388 -4.909251
v 0.285000 -1.030523 -4.860935
v -0.952397 -0.728941 -4.493776
v -2.594146 -0.614090 -4.412343
v -2.877091 -0.443891 -4.325045
v -2.915000 -0.167627 -4.249144
v -3.337500 -0.494643 -4.347433
v 1.375000 -0.929752 -4.701337
v 1.185000 -1.110476 -5.054441
v 1.019331 -0.973536 -4.763764
v 0.960000 -1.155425 -5.267479
v 0.825000 -1.155812 -5.270896
v 0.735000 -1.017758 -4.837205
v 0.375000 -1.054388 -4.909251
v 0.285000 -1.042735 -4.884955
v -0.942625 -0.732356 -4.496535
v -2.784996 -0.818524 -6.226191
v -3.012500 -0.382775 -4.301796
v -2.915000 -0.175549 -4.250325
v -3.337500 -0.502443 -4.351134
v 1.050000 -1.114006 -5.065995
v 1.020961 -0.974134 -4.764680
v 0.960000 -1.158005 -5.292324
v 0.825000 -1.158493 -5.297708
v 0.600000 -1.017758 -4.837205
v 0.510000 -1.065475 -4.933810
v -0.163301 -0.781818 -4.538995
v -0.932850 -0.735645 -4.499214
v -2.583403 -0.615250 -4.413064
v -2.881563 -0.436058 -4.321843
v -2.915000 -0.183463 -4.251562
v -3.625000 -0.540473 -4.370215
v 1.375000 -0.982956 -4.778416
v 1.185000 -1.114862 -5.068861
v 1.022589 -0.974736 -4.765604
v 0.960000 -1.160050 -5.317218
v 0.825000 -1.160552 -5.324575
v 0.735000 -1.030523 -4.860935
v 0.375000 -1.065475 -4.933810
v 0.285000 -1.054388 -4.909251
v -0.923070 -0.738812 -4.501813
v -2.572621 -0.616150 -4.413626
v -2.885741 -0.428172 -4.318688
v -2.915000 -0.191369 -4.252853
v -3.337500 -0.510216 -4.354893
v 1.375000 -1.007188 -4.818500
v 1.185000 -1.119060 -5.083338
v 1.024215 -0.975341 -4.766535
v 0.960000 -1.161560 -5.342151
v 0.825000 -1.161988 -5.351483
v 0.600000 -1.030523 -4.860935
v 0.510000 -1.075989 -4.958620
v 0.285000 -1.065475 -4.933810
v -0.913282 -0.741859 -4.504332
v -2.775789 -0.817396 -6.227306
v -3.012500 -0.390917 -4.304668
v -2.915000 -0.199265 -4.254198
v -3.337500 -0.517960 -4.358709
v 1.050000 -1.120207 -5.087421
v 1.025839 -0.975950 -4.767473
v 0.960000 -1.162535 -5.367110
v 0.825000 -1.162800 -5.378416
v 0.735000 -1.042735 -4.884955
v 0.375000 -1.075989 -4.958620
v -0.197275 -0.785379 -4.542238
v -0.903483 -0.744788 -4.506769
v -2.561797 -0.616792 -4.414028
v -2.889626 -0.420243 -4.315583
v -2.915000 -0.207152 -4.255598
v -3.337500 -0.525676 -4.362583
v 1.185000 -1.123070 -5.097868
v 1.027462 -0.976562 -4.768418
v 0.960000 -1.162973 -5.392085
v 0.825000 -1.162988 -5.405362
v 0.600000 -1.042735 -4.884955
v 0.510000 -1.085926 -4.983666
v 0.285000 -1.075989 -4.958620
v -0.893669 -0.747603 -4.509125
v -2.550925 -0.617176 -4.414270
v -2.893222 -0.412278 -4.312532
v -2.915000 -0.215029 -4.257051
v -3.337500 -0.533363 -4.366514
v 1.050000 -1.125996 -5.108962
v 0.786674 -0.196460 -4.253714
v 0.960000 -1.162875 -5.417063
v 0.825000 -1.162551 -5.432304
v 0.735000 -1.054388 -4.909251
v 0.375000 -1.085926 -4.983666
v 0.285000 -1.085926 -4.983666
v -0.883841 -0.750304 -4.511400
v -2.766613 -0.815715 -6.228962
v -3.012500 -0.399038 -4.307600
v -2.915000 -0.222896 -4.258560
v -3.337500 -0.541021 -4.370502
v 1.185000 -1.126891 -5.112448
v 1.029083 -0.977177 -4.769370
v 0.960000 -1.162240 -5.442033
v 0.825000 -1.161491 -5.459229
v 0.600000 -1.054388 -4.909251
v 0.510000 -1.095280 -5.008937
v -0.230535 -0.788081 -4.544716
v -0.874000 -0.752893 -4.513592
v -2.896531 -0.404288 -4.309537
v -2.915000 -0.230752 -4.260122
v -3.337500 -0.548648 -4.374547
v 1.185000 -1.130523 -5.127077
v 1.030702 -0.977795 -4.770329
v 0.960000 -1.161069 -5.466984
v 0.825000 -1.159807 -5.486122
v 0.735000 -1.065475 -4.933810
v 0.375000 -1.095280 -5.008937
v 0.166511 -1.041075 -4.881606
v -0.864149 -0.755371 -4.515702
v -2.757488 -0.813466 -6.231169
v -3.012500 -0.407136 -4.310592
v -2.915000 -0.238598 -4.261738
v -3.337500 -0.556246 -4.378648
v 1.050000 -1.131370 -5.130611
v 1.032319 -0.978417 -4.771296
v 0.960000 -1.159363 -5.491904
v 0.825000 -1.157500 -5.512969
v 0.600000 -1.065475 -4.933810
v 0.510000 -1.104046 -5.034417
v 0.285000 -1.095280 -5.008937
v 0.285000 -1.104046 -5.034417
v -0.854291 -0.757737 -4.517728
v -2.748464 -0.810653 -6.233913
v -2.899556 -0.396279 -4.306602
v -2.915000 -0.246432 -4.263408
v -3.337500 -0.563813 -4.382806
v 1.185000 -1.133965 -5.141752
v 1.033935 -0.979042 -4.772270
v 0.960000 -1.157122 -5.516781
v 0.825000 -1.154572 -5.539755
v 0.735000 -1.075989 -4.958620
v 0.375000 -1.104046 -5.034417
v -0.263136 -0.789964 -4.546455
v -0.844427 -0.759993 -4.519669
v -2.739610 -0.807296 -6.237162
v -2.902300 -0.388262 -4.303728
v -2.915000 -0.254254 -4.265133
v -3.337500 -0.571348 -4.387019
v 1.050000 -1.136329 -5.152358
v 1.035549 -0.979671 -4.773251
v 0.960000 -1.154347 -5.541605
v 0.825000 -1.151025 -5.566466
v 0.600000 -1.075989 -4.958620
v 0.510000 -1.112220 -5.060093
v 0.285000 -1.112220 -5.060093
v -0.834561 -0.762140 -4.521527
v -2.730999 -0.803418 -6.240885
v -3.012500 -0.415213 -4.313645
v -2.915000 -0.262064 -4.266911
v -3.337500 -0.578853 -4.391289
v 1.185000 -1.137217 -5.156470
v 1.037161 -0.980303 -4.774240
v 0.960000 -1.151040 -5.566363
v 0.960000 -1.147201 -5.591045
v 0.825000 -1.146859 -5.593088
v 0.735000 -1.085926 -4.983666
v 0.375000 -1.112220 -5.060093
v 0.285000 -1.119796 -5.085952
v -0.824693 -0.764178 -4.523299
v -2.722698 -0.799037 -6.245051
v -2.904766 -0.380245 -4.300920
v -2.915000 -0.269862 -4.268743
v -3.625000 -0.621584 -4.417044
v 1.038772 -0.980938 -4.775236
v 0.960000 -1.142834 -5.615639
v 0.825000 -1.142078 -5.619607
v 0.600000 -1.085926 -4.983666
v 0.510000 -1.119796 -5.085952
v -0.295131 -0.791068 -4.547483
v -0.814827 -0.766108 -4.524985
v -2.714725 -0.794148 -6.249647
v -2.906956 -0.372237 -4.298180
v -2.915000 -0.277647 -4.270628
v -3.337500 -0.586325 -4.395614
v 1.040381 -0.981576 -4.776239
v 0.960000 -1.137939 -5.640133
v 0.825000 -1.136684 -5.646007
v 0.735000 -1.095280 -5.008937
v 0.375000 -1.119796 -5.085952
v 0.285000 -1.126771 -5.111979
v -0.804966 -0.767931 -4.526585
v -2.707064 -0.788731 -6.254678
v -3.012500 -0.423266 -4.316757
v -3.337500 -0.593765 -4.399994
v 0.825000 -1.130679 -5.672275
v 0.600000 -1.095280 -5.008937
v 0.510000 -1.126771 -5.111979
v 0.285000 -1.133141 -5.138161
v -0.795110 -0.769647 -4.528097
v -2.699697 -0.782764 -6.260145
v -2.908874 -0.364245 -4.295510
v -2.915000 -0.300922 -4.276606
v -3.337500 -0.601173 -4.404430
v 0.735000 -1.104046 -5.034417
v 0.375000 -1.126771 -5.111979
v -0.326574 -0.791432 -4.547824
v -1.518605 -1.118603 -5.081730
v -2.692611 -0.776226 -6.266051
v -3.012500 -0.431296 -4.319929
v -2.915000 -0.308652 -4.278705
v -3.337500 -0.608547 -4.408920
v 1.270038 -1.131160 -5.129736
v 0.793705 -0.177954 -4.250695
v 0.825000 -1.124068 -5.698397
v 0.600000 -1.104046 -5.034417
v 0.510000 -1.133141 -5.138161
v 0.285000 -1.138903 -5.164484
v 0.285000 -1.124068 -5.698397
v -0.785263 -0.771258 -4.529522
v -2.685826 -0.769106 -6.272381
v -2.910523 -0.356270 -4.292911
v -2.914879 -0.316571 -4.280914
v -3.337500 -0.615887 -4.413465
v 1.271445 -1.133675 -5.140493
v 0.799976 -0.159552 -4.247996
v 0.735000 -1.112220 -5.060093
v 0.375000 -1.133141 -5.138161
v -0.331919 -0.791393 -4.547788
v -0.775427 -0.772763 -4.530859
v -2.679379 -0.761397 -6.279118
v -3.012500 -0.439302 -4.323161
v -2.914513 -0.324494 -4.283185
v -3.337500 -0.623194 -4.418064
v 1.272617 -1.136088 -5.151269
v 0.805507 -0.141265 -4.245611
v 0.600000 -1.112220 -5.060093
v 0.510000 -1.138903 -5.164484
v -0.337270 -0.791347 -4.547744
v -0.765605 -0.774164 -4.532107
v -2.673308 -0.753094 -6.286239
v -3.012500 -0.447284 -4.326452
v -2.913898 -0.332424 -4.285519
v -3.337500 -0.630467 -4.422718
v 1.375000 -1.139497 -5.167370
v 0.810317 -0.123102 -4.243534
v 0.735000 -1.119796 -5.085952
v 0.375000 -1.138903 -5.164484
v 0.285000 -1.144054 -5.190933
v -0.755798 -0.775461 -4.533265
v -2.667651 -0.744195 -6.293721
v -3.012500 -0.455241 -4.329802
v -2.913031 -0.340361 -4.287917
v -3.337500 -0.637704 -4.427425
v 1.273555 -1.138396 -5.162060
v 0.814428 -0.105070 -4.241756
v 0.600000 -1.119796 -5.085952
v 0.510000 -1.144054 -5.190933
v -0.342629 -0.791293 -4.547694
v -0.746006 -0.776656 -4.534334
v -2.662436 -0.734727 -6.301519
v -3.012500 -0.463174 -4.333211
v -2.911908 -0.348309 -4.290380
v -3.337500 -0.644907 -4.432186
v 1.274259 -1.140601 -5.172863
v 0.817858 -0.087180 -4.240272
v 0.735000 -1.126771 -5.111979
v 0.375000 -1.144054 -5.190933
v -0.347996 -0.791231 -4.547637
v -0.736230 -0.777750 -4.535315
v -2.657688 -0.724730 -6.309576
v -3.012500 -0.471080 -4.336679
v -3.337500 -0.652074 -4.437000
v 1.274730 -1.142702 -5.183677
v 0.820626 -0.069438 -4.239074
v 0.600000 -1.126771 -5.111979
v 0.510000 -1.148591 -5.217494
v -0.353371 -0.791161 -4.547572
v -2.653430 -0.714246 -6.317835
v -3.012500 -0.478961 -4.340205
v -3.625000 -0.698663 -4.470248
v 1.274968 -1.144699 -5.194497
v 0.822750 -0.051845 -4.238156
v 0.735000 -1.133141 -5.138161
v 0.375000 -1.148591 -5.217494
v -0.358755 -0.791084 -4.547500
v -2.649685 -0.703310 -6.326244
v -3.012500 -0.486815 -4.343790
v -3.337242 -0.665465 -4.446204
v 1.375000 -1.147939 -5.213442
v 0.824246 -0.034406 -4.237509
v 0.600000 -1.133141 -5.138161
v 0.510000 -1.152511 -5.244153
v 0.285000 -1.148591 -5.217494
v -2.646452 -0.691922 -6.334782
v -3.012500 -0.494643 -4.347433
v -3.336466 -0.678402 -4.455360
v 1.274974 -1.146591 -5.205323
v 0.825131 -0.017123 -4.237126
v 0.735000 -1.138903 -5.164484
v 0.375000 -1.152511 -5.244153
v -0.364148 -0.790998 -4.547421
v -2.643724 -0.680073 -6.343437
v -3.012500 -0.502443 -4.351134
v -3.335168 -0.690905 -4.464466
v 1.274748 -1.148379 -5.216151
v 1.009069 -0.612241 -4.411197
v 0.600000 -1.138903 -5.164484
v 0.510000 -1.155812 -5.270896
v -0.369552 -0.790905 -4.547334
v -2.641493 -0.667750 -6.352197
v -3.012500 -0.510216 -4.354893
v -3.333343 -0.702996 -4.473520
v 1.274286 -1.150062 -5.226981
v 1.045198 -0.983511 -4.779294
v 0.735000 -1.144054 -5.190933
v 0.375000 -1.155812 -5.270896
v -0.374966 -0.790803 -4.547240
v -2.639752 -0.654941 -6.361052
v -3.012500 -0.517960 -4.358709
v -3.330990 -0.714683 -4.482509
v 1.375000 -1.154520 -5.259816
v 1.046800 -0.984162 -4.780328
v 0.600000 -1.144054 -5.190933
v 0.510000 -1.158493 -5.297708
v 0.285000 -1.152511 -5.244153
v -2.638504 -0.641640 -6.369983
v -3.012500 -0.525676 -4.362583
v -3.625000 -0.771212 -4.529482
v 1.273589 -1.151641 -5.237811
v 1.048401 -0.984817 -4.781369
v 0.735000 -1.148591 -5.217494
v 0.375000 -1.158493 -5.297708
v -0.380390 -0.790694 -4.547138
v -2.637752 -0.627840 -6.378972
v -3.012500 -0.533363 -4.366514
v -3.328118 -0.725941 -4.491391
v 1.272652 -1.153116 -5.248641
v 0.600000 -1.148591 -5.217494
v 0.510000 -1.160552 -5.324575
v -0.385827 -0.790576 -4.547029
v -2.637500 -0.613535 -6.388000
v -3.012500 -0.541021 -4.370502
v -3.324736 -0.736734 -4.500118
v 1.271476 -1.154486 -5.259470
v 1.050000 -1.140869 -5.174197
v 0.735000 -1.152511 -5.244153
v 0.375000 -1.160552 -5.324575
v -0.391275 -0.790450 -4.546912
v -2.637500 -0.607188 -6.391913
v -3.012500 -0.548648 -4.374547
v -3.320855 -0.747028 -4.508642
v 1.270056 -1.155752 -5.270296
v 1.185000 -1.140277 -5.171229
v 0.600000 -1.152511 -5.244153
v 0.510000 -1.161988 -5.351483
v -0.396736 -0.790315 -4.546788
v -2.637500 -0.600817 -6.395785
v -3.012500 -0.556246 -4.378648
v -3.316490 -0.756796 -4.516920
v 1.375000 -1.159229 -5.306417
v 1.185000 -1.143147 -5.186026
v 0.735000 -1.155812 -5.270896
v 0.375000 -1.161988 -5.351483
v 0.285000 -1.155812 -5.270896
v -2.637500 -0.594421 -6.399616
v -3.012500 -0.563813 -4.382806
v -3.625000 -0.838758 -4.594362
v 1.268393 -1.156914 -5.281118
v 1.050000 -1.144990 -5.196118
v 0.600000 -1.155812 -5.270896
v 0.510000 -1.162800 -5.378416
v -0.402210 -0.790172 -4.546655
v -2.637500 -0.588000 -6.403407
v -3.012500 -0.571348 -4.387019
v -3.311664 -0.766028 -4.524917
v 1.266483 -1.157971 -5.291936
v 1.185000 -1.145824 -5.200859
v 0.735000 -1.158493 -5.297708
v 0.375000 -1.162800 -5.378416
v -0.407697 -0.790021 -4.546515
v -2.637500 -0.581555 -6.407156
v -3.012500 -0.578853 -4.391289
v -3.306404 -0.774717 -4.532600
v 1.264325 -1.158925 -5.302748
v 1.050000 -1.148689 -5.218115
v 0.600000 -1.158493 -5.297708
v 0.510000 -1.162988 -5.405362
v -0.413199 -0.789861 -4.546367
v -2.637500 -0.575087 -6.410863
v -3.012500 -0.586325 -4.395614
v -3.300737 -0.782855 -4.539938
v 1.261918 -1.159775 -5.313550
v 1.185000 -1.148308 -5.215726
v 0.735000 -1.160552 -5.324575
v 0.375000 -1.162988 -5.405362
v 0.285000 -1.158493 -5.297708
v -2.637500 -0.568594 -6.414529
v -3.012500 -0.593765 -4.399994
v -3.294690 -0.790441 -4.546904
v 1.375000 -1.162057 -5.353171
v 1.185000 -1.150600 -5.230624
v 0.600000 -1.160552 -5.324575
v 0.510000 -1.162551 -5.432304
v -0.418715 -0.789692 -4.546211
v -2.637500 -0.562079 -6.418153
v -3.012500 -0.601173 -4.404430
v -3.625000 -0.900866 -4.664466
v 1.259265 -1.160523 -5.324329
v 1.050000 -1.151966 -5.240179
v 0.735000 -1.161988 -5.351483
v 0.375000 -1.162551 -5.432304
v -0.424246 -0.789515 -4.546047
v -2.637500 -0.555540 -6.421736
v -3.012500 -0.608547 -4.408920
v -3.288292 -0.797482 -4.553482
v 1.256369 -1.161170 -5.335076
v 1.185000 -1.152699 -5.245550
v 0.600000 -1.161988 -5.351483
v 0.510000 -1.161491 -5.459229
v -0.429793 -0.789329 -4.545876
v -2.637500 -0.548978 -6.425276
v -3.012500 -0.615887 -4.413465
v -3.281575 -0.803991 -4.559662
v 1.253233 -1.161717 -5.345777
v 1.050000 -1.154819 -5.262301
v 0.735000 -1.162800 -5.378416
v 0.375000 -1.161491 -5.459229
v -0.435354 -0.789135 -4.545696
v -2.637500 -0.542394 -6.428775
v -3.012500 -0.623194 -4.418064
v -3.274567 -0.809975 -4.565429
v 1.185000 -1.154604 -5.260502
v 0.600000 -1.162800 -5.378416
v 0.510000 -1.159807 -5.486122
v 0.285000 -1.160552 -5.324575
v -2.637500 -0.535788 -6.432231
v -3.012500 -0.630467 -4.422718
v -3.625000 -0.957130 -4.739341
v 1.249859 -1.162165 -5.356422
v 1.185000 -1.156314 -5.275477
v 0.735000 -1.162988 -5.405362
v 0.375000 -1.159807 -5.486122
v -0.440929 -0.788933 -4.545510
v -2.637500 -0.529159 -6.435644
v -3.012500 -0.637704 -4.427425
v -3.267282 -0.815450 -4.570775
v 1.246249 -1.162517 -5.366999
v 1.050000 -1.157248 -5.284474
v 0.600000 -1.162988 -5.405362
v 0.510000 -1.157500 -5.512969
v -0.446515 -0.788726 -4.545319
v -2.637500 -0.522509 -6.439015
v -3.012500 -0.644907 -4.432186
v -3.259704 -0.820431 -4.575703
v 1.242408 -1.162772 -5.377496
v 1.185000 -1.157831 -5.290474
v 0.735000 -1.162551 -5.432304
v 0.375000 -1.157500 -5.512969
v -0.452112 -0.788512 -4.545122
v -2.637500 -0.515838 -6.442344
v -3.012500 -0.652074 -4.437000
v -3.251811 -0.824937 -4.580214
v 1.238337 -1.162932 -5.387903
v 1.050000 -1.159251 -5.306689
v 0.600000 -1.162551 -5.432304
v 0.510000 -1.154572 -5.539755
v 0.285000 -1.161988 -5.351483
v -2.637500 -0.509145 -6.445629
v -3.012766 -0.665670 -4.446347
v -3.243586 -0.828985 -4.584309
v 1.234039 -1.162999 -5.398207
v 1.185000 -1.159153 -5.305489
v 0.735000 -1.161491 -5.459229
v 0.375000 -1.154572 -5.539755
v -0.457717 -0.788295 -4.544922
v -2.637500 -0.502431 -6.448872
v -3.013567 -0.678786 -4.455636
v -3.625000 -1.007188 -4.818500
v 1.185000 -1.160281 -5.320519
v 0.600000 -1.161491 -5.459229
v 0.510000 -1.151025 -5.566466
v -0.463329 -0.788074 -4.544718
v -2.637500 -0.495696 -6.452071
v -3.014902 -0.691440 -4.464862
v -3.235043 -0.832578 -4.587977
v 1.640987 -1.158039 -5.507308
v 1.050000 -1.160827 -5.328939
v 0.735000 -1.159807 -5.486122
v 0.375000 -1.151025 -5.566466
v -0.468947 -0.787850 -4.544512
v -2.637500 -0.488942 -6.455228
v -3.016773 -0.703653 -4.474019
v -3.226248 -0.835694 -4.591184
v 1.224765 -1.162861 -5.418483
v 1.219786 -1.162661 -5.428459
v 1.185000 -1.161214 -5.335563
v 0.600000 -1.159807 -5.486122
v 0.510000 -1.146859 -5.593088
v -2.637500 -0.482167 -6.458340
v -3.019180 -0.715433 -4.483093
v -3.414361 -0.928094 -4.699136
v 1.214576 -1.162377 -5.438330
v 1.050000 -1.161976 -5.351215
v 0.735000 -1.157500 -5.512969
v 0.375000 -1.146859 -5.593088
v -2.637500 -0.475372 -6.461410
v -3.022114 -0.726761 -4.492045
v -3.625000 -1.050713 -4.901431
v -3.217272 -0.838311 -4.593896
v 1.209134 -1.162012 -5.448098
v 1.185000 -1.161951 -5.350618
v 0.600000 -1.157500 -5.512969
v 0.510000 -1.142078 -5.619607
v -2.637500 -0.468558 -6.464435
v -3.025565 -0.737607 -4.500833
v -3.208184 -0.840406 -4.596080
v 1.203457 -1.161570 -5.457765
v 1.185000 -1.162494 -5.365681
v 0.735000 -1.154572 -5.539755
v 0.375000 -1.142078 -5.619607
v 0.285000 -1.136684 -5.646007
v -2.637500 -0.461724 -6.467417
v -3.029526 -0.747945 -4.509412
v -3.199032 -0.841973 -4.597720
v 1.197544 -1.161052 -5.467333
v 1.050000 -1.162698 -5.373509
v 0.600000 -1.154572 -5.539755
v 0.510000 -1.136684 -5.646007
v -0.697256 -0.781138 -4.538372
v -2.637500 -0.454872 -6.470355
v -3.033980 -0.757752 -4.517740
v -3.625000 -1.087424 -4.987595
v 1.191392 -1.160462 -5.476804
v 1.185000 -1.162841 -5.380750
v 0.735000 -1.151025 -5.566466
v 0.375000 -1.136684 -5.646007
v 0.285000 -1.130679 -5.672275
v -2.637500 -0.448000 -6.473250
v -3.038901 -0.767015 -4.525782
v -3.189839 -0.843024 -4.598824
v 1.185000 -1.159802 -5.486182
v 1.050000 -1.162992 -5.395813
v 0.600000 -1.151025 -5.566466
v 0.510000 -1.130679 -5.672275
v -0.706981 -0.780437 -4.537737
v -2.637500 -0.441111 -6.476100
v -3.044260 -0.775726 -4.533502
v -3.180627 -0.843572 -4.599402
v 1.050000 -1.142465 -5.617582
v 1.185000 -1.162992 -5.395823
v 0.735000 -1.146859 -5.593088
v 0.375000 -1.130679 -5.672275
v -2.637500 -0.434203 -6.478905
v -2.993082 -0.928094 -4.699136
v -3.625000 -1.117083 -5.076433
v 1.185000 -1.162949 -5.410895
v 0.600000 -1.146859 -5.593088
v 0.510000 -1.124068 -5.698397
v -0.716718 -0.779639 -4.537016
v -2.637500 -0.427277 -6.481667
v -3.050027 -0.783873 -4.540865
v -3.171416 -0.843629 -4.599463
v 1.050000 -1.162859 -5.418118
v 0.735000 -1.142078 -5.619607
v 0.375000 -1.124068 -5.698397
v -0.726467 -0.778744 -4.536209
v -2.637500 -0.420334 -6.484384
v -3.056175 -0.791455 -4.547844
v -3.162222 -0.843196 -4.599006
v 1.185000 -1.162710 -5.425967
v 0.600000 -1.142078 -5.619607
v -2.637500 -0.413374 -6.487056
v -3.062679 -0.798484 -4.554427
v -3.414361 -1.041075 -4.881606
v 1.050000 -1.162298 -5.440416
v 0.735000 -1.136684 -5.646007
v -2.637500 -0.406396 -6.489684
v -3.069516 -0.804976 -4.560605
v -3.625000 -1.139497 -5.167370
v -3.153050 -0.842261 -4.598023
v 1.185000 -1.162276 -5.441033
v 0.600000 -1.136684 -5.646007
v -2.637500 -0.399402 -6.492267
v -3.076663 -0.810945 -4.566371
v -3.143908 -0.840811 -4.596504
v 1.185000 -1.161646 -5.456093
v 0.735000 -1.130679 -5.672275
v -2.637500 -0.392392 -6.494805
v -3.084105 -0.816403 -4.571715
v -3.625000 -1.154520 -5.259816
v 1.050000 -1.161309 -5.462700
v 0.600000 -1.130679 -5.672275
v -2.637500 -0.385365 -6.497298
v -3.091848 -0.821362 -4.576632
v -3.134805 -0.838834 -4.594441
v 1.185000 -1.160822 -5.471143
v 0.735000 -1.124068 -5.698397
v -2.637500 -0.378323 -6.499746
v -3.099897 -0.825830 -4.581114
v -3.625000 -1.162057 -5.353171
v 1.050000 -1.159893 -5.484961
v 0.600000 -1.124068 -5.698397
v -2.637500 -0.371265 -6.502149
v -3.108259 -0.829817 -4.585155
v -3.125782 -0.836333 -4.591844
v -2.637500 -0.364191 -6.504506
v -3.116910 -0.833323 -4.588740
v 1.050000 -1.158050 -5.507190
v -2.637500 -0.357103 -6.506818
v -3.414361 -1.158039 -5.507308
v -3.625000 -1.162057 -5.446829
v 1.050000 -1.155781 -5.529380
v -2.637500 -0.350000 -6.509085
v -3.414361 -1.118603 -5.718270
v -2.912921 -0.770496 -6.271153
v -3.625000 -0.957130 -6.060659
v -2.919504 -0.762813 -6.277889
v 1.050000 -1.153087 -5.551522
v -3.625000 -1.154520 -5.540184
v -3.625000 -1.139497 -5.632630
v -3.625000 -0.838758 -6.205638
v -2.936832 -0.736147 -6.300362
v -3.203721 -0.783508 -6.259467
v 1.050000 -1.149969 -5.573609
v -3.625000 -1.117083 -5.723567
v -2.962500 -0.607188 -6.391913
v -3.625000 -0.621584 -6.382956
v -2.962500 -0.600817 -6.395785
v 1.050000 -1.146428 -5.595632
v -3.414361 -1.041075 -5.918394
v -3.625000 -0.540473 -6.429785
v -2.962500 -0.555540 -6.421736
v -2.962500 -0.562079 -6.418153
v -3.625000 -1.087424 -5.812405
v -3.203721 -0.928094 -6.100864
v -2.962500 -0.548978 -6.425276
v 1.430348 -1.158039 -5.507308
v -3.625000 -1.050713 -5.898569
v -3.625000 -1.007188 -5.981500
v -2.962500 -0.535788 -6.432231
v -2.962500 -0.542394 -6.428775
v 1.048446 -1.142271 -5.618602
v -2.898742 -0.784089 -6.258938
v -2.962500 -0.529159 -6.435644
v 1.046889 -1.142076 -5.619615
v -2.905990 -0.777586 -6.264830
v -2.962500 -0.515838 -6.442344
v -2.962500 -0.522509 -6.439015
v 1.045329 -1.141882 -5.620621
v -3.414361 -0.928094 -6.100864
v -2.962500 -0.502431 -6.448872
v -2.962500 -0.509145 -6.445629
v 1.043766 -1.141689 -5.621622
v -2.962500 -0.495696 -6.452071
v 1.042199 -1.141495 -5.622617
v -3.625000 -0.900866 -6.135534
v -3.625000 -0.455857 -6.469936
v -2.962500 -0.488942 -6.455228
v 1.040629 -1.141302 -5.623605
v -2.925704 -0.754526 -6.285020
v -2.962500 -0.482167 -6.458340
v 1.039057 -1.141109 -5.624587
v -2.931489 -0.745631 -6.292525
v -2.962500 -0.468558 -6.464435
v -2.962500 -0.475372 -6.461410
v 1.037481 -1.140916 -5.625564
v -2.962500 -0.454872 -6.470355
v -2.962500 -0.461724 -6.467417
v 1.035901 -1.140724 -5.626534
v -2.941706 -0.726105 -6.308480
v -2.962500 -0.448000 -6.473250
v 1.034319 -1.140532 -5.627498
v -2.946085 -0.715537 -6.316829
v -2.962500 -0.434203 -6.478905
v -2.962500 -0.441111 -6.476100
v 1.032733 -1.140341 -5.628456
v -3.625000 -0.771212 -6.270518
v -3.414361 -0.783508 -6.259467
v -2.962500 -0.420334 -6.484384
v -2.962500 -0.427277 -6.481667
v 1.031144 -1.140150 -5.629408
v -2.949945 -0.704470 -6.325361
v -2.962500 -0.413374 -6.487056
v 1.029551 -1.139959 -5.630353
v -2.953284 -0.692916 -6.334043
v -3.414361 -0.420124 -6.484465
v 1.027956 -1.139769 -5.631293
v -2.956103 -0.680883 -6.342850
v -2.962500 -0.406396 -6.489684
v 1.026356 -1.139579 -5.632227
v -3.625000 -0.698663 -6.329752
v -2.962500 -0.399402 -6.492267
v 1.024754 -1.139389 -5.633155
v -2.958407 -0.668375 -6.351758
v -2.962500 -0.392392 -6.494805
v 1.023148 -1.139200 -5.634077
v -2.960198 -0.655396 -6.360742
v -2.962500 -0.385365 -6.497298
v 1.021539 -1.139012 -5.634993
v -2.961477 -0.641938 -6.369787
v 1.019926 -1.138823 -5.635903
v 1.018310 -1.138636 -5.636807
v -2.962244 -0.627988 -6.378877
v 1.016691 -1.138449 -5.637705
v -2.962500 -0.613535 -6.388000
v 1.015068 -1.138262 -5.638596
v 1.013442 -1.138076 -5.639482
v -2.962500 -0.594421 -6.399616
v 1.011813 -1.137891 -5.640362
v -2.962500 -0.588000 -6.403407
v 1.010181 -1.137706 -5.641236
v -2.962500 -0.581555 -6.407156
v 1.008546 -1.137521 -5.642104
v 1.006908 -1.137338 -5.642965
v -2.962500 -0.575087 -6.410863
v 1.005267 -1.137155 -5.643820
v -2.962500 -0.568594 -6.414529
v 1.003623 -1.136972 -5.644669
v 1.001976 -1.136791 -5.645512
v 1.000327 -1.136610 -5.646349
v 0.998675 -1.136429 -5.647179
v 0.997020 -1.136250 -5.648003
v 0.995363 -1.136071 -5.648820
v 0.993704 -1.135893 -5.649632
v 0.992042 -1.135716 -5.650436
v 0.990377 -1.135540 -5.651235
v 0.988710 -1.135364 -5.652027
v 0.987041 -1.135189 -5.652812
v 0.985370 -1.135016 -5.653591
v -2.571803 -1.158039 -5.507308
v 0.983696 -1.134843 -5.654364
v -2.541617 -0.053600 -6.561762
v -2.540799 -0.080363 -6.560218
v 0.982020 -1.134671 -5.655130
v -2.539957 -0.107082 -6.558057
v 0.980341 -1.134500 -5.655890
v -2.539089 -0.133742 -6.555283
v 0.978660 -1.134329 -5.656643
v -2.538196 -0.160330 -6.551895
v 0.976976 -1.134160 -5.657391
v -2.537275 -0.186830 -6.547895
v 0.975290 -1.133992 -5.658131
v -2.536326 -0.213230 -6.543285
v 0.973601 -1.133824 -5.658866
v -2.535347 -0.239515 -6.538069
v 0.971910 -1.133658 -5.659594
v -2.534337 -0.265672 -6.532248
v 0.970217 -1.133492 -5.660316
v -2.533293 -0.291686 -6.525827
v 0.968520 -1.133328 -5.661032
v -2.532214 -0.317545 -6.518809
v 0.966822 -1.133164 -5.661741
v -2.531098 -0.343234 -6.511198
v 0.965120 -1.133001 -5.662444
v -2.529943 -0.368740 -6.502996
v 0.963416 -1.132840 -5.663141
v -2.528747 -0.394048 -6.494208
v 0.961709 -1.132679 -5.663831
v -2.527509 -0.419146 -6.484840
v -2.526226 -0.444019 -6.474898
v -2.571803 -0.420124 -6.484465
v -2.524897 -0.468653 -6.464389
v -2.523520 -0.493034 -6.453318
v -2.522094 -0.517149 -6.441692
v -2.520616 -0.540984 -6.429518
v -2.519084 -0.564525 -6.416801
v -2.517496 -0.587761 -6.403549
v -2.515847 -0.610681 -6.389770
v -2.514137 -0.633274 -6.375469
v -2.454850 -1.026064 -5.947490
v -2.512360 -0.655527 -6.360656
v -2.458543 -1.013166 -5.970993
v -2.510514 -0.677429 -6.345337
v -2.462172 -0.999738 -5.994183
v -2.508597 -0.698970 -6.329519
v -2.465725 -0.985793 -6.017044
v -2.506606 -0.720136 -6.313213
v -2.571803 -1.118603 -5.718270
v -2.504537 -0.740917 -6.296430
v -2.469191 -0.971341 -6.039559
v -2.502388 -0.761299 -6.279183
v -2.472556 -0.956396 -6.061711
v -2.500156 -0.781270 -6.261485
v -2.475808 -0.940969 -6.083484
v -2.497838 -0.800819 -6.243349
v -2.478940 -0.925070 -6.104867
v -2.495432 -0.819933 -6.224786
v -2.481955 -0.908701 -6.125855
v -2.492935 -0.838600 -6.205810
v -2.484858 -0.891867 -6.146445
v -2.490344 -0.856814 -6.186425
v -2.487652 -0.874570 -6.166636
v -3.203721 -0.213701 -4.256802
v -2.993082 -1.118603 -5.718270
v -3.414361 -1.158039 -5.292692
v -3.203721 -1.041075 -4.881606
v -3.203721 -1.158039 -5.507308
v -3.203721 -1.118603 -5.081730
v -3.203721 -1.158039 -5.292692
v -2.571803 -0.783508 -6.259467
v -2.571803 -1.041075 -5.918394
v -1.729245 -1.041075 -4.881606
v -1.939884 -0.783508 -4.540533
v -2.150524 -0.928094 -4.699136
v -1.939884 -0.928094 -4.699136
v -2.150524 -1.041075 -4.881606
v -1.729245 -0.928094 -4.699136
v -2.150524 -1.118603 -5.081730
v -2.150524 -1.158039 -5.292692
v -1.729245 -0.783508 -4.540533
v -1.518605 -0.783508 -4.540533
v -1.939884 -1.041075 -4.881606
v -1.939884 -1.118603 -5.718270
v -0.254768 -1.118603 -5.081730
v -1.939884 -1.158039 -5.507308
v -1.518605 -1.158039 -5.292692
v -1.518605 -1.158039 -5.507308
v -0.676047 -1.158039 -5.507308
v -1.307966 -1.158039 -5.507308
v -1.097326 -1.118603 -5.081730
v -0.465408 -1.158039 -5.507308
v -0.676047 -1.158039 -5.292692
v -1.097326 -1.158039 -5.292692
v -1.097326 -1.158039 -5.507308
v -0.886687 -1.041075 -4.881606
v -0.886687 -1.118603 -5.081730
v -0.676047 -1.118603 -5.081730
v -0.886687 -1.158039 -5.292692
v -0.886687 -1.158039 -5.507308
v -0.676047 -0.928094 -4.699136
v -0.254768 -1.158039 -5.292692
v -0.676047 -1.041075 -4.881606
v -0.465408 -1.158039 -5.292692
v -0.465408 -1.041075 -4.881606
v -0.465408 -1.118603 -5.081730
v -0.044129 -1.158039 -5.507308
v 1.009069 -0.420124 -4.315535
v 1.009069 -0.783508 -4.540533
v -1.729245 -1.158039 -5.292692
v -2.571803 -1.118603 -5.718270
v -3.098401 -1.158039 -5.292692
v -3.309041 -1.118603 -5.081730
v -2.571803 -0.928094 -6.100864
v -1.939884 -1.118603 -5.081730
v -1.834564 -0.928094 -4.699136
v -0.570728 -1.118603 -5.081730
v -0.360088 -1.158039 -5.292692
v 1.009069 -0.612241 -4.411197
v -3.045741 -1.158039 -5.507308
v -3.151061 -1.118603 -5.081730
f 1 2 3
f 1 4 5
f 6 7 8
f 9 10 6
f 6 11 12
f 13 14 6
f 6 15 16
f 17 18 6
f 6 19 20
f 21 22 6
f 22 23 24
f 24 25 26
f 26 27 28
f 28 29 30
f 30 31 32
f 32 33 34
f 5 35 36
f 37 38 5
f 39 40 41
f 42 43 41
f 41 44 45
f 46 47 41
f 41 48 49
f 50 51 41
f 51 52 53
f 53 54 41
f 41 55 56
f 56 57 58
f 58 59 60
f 60 61 62
f 62 63 64
f 64 65 66
f 66 67 68
f 68 69 6
f 6 70 71
f 71 72 73
f 73 74 75
f 75 76 77
f 77 78 79
f 79 80 81
f 81 82 83
f 83 84 85
f 85 86 87
f 87 88 89
f 89 90 91
f 91 92 93
f 93 94 95
f 95 96 97
f 97 98 99
f 99 100 101
f 101 102 103
f 103 104 105
f 106 107 108
f 109 110 111
f 112 113 110
f 114 115 116
f 116 115 117
f 117 115 118
f 118 115 119
f 120 121 122
f 123 121 120
f 124 125 126
f 124 127 128
f 129 130 131
f 132 130 133
f 134 130 135
f 136 135 137
f 136 137 134
f 136 138 139
f 140 141 136
f 136 142 143
f 144 145 146
f 147 148 146
f 146 149 150
f 151 152 146
f 146 153 154
f 155 156 157
f 158 159 160
f 161 162 163
f 164 165 166
f 167 168 169
f 170 171 172
f 173 168 174
f 175 176 177
f 178 159 179
f 180 159 178
f 180 181 159
f 182 183 184
f 185 186 187
f 187 188 189
f 190 185 187
f 187 191 192
f 193 194 187
f 187 195 196
f 197 186 187
f 186 198 199
f 105 200 201
f 105 202 203
f 105 204 205
f 105 206 207
f 105 208 209
f 105 210 211
f 105 212 1
f 213 214 215
f 213 216 217
f 213 218 219
f 213 220 221
f 213 222 223
f 213 224 225
f 213 226 227
f 213 228 229
f 230 231 5
f 232 233 5
f 233 234 235
f 235 236 237
f 230 238 239
f 240 213 230
f 241 242 1
f 3 4 1
f 9 6 8
f 13 6 12
f 17 6 16
f 21 6 20
f 22 24 26
f 26 28 30
f 30 32 34
f 37 5 36
f 42 41 40
f 46 41 45
f 50 41 49
f 51 53 41
f 6 56 58
f 60 62 6
f 62 64 66
f 66 68 6
f 85 71 73
f 75 77 85
f 77 79 81
f 81 83 85
f 91 105 89
f 91 93 105
f 93 95 97
f 97 99 101
f 101 103 105
f 243 106 108
f 111 244 109
f 110 113 245
f 246 115 114
f 247 122 248
f 247 248 249
f 119 115 250
f 120 122 251
f 252 121 123
f 126 125 253
f 127 124 254
f 135 130 132
f 134 255 130
f 140 136 139
f 136 141 142
f 147 146 145
f 151 146 150
f 155 157 146
f 158 181 256
f 161 257 162
f 258 259 165
f 167 173 260
f 173 174 261
f 175 177 262
f 179 159 263
f 264 181 182
f 190 187 189
f 193 187 192
f 197 187 196
f 199 200 105
f 203 204 105
f 207 208 105
f 211 212 105
f 215 216 213
f 219 220 213
f 223 224 213
f 227 228 213
f 232 5 231
f 238 235 237
f 239 240 230
f 242 2 1
f 6 10 11
f 6 18 19
f 22 26 30
f 5 34 35
f 41 43 44
f 41 47 48
f 60 6 58
f 62 66 6
f 75 85 73
f 77 81 85
f 105 93 101
f 93 97 101
f 265 243 108
f 244 266 267
f 110 245 268
f 269 115 246
f 247 249 270
f 270 249 271
f 119 250 272
f 251 122 273
f 274 121 275
f 253 125 276
f 127 254 277
f 133 130 278
f 136 134 138
f 146 148 149
f 146 152 153
f 256 181 279
f 280 281 257
f 282 283 259
f 260 173 284
f 173 261 285
f 286 177 287
f 263 159 288
f 187 264 188
f 187 194 195
f 201 202 105
f 209 210 105
f 217 218 213
f 213 225 226
f 233 235 238
f 1 213 241
f 6 14 15
f 34 22 30
f 39 41 38
f 6 41 56
f 105 85 87
f 105 87 89
f 289 265 108
f 290 267 291
f 110 268 292
f 293 115 269
f 270 271 294
f 294 271 295
f 272 250 296
f 273 122 297
f 298 121 274
f 276 125 299
f 127 277 300
f 129 131 301
f 144 146 143
f 279 181 302
f 280 303 281
f 304 305 283
f 284 173 306
f 173 285 307
f 287 177 308
f 288 159 309
f 264 187 184
f 205 206 105
f 221 222 213
f 230 233 238
f 22 38 6
f 43 6 38
f 105 73 85
f 310 289 108
f 311 312 290
f 110 292 313
f 314 115 293
f 294 295 315
f 315 295 316
f 296 250 317
f 297 122 318
f 298 299 319
f 276 299 320
f 127 300 321
f 301 131 322
f 157 156 323
f 302 181 324
f 325 326 303
f 327 328 305
f 306 173 329
f 173 307 330
f 331 177 332
f 309 159 333
f 187 185 191
f 1 214 213
f 6 5 7
f 73 105 6
f 334 310 108
f 335 312 336
f 110 313 337
f 338 115 314
f 315 316 339
f 339 316 340
f 317 250 341
f 318 122 342
f 299 298 343
f 127 344 125
f 321 300 345
f 322 131 346
f 148 136 143
f 324 181 347
f 348 326 325
f 348 325 328
f 329 173 349
f 330 307 350
f 332 177 351
f 22 1 5
f 352 334 353
f 354 355 312
f 110 337 356
f 357 115 338
f 339 340 358
f 358 340 359
f 341 250 360
f 342 122 361
f 299 343 320
f 321 345 362
f 346 131 363
f 347 181 364
f 365 348 328
f 280 325 303
f 349 173 366
f 350 307 367
f 351 177 368
f 369 6 105
f 370 352 108
f 371 355 372
f 110 356 373
f 357 374 115
f 358 359 375
f 375 359 376
f 360 250 377
f 361 122 378
f 379 125 344
f 321 362 380
f 278 130 129
f 364 181 381
f 327 365 328
f 161 280 257
f 366 173 382
f 367 307 383
f 351 368 384
f 385 370 108
f 386 387 355
f 110 373 388
f 389 374 357
f 375 376 390
f 390 376 391
f 377 250 392
f 361 247 393
f 394 379 344
f 321 380 395
f 396 323 397
f 381 181 398
f 399 327 305
f 400 161 163
f 382 173 401
f 383 307 402
f 351 384 403
f 404 385 108
f 405 387 406
f 388 373 407
f 408 374 389
f 390 391 409
f 409 391 410
f 392 250 411
f 393 247 412
f 394 344 413
f 321 395 414
f 155 146 154
f 398 181 415
f 416 399 305
f 400 163 417
f 401 173 418
f 402 307 419
f 420 351 403
f 421 404 108
f 422 387 423
f 388 407 424
f 425 374 408
f 410 391 426
f 410 426 427
f 411 250 428
f 412 247 429
f 394 413 430
f 321 431 432
f 396 157 323
f 415 181 433
f 304 416 305
f 400 417 434
f 418 173 435
f 419 307 436
f 437 421 108
f 438 439 422
f 424 407 440
f 441 374 425
f 427 426 442
f 427 442 443
f 428 250 444
f 429 247 444
f 430 413 445
f 321 432 446
f 396 397 447
f 433 181 448
f 449 304 283
f 400 434 450
f 435 173 451
f 436 307 452
f 453 437 454
f 455 439 456
f 440 407 457
f 458 374 441
f 443 442 459
f 443 459 460
f 429 444 250
f 430 445 461
f 321 446 462
f 447 397 463
f 448 181 464
f 282 449 283
f 450 434 465
f 451 173 466
f 452 307 467
f 468 453 469
f 470 471 455
f 440 457 472
f 473 374 458
f 460 459 474
f 460 474 475
f 476 121 299
f 461 445 477
f 321 462 478
f 447 463 479
f 464 181 480
f 481 282 259
f 482 450 483
f 466 173 484
f 452 485 486
f 487 453 468
f 472 457 488
f 489 374 473
f 475 474 490
f 475 490 491
f 476 299 492
f 461 477 493
f 478 462 494
f 495 496 479
f 480 181 497
f 258 481 259
f 483 450 465
f 484 173 498
f 486 485 499
f 500 487 468
f 472 488 501
f 502 374 489
f 491 490 503
f 491 503 504
f 476 492 505
f 493 477 506
f 494 462 507
f 495 508 496
f 497 181 509
f 510 258 165
f 511 450 482
f 498 173 512
f 499 485 513
f 514 500 468
f 501 488 515
f 516 374 502
f 504 503 517
f 504 517 518
f 505 492 519
f 493 506 520
f 494 507 521
f 508 495 522
f 509 181 523
f 164 510 165
f 524 450 511
f 512 173 525
f 513 485 526
f 527 514 468
f 515 488 528
f 529 374 516
f 518 517 530
f 518 530 531
f 505 519 532
f 520 506 533
f 521 507 534
f 523 181 535
f 536 164 166
f 400 450 537
f 512 171 538
f 526 485 539
f 540 527 468
f 515 528 541
f 529 542 374
f 531 530 543
f 531 543 544
f 532 519 545
f 520 533 546
f 534 507 547
f 535 181 548
f 549 536 166
f 550 450 524
f 538 171 551
f 539 485 552
f 553 540 468
f 541 528 554
f 555 542 529
f 544 543 556
f 544 556 557
f 532 545 558
f 546 533 559
f 534 560 561
f 548 181 562
f 549 166 563
f 564 450 550
f 551 171 565
f 552 485 566
f 567 553 468
f 541 554 568
f 569 542 555
f 557 556 570
f 557 570 571
f 558 545 572
f 546 559 573
f 561 560 574
f 562 181 575
f 549 563 576
f 465 577 578
f 565 171 579
f 566 485 580
f 581 567 582
f 568 554 583
f 584 542 569
f 571 570 585
f 571 585 586
f 558 572 587
f 573 559 588
f 574 560 589
f 575 181 590
f 576 563 591
f 592 450 564
f 579 171 593
f 580 485 594
f 595 581 113
f 583 554 596
f 597 542 584
f 586 585 598
f 585 599 598
f 587 572 600
f 573 588 601
f 574 589 602
f 590 181 603
f 591 563 604
f 605 450 592
f 593 171 606
f 594 485 607
f 608 595 113
f 583 596 609
f 610 542 597
f 598 599 611
f 599 612 611
f 587 600 613
f 601 588 614
f 602 589 615
f 603 181 616
f 604 563 617
f 465 578 618
f 606 171 619
f 607 485 620
f 112 608 113
f 609 596 621
f 622 542 610
f 611 612 623
f 612 624 623
f 613 600 625
f 601 614 626
f 615 589 627
f 616 181 628
f 604 617 629
f 630 450 605
f 619 171 631
f 620 485 632
f 112 110 633
f 609 621 634
f 635 542 622
f 623 624 636
f 624 637 636
f 613 625 638
f 626 614 639
f 615 627 640
f 628 181 641
f 629 617 642
f 643 450 630
f 631 171 644
f 620 632 645
f 633 110 646
f 634 621 647
f 648 542 635
f 636 637 649
f 637 650 649
f 638 625 651
f 626 639 652
f 640 627 653
f 641 181 654
f 642 617 655
f 465 618 656
f 644 171 657
f 645 632 658
f 109 646 110
f 647 621 659
f 660 542 648
f 649 650 661
f 650 662 661
f 638 651 663
f 652 639 664
f 653 627 665
f 654 181 666
f 642 655 667
f 668 450 643
f 657 171 669
f 658 632 670
f 109 244 267
f 647 659 671
f 672 542 660
f 661 662 673
f 662 674 673
f 663 651 675
f 652 664 676
f 653 665 677
f 666 181 678
f 667 655 679
f 680 450 668
f 669 171 681
f 670 632 682
f 267 266 291
f 671 659 683
f 672 684 542
f 673 674 685
f 674 686 685
f 663 675 687
f 676 664 688
f 677 665 689
f 678 181 690
f 679 655 691
f 465 656 692
f 681 171 693
f 682 632 694
f 290 312 267
f 671 683 695
f 696 684 672
f 685 686 697
f 686 698 697
f 687 675 699
f 676 688 700
f 689 665 701
f 690 181 702
f 679 691 159
f 703 450 680
f 693 171 704
f 694 632 705
f 336 312 311
f 695 683 706
f 707 684 696
f 697 698 708
f 698 709 708
f 687 699 710
f 700 688 711
f 689 701 712
f 702 181 713
f 159 691 714
f 465 692 715
f 704 171 716
f 705 632 717
f 354 312 335
f 706 683 718
f 719 684 707
f 708 709 720
f 709 721 720
f 710 699 722
f 700 711 723
f 724 701 725
f 713 181 726
f 159 714 727
f 728 450 703
f 716 171 729
f 717 632 730
f 372 355 354
f 706 718 731
f 732 684 719
f 720 721 733
f 721 734 733
f 710 722 735
f 723 711 736
f 725 701 737
f 726 181 738
f 159 727 739
f 740 450 728
f 729 171 741
f 730 632 742
f 386 355 371
f 731 718 743
f 744 684 732
f 733 734 745
f 734 746 745
f 735 722 747
f 723 736 748
f 725 737 749
f 738 181 750
f 159 739 751
f 465 715 752
f 741 171 753
f 742 632 754
f 406 387 386
f 731 743 755
f 756 684 744
f 745 746 757
f 758 746 759
f 735 747 760
f 748 736 761
f 749 737 762
f 750 181 763
f 159 751 764
f 765 450 740
f 753 171 766
f 754 632 767
f 423 387 405
f 768 684 756
f 758 757 746
f 769 759 770
f 760 747 771
f 748 761 772
f 762 737 773
f 763 181 774
f 159 764 775
f 776 450 765
f 766 171 777
f 754 767 778
f 422 439 387
f 779 684 768
f 769 758 759
f 780 770 781
f 760 771 782
f 772 761 783
f 762 773 784
f 774 181 785
f 159 775 786
f 465 752 787
f 777 171 170
f 778 767 788
f 456 439 438
f 468 684 779
f 780 769 770
f 187 781 789
f 782 771 790
f 772 783 791
f 784 773 792
f 785 181 793
f 159 786 794
f 795 450 776
f 172 171 796
f 788 767 797
f 455 471 439
f 582 684 468
f 187 780 781
f 782 790 798
f 791 783 799
f 792 773 800
f 793 181 801
f 159 794 802
f 465 787 803
f 796 171 804
f 797 767 805
f 806 471 470
f 582 807 684
f 187 789 808
f 798 790 809
f 791 799 810
f 792 800 811
f 793 812 813
f 159 802 814
f 815 450 795
f 804 171 816
f 805 767 817
f 818 471 806
f 582 819 807
f 798 809 820
f 810 799 821
f 811 800 822
f 813 812 823
f 159 814 824
f 465 803 825
f 816 171 826
f 817 767 827
f 828 471 818
f 582 829 819
f 820 809 830
f 810 821 831
f 811 822 832
f 823 812 833
f 159 824 834
f 465 825 835
f 826 171 836
f 827 767 837
f 828 838 471
f 582 839 829
f 820 830 840
f 831 821 841
f 811 832 842
f 833 812 843
f 159 834 844
f 465 835 845
f 836 171 846
f 837 767 847
f 848 838 828
f 582 849 839
f 840 830 850
f 831 841 851
f 842 832 852
f 843 812 853
f 159 844 854
f 465 845 855
f 846 171 856
f 847 767 857
f 858 838 848
f 582 859 849
f 840 850 860
f 851 841 861
f 842 852 862
f 853 812 863
f 159 854 864
f 465 855 865
f 856 171 450
f 857 767 866
f 867 838 858
f 582 868 859
f 860 850 869
f 851 861 870
f 842 862 871
f 159 864 872
f 465 865 873
f 856 450 815
f 866 767 874
f 875 838 867
f 582 876 868
f 860 869 877
f 870 861 878
f 842 871 879
f 159 872 880
f 465 873 881
f 866 874 882
f 875 883 838
f 582 884 876
f 877 869 885
f 870 878 886
f 842 879 887
f 159 880 888
f 465 881 889
f 882 874 890
f 891 883 875
f 582 892 884
f 877 885 893
f 886 878 894
f 887 879 895
f 159 888 896
f 465 889 897
f 890 874 898
f 899 883 891
f 468 567 900
f 893 885 901
f 886 894 902
f 887 895 903
f 159 896 904
f 465 897 905
f 898 874 906
f 907 883 899
f 581 582 908
f 893 901 909
f 902 894 910
f 887 903 911
f 159 904 912
f 465 905 913
f 906 874 914
f 907 915 883
f 581 908 916
f 909 901 917
f 902 910 918
f 887 911 919
f 176 912 920
f 465 913 921
f 914 874 922
f 923 915 907
f 581 916 924
f 909 917 925
f 918 910 926
f 919 911 927
f 920 928 176
f 465 921 929
f 914 922 930
f 931 915 923
f 581 924 113
f 925 917 932
f 918 926 933
f 919 927 934
f 176 928 935
f 465 929 936
f 930 922 937
f 938 915 931
f 755 743 939
f 925 932 940
f 933 926 941
f 919 934 942
f 935 943 176
f 465 936 944
f 937 922 945
f 946 915 938
f 755 939 947
f 940 932 948
f 933 941 949
f 919 942 950
f 176 943 951
f 465 944 952
f 945 922 953
f 946 954 915
f 947 939 955
f 940 948 956
f 949 941 957
f 919 950 958
f 951 959 176
f 465 952 960
f 953 922 961
f 962 954 946
f 955 939 963
f 956 948 964
f 949 957 965
f 958 950 966
f 176 959 967
f 465 960 968
f 953 961 969
f 970 954 962
f 955 963 971
f 956 964 972
f 965 957 973
f 958 966 974
f 967 975 176
f 465 968 976
f 969 961 977
f 978 954 970
f 971 963 979
f 972 964 980
f 965 973 981
f 958 974 982
f 176 975 983
f 465 976 984
f 977 961 985
f 986 954 978
f 971 979 987
f 972 980 988
f 981 973 989
f 958 982 990
f 983 991 176
f 465 984 992
f 985 961 993
f 986 994 954
f 987 979 995
f 988 980 996
f 981 989 997
f 990 982 998
f 176 991 999
f 465 992 1000
f 993 961 1001
f 1002 994 986
f 995 979 1003
f 988 996 1004
f 997 989 1005
f 990 998 1006
f 999 1007 176
f 465 1000 1008
f 993 1001 1009
f 1010 994 1002
f 995 1003 1011
f 1004 996 1012
f 997 1005 1013
f 990 1006 1014
f 176 1007 1015
f 465 1008 1016
f 1009 1001 1017
f 1018 994 1010
f 1011 1003 1019
f 1004 1012 1020
f 1013 1005 1021
f 990 1014 1022
f 1015 1023 176
f 465 1016 1024
f 1017 1001 1025
f 1018 105 994
f 1011 1019 1026
f 1020 1012 1027
f 1013 1021 1028
f 990 1022 1029
f 176 1023 1030
f 465 1024 1031
f 1025 1001 1032
f 105 1018 1033
f 1026 1019 1034
f 1020 1027 1035
f 1028 1021 1036
f 1029 1022 1037
f 1030 1038 176
f 465 1031 1039
f 1025 1032 1040
f 105 1033 1041
f 1034 1019 1042
f 1035 1027 1043
f 1028 1036 1044
f 1029 1037 1045
f 176 1038 1046
f 465 1039 1047
f 1040 1032 1048
f 105 1041 1049
f 1034 1042 1050
f 1035 1043 1051
f 1044 1036 1052
f 1029 1045 1053
f 1046 1054 176
f 465 1047 1055
f 1048 1032 1056
f 105 1049 1057
f 1050 1042 1058
f 1051 1043 1059
f 1044 1052 1060
f 1029 1053 1061
f 176 1054 1062
f 465 1055 1063
f 1056 1032 1064
f 105 1057 1065
f 1050 1058 1066
f 1051 1059 1067
f 1060 1052 1068
f 1061 1053 1069
f 1062 1070 176
f 465 1063 1071
f 1064 1032 1072
f 105 1065 369
f 1066 1058 1073
f 1067 1059 1074
f 1060 1068 1075
f 1061 1069 1076
f 176 1070 1077
f 465 1071 1078
f 1064 1072 1079
f 369 1 1080
f 1073 1058 1081
f 1067 1074 1082
f 1075 1068 1083
f 1061 1076 1084
f 1077 1085 176
f 465 1078 1086
f 1079 1072 1087
f 105 1088 1089
f 1073 1081 1090
f 1082 1074 1091
f 1075 1083 1092
f 1061 1084 363
f 176 1085 1093
f 465 1086 1094
f 1087 1072 1095
f 105 1089 1096
f 1090 1081 1097
f 1082 1091 1098
f 1092 1083 1099
f 1061 363 131
f 1093 1100 176
f 465 1094 1101
f 1087 1102 1103
f 105 1096 1104
f 1090 1097 1105
f 1098 1091 1106
f 1092 1099 1107
f 447 479 496
f 176 1100 1108
f 465 1101 1109
f 1103 1102 1110
f 105 1104 1111
f 1105 1097 1112
f 1098 1106 1113
f 1107 1099 1114
f 508 522 1115
f 1108 1116 176
f 465 1109 1117
f 1110 1102 1118
f 105 1111 1119
f 1112 1097 1120
f 1113 1106 1121
f 1107 1114 1122
f 1115 522 1123
f 176 1116 1124
f 465 1117 1125
f 1118 1102 1126
f 105 1119 1127
f 1112 1120 1128
f 1113 1121 1129
f 1122 1114 1130
f 1115 1123 1131
f 1124 1132 176
f 465 1125 1133
f 1118 1126 1134
f 105 1127 1135
f 1128 1120 1136
f 1129 1121 1137
f 1122 1130 1138
f 1139 1131 1123
f 176 1132 1140
f 465 1133 1141
f 1134 1126 1142
f 1143 105 1135
f 1128 1136 1144
f 1129 1137 1145
f 1138 1130 1146
f 1139 812 1131
f 1140 1147 176
f 465 1141 1148
f 1142 1126 1149
f 1144 1136 1150
f 1145 1137 1151
f 1138 1146 1152
f 812 1139 1153
f 176 1147 1154
f 537 1141 1155
f 1142 1149 1156
f 1150 1136 1157
f 1145 1151 1158
f 1152 1146 1159
f 1160 812 1153
f 1154 1161 176
f 537 1155 1162
f 1156 1149 1163
f 1150 1157 1164
f 1158 1151 1165
f 176 1161 1166
f 537 1162 1167
f 1163 1149 1168
f 1164 1157 1169
f 1158 1165 1170
f 1166 1171 176
f 537 1167 1172
f 1163 1173 1174
f 1164 1169 1175
f 1170 1165 1176
f 176 1171 1177
f 537 1172 1178
f 1174 1173 1179
f 1175 1169 1180
f 1170 1176 1181
f 1177 1182 176
f 537 1178 1183
f 1179 1173 1184
f 1180 1169 1185
f 1181 1176 1186
f 176 1182 1187
f 537 1183 1188
f 1179 1184 1189
f 1180 1185 1190
f 1181 1186 1191
f 1187 1192 176
f 537 1188 1193
f 1189 1184 1194
f 1190 1185 1195
f 1191 1186 1196
f 176 1192 1197
f 537 1193 1198
f 1189 1194 1199
f 1190 1195 1135
f 1197 1200 176
f 537 1198 1201
f 1199 1194 1201
f 1135 1195 1202
f 176 1200 1203
f 1194 537 1204
f 1194 1205 537
f 1135 1202 1206
f 1203 1207 176
f 537 1205 1208
f 1209 1210 1211
f 1135 1206 1212
f 537 1213 1214
f 1215 1216 1217
f 1135 1212 1218
f 537 1214 1219
f 1220 1221 1222
f 1135 1218 1223
f 537 1219 1224
f 1225 1226 1227
f 1135 1223 1143
f 537 1228 1229
f 1225 1230 1226
f 199 105 1231
f 537 1232 1233
f 1225 1234 1235
f 1143 1236 199
f 537 1233 1237
f 1225 1238 1234
f 199 1236 1239
f 1237 1233 1240
f 1225 1241 1242
f 1239 1243 199
f 1240 1233 1244
f 1225 1245 1246
f 199 1243 1247
f 1240 1210 1209
f 1225 1248 1245
f 1247 1249 199
f 1250 1211 1210
f 1251 1252 1248
f 199 1249 1253
f 1250 1254 1211
f 1251 1255 1252
f 1253 1256 199
f 1250 1257 1254
f 1251 1258 1259
f 199 1256 1260
f 1250 1216 1257
f 1251 1261 1262
f 1260 1263 199
f 1215 1264 1216
f 1251 1265 1261
f 199 1263 1266
f 1215 1267 1264
f 1251 1268 1269
f 1266 1270 199
f 1271 1267 1272
f 1251 1273 1274
f 199 1270 1275
f 1271 1276 1267
f 1251 1277 1273
f 1275 1278 199
f 1271 1279 1276
f 351 1277 1280
f 199 1278 1281
f 1271 1282 1279
f 351 1283 1277
f 1281 1284 199
f 1285 1282 1271
f 351 1286 1283
f 199 1284 1287
f 1285 1288 1282
f 1286 351 1289
f 1287 1290 199
f 1285 1291 1288
f 1289 351 1292
f 199 1290 1293
f 1285 1294 1291
f 1293 1295 199
f 1294 1285 1221
f 199 1295 1296
f 1294 1221 1297
f 1296 1298 199
f 1297 1221 1299
f 199 1298 1300
f 1299 1221 1220
f 1300 1301 199
f 1221 1302 1222
f 199 1301 1303
f 1221 1304 1302
f 1303 1305 199
f 1221 1306 1304
f 199 1305 1307
f 1225 1306 1221
f 1307 1308 199
f 1225 1309 1306
f 199 1308 1310
f 1225 1311 1309
f 1310 1312 199
f 1225 1227 1311
f 199 1312 1313
f 1225 1235 1230
f 1313 1314 199
f 1225 1242 1238
f 199 1314 1315
f 1225 1246 1241
f 1315 1316 199
f 1251 1248 1225
f 199 1316 1317
f 1251 1259 1255
f 1317 1318 199
f 1251 1262 1258
f 199 1318 1319
f 1251 1269 1265
f 1319 1320 199
f 1251 1274 1268
f 199 1320 1321
f 1292 351 420
f 1321 1322 199
f 1207 177 176
f 199 1322 1323
f 176 159 1324
f 1323 1325 199
f 1203 1326 1327
f 199 1325 1328
f 1203 1327 1329
f 1328 1330 199
f 1203 1329 1331
f 199 1330 1332
f 1203 1331 1333
f 1332 1334 199
f 1203 1333 1335
f 199 1334 1336
f 1203 1335 1337
f 1336 1338 199
f 1203 1337 1339
f 199 1338 1340
f 1203 1339 1341
f 1340 1342 199
f 1203 1341 1343
f 199 1342 1344
f 1203 1343 1345
f 1344 1346 199
f 1203 1345 1347
f 199 1346 1348
f 1203 1347 1349
f 199 1348 1350
f 1203 1349 1351
f 199 1350 1352
f 1203 1351 1353
f 199 1352 187
f 1203 1353 1354
f 187 808 185
f 1203 1354 1355
f 185 808 1191
f 1203 1356 1357
f 185 1191 1196
f 1203 1357 1358
f 185 1196 1152
f 1203 1358 1359
f 185 1152 1159
f 1203 1359 1360
f 185 1159 812
f 1203 1360 1361
f 185 812 181
f 1203 1361 1362
f 863 812 1160
f 1203 1362 1363
f 333 159 1364
f 1203 1363 1365
f 1366 1364 159
f 1203 1365 1367
f 1368 1366 159
f 1203 1367 1369
f 1370 1368 159
f 1203 1369 1371
f 1370 159 1372
f 1203 1371 1373
f 1370 1203 1374
f 1203 1373 1375
f 1374 1203 1376
f 1203 1375 1377
f 1376 1203 1378
f 1203 1377 1379
f 1378 1203 1380
f 1203 1379 1381
f 1380 1203 1382
f 1203 1381 1383
f 1382 1203 1384
f 1203 1383 1385
f 1384 1203 1386
f 1386 1203 1385
f 168 173 169
f 173 167 1387
f 307 485 467
f 485 452 467
f 1072 1102 1095
f 1102 1087 1095
f 1149 1173 1168
f 1173 1163 1168
f 537 1201 1388
f 1201 1194 1389
f 537 1389 1204
f 1389 1194 1204
f 1205 1213 1208
f 1213 537 1208
f 1219 1228 1224
f 1228 537 1224
f 1233 1210 1244
f 1210 1240 1244
f 1267 1215 1272
f 1215 1271 1272
f 1277 1251 1280
f 1251 351 1280
f 177 331 308
f 331 287 308
f 167 169 1387
f 169 173 1387
f 1389 1436 1201
f 1436 1390 1201
f 1389 537 1391
f 537 1390 1392
f 1390 1436 1392
f 1436 1389 1392
f 537 1392 1393
f 1392 1389 1393
f 537 1393 1391
f 1393 1389 1391
f 1228 1232 1229
f 1232 537 1229
f 1216 1250 1217
f 1250 1215 1217
f 173 171 525
f 171 512 525
f 1141 537 1148
f 537 465 1148
f 1390 1444 1201
f 1444 1435 1201
f 1435 1443 1201
f 1443 1388 1201
f 1388 1443 537
f 1443 1435 537
f 1435 1444 537
f 1444 1390 537
f 177 286 262
f 286 175 262
f 159 912 1324
f 912 176 1394
f 159 1203 1372
f 1203 1370 1372
f 1324 1434 176
f 1434 1395 176
f 1395 1434 912
f 1434 1324 912
f 1395 1437 176
f 1437 1394 176
f 1394 1437 912
f 1437 1395 912
f 1354 1356 1355
f 1356 1203 1355
f 159 181 160
f 181 158 1396
f 158 160 1397
f 160 181 1398
f 158 1398 1399
f 1398 181 1400
f 158 1400 1401
f 1400 181 1402
f 158 1402 1403
f 1402 181 1403
f 160 1398 1397
f 1398 158 1404
f 1398 1400 1399
f 1405 1439 158
f 1439 1400 158
f 1400 1402 1406
f 1402 158 1406
f 181 812 1407
f 812 793 1408
f 812 1409 1407
f 1409 181 1407
f 158 1397 1404
f 1397 1398 1404
f 1400 1406 1401
f 1406 158 1401
f 1403 1438 158
f 1438 1396 158
f 1396 1438 181
f 1438 1403 181
f 158 1399 1405
f 1400 1439 1399
f 1439 1405 1399
f 1409 1433 181
f 1433 801 181
f 801 1433 793
f 1433 1409 793
f 793 1409 1410
f 1409 812 1411
f 812 1410 1412
f 1410 1409 1411
f 1410 1411 1413
f 1411 812 1413
f 793 1410 1414
f 1410 812 1415
f 812 1414 1416
f 1414 1410 1417
f 1410 1413 1418
f 1413 812 1418
f 793 1414 1419
f 1414 812 1420
f 812 1419 1421
f 1419 1414 1420
f 1414 1417 1422
f 1417 812 1422
f 1410 1418 1423
f 1418 812 1423
f 793 1419 1424
f 1425 1440 812
f 1440 1419 812
f 812 1424 1426
f 1424 1419 1426
f 1419 1420 1421
f 1420 812 1427
f 1414 1422 1416
f 1422 812 1416
f 1410 1423 1412
f 1423 812 1412
f 793 1424 1428
f 1424 812 1428
f 812 1426 1429
f 1426 1419 1429
f 1421 1441 812
f 1441 1430 812
f 1421 1420 1427
f 812 1417 1415
f 1417 1410 1415
f 793 1428 1408
f 1428 812 1408
f 812 1429 1425
f 1419 1440 1429
f 1440 1425 1429
f 1430 1441 1427
f 1441 1421 1427
f 1427 812 1430
f 395 431 414
f 431 321 414
f 507 560 547
f 560 534 547
f 701 724 712
f 724 689 712
f 127 125 128
f 125 124 128
f 121 252 275
f 252 274 275
f 299 121 319
f 121 298 319
f 122 247 378
f 247 361 378
f 453 108 1431
f 108 468 1432
f 567 892 900
f 892 468 900
f 1431 1442 468
f 1442 1432 468
f 1432 1442 108
f 1442 1431 108
f 334 108 353
f 108 352 353
f 437 108 454
f 108 453 454
f 453 1431 469
f 1431 468 469
f 105 1143 1231
f 1143 199 1231
f 1 6 1080
f 6 369 1080
f 108 892 468
f 176 1326 1203
f 229 230 213
f 237 171 1428
f 577 450 465
f 450 1207 1388
f 177 247 1418
f 444 110 268
f 1088 369 105
f 122 125 121
f 299 321 127
f 255 136 134
f 136 146 143
