v -0.367119 0.010000 -0.560467
v -0.365081 0.010000 -0.561797
v -0.363038 0.010000 -0.563119
v -0.360990 0.010000 -0.564434
v -0.358938 0.010000 -0.565742
v -0.356881 0.010000 -0.567042
v -0.354819 0.010000 -0.568334
v -0.352752 0.010000 -0.569619
v -0.350681 0.010000 -0.570897
v -0.348605 0.010000 -0.572167
v -0.346524 0.010000 -0.573429
v -0.344439 0.010000 -0.574684
v -0.342349 0.010000 -0.575931
v -0.340255 0.010000 -0.577171
v -0.338156 0.010000 -0.578403
v -0.336053 0.010000 -0.579628
v -0.333946 0.010000 -0.580844
v -0.331834 0.010000 -0.582054
v -0.329717 0.010000 -0.583255
v -0.327597 0.010000 -0.584449
v -0.325472 0.010000 -0.585635
v -0.323342 0.010000 -0.586813
v -0.321209 0.010000 -0.587984
v -0.319071 0.010000 -0.589147
v -0.316929 0.010000 -0.590302
v -0.314783 0.010000 -0.591449
v -0.312632 0.010000 -0.592588
v -0.310478 0.010000 -0.593720
v -0.308319 0.010000 -0.594844
v -0.306156 0.010000 -0.595960
v -0.303990 0.010000 -0.597068
v -0.301819 0.010000 -0.598168
v -0.367119 0.000000 -0.560467
v -0.365081 0.000000 -0.561797
v -0.363038 0.000000 -0.563119
v -0.360990 0.000000 -0.564434
v -0.358938 0.000000 -0.565742
v -0.356881 0.000000 -0.567042
v -0.354819 0.000000 -0.568334
v -0.352752 0.000000 -0.569619
v -0.350681 0.000000 -0.570897
v -0.348605 0.000000 -0.572167
v -0.346524 0.000000 -0.573429
v -0.344439 0.000000 -0.574684
v -0.342349 0.000000 -0.575931
v -0.340255 0.000000 -0.577171
v -0.338156 0.000000 -0.578403
v -0.336053 0.000000 -0.579628
v -0.333946 0.000000 -0.580844
v -0.331834 0.000000 -0.582054
v -0.329717 0.000000 -0.583255
v -0.327597 0.000000 -0.584449
v -0.325472 0.000000 -0.585635
v -0.323342 0.000000 -0.586813
v -0.321209 0.000000 -0.587984
v -0.319071 0.000000 -0.589147
v -0.316929 0.000000 -0.590302
v -0.314783 0.000000 -0.591449
v -0.312632 0.000000 -0.592588
v -0.310478 0.000000 -0.593720
v -0.308319 0.000000 -0.594844
v -0.306156 0.000000 -0.595960
v -0.303990 0.000000 -0.597068
v -0.301819 0.000000 -0.598168
f 1 2 34
f 1 34 33
f 2 3 35
f 2 35 34
f 3 4 36
f 3 36 35
f 4 5 37
f 4 37 36
f 5 6 38
f 5 38 37
f 6 7 39
f 6 39 38
f 7 8 40
f 7 40 39
f 8 9 41
f 8 41 40
f 9 10 42
f 9 42 41
f 10 11 43
f 10 43 42
f 11 12 44
f 11 44 43
f 12 13 45
f 12 45 44
f 13 14 46
f 13 46 45
f 14 15 47
f 14 47 46
f 15 16 48
f 15 48 47
f 16 17 49
f 16 49 48
f 17 18 50
f 17 50 49
f 18 19 51
f 18 51 50
f 19 20 52
f 19 52 51
f 20 21 53
f 20 53 52
f 21 22 54
f 21 54 53
f 22 23 55
f 22 55 54
f 23 24 56
f 23 56 55
f 24 25 57
f 24 57 56
f 25 26 58
f 25 58 57
f 26 27 59
f 26 59 58
f 27 28 60
f 27 60 59
f 28 29 61
f 28 61 60
f 29 30 62
f 29 62 61
f 30 31 63
f 30 63 62
f 31 32 64
f 31 64 63
