v -0.280505 0.564107 -1.084841
v -0.280505 0.564107 -1.061000
v -0.229977 0.438333 -1.061000
v -0.229977 0.438333 -1.120893
v -0.230892 0.440610 -1.120241
v -0.231808 0.442888 -1.119588
v -0.232723 0.445167 -1.118935
v -0.233638 0.447446 -1.118283
v -0.234554 0.449725 -1.117630
v -0.235470 0.452004 -1.116977
v -0.236386 0.454284 -1.116324
v -0.237302 0.456564 -1.115670
v -0.238218 0.458845 -1.115017
v -0.239134 0.461126 -1.114363
v -0.240051 0.463407 -1.113710
v -0.240967 0.465688 -1.113056
v -0.241884 0.467970 -1.112402
v -0.242801 0.470252 -1.111748
v -0.243718 0.472535 -1.111094
v -0.244635 0.474818 -1.110440
v -0.245552 0.477101 -1.109786
v -0.246469 0.479385 -1.109131
v -0.247387 0.481668 -1.108477
v -0.248305 0.483953 -1.107822
v -0.249222 0.486237 -1.107167
v -0.250140 0.488522 -1.106512
v -0.251058 0.490807 -1.105857
v -0.251977 0.493093 -1.105202
v -0.252895 0.495379 -1.104547
v -0.253813 0.497665 -1.103892
v -0.254732 0.499952 -1.103236
v -0.255651 0.502239 -1.102581
v -0.256570 0.504526 -1.101925
v -0.257489 0.506813 -1.101269
v -0.258408 0.509101 -1.100613
v -0.259327 0.511390 -1.099957
v -0.260246 0.513678 -1.099301
v -0.261166 0.515967 -1.098645
v -0.262085 0.518256 -1.097989
v -0.263005 0.520546 -1.097332
v -0.263925 0.522835 -1.096676
v -0.264845 0.525126 -1.096019
v -0.265765 0.527416 -1.095363
v -0.266686 0.529707 -1.094706
v -0.267606 0.531998 -1.094049
v -0.268527 0.534289 -1.093392
v -0.269447 0.536581 -1.092735
v -0.270368 0.538873 -1.092078
v -0.271289 0.541166 -1.091420
v -0.272210 0.543458 -1.090763
v -0.273131 0.545751 -1.090105
v -0.274053 0.548045 -1.089448
v -0.274974 0.550338 -1.088790
v -0.275896 0.552632 -1.088132
v -0.276817 0.554927 -1.087474
v -0.277739 0.557221 -1.086816
v -0.278661 0.559516 -1.086158
v -0.279583 0.561811 -1.085500
f 1 3 2
f 1 4 3
f 1 5 4
f 1 6 5
f 1 7 6
f 1 8 7
f 1 9 8
f 1 10 9
f 1 11 10
f 1 12 11
f 1 13 12
f 1 14 13
f 1 15 14
f 1 16 15
f 1 17 16
f 1 18 17
f 1 19 18
f 1 20 19
f 1 21 20
f 1 22 21
f 1 23 22
f 1 24 23
f 1 25 24
f 1 26 25
f 1 27 26
f 1 28 27
f 1 29 28
f 1 30 29
f 1 31 30
f 1 32 31
f 1 33 32
f 1 34 33
f 1 35 34
f 1 36 35
f 1 37 36
f 1 38 37
f 1 39 38
f 1 40 39
f 1 41 40
f 1 42 41
f 1 43 42
f 1 44 43
f 1 45 44
f 1 46 45
f 1 47 46
f 1 48 47
f 1 49 48
f 1 50 49
f 1 51 50
f 1 52 51
f 1 53 52
f 1 54 53
f 1 55 54
f 1 56 55
f 1 57 56
f 1 58 57
