v -0.339869 -0.530461 -1.051000
v -0.338286 -0.531472 -1.051000
v -0.336700 -0.532478 -1.051000
v -0.335111 -0.533480 -1.051000
v -0.333519 -0.534477 -1.051000
v -0.331924 -0.535469 -1.051000
v -0.330326 -0.536456 -1.051000
v -0.328725 -0.537438 -1.051000
v -0.327121 -0.538416 -1.051000
v -0.325514 -0.539389 -1.051000
v -0.323904 -0.540357 -1.051000
v -0.322292 -0.541321 -1.051000
v -0.320676 -0.542279 -1.051000
v -0.319058 -0.543233 -1.051000
v -0.317437 -0.544182 -1.051000
v -0.315813 -0.545126 -1.051000
v -0.314186 -0.546065 -1.051000
v -0.312557 -0.546999 -1.051000
v -0.310924 -0.547929 -1.051000
v -0.309289 -0.548853 -1.051000
v -0.307651 -0.549773 -1.051000
v -0.306011 -0.550688 -1.051000
v -0.304368 -0.551598 -1.051000
v -0.302722 -0.552503 -1.051000
v -0.301073 -0.553403 -1.051000
v -0.299422 -0.554298 -1.051000
v -0.297767 -0.555189 -1.051000
v -0.296111 -0.556074 -1.051000
v -0.294451 -0.556955 -1.051000
v -0.292790 -0.557830 -1.051000
v -0.291125 -0.558700 -1.051000
v -0.289458 -0.559566 -1.051000
v -0.238840 -0.433567 -1.051000
v -0.239401 -0.433257 -1.051000
v -0.239963 -0.432947 -1.051000
v -0.240524 -0.432635 -1.051000
v -0.241084 -0.432323 -1.051000
v -0.241644 -0.432011 -1.051000
v -0.242204 -0.431697 -1.051000
v -0.242763 -0.431383 -1.051000
v -0.243322 -0.431068 -1.051000
v -0.243880 -0.430752 -1.051000
v -0.244438 -0.430436 -1.051000
v -0.244996 -0.430119 -1.051000
v -0.245553 -0.429801 -1.051000
v -0.246110 -0.429482 -1.051000
v -0.246666 -0.429163 -1.051000
v -0.247222 -0.428843 -1.051000
v -0.247778 -0.428522 -1.051000
v -0.248333 -0.428201 -1.051000
v -0.248888 -0.427878 -1.051000
v -0.249442 -0.427556 -1.051000
v -0.249996 -0.427232 -1.051000
v -0.250549 -0.426908 -1.051000
v -0.251102 -0.426583 -1.051000
v -0.251655 -0.426257 -1.051000
v -0.252207 -0.425930 -1.051000
v -0.252759 -0.425603 -1.051000
v -0.253310 -0.425275 -1.051000
v -0.253861 -0.424947 -1.051000
v -0.254411 -0.424617 -1.051000
v -0.254962 -0.424287 -1.051000
v -0.255511 -0.423956 -1.051000
v -0.256060 -0.423625 -1.051000
v -0.264618 -0.418333 -1.061000
v -0.348278 -0.524978 -1.061000
f 66 1 2
f 66 2 3
f 66 3 4
f 66 4 5
f 66 5 6
f 66 6 7
f 66 7 8
f 66 8 9
f 66 9 10
f 66 10 11
f 66 11 12
f 66 12 13
f 66 13 14
f 66 14 15
f 66 15 16
f 66 16 17
f 66 17 18
f 66 18 19
f 66 19 20
f 66 20 21
f 66 21 22
f 66 22 23
f 66 23 24
f 66 24 25
f 66 25 26
f 66 26 27
f 66 27 28
f 66 28 29
f 66 29 30
f 66 30 31
f 66 31 32
f 66 32 33
f 66 33 34
f 66 34 35
f 66 35 36
f 66 36 37
f 66 37 38
f 66 38 39
f 66 39 40
f 66 40 41
f 66 41 42
f 66 42 43
f 66 43 44
f 66 44 45
f 66 45 46
f 66 46 47
f 66 47 48
f 66 48 49
f 66 49 50
f 66 50 51
f 66 51 52
f 66 52 53
f 66 53 54
f 66 54 55
f 66 55 56
f 66 56 57
f 66 57 58
f 66 58 59
f 66 59 60
f 66 60 61
f 66 61 62
f 66 62 63
f 66 63 64
f 64 65 66
