v 0.530461 -0.339869 -1.051000
v 0.531472 -0.338286 -1.051000
v 0.532478 -0.336700 -1.051000
v 0.533480 -0.335111 -1.051000
v 0.534477 -0.333519 -1.051000
v 0.535469 -0.331924 -1.051000
v 0.536456 -0.330326 -1.051000
v 0.537438 -0.328725 -1.051000
v 0.538416 -0.327121 -1.051000
v 0.539389 -0.325514 -1.051000
v 0.540357 -0.323904 -1.051000
v 0.541321 -0.322292 -1.051000
v 0.542279 -0.320676 -1.051000
v 0.543233 -0.319058 -1.051000
v 0.544182 -0.317437 -1.051000
v 0.545126 -0.315813 -1.051000
v 0.546065 -0.314186 -1.051000
v 0.546999 -0.312557 -1.051000
v 0.547929 -0.310924 -1.051000
v 0.548853 -0.309289 -1.051000
v 0.549773 -0.307651 -1.051000
v 0.550688 -0.306011 -1.051000
v 0.551598 -0.304368 -1.051000
v 0.552503 -0.302722 -1.051000
v 0.553403 -0.301073 -1.051000
v 0.554298 -0.299422 -1.051000
v 0.555189 -0.297767 -1.051000
v 0.556074 -0.296111 -1.051000
v 0.556955 -0.294451 -1.051000
v 0.557830 -0.292790 -1.051000
v 0.558700 -0.291125 -1.051000
v 0.559566 -0.289458 -1.051000
v 0.433567 -0.238840 -1.051000
v 0.433257 -0.239401 -1.051000
v 0.432947 -0.239963 -1.051000
v 0.432635 -0.240524 -1.051000
v 0.432323 -0.241084 -1.051000
v 0.432011 -0.241644 -1.051000
v 0.431697 -0.242204 -1.051000
v 0.431383 -0.242763 -1.051000
v 0.431068 -0.243322 -1.051000
v 0.430752 -0.243880 -1.051000
v 0.430436 -0.244438 -1.051000
v 0.430119 -0.244996 -1.051000
v 0.429801 -0.245553 -1.051000
v 0.429482 -0.246110 -1.051000
v 0.429163 -0.246666 -1.051000
v 0.428843 -0.247222 -1.051000
v 0.428522 -0.247778 -1.051000
v 0.428201 -0.248333 -1.051000
v 0.427878 -0.248888 -1.051000
v 0.427556 -0.249442 -1.051000
v 0.427232 -0.249996 -1.051000
v 0.426908 -0.250549 -1.051000
v 0.426583 -0.251102 -1.051000
v 0.426257 -0.251655 -1.051000
v 0.425930 -0.252207 -1.051000
v 0.425603 -0.252759 -1.051000
v 0.425275 -0.253310 -1.051000
v 0.424947 -0.253861 -1.051000
v 0.424617 -0.254411 -1.051000
v 0.424287 -0.254962 -1.051000
v 0.423956 -0.255511 -1.051000
v 0.423625 -0.256060 -1.051000
v 0.418333 -0.264618 -1.061000
v 0.524978 -0.348278 -1.061000
f 66 1 2
f 66 2 3
f 66 3 4
f 66 4 5
f 66 5 6
f 66 6 7
f 66 7 8
f 66 8 9
f 66 9 10
f 66 10 11
f 66 11 12
f 66 12 13
f 66 13 14
f 66 14 15
f 66 15 16
f 66 16 17
f 66 17 18
f 66 18 19
f 66 19 20
f 66 20 21
f 66 21 22
f 66 22 23
f 66 23 24
f 66 24 25
f 66 25 26
f 66 26 27
f 66 27 28
f 66 28 29
f 66 29 30
f 66 30 31
f 66 31 32
f 66 32 33
f 66 33 34
f 66 34 35
f 66 35 36
f 66 36 37
f 66 37 38
f 66 38 39
f 66 39 40
f 66 40 41
f 66 41 42
f 66 42 43
f 66 43 44
f 66 44 45
f 66 45 46
f 66 46 47
f 66 47 48
f 66 48 49
f 66 49 50
f 66 50 51
f 66 51 52
f 66 52 53
f 66 53 54
f 66 54 55
f 66 55 56
f 66 56 57
f 66 57 58
f 66 58 59
f 66 59 60
f 66 60 61
f 66 61 62
f 66 62 63
f 66 63 64
f 64 65 66
