v -0.495000 0.000000 -1.051000
v -0.494997 0.001604 -1.051000
v -0.494990 0.003207 -1.051000
v -0.494977 0.004811 -1.051000
v -0.494958 0.006415 -1.051000
v -0.494935 0.008018 -1.051000
v -0.494900 0.009942 -1.051000
v -0.562893 0.012544 -1.053878
v -0.562801 0.013185 -1.053293
v -0.562686 0.013994 -1.052685
v -0.562542 0.015002 -1.052088
v -0.562368 0.016223 -1.051562
v -0.562167 0.017636 -1.051178
v -0.561902 0.019494 -1.051000
v -0.631186 0.022279 -1.053878
v -0.631094 0.022920 -1.053293
v -0.630979 0.023730 -1.052685
v -0.630835 0.024738 -1.052088
v -0.630661 0.025958 -1.051562
v -0.630460 0.027372 -1.051178
v -0.630195 0.029229 -1.051000
f 1 9 2
f 1 8 9
f 2 10 3
f 2 9 10
f 3 11 4
f 3 10 11
f 4 12 5
f 4 11 12
f 5 13 6
f 5 12 13
f 6 14 7
f 6 13 14
f 8 16 9
f 8 15 16
f 9 17 10
f 9 16 17
f 10 18 11
f 10 17 18
f 11 19 12
f 11 18 19
f 12 20 13
f 12 19 20
f 13 21 14
f 13 20 21
