v 0.540915 0.010000 0.395361
v 0.542465 0.010000 0.393232
v 0.544006 0.010000 0.391097
v 0.545539 0.010000 0.388956
v 0.547064 0.010000 0.386809
v 0.548580 0.010000 0.384656
v 0.550088 0.010000 0.382497
v 0.551587 0.010000 0.380332
v 0.553077 0.010000 0.378161
v 0.554559 0.010000 0.375984
v 0.556033 0.010000 0.373801
v 0.540915 0.220000 0.395361
v 0.542465 0.220000 0.393232
v 0.544006 0.220000 0.391097
v 0.545539 0.220000 0.388956
v 0.547064 0.220000 0.386809
v 0.548580 0.220000 0.384656
v 0.550088 0.220000 0.382497
v 0.551587 0.220000 0.380332
v 0.553077 0.220000 0.378161
v 0.554559 0.220000 0.375984
v 0.556033 0.220000 0.373801
f 1 2 13
f 1 13 12
f 2 3 14
f 2 14 13
f 3 4 15
f 3 15 14
f 4 5 16
f 4 16 15
f 5 6 17
f 5 17 16
f 6 7 18
f 6 18 17
f 7 8 19
f 7 19 18
f 8 9 20
f 8 20 19
f 9 10 21
f 9 21 20
f 10 11 22
f 10 22 21
