v 1.935000 -0.300000 -4.837000
v 1.934461 -0.300000 -4.826377
v 1.932851 -0.300000 -4.815864
v 1.930185 -0.300000 -4.805567
v 1.926491 -0.300000 -4.795593
v 1.921806 -0.300000 -4.786043
v 1.916180 -0.300000 -4.777017
v 1.909670 -0.300000 -4.768606
v 1.902342 -0.300000 -4.760897
v 1.894271 -0.300000 -4.753969
v 1.885541 -0.300000 -4.747892
v 1.876241 -0.300000 -4.742731
v 1.866467 -0.300000 -4.738536
v 1.856319 -0.300000 -4.735352
v 1.845900 -0.300000 -4.733211
v 1.835318 -0.300000 -4.732135
v 1.824682 -0.300000 -4.732135
v 1.814100 -0.300000 -4.733211
v 1.803681 -0.300000 -4.735352
v 1.793533 -0.300000 -4.738536
v 1.783759 -0.300000 -4.742731
v 1.774459 -0.300000 -4.747892
v 1.765729 -0.300000 -4.753969
v 1.757658 -0.300000 -4.760897
v 1.750330 -0.300000 -4.768606
v 1.743820 -0.300000 -4.777017
v 1.738194 -0.300000 -4.786043
v 1.733509 -0.300000 -4.795593
v 1.729815 -0.300000 -4.805567
v 1.727149 -0.300000 -4.815864
v 1.725539 -0.300000 -4.826377
v 1.725000 -0.300000 -4.837000
v 1.935000 -0.350000 -4.837000
v 1.934461 -0.350000 -4.826377
v 1.932851 -0.350000 -4.815864
v 1.930185 -0.350000 -4.805567
v 1.926491 -0.350000 -4.795593
v 1.921806 -0.350000 -4.786043
v 1.916180 -0.350000 -4.777017
v 1.909670 -0.350000 -4.768606
v 1.902342 -0.350000 -4.760897
v 1.894271 -0.350000 -4.753969
v 1.885541 -0.350000 -4.747892
v 1.876241 -0.350000 -4.742731
v 1.866467 -0.350000 -4.738536
v 1.856319 -0.350000 -4.735352
v 1.845900 -0.350000 -4.733211
v 1.835318 -0.350000 -4.732135
v 1.824682 -0.350000 -4.732135
v 1.814100 -0.350000 -4.733211
v 1.803681 -0.350000 -4.735352
v 1.793533 -0.350000 -4.738536
v 1.783759 -0.350000 -4.742731
v 1.774459 -0.350000 -4.747892
v 1.765729 -0.350000 -4.753969
v 1.757658 -0.350000 -4.760897
v 1.750330 -0.350000 -4.768606
v 1.743820 -0.350000 -4.777017
v 1.738194 -0.350000 -4.786043
v 1.733509 -0.350000 -4.795593
v 1.729815 -0.350000 -4.805567
v 1.727149 -0.350000 -4.815864
v 1.725539 -0.350000 -4.826377
v 1.725000 -0.350000 -4.837000
f 1 34 2
f 1 33 34
f 2 35 3
f 2 34 35
f 3 36 4
f 3 35 36
f 4 37 5
f 4 36 37
f 5 38 6
f 5 37 38
f 6 39 7
f 6 38 39
f 7 40 8
f 7 39 40
f 8 41 9
f 8 40 41
f 9 42 10
f 9 41 42
f 10 43 11
f 10 42 43
f 11 44 12
f 11 43 44
f 12 45 13
f 12 44 45
f 13 46 14
f 13 45 46
f 14 47 15
f 14 46 47
f 15 48 16
f 15 47 48
f 16 49 17
f 16 48 49
f 17 50 18
f 17 49 50
f 18 51 19
f 18 50 51
f 19 52 20
f 19 51 52
f 20 53 21
f 20 52 53
f 21 54 22
f 21 53 54
f 22 55 23
f 22 54 55
f 23 56 24
f 23 55 56
f 24 57 25
f 24 56 57
f 25 58 26
f 25 57 58
f 26 59 27
f 26 58 59
f 27 60 28
f 27 59 60
f 28 61 29
f 28 60 61
f 29 62 30
f 29 61 62
f 30 63 31
f 30 62 63
f 31 64 32
f 31 63 64
