v -2.962500 0.350000 -6.509085
v -2.543183 0.000000 -6.563000
v -2.993082 0.213701 -6.543198
v -3.625000 0.000000 -4.237000
v -2.915000 0.000000 -4.237000
v -3.414361 0.213701 -4.256802
v -3.337500 0.350000 -4.290915
v -2.915000 0.008010 -4.237028
v -2.915000 0.016020 -4.237110
v -2.689185 0.591815 -4.398837
v -3.025565 0.737607 -4.500833
v -2.699383 0.588033 -4.396612
v -3.625000 1.117083 -5.723567
v -2.849137 0.811457 -6.233131
v -2.858062 0.808242 -6.236250
v -2.540000 0.617304 -4.414350
v -1.171011 0.617304 -4.414350
v -1.160925 0.624045 -4.418606
v -0.629446 0.783469 -4.540497
v -0.624011 0.783512 -4.540536
v -0.547324 0.784966 -4.541864
v -0.618573 0.783563 -4.540583
v -0.613131 0.783622 -4.540637
v -0.607684 0.783690 -4.540698
v -0.602232 0.783765 -4.540767
v -0.596775 0.783848 -4.540843
v -0.591312 0.783940 -4.540926
v -0.585842 0.784040 -4.541017
v -0.580365 0.784147 -4.541116
v -0.574880 0.784263 -4.541221
v -0.569387 0.784387 -4.541335
v -0.563885 0.784520 -4.541456
v -0.558375 0.784660 -4.541584
v -0.552854 0.784809 -4.541720
v -0.541782 0.785132 -4.542015
v -0.536230 0.785305 -4.542174
v -0.530665 0.785487 -4.542341
v -0.525088 0.785677 -4.542515
v 0.375000 0.929952 -4.701603
v -0.519500 0.785875 -4.542697
v -0.513902 0.786080 -4.542885
v -0.508296 0.786291 -4.543078
v -0.502683 0.786506 -4.543276
v -0.497064 0.786726 -4.543478
v -0.491442 0.786948 -4.543682
v -0.485818 0.787173 -4.543889
v -0.480193 0.787399 -4.544097
v 0.357065 0.624510 -4.418906
v 0.385871 0.609051 -4.409233
v 0.510000 0.929952 -4.701603
v 0.377150 0.783508 -4.540533
v 0.825000 0.929952 -4.701603
v 0.599906 0.457007 -4.330561
v 0.619013 0.438925 -4.323012
v 0.514373 0.527201 -4.363355
v 0.735000 0.929952 -4.701603
v 0.587790 0.783508 -4.540533
v 0.825131 0.017123 -4.237126
v 1.375000 0.000000 -4.237000
v 1.375000 0.046829 -4.237943
v 0.700984 0.346436 -4.289799
v 0.960000 0.954457 -4.735484
v 0.798429 0.783508 -4.540533
v 0.825423 0.000000 -4.237000
v 1.185000 1.159802 -5.486182
v 1.380127 1.163000 -5.400024
v 1.385267 1.163000 -5.400096
v 1.390419 1.163000 -5.400215
v 1.395585 1.163001 -5.400383
v 1.400763 1.163001 -5.400599
v 1.405954 1.163001 -5.400863
v 1.411157 1.163001 -5.401177
v 1.416372 1.163000 -5.401540
v 1.421600 1.163000 -5.401953
v 1.426839 1.162999 -5.402415
v 1.432091 1.162998 -5.402928
v 1.437354 1.162996 -5.403491
v 1.442629 1.162993 -5.404105
v 1.447915 1.162991 -5.404770
v 1.453213 1.162987 -5.405487
v 1.458522 1.162983 -5.406255
v 1.463842 1.162978 -5.407075
v 1.469173 1.162973 -5.407947
v 1.474515 1.162966 -5.408872
v 1.479868 1.162959 -5.409850
v 1.485232 1.162950 -5.410881
v 1.490609 1.162940 -5.411967
v 1.495997 1.162929 -5.413107
v 1.501398 1.162915 -5.414302
v 1.506812 1.162899 -5.415553
v 1.512240 1.162881 -5.416860
v 1.517682 1.162861 -5.418224
v 1.523137 1.162838 -5.419646
v 1.528608 1.162812 -5.421125
v 1.534093 1.162782 -5.422662
v 1.539593 1.162750 -5.424259
v 1.545110 1.162713 -5.425914
v 1.550642 1.162673 -5.427630
v 1.556192 1.162629 -5.429406
v 1.561758 1.162581 -5.431244
v 1.567341 1.162528 -5.433143
v 1.572942 1.162470 -5.435104
v 1.578561 1.162408 -5.437127
v 1.050000 1.142465 -5.617582
v 1.584198 1.162340 -5.439214
v 1.589851 1.162266 -5.441363
v 1.595521 1.162186 -5.443577
v 1.601208 1.162099 -5.445854
v 1.606910 1.162005 -5.448195
v 1.612628 1.161903 -5.450600
v 1.618360 1.161793 -5.453070
v 1.624107 1.161674 -5.455606
v 1.629869 1.161547 -5.458206
v 1.635644 1.161410 -5.460872
v 1.641433 1.161263 -5.463604
v 1.647234 1.161106 -5.466403
v 1.653048 1.160937 -5.469267
v 1.658874 1.160758 -5.472199
v 1.664712 1.160567 -5.475198
v 1.670562 1.160364 -5.478264
v 1.676422 1.160148 -5.481398
v 1.683578 1.159870 -5.485263
v 1.690729 1.159580 -5.489125
v 1.697875 1.159277 -5.492985
v 1.705017 1.158961 -5.496842
v 1.712154 1.158633 -5.500697
v 1.719287 1.158292 -5.504549
v 1.726416 1.157938 -5.508399
v 1.733540 1.157571 -5.512247
v 1.740660 1.157192 -5.516093
v 1.747776 1.156800 -5.519936
v 1.754888 1.156395 -5.523777
v 1.761996 1.155978 -5.527616
v 1.769101 1.155548 -5.531453
v 1.776201 1.155105 -5.535288
v 1.783298 1.154650 -5.539121
v 1.790391 1.154181 -5.542952
v 1.797481 1.153701 -5.546781
v 1.804567 1.153207 -5.550608
v 1.811650 1.152701 -5.554434
v 1.818729 1.152182 -5.558257
v 1.825804 1.151650 -5.562078
v 1.832876 1.151106 -5.565897
v 1.839942 1.150549 -5.569714
v 1.847004 1.149980 -5.573528
v 1.854061 1.149398 -5.577340
v 1.861113 1.148804 -5.581148
v 1.868158 1.148197 -5.584953
v 2.057054 1.121082 -5.709427
v 1.875198 1.147579 -5.588756
v 1.882231 1.146947 -5.592554
v 1.889258 1.146304 -5.596349
v 1.896278 1.145648 -5.600141
v 1.903290 1.144980 -5.603928
v 1.910295 1.144300 -5.607711
v 1.917293 1.143608 -5.611490
v 1.924281 1.142904 -5.615265
v 1.931262 1.142187 -5.619035
v 1.938234 1.141459 -5.622801
v 1.945196 1.140719 -5.626561
v 1.952150 1.139967 -5.630317
v 1.959095 1.139203 -5.634068
v 1.966031 1.138427 -5.637814
v 1.972959 1.137639 -5.641555
v 1.979878 1.136839 -5.645292
v 1.986788 1.136027 -5.649024
v 1.993690 1.135204 -5.652752
v 2.061697 1.125754 -5.691972
v 2.000584 1.134368 -5.656475
v 2.007469 1.133521 -5.660194
v 2.014347 1.132662 -5.663909
v 2.021216 1.131791 -5.667619
v 2.028077 1.130908 -5.671324
v 2.034930 1.130014 -5.675026
v 2.041776 1.129107 -5.678723
v 2.048614 1.128189 -5.682416
v 2.055444 1.127259 -5.686105
v 2.062266 1.126318 -5.689790
v 2.061982 1.126036 -5.690881
v 2.061411 1.125470 -5.693064
v 2.061125 1.125185 -5.694155
v 2.060838 1.124900 -5.695246
v 2.060551 1.124613 -5.696337
v 2.060263 1.124325 -5.697428
v 2.059974 1.124035 -5.698520
v 2.059685 1.123745 -5.699611
v 2.059395 1.123454 -5.700702
v 2.059104 1.123161 -5.701792
v 2.058813 1.122867 -5.702883
v 2.058522 1.122573 -5.703974
v 2.058229 1.122277 -5.705065
v 2.057936 1.121980 -5.706155
v 2.057643 1.121681 -5.707246
v 2.057348 1.121382 -5.708337
v 0.285000 1.124068 -5.698397
v 2.056758 1.120780 -5.710518
v 2.056462 1.120477 -5.711608
v 2.056166 1.120174 -5.712698
v 2.055868 1.119869 -5.713788
v 2.055570 1.119563 -5.714879
v 2.055272 1.119256 -5.715969
v 2.054973 1.118947 -5.717059
v 2.054673 1.118638 -5.718149
v 2.054373 1.118327 -5.719238
v 2.054072 1.118016 -5.720328
v 2.053771 1.117703 -5.721418
v 2.053469 1.117389 -5.722508
v 2.053166 1.117074 -5.723597
v 2.052863 1.116758 -5.724687
v 2.052559 1.116440 -5.725776
v 2.052254 1.116122 -5.726866
v 2.051949 1.115802 -5.727955
v 2.051644 1.115481 -5.729044
v 2.051337 1.115160 -5.730133
v 2.051030 1.114837 -5.731222
v 2.050723 1.114513 -5.732311
v 2.050415 1.114187 -5.733400
v 2.050106 1.113861 -5.734489
v 2.049797 1.113533 -5.735577
v 2.049487 1.113205 -5.736666
v 2.049176 1.112875 -5.737754
v 2.048865 1.112544 -5.738843
v 2.048553 1.112212 -5.739931
v 2.048241 1.111879 -5.741019
v 2.047928 1.111545 -5.742107
v 2.047614 1.111209 -5.743195
v 2.047300 1.110873 -5.744283
v 2.046985 1.110535 -5.745371
v 2.046670 1.110196 -5.746459
v 2.046354 1.109856 -5.747546
v 2.046037 1.109515 -5.748634
v 2.045720 1.109173 -5.749721
v -2.425000 1.109173 -5.749721
v -2.428570 1.100779 -5.775306
v -2.432229 1.091808 -5.800660
v -2.637500 0.350000 -6.509085
v -2.435956 1.082263 -5.825776
v -2.439728 1.072148 -5.850645
v -2.443525 1.061466 -5.875259
v -2.447324 1.050222 -5.899610
v -3.625000 0.000000 -6.563000
v -3.625000 0.093583 -6.559229
v -3.625000 0.093583 -4.240771
v -2.915000 0.024029 -4.237248
v -2.709456 0.583993 -4.394256
v -3.029526 0.747945 -4.509412
v -1.150844 0.630616 -4.422815
v 0.327174 0.639598 -4.428672
v 0.375000 0.945882 -4.723335
v 0.579891 0.474897 -4.338383
v 0.600000 0.929952 -4.701603
v 0.600000 0.945882 -4.723335
v 0.824246 0.034406 -4.237509
v 0.825000 0.945882 -4.723335
v 0.778863 0.215062 -4.257059
v 1.375000 0.093583 -4.240771
v 0.770255 0.233743 -4.260734
v 0.739488 0.290071 -4.273755
v 0.961659 0.954919 -4.736148
v -2.542411 0.026808 -6.562690
v -3.625000 0.186558 -4.252061
v -2.915000 0.032036 -4.237441
v -3.625000 1.087424 -5.812405
v -2.866780 0.804487 -6.239863
v -2.678876 0.595338 -4.400927
v -1.140770 0.637019 -4.426976
v -0.474569 0.787625 -4.544305
v 0.296180 0.654276 -4.438493
v 0.510000 0.945882 -4.723335
v 0.558967 0.492574 -4.346465
v 0.735000 0.945882 -4.723335
v 0.825000 0.961305 -4.745430
v 0.960000 0.968508 -4.756136
v 0.750584 0.271265 -4.269080
v 1.009069 0.420124 -4.315535
v -2.541617 0.053600 -6.561762
v -3.625000 0.278324 -4.270795
v -2.915000 0.040043 -4.237690
v -3.022114 0.726761 -4.492045
v -2.840075 0.814119 -6.230529
v -1.130704 0.643255 -4.431087
v 0.264063 0.668505 -4.448330
v 0.375000 0.961305 -4.745430
v 0.537132 0.510013 -4.354793
v 0.587790 0.612241 -4.411197
v 0.600000 0.961305 -4.745430
v 0.822750 0.051845 -4.238156
v 0.825000 0.976212 -4.767877
v 0.960000 0.982112 -4.777084
v 0.963317 0.955385 -4.736819
v 1.045329 1.141882 -5.620621
v -2.451106 1.038420 -5.923691
v -2.540799 0.080363 -6.560218
v -3.625000 0.368285 -4.296852
v -2.915000 0.048047 -4.237993
v -2.719389 0.579699 -4.391775
v -3.033980 0.757752 -4.517740
v -1.120648 0.649326 -4.435144
v -0.468947 0.787850 -4.544512
v 0.230808 0.682247 -4.458143
v 0.510000 0.961305 -4.745430
v 0.735000 0.961305 -4.745430
v 0.820626 0.069438 -4.239074
v 0.825000 0.990595 -4.790664
v 0.960000 0.995264 -4.798320
v 0.964975 0.955855 -4.737496
v -2.454850 1.026064 -5.947490
v -2.539957 0.107082 -6.558057
v -3.337500 0.358224 -4.293544
v -2.915000 0.056049 -4.238351
v -2.875221 0.800202 -6.243947
v -2.668472 0.598602 -4.402879
v -1.110604 0.655233 -4.439145
v -0.463329 0.788074 -4.544718
v 0.196502 0.695438 -4.467858
v 0.375000 0.976212 -4.767877
v 0.490665 0.544128 -4.372139
v 0.600000 0.976212 -4.767877
v 0.817858 0.087180 -4.240272
v 0.825000 1.004446 -4.813777
v 0.960000 1.007956 -4.819833
v 0.966632 0.956328 -4.738180
v 1.048446 1.142271 -5.618602
v -3.337500 0.366428 -4.296234
v -2.915000 0.064049 -4.238765
v -3.019180 0.715433 -4.483093
v -2.657987 0.601604 -4.404688
v -1.100573 0.660979 -4.443089
v -0.457717 0.788295 -4.544922
v 0.161333 0.707995 -4.477370
v 0.510000 0.976212 -4.767877
v 0.465986 0.560785 -4.381131
v 0.735000 0.976212 -4.767877
v 0.814428 0.105070 -4.241756
v 0.825000 1.017758 -4.837205
v 0.960000 1.020183 -4.841614
v 0.968289 0.956806 -4.738871
v -2.539089 0.133742 -6.555283
v -3.337500 0.374612 -4.298985
v -2.915000 0.072045 -4.239234
v -2.738791 0.570369 -4.386467
v -2.729171 0.575155 -4.389176
v -3.625000 1.139497 -5.632630
v -2.993082 0.928094 -6.100864
v -1.090557 0.666565 -4.446971
v -0.452112 0.788512 -4.545122
v 0.125495 0.719832 -4.486574
v 0.375000 0.990595 -4.790664
v 0.440310 0.577165 -4.390320
v 0.600000 0.990595 -4.790664
v 0.810317 0.123102 -4.243534
v 0.825000 1.030523 -4.860935
v 0.960000 1.031940 -4.863652
v 0.969945 0.957288 -4.739569
v -2.571803 0.213701 -6.543198
v -3.337500 0.382775 -4.301796
v -2.915000 0.080038 -4.239757
v -3.625000 1.050713 -5.898569
v -2.883360 0.795383 -6.248491
v -3.038901 0.767015 -4.525782
v -1.080558 0.671992 -4.450791
v -0.639110 0.783404 -4.540437
v 0.089181 0.730864 -4.495363
v 0.166511 0.783508 -4.540533
v 0.510000 0.990595 -4.790664
v 0.735000 0.990595 -4.790664
v 0.805507 0.141265 -4.245611
v 0.825000 1.042735 -4.884955
v 0.960000 1.043221 -4.885938
v 0.760834 0.252483 -4.264740
v -2.538196 0.160330 -6.551895
v -2.537275 0.186830 -6.547895
v -3.337500 0.390917 -4.304668
v -2.915000 0.088027 -4.240336
v -3.016773 0.703653 -4.474019
v -2.647437 0.604345 -4.406351
v -1.070577 0.677262 -4.454544
v -0.446515 0.788726 -4.545319
v 0.052584 0.741006 -4.503630
v 0.375000 1.004446 -4.813777
v 0.413613 0.593258 -4.399693
v 0.600000 1.004446 -4.813777
v 0.799976 0.159552 -4.247996
v 0.825000 1.054388 -4.909251
v 0.960000 1.054020 -4.908461
v 0.971600 0.957773 -4.740273
v -2.536326 0.213230 -6.543285
v -3.337500 0.399038 -4.307600
v -2.915000 0.096012 -4.240970
v -3.014902 0.691440 -4.464862
v -2.748237 0.565345 -4.383655
v -2.830947 0.816217 -6.228468
v -1.060616 0.682376 -4.458230
v -0.440929 0.788933 -4.545510
v 0.015891 0.750187 -4.511281
v 0.510000 1.004446 -4.813777
v 0.735000 1.004446 -4.813777
v 0.793705 0.177954 -4.250695
v 0.960000 1.064334 -4.931211
v 0.825000 1.065475 -4.933810
v 1.375000 0.140184 -4.245480
v 1.375000 0.186558 -4.252061
v -2.535347 0.239515 -6.538069
v -3.337500 0.407136 -4.310592
v -2.915000 0.103993 -4.241659
v -2.891199 0.790017 -6.253489
v -3.044260 0.775726 -4.533502
v -1.050677 0.687337 -4.461845
v -0.435354 0.789135 -4.545696
v -0.020731 0.758402 -4.518271
v 0.375000 1.017758 -4.837205
v 0.510000 1.017758 -4.837205
v 0.600000 1.017758 -4.837205
v 0.786674 0.196460 -4.253714
v 0.960000 1.074156 -4.954177
v 0.825000 1.075989 -4.958620
v 1.375000 0.232630 -4.260503
v -2.534337 0.265672 -6.532248
v -3.337500 0.415213 -4.313645
v -2.915000 0.111968 -4.242402
v -2.757497 0.560090 -4.380750
v -2.636836 0.606823 -4.407863
v -1.040761 0.692146 -4.465387
v -0.429793 0.789329 -4.545876
v -0.057121 0.765662 -4.524570
v 0.375000 1.030523 -4.860935
v 0.510000 1.030523 -4.860935
v 0.735000 1.017758 -4.837205
v 0.960000 1.083483 -4.977349
v 0.825000 1.085926 -4.983666
v 1.375000 0.278324 -4.270795
v -2.533293 0.291686 -6.525827
v -3.414361 0.420124 -4.315535
v -2.915000 0.119938 -4.243201
v -3.013567 0.678786 -4.455636
v -2.821794 0.817751 -6.226955
v -1.030870 0.696805 -4.468854
v -0.424246 0.789515 -4.546047
v -0.093120 0.771977 -4.530145
v 0.375000 1.042735 -4.884955
v 0.510000 1.042735 -4.884955
v 0.600000 1.030523 -4.860935
v 0.960000 1.092310 -5.000715
v 0.825000 1.095280 -5.008937
v 1.375000 0.323567 -4.282917
v -2.532214 0.317545 -6.518809
v -2.531098 0.343234 -6.511198
v -3.625000 0.455857 -4.330064
v -3.337500 0.423266 -4.316757
v -2.993082 0.213701 -4.256802
v -3.625000 1.007188 -5.981500
v -2.898742 0.784089 -6.258938
v -2.626199 0.609036 -4.409220
v -1.021004 0.701315 -4.472243
v -0.418715 0.789692 -4.546211
v -0.128565 0.777359 -4.534963
v 0.375000 1.054388 -4.909251
v 0.510000 1.054388 -4.909251
v 0.735000 1.030523 -4.860935
v 0.960000 1.100633 -5.024266
v 0.825000 1.104046 -5.034417
v 1.375000 0.368285 -4.296852
v -3.337500 0.431296 -4.319929
v -3.012500 0.350000 -4.290915
v -2.915000 0.127903 -4.244055
v -2.766559 0.554609 -4.377757
v -3.050027 0.783873 -4.540865
v -1.011160 0.705678 -4.475555
v 0.285000 0.929952 -4.701603
v 0.285000 0.945882 -4.723335
v -0.163301 0.781818 -4.538995
v 0.375000 1.065475 -4.933810
v 0.510000 1.065475 -4.933810
v 0.600000 1.042735 -4.884955
v 0.727529 0.308881 -4.278768
v 0.960000 1.108449 -5.047990
v 0.825000 1.112220 -5.060093
v 1.375000 0.412405 -4.312576
v -3.337500 0.439302 -4.323161
v -2.915000 0.135861 -4.244963
v -3.012766 0.665670 -4.446347
v -2.775413 0.548909 -4.374686
v -1.001336 0.709899 -4.478788
v -0.413199 0.789861 -4.546367
v -0.197275 0.785379 -4.542238
v 0.375000 1.075989 -4.958620
v 0.510000 1.075989 -4.958620
v 0.735000 1.042735 -4.884955
v 0.714697 0.327677 -4.284118
v 0.960000 1.115753 -5.071877
v 0.825000 1.119796 -5.085952
v 1.375000 0.455857 -4.330064
v -3.337500 0.447284 -4.326452
v -2.915000 0.143813 -4.245926
v -2.905990 0.777586 -6.264830
v -3.069516 0.804976 -4.560605
v -3.076663 0.810945 -4.566371
v -0.991528 0.713979 -4.481944
v -0.407697 0.790021 -4.546515
v -0.230535 0.788081 -4.544716
v 0.375000 1.085926 -4.983666
v 0.510000 1.085926 -4.983666
v 0.600000 1.054388 -4.909251
v 0.960000 1.122542 -5.095915
v 0.825000 1.126771 -5.111979
v 1.219708 0.420124 -4.315535
v -3.337500 0.455241 -4.329802
v -2.915000 0.151758 -4.246944
v -2.784047 0.542997 -4.371544
v -2.812620 0.818735 -6.225980
v -0.981733 0.717920 -4.485020
v -0.263136 0.789964 -4.546455
v 0.375000 1.095280 -5.008937
v 0.510000 1.095280 -5.008937
v 0.735000 1.054388 -4.909251
v 0.686386 0.365137 -4.295808
v 0.960000 1.128814 -5.120093
v 0.825000 1.133141 -5.138161
v 1.375000 0.498569 -4.349287
v 1.375000 0.540473 -4.370215
v -3.337500 0.463174 -4.333211
v -2.915000 0.159696 -4.248016
v -3.012500 0.652074 -4.437000
v -2.792449 0.536879 -4.368339
v -2.803426 0.819185 -6.225533
v -0.971949 0.721726 -4.488018
v -0.295131 0.791068 -4.547483
v 0.375000 1.104046 -5.034417
v 0.510000 1.104046 -5.034417
v 0.600000 1.065475 -4.933810
v 0.670895 0.383758 -4.302139
v 0.960000 1.134565 -5.144400
v 0.825000 1.138903 -5.164484
v 1.375000 0.581500 -4.392812
v -3.337500 0.471080 -4.336679
v -2.915000 0.167627 -4.249144
v -3.625000 0.957130 -6.060659
v -2.912921 0.770496 -6.271153
v -2.794214 0.819115 -6.225603
v -0.962171 0.725399 -4.490937
v -0.326574 0.791432 -4.547824
v 0.375000 1.112220 -5.060093
v 0.510000 1.112220 -5.060093
v 0.735000 1.065475 -4.933810
v 0.654505 0.402278 -4.308789
v 0.960000 1.139793 -5.168825
v 0.825000 1.144054 -5.190933
v 1.375000 0.621584 -4.417044
v -3.337500 0.478961 -4.340205
v -2.915000 0.175549 -4.250325
v -3.012500 0.644907 -4.432186
v -2.784996 0.818524 -6.226191
v -0.952397 0.728941 -4.493776
v -0.331919 0.791393 -4.547788
v 0.375000 1.119796 -5.085952
v 0.510000 1.119796 -5.085952
v 0.600000 1.075989 -4.958620
v 0.637212 0.420674 -4.315751
v 0.960000 1.144495 -5.193357
v 0.825000 1.148591 -5.217494
v 1.219708 0.612241 -4.411197
v -3.337500 0.486815 -4.343790
v -2.915000 0.183463 -4.251562
v -2.800612 0.530569 -4.365081
v -2.775789 0.817396 -6.227306
v -0.942625 0.732356 -4.496535
v -0.337270 0.791347 -4.547744
v 0.375000 1.126771 -5.111979
v 0.510000 1.126771 -5.111979
v 0.735000 1.075989 -4.958620
v 0.960000 1.148668 -5.217984
v 0.960000 1.152313 -5.242695
v 1.219708 0.783508 -4.540533
v -3.337500 0.494643 -4.347433
v -2.915000 0.191369 -4.252853
v -2.919504 0.762813 -6.277889
v -2.766613 0.815715 -6.228962
v -0.932850 0.735645 -4.499214
v -0.342629 0.791293 -4.547694
v 0.375000 1.133141 -5.138161
v 0.510000 1.133141 -5.138161
v 0.600000 1.085926 -4.983666
v 0.825000 1.152511 -5.244153
v 0.960000 1.155425 -5.267479
v 1.375000 0.660659 -4.442870
v 1.375000 0.698663 -4.470248
v -3.337500 0.502443 -4.351134
v -2.915000 0.199265 -4.254198
v -3.012500 0.637704 -4.427425
v -2.757488 0.813466 -6.231169
v -0.923070 0.738812 -4.501813
v -0.347996 0.791231 -4.547637
v 0.375000 1.138903 -5.164484
v 0.510000 1.138903 -5.164484
v 0.735000 1.085926 -4.983666
v 0.600000 1.095280 -5.008937
v 0.825000 1.155812 -5.270896
v 0.960000 1.158005 -5.292324
v 1.375000 0.735534 -4.499134
v -3.625000 0.540473 -4.370215
v -2.915000 0.207152 -4.255598
v -3.012500 0.630467 -4.422718
v -2.808527 0.524077 -4.361780
v -2.748464 0.810653 -6.233913
v -0.913282 0.741859 -4.504332
v -0.353371 0.791161 -4.547572
v 0.375000 1.144054 -5.190933
v 0.510000 1.144054 -5.190933
v 0.735000 1.095280 -5.008937
v 0.600000 1.104046 -5.034417
v 0.825000 1.158493 -5.297708
v 0.960000 1.160050 -5.317218
v 1.375000 0.771212 -4.529482
v -3.337500 0.510216 -4.354893
v -2.915000 0.215029 -4.257051
v -3.625000 0.900866 -6.135534
v -2.925704 0.754526 -6.285020
v -2.739610 0.807296 -6.237162
v -0.903483 0.744788 -4.506769
v -0.358755 0.791084 -4.547500
v 0.375000 1.148591 -5.217494
v 0.510000 1.148591 -5.217494
v 0.735000 1.104046 -5.034417
v 0.600000 1.112220 -5.060093
v 0.825000 1.160552 -5.324575
v 0.960000 1.161560 -5.342151
v 0.973255 0.958263 -4.740984
v -3.337500 0.517960 -4.358709
v -2.915000 0.222896 -4.258560
v -3.012500 0.623194 -4.418064
v -2.730999 0.803418 -6.240885
v -0.893669 0.747603 -4.509125
v -0.364148 0.790998 -4.547421
v 0.375000 1.152511 -5.244153
v 0.510000 1.152511 -5.244153
v 0.735000 1.112220 -5.060093
v 0.600000 1.119796 -5.085952
v 0.825000 1.161988 -5.351483
v 0.960000 1.162535 -5.367110
v 0.974909 0.958756 -4.741702
v -3.337500 0.525676 -4.362583
v -2.915000 0.230752 -4.260122
v -3.012500 0.615887 -4.413465
v -2.722698 0.799037 -6.245051
v -0.883841 0.750304 -4.511400
v -0.369552 0.790905 -4.547334
v 0.375000 1.155812 -5.270896
v 0.510000 1.155812 -5.270896
v 0.735000 1.119796 -5.085952
v 0.600000 1.126771 -5.111979
v 0.825000 1.162800 -5.378416
v 0.960000 1.162973 -5.392085
v 0.976562 0.959253 -4.742427
v -3.337500 0.533363 -4.366514
v -2.915000 0.238598 -4.261738
v -3.012500 0.608547 -4.408920
v -2.816184 0.517415 -4.358444
v -2.714725 0.794148 -6.249647
v -0.874000 0.752893 -4.513592
v -0.374966 0.790803 -4.547240
v 0.375000 1.158493 -5.297708
v 0.510000 1.158493 -5.297708
v 0.735000 1.126771 -5.111979
v 0.600000 1.133141 -5.138161
v 0.825000 1.162988 -5.405362
v 0.960000 1.162875 -5.417063
v 0.978215 0.959755 -4.743159
v -3.337500 0.541021 -4.370502
v -2.915000 0.246432 -4.263408
v -3.012500 0.601173 -4.404430
v -2.707064 0.788731 -6.254678
v -0.864149 0.755371 -4.515702
v -0.380390 0.790694 -4.547138
v 0.375000 1.160552 -5.324575
v 0.510000 1.160552 -5.324575
v 0.735000 1.133141 -5.138161
v 0.600000 1.138903 -5.164484
v 0.825000 1.162551 -5.432304
v 0.960000 1.162240 -5.442033
v 0.979868 0.960260 -4.743897
v -3.337500 0.548648 -4.374547
v -2.915000 0.254254 -4.265133
v -2.823575 0.510595 -4.355082
v -2.699697 0.782764 -6.260145
v -0.854291 0.757737 -4.517728
v -0.385827 0.790576 -4.547029
v 0.375000 1.161988 -5.351483
v 0.510000 1.161988 -5.351483
v 0.735000 1.138903 -5.164484
v 0.600000 1.144054 -5.190933
v 0.825000 1.161491 -5.459229
v 0.960000 1.161069 -5.466984
v 0.981520 0.960769 -4.744643
v -3.337500 0.556246 -4.378648
v -2.915000 0.262064 -4.266911
v -3.012500 0.593765 -4.399994
v -2.692611 0.776226 -6.266051
v -0.844427 0.759993 -4.519669
v -0.391275 0.790450 -4.546912
v 0.375000 1.162800 -5.378416
v 0.510000 1.162800 -5.378416
v 0.735000 1.144054 -5.190933
v 0.600000 1.148591 -5.217494
v 0.825000 1.159807 -5.486122
v 0.960000 1.159363 -5.491904
v 0.983172 0.961282 -4.745396
v -3.337500 0.563813 -4.382806
v -2.915000 0.269862 -4.268743
v -3.012500 0.586325 -4.395614
v -2.830691 0.503629 -4.351705
v -2.685826 0.769106 -6.272381
v -0.834561 0.762140 -4.521527
v -0.396736 0.790315 -4.546788
v 0.375000 1.162988 -5.405362
v 0.510000 1.162988 -5.405362
v 0.735000 1.148591 -5.217494
v 0.600000 1.152511 -5.244153
v 0.825000 1.157500 -5.512969
v 0.960000 1.157122 -5.516781
v 0.984823 0.961799 -4.746156
v -3.337500 0.571348 -4.387019
v -2.915000 0.277647 -4.270628
v -3.012500 0.578853 -4.391289
v -2.679379 0.761397 -6.279118
v -0.824693 0.764178 -4.523299
v -0.402210 0.790172 -4.546655
v 0.375000 1.162551 -5.432304
v 0.510000 1.162551 -5.432304
v 0.735000 1.152511 -5.244153
v 0.600000 1.155812 -5.270896
v 0.825000 1.154572 -5.539755
v 0.960000 1.154347 -5.541605
v 0.986474 0.962320 -4.746923
v -3.337500 0.578853 -4.391289
v -2.915000 0.285419 -4.272567
v -2.837523 0.496528 -4.348321
v -2.673308 0.753094 -6.286239
v -0.814827 0.766108 -4.524985
v 0.375000 1.161491 -5.459229
v 0.510000 1.161491 -5.459229
v 0.735000 1.155812 -5.270896
v 0.600000 1.158493 -5.297708
v 0.825000 1.151025 -5.566466
v 0.960000 1.151040 -5.566363
v 0.988124 0.962844 -4.747697
v -3.625000 0.621584 -4.417044
v -2.915000 0.293177 -4.274560
v -3.012500 0.571348 -4.387019
v -2.667651 0.744195 -6.293721
v -0.804966 0.767931 -4.526585
v 0.285000 0.961305 -4.745430
v 0.375000 1.159807 -5.486122
v 0.510000 1.159807 -5.486122
v 0.735000 1.158493 -5.297708
v 0.600000 1.160552 -5.324575
v 0.960000 1.147201 -5.591045
v 0.825000 1.146859 -5.593088
v 0.989774 0.963373 -4.748478
v -3.337500 0.586325 -4.395614
v -2.915000 0.300922 -4.276606
v -3.012500 0.563813 -4.382806
v -2.662436 0.734727 -6.301519
v -0.795110 0.769647 -4.528097
v 0.375000 1.157500 -5.512969
v 0.510000 1.157500 -5.512969
v 0.735000 1.160552 -5.324575
v 0.600000 1.161988 -5.351483
v 0.960000 1.142834 -5.615639
v 0.825000 1.142078 -5.619607
v 0.991423 0.963906 -4.749266
v -3.337500 0.593765 -4.399994
v -2.915000 0.308652 -4.278705
v -3.012500 0.556246 -4.378648
v -2.844063 0.489304 -4.344940
v -2.657688 0.724730 -6.309576
v -0.785263 0.771258 -4.529522
v -0.648781 0.783251 -4.540297
v 0.375000 1.154572 -5.539755
v 0.510000 1.154572 -5.539755
v 0.735000 1.161988 -5.351483
v 0.600000 1.162800 -5.378416
v 0.960000 1.137939 -5.640133
v 0.825000 1.136684 -5.646007
v 0.993072 0.964442 -4.750062
v -3.337500 0.601173 -4.404430
v -2.914879 0.316571 -4.280914
v -3.012500 0.548648 -4.374547
v -2.653430 0.714246 -6.317835
v -1.097326 0.783508 -4.540533
v -0.658459 0.783011 -4.540077
v 0.375000 1.151025 -5.566466
v 0.735000 1.162800 -5.378416
v 0.960000 1.132519 -5.664516
v 0.994720 0.964983 -4.750865
v -3.337500 0.608547 -4.408920
v -2.914513 0.324494 -4.283185
v -2.850307 0.481968 -4.341569
v -2.649685 0.703310 -6.326244
v -0.775427 0.772763 -4.530859
v -0.668144 0.782680 -4.539775
v 0.510000 1.151025 -5.566466
v 0.600000 1.162988 -5.405362
v 0.825000 1.130679 -5.672275
v 1.375000 0.805638 -4.561242
v -3.337500 0.615887 -4.413465
v -2.913898 0.332424 -4.285519
v -3.012500 0.541021 -4.370502
v -2.646452 0.691922 -6.334782
v -0.755798 0.775461 -4.533265
v -0.765605 0.774164 -4.532107
v -0.677839 0.782259 -4.539390
v 0.375000 1.146859 -5.593088
v 0.735000 1.162988 -5.405362
v 0.825000 1.124068 -5.698397
v 0.996368 0.965527 -4.751675
v -3.337500 0.623194 -4.418064
v -2.913031 0.340361 -4.287917
v -2.856255 0.474527 -4.338213
v -2.643724 0.680073 -6.343437
v -0.687542 0.781745 -4.538923
v 0.510000 1.146859 -5.593088
v 0.600000 1.162551 -5.432304
v 0.998015 0.966076 -4.752492
v -3.337500 0.630467 -4.422718
v -2.911908 0.348309 -4.290380
v -3.012500 0.533363 -4.366514
v -2.641493 0.667750 -6.352197
v -0.736230 0.777750 -4.535315
v -0.746006 0.776656 -4.534334
v -0.697256 0.781138 -4.538372
v 0.375000 1.142078 -5.619607
v 0.735000 1.162551 -5.432304
v 0.999662 0.966628 -4.753316
v -3.337500 0.637704 -4.427425
v -3.012500 0.358224 -4.293544
v -3.012500 0.525676 -4.362583
v -2.639752 0.654941 -6.361052
v -0.726467 0.778744 -4.536209
v -0.706981 0.780437 -4.537737
v 0.510000 1.142078 -5.619607
v 0.600000 1.161491 -5.459229
v 1.001307 0.967183 -4.754148
v -3.337500 0.644907 -4.432186
v -3.012500 0.366428 -4.296234
v -2.861907 0.466990 -4.334877
v -2.638504 0.641640 -6.369983
v -0.716718 0.779639 -4.537016
v 0.375000 1.136684 -5.646007
v 0.735000 1.161491 -5.459229
v 1.002952 0.967743 -4.754986
v -3.337500 0.652074 -4.437000
v -2.910523 0.356270 -4.292911
v -3.012500 0.517960 -4.358709
v -2.637752 0.627840 -6.378972
v -2.550925 0.617176 -4.414270
v 0.510000 1.136684 -5.646007
v 0.600000 1.159807 -5.486122
v 1.004595 0.968306 -4.755832
v -3.625000 0.698663 -4.470248
v -3.012500 0.374612 -4.298985
v -2.867263 0.459366 -4.331567
v -2.637500 0.613535 -6.388000
v 0.285000 0.976212 -4.767877
v 0.285000 0.990595 -4.790664
v 0.375000 1.130679 -5.672275
v 0.735000 1.159807 -5.486122
v 1.006238 0.968873 -4.756685
v -3.337242 0.665465 -4.446204
v -2.908874 0.364245 -4.295510
v -3.012500 0.502443 -4.351134
v -3.012500 0.510216 -4.354893
v -2.637500 0.607188 -6.391913
v 0.285000 1.004446 -4.813777
v 0.510000 1.130679 -5.672275
v 0.600000 1.157500 -5.512969
v 1.007879 0.969443 -4.757545
v -3.336466 0.678402 -4.455360
v -3.012500 0.382775 -4.301796
v -2.872325 0.451664 -4.328288
v -2.637500 0.600817 -6.395785
v -2.637500 0.594421 -6.399616
v 0.285000 1.017758 -4.837205
v 0.375000 1.124068 -5.698397
v 0.735000 1.157500 -5.512969
v 1.009520 0.970017 -4.758412
v -3.335168 0.690905 -4.464466
v -2.906956 0.372237 -4.298180
v -3.012500 0.494643 -4.347433
v -2.637500 0.588000 -6.403407
v 0.285000 1.030523 -4.860935
v 0.510000 1.124068 -5.698397
v 0.600000 1.154572 -5.539755
v 1.011159 0.970595 -4.759286
v -3.333343 0.702996 -4.473520
v -3.012500 0.390917 -4.304668
v -2.877091 0.443891 -4.325045
v -2.637500 0.581555 -6.407156
v 0.285000 1.042735 -4.884955
v 0.735000 1.154572 -5.539755
v 1.012796 0.971176 -4.760168
v -3.330990 0.714683 -4.482509
v -2.904766 0.380245 -4.300920
v -3.012500 0.486815 -4.343790
v -2.637500 0.575087 -6.410863
v 0.285000 1.054388 -4.909251
v 0.600000 1.151025 -5.566466
v 1.014432 0.971761 -4.761056
v -3.625000 0.771212 -4.529482
v -3.012500 0.399038 -4.307600
v -3.012500 0.478961 -4.340205
v -2.637500 0.568594 -6.414529
v 0.285000 1.065475 -4.933810
v 0.735000 1.151025 -5.566466
v 1.016067 0.972349 -4.761952
v -3.328118 0.725941 -4.491391
v -3.012500 0.407136 -4.310592
v -2.881563 0.436058 -4.321843
v -2.637500 0.562079 -6.418153
v 0.285000 1.075989 -4.958620
v 0.600000 1.146859 -5.593088
v 1.017700 0.972941 -4.762854
v -3.324736 0.736734 -4.500118
v -2.902300 0.388262 -4.303728
v -3.012500 0.471080 -4.336679
v -2.637500 0.555540 -6.421736
v 0.285000 1.085926 -4.983666
v 0.735000 1.146859 -5.593088
v 1.019331 0.973536 -4.763764
v -3.320855 0.747028 -4.508642
v -3.012500 0.415213 -4.313645
v -2.885741 0.428172 -4.318688
v -2.637500 0.548978 -6.425276
v 0.285000 1.095280 -5.008937
v 0.600000 1.142078 -5.619607
v 1.375000 0.838758 -4.594362
v -3.316490 0.756796 -4.516920
v -2.899556 0.396279 -4.306602
v -3.012500 0.463174 -4.333211
v -2.637500 0.542394 -6.428775
v 0.285000 1.104046 -5.034417
v 0.735000 1.142078 -5.619607
v 1.020961 0.974134 -4.764680
v -3.625000 0.838758 -4.594362
v -3.012500 0.423266 -4.316757
v -3.012500 0.455241 -4.329802
v -2.637500 0.535788 -6.432231
v 0.285000 1.112220 -5.060093
v 0.600000 1.136684 -5.646007
v 1.022589 0.974736 -4.765604
v -3.311664 0.766028 -4.524917
v -2.896531 0.404288 -4.309537
v -2.889626 0.420243 -4.315583
v -2.637500 0.529159 -6.435644
v 0.285000 1.119796 -5.085952
v 0.735000 1.136684 -5.646007
v 1.024215 0.975341 -4.766535
v -3.306404 0.774717 -4.532600
v -3.012500 0.431296 -4.319929
v -3.012500 0.447284 -4.326452
v -2.637500 0.522509 -6.439015
v 0.285000 1.126771 -5.111979
v 0.600000 1.130679 -5.672275
v 1.025839 0.975950 -4.767473
v -3.300737 0.782855 -4.539938
v -3.012500 0.439302 -4.323161
v -2.893222 0.412278 -4.312532
v -2.637500 0.515838 -6.442344
v 0.285000 1.133141 -5.138161
v 0.735000 1.130679 -5.672275
v 1.027462 0.976562 -4.768418
v -3.294690 0.790441 -4.546904
v -2.637500 0.509145 -6.445629
v 0.285000 1.138903 -5.164484
v 0.600000 1.124068 -5.698397
v 1.029083 0.977177 -4.769370
v -3.625000 0.900866 -4.664466
v -2.637500 0.502431 -6.448872
v 0.285000 1.144054 -5.190933
v 0.735000 1.124068 -5.698397
v 1.030702 0.977795 -4.770329
v -3.288292 0.797482 -4.553482
v -2.637500 0.495696 -6.452071
v 0.285000 1.148591 -5.217494
v 1.032319 0.978417 -4.771296
v -3.281575 0.803991 -4.559662
v -2.637500 0.488942 -6.455228
v 0.285000 1.152511 -5.244153
v 1.050000 1.059273 -4.919886
v 1.185000 1.062714 -4.927551
v 1.050000 1.068286 -4.940289
v -3.274567 0.809975 -4.565429
v -2.637500 0.482167 -6.458340
v 0.285000 1.155812 -5.270896
v 1.185000 1.068748 -4.941364
v -3.625000 0.957130 -4.739341
v -2.637500 0.475372 -6.461410
v 0.285000 1.158493 -5.297708
v 1.185000 1.074602 -4.955254
v -3.267282 0.815450 -4.570775
v -2.637500 0.468558 -6.464435
v 0.285000 1.160552 -5.324575
v 1.050000 1.076906 -4.960862
v -3.259704 0.820431 -4.575703
v -2.637500 0.461724 -6.467417
v 0.285000 1.161988 -5.351483
v 1.185000 1.080276 -4.969218
v -3.251811 0.824937 -4.580214
v -2.637500 0.454872 -6.470355
v 0.285000 1.162800 -5.378416
v 1.050000 1.085130 -4.981596
v -3.243586 0.828985 -4.584309
v -2.637500 0.448000 -6.473250
v 0.285000 1.162988 -5.405362
v 1.185000 1.085768 -4.983255
v -3.625000 1.007188 -4.818500
v -2.615539 0.610985 -4.410420
v -2.637500 0.441111 -6.476100
v 0.285000 1.162551 -5.432304
v 1.185000 1.091078 -4.997361
v -3.235043 0.832578 -4.587977
v -2.604857 0.612669 -4.411461
v -2.637500 0.434203 -6.478905
v 0.285000 1.161491 -5.459229
v 1.050000 1.092955 -5.002484
v -3.226248 0.835694 -4.591184
v -3.056175 0.791455 -4.547844
v -2.637500 0.427277 -6.481667
v 0.285000 1.159807 -5.486122
v 1.185000 1.096205 -5.011536
v -3.414361 0.928094 -4.699136
v -3.084105 0.816403 -4.571715
v -2.637500 0.420334 -6.484384
v 0.285000 1.157500 -5.512969
v 1.050000 1.100377 -5.023518
v -3.625000 1.050713 -4.901431
v -3.217272 0.838311 -4.593896
v -3.091848 0.821362 -4.576632
v -2.637500 0.413374 -6.487056
v 0.285000 1.154572 -5.539755
v 1.185000 1.101147 -5.025775
v -3.208184 0.840406 -4.596080
v -3.099897 0.825830 -4.581114
v -2.637500 0.406396 -6.489684
v 0.285000 1.151025 -5.566466
v 1.185000 1.105905 -5.040078
v -3.199032 0.841973 -4.597720
v -3.108259 0.829817 -4.585155
v -2.637500 0.399402 -6.492267
v 0.285000 1.146859 -5.593088
v 1.050000 1.107395 -5.044691
v -3.625000 1.087424 -4.987595
v -3.116910 0.833323 -4.588740
v -2.637500 0.392392 -6.494805
v 0.285000 1.142078 -5.619607
v 1.185000 1.110476 -5.054441
v -3.189839 0.843024 -4.598824
v -3.625000 1.154520 -5.540184
v -3.625000 1.162057 -5.446829
v -2.637500 0.385365 -6.497298
v 0.285000 1.136684 -5.646007
v 1.050000 1.114006 -5.065995
v -3.180627 0.843572 -4.599402
v -2.637500 0.378323 -6.499746
v 0.285000 1.130679 -5.672275
v 1.185000 1.114862 -5.068861
v -3.625000 1.117083 -5.076433
v -2.637500 0.371265 -6.502149
v 1.185000 1.119060 -5.083338
v -3.171416 0.843629 -4.599463
v -3.414361 1.041075 -5.918394
v -2.637500 0.364191 -6.504506
v -0.254768 1.118603 -5.081730
v 1.050000 1.120207 -5.087421
v -3.162222 0.843196 -4.599006
v -2.150524 1.158039 -5.507308
v 1.185000 1.123070 -5.097868
v -3.414361 1.041075 -4.881606
v -2.561797 0.616792 -4.414028
v 1.050000 1.125996 -5.108962
v -3.625000 1.139497 -5.167370
v -3.153050 0.842261 -4.598023
v -3.414361 0.928094 -6.100864
v -2.571803 0.783508 -4.540533
v 1.185000 1.126891 -5.112448
v -3.143908 0.840811 -4.596504
v -2.572621 0.616150 -4.413626
v 1.185000 1.130523 -5.127077
v -3.625000 1.154520 -5.259816
v -2.931489 0.745631 -6.292525
v -3.062679 0.798484 -4.554427
v 1.050000 1.131370 -5.130611
v -3.134805 0.838834 -4.594441
v -2.936832 0.736147 -6.300362
v -2.583403 0.615250 -4.413064
v 1.185000 1.133965 -5.141752
v -2.993082 1.158039 -5.507308
v -3.203721 0.783508 -6.259467
v -2.594146 0.614090 -4.412343
v 1.050000 1.136329 -5.152358
v -3.125782 0.836333 -4.591844
v -3.625000 0.838758 -6.205638
v -2.941706 0.726105 -6.308480
v 1.185000 1.137217 -5.156470
v -2.946085 0.715537 -6.316829
v 1.050000 1.140869 -5.174197
v -3.625000 1.162057 -5.353171
v -3.203721 1.158039 -5.507308
v 1.185000 1.140277 -5.171229
v -3.414361 0.783508 -6.259467
v -3.625000 0.771212 -6.270518
v -2.949945 0.704470 -6.325361
v 1.185000 1.143147 -5.186026
v -2.956103 0.680883 -6.342850
v -2.953284 0.692916 -6.334043
v 1.050000 1.144990 -5.196118
v 1.033935 0.979042 -4.772270
v -3.625000 0.698663 -6.329752
v 1.185000 1.145824 -5.200859
v 1.185000 1.056502 -4.913818
v -2.958407 0.668375 -6.351758
v 1.050000 1.148689 -5.218115
v 1.035549 0.979671 -4.773251
v -2.960198 0.655396 -6.360742
v 1.185000 1.148308 -5.215726
v 1.037161 0.980303 -4.774240
v -2.961477 0.641938 -6.369787
v 1.185000 1.150600 -5.230624
v 1.038772 0.980938 -4.775236
v -3.625000 0.621584 -6.382956
v 1.050000 1.151966 -5.240179
v 1.040381 0.981576 -4.776239
v -2.962244 0.627988 -6.378877
v 1.185000 1.152699 -5.245550
v 1.041988 0.982218 -4.777250
v -2.962500 0.613535 -6.388000
v 1.050000 1.154819 -5.262301
v 1.043594 0.982863 -4.778268
v -2.962500 0.607188 -6.391913
v 1.185000 1.154604 -5.260502
v 1.375000 0.870518 -4.628788
v -2.962500 0.600817 -6.395785
v 1.185000 1.156314 -5.275477
v 1.045198 0.983511 -4.779294
v -2.962500 0.594421 -6.399616
v 1.050000 1.157248 -5.284474
v 1.050000 1.049870 -4.899659
v -2.962500 0.588000 -6.403407
v 1.185000 1.157831 -5.290474
v 1.046800 0.984162 -4.780328
v -2.962500 0.581555 -6.407156
v 1.050000 1.159251 -5.306689
v 1.048401 0.984817 -4.781369
v -3.625000 0.540473 -6.429785
v 1.185000 1.159153 -5.305489
v 1.050000 0.985475 -4.782418
v -2.962500 0.575087 -6.410863
v 1.185000 1.160281 -5.320519
v 1.375000 0.900866 -4.664466
v -2.962500 0.568594 -6.414529
v 1.050000 1.160827 -5.328939
v 1.050000 1.040081 -4.879616
v -2.962500 0.562079 -6.418153
v 1.185000 1.161214 -5.335563
v 1.375000 0.929752 -4.701337
v -2.962500 0.555540 -6.421736
v 1.050000 1.161976 -5.351215
v 1.375000 0.957130 -4.739341
v -2.962500 0.548978 -6.425276
v 1.185000 1.161951 -5.350618
v -2.962500 0.542394 -6.428775
v 1.185000 1.162494 -5.365681
v 1.050000 1.029910 -4.859764
v -2.962500 0.535788 -6.432231
v 1.050000 1.162698 -5.373509
v 1.050000 0.997138 -4.801431
v -2.962500 0.529159 -6.435644
v 1.185000 1.162841 -5.380750
v 1.050000 1.019360 -4.840112
v -2.962500 0.522509 -6.439015
v 1.050000 1.162992 -5.395813
v 1.050000 1.008434 -4.820665
v -2.962500 0.515838 -6.442344
v 1.185000 1.162992 -5.395823
v -2.962500 0.509145 -6.445629
v 1.185000 1.162949 -5.410895
v 1.375000 0.982956 -4.778416
v -2.962500 0.502431 -6.448872
v 1.050000 1.162859 -5.418118
v 1.375000 1.007188 -4.818500
v -2.962500 0.495696 -6.452071
v 1.185000 1.162710 -5.425967
v 1.375000 1.029785 -4.859527
v -3.625000 0.455857 -6.469936
v 1.050000 1.162298 -5.440416
v 1.191563 1.060884 -4.923456
v -2.962500 0.488942 -6.455228
v 1.185000 1.162276 -5.441033
v 1.197856 1.065194 -4.933170
v -2.962500 0.482167 -6.458340
v 1.185000 1.161646 -5.456093
v 1.375000 1.050713 -4.901431
v -2.962500 0.475372 -6.461410
v 1.050000 1.161309 -5.462700
v 1.203882 1.069432 -4.942962
v -2.962500 0.468558 -6.464435
v 1.185000 1.160822 -5.471143
v 1.209646 1.073595 -4.952827
v -2.962500 0.461724 -6.467417
v 1.050000 1.159893 -5.484961
v 1.215150 1.077681 -4.962766
v -2.962500 0.454872 -6.470355
v 1.375000 1.069936 -4.944143
v -2.962500 0.448000 -6.473250
v 1.050000 1.158050 -5.507190
v 1.220399 1.081688 -4.972776
v -2.962500 0.441111 -6.476100
v 1.050000 1.155781 -5.529380
v 1.225396 1.085615 -4.982855
v -2.962500 0.434203 -6.478905
v 1.050000 1.153087 -5.551522
v 1.230145 1.089460 -4.993003
v -2.962500 0.427277 -6.481667
v 1.050000 1.149969 -5.573609
v 1.234649 1.093221 -5.003217
v -2.962500 0.420334 -6.484384
v 1.050000 1.146428 -5.595632
v 1.375000 1.087424 -4.987595
v -2.962500 0.413374 -6.487056
v 1.238912 1.096897 -5.013496
v -3.625000 0.368285 -6.503148
v -3.203721 0.420124 -6.484465
v 1.242934 1.100484 -5.023837
v -2.962500 0.406396 -6.489684
v 1.246717 1.103983 -5.034234
v -2.962500 0.399402 -6.492267
v 1.375000 1.103148 -5.031715
v -2.962500 0.392392 -6.494805
v 1.250261 1.107390 -5.044685
v -2.962500 0.385365 -6.497298
v 1.253566 1.110704 -5.055186
v -2.962500 0.378323 -6.499746
v 1.256632 1.113924 -5.065731
v -2.962500 0.371265 -6.502149
v 1.259459 1.117047 -5.076318
v -2.962500 0.364191 -6.504506
v 1.375000 1.117083 -5.076433
v -2.962500 0.357103 -6.506818
v 1.262049 1.120072 -5.086942
v 1.264402 1.122997 -5.097600
v -3.625000 0.278324 -6.529205
v 1.266517 1.125821 -5.108287
v -3.625000 0.186558 -6.547939
v 1.375000 1.129205 -5.121676
v -3.414361 0.213701 -6.543198
v 1.268395 1.128542 -5.119000
v 1.270038 1.131160 -5.129736
v -2.529943 0.368740 -6.502996
v 1.271445 1.133675 -5.140493
v -2.528747 0.394048 -6.494208
v 1.272617 1.136088 -5.151269
v -2.527509 0.419146 -6.484840
v 1.375000 1.139497 -5.167370
v -2.526226 0.444019 -6.474898
v 1.273555 1.138396 -5.162060
v -2.524897 0.468653 -6.464389
v 1.274259 1.140601 -5.172863
v -2.523520 0.493034 -6.453318
v 1.274730 1.142702 -5.183677
v -2.522094 0.517149 -6.441692
v 1.274968 1.144699 -5.194497
v -2.520616 0.540984 -6.429518
v 1.375000 1.147939 -5.213442
v -2.519084 0.564525 -6.416801
v 1.274974 1.146591 -5.205323
v -2.517496 0.587761 -6.403549
v 1.274748 1.148379 -5.216151
v -2.515847 0.610681 -6.389770
v 1.274286 1.150062 -5.226981
v -2.514137 0.633274 -6.375469
v 1.375000 1.154520 -5.259816
v -2.512360 0.655527 -6.360656
v 1.273589 1.151641 -5.237811
v -2.510514 0.677429 -6.345337
v 1.272652 1.153116 -5.248641
v -2.508597 0.698970 -6.329519
v 1.271476 1.154486 -5.259470
v -2.506606 0.720136 -6.313213
v 1.270056 1.155752 -5.270296
v -2.504537 0.740917 -6.296430
v 1.375000 1.159229 -5.306417
v -2.502388 0.761299 -6.279183
v 1.268393 1.156914 -5.281118
v -2.500156 0.781270 -6.261485
v 1.266483 1.157971 -5.291936
v -2.497838 0.800819 -6.243349
v 1.264325 1.158925 -5.302748
v -2.495432 0.819933 -6.224786
v 1.261918 1.159775 -5.313550
v -2.492935 0.838600 -6.205810
v 1.375000 1.162057 -5.353171
v -2.490344 0.856814 -6.186425
v 1.259265 1.160523 -5.324329
v -2.487652 0.874570 -6.166636
v 1.256369 1.161170 -5.335076
v -2.484858 0.891867 -6.146445
v 1.253233 1.161717 -5.345777
v -2.481955 0.908701 -6.125855
v 1.375000 1.163000 -5.400000
v -2.478940 0.925070 -6.104867
v 1.249859 1.162165 -5.356422
v -2.475808 0.940969 -6.083484
v 1.246249 1.162517 -5.366999
v -2.472556 0.956396 -6.061711
v 1.242408 1.162772 -5.377496
v -2.469191 0.971341 -6.039559
v 1.238337 1.162932 -5.387903
v -2.465725 0.985793 -6.017044
v 1.234039 1.162999 -5.398207
v -2.462172 0.999738 -5.994183
v 1.229515 1.162975 -5.408400
v -2.458543 1.013166 -5.970993
v 1.224765 1.162861 -5.418483
v 1.219786 1.162661 -5.428459
v 1.214576 1.162377 -5.438330
v -2.637500 0.357103 -6.506818
v 1.209134 1.162012 -5.448098
v 1.203457 1.161570 -5.457765
v 1.197544 1.161052 -5.467333
v 1.191392 1.160462 -5.476804
v 1.219708 1.158039 -5.507308
v 0.961709 1.132679 -5.663831
v 1.046889 1.142076 -5.619615
v 0.963416 1.132840 -5.663141
v 0.965120 1.133001 -5.662444
v 0.966822 1.133164 -5.661741
v 1.043766 1.141689 -5.621622
v 0.968520 1.133328 -5.661032
v 1.042199 1.141495 -5.622617
v 0.970217 1.133492 -5.660316
v 1.040629 1.141302 -5.623605
v 0.971910 1.133658 -5.659594
v 1.039057 1.141109 -5.624587
v 0.973601 1.133824 -5.658866
v 1.037481 1.140916 -5.625564
v 0.975290 1.133992 -5.658131
v 1.035901 1.140724 -5.626534
v 0.976976 1.134160 -5.657391
v 1.034319 1.140532 -5.627498
v 0.978660 1.134329 -5.656643
v 1.032733 1.140341 -5.628456
v 0.980341 1.134500 -5.655890
v 1.031144 1.140150 -5.629408
v 0.982020 1.134671 -5.655130
v 1.029551 1.139959 -5.630353
v 0.983696 1.134843 -5.654364
v 1.027956 1.139769 -5.631293
v 0.985370 1.135016 -5.653591
v 1.026356 1.139579 -5.632227
v 0.987041 1.135189 -5.652812
v 1.024754 1.139389 -5.633155
v 0.988710 1.135364 -5.652027
v 1.023148 1.139200 -5.634077
v 0.990377 1.135540 -5.651235
v 1.021539 1.139012 -5.634993
v 0.992042 1.135716 -5.650436
v 1.019926 1.138823 -5.635903
v 0.993704 1.135893 -5.649632
v 1.018310 1.138636 -5.636807
v 0.995363 1.136071 -5.648820
v 1.016691 1.138449 -5.637705
v 0.997020 1.136250 -5.648003
v 1.015068 1.138262 -5.638596
v 0.998675 1.136429 -5.647179
v 1.013442 1.138076 -5.639482
v 1.000327 1.136610 -5.646349
v 1.011813 1.137891 -5.640362
v 1.001976 1.136791 -5.645512
v 1.010181 1.137706 -5.641236
v 1.003623 1.136972 -5.644669
v 1.008546 1.137521 -5.642104
v 1.005267 1.137155 -5.643820
v 1.006908 1.137338 -5.642965
v 1.009069 0.213701 -4.256802
v 1.219708 0.213701 -4.256802
v 1.009069 0.612241 -4.411197
v 1.009069 0.783508 -4.540533
v -1.729245 1.118603 -5.718270
v -1.518605 1.118603 -5.081730
v -0.044129 1.158039 -5.507308
v -0.465408 1.041075 -4.881606
v -0.465408 1.118603 -5.081730
v -0.465408 1.158039 -5.507308
v -0.886687 1.158039 -5.292692
v -0.465408 1.158039 -5.292692
v -1.307966 1.158039 -5.507308
v -0.676047 1.118603 -5.081730
v -0.676047 1.158039 -5.292692
v -0.676047 1.158039 -5.507308
v -0.886687 0.928094 -4.699136
v -1.307966 1.158039 -5.292692
v -1.097326 1.041075 -4.881606
v -0.886687 1.041075 -4.881606
v -1.097326 1.118603 -5.081730
v -0.886687 1.118603 -5.081730
v -0.886687 1.158039 -5.507308
v -1.307966 1.118603 -5.081730
v -1.097326 1.158039 -5.507308
v -2.361163 0.928094 -4.699136
v -1.518605 0.783508 -4.540533
v -1.307966 0.928094 -4.699136
v -1.729245 0.783508 -4.540533
v -1.729245 0.928094 -4.699136
v -1.729245 1.041075 -4.881606
v -1.939884 1.118603 -5.081730
v -1.939884 0.928094 -4.699136
v -2.150524 1.158039 -5.292692
v -1.939884 1.041075 -4.881606
v -2.150524 0.928094 -4.699136
v -2.150524 1.118603 -5.081730
v -2.150524 1.041075 -4.881606
v -2.361163 1.158039 -5.292692
v -2.361163 1.041075 -4.881606
v -2.361163 1.118603 -5.081730
v -2.571803 1.158039 -5.292692
v -2.993082 0.783508 -4.540533
v -2.782442 0.928094 -4.699136
v -2.571803 1.041075 -4.881606
v -2.571803 1.118603 -5.081730
v -2.782442 1.041075 -4.881606
v -2.782442 0.783508 -4.540533
v -3.203721 1.041075 -4.881606
v -2.782442 1.158039 -5.292692
v -3.203721 1.158039 -5.292692
v -2.782442 1.158039 -5.507308
v -2.993082 1.118603 -5.718270
v -2.782442 0.928094 -6.100864
v -2.782442 1.041075 -5.918394
v -2.993082 1.118603 -5.081730
v -3.203721 1.118603 -5.718270
v -3.414361 1.118603 -5.718270
v -2.993082 1.041075 -5.918394
v -3.203721 1.041075 -5.918394
v -3.203721 0.213701 -6.543198
v -3.203721 1.118603 -5.081730
v -3.414361 1.118603 -5.081730
v -3.414361 1.158039 -5.292692
v -3.414361 0.420124 -6.484465
v 1.009069 0.612241 -4.411197
v -0.149449 1.158039 -5.292692
v -1.729245 1.118603 -5.081730
v -2.571803 0.928094 -4.699136
v 1.114388 0.518394 -4.358925
v -1.202646 1.041075 -4.881606
v -0.254768 1.143198 -5.186299
v -0.254768 1.158039 -5.292692
v -0.781367 1.041075 -4.881606
v -1.834564 1.041075 -4.881606
v -1.939884 1.084465 -4.979876
v -2.045204 1.041075 -4.881606
v -2.045204 1.118603 -5.081730
v -2.255843 1.084465 -4.979876
v -2.255843 1.041075 -4.881606
v -2.677122 1.118603 -5.081730
v -1.939884 1.158039 -5.292692
v 1.114388 0.420124 -4.315535
v 1.167048 0.369591 -4.297289
v 1.061728 0.657254 -4.440528
v -0.149449 1.161759 -5.346289
v -0.360088 1.102711 -5.030409
v -1.518605 1.041075 -4.881606
v -1.834564 1.016023 -4.834079
v -1.887224 1.041075 -4.881606
v -2.045204 1.132108 -5.133731
v -2.203184 1.016023 -4.834079
v -2.308503 1.132108 -5.133731
f 1 2 3
f 4 5 6
f 7 5 8
f 7 8 9
f 10 11 12
f 13 14 15
f 16 17 18
f 19 20 21
f 20 22 23
f 23 24 25
f 25 26 27
f 27 28 29
f 29 30 31
f 31 32 33
f 33 34 21
f 21 35 36
f 36 37 38
f 39 40 41
f 39 42 43
f 39 44 45
f 39 46 47
f 48 49 50
f 48 50 51
f 52 53 54
f 55 56 57
f 58 59 60
f 61 62 63
f 58 64 59
f 65 66 67
f 68 69 65
f 65 70 71
f 72 73 65
f 65 74 75
f 76 77 65
f 78 79 65
f 80 81 65
f 82 83 65
f 84 85 65
f 86 87 65
f 88 89 65
f 90 91 65
f 65 92 93
f 65 94 95
f 65 96 97
f 65 98 99
f 65 100 101
f 102 103 104
f 105 106 104
f 107 108 104
f 109 110 104
f 111 112 104
f 113 114 104
f 115 116 104
f 117 118 104
f 119 120 104
f 104 121 122
f 104 123 124
f 125 126 104
f 97 127 128
f 129 130 97
f 130 131 132
f 132 133 134
f 134 135 136
f 136 137 138
f 138 139 140
f 140 141 142
f 142 143 144
f 144 145 146
f 147 148 149
f 150 151 149
f 152 153 149
f 154 155 149
f 149 156 157
f 158 159 149
f 160 161 149
f 162 163 149
f 163 164 165
f 166 167 168
f 168 169 170
f 171 172 168
f 168 173 174
f 175 176 168
f 177 178 179
f 168 177 179
f 180 181 163
f 182 183 163
f 163 184 185
f 186 187 163
f 188 189 163
f 190 191 163
f 163 192 193
f 194 149 163
f 195 196 197
f 198 199 195
f 195 200 201
f 202 203 195
f 204 205 195
f 206 207 195
f 195 208 209
f 210 211 195
f 195 212 213
f 214 215 195
f 195 216 217
f 218 219 195
f 220 221 195
f 222 223 195
f 195 224 225
f 226 227 195
f 227 228 229
f 229 230 231
f 149 232 233
f 233 234 235
f 236 237 238
f 239 240 236
f 241 242 1
f 4 7 243
f 7 9 244
f 12 11 245
f 10 246 11
f 16 18 247
f 21 20 23
f 23 25 27
f 27 29 31
f 31 33 21
f 21 36 38
f 41 42 39
f 45 46 39
f 248 48 39
f 39 50 249
f 56 250 53
f 251 56 252
f 58 60 253
f 52 62 254
f 255 256 257
f 258 259 62
f 68 65 67
f 72 65 71
f 76 65 75
f 80 65 79
f 84 65 83
f 88 65 87
f 91 92 65
f 95 96 65
f 99 100 65
f 104 103 105
f 104 108 109
f 104 112 113
f 117 104 116
f 120 121 104
f 124 125 104
f 129 97 128
f 146 132 134
f 134 136 138
f 138 140 142
f 142 144 146
f 152 149 151
f 154 149 153
f 158 149 157
f 162 149 161
f 166 168 165
f 171 168 170
f 175 168 174
f 168 176 177
f 182 163 181
f 186 163 185
f 190 163 189
f 194 163 193
f 198 195 197
f 202 195 201
f 206 195 205
f 210 195 209
f 214 195 213
f 218 195 217
f 222 195 221
f 226 195 225
f 227 229 231
f 237 233 235
f 1 260 2
f 243 7 261
f 7 244 262
f 263 15 264
f 265 246 10
f 16 247 266
f 23 27 21
f 27 31 21
f 38 40 39
f 47 267 39
f 268 248 39
f 249 50 269
f 270 250 56
f 252 56 271
f 253 60 256
f 254 62 272
f 62 273 272
f 259 274 275
f 65 69 70
f 78 65 77
f 86 65 85
f 93 94 65
f 101 102 65
f 104 110 111
f 119 104 118
f 97 126 127
f 134 138 146
f 138 142 146
f 149 155 156
f 160 149 159
f 168 167 169
f 168 172 173
f 163 183 184
f 163 191 192
f 195 199 200
f 195 207 208
f 195 215 216
f 195 223 224
f 232 227 231
f 238 239 236
f 260 1 276
f 261 7 277
f 7 262 278
f 245 11 279
f 13 280 14
f 16 266 281
f 38 19 21
f 43 44 39
f 282 268 39
f 249 269 283
f 284 270 285
f 252 271 286
f 253 256 287
f 272 273 288
f 273 289 288
f 259 256 290
f 65 73 74
f 90 65 89
f 104 106 107
f 122 123 104
f 291 147 163
f 150 149 148
f 180 163 168
f 188 163 187
f 204 195 203
f 220 195 219
f 236 240 292
f 276 1 293
f 277 7 294
f 7 278 295
f 245 279 296
f 265 297 246
f 16 281 298
f 41 19 38
f 39 267 299
f 300 282 39
f 283 269 301
f 55 284 56
f 286 271 302
f 287 256 303
f 288 289 304
f 289 305 304
f 290 256 306
f 82 65 81
f 115 104 114
f 147 291 146
f 167 149 163
f 195 211 212
f 292 307 236
f 293 1 308
f 294 7 309
f 7 295 310
f 263 264 311
f 312 297 265
f 16 298 313
f 299 314 39
f 315 300 39
f 283 301 316
f 317 55 251
f 286 302 318
f 303 256 319
f 304 305 320
f 305 321 320
f 306 256 322
f 97 98 65
f 147 323 104
f 227 233 195
f 308 1 236
f 294 309 324
f 7 310 325
f 326 296 279
f 327 297 312
f 16 313 328
f 39 314 329
f 330 315 39
f 316 301 331
f 332 317 251
f 318 302 333
f 319 256 334
f 320 321 335
f 321 336 335
f 322 256 337
f 130 134 104
f 308 236 338
f 294 324 339
f 7 325 340
f 326 341 342
f 280 343 344
f 16 328 345
f 329 346 39
f 347 330 39
f 316 331 348
f 349 332 251
f 318 333 350
f 334 256 351
f 335 336 352
f 336 353 352
f 337 256 354
f 338 236 355
f 294 339 356
f 7 340 357
f 358 311 359
f 327 360 297
f 16 345 361
f 38 39 362
f 363 347 364
f 348 331 365
f 349 251 50
f 350 333 366
f 351 256 367
f 352 353 368
f 353 369 368
f 370 256 274
f 371 236 372
f 294 356 373
f 7 357 374
f 375 341 326
f 376 360 327
f 16 361 377
f 39 346 378
f 379 363 39
f 348 365 380
f 349 50 381
f 350 366 382
f 367 256 383
f 368 369 384
f 369 385 384
f 256 386 354
f 372 236 387
f 294 373 388
f 7 374 389
f 390 391 375
f 280 233 392
f 16 377 393
f 378 394 39
f 395 379 39
f 380 365 396
f 381 50 49
f 382 366 397
f 383 256 398
f 384 385 399
f 384 399 400
f 274 401 402
f 387 236 403
f 294 388 404
f 7 389 405
f 358 359 406
f 376 407 360
f 16 393 408
f 39 394 409
f 410 395 39
f 380 396 411
f 411 396 412
f 382 397 413
f 398 256 414
f 400 399 415
f 400 415 416
f 274 402 417
f 403 236 418
f 294 404 419
f 7 405 420
f 390 421 391
f 422 407 376
f 16 408 423
f 409 424 39
f 425 410 39
f 411 412 426
f 426 412 427
f 413 397 428
f 414 256 255
f 416 415 429
f 416 429 430
f 274 417 431
f 418 236 432
f 294 419 433
f 7 420 434
f 435 421 390
f 392 233 436
f 16 423 437
f 39 424 438
f 439 425 39
f 426 427 440
f 440 427 441
f 413 428 442
f 257 256 370
f 430 429 443
f 430 443 444
f 274 431 445
f 446 236 447
f 448 419 449
f 7 434 450
f 451 406 452
f 407 422 453
f 16 437 454
f 438 455 39
f 456 439 39
f 440 441 457
f 457 441 458
f 442 428 459
f 258 274 259
f 444 443 460
f 444 460 461
f 274 445 462
f 448 449 463
f 464 434 465
f 435 466 421
f 407 453 467
f 16 454 468
f 41 469 470
f 471 456 39
f 457 458 472
f 472 458 473
f 442 459 474
f 475 258 62
f 461 460 476
f 461 476 477
f 274 462 478
f 448 463 479
f 464 465 480
f 481 482 435
f 436 233 292
f 16 468 483
f 39 455 484
f 485 471 39
f 472 473 486
f 486 473 487
f 474 459 488
f 489 475 62
f 477 476 490
f 477 490 491
f 274 478 492
f 448 479 493
f 464 480 494
f 451 452 495
f 496 233 497
f 16 483 498
f 484 499 39
f 500 485 39
f 486 487 501
f 501 487 502
f 474 488 503
f 61 489 62
f 491 490 504
f 491 504 505
f 274 492 506
f 448 493 507
f 464 494 508
f 481 509 482
f 436 292 510
f 16 498 511
f 512 500 39
f 501 502 513
f 513 502 514
f 503 488 515
f 516 61 52
f 505 504 517
f 505 517 518
f 274 519 520
f 448 507 521
f 464 508 522
f 523 524 509
f 510 292 525
f 16 511 526
f 527 512 39
f 513 514 528
f 528 514 529
f 503 515 530
f 531 516 52
f 518 517 532
f 518 532 533
f 274 520 534
f 448 521 535
f 464 522 536
f 537 495 538
f 525 292 539
f 16 526 540
f 541 527 39
f 528 529 542
f 542 529 543
f 530 515 544
f 545 531 52
f 533 532 546
f 533 546 547
f 274 534 548
f 448 535 549
f 464 536 550
f 551 524 523
f 539 292 552
f 16 540 553
f 554 541 39
f 542 543 555
f 555 543 556
f 530 544 557
f 558 545 52
f 547 546 559
f 547 559 560
f 274 548 561
f 448 549 562
f 464 550 563
f 551 564 524
f 552 292 565
f 16 553 566
f 567 554 39
f 555 556 568
f 568 556 569
f 557 544 570
f 54 558 52
f 560 559 571
f 560 571 572
f 386 548 573
f 448 562 574
f 464 563 575
f 537 538 576
f 565 292 577
f 16 566 578
f 579 567 39
f 568 569 580
f 580 569 581
f 557 570 582
f 52 56 53
f 560 572 583
f 583 572 584
f 386 585 586
f 448 574 587
f 464 575 588
f 589 564 551
f 577 292 590
f 16 578 591
f 592 579 39
f 580 581 593
f 593 581 594
f 582 570 595
f 582 595 596
f 583 584 597
f 597 584 598
f 386 586 599
f 448 587 600
f 464 588 601
f 602 603 564
f 590 292 604
f 16 591 605
f 606 592 39
f 593 594 607
f 607 594 608
f 596 595 609
f 596 609 610
f 597 598 611
f 611 598 612
f 386 599 613
f 600 587 614
f 464 601 615
f 616 576 617
f 604 292 618
f 16 605 619
f 620 606 39
f 607 608 621
f 621 608 622
f 610 609 623
f 610 623 624
f 611 612 625
f 625 612 626
f 386 613 627
f 600 614 628
f 464 615 629
f 630 603 602
f 618 292 631
f 16 619 632
f 633 620 39
f 621 622 634
f 634 622 635
f 624 623 636
f 624 636 637
f 625 626 638
f 638 626 639
f 627 613 640
f 600 628 641
f 464 629 642
f 643 603 630
f 631 292 644
f 16 632 645
f 646 633 39
f 634 635 647
f 647 635 648
f 637 636 649
f 637 649 650
f 638 639 651
f 651 639 652
f 640 613 653
f 600 641 654
f 464 642 655
f 656 657 643
f 644 292 658
f 16 645 659
f 660 646 39
f 647 648 661
f 661 648 662
f 650 649 663
f 650 663 664
f 651 652 665
f 665 652 666
f 653 613 667
f 600 654 668
f 464 655 669
f 670 657 656
f 658 292 671
f 16 659 672
f 673 660 39
f 661 662 674
f 674 662 675
f 664 663 676
f 664 676 677
f 665 666 678
f 678 666 679
f 667 613 680
f 600 668 681
f 464 669 682
f 670 683 657
f 671 292 684
f 16 672 685
f 686 673 39
f 674 675 687
f 687 675 688
f 677 676 689
f 677 689 690
f 678 679 691
f 691 679 692
f 680 613 693
f 600 681 694
f 464 682 695
f 696 683 670
f 684 292 697
f 16 685 698
f 699 686 39
f 687 688 700
f 700 688 701
f 690 689 702
f 690 702 703
f 691 692 704
f 704 692 705
f 693 613 706
f 600 694 707
f 464 695 708
f 709 710 683
f 697 292 711
f 16 698 712
f 713 699 39
f 700 701 714
f 714 701 715
f 703 702 716
f 703 716 717
f 704 705 718
f 718 705 719
f 706 613 720
f 600 707 721
f 464 708 722
f 723 710 709
f 711 292 724
f 16 712 725
f 726 713 39
f 714 715 727
f 727 715 728
f 717 716 729
f 717 729 730
f 718 719 731
f 731 719 732
f 720 613 733
f 600 721 734
f 464 722 735
f 723 736 710
f 724 292 737
f 16 725 738
f 499 726 39
f 727 728 739
f 739 728 740
f 730 729 741
f 730 741 742
f 731 732 743
f 743 732 744
f 733 613 745
f 600 734 746
f 464 735 747
f 748 736 723
f 737 292 749
f 16 738 750
f 41 470 751
f 739 740 752
f 752 740 753
f 742 741 754
f 742 754 755
f 743 744 756
f 743 756 757
f 745 613 758
f 746 734 759
f 464 747 760
f 761 736 748
f 749 292 762
f 16 750 763
f 41 751 362
f 752 753 764
f 764 753 765
f 755 754 766
f 755 766 767
f 757 756 768
f 757 768 769
f 758 613 770
f 746 759 771
f 464 760 772
f 773 774 761
f 762 292 775
f 16 763 776
f 362 751 777
f 764 765 778
f 778 765 779
f 767 766 780
f 767 780 781
f 769 768 782
f 769 782 783
f 770 613 784
f 746 771 785
f 464 772 786
f 787 774 773
f 775 292 788
f 16 776 789
f 777 751 790
f 778 779 791
f 781 780 792
f 783 782 793
f 784 613 794
f 746 785 795
f 464 786 796
f 787 797 774
f 788 292 798
f 751 776 799
f 790 751 800
f 791 779 801
f 781 792 802
f 783 793 803
f 794 613 804
f 746 795 805
f 464 796 806
f 807 797 787
f 798 292 808
f 809 751 810
f 800 751 811
f 791 801 812
f 802 792 813
f 803 793 814
f 794 804 815
f 746 805 816
f 464 806 817
f 807 818 797
f 808 292 819
f 810 751 799
f 811 751 820
f 812 801 821
f 802 813 822
f 815 804 823
f 746 816 824
f 464 817 825
f 826 818 807
f 819 292 827
f 828 751 829
f 820 751 830
f 812 821 831
f 822 813 832
f 823 804 833
f 746 824 834
f 464 825 835
f 836 818 826
f 827 292 837
f 838 751 828
f 830 751 839
f 831 821 840
f 822 832 841
f 833 804 842
f 746 834 843
f 835 825 844
f 836 845 818
f 837 292 846
f 829 751 809
f 839 751 847
f 831 840 848
f 841 832 849
f 842 804 850
f 746 843 851
f 844 825 852
f 853 845 836
f 846 292 854
f 16 751 855
f 847 751 838
f 848 840 856
f 841 849 857
f 850 804 858
f 746 851 859
f 844 852 860
f 853 861 845
f 854 292 862
f 799 863 864
f 848 856 865
f 857 849 866
f 858 804 867
f 859 851 868
f 860 852 869
f 870 861 871
f 862 292 872
f 799 864 873
f 865 856 874
f 857 866 875
f 867 804 876
f 859 868 877
f 860 869 878
f 870 879 861
f 880 292 881
f 799 873 882
f 865 874 883
f 875 866 884
f 876 804 885
f 859 877 886
f 878 869 887
f 888 879 870
f 881 292 889
f 799 882 890
f 883 874 891
f 875 884 892
f 885 804 893
f 859 886 894
f 878 887 895
f 888 896 879
f 889 292 897
f 799 890 898
f 892 884 899
f 893 804 900
f 859 894 901
f 895 887 902
f 903 896 888
f 897 292 904
f 799 898 905
f 892 899 906
f 900 804 907
f 859 901 908
f 895 902 909
f 910 896 903
f 904 292 911
f 799 905 912
f 906 899 913
f 907 804 914
f 908 901 915
f 909 902 916
f 910 917 896
f 911 292 918
f 799 912 919
f 906 913 920
f 914 804 921
f 908 915 922
f 916 902 923
f 924 917 910
f 918 292 925
f 799 919 926
f 920 913 927
f 921 804 928
f 908 922 929
f 916 923 930
f 924 931 917
f 925 292 932
f 799 926 933
f 920 927 934
f 928 804 935
f 908 929 936
f 930 923 937
f 938 931 924
f 932 292 939
f 799 933 940
f 934 927 941
f 928 935 942
f 908 936 943
f 930 937 944
f 945 931 938
f 939 292 946
f 799 940 947
f 934 941 948
f 942 935 949
f 943 936 950
f 944 937 951
f 945 952 931
f 946 292 953
f 799 947 954
f 948 941 955
f 949 935 956
f 943 950 957
f 944 951 958
f 959 952 945
f 953 292 960
f 799 954 961
f 948 955 962
f 956 935 963
f 943 957 964
f 958 951 965
f 959 966 952
f 960 292 967
f 799 961 968
f 962 955 969
f 963 935 970
f 943 964 971
f 965 951 966
f 965 966 959
f 967 292 972
f 799 968 973
f 962 969 974
f 970 935 975
f 943 971 976
f 871 861 853
f 972 292 977
f 799 973 978
f 974 969 979
f 975 935 980
f 976 971 981
f 761 774 736
f 977 292 982
f 799 978 983
f 980 935 984
f 976 981 985
f 709 683 696
f 982 292 986
f 799 983 987
f 988 989 990
f 976 985 991
f 643 657 603
f 986 292 992
f 799 987 993
f 990 989 994
f 976 991 995
f 602 564 589
f 992 292 996
f 799 993 997
f 990 994 998
f 995 991 999
f 523 509 481
f 996 292 1000
f 799 997 1001
f 990 998 1002
f 995 999 1003
f 435 482 466
f 1000 292 1004
f 799 1001 1005
f 1002 998 1006
f 995 1003 1007
f 375 391 341
f 1004 292 1008
f 799 1005 1009
f 1002 1006 1010
f 995 1007 1011
f 326 342 296
f 1008 292 1012
f 799 1009 1013
f 1010 1006 1014
f 995 1011 1015
f 467 453 1016
f 1012 292 1017
f 799 1013 1018
f 1010 1014 1019
f 1015 1011 1020
f 467 1016 1021
f 1017 292 1022
f 799 1018 1023
f 1010 1019 1024
f 1015 1020 1025
f 467 1021 1026
f 1022 292 1027
f 799 1023 1028
f 1024 1019 1029
f 1015 1025 1030
f 233 1031 497
f 1027 292 1032
f 799 1028 1033
f 1024 1029 1034
f 1035 1025 1036
f 1037 1031 233
f 1032 292 1038
f 799 1033 1039
f 1034 1029 1040
f 1035 1036 1041
f 1042 1037 233
f 1038 292 1043
f 799 1039 1044
f 1034 1040 1045
f 1035 1041 1046
f 1047 1042 233
f 1043 292 1048
f 799 1044 1049
f 1034 1045 1050
f 1035 1046 1051
f 1052 1047 233
f 1048 292 1053
f 799 1049 1054
f 1050 1045 1055
f 1051 1046 1056
f 1057 1058 233
f 1053 292 1059
f 799 1054 1060
f 1050 1055 1061
f 1051 1056 1062
f 343 1057 233
f 1059 292 1063
f 799 1060 1064
f 1061 1055 1065
f 1051 1062 1066
f 13 343 280
f 1063 292 1067
f 799 1064 195
f 1061 1065 1068
f 1066 1062 1069
f 263 13 1070
f 1067 292 1071
f 799 195 1072
f 1061 1068 1073
f 1066 1069 1074
f 358 263 311
f 872 292 880
f 799 233 1075
f 1073 1068 1076
f 1066 1074 1077
f 451 358 406
f 855 233 1078
f 1073 1076 1079
f 1080 1074 1081
f 537 451 1082
f 1078 233 1083
f 1079 1076 1084
f 1080 1081 1085
f 616 537 576
f 1078 496 1086
f 1079 1084 1087
f 1080 1085 1088
f 616 617 1089
f 1086 496 1090
f 1079 1087 1091
f 1088 1085 1092
f 616 1089 1093
f 1086 1090 1094
f 1091 1087 1095
f 233 1088 1096
f 616 1093 1097
f 1094 1090 1098
f 1091 1095 1099
f 1092 1100 233
f 1101 1093 1102
f 1098 1090 1026
f 1099 1095 1103
f 1100 1052 233
f 1101 1102 1104
f 1099 1103 1105
f 233 1106 1088
f 1058 1106 1107
f 1105 1103 1108
f 1101 1104 1109
f 1110 1104 1111
f 1105 1108 1112
f 1113 1110 1114
f 1114 1110 1111
f 1105 1112 1115
f 984 935 1116
f 1113 1117 1110
f 1115 1112 1118
f 988 1119 989
f 1120 1117 1113
f 1115 1118 1121
f 1116 935 1122
f 1123 1117 1120
f 1121 1118 1124
f 1122 935 1125
f 1126 1117 1123
f 1121 1124 1127
f 1125 935 1128
f 1126 1129 1117
f 1121 1127 1130
f 1128 935 1131
f 1132 1129 1126
f 1130 1127 1133
f 1131 935 1134
f 1135 1129 1132
f 1130 1133 1136
f 1134 935 1137
f 1138 1129 1135
f 1136 1133 1139
f 1137 935 1140
f 1141 1129 1138
f 1136 1139 1142
f 1137 1140 1143
f 1144 1129 1141
f 1136 1142 1145
f 1146 1119 988
f 1147 1129 1144
f 1145 1142 1148
f 1143 1140 1149
f 1150 1129 1147
f 1145 1148 1151
f 1149 1140 1152
f 1150 1153 1129
f 1151 1148 1154
f 1152 1140 1155
f 1156 1153 1150
f 1151 1154 1157
f 1155 1140 1158
f 1159 1153 1156
f 1151 1157 1160
f 1161 1119 1146
f 1162 1153 1159
f 1160 1157 1163
f 1155 1158 1164
f 1165 1153 1162
f 1160 1163 1166
f 1155 1164 1167
f 1168 1153 1165
f 1166 1163 1169
f 1155 1167 1119
f 1170 1153 1168
f 1166 1169 1171
f 1172 1119 1161
f 1173 1153 1170
f 1166 1171 1174
f 1155 1119 1175
f 1176 1153 1173
f 1174 1171 1177
f 1178 1119 1172
f 1179 1153 1176
f 1174 1177 1180
f 1175 1119 1181
f 1182 1153 1179
f 1180 1177 1183
f 1181 1119 1178
f 1184 1153 1182
f 1180 1183 1185
f 1119 1167 1186
f 1187 1153 1184
f 1180 1185 1188
f 1119 1186 1189
f 1190 1153 1187
f 1188 1185 1191
f 1119 1189 1192
f 1190 1193 1153
f 1188 1191 1194
f 1119 1192 1195
f 1196 1193 1190
f 1194 1191 1197
f 1195 1192 1198
f 1199 1193 1196
f 1194 1197 1200
f 1198 1192 1201
f 1202 1193 1199
f 1194 1200 1203
f 1198 1201 1204
f 1205 1193 1202
f 1203 1200 1206
f 1204 1201 1207
f 1208 1193 1205
f 1203 1206 1209
f 1207 1201 1210
f 1211 1193 1208
f 1209 1206 65
f 1210 1201 1212
f 1213 1193 1211
f 1209 65 1214
f 1210 1212 1215
f 1216 1193 1213
f 1214 65 1217
f 1215 1212 1218
f 1219 1193 1216
f 1217 65 1220
f 1218 1212 1221
f 1222 1193 1219
f 1220 65 1223
f 1221 1212 1224
f 1225 1193 1222
f 1223 65 1226
f 1224 1212 1227
f 1228 1193 1225
f 1226 65 104
f 1224 1227 1229
f 1228 1230 1231
f 1229 1227 1232
f 1233 1230 1228
f 1232 1227 1234
f 1235 1230 1233
f 1234 1227 1236
f 1237 1230 1235
f 1234 1236 1238
f 1239 1230 1237
f 1238 1236 1240
f 1241 1230 1239
f 1240 1236 1242
f 1243 1230 1241
f 1242 1236 1244
f 1245 1230 1243
f 1244 1236 1246
f 1247 1230 1245
f 1244 1246 1248
f 1 1230 1247
f 1248 1246 1249
f 1 1250 1230
f 1249 1246 1251
f 1250 1 1252
f 1251 1246 1253
f 1252 1 1254
f 1251 1253 1255
f 432 236 446
f 1255 1253 1256
f 447 236 1257
f 1256 1253 1258
f 1259 1257 236
f 1258 1253 1260
f 1261 1259 236
f 1260 1253 1262
f 1263 1261 236
f 1260 1262 1264
f 1265 1263 236
f 1264 1262 1266
f 1267 1265 236
f 1266 1262 1268
f 1269 1267 236
f 1268 1262 1270
f 1271 1269 236
f 1270 1262 1272
f 1273 1271 236
f 1270 1272 1274
f 1275 1273 236
f 1274 1272 1276
f 1277 1275 236
f 1276 1272 1278
f 1279 1277 236
f 1278 1272 1280
f 1281 1279 236
f 1278 1280 1282
f 1283 1281 236
f 1282 1280 1284
f 1285 1283 236
f 1284 1280 1286
f 1287 1285 236
f 1286 1280 1288
f 1289 1287 236
f 1288 1280 1290
f 1291 1289 236
f 1288 1290 1292
f 1293 1291 236
f 1292 1290 1294
f 1295 1293 236
f 1294 1290 1296
f 1297 1295 236
f 1296 1290 1298
f 1299 1297 236
f 1298 1290 1300
f 1301 1299 236
f 1298 1300 1302
f 1303 1301 236
f 1302 1300 1304
f 1305 1303 236
f 1304 1300 1306
f 1307 1305 236
f 1306 1300 1308
f 1309 1307 236
f 1306 1308 1310
f 1311 1309 236
f 1310 1308 1312
f 1313 1311 236
f 1312 1308 1314
f 1315 1313 236
f 1314 1308 1316
f 1317 1315 236
f 1316 1308 1318
f 1319 1317 236
f 1318 1308 1320
f 1321 1319 236
f 1320 1308 1322
f 307 1321 236
f 1322 1308 1323
f 236 233 237
f 1323 1308 1324
f 1071 292 1325
f 1324 1308 1326
f 1098 1026 1021
f 1326 1308 1327
f 195 149 196
f 1327 1308 1328
f 227 883 891
f 1328 1308 1329
f 227 891 974
f 1329 1308 65
f 227 974 979
f 65 1308 66
f 227 979 814
f 102 104 1330
f 227 814 793
f 104 134 147
f 227 793 1331
f 1332 323 147
f 227 1331 1333
f 291 1332 147
f 227 1333 1334
f 291 149 227
f 227 1334 1335
f 291 227 1336
f 227 1335 1337
f 1336 227 1338
f 227 1337 1339
f 1338 227 1340
f 227 1339 1341
f 1340 227 1342
f 227 1341 1343
f 1342 227 1344
f 227 1343 1345
f 1344 227 1346
f 227 1345 1347
f 1346 227 1348
f 227 1347 1349
f 1348 227 1350
f 227 1349 1351
f 1350 227 1352
f 227 1351 1353
f 1352 227 1354
f 227 1353 1355
f 1354 227 1356
f 227 1355 1357
f 1356 227 1358
f 227 1357 1359
f 1358 227 1360
f 227 1359 1361
f 1360 227 1362
f 227 1361 1363
f 1362 227 1364
f 227 1363 1365
f 1364 227 1366
f 227 1365 1367
f 1366 227 1368
f 227 1367 1369
f 1368 227 1370
f 227 1369 1371
f 1370 227 1372
f 227 1371 1373
f 1372 227 1374
f 227 1373 1375
f 1374 227 1376
f 227 1375 1377
f 1376 227 1378
f 227 1377 1379
f 1378 227 1380
f 227 1379 1381
f 1380 227 1382
f 1382 227 1381
f 274 256 1383
f 256 259 1384
f 492 519 506
f 519 274 506
f 548 386 561
f 386 274 1385
f 548 585 573
f 585 386 573
f 104 65 1330
f 65 102 1330
f 256 1384 1383
f 1384 274 1383
f 274 1384 275
f 1386 1467 259
f 1467 1452 259
f 1452 1466 259
f 1466 1384 259
f 274 561 1385
f 561 386 1385
f 275 1448 259
f 1448 1386 259
f 1384 1466 1452
f 1448 1465 1466
f 1466 1384 1465
f 1452 1467 1448
f 1467 1386 1448
f 1384 1465 275
f 1465 1448 275
f 62 52 63
f 52 61 63
f 270 56 285
f 56 284 285
f 56 251 57
f 251 55 57
f 50 39 51
f 39 48 51
f 347 39 364
f 39 363 364
f 195 233 1387
f 233 799 1388
f 1389 1449 195
f 1449 1072 195
f 1390 1469 799
f 1469 1454 799
f 1454 1468 799
f 1468 1389 799
f 799 1072 1390
f 1072 1449 1454
f 1389 1468 1449
f 1468 1454 1449
f 1454 1469 1072
f 1469 1390 1072
f 1389 1455 799
f 1455 1391 799
f 1389 233 1392
f 233 1391 1393
f 1391 1455 1394
f 1455 1389 1394
f 233 1394 1395
f 1394 1389 1392
f 799 1391 1396
f 1391 233 1396
f 1391 1394 1397
f 1394 233 1397
f 1394 1392 1398
f 1392 233 1398
f 1396 1456 799
f 1456 1399 799
f 1396 233 1400
f 233 1399 1401
f 1399 1456 1402
f 1456 1396 1402
f 233 1402 1403
f 1402 1396 1404
f 1391 1397 1393
f 1397 233 1393
f 1394 1398 1405
f 1398 233 1405
f 776 751 789
f 751 16 789
f 1399 1402 1401
f 1402 233 1406
f 1402 1404 1403
f 1404 233 1403
f 1394 1405 1407
f 1405 233 1407
f 233 855 1408
f 855 799 1409
f 233 1401 1406
f 1401 1402 1406
f 233 1404 1400
f 1404 1396 1400
f 1394 1407 1395
f 1407 233 1395
f 799 1410 1409
f 1410 855 1411
f 1399 1453 799
f 1453 1388 799
f 1388 1453 233
f 1453 1399 233
f 855 1409 1411
f 1409 1410 1411
f 855 1410 1412
f 1410 233 1413
f 1412 1457 233
f 1457 1414 233
f 1412 1410 1413
f 233 1389 1387
f 1389 195 1387
f 855 1412 1415
f 1416 1473 233
f 1473 1458 233
f 1458 1471 233
f 1471 1412 233
f 233 1415 1417
f 1415 1412 1417
f 1414 1457 1413
f 1457 1412 1413
f 1413 233 1414
f 855 1415 1418
f 1419 1459 233
f 1459 1415 233
f 233 1418 1420
f 1418 1415 1420
f 233 1420 1419
f 1415 1459 1420
f 1459 1419 1420
f 1417 1460 233
f 1460 1416 233
f 1412 1471 1458
f 1460 1472 1471
f 1471 1412 1472
f 1458 1473 1460
f 1473 1416 1460
f 1412 1472 1417
f 1472 1460 1417
f 1410 1470 233
f 1470 1450 233
f 1450 1464 233
f 1464 1075 233
f 1075 1464 799
f 1464 1450 799
f 1450 1470 799
f 1470 1410 799
f 855 1418 1408
f 1421 1475 233
f 1475 1461 233
f 1461 1474 233
f 1474 1418 233
f 233 1408 1422
f 1408 1418 1422
f 233 1422 1423
f 1418 1462 1422
f 1462 1423 1422
f 233 1423 1421
f 1423 1462 1461
f 1418 1474 1462
f 1474 1461 1462
f 1461 1475 1423
f 1475 1421 1423
f 233 496 1424
f 496 1078 1425
f 496 1083 1426
f 1427 1451 233
f 1451 1083 233
f 496 1427 1428
f 1427 233 1428
f 496 1428 1429
f 1428 233 1424
f 236 371 355
f 371 338 355
f 1078 1083 1430
f 1083 496 1430
f 1083 1451 1426
f 1451 1427 1426
f 1427 496 1426
f 1424 1463 1428
f 1463 1429 1428
f 1429 1463 496
f 1463 1424 496
f 1088 1092 1431
f 1092 233 1432
f 1088 1432 1433
f 1432 233 1434
f 343 233 1435
f 233 280 1436
f 280 1437 1436
f 1437 233 1436
f 434 464 450
f 464 7 450
f 1078 1430 1425
f 1430 496 1425
f 1092 1432 1438
f 1432 1088 1438
f 1088 1434 1096
f 1434 233 1096
f 233 1437 1435
f 1437 343 1439
f 343 1437 1440
f 1437 280 1441
f 343 1441 1442
f 1441 280 344
f 2 241 3
f 241 1 1443
f 1092 1438 1431
f 1438 1088 1444
f 1088 1431 1445
f 1431 1438 1444
f 1432 1434 1433
f 1434 1088 1446
f 1106 233 1107
f 233 1058 1107
f 343 1435 1439
f 1435 1437 1439
f 1441 344 1442
f 344 343 1442
f 1093 1101 1097
f 1101 616 1097
f 1230 1193 1447
f 1193 1228 1231
f 1 3 1443
f 3 241 1443
f 5 7 6
f 7 4 6
f 419 448 433
f 448 294 433
f 1025 1035 1030
f 1035 1015 1030
f 1074 1080 1077
f 1080 1066 1077
f 1431 1444 1445
f 1444 1088 1445
f 1088 1433 1446
f 1433 1434 1446
f 1437 1441 1440
f 1441 343 1440
f 13 15 1070
f 15 263 1070
f 451 495 1082
f 495 537 1082
f 1104 1110 1109
f 1110 1101 1109
f 1193 1231 1447
f 1231 1230 1447
f 1 242 1254
f 242 1252 1254
f 362 19 38
f 256 401 274
f 232 7 1390
f 309 862 1438
f 1325 236 292
f 1331 65 1223
f 814 891 227
f 974 195 227
f 863 751 799
f 469 39 41
f 883 233 227
