v 0.601351 0.220000 -0.295426
v 0.600070 0.220000 -0.298021
v 0.598776 0.220000 -0.300611
v 0.597472 0.220000 -0.303194
v 0.596157 0.220000 -0.305773
v 0.594830 0.220000 -0.308345
v 0.593493 0.220000 -0.310912
v 0.592144 0.220000 -0.313473
v 0.590784 0.220000 -0.316028
v 0.589414 0.220000 -0.318577
v 0.588032 0.220000 -0.321120
v 0.586639 0.220000 -0.323658
v 0.585236 0.220000 -0.326189
v 0.583821 0.220000 -0.328714
v 0.582396 0.220000 -0.331233
v 0.580959 0.220000 -0.333746
v 0.579512 0.220000 -0.336253
v 0.578054 0.220000 -0.338753
v 0.576585 0.220000 -0.341247
v 0.575106 0.220000 -0.343734
v 0.573615 0.220000 -0.346216
v 0.572114 0.220000 -0.348690
v 0.570603 0.220000 -0.351159
v 0.569081 0.220000 -0.353620
v 0.567548 0.220000 -0.356075
v 0.566004 0.220000 -0.358524
v 0.564450 0.220000 -0.360966
v 0.562885 0.220000 -0.363401
v 0.561310 0.220000 -0.365829
v 0.559725 0.220000 -0.368250
v 0.558129 0.220000 -0.370665
v 0.556522 0.220000 -0.373073
v 0.556752 0.220000 -0.372744
v 0.556995 0.220000 -0.372425
v 0.557250 0.220000 -0.372117
v 0.557517 0.220000 -0.371818
v 0.557796 0.220000 -0.371531
v 0.558087 0.220000 -0.371255
v 0.558388 0.220000 -0.370991
v 0.558700 0.220000 -0.370739
v 0.559021 0.220000 -0.370500
v 0.559352 0.220000 -0.370274
v 0.559691 0.220000 -0.370061
v 0.560039 0.220000 -0.369862
v 0.560394 0.220000 -0.369677
v 0.560757 0.220000 -0.369507
v 0.561126 0.220000 -0.369351
v 0.561501 0.220000 -0.369210
v 0.561882 0.220000 -0.369085
v 0.562267 0.220000 -0.368974
v 0.562656 0.220000 -0.368880
v 0.563049 0.220000 -0.368800
v 0.563444 0.220000 -0.368737
v 0.563842 0.220000 -0.368690
v 0.564242 0.220000 -0.368658
v 0.564642 0.220000 -0.368642
v 0.565042 0.220000 -0.368643
v 0.565443 0.220000 -0.368660
v 0.565842 0.220000 -0.368692
v 0.566240 0.220000 -0.368741
v 0.566635 0.220000 -0.368805
v 0.567028 0.220000 -0.368886
v 0.567417 0.220000 -0.368981
v 0.619117 0.220000 -0.382835
v 0.619527 0.220000 -0.382935
v 0.619941 0.220000 -0.383018
v 0.620358 0.220000 -0.383084
v 0.620777 0.220000 -0.383132
v 0.621199 0.220000 -0.383162
v 0.621621 0.220000 -0.383175
v 0.622043 0.220000 -0.383170
v 0.622464 0.220000 -0.383146
v 0.622885 0.220000 -0.383105
v 0.623303 0.220000 -0.383047
v 0.623718 0.220000 -0.382971
v 0.624130 0.220000 -0.382877
v 0.624537 0.220000 -0.382766
v 0.624939 0.220000 -0.382638
v 0.625336 0.220000 -0.382493
v 0.625726 0.220000 -0.382331
v 0.626109 0.220000 -0.382153
v 0.626484 0.220000 -0.381959
v 0.626851 0.220000 -0.381750
v 0.627208 0.220000 -0.381525
v 0.627556 0.220000 -0.381285
v 0.627893 0.220000 -0.381031
v 0.628219 0.220000 -0.380763
v 0.628533 0.220000 -0.380481
v 0.628836 0.220000 -0.380186
v 0.629125 0.220000 -0.379879
v 0.629402 0.220000 -0.379560
v 0.629664 0.220000 -0.379229
v 0.629913 0.220000 -0.378888
v 0.630147 0.220000 -0.378536
v 0.630365 0.220000 -0.378175
v 0.642692 0.220000 -0.356825
v 0.642895 0.220000 -0.356455
v 0.643083 0.220000 -0.356076
v 0.643254 0.220000 -0.355691
v 0.643409 0.220000 -0.355298
v 0.643548 0.220000 -0.354899
v 0.643669 0.220000 -0.354494
v 0.643773 0.220000 -0.354085
v 0.643860 0.220000 -0.353672
v 0.643929 0.220000 -0.353255
v 0.643980 0.220000 -0.352836
v 0.644014 0.220000 -0.352416
v 0.644030 0.220000 -0.351994
v 0.644029 0.220000 -0.351571
v 0.644009 0.220000 -0.351150
v 0.643972 0.220000 -0.350729
v 0.643916 0.220000 -0.350310
v 0.643844 0.220000 -0.349895
v 0.643754 0.220000 -0.349482
v 0.643646 0.220000 -0.349074
v 0.643521 0.220000 -0.348670
v 0.643380 0.220000 -0.348273
v 0.643221 0.220000 -0.347881
v 0.643047 0.220000 -0.347497
v 0.642856 0.220000 -0.347120
v 0.642650 0.220000 -0.346752
v 0.642428 0.220000 -0.346393
v 0.642191 0.220000 -0.346043
v 0.641940 0.220000 -0.345704
v 0.641674 0.220000 -0.345375
v 0.641395 0.220000 -0.345058
v 0.641103 0.220000 -0.344754
v 0.603256 0.220000 -0.306906
v 0.602978 0.220000 -0.306618
v 0.602712 0.220000 -0.306318
v 0.602459 0.220000 -0.306008
v 0.602218 0.220000 -0.305687
v 0.601990 0.220000 -0.305358
v 0.601775 0.220000 -0.305020
v 0.601575 0.220000 -0.304673
v 0.601388 0.220000 -0.304319
v 0.601216 0.220000 -0.303957
v 0.601058 0.220000 -0.303589
v 0.600915 0.220000 -0.303214
v 0.600787 0.220000 -0.302835
v 0.600675 0.220000 -0.302450
v 0.600578 0.220000 -0.302061
v 0.600496 0.220000 -0.301669
v 0.600431 0.220000 -0.301274
v 0.600381 0.220000 -0.300876
v 0.600347 0.220000 -0.300477
v 0.600330 0.220000 -0.300077
v 0.600328 0.220000 -0.299676
v 0.600342 0.220000 -0.299276
v 0.600373 0.220000 -0.298876
v 0.600419 0.220000 -0.298478
v 0.600482 0.220000 -0.298083
v 0.600560 0.220000 -0.297690
v 0.600653 0.220000 -0.297300
v 0.600763 0.220000 -0.296915
v 0.600887 0.220000 -0.296534
v 0.601027 0.220000 -0.296159
v 0.601182 0.220000 -0.295789
f 158 1 2
f 31 32 33
f 31 33 34
f 30 31 34
f 29 30 34
f 29 34 35
f 28 29 35
f 28 35 36
f 27 28 36
f 27 36 37
f 26 27 37
f 26 37 38
f 25 26 38
f 24 25 38
f 24 38 39
f 23 24 39
f 23 39 40
f 22 23 40
f 22 40 41
f 21 22 41
f 21 41 42
f 20 21 42
f 19 20 42
f 19 42 43
f 18 19 43
f 18 43 44
f 17 18 44
f 17 44 45
f 16 17 45
f 16 45 46
f 15 16 46
f 14 15 46
f 14 46 47
f 13 14 47
f 13 47 48
f 12 13 48
f 12 48 49
f 11 12 49
f 11 49 50
f 10 11 50
f 10 50 51
f 9 10 51
f 9 51 52
f 8 9 52
f 7 8 52
f 7 52 53
f 6 7 53
f 6 53 54
f 5 6 54
f 5 54 55
f 4 5 55
f 4 55 56
f 3 4 56
f 3 56 57
f 2 3 57
f 158 2 57
f 158 57 58
f 158 58 59
f 158 59 60
f 158 60 61
f 158 61 62
f 158 62 63
f 63 64 65
f 63 65 66
f 63 66 67
f 63 67 68
f 63 68 69
f 63 69 70
f 63 70 71
f 63 71 72
f 63 72 73
f 63 73 74
f 63 74 75
f 63 75 76
f 63 76 77
f 63 77 78
f 63 78 79
f 63 79 80
f 63 80 81
f 63 81 82
f 63 82 83
f 63 83 84
f 63 84 85
f 63 85 86
f 63 86 87
f 63 87 88
f 63 88 89
f 63 89 90
f 63 90 91
f 63 91 92
f 63 92 93
f 63 93 94
f 63 94 95
f 63 95 96
f 63 96 97
f 63 97 98
f 63 98 99
f 63 99 100
f 63 100 101
f 63 101 102
f 63 102 103
f 63 103 104
f 63 104 105
f 63 105 106
f 63 106 107
f 63 107 108
f 63 108 109
f 63 109 110
f 63 110 111
f 63 111 112
f 63 112 113
f 63 113 114
f 63 114 115
f 63 115 116
f 63 116 117
f 63 117 118
f 63 118 119
f 63 119 120
f 63 120 121
f 63 121 122
f 63 122 123
f 63 123 124
f 63 124 125
f 63 125 126
f 63 126 127
f 63 127 128
f 63 128 129
f 63 129 130
f 63 130 131
f 63 131 132
f 63 132 133
f 63 133 134
f 63 134 135
f 63 135 136
f 63 136 137
f 63 137 138
f 63 138 139
f 63 139 140
f 63 140 141
f 63 141 142
f 63 142 143
f 63 143 144
f 63 144 145
f 63 145 146
f 63 146 147
f 63 147 148
f 63 148 149
f 63 149 150
f 63 150 151
f 63 151 152
f 63 152 153
f 63 153 154
f 63 154 155
f 63 155 156
f 63 156 157
f 63 157 158
