v -0.606516 0.263321 -0.016211
v -0.607014 0.261954 -0.016125
v -0.607511 0.260587 -0.016041
v -0.608009 0.259220 -0.015961
v -0.608506 0.257854 -0.015885
v -0.609004 0.256487 -0.015811
v -0.609501 0.255120 -0.015741
v -0.609999 0.253753 -0.015673
v -0.610496 0.252386 -0.015609
v -0.610994 0.251020 -0.015548
v -0.611491 0.249653 -0.015491
v -0.611989 0.248286 -0.015436
v -0.612486 0.246919 -0.015385
v -0.612984 0.245552 -0.015337
v -0.613481 0.244185 -0.015292
v -0.613979 0.242819 -0.015250
v -0.614476 0.241452 -0.015212
v -0.614974 0.240085 -0.015177
v -0.615471 0.238718 -0.015145
v -0.615969 0.237351 -0.015116
v -0.616466 0.235984 -0.015090
v -0.616964 0.234618 -0.015068
v -0.617461 0.233251 -0.015049
v -0.617958 0.231884 -0.015032
v -0.618456 0.230517 -0.015020
v -0.618953 0.229150 -0.015010
v -0.619451 0.227783 -0.015004
v -0.619948 0.226417 -0.015000
v -0.620446 0.225050 -0.015000
v -0.620943 0.223683 -0.015004
v -0.621441 0.222316 -0.015010
v -0.621938 0.220949 -0.015020
v -0.622436 0.219583 -0.015032
v -0.622933 0.218216 -0.015049
v -0.623431 0.216849 -0.015068
v -0.623928 0.215482 -0.015090
v -0.624426 0.214115 -0.015116
v -0.624923 0.212748 -0.015145
v -0.625421 0.211382 -0.015177
v -0.625918 0.210015 -0.015212
v -0.626416 0.208648 -0.015250
v -0.626913 0.207281 -0.015292
v -0.627411 0.205914 -0.015337
v -0.627908 0.204547 -0.015385
v -0.628406 0.203181 -0.015436
v -0.628903 0.201814 -0.015491
v -0.629401 0.200447 -0.015548
v -0.629898 0.199080 -0.015609
v -0.630396 0.197713 -0.015673
v -0.630893 0.196347 -0.015741
v -0.631391 0.194980 -0.015811
v -0.631888 0.193613 -0.015885
v -0.632385 0.192246 -0.015961
v -0.632883 0.190879 -0.016041
v -0.633380 0.189512 -0.016125
v -0.633878 0.188146 -0.016211
v -0.633878 0.188146 -0.857174
v -0.633380 0.189512 -0.857376
v -0.632883 0.190879 -0.857570
v -0.632386 0.192246 -0.857757
v -0.631888 0.193613 -0.857936
v -0.631391 0.194980 -0.858108
v -0.630893 0.196346 -0.858272
v -0.630396 0.197713 -0.858429
v -0.629898 0.199080 -0.858578
v -0.629401 0.200447 -0.858720
v -0.628903 0.201814 -0.858855
v -0.628406 0.203180 -0.858982
v -0.627908 0.204547 -0.859102
v -0.627411 0.205914 -0.859214
v -0.626913 0.207281 -0.859318
v -0.626416 0.208647 -0.859416
v -0.625918 0.210014 -0.859505
v -0.625421 0.211381 -0.859588
v -0.624923 0.212748 -0.859662
v -0.624426 0.214115 -0.859730
v -0.623928 0.215481 -0.859790
v -0.623431 0.216848 -0.859842
v -0.622934 0.218215 -0.859887
v -0.622436 0.219582 -0.859924
v -0.621939 0.220949 -0.859954
v -0.621441 0.222316 -0.859977
v -0.620944 0.223682 -0.859992
v -0.620446 0.225049 -0.859999
v -0.619949 0.226416 -0.859999
v -0.619451 0.227783 -0.859992
v -0.618954 0.229150 -0.859977
v -0.618456 0.230516 -0.859954
v -0.617959 0.231883 -0.859924
v -0.617461 0.233250 -0.859887
v -0.616964 0.234617 -0.859842
v -0.616466 0.235984 -0.859790
v -0.615969 0.237351 -0.859730
v -0.615471 0.238717 -0.859662
v -0.614974 0.240084 -0.859588
v -0.614476 0.241451 -0.859505
v -0.613979 0.242818 -0.859416
v -0.613481 0.244185 -0.859318
v -0.612984 0.245552 -0.859214
v -0.612486 0.246918 -0.859102
v -0.611989 0.248285 -0.858982
v -0.611491 0.249652 -0.858855
v -0.610994 0.251019 -0.858720
v -0.610496 0.252386 -0.858579
v -0.609999 0.253753 -0.858429
v -0.609501 0.255120 -0.858272
v -0.609004 0.256487 -0.858108
v -0.608506 0.257853 -0.857936
v -0.608009 0.259220 -0.857757
v -0.607511 0.260587 -0.857570
v -0.607014 0.261954 -0.857376
v -0.606516 0.263321 -0.857174
f 29 28 27
f 29 27 30
f 30 27 26
f 30 26 31
f 31 26 25
f 31 25 32
f 32 25 24
f 32 24 33
f 33 24 23
f 33 23 34
f 34 23 22
f 34 22 35
f 35 22 21
f 35 21 36
f 36 21 20
f 36 20 37
f 37 20 19
f 37 19 38
f 38 19 18
f 38 18 39
f 39 18 17
f 39 17 40
f 40 17 16
f 40 16 41
f 41 16 15
f 41 15 42
f 42 15 14
f 42 14 43
f 43 14 13
f 43 13 44
f 44 13 12
f 44 12 45
f 45 12 11
f 45 11 46
f 46 11 10
f 46 10 47
f 47 10 9
f 47 9 48
f 48 9 8
f 48 8 49
f 49 8 7
f 49 7 50
f 50 7 6
f 50 6 51
f 51 6 5
f 51 5 52
f 52 5 4
f 52 4 53
f 53 4 3
f 53 3 54
f 54 3 2
f 54 2 55
f 55 2 1
f 55 1 56
f 56 1 112
f 56 112 57
f 57 112 111
f 57 111 58
f 58 111 110
f 58 110 59
f 59 110 109
f 59 109 60
f 60 109 61
f 61 109 108
f 61 108 62
f 62 108 107
f 62 107 63
f 63 107 106
f 63 106 64
f 64 106 105
f 64 105 65
f 65 105 104
f 65 104 66
f 66 104 103
f 66 103 67
f 67 103 102
f 67 102 68
f 68 102 101
f 68 101 69
f 69 101 100
f 69 100 70
f 70 100 99
f 70 99 71
f 71 99 98
f 71 98 72
f 72 98 97
f 72 97 73
f 73 97 96
f 73 96 74
f 74 96 95
f 74 95 75
f 75 95 94
f 75 94 76
f 76 94 93
f 76 93 77
f 77 93 92
f 77 92 78
f 78 92 91
f 78 91 79
f 79 91 90
f 79 90 80
f 80 90 89
f 80 89 81
f 81 89 88
f 81 88 82
f 82 88 87
f 82 87 83
f 83 87 86
f 83 86 84
f 84 86 85
