v -0.269510 0.220000 -0.676190
v -0.264845 0.220000 -0.622869
v -0.264845 0.016837 -0.622869
v -0.264834 0.016713 -0.622738
v -0.264822 0.016588 -0.622608
v -0.264811 0.016463 -0.622477
v -0.264799 0.016338 -0.622346
v -0.264788 0.016214 -0.622216
v -0.264776 0.016089 -0.622085
v -0.264765 0.015964 -0.621954
v -0.264753 0.015839 -0.621823
v -0.264742 0.015715 -0.621693
v -0.264731 0.015590 -0.621562
v -0.264719 0.015465 -0.621432
v -0.264708 0.015341 -0.621301
v -0.264696 0.015216 -0.621170
v -0.264685 0.015092 -0.621040
v -0.264673 0.014967 -0.620909
v -0.264662 0.014842 -0.620779
v -0.264651 0.014718 -0.620648
v -0.264639 0.014593 -0.620518
v -0.264628 0.014469 -0.620387
v -0.264616 0.014344 -0.620257
v -0.264605 0.014220 -0.620126
v -0.264594 0.014096 -0.619996
v -0.264582 0.013971 -0.619866
v -0.264571 0.013847 -0.619735
v -0.264559 0.013722 -0.619605
v -0.264548 0.013598 -0.619475
v -0.264537 0.013474 -0.619344
v -0.264525 0.013349 -0.619214
v -0.264514 0.013225 -0.619084
v -0.264502 0.013101 -0.618953
v -0.264491 0.012977 -0.618823
v -0.264480 0.012852 -0.618693
v -0.264468 0.012728 -0.618563
v -0.264457 0.012604 -0.618432
v -0.264445 0.012480 -0.618302
v -0.264434 0.012356 -0.618172
v -0.264423 0.012231 -0.618042
v -0.264411 0.012107 -0.617912
v -0.264400 0.011983 -0.617782
v -0.264388 0.011859 -0.617651
v -0.264377 0.011735 -0.617521
v -0.264366 0.011611 -0.617391
v -0.264354 0.011487 -0.617261
v -0.264343 0.011363 -0.617131
v -0.264332 0.011239 -0.617001
v -0.264320 0.011115 -0.616871
v -0.264309 0.010991 -0.616741
v -0.264297 0.010867 -0.616611
v -0.264286 0.010743 -0.616481
v -0.264275 0.010619 -0.616351
v -0.264263 0.010495 -0.616221
v -0.264252 0.010371 -0.616092
v -0.264241 0.010248 -0.615962
v -0.264229 0.010124 -0.615832
v -0.264218 0.010000 -0.615702
v -0.264218 0.000000 -0.615702
v -0.269510 0.000000 -0.676190
f 60 1 2
f 60 2 3
f 60 3 4
f 60 4 5
f 60 5 6
f 60 6 7
f 60 7 8
f 60 8 9
f 60 9 10
f 60 10 11
f 60 11 12
f 60 12 13
f 60 13 14
f 60 14 15
f 60 15 16
f 60 16 17
f 60 17 18
f 60 18 19
f 60 19 20
f 60 20 21
f 60 21 22
f 60 22 23
f 60 23 24
f 60 24 25
f 60 25 26
f 60 26 27
f 60 27 28
f 60 28 29
f 60 29 30
f 60 30 31
f 60 31 32
f 60 32 33
f 60 33 34
f 60 34 35
f 60 35 36
f 60 36 37
f 60 37 38
f 60 38 39
f 60 39 40
f 60 40 41
f 60 41 42
f 60 42 43
f 60 43 44
f 60 44 45
f 60 45 46
f 60 46 47
f 60 47 48
f 60 48 49
f 60 49 50
f 60 50 51
f 60 51 52
f 60 52 53
f 60 53 54
f 60 54 55
f 60 55 56
f 60 56 57
f 60 57 58
f 58 59 60
