v 1.620000 -0.180000 0.387500
v 1.619461 -0.180000 0.376877
v 1.617851 -0.180000 0.366364
v 1.615185 -0.180000 0.356067
v 1.611491 -0.180000 0.346093
v 1.606806 -0.180000 0.336543
v 1.601180 -0.180000 0.327517
v 1.594670 -0.180000 0.319106
v 1.587342 -0.180000 0.311397
v 1.579271 -0.180000 0.304469
v 1.570541 -0.180000 0.298392
v 1.561241 -0.180000 0.293231
v 1.551467 -0.180000 0.289036
v 1.541319 -0.180000 0.285852
v 1.530900 -0.180000 0.283711
v 1.520318 -0.180000 0.282635
v 1.509682 -0.180000 0.282635
v 1.499100 -0.180000 0.283711
v 1.488681 -0.180000 0.285852
v 1.478533 -0.180000 0.289036
v 1.468759 -0.180000 0.293231
v 1.459459 -0.180000 0.298392
v 1.450729 -0.180000 0.304469
v 1.442658 -0.180000 0.311397
v 1.435330 -0.180000 0.319106
v 1.428820 -0.180000 0.327517
v 1.423194 -0.180000 0.336543
v 1.418509 -0.180000 0.346093
v 1.414815 -0.180000 0.356067
v 1.412149 -0.180000 0.366364
v 1.410539 -0.180000 0.376877
v 1.410000 -0.180000 0.387500
v 1.620000 0.000000 0.387500
v 1.619461 0.000000 0.376877
v 1.617851 0.000000 0.366364
v 1.615185 0.000000 0.356067
v 1.611491 0.000000 0.346093
v 1.606806 0.000000 0.336543
v 1.601180 0.000000 0.327517
v 1.594670 0.000000 0.319106
v 1.587342 0.000000 0.311397
v 1.579271 0.000000 0.304469
v 1.570541 0.000000 0.298392
v 1.561241 0.000000 0.293231
v 1.551467 0.000000 0.289036
v 1.541319 0.000000 0.285852
v 1.530900 0.000000 0.283711
v 1.520318 0.000000 0.282635
v 1.509682 0.000000 0.282635
v 1.499100 0.000000 0.283711
v 1.488681 0.000000 0.285852
v 1.478533 0.000000 0.289036
v 1.468759 0.000000 0.293231
v 1.459459 0.000000 0.298392
v 1.450729 0.000000 0.304469
v 1.442658 0.000000 0.311397
v 1.435330 0.000000 0.319106
v 1.428820 0.000000 0.327517
v 1.423194 0.000000 0.336543
v 1.418509 0.000000 0.346093
v 1.414815 0.000000 0.356067
v 1.412149 0.000000 0.366364
v 1.410539 0.000000 0.376877
v 1.410000 0.000000 0.387500
f 1 34 2
f 1 33 34
f 2 35 3
f 2 34 35
f 3 36 4
f 3 35 36
f 4 37 5
f 4 36 37
f 5 38 6
f 5 37 38
f 6 39 7
f 6 38 39
f 7 40 8
f 7 39 40
f 8 41 9
f 8 40 41
f 9 42 10
f 9 41 42
f 10 43 11
f 10 42 43
f 11 44 12
f 11 43 44
f 12 45 13
f 12 44 45
f 13 46 14
f 13 45 46
f 14 47 15
f 14 46 47
f 15 48 16
f 15 47 48
f 16 49 17
f 16 48 49
f 17 50 18
f 17 49 50
f 18 51 19
f 18 50 51
f 19 52 20
f 19 51 52
f 20 53 21
f 20 52 53
f 21 54 22
f 21 53 54
f 22 55 23
f 22 54 55
f 23 56 24
f 23 55 56
f 24 57 25
f 24 56 57
f 25 58 26
f 25 57 58
f 26 59 27
f 26 58 59
f 27 60 28
f 27 59 60
f 28 61 29
f 28 60 61
f 29 62 30
f 29 61 62
f 30 63 31
f 30 62 63
f 31 64 32
f 31 63 64
