v -0.629327 -0.029105 -1.051000
v -0.629259 -0.030536 -1.051103
v -0.629190 -0.031937 -1.051407
v -0.629120 -0.033279 -1.051907
v -0.629053 -0.034534 -1.052593
v -0.628989 -0.035679 -1.053449
v -0.628931 -0.036688 -1.054458
v -0.628880 -0.037543 -1.055601
v -0.628839 -0.038227 -1.056852
v -0.628809 -0.038724 -1.058187
v -0.628790 -0.039027 -1.059579
v -0.628784 -0.039129 -1.061000
v -0.561902 -0.019494 -1.051000
v -0.561701 -0.020906 -1.051102
v -0.561504 -0.022288 -1.051407
v -0.561315 -0.023613 -1.051907
v -0.561138 -0.024853 -1.052592
v -0.560977 -0.025984 -1.053449
v -0.560835 -0.026981 -1.054458
v -0.560714 -0.027826 -1.055600
v -0.560618 -0.028501 -1.056852
v -0.560548 -0.028994 -1.058187
v -0.560505 -0.029293 -1.059579
v -0.560491 -0.029393 -1.061000
v -0.493609 -0.009758 -1.051000
v -0.493408 -0.011171 -1.051102
v -0.493211 -0.012553 -1.051407
v -0.493022 -0.013878 -1.051907
v -0.492845 -0.015118 -1.052592
v -0.492684 -0.016248 -1.053449
v -0.492542 -0.017246 -1.054458
v -0.492421 -0.018091 -1.055600
v -0.492325 -0.018766 -1.056852
v -0.492255 -0.019258 -1.058187
v -0.492212 -0.019558 -1.059579
v -0.492198 -0.019658 -1.061000
f 1 14 2
f 1 13 14
f 2 15 3
f 2 14 15
f 3 16 4
f 3 15 16
f 4 17 5
f 4 16 17
f 5 18 6
f 5 17 18
f 6 19 7
f 6 18 19
f 7 20 8
f 7 19 20
f 8 21 9
f 8 20 21
f 9 22 10
f 9 21 22
f 10 23 11
f 10 22 23
f 11 24 12
f 11 23 24
f 13 26 14
f 13 25 26
f 14 27 15
f 14 26 27
f 15 28 16
f 15 27 28
f 16 29 17
f 16 28 29
f 17 30 18
f 17 29 30
f 18 31 19
f 18 30 31
f 19 32 20
f 19 31 32
f 20 33 21
f 20 32 33
f 21 34 22
f 21 33 34
f 22 35 23
f 22 34 35
f 23 36 24
f 23 35 36
