v 0.646859 -0.192870 -0.036213
v 0.642723 -0.191365 -0.025607
v 0.642867 -0.191417 -0.025762
v 0.643009 -0.191469 -0.025919
v 0.643148 -0.191520 -0.026077
v 0.643284 -0.191569 -0.026237
v 0.643418 -0.191618 -0.026399
v 0.643550 -0.191666 -0.026562
v 0.643678 -0.191713 -0.026727
v 0.643805 -0.191759 -0.026893
v 0.643928 -0.191804 -0.027061
v 0.644050 -0.191848 -0.027231
v 0.644169 -0.191891 -0.027402
v 0.644285 -0.191933 -0.027575
v 0.644399 -0.191975 -0.027750
v 0.644510 -0.192016 -0.027927
v 0.644620 -0.192055 -0.028105
v 0.644726 -0.192094 -0.028285
v 0.644831 -0.192132 -0.028467
v 0.644933 -0.192169 -0.028650
v 0.645032 -0.192205 -0.028836
v 0.645130 -0.192241 -0.029023
v 0.645225 -0.192275 -0.029212
v 0.645317 -0.192309 -0.029403
v 0.645407 -0.192342 -0.029595
v 0.645495 -0.192374 -0.029788
v 0.645580 -0.192405 -0.029983
v 0.645663 -0.192435 -0.030180
v 0.645743 -0.192464 -0.030377
v 0.645820 -0.192492 -0.030576
v 0.645895 -0.192519 -0.030776
v 0.645967 -0.192546 -0.030977
v 0.646037 -0.192571 -0.031178
v 0.646104 -0.192595 -0.031381
v 0.646168 -0.192619 -0.031585
v 0.646229 -0.192641 -0.031789
v 0.646288 -0.192662 -0.031994
v 0.646343 -0.192683 -0.032199
v 0.646396 -0.192702 -0.032405
v 0.646446 -0.192720 -0.032611
v 0.646493 -0.192737 -0.032818
v 0.646538 -0.192753 -0.033026
v 0.646579 -0.192768 -0.033233
v 0.646618 -0.192782 -0.033442
v 0.646653 -0.192795 -0.033651
v 0.646686 -0.192807 -0.033860
v 0.646716 -0.192818 -0.034071
v 0.646743 -0.192828 -0.034282
v 0.646767 -0.192837 -0.034493
v 0.646789 -0.192845 -0.034705
v 0.646807 -0.192852 -0.034918
v 0.646823 -0.192857 -0.035132
v 0.646836 -0.192862 -0.035347
v 0.646846 -0.192866 -0.035562
v 0.646853 -0.192868 -0.035778
v 0.646857 -0.192870 -0.035995
v 0.648275 -0.188056 -0.036213
v 0.649655 -0.183231 -0.036213
v 0.650999 -0.178396 -0.036213
v 0.652308 -0.173551 -0.036213
v 0.653580 -0.168696 -0.036213
v 0.654816 -0.163832 -0.036213
v 0.656016 -0.158960 -0.036213
v 0.657180 -0.154078 -0.036213
v 0.658307 -0.149188 -0.036213
v 0.659398 -0.144289 -0.036213
v 0.660452 -0.139383 -0.036213
v 0.661470 -0.134469 -0.036213
v 0.662452 -0.129547 -0.036213
v 0.663397 -0.124618 -0.036213
v 0.664305 -0.119683 -0.036213
v 0.665176 -0.114741 -0.036213
v 0.666011 -0.109792 -0.036213
v 0.666809 -0.104837 -0.036213
v 0.667570 -0.099877 -0.036213
v 0.668294 -0.094911 -0.036213
v 0.668981 -0.089940 -0.036213
v 0.669631 -0.084964 -0.036213
v 0.670245 -0.079983 -0.036213
v 0.670821 -0.074998 -0.036213
v 0.671360 -0.070008 -0.036213
v 0.671862 -0.065015 -0.036213
v 0.672326 -0.060018 -0.036213
v 0.672754 -0.055018 -0.036213
v 0.673145 -0.050015 -0.036213
v 0.673498 -0.045008 -0.036213
v 0.673814 -0.040000 -0.036213
v 0.673812 -0.040000 -0.035995
v 0.673808 -0.040000 -0.035778
v 0.673800 -0.040000 -0.035562
v 0.673790 -0.040000 -0.035347
v 0.673776 -0.040000 -0.035132
v 0.673759 -0.040000 -0.034918
v 0.673739 -0.040000 -0.034705
v 0.673717 -0.040000 -0.034493
v 0.673691 -0.040000 -0.034282
v 0.673662 -0.040000 -0.034071
v 0.673630 -0.040000 -0.033860
v 0.673595 -0.040000 -0.033651
v 0.673557 -0.040000 -0.033442
v 0.673516 -0.040000 -0.033233
v 0.673472 -0.040000 -0.033026
v 0.673425 -0.040000 -0.032818
v 0.673375 -0.040000 -0.032611
v 0.673322 -0.040000 -0.032405
v 0.673265 -0.040000 -0.032199
v 0.673206 -0.040000 -0.031994
v 0.673144 -0.040000 -0.031789
v 0.673078 -0.040000 -0.031585
v 0.673010 -0.040000 -0.031381
v 0.672939 -0.040000 -0.031178
v 0.672865 -0.040000 -0.030977
v 0.672788 -0.040000 -0.030776
v 0.672709 -0.040000 -0.030576
v 0.672626 -0.040000 -0.030377
v 0.672541 -0.040000 -0.030180
v 0.672453 -0.040000 -0.029983
v 0.672363 -0.040000 -0.029788
v 0.672269 -0.040000 -0.029595
v 0.672173 -0.040000 -0.029403
v 0.672075 -0.040000 -0.029212
v 0.671974 -0.040000 -0.029023
v 0.671870 -0.040000 -0.028836
v 0.671764 -0.040000 -0.028650
v 0.671656 -0.040000 -0.028467
v 0.671545 -0.040000 -0.028285
v 0.671431 -0.040000 -0.028105
v 0.671315 -0.040000 -0.027927
v 0.671196 -0.040000 -0.027750
v 0.671075 -0.040000 -0.027575
v 0.670951 -0.040000 -0.027402
v 0.670825 -0.040000 -0.027231
v 0.670696 -0.040000 -0.027061
v 0.670564 -0.040000 -0.026893
v 0.670429 -0.040000 -0.026727
v 0.670292 -0.040000 -0.026562
v 0.670153 -0.040000 -0.026399
v 0.670010 -0.040000 -0.026237
v 0.669865 -0.040000 -0.026077
v 0.669717 -0.040000 -0.025919
v 0.669566 -0.040000 -0.025762
v 0.669413 -0.040000 -0.025607
f 1 2 3
f 1 3 4
f 1 4 5
f 1 5 6
f 1 6 7
f 1 7 8
f 1 8 9
f 1 9 10
f 1 10 11
f 1 11 12
f 1 12 13
f 1 13 14
f 1 14 15
f 1 15 16
f 1 16 17
f 1 17 18
f 1 18 19
f 1 19 20
f 1 20 21
f 1 21 22
f 1 22 23
f 1 23 24
f 1 24 25
f 1 25 26
f 1 26 27
f 1 27 28
f 1 28 29
f 1 29 30
f 1 30 31
f 1 31 32
f 1 32 33
f 1 33 34
f 1 34 35
f 1 35 36
f 1 36 37
f 1 37 38
f 1 38 39
f 1 39 40
f 1 40 41
f 1 41 42
f 1 42 43
f 1 43 44
f 1 44 45
f 1 45 46
f 1 46 47
f 1 47 48
f 1 48 49
f 1 49 50
f 1 50 51
f 1 51 52
f 1 52 53
f 1 53 54
f 1 54 55
f 1 55 56
f 1 57 58
f 1 58 59
f 1 59 60
f 1 60 61
f 1 61 62
f 1 62 63
f 1 63 64
f 1 64 65
f 1 65 66
f 1 66 67
f 1 67 68
f 1 68 69
f 1 69 70
f 1 70 71
f 1 71 72
f 1 72 73
f 1 73 74
f 1 74 75
f 1 75 76
f 1 76 77
f 1 77 78
f 1 78 79
f 1 79 80
f 1 80 81
f 1 81 82
f 1 82 83
f 1 83 84
f 1 84 85
f 1 85 86
f 1 86 87
f 1 87 88
f 1 88 89
f 1 89 90
f 1 90 91
f 1 91 92
f 1 92 93
f 1 93 94
f 1 94 95
f 1 95 96
f 1 96 97
f 1 97 98
f 1 98 99
f 1 99 100
f 1 100 101
f 1 101 102
f 1 102 103
f 1 103 104
f 1 104 105
f 1 105 106
f 1 106 107
f 1 107 108
f 1 108 109
f 1 109 110
f 1 110 111
f 1 111 112
f 1 112 113
f 1 113 114
f 1 114 115
f 1 115 116
f 1 116 117
f 1 117 118
f 1 118 119
f 1 119 120
f 1 120 121
f 1 121 122
f 1 122 123
f 1 123 124
f 1 124 125
f 1 125 126
f 1 126 127
f 1 127 128
f 1 128 129
f 1 129 130
f 1 130 131
f 1 131 132
f 1 132 133
f 1 133 134
f 1 134 135
f 1 135 136
f 1 136 137
f 1 137 138
f 1 138 139
f 1 139 140
f 1 140 141
f 1 141 142
f 1 142 57
f 57 142 58
f 58 142 59
f 59 142 60
f 60 142 61
f 61 142 62
f 62 142 63
f 63 142 64
f 64 142 65
f 65 142 66
f 66 142 67
f 67 142 68
f 68 142 69
f 69 142 70
f 70 142 71
f 71 142 72
f 72 142 73
f 73 142 74
f 74 142 75
f 75 142 76
f 76 142 77
f 77 142 78
f 78 142 79
f 79 142 80
f 80 142 81
f 81 142 82
f 82 142 83
f 83 142 84
f 84 142 85
f 85 142 86
f 86 142 87
