v 0.483284 0.010000 0.464044
v 0.483284 0.220000 0.464044
v 0.494723 0.220000 0.461907
v 0.543233 0.220000 0.484527
v 0.543233 0.000000 0.484527
v 0.488203 0.000000 0.458866
v 0.488203 0.010000 0.458866
v 0.494723 0.016837 0.461907
v 0.494506 0.016611 0.461808
v 0.494287 0.016388 0.461716
v 0.494067 0.016168 0.461629
v 0.493846 0.015951 0.461547
v 0.493624 0.015736 0.461471
v 0.493401 0.015525 0.461400
v 0.493177 0.015317 0.461335
v 0.492952 0.015112 0.461275
v 0.492726 0.014911 0.461221
v 0.492500 0.014712 0.461172
v 0.492274 0.014517 0.461129
v 0.492047 0.014325 0.461090
v 0.491819 0.014137 0.461058
v 0.491592 0.013952 0.461030
v 0.491364 0.013770 0.461007
v 0.491136 0.013592 0.460990
v 0.490908 0.013418 0.460978
v 0.490680 0.013247 0.460971
v 0.490452 0.013080 0.460970
v 0.490225 0.012916 0.460973
v 0.489997 0.012757 0.460982
v 0.489771 0.012601 0.460996
v 0.489545 0.012450 0.461015
v 0.489319 0.012302 0.461039
v 0.489095 0.012159 0.461068
v 0.488871 0.012020 0.461103
v 0.488648 0.011885 0.461142
v 0.488426 0.011754 0.461187
v 0.488205 0.011627 0.461236
v 0.487986 0.011505 0.461291
v 0.487768 0.011388 0.461350
v 0.487552 0.011275 0.461415
v 0.487337 0.011166 0.461483
v 0.487124 0.011063 0.461557
v 0.486913 0.010963 0.461635
v 0.486705 0.010869 0.461718
v 0.486498 0.010779 0.461805
v 0.486294 0.010694 0.461897
v 0.486092 0.010614 0.461993
v 0.485893 0.010539 0.462093
v 0.485697 0.010468 0.462197
v 0.485504 0.010403 0.462305
v 0.485314 0.010343 0.462418
v 0.485127 0.010288 0.462534
v 0.484943 0.010237 0.462654
v 0.484762 0.010192 0.462777
v 0.484584 0.010151 0.462905
v 0.484410 0.010116 0.463036
v 0.484239 0.010085 0.463170
v 0.484071 0.010059 0.463308
v 0.483907 0.010038 0.463449
v 0.483746 0.010021 0.463593
v 0.483588 0.010009 0.463740
v 0.483434 0.010002 0.463891
f 62 1 2
f 62 2 3
f 62 3 4
f 5 6 7
f 5 7 8
f 4 5 8
f 62 4 8
f 62 8 9
f 62 9 10
f 62 10 11
f 62 11 12
f 62 12 13
f 62 13 14
f 62 14 15
f 62 15 16
f 62 16 17
f 62 17 18
f 62 18 19
f 62 19 20
f 62 20 21
f 62 21 22
f 62 22 23
f 62 23 24
f 62 24 25
f 62 25 26
f 62 26 27
f 62 27 28
f 62 28 29
f 62 29 30
f 62 30 31
f 62 31 32
f 62 32 33
f 62 33 34
f 62 34 35
f 62 35 36
f 62 36 37
f 62 37 38
f 62 38 39
f 62 39 40
f 62 40 41
f 62 41 42
f 62 42 43
f 62 43 44
f 62 44 45
f 62 45 46
f 62 46 47
f 62 47 48
f 62 48 49
f 62 49 50
f 62 50 51
f 62 51 52
f 62 52 53
f 62 53 54
f 62 54 55
f 62 55 56
f 62 56 57
f 62 57 58
f 62 58 59
f 62 59 60
f 60 61 62
