v 0.604246 0.178288 -1.084841
v 0.604246 0.178288 -1.061000
v 0.471608 0.150368 -1.061000
v 0.471608 0.150368 -1.120893
v 0.474011 0.150874 -1.120241
v 0.476413 0.151379 -1.119588
v 0.478816 0.151885 -1.118935
v 0.481219 0.152391 -1.118283
v 0.483622 0.152897 -1.117630
v 0.486026 0.153403 -1.116977
v 0.488431 0.153909 -1.116324
v 0.490835 0.154415 -1.115670
v 0.493240 0.154921 -1.115017
v 0.495645 0.155428 -1.114363
v 0.498051 0.155934 -1.113710
v 0.500457 0.156440 -1.113056
v 0.502863 0.156947 -1.112402
v 0.505270 0.157454 -1.111748
v 0.507677 0.157960 -1.111094
v 0.510085 0.158467 -1.110440
v 0.512492 0.158974 -1.109786
v 0.514901 0.159481 -1.109131
v 0.517309 0.159988 -1.108477
v 0.519718 0.160495 -1.107822
v 0.522127 0.161002 -1.107167
v 0.524537 0.161509 -1.106512
v 0.526947 0.162016 -1.105857
v 0.529357 0.162524 -1.105202
v 0.531768 0.163031 -1.104547
v 0.534179 0.163539 -1.103892
v 0.536590 0.164046 -1.103236
v 0.539002 0.164554 -1.102581
v 0.541414 0.165062 -1.101925
v 0.543826 0.165569 -1.101269
v 0.546239 0.166077 -1.100613
v 0.548652 0.166585 -1.099957
v 0.551065 0.167093 -1.099301
v 0.553479 0.167601 -1.098645
v 0.555893 0.168110 -1.097989
v 0.558308 0.168618 -1.097332
v 0.560723 0.169126 -1.096676
v 0.563138 0.169634 -1.096019
v 0.565553 0.170143 -1.095363
v 0.567969 0.170651 -1.094706
v 0.570385 0.171160 -1.094049
v 0.572801 0.171669 -1.093392
v 0.575218 0.172177 -1.092735
v 0.577635 0.172686 -1.092078
v 0.580053 0.173195 -1.091420
v 0.582471 0.173704 -1.090763
v 0.584889 0.174213 -1.090105
v 0.587307 0.174722 -1.089448
v 0.589726 0.175231 -1.088790
v 0.592145 0.175741 -1.088132
v 0.594565 0.176250 -1.087474
v 0.596985 0.176759 -1.086816
v 0.599405 0.177269 -1.086158
v 0.601825 0.177778 -1.085500
f 1 3 2
f 1 4 3
f 1 5 4
f 1 6 5
f 1 7 6
f 1 8 7
f 1 9 8
f 1 10 9
f 1 11 10
f 1 12 11
f 1 13 12
f 1 14 13
f 1 15 14
f 1 16 15
f 1 17 16
f 1 18 17
f 1 19 18
f 1 20 19
f 1 21 20
f 1 22 21
f 1 23 22
f 1 24 23
f 1 25 24
f 1 26 25
f 1 27 26
f 1 28 27
f 1 29 28
f 1 30 29
f 1 31 30
f 1 32 31
f 1 33 32
f 1 34 33
f 1 35 34
f 1 36 35
f 1 37 36
f 1 38 37
f 1 39 38
f 1 40 39
f 1 41 40
f 1 42 41
f 1 43 42
f 1 44 43
f 1 45 44
f 1 46 45
f 1 47 46
f 1 48 47
f 1 49 48
f 1 50 49
f 1 51 50
f 1 52 51
f 1 53 52
f 1 54 53
f 1 55 54
f 1 56 55
f 1 57 56
f 1 58 57
