v 2.107909 0.559197 -5.922580
v 2.113031 0.559736 -5.920937
v 2.110481 0.559470 -5.921793
v 2.115559 0.559995 -5.920012
v 2.118060 0.560246 -5.919018
v 2.120535 0.560490 -5.917958
v 2.122981 0.560727 -5.916830
v 2.125396 0.560955 -5.915637
v 2.127779 0.561176 -5.914379
v 2.130128 0.561389 -5.913056
v 2.132440 0.561593 -5.911671
v 2.106833 0.567818 -5.921957
v 2.105890 0.576177 -5.921135
v 2.105075 0.584288 -5.920122
v 2.104380 0.592166 -5.918928
v 2.103800 0.599821 -5.917563
v 2.103334 0.607259 -5.916029
v 2.102984 0.614476 -5.914324
v 2.102751 0.621473 -5.912448
v 2.102637 0.628248 -5.910398
v 2.102643 0.634791 -5.908178
v 2.129939 0.570626 -5.911791
v 2.129936 0.570636 -5.911791
v 2.127261 0.579271 -5.911770
v 2.127255 0.579291 -5.911770
v 2.124435 0.587528 -5.911623
v 2.124425 0.587556 -5.911622
v 2.121487 0.595401 -5.911364
v 2.121473 0.595436 -5.911362
v 2.118442 0.602897 -5.911006
v 2.118424 0.602938 -5.911004
v 2.115326 0.610018 -5.910563
v 2.115304 0.610064 -5.910559
v 2.112164 0.616764 -5.910047
v 2.112140 0.616814 -5.910042
v 2.108982 0.623138 -5.909470
v 2.108954 0.623192 -5.909465
v 2.105801 0.629147 -5.908844
v 2.105770 0.629203 -5.908838
v 2.136951 0.561975 -5.908715
v 2.134715 0.561788 -5.910223
v 2.139146 0.562154 -5.907146
v 2.141298 0.562323 -5.905519
v 2.143406 0.562483 -5.903834
v 2.145469 0.562635 -5.902093
v 2.147485 0.562777 -5.900296
v 2.149451 0.562909 -5.898446
v 2.151368 0.563033 -5.896543
v 2.153234 0.563146 -5.894590
v 2.102770 0.641086 -5.905791
v 2.103019 0.647117 -5.903244
v 2.103391 0.652866 -5.900540
v 2.103887 0.658322 -5.897680
v 2.104513 0.663481 -5.894658
v 2.105272 0.668338 -5.891464
v 2.106170 0.672892 -5.888091
v 2.107208 0.677130 -5.884540
v 2.108378 0.681023 -5.880837
v 2.109670 0.684532 -5.877013
v 2.111075 0.687623 -5.873099
v 2.151944 0.572680 -5.893895
v 2.151942 0.572691 -5.893894
v 2.150429 0.581859 -5.893092
v 2.150425 0.581880 -5.893090
v 2.148718 0.590680 -5.892196
v 2.148711 0.590710 -5.892192
v 2.146835 0.599142 -5.891217
v 2.146826 0.599180 -5.891213
v 2.144805 0.607250 -5.890169
v 2.144793 0.607295 -5.890163
v 2.142652 0.614999 -5.889064
v 2.142638 0.615050 -5.889056
v 2.140403 0.622386 -5.887913
v 2.140386 0.622442 -5.887904
v 2.138081 0.629409 -5.886729
v 2.138061 0.629468 -5.886718
v 2.135708 0.636070 -5.885522
v 2.135685 0.636132 -5.885510
v 2.133309 0.642365 -5.884304
v 2.133284 0.642429 -5.884291
v 2.130908 0.648288 -5.883088
v 2.130881 0.648353 -5.883074
v 2.128530 0.653834 -5.881885
v 2.128501 0.653900 -5.881871
v 2.126198 0.659002 -5.880708
v 2.126167 0.659068 -5.880692
v 2.123932 0.663795 -5.879565
v 2.123899 0.663862 -5.879548
v 2.121746 0.668225 -5.878463
v 2.121711 0.668294 -5.878446
v 2.119652 0.672307 -5.877409
v 2.119617 0.672375 -5.877391
v 2.117663 0.676051 -5.876409
v 2.117626 0.676118 -5.876390
v 2.115789 0.679466 -5.875467
v 2.115753 0.679531 -5.875449
v 2.114052 0.682541 -5.874594
v 2.114017 0.682603 -5.874577
v 2.112474 0.685264 -5.873802
v 2.112441 0.685321 -5.873785
v 2.156805 0.563345 -5.890535
v 2.155046 0.563251 -5.892587
v 2.158508 0.563430 -5.888437
v 2.160154 0.563504 -5.886294
v 2.161743 0.563569 -5.884107
v 2.163272 0.563625 -5.881878
v 2.164741 0.563670 -5.879609
v 2.166149 0.563705 -5.877302
v 2.167495 0.563730 -5.874957
v 2.168778 0.563745 -5.872577
v 2.169996 0.563750 -5.870164
v 2.171150 0.563745 -5.867718
v 2.172237 0.563730 -5.865243
v 2.173258 0.563705 -5.862740
v 2.174211 0.563670 -5.860210
v 2.175096 0.563625 -5.857656
v 2.175913 0.563569 -5.855079
v 2.176660 0.563504 -5.852482
v 2.177337 0.563430 -5.849865
v 2.177943 0.563345 -5.847232
v 2.178479 0.563251 -5.844584
v 2.112584 0.690263 -5.869127
v 2.114186 0.692448 -5.865115
v 2.115874 0.694187 -5.861078
v 2.117638 0.695485 -5.857032
v 2.119469 0.696351 -5.852992
v 2.121363 0.696787 -5.848967
v 2.123316 0.696793 -5.844966
v 2.125323 0.696369 -5.840996
v 2.127381 0.695514 -5.837064
v 2.129486 0.694227 -5.833180
v 2.131631 0.692499 -5.829362
v 2.133809 0.690322 -5.825626
v 2.177109 0.572814 -5.844115
v 2.177108 0.572825 -5.844115
v 2.175516 0.582023 -5.843531
v 2.175512 0.582044 -5.843530
v 2.173727 0.590875 -5.842846
v 2.173720 0.590905 -5.842843
v 2.171768 0.599370 -5.842071
v 2.171759 0.599408 -5.842067
v 2.169663 0.607509 -5.841219
v 2.169651 0.607554 -5.841214
v 2.167438 0.615290 -5.840301
v 2.167423 0.615341 -5.840295
v 2.165117 0.622708 -5.839331
v 2.165099 0.622764 -5.839324
v 2.162725 0.629762 -5.838320
v 2.162704 0.629822 -5.838311
v 2.160285 0.636453 -5.837278
v 2.160261 0.636516 -5.837268
v 2.157820 0.642778 -5.836217
v 2.157794 0.642842 -5.836206
v 2.155356 0.648730 -5.835150
v 2.155328 0.648795 -5.835138
v 2.152917 0.654304 -5.834088
v 2.152888 0.654370 -5.834075
v 2.150528 0.659498 -5.833042
v 2.150496 0.659565 -5.833028
v 2.148207 0.664316 -5.832022
v 2.148173 0.664384 -5.832007
v 2.145969 0.668770 -5.831035
v 2.145934 0.668839 -5.831020
v 2.143827 0.672874 -5.830088
v 2.143791 0.672942 -5.830072
v 2.141792 0.676639 -5.829186
v 2.141755 0.676707 -5.829169
v 2.139876 0.680073 -5.828334
v 2.139839 0.680138 -5.828318
v 2.138101 0.683166 -5.827544
v 2.138065 0.683228 -5.827528
v 2.136488 0.685905 -5.826824
v 2.136454 0.685962 -5.826809
v 2.135060 0.688278 -5.826186
v 2.135029 0.688329 -5.826172
v 2.133834 0.690276 -5.825638
v 2.179337 0.563033 -5.839250
v 2.178944 0.563146 -5.841922
v 2.179658 0.562909 -5.836568
v 2.179907 0.562777 -5.833879
v 2.180083 0.562635 -5.831185
v 2.180187 0.562483 -5.828488
v 2.180219 0.562323 -5.825789
v 2.180178 0.562154 -5.823091
v 2.180065 0.561975 -5.820396
v 2.179879 0.561788 -5.817705
v 2.136015 0.687690 -5.821987
v 2.138239 0.684606 -5.818465
v 2.140462 0.681101 -5.815086
v 2.142665 0.677212 -5.811878
v 2.144830 0.672974 -5.808867
v 2.146941 0.668421 -5.806077
v 2.148995 0.663561 -5.803507
v 2.150997 0.658400 -5.801148
v 2.152950 0.652941 -5.798992
v 2.154856 0.647189 -5.797031
v 2.156714 0.641156 -5.795264
v 2.178478 0.570884 -5.815773
v 2.178477 0.570894 -5.815771
v 2.176857 0.579596 -5.813782
v 2.176853 0.579616 -5.813778
v 2.175044 0.587923 -5.811747
v 2.175037 0.587951 -5.811740
v 2.173067 0.595869 -5.809679
v 2.173057 0.595905 -5.809669
v 2.170950 0.603442 -5.807590
v 2.170938 0.603483 -5.807578
v 2.168721 0.610641 -5.805492
v 2.168706 0.610688 -5.805478
v 2.166405 0.617466 -5.803397
v 2.166387 0.617518 -5.803381
v 2.164026 0.623922 -5.801318
v 2.164005 0.623976 -5.801300
v 2.161607 0.630012 -5.799265
v 2.161584 0.630069 -5.799245
v 2.159172 0.635739 -5.797249
v 2.159147 0.635797 -5.797228
v 2.156746 0.641099 -5.795284
v 2.179291 0.561389 -5.812345
v 2.179621 0.561593 -5.815021
v 2.178889 0.561176 -5.809680
v 2.178415 0.560955 -5.807028
v 2.177870 0.560727 -5.804390
v 2.177254 0.560490 -5.801768
v 2.176568 0.560246 -5.799164
v 2.175813 0.559995 -5.796580
v 2.174987 0.559736 -5.794019
v 2.174094 0.559470 -5.791481
v 2.173132 0.559197 -5.788969
v 2.158519 0.634858 -5.793692
v 2.160268 0.628312 -5.792318
v 2.161956 0.621533 -5.791145
v 2.163581 0.614531 -5.790171
v 2.165143 0.607308 -5.789396
v 2.166641 0.599864 -5.788818
v 2.168076 0.592201 -5.788434
v 2.169446 0.584316 -5.788247
v 2.170748 0.576196 -5.788266
v 2.171978 0.567828 -5.788503
f 1 2 3
f 1 4 2
f 1 5 4
f 1 6 5
f 1 7 6
f 1 8 7
f 1 9 8
f 1 10 9
f 1 11 10
f 1 12 13
f 1 13 14
f 1 14 15
f 1 15 16
f 1 16 17
f 1 17 18
f 1 18 19
f 1 19 20
f 1 20 21
f 1 22 11
f 1 23 22
f 1 24 23
f 1 25 24
f 1 26 25
f 1 27 26
f 1 28 27
f 1 29 28
f 1 30 29
f 1 31 30
f 1 32 31
f 1 33 32
f 1 34 33
f 1 35 34
f 1 36 35
f 1 37 36
f 1 38 37
f 1 39 38
f 1 21 39
f 11 40 41
f 11 42 40
f 11 43 42
f 11 44 43
f 11 45 44
f 11 46 45
f 11 47 46
f 11 48 47
f 11 49 48
f 21 50 51
f 21 51 52
f 21 52 53
f 21 53 54
f 21 54 55
f 21 55 56
f 21 56 57
f 21 57 58
f 21 58 59
f 21 59 60
f 11 22 49
f 22 61 49
f 22 23 61
f 23 62 61
f 23 24 62
f 24 63 62
f 24 25 63
f 25 64 63
f 25 26 64
f 26 65 64
f 26 27 65
f 27 66 65
f 27 28 66
f 28 67 66
f 28 29 67
f 29 68 67
f 29 30 68
f 30 69 68
f 30 31 69
f 31 70 69
f 31 32 70
f 32 71 70
f 32 33 71
f 33 72 71
f 33 34 72
f 34 73 72
f 34 35 73
f 35 74 73
f 35 36 74
f 36 75 74
f 36 37 75
f 37 76 75
f 37 38 76
f 38 77 76
f 38 39 77
f 39 78 77
f 39 21 78
f 21 79 78
f 21 80 79
f 21 81 80
f 21 82 81
f 21 83 82
f 21 84 83
f 21 85 84
f 21 86 85
f 21 87 86
f 21 88 87
f 21 89 88
f 21 90 89
f 21 91 90
f 21 92 91
f 21 93 92
f 21 94 93
f 21 95 94
f 21 96 95
f 21 97 96
f 21 98 97
f 21 99 98
f 21 100 99
f 21 60 100
f 49 101 102
f 49 103 101
f 49 104 103
f 49 105 104
f 49 106 105
f 49 107 106
f 49 108 107
f 49 109 108
f 49 110 109
f 49 111 110
f 49 112 111
f 49 113 112
f 49 114 113
f 49 115 114
f 49 116 115
f 49 117 116
f 49 118 117
f 49 119 118
f 49 120 119
f 49 121 120
f 60 122 123
f 60 123 124
f 60 124 125
f 60 125 126
f 60 126 127
f 60 127 128
f 60 128 129
f 60 129 130
f 60 130 131
f 60 131 132
f 60 132 133
f 49 61 121
f 61 134 121
f 61 62 134
f 62 135 134
f 62 63 135
f 63 136 135
f 63 64 136
f 64 137 136
f 64 65 137
f 65 138 137
f 65 66 138
f 66 139 138
f 66 67 139
f 67 140 139
f 67 68 140
f 68 141 140
f 68 69 141
f 69 142 141
f 69 70 142
f 70 143 142
f 70 71 143
f 71 144 143
f 71 72 144
f 72 145 144
f 72 73 145
f 73 146 145
f 73 74 146
f 74 147 146
f 74 75 147
f 75 148 147
f 75 76 148
f 76 149 148
f 76 77 149
f 77 150 149
f 77 78 150
f 78 151 150
f 78 79 151
f 79 152 151
f 79 80 152
f 80 153 152
f 80 81 153
f 81 154 153
f 81 82 154
f 82 155 154
f 82 83 155
f 83 156 155
f 83 84 156
f 84 157 156
f 84 85 157
f 85 158 157
f 85 86 158
f 86 159 158
f 86 87 159
f 87 160 159
f 87 88 160
f 88 161 160
f 88 89 161
f 89 162 161
f 89 90 162
f 90 163 162
f 90 91 163
f 91 164 163
f 91 92 164
f 92 165 164
f 92 93 165
f 93 166 165
f 93 94 166
f 94 167 166
f 94 95 167
f 95 168 167
f 95 96 168
f 96 169 168
f 96 97 169
f 97 170 169
f 97 98 170
f 98 171 170
f 98 99 171
f 99 172 171
f 99 100 172
f 100 173 172
f 100 60 173
f 60 174 173
f 60 175 174
f 60 176 175
f 60 133 176
f 121 177 178
f 121 179 177
f 121 180 179
f 121 181 180
f 121 182 181
f 121 183 182
f 121 184 183
f 121 185 184
f 121 186 185
f 133 187 188
f 133 188 189
f 133 189 190
f 133 190 191
f 133 191 192
f 133 192 193
f 133 193 194
f 133 194 195
f 133 195 196
f 133 196 197
f 121 134 186
f 134 198 186
f 134 135 198
f 135 199 198
f 135 136 199
f 136 200 199
f 136 137 200
f 137 201 200
f 137 138 201
f 138 202 201
f 138 139 202
f 139 203 202
f 139 140 203
f 140 204 203
f 140 141 204
f 141 205 204
f 141 142 205
f 142 206 205
f 142 143 206
f 143 207 206
f 143 144 207
f 144 208 207
f 144 145 208
f 145 209 208
f 145 146 209
f 146 210 209
f 146 147 210
f 147 211 210
f 147 148 211
f 148 212 211
f 148 149 212
f 149 213 212
f 149 150 213
f 150 214 213
f 150 151 214
f 151 215 214
f 151 152 215
f 152 216 215
f 152 153 216
f 153 217 216
f 153 154 217
f 154 218 217
f 154 155 218
f 155 197 218
f 155 156 197
f 156 157 197
f 157 158 197
f 158 159 197
f 159 160 197
f 160 161 197
f 161 162 197
f 162 163 197
f 163 164 197
f 164 165 197
f 165 166 197
f 166 167 197
f 167 168 197
f 168 169 197
f 169 170 197
f 170 171 197
f 171 172 197
f 172 173 197
f 173 174 197
f 174 175 197
f 175 176 197
f 176 133 197
f 186 219 220
f 186 221 219
f 186 222 221
f 186 223 222
f 186 224 223
f 186 225 224
f 186 226 225
f 186 227 226
f 186 228 227
f 186 229 228
f 197 230 231
f 197 231 232
f 197 232 233
f 197 233 234
f 197 234 235
f 197 235 236
f 197 236 237
f 197 237 238
f 197 238 239
f 197 239 229
f 186 198 229
f 198 199 229
f 199 200 229
f 200 201 229
f 201 202 229
f 202 203 229
f 203 204 229
f 204 205 229
f 205 206 229
f 206 207 229
f 207 208 229
f 208 209 229
f 209 210 229
f 210 211 229
f 211 212 229
f 212 213 229
f 213 214 229
f 214 215 229
f 215 216 229
f 216 217 229
f 217 218 229
f 218 197 229
