v 0.597775 0.163059 -1.097769
v 0.597036 0.165746 -1.097769
v 0.607066 0.168437 -1.095000
v 0.609953 0.157662 -1.095000
v 0.610049 0.157289 -1.095000
v 0.607622 0.156495 -1.095680
v 0.483665 0.115902 -1.130371
v 0.481416 0.115166 -1.131000
v 0.481215 0.116004 -1.131000
v 0.474747 0.140145 -1.131000
v 0.474502 0.140972 -1.131000
v 0.476814 0.141457 -1.130372
v 0.485732 0.139565 -1.128231
v 0.485099 0.141748 -1.128231
v 0.501071 0.122253 -1.125462
v 0.495712 0.142433 -1.125462
v 0.495067 0.144661 -1.125462
v 0.510593 0.127013 -1.122692
v 0.506342 0.143024 -1.122692
v 0.505693 0.145301 -1.122692
v 0.520671 0.129519 -1.119923
v 0.516335 0.145847 -1.119923
v 0.515674 0.148168 -1.119923
v 0.530748 0.132026 -1.117154
v 0.526329 0.148670 -1.117154
v 0.525655 0.151036 -1.117154
v 0.540826 0.134533 -1.114385
v 0.536322 0.151493 -1.114385
v 0.535636 0.153904 -1.114385
v 0.550281 0.139517 -1.111615
v 0.547005 0.151857 -1.111615
v 0.546316 0.154316 -1.111615
v 0.560348 0.142069 -1.108846
v 0.557011 0.154635 -1.108846
v 0.556310 0.157139 -1.108846
v 0.570414 0.144621 -1.106077
v 0.567017 0.157412 -1.106077
v 0.566303 0.159961 -1.106077
v 0.579812 0.149783 -1.103308
v 0.577738 0.157593 -1.103308
v 0.577023 0.160190 -1.103308
v 0.589866 0.152380 -1.100538
v 0.587757 0.160326 -1.100538
v 0.587029 0.162968 -1.100538
v 0.599921 0.154977 -1.097769
v 0.598503 0.160368 -1.097769
v 0.609857 0.158034 -1.095000
v 0.485917 0.116640 -1.129741
v 0.474990 0.139318 -1.131000
v 0.486355 0.137379 -1.128231
v 0.496348 0.140201 -1.125462
v 0.506980 0.140745 -1.122692
v 0.516986 0.143523 -1.119923
v 0.526992 0.146301 -1.117154
v 0.536998 0.149079 -1.114385
v 0.547682 0.149395 -1.111615
v 0.557701 0.152128 -1.108846
v 0.567719 0.154860 -1.106077
v 0.578441 0.154993 -1.103308
v 0.588472 0.157681 -1.100538
v 0.599218 0.157674 -1.097769
v 0.609760 0.158407 -1.095000
v 0.488173 0.117379 -1.129110
v 0.475232 0.138491 -1.131000
v 0.486968 0.135190 -1.128231
v 0.496974 0.137967 -1.125462
v 0.507608 0.138463 -1.122692
v 0.517626 0.141196 -1.119923
v 0.527645 0.143929 -1.117154
v 0.537664 0.146662 -1.114385
v 0.548349 0.146930 -1.111615
v 0.558379 0.149617 -1.108846
v 0.568410 0.152305 -1.106077
v 0.579132 0.152389 -1.103308
v 0.589175 0.155032 -1.100538
v 0.609663 0.158779 -1.095000
v 0.490432 0.118119 -1.128479
v 0.475472 0.137663 -1.131000
v 0.487571 0.132998 -1.128231
v 0.497589 0.135731 -1.125462
v 0.508226 0.136179 -1.122692
v 0.518256 0.138866 -1.119923
v 0.528287 0.141554 -1.117154
v 0.538318 0.144242 -1.114385
v 0.549004 0.144462 -1.111615
v 0.559047 0.147104 -1.108846
v 0.569090 0.149747 -1.106077
v 0.607169 0.168067 -1.095000
v 0.609566 0.159151 -1.095000
v 0.492694 0.118860 -1.127846
v 0.475711 0.136835 -1.131000
v 0.488164 0.130803 -1.128231
v 0.498195 0.133491 -1.125462
v 0.508833 0.133891 -1.122692
v 0.518876 0.136534 -1.119923
v 0.528919 0.139176 -1.117154
v 0.538961 0.141819 -1.114385
v 0.549648 0.141991 -1.111615
v 0.559703 0.144588 -1.108846
v 0.569757 0.147185 -1.106077
v 0.607271 0.167696 -1.095000
v 0.609469 0.159523 -1.095000
v 0.494959 0.119602 -1.127212
v 0.475949 0.136007 -1.131000
v 0.488747 0.128606 -1.128231
v 0.498790 0.131249 -1.125462
v 0.509430 0.131601 -1.122692
v 0.519485 0.134198 -1.119923
v 0.529539 0.136796 -1.117154
v 0.539594 0.139393 -1.114385
v 0.607373 0.167325 -1.095000
v 0.609371 0.159895 -1.095000
v 0.497228 0.120345 -1.126577
v 0.476185 0.135178 -1.131000
v 0.604459 0.168282 -1.095681
v 0.606963 0.168808 -1.095000
v 0.490982 0.119792 -1.128231
v 0.489321 0.126406 -1.128231
v 0.499376 0.129004 -1.125462
v 0.510017 0.129308 -1.122692
v 0.520083 0.131860 -1.119923
v 0.530149 0.134412 -1.117154
v 0.540215 0.136965 -1.114385
v 0.607475 0.166954 -1.095000
v 0.609274 0.160268 -1.095000
v 0.499500 0.121089 -1.125942
v 0.476419 0.134348 -1.131000
v 0.601959 0.167756 -1.096361
v 0.489885 0.124204 -1.128231
v 0.499951 0.126756 -1.125462
v 0.607577 0.166583 -1.095000
v 0.609176 0.160640 -1.095000
v 0.501776 0.121835 -1.125305
v 0.476653 0.133519 -1.131000
v 0.599463 0.167231 -1.097039
v 0.490438 0.121999 -1.128231
v 0.500516 0.124506 -1.125462
v 0.607679 0.166212 -1.095000
v 0.609077 0.161011 -1.095000
v 0.504055 0.122581 -1.124668
v 0.476884 0.132688 -1.131000
v 0.596970 0.166707 -1.097717
v 0.607780 0.165841 -1.095000
v 0.608979 0.161383 -1.095000
v 0.506337 0.123329 -1.124029
v 0.477115 0.131858 -1.131000
v 0.594481 0.166184 -1.098394
v 0.607881 0.165470 -1.095000
v 0.608880 0.161755 -1.095000
v 0.508623 0.124077 -1.123390
v 0.477344 0.131027 -1.131000
v 0.591995 0.165661 -1.099070
v 0.607982 0.165099 -1.095000
v 0.608781 0.162127 -1.095000
v 0.510912 0.124827 -1.122749
v 0.477571 0.130196 -1.131000
v 0.589512 0.165140 -1.099745
v 0.608083 0.164727 -1.095000
v 0.608682 0.162499 -1.095000
v 0.513205 0.125578 -1.122108
v 0.477797 0.129364 -1.131000
v 0.587034 0.164619 -1.100419
v 0.608183 0.164356 -1.095000
v 0.608583 0.162870 -1.095000
v 0.515500 0.126330 -1.121466
v 0.478022 0.128532 -1.131000
v 0.584558 0.164098 -1.101092
v 0.608284 0.163985 -1.095000
v 0.608483 0.163242 -1.095000
v 0.517799 0.127083 -1.120822
v 0.478245 0.127699 -1.131000
v 0.582086 0.163579 -1.101764
v 0.608384 0.163613 -1.095000
v 0.520102 0.127837 -1.120178
v 0.478466 0.126866 -1.131000
v 0.579618 0.163060 -1.102435
v 0.522408 0.128592 -1.119533
v 0.478686 0.126033 -1.131000
v 0.577153 0.162542 -1.103106
v 0.524717 0.129348 -1.118887
v 0.478905 0.125199 -1.131000
v 0.574691 0.162024 -1.103775
v 0.605197 0.155701 -1.096359
v 0.527030 0.130105 -1.118240
v 0.479122 0.124365 -1.131000
v 0.572233 0.161508 -1.104443
v 0.602776 0.154908 -1.097036
v 0.529346 0.130864 -1.117592
v 0.479338 0.123531 -1.131000
v 0.569779 0.160992 -1.105110
v 0.600359 0.154117 -1.097713
v 0.531665 0.131624 -1.116942
v 0.479553 0.122696 -1.131000
v 0.567328 0.160477 -1.105777
v 0.597944 0.153326 -1.098389
v 0.533988 0.132384 -1.116292
v 0.479766 0.121861 -1.131000
v 0.564881 0.159962 -1.106442
v 0.595533 0.152537 -1.099065
v 0.536314 0.133146 -1.115642
v 0.479977 0.121025 -1.131000
v 0.562437 0.159449 -1.107106
v 0.593125 0.151748 -1.099739
v 0.538643 0.133909 -1.114990
v 0.480187 0.120189 -1.131000
v 0.559996 0.158936 -1.107770
v 0.590721 0.150961 -1.100412
v 0.540976 0.134673 -1.114337
v 0.480396 0.119353 -1.131000
v 0.557559 0.158424 -1.108432
v 0.588319 0.150175 -1.101084
v 0.543312 0.135438 -1.113683
v 0.480603 0.118516 -1.131000
v 0.555125 0.157912 -1.109094
v 0.585921 0.149390 -1.101756
v 0.545651 0.136204 -1.113028
v 0.480808 0.117679 -1.131000
v 0.552695 0.157401 -1.109754
v 0.583526 0.148606 -1.102426
v 0.547994 0.136971 -1.112373
v 0.481012 0.116842 -1.131000
v 0.550269 0.156891 -1.110414
v 0.581135 0.147822 -1.103096
v 0.550340 0.137739 -1.111716
v 0.547846 0.156382 -1.111072
v 0.578746 0.147040 -1.103764
v 0.552689 0.138508 -1.111059
v 0.479130 0.141944 -1.129743
v 0.545426 0.155874 -1.111730
v 0.576361 0.146259 -1.104432
v 0.555042 0.139279 -1.110400
v 0.481449 0.142431 -1.129113
v 0.543010 0.155366 -1.112387
v 0.573979 0.145480 -1.105099
v 0.557398 0.140050 -1.109741
v 0.483772 0.142919 -1.128482
v 0.540598 0.154859 -1.113042
v 0.571601 0.144701 -1.105765
v 0.559757 0.140822 -1.109080
v 0.486098 0.143408 -1.127850
v 0.538189 0.154353 -1.113697
v 0.569225 0.143923 -1.106430
v 0.562119 0.141596 -1.108419
v 0.488428 0.143897 -1.127218
v 0.535783 0.153847 -1.114351
v 0.566853 0.143146 -1.107094
v 0.490762 0.144387 -1.126584
v 0.533382 0.153342 -1.115004
v 0.564485 0.142371 -1.107757
v 0.493099 0.144878 -1.125949
v 0.530983 0.152839 -1.115655
v 0.495440 0.145370 -1.125313
v 0.528589 0.152335 -1.116306
v 0.497784 0.145863 -1.124676
v 0.526197 0.151833 -1.116956
v 0.500132 0.146356 -1.124038
v 0.523810 0.151331 -1.117605
v 0.502484 0.146850 -1.123399
v 0.521426 0.150830 -1.118253
v 0.504839 0.147345 -1.122759
v 0.519046 0.150330 -1.118899
v 0.507198 0.147841 -1.122119
v 0.516669 0.149831 -1.119545
v 0.509560 0.148337 -1.121477
v 0.514296 0.149332 -1.120190
v 0.511926 0.148834 -1.120834
f 1 2 3
f 4 5 6
f 7 8 9
f 10 11 12
f 13 14 15
f 16 17 18
f 19 20 21
f 22 23 24
f 25 26 27
f 28 29 30
f 31 32 33
f 34 35 36
f 37 38 39
f 40 41 42
f 43 44 45
f 46 1 3
f 47 4 6
f 48 7 9
f 49 10 12
f 50 13 15
f 51 16 18
f 52 19 21
f 53 22 24
f 54 25 27
f 55 28 30
f 56 31 33
f 57 34 36
f 58 37 39
f 59 40 42
f 60 43 45
f 61 46 3
f 62 47 6
f 63 48 9
f 64 49 12
f 65 50 15
f 66 51 18
f 67 52 21
f 68 53 24
f 69 54 27
f 70 55 30
f 71 56 33
f 72 57 36
f 73 58 39
f 74 59 42
f 75 60 45
f 45 61 3
f 76 62 6
f 77 63 9
f 78 64 12
f 79 65 15
f 80 66 18
f 81 67 21
f 82 68 24
f 83 69 27
f 84 70 30
f 85 71 33
f 86 72 36
f 87 73 39
f 39 74 42
f 42 75 45
f 45 3 88
f 89 76 6
f 90 77 9
f 91 78 12
f 92 79 15
f 93 80 18
f 94 81 21
f 95 82 24
f 96 83 27
f 97 84 30
f 98 85 33
f 99 86 36
f 100 87 39
f 45 88 101
f 102 89 6
f 103 90 9
f 104 91 12
f 105 92 15
f 106 93 18
f 107 94 21
f 108 95 24
f 109 96 27
f 110 97 30
f 30 98 33
f 33 99 36
f 36 100 39
f 45 101 111
f 112 102 6
f 113 103 9
f 114 104 12
f 115 116 117
f 118 105 15
f 119 106 18
f 120 107 21
f 121 108 24
f 122 109 27
f 123 110 30
f 36 39 42
f 45 111 124
f 125 112 6
f 126 113 9
f 127 114 12
f 128 115 117
f 129 118 15
f 130 119 18
f 18 120 21
f 21 121 24
f 24 122 27
f 36 42 45
f 45 124 131
f 132 125 6
f 133 126 9
f 134 127 12
f 135 128 117
f 136 129 15
f 137 130 18
f 45 131 138
f 139 132 6
f 140 133 9
f 141 134 12
f 142 135 117
f 117 136 15
f 15 137 18
f 45 138 143
f 144 139 6
f 145 140 9
f 146 141 12
f 147 142 117
f 15 18 21
f 45 143 148
f 149 144 6
f 150 145 9
f 151 146 12
f 152 147 117
f 15 21 24
f 45 148 153
f 154 149 6
f 155 150 9
f 156 151 12
f 157 152 117
f 45 153 158
f 159 154 6
f 160 155 9
f 161 156 12
f 162 157 117
f 45 158 163
f 164 159 6
f 165 160 9
f 166 161 12
f 167 162 117
f 45 163 168
f 169 164 6
f 170 165 9
f 171 166 12
f 172 167 117
f 45 168 173
f 173 169 6
f 174 170 9
f 175 171 12
f 176 172 117
f 45 173 6
f 177 174 9
f 178 175 12
f 179 176 117
f 36 45 6
f 180 177 9
f 181 178 12
f 182 179 117
f 36 6 183
f 184 180 9
f 185 181 12
f 186 182 117
f 36 183 187
f 188 184 9
f 189 185 12
f 190 186 117
f 36 187 191
f 192 188 9
f 193 189 12
f 194 190 117
f 36 191 195
f 196 192 9
f 197 193 12
f 198 194 117
f 36 195 199
f 200 196 9
f 201 197 12
f 202 198 117
f 36 199 203
f 204 200 9
f 205 201 12
f 206 202 117
f 15 24 27
f 36 203 207
f 208 204 9
f 209 205 12
f 210 206 117
f 27 123 30
f 36 207 211
f 212 208 9
f 213 209 12
f 214 210 117
f 27 30 33
f 36 211 215
f 216 212 9
f 217 213 12
f 218 214 117
f 36 215 219
f 220 216 9
f 221 217 12
f 222 218 117
f 27 33 36
f 36 219 223
f 224 220 9
f 9 221 12
f 225 222 117
f 36 223 226
f 227 224 9
f 9 12 228
f 229 225 117
f 36 226 230
f 231 227 9
f 9 228 232
f 233 229 117
f 36 230 234
f 235 231 9
f 9 232 236
f 237 233 117
f 36 234 238
f 239 235 9
f 9 236 240
f 241 237 117
f 36 238 242
f 243 239 9
f 9 240 244
f 245 241 117
f 36 242 246
f 9 244 247
f 248 245 117
f 36 246 249
f 9 247 250
f 251 248 117
f 36 249 243
f 9 250 252
f 253 251 117
f 27 36 243
f 9 252 254
f 255 253 117
f 9 254 256
f 257 255 117
f 9 256 258
f 259 257 117
f 9 258 260
f 261 259 117
f 9 260 262
f 263 261 117
f 9 262 264
f 265 263 117
f 9 264 266
f 266 265 117
f 9 266 117
f 9 117 15
f 243 9 15
