v 0.389012 -0.529795 -1.087726
v 0.366458 -0.512454 -1.094996
v 0.366692 -0.512286 -1.094984
v 0.366923 -0.512120 -1.094963
v 0.367152 -0.511956 -1.094935
v 0.367378 -0.511794 -1.094899
v 0.367602 -0.511633 -1.094855
v 0.367824 -0.511474 -1.094802
v 0.368043 -0.511317 -1.094743
v 0.368259 -0.511160 -1.094675
v 0.368474 -0.511006 -1.094599
v 0.368687 -0.510852 -1.094516
v 0.368897 -0.510700 -1.094426
v 0.369106 -0.510549 -1.094327
v 0.369313 -0.510400 -1.094221
v 0.369518 -0.510252 -1.094108
v 0.369720 -0.510105 -1.093987
v 0.369921 -0.509959 -1.093859
v 0.370119 -0.509816 -1.093724
v 0.370314 -0.509674 -1.093582
v 0.370506 -0.509534 -1.093432
v 0.370696 -0.509396 -1.093276
v 0.370882 -0.509261 -1.093113
v 0.371064 -0.509128 -1.092943
v 0.371243 -0.508998 -1.092766
v 0.371417 -0.508870 -1.092582
v 0.371588 -0.508746 -1.092392
v 0.371754 -0.508624 -1.092195
v 0.371916 -0.508506 -1.091992
v 0.372073 -0.508391 -1.091782
v 0.372225 -0.508280 -1.091567
v 0.372373 -0.508172 -1.091346
v 0.372515 -0.508068 -1.091119
v 0.372652 -0.507967 -1.090887
v 0.372784 -0.507870 -1.090650
v 0.372911 -0.507777 -1.090409
v 0.373033 -0.507688 -1.090163
v 0.373149 -0.507602 -1.089913
v 0.373259 -0.507521 -1.089658
v 0.373364 -0.507444 -1.089401
v 0.373462 -0.507371 -1.089139
v 0.373555 -0.507303 -1.088875
v 0.373642 -0.507239 -1.088608
v 0.373723 -0.507179 -1.088338
v 0.373798 -0.507124 -1.088065
v 0.373867 -0.507073 -1.087789
v 0.373929 -0.507027 -1.087510
v 0.373986 -0.506986 -1.087227
v 0.374035 -0.506949 -1.086941
v 0.374079 -0.506917 -1.086652
v 0.374115 -0.506890 -1.086360
v 0.374146 -0.506868 -1.086064
v 0.374169 -0.506850 -1.085764
v 0.374186 -0.506838 -1.085460
v 0.374197 -0.506830 -1.085153
v 0.374200 -0.506828 -1.084841
v 0.356453 -0.519463 -1.095000
v 0.274336 -0.414856 -1.130371
v 0.272875 -0.412994 -1.131000
v 0.273593 -0.412519 -1.131000
v 0.294066 -0.398183 -1.131000
v 0.294759 -0.397671 -1.131000
v 0.296006 -0.399677 -1.130372
v 0.297533 -0.409055 -1.128115
v 0.299370 -0.407713 -1.128115
v 0.286738 -0.429761 -1.125230
v 0.303897 -0.417804 -1.125230
v 0.305773 -0.416433 -1.125230
v 0.294713 -0.437439 -1.122345
v 0.308339 -0.427944 -1.122345
v 0.310261 -0.426553 -1.122345
v 0.300758 -0.446412 -1.119460
v 0.314663 -0.436722 -1.119460
v 0.316624 -0.435302 -1.119460
v 0.306803 -0.455384 -1.116575
v 0.320987 -0.445499 -1.116575
v 0.322988 -0.444051 -1.116575
v 0.314933 -0.462944 -1.113690
v 0.325265 -0.455744 -1.113690
v 0.327312 -0.454277 -1.113690
v 0.321018 -0.471889 -1.110805
v 0.331550 -0.464550 -1.110805
v 0.333636 -0.463054 -1.110805
v 0.327103 -0.480834 -1.107921
v 0.337834 -0.473356 -1.107921
v 0.339960 -0.471832 -1.107921
v 0.335388 -0.488275 -1.105036
v 0.341947 -0.483705 -1.105036
v 0.344119 -0.482162 -1.105036
v 0.341514 -0.497193 -1.102151
v 0.348192 -0.492539 -1.102151
v 0.350404 -0.490968 -1.102151
v 0.347639 -0.506110 -1.099266
v 0.354437 -0.501373 -1.099266
v 0.356688 -0.499773 -1.099266
v 0.353764 -0.515027 -1.096381
v 0.360682 -0.510207 -1.096381
v 0.362973 -0.508579 -1.096381
v 0.364588 -0.520686 -1.093496
v 0.369258 -0.517385 -1.093496
v 0.371581 -0.515719 -1.093496
v 0.375542 -0.526191 -1.090611
v 0.377906 -0.524496 -1.090611
v 0.380261 -0.522791 -1.090611
v 0.386625 -0.531540 -1.087726
v 0.275799 -0.416720 -1.129741
v 0.293373 -0.398695 -1.131000
v 0.295690 -0.410389 -1.128115
v 0.302015 -0.419167 -1.125230
v 0.306411 -0.429327 -1.122345
v 0.312695 -0.438133 -1.119460
v 0.318980 -0.446939 -1.116575
v 0.323212 -0.457203 -1.113690
v 0.329457 -0.466037 -1.110805
v 0.335702 -0.474871 -1.107921
v 0.339767 -0.485238 -1.105036
v 0.345973 -0.494100 -1.102151
v 0.352178 -0.502962 -1.099266
v 0.358383 -0.511824 -1.096381
v 0.366927 -0.519041 -1.093496
v 0.277265 -0.418586 -1.129110
v 0.292678 -0.399205 -1.131000
v 0.364870 -0.510450 -1.095681
v 0.366221 -0.512623 -1.095000
v 0.280734 -0.420762 -1.128115
v 0.293841 -0.411715 -1.128115
v 0.300126 -0.420521 -1.125230
v 0.304476 -0.430701 -1.122345
v 0.310722 -0.439535 -1.119460
v 0.316967 -0.448369 -1.116575
v 0.321152 -0.458652 -1.113690
v 0.327357 -0.467514 -1.110805
v 0.333562 -0.476376 -1.107921
v 0.337581 -0.486762 -1.105036
v 0.343747 -0.495651 -1.102151
v 0.349912 -0.504541 -1.099266
v 0.356077 -0.513431 -1.096381
v 0.278733 -0.420456 -1.128479
v 0.291982 -0.399714 -1.131000
v 0.363521 -0.508281 -1.096361
v 0.291986 -0.413033 -1.128115
v 0.298231 -0.421867 -1.125230
v 0.302536 -0.432066 -1.122345
v 0.308741 -0.440928 -1.119460
v 0.314946 -0.449790 -1.116575
v 0.319085 -0.460092 -1.113690
v 0.325251 -0.468982 -1.110805
v 0.331416 -0.477872 -1.107921
v 0.280203 -0.422328 -1.127846
v 0.291286 -0.400222 -1.131000
v 0.290126 -0.414342 -1.128115
v 0.296331 -0.423204 -1.125230
v 0.300589 -0.433423 -1.122345
v 0.306755 -0.442313 -1.119460
v 0.312920 -0.451202 -1.116575
v 0.317013 -0.461523 -1.113690
v 0.323138 -0.470440 -1.110805
v 0.329263 -0.479358 -1.107921
v 0.281675 -0.424203 -1.127212
v 0.290589 -0.400728 -1.131000
v 0.288259 -0.415643 -1.128115
v 0.294424 -0.424533 -1.125230
v 0.298637 -0.434770 -1.122345
v 0.304762 -0.443688 -1.119460
v 0.310887 -0.452605 -1.116575
v 0.283149 -0.426081 -1.126577
v 0.289890 -0.401234 -1.131000
v 0.286386 -0.416936 -1.128115
v 0.292512 -0.425853 -1.125230
v 0.296678 -0.436109 -1.122345
v 0.302763 -0.445054 -1.119460
v 0.308848 -0.453999 -1.116575
v 0.284626 -0.427962 -1.125942
v 0.289191 -0.401738 -1.131000
v 0.362175 -0.506115 -1.097039
v 0.284508 -0.418220 -1.128115
v 0.290593 -0.427164 -1.125230
v 0.286105 -0.429845 -1.125305
v 0.288491 -0.402241 -1.131000
v 0.360829 -0.503951 -1.097717
v 0.282624 -0.419495 -1.128115
v 0.288669 -0.428467 -1.125230
v 0.287586 -0.431732 -1.124668
v 0.287790 -0.402743 -1.131000
v 0.359486 -0.501791 -1.098394
v 0.289069 -0.433621 -1.124029
v 0.287089 -0.403243 -1.131000
v 0.358145 -0.499634 -1.099070
v 0.354876 -0.517453 -1.095680
v 0.290554 -0.435512 -1.123390
v 0.286386 -0.403742 -1.131000
v 0.356806 -0.497479 -1.099745
v 0.353301 -0.515447 -1.096359
v 0.292041 -0.437407 -1.122749
v 0.285683 -0.404240 -1.131000
v 0.355468 -0.495328 -1.100419
v 0.351728 -0.513443 -1.097036
v 0.293531 -0.439304 -1.122108
v 0.284978 -0.404737 -1.131000
v 0.354133 -0.493180 -1.101092
v 0.350157 -0.511442 -1.097713
v 0.295022 -0.441205 -1.121466
v 0.284273 -0.405233 -1.131000
v 0.352799 -0.491035 -1.101764
v 0.348589 -0.509443 -1.098389
v 0.296516 -0.443107 -1.120822
v 0.283567 -0.405727 -1.131000
v 0.351467 -0.488893 -1.102435
v 0.347022 -0.507447 -1.099065
v 0.298013 -0.445013 -1.120178
v 0.282860 -0.406220 -1.131000
v 0.350137 -0.486754 -1.103106
v 0.345458 -0.505454 -1.099739
v 0.299511 -0.446922 -1.119533
v 0.282153 -0.406712 -1.131000
v 0.348809 -0.484618 -1.103775
v 0.343895 -0.503464 -1.100412
v 0.301011 -0.448833 -1.118887
v 0.281444 -0.407203 -1.131000
v 0.347483 -0.482485 -1.104443
v 0.342335 -0.501476 -1.101084
v 0.302514 -0.450747 -1.118240
v 0.280734 -0.407692 -1.131000
v 0.346159 -0.480355 -1.105110
v 0.340777 -0.499491 -1.101756
v 0.304019 -0.452664 -1.117592
v 0.280024 -0.408181 -1.131000
v 0.344836 -0.478228 -1.105777
v 0.339221 -0.497509 -1.102426
v 0.305526 -0.454584 -1.116942
v 0.279313 -0.408668 -1.131000
v 0.343516 -0.476104 -1.106442
v 0.337667 -0.495530 -1.103096
v 0.307035 -0.456506 -1.116292
v 0.278601 -0.409153 -1.131000
v 0.342197 -0.473983 -1.107106
v 0.336116 -0.493553 -1.103764
v 0.308546 -0.458432 -1.115642
v 0.277888 -0.409638 -1.131000
v 0.340881 -0.471865 -1.107770
v 0.334566 -0.491579 -1.104432
v 0.310060 -0.460360 -1.114990
v 0.277174 -0.410121 -1.131000
v 0.339566 -0.469750 -1.108432
v 0.333019 -0.489607 -1.105099
v 0.311576 -0.462290 -1.114337
v 0.276460 -0.410603 -1.131000
v 0.338253 -0.467638 -1.109094
v 0.331473 -0.487639 -1.105765
v 0.313093 -0.464224 -1.113683
v 0.275745 -0.411084 -1.131000
v 0.336942 -0.465529 -1.109754
v 0.329930 -0.485672 -1.106430
v 0.314613 -0.466160 -1.113028
v 0.275028 -0.411563 -1.131000
v 0.335633 -0.463424 -1.110414
v 0.328389 -0.483709 -1.107094
v 0.316135 -0.468099 -1.112373
v 0.274311 -0.412042 -1.131000
v 0.334325 -0.461321 -1.111072
v 0.317660 -0.470041 -1.111716
v 0.333020 -0.459221 -1.111730
v 0.326850 -0.481748 -1.107757
v 0.319186 -0.471985 -1.111059
v 0.297256 -0.401687 -1.129743
v 0.331717 -0.457124 -1.112387
v 0.325313 -0.479790 -1.108419
v 0.320714 -0.473933 -1.110400
v 0.298507 -0.403700 -1.129113
v 0.330415 -0.455031 -1.113042
v 0.323778 -0.477835 -1.109080
v 0.322245 -0.475882 -1.109741
v 0.299760 -0.405716 -1.128482
v 0.329116 -0.452940 -1.113697
v 0.301015 -0.407735 -1.127850
v 0.327818 -0.450853 -1.114351
v 0.302271 -0.409757 -1.127218
v 0.326522 -0.448769 -1.115004
v 0.303530 -0.411782 -1.126584
v 0.325228 -0.446687 -1.115655
v 0.323936 -0.444609 -1.116306
v 0.304791 -0.413810 -1.125949
v 0.322646 -0.442534 -1.116956
v 0.306054 -0.415842 -1.125313
v 0.321358 -0.440462 -1.117605
v 0.307318 -0.417876 -1.124676
v 0.320072 -0.438393 -1.118253
v 0.308585 -0.419914 -1.124038
v 0.318788 -0.436327 -1.118899
v 0.309854 -0.421955 -1.123399
v 0.317506 -0.434265 -1.119545
v 0.311124 -0.423999 -1.122759
v 0.316226 -0.432205 -1.120190
v 0.312396 -0.426046 -1.122119
v 0.314947 -0.430149 -1.120834
v 0.313671 -0.428096 -1.121477
f 1 2 3
f 3 4 5
f 5 6 7
f 7 8 9
f 9 10 11
f 11 12 13
f 13 14 15
f 15 16 17
f 17 18 19
f 19 20 21
f 21 22 23
f 23 24 25
f 25 26 27
f 27 28 29
f 29 30 31
f 31 32 33
f 33 34 35
f 35 36 37
f 37 38 39
f 39 40 41
f 41 42 43
f 43 44 45
f 45 46 47
f 47 48 49
f 49 50 51
f 51 52 53
f 53 54 55
f 55 56 57
f 58 59 60
f 61 62 63
f 64 65 66
f 67 68 69
f 70 71 72
f 73 74 75
f 76 77 78
f 79 80 81
f 82 83 84
f 85 86 87
f 88 89 90
f 91 92 93
f 94 95 96
f 97 98 99
f 100 101 102
f 103 104 105
f 1 3 5
f 5 7 9
f 9 11 13
f 13 15 17
f 17 19 21
f 21 23 25
f 25 27 29
f 29 31 33
f 33 35 37
f 37 39 41
f 41 43 45
f 45 47 49
f 49 51 53
f 53 55 57
f 106 58 60
f 107 61 63
f 108 64 66
f 109 67 69
f 110 70 72
f 111 73 75
f 112 76 78
f 113 79 81
f 114 82 84
f 115 85 87
f 116 88 90
f 117 91 93
f 118 94 96
f 119 97 99
f 120 100 102
f 102 103 105
f 1 5 9
f 9 13 17
f 17 21 25
f 25 29 33
f 33 37 41
f 41 45 49
f 121 106 60
f 122 107 63
f 123 124 125
f 126 108 66
f 127 109 69
f 128 110 72
f 129 111 75
f 130 112 78
f 131 113 81
f 132 114 84
f 133 115 87
f 134 116 90
f 135 117 93
f 136 118 96
f 137 119 99
f 99 120 102
f 1 9 17
f 17 25 33
f 33 41 49
f 138 121 60
f 139 122 63
f 140 123 125
f 141 126 66
f 142 127 69
f 143 128 72
f 144 129 75
f 145 130 78
f 146 131 81
f 147 132 84
f 148 133 87
f 87 134 90
f 90 135 93
f 93 136 96
f 96 137 99
f 1 17 33
f 33 49 53
f 149 138 60
f 150 139 63
f 151 141 66
f 152 142 69
f 153 143 72
f 154 144 75
f 155 145 78
f 156 146 81
f 157 147 84
f 158 148 87
f 1 33 53
f 159 149 60
f 160 150 63
f 161 151 66
f 162 152 69
f 163 153 72
f 164 154 75
f 165 155 78
f 78 156 81
f 81 157 84
f 84 158 87
f 105 1 53
f 166 159 60
f 167 160 63
f 168 161 66
f 169 162 69
f 170 163 72
f 171 164 75
f 172 165 78
f 84 87 90
f 105 53 57
f 173 166 60
f 174 167 63
f 175 140 125
f 176 168 66
f 177 169 69
f 69 170 72
f 72 171 75
f 75 172 78
f 84 90 93
f 102 105 57
f 178 173 60
f 179 174 63
f 180 175 125
f 181 176 66
f 182 177 69
f 75 78 81
f 84 93 96
f 99 102 57
f 183 178 60
f 184 179 63
f 185 180 125
f 125 181 66
f 66 182 69
f 75 81 84
f 96 99 57
f 186 183 60
f 187 184 63
f 188 185 125
f 66 69 72
f 75 84 96
f 96 57 189
f 190 186 60
f 191 187 63
f 192 188 125
f 66 72 75
f 96 189 193
f 194 190 60
f 195 191 63
f 196 192 125
f 66 75 96
f 96 193 197
f 198 194 60
f 199 195 63
f 200 196 125
f 96 197 201
f 202 198 60
f 203 199 63
f 204 200 125
f 96 201 205
f 206 202 60
f 207 203 63
f 208 204 125
f 96 205 209
f 210 206 60
f 211 207 63
f 212 208 125
f 96 209 213
f 214 210 60
f 215 211 63
f 216 212 125
f 96 213 217
f 218 214 60
f 219 215 63
f 220 216 125
f 96 217 221
f 222 218 60
f 223 219 63
f 224 220 125
f 96 221 225
f 226 222 60
f 227 223 63
f 228 224 125
f 96 225 229
f 230 226 60
f 231 227 63
f 232 228 125
f 96 229 233
f 234 230 60
f 235 231 63
f 236 232 125
f 96 233 237
f 238 234 60
f 239 235 63
f 240 236 125
f 96 237 241
f 242 238 60
f 243 239 63
f 244 240 125
f 96 241 245
f 246 242 60
f 247 243 63
f 248 244 125
f 96 245 249
f 250 246 60
f 251 247 63
f 252 248 125
f 96 249 253
f 254 250 60
f 255 251 63
f 256 252 125
f 96 253 257
f 258 254 60
f 259 255 63
f 260 256 125
f 66 96 257
f 261 258 60
f 60 259 63
f 262 260 125
f 66 257 263
f 264 261 60
f 60 63 265
f 266 262 125
f 66 263 267
f 268 264 60
f 60 265 269
f 270 266 125
f 66 267 271
f 272 268 60
f 60 269 273
f 274 270 125
f 66 271 272
f 60 273 275
f 276 274 125
f 66 272 60
f 60 275 277
f 278 276 125
f 125 66 60
f 60 277 279
f 280 278 125
f 125 60 279
f 281 280 125
f 125 279 282
f 283 281 125
f 125 282 284
f 285 283 125
f 125 284 286
f 287 285 125
f 125 286 288
f 289 287 125
f 125 288 290
f 291 289 125
f 125 290 292
f 293 291 125
f 125 292 294
f 295 293 125
f 125 294 296
f 296 295 125
f 124 2 3
