v 0.025000 1.301943 0.150000
v 0.024545 1.301952 0.150000
v 0.024091 1.301960 0.150000
v 0.023636 1.301969 0.150000
v 0.023182 1.301977 0.150000
v 0.022727 1.301985 0.150000
v 0.022273 1.301993 0.150000
v 0.021818 1.302000 0.150000
v 0.021364 1.302008 0.150000
v 0.020909 1.302015 0.150000
v 0.020455 1.302022 0.150000
v 0.020000 1.302029 0.150000
v 0.019546 1.302036 0.150000
v 0.019091 1.302043 0.150000
v 0.018637 1.302050 0.150000
v 0.018182 1.302056 0.150000
v 0.017728 1.302062 0.150000
v 0.017273 1.302068 0.150000
v 0.016819 1.302074 0.150000
v 0.016364 1.302080 0.150000
v 0.015910 1.302086 0.150000
v 0.015455 1.302091 0.150000
v 0.015001 1.302097 0.150000
v 0.014546 1.302102 0.150000
v 0.014091 1.302107 0.150000
v 0.013637 1.302112 0.150000
v 0.013182 1.302116 0.150000
v 0.012728 1.302121 0.150000
v 0.012273 1.302125 0.150000
v 0.011819 1.302129 0.150000
v 0.011364 1.302133 0.150000
v 0.010910 1.302137 0.150000
v 0.010455 1.302141 0.150000
v 0.010001 1.302145 0.150000
v 0.009546 1.302148 0.150000
v 0.009091 1.302151 0.150000
v 0.008637 1.302154 0.150000
v 0.008182 1.302157 0.150000
v 0.007728 1.302160 0.150000
v 0.007273 1.302163 0.150000
v 0.006819 1.302165 0.150000
v 0.006364 1.302167 0.150000
v 0.005909 1.302170 0.150000
v 0.005455 1.302171 0.150000
v 0.005000 1.302173 0.150000
v 0.004546 1.302175 0.150000
v 0.004091 1.302176 0.150000
v 0.003637 1.302178 0.150000
v 0.003182 1.302179 0.150000
v 0.002727 1.302180 0.150000
v 0.002273 1.302181 0.150000
v 0.001818 1.302181 0.150000
v 0.001364 1.302182 0.150000
v 0.000909 1.302182 0.150000
v 0.000455 1.302183 0.150000
v -0.000000 1.302183 0.150000
v -0.006818 1.302183 0.150000
v -0.013636 1.302183 0.150000
v -0.020455 1.302183 0.150000
v -0.027273 1.302183 0.150000
v -0.034091 1.302183 0.150000
v -0.040909 1.302183 0.150000
v -0.047727 1.302183 0.150000
v -0.054545 1.302183 0.150000
v -0.061364 1.302183 0.150000
v -0.068182 1.302183 0.150000
v -0.075000 1.302183 0.150000
v -0.081818 1.302183 0.150000
v -0.088636 1.302183 0.150000
v -0.095455 1.302183 0.150000
v -0.102273 1.302183 0.150000
v -0.109091 1.302183 0.150000
v -0.115909 1.302183 0.150000
v -0.122727 1.302183 0.150000
v -0.129545 1.302183 0.150000
v -0.136364 1.302183 0.150000
v -0.143182 1.302183 0.150000
v -0.150000 1.302182 0.150000
v -0.156818 1.302182 0.150000
v -0.163636 1.302182 0.150000
v -0.170455 1.302182 0.150000
v -0.177273 1.302182 0.150000
v -0.184091 1.302182 0.150000
v -0.190909 1.302182 0.150000
v -0.197727 1.302182 0.150000
v -0.204545 1.302182 0.150000
v -0.211364 1.302182 0.150000
v -0.218182 1.302182 0.150000
v -0.225000 1.302182 0.150000
v -0.231818 1.302182 0.150000
v -0.238636 1.302182 0.150000
v -0.245455 1.302182 0.150000
v -0.252273 1.302182 0.150000
v -0.259091 1.302182 0.150000
v -0.265909 1.302182 0.150000
v -0.272727 1.302182 0.150000
v -0.279545 1.302182 0.150000
v -0.286364 1.302182 0.150000
v -0.293182 1.302182 0.150000
v -0.300000 1.302182 0.150000
v -0.306818 1.302182 0.150000
v -0.313636 1.302182 0.150000
v -0.320455 1.302182 0.150000
v -0.327273 1.302182 0.150000
v -0.334091 1.302182 0.150000
v -0.340909 1.302182 0.150000
v -0.347727 1.302182 0.150000
v -0.354545 1.302182 0.150000
v -0.361364 1.302182 0.150000
v -0.368182 1.302182 0.150000
v -0.375000 1.302182 0.150000
v -0.375000 1.325000 0.150000
v 0.025000 1.325000 0.150000
f 112 111 110
f 112 110 109
f 112 109 108
f 112 108 107
f 112 107 106
f 112 106 105
f 112 105 104
f 112 104 103
f 112 103 102
f 112 102 101
f 112 101 100
f 112 100 99
f 112 99 98
f 112 98 97
f 112 97 96
f 112 96 95
f 112 95 94
f 112 94 93
f 112 93 92
f 112 92 91
f 112 91 90
f 112 90 89
f 112 89 88
f 112 88 87
f 112 87 86
f 112 86 85
f 112 85 84
f 112 84 83
f 112 83 82
f 112 82 81
f 112 81 80
f 112 80 79
f 112 79 78
f 112 78 77
f 112 77 76
f 112 76 75
f 112 75 74
f 112 74 73
f 112 73 72
f 112 72 71
f 112 71 70
f 112 70 69
f 112 69 68
f 112 68 67
f 112 67 66
f 112 66 65
f 112 65 64
f 112 64 63
f 112 63 62
f 112 62 61
f 112 61 60
f 112 60 59
f 112 59 58
f 112 58 57
f 112 57 56
f 112 56 55
f 112 55 54
f 112 54 53
f 112 53 52
f 112 52 51
f 112 51 50
f 112 50 49
f 112 49 48
f 112 48 47
f 112 47 46
f 112 46 45
f 112 45 44
f 112 44 43
f 112 43 42
f 112 42 41
f 112 41 40
f 112 40 39
f 112 39 38
f 112 38 37
f 112 37 36
f 112 36 35
f 112 35 34
f 112 34 33
f 112 33 32
f 112 32 31
f 112 31 30
f 112 30 29
f 112 29 28
f 112 28 27
f 112 27 26
f 112 26 25
f 112 25 24
f 112 24 23
f 112 23 22
f 112 22 21
f 112 21 20
f 112 20 19
f 112 19 18
f 112 18 17
f 112 17 16
f 112 16 15
f 112 15 14
f 112 14 13
f 112 13 12
f 112 12 11
f 112 11 10
f 112 10 9
f 112 9 8
f 112 8 7
f 112 7 6
f 112 6 5
f 112 5 4
f 112 4 3
f 112 3 2
f 112 2 113
f 113 2 1
