v 1.317813 -0.559197 -6.576891
v 1.315244 -0.559736 -6.581618
v 1.316560 -0.559470 -6.579272
v 1.313864 -0.559995 -6.583929
v 1.312422 -0.560246 -6.586202
v 1.310918 -0.560490 -6.588435
v 1.309355 -0.560727 -6.590628
v 1.307732 -0.560955 -6.592779
v 1.306052 -0.561176 -6.594885
v 1.304315 -0.561389 -6.596946
v 1.302523 -0.561593 -6.598960
v 1.317401 -0.567827 -6.575717
v 1.316768 -0.576196 -6.574637
v 1.315923 -0.584315 -6.573646
v 1.314878 -0.592200 -6.572740
v 1.313642 -0.599863 -6.571915
v 1.312219 -0.607306 -6.571171
v 1.310607 -0.614530 -6.570510
v 1.308803 -0.621532 -6.569931
v 1.306807 -0.628310 -6.569438
v 1.304621 -0.634857 -6.569030
v 1.303105 -0.570627 -6.596529
v 1.303105 -0.570636 -6.596526
v 1.303580 -0.579272 -6.593896
v 1.303581 -0.579291 -6.593890
v 1.303960 -0.587530 -6.591095
v 1.303961 -0.587557 -6.591086
v 1.304252 -0.595404 -6.588154
v 1.304253 -0.595437 -6.588141
v 1.304466 -0.602902 -6.585098
v 1.304467 -0.602941 -6.585082
v 1.304609 -0.610024 -6.581957
v 1.304609 -0.610068 -6.581937
v 1.304689 -0.616771 -6.578757
v 1.304689 -0.616819 -6.578734
v 1.304714 -0.623147 -6.575526
v 1.304714 -0.623197 -6.575499
v 1.304690 -0.629157 -6.572286
v 1.304690 -0.629210 -6.572257
v 1.304625 -0.634804 -6.569064
v 1.298778 -0.561975 -6.602841
v 1.300677 -0.561788 -6.600926
v 1.296828 -0.562154 -6.604705
v 1.294828 -0.562323 -6.606516
v 1.292780 -0.562483 -6.608274
v 1.290685 -0.562635 -6.609976
v 1.288544 -0.562777 -6.611621
v 1.286360 -0.562909 -6.613209
v 1.284133 -0.563033 -6.614737
v 1.281866 -0.563146 -6.616206
v 1.302249 -0.641155 -6.568711
v 1.299695 -0.647187 -6.568482
v 1.296964 -0.652939 -6.568344
v 1.294056 -0.658398 -6.568300
v 1.290962 -0.663559 -6.568353
v 1.287676 -0.668419 -6.568506
v 1.284187 -0.672972 -6.568761
v 1.280497 -0.677210 -6.569121
v 1.276632 -0.681099 -6.569583
v 1.272627 -0.684604 -6.570143
v 1.268514 -0.687688 -6.570797
v 1.281417 -0.572680 -6.614813
v 1.281417 -0.572691 -6.614811
v 1.280905 -0.581860 -6.613179
v 1.280904 -0.581880 -6.613175
v 1.280338 -0.590682 -6.611334
v 1.280336 -0.590710 -6.611327
v 1.279722 -0.599145 -6.609305
v 1.279719 -0.599181 -6.609295
v 1.279065 -0.607254 -6.607118
v 1.279062 -0.607296 -6.607106
v 1.278375 -0.615004 -6.604800
v 1.278370 -0.615052 -6.604785
v 1.277658 -0.622392 -6.602379
v 1.277653 -0.622444 -6.602361
v 1.276923 -0.629416 -6.599879
v 1.276917 -0.629472 -6.599858
v 1.276174 -0.636078 -6.597326
v 1.276168 -0.636136 -6.597302
v 1.275421 -0.642374 -6.594744
v 1.275413 -0.642435 -6.594718
v 1.274669 -0.648298 -6.592160
v 1.274661 -0.648360 -6.592133
v 1.273927 -0.653845 -6.589602
v 1.273918 -0.653908 -6.589572
v 1.273201 -0.659014 -6.587093
v 1.273192 -0.659077 -6.587062
v 1.272497 -0.663808 -6.584655
v 1.272487 -0.663872 -6.584622
v 1.271818 -0.668239 -6.582304
v 1.271808 -0.668304 -6.582269
v 1.271170 -0.672321 -6.580052
v 1.271160 -0.672386 -6.580016
v 1.270555 -0.676067 -6.577912
v 1.270544 -0.676130 -6.577875
v 1.269976 -0.679482 -6.575897
v 1.269966 -0.679543 -6.575860
v 1.269440 -0.682558 -6.574029
v 1.269430 -0.682616 -6.573994
v 1.268954 -0.685281 -6.572332
v 1.268944 -0.685335 -6.572299
v 1.268523 -0.687641 -6.570829
v 1.277217 -0.563345 -6.618959
v 1.279560 -0.563251 -6.617613
v 1.274838 -0.563430 -6.620241
v 1.272426 -0.563504 -6.621459
v 1.269981 -0.563569 -6.622612
v 1.267506 -0.563625 -6.623699
v 1.265003 -0.563670 -6.624720
v 1.262474 -0.563705 -6.625673
v 1.259919 -0.563730 -6.626559
v 1.257342 -0.563745 -6.627375
v 1.254744 -0.563750 -6.628123
v 1.252126 -0.563745 -6.628800
v 1.249492 -0.563730 -6.629407
v 1.246842 -0.563705 -6.629943
v 1.244179 -0.563670 -6.630409
v 1.241505 -0.563625 -6.630802
v 1.238821 -0.563569 -6.631124
v 1.236130 -0.563504 -6.631374
v 1.233433 -0.563430 -6.631552
v 1.230733 -0.563345 -6.631657
v 1.228031 -0.563251 -6.631690
v 1.264324 -0.690321 -6.571541
v 1.260079 -0.692497 -6.572371
v 1.255795 -0.694226 -6.573279
v 1.251489 -0.695513 -6.574260
v 1.247176 -0.696368 -6.575309
v 1.242869 -0.696793 -6.576422
v 1.238574 -0.696787 -6.577596
v 1.234301 -0.696352 -6.578829
v 1.230056 -0.695486 -6.580119
v 1.225852 -0.694188 -6.581464
v 1.221706 -0.692450 -6.582860
v 1.217634 -0.690265 -6.584305
v 1.227819 -0.572813 -6.630256
v 1.227818 -0.572824 -6.630255
v 1.227535 -0.582023 -6.628582
v 1.227534 -0.582043 -6.628578
v 1.227188 -0.590875 -6.626697
v 1.227187 -0.590903 -6.626690
v 1.226785 -0.599369 -6.624628
v 1.226783 -0.599405 -6.624618
v 1.226334 -0.607507 -6.622401
v 1.226331 -0.607550 -6.622389
v 1.225841 -0.615288 -6.620044
v 1.225838 -0.615336 -6.620029
v 1.225314 -0.622705 -6.617584
v 1.225310 -0.622758 -6.617565
v 1.224760 -0.629759 -6.615045
v 1.224756 -0.629815 -6.615024
v 1.224186 -0.636449 -6.612453
v 1.224181 -0.636508 -6.612430
v 1.223598 -0.642774 -6.609834
v 1.223592 -0.642834 -6.609808
v 1.223004 -0.648725 -6.607215
v 1.222998 -0.648786 -6.607187
v 1.222410 -0.654298 -6.604621
v 1.222404 -0.654360 -6.604592
v 1.221824 -0.659491 -6.602079
v 1.221817 -0.659554 -6.602047
v 1.221250 -0.664308 -6.599609
v 1.221243 -0.664373 -6.599575
v 1.220694 -0.668762 -6.597227
v 1.220686 -0.668827 -6.597191
v 1.220159 -0.672865 -6.594946
v 1.220150 -0.672930 -6.594910
v 1.219648 -0.676629 -6.592779
v 1.219640 -0.676693 -6.592742
v 1.219166 -0.680063 -6.590739
v 1.219157 -0.680124 -6.590702
v 1.218717 -0.683155 -6.588848
v 1.218709 -0.683213 -6.588812
v 1.218309 -0.685893 -6.587130
v 1.218300 -0.685947 -6.587095
v 1.217946 -0.688265 -6.585608
v 1.217938 -0.688314 -6.585576
v 1.222631 -0.563033 -6.631538
v 1.225330 -0.563146 -6.631650
v 1.219936 -0.562909 -6.631354
v 1.217248 -0.562777 -6.631097
v 1.214568 -0.562635 -6.630769
v 1.211899 -0.562483 -6.630368
v 1.209242 -0.562323 -6.629896
v 1.206598 -0.562154 -6.629353
v 1.203972 -0.561975 -6.628740
v 1.201363 -0.561788 -6.628056
v 1.213654 -0.687625 -6.585793
v 1.209786 -0.684534 -6.587320
v 1.206060 -0.681025 -6.588873
v 1.202506 -0.677133 -6.590438
v 1.199152 -0.672894 -6.592002
v 1.196026 -0.668341 -6.593554
v 1.193125 -0.663483 -6.595091
v 1.190441 -0.658324 -6.596616
v 1.187965 -0.652868 -6.598130
v 1.185688 -0.647119 -6.599636
v 1.183610 -0.641088 -6.601130
v 1.199721 -0.570884 -6.626318
v 1.199719 -0.570894 -6.626316
v 1.198063 -0.579595 -6.624353
v 1.198059 -0.579614 -6.624348
v 1.196397 -0.587922 -6.622191
v 1.196392 -0.587948 -6.622184
v 1.194730 -0.595867 -6.619861
v 1.194723 -0.595901 -6.619851
v 1.193068 -0.603439 -6.617392
v 1.193060 -0.603479 -6.617378
v 1.191419 -0.610637 -6.614809
v 1.191409 -0.610682 -6.614792
v 1.189790 -0.617462 -6.612142
v 1.189778 -0.617511 -6.612122
v 1.188187 -0.623916 -6.609416
v 1.188174 -0.623968 -6.609393
v 1.186618 -0.630006 -6.606655
v 1.186604 -0.630059 -6.606630
v 1.185088 -0.635731 -6.603886
v 1.185074 -0.635786 -6.603858
v 1.196206 -0.561389 -6.626479
v 1.198774 -0.561593 -6.627302
v 1.193663 -0.561176 -6.625587
v 1.191145 -0.560955 -6.624627
v 1.188655 -0.560727 -6.623600
v 1.186193 -0.560490 -6.622507
v 1.183763 -0.560246 -6.621348
v 1.181366 -0.559995 -6.620124
v 1.179003 -0.559736 -6.618835
v 1.176676 -0.559470 -6.617484
v 1.174388 -0.559197 -6.616071
v 1.181733 -0.634793 -6.602610
v 1.180061 -0.628250 -6.604071
v 1.178596 -0.621475 -6.605509
v 1.177340 -0.614478 -6.606922
v 1.176290 -0.607260 -6.608311
v 1.175445 -0.599822 -6.609673
v 1.174802 -0.592166 -6.611010
v 1.174364 -0.584289 -6.612320
v 1.174141 -0.576177 -6.613601
v 1.174145 -0.567818 -6.614852
f 1 2 3
f 1 4 2
f 1 5 4
f 1 6 5
f 1 7 6
f 1 8 7
f 1 9 8
f 1 10 9
f 1 11 10
f 1 12 13
f 1 13 14
f 1 14 15
f 1 15 16
f 1 16 17
f 1 17 18
f 1 18 19
f 1 19 20
f 1 20 21
f 1 22 11
f 1 23 22
f 1 24 23
f 1 25 24
f 1 26 25
f 1 27 26
f 1 28 27
f 1 29 28
f 1 30 29
f 1 31 30
f 1 32 31
f 1 33 32
f 1 34 33
f 1 35 34
f 1 36 35
f 1 37 36
f 1 38 37
f 1 39 38
f 1 40 39
f 1 21 40
f 11 41 42
f 11 43 41
f 11 44 43
f 11 45 44
f 11 46 45
f 11 47 46
f 11 48 47
f 11 49 48
f 11 50 49
f 21 51 52
f 21 52 53
f 21 53 54
f 21 54 55
f 21 55 56
f 21 56 57
f 21 57 58
f 21 58 59
f 21 59 60
f 21 60 61
f 11 22 50
f 22 62 50
f 22 23 62
f 23 63 62
f 23 24 63
f 24 64 63
f 24 25 64
f 25 65 64
f 25 26 65
f 26 66 65
f 26 27 66
f 27 67 66
f 27 28 67
f 28 68 67
f 28 29 68
f 29 69 68
f 29 30 69
f 30 70 69
f 30 31 70
f 31 71 70
f 31 32 71
f 32 72 71
f 32 33 72
f 33 73 72
f 33 34 73
f 34 74 73
f 34 35 74
f 35 75 74
f 35 36 75
f 36 76 75
f 36 37 76
f 37 77 76
f 37 38 77
f 38 78 77
f 38 39 78
f 39 79 78
f 39 40 79
f 40 80 79
f 40 21 80
f 21 81 80
f 21 82 81
f 21 83 82
f 21 84 83
f 21 85 84
f 21 86 85
f 21 87 86
f 21 88 87
f 21 89 88
f 21 90 89
f 21 91 90
f 21 92 91
f 21 93 92
f 21 94 93
f 21 95 94
f 21 96 95
f 21 97 96
f 21 98 97
f 21 99 98
f 21 100 99
f 21 101 100
f 21 102 101
f 21 61 102
f 50 103 104
f 50 105 103
f 50 106 105
f 50 107 106
f 50 108 107
f 50 109 108
f 50 110 109
f 50 111 110
f 50 112 111
f 50 113 112
f 50 114 113
f 50 115 114
f 50 116 115
f 50 117 116
f 50 118 117
f 50 119 118
f 50 120 119
f 50 121 120
f 50 122 121
f 50 123 122
f 61 124 125
f 61 125 126
f 61 126 127
f 61 127 128
f 61 128 129
f 61 129 130
f 61 130 131
f 61 131 132
f 61 132 133
f 61 133 134
f 61 134 135
f 50 62 123
f 62 136 123
f 62 63 136
f 63 137 136
f 63 64 137
f 64 138 137
f 64 65 138
f 65 139 138
f 65 66 139
f 66 140 139
f 66 67 140
f 67 141 140
f 67 68 141
f 68 142 141
f 68 69 142
f 69 143 142
f 69 70 143
f 70 144 143
f 70 71 144
f 71 145 144
f 71 72 145
f 72 146 145
f 72 73 146
f 73 147 146
f 73 74 147
f 74 148 147
f 74 75 148
f 75 149 148
f 75 76 149
f 76 150 149
f 76 77 150
f 77 151 150
f 77 78 151
f 78 152 151
f 78 79 152
f 79 153 152
f 79 80 153
f 80 154 153
f 80 81 154
f 81 155 154
f 81 82 155
f 82 156 155
f 82 83 156
f 83 157 156
f 83 84 157
f 84 158 157
f 84 85 158
f 85 159 158
f 85 86 159
f 86 160 159
f 86 87 160
f 87 161 160
f 87 88 161
f 88 162 161
f 88 89 162
f 89 163 162
f 89 90 163
f 90 164 163
f 90 91 164
f 91 165 164
f 91 92 165
f 92 166 165
f 92 93 166
f 93 167 166
f 93 94 167
f 94 168 167
f 94 95 168
f 95 169 168
f 95 96 169
f 96 170 169
f 96 97 170
f 97 171 170
f 97 98 171
f 98 172 171
f 98 99 172
f 99 173 172
f 99 100 173
f 100 174 173
f 100 101 174
f 101 175 174
f 101 102 175
f 102 176 175
f 102 61 176
f 61 177 176
f 61 135 177
f 123 178 179
f 123 180 178
f 123 181 180
f 123 182 181
f 123 183 182
f 123 184 183
f 123 185 184
f 123 186 185
f 123 187 186
f 135 188 189
f 135 189 190
f 135 190 191
f 135 191 192
f 135 192 193
f 135 193 194
f 135 194 195
f 135 195 196
f 135 196 197
f 135 197 198
f 123 136 187
f 136 199 187
f 136 137 199
f 137 200 199
f 137 138 200
f 138 201 200
f 138 139 201
f 139 202 201
f 139 140 202
f 140 203 202
f 140 141 203
f 141 204 203
f 141 142 204
f 142 205 204
f 142 143 205
f 143 206 205
f 143 144 206
f 144 207 206
f 144 145 207
f 145 208 207
f 145 146 208
f 146 209 208
f 146 147 209
f 147 210 209
f 147 148 210
f 148 211 210
f 148 149 211
f 149 212 211
f 149 150 212
f 150 213 212
f 150 151 213
f 151 214 213
f 151 152 214
f 152 215 214
f 152 153 215
f 153 216 215
f 153 154 216
f 154 217 216
f 154 155 217
f 155 218 217
f 155 156 218
f 156 198 218
f 156 157 198
f 157 158 198
f 158 159 198
f 159 160 198
f 160 161 198
f 161 162 198
f 162 163 198
f 163 164 198
f 164 165 198
f 165 166 198
f 166 167 198
f 167 168 198
f 168 169 198
f 169 170 198
f 170 171 198
f 171 172 198
f 172 173 198
f 173 174 198
f 174 175 198
f 175 176 198
f 176 177 198
f 177 135 198
f 187 219 220
f 187 221 219
f 187 222 221
f 187 223 222
f 187 224 223
f 187 225 224
f 187 226 225
f 187 227 226
f 187 228 227
f 187 229 228
f 198 230 231
f 198 231 232
f 198 232 233
f 198 233 234
f 198 234 235
f 198 235 236
f 198 236 237
f 198 237 238
f 198 238 239
f 198 239 229
f 187 199 229
f 199 200 229
f 200 201 229
f 201 202 229
f 202 203 229
f 203 204 229
f 204 205 229
f 205 206 229
f 206 207 229
f 207 208 229
f 208 209 229
f 209 210 229
f 210 211 229
f 211 212 229
f 212 213 229
f 213 214 229
f 214 215 229
f 215 216 229
f 216 217 229
f 217 218 229
f 218 198 229
