v -3.337500 -0.350000 -4.437000
v -3.336666 -0.350000 -4.453440
v -3.334174 -0.350000 -4.469711
v -3.330048 -0.350000 -4.485647
v -3.324331 -0.350000 -4.501083
v -3.317081 -0.350000 -4.515862
v -3.308374 -0.350000 -4.529831
v -3.298298 -0.350000 -4.542848
v -3.286957 -0.350000 -4.554779
v -3.274467 -0.350000 -4.565501
v -3.260957 -0.350000 -4.574905
v -3.246564 -0.350000 -4.582893
v -3.231437 -0.350000 -4.589385
v -3.215731 -0.350000 -4.594313
v -3.199607 -0.350000 -4.597626
v -3.183230 -0.350000 -4.599291
v -3.166770 -0.350000 -4.599291
v -3.150393 -0.350000 -4.597626
v -3.134269 -0.350000 -4.594313
v -3.118563 -0.350000 -4.589385
v -3.103436 -0.350000 -4.582893
v -3.089043 -0.350000 -4.574905
v -3.075533 -0.350000 -4.565501
v -3.063043 -0.350000 -4.554779
v -3.051702 -0.350000 -4.542848
v -3.041626 -0.350000 -4.529831
v -3.032919 -0.350000 -4.515862
v -3.025669 -0.350000 -4.501083
v -3.019952 -0.350000 -4.485647
v -3.015826 -0.350000 -4.469711
v -3.013334 -0.350000 -4.453440
v -3.012500 -0.350000 -4.437000
v -3.012500 -0.350000 -4.290915
v -3.337500 -0.350000 -4.290915
v -3.070539 -0.350000 -4.447623
v -3.072149 -0.350000 -4.458136
v -3.074815 -0.350000 -4.468433
v -3.078509 -0.350000 -4.478407
v -3.083194 -0.350000 -4.487957
v -3.088820 -0.350000 -4.496983
v -3.095330 -0.350000 -4.505394
v -3.102658 -0.350000 -4.513103
v -3.110729 -0.350000 -4.520031
v -3.119459 -0.350000 -4.526108
v -3.128759 -0.350000 -4.531269
v -3.138533 -0.350000 -4.535464
v -3.148681 -0.350000 -4.538648
v -3.159100 -0.350000 -4.540789
v -3.169682 -0.350000 -4.541865
v -3.180318 -0.350000 -4.541865
v -3.190900 -0.350000 -4.540789
v -3.201319 -0.350000 -4.538648
v -3.211467 -0.350000 -4.535464
v -3.221241 -0.350000 -4.531269
v -3.230541 -0.350000 -4.526108
v -3.239271 -0.350000 -4.520031
v -3.247342 -0.350000 -4.513103
v -3.254670 -0.350000 -4.505394
v -3.261180 -0.350000 -4.496983
v -3.266806 -0.350000 -4.487957
v -3.271491 -0.350000 -4.478407
v -3.275185 -0.350000 -4.468433
v -3.277851 -0.350000 -4.458136
v -3.279461 -0.350000 -4.447623
v -3.280000 -0.350000 -4.437000
v -3.279461 -0.350000 -4.426377
v -3.277851 -0.350000 -4.415864
v -3.275185 -0.350000 -4.405567
v -3.271491 -0.350000 -4.395593
v -3.266806 -0.350000 -4.386043
v -3.261180 -0.350000 -4.377017
v -3.254670 -0.350000 -4.368606
v -3.247342 -0.350000 -4.360897
v -3.239271 -0.350000 -4.353969
v -3.230541 -0.350000 -4.347892
v -3.221241 -0.350000 -4.342731
v -3.211467 -0.350000 -4.338536
v -3.201319 -0.350000 -4.335352
v -3.190900 -0.350000 -4.333211
v -3.180318 -0.350000 -4.332135
v -3.169682 -0.350000 -4.332135
v -3.159100 -0.350000 -4.333211
v -3.148681 -0.350000 -4.335352
v -3.138533 -0.350000 -4.338536
v -3.128759 -0.350000 -4.342731
v -3.119459 -0.350000 -4.347892
v -3.110729 -0.350000 -4.353969
v -3.102658 -0.350000 -4.360897
v -3.095330 -0.350000 -4.368606
v -3.088820 -0.350000 -4.377017
v -3.083194 -0.350000 -4.386043
v -3.078509 -0.350000 -4.395593
v -3.074815 -0.350000 -4.405567
v -3.072149 -0.350000 -4.415864
v -3.070539 -0.350000 -4.426377
v -3.070000 -0.350000 -4.437000
f 34 65 1
f 64 1 65
f 1 3 2
f 3 5 4
f 5 7 6
f 7 9 8
f 9 11 10
f 11 13 12
f 13 15 14
f 15 17 16
f 17 19 18
f 19 21 20
f 21 23 22
f 23 25 24
f 25 27 26
f 27 29 28
f 29 31 30
f 31 33 32
f 34 66 65
f 63 1 64
f 1 5 3
f 5 9 7
f 9 13 11
f 13 17 15
f 17 21 19
f 21 25 23
f 25 29 27
f 29 33 31
f 34 67 66
f 62 1 63
f 1 9 5
f 9 17 13
f 17 25 21
f 25 33 29
f 34 68 67
f 61 1 62
f 1 17 9
f 34 69 68
f 60 1 61
f 34 70 69
f 59 1 60
f 34 71 70
f 58 1 59
f 34 72 71
f 57 1 58
f 34 73 72
f 56 1 57
f 34 74 73
f 56 17 1
f 34 75 74
f 55 17 56
f 34 76 75
f 54 17 55
f 34 77 76
f 53 17 54
f 34 78 77
f 52 17 53
f 33 78 34
f 51 17 52
f 33 79 78
f 50 17 51
f 33 80 79
f 49 17 50
f 33 81 80
f 48 17 49
f 33 82 81
f 47 17 48
f 33 83 82
f 46 17 47
f 33 84 83
f 45 17 46
f 33 85 84
f 44 17 45
f 33 86 85
f 43 17 44
f 33 87 86
f 42 17 43
f 33 88 87
f 41 17 42
f 33 89 88
f 40 17 41
f 33 90 89
f 40 25 17
f 33 91 90
f 39 25 40
f 33 92 91
f 38 25 39
f 33 93 92
f 37 25 38
f 33 94 93
f 36 25 37
f 25 94 33
f 35 25 36
f 25 95 94
f 96 25 35
f 25 96 95
