v -0.152661 0.016837 0.659396
v -0.152940 0.015317 0.657771
v -0.153468 0.013952 0.656246
v -0.154349 0.012602 0.654652
v -0.155496 0.011506 0.653254
v -0.157051 0.010614 0.651965
v -0.158998 0.010085 0.650948
v -0.152661 0.115000 0.659396
v -0.152940 0.115000 0.657771
v -0.153468 0.115000 0.656246
v -0.154349 0.115000 0.654652
v -0.155496 0.115000 0.653254
v -0.157051 0.115000 0.651964
v -0.158998 0.115000 0.650948
v -0.152661 0.220000 0.659396
v -0.152940 0.220000 0.657771
v -0.153468 0.220000 0.656246
v -0.154349 0.220000 0.654652
v -0.155496 0.220000 0.653254
v -0.157051 0.220000 0.651964
v -0.158998 0.220000 0.650948
f 1 9 2
f 1 8 9
f 2 10 3
f 2 9 10
f 3 11 4
f 3 10 11
f 4 12 5
f 4 11 12
f 5 13 6
f 5 12 13
f 6 14 7
f 6 13 14
f 8 16 9
f 8 15 16
f 9 17 10
f 9 16 17
f 10 18 11
f 10 17 18
f 11 19 12
f 11 18 19
f 12 20 13
f 12 19 20
f 13 21 14
f 13 20 21
