v 0.000000 -0.636000 -0.500000
v -0.014125 -0.635843 -0.500000
v -0.028243 -0.635373 -0.500000
v -0.042347 -0.634589 -0.500000
v -0.056430 -0.633492 -0.500000
v -0.070485 -0.632082 -0.500000
v -0.084505 -0.630361 -0.500000
v -0.098484 -0.628329 -0.500000
v -0.112414 -0.625986 -0.500000
v -0.126289 -0.623335 -0.500000
v -0.140101 -0.620377 -0.500000
v -0.153845 -0.617112 -0.500000
v -0.167512 -0.613544 -0.500000
v -0.181097 -0.609672 -0.500000
v -0.194592 -0.605500 -0.500000
v -0.207992 -0.601029 -0.500000
v -0.221289 -0.596261 -0.500000
v -0.234476 -0.591199 -0.500000
v -0.247548 -0.585846 -0.500000
v -0.260498 -0.580204 -0.500000
v -0.273320 -0.574275 -0.500000
v -0.286006 -0.568064 -0.500000
v -0.298552 -0.561572 -0.500000
v -0.310950 -0.554803 -0.500000
v -0.323195 -0.547760 -0.500000
v -0.335280 -0.540447 -0.500000
v -0.347200 -0.532868 -0.500000
v -0.358949 -0.525025 -0.500000
v -0.370521 -0.516924 -0.500000
v -0.381910 -0.508568 -0.500000
v -0.393110 -0.499960 -0.500000
v -0.404117 -0.491106 -0.500000
v -0.414924 -0.482010 -0.500000
v -0.425527 -0.472676 -0.500000
v -0.435919 -0.463109 -0.500000
v -0.446097 -0.453314 -0.500000
v -0.456054 -0.443295 -0.500000
v -0.465787 -0.433057 -0.500000
v -0.475290 -0.422606 -0.500000
v -0.484558 -0.411946 -0.500000
v -0.487526 -0.408429 -0.500000
v -0.490468 -0.404892 -0.500000
v -0.493384 -0.401333 -0.500000
v -0.496275 -0.397753 -0.500000
v -0.499139 -0.394152 -0.500000
v -0.501978 -0.390531 -0.500000
v -0.504790 -0.386889 -0.500000
v -0.507576 -0.383227 -0.500000
v -0.510335 -0.379545 -0.500000
v -0.513067 -0.375843 -0.500000
v -0.515773 -0.372121 -0.500000
v -0.518452 -0.368380 -0.500000
v -0.521103 -0.364620 -0.500000
v -0.523727 -0.360840 -0.500000
v -0.526324 -0.357042 -0.500000
v -0.528893 -0.353225 -0.500000
v -0.531435 -0.349389 -0.500000
v -0.533949 -0.345536 -0.500000
v -0.536434 -0.341664 -0.500000
v -0.538892 -0.337774 -0.500000
v -0.541322 -0.333866 -0.500000
v -0.543723 -0.329941 -0.500000
v -0.546096 -0.325999 -0.500000
v -0.548440 -0.322040 -0.500000
v -0.550755 -0.318064 -0.500000
v -0.553042 -0.314071 -0.500000
v -0.555300 -0.310062 -0.500000
v -0.557528 -0.306036 -0.500000
v -0.559728 -0.301995 -0.500000
v -0.561898 -0.297938 -0.500000
v -0.564039 -0.293865 -0.500000
v -0.566150 -0.289777 -0.500000
v -0.568231 -0.285673 -0.500000
v -0.570283 -0.281555 -0.500000
v -0.572305 -0.277422 -0.500000
v -0.574297 -0.273274 -0.500000
v -0.576259 -0.269112 -0.500000
v -0.578191 -0.264936 -0.500000
v -0.580093 -0.260746 -0.500000
v -0.582883 -0.254448 -0.500000
v -0.585605 -0.248120 -0.500000
v -0.588258 -0.241762 -0.500000
v -0.590842 -0.235376 -0.500000
v -0.593357 -0.228963 -0.500000
v -0.595802 -0.222523 -0.500000
v -0.598177 -0.216056 -0.500000
v -0.600482 -0.209564 -0.500000
v -0.602717 -0.203048 -0.500000
v -0.604881 -0.196508 -0.500000
v -0.606974 -0.189945 -0.500000
v -0.608995 -0.183359 -0.500000
v -0.610946 -0.176752 -0.500000
v -0.612824 -0.170125 -0.500000
v -0.614631 -0.163477 -0.500000
v -0.616366 -0.156810 -0.500000
v -0.618028 -0.150125 -0.500000
v -0.619618 -0.143422 -0.500000
v -0.621135 -0.136702 -0.500000
v -0.622579 -0.129966 -0.500000
v -0.623950 -0.123216 -0.500000
v -0.625248 -0.116450 -0.500000
v -0.626473 -0.109671 -0.500000
v -0.627624 -0.102879 -0.500000
v -0.628702 -0.096075 -0.500000
v -0.629705 -0.089260 -0.500000
v -0.630635 -0.082434 -0.500000
v -0.631491 -0.075598 -0.500000
v -0.632273 -0.068754 -0.500000
v -0.632980 -0.061902 -0.500000
v -0.633614 -0.055042 -0.500000
v -0.634173 -0.048176 -0.500000
v -0.634657 -0.041304 -0.500000
v -0.635068 -0.034427 -0.500000
v -0.635403 -0.027547 -0.500000
v -0.635664 -0.020663 -0.500000
v -0.635851 -0.013777 -0.500000
v -0.635963 -0.006889 -0.500000
v -0.636000 0.000000 -0.500000
v 0.000000 -0.636000 -0.627289
v -0.014125 -0.635843 -0.627289
v -0.028243 -0.635373 -0.627289
v -0.042347 -0.634589 -0.627289
v -0.056430 -0.633492 -0.627289
v -0.070485 -0.632082 -0.627289
v -0.084505 -0.630361 -0.627289
v -0.098484 -0.628329 -0.627289
v -0.112414 -0.625986 -0.627289
v -0.126289 -0.623335 -0.627289
v -0.140101 -0.620377 -0.627289
v -0.153845 -0.617112 -0.627289
v -0.167512 -0.613544 -0.627289
v -0.181097 -0.609672 -0.627289
v -0.194592 -0.605500 -0.627289
v -0.207992 -0.601029 -0.627289
v -0.221289 -0.596261 -0.627289
v -0.234476 -0.591199 -0.627289
v -0.247548 -0.585846 -0.627289
v -0.260498 -0.580204 -0.627289
v -0.273320 -0.574275 -0.627289
v -0.286006 -0.568064 -0.627289
v -0.298552 -0.561572 -0.627289
v -0.310950 -0.554803 -0.627289
v -0.323195 -0.547760 -0.627289
v -0.335280 -0.540447 -0.627289
v -0.347200 -0.532868 -0.627289
v -0.358949 -0.525025 -0.627289
v -0.370521 -0.516924 -0.627289
v -0.381910 -0.508568 -0.627289
v -0.393110 -0.499960 -0.627289
v -0.404117 -0.491106 -0.627289
v -0.414924 -0.482010 -0.627289
v -0.425527 -0.472676 -0.627289
v -0.435919 -0.463109 -0.627289
v -0.446097 -0.453314 -0.627289
v -0.456054 -0.443295 -0.627289
v -0.465787 -0.433057 -0.627289
v -0.475290 -0.422606 -0.627289
v -0.484558 -0.411946 -0.627289
v -0.487526 -0.408429 -0.627289
v -0.490468 -0.404892 -0.627289
v -0.493384 -0.401333 -0.627289
v -0.496275 -0.397753 -0.627289
v -0.499139 -0.394152 -0.627289
v -0.501978 -0.390531 -0.627289
v -0.504790 -0.386889 -0.627289
v -0.507576 -0.383227 -0.627289
v -0.510335 -0.379545 -0.627289
v -0.513067 -0.375843 -0.627289
v -0.515773 -0.372121 -0.627289
v -0.518452 -0.368380 -0.627289
v -0.521103 -0.364620 -0.627289
v -0.523727 -0.360840 -0.627289
v -0.526324 -0.357042 -0.627289
v -0.528893 -0.353225 -0.627289
v -0.531435 -0.349389 -0.627289
v -0.533949 -0.345536 -0.627289
v -0.536434 -0.341664 -0.627289
v -0.538892 -0.337774 -0.627289
v -0.541322 -0.333866 -0.627289
v -0.543723 -0.329941 -0.627289
v -0.546096 -0.325999 -0.627289
v -0.548440 -0.322040 -0.627289
v -0.550755 -0.318064 -0.627289
v -0.553042 -0.314071 -0.627289
v -0.555300 -0.310062 -0.627289
v -0.557528 -0.306036 -0.627289
v -0.559728 -0.301995 -0.627289
v -0.561898 -0.297938 -0.627289
v -0.564039 -0.293865 -0.627289
v -0.566150 -0.289777 -0.627289
v -0.568231 -0.285673 -0.627289
v -0.570283 -0.281555 -0.627289
v -0.572305 -0.277422 -0.627289
v -0.574297 -0.273274 -0.627289
v -0.576259 -0.269112 -0.627289
v -0.578191 -0.264936 -0.627289
v -0.580093 -0.260746 -0.627289
v -0.582883 -0.254448 -0.627289
v -0.585605 -0.248120 -0.627289
v -0.588258 -0.241762 -0.627289
v -0.590842 -0.235376 -0.627289
v -0.593357 -0.228963 -0.627289
v -0.595802 -0.222523 -0.627289
v -0.598177 -0.216056 -0.627289
v -0.600482 -0.209564 -0.627289
v -0.602717 -0.203048 -0.627289
v -0.604881 -0.196508 -0.627289
v -0.606974 -0.189945 -0.627289
v -0.608995 -0.183359 -0.627289
v -0.610946 -0.176752 -0.627289
v -0.612824 -0.170125 -0.627289
v -0.614631 -0.163477 -0.627289
v -0.616366 -0.156810 -0.627289
v -0.618028 -0.150125 -0.627289
v -0.619618 -0.143422 -0.627289
v -0.621135 -0.136702 -0.627289
v -0.622579 -0.129966 -0.627289
v -0.623950 -0.123216 -0.627289
v -0.625248 -0.116450 -0.627289
v -0.626473 -0.109671 -0.627289
v -0.627624 -0.102879 -0.627289
v -0.628702 -0.096075 -0.627289
v -0.629705 -0.089260 -0.627289
v -0.630635 -0.082434 -0.627289
v -0.631491 -0.075598 -0.627289
v -0.632273 -0.068754 -0.627289
v -0.632980 -0.061902 -0.627289
v -0.633614 -0.055042 -0.627289
v -0.634173 -0.048176 -0.627289
v -0.634657 -0.041304 -0.627289
v -0.635068 -0.034427 -0.627289
v -0.635403 -0.027547 -0.627289
v -0.635664 -0.020663 -0.627289
v -0.635851 -0.013777 -0.627289
v -0.635963 -0.006889 -0.627289
v -0.636000 -0.000000 -0.627289
v 0.000000 -0.636000 -0.754579
v -0.014125 -0.635843 -0.754579
v -0.028243 -0.635373 -0.754579
v -0.042347 -0.634589 -0.754579
v -0.056430 -0.633492 -0.754579
v -0.070485 -0.632082 -0.754579
v -0.084505 -0.630361 -0.754579
v -0.098484 -0.628329 -0.754579
v -0.112414 -0.625986 -0.754579
v -0.126289 -0.623335 -0.754579
v -0.140101 -0.620377 -0.754579
v -0.153845 -0.617112 -0.754579
v -0.167512 -0.613544 -0.754579
v -0.181097 -0.609672 -0.754579
v -0.194592 -0.605500 -0.754579
v -0.207992 -0.601029 -0.754579
v -0.221289 -0.596261 -0.754579
v -0.234476 -0.591199 -0.754579
v -0.247548 -0.585846 -0.754579
v -0.260498 -0.580204 -0.754579
v -0.273320 -0.574275 -0.754579
v -0.286006 -0.568064 -0.754579
v -0.298552 -0.561572 -0.754579
v -0.310950 -0.554803 -0.754579
v -0.323195 -0.547760 -0.754579
v -0.335280 -0.540447 -0.754579
v -0.347200 -0.532868 -0.754579
v -0.358949 -0.525025 -0.754579
v -0.370521 -0.516924 -0.754579
v -0.381910 -0.508568 -0.754579
v -0.393110 -0.499960 -0.754579
v -0.404117 -0.491106 -0.754579
v -0.414924 -0.482010 -0.754579
v -0.425527 -0.472676 -0.754579
v -0.435919 -0.463109 -0.754579
v -0.446097 -0.453314 -0.754579
v -0.456054 -0.443295 -0.754579
v -0.465787 -0.433057 -0.754579
v -0.475290 -0.422606 -0.754579
v -0.484558 -0.411946 -0.754579
v -0.487526 -0.408429 -0.754579
v -0.490468 -0.404892 -0.754579
v -0.493384 -0.401333 -0.754579
v -0.496275 -0.397753 -0.754579
v -0.499139 -0.394152 -0.754579
v -0.501978 -0.390531 -0.754579
v -0.504790 -0.386889 -0.754579
v -0.507576 -0.383227 -0.754579
v -0.510335 -0.379545 -0.754579
v -0.513067 -0.375843 -0.754579
v -0.515773 -0.372121 -0.754579
v -0.518452 -0.368380 -0.754579
v -0.521103 -0.364620 -0.754579
v -0.523727 -0.360840 -0.754579
v -0.526324 -0.357042 -0.754579
v -0.528893 -0.353225 -0.754579
v -0.531435 -0.349389 -0.754579
v -0.533949 -0.345536 -0.754579
v -0.536434 -0.341664 -0.754579
v -0.538892 -0.337774 -0.754579
v -0.541322 -0.333866 -0.754579
v -0.543723 -0.329941 -0.754579
v -0.546096 -0.325999 -0.754579
v -0.548440 -0.322040 -0.754579
v -0.550755 -0.318064 -0.754579
v -0.553042 -0.314071 -0.754579
v -0.555300 -0.310062 -0.754579
v -0.557528 -0.306036 -0.754579
v -0.559728 -0.301995 -0.754579
v -0.561898 -0.297938 -0.754579
v -0.564039 -0.293865 -0.754579
v -0.566150 -0.289777 -0.754579
v -0.568231 -0.285673 -0.754579
v -0.570283 -0.281555 -0.754579
v -0.572305 -0.277422 -0.754579
v -0.574297 -0.273274 -0.754579
v -0.576259 -0.269112 -0.754579
v -0.578191 -0.264936 -0.754579
v -0.580093 -0.260746 -0.754579
v -0.582883 -0.254448 -0.754579
v -0.585605 -0.248120 -0.754579
v -0.588258 -0.241762 -0.754579
v -0.590842 -0.235376 -0.754579
v -0.593357 -0.228963 -0.754579
v -0.595802 -0.222523 -0.754579
v -0.598177 -0.216056 -0.754579
v -0.600482 -0.209564 -0.754579
v -0.602717 -0.203048 -0.754579
v -0.604881 -0.196508 -0.754579
v -0.606974 -0.189945 -0.754579
v -0.608995 -0.183359 -0.754579
v -0.610946 -0.176752 -0.754579
v -0.612824 -0.170125 -0.754579
v -0.614631 -0.163477 -0.754579
v -0.616366 -0.156810 -0.754579
v -0.618028 -0.150125 -0.754579
v -0.619618 -0.143422 -0.754579
v -0.621135 -0.136702 -0.754579
v -0.622579 -0.129966 -0.754579
v -0.623950 -0.123216 -0.754579
v -0.625248 -0.116450 -0.754579
v -0.626473 -0.109671 -0.754579
v -0.627624 -0.102879 -0.754579
v -0.628702 -0.096075 -0.754579
v -0.629705 -0.089260 -0.754579
v -0.630635 -0.082434 -0.754579
v -0.631491 -0.075598 -0.754579
v -0.632273 -0.068754 -0.754579
v -0.632980 -0.061902 -0.754579
v -0.633614 -0.055042 -0.754579
v -0.634173 -0.048176 -0.754579
v -0.634657 -0.041304 -0.754579
v -0.635068 -0.034427 -0.754579
v -0.635403 -0.027547 -0.754579
v -0.635664 -0.020663 -0.754579
v -0.635851 -0.013777 -0.754579
v -0.635963 -0.006889 -0.754579
v -0.636000 -0.000000 -0.754579
f 1 2 120
f 1 120 119
f 2 3 121
f 2 121 120
f 3 4 122
f 3 122 121
f 4 5 123
f 4 123 122
f 5 6 124
f 5 124 123
f 6 7 125
f 6 125 124
f 7 8 126
f 7 126 125
f 8 9 127
f 8 127 126
f 9 10 128
f 9 128 127
f 10 11 129
f 10 129 128
f 11 12 130
f 11 130 129
f 12 13 131
f 12 131 130
f 13 14 132
f 13 132 131
f 14 15 133
f 14 133 132
f 15 16 134
f 15 134 133
f 16 17 135
f 16 135 134
f 17 18 136
f 17 136 135
f 18 19 137
f 18 137 136
f 19 20 138
f 19 138 137
f 20 21 139
f 20 139 138
f 21 22 140
f 21 140 139
f 22 23 141
f 22 141 140
f 23 24 142
f 23 142 141
f 24 25 143
f 24 143 142
f 25 26 144
f 25 144 143
f 26 27 145
f 26 145 144
f 27 28 146
f 27 146 145
f 28 29 147
f 28 147 146
f 29 30 148
f 29 148 147
f 30 31 149
f 30 149 148
f 31 32 150
f 31 150 149
f 32 33 151
f 32 151 150
f 33 34 152
f 33 152 151
f 34 35 153
f 34 153 152
f 35 36 154
f 35 154 153
f 36 37 155
f 36 155 154
f 37 38 156
f 37 156 155
f 38 39 157
f 38 157 156
f 39 40 158
f 39 158 157
f 40 41 159
f 40 159 158
f 41 42 160
f 41 160 159
f 42 43 161
f 42 161 160
f 43 44 162
f 43 162 161
f 44 45 163
f 44 163 162
f 45 46 164
f 45 164 163
f 46 47 165
f 46 165 164
f 47 48 166
f 47 166 165
f 48 49 167
f 48 167 166
f 49 50 168
f 49 168 167
f 50 51 169
f 50 169 168
f 51 52 170
f 51 170 169
f 52 53 171
f 52 171 170
f 53 54 172
f 53 172 171
f 54 55 173
f 54 173 172
f 55 56 174
f 55 174 173
f 56 57 175
f 56 175 174
f 57 58 176
f 57 176 175
f 58 59 177
f 58 177 176
f 59 60 178
f 59 178 177
f 60 61 179
f 60 179 178
f 61 62 180
f 61 180 179
f 62 63 181
f 62 181 180
f 63 64 182
f 63 182 181
f 64 65 183
f 64 183 182
f 65 66 184
f 65 184 183
f 66 67 185
f 66 185 184
f 67 68 186
f 67 186 185
f 68 69 187
f 68 187 186
f 69 70 188
f 69 188 187
f 70 71 189
f 70 189 188
f 71 72 190
f 71 190 189
f 72 73 191
f 72 191 190
f 73 74 192
f 73 192 191
f 74 75 193
f 74 193 192
f 75 76 194
f 75 194 193
f 76 77 195
f 76 195 194
f 77 78 196
f 77 196 195
f 78 79 197
f 78 197 196
f 79 80 198
f 79 198 197
f 80 81 199
f 80 199 198
f 81 82 200
f 81 200 199
f 82 83 201
f 82 201 200
f 83 84 202
f 83 202 201
f 84 85 203
f 84 203 202
f 85 86 204
f 85 204 203
f 86 87 205
f 86 205 204
f 87 88 206
f 87 206 205
f 88 89 207
f 88 207 206
f 89 90 208
f 89 208 207
f 90 91 209
f 90 209 208
f 91 92 210
f 91 210 209
f 92 93 211
f 92 211 210
f 93 94 212
f 93 212 211
f 94 95 213
f 94 213 212
f 95 96 214
f 95 214 213
f 96 97 215
f 96 215 214
f 97 98 216
f 97 216 215
f 98 99 217
f 98 217 216
f 99 100 218
f 99 218 217
f 100 101 219
f 100 219 218
f 101 102 220
f 101 220 219
f 102 103 221
f 102 221 220
f 103 104 222
f 103 222 221
f 104 105 223
f 104 223 222
f 105 106 224
f 105 224 223
f 106 107 225
f 106 225 224
f 107 108 226
f 107 226 225
f 108 109 227
f 108 227 226
f 109 110 228
f 109 228 227
f 110 111 229
f 110 229 228
f 111 112 230
f 111 230 229
f 112 113 231
f 112 231 230
f 113 114 232
f 113 232 231
f 114 115 233
f 114 233 232
f 115 116 234
f 115 234 233
f 116 117 235
f 116 235 234
f 117 118 236
f 117 236 235
f 119 120 238
f 119 238 237
f 120 121 239
f 120 239 238
f 121 122 240
f 121 240 239
f 122 123 241
f 122 241 240
f 123 124 242
f 123 242 241
f 124 125 243
f 124 243 242
f 125 126 244
f 125 244 243
f 126 127 245
f 126 245 244
f 127 128 246
f 127 246 245
f 128 129 247
f 128 247 246
f 129 130 248
f 129 248 247
f 130 131 249
f 130 249 248
f 131 132 250
f 131 250 249
f 132 133 251
f 132 251 250
f 133 134 252
f 133 252 251
f 134 135 253
f 134 253 252
f 135 136 254
f 135 254 253
f 136 137 255
f 136 255 254
f 137 138 256
f 137 256 255
f 138 139 257
f 138 257 256
f 139 140 258
f 139 258 257
f 140 141 259
f 140 259 258
f 141 142 260
f 141 260 259
f 142 143 261
f 142 261 260
f 143 144 262
f 143 262 261
f 144 145 263
f 144 263 262
f 145 146 264
f 145 264 263
f 146 147 265
f 146 265 264
f 147 148 266
f 147 266 265
f 148 149 267
f 148 267 266
f 149 150 268
f 149 268 267
f 150 151 269
f 150 269 268
f 151 152 270
f 151 270 269
f 152 153 271
f 152 271 270
f 153 154 272
f 153 272 271
f 154 155 273
f 154 273 272
f 155 156 274
f 155 274 273
f 156 157 275
f 156 275 274
f 157 158 276
f 157 276 275
f 158 159 277
f 158 277 276
f 159 160 278
f 159 278 277
f 160 161 279
f 160 279 278
f 161 162 280
f 161 280 279
f 162 163 281
f 162 281 280
f 163 164 282
f 163 282 281
f 164 165 283
f 164 283 282
f 165 166 284
f 165 284 283
f 166 167 285
f 166 285 284
f 167 168 286
f 167 286 285
f 168 169 287
f 168 287 286
f 169 170 288
f 169 288 287
f 170 171 289
f 170 289 288
f 171 172 290
f 171 290 289
f 172 173 291
f 172 291 290
f 173 174 292
f 173 292 291
f 174 175 293
f 174 293 292
f 175 176 294
f 175 294 293
f 176 177 295
f 176 295 294
f 177 178 296
f 177 296 295
f 178 179 297
f 178 297 296
f 179 180 298
f 179 298 297
f 180 181 299
f 180 299 298
f 181 182 300
f 181 300 299
f 182 183 301
f 182 301 300
f 183 184 302
f 183 302 301
f 184 185 303
f 184 303 302
f 185 186 304
f 185 304 303
f 186 187 305
f 186 305 304
f 187 188 306
f 187 306 305
f 188 189 307
f 188 307 306
f 189 190 308
f 189 308 307
f 190 191 309
f 190 309 308
f 191 192 310
f 191 310 309
f 192 193 311
f 192 311 310
f 193 194 312
f 193 312 311
f 194 195 313
f 194 313 312
f 195 196 314
f 195 314 313
f 196 197 315
f 196 315 314
f 197 198 316
f 197 316 315
f 198 199 317
f 198 317 316
f 199 200 318
f 199 318 317
f 200 201 319
f 200 319 318
f 201 202 320
f 201 320 319
f 202 203 321
f 202 321 320
f 203 204 322
f 203 322 321
f 204 205 323
f 204 323 322
f 205 206 324
f 205 324 323
f 206 207 325
f 206 325 324
f 207 208 326
f 207 326 325
f 208 209 327
f 208 327 326
f 209 210 328
f 209 328 327
f 210 211 329
f 210 329 328
f 211 212 330
f 211 330 329
f 212 213 331
f 212 331 330
f 213 214 332
f 213 332 331
f 214 215 333
f 214 333 332
f 215 216 334
f 215 334 333
f 216 217 335
f 216 335 334
f 217 218 336
f 217 336 335
f 218 219 337
f 218 337 336
f 219 220 338
f 219 338 337
f 220 221 339
f 220 339 338
f 221 222 340
f 221 340 339
f 222 223 341
f 222 341 340
f 223 224 342
f 223 342 341
f 224 225 343
f 224 343 342
f 225 226 344
f 225 344 343
f 226 227 345
f 226 345 344
f 227 228 346
f 227 346 345
f 228 229 347
f 228 347 346
f 229 230 348
f 229 348 347
f 230 231 349
f 230 349 348
f 231 232 350
f 231 350 349
f 232 233 351
f 232 351 350
f 233 234 352
f 233 352 351
f 234 235 353
f 234 353 352
f 235 236 354
f 235 354 353
