v -1.512181 0.064242 -6.737484
v 0.855364 0.375000 -6.720383
v 0.855728 0.375001 -6.720383
v 0.874637 0.375798 -6.720308
v 0.875000 0.375827 -6.720305
v 0.875000 0.369879 -6.720862
v 0.875000 0.005974 -6.737996
v 0.875000 0.000000 -6.738000
v -1.575000 0.000000 -6.738000
v -1.575000 0.754148 -6.666264
v -1.575002 0.766162 -6.663939
v 0.355000 0.766169 -6.663938
v 0.405000 0.375000 -6.720383
v 0.855000 0.375000 -6.720383
v 0.812179 0.320877 -6.725109
v 0.812179 0.128467 -6.735937
v 0.812179 0.064242 -6.737484
v 0.749359 0.320877 -6.725109
v 0.749359 0.128467 -6.735937
v 0.749359 0.064242 -6.737484
v 0.686538 0.320877 -6.725109
v 0.686538 0.128467 -6.735937
v 0.686538 0.064242 -6.737484
v 0.623718 0.320877 -6.725109
v 0.623718 0.128467 -6.735937
v 0.623718 0.064242 -6.737484
v 0.560897 0.320877 -6.725109
v 0.560897 0.128467 -6.735937
v 0.560897 0.064242 -6.737484
v 0.498077 0.320877 -6.725109
v 0.498077 0.128467 -6.735937
v 0.498077 0.064242 -6.737484
v 0.435256 0.320877 -6.725109
v 0.435256 0.128467 -6.735937
v 0.435256 0.064242 -6.737484
v 0.372436 0.384870 -6.719441
v 0.372436 0.128467 -6.735937
v 0.372436 0.064242 -6.737484
v 0.309615 0.703018 -6.675736
v 0.309615 0.128467 -6.735937
v 0.309615 0.064242 -6.737484
v 0.246794 0.703018 -6.675736
v 0.246794 0.128467 -6.735937
v 0.246794 0.064242 -6.737484
v 0.183974 0.703018 -6.675736
v 0.183974 0.128467 -6.735937
v 0.183974 0.064242 -6.737484
v 0.121153 0.703018 -6.675736
v 0.121153 0.128467 -6.735937
v 0.121153 0.064242 -6.737484
v 0.058333 0.703018 -6.675736
v 0.058333 0.128467 -6.735937
v 0.058333 0.064242 -6.737484
v -0.004488 0.703018 -6.675736
v -0.004488 0.128467 -6.735937
v -0.004488 0.064242 -6.737484
v -0.067308 0.703018 -6.675736
v -0.067308 0.128467 -6.735937
v -0.067308 0.064242 -6.737484
v -0.130129 0.703018 -6.675736
v -0.130129 0.128467 -6.735937
v -0.130129 0.064242 -6.737484
v -0.192949 0.703018 -6.675736
v -0.192949 0.128467 -6.735937
v -0.192949 0.064242 -6.737484
v -0.255770 0.703018 -6.675736
v -0.255770 0.128467 -6.735937
v -0.255770 0.064242 -6.737484
v -0.318591 0.703018 -6.675736
v -0.318591 0.128467 -6.735937
v -0.318591 0.064242 -6.737484
v -0.381411 0.703018 -6.675736
v -0.381411 0.128467 -6.735937
v -0.381411 0.064242 -6.737484
v -0.444232 0.703018 -6.675736
v -0.444232 0.128467 -6.735937
v -0.444232 0.064242 -6.737484
v -0.507052 0.703018 -6.675736
v -0.507052 0.128467 -6.735937
v -0.507052 0.064242 -6.737484
v -0.569873 0.703018 -6.675736
v -0.569873 0.128467 -6.735937
v -0.569873 0.064242 -6.737484
v -0.632693 0.703018 -6.675736
v -0.632693 0.128467 -6.735937
v -0.632693 0.064242 -6.737484
v -0.695514 0.703018 -6.675736
v -0.695514 0.128467 -6.735937
v -0.695514 0.064242 -6.737484
v -0.758334 0.703018 -6.675736
v -0.758334 0.128467 -6.735937
v -0.758334 0.064242 -6.737484
v -0.821155 0.703018 -6.675736
v -0.821155 0.128467 -6.735937
v -0.821155 0.064242 -6.737484
v -0.883976 0.703018 -6.675736
v -0.883976 0.128467 -6.735937
v -0.883976 0.064242 -6.737484
v -0.946796 0.703018 -6.675736
v -0.946796 0.128467 -6.735937
v -0.946796 0.064242 -6.737484
v -1.009617 0.703018 -6.675736
v -1.009617 0.128467 -6.735937
v -1.009617 0.064242 -6.737484
v -1.072437 0.703018 -6.675736
v -1.072437 0.128467 -6.735937
v -1.072437 0.064242 -6.737484
v -1.135258 0.703018 -6.675736
v -1.135258 0.128467 -6.735937
v -1.135258 0.064242 -6.737484
v -1.198078 0.703018 -6.675736
v -1.198078 0.128467 -6.735937
v -1.198078 0.064242 -6.737484
v -1.260899 0.703018 -6.675736
v -1.260899 0.128467 -6.735937
v -1.260899 0.064242 -6.737484
v -1.323719 0.703018 -6.675736
v -1.323719 0.128467 -6.735937
v -1.323719 0.064242 -6.737484
v -1.386540 0.703018 -6.675736
v -1.386540 0.128467 -6.735937
v -1.386540 0.064242 -6.737484
v -1.449361 0.703018 -6.675736
v -1.449361 0.128467 -6.735937
v -1.449361 0.064242 -6.737484
v -1.512181 0.703018 -6.675736
v 0.856092 0.375002 -6.720383
v 0.874274 0.375768 -6.720311
v 0.875000 0.011949 -6.737982
v -1.575000 0.742127 -6.668553
v 0.403604 0.375020 -6.720381
v 0.812179 0.192659 -6.733358
v 0.749359 0.192659 -6.733358
v 0.686538 0.192659 -6.733358
v 0.623718 0.192659 -6.733358
v 0.560897 0.192659 -6.733358
v 0.498077 0.192659 -6.733358
v 0.435256 0.192659 -6.733358
v 0.372436 0.192659 -6.733358
v 0.309615 0.192659 -6.733358
v 0.246794 0.192659 -6.733358
v 0.183974 0.192659 -6.733358
v 0.121153 0.192659 -6.733358
v 0.058333 0.192659 -6.733358
v -0.004488 0.192659 -6.733358
v -0.067308 0.192659 -6.733358
v -0.130129 0.192659 -6.733358
v -0.192949 0.192659 -6.733358
v -0.255770 0.192659 -6.733358
v -0.318591 0.192659 -6.733358
v -0.381411 0.192659 -6.733358
v -0.444232 0.192659 -6.733358
v -0.507052 0.192659 -6.733358
v -0.569873 0.192659 -6.733358
v -0.632693 0.192659 -6.733358
v -0.695514 0.192659 -6.733358
v -0.758334 0.192659 -6.733358
v -0.821155 0.192659 -6.733358
v -0.883976 0.192659 -6.733358
v -0.946796 0.192659 -6.733358
v -1.009617 0.192659 -6.733358
v -1.072437 0.192659 -6.733358
v -1.135258 0.192659 -6.733358
v -1.198078 0.192659 -6.733358
v -1.260899 0.192659 -6.733358
v -1.323719 0.192659 -6.733358
v -1.386540 0.192659 -6.733358
v -1.449361 0.192659 -6.733358
v 0.856456 0.375004 -6.720383
v 0.873911 0.375740 -6.720313
v 0.875000 0.017923 -6.737960
v -1.575000 0.730099 -6.670805
v 0.402208 0.375081 -6.720375
v 0.812179 0.256801 -6.729748
v 0.749359 0.256801 -6.729748
v 0.686538 0.256801 -6.729748
v 0.623718 0.256801 -6.729748
v 0.560897 0.256801 -6.729748
v 0.498077 0.256801 -6.729748
v 0.435256 0.256801 -6.729748
v 0.372436 0.256801 -6.729748
v 0.309615 0.256801 -6.729748
v 0.246794 0.256801 -6.729748
v 0.183974 0.256801 -6.729748
v 0.121153 0.256801 -6.729748
v 0.058333 0.256801 -6.729748
v -0.004488 0.256801 -6.729748
v -0.067308 0.256801 -6.729748
v -0.130129 0.256801 -6.729748
v -0.192949 0.256801 -6.729748
v -0.255770 0.256801 -6.729748
v -0.318591 0.256801 -6.729748
v -0.381411 0.256801 -6.729748
v -0.444232 0.256801 -6.729748
v -0.507052 0.256801 -6.729748
v -0.569873 0.256801 -6.729748
v -0.632693 0.256801 -6.729748
v -0.695514 0.256801 -6.729748
v -0.758334 0.256801 -6.729748
v -0.821155 0.256801 -6.729748
v -0.883976 0.256801 -6.729748
v -0.946796 0.256801 -6.729748
v -1.009617 0.256801 -6.729748
v -1.072437 0.256801 -6.729748
v -1.135258 0.256801 -6.729748
v -1.198078 0.256801 -6.729748
v -1.260899 0.256801 -6.729748
v -1.323719 0.256801 -6.729748
v -1.386540 0.256801 -6.729748
v -1.449361 0.256801 -6.729748
v 0.856820 0.375007 -6.720382
v 0.873548 0.375711 -6.720316
v 0.875000 0.023897 -6.737929
v -1.575000 0.718065 -6.673020
v 0.400814 0.375183 -6.720366
v 0.309615 0.320877 -6.725109
v 0.246794 0.320877 -6.725109
v 0.183974 0.320877 -6.725109
v 0.121153 0.320877 -6.725109
v 0.058333 0.320877 -6.725109
v -0.004488 0.320877 -6.725109
v -0.067308 0.320877 -6.725109
v -0.130129 0.320877 -6.725109
v -0.192949 0.320877 -6.725109
v -0.255770 0.320877 -6.725109
v -0.318591 0.320877 -6.725109
v -0.381411 0.320877 -6.725109
v -0.444232 0.320877 -6.725109
v -0.507052 0.320877 -6.725109
v -0.569873 0.320877 -6.725109
v -0.632693 0.320877 -6.725109
v -0.695514 0.320877 -6.725109
v -0.758334 0.320877 -6.725109
v -0.821155 0.320877 -6.725109
v -0.883976 0.320877 -6.725109
v -0.946796 0.320877 -6.725109
v -1.009617 0.320877 -6.725109
v -1.072437 0.320877 -6.725109
v -1.135258 0.320877 -6.725109
v -1.198078 0.320877 -6.725109
v -1.260899 0.320877 -6.725109
v -1.323719 0.320877 -6.725109
v -1.386540 0.320877 -6.725109
v -1.449361 0.320877 -6.725109
v 0.857184 0.375010 -6.720382
v 0.873185 0.375684 -6.720319
v 0.875000 0.029871 -6.737888
v -1.575000 0.706023 -6.675198
v 0.399421 0.375325 -6.720353
v 0.309615 0.384870 -6.719441
v 0.246794 0.384870 -6.719441
v 0.183974 0.384870 -6.719441
v 0.121153 0.384870 -6.719441
v 0.058333 0.384870 -6.719441
v -0.004488 0.384870 -6.719441
v -0.067308 0.384870 -6.719441
v -0.130129 0.384870 -6.719441
v -0.192949 0.384870 -6.719441
v -0.255770 0.384870 -6.719441
v -0.318591 0.384870 -6.719441
v -0.381411 0.384870 -6.719441
v -0.444232 0.384870 -6.719441
v -0.507052 0.384870 -6.719441
v -0.569873 0.384870 -6.719441
v -0.632693 0.384870 -6.719441
v -0.695514 0.384870 -6.719441
v -0.758334 0.384870 -6.719441
v -0.821155 0.384870 -6.719441
v -0.883976 0.384870 -6.719441
v -0.946796 0.384870 -6.719441
v -1.009617 0.384870 -6.719441
v -1.072437 0.384870 -6.719441
v -1.135258 0.384870 -6.719441
v -1.198078 0.384870 -6.719441
v -1.260899 0.384870 -6.719441
v -1.323719 0.384870 -6.719441
v -1.386540 0.384870 -6.719441
v -1.449361 0.384870 -6.719441
v 0.857548 0.375013 -6.720382
v 0.872822 0.375657 -6.720321
v 0.875000 0.035845 -6.737839
v 0.355000 0.760818 -6.664978
v 0.309615 0.448764 -6.712747
v 0.246794 0.448764 -6.712747
v 0.183974 0.448764 -6.712747
v 0.121153 0.448764 -6.712747
v 0.058333 0.448764 -6.712747
v -0.004488 0.448764 -6.712747
v -0.067308 0.448764 -6.712747
v -0.130129 0.448764 -6.712747
v -0.192949 0.448764 -6.712747
v -0.255770 0.448764 -6.712747
v -0.318591 0.448764 -6.712747
v -0.381411 0.448764 -6.712747
v -0.444232 0.448764 -6.712747
v -0.507052 0.448764 -6.712747
v -0.569873 0.448764 -6.712747
v -0.632693 0.448764 -6.712747
v -0.695514 0.448764 -6.712747
v -0.758334 0.448764 -6.712747
v -0.821155 0.448764 -6.712747
v -0.883976 0.448764 -6.712747
v -0.946796 0.448764 -6.712747
v -1.009617 0.448764 -6.712747
v -1.072437 0.448764 -6.712747
v -1.135258 0.448764 -6.712747
v -1.198078 0.448764 -6.712747
v -1.260899 0.448764 -6.712747
v -1.323719 0.448764 -6.712747
v -1.386540 0.448764 -6.712747
v -1.449361 0.448764 -6.712747
v 0.857912 0.375018 -6.720381
v 0.872459 0.375630 -6.720324
v 0.875000 0.041820 -6.737781
v 0.355000 0.755465 -6.666011
v 0.398032 0.375507 -6.720335
v 0.309615 0.512542 -6.705027
v 0.246794 0.512542 -6.705027
v 0.183974 0.512542 -6.705027
v 0.121153 0.512542 -6.705027
v 0.058333 0.512542 -6.705027
v -0.004488 0.512542 -6.705027
v -0.067308 0.512542 -6.705027
v -0.130129 0.512542 -6.705027
v -0.192949 0.512542 -6.705027
v -0.255770 0.512542 -6.705027
v -0.318591 0.512542 -6.705027
v -0.381411 0.512542 -6.705027
v -0.444232 0.512542 -6.705027
v -0.507052 0.512542 -6.705027
v -0.569873 0.512542 -6.705027
v -0.632693 0.512542 -6.705027
v -0.695514 0.512542 -6.705027
v -0.758334 0.512542 -6.705027
v -0.821155 0.512542 -6.705027
v -0.883976 0.512542 -6.705027
v -0.946796 0.512542 -6.705027
v -1.009617 0.512542 -6.705027
v -1.072437 0.512542 -6.705027
v -1.135258 0.512542 -6.705027
v -1.198078 0.512542 -6.705027
v -1.260899 0.512542 -6.705027
v -1.323719 0.512542 -6.705027
v -1.386540 0.512542 -6.705027
v -1.449361 0.512542 -6.705027
v 0.858276 0.375022 -6.720381
v 0.872096 0.375604 -6.720326
v 0.875000 0.047793 -6.737714
v 0.355000 0.750111 -6.667037
v 0.309615 0.576188 -6.696283
v 0.246794 0.576188 -6.696283
v 0.183974 0.576188 -6.696283
v 0.121153 0.576188 -6.696283
v 0.058333 0.576188 -6.696283
v -0.004488 0.576188 -6.696283
v -0.067308 0.576188 -6.696283
v -0.130129 0.576188 -6.696283
v -0.192949 0.576188 -6.696283
v -0.255770 0.576188 -6.696283
v -0.318591 0.576188 -6.696283
v -0.381411 0.576188 -6.696283
v -0.444232 0.576188 -6.696283
v -0.507052 0.576188 -6.696283
v -0.569873 0.576188 -6.696283
v -0.632693 0.576188 -6.696283
v -0.695514 0.576188 -6.696283
v -0.758334 0.576188 -6.696283
v -0.821155 0.576188 -6.696283
v -0.883976 0.576188 -6.696283
v -0.946796 0.576188 -6.696283
v -1.009617 0.576188 -6.696283
v -1.072437 0.576188 -6.696283
v -1.135258 0.576188 -6.696283
v -1.198078 0.576188 -6.696283
v -1.260899 0.576188 -6.696283
v -1.323719 0.576188 -6.696283
v -1.386540 0.576188 -6.696283
v -1.449361 0.576188 -6.696283
v 0.858640 0.375027 -6.720381
v 0.871732 0.375579 -6.720329
v 0.875000 0.053767 -6.737639
v 0.355000 0.744756 -6.668056
v 0.396648 0.375729 -6.720314
v 0.309615 0.639685 -6.686519
v 0.246794 0.639685 -6.686519
v 0.183974 0.639685 -6.686519
v 0.121153 0.639685 -6.686519
v 0.058333 0.639685 -6.686519
v -0.004488 0.639685 -6.686519
v -0.067308 0.639685 -6.686519
v -0.130129 0.639685 -6.686519
v -0.192949 0.639685 -6.686519
v -0.255770 0.639685 -6.686519
v -0.318591 0.639685 -6.686519
v -0.381411 0.639685 -6.686519
v -0.444232 0.639685 -6.686519
v -0.507052 0.639685 -6.686519
v -0.569873 0.639685 -6.686519
v -0.632693 0.639685 -6.686519
v -0.695514 0.639685 -6.686519
v -0.758334 0.639685 -6.686519
v -0.821155 0.639685 -6.686519
v -0.883976 0.639685 -6.686519
v -0.946796 0.639685 -6.686519
v -1.009617 0.639685 -6.686519
v -1.072437 0.639685 -6.686519
v -1.135258 0.639685 -6.686519
v -1.198078 0.639685 -6.686519
v -1.260899 0.639685 -6.686519
v -1.323719 0.639685 -6.686519
v -1.386540 0.639685 -6.686519
v -1.449361 0.639685 -6.686519
v 0.859004 0.375033 -6.720380
v 0.871369 0.375554 -6.720331
v 0.875000 0.059741 -6.737554
v 0.355000 0.739400 -6.669067
v 0.859368 0.375039 -6.720379
v 0.871006 0.375530 -6.720333
v 0.875000 0.065715 -6.737460
v 0.355000 0.734042 -6.670071
v 0.395268 0.375992 -6.720290
v 0.859732 0.375046 -6.720379
v 0.870643 0.375506 -6.720335
v 0.875000 0.071688 -6.737358
v 0.355000 0.728682 -6.671068
v 0.393896 0.376293 -6.720261
v 0.860096 0.375054 -6.720378
v 0.870279 0.375483 -6.720338
v 0.875000 0.077661 -6.737246
v 0.355000 0.723321 -6.672057
v 0.860460 0.375062 -6.720377
v 0.869916 0.375460 -6.720340
v 0.875000 0.083634 -6.737126
v 0.355000 0.717959 -6.673039
v 0.392532 0.376635 -6.720229
v 0.860824 0.375070 -6.720376
v 0.869552 0.375438 -6.720342
v 0.875000 0.089607 -6.736996
v 0.355000 0.712596 -6.674014
v 0.391176 0.377016 -6.720193
v 0.861187 0.375079 -6.720376
v 0.869189 0.375416 -6.720344
v 0.875000 0.095580 -6.736858
v 0.355000 0.707231 -6.674982
v 0.389831 0.377436 -6.720153
v 0.861551 0.375089 -6.720375
v 0.868825 0.375395 -6.720346
v 0.875000 0.101553 -6.736711
v 0.861915 0.375099 -6.720374
v 0.868462 0.375375 -6.720348
v 0.875000 0.107525 -6.736555
v 0.388496 0.377895 -6.720109
v 0.862279 0.375109 -6.720373
v 0.868098 0.375355 -6.720350
v 0.875000 0.113497 -6.736389
v 0.387174 0.378393 -6.720062
v 0.862643 0.375121 -6.720372
v 0.867735 0.375335 -6.720352
v 0.875000 0.119469 -6.736216
v 0.385866 0.378930 -6.720011
v 0.863007 0.375132 -6.720371
v 0.867371 0.375316 -6.720353
v 0.875000 0.125440 -6.736033
v 0.384571 0.379506 -6.719956
v 0.863371 0.375145 -6.720369
v 0.867008 0.375298 -6.720355
v 0.875000 0.131412 -6.735841
v 0.383293 0.380119 -6.719898
v 0.863734 0.375158 -6.720368
v 0.866644 0.375280 -6.720357
v 0.875000 0.137382 -6.735640
v 0.864098 0.375171 -6.720367
v 0.866281 0.375263 -6.720358
v 0.875000 0.143353 -6.735430
v 0.382030 0.380771 -6.719836
v 0.864462 0.375185 -6.720366
v 0.865917 0.375246 -6.720360
v 0.875000 0.149323 -6.735212
v 0.380786 0.381459 -6.719770
v 0.864826 0.375199 -6.720364
v 0.865553 0.375230 -6.720361
v 0.875000 0.155293 -6.734984
v 0.379559 0.382184 -6.719700
v 0.865189 0.375215 -6.720363
v 0.875000 0.161263 -6.734748
v 0.378352 0.382945 -6.719627
v 0.875000 0.167232 -6.734503
v 0.377165 0.383741 -6.719550
v 0.875000 0.363930 -6.721410
v 0.875000 0.173201 -6.734248
v 0.375999 0.384573 -6.719470
v 0.875000 0.357980 -6.721949
v 0.875000 0.179170 -6.733985
v 0.374855 0.385440 -6.719386
v 0.875000 0.352029 -6.722479
v 0.875000 0.185138 -6.733713
v 0.373734 0.386340 -6.719299
v 0.875000 0.346078 -6.723001
v 0.875000 0.191106 -6.733432
v 0.372638 0.387275 -6.719208
v 0.875000 0.340125 -6.723513
v 0.875000 0.197073 -6.733142
v 0.371567 0.388242 -6.719114
v 0.875000 0.334172 -6.724017
v 0.875000 0.203040 -6.732844
v 0.370521 0.389243 -6.719016
v 0.875000 0.328219 -6.724511
v 0.875000 0.209006 -6.732536
v 0.369503 0.390275 -6.718915
v 0.875000 0.322264 -6.724997
v 0.875000 0.214972 -6.732219
v 0.368512 0.391339 -6.718811
v 0.875000 0.316309 -6.725474
v 0.875000 0.220938 -6.731894
v 0.367550 0.392434 -6.718703
v 0.875000 0.310353 -6.725942
v 0.875000 0.226903 -6.731559
v 0.366617 0.393557 -6.718592
v 0.875000 0.304396 -6.726401
v 0.875000 0.232867 -6.731216
v 0.365715 0.394710 -6.718478
v 0.875000 0.298439 -6.726851
v 0.875000 0.238831 -6.730864
v 0.364844 0.395889 -6.718361
v 0.875000 0.292481 -6.727293
v 0.875000 0.244794 -6.730502
v 0.364005 0.397096 -6.718240
v 0.875000 0.286522 -6.727725
v 0.875000 0.250757 -6.730132
v 0.372436 0.320877 -6.725109
v 0.875000 0.280563 -6.728148
v 0.875000 0.256719 -6.729753
v 0.363198 0.398327 -6.718117
v 0.875000 0.274603 -6.728563
v 0.875000 0.262681 -6.729366
v 0.362425 0.399583 -6.717992
v 0.875000 0.268642 -6.728969
v 0.361687 0.400862 -6.717863
v 0.360984 0.402164 -6.717732
v -1.512181 0.128467 -6.735937
v 0.360316 0.403487 -6.717598
v -1.512181 0.192659 -6.733358
v 0.359686 0.404830 -6.717461
v -1.512181 0.256801 -6.729748
v 0.359093 0.406192 -6.717323
v -1.512181 0.320877 -6.725109
v 0.358539 0.407573 -6.717181
v -1.512181 0.384870 -6.719441
v 0.358024 0.408971 -6.717038
v -1.512181 0.448764 -6.712747
v 0.357548 0.410385 -6.716892
v -1.512181 0.512542 -6.705027
v 0.357111 0.411814 -6.716745
v -1.512181 0.576188 -6.696283
v 0.356715 0.413257 -6.716595
v -1.512181 0.639685 -6.686519
v 0.356358 0.414713 -6.716443
v 0.356043 0.416180 -6.716290
v -1.575000 0.012237 -6.737981
v -1.575000 0.024474 -6.737925
v -1.575000 0.036710 -6.737832
v -1.575000 0.048946 -6.737701
v -1.575000 0.061182 -6.737532
v -1.575000 0.073417 -6.737326
v -1.575000 0.085652 -6.737083
v -1.575000 0.097886 -6.736802
v -1.575000 0.110118 -6.736484
v -1.575000 0.122350 -6.736128
v -1.575000 0.134581 -6.735735
v -1.575000 0.146810 -6.735305
v -1.575000 0.159038 -6.734837
v -1.575000 0.171265 -6.734332
v -1.575000 0.183489 -6.733789
v -1.575000 0.195713 -6.733209
v -1.575000 0.207934 -6.732592
v -1.575000 0.220153 -6.731937
v -1.575000 0.232371 -6.731245
v -1.575000 0.244586 -6.730515
v -1.575000 0.256799 -6.729748
v -1.575000 0.269009 -6.728944
v -1.575000 0.281217 -6.728102
v -1.575000 0.293422 -6.727223
v -1.575000 0.305625 -6.726307
v -1.575000 0.317825 -6.725353
v -1.575000 0.330021 -6.724362
v -1.575000 0.342215 -6.723334
v -1.575000 0.354405 -6.722269
v -1.575000 0.366592 -6.721166
v -1.575000 0.378776 -6.720026
v -1.575000 0.390956 -6.718848
v -1.575000 0.403133 -6.717634
v -1.575000 0.415306 -6.716382
v -1.575000 0.427474 -6.715093
v -1.575000 0.439639 -6.713766
v -1.575000 0.451800 -6.712403
v -1.575000 0.463956 -6.711002
v -1.575000 0.476108 -6.709564
v -1.575000 0.488256 -6.708089
v -1.575000 0.500399 -6.706577
v -1.575000 0.512538 -6.705027
v -1.575000 0.524671 -6.703441
v -1.575000 0.536800 -6.701817
v -1.575000 0.548924 -6.700156
v -1.575000 0.561042 -6.698458
v -1.575000 0.573156 -6.696724
v -1.575000 0.585264 -6.694952
v -1.575000 0.597366 -6.693143
v -1.575000 0.609463 -6.691297
v -1.575000 0.621554 -6.689414
v -1.575000 0.633639 -6.687494
v -1.575000 0.645719 -6.685537
v -1.575000 0.657792 -6.683543
v -1.575000 0.669859 -6.681512
v -1.575000 0.681920 -6.679444
v -1.575000 0.693975 -6.677340
v 0.355768 0.417658 -6.716135
v 0.355535 0.419146 -6.715979
v 0.355343 0.420642 -6.715821
v 0.355194 0.422146 -6.715662
v 0.355086 0.423655 -6.715501
v 0.355022 0.425170 -6.715340
v 0.355000 0.426689 -6.715177
v 0.355000 0.432109 -6.714592
v 0.355000 0.437528 -6.713999
v 0.355000 0.442946 -6.713399
v 0.355000 0.448364 -6.712792
v 0.355000 0.453780 -6.712177
v 0.355000 0.459196 -6.711555
v 0.355000 0.464610 -6.710926
v 0.355000 0.470024 -6.710289
v 0.355000 0.475438 -6.709644
v 0.355000 0.480850 -6.708993
v 0.355000 0.486261 -6.708334
v 0.355000 0.491671 -6.707667
v 0.355000 0.497081 -6.706994
v 0.355000 0.502489 -6.706313
v 0.355000 0.507897 -6.705624
v 0.355000 0.513304 -6.704928
v 0.355000 0.518709 -6.704225
v 0.355000 0.524114 -6.703514
v 0.355000 0.529518 -6.702796
v 0.355000 0.534921 -6.702071
v 0.355000 0.540323 -6.701338
v 0.355000 0.545723 -6.700598
v 0.355000 0.551123 -6.699851
v 0.355000 0.701865 -6.675942
v 0.355000 0.556522 -6.699096
v 0.355000 0.696498 -6.676895
v 0.355000 0.561920 -6.698334
v 0.355000 0.691129 -6.677840
v 0.355000 0.567316 -6.697565
v 0.355000 0.685759 -6.678778
v 0.355000 0.572712 -6.696788
v 0.355000 0.680388 -6.679709
v 0.355000 0.578107 -6.696004
v 0.355000 0.675016 -6.680633
v 0.355000 0.583500 -6.695212
v 0.355000 0.669642 -6.681549
v 0.355000 0.588892 -6.694413
v 0.355000 0.664267 -6.682458
v 0.355000 0.594284 -6.693607
v 0.355000 0.658891 -6.683360
v 0.355000 0.599674 -6.692793
v 0.355000 0.653513 -6.684254
v 0.355000 0.605063 -6.691973
v 0.355000 0.648135 -6.685141
v 0.355000 0.610451 -6.691144
v 0.355000 0.642755 -6.686021
v 0.355000 0.615838 -6.690309
v 0.355000 0.637374 -6.686893
v 0.355000 0.621224 -6.689466
v 0.355000 0.631992 -6.687758
v 0.355000 0.626608 -6.688615
v 0.341025 0.416830 -6.716222
v 0.341025 0.384870 -6.719441
v 0.341025 0.448764 -6.712747
v 0.341025 0.480669 -6.709015
v 0.278205 0.416830 -6.716222
v 0.278205 0.384870 -6.719441
v 0.278205 0.448764 -6.712747
v 0.278205 0.480669 -6.709015
v 0.215384 0.416830 -6.716222
v 0.215384 0.384870 -6.719441
v 0.215384 0.448764 -6.712747
v 0.215384 0.480669 -6.709015
v 0.152564 0.416830 -6.716222
v 0.152564 0.384870 -6.719441
v 0.152564 0.448764 -6.712747
v 0.152564 0.480669 -6.709015
v 0.089743 0.416830 -6.716222
v 0.089743 0.384870 -6.719441
v 0.089743 0.448764 -6.712747
v 0.089743 0.480669 -6.709015
v 0.026923 0.416830 -6.716222
v 0.026923 0.384870 -6.719441
v 0.026923 0.448764 -6.712747
v 0.026923 0.480669 -6.709015
v -0.035898 0.416830 -6.716222
v -0.035898 0.384870 -6.719441
v -0.035898 0.448764 -6.712747
v -0.035898 0.480669 -6.709015
v -0.098719 0.416830 -6.716222
v -0.098719 0.384870 -6.719441
v -0.098719 0.448764 -6.712747
v -0.098719 0.480669 -6.709015
v -0.161539 0.416830 -6.716222
v -0.161539 0.384870 -6.719441
v -0.161539 0.448764 -6.712747
v -0.161539 0.480669 -6.709015
v -0.224360 0.416830 -6.716222
v -0.224360 0.384870 -6.719441
v -0.224360 0.448764 -6.712747
v -0.224360 0.480669 -6.709015
v -0.287180 0.416830 -6.716222
v -0.287180 0.384870 -6.719441
v -0.287180 0.448764 -6.712747
v -0.287180 0.480669 -6.709015
v -0.350001 0.416830 -6.716222
v -0.350001 0.384870 -6.719441
v -0.350001 0.448764 -6.712747
v -0.350001 0.480669 -6.709015
v -0.412821 0.416830 -6.716222
v -0.412821 0.384870 -6.719441
v -0.412821 0.448764 -6.712747
v -0.412821 0.480669 -6.709015
v -0.475642 0.416830 -6.716222
v -0.475642 0.384870 -6.719441
v -0.475642 0.448764 -6.712747
v -0.475642 0.480669 -6.709015
v -0.538462 0.416830 -6.716222
v -0.538462 0.384870 -6.719441
v -0.538462 0.448764 -6.712747
v -0.538462 0.480669 -6.709015
v -0.601283 0.416830 -6.716222
v -0.601283 0.384870 -6.719441
v -0.601283 0.448764 -6.712747
v -0.601283 0.480669 -6.709015
v -0.664104 0.416830 -6.716222
v -0.664104 0.384870 -6.719441
v -0.664104 0.448764 -6.712747
v -0.664104 0.480669 -6.709015
v -0.726924 0.416830 -6.716222
v -0.726924 0.384870 -6.719441
v -0.726924 0.448764 -6.712747
v -0.726924 0.480669 -6.709015
v -0.789745 0.416830 -6.716222
v -0.789745 0.384870 -6.719441
v -0.789745 0.448764 -6.712747
v -0.789745 0.480669 -6.709015
v -0.852565 0.416830 -6.716222
v -0.852565 0.384870 -6.719441
v -0.852565 0.448764 -6.712747
v -0.852565 0.480669 -6.709015
v -0.915386 0.416830 -6.716222
v -0.915386 0.384870 -6.719441
v -0.915386 0.448764 -6.712747
v -0.915386 0.480669 -6.709015
v -0.978206 0.416830 -6.716222
v -0.978206 0.384870 -6.719441
v -0.978206 0.448764 -6.712747
v -0.978206 0.480669 -6.709015
v -1.041027 0.416830 -6.716222
v -1.041027 0.384870 -6.719441
v -1.041027 0.448764 -6.712747
v -1.041027 0.480669 -6.709015
v -1.103847 0.416830 -6.716222
v -1.103847 0.384870 -6.719441
v -1.103847 0.448764 -6.712747
v -1.103847 0.480669 -6.709015
v -1.166668 0.416830 -6.716222
v -1.166668 0.384870 -6.719441
v -1.166668 0.448764 -6.712747
v -1.166668 0.480669 -6.709015
v -1.229489 0.416830 -6.716222
v -1.229489 0.384870 -6.719441
v -1.229489 0.448764 -6.712747
v -1.229489 0.480669 -6.709015
v -1.292309 0.416830 -6.716222
v -1.292309 0.384870 -6.719441
v -1.292309 0.448764 -6.712747
v -1.292309 0.480669 -6.709015
v -1.355130 0.416830 -6.716222
v -1.355130 0.384870 -6.719441
v -1.355130 0.448764 -6.712747
v -1.355130 0.480669 -6.709015
v -1.417950 0.416830 -6.716222
v -1.417950 0.384870 -6.719441
v -1.417950 0.448764 -6.712747
v -1.417950 0.480669 -6.709015
v -1.480771 0.416830 -6.716222
v -1.480771 0.384870 -6.719441
v -1.480771 0.448764 -6.712747
v -1.480771 0.480669 -6.709015
f 1 2 3
f 4 5 6
f 7 8 9
f 10 11 12
f 13 14 15
f 16 17 18
f 19 20 21
f 22 23 24
f 25 26 27
f 28 29 30
f 31 32 33
f 34 35 36
f 38 675 674
f 675 39 674
f 38 674 37
f 41 679 678
f 679 42 678
f 41 678 40
f 44 683 682
f 683 45 682
f 44 682 43
f 47 687 686
f 687 48 686
f 47 686 46
f 50 691 690
f 691 51 690
f 50 690 49
f 53 695 694
f 695 54 694
f 53 694 52
f 56 699 698
f 699 57 698
f 56 698 55
f 59 703 702
f 703 60 702
f 59 702 58
f 62 707 706
f 707 63 706
f 62 706 61
f 65 711 710
f 711 66 710
f 65 710 64
f 68 715 714
f 715 69 714
f 68 714 67
f 71 719 718
f 719 72 718
f 71 718 70
f 74 723 722
f 723 75 722
f 74 722 73
f 77 727 726
f 727 78 726
f 77 726 76
f 80 731 730
f 731 81 730
f 80 730 79
f 83 735 734
f 735 84 734
f 83 734 82
f 86 739 738
f 739 87 738
f 86 738 85
f 89 743 742
f 743 90 742
f 89 742 88
f 92 747 746
f 747 93 746
f 92 746 91
f 95 751 750
f 751 96 750
f 95 750 94
f 98 755 754
f 755 99 754
f 98 754 97
f 101 759 758
f 759 102 758
f 101 758 100
f 104 763 762
f 763 105 762
f 104 762 103
f 107 767 766
f 767 108 766
f 107 766 106
f 110 771 770
f 771 111 770
f 110 770 109
f 113 775 774
f 775 114 774
f 113 774 112
f 116 779 778
f 779 117 778
f 116 778 115
f 119 783 782
f 783 120 782
f 119 782 118
f 122 787 786
f 787 123 786
f 122 786 121
f 125 791 790
f 791 126 790
f 125 790 124
f 1 3 127
f 128 4 6
f 129 7 9
f 130 10 12
f 131 13 15
f 132 16 18
f 133 19 21
f 134 22 24
f 135 25 27
f 136 28 30
f 137 31 33
f 138 34 36
f 37 674 676
f 674 39 676
f 37 676 139
f 40 678 680
f 678 42 680
f 40 680 140
f 43 682 684
f 682 45 684
f 43 684 141
f 46 686 688
f 686 48 688
f 46 688 142
f 49 690 692
f 690 51 692
f 49 692 143
f 52 694 696
f 694 54 696
f 52 696 144
f 55 698 700
f 698 57 700
f 55 700 145
f 58 702 704
f 702 60 704
f 58 704 146
f 61 706 708
f 706 63 708
f 61 708 147
f 64 710 712
f 710 66 712
f 64 712 148
f 67 714 716
f 714 69 716
f 67 716 149
f 70 718 720
f 718 72 720
f 70 720 150
f 73 722 724
f 722 75 724
f 73 724 151
f 76 726 728
f 726 78 728
f 76 728 152
f 79 730 732
f 730 81 732
f 79 732 153
f 82 734 736
f 734 84 736
f 82 736 154
f 85 738 740
f 738 87 740
f 85 740 155
f 88 742 744
f 742 90 744
f 88 744 156
f 91 746 748
f 746 93 748
f 91 748 157
f 94 750 752
f 750 96 752
f 94 752 158
f 97 754 756
f 754 99 756
f 97 756 159
f 100 758 760
f 758 102 760
f 100 760 160
f 103 762 764
f 762 105 764
f 103 764 161
f 106 766 768
f 766 108 768
f 106 768 162
f 109 770 772
f 770 111 772
f 109 772 163
f 112 774 776
f 774 114 776
f 112 776 164
f 115 778 780
f 778 117 780
f 115 780 165
f 118 782 784
f 782 120 784
f 118 784 166
f 121 786 788
f 786 123 788
f 121 788 167
f 124 790 792
f 790 126 792
f 124 792 168
f 1 127 169
f 170 128 6
f 171 129 9
f 172 130 12
f 173 131 15
f 174 132 18
f 175 133 21
f 176 134 24
f 177 135 27
f 178 136 30
f 179 137 33
f 180 138 36
f 139 676 677
f 676 39 677
f 139 677 181
f 140 680 681
f 680 42 681
f 140 681 182
f 141 684 685
f 684 45 685
f 141 685 183
f 142 688 689
f 688 48 689
f 142 689 184
f 143 692 693
f 692 51 693
f 143 693 185
f 144 696 697
f 696 54 697
f 144 697 186
f 145 700 701
f 700 57 701
f 145 701 187
f 146 704 705
f 704 60 705
f 146 705 188
f 147 708 709
f 708 63 709
f 147 709 189
f 148 712 713
f 712 66 713
f 148 713 190
f 149 716 717
f 716 69 717
f 149 717 191
f 150 720 721
f 720 72 721
f 150 721 192
f 151 724 725
f 724 75 725
f 151 725 193
f 152 728 729
f 728 78 729
f 152 729 194
f 153 732 733
f 732 81 733
f 153 733 195
f 154 736 737
f 736 84 737
f 154 737 196
f 155 740 741
f 740 87 741
f 155 741 197
f 156 744 745
f 744 90 745
f 156 745 198
f 157 748 749
f 748 93 749
f 157 749 199
f 158 752 753
f 752 96 753
f 158 753 200
f 159 756 757
f 756 99 757
f 159 757 201
f 160 760 761
f 760 102 761
f 160 761 202
f 161 764 765
f 764 105 765
f 161 765 203
f 162 768 769
f 768 108 769
f 162 769 204
f 163 772 773
f 772 111 773
f 163 773 205
f 164 776 777
f 776 114 777
f 164 777 206
f 165 780 781
f 780 117 781
f 165 781 207
f 166 784 785
f 784 120 785
f 166 785 208
f 167 788 789
f 788 123 789
f 167 789 209
f 168 792 793
f 792 126 793
f 168 793 210
f 1 169 211
f 212 170 6
f 213 171 9
f 214 172 12
f 215 173 15
f 15 174 18
f 18 175 21
f 21 176 24
f 24 177 27
f 27 178 30
f 30 179 33
f 33 180 36
f 182 681 216
f 681 42 216
f 183 685 217
f 685 45 217
f 184 689 218
f 689 48 218
f 185 693 219
f 693 51 219
f 186 697 220
f 697 54 220
f 187 701 221
f 701 57 221
f 188 705 222
f 705 60 222
f 189 709 223
f 709 63 223
f 190 713 224
f 713 66 224
f 191 717 225
f 717 69 225
f 192 721 226
f 721 72 226
f 193 725 227
f 725 75 227
f 194 729 228
f 729 78 228
f 195 733 229
f 733 81 229
f 196 737 230
f 737 84 230
f 197 741 231
f 741 87 231
f 198 745 232
f 745 90 232
f 199 749 233
f 749 93 233
f 200 753 234
f 753 96 234
f 201 757 235
f 757 99 235
f 202 761 236
f 761 102 236
f 203 765 237
f 765 105 237
f 204 769 238
f 769 108 238
f 205 773 239
f 773 111 239
f 206 777 240
f 777 114 240
f 207 781 241
f 781 117 241
f 208 785 242
f 785 120 242
f 209 789 243
f 789 123 243
f 210 793 244
f 793 126 244
f 1 211 245
f 246 212 6
f 247 213 9
f 248 214 12
f 249 215 15
f 30 33 36
f 250 216 42
f 251 217 45
f 252 218 48
f 253 219 51
f 254 220 54
f 255 221 57
f 256 222 60
f 257 223 63
f 258 224 66
f 259 225 69
f 260 226 72
f 261 227 75
f 262 228 78
f 263 229 81
f 264 230 84
f 265 231 87
f 266 232 90
f 267 233 93
f 268 234 96
f 269 235 99
f 270 236 102
f 271 237 105
f 272 238 108
f 273 239 111
f 274 240 114
f 275 241 117
f 276 242 120
f 277 243 123
f 278 244 126
f 1 245 279
f 280 246 6
f 281 247 9
f 248 12 282
f 283 250 42
f 284 251 45
f 285 252 48
f 286 253 51
f 287 254 54
f 288 255 57
f 289 256 60
f 290 257 63
f 291 258 66
f 292 259 69
f 293 260 72
f 294 261 75
f 295 262 78
f 296 263 81
f 297 264 84
f 298 265 87
f 299 266 90
f 300 267 93
f 301 268 96
f 302 269 99
f 303 270 102
f 304 271 105
f 305 272 108
f 306 273 111
f 307 274 114
f 308 275 117
f 309 276 120
f 310 277 123
f 311 278 126
f 1 279 312
f 313 280 6
f 314 281 9
f 248 282 315
f 316 249 18
f 249 15 18
f 317 283 42
f 318 284 45
f 319 285 48
f 320 286 51
f 321 287 54
f 322 288 57
f 323 289 60
f 324 290 63
f 325 291 66
f 326 292 69
f 327 293 72
f 328 294 75
f 329 295 78
f 330 296 81
f 331 297 84
f 332 298 87
f 333 299 90
f 334 300 93
f 335 301 96
f 336 302 99
f 337 303 102
f 338 304 105
f 339 305 108
f 340 306 111
f 341 307 114
f 342 308 117
f 343 309 120
f 344 310 123
f 345 311 126
f 1 312 346
f 347 313 6
f 348 314 9
f 248 315 349
f 316 18 21
f 350 317 42
f 351 318 45
f 352 319 48
f 353 320 51
f 354 321 54
f 355 322 57
f 356 323 60
f 357 324 63
f 358 325 66
f 359 326 69
f 360 327 72
f 361 328 75
f 362 329 78
f 363 330 81
f 364 331 84
f 365 332 87
f 366 333 90
f 367 334 93
f 368 335 96
f 369 336 99
f 370 337 102
f 371 338 105
f 372 339 108
f 373 340 111
f 374 341 114
f 375 342 117
f 376 343 120
f 377 344 123
f 378 345 126
f 1 346 379
f 380 347 6
f 381 348 9
f 248 349 382
f 383 316 21
f 384 350 42
f 385 351 45
f 386 352 48
f 387 353 51
f 388 354 54
f 389 355 57
f 390 356 60
f 391 357 63
f 392 358 66
f 393 359 69
f 394 360 72
f 395 361 75
f 396 362 78
f 397 363 81
f 398 364 84
f 399 365 87
f 400 366 90
f 401 367 93
f 402 368 96
f 403 369 99
f 404 370 102
f 405 371 105
f 406 372 108
f 407 373 111
f 408 374 114
f 409 375 117
f 410 376 120
f 411 377 123
f 412 378 126
f 1 379 413
f 414 380 6
f 415 381 9
f 248 382 416
f 383 21 24
f 39 384 42
f 42 385 45
f 45 386 48
f 48 387 51
f 51 388 54
f 54 389 57
f 57 390 60
f 60 391 63
f 63 392 66
f 66 393 69
f 69 394 72
f 72 395 75
f 75 396 78
f 78 397 81
f 81 398 84
f 84 399 87
f 87 400 90
f 90 401 93
f 93 402 96
f 96 403 99
f 99 404 102
f 102 405 105
f 105 406 108
f 108 407 111
f 111 408 114
f 114 409 117
f 117 410 120
f 120 411 123
f 123 412 126
f 1 413 417
f 418 414 6
f 419 415 9
f 248 416 420
f 421 383 24
f 1 417 422
f 423 418 6
f 424 419 9
f 248 420 425
f 426 421 24
f 1 422 427
f 428 423 6
f 429 424 9
f 248 425 430
f 426 24 27
f 1 427 431
f 432 428 6
f 433 429 9
f 248 430 434
f 435 426 27
f 1 431 436
f 437 432 6
f 438 433 9
f 248 434 439
f 440 435 27
f 1 436 441
f 442 437 6
f 443 438 9
f 248 439 444
f 445 440 27
f 1 441 446
f 447 442 6
f 448 443 9
f 445 27 30
f 1 446 449
f 450 447 6
f 451 448 9
f 452 445 30
f 1 449 453
f 454 450 6
f 455 451 9
f 456 452 30
f 1 453 457
f 458 454 6
f 459 455 9
f 460 456 30
f 1 457 461
f 462 458 6
f 463 459 9
f 464 460 30
f 1 461 465
f 466 462 6
f 467 463 9
f 468 464 30
f 1 465 469
f 470 466 6
f 471 467 9
f 468 30 36
f 1 469 472
f 473 470 6
f 474 471 9
f 475 468 36
f 1 472 476
f 477 473 6
f 478 474 9
f 479 475 36
f 1 476 480
f 481 477 6
f 482 478 9
f 483 479 36
f 1 480 484
f 484 481 6
f 485 482 9
f 486 483 36
f 1 484 6
f 487 485 9
f 488 486 36
f 1 6 489
f 490 487 9
f 491 488 36
f 1 489 492
f 493 490 9
f 494 491 36
f 1 492 495
f 496 493 9
f 497 494 36
f 1 495 498
f 499 496 9
f 500 497 36
f 1 498 501
f 502 499 9
f 503 500 36
f 1 501 504
f 505 502 9
f 506 503 36
f 1 504 507
f 508 505 9
f 509 506 36
f 1 507 510
f 511 508 9
f 512 509 36
f 1 510 513
f 514 511 9
f 515 512 36
f 1 513 516
f 517 514 9
f 518 515 36
f 1 516 519
f 520 517 9
f 521 518 36
f 1 519 522
f 523 520 9
f 524 521 36
f 1 522 525
f 526 523 9
f 527 524 36
f 1 525 528
f 529 526 9
f 527 36 530
f 1 528 531
f 532 529 9
f 533 527 530
f 1 531 534
f 535 532 9
f 536 533 530
f 1 534 537
f 537 535 9
f 538 536 530
f 1 537 9
f 539 538 530
f 540 1 9
f 541 539 530
f 542 540 9
f 543 541 530
f 544 542 9
f 545 543 530
f 546 544 9
f 547 545 530
f 548 546 9
f 549 547 530
f 550 548 9
f 551 549 530
f 552 550 9
f 553 551 530
f 554 552 9
f 555 553 530
f 556 554 9
f 557 555 530
f 126 556 9
f 558 557 530
f 9 559 126
f 559 560 126
f 560 561 126
f 561 562 126
f 562 563 126
f 563 564 126
f 564 565 126
f 565 566 126
f 566 567 126
f 567 568 126
f 568 569 126
f 569 570 126
f 570 571 126
f 571 572 126
f 572 573 126
f 573 574 126
f 574 575 126
f 575 576 126
f 576 577 126
f 577 578 126
f 578 579 126
f 579 580 126
f 580 581 126
f 581 582 126
f 582 583 126
f 583 584 126
f 584 585 126
f 585 586 126
f 586 587 126
f 587 588 126
f 588 589 126
f 589 590 126
f 590 591 126
f 591 592 126
f 592 593 126
f 593 594 126
f 594 595 126
f 595 596 126
f 596 597 126
f 597 598 126
f 598 599 126
f 599 600 126
f 600 601 126
f 601 602 126
f 602 603 126
f 603 604 126
f 604 605 126
f 605 606 126
f 606 607 126
f 607 608 126
f 608 609 126
f 609 610 126
f 610 611 126
f 611 612 126
f 612 613 126
f 613 614 126
f 614 615 126
f 616 558 530
f 126 615 248
f 616 530 181
f 123 126 248
f 617 616 181
f 120 123 248
f 618 617 181
f 117 120 248
f 181 677 618
f 677 39 618
f 114 117 248
f 619 618 39
f 111 114 248
f 620 619 39
f 108 111 248
f 621 620 39
f 105 108 248
f 622 621 39
f 102 105 248
f 623 622 39
f 99 102 248
f 624 623 39
f 96 99 248
f 625 624 39
f 93 96 248
f 626 625 39
f 90 93 248
f 627 626 39
f 87 90 248
f 628 627 39
f 84 87 248
f 629 628 39
f 81 84 248
f 630 629 39
f 78 81 248
f 631 630 39
f 75 78 248
f 632 631 39
f 72 75 248
f 633 632 39
f 69 72 248
f 634 633 39
f 66 69 248
f 635 634 39
f 63 66 248
f 636 635 39
f 60 63 248
f 637 636 39
f 57 60 248
f 638 637 39
f 54 57 248
f 639 638 39
f 51 54 248
f 640 639 39
f 48 51 248
f 641 640 39
f 45 48 248
f 642 641 39
f 42 45 248
f 643 642 39
f 39 42 248
f 644 643 39
f 39 248 444
f 645 644 39
f 39 444 646
f 647 645 39
f 39 646 648
f 649 647 39
f 39 648 650
f 651 649 39
f 39 650 652
f 653 651 39
f 39 652 654
f 655 653 39
f 39 654 656
f 657 655 39
f 39 656 658
f 659 657 39
f 39 658 660
f 661 659 39
f 39 660 662
f 663 661 39
f 39 662 664
f 665 663 39
f 39 664 666
f 667 665 39
f 39 666 668
f 669 667 39
f 39 668 670
f 671 669 39
f 39 670 672
f 673 671 39
f 39 672 673
