v -0.985432 -0.500000 -3.150000
v -0.983868 -0.499956 -3.145227
v -2.540000 -0.500000 -3.150000
v -0.982525 -0.499819 -3.140371
v -2.540000 -0.499679 -3.137338
v -0.981420 -0.499581 -3.135424
v -0.980568 -0.499234 -3.130375
v -0.979985 -0.498770 -3.125214
v -2.540000 -0.498717 -3.124708
v -0.979688 -0.498183 -3.119933
v -0.979689 -0.497466 -3.114536
v -2.540000 -0.497117 -3.112143
v -0.979997 -0.496614 -3.109042
v -0.980621 -0.495625 -3.103469
v -2.540000 -0.494882 -3.099675
v -0.981571 -0.494494 -3.097836
v -0.982854 -0.493218 -3.092163
v -2.540000 -0.492019 -3.087337
v -0.984476 -0.491793 -3.086467
v -0.986430 -0.490220 -3.080760
v -2.540000 -0.488535 -3.075159
v -0.988703 -0.488500 -3.075053
v -0.991284 -0.486635 -3.069358
v -0.994162 -0.484627 -3.063686
v -2.540000 -0.484438 -3.063174
v -0.997324 -0.482476 -3.058048
v -1.000760 -0.480183 -3.052450
v -2.540000 -0.479739 -3.051411
v -1.004456 -0.477749 -3.046895
v -1.008399 -0.475173 -3.041386
v -2.540000 -0.474451 -3.039901
v -1.012578 -0.472456 -3.035924
v -1.016979 -0.469597 -3.030512
v -2.540000 -0.468587 -3.028675
v -1.021592 -0.466595 -3.025152
v -1.026408 -0.463447 -3.019844
v -2.540000 -0.462161 -3.017759
v -1.031421 -0.460150 -3.014584
v -1.036623 -0.456698 -3.009374
v -2.540000 -0.455191 -3.007183
v -1.042008 -0.453089 -3.004210
v -1.047569 -0.449317 -2.999092
v -2.540000 -0.447694 -2.996974
v -1.053301 -0.445377 -2.994019
v -1.059201 -0.441259 -2.988992
v -2.540000 -0.439690 -2.987157
v -1.065268 -0.436954 -2.984013
v -1.071497 -0.432452 -2.979081
v -2.540000 -0.431198 -2.977758
v -1.077887 -0.427746 -2.974198
v -1.084435 -0.422825 -2.969365
v -2.540000 -0.422242 -2.968802
v -1.091133 -0.417682 -2.964587
v -2.540000 -0.412843 -2.960310
v -1.097975 -0.412309 -2.959871
v -1.104954 -0.406700 -2.955222
v -2.540000 -0.403026 -2.952306
v -1.112063 -0.400847 -2.950646
v -1.119295 -0.394741 -2.946150
v -2.540000 -0.392817 -2.944809
v -1.126651 -0.388360 -2.941740
v -2.540000 -0.382241 -2.937839
v -1.134137 -0.381664 -2.937426
v -1.141761 -0.374614 -2.933218
v -2.540000 -0.371325 -2.931413
v -1.149530 -0.367171 -2.929125
v -2.540000 -0.360099 -2.925549
v -1.157450 -0.359296 -2.925157
v -1.165516 -0.350962 -2.921329
v -2.540000 -0.348589 -2.920261
v -1.173668 -0.342202 -2.917681
v -2.540000 -0.336826 -2.915562
v -1.181833 -0.333059 -2.914262
v -2.540000 -0.324841 -2.911465
v -1.189936 -0.323580 -2.911118
v -1.197904 -0.313809 -2.908296
v -2.540000 -0.312663 -2.907981
v -1.205666 -0.303791 -2.905842
v -2.540000 -0.300325 -2.905118
v -1.213183 -0.293541 -2.903791
v -2.540000 -0.287857 -2.902883
v -1.220449 -0.283049 -2.902162
v -2.540000 -0.275292 -2.901283
v -1.227460 -0.272303 -2.900974
v -2.540000 -0.262662 -2.900321
v -1.234213 -0.261291 -2.900247
v -1.240702 -0.250000 -2.900000
v -2.540000 -0.250000 -2.900000
f 1 2 3
f 2 4 3
f 4 5 3
f 4 6 5
f 6 7 5
f 7 8 5
f 8 9 5
f 8 10 9
f 10 11 9
f 11 12 9
f 11 13 12
f 13 14 12
f 14 15 12
f 14 16 15
f 16 17 15
f 17 18 15
f 17 19 18
f 19 20 18
f 20 21 18
f 20 22 21
f 22 23 21
f 23 24 21
f 24 25 21
f 24 26 25
f 26 27 25
f 27 28 25
f 27 29 28
f 29 30 28
f 30 31 28
f 30 32 31
f 32 33 31
f 33 34 31
f 33 35 34
f 35 36 34
f 36 37 34
f 36 38 37
f 38 39 37
f 39 40 37
f 39 41 40
f 41 42 40
f 42 43 40
f 42 44 43
f 44 45 43
f 45 46 43
f 45 47 46
f 47 48 46
f 48 49 46
f 48 50 49
f 50 51 49
f 51 52 49
f 51 53 52
f 53 54 52
f 53 55 54
f 55 56 54
f 56 57 54
f 56 58 57
f 58 59 57
f 59 60 57
f 59 61 60
f 61 62 60
f 61 63 62
f 63 64 62
f 64 65 62
f 64 66 65
f 66 67 65
f 66 68 67
f 68 69 67
f 69 70 67
f 69 71 70
f 71 72 70
f 71 73 72
f 73 74 72
f 73 75 74
f 75 76 74
f 76 77 74
f 76 78 77
f 78 79 77
f 78 80 79
f 80 81 79
f 80 82 81
f 82 83 81
f 82 84 83
f 84 85 83
f 84 86 85
f 86 87 85
f 87 88 85
