v 0.619497 0.268046 -0.825000
v 0.615443 0.277227 -0.825000
v 0.611253 0.286348 -0.825000
v 0.606928 0.295405 -0.825000
v 0.602468 0.304396 -0.825000
v 0.597875 0.313321 -0.825000
v 0.593151 0.322176 -0.825000
v 0.588295 0.330960 -0.825000
v 0.583308 0.339671 -0.825000
v 0.578193 0.348306 -0.825000
v 0.572951 0.356865 -0.825000
v 0.567581 0.365345 -0.825000
v 0.562086 0.373744 -0.825000
v 0.556467 0.382060 -0.825000
v 0.550724 0.390292 -0.825000
v 0.544860 0.398438 -0.825000
v 0.619497 0.268046 -0.036213
v 0.615443 0.277227 -0.036213
v 0.611253 0.286348 -0.036213
v 0.606928 0.295405 -0.036213
v 0.602468 0.304396 -0.036213
v 0.597875 0.313321 -0.036213
v 0.593151 0.322176 -0.036213
v 0.588295 0.330960 -0.036213
v 0.583308 0.339671 -0.036213
v 0.578193 0.348306 -0.036213
v 0.572951 0.356865 -0.036213
v 0.567581 0.365345 -0.036213
v 0.562086 0.373744 -0.036213
v 0.556467 0.382060 -0.036213
v 0.550724 0.390292 -0.036213
v 0.544860 0.398438 -0.036213
f 1 2 18
f 1 18 17
f 2 3 19
f 2 19 18
f 3 4 20
f 3 20 19
f 4 5 21
f 4 21 20
f 5 6 22
f 5 22 21
f 6 7 23
f 6 23 22
f 7 8 24
f 7 24 23
f 8 9 25
f 8 25 24
f 9 10 26
f 9 26 25
f 10 11 27
f 10 27 26
f 11 12 28
f 11 28 27
f 12 13 29
f 12 29 28
f 13 14 30
f 13 30 29
f 14 15 31
f 14 31 30
f 15 16 32
f 15 32 31
