v -3.387500 0.558032 -4.437000
v -3.387184 0.577574 -4.448591
v -3.387500 0.300000 -4.437000
v -3.386410 0.300000 -4.458498
v -3.386227 0.596315 -4.460223
v -3.384621 0.614278 -4.471865
v -3.383150 0.300000 -4.479776
v -3.382353 0.631484 -4.483486
v -3.379415 0.647948 -4.495053
v -3.377755 0.300000 -4.500615
v -3.375807 0.663667 -4.506517
v -3.371529 0.678633 -4.517829
v -3.370279 0.300000 -4.520801
v -3.366580 0.692836 -4.528939
v -3.360971 0.706269 -4.539796
v -3.360799 0.300000 -4.540127
v -3.354733 0.718923 -4.550344
v -3.349412 0.300000 -4.558394
v -3.347899 0.730787 -4.560526
v -3.340505 0.741854 -4.570287
v -3.336236 0.300000 -4.575417
v -3.332580 0.752122 -4.579581
v -3.324146 0.761615 -4.588386
v -3.321405 0.300000 -4.591018
v -3.315220 0.770358 -4.596682
v -3.305823 0.778375 -4.604450
v -3.305073 0.300000 -4.605040
v -3.295989 0.785685 -4.611668
v -3.287405 0.300000 -4.617337
v -3.285779 0.792293 -4.618309
v -3.275257 0.798203 -4.624346
v -3.268584 0.300000 -4.627783
v -3.264485 0.803422 -4.629751
v -3.253486 0.807959 -4.634510
v -3.248802 0.300000 -4.636272
v -3.242221 0.811839 -4.638625
v -3.230648 0.815082 -4.642101
v -3.228264 0.300000 -4.642716
v -3.218727 0.817713 -4.644941
v -3.207178 0.300000 -4.647050
v -3.206477 0.819730 -4.647130
v -3.193993 0.821105 -4.648630
v -3.185763 0.300000 -4.649227
v -3.181373 0.821809 -4.649400
v -3.168714 0.821812 -4.649404
v -3.164237 0.300000 -4.649227
v -3.156113 0.821116 -4.648642
v -3.143658 0.819751 -4.647153
v -3.142822 0.300000 -4.647050
v -3.131443 0.817747 -4.644977
v -3.121736 0.300000 -4.642716
v -3.119553 0.815133 -4.642155
v -3.108004 0.811909 -4.638700
v -3.101198 0.300000 -4.636272
v -3.096754 0.808050 -4.634606
v -3.085760 0.803531 -4.629865
v -3.081416 0.300000 -4.627783
v -3.074981 0.798326 -4.624472
v -3.064442 0.792423 -4.618442
v -3.062595 0.300000 -4.617337
v -3.054211 0.785821 -4.611804
v -3.044927 0.300000 -4.605040
v -3.044355 0.778517 -4.604588
v -3.034940 0.770507 -4.596824
v -3.028595 0.300000 -4.591018
v -3.025999 0.761772 -4.588532
v -3.017551 0.752284 -4.579729
v -3.013764 0.300000 -4.575417
v -3.009611 0.742015 -4.570431
v -3.002199 0.730941 -4.560660
v -3.000588 0.300000 -4.558394
v -2.995345 0.719062 -4.550462
v -2.989201 0.300000 -4.540127
v -2.989086 0.706390 -4.539896
v -2.983459 0.692938 -4.529021
v -2.979721 0.300000 -4.520801
v -2.978497 0.678719 -4.517895
v -2.974210 0.663739 -4.506570
v -2.972245 0.300000 -4.500615
v -2.970596 0.648007 -4.495095
v -2.967654 0.631531 -4.483519
v -2.966850 0.300000 -4.479776
v -2.965383 0.614313 -4.471888
v -2.963774 0.596338 -4.460237
v -2.963590 0.300000 -4.458498
v -2.962817 0.577585 -4.448598
v -2.962500 0.558032 -4.437000
v -2.962500 0.300000 -4.437000
f 1 2 3
f 2 4 3
f 2 5 4
f 5 6 4
f 6 7 4
f 6 8 7
f 8 9 7
f 9 10 7
f 9 11 10
f 11 12 10
f 12 13 10
f 12 14 13
f 14 15 13
f 15 16 13
f 15 17 16
f 17 18 16
f 17 19 18
f 19 20 18
f 20 21 18
f 20 22 21
f 22 23 21
f 23 24 21
f 23 25 24
f 25 26 24
f 26 27 24
f 26 28 27
f 28 29 27
f 28 30 29
f 30 31 29
f 31 32 29
f 31 33 32
f 33 34 32
f 34 35 32
f 34 36 35
f 36 37 35
f 37 38 35
f 37 39 38
f 39 40 38
f 39 41 40
f 41 42 40
f 42 43 40
f 42 44 43
f 44 45 43
f 45 46 43
f 45 47 46
f 47 48 46
f 48 49 46
f 48 50 49
f 50 51 49
f 50 52 51
f 52 53 51
f 53 54 51
f 53 55 54
f 55 56 54
f 56 57 54
f 56 58 57
f 58 59 57
f 59 60 57
f 59 61 60
f 61 62 60
f 61 63 62
f 63 64 62
f 64 65 62
f 64 66 65
f 66 67 65
f 67 68 65
f 67 69 68
f 69 70 68
f 70 71 68
f 70 72 71
f 72 73 71
f 72 74 73
f 74 75 73
f 75 76 73
f 75 77 76
f 77 78 76
f 78 79 76
f 78 80 79
f 80 81 79
f 81 82 79
f 81 83 82
f 83 84 82
f 84 85 82
f 84 86 85
f 86 87 85
f 87 88 85
