v -0.662929 0.002929 0.205276
v -0.662748 0.002752 0.205276
v -0.662562 0.002580 0.205276
v -0.662372 0.002412 0.205276
v -0.662177 0.002250 0.205276
v -0.661979 0.002092 0.205276
v -0.661777 0.001940 0.205276
v -0.661571 0.001792 0.205276
v -0.661361 0.001650 0.205276
v -0.661148 0.001514 0.205276
v -0.660931 0.001382 0.205276
v -0.660711 0.001257 0.205276
v -0.660488 0.001136 0.205276
v -0.660262 0.001022 0.205276
v -0.660033 0.000913 0.205276
v -0.659801 0.000810 0.205276
v -0.659567 0.000713 0.205276
v -0.659331 0.000622 0.205276
v -0.659092 0.000538 0.205276
v -0.658851 0.000459 0.205276
v -0.658609 0.000386 0.205276
v -0.658364 0.000319 0.205276
v -0.658118 0.000259 0.205276
v -0.657871 0.000205 0.205276
v -0.657622 0.000157 0.205276
v -0.657372 0.000115 0.205276
v -0.657121 0.000080 0.205276
v -0.656870 0.000051 0.205276
v -0.656617 0.000029 0.205276
v -0.656364 0.000013 0.205276
v -0.656111 0.000003 0.205276
v -0.655858 -0.000000 0.205276
v -0.652493 -0.000000 0.205276
v -0.642432 -0.000000 0.205276
v -0.625780 -0.000000 0.205276
v -0.602706 0.000000 0.205276
v -0.573447 0.000000 0.205276
v -0.538304 0.000000 0.205276
v -0.497637 0.000000 0.205276
v -0.451864 0.000000 0.205276
v -0.401455 0.000000 0.205276
v -0.346925 0.000000 0.205276
v -0.288836 0.000000 0.205276
v -0.227783 0.000000 0.205276
v -0.164392 0.000000 0.205276
v -0.099315 0.000000 0.205276
v -0.033219 0.000000 0.205276
v 0.033219 0.000000 0.205276
v 0.099315 0.000000 0.205276
v 0.164392 0.000000 0.205276
v 0.227783 0.000000 0.205276
v 0.288836 0.000000 0.205276
v 0.346925 0.000000 0.205276
v 0.401455 0.000000 0.205276
v 0.451864 0.000000 0.205276
v 0.497637 0.000000 0.205276
v 0.538304 0.000000 0.205276
v 0.573447 0.000000 0.205276
v 0.602706 0.000000 0.205276
v 0.625780 -0.000000 0.205276
v 0.642432 -0.000000 0.205276
v 0.652493 -0.000000 0.205276
v 0.655858 -0.000000 0.205276
v 0.656111 0.000003 0.205276
v 0.656364 0.000013 0.205276
v 0.656617 0.000029 0.205276
v 0.656870 0.000051 0.205276
v 0.657121 0.000080 0.205276
v 0.657372 0.000115 0.205276
v 0.657622 0.000157 0.205276
v 0.657871 0.000205 0.205276
v 0.658118 0.000259 0.205276
v 0.658364 0.000319 0.205276
v 0.658609 0.000386 0.205276
v 0.658851 0.000459 0.205276
v 0.659092 0.000538 0.205276
v 0.659331 0.000622 0.205276
v 0.659567 0.000713 0.205276
v 0.659801 0.000810 0.205276
v 0.660033 0.000913 0.205276
v 0.660262 0.001022 0.205276
v 0.660488 0.001136 0.205276
v 0.660711 0.001257 0.205276
v 0.660931 0.001382 0.205276
v 0.661148 0.001514 0.205276
v 0.661361 0.001650 0.205276
v 0.661571 0.001792 0.205276
v 0.661777 0.001940 0.205276
v 0.661979 0.002092 0.205276
v 0.662177 0.002250 0.205276
v 0.662372 0.002412 0.205276
v 0.662562 0.002580 0.205276
v 0.662748 0.002752 0.205276
v 0.662929 0.002929 0.205276
v 0.655858 -0.000000 0.205276
v 0.652493 -0.000000 0.205276
v 0.642432 -0.000000 0.205276
v 0.625780 -0.000000 0.205276
v 0.602706 0.000000 0.205276
v 0.573447 0.000000 0.205276
v 0.538304 0.000000 0.205276
v 0.497637 0.000000 0.205276
v 0.451864 0.000000 0.205276
v 0.401455 0.000000 0.205276
v 0.346925 0.000000 0.205276
v 0.288836 0.000000 0.205276
v 0.227783 0.000000 0.205276
v 0.164392 0.000000 0.205276
v 0.099315 0.000000 0.205276
v 0.033219 0.000000 0.205276
v -0.033219 0.000000 0.205276
v -0.099315 0.000000 0.205276
v -0.164392 0.000000 0.205276
v -0.227783 0.000000 0.205276
v -0.288836 0.000000 0.205276
v -0.346925 0.000000 0.205276
v -0.401455 0.000000 0.205276
v -0.451864 0.000000 0.205276
v -0.497637 0.000000 0.205276
v -0.538304 0.000000 0.205276
v -0.573447 0.000000 0.205276
v -0.602706 0.000000 0.205276
v -0.625780 -0.000000 0.205276
v -0.642432 -0.000000 0.205276
v -0.652493 -0.000000 0.205276
v -0.655858 -0.000000 0.205276
f 126 2 1
f 2 4 3
f 4 6 5
f 6 8 7
f 8 10 9
f 10 12 11
f 12 14 13
f 14 16 15
f 16 18 17
f 18 20 19
f 20 22 21
f 22 24 23
f 24 26 25
f 26 28 27
f 28 30 29
f 64 66 65
f 66 68 67
f 68 70 69
f 70 72 71
f 72 74 73
f 74 76 75
f 76 78 77
f 78 80 79
f 80 82 81
f 82 84 83
f 84 86 85
f 86 88 87
f 88 90 89
f 90 92 91
f 92 94 93
f 126 4 2
f 4 8 6
f 8 12 10
f 12 16 14
f 16 20 18
f 20 24 22
f 24 28 26
f 28 31 30
f 64 68 66
f 68 72 70
f 72 76 74
f 76 80 78
f 80 84 82
f 84 88 86
f 88 92 90
f 92 95 94
f 126 8 4
f 8 16 12
f 16 24 20
f 24 31 28
f 64 72 68
f 72 80 76
f 80 88 84
f 88 95 92
f 126 16 8
f 16 31 24
f 64 80 72
f 80 95 88
f 126 31 16
f 64 95 80
