v -3.387500 0.300000 -4.437000
v -3.386410 0.300000 -4.458498
v -3.383150 0.300000 -4.479776
v -3.377755 0.300000 -4.500615
v -3.370279 0.300000 -4.520801
v -3.360799 0.300000 -4.540127
v -3.349412 0.300000 -4.558394
v -3.336236 0.300000 -4.575417
v -3.321405 0.300000 -4.591018
v -3.305073 0.300000 -4.605040
v -3.287405 0.300000 -4.617337
v -3.268584 0.300000 -4.627783
v -3.248802 0.300000 -4.636272
v -3.228264 0.300000 -4.642716
v -3.207178 0.300000 -4.647050
v -3.185763 0.300000 -4.649227
v -3.164237 0.300000 -4.649227
v -3.142822 0.300000 -4.647050
v -3.121736 0.300000 -4.642716
v -3.101198 0.300000 -4.636272
v -3.081416 0.300000 -4.627783
v -3.062595 0.300000 -4.617337
v -3.044927 0.300000 -4.605040
v -3.028595 0.300000 -4.591018
v -3.013764 0.300000 -4.575417
v -3.000588 0.300000 -4.558394
v -2.989201 0.300000 -4.540127
v -2.979721 0.300000 -4.520801
v -2.972245 0.300000 -4.500615
v -2.966850 0.300000 -4.479776
v -2.963590 0.300000 -4.458498
v -2.962500 0.300000 -4.437000
v -2.962500 0.300000 -4.328194
v -3.387500 0.300000 -4.328194
v -3.070539 0.300000 -4.447623
v -3.072149 0.300000 -4.458136
v -3.074815 0.300000 -4.468433
v -3.078509 0.300000 -4.478407
v -3.083194 0.300000 -4.487957
v -3.088820 0.300000 -4.496983
v -3.095330 0.300000 -4.505394
v -3.102658 0.300000 -4.513103
v -3.110729 0.300000 -4.520031
v -3.119459 0.300000 -4.526108
v -3.128759 0.300000 -4.531269
v -3.138533 0.300000 -4.535464
v -3.148681 0.300000 -4.538648
v -3.159100 0.300000 -4.540789
v -3.169682 0.300000 -4.541865
v -3.180318 0.300000 -4.541865
v -3.190900 0.300000 -4.540789
v -3.201319 0.300000 -4.538648
v -3.211467 0.300000 -4.535464
v -3.221241 0.300000 -4.531269
v -3.230541 0.300000 -4.526108
v -3.239271 0.300000 -4.520031
v -3.247342 0.300000 -4.513103
v -3.254670 0.300000 -4.505394
v -3.261180 0.300000 -4.496983
v -3.266806 0.300000 -4.487957
v -3.271491 0.300000 -4.478407
v -3.275185 0.300000 -4.468433
v -3.277851 0.300000 -4.458136
v -3.279461 0.300000 -4.447623
v -3.280000 0.300000 -4.437000
v -3.279461 0.300000 -4.426377
v -3.277851 0.300000 -4.415864
v -3.275185 0.300000 -4.405567
v -3.271491 0.300000 -4.395593
v -3.266806 0.300000 -4.386043
v -3.261180 0.300000 -4.377017
v -3.254670 0.300000 -4.368606
v -3.247342 0.300000 -4.360897
v -3.239271 0.300000 -4.353969
v -3.230541 0.300000 -4.347892
v -3.221241 0.300000 -4.342731
v -3.211467 0.300000 -4.338536
v -3.201319 0.300000 -4.335352
v -3.190900 0.300000 -4.333211
v -3.180318 0.300000 -4.332135
v -3.169682 0.300000 -4.332135
v -3.159100 0.300000 -4.333211
v -3.148681 0.300000 -4.335352
v -3.138533 0.300000 -4.338536
v -3.128759 0.300000 -4.342731
v -3.119459 0.300000 -4.347892
v -3.110729 0.300000 -4.353969
v -3.102658 0.300000 -4.360897
v -3.095330 0.300000 -4.368606
v -3.088820 0.300000 -4.377017
v -3.083194 0.300000 -4.386043
v -3.078509 0.300000 -4.395593
v -3.074815 0.300000 -4.405567
v -3.072149 0.300000 -4.415864
v -3.070539 0.300000 -4.426377
v -3.070000 0.300000 -4.437000
f 34 1 65
f 64 65 1
f 1 2 3
f 3 4 5
f 5 6 7
f 7 8 9
f 9 10 11
f 11 12 13
f 13 14 15
f 15 16 17
f 17 18 19
f 19 20 21
f 21 22 23
f 23 24 25
f 25 26 27
f 27 28 29
f 29 30 31
f 31 32 33
f 34 65 66
f 63 64 1
f 1 3 5
f 5 7 9
f 9 11 13
f 13 15 17
f 17 19 21
f 21 23 25
f 25 27 29
f 29 31 33
f 34 66 67
f 62 63 1
f 1 5 9
f 9 13 17
f 17 21 25
f 25 29 33
f 34 67 68
f 61 62 1
f 1 9 17
f 17 25 33
f 34 68 69
f 60 61 1
f 34 69 70
f 59 60 1
f 34 70 71
f 58 59 1
f 34 71 72
f 57 58 1
f 34 72 73
f 56 57 1
f 34 73 74
f 55 56 1
f 34 74 75
f 55 1 17
f 34 75 76
f 54 55 17
f 34 76 77
f 53 54 17
f 34 77 78
f 52 53 17
f 34 78 79
f 51 52 17
f 34 79 80
f 50 51 17
f 33 34 80
f 49 50 17
f 33 80 81
f 48 49 17
f 33 81 82
f 47 48 17
f 33 82 83
f 46 47 17
f 33 83 84
f 45 46 17
f 33 84 85
f 44 45 17
f 33 85 86
f 43 44 17
f 33 86 87
f 42 43 17
f 33 87 88
f 41 42 17
f 33 88 89
f 40 41 17
f 33 89 90
f 39 40 17
f 33 90 91
f 39 17 33
f 33 91 92
f 38 39 33
f 33 92 93
f 37 38 33
f 33 93 94
f 36 37 33
f 33 94 95
f 35 36 33
f 33 95 96
f 96 35 33
