v 0.025000 1.525000 0.350000
v 0.025000 1.523974 0.329766
v 0.025000 1.524743 0.339870
v 0.025000 1.522694 0.319714
v 0.025000 1.520906 0.309740
v 0.025000 1.518615 0.299869
v 0.025000 1.515828 0.290127
v 0.025000 1.512550 0.280539
v 0.275000 1.525000 0.600000
v 0.285130 1.524743 0.600000
v 0.295234 1.523974 0.600000
v 0.305286 1.522694 0.600000
v 0.315260 1.520906 0.600000
v 0.325131 1.518615 0.600000
v 0.334873 1.515828 0.600000
v 0.344461 1.512550 0.600000
v 0.037662 1.525000 0.350321
v 0.041180 1.512550 0.280949
v 0.050292 1.525000 0.351283
v 0.057319 1.512550 0.282178
v 0.062857 1.525000 0.352883
v 0.073375 1.512550 0.284223
v 0.075325 1.525000 0.355118
v 0.089307 1.512550 0.287078
v 0.087663 1.525000 0.357981
v 0.105074 1.512550 0.290737
v 0.099841 1.525000 0.361465
v 0.120635 1.512550 0.295190
v 0.111826 1.525000 0.365562
v 0.135951 1.512550 0.300425
v 0.123589 1.525000 0.370261
v 0.150981 1.512550 0.306429
v 0.135099 1.525000 0.375549
v 0.165689 1.512550 0.313186
v 0.146325 1.525000 0.381413
v 0.180035 1.512550 0.320680
v 0.157241 1.525000 0.387839
v 0.193983 1.512550 0.328891
v 0.167817 1.525000 0.394809
v 0.207498 1.512550 0.337798
v 0.178026 1.525000 0.402306
v 0.220544 1.512550 0.347378
v 0.187843 1.525000 0.410310
v 0.233088 1.512550 0.357606
v 0.197242 1.525000 0.418802
v 0.245098 1.512550 0.368457
v 0.206198 1.525000 0.427758
v 0.256543 1.512550 0.379902
v 0.214690 1.525000 0.437157
v 0.267394 1.512550 0.391912
v 0.222694 1.525000 0.446974
v 0.277622 1.512550 0.404456
v 0.230191 1.525000 0.457183
v 0.287202 1.512550 0.417502
v 0.237161 1.525000 0.467759
v 0.296109 1.512550 0.431017
v 0.243587 1.525000 0.478675
v 0.304320 1.512550 0.444965
v 0.249451 1.525000 0.489901
v 0.311814 1.512550 0.459311
v 0.254739 1.525000 0.501411
v 0.318571 1.512550 0.474019
v 0.324575 1.512550 0.489049
v 0.259438 1.525000 0.513174
v 0.263535 1.525000 0.525159
v 0.329810 1.512550 0.504365
v 0.334263 1.512550 0.519926
v 0.267019 1.525000 0.537337
v 0.269882 1.525000 0.549675
v 0.337922 1.512550 0.535693
v 0.272117 1.525000 0.562143
v 0.340777 1.512550 0.551625
v 0.273717 1.525000 0.574708
v 0.342822 1.512550 0.567681
v 0.274679 1.525000 0.587338
v 0.344051 1.512550 0.583820
v 0.025000 1.504561 0.261921
v 0.025000 1.508792 0.271129
v 0.025000 1.499869 0.252940
v 0.025000 1.494729 0.244207
v 0.025000 1.489153 0.235746
v 0.025000 1.483155 0.227579
v 0.025000 1.476752 0.219726
v 0.025000 1.469959 0.212207
v 0.353871 1.508792 0.600000
v 0.363079 1.504561 0.600000
v 0.372060 1.499869 0.600000
v 0.380793 1.494729 0.600000
v 0.389254 1.489153 0.600000
v 0.397421 1.483155 0.600000
v 0.405274 1.476752 0.600000
v 0.412793 1.469959 0.600000
v 0.044641 1.469959 0.212704
v 0.064232 1.469959 0.214196
v 0.083723 1.469959 0.216679
v 0.103062 1.469959 0.220145
v 0.122201 1.469959 0.224586
v 0.141091 1.469959 0.229991
v 0.159683 1.469959 0.236346
v 0.177929 1.469959 0.243634
v 0.195782 1.469959 0.251837
v 0.213197 1.469959 0.260934
v 0.230129 1.469959 0.270901
v 0.246534 1.469959 0.281713
v 0.262371 1.469959 0.293342
v 0.277598 1.469959 0.305759
v 0.292177 1.469959 0.318930
v 0.306070 1.469959 0.332823
v 0.319241 1.469959 0.347402
v 0.331658 1.469959 0.362629
v 0.343287 1.469959 0.378466
v 0.354099 1.469959 0.394871
v 0.364066 1.469959 0.411803
v 0.373163 1.469959 0.429218
v 0.381366 1.469959 0.447071
v 0.388654 1.469959 0.465317
v 0.395009 1.469959 0.483909
v 0.400414 1.469959 0.502799
v 0.404855 1.469959 0.521938
v 0.408321 1.469959 0.541277
v 0.410804 1.469959 0.560768
v 0.412296 1.469959 0.580359
v 0.025000 1.455274 0.198248
v 0.025000 1.462793 0.205041
v 0.025000 1.447421 0.191845
v 0.025000 1.439254 0.185847
v 0.025000 1.430793 0.180271
v 0.025000 1.422060 0.175131
v 0.025000 1.413079 0.170439
v 0.025000 1.403871 0.166208
v 0.419959 1.462793 0.600000
v 0.426752 1.455274 0.600000
v 0.433155 1.447421 0.600000
v 0.439153 1.439254 0.600000
v 0.444729 1.430793 0.600000
v 0.449869 1.422060 0.600000
v 0.454561 1.413079 0.600000
v 0.458792 1.403871 0.600000
v 0.046971 1.403871 0.166765
v 0.068886 1.403871 0.168434
v 0.090688 1.403871 0.171211
v 0.112322 1.403871 0.175088
v 0.133731 1.403871 0.180056
v 0.154861 1.403871 0.186102
v 0.175658 1.403871 0.193211
v 0.196068 1.403871 0.201364
v 0.216039 1.403871 0.210540
v 0.235520 1.403871 0.220716
v 0.254460 1.403871 0.231865
v 0.272811 1.403871 0.243960
v 0.290526 1.403871 0.256968
v 0.307560 1.403871 0.270857
v 0.323868 1.403871 0.285591
v 0.339409 1.403871 0.301132
v 0.354143 1.403871 0.317440
v 0.368032 1.403871 0.334474
v 0.381040 1.403871 0.352189
v 0.393135 1.403871 0.370540
v 0.404284 1.403871 0.389480
v 0.414460 1.403871 0.408961
v 0.423636 1.403871 0.428932
v 0.431789 1.403871 0.449342
v 0.438898 1.403871 0.470139
v 0.444944 1.403871 0.491269
v 0.449912 1.403871 0.512678
v 0.453789 1.403871 0.534312
v 0.456566 1.403871 0.556114
v 0.458235 1.403871 0.578029
v 0.025000 1.384873 0.159172
v 0.025000 1.394461 0.162450
v 0.025000 1.375131 0.156385
v 0.025000 1.365260 0.154094
v 0.025000 1.355286 0.152306
v 0.025000 1.345234 0.151026
v 0.025000 1.335130 0.150257
v 0.025000 1.325000 0.150000
v 0.462550 1.394461 0.600000
v 0.465828 1.384873 0.600000
v 0.468615 1.375131 0.600000
v 0.470906 1.365260 0.600000
v 0.472694 1.355286 0.600000
v 0.473974 1.345234 0.600000
v 0.474743 1.335130 0.600000
v 0.475000 1.325000 0.600000
v 0.047792 1.325000 0.150578
v 0.070526 1.325000 0.152309
v 0.093142 1.325000 0.155189
v 0.115584 1.325000 0.159212
v 0.137794 1.325000 0.164365
v 0.159713 1.325000 0.170637
v 0.181287 1.325000 0.178012
v 0.202460 1.325000 0.186469
v 0.223177 1.325000 0.195988
v 0.243386 1.325000 0.206544
v 0.263034 1.325000 0.218110
v 0.282071 1.325000 0.230656
v 0.300448 1.325000 0.244151
v 0.318118 1.325000 0.258559
v 0.335035 1.325000 0.273843
v 0.351157 1.325000 0.289965
v 0.366441 1.325000 0.306882
v 0.380849 1.325000 0.324552
v 0.394344 1.325000 0.342929
v 0.406890 1.325000 0.361966
v 0.418456 1.325000 0.381614
v 0.429012 1.325000 0.401823
v 0.438531 1.325000 0.422540
v 0.446988 1.325000 0.443713
v 0.454363 1.325000 0.465287
v 0.460635 1.325000 0.487206
v 0.465788 1.325000 0.509416
v 0.469811 1.325000 0.531858
v 0.472691 1.325000 0.554474
v 0.474422 1.325000 0.577208
f 1 3 2
f 1 2 4
f 1 4 5
f 1 5 6
f 1 6 7
f 1 7 8
f 9 11 10
f 9 12 11
f 9 13 12
f 9 14 13
f 9 15 14
f 9 16 15
f 1 8 17
f 17 8 18
f 17 18 19
f 19 18 20
f 19 20 21
f 21 20 22
f 21 22 23
f 23 22 24
f 23 24 25
f 25 24 26
f 25 26 27
f 27 26 28
f 27 28 29
f 29 28 30
f 29 30 31
f 31 30 32
f 31 32 33
f 33 32 34
f 33 34 35
f 35 34 36
f 35 36 37
f 37 36 38
f 37 38 39
f 39 38 40
f 39 40 41
f 41 40 42
f 41 42 43
f 43 42 44
f 43 44 45
f 45 44 46
f 45 46 47
f 47 46 48
f 47 48 49
f 49 48 50
f 49 50 51
f 51 50 52
f 51 52 53
f 53 52 54
f 53 54 55
f 55 54 56
f 55 56 57
f 57 56 58
f 57 58 59
f 59 58 60
f 59 60 61
f 61 60 62
f 61 62 63
f 61 63 64
f 64 63 65
f 65 63 66
f 65 66 67
f 65 67 68
f 68 67 69
f 69 67 70
f 69 70 71
f 71 70 72
f 71 72 73
f 73 72 74
f 73 74 75
f 75 74 76
f 75 76 9
f 9 76 16
f 8 78 77
f 8 77 79
f 8 79 80
f 8 80 81
f 8 81 82
f 8 82 83
f 8 83 84
f 16 86 85
f 16 87 86
f 16 88 87
f 16 89 88
f 16 90 89
f 16 91 90
f 16 92 91
f 8 84 18
f 18 84 93
f 18 93 20
f 20 93 94
f 20 94 22
f 22 94 95
f 22 95 24
f 24 95 96
f 24 96 26
f 26 96 97
f 26 97 28
f 28 97 98
f 28 98 30
f 30 98 99
f 30 99 32
f 32 99 100
f 32 100 34
f 34 100 101
f 34 101 36
f 36 101 102
f 36 102 38
f 38 102 103
f 38 103 40
f 40 103 104
f 40 104 42
f 42 104 105
f 42 105 44
f 44 105 106
f 44 106 46
f 46 106 107
f 46 107 48
f 48 107 108
f 48 108 50
f 50 108 109
f 50 109 52
f 52 109 110
f 52 110 54
f 54 110 111
f 54 111 56
f 56 111 112
f 56 112 58
f 58 112 113
f 58 113 60
f 60 113 114
f 60 114 62
f 62 114 115
f 62 115 63
f 63 115 116
f 63 116 66
f 66 116 117
f 66 117 67
f 67 117 118
f 67 118 70
f 70 118 119
f 70 119 72
f 72 119 120
f 72 120 74
f 74 120 121
f 74 121 76
f 76 121 122
f 76 122 16
f 16 122 92
f 84 124 123
f 84 123 125
f 84 125 126
f 84 126 127
f 84 127 128
f 84 128 129
f 84 129 130
f 92 132 131
f 92 133 132
f 92 134 133
f 92 135 134
f 92 136 135
f 92 137 136
f 92 138 137
f 84 130 93
f 93 130 139
f 93 139 94
f 94 139 140
f 94 140 95
f 95 140 141
f 95 141 96
f 96 141 142
f 96 142 97
f 97 142 143
f 97 143 98
f 98 143 144
f 98 144 99
f 99 144 145
f 99 145 100
f 100 145 146
f 100 146 101
f 101 146 147
f 101 147 102
f 102 147 148
f 102 148 103
f 103 148 149
f 103 149 104
f 104 149 150
f 104 150 105
f 105 150 151
f 105 151 106
f 106 151 152
f 106 152 107
f 107 152 153
f 107 153 108
f 108 153 154
f 108 154 109
f 109 154 155
f 109 155 110
f 110 155 156
f 110 156 111
f 111 156 157
f 111 157 112
f 112 157 158
f 112 158 113
f 113 158 159
f 113 159 114
f 114 159 160
f 114 160 115
f 115 160 161
f 115 161 116
f 116 161 162
f 116 162 117
f 117 162 163
f 117 163 118
f 118 163 164
f 118 164 119
f 119 164 165
f 119 165 120
f 120 165 166
f 120 166 121
f 121 166 167
f 121 167 122
f 122 167 168
f 122 168 92
f 92 168 138
f 130 170 169
f 130 169 171
f 130 171 172
f 130 172 173
f 130 173 174
f 130 174 175
f 130 175 176
f 138 178 177
f 138 179 178
f 138 180 179
f 138 181 180
f 138 182 181
f 138 183 182
f 138 184 183
f 130 176 139
f 139 176 185
f 139 185 140
f 140 185 186
f 140 186 141
f 141 186 187
f 141 187 142
f 142 187 188
f 142 188 143
f 143 188 189
f 143 189 144
f 144 189 190
f 144 190 145
f 145 190 191
f 145 191 146
f 146 191 192
f 146 192 147
f 147 192 193
f 147 193 148
f 148 193 194
f 148 194 149
f 149 194 195
f 149 195 150
f 150 195 196
f 150 196 151
f 151 196 197
f 151 197 152
f 152 197 198
f 152 198 153
f 153 198 199
f 153 199 154
f 154 199 200
f 154 200 155
f 155 200 201
f 155 201 156
f 156 201 202
f 156 202 157
f 157 202 203
f 157 203 158
f 158 203 204
f 158 204 159
f 159 204 205
f 159 205 160
f 160 205 206
f 160 206 161
f 161 206 207
f 161 207 162
f 162 207 208
f 162 208 163
f 163 208 209
f 163 209 164
f 164 209 210
f 164 210 165
f 165 210 211
f 165 211 166
f 166 211 212
f 166 212 167
f 167 212 213
f 167 213 168
f 168 213 214
f 168 214 138
f 138 214 184
