v -0.549956 -1.324203 0.185403
v -0.547707 -1.325000 0.184461
v -0.553148 -1.325000 0.186765
v -0.546759 -1.323419 0.184069
v -0.543557 -1.322647 0.182761
v -0.542236 -1.325000 0.182230
v -0.540350 -1.321887 0.181480
v -0.537139 -1.321141 0.180226
v -0.536737 -1.325000 0.180070
v -0.533924 -1.320407 0.178999
v -0.531209 -1.325000 0.177983
v -0.530705 -1.319686 0.177798
v -0.527482 -1.318978 0.176623
v -0.525655 -1.325000 0.175968
v -0.524256 -1.318283 0.175475
v -0.521026 -1.317602 0.174354
v -0.520074 -1.325000 0.174026
v -0.517794 -1.316935 0.173258
v -0.514559 -1.316281 0.172189
v -0.514469 -1.325000 0.172158
v -0.511321 -1.315640 0.171147
v -0.508840 -1.325000 0.170364
v -0.508081 -1.315014 0.170130
v -0.504839 -1.314402 0.169139
v -0.503187 -1.325000 0.168644
v -0.501595 -1.313804 0.168175
v -0.498350 -1.313220 0.167236
v -0.497512 -1.325000 0.166998
v -0.495104 -1.312651 0.166324
v -0.491856 -1.312096 0.165437
v -0.491817 -1.325000 0.165427
v -0.488607 -1.311556 0.164576
v -0.486101 -1.325000 0.163931
v -0.485358 -1.311031 0.163741
v -0.482108 -1.310521 0.162931
v -0.480366 -1.325000 0.162509
v -0.478857 -1.310025 0.162147
v -0.475605 -1.309544 0.161388
v -0.474613 -1.325000 0.161164
v -0.472353 -1.309078 0.160654
v -0.469100 -1.308627 0.159946
v -0.468842 -1.325000 0.159894
v -0.465847 -1.308191 0.159263
v -0.463056 -1.325000 0.158699
v -0.462594 -1.307770 0.158605
v -0.459340 -1.307364 0.157972
v -0.457254 -1.325000 0.157581
v -0.456086 -1.306974 0.157363
v -0.452831 -1.306598 0.156780
v -0.451438 -1.325000 0.156540
v -0.449577 -1.306237 0.156221
v -0.446322 -1.305892 0.155686
v -0.445609 -1.325000 0.155574
v -0.443068 -1.305562 0.155177
v -0.439813 -1.305247 0.154691
v -0.439768 -1.325000 0.154685
v -0.436559 -1.304948 0.154230
v -0.433915 -1.325000 0.153873
v -0.433305 -1.304664 0.153793
v -0.430051 -1.304396 0.153381
v -0.428053 -1.325000 0.153138
v -0.426798 -1.304143 0.152992
v -0.423546 -1.303905 0.152627
v -0.422181 -1.325000 0.152480
v -0.420294 -1.303683 0.152287
v -0.417044 -1.303476 0.151970
v -0.416301 -1.325000 0.151899
v -0.413795 -1.303284 0.151677
v -0.410548 -1.303108 0.151408
v -0.410414 -1.325000 0.151396
v -0.407303 -1.302947 0.151163
v -0.404521 -1.325000 0.150969
v -0.404060 -1.302802 0.150941
v -0.400819 -1.302672 0.150743
v -0.398623 -1.325000 0.150620
v -0.397580 -1.302557 0.150568
v -0.394345 -1.302457 0.150417
v -0.392721 -1.325000 0.150349
v -0.391112 -1.302373 0.150289
v -0.387882 -1.302304 0.150185
v -0.386816 -1.325000 0.150155
v -0.384656 -1.302251 0.150104
v -0.381434 -1.302213 0.150046
v -0.380908 -1.325000 0.150039
v -0.378215 -1.302190 0.150012
v -0.375000 -1.302182 0.150000
v -0.375000 -1.325000 0.150000
f 1 3 2
f 1 2 4
f 4 2 5
f 5 2 6
f 5 6 7
f 7 6 8
f 8 6 9
f 8 9 10
f 10 9 11
f 10 11 12
f 12 11 13
f 13 11 14
f 13 14 15
f 15 14 16
f 16 14 17
f 16 17 18
f 18 17 19
f 19 17 20
f 19 20 21
f 21 20 22
f 21 22 23
f 23 22 24
f 24 22 25
f 24 25 26
f 26 25 27
f 27 25 28
f 27 28 29
f 29 28 30
f 30 28 31
f 30 31 32
f 32 31 33
f 32 33 34
f 34 33 35
f 35 33 36
f 35 36 37
f 37 36 38
f 38 36 39
f 38 39 40
f 40 39 41
f 41 39 42
f 41 42 43
f 43 42 44
f 43 44 45
f 45 44 46
f 46 44 47
f 46 47 48
f 48 47 49
f 49 47 50
f 49 50 51
f 51 50 52
f 52 50 53
f 52 53 54
f 54 53 55
f 55 53 56
f 55 56 57
f 57 56 58
f 57 58 59
f 59 58 60
f 60 58 61
f 60 61 62
f 62 61 63
f 63 61 64
f 63 64 65
f 65 64 66
f 66 64 67
f 66 67 68
f 68 67 69
f 69 67 70
f 69 70 71
f 71 70 72
f 71 72 73
f 73 72 74
f 74 72 75
f 74 75 76
f 76 75 77
f 77 75 78
f 77 78 79
f 79 78 80
f 80 78 81
f 80 81 82
f 82 81 83
f 83 81 84
f 83 84 85
f 85 84 86
f 86 84 87
