v -0.981382 -0.460558 -6.402668
v -0.977901 -0.469190 -6.408315
v -0.970000 -0.485974 -6.412921
v -0.970000 -0.439137 -6.357102
v -0.970000 -0.439547 -6.354318
v -0.972532 -0.439610 -6.354329
v -0.975058 -0.439800 -6.354362
v -0.977571 -0.440115 -6.354418
v -0.980065 -0.440555 -6.354495
v -0.982533 -0.441119 -6.354595
v -0.984968 -0.441805 -6.354716
v -0.987365 -0.442612 -6.354858
v -0.989718 -0.443538 -6.355021
v -0.992020 -0.444579 -6.355205
v -0.994265 -0.445734 -6.355409
v -0.996448 -0.447000 -6.355632
v -0.998563 -0.448373 -6.355874
v -1.000605 -0.449850 -6.356134
v -1.002569 -0.451426 -6.356412
v -1.004448 -0.453099 -6.356707
v -1.006240 -0.454863 -6.357018
v -1.007938 -0.456714 -6.357345
v -1.009539 -0.458647 -6.357685
v -1.011038 -0.460658 -6.358040
v -1.012432 -0.462741 -6.358407
v -1.013717 -0.464891 -6.358786
v -1.014890 -0.467102 -6.359176
v -1.015948 -0.469369 -6.359576
v -1.016888 -0.471686 -6.359985
v -1.017707 -0.474047 -6.360401
v -1.018404 -0.476445 -6.360824
v -1.018976 -0.478876 -6.361252
v -1.019423 -0.481331 -6.361685
v -1.019743 -0.483806 -6.362122
v -1.019936 -0.486294 -6.362560
v -1.020000 -0.488788 -6.363000
v -0.975058 -0.488788 -6.412743
v -0.972532 -0.488788 -6.412936
v -0.970000 -0.488788 -6.413000
v -0.974047 -0.478751 -6.411815
v -0.973068 -0.467881 -6.408315
v -0.974420 -0.458672 -6.402668
v -0.977013 -0.441003 -6.375941
v -0.977254 -0.439365 -6.365181
v -0.988679 -0.442459 -6.365181
v -0.988059 -0.443995 -6.375941
v -0.999055 -0.448154 -6.365181
v -1.007799 -0.456131 -6.365181
v -1.014422 -0.465941 -6.365181
v -1.018550 -0.477035 -6.365181
v -1.016940 -0.477424 -6.375941
v -1.013105 -0.478353 -6.386087
v -1.012949 -0.466699 -6.375941
v -0.984322 -0.453264 -6.395139
v -0.995796 -0.452711 -6.386087
v -1.003560 -0.459793 -6.386087
v -1.009440 -0.468504 -6.386087
v -1.007227 -0.479776 -6.395139
v -1.004061 -0.471270 -6.395139
v -0.999584 -0.481626 -6.402668
v -0.990538 -0.483816 -6.408315
v -0.980518 -0.486241 -6.411815
v -0.979624 -0.483838 -6.411815
v -0.978189 -0.481713 -6.411815
v -0.976295 -0.479985 -6.411815
v -0.985990 -0.474973 -6.408315
v -0.998984 -0.463747 -6.395139
v -0.993033 -0.468889 -6.402668
v -0.992278 -0.457631 -6.395139
v -0.987704 -0.464028 -6.402668
v -0.982291 -0.471599 -6.408315
v -0.970000 -0.483169 -6.412683
v -0.970000 -0.438883 -6.359905
v -1.019936 -0.488788 -6.365532
v -0.975562 -0.450891 -6.395139
v -0.976440 -0.444907 -6.386087
v -0.988791 -0.479123 -6.408315
v -0.970000 -0.480383 -6.412288
v -0.970000 -0.438788 -6.362718
v -0.971571 -0.478080 -6.411815
v -1.006546 -0.457214 -6.375941
v -0.970000 -0.477622 -6.411737
v -0.970000 -0.438852 -6.365532
v -0.998091 -0.449501 -6.375941
v -0.997068 -0.474866 -6.402668
v -0.970000 -0.474898 -6.411032
v -0.970000 -0.439073 -6.368338
v -0.970000 -0.472217 -6.410174
v -0.970000 -0.439453 -6.371127
v -1.019743 -0.488788 -6.368058
v -1.019423 -0.488788 -6.370571
v -1.018976 -0.488788 -6.373065
v -1.018404 -0.488788 -6.375533
v -1.017707 -0.488788 -6.377968
v -1.016888 -0.488788 -6.380365
v -1.015948 -0.488788 -6.382718
v -1.014890 -0.488788 -6.385020
v -1.013717 -0.488788 -6.387265
v -1.012432 -0.488788 -6.389448
v -1.011038 -0.488788 -6.391563
v -1.009539 -0.488788 -6.393605
v -1.007938 -0.488788 -6.395569
v -1.006240 -0.488788 -6.397448
v -1.004448 -0.488788 -6.399240
v -1.002569 -0.488788 -6.400938
v -1.000605 -0.488788 -6.402539
v -0.998563 -0.488788 -6.404038
v -0.996448 -0.488788 -6.405432
v -0.994265 -0.488788 -6.406717
v -0.992020 -0.488788 -6.407890
v -0.989718 -0.488788 -6.408948
v -0.987365 -0.488788 -6.409888
v -0.984968 -0.488788 -6.410707
v -0.982533 -0.488788 -6.411404
v -0.980065 -0.488788 -6.411976
v -0.977571 -0.488788 -6.412423
v -0.970000 -0.440678 -6.376619
v -0.970000 -0.439988 -6.373891
v -0.986584 -0.447654 -6.386087
v -0.970000 -0.469588 -6.409167
v -0.970000 -0.441521 -6.379305
v -0.970000 -0.467021 -6.408013
v -0.970000 -0.443652 -6.384513
v -0.970000 -0.442513 -6.381939
v -0.970000 -0.446355 -6.389448
v -0.970000 -0.444934 -6.387019
v -0.970000 -0.464523 -6.406717
v -0.970000 -0.447911 -6.391794
v -0.970000 -0.462101 -6.405283
v -0.970000 -0.449596 -6.394049
v -0.970000 -0.451405 -6.396205
v -0.970000 -0.459764 -6.403714
v -0.970000 -0.453333 -6.398256
v -0.970000 -0.457519 -6.402016
v -0.970000 -0.455373 -6.400195
v -0.977957 -0.459408 -6.402668
f 1 2 3
f 4 5 6
f 6 7 8
f 8 9 10
f 10 11 12
f 12 13 14
f 14 15 16
f 16 17 18
f 18 19 20
f 20 21 22
f 22 23 24
f 24 25 26
f 26 27 28
f 28 29 30
f 30 31 32
f 32 33 34
f 34 35 36
f 37 38 39
f 40 41 42
f 43 44 45
f 46 47 48
f 49 50 51
f 51 52 53
f 54 55 56
f 56 57 58
f 59 60 61
f 61 62 63
f 64 65 66
f 67 68 69
f 70 71 1
f 1 3 72
f 73 4 6
f 6 8 10
f 10 12 14
f 14 16 18
f 18 20 22
f 22 24 26
f 26 28 30
f 30 32 34
f 34 36 74
f 40 42 75
f 76 43 45
f 46 48 49
f 49 51 53
f 56 58 59
f 61 63 64
f 64 66 77
f 69 70 1
f 1 72 78
f 79 73 6
f 6 10 14
f 14 18 22
f 22 26 30
f 30 34 74
f 37 39 80
f 76 136 75
f 136 40 75
f 76 45 46
f 49 53 81
f 56 59 61
f 61 64 77
f 1 78 82
f 83 79 6
f 6 14 22
f 22 30 74
f 37 80 40
f 49 81 84
f 61 77 85
f 1 82 86
f 87 83 6
f 6 22 74
f 46 49 84
f 56 61 85
f 1 86 88
f 89 87 6
f 74 90 6
f 90 91 6
f 91 92 6
f 92 93 6
f 93 94 6
f 94 95 6
f 95 96 40
f 96 97 40
f 97 98 40
f 98 99 40
f 99 100 40
f 100 101 40
f 101 102 40
f 102 103 40
f 103 104 40
f 104 105 40
f 105 106 40
f 106 107 40
f 107 108 40
f 108 109 40
f 109 110 40
f 110 111 40
f 111 112 40
f 112 113 40
f 113 114 40
f 114 115 40
f 115 116 40
f 116 37 40
f 76 46 84
f 56 85 67
f 69 1 88
f 117 118 6
f 118 89 6
f 76 84 119
f 56 67 69
f 69 88 120
f 121 117 6
f 76 119 54
f 54 56 69
f 69 120 122
f 123 124 6
f 124 121 6
f 40 136 54
f 136 76 54
f 54 69 122
f 125 126 6
f 126 123 6
f 95 40 54
f 54 122 127
f 128 125 6
f 6 95 54
f 54 127 129
f 130 128 6
f 6 54 129
f 131 130 6
f 6 129 132
f 133 131 6
f 132 134 6
f 134 135 6
f 135 133 6
