v -0.529795 -0.389012 -1.087726
v -0.512454 -0.366458 -1.094996
v -0.512286 -0.366692 -1.094984
v -0.512120 -0.366923 -1.094963
v -0.511956 -0.367152 -1.094935
v -0.511794 -0.367378 -1.094899
v -0.511633 -0.367602 -1.094855
v -0.511474 -0.367824 -1.094802
v -0.511317 -0.368043 -1.094743
v -0.511160 -0.368259 -1.094675
v -0.511006 -0.368474 -1.094599
v -0.510852 -0.368687 -1.094516
v -0.510700 -0.368897 -1.094426
v -0.510549 -0.369106 -1.094327
v -0.510400 -0.369313 -1.094221
v -0.510252 -0.369518 -1.094108
v -0.510105 -0.369720 -1.093987
v -0.509959 -0.369921 -1.093859
v -0.509816 -0.370119 -1.093724
v -0.509674 -0.370314 -1.093582
v -0.509534 -0.370506 -1.093432
v -0.509396 -0.370696 -1.093276
v -0.509261 -0.370882 -1.093113
v -0.509128 -0.371064 -1.092943
v -0.508998 -0.371243 -1.092766
v -0.508870 -0.371417 -1.092582
v -0.508746 -0.371588 -1.092392
v -0.508624 -0.371754 -1.092195
v -0.508506 -0.371916 -1.091992
v -0.508391 -0.372073 -1.091782
v -0.508280 -0.372225 -1.091567
v -0.508172 -0.372373 -1.091346
v -0.508068 -0.372515 -1.091119
v -0.507967 -0.372652 -1.090887
v -0.507870 -0.372784 -1.090650
v -0.507777 -0.372911 -1.090409
v -0.507688 -0.373033 -1.090163
v -0.507602 -0.373149 -1.089913
v -0.507521 -0.373259 -1.089658
v -0.507444 -0.373364 -1.089401
v -0.507371 -0.373462 -1.089139
v -0.507303 -0.373555 -1.088875
v -0.507239 -0.373642 -1.088608
v -0.507179 -0.373723 -1.088338
v -0.507124 -0.373798 -1.088065
v -0.507073 -0.373867 -1.087789
v -0.507027 -0.373929 -1.087510
v -0.506986 -0.373986 -1.087227
v -0.506949 -0.374035 -1.086941
v -0.506917 -0.374079 -1.086652
v -0.506890 -0.374115 -1.086360
v -0.506868 -0.374146 -1.086064
v -0.506850 -0.374169 -1.085764
v -0.506838 -0.374186 -1.085460
v -0.506830 -0.374197 -1.085153
v -0.506828 -0.374200 -1.084841
v -0.519463 -0.356453 -1.095000
v -0.414856 -0.274336 -1.130371
v -0.412994 -0.272875 -1.131000
v -0.412519 -0.273593 -1.131000
v -0.398183 -0.294066 -1.131000
v -0.397671 -0.294759 -1.131000
v -0.399677 -0.296006 -1.130372
v -0.409055 -0.297533 -1.128115
v -0.407713 -0.299370 -1.128115
v -0.429761 -0.286738 -1.125230
v -0.417804 -0.303897 -1.125230
v -0.416433 -0.305773 -1.125230
v -0.437439 -0.294713 -1.122345
v -0.427944 -0.308339 -1.122345
v -0.426553 -0.310261 -1.122345
v -0.446412 -0.300758 -1.119460
v -0.436722 -0.314663 -1.119460
v -0.435302 -0.316624 -1.119460
v -0.455384 -0.306803 -1.116575
v -0.445499 -0.320987 -1.116575
v -0.444051 -0.322988 -1.116575
v -0.462944 -0.314933 -1.113690
v -0.455744 -0.325265 -1.113690
v -0.454277 -0.327312 -1.113690
v -0.471889 -0.321018 -1.110805
v -0.464550 -0.331550 -1.110805
v -0.463054 -0.333636 -1.110805
v -0.480834 -0.327103 -1.107921
v -0.473356 -0.337834 -1.107921
v -0.471832 -0.339960 -1.107921
v -0.488275 -0.335388 -1.105036
v -0.483705 -0.341947 -1.105036
v -0.482162 -0.344119 -1.105036
v -0.497193 -0.341514 -1.102151
v -0.492539 -0.348192 -1.102151
v -0.490968 -0.350404 -1.102151
v -0.506110 -0.347639 -1.099266
v -0.501373 -0.354437 -1.099266
v -0.499773 -0.356688 -1.099266
v -0.515027 -0.353764 -1.096381
v -0.510207 -0.360682 -1.096381
v -0.508579 -0.362973 -1.096381
v -0.520686 -0.364588 -1.093496
v -0.517385 -0.369258 -1.093496
v -0.515719 -0.371581 -1.093496
v -0.526191 -0.375542 -1.090611
v -0.524496 -0.377906 -1.090611
v -0.522791 -0.380261 -1.090611
v -0.531540 -0.386625 -1.087726
v -0.416720 -0.275799 -1.129741
v -0.398695 -0.293373 -1.131000
v -0.410389 -0.295690 -1.128115
v -0.419167 -0.302015 -1.125230
v -0.429327 -0.306411 -1.122345
v -0.438133 -0.312695 -1.119460
v -0.446939 -0.318980 -1.116575
v -0.457203 -0.323212 -1.113690
v -0.466037 -0.329457 -1.110805
v -0.474871 -0.335702 -1.107921
v -0.485238 -0.339767 -1.105036
v -0.494100 -0.345973 -1.102151
v -0.502962 -0.352178 -1.099266
v -0.511824 -0.358383 -1.096381
v -0.519041 -0.366927 -1.093496
v -0.418586 -0.277265 -1.129110
v -0.399205 -0.292678 -1.131000
v -0.510450 -0.364870 -1.095681
v -0.512623 -0.366221 -1.095000
v -0.420762 -0.280734 -1.128115
v -0.411715 -0.293841 -1.128115
v -0.420521 -0.300126 -1.125230
v -0.430701 -0.304476 -1.122345
v -0.439535 -0.310722 -1.119460
v -0.448369 -0.316967 -1.116575
v -0.458652 -0.321152 -1.113690
v -0.467514 -0.327357 -1.110805
v -0.476376 -0.333562 -1.107921
v -0.486762 -0.337581 -1.105036
v -0.495651 -0.343747 -1.102151
v -0.504541 -0.349912 -1.099266
v -0.513431 -0.356077 -1.096381
v -0.420456 -0.278733 -1.128479
v -0.399714 -0.291982 -1.131000
v -0.508281 -0.363521 -1.096361
v -0.413033 -0.291986 -1.128115
v -0.421867 -0.298231 -1.125230
v -0.432066 -0.302536 -1.122345
v -0.440928 -0.308741 -1.119460
v -0.449790 -0.314946 -1.116575
v -0.460092 -0.319085 -1.113690
v -0.468982 -0.325251 -1.110805
v -0.477872 -0.331416 -1.107921
v -0.422328 -0.280203 -1.127846
v -0.400222 -0.291286 -1.131000
v -0.414342 -0.290126 -1.128115
v -0.423204 -0.296331 -1.125230
v -0.433423 -0.300589 -1.122345
v -0.442313 -0.306755 -1.119460
v -0.451202 -0.312920 -1.116575
v -0.461523 -0.317013 -1.113690
v -0.470440 -0.323138 -1.110805
v -0.479358 -0.329263 -1.107921
v -0.424203 -0.281675 -1.127212
v -0.400728 -0.290589 -1.131000
v -0.415643 -0.288259 -1.128115
v -0.424533 -0.294424 -1.125230
v -0.434770 -0.298637 -1.122345
v -0.443688 -0.304762 -1.119460
v -0.452605 -0.310887 -1.116575
v -0.426081 -0.283149 -1.126577
v -0.401234 -0.289890 -1.131000
v -0.416936 -0.286386 -1.128115
v -0.425853 -0.292512 -1.125230
v -0.436109 -0.296678 -1.122345
v -0.445054 -0.302763 -1.119460
v -0.453999 -0.308848 -1.116575
v -0.427962 -0.284626 -1.125942
v -0.401738 -0.289191 -1.131000
v -0.506115 -0.362175 -1.097039
v -0.418220 -0.284508 -1.128115
v -0.427164 -0.290593 -1.125230
v -0.429845 -0.286105 -1.125305
v -0.402241 -0.288491 -1.131000
v -0.503951 -0.360829 -1.097717
v -0.419495 -0.282624 -1.128115
v -0.428467 -0.288669 -1.125230
v -0.517453 -0.354876 -1.095680
v -0.431732 -0.287586 -1.124668
v -0.402743 -0.287790 -1.131000
v -0.501791 -0.359486 -1.098394
v -0.433621 -0.289069 -1.124029
v -0.403243 -0.287089 -1.131000
v -0.499634 -0.358145 -1.099070
v -0.515447 -0.353301 -1.096359
v -0.435512 -0.290554 -1.123390
v -0.403742 -0.286386 -1.131000
v -0.497479 -0.356806 -1.099745
v -0.513443 -0.351728 -1.097036
v -0.437407 -0.292041 -1.122749
v -0.404240 -0.285683 -1.131000
v -0.495328 -0.355468 -1.100419
v -0.511442 -0.350157 -1.097713
v -0.439304 -0.293531 -1.122108
v -0.404737 -0.284978 -1.131000
v -0.493180 -0.354133 -1.101092
v -0.509443 -0.348589 -1.098389
v -0.441205 -0.295022 -1.121466
v -0.405233 -0.284273 -1.131000
v -0.491035 -0.352799 -1.101764
v -0.443107 -0.296516 -1.120822
v -0.405727 -0.283567 -1.131000
v -0.488893 -0.351467 -1.102435
v -0.507447 -0.347022 -1.099065
v -0.445013 -0.298013 -1.120178
v -0.406220 -0.282860 -1.131000
v -0.486754 -0.350137 -1.103106
v -0.505454 -0.345458 -1.099739
v -0.446922 -0.299511 -1.119533
v -0.406712 -0.282153 -1.131000
v -0.484618 -0.348809 -1.103775
v -0.503464 -0.343895 -1.100412
v -0.448833 -0.301011 -1.118887
v -0.407203 -0.281444 -1.131000
v -0.482485 -0.347483 -1.104443
v -0.501476 -0.342335 -1.101084
v -0.450747 -0.302514 -1.118240
v -0.407692 -0.280734 -1.131000
v -0.480355 -0.346159 -1.105110
v -0.499491 -0.340777 -1.101756
v -0.452664 -0.304019 -1.117592
v -0.408181 -0.280024 -1.131000
v -0.478228 -0.344836 -1.105777
v -0.497509 -0.339221 -1.102426
v -0.454584 -0.305526 -1.116942
v -0.408668 -0.279313 -1.131000
v -0.476104 -0.343516 -1.106442
v -0.495530 -0.337667 -1.103096
v -0.456506 -0.307035 -1.116292
v -0.409153 -0.278601 -1.131000
v -0.473983 -0.342197 -1.107106
v -0.493553 -0.336116 -1.103764
v -0.458432 -0.308546 -1.115642
v -0.409638 -0.277888 -1.131000
v -0.471865 -0.340881 -1.107770
v -0.491579 -0.334566 -1.104432
v -0.460360 -0.310060 -1.114990
v -0.410121 -0.277174 -1.131000
v -0.469750 -0.339566 -1.108432
v -0.489607 -0.333019 -1.105099
v -0.462290 -0.311576 -1.114337
v -0.410603 -0.276460 -1.131000
v -0.467638 -0.338253 -1.109094
v -0.487639 -0.331473 -1.105765
v -0.464224 -0.313093 -1.113683
v -0.411084 -0.275745 -1.131000
v -0.465529 -0.336942 -1.109754
v -0.485672 -0.329930 -1.106430
v -0.466160 -0.314613 -1.113028
v -0.411563 -0.275028 -1.131000
v -0.463424 -0.335633 -1.110414
v -0.483709 -0.328389 -1.107094
v -0.468099 -0.316135 -1.112373
v -0.412042 -0.274311 -1.131000
v -0.461321 -0.334325 -1.111072
v -0.470041 -0.317660 -1.111716
v -0.459221 -0.333020 -1.111730
v -0.481748 -0.326850 -1.107757
v -0.471985 -0.319186 -1.111059
v -0.401687 -0.297256 -1.129743
v -0.457124 -0.331717 -1.112387
v -0.479790 -0.325313 -1.108419
v -0.473933 -0.320714 -1.110400
v -0.403700 -0.298507 -1.129113
v -0.455031 -0.330415 -1.113042
v -0.477835 -0.323778 -1.109080
v -0.475882 -0.322245 -1.109741
v -0.405716 -0.299760 -1.128482
v -0.452940 -0.329116 -1.113697
v -0.407735 -0.301015 -1.127850
v -0.450853 -0.327818 -1.114351
v -0.409757 -0.302271 -1.127218
v -0.448769 -0.326522 -1.115004
v -0.411782 -0.303530 -1.126584
v -0.446687 -0.325228 -1.115655
v -0.444609 -0.323936 -1.116306
v -0.413810 -0.304791 -1.125949
v -0.442534 -0.322646 -1.116956
v -0.415842 -0.306054 -1.125313
v -0.440462 -0.321358 -1.117605
v -0.417876 -0.307318 -1.124676
v -0.438393 -0.320072 -1.118253
v -0.419914 -0.308585 -1.124038
v -0.436327 -0.318788 -1.118899
v -0.421955 -0.309854 -1.123399
v -0.434265 -0.317506 -1.119545
v -0.423999 -0.311124 -1.122759
v -0.432205 -0.316226 -1.120190
v -0.426046 -0.312396 -1.122119
v -0.430149 -0.314947 -1.120834
v -0.428096 -0.313671 -1.121477
f 1 2 3
f 3 4 5
f 5 6 7
f 7 8 9
f 9 10 11
f 11 12 13
f 13 14 15
f 15 16 17
f 17 18 19
f 19 20 21
f 21 22 23
f 23 24 25
f 25 26 27
f 27 28 29
f 29 30 31
f 31 32 33
f 33 34 35
f 35 36 37
f 37 38 39
f 39 40 41
f 41 42 43
f 43 44 45
f 45 46 47
f 47 48 49
f 49 50 51
f 51 52 53
f 53 54 55
f 55 56 57
f 58 59 60
f 61 62 63
f 64 65 66
f 67 68 69
f 70 71 72
f 73 74 75
f 76 77 78
f 79 80 81
f 82 83 84
f 85 86 87
f 88 89 90
f 91 92 93
f 94 95 96
f 97 98 99
f 100 101 102
f 103 104 105
f 1 3 5
f 5 7 9
f 9 11 13
f 13 15 17
f 17 19 21
f 21 23 25
f 25 27 29
f 29 31 33
f 33 35 37
f 37 39 41
f 41 43 45
f 45 47 49
f 49 51 53
f 53 55 57
f 106 58 60
f 107 61 63
f 108 64 66
f 109 67 69
f 110 70 72
f 111 73 75
f 112 76 78
f 113 79 81
f 114 82 84
f 115 85 87
f 116 88 90
f 117 91 93
f 118 94 96
f 119 97 99
f 120 100 102
f 102 103 105
f 1 5 9
f 9 13 17
f 17 21 25
f 25 29 33
f 33 37 41
f 41 45 49
f 121 106 60
f 122 107 63
f 123 124 125
f 126 108 66
f 127 109 69
f 128 110 72
f 129 111 75
f 130 112 78
f 131 113 81
f 132 114 84
f 133 115 87
f 134 116 90
f 135 117 93
f 136 118 96
f 137 119 99
f 99 120 102
f 1 9 17
f 17 25 33
f 33 41 49
f 138 121 60
f 139 122 63
f 140 123 125
f 141 126 66
f 142 127 69
f 143 128 72
f 144 129 75
f 145 130 78
f 146 131 81
f 147 132 84
f 148 133 87
f 87 134 90
f 90 135 93
f 93 136 96
f 96 137 99
f 1 17 33
f 33 49 53
f 149 138 60
f 150 139 63
f 151 141 66
f 152 142 69
f 153 143 72
f 154 144 75
f 155 145 78
f 156 146 81
f 157 147 84
f 158 148 87
f 1 33 53
f 159 149 60
f 160 150 63
f 161 151 66
f 162 152 69
f 163 153 72
f 164 154 75
f 165 155 78
f 78 156 81
f 81 157 84
f 84 158 87
f 105 1 53
f 166 159 60
f 167 160 63
f 168 161 66
f 169 162 69
f 170 163 72
f 171 164 75
f 172 165 78
f 84 87 90
f 105 53 57
f 173 166 60
f 174 167 63
f 175 140 125
f 176 168 66
f 177 169 69
f 69 170 72
f 72 171 75
f 75 172 78
f 84 90 93
f 96 99 57
f 99 102 57
f 102 105 57
f 178 173 60
f 179 174 63
f 180 175 125
f 181 176 66
f 182 177 69
f 75 78 81
f 84 93 96
f 96 57 183
f 184 178 60
f 185 179 63
f 186 180 125
f 125 181 66
f 66 182 69
f 75 81 84
f 84 96 183
f 187 184 60
f 188 185 63
f 189 186 125
f 66 69 72
f 84 183 190
f 191 187 60
f 192 188 63
f 193 189 125
f 66 72 75
f 84 190 194
f 195 191 60
f 196 192 63
f 197 193 125
f 84 194 198
f 199 195 60
f 200 196 63
f 201 197 125
f 84 198 202
f 203 199 60
f 204 200 63
f 205 201 125
f 75 84 202
f 206 203 60
f 207 204 63
f 208 205 125
f 75 202 209
f 210 206 60
f 211 207 63
f 212 208 125
f 75 209 213
f 214 210 60
f 215 211 63
f 216 212 125
f 75 213 217
f 218 214 60
f 219 215 63
f 220 216 125
f 75 217 221
f 222 218 60
f 223 219 63
f 224 220 125
f 75 221 225
f 226 222 60
f 227 223 63
f 228 224 125
f 75 225 229
f 230 226 60
f 231 227 63
f 232 228 125
f 75 229 233
f 234 230 60
f 235 231 63
f 236 232 125
f 75 233 237
f 238 234 60
f 239 235 63
f 240 236 125
f 75 237 241
f 242 238 60
f 243 239 63
f 244 240 125
f 75 241 245
f 246 242 60
f 247 243 63
f 248 244 125
f 75 245 249
f 250 246 60
f 251 247 63
f 252 248 125
f 75 249 253
f 254 250 60
f 255 251 63
f 256 252 125
f 75 253 257
f 258 254 60
f 259 255 63
f 260 256 125
f 66 75 257
f 261 258 60
f 60 259 63
f 262 260 125
f 66 257 263
f 264 261 60
f 60 63 265
f 266 262 125
f 66 263 267
f 268 264 60
f 60 265 269
f 270 266 125
f 66 267 271
f 272 268 60
f 60 269 273
f 274 270 125
f 66 271 272
f 60 273 275
f 276 274 125
f 66 272 60
f 60 275 277
f 278 276 125
f 125 66 60
f 60 277 279
f 280 278 125
f 125 60 279
f 281 280 125
f 125 279 282
f 283 281 125
f 125 282 284
f 285 283 125
f 125 284 286
f 287 285 125
f 125 286 288
f 289 287 125
f 125 288 290
f 291 289 125
f 125 290 292
f 293 291 125
f 125 292 294
f 295 293 125
f 125 294 296
f 296 295 125
f 124 2 3
