v 2.275401 -0.559197 -5.404099
v 2.278190 -0.538994 -5.404663
v 2.276809 -0.549097 -5.404383
v 2.279546 -0.528887 -5.404937
v 2.280877 -0.518776 -5.405206
v 2.282181 -0.508662 -5.405470
v 2.283460 -0.498545 -5.405728
v 2.284713 -0.488424 -5.405982
v 2.285941 -0.478300 -5.406230
v 2.287143 -0.468173 -5.406474
v 2.288319 -0.458042 -5.406712
v 2.289469 -0.447908 -5.406944
v 2.290594 -0.437772 -5.407172
v 2.291692 -0.427632 -5.407395
v 2.292765 -0.417490 -5.407612
v 2.293813 -0.407344 -5.407824
v 2.294834 -0.397196 -5.408031
v 2.295830 -0.387045 -5.408233
v 2.296800 -0.376892 -5.408429
v 2.297744 -0.366736 -5.408620
v 2.298663 -0.356578 -5.408807
v 2.299555 -0.346417 -5.408987
v 2.300422 -0.336253 -5.409163
v 2.301263 -0.326088 -5.409334
v 2.302078 -0.315920 -5.409499
v 2.302867 -0.305750 -5.409659
v 2.303631 -0.295578 -5.409814
v 2.304369 -0.285404 -5.409963
v 2.305080 -0.275228 -5.410108
v 2.305766 -0.265050 -5.410247
v 2.306426 -0.254871 -5.410381
v 2.307061 -0.244690 -5.410509
v 2.307669 -0.234507 -5.410633
v 2.277027 -0.559470 -5.406242
v 2.278595 -0.559736 -5.408428
v 2.280103 -0.559995 -5.410657
v 2.281551 -0.560246 -5.412926
v 2.282938 -0.560490 -5.415234
v 2.284262 -0.560727 -5.417580
v 2.285522 -0.560955 -5.419960
v 2.286719 -0.561176 -5.422375
v 2.287850 -0.561389 -5.424821
v 2.288915 -0.561593 -5.427298
v 2.307560 -0.244726 -5.411168
v 2.307420 -0.254946 -5.411703
v 2.307250 -0.265168 -5.412238
v 2.307050 -0.275391 -5.412771
v 2.306818 -0.285614 -5.413304
v 2.306556 -0.295838 -5.413837
v 2.306264 -0.306063 -5.414369
v 2.305941 -0.316288 -5.414900
v 2.305587 -0.326514 -5.415430
v 2.305203 -0.336740 -5.415959
v 2.304787 -0.346966 -5.416487
v 2.304341 -0.357193 -5.417015
v 2.303864 -0.367419 -5.417541
v 2.303356 -0.377646 -5.418067
v 2.302818 -0.387872 -5.418591
v 2.302248 -0.398098 -5.419114
v 2.301648 -0.408324 -5.419636
v 2.301017 -0.418549 -5.420157
v 2.300354 -0.428773 -5.420677
v 2.299661 -0.438997 -5.421195
v 2.298936 -0.449220 -5.421712
v 2.298181 -0.459442 -5.422228
v 2.297395 -0.469664 -5.422742
v 2.296577 -0.479884 -5.423255
v 2.295728 -0.490103 -5.423766
v 2.294848 -0.500320 -5.424276
v 2.293937 -0.510536 -5.424784
v 2.292995 -0.520751 -5.425290
v 2.292022 -0.530964 -5.425795
v 2.291018 -0.541176 -5.426297
v 2.289982 -0.551385 -5.426799
v 2.308808 -0.214136 -5.410864
v 2.308252 -0.224322 -5.410751
v 2.309339 -0.203948 -5.410972
v 2.309844 -0.193760 -5.411074
v 2.310323 -0.183569 -5.411171
v 2.310777 -0.173378 -5.411263
v 2.311204 -0.163185 -5.411350
v 2.311605 -0.152992 -5.411432
v 2.311981 -0.142797 -5.411508
v 2.312330 -0.132601 -5.411579
v 2.312654 -0.122405 -5.411645
v 2.312952 -0.112207 -5.411705
v 2.313224 -0.102009 -5.411760
v 2.313470 -0.091810 -5.411810
v 2.313690 -0.081611 -5.411855
v 2.313885 -0.071411 -5.411894
v 2.314053 -0.061210 -5.411929
v 2.314195 -0.051009 -5.411958
v 2.314312 -0.040808 -5.411981
v 2.314403 -0.030606 -5.412000
v 2.314468 -0.020404 -5.412013
v 2.314506 -0.010202 -5.412021
v 2.314519 0.000000 -5.412023
v 2.317612 0.000000 -5.416322
v 2.320473 0.000000 -5.420779
v 2.323094 0.000000 -5.425380
v 2.325468 0.000000 -5.430115
v 2.327588 0.000000 -5.434968
v 2.329448 0.000000 -5.439926
v 2.331043 0.000000 -5.444976
v 2.332368 0.000000 -5.450104
v 2.333420 0.000000 -5.455294
v 2.334195 0.000000 -5.460533
v 2.289913 -0.561788 -5.429803
v 2.290844 -0.561975 -5.432334
v 2.291706 -0.562154 -5.434890
v 2.292499 -0.562323 -5.437469
v 2.293223 -0.562483 -5.440069
v 2.293878 -0.562635 -5.442688
v 2.294461 -0.562777 -5.445324
v 2.294974 -0.562909 -5.447976
v 2.295415 -0.563033 -5.450640
v 2.295785 -0.563146 -5.453316
v 2.334181 -0.010271 -5.460520
v 2.334142 -0.020543 -5.460502
v 2.334077 -0.030814 -5.460480
v 2.333987 -0.041085 -5.460454
v 2.333871 -0.051355 -5.460423
v 2.333730 -0.061626 -5.460388
v 2.333564 -0.071896 -5.460348
v 2.333372 -0.082165 -5.460305
v 2.333155 -0.092434 -5.460256
v 2.332913 -0.102702 -5.460204
v 2.332645 -0.112970 -5.460147
v 2.332352 -0.123237 -5.460085
v 2.332033 -0.133503 -5.460020
v 2.331689 -0.143768 -5.459950
v 2.331320 -0.154033 -5.459875
v 2.330925 -0.164296 -5.459796
v 2.330505 -0.174559 -5.459713
v 2.330060 -0.184820 -5.459626
v 2.329589 -0.195080 -5.459534
v 2.329093 -0.205339 -5.459437
v 2.328571 -0.215597 -5.459337
v 2.328024 -0.225853 -5.459231
v 2.327452 -0.236108 -5.459122
v 2.326855 -0.246362 -5.459008
v 2.326232 -0.256614 -5.458890
v 2.325584 -0.266864 -5.458767
v 2.324910 -0.277113 -5.458640
v 2.324211 -0.287360 -5.458509
v 2.323487 -0.297605 -5.458373
v 2.322737 -0.307848 -5.458233
v 2.321963 -0.318090 -5.458089
v 2.321162 -0.328329 -5.457940
v 2.320337 -0.338567 -5.457787
v 2.319486 -0.348802 -5.457630
v 2.318610 -0.359035 -5.457468
v 2.317709 -0.369266 -5.457302
v 2.316782 -0.379495 -5.457131
v 2.315830 -0.389721 -5.456956
v 2.314853 -0.399945 -5.456777
v 2.313851 -0.410166 -5.456593
v 2.312823 -0.420385 -5.456405
v 2.311770 -0.430601 -5.456213
v 2.310692 -0.440815 -5.456016
v 2.309588 -0.451025 -5.455815
v 2.308459 -0.461233 -5.455609
v 2.307305 -0.471439 -5.455400
v 2.306126 -0.481641 -5.455185
v 2.304922 -0.491840 -5.454967
v 2.303692 -0.502036 -5.454744
v 2.302437 -0.512229 -5.454517
v 2.301157 -0.522419 -5.454285
v 2.299852 -0.532606 -5.454049
v 2.298522 -0.542790 -5.453809
v 2.297166 -0.552970 -5.453565
v 2.334910 0.000000 -5.471097
v 2.334693 0.000000 -5.465805
v 2.334847 0.000000 -5.476392
v 2.334504 0.000000 -5.481677
v 2.333881 0.000000 -5.486936
v 2.332981 0.000000 -5.492155
v 2.331806 0.000000 -5.497319
v 2.330359 0.000000 -5.502413
v 2.328644 0.000000 -5.507424
v 2.326667 0.000000 -5.512337
v 2.296083 -0.563251 -5.456001
v 2.296309 -0.563345 -5.458693
v 2.296463 -0.563430 -5.461391
v 2.296544 -0.563504 -5.464093
v 2.296553 -0.563569 -5.466795
v 2.296490 -0.563625 -5.469498
v 2.296354 -0.563670 -5.472197
v 2.296146 -0.563705 -5.474893
v 2.295865 -0.563730 -5.477582
v 2.295513 -0.563745 -5.480262
v 2.295089 -0.563750 -5.482932
v 2.294594 -0.563745 -5.485590
v 2.294028 -0.563730 -5.488234
v 2.293391 -0.563705 -5.490861
v 2.292685 -0.563670 -5.493471
v 2.291908 -0.563625 -5.496060
v 2.291063 -0.563569 -5.498627
v 2.290149 -0.563504 -5.501171
v 2.289167 -0.563430 -5.503689
v 2.288119 -0.563345 -5.506180
v 2.287004 -0.563251 -5.508641
v 2.326631 -0.010275 -5.512388
v 2.326570 -0.020550 -5.512435
v 2.326483 -0.030824 -5.512477
v 2.326371 -0.041098 -5.512515
v 2.326233 -0.051372 -5.512549
v 2.326070 -0.061646 -5.512578
v 2.325882 -0.071919 -5.512603
v 2.325668 -0.082191 -5.512623
v 2.325429 -0.092463 -5.512639
v 2.325164 -0.102734 -5.512651
v 2.324874 -0.113005 -5.512658
v 2.324559 -0.123275 -5.512661
v 2.324218 -0.133544 -5.512660
v 2.323852 -0.143812 -5.512654
v 2.323460 -0.154079 -5.512644
v 2.323043 -0.164345 -5.512629
v 2.322600 -0.174610 -5.512610
v 2.322132 -0.184874 -5.512587
v 2.321639 -0.195136 -5.512559
v 2.321120 -0.205398 -5.512527
v 2.320576 -0.215658 -5.512490
v 2.320007 -0.225916 -5.512449
v 2.319412 -0.236174 -5.512404
v 2.318792 -0.246429 -5.512354
v 2.318146 -0.256683 -5.512300
v 2.317475 -0.266936 -5.512241
v 2.316779 -0.277187 -5.512178
v 2.316057 -0.287435 -5.512111
v 2.315310 -0.297683 -5.512039
v 2.314538 -0.307928 -5.511963
v 2.313740 -0.318171 -5.511883
v 2.312917 -0.328412 -5.511798
v 2.312069 -0.338651 -5.511709
v 2.311195 -0.348888 -5.511615
v 2.310296 -0.359123 -5.511517
v 2.309371 -0.369355 -5.511415
v 2.308422 -0.379585 -5.511308
v 2.307447 -0.389813 -5.511197
v 2.306446 -0.400038 -5.511082
v 2.305420 -0.410260 -5.510962
v 2.304370 -0.420480 -5.510838
v 2.303293 -0.430697 -5.510709
v 2.302192 -0.440912 -5.510576
v 2.301065 -0.451124 -5.510439
v 2.299913 -0.461332 -5.510297
v 2.298736 -0.471538 -5.510151
v 2.297533 -0.481741 -5.510001
v 2.296305 -0.491941 -5.509846
v 2.295052 -0.502138 -5.509687
v 2.293774 -0.512332 -5.509524
v 2.292470 -0.522522 -5.509356
v 2.291142 -0.532709 -5.509183
v 2.289788 -0.542893 -5.509007
v 2.288408 -0.553074 -5.508826
v 2.321947 0.000000 -5.521814
v 2.324432 0.000000 -5.517138
v 2.319217 0.000000 -5.526352
v 2.316250 0.000000 -5.530739
v 2.313056 0.000000 -5.534963
v 2.309643 0.000000 -5.539012
v 2.306020 0.000000 -5.542875
v 2.302197 0.000000 -5.546540
v 2.298186 0.000000 -5.549998
v 2.293997 0.000000 -5.553239
v 2.289643 0.000000 -5.556253
v 2.289630 -0.010202 -5.556251
v 2.289591 -0.020404 -5.556246
v 2.289525 -0.030606 -5.556237
v 2.289434 -0.040808 -5.556224
v 2.289316 -0.051009 -5.556207
v 2.289172 -0.061210 -5.556186
v 2.289002 -0.071411 -5.556162
v 2.288806 -0.081611 -5.556134
v 2.288583 -0.091810 -5.556103
v 2.288334 -0.102009 -5.556067
v 2.288060 -0.112207 -5.556028
v 2.287759 -0.122405 -5.555985
v 2.287432 -0.132601 -5.555939
v 2.287079 -0.142797 -5.555889
v 2.286699 -0.152992 -5.555835
v 2.286294 -0.163185 -5.555777
v 2.285862 -0.173378 -5.555715
v 2.285404 -0.183569 -5.555650
v 2.284920 -0.193760 -5.555581
v 2.284410 -0.203948 -5.555509
v 2.283874 -0.214136 -5.555432
v 2.283311 -0.224322 -5.555352
v 2.285824 -0.563146 -5.511071
v 2.284579 -0.563033 -5.513468
v 2.283270 -0.562909 -5.515831
v 2.281899 -0.562777 -5.518157
v 2.280466 -0.562635 -5.520445
v 2.278973 -0.562483 -5.522694
v 2.277420 -0.562323 -5.524901
v 2.275808 -0.562154 -5.527065
v 2.274139 -0.561975 -5.529185
v 2.272414 -0.561788 -5.531258
v 2.283460 -0.234544 -5.554784
v 2.283580 -0.244767 -5.554205
v 2.283670 -0.254991 -5.553616
v 2.283731 -0.265217 -5.553016
v 2.283762 -0.275444 -5.552406
v 2.283763 -0.285671 -5.551786
v 2.283735 -0.295900 -5.551155
v 2.283677 -0.306129 -5.550514
v 2.283589 -0.316359 -5.549863
v 2.283471 -0.326590 -5.549201
v 2.283324 -0.336821 -5.548529
v 2.283146 -0.347052 -5.547847
v 2.282939 -0.357283 -5.547155
v 2.282701 -0.367515 -5.546453
v 2.282433 -0.377746 -5.545741
v 2.282136 -0.387978 -5.545019
v 2.281807 -0.398209 -5.544287
v 2.281449 -0.408440 -5.543545
v 2.281061 -0.418670 -5.542794
v 2.280642 -0.428900 -5.542032
v 2.280192 -0.439129 -5.541261
v 2.279713 -0.449358 -5.540480
v 2.279202 -0.459585 -5.539689
v 2.278661 -0.469812 -5.538888
v 2.278090 -0.480038 -5.538078
v 2.277488 -0.490262 -5.537259
v 2.276856 -0.500485 -5.536430
v 2.276192 -0.510706 -5.535591
v 2.275498 -0.520926 -5.534743
v 2.274774 -0.531145 -5.533886
v 2.274018 -0.541361 -5.533019
v 2.273232 -0.551576 -5.532143
v 2.282108 -0.244690 -5.555181
v 2.282723 -0.234507 -5.555269
v 2.281468 -0.254871 -5.555090
v 2.280801 -0.265050 -5.554995
v 2.280108 -0.275228 -5.554896
v 2.279389 -0.285404 -5.554794
v 2.278644 -0.295578 -5.554688
v 2.277872 -0.305750 -5.554578
v 2.277075 -0.315920 -5.554464
v 2.276252 -0.326088 -5.554347
v 2.275402 -0.336253 -5.554226
v 2.274527 -0.346417 -5.554101
v 2.273625 -0.356578 -5.553972
v 2.272697 -0.366736 -5.553840
v 2.271744 -0.376892 -5.553704
v 2.270764 -0.387045 -5.553564
v 2.269758 -0.397196 -5.553421
v 2.268726 -0.407344 -5.553274
v 2.267668 -0.417490 -5.553123
v 2.266584 -0.427632 -5.552968
v 2.265475 -0.437772 -5.552809
v 2.264339 -0.447908 -5.552647
v 2.263177 -0.458042 -5.552481
v 2.261989 -0.468173 -5.552312
v 2.260775 -0.478300 -5.552138
v 2.259535 -0.488424 -5.551961
v 2.258270 -0.498545 -5.551780
v 2.256978 -0.508662 -5.551595
v 2.255660 -0.518776 -5.551407
v 2.254317 -0.528887 -5.551215
v 2.252947 -0.538994 -5.551019
v 2.251552 -0.549097 -5.550819
v 2.250131 -0.559197 -5.550616
v 2.270635 -0.561593 -5.533284
v 2.268802 -0.561389 -5.535261
v 2.266916 -0.561176 -5.537187
v 2.264980 -0.560955 -5.539061
v 2.262995 -0.560727 -5.540882
v 2.260962 -0.560490 -5.542648
v 2.258882 -0.560246 -5.544359
v 2.256758 -0.559995 -5.546012
v 2.254590 -0.559736 -5.547606
v 2.252380 -0.559470 -5.549141
f 1 2 3
f 1 4 2
f 1 5 4
f 1 6 5
f 1 7 6
f 1 8 7
f 1 9 8
f 1 10 9
f 1 11 10
f 1 12 11
f 1 13 12
f 1 14 13
f 1 15 14
f 1 16 15
f 1 17 16
f 1 18 17
f 1 19 18
f 1 20 19
f 1 21 20
f 1 22 21
f 1 23 22
f 1 24 23
f 1 25 24
f 1 26 25
f 1 27 26
f 1 28 27
f 1 29 28
f 1 30 29
f 1 31 30
f 1 32 31
f 1 33 32
f 1 34 35
f 1 35 36
f 1 36 37
f 1 37 38
f 1 38 39
f 1 39 40
f 1 40 41
f 1 41 42
f 1 42 43
f 1 44 33
f 1 45 44
f 1 46 45
f 1 47 46
f 1 48 47
f 1 49 48
f 1 50 49
f 1 51 50
f 1 52 51
f 1 53 52
f 1 54 53
f 1 55 54
f 1 56 55
f 1 57 56
f 1 58 57
f 1 59 58
f 1 60 59
f 1 61 60
f 1 62 61
f 1 63 62
f 1 64 63
f 1 65 64
f 1 66 65
f 1 67 66
f 1 68 67
f 1 69 68
f 1 70 69
f 1 71 70
f 1 72 71
f 1 73 72
f 1 74 73
f 1 43 74
f 33 75 76
f 33 77 75
f 33 78 77
f 33 79 78
f 33 80 79
f 33 81 80
f 33 82 81
f 33 83 82
f 33 84 83
f 33 85 84
f 33 86 85
f 33 87 86
f 33 88 87
f 33 89 88
f 33 90 89
f 33 91 90
f 33 92 91
f 33 93 92
f 33 94 93
f 33 95 94
f 33 96 95
f 33 97 96
f 33 98 97
f 33 99 98
f 33 100 99
f 33 101 100
f 33 102 101
f 33 103 102
f 33 104 103
f 33 105 104
f 33 106 105
f 33 107 106
f 43 108 109
f 43 109 110
f 43 110 111
f 43 111 112
f 43 112 113
f 43 113 114
f 43 114 115
f 43 115 116
f 43 116 117
f 33 118 107
f 33 119 118
f 33 120 119
f 33 121 120
f 33 122 121
f 33 123 122
f 33 124 123
f 33 125 124
f 33 126 125
f 33 127 126
f 33 128 127
f 33 129 128
f 33 130 129
f 33 131 130
f 33 132 131
f 33 133 132
f 33 134 133
f 33 135 134
f 33 136 135
f 33 137 136
f 33 138 137
f 33 139 138
f 33 140 139
f 33 44 140
f 44 141 140
f 44 45 141
f 45 142 141
f 45 46 142
f 46 143 142
f 46 47 143
f 47 144 143
f 47 48 144
f 48 145 144
f 48 49 145
f 49 146 145
f 49 50 146
f 50 147 146
f 50 51 147
f 51 148 147
f 51 52 148
f 52 149 148
f 52 53 149
f 53 150 149
f 53 54 150
f 54 151 150
f 54 55 151
f 55 152 151
f 55 56 152
f 56 153 152
f 56 57 153
f 57 154 153
f 57 58 154
f 58 155 154
f 58 59 155
f 59 156 155
f 59 60 156
f 60 157 156
f 60 61 157
f 61 158 157
f 61 62 158
f 62 159 158
f 62 63 159
f 63 160 159
f 63 64 160
f 64 161 160
f 64 65 161
f 65 162 161
f 65 66 162
f 66 163 162
f 66 67 163
f 67 164 163
f 67 68 164
f 68 165 164
f 68 69 165
f 69 166 165
f 69 70 166
f 70 167 166
f 70 71 167
f 71 168 167
f 71 72 168
f 72 169 168
f 72 73 169
f 73 170 169
f 73 74 170
f 74 171 170
f 74 43 171
f 43 117 171
f 107 172 173
f 107 174 172
f 107 175 174
f 107 176 175
f 107 177 176
f 107 178 177
f 107 179 178
f 107 180 179
f 107 181 180
f 117 182 183
f 117 183 184
f 117 184 185
f 117 185 186
f 117 186 187
f 117 187 188
f 117 188 189
f 117 189 190
f 117 190 191
f 117 191 192
f 117 192 193
f 117 193 194
f 117 194 195
f 117 195 196
f 117 196 197
f 117 197 198
f 117 198 199
f 117 199 200
f 117 200 201
f 117 201 202
f 107 118 181
f 118 203 181
f 118 119 203
f 119 204 203
f 119 120 204
f 120 205 204
f 120 121 205
f 121 206 205
f 121 122 206
f 122 207 206
f 122 123 207
f 123 208 207
f 123 124 208
f 124 209 208
f 124 125 209
f 125 210 209
f 125 126 210
f 126 211 210
f 126 127 211
f 127 212 211
f 127 128 212
f 128 213 212
f 128 129 213
f 129 214 213
f 129 130 214
f 130 215 214
f 130 131 215
f 131 216 215
f 131 132 216
f 132 217 216
f 132 133 217
f 133 218 217
f 133 134 218
f 134 219 218
f 134 135 219
f 135 220 219
f 135 136 220
f 136 221 220
f 136 137 221
f 137 222 221
f 137 138 222
f 138 223 222
f 138 139 223
f 139 224 223
f 139 140 224
f 140 225 224
f 140 141 225
f 141 226 225
f 141 142 226
f 142 227 226
f 142 143 227
f 143 228 227
f 143 144 228
f 144 229 228
f 144 145 229
f 145 230 229
f 145 146 230
f 146 231 230
f 146 147 231
f 147 232 231
f 147 148 232
f 148 233 232
f 148 149 233
f 149 234 233
f 149 150 234
f 150 235 234
f 150 151 235
f 151 236 235
f 151 152 236
f 152 237 236
f 152 153 237
f 153 238 237
f 153 154 238
f 154 239 238
f 154 155 239
f 155 240 239
f 155 156 240
f 156 241 240
f 156 157 241
f 157 242 241
f 157 158 242
f 158 243 242
f 158 159 243
f 159 244 243
f 159 160 244
f 160 245 244
f 160 161 245
f 161 246 245
f 161 162 246
f 162 247 246
f 162 163 247
f 163 248 247
f 163 164 248
f 164 249 248
f 164 165 249
f 165 250 249
f 165 166 250
f 166 251 250
f 166 167 251
f 167 252 251
f 167 168 252
f 168 253 252
f 168 169 253
f 169 254 253
f 169 170 254
f 170 255 254
f 170 171 255
f 171 256 255
f 171 117 256
f 117 202 256
f 181 257 258
f 181 259 257
f 181 260 259
f 181 261 260
f 181 262 261
f 181 263 262
f 181 264 263
f 181 265 264
f 181 266 265
f 181 267 266
f 181 268 267
f 181 269 268
f 181 270 269
f 181 271 270
f 181 272 271
f 181 273 272
f 181 274 273
f 181 275 274
f 181 276 275
f 181 277 276
f 181 278 277
f 181 279 278
f 181 280 279
f 181 281 280
f 181 282 281
f 181 283 282
f 181 284 283
f 181 285 284
f 181 286 285
f 181 287 286
f 181 288 287
f 181 289 288
f 202 290 291
f 202 291 292
f 202 292 293
f 202 293 294
f 202 294 295
f 202 295 296
f 202 296 297
f 202 297 298
f 202 298 299
f 181 203 289
f 203 204 289
f 204 205 289
f 205 206 289
f 206 207 289
f 207 208 289
f 208 209 289
f 209 210 289
f 210 211 289
f 211 212 289
f 212 213 289
f 213 214 289
f 214 215 289
f 215 216 289
f 216 217 289
f 217 218 289
f 218 219 289
f 219 220 289
f 220 221 289
f 221 222 289
f 222 223 289
f 223 224 289
f 224 225 289
f 225 300 289
f 225 226 300
f 226 301 300
f 226 227 301
f 227 302 301
f 227 228 302
f 228 303 302
f 228 229 303
f 229 304 303
f 229 230 304
f 230 305 304
f 230 231 305
f 231 306 305
f 231 232 306
f 232 307 306
f 232 233 307
f 233 308 307
f 233 234 308
f 234 309 308
f 234 235 309
f 235 310 309
f 235 236 310
f 236 311 310
f 236 237 311
f 237 312 311
f 237 238 312
f 238 313 312
f 238 239 313
f 239 314 313
f 239 240 314
f 240 315 314
f 240 241 315
f 241 316 315
f 241 242 316
f 242 317 316
f 242 243 317
f 243 318 317
f 243 244 318
f 244 319 318
f 244 245 319
f 245 320 319
f 245 246 320
f 246 321 320
f 246 247 321
f 247 322 321
f 247 248 322
f 248 323 322
f 248 249 323
f 249 324 323
f 249 250 324
f 250 325 324
f 250 251 325
f 251 326 325
f 251 252 326
f 252 327 326
f 252 253 327
f 253 328 327
f 253 254 328
f 254 329 328
f 254 255 329
f 255 330 329
f 255 256 330
f 256 331 330
f 256 202 331
f 202 299 331
f 289 332 333
f 289 334 332
f 289 335 334
f 289 336 335
f 289 337 336
f 289 338 337
f 289 339 338
f 289 340 339
f 289 341 340
f 289 342 341
f 289 343 342
f 289 344 343
f 289 345 344
f 289 346 345
f 289 347 346
f 289 348 347
f 289 349 348
f 289 350 349
f 289 351 350
f 289 352 351
f 289 353 352
f 289 354 353
f 289 355 354
f 289 356 355
f 289 357 356
f 289 358 357
f 289 359 358
f 289 360 359
f 289 361 360
f 289 362 361
f 289 363 362
f 289 364 363
f 299 365 366
f 299 366 367
f 299 367 368
f 299 368 369
f 299 369 370
f 299 370 371
f 299 371 372
f 299 372 373
f 299 373 374
f 299 374 364
f 289 300 364
f 300 301 364
f 301 302 364
f 302 303 364
f 303 304 364
f 304 305 364
f 305 306 364
f 306 307 364
f 307 308 364
f 308 309 364
f 309 310 364
f 310 311 364
f 311 312 364
f 312 313 364
f 313 314 364
f 314 315 364
f 315 316 364
f 316 317 364
f 317 318 364
f 318 319 364
f 319 320 364
f 320 321 364
f 321 322 364
f 322 323 364
f 323 324 364
f 324 325 364
f 325 326 364
f 326 327 364
f 327 328 364
f 328 329 364
f 329 330 364
f 330 331 364
f 331 299 364
