v 0.655858 0.230000 0.205276
v 0.652493 0.230000 0.205276
v 0.642432 0.230000 0.205276
v 0.625780 0.230000 0.205276
v 0.602706 0.230000 0.205276
v 0.573447 0.230000 0.205276
v 0.538304 0.230000 0.205276
v 0.497637 0.230000 0.205276
v 0.451864 0.230000 0.205276
v 0.401455 0.230000 0.205276
v 0.346925 0.230000 0.205276
v 0.288836 0.230000 0.205276
v 0.227783 0.230000 0.205276
v 0.164392 0.230000 0.205276
v 0.099315 0.230000 0.205276
v 0.033219 0.230000 0.205276
v -0.033219 0.230000 0.205276
v -0.099315 0.230000 0.205276
v -0.164392 0.230000 0.205276
v -0.227783 0.230000 0.205276
v -0.288836 0.230000 0.205276
v -0.346925 0.230000 0.205276
v -0.401455 0.230000 0.205276
v -0.451864 0.230000 0.205276
v -0.497637 0.230000 0.205276
v -0.538304 0.230000 0.205276
v -0.573447 0.230000 0.205276
v -0.602706 0.230000 0.205276
v -0.625780 0.230000 0.205276
v -0.642432 0.230000 0.205276
v -0.652493 0.230000 0.205276
v -0.655858 0.230000 0.205276
v -0.662929 0.227071 0.205276
v -0.662748 0.227248 0.205276
v -0.662562 0.227420 0.205276
v -0.662372 0.227588 0.205276
v -0.662177 0.227750 0.205276
v -0.661979 0.227908 0.205276
v -0.661777 0.228060 0.205276
v -0.661571 0.228208 0.205276
v -0.661361 0.228350 0.205276
v -0.661148 0.228486 0.205276
v -0.660931 0.228618 0.205276
v -0.660711 0.228743 0.205276
v -0.660488 0.228864 0.205276
v -0.660262 0.228978 0.205276
v -0.660033 0.229087 0.205276
v -0.659801 0.229190 0.205276
v -0.659567 0.229287 0.205276
v -0.659331 0.229378 0.205276
v -0.659092 0.229462 0.205276
v -0.658851 0.229541 0.205276
v -0.658609 0.229614 0.205276
v -0.658364 0.229681 0.205276
v -0.658118 0.229741 0.205276
v -0.657871 0.229795 0.205276
v -0.657622 0.229843 0.205276
v -0.657372 0.229885 0.205276
v -0.657121 0.229920 0.205276
v -0.656870 0.229949 0.205276
v -0.656617 0.229971 0.205276
v -0.656364 0.229987 0.205276
v -0.656111 0.229997 0.205276
v -0.655858 0.230000 0.205276
v -0.652493 0.230000 0.205276
v -0.642432 0.230000 0.205276
v -0.625780 0.230000 0.205276
v -0.602706 0.230000 0.205276
v -0.573447 0.230000 0.205276
v -0.538304 0.230000 0.205276
v -0.497637 0.230000 0.205276
v -0.451864 0.230000 0.205276
v -0.401455 0.230000 0.205276
v -0.346925 0.230000 0.205276
v -0.288836 0.230000 0.205276
v -0.227783 0.230000 0.205276
v -0.164392 0.230000 0.205276
v -0.099315 0.230000 0.205276
v -0.033219 0.230000 0.205276
v 0.033219 0.230000 0.205276
v 0.099315 0.230000 0.205276
v 0.164392 0.230000 0.205276
v 0.227783 0.230000 0.205276
v 0.288836 0.230000 0.205276
v 0.346925 0.230000 0.205276
v 0.401455 0.230000 0.205276
v 0.451864 0.230000 0.205276
v 0.497637 0.230000 0.205276
v 0.538304 0.230000 0.205276
v 0.573447 0.230000 0.205276
v 0.602706 0.230000 0.205276
v 0.625780 0.230000 0.205276
v 0.642432 0.230000 0.205276
v 0.652493 0.230000 0.205276
v 0.655858 0.230000 0.205276
v 0.656111 0.229997 0.205276
v 0.656364 0.229987 0.205276
v 0.656617 0.229971 0.205276
v 0.656870 0.229949 0.205276
v 0.657121 0.229920 0.205276
v 0.657372 0.229885 0.205276
v 0.657622 0.229843 0.205276
v 0.657871 0.229795 0.205276
v 0.658118 0.229741 0.205276
v 0.658364 0.229681 0.205276
v 0.658609 0.229614 0.205276
v 0.658851 0.229541 0.205276
v 0.659092 0.229462 0.205276
v 0.659331 0.229378 0.205276
v 0.659567 0.229287 0.205276
v 0.659801 0.229190 0.205276
v 0.660033 0.229087 0.205276
v 0.660262 0.228978 0.205276
v 0.660488 0.228864 0.205276
v 0.660711 0.228743 0.205276
v 0.660931 0.228618 0.205276
v 0.661148 0.228486 0.205276
v 0.661361 0.228350 0.205276
v 0.661571 0.228208 0.205276
v 0.661777 0.228060 0.205276
v 0.661979 0.227908 0.205276
v 0.662177 0.227750 0.205276
v 0.662372 0.227588 0.205276
v 0.662562 0.227420 0.205276
v 0.662748 0.227248 0.205276
v 0.662929 0.227071 0.205276
f 125 1 126
f 32 34 33
f 34 36 35
f 36 38 37
f 38 40 39
f 40 42 41
f 42 44 43
f 44 46 45
f 46 48 47
f 48 50 49
f 50 52 51
f 52 54 53
f 54 56 55
f 56 58 57
f 58 60 59
f 60 62 61
f 96 98 97
f 98 100 99
f 100 102 101
f 102 104 103
f 104 106 105
f 106 108 107
f 108 110 109
f 110 112 111
f 112 114 113
f 114 116 115
f 116 118 117
f 118 120 119
f 120 122 121
f 122 124 123
f 124 1 125
f 32 36 34
f 36 40 38
f 40 44 42
f 44 48 46
f 48 52 50
f 52 56 54
f 56 60 58
f 60 63 62
f 96 100 98
f 100 104 102
f 104 108 106
f 108 112 110
f 112 116 114
f 116 120 118
f 120 124 122
f 32 40 36
f 40 48 44
f 48 56 52
f 56 63 60
f 96 104 100
f 104 112 108
f 112 120 116
f 120 1 124
f 32 48 40
f 48 63 56
f 96 112 104
f 112 1 120
f 32 63 48
f 96 1 112
