v 1.992500 -0.350000 -4.837000
v 1.992136 -0.877534 -4.826163
v 1.992500 -0.885067 -4.837000
v 1.991666 -0.350000 -4.820560
v 1.991078 -0.870360 -4.815602
v 1.989380 -0.863565 -4.805353
v 1.989174 -0.350000 -4.804289
v 1.987097 -0.857170 -4.795453
v 1.985048 -0.350000 -4.788353
v 1.984277 -0.851195 -4.785932
v 1.980954 -0.845637 -4.776793
v 1.979331 -0.350000 -4.772917
v 1.977149 -0.840489 -4.768018
v 1.972885 -0.835739 -4.759593
v 1.972081 -0.350000 -4.758138
v 1.968184 -0.831381 -4.751503
v 1.963374 -0.350000 -4.744169
v 1.963073 -0.827415 -4.743754
v 1.957579 -0.823854 -4.736365
v 1.953298 -0.350000 -4.731152
v 1.951733 -0.820709 -4.729359
v 1.945564 -0.817994 -4.722758
v 1.941957 -0.350000 -4.719221
v 1.939103 -0.815712 -4.716577
v 1.932386 -0.813858 -4.710821
v 1.929467 -0.350000 -4.708499
v 1.925451 -0.812424 -4.705495
v 1.918332 -0.811404 -4.700604
v 1.915957 -0.350000 -4.699095
v 1.911056 -0.810789 -4.696148
v 1.903617 -0.810576 -4.692116
v 1.901564 -0.350000 -4.691107
v 1.896001 -0.810758 -4.688497
v 1.888195 -0.811332 -4.685277
v 1.886437 -0.350000 -4.684615
v 1.880186 -0.812294 -4.682446
v 1.871971 -0.813650 -4.680014
v 1.870731 -0.350000 -4.679687
v 1.863550 -0.815413 -4.678001
v 1.854921 -0.817594 -4.676422
v 1.854607 -0.350000 -4.676374
v 1.846087 -0.820203 -4.675298
v 1.838230 -0.350000 -4.674709
v 1.837066 -0.823245 -4.674650
v 1.827892 -0.826720 -4.674507
v 1.821770 -0.350000 -4.674709
v 1.818599 -0.830628 -4.674895
v 1.809223 -0.834968 -4.675840
v 1.805393 -0.350000 -4.676374
v 1.799814 -0.839720 -4.677352
v 1.790452 -0.844833 -4.679416
v 1.789269 -0.350000 -4.679687
v 1.781214 -0.850258 -4.682014
v 1.773563 -0.350000 -4.684615
v 1.772180 -0.855943 -4.685132
v 1.763408 -0.861848 -4.688752
v 1.758436 -0.350000 -4.691107
v 1.754910 -0.867954 -4.692868
v 1.746686 -0.874249 -4.697468
v 1.744043 -0.350000 -4.699095
v 1.738739 -0.880719 -4.702546
v 1.731075 -0.887350 -4.708090
v 1.730533 -0.350000 -4.708499
v 1.723719 -0.894116 -4.714086
v 1.718043 -0.350000 -4.719221
v 1.716702 -0.900991 -4.720518
v 1.710055 -0.907946 -4.727368
v 1.706702 -0.350000 -4.731152
v 1.703808 -0.914954 -4.734620
v 1.697992 -0.921982 -4.742240
v 1.696626 -0.350000 -4.744169
v 1.692634 -0.928991 -4.750187
v 1.687919 -0.350000 -4.758138
v 1.687761 -0.935945 -4.758421
v 1.683401 -0.942807 -4.766900
v 1.680669 -0.350000 -4.772917
v 1.679571 -0.949541 -4.775572
v 1.676272 -0.956110 -4.784375
v 1.674952 -0.350000 -4.788353
v 1.673510 -0.962479 -4.793245
v 1.671286 -0.968613 -4.802120
v 1.670826 -0.350000 -4.804289
v 1.669595 -0.974489 -4.810950
v 1.668415 -0.980107 -4.819717
v 1.668334 -0.350000 -4.820560
v 1.667725 -0.985474 -4.828405
v 1.667500 -0.350000 -4.837000
v 1.667500 -0.990594 -4.837000
f 1 3 2
f 1 2 4
f 4 2 5
f 4 5 6
f 4 6 7
f 7 6 8
f 7 8 9
f 9 8 10
f 9 10 11
f 9 11 12
f 12 11 13
f 12 13 14
f 12 14 15
f 15 14 16
f 15 16 17
f 17 16 18
f 17 18 19
f 17 19 20
f 20 19 21
f 20 21 22
f 20 22 23
f 23 22 24
f 23 24 25
f 23 25 26
f 26 25 27
f 26 27 28
f 26 28 29
f 29 28 30
f 29 30 31
f 29 31 32
f 32 31 33
f 32 33 34
f 32 34 35
f 35 34 36
f 35 36 37
f 35 37 38
f 38 37 39
f 38 39 40
f 38 40 41
f 41 40 42
f 41 42 43
f 43 42 44
f 43 44 45
f 43 45 46
f 46 45 47
f 46 47 48
f 46 48 49
f 49 48 50
f 49 50 51
f 49 51 52
f 52 51 53
f 52 53 54
f 54 53 55
f 54 55 56
f 54 56 57
f 57 56 58
f 57 58 59
f 57 59 60
f 60 59 61
f 60 61 62
f 60 62 63
f 63 62 64
f 63 64 65
f 65 64 66
f 65 66 67
f 65 67 68
f 68 67 69
f 68 69 70
f 68 70 71
f 71 70 72
f 71 72 73
f 73 72 74
f 73 74 75
f 73 75 76
f 76 75 77
f 76 77 78
f 76 78 79
f 79 78 80
f 79 80 81
f 79 81 82
f 82 81 83
f 82 83 84
f 82 84 85
f 85 84 86
f 85 86 87
f 87 86 88
