v 0.442500 -0.325000 -6.413000
v 0.442724 -0.427710 -6.421447
v 0.442500 -0.429200 -6.413000
v 0.443334 -0.325000 -6.429440
v 0.443409 -0.426194 -6.430048
v 0.444570 -0.424658 -6.438761
v 0.445826 -0.325000 -6.445711
v 0.446228 -0.423109 -6.447544
v 0.448398 -0.421555 -6.456357
v 0.449952 -0.325000 -6.461647
v 0.451098 -0.420003 -6.465157
v 0.454346 -0.418461 -6.473904
v 0.455669 -0.325000 -6.477083
v 0.458151 -0.416936 -6.482554
v 0.462502 -0.415436 -6.491058
v 0.462919 -0.325000 -6.491862
v 0.467380 -0.413971 -6.499365
v 0.471626 -0.325000 -6.505831
v 0.472770 -0.412550 -6.507425
v 0.478655 -0.411182 -6.515187
v 0.481702 -0.325000 -6.518848
v 0.485018 -0.409874 -6.522602
v 0.491844 -0.408637 -6.529619
v 0.493043 -0.325000 -6.530779
v 0.499101 -0.407477 -6.536198
v 0.505533 -0.325000 -6.541501
v 0.506733 -0.406398 -6.542317
v 0.514680 -0.405403 -6.547958
v 0.519043 -0.325000 -6.550905
v 0.522882 -0.404496 -6.553100
v 0.531279 -0.403681 -6.557726
v 0.533436 -0.325000 -6.558893
v 0.539810 -0.402960 -6.561815
v 0.548418 -0.402337 -6.565350
v 0.548563 -0.325000 -6.565385
v 0.557063 -0.401812 -6.568326
v 0.564269 -0.325000 -6.570313
v 0.565737 -0.401383 -6.570760
v 0.574437 -0.401046 -6.572670
v 0.580393 -0.325000 -6.573626
v 0.583156 -0.400798 -6.574075
v 0.591888 -0.400636 -6.574994
v 0.596770 -0.325000 -6.575291
v 0.600628 -0.400557 -6.575445
v 0.609372 -0.400557 -6.575445
v 0.613230 -0.325000 -6.575291
v 0.618112 -0.400636 -6.574994
v 0.626844 -0.400798 -6.574075
v 0.629607 -0.325000 -6.573626
v 0.635563 -0.401046 -6.572670
v 0.644263 -0.401383 -6.570760
v 0.645731 -0.325000 -6.570313
v 0.652937 -0.401812 -6.568326
v 0.661437 -0.325000 -6.565385
v 0.661582 -0.402337 -6.565350
v 0.670190 -0.402960 -6.561815
v 0.676564 -0.325000 -6.558893
v 0.678721 -0.403681 -6.557726
v 0.687118 -0.404496 -6.553100
v 0.690957 -0.325000 -6.550905
v 0.695320 -0.405403 -6.547958
v 0.703267 -0.406398 -6.542317
v 0.704467 -0.325000 -6.541501
v 0.710899 -0.407477 -6.536198
v 0.716957 -0.325000 -6.530779
v 0.718156 -0.408637 -6.529619
v 0.724982 -0.409874 -6.522602
v 0.728298 -0.325000 -6.518848
v 0.731345 -0.411182 -6.515187
v 0.737230 -0.412550 -6.507425
v 0.738374 -0.325000 -6.505831
v 0.742620 -0.413971 -6.499365
v 0.747081 -0.325000 -6.491862
v 0.747498 -0.415436 -6.491058
v 0.751849 -0.416936 -6.482554
v 0.754331 -0.325000 -6.477083
v 0.755654 -0.418461 -6.473904
v 0.758902 -0.420003 -6.465157
v 0.760048 -0.325000 -6.461647
v 0.761602 -0.421555 -6.456357
v 0.763772 -0.423109 -6.447544
v 0.764174 -0.325000 -6.445711
v 0.765430 -0.424658 -6.438761
v 0.766591 -0.426194 -6.430048
v 0.766666 -0.325000 -6.429440
v 0.767276 -0.427710 -6.421447
v 0.767500 -0.325000 -6.413000
v 0.767500 -0.429200 -6.413000
f 1 2 3
f 1 4 2
f 4 5 2
f 4 6 5
f 4 7 6
f 7 8 6
f 7 9 8
f 7 10 9
f 10 11 9
f 10 12 11
f 10 13 12
f 13 14 12
f 13 15 14
f 13 16 15
f 16 17 15
f 16 18 17
f 18 19 17
f 18 20 19
f 18 21 20
f 21 22 20
f 21 23 22
f 21 24 23
f 24 25 23
f 24 26 25
f 26 27 25
f 26 28 27
f 26 29 28
f 29 30 28
f 29 31 30
f 29 32 31
f 32 33 31
f 32 34 33
f 32 35 34
f 35 36 34
f 35 37 36
f 37 38 36
f 37 39 38
f 37 40 39
f 40 41 39
f 40 42 41
f 40 43 42
f 43 44 42
f 43 45 44
f 43 46 45
f 46 47 45
f 46 48 47
f 46 49 48
f 49 50 48
f 49 51 50
f 49 52 51
f 52 53 51
f 52 54 53
f 54 55 53
f 54 56 55
f 54 57 56
f 57 58 56
f 57 59 58
f 57 60 59
f 60 61 59
f 60 62 61
f 60 63 62
f 63 64 62
f 63 65 64
f 65 66 64
f 65 67 66
f 65 68 67
f 68 69 67
f 68 70 69
f 68 71 70
f 71 72 70
f 71 73 72
f 73 74 72
f 73 75 74
f 73 76 75
f 76 77 75
f 76 78 77
f 76 79 78
f 79 80 78
f 79 81 80
f 79 82 81
f 82 83 81
f 82 84 83
f 82 85 84
f 85 86 84
f 85 87 86
f 87 88 86
