v 0.629327 -0.029105 -1.051000
v 0.629370 -0.028167 -1.051000
v 0.629411 -0.027229 -1.051000
v 0.629451 -0.026290 -1.051000
v 0.629490 -0.025352 -1.051000
v 0.629527 -0.024413 -1.051000
v 0.629562 -0.023475 -1.051000
v 0.629597 -0.022536 -1.051000
v 0.629630 -0.021598 -1.051000
v 0.629661 -0.020659 -1.051000
v 0.629691 -0.019720 -1.051000
v 0.629720 -0.018781 -1.051000
v 0.629747 -0.017843 -1.051000
v 0.629773 -0.016904 -1.051000
v 0.629798 -0.015965 -1.051000
v 0.629821 -0.015026 -1.051000
v 0.629842 -0.014087 -1.051000
v 0.629863 -0.013148 -1.051000
v 0.629882 -0.012209 -1.051000
v 0.629899 -0.011270 -1.051000
v 0.629915 -0.010331 -1.051000
v 0.629930 -0.009392 -1.051000
v 0.629943 -0.008453 -1.051000
v 0.629955 -0.007513 -1.051000
v 0.629966 -0.006574 -1.051000
v 0.629975 -0.005635 -1.051000
v 0.629982 -0.004696 -1.051000
v 0.629989 -0.003757 -1.051000
v 0.629994 -0.002818 -1.051000
v 0.629997 -0.001878 -1.051000
v 0.629999 -0.000939 -1.051000
v 0.630000 0.000000 -1.051000
v 0.629999 0.000939 -1.051000
v 0.629997 0.001878 -1.051000
v 0.629994 0.002818 -1.051000
v 0.629989 0.003757 -1.051000
v 0.629982 0.004696 -1.051000
v 0.629975 0.005635 -1.051000
v 0.629966 0.006574 -1.051000
v 0.629955 0.007513 -1.051000
v 0.629943 0.008453 -1.051000
v 0.629930 0.009392 -1.051000
v 0.629915 0.010331 -1.051000
v 0.629899 0.011270 -1.051000
v 0.629882 0.012209 -1.051000
v 0.629863 0.013148 -1.051000
v 0.629842 0.014087 -1.051000
v 0.629821 0.015026 -1.051000
v 0.629798 0.015965 -1.051000
v 0.629773 0.016904 -1.051000
v 0.629747 0.017843 -1.051000
v 0.629720 0.018781 -1.051000
v 0.629691 0.019720 -1.051000
v 0.629661 0.020659 -1.051000
v 0.629630 0.021598 -1.051000
v 0.629597 0.022536 -1.051000
v 0.629562 0.023475 -1.051000
v 0.629527 0.024413 -1.051000
v 0.629490 0.025352 -1.051000
v 0.629451 0.026290 -1.051000
v 0.629411 0.027229 -1.051000
v 0.629370 0.028167 -1.051000
v 0.629327 0.029105 -1.051000
v 0.494900 0.009942 -1.051000
v 0.494906 0.009622 -1.051000
v 0.494913 0.009301 -1.051000
v 0.494919 0.008980 -1.051000
v 0.494924 0.008660 -1.051000
v 0.494930 0.008339 -1.051000
v 0.494935 0.008018 -1.051000
v 0.494940 0.007697 -1.051000
v 0.494945 0.007377 -1.051000
v 0.494950 0.007056 -1.051000
v 0.494954 0.006735 -1.051000
v 0.494958 0.006415 -1.051000
v 0.494962 0.006094 -1.051000
v 0.494966 0.005773 -1.051000
v 0.494970 0.005452 -1.051000
v 0.494973 0.005132 -1.051000
v 0.494977 0.004811 -1.051000
v 0.494980 0.004490 -1.051000
v 0.494982 0.004170 -1.051000
v 0.494985 0.003849 -1.051000
v 0.494987 0.003528 -1.051000
v 0.494990 0.003207 -1.051000
v 0.494992 0.002887 -1.051000
v 0.494993 0.002566 -1.051000
v 0.494995 0.002245 -1.051000
v 0.494996 0.001924 -1.051000
v 0.494997 0.001604 -1.051000
v 0.494998 0.001283 -1.051000
v 0.494999 0.000962 -1.051000
v 0.495000 0.000641 -1.051000
v 0.495000 0.000321 -1.051000
v 0.495000 0.000000 -1.051000
v 0.494596 -0.020000 -1.061000
v 0.494596 -0.019996 -1.060715
v 0.494596 -0.019984 -1.060431
v 0.494597 -0.019963 -1.060147
v 0.494598 -0.019934 -1.059863
v 0.494600 -0.019898 -1.059581
v 0.494602 -0.019853 -1.059300
v 0.494604 -0.019800 -1.059020
v 0.494606 -0.019740 -1.058741
v 0.494609 -0.019671 -1.058465
v 0.494612 -0.019595 -1.058190
v 0.494615 -0.019511 -1.057918
v 0.494619 -0.019419 -1.057648
v 0.494623 -0.019319 -1.057381
v 0.494627 -0.019212 -1.057117
v 0.494631 -0.019097 -1.056856
v 0.494636 -0.018974 -1.056598
v 0.494641 -0.018844 -1.056344
v 0.494646 -0.018707 -1.056093
v 0.494652 -0.018563 -1.055847
v 0.494657 -0.018412 -1.055605
v 0.494663 -0.018254 -1.055367
v 0.494669 -0.018089 -1.055134
v 0.494676 -0.017918 -1.054905
v 0.494682 -0.017740 -1.054681
v 0.494689 -0.017556 -1.054463
v 0.494695 -0.017365 -1.054249
v 0.494702 -0.017168 -1.054041
v 0.494709 -0.016966 -1.053839
v 0.494716 -0.016757 -1.053643
v 0.494723 -0.016543 -1.053453
v 0.494731 -0.016324 -1.053269
v 0.494738 -0.016099 -1.053091
v 0.494746 -0.015869 -1.052919
v 0.494753 -0.015635 -1.052754
v 0.494761 -0.015395 -1.052596
v 0.494768 -0.015151 -1.052444
v 0.494776 -0.014903 -1.052300
v 0.494783 -0.014651 -1.052162
v 0.494791 -0.014395 -1.052032
v 0.494798 -0.014135 -1.051909
v 0.494806 -0.013872 -1.051793
v 0.494813 -0.013606 -1.051686
v 0.494820 -0.013336 -1.051585
v 0.494828 -0.013063 -1.051493
v 0.494835 -0.012788 -1.051408
v 0.494842 -0.012511 -1.051331
v 0.494849 -0.012231 -1.051262
v 0.494856 -0.011949 -1.051201
v 0.494862 -0.011666 -1.051148
v 0.494869 -0.011381 -1.051103
v 0.494876 -0.011095 -1.051066
v 0.494882 -0.010808 -1.051037
v 0.494888 -0.010520 -1.051017
v 0.494894 -0.010231 -1.051004
v 0.494900 -0.009942 -1.051000
v 0.494596 -0.020000 -1.061000
v 0.628784 -0.039129 -1.061000
f 153 1 2
f 153 2 3
f 153 3 4
f 153 4 5
f 153 5 6
f 153 6 7
f 153 7 8
f 153 8 9
f 153 9 10
f 153 10 11
f 153 11 12
f 153 12 13
f 153 13 14
f 153 14 15
f 153 15 16
f 153 16 17
f 153 17 18
f 153 18 19
f 153 19 20
f 153 20 21
f 153 21 22
f 153 22 23
f 153 23 24
f 153 24 25
f 153 25 26
f 153 26 27
f 153 27 28
f 153 28 29
f 153 29 30
f 153 30 31
f 153 31 32
f 153 32 33
f 153 33 34
f 153 34 35
f 153 35 36
f 153 36 37
f 153 37 38
f 153 38 39
f 153 39 40
f 153 40 41
f 153 41 42
f 153 42 43
f 153 43 44
f 153 44 45
f 153 45 46
f 153 46 47
f 153 47 48
f 153 48 49
f 153 49 50
f 153 50 51
f 153 51 52
f 153 52 53
f 153 53 54
f 153 54 55
f 153 55 56
f 153 56 57
f 153 57 58
f 153 58 59
f 153 59 60
f 153 60 61
f 153 61 62
f 153 62 63
f 153 63 64
f 153 64 65
f 153 65 66
f 153 66 67
f 153 67 68
f 153 68 69
f 153 69 70
f 153 70 71
f 153 71 72
f 153 72 73
f 153 73 74
f 153 74 75
f 153 75 76
f 153 76 77
f 153 77 78
f 153 78 79
f 153 79 80
f 153 80 81
f 153 81 82
f 153 82 83
f 153 83 84
f 153 84 85
f 153 85 86
f 153 86 87
f 153 87 88
f 153 88 89
f 153 89 90
f 153 90 91
f 153 91 92
f 153 92 93
f 153 93 94
f 153 94 95
f 97 98 99
f 97 99 100
f 97 100 101
f 97 101 102
f 97 102 103
f 97 103 104
f 97 104 105
f 97 105 106
f 97 106 107
f 97 107 108
f 97 108 109
f 97 109 110
f 97 110 111
f 97 111 112
f 97 112 113
f 97 113 114
f 97 114 115
f 97 115 116
f 97 116 117
f 97 117 118
f 97 118 119
f 97 119 120
f 97 120 121
f 97 121 122
f 97 122 123
f 97 123 124
f 97 124 125
f 97 125 126
f 97 126 127
f 97 127 128
f 97 128 129
f 97 129 130
f 97 130 131
f 97 131 132
f 97 132 133
f 97 133 134
f 97 134 135
f 97 135 136
f 97 136 137
f 97 137 138
f 97 138 139
f 97 139 140
f 97 140 141
f 97 141 142
f 97 142 143
f 97 143 144
f 97 144 145
f 97 145 146
f 97 146 147
f 97 147 148
f 97 148 149
f 97 149 150
f 97 150 151
f 95 96 97
f 95 97 151
f 95 151 152
f 95 152 153
