v -0.035839 0.016837 0.675888
v -0.035839 0.220000 0.675888
v -0.021986 0.220000 0.727588
v -0.021986 0.000000 0.727588
v -0.037701 0.000000 0.668938
v -0.037701 0.010000 0.668938
v -0.035839 0.016837 0.675888
v -0.035904 0.016611 0.675658
v -0.035973 0.016388 0.675431
v -0.036048 0.016168 0.675206
v -0.036127 0.015951 0.674984
v -0.036212 0.015736 0.674765
v -0.036301 0.015525 0.674549
v -0.036395 0.015317 0.674336
v -0.036494 0.015112 0.674125
v -0.036597 0.014911 0.673918
v -0.036705 0.014712 0.673713
v -0.036818 0.014517 0.673511
v -0.036934 0.014325 0.673313
v -0.037055 0.014137 0.673118
v -0.037180 0.013952 0.672925
v -0.037310 0.013770 0.672736
v -0.037443 0.013592 0.672551
v -0.037580 0.013418 0.672368
v -0.037722 0.013247 0.672189
v -0.037867 0.013080 0.672014
v -0.038016 0.012916 0.671842
v -0.038168 0.012757 0.671673
v -0.038325 0.012601 0.671509
v -0.038485 0.012450 0.671348
v -0.038648 0.012302 0.671190
v -0.038815 0.012159 0.671037
v -0.038985 0.012020 0.670888
v -0.039159 0.011885 0.670742
v -0.039335 0.011754 0.670601
v -0.039515 0.011627 0.670464
v -0.039698 0.011505 0.670331
v -0.039884 0.011388 0.670202
v -0.040072 0.011275 0.670078
v -0.040263 0.011166 0.669958
v -0.040456 0.011063 0.669842
v -0.040651 0.010963 0.669731
v -0.040849 0.010869 0.669624
v -0.041049 0.010779 0.669522
v -0.041250 0.010694 0.669424
v -0.041453 0.010614 0.669332
v -0.041657 0.010539 0.669244
v -0.041863 0.010468 0.669160
v -0.042070 0.010403 0.669082
v -0.042279 0.010343 0.669008
v -0.042488 0.010288 0.668940
v -0.042698 0.010237 0.668876
v -0.042909 0.010192 0.668817
v -0.043121 0.010151 0.668763
v -0.043333 0.010116 0.668713
v -0.043546 0.010085 0.668668
v -0.043760 0.010059 0.668628
v -0.043973 0.010038 0.668593
v -0.044187 0.010021 0.668562
v -0.044401 0.010009 0.668537
v -0.044615 0.010002 0.668515
v -0.044829 0.010000 0.668499
f 2 3 4
f 4 5 6
f 8 9 10
f 8 10 11
f 8 11 12
f 8 12 13
f 8 13 14
f 8 14 15
f 8 15 16
f 8 16 17
f 8 17 18
f 8 18 19
f 8 19 20
f 8 20 21
f 8 21 22
f 8 22 23
f 8 23 24
f 8 24 25
f 8 25 26
f 8 26 27
f 8 27 28
f 8 28 29
f 8 29 30
f 8 30 31
f 8 31 32
f 8 32 33
f 8 33 34
f 8 34 35
f 8 35 36
f 8 36 37
f 8 37 38
f 8 38 39
f 8 39 40
f 8 40 41
f 8 41 42
f 8 42 43
f 8 43 44
f 8 44 45
f 8 45 46
f 8 46 47
f 8 47 48
f 8 48 49
f 8 49 50
f 8 50 51
f 8 51 52
f 8 52 53
f 8 53 54
f 8 54 55
f 8 55 56
f 8 56 57
f 8 57 58
f 8 58 59
f 8 59 60
f 8 60 61
f 8 61 62
f 1 2 4
f 1 4 6
f 1 6 7
f 1 7 8
f 1 8 62
