v 1.185000 -1.056502 -4.913818
v 1.191563 -1.060884 -4.923456
v 1.185000 -1.001197 -4.913818
v 1.191602 -1.005848 -4.923514
v 1.197856 -1.065194 -4.933170
v 1.197927 -1.010418 -4.933284
v 1.203882 -1.069432 -4.942962
v 1.203981 -1.014907 -4.943128
v 1.209646 -1.073595 -4.952827
v 1.209768 -1.019312 -4.953043
v 1.215150 -1.077681 -4.962766
v 1.215290 -1.023632 -4.963027
v 1.220399 -1.081688 -4.972776
v 1.220552 -1.027864 -4.973077
v 1.225396 -1.085615 -4.982855
v 1.225557 -1.032008 -4.983192
v 1.230145 -1.089460 -4.993003
v 1.230311 -1.036060 -4.993369
v 1.234649 -1.093221 -5.003217
v 1.234815 -1.040020 -5.003606
v 1.238912 -1.096897 -5.013496
v 1.239075 -1.043885 -5.013902
v 1.242934 -1.100484 -5.023837
v 1.243092 -1.047654 -5.024252
v 1.246717 -1.103983 -5.034234
v 1.246866 -1.051325 -5.034653
v 1.250261 -1.107390 -5.044685
v 1.250398 -1.054898 -5.045101
v 1.253566 -1.110704 -5.055186
v 1.253691 -1.058370 -5.055593
v 1.256632 -1.113924 -5.065731
v 1.256743 -1.061740 -5.066126
v 1.259459 -1.117047 -5.076318
v 1.259556 -1.065006 -5.076695
v 1.262049 -1.120072 -5.086942
v 1.262132 -1.068168 -5.087297
v 1.264402 -1.122997 -5.097600
v 1.264470 -1.071224 -5.097929
v 1.266517 -1.125821 -5.108287
v 1.266573 -1.074173 -5.108586
v 1.268395 -1.128542 -5.119000
v 1.268440 -1.077013 -5.119267
v 1.270038 -1.131160 -5.129736
v 1.270072 -1.079745 -5.129969
v 1.271445 -1.133675 -5.140493
v 1.271469 -1.082369 -5.140689
v 1.272617 -1.136088 -5.151269
v 1.272634 -1.084885 -5.151427
v 1.273555 -1.138396 -5.162060
v 1.273565 -1.087292 -5.162179
v 1.274259 -1.140601 -5.172863
v 1.274264 -1.089591 -5.172943
v 1.274730 -1.142702 -5.183677
v 1.274732 -1.091782 -5.183718
v 1.274968 -1.144699 -5.194497
v 1.274968 -1.093864 -5.194501
v 1.274974 -1.095837 -5.205290
v 1.274974 -1.146591 -5.205323
v 1.274749 -1.097702 -5.216084
v 1.274748 -1.148379 -5.216151
v 1.274291 -1.099458 -5.226881
v 1.274286 -1.150062 -5.226981
v 1.273598 -1.101106 -5.237680
v 1.273589 -1.151641 -5.237811
v 1.272667 -1.102645 -5.248481
v 1.272652 -1.153116 -5.248641
v 1.271497 -1.104076 -5.259282
v 1.271476 -1.154486 -5.259470
v 1.270086 -1.105399 -5.270083
v 1.270056 -1.155752 -5.270296
v 1.268431 -1.106613 -5.280882
v 1.268393 -1.156914 -5.281118
v 1.266531 -1.107719 -5.291679
v 1.266483 -1.157971 -5.291936
v 1.264383 -1.108717 -5.302472
v 1.264325 -1.158925 -5.302748
v 1.261987 -1.109607 -5.313257
v 1.261918 -1.159775 -5.313550
v 1.259345 -1.110391 -5.324023
v 1.259265 -1.160523 -5.324329
v 1.256460 -1.111070 -5.334759
v 1.256369 -1.161170 -5.335076
v 1.253334 -1.111644 -5.345453
v 1.253233 -1.161717 -5.345777
v 1.249969 -1.112116 -5.356094
v 1.249859 -1.162165 -5.356422
v 1.246367 -1.112486 -5.366671
v 1.246249 -1.162517 -5.366999
v 1.242532 -1.112756 -5.377172
v 1.242408 -1.162772 -5.377496
v 1.238465 -1.112926 -5.387588
v 1.238337 -1.162932 -5.387903
v 1.234169 -1.112999 -5.397905
v 1.234039 -1.162999 -5.398207
v 1.229644 -1.112975 -5.408117
v 1.229515 -1.162975 -5.408400
v 1.224890 -1.112858 -5.418224
v 1.224765 -1.162861 -5.418483
v 1.219904 -1.112651 -5.428227
v 1.219786 -1.162661 -5.428459
v 1.214684 -1.112355 -5.438130
v 1.214576 -1.162377 -5.438330
v 1.209228 -1.111974 -5.447932
v 1.209134 -1.162012 -5.448098
v 1.203533 -1.111512 -5.457637
v 1.203457 -1.161570 -5.457765
v 1.197599 -1.110969 -5.467246
v 1.197544 -1.161052 -5.467333
v 1.191422 -1.110351 -5.476760
v 1.191392 -1.160462 -5.476804
v 1.185000 -1.159802 -5.486182
v 1.185000 -1.109658 -5.486182
f 1 2 3
f 2 4 3
f 2 5 4
f 5 6 4
f 5 7 6
f 7 8 6
f 7 9 8
f 9 10 8
f 9 11 10
f 11 12 10
f 11 13 12
f 13 14 12
f 13 15 14
f 15 16 14
f 15 17 16
f 17 18 16
f 17 19 18
f 19 20 18
f 19 21 20
f 21 22 20
f 21 23 22
f 23 24 22
f 23 25 24
f 25 26 24
f 25 27 26
f 27 28 26
f 27 29 28
f 29 30 28
f 29 31 30
f 31 32 30
f 31 33 32
f 33 34 32
f 33 35 34
f 35 36 34
f 35 37 36
f 37 38 36
f 37 39 38
f 39 40 38
f 39 41 40
f 41 42 40
f 41 43 42
f 43 44 42
f 43 45 44
f 45 46 44
f 45 47 46
f 47 48 46
f 47 49 48
f 49 50 48
f 49 51 50
f 51 52 50
f 51 53 52
f 53 54 52
f 53 55 54
f 55 56 54
f 55 57 56
f 55 58 57
f 58 59 57
f 58 60 59
f 60 61 59
f 60 62 61
f 62 63 61
f 62 64 63
f 64 65 63
f 64 66 65
f 66 67 65
f 66 68 67
f 68 69 67
f 68 70 69
f 70 71 69
f 70 72 71
f 72 73 71
f 72 74 73
f 74 75 73
f 74 76 75
f 76 77 75
f 76 78 77
f 78 79 77
f 78 80 79
f 80 81 79
f 80 82 81
f 82 83 81
f 82 84 83
f 84 85 83
f 84 86 85
f 86 87 85
f 86 88 87
f 88 89 87
f 88 90 89
f 90 91 89
f 90 92 91
f 92 93 91
f 92 94 93
f 94 95 93
f 94 96 95
f 96 97 95
f 96 98 97
f 98 99 97
f 98 100 99
f 100 101 99
f 100 102 101
f 102 103 101
f 102 104 103
f 104 105 103
f 104 106 105
f 106 107 105
f 106 108 107
f 108 109 107
f 108 110 109
f 110 111 109
f 111 112 109
