v 0.392500 -0.275000 -6.413000
v 0.393590 -0.275000 -6.434498
v 0.396850 -0.275000 -6.455776
v 0.402245 -0.275000 -6.476615
v 0.409721 -0.275000 -6.496801
v 0.419201 -0.275000 -6.516127
v 0.430588 -0.275000 -6.534394
v 0.443764 -0.275000 -6.551417
v 0.458595 -0.275000 -6.567018
v 0.474927 -0.275000 -6.581040
v 0.492595 -0.275000 -6.593337
v 0.511416 -0.275000 -6.603783
v 0.531198 -0.275000 -6.612272
v 0.551736 -0.275000 -6.618716
v 0.572822 -0.275000 -6.623050
v 0.594237 -0.275000 -6.625227
v 0.615763 -0.275000 -6.625227
v 0.637178 -0.275000 -6.623050
v 0.658264 -0.275000 -6.618716
v 0.678802 -0.275000 -6.612272
v 0.698584 -0.275000 -6.603783
v 0.717405 -0.275000 -6.593337
v 0.735073 -0.275000 -6.581040
v 0.751405 -0.275000 -6.567018
v 0.766236 -0.275000 -6.551417
v 0.779412 -0.275000 -6.534394
v 0.790799 -0.275000 -6.516127
v 0.800279 -0.275000 -6.496801
v 0.807755 -0.275000 -6.476615
v 0.813150 -0.275000 -6.455776
v 0.816410 -0.275000 -6.434498
v 0.817500 -0.275000 -6.413000
v 0.816410 -0.275000 -6.391502
v 0.813150 -0.275000 -6.370224
v 0.807755 -0.275000 -6.349385
v 0.800279 -0.275000 -6.329199
v 0.790799 -0.275000 -6.309873
v 0.779412 -0.275000 -6.291606
v 0.766236 -0.275000 -6.274583
v 0.751405 -0.275000 -6.258982
v 0.735073 -0.275000 -6.244960
v 0.717405 -0.275000 -6.232663
v 0.698584 -0.275000 -6.222217
v 0.678802 -0.275000 -6.213728
v 0.658264 -0.275000 -6.207284
v 0.637178 -0.275000 -6.202950
v 0.615763 -0.275000 -6.200773
v 0.594237 -0.275000 -6.200773
v 0.572822 -0.275000 -6.202950
v 0.551736 -0.275000 -6.207284
v 0.531198 -0.275000 -6.213728
v 0.511416 -0.275000 -6.222217
v 0.492595 -0.275000 -6.232663
v 0.474927 -0.275000 -6.244960
v 0.458595 -0.275000 -6.258982
v 0.443764 -0.275000 -6.274583
v 0.430588 -0.275000 -6.291606
v 0.419201 -0.275000 -6.309873
v 0.409721 -0.275000 -6.329199
v 0.402245 -0.275000 -6.349385
v 0.396850 -0.275000 -6.370224
v 0.393590 -0.275000 -6.391502
v 0.500000 -0.275000 -6.413000
v 0.500539 -0.275000 -6.423623
v 0.502149 -0.275000 -6.434136
v 0.504815 -0.275000 -6.444433
v 0.508509 -0.275000 -6.454407
v 0.513194 -0.275000 -6.463957
v 0.518820 -0.275000 -6.472983
v 0.525330 -0.275000 -6.481394
v 0.532658 -0.275000 -6.489103
v 0.540729 -0.275000 -6.496031
v 0.549459 -0.275000 -6.502108
v 0.558759 -0.275000 -6.507269
v 0.568533 -0.275000 -6.511464
v 0.578681 -0.275000 -6.514648
v 0.589100 -0.275000 -6.516789
v 0.599682 -0.275000 -6.517865
v 0.610318 -0.275000 -6.517865
v 0.620900 -0.275000 -6.516789
v 0.631319 -0.275000 -6.514648
v 0.641467 -0.275000 -6.511464
v 0.651241 -0.275000 -6.507269
v 0.660541 -0.275000 -6.502108
v 0.669271 -0.275000 -6.496031
v 0.677342 -0.275000 -6.489103
v 0.684670 -0.275000 -6.481394
v 0.691180 -0.275000 -6.472983
v 0.696806 -0.275000 -6.463957
v 0.701491 -0.275000 -6.454407
v 0.705185 -0.275000 -6.444433
v 0.707851 -0.275000 -6.434136
v 0.709461 -0.275000 -6.423623
v 0.710000 -0.275000 -6.413000
v 0.709461 -0.275000 -6.402377
v 0.707851 -0.275000 -6.391864
v 0.705185 -0.275000 -6.381567
v 0.701491 -0.275000 -6.371593
v 0.696806 -0.275000 -6.362043
v 0.691180 -0.275000 -6.353017
v 0.684670 -0.275000 -6.344606
v 0.677342 -0.275000 -6.336897
v 0.669271 -0.275000 -6.329969
v 0.660541 -0.275000 -6.323892
v 0.651241 -0.275000 -6.318731
v 0.641467 -0.275000 -6.314536
v 0.631319 -0.275000 -6.311352
v 0.620900 -0.275000 -6.309211
v 0.610318 -0.275000 -6.308135
v 0.599682 -0.275000 -6.308135
v 0.589100 -0.275000 -6.309211
v 0.578681 -0.275000 -6.311352
v 0.568533 -0.275000 -6.314536
v 0.558759 -0.275000 -6.318731
v 0.549459 -0.275000 -6.323892
v 0.540729 -0.275000 -6.329969
v 0.532658 -0.275000 -6.336897
v 0.525330 -0.275000 -6.344606
v 0.518820 -0.275000 -6.353017
v 0.513194 -0.275000 -6.362043
v 0.508509 -0.275000 -6.371593
v 0.504815 -0.275000 -6.381567
v 0.502149 -0.275000 -6.391864
v 0.500539 -0.275000 -6.402377
f 1 64 2
f 1 63 64
f 2 65 3
f 2 64 65
f 3 66 4
f 3 65 66
f 4 67 5
f 4 66 67
f 5 68 6
f 5 67 68
f 6 69 7
f 6 68 69
f 7 70 8
f 7 69 70
f 8 71 9
f 8 70 71
f 9 72 10
f 9 71 72
f 10 73 11
f 10 72 73
f 11 74 12
f 11 73 74
f 12 75 13
f 12 74 75
f 13 76 14
f 13 75 76
f 14 77 15
f 14 76 77
f 15 78 16
f 15 77 78
f 16 79 17
f 16 78 79
f 17 80 18
f 17 79 80
f 18 81 19
f 18 80 81
f 19 82 20
f 19 81 82
f 20 83 21
f 20 82 83
f 21 84 22
f 21 83 84
f 22 85 23
f 22 84 85
f 23 86 24
f 23 85 86
f 24 87 25
f 24 86 87
f 25 88 26
f 25 87 88
f 26 89 27
f 26 88 89
f 27 90 28
f 27 89 90
f 28 91 29
f 28 90 91
f 29 92 30
f 29 91 92
f 30 93 31
f 30 92 93
f 31 94 32
f 31 93 94
f 32 95 33
f 32 94 95
f 33 96 34
f 33 95 96
f 34 97 35
f 34 96 97
f 35 98 36
f 35 97 98
f 36 99 37
f 36 98 99
f 37 100 38
f 37 99 100
f 38 101 39
f 38 100 101
f 39 102 40
f 39 101 102
f 40 103 41
f 40 102 103
f 41 104 42
f 41 103 104
f 42 105 43
f 42 104 105
f 43 106 44
f 43 105 106
f 44 107 45
f 44 106 107
f 45 108 46
f 45 107 108
f 46 109 47
f 46 108 109
f 47 110 48
f 47 109 110
f 48 111 49
f 48 110 111
f 49 112 50
f 49 111 112
f 50 113 51
f 50 112 113
f 51 114 52
f 51 113 114
f 52 115 53
f 52 114 115
f 53 116 54
f 53 115 116
f 54 117 55
f 54 116 117
f 55 118 56
f 55 117 118
f 56 119 57
f 56 118 119
f 57 120 58
f 57 119 120
f 58 121 59
f 58 120 121
f 59 122 60
f 59 121 122
f 60 123 61
f 60 122 123
f 61 124 62
f 61 123 124
f 62 63 1
f 62 124 63
