v 0.025000 1.575000 0.350000
v 0.025000 1.574679 0.337338
v 0.025000 1.573717 0.324708
v 0.025000 1.572117 0.312143
v 0.025000 1.569882 0.299675
v 0.025000 1.567019 0.287337
v 0.025000 1.563535 0.275159
v 0.025000 1.559438 0.263174
v 0.025000 1.554739 0.251411
v 0.025000 1.549451 0.239901
v 0.025000 1.543587 0.228675
v 0.025000 1.537161 0.217759
v 0.025000 1.530191 0.207183
v 0.025000 1.522694 0.196974
v 0.025000 1.514690 0.187157
v 0.025000 1.506198 0.177758
v 0.025000 1.497242 0.168802
v 0.025000 1.487843 0.160310
v 0.025000 1.478026 0.152306
v 0.025000 1.467817 0.144809
v 0.025000 1.457241 0.137839
v 0.025000 1.446325 0.131413
v 0.025000 1.435099 0.125549
v 0.025000 1.423589 0.120261
v 0.025000 1.411826 0.115562
v 0.025000 1.399841 0.111465
v 0.025000 1.387663 0.107981
v 0.025000 1.375325 0.105118
v 0.025000 1.362857 0.102883
v 0.025000 1.350292 0.101283
v 0.025000 1.337662 0.100321
v 0.025000 1.325000 0.100000
v -0.375000 1.575000 0.350000
v -0.375000 1.574679 0.337338
v -0.375000 1.573717 0.324708
v -0.375000 1.572117 0.312143
v -0.375000 1.569882 0.299675
v -0.375000 1.567019 0.287337
v -0.375000 1.563535 0.275159
v -0.375000 1.559438 0.263174
v -0.375000 1.554739 0.251411
v -0.375000 1.549451 0.239901
v -0.375000 1.543587 0.228675
v -0.375000 1.537161 0.217759
v -0.375000 1.530191 0.207183
v -0.375000 1.522694 0.196974
v -0.375000 1.514690 0.187157
v -0.375000 1.506198 0.177758
v -0.375000 1.497242 0.168802
v -0.375000 1.487843 0.160310
v -0.375000 1.478026 0.152306
v -0.375000 1.467817 0.144809
v -0.375000 1.457241 0.137839
v -0.375000 1.446325 0.131413
v -0.375000 1.435099 0.125549
v -0.375000 1.423589 0.120261
v -0.375000 1.411826 0.115562
v -0.375000 1.399841 0.111465
v -0.375000 1.387663 0.107981
v -0.375000 1.375325 0.105118
v -0.375000 1.362857 0.102883
v -0.375000 1.350292 0.101283
v -0.375000 1.337662 0.100321
v -0.375000 1.325000 0.100000
f 1 34 2
f 1 33 34
f 2 35 3
f 2 34 35
f 3 36 4
f 3 35 36
f 4 37 5
f 4 36 37
f 5 38 6
f 5 37 38
f 6 39 7
f 6 38 39
f 7 40 8
f 7 39 40
f 8 41 9
f 8 40 41
f 9 42 10
f 9 41 42
f 10 43 11
f 10 42 43
f 11 44 12
f 11 43 44
f 12 45 13
f 12 44 45
f 13 46 14
f 13 45 46
f 14 47 15
f 14 46 47
f 15 48 16
f 15 47 48
f 16 49 17
f 16 48 49
f 17 50 18
f 17 49 50
f 18 51 19
f 18 50 51
f 19 52 20
f 19 51 52
f 20 53 21
f 20 52 53
f 21 54 22
f 21 53 54
f 22 55 23
f 22 54 55
f 23 56 24
f 23 55 56
f 24 57 25
f 24 56 57
f 25 58 26
f 25 57 58
f 26 59 27
f 26 58 59
f 27 60 28
f 27 59 60
f 28 61 29
f 28 60 61
f 29 62 30
f 29 61 62
f 30 63 31
f 30 62 63
f 31 64 32
f 31 63 64
