v 0.371548 0.563540 -0.825000
v 0.371548 0.563540 -0.036213
v 0.371547 0.563539 -0.035995
v 0.371545 0.563535 -0.035778
v 0.371541 0.563528 -0.035562
v 0.371536 0.563519 -0.035347
v 0.371529 0.563507 -0.035132
v 0.371521 0.563493 -0.034918
v 0.371511 0.563475 -0.034705
v 0.371499 0.563456 -0.034493
v 0.371486 0.563433 -0.034282
v 0.371472 0.563408 -0.034071
v 0.371456 0.563381 -0.033860
v 0.371439 0.563351 -0.033651
v 0.371420 0.563318 -0.033442
v 0.371399 0.563282 -0.033233
v 0.371377 0.563244 -0.033026
v 0.371354 0.563203 -0.032818
v 0.371328 0.563160 -0.032611
v 0.371302 0.563114 -0.032405
v 0.371274 0.563065 -0.032199
v 0.371244 0.563014 -0.031994
v 0.371213 0.562960 -0.031789
v 0.371180 0.562903 -0.031585
v 0.371146 0.562844 -0.031381
v 0.371111 0.562782 -0.031178
v 0.371074 0.562718 -0.030977
v 0.371035 0.562652 -0.030776
v 0.370995 0.562583 -0.030576
v 0.370954 0.562511 -0.030377
v 0.370912 0.562438 -0.030180
v 0.370868 0.562362 -0.029983
v 0.370822 0.562283 -0.029788
v 0.370776 0.562202 -0.029595
v 0.370728 0.562119 -0.029403
v 0.370678 0.562034 -0.029212
v 0.370628 0.561946 -0.029023
v 0.370576 0.561857 -0.028836
v 0.370523 0.561765 -0.028650
v 0.370469 0.561671 -0.028467
v 0.370413 0.561575 -0.028285
v 0.370357 0.561476 -0.028105
v 0.370298 0.561376 -0.027927
v 0.370239 0.561273 -0.027750
v 0.370178 0.561168 -0.027575
v 0.370117 0.561061 -0.027402
v 0.370053 0.560951 -0.027231
v 0.369989 0.560839 -0.027061
v 0.369923 0.560725 -0.026893
v 0.369856 0.560609 -0.026727
v 0.369787 0.560490 -0.026562
v 0.369717 0.560369 -0.026399
v 0.369646 0.560246 -0.026237
v 0.369573 0.560120 -0.026077
v 0.369499 0.559992 -0.025919
v 0.369424 0.559861 -0.025762
v 0.369347 0.559728 -0.025607
v 0.369262 0.559580 -0.025435
v 0.369176 0.559431 -0.025264
v 0.369090 0.559283 -0.025093
v 0.369004 0.559134 -0.024922
v 0.368919 0.558986 -0.024751
v 0.368833 0.558837 -0.024580
v 0.368747 0.558689 -0.024408
v 0.368661 0.558540 -0.024237
v 0.368576 0.558392 -0.024066
v 0.368490 0.558243 -0.023895
v 0.368404 0.558095 -0.023724
v 0.368319 0.557947 -0.023553
v 0.368233 0.557798 -0.023382
v 0.368147 0.557650 -0.023211
v 0.368062 0.557502 -0.023040
v 0.367976 0.557353 -0.022869
v 0.367890 0.557205 -0.022698
v 0.367805 0.557056 -0.022527
v 0.367719 0.556908 -0.022356
v 0.367633 0.556760 -0.022185
v 0.367548 0.556612 -0.022014
v 0.367462 0.556463 -0.021843
v 0.367377 0.556315 -0.021672
v 0.367291 0.556167 -0.021501
v 0.367205 0.556019 -0.021331
v 0.367120 0.555870 -0.021160
v 0.367034 0.555722 -0.020989
v 0.366949 0.555574 -0.020818
v 0.366863 0.555426 -0.020647
v 0.366778 0.555277 -0.020476
v 0.366692 0.555129 -0.020306
v 0.366607 0.554981 -0.020135
v 0.366521 0.554833 -0.019964
v 0.366435 0.554685 -0.019793
v 0.366350 0.554537 -0.019623
v 0.366264 0.554389 -0.019452
v 0.366179 0.554240 -0.019281
v 0.366093 0.554092 -0.019111
v 0.366008 0.553944 -0.018940
v 0.365922 0.553796 -0.018769
v 0.365837 0.553648 -0.018599
v 0.365751 0.553500 -0.018428
v 0.365666 0.553352 -0.018257
v 0.365581 0.553204 -0.018087
v 0.365495 0.553056 -0.017916
v 0.365410 0.552908 -0.017746
v 0.365324 0.552760 -0.017575
v 0.365239 0.552612 -0.017404
v 0.365153 0.552464 -0.017234
v 0.365068 0.552316 -0.017063
v 0.364983 0.552168 -0.016893
v 0.364897 0.552020 -0.016722
v 0.364812 0.551873 -0.016552
v 0.364726 0.551725 -0.016381
v 0.364641 0.551577 -0.016211
v 0.364641 0.551577 -0.857174
v 0.364766 0.551794 -0.856591
v 0.364891 0.552010 -0.856008
v 0.365017 0.552227 -0.855425
v 0.365142 0.552444 -0.854842
v 0.365267 0.552661 -0.854258
v 0.365392 0.552878 -0.853675
v 0.365518 0.553095 -0.853091
v 0.365643 0.553312 -0.852508
v 0.365768 0.553529 -0.851924
v 0.365893 0.553746 -0.851340
v 0.366019 0.553963 -0.850757
v 0.366144 0.554180 -0.850173
v 0.366269 0.554397 -0.849589
v 0.366395 0.554614 -0.849005
v 0.366520 0.554832 -0.848421
v 0.366646 0.555049 -0.847837
v 0.366771 0.555266 -0.847252
v 0.366896 0.555483 -0.846668
v 0.367022 0.555701 -0.846084
v 0.367147 0.555918 -0.845499
v 0.367273 0.556135 -0.844915
v 0.367398 0.556353 -0.844330
v 0.367524 0.556570 -0.843746
v 0.367649 0.556787 -0.843161
v 0.367775 0.557005 -0.842576
v 0.367900 0.557222 -0.841991
v 0.368026 0.557440 -0.841406
v 0.368152 0.557657 -0.840822
v 0.368277 0.557875 -0.840236
v 0.368403 0.558092 -0.839651
v 0.368528 0.558310 -0.839066
v 0.368654 0.558527 -0.838481
v 0.368780 0.558745 -0.837896
v 0.368905 0.558963 -0.837310
v 0.369031 0.559180 -0.836725
v 0.369157 0.559398 -0.836139
v 0.369282 0.559616 -0.835553
v 0.369408 0.559834 -0.834968
v 0.369534 0.560052 -0.834382
v 0.369660 0.560269 -0.833796
v 0.369785 0.560487 -0.833210
v 0.369911 0.560705 -0.832624
v 0.370037 0.560923 -0.832038
v 0.370163 0.561141 -0.831452
v 0.370289 0.561359 -0.830866
v 0.370415 0.561577 -0.830280
v 0.370540 0.561795 -0.829693
v 0.370666 0.562013 -0.829107
v 0.370792 0.562231 -0.828520
v 0.370918 0.562449 -0.827934
v 0.371044 0.562667 -0.827347
v 0.371170 0.562885 -0.826761
v 0.371296 0.563103 -0.826174
v 0.371422 0.563322 -0.825587
f 112 110 111
f 112 109 110
f 112 108 109
f 112 107 108
f 112 106 107
f 112 105 106
f 112 104 105
f 112 103 104
f 112 102 103
f 112 101 102
f 112 100 101
f 112 99 100
f 112 98 99
f 112 97 98
f 112 96 97
f 112 95 96
f 112 94 95
f 112 93 94
f 112 92 93
f 112 91 92
f 112 90 91
f 112 89 90
f 112 88 89
f 112 87 88
f 112 86 87
f 112 85 86
f 112 84 85
f 112 83 84
f 112 82 83
f 112 81 82
f 112 80 81
f 112 79 80
f 112 78 79
f 112 77 78
f 112 76 77
f 112 75 76
f 112 74 75
f 112 73 74
f 112 72 73
f 112 71 72
f 112 70 71
f 112 69 70
f 112 68 69
f 112 67 68
f 112 66 67
f 112 65 66
f 112 64 65
f 112 63 64
f 112 62 63
f 112 61 62
f 112 60 61
f 112 59 60
f 112 58 59
f 112 57 58
f 112 56 57
f 112 55 56
f 112 54 55
f 112 53 54
f 112 52 53
f 112 51 52
f 112 50 51
f 112 49 50
f 112 48 49
f 112 47 48
f 112 46 47
f 112 45 46
f 112 44 45
f 112 43 44
f 112 42 43
f 112 41 42
f 112 40 41
f 112 39 40
f 112 38 39
f 112 37 38
f 112 36 37
f 112 35 36
f 112 34 35
f 112 33 34
f 112 32 33
f 112 31 32
f 112 30 31
f 112 29 30
f 112 28 29
f 112 27 28
f 112 26 27
f 112 25 26
f 112 24 25
f 112 23 24
f 112 22 23
f 112 21 22
f 112 20 21
f 112 19 20
f 112 18 19
f 112 17 18
f 112 16 17
f 112 15 16
f 112 14 15
f 112 13 14
f 112 12 13
f 112 11 12
f 112 10 11
f 112 9 10
f 112 8 9
f 112 7 8
f 112 6 7
f 112 5 6
f 112 4 5
f 112 3 4
f 112 2 3
f 112 1 2
f 112 167 1
f 112 166 167
f 112 165 166
f 112 164 165
f 112 163 164
f 112 162 163
f 112 161 162
f 112 160 161
f 112 159 160
f 112 158 159
f 112 157 158
f 112 156 157
f 112 155 156
f 112 154 155
f 112 153 154
f 112 152 153
f 112 151 152
f 112 150 151
f 112 149 150
f 112 148 149
f 112 147 148
f 112 146 147
f 112 145 146
f 112 144 145
f 112 143 144
f 112 142 143
f 112 141 142
f 112 140 141
f 112 139 140
f 112 138 139
f 112 137 138
f 112 136 137
f 112 135 136
f 112 134 135
f 112 133 134
f 112 132 133
f 112 131 132
f 112 130 131
f 112 129 130
f 112 128 129
f 112 127 128
f 112 126 127
f 112 125 126
f 112 124 125
f 112 123 124
f 112 122 123
f 112 121 122
f 112 120 121
f 112 119 120
f 112 118 119
f 112 117 118
f 112 116 117
f 112 115 116
f 112 114 115
f 112 113 114
