v 0.461549 -0.178878 -1.051004
v 0.461029 -0.180215 -1.051148
v 0.460518 -0.181517 -1.051493
v 0.460028 -0.182755 -1.052032
v 0.459568 -0.183907 -1.052754
v 0.459150 -0.184950 -1.053643
v 0.458782 -0.185861 -1.054681
v 0.458472 -0.186625 -1.055847
v 0.458227 -0.187225 -1.057117
v 0.458052 -0.187651 -1.058465
v 0.457953 -0.187895 -1.059863
v 0.581309 -0.242858 -1.051004
v 0.580756 -0.244176 -1.051148
v 0.580215 -0.245459 -1.051492
v 0.579696 -0.246682 -1.052030
v 0.579211 -0.247820 -1.052751
v 0.578769 -0.248850 -1.053639
v 0.578381 -0.249752 -1.054677
v 0.578054 -0.250507 -1.055843
v 0.577795 -0.251102 -1.057113
v 0.577612 -0.251524 -1.058462
v 0.577507 -0.251766 -1.059862
f 1 13 2
f 1 12 13
f 2 14 3
f 2 13 14
f 3 15 4
f 3 14 15
f 4 16 5
f 4 15 16
f 5 17 6
f 5 16 17
f 6 18 7
f 6 17 18
f 7 19 8
f 7 18 19
f 8 20 9
f 8 19 20
f 9 21 10
f 9 20 21
f 10 22 11
f 10 21 22
