v -0.559698 0.289202 -1.051004
v -0.560353 0.287932 -1.051148
v -0.560988 0.286692 -1.051492
v -0.561591 0.285509 -1.052030
v -0.562151 0.284406 -1.052751
v -0.562656 0.283405 -1.053639
v -0.563097 0.282528 -1.054677
v -0.563465 0.281792 -1.055843
v -0.563755 0.281212 -1.057113
v -0.563960 0.280800 -1.058462
v -0.564078 0.280564 -1.059862
v -0.433707 0.238587 -1.051004
v -0.434396 0.237328 -1.051148
v -0.435065 0.236101 -1.051493
v -0.435699 0.234929 -1.052032
v -0.436286 0.233837 -1.052754
v -0.436816 0.232846 -1.053643
v -0.437277 0.231978 -1.054681
v -0.437663 0.231250 -1.055847
v -0.437965 0.230676 -1.057117
v -0.438180 0.230269 -1.058465
v -0.438302 0.230035 -1.059863
f 1 13 2
f 1 12 13
f 2 14 3
f 2 13 14
f 3 15 4
f 3 14 15
f 4 16 5
f 4 15 16
f 5 17 6
f 5 16 17
f 6 18 7
f 6 17 18
f 7 19 8
f 7 18 19
f 8 20 9
f 8 19 20
f 9 21 10
f 9 20 21
f 10 22 11
f 10 21 22
