v 0.035839 0.016837 -0.675888
v 0.035839 0.220000 -0.675888
v 0.021986 0.220000 -0.727588
v 0.012327 0.220000 -0.735000
v 0.012327 0.000000 -0.735000
v 0.021986 0.000000 -0.727588
v 0.037701 0.000000 -0.668938
v 0.037701 0.010000 -0.668938
v 0.035839 0.016837 -0.675888
v 0.035904 0.016611 -0.675658
v 0.035973 0.016388 -0.675431
v 0.036048 0.016168 -0.675206
v 0.036127 0.015951 -0.674985
v 0.036212 0.015736 -0.674766
v 0.036301 0.015525 -0.674549
v 0.036395 0.015317 -0.674336
v 0.036494 0.015112 -0.674125
v 0.036597 0.014911 -0.673918
v 0.036705 0.014712 -0.673713
v 0.036818 0.014517 -0.673512
v 0.036934 0.014325 -0.673313
v 0.037055 0.014137 -0.673118
v 0.037180 0.013952 -0.672926
v 0.037309 0.013770 -0.672737
v 0.037443 0.013592 -0.672551
v 0.037580 0.013418 -0.672368
v 0.037721 0.013247 -0.672189
v 0.037867 0.013080 -0.672014
v 0.038016 0.012917 -0.671842
v 0.038168 0.012757 -0.671674
v 0.038325 0.012602 -0.671509
v 0.038484 0.012450 -0.671348
v 0.038648 0.012302 -0.671191
v 0.038815 0.012159 -0.671037
v 0.038985 0.012020 -0.670888
v 0.039158 0.011885 -0.670743
v 0.039335 0.011754 -0.670601
v 0.039515 0.011628 -0.670464
v 0.039698 0.011506 -0.670331
v 0.039883 0.011388 -0.670202
v 0.040072 0.011275 -0.670078
v 0.040262 0.011167 -0.669958
v 0.040456 0.011063 -0.669842
v 0.040651 0.010963 -0.669731
v 0.040849 0.010869 -0.669624
v 0.041048 0.010779 -0.669522
v 0.041250 0.010694 -0.669424
v 0.041453 0.010614 -0.669332
v 0.041657 0.010539 -0.669244
v 0.041863 0.010469 -0.669160
v 0.042070 0.010403 -0.669082
v 0.042279 0.010343 -0.669008
v 0.042488 0.010288 -0.668940
v 0.042698 0.010237 -0.668876
v 0.042909 0.010192 -0.668817
v 0.043121 0.010151 -0.668763
v 0.043333 0.010116 -0.668713
v 0.043546 0.010085 -0.668668
v 0.043759 0.010059 -0.668628
v 0.043973 0.010038 -0.668593
v 0.044187 0.010021 -0.668562
v 0.044401 0.010009 -0.668537
v 0.044615 0.010002 -0.668515
v 0.044829 0.010000 -0.668499
f 3 4 5
f 2 3 5
f 2 5 6
f 6 7 8
f 10 11 12
f 10 12 13
f 10 13 14
f 10 14 15
f 10 15 16
f 10 16 17
f 10 17 18
f 10 18 19
f 10 19 20
f 10 20 21
f 10 21 22
f 10 22 23
f 10 23 24
f 10 24 25
f 10 25 26
f 10 26 27
f 10 27 28
f 10 28 29
f 10 29 30
f 10 30 31
f 10 31 32
f 10 32 33
f 10 33 34
f 10 34 35
f 10 35 36
f 10 36 37
f 10 37 38
f 10 38 39
f 10 39 40
f 10 40 41
f 10 41 42
f 10 42 43
f 10 43 44
f 10 44 45
f 10 45 46
f 10 46 47
f 10 47 48
f 10 48 49
f 10 49 50
f 10 50 51
f 10 51 52
f 10 52 53
f 10 53 54
f 10 54 55
f 10 55 56
f 10 56 57
f 10 57 58
f 10 58 59
f 10 59 60
f 10 60 61
f 10 61 62
f 10 62 63
f 10 63 64
f 1 2 6
f 1 6 8
f 1 8 9
f 1 9 10
f 1 10 64
