v -0.572942 1.325000 0.140850
v -0.566897 1.325000 0.138290
v -0.569375 1.324199 0.139329
v -0.565803 1.323410 0.137838
v -0.562226 1.322634 0.136378
v -0.560818 1.325000 0.135811
v -0.558645 1.321871 0.134948
v -0.555059 1.321121 0.133548
v -0.554707 1.325000 0.133411
v -0.551469 1.320384 0.132178
v -0.548566 1.325000 0.131092
v -0.547876 1.319660 0.130839
v -0.544279 1.318950 0.129529
v -0.542394 1.325000 0.128853
v -0.540679 1.318253 0.128250
v -0.537076 1.317570 0.127000
v -0.536194 1.325000 0.126696
v -0.533471 1.316900 0.125780
v -0.529966 1.325000 0.124620
v -0.529864 1.316245 0.124590
v -0.526255 1.315603 0.123429
v -0.523711 1.325000 0.122627
v -0.522644 1.314976 0.122298
v -0.519032 1.314363 0.121196
v -0.517430 1.325000 0.120715
v -0.515419 1.313765 0.120124
v -0.511805 1.313180 0.119080
v -0.511125 1.325000 0.118887
v -0.508191 1.312611 0.118066
v -0.504796 1.325000 0.117141
v -0.504577 1.312057 0.117082
v -0.500963 1.311517 0.116126
v -0.498445 1.325000 0.115478
v -0.497348 1.310992 0.115198
v -0.493734 1.310482 0.114300
v -0.492073 1.325000 0.113899
v -0.490120 1.309988 0.113430
v -0.486507 1.309508 0.112589
v -0.485681 1.325000 0.112404
v -0.482893 1.309043 0.111776
v -0.479280 1.308593 0.110991
v -0.479269 1.325000 0.110993
v -0.475667 1.308158 0.110235
v -0.472840 1.325000 0.109666
v -0.472054 1.307739 0.109506
v -0.468442 1.307334 0.108805
v -0.466393 1.325000 0.108424
v -0.464830 1.306945 0.108132
v -0.461219 1.306571 0.107486
v -0.459931 1.325000 0.107266
v -0.457608 1.306212 0.106868
v -0.453997 1.305869 0.106278
v -0.453455 1.325000 0.106193
v -0.450388 1.305540 0.105714
v -0.446964 1.325000 0.105206
v -0.446778 1.305227 0.105178
v -0.443170 1.304930 0.104668
v -0.440462 1.325000 0.104304
v -0.439562 1.304647 0.104186
v -0.435955 1.304380 0.103730
v -0.433948 1.325000 0.103487
v -0.432349 1.304129 0.103301
v -0.428744 1.303892 0.102898
v -0.427424 1.325000 0.102756
v -0.425141 1.303672 0.102522
v -0.421539 1.303466 0.102173
v -0.420890 1.325000 0.102110
v -0.417940 1.303276 0.101850
v -0.414349 1.325000 0.101551
v -0.414343 1.303101 0.101553
v -0.410748 1.302941 0.101282
v -0.407801 1.325000 0.101077
v -0.407157 1.302797 0.101037
v -0.403568 1.302668 0.100819
v -0.401248 1.325000 0.100689
v -0.399983 1.302554 0.100626
v -0.396401 1.302455 0.100460
v -0.394690 1.325000 0.100388
v -0.392823 1.302372 0.100319
v -0.389249 1.302303 0.100204
v -0.388129 1.325000 0.100172
v -0.385680 1.302250 0.100115
v -0.382115 1.302212 0.100051
v -0.381565 1.325000 0.100043
v -0.378555 1.302190 0.100013
v -0.375000 1.302182 0.100000
v -0.375000 1.325000 0.100000
f 1 3 2
f 2 3 4
f 2 4 5
f 2 5 6
f 6 5 7
f 6 7 8
f 6 8 9
f 9 8 10
f 9 10 11
f 11 10 12
f 11 12 13
f 11 13 14
f 14 13 15
f 14 15 16
f 14 16 17
f 17 16 18
f 17 18 19
f 19 18 20
f 19 20 21
f 19 21 22
f 22 21 23
f 22 23 24
f 22 24 25
f 25 24 26
f 25 26 27
f 25 27 28
f 28 27 29
f 28 29 30
f 30 29 31
f 30 31 32
f 30 32 33
f 33 32 34
f 33 34 35
f 33 35 36
f 36 35 37
f 36 37 38
f 36 38 39
f 39 38 40
f 39 40 41
f 39 41 42
f 42 41 43
f 42 43 44
f 44 43 45
f 44 45 46
f 44 46 47
f 47 46 48
f 47 48 49
f 47 49 50
f 50 49 51
f 50 51 52
f 50 52 53
f 53 52 54
f 53 54 55
f 55 54 56
f 55 56 57
f 55 57 58
f 58 57 59
f 58 59 60
f 58 60 61
f 61 60 62
f 61 62 63
f 61 63 64
f 64 63 65
f 64 65 66
f 64 66 67
f 67 66 68
f 67 68 69
f 69 68 70
f 69 70 71
f 69 71 72
f 72 71 73
f 72 73 74
f 72 74 75
f 75 74 76
f 75 76 77
f 75 77 78
f 78 77 79
f 78 79 80
f 78 80 81
f 81 80 82
f 81 82 83
f 81 83 84
f 84 83 85
f 84 85 86
f 84 86 87
