v -2.637500 0.350000 -6.509085
v -2.637500 0.350000 -6.388000
v -2.638334 0.350000 -6.371560
v -2.640826 0.350000 -6.355289
v -2.644952 0.350000 -6.339353
v -2.650669 0.350000 -6.323917
v -2.657919 0.350000 -6.309138
v -2.666626 0.350000 -6.295169
v -2.676702 0.350000 -6.282152
v -2.688043 0.350000 -6.270221
v -2.700533 0.350000 -6.259499
v -2.714043 0.350000 -6.250095
v -2.728436 0.350000 -6.242107
v -2.743563 0.350000 -6.235615
v -2.759269 0.350000 -6.230687
v -2.775393 0.350000 -6.227374
v -2.791770 0.350000 -6.225709
v -2.808230 0.350000 -6.225709
v -2.824607 0.350000 -6.227374
v -2.840731 0.350000 -6.230687
v -2.856437 0.350000 -6.235615
v -2.871564 0.350000 -6.242107
v -2.885957 0.350000 -6.250095
v -2.899467 0.350000 -6.259499
v -2.911957 0.350000 -6.270221
v -2.923298 0.350000 -6.282152
v -2.933374 0.350000 -6.295169
v -2.942081 0.350000 -6.309138
v -2.949331 0.350000 -6.323917
v -2.955048 0.350000 -6.339353
v -2.959174 0.350000 -6.355289
v -2.961666 0.350000 -6.371560
v -2.962500 0.350000 -6.388000
v -2.962500 0.350000 -6.509085
v -2.905000 0.350000 -6.388000
v -2.904461 0.350000 -6.377377
v -2.902851 0.350000 -6.366864
v -2.900185 0.350000 -6.356567
v -2.896491 0.350000 -6.346593
v -2.891806 0.350000 -6.337043
v -2.886180 0.350000 -6.328017
v -2.879670 0.350000 -6.319606
v -2.872342 0.350000 -6.311897
v -2.864271 0.350000 -6.304969
v -2.855541 0.350000 -6.298892
v -2.846241 0.350000 -6.293731
v -2.836467 0.350000 -6.289536
v -2.826319 0.350000 -6.286352
v -2.815900 0.350000 -6.284211
v -2.805318 0.350000 -6.283135
v -2.794682 0.350000 -6.283135
v -2.784100 0.350000 -6.284211
v -2.773681 0.350000 -6.286352
v -2.763533 0.350000 -6.289536
v -2.753759 0.350000 -6.293731
v -2.744459 0.350000 -6.298892
v -2.735729 0.350000 -6.304969
v -2.727658 0.350000 -6.311897
v -2.720330 0.350000 -6.319606
v -2.713820 0.350000 -6.328017
v -2.708194 0.350000 -6.337043
v -2.703509 0.350000 -6.346593
v -2.699815 0.350000 -6.356567
v -2.697149 0.350000 -6.366864
v -2.695539 0.350000 -6.377377
v -2.695000 0.350000 -6.388000
v -2.695539 0.350000 -6.398623
v -2.697149 0.350000 -6.409136
v -2.699815 0.350000 -6.419433
v -2.703509 0.350000 -6.429407
v -2.708194 0.350000 -6.438957
v -2.713820 0.350000 -6.447983
v -2.720330 0.350000 -6.456394
v -2.727658 0.350000 -6.464103
v -2.735729 0.350000 -6.471031
v -2.744459 0.350000 -6.477108
v -2.753759 0.350000 -6.482269
v -2.763533 0.350000 -6.486464
v -2.773681 0.350000 -6.489648
v -2.784100 0.350000 -6.491789
v -2.794682 0.350000 -6.492865
v -2.805318 0.350000 -6.492865
v -2.815900 0.350000 -6.491789
v -2.826319 0.350000 -6.489648
v -2.836467 0.350000 -6.486464
v -2.846241 0.350000 -6.482269
v -2.855541 0.350000 -6.477108
v -2.864271 0.350000 -6.471031
v -2.872342 0.350000 -6.464103
v -2.879670 0.350000 -6.456394
v -2.886180 0.350000 -6.447983
v -2.891806 0.350000 -6.438957
v -2.896491 0.350000 -6.429407
v -2.900185 0.350000 -6.419433
v -2.902851 0.350000 -6.409136
v -2.904461 0.350000 -6.398623
f 1 2 3
f 3 4 5
f 5 6 7
f 7 8 9
f 9 10 11
f 11 12 13
f 13 14 15
f 15 16 17
f 17 18 19
f 19 20 21
f 21 22 23
f 23 24 25
f 25 26 27
f 27 28 29
f 29 30 31
f 31 32 33
f 33 35 36
f 96 35 33
f 1 3 5
f 5 7 9
f 9 11 13
f 13 15 17
f 17 19 21
f 21 23 25
f 25 27 29
f 29 31 33
f 33 36 37
f 95 96 33
f 1 5 9
f 9 13 17
f 17 21 25
f 25 29 33
f 33 37 38
f 94 95 33
f 9 17 25
f 25 33 38
f 93 94 33
f 25 38 39
f 92 93 33
f 25 39 40
f 91 92 33
f 25 40 41
f 90 91 33
f 25 41 42
f 89 90 33
f 25 42 43
f 88 89 33
f 25 43 44
f 88 33 34
f 25 44 45
f 87 88 34
f 25 45 46
f 86 87 34
f 25 46 47
f 85 86 34
f 25 47 48
f 84 85 34
f 25 48 49
f 83 84 34
f 25 49 50
f 82 83 34
f 9 25 50
f 81 82 34
f 9 50 51
f 81 34 1
f 9 51 52
f 80 81 1
f 9 52 53
f 79 80 1
f 9 53 54
f 78 79 1
f 9 54 55
f 77 78 1
f 9 55 56
f 76 77 1
f 9 56 57
f 75 76 1
f 9 57 58
f 74 75 1
f 9 58 59
f 73 74 1
f 9 59 60
f 72 73 1
f 9 60 61
f 71 72 1
f 9 61 62
f 70 71 1
f 1 9 62
f 69 70 1
f 1 62 63
f 68 69 1
f 1 63 64
f 67 68 1
f 1 64 65
f 66 67 1
f 1 65 66
