v 2.017336 -0.565914 -6.146836
v 2.016839 -0.566481 -6.153465
v 2.017125 -0.566201 -6.150153
v 2.016480 -0.566753 -6.156771
v 2.016048 -0.567016 -6.160068
v 2.015543 -0.567271 -6.163356
v 2.014965 -0.567518 -6.166633
v 2.014315 -0.567756 -6.169896
v 2.013592 -0.567985 -6.173145
v 2.012797 -0.568205 -6.176378
v 2.011931 -0.568416 -6.179592
v 2.016191 -0.575860 -6.145973
v 2.014834 -0.585478 -6.145412
v 2.013277 -0.594784 -6.145138
v 2.011533 -0.603795 -6.145135
v 2.009612 -0.612527 -6.145386
v 2.007525 -0.620986 -6.145881
v 2.005276 -0.629161 -6.146616
v 2.002874 -0.637041 -6.147586
v 2.000323 -0.644614 -6.148787
v 1.997631 -0.651869 -6.150216
v 2.011166 -0.578789 -6.176913
v 2.011160 -0.578850 -6.176896
v 2.010183 -0.588700 -6.174115
v 2.010170 -0.588817 -6.174081
v 2.009011 -0.598152 -6.171224
v 2.008988 -0.598319 -6.171171
v 2.007676 -0.607153 -6.168261
v 2.007642 -0.607363 -6.168189
v 2.006203 -0.615713 -6.165247
v 2.006157 -0.615962 -6.165156
v 2.004615 -0.623836 -6.162203
v 2.004557 -0.624118 -6.162094
v 2.002940 -0.631515 -6.159154
v 2.002869 -0.631825 -6.159028
v 2.001202 -0.638746 -6.156125
v 2.001118 -0.639077 -6.155982
v 1.999424 -0.645529 -6.153139
v 1.999329 -0.645876 -6.152982
v 2.009986 -0.568811 -6.185962
v 2.010994 -0.568618 -6.182788
v 2.008908 -0.568994 -6.189114
v 2.007761 -0.569168 -6.192242
v 2.006545 -0.569333 -6.195344
v 2.005260 -0.569488 -6.198419
v 2.003908 -0.569633 -6.201466
v 2.002488 -0.569769 -6.204482
v 2.001002 -0.569895 -6.207466
v 1.999451 -0.570011 -6.210417
v 1.994804 -0.658795 -6.151866
v 1.991847 -0.665383 -6.153735
v 1.988766 -0.671620 -6.155817
v 1.985569 -0.677498 -6.158108
v 1.982262 -0.683003 -6.160600
v 1.978861 -0.688120 -6.163281
v 1.975380 -0.692835 -6.166138
v 1.971834 -0.697131 -6.169156
v 1.968236 -0.700995 -6.172322
v 1.964602 -0.704420 -6.175620
v 1.998291 -0.580868 -6.209124
v 1.998283 -0.580932 -6.209115
v 1.996929 -0.591289 -6.207655
v 1.996911 -0.591413 -6.207637
v 1.995392 -0.601274 -6.206036
v 1.995363 -0.601451 -6.206006
v 1.993705 -0.610826 -6.204289
v 1.993663 -0.611050 -6.204246
v 1.991891 -0.619953 -6.202435
v 1.991836 -0.620219 -6.202378
v 1.989974 -0.628654 -6.200494
v 1.989904 -0.628956 -6.200424
v 1.987979 -0.636916 -6.198492
v 1.987894 -0.637250 -6.198407
v 1.985931 -0.644732 -6.196450
v 1.985833 -0.645091 -6.196352
v 1.983854 -0.652098 -6.194391
v 1.983744 -0.652475 -6.194282
v 1.981773 -0.659011 -6.192336
v 1.981652 -0.659400 -6.192217
v 1.979707 -0.665474 -6.190306
v 1.979577 -0.665869 -6.190178
v 1.977676 -0.671492 -6.188316
v 1.977539 -0.671888 -6.188182
v 1.975699 -0.677072 -6.186384
v 1.975557 -0.677463 -6.186246
v 1.973791 -0.682222 -6.184525
v 1.973647 -0.682604 -6.184384
v 1.971969 -0.686948 -6.182753
v 1.971824 -0.687317 -6.182612
v 1.970246 -0.691256 -6.181080
v 1.970103 -0.691608 -6.180941
v 1.968637 -0.695151 -6.179521
v 1.968497 -0.695482 -6.179386
v 1.967153 -0.698639 -6.178085
v 1.967021 -0.698945 -6.177957
v 1.965806 -0.701725 -6.176783
v 1.965684 -0.702000 -6.176665
v 1.996154 -0.570213 -6.216214
v 1.997834 -0.570117 -6.213334
v 1.994410 -0.570299 -6.219057
v 1.992604 -0.570376 -6.221861
v 1.990737 -0.570442 -6.224625
v 1.988809 -0.570498 -6.227347
v 1.986821 -0.570543 -6.230026
v 1.984775 -0.570579 -6.232661
v 1.982671 -0.570605 -6.235250
v 1.980510 -0.570620 -6.237792
v 1.978295 -0.570625 -6.240286
v 1.976024 -0.570620 -6.242730
v 1.973701 -0.570605 -6.245124
v 1.971325 -0.570579 -6.247466
v 1.968898 -0.570543 -6.249755
v 1.966422 -0.570498 -6.251990
v 1.963897 -0.570442 -6.254170
v 1.961324 -0.570376 -6.256294
v 1.958706 -0.570299 -6.258360
v 1.956043 -0.570213 -6.260368
v 1.953337 -0.570117 -6.262316
v 1.960947 -0.707407 -6.179034
v 1.957284 -0.709958 -6.182546
v 1.953630 -0.712073 -6.186138
v 1.949996 -0.713754 -6.189797
v 1.946390 -0.715008 -6.193512
v 1.942817 -0.715842 -6.197276
v 1.939284 -0.716266 -6.201080
v 1.935795 -0.716285 -6.204917
v 1.932355 -0.715900 -6.208781
v 1.928966 -0.715105 -6.212673
v 1.925629 -0.713891 -6.216591
v 1.922347 -0.712252 -6.220537
v 1.919123 -0.710182 -6.224507
v 1.915972 -0.707675 -6.228486
v 1.952082 -0.581005 -6.261184
v 1.952073 -0.581070 -6.261177
v 1.950627 -0.591460 -6.259871
v 1.950609 -0.591584 -6.259855
v 1.949001 -0.601479 -6.258402
v 1.948970 -0.601656 -6.258374
v 1.947227 -0.611066 -6.256798
v 1.947183 -0.611290 -6.256758
v 1.945328 -0.620228 -6.255080
v 1.945270 -0.620495 -6.255028
v 1.943328 -0.628964 -6.253271
v 1.943255 -0.629268 -6.253205
v 1.941253 -0.637263 -6.251393
v 1.941166 -0.637598 -6.251313
v 1.939129 -0.645114 -6.249469
v 1.939027 -0.645475 -6.249377
v 1.936979 -0.652515 -6.247522
v 1.936865 -0.652894 -6.247419
v 1.934827 -0.659462 -6.245573
v 1.934702 -0.659854 -6.245460
v 1.932694 -0.665959 -6.243641
v 1.932559 -0.666356 -6.243519
v 1.930600 -0.672009 -6.241744
v 1.930458 -0.672407 -6.241616
v 1.928562 -0.677620 -6.239898
v 1.928416 -0.678013 -6.239765
v 1.926599 -0.682799 -6.238118
v 1.926450 -0.683183 -6.237983
v 1.924723 -0.687553 -6.236419
v 1.924574 -0.687924 -6.236283
v 1.922952 -0.691887 -6.234813
v 1.922804 -0.692241 -6.234680
v 1.921298 -0.695806 -6.233314
v 1.921155 -0.696139 -6.233185
v 1.919774 -0.699316 -6.231933
v 1.919638 -0.699623 -6.231810
v 1.918390 -0.702421 -6.230679
v 1.918265 -0.702698 -6.230566
v 1.917155 -0.705134 -6.229559
v 1.917043 -0.705377 -6.229458
v 1.916071 -0.707469 -6.228577
v 1.947799 -0.569895 -6.266031
v 1.950588 -0.570011 -6.264204
v 1.944971 -0.569769 -6.267796
v 1.942104 -0.569633 -6.269497
v 1.939202 -0.569488 -6.271135
v 1.936264 -0.569333 -6.272708
v 1.933292 -0.569168 -6.274216
v 1.930289 -0.568994 -6.275657
v 1.927254 -0.568811 -6.277032
v 1.924191 -0.568618 -6.278339
v 1.912911 -0.704730 -6.232457
v 1.909958 -0.701342 -6.236402
v 1.907129 -0.697511 -6.240303
v 1.904442 -0.693240 -6.244142
v 1.901908 -0.688543 -6.247903
v 1.899540 -0.683437 -6.251569
v 1.897351 -0.677938 -6.255124
v 1.895353 -0.672062 -6.258551
v 1.893553 -0.665820 -6.261842
v 1.891955 -0.659224 -6.264989
v 1.921629 -0.579056 -6.277793
v 1.921613 -0.579118 -6.277790
v 1.918922 -0.589038 -6.277046
v 1.918889 -0.589156 -6.277036
v 1.916096 -0.598565 -6.276121
v 1.916044 -0.598733 -6.276103
v 1.913176 -0.607644 -6.275044
v 1.913105 -0.607856 -6.275017
v 1.910184 -0.616286 -6.273836
v 1.910094 -0.616537 -6.273799
v 1.907144 -0.624493 -6.272520
v 1.907035 -0.624778 -6.272471
v 1.904083 -0.632258 -6.271117
v 1.903956 -0.632571 -6.271057
v 1.901028 -0.639575 -6.269651
v 1.900884 -0.639911 -6.269581
v 1.898003 -0.646446 -6.268144
v 1.897844 -0.646797 -6.268063
v 1.895032 -0.652871 -6.266615
v 1.894861 -0.653232 -6.266526
v 1.892136 -0.658858 -6.265084
v 1.917982 -0.568205 -6.280748
v 1.921100 -0.568416 -6.279578
v 1.914841 -0.567985 -6.281848
v 1.911676 -0.567756 -6.282878
v 1.908490 -0.567518 -6.283838
v 1.905284 -0.567271 -6.284727
v 1.902059 -0.567016 -6.285545
v 1.898818 -0.566753 -6.286291
v 1.895562 -0.566481 -6.286964
v 1.892292 -0.566201 -6.287565
v 1.889011 -0.565914 -6.288094
v 1.890563 -0.652282 -6.267986
v 1.889381 -0.645006 -6.270826
v 1.888414 -0.637406 -6.273503
v 1.887664 -0.629495 -6.276010
v 1.887136 -0.621283 -6.278339
v 1.886834 -0.612784 -6.280483
v 1.886761 -0.604007 -6.282436
v 1.886927 -0.594949 -6.284187
v 1.887347 -0.585592 -6.285722
v 1.888037 -0.575919 -6.287029
f 1 2 3
f 1 4 2
f 1 5 4
f 1 6 5
f 1 7 6
f 1 8 7
f 1 9 8
f 1 10 9
f 1 11 10
f 1 12 13
f 1 13 14
f 1 14 15
f 1 15 16
f 1 16 17
f 1 17 18
f 1 18 19
f 1 19 20
f 1 20 21
f 1 22 11
f 1 23 22
f 1 24 23
f 1 25 24
f 1 26 25
f 1 27 26
f 1 28 27
f 1 29 28
f 1 30 29
f 1 31 30
f 1 32 31
f 1 33 32
f 1 34 33
f 1 35 34
f 1 36 35
f 1 37 36
f 1 38 37
f 1 39 38
f 1 21 39
f 11 40 41
f 11 42 40
f 11 43 42
f 11 44 43
f 11 45 44
f 11 46 45
f 11 47 46
f 11 48 47
f 11 49 48
f 21 50 51
f 21 51 52
f 21 52 53
f 21 53 54
f 21 54 55
f 21 55 56
f 21 56 57
f 21 57 58
f 21 58 59
f 11 22 49
f 22 60 49
f 22 23 60
f 23 61 60
f 23 24 61
f 24 62 61
f 24 25 62
f 25 63 62
f 25 26 63
f 26 64 63
f 26 27 64
f 27 65 64
f 27 28 65
f 28 66 65
f 28 29 66
f 29 67 66
f 29 30 67
f 30 68 67
f 30 31 68
f 31 69 68
f 31 32 69
f 32 70 69
f 32 33 70
f 33 71 70
f 33 34 71
f 34 72 71
f 34 35 72
f 35 73 72
f 35 36 73
f 36 74 73
f 36 37 74
f 37 75 74
f 37 38 75
f 38 76 75
f 38 39 76
f 39 77 76
f 39 21 77
f 21 78 77
f 21 79 78
f 21 80 79
f 21 81 80
f 21 82 81
f 21 83 82
f 21 84 83
f 21 85 84
f 21 86 85
f 21 87 86
f 21 88 87
f 21 89 88
f 21 90 89
f 21 91 90
f 21 92 91
f 21 93 92
f 21 94 93
f 21 95 94
f 21 96 95
f 21 97 96
f 21 59 97
f 49 98 99
f 49 100 98
f 49 101 100
f 49 102 101
f 49 103 102
f 49 104 103
f 49 105 104
f 49 106 105
f 49 107 106
f 49 108 107
f 49 109 108
f 49 110 109
f 49 111 110
f 49 112 111
f 49 113 112
f 49 114 113
f 49 115 114
f 49 116 115
f 49 117 116
f 49 118 117
f 59 119 120
f 59 120 121
f 59 121 122
f 59 122 123
f 59 123 124
f 59 124 125
f 59 125 126
f 59 126 127
f 59 127 128
f 59 128 129
f 59 129 130
f 59 130 131
f 59 131 132
f 49 60 118
f 60 133 118
f 60 61 133
f 61 134 133
f 61 62 134
f 62 135 134
f 62 63 135
f 63 136 135
f 63 64 136
f 64 137 136
f 64 65 137
f 65 138 137
f 65 66 138
f 66 139 138
f 66 67 139
f 67 140 139
f 67 68 140
f 68 141 140
f 68 69 141
f 69 142 141
f 69 70 142
f 70 143 142
f 70 71 143
f 71 144 143
f 71 72 144
f 72 145 144
f 72 73 145
f 73 146 145
f 73 74 146
f 74 147 146
f 74 75 147
f 75 148 147
f 75 76 148
f 76 149 148
f 76 77 149
f 77 150 149
f 77 78 150
f 78 151 150
f 78 79 151
f 79 152 151
f 79 80 152
f 80 153 152
f 80 81 153
f 81 154 153
f 81 82 154
f 82 155 154
f 82 83 155
f 83 156 155
f 83 84 156
f 84 157 156
f 84 85 157
f 85 158 157
f 85 86 158
f 86 159 158
f 86 87 159
f 87 160 159
f 87 88 160
f 88 161 160
f 88 89 161
f 89 162 161
f 89 90 162
f 90 163 162
f 90 91 163
f 91 164 163
f 91 92 164
f 92 165 164
f 92 93 165
f 93 166 165
f 93 94 166
f 94 167 166
f 94 95 167
f 95 168 167
f 95 96 168
f 96 169 168
f 96 97 169
f 97 170 169
f 97 59 170
f 59 171 170
f 59 172 171
f 59 173 172
f 59 132 173
f 118 174 175
f 118 176 174
f 118 177 176
f 118 178 177
f 118 179 178
f 118 180 179
f 118 181 180
f 118 182 181
f 118 183 182
f 132 184 185
f 132 185 186
f 132 186 187
f 132 187 188
f 132 188 189
f 132 189 190
f 132 190 191
f 132 191 192
f 132 192 193
f 118 133 183
f 133 194 183
f 133 134 194
f 134 195 194
f 134 135 195
f 135 196 195
f 135 136 196
f 136 197 196
f 136 137 197
f 137 198 197
f 137 138 198
f 138 199 198
f 138 139 199
f 139 200 199
f 139 140 200
f 140 201 200
f 140 141 201
f 141 202 201
f 141 142 202
f 142 203 202
f 142 143 203
f 143 204 203
f 143 144 204
f 144 205 204
f 144 145 205
f 145 206 205
f 145 146 206
f 146 207 206
f 146 147 207
f 147 208 207
f 147 148 208
f 148 209 208
f 148 149 209
f 149 210 209
f 149 150 210
f 150 211 210
f 150 151 211
f 151 212 211
f 151 152 212
f 152 213 212
f 152 153 213
f 153 214 213
f 153 154 214
f 154 193 214
f 154 155 193
f 155 156 193
f 156 157 193
f 157 158 193
f 158 159 193
f 159 160 193
f 160 161 193
f 161 162 193
f 162 163 193
f 163 164 193
f 164 165 193
f 165 166 193
f 166 167 193
f 167 168 193
f 168 169 193
f 169 170 193
f 170 171 193
f 171 172 193
f 172 173 193
f 173 132 193
f 183 215 216
f 183 217 215
f 183 218 217
f 183 219 218
f 183 220 219
f 183 221 220
f 183 222 221
f 183 223 222
f 183 224 223
f 183 225 224
f 193 226 227
f 193 227 228
f 193 228 229
f 193 229 230
f 193 230 231
f 193 231 232
f 193 232 233
f 193 233 234
f 193 234 235
f 193 235 225
f 183 194 225
f 194 195 225
f 195 196 225
f 196 197 225
f 197 198 225
f 198 199 225
f 199 200 225
f 200 201 225
f 201 202 225
f 202 203 225
f 203 204 225
f 204 205 225
f 205 206 225
f 206 207 225
f 207 208 225
f 208 209 225
f 209 210 225
f 210 211 225
f 211 212 225
f 212 213 225
f 213 214 225
f 214 193 225
