v 0.401105 0.010000 -0.536670
v 0.403051 0.010000 -0.535210
v 0.404993 0.010000 -0.533742
v 0.406929 0.010000 -0.532268
v 0.408859 0.010000 -0.530786
v 0.410785 0.010000 -0.529298
v 0.412704 0.010000 -0.527802
v 0.414619 0.010000 -0.526300
v 0.416528 0.010000 -0.524790
v 0.418431 0.010000 -0.523274
v 0.420329 0.010000 -0.521750
v 0.422221 0.010000 -0.520220
v 0.424108 0.010000 -0.518683
v 0.425989 0.010000 -0.517139
v 0.427865 0.010000 -0.515589
v 0.429735 0.010000 -0.514031
v 0.431599 0.010000 -0.512467
v 0.433458 0.010000 -0.510896
v 0.435311 0.010000 -0.509318
v 0.437158 0.010000 -0.507733
v 0.438999 0.010000 -0.506142
v 0.440835 0.010000 -0.504544
v 0.442664 0.010000 -0.502940
v 0.444488 0.010000 -0.501329
v 0.446306 0.010000 -0.499711
v 0.448118 0.010000 -0.498086
v 0.449924 0.010000 -0.496455
v 0.451725 0.010000 -0.494818
v 0.453519 0.010000 -0.493174
v 0.455307 0.010000 -0.491523
v 0.457090 0.010000 -0.489866
v 0.458866 0.010000 -0.488203
v 0.401105 0.000000 -0.536670
v 0.403051 0.000000 -0.535210
v 0.404993 0.000000 -0.533742
v 0.406929 0.000000 -0.532268
v 0.408859 0.000000 -0.530786
v 0.410785 0.000000 -0.529298
v 0.412704 0.000000 -0.527802
v 0.414619 0.000000 -0.526300
v 0.416528 0.000000 -0.524790
v 0.418431 0.000000 -0.523274
v 0.420329 0.000000 -0.521750
v 0.422221 0.000000 -0.520220
v 0.424108 0.000000 -0.518683
v 0.425989 0.000000 -0.517139
v 0.427865 0.000000 -0.515589
v 0.429735 0.000000 -0.514031
v 0.431599 0.000000 -0.512467
v 0.433458 0.000000 -0.510896
v 0.435311 0.000000 -0.509318
v 0.437158 0.000000 -0.507733
v 0.438999 0.000000 -0.506142
v 0.440835 0.000000 -0.504544
v 0.442664 0.000000 -0.502940
v 0.444488 0.000000 -0.501329
v 0.446306 0.000000 -0.499711
v 0.448118 0.000000 -0.498086
v 0.449924 0.000000 -0.496455
v 0.451725 0.000000 -0.494818
v 0.453519 0.000000 -0.493174
v 0.455307 0.000000 -0.491523
v 0.457090 0.000000 -0.489866
v 0.458866 0.000000 -0.488203
f 1 2 34
f 1 34 33
f 2 3 35
f 2 35 34
f 3 4 36
f 3 36 35
f 4 5 37
f 4 37 36
f 5 6 38
f 5 38 37
f 6 7 39
f 6 39 38
f 7 8 40
f 7 40 39
f 8 9 41
f 8 41 40
f 9 10 42
f 9 42 41
f 10 11 43
f 10 43 42
f 11 12 44
f 11 44 43
f 12 13 45
f 12 45 44
f 13 14 46
f 13 46 45
f 14 15 47
f 14 47 46
f 15 16 48
f 15 48 47
f 16 17 49
f 16 49 48
f 17 18 50
f 17 50 49
f 18 19 51
f 18 51 50
f 19 20 52
f 19 52 51
f 20 21 53
f 20 53 52
f 21 22 54
f 21 54 53
f 22 23 55
f 22 55 54
f 23 24 56
f 23 56 55
f 24 25 57
f 24 57 56
f 25 26 58
f 25 58 57
f 26 27 59
f 26 59 58
f 27 28 60
f 27 60 59
f 28 29 61
f 28 61 60
f 29 30 62
f 29 62 61
f 30 31 63
f 30 63 62
f 31 32 64
f 31 64 63
