v 0.405000 -0.375000 -6.720383
v 0.403604 -0.375020 -6.720381
v 0.405000 -0.408690 -6.529318
v 0.402468 -0.408753 -6.529329
v 0.402208 -0.375081 -6.720375
v 0.400814 -0.375183 -6.720366
v 0.399942 -0.408943 -6.529362
v 0.399421 -0.375325 -6.720353
v 0.398032 -0.375507 -6.720335
v 0.397429 -0.409258 -6.529418
v 0.396648 -0.375729 -6.720314
v 0.395268 -0.375992 -6.720290
v 0.394935 -0.409698 -6.529495
v 0.393896 -0.376293 -6.720261
v 0.392532 -0.376635 -6.720229
v 0.392467 -0.410262 -6.529595
v 0.391176 -0.377016 -6.720193
v 0.390032 -0.410948 -6.529716
v 0.389831 -0.377436 -6.720153
v 0.388496 -0.377895 -6.720109
v 0.387635 -0.411755 -6.529858
v 0.387174 -0.378393 -6.720062
v 0.385866 -0.378930 -6.720011
v 0.385282 -0.412681 -6.530021
v 0.384571 -0.379506 -6.719956
v 0.383293 -0.380119 -6.719898
v 0.382980 -0.413722 -6.530205
v 0.382030 -0.380771 -6.719836
v 0.380786 -0.381459 -6.719770
v 0.380735 -0.414877 -6.530409
v 0.379559 -0.382184 -6.719700
v 0.378552 -0.416143 -6.530632
v 0.378352 -0.382945 -6.719627
v 0.377165 -0.383741 -6.719550
v 0.376437 -0.417516 -6.530874
v 0.375999 -0.384573 -6.719470
v 0.374855 -0.385440 -6.719386
v 0.374395 -0.418992 -6.531134
v 0.373734 -0.386340 -6.719299
v 0.372638 -0.387275 -6.719208
v 0.372431 -0.420569 -6.531412
v 0.371567 -0.388242 -6.719114
v 0.370552 -0.422241 -6.531707
v 0.370521 -0.389243 -6.719016
v 0.369503 -0.390275 -6.718915
v 0.368760 -0.424005 -6.532018
v 0.368512 -0.391339 -6.718811
v 0.367550 -0.392434 -6.718703
v 0.367062 -0.425857 -6.532345
v 0.366617 -0.393557 -6.718592
v 0.365715 -0.394710 -6.718478
v 0.365461 -0.427790 -6.532685
v 0.364844 -0.395889 -6.718361
v 0.364005 -0.397096 -6.718240
v 0.363962 -0.429801 -6.533040
v 0.363198 -0.398327 -6.718117
v 0.362568 -0.431884 -6.533407
v 0.362425 -0.399583 -6.717992
v 0.361687 -0.400862 -6.717863
v 0.361283 -0.434034 -6.533786
v 0.360984 -0.402164 -6.717732
v 0.360316 -0.403487 -6.717598
v 0.360110 -0.436245 -6.534176
v 0.359686 -0.404830 -6.717461
v 0.359093 -0.406192 -6.717323
v 0.359052 -0.438512 -6.534576
v 0.358539 -0.407573 -6.717181
v 0.358112 -0.440829 -6.534985
v 0.358024 -0.408971 -6.717038
v 0.357548 -0.410385 -6.716892
v 0.357293 -0.443190 -6.535401
v 0.357111 -0.411814 -6.716745
v 0.356715 -0.413257 -6.716595
v 0.356596 -0.445588 -6.535824
v 0.356358 -0.414713 -6.716443
v 0.356043 -0.416180 -6.716290
v 0.356024 -0.448018 -6.536252
v 0.355768 -0.417658 -6.716135
v 0.355577 -0.450474 -6.536685
v 0.355535 -0.419146 -6.715979
v 0.355343 -0.420642 -6.715821
v 0.355257 -0.452949 -6.537122
v 0.355194 -0.422146 -6.715662
v 0.355086 -0.423655 -6.715501
v 0.355064 -0.455436 -6.537560
v 0.355022 -0.425170 -6.715340
v 0.355000 -0.426689 -6.715177
v 0.355000 -0.457930 -6.538000
f 1 3 2
f 2 3 4
f 2 4 5
f 5 4 6
f 6 4 7
f 6 7 8
f 8 7 9
f 9 7 10
f 9 10 11
f 11 10 12
f 12 10 13
f 12 13 14
f 14 13 15
f 15 13 16
f 15 16 17
f 17 16 18
f 17 18 19
f 19 18 20
f 20 18 21
f 20 21 22
f 22 21 23
f 23 21 24
f 23 24 25
f 25 24 26
f 26 24 27
f 26 27 28
f 28 27 29
f 29 27 30
f 29 30 31
f 31 30 32
f 31 32 33
f 33 32 34
f 34 32 35
f 34 35 36
f 36 35 37
f 37 35 38
f 37 38 39
f 39 38 40
f 40 38 41
f 40 41 42
f 42 41 43
f 42 43 44
f 44 43 45
f 45 43 46
f 45 46 47
f 47 46 48
f 48 46 49
f 48 49 50
f 50 49 51
f 51 49 52
f 51 52 53
f 53 52 54
f 54 52 55
f 54 55 56
f 56 55 57
f 56 57 58
f 58 57 59
f 59 57 60
f 59 60 61
f 61 60 62
f 62 60 63
f 62 63 64
f 64 63 65
f 65 63 66
f 65 66 67
f 67 66 68
f 67 68 69
f 69 68 70
f 70 68 71
f 70 71 72
f 72 71 73
f 73 71 74
f 73 74 75
f 75 74 76
f 76 74 77
f 76 77 78
f 78 77 79
f 78 79 80
f 80 79 81
f 81 79 82
f 81 82 83
f 83 82 84
f 84 82 85
f 84 85 86
f 86 85 87
f 87 85 88
