v 0.546752 -0.364795 -1.087726
v 0.519627 -0.356213 -1.094996
v 0.519790 -0.355975 -1.094984
v 0.519951 -0.355741 -1.094963
v 0.520109 -0.355508 -1.094935
v 0.520267 -0.355278 -1.094899
v 0.520422 -0.355051 -1.094855
v 0.520576 -0.354826 -1.094802
v 0.520728 -0.354602 -1.094743
v 0.520878 -0.354382 -1.094675
v 0.521027 -0.354163 -1.094599
v 0.521174 -0.353946 -1.094516
v 0.521320 -0.353731 -1.094426
v 0.521464 -0.353518 -1.094327
v 0.521608 -0.353307 -1.094221
v 0.521749 -0.353097 -1.094108
v 0.521890 -0.352890 -1.093987
v 0.522028 -0.352685 -1.093859
v 0.522165 -0.352482 -1.093724
v 0.522300 -0.352282 -1.093582
v 0.522433 -0.352085 -1.093432
v 0.522564 -0.351891 -1.093276
v 0.522692 -0.351700 -1.093113
v 0.522818 -0.351513 -1.092943
v 0.522941 -0.351329 -1.092766
v 0.523062 -0.351150 -1.092582
v 0.523180 -0.350974 -1.092392
v 0.523295 -0.350803 -1.092195
v 0.523406 -0.350637 -1.091992
v 0.523514 -0.350475 -1.091782
v 0.523619 -0.350318 -1.091567
v 0.523721 -0.350166 -1.091346
v 0.523819 -0.350020 -1.091119
v 0.523914 -0.349878 -1.090887
v 0.524004 -0.349742 -1.090650
v 0.524092 -0.349611 -1.090409
v 0.524175 -0.349486 -1.090163
v 0.524255 -0.349366 -1.089913
v 0.524331 -0.349252 -1.089658
v 0.524403 -0.349144 -1.089401
v 0.524471 -0.349042 -1.089139
v 0.524535 -0.348945 -1.088875
v 0.524595 -0.348855 -1.088608
v 0.524651 -0.348772 -1.088338
v 0.524702 -0.348694 -1.088065
v 0.524749 -0.348623 -1.087789
v 0.524792 -0.348559 -1.087510
v 0.524831 -0.348500 -1.087227
v 0.524865 -0.348449 -1.086941
v 0.524895 -0.348404 -1.086652
v 0.524920 -0.348366 -1.086360
v 0.524941 -0.348335 -1.086064
v 0.524957 -0.348310 -1.085764
v 0.524969 -0.348292 -1.085460
v 0.524976 -0.348282 -1.085153
v 0.524978 -0.348278 -1.084841
v 0.512623 -0.366221 -1.095000
v 0.399680 -0.296008 -1.130371
v 0.397671 -0.294759 -1.131000
v 0.398183 -0.294066 -1.131000
v 0.412519 -0.273593 -1.131000
v 0.412994 -0.272875 -1.131000
v 0.414853 -0.274334 -1.130372
v 0.419495 -0.282624 -1.128115
v 0.420762 -0.280734 -1.128115
v 0.416433 -0.305773 -1.125230
v 0.428467 -0.288669 -1.125230
v 0.429761 -0.286738 -1.125230
v 0.426553 -0.310261 -1.122345
v 0.436109 -0.296678 -1.122345
v 0.437439 -0.294713 -1.122345
v 0.435302 -0.316624 -1.119460
v 0.445054 -0.302763 -1.119460
v 0.446412 -0.300758 -1.119460
v 0.444051 -0.322988 -1.116575
v 0.453999 -0.308848 -1.116575
v 0.455384 -0.306803 -1.116575
v 0.454277 -0.327312 -1.113690
v 0.461523 -0.317013 -1.113690
v 0.462944 -0.314933 -1.113690
v 0.463054 -0.333636 -1.110805
v 0.470440 -0.323138 -1.110805
v 0.471889 -0.321018 -1.110805
v 0.471832 -0.339960 -1.107921
v 0.479358 -0.329263 -1.107921
v 0.480834 -0.327103 -1.107921
v 0.482162 -0.344119 -1.105036
v 0.486762 -0.337581 -1.105036
v 0.488275 -0.335388 -1.105036
v 0.490968 -0.350404 -1.102151
v 0.495651 -0.343747 -1.102151
v 0.497193 -0.341514 -1.102151
v 0.499773 -0.356688 -1.099266
v 0.504541 -0.349912 -1.099266
v 0.506110 -0.347639 -1.099266
v 0.508579 -0.362973 -1.096381
v 0.513431 -0.356077 -1.096381
v 0.515027 -0.353764 -1.096381
v 0.520686 -0.364588 -1.093496
v 0.523945 -0.359889 -1.093496
v 0.525558 -0.357529 -1.093496
v 0.532862 -0.366015 -1.090611
v 0.534503 -0.363614 -1.090611
v 0.536134 -0.361206 -1.090611
v 0.545106 -0.367251 -1.087726
v 0.401693 -0.297259 -1.129741
v 0.412042 -0.274311 -1.131000
v 0.418220 -0.284508 -1.128115
v 0.427164 -0.290593 -1.125230
v 0.434770 -0.298637 -1.122345
v 0.443688 -0.304762 -1.119460
v 0.452605 -0.310887 -1.116575
v 0.460092 -0.319085 -1.113690
v 0.468982 -0.325251 -1.110805
v 0.477872 -0.331416 -1.107921
v 0.485238 -0.339767 -1.105036
v 0.494100 -0.345973 -1.102151
v 0.502962 -0.352178 -1.099266
v 0.511824 -0.358383 -1.096381
v 0.522321 -0.362242 -1.093496
v 0.403709 -0.298512 -1.129110
v 0.411563 -0.275028 -1.131000
v 0.517450 -0.354873 -1.095681
v 0.519463 -0.356453 -1.095000
v 0.407713 -0.299370 -1.128115
v 0.416936 -0.286386 -1.128115
v 0.425853 -0.292512 -1.125230
v 0.433423 -0.300589 -1.122345
v 0.442313 -0.306755 -1.119460
v 0.451202 -0.312920 -1.116575
v 0.458652 -0.321152 -1.113690
v 0.467514 -0.327357 -1.110805
v 0.476376 -0.333562 -1.107921
v 0.483705 -0.341947 -1.105036
v 0.492539 -0.348192 -1.102151
v 0.501373 -0.354437 -1.099266
v 0.510207 -0.360682 -1.096381
v 0.405728 -0.299767 -1.128479
v 0.411084 -0.275745 -1.131000
v 0.515441 -0.353296 -1.096361
v 0.415643 -0.288259 -1.128115
v 0.424533 -0.294424 -1.125230
v 0.432066 -0.302536 -1.122345
v 0.440928 -0.308741 -1.119460
v 0.449790 -0.314946 -1.116575
v 0.457203 -0.323212 -1.113690
v 0.466037 -0.329457 -1.110805
v 0.474871 -0.335702 -1.107921
v 0.407749 -0.301024 -1.127846
v 0.410603 -0.276460 -1.131000
v 0.414342 -0.290126 -1.128115
v 0.423204 -0.296331 -1.125230
v 0.430701 -0.304476 -1.122345
v 0.439535 -0.310722 -1.119460
v 0.448369 -0.316967 -1.116575
v 0.455744 -0.325265 -1.113690
v 0.464550 -0.331550 -1.110805
v 0.473356 -0.337834 -1.107921
v 0.409774 -0.302282 -1.127212
v 0.410121 -0.277174 -1.131000
v 0.413033 -0.291986 -1.128115
v 0.421867 -0.298231 -1.125230
v 0.429327 -0.306411 -1.122345
v 0.438133 -0.312695 -1.119460
v 0.446939 -0.318980 -1.116575
v 0.411802 -0.303543 -1.126577
v 0.409638 -0.277888 -1.131000
v 0.411715 -0.293841 -1.128115
v 0.420521 -0.300126 -1.125230
v 0.427944 -0.308339 -1.122345
v 0.436722 -0.314663 -1.119460
v 0.445499 -0.320987 -1.116575
v 0.413833 -0.304805 -1.125942
v 0.409153 -0.278601 -1.131000
v 0.513434 -0.351721 -1.097039
v 0.410389 -0.295690 -1.128115
v 0.419167 -0.302015 -1.125230
v 0.415866 -0.306069 -1.125305
v 0.408668 -0.279313 -1.131000
v 0.511430 -0.350148 -1.097717
v 0.409055 -0.297533 -1.128115
v 0.417804 -0.303897 -1.125230
v 0.417903 -0.307335 -1.124668
v 0.408181 -0.280024 -1.131000
v 0.509429 -0.348578 -1.098394
v 0.419943 -0.308603 -1.124029
v 0.407692 -0.280734 -1.131000
v 0.507431 -0.347009 -1.099070
v 0.510454 -0.364872 -1.095680
v 0.421985 -0.309873 -1.123390
v 0.407203 -0.281444 -1.131000
v 0.505436 -0.345443 -1.099745
v 0.508287 -0.363525 -1.096359
v 0.424031 -0.311144 -1.122749
v 0.406712 -0.282153 -1.131000
v 0.503443 -0.343879 -1.100419
v 0.506124 -0.362180 -1.097036
v 0.426080 -0.312418 -1.122108
v 0.406220 -0.282860 -1.131000
v 0.501453 -0.342317 -1.101092
v 0.503963 -0.360837 -1.097713
v 0.428131 -0.313693 -1.121466
v 0.405727 -0.283567 -1.131000
v 0.499466 -0.340758 -1.101764
v 0.501806 -0.359496 -1.098389
v 0.430186 -0.314970 -1.120822
v 0.405233 -0.284273 -1.131000
v 0.497482 -0.339200 -1.102435
v 0.432244 -0.316249 -1.120178
v 0.404737 -0.284978 -1.131000
v 0.495501 -0.337645 -1.103106
v 0.499651 -0.358156 -1.099065
v 0.434304 -0.317530 -1.119533
v 0.404240 -0.285683 -1.131000
v 0.493522 -0.336092 -1.103775
v 0.497500 -0.356818 -1.099739
v 0.436368 -0.318813 -1.118887
v 0.403742 -0.286386 -1.131000
v 0.491547 -0.334541 -1.104443
v 0.495351 -0.355482 -1.100412
v 0.438435 -0.320098 -1.118240
v 0.403243 -0.287089 -1.131000
v 0.489574 -0.332992 -1.105110
v 0.493205 -0.354148 -1.101084
v 0.440505 -0.321385 -1.117592
v 0.402743 -0.287790 -1.131000
v 0.487604 -0.331446 -1.105777
v 0.491062 -0.352816 -1.101756
v 0.442577 -0.322673 -1.116942
v 0.402241 -0.288491 -1.131000
v 0.485637 -0.329902 -1.106442
v 0.488922 -0.351485 -1.102426
v 0.444653 -0.323964 -1.116292
v 0.401738 -0.289191 -1.131000
v 0.483672 -0.328360 -1.107106
v 0.486785 -0.350157 -1.103096
v 0.446732 -0.325256 -1.115642
v 0.401234 -0.289890 -1.131000
v 0.481710 -0.326820 -1.107770
v 0.484650 -0.348830 -1.103764
v 0.448813 -0.326550 -1.114990
v 0.400728 -0.290589 -1.131000
v 0.479752 -0.325282 -1.108432
v 0.482519 -0.347505 -1.104432
v 0.450898 -0.327846 -1.114337
v 0.400222 -0.291286 -1.131000
v 0.477795 -0.323747 -1.109094
v 0.480391 -0.346181 -1.105099
v 0.452985 -0.329144 -1.113683
v 0.399714 -0.291982 -1.131000
v 0.475842 -0.322214 -1.109754
v 0.478265 -0.344860 -1.105765
v 0.455076 -0.330443 -1.113028
v 0.399205 -0.292678 -1.131000
v 0.473892 -0.320682 -1.110414
v 0.476142 -0.343540 -1.106430
v 0.457169 -0.331745 -1.112373
v 0.398695 -0.293373 -1.131000
v 0.471944 -0.319154 -1.111072
v 0.474023 -0.342222 -1.107094
v 0.459266 -0.333048 -1.111716
v 0.469999 -0.317627 -1.111730
v 0.461365 -0.334353 -1.111059
v 0.416714 -0.275795 -1.129743
v 0.468057 -0.316103 -1.112387
v 0.471906 -0.340906 -1.107757
v 0.463468 -0.335660 -1.110400
v 0.418578 -0.277258 -1.129113
v 0.466118 -0.314580 -1.113042
v 0.469792 -0.339592 -1.108419
v 0.465573 -0.336969 -1.109741
v 0.420445 -0.278724 -1.128482
v 0.464182 -0.313061 -1.113697
v 0.467681 -0.338280 -1.109080
v 0.422315 -0.280192 -1.127850
v 0.462249 -0.311543 -1.114351
v 0.424187 -0.281662 -1.127218
v 0.460318 -0.310027 -1.115004
v 0.426063 -0.283135 -1.126584
v 0.458391 -0.308514 -1.115655
v 0.456466 -0.307003 -1.116306
v 0.427941 -0.284610 -1.125949
v 0.454544 -0.305494 -1.116956
v 0.429823 -0.286087 -1.125313
v 0.452625 -0.303988 -1.117605
v 0.431707 -0.287566 -1.124676
v 0.450709 -0.302484 -1.118253
v 0.433594 -0.289048 -1.124038
v 0.448796 -0.300982 -1.118899
v 0.435484 -0.290532 -1.123399
v 0.446885 -0.299482 -1.119545
v 0.437377 -0.292018 -1.122759
v 0.444978 -0.297985 -1.120190
v 0.439273 -0.293506 -1.122119
v 0.443073 -0.296489 -1.120834
v 0.441172 -0.294997 -1.121477
f 1 2 3
f 3 4 5
f 5 6 7
f 7 8 9
f 9 10 11
f 11 12 13
f 13 14 15
f 15 16 17
f 17 18 19
f 19 20 21
f 21 22 23
f 23 24 25
f 25 26 27
f 27 28 29
f 29 30 31
f 31 32 33
f 33 34 35
f 35 36 37
f 37 38 39
f 39 40 41
f 41 42 43
f 43 44 45
f 45 46 47
f 47 48 49
f 49 50 51
f 51 52 53
f 53 54 55
f 55 56 57
f 58 59 60
f 61 62 63
f 64 65 66
f 67 68 69
f 70 71 72
f 73 74 75
f 76 77 78
f 79 80 81
f 82 83 84
f 85 86 87
f 88 89 90
f 91 92 93
f 94 95 96
f 97 98 99
f 100 101 102
f 103 104 105
f 1 3 5
f 5 7 9
f 9 11 13
f 13 15 17
f 17 19 21
f 21 23 25
f 25 27 29
f 29 31 33
f 33 35 37
f 37 39 41
f 41 43 45
f 45 47 49
f 49 51 53
f 53 55 57
f 106 58 60
f 107 61 63
f 108 64 66
f 109 67 69
f 110 70 72
f 111 73 75
f 112 76 78
f 113 79 81
f 114 82 84
f 115 85 87
f 116 88 90
f 117 91 93
f 118 94 96
f 119 97 99
f 120 100 102
f 102 103 105
f 1 5 9
f 9 13 17
f 17 21 25
f 25 29 33
f 33 37 41
f 41 45 49
f 121 106 60
f 122 107 63
f 123 124 125
f 126 108 66
f 127 109 69
f 128 110 72
f 129 111 75
f 130 112 78
f 131 113 81
f 132 114 84
f 133 115 87
f 134 116 90
f 135 117 93
f 136 118 96
f 137 119 99
f 99 120 102
f 1 9 17
f 17 25 33
f 33 41 49
f 138 121 60
f 139 122 63
f 140 123 125
f 141 126 66
f 142 127 69
f 143 128 72
f 144 129 75
f 145 130 78
f 146 131 81
f 147 132 84
f 148 133 87
f 87 134 90
f 90 135 93
f 93 136 96
f 96 137 99
f 1 17 33
f 33 49 53
f 149 138 60
f 150 139 63
f 151 141 66
f 152 142 69
f 153 143 72
f 154 144 75
f 155 145 78
f 156 146 81
f 157 147 84
f 158 148 87
f 1 33 53
f 159 149 60
f 160 150 63
f 161 151 66
f 162 152 69
f 163 153 72
f 164 154 75
f 165 155 78
f 78 156 81
f 81 157 84
f 84 158 87
f 105 1 53
f 166 159 60
f 167 160 63
f 168 161 66
f 169 162 69
f 170 163 72
f 171 164 75
f 172 165 78
f 84 87 90
f 105 53 57
f 173 166 60
f 174 167 63
f 175 140 125
f 176 168 66
f 177 169 69
f 69 170 72
f 72 171 75
f 75 172 78
f 84 90 93
f 99 102 57
f 102 105 57
f 178 173 60
f 179 174 63
f 180 175 125
f 181 176 66
f 182 177 69
f 75 78 81
f 84 93 96
f 96 99 57
f 183 178 60
f 184 179 63
f 185 180 125
f 125 181 66
f 66 182 69
f 75 81 84
f 84 96 57
f 186 183 60
f 187 184 63
f 188 185 125
f 66 69 72
f 84 57 189
f 190 186 60
f 191 187 63
f 192 188 125
f 66 72 75
f 84 189 193
f 194 190 60
f 195 191 63
f 196 192 125
f 84 193 197
f 198 194 60
f 199 195 63
f 200 196 125
f 84 197 201
f 202 198 60
f 203 199 63
f 204 200 125
f 84 201 205
f 206 202 60
f 207 203 63
f 208 204 125
f 75 84 205
f 209 206 60
f 210 207 63
f 211 208 125
f 75 205 212
f 213 209 60
f 214 210 63
f 215 211 125
f 75 212 216
f 217 213 60
f 218 214 63
f 219 215 125
f 75 216 220
f 221 217 60
f 222 218 63
f 223 219 125
f 75 220 224
f 225 221 60
f 226 222 63
f 227 223 125
f 75 224 228
f 229 225 60
f 230 226 63
f 231 227 125
f 75 228 232
f 233 229 60
f 234 230 63
f 235 231 125
f 75 232 236
f 237 233 60
f 238 234 63
f 239 235 125
f 75 236 240
f 241 237 60
f 242 238 63
f 243 239 125
f 75 240 244
f 245 241 60
f 246 242 63
f 247 243 125
f 75 244 248
f 249 245 60
f 250 246 63
f 251 247 125
f 75 248 252
f 253 249 60
f 254 250 63
f 255 251 125
f 75 252 256
f 257 253 60
f 258 254 63
f 259 255 125
f 75 256 260
f 261 257 60
f 60 258 63
f 262 259 125
f 66 75 260
f 263 261 60
f 60 63 264
f 265 262 125
f 66 260 266
f 267 263 60
f 60 264 268
f 269 265 125
f 66 266 270
f 271 267 60
f 60 268 272
f 273 269 125
f 66 270 274
f 274 271 60
f 60 272 275
f 276 273 125
f 66 274 60
f 60 275 277
f 278 276 125
f 125 66 60
f 60 277 279
f 280 278 125
f 125 60 279
f 281 280 125
f 125 279 282
f 283 281 125
f 125 282 284
f 285 283 125
f 125 284 286
f 287 285 125
f 125 286 288
f 289 287 125
f 125 288 290
f 291 289 125
f 125 290 292
f 293 291 125
f 125 292 294
f 295 293 125
f 125 294 296
f 296 295 125
f 124 2 3
