v 0.571497 0.220000 0.450842
v 0.540797 0.220000 0.406998
v 0.540915 0.220000 0.395361
v 0.540915 0.010000 0.395361
v 0.540797 0.016837 0.406998
v 0.540722 0.016713 0.406891
v 0.540647 0.016588 0.406783
v 0.540571 0.016463 0.406676
v 0.540496 0.016338 0.406568
v 0.540421 0.016214 0.406461
v 0.540345 0.016089 0.406353
v 0.540270 0.015964 0.406246
v 0.540195 0.015839 0.406138
v 0.540120 0.015715 0.406031
v 0.540045 0.015590 0.405923
v 0.539969 0.015465 0.405816
v 0.539894 0.015341 0.405709
v 0.539819 0.015216 0.405601
v 0.539744 0.015092 0.405494
v 0.539669 0.014967 0.405387
v 0.539593 0.014842 0.405279
v 0.539518 0.014718 0.405172
v 0.539443 0.014593 0.405065
v 0.539368 0.014469 0.404957
v 0.539293 0.014344 0.404850
v 0.539218 0.014220 0.404743
v 0.539143 0.014096 0.404636
v 0.539068 0.013971 0.404528
v 0.538993 0.013847 0.404421
v 0.538918 0.013722 0.404314
v 0.538843 0.013598 0.404207
v 0.538767 0.013474 0.404100
v 0.538692 0.013349 0.403992
v 0.538617 0.013225 0.403885
v 0.538542 0.013101 0.403778
v 0.538467 0.012977 0.403671
v 0.538392 0.012852 0.403564
v 0.538317 0.012728 0.403457
v 0.538242 0.012604 0.403350
v 0.538168 0.012480 0.403243
v 0.538093 0.012356 0.403136
v 0.538018 0.012231 0.403029
v 0.537943 0.012107 0.402922
v 0.537868 0.011983 0.402815
v 0.537793 0.011859 0.402708
v 0.537718 0.011735 0.402601
v 0.537643 0.011611 0.402494
v 0.537568 0.011487 0.402387
v 0.537493 0.011363 0.402280
v 0.537418 0.011239 0.402173
v 0.537344 0.011115 0.402066
v 0.537269 0.010991 0.401959
v 0.537194 0.010867 0.401852
v 0.537119 0.010743 0.401745
v 0.537044 0.010619 0.401639
v 0.536970 0.010495 0.401532
v 0.536895 0.010371 0.401425
v 0.536820 0.010248 0.401318
v 0.536745 0.010124 0.401211
v 0.536670 0.010000 0.401105
v 0.536670 0.000000 0.401105
v 0.571497 0.000000 0.450842
v 0.570966 0.000000 0.463006
v 0.570966 0.220000 0.463006
f 2 3 4
f 1 2 4
f 64 1 4
f 64 4 5
f 59 60 61
f 58 59 61
f 57 58 61
f 56 57 61
f 55 56 61
f 54 55 61
f 53 54 61
f 52 53 61
f 51 52 61
f 50 51 61
f 49 50 61
f 48 49 61
f 47 48 61
f 46 47 61
f 45 46 61
f 44 45 61
f 43 44 61
f 42 43 61
f 41 42 61
f 40 41 61
f 39 40 61
f 38 39 61
f 37 38 61
f 36 37 61
f 35 36 61
f 34 35 61
f 33 34 61
f 32 33 61
f 31 32 61
f 30 31 61
f 29 30 61
f 28 29 61
f 27 28 61
f 26 27 61
f 25 26 61
f 24 25 61
f 23 24 61
f 22 23 61
f 21 22 61
f 20 21 61
f 19 20 61
f 18 19 61
f 17 18 61
f 16 17 61
f 15 16 61
f 14 15 61
f 13 14 61
f 12 13 61
f 11 12 61
f 10 11 61
f 9 10 61
f 8 9 61
f 7 8 61
f 6 7 61
f 5 6 61
f 5 61 62
f 64 5 62
f 62 63 64
