v -0.646859 0.192870 -0.036213
v -0.646853 0.192868 -0.035778
v -0.646857 0.192870 -0.035995
v -0.646846 0.192866 -0.035562
v -0.646836 0.192862 -0.035347
v -0.646823 0.192857 -0.035132
v -0.646807 0.192852 -0.034918
v -0.646789 0.192845 -0.034705
v -0.646767 0.192837 -0.034493
v -0.646743 0.192828 -0.034282
v -0.646716 0.192818 -0.034071
v -0.646686 0.192807 -0.033860
v -0.646653 0.192795 -0.033651
v -0.646618 0.192782 -0.033442
v -0.646579 0.192768 -0.033233
v -0.646538 0.192753 -0.033026
v -0.646493 0.192737 -0.032818
v -0.646446 0.192720 -0.032611
v -0.646396 0.192702 -0.032405
v -0.646343 0.192683 -0.032199
v -0.646288 0.192662 -0.031994
v -0.646229 0.192641 -0.031789
v -0.646168 0.192619 -0.031585
v -0.646104 0.192595 -0.031381
v -0.646037 0.192571 -0.031178
v -0.645967 0.192546 -0.030977
v -0.645895 0.192519 -0.030776
v -0.645820 0.192492 -0.030576
v -0.645743 0.192464 -0.030377
v -0.645663 0.192435 -0.030180
v -0.645580 0.192405 -0.029983
v -0.645495 0.192374 -0.029788
v -0.645407 0.192342 -0.029595
v -0.645317 0.192309 -0.029403
v -0.645225 0.192275 -0.029212
v -0.645130 0.192241 -0.029023
v -0.645032 0.192205 -0.028836
v -0.644933 0.192169 -0.028650
v -0.644831 0.192132 -0.028467
v -0.644726 0.192094 -0.028285
v -0.644620 0.192055 -0.028105
v -0.644510 0.192016 -0.027927
v -0.644399 0.191975 -0.027750
v -0.644285 0.191933 -0.027575
v -0.644169 0.191891 -0.027402
v -0.644050 0.191848 -0.027231
v -0.643928 0.191804 -0.027061
v -0.643805 0.191759 -0.026893
v -0.643678 0.191713 -0.026727
v -0.643550 0.191666 -0.026562
v -0.643418 0.191618 -0.026399
v -0.643284 0.191569 -0.026237
v -0.643148 0.191520 -0.026077
v -0.643009 0.191469 -0.025919
v -0.642867 0.191417 -0.025762
v -0.642723 0.191365 -0.025607
v -0.673814 0.040000 -0.036213
v -0.673812 0.040000 -0.035995
v -0.673808 0.040000 -0.035778
v -0.673800 0.040000 -0.035562
v -0.673790 0.040000 -0.035347
v -0.673776 0.040000 -0.035132
v -0.673759 0.040000 -0.034918
v -0.673739 0.040000 -0.034705
v -0.673717 0.040000 -0.034493
v -0.673691 0.040000 -0.034282
v -0.673662 0.040000 -0.034071
v -0.673630 0.040000 -0.033860
v -0.673595 0.040000 -0.033651
v -0.673557 0.040000 -0.033442
v -0.673516 0.040000 -0.033233
v -0.673472 0.040000 -0.033026
v -0.673425 0.040000 -0.032818
v -0.673375 0.040000 -0.032611
v -0.673322 0.040000 -0.032405
v -0.673265 0.040000 -0.032199
v -0.673206 0.040000 -0.031994
v -0.673144 0.040000 -0.031789
v -0.673078 0.040000 -0.031585
v -0.673010 0.040000 -0.031381
v -0.672939 0.040000 -0.031178
v -0.672865 0.040000 -0.030977
v -0.672788 0.040000 -0.030776
v -0.672709 0.040000 -0.030576
v -0.672626 0.040000 -0.030377
v -0.672541 0.040000 -0.030180
v -0.672453 0.040000 -0.029983
v -0.672363 0.040000 -0.029788
v -0.672269 0.040000 -0.029595
v -0.672173 0.040000 -0.029403
v -0.672075 0.040000 -0.029212
v -0.671974 0.040000 -0.029023
v -0.671870 0.040000 -0.028836
v -0.671764 0.040000 -0.028650
v -0.671656 0.040000 -0.028467
v -0.671545 0.040000 -0.028285
v -0.671431 0.040000 -0.028105
v -0.671315 0.040000 -0.027927
v -0.671196 0.040000 -0.027750
v -0.671075 0.040000 -0.027575
v -0.670951 0.040000 -0.027402
v -0.670825 0.040000 -0.027231
v -0.670696 0.040000 -0.027061
v -0.670564 0.040000 -0.026893
v -0.670429 0.040000 -0.026727
v -0.670292 0.040000 -0.026562
v -0.670153 0.040000 -0.026399
v -0.670010 0.040000 -0.026237
v -0.669865 0.040000 -0.026077
v -0.669717 0.040000 -0.025919
v -0.669566 0.040000 -0.025762
v -0.669413 0.040000 -0.025607
v -0.648275 0.188056 -0.036213
v -0.644123 0.186597 -0.025607
v -0.649655 0.183231 -0.036213
v -0.645488 0.181819 -0.025607
v -0.650999 0.178396 -0.036213
v -0.646818 0.177032 -0.025607
v -0.652308 0.173551 -0.036213
v -0.648112 0.172234 -0.025607
v -0.653580 0.168696 -0.036213
v -0.649370 0.167427 -0.025607
v -0.654816 0.163832 -0.036213
v -0.650593 0.162611 -0.025607
v -0.656016 0.158960 -0.036213
v -0.651780 0.157786 -0.025607
v -0.657180 0.154078 -0.036213
v -0.652931 0.152952 -0.025607
v -0.658307 0.149188 -0.036213
v -0.654046 0.148110 -0.025607
v -0.659398 0.144289 -0.036213
v -0.655126 0.143260 -0.025607
v -0.660452 0.139383 -0.036213
v -0.656169 0.138402 -0.025607
v -0.661470 0.134469 -0.036213
v -0.657177 0.133536 -0.025607
v -0.662452 0.129547 -0.036213
v -0.658148 0.128663 -0.025607
v -0.663397 0.124618 -0.036213
v -0.659084 0.123783 -0.025607
v -0.664305 0.119683 -0.036213
v -0.659983 0.118896 -0.025607
v -0.660845 0.114002 -0.025607
v -0.665176 0.114741 -0.036213
v -0.661672 0.109102 -0.025607
v -0.666011 0.109792 -0.036213
v -0.662462 0.104197 -0.025607
v -0.666809 0.104837 -0.036213
v -0.663216 0.099285 -0.025607
v -0.667570 0.099877 -0.036213
v -0.663934 0.094368 -0.025607
v -0.668294 0.094911 -0.036213
v -0.664615 0.089446 -0.025607
v -0.668981 0.089940 -0.036213
v -0.665259 0.084519 -0.025607
v -0.669631 0.084964 -0.036213
v -0.665867 0.079588 -0.025607
v -0.670245 0.079983 -0.036213
v -0.666439 0.074652 -0.025607
v -0.670821 0.074998 -0.036213
v -0.666973 0.069711 -0.025607
v -0.671360 0.070008 -0.036213
v -0.667472 0.064768 -0.025607
v -0.671862 0.065015 -0.036213
v -0.667933 0.059820 -0.025607
v -0.672326 0.060018 -0.036213
v -0.668358 0.054869 -0.025607
v -0.672754 0.055018 -0.036213
v -0.668746 0.049916 -0.025607
v -0.673145 0.050015 -0.036213
v -0.669098 0.044959 -0.025607
v -0.673498 0.045008 -0.036213
f 1 2 3
f 1 4 2
f 1 5 4
f 1 6 5
f 1 7 6
f 1 8 7
f 1 9 8
f 1 10 9
f 1 11 10
f 1 12 11
f 1 13 12
f 1 14 13
f 1 15 14
f 1 16 15
f 1 17 16
f 1 18 17
f 1 19 18
f 1 20 19
f 1 21 20
f 1 22 21
f 1 23 22
f 1 24 23
f 1 25 24
f 1 26 25
f 1 27 26
f 1 28 27
f 1 29 28
f 1 30 29
f 1 31 30
f 1 32 31
f 1 33 32
f 1 34 33
f 1 35 34
f 1 36 35
f 1 37 36
f 1 38 37
f 1 39 38
f 1 40 39
f 1 41 40
f 1 42 41
f 1 43 42
f 1 44 43
f 1 45 44
f 1 46 45
f 1 47 46
f 1 48 47
f 1 49 48
f 1 50 49
f 1 51 50
f 1 52 51
f 1 53 52
f 1 54 53
f 1 55 54
f 1 56 55
f 57 58 59
f 57 59 60
f 57 60 61
f 57 61 62
f 57 62 63
f 57 63 64
f 57 64 65
f 57 65 66
f 57 66 67
f 57 67 68
f 57 68 69
f 57 69 70
f 57 70 71
f 57 71 72
f 57 72 73
f 57 73 74
f 57 74 75
f 57 75 76
f 57 76 77
f 57 77 78
f 57 78 79
f 57 79 80
f 57 80 81
f 57 81 82
f 57 82 83
f 57 83 84
f 57 84 85
f 57 85 86
f 57 86 87
f 57 87 88
f 57 88 89
f 57 89 90
f 57 90 91
f 57 91 92
f 57 92 93
f 57 93 94
f 57 94 95
f 57 95 96
f 57 96 97
f 57 97 98
f 57 98 99
f 57 99 100
f 57 100 101
f 57 101 102
f 57 102 103
f 57 103 104
f 57 104 105
f 57 105 106
f 57 106 107
f 57 107 108
f 57 108 109
f 57 109 110
f 57 110 111
f 57 111 112
f 1 113 56
f 113 114 56
f 113 115 114
f 115 116 114
f 115 117 116
f 117 118 116
f 117 119 118
f 119 120 118
f 119 121 120
f 121 122 120
f 121 123 122
f 123 124 122
f 123 125 124
f 125 126 124
f 125 127 126
f 127 128 126
f 127 129 128
f 129 130 128
f 129 131 130
f 131 132 130
f 131 133 132
f 133 134 132
f 133 135 134
f 135 136 134
f 135 137 136
f 137 138 136
f 137 139 138
f 139 140 138
f 139 141 140
f 141 142 140
f 141 143 142
f 141 144 143
f 144 145 143
f 144 146 145
f 146 147 145
f 146 148 147
f 148 149 147
f 148 150 149
f 150 151 149
f 150 152 151
f 152 153 151
f 152 154 153
f 154 155 153
f 154 156 155
f 156 157 155
f 156 158 157
f 158 159 157
f 158 160 159
f 160 161 159
f 160 162 161
f 162 163 161
f 162 164 163
f 164 165 163
f 164 166 165
f 166 167 165
f 166 168 167
f 168 169 167
f 168 170 169
f 170 171 169
f 170 172 171
f 172 112 171
f 172 57 112
