v 0.668499 0.010000 0.044829
v 0.668499 0.220000 0.044829
v 0.675888 0.220000 0.035839
v 0.727588 0.220000 0.021986
v 0.727588 0.000000 0.021986
v 0.668938 0.000000 0.037701
v 0.668938 0.010000 0.037701
v 0.675888 0.016837 0.035839
v 0.675658 0.016611 0.035904
v 0.675431 0.016388 0.035973
v 0.675206 0.016168 0.036048
v 0.674985 0.015951 0.036127
v 0.674765 0.015736 0.036212
v 0.674549 0.015525 0.036301
v 0.674336 0.015317 0.036395
v 0.674125 0.015112 0.036494
v 0.673918 0.014911 0.036597
v 0.673713 0.014712 0.036705
v 0.673512 0.014517 0.036818
v 0.673313 0.014325 0.036934
v 0.673118 0.014137 0.037055
v 0.672925 0.013952 0.037180
v 0.672736 0.013770 0.037310
v 0.672551 0.013592 0.037443
v 0.672368 0.013418 0.037580
v 0.672189 0.013247 0.037722
v 0.672014 0.013080 0.037867
v 0.671842 0.012916 0.038016
v 0.671673 0.012757 0.038168
v 0.671509 0.012601 0.038325
v 0.671348 0.012450 0.038485
v 0.671191 0.012302 0.038648
v 0.671037 0.012159 0.038815
v 0.670888 0.012020 0.038985
v 0.670743 0.011885 0.039158
v 0.670601 0.011754 0.039335
v 0.670464 0.011628 0.039515
v 0.670331 0.011506 0.039698
v 0.670202 0.011388 0.039883
v 0.670078 0.011275 0.040072
v 0.669958 0.011166 0.040263
v 0.669842 0.011063 0.040456
v 0.669731 0.010963 0.040651
v 0.669624 0.010869 0.040849
v 0.669522 0.010779 0.041048
v 0.669424 0.010694 0.041250
v 0.669332 0.010614 0.041453
v 0.669244 0.010539 0.041657
v 0.669160 0.010469 0.041863
v 0.669082 0.010403 0.042070
v 0.669008 0.010343 0.042279
v 0.668940 0.010288 0.042488
v 0.668876 0.010237 0.042698
v 0.668817 0.010192 0.042909
v 0.668763 0.010151 0.043121
v 0.668713 0.010116 0.043333
v 0.668668 0.010085 0.043546
v 0.668628 0.010059 0.043759
v 0.668593 0.010038 0.043973
v 0.668562 0.010021 0.044187
v 0.668537 0.010009 0.044401
v 0.668515 0.010002 0.044615
f 62 1 2
f 62 2 3
f 62 3 4
f 5 6 7
f 5 7 8
f 4 5 8
f 62 4 8
f 62 8 9
f 62 9 10
f 62 10 11
f 62 11 12
f 62 12 13
f 62 13 14
f 62 14 15
f 62 15 16
f 62 16 17
f 62 17 18
f 62 18 19
f 62 19 20
f 62 20 21
f 62 21 22
f 62 22 23
f 62 23 24
f 62 24 25
f 62 25 26
f 62 26 27
f 62 27 28
f 62 28 29
f 62 29 30
f 62 30 31
f 62 31 32
f 62 32 33
f 62 33 34
f 62 34 35
f 62 35 36
f 62 36 37
f 62 37 38
f 62 38 39
f 62 39 40
f 62 40 41
f 62 41 42
f 62 42 43
f 62 43 44
f 62 44 45
f 62 45 46
f 62 46 47
f 62 47 48
f 62 48 49
f 62 49 50
f 62 50 51
f 62 51 52
f 62 52 53
f 62 53 54
f 62 54 55
f 62 55 56
f 62 56 57
f 62 57 58
f 62 58 59
f 62 59 60
f 60 61 62
