v -0.264310 -0.601792 -1.087726
v -0.260569 -0.573589 -1.094996
v -0.260307 -0.573708 -1.094984
v -0.260048 -0.573825 -1.094963
v -0.259791 -0.573941 -1.094935
v -0.259538 -0.574056 -1.094899
v -0.259286 -0.574169 -1.094855
v -0.259038 -0.574282 -1.094802
v -0.258792 -0.574393 -1.094743
v -0.258548 -0.574502 -1.094675
v -0.258307 -0.574611 -1.094599
v -0.258068 -0.574718 -1.094516
v -0.257831 -0.574825 -1.094426
v -0.257596 -0.574930 -1.094327
v -0.257363 -0.575034 -1.094221
v -0.257132 -0.575137 -1.094108
v -0.256903 -0.575240 -1.093987
v -0.256677 -0.575340 -1.093859
v -0.256454 -0.575440 -1.093724
v -0.256234 -0.575538 -1.093582
v -0.256016 -0.575635 -1.093432
v -0.255802 -0.575730 -1.093276
v -0.255592 -0.575823 -1.093113
v -0.255386 -0.575915 -1.092943
v -0.255184 -0.576004 -1.092766
v -0.254986 -0.576092 -1.092582
v -0.254793 -0.576178 -1.092392
v -0.254605 -0.576261 -1.092195
v -0.254421 -0.576342 -1.091992
v -0.254243 -0.576420 -1.091782
v -0.254071 -0.576496 -1.091567
v -0.253903 -0.576570 -1.091346
v -0.253742 -0.576641 -1.091119
v -0.253586 -0.576710 -1.090887
v -0.253436 -0.576776 -1.090650
v -0.253292 -0.576839 -1.090409
v -0.253154 -0.576900 -1.090163
v -0.253022 -0.576957 -1.089913
v -0.252897 -0.577012 -1.089658
v -0.252778 -0.577064 -1.089401
v -0.252665 -0.577114 -1.089139
v -0.252560 -0.577160 -1.088875
v -0.252461 -0.577203 -1.088608
v -0.252368 -0.577244 -1.088338
v -0.252283 -0.577281 -1.088065
v -0.252205 -0.577315 -1.087789
v -0.252134 -0.577346 -1.087510
v -0.252070 -0.577374 -1.087227
v -0.252013 -0.577399 -1.086941
v -0.251964 -0.577420 -1.086652
v -0.251922 -0.577439 -1.086360
v -0.251888 -0.577454 -1.086064
v -0.251861 -0.577465 -1.085764
v -0.251841 -0.577474 -1.085460
v -0.251830 -0.577479 -1.085153
v -0.251826 -0.577481 -1.084841
v -0.271641 -0.568429 -1.095000
v -0.222108 -0.445010 -1.130371
v -0.221226 -0.442814 -1.131000
v -0.220455 -0.443198 -1.131000
v -0.197804 -0.453761 -1.131000
v -0.197013 -0.454104 -1.131000
v -0.198127 -0.456188 -1.130372
v -0.205486 -0.462199 -1.128115
v -0.203404 -0.463119 -1.128115
v -0.228815 -0.463203 -1.125230
v -0.209881 -0.472085 -1.125230
v -0.207755 -0.473024 -1.125230
v -0.231477 -0.473949 -1.122345
v -0.216441 -0.481001 -1.122345
v -0.214275 -0.481970 -1.122345
v -0.236225 -0.483670 -1.119460
v -0.220881 -0.490867 -1.119460
v -0.218670 -0.491856 -1.119460
v -0.240973 -0.493391 -1.116575
v -0.225320 -0.500733 -1.116575
v -0.223065 -0.501741 -1.116575
v -0.243455 -0.504212 -1.113690
v -0.232054 -0.509560 -1.113690
v -0.229759 -0.510599 -1.113690
v -0.248159 -0.513955 -1.110805
v -0.236538 -0.519405 -1.110805
v -0.234199 -0.520464 -1.110805
v -0.252863 -0.523697 -1.107921
v -0.241021 -0.529251 -1.107921
v -0.238638 -0.530330 -1.107921
v -0.255165 -0.534592 -1.105036
v -0.247927 -0.537987 -1.105036
v -0.245505 -0.539097 -1.105036
v -0.259825 -0.544356 -1.102151
v -0.252455 -0.547812 -1.102151
v -0.249989 -0.548942 -1.102151
v -0.264485 -0.554119 -1.099266
v -0.256983 -0.557638 -1.099266
v -0.254472 -0.558788 -1.099266
v -0.269145 -0.563882 -1.096381
v -0.261511 -0.567463 -1.096381
v -0.258956 -0.568634 -1.096381
v -0.268633 -0.576086 -1.093496
v -0.263440 -0.578479 -1.093496
v -0.260835 -0.579658 -1.093496
v -0.267923 -0.588325 -1.090611
v -0.265274 -0.589524 -1.090611
v -0.262620 -0.590711 -1.090611
v -0.267015 -0.600597 -1.087726
v -0.222990 -0.447209 -1.129741
v -0.198594 -0.453415 -1.131000
v -0.207563 -0.461270 -1.128115
v -0.212002 -0.471136 -1.125230
v -0.218603 -0.480023 -1.122345
v -0.223086 -0.489869 -1.119460
v -0.227570 -0.499714 -1.116575
v -0.234344 -0.508511 -1.113690
v -0.238872 -0.518336 -1.110805
v -0.243399 -0.528162 -1.107921
v -0.250345 -0.536866 -1.105036
v -0.254917 -0.546671 -1.102151
v -0.259489 -0.556476 -1.099266
v -0.264061 -0.566281 -1.096381
v -0.266039 -0.577288 -1.093496
v -0.223874 -0.449412 -1.129110
v -0.199383 -0.453069 -1.131000
v -0.259628 -0.571212 -1.095681
v -0.260834 -0.573468 -1.095000
v -0.224024 -0.453504 -1.128115
v -0.209635 -0.460332 -1.128115
v -0.214119 -0.470177 -1.125230
v -0.220760 -0.479035 -1.122345
v -0.225288 -0.488860 -1.119460
v -0.229816 -0.498686 -1.116575
v -0.236629 -0.507452 -1.113690
v -0.241201 -0.517256 -1.110805
v -0.245773 -0.527061 -1.107921
v -0.252757 -0.535735 -1.105036
v -0.257373 -0.545519 -1.102151
v -0.261990 -0.555303 -1.099266
v -0.266606 -0.565087 -1.096381
v -0.224759 -0.451618 -1.128479
v -0.200171 -0.452721 -1.131000
v -0.258423 -0.568959 -1.096361
v -0.211704 -0.459384 -1.128115
v -0.216232 -0.469210 -1.125230
v -0.222912 -0.478037 -1.122345
v -0.227484 -0.487842 -1.119460
v -0.232056 -0.497647 -1.116575
v -0.238909 -0.506382 -1.113690
v -0.243525 -0.516166 -1.110805
v -0.248141 -0.525950 -1.107921
v -0.225646 -0.453827 -1.127846
v -0.200959 -0.452372 -1.131000
v -0.213768 -0.458427 -1.128115
v -0.218340 -0.468232 -1.125230
v -0.225060 -0.477029 -1.122345
v -0.229677 -0.486814 -1.119460
v -0.234293 -0.496598 -1.116575
v -0.241184 -0.505302 -1.113690
v -0.245844 -0.515066 -1.110805
v -0.250504 -0.524829 -1.107921
v -0.226533 -0.456040 -1.127212
v -0.201747 -0.452021 -1.131000
v -0.215828 -0.457461 -1.128115
v -0.220444 -0.467245 -1.125230
v -0.227204 -0.476012 -1.122345
v -0.231864 -0.485776 -1.119460
v -0.236524 -0.495539 -1.116575
v -0.227422 -0.458255 -1.126577
v -0.202534 -0.451669 -1.131000
v -0.217884 -0.456486 -1.128115
v -0.222544 -0.466249 -1.125230
v -0.229343 -0.474985 -1.122345
v -0.234047 -0.484728 -1.119460
v -0.238751 -0.494470 -1.116575
v -0.228313 -0.460474 -1.125942
v -0.203320 -0.451316 -1.131000
v -0.257221 -0.566710 -1.097039
v -0.219935 -0.455501 -1.128115
v -0.224639 -0.465243 -1.125230
v -0.229205 -0.462697 -1.125305
v -0.204105 -0.450961 -1.131000
v -0.256020 -0.564463 -1.097717
v -0.221981 -0.454507 -1.128115
v -0.226729 -0.464228 -1.125230
v -0.230098 -0.464922 -1.124668
v -0.204890 -0.450605 -1.131000
v -0.254820 -0.562220 -1.098394
v -0.230992 -0.467151 -1.124029
v -0.205674 -0.450248 -1.131000
v -0.253623 -0.559979 -1.099070
v -0.270690 -0.566058 -1.095680
v -0.231888 -0.469383 -1.123390
v -0.206458 -0.449889 -1.131000
v -0.252427 -0.557742 -1.099745
v -0.269740 -0.563691 -1.096359
v -0.232785 -0.471619 -1.122749
v -0.207241 -0.449529 -1.131000
v -0.251233 -0.555509 -1.100419
v -0.268791 -0.561327 -1.097036
v -0.233683 -0.473857 -1.122108
v -0.208024 -0.449167 -1.131000
v -0.250040 -0.553278 -1.101092
v -0.267843 -0.558966 -1.097713
v -0.234583 -0.476099 -1.121466
v -0.208805 -0.448804 -1.131000
v -0.248849 -0.551050 -1.101764
v -0.266896 -0.556608 -1.098389
v -0.235484 -0.478344 -1.120822
v -0.209587 -0.448440 -1.131000
v -0.247660 -0.548826 -1.102435
v -0.265951 -0.554254 -1.099065
v -0.236387 -0.480593 -1.120178
v -0.210367 -0.448074 -1.131000
v -0.246472 -0.546605 -1.103106
v -0.265007 -0.551902 -1.099739
v -0.237290 -0.482845 -1.119533
v -0.211147 -0.447707 -1.131000
v -0.245287 -0.544386 -1.103775
v -0.264065 -0.549554 -1.100412
v -0.238195 -0.485100 -1.118887
v -0.211926 -0.447339 -1.131000
v -0.244102 -0.542172 -1.104443
v -0.263124 -0.547209 -1.101084
v -0.239102 -0.487358 -1.118240
v -0.212705 -0.446969 -1.131000
v -0.242920 -0.539960 -1.105110
v -0.262184 -0.544867 -1.101756
v -0.240009 -0.489620 -1.117592
v -0.213483 -0.446598 -1.131000
v -0.241739 -0.537751 -1.105777
v -0.261245 -0.542529 -1.102426
v -0.240918 -0.491885 -1.116942
v -0.214260 -0.446226 -1.131000
v -0.240560 -0.535545 -1.106442
v -0.260308 -0.540193 -1.103096
v -0.241829 -0.494153 -1.116292
v -0.215037 -0.445852 -1.131000
v -0.239382 -0.533343 -1.107106
v -0.259371 -0.537861 -1.103764
v -0.242740 -0.496425 -1.115642
v -0.215813 -0.445477 -1.131000
v -0.238207 -0.531144 -1.107770
v -0.258437 -0.535532 -1.104432
v -0.243653 -0.498700 -1.114990
v -0.216588 -0.445101 -1.131000
v -0.237032 -0.528948 -1.108432
v -0.257503 -0.533206 -1.105099
v -0.244567 -0.500978 -1.114337
v -0.217363 -0.444723 -1.131000
v -0.235860 -0.526755 -1.109094
v -0.256571 -0.530883 -1.105765
v -0.245483 -0.503259 -1.113683
v -0.218137 -0.444344 -1.131000
v -0.234689 -0.524565 -1.109754
v -0.255640 -0.528564 -1.106430
v -0.246400 -0.505543 -1.113028
v -0.218910 -0.443963 -1.131000
v -0.233520 -0.522378 -1.110414
v -0.254710 -0.526248 -1.107094
v -0.247318 -0.507831 -1.112373
v -0.219683 -0.443581 -1.131000
v -0.232353 -0.520195 -1.111072
v -0.248238 -0.510122 -1.111716
v -0.231187 -0.518014 -1.111730
v -0.253781 -0.523934 -1.107757
v -0.249158 -0.512416 -1.111059
v -0.199243 -0.458274 -1.129743
v -0.230023 -0.515837 -1.112387
v -0.252854 -0.521624 -1.108419
v -0.250080 -0.514713 -1.110400
v -0.200361 -0.460364 -1.129113
v -0.228861 -0.513663 -1.113042
v -0.251928 -0.519317 -1.109080
v -0.251004 -0.517014 -1.109741
v -0.201480 -0.462457 -1.128482
v -0.227700 -0.511493 -1.113697
v -0.202601 -0.464554 -1.127850
v -0.226541 -0.509325 -1.114351
v -0.203724 -0.466653 -1.127218
v -0.225384 -0.507161 -1.115004
v -0.204849 -0.468756 -1.126584
v -0.224228 -0.505000 -1.115655
v -0.223075 -0.502842 -1.116306
v -0.205975 -0.470862 -1.125949
v -0.221923 -0.500687 -1.116956
v -0.207103 -0.472971 -1.125313
v -0.220772 -0.498535 -1.117605
v -0.208232 -0.475084 -1.124676
v -0.219624 -0.496387 -1.118253
v -0.209364 -0.477199 -1.124038
v -0.218477 -0.494242 -1.118899
v -0.210497 -0.479318 -1.123399
v -0.217331 -0.492100 -1.119545
v -0.211632 -0.481441 -1.122759
v -0.216188 -0.489962 -1.120190
v -0.212768 -0.483566 -1.122119
v -0.215046 -0.487827 -1.120834
v -0.213906 -0.485695 -1.121477
f 1 2 3
f 3 4 5
f 5 6 7
f 7 8 9
f 9 10 11
f 11 12 13
f 13 14 15
f 15 16 17
f 17 18 19
f 19 20 21
f 21 22 23
f 23 24 25
f 25 26 27
f 27 28 29
f 29 30 31
f 31 32 33
f 33 34 35
f 35 36 37
f 37 38 39
f 39 40 41
f 41 42 43
f 43 44 45
f 45 46 47
f 47 48 49
f 49 50 51
f 51 52 53
f 53 54 55
f 55 56 57
f 58 59 60
f 61 62 63
f 64 65 66
f 67 68 69
f 70 71 72
f 73 74 75
f 76 77 78
f 79 80 81
f 82 83 84
f 85 86 87
f 88 89 90
f 91 92 93
f 94 95 96
f 97 98 99
f 100 101 102
f 103 104 105
f 1 3 5
f 5 7 9
f 9 11 13
f 13 15 17
f 17 19 21
f 21 23 25
f 25 27 29
f 29 31 33
f 33 35 37
f 37 39 41
f 41 43 45
f 45 47 49
f 49 51 53
f 53 55 57
f 106 58 60
f 107 61 63
f 108 64 66
f 109 67 69
f 110 70 72
f 111 73 75
f 112 76 78
f 113 79 81
f 114 82 84
f 115 85 87
f 116 88 90
f 117 91 93
f 118 94 96
f 119 97 99
f 120 100 102
f 102 103 105
f 1 5 9
f 9 13 17
f 17 21 25
f 25 29 33
f 33 37 41
f 41 45 49
f 121 106 60
f 122 107 63
f 123 124 125
f 126 108 66
f 127 109 69
f 128 110 72
f 129 111 75
f 130 112 78
f 131 113 81
f 132 114 84
f 133 115 87
f 134 116 90
f 135 117 93
f 136 118 96
f 137 119 99
f 99 120 102
f 1 9 17
f 17 25 33
f 33 41 49
f 138 121 60
f 139 122 63
f 140 123 125
f 141 126 66
f 142 127 69
f 143 128 72
f 144 129 75
f 145 130 78
f 146 131 81
f 147 132 84
f 148 133 87
f 87 134 90
f 90 135 93
f 93 136 96
f 96 137 99
f 1 17 33
f 33 49 53
f 149 138 60
f 150 139 63
f 151 141 66
f 152 142 69
f 153 143 72
f 154 144 75
f 155 145 78
f 156 146 81
f 157 147 84
f 158 148 87
f 1 33 53
f 159 149 60
f 160 150 63
f 161 151 66
f 162 152 69
f 163 153 72
f 164 154 75
f 165 155 78
f 78 156 81
f 81 157 84
f 84 158 87
f 105 1 53
f 166 159 60
f 167 160 63
f 168 161 66
f 169 162 69
f 170 163 72
f 171 164 75
f 172 165 78
f 84 87 90
f 105 53 57
f 173 166 60
f 174 167 63
f 175 140 125
f 176 168 66
f 177 169 69
f 69 170 72
f 72 171 75
f 75 172 78
f 84 90 93
f 102 105 57
f 178 173 60
f 179 174 63
f 180 175 125
f 181 176 66
f 182 177 69
f 75 78 81
f 84 93 96
f 96 99 57
f 99 102 57
f 183 178 60
f 184 179 63
f 185 180 125
f 125 181 66
f 66 182 69
f 75 81 84
f 84 96 57
f 186 183 60
f 187 184 63
f 188 185 125
f 66 69 72
f 84 57 189
f 190 186 60
f 191 187 63
f 192 188 125
f 66 72 75
f 84 189 193
f 194 190 60
f 195 191 63
f 196 192 125
f 84 193 197
f 198 194 60
f 199 195 63
f 200 196 125
f 84 197 201
f 202 198 60
f 203 199 63
f 204 200 125
f 84 201 205
f 206 202 60
f 207 203 63
f 208 204 125
f 84 205 209
f 210 206 60
f 211 207 63
f 212 208 125
f 84 209 213
f 214 210 60
f 215 211 63
f 216 212 125
f 84 213 217
f 218 214 60
f 219 215 63
f 220 216 125
f 84 217 221
f 222 218 60
f 223 219 63
f 224 220 125
f 84 221 225
f 226 222 60
f 227 223 63
f 228 224 125
f 84 225 229
f 230 226 60
f 231 227 63
f 232 228 125
f 84 229 233
f 234 230 60
f 235 231 63
f 236 232 125
f 84 233 237
f 238 234 60
f 239 235 63
f 240 236 125
f 84 237 241
f 242 238 60
f 243 239 63
f 244 240 125
f 84 241 245
f 246 242 60
f 247 243 63
f 248 244 125
f 84 245 249
f 250 246 60
f 251 247 63
f 252 248 125
f 84 249 253
f 254 250 60
f 255 251 63
f 256 252 125
f 84 253 257
f 258 254 60
f 259 255 63
f 260 256 125
f 66 75 257
f 75 84 257
f 261 258 60
f 60 259 63
f 262 260 125
f 66 257 263
f 264 261 60
f 60 63 265
f 266 262 125
f 66 263 267
f 268 264 60
f 60 265 269
f 270 266 125
f 66 267 271
f 272 268 60
f 60 269 273
f 274 270 125
f 66 271 272
f 60 273 275
f 276 274 125
f 66 272 60
f 60 275 277
f 278 276 125
f 125 66 60
f 60 277 279
f 280 278 125
f 125 60 279
f 281 280 125
f 125 279 282
f 283 281 125
f 125 282 284
f 285 283 125
f 125 284 286
f 287 285 125
f 125 286 288
f 289 287 125
f 125 288 290
f 291 289 125
f 125 290 292
f 293 291 125
f 125 292 294
f 295 293 125
f 125 294 296
f 296 295 125
f 124 2 3
