v 0.305000 0.808203 -6.538000
v 0.304970 0.458807 -6.535870
v 0.305000 0.457930 -6.538000
v 0.304964 0.809032 -6.535371
v 0.304879 0.459682 -6.533743
v 0.304856 0.809839 -6.532809
v 0.304728 0.460555 -6.531621
v 0.304678 0.810626 -6.530315
v 0.304518 0.461426 -6.529504
v 0.304432 0.811392 -6.527885
v 0.304247 0.462294 -6.527394
v 0.304119 0.812138 -6.525519
v 0.303917 0.463159 -6.525293
v 0.303743 0.812865 -6.523214
v 0.303527 0.464019 -6.523201
v 0.303077 0.464875 -6.521120
v 0.303303 0.813573 -6.520969
v 0.302568 0.465726 -6.519051
v 0.302803 0.814262 -6.518782
v 0.302000 0.466572 -6.516996
v 0.302243 0.814934 -6.516652
v 0.301372 0.467411 -6.514955
v 0.301626 0.815588 -6.514576
v 0.300685 0.468244 -6.512931
v 0.300953 0.816226 -6.512554
v 0.299939 0.469069 -6.510925
v 0.300226 0.816848 -6.510583
v 0.299136 0.469886 -6.508938
v 0.299448 0.817453 -6.508661
v 0.298276 0.470694 -6.506974
v 0.298619 0.818044 -6.506788
v 0.297741 0.818620 -6.504961
v 0.297359 0.471493 -6.505033
v 0.296817 0.819182 -6.503178
v 0.296388 0.472281 -6.503117
v 0.295847 0.819731 -6.501438
v 0.295362 0.473057 -6.501229
v 0.294835 0.820266 -6.499740
v 0.294282 0.473822 -6.499371
v 0.293781 0.820789 -6.498081
v 0.293150 0.474574 -6.497543
v 0.292687 0.821300 -6.496460
v 0.291965 0.475312 -6.495749
v 0.291556 0.821800 -6.494875
v 0.290729 0.476036 -6.493989
v 0.290388 0.822289 -6.493324
v 0.289443 0.476745 -6.492266
v 0.289186 0.822768 -6.491807
v 0.288107 0.477438 -6.490581
v 0.287951 0.823236 -6.490320
v 0.286724 0.478116 -6.488935
v 0.286686 0.823696 -6.488862
v 0.285392 0.824147 -6.487433
v 0.285294 0.478776 -6.487330
v 0.284070 0.824589 -6.486029
v 0.283819 0.479420 -6.485767
v 0.282723 0.825024 -6.484649
v 0.282301 0.480046 -6.484246
v 0.281350 0.825451 -6.483295
v 0.280739 0.480653 -6.482770
v 0.279950 0.825870 -6.481966
v 0.279137 0.481242 -6.481340
v 0.278520 0.826280 -6.480666
v 0.277495 0.481812 -6.479956
v 0.277058 0.826681 -6.479396
v 0.275814 0.482362 -6.478619
v 0.275563 0.827071 -6.478158
v 0.274096 0.482891 -6.477332
v 0.274031 0.827451 -6.476954
v 0.272342 0.483400 -6.476096
v 0.272462 0.827819 -6.475786
v 0.270853 0.828175 -6.474657
v 0.270554 0.483888 -6.474910
v 0.269202 0.828519 -6.473567
v 0.268733 0.484354 -6.473777
v 0.267508 0.828849 -6.472519
v 0.266881 0.484799 -6.472696
v 0.265767 0.829166 -6.471515
v 0.264999 0.485222 -6.471669
v 0.263978 0.829468 -6.470557
v 0.263089 0.485622 -6.470696
v 0.262139 0.829755 -6.469646
v 0.261153 0.486000 -6.469777
v 0.260249 0.830026 -6.468785
v 0.259191 0.486355 -6.468915
v 0.258304 0.830281 -6.467976
v 0.257206 0.486686 -6.468109
v 0.256302 0.830520 -6.467221
v 0.255198 0.486994 -6.467360
v 0.254243 0.830740 -6.466521
v 0.253171 0.487278 -6.466669
v 0.252123 0.830943 -6.465878
v 0.251124 0.487538 -6.466037
v 0.249942 0.831127 -6.465295
v 0.249060 0.487774 -6.465463
v 0.247695 0.831291 -6.464773
v 0.246981 0.487985 -6.464949
v 0.245383 0.831436 -6.464314
v 0.244888 0.488172 -6.464495
v 0.243002 0.831560 -6.463921
v 0.242783 0.488335 -6.464100
v 0.240668 0.488472 -6.463765
v 0.240551 0.831663 -6.463594
v 0.238544 0.488585 -6.463491
v 0.238027 0.831744 -6.463337
v 0.236414 0.488673 -6.463277
v 0.235428 0.831803 -6.463151
v 0.234279 0.488737 -6.463123
v 0.232753 0.831838 -6.463038
v 0.232140 0.488775 -6.463031
v 0.230000 0.831850 -6.463000
v 0.230000 0.488788 -6.463000
f 1 3 2
f 1 2 4
f 4 2 5
f 4 5 6
f 6 5 7
f 6 7 8
f 8 7 9
f 8 9 10
f 10 9 11
f 10 11 12
f 12 11 13
f 12 13 14
f 14 13 15
f 14 15 16
f 14 16 17
f 17 16 18
f 17 18 19
f 19 18 20
f 19 20 21
f 21 20 22
f 21 22 23
f 23 22 24
f 23 24 25
f 25 24 26
f 25 26 27
f 27 26 28
f 27 28 29
f 29 28 30
f 29 30 31
f 31 30 32
f 32 30 33
f 32 33 34
f 34 33 35
f 34 35 36
f 36 35 37
f 36 37 38
f 38 37 39
f 38 39 40
f 40 39 41
f 40 41 42
f 42 41 43
f 42 43 44
f 44 43 45
f 44 45 46
f 46 45 47
f 46 47 48
f 48 47 49
f 48 49 50
f 50 49 51
f 50 51 52
f 52 51 53
f 53 51 54
f 53 54 55
f 55 54 56
f 55 56 57
f 57 56 58
f 57 58 59
f 59 58 60
f 59 60 61
f 61 60 62
f 61 62 63
f 63 62 64
f 63 64 65
f 65 64 66
f 65 66 67
f 67 66 68
f 67 68 69
f 69 68 70
f 69 70 71
f 71 70 72
f 72 70 73
f 72 73 74
f 74 73 75
f 74 75 76
f 76 75 77
f 76 77 78
f 78 77 79
f 78 79 80
f 80 79 81
f 80 81 82
f 82 81 83
f 82 83 84
f 84 83 85
f 84 85 86
f 86 85 87
f 86 87 88
f 88 87 89
f 88 89 90
f 90 89 91
f 90 91 92
f 92 91 93
f 92 93 94
f 94 93 95
f 94 95 96
f 96 95 97
f 96 97 98
f 98 97 99
f 98 99 100
f 100 99 101
f 100 101 102
f 100 102 103
f 103 102 104
f 103 104 105
f 105 104 106
f 105 106 107
f 107 106 108
f 107 108 109
f 109 108 110
f 109 110 111
f 111 110 112
