v -0.104692 0.220000 -0.720352
v -0.082072 0.220000 -0.671843
v -0.081896 0.220000 -0.671483
v -0.081705 0.220000 -0.671131
v -0.081500 0.220000 -0.670787
v -0.081282 0.220000 -0.670451
v -0.081050 0.220000 -0.670124
v -0.080805 0.220000 -0.669807
v -0.080548 0.220000 -0.669500
v -0.080279 0.220000 -0.669203
v -0.079998 0.220000 -0.668917
v -0.079706 0.220000 -0.668643
v -0.079403 0.220000 -0.668381
v -0.079090 0.220000 -0.668131
v -0.078767 0.220000 -0.667894
v -0.078435 0.220000 -0.667669
v -0.078094 0.220000 -0.667459
v -0.077745 0.220000 -0.667262
v -0.077389 0.220000 -0.667079
v -0.077025 0.220000 -0.666911
v -0.076655 0.220000 -0.666758
v -0.076279 0.220000 -0.666619
v -0.075898 0.220000 -0.666496
v -0.075512 0.220000 -0.666388
v -0.075123 0.220000 -0.666295
v -0.074729 0.220000 -0.666218
v -0.074333 0.220000 -0.666157
v -0.073935 0.220000 -0.666112
v -0.073536 0.220000 -0.666083
v -0.073135 0.220000 -0.666070
v -0.072735 0.220000 -0.666073
v -0.072335 0.220000 -0.666092
v -0.071935 0.220000 -0.666127
v -0.074812 0.220000 -0.665810
v -0.077688 0.220000 -0.665481
v -0.080562 0.220000 -0.665139
v -0.083435 0.220000 -0.664785
v -0.086306 0.220000 -0.664418
v -0.089175 0.220000 -0.664039
v -0.092043 0.220000 -0.663648
v -0.094909 0.220000 -0.663244
v -0.097773 0.220000 -0.662828
v -0.100636 0.220000 -0.662399
v -0.103496 0.220000 -0.661958
v -0.106355 0.220000 -0.661505
v -0.109212 0.220000 -0.661039
v -0.112066 0.220000 -0.660561
v -0.114919 0.220000 -0.660071
v -0.117769 0.220000 -0.659568
v -0.120617 0.220000 -0.659053
v -0.123463 0.220000 -0.658526
v -0.126307 0.220000 -0.657987
v -0.129148 0.220000 -0.657435
v -0.131987 0.220000 -0.656871
v -0.134824 0.220000 -0.656295
v -0.137657 0.220000 -0.655706
v -0.140489 0.220000 -0.655105
v -0.143317 0.220000 -0.654492
v -0.146144 0.220000 -0.653867
v -0.148967 0.220000 -0.653230
v -0.151787 0.220000 -0.652580
v -0.154605 0.220000 -0.651918
v -0.157420 0.220000 -0.651244
v -0.160232 0.220000 -0.650558
v -0.159845 0.220000 -0.650662
v -0.159462 0.220000 -0.650781
v -0.159085 0.220000 -0.650915
v -0.158713 0.220000 -0.651064
v -0.158347 0.220000 -0.651228
v -0.157989 0.220000 -0.651407
v -0.157637 0.220000 -0.651599
v -0.157294 0.220000 -0.651806
v -0.156960 0.220000 -0.652026
v -0.156634 0.220000 -0.652260
v -0.156318 0.220000 -0.652506
v -0.156012 0.220000 -0.652765
v -0.155717 0.220000 -0.653036
v -0.155433 0.220000 -0.653318
v -0.155160 0.220000 -0.653612
v -0.154900 0.220000 -0.653916
v -0.154651 0.220000 -0.654230
v -0.154416 0.220000 -0.654555
v -0.154194 0.220000 -0.654888
v -0.153985 0.220000 -0.655230
v -0.153790 0.220000 -0.655580
v -0.153609 0.220000 -0.655938
v -0.153443 0.220000 -0.656302
v -0.153292 0.220000 -0.656673
v -0.153155 0.220000 -0.657050
v -0.153034 0.220000 -0.657431
v -0.152928 0.220000 -0.657818
v -0.152838 0.220000 -0.658208
v -0.152763 0.220000 -0.658602
v -0.152704 0.220000 -0.658998
v -0.152661 0.220000 -0.659396
v -0.147996 0.220000 -0.712717
v -0.147951 0.220000 -0.713136
v -0.147887 0.220000 -0.713554
v -0.147806 0.220000 -0.713968
v -0.147708 0.220000 -0.714379
v -0.147592 0.220000 -0.714785
v -0.147460 0.220000 -0.715186
v -0.147310 0.220000 -0.715581
v -0.147144 0.220000 -0.715969
v -0.146962 0.220000 -0.716350
v -0.146764 0.220000 -0.716723
v -0.146550 0.220000 -0.717087
v -0.146322 0.220000 -0.717442
v -0.146078 0.220000 -0.717787
v -0.145820 0.220000 -0.718121
v -0.145548 0.220000 -0.718444
v -0.145263 0.220000 -0.718755
v -0.144965 0.220000 -0.719054
v -0.144654 0.220000 -0.719340
v -0.144332 0.220000 -0.719613
v -0.143998 0.220000 -0.719872
v -0.143654 0.220000 -0.720117
v -0.143300 0.220000 -0.720346
v -0.142937 0.220000 -0.720561
v -0.142564 0.220000 -0.720760
v -0.142184 0.220000 -0.720944
v -0.141796 0.220000 -0.721111
v -0.141402 0.220000 -0.721261
v -0.141001 0.220000 -0.721395
v -0.140595 0.220000 -0.721512
v -0.140185 0.220000 -0.721611
v -0.139771 0.220000 -0.721693
v -0.115492 0.220000 -0.725974
v -0.115075 0.220000 -0.726039
v -0.114655 0.220000 -0.726086
v -0.114234 0.220000 -0.726115
v -0.113812 0.220000 -0.726126
v -0.113390 0.220000 -0.726119
v -0.112968 0.220000 -0.726095
v -0.112548 0.220000 -0.726053
v -0.112130 0.220000 -0.725993
v -0.111715 0.220000 -0.725916
v -0.111303 0.220000 -0.725821
v -0.110896 0.220000 -0.725709
v -0.110494 0.220000 -0.725579
v -0.110098 0.220000 -0.725433
v -0.109709 0.220000 -0.725271
v -0.109326 0.220000 -0.725092
v -0.108952 0.220000 -0.724897
v -0.108586 0.220000 -0.724686
v -0.108229 0.220000 -0.724460
v -0.107882 0.220000 -0.724220
v -0.107546 0.220000 -0.723964
v -0.107220 0.220000 -0.723695
v -0.106907 0.220000 -0.723413
v -0.106605 0.220000 -0.723117
v -0.106316 0.220000 -0.722809
v -0.106041 0.220000 -0.722489
v -0.105779 0.220000 -0.722158
v -0.105532 0.220000 -0.721816
v -0.105299 0.220000 -0.721463
v -0.105081 0.220000 -0.721102
v -0.104879 0.220000 -0.720731
f 158 1 2
f 32 33 34
f 31 32 34
f 30 31 34
f 29 30 34
f 28 29 34
f 27 28 34
f 26 27 34
f 25 26 34
f 24 25 34
f 23 24 34
f 22 23 34
f 21 22 34
f 20 21 34
f 19 20 34
f 19 34 35
f 18 19 35
f 17 18 35
f 16 17 35
f 15 16 35
f 14 15 35
f 13 14 35
f 12 13 35
f 11 12 35
f 10 11 35
f 9 10 35
f 8 9 35
f 7 8 35
f 7 35 36
f 6 7 36
f 5 6 36
f 4 5 36
f 3 4 36
f 2 3 36
f 158 2 36
f 158 36 37
f 158 37 38
f 158 38 39
f 158 39 40
f 158 40 41
f 158 41 42
f 158 42 43
f 158 43 44
f 158 44 45
f 158 45 46
f 158 46 47
f 158 47 48
f 158 48 49
f 158 49 50
f 158 50 51
f 158 51 52
f 158 52 53
f 158 53 54
f 158 54 55
f 158 55 56
f 158 56 57
f 158 57 58
f 158 58 59
f 158 59 60
f 158 60 61
f 158 61 62
f 63 64 65
f 63 65 66
f 62 63 66
f 62 66 67
f 62 67 68
f 62 68 69
f 62 69 70
f 62 70 71
f 62 71 72
f 62 72 73
f 62 73 74
f 62 74 75
f 62 75 76
f 62 76 77
f 62 77 78
f 62 78 79
f 62 79 80
f 62 80 81
f 158 62 81
f 158 81 82
f 158 82 83
f 158 83 84
f 158 84 85
f 158 85 86
f 158 86 87
f 158 87 88
f 158 88 89
f 158 89 90
f 158 90 91
f 158 91 92
f 158 92 93
f 158 93 94
f 158 94 95
f 158 95 96
f 158 96 97
f 158 97 98
f 158 98 99
f 158 99 100
f 158 100 101
f 158 101 102
f 158 102 103
f 158 103 104
f 158 104 105
f 158 105 106
f 158 106 107
f 158 107 108
f 158 108 109
f 158 109 110
f 158 110 111
f 158 111 112
f 158 112 113
f 158 113 114
f 158 114 115
f 158 115 116
f 158 116 117
f 158 117 118
f 158 118 119
f 158 119 120
f 158 120 121
f 158 121 122
f 158 122 123
f 158 123 124
f 158 124 125
f 158 125 126
f 158 126 127
f 158 127 128
f 158 128 129
f 158 129 130
f 158 130 131
f 158 131 132
f 158 132 133
f 158 133 134
f 158 134 135
f 158 135 136
f 158 136 137
f 158 137 138
f 158 138 139
f 158 139 140
f 158 140 141
f 158 141 142
f 158 142 143
f 158 143 144
f 158 144 145
f 158 145 146
f 158 146 147
f 158 147 148
f 158 148 149
f 158 149 150
f 158 150 151
f 158 151 152
f 158 152 153
f 158 153 154
f 158 154 155
f 158 155 156
f 156 157 158
