v -2.615000 -0.375000 -4.037670
v -2.614939 -0.378106 -4.042037
v -2.615000 -0.375000 -3.150000
v -2.614904 -0.378799 -3.150000
v -2.614763 -0.381094 -4.046416
v -2.614615 -0.382588 -3.150000
v -2.614479 -0.383970 -4.050802
v -2.614135 -0.386357 -3.150000
v -2.614096 -0.386740 -4.055190
v -2.613622 -0.389411 -4.059576
v -2.613465 -0.390097 -3.150000
v -2.613064 -0.391989 -4.063954
v -2.612606 -0.393799 -3.150000
v -2.612432 -0.394480 -4.068321
v -2.611733 -0.396890 -4.072671
v -2.611560 -0.397452 -3.150000
v -2.610975 -0.399225 -4.076999
v -2.610331 -0.401048 -3.150000
v -2.610161 -0.401487 -4.081300
v -2.609295 -0.403676 -4.085569
v -2.608922 -0.404577 -3.150000
v -2.608380 -0.405795 -4.089799
v -2.607421 -0.407844 -4.093986
v -2.607335 -0.408030 -3.150000
v -2.606421 -0.409826 -4.098124
v -2.605576 -0.411398 -3.150000
v -2.605382 -0.411741 -4.102208
v -2.604310 -0.413591 -4.106231
v -2.603648 -0.414672 -3.150000
v -2.603207 -0.415379 -4.110192
v -2.602072 -0.417106 -4.114089
v -2.601557 -0.417845 -3.150000
v -2.600908 -0.418775 -4.117924
v -2.599715 -0.420390 -4.121698
v -2.599308 -0.420908 -3.150000
v -2.598492 -0.421952 -4.125411
v -2.597242 -0.423465 -4.129064
v -2.596907 -0.423853 -3.150000
v -2.595964 -0.424932 -4.132659
v -2.594660 -0.426354 -4.136195
v -2.594359 -0.426673 -3.150000
v -2.593329 -0.427734 -4.139673
v -2.591971 -0.429073 -4.143091
v -2.591673 -0.429359 -3.150000
v -2.590586 -0.430371 -4.146447
v -2.589174 -0.431629 -4.149740
v -2.588853 -0.431907 -3.150000
v -2.587735 -0.432848 -4.152967
v -2.586267 -0.434028 -4.156128
v -2.585908 -0.434308 -3.150000
v -2.584772 -0.435170 -4.159219
v -2.583249 -0.436275 -4.162241
v -2.582845 -0.436557 -3.150000
v -2.581697 -0.437342 -4.165190
v -2.580116 -0.438372 -4.168061
v -2.579672 -0.438648 -3.150000
v -2.578505 -0.439364 -4.170852
v -2.576864 -0.440318 -4.173559
v -2.576398 -0.440576 -3.150000
v -2.575192 -0.441233 -4.176177
v -2.573489 -0.442109 -4.178703
v -2.573030 -0.442335 -3.150000
v -2.571754 -0.442947 -4.181133
v -2.569986 -0.443744 -4.183464
v -2.569577 -0.443922 -3.150000
v -2.568187 -0.444501 -4.185690
v -2.566355 -0.445216 -4.187805
v -2.566048 -0.445331 -3.150000
v -2.564493 -0.445887 -4.189804
v -2.562601 -0.446513 -4.191681
v -2.562452 -0.446560 -3.150000
v -2.560678 -0.447093 -4.193430
v -2.558799 -0.447606 -3.150000
v -2.558727 -0.447624 -4.195046
v -2.556746 -0.448106 -4.196522
v -2.555097 -0.448465 -3.150000
v -2.554738 -0.448538 -4.197852
v -2.552703 -0.448916 -4.199031
v -2.551357 -0.449135 -3.150000
v -2.550642 -0.449241 -4.200049
v -2.548557 -0.449510 -4.200900
v -2.547588 -0.449615 -3.150000
v -2.546449 -0.449722 -4.201575
v -2.544319 -0.449875 -4.202068
v -2.543799 -0.449904 -3.150000
v -2.542169 -0.449968 -4.202370
v -2.540000 -0.450000 -4.202474
v -2.540000 -0.450000 -3.150000
f 1 2 3
f 2 4 3
f 2 5 4
f 5 6 4
f 5 7 6
f 7 8 6
f 7 9 8
f 9 10 8
f 10 11 8
f 10 12 11
f 12 13 11
f 12 14 13
f 14 15 13
f 15 16 13
f 15 17 16
f 17 18 16
f 17 19 18
f 19 20 18
f 20 21 18
f 20 22 21
f 22 23 21
f 23 24 21
f 23 25 24
f 25 26 24
f 25 27 26
f 27 28 26
f 28 29 26
f 28 30 29
f 30 31 29
f 31 32 29
f 31 33 32
f 33 34 32
f 34 35 32
f 34 36 35
f 36 37 35
f 37 38 35
f 37 39 38
f 39 40 38
f 40 41 38
f 40 42 41
f 42 43 41
f 43 44 41
f 43 45 44
f 45 46 44
f 46 47 44
f 46 48 47
f 48 49 47
f 49 50 47
f 49 51 50
f 51 52 50
f 52 53 50
f 52 54 53
f 54 55 53
f 55 56 53
f 55 57 56
f 57 58 56
f 58 59 56
f 58 60 59
f 60 61 59
f 61 62 59
f 61 63 62
f 63 64 62
f 64 65 62
f 64 66 65
f 66 67 65
f 67 68 65
f 67 69 68
f 69 70 68
f 70 71 68
f 70 72 71
f 72 73 71
f 72 74 73
f 74 75 73
f 75 76 73
f 75 77 76
f 77 78 76
f 78 79 76
f 78 80 79
f 80 81 79
f 81 82 79
f 81 83 82
f 83 84 82
f 84 85 82
f 84 86 85
f 86 87 85
f 87 88 85
