v 1.694426 -1.159873 -5.460796
v 1.701991 -1.159586 -5.463522
v 1.686855 -1.160148 -5.458068
v 1.709552 -1.159287 -5.466247
v 1.717108 -1.158975 -5.468969
v 1.724659 -1.158651 -5.471690
v 1.732206 -1.158314 -5.474410
v 1.705463 -1.158126 -5.441425
v 1.739748 -1.157964 -5.477128
v 1.747286 -1.157603 -5.479844
v 1.754819 -1.157229 -5.482559
v 1.762348 -1.156842 -5.485272
v 1.769873 -1.156443 -5.487983
v 1.777394 -1.156031 -5.490694
v 1.784912 -1.155607 -5.493402
v 1.724034 -1.155567 -5.424815
v 1.792425 -1.155171 -5.496110
v 1.799934 -1.154722 -5.498816
v 1.807440 -1.154261 -5.501520
v 1.814942 -1.153787 -5.504224
v 1.822441 -1.153301 -5.506926
v 1.829936 -1.152803 -5.509627
v 1.742559 -1.152472 -5.408245
v 1.837427 -1.152292 -5.512326
v 1.844915 -1.151768 -5.515024
v 1.852398 -1.151232 -5.517721
v 1.859877 -1.150684 -5.520416
v 1.867350 -1.150124 -5.523109
v 1.874819 -1.149552 -5.525800
v 1.882281 -1.148967 -5.528489
v 1.761031 -1.148842 -5.391724
v 1.889738 -1.148370 -5.531176
v 1.897189 -1.147761 -5.533861
v 1.904633 -1.147140 -5.536544
v 1.912070 -1.146507 -5.539223
v 1.919499 -1.145862 -5.541901
v 1.926921 -1.145205 -5.544575
v 1.779440 -1.144680 -5.375258
v 1.934336 -1.144536 -5.547247
v 1.941741 -1.143856 -5.549916
v 1.949139 -1.143163 -5.552581
v 1.956527 -1.142459 -5.555244
v 1.963906 -1.141743 -5.557903
v 1.971276 -1.141015 -5.560558
v 1.978637 -1.140275 -5.563211
v 1.797777 -1.139987 -5.358856
v 1.985988 -1.139524 -5.565860
v 1.993330 -1.138761 -5.568505
v 2.000663 -1.137987 -5.571148
v 2.007987 -1.137201 -5.573787
v 2.015302 -1.136403 -5.576423
v 2.022608 -1.135594 -5.579056
v 2.029905 -1.134772 -5.581685
v 1.816036 -1.134765 -5.342526
v 2.037194 -1.133940 -5.584312
v 2.044475 -1.133096 -5.586935
v 2.051746 -1.132240 -5.589556
v 2.059010 -1.131372 -5.592173
v 2.066265 -1.130493 -5.594787
v 2.073512 -1.129603 -5.597399
v 1.834206 -1.129016 -5.326274
v 2.080751 -1.128701 -5.600007
v 2.087981 -1.127787 -5.602613
v 2.095204 -1.126862 -5.605216
v 2.098317 -1.125009 -5.597950
v 2.101397 -1.123114 -5.590677
v 1.852279 -1.122745 -5.310108
v 2.104444 -1.121176 -5.583396
v 2.107459 -1.119194 -5.576108
v 2.110442 -1.117169 -5.568811
v 1.870248 -1.115952 -5.294036
v 2.113392 -1.115101 -5.561505
v 2.116310 -1.112990 -5.554191
v 2.119196 -1.110835 -5.546867
v 1.888104 -1.108642 -5.278066
v 2.122049 -1.108637 -5.539534
v 2.124869 -1.106395 -5.532191
v 2.127657 -1.104110 -5.524837
v 2.130413 -1.101780 -5.517473
v 1.905838 -1.100817 -5.262204
v 2.133136 -1.099407 -5.510098
v 2.135826 -1.096991 -5.502712
v 2.138484 -1.094530 -5.495314
v 1.923443 -1.092482 -5.246458
v 2.141109 -1.092025 -5.487904
v 2.143702 -1.089476 -5.480481
v 2.146262 -1.086883 -5.473046
v 2.148789 -1.084245 -5.465598
v 1.940909 -1.083640 -5.230835
v 2.151283 -1.081564 -5.458139
v 2.153744 -1.078841 -5.450669
v 2.156171 -1.076075 -5.443190
v 1.958230 -1.074296 -5.215343
v 2.158564 -1.073269 -5.435705
v 2.160922 -1.070423 -5.428216
v 2.163244 -1.067537 -5.420723
v 2.165531 -1.064614 -5.413228
v 1.975396 -1.064454 -5.199989
v 2.167781 -1.061654 -5.405734
v 2.169995 -1.058658 -5.398242
v 2.172172 -1.055626 -5.390755
v 1.992401 -1.054117 -5.184780
v 2.174311 -1.052560 -5.383273
v 2.176412 -1.049461 -5.375798
v 2.178474 -1.046330 -5.368332
v 2.009236 -1.043292 -5.169722
v 2.180497 -1.043167 -5.360878
v 2.182481 -1.039974 -5.353436
v 2.184425 -1.036751 -5.346009
v 2.186328 -1.033500 -5.338598
v 2.025893 -1.031983 -5.154824
v 2.188190 -1.030221 -5.331205
v 2.190012 -1.026915 -5.323831
v 2.191792 -1.023582 -5.316476
v 2.193532 -1.020223 -5.309139
v 2.042365 -1.020196 -5.140091
v 2.195232 -1.016837 -5.301819
v 2.196892 -1.013425 -5.294517
v 2.198513 -1.009987 -5.287231
v 2.058643 -1.007935 -5.125531
v 2.200095 -1.006523 -5.279962
v 2.201637 -1.003034 -5.272708
v 2.203142 -0.999519 -5.265470
v 2.204608 -0.995978 -5.258247
v 2.074722 -0.995206 -5.111150
v 2.206037 -0.992413 -5.251038
v 2.207428 -0.988823 -5.243844
v 2.208782 -0.985207 -5.236662
v 2.090592 -0.982017 -5.096955
v 2.210099 -0.981567 -5.229494
v 2.211380 -0.977903 -5.222338
v 2.212625 -0.974215 -5.215195
v 2.213835 -0.970502 -5.208063
v 2.106246 -0.968371 -5.082953
v 2.215009 -0.966766 -5.200942
v 2.215721 -0.964451 -5.196566
v 2.216439 -0.962108 -5.192175
v 2.217163 -0.959738 -5.187768
v 2.217892 -0.957339 -5.183346
v 2.218627 -0.954911 -5.178910
v 2.121679 -0.954277 -5.069150
v 2.219367 -0.952455 -5.174459
v 2.220113 -0.949970 -5.169995
v 2.220865 -0.947456 -5.165516
v 2.221621 -0.944912 -5.161024
v 2.222384 -0.942339 -5.156519
v 2.136881 -0.939740 -5.055553
v 2.223151 -0.939736 -5.152000
v 2.223924 -0.937102 -5.147469
v 2.224703 -0.934439 -5.142926
v 2.225487 -0.931745 -5.138371
v 2.226276 -0.929020 -5.133804
v 2.227071 -0.926265 -5.129226
v 2.151846 -0.924767 -5.042168
v 2.227870 -0.923478 -5.124636
v 2.228676 -0.920659 -5.120035
v 2.229486 -0.917809 -5.115424
v 2.230302 -0.914927 -5.110803
v 2.231123 -0.912013 -5.106171
v 2.166568 -0.909365 -5.029000
v 2.231950 -0.909065 -5.101529
v 2.232781 -0.906084 -5.096877
v 2.233619 -0.903068 -5.092214
v 2.234461 -0.900018 -5.087541
v 2.235309 -0.896934 -5.082858
v 2.236163 -0.893813 -5.078166
v 2.181039 -0.893541 -5.016057
v 2.237022 -0.890657 -5.073463
v 2.237886 -0.887464 -5.068750
v 2.238756 -0.884233 -5.064028
v 2.239631 -0.880966 -5.059296
v 2.240512 -0.877660 -5.054554
v 2.195252 -0.877303 -5.003344
v 2.241399 -0.874316 -5.049802
v 2.242290 -0.870933 -5.045041
v 2.243188 -0.867510 -5.040270
v 2.244091 -0.864047 -5.035490
v 2.209202 -0.860658 -4.990867
v 2.245000 -0.860543 -5.030701
v 2.245914 -0.856999 -5.025902
v 2.246834 -0.853413 -5.021095
v 2.247759 -0.849786 -5.016279
v 2.248690 -0.846117 -5.011456
v 2.222881 -0.843614 -4.978632
v 2.249626 -0.842405 -5.006626
v 2.250567 -0.838651 -5.001790
v 2.251513 -0.834854 -4.996947
v 2.252465 -0.831014 -4.992099
v 2.253421 -0.827131 -4.987246
v 2.236284 -0.826179 -4.966644
v 2.254382 -0.823203 -4.982389
v 2.255347 -0.819231 -4.977527
v 2.256318 -0.815215 -4.972663
v 2.257293 -0.811154 -4.967795
v 2.249404 -0.808360 -4.954910
v 2.258272 -0.807048 -4.962925
v 2.259256 -0.802897 -4.958054
v 2.260245 -0.798700 -4.953181
v 2.261237 -0.794456 -4.948307
v 2.262234 -0.790167 -4.943434
f 1 2 3
f 2 4 3
f 4 5 3
f 5 6 3
f 6 7 3
f 7 8 3
f 7 9 8
f 9 10 8
f 10 11 8
f 11 12 8
f 12 13 8
f 13 14 8
f 14 15 8
f 15 16 8
f 15 17 16
f 17 18 16
f 18 19 16
f 19 20 16
f 20 21 16
f 21 22 16
f 22 23 16
f 22 24 23
f 24 25 23
f 25 26 23
f 26 27 23
f 27 28 23
f 28 29 23
f 29 30 23
f 30 31 23
f 30 32 31
f 32 33 31
f 33 34 31
f 34 35 31
f 35 36 31
f 36 37 31
f 37 38 31
f 37 39 38
f 39 40 38
f 40 41 38
f 41 42 38
f 42 43 38
f 43 44 38
f 44 45 38
f 45 46 38
f 45 47 46
f 47 48 46
f 48 49 46
f 49 50 46
f 50 51 46
f 51 52 46
f 52 53 46
f 53 54 46
f 53 55 54
f 55 56 54
f 56 57 54
f 57 58 54
f 58 59 54
f 59 60 54
f 60 61 54
f 60 62 61
f 62 63 61
f 63 64 61
f 64 65 61
f 65 66 61
f 66 67 61
f 66 68 67
f 68 69 67
f 69 70 67
f 70 71 67
f 70 72 71
f 72 73 71
f 73 74 71
f 74 75 71
f 74 76 75
f 76 77 75
f 77 78 75
f 78 79 75
f 79 80 75
f 79 81 80
f 81 82 80
f 82 83 80
f 83 84 80
f 83 85 84
f 85 86 84
f 86 87 84
f 87 88 84
f 88 89 84
f 88 90 89
f 90 91 89
f 91 92 89
f 92 93 89
f 92 94 93
f 94 95 93
f 95 96 93
f 96 97 93
f 97 98 93
f 97 99 98
f 99 100 98
f 100 101 98
f 101 102 98
f 101 103 102
f 103 104 102
f 104 105 102
f 105 106 102
f 105 107 106
f 107 108 106
f 108 109 106
f 109 110 106
f 110 111 106
f 110 112 111
f 112 113 111
f 113 114 111
f 114 115 111
f 115 116 111
f 115 117 116
f 117 118 116
f 118 119 116
f 119 120 116
f 119 121 120
f 121 122 120
f 122 123 120
f 123 124 120
f 124 125 120
f 124 126 125
f 126 127 125
f 127 128 125
f 128 129 125
f 128 130 129
f 130 131 129
f 131 132 129
f 132 133 129
f 133 134 129
f 133 135 134
f 135 136 134
f 136 137 134
f 137 138 134
f 138 139 134
f 139 140 134
f 140 141 134
f 140 142 141
f 142 143 141
f 143 144 141
f 144 145 141
f 145 146 141
f 146 147 141
f 146 148 147
f 148 149 147
f 149 150 147
f 150 151 147
f 151 152 147
f 152 153 147
f 153 154 147
f 153 155 154
f 155 156 154
f 156 157 154
f 157 158 154
f 158 159 154
f 159 160 154
f 159 161 160
f 161 162 160
f 162 163 160
f 163 164 160
f 164 165 160
f 165 166 160
f 166 167 160
f 166 168 167
f 168 169 167
f 169 170 167
f 170 171 167
f 171 172 167
f 172 173 167
f 172 174 173
f 174 175 173
f 175 176 173
f 176 177 173
f 177 178 173
f 177 179 178
f 179 180 178
f 180 181 178
f 181 182 178
f 182 183 178
f 183 184 178
f 183 185 184
f 185 186 184
f 186 187 184
f 187 188 184
f 188 189 184
f 189 190 184
f 189 191 190
f 191 192 190
f 192 193 190
f 193 194 190
f 194 195 190
f 194 196 195
f 196 197 195
f 197 198 195
f 198 199 195
f 199 200 195
