v 0.184351 -0.630895 -1.087726
v 0.169088 -0.606885 -1.094996
v 0.169365 -0.606807 -1.094984
v 0.169640 -0.606731 -1.094963
v 0.169911 -0.606655 -1.094935
v 0.170179 -0.606580 -1.094899
v 0.170444 -0.606505 -1.094855
v 0.170707 -0.606432 -1.094802
v 0.170966 -0.606358 -1.094743
v 0.171224 -0.606286 -1.094675
v 0.171478 -0.606214 -1.094599
v 0.171730 -0.606142 -1.094516
v 0.171980 -0.606072 -1.094426
v 0.172228 -0.606001 -1.094327
v 0.172473 -0.605931 -1.094221
v 0.172717 -0.605862 -1.094108
v 0.172957 -0.605793 -1.093987
v 0.173195 -0.605725 -1.093859
v 0.173431 -0.605658 -1.093724
v 0.173663 -0.605592 -1.093582
v 0.173891 -0.605526 -1.093432
v 0.174116 -0.605461 -1.093276
v 0.174337 -0.605398 -1.093113
v 0.174554 -0.605335 -1.092943
v 0.174766 -0.605274 -1.092766
v 0.174974 -0.605214 -1.092582
v 0.175177 -0.605155 -1.092392
v 0.175375 -0.605098 -1.092195
v 0.175567 -0.605042 -1.091992
v 0.175754 -0.604988 -1.091782
v 0.175935 -0.604935 -1.091567
v 0.176111 -0.604884 -1.091346
v 0.176280 -0.604835 -1.091119
v 0.176444 -0.604787 -1.090887
v 0.176601 -0.604741 -1.090650
v 0.176752 -0.604697 -1.090409
v 0.176897 -0.604655 -1.090163
v 0.177035 -0.604615 -1.089913
v 0.177166 -0.604576 -1.089658
v 0.177291 -0.604539 -1.089401
v 0.177409 -0.604505 -1.089139
v 0.177519 -0.604472 -1.088875
v 0.177623 -0.604442 -1.088608
v 0.177720 -0.604414 -1.088338
v 0.177809 -0.604387 -1.088065
v 0.177891 -0.604363 -1.087789
v 0.177965 -0.604341 -1.087510
v 0.178032 -0.604322 -1.087227
v 0.178091 -0.604304 -1.086941
v 0.178143 -0.604289 -1.086652
v 0.178187 -0.604276 -1.086360
v 0.178223 -0.604265 -1.086064
v 0.178251 -0.604257 -1.085764
v 0.178271 -0.604251 -1.085460
v 0.178284 -0.604247 -1.085153
v 0.178288 -0.604246 -1.084841
v 0.157289 -0.610049 -1.095000
v 0.115902 -0.483665 -1.130371
v 0.115166 -0.481416 -1.131000
v 0.116004 -0.481215 -1.131000
v 0.140145 -0.474747 -1.131000
v 0.140972 -0.474502 -1.131000
v 0.141457 -0.476814 -1.130372
v 0.139685 -0.486149 -1.128115
v 0.141870 -0.485515 -1.128115
v 0.122459 -0.501914 -1.125230
v 0.142672 -0.496546 -1.125230
v 0.144905 -0.495900 -1.125230
v 0.127327 -0.511857 -1.122345
v 0.143378 -0.507594 -1.122345
v 0.145660 -0.506944 -1.122345
v 0.129938 -0.522355 -1.119460
v 0.146319 -0.518005 -1.119460
v 0.148648 -0.517342 -1.119460
v 0.132550 -0.532854 -1.116575
v 0.149260 -0.528417 -1.116575
v 0.151635 -0.527740 -1.116575
v 0.137604 -0.542739 -1.113690
v 0.149775 -0.539507 -1.113690
v 0.152201 -0.538828 -1.113690
v 0.140263 -0.553225 -1.110805
v 0.152669 -0.549931 -1.110805
v 0.155141 -0.549239 -1.110805
v 0.142922 -0.563712 -1.107921
v 0.155563 -0.560355 -1.107921
v 0.158082 -0.559650 -1.107921
v 0.148162 -0.573538 -1.105036
v 0.155888 -0.571487 -1.105036
v 0.158457 -0.570780 -1.105036
v 0.150868 -0.584013 -1.102151
v 0.158735 -0.581924 -1.102151
v 0.161351 -0.581204 -1.102151
v 0.153574 -0.594487 -1.099266
v 0.161582 -0.592361 -1.099266
v 0.164245 -0.591628 -1.099266
v 0.156280 -0.604962 -1.096381
v 0.164429 -0.602798 -1.096381
v 0.167139 -0.602052 -1.096381
v 0.164516 -0.613981 -1.093496
v 0.170033 -0.612476 -1.093496
v 0.172786 -0.611705 -1.093496
v 0.172927 -0.622901 -1.090611
v 0.175727 -0.622117 -1.090611
v 0.178523 -0.621320 -1.090611
v 0.181511 -0.631718 -1.087726
v 0.116640 -0.485917 -1.129741
v 0.139318 -0.474990 -1.131000
v 0.137497 -0.486772 -1.128115
v 0.140437 -0.497183 -1.125230
v 0.141093 -0.508234 -1.122345
v 0.143987 -0.518658 -1.119460
v 0.146881 -0.529083 -1.116575
v 0.147347 -0.540175 -1.113690
v 0.150194 -0.550612 -1.110805
v 0.153041 -0.561049 -1.107921
v 0.153316 -0.572182 -1.105036
v 0.156116 -0.582632 -1.102151
v 0.158916 -0.593082 -1.099266
v 0.161716 -0.603532 -1.096381
v 0.167276 -0.613235 -1.093496
v 0.117379 -0.488173 -1.129110
v 0.138491 -0.475232 -1.131000
v 0.168282 -0.604459 -1.095681
v 0.168808 -0.606963 -1.095000
v 0.119895 -0.491404 -1.128115
v 0.135306 -0.487386 -1.128115
v 0.138200 -0.497810 -1.125230
v 0.138806 -0.508864 -1.122345
v 0.141653 -0.519301 -1.119460
v 0.144500 -0.529738 -1.116575
v 0.144916 -0.540832 -1.113690
v 0.147716 -0.551282 -1.110805
v 0.150516 -0.561732 -1.107921
v 0.150740 -0.572866 -1.105036
v 0.153493 -0.583328 -1.102151
v 0.156246 -0.593791 -1.099266
v 0.158999 -0.604253 -1.096381
v 0.118119 -0.490432 -1.128479
v 0.137663 -0.475472 -1.131000
v 0.167756 -0.601959 -1.096361
v 0.133112 -0.487989 -1.128115
v 0.135959 -0.498426 -1.125230
v 0.136516 -0.509483 -1.122345
v 0.139316 -0.519933 -1.119460
v 0.142116 -0.530383 -1.116575
v 0.142481 -0.541479 -1.113690
v 0.145234 -0.551941 -1.110805
v 0.147987 -0.562403 -1.107921
v 0.118860 -0.492694 -1.127846
v 0.136835 -0.475711 -1.131000
v 0.130915 -0.488583 -1.128115
v 0.133715 -0.499033 -1.125230
v 0.134222 -0.510092 -1.122345
v 0.136975 -0.520554 -1.119460
v 0.139728 -0.531016 -1.116575
v 0.140044 -0.542114 -1.113690
v 0.142750 -0.552589 -1.110805
v 0.145456 -0.563063 -1.107921
v 0.119602 -0.494959 -1.127212
v 0.136007 -0.475949 -1.131000
v 0.128716 -0.489167 -1.128115
v 0.131469 -0.499629 -1.125230
v 0.131927 -0.510690 -1.122345
v 0.134632 -0.521165 -1.119460
v 0.137338 -0.531640 -1.116575
v 0.120345 -0.497228 -1.126577
v 0.135178 -0.476185 -1.131000
v 0.126515 -0.489741 -1.128115
v 0.129221 -0.500216 -1.125230
v 0.129628 -0.511279 -1.122345
v 0.132287 -0.521765 -1.119460
v 0.134946 -0.532252 -1.116575
v 0.121089 -0.499500 -1.125942
v 0.134348 -0.476419 -1.131000
v 0.167231 -0.599463 -1.097039
v 0.124310 -0.490305 -1.128115
v 0.126969 -0.500792 -1.125230
v 0.121835 -0.501776 -1.125305
v 0.133519 -0.476653 -1.131000
v 0.166707 -0.596970 -1.097717
v 0.122104 -0.490859 -1.128115
v 0.124715 -0.501358 -1.125230
v 0.156495 -0.607622 -1.095680
v 0.122581 -0.504055 -1.124668
v 0.132688 -0.476884 -1.131000
v 0.166184 -0.594481 -1.098394
v 0.123329 -0.506337 -1.124029
v 0.131858 -0.477115 -1.131000
v 0.165661 -0.591995 -1.099070
v 0.155701 -0.605197 -1.096359
v 0.124077 -0.508623 -1.123390
v 0.131027 -0.477344 -1.131000
v 0.165140 -0.589512 -1.099745
v 0.154908 -0.602776 -1.097036
v 0.124827 -0.510912 -1.122749
v 0.130196 -0.477571 -1.131000
v 0.164619 -0.587034 -1.100419
v 0.154117 -0.600359 -1.097713
v 0.125578 -0.513204 -1.122108
v 0.129364 -0.477797 -1.131000
v 0.164098 -0.584558 -1.101092
v 0.153326 -0.597944 -1.098389
v 0.126330 -0.515500 -1.121466
v 0.128532 -0.478022 -1.131000
v 0.163579 -0.582086 -1.101764
v 0.152537 -0.595533 -1.099065
v 0.127083 -0.517799 -1.120822
v 0.127699 -0.478245 -1.131000
v 0.163060 -0.579618 -1.102435
v 0.151748 -0.593125 -1.099739
v 0.127837 -0.520102 -1.120178
v 0.126866 -0.478466 -1.131000
v 0.162542 -0.577153 -1.103106
v 0.150961 -0.590720 -1.100412
v 0.128592 -0.522408 -1.119533
v 0.126033 -0.478686 -1.131000
v 0.162024 -0.574691 -1.103775
v 0.150175 -0.588319 -1.101084
v 0.129348 -0.524717 -1.118887
v 0.125199 -0.478905 -1.131000
v 0.161508 -0.572233 -1.104443
v 0.149390 -0.585921 -1.101756
v 0.130105 -0.527030 -1.118240
v 0.124365 -0.479122 -1.131000
v 0.160992 -0.569779 -1.105110
v 0.148606 -0.583526 -1.102426
v 0.130864 -0.529346 -1.117592
v 0.123531 -0.479338 -1.131000
v 0.160477 -0.567328 -1.105777
v 0.147822 -0.581135 -1.103096
v 0.131623 -0.531665 -1.116943
v 0.122696 -0.479553 -1.131000
v 0.159962 -0.564881 -1.106442
v 0.147040 -0.578746 -1.103764
v 0.132384 -0.533988 -1.116293
v 0.121861 -0.479766 -1.131000
v 0.159449 -0.562437 -1.107106
v 0.146259 -0.576361 -1.104432
v 0.133146 -0.536314 -1.115642
v 0.121025 -0.479977 -1.131000
v 0.158936 -0.559996 -1.107770
v 0.145480 -0.573979 -1.105099
v 0.133909 -0.538643 -1.114990
v 0.120189 -0.480187 -1.131000
v 0.158424 -0.557559 -1.108432
v 0.144701 -0.571601 -1.105765
v 0.134673 -0.540976 -1.114337
v 0.119353 -0.480396 -1.131000
v 0.157912 -0.555125 -1.109094
v 0.143923 -0.569225 -1.106430
v 0.135437 -0.543312 -1.113683
v 0.118516 -0.480603 -1.131000
v 0.157401 -0.552695 -1.109754
v 0.143146 -0.566853 -1.107094
v 0.136204 -0.545651 -1.113028
v 0.117679 -0.480808 -1.131000
v 0.156891 -0.550269 -1.110414
v 0.136971 -0.547994 -1.112373
v 0.116842 -0.481012 -1.131000
v 0.156382 -0.547846 -1.111072
v 0.142371 -0.564484 -1.107757
v 0.137739 -0.550340 -1.111716
v 0.155874 -0.545426 -1.111730
v 0.141596 -0.562119 -1.108419
v 0.138508 -0.552689 -1.111059
v 0.141944 -0.479130 -1.129743
v 0.155366 -0.543010 -1.112387
v 0.140822 -0.559756 -1.109080
v 0.139278 -0.555042 -1.110400
v 0.142431 -0.481449 -1.129113
v 0.154859 -0.540598 -1.113042
v 0.140050 -0.557397 -1.109741
v 0.142919 -0.483772 -1.128482
v 0.154353 -0.538189 -1.113697
v 0.143408 -0.486098 -1.127850
v 0.153847 -0.535783 -1.114351
v 0.143897 -0.488428 -1.127218
v 0.153342 -0.533382 -1.115004
v 0.152839 -0.530983 -1.115655
v 0.144387 -0.490762 -1.126584
v 0.152335 -0.528589 -1.116306
v 0.144878 -0.493099 -1.125949
v 0.151833 -0.526197 -1.116956
v 0.145370 -0.495440 -1.125313
v 0.151331 -0.523810 -1.117605
v 0.145863 -0.497784 -1.124676
v 0.150830 -0.521426 -1.118253
v 0.146356 -0.500132 -1.124038
v 0.150330 -0.519046 -1.118899
v 0.146850 -0.502484 -1.123399
v 0.149831 -0.516669 -1.119545
v 0.147345 -0.504839 -1.122759
v 0.149332 -0.514296 -1.120190
v 0.147841 -0.507198 -1.122119
v 0.148834 -0.511926 -1.120834
v 0.148337 -0.509560 -1.121477
f 1 2 3
f 3 4 5
f 5 6 7
f 7 8 9
f 9 10 11
f 11 12 13
f 13 14 15
f 15 16 17
f 17 18 19
f 19 20 21
f 21 22 23
f 23 24 25
f 25 26 27
f 27 28 29
f 29 30 31
f 31 32 33
f 33 34 35
f 35 36 37
f 37 38 39
f 39 40 41
f 41 42 43
f 43 44 45
f 45 46 47
f 47 48 49
f 49 50 51
f 51 52 53
f 53 54 55
f 55 56 57
f 58 59 60
f 61 62 63
f 64 65 66
f 67 68 69
f 70 71 72
f 73 74 75
f 76 77 78
f 79 80 81
f 82 83 84
f 85 86 87
f 88 89 90
f 91 92 93
f 94 95 96
f 97 98 99
f 100 101 102
f 103 104 105
f 1 3 5
f 5 7 9
f 9 11 13
f 13 15 17
f 17 19 21
f 21 23 25
f 25 27 29
f 29 31 33
f 33 35 37
f 37 39 41
f 41 43 45
f 45 47 49
f 49 51 53
f 53 55 57
f 106 58 60
f 107 61 63
f 108 64 66
f 109 67 69
f 110 70 72
f 111 73 75
f 112 76 78
f 113 79 81
f 114 82 84
f 115 85 87
f 116 88 90
f 117 91 93
f 118 94 96
f 119 97 99
f 120 100 102
f 102 103 105
f 1 5 9
f 9 13 17
f 17 21 25
f 25 29 33
f 33 37 41
f 41 45 49
f 121 106 60
f 122 107 63
f 123 124 125
f 126 108 66
f 127 109 69
f 128 110 72
f 129 111 75
f 130 112 78
f 131 113 81
f 132 114 84
f 133 115 87
f 134 116 90
f 135 117 93
f 136 118 96
f 137 119 99
f 99 120 102
f 1 9 17
f 17 25 33
f 33 41 49
f 138 121 60
f 139 122 63
f 140 123 125
f 141 126 66
f 142 127 69
f 143 128 72
f 144 129 75
f 145 130 78
f 146 131 81
f 147 132 84
f 148 133 87
f 87 134 90
f 90 135 93
f 93 136 96
f 96 137 99
f 1 17 33
f 33 49 53
f 149 138 60
f 150 139 63
f 151 141 66
f 152 142 69
f 153 143 72
f 154 144 75
f 155 145 78
f 156 146 81
f 157 147 84
f 158 148 87
f 1 33 53
f 159 149 60
f 160 150 63
f 161 151 66
f 162 152 69
f 163 153 72
f 164 154 75
f 165 155 78
f 78 156 81
f 81 157 84
f 84 158 87
f 105 1 53
f 166 159 60
f 167 160 63
f 168 161 66
f 169 162 69
f 170 163 72
f 171 164 75
f 172 165 78
f 84 87 90
f 105 53 57
f 173 166 60
f 174 167 63
f 175 140 125
f 176 168 66
f 177 169 69
f 69 170 72
f 72 171 75
f 75 172 78
f 84 90 93
f 96 99 57
f 99 102 57
f 102 105 57
f 178 173 60
f 179 174 63
f 180 175 125
f 181 176 66
f 182 177 69
f 75 78 81
f 84 93 96
f 96 57 183
f 184 178 60
f 185 179 63
f 186 180 125
f 125 181 66
f 66 182 69
f 75 81 84
f 84 96 183
f 187 184 60
f 188 185 63
f 189 186 125
f 66 69 72
f 84 183 190
f 191 187 60
f 192 188 63
f 193 189 125
f 66 72 75
f 84 190 194
f 195 191 60
f 196 192 63
f 197 193 125
f 84 194 198
f 199 195 60
f 200 196 63
f 201 197 125
f 84 198 202
f 203 199 60
f 204 200 63
f 205 201 125
f 84 202 206
f 207 203 60
f 208 204 63
f 209 205 125
f 84 206 210
f 211 207 60
f 212 208 63
f 213 209 125
f 84 210 214
f 215 211 60
f 216 212 63
f 217 213 125
f 84 214 218
f 219 215 60
f 220 216 63
f 221 217 125
f 84 218 222
f 223 219 60
f 224 220 63
f 225 221 125
f 84 222 226
f 227 223 60
f 228 224 63
f 229 225 125
f 84 226 230
f 231 227 60
f 232 228 63
f 233 229 125
f 84 230 234
f 235 231 60
f 236 232 63
f 237 233 125
f 84 234 238
f 239 235 60
f 240 236 63
f 241 237 125
f 84 238 242
f 243 239 60
f 244 240 63
f 245 241 125
f 84 242 246
f 247 243 60
f 248 244 63
f 249 245 125
f 84 246 250
f 251 247 60
f 252 248 63
f 253 249 125
f 84 250 254
f 255 251 60
f 256 252 63
f 257 253 125
f 66 75 254
f 75 84 254
f 258 255 60
f 259 256 63
f 260 257 125
f 66 254 261
f 262 258 60
f 60 259 63
f 263 260 125
f 66 261 264
f 265 262 60
f 60 63 266
f 267 263 125
f 66 264 268
f 269 265 60
f 60 266 270
f 271 267 125
f 66 268 272
f 272 269 60
f 60 270 273
f 274 271 125
f 66 272 60
f 60 273 275
f 276 274 125
f 125 66 60
f 60 275 277
f 278 276 125
f 125 60 277
f 279 278 125
f 125 277 280
f 281 279 125
f 125 280 282
f 283 281 125
f 125 282 284
f 285 283 125
f 125 284 286
f 287 285 125
f 125 286 288
f 289 287 125
f 125 288 290
f 291 289 125
f 125 290 292
f 293 291 125
f 125 292 294
f 295 293 125
f 125 294 296
f 296 295 125
f 124 2 3
