v -3.625000 0.000000 -5.255000
v -3.625000 0.011668 -5.255470
v -3.625000 0.023260 -5.256878
v -3.625000 0.034701 -5.259213
v -3.625000 0.045917 -5.262462
v -3.625000 0.056835 -5.266603
v -3.625000 0.067385 -5.271609
v -3.625000 0.077498 -5.277447
v -3.625000 0.087108 -5.284081
v -3.625000 0.096153 -5.291466
v -3.625000 0.104574 -5.299555
v -3.625000 0.112318 -5.308295
v -3.625000 0.119333 -5.317631
v -3.625000 0.125574 -5.327500
v -3.625000 0.131000 -5.337840
v -3.625000 0.135577 -5.348582
v -3.625000 0.139275 -5.359658
v -3.625000 0.142070 -5.370996
v -3.625000 0.143943 -5.382522
v -3.625000 0.144882 -5.394161
v -3.625000 0.144882 -5.405839
v -3.625000 0.143943 -5.417478
v -3.625000 0.142070 -5.429004
v -3.625000 0.139275 -5.440342
v -3.625000 0.135577 -5.451418
v -3.625000 0.131000 -5.462160
v -3.625000 0.125574 -5.472500
v -3.625000 0.119333 -5.482369
v -3.625000 0.112318 -5.491705
v -3.625000 0.104574 -5.500445
v -3.625000 0.096153 -5.508534
v -3.625000 0.087108 -5.515919
v -3.625000 0.077498 -5.522553
v -3.625000 0.067385 -5.528391
v -3.625000 0.056835 -5.533397
v -3.625000 0.045917 -5.537538
v -3.625000 0.034701 -5.540787
v -3.625000 0.023260 -5.543122
v -3.625000 0.011668 -5.544530
v -3.625000 0.000000 -5.545000
v -3.625000 0.000000 -6.563000
v -3.625000 0.093583 -6.559229
v -3.625000 0.186558 -6.547939
v -3.625000 0.278324 -6.529205
v -3.625000 0.368285 -6.503148
v -3.625000 0.455857 -6.469936
v -3.625000 0.540473 -6.429785
v -3.625000 0.621584 -6.382956
v -3.625000 0.698663 -6.329752
v -3.625000 0.771212 -6.270518
v -3.625000 0.838758 -6.205638
v -3.625000 0.900866 -6.135534
v -3.625000 0.957130 -6.060659
v -3.625000 1.007188 -5.981500
v -3.625000 1.050713 -5.898569
v -3.625000 1.087424 -5.812405
v -3.625000 1.117083 -5.723567
v -3.625000 1.139497 -5.632630
v -3.625000 1.154520 -5.540184
v -3.625000 1.162057 -5.446829
v -3.625000 1.162057 -5.353171
v -3.625000 1.154520 -5.259816
v -3.625000 1.139497 -5.167370
v -3.625000 1.117083 -5.076433
v -3.625000 1.087424 -4.987595
v -3.625000 1.050713 -4.901431
v -3.625000 1.007188 -4.818500
v -3.625000 0.957130 -4.739341
v -3.625000 0.900866 -4.664466
v -3.625000 0.838758 -4.594362
v -3.625000 0.771212 -4.529482
v -3.625000 0.698663 -4.470248
v -3.625000 0.621584 -4.417044
v -3.625000 0.540473 -4.370215
v -3.625000 0.455857 -4.330064
v -3.625000 0.368285 -4.296852
v -3.625000 0.278324 -4.270795
v -3.625000 0.186558 -4.252061
v -3.625000 0.093583 -4.240771
v -3.625000 0.000000 -4.237000
f 80 1 2
f 80 2 3
f 80 3 4
f 80 4 5
f 80 5 6
f 80 6 7
f 80 7 8
f 80 8 9
f 80 9 10
f 80 10 11
f 80 11 12
f 80 12 13
f 80 13 14
f 80 14 15
f 80 15 16
f 80 16 17
f 80 17 18
f 80 18 19
f 39 40 41
f 38 39 41
f 37 38 41
f 36 37 41
f 35 36 41
f 34 35 41
f 33 34 41
f 32 33 41
f 31 32 41
f 30 31 41
f 29 30 41
f 28 29 41
f 27 28 41
f 26 27 41
f 25 26 41
f 24 25 41
f 23 24 41
f 22 23 41
f 22 41 42
f 21 22 42
f 21 42 43
f 20 21 43
f 20 43 44
f 19 20 44
f 19 44 45
f 80 19 45
f 80 45 46
f 80 46 47
f 80 47 48
f 80 48 49
f 80 49 50
f 80 50 51
f 80 51 52
f 80 52 53
f 80 53 54
f 80 54 55
f 80 55 56
f 80 56 57
f 80 57 58
f 80 58 59
f 80 59 60
f 80 60 61
f 80 61 62
f 80 62 63
f 80 63 64
f 80 64 65
f 80 65 66
f 80 66 67
f 80 67 68
f 80 68 69
f 80 69 70
f 80 70 71
f 80 71 72
f 80 72 73
f 80 73 74
f 80 74 75
f 80 75 76
f 80 76 77
f 80 77 78
f 78 79 80
