v 0.152500 0.220000 0.000000
v 0.166642 0.230000 0.000000
v 0.165787 0.230000 0.016859
v 0.163231 0.230000 0.033545
v 0.159000 0.230000 0.049887
v 0.153137 0.230000 0.065716
v 0.145703 0.230000 0.080872
v 0.136774 0.230000 0.095197
v 0.126441 0.230000 0.108546
v 0.114811 0.230000 0.120781
v 0.102003 0.230000 0.131777
v 0.088148 0.230000 0.141420
v 0.073388 0.230000 0.149612
v 0.057876 0.230000 0.156269
v 0.041769 0.230000 0.161322
v 0.025234 0.230000 0.164720
v 0.008440 0.230000 0.166428
v -0.008440 0.230000 0.166428
v -0.025234 0.230000 0.164720
v -0.041769 0.230000 0.161322
v -0.057876 0.230000 0.156269
v -0.073388 0.230000 0.149612
v -0.088148 0.230000 0.141420
v -0.102003 0.230000 0.131777
v -0.114811 0.230000 0.120781
v -0.126441 0.230000 0.108546
v -0.136774 0.230000 0.095197
v -0.145703 0.230000 0.080872
v -0.153137 0.230000 0.065716
v -0.159000 0.230000 0.049887
v -0.163231 0.230000 0.033545
v -0.165787 0.230000 0.016859
v -0.166642 0.230000 0.000000
v -0.152500 0.220000 0.000000
v 0.166642 0.000000 0.000000
v 0.152500 0.010000 0.000000
v 0.165787 0.000000 0.016859
v 0.163231 0.000000 0.033545
v 0.159000 0.000000 0.049887
v 0.153137 0.000000 0.065716
v 0.145703 0.000000 0.080872
v 0.136774 0.000000 0.095197
v 0.126441 0.000000 0.108546
v 0.114811 0.000000 0.120781
v 0.102003 0.000000 0.131777
v 0.088148 0.000000 0.141420
v 0.073388 0.000000 0.149612
v 0.057876 0.000000 0.156269
v 0.041769 0.000000 0.161322
v 0.025234 0.000000 0.164720
v 0.008440 0.000000 0.166428
v -0.008440 0.000000 0.166428
v -0.025234 0.000000 0.164720
v -0.041769 0.000000 0.161322
v -0.057876 0.000000 0.156269
v -0.073388 0.000000 0.149612
v -0.088148 0.000000 0.141420
v -0.102003 0.000000 0.131777
v -0.114811 0.000000 0.120781
v -0.126441 0.000000 0.108546
v -0.136774 0.000000 0.095197
v -0.145703 0.000000 0.080872
v -0.153137 0.000000 0.065716
v -0.159000 0.000000 0.049887
v -0.163231 0.000000 0.033545
v -0.165787 0.000000 0.016859
v -0.166642 0.000000 0.000000
v -0.152500 0.010000 0.000000
f 1 2 36
f 1 36 35
f 2 3 37
f 2 37 36
f 3 4 38
f 3 38 37
f 4 5 39
f 4 39 38
f 5 6 40
f 5 40 39
f 6 7 41
f 6 41 40
f 7 8 42
f 7 42 41
f 8 9 43
f 8 43 42
f 9 10 44
f 9 44 43
f 10 11 45
f 10 45 44
f 11 12 46
f 11 46 45
f 12 13 47
f 12 47 46
f 13 14 48
f 13 48 47
f 14 15 49
f 14 49 48
f 15 16 50
f 15 50 49
f 16 17 51
f 16 51 50
f 17 18 52
f 17 52 51
f 18 19 53
f 18 53 52
f 19 20 54
f 19 54 53
f 20 21 55
f 20 55 54
f 21 22 56
f 21 56 55
f 22 23 57
f 22 57 56
f 23 24 58
f 23 58 57
f 24 25 59
f 24 59 58
f 25 26 60
f 25 60 59
f 26 27 61
f 26 61 60
f 27 28 62
f 27 62 61
f 28 29 63
f 28 63 62
f 29 30 64
f 29 64 63
f 30 31 65
f 30 65 64
f 31 32 66
f 31 66 65
f 32 33 67
f 32 67 66
f 33 34 68
f 33 68 67
