v -0.029105 -0.629327 -1.051000
v -0.027229 -0.629411 -1.051000
v -0.025352 -0.629490 -1.051000
v -0.023475 -0.629562 -1.051000
v -0.021598 -0.629630 -1.051000
v -0.019720 -0.629691 -1.051000
v -0.017843 -0.629747 -1.051000
v -0.015965 -0.629798 -1.051000
v -0.014087 -0.629842 -1.051000
v -0.012209 -0.629882 -1.051000
v -0.010331 -0.629915 -1.051000
v -0.008453 -0.629943 -1.051000
v -0.006574 -0.629966 -1.051000
v -0.004696 -0.629982 -1.051000
v -0.002818 -0.629994 -1.051000
v -0.000939 -0.629999 -1.051000
v 0.000939 -0.629999 -1.051000
v 0.002818 -0.629994 -1.051000
v 0.004696 -0.629982 -1.051000
v 0.006574 -0.629966 -1.051000
v 0.008453 -0.629943 -1.051000
v 0.010331 -0.629915 -1.051000
v 0.012209 -0.629882 -1.051000
v 0.014087 -0.629842 -1.051000
v 0.015965 -0.629798 -1.051000
v 0.017843 -0.629747 -1.051000
v 0.019720 -0.629691 -1.051000
v 0.021598 -0.629630 -1.051000
v 0.023475 -0.629562 -1.051000
v 0.025352 -0.629490 -1.051000
v 0.027229 -0.629411 -1.051000
v 0.029105 -0.629327 -1.051000
v 0.009942 -0.494900 -1.051000
v 0.009301 -0.494913 -1.051000
v 0.008660 -0.494924 -1.051000
v 0.008018 -0.494935 -1.051000
v 0.007377 -0.494945 -1.051000
v 0.006735 -0.494954 -1.051000
v 0.006094 -0.494962 -1.051000
v 0.005452 -0.494970 -1.051000
v 0.004811 -0.494977 -1.051000
v 0.004170 -0.494982 -1.051000
v 0.003528 -0.494987 -1.051000
v 0.002887 -0.494992 -1.051000
v 0.002245 -0.494995 -1.051000
v 0.001604 -0.494997 -1.051000
v 0.000962 -0.494999 -1.051000
v 0.000321 -0.495000 -1.051000
v -0.000321 -0.495000 -1.051000
v -0.000962 -0.494999 -1.051000
v -0.001604 -0.494997 -1.051000
v -0.002245 -0.494995 -1.051000
v -0.002887 -0.494992 -1.051000
v -0.003528 -0.494987 -1.051000
v -0.004170 -0.494982 -1.051000
v -0.004811 -0.494977 -1.051000
v -0.005452 -0.494970 -1.051000
v -0.006094 -0.494962 -1.051000
v -0.006735 -0.494954 -1.051000
v -0.007377 -0.494945 -1.051000
v -0.008018 -0.494935 -1.051000
v -0.008660 -0.494924 -1.051000
v -0.009301 -0.494913 -1.051000
v -0.009942 -0.494900 -1.051000
f 64 1 2
f 64 2 3
f 64 3 4
f 64 4 5
f 64 5 6
f 64 6 7
f 64 7 8
f 64 8 9
f 64 9 10
f 64 10 11
f 64 11 12
f 64 12 13
f 64 13 14
f 64 14 15
f 64 15 16
f 64 16 17
f 64 17 18
f 64 18 19
f 64 19 20
f 64 20 21
f 64 21 22
f 64 22 23
f 64 23 24
f 64 24 25
f 64 25 26
f 64 26 27
f 64 27 28
f 64 28 29
f 64 29 30
f 64 30 31
f 64 31 32
f 32 33 34
f 32 34 35
f 32 35 36
f 32 36 37
f 32 37 38
f 32 38 39
f 32 39 40
f 32 40 41
f 32 41 42
f 32 42 43
f 32 43 44
f 32 44 45
f 32 45 46
f 32 46 47
f 32 47 48
f 32 48 49
f 32 49 50
f 32 50 51
f 32 51 52
f 32 52 53
f 32 53 54
f 32 54 55
f 32 55 56
f 32 56 57
f 32 57 58
f 32 58 59
f 32 59 60
f 32 60 61
f 32 61 62
f 32 62 63
f 32 63 64
