v 0.490460 0.463761 -0.036213
v 0.490455 0.463757 -0.035778
v 0.490459 0.463760 -0.035995
v 0.490449 0.463752 -0.035562
v 0.490441 0.463745 -0.035347
v 0.490431 0.463737 -0.035132
v 0.490418 0.463726 -0.034918
v 0.490403 0.463713 -0.034705
v 0.490385 0.463699 -0.034493
v 0.490366 0.463682 -0.034282
v 0.490344 0.463663 -0.034071
v 0.490319 0.463643 -0.033860
v 0.490292 0.463620 -0.033651
v 0.490263 0.463596 -0.033442
v 0.490232 0.463570 -0.033233
v 0.490198 0.463541 -0.033026
v 0.490162 0.463511 -0.032818
v 0.490124 0.463479 -0.032611
v 0.490083 0.463445 -0.032405
v 0.490040 0.463408 -0.032199
v 0.489994 0.463370 -0.031994
v 0.489947 0.463330 -0.031789
v 0.489897 0.463288 -0.031585
v 0.489844 0.463244 -0.031381
v 0.489790 0.463199 -0.031178
v 0.489733 0.463151 -0.030977
v 0.489674 0.463102 -0.030776
v 0.489613 0.463051 -0.030576
v 0.489550 0.462998 -0.030377
v 0.489485 0.462943 -0.030180
v 0.489417 0.462886 -0.029983
v 0.489348 0.462828 -0.029788
v 0.489277 0.462768 -0.029595
v 0.489203 0.462707 -0.029403
v 0.489128 0.462643 -0.029212
v 0.489050 0.462578 -0.029023
v 0.488971 0.462512 -0.028836
v 0.488890 0.462444 -0.028650
v 0.488807 0.462374 -0.028467
v 0.488722 0.462302 -0.028285
v 0.488635 0.462229 -0.028105
v 0.488546 0.462155 -0.027927
v 0.488455 0.462078 -0.027750
v 0.488362 0.462000 -0.027575
v 0.488267 0.461921 -0.027402
v 0.488170 0.461840 -0.027231
v 0.488071 0.461757 -0.027061
v 0.487970 0.461672 -0.026893
v 0.487867 0.461585 -0.026727
v 0.487762 0.461497 -0.026562
v 0.487655 0.461408 -0.026399
v 0.487546 0.461316 -0.026237
v 0.487435 0.461223 -0.026077
v 0.487321 0.461127 -0.025919
v 0.487206 0.461031 -0.025762
v 0.487088 0.460932 -0.025607
v 0.371548 0.563540 -0.036213
v 0.371547 0.563539 -0.035995
v 0.371545 0.563535 -0.035778
v 0.371541 0.563528 -0.035562
v 0.371536 0.563519 -0.035347
v 0.371529 0.563507 -0.035132
v 0.371521 0.563493 -0.034918
v 0.371511 0.563475 -0.034705
v 0.371499 0.563456 -0.034493
v 0.371486 0.563433 -0.034282
v 0.371472 0.563408 -0.034071
v 0.371456 0.563381 -0.033860
v 0.371439 0.563351 -0.033651
v 0.371420 0.563318 -0.033442
v 0.371399 0.563282 -0.033233
v 0.371377 0.563244 -0.033026
v 0.371354 0.563203 -0.032818
v 0.371328 0.563160 -0.032611
v 0.371302 0.563114 -0.032405
v 0.371274 0.563065 -0.032199
v 0.371244 0.563014 -0.031994
v 0.371213 0.562960 -0.031789
v 0.371180 0.562903 -0.031585
v 0.371146 0.562844 -0.031381
v 0.371111 0.562782 -0.031178
v 0.371074 0.562718 -0.030977
v 0.371035 0.562652 -0.030776
v 0.370995 0.562583 -0.030576
v 0.370954 0.562511 -0.030377
v 0.370912 0.562438 -0.030180
v 0.370868 0.562362 -0.029983
v 0.370822 0.562283 -0.029788
v 0.370776 0.562202 -0.029595
v 0.370728 0.562119 -0.029403
v 0.370678 0.562034 -0.029212
v 0.370628 0.561946 -0.029023
v 0.370576 0.561857 -0.028836
v 0.370523 0.561765 -0.028650
v 0.370469 0.561671 -0.028467
v 0.370413 0.561575 -0.028285
v 0.370357 0.561476 -0.028105
v 0.370298 0.561376 -0.027927
v 0.370239 0.561273 -0.027750
v 0.370178 0.561168 -0.027575
v 0.370117 0.561061 -0.027402
v 0.370053 0.560951 -0.027231
v 0.369989 0.560839 -0.027061
v 0.369923 0.560725 -0.026893
v 0.369856 0.560609 -0.026727
v 0.369787 0.560490 -0.026562
v 0.369717 0.560369 -0.026399
v 0.369646 0.560246 -0.026237
v 0.369573 0.560120 -0.026077
v 0.369499 0.559992 -0.025919
v 0.369424 0.559861 -0.025762
v 0.369347 0.559728 -0.025607
v 0.486998 0.467395 -0.036213
v 0.483660 0.464528 -0.025607
v 0.483510 0.471002 -0.036213
v 0.480204 0.468099 -0.025607
v 0.479995 0.474584 -0.036213
v 0.476723 0.471645 -0.025607
v 0.476453 0.478140 -0.036213
v 0.473215 0.475164 -0.025607
v 0.472885 0.481669 -0.036213
v 0.469681 0.478657 -0.025607
v 0.469291 0.485171 -0.036213
v 0.466122 0.482124 -0.025607
v 0.465671 0.488647 -0.036213
v 0.462536 0.485565 -0.025607
v 0.462025 0.492095 -0.036213
v 0.458926 0.488979 -0.025607
v 0.458354 0.495517 -0.036213
v 0.455290 0.492366 -0.025607
v 0.454657 0.498911 -0.036213
v 0.451629 0.495726 -0.025607
v 0.450935 0.502277 -0.036213
v 0.447944 0.499059 -0.025607
v 0.447189 0.505616 -0.036213
v 0.444234 0.502364 -0.025607
v 0.443417 0.508927 -0.036213
v 0.440499 0.505642 -0.025607
v 0.439621 0.512209 -0.036213
v 0.436741 0.508892 -0.025607
v 0.435801 0.515464 -0.036213
v 0.432958 0.512114 -0.025607
v 0.429151 0.515308 -0.025607
v 0.431956 0.518689 -0.036213
v 0.425321 0.518474 -0.025607
v 0.428088 0.521886 -0.036213
v 0.421468 0.521611 -0.025607
v 0.424196 0.525055 -0.036213
v 0.417592 0.524719 -0.025607
v 0.420281 0.528194 -0.036213
v 0.413692 0.527799 -0.025607
v 0.416342 0.531304 -0.036213
v 0.409770 0.530850 -0.025607
v 0.412381 0.534385 -0.036213
v 0.405825 0.533872 -0.025607
v 0.408396 0.537436 -0.036213
v 0.401858 0.536864 -0.025607
v 0.404389 0.540457 -0.036213
v 0.397869 0.539827 -0.025607
v 0.400360 0.543449 -0.036213
v 0.393859 0.542760 -0.025607
v 0.396309 0.546410 -0.036213
v 0.389826 0.545664 -0.025607
v 0.392235 0.549342 -0.036213
v 0.385772 0.548537 -0.025607
v 0.388140 0.552243 -0.036213
v 0.381697 0.551380 -0.025607
v 0.384024 0.555113 -0.036213
v 0.377601 0.554194 -0.025607
v 0.379886 0.557953 -0.036213
v 0.373485 0.556976 -0.025607
v 0.375727 0.560762 -0.036213
f 1 2 3
f 1 4 2
f 1 5 4
f 1 6 5
f 1 7 6
f 1 8 7
f 1 9 8
f 1 10 9
f 1 11 10
f 1 12 11
f 1 13 12
f 1 14 13
f 1 15 14
f 1 16 15
f 1 17 16
f 1 18 17
f 1 19 18
f 1 20 19
f 1 21 20
f 1 22 21
f 1 23 22
f 1 24 23
f 1 25 24
f 1 26 25
f 1 27 26
f 1 28 27
f 1 29 28
f 1 30 29
f 1 31 30
f 1 32 31
f 1 33 32
f 1 34 33
f 1 35 34
f 1 36 35
f 1 37 36
f 1 38 37
f 1 39 38
f 1 40 39
f 1 41 40
f 1 42 41
f 1 43 42
f 1 44 43
f 1 45 44
f 1 46 45
f 1 47 46
f 1 48 47
f 1 49 48
f 1 50 49
f 1 51 50
f 1 52 51
f 1 53 52
f 1 54 53
f 1 55 54
f 1 56 55
f 57 58 59
f 57 59 60
f 57 60 61
f 57 61 62
f 57 62 63
f 57 63 64
f 57 64 65
f 57 65 66
f 57 66 67
f 57 67 68
f 57 68 69
f 57 69 70
f 57 70 71
f 57 71 72
f 57 72 73
f 57 73 74
f 57 74 75
f 57 75 76
f 57 76 77
f 57 77 78
f 57 78 79
f 57 79 80
f 57 80 81
f 57 81 82
f 57 82 83
f 57 83 84
f 57 84 85
f 57 85 86
f 57 86 87
f 57 87 88
f 57 88 89
f 57 89 90
f 57 90 91
f 57 91 92
f 57 92 93
f 57 93 94
f 57 94 95
f 57 95 96
f 57 96 97
f 57 97 98
f 57 98 99
f 57 99 100
f 57 100 101
f 57 101 102
f 57 102 103
f 57 103 104
f 57 104 105
f 57 105 106
f 57 106 107
f 57 107 108
f 57 108 109
f 57 109 110
f 57 110 111
f 57 111 112
f 1 113 56
f 113 114 56
f 113 115 114
f 115 116 114
f 115 117 116
f 117 118 116
f 117 119 118
f 119 120 118
f 119 121 120
f 121 122 120
f 121 123 122
f 123 124 122
f 123 125 124
f 125 126 124
f 125 127 126
f 127 128 126
f 127 129 128
f 129 130 128
f 129 131 130
f 131 132 130
f 131 133 132
f 133 134 132
f 133 135 134
f 135 136 134
f 135 137 136
f 137 138 136
f 137 139 138
f 139 140 138
f 139 141 140
f 141 142 140
f 141 143 142
f 141 144 143
f 144 145 143
f 144 146 145
f 146 147 145
f 146 148 147
f 148 149 147
f 148 150 149
f 150 151 149
f 150 152 151
f 152 153 151
f 152 154 153
f 154 155 153
f 154 156 155
f 156 157 155
f 156 158 157
f 158 159 157
f 158 160 159
f 160 161 159
f 160 162 161
f 162 163 161
f 162 164 163
f 164 165 163
f 164 166 165
f 166 167 165
f 166 168 167
f 168 169 167
f 168 170 169
f 170 171 169
f 170 172 171
f 172 112 171
f 172 57 112
