v -0.506828 -0.374200 -1.084841
v -0.506828 -0.374200 -1.061000
v -0.391738 -0.302599 -1.061000
v -0.391738 -0.302599 -1.120893
v -0.393822 -0.303896 -1.120241
v -0.395907 -0.305193 -1.119588
v -0.397992 -0.306490 -1.118935
v -0.400077 -0.307787 -1.118283
v -0.402163 -0.309085 -1.117630
v -0.404249 -0.310382 -1.116977
v -0.406335 -0.311680 -1.116324
v -0.408421 -0.312978 -1.115670
v -0.410508 -0.314276 -1.115017
v -0.412595 -0.315575 -1.114363
v -0.414682 -0.316873 -1.113710
v -0.416770 -0.318172 -1.113056
v -0.418858 -0.319471 -1.112402
v -0.420946 -0.320770 -1.111748
v -0.423035 -0.322070 -1.111094
v -0.425124 -0.323369 -1.110440
v -0.427213 -0.324669 -1.109786
v -0.429303 -0.325969 -1.109131
v -0.431392 -0.327269 -1.108477
v -0.433483 -0.328570 -1.107822
v -0.435573 -0.329870 -1.107167
v -0.437664 -0.331171 -1.106512
v -0.439755 -0.332472 -1.105857
v -0.441846 -0.333773 -1.105202
v -0.443938 -0.335074 -1.104547
v -0.446030 -0.336376 -1.103892
v -0.448123 -0.337678 -1.103236
v -0.450215 -0.338980 -1.102581
v -0.452308 -0.340282 -1.101925
v -0.454401 -0.341584 -1.101269
v -0.456495 -0.342886 -1.100613
v -0.458589 -0.344189 -1.099957
v -0.460683 -0.345492 -1.099301
v -0.462777 -0.346795 -1.098645
v -0.464872 -0.348098 -1.097989
v -0.466967 -0.349401 -1.097332
v -0.469062 -0.350705 -1.096676
v -0.471158 -0.352009 -1.096019
v -0.473254 -0.353313 -1.095363
v -0.475350 -0.354617 -1.094706
v -0.477446 -0.355921 -1.094049
v -0.479543 -0.357225 -1.093392
v -0.481640 -0.358530 -1.092735
v -0.483738 -0.359835 -1.092078
v -0.485835 -0.361140 -1.091420
v -0.487933 -0.362445 -1.090763
v -0.490031 -0.363750 -1.090105
v -0.492130 -0.365056 -1.089448
v -0.494229 -0.366362 -1.088790
v -0.496328 -0.367668 -1.088132
v -0.498427 -0.368974 -1.087474
v -0.500527 -0.370280 -1.086816
v -0.502627 -0.371587 -1.086158
v -0.504727 -0.372893 -1.085500
f 1 3 2
f 1 4 3
f 1 5 4
f 1 6 5
f 1 7 6
f 1 8 7
f 1 9 8
f 1 10 9
f 1 11 10
f 1 12 11
f 1 13 12
f 1 14 13
f 1 15 14
f 1 16 15
f 1 17 16
f 1 18 17
f 1 19 18
f 1 20 19
f 1 21 20
f 1 22 21
f 1 23 22
f 1 24 23
f 1 25 24
f 1 26 25
f 1 27 26
f 1 28 27
f 1 29 28
f 1 30 29
f 1 31 30
f 1 32 31
f 1 33 32
f 1 34 33
f 1 35 34
f 1 36 35
f 1 37 36
f 1 38 37
f 1 39 38
f 1 40 39
f 1 41 40
f 1 42 41
f 1 43 42
f 1 44 43
f 1 45 44
f 1 46 45
f 1 47 46
f 1 48 47
f 1 49 48
f 1 50 49
f 1 51 50
f 1 52 51
f 1 53 52
f 1 54 53
f 1 55 54
f 1 56 55
f 1 57 56
f 1 58 57
