v -0.985432 0.450000 -3.150000
v -0.988806 0.450000 -3.169136
v -0.992180 0.450000 -3.188272
v -0.995554 0.450000 -3.207408
v -0.998928 0.450000 -3.226544
v -1.002303 0.450000 -3.245679
v -1.005677 0.450000 -3.264815
v -1.009051 0.450000 -3.283951
v -1.012425 0.450000 -3.303087
v -1.015799 0.450000 -3.322223
v -1.019173 0.450000 -3.341359
v -1.022548 0.450000 -3.360495
v -1.025922 0.450000 -3.379631
v -1.029296 0.450000 -3.398767
v -1.032670 0.450000 -3.417902
v -1.036044 0.450000 -3.437038
v -1.039418 0.450000 -3.456174
v -1.042793 0.450000 -3.475310
v -1.046167 0.450000 -3.494446
v -1.049541 0.450000 -3.513582
v -1.052915 0.450000 -3.532718
v -1.056289 0.450000 -3.551854
v -1.059664 0.450000 -3.570990
v -1.063038 0.450000 -3.590125
v -1.066412 0.450000 -3.609261
v -1.069786 0.450000 -3.628397
v -1.073160 0.450000 -3.647533
v -1.076534 0.450000 -3.666669
v -1.079909 0.450000 -3.685805
v -1.083283 0.450000 -3.704941
v -1.086657 0.450000 -3.724077
v -1.090031 0.450000 -3.743213
v -1.093405 0.450000 -3.762348
v -1.096779 0.450000 -3.781484
v -1.100154 0.450000 -3.800620
v -1.103528 0.450000 -3.819756
v -1.106902 0.450000 -3.838892
v -1.110276 0.450000 -3.858028
v -1.113650 0.450000 -3.877164
v -1.117024 0.450000 -3.896300
v -1.120399 0.450000 -3.915435
v -1.123773 0.450000 -3.934571
v -1.127147 0.450000 -3.953707
v -1.130521 0.450000 -3.972843
v -1.133895 0.450000 -3.991979
v -1.137270 0.450000 -4.011115
v -1.140644 0.450000 -4.030251
v -1.144018 0.450000 -4.049387
v -1.147392 0.450000 -4.068523
v -1.150766 0.450000 -4.087658
v -1.154140 0.450000 -4.106794
v -1.157515 0.450000 -4.125930
v -1.160889 0.450000 -4.145066
v -1.164263 0.450000 -4.164202
v -1.167637 0.450000 -4.183338
v -1.171011 0.450000 -4.202474
v -2.540000 0.450000 -4.202474
v -2.540000 0.450000 -3.150000
f 1 3 2
f 1 4 3
f 1 5 4
f 1 6 5
f 1 7 6
f 1 8 7
f 1 9 8
f 1 10 9
f 1 11 10
f 1 12 11
f 1 13 12
f 1 14 13
f 1 15 14
f 1 16 15
f 1 17 16
f 1 18 17
f 1 19 18
f 1 20 19
f 1 21 20
f 1 22 21
f 1 23 22
f 1 24 23
f 1 25 24
f 1 26 25
f 1 27 26
f 1 28 27
f 1 29 28
f 1 30 29
f 1 31 30
f 1 32 31
f 1 33 32
f 1 34 33
f 1 35 34
f 1 36 35
f 1 37 36
f 1 38 37
f 1 39 38
f 1 40 39
f 1 41 40
f 1 42 41
f 1 43 42
f 1 44 43
f 1 45 44
f 1 46 45
f 1 47 46
f 1 48 47
f 1 49 48
f 1 50 49
f 1 51 50
f 1 52 51
f 1 53 52
f 1 54 53
f 1 55 54
f 1 56 55
f 1 57 56
f 1 58 57
