v -0.727588 0.220000 0.021986
v -0.675888 0.220000 0.035839
v -0.668499 0.220000 0.044829
v -0.668499 0.010000 0.044829
v -0.675888 0.016837 0.035839
v -0.675761 0.016713 0.035873
v -0.675634 0.016588 0.035907
v -0.675508 0.016463 0.035941
v -0.675381 0.016338 0.035975
v -0.675254 0.016214 0.036009
v -0.675127 0.016089 0.036043
v -0.675001 0.015964 0.036077
v -0.674874 0.015839 0.036111
v -0.674747 0.015715 0.036145
v -0.674621 0.015590 0.036179
v -0.674494 0.015465 0.036213
v -0.674367 0.015341 0.036246
v -0.674241 0.015216 0.036280
v -0.674114 0.015092 0.036314
v -0.673988 0.014967 0.036348
v -0.673861 0.014842 0.036382
v -0.673735 0.014718 0.036416
v -0.673608 0.014593 0.036450
v -0.673481 0.014469 0.036484
v -0.673355 0.014344 0.036518
v -0.673229 0.014220 0.036552
v -0.673102 0.014096 0.036586
v -0.672976 0.013971 0.036619
v -0.672849 0.013847 0.036653
v -0.672723 0.013722 0.036687
v -0.672596 0.013598 0.036721
v -0.672470 0.013474 0.036755
v -0.672344 0.013349 0.036789
v -0.672217 0.013225 0.036823
v -0.672091 0.013101 0.036856
v -0.671965 0.012977 0.036890
v -0.671838 0.012852 0.036924
v -0.671712 0.012728 0.036958
v -0.671586 0.012604 0.036992
v -0.671460 0.012480 0.037026
v -0.671333 0.012356 0.037059
v -0.671207 0.012231 0.037093
v -0.671081 0.012107 0.037127
v -0.670955 0.011983 0.037161
v -0.670829 0.011859 0.037195
v -0.670703 0.011735 0.037228
v -0.670576 0.011611 0.037262
v -0.670450 0.011487 0.037296
v -0.670324 0.011363 0.037330
v -0.670198 0.011239 0.037364
v -0.670072 0.011115 0.037397
v -0.669946 0.010991 0.037431
v -0.669820 0.010867 0.037465
v -0.669694 0.010743 0.037499
v -0.669568 0.010619 0.037532
v -0.669442 0.010495 0.037566
v -0.669316 0.010371 0.037600
v -0.669190 0.010248 0.037634
v -0.669064 0.010124 0.037667
v -0.668938 0.010000 0.037701
v -0.668938 0.000000 0.037701
v -0.727588 0.000000 0.021986
f 62 1 2
f 62 2 3
f 3 4 5
f 62 3 5
f 62 5 6
f 62 6 7
f 62 7 8
f 62 8 9
f 62 9 10
f 62 10 11
f 62 11 12
f 62 12 13
f 62 13 14
f 62 14 15
f 62 15 16
f 62 16 17
f 62 17 18
f 62 18 19
f 62 19 20
f 62 20 21
f 62 21 22
f 62 22 23
f 62 23 24
f 62 24 25
f 62 25 26
f 62 26 27
f 62 27 28
f 62 28 29
f 62 29 30
f 62 30 31
f 62 31 32
f 62 32 33
f 62 33 34
f 62 34 35
f 62 35 36
f 62 36 37
f 62 37 38
f 62 38 39
f 62 39 40
f 62 40 41
f 62 41 42
f 62 42 43
f 62 43 44
f 62 44 45
f 62 45 46
f 62 46 47
f 62 47 48
f 62 48 49
f 62 49 50
f 62 50 51
f 62 51 52
f 62 52 53
f 62 53 54
f 62 54 55
f 62 55 56
f 62 56 57
f 62 57 58
f 62 58 59
f 62 59 60
f 60 61 62
