v 0.500801 0.382228 -1.051000
v 0.499659 0.383719 -1.051000
v 0.498513 0.385208 -1.051000
v 0.497362 0.386692 -1.051000
v 0.496207 0.388173 -1.051000
v 0.495047 0.389651 -1.051000
v 0.493883 0.391126 -1.051000
v 0.492715 0.392596 -1.051000
v 0.491542 0.394064 -1.051000
v 0.490365 0.395528 -1.051000
v 0.489184 0.396988 -1.051000
v 0.487998 0.398445 -1.051000
v 0.486808 0.399898 -1.051000
v 0.485613 0.401348 -1.051000
v 0.484414 0.402794 -1.051000
v 0.483211 0.404236 -1.051000
v 0.482004 0.405675 -1.051000
v 0.480792 0.407111 -1.051000
v 0.479576 0.408542 -1.051000
v 0.478356 0.409970 -1.051000
v 0.477131 0.411395 -1.051000
v 0.475903 0.412816 -1.051000
v 0.474670 0.414233 -1.051000
v 0.473432 0.415646 -1.051000
v 0.472191 0.417056 -1.051000
v 0.470945 0.418462 -1.051000
v 0.469696 0.419864 -1.051000
v 0.468442 0.421263 -1.051000
v 0.467184 0.422658 -1.051000
v 0.465921 0.424049 -1.051000
v 0.464655 0.425436 -1.051000
v 0.463384 0.426820 -1.051000
v 0.372725 0.325732 -1.051000
v 0.373147 0.325249 -1.051000
v 0.373568 0.324765 -1.051000
v 0.373988 0.324280 -1.051000
v 0.374408 0.323795 -1.051000
v 0.374827 0.323310 -1.051000
v 0.375246 0.322824 -1.051000
v 0.375664 0.322337 -1.051000
v 0.376082 0.321850 -1.051000
v 0.376498 0.321363 -1.051000
v 0.376915 0.320874 -1.051000
v 0.377330 0.320386 -1.051000
v 0.377745 0.319896 -1.051000
v 0.378159 0.319407 -1.051000
v 0.378573 0.318916 -1.051000
v 0.378986 0.318426 -1.051000
v 0.379398 0.317934 -1.051000
v 0.379810 0.317442 -1.051000
v 0.380221 0.316950 -1.051000
v 0.380631 0.316457 -1.051000
v 0.381041 0.315963 -1.051000
v 0.381450 0.315469 -1.051000
v 0.381859 0.314974 -1.051000
v 0.382267 0.314479 -1.051000
v 0.382674 0.313984 -1.051000
v 0.383080 0.313488 -1.051000
v 0.383486 0.312991 -1.051000
v 0.383892 0.312494 -1.051000
v 0.384296 0.311996 -1.051000
v 0.384700 0.311498 -1.051000
v 0.385104 0.310999 -1.051000
v 0.385506 0.310499 -1.051000
v 0.391738 0.302599 -1.061000
v 0.506828 0.374200 -1.061000
f 66 1 2
f 66 2 3
f 66 3 4
f 66 4 5
f 66 5 6
f 66 6 7
f 66 7 8
f 66 8 9
f 66 9 10
f 66 10 11
f 66 11 12
f 66 12 13
f 66 13 14
f 66 14 15
f 66 15 16
f 66 16 17
f 66 17 18
f 66 18 19
f 66 19 20
f 66 20 21
f 66 21 22
f 66 22 23
f 66 23 24
f 66 24 25
f 66 25 26
f 66 26 27
f 66 27 28
f 66 28 29
f 66 29 30
f 66 30 31
f 66 31 32
f 66 32 33
f 66 33 34
f 66 34 35
f 66 35 36
f 66 36 37
f 66 37 38
f 66 38 39
f 66 39 40
f 66 40 41
f 66 41 42
f 66 42 43
f 66 43 44
f 66 44 45
f 66 45 46
f 66 46 47
f 66 47 48
f 66 48 49
f 66 49 50
f 66 50 51
f 66 51 52
f 66 52 53
f 66 53 54
f 66 54 55
f 66 55 56
f 66 56 57
f 66 57 58
f 66 58 59
f 66 59 60
f 66 60 61
f 66 61 62
f 66 62 63
f 66 63 64
f 64 65 66
