v -0.675888 0.016837 -0.035839
v -0.675888 0.220000 -0.035839
v -0.727588 0.220000 -0.021986
v -0.727588 0.000000 -0.021986
v -0.668938 0.000000 -0.037701
v -0.668938 0.010000 -0.037701
v -0.675888 0.016837 -0.035839
v -0.675658 0.016611 -0.035904
v -0.675431 0.016388 -0.035973
v -0.675206 0.016168 -0.036048
v -0.674985 0.015951 -0.036127
v -0.674766 0.015737 -0.036212
v -0.674549 0.015525 -0.036301
v -0.674336 0.015317 -0.036395
v -0.674125 0.015113 -0.036494
v -0.673918 0.014911 -0.036597
v -0.673713 0.014712 -0.036705
v -0.673512 0.014517 -0.036817
v -0.673313 0.014325 -0.036934
v -0.673118 0.014137 -0.037055
v -0.672926 0.013952 -0.037180
v -0.672737 0.013770 -0.037309
v -0.672551 0.013592 -0.037443
v -0.672369 0.013418 -0.037580
v -0.672190 0.013247 -0.037721
v -0.672014 0.013080 -0.037867
v -0.671842 0.012917 -0.038015
v -0.671674 0.012757 -0.038168
v -0.671509 0.012602 -0.038324
v -0.671348 0.012450 -0.038484
v -0.671191 0.012303 -0.038648
v -0.671038 0.012159 -0.038815
v -0.670888 0.012020 -0.038985
v -0.670743 0.011885 -0.039158
v -0.670601 0.011754 -0.039335
v -0.670464 0.011628 -0.039515
v -0.670331 0.011506 -0.039698
v -0.670202 0.011388 -0.039883
v -0.670078 0.011275 -0.040071
v -0.669958 0.011167 -0.040262
v -0.669842 0.011063 -0.040456
v -0.669731 0.010964 -0.040651
v -0.669624 0.010869 -0.040849
v -0.669522 0.010779 -0.041048
v -0.669425 0.010694 -0.041250
v -0.669332 0.010614 -0.041453
v -0.669244 0.010539 -0.041657
v -0.669160 0.010469 -0.041863
v -0.669082 0.010403 -0.042070
v -0.669008 0.010343 -0.042278
v -0.668940 0.010288 -0.042488
v -0.668876 0.010237 -0.042698
v -0.668817 0.010192 -0.042909
v -0.668763 0.010151 -0.043121
v -0.668713 0.010116 -0.043333
v -0.668668 0.010085 -0.043546
v -0.668628 0.010059 -0.043759
v -0.668593 0.010038 -0.043973
v -0.668562 0.010021 -0.044187
v -0.668537 0.010009 -0.044401
v -0.668515 0.010002 -0.044615
v -0.668499 0.010000 -0.044829
f 2 3 4
f 4 5 6
f 8 9 10
f 8 10 11
f 8 11 12
f 8 12 13
f 8 13 14
f 8 14 15
f 8 15 16
f 8 16 17
f 8 17 18
f 8 18 19
f 8 19 20
f 8 20 21
f 8 21 22
f 8 22 23
f 8 23 24
f 8 24 25
f 8 25 26
f 8 26 27
f 8 27 28
f 8 28 29
f 8 29 30
f 8 30 31
f 8 31 32
f 8 32 33
f 8 33 34
f 8 34 35
f 8 35 36
f 8 36 37
f 8 37 38
f 8 38 39
f 8 39 40
f 8 40 41
f 8 41 42
f 8 42 43
f 8 43 44
f 8 44 45
f 8 45 46
f 8 46 47
f 8 47 48
f 8 48 49
f 8 49 50
f 8 50 51
f 8 51 52
f 8 52 53
f 8 53 54
f 8 54 55
f 8 55 56
f 8 56 57
f 8 57 58
f 8 58 59
f 8 59 60
f 8 60 61
f 8 61 62
f 1 2 4
f 1 4 6
f 1 6 7
f 1 7 8
f 1 8 62
