v -0.035904 0.016611 0.675658
v -0.036494 0.015112 0.674125
v -0.037443 0.013592 0.672551
v -0.038648 0.012302 0.671190
v -0.040263 0.011166 0.669958
v -0.042070 0.010403 0.669082
v -0.044187 0.010021 0.668562
v -0.035904 0.115000 0.675658
v -0.036494 0.115000 0.674125
v -0.037443 0.115000 0.672551
v -0.038648 0.115000 0.671191
v -0.040262 0.115000 0.669957
v -0.042070 0.115000 0.669082
v -0.044187 0.115000 0.668563
v -0.035904 0.220000 0.675658
v -0.036494 0.220000 0.674125
v -0.037443 0.220000 0.672551
v -0.038648 0.220000 0.671191
v -0.040262 0.220000 0.669957
v -0.042070 0.220000 0.669082
v -0.044187 0.220000 0.668563
f 1 9 2
f 1 8 9
f 2 10 3
f 2 9 10
f 3 11 4
f 3 10 11
f 4 12 5
f 4 11 12
f 5 13 6
f 5 12 13
f 6 14 7
f 6 13 14
f 8 16 9
f 8 15 16
f 9 17 10
f 9 16 17
f 10 18 11
f 10 17 18
f 11 19 12
f 11 18 19
f 12 20 13
f 12 19 20
f 13 21 14
f 13 20 21
