v 0.675503 0.220000 -0.035950
v 0.673315 0.220000 -0.036933
v 0.671425 0.220000 -0.038408
v 0.669939 0.220000 -0.040291
v 0.668945 0.220000 -0.042473
v 0.668499 0.220000 -0.044829
v 0.675503 0.115000 -0.035950
v 0.673315 0.115000 -0.036933
v 0.671425 0.115000 -0.038408
v 0.669939 0.115000 -0.040291
v 0.668945 0.115000 -0.042473
v 0.668499 0.115000 -0.044829
v 0.675503 0.010000 -0.035950
v 0.673315 0.010000 -0.036933
v 0.671425 0.010000 -0.038408
v 0.669939 0.010000 -0.040291
v 0.668945 0.010000 -0.042473
v 0.668499 0.010000 -0.044829
f 1 8 2
f 1 7 8
f 2 9 3
f 2 8 9
f 3 10 4
f 3 9 10
f 4 11 5
f 4 10 11
f 5 12 6
f 5 11 12
f 7 14 8
f 7 13 14
f 8 15 9
f 8 14 15
f 9 16 10
f 9 15 16
f 10 17 11
f 10 16 17
f 11 18 12
f 11 17 18
