v 0.230000 0.390307 -6.345635
v -0.970000 0.390307 -6.345635
v -0.970000 0.425572 -6.145635
v 0.855000 0.425572 -6.145635
v 0.855000 0.332409 -6.673988
v 0.405000 0.332409 -6.673988
v 0.405000 0.359450 -6.520635
v 0.404929 0.360353 -6.515514
v 0.404716 0.361247 -6.510439
v 0.404361 0.362135 -6.505408
v 0.403864 0.363014 -6.500418
v 0.403226 0.363887 -6.495469
v 0.402446 0.364753 -6.490556
v 0.401523 0.365613 -6.485680
v 0.400459 0.366467 -6.480836
v 0.399252 0.367316 -6.476023
v 0.397903 0.368159 -6.471240
v 0.396411 0.368998 -6.466483
v 0.394778 0.369832 -6.461752
v 0.393004 0.370661 -6.457052
v 0.391093 0.371483 -6.452390
v 0.389047 0.372297 -6.447772
v 0.386869 0.373103 -6.443204
v 0.384561 0.373898 -6.438692
v 0.382126 0.374683 -6.434244
v 0.379566 0.375455 -6.429865
v 0.376884 0.376213 -6.425563
v 0.374083 0.376958 -6.421342
v 0.371165 0.377686 -6.417210
v 0.368132 0.378398 -6.413173
v 0.364987 0.379093 -6.409233
v 0.361733 0.379770 -6.405392
v 0.358372 0.380430 -6.401652
v 0.354906 0.381071 -6.398015
v 0.351338 0.381694 -6.394483
v 0.347669 0.382297 -6.391058
v 0.343904 0.382882 -6.387743
v 0.340043 0.383447 -6.384538
v 0.336089 0.383992 -6.381447
v 0.332045 0.384517 -6.378470
v 0.327914 0.385021 -6.375611
v 0.323701 0.385505 -6.372870
v 0.319413 0.385966 -6.370251
v 0.315055 0.386407 -6.367754
v 0.310634 0.386825 -6.365383
v 0.306157 0.387220 -6.363139
v 0.301628 0.387593 -6.361024
v 0.297055 0.387943 -6.359040
v 0.292444 0.388270 -6.357189
v 0.287801 0.388572 -6.355474
v 0.283132 0.388850 -6.353895
v 0.278441 0.389104 -6.352456
v 0.273729 0.389333 -6.351155
v 0.268993 0.389538 -6.349993
v 0.264232 0.389719 -6.348969
v 0.259442 0.389875 -6.348083
v 0.254622 0.390007 -6.347334
v 0.249770 0.390115 -6.346722
v 0.244884 0.390199 -6.346246
v 0.239962 0.390259 -6.345907
v 0.235001 0.390295 -6.345703
v 0.817500 0.378429 -6.413000
v 0.817207 0.380376 -6.401954
v 0.816312 0.382360 -6.390707
v 0.814792 0.384369 -6.379313
v 0.812625 0.386394 -6.367827
v 0.809788 0.388426 -6.356303
v 0.806257 0.390455 -6.344794
v 0.802009 0.392472 -6.333356
v 0.797033 0.394467 -6.322044
v 0.791344 0.396427 -6.310924
v 0.784965 0.398343 -6.300061
v 0.777917 0.400201 -6.289522
v 0.770221 0.401991 -6.279371
v 0.761899 0.403701 -6.269674
v 0.752973 0.405319 -6.260498
v 0.743483 0.406836 -6.251895
v 0.733503 0.408247 -6.243893
v 0.723111 0.409547 -6.236517
v 0.712385 0.410733 -6.229792
v 0.701405 0.411800 -6.223743
v 0.690248 0.412743 -6.218395
v 0.678992 0.413558 -6.213773
v 0.667687 0.414244 -6.209882
v 0.656343 0.414805 -6.206699
v 0.644967 0.415246 -6.204201
v 0.633566 0.415570 -6.202363
v 0.622147 0.415781 -6.201162
v 0.610717 0.415885 -6.200573
v 0.599283 0.415885 -6.200573
v 0.587853 0.415781 -6.201162
v 0.576434 0.415570 -6.202363
v 0.565033 0.415246 -6.204201
v 0.553657 0.414805 -6.206699
v 0.542313 0.414244 -6.209882
v 0.531008 0.413558 -6.213773
v 0.519752 0.412743 -6.218395
v 0.508595 0.411800 -6.223743
v 0.497615 0.410733 -6.229792
v 0.486889 0.409547 -6.236517
v 0.476497 0.408247 -6.243893
v 0.466517 0.406836 -6.251895
v 0.457027 0.405319 -6.260498
v 0.448101 0.403701 -6.269674
v 0.439779 0.401991 -6.279371
v 0.432083 0.400201 -6.289522
v 0.425035 0.398343 -6.300061
v 0.418656 0.396427 -6.310924
v 0.412967 0.394467 -6.322044
v 0.407991 0.392472 -6.333356
v 0.403743 0.390455 -6.344794
v 0.400212 0.388426 -6.356303
v 0.397375 0.386394 -6.367827
v 0.395208 0.384369 -6.379313
v 0.393688 0.382360 -6.390707
v 0.392793 0.380376 -6.401954
v 0.392500 0.378429 -6.413000
v 0.392793 0.376481 -6.424046
v 0.393688 0.374498 -6.435293
v 0.395208 0.372489 -6.446687
v 0.397375 0.370463 -6.458173
v 0.400212 0.368431 -6.469697
v 0.403743 0.366402 -6.481206
v 0.407991 0.364385 -6.492644
v 0.412967 0.362391 -6.503956
v 0.418656 0.360430 -6.515076
v 0.425035 0.358514 -6.525939
v 0.432083 0.356656 -6.536478
v 0.439779 0.354866 -6.546629
v 0.448101 0.353156 -6.556326
v 0.457027 0.351538 -6.565502
v 0.466517 0.350021 -6.574105
v 0.476497 0.348610 -6.582107
v 0.486889 0.347310 -6.589483
v 0.497615 0.346124 -6.596208
v 0.508595 0.345057 -6.602257
v 0.519752 0.344115 -6.607605
v 0.531008 0.343300 -6.612227
v 0.542313 0.342613 -6.616118
v 0.553657 0.342052 -6.619301
v 0.565033 0.341612 -6.621799
v 0.576434 0.341288 -6.623637
v 0.587853 0.341076 -6.624838
v 0.599283 0.340972 -6.625427
v 0.610717 0.340972 -6.625427
v 0.622147 0.341076 -6.624838
v 0.633566 0.341288 -6.623637
v 0.644967 0.341612 -6.621799
v 0.656343 0.342052 -6.619301
v 0.667687 0.342613 -6.616118
v 0.678992 0.343300 -6.612227
v 0.690248 0.344115 -6.607605
v 0.701405 0.345057 -6.602257
v 0.712385 0.346124 -6.596208
v 0.723111 0.347310 -6.589483
v 0.733503 0.348610 -6.582107
v 0.743483 0.350021 -6.574105
v 0.752973 0.351538 -6.565502
v 0.761899 0.353156 -6.556326
v 0.770221 0.354866 -6.546629
v 0.777917 0.356656 -6.536478
v 0.784965 0.358514 -6.525939
v 0.791344 0.360430 -6.515076
v 0.797033 0.362391 -6.503956
v 0.802009 0.364385 -6.492644
v 0.806257 0.366402 -6.481206
v 0.809788 0.368431 -6.469697
v 0.812625 0.370463 -6.458173
v 0.814792 0.372489 -6.446687
v 0.816312 0.374498 -6.435293
v 0.817207 0.376481 -6.424046
f 1 2 3
f 5 6 144
f 143 144 6
f 61 1 3
f 5 144 145
f 142 143 6
f 60 61 3
f 5 145 146
f 141 142 6
f 59 60 3
f 5 146 147
f 140 141 6
f 58 59 3
f 5 147 148
f 139 140 6
f 57 58 3
f 5 148 149
f 138 139 6
f 56 57 3
f 5 149 150
f 137 138 6
f 5 150 151
f 136 137 6
f 5 151 152
f 135 136 6
f 5 152 153
f 134 135 6
f 5 153 154
f 133 134 6
f 5 154 155
f 132 133 6
f 5 155 156
f 131 132 6
f 5 156 157
f 130 131 6
f 5 157 158
f 129 130 6
f 5 158 159
f 128 129 6
f 5 159 160
f 127 128 6
f 5 160 161
f 126 127 6
f 5 161 162
f 125 126 6
f 5 162 163
f 124 125 6
f 5 163 164
f 124 6 7
f 5 164 165
f 124 7 8
f 5 165 166
f 123 124 8
f 5 166 167
f 123 8 9
f 5 167 168
f 123 9 10
f 5 168 169
f 123 10 11
f 4 5 169
f 122 123 11
f 4 169 170
f 122 11 12
f 4 170 171
f 121 122 12
f 4 171 62
f 121 12 13
f 4 62 63
f 120 121 13
f 4 63 64
f 120 13 14
f 4 64 65
f 120 14 15
f 4 65 66
f 120 15 16
f 4 66 67
f 120 16 17
f 4 67 68
f 119 120 17
f 4 68 69
f 119 17 18
f 4 69 70
f 119 18 19
f 4 70 71
f 118 119 19
f 4 71 72
f 118 19 20
f 4 72 73
f 117 118 20
f 4 73 74
f 117 20 21
f 4 74 75
f 116 117 21
f 4 75 76
f 116 21 22
f 4 76 77
f 115 116 22
f 4 77 78
f 115 22 23
f 4 78 79
f 115 23 24
f 4 79 80
f 114 115 24
f 4 80 81
f 114 24 25
f 4 81 82
f 113 114 25
f 4 82 83
f 113 25 26
f 4 83 84
f 112 113 26
f 4 84 85
f 112 26 27
f 4 85 86
f 111 112 27
f 4 86 87
f 111 27 28
f 4 87 88
f 110 111 28
f 4 88 89
f 110 28 29
f 3 4 89
f 110 29 30
f 3 89 90
f 109 110 30
f 3 90 91
f 109 30 31
f 3 91 92
f 108 109 31
f 3 92 93
f 108 31 32
f 3 93 94
f 107 108 32
f 3 94 95
f 107 32 33
f 3 95 96
f 107 33 34
f 3 96 97
f 106 107 34
f 3 97 98
f 106 34 35
f 56 3 98
f 105 106 35
f 55 56 98
f 105 35 36
f 54 55 98
f 105 36 37
f 53 54 98
f 104 105 37
f 53 98 99
f 104 37 38
f 52 53 99
f 104 38 39
f 51 52 99
f 103 104 39
f 50 51 99
f 103 39 40
f 49 50 99
f 103 40 41
f 49 99 100
f 102 103 41
f 48 49 100
f 102 41 42
f 47 48 100
f 102 42 43
f 46 47 100
f 102 43 44
f 46 100 101
f 101 102 44
f 45 46 101
f 101 44 45
