v 0.673814 -0.040000 -0.825000
v 0.673814 -0.040000 -0.036213
v 0.673812 -0.040000 -0.035995
v 0.673808 -0.040000 -0.035778
v 0.673800 -0.040000 -0.035562
v 0.673790 -0.040000 -0.035347
v 0.673776 -0.040000 -0.035132
v 0.673759 -0.040000 -0.034918
v 0.673739 -0.040000 -0.034705
v 0.673717 -0.040000 -0.034493
v 0.673691 -0.040000 -0.034282
v 0.673662 -0.040000 -0.034071
v 0.673630 -0.040000 -0.033860
v 0.673595 -0.040000 -0.033651
v 0.673557 -0.040000 -0.033442
v 0.673516 -0.040000 -0.033233
v 0.673472 -0.040000 -0.033026
v 0.673425 -0.040000 -0.032818
v 0.673375 -0.040000 -0.032611
v 0.673322 -0.040000 -0.032405
v 0.673265 -0.040000 -0.032199
v 0.673206 -0.040000 -0.031994
v 0.673144 -0.040000 -0.031789
v 0.673078 -0.040000 -0.031585
v 0.673010 -0.040000 -0.031381
v 0.672939 -0.040000 -0.031178
v 0.672865 -0.040000 -0.030977
v 0.672788 -0.040000 -0.030776
v 0.672709 -0.040000 -0.030576
v 0.672626 -0.040000 -0.030377
v 0.672541 -0.040000 -0.030180
v 0.672453 -0.040000 -0.029983
v 0.672363 -0.040000 -0.029788
v 0.672269 -0.040000 -0.029595
v 0.672173 -0.040000 -0.029403
v 0.672075 -0.040000 -0.029212
v 0.671974 -0.040000 -0.029023
v 0.671870 -0.040000 -0.028836
v 0.671764 -0.040000 -0.028650
v 0.671656 -0.040000 -0.028467
v 0.671545 -0.040000 -0.028285
v 0.671431 -0.040000 -0.028105
v 0.671315 -0.040000 -0.027927
v 0.671196 -0.040000 -0.027750
v 0.671075 -0.040000 -0.027575
v 0.670951 -0.040000 -0.027402
v 0.670825 -0.040000 -0.027231
v 0.670696 -0.040000 -0.027061
v 0.670564 -0.040000 -0.026893
v 0.670429 -0.040000 -0.026727
v 0.670292 -0.040000 -0.026562
v 0.670153 -0.040000 -0.026399
v 0.670010 -0.040000 -0.026237
v 0.669865 -0.040000 -0.026077
v 0.669717 -0.040000 -0.025919
v 0.669566 -0.040000 -0.025762
v 0.669413 -0.040000 -0.025607
v 0.669241 -0.040000 -0.025435
v 0.669070 -0.040000 -0.025264
v 0.668898 -0.040000 -0.025093
v 0.668727 -0.040000 -0.024922
v 0.668555 -0.040000 -0.024751
v 0.668384 -0.040000 -0.024580
v 0.668212 -0.040000 -0.024408
v 0.668041 -0.040000 -0.024237
v 0.667869 -0.040000 -0.024066
v 0.667698 -0.040000 -0.023895
v 0.667527 -0.040000 -0.023724
v 0.667355 -0.040000 -0.023553
v 0.667184 -0.040000 -0.023382
v 0.667013 -0.040000 -0.023211
v 0.666841 -0.040000 -0.023040
v 0.666670 -0.040000 -0.022869
v 0.666499 -0.040000 -0.022698
v 0.666327 -0.040000 -0.022527
v 0.666156 -0.040000 -0.022356
v 0.665985 -0.040000 -0.022185
v 0.665814 -0.040000 -0.022014
v 0.665642 -0.040000 -0.021843
v 0.665471 -0.040000 -0.021672
v 0.665300 -0.040000 -0.021501
v 0.665129 -0.040000 -0.021331
v 0.664958 -0.040000 -0.021160
v 0.664787 -0.040000 -0.020989
v 0.664615 -0.040000 -0.020818
v 0.664444 -0.040000 -0.020647
v 0.664273 -0.040000 -0.020476
v 0.664102 -0.040000 -0.020306
v 0.663931 -0.040000 -0.020135
v 0.663760 -0.040000 -0.019964
v 0.663589 -0.040000 -0.019793
v 0.663418 -0.040000 -0.019623
v 0.663247 -0.040000 -0.019452
v 0.663076 -0.040000 -0.019281
v 0.662905 -0.040000 -0.019111
v 0.662734 -0.040000 -0.018940
v 0.662563 -0.040000 -0.018769
v 0.662392 -0.040000 -0.018599
v 0.662221 -0.040000 -0.018428
v 0.662050 -0.040000 -0.018257
v 0.661879 -0.040000 -0.018087
v 0.661708 -0.040000 -0.017916
v 0.661537 -0.040000 -0.017746
v 0.661366 -0.040000 -0.017575
v 0.661196 -0.040000 -0.017404
v 0.661025 -0.040000 -0.017234
v 0.660854 -0.040000 -0.017063
v 0.660683 -0.040000 -0.016893
v 0.660512 -0.040000 -0.016722
v 0.660342 -0.040000 -0.016552
v 0.660171 -0.040000 -0.016381
v 0.660000 -0.040000 -0.016211
v 0.660000 -0.040000 -0.857174
v 0.660250 -0.040000 -0.856591
v 0.660501 -0.040000 -0.856008
v 0.660751 -0.040000 -0.855425
v 0.661002 -0.040000 -0.854842
v 0.661252 -0.040000 -0.854258
v 0.661503 -0.040000 -0.853675
v 0.661753 -0.040000 -0.853091
v 0.662004 -0.040000 -0.852508
v 0.662254 -0.040000 -0.851924
v 0.662505 -0.040000 -0.851340
v 0.662755 -0.040000 -0.850757
v 0.663006 -0.040000 -0.850173
v 0.663257 -0.040000 -0.849589
v 0.663508 -0.040000 -0.849005
v 0.663758 -0.040000 -0.848421
v 0.664009 -0.040000 -0.847837
v 0.664260 -0.040000 -0.847252
v 0.664511 -0.040000 -0.846668
v 0.664762 -0.040000 -0.846084
v 0.665013 -0.040000 -0.845499
v 0.665264 -0.040000 -0.844915
v 0.665515 -0.040000 -0.844330
v 0.665766 -0.040000 -0.843746
v 0.666017 -0.040000 -0.843161
v 0.666268 -0.040000 -0.842576
v 0.666519 -0.040000 -0.841991
v 0.666770 -0.040000 -0.841406
v 0.667021 -0.040000 -0.840822
v 0.667272 -0.040000 -0.840236
v 0.667523 -0.040000 -0.839651
v 0.667775 -0.040000 -0.839066
v 0.668026 -0.040000 -0.838481
v 0.668277 -0.040000 -0.837896
v 0.668529 -0.040000 -0.837310
v 0.668780 -0.040000 -0.836725
v 0.669031 -0.040000 -0.836139
v 0.669283 -0.040000 -0.835553
v 0.669534 -0.040000 -0.834968
v 0.669786 -0.040000 -0.834382
v 0.670037 -0.040000 -0.833796
v 0.670289 -0.040000 -0.833210
v 0.670540 -0.040000 -0.832624
v 0.670792 -0.040000 -0.832038
v 0.671044 -0.040000 -0.831452
v 0.671295 -0.040000 -0.830866
v 0.671547 -0.040000 -0.830280
v 0.671799 -0.040000 -0.829693
v 0.672051 -0.040000 -0.829107
v 0.672302 -0.040000 -0.828520
v 0.672554 -0.040000 -0.827934
v 0.672806 -0.040000 -0.827347
v 0.673058 -0.040000 -0.826761
v 0.673310 -0.040000 -0.826174
v 0.673562 -0.040000 -0.825587
f 112 110 111
f 112 109 110
f 112 108 109
f 112 107 108
f 112 106 107
f 112 105 106
f 112 104 105
f 112 103 104
f 112 102 103
f 112 101 102
f 112 100 101
f 112 99 100
f 112 98 99
f 112 97 98
f 112 96 97
f 112 95 96
f 112 94 95
f 112 93 94
f 112 92 93
f 112 91 92
f 112 90 91
f 112 89 90
f 112 88 89
f 112 87 88
f 112 86 87
f 112 85 86
f 112 84 85
f 112 83 84
f 112 82 83
f 112 81 82
f 112 80 81
f 112 79 80
f 112 78 79
f 112 77 78
f 112 76 77
f 112 75 76
f 112 74 75
f 112 73 74
f 112 72 73
f 112 71 72
f 112 70 71
f 112 69 70
f 112 68 69
f 112 67 68
f 112 66 67
f 112 65 66
f 112 64 65
f 112 63 64
f 112 62 63
f 112 61 62
f 112 60 61
f 112 59 60
f 112 58 59
f 112 57 58
f 112 56 57
f 112 55 56
f 112 54 55
f 112 53 54
f 112 52 53
f 112 51 52
f 112 50 51
f 112 49 50
f 112 48 49
f 112 47 48
f 112 46 47
f 112 45 46
f 112 44 45
f 112 43 44
f 112 42 43
f 112 41 42
f 112 40 41
f 112 39 40
f 112 38 39
f 112 37 38
f 112 36 37
f 112 35 36
f 112 34 35
f 112 33 34
f 112 32 33
f 112 31 32
f 112 30 31
f 112 29 30
f 112 28 29
f 112 27 28
f 112 26 27
f 112 25 26
f 112 24 25
f 112 23 24
f 112 22 23
f 112 21 22
f 112 20 21
f 112 19 20
f 112 18 19
f 112 17 18
f 112 16 17
f 112 15 16
f 112 14 15
f 112 13 14
f 112 12 13
f 112 11 12
f 112 10 11
f 112 9 10
f 112 8 9
f 112 7 8
f 112 6 7
f 112 5 6
f 112 4 5
f 112 3 4
f 112 2 3
f 112 1 2
f 112 167 1
f 112 166 167
f 112 165 166
f 112 164 165
f 112 163 164
f 112 162 163
f 112 161 162
f 112 160 161
f 112 159 160
f 112 158 159
f 112 157 158
f 112 156 157
f 112 155 156
f 112 154 155
f 112 153 154
f 112 152 153
f 112 151 152
f 112 150 151
f 112 149 150
f 112 148 149
f 112 147 148
f 112 146 147
f 112 145 146
f 112 144 145
f 112 143 144
f 112 142 143
f 112 141 142
f 112 140 141
f 112 139 140
f 112 138 139
f 112 137 138
f 112 136 137
f 112 135 136
f 112 134 135
f 112 133 134
f 112 132 133
f 112 131 132
f 112 130 131
f 112 129 130
f 112 128 129
f 112 127 128
f 112 126 127
f 112 125 126
f 112 124 125
f 112 123 124
f 112 122 123
f 112 121 122
f 112 120 121
f 112 119 120
f 112 118 119
f 112 117 118
f 112 116 117
f 112 115 116
f 112 114 115
f 112 113 114
