v 1.691694 -1.110008 -5.463238
v 1.699136 -1.109733 -5.466073
v 1.684247 -1.110271 -5.460401
v 1.706573 -1.109447 -5.468907
v 1.714005 -1.109148 -5.471739
v 1.721433 -1.108838 -5.474569
v 1.728857 -1.108515 -5.477397
v 1.702055 -1.108336 -5.444473
v 1.736276 -1.108181 -5.480224
v 1.743691 -1.107835 -5.483049
v 1.751101 -1.107477 -5.485872
v 1.758508 -1.107107 -5.488694
v 1.765910 -1.106725 -5.491514
v 1.773309 -1.106332 -5.494333
v 1.780704 -1.105926 -5.497150
v 1.719827 -1.105887 -5.428577
v 1.788094 -1.105508 -5.499966
v 1.795482 -1.105079 -5.502781
v 1.802865 -1.104638 -5.505594
v 1.810245 -1.104184 -5.508405
v 1.817622 -1.103719 -5.511216
v 1.824995 -1.103242 -5.514025
v 1.737556 -1.102925 -5.412720
v 1.832364 -1.102753 -5.516833
v 1.839730 -1.102252 -5.519639
v 1.847092 -1.101740 -5.522444
v 1.854449 -1.101215 -5.525247
v 1.861801 -1.100679 -5.528048
v 1.869148 -1.100131 -5.530847
v 1.876490 -1.099572 -5.533644
v 1.755233 -1.099451 -5.396909
v 1.883826 -1.099001 -5.536439
v 1.891155 -1.098418 -5.539232
v 1.898479 -1.097824 -5.542022
v 1.905795 -1.097218 -5.544809
v 1.913105 -1.096601 -5.547594
v 1.920407 -1.095972 -5.550376
v 1.772851 -1.095468 -5.381151
v 1.927701 -1.095332 -5.553155
v 1.934987 -1.094681 -5.555931
v 1.942265 -1.094018 -5.558704
v 1.949534 -1.093344 -5.561473
v 1.956794 -1.092658 -5.564239
v 1.964045 -1.091962 -5.567002
v 1.971287 -1.091254 -5.569761
v 1.790400 -1.090976 -5.365455
v 1.978520 -1.090535 -5.572517
v 1.985743 -1.089805 -5.575269
v 1.992958 -1.089064 -5.578018
v 2.000164 -1.088312 -5.580763
v 2.007362 -1.087548 -5.583505
v 2.014551 -1.086773 -5.586244
v 2.021731 -1.085988 -5.588980
v 1.807873 -1.085979 -5.349826
v 2.028903 -1.085191 -5.591712
v 2.036067 -1.084382 -5.594442
v 2.043222 -1.083563 -5.597168
v 2.050369 -1.082733 -5.599891
v 2.057509 -1.081892 -5.602611
v 2.064640 -1.081039 -5.605328
v 1.825262 -1.080478 -5.334273
v 2.071763 -1.080176 -5.608042
v 2.078878 -1.079301 -5.610753
v 2.085986 -1.078416 -5.613461
v 2.088871 -1.076642 -5.606396
v 2.091723 -1.074827 -5.599323
v 1.842559 -1.074475 -5.318802
v 2.094544 -1.072970 -5.592243
v 2.097333 -1.071073 -5.585155
v 2.100090 -1.069134 -5.578058
v 1.859755 -1.067975 -5.303422
v 2.102815 -1.067154 -5.570952
v 2.105507 -1.065132 -5.563837
v 2.108168 -1.063069 -5.556712
v 1.876843 -1.060979 -5.288138
v 2.110797 -1.060965 -5.549577
v 2.113394 -1.058819 -5.542433
v 2.115959 -1.056631 -5.535278
v 2.118491 -1.054401 -5.528112
v 1.893815 -1.053491 -5.272958
v 2.120992 -1.052130 -5.520935
v 2.123460 -1.049816 -5.513746
v 2.125896 -1.047461 -5.506546
v 1.910663 -1.045514 -5.257889
v 2.128300 -1.045064 -5.499334
v 2.130672 -1.042624 -5.492109
v 2.133012 -1.040143 -5.484872
v 2.135319 -1.037619 -5.477621
v 1.927378 -1.037052 -5.242938
v 2.137594 -1.035054 -5.470359
v 2.139836 -1.032448 -5.463086
v 2.142045 -1.029802 -5.455805
v 1.943954 -1.028110 -5.228112
v 2.144219 -1.027117 -5.448517
v 2.146360 -1.024394 -5.441223
v 2.148466 -1.021634 -5.433926
v 2.150537 -1.018838 -5.426626
v 1.960383 -1.018690 -5.213418
v 2.152573 -1.016006 -5.419327
v 2.154573 -1.013140 -5.412029
v 2.156537 -1.010240 -5.404734
v 1.976657 -1.008798 -5.198862
v 2.158464 -1.007307 -5.397444
v 2.160354 -1.004342 -5.390160
v 2.162207 -1.001347 -5.382884
v 1.992768 -0.998439 -5.184452
v 2.164021 -0.998321 -5.375618
v 2.165798 -0.995266 -5.368364
v 2.167536 -0.992183 -5.361123
v 2.169235 -0.989072 -5.353896
v 2.008709 -0.987616 -5.170194
v 2.170894 -0.985935 -5.346686
v 2.172514 -0.982772 -5.339494
v 2.174095 -0.979583 -5.332318
v 2.175636 -0.976369 -5.325160
v 2.024472 -0.976335 -5.156094
v 2.177139 -0.973129 -5.318017
v 2.178604 -0.969864 -5.310890
v 2.180030 -0.966574 -5.303779
v 2.040051 -0.964601 -5.142160
v 2.181419 -0.963259 -5.296682
v 2.182770 -0.959920 -5.289599
v 2.184084 -0.956556 -5.282531
v 2.185361 -0.953167 -5.275476
v 2.055438 -0.952420 -5.128398
v 2.186602 -0.949754 -5.268434
v 2.187807 -0.946318 -5.261405
v 2.188976 -0.942857 -5.254388
v 2.070626 -0.939797 -5.114813
v 2.190109 -0.939373 -5.247383
v 2.191207 -0.935865 -5.240389
v 2.192270 -0.932334 -5.233406
v 2.193298 -0.928780 -5.226434
v 2.085608 -0.926739 -5.101413
v 2.194292 -0.925202 -5.219471
v 2.194897 -0.922976 -5.215173
v 2.195507 -0.920724 -5.210861
v 2.196122 -0.918445 -5.206536
v 2.196742 -0.916139 -5.202196
v 2.197367 -0.913807 -5.197843
v 2.100376 -0.913250 -5.088204
v 2.197997 -0.911447 -5.193477
v 2.198632 -0.909060 -5.189098
v 2.199272 -0.906645 -5.184707
v 2.199917 -0.904203 -5.180303
v 2.200567 -0.901732 -5.175888
v 2.114925 -0.899338 -5.075191
v 2.201222 -0.899233 -5.171460
v 2.201881 -0.896706 -5.167021
v 2.202546 -0.894150 -5.162571
v 2.203215 -0.891565 -5.158110
v 2.203890 -0.888951 -5.153638
v 2.204569 -0.886308 -5.149156
v 2.129247 -0.885009 -5.062381
v 2.205253 -0.883635 -5.144663
v 2.205942 -0.880933 -5.140161
v 2.206636 -0.878200 -5.135649
v 2.207334 -0.875437 -5.131128
v 2.208038 -0.872643 -5.126597
v 2.143336 -0.870269 -5.049780
v 2.208746 -0.869818 -5.122057
v 2.209460 -0.866961 -5.117508
v 2.210178 -0.864072 -5.112949
v 2.210901 -0.861150 -5.108381
v 2.211629 -0.858195 -5.103805
v 2.212362 -0.855206 -5.099219
v 2.157184 -0.855126 -5.037393
v 2.213101 -0.852184 -5.094624
v 2.213844 -0.849127 -5.090021
v 2.214592 -0.846035 -5.085409
v 2.215345 -0.842908 -5.080788
v 2.216103 -0.839744 -5.076158
v 2.170787 -0.839586 -5.025227
v 2.216867 -0.836545 -5.071520
v 2.217635 -0.833308 -5.066874
v 2.218409 -0.830035 -5.062219
v 2.219187 -0.826724 -5.057555
v 2.184137 -0.823657 -5.013286
v 2.219971 -0.823374 -5.052884
v 2.220760 -0.819986 -5.048204
v 2.221554 -0.816559 -5.043517
v 2.222353 -0.813093 -5.038823
v 2.223157 -0.809588 -5.034122
v 2.197228 -0.807345 -5.001577
v 2.223965 -0.806042 -5.029415
v 2.224779 -0.802457 -5.024702
v 2.225597 -0.798831 -5.019984
v 2.226420 -0.795165 -5.015262
v 2.227247 -0.791458 -5.010536
v 2.210054 -0.790660 -4.990105
v 2.228079 -0.787709 -5.005806
v 2.228915 -0.783919 -5.001072
v 2.229756 -0.780086 -4.996336
v 2.230601 -0.776212 -4.991598
v 2.222610 -0.773607 -4.978875
v 2.231451 -0.772295 -4.986858
v 2.232304 -0.768335 -4.982117
v 2.233162 -0.764332 -4.977376
v 2.234023 -0.760286 -4.972634
v 2.234889 -0.756196 -4.967892
f 1 2 3
f 2 4 3
f 4 5 3
f 5 6 3
f 6 7 3
f 7 8 3
f 7 9 8
f 9 10 8
f 10 11 8
f 11 12 8
f 12 13 8
f 13 14 8
f 14 15 8
f 15 16 8
f 15 17 16
f 17 18 16
f 18 19 16
f 19 20 16
f 20 21 16
f 21 22 16
f 22 23 16
f 22 24 23
f 24 25 23
f 25 26 23
f 26 27 23
f 27 28 23
f 28 29 23
f 29 30 23
f 30 31 23
f 30 32 31
f 32 33 31
f 33 34 31
f 34 35 31
f 35 36 31
f 36 37 31
f 37 38 31
f 37 39 38
f 39 40 38
f 40 41 38
f 41 42 38
f 42 43 38
f 43 44 38
f 44 45 38
f 45 46 38
f 45 47 46
f 47 48 46
f 48 49 46
f 49 50 46
f 50 51 46
f 51 52 46
f 52 53 46
f 53 54 46
f 53 55 54
f 55 56 54
f 56 57 54
f 57 58 54
f 58 59 54
f 59 60 54
f 60 61 54
f 60 62 61
f 62 63 61
f 63 64 61
f 64 65 61
f 65 66 61
f 66 67 61
f 66 68 67
f 68 69 67
f 69 70 67
f 70 71 67
f 70 72 71
f 72 73 71
f 73 74 71
f 74 75 71
f 74 76 75
f 76 77 75
f 77 78 75
f 78 79 75
f 79 80 75
f 79 81 80
f 81 82 80
f 82 83 80
f 83 84 80
f 83 85 84
f 85 86 84
f 86 87 84
f 87 88 84
f 88 89 84
f 88 90 89
f 90 91 89
f 91 92 89
f 92 93 89
f 92 94 93
f 94 95 93
f 95 96 93
f 96 97 93
f 97 98 93
f 97 99 98
f 99 100 98
f 100 101 98
f 101 102 98
f 101 103 102
f 103 104 102
f 104 105 102
f 105 106 102
f 105 107 106
f 107 108 106
f 108 109 106
f 109 110 106
f 110 111 106
f 110 112 111
f 112 113 111
f 113 114 111
f 114 115 111
f 115 116 111
f 115 117 116
f 117 118 116
f 118 119 116
f 119 120 116
f 119 121 120
f 121 122 120
f 122 123 120
f 123 124 120
f 124 125 120
f 124 126 125
f 126 127 125
f 127 128 125
f 128 129 125
f 128 130 129
f 130 131 129
f 131 132 129
f 132 133 129
f 133 134 129
f 133 135 134
f 135 136 134
f 136 137 134
f 137 138 134
f 138 139 134
f 139 140 134
f 140 141 134
f 140 142 141
f 142 143 141
f 143 144 141
f 144 145 141
f 145 146 141
f 146 147 141
f 146 148 147
f 148 149 147
f 149 150 147
f 150 151 147
f 151 152 147
f 152 153 147
f 153 154 147
f 153 155 154
f 155 156 154
f 156 157 154
f 157 158 154
f 158 159 154
f 159 160 154
f 159 161 160
f 161 162 160
f 162 163 160
f 163 164 160
f 164 165 160
f 165 166 160
f 166 167 160
f 166 168 167
f 168 169 167
f 169 170 167
f 170 171 167
f 171 172 167
f 172 173 167
f 172 174 173
f 174 175 173
f 175 176 173
f 176 177 173
f 177 178 173
f 177 179 178
f 179 180 178
f 180 181 178
f 181 182 178
f 182 183 178
f 183 184 178
f 183 185 184
f 185 186 184
f 186 187 184
f 187 188 184
f 188 189 184
f 189 190 184
f 189 191 190
f 191 192 190
f 192 193 190
f 193 194 190
f 194 195 190
f 194 196 195
f 196 197 195
f 197 198 195
f 198 199 195
f 199 200 195
