ISO-10303-21;
HEADER;
FILE_DESCRIPTION(('Navigation Cube FreeCAD-0.21 style, watertight BREP'),'2;1');
FILE_NAME('navicube.step','2026-08-04T00:00:00',('agent'),('rust-nav'),'',  '', '');
FILE_SCHEMA(('AUTOMOTIVE_DESIGN { 1 0 10303 214 1 1 1 1 }'));
ENDSEC;
DATA;
#1=CARTESIAN_POINT('',(0.5,0.3,0.2));
#2=CARTESIAN_POINT('',(0.5,0.2,0.3));
#3=DIRECTION('',(0.0,-0.707107,0.707107));
#4=LINE('',#1,#VECTOR('',#3,1.0));
#5=VERTEX_POINT('',#1);
#6=VERTEX_POINT('',#2);
#7=EDGE_CURVE('',#5,#6,#4,.T.);
#8=ORIENTED_EDGE('',*,*,#7,.T.);
#9=CARTESIAN_POINT('',(0.5,-0.2,0.3));
#10=DIRECTION('',(0.0,-1.0,0.0));
#11=LINE('',#2,#VECTOR('',#10,1.0));
#12=VERTEX_POINT('',#9);
#13=EDGE_CURVE('',#6,#12,#11,.T.);
#14=ORIENTED_EDGE('',*,*,#13,.T.);
#15=CARTESIAN_POINT('',(0.5,-0.3,0.2));
#16=DIRECTION('',(0.0,-0.707107,-0.707107));
#17=LINE('',#9,#VECTOR('',#16,1.0));
#18=VERTEX_POINT('',#15);
#19=EDGE_CURVE('',#12,#18,#17,.T.);
#20=ORIENTED_EDGE('',*,*,#19,.T.);
#21=CARTESIAN_POINT('',(0.5,-0.3,-0.2));
#22=DIRECTION('',(0.0,0.0,-1.0));
#23=LINE('',#15,#VECTOR('',#22,1.0));
#24=VERTEX_POINT('',#21);
#25=EDGE_CURVE('',#18,#24,#23,.T.);
#26=ORIENTED_EDGE('',*,*,#25,.T.);
#27=CARTESIAN_POINT('',(0.5,-0.2,-0.3));
#28=DIRECTION('',(0.0,0.707107,-0.707107));
#29=LINE('',#21,#VECTOR('',#28,1.0));
#30=VERTEX_POINT('',#27);
#31=EDGE_CURVE('',#24,#30,#29,.T.);
#32=ORIENTED_EDGE('',*,*,#31,.T.);
#33=CARTESIAN_POINT('',(0.5,0.2,-0.3));
#34=DIRECTION('',(0.0,1.0,0.0));
#35=LINE('',#27,#VECTOR('',#34,1.0));
#36=VERTEX_POINT('',#33);
#37=EDGE_CURVE('',#30,#36,#35,.T.);
#38=ORIENTED_EDGE('',*,*,#37,.T.);
#39=CARTESIAN_POINT('',(0.5,0.3,-0.2));
#40=DIRECTION('',(0.0,0.707107,0.707107));
#41=LINE('',#33,#VECTOR('',#40,1.0));
#42=VERTEX_POINT('',#39);
#43=EDGE_CURVE('',#36,#42,#41,.T.);
#44=ORIENTED_EDGE('',*,*,#43,.T.);
#45=LINE('',#1,#VECTOR('',#22,1.0));
#46=EDGE_CURVE('',#5,#42,#45,.T.);
#47=ORIENTED_EDGE('',*,*,#46,.F.);
#48=EDGE_LOOP('',(#8,#14,#20,#26,#32,#38,#44,#47));
#49=FACE_OUTER_BOUND('',#48,.T.);
#50=DIRECTION('',(1.0,0.0,0.0));
#51=AXIS2_PLACEMENT_3D('',#1,#50,#10);
#52=PLANE('',#51);
#53=ADVANCED_FACE('Right_Face',(#49),#52,.T.);
#54=CARTESIAN_POINT('',(-0.5,0.3,-0.2));
#55=CARTESIAN_POINT('',(-0.5,0.2,-0.3));
#56=LINE('',#54,#VECTOR('',#16,1.0));
#57=VERTEX_POINT('',#54);
#58=VERTEX_POINT('',#55);
#59=EDGE_CURVE('',#57,#58,#56,.T.);
#60=ORIENTED_EDGE('',*,*,#59,.T.);
#61=CARTESIAN_POINT('',(-0.5,-0.2,-0.3));
#62=LINE('',#55,#VECTOR('',#10,1.0));
#63=VERTEX_POINT('',#61);
#64=EDGE_CURVE('',#58,#63,#62,.T.);
#65=ORIENTED_EDGE('',*,*,#64,.T.);
#66=CARTESIAN_POINT('',(-0.5,-0.3,-0.2));
#67=LINE('',#61,#VECTOR('',#3,1.0));
#68=VERTEX_POINT('',#66);
#69=EDGE_CURVE('',#63,#68,#67,.T.);
#70=ORIENTED_EDGE('',*,*,#69,.T.);
#71=CARTESIAN_POINT('',(-0.5,-0.3,0.2));
#72=DIRECTION('',(0.0,0.0,1.0));
#73=LINE('',#66,#VECTOR('',#72,1.0));
#74=VERTEX_POINT('',#71);
#75=EDGE_CURVE('',#68,#74,#73,.T.);
#76=ORIENTED_EDGE('',*,*,#75,.T.);
#77=CARTESIAN_POINT('',(-0.5,-0.2,0.3));
#78=LINE('',#71,#VECTOR('',#40,1.0));
#79=VERTEX_POINT('',#77);
#80=EDGE_CURVE('',#74,#79,#78,.T.);
#81=ORIENTED_EDGE('',*,*,#80,.T.);
#82=CARTESIAN_POINT('',(-0.5,0.2,0.3));
#83=LINE('',#77,#VECTOR('',#34,1.0));
#84=VERTEX_POINT('',#82);
#85=EDGE_CURVE('',#79,#84,#83,.T.);
#86=ORIENTED_EDGE('',*,*,#85,.T.);
#87=CARTESIAN_POINT('',(-0.5,0.3,0.2));
#88=LINE('',#82,#VECTOR('',#28,1.0));
#89=VERTEX_POINT('',#87);
#90=EDGE_CURVE('',#84,#89,#88,.T.);
#91=ORIENTED_EDGE('',*,*,#90,.T.);
#92=LINE('',#54,#VECTOR('',#72,1.0));
#93=EDGE_CURVE('',#57,#89,#92,.T.);
#94=ORIENTED_EDGE('',*,*,#93,.F.);
#95=EDGE_LOOP('',(#60,#65,#70,#76,#81,#86,#91,#94));
#96=FACE_OUTER_BOUND('',#95,.T.);
#97=DIRECTION('',(-1.0,0.0,0.0));
#98=AXIS2_PLACEMENT_3D('',#54,#97,#34);
#99=PLANE('',#98);
#100=ADVANCED_FACE('Left_Face',(#96),#99,.T.);
#101=CARTESIAN_POINT('',(0.3,0.5,-0.2));
#102=CARTESIAN_POINT('',(0.2,0.5,-0.3));
#103=DIRECTION('',(-0.707107,0.0,-0.707107));
#104=LINE('',#101,#VECTOR('',#103,1.0));
#105=VERTEX_POINT('',#101);
#106=VERTEX_POINT('',#102);
#107=EDGE_CURVE('',#105,#106,#104,.T.);
#108=ORIENTED_EDGE('',*,*,#107,.T.);
#109=CARTESIAN_POINT('',(-0.2,0.5,-0.3));
#110=LINE('',#102,#VECTOR('',#97,1.0));
#111=VERTEX_POINT('',#109);
#112=EDGE_CURVE('',#106,#111,#110,.T.);
#113=ORIENTED_EDGE('',*,*,#112,.T.);
#114=CARTESIAN_POINT('',(-0.3,0.5,-0.2));
#115=DIRECTION('',(-0.707107,0.0,0.707107));
#116=LINE('',#109,#VECTOR('',#115,1.0));
#117=VERTEX_POINT('',#114);
#118=EDGE_CURVE('',#111,#117,#116,.T.);
#119=ORIENTED_EDGE('',*,*,#118,.T.);
#120=CARTESIAN_POINT('',(-0.3,0.5,0.2));
#121=LINE('',#114,#VECTOR('',#72,1.0));
#122=VERTEX_POINT('',#120);
#123=EDGE_CURVE('',#117,#122,#121,.T.);
#124=ORIENTED_EDGE('',*,*,#123,.T.);
#125=CARTESIAN_POINT('',(-0.2,0.5,0.3));
#126=DIRECTION('',(0.707107,0.0,0.707107));
#127=LINE('',#120,#VECTOR('',#126,1.0));
#128=VERTEX_POINT('',#125);
#129=EDGE_CURVE('',#122,#128,#127,.T.);
#130=ORIENTED_EDGE('',*,*,#129,.T.);
#131=CARTESIAN_POINT('',(0.2,0.5,0.3));
#132=LINE('',#125,#VECTOR('',#50,1.0));
#133=VERTEX_POINT('',#131);
#134=EDGE_CURVE('',#128,#133,#132,.T.);
#135=ORIENTED_EDGE('',*,*,#134,.T.);
#136=CARTESIAN_POINT('',(0.3,0.5,0.2));
#137=DIRECTION('',(0.707107,0.0,-0.707107));
#138=LINE('',#131,#VECTOR('',#137,1.0));
#139=VERTEX_POINT('',#136);
#140=EDGE_CURVE('',#133,#139,#138,.T.);
#141=ORIENTED_EDGE('',*,*,#140,.T.);
#142=LINE('',#101,#VECTOR('',#72,1.0));
#143=EDGE_CURVE('',#105,#139,#142,.T.);
#144=ORIENTED_EDGE('',*,*,#143,.F.);
#145=EDGE_LOOP('',(#108,#113,#119,#124,#130,#135,#141,#144));
#146=FACE_OUTER_BOUND('',#145,.T.);
#147=AXIS2_PLACEMENT_3D('',#101,#34,#50);
#148=PLANE('',#147);
#149=ADVANCED_FACE('Front_Face',(#146),#148,.T.);
#150=CARTESIAN_POINT('',(0.3,-0.5,0.2));
#151=CARTESIAN_POINT('',(0.2,-0.5,0.3));
#152=LINE('',#150,#VECTOR('',#115,1.0));
#153=VERTEX_POINT('',#150);
#154=VERTEX_POINT('',#151);
#155=EDGE_CURVE('',#153,#154,#152,.T.);
#156=ORIENTED_EDGE('',*,*,#155,.T.);
#157=CARTESIAN_POINT('',(-0.2,-0.5,0.3));
#158=LINE('',#151,#VECTOR('',#97,1.0));
#159=VERTEX_POINT('',#157);
#160=EDGE_CURVE('',#154,#159,#158,.T.);
#161=ORIENTED_EDGE('',*,*,#160,.T.);
#162=CARTESIAN_POINT('',(-0.3,-0.5,0.2));
#163=LINE('',#157,#VECTOR('',#103,1.0));
#164=VERTEX_POINT('',#162);
#165=EDGE_CURVE('',#159,#164,#163,.T.);
#166=ORIENTED_EDGE('',*,*,#165,.T.);
#167=CARTESIAN_POINT('',(-0.3,-0.5,-0.2));
#168=LINE('',#162,#VECTOR('',#22,1.0));
#169=VERTEX_POINT('',#167);
#170=EDGE_CURVE('',#164,#169,#168,.T.);
#171=ORIENTED_EDGE('',*,*,#170,.T.);
#172=CARTESIAN_POINT('',(-0.2,-0.5,-0.3));
#173=LINE('',#167,#VECTOR('',#137,1.0));
#174=VERTEX_POINT('',#172);
#175=EDGE_CURVE('',#169,#174,#173,.T.);
#176=ORIENTED_EDGE('',*,*,#175,.T.);
#177=CARTESIAN_POINT('',(0.2,-0.5,-0.3));
#178=LINE('',#172,#VECTOR('',#50,1.0));
#179=VERTEX_POINT('',#177);
#180=EDGE_CURVE('',#174,#179,#178,.T.);
#181=ORIENTED_EDGE('',*,*,#180,.T.);
#182=CARTESIAN_POINT('',(0.3,-0.5,-0.2));
#183=LINE('',#177,#VECTOR('',#126,1.0));
#184=VERTEX_POINT('',#182);
#185=EDGE_CURVE('',#179,#184,#183,.T.);
#186=ORIENTED_EDGE('',*,*,#185,.T.);
#187=LINE('',#150,#VECTOR('',#22,1.0));
#188=EDGE_CURVE('',#153,#184,#187,.T.);
#189=ORIENTED_EDGE('',*,*,#188,.F.);
#190=EDGE_LOOP('',(#156,#161,#166,#171,#176,#181,#186,#189));
#191=FACE_OUTER_BOUND('',#190,.T.);
#192=AXIS2_PLACEMENT_3D('',#150,#10,#97);
#193=PLANE('',#192);
#194=ADVANCED_FACE('Back_Face',(#191),#193,.T.);
#195=CARTESIAN_POINT('',(0.3,0.2,0.5));
#196=CARTESIAN_POINT('',(0.2,0.3,0.5));
#197=DIRECTION('',(-0.707107,0.707107,0.0));
#198=LINE('',#195,#VECTOR('',#197,1.0));
#199=VERTEX_POINT('',#195);
#200=VERTEX_POINT('',#196);
#201=EDGE_CURVE('',#199,#200,#198,.T.);
#202=ORIENTED_EDGE('',*,*,#201,.T.);
#203=CARTESIAN_POINT('',(-0.2,0.3,0.5));
#204=LINE('',#196,#VECTOR('',#97,1.0));
#205=VERTEX_POINT('',#203);
#206=EDGE_CURVE('',#200,#205,#204,.T.);
#207=ORIENTED_EDGE('',*,*,#206,.T.);
#208=CARTESIAN_POINT('',(-0.3,0.2,0.5));
#209=DIRECTION('',(-0.707107,-0.707107,0.0));
#210=LINE('',#203,#VECTOR('',#209,1.0));
#211=VERTEX_POINT('',#208);
#212=EDGE_CURVE('',#205,#211,#210,.T.);
#213=ORIENTED_EDGE('',*,*,#212,.T.);
#214=CARTESIAN_POINT('',(-0.3,-0.2,0.5));
#215=LINE('',#208,#VECTOR('',#10,1.0));
#216=VERTEX_POINT('',#214);
#217=EDGE_CURVE('',#211,#216,#215,.T.);
#218=ORIENTED_EDGE('',*,*,#217,.T.);
#219=CARTESIAN_POINT('',(-0.2,-0.3,0.5));
#220=DIRECTION('',(0.707107,-0.707107,0.0));
#221=LINE('',#214,#VECTOR('',#220,1.0));
#222=VERTEX_POINT('',#219);
#223=EDGE_CURVE('',#216,#222,#221,.T.);
#224=ORIENTED_EDGE('',*,*,#223,.T.);
#225=CARTESIAN_POINT('',(0.2,-0.3,0.5));
#226=LINE('',#219,#VECTOR('',#50,1.0));
#227=VERTEX_POINT('',#225);
#228=EDGE_CURVE('',#222,#227,#226,.T.);
#229=ORIENTED_EDGE('',*,*,#228,.T.);
#230=CARTESIAN_POINT('',(0.3,-0.2,0.5));
#231=DIRECTION('',(0.707107,0.707107,0.0));
#232=LINE('',#225,#VECTOR('',#231,1.0));
#233=VERTEX_POINT('',#230);
#234=EDGE_CURVE('',#227,#233,#232,.T.);
#235=ORIENTED_EDGE('',*,*,#234,.T.);
#236=LINE('',#195,#VECTOR('',#10,1.0));
#237=EDGE_CURVE('',#199,#233,#236,.T.);
#238=ORIENTED_EDGE('',*,*,#237,.F.);
#239=EDGE_LOOP('',(#202,#207,#213,#218,#224,#229,#235,#238));
#240=FACE_OUTER_BOUND('',#239,.T.);
#241=AXIS2_PLACEMENT_3D('',#195,#72,#50);
#242=PLANE('',#241);
#243=ADVANCED_FACE('Top_Face',(#240),#242,.T.);
#244=CARTESIAN_POINT('',(0.3,-0.2,-0.5));
#245=CARTESIAN_POINT('',(0.2,-0.3,-0.5));
#246=LINE('',#244,#VECTOR('',#209,1.0));
#247=VERTEX_POINT('',#244);
#248=VERTEX_POINT('',#245);
#249=EDGE_CURVE('',#247,#248,#246,.T.);
#250=ORIENTED_EDGE('',*,*,#249,.T.);
#251=CARTESIAN_POINT('',(-0.2,-0.3,-0.5));
#252=LINE('',#245,#VECTOR('',#97,1.0));
#253=VERTEX_POINT('',#251);
#254=EDGE_CURVE('',#248,#253,#252,.T.);
#255=ORIENTED_EDGE('',*,*,#254,.T.);
#256=CARTESIAN_POINT('',(-0.3,-0.2,-0.5));
#257=LINE('',#251,#VECTOR('',#197,1.0));
#258=VERTEX_POINT('',#256);
#259=EDGE_CURVE('',#253,#258,#257,.T.);
#260=ORIENTED_EDGE('',*,*,#259,.T.);
#261=CARTESIAN_POINT('',(-0.3,0.2,-0.5));
#262=LINE('',#256,#VECTOR('',#34,1.0));
#263=VERTEX_POINT('',#261);
#264=EDGE_CURVE('',#258,#263,#262,.T.);
#265=ORIENTED_EDGE('',*,*,#264,.T.);
#266=CARTESIAN_POINT('',(-0.2,0.3,-0.5));
#267=LINE('',#261,#VECTOR('',#231,1.0));
#268=VERTEX_POINT('',#266);
#269=EDGE_CURVE('',#263,#268,#267,.T.);
#270=ORIENTED_EDGE('',*,*,#269,.T.);
#271=CARTESIAN_POINT('',(0.2,0.3,-0.5));
#272=LINE('',#266,#VECTOR('',#50,1.0));
#273=VERTEX_POINT('',#271);
#274=EDGE_CURVE('',#268,#273,#272,.T.);
#275=ORIENTED_EDGE('',*,*,#274,.T.);
#276=CARTESIAN_POINT('',(0.3,0.2,-0.5));
#277=LINE('',#271,#VECTOR('',#220,1.0));
#278=VERTEX_POINT('',#276);
#279=EDGE_CURVE('',#273,#278,#277,.T.);
#280=ORIENTED_EDGE('',*,*,#279,.T.);
#281=LINE('',#244,#VECTOR('',#34,1.0));
#282=EDGE_CURVE('',#247,#278,#281,.T.);
#283=ORIENTED_EDGE('',*,*,#282,.F.);
#284=EDGE_LOOP('',(#250,#255,#260,#265,#270,#275,#280,#283));
#285=FACE_OUTER_BOUND('',#284,.T.);
#286=AXIS2_PLACEMENT_3D('',#244,#22,#50);
#287=PLANE('',#286);
#288=ADVANCED_FACE('Bottom_Face',(#285),#287,.T.);
#289=LINE('',#39,#VECTOR('',#197,1.0));
#290=EDGE_CURVE('',#42,#105,#289,.T.);
#291=ORIENTED_EDGE('',*,*,#290,.T.);
#292=ORIENTED_EDGE('',*,*,#143,.T.);
#293=LINE('',#1,#VECTOR('',#197,1.0));
#294=EDGE_CURVE('',#5,#139,#293,.T.);
#295=ORIENTED_EDGE('',*,*,#294,.F.);
#296=ORIENTED_EDGE('',*,*,#46,.T.);
#297=EDGE_LOOP('',(#291,#292,#295,#296));
#298=FACE_OUTER_BOUND('',#297,.T.);
#299=AXIS2_PLACEMENT_3D('',#39,#231,#220);
#300=PLANE('',#299);
#301=ADVANCED_FACE('Right_Front_Edge',(#298),#300,.T.);
#302=LINE('',#15,#VECTOR('',#209,1.0));
#303=EDGE_CURVE('',#18,#153,#302,.T.);
#304=ORIENTED_EDGE('',*,*,#303,.T.);
#305=ORIENTED_EDGE('',*,*,#188,.T.);
#306=LINE('',#21,#VECTOR('',#209,1.0));
#307=EDGE_CURVE('',#24,#184,#306,.T.);
#308=ORIENTED_EDGE('',*,*,#307,.F.);
#309=ORIENTED_EDGE('',*,*,#25,.F.);
#310=EDGE_LOOP('',(#304,#305,#308,#309));
#311=FACE_OUTER_BOUND('',#310,.T.);
#312=AXIS2_PLACEMENT_3D('',#15,#220,#209);
#313=PLANE('',#312);
#314=ADVANCED_FACE('Right_Back_Edge',(#311),#313,.T.);
#315=LINE('',#2,#VECTOR('',#115,1.0));
#316=EDGE_CURVE('',#6,#199,#315,.T.);
#317=ORIENTED_EDGE('',*,*,#316,.T.);
#318=ORIENTED_EDGE('',*,*,#237,.T.);
#319=LINE('',#9,#VECTOR('',#115,1.0));
#320=EDGE_CURVE('',#12,#233,#319,.T.);
#321=ORIENTED_EDGE('',*,*,#320,.F.);
#322=ORIENTED_EDGE('',*,*,#13,.F.);
#323=EDGE_LOOP('',(#317,#318,#321,#322));
#324=FACE_OUTER_BOUND('',#323,.T.);
#325=AXIS2_PLACEMENT_3D('',#2,#126,#10);
#326=PLANE('',#325);
#327=ADVANCED_FACE('Right_Top_Edge',(#324),#326,.T.);
#328=LINE('',#27,#VECTOR('',#103,1.0));
#329=EDGE_CURVE('',#30,#247,#328,.T.);
#330=ORIENTED_EDGE('',*,*,#329,.T.);
#331=ORIENTED_EDGE('',*,*,#282,.T.);
#332=LINE('',#33,#VECTOR('',#103,1.0));
#333=EDGE_CURVE('',#36,#278,#332,.T.);
#334=ORIENTED_EDGE('',*,*,#333,.F.);
#335=ORIENTED_EDGE('',*,*,#37,.F.);
#336=EDGE_LOOP('',(#330,#331,#334,#335));
#337=FACE_OUTER_BOUND('',#336,.T.);
#338=AXIS2_PLACEMENT_3D('',#27,#137,#10);
#339=PLANE('',#338);
#340=ADVANCED_FACE('Right_Bottom_Edge',(#337),#339,.T.);
#341=LINE('',#87,#VECTOR('',#231,1.0));
#342=EDGE_CURVE('',#89,#122,#341,.T.);
#343=ORIENTED_EDGE('',*,*,#342,.T.);
#344=ORIENTED_EDGE('',*,*,#123,.F.);
#345=LINE('',#54,#VECTOR('',#231,1.0));
#346=EDGE_CURVE('',#57,#117,#345,.T.);
#347=ORIENTED_EDGE('',*,*,#346,.F.);
#348=ORIENTED_EDGE('',*,*,#93,.T.);
#349=EDGE_LOOP('',(#343,#344,#347,#348));
#350=FACE_OUTER_BOUND('',#349,.T.);
#351=AXIS2_PLACEMENT_3D('',#87,#197,#231);
#352=PLANE('',#351);
#353=ADVANCED_FACE('Left_Front_Edge',(#350),#352,.T.);
#354=LINE('',#66,#VECTOR('',#220,1.0));
#355=EDGE_CURVE('',#68,#169,#354,.T.);
#356=ORIENTED_EDGE('',*,*,#355,.T.);
#357=ORIENTED_EDGE('',*,*,#170,.F.);
#358=LINE('',#71,#VECTOR('',#220,1.0));
#359=EDGE_CURVE('',#74,#164,#358,.T.);
#360=ORIENTED_EDGE('',*,*,#359,.F.);
#361=ORIENTED_EDGE('',*,*,#75,.F.);
#362=EDGE_LOOP('',(#356,#357,#360,#361));
#363=FACE_OUTER_BOUND('',#362,.T.);
#364=AXIS2_PLACEMENT_3D('',#66,#209,#197);
#365=PLANE('',#364);
#366=ADVANCED_FACE('Left_Back_Edge',(#363),#365,.T.);
#367=LINE('',#77,#VECTOR('',#126,1.0));
#368=EDGE_CURVE('',#79,#216,#367,.T.);
#369=ORIENTED_EDGE('',*,*,#368,.T.);
#370=ORIENTED_EDGE('',*,*,#217,.F.);
#371=LINE('',#82,#VECTOR('',#126,1.0));
#372=EDGE_CURVE('',#84,#211,#371,.T.);
#373=ORIENTED_EDGE('',*,*,#372,.F.);
#374=ORIENTED_EDGE('',*,*,#85,.F.);
#375=EDGE_LOOP('',(#369,#370,#373,#374));
#376=FACE_OUTER_BOUND('',#375,.T.);
#377=AXIS2_PLACEMENT_3D('',#77,#115,#34);
#378=PLANE('',#377);
#379=ADVANCED_FACE('Left_Top_Edge',(#376),#378,.T.);
#380=LINE('',#55,#VECTOR('',#137,1.0));
#381=EDGE_CURVE('',#58,#263,#380,.T.);
#382=ORIENTED_EDGE('',*,*,#381,.T.);
#383=ORIENTED_EDGE('',*,*,#264,.F.);
#384=LINE('',#61,#VECTOR('',#137,1.0));
#385=EDGE_CURVE('',#63,#258,#384,.T.);
#386=ORIENTED_EDGE('',*,*,#385,.F.);
#387=ORIENTED_EDGE('',*,*,#64,.F.);
#388=EDGE_LOOP('',(#382,#383,#386,#387));
#389=FACE_OUTER_BOUND('',#388,.T.);
#390=AXIS2_PLACEMENT_3D('',#55,#103,#34);
#391=PLANE('',#390);
#392=ADVANCED_FACE('Left_Bottom_Edge',(#389),#391,.T.);
#393=LINE('',#125,#VECTOR('',#3,1.0));
#394=EDGE_CURVE('',#128,#205,#393,.T.);
#395=ORIENTED_EDGE('',*,*,#394,.T.);
#396=ORIENTED_EDGE('',*,*,#206,.F.);
#397=LINE('',#131,#VECTOR('',#3,1.0));
#398=EDGE_CURVE('',#133,#200,#397,.T.);
#399=ORIENTED_EDGE('',*,*,#398,.F.);
#400=ORIENTED_EDGE('',*,*,#134,.F.);
#401=EDGE_LOOP('',(#395,#396,#399,#400));
#402=FACE_OUTER_BOUND('',#401,.T.);
#403=AXIS2_PLACEMENT_3D('',#125,#40,#50);
#404=PLANE('',#403);
#405=ADVANCED_FACE('Front_Top_Edge',(#402),#404,.T.);
#406=LINE('',#102,#VECTOR('',#16,1.0));
#407=EDGE_CURVE('',#106,#273,#406,.T.);
#408=ORIENTED_EDGE('',*,*,#407,.T.);
#409=ORIENTED_EDGE('',*,*,#274,.F.);
#410=LINE('',#109,#VECTOR('',#16,1.0));
#411=EDGE_CURVE('',#111,#268,#410,.T.);
#412=ORIENTED_EDGE('',*,*,#411,.F.);
#413=ORIENTED_EDGE('',*,*,#112,.F.);
#414=EDGE_LOOP('',(#408,#409,#412,#413));
#415=FACE_OUTER_BOUND('',#414,.T.);
#416=AXIS2_PLACEMENT_3D('',#102,#28,#50);
#417=PLANE('',#416);
#418=ADVANCED_FACE('Front_Bottom_Edge',(#415),#417,.T.);
#419=LINE('',#151,#VECTOR('',#40,1.0));
#420=EDGE_CURVE('',#154,#227,#419,.T.);
#421=ORIENTED_EDGE('',*,*,#420,.T.);
#422=ORIENTED_EDGE('',*,*,#228,.F.);
#423=LINE('',#157,#VECTOR('',#40,1.0));
#424=EDGE_CURVE('',#159,#222,#423,.T.);
#425=ORIENTED_EDGE('',*,*,#424,.F.);
#426=ORIENTED_EDGE('',*,*,#160,.F.);
#427=EDGE_LOOP('',(#421,#422,#425,#426));
#428=FACE_OUTER_BOUND('',#427,.T.);
#429=AXIS2_PLACEMENT_3D('',#151,#3,#97);
#430=PLANE('',#429);
#431=ADVANCED_FACE('Back_Top_Edge',(#428),#430,.T.);
#432=LINE('',#172,#VECTOR('',#28,1.0));
#433=EDGE_CURVE('',#174,#253,#432,.T.);
#434=ORIENTED_EDGE('',*,*,#433,.T.);
#435=ORIENTED_EDGE('',*,*,#254,.F.);
#436=LINE('',#177,#VECTOR('',#28,1.0));
#437=EDGE_CURVE('',#179,#248,#436,.T.);
#438=ORIENTED_EDGE('',*,*,#437,.F.);
#439=ORIENTED_EDGE('',*,*,#180,.F.);
#440=EDGE_LOOP('',(#434,#435,#438,#439));
#441=FACE_OUTER_BOUND('',#440,.T.);
#442=AXIS2_PLACEMENT_3D('',#172,#16,#97);
#443=PLANE('',#442);
#444=ADVANCED_FACE('Back_Bottom_Edge',(#441),#443,.T.);
#445=ORIENTED_EDGE('',*,*,#294,.T.);
#446=ORIENTED_EDGE('',*,*,#140,.F.);
#447=ORIENTED_EDGE('',*,*,#398,.T.);
#448=ORIENTED_EDGE('',*,*,#201,.F.);
#449=ORIENTED_EDGE('',*,*,#316,.F.);
#450=ORIENTED_EDGE('',*,*,#7,.F.);
#451=EDGE_LOOP('',(#445,#446,#447,#448,#449,#450));
#452=FACE_OUTER_BOUND('',#451,.T.);
#453=DIRECTION('',(0.57735,0.57735,0.57735));
#454=AXIS2_PLACEMENT_3D('',#1,#453,#220);
#455=PLANE('',#454);
#456=ADVANCED_FACE('TopFrontRight_Corner',(#452),#455,.T.);
#457=ORIENTED_EDGE('',*,*,#333,.T.);
#458=ORIENTED_EDGE('',*,*,#279,.F.);
#459=ORIENTED_EDGE('',*,*,#407,.F.);
#460=ORIENTED_EDGE('',*,*,#107,.F.);
#461=ORIENTED_EDGE('',*,*,#290,.F.);
#462=ORIENTED_EDGE('',*,*,#43,.F.);
#463=EDGE_LOOP('',(#457,#458,#459,#460,#461,#462));
#464=FACE_OUTER_BOUND('',#463,.T.);
#465=DIRECTION('',(0.57735,0.57735,-0.57735));
#466=AXIS2_PLACEMENT_3D('',#33,#465,#220);
#467=PLANE('',#466);
#468=ADVANCED_FACE('BottomFrontRight_Corner',(#464),#467,.T.);
#469=ORIENTED_EDGE('',*,*,#320,.T.);
#470=ORIENTED_EDGE('',*,*,#234,.F.);
#471=ORIENTED_EDGE('',*,*,#420,.F.);
#472=ORIENTED_EDGE('',*,*,#155,.F.);
#473=ORIENTED_EDGE('',*,*,#303,.F.);
#474=ORIENTED_EDGE('',*,*,#19,.F.);
#475=EDGE_LOOP('',(#469,#470,#471,#472,#473,#474));
#476=FACE_OUTER_BOUND('',#475,.T.);
#477=DIRECTION('',(0.57735,-0.57735,0.57735));
#478=AXIS2_PLACEMENT_3D('',#9,#477,#209);
#479=PLANE('',#478);
#480=ADVANCED_FACE('TopBackRight_Corner',(#476),#479,.T.);
#481=ORIENTED_EDGE('',*,*,#307,.T.);
#482=ORIENTED_EDGE('',*,*,#185,.F.);
#483=ORIENTED_EDGE('',*,*,#437,.T.);
#484=ORIENTED_EDGE('',*,*,#249,.F.);
#485=ORIENTED_EDGE('',*,*,#329,.F.);
#486=ORIENTED_EDGE('',*,*,#31,.F.);
#487=EDGE_LOOP('',(#481,#482,#483,#484,#485,#486));
#488=FACE_OUTER_BOUND('',#487,.T.);
#489=DIRECTION('',(0.57735,-0.57735,-0.57735));
#490=AXIS2_PLACEMENT_3D('',#21,#489,#209);
#491=PLANE('',#490);
#492=ADVANCED_FACE('BottomBackRight_Corner',(#488),#491,.T.);
#493=ORIENTED_EDGE('',*,*,#372,.T.);
#494=ORIENTED_EDGE('',*,*,#212,.F.);
#495=ORIENTED_EDGE('',*,*,#394,.F.);
#496=ORIENTED_EDGE('',*,*,#129,.F.);
#497=ORIENTED_EDGE('',*,*,#342,.F.);
#498=ORIENTED_EDGE('',*,*,#90,.F.);
#499=EDGE_LOOP('',(#493,#494,#495,#496,#497,#498));
#500=FACE_OUTER_BOUND('',#499,.T.);
#501=DIRECTION('',(-0.57735,0.57735,0.57735));
#502=AXIS2_PLACEMENT_3D('',#82,#501,#231);
#503=PLANE('',#502);
#504=ADVANCED_FACE('TopFrontLeft_Corner',(#500),#503,.T.);
#505=ORIENTED_EDGE('',*,*,#346,.T.);
#506=ORIENTED_EDGE('',*,*,#118,.F.);
#507=ORIENTED_EDGE('',*,*,#411,.T.);
#508=ORIENTED_EDGE('',*,*,#269,.F.);
#509=ORIENTED_EDGE('',*,*,#381,.F.);
#510=ORIENTED_EDGE('',*,*,#59,.F.);
#511=EDGE_LOOP('',(#505,#506,#507,#508,#509,#510));
#512=FACE_OUTER_BOUND('',#511,.T.);
#513=DIRECTION('',(-0.57735,0.57735,-0.57735));
#514=AXIS2_PLACEMENT_3D('',#54,#513,#231);
#515=PLANE('',#514);
#516=ADVANCED_FACE('BottomFrontLeft_Corner',(#512),#515,.T.);
#517=ORIENTED_EDGE('',*,*,#359,.T.);
#518=ORIENTED_EDGE('',*,*,#165,.F.);
#519=ORIENTED_EDGE('',*,*,#424,.T.);
#520=ORIENTED_EDGE('',*,*,#223,.F.);
#521=ORIENTED_EDGE('',*,*,#368,.F.);
#522=ORIENTED_EDGE('',*,*,#80,.F.);
#523=EDGE_LOOP('',(#517,#518,#519,#520,#521,#522));
#524=FACE_OUTER_BOUND('',#523,.T.);
#525=DIRECTION('',(-0.57735,-0.57735,0.57735));
#526=AXIS2_PLACEMENT_3D('',#71,#525,#197);
#527=PLANE('',#526);
#528=ADVANCED_FACE('TopBackLeft_Corner',(#524),#527,.T.);
#529=ORIENTED_EDGE('',*,*,#385,.T.);
#530=ORIENTED_EDGE('',*,*,#259,.F.);
#531=ORIENTED_EDGE('',*,*,#433,.F.);
#532=ORIENTED_EDGE('',*,*,#175,.F.);
#533=ORIENTED_EDGE('',*,*,#355,.F.);
#534=ORIENTED_EDGE('',*,*,#69,.F.);
#535=EDGE_LOOP('',(#529,#530,#531,#532,#533,#534));
#536=FACE_OUTER_BOUND('',#535,.T.);
#537=DIRECTION('',(-0.57735,-0.57735,-0.57735));
#538=AXIS2_PLACEMENT_3D('',#61,#537,#197);
#539=PLANE('',#538);
#540=ADVANCED_FACE('BottomBackLeft_Corner',(#536),#539,.T.);
#541=CLOSED_SHELL('',(#53,#100,#149,#194,#243,#288,#301,#314,#327,#340,#353,#366,#379,#392,#405,#418,#431,#444,#456,#468,#480,#492,#504,#516,#528,#540));
#542=MANIFOLD_SOLID_BREP('navicube',#541);
#543=CARTESIAN_POINT('',(0.0,0.0,0.0));
#544=AXIS2_PLACEMENT_3D('',#543,#72,#50);
#545=DIMENSIONAL_EXPONENTS(1.0,0.0,0.0,0.0,0.0,0.0,0.0);
#546=DIMENSIONAL_EXPONENTS(0.0,0.0,0.0,0.0,0.0,0.0,0.0);
#547=( LENGTH_UNIT() NAMED_UNIT(#545) SI_UNIT(.MILLI.,.METRE.) );
#548=( NAMED_UNIT(#546) PLANE_ANGLE_UNIT() SI_UNIT($,.RADIAN.) );
#549=( NAMED_UNIT(#546) SOLID_ANGLE_UNIT() SI_UNIT($,.STERADIAN.) );
#550=UNCERTAINTY_MEASURE_WITH_UNIT(LENGTH_MEASURE(1.0E-6),#547,'distance_accuracy_value','none');
#551=( GEOMETRIC_REPRESENTATION_CONTEXT(3) GLOBAL_UNCERTAINTY_ASSIGNED_CONTEXT((#550)) GLOBAL_UNIT_ASSIGNED_CONTEXT((#547,#548,#549)) REPRESENTATION_CONTEXT('none','none') );
#552=ADVANCED_BREP_SHAPE_REPRESENTATION('',(#544,#542),#551);
#553=APPLICATION_CONTEXT('core data for automotive mechanical design processes');
#554=APPLICATION_PROTOCOL_DEFINITION('international standard','automotive_design',2000,#553);
#555=PRODUCT_CONTEXT('',#553,'mechanical');
#556=PRODUCT('navicube','navicube','',(#555));
#557=PRODUCT_DEFINITION_FORMATION('','',#556);
#558=PRODUCT_DEFINITION_CONTEXT('part definition',#553,'design');
#559=PRODUCT_DEFINITION('design','',#557,#558);
#560=PRODUCT_DEFINITION_SHAPE('','',#559);
#561=SHAPE_DEFINITION_REPRESENTATION(#560,#552);
ENDSEC;
END-ISO-10303-21;
