# Navigation Cube FreeCAD-0.21 style | watertight | 26 pick zones
v 0.500000 0.300000 0.200000
v 0.500000 0.200000 0.300000
v 0.500000 -0.200000 0.300000
v 0.500000 -0.300000 0.200000
v 0.500000 -0.300000 -0.200000
v 0.500000 -0.200000 -0.300000
v 0.500000 0.200000 -0.300000
v 0.500000 0.300000 -0.200000
v -0.500000 0.300000 -0.200000
v -0.500000 0.200000 -0.300000
v -0.500000 -0.200000 -0.300000
v -0.500000 -0.300000 -0.200000
v -0.500000 -0.300000 0.200000
v -0.500000 -0.200000 0.300000
v -0.500000 0.200000 0.300000
v -0.500000 0.300000 0.200000
v 0.300000 0.500000 -0.200000
v 0.200000 0.500000 -0.300000
v -0.200000 0.500000 -0.300000
v -0.300000 0.500000 -0.200000
v -0.300000 0.500000 0.200000
v -0.200000 0.500000 0.300000
v 0.200000 0.500000 0.300000
v 0.300000 0.500000 0.200000
v 0.300000 -0.500000 0.200000
v 0.200000 -0.500000 0.300000
v -0.200000 -0.500000 0.300000
v -0.300000 -0.500000 0.200000
v -0.300000 -0.500000 -0.200000
v -0.200000 -0.500000 -0.300000
v 0.200000 -0.500000 -0.300000
v 0.300000 -0.500000 -0.200000
v 0.300000 0.200000 0.500000
v 0.200000 0.300000 0.500000
v -0.200000 0.300000 0.500000
v -0.300000 0.200000 0.500000
v -0.300000 -0.200000 0.500000
v -0.200000 -0.300000 0.500000
v 0.200000 -0.300000 0.500000
v 0.300000 -0.200000 0.500000
v 0.300000 -0.200000 -0.500000
v 0.200000 -0.300000 -0.500000
v -0.200000 -0.300000 -0.500000
v -0.300000 -0.200000 -0.500000
v -0.300000 0.200000 -0.500000
v -0.200000 0.300000 -0.500000
v 0.200000 0.300000 -0.500000
v 0.300000 0.200000 -0.500000
vn 1.000000 0.000000 0.000000
vn -1.000000 0.000000 0.000000
vn 0.000000 1.000000 0.000000
vn 0.000000 -1.000000 0.000000
vn 0.000000 0.000000 1.000000
vn 0.000000 0.000000 -1.000000
vn 0.707107 0.707107 0.000000
vn 0.707107 -0.707107 0.000000
vn 0.707107 0.000000 0.707107
vn 0.707107 0.000000 -0.707107
vn -0.707107 0.707107 0.000000
vn -0.707107 -0.707107 0.000000
vn -0.707107 0.000000 0.707107
vn -0.707107 0.000000 -0.707107
vn 0.000000 0.707107 0.707107
vn 0.000000 0.707107 -0.707107
vn 0.000000 -0.707107 0.707107
vn 0.000000 -0.707107 -0.707107
vn 0.577350 0.577350 0.577350
vn 0.577350 0.577350 -0.577350
vn 0.577350 -0.577350 0.577350
vn 0.577350 -0.577350 -0.577350
vn -0.577350 0.577350 0.577350
vn -0.577350 0.577350 -0.577350
vn -0.577350 -0.577350 0.577350
vn -0.577350 -0.577350 -0.577350
o Right_Face
usemtl Face_Material
f 1//1 2//1 3//1
f 1//1 3//1 4//1
f 1//1 4//1 5//1
f 1//1 5//1 6//1
f 1//1 6//1 7//1
f 1//1 7//1 8//1
o Left_Face
usemtl Face_Material
f 9//2 10//2 11//2
f 9//2 11//2 12//2
f 9//2 12//2 13//2
f 9//2 13//2 14//2
f 9//2 14//2 15//2
f 9//2 15//2 16//2
o Front_Face
usemtl Face_Material
f 17//3 18//3 19//3
f 17//3 19//3 20//3
f 17//3 20//3 21//3
f 17//3 21//3 22//3
f 17//3 22//3 23//3
f 17//3 23//3 24//3
o Back_Face
usemtl Face_Material
f 25//4 26//4 27//4
f 25//4 27//4 28//4
f 25//4 28//4 29//4
f 25//4 29//4 30//4
f 25//4 30//4 31//4
f 25//4 31//4 32//4
o Top_Face
usemtl Face_Material
f 33//5 34//5 35//5
f 33//5 35//5 36//5
f 33//5 36//5 37//5
f 33//5 37//5 38//5
f 33//5 38//5 39//5
f 33//5 39//5 40//5
o Bottom_Face
usemtl Face_Material
f 41//6 42//6 43//6
f 41//6 43//6 44//6
f 41//6 44//6 45//6
f 41//6 45//6 46//6
f 41//6 46//6 47//6
f 41//6 47//6 48//6
o Right_Front_Edge
usemtl Edge_Material
f 8//7 17//7 24//7
f 8//7 24//7 1//7
o Right_Back_Edge
usemtl Edge_Material
f 4//8 25//8 32//8
f 4//8 32//8 5//8
o Right_Top_Edge
usemtl Edge_Material
f 2//9 33//9 40//9
f 2//9 40//9 3//9
o Right_Bottom_Edge
usemtl Edge_Material
f 6//10 41//10 48//10
f 6//10 48//10 7//10
o Left_Front_Edge
usemtl Edge_Material
f 16//11 21//11 20//11
f 16//11 20//11 9//11
o Left_Back_Edge
usemtl Edge_Material
f 12//12 29//12 28//12
f 12//12 28//12 13//12
o Left_Top_Edge
usemtl Edge_Material
f 14//13 37//13 36//13
f 14//13 36//13 15//13
o Left_Bottom_Edge
usemtl Edge_Material
f 10//14 45//14 44//14
f 10//14 44//14 11//14
o Front_Top_Edge
usemtl Edge_Material
f 22//15 35//15 34//15
f 22//15 34//15 23//15
o Front_Bottom_Edge
usemtl Edge_Material
f 18//16 47//16 46//16
f 18//16 46//16 19//16
o Back_Top_Edge
usemtl Edge_Material
f 26//17 39//17 38//17
f 26//17 38//17 27//17
o Back_Bottom_Edge
usemtl Edge_Material
f 30//18 43//18 42//18
f 30//18 42//18 31//18
o TopFrontRight_Corner
usemtl Corner_Material
f 1//19 24//19 23//19
f 1//19 23//19 34//19
f 1//19 34//19 33//19
f 1//19 33//19 2//19
o BottomFrontRight_Corner
usemtl Corner_Material
f 7//20 48//20 47//20
f 7//20 47//20 18//20
f 7//20 18//20 17//20
f 7//20 17//20 8//20
o TopBackRight_Corner
usemtl Corner_Material
f 3//21 40//21 39//21
f 3//21 39//21 26//21
f 3//21 26//21 25//21
f 3//21 25//21 4//21
o BottomBackRight_Corner
usemtl Corner_Material
f 5//22 32//22 31//22
f 5//22 31//22 42//22
f 5//22 42//22 41//22
f 5//22 41//22 6//22
o TopFrontLeft_Corner
usemtl Corner_Material
f 15//23 36//23 35//23
f 15//23 35//23 22//23
f 15//23 22//23 21//23
f 15//23 21//23 16//23
o BottomFrontLeft_Corner
usemtl Corner_Material
f 9//24 20//24 19//24
f 9//24 19//24 46//24
f 9//24 46//24 45//24
f 9//24 45//24 10//24
o TopBackLeft_Corner
usemtl Corner_Material
f 13//25 28//25 27//25
f 13//25 27//25 38//25
f 13//25 38//25 37//25
f 13//25 37//25 14//25
o BottomBackLeft_Corner
usemtl Corner_Material
f 11//26 44//26 43//26
f 11//26 43//26 30//26
f 11//26 30//26 29//26
f 11//26 29//26 12//26
