solid navicube
facet normal 1.000000 0.000000 0.000000
  outer loop
    vertex 0.500000 0.300000 0.200000
    vertex 0.500000 0.200000 0.300000
    vertex 0.500000 -0.200000 0.300000
  endloop
endfacet
facet normal 1.000000 0.000000 0.000000
  outer loop
    vertex 0.500000 0.300000 0.200000
    vertex 0.500000 -0.200000 0.300000
    vertex 0.500000 -0.300000 0.200000
  endloop
endfacet
facet normal 1.000000 0.000000 0.000000
  outer loop
    vertex 0.500000 0.300000 0.200000
    vertex 0.500000 -0.300000 0.200000
    vertex 0.500000 -0.300000 -0.200000
  endloop
endfacet
facet normal 1.000000 0.000000 0.000000
  outer loop
    vertex 0.500000 0.300000 0.200000
    vertex 0.500000 -0.300000 -0.200000
    vertex 0.500000 -0.200000 -0.300000
  endloop
endfacet
facet normal 1.000000 0.000000 0.000000
  outer loop
    vertex 0.500000 0.300000 0.200000
    vertex 0.500000 -0.200000 -0.300000
    vertex 0.500000 0.200000 -0.300000
  endloop
endfacet
facet normal 1.000000 0.000000 0.000000
  outer loop
    vertex 0.500000 0.300000 0.200000
    vertex 0.500000 0.200000 -0.300000
    vertex 0.500000 0.300000 -0.200000
  endloop
endfacet
facet normal -1.000000 0.000000 0.000000
  outer loop
    vertex -0.500000 0.300000 -0.200000
    vertex -0.500000 0.200000 -0.300000
    vertex -0.500000 -0.200000 -0.300000
  endloop
endfacet
facet normal -1.000000 0.000000 0.000000
  outer loop
    vertex -0.500000 0.300000 -0.200000
    vertex -0.500000 -0.200000 -0.300000
    vertex -0.500000 -0.300000 -0.200000
  endloop
endfacet
facet normal -1.000000 0.000000 0.000000
  outer loop
    vertex -0.500000 0.300000 -0.200000
    vertex -0.500000 -0.300000 -0.200000
    vertex -0.500000 -0.300000 0.200000
  endloop
endfacet
facet normal -1.000000 0.000000 0.000000
  outer loop
    vertex -0.500000 0.300000 -0.200000
    vertex -0.500000 -0.300000 0.200000
    vertex -0.500000 -0.200000 0.300000
  endloop
endfacet
facet normal -1.000000 0.000000 0.000000
  outer loop
    vertex -0.500000 0.300000 -0.200000
    vertex -0.500000 -0.200000 0.300000
    vertex -0.500000 0.200000 0.300000
  endloop
endfacet
facet normal -1.000000 0.000000 0.000000
  outer loop
    vertex -0.500000 0.300000 -0.200000
    vertex -0.500000 0.200000 0.300000
    vertex -0.500000 0.300000 0.200000
  endloop
endfacet
facet normal 0.000000 1.000000 0.000000
  outer loop
    vertex 0.300000 0.500000 -0.200000
    vertex 0.200000 0.500000 -0.300000
    vertex -0.200000 0.500000 -0.300000
  endloop
endfacet
facet normal 0.000000 1.000000 0.000000
  outer loop
    vertex 0.300000 0.500000 -0.200000
    vertex -0.200000 0.500000 -0.300000
    vertex -0.300000 0.500000 -0.200000
  endloop
endfacet
facet normal 0.000000 1.000000 0.000000
  outer loop
    vertex 0.300000 0.500000 -0.200000
    vertex -0.300000 0.500000 -0.200000
    vertex -0.300000 0.500000 0.200000
  endloop
endfacet
facet normal 0.000000 1.000000 0.000000
  outer loop
    vertex 0.300000 0.500000 -0.200000
    vertex -0.300000 0.500000 0.200000
    vertex -0.200000 0.500000 0.300000
  endloop
endfacet
facet normal 0.000000 1.000000 0.000000
  outer loop
    vertex 0.300000 0.500000 -0.200000
    vertex -0.200000 0.500000 0.300000
    vertex 0.200000 0.500000 0.300000
  endloop
endfacet
facet normal 0.000000 1.000000 0.000000
  outer loop
    vertex 0.300000 0.500000 -0.200000
    vertex 0.200000 0.500000 0.300000
    vertex 0.300000 0.500000 0.200000
  endloop
endfacet
facet normal 0.000000 -1.000000 0.000000
  outer loop
    vertex 0.300000 -0.500000 0.200000
    vertex 0.200000 -0.500000 0.300000
    vertex -0.200000 -0.500000 0.300000
  endloop
endfacet
facet normal 0.000000 -1.000000 0.000000
  outer loop
    vertex 0.300000 -0.500000 0.200000
    vertex -0.200000 -0.500000 0.300000
    vertex -0.300000 -0.500000 0.200000
  endloop
endfacet
facet normal 0.000000 -1.000000 0.000000
  outer loop
    vertex 0.300000 -0.500000 0.200000
    vertex -0.300000 -0.500000 0.200000
    vertex -0.300000 -0.500000 -0.200000
  endloop
endfacet
facet normal 0.000000 -1.000000 0.000000
  outer loop
    vertex 0.300000 -0.500000 0.200000
    vertex -0.300000 -0.500000 -0.200000
    vertex -0.200000 -0.500000 -0.300000
  endloop
endfacet
facet normal 0.000000 -1.000000 0.000000
  outer loop
    vertex 0.300000 -0.500000 0.200000
    vertex -0.200000 -0.500000 -0.300000
    vertex 0.200000 -0.500000 -0.300000
  endloop
endfacet
facet normal 0.000000 -1.000000 0.000000
  outer loop
    vertex 0.300000 -0.500000 0.200000
    vertex 0.200000 -0.500000 -0.300000
    vertex 0.300000 -0.500000 -0.200000
  endloop
endfacet
facet normal 0.000000 0.000000 1.000000
  outer loop
    vertex 0.300000 0.200000 0.500000
    vertex 0.200000 0.300000 0.500000
    vertex -0.200000 0.300000 0.500000
  endloop
endfacet
facet normal 0.000000 0.000000 1.000000
  outer loop
    vertex 0.300000 0.200000 0.500000
    vertex -0.200000 0.300000 0.500000
    vertex -0.300000 0.200000 0.500000
  endloop
endfacet
facet normal 0.000000 0.000000 1.000000
  outer loop
    vertex 0.300000 0.200000 0.500000
    vertex -0.300000 0.200000 0.500000
    vertex -0.300000 -0.200000 0.500000
  endloop
endfacet
facet normal 0.000000 0.000000 1.000000
  outer loop
    vertex 0.300000 0.200000 0.500000
    vertex -0.300000 -0.200000 0.500000
    vertex -0.200000 -0.300000 0.500000
  endloop
endfacet
facet normal 0.000000 0.000000 1.000000
  outer loop
    vertex 0.300000 0.200000 0.500000
    vertex -0.200000 -0.300000 0.500000
    vertex 0.200000 -0.300000 0.500000
  endloop
endfacet
facet normal 0.000000 0.000000 1.000000
  outer loop
    vertex 0.300000 0.200000 0.500000
    vertex 0.200000 -0.300000 0.500000
    vertex 0.300000 -0.200000 0.500000
  endloop
endfacet
facet normal 0.000000 0.000000 -1.000000
  outer loop
    vertex 0.300000 -0.200000 -0.500000
    vertex 0.200000 -0.300000 -0.500000
    vertex -0.200000 -0.300000 -0.500000
  endloop
endfacet
facet normal 0.000000 0.000000 -1.000000
  outer loop
    vertex 0.300000 -0.200000 -0.500000
    vertex -0.200000 -0.300000 -0.500000
    vertex -0.300000 -0.200000 -0.500000
  endloop
endfacet
facet normal 0.000000 0.000000 -1.000000
  outer loop
    vertex 0.300000 -0.200000 -0.500000
    vertex -0.300000 -0.200000 -0.500000
    vertex -0.300000 0.200000 -0.500000
  endloop
endfacet
facet normal 0.000000 0.000000 -1.000000
  outer loop
    vertex 0.300000 -0.200000 -0.500000
    vertex -0.300000 0.200000 -0.500000
    vertex -0.200000 0.300000 -0.500000
  endloop
endfacet
facet normal 0.000000 0.000000 -1.000000
  outer loop
    vertex 0.300000 -0.200000 -0.500000
    vertex -0.200000 0.300000 -0.500000
    vertex 0.200000 0.300000 -0.500000
  endloop
endfacet
facet normal 0.000000 0.000000 -1.000000
  outer loop
    vertex 0.300000 -0.200000 -0.500000
    vertex 0.200000 0.300000 -0.500000
    vertex 0.300000 0.200000 -0.500000
  endloop
endfacet
facet normal 0.707107 0.707107 0.000000
  outer loop
    vertex 0.500000 0.300000 -0.200000
    vertex 0.300000 0.500000 -0.200000
    vertex 0.300000 0.500000 0.200000
  endloop
endfacet
facet normal 0.707107 0.707107 0.000000
  outer loop
    vertex 0.500000 0.300000 -0.200000
    vertex 0.300000 0.500000 0.200000
    vertex 0.500000 0.300000 0.200000
  endloop
endfacet
facet normal 0.707107 -0.707107 0.000000
  outer loop
    vertex 0.500000 -0.300000 0.200000
    vertex 0.300000 -0.500000 0.200000
    vertex 0.300000 -0.500000 -0.200000
  endloop
endfacet
facet normal 0.707107 -0.707107 0.000000
  outer loop
    vertex 0.500000 -0.300000 0.200000
    vertex 0.300000 -0.500000 -0.200000
    vertex 0.500000 -0.300000 -0.200000
  endloop
endfacet
facet normal 0.707107 0.000000 0.707107
  outer loop
    vertex 0.500000 0.200000 0.300000
    vertex 0.300000 0.200000 0.500000
    vertex 0.300000 -0.200000 0.500000
  endloop
endfacet
facet normal 0.707107 0.000000 0.707107
  outer loop
    vertex 0.500000 0.200000 0.300000
    vertex 0.300000 -0.200000 0.500000
    vertex 0.500000 -0.200000 0.300000
  endloop
endfacet
facet normal 0.707107 0.000000 -0.707107
  outer loop
    vertex 0.500000 -0.200000 -0.300000
    vertex 0.300000 -0.200000 -0.500000
    vertex 0.300000 0.200000 -0.500000
  endloop
endfacet
facet normal 0.707107 0.000000 -0.707107
  outer loop
    vertex 0.500000 -0.200000 -0.300000
    vertex 0.300000 0.200000 -0.500000
    vertex 0.500000 0.200000 -0.300000
  endloop
endfacet
facet normal -0.707107 0.707107 0.000000
  outer loop
    vertex -0.500000 0.300000 0.200000
    vertex -0.300000 0.500000 0.200000
    vertex -0.300000 0.500000 -0.200000
  endloop
endfacet
facet normal -0.707107 0.707107 0.000000
  outer loop
    vertex -0.500000 0.300000 0.200000
    vertex -0.300000 0.500000 -0.200000
    vertex -0.500000 0.300000 -0.200000
  endloop
endfacet
facet normal -0.707107 -0.707107 0.000000
  outer loop
    vertex -0.500000 -0.300000 -0.200000
    vertex -0.300000 -0.500000 -0.200000
    vertex -0.300000 -0.500000 0.200000
  endloop
endfacet
facet normal -0.707107 -0.707107 0.000000
  outer loop
    vertex -0.500000 -0.300000 -0.200000
    vertex -0.300000 -0.500000 0.200000
    vertex -0.500000 -0.300000 0.200000
  endloop
endfacet
facet normal -0.707107 0.000000 0.707107
  outer loop
    vertex -0.500000 -0.200000 0.300000
    vertex -0.300000 -0.200000 0.500000
    vertex -0.300000 0.200000 0.500000
  endloop
endfacet
facet normal -0.707107 0.000000 0.707107
  outer loop
    vertex -0.500000 -0.200000 0.300000
    vertex -0.300000 0.200000 0.500000
    vertex -0.500000 0.200000 0.300000
  endloop
endfacet
facet normal -0.707107 0.000000 -0.707107
  outer loop
    vertex -0.500000 0.200000 -0.300000
    vertex -0.300000 0.200000 -0.500000
    vertex -0.300000 -0.200000 -0.500000
  endloop
endfacet
facet normal -0.707107 0.000000 -0.707107
  outer loop
    vertex -0.500000 0.200000 -0.300000
    vertex -0.300000 -0.200000 -0.500000
    vertex -0.500000 -0.200000 -0.300000
  endloop
endfacet
facet normal 0.000000 0.707107 0.707107
  outer loop
    vertex -0.200000 0.500000 0.300000
    vertex -0.200000 0.300000 0.500000
    vertex 0.200000 0.300000 0.500000
  endloop
endfacet
facet normal 0.000000 0.707107 0.707107
  outer loop
    vertex -0.200000 0.500000 0.300000
    vertex 0.200000 0.300000 0.500000
    vertex 0.200000 0.500000 0.300000
  endloop
endfacet
facet normal 0.000000 0.707107 -0.707107
  outer loop
    vertex 0.200000 0.500000 -0.300000
    vertex 0.200000 0.300000 -0.500000
    vertex -0.200000 0.300000 -0.500000
  endloop
endfacet
facet normal 0.000000 0.707107 -0.707107
  outer loop
    vertex 0.200000 0.500000 -0.300000
    vertex -0.200000 0.300000 -0.500000
    vertex -0.200000 0.500000 -0.300000
  endloop
endfacet
facet normal 0.000000 -0.707107 0.707107
  outer loop
    vertex 0.200000 -0.500000 0.300000
    vertex 0.200000 -0.300000 0.500000
    vertex -0.200000 -0.300000 0.500000
  endloop
endfacet
facet normal 0.000000 -0.707107 0.707107
  outer loop
    vertex 0.200000 -0.500000 0.300000
    vertex -0.200000 -0.300000 0.500000
    vertex -0.200000 -0.500000 0.300000
  endloop
endfacet
facet normal 0.000000 -0.707107 -0.707107
  outer loop
    vertex -0.200000 -0.500000 -0.300000
    vertex -0.200000 -0.300000 -0.500000
    vertex 0.200000 -0.300000 -0.500000
  endloop
endfacet
facet normal 0.000000 -0.707107 -0.707107
  outer loop
    vertex -0.200000 -0.500000 -0.300000
    vertex 0.200000 -0.300000 -0.500000
    vertex 0.200000 -0.500000 -0.300000
  endloop
endfacet
facet normal 0.577350 0.577350 0.577350
  outer loop
    vertex 0.500000 0.300000 0.200000
    vertex 0.300000 0.500000 0.200000
    vertex 0.200000 0.500000 0.300000
  endloop
endfacet
facet normal 0.577350 0.577350 0.577350
  outer loop
    vertex 0.500000 0.300000 0.200000
    vertex 0.200000 0.500000 0.300000
    vertex 0.200000 0.300000 0.500000
  endloop
endfacet
facet normal 0.577350 0.577350 0.577350
  outer loop
    vertex 0.500000 0.300000 0.200000
    vertex 0.200000 0.300000 0.500000
    vertex 0.300000 0.200000 0.500000
  endloop
endfacet
facet normal 0.577350 0.577350 0.577350
  outer loop
    vertex 0.500000 0.300000 0.200000
    vertex 0.300000 0.200000 0.500000
    vertex 0.500000 0.200000 0.300000
  endloop
endfacet
facet normal 0.577350 0.577350 -0.577350
  outer loop
    vertex 0.500000 0.200000 -0.300000
    vertex 0.300000 0.200000 -0.500000
    vertex 0.200000 0.300000 -0.500000
  endloop
endfacet
facet normal 0.577350 0.577350 -0.577350
  outer loop
    vertex 0.500000 0.200000 -0.300000
    vertex 0.200000 0.300000 -0.500000
    vertex 0.200000 0.500000 -0.300000
  endloop
endfacet
facet normal 0.577350 0.577350 -0.577350
  outer loop
    vertex 0.500000 0.200000 -0.300000
    vertex 0.200000 0.500000 -0.300000
    vertex 0.300000 0.500000 -0.200000
  endloop
endfacet
facet normal 0.577350 0.577350 -0.577350
  outer loop
    vertex 0.500000 0.200000 -0.300000
    vertex 0.300000 0.500000 -0.200000
    vertex 0.500000 0.300000 -0.200000
  endloop
endfacet
facet normal 0.577350 -0.577350 0.577350
  outer loop
    vertex 0.500000 -0.200000 0.300000
    vertex 0.300000 -0.200000 0.500000
    vertex 0.200000 -0.300000 0.500000
  endloop
endfacet
facet normal 0.577350 -0.577350 0.577350
  outer loop
    vertex 0.500000 -0.200000 0.300000
    vertex 0.200000 -0.300000 0.500000
    vertex 0.200000 -0.500000 0.300000
  endloop
endfacet
facet normal 0.577350 -0.577350 0.577350
  outer loop
    vertex 0.500000 -0.200000 0.300000
    vertex 0.200000 -0.500000 0.300000
    vertex 0.300000 -0.500000 0.200000
  endloop
endfacet
facet normal 0.577350 -0.577350 0.577350
  outer loop
    vertex 0.500000 -0.200000 0.300000
    vertex 0.300000 -0.500000 0.200000
    vertex 0.500000 -0.300000 0.200000
  endloop
endfacet
facet normal 0.577350 -0.577350 -0.577350
  outer loop
    vertex 0.500000 -0.300000 -0.200000
    vertex 0.300000 -0.500000 -0.200000
    vertex 0.200000 -0.500000 -0.300000
  endloop
endfacet
facet normal 0.577350 -0.577350 -0.577350
  outer loop
    vertex 0.500000 -0.300000 -0.200000
    vertex 0.200000 -0.500000 -0.300000
    vertex 0.200000 -0.300000 -0.500000
  endloop
endfacet
facet normal 0.577350 -0.577350 -0.577350
  outer loop
    vertex 0.500000 -0.300000 -0.200000
    vertex 0.200000 -0.300000 -0.500000
    vertex 0.300000 -0.200000 -0.500000
  endloop
endfacet
facet normal 0.577350 -0.577350 -0.577350
  outer loop
    vertex 0.500000 -0.300000 -0.200000
    vertex 0.300000 -0.200000 -0.500000
    vertex 0.500000 -0.200000 -0.300000
  endloop
endfacet
facet normal -0.577350 0.577350 0.577350
  outer loop
    vertex -0.500000 0.200000 0.300000
    vertex -0.300000 0.200000 0.500000
    vertex -0.200000 0.300000 0.500000
  endloop
endfacet
facet normal -0.577350 0.577350 0.577350
  outer loop
    vertex -0.500000 0.200000 0.300000
    vertex -0.200000 0.300000 0.500000
    vertex -0.200000 0.500000 0.300000
  endloop
endfacet
facet normal -0.577350 0.577350 0.577350
  outer loop
    vertex -0.500000 0.200000 0.300000
    vertex -0.200000 0.500000 0.300000
    vertex -0.300000 0.500000 0.200000
  endloop
endfacet
facet normal -0.577350 0.577350 0.577350
  outer loop
    vertex -0.500000 0.200000 0.300000
    vertex -0.300000 0.500000 0.200000
    vertex -0.500000 0.300000 0.200000
  endloop
endfacet
facet normal -0.577350 0.577350 -0.577350
  outer loop
    vertex -0.500000 0.300000 -0.200000
    vertex -0.300000 0.500000 -0.200000
    vertex -0.200000 0.500000 -0.300000
  endloop
endfacet
facet normal -0.577350 0.577350 -0.577350
  outer loop
    vertex -0.500000 0.300000 -0.200000
    vertex -0.200000 0.500000 -0.300000
    vertex -0.200000 0.300000 -0.500000
  endloop
endfacet
facet normal -0.577350 0.577350 -0.577350
  outer loop
    vertex -0.500000 0.300000 -0.200000
    vertex -0.200000 0.300000 -0.500000
    vertex -0.300000 0.200000 -0.500000
  endloop
endfacet
facet normal -0.577350 0.577350 -0.577350
  outer loop
    vertex -0.500000 0.300000 -0.200000
    vertex -0.300000 0.200000 -0.500000
    vertex -0.500000 0.200000 -0.300000
  endloop
endfacet
facet normal -0.577350 -0.577350 0.577350
  outer loop
    vertex -0.500000 -0.300000 0.200000
    vertex -0.300000 -0.500000 0.200000
    vertex -0.200000 -0.500000 0.300000
  endloop
endfacet
facet normal -0.577350 -0.577350 0.577350
  outer loop
    vertex -0.500000 -0.300000 0.200000
    vertex -0.200000 -0.500000 0.300000
    vertex -0.200000 -0.300000 0.500000
  endloop
endfacet
facet normal -0.577350 -0.577350 0.577350
  outer loop
    vertex -0.500000 -0.300000 0.200000
    vertex -0.200000 -0.300000 0.500000
    vertex -0.300000 -0.200000 0.500000
  endloop
endfacet
facet normal -0.577350 -0.577350 0.577350
  outer loop
    vertex -0.500000 -0.300000 0.200000
    vertex -0.300000 -0.200000 0.500000
    vertex -0.500000 -0.200000 0.300000
  endloop
endfacet
facet normal -0.577350 -0.577350 -0.577350
  outer loop
    vertex -0.500000 -0.200000 -0.300000
    vertex -0.300000 -0.200000 -0.500000
    vertex -0.200000 -0.300000 -0.500000
  endloop
endfacet
facet normal -0.577350 -0.577350 -0.577350
  outer loop
    vertex -0.500000 -0.200000 -0.300000
    vertex -0.200000 -0.300000 -0.500000
    vertex -0.200000 -0.500000 -0.300000
  endloop
endfacet
facet normal -0.577350 -0.577350 -0.577350
  outer loop
    vertex -0.500000 -0.200000 -0.300000
    vertex -0.200000 -0.500000 -0.300000
    vertex -0.300000 -0.500000 -0.200000
  endloop
endfacet
facet normal -0.577350 -0.577350 -0.577350
  outer loop
    vertex -0.500000 -0.200000 -0.300000
    vertex -0.300000 -0.500000 -0.200000
    vertex -0.500000 -0.300000 -0.200000
  endloop
endfacet
endsolid navicube
