ISO-10303-21;
HEADER;
FILE_DESCRIPTION(('3Draper export','3Draper STEP exporter'), '2;1');
FILE_NAME('combustion_engine.stp','2026-09-18T09:30:19',('3Draper'),(''),'3Draper','','');
FILE_SCHEMA(('AUTOMOTIVE_DESIGN { 1 0 10303 214 1 1 1 1 }'));
ENDSEC;
DATA;
#1 = CARTESIAN_POINT('',(-100.0,-50.0,-60.0));
#2 = DIRECTION('',(0.0,0.0,1.0));
#3 = DIRECTION('',(1.0,0.0,0.0));
#4 = AXIS2_PLACEMENT_3D('',#1,#2,#3);
#5 = PLANE('',#4);
#6 = CARTESIAN_POINT('',(0.0,-50.0,-60.0));
#7 = VERTEX_POINT('',#6);
#8 = CARTESIAN_POINT('',(-1.0,-50.0,-60.0));
#9 = VERTEX_POINT('',#8);
#10 = DIRECTION('',(-1.0,0.0,0.0));
#11 = LINE('',#6,#10);
#12 = EDGE_CURVE('',#7,#9,11,.T.);
#13 = ORIENTED_EDGE('',*,*,#12,.T.);
#14 = ORIENTED_EDGE('',*,*,#12,.T.);
#15 = ORIENTED_EDGE('',*,*,#12,.T.);
#16 = ORIENTED_EDGE('',*,*,#12,.T.);
#17 = ORIENTED_EDGE('',*,*,#12,.T.);
#18 = EDGE_LOOP('',(#13,#14,#15,#16,#17));
#19 = FACE_BOUND('',#18,.T.);
#20 = ADVANCED_FACE('',(#19),#5,.T.,.F.);
#21 = CARTESIAN_POINT('',(-100.0,-50.0,60.0));
#22 = DIRECTION('',(0.0,0.0,-1.0));
#23 = DIRECTION('',(0.0,1.0,0.0));
#24 = AXIS2_PLACEMENT_3D('',#21,#22,#23);
#25 = PLANE('',#24);
#26 = CARTESIAN_POINT('',(0.0,-50.0,60.0));
#27 = VERTEX_POINT('',#26);
#28 = CARTESIAN_POINT('',(1.0,-50.0,60.0));
#29 = VERTEX_POINT('',#28);
#30 = LINE('',#26,#3);
#31 = EDGE_CURVE('',#27,#29,30,.T.);
#32 = ORIENTED_EDGE('',*,*,#31,.T.);
#33 = ORIENTED_EDGE('',*,*,#31,.T.);
#34 = ORIENTED_EDGE('',*,*,#31,.T.);
#35 = ORIENTED_EDGE('',*,*,#31,.T.);
#36 = ORIENTED_EDGE('',*,*,#31,.T.);
#37 = EDGE_LOOP('',(#32,#33,#34,#35,#36));
#38 = FACE_BOUND('',#37,.T.);
#39 = ADVANCED_FACE('',(#38),#25,.T.,.F.);
#40 = AXIS2_PLACEMENT_3D('',#1,#23,#2);
#41 = PLANE('',#40);
#42 = CARTESIAN_POINT('',(0.0,-50.0,100.0));
#43 = VERTEX_POINT('',#42);
#44 = CARTESIAN_POINT('',(1.0,-50.0,100.0));
#45 = VERTEX_POINT('',#44);
#46 = LINE('',#42,#3);
#47 = EDGE_CURVE('',#43,#45,46,.T.);
#48 = ORIENTED_EDGE('',*,*,#47,.T.);
#49 = ORIENTED_EDGE('',*,*,#47,.T.);
#50 = ORIENTED_EDGE('',*,*,#47,.T.);
#51 = ORIENTED_EDGE('',*,*,#47,.T.);
#52 = EDGE_LOOP('',(#48,#49,#50,#51));
#53 = FACE_BOUND('',#52,.T.);
#54 = ADVANCED_FACE('',(#53),#41,.T.,.F.);
#55 = CARTESIAN_POINT('',(-100.0,50.0,-60.0));
#56 = DIRECTION('',(0.0,-1.0,0.0));
#57 = AXIS2_PLACEMENT_3D('',#55,#56,#3);
#58 = PLANE('',#57);
#59 = CARTESIAN_POINT('',(0.0,50.0,100.0));
#60 = VERTEX_POINT('',#59);
#61 = CARTESIAN_POINT('',(-1.0,50.0,100.0));
#62 = VERTEX_POINT('',#61);
#63 = LINE('',#59,#10);
#64 = EDGE_CURVE('',#60,#62,63,.T.);
#65 = ORIENTED_EDGE('',*,*,#64,.T.);
#66 = CARTESIAN_POINT('',(-100.0,50.0,60.0));
#67 = VERTEX_POINT('',#66);
#68 = CARTESIAN_POINT('',(0.0,50.0,-10.0));
#69 = VERTEX_POINT('',#68);
#70 = DIRECTION('',(0.8192319205190405,0.0,-0.5734623443633283));
#71 = LINE('',#66,#70);
#72 = EDGE_CURVE('',#67,#69,71,.T.);
#73 = ORIENTED_EDGE('',*,*,#72,.T.);
#74 = CARTESIAN_POINT('',(0.0,50.0,-10.0));
#75 = VERTEX_POINT('',#74);
#76 = CARTESIAN_POINT('',(-1.0,50.0,-10.0));
#77 = VERTEX_POINT('',#76);
#78 = LINE('',#74,#10);
#79 = EDGE_CURVE('',#75,#77,78,.T.);
#80 = ORIENTED_EDGE('',*,*,#79,.T.);
#81 = VERTEX_POINT('',#55);
#82 = DIRECTION('',(-0.8944271909999159,0.0,-0.4472135954999579));
#83 = LINE('',#68,#82);
#84 = EDGE_CURVE('',#69,#81,83,.T.);
#85 = ORIENTED_EDGE('',*,*,#84,.T.);
#86 = ORIENTED_EDGE('',*,*,#64,.T.);
#87 = ORIENTED_EDGE('',*,*,#64,.T.);
#88 = ORIENTED_EDGE('',*,*,#64,.T.);
#89 = ORIENTED_EDGE('',*,*,#64,.T.);
#90 = EDGE_LOOP('',(#65,#73,#80,#85,#86,#87,#88,#89));
#91 = FACE_BOUND('',#90,.T.);
#92 = CARTESIAN_POINT('',(0.0,50.0,-75.0));
#93 = VERTEX_POINT('',#92);
#94 = CARTESIAN_POINT('',(-1.0,50.0,-75.0));
#95 = VERTEX_POINT('',#94);
#96 = LINE('',#92,#10);
#97 = EDGE_CURVE('',#93,#95,96,.T.);
#98 = ORIENTED_EDGE('',*,*,#97,.T.);
#99 = EDGE_LOOP('',(#98));
#100 = FACE_BOUND('',#99,.T.);
#101 = ADVANCED_FACE('',(#91,#100),#58,.T.,.F.);
#102 = AXIS2_PLACEMENT_3D('',#1,#3,#23);
#103 = PLANE('',#102);
#104 = CARTESIAN_POINT('',(-100.0,0.0,100.0));
#105 = VERTEX_POINT('',#104);
#106 = CARTESIAN_POINT('',(-100.0,-1.0,100.0));
#107 = VERTEX_POINT('',#106);
#108 = LINE('',#104,#56);
#109 = EDGE_CURVE('',#105,#107,108,.T.);
#110 = ORIENTED_EDGE('',*,*,#109,.T.);
#111 = VERTEX_POINT('',#21);
#112 = CARTESIAN_POINT('',(-100.0,0.0,-10.0));
#113 = VERTEX_POINT('',#112);
#114 = DIRECTION('',(0.0,0.5812381937190964,-0.8137334712067349));
#115 = LINE('',#21,#114);
#116 = EDGE_CURVE('',#111,#113,115,.T.);
#117 = ORIENTED_EDGE('',*,*,#116,.T.);
#118 = CARTESIAN_POINT('',(-100.0,-1.0,-10.0));
#119 = VERTEX_POINT('',#118);
#120 = LINE('',#112,#56);
#121 = EDGE_CURVE('',#113,#119,120,.T.);
#122 = ORIENTED_EDGE('',*,*,#121,.T.);
#123 = VERTEX_POINT('',#1);
#124 = DIRECTION('',(0.0,-0.7071067811865475,-0.7071067811865475));
#125 = LINE('',#112,#124);
#126 = EDGE_CURVE('',#113,#123,125,.T.);
#127 = ORIENTED_EDGE('',*,*,#126,.T.);
#128 = ORIENTED_EDGE('',*,*,#109,.T.);
#129 = ORIENTED_EDGE('',*,*,#109,.T.);
#130 = ORIENTED_EDGE('',*,*,#109,.T.);
#131 = ORIENTED_EDGE('',*,*,#109,.T.);
#132 = EDGE_LOOP('',(#110,#117,#122,#127,#128,#129,#130,#131));
#133 = FACE_BOUND('',#132,.T.);
#134 = CARTESIAN_POINT('',(-100.0,0.0,-75.0));
#135 = VERTEX_POINT('',#134);
#136 = CARTESIAN_POINT('',(-100.0,-1.0,-75.0));
#137 = VERTEX_POINT('',#136);
#138 = LINE('',#134,#56);
#139 = EDGE_CURVE('',#135,#137,138,.T.);
#140 = ORIENTED_EDGE('',*,*,#139,.T.);
#141 = EDGE_LOOP('',(#140));
#142 = FACE_BOUND('',#141,.T.);
#143 = ADVANCED_FACE('',(#133,#142),#103,.T.,.F.);
#144 = CARTESIAN_POINT('',(100.0,-50.0,-60.0));
#145 = AXIS2_PLACEMENT_3D('',#144,#10,#2);
#146 = PLANE('',#145);
#147 = CARTESIAN_POINT('',(100.0,0.0,100.0));
#148 = VERTEX_POINT('',#147);
#149 = CARTESIAN_POINT('',(100.0,1.0,100.0));
#150 = VERTEX_POINT('',#149);
#151 = LINE('',#147,#23);
#152 = EDGE_CURVE('',#148,#150,151,.T.);
#153 = ORIENTED_EDGE('',*,*,#152,.T.);
#154 = ORIENTED_EDGE('',*,*,#152,.T.);
#155 = ORIENTED_EDGE('',*,*,#152,.T.);
#156 = ORIENTED_EDGE('',*,*,#152,.T.);
#157 = EDGE_LOOP('',(#153,#154,#155,#156));
#158 = FACE_BOUND('',#157,.T.);
#159 = ADVANCED_FACE('',(#158),#146,.T.,.F.);
#160 = ORIENTED_EDGE('',*,*,#152,.T.);
#161 = CARTESIAN_POINT('',(100.0,50.0,-60.0));
#162 = VERTEX_POINT('',#161);
#163 = CARTESIAN_POINT('',(100.0,0.0,-10.0));
#164 = VERTEX_POINT('',#163);
#165 = DIRECTION('',(0.0,-0.7071067811865475,0.7071067811865475));
#166 = LINE('',#161,#165);
#167 = EDGE_CURVE('',#162,#164,166,.T.);
#168 = ORIENTED_EDGE('',*,*,#167,.T.);
#169 = CARTESIAN_POINT('',(100.0,1.0,-10.0));
#170 = VERTEX_POINT('',#169);
#171 = LINE('',#163,#23);
#172 = EDGE_CURVE('',#164,#170,171,.T.);
#173 = ORIENTED_EDGE('',*,*,#172,.T.);
#174 = VERTEX_POINT('',#144);
#175 = LINE('',#163,#124);
#176 = EDGE_CURVE('',#164,#174,175,.T.);
#177 = ORIENTED_EDGE('',*,*,#176,.T.);
#178 = ORIENTED_EDGE('',*,*,#152,.T.);
#179 = ORIENTED_EDGE('',*,*,#152,.T.);
#180 = ORIENTED_EDGE('',*,*,#152,.T.);
#181 = ORIENTED_EDGE('',*,*,#152,.T.);
#182 = EDGE_LOOP('',(#160,#168,#173,#177,#178,#179,#180,#181));
#183 = FACE_BOUND('',#182,.T.);
#184 = CARTESIAN_POINT('',(100.0,0.0,-75.0));
#185 = VERTEX_POINT('',#184);
#186 = CARTESIAN_POINT('',(100.0,1.0,-75.0));
#187 = VERTEX_POINT('',#186);
#188 = LINE('',#184,#23);
#189 = EDGE_CURVE('',#185,#187,188,.T.);
#190 = ORIENTED_EDGE('',*,*,#189,.T.);
#191 = EDGE_LOOP('',(#190));
#192 = FACE_BOUND('',#191,.T.);
#193 = ADVANCED_FACE('',(#183,#192),#146,.T.,.F.);
#194 = ORIENTED_EDGE('',*,*,#109,.T.);
#195 = ORIENTED_EDGE('',*,*,#109,.T.);
#196 = ORIENTED_EDGE('',*,*,#109,.T.);
#197 = ORIENTED_EDGE('',*,*,#109,.T.);
#198 = EDGE_LOOP('',(#194,#195,#196,#197));
#199 = FACE_BOUND('',#198,.T.);
#200 = ADVANCED_FACE('',(#199),#103,.T.,.F.);
#201 = ORIENTED_EDGE('',*,*,#64,.T.);
#202 = ORIENTED_EDGE('',*,*,#64,.T.);
#203 = ORIENTED_EDGE('',*,*,#64,.T.);
#204 = ORIENTED_EDGE('',*,*,#64,.T.);
#205 = EDGE_LOOP('',(#201,#202,#203,#204));
#206 = FACE_BOUND('',#205,.T.);
#207 = ADVANCED_FACE('',(#206),#58,.T.,.F.);
#208 = ORIENTED_EDGE('',*,*,#47,.T.);
#209 = CARTESIAN_POINT('',(0.0,-50.0,-10.0));
#210 = VERTEX_POINT('',#209);
#211 = DIRECTION('',(-0.8944271909999159,0.0,0.4472135954999579));
#212 = LINE('',#144,#211);
#213 = EDGE_CURVE('',#174,#210,212,.T.);
#214 = ORIENTED_EDGE('',*,*,#213,.T.);
#215 = CARTESIAN_POINT('',(1.0,-50.0,-10.0));
#216 = VERTEX_POINT('',#215);
#217 = LINE('',#209,#3);
#218 = EDGE_CURVE('',#210,#216,217,.T.);
#219 = ORIENTED_EDGE('',*,*,#218,.T.);
#220 = LINE('',#209,#82);
#221 = EDGE_CURVE('',#210,#123,220,.T.);
#222 = ORIENTED_EDGE('',*,*,#221,.T.);
#223 = ORIENTED_EDGE('',*,*,#47,.T.);
#224 = ORIENTED_EDGE('',*,*,#47,.T.);
#225 = ORIENTED_EDGE('',*,*,#47,.T.);
#226 = ORIENTED_EDGE('',*,*,#47,.T.);
#227 = EDGE_LOOP('',(#208,#214,#219,#222,#223,#224,#225,#226));
#228 = FACE_BOUND('',#227,.T.);
#229 = CARTESIAN_POINT('',(0.0,-50.0,-75.0));
#230 = VERTEX_POINT('',#229);
#231 = CARTESIAN_POINT('',(1.0,-50.0,-75.0));
#232 = VERTEX_POINT('',#231);
#233 = LINE('',#229,#3);
#234 = EDGE_CURVE('',#230,#232,233,.T.);
#235 = ORIENTED_EDGE('',*,*,#234,.T.);
#236 = EDGE_LOOP('',(#235));
#237 = FACE_BOUND('',#236,.T.);
#238 = ADVANCED_FACE('',(#228,#237),#41,.T.,.F.);
#239 = ORIENTED_EDGE('',*,*,#31,.T.);
#240 = CARTESIAN_POINT('',(100.0,-50.0,60.0));
#241 = VERTEX_POINT('',#240);
#242 = CARTESIAN_POINT('',(70.0,50.0,60.0));
#243 = VERTEX_POINT('',#242);
#244 = DIRECTION('',(-0.28734788556634544,0.9578262852211514,0.0));
#245 = LINE('',#240,#244);
#246 = EDGE_CURVE('',#241,#243,245,.T.);
#247 = ORIENTED_EDGE('',*,*,#246,.T.);
#248 = CARTESIAN_POINT('',(100.0,1000.0,60.0));
#249 = VERTEX_POINT('',#248);
#250 = DIRECTION('',(0.03156321339970188,0.9995017576572264,0.0));
#251 = LINE('',#242,#250);
#252 = EDGE_CURVE('',#243,#249,251,.T.);
#253 = ORIENTED_EDGE('',*,*,#252,.T.);
#254 = ORIENTED_EDGE('',*,*,#31,.T.);
#255 = ORIENTED_EDGE('',*,*,#31,.T.);
#256 = EDGE_LOOP('',(#239,#247,#253,#254,#255));
#257 = FACE_BOUND('',#256,.T.);
#258 = ADVANCED_FACE('',(#257),#25,.T.,.F.);
#259 = CARTESIAN_POINT('',(-100.0,-50.0,100.0));
#260 = AXIS2_PLACEMENT_3D('',#259,#2,#3);
#261 = PLANE('',#260);
#262 = ORIENTED_EDGE('',*,*,#47,.T.);
#263 = ORIENTED_EDGE('',*,*,#47,.T.);
#264 = ORIENTED_EDGE('',*,*,#47,.T.);
#265 = ORIENTED_EDGE('',*,*,#47,.T.);
#266 = ORIENTED_EDGE('',*,*,#47,.T.);
#267 = EDGE_LOOP('',(#262,#263,#264,#265,#266));
#268 = FACE_BOUND('',#267,.T.);
#269 = ADVANCED_FACE('',(#268),#261,.T.,.F.);
#270 = CARTESIAN_POINT('',(-100.0,-50.0,140.0));
#271 = AXIS2_PLACEMENT_3D('',#270,#22,#23);
#272 = PLANE('',#271);
#273 = CARTESIAN_POINT('',(0.0,-50.0,140.0));
#274 = VERTEX_POINT('',#273);
#275 = CARTESIAN_POINT('',(-1.0,-50.0,140.0));
#276 = VERTEX_POINT('',#275);
#277 = LINE('',#273,#10);
#278 = EDGE_CURVE('',#274,#276,277,.T.);
#279 = ORIENTED_EDGE('',*,*,#278,.T.);
#280 = ORIENTED_EDGE('',*,*,#278,.T.);
#281 = ORIENTED_EDGE('',*,*,#278,.T.);
#282 = EDGE_LOOP('',(#279,#280,#281));
#283 = FACE_BOUND('',#282,.T.);
#284 = ADVANCED_FACE('',(#283),#272,.T.,.F.);
#285 = AXIS2_PLACEMENT_3D('',#259,#23,#2);
#286 = PLANE('',#285);
#287 = ORIENTED_EDGE('',*,*,#12,.T.);
#288 = ORIENTED_EDGE('',*,*,#12,.T.);
#289 = ORIENTED_EDGE('',*,*,#12,.T.);
#290 = EDGE_LOOP('',(#287,#288,#289));
#291 = FACE_BOUND('',#290,.T.);
#292 = ADVANCED_FACE('',(#291),#286,.T.,.F.);
#293 = CARTESIAN_POINT('',(-100.0,50.0,100.0));
#294 = AXIS2_PLACEMENT_3D('',#293,#56,#3);
#295 = PLANE('',#294);
#296 = CARTESIAN_POINT('',(0.0,50.0,-60.0));
#297 = VERTEX_POINT('',#296);
#298 = CARTESIAN_POINT('',(1.0,50.0,-60.0));
#299 = VERTEX_POINT('',#298);
#300 = LINE('',#296,#3);
#301 = EDGE_CURVE('',#297,#299,300,.T.);
#302 = ORIENTED_EDGE('',*,*,#301,.T.);
#303 = ORIENTED_EDGE('',*,*,#301,.T.);
#304 = ORIENTED_EDGE('',*,*,#301,.T.);
#305 = ORIENTED_EDGE('',*,*,#301,.T.);
#306 = ORIENTED_EDGE('',*,*,#301,.T.);
#307 = EDGE_LOOP('',(#302,#303,#304,#305,#306));
#308 = FACE_BOUND('',#307,.T.);
#309 = ADVANCED_FACE('',(#308),#295,.T.,.F.);
#310 = AXIS2_PLACEMENT_3D('',#259,#3,#23);
#311 = PLANE('',#310);
#312 = CARTESIAN_POINT('',(-100.0,0.0,-60.0));
#313 = VERTEX_POINT('',#312);
#314 = CARTESIAN_POINT('',(-100.0,1.0,-60.0));
#315 = VERTEX_POINT('',#314);
#316 = LINE('',#312,#23);
#317 = EDGE_CURVE('',#313,#315,316,.T.);
#318 = ORIENTED_EDGE('',*,*,#317,.T.);
#319 = ORIENTED_EDGE('',*,*,#317,.T.);
#320 = ORIENTED_EDGE('',*,*,#317,.T.);
#321 = ORIENTED_EDGE('',*,*,#317,.T.);
#322 = ORIENTED_EDGE('',*,*,#317,.T.);
#323 = EDGE_LOOP('',(#318,#319,#320,#321,#322));
#324 = FACE_BOUND('',#323,.T.);
#325 = ADVANCED_FACE('',(#324),#311,.T.,.F.);
#326 = CARTESIAN_POINT('',(100.0,-50.0,100.0));
#327 = AXIS2_PLACEMENT_3D('',#326,#10,#2);
#328 = PLANE('',#327);
#329 = CARTESIAN_POINT('',(100.0,0.0,-60.0));
#330 = VERTEX_POINT('',#329);
#331 = CARTESIAN_POINT('',(100.0,-1.0,-60.0));
#332 = VERTEX_POINT('',#331);
#333 = LINE('',#329,#56);
#334 = EDGE_CURVE('',#330,#332,333,.T.);
#335 = ORIENTED_EDGE('',*,*,#334,.T.);
#336 = ORIENTED_EDGE('',*,*,#334,.T.);
#337 = ORIENTED_EDGE('',*,*,#334,.T.);
#338 = EDGE_LOOP('',(#335,#336,#337));
#339 = FACE_BOUND('',#338,.T.);
#340 = ADVANCED_FACE('',(#339),#328,.T.,.F.);
#341 = ORIENTED_EDGE('',*,*,#334,.T.);
#342 = ORIENTED_EDGE('',*,*,#334,.T.);
#343 = ORIENTED_EDGE('',*,*,#334,.T.);
#344 = EDGE_LOOP('',(#341,#342,#343));
#345 = FACE_BOUND('',#344,.T.);
#346 = ADVANCED_FACE('',(#345),#328,.T.,.F.);
#347 = ORIENTED_EDGE('',*,*,#317,.T.);
#348 = ORIENTED_EDGE('',*,*,#317,.T.);
#349 = ORIENTED_EDGE('',*,*,#317,.T.);
#350 = ORIENTED_EDGE('',*,*,#317,.T.);
#351 = ORIENTED_EDGE('',*,*,#317,.T.);
#352 = EDGE_LOOP('',(#347,#348,#349,#350,#351));
#353 = FACE_BOUND('',#352,.T.);
#354 = ADVANCED_FACE('',(#353),#311,.T.,.F.);
#355 = ORIENTED_EDGE('',*,*,#301,.T.);
#356 = ORIENTED_EDGE('',*,*,#301,.T.);
#357 = ORIENTED_EDGE('',*,*,#301,.T.);
#358 = ORIENTED_EDGE('',*,*,#301,.T.);
#359 = ORIENTED_EDGE('',*,*,#301,.T.);
#360 = EDGE_LOOP('',(#355,#356,#357,#358,#359));
#361 = FACE_BOUND('',#360,.T.);
#362 = ADVANCED_FACE('',(#361),#295,.T.,.F.);
#363 = ORIENTED_EDGE('',*,*,#12,.T.);
#364 = ORIENTED_EDGE('',*,*,#12,.T.);
#365 = ORIENTED_EDGE('',*,*,#12,.T.);
#366 = EDGE_LOOP('',(#363,#364,#365));
#367 = FACE_BOUND('',#366,.T.);
#368 = ADVANCED_FACE('',(#367),#286,.T.,.F.);
#369 = ORIENTED_EDGE('',*,*,#278,.T.);
#370 = ORIENTED_EDGE('',*,*,#278,.T.);
#371 = ORIENTED_EDGE('',*,*,#278,.T.);
#372 = EDGE_LOOP('',(#369,#370,#371));
#373 = FACE_BOUND('',#372,.T.);
#374 = ADVANCED_FACE('',(#373),#272,.T.,.F.);
#375 = ORIENTED_EDGE('',*,*,#47,.T.);
#376 = ORIENTED_EDGE('',*,*,#47,.T.);
#377 = ORIENTED_EDGE('',*,*,#47,.T.);
#378 = ORIENTED_EDGE('',*,*,#47,.T.);
#379 = ORIENTED_EDGE('',*,*,#47,.T.);
#380 = EDGE_LOOP('',(#375,#376,#377,#378,#379));
#381 = FACE_BOUND('',#380,.T.);
#382 = ADVANCED_FACE('',(#381),#261,.T.,.F.);
#383 = DIRECTION('',(-0.5734623443633283,-0.8192319205190405,0.0));
#384 = LINE('',#242,#383);
#385 = EDGE_CURVE('',#243,#27,384,.T.);
#386 = ORIENTED_EDGE('',*,*,#385,.T.);
#387 = ORIENTED_EDGE('',*,*,#31,.T.);
#388 = ORIENTED_EDGE('',*,*,#31,.T.);
#389 = ORIENTED_EDGE('',*,*,#31,.T.);
#390 = ORIENTED_EDGE('',*,*,#31,.T.);
#391 = ORIENTED_EDGE('',*,*,#31,.T.);
#392 = ORIENTED_EDGE('',*,*,#31,.T.);
#393 = ORIENTED_EDGE('',*,*,#252,.T.);
#394 = EDGE_LOOP('',(#386,#387,#388,#389,#390,#391,#392,#393));
#395 = FACE_BOUND('',#394,.T.);
#396 = ADVANCED_FACE('',(#395),#25,.T.,.F.);
#397 = CARTESIAN_POINT('',(-100.0,-50.0,-75.0));
#398 = AXIS2_PLACEMENT_3D('',#397,#2,#3);
#399 = PLANE('',#398);
#400 = ORIENTED_EDGE('',*,*,#234,.T.);
#401 = ORIENTED_EDGE('',*,*,#234,.T.);
#402 = ORIENTED_EDGE('',*,*,#234,.T.);
#403 = ORIENTED_EDGE('',*,*,#234,.T.);
#404 = EDGE_LOOP('',(#400,#401,#402,#403));
#405 = FACE_BOUND('',#404,.T.);
#406 = ADVANCED_FACE('',(#405),#399,.T.,.F.);
#407 = CARTESIAN_POINT('',(-100.0,-50.0,-25.0));
#408 = AXIS2_PLACEMENT_3D('',#407,#22,#23);
#409 = PLANE('',#408);
#410 = CARTESIAN_POINT('',(0.0,-50.0,-25.0));
#411 = VERTEX_POINT('',#410);
#412 = CARTESIAN_POINT('',(-1.0,-50.0,-25.0));
#413 = VERTEX_POINT('',#412);
#414 = LINE('',#410,#10);
#415 = EDGE_CURVE('',#411,#413,414,.T.);
#416 = ORIENTED_EDGE('',*,*,#415,.T.);
#417 = ORIENTED_EDGE('',*,*,#415,.T.);
#418 = ORIENTED_EDGE('',*,*,#415,.T.);
#419 = ORIENTED_EDGE('',*,*,#415,.T.);
#420 = EDGE_LOOP('',(#416,#417,#418,#419));
#421 = FACE_BOUND('',#420,.T.);
#422 = ADVANCED_FACE('',(#421),#409,.T.,.F.);
#423 = AXIS2_PLACEMENT_3D('',#397,#23,#2);
#424 = PLANE('',#423);
#425 = CARTESIAN_POINT('',(115.0,-50.0,-25.0));
#426 = VERTEX_POINT('',#425);
#427 = CARTESIAN_POINT('',(115.0,-50.0,-24.999999999999996));
#428 = VERTEX_POINT('',#427);
#429 = CARTESIAN_POINT('',(100.0,-50.0,-25.0));
#430 = AXIS2_PLACEMENT_3D('',#429,#23,#3);
#431 = CIRCLE('',#430,15.0);
#432 = EDGE_CURVE('',#426,#428,431,.T.);
#433 = ORIENTED_EDGE('',*,*,#432,.T.);
#434 = ORIENTED_EDGE('',*,*,#432,.T.);
#435 = ORIENTED_EDGE('',*,*,#432,.T.);
#436 = EDGE_LOOP('',(#433,#434,#435));
#437 = FACE_BOUND('',#436,.T.);
#438 = ADVANCED_FACE('',(#437),#424,.T.,.F.);
#439 = CARTESIAN_POINT('',(-100.0,50.0,-75.0));
#440 = AXIS2_PLACEMENT_3D('',#439,#56,#3);
#441 = PLANE('',#440);
#442 = CARTESIAN_POINT('',(85.0,50.0,-25.0));
#443 = VERTEX_POINT('',#442);
#444 = CARTESIAN_POINT('',(85.0,50.0,-24.999999999999996));
#445 = VERTEX_POINT('',#444);
#446 = CARTESIAN_POINT('',(100.0,50.0,-25.0));
#447 = AXIS2_PLACEMENT_3D('',#446,#56,#10);
#448 = CIRCLE('',#447,15.0);
#449 = EDGE_CURVE('',#443,#445,448,.T.);
#450 = ORIENTED_EDGE('',*,*,#449,.T.);
#451 = ORIENTED_EDGE('',*,*,#449,.T.);
#452 = ORIENTED_EDGE('',*,*,#449,.T.);
#453 = EDGE_LOOP('',(#450,#451,#452));
#454 = FACE_BOUND('',#453,.T.);
#455 = ADVANCED_FACE('',(#454),#441,.T.,.F.);
#456 = AXIS2_PLACEMENT_3D('',#397,#3,#23);
#457 = PLANE('',#456);
#458 = VERTEX_POINT('',#397);
#459 = VERTEX_POINT('',#439);
#460 = LINE('',#397,#23);
#461 = EDGE_CURVE('',#458,#459,460,.T.);
#462 = ORIENTED_EDGE('',*,*,#461,.T.);
#463 = CARTESIAN_POINT('',(-100.0,50.0,-25.0));
#464 = VERTEX_POINT('',#463);
#465 = LINE('',#439,#2);
#466 = EDGE_CURVE('',#459,#464,465,.T.);
#467 = ORIENTED_EDGE('',*,*,#466,.T.);
#468 = VERTEX_POINT('',#407);
#469 = LINE('',#463,#56);
#470 = EDGE_CURVE('',#464,#468,469,.T.);
#471 = ORIENTED_EDGE('',*,*,#470,.T.);
#472 = LINE('',#407,#22);
#473 = EDGE_CURVE('',#468,#458,472,.T.);
#474 = ORIENTED_EDGE('',*,*,#473,.T.);
#475 = EDGE_LOOP('',(#462,#467,#471,#474));
#476 = FACE_BOUND('',#475,.T.);
#477 = ORIENTED_EDGE('',*,*,#317,.T.);
#478 = EDGE_LOOP('',(#477));
#479 = FACE_BOUND('',#478,.T.);
#480 = ADVANCED_FACE('',(#476,#479),#457,.T.,.F.);
#481 = CARTESIAN_POINT('',(100.0,-50.0,-75.0));
#482 = AXIS2_PLACEMENT_3D('',#481,#10,#2);
#483 = PLANE('',#482);
#484 = VERTEX_POINT('',#481);
#485 = VERTEX_POINT('',#429);
#486 = LINE('',#481,#2);
#487 = EDGE_CURVE('',#484,#485,486,.T.);
#488 = ORIENTED_EDGE('',*,*,#487,.T.);
#489 = VERTEX_POINT('',#446);
#490 = LINE('',#429,#23);
#491 = EDGE_CURVE('',#485,#489,490,.T.);
#492 = ORIENTED_EDGE('',*,*,#491,.T.);
#493 = CARTESIAN_POINT('',(100.0,50.0,-75.0));
#494 = VERTEX_POINT('',#493);
#495 = LINE('',#446,#22);
#496 = EDGE_CURVE('',#489,#494,495,.T.);
#497 = ORIENTED_EDGE('',*,*,#496,.T.);
#498 = LINE('',#493,#56);
#499 = EDGE_CURVE('',#494,#484,498,.T.);
#500 = ORIENTED_EDGE('',*,*,#499,.T.);
#501 = EDGE_LOOP('',(#488,#492,#497,#500));
#502 = FACE_BOUND('',#501,.T.);
#503 = ORIENTED_EDGE('',*,*,#334,.T.);
#504 = EDGE_LOOP('',(#503));
#505 = FACE_BOUND('',#504,.T.);
#506 = ADVANCED_FACE('',(#502,#505),#483,.T.,.F.);
#507 = ORIENTED_EDGE('',*,*,#415,.T.);
#508 = ORIENTED_EDGE('',*,*,#415,.T.);
#509 = ORIENTED_EDGE('',*,*,#415,.T.);
#510 = ORIENTED_EDGE('',*,*,#415,.T.);
#511 = ORIENTED_EDGE('',*,*,#415,.T.);
#512 = ORIENTED_EDGE('',*,*,#415,.T.);
#513 = EDGE_LOOP('',(#507,#508,#509,#510,#511,#512));
#514 = FACE_BOUND('',#513,.T.);
#515 = ADVANCED_FACE('',(#514),#409,.T.,.F.);
#516 = ORIENTED_EDGE('',*,*,#234,.T.);
#517 = ORIENTED_EDGE('',*,*,#234,.T.);
#518 = ORIENTED_EDGE('',*,*,#234,.T.);
#519 = ORIENTED_EDGE('',*,*,#234,.T.);
#520 = ORIENTED_EDGE('',*,*,#234,.T.);
#521 = ORIENTED_EDGE('',*,*,#234,.T.);
#522 = EDGE_LOOP('',(#516,#517,#518,#519,#520,#521));
#523 = FACE_BOUND('',#522,.T.);
#524 = ADVANCED_FACE('',(#523),#399,.T.,.F.);
#525 = ORIENTED_EDGE('',*,*,#449,.T.);
#526 = ORIENTED_EDGE('',*,*,#449,.T.);
#527 = ORIENTED_EDGE('',*,*,#449,.T.);
#528 = EDGE_LOOP('',(#525,#526,#527));
#529 = FACE_BOUND('',#528,.T.);
#530 = ADVANCED_FACE('',(#529),#441,.T.,.F.);
#531 = ORIENTED_EDGE('',*,*,#432,.T.);
#532 = ORIENTED_EDGE('',*,*,#432,.T.);
#533 = ORIENTED_EDGE('',*,*,#432,.T.);
#534 = EDGE_LOOP('',(#531,#532,#533));
#535 = FACE_BOUND('',#534,.T.);
#536 = ADVANCED_FACE('',(#535),#424,.T.,.F.);
#537 = AXIS2_PLACEMENT_3D('',#446,#56,#3);
#538 = PLANE('',#537);
#539 = CARTESIAN_POINT('',(115.0,50.0,-25.0));
#540 = VERTEX_POINT('',#539);
#541 = CARTESIAN_POINT('',(115.0,50.0,-25.000000000000004));
#542 = VERTEX_POINT('',#541);
#543 = CIRCLE('',#537,15.0);
#544 = EDGE_CURVE('',#540,#542,543,.T.);
#545 = ORIENTED_EDGE('',*,*,#544,.F.);
#546 = EDGE_LOOP('',(#545));
#547 = FACE_BOUND('',#546,.T.);
#548 = ADVANCED_FACE('',(#547),#538,.T.,.F.);
#549 = CARTESIAN_POINT('',(100.0,-170.0,-24.999999999999986));
#550 = AXIS2_PLACEMENT_3D('',#549,#56,#10);
#551 = PLANE('',#550);
#552 = CARTESIAN_POINT('',(115.0,-170.0,-24.999999999999986));
#553 = VERTEX_POINT('',#552);
#554 = CARTESIAN_POINT('',(115.0,-170.0,-24.99999999999999));
#555 = VERTEX_POINT('',#554);
#556 = AXIS2_PLACEMENT_3D('',#549,#56,#3);
#557 = CIRCLE('',#556,15.0);
#558 = EDGE_CURVE('',#553,#555,557,.T.);
#559 = ORIENTED_EDGE('',*,*,#558,.T.);
#560 = EDGE_LOOP('',(#559));
#561 = FACE_BOUND('',#560,.T.);
#562 = ADVANCED_FACE('',(#561),#551,.T.,.F.);
#563 = CYLINDRICAL_SURFACE('',#537,15.0);
#564 = CARTESIAN_POINT('',(56.51620848991509,1000013.0,53.926632650325836));
#565 = VERTEX_POINT('',#564);
#566 = CARTESIAN_POINT('',(56.51620848991508,-999987.0,53.9266326504483));
#567 = VERTEX_POINT('',#566);
#568 = CARTESIAN_POINT('',(56.51620848991509,980013.0,53.926632650327065));
#569 = CARTESIAN_POINT('',(56.51620848991509,960013.0,53.92663265032828));
#570 = CARTESIAN_POINT('',(56.516208489915094,940013.0,53.92663265032951));
#571 = CARTESIAN_POINT('',(56.51620848991509,920013.0,53.92663265033073));
#572 = CARTESIAN_POINT('',(56.51620848991509,900013.0,53.92663265033196));
#573 = CARTESIAN_POINT('',(56.51620848991509,880013.0,53.92663265033318));
#574 = CARTESIAN_POINT('',(56.51620848991509,860013.0,53.926632650334405));
#575 = CARTESIAN_POINT('',(56.516208489915094,840013.0,53.92663265033563));
#576 = CARTESIAN_POINT('',(56.51620848991509,820013.0,53.92663265033685));
#577 = CARTESIAN_POINT('',(56.51620848991508,800013.0,53.92663265033808));
#578 = CARTESIAN_POINT('',(56.51620848991509,780013.0,53.9266326503393));
#579 = CARTESIAN_POINT('',(56.51620848991509,760013.0,53.92663265034053));
#580 = CARTESIAN_POINT('',(56.516208489915094,740013.0,53.92663265034176));
#581 = CARTESIAN_POINT('',(56.51620848991509,720013.0,53.92663265034298));
#582 = CARTESIAN_POINT('',(56.51620848991509,700013.0,53.92663265034421));
#583 = CARTESIAN_POINT('',(56.51620848991509,680013.0,53.92663265034543));
#584 = CARTESIAN_POINT('',(56.51620848991509,660013.0,53.92663265034666));
#585 = CARTESIAN_POINT('',(56.516208489915094,640013.0,53.926632650347884));
#586 = CARTESIAN_POINT('',(56.51620848991509,620013.0,53.926632650349106));
#587 = CARTESIAN_POINT('',(56.51620848991508,600013.0,53.92663265035033));
#588 = CARTESIAN_POINT('',(56.51620848991509,580013.0,53.92663265035155));
#589 = CARTESIAN_POINT('',(56.51620848991509,560013.0,53.92663265035278));
#590 = CARTESIAN_POINT('',(56.516208489915094,540013.0,53.926632650354));
#591 = CARTESIAN_POINT('',(56.51620848991509,520013.0,53.92663265035522));
#592 = CARTESIAN_POINT('',(56.51620848991509,500013.0,53.926632650356446));
#593 = CARTESIAN_POINT('',(56.51620848991509,480013.0,53.926632650357675));
#594 = CARTESIAN_POINT('',(56.51620848991509,460013.0,53.926632650358904));
#595 = CARTESIAN_POINT('',(56.516208489915094,440013.0,53.92663265036013));
#596 = CARTESIAN_POINT('',(56.51620848991509,420013.0,53.926632650361356));
#597 = CARTESIAN_POINT('',(56.51620848991509,400013.0,53.92663265036257));
#598 = CARTESIAN_POINT('',(56.51620848991509,380013.0,53.9266326503638));
#599 = CARTESIAN_POINT('',(56.51620848991509,360013.0,53.92663265036502));
#600 = CARTESIAN_POINT('',(56.516208489915094,340013.0,53.92663265036625));
#601 = CARTESIAN_POINT('',(56.51620848991509,320013.0,53.92663265036747));
#602 = CARTESIAN_POINT('',(56.51620848991509,300013.0,53.926632650368695));
#603 = CARTESIAN_POINT('',(56.51620848991509,280013.0,53.926632650369925));
#604 = CARTESIAN_POINT('',(56.51620848991509,260013.0,53.92663265037115));
#605 = CARTESIAN_POINT('',(56.51620848991509,240013.00000000003,53.92663265037237));
#606 = CARTESIAN_POINT('',(56.51620848991509,220013.0,53.92663265037359));
#607 = CARTESIAN_POINT('',(56.51620848991509,200013.0,53.92663265037482));
#608 = CARTESIAN_POINT('',(56.51620848991509,180013.0,53.92663265037605));
#609 = CARTESIAN_POINT('',(56.51620848991509,160013.0,53.92663265037727));
#610 = CARTESIAN_POINT('',(56.516208489915094,140013.0,53.9266326503785));
#611 = CARTESIAN_POINT('',(56.51620848991509,120013.0,53.926632650379716));
#612 = CARTESIAN_POINT('',(56.51620848991509,100013.0,53.926632650380945));
#613 = CARTESIAN_POINT('',(56.51620848991509,80013.0,53.92663265038217));
#614 = CARTESIAN_POINT('',(56.51620848991509,60013.0,53.9266326503834));
#615 = CARTESIAN_POINT('',(56.516208489915094,40013.0,53.92663265038462));
#616 = CARTESIAN_POINT('',(56.51620848991509,20013.0,53.92663265038584));
#617 = CARTESIAN_POINT('',(56.51620848991509,13.0,53.92663265038707));
#618 = CARTESIAN_POINT('',(56.51620848991509,-19987.000000000004,53.926632650388285));
#619 = CARTESIAN_POINT('',(56.51620848991509,-39987.00000000001,53.926632650389514));
#620 = CARTESIAN_POINT('',(56.516208489915094,-59987.00000000001,53.926632650390744));
#621 = CARTESIAN_POINT('',(56.51620848991509,-79987.0,53.926632650391966));
#622 = CARTESIAN_POINT('',(56.51620848991508,-99987.0,53.92663265039319));
#623 = CARTESIAN_POINT('',(56.51620848991509,-119987.0,53.92663265039441));
#624 = CARTESIAN_POINT('',(56.51620848991509,-139987.0,53.92663265039564));
#625 = CARTESIAN_POINT('',(56.516208489915094,-159987.0,53.92663265039687));
#626 = CARTESIAN_POINT('',(56.51620848991509,-179987.0,53.92663265039809));
#627 = CARTESIAN_POINT('',(56.51620848991509,-199987.0,53.92663265039931));
#628 = CARTESIAN_POINT('',(56.51620848991509,-219987.0,53.926632650400535));
#629 = CARTESIAN_POINT('',(56.51620848991509,-239987.0,53.92663265040176));
#630 = CARTESIAN_POINT('',(56.516208489915094,-259987.0,53.926632650402986));
#631 = CARTESIAN_POINT('',(56.51620848991509,-279987.0,53.92663265040421));
#632 = CARTESIAN_POINT('',(56.51620848991509,-299987.0,53.92663265040543));
#633 = CARTESIAN_POINT('',(56.51620848991509,-319987.0,53.92663265040666));
#634 = CARTESIAN_POINT('',(56.51620848991509,-339987.0,53.92663265040789));
#635 = CARTESIAN_POINT('',(56.516208489915094,-359987.00000000006,53.92663265040912));
#636 = CARTESIAN_POINT('',(56.51620848991509,-379987.0,53.92663265041033));
#637 = CARTESIAN_POINT('',(56.51620848991509,-399987.0,53.926632650411555));
#638 = CARTESIAN_POINT('',(56.51620848991509,-419987.0,53.926632650412785));
#639 = CARTESIAN_POINT('',(56.51620848991509,-439987.0,53.92663265041401));
#640 = CARTESIAN_POINT('',(56.51620848991509,-459987.00000000006,53.926632650415236));
#641 = CARTESIAN_POINT('',(56.51620848991509,-479987.0,53.92663265041645));
#642 = CARTESIAN_POINT('',(56.51620848991509,-499987.0,53.92663265041768));
#643 = CARTESIAN_POINT('',(56.51620848991509,-519987.0,53.92663265041891));
#644 = CARTESIAN_POINT('',(56.51620848991509,-539987.0,53.92663265042013));
#645 = CARTESIAN_POINT('',(56.516208489915094,-559987.0,53.92663265042136));
#646 = CARTESIAN_POINT('',(56.51620848991509,-579987.0,53.926632650422576));
#647 = CARTESIAN_POINT('',(56.51620848991509,-599987.0,53.926632650423805));
#648 = CARTESIAN_POINT('',(56.51620848991509,-619987.0,53.92663265042503));
#649 = CARTESIAN_POINT('',(56.51620848991509,-639987.0,53.92663265042626));
#650 = CARTESIAN_POINT('',(56.51620848991509,-659987.0,53.926632650427486));
#651 = CARTESIAN_POINT('',(56.51620848991509,-679987.0,53.92663265042871));
#652 = CARTESIAN_POINT('',(56.51620848991509,-699987.0,53.92663265042993));
#653 = CARTESIAN_POINT('',(56.51620848991509,-719987.0,53.92663265043116));
#654 = CARTESIAN_POINT('',(56.51620848991509,-739987.0,53.926632650432374));
#655 = CARTESIAN_POINT('',(56.516208489915094,-759987.0,53.9266326504336));
#656 = CARTESIAN_POINT('',(56.51620848991509,-779987.0,53.926632650434826));
#657 = CARTESIAN_POINT('',(56.51620848991509,-799987.0,53.926632650436055));
#658 = CARTESIAN_POINT('',(56.51620848991509,-819987.0,53.92663265043728));
#659 = CARTESIAN_POINT('',(56.51620848991509,-839987.0,53.9266326504385));
#660 = CARTESIAN_POINT('',(56.516208489915094,-859987.0000000001,53.92663265043973));
#661 = CARTESIAN_POINT('',(56.51620848991509,-879987.0,53.92663265044095));
#662 = CARTESIAN_POINT('',(56.51620848991509,-899987.0,53.92663265044218));
#663 = CARTESIAN_POINT('',(56.51620848991509,-919987.0,53.9266326504434));
#664 = CARTESIAN_POINT('',(56.51620848991509,-939987.0,53.926632650444624));
#665 = CARTESIAN_POINT('',(56.516208489915094,-959987.0000000001,53.92663265044585));
#666 = CARTESIAN_POINT('',(56.51620848991509,-979987.0,53.926632650447075));
#667 = B_SPLINE_CURVE_WITH_KNOTS('',3,(#564,#568,#569,#570,#571,#572,#573,#574,#575,#576,#577,#578,#579,#580,#581,#582,#583,#584,#585,#586,#587,#588,#589,#590,#591,#592,#593,#594,#595,#596,#597,#598,#599,#600,#601,#602,#603,#604,#605,#606,#607,#608,#609,#610,#611,#612,#613,#614,#615,#616,#617,#618,#619,#620,#621,#622,#623,#624,#625,#626,#627,#628,#629,#630,#631,#632,#633,#634,#635,#636,#637,#638,#639,#640,#641,#642,#643,#644,#645,#646,#647,#648,#649,#650,#651,#652,#653,#654,#655,#656,#657,#658,#659,#660,#661,#662,#663,#664,#665,#666,#566),.UNSPECIFIED.,.F.,.F.,(4,1,1,1,1,1,1,1,1,1,1,1,1,1,1,1,1,1,1,1,1,1,1,1,1,1,1,1,1,1,1,1,1,1,1,1,1,1,1,1,1,1,1,1,1,1,1,1,1,1,1,1,1,1,1,1,1,1,1,1,1,1,1,1,1,1,1,1,1,1,1,1,1,1,1,1,1,1,1,1,1,1,1,1,1,1,1,1,1,1,1,1,1,1,1,1,1,1,4),(0.0,0.01020408163265306,0.02040816326530612,0.030612244897959183,0.04081632653061224,0.05102040816326531,0.061224489795918366,0.07142857142857142,0.08163265306122448,0.09183673469387756,0.10204081632653061,0.11224489795918367,0.12244897959183673,0.1326530612244898,0.14285714285714285,0.15306122448979592,0.16326530612244897,0.17346938775510204,0.1836734693877551,0.19387755102040816,0.20408163265306123,0.21428571428571427,0.22448979591836735,0.23469387755102042,0.24489795918367346,0.25510204081632654,0.2653061224489796,0.2755102040816326,0.2857142857142857,0.29591836734693877,0.30612244897959184,0.3163265306122449,0.32653061224489793,0.336734693877551,0.3469387755102041,0.35714285714285715,0.3673469387755102,0.37755102040816324,0.3877551020408163,0.3979591836734694,0.40816326530612246,0.41836734693877553,0.42857142857142855,0.4387755102040816,0.4489795918367347,0.45918367346938777,0.46938775510204084,0.47959183673469385,0.4897959183673469,0.5,0.5102040816326531,0.5204081632653061,0.5306122448979592,0.5408163265306123,0.5510204081632653,0.5612244897959183,0.5714285714285714,0.5816326530612245,0.5918367346938775,0.6020408163265306,0.6122448979591837,0.6224489795918368,0.6326530612244898,0.6428571428571429,0.6530612244897959,0.6632653061224489,0.673469387755102,0.6836734693877551,0.6938775510204082,0.7040816326530612,0.7142857142857143,0.7244897959183674,0.7346938775510204,0.7448979591836735,0.7551020408163265,0.7653061224489796,0.7755102040816326,0.7857142857142857,0.7959183673469388,0.8061224489795918,0.8163265306122449,0.826530612244898,0.8367346938775511,0.8469387755102041,0.8571428571428571,0.8673469387755102,0.8775510204081632,0.8877551020408163,0.8979591836734694,0.9081632653061225,0.9183673469387755,0.9285714285714286,0.9387755102040817,0.9489795918367347,0.9591836734693877,0.9693877551020408,0.9795918367346939,0.9897959183673469,1.0),.UNSPECIFIED.);
#668 = EDGE_CURVE('',#565,#567,667,.T.);
#669 = ORIENTED_EDGE('',*,*,#668,.F.);
#670 = CARTESIAN_POINT('',(85.0,840013.0,-25.000000000051433));
#671 = VERTEX_POINT('',#670);
#672 = CARTESIAN_POINT('',(85.0,840013.0,-25.00000000005143));
#673 = VERTEX_POINT('',#672);
#674 = CARTESIAN_POINT('',(100.0,840013.0,-25.000000000051433));
#675 = AXIS2_PLACEMENT_3D('',#674,#56,#10);
#676 = CIRCLE('',#675,15.0);
#677 = EDGE_CURVE('',#671,#673,676,.T.);
#678 = ORIENTED_EDGE('',*,*,#677,.T.);
#679 = EDGE_LOOP('',(#669,#678));
#680 = FACE_BOUND('',#679,.T.);
#681 = CARTESIAN_POINT('',(150000000100.0,50.0,-35.0));
#682 = VERTEX_POINT('',#681);
#683 = CARTESIAN_POINT('',(100.0,50.0,-35.0));
#684 = AXIS2_PLACEMENT_3D('',#683,#22,#3);
#685 = ELLIPSE('',#684,150000000000.0,11.180339887498949);
#686 = EDGE_CURVE('',#682,#682,685,.T.);
#687 = ORIENTED_EDGE('',*,*,#686,.T.);
#688 = EDGE_LOOP('',(#687));
#689 = FACE_BOUND('',#688,.T.);
#690 = CARTESIAN_POINT('',(115.0,-5.0,-25.0));
#691 = VERTEX_POINT('',#690);
#692 = CARTESIAN_POINT('',(115.0,-5.0,-24.999999999999996));
#693 = VERTEX_POINT('',#692);
#694 = CARTESIAN_POINT('',(100.0,-5.0,-25.0));
#695 = AXIS2_PLACEMENT_3D('',#694,#23,#3);
#696 = CIRCLE('',#695,15.0);
#697 = EDGE_CURVE('',#691,#693,696,.T.);
#698 = ORIENTED_EDGE('',*,*,#697,.T.);
#699 = EDGE_LOOP('',(#698));
#700 = FACE_BOUND('',#699,.T.);
#701 = CARTESIAN_POINT('',(85.0,5.0,-25.0));
#702 = VERTEX_POINT('',#701);
#703 = CARTESIAN_POINT('',(85.0,5.0,-24.999999999999996));
#704 = VERTEX_POINT('',#703);
#705 = CARTESIAN_POINT('',(100.0,5.0,-25.0));
#706 = AXIS2_PLACEMENT_3D('',#705,#56,#10);
#707 = CIRCLE('',#706,15.0);
#708 = EDGE_CURVE('',#702,#704,707,.T.);
#709 = ORIENTED_EDGE('',*,*,#708,.T.);
#710 = EDGE_LOOP('',(#709));
#711 = FACE_BOUND('',#710,.T.);
#712 = ORIENTED_EDGE('',*,*,#686,.T.);
#713 = EDGE_LOOP('',(#712));
#714 = FACE_BOUND('',#713,.T.);
#715 = CARTESIAN_POINT('',(115.0,85.0,-25.0));
#716 = VERTEX_POINT('',#715);
#717 = CARTESIAN_POINT('',(115.0,85.0,-24.999999999999996));
#718 = VERTEX_POINT('',#717);
#719 = CARTESIAN_POINT('',(100.0,85.0,-25.0));
#720 = AXIS2_PLACEMENT_3D('',#719,#23,#3);
#721 = CIRCLE('',#720,15.0);
#722 = EDGE_CURVE('',#716,#718,721,.T.);
#723 = ORIENTED_EDGE('',*,*,#722,.T.);
#724 = EDGE_LOOP('',(#723));
#725 = FACE_BOUND('',#724,.T.);
#726 = CARTESIAN_POINT('',(85.0,95.0,-25.0));
#727 = VERTEX_POINT('',#726);
#728 = CARTESIAN_POINT('',(85.0,95.0,-24.999999999999996));
#729 = VERTEX_POINT('',#728);
#730 = CARTESIAN_POINT('',(100.0,95.0,-25.0));
#731 = AXIS2_PLACEMENT_3D('',#730,#56,#10);
#732 = CIRCLE('',#731,15.0);
#733 = EDGE_CURVE('',#727,#729,732,.T.);
#734 = ORIENTED_EDGE('',*,*,#733,.T.);
#735 = EDGE_LOOP('',(#734));
#736 = FACE_BOUND('',#735,.T.);
#737 = ORIENTED_EDGE('',*,*,#686,.T.);
#738 = EDGE_LOOP('',(#737));
#739 = FACE_BOUND('',#738,.T.);
#740 = ORIENTED_EDGE('',*,*,#697,.T.);
#741 = EDGE_LOOP('',(#740));
#742 = FACE_BOUND('',#741,.T.);
#743 = ORIENTED_EDGE('',*,*,#708,.T.);
#744 = EDGE_LOOP('',(#743));
#745 = FACE_BOUND('',#744,.T.);
#746 = ORIENTED_EDGE('',*,*,#686,.T.);
#747 = EDGE_LOOP('',(#746));
#748 = FACE_BOUND('',#747,.T.);
#749 = ORIENTED_EDGE('',*,*,#722,.T.);
#750 = EDGE_LOOP('',(#749));
#751 = FACE_BOUND('',#750,.T.);
#752 = ORIENTED_EDGE('',*,*,#733,.T.);
#753 = EDGE_LOOP('',(#752));
#754 = FACE_BOUND('',#753,.T.);
#755 = ADVANCED_FACE('',(#680,#689,#700,#711,#714,#725,#736,#739,#742,#745,#748,#751,#754),#563,.T.,.F.);
#756 = ORIENTED_EDGE('',*,*,#668,.F.);
#757 = ORIENTED_EDGE('',*,*,#677,.T.);
#758 = EDGE_LOOP('',(#756,#757));
#759 = FACE_BOUND('',#758,.T.);
#760 = ORIENTED_EDGE('',*,*,#686,.T.);
#761 = EDGE_LOOP('',(#760));
#762 = FACE_BOUND('',#761,.T.);
#763 = ORIENTED_EDGE('',*,*,#697,.T.);
#764 = EDGE_LOOP('',(#763));
#765 = FACE_BOUND('',#764,.T.);
#766 = ORIENTED_EDGE('',*,*,#708,.T.);
#767 = EDGE_LOOP('',(#766));
#768 = FACE_BOUND('',#767,.T.);
#769 = ORIENTED_EDGE('',*,*,#686,.T.);
#770 = EDGE_LOOP('',(#769));
#771 = FACE_BOUND('',#770,.T.);
#772 = ORIENTED_EDGE('',*,*,#722,.T.);
#773 = EDGE_LOOP('',(#772));
#774 = FACE_BOUND('',#773,.T.);
#775 = ORIENTED_EDGE('',*,*,#733,.T.);
#776 = EDGE_LOOP('',(#775));
#777 = FACE_BOUND('',#776,.T.);
#778 = ORIENTED_EDGE('',*,*,#686,.T.);
#779 = EDGE_LOOP('',(#778));
#780 = FACE_BOUND('',#779,.T.);
#781 = ORIENTED_EDGE('',*,*,#697,.T.);
#782 = EDGE_LOOP('',(#781));
#783 = FACE_BOUND('',#782,.T.);
#784 = ORIENTED_EDGE('',*,*,#708,.T.);
#785 = EDGE_LOOP('',(#784));
#786 = FACE_BOUND('',#785,.T.);
#787 = ORIENTED_EDGE('',*,*,#686,.T.);
#788 = EDGE_LOOP('',(#787));
#789 = FACE_BOUND('',#788,.T.);
#790 = ORIENTED_EDGE('',*,*,#722,.T.);
#791 = EDGE_LOOP('',(#790));
#792 = FACE_BOUND('',#791,.T.);
#793 = ORIENTED_EDGE('',*,*,#733,.T.);
#794 = EDGE_LOOP('',(#793));
#795 = FACE_BOUND('',#794,.T.);
#796 = ADVANCED_FACE('',(#759,#762,#765,#768,#771,#774,#777,#780,#783,#786,#789,#792,#795),#563,.T.,.F.);
#797 = CARTESIAN_POINT('',(60.0,10.0,-35.0));
#798 = AXIS2_PLACEMENT_3D('',#797,#2,#3);
#799 = PLANE('',#798);
#800 = CARTESIAN_POINT('',(0.0,50.0,-35.0));
#801 = VERTEX_POINT('',#800);
#802 = CARTESIAN_POINT('',(-1.0,50.0,-35.0));
#803 = VERTEX_POINT('',#802);
#804 = LINE('',#800,#10);
#805 = EDGE_CURVE('',#801,#803,804,.T.);
#806 = ORIENTED_EDGE('',*,*,#805,.T.);
#807 = CARTESIAN_POINT('',(60.0,50.0,-35.0));
#808 = VERTEX_POINT('',#807);
#809 = VERTEX_POINT('',#797);
#810 = LINE('',#807,#56);
#811 = EDGE_CURVE('',#808,#809,810,.T.);
#812 = ORIENTED_EDGE('',*,*,#811,.T.);
#813 = CARTESIAN_POINT('',(100.0,10.0,-35.0));
#814 = VERTEX_POINT('',#813);
#815 = LINE('',#797,#3);
#816 = EDGE_CURVE('',#809,#814,815,.T.);
#817 = ORIENTED_EDGE('',*,*,#816,.T.);
#818 = LINE('',#813,#3);
#819 = EDGE_CURVE('',#814,#682,818,.T.);
#820 = ORIENTED_EDGE('',*,*,#819,.T.);
#821 = ORIENTED_EDGE('',*,*,#805,.T.);
#822 = ORIENTED_EDGE('',*,*,#805,.T.);
#823 = EDGE_LOOP('',(#806,#812,#817,#820,#821,#822));
#824 = FACE_BOUND('',#823,.T.);
#825 = ADVANCED_FACE('',(#824),#799,.T.,.F.);
#826 = CARTESIAN_POINT('',(60.0,10.0,-25.0));
#827 = AXIS2_PLACEMENT_3D('',#826,#22,#23);
#828 = PLANE('',#827);
#829 = VERTEX_POINT('',#826);
#830 = CARTESIAN_POINT('',(60.0,50.0,-25.0));
#831 = VERTEX_POINT('',#830);
#832 = LINE('',#826,#23);
#833 = EDGE_CURVE('',#829,#831,832,.T.);
#834 = ORIENTED_EDGE('',*,*,#833,.T.);
#835 = LINE('',#830,#3);
#836 = EDGE_CURVE('',#831,#489,835,.T.);
#837 = ORIENTED_EDGE('',*,*,#836,.T.);
#838 = CARTESIAN_POINT('',(100.0,10.0,-25.0));
#839 = VERTEX_POINT('',#838);
#840 = LINE('',#446,#56);
#841 = EDGE_CURVE('',#489,#839,840,.T.);
#842 = ORIENTED_EDGE('',*,*,#841,.T.);
#843 = LINE('',#838,#10);
#844 = EDGE_CURVE('',#839,#829,843,.T.);
#845 = ORIENTED_EDGE('',*,*,#844,.T.);
#846 = EDGE_LOOP('',(#834,#837,#842,#845));
#847 = FACE_BOUND('',#846,.T.);
#848 = ADVANCED_FACE('',(#847),#828,.T.,.F.);
#849 = AXIS2_PLACEMENT_3D('',#797,#23,#2);
#850 = PLANE('',#849);
#851 = LINE('',#797,#2);
#852 = EDGE_CURVE('',#809,#829,851,.T.);
#853 = ORIENTED_EDGE('',*,*,#852,.T.);
#854 = LINE('',#826,#3);
#855 = EDGE_CURVE('',#829,#839,854,.T.);
#856 = ORIENTED_EDGE('',*,*,#855,.T.);
#857 = LINE('',#838,#22);
#858 = EDGE_CURVE('',#839,#814,857,.T.);
#859 = ORIENTED_EDGE('',*,*,#858,.T.);
#860 = LINE('',#813,#10);
#861 = EDGE_CURVE('',#814,#809,860,.T.);
#862 = ORIENTED_EDGE('',*,*,#861,.T.);
#863 = EDGE_LOOP('',(#853,#856,#859,#862));
#864 = FACE_BOUND('',#863,.T.);
#865 = CARTESIAN_POINT('',(115.0,10.0,-25.0));
#866 = VERTEX_POINT('',#865);
#867 = CARTESIAN_POINT('',(115.0,10.0,-24.999999999999996));
#868 = VERTEX_POINT('',#867);
#869 = AXIS2_PLACEMENT_3D('',#838,#23,#3);
#870 = CIRCLE('',#869,15.0);
#871 = EDGE_CURVE('',#866,#868,870,.T.);
#872 = ORIENTED_EDGE('',*,*,#871,.T.);
#873 = EDGE_LOOP('',(#872));
#874 = FACE_BOUND('',#873,.T.);
#875 = ADVANCED_FACE('',(#864,#874),#850,.T.,.F.);
#876 = AXIS2_PLACEMENT_3D('',#807,#56,#3);
#877 = PLANE('',#876);
#878 = VERTEX_POINT('',#683);
#879 = LINE('',#807,#3);
#880 = EDGE_CURVE('',#808,#878,879,.T.);
#881 = ORIENTED_EDGE('',*,*,#880,.T.);
#882 = LINE('',#683,#2);
#883 = EDGE_CURVE('',#878,#489,882,.T.);
#884 = ORIENTED_EDGE('',*,*,#883,.T.);
#885 = LINE('',#446,#10);
#886 = EDGE_CURVE('',#489,#831,885,.T.);
#887 = ORIENTED_EDGE('',*,*,#886,.T.);
#888 = LINE('',#830,#22);
#889 = EDGE_CURVE('',#831,#808,888,.T.);
#890 = ORIENTED_EDGE('',*,*,#889,.T.);
#891 = EDGE_LOOP('',(#881,#884,#887,#890));
#892 = FACE_BOUND('',#891,.T.);
#893 = ORIENTED_EDGE('',*,*,#449,.T.);
#894 = EDGE_LOOP('',(#893));
#895 = FACE_BOUND('',#894,.T.);
#896 = ADVANCED_FACE('',(#892,#895),#877,.T.,.F.);
#897 = AXIS2_PLACEMENT_3D('',#797,#3,#23);
#898 = PLANE('',#897);
#899 = LINE('',#797,#23);
#900 = EDGE_CURVE('',#809,#808,899,.T.);
#901 = ORIENTED_EDGE('',*,*,#900,.T.);
#902 = LINE('',#807,#2);
#903 = EDGE_CURVE('',#808,#831,902,.T.);
#904 = ORIENTED_EDGE('',*,*,#903,.T.);
#905 = LINE('',#830,#56);
#906 = EDGE_CURVE('',#831,#829,905,.T.);
#907 = ORIENTED_EDGE('',*,*,#906,.T.);
#908 = LINE('',#826,#22);
#909 = EDGE_CURVE('',#829,#809,908,.T.);
#910 = ORIENTED_EDGE('',*,*,#909,.T.);
#911 = EDGE_LOOP('',(#901,#904,#907,#910));
#912 = FACE_BOUND('',#911,.T.);
#913 = ADVANCED_FACE('',(#912),#898,.T.,.F.);
#914 = LINE('',#813,#23);
#915 = EDGE_CURVE('',#814,#878,914,.T.);
#916 = ORIENTED_EDGE('',*,*,#915,.T.);
#917 = ORIENTED_EDGE('',*,*,#805,.T.);
#918 = ORIENTED_EDGE('',*,*,#805,.T.);
#919 = ORIENTED_EDGE('',*,*,#819,.T.);
#920 = EDGE_LOOP('',(#916,#917,#918,#919));
#921 = FACE_BOUND('',#920,.T.);
#922 = ADVANCED_FACE('',(#921),#799,.T.,.F.);
#923 = CARTESIAN_POINT('',(60.0,10.0,75.0));
#924 = AXIS2_PLACEMENT_3D('',#923,#2,#3);
#925 = PLANE('',#924);
#926 = VERTEX_POINT('',#923);
#927 = CARTESIAN_POINT('',(100.0,10.0,75.0));
#928 = VERTEX_POINT('',#927);
#929 = LINE('',#923,#3);
#930 = EDGE_CURVE('',#926,#928,929,.T.);
#931 = ORIENTED_EDGE('',*,*,#930,.T.);
#932 = CARTESIAN_POINT('',(100.0,50.0,75.0));
#933 = VERTEX_POINT('',#932);
#934 = LINE('',#927,#23);
#935 = EDGE_CURVE('',#928,#933,934,.T.);
#936 = ORIENTED_EDGE('',*,*,#935,.T.);
#937 = CARTESIAN_POINT('',(60.0,50.0,75.0));
#938 = VERTEX_POINT('',#937);
#939 = LINE('',#932,#10);
#940 = EDGE_CURVE('',#933,#938,939,.T.);
#941 = ORIENTED_EDGE('',*,*,#940,.T.);
#942 = LINE('',#937,#56);
#943 = EDGE_CURVE('',#938,#926,942,.T.);
#944 = ORIENTED_EDGE('',*,*,#943,.T.);
#945 = EDGE_LOOP('',(#931,#936,#941,#944));
#946 = FACE_BOUND('',#945,.T.);
#947 = ADVANCED_FACE('',(#946),#925,.T.,.F.);
#948 = CARTESIAN_POINT('',(60.0,10.0,85.0));
#949 = AXIS2_PLACEMENT_3D('',#948,#22,#23);
#950 = PLANE('',#949);
#951 = VERTEX_POINT('',#948);
#952 = CARTESIAN_POINT('',(60.0,50.0,85.0));
#953 = VERTEX_POINT('',#952);
#954 = LINE('',#948,#23);
#955 = EDGE_CURVE('',#951,#953,954,.T.);
#956 = ORIENTED_EDGE('',*,*,#955,.T.);
#957 = CARTESIAN_POINT('',(100.0,50.0,85.0));
#958 = VERTEX_POINT('',#957);
#959 = LINE('',#952,#3);
#960 = EDGE_CURVE('',#953,#958,959,.T.);
#961 = ORIENTED_EDGE('',*,*,#960,.T.);
#962 = CARTESIAN_POINT('',(100.0,10.0,85.0));
#963 = VERTEX_POINT('',#962);
#964 = LINE('',#957,#56);
#965 = EDGE_CURVE('',#958,#963,964,.T.);
#966 = ORIENTED_EDGE('',*,*,#965,.T.);
#967 = LINE('',#962,#10);
#968 = EDGE_CURVE('',#963,#951,967,.T.);
#969 = ORIENTED_EDGE('',*,*,#968,.T.);
#970 = EDGE_LOOP('',(#956,#961,#966,#969));
#971 = FACE_BOUND('',#970,.T.);
#972 = ADVANCED_FACE('',(#971),#950,.T.,.F.);
#973 = AXIS2_PLACEMENT_3D('',#923,#23,#2);
#974 = PLANE('',#973);
#975 = LINE('',#923,#2);
#976 = EDGE_CURVE('',#926,#951,975,.T.);
#977 = ORIENTED_EDGE('',*,*,#976,.T.);
#978 = LINE('',#948,#3);
#979 = EDGE_CURVE('',#951,#963,978,.T.);
#980 = ORIENTED_EDGE('',*,*,#979,.T.);
#981 = LINE('',#962,#22);
#982 = EDGE_CURVE('',#963,#928,981,.T.);
#983 = ORIENTED_EDGE('',*,*,#982,.T.);
#984 = LINE('',#927,#10);
#985 = EDGE_CURVE('',#928,#926,984,.T.);
#986 = ORIENTED_EDGE('',*,*,#985,.T.);
#987 = EDGE_LOOP('',(#977,#980,#983,#986));
#988 = FACE_BOUND('',#987,.T.);
#989 = ADVANCED_FACE('',(#988),#974,.T.,.F.);
#990 = AXIS2_PLACEMENT_3D('',#937,#56,#3);
#991 = PLANE('',#990);
#992 = LINE('',#937,#3);
#993 = EDGE_CURVE('',#938,#933,992,.T.);
#994 = ORIENTED_EDGE('',*,*,#993,.T.);
#995 = LINE('',#932,#2);
#996 = EDGE_CURVE('',#933,#958,995,.T.);
#997 = ORIENTED_EDGE('',*,*,#996,.T.);
#998 = LINE('',#957,#10);
#999 = EDGE_CURVE('',#958,#953,998,.T.);
#1000 = ORIENTED_EDGE('',*,*,#999,.T.);
#1001 = LINE('',#952,#22);
#1002 = EDGE_CURVE('',#953,#938,1001,.T.);
#1003 = ORIENTED_EDGE('',*,*,#1002,.T.);
#1004 = EDGE_LOOP('',(#994,#997,#1000,#1003));
#1005 = FACE_BOUND('',#1004,.T.);
#1006 = ADVANCED_FACE('',(#1005),#991,.T.,.F.);
#1007 = AXIS2_PLACEMENT_3D('',#923,#3,#23);
#1008 = PLANE('',#1007);
#1009 = LINE('',#923,#23);
#1010 = EDGE_CURVE('',#926,#938,1009,.T.);
#1011 = ORIENTED_EDGE('',*,*,#1010,.T.);
#1012 = LINE('',#937,#2);
#1013 = EDGE_CURVE('',#938,#953,1012,.T.);
#1014 = ORIENTED_EDGE('',*,*,#1013,.T.);
#1015 = LINE('',#952,#56);
#1016 = EDGE_CURVE('',#953,#951,1015,.T.);
#1017 = ORIENTED_EDGE('',*,*,#1016,.T.);
#1018 = LINE('',#948,#22);
#1019 = EDGE_CURVE('',#951,#926,1018,.T.);
#1020 = ORIENTED_EDGE('',*,*,#1019,.T.);
#1021 = EDGE_LOOP('',(#1011,#1014,#1017,#1020));
#1022 = FACE_BOUND('',#1021,.T.);
#1023 = ADVANCED_FACE('',(#1022),#1008,.T.,.F.);
#1024 = AXIS2_PLACEMENT_3D('',#927,#10,#2);
#1025 = PLANE('',#1024);
#1026 = LINE('',#927,#2);
#1027 = EDGE_CURVE('',#928,#963,1026,.T.);
#1028 = ORIENTED_EDGE('',*,*,#1027,.T.);
#1029 = LINE('',#962,#23);
#1030 = EDGE_CURVE('',#963,#958,1029,.T.);
#1031 = ORIENTED_EDGE('',*,*,#1030,.T.);
#1032 = LINE('',#957,#22);
#1033 = EDGE_CURVE('',#958,#933,1032,.T.);
#1034 = ORIENTED_EDGE('',*,*,#1033,.T.);
#1035 = LINE('',#932,#56);
#1036 = EDGE_CURVE('',#933,#928,1035,.T.);
#1037 = ORIENTED_EDGE('',*,*,#1036,.T.);
#1038 = EDGE_LOOP('',(#1028,#1031,#1034,#1037));
#1039 = FACE_BOUND('',#1038,.T.);
#1040 = ADVANCED_FACE('',(#1039),#1025,.T.,.F.);
#1041 = ORIENTED_EDGE('',*,*,#668,.F.);
#1042 = ORIENTED_EDGE('',*,*,#677,.T.);
#1043 = EDGE_LOOP('',(#1041,#1042));
#1044 = FACE_BOUND('',#1043,.T.);
#1045 = ORIENTED_EDGE('',*,*,#686,.T.);
#1046 = EDGE_LOOP('',(#1045));
#1047 = FACE_BOUND('',#1046,.T.);
#1048 = ORIENTED_EDGE('',*,*,#697,.T.);
#1049 = EDGE_LOOP('',(#1048));
#1050 = FACE_BOUND('',#1049,.T.);
#1051 = ORIENTED_EDGE('',*,*,#708,.T.);
#1052 = EDGE_LOOP('',(#1051));
#1053 = FACE_BOUND('',#1052,.T.);
#1054 = ORIENTED_EDGE('',*,*,#686,.T.);
#1055 = EDGE_LOOP('',(#1054));
#1056 = FACE_BOUND('',#1055,.T.);
#1057 = ORIENTED_EDGE('',*,*,#722,.T.);
#1058 = EDGE_LOOP('',(#1057));
#1059 = FACE_BOUND('',#1058,.T.);
#1060 = ORIENTED_EDGE('',*,*,#733,.T.);
#1061 = EDGE_LOOP('',(#1060));
#1062 = FACE_BOUND('',#1061,.T.);
#1063 = ORIENTED_EDGE('',*,*,#686,.T.);
#1064 = EDGE_LOOP('',(#1063));
#1065 = FACE_BOUND('',#1064,.T.);
#1066 = ORIENTED_EDGE('',*,*,#697,.T.);
#1067 = EDGE_LOOP('',(#1066));
#1068 = FACE_BOUND('',#1067,.T.);
#1069 = ORIENTED_EDGE('',*,*,#708,.T.);
#1070 = EDGE_LOOP('',(#1069));
#1071 = FACE_BOUND('',#1070,.T.);
#1072 = ORIENTED_EDGE('',*,*,#686,.T.);
#1073 = EDGE_LOOP('',(#1072));
#1074 = FACE_BOUND('',#1073,.T.);
#1075 = ORIENTED_EDGE('',*,*,#722,.T.);
#1076 = EDGE_LOOP('',(#1075));
#1077 = FACE_BOUND('',#1076,.T.);
#1078 = ORIENTED_EDGE('',*,*,#733,.T.);
#1079 = EDGE_LOOP('',(#1078));
#1080 = FACE_BOUND('',#1079,.T.);
#1081 = ADVANCED_FACE('',(#1044,#1047,#1050,#1053,#1056,#1059,#1062,#1065,#1068,#1071,#1074,#1077,#1080),#563,.T.,.F.);
#1082 = ORIENTED_EDGE('',*,*,#668,.F.);
#1083 = ORIENTED_EDGE('',*,*,#677,.T.);
#1084 = EDGE_LOOP('',(#1082,#1083));
#1085 = FACE_BOUND('',#1084,.T.);
#1086 = ORIENTED_EDGE('',*,*,#686,.T.);
#1087 = EDGE_LOOP('',(#1086));
#1088 = FACE_BOUND('',#1087,.T.);
#1089 = ORIENTED_EDGE('',*,*,#697,.T.);
#1090 = EDGE_LOOP('',(#1089));
#1091 = FACE_BOUND('',#1090,.T.);
#1092 = ORIENTED_EDGE('',*,*,#708,.T.);
#1093 = EDGE_LOOP('',(#1092));
#1094 = FACE_BOUND('',#1093,.T.);
#1095 = ORIENTED_EDGE('',*,*,#686,.T.);
#1096 = EDGE_LOOP('',(#1095));
#1097 = FACE_BOUND('',#1096,.T.);
#1098 = ORIENTED_EDGE('',*,*,#722,.T.);
#1099 = EDGE_LOOP('',(#1098));
#1100 = FACE_BOUND('',#1099,.T.);
#1101 = ORIENTED_EDGE('',*,*,#733,.T.);
#1102 = EDGE_LOOP('',(#1101));
#1103 = FACE_BOUND('',#1102,.T.);
#1104 = ORIENTED_EDGE('',*,*,#686,.T.);
#1105 = EDGE_LOOP('',(#1104));
#1106 = FACE_BOUND('',#1105,.T.);
#1107 = ORIENTED_EDGE('',*,*,#697,.T.);
#1108 = EDGE_LOOP('',(#1107));
#1109 = FACE_BOUND('',#1108,.T.);
#1110 = ORIENTED_EDGE('',*,*,#708,.T.);
#1111 = EDGE_LOOP('',(#1110));
#1112 = FACE_BOUND('',#1111,.T.);
#1113 = ORIENTED_EDGE('',*,*,#686,.T.);
#1114 = EDGE_LOOP('',(#1113));
#1115 = FACE_BOUND('',#1114,.T.);
#1116 = ORIENTED_EDGE('',*,*,#722,.T.);
#1117 = EDGE_LOOP('',(#1116));
#1118 = FACE_BOUND('',#1117,.T.);
#1119 = ORIENTED_EDGE('',*,*,#733,.T.);
#1120 = EDGE_LOOP('',(#1119));
#1121 = FACE_BOUND('',#1120,.T.);
#1122 = ADVANCED_FACE('',(#1085,#1088,#1091,#1094,#1097,#1100,#1103,#1106,#1109,#1112,#1115,#1118,#1121),#563,.T.,.F.);
#1123 = CARTESIAN_POINT('',(10.0,110.0,130.0));
#1124 = AXIS2_PLACEMENT_3D('',#1123,#56,#3);
#1125 = PLANE('',#1124);
#1126 = CARTESIAN_POINT('',(22.0,110.0,130.0));
#1127 = VERTEX_POINT('',#1126);
#1128 = CIRCLE('',#1124,12.0);
#1129 = EDGE_CURVE('',#1127,#1127,1128,.T.);
#1130 = ORIENTED_EDGE('',*,*,#1129,.F.);
#1131 = EDGE_LOOP('',(#1130));
#1132 = FACE_BOUND('',#1131,.T.);
#1133 = ADVANCED_FACE('',(#1132),#1125,.T.,.F.);
#1134 = CARTESIAN_POINT('',(10.0,-70.0,130.0));
#1135 = AXIS2_PLACEMENT_3D('',#1134,#56,#10);
#1136 = PLANE('',#1135);
#1137 = CARTESIAN_POINT('',(22.0,-70.0,130.0));
#1138 = VERTEX_POINT('',#1137);
#1139 = AXIS2_PLACEMENT_3D('',#1134,#56,#3);
#1140 = CIRCLE('',#1139,12.0);
#1141 = EDGE_CURVE('',#1138,#1138,1140,.T.);
#1142 = ORIENTED_EDGE('',*,*,#1141,.T.);
#1143 = EDGE_LOOP('',(#1142));
#1144 = FACE_BOUND('',#1143,.T.);
#1145 = ADVANCED_FACE('',(#1144),#1136,.T.,.F.);
#1146 = CYLINDRICAL_SURFACE('',#1124,12.0);
#1147 = CARTESIAN_POINT('',(23.0,1000043.0,129.99999999993878));
#1148 = VERTEX_POINT('',#1147);
#1149 = CARTESIAN_POINT('',(23.0,-999957.0,130.00000000006122));
#1150 = VERTEX_POINT('',#1149);
#1151 = CARTESIAN_POINT('',(23.0,980043.0,129.99999999994));
#1152 = CARTESIAN_POINT('',(23.0,960043.0,129.99999999994122));
#1153 = CARTESIAN_POINT('',(23.000000000000004,940043.0,129.99999999994245));
#1154 = CARTESIAN_POINT('',(23.0,920043.0,129.99999999994367));
#1155 = CARTESIAN_POINT('',(23.0,900043.0,129.9999999999449));
#1156 = CARTESIAN_POINT('',(23.0,880043.0,129.9999999999461));
#1157 = CARTESIAN_POINT('',(23.0,860043.0,129.99999999994736));
#1158 = CARTESIAN_POINT('',(23.000000000000004,840043.0,129.99999999994859));
#1159 = CARTESIAN_POINT('',(23.0,820043.0,129.99999999994978));
#1160 = CARTESIAN_POINT('',(23.0,800043.0,129.999999999951));
#1161 = CARTESIAN_POINT('',(23.0,780043.0,129.99999999995222));
#1162 = CARTESIAN_POINT('',(23.0,760043.0,129.99999999995345));
#1163 = CARTESIAN_POINT('',(23.000000000000004,740043.0,129.9999999999547));
#1164 = CARTESIAN_POINT('',(23.0,720043.0,129.99999999995592));
#1165 = CARTESIAN_POINT('',(23.0,700043.0,129.99999999995714));
#1166 = CARTESIAN_POINT('',(23.0,680043.0,129.99999999995836));
#1167 = CARTESIAN_POINT('',(23.0,660043.0,129.99999999995958));
#1168 = CARTESIAN_POINT('',(23.000000000000004,640043.0,129.99999999996083));
#1169 = CARTESIAN_POINT('',(23.0,620043.0,129.99999999996203));
#1170 = CARTESIAN_POINT('',(23.0,600043.0,129.99999999996325));
#1171 = CARTESIAN_POINT('',(23.0,580043.0,129.99999999996447));
#1172 = CARTESIAN_POINT('',(23.0,560043.0,129.9999999999657));
#1173 = CARTESIAN_POINT('',(23.000000000000004,540043.0,129.99999999996695));
#1174 = CARTESIAN_POINT('',(23.0,520043.0,129.99999999996817));
#1175 = CARTESIAN_POINT('',(23.0,500043.0,129.9999999999694));
#1176 = CARTESIAN_POINT('',(23.0,480043.0,129.9999999999706));
#1177 = CARTESIAN_POINT('',(23.0,460043.0,129.99999999997183));
#1178 = CARTESIAN_POINT('',(23.000000000000004,440043.0,129.99999999997308));
#1179 = CARTESIAN_POINT('',(23.0,420043.0,129.99999999997428));
#1180 = CARTESIAN_POINT('',(23.0,400043.0,129.9999999999755));
#1181 = CARTESIAN_POINT('',(23.0,380043.0,129.99999999997672));
#1182 = CARTESIAN_POINT('',(23.0,360043.0,129.99999999997794));
#1183 = CARTESIAN_POINT('',(23.000000000000004,340043.0,129.9999999999792));
#1184 = CARTESIAN_POINT('',(23.0,320043.0,129.99999999998042));
#1185 = CARTESIAN_POINT('',(23.0,300043.0,129.99999999998164));
#1186 = CARTESIAN_POINT('',(23.0,280043.0,129.99999999998286));
#1187 = CARTESIAN_POINT('',(23.0,260043.0,129.99999999998408));
#1188 = CARTESIAN_POINT('',(23.000000000000004,240043.00000000003,129.9999999999853));
#1189 = CARTESIAN_POINT('',(23.0,220043.0,129.99999999998653));
#1190 = CARTESIAN_POINT('',(23.0,200043.0,129.99999999998775));
#1191 = CARTESIAN_POINT('',(23.0,180043.0,129.99999999998897));
#1192 = CARTESIAN_POINT('',(23.0,160043.0,129.99999999999022));
#1193 = CARTESIAN_POINT('',(23.000000000000004,140043.0,129.99999999999145));
#1194 = CARTESIAN_POINT('',(23.0,120043.0,129.99999999999267));
#1195 = CARTESIAN_POINT('',(23.0,100043.0,129.9999999999939));
#1196 = CARTESIAN_POINT('',(23.0,80043.0,129.9999999999951));
#1197 = CARTESIAN_POINT('',(23.0,60043.0,129.99999999999633));
#1198 = CARTESIAN_POINT('',(23.000000000000004,40043.0,129.99999999999756));
#1199 = CARTESIAN_POINT('',(23.0,20043.0,129.99999999999878));
#1200 = CARTESIAN_POINT('',(23.0,43.0,130.0));
#1201 = CARTESIAN_POINT('',(23.0,-19957.000000000004,130.00000000000122));
#1202 = CARTESIAN_POINT('',(23.0,-39957.00000000001,130.00000000000244));
#1203 = CARTESIAN_POINT('',(23.000000000000004,-59957.00000000001,130.0000000000037));
#1204 = CARTESIAN_POINT('',(23.0,-79957.0,130.0000000000049));
#1205 = CARTESIAN_POINT('',(23.0,-99957.0,130.0000000000061));
#1206 = CARTESIAN_POINT('',(23.0,-119957.0,130.00000000000733));
#1207 = CARTESIAN_POINT('',(23.0,-139957.0,130.00000000000855));
#1208 = CARTESIAN_POINT('',(23.000000000000004,-159957.0,130.0000000000098));
#1209 = CARTESIAN_POINT('',(23.0,-179957.0,130.00000000001103));
#1210 = CARTESIAN_POINT('',(23.0,-199957.0,130.00000000001225));
#1211 = CARTESIAN_POINT('',(23.0,-219957.0,130.00000000001347));
#1212 = CARTESIAN_POINT('',(23.0,-239957.0,130.00000000001472));
#1213 = CARTESIAN_POINT('',(23.000000000000004,-259957.0,130.00000000001594));
#1214 = CARTESIAN_POINT('',(23.0,-279957.0,130.00000000001714));
#1215 = CARTESIAN_POINT('',(23.0,-299957.0,130.00000000001836));
#1216 = CARTESIAN_POINT('',(23.0,-319957.0,130.00000000001958));
#1217 = CARTESIAN_POINT('',(23.0,-339957.0,130.0000000000208));
#1218 = CARTESIAN_POINT('',(23.000000000000004,-359957.00000000006,130.00000000002206));
#1219 = CARTESIAN_POINT('',(23.0,-379957.0,130.00000000002328));
#1220 = CARTESIAN_POINT('',(23.0,-399957.0,130.0000000000245));
#1221 = CARTESIAN_POINT('',(23.0,-419957.0,130.0000000000257));
#1222 = CARTESIAN_POINT('',(23.0,-439957.0,130.00000000002692));
#1223 = CARTESIAN_POINT('',(23.000000000000004,-459957.00000000006,130.00000000002814));
#1224 = CARTESIAN_POINT('',(23.0,-479957.0,130.00000000002936));
#1225 = CARTESIAN_POINT('',(23.0,-499957.0,130.0000000000306));
#1226 = CARTESIAN_POINT('',(23.0,-519957.0,130.00000000003183));
#1227 = CARTESIAN_POINT('',(23.0,-539957.0,130.00000000003305));
#1228 = CARTESIAN_POINT('',(23.000000000000004,-559957.0,130.0000000000343));
#1229 = CARTESIAN_POINT('',(23.0,-579957.0,130.00000000003553));
#1230 = CARTESIAN_POINT('',(23.0,-599957.0,130.00000000003678));
#1231 = CARTESIAN_POINT('',(23.0,-619957.0,130.00000000003797));
#1232 = CARTESIAN_POINT('',(23.0,-639957.0,130.0000000000392));
#1233 = CARTESIAN_POINT('',(23.000000000000004,-659957.0,130.00000000004042));
#1234 = CARTESIAN_POINT('',(23.0,-679957.0,130.0000000000416));
#1235 = CARTESIAN_POINT('',(23.0,-699957.0,130.00000000004286));
#1236 = CARTESIAN_POINT('',(23.0,-719957.0,130.00000000004408));
#1237 = CARTESIAN_POINT('',(23.0,-739957.0,130.0000000000453));
#1238 = CARTESIAN_POINT('',(23.000000000000004,-759957.0,130.00000000004655));
#1239 = CARTESIAN_POINT('',(23.0,-779957.0,130.00000000004778));
#1240 = CARTESIAN_POINT('',(23.0,-799957.0,130.000000000049));
#1241 = CARTESIAN_POINT('',(23.0,-819957.0,130.00000000005022));
#1242 = CARTESIAN_POINT('',(23.0,-839957.0,130.00000000005144));
#1243 = CARTESIAN_POINT('',(23.000000000000004,-859957.0000000001,130.00000000005267));
#1244 = CARTESIAN_POINT('',(23.0,-879957.0,130.0000000000539));
#1245 = CARTESIAN_POINT('',(23.0,-899957.0,130.0000000000551));
#1246 = CARTESIAN_POINT('',(23.0,-919957.0,130.00000000005633));
#1247 = CARTESIAN_POINT('',(23.0,-939957.0,130.00000000005758));
#1248 = CARTESIAN_POINT('',(23.000000000000004,-959957.0000000001,130.0000000000588));
#1249 = CARTESIAN_POINT('',(23.0,-979957.0,130.00000000006003));
#1250 = B_SPLINE_CURVE_WITH_KNOTS('',3,(#1147,#1151,#1152,#1153,#1154,#1155,#1156,#1157,#1158,#1159,#1160,#1161,#1162,#1163,#1164,#1165,#1166,#1167,#1168,#1169,#1170,#1171,#1172,#1173,#1174,#1175,#1176,#1177,#1178,#1179,#1180,#1181,#1182,#1183,#1184,#1185,#1186,#1187,#1188,#1189,#1190,#1191,#1192,#1193,#1194,#1195,#1196,#1197,#1198,#1199,#1200,#1201,#1202,#1203,#1204,#1205,#1206,#1207,#1208,#1209,#1210,#1211,#1212,#1213,#1214,#1215,#1216,#1217,#1218,#1219,#1220,#1221,#1222,#1223,#1224,#1225,#1226,#1227,#1228,#1229,#1230,#1231,#1232,#1233,#1234,#1235,#1236,#1237,#1238,#1239,#1240,#1241,#1242,#1243,#1244,#1245,#1246,#1247,#1248,#1249,#1149),.UNSPECIFIED.,.F.,.F.,(4,1,1,1,1,1,1,1,1,1,1,1,1,1,1,1,1,1,1,1,1,1,1,1,1,1,1,1,1,1,1,1,1,1,1,1,1,1,1,1,1,1,1,1,1,1,1,1,1,1,1,1,1,1,1,1,1,1,1,1,1,1,1,1,1,1,1,1,1,1,1,1,1,1,1,1,1,1,1,1,1,1,1,1,1,1,1,1,1,1,1,1,1,1,1,1,1,1,4),(0.0,0.01020408163265306,0.02040816326530612,0.030612244897959183,0.04081632653061224,0.05102040816326531,0.061224489795918366,0.07142857142857142,0.08163265306122448,0.09183673469387756,0.10204081632653061,0.11224489795918367,0.12244897959183673,0.1326530612244898,0.14285714285714285,0.15306122448979592,0.16326530612244897,0.17346938775510204,0.1836734693877551,0.19387755102040816,0.20408163265306123,0.21428571428571427,0.22448979591836735,0.23469387755102042,0.24489795918367346,0.25510204081632654,0.2653061224489796,0.2755102040816326,0.2857142857142857,0.29591836734693877,0.30612244897959184,0.3163265306122449,0.32653061224489793,0.336734693877551,0.3469387755102041,0.35714285714285715,0.3673469387755102,0.37755102040816324,0.3877551020408163,0.3979591836734694,0.40816326530612246,0.41836734693877553,0.42857142857142855,0.4387755102040816,0.4489795918367347,0.45918367346938777,0.46938775510204084,0.47959183673469385,0.4897959183673469,0.5,0.5102040816326531,0.5204081632653061,0.5306122448979592,0.5408163265306123,0.5510204081632653,0.5612244897959183,0.5714285714285714,0.5816326530612245,0.5918367346938775,0.6020408163265306,0.6122448979591837,0.6224489795918368,0.6326530612244898,0.6428571428571429,0.6530612244897959,0.6632653061224489,0.673469387755102,0.6836734693877551,0.6938775510204082,0.7040816326530612,0.7142857142857143,0.7244897959183674,0.7346938775510204,0.7448979591836735,0.7551020408163265,0.7653061224489796,0.7755102040816326,0.7857142857142857,0.7959183673469388,0.8061224489795918,0.8163265306122449,0.826530612244898,0.8367346938775511,0.8469387755102041,0.8571428571428571,0.8673469387755102,0.8775510204081632,0.8877551020408163,0.8979591836734694,0.9081632653061225,0.9183673469387755,0.9285714285714286,0.9387755102040817,0.9489795918367347,0.9591836734693877,0.9693877551020408,0.9795918367346939,0.9897959183673469,1.0),.UNSPECIFIED.);
#1251 = EDGE_CURVE('',#1148,#1150,1250,.T.);
#1252 = ORIENTED_EDGE('',*,*,#1251,.F.);
#1253 = CARTESIAN_POINT('',(-2.0,840043.0,129.99999999994856));
#1254 = VERTEX_POINT('',#1253);
#1255 = CARTESIAN_POINT('',(10.0,840043.0,129.99999999994856));
#1256 = AXIS2_PLACEMENT_3D('',#1255,#56,#10);
#1257 = CIRCLE('',#1256,12.0);
#1258 = EDGE_CURVE('',#1254,#1254,1257,.T.);
#1259 = ORIENTED_EDGE('',*,*,#1258,.T.);
#1260 = EDGE_LOOP('',(#1252,#1259));
#1261 = FACE_BOUND('',#1260,.T.);
#1262 = CARTESIAN_POINT('',(22.0,-5.0,130.0));
#1263 = VERTEX_POINT('',#1262);
#1264 = CARTESIAN_POINT('',(10.0,-5.0,130.0));
#1265 = AXIS2_PLACEMENT_3D('',#1264,#23,#3);
#1266 = CIRCLE('',#1265,12.0);
#1267 = EDGE_CURVE('',#1263,#1263,1266,.T.);
#1268 = ORIENTED_EDGE('',*,*,#1267,.T.);
#1269 = EDGE_LOOP('',(#1268));
#1270 = FACE_BOUND('',#1269,.T.);
#1271 = CARTESIAN_POINT('',(-2.0,5.0,130.0));
#1272 = VERTEX_POINT('',#1271);
#1273 = CARTESIAN_POINT('',(10.0,5.0,130.0));
#1274 = AXIS2_PLACEMENT_3D('',#1273,#56,#10);
#1275 = CIRCLE('',#1274,12.0);
#1276 = EDGE_CURVE('',#1272,#1272,1275,.T.);
#1277 = ORIENTED_EDGE('',*,*,#1276,.T.);
#1278 = EDGE_LOOP('',(#1277));
#1279 = FACE_BOUND('',#1278,.T.);
#1280 = CARTESIAN_POINT('',(22.0,85.0,130.0));
#1281 = VERTEX_POINT('',#1280);
#1282 = CARTESIAN_POINT('',(10.0,85.0,130.0));
#1283 = AXIS2_PLACEMENT_3D('',#1282,#23,#3);
#1284 = CIRCLE('',#1283,12.0);
#1285 = EDGE_CURVE('',#1281,#1281,1284,.T.);
#1286 = ORIENTED_EDGE('',*,*,#1285,.T.);
#1287 = EDGE_LOOP('',(#1286));
#1288 = FACE_BOUND('',#1287,.T.);
#1289 = CARTESIAN_POINT('',(-2.0,95.0,130.0));
#1290 = VERTEX_POINT('',#1289);
#1291 = CARTESIAN_POINT('',(10.0,95.0,130.0));
#1292 = AXIS2_PLACEMENT_3D('',#1291,#56,#10);
#1293 = CIRCLE('',#1292,12.0);
#1294 = EDGE_CURVE('',#1290,#1290,1293,.T.);
#1295 = ORIENTED_EDGE('',*,*,#1294,.T.);
#1296 = EDGE_LOOP('',(#1295));
#1297 = FACE_BOUND('',#1296,.T.);
#1298 = ORIENTED_EDGE('',*,*,#1267,.T.);
#1299 = EDGE_LOOP('',(#1298));
#1300 = FACE_BOUND('',#1299,.T.);
#1301 = ORIENTED_EDGE('',*,*,#1276,.T.);
#1302 = EDGE_LOOP('',(#1301));
#1303 = FACE_BOUND('',#1302,.T.);
#1304 = ORIENTED_EDGE('',*,*,#1285,.T.);
#1305 = EDGE_LOOP('',(#1304));
#1306 = FACE_BOUND('',#1305,.T.);
#1307 = ORIENTED_EDGE('',*,*,#1294,.T.);
#1308 = EDGE_LOOP('',(#1307));
#1309 = FACE_BOUND('',#1308,.T.);
#1310 = ADVANCED_FACE('',(#1261,#1270,#1279,#1288,#1297,#1300,#1303,#1306,#1309),#1146,.T.,.F.);
#1311 = ORIENTED_EDGE('',*,*,#1251,.F.);
#1312 = ORIENTED_EDGE('',*,*,#1258,.T.);
#1313 = EDGE_LOOP('',(#1311,#1312));
#1314 = FACE_BOUND('',#1313,.T.);
#1315 = ORIENTED_EDGE('',*,*,#1267,.T.);
#1316 = EDGE_LOOP('',(#1315));
#1317 = FACE_BOUND('',#1316,.T.);
#1318 = ORIENTED_EDGE('',*,*,#1276,.T.);
#1319 = EDGE_LOOP('',(#1318));
#1320 = FACE_BOUND('',#1319,.T.);
#1321 = ORIENTED_EDGE('',*,*,#1285,.T.);
#1322 = EDGE_LOOP('',(#1321));
#1323 = FACE_BOUND('',#1322,.T.);
#1324 = ORIENTED_EDGE('',*,*,#1294,.T.);
#1325 = EDGE_LOOP('',(#1324));
#1326 = FACE_BOUND('',#1325,.T.);
#1327 = ORIENTED_EDGE('',*,*,#1267,.T.);
#1328 = EDGE_LOOP('',(#1327));
#1329 = FACE_BOUND('',#1328,.T.);
#1330 = ORIENTED_EDGE('',*,*,#1276,.T.);
#1331 = EDGE_LOOP('',(#1330));
#1332 = FACE_BOUND('',#1331,.T.);
#1333 = ORIENTED_EDGE('',*,*,#1285,.T.);
#1334 = EDGE_LOOP('',(#1333));
#1335 = FACE_BOUND('',#1334,.T.);
#1336 = ORIENTED_EDGE('',*,*,#1294,.T.);
#1337 = EDGE_LOOP('',(#1336));
#1338 = FACE_BOUND('',#1337,.T.);
#1339 = ADVANCED_FACE('',(#1314,#1317,#1320,#1323,#1326,#1329,#1332,#1335,#1338),#1146,.T.,.F.);
#1340 = ORIENTED_EDGE('',*,*,#1258,.F.);
#1341 = CARTESIAN_POINT('',(-2.0,-70.0,130.0));
#1342 = VERTEX_POINT('',#1341);
#1343 = CIRCLE('',#1135,12.0);
#1344 = EDGE_CURVE('',#1342,#1342,1343,.T.);
#1345 = ORIENTED_EDGE('',*,*,#1344,.T.);
#1346 = EDGE_LOOP('',(#1340,#1345));
#1347 = FACE_BOUND('',#1346,.T.);
#1348 = ORIENTED_EDGE('',*,*,#1267,.T.);
#1349 = EDGE_LOOP('',(#1348));
#1350 = FACE_BOUND('',#1349,.T.);
#1351 = ORIENTED_EDGE('',*,*,#1276,.T.);
#1352 = EDGE_LOOP('',(#1351));
#1353 = FACE_BOUND('',#1352,.T.);
#1354 = ORIENTED_EDGE('',*,*,#1285,.T.);
#1355 = EDGE_LOOP('',(#1354));
#1356 = FACE_BOUND('',#1355,.T.);
#1357 = ORIENTED_EDGE('',*,*,#1294,.T.);
#1358 = EDGE_LOOP('',(#1357));
#1359 = FACE_BOUND('',#1358,.T.);
#1360 = ORIENTED_EDGE('',*,*,#1267,.T.);
#1361 = EDGE_LOOP('',(#1360));
#1362 = FACE_BOUND('',#1361,.T.);
#1363 = ORIENTED_EDGE('',*,*,#1276,.T.);
#1364 = EDGE_LOOP('',(#1363));
#1365 = FACE_BOUND('',#1364,.T.);
#1366 = ORIENTED_EDGE('',*,*,#1285,.T.);
#1367 = EDGE_LOOP('',(#1366));
#1368 = FACE_BOUND('',#1367,.T.);
#1369 = ORIENTED_EDGE('',*,*,#1294,.T.);
#1370 = EDGE_LOOP('',(#1369));
#1371 = FACE_BOUND('',#1370,.T.);
#1372 = ADVANCED_FACE('',(#1347,#1350,#1353,#1356,#1359,#1362,#1365,#1368,#1371),#1146,.T.,.F.);
#1373 = ORIENTED_EDGE('',*,*,#1258,.F.);
#1374 = CARTESIAN_POINT('',(-2.0,-999920.0,130.00000000006122));
#1375 = VERTEX_POINT('',#1374);
#1376 = CARTESIAN_POINT('',(10.0,-999920.0,130.00000000006122));
#1377 = AXIS2_PLACEMENT_3D('',#1376,#56,#10);
#1378 = CIRCLE('',#1377,12.0);
#1379 = EDGE_CURVE('',#1375,#1375,1378,.T.);
#1380 = ORIENTED_EDGE('',*,*,#1379,.T.);
#1381 = EDGE_LOOP('',(#1373,#1380));
#1382 = FACE_BOUND('',#1381,.T.);
#1383 = ORIENTED_EDGE('',*,*,#1267,.T.);
#1384 = EDGE_LOOP('',(#1383));
#1385 = FACE_BOUND('',#1384,.T.);
#1386 = ORIENTED_EDGE('',*,*,#1276,.T.);
#1387 = EDGE_LOOP('',(#1386));
#1388 = FACE_BOUND('',#1387,.T.);
#1389 = ORIENTED_EDGE('',*,*,#1285,.T.);
#1390 = EDGE_LOOP('',(#1389));
#1391 = FACE_BOUND('',#1390,.T.);
#1392 = ORIENTED_EDGE('',*,*,#1294,.T.);
#1393 = EDGE_LOOP('',(#1392));
#1394 = FACE_BOUND('',#1393,.T.);
#1395 = ORIENTED_EDGE('',*,*,#1267,.T.);
#1396 = EDGE_LOOP('',(#1395));
#1397 = FACE_BOUND('',#1396,.T.);
#1398 = ORIENTED_EDGE('',*,*,#1276,.T.);
#1399 = EDGE_LOOP('',(#1398));
#1400 = FACE_BOUND('',#1399,.T.);
#1401 = ORIENTED_EDGE('',*,*,#1285,.T.);
#1402 = EDGE_LOOP('',(#1401));
#1403 = FACE_BOUND('',#1402,.T.);
#1404 = ORIENTED_EDGE('',*,*,#1294,.T.);
#1405 = EDGE_LOOP('',(#1404));
#1406 = FACE_BOUND('',#1405,.T.);
#1407 = ADVANCED_FACE('',(#1382,#1385,#1388,#1391,#1394,#1397,#1400,#1403,#1406),#1146,.T.,.F.);
#1408 = ORIENTED_EDGE('',*,*,#677,.F.);
#1409 = CARTESIAN_POINT('',(85.0,-50.0,-24.999999999999993));
#1410 = VERTEX_POINT('',#1409);
#1411 = CARTESIAN_POINT('',(85.0,-50.0,-24.99999999999999));
#1412 = VERTEX_POINT('',#1411);
#1413 = CARTESIAN_POINT('',(100.0,-50.0,-24.999999999999993));
#1414 = AXIS2_PLACEMENT_3D('',#1413,#56,#10);
#1415 = CIRCLE('',#1414,15.0);
#1416 = EDGE_CURVE('',#1410,#1412,1415,.T.);
#1417 = ORIENTED_EDGE('',*,*,#1416,.T.);
#1418 = EDGE_LOOP('',(#1408,#1417));
#1419 = FACE_BOUND('',#1418,.T.);
#1420 = ORIENTED_EDGE('',*,*,#686,.T.);
#1421 = EDGE_LOOP('',(#1420));
#1422 = FACE_BOUND('',#1421,.T.);
#1423 = ORIENTED_EDGE('',*,*,#697,.T.);
#1424 = EDGE_LOOP('',(#1423));
#1425 = FACE_BOUND('',#1424,.T.);
#1426 = ORIENTED_EDGE('',*,*,#708,.T.);
#1427 = EDGE_LOOP('',(#1426));
#1428 = FACE_BOUND('',#1427,.T.);
#1429 = ORIENTED_EDGE('',*,*,#686,.T.);
#1430 = EDGE_LOOP('',(#1429));
#1431 = FACE_BOUND('',#1430,.T.);
#1432 = ORIENTED_EDGE('',*,*,#722,.T.);
#1433 = EDGE_LOOP('',(#1432));
#1434 = FACE_BOUND('',#1433,.T.);
#1435 = ORIENTED_EDGE('',*,*,#733,.T.);
#1436 = EDGE_LOOP('',(#1435));
#1437 = FACE_BOUND('',#1436,.T.);
#1438 = ORIENTED_EDGE('',*,*,#686,.T.);
#1439 = EDGE_LOOP('',(#1438));
#1440 = FACE_BOUND('',#1439,.T.);
#1441 = ORIENTED_EDGE('',*,*,#697,.T.);
#1442 = EDGE_LOOP('',(#1441));
#1443 = FACE_BOUND('',#1442,.T.);
#1444 = ORIENTED_EDGE('',*,*,#708,.T.);
#1445 = EDGE_LOOP('',(#1444));
#1446 = FACE_BOUND('',#1445,.T.);
#1447 = ORIENTED_EDGE('',*,*,#686,.T.);
#1448 = EDGE_LOOP('',(#1447));
#1449 = FACE_BOUND('',#1448,.T.);
#1450 = ORIENTED_EDGE('',*,*,#722,.T.);
#1451 = EDGE_LOOP('',(#1450));
#1452 = FACE_BOUND('',#1451,.T.);
#1453 = ORIENTED_EDGE('',*,*,#733,.T.);
#1454 = EDGE_LOOP('',(#1453));
#1455 = FACE_BOUND('',#1454,.T.);
#1456 = ADVANCED_FACE('',(#1419,#1422,#1425,#1428,#1431,#1434,#1437,#1440,#1443,#1446,#1449,#1452,#1455),#563,.T.,.F.);
#1457 = ORIENTED_EDGE('',*,*,#677,.F.);
#1458 = CARTESIAN_POINT('',(85.0,-170.0,-24.999999999999986));
#1459 = VERTEX_POINT('',#1458);
#1460 = CARTESIAN_POINT('',(85.0,-170.0,-24.999999999999982));
#1461 = VERTEX_POINT('',#1460);
#1462 = CIRCLE('',#550,15.0);
#1463 = EDGE_CURVE('',#1459,#1461,1462,.T.);
#1464 = ORIENTED_EDGE('',*,*,#1463,.T.);
#1465 = EDGE_LOOP('',(#1457,#1464));
#1466 = FACE_BOUND('',#1465,.T.);
#1467 = ORIENTED_EDGE('',*,*,#686,.T.);
#1468 = EDGE_LOOP('',(#1467));
#1469 = FACE_BOUND('',#1468,.T.);
#1470 = ORIENTED_EDGE('',*,*,#697,.T.);
#1471 = EDGE_LOOP('',(#1470));
#1472 = FACE_BOUND('',#1471,.T.);
#1473 = ORIENTED_EDGE('',*,*,#708,.T.);
#1474 = EDGE_LOOP('',(#1473));
#1475 = FACE_BOUND('',#1474,.T.);
#1476 = ORIENTED_EDGE('',*,*,#686,.T.);
#1477 = EDGE_LOOP('',(#1476));
#1478 = FACE_BOUND('',#1477,.T.);
#1479 = ORIENTED_EDGE('',*,*,#722,.T.);
#1480 = EDGE_LOOP('',(#1479));
#1481 = FACE_BOUND('',#1480,.T.);
#1482 = ORIENTED_EDGE('',*,*,#733,.T.);
#1483 = EDGE_LOOP('',(#1482));
#1484 = FACE_BOUND('',#1483,.T.);
#1485 = ORIENTED_EDGE('',*,*,#686,.T.);
#1486 = EDGE_LOOP('',(#1485));
#1487 = FACE_BOUND('',#1486,.T.);
#1488 = ORIENTED_EDGE('',*,*,#697,.T.);
#1489 = EDGE_LOOP('',(#1488));
#1490 = FACE_BOUND('',#1489,.T.);
#1491 = ORIENTED_EDGE('',*,*,#708,.T.);
#1492 = EDGE_LOOP('',(#1491));
#1493 = FACE_BOUND('',#1492,.T.);
#1494 = ORIENTED_EDGE('',*,*,#686,.T.);
#1495 = EDGE_LOOP('',(#1494));
#1496 = FACE_BOUND('',#1495,.T.);
#1497 = ORIENTED_EDGE('',*,*,#722,.T.);
#1498 = EDGE_LOOP('',(#1497));
#1499 = FACE_BOUND('',#1498,.T.);
#1500 = ORIENTED_EDGE('',*,*,#733,.T.);
#1501 = EDGE_LOOP('',(#1500));
#1502 = FACE_BOUND('',#1501,.T.);
#1503 = ADVANCED_FACE('',(#1466,#1469,#1472,#1475,#1478,#1481,#1484,#1487,#1490,#1493,#1496,#1499,#1502),#563,.T.,.F.);
#1504 = ORIENTED_EDGE('',*,*,#677,.F.);
#1505 = CARTESIAN_POINT('',(85.0,-999920.0,-24.99999999993877));
#1506 = VERTEX_POINT('',#1505);
#1507 = CARTESIAN_POINT('',(85.0,-999920.0,-24.999999999938765));
#1508 = VERTEX_POINT('',#1507);
#1509 = CARTESIAN_POINT('',(100.0,-999920.0,-24.99999999993877));
#1510 = AXIS2_PLACEMENT_3D('',#1509,#56,#10);
#1511 = CIRCLE('',#1510,15.0);
#1512 = EDGE_CURVE('',#1506,#1508,1511,.T.);
#1513 = ORIENTED_EDGE('',*,*,#1512,.T.);
#1514 = EDGE_LOOP('',(#1504,#1513));
#1515 = FACE_BOUND('',#1514,.T.);
#1516 = ORIENTED_EDGE('',*,*,#686,.T.);
#1517 = EDGE_LOOP('',(#1516));
#1518 = FACE_BOUND('',#1517,.T.);
#1519 = ORIENTED_EDGE('',*,*,#697,.T.);
#1520 = EDGE_LOOP('',(#1519));
#1521 = FACE_BOUND('',#1520,.T.);
#1522 = ORIENTED_EDGE('',*,*,#708,.T.);
#1523 = EDGE_LOOP('',(#1522));
#1524 = FACE_BOUND('',#1523,.T.);
#1525 = ORIENTED_EDGE('',*,*,#686,.T.);
#1526 = EDGE_LOOP('',(#1525));
#1527 = FACE_BOUND('',#1526,.T.);
#1528 = ORIENTED_EDGE('',*,*,#722,.T.);
#1529 = EDGE_LOOP('',(#1528));
#1530 = FACE_BOUND('',#1529,.T.);
#1531 = ORIENTED_EDGE('',*,*,#733,.T.);
#1532 = EDGE_LOOP('',(#1531));
#1533 = FACE_BOUND('',#1532,.T.);
#1534 = ORIENTED_EDGE('',*,*,#686,.T.);
#1535 = EDGE_LOOP('',(#1534));
#1536 = FACE_BOUND('',#1535,.T.);
#1537 = ORIENTED_EDGE('',*,*,#697,.T.);
#1538 = EDGE_LOOP('',(#1537));
#1539 = FACE_BOUND('',#1538,.T.);
#1540 = ORIENTED_EDGE('',*,*,#708,.T.);
#1541 = EDGE_LOOP('',(#1540));
#1542 = FACE_BOUND('',#1541,.T.);
#1543 = ORIENTED_EDGE('',*,*,#686,.T.);
#1544 = EDGE_LOOP('',(#1543));
#1545 = FACE_BOUND('',#1544,.T.);
#1546 = ORIENTED_EDGE('',*,*,#722,.T.);
#1547 = EDGE_LOOP('',(#1546));
#1548 = FACE_BOUND('',#1547,.T.);
#1549 = ORIENTED_EDGE('',*,*,#733,.T.);
#1550 = EDGE_LOOP('',(#1549));
#1551 = FACE_BOUND('',#1550,.T.);
#1552 = ADVANCED_FACE('',(#1515,#1518,#1521,#1524,#1527,#1530,#1533,#1536,#1539,#1542,#1545,#1548,#1551),#563,.T.,.F.);
#1553 = ORIENTED_EDGE('',*,*,#677,.F.);
#1554 = ORIENTED_EDGE('',*,*,#1512,.T.);
#1555 = EDGE_LOOP('',(#1553,#1554));
#1556 = FACE_BOUND('',#1555,.T.);
#1557 = ORIENTED_EDGE('',*,*,#686,.T.);
#1558 = EDGE_LOOP('',(#1557));
#1559 = FACE_BOUND('',#1558,.T.);
#1560 = ORIENTED_EDGE('',*,*,#697,.T.);
#1561 = EDGE_LOOP('',(#1560));
#1562 = FACE_BOUND('',#1561,.T.);
#1563 = ORIENTED_EDGE('',*,*,#708,.T.);
#1564 = EDGE_LOOP('',(#1563));
#1565 = FACE_BOUND('',#1564,.T.);
#1566 = ORIENTED_EDGE('',*,*,#686,.T.);
#1567 = EDGE_LOOP('',(#1566));
#1568 = FACE_BOUND('',#1567,.T.);
#1569 = ORIENTED_EDGE('',*,*,#722,.T.);
#1570 = EDGE_LOOP('',(#1569));
#1571 = FACE_BOUND('',#1570,.T.);
#1572 = ORIENTED_EDGE('',*,*,#733,.T.);
#1573 = EDGE_LOOP('',(#1572));
#1574 = FACE_BOUND('',#1573,.T.);
#1575 = ORIENTED_EDGE('',*,*,#686,.T.);
#1576 = EDGE_LOOP('',(#1575));
#1577 = FACE_BOUND('',#1576,.T.);
#1578 = ORIENTED_EDGE('',*,*,#697,.T.);
#1579 = EDGE_LOOP('',(#1578));
#1580 = FACE_BOUND('',#1579,.T.);
#1581 = ORIENTED_EDGE('',*,*,#708,.T.);
#1582 = EDGE_LOOP('',(#1581));
#1583 = FACE_BOUND('',#1582,.T.);
#1584 = ORIENTED_EDGE('',*,*,#686,.T.);
#1585 = EDGE_LOOP('',(#1584));
#1586 = FACE_BOUND('',#1585,.T.);
#1587 = ORIENTED_EDGE('',*,*,#722,.T.);
#1588 = EDGE_LOOP('',(#1587));
#1589 = FACE_BOUND('',#1588,.T.);
#1590 = ORIENTED_EDGE('',*,*,#733,.T.);
#1591 = EDGE_LOOP('',(#1590));
#1592 = FACE_BOUND('',#1591,.T.);
#1593 = ADVANCED_FACE('',(#1556,#1559,#1562,#1565,#1568,#1571,#1574,#1577,#1580,#1583,#1586,#1589,#1592),#563,.T.,.F.);
#1594 = CARTESIAN_POINT('',(10.0,-24.0,130.0));
#1595 = AXIS2_PLACEMENT_3D('',#1594,#56,#3);
#1596 = PLANE('',#1595);
#1597 = CARTESIAN_POINT('',(24.0,-24.0,130.0));
#1598 = VERTEX_POINT('',#1597);
#1599 = CIRCLE('',#1595,14.0);
#1600 = EDGE_CURVE('',#1598,#1598,1599,.T.);
#1601 = ORIENTED_EDGE('',*,*,#1600,.F.);
#1602 = EDGE_LOOP('',(#1601));
#1603 = FACE_BOUND('',#1602,.T.);
#1604 = ADVANCED_FACE('',(#1603),#1596,.T.,.F.);
#1605 = CARTESIAN_POINT('',(10.0,-204.0,130.0));
#1606 = AXIS2_PLACEMENT_3D('',#1605,#56,#10);
#1607 = PLANE('',#1606);
#1608 = CARTESIAN_POINT('',(24.0,-204.0,130.0));
#1609 = VERTEX_POINT('',#1608);
#1610 = AXIS2_PLACEMENT_3D('',#1605,#56,#3);
#1611 = CIRCLE('',#1610,14.0);
#1612 = EDGE_CURVE('',#1609,#1609,1611,.T.);
#1613 = ORIENTED_EDGE('',*,*,#1612,.T.);
#1614 = EDGE_LOOP('',(#1613));
#1615 = FACE_BOUND('',#1614,.T.);
#1616 = ADVANCED_FACE('',(#1615),#1607,.T.,.F.);
#1617 = CYLINDRICAL_SURFACE('',#1595,14.0);
#1618 = ORIENTED_EDGE('',*,*,#1251,.F.);
#1619 = CARTESIAN_POINT('',(-4.0,840013.0,129.99999999994856));
#1620 = VERTEX_POINT('',#1619);
#1621 = CARTESIAN_POINT('',(10.0,840013.0,129.99999999994856));
#1622 = AXIS2_PLACEMENT_3D('',#1621,#56,#10);
#1623 = CIRCLE('',#1622,14.0);
#1624 = EDGE_CURVE('',#1620,#1620,1623,.T.);
#1625 = ORIENTED_EDGE('',*,*,#1624,.T.);
#1626 = EDGE_LOOP('',(#1618,#1625));
#1627 = FACE_BOUND('',#1626,.T.);
#1628 = CARTESIAN_POINT('',(24.0,-5.0,130.0));
#1629 = VERTEX_POINT('',#1628);
#1630 = CIRCLE('',#1265,14.0);
#1631 = EDGE_CURVE('',#1629,#1629,1630,.T.);
#1632 = ORIENTED_EDGE('',*,*,#1631,.T.);
#1633 = EDGE_LOOP('',(#1632));
#1634 = FACE_BOUND('',#1633,.T.);
#1635 = CARTESIAN_POINT('',(-4.0,5.0,130.0));
#1636 = VERTEX_POINT('',#1635);
#1637 = CIRCLE('',#1274,14.0);
#1638 = EDGE_CURVE('',#1636,#1636,1637,.T.);
#1639 = ORIENTED_EDGE('',*,*,#1638,.T.);
#1640 = EDGE_LOOP('',(#1639));
#1641 = FACE_BOUND('',#1640,.T.);
#1642 = CARTESIAN_POINT('',(24.0,85.0,130.0));
#1643 = VERTEX_POINT('',#1642);
#1644 = CIRCLE('',#1283,14.0);
#1645 = EDGE_CURVE('',#1643,#1643,1644,.T.);
#1646 = ORIENTED_EDGE('',*,*,#1645,.T.);
#1647 = EDGE_LOOP('',(#1646));
#1648 = FACE_BOUND('',#1647,.T.);
#1649 = CARTESIAN_POINT('',(-4.0,95.0,130.0));
#1650 = VERTEX_POINT('',#1649);
#1651 = CIRCLE('',#1292,14.0);
#1652 = EDGE_CURVE('',#1650,#1650,1651,.T.);
#1653 = ORIENTED_EDGE('',*,*,#1652,.T.);
#1654 = EDGE_LOOP('',(#1653));
#1655 = FACE_BOUND('',#1654,.T.);
#1656 = ORIENTED_EDGE('',*,*,#1631,.T.);
#1657 = EDGE_LOOP('',(#1656));
#1658 = FACE_BOUND('',#1657,.T.);
#1659 = ORIENTED_EDGE('',*,*,#1638,.T.);
#1660 = EDGE_LOOP('',(#1659));
#1661 = FACE_BOUND('',#1660,.T.);
#1662 = ORIENTED_EDGE('',*,*,#1645,.T.);
#1663 = EDGE_LOOP('',(#1662));
#1664 = FACE_BOUND('',#1663,.T.);
#1665 = ORIENTED_EDGE('',*,*,#1652,.T.);
#1666 = EDGE_LOOP('',(#1665));
#1667 = FACE_BOUND('',#1666,.T.);
#1668 = ADVANCED_FACE('',(#1627,#1634,#1641,#1648,#1655,#1658,#1661,#1664,#1667),#1617,.T.,.F.);
#1669 = ORIENTED_EDGE('',*,*,#1624,.F.);
#1670 = CARTESIAN_POINT('',(-4.0,-204.0,130.0));
#1671 = VERTEX_POINT('',#1670);
#1672 = CIRCLE('',#1606,14.0);
#1673 = EDGE_CURVE('',#1671,#1671,1672,.T.);
#1674 = ORIENTED_EDGE('',*,*,#1673,.T.);
#1675 = EDGE_LOOP('',(#1669,#1674));
#1676 = FACE_BOUND('',#1675,.T.);
#1677 = ORIENTED_EDGE('',*,*,#1631,.T.);
#1678 = EDGE_LOOP('',(#1677));
#1679 = FACE_BOUND('',#1678,.T.);
#1680 = ORIENTED_EDGE('',*,*,#1638,.T.);
#1681 = EDGE_LOOP('',(#1680));
#1682 = FACE_BOUND('',#1681,.T.);
#1683 = ORIENTED_EDGE('',*,*,#1645,.T.);
#1684 = EDGE_LOOP('',(#1683));
#1685 = FACE_BOUND('',#1684,.T.);
#1686 = ORIENTED_EDGE('',*,*,#1652,.T.);
#1687 = EDGE_LOOP('',(#1686));
#1688 = FACE_BOUND('',#1687,.T.);
#1689 = ORIENTED_EDGE('',*,*,#1631,.T.);
#1690 = EDGE_LOOP('',(#1689));
#1691 = FACE_BOUND('',#1690,.T.);
#1692 = ORIENTED_EDGE('',*,*,#1638,.T.);
#1693 = EDGE_LOOP('',(#1692));
#1694 = FACE_BOUND('',#1693,.T.);
#1695 = ORIENTED_EDGE('',*,*,#1645,.T.);
#1696 = EDGE_LOOP('',(#1695));
#1697 = FACE_BOUND('',#1696,.T.);
#1698 = ORIENTED_EDGE('',*,*,#1652,.T.);
#1699 = EDGE_LOOP('',(#1698));
#1700 = FACE_BOUND('',#1699,.T.);
#1701 = ADVANCED_FACE('',(#1676,#1679,#1682,#1685,#1688,#1691,#1694,#1697,#1700),#1617,.T.,.F.);
#1702 = CARTESIAN_POINT('',(-35.0,-5.0,-65.0));
#1703 = AXIS2_PLACEMENT_3D('',#1702,#2,#3);
#1704 = PLANE('',#1703);
#1705 = VERTEX_POINT('',#1702);
#1706 = CARTESIAN_POINT('',(-5.0,-5.0,-65.0));
#1707 = VERTEX_POINT('',#1706);
#1708 = LINE('',#1702,#3);
#1709 = EDGE_CURVE('',#1705,#1707,1708,.T.);
#1710 = ORIENTED_EDGE('',*,*,#1709,.T.);
#1711 = CARTESIAN_POINT('',(-5.0,5.0,-65.0));
#1712 = VERTEX_POINT('',#1711);
#1713 = LINE('',#1706,#23);
#1714 = EDGE_CURVE('',#1707,#1712,1713,.T.);
#1715 = ORIENTED_EDGE('',*,*,#1714,.T.);
#1716 = CARTESIAN_POINT('',(-35.0,5.0,-65.0));
#1717 = VERTEX_POINT('',#1716);
#1718 = LINE('',#1711,#10);
#1719 = EDGE_CURVE('',#1712,#1717,1718,.T.);
#1720 = ORIENTED_EDGE('',*,*,#1719,.T.);
#1721 = LINE('',#1716,#56);
#1722 = EDGE_CURVE('',#1717,#1705,1721,.T.);
#1723 = ORIENTED_EDGE('',*,*,#1722,.T.);
#1724 = EDGE_LOOP('',(#1710,#1715,#1720,#1723));
#1725 = FACE_BOUND('',#1724,.T.);
#1726 = ADVANCED_FACE('',(#1725),#1704,.T.,.F.);
#1727 = CARTESIAN_POINT('',(-35.0,-5.0,-35.0));
#1728 = AXIS2_PLACEMENT_3D('',#1727,#22,#23);
#1729 = PLANE('',#1728);
#1730 = VERTEX_POINT('',#1727);
#1731 = CARTESIAN_POINT('',(-35.0,5.0,-35.0));
#1732 = VERTEX_POINT('',#1731);
#1733 = LINE('',#1727,#23);
#1734 = EDGE_CURVE('',#1730,#1732,1733,.T.);
#1735 = ORIENTED_EDGE('',*,*,#1734,.T.);
#1736 = CARTESIAN_POINT('',(-5.0,5.0,-35.0));
#1737 = VERTEX_POINT('',#1736);
#1738 = LINE('',#1731,#3);
#1739 = EDGE_CURVE('',#1732,#1737,1738,.T.);
#1740 = ORIENTED_EDGE('',*,*,#1739,.T.);
#1741 = CARTESIAN_POINT('',(-5.0,-5.0,-35.0));
#1742 = VERTEX_POINT('',#1741);
#1743 = LINE('',#1736,#56);
#1744 = EDGE_CURVE('',#1737,#1742,1743,.T.);
#1745 = ORIENTED_EDGE('',*,*,#1744,.T.);
#1746 = LINE('',#1741,#10);
#1747 = EDGE_CURVE('',#1742,#1730,1746,.T.);
#1748 = ORIENTED_EDGE('',*,*,#1747,.T.);
#1749 = EDGE_LOOP('',(#1735,#1740,#1745,#1748));
#1750 = FACE_BOUND('',#1749,.T.);
#1751 = ADVANCED_FACE('',(#1750),#1729,.T.,.F.);
#1752 = AXIS2_PLACEMENT_3D('',#1702,#23,#2);
#1753 = PLANE('',#1752);
#1754 = LINE('',#1702,#2);
#1755 = EDGE_CURVE('',#1705,#1730,1754,.T.);
#1756 = ORIENTED_EDGE('',*,*,#1755,.T.);
#1757 = LINE('',#1727,#3);
#1758 = EDGE_CURVE('',#1730,#1742,1757,.T.);
#1759 = ORIENTED_EDGE('',*,*,#1758,.T.);
#1760 = LINE('',#1741,#22);
#1761 = EDGE_CURVE('',#1742,#1707,1760,.T.);
#1762 = ORIENTED_EDGE('',*,*,#1761,.T.);
#1763 = LINE('',#1706,#10);
#1764 = EDGE_CURVE('',#1707,#1705,1763,.T.);
#1765 = ORIENTED_EDGE('',*,*,#1764,.T.);
#1766 = EDGE_LOOP('',(#1756,#1759,#1762,#1765));
#1767 = FACE_BOUND('',#1766,.T.);
#1768 = ADVANCED_FACE('',(#1767),#1753,.T.,.F.);
#1769 = AXIS2_PLACEMENT_3D('',#1716,#56,#3);
#1770 = PLANE('',#1769);
#1771 = LINE('',#1716,#3);
#1772 = EDGE_CURVE('',#1717,#1712,1771,.T.);
#1773 = ORIENTED_EDGE('',*,*,#1772,.T.);
#1774 = LINE('',#1711,#2);
#1775 = EDGE_CURVE('',#1712,#1737,1774,.T.);
#1776 = ORIENTED_EDGE('',*,*,#1775,.T.);
#1777 = LINE('',#1736,#10);
#1778 = EDGE_CURVE('',#1737,#1732,1777,.T.);
#1779 = ORIENTED_EDGE('',*,*,#1778,.T.);
#1780 = LINE('',#1731,#22);
#1781 = EDGE_CURVE('',#1732,#1717,1780,.T.);
#1782 = ORIENTED_EDGE('',*,*,#1781,.T.);
#1783 = EDGE_LOOP('',(#1773,#1776,#1779,#1782));
#1784 = FACE_BOUND('',#1783,.T.);
#1785 = ADVANCED_FACE('',(#1784),#1770,.T.,.F.);
#1786 = AXIS2_PLACEMENT_3D('',#1702,#3,#23);
#1787 = PLANE('',#1786);
#1788 = LINE('',#1702,#23);
#1789 = EDGE_CURVE('',#1705,#1717,1788,.T.);
#1790 = ORIENTED_EDGE('',*,*,#1789,.T.);
#1791 = LINE('',#1716,#2);
#1792 = EDGE_CURVE('',#1717,#1732,1791,.T.);
#1793 = ORIENTED_EDGE('',*,*,#1792,.T.);
#1794 = LINE('',#1731,#56);
#1795 = EDGE_CURVE('',#1732,#1730,1794,.T.);
#1796 = ORIENTED_EDGE('',*,*,#1795,.T.);
#1797 = LINE('',#1727,#22);
#1798 = EDGE_CURVE('',#1730,#1705,1797,.T.);
#1799 = ORIENTED_EDGE('',*,*,#1798,.T.);
#1800 = EDGE_LOOP('',(#1790,#1793,#1796,#1799));
#1801 = FACE_BOUND('',#1800,.T.);
#1802 = ADVANCED_FACE('',(#1801),#1787,.T.,.F.);
#1803 = AXIS2_PLACEMENT_3D('',#1706,#10,#2);
#1804 = PLANE('',#1803);
#1805 = LINE('',#1706,#2);
#1806 = EDGE_CURVE('',#1707,#1742,1805,.T.);
#1807 = ORIENTED_EDGE('',*,*,#1806,.T.);
#1808 = LINE('',#1741,#23);
#1809 = EDGE_CURVE('',#1742,#1737,1808,.T.);
#1810 = ORIENTED_EDGE('',*,*,#1809,.T.);
#1811 = LINE('',#1736,#22);
#1812 = EDGE_CURVE('',#1737,#1712,1811,.T.);
#1813 = ORIENTED_EDGE('',*,*,#1812,.T.);
#1814 = LINE('',#1711,#56);
#1815 = EDGE_CURVE('',#1712,#1707,1814,.T.);
#1816 = ORIENTED_EDGE('',*,*,#1815,.T.);
#1817 = EDGE_LOOP('',(#1807,#1810,#1813,#1816));
#1818 = FACE_BOUND('',#1817,.T.);
#1819 = ADVANCED_FACE('',(#1818),#1804,.T.,.F.);
#1820 = CARTESIAN_POINT('',(-35.0,85.0,-65.0));
#1821 = AXIS2_PLACEMENT_3D('',#1820,#2,#3);
#1822 = PLANE('',#1821);
#1823 = VERTEX_POINT('',#1820);
#1824 = CARTESIAN_POINT('',(-5.0,85.0,-65.0));
#1825 = VERTEX_POINT('',#1824);
#1826 = LINE('',#1820,#3);
#1827 = EDGE_CURVE('',#1823,#1825,1826,.T.);
#1828 = ORIENTED_EDGE('',*,*,#1827,.T.);
#1829 = CARTESIAN_POINT('',(-5.0,95.0,-65.0));
#1830 = VERTEX_POINT('',#1829);
#1831 = LINE('',#1824,#23);
#1832 = EDGE_CURVE('',#1825,#1830,1831,.T.);
#1833 = ORIENTED_EDGE('',*,*,#1832,.T.);
#1834 = CARTESIAN_POINT('',(-35.0,95.0,-65.0));
#1835 = VERTEX_POINT('',#1834);
#1836 = LINE('',#1829,#10);
#1837 = EDGE_CURVE('',#1830,#1835,1836,.T.);
#1838 = ORIENTED_EDGE('',*,*,#1837,.T.);
#1839 = LINE('',#1834,#56);
#1840 = EDGE_CURVE('',#1835,#1823,1839,.T.);
#1841 = ORIENTED_EDGE('',*,*,#1840,.T.);
#1842 = EDGE_LOOP('',(#1828,#1833,#1838,#1841));
#1843 = FACE_BOUND('',#1842,.T.);
#1844 = ADVANCED_FACE('',(#1843),#1822,.T.,.F.);
#1845 = CARTESIAN_POINT('',(-35.0,85.0,-35.0));
#1846 = AXIS2_PLACEMENT_3D('',#1845,#22,#23);
#1847 = PLANE('',#1846);
#1848 = VERTEX_POINT('',#1845);
#1849 = CARTESIAN_POINT('',(-35.0,95.0,-35.0));
#1850 = VERTEX_POINT('',#1849);
#1851 = LINE('',#1845,#23);
#1852 = EDGE_CURVE('',#1848,#1850,1851,.T.);
#1853 = ORIENTED_EDGE('',*,*,#1852,.T.);
#1854 = CARTESIAN_POINT('',(-5.0,95.0,-35.0));
#1855 = VERTEX_POINT('',#1854);
#1856 = LINE('',#1849,#3);
#1857 = EDGE_CURVE('',#1850,#1855,1856,.T.);
#1858 = ORIENTED_EDGE('',*,*,#1857,.T.);
#1859 = CARTESIAN_POINT('',(-5.0,85.0,-35.0));
#1860 = VERTEX_POINT('',#1859);
#1861 = LINE('',#1854,#56);
#1862 = EDGE_CURVE('',#1855,#1860,1861,.T.);
#1863 = ORIENTED_EDGE('',*,*,#1862,.T.);
#1864 = LINE('',#1859,#10);
#1865 = EDGE_CURVE('',#1860,#1848,1864,.T.);
#1866 = ORIENTED_EDGE('',*,*,#1865,.T.);
#1867 = EDGE_LOOP('',(#1853,#1858,#1863,#1866));
#1868 = FACE_BOUND('',#1867,.T.);
#1869 = ADVANCED_FACE('',(#1868),#1847,.T.,.F.);
#1870 = AXIS2_PLACEMENT_3D('',#1820,#23,#2);
#1871 = PLANE('',#1870);
#1872 = LINE('',#1820,#2);
#1873 = EDGE_CURVE('',#1823,#1848,1872,.T.);
#1874 = ORIENTED_EDGE('',*,*,#1873,.T.);
#1875 = LINE('',#1845,#3);
#1876 = EDGE_CURVE('',#1848,#1860,1875,.T.);
#1877 = ORIENTED_EDGE('',*,*,#1876,.T.);
#1878 = LINE('',#1859,#22);
#1879 = EDGE_CURVE('',#1860,#1825,1878,.T.);
#1880 = ORIENTED_EDGE('',*,*,#1879,.T.);
#1881 = LINE('',#1824,#10);
#1882 = EDGE_CURVE('',#1825,#1823,1881,.T.);
#1883 = ORIENTED_EDGE('',*,*,#1882,.T.);
#1884 = EDGE_LOOP('',(#1874,#1877,#1880,#1883));
#1885 = FACE_BOUND('',#1884,.T.);
#1886 = ADVANCED_FACE('',(#1885),#1871,.T.,.F.);
#1887 = AXIS2_PLACEMENT_3D('',#1834,#56,#3);
#1888 = PLANE('',#1887);
#1889 = LINE('',#1834,#3);
#1890 = EDGE_CURVE('',#1835,#1830,1889,.T.);
#1891 = ORIENTED_EDGE('',*,*,#1890,.T.);
#1892 = LINE('',#1829,#2);
#1893 = EDGE_CURVE('',#1830,#1855,1892,.T.);
#1894 = ORIENTED_EDGE('',*,*,#1893,.T.);
#1895 = LINE('',#1854,#10);
#1896 = EDGE_CURVE('',#1855,#1850,1895,.T.);
#1897 = ORIENTED_EDGE('',*,*,#1896,.T.);
#1898 = LINE('',#1849,#22);
#1899 = EDGE_CURVE('',#1850,#1835,1898,.T.);
#1900 = ORIENTED_EDGE('',*,*,#1899,.T.);
#1901 = EDGE_LOOP('',(#1891,#1894,#1897,#1900));
#1902 = FACE_BOUND('',#1901,.T.);
#1903 = ADVANCED_FACE('',(#1902),#1888,.T.,.F.);
#1904 = AXIS2_PLACEMENT_3D('',#1820,#3,#23);
#1905 = PLANE('',#1904);
#1906 = LINE('',#1820,#23);
#1907 = EDGE_CURVE('',#1823,#1835,1906,.T.);
#1908 = ORIENTED_EDGE('',*,*,#1907,.T.);
#1909 = LINE('',#1834,#2);
#1910 = EDGE_CURVE('',#1835,#1850,1909,.T.);
#1911 = ORIENTED_EDGE('',*,*,#1910,.T.);
#1912 = LINE('',#1849,#56);
#1913 = EDGE_CURVE('',#1850,#1848,1912,.T.);
#1914 = ORIENTED_EDGE('',*,*,#1913,.T.);
#1915 = LINE('',#1845,#22);
#1916 = EDGE_CURVE('',#1848,#1823,1915,.T.);
#1917 = ORIENTED_EDGE('',*,*,#1916,.T.);
#1918 = EDGE_LOOP('',(#1908,#1911,#1914,#1917));
#1919 = FACE_BOUND('',#1918,.T.);
#1920 = ADVANCED_FACE('',(#1919),#1905,.T.,.F.);
#1921 = AXIS2_PLACEMENT_3D('',#1824,#10,#2);
#1922 = PLANE('',#1921);
#1923 = LINE('',#1824,#2);
#1924 = EDGE_CURVE('',#1825,#1860,1923,.T.);
#1925 = ORIENTED_EDGE('',*,*,#1924,.T.);
#1926 = LINE('',#1859,#23);
#1927 = EDGE_CURVE('',#1860,#1855,1926,.T.);
#1928 = ORIENTED_EDGE('',*,*,#1927,.T.);
#1929 = LINE('',#1854,#22);
#1930 = EDGE_CURVE('',#1855,#1830,1929,.T.);
#1931 = ORIENTED_EDGE('',*,*,#1930,.T.);
#1932 = LINE('',#1829,#56);
#1933 = EDGE_CURVE('',#1830,#1825,1932,.T.);
#1934 = ORIENTED_EDGE('',*,*,#1933,.T.);
#1935 = EDGE_LOOP('',(#1925,#1928,#1931,#1934));
#1936 = FACE_BOUND('',#1935,.T.);
#1937 = ADVANCED_FACE('',(#1936),#1922,.T.,.F.);
#1938 = CARTESIAN_POINT('',(175.0,-5.0,-65.0));
#1939 = AXIS2_PLACEMENT_3D('',#1938,#2,#3);
#1940 = PLANE('',#1939);
#1941 = VERTEX_POINT('',#1938);
#1942 = CARTESIAN_POINT('',(205.0,-5.0,-65.0));
#1943 = VERTEX_POINT('',#1942);
#1944 = LINE('',#1938,#3);
#1945 = EDGE_CURVE('',#1941,#1943,1944,.T.);
#1946 = ORIENTED_EDGE('',*,*,#1945,.T.);
#1947 = CARTESIAN_POINT('',(205.0,5.0,-65.0));
#1948 = VERTEX_POINT('',#1947);
#1949 = LINE('',#1942,#23);
#1950 = EDGE_CURVE('',#1943,#1948,1949,.T.);
#1951 = ORIENTED_EDGE('',*,*,#1950,.T.);
#1952 = CARTESIAN_POINT('',(175.0,5.0,-65.0));
#1953 = VERTEX_POINT('',#1952);
#1954 = LINE('',#1947,#10);
#1955 = EDGE_CURVE('',#1948,#1953,1954,.T.);
#1956 = ORIENTED_EDGE('',*,*,#1955,.T.);
#1957 = LINE('',#1952,#56);
#1958 = EDGE_CURVE('',#1953,#1941,1957,.T.);
#1959 = ORIENTED_EDGE('',*,*,#1958,.T.);
#1960 = EDGE_LOOP('',(#1946,#1951,#1956,#1959));
#1961 = FACE_BOUND('',#1960,.T.);
#1962 = ADVANCED_FACE('',(#1961),#1940,.T.,.F.);
#1963 = CARTESIAN_POINT('',(175.0,-5.0,-35.0));
#1964 = AXIS2_PLACEMENT_3D('',#1963,#22,#23);
#1965 = PLANE('',#1964);
#1966 = VERTEX_POINT('',#1963);
#1967 = CARTESIAN_POINT('',(175.0,5.0,-35.0));
#1968 = VERTEX_POINT('',#1967);
#1969 = LINE('',#1963,#23);
#1970 = EDGE_CURVE('',#1966,#1968,1969,.T.);
#1971 = ORIENTED_EDGE('',*,*,#1970,.T.);
#1972 = CARTESIAN_POINT('',(205.0,5.0,-35.0));
#1973 = VERTEX_POINT('',#1972);
#1974 = LINE('',#1967,#3);
#1975 = EDGE_CURVE('',#1968,#1973,1974,.T.);
#1976 = ORIENTED_EDGE('',*,*,#1975,.T.);
#1977 = CARTESIAN_POINT('',(205.0,-5.0,-35.0));
#1978 = VERTEX_POINT('',#1977);
#1979 = LINE('',#1972,#56);
#1980 = EDGE_CURVE('',#1973,#1978,1979,.T.);
#1981 = ORIENTED_EDGE('',*,*,#1980,.T.);
#1982 = LINE('',#1977,#10);
#1983 = EDGE_CURVE('',#1978,#1966,1982,.T.);
#1984 = ORIENTED_EDGE('',*,*,#1983,.T.);
#1985 = EDGE_LOOP('',(#1971,#1976,#1981,#1984));
#1986 = FACE_BOUND('',#1985,.T.);
#1987 = ADVANCED_FACE('',(#1986),#1965,.T.,.F.);
#1988 = AXIS2_PLACEMENT_3D('',#1938,#23,#2);
#1989 = PLANE('',#1988);
#1990 = LINE('',#1938,#2);
#1991 = EDGE_CURVE('',#1941,#1966,1990,.T.);
#1992 = ORIENTED_EDGE('',*,*,#1991,.T.);
#1993 = LINE('',#1963,#3);
#1994 = EDGE_CURVE('',#1966,#1978,1993,.T.);
#1995 = ORIENTED_EDGE('',*,*,#1994,.T.);
#1996 = LINE('',#1977,#22);
#1997 = EDGE_CURVE('',#1978,#1943,1996,.T.);
#1998 = ORIENTED_EDGE('',*,*,#1997,.T.);
#1999 = LINE('',#1942,#10);
#2000 = EDGE_CURVE('',#1943,#1941,1999,.T.);
#2001 = ORIENTED_EDGE('',*,*,#2000,.T.);
#2002 = EDGE_LOOP('',(#1992,#1995,#1998,#2001));
#2003 = FACE_BOUND('',#2002,.T.);
#2004 = ADVANCED_FACE('',(#2003),#1989,.T.,.F.);
#2005 = AXIS2_PLACEMENT_3D('',#1952,#56,#3);
#2006 = PLANE('',#2005);
#2007 = LINE('',#1952,#3);
#2008 = EDGE_CURVE('',#1953,#1948,2007,.T.);
#2009 = ORIENTED_EDGE('',*,*,#2008,.T.);
#2010 = LINE('',#1947,#2);
#2011 = EDGE_CURVE('',#1948,#1973,2010,.T.);
#2012 = ORIENTED_EDGE('',*,*,#2011,.T.);
#2013 = LINE('',#1972,#10);
#2014 = EDGE_CURVE('',#1973,#1968,2013,.T.);
#2015 = ORIENTED_EDGE('',*,*,#2014,.T.);
#2016 = LINE('',#1967,#22);
#2017 = EDGE_CURVE('',#1968,#1953,2016,.T.);
#2018 = ORIENTED_EDGE('',*,*,#2017,.T.);
#2019 = EDGE_LOOP('',(#2009,#2012,#2015,#2018));
#2020 = FACE_BOUND('',#2019,.T.);
#2021 = ADVANCED_FACE('',(#2020),#2006,.T.,.F.);
#2022 = AXIS2_PLACEMENT_3D('',#1938,#3,#23);
#2023 = PLANE('',#2022);
#2024 = LINE('',#1938,#23);
#2025 = EDGE_CURVE('',#1941,#1953,2024,.T.);
#2026 = ORIENTED_EDGE('',*,*,#2025,.T.);
#2027 = LINE('',#1952,#2);
#2028 = EDGE_CURVE('',#1953,#1968,2027,.T.);
#2029 = ORIENTED_EDGE('',*,*,#2028,.T.);
#2030 = LINE('',#1967,#56);
#2031 = EDGE_CURVE('',#1968,#1966,2030,.T.);
#2032 = ORIENTED_EDGE('',*,*,#2031,.T.);
#2033 = LINE('',#1963,#22);
#2034 = EDGE_CURVE('',#1966,#1941,2033,.T.);
#2035 = ORIENTED_EDGE('',*,*,#2034,.T.);
#2036 = EDGE_LOOP('',(#2026,#2029,#2032,#2035));
#2037 = FACE_BOUND('',#2036,.T.);
#2038 = ADVANCED_FACE('',(#2037),#2023,.T.,.F.);
#2039 = AXIS2_PLACEMENT_3D('',#1942,#10,#2);
#2040 = PLANE('',#2039);
#2041 = LINE('',#1942,#2);
#2042 = EDGE_CURVE('',#1943,#1978,2041,.T.);
#2043 = ORIENTED_EDGE('',*,*,#2042,.T.);
#2044 = LINE('',#1977,#23);
#2045 = EDGE_CURVE('',#1978,#1973,2044,.T.);
#2046 = ORIENTED_EDGE('',*,*,#2045,.T.);
#2047 = LINE('',#1972,#22);
#2048 = EDGE_CURVE('',#1973,#1948,2047,.T.);
#2049 = ORIENTED_EDGE('',*,*,#2048,.T.);
#2050 = LINE('',#1947,#56);
#2051 = EDGE_CURVE('',#1948,#1943,2050,.T.);
#2052 = ORIENTED_EDGE('',*,*,#2051,.T.);
#2053 = EDGE_LOOP('',(#2043,#2046,#2049,#2052));
#2054 = FACE_BOUND('',#2053,.T.);
#2055 = ADVANCED_FACE('',(#2054),#2040,.T.,.F.);
#2056 = CARTESIAN_POINT('',(175.0,85.0,-65.0));
#2057 = AXIS2_PLACEMENT_3D('',#2056,#2,#3);
#2058 = PLANE('',#2057);
#2059 = VERTEX_POINT('',#2056);
#2060 = CARTESIAN_POINT('',(205.0,85.0,-65.0));
#2061 = VERTEX_POINT('',#2060);
#2062 = LINE('',#2056,#3);
#2063 = EDGE_CURVE('',#2059,#2061,2062,.T.);
#2064 = ORIENTED_EDGE('',*,*,#2063,.T.);
#2065 = CARTESIAN_POINT('',(205.0,95.0,-65.0));
#2066 = VERTEX_POINT('',#2065);
#2067 = LINE('',#2060,#23);
#2068 = EDGE_CURVE('',#2061,#2066,2067,.T.);
#2069 = ORIENTED_EDGE('',*,*,#2068,.T.);
#2070 = CARTESIAN_POINT('',(175.0,95.0,-65.0));
#2071 = VERTEX_POINT('',#2070);
#2072 = LINE('',#2065,#10);
#2073 = EDGE_CURVE('',#2066,#2071,2072,.T.);
#2074 = ORIENTED_EDGE('',*,*,#2073,.T.);
#2075 = LINE('',#2070,#56);
#2076 = EDGE_CURVE('',#2071,#2059,2075,.T.);
#2077 = ORIENTED_EDGE('',*,*,#2076,.T.);
#2078 = EDGE_LOOP('',(#2064,#2069,#2074,#2077));
#2079 = FACE_BOUND('',#2078,.T.);
#2080 = ADVANCED_FACE('',(#2079),#2058,.T.,.F.);
#2081 = CARTESIAN_POINT('',(175.0,85.0,-35.0));
#2082 = AXIS2_PLACEMENT_3D('',#2081,#22,#23);
#2083 = PLANE('',#2082);
#2084 = VERTEX_POINT('',#2081);
#2085 = CARTESIAN_POINT('',(175.0,95.0,-35.0));
#2086 = VERTEX_POINT('',#2085);
#2087 = LINE('',#2081,#23);
#2088 = EDGE_CURVE('',#2084,#2086,2087,.T.);
#2089 = ORIENTED_EDGE('',*,*,#2088,.T.);
#2090 = CARTESIAN_POINT('',(205.0,95.0,-35.0));
#2091 = VERTEX_POINT('',#2090);
#2092 = LINE('',#2085,#3);
#2093 = EDGE_CURVE('',#2086,#2091,2092,.T.);
#2094 = ORIENTED_EDGE('',*,*,#2093,.T.);
#2095 = CARTESIAN_POINT('',(205.0,85.0,-35.0));
#2096 = VERTEX_POINT('',#2095);
#2097 = LINE('',#2090,#56);
#2098 = EDGE_CURVE('',#2091,#2096,2097,.T.);
#2099 = ORIENTED_EDGE('',*,*,#2098,.T.);
#2100 = LINE('',#2095,#10);
#2101 = EDGE_CURVE('',#2096,#2084,2100,.T.);
#2102 = ORIENTED_EDGE('',*,*,#2101,.T.);
#2103 = EDGE_LOOP('',(#2089,#2094,#2099,#2102));
#2104 = FACE_BOUND('',#2103,.T.);
#2105 = ADVANCED_FACE('',(#2104),#2083,.T.,.F.);
#2106 = AXIS2_PLACEMENT_3D('',#2056,#23,#2);
#2107 = PLANE('',#2106);
#2108 = LINE('',#2056,#2);
#2109 = EDGE_CURVE('',#2059,#2084,2108,.T.);
#2110 = ORIENTED_EDGE('',*,*,#2109,.T.);
#2111 = LINE('',#2081,#3);
#2112 = EDGE_CURVE('',#2084,#2096,2111,.T.);
#2113 = ORIENTED_EDGE('',*,*,#2112,.T.);
#2114 = LINE('',#2095,#22);
#2115 = EDGE_CURVE('',#2096,#2061,2114,.T.);
#2116 = ORIENTED_EDGE('',*,*,#2115,.T.);
#2117 = LINE('',#2060,#10);
#2118 = EDGE_CURVE('',#2061,#2059,2117,.T.);
#2119 = ORIENTED_EDGE('',*,*,#2118,.T.);
#2120 = EDGE_LOOP('',(#2110,#2113,#2116,#2119));
#2121 = FACE_BOUND('',#2120,.T.);
#2122 = ADVANCED_FACE('',(#2121),#2107,.T.,.F.);
#2123 = AXIS2_PLACEMENT_3D('',#2070,#56,#3);
#2124 = PLANE('',#2123);
#2125 = LINE('',#2070,#3);
#2126 = EDGE_CURVE('',#2071,#2066,2125,.T.);
#2127 = ORIENTED_EDGE('',*,*,#2126,.T.);
#2128 = LINE('',#2065,#2);
#2129 = EDGE_CURVE('',#2066,#2091,2128,.T.);
#2130 = ORIENTED_EDGE('',*,*,#2129,.T.);
#2131 = LINE('',#2090,#10);
#2132 = EDGE_CURVE('',#2091,#2086,2131,.T.);
#2133 = ORIENTED_EDGE('',*,*,#2132,.T.);
#2134 = LINE('',#2085,#22);
#2135 = EDGE_CURVE('',#2086,#2071,2134,.T.);
#2136 = ORIENTED_EDGE('',*,*,#2135,.T.);
#2137 = EDGE_LOOP('',(#2127,#2130,#2133,#2136));
#2138 = FACE_BOUND('',#2137,.T.);
#2139 = ADVANCED_FACE('',(#2138),#2124,.T.,.F.);
#2140 = AXIS2_PLACEMENT_3D('',#2056,#3,#23);
#2141 = PLANE('',#2140);
#2142 = LINE('',#2056,#23);
#2143 = EDGE_CURVE('',#2059,#2071,2142,.T.);
#2144 = ORIENTED_EDGE('',*,*,#2143,.T.);
#2145 = LINE('',#2070,#2);
#2146 = EDGE_CURVE('',#2071,#2086,2145,.T.);
#2147 = ORIENTED_EDGE('',*,*,#2146,.T.);
#2148 = LINE('',#2085,#56);
#2149 = EDGE_CURVE('',#2086,#2084,2148,.T.);
#2150 = ORIENTED_EDGE('',*,*,#2149,.T.);
#2151 = LINE('',#2081,#22);
#2152 = EDGE_CURVE('',#2084,#2059,2151,.T.);
#2153 = ORIENTED_EDGE('',*,*,#2152,.T.);
#2154 = EDGE_LOOP('',(#2144,#2147,#2150,#2153));
#2155 = FACE_BOUND('',#2154,.T.);
#2156 = ADVANCED_FACE('',(#2155),#2141,.T.,.F.);
#2157 = AXIS2_PLACEMENT_3D('',#2060,#10,#2);
#2158 = PLANE('',#2157);
#2159 = LINE('',#2060,#2);
#2160 = EDGE_CURVE('',#2061,#2096,2159,.T.);
#2161 = ORIENTED_EDGE('',*,*,#2160,.T.);
#2162 = LINE('',#2095,#23);
#2163 = EDGE_CURVE('',#2096,#2091,2162,.T.);
#2164 = ORIENTED_EDGE('',*,*,#2163,.T.);
#2165 = LINE('',#2090,#22);
#2166 = EDGE_CURVE('',#2091,#2066,2165,.T.);
#2167 = ORIENTED_EDGE('',*,*,#2166,.T.);
#2168 = LINE('',#2065,#56);
#2169 = EDGE_CURVE('',#2066,#2061,2168,.T.);
#2170 = ORIENTED_EDGE('',*,*,#2169,.T.);
#2171 = EDGE_LOOP('',(#2161,#2164,#2167,#2170));
#2172 = FACE_BOUND('',#2171,.T.);
#2173 = ADVANCED_FACE('',(#2172),#2158,.T.,.F.);
#2174 = CLOSED_SHELL('',(#20,#39,#54,#101,#143,#159,#193,#200,#207,#238,#258,#269,#284,#292,#309,#325,#340,#346,#354,#362,#368,#374,#382,#396,#406,#422,#438,#455,#480,#506,#515,#524,#530,#536,#548,#562,#755,#796,#825,#848,#875,#896,#913,#922,#947,#972,#989,#1006,#1023,#1040,#1081,#1122,#1133,#1145,#1310,#1339,#1372,#1407,#1456,#1503,#1552,#1593,#1604,#1616,#1668,#1701,#1726,#1751,#1768,#1785,#1802,#1819,#1844,#1869,#1886,#1903,#1920,#1937,#1962,#1987,#2004,#2021,#2038,#2055,#2080,#2105,#2122,#2139,#2156,#2173));
#2175 = MANIFOLD_SOLID_BREP('combustion_engine',#2174);
#2176 = (LENGTH_UNIT()NAMED_UNIT(*)SI_UNIT(.MILLI.,.METRE.));
#2177 = (NAMED_UNIT(*)PLANE_ANGLE_UNIT()SI_UNIT($,.RADIAN.));
#2178 = (NAMED_UNIT(*)SI_UNIT($,.STERADIAN.)SOLID_ANGLE_UNIT());
#2179 = UNCERTAINTY_MEASURE_WITH_UNIT(LENGTH_MEASURE(1.0E-6),#2176,'distance_accuracy_value','confusion accuracy');
#2180 = (GEOMETRIC_REPRESENTATION_CONTEXT(3) GLOBAL_UNCERTAINTY_ASSIGNED_CONTEXT((#2179)) GLOBAL_UNIT_ASSIGNED_CONTEXT((#2176,#2177,#2178)) REPRESENTATION_CONTEXT('NONE','WORKSPACE'));
#2181 = ADVANCED_BREP_SHAPE_REPRESENTATION('',(#2175,),#2180);
#2182 = PRODUCT('combustion_engine','combustion_engine','',$,$);
#2183 = PRODUCT_DEFINITION_FORMATION('','',#2182);
#2184 = APPLICATION_CONTEXT('automotive design');
#2185 = PRODUCT_DEFINITION_CONTEXT('part definition',#2184,'design');
#2186 = PRODUCT_DEFINITION('design','',#2183,#2185);
#2187 = PRODUCT_DEFINITION_SHAPE('','shape of combustion_engine',#2186);
#2188 = SHAPE_DEFINITION_REPRESENTATION(#2187,#2181);
#2189 = APPLICATION_PROTOCOL_DEFINITION('international standard','automotive_design',2000,#2184);
ENDSEC;
END-ISO-10303-21;
