ISO-10303-21;
HEADER;
FILE_DESCRIPTION(('3Draper export','3Draper STEP exporter'), '2;1');
FILE_NAME('engine_bracket.stp','2026-09-18T09:32:33',('3Draper'),(''),'3Draper','','');
FILE_SCHEMA(('AUTOMOTIVE_DESIGN { 1 0 10303 214 1 1 1 1 }'));
ENDSEC;
DATA;
#1 = CARTESIAN_POINT('',(-40.0,-20.0,-10.0));
#2 = DIRECTION('',(0.0,0.0,1.0));
#3 = DIRECTION('',(1.0,0.0,0.0));
#4 = AXIS2_PLACEMENT_3D('',#1,#2,#3);
#5 = PLANE('',#4);
#6 = CARTESIAN_POINT('',(48.0,20.0,-10.0));
#7 = VERTEX_POINT('',#6);
#8 = VERTEX_POINT('',#1);
#9 = DIRECTION('',(-0.9103664774626047,-0.413802944301184,0.0));
#10 = LINE('',#6,#9);
#11 = EDGE_CURVE('',#7,#8,10,.T.);
#12 = ORIENTED_EDGE('',*,*,#11,.T.);
#13 = CARTESIAN_POINT('',(0.0,-20.0,-10.0));
#14 = VERTEX_POINT('',#13);
#15 = CARTESIAN_POINT('',(-1.0,-20.0,-10.0));
#16 = VERTEX_POINT('',#15);
#17 = DIRECTION('',(-1.0,0.0,0.0));
#18 = LINE('',#13,#17);
#19 = EDGE_CURVE('',#14,#16,18,.T.);
#20 = ORIENTED_EDGE('',*,*,#19,.T.);
#21 = ORIENTED_EDGE('',*,*,#19,.T.);
#22 = ORIENTED_EDGE('',*,*,#19,.T.);
#23 = CARTESIAN_POINT('',(1000.0,-20.0,-10.0));
#24 = VERTEX_POINT('',#23);
#25 = DIRECTION('',(-0.9991184610145071,0.041979767269517104,0.0));
#26 = LINE('',#23,#25);
#27 = EDGE_CURVE('',#24,#7,26,.T.);
#28 = ORIENTED_EDGE('',*,*,#27,.T.);
#29 = EDGE_LOOP('',(#12,#20,#21,#22,#28));
#30 = FACE_BOUND('',#29,.T.);
#31 = CARTESIAN_POINT('',(50.9565344030011,23.16206109227323,-10.0));
#32 = VERTEX_POINT('',#31);
#33 = CARTESIAN_POINT('',(51.37033734730228,22.251694614810624,-10.0));
#34 = VERTEX_POINT('',#33);
#35 = DIRECTION('',(0.41380294430118403,-0.9103664774626048,0.0));
#36 = LINE('',#31,#35);
#37 = EDGE_CURVE('',#32,#34,36,.T.);
#38 = ORIENTED_EDGE('',*,*,#37,.T.);
#39 = EDGE_LOOP('',(#38));
#40 = FACE_BOUND('',#39,.T.);
#41 = ADVANCED_FACE('',(#30,#40),#5,.T.,.F.);
#42 = CARTESIAN_POINT('',(-40.0,-20.0,10.0));
#43 = DIRECTION('',(0.0,0.0,-1.0));
#44 = DIRECTION('',(0.0,1.0,0.0));
#45 = AXIS2_PLACEMENT_3D('',#42,#43,#44);
#46 = PLANE('',#45);
#47 = CARTESIAN_POINT('',(0.0,-20.0,10.0));
#48 = VERTEX_POINT('',#47);
#49 = CARTESIAN_POINT('',(1.0,-20.0,10.0));
#50 = VERTEX_POINT('',#49);
#51 = LINE('',#47,#3);
#52 = EDGE_CURVE('',#48,#50,51,.T.);
#53 = ORIENTED_EDGE('',*,*,#52,.T.);
#54 = ORIENTED_EDGE('',*,*,#52,.T.);
#55 = ORIENTED_EDGE('',*,*,#52,.T.);
#56 = ORIENTED_EDGE('',*,*,#52,.T.);
#57 = ORIENTED_EDGE('',*,*,#52,.T.);
#58 = EDGE_LOOP('',(#53,#54,#55,#56,#57));
#59 = FACE_BOUND('',#58,.T.);
#60 = ADVANCED_FACE('',(#59),#46,.T.,.F.);
#61 = AXIS2_PLACEMENT_3D('',#1,#44,#2);
#62 = PLANE('',#61);
#63 = VERTEX_POINT('',#42);
#64 = LINE('',#1,#2);
#65 = EDGE_CURVE('',#8,#63,64,.T.);
#66 = ORIENTED_EDGE('',*,*,#65,.T.);
#67 = CARTESIAN_POINT('',(40.0,-20.0,10.0));
#68 = VERTEX_POINT('',#67);
#69 = LINE('',#42,#3);
#70 = EDGE_CURVE('',#63,#68,69,.T.);
#71 = ORIENTED_EDGE('',*,*,#70,.T.);
#72 = CARTESIAN_POINT('',(1000.0,-20.0,30.0));
#73 = VERTEX_POINT('',#72);
#74 = DIRECTION('',(0.9997830567281121,0.0,0.020828813681835666));
#75 = LINE('',#67,#74);
#76 = EDGE_CURVE('',#68,#73,75,.T.);
#77 = ORIENTED_EDGE('',*,*,#76,.T.);
#78 = CARTESIAN_POINT('',(1.0,-20.0,-10.0));
#79 = VERTEX_POINT('',#78);
#80 = LINE('',#13,#3);
#81 = EDGE_CURVE('',#14,#79,80,.T.);
#82 = ORIENTED_EDGE('',*,*,#81,.T.);
#83 = ORIENTED_EDGE('',*,*,#81,.T.);
#84 = EDGE_LOOP('',(#66,#71,#77,#82,#83));
#85 = FACE_BOUND('',#84,.T.);
#86 = CARTESIAN_POINT('',(0.0,-20.0,5.0));
#87 = VERTEX_POINT('',#86);
#88 = CARTESIAN_POINT('',(1.0,-20.0,5.0));
#89 = VERTEX_POINT('',#88);
#90 = LINE('',#86,#3);
#91 = EDGE_CURVE('',#87,#89,90,.T.);
#92 = ORIENTED_EDGE('',*,*,#91,.T.);
#93 = EDGE_LOOP('',(#92));
#94 = FACE_BOUND('',#93,.T.);
#95 = ADVANCED_FACE('',(#85,#94),#62,.T.,.F.);
#96 = AXIS2_PLACEMENT_3D('',#1,#3,#44);
#97 = PLANE('',#96);
#98 = CARTESIAN_POINT('',(-40.0,20.0,-10.0));
#99 = VERTEX_POINT('',#98);
#100 = CARTESIAN_POINT('',(-40.0,20.0,10.0));
#101 = VERTEX_POINT('',#100);
#102 = LINE('',#98,#2);
#103 = EDGE_CURVE('',#99,#101,102,.T.);
#104 = ORIENTED_EDGE('',*,*,#103,.T.);
#105 = DIRECTION('',(0.0,-1.0,0.0));
#106 = LINE('',#100,#105);
#107 = EDGE_CURVE('',#101,#63,106,.T.);
#108 = ORIENTED_EDGE('',*,*,#107,.T.);
#109 = CARTESIAN_POINT('',(-40.0,-1000.0,30.0));
#110 = VERTEX_POINT('',#109);
#111 = DIRECTION('',(0.0,-0.9997918184634462,0.02040391466251931));
#112 = LINE('',#42,#111);
#113 = EDGE_CURVE('',#63,#110,112,.T.);
#114 = ORIENTED_EDGE('',*,*,#113,.T.);
#115 = CARTESIAN_POINT('',(-40.0,0.0,-10.0));
#116 = VERTEX_POINT('',#115);
#117 = CARTESIAN_POINT('',(-40.0,-1.0,-10.0));
#118 = VERTEX_POINT('',#117);
#119 = LINE('',#115,#105);
#120 = EDGE_CURVE('',#116,#118,119,.T.);
#121 = ORIENTED_EDGE('',*,*,#120,.T.);
#122 = ORIENTED_EDGE('',*,*,#120,.T.);
#123 = EDGE_LOOP('',(#104,#108,#114,#121,#122));
#124 = FACE_BOUND('',#123,.T.);
#125 = CARTESIAN_POINT('',(-40.0,0.0,5.0));
#126 = VERTEX_POINT('',#125);
#127 = CARTESIAN_POINT('',(-40.0,-1.0,5.0));
#128 = VERTEX_POINT('',#127);
#129 = LINE('',#125,#105);
#130 = EDGE_CURVE('',#126,#128,129,.T.);
#131 = ORIENTED_EDGE('',*,*,#130,.T.);
#132 = EDGE_LOOP('',(#131));
#133 = FACE_BOUND('',#132,.T.);
#134 = ADVANCED_FACE('',(#124,#133),#97,.T.,.F.);
#135 = CARTESIAN_POINT('',(40.0,-20.0,-10.0));
#136 = AXIS2_PLACEMENT_3D('',#135,#17,#2);
#137 = PLANE('',#136);
#138 = VERTEX_POINT('',#135);
#139 = LINE('',#135,#2);
#140 = EDGE_CURVE('',#138,#68,139,.T.);
#141 = ORIENTED_EDGE('',*,*,#140,.T.);
#142 = CARTESIAN_POINT('',(40.0,20.0,10.0));
#143 = VERTEX_POINT('',#142);
#144 = LINE('',#67,#44);
#145 = EDGE_CURVE('',#68,#143,144,.T.);
#146 = ORIENTED_EDGE('',*,*,#145,.T.);
#147 = CARTESIAN_POINT('',(40.0,20.0,-10.0));
#148 = VERTEX_POINT('',#147);
#149 = LINE('',#142,#43);
#150 = EDGE_CURVE('',#143,#148,149,.T.);
#151 = ORIENTED_EDGE('',*,*,#150,.T.);
#152 = CARTESIAN_POINT('',(40.0,0.0,-10.0));
#153 = VERTEX_POINT('',#152);
#154 = CARTESIAN_POINT('',(40.0,1.0,-10.0));
#155 = VERTEX_POINT('',#154);
#156 = LINE('',#152,#44);
#157 = EDGE_CURVE('',#153,#155,156,.T.);
#158 = ORIENTED_EDGE('',*,*,#157,.T.);
#159 = ORIENTED_EDGE('',*,*,#157,.T.);
#160 = ORIENTED_EDGE('',*,*,#157,.T.);
#161 = EDGE_LOOP('',(#141,#146,#151,#158,#159,#160));
#162 = FACE_BOUND('',#161,.T.);
#163 = CARTESIAN_POINT('',(40.0,0.0,5.0));
#164 = VERTEX_POINT('',#163);
#165 = CARTESIAN_POINT('',(40.0,1.0,5.0));
#166 = VERTEX_POINT('',#165);
#167 = LINE('',#163,#44);
#168 = EDGE_CURVE('',#164,#166,167,.T.);
#169 = ORIENTED_EDGE('',*,*,#168,.T.);
#170 = EDGE_LOOP('',(#169));
#171 = FACE_BOUND('',#170,.T.);
#172 = ADVANCED_FACE('',(#162,#171),#137,.T.,.F.);
#173 = ORIENTED_EDGE('',*,*,#157,.T.);
#174 = ORIENTED_EDGE('',*,*,#157,.T.);
#175 = ORIENTED_EDGE('',*,*,#157,.T.);
#176 = ORIENTED_EDGE('',*,*,#157,.T.);
#177 = EDGE_LOOP('',(#173,#174,#175,#176));
#178 = FACE_BOUND('',#177,.T.);
#179 = ADVANCED_FACE('',(#178),#137,.T.,.F.);
#180 = LINE('',#42,#43);
#181 = EDGE_CURVE('',#63,#8,180,.T.);
#182 = ORIENTED_EDGE('',*,*,#181,.T.);
#183 = ORIENTED_EDGE('',*,*,#120,.T.);
#184 = ORIENTED_EDGE('',*,*,#120,.T.);
#185 = ORIENTED_EDGE('',*,*,#120,.T.);
#186 = ORIENTED_EDGE('',*,*,#113,.T.);
#187 = EDGE_LOOP('',(#182,#183,#184,#185,#186));
#188 = FACE_BOUND('',#187,.T.);
#189 = ADVANCED_FACE('',(#188),#97,.T.,.F.);
#190 = LINE('',#67,#43);
#191 = EDGE_CURVE('',#68,#138,190,.T.);
#192 = ORIENTED_EDGE('',*,*,#191,.T.);
#193 = ORIENTED_EDGE('',*,*,#81,.T.);
#194 = ORIENTED_EDGE('',*,*,#81,.T.);
#195 = ORIENTED_EDGE('',*,*,#81,.T.);
#196 = ORIENTED_EDGE('',*,*,#76,.T.);
#197 = EDGE_LOOP('',(#192,#193,#194,#195,#196));
#198 = FACE_BOUND('',#197,.T.);
#199 = ADVANCED_FACE('',(#198),#62,.T.,.F.);
#200 = ORIENTED_EDGE('',*,*,#52,.T.);
#201 = CARTESIAN_POINT('',(48.0,20.0,10.0));
#202 = VERTEX_POINT('',#201);
#203 = DIRECTION('',(0.19611613513818404,0.9805806756909202,0.0));
#204 = LINE('',#67,#203);
#205 = EDGE_CURVE('',#68,#202,204,.T.);
#206 = ORIENTED_EDGE('',*,*,#205,.T.);
#207 = LINE('',#201,#9);
#208 = EDGE_CURVE('',#202,#63,207,.T.);
#209 = ORIENTED_EDGE('',*,*,#208,.T.);
#210 = ORIENTED_EDGE('',*,*,#52,.T.);
#211 = ORIENTED_EDGE('',*,*,#52,.T.);
#212 = ORIENTED_EDGE('',*,*,#52,.T.);
#213 = EDGE_LOOP('',(#200,#206,#209,#210,#211,#212));
#214 = FACE_BOUND('',#213,.T.);
#215 = ADVANCED_FACE('',(#214),#46,.T.,.F.);
#216 = ORIENTED_EDGE('',*,*,#19,.T.);
#217 = ORIENTED_EDGE('',*,*,#19,.T.);
#218 = LINE('',#98,#3);
#219 = EDGE_CURVE('',#99,#7,218,.T.);
#220 = ORIENTED_EDGE('',*,*,#219,.T.);
#221 = ORIENTED_EDGE('',*,*,#27,.T.);
#222 = ORIENTED_EDGE('',*,*,#19,.T.);
#223 = ORIENTED_EDGE('',*,*,#19,.T.);
#224 = EDGE_LOOP('',(#216,#217,#220,#221,#222,#223));
#225 = FACE_BOUND('',#224,.T.);
#226 = ORIENTED_EDGE('',*,*,#37,.T.);
#227 = EDGE_LOOP('',(#226));
#228 = FACE_BOUND('',#227,.T.);
#229 = ADVANCED_FACE('',(#225,#228),#5,.T.,.F.);
#230 = CARTESIAN_POINT('',(20.0,-20.0,5.0));
#231 = AXIS2_PLACEMENT_3D('',#230,#2,#3);
#232 = PLANE('',#231);
#233 = ORIENTED_EDGE('',*,*,#91,.T.);
#234 = ORIENTED_EDGE('',*,*,#91,.T.);
#235 = ORIENTED_EDGE('',*,*,#91,.T.);
#236 = ORIENTED_EDGE('',*,*,#91,.T.);
#237 = EDGE_LOOP('',(#233,#234,#235,#236));
#238 = FACE_BOUND('',#237,.T.);
#239 = ADVANCED_FACE('',(#238),#232,.T.,.F.);
#240 = CARTESIAN_POINT('',(20.0,-20.0,35.0));
#241 = AXIS2_PLACEMENT_3D('',#240,#43,#44);
#242 = PLANE('',#241);
#243 = CARTESIAN_POINT('',(0.0,-20.0,35.0));
#244 = VERTEX_POINT('',#243);
#245 = CARTESIAN_POINT('',(-1.0,-20.0,35.0));
#246 = VERTEX_POINT('',#245);
#247 = LINE('',#243,#17);
#248 = EDGE_CURVE('',#244,#246,247,.T.);
#249 = ORIENTED_EDGE('',*,*,#248,.T.);
#250 = ORIENTED_EDGE('',*,*,#248,.T.);
#251 = ORIENTED_EDGE('',*,*,#248,.T.);
#252 = ORIENTED_EDGE('',*,*,#248,.T.);
#253 = EDGE_LOOP('',(#249,#250,#251,#252));
#254 = FACE_BOUND('',#253,.T.);
#255 = ADVANCED_FACE('',(#254),#242,.T.,.F.);
#256 = AXIS2_PLACEMENT_3D('',#230,#44,#2);
#257 = PLANE('',#256);
#258 = VERTEX_POINT('',#230);
#259 = VERTEX_POINT('',#240);
#260 = LINE('',#230,#2);
#261 = EDGE_CURVE('',#258,#259,260,.T.);
#262 = ORIENTED_EDGE('',*,*,#261,.T.);
#263 = CARTESIAN_POINT('',(40.0,-20.0,35.0));
#264 = VERTEX_POINT('',#263);
#265 = LINE('',#240,#3);
#266 = EDGE_CURVE('',#259,#264,265,.T.);
#267 = ORIENTED_EDGE('',*,*,#266,.T.);
#268 = CARTESIAN_POINT('',(40.0,-20.0,5.0));
#269 = VERTEX_POINT('',#268);
#270 = LINE('',#263,#43);
#271 = EDGE_CURVE('',#264,#269,270,.T.);
#272 = ORIENTED_EDGE('',*,*,#271,.T.);
#273 = LINE('',#268,#17);
#274 = EDGE_CURVE('',#269,#258,273,.T.);
#275 = ORIENTED_EDGE('',*,*,#274,.T.);
#276 = EDGE_LOOP('',(#262,#267,#272,#275));
#277 = FACE_BOUND('',#276,.T.);
#278 = ORIENTED_EDGE('',*,*,#19,.T.);
#279 = EDGE_LOOP('',(#278));
#280 = FACE_BOUND('',#279,.T.);
#281 = ADVANCED_FACE('',(#277,#280),#257,.T.,.F.);
#282 = CARTESIAN_POINT('',(20.0,20.0,5.0));
#283 = AXIS2_PLACEMENT_3D('',#282,#105,#3);
#284 = PLANE('',#283);
#285 = VERTEX_POINT('',#282);
#286 = CARTESIAN_POINT('',(40.0,20.0,5.0));
#287 = VERTEX_POINT('',#286);
#288 = LINE('',#282,#3);
#289 = EDGE_CURVE('',#285,#287,288,.T.);
#290 = ORIENTED_EDGE('',*,*,#289,.T.);
#291 = CARTESIAN_POINT('',(40.0,20.0,35.0));
#292 = VERTEX_POINT('',#291);
#293 = LINE('',#286,#2);
#294 = EDGE_CURVE('',#287,#292,293,.T.);
#295 = ORIENTED_EDGE('',*,*,#294,.T.);
#296 = CARTESIAN_POINT('',(20.0,20.0,35.0));
#297 = VERTEX_POINT('',#296);
#298 = LINE('',#291,#17);
#299 = EDGE_CURVE('',#292,#297,298,.T.);
#300 = ORIENTED_EDGE('',*,*,#299,.T.);
#301 = LINE('',#296,#43);
#302 = EDGE_CURVE('',#297,#285,301,.T.);
#303 = ORIENTED_EDGE('',*,*,#302,.T.);
#304 = EDGE_LOOP('',(#290,#295,#300,#303));
#305 = FACE_BOUND('',#304,.T.);
#306 = CARTESIAN_POINT('',(0.0,20.0,-10.0));
#307 = VERTEX_POINT('',#306);
#308 = CARTESIAN_POINT('',(1.0,20.0,-10.0));
#309 = VERTEX_POINT('',#308);
#310 = LINE('',#306,#3);
#311 = EDGE_CURVE('',#307,#309,310,.T.);
#312 = ORIENTED_EDGE('',*,*,#311,.T.);
#313 = EDGE_LOOP('',(#312));
#314 = FACE_BOUND('',#313,.T.);
#315 = ADVANCED_FACE('',(#305,#314),#284,.T.,.F.);
#316 = AXIS2_PLACEMENT_3D('',#230,#3,#44);
#317 = PLANE('',#316);
#318 = LINE('',#230,#44);
#319 = EDGE_CURVE('',#258,#285,318,.T.);
#320 = ORIENTED_EDGE('',*,*,#319,.T.);
#321 = LINE('',#282,#2);
#322 = EDGE_CURVE('',#285,#297,321,.T.);
#323 = ORIENTED_EDGE('',*,*,#322,.T.);
#324 = LINE('',#296,#105);
#325 = EDGE_CURVE('',#297,#259,324,.T.);
#326 = ORIENTED_EDGE('',*,*,#325,.T.);
#327 = LINE('',#240,#43);
#328 = EDGE_CURVE('',#259,#258,327,.T.);
#329 = ORIENTED_EDGE('',*,*,#328,.T.);
#330 = EDGE_LOOP('',(#320,#323,#326,#329));
#331 = FACE_BOUND('',#330,.T.);
#332 = CARTESIAN_POINT('',(20.0,0.0,-10.0));
#333 = VERTEX_POINT('',#332);
#334 = CARTESIAN_POINT('',(20.0,1.0,-10.0));
#335 = VERTEX_POINT('',#334);
#336 = LINE('',#332,#44);
#337 = EDGE_CURVE('',#333,#335,336,.T.);
#338 = ORIENTED_EDGE('',*,*,#337,.T.);
#339 = EDGE_LOOP('',(#338));
#340 = FACE_BOUND('',#339,.T.);
#341 = ADVANCED_FACE('',(#331,#340),#317,.T.,.F.);
#342 = AXIS2_PLACEMENT_3D('',#268,#17,#2);
#343 = PLANE('',#342);
#344 = LINE('',#268,#2);
#345 = EDGE_CURVE('',#269,#264,344,.T.);
#346 = ORIENTED_EDGE('',*,*,#345,.T.);
#347 = LINE('',#263,#44);
#348 = EDGE_CURVE('',#264,#292,347,.T.);
#349 = ORIENTED_EDGE('',*,*,#348,.T.);
#350 = LINE('',#291,#43);
#351 = EDGE_CURVE('',#292,#287,350,.T.);
#352 = ORIENTED_EDGE('',*,*,#351,.T.);
#353 = LINE('',#286,#105);
#354 = EDGE_CURVE('',#287,#269,353,.T.);
#355 = ORIENTED_EDGE('',*,*,#354,.T.);
#356 = EDGE_LOOP('',(#346,#349,#352,#355));
#357 = FACE_BOUND('',#356,.T.);
#358 = CARTESIAN_POINT('',(40.0,-1.0,-10.0));
#359 = VERTEX_POINT('',#358);
#360 = LINE('',#152,#105);
#361 = EDGE_CURVE('',#153,#359,360,.T.);
#362 = ORIENTED_EDGE('',*,*,#361,.T.);
#363 = EDGE_LOOP('',(#362));
#364 = FACE_BOUND('',#363,.T.);
#365 = ADVANCED_FACE('',(#357,#364),#343,.T.,.F.);
#366 = ORIENTED_EDGE('',*,*,#248,.T.);
#367 = ORIENTED_EDGE('',*,*,#248,.T.);
#368 = ORIENTED_EDGE('',*,*,#248,.T.);
#369 = ORIENTED_EDGE('',*,*,#248,.T.);
#370 = ORIENTED_EDGE('',*,*,#248,.T.);
#371 = ORIENTED_EDGE('',*,*,#248,.T.);
#372 = EDGE_LOOP('',(#366,#367,#368,#369,#370,#371));
#373 = FACE_BOUND('',#372,.T.);
#374 = ADVANCED_FACE('',(#373),#242,.T.,.F.);
#375 = ORIENTED_EDGE('',*,*,#91,.T.);
#376 = ORIENTED_EDGE('',*,*,#91,.T.);
#377 = ORIENTED_EDGE('',*,*,#91,.T.);
#378 = ORIENTED_EDGE('',*,*,#91,.T.);
#379 = ORIENTED_EDGE('',*,*,#91,.T.);
#380 = ORIENTED_EDGE('',*,*,#91,.T.);
#381 = EDGE_LOOP('',(#375,#376,#377,#378,#379,#380));
#382 = FACE_BOUND('',#381,.T.);
#383 = ADVANCED_FACE('',(#382),#232,.T.,.F.);
#384 = CLOSED_SHELL('',(#41,#60,#95,#134,#172,#179,#189,#199,#215,#229,#239,#255,#281,#315,#341,#365,#374,#383));
#385 = MANIFOLD_SOLID_BREP('engine_bracket',#384);
#386 = (LENGTH_UNIT()NAMED_UNIT(*)SI_UNIT(.MILLI.,.METRE.));
#387 = (NAMED_UNIT(*)PLANE_ANGLE_UNIT()SI_UNIT($,.RADIAN.));
#388 = (NAMED_UNIT(*)SI_UNIT($,.STERADIAN.)SOLID_ANGLE_UNIT());
#389 = UNCERTAINTY_MEASURE_WITH_UNIT(LENGTH_MEASURE(1.0E-6),#386,'distance_accuracy_value','confusion accuracy');
#390 = (GEOMETRIC_REPRESENTATION_CONTEXT(3) GLOBAL_UNCERTAINTY_ASSIGNED_CONTEXT((#389)) GLOBAL_UNIT_ASSIGNED_CONTEXT((#386,#387,#388)) REPRESENTATION_CONTEXT('NONE','WORKSPACE'));
#391 = ADVANCED_BREP_SHAPE_REPRESENTATION('',(#385,),#390);
#392 = PRODUCT('engine_bracket','engine_bracket','',$,$);
#393 = PRODUCT_DEFINITION_FORMATION('','',#392);
#394 = APPLICATION_CONTEXT('automotive design');
#395 = PRODUCT_DEFINITION_CONTEXT('part definition',#394,'design');
#396 = PRODUCT_DEFINITION('design','',#393,#395);
#397 = PRODUCT_DEFINITION_SHAPE('','shape of engine_bracket',#396);
#398 = SHAPE_DEFINITION_REPRESENTATION(#397,#391);
#399 = APPLICATION_PROTOCOL_DEFINITION('international standard','automotive_design',2000,#394);
ENDSEC;
END-ISO-10303-21;
