# 3Draper OBJ - 3Draper
# 34 vertices, 25 triangles

v 48 20 -10
v -40 -20 -10
v 0 -20 -10
v -1 -20 -10
v 1000 -20 -10
v 0 -20 10
v 1 -20 10
v -40 -20 10
v 40 -20 10
v 1000 -20 30
v 1 -20 -10
v -40 20 -10
v -40 20 10
v -40 -1000 30
v -40 0 -10
v -40 -1 -10
v 40 -20 -10
v 40 20 10
v 40 20 -10
v 40 0 -10
v 40 1 -10
v 48 20 10
v 0 -20 5
v 1 -20 5
v -0 -20 35
v -1 -20 35
v 20 -20 5
v 20 -20 35
v 40 -20 35
v 40 -20 5
v 20 20 5
v 40 20 5
v 40 20 35
v 20 20 35

o 3Draper
f 1 2 5
f 2 8 9
f 2 9 10
f 10 3 2
f 12 13 8
f 12 8 14
f 14 15 12
f 17 9 18
f 18 19 17
f 8 2 15
f 8 15 16
f 9 17 3
f 9 3 11
f 6 9 22
f 6 22 8
f 4 3 1
f 1 12 4
f 29 30 27
f 27 28 29
f 33 34 31
f 31 32 33
f 34 28 27
f 27 31 34
f 33 32 30
f 30 29 33
