v 0.641103 0.220000 0.344754
v 0.603256 0.220000 0.306906
v 0.601351 0.220000 0.295426
v 0.601351 0.010000 0.295426
v 0.603256 0.016837 0.306906
v 0.603163 0.016713 0.306814
v 0.603070 0.016588 0.306721
v 0.602977 0.016463 0.306628
v 0.602884 0.016338 0.306535
v 0.602792 0.016214 0.306442
v 0.602699 0.016089 0.306350
v 0.602606 0.015964 0.306257
v 0.602513 0.015839 0.306164
v 0.602421 0.015715 0.306071
v 0.602328 0.015590 0.305979
v 0.602235 0.015465 0.305886
v 0.602143 0.015341 0.305793
v 0.602050 0.015216 0.305701
v 0.601957 0.015092 0.305608
v 0.601864 0.014967 0.305515
v 0.601772 0.014842 0.305423
v 0.601679 0.014718 0.305330
v 0.601587 0.014593 0.305237
v 0.601494 0.014469 0.305145
v 0.601401 0.014344 0.305052
v 0.601309 0.014220 0.304960
v 0.601216 0.014096 0.304867
v 0.601124 0.013971 0.304774
v 0.601031 0.013847 0.304682
v 0.600939 0.013722 0.304589
v 0.600846 0.013598 0.304497
v 0.600754 0.013474 0.304404
v 0.600661 0.013349 0.304312
v 0.600569 0.013225 0.304219
v 0.600476 0.013101 0.304127
v 0.600384 0.012977 0.304034
v 0.600291 0.012852 0.303942
v 0.600199 0.012728 0.303850
v 0.600106 0.012604 0.303757
v 0.600014 0.012480 0.303665
v 0.599922 0.012356 0.303572
v 0.599829 0.012231 0.303480
v 0.599737 0.012107 0.303388
v 0.599644 0.011983 0.303295
v 0.599552 0.011859 0.303203
v 0.599460 0.011735 0.303111
v 0.599367 0.011611 0.303018
v 0.599275 0.011487 0.302926
v 0.599183 0.011363 0.302834
v 0.599090 0.011239 0.302741
v 0.598998 0.011115 0.302649
v 0.598906 0.010991 0.302557
v 0.598814 0.010867 0.302464
v 0.598721 0.010743 0.302372
v 0.598629 0.010619 0.302280
v 0.598537 0.010495 0.302188
v 0.598445 0.010371 0.302096
v 0.598353 0.010248 0.302003
v 0.598260 0.010124 0.301911
v 0.598168 0.010000 0.301819
v 0.598168 0.000000 0.301819
v 0.641103 0.000000 0.344754
v 0.642692 0.000000 0.356825
v 0.642692 0.220000 0.356825
f 2 3 4
f 1 2 4
f 64 1 4
f 64 4 5
f 59 60 61
f 58 59 61
f 57 58 61
f 56 57 61
f 55 56 61
f 54 55 61
f 53 54 61
f 52 53 61
f 51 52 61
f 50 51 61
f 49 50 61
f 48 49 61
f 47 48 61
f 46 47 61
f 45 46 61
f 44 45 61
f 43 44 61
f 42 43 61
f 41 42 61
f 40 41 61
f 39 40 61
f 38 39 61
f 37 38 61
f 36 37 61
f 35 36 61
f 34 35 61
f 33 34 61
f 32 33 61
f 31 32 61
f 30 31 61
f 29 30 61
f 28 29 61
f 27 28 61
f 26 27 61
f 25 26 61
f 24 25 61
f 23 24 61
f 22 23 61
f 21 22 61
f 20 21 61
f 19 20 61
f 18 19 61
f 17 18 61
f 16 17 61
f 15 16 61
f 14 15 61
f 13 14 61
f 12 13 61
f 11 12 61
f 10 11 61
f 9 10 61
f 8 9 61
f 7 8 61
f 6 7 61
f 5 6 61
f 5 61 62
f 64 5 62
f 62 63 64
