v 0.560379 0.264384 -1.097769
v 0.559184 0.266902 -1.097769
v 0.568594 0.271294 -1.095000
v 0.573309 0.261184 -1.095000
v 0.573468 0.260834 -1.095000
v 0.571216 0.259630 -1.095680
v 0.456191 0.198129 -1.130371
v 0.454104 0.197013 -1.131000
v 0.453761 0.197804 -1.131000
v 0.443198 0.220455 -1.131000
v 0.442814 0.221226 -1.131000
v 0.445006 0.222106 -1.130372
v 0.454117 0.221791 -1.128231
v 0.453115 0.223832 -1.128231
v 0.472229 0.207406 -1.125462
v 0.463448 0.226348 -1.125462
v 0.462425 0.228431 -1.125462
v 0.480781 0.213747 -1.122692
v 0.473813 0.228777 -1.122692
v 0.472779 0.230906 -1.122692
v 0.490270 0.217965 -1.119923
v 0.483165 0.233292 -1.119923
v 0.482111 0.235463 -1.119923
v 0.499759 0.222184 -1.117154
v 0.492516 0.237807 -1.117154
v 0.491442 0.240020 -1.117154
v 0.509248 0.226403 -1.114385
v 0.501868 0.242323 -1.114385
v 0.500773 0.244578 -1.114385
v 0.517695 0.232952 -1.111615
v 0.512325 0.244536 -1.111615
v 0.511220 0.246838 -1.111615
v 0.527165 0.237214 -1.108846
v 0.521697 0.249009 -1.108846
v 0.520571 0.251353 -1.108846
v 0.536635 0.241475 -1.106077
v 0.531068 0.253483 -1.106077
v 0.529923 0.255869 -1.106077
v 0.544994 0.248190 -1.103308
v 0.541595 0.255522 -1.103308
v 0.540440 0.257956 -1.103308
v 0.554445 0.252494 -1.100538
v 0.550987 0.259953 -1.100538
v 0.549812 0.262429 -1.100538
v 0.563895 0.256798 -1.097769
v 0.561562 0.261861 -1.097769
v 0.573149 0.261534 -1.095000
v 0.458281 0.199247 -1.129741
v 0.443581 0.219683 -1.131000
v 0.455110 0.219746 -1.128231
v 0.464462 0.224261 -1.125462
v 0.474838 0.226643 -1.122692
v 0.484209 0.231116 -1.119923
v 0.493581 0.235590 -1.117154
v 0.502953 0.240063 -1.114385
v 0.513420 0.242229 -1.111615
v 0.522811 0.246660 -1.108846
v 0.532203 0.251091 -1.106077
v 0.542739 0.253083 -1.103308
v 0.552151 0.257472 -1.100538
v 0.562734 0.259332 -1.097769
v 0.572989 0.261884 -1.095000
v 0.460374 0.200366 -1.129110
v 0.443963 0.218910 -1.131000
v 0.456094 0.217697 -1.128231
v 0.465466 0.222170 -1.125462
v 0.475852 0.224505 -1.122692
v 0.485244 0.228936 -1.119923
v 0.494636 0.233367 -1.117154
v 0.504028 0.237798 -1.114385
v 0.514504 0.239917 -1.111615
v 0.523916 0.244306 -1.108846
v 0.533327 0.248695 -1.106077
v 0.543872 0.250639 -1.103308
v 0.553303 0.254986 -1.100538
v 0.572829 0.262234 -1.095000
v 0.462470 0.201487 -1.128479
v 0.444344 0.218137 -1.131000
v 0.457069 0.215643 -1.128231
v 0.466460 0.220074 -1.125462
v 0.476857 0.222362 -1.122692
v 0.486269 0.226751 -1.119923
v 0.495681 0.231140 -1.117154
v 0.505092 0.235528 -1.114385
v 0.515578 0.237600 -1.111615
v 0.525009 0.241947 -1.108846
v 0.534441 0.246293 -1.106077
v 0.568760 0.270947 -1.095000
v 0.572669 0.262583 -1.095000
v 0.464569 0.202610 -1.127846
v 0.444723 0.217363 -1.131000
v 0.458034 0.213585 -1.128231
v 0.467446 0.217973 -1.125462
v 0.477853 0.220215 -1.122692
v 0.487284 0.224561 -1.119923
v 0.496715 0.228908 -1.117154
v 0.506147 0.233254 -1.114385
v 0.516642 0.235279 -1.111615
v 0.526092 0.239583 -1.108846
v 0.535543 0.243887 -1.106077
v 0.568925 0.270600 -1.095000
v 0.572509 0.262933 -1.095000
v 0.466671 0.203734 -1.127212
v 0.445101 0.216588 -1.131000
v 0.458990 0.211522 -1.128231
v 0.468421 0.215869 -1.125462
v 0.478838 0.218063 -1.122692
v 0.488289 0.222367 -1.119923
v 0.497740 0.226671 -1.117154
v 0.507191 0.230975 -1.114385
v 0.569090 0.270252 -1.095000
v 0.572348 0.263283 -1.095000
v 0.468777 0.204860 -1.126577
v 0.445477 0.215813 -1.131000
v 0.566054 0.270688 -1.095681
v 0.568429 0.271641 -1.095000
v 0.462722 0.203230 -1.128231
v 0.459937 0.209456 -1.128231
v 0.469388 0.213759 -1.125462
v 0.479815 0.215907 -1.122692
v 0.489285 0.220168 -1.119923
v 0.498755 0.224430 -1.117154
v 0.508225 0.228691 -1.114385
v 0.569255 0.269905 -1.095000
v 0.572187 0.263632 -1.095000
v 0.470885 0.205987 -1.125942
v 0.445852 0.215037 -1.131000
v 0.563684 0.269737 -1.096361
v 0.460874 0.207385 -1.128231
v 0.470344 0.211646 -1.125462
v 0.569420 0.269557 -1.095000
v 0.572026 0.263981 -1.095000
v 0.472997 0.207116 -1.125305
v 0.446226 0.214260 -1.131000
v 0.561316 0.268786 -1.097039
v 0.461803 0.205309 -1.128231
v 0.471292 0.209528 -1.125462
v 0.569584 0.269209 -1.095000
v 0.571865 0.264331 -1.095000
v 0.475111 0.208247 -1.124668
v 0.446598 0.213483 -1.131000
v 0.558952 0.267837 -1.097717
v 0.569749 0.268861 -1.095000
v 0.571703 0.264680 -1.095000
v 0.477229 0.209380 -1.124029
v 0.446969 0.212705 -1.131000
v 0.556592 0.266890 -1.098394
v 0.569913 0.268514 -1.095000
v 0.571542 0.265029 -1.095000
v 0.479350 0.210514 -1.123390
v 0.447339 0.211926 -1.131000
v 0.554234 0.265944 -1.099070
v 0.570077 0.268166 -1.095000
v 0.571380 0.265378 -1.095000
v 0.481474 0.211649 -1.122749
v 0.447707 0.211147 -1.131000
v 0.551880 0.264999 -1.099745
v 0.570240 0.267817 -1.095000
v 0.571218 0.265726 -1.095000
v 0.483601 0.212787 -1.122108
v 0.448074 0.210367 -1.131000
v 0.549529 0.264055 -1.100419
v 0.570404 0.267469 -1.095000
v 0.571055 0.266075 -1.095000
v 0.485732 0.213926 -1.121466
v 0.448440 0.209587 -1.131000
v 0.547182 0.263113 -1.101092
v 0.570567 0.267121 -1.095000
v 0.570893 0.266424 -1.095000
v 0.487865 0.215067 -1.120822
v 0.448804 0.208805 -1.131000
v 0.544838 0.262172 -1.101764
v 0.570730 0.266772 -1.095000
v 0.490002 0.216209 -1.120178
v 0.449167 0.208024 -1.131000
v 0.542497 0.261232 -1.102435
v 0.492142 0.217353 -1.119533
v 0.449529 0.207241 -1.131000
v 0.540160 0.260294 -1.103106
v 0.494284 0.218499 -1.118887
v 0.449889 0.206458 -1.131000
v 0.537825 0.259357 -1.103775
v 0.568966 0.258427 -1.096359
v 0.496430 0.219647 -1.118240
v 0.450248 0.205674 -1.131000
v 0.535494 0.258421 -1.104443
v 0.566719 0.257226 -1.097036
v 0.498580 0.220796 -1.117592
v 0.450605 0.204890 -1.131000
v 0.533167 0.257487 -1.105110
v 0.564476 0.256027 -1.097713
v 0.500732 0.221947 -1.116942
v 0.450961 0.204105 -1.131000
v 0.530843 0.256554 -1.105777
v 0.562235 0.254829 -1.098389
v 0.502887 0.223099 -1.116292
v 0.451316 0.203320 -1.131000
v 0.528522 0.255623 -1.106442
v 0.559998 0.253633 -1.099065
v 0.505046 0.224253 -1.115642
v 0.451669 0.202534 -1.131000
v 0.526204 0.254692 -1.107106
v 0.557763 0.252438 -1.099739
v 0.507207 0.225409 -1.114990
v 0.452021 0.201747 -1.131000
v 0.523890 0.253764 -1.107770
v 0.555532 0.251245 -1.100412
v 0.509372 0.226566 -1.114337
v 0.452372 0.200959 -1.131000
v 0.521578 0.252836 -1.108432
v 0.553304 0.250054 -1.101084
v 0.511539 0.227725 -1.113683
v 0.452721 0.200171 -1.131000
v 0.519271 0.251910 -1.109094
v 0.551078 0.248864 -1.101756
v 0.513710 0.228886 -1.113028
v 0.453069 0.199383 -1.131000
v 0.516966 0.250985 -1.109754
v 0.548856 0.247676 -1.102426
v 0.515884 0.230048 -1.112373
v 0.453415 0.198594 -1.131000
v 0.514665 0.250061 -1.110414
v 0.546637 0.246490 -1.103096
v 0.518061 0.231212 -1.111716
v 0.512367 0.249139 -1.111072
v 0.544421 0.245305 -1.103764
v 0.520241 0.232377 -1.111059
v 0.447202 0.222987 -1.129743
v 0.510073 0.248218 -1.111730
v 0.542207 0.244122 -1.104432
v 0.522424 0.233545 -1.110400
v 0.449402 0.223870 -1.129113
v 0.507782 0.247298 -1.112387
v 0.539997 0.242940 -1.105099
v 0.524610 0.234713 -1.109741
v 0.451605 0.224754 -1.128482
v 0.505494 0.246380 -1.113042
v 0.537790 0.241760 -1.105765
v 0.526799 0.235884 -1.109080
v 0.453811 0.225639 -1.127850
v 0.503209 0.245463 -1.113697
v 0.535586 0.240581 -1.106430
v 0.528991 0.237056 -1.108419
v 0.456021 0.226526 -1.127218
v 0.500928 0.244548 -1.114351
v 0.533385 0.239405 -1.107094
v 0.458234 0.227414 -1.126584
v 0.498651 0.243634 -1.115004
v 0.531186 0.238229 -1.107757
v 0.460450 0.228303 -1.125949
v 0.496376 0.242721 -1.115655
v 0.462670 0.229194 -1.125313
v 0.494105 0.241809 -1.116306
v 0.464893 0.230086 -1.124676
v 0.491838 0.240899 -1.116956
v 0.467120 0.230980 -1.124038
v 0.489574 0.239991 -1.117605
v 0.469350 0.231875 -1.123399
v 0.487313 0.239083 -1.118253
v 0.471583 0.232771 -1.122759
v 0.485056 0.238177 -1.118899
v 0.473820 0.233668 -1.122119
v 0.482802 0.237273 -1.119545
v 0.476060 0.234567 -1.121477
v 0.480551 0.236370 -1.120190
v 0.478304 0.235468 -1.120834
f 1 2 3
f 4 5 6
f 7 8 9
f 10 11 12
f 13 14 15
f 16 17 18
f 19 20 21
f 22 23 24
f 25 26 27
f 28 29 30
f 31 32 33
f 34 35 36
f 37 38 39
f 40 41 42
f 43 44 45
f 46 1 3
f 47 4 6
f 48 7 9
f 49 10 12
f 50 13 15
f 51 16 18
f 52 19 21
f 53 22 24
f 54 25 27
f 55 28 30
f 56 31 33
f 57 34 36
f 58 37 39
f 59 40 42
f 60 43 45
f 61 46 3
f 62 47 6
f 63 48 9
f 64 49 12
f 65 50 15
f 66 51 18
f 67 52 21
f 68 53 24
f 69 54 27
f 70 55 30
f 71 56 33
f 72 57 36
f 73 58 39
f 74 59 42
f 75 60 45
f 45 61 3
f 76 62 6
f 77 63 9
f 78 64 12
f 79 65 15
f 80 66 18
f 81 67 21
f 82 68 24
f 83 69 27
f 84 70 30
f 85 71 33
f 86 72 36
f 87 73 39
f 39 74 42
f 42 75 45
f 45 3 88
f 89 76 6
f 90 77 9
f 91 78 12
f 92 79 15
f 93 80 18
f 94 81 21
f 95 82 24
f 96 83 27
f 97 84 30
f 98 85 33
f 99 86 36
f 100 87 39
f 45 88 101
f 102 89 6
f 103 90 9
f 104 91 12
f 105 92 15
f 106 93 18
f 107 94 21
f 108 95 24
f 109 96 27
f 110 97 30
f 30 98 33
f 33 99 36
f 36 100 39
f 45 101 111
f 112 102 6
f 113 103 9
f 114 104 12
f 115 116 117
f 118 105 15
f 119 106 18
f 120 107 21
f 121 108 24
f 122 109 27
f 123 110 30
f 36 39 42
f 45 111 124
f 125 112 6
f 126 113 9
f 127 114 12
f 128 115 117
f 129 118 15
f 130 119 18
f 18 120 21
f 21 121 24
f 24 122 27
f 36 42 45
f 45 124 131
f 132 125 6
f 133 126 9
f 134 127 12
f 135 128 117
f 136 129 15
f 137 130 18
f 45 131 138
f 139 132 6
f 140 133 9
f 141 134 12
f 142 135 117
f 117 136 15
f 15 137 18
f 45 138 143
f 144 139 6
f 145 140 9
f 146 141 12
f 147 142 117
f 15 18 21
f 45 143 148
f 149 144 6
f 150 145 9
f 151 146 12
f 152 147 117
f 15 21 24
f 45 148 153
f 154 149 6
f 155 150 9
f 156 151 12
f 157 152 117
f 45 153 158
f 159 154 6
f 160 155 9
f 161 156 12
f 162 157 117
f 45 158 163
f 164 159 6
f 165 160 9
f 166 161 12
f 167 162 117
f 45 163 168
f 169 164 6
f 170 165 9
f 171 166 12
f 172 167 117
f 45 168 173
f 173 169 6
f 174 170 9
f 175 171 12
f 176 172 117
f 45 173 6
f 177 174 9
f 178 175 12
f 179 176 117
f 36 45 6
f 180 177 9
f 181 178 12
f 182 179 117
f 36 6 183
f 184 180 9
f 185 181 12
f 186 182 117
f 36 183 187
f 188 184 9
f 189 185 12
f 190 186 117
f 36 187 191
f 192 188 9
f 193 189 12
f 194 190 117
f 36 191 195
f 196 192 9
f 197 193 12
f 198 194 117
f 36 195 199
f 200 196 9
f 201 197 12
f 202 198 117
f 36 199 203
f 204 200 9
f 205 201 12
f 206 202 117
f 15 24 27
f 36 203 207
f 208 204 9
f 209 205 12
f 210 206 117
f 27 123 30
f 36 207 211
f 212 208 9
f 213 209 12
f 214 210 117
f 27 30 33
f 36 211 215
f 216 212 9
f 217 213 12
f 218 214 117
f 36 215 219
f 220 216 9
f 221 217 12
f 222 218 117
f 27 33 36
f 36 219 223
f 224 220 9
f 9 221 12
f 225 222 117
f 36 223 226
f 227 224 9
f 9 12 228
f 229 225 117
f 36 226 230
f 231 227 9
f 9 228 232
f 233 229 117
f 36 230 234
f 235 231 9
f 9 232 236
f 237 233 117
f 36 234 238
f 239 235 9
f 9 236 240
f 241 237 117
f 36 238 242
f 243 239 9
f 9 240 244
f 245 241 117
f 36 242 246
f 9 244 247
f 248 245 117
f 36 246 249
f 9 247 250
f 251 248 117
f 36 249 243
f 9 250 252
f 253 251 117
f 27 36 243
f 9 252 254
f 255 253 117
f 9 254 256
f 257 255 117
f 9 256 258
f 259 257 117
f 9 258 260
f 261 259 117
f 9 260 262
f 263 261 117
f 9 262 264
f 265 263 117
f 9 264 266
f 266 265 117
f 9 266 117
f 9 117 15
f 243 9 15
