v -0.577481 0.251826 -1.084841
v -0.577481 0.251826 -1.061000
v -0.457928 0.187956 -1.061000
v -0.457928 0.187956 -1.120893
v -0.460093 0.189112 -1.120241
v -0.462258 0.190269 -1.119588
v -0.464424 0.191426 -1.118935
v -0.466590 0.192583 -1.118283
v -0.468756 0.193741 -1.117630
v -0.470923 0.194898 -1.116977
v -0.473090 0.196056 -1.116324
v -0.475258 0.197214 -1.115670
v -0.477425 0.198372 -1.115017
v -0.479593 0.199530 -1.114363
v -0.481762 0.200689 -1.113710
v -0.483930 0.201847 -1.113056
v -0.486099 0.203006 -1.112402
v -0.488269 0.204165 -1.111748
v -0.490438 0.205324 -1.111094
v -0.492608 0.206483 -1.110440
v -0.494778 0.207643 -1.109786
v -0.496949 0.208802 -1.109131
v -0.499120 0.209962 -1.108477
v -0.501291 0.211122 -1.107822
v -0.503463 0.212282 -1.107167
v -0.505635 0.213443 -1.106512
v -0.507807 0.214603 -1.105857
v -0.509979 0.215764 -1.105202
v -0.512152 0.216925 -1.104547
v -0.514325 0.218086 -1.103892
v -0.516499 0.219247 -1.103236
v -0.518673 0.220408 -1.102581
v -0.520847 0.221569 -1.101925
v -0.523021 0.222731 -1.101269
v -0.525196 0.223893 -1.100613
v -0.527371 0.225055 -1.099957
v -0.529546 0.226217 -1.099301
v -0.531722 0.227379 -1.098645
v -0.533898 0.228542 -1.097989
v -0.536074 0.229705 -1.097332
v -0.538251 0.230867 -1.096676
v -0.540427 0.232030 -1.096019
v -0.542605 0.233193 -1.095363
v -0.544782 0.234357 -1.094706
v -0.546960 0.235520 -1.094049
v -0.549138 0.236684 -1.093392
v -0.551316 0.237848 -1.092735
v -0.553495 0.239012 -1.092078
v -0.555674 0.240176 -1.091420
v -0.557853 0.241340 -1.090763
v -0.560033 0.242504 -1.090105
v -0.562213 0.243669 -1.089448
v -0.564393 0.244834 -1.088790
v -0.566573 0.245999 -1.088132
v -0.568754 0.247164 -1.087474
v -0.570935 0.248329 -1.086816
v -0.573117 0.249494 -1.086158
v -0.575299 0.250660 -1.085500
f 1 3 2
f 1 4 3
f 1 5 4
f 1 6 5
f 1 7 6
f 1 8 7
f 1 9 8
f 1 10 9
f 1 11 10
f 1 12 11
f 1 13 12
f 1 14 13
f 1 15 14
f 1 16 15
f 1 17 16
f 1 18 17
f 1 19 18
f 1 20 19
f 1 21 20
f 1 22 21
f 1 23 22
f 1 24 23
f 1 25 24
f 1 26 25
f 1 27 26
f 1 28 27
f 1 29 28
f 1 30 29
f 1 31 30
f 1 32 31
f 1 33 32
f 1 34 33
f 1 35 34
f 1 36 35
f 1 37 36
f 1 38 37
f 1 39 38
f 1 40 39
f 1 41 40
f 1 42 41
f 1 43 42
f 1 44 43
f 1 45 44
f 1 46 45
f 1 47 46
f 1 48 47
f 1 49 48
f 1 50 49
f 1 51 50
f 1 52 51
f 1 53 52
f 1 54 53
f 1 55 54
f 1 56 55
f 1 57 56
f 1 58 57
