v 0.464044 0.010000 0.483284
v 0.465940 0.010000 0.481456
v 0.467828 0.010000 0.479621
v 0.469710 0.010000 0.477779
v 0.471584 0.010000 0.475929
v 0.473451 0.010000 0.474072
v 0.475311 0.010000 0.472207
v 0.477163 0.010000 0.470335
v 0.479008 0.010000 0.468456
v 0.480845 0.010000 0.466570
v 0.482676 0.010000 0.464677
v 0.464044 0.220000 0.483284
v 0.465940 0.220000 0.481456
v 0.467828 0.220000 0.479621
v 0.469710 0.220000 0.477779
v 0.471584 0.220000 0.475929
v 0.473451 0.220000 0.474072
v 0.475311 0.220000 0.472207
v 0.477163 0.220000 0.470335
v 0.479008 0.220000 0.468456
v 0.480845 0.220000 0.466570
v 0.482676 0.220000 0.464677
f 1 2 13
f 1 13 12
f 2 3 14
f 2 14 13
f 3 4 15
f 3 15 14
f 4 5 16
f 4 16 15
f 5 6 17
f 5 17 16
f 6 7 18
f 6 18 17
f 7 8 19
f 7 19 18
f 8 9 20
f 8 20 19
f 9 10 21
f 9 21 20
f 10 11 22
f 10 22 21
