v -0.660000 0.179458 0.161263
v -0.660000 0.178989 0.161633
v -0.660000 0.178521 0.162004
v -0.660000 0.178053 0.162373
v -0.660000 0.177585 0.162743
v -0.660000 0.177118 0.163112
v -0.660000 0.176651 0.163481
v -0.660000 0.176184 0.163850
v -0.660000 0.175718 0.164218
v -0.660000 0.175253 0.164586
v -0.660000 0.174787 0.164953
v -0.660000 0.174322 0.165321
v -0.660000 0.173858 0.165688
v -0.660000 0.173394 0.166054
v -0.660000 0.172930 0.166421
v -0.660000 0.172467 0.166787
v -0.660000 0.172004 0.167153
v -0.660000 0.171542 0.167518
v -0.660000 0.171079 0.167883
v -0.660000 0.170618 0.168248
v -0.660000 0.170156 0.168612
v -0.660000 0.169696 0.168976
v -0.660000 0.169235 0.169340
v -0.660000 0.168775 0.169704
v -0.660000 0.168315 0.170067
v -0.660000 0.167856 0.170430
v -0.660000 0.167397 0.170792
v -0.660000 0.166939 0.171155
v -0.660000 0.166481 0.171516
v -0.660000 0.166023 0.171878
v -0.660000 0.165566 0.172239
v -0.660000 0.165109 0.172600
v -0.660000 0.164652 0.172961
v -0.660000 0.164196 0.173321
v -0.660000 0.163741 0.173681
v -0.660000 0.163285 0.174041
v -0.660000 0.162831 0.174400
v -0.660000 0.162376 0.174759
v -0.660000 0.161922 0.175118
v -0.660000 0.161468 0.175477
v -0.660000 0.161015 0.175835
v -0.660000 0.160562 0.176193
v -0.660000 0.160110 0.176550
v -0.660000 0.159658 0.176907
v -0.660000 0.159206 0.177264
v -0.660000 0.158755 0.177621
v -0.660000 0.158304 0.177977
v -0.660000 0.157854 0.178333
v -0.660000 0.157403 0.178688
v -0.660000 0.156954 0.179044
v -0.660000 0.156505 0.179398
v -0.660000 0.156056 0.179753
v -0.660000 0.155607 0.180107
v -0.660000 0.155159 0.180461
v -0.660000 0.154712 0.180815
v -0.649393 0.149552 0.184892
v -0.646062 0.190001 0.152934
v -0.636100 0.230034 0.121304
v -0.619612 0.269241 0.090326
v -0.596765 0.307221 0.060319
v -0.567795 0.343582 0.031590
v -0.532998 0.377953 0.004434
v -0.492733 0.409979 -0.020870
v -0.447411 0.439334 -0.044062
v -0.397498 0.465715 -0.064905
v -0.343506 0.488851 -0.083185
v -0.285989 0.508506 -0.098715
v -0.225538 0.524478 -0.111334
v -0.162772 0.536602 -0.120913
v -0.098336 0.544755 -0.127354
v -0.032891 0.548852 -0.130591
v 0.032891 0.548852 -0.130591
v 0.098336 0.544755 -0.127354
v 0.162772 0.536602 -0.120913
v 0.225538 0.524478 -0.111334
v 0.285989 0.508506 -0.098715
v 0.343506 0.488851 -0.083185
v 0.397498 0.465715 -0.064905
v 0.447411 0.439334 -0.044062
v 0.492733 0.409979 -0.020870
v 0.532998 0.377953 0.004434
v 0.567795 0.343582 0.031590
v 0.596765 0.307221 0.060319
v 0.619612 0.269241 0.090326
v 0.636100 0.230034 0.121304
v 0.646062 0.190001 0.152934
v 0.649393 0.149552 0.184892
v 0.660000 0.154712 0.180815
v 0.660000 0.155159 0.180461
v 0.660000 0.155607 0.180107
v 0.660000 0.156056 0.179753
v 0.660000 0.156505 0.179398
v 0.660000 0.156954 0.179044
v 0.660000 0.157404 0.178688
v 0.660000 0.157854 0.178333
v 0.660000 0.158304 0.177977
v 0.660000 0.158755 0.177621
v 0.660000 0.159206 0.177264
v 0.660000 0.159658 0.176907
v 0.660000 0.160110 0.176550
v 0.660000 0.160562 0.176193
v 0.660000 0.161015 0.175835
v 0.660000 0.161468 0.175477
v 0.660000 0.161922 0.175118
v 0.660000 0.162376 0.174759
v 0.660000 0.162831 0.174400
v 0.660000 0.163285 0.174041
v 0.660000 0.163741 0.173681
v 0.660000 0.164196 0.173321
v 0.660000 0.164652 0.172961
v 0.660000 0.165109 0.172600
v 0.660000 0.165566 0.172239
v 0.660000 0.166023 0.171878
v 0.660000 0.166481 0.171516
v 0.660000 0.166939 0.171154
v 0.660000 0.167397 0.170792
v 0.660000 0.167856 0.170430
v 0.660000 0.168315 0.170067
v 0.660000 0.168775 0.169704
v 0.660000 0.169235 0.169340
v 0.660000 0.169696 0.168976
v 0.660000 0.170157 0.168612
v 0.660000 0.170618 0.168248
v 0.660000 0.171080 0.167883
v 0.660000 0.171542 0.167518
v 0.660000 0.172004 0.167152
v 0.660000 0.172467 0.166787
v 0.660000 0.172930 0.166421
v 0.660000 0.173394 0.166054
v 0.660000 0.173858 0.165688
v 0.660000 0.174322 0.165321
v 0.660000 0.174787 0.164953
v 0.660000 0.175253 0.164586
v 0.660000 0.175718 0.164218
v 0.660000 0.176184 0.163850
v 0.660000 0.176651 0.163481
v 0.660000 0.177118 0.163112
v 0.660000 0.177585 0.162743
v 0.660000 0.178053 0.162373
v 0.660000 0.178521 0.162004
v 0.660000 0.178989 0.161633
v 0.660000 0.179458 0.161263
v 0.660000 0.179928 0.160892
v 0.660171 0.180010 0.160827
v 0.660342 0.180093 0.160761
v 0.660512 0.180176 0.160696
v 0.660683 0.180259 0.160630
v 0.660854 0.180342 0.160565
v 0.661025 0.180425 0.160499
v 0.661196 0.180508 0.160434
v 0.661366 0.180591 0.160368
v 0.661537 0.180674 0.160302
v 0.661708 0.180757 0.160237
v 0.661879 0.180840 0.160171
v 0.662050 0.180923 0.160106
v 0.662221 0.181006 0.160040
v 0.662392 0.181089 0.159975
v 0.662563 0.181172 0.159909
v 0.662734 0.181255 0.159843
v 0.662905 0.181338 0.159778
v 0.663076 0.181421 0.159712
v 0.663247 0.181504 0.159647
v 0.663418 0.181587 0.159581
v 0.663589 0.181670 0.159515
v 0.663760 0.181753 0.159450
v 0.663931 0.181836 0.159384
v 0.664102 0.181919 0.159319
v 0.664273 0.182002 0.159253
v 0.664444 0.182085 0.159187
v 0.664615 0.182169 0.159122
v 0.664787 0.182252 0.159056
v 0.664958 0.182335 0.158990
v 0.665129 0.182418 0.158925
v 0.665300 0.182501 0.158859
v 0.665471 0.182584 0.158793
v 0.665642 0.182667 0.158728
v 0.665814 0.182750 0.158662
v 0.665985 0.182834 0.158596
v 0.666156 0.182917 0.158531
v 0.666327 0.183000 0.158465
v 0.666499 0.183083 0.158399
v 0.666670 0.183166 0.158333
v 0.666841 0.183249 0.158268
v 0.667013 0.183333 0.158202
v 0.667184 0.183416 0.158136
v 0.667355 0.183499 0.158070
v 0.667527 0.183582 0.158005
v 0.667698 0.183665 0.157939
v 0.667869 0.183749 0.157873
v 0.668041 0.183832 0.157807
v 0.668212 0.183915 0.157742
v 0.668384 0.183998 0.157676
v 0.668555 0.184082 0.157610
v 0.668727 0.184165 0.157544
v 0.668898 0.184248 0.157479
v 0.669070 0.184331 0.157413
v 0.669241 0.184415 0.157347
v 0.669413 0.184498 0.157281
v 0.646859 0.283775 0.078843
v 0.648275 0.280811 0.081185
v 0.649655 0.277840 0.083532
v 0.650999 0.274864 0.085884
v 0.652308 0.271881 0.088241
v 0.653580 0.268892 0.090602
v 0.654816 0.265897 0.092968
v 0.656016 0.262897 0.095339
v 0.657180 0.259892 0.097713
v 0.658307 0.256881 0.100092
v 0.659398 0.253865 0.102475
v 0.660452 0.250844 0.104861
v 0.661470 0.247819 0.107252
v 0.662452 0.244789 0.109646
v 0.663397 0.241754 0.112043
v 0.664305 0.238716 0.114444
v 0.665176 0.235673 0.116848
v 0.666011 0.232626 0.119255
v 0.666809 0.229576 0.121666
v 0.667570 0.226522 0.124078
v 0.668294 0.223465 0.126494
v 0.668981 0.220404 0.128912
v 0.669631 0.217340 0.131333
v 0.670245 0.214274 0.133756
v 0.670821 0.211204 0.136181
v 0.671360 0.208132 0.138608
v 0.671862 0.205058 0.141037
v 0.672326 0.201982 0.143467
v 0.672754 0.198903 0.145900
v 0.673145 0.195823 0.148333
v 0.673498 0.192741 0.150768
v 0.673814 0.189657 0.153205
v 0.642723 0.277689 0.083652
v 0.642562 0.277570 0.083746
v 0.642401 0.277450 0.083841
v 0.642239 0.277331 0.083935
v 0.642078 0.277211 0.084029
v 0.641917 0.277092 0.084123
v 0.641756 0.276973 0.084218
v 0.641595 0.276853 0.084312
v 0.641434 0.276734 0.084406
v 0.641273 0.276615 0.084501
v 0.641112 0.276495 0.084595
v 0.640951 0.276376 0.084689
v 0.640790 0.276257 0.084783
v 0.640629 0.276138 0.084878
v 0.640468 0.276018 0.084972
v 0.640307 0.275899 0.085066
v 0.640146 0.275780 0.085160
v 0.639985 0.275660 0.085255
v 0.639824 0.275541 0.085349
v 0.639663 0.275422 0.085443
v 0.639502 0.275303 0.085537
v 0.639341 0.275184 0.085631
v 0.639180 0.275064 0.085725
v 0.639019 0.274945 0.085820
v 0.638858 0.274826 0.085914
v 0.638697 0.274707 0.086008
v 0.638537 0.274588 0.086102
v 0.638376 0.274469 0.086196
v 0.638215 0.274349 0.086290
v 0.638054 0.274230 0.086384
v 0.637893 0.274111 0.086479
v 0.637733 0.273992 0.086573
v 0.637572 0.273873 0.086667
v 0.637411 0.273754 0.086761
v 0.637250 0.273635 0.086855
v 0.637090 0.273516 0.086949
v 0.636929 0.273397 0.087043
v 0.636768 0.273278 0.087137
v 0.636608 0.273159 0.087231
v 0.636447 0.273040 0.087325
v 0.636286 0.272921 0.087419
v 0.636126 0.272802 0.087513
v 0.635965 0.272683 0.087607
v 0.635804 0.272564 0.087701
v 0.635644 0.272445 0.087795
v 0.635483 0.272326 0.087889
v 0.635323 0.272207 0.087983
v 0.635162 0.272088 0.088077
v 0.635001 0.271969 0.088171
v 0.634841 0.271850 0.088265
v 0.634680 0.271731 0.088359
v 0.634520 0.271612 0.088453
v 0.634359 0.271493 0.088547
v 0.634199 0.271374 0.088641
v 0.634038 0.271255 0.088735
v 0.633878 0.271137 0.088829
v 0.633380 0.271936 0.088197
v 0.632883 0.272737 0.087564
v 0.632385 0.273540 0.086930
v 0.631888 0.274344 0.086295
v 0.631391 0.275150 0.085658
v 0.630893 0.275957 0.085020
v 0.630396 0.276766 0.084381
v 0.629898 0.277576 0.083741
v 0.629401 0.278388 0.083100
v 0.628903 0.279201 0.082457
v 0.628406 0.280016 0.081813
v 0.627908 0.280833 0.081168
v 0.627411 0.281651 0.080521
v 0.626913 0.282471 0.079874
v 0.626416 0.283292 0.079225
v 0.625918 0.284115 0.078575
v 0.625421 0.284939 0.077923
v 0.624923 0.285765 0.077271
v 0.624426 0.286593 0.076617
v 0.623928 0.287422 0.075962
v 0.623431 0.288252 0.075306
v 0.622933 0.289084 0.074648
v 0.622436 0.289918 0.073990
v 0.621938 0.290753 0.073330
v 0.621441 0.291590 0.072669
v 0.620943 0.292429 0.072006
v 0.620446 0.293269 0.071343
v 0.619948 0.294110 0.070678
v 0.619451 0.294953 0.070012
v 0.618953 0.295798 0.069344
v 0.618456 0.296644 0.068676
v 0.617958 0.297492 0.068006
v 0.617461 0.298341 0.067335
v 0.616963 0.299192 0.066663
v 0.616466 0.300044 0.065989
v 0.615969 0.300898 0.065314
v 0.615471 0.301754 0.064638
v 0.614974 0.302611 0.063961
v 0.614476 0.303470 0.063283
v 0.613979 0.304330 0.062603
v 0.613481 0.305192 0.061922
v 0.612984 0.306055 0.061240
v 0.612486 0.306920 0.060557
v 0.611989 0.307786 0.059872
v 0.611491 0.308654 0.059186
v 0.610994 0.309524 0.058499
v 0.610496 0.310395 0.057811
v 0.609999 0.311268 0.057122
v 0.609501 0.312142 0.056431
v 0.609004 0.313018 0.055739
v 0.608506 0.313895 0.055046
v 0.608009 0.314774 0.054351
v 0.607511 0.315654 0.053656
v 0.607014 0.316536 0.052959
v 0.606516 0.317420 0.052261
v 0.606677 0.317539 0.052167
v 0.606837 0.317658 0.052073
v 0.606998 0.317777 0.051979
v 0.607158 0.317895 0.051885
v 0.607319 0.318014 0.051791
v 0.607479 0.318133 0.051697
v 0.607640 0.318252 0.051603
v 0.607800 0.318371 0.051509
v 0.607961 0.318490 0.051415
v 0.608122 0.318609 0.051321
v 0.608282 0.318728 0.051227
v 0.608443 0.318847 0.051133
v 0.608603 0.318966 0.051039
v 0.608764 0.319085 0.050945
v 0.608925 0.319204 0.050851
v 0.609085 0.319323 0.050757
v 0.609246 0.319442 0.050663
v 0.609407 0.319561 0.050569
v 0.609567 0.319680 0.050475
v 0.609728 0.319799 0.050381
v 0.609889 0.319918 0.050287
v 0.610050 0.320037 0.050193
v 0.610210 0.320156 0.050099
v 0.610371 0.320276 0.050005
v 0.610532 0.320395 0.049911
v 0.610693 0.320514 0.049816
v 0.610853 0.320633 0.049722
v 0.611014 0.320752 0.049628
v 0.611175 0.320871 0.049534
v 0.611336 0.320990 0.049440
v 0.611497 0.321109 0.049346
v 0.611658 0.321229 0.049252
v 0.611819 0.321348 0.049157
v 0.611979 0.321467 0.049063
v 0.612140 0.321586 0.048969
v 0.612301 0.321705 0.048875
v 0.612462 0.321825 0.048781
v 0.612623 0.321944 0.048686
v 0.612784 0.322063 0.048592
v 0.612945 0.322182 0.048498
v 0.613106 0.322302 0.048404
v 0.613267 0.322421 0.048310
v 0.613428 0.322540 0.048215
v 0.613589 0.322659 0.048121
v 0.613750 0.322779 0.048027
v 0.613911 0.322898 0.047933
v 0.614072 0.323017 0.047838
v 0.614233 0.323137 0.047744
v 0.614394 0.323256 0.047650
v 0.614556 0.323375 0.047555
v 0.614717 0.323495 0.047461
v 0.614878 0.323614 0.047367
v 0.615039 0.323734 0.047273
v 0.615200 0.323853 0.047178
v 0.615361 0.323972 0.047084
v 0.541883 0.412824 -0.023117
v 0.544860 0.410337 -0.021152
v 0.547807 0.407836 -0.019176
v 0.550724 0.405322 -0.017190
v 0.553611 0.402795 -0.015193
v 0.556467 0.400254 -0.013186
v 0.559292 0.397700 -0.011168
v 0.562086 0.395134 -0.009140
v 0.564849 0.392555 -0.007102
v 0.567581 0.389963 -0.005055
v 0.570282 0.387359 -0.002997
v 0.572951 0.384742 -0.000930
v 0.575588 0.382113 0.001147
v 0.578193 0.379473 0.003233
v 0.580767 0.376820 0.005329
v 0.583308 0.374156 0.007434
v 0.585818 0.371480 0.009548
v 0.588295 0.368793 0.011671
v 0.590739 0.366095 0.013803
v 0.593151 0.363385 0.015944
v 0.595529 0.360665 0.018094
v 0.597875 0.357933 0.020252
v 0.600188 0.355191 0.022418
v 0.602468 0.352439 0.024593
v 0.604715 0.349676 0.026776
v 0.606928 0.346903 0.028967
v 0.609107 0.344120 0.031166
v 0.611253 0.341327 0.033372
v 0.613365 0.338524 0.035587
v 0.615443 0.335711 0.037809
v 0.617487 0.332890 0.040038
v 0.619497 0.330059 0.042275
v 0.538511 0.405923 -0.017665
v 0.538380 0.405772 -0.017545
v 0.538249 0.405621 -0.017426
v 0.538117 0.405470 -0.017306
v 0.537986 0.405319 -0.017187
v 0.537854 0.405167 -0.017068
v 0.537723 0.405016 -0.016948
v 0.537592 0.404865 -0.016829
v 0.537460 0.404714 -0.016710
v 0.537329 0.404563 -0.016590
v 0.537198 0.404412 -0.016471
v 0.537067 0.404261 -0.016352
v 0.536935 0.404110 -0.016232
v 0.536804 0.403959 -0.016113
v 0.536673 0.403808 -0.015994
v 0.536542 0.403657 -0.015874
v 0.536410 0.403506 -0.015755
v 0.536279 0.403355 -0.015636
v 0.536148 0.403204 -0.015516
v 0.536017 0.403053 -0.015397
v 0.535886 0.402902 -0.015278
v 0.535754 0.402751 -0.015159
v 0.535623 0.402600 -0.015040
v 0.535492 0.402450 -0.014920
v 0.535361 0.402299 -0.014801
v 0.535230 0.402148 -0.014682
v 0.535099 0.401997 -0.014563
v 0.534968 0.401846 -0.014444
v 0.534836 0.401695 -0.014324
v 0.534705 0.401545 -0.014205
v 0.534574 0.401394 -0.014086
v 0.534443 0.401243 -0.013967
v 0.534312 0.401092 -0.013848
v 0.534181 0.400941 -0.013729
v 0.534050 0.400791 -0.013610
v 0.533919 0.400640 -0.013491
v 0.533788 0.400489 -0.013371
v 0.533657 0.400338 -0.013252
v 0.533526 0.400188 -0.013133
v 0.533395 0.400037 -0.013014
v 0.533264 0.399886 -0.012895
v 0.533133 0.399736 -0.012776
v 0.533002 0.399585 -0.012657
v 0.532871 0.399434 -0.012538
v 0.532740 0.399284 -0.012419
v 0.532609 0.399133 -0.012300
v 0.532479 0.398983 -0.012181
v 0.532348 0.398832 -0.012062
v 0.532217 0.398681 -0.011943
v 0.532086 0.398531 -0.011824
v 0.531955 0.398380 -0.011705
v 0.531824 0.398230 -0.011586
v 0.531693 0.398079 -0.011467
v 0.531562 0.397929 -0.011348
v 0.531432 0.397778 -0.011230
v 0.531301 0.397628 -0.011111
v 0.530366 0.398272 -0.011619
v 0.529431 0.398917 -0.012129
v 0.528496 0.399564 -0.012641
v 0.527561 0.400213 -0.013153
v 0.526626 0.400863 -0.013667
v 0.525691 0.401515 -0.014182
v 0.524756 0.402168 -0.014698
v 0.523821 0.402823 -0.015215
v 0.522886 0.403480 -0.015734
v 0.521951 0.404138 -0.016254
v 0.521016 0.404797 -0.016775
v 0.520081 0.405458 -0.017297
v 0.519146 0.406121 -0.017821
v 0.518211 0.406785 -0.018346
v 0.517276 0.407451 -0.018872
v 0.516341 0.408118 -0.019399
v 0.515406 0.408787 -0.019927
v 0.514471 0.409457 -0.020457
v 0.513536 0.410129 -0.020988
v 0.512602 0.410803 -0.021520
v 0.511667 0.411478 -0.022053
v 0.510732 0.412155 -0.022588
v 0.509797 0.412833 -0.023124
v 0.508862 0.413513 -0.023661
v 0.507927 0.414194 -0.024199
v 0.506992 0.414877 -0.024739
v 0.506057 0.415561 -0.025280
v 0.505122 0.416247 -0.025822
v 0.504187 0.416935 -0.026365
v 0.503252 0.417624 -0.026909
v 0.502317 0.418315 -0.027455
v 0.501382 0.419007 -0.028002
v 0.500447 0.419701 -0.028550
v 0.499512 0.420396 -0.029100
v 0.498577 0.421093 -0.029650
v 0.497642 0.421791 -0.030202
v 0.496707 0.422491 -0.030755
v 0.495772 0.423193 -0.031310
v 0.494837 0.423896 -0.031865
v 0.493902 0.424601 -0.032422
v 0.492967 0.425307 -0.032980
v 0.492032 0.426015 -0.033539
v 0.491097 0.426724 -0.034100
v 0.490162 0.427435 -0.034661
v 0.489227 0.428148 -0.035224
v 0.488292 0.428862 -0.035788
v 0.487358 0.429578 -0.036354
v 0.486423 0.430295 -0.036920
v 0.485488 0.431013 -0.037488
v 0.484553 0.431734 -0.038057
v 0.483618 0.432456 -0.038628
v 0.482683 0.433179 -0.039199
v 0.481748 0.433904 -0.039772
v 0.480813 0.434630 -0.040346
v 0.479878 0.435358 -0.040921
v 0.480009 0.435509 -0.041040
v 0.480139 0.435659 -0.041159
v 0.480270 0.435810 -0.041278
v 0.480401 0.435960 -0.041397
v 0.480532 0.436111 -0.041516
v 0.480663 0.436261 -0.041635
v 0.480794 0.436412 -0.041754
v 0.480925 0.436563 -0.041873
v 0.481056 0.436713 -0.041992
v 0.481186 0.436864 -0.042111
v 0.481317 0.437014 -0.042230
v 0.481448 0.437165 -0.042349
v 0.481579 0.437316 -0.042468
v 0.481710 0.437466 -0.042587
v 0.481841 0.437617 -0.042706
v 0.481972 0.437768 -0.042825
v 0.482103 0.437918 -0.042944
v 0.482234 0.438069 -0.043063
v 0.482365 0.438220 -0.043182
v 0.482496 0.438370 -0.043301
v 0.482627 0.438521 -0.043420
v 0.482758 0.438672 -0.043539
v 0.482889 0.438823 -0.043658
v 0.483020 0.438974 -0.043777
v 0.483151 0.439124 -0.043897
v 0.483282 0.439275 -0.044016
v 0.483413 0.439426 -0.044135
v 0.483545 0.439577 -0.044254
v 0.483676 0.439728 -0.044373
v 0.483807 0.439878 -0.044492
v 0.483938 0.440029 -0.044612
v 0.484069 0.440180 -0.044731
v 0.484200 0.440331 -0.044850
v 0.484331 0.440482 -0.044969
v 0.484463 0.440633 -0.045089
v 0.484594 0.440784 -0.045208
v 0.484725 0.440935 -0.045327
v 0.484856 0.441086 -0.045446
v 0.484987 0.441237 -0.045566
v 0.485119 0.441388 -0.045685
v 0.485250 0.441539 -0.045804
v 0.485381 0.441690 -0.045923
v 0.485512 0.441841 -0.046043
v 0.485644 0.441992 -0.046162
v 0.485775 0.442143 -0.046281
v 0.485906 0.442294 -0.046401
v 0.486037 0.442445 -0.046520
v 0.486169 0.442596 -0.046639
v 0.486300 0.442747 -0.046759
v 0.486431 0.442898 -0.046878
v 0.486563 0.443049 -0.046998
v 0.486694 0.443200 -0.047117
v 0.486826 0.443351 -0.047236
v 0.486957 0.443503 -0.047356
v 0.487088 0.443654 -0.047475
v 0.371548 0.511986 -0.101464
v 0.375727 0.510276 -0.100113
v 0.379886 0.508546 -0.098746
v 0.384024 0.506798 -0.097365
v 0.388140 0.505031 -0.095969
v 0.392235 0.503245 -0.094557
v 0.396309 0.501440 -0.093132
v 0.400360 0.499617 -0.091691
v 0.404389 0.497775 -0.090236
v 0.408396 0.495914 -0.088766
v 0.412381 0.494036 -0.087282
v 0.416342 0.492139 -0.085783
v 0.420281 0.490224 -0.084270
v 0.424196 0.488292 -0.082743
v 0.428088 0.486341 -0.081202
v 0.431956 0.484373 -0.079647
v 0.435801 0.482387 -0.078078
v 0.439621 0.480383 -0.076495
v 0.443417 0.478362 -0.074898
v 0.447189 0.476324 -0.073288
v 0.450935 0.474268 -0.071664
v 0.454657 0.472196 -0.070026
v 0.458354 0.470106 -0.068375
v 0.462025 0.468000 -0.066711
v 0.465671 0.465876 -0.065033
v 0.469291 0.463736 -0.063342
v 0.472885 0.461580 -0.061639
v 0.476453 0.459407 -0.059922
v 0.479995 0.457218 -0.058193
v 0.483510 0.455013 -0.056450
v 0.486998 0.452792 -0.054695
v 0.490460 0.450555 -0.052928
v 0.369347 0.504480 -0.095533
v 0.369262 0.504305 -0.095395
v 0.369176 0.504130 -0.095257
v 0.369090 0.503956 -0.095119
v 0.369004 0.503781 -0.094981
v 0.368919 0.503606 -0.094843
v 0.368833 0.503432 -0.094705
v 0.368747 0.503257 -0.094567
v 0.368661 0.503082 -0.094429
v 0.368576 0.502908 -0.094291
v 0.368490 0.502733 -0.094153
v 0.368404 0.502559 -0.094015
v 0.368319 0.502384 -0.093877
v 0.368233 0.502209 -0.093740
v 0.368147 0.502035 -0.093602
v 0.368062 0.501860 -0.093464
v 0.367976 0.501686 -0.093326
v 0.367890 0.501511 -0.093188
v 0.367805 0.501337 -0.093050
v 0.367719 0.501162 -0.092912
v 0.367633 0.500988 -0.092774
v 0.367548 0.500813 -0.092637
v 0.367462 0.500639 -0.092499
v 0.367377 0.500465 -0.092361
v 0.367291 0.500290 -0.092223
v 0.367205 0.500116 -0.092085
v 0.367120 0.499941 -0.091948
v 0.367034 0.499767 -0.091810
v 0.366949 0.499593 -0.091672
v 0.366863 0.499418 -0.091534
v 0.366778 0.499244 -0.091397
v 0.366692 0.499070 -0.091259
v 0.366607 0.498895 -0.091121
v 0.366521 0.498721 -0.090984
v 0.366435 0.498547 -0.090846
v 0.366350 0.498373 -0.090708
v 0.366264 0.498198 -0.090571
v 0.366179 0.498024 -0.090433
v 0.366093 0.497850 -0.090295
v 0.366008 0.497676 -0.090158
v 0.365922 0.497502 -0.090020
v 0.365837 0.497328 -0.089882
v 0.365751 0.497153 -0.089745
v 0.365666 0.496979 -0.089607
v 0.365581 0.496805 -0.089470
v 0.365495 0.496631 -0.089332
v 0.365410 0.496457 -0.089195
v 0.365324 0.496283 -0.089057
v 0.365239 0.496109 -0.088920
v 0.365153 0.495935 -0.088782
v 0.365068 0.495761 -0.088645
v 0.364983 0.495587 -0.088507
v 0.364897 0.495413 -0.088370
v 0.364812 0.495239 -0.088232
v 0.364726 0.495065 -0.088095
v 0.364641 0.494891 -0.087957
v 0.363381 0.495297 -0.088278
v 0.362122 0.495704 -0.088600
v 0.360862 0.496113 -0.088923
v 0.359602 0.496523 -0.089247
v 0.358343 0.496935 -0.089572
v 0.357083 0.497349 -0.089899
v 0.355823 0.497764 -0.090227
v 0.354564 0.498180 -0.090556
v 0.353304 0.498598 -0.090886
v 0.352044 0.499018 -0.091218
v 0.350785 0.499439 -0.091551
v 0.349525 0.499862 -0.091885
v 0.348265 0.500287 -0.092220
v 0.347006 0.500712 -0.092557
v 0.345746 0.501140 -0.092895
v 0.344486 0.501569 -0.093234
v 0.343227 0.502000 -0.093574
v 0.341967 0.502432 -0.093915
v 0.340707 0.502866 -0.094258
v 0.339447 0.503301 -0.094602
v 0.338188 0.503738 -0.094947
v 0.336928 0.504176 -0.095293
v 0.335668 0.504616 -0.095641
v 0.334409 0.505058 -0.095990
v 0.333149 0.505501 -0.096340
v 0.331889 0.505945 -0.096691
v 0.330630 0.506391 -0.097044
v 0.329370 0.506839 -0.097398
v 0.328110 0.507289 -0.097753
v 0.326851 0.507739 -0.098109
v 0.325591 0.508192 -0.098466
v 0.324331 0.508646 -0.098825
v 0.323072 0.509101 -0.099185
v 0.321812 0.509559 -0.099546
v 0.320552 0.510017 -0.099908
v 0.319293 0.510477 -0.100272
v 0.318033 0.510939 -0.100637
v 0.316773 0.511403 -0.101003
v 0.315514 0.511868 -0.101370
v 0.314254 0.512334 -0.101739
v 0.312994 0.512802 -0.102109
v 0.311735 0.513272 -0.102480
v 0.310475 0.513743 -0.102852
v 0.309215 0.514215 -0.103225
v 0.307956 0.514690 -0.103600
v 0.306696 0.515165 -0.103976
v 0.305436 0.515643 -0.104353
v 0.304177 0.516122 -0.104732
v 0.302917 0.516602 -0.105111
v 0.301657 0.517084 -0.105492
v 0.300398 0.517568 -0.105874
v 0.299138 0.518053 -0.106257
v 0.297878 0.518540 -0.106642
v 0.296619 0.519028 -0.107028
v 0.295359 0.519518 -0.107415
v 0.295444 0.519692 -0.107552
v 0.295530 0.519866 -0.107690
v 0.295615 0.520040 -0.107827
v 0.295701 0.520214 -0.107964
v 0.295786 0.520388 -0.108102
v 0.295871 0.520562 -0.108239
v 0.295957 0.520736 -0.108377
v 0.296042 0.520910 -0.108515
v 0.296128 0.521084 -0.108652
v 0.296213 0.521258 -0.108790
v 0.296299 0.521432 -0.108927
v 0.296384 0.521606 -0.109065
v 0.296469 0.521780 -0.109202
v 0.296555 0.521954 -0.109340
v 0.296640 0.522129 -0.109477
v 0.296726 0.522303 -0.109615
v 0.296811 0.522477 -0.109753
v 0.296897 0.522651 -0.109890
v 0.296982 0.522825 -0.110028
v 0.297068 0.523000 -0.110166
v 0.297153 0.523174 -0.110303
v 0.297239 0.523348 -0.110441
v 0.297325 0.523522 -0.110579
v 0.297410 0.523697 -0.110716
v 0.297496 0.523871 -0.110854
v 0.297581 0.524045 -0.110992
v 0.297667 0.524220 -0.111130
v 0.297752 0.524394 -0.111267
v 0.297838 0.524568 -0.111405
v 0.297923 0.524743 -0.111543
v 0.298009 0.524917 -0.111681
v 0.298095 0.525091 -0.111818
v 0.298180 0.525266 -0.111956
v 0.298266 0.525440 -0.112094
v 0.298351 0.525615 -0.112232
v 0.298437 0.525789 -0.112370
v 0.298523 0.525964 -0.112508
v 0.298608 0.526138 -0.112645
v 0.298694 0.526313 -0.112783
v 0.298780 0.526487 -0.112921
v 0.298865 0.526662 -0.113059
v 0.298951 0.526836 -0.113197
v 0.299037 0.527011 -0.113335
v 0.299122 0.527185 -0.113473
v 0.299208 0.527360 -0.113611
v 0.299294 0.527535 -0.113749
v 0.299379 0.527709 -0.113887
v 0.299465 0.527884 -0.114025
v 0.299551 0.528059 -0.114163
v 0.299637 0.528233 -0.114301
v 0.299722 0.528408 -0.114439
v 0.299808 0.528583 -0.114577
v 0.299894 0.528757 -0.114715
v 0.299980 0.528932 -0.114853
v 0.300065 0.529107 -0.114991
v 0.156399 0.569300 -0.146747
v 0.161276 0.568572 -0.146172
v 0.166145 0.567823 -0.145580
v 0.171004 0.567051 -0.144971
v 0.175854 0.566258 -0.144343
v 0.180695 0.565442 -0.143699
v 0.185525 0.564603 -0.143036
v 0.190345 0.563743 -0.142357
v 0.195154 0.562861 -0.141660
v 0.199953 0.561957 -0.140945
v 0.204741 0.561030 -0.140213
v 0.209517 0.560082 -0.139464
v 0.214282 0.559112 -0.138698
v 0.219035 0.558121 -0.137914
v 0.223776 0.557107 -0.137114
v 0.228504 0.556072 -0.136296
v 0.233220 0.555015 -0.135461
v 0.237923 0.553937 -0.134609
v 0.242613 0.552837 -0.133740
v 0.247289 0.551716 -0.132854
v 0.251952 0.550573 -0.131951
v 0.256600 0.549409 -0.131032
v 0.261235 0.548224 -0.130095
v 0.265855 0.547018 -0.129142
v 0.270461 0.545790 -0.128172
v 0.275051 0.544542 -0.127186
v 0.279626 0.543272 -0.126183
v 0.284186 0.541982 -0.125164
v 0.288730 0.540671 -0.124128
v 0.293258 0.539339 -0.123075
v 0.297770 0.537986 -0.122006
v 0.302266 0.536613 -0.120921
v 0.155635 0.561472 -0.140562
v 0.155605 0.561284 -0.140414
v 0.155575 0.561097 -0.140266
v 0.155545 0.560910 -0.140118
v 0.155515 0.560723 -0.139970
v 0.155486 0.560535 -0.139822
v 0.155456 0.560348 -0.139674
v 0.155426 0.560161 -0.139527
v 0.155396 0.559974 -0.139379
v 0.155367 0.559787 -0.139231
v 0.155337 0.559600 -0.139083
v 0.155307 0.559412 -0.138935
v 0.155277 0.559225 -0.138787
v 0.155248 0.559038 -0.138639
v 0.155218 0.558851 -0.138492
v 0.155188 0.558664 -0.138344
v 0.155158 0.558477 -0.138196
v 0.155129 0.558290 -0.138048
v 0.155099 0.558103 -0.137901
v 0.155069 0.557916 -0.137753
v 0.155039 0.557729 -0.137605
v 0.155010 0.557542 -0.137457
v 0.154980 0.557355 -0.137310
v 0.154950 0.557168 -0.137162
v 0.154920 0.556981 -0.137014
v 0.154891 0.556794 -0.136867
v 0.154861 0.556607 -0.136719
v 0.154831 0.556421 -0.136571
v 0.154802 0.556234 -0.136424
v 0.154772 0.556047 -0.136276
v 0.154742 0.555860 -0.136128
v 0.154712 0.555673 -0.135981
v 0.154683 0.555486 -0.135833
v 0.154653 0.555300 -0.135686
v 0.154623 0.555113 -0.135538
v 0.154594 0.554926 -0.135390
v 0.154564 0.554739 -0.135243
v 0.154534 0.554553 -0.135095
v 0.154505 0.554366 -0.134948
v 0.154475 0.554179 -0.134800
v 0.154445 0.553993 -0.134653
v 0.154415 0.553806 -0.134505
v 0.154386 0.553619 -0.134358
v 0.154356 0.553433 -0.134210
v 0.154326 0.553246 -0.134063
v 0.154297 0.553059 -0.133916
v 0.154267 0.552873 -0.133768
v 0.154237 0.552686 -0.133621
v 0.154208 0.552500 -0.133473
v 0.154178 0.552313 -0.133326
v 0.154148 0.552127 -0.133179
v 0.154119 0.551940 -0.133031
v 0.154089 0.551754 -0.132884
v 0.154059 0.551567 -0.132737
v 0.154030 0.551381 -0.132589
v 0.154000 0.551194 -0.132442
v 0.152568 0.551308 -0.132532
v 0.151135 0.551423 -0.132623
v 0.149703 0.551539 -0.132715
v 0.148270 0.551657 -0.132808
v 0.146838 0.551777 -0.132903
v 0.145405 0.551898 -0.132998
v 0.143973 0.552021 -0.133095
v 0.142540 0.552146 -0.133194
v 0.141108 0.552271 -0.133293
v 0.139676 0.552399 -0.133394
v 0.138243 0.552528 -0.133496
v 0.136811 0.552659 -0.133599
v 0.135378 0.552791 -0.133703
v 0.133946 0.552924 -0.133809
v 0.132513 0.553060 -0.133916
v 0.131081 0.553196 -0.134024
v 0.129648 0.553335 -0.134133
v 0.128216 0.553475 -0.134244
v 0.126784 0.553616 -0.134356
v 0.125351 0.553759 -0.134469
v 0.123919 0.553904 -0.134583
v 0.122486 0.554050 -0.134698
v 0.121054 0.554198 -0.134815
v 0.119621 0.554347 -0.134933
v 0.118189 0.554498 -0.135052
v 0.116756 0.554650 -0.135172
v 0.115324 0.554804 -0.135294
v 0.113892 0.554960 -0.135417
v 0.112459 0.555117 -0.135541
v 0.111027 0.555275 -0.135666
v 0.109594 0.555435 -0.135793
v 0.108162 0.555597 -0.135921
v 0.106729 0.555760 -0.136050
v 0.105297 0.555925 -0.136180
v 0.103864 0.556092 -0.136311
v 0.102432 0.556260 -0.136444
v 0.101000 0.556429 -0.136578
v 0.099567 0.556600 -0.136713
v 0.098135 0.556773 -0.136850
v 0.096702 0.556947 -0.136987
v 0.095270 0.557123 -0.137126
v 0.093837 0.557300 -0.137266
v 0.092405 0.557479 -0.137408
v 0.090972 0.557660 -0.137550
v 0.089540 0.557842 -0.137694
v 0.088108 0.558025 -0.137839
v 0.086675 0.558210 -0.137985
v 0.085243 0.558397 -0.138133
v 0.083810 0.558585 -0.138281
v 0.082378 0.558775 -0.138431
v 0.080945 0.558966 -0.138583
v 0.079513 0.559159 -0.138735
v 0.078080 0.559354 -0.138889
v 0.076648 0.559550 -0.139043
v 0.075215 0.559747 -0.139199
v 0.075245 0.559933 -0.139347
v 0.075275 0.560120 -0.139494
v 0.075304 0.560306 -0.139641
v 0.075334 0.560493 -0.139789
v 0.075364 0.560679 -0.139936
v 0.075393 0.560866 -0.140084
v 0.075423 0.561052 -0.140231
v 0.075453 0.561239 -0.140378
v 0.075482 0.561426 -0.140526
v 0.075512 0.561612 -0.140673
v 0.075542 0.561799 -0.140821
v 0.075571 0.561985 -0.140968
v 0.075601 0.562172 -0.141115
v 0.075631 0.562359 -0.141263
v 0.075661 0.562545 -0.141410
v 0.075690 0.562732 -0.141558
v 0.075720 0.562919 -0.141705
v 0.075750 0.563105 -0.141853
v 0.075779 0.563292 -0.142000
v 0.075809 0.563479 -0.142148
v 0.075839 0.563666 -0.142296
v 0.075868 0.563852 -0.142443
v 0.075898 0.564039 -0.142591
v 0.075928 0.564226 -0.142738
v 0.075958 0.564413 -0.142886
v 0.075987 0.564600 -0.143033
v 0.076017 0.564786 -0.143181
v 0.076047 0.564973 -0.143329
v 0.076076 0.565160 -0.143476
v 0.076106 0.565347 -0.143624
v 0.076136 0.565534 -0.143772
v 0.076166 0.565721 -0.143919
v 0.076195 0.565908 -0.144067
v 0.076225 0.566095 -0.144215
v 0.076255 0.566282 -0.144363
v 0.076284 0.566469 -0.144510
v 0.076314 0.566656 -0.144658
v 0.076344 0.566843 -0.144806
v 0.076374 0.567030 -0.144954
v 0.076403 0.567217 -0.145101
v 0.076433 0.567404 -0.145249
v 0.076463 0.567591 -0.145397
v 0.076493 0.567778 -0.145545
v 0.076522 0.567965 -0.145693
v 0.076552 0.568152 -0.145840
v 0.076582 0.568339 -0.145988
v 0.076612 0.568527 -0.146136
v 0.076642 0.568714 -0.146284
v 0.076671 0.568901 -0.146432
v 0.076701 0.569088 -0.146580
v 0.076731 0.569275 -0.146728
v 0.076761 0.569463 -0.146876
v 0.076790 0.569650 -0.147024
v 0.076820 0.569837 -0.147172
v 0.076850 0.570024 -0.147320
v -0.077614 0.577852 -0.153504
v -0.072627 0.578196 -0.153776
v -0.067636 0.578517 -0.154030
v -0.062641 0.578815 -0.154265
v -0.057642 0.579091 -0.154483
v -0.052640 0.579343 -0.154682
v -0.047636 0.579573 -0.154863
v -0.042629 0.579779 -0.155027
v -0.037619 0.579963 -0.155172
v -0.032607 0.580124 -0.155299
v -0.027594 0.580261 -0.155408
v -0.022579 0.580376 -0.155498
v -0.017563 0.580468 -0.155571
v -0.012545 0.580537 -0.155625
v -0.007528 0.580583 -0.155662
v -0.002509 0.580606 -0.155680
v 0.002509 0.580606 -0.155680
v 0.007528 0.580583 -0.155662
v 0.012545 0.580537 -0.155625
v 0.017563 0.580468 -0.155571
v 0.022579 0.580376 -0.155498
v 0.027594 0.580261 -0.155408
v 0.032607 0.580124 -0.155299
v 0.037619 0.579963 -0.155172
v 0.042629 0.579779 -0.155027
v 0.047636 0.579573 -0.154863
v 0.052640 0.579343 -0.154682
v 0.057642 0.579091 -0.154483
v 0.062641 0.578815 -0.154265
v 0.067636 0.578517 -0.154030
v 0.072627 0.578196 -0.153776
v 0.077614 0.577852 -0.153504
v -0.076850 0.570024 -0.147320
v -0.076820 0.569837 -0.147172
v -0.076790 0.569650 -0.147024
v -0.076761 0.569463 -0.146876
v -0.076731 0.569275 -0.146728
v -0.076701 0.569088 -0.146580
v -0.076671 0.568901 -0.146432
v -0.076642 0.568714 -0.146284
v -0.076612 0.568527 -0.146136
v -0.076582 0.568339 -0.145988
v -0.076552 0.568152 -0.145840
v -0.076522 0.567965 -0.145693
v -0.076493 0.567778 -0.145545
v -0.076463 0.567591 -0.145397
v -0.076433 0.567404 -0.145249
v -0.076403 0.567217 -0.145101
v -0.076374 0.567030 -0.144954
v -0.076344 0.566843 -0.144806
v -0.076314 0.566656 -0.144658
v -0.076284 0.566469 -0.144510
v -0.076255 0.566282 -0.144363
v -0.076225 0.566095 -0.144215
v -0.076195 0.565908 -0.144067
v -0.076166 0.565721 -0.143919
v -0.076136 0.565534 -0.143772
v -0.076106 0.565347 -0.143624
v -0.076076 0.565160 -0.143476
v -0.076047 0.564973 -0.143329
v -0.076017 0.564786 -0.143181
v -0.075987 0.564600 -0.143033
v -0.075958 0.564413 -0.142886
v -0.075928 0.564226 -0.142738
v -0.075898 0.564039 -0.142591
v -0.075868 0.563852 -0.142443
v -0.075839 0.563666 -0.142296
v -0.075809 0.563479 -0.142148
v -0.075779 0.563292 -0.142000
v -0.075750 0.563105 -0.141853
v -0.075720 0.562919 -0.141705
v -0.075690 0.562732 -0.141558
v -0.075661 0.562545 -0.141410
v -0.075631 0.562359 -0.141263
v -0.075601 0.562172 -0.141115
v -0.075571 0.561985 -0.140968
v -0.075542 0.561799 -0.140821
v -0.075512 0.561612 -0.140673
v -0.075482 0.561426 -0.140526
v -0.075453 0.561239 -0.140378
v -0.075423 0.561052 -0.140231
v -0.075393 0.560866 -0.140084
v -0.075364 0.560679 -0.139936
v -0.075334 0.560493 -0.139789
v -0.075304 0.560306 -0.139641
v -0.075275 0.560120 -0.139494
v -0.075245 0.559933 -0.139347
v -0.075215 0.559747 -0.139199
v -0.076648 0.559550 -0.139043
v -0.078080 0.559354 -0.138889
v -0.079513 0.559159 -0.138735
v -0.080945 0.558966 -0.138583
v -0.082378 0.558775 -0.138431
v -0.083810 0.558585 -0.138281
v -0.085243 0.558397 -0.138133
v -0.086675 0.558210 -0.137985
v -0.088108 0.558025 -0.137839
v -0.089540 0.557842 -0.137694
v -0.090972 0.557660 -0.137550
v -0.092405 0.557479 -0.137408
v -0.093837 0.557300 -0.137266
v -0.095270 0.557123 -0.137126
v -0.096702 0.556947 -0.136987
v -0.098135 0.556773 -0.136850
v -0.099567 0.556600 -0.136713
v -0.101000 0.556429 -0.136578
v -0.102432 0.556260 -0.136444
v -0.103865 0.556092 -0.136311
v -0.105297 0.555925 -0.136180
v -0.106729 0.555760 -0.136050
v -0.108162 0.555597 -0.135921
v -0.109594 0.555435 -0.135793
v -0.111027 0.555275 -0.135666
v -0.112459 0.555117 -0.135541
v -0.113892 0.554959 -0.135417
v -0.115324 0.554804 -0.135294
v -0.116757 0.554650 -0.135172
v -0.118189 0.554498 -0.135052
v -0.119621 0.554347 -0.134933
v -0.121054 0.554198 -0.134815
v -0.122486 0.554050 -0.134698
v -0.123919 0.553904 -0.134583
v -0.125351 0.553759 -0.134468
v -0.126784 0.553616 -0.134355
v -0.128216 0.553475 -0.134244
v -0.129649 0.553335 -0.134133
v -0.131081 0.553196 -0.134024
v -0.132513 0.553060 -0.133916
v -0.133946 0.552924 -0.133809
v -0.135378 0.552791 -0.133703
v -0.136811 0.552658 -0.133599
v -0.138243 0.552528 -0.133496
v -0.139676 0.552399 -0.133394
v -0.141108 0.552271 -0.133293
v -0.142541 0.552146 -0.133194
v -0.143973 0.552021 -0.133095
v -0.145405 0.551898 -0.132998
v -0.146838 0.551777 -0.132903
v -0.148270 0.551657 -0.132808
v -0.149703 0.551539 -0.132715
v -0.151135 0.551423 -0.132623
v -0.152568 0.551308 -0.132532
v -0.154000 0.551194 -0.132442
v -0.154030 0.551381 -0.132589
v -0.154059 0.551567 -0.132737
v -0.154089 0.551754 -0.132884
v -0.154119 0.551940 -0.133031
v -0.154148 0.552127 -0.133179
v -0.154178 0.552313 -0.133326
v -0.154208 0.552500 -0.133473
v -0.154237 0.552686 -0.133621
v -0.154267 0.552873 -0.133768
v -0.154297 0.553059 -0.133916
v -0.154326 0.553246 -0.134063
v -0.154356 0.553433 -0.134211
v -0.154386 0.553619 -0.134358
v -0.154415 0.553806 -0.134505
v -0.154445 0.553993 -0.134653
v -0.154475 0.554179 -0.134800
v -0.154505 0.554366 -0.134948
v -0.154534 0.554553 -0.135095
v -0.154564 0.554739 -0.135243
v -0.154594 0.554926 -0.135390
v -0.154623 0.555113 -0.135538
v -0.154653 0.555300 -0.135686
v -0.154683 0.555486 -0.135833
v -0.154712 0.555673 -0.135981
v -0.154742 0.555860 -0.136128
v -0.154772 0.556047 -0.136276
v -0.154802 0.556234 -0.136424
v -0.154831 0.556421 -0.136571
v -0.154861 0.556607 -0.136719
v -0.154891 0.556794 -0.136867
v -0.154920 0.556981 -0.137014
v -0.154950 0.557168 -0.137162
v -0.154980 0.557355 -0.137310
v -0.155010 0.557542 -0.137457
v -0.155039 0.557729 -0.137605
v -0.155069 0.557916 -0.137753
v -0.155099 0.558103 -0.137901
v -0.155129 0.558290 -0.138048
v -0.155158 0.558477 -0.138196
v -0.155188 0.558664 -0.138344
v -0.155218 0.558851 -0.138492
v -0.155248 0.559038 -0.138639
v -0.155277 0.559225 -0.138787
v -0.155307 0.559412 -0.138935
v -0.155337 0.559600 -0.139083
v -0.155367 0.559787 -0.139231
v -0.155396 0.559974 -0.139379
v -0.155426 0.560161 -0.139527
v -0.155456 0.560348 -0.139674
v -0.155486 0.560535 -0.139822
v -0.155515 0.560723 -0.139970
v -0.155545 0.560910 -0.140118
v -0.155575 0.561097 -0.140266
v -0.155605 0.561284 -0.140414
v -0.155635 0.561472 -0.140562
v -0.302266 0.536613 -0.120921
v -0.297770 0.537986 -0.122006
v -0.293258 0.539339 -0.123075
v -0.288730 0.540671 -0.124128
v -0.284186 0.541982 -0.125164
v -0.279626 0.543272 -0.126183
v -0.275051 0.544542 -0.127186
v -0.270461 0.545790 -0.128172
v -0.265855 0.547018 -0.129142
v -0.261235 0.548224 -0.130095
v -0.256600 0.549409 -0.131032
v -0.251952 0.550573 -0.131951
v -0.247289 0.551716 -0.132854
v -0.242613 0.552837 -0.133740
v -0.237923 0.553937 -0.134609
v -0.233220 0.555015 -0.135461
v -0.228504 0.556072 -0.136296
v -0.223776 0.557107 -0.137114
v -0.219035 0.558121 -0.137914
v -0.214282 0.559112 -0.138698
v -0.209517 0.560082 -0.139464
v -0.204741 0.561030 -0.140213
v -0.199953 0.561957 -0.140945
v -0.195154 0.562861 -0.141660
v -0.190345 0.563743 -0.142357
v -0.185525 0.564603 -0.143036
v -0.180695 0.565442 -0.143699
v -0.175854 0.566258 -0.144343
v -0.171004 0.567051 -0.144971
v -0.166145 0.567823 -0.145580
v -0.161276 0.568572 -0.146172
v -0.156399 0.569300 -0.146747
v -0.300065 0.529107 -0.114991
v -0.299980 0.528932 -0.114853
v -0.299894 0.528757 -0.114715
v -0.299808 0.528583 -0.114577
v -0.299722 0.528408 -0.114439
v -0.299637 0.528233 -0.114301
v -0.299551 0.528058 -0.114163
v -0.299465 0.527884 -0.114025
v -0.299379 0.527709 -0.113887
v -0.299294 0.527535 -0.113749
v -0.299208 0.527360 -0.113611
v -0.299122 0.527185 -0.113473
v -0.299037 0.527011 -0.113335
v -0.298951 0.526836 -0.113197
v -0.298865 0.526662 -0.113059
v -0.298780 0.526487 -0.112921
v -0.298694 0.526313 -0.112783
v -0.298608 0.526138 -0.112645
v -0.298523 0.525964 -0.112508
v -0.298437 0.525789 -0.112370
v -0.298351 0.525615 -0.112232
v -0.298266 0.525440 -0.112094
v -0.298180 0.525266 -0.111956
v -0.298095 0.525091 -0.111818
v -0.298009 0.524917 -0.111681
v -0.297923 0.524743 -0.111543
v -0.297838 0.524568 -0.111405
v -0.297752 0.524394 -0.111267
v -0.297667 0.524220 -0.111130
v -0.297581 0.524045 -0.110992
v -0.297496 0.523871 -0.110854
v -0.297410 0.523697 -0.110716
v -0.297324 0.523522 -0.110579
v -0.297239 0.523348 -0.110441
v -0.297153 0.523174 -0.110303
v -0.297068 0.523000 -0.110166
v -0.296982 0.522825 -0.110028
v -0.296897 0.522651 -0.109890
v -0.296811 0.522477 -0.109753
v -0.296726 0.522303 -0.109615
v -0.296640 0.522129 -0.109477
v -0.296555 0.521954 -0.109340
v -0.296469 0.521780 -0.109202
v -0.296384 0.521606 -0.109065
v -0.296299 0.521432 -0.108927
v -0.296213 0.521258 -0.108790
v -0.296128 0.521084 -0.108652
v -0.296042 0.520910 -0.108515
v -0.295957 0.520736 -0.108377
v -0.295871 0.520562 -0.108239
v -0.295786 0.520388 -0.108102
v -0.295701 0.520214 -0.107964
v -0.295615 0.520040 -0.107827
v -0.295530 0.519866 -0.107690
v -0.295444 0.519692 -0.107552
v -0.295359 0.519518 -0.107415
v -0.296619 0.519028 -0.107028
v -0.297878 0.518540 -0.106642
v -0.299138 0.518053 -0.106257
v -0.300398 0.517568 -0.105874
v -0.301657 0.517084 -0.105492
v -0.302917 0.516602 -0.105111
v -0.304177 0.516122 -0.104732
v -0.305436 0.515643 -0.104353
v -0.306696 0.515165 -0.103976
v -0.307956 0.514690 -0.103600
v -0.309215 0.514215 -0.103225
v -0.310475 0.513743 -0.102852
v -0.311735 0.513272 -0.102480
v -0.312994 0.512802 -0.102109
v -0.314254 0.512334 -0.101739
v -0.315514 0.511868 -0.101370
v -0.316773 0.511403 -0.101003
v -0.318033 0.510939 -0.100637
v -0.319293 0.510477 -0.100272
v -0.320553 0.510017 -0.099908
v -0.321812 0.509559 -0.099546
v -0.323072 0.509101 -0.099185
v -0.324332 0.508646 -0.098825
v -0.325591 0.508192 -0.098466
v -0.326851 0.507739 -0.098109
v -0.328111 0.507289 -0.097753
v -0.329370 0.506839 -0.097398
v -0.330630 0.506391 -0.097044
v -0.331890 0.505945 -0.096691
v -0.333149 0.505501 -0.096340
v -0.334409 0.505058 -0.095990
v -0.335669 0.504616 -0.095641
v -0.336928 0.504176 -0.095293
v -0.338188 0.503738 -0.094947
v -0.339448 0.503301 -0.094602
v -0.340707 0.502866 -0.094258
v -0.341967 0.502432 -0.093915
v -0.343227 0.502000 -0.093574
v -0.344486 0.501569 -0.093234
v -0.345746 0.501140 -0.092895
v -0.347006 0.500712 -0.092557
v -0.348265 0.500287 -0.092220
v -0.349525 0.499862 -0.091885
v -0.350785 0.499439 -0.091551
v -0.352044 0.499018 -0.091218
v -0.353304 0.498598 -0.090886
v -0.354564 0.498180 -0.090556
v -0.355823 0.497764 -0.090227
v -0.357083 0.497348 -0.089899
v -0.358343 0.496935 -0.089572
v -0.359602 0.496523 -0.089247
v -0.360862 0.496113 -0.088923
v -0.362122 0.495704 -0.088600
v -0.363381 0.495297 -0.088278
v -0.364641 0.494891 -0.087957
v -0.364726 0.495065 -0.088095
v -0.364812 0.495239 -0.088232
v -0.364897 0.495413 -0.088370
v -0.364983 0.495587 -0.088507
v -0.365068 0.495761 -0.088645
v -0.365153 0.495935 -0.088782
v -0.365239 0.496109 -0.088920
v -0.365324 0.496283 -0.089057
v -0.365410 0.496457 -0.089195
v -0.365495 0.496631 -0.089332
v -0.365581 0.496805 -0.089470
v -0.365666 0.496979 -0.089607
v -0.365752 0.497153 -0.089745
v -0.365837 0.497328 -0.089882
v -0.365922 0.497502 -0.090020
v -0.366008 0.497676 -0.090158
v -0.366093 0.497850 -0.090295
v -0.366179 0.498024 -0.090433
v -0.366264 0.498198 -0.090571
v -0.366350 0.498373 -0.090708
v -0.366435 0.498547 -0.090846
v -0.366521 0.498721 -0.090984
v -0.366607 0.498895 -0.091121
v -0.366692 0.499070 -0.091259
v -0.366778 0.499244 -0.091397
v -0.366863 0.499418 -0.091534
v -0.366949 0.499593 -0.091672
v -0.367034 0.499767 -0.091810
v -0.367120 0.499941 -0.091948
v -0.367205 0.500116 -0.092085
v -0.367291 0.500290 -0.092223
v -0.367377 0.500465 -0.092361
v -0.367462 0.500639 -0.092499
v -0.367548 0.500813 -0.092637
v -0.367633 0.500988 -0.092774
v -0.367719 0.501162 -0.092912
v -0.367805 0.501337 -0.093050
v -0.367890 0.501511 -0.093188
v -0.367976 0.501686 -0.093326
v -0.368062 0.501860 -0.093464
v -0.368147 0.502035 -0.093602
v -0.368233 0.502209 -0.093740
v -0.368319 0.502384 -0.093877
v -0.368404 0.502559 -0.094015
v -0.368490 0.502733 -0.094153
v -0.368576 0.502908 -0.094291
v -0.368661 0.503082 -0.094429
v -0.368747 0.503257 -0.094567
v -0.368833 0.503432 -0.094705
v -0.368919 0.503606 -0.094843
v -0.369004 0.503781 -0.094981
v -0.369090 0.503956 -0.095119
v -0.369176 0.504130 -0.095257
v -0.369262 0.504305 -0.095395
v -0.369347 0.504480 -0.095533
v -0.490460 0.450555 -0.052928
v -0.486998 0.452792 -0.054695
v -0.483510 0.455013 -0.056450
v -0.479995 0.457218 -0.058193
v -0.476453 0.459407 -0.059922
v -0.472885 0.461580 -0.061639
v -0.469291 0.463736 -0.063342
v -0.465671 0.465876 -0.065033
v -0.462025 0.468000 -0.066711
v -0.458354 0.470106 -0.068375
v -0.454657 0.472196 -0.070026
v -0.450935 0.474268 -0.071664
v -0.447189 0.476324 -0.073288
v -0.443417 0.478362 -0.074898
v -0.439621 0.480383 -0.076495
v -0.435801 0.482387 -0.078078
v -0.431956 0.484373 -0.079647
v -0.428088 0.486341 -0.081202
v -0.424196 0.488292 -0.082743
v -0.420281 0.490224 -0.084270
v -0.416342 0.492139 -0.085783
v -0.412381 0.494036 -0.087282
v -0.408396 0.495914 -0.088766
v -0.404389 0.497775 -0.090236
v -0.400360 0.499617 -0.091691
v -0.396309 0.501440 -0.093132
v -0.392235 0.503245 -0.094557
v -0.388140 0.505031 -0.095969
v -0.384024 0.506798 -0.097365
v -0.379886 0.508546 -0.098746
v -0.375727 0.510276 -0.100113
v -0.371548 0.511986 -0.101464
v -0.487088 0.443654 -0.047475
v -0.486957 0.443503 -0.047356
v -0.486826 0.443351 -0.047236
v -0.486694 0.443200 -0.047117
v -0.486563 0.443049 -0.046998
v -0.486431 0.442898 -0.046878
v -0.486300 0.442747 -0.046759
v -0.486169 0.442596 -0.046639
v -0.486037 0.442445 -0.046520
v -0.485906 0.442294 -0.046401
v -0.485775 0.442143 -0.046281
v -0.485644 0.441992 -0.046162
v -0.485512 0.441841 -0.046043
v -0.485381 0.441690 -0.045923
v -0.485250 0.441539 -0.045804
v -0.485119 0.441388 -0.045685
v -0.484987 0.441237 -0.045566
v -0.484856 0.441086 -0.045446
v -0.484725 0.440935 -0.045327
v -0.484594 0.440784 -0.045208
v -0.484463 0.440633 -0.045089
v -0.484331 0.440482 -0.044969
v -0.484200 0.440331 -0.044850
v -0.484069 0.440180 -0.044731
v -0.483938 0.440029 -0.044612
v -0.483807 0.439878 -0.044492
v -0.483676 0.439728 -0.044373
v -0.483545 0.439577 -0.044254
v -0.483413 0.439426 -0.044135
v -0.483282 0.439275 -0.044016
v -0.483151 0.439124 -0.043897
v -0.483020 0.438973 -0.043777
v -0.482889 0.438823 -0.043658
v -0.482758 0.438672 -0.043539
v -0.482627 0.438521 -0.043420
v -0.482496 0.438370 -0.043301
v -0.482365 0.438220 -0.043182
v -0.482234 0.438069 -0.043063
v -0.482103 0.437918 -0.042944
v -0.481972 0.437768 -0.042825
v -0.481841 0.437617 -0.042706
v -0.481710 0.437466 -0.042587
v -0.481579 0.437316 -0.042468
v -0.481448 0.437165 -0.042349
v -0.481317 0.437014 -0.042230
v -0.481186 0.436864 -0.042111
v -0.481055 0.436713 -0.041992
v -0.480925 0.436563 -0.041873
v -0.480794 0.436412 -0.041754
v -0.480663 0.436261 -0.041635
v -0.480532 0.436111 -0.041516
v -0.480401 0.435960 -0.041397
v -0.480270 0.435810 -0.041278
v -0.480139 0.435659 -0.041159
v -0.480009 0.435509 -0.041040
v -0.479878 0.435358 -0.040921
v -0.480813 0.434630 -0.040346
v -0.481748 0.433904 -0.039772
v -0.482683 0.433179 -0.039199
v -0.483618 0.432455 -0.038628
v -0.484553 0.431734 -0.038057
v -0.485488 0.431013 -0.037488
v -0.486423 0.430295 -0.036920
v -0.487358 0.429578 -0.036354
v -0.488293 0.428862 -0.035788
v -0.489228 0.428148 -0.035224
v -0.490162 0.427435 -0.034661
v -0.491097 0.426724 -0.034100
v -0.492032 0.426015 -0.033539
v -0.492967 0.425307 -0.032980
v -0.493902 0.424601 -0.032422
v -0.494837 0.423896 -0.031865
v -0.495772 0.423193 -0.031309
v -0.496707 0.422491 -0.030755
v -0.497642 0.421791 -0.030202
v -0.498577 0.421093 -0.029650
v -0.499512 0.420396 -0.029100
v -0.500447 0.419701 -0.028550
v -0.501382 0.419007 -0.028002
v -0.502317 0.418315 -0.027455
v -0.503252 0.417624 -0.026909
v -0.504187 0.416935 -0.026365
v -0.505122 0.416247 -0.025822
v -0.506057 0.415561 -0.025280
v -0.506992 0.414877 -0.024739
v -0.507927 0.414194 -0.024199
v -0.508862 0.413512 -0.023661
v -0.509797 0.412833 -0.023124
v -0.510732 0.412155 -0.022588
v -0.511667 0.411478 -0.022053
v -0.512602 0.410803 -0.021520
v -0.513537 0.410129 -0.020988
v -0.514472 0.409457 -0.020457
v -0.515406 0.408787 -0.019927
v -0.516341 0.408118 -0.019399
v -0.517276 0.407451 -0.018872
v -0.518211 0.406785 -0.018346
v -0.519146 0.406121 -0.017821
v -0.520081 0.405458 -0.017297
v -0.521016 0.404797 -0.016775
v -0.521951 0.404138 -0.016254
v -0.522886 0.403480 -0.015734
v -0.523821 0.402823 -0.015215
v -0.524756 0.402168 -0.014698
v -0.525691 0.401515 -0.014182
v -0.526626 0.400863 -0.013667
v -0.527561 0.400213 -0.013153
v -0.528496 0.399564 -0.012641
v -0.529431 0.398917 -0.012129
v -0.530366 0.398272 -0.011619
v -0.531301 0.397628 -0.011111
v -0.531432 0.397778 -0.011230
v -0.531562 0.397929 -0.011348
v -0.531693 0.398079 -0.011467
v -0.531824 0.398230 -0.011586
v -0.531955 0.398380 -0.011705
v -0.532086 0.398531 -0.011824
v -0.532217 0.398681 -0.011943
v -0.532348 0.398832 -0.012062
v -0.532479 0.398983 -0.012181
v -0.532609 0.399133 -0.012300
v -0.532740 0.399284 -0.012419
v -0.532871 0.399434 -0.012538
v -0.533002 0.399585 -0.012657
v -0.533133 0.399736 -0.012776
v -0.533264 0.399886 -0.012895
v -0.533395 0.400037 -0.013014
v -0.533526 0.400188 -0.013133
v -0.533657 0.400339 -0.013252
v -0.533788 0.400489 -0.013371
v -0.533919 0.400640 -0.013491
v -0.534050 0.400791 -0.013610
v -0.534181 0.400941 -0.013729
v -0.534312 0.401092 -0.013848
v -0.534443 0.401243 -0.013967
v -0.534574 0.401394 -0.014086
v -0.534705 0.401545 -0.014205
v -0.534836 0.401695 -0.014324
v -0.534968 0.401846 -0.014444
v -0.535099 0.401997 -0.014563
v -0.535230 0.402148 -0.014682
v -0.535361 0.402299 -0.014801
v -0.535492 0.402450 -0.014920
v -0.535623 0.402601 -0.015040
v -0.535754 0.402751 -0.015159
v -0.535886 0.402902 -0.015278
v -0.536017 0.403053 -0.015397
v -0.536148 0.403204 -0.015516
v -0.536279 0.403355 -0.015636
v -0.536410 0.403506 -0.015755
v -0.536542 0.403657 -0.015874
v -0.536673 0.403808 -0.015994
v -0.536804 0.403959 -0.016113
v -0.536935 0.404110 -0.016232
v -0.537067 0.404261 -0.016352
v -0.537198 0.404412 -0.016471
v -0.537329 0.404563 -0.016590
v -0.537460 0.404714 -0.016710
v -0.537592 0.404865 -0.016829
v -0.537723 0.405016 -0.016948
v -0.537854 0.405167 -0.017068
v -0.537986 0.405319 -0.017187
v -0.538117 0.405470 -0.017306
v -0.538249 0.405621 -0.017426
v -0.538380 0.405772 -0.017545
v -0.538511 0.405923 -0.017665
v -0.619497 0.330059 0.042275
v -0.617487 0.332890 0.040038
v -0.615443 0.335711 0.037809
v -0.613365 0.338524 0.035587
v -0.611253 0.341327 0.033372
v -0.609107 0.344120 0.031166
v -0.606928 0.346903 0.028967
v -0.604715 0.349676 0.026776
v -0.602468 0.352439 0.024593
v -0.600188 0.355191 0.022418
v -0.597875 0.357933 0.020252
v -0.595529 0.360665 0.018094
v -0.593151 0.363385 0.015944
v -0.590739 0.366095 0.013803
v -0.588295 0.368793 0.011671
v -0.585818 0.371480 0.009548
v -0.583308 0.374156 0.007434
v -0.580767 0.376820 0.005329
v -0.578193 0.379473 0.003233
v -0.575588 0.382113 0.001147
v -0.572951 0.384742 -0.000930
v -0.570282 0.387359 -0.002997
v -0.567581 0.389963 -0.005055
v -0.564849 0.392555 -0.007102
v -0.562086 0.395134 -0.009140
v -0.559292 0.397700 -0.011168
v -0.556467 0.400254 -0.013186
v -0.553611 0.402795 -0.015193
v -0.550724 0.405322 -0.017190
v -0.547807 0.407836 -0.019176
v -0.544860 0.410337 -0.021152
v -0.541883 0.412824 -0.023117
v -0.615361 0.323972 0.047084
v -0.615200 0.323853 0.047178
v -0.615039 0.323734 0.047273
v -0.614878 0.323614 0.047367
v -0.614717 0.323495 0.047461
v -0.614556 0.323375 0.047555
v -0.614394 0.323256 0.047650
v -0.614233 0.323137 0.047744
v -0.614072 0.323017 0.047838
v -0.613911 0.322898 0.047933
v -0.613750 0.322779 0.048027
v -0.613589 0.322659 0.048121
v -0.613428 0.322540 0.048215
v -0.613267 0.322421 0.048310
v -0.613106 0.322302 0.048404
v -0.612945 0.322182 0.048498
v -0.612784 0.322063 0.048592
v -0.612623 0.321944 0.048687
v -0.612462 0.321825 0.048781
v -0.612301 0.321705 0.048875
v -0.612140 0.321586 0.048969
v -0.611979 0.321467 0.049063
v -0.611818 0.321348 0.049157
v -0.611658 0.321229 0.049252
v -0.611497 0.321109 0.049346
v -0.611336 0.320990 0.049440
v -0.611175 0.320871 0.049534
v -0.611014 0.320752 0.049628
v -0.610853 0.320633 0.049722
v -0.610693 0.320514 0.049816
v -0.610532 0.320395 0.049911
v -0.610371 0.320275 0.050005
v -0.610210 0.320156 0.050099
v -0.610050 0.320037 0.050193
v -0.609889 0.319918 0.050287
v -0.609728 0.319799 0.050381
v -0.609567 0.319680 0.050475
v -0.609407 0.319561 0.050569
v -0.609246 0.319442 0.050663
v -0.609085 0.319323 0.050757
v -0.608925 0.319204 0.050851
v -0.608764 0.319085 0.050945
v -0.608603 0.318966 0.051039
v -0.608443 0.318847 0.051133
v -0.608282 0.318728 0.051227
v -0.608122 0.318609 0.051321
v -0.607961 0.318490 0.051415
v -0.607800 0.318371 0.051509
v -0.607640 0.318252 0.051603
v -0.607479 0.318133 0.051697
v -0.607319 0.318014 0.051791
v -0.607158 0.317895 0.051885
v -0.606998 0.317777 0.051979
v -0.606837 0.317658 0.052073
v -0.606677 0.317539 0.052167
v -0.606516 0.317420 0.052261
v -0.607014 0.316536 0.052959
v -0.607511 0.315654 0.053656
v -0.608009 0.314774 0.054351
v -0.608506 0.313895 0.055046
v -0.609004 0.313018 0.055739
v -0.609501 0.312142 0.056431
v -0.609999 0.311268 0.057122
v -0.610496 0.310395 0.057811
v -0.610994 0.309524 0.058499
v -0.611491 0.308654 0.059186
v -0.611989 0.307786 0.059872
v -0.612486 0.306920 0.060557
v -0.612984 0.306055 0.061240
v -0.613481 0.305192 0.061922
v -0.613979 0.304330 0.062603
v -0.614476 0.303470 0.063283
v -0.614974 0.302611 0.063961
v -0.615471 0.301754 0.064638
v -0.615969 0.300898 0.065314
v -0.616466 0.300044 0.065989
v -0.616964 0.299192 0.066663
v -0.617461 0.298341 0.067335
v -0.617958 0.297492 0.068006
v -0.618456 0.296644 0.068676
v -0.618953 0.295798 0.069344
v -0.619451 0.294953 0.070012
v -0.619948 0.294110 0.070678
v -0.620446 0.293269 0.071343
v -0.620943 0.292429 0.072006
v -0.621441 0.291590 0.072669
v -0.621938 0.290753 0.073330
v -0.622436 0.289918 0.073990
v -0.622933 0.289084 0.074648
v -0.623431 0.288252 0.075306
v -0.623928 0.287422 0.075962
v -0.624426 0.286593 0.076617
v -0.624923 0.285765 0.077271
v -0.625421 0.284939 0.077924
v -0.625918 0.284115 0.078575
v -0.626416 0.283292 0.079225
v -0.626913 0.282471 0.079874
v -0.627411 0.281651 0.080521
v -0.627908 0.280833 0.081168
v -0.628406 0.280016 0.081813
v -0.628903 0.279201 0.082457
v -0.629401 0.278388 0.083100
v -0.629898 0.277576 0.083741
v -0.630396 0.276766 0.084381
v -0.630893 0.275957 0.085020
v -0.631391 0.275150 0.085658
v -0.631888 0.274344 0.086295
v -0.632385 0.273540 0.086930
v -0.632883 0.272737 0.087564
v -0.633380 0.271936 0.088197
v -0.633878 0.271137 0.088829
v -0.634038 0.271255 0.088735
v -0.634199 0.271374 0.088641
v -0.634359 0.271493 0.088547
v -0.634520 0.271612 0.088453
v -0.634680 0.271731 0.088359
v -0.634841 0.271850 0.088265
v -0.635001 0.271969 0.088171
v -0.635162 0.272088 0.088077
v -0.635323 0.272207 0.087983
v -0.635483 0.272326 0.087889
v -0.635644 0.272445 0.087795
v -0.635804 0.272564 0.087701
v -0.635965 0.272683 0.087607
v -0.636126 0.272802 0.087513
v -0.636286 0.272921 0.087419
v -0.636447 0.273040 0.087325
v -0.636608 0.273159 0.087231
v -0.636768 0.273278 0.087137
v -0.636929 0.273397 0.087043
v -0.637090 0.273516 0.086949
v -0.637250 0.273635 0.086855
v -0.637411 0.273754 0.086761
v -0.637572 0.273873 0.086667
v -0.637733 0.273992 0.086573
v -0.637893 0.274111 0.086479
v -0.638054 0.274230 0.086384
v -0.638215 0.274349 0.086290
v -0.638376 0.274469 0.086196
v -0.638537 0.274588 0.086102
v -0.638698 0.274707 0.086008
v -0.638858 0.274826 0.085914
v -0.639019 0.274945 0.085820
v -0.639180 0.275064 0.085725
v -0.639341 0.275184 0.085631
v -0.639502 0.275303 0.085537
v -0.639663 0.275422 0.085443
v -0.639824 0.275541 0.085349
v -0.639985 0.275661 0.085255
v -0.640146 0.275780 0.085160
v -0.640307 0.275899 0.085066
v -0.640468 0.276018 0.084972
v -0.640629 0.276138 0.084878
v -0.640790 0.276257 0.084783
v -0.640951 0.276376 0.084689
v -0.641112 0.276495 0.084595
v -0.641273 0.276615 0.084501
v -0.641434 0.276734 0.084406
v -0.641595 0.276853 0.084312
v -0.641756 0.276973 0.084218
v -0.641917 0.277092 0.084123
v -0.642078 0.277211 0.084029
v -0.642239 0.277331 0.083935
v -0.642401 0.277450 0.083841
v -0.642562 0.277570 0.083746
v -0.642723 0.277689 0.083652
v -0.673814 0.189657 0.153205
v -0.673498 0.192741 0.150768
v -0.673145 0.195823 0.148333
v -0.672754 0.198903 0.145900
v -0.672326 0.201982 0.143467
v -0.671862 0.205058 0.141037
v -0.671360 0.208132 0.138608
v -0.670821 0.211204 0.136181
v -0.670245 0.214274 0.133756
v -0.669631 0.217340 0.131333
v -0.668981 0.220404 0.128912
v -0.668294 0.223465 0.126494
v -0.667570 0.226522 0.124078
v -0.666809 0.229576 0.121666
v -0.666011 0.232626 0.119255
v -0.665176 0.235673 0.116848
v -0.664305 0.238716 0.114444
v -0.663397 0.241754 0.112043
v -0.662452 0.244789 0.109646
v -0.661470 0.247819 0.107252
v -0.660452 0.250844 0.104861
v -0.659398 0.253865 0.102475
v -0.658307 0.256881 0.100092
v -0.657180 0.259892 0.097713
v -0.656016 0.262897 0.095339
v -0.654816 0.265897 0.092968
v -0.653580 0.268892 0.090602
v -0.652308 0.271881 0.088241
v -0.650999 0.274864 0.085884
v -0.649655 0.277840 0.083532
v -0.648275 0.280811 0.081185
v -0.646859 0.283775 0.078843
v -0.669413 0.184498 0.157281
v -0.669241 0.184415 0.157347
v -0.669070 0.184331 0.157413
v -0.668898 0.184248 0.157479
v -0.668727 0.184165 0.157544
v -0.668555 0.184082 0.157610
v -0.668384 0.183998 0.157676
v -0.668212 0.183915 0.157742
v -0.668041 0.183832 0.157807
v -0.667869 0.183749 0.157873
v -0.667698 0.183665 0.157939
v -0.667527 0.183582 0.158005
v -0.667355 0.183499 0.158070
v -0.667184 0.183416 0.158136
v -0.667013 0.183333 0.158202
v -0.666841 0.183249 0.158268
v -0.666670 0.183166 0.158333
v -0.666499 0.183083 0.158399
v -0.666327 0.183000 0.158465
v -0.666156 0.182917 0.158531
v -0.665985 0.182834 0.158596
v -0.665814 0.182750 0.158662
v -0.665642 0.182667 0.158728
v -0.665471 0.182584 0.158793
v -0.665300 0.182501 0.158859
v -0.665129 0.182418 0.158925
v -0.664958 0.182335 0.158990
v -0.664787 0.182252 0.159056
v -0.664615 0.182169 0.159122
v -0.664444 0.182085 0.159187
v -0.664273 0.182002 0.159253
v -0.664102 0.181919 0.159319
v -0.663931 0.181836 0.159384
v -0.663760 0.181753 0.159450
v -0.663589 0.181670 0.159515
v -0.663418 0.181587 0.159581
v -0.663247 0.181504 0.159647
v -0.663076 0.181421 0.159712
v -0.662905 0.181338 0.159778
v -0.662734 0.181255 0.159843
v -0.662563 0.181172 0.159909
v -0.662392 0.181089 0.159975
v -0.662221 0.181006 0.160040
v -0.662050 0.180923 0.160106
v -0.661879 0.180840 0.160171
v -0.661708 0.180757 0.160237
v -0.661537 0.180674 0.160302
v -0.661366 0.180591 0.160368
v -0.661196 0.180508 0.160434
v -0.661025 0.180425 0.160499
v -0.660854 0.180342 0.160565
v -0.660683 0.180259 0.160630
v -0.660512 0.180176 0.160696
v -0.660342 0.180093 0.160761
v -0.660171 0.180010 0.160827
v -0.660000 0.179928 0.160892
f 55 56 57
f 86 87 88
f 91 90 85
f 93 92 85
f 95 94 85
f 98 97 85
f 100 99 85
f 103 102 85
f 105 104 85
f 107 106 85
f 110 109 85
f 112 111 85
f 115 114 85
f 117 116 85
f 119 118 85
f 122 121 85
f 124 123 85
f 126 125 85
f 129 128 85
f 131 130 85
f 134 133 85
f 136 135 85
f 139 138 85
f 141 140 85
f 143 142 85
f 145 144 199
f 147 146 199
f 149 148 199
f 151 150 199
f 153 152 199
f 155 154 199
f 157 156 199
f 159 158 199
f 161 160 199
f 163 162 199
f 165 164 199
f 167 166 199
f 169 168 199
f 171 170 199
f 173 172 199
f 175 174 199
f 177 176 199
f 179 178 199
f 181 180 199
f 183 182 199
f 185 184 199
f 187 186 199
f 189 188 199
f 191 190 199
f 193 192 199
f 195 194 199
f 197 196 199
f 197 198 199
f 230 231 232
f 395 396 397
f 428 429 430
f 593 594 595
f 626 627 628
f 791 792 793
f 824 825 826
f 989 990 991
f 1022 1023 1024
f 1187 1188 1189
f 1220 1221 1222
f 1385 1386 1387
f 1418 1419 1420
f 1583 1584 1585
f 1616 1617 1618
f 1781 1782 1783
f 1814 1815 1816
f 53 54 57
f 54 55 57
f 85 86 88
f 92 91 85
f 96 95 85
f 101 100 85
f 104 103 85
f 108 107 85
f 113 112 85
f 116 115 85
f 120 119 85
f 123 122 85
f 127 126 85
f 132 131 85
f 135 134 85
f 140 139 85
f 146 145 199
f 150 149 199
f 154 153 199
f 158 157 199
f 162 161 199
f 166 165 199
f 170 169 199
f 174 173 199
f 178 177 199
f 182 181 199
f 186 185 199
f 190 189 199
f 194 193 199
f 196 195 199
f 230 232 233
f 393 394 397
f 394 395 397
f 428 430 431
f 591 592 595
f 592 593 595
f 626 628 629
f 789 790 793
f 790 791 793
f 824 826 827
f 987 988 991
f 988 989 991
f 1024 1025 1022
f 1025 1026 1022
f 1186 1187 1189
f 1222 1223 1220
f 1223 1224 1220
f 1384 1385 1387
f 1420 1421 1418
f 1421 1422 1418
f 1582 1583 1585
f 1618 1619 1616
f 1619 1620 1616
f 1780 1781 1783
f 1816 1817 1814
f 1817 1818 1814
f 52 53 57
f 85 88 89
f 97 96 85
f 102 101 85
f 109 108 85
f 114 113 85
f 121 120 85
f 128 127 85
f 133 132 85
f 142 141 85
f 148 147 199
f 156 155 199
f 164 163 199
f 172 171 199
f 180 179 199
f 188 187 199
f 192 191 199
f 230 233 234
f 389 390 397
f 390 391 397
f 391 392 397
f 392 393 397
f 428 431 432
f 587 588 595
f 588 589 595
f 589 590 595
f 590 591 595
f 626 629 630
f 785 786 793
f 786 787 793
f 787 788 793
f 788 789 793
f 824 827 828
f 983 984 991
f 984 985 991
f 985 986 991
f 986 987 991
f 1026 1027 1022
f 1027 1028 1022
f 1028 1029 1022
f 1029 1030 1022
f 1185 1186 1189
f 1224 1225 1220
f 1225 1226 1220
f 1226 1227 1220
f 1227 1228 1220
f 1383 1384 1387
f 1422 1423 1418
f 1423 1424 1418
f 1424 1425 1418
f 1425 1426 1418
f 1581 1582 1585
f 1620 1621 1616
f 1621 1622 1616
f 1622 1623 1616
f 1623 1624 1616
f 1779 1780 1783
f 1818 1819 1814
f 1819 1820 1814
f 1820 1821 1814
f 1821 1822 1814
f 52 57 58
f 90 89 85
f 99 98 85
f 111 110 85
f 130 129 85
f 152 151 199
f 168 167 199
f 184 183 199
f 230 234 235
f 428 432 433
f 626 630 631
f 824 828 829
f 1030 1031 1022
f 1031 1032 1022
f 1032 1033 1022
f 1033 1034 1022
f 1034 1035 1022
f 1035 1036 1022
f 1036 1037 1022
f 1037 1038 1022
f 1184 1185 1189
f 1228 1229 1220
f 1229 1230 1220
f 1230 1231 1220
f 1231 1232 1220
f 1232 1233 1220
f 1233 1234 1220
f 1234 1235 1220
f 1235 1236 1220
f 1382 1383 1387
f 1426 1427 1418
f 1427 1428 1418
f 1428 1429 1418
f 1429 1430 1418
f 1430 1431 1418
f 1431 1432 1418
f 1432 1433 1418
f 1433 1434 1418
f 1580 1581 1585
f 1624 1625 1616
f 1625 1626 1616
f 1626 1627 1616
f 1627 1628 1616
f 1628 1629 1616
f 1629 1630 1616
f 1630 1631 1616
f 1631 1632 1616
f 1778 1779 1783
f 1822 1823 1814
f 1823 1824 1814
f 1824 1825 1814
f 1825 1826 1814
f 1826 1827 1814
f 1827 1828 1814
f 1828 1829 1814
f 1829 1830 1814
f 46 47 58
f 47 48 58
f 48 49 58
f 49 50 58
f 50 51 58
f 51 52 58
f 94 93 85
f 118 117 85
f 137 136 85
f 160 159 199
f 176 175 199
f 230 235 236
f 373 374 397
f 374 375 397
f 375 376 397
f 376 377 397
f 377 378 397
f 378 379 397
f 379 380 397
f 380 381 397
f 381 382 397
f 382 383 397
f 383 384 397
f 384 385 397
f 385 386 397
f 386 387 397
f 387 388 397
f 388 389 397
f 428 433 434
f 571 572 595
f 572 573 595
f 573 574 595
f 574 575 595
f 575 576 595
f 576 577 595
f 577 578 595
f 578 579 595
f 579 580 595
f 580 581 595
f 581 582 595
f 582 583 595
f 583 584 595
f 584 585 595
f 585 586 595
f 586 587 595
f 626 631 632
f 769 770 793
f 770 771 793
f 771 772 793
f 772 773 793
f 773 774 793
f 774 775 793
f 775 776 793
f 776 777 793
f 777 778 793
f 778 779 793
f 779 780 793
f 780 781 793
f 781 782 793
f 782 783 793
f 783 784 793
f 784 785 793
f 824 829 830
f 967 968 991
f 968 969 991
f 969 970 991
f 970 971 991
f 971 972 991
f 972 973 991
f 973 974 991
f 974 975 991
f 975 976 991
f 976 977 991
f 977 978 991
f 978 979 991
f 979 980 991
f 980 981 991
f 981 982 991
f 982 983 991
f 1038 1039 1022
f 1039 1040 1022
f 1040 1041 1022
f 1041 1042 1022
f 1042 1043 1022
f 1043 1044 1022
f 1044 1045 1022
f 1045 1046 1022
f 1046 1047 1022
f 1047 1048 1022
f 1048 1049 1022
f 1049 1050 1022
f 1050 1051 1022
f 1051 1052 1022
f 1052 1053 1022
f 1053 1054 1022
f 1183 1184 1189
f 1236 1237 1220
f 1237 1238 1220
f 1238 1239 1220
f 1239 1240 1220
f 1240 1241 1220
f 1241 1242 1220
f 1242 1243 1220
f 1243 1244 1220
f 1244 1245 1220
f 1245 1246 1220
f 1246 1247 1220
f 1247 1248 1220
f 1248 1249 1220
f 1249 1250 1220
f 1250 1251 1220
f 1251 1252 1220
f 1381 1382 1387
f 1434 1435 1418
f 1435 1436 1418
f 1436 1437 1418
f 1437 1438 1418
f 1438 1439 1418
f 1439 1440 1418
f 1440 1441 1418
f 1441 1442 1418
f 1442 1443 1418
f 1443 1444 1418
f 1444 1445 1418
f 1445 1446 1418
f 1446 1447 1418
f 1447 1448 1418
f 1448 1449 1418
f 1449 1450 1418
f 1579 1580 1585
f 1632 1633 1616
f 1633 1634 1616
f 1634 1635 1616
f 1635 1636 1616
f 1636 1637 1616
f 1637 1638 1616
f 1638 1639 1616
f 1639 1640 1616
f 1640 1641 1616
f 1641 1642 1616
f 1642 1643 1616
f 1643 1644 1616
f 1644 1645 1616
f 1645 1646 1616
f 1646 1647 1616
f 1647 1648 1616
f 1777 1778 1783
f 1830 1831 1814
f 1831 1832 1814
f 1832 1833 1814
f 1833 1834 1814
f 1834 1835 1814
f 1835 1836 1814
f 1836 1837 1814
f 1837 1838 1814
f 1838 1839 1814
f 1839 1840 1814
f 1840 1841 1814
f 1841 1842 1814
f 1842 1843 1814
f 1843 1844 1814
f 1844 1845 1814
f 1845 1846 1814
f 39 40 58
f 40 41 58
f 41 42 58
f 42 43 58
f 43 44 58
f 44 45 58
f 45 46 58
f 106 105 85
f 138 137 85
f 144 143 199
f 230 236 237
f 341 342 397
f 342 343 397
f 343 344 397
f 344 345 397
f 345 346 397
f 346 347 397
f 347 348 397
f 348 349 397
f 349 350 397
f 350 351 397
f 351 352 397
f 352 353 397
f 353 354 397
f 354 355 397
f 355 356 397
f 356 357 397
f 357 358 397
f 358 359 397
f 359 360 397
f 360 361 397
f 361 362 397
f 362 363 397
f 363 364 397
f 364 365 397
f 365 366 397
f 366 367 397
f 367 368 397
f 368 369 397
f 369 370 397
f 370 371 397
f 371 372 397
f 372 373 397
f 428 434 435
f 539 540 595
f 540 541 595
f 541 542 595
f 542 543 595
f 543 544 595
f 544 545 595
f 545 546 595
f 546 547 595
f 547 548 595
f 548 549 595
f 549 550 595
f 550 551 595
f 551 552 595
f 552 553 595
f 553 554 595
f 554 555 595
f 555 556 595
f 556 557 595
f 557 558 595
f 558 559 595
f 559 560 595
f 560 561 595
f 561 562 595
f 562 563 595
f 563 564 595
f 564 565 595
f 565 566 595
f 566 567 595
f 567 568 595
f 568 569 595
f 569 570 595
f 570 571 595
f 626 632 633
f 737 738 793
f 738 739 793
f 739 740 793
f 740 741 793
f 741 742 793
f 742 743 793
f 743 744 793
f 744 745 793
f 745 746 793
f 746 747 793
f 747 748 793
f 748 749 793
f 749 750 793
f 750 751 793
f 751 752 793
f 752 753 793
f 753 754 793
f 754 755 793
f 755 756 793
f 756 757 793
f 757 758 793
f 758 759 793
f 759 760 793
f 760 761 793
f 761 762 793
f 762 763 793
f 763 764 793
f 764 765 793
f 765 766 793
f 766 767 793
f 767 768 793
f 768 769 793
f 824 830 831
f 935 936 991
f 936 937 991
f 937 938 991
f 938 939 991
f 939 940 991
f 940 941 991
f 941 942 991
f 942 943 991
f 943 944 991
f 944 945 991
f 945 946 991
f 946 947 991
f 947 948 991
f 948 949 991
f 949 950 991
f 950 951 991
f 951 952 991
f 952 953 991
f 953 954 991
f 954 955 991
f 955 956 991
f 956 957 991
f 957 958 991
f 958 959 991
f 959 960 991
f 960 961 991
f 961 962 991
f 962 963 991
f 963 964 991
f 964 965 991
f 965 966 991
f 966 967 991
f 1054 1055 1022
f 1055 1056 1022
f 1056 1057 1022
f 1057 1058 1022
f 1058 1059 1022
f 1059 1060 1022
f 1060 1061 1022
f 1061 1062 1022
f 1062 1063 1022
f 1063 1064 1022
f 1064 1065 1022
f 1065 1066 1022
f 1066 1067 1022
f 1067 1068 1022
f 1068 1069 1022
f 1069 1070 1022
f 1070 1071 1022
f 1071 1072 1022
f 1072 1073 1022
f 1073 1074 1022
f 1074 1075 1022
f 1075 1076 1022
f 1076 1077 1022
f 1077 1078 1022
f 1182 1183 1189
f 1252 1253 1220
f 1253 1254 1220
f 1254 1255 1220
f 1255 1256 1220
f 1256 1257 1220
f 1257 1258 1220
f 1258 1259 1220
f 1259 1260 1220
f 1260 1261 1220
f 1261 1262 1220
f 1262 1263 1220
f 1263 1264 1220
f 1264 1265 1220
f 1265 1266 1220
f 1266 1267 1220
f 1267 1268 1220
f 1268 1269 1220
f 1269 1270 1220
f 1270 1271 1220
f 1271 1272 1220
f 1272 1273 1220
f 1273 1274 1220
f 1274 1275 1220
f 1275 1276 1220
f 1380 1381 1387
f 1450 1451 1418
f 1451 1452 1418
f 1452 1453 1418
f 1453 1454 1418
f 1454 1455 1418
f 1455 1456 1418
f 1456 1457 1418
f 1457 1458 1418
f 1458 1459 1418
f 1459 1460 1418
f 1460 1461 1418
f 1461 1462 1418
f 1462 1463 1418
f 1463 1464 1418
f 1464 1465 1418
f 1465 1466 1418
f 1466 1467 1418
f 1467 1468 1418
f 1468 1469 1418
f 1469 1470 1418
f 1470 1471 1418
f 1471 1472 1418
f 1472 1473 1418
f 1473 1474 1418
f 1578 1579 1585
f 1648 1649 1616
f 1649 1650 1616
f 1650 1651 1616
f 1651 1652 1616
f 1652 1653 1616
f 1653 1654 1616
f 1654 1655 1616
f 1655 1656 1616
f 1656 1657 1616
f 1657 1658 1616
f 1658 1659 1616
f 1659 1660 1616
f 1660 1661 1616
f 1661 1662 1616
f 1662 1663 1616
f 1663 1664 1616
f 1664 1665 1616
f 1665 1666 1616
f 1666 1667 1616
f 1667 1668 1616
f 1668 1669 1616
f 1669 1670 1616
f 1670 1671 1616
f 1671 1672 1616
f 1776 1777 1783
f 1846 1847 1814
f 1847 1848 1814
f 1848 1849 1814
f 1849 1850 1814
f 1850 1851 1814
f 1851 1852 1814
f 1852 1853 1814
f 1853 1854 1814
f 1854 1855 1814
f 1855 1856 1814
f 1856 1857 1814
f 1857 1858 1814
f 1858 1859 1814
f 1859 1860 1814
f 1860 1861 1814
f 1861 1862 1814
f 1862 1863 1814
f 1863 1864 1814
f 1864 1865 1814
f 1865 1866 1814
f 1866 1867 1814
f 1867 1868 1814
f 1868 1869 1814
f 1869 1870 1814
f 32 33 58
f 33 34 58
f 34 35 58
f 35 36 58
f 36 37 58
f 37 38 58
f 38 39 58
f 125 124 85
f 230 237 238
f 340 341 397
f 428 435 436
f 538 539 595
f 626 633 634
f 736 737 793
f 824 831 832
f 934 935 991
f 1022 1078 1079
f 1181 1182 1189
f 1220 1276 1277
f 1379 1380 1387
f 1418 1474 1475
f 1577 1578 1585
f 1616 1672 1673
f 1775 1776 1783
f 1814 1870 1
f 12 13 58
f 13 14 58
f 14 15 58
f 15 16 58
f 16 17 58
f 17 18 58
f 18 19 58
f 19 20 58
f 20 21 58
f 21 22 58
f 22 23 58
f 23 24 58
f 24 25 58
f 25 26 58
f 26 27 58
f 27 28 58
f 28 29 58
f 29 30 58
f 30 31 58
f 31 32 58
f 84 85 143
f 230 238 239
f 339 340 397
f 428 436 437
f 537 538 595
f 626 634 635
f 735 736 793
f 824 832 833
f 933 934 991
f 1022 1079 1080
f 1180 1181 1189
f 1220 1277 1278
f 1378 1379 1387
f 1418 1475 1476
f 1576 1577 1585
f 1616 1673 1674
f 1774 1775 1783
f 1814 1 2
f 3 4 58
f 4 5 58
f 5 6 58
f 6 7 58
f 7 8 58
f 8 9 58
f 9 10 58
f 10 11 58
f 11 12 58
f 230 239 240
f 338 339 397
f 428 437 438
f 536 537 595
f 626 635 636
f 734 735 793
f 824 833 834
f 932 933 991
f 1022 1080 1081
f 1179 1180 1189
f 1220 1278 1279
f 1377 1378 1387
f 1418 1476 1477
f 1575 1576 1585
f 1616 1674 1675
f 1773 1774 1783
f 1814 2 3
f 3 58 59
f 230 240 241
f 337 338 397
f 428 438 439
f 535 536 595
f 626 636 637
f 733 734 793
f 824 834 835
f 931 932 991
f 1022 1081 1082
f 1178 1179 1189
f 1220 1279 1280
f 1376 1377 1387
f 1418 1477 1478
f 1574 1575 1585
f 1616 1675 1676
f 1772 1773 1783
f 230 241 242
f 336 337 397
f 428 439 440
f 534 535 595
f 626 637 638
f 732 733 793
f 824 835 836
f 930 931 991
f 1022 1082 1083
f 1177 1178 1189
f 1220 1280 1281
f 1375 1376 1387
f 1418 1478 1479
f 1573 1574 1585
f 1616 1676 1677
f 1771 1772 1783
f 230 242 243
f 335 336 397
f 428 440 441
f 533 534 595
f 626 638 639
f 731 732 793
f 824 836 837
f 929 930 991
f 1022 1083 1084
f 1176 1177 1189
f 1220 1281 1282
f 1374 1375 1387
f 1418 1479 1480
f 1572 1573 1585
f 1616 1677 1678
f 1770 1771 1783
f 230 243 244
f 334 335 397
f 428 441 442
f 532 533 595
f 626 639 640
f 730 731 793
f 824 837 838
f 928 929 991
f 1022 1084 1085
f 1175 1176 1189
f 1220 1282 1283
f 1373 1374 1387
f 1418 1480 1481
f 1571 1572 1585
f 1616 1678 1679
f 1769 1770 1783
f 230 244 245
f 333 334 397
f 428 442 443
f 531 532 595
f 626 640 641
f 729 730 793
f 824 838 839
f 927 928 991
f 1022 1085 1086
f 1174 1175 1189
f 1220 1283 1284
f 1372 1373 1387
f 1418 1481 1482
f 1570 1571 1585
f 1616 1679 1680
f 1768 1769 1783
f 230 245 246
f 332 333 397
f 428 443 444
f 530 531 595
f 626 641 642
f 728 729 793
f 824 839 840
f 926 927 991
f 1022 1086 1087
f 1173 1174 1189
f 1220 1284 1285
f 1371 1372 1387
f 1418 1482 1483
f 1569 1570 1585
f 1616 1680 1681
f 1767 1768 1783
f 230 246 247
f 331 332 397
f 428 444 445
f 529 530 595
f 626 642 643
f 727 728 793
f 824 840 841
f 925 926 991
f 1022 1087 1088
f 1172 1173 1189
f 1220 1285 1286
f 1370 1371 1387
f 1418 1483 1484
f 1568 1569 1585
f 1616 1681 1682
f 1766 1767 1783
f 230 247 248
f 330 331 397
f 428 445 446
f 528 529 595
f 626 643 644
f 726 727 793
f 824 841 842
f 924 925 991
f 1022 1088 1089
f 1171 1172 1189
f 1220 1286 1287
f 1369 1370 1387
f 1418 1484 1485
f 1567 1568 1585
f 1616 1682 1683
f 1765 1766 1783
f 230 248 249
f 329 330 397
f 428 446 447
f 527 528 595
f 626 644 645
f 725 726 793
f 824 842 843
f 923 924 991
f 1022 1089 1090
f 1170 1171 1189
f 1220 1287 1288
f 1368 1369 1387
f 1418 1485 1486
f 1566 1567 1585
f 1616 1683 1684
f 1764 1765 1783
f 230 249 250
f 328 329 397
f 428 447 448
f 526 527 595
f 626 645 646
f 724 725 793
f 824 843 844
f 922 923 991
f 1022 1090 1091
f 1169 1170 1189
f 1220 1288 1289
f 1367 1368 1387
f 1418 1486 1487
f 1565 1566 1585
f 1616 1684 1685
f 1763 1764 1783
f 230 250 251
f 327 328 397
f 428 448 449
f 525 526 595
f 626 646 647
f 723 724 793
f 824 844 845
f 921 922 991
f 1022 1091 1092
f 1168 1169 1189
f 1220 1289 1290
f 1366 1367 1387
f 1418 1487 1488
f 1564 1565 1585
f 1616 1685 1686
f 1762 1763 1783
f 230 251 252
f 326 327 397
f 428 449 450
f 524 525 595
f 626 647 648
f 722 723 793
f 824 845 846
f 920 921 991
f 1022 1092 1093
f 1167 1168 1189
f 1220 1290 1291
f 1365 1366 1387
f 1418 1488 1489
f 1563 1564 1585
f 1616 1686 1687
f 1761 1762 1783
f 230 252 253
f 325 326 397
f 428 450 451
f 523 524 595
f 626 648 649
f 721 722 793
f 824 846 847
f 919 920 991
f 1022 1093 1094
f 1166 1167 1189
f 1220 1291 1292
f 1364 1365 1387
f 1418 1489 1490
f 1562 1563 1585
f 1616 1687 1688
f 1760 1761 1783
f 230 253 254
f 324 325 397
f 428 451 452
f 522 523 595
f 626 649 650
f 720 721 793
f 824 847 848
f 918 919 991
f 1022 1094 1095
f 1165 1166 1189
f 1220 1292 1293
f 1363 1364 1387
f 1418 1490 1491
f 1561 1562 1585
f 1616 1688 1689
f 1759 1760 1783
f 230 254 255
f 323 324 397
f 428 452 453
f 521 522 595
f 626 650 651
f 719 720 793
f 824 848 849
f 1164 1165 1189
f 1220 1293 1294
f 1362 1363 1387
f 1418 1491 1492
f 1560 1561 1585
f 1616 1689 1690
f 1758 1759 1783
f 230 255 256
f 322 323 397
f 428 453 454
f 520 521 595
f 626 651 652
f 718 719 793
f 824 849 850
f 1163 1164 1189
f 1220 1294 1295
f 1361 1362 1387
f 1418 1492 1493
f 1559 1560 1585
f 1616 1690 1691
f 1757 1758 1783
f 230 256 257
f 321 322 397
f 428 454 455
f 519 520 595
f 626 652 653
f 717 718 793
f 824 850 851
f 1162 1163 1189
f 1220 1295 1296
f 1360 1361 1387
f 1418 1493 1494
f 1558 1559 1585
f 1616 1691 1692
f 1756 1757 1783
f 230 257 258
f 320 321 397
f 428 455 456
f 518 519 595
f 626 653 654
f 716 717 793
f 824 851 852
f 1161 1162 1189
f 1220 1296 1297
f 1359 1360 1387
f 1418 1494 1495
f 1557 1558 1585
f 1616 1692 1693
f 1755 1756 1783
f 230 258 259
f 319 320 397
f 428 456 457
f 517 518 595
f 626 654 655
f 715 716 793
f 824 852 853
f 1160 1161 1189
f 1220 1297 1298
f 1358 1359 1387
f 1418 1495 1496
f 1556 1557 1585
f 1616 1693 1694
f 1754 1755 1783
f 230 259 260
f 318 319 397
f 428 457 458
f 516 517 595
f 626 655 656
f 714 715 793
f 824 853 854
f 1159 1160 1189
f 1220 1298 1299
f 1357 1358 1387
f 1418 1496 1497
f 1555 1556 1585
f 1616 1694 1695
f 1753 1754 1783
f 230 260 261
f 317 318 397
f 428 458 459
f 515 516 595
f 626 656 657
f 824 854 855
f 1158 1159 1189
f 1356 1357 1387
f 1418 1497 1498
f 1554 1555 1585
f 1616 1695 1696
f 1752 1753 1783
f 230 261 262
f 316 317 397
f 428 459 460
f 514 515 595
f 626 657 658
f 824 855 856
f 1157 1158 1189
f 1355 1356 1387
f 1418 1498 1499
f 1553 1554 1585
f 1616 1696 1697
f 1751 1752 1783
f 230 262 263
f 315 316 397
f 428 460 461
f 513 514 595
f 626 658 659
f 824 856 857
f 1156 1157 1189
f 1354 1355 1387
f 1418 1499 1500
f 1552 1553 1585
f 1616 1697 1698
f 1750 1751 1783
f 230 263 264
f 314 315 397
f 428 461 462
f 512 513 595
f 626 659 660
f 824 857 858
f 1155 1156 1189
f 1353 1354 1387
f 1418 1500 1501
f 1551 1552 1585
f 1616 1698 1699
f 1749 1750 1783
f 230 264 265
f 313 314 397
f 428 462 463
f 511 512 595
f 626 660 661
f 824 858 859
f 1154 1155 1189
f 1352 1353 1387
f 1418 1501 1502
f 1550 1551 1585
f 1616 1699 1700
f 1748 1749 1783
f 230 265 266
f 312 313 397
f 428 463 464
f 510 511 595
f 626 661 662
f 824 859 860
f 1153 1154 1189
f 1351 1352 1387
f 1418 1502 1503
f 1549 1550 1585
f 1616 1700 1701
f 1747 1748 1783
f 230 266 267
f 311 312 397
f 428 464 465
f 509 510 595
f 626 662 663
f 824 860 861
f 1152 1153 1189
f 1350 1351 1387
f 1418 1503 1504
f 1548 1549 1585
f 1616 1701 1702
f 1746 1747 1783
f 230 267 268
f 310 311 397
f 428 465 466
f 508 509 595
f 626 663 664
f 824 861 862
f 1151 1152 1189
f 1349 1350 1387
f 1418 1504 1505
f 1547 1548 1585
f 1616 1702 1703
f 1745 1746 1783
f 230 268 269
f 309 310 397
f 428 466 467
f 507 508 595
f 626 664 665
f 824 862 863
f 1150 1151 1189
f 1348 1349 1387
f 1418 1505 1506
f 1546 1547 1585
f 1616 1703 1704
f 1744 1745 1783
f 230 269 270
f 308 309 397
f 428 467 468
f 506 507 595
f 626 665 666
f 824 863 864
f 1149 1150 1189
f 1347 1348 1387
f 1418 1506 1507
f 1545 1546 1585
f 1616 1704 1705
f 1743 1744 1783
f 230 270 271
f 307 308 397
f 428 468 469
f 505 506 595
f 626 666 667
f 824 864 865
f 1148 1149 1189
f 1346 1347 1387
f 1418 1507 1508
f 1544 1545 1585
f 1616 1705 1706
f 1742 1743 1783
f 230 271 272
f 306 307 397
f 428 469 470
f 504 505 595
f 626 667 668
f 824 865 866
f 1147 1148 1189
f 1345 1346 1387
f 1418 1508 1509
f 1543 1544 1585
f 1616 1706 1707
f 1741 1742 1783
f 230 272 273
f 305 306 397
f 428 470 471
f 503 504 595
f 626 668 669
f 824 866 867
f 1146 1147 1189
f 1344 1345 1387
f 1418 1509 1510
f 1542 1543 1585
f 1616 1707 1708
f 1740 1741 1783
f 230 273 274
f 304 305 397
f 428 471 472
f 502 503 595
f 626 669 670
f 824 867 868
f 1145 1146 1189
f 1343 1344 1387
f 1418 1510 1511
f 1541 1542 1585
f 1616 1708 1709
f 1739 1740 1783
f 230 274 275
f 303 304 397
f 428 472 473
f 626 670 671
f 824 868 869
f 1144 1145 1189
f 1342 1343 1387
f 1540 1541 1585
f 1616 1709 1710
f 1738 1739 1783
f 230 275 276
f 302 303 397
f 428 473 474
f 626 671 672
f 824 869 870
f 1143 1144 1189
f 1341 1342 1387
f 1539 1540 1585
f 1616 1710 1711
f 1737 1738 1783
f 230 276 277
f 301 302 397
f 428 474 475
f 626 672 673
f 824 870 871
f 1142 1143 1189
f 1340 1341 1387
f 1538 1539 1585
f 1616 1711 1712
f 1736 1737 1783
f 230 277 278
f 300 301 397
f 428 475 476
f 626 673 674
f 824 871 872
f 1141 1142 1189
f 1339 1340 1387
f 1537 1538 1585
f 1616 1712 1713
f 1735 1736 1783
f 230 278 279
f 299 300 397
f 428 476 477
f 626 674 675
f 824 872 873
f 1140 1141 1189
f 1338 1339 1387
f 1536 1537 1585
f 1616 1713 1714
f 1734 1735 1783
f 230 279 280
f 298 299 397
f 428 477 478
f 626 675 676
f 824 873 874
f 1139 1140 1189
f 1337 1338 1387
f 1535 1536 1585
f 1616 1714 1715
f 1733 1734 1783
f 230 280 281
f 297 298 397
f 428 478 479
f 626 676 677
f 824 874 875
f 1138 1139 1189
f 1336 1337 1387
f 1534 1535 1585
f 1616 1715 1716
f 1732 1733 1783
f 230 281 282
f 296 297 397
f 428 479 480
f 626 677 678
f 824 875 876
f 1137 1138 1189
f 1335 1336 1387
f 1533 1534 1585
f 1616 1716 1717
f 1731 1732 1783
f 230 282 283
f 295 296 397
f 428 480 481
f 626 678 679
f 824 876 877
f 1136 1137 1189
f 1334 1335 1387
f 1532 1533 1585
f 1616 1717 1718
f 1730 1731 1783
f 230 283 284
f 294 295 397
f 428 481 482
f 626 679 680
f 824 877 878
f 1135 1136 1189
f 1333 1334 1387
f 1531 1532 1585
f 1616 1718 1719
f 1729 1730 1783
f 230 284 285
f 293 294 397
f 428 482 483
f 626 680 681
f 824 878 879
f 1134 1135 1189
f 1332 1333 1387
f 1530 1531 1585
f 1616 1719 1720
f 1728 1729 1783
f 230 285 286
f 292 293 397
f 428 483 484
f 626 681 682
f 824 879 880
f 1133 1134 1189
f 1331 1332 1387
f 1529 1530 1585
f 1616 1720 1721
f 1727 1728 1783
f 230 286 287
f 291 292 397
f 428 484 485
f 626 682 683
f 824 880 881
f 1132 1133 1189
f 1330 1331 1387
f 1528 1529 1585
f 1616 1721 1722
f 1726 1727 1783
f 230 287 288
f 290 291 397
f 428 485 486
f 626 683 684
f 824 881 882
f 1131 1132 1189
f 1329 1330 1387
f 1527 1528 1585
f 1616 1722 1723
f 1725 1726 1783
f 230 288 289
f 289 290 397
f 428 486 487
f 626 684 685
f 824 882 883
f 1130 1131 1189
f 1328 1329 1387
f 1526 1527 1585
f 1616 1723 1724
f 1724 1725 1783
f 1814 3 59
f 84 143 199
f 230 289 397
f 428 487 488
f 626 685 686
f 824 883 884
f 1129 1130 1189
f 1327 1328 1387
f 1525 1526 1585
f 1616 1724 1783
f 1814 59 60
f 83 84 199
f 428 488 489
f 626 686 687
f 824 884 885
f 1128 1129 1189
f 1326 1327 1387
f 1524 1525 1585
f 1814 60 61
f 82 83 199
f 428 489 490
f 626 687 688
f 824 885 886
f 1127 1128 1189
f 1325 1326 1387
f 1523 1524 1585
f 1814 61 62
f 81 82 199
f 428 490 491
f 626 688 689
f 824 886 887
f 1126 1127 1189
f 1324 1325 1387
f 1522 1523 1585
f 428 491 492
f 626 689 690
f 824 887 888
f 1125 1126 1189
f 1323 1324 1387
f 1521 1522 1585
f 428 492 493
f 626 690 691
f 824 888 889
f 1124 1125 1189
f 1322 1323 1387
f 1520 1521 1585
f 428 493 494
f 626 691 692
f 824 889 890
f 1123 1124 1189
f 1321 1322 1387
f 1519 1520 1585
f 428 494 495
f 626 692 693
f 824 890 891
f 1122 1123 1189
f 1320 1321 1387
f 1518 1519 1585
f 428 495 496
f 626 693 694
f 824 891 892
f 1121 1122 1189
f 1319 1320 1387
f 1517 1518 1585
f 428 496 497
f 626 694 695
f 824 892 893
f 1120 1121 1189
f 1318 1319 1387
f 1516 1517 1585
f 428 497 498
f 626 695 696
f 824 893 894
f 1119 1120 1189
f 1317 1318 1387
f 1515 1516 1585
f 428 498 499
f 626 696 697
f 824 894 895
f 1118 1119 1189
f 1316 1317 1387
f 1514 1515 1585
f 428 499 500
f 626 697 698
f 824 895 896
f 1117 1118 1189
f 1315 1316 1387
f 1513 1514 1585
f 428 500 501
f 626 698 699
f 824 896 897
f 1116 1117 1189
f 1314 1315 1387
f 1512 1513 1585
f 428 501 502
f 626 699 700
f 1313 1314 1387
f 1511 1512 1585
f 428 502 595
f 626 700 701
f 1312 1313 1387
f 1418 1511 1585
f 626 701 702
f 1311 1312 1387
f 626 702 703
f 1310 1311 1387
f 626 703 704
f 1309 1310 1387
f 64 1299 1300
f 64 1300 1301
f 64 1301 1302
f 64 1302 1303
f 64 1303 1304
f 64 1304 1305
f 64 1305 1306
f 64 1306 1307
f 64 1307 1308
f 64 1308 1309
f 64 1309 1387
f 63 64 1387
f 62 63 1387
f 1814 62 1387
f 1299 64 65
f 1220 1299 65
f 1220 65 66
f 1220 66 67
f 1220 67 68
f 1220 68 69
f 70 1095 1096
f 69 70 1096
f 69 1096 1097
f 69 1097 1098
f 69 1098 1099
f 69 1099 1100
f 69 1100 1101
f 69 1101 1102
f 69 1102 1103
f 69 1103 1104
f 69 1104 1105
f 69 1105 1106
f 69 1106 1107
f 69 1107 1108
f 69 1108 1109
f 69 1109 1110
f 69 1110 1111
f 69 1111 1112
f 69 1112 1113
f 69 1113 1114
f 69 1114 1115
f 69 1115 1116
f 1220 69 1116
f 1095 70 71
f 1022 1095 71
f 1022 71 72
f 1022 72 73
f 74 704 705
f 74 705 706
f 74 706 707
f 74 707 708
f 74 708 709
f 74 709 710
f 74 710 711
f 74 711 712
f 74 712 713
f 74 713 714
f 74 714 793
f 897 73 74
f 824 897 74
f 73 897 898
f 73 898 899
f 73 899 900
f 73 900 901
f 73 901 902
f 73 902 903
f 73 903 904
f 73 904 905
f 73 905 906
f 73 906 907
f 73 907 908
f 73 908 909
f 73 909 910
f 73 910 911
f 73 911 912
f 73 912 913
f 73 913 914
f 73 914 915
f 73 915 916
f 73 916 917
f 73 917 918
f 1022 73 918
f 704 74 75
f 704 75 76
f 626 704 76
f 626 76 77
f 626 77 78
f 626 78 79
f 626 79 80
f 626 80 81
f 626 81 199
