v -0.569375 -1.324199 0.139329
v -0.566897 -1.325000 0.138290
v -0.572942 -1.325000 0.140850
v -0.565803 -1.323410 0.137838
v -0.562226 -1.322634 0.136378
v -0.560818 -1.325000 0.135811
v -0.558645 -1.321871 0.134948
v -0.555059 -1.321121 0.133548
v -0.554707 -1.325000 0.133411
v -0.551469 -1.320384 0.132178
v -0.548566 -1.325000 0.131092
v -0.547876 -1.319660 0.130839
v -0.544279 -1.318950 0.129529
v -0.542394 -1.325000 0.128853
v -0.540679 -1.318253 0.128250
v -0.537076 -1.317570 0.127000
v -0.536194 -1.325000 0.126696
v -0.533471 -1.316900 0.125780
v -0.529966 -1.325000 0.124620
v -0.529864 -1.316245 0.124590
v -0.526255 -1.315603 0.123429
v -0.523711 -1.325000 0.122627
v -0.522644 -1.314976 0.122298
v -0.519032 -1.314363 0.121196
v -0.517430 -1.325000 0.120715
v -0.515419 -1.313765 0.120124
v -0.511805 -1.313180 0.119080
v -0.511125 -1.325000 0.118887
v -0.508191 -1.312611 0.118066
v -0.504796 -1.325000 0.117141
v -0.504577 -1.312057 0.117082
v -0.500963 -1.311517 0.116126
v -0.498445 -1.325000 0.115478
v -0.497348 -1.310992 0.115198
v -0.493734 -1.310482 0.114300
v -0.492073 -1.325000 0.113899
v -0.490120 -1.309988 0.113430
v -0.486507 -1.309508 0.112589
v -0.485681 -1.325000 0.112404
v -0.482893 -1.309043 0.111776
v -0.479280 -1.308593 0.110991
v -0.479269 -1.325000 0.110993
v -0.475667 -1.308158 0.110235
v -0.472840 -1.325000 0.109666
v -0.472054 -1.307739 0.109506
v -0.468442 -1.307334 0.108805
v -0.466393 -1.325000 0.108424
v -0.464830 -1.306945 0.108132
v -0.461219 -1.306571 0.107486
v -0.459931 -1.325000 0.107266
v -0.457608 -1.306212 0.106868
v -0.453997 -1.305869 0.106278
v -0.453455 -1.325000 0.106193
v -0.450388 -1.305540 0.105714
v -0.446964 -1.325000 0.105206
v -0.446778 -1.305227 0.105178
v -0.443170 -1.304930 0.104668
v -0.440462 -1.325000 0.104304
v -0.439562 -1.304647 0.104186
v -0.435955 -1.304380 0.103730
v -0.433948 -1.325000 0.103487
v -0.432349 -1.304129 0.103301
v -0.428744 -1.303892 0.102898
v -0.427424 -1.325000 0.102756
v -0.425141 -1.303672 0.102522
v -0.421539 -1.303466 0.102173
v -0.420890 -1.325000 0.102110
v -0.417940 -1.303276 0.101850
v -0.414349 -1.325000 0.101551
v -0.414343 -1.303101 0.101553
v -0.410748 -1.302941 0.101282
v -0.407801 -1.325000 0.101077
v -0.407157 -1.302797 0.101037
v -0.403568 -1.302668 0.100819
v -0.401248 -1.325000 0.100689
v -0.399983 -1.302554 0.100626
v -0.396401 -1.302455 0.100460
v -0.394690 -1.325000 0.100388
v -0.392823 -1.302372 0.100319
v -0.389249 -1.302303 0.100204
v -0.388129 -1.325000 0.100172
v -0.385680 -1.302250 0.100115
v -0.382115 -1.302212 0.100051
v -0.381565 -1.325000 0.100043
v -0.378555 -1.302190 0.100013
v -0.375000 -1.302182 0.100000
v -0.375000 -1.325000 0.100000
f 1 3 2
f 1 2 4
f 4 2 5
f 5 2 6
f 5 6 7
f 7 6 8
f 8 6 9
f 8 9 10
f 10 9 11
f 10 11 12
f 12 11 13
f 13 11 14
f 13 14 15
f 15 14 16
f 16 14 17
f 16 17 18
f 18 17 19
f 18 19 20
f 20 19 21
f 21 19 22
f 21 22 23
f 23 22 24
f 24 22 25
f 24 25 26
f 26 25 27
f 27 25 28
f 27 28 29
f 29 28 30
f 29 30 31
f 31 30 32
f 32 30 33
f 32 33 34
f 34 33 35
f 35 33 36
f 35 36 37
f 37 36 38
f 38 36 39
f 38 39 40
f 40 39 41
f 41 39 42
f 41 42 43
f 43 42 44
f 43 44 45
f 45 44 46
f 46 44 47
f 46 47 48
f 48 47 49
f 49 47 50
f 49 50 51
f 51 50 52
f 52 50 53
f 52 53 54
f 54 53 55
f 54 55 56
f 56 55 57
f 57 55 58
f 57 58 59
f 59 58 60
f 60 58 61
f 60 61 62
f 62 61 63
f 63 61 64
f 63 64 65
f 65 64 66
f 66 64 67
f 66 67 68
f 68 67 69
f 68 69 70
f 70 69 71
f 71 69 72
f 71 72 73
f 73 72 74
f 74 72 75
f 74 75 76
f 76 75 77
f 77 75 78
f 77 78 79
f 79 78 80
f 80 78 81
f 80 81 82
f 82 81 83
f 83 81 84
f 83 84 85
f 85 84 86
f 86 84 87
