v 1.789544 0.350000 -4.946759
v 1.667500 0.350000 -4.837000
v 1.668334 0.350000 -4.853440
v 1.670826 0.350000 -4.869711
v 1.674952 0.350000 -4.885647
v 1.680669 0.350000 -4.901083
v 1.687919 0.350000 -4.915862
v 1.696626 0.350000 -4.929831
v 1.706702 0.350000 -4.942848
v 1.718043 0.350000 -4.954779
v 1.730533 0.350000 -4.965501
v 1.744043 0.350000 -4.974905
v 1.758436 0.350000 -4.982893
v 1.773563 0.350000 -4.989385
v 1.789269 0.350000 -4.994313
v 1.805393 0.350000 -4.997626
v 1.821770 0.350000 -4.999291
v 1.838230 0.350000 -4.999291
v 1.854607 0.350000 -4.997626
v 1.870731 0.350000 -4.994313
v 1.886437 0.350000 -4.989385
v 1.901564 0.350000 -4.982893
v 1.915957 0.350000 -4.974905
v 1.929467 0.350000 -4.965501
v 1.941957 0.350000 -4.954779
v 1.953298 0.350000 -4.942848
v 1.963374 0.350000 -4.929831
v 1.667500 0.350000 -4.837000
v 1.970729 0.390924 -4.918250
v 1.986963 0.390924 -4.879058
v 1.667500 0.990594 -4.837000
v 1.667799 0.996215 -4.846815
v 1.668678 1.001526 -4.856489
v 1.670112 1.006523 -4.865988
v 1.672074 1.011202 -4.875279
v 1.674540 1.015559 -4.884329
v 1.677488 1.019599 -4.893120
v 1.680901 1.023328 -4.901643
v 1.684759 1.026753 -4.909888
v 1.689043 1.029880 -4.917843
v 1.693725 1.032713 -4.925491
v 1.698763 1.035252 -4.932802
v 1.704118 1.037499 -4.939750
v 1.709752 1.039454 -4.946305
v 1.715635 1.041122 -4.952457
v 1.721761 1.042516 -4.958218
v 1.728126 1.043647 -4.963606
v 1.734723 1.044529 -4.968638
v 1.741551 1.045170 -4.973325
v 1.748617 1.045567 -4.977664
v 1.755931 1.045716 -4.981649
v 1.763504 1.045610 -4.985274
v 1.771338 1.045246 -4.988530
v 1.779398 1.044621 -4.991400
v 1.787632 1.043737 -4.993863
v 1.795991 1.042594 -4.995897
v 1.804423 1.041193 -4.997480
v 1.812904 1.039534 -4.998606
v 1.821422 1.037619 -4.999279
v 1.829969 1.035447 -4.999501
v 1.838535 1.033020 -4.999276
v 1.847116 1.030334 -4.998600
v 1.855710 1.027374 -4.997459
v 1.864319 1.024128 -4.995838
v 1.872942 1.020583 -4.993723
v 1.881571 1.016727 -4.991099
v 1.890179 1.012549 -4.987947
v 1.898734 1.008040 -4.984250
v 1.907205 1.003190 -4.979989
v 1.915557 0.997993 -4.975148
v 1.923742 0.992452 -4.969729
v 1.931705 0.986578 -4.963733
v 1.939391 0.980379 -4.957166
v 1.946745 0.973864 -4.950033
v 1.953713 0.967059 -4.942360
v 1.960238 0.959996 -4.934183
v 1.966263 0.952708 -4.925541
v 1.971734 0.945230 -4.916471
v 1.976609 0.937608 -4.907033
v 1.980862 0.929910 -4.897315
v 1.984469 0.922201 -4.887403
v 1.987406 0.914548 -4.877385
v 1.992191 0.892251 -4.847122
v 1.992500 0.885067 -4.837000
v 1.992500 0.350000 -4.837000
v 1.830000 1.004791 -4.999500
v 1.872058 1.004791 -4.993963
v 1.673037 0.963867 -4.879058
v 1.911250 0.963867 -4.977729
v 1.944905 0.963867 -4.951905
v 1.673037 0.922943 -4.879058
v 1.970729 0.922943 -4.918250
v 1.986963 0.922943 -4.879058
v 1.673037 0.882018 -4.879058
v 1.970729 0.882018 -4.918250
v 1.986963 0.882018 -4.879058
v 1.673037 0.841094 -4.879058
v 1.970729 0.841094 -4.918250
v 1.986963 0.841094 -4.879058
v 1.673037 0.800169 -4.879058
v 1.970729 0.800169 -4.918250
v 1.986963 0.800169 -4.879058
v 1.673037 0.759245 -4.879058
v 1.970729 0.759245 -4.918250
v 1.986963 0.759245 -4.879058
v 1.673037 0.718320 -4.879058
v 1.970729 0.718320 -4.918250
v 1.986963 0.718320 -4.879058
v 1.673037 0.677396 -4.879058
v 1.970729 0.677396 -4.918250
v 1.986963 0.677396 -4.879058
v 1.673037 0.636471 -4.879058
v 1.970729 0.636471 -4.918250
v 1.986963 0.636471 -4.879058
v 1.673037 0.595547 -4.879058
v 1.970729 0.595547 -4.918250
v 1.986963 0.595547 -4.879058
v 1.673037 0.554622 -4.879058
v 1.970729 0.554622 -4.918250
v 1.986963 0.554622 -4.879058
v 1.673037 0.513698 -4.879058
v 1.970729 0.513698 -4.918250
v 1.986963 0.513698 -4.879058
v 1.673037 0.472773 -4.879058
v 1.970729 0.472773 -4.918250
v 1.986963 0.472773 -4.879058
v 1.673037 0.431849 -4.879058
v 1.970729 0.431849 -4.918250
v 1.986963 0.431849 -4.879058
v 1.673037 0.390924 -4.879058
v 1.944905 0.390924 -4.951905
v 1.991251 0.899564 -4.857233
v 1.787942 1.004791 -4.993963
v 1.872058 0.963867 -4.993963
v 1.944905 0.922943 -4.951905
v 1.944905 0.882018 -4.951905
v 1.944905 0.841094 -4.951905
v 1.944905 0.800169 -4.951905
v 1.944905 0.759245 -4.951905
v 1.944905 0.718320 -4.951905
v 1.944905 0.677396 -4.951905
v 1.944905 0.636471 -4.951905
v 1.944905 0.595547 -4.951905
v 1.944905 0.554622 -4.951905
v 1.944905 0.513698 -4.951905
v 1.944905 0.472773 -4.951905
v 1.944905 0.431849 -4.951905
v 1.911250 0.390924 -4.977729
v 1.989662 0.906998 -4.867323
v 1.748750 1.004791 -4.977729
v 1.830000 0.963867 -4.999500
v 1.911250 0.922943 -4.977729
v 1.911250 0.882018 -4.977729
v 1.911250 0.841094 -4.977729
v 1.911250 0.800169 -4.977729
v 1.911250 0.759245 -4.977729
v 1.911250 0.718320 -4.977729
v 1.911250 0.677396 -4.977729
v 1.911250 0.636471 -4.977729
v 1.911250 0.595547 -4.977729
v 1.911250 0.554622 -4.977729
v 1.911250 0.513698 -4.977729
v 1.911250 0.472773 -4.977729
v 1.911250 0.431849 -4.977729
v 1.872058 0.390924 -4.993963
v 1.715095 1.004791 -4.951905
v 1.787942 0.963867 -4.993963
v 1.872058 0.922943 -4.993963
v 1.872058 0.882018 -4.993963
v 1.872058 0.841094 -4.993963
v 1.872058 0.800169 -4.993963
v 1.872058 0.759245 -4.993963
v 1.872058 0.718320 -4.993963
v 1.872058 0.677396 -4.993963
v 1.872058 0.636471 -4.993963
v 1.872058 0.595547 -4.993963
v 1.872058 0.554622 -4.993963
v 1.872058 0.513698 -4.993963
v 1.872058 0.472773 -4.993963
v 1.872058 0.431849 -4.993963
v 1.830000 0.390924 -4.999500
v 1.689271 1.004791 -4.918250
v 1.748750 0.963867 -4.977729
v 1.830000 0.922943 -4.999500
v 1.830000 0.882018 -4.999500
v 1.830000 0.841094 -4.999500
v 1.830000 0.800169 -4.999500
v 1.830000 0.759245 -4.999500
v 1.830000 0.718320 -4.999500
v 1.830000 0.677396 -4.999500
v 1.830000 0.636471 -4.999500
v 1.830000 0.595547 -4.999500
v 1.830000 0.554622 -4.999500
v 1.830000 0.513698 -4.999500
v 1.830000 0.472773 -4.999500
v 1.830000 0.431849 -4.999500
v 1.787942 0.390924 -4.993963
v 1.991666 0.350000 -4.853440
v 1.715095 0.963867 -4.951905
v 1.787942 0.922943 -4.993963
v 1.787942 0.882018 -4.993963
v 1.787942 0.841094 -4.993963
v 1.787942 0.800169 -4.993963
v 1.787942 0.759245 -4.993963
v 1.787942 0.718320 -4.993963
v 1.787942 0.677396 -4.993963
v 1.787942 0.636471 -4.993963
v 1.787942 0.595547 -4.993963
v 1.787942 0.554622 -4.993963
v 1.787942 0.513698 -4.993963
v 1.787942 0.472773 -4.993963
v 1.787942 0.431849 -4.993963
v 1.748750 0.390924 -4.977729
v 1.989174 0.350000 -4.869711
v 1.689271 0.963867 -4.918250
v 1.748750 0.922943 -4.977729
v 1.748750 0.882018 -4.977729
v 1.748750 0.841094 -4.977729
v 1.748750 0.800169 -4.977729
v 1.748750 0.759245 -4.977729
v 1.748750 0.718320 -4.977729
v 1.748750 0.677396 -4.977729
v 1.748750 0.636471 -4.977729
v 1.748750 0.595547 -4.977729
v 1.748750 0.554622 -4.977729
v 1.748750 0.513698 -4.977729
v 1.748750 0.472773 -4.977729
v 1.748750 0.431849 -4.977729
v 1.715095 0.390924 -4.951905
v 1.985048 0.350000 -4.885647
v 1.715095 0.922943 -4.951905
v 1.715095 0.882018 -4.951905
v 1.715095 0.841094 -4.951905
v 1.715095 0.800169 -4.951905
v 1.715095 0.759245 -4.951905
v 1.715095 0.718320 -4.951905
v 1.715095 0.677396 -4.951905
v 1.715095 0.636471 -4.951905
v 1.715095 0.595547 -4.951905
v 1.715095 0.554622 -4.951905
v 1.715095 0.513698 -4.951905
v 1.715095 0.472773 -4.951905
v 1.715095 0.431849 -4.951905
v 1.689271 0.390924 -4.918250
v 1.979331 0.350000 -4.901083
v 1.689271 0.922943 -4.918250
v 1.689271 0.882018 -4.918250
v 1.689271 0.841094 -4.918250
v 1.689271 0.800169 -4.918250
v 1.689271 0.759245 -4.918250
v 1.689271 0.718320 -4.918250
v 1.689271 0.677396 -4.918250
v 1.689271 0.636471 -4.918250
v 1.689271 0.595547 -4.918250
v 1.689271 0.554622 -4.918250
v 1.689271 0.513698 -4.918250
v 1.689271 0.472773 -4.918250
v 1.689271 0.431849 -4.918250
v 1.972081 0.350000 -4.915862
v 1.731076 0.984329 -4.965920
v 1.748750 0.984329 -4.977729
v 1.715095 0.984329 -4.951905
v 1.701080 0.984329 -4.935924
v 1.689271 0.984329 -4.918250
v 1.767814 0.943405 -4.987130
v 1.787942 0.943405 -4.993963
v 1.748750 0.943405 -4.977729
v 1.731076 0.943405 -4.965920
v 1.715095 0.943405 -4.951905
v 1.701080 0.943405 -4.935924
v 1.689271 0.943405 -4.918250
v 1.808789 0.902480 -4.998110
v 1.830000 0.902480 -4.999500
v 1.787942 0.902480 -4.993963
v 1.767814 0.902480 -4.987130
v 1.748750 0.902480 -4.977729
v 1.731076 0.902480 -4.965920
v 1.715095 0.902480 -4.951905
v 1.701080 0.902480 -4.935924
v 1.689271 0.902480 -4.918250
v 1.808789 0.861556 -4.998110
v 1.830000 0.861556 -4.999500
v 1.787942 0.861556 -4.993963
v 1.767814 0.861556 -4.987130
v 1.748750 0.861556 -4.977729
v 1.731076 0.861556 -4.965920
v 1.715095 0.861556 -4.951905
v 1.701080 0.861556 -4.935924
v 1.689271 0.861556 -4.918250
v 1.808789 0.820631 -4.998110
v 1.830000 0.820631 -4.999500
v 1.787942 0.820631 -4.993963
v 1.767814 0.820631 -4.987130
v 1.748750 0.820631 -4.977729
v 1.731076 0.820631 -4.965920
v 1.715095 0.820631 -4.951905
v 1.701080 0.820631 -4.935924
v 1.689271 0.820631 -4.918250
v 1.808789 0.779707 -4.998110
v 1.830000 0.779707 -4.999500
v 1.787942 0.779707 -4.993963
v 1.767814 0.779707 -4.987130
v 1.748750 0.779707 -4.977729
v 1.731076 0.779707 -4.965920
v 1.715095 0.779707 -4.951905
v 1.701080 0.779707 -4.935924
v 1.689271 0.779707 -4.918250
v 1.808789 0.738782 -4.998110
v 1.830000 0.738782 -4.999500
v 1.787942 0.738782 -4.993963
v 1.767814 0.738782 -4.987130
v 1.748750 0.738782 -4.977729
v 1.731076 0.738782 -4.965920
v 1.715095 0.738782 -4.951905
v 1.701080 0.738782 -4.935924
v 1.689271 0.738782 -4.918250
v 1.808789 0.697858 -4.998110
v 1.830000 0.697858 -4.999500
v 1.787942 0.697858 -4.993963
v 1.767814 0.697858 -4.987130
v 1.748750 0.697858 -4.977729
v 1.731076 0.697858 -4.965920
v 1.715095 0.697858 -4.951905
v 1.701080 0.697858 -4.935924
v 1.689271 0.697858 -4.918250
v 1.808789 0.656933 -4.998110
v 1.830000 0.656933 -4.999500
v 1.787942 0.656933 -4.993963
v 1.767814 0.656933 -4.987130
v 1.748750 0.656933 -4.977729
v 1.731076 0.656933 -4.965920
v 1.715095 0.656933 -4.951905
v 1.701080 0.656933 -4.935924
v 1.689271 0.656933 -4.918250
v 1.808789 0.616009 -4.998110
v 1.830000 0.616009 -4.999500
v 1.787942 0.616009 -4.993963
v 1.767814 0.616009 -4.987130
v 1.748750 0.616009 -4.977729
v 1.731076 0.616009 -4.965920
v 1.715095 0.616009 -4.951905
v 1.701080 0.616009 -4.935924
v 1.689271 0.616009 -4.918250
v 1.808789 0.575085 -4.998110
v 1.830000 0.575085 -4.999500
v 1.787942 0.575085 -4.993963
v 1.767814 0.575085 -4.987130
v 1.748750 0.575085 -4.977729
v 1.731076 0.575085 -4.965920
v 1.715095 0.575085 -4.951905
v 1.701080 0.575085 -4.935924
v 1.689271 0.575085 -4.918250
v 1.808789 0.534160 -4.998110
v 1.830000 0.534160 -4.999500
v 1.787942 0.534160 -4.993963
v 1.767814 0.534160 -4.987130
v 1.748750 0.534160 -4.977729
v 1.731076 0.534160 -4.965920
v 1.715095 0.534160 -4.951905
v 1.701080 0.534160 -4.935924
v 1.689271 0.534160 -4.918250
v 1.808789 0.493236 -4.998110
v 1.830000 0.493236 -4.999500
v 1.787942 0.493236 -4.993963
v 1.767814 0.493236 -4.987130
v 1.748750 0.493236 -4.977729
v 1.731076 0.493236 -4.965920
v 1.715095 0.493236 -4.951905
v 1.701080 0.493236 -4.935924
v 1.689271 0.493236 -4.918250
v 1.808789 0.452311 -4.998110
v 1.830000 0.452311 -4.999500
v 1.787942 0.452311 -4.993963
v 1.767814 0.452311 -4.987130
v 1.748750 0.452311 -4.977729
v 1.731076 0.452311 -4.965920
v 1.715095 0.452311 -4.951905
v 1.701080 0.452311 -4.935924
v 1.689271 0.452311 -4.918250
v 1.808789 0.411387 -4.998110
v 1.830000 0.411387 -4.999500
v 1.787942 0.411387 -4.993963
v 1.767814 0.411387 -4.987130
v 1.748750 0.411387 -4.977729
v 1.731076 0.411387 -4.965920
v 1.715095 0.411387 -4.951905
v 1.701080 0.411387 -4.935924
v 1.689271 0.411387 -4.918250
v 1.777766 0.994560 -4.990876
v 1.767814 0.994560 -4.987130
v 1.798298 0.994560 -4.996378
v 1.808789 0.994560 -4.998110
v 1.694886 0.974098 -4.927280
v 1.701080 0.974098 -4.935924
v 1.689271 0.974098 -4.918250
v 1.840628 0.953636 -4.999152
v 1.830000 0.953636 -4.999500
v 1.861702 0.953636 -4.996378
v 1.872058 0.953636 -4.993963
v 1.707826 0.933174 -4.944144
v 1.715095 0.933174 -4.951905
v 1.701080 0.933174 -4.935924
v 1.694886 0.933174 -4.927280
v 1.689271 0.933174 -4.918250
v 1.901872 0.912711 -4.982742
v 1.892186 0.912711 -4.987130
v 1.920280 0.912711 -4.972114
v 1.928924 0.912711 -4.965920
v 1.722856 0.892249 -4.959174
v 1.731076 0.892249 -4.965920
v 1.715095 0.892249 -4.951905
v 1.707826 0.892249 -4.944144
v 1.701080 0.892249 -4.935924
v 1.694886 0.892249 -4.927280
v 1.689271 0.892249 -4.918250
v 1.901872 0.871787 -4.982742
v 1.892186 0.871787 -4.987130
v 1.920280 0.871787 -4.972114
v 1.928924 0.871787 -4.965920
v 1.722856 0.851325 -4.959174
v 1.731076 0.851325 -4.965920
v 1.715095 0.851325 -4.951905
v 1.707826 0.851325 -4.944144
v 1.701080 0.851325 -4.935924
v 1.694886 0.851325 -4.927280
v 1.689271 0.851325 -4.918250
v 1.901872 0.830862 -4.982742
v 1.892186 0.830862 -4.987130
v 1.920280 0.830862 -4.972114
v 1.928924 0.830862 -4.965920
v 1.722856 0.810400 -4.959174
v 1.731076 0.810400 -4.965920
v 1.715095 0.810400 -4.951905
v 1.707826 0.810400 -4.944144
v 1.701080 0.810400 -4.935924
v 1.694886 0.810400 -4.927280
v 1.689271 0.810400 -4.918250
v 1.901872 0.789938 -4.982742
v 1.892186 0.789938 -4.987130
v 1.920280 0.789938 -4.972114
v 1.928924 0.789938 -4.965920
v 1.722856 0.769476 -4.959174
v 1.731076 0.769476 -4.965920
v 1.715095 0.769476 -4.951905
v 1.707826 0.769476 -4.944144
v 1.701080 0.769476 -4.935924
v 1.694886 0.769476 -4.927280
v 1.689271 0.769476 -4.918250
v 1.901872 0.749014 -4.982742
v 1.892186 0.749014 -4.987130
v 1.920280 0.749014 -4.972114
v 1.928924 0.749014 -4.965920
v 1.722856 0.728551 -4.959174
v 1.731076 0.728551 -4.965920
v 1.715095 0.728551 -4.951905
v 1.707826 0.728551 -4.944144
v 1.701080 0.728551 -4.935924
v 1.694886 0.728551 -4.927280
v 1.689271 0.728551 -4.918250
v 1.901872 0.708089 -4.982742
v 1.892186 0.708089 -4.987130
v 1.920280 0.708089 -4.972114
v 1.928924 0.708089 -4.965920
v 1.722856 0.687627 -4.959174
v 1.731076 0.687627 -4.965920
v 1.715095 0.687627 -4.951905
v 1.707826 0.687627 -4.944144
v 1.701080 0.687627 -4.935924
v 1.694886 0.687627 -4.927280
v 1.689271 0.687627 -4.918250
v 1.901872 0.667165 -4.982742
v 1.892186 0.667165 -4.987130
v 1.920280 0.667165 -4.972114
v 1.928924 0.667165 -4.965920
v 1.722856 0.646702 -4.959174
v 1.731076 0.646702 -4.965920
v 1.715095 0.646702 -4.951905
v 1.707826 0.646702 -4.944144
v 1.701080 0.646702 -4.935924
v 1.694886 0.646702 -4.927280
v 1.689271 0.646702 -4.918250
v 1.901872 0.626240 -4.982742
v 1.892186 0.626240 -4.987130
v 1.920280 0.626240 -4.972114
v 1.928924 0.626240 -4.965920
v 1.722856 0.605778 -4.959174
v 1.731076 0.605778 -4.965920
v 1.715095 0.605778 -4.951905
v 1.707826 0.605778 -4.944144
v 1.701080 0.605778 -4.935924
v 1.694886 0.605778 -4.927280
v 1.689271 0.605778 -4.918250
v 1.901872 0.585316 -4.982742
v 1.892186 0.585316 -4.987130
v 1.920280 0.585316 -4.972114
v 1.928924 0.585316 -4.965920
v 1.722856 0.564853 -4.959174
v 1.731076 0.564853 -4.965920
v 1.715095 0.564853 -4.951905
v 1.707826 0.564853 -4.944144
v 1.701080 0.564853 -4.935924
v 1.694886 0.564853 -4.927280
v 1.689271 0.564853 -4.918250
v 1.901872 0.544391 -4.982742
v 1.892186 0.544391 -4.987130
v 1.920280 0.544391 -4.972114
v 1.928924 0.544391 -4.965920
v 1.722856 0.523929 -4.959174
v 1.731076 0.523929 -4.965920
v 1.715095 0.523929 -4.951905
v 1.707826 0.523929 -4.944144
v 1.701080 0.523929 -4.935924
v 1.694886 0.523929 -4.927280
v 1.689271 0.523929 -4.918250
v 1.901872 0.503467 -4.982742
v 1.892186 0.503467 -4.987130
v 1.920280 0.503467 -4.972114
v 1.928924 0.503467 -4.965920
v 1.722856 0.483005 -4.959174
v 1.731076 0.483005 -4.965920
v 1.715095 0.483005 -4.951905
v 1.707826 0.483005 -4.944144
v 1.701080 0.483005 -4.935924
v 1.694886 0.483005 -4.927280
v 1.689271 0.483005 -4.918250
v 1.901872 0.462542 -4.982742
v 1.892186 0.462542 -4.987130
v 1.920280 0.462542 -4.972114
v 1.928924 0.462542 -4.965920
v 1.722856 0.442080 -4.959174
v 1.731076 0.442080 -4.965920
v 1.715095 0.442080 -4.951905
v 1.707826 0.442080 -4.944144
v 1.701080 0.442080 -4.935924
v 1.694886 0.442080 -4.927280
v 1.689271 0.442080 -4.918250
v 1.901872 0.421618 -4.982742
v 1.892186 0.421618 -4.987130
v 1.920280 0.421618 -4.972114
v 1.928924 0.421618 -4.965920
v 1.722856 0.401156 -4.959174
v 1.731076 0.401156 -4.965920
v 1.715095 0.401156 -4.951905
v 1.707826 0.401156 -4.944144
v 1.701080 0.401156 -4.935924
v 1.694886 0.401156 -4.927280
v 1.689271 0.401156 -4.918250
v 1.748750 0.994560 -4.977729
v 1.739720 0.994560 -4.972114
v 1.808789 0.953636 -4.998110
v 1.798298 0.953636 -4.996378
v 1.872058 0.912711 -4.993963
v 1.861702 0.912711 -4.996378
v 1.872058 0.871787 -4.993963
v 1.861702 0.871787 -4.996378
v 1.872058 0.830862 -4.993963
v 1.861702 0.830862 -4.996378
v 1.872058 0.789938 -4.993963
v 1.861702 0.789938 -4.996378
v 1.872058 0.749014 -4.993963
v 1.861702 0.749014 -4.996378
v 1.872058 0.708089 -4.993963
v 1.861702 0.708089 -4.996378
v 1.872058 0.667165 -4.993963
v 1.861702 0.667165 -4.996378
v 1.872058 0.626240 -4.993963
v 1.861702 0.626240 -4.996378
v 1.872058 0.585316 -4.993963
v 1.861702 0.585316 -4.996378
v 1.872058 0.544391 -4.993963
v 1.861702 0.544391 -4.996378
v 1.872058 0.503467 -4.993963
v 1.861702 0.503467 -4.996378
v 1.872058 0.462542 -4.993963
v 1.861702 0.462542 -4.996378
v 1.872058 0.421618 -4.993963
v 1.861702 0.421618 -4.996378
v 1.715095 0.994560 -4.951905
v 1.777766 0.953636 -4.990876
v 1.767814 0.953636 -4.987130
v 1.840628 0.912711 -4.999152
v 1.830000 0.912711 -4.999500
v 1.840628 0.871787 -4.999152
v 1.830000 0.871787 -4.999500
v 1.840628 0.830862 -4.999152
v 1.830000 0.830862 -4.999500
v 1.840628 0.789938 -4.999152
v 1.830000 0.789938 -4.999500
v 1.840628 0.749014 -4.999152
v 1.830000 0.749014 -4.999500
v 1.840628 0.708089 -4.999152
v 1.830000 0.708089 -4.999500
v 1.840628 0.667165 -4.999152
v 1.830000 0.667165 -4.999500
v 1.840628 0.626240 -4.999152
v 1.830000 0.626240 -4.999500
v 1.840628 0.585316 -4.999152
v 1.830000 0.585316 -4.999500
v 1.840628 0.544391 -4.999152
v 1.830000 0.544391 -4.999500
v 1.840628 0.503467 -4.999152
v 1.830000 0.503467 -4.999500
v 1.840628 0.462542 -4.999152
v 1.830000 0.462542 -4.999500
v 1.840628 0.421618 -4.999152
v 1.830000 0.421618 -4.999500
v 1.748750 0.953636 -4.977729
v 1.739720 0.953636 -4.972114
v 1.808789 0.912711 -4.998110
v 1.798298 0.912711 -4.996378
v 1.808789 0.871787 -4.998110
v 1.798298 0.871787 -4.996378
v 1.808789 0.830862 -4.998110
v 1.798298 0.830862 -4.996378
v 1.808789 0.789938 -4.998110
v 1.798298 0.789938 -4.996378
v 1.808789 0.749014 -4.998110
v 1.798298 0.749014 -4.996378
v 1.808789 0.708089 -4.998110
v 1.798298 0.708089 -4.996378
v 1.808789 0.667165 -4.998110
v 1.798298 0.667165 -4.996378
v 1.808789 0.626240 -4.998110
v 1.798298 0.626240 -4.996378
v 1.808789 0.585316 -4.998110
v 1.798298 0.585316 -4.996378
v 1.808789 0.544391 -4.998110
v 1.798298 0.544391 -4.996378
v 1.808789 0.503467 -4.998110
v 1.798298 0.503467 -4.996378
v 1.808789 0.462542 -4.998110
v 1.798298 0.462542 -4.996378
v 1.808789 0.421618 -4.998110
v 1.798298 0.421618 -4.996378
v 1.715095 0.953636 -4.951905
v 1.777766 0.912711 -4.990876
v 1.767814 0.912711 -4.987130
v 1.777766 0.871787 -4.990876
v 1.767814 0.871787 -4.987130
v 1.777766 0.830862 -4.990876
v 1.767814 0.830862 -4.987130
v 1.777766 0.789938 -4.990876
v 1.767814 0.789938 -4.987130
v 1.777766 0.749014 -4.990876
v 1.767814 0.749014 -4.987130
v 1.777766 0.708089 -4.990876
v 1.767814 0.708089 -4.987130
v 1.777766 0.667165 -4.990876
v 1.767814 0.667165 -4.987130
v 1.777766 0.626240 -4.990876
v 1.767814 0.626240 -4.987130
v 1.777766 0.585316 -4.990876
v 1.767814 0.585316 -4.987130
v 1.777766 0.544391 -4.990876
v 1.767814 0.544391 -4.987130
v 1.777766 0.503467 -4.990876
v 1.767814 0.503467 -4.987130
v 1.777766 0.462542 -4.990876
v 1.767814 0.462542 -4.987130
v 1.777766 0.421618 -4.990876
v 1.767814 0.421618 -4.987130
v 1.748750 0.912711 -4.977729
v 1.739720 0.912711 -4.972114
v 1.748750 0.871787 -4.977729
v 1.739720 0.871787 -4.972114
v 1.748750 0.830862 -4.977729
v 1.739720 0.830862 -4.972114
v 1.748750 0.789938 -4.977729
v 1.739720 0.789938 -4.972114
v 1.748750 0.749014 -4.977729
v 1.739720 0.749014 -4.972114
v 1.748750 0.708089 -4.977729
v 1.739720 0.708089 -4.972114
v 1.748750 0.667165 -4.977729
v 1.739720 0.667165 -4.972114
v 1.748750 0.626240 -4.977729
v 1.739720 0.626240 -4.972114
v 1.748750 0.585316 -4.977729
v 1.739720 0.585316 -4.972114
v 1.748750 0.544391 -4.977729
v 1.739720 0.544391 -4.972114
v 1.748750 0.503467 -4.977729
v 1.739720 0.503467 -4.972114
v 1.748750 0.462542 -4.977729
v 1.739720 0.462542 -4.972114
v 1.748750 0.421618 -4.977729
v 1.739720 0.421618 -4.972114
v 1.715095 0.912711 -4.951905
v 1.715095 0.871787 -4.951905
v 1.715095 0.830862 -4.951905
v 1.715095 0.789938 -4.951905
v 1.715095 0.749014 -4.951905
v 1.715095 0.708089 -4.951905
v 1.715095 0.667165 -4.951905
v 1.715095 0.626240 -4.951905
v 1.715095 0.585316 -4.951905
v 1.715095 0.544391 -4.951905
v 1.715095 0.503467 -4.951905
v 1.715095 0.462542 -4.951905
v 1.715095 0.421618 -4.951905
f 1 2 3
f 1 3 4
f 1 4 5
f 1 5 6
f 1 6 7
f 1 7 8
f 1 8 9
f 1 9 10
f 1 10 11
f 1 11 12
f 1 12 13
f 1 13 14
f 1 14 15
f 1 15 16
f 1 16 17
f 1 17 18
f 1 18 19
f 1 19 20
f 1 20 21
f 1 21 22
f 1 22 23
f 1 23 24
f 1 24 25
f 1 25 26
f 1 26 27
f 1 27 28
f 1 28 2
f 29 30 2
f 2 31 32
f 32 33 34
f 34 35 36
f 36 37 38
f 38 39 40
f 40 41 42
f 42 43 44
f 44 45 46
f 46 47 48
f 48 49 50
f 50 51 52
f 52 53 54
f 54 55 56
f 56 57 58
f 58 59 60
f 60 61 62
f 62 63 64
f 64 65 66
f 66 67 68
f 68 69 70
f 70 71 72
f 72 73 74
f 74 75 76
f 76 77 78
f 78 79 80
f 80 81 82
f 83 84 85
f 87 392 261
f 260 391 392
f 392 87 391
f 261 394 393
f 394 88 393
f 261 393 260
f 87 391 389
f 391 260 389
f 87 389 86
f 90 399 266
f 265 398 399
f 399 90 398
f 266 401 400
f 401 91 400
f 266 400 265
f 90 398 396
f 398 265 396
f 90 396 89
f 93 408 273
f 272 407 408
f 408 93 407
f 273 410 409
f 410 94 409
f 273 409 272
f 93 407 405
f 407 272 405
f 93 405 92
f 96 419 282
f 281 418 419
f 419 96 418
f 282 421 420
f 421 97 420
f 282 420 281
f 96 418 416
f 418 281 416
f 96 416 95
f 99 430 291
f 290 429 430
f 430 99 429
f 291 432 431
f 432 100 431
f 291 431 290
f 99 429 427
f 429 290 427
f 99 427 98
f 102 441 300
f 299 440 441
f 441 102 440
f 300 443 442
f 443 103 442
f 300 442 299
f 102 440 438
f 440 299 438
f 102 438 101
f 105 452 309
f 308 451 452
f 452 105 451
f 309 454 453
f 454 106 453
f 309 453 308
f 105 451 449
f 451 308 449
f 105 449 104
f 108 463 318
f 317 462 463
f 463 108 462
f 318 465 464
f 465 109 464
f 318 464 317
f 108 462 460
f 462 317 460
f 108 460 107
f 111 474 327
f 326 473 474
f 474 111 473
f 327 476 475
f 476 112 475
f 327 475 326
f 111 473 471
f 473 326 471
f 111 471 110
f 114 485 336
f 335 484 485
f 485 114 484
f 336 487 486
f 487 115 486
f 336 486 335
f 114 484 482
f 484 335 482
f 114 482 113
f 117 496 345
f 344 495 496
f 496 117 495
f 345 498 497
f 498 118 497
f 345 497 344
f 117 495 493
f 495 344 493
f 117 493 116
f 120 507 354
f 353 506 507
f 507 120 506
f 354 509 508
f 509 121 508
f 354 508 353
f 120 506 504
f 506 353 504
f 120 504 119
f 123 518 363
f 362 517 518
f 518 123 517
f 363 520 519
f 520 124 519
f 363 519 362
f 123 517 515
f 517 362 515
f 123 515 122
f 126 529 372
f 371 528 529
f 529 126 528
f 372 531 530
f 531 127 530
f 372 530 371
f 126 528 526
f 528 371 526
f 126 526 125
f 129 540 381
f 380 539 540
f 540 129 539
f 381 542 541
f 542 130 541
f 381 541 380
f 129 539 537
f 539 380 537
f 129 537 128
f 131 29 2
f 2 32 34
f 34 36 38
f 38 40 42
f 42 44 46
f 46 48 50
f 50 52 54
f 54 56 58
f 58 60 62
f 62 64 66
f 66 68 70
f 70 72 74
f 74 76 78
f 78 80 82
f 132 83 85
f 86 389 260
f 262 390 389
f 389 86 390
f 260 393 395
f 393 88 395
f 260 395 262
f 86 390 548
f 390 262 548
f 86 548 133
f 89 396 265
f 267 397 396
f 396 89 397
f 265 400 402
f 400 91 402
f 265 402 267
f 89 397 550
f 397 267 550
f 89 550 134
f 92 405 272
f 274 406 405
f 405 92 406
f 272 409 411
f 409 94 411
f 272 411 274
f 92 406 552
f 406 274 552
f 92 552 135
f 95 416 281
f 283 417 416
f 416 95 417
f 281 420 422
f 420 97 422
f 281 422 283
f 95 417 554
f 417 283 554
f 95 554 136
f 98 427 290
f 292 428 427
f 427 98 428
f 290 431 433
f 431 100 433
f 290 433 292
f 98 428 556
f 428 292 556
f 98 556 137
f 101 438 299
f 301 439 438
f 438 101 439
f 299 442 444
f 442 103 444
f 299 444 301
f 101 439 558
f 439 301 558
f 101 558 138
f 104 449 308
f 310 450 449
f 449 104 450
f 308 453 455
f 453 106 455
f 308 455 310
f 104 450 560
f 450 310 560
f 104 560 139
f 107 460 317
f 319 461 460
f 460 107 461
f 317 464 466
f 464 109 466
f 317 466 319
f 107 461 562
f 461 319 562
f 107 562 140
f 110 471 326
f 328 472 471
f 471 110 472
f 326 475 477
f 475 112 477
f 326 477 328
f 110 472 564
f 472 328 564
f 110 564 141
f 113 482 335
f 337 483 482
f 482 113 483
f 335 486 488
f 486 115 488
f 335 488 337
f 113 483 566
f 483 337 566
f 113 566 142
f 116 493 344
f 346 494 493
f 493 116 494
f 344 497 499
f 497 118 499
f 344 499 346
f 116 494 568
f 494 346 568
f 116 568 143
f 119 504 353
f 355 505 504
f 504 119 505
f 353 508 510
f 508 121 510
f 353 510 355
f 119 505 570
f 505 355 570
f 119 570 144
f 122 515 362
f 364 516 515
f 515 122 516
f 362 519 521
f 519 124 521
f 362 521 364
f 122 516 572
f 516 364 572
f 122 572 145
f 125 526 371
f 373 527 526
f 526 125 527
f 371 530 532
f 530 127 532
f 371 532 373
f 125 527 574
f 527 373 574
f 125 574 146
f 128 537 380
f 382 538 537
f 537 128 538
f 380 541 543
f 541 130 543
f 380 543 382
f 128 538 576
f 538 382 576
f 128 576 147
f 148 131 2
f 34 38 42
f 42 46 50
f 50 54 58
f 58 62 66
f 66 70 74
f 74 78 82
f 149 132 85
f 133 548 262
f 263 549 548
f 548 133 549
f 262 395 263
f 395 88 263
f 133 549 150
f 549 263 150
f 134 550 267
f 268 551 550
f 550 134 551
f 267 402 403
f 402 91 403
f 267 403 268
f 134 551 579
f 551 268 579
f 134 579 151
f 135 552 274
f 275 553 552
f 552 135 553
f 274 411 412
f 411 94 412
f 274 412 275
f 135 553 581
f 553 275 581
f 135 581 152
f 136 554 283
f 284 555 554
f 554 136 555
f 283 422 423
f 422 97 423
f 283 423 284
f 136 555 583
f 555 284 583
f 136 583 153
f 137 556 292
f 293 557 556
f 556 137 557
f 292 433 434
f 433 100 434
f 292 434 293
f 137 557 585
f 557 293 585
f 137 585 154
f 138 558 301
f 302 559 558
f 558 138 559
f 301 444 445
f 444 103 445
f 301 445 302
f 138 559 587
f 559 302 587
f 138 587 155
f 139 560 310
f 311 561 560
f 560 139 561
f 310 455 456
f 455 106 456
f 310 456 311
f 139 561 589
f 561 311 589
f 139 589 156
f 140 562 319
f 320 563 562
f 562 140 563
f 319 466 467
f 466 109 467
f 319 467 320
f 140 563 591
f 563 320 591
f 140 591 157
f 141 564 328
f 329 565 564
f 564 141 565
f 328 477 478
f 477 112 478
f 328 478 329
f 141 565 593
f 565 329 593
f 141 593 158
f 142 566 337
f 338 567 566
f 566 142 567
f 337 488 489
f 488 115 489
f 337 489 338
f 142 567 595
f 567 338 595
f 142 595 159
f 143 568 346
f 347 569 568
f 568 143 569
f 346 499 500
f 499 118 500
f 346 500 347
f 143 569 597
f 569 347 597
f 143 597 160
f 144 570 355
f 356 571 570
f 570 144 571
f 355 510 511
f 510 121 511
f 355 511 356
f 144 571 599
f 571 356 599
f 144 599 161
f 145 572 364
f 365 573 572
f 572 145 573
f 364 521 522
f 521 124 522
f 364 522 365
f 145 573 601
f 573 365 601
f 145 601 162
f 146 574 373
f 374 575 574
f 574 146 575
f 373 532 533
f 532 127 533
f 373 533 374
f 146 575 603
f 575 374 603
f 146 603 163
f 147 576 382
f 383 577 576
f 576 147 577
f 382 543 544
f 543 130 544
f 382 544 383
f 147 577 605
f 577 383 605
f 147 605 164
f 165 148 2
f 34 42 50
f 50 58 66
f 66 74 82
f 82 149 85
f 264 578 263
f 578 150 263
f 263 88 264
f 150 578 166
f 578 264 166
f 151 579 268
f 269 580 579
f 579 151 580
f 268 403 404
f 403 91 404
f 268 404 269
f 151 580 607
f 580 269 607
f 151 607 167
f 152 581 275
f 276 582 581
f 581 152 582
f 275 412 413
f 412 94 413
f 275 413 276
f 152 582 609
f 582 276 609
f 152 609 168
f 153 583 284
f 285 584 583
f 583 153 584
f 284 423 424
f 423 97 424
f 284 424 285
f 153 584 611
f 584 285 611
f 153 611 169
f 154 585 293
f 294 586 585
f 585 154 586
f 293 434 435
f 434 100 435
f 293 435 294
f 154 586 613
f 586 294 613
f 154 613 170
f 155 587 302
f 303 588 587
f 587 155 588
f 302 445 446
f 445 103 446
f 302 446 303
f 155 588 615
f 588 303 615
f 155 615 171
f 156 589 311
f 312 590 589
f 589 156 590
f 311 456 457
f 456 106 457
f 311 457 312
f 156 590 617
f 590 312 617
f 156 617 172
f 157 591 320
f 321 592 591
f 591 157 592
f 320 467 468
f 467 109 468
f 320 468 321
f 157 592 619
f 592 321 619
f 157 619 173
f 158 593 329
f 330 594 593
f 593 158 594
f 329 478 479
f 478 112 479
f 329 479 330
f 158 594 621
f 594 330 621
f 158 621 174
f 159 595 338
f 339 596 595
f 595 159 596
f 338 489 490
f 489 115 490
f 338 490 339
f 159 596 623
f 596 339 623
f 159 623 175
f 160 597 347
f 348 598 597
f 597 160 598
f 347 500 501
f 500 118 501
f 347 501 348
f 160 598 625
f 598 348 625
f 160 625 176
f 161 599 356
f 357 600 599
f 599 161 600
f 356 511 512
f 511 121 512
f 356 512 357
f 161 600 627
f 600 357 627
f 161 627 177
f 162 601 365
f 366 602 601
f 601 162 602
f 365 522 523
f 522 124 523
f 365 523 366
f 162 602 629
f 602 366 629
f 162 629 178
f 163 603 374
f 375 604 603
f 603 163 604
f 374 533 534
f 533 127 534
f 374 534 375
f 163 604 631
f 604 375 631
f 163 631 179
f 164 605 383
f 384 606 605
f 605 164 606
f 383 544 545
f 544 130 545
f 383 545 384
f 164 606 633
f 606 384 633
f 164 633 180
f 181 165 2
f 34 50 66
f 66 82 85
f 166 264 182
f 264 88 182
f 167 607 269
f 270 608 607
f 607 167 608
f 269 404 270
f 404 91 270
f 167 608 183
f 608 270 183
f 168 609 276
f 277 610 609
f 609 168 610
f 276 413 414
f 413 94 414
f 276 414 277
f 168 610 636
f 610 277 636
f 168 636 184
f 169 611 285
f 286 612 611
f 611 169 612
f 285 424 425
f 424 97 425
f 285 425 286
f 169 612 638
f 612 286 638
f 169 638 185
f 170 613 294
f 295 614 613
f 613 170 614
f 294 435 436
f 435 100 436
f 294 436 295
f 170 614 640
f 614 295 640
f 170 640 186
f 171 615 303
f 304 616 615
f 615 171 616
f 303 446 447
f 446 103 447
f 303 447 304
f 171 616 642
f 616 304 642
f 171 642 187
f 172 617 312
f 313 618 617
f 617 172 618
f 312 457 458
f 457 106 458
f 312 458 313
f 172 618 644
f 618 313 644
f 172 644 188
f 173 619 321
f 322 620 619
f 619 173 620
f 321 468 469
f 468 109 469
f 321 469 322
f 173 620 646
f 620 322 646
f 173 646 189
f 174 621 330
f 331 622 621
f 621 174 622
f 330 479 480
f 479 112 480
f 330 480 331
f 174 622 648
f 622 331 648
f 174 648 190
f 175 623 339
f 340 624 623
f 623 175 624
f 339 490 491
f 490 115 491
f 339 491 340
f 175 624 650
f 624 340 650
f 175 650 191
f 176 625 348
f 349 626 625
f 625 176 626
f 348 501 502
f 501 118 502
f 348 502 349
f 176 626 652
f 626 349 652
f 176 652 192
f 177 627 357
f 358 628 627
f 627 177 628
f 357 512 513
f 512 121 513
f 357 513 358
f 177 628 654
f 628 358 654
f 177 654 193
f 178 629 366
f 367 630 629
f 629 178 630
f 366 523 524
f 523 124 524
f 366 524 367
f 178 630 656
f 630 367 656
f 178 656 194
f 179 631 375
f 376 632 631
f 631 179 632
f 375 534 535
f 534 127 535
f 375 535 376
f 179 632 658
f 632 376 658
f 179 658 195
f 180 633 384
f 385 634 633
f 633 180 634
f 384 545 546
f 545 130 546
f 384 546 385
f 180 634 660
f 634 385 660
f 180 660 196
f 197 181 2
f 66 85 198
f 271 635 270
f 635 183 270
f 270 91 271
f 183 635 199
f 635 271 199
f 184 636 277
f 278 637 636
f 636 184 637
f 277 414 415
f 414 94 415
f 277 415 278
f 184 637 662
f 637 278 662
f 184 662 200
f 185 638 286
f 287 639 638
f 638 185 639
f 286 425 426
f 425 97 426
f 286 426 287
f 185 639 664
f 639 287 664
f 185 664 201
f 186 640 295
f 296 641 640
f 640 186 641
f 295 436 437
f 436 100 437
f 295 437 296
f 186 641 666
f 641 296 666
f 186 666 202
f 187 642 304
f 305 643 642
f 642 187 643
f 304 447 448
f 447 103 448
f 304 448 305
f 187 643 668
f 643 305 668
f 187 668 203
f 188 644 313
f 314 645 644
f 644 188 645
f 313 458 459
f 458 106 459
f 313 459 314
f 188 645 670
f 645 314 670
f 188 670 204
f 189 646 322
f 323 647 646
f 646 189 647
f 322 469 470
f 469 109 470
f 322 470 323
f 189 647 672
f 647 323 672
f 189 672 205
f 190 648 331
f 332 649 648
f 648 190 649
f 331 480 481
f 480 112 481
f 331 481 332
f 190 649 674
f 649 332 674
f 190 674 206
f 191 650 340
f 341 651 650
f 650 191 651
f 340 491 492
f 491 115 492
f 340 492 341
f 191 651 676
f 651 341 676
f 191 676 207
f 192 652 349
f 350 653 652
f 652 192 653
f 349 502 503
f 502 118 503
f 349 503 350
f 192 653 678
f 653 350 678
f 192 678 208
f 193 654 358
f 359 655 654
f 654 193 655
f 358 513 514
f 513 121 514
f 358 514 359
f 193 655 680
f 655 359 680
f 193 680 209
f 194 656 367
f 368 657 656
f 656 194 657
f 367 524 525
f 524 124 525
f 367 525 368
f 194 657 682
f 657 368 682
f 194 682 210
f 195 658 376
f 377 659 658
f 658 195 659
f 376 535 536
f 535 127 536
f 376 536 377
f 195 659 684
f 659 377 684
f 195 684 211
f 196 660 385
f 386 661 660
f 660 196 661
f 385 546 547
f 546 130 547
f 385 547 386
f 196 661 686
f 661 386 686
f 196 686 212
f 213 197 2
f 66 198 214
f 199 271 215
f 271 91 215
f 200 662 278
f 279 663 662
f 662 200 663
f 278 415 279
f 415 94 279
f 200 663 216
f 663 279 216
f 201 664 287
f 288 665 664
f 664 201 665
f 287 426 288
f 426 97 288
f 201 665 217
f 665 288 217
f 202 666 296
f 297 667 666
f 666 202 667
f 296 437 297
f 437 100 297
f 202 667 218
f 667 297 218
f 203 668 305
f 306 669 668
f 668 203 669
f 305 448 306
f 448 103 306
f 203 669 219
f 669 306 219
f 204 670 314
f 315 671 670
f 670 204 671
f 314 459 315
f 459 106 315
f 204 671 220
f 671 315 220
f 205 672 323
f 324 673 672
f 672 205 673
f 323 470 324
f 470 109 324
f 205 673 221
f 673 324 221
f 206 674 332
f 333 675 674
f 674 206 675
f 332 481 333
f 481 112 333
f 206 675 222
f 675 333 222
f 207 676 341
f 342 677 676
f 676 207 677
f 341 492 342
f 492 115 342
f 207 677 223
f 677 342 223
f 208 678 350
f 351 679 678
f 678 208 679
f 350 503 351
f 503 118 351
f 208 679 224
f 679 351 224
f 209 680 359
f 360 681 680
f 680 209 681
f 359 514 360
f 514 121 360
f 209 681 225
f 681 360 225
f 210 682 368
f 369 683 682
f 682 210 683
f 368 525 369
f 525 124 369
f 210 683 226
f 683 369 226
f 211 684 377
f 378 685 684
f 684 211 685
f 377 536 378
f 536 127 378
f 211 685 227
f 685 378 227
f 212 686 386
f 387 687 686
f 686 212 687
f 386 547 387
f 547 130 387
f 212 687 228
f 687 387 228
f 229 213 2
f 66 214 230
f 88 215 91
f 280 688 279
f 688 216 279
f 279 94 280
f 216 688 231
f 688 280 231
f 289 689 288
f 689 217 288
f 288 97 289
f 217 689 232
f 689 289 232
f 298 690 297
f 690 218 297
f 297 100 298
f 218 690 233
f 690 298 233
f 307 691 306
f 691 219 306
f 306 103 307
f 219 691 234
f 691 307 234
f 316 692 315
f 692 220 315
f 315 106 316
f 220 692 235
f 692 316 235
f 325 693 324
f 693 221 324
f 324 109 325
f 221 693 236
f 693 325 236
f 334 694 333
f 694 222 333
f 333 112 334
f 222 694 237
f 694 334 237
f 343 695 342
f 695 223 342
f 342 115 343
f 223 695 238
f 695 343 238
f 352 696 351
f 696 224 351
f 351 118 352
f 224 696 239
f 696 352 239
f 361 697 360
f 697 225 360
f 360 121 361
f 225 697 240
f 697 361 240
f 370 698 369
f 698 226 369
f 369 124 370
f 226 698 241
f 698 370 241
f 379 699 378
f 699 227 378
f 378 127 379
f 227 699 242
f 699 379 242
f 388 700 387
f 700 228 387
f 387 130 388
f 228 700 243
f 700 388 243
f 244 229 2
f 66 230 245
f 231 280 246
f 280 94 246
f 232 289 247
f 289 97 247
f 233 298 248
f 298 100 248
f 234 307 249
f 307 103 249
f 235 316 250
f 316 106 250
f 236 325 251
f 325 109 251
f 237 334 252
f 334 112 252
f 238 343 253
f 343 115 253
f 239 352 254
f 352 118 254
f 240 361 255
f 361 121 255
f 241 370 256
f 370 124 256
f 242 379 257
f 379 127 257
f 243 388 258
f 388 130 258
f 130 244 2
f 66 245 259
f 91 246 94
f 94 247 97
f 97 248 100
f 100 249 103
f 103 250 106
f 106 251 109
f 109 252 112
f 112 253 115
f 115 254 118
f 118 255 121
f 121 256 124
f 124 257 127
f 127 258 130
f 130 2 34
f 127 130 34
f 66 259 28
f 124 127 34
f 121 124 34
f 118 121 34
f 115 118 34
f 112 115 34
f 66 28 182
f 109 112 34
f 34 66 182
f 106 109 34
f 34 182 88
f 103 106 34
f 34 88 91
f 100 103 34
f 34 91 94
f 97 100 34
f 34 94 97
