v 0.305000 0.808203 -6.538000
v 0.305000 0.457930 -6.538000
v 0.305000 0.435732 -6.663893
v 0.305000 0.440854 -6.663321
v 0.305000 0.445975 -6.662743
v 0.305000 0.451095 -6.662158
v 0.305000 0.456214 -6.661566
v 0.305000 0.461333 -6.660967
v 0.305000 0.466451 -6.660362
v 0.305000 0.471568 -6.659750
v 0.305000 0.476685 -6.659131
v 0.305000 0.481800 -6.658506
v 0.305000 0.486915 -6.657874
v 0.305000 0.492029 -6.657236
v 0.305000 0.497142 -6.656590
v 0.305000 0.502254 -6.655938
v 0.305000 0.507365 -6.655280
v 0.305000 0.512476 -6.654614
v 0.305000 0.517585 -6.653942
v 0.305000 0.522694 -6.653264
v 0.305000 0.527802 -6.652579
v 0.305000 0.532909 -6.651887
v 0.305000 0.538015 -6.651188
v 0.305000 0.543120 -6.650483
v 0.305000 0.548224 -6.649771
v 0.305000 0.553327 -6.649052
v 0.305000 0.558429 -6.648327
v 0.305000 0.563531 -6.647595
v 0.305000 0.568631 -6.646856
v 0.305000 0.573731 -6.646111
v 0.305000 0.578829 -6.645359
v 0.305000 0.583926 -6.644601
v 0.305000 0.589023 -6.643836
v 0.305000 0.594118 -6.643064
v 0.305000 0.599213 -6.642285
v 0.305000 0.604306 -6.641500
v 0.305000 0.609399 -6.640708
v 0.305000 0.614490 -6.639910
v 0.305000 0.619580 -6.639105
v 0.305000 0.624670 -6.638293
v 0.305000 0.629758 -6.637475
v 0.305000 0.634845 -6.636650
v 0.305000 0.639931 -6.635818
v 0.305000 0.645016 -6.634980
v 0.305000 0.650100 -6.634135
v 0.305000 0.655182 -6.633284
v 0.305000 0.660264 -6.632426
v 0.305000 0.665345 -6.631561
v 0.305000 0.670424 -6.630690
v 0.305000 0.675502 -6.629812
v 0.305000 0.680579 -6.628927
v 0.305000 0.685655 -6.628036
v 0.305000 0.690730 -6.627138
v 0.305000 0.695804 -6.626233
v 0.305000 0.700876 -6.625322
v 0.305000 0.705947 -6.624404
v 0.305000 0.711017 -6.623480
v 0.305000 0.716086 -6.622549
v 0.305000 0.721154 -6.621611
v 0.305000 0.726220 -6.620667
v 0.305000 0.731285 -6.619716
v 0.305000 0.736349 -6.618759
v 0.305000 0.741411 -6.617795
v 0.305000 0.746473 -6.616824
v 0.305000 0.751533 -6.615847
v 0.305000 0.756592 -6.614863
v 0.305000 0.758284 -6.614503
v 0.305000 0.759962 -6.614084
v 0.305000 0.761625 -6.613607
v 0.305000 0.763271 -6.613073
v 0.305000 0.764897 -6.612482
v 0.305000 0.766501 -6.611836
v 0.305000 0.768082 -6.611134
v 0.305000 0.769638 -6.610378
v 0.305000 0.771167 -6.609569
v 0.305000 0.772667 -6.608707
v 0.305000 0.774137 -6.607794
v 0.305000 0.775574 -6.606830
v 0.305000 0.776976 -6.605818
v 0.305000 0.778343 -6.604757
v 0.305000 0.779672 -6.603650
v 0.305000 0.780963 -6.602498
v 0.305000 0.782212 -6.601301
v 0.305000 0.783420 -6.600062
v 0.305000 0.784584 -6.598783
v 0.305000 0.785702 -6.597463
v 0.305000 0.786775 -6.596106
v 0.305000 0.787800 -6.594712
v 0.305000 0.788776 -6.593284
v 0.305000 0.789702 -6.591823
v 0.305000 0.790577 -6.590330
v 0.305000 0.791400 -6.588809
v 0.305000 0.792170 -6.587259
v 0.305000 0.792886 -6.585684
v 0.305000 0.793547 -6.584086
v 0.305000 0.794152 -6.582465
v 0.305000 0.794700 -6.580824
f 1 3 2
f 1 4 3
f 1 5 4
f 1 6 5
f 1 7 6
f 1 8 7
f 1 9 8
f 1 10 9
f 1 11 10
f 1 12 11
f 1 13 12
f 1 14 13
f 1 15 14
f 1 16 15
f 1 17 16
f 1 18 17
f 1 19 18
f 1 20 19
f 1 21 20
f 1 22 21
f 1 23 22
f 1 24 23
f 1 25 24
f 1 26 25
f 1 27 26
f 1 28 27
f 1 29 28
f 1 30 29
f 1 31 30
f 1 32 31
f 1 33 32
f 1 34 33
f 1 35 34
f 1 36 35
f 1 37 36
f 1 38 37
f 1 39 38
f 1 40 39
f 1 41 40
f 1 42 41
f 1 43 42
f 1 44 43
f 1 45 44
f 1 46 45
f 1 47 46
f 1 48 47
f 1 49 48
f 1 50 49
f 1 51 50
f 1 52 51
f 1 53 52
f 1 54 53
f 1 55 54
f 1 56 55
f 1 57 56
f 1 58 57
f 1 59 58
f 1 60 59
f 1 61 60
f 1 62 61
f 1 63 62
f 1 64 63
f 1 65 64
f 1 66 65
f 1 67 66
f 1 68 67
f 1 69 68
f 1 70 69
f 1 71 70
f 1 72 71
f 1 73 72
f 1 74 73
f 1 75 74
f 1 76 75
f 1 77 76
f 1 78 77
f 1 79 78
f 1 80 79
f 1 81 80
f 1 82 81
f 1 83 82
f 1 84 83
f 1 85 84
f 1 86 85
f 1 87 86
f 1 88 87
f 1 89 88
f 1 90 89
f 1 91 90
f 1 92 91
f 1 93 92
f 1 94 93
f 1 95 94
f 1 96 95
f 1 97 96
