v 0.371548 -0.563540 -0.825000
v 0.379886 -0.557953 -0.825000
v 0.388140 -0.552243 -0.825000
v 0.396309 -0.546410 -0.825000
v 0.404389 -0.540457 -0.825000
v 0.412381 -0.534385 -0.825000
v 0.420281 -0.528194 -0.825000
v 0.428088 -0.521886 -0.825000
v 0.435801 -0.515464 -0.825000
v 0.443417 -0.508927 -0.825000
v 0.450935 -0.502277 -0.825000
v 0.458354 -0.495517 -0.825000
v 0.465671 -0.488647 -0.825000
v 0.472885 -0.481669 -0.825000
v 0.479995 -0.474584 -0.825000
v 0.486998 -0.467395 -0.825000
v 0.371548 -0.563540 -0.036213
v 0.379886 -0.557953 -0.036213
v 0.388140 -0.552243 -0.036213
v 0.396309 -0.546410 -0.036213
v 0.404389 -0.540457 -0.036213
v 0.412381 -0.534385 -0.036213
v 0.420281 -0.528194 -0.036213
v 0.428088 -0.521886 -0.036213
v 0.435801 -0.515464 -0.036213
v 0.443417 -0.508927 -0.036213
v 0.450935 -0.502277 -0.036213
v 0.458354 -0.495517 -0.036213
v 0.465671 -0.488647 -0.036213
v 0.472885 -0.481669 -0.036213
v 0.479995 -0.474584 -0.036213
v 0.486998 -0.467395 -0.036213
f 1 2 18
f 1 18 17
f 2 3 19
f 2 19 18
f 3 4 20
f 3 20 19
f 4 5 21
f 4 21 20
f 5 6 22
f 5 22 21
f 6 7 23
f 6 23 22
f 7 8 24
f 7 24 23
f 8 9 25
f 8 25 24
f 9 10 26
f 9 26 25
f 10 11 27
f 10 27 26
f 11 12 28
f 11 28 27
f 12 13 29
f 12 29 28
f 13 14 30
f 13 30 29
f 14 15 31
f 14 31 30
f 15 16 32
f 15 32 31
