v 1.674454 -0.559197 -6.399717
v 1.675872 -0.538994 -6.402184
v 1.675169 -0.549097 -6.400962
v 1.676560 -0.528887 -6.403384
v 1.677236 -0.518776 -6.404561
v 1.677899 -0.508662 -6.405715
v 1.678549 -0.498545 -6.406846
v 1.679185 -0.488424 -6.407955
v 1.679809 -0.478300 -6.409041
v 1.680419 -0.468173 -6.410105
v 1.681017 -0.458042 -6.411145
v 1.681601 -0.447908 -6.412163
v 1.682172 -0.437772 -6.413158
v 1.682730 -0.427632 -6.414131
v 1.683275 -0.417490 -6.415080
v 1.683807 -0.407344 -6.416007
v 1.684326 -0.397196 -6.416911
v 1.684831 -0.387045 -6.417792
v 1.685324 -0.376892 -6.418651
v 1.685803 -0.366736 -6.419487
v 1.686270 -0.356578 -6.420299
v 1.686723 -0.346417 -6.421089
v 1.687163 -0.336253 -6.421856
v 1.687590 -0.326088 -6.422601
v 1.688004 -0.315920 -6.423322
v 1.688404 -0.305750 -6.424021
v 1.688792 -0.295578 -6.424697
v 1.689166 -0.285404 -6.425350
v 1.689528 -0.275228 -6.425980
v 1.689876 -0.265050 -6.426587
v 1.690211 -0.254871 -6.427171
v 1.690533 -0.244690 -6.427733
v 1.690842 -0.234507 -6.428271
v 1.673918 -0.559470 -6.402352
v 1.673309 -0.559736 -6.404973
v 1.672631 -0.559995 -6.407577
v 1.671881 -0.560246 -6.410163
v 1.671062 -0.560490 -6.412728
v 1.670174 -0.560727 -6.415270
v 1.669218 -0.560955 -6.417789
v 1.668193 -0.561176 -6.420281
v 1.667102 -0.561389 -6.422745
v 1.665944 -0.561593 -6.425180
v 1.690368 -0.244726 -6.428542
v 1.689873 -0.254946 -6.428791
v 1.689360 -0.265168 -6.429015
v 1.688826 -0.275391 -6.429217
v 1.688273 -0.285614 -6.429395
v 1.687700 -0.295838 -6.429550
v 1.687108 -0.306063 -6.429681
v 1.686496 -0.316288 -6.429789
v 1.685864 -0.326514 -6.429873
v 1.685212 -0.336740 -6.429933
v 1.684541 -0.346966 -6.429970
v 1.683851 -0.357193 -6.429983
v 1.683140 -0.367419 -6.429972
v 1.682411 -0.377646 -6.429937
v 1.681661 -0.387872 -6.429879
v 1.680892 -0.398098 -6.429796
v 1.680104 -0.408324 -6.429690
v 1.679296 -0.418549 -6.429559
v 1.678468 -0.428773 -6.429404
v 1.677621 -0.438997 -6.429226
v 1.676755 -0.449220 -6.429023
v 1.675869 -0.459442 -6.428795
v 1.674963 -0.469664 -6.428544
v 1.674039 -0.479884 -6.428268
v 1.673094 -0.490103 -6.427968
v 1.672131 -0.500320 -6.427643
v 1.671148 -0.510536 -6.427294
v 1.670146 -0.520751 -6.426920
v 1.669124 -0.530964 -6.426522
v 1.668083 -0.541176 -6.426099
v 1.667023 -0.551385 -6.425652
v 1.691420 -0.214136 -6.429280
v 1.691138 -0.224322 -6.428787
v 1.691689 -0.203948 -6.429749
v 1.691946 -0.193760 -6.430196
v 1.692189 -0.183569 -6.430621
v 1.692419 -0.173378 -6.431022
v 1.692636 -0.163185 -6.431400
v 1.692839 -0.152992 -6.431755
v 1.693030 -0.142797 -6.432088
v 1.693207 -0.132601 -6.432397
v 1.693372 -0.122405 -6.432684
v 1.693523 -0.112207 -6.432948
v 1.693661 -0.102009 -6.433188
v 1.693786 -0.091810 -6.433406
v 1.693898 -0.081611 -6.433601
v 1.693996 -0.071411 -6.433773
v 1.694082 -0.061210 -6.433922
v 1.694154 -0.051009 -6.434048
v 1.694213 -0.040808 -6.434152
v 1.694259 -0.030606 -6.434232
v 1.694292 -0.020404 -6.434289
v 1.694312 -0.010202 -6.434324
v 1.694318 0.000000 -6.434335
v 1.693130 0.000000 -6.439496
v 1.691670 0.000000 -6.444587
v 1.689943 0.000000 -6.449593
v 1.687953 0.000000 -6.454501
v 1.685706 0.000000 -6.459296
v 1.683208 0.000000 -6.463966
v 1.680466 0.000000 -6.468497
v 1.677489 0.000000 -6.472877
v 1.674284 0.000000 -6.477093
v 1.670860 0.000000 -6.481133
v 1.664721 -0.561788 -6.427583
v 1.663433 -0.561975 -6.429953
v 1.662082 -0.562154 -6.432288
v 1.660668 -0.562323 -6.434586
v 1.659193 -0.562483 -6.436846
v 1.657657 -0.562635 -6.439066
v 1.656062 -0.562777 -6.441244
v 1.654408 -0.562909 -6.443379
v 1.652698 -0.563033 -6.445469
v 1.650932 -0.563146 -6.447513
v 1.670861 -0.010271 -6.481113
v 1.670848 -0.020543 -6.481072
v 1.670821 -0.030814 -6.481009
v 1.670782 -0.041085 -6.480924
v 1.670729 -0.051355 -6.480817
v 1.670662 -0.061626 -6.480688
v 1.670582 -0.071896 -6.480537
v 1.670488 -0.082165 -6.480364
v 1.670381 -0.092434 -6.480169
v 1.670261 -0.102702 -6.479952
v 1.670127 -0.112970 -6.479713
v 1.669979 -0.123237 -6.479453
v 1.669818 -0.133503 -6.479170
v 1.669644 -0.143768 -6.478865
v 1.669456 -0.154033 -6.478539
v 1.669255 -0.164296 -6.478190
v 1.669040 -0.174559 -6.477819
v 1.668812 -0.184820 -6.477427
v 1.668570 -0.195080 -6.477013
v 1.668315 -0.205339 -6.476576
v 1.668047 -0.215597 -6.476118
v 1.667765 -0.225853 -6.475638
v 1.667469 -0.236108 -6.475136
v 1.667161 -0.246362 -6.474612
v 1.666838 -0.256614 -6.474066
v 1.666503 -0.266864 -6.473498
v 1.666153 -0.277113 -6.472908
v 1.665791 -0.287360 -6.472296
v 1.665415 -0.297605 -6.471663
v 1.665025 -0.307848 -6.471007
v 1.664622 -0.318090 -6.470330
v 1.664206 -0.328329 -6.469630
v 1.663776 -0.338567 -6.468909
v 1.663333 -0.348802 -6.468166
v 1.662877 -0.359035 -6.467401
v 1.662407 -0.369266 -6.466614
v 1.661923 -0.379495 -6.465805
v 1.661426 -0.389721 -6.464975
v 1.660916 -0.399945 -6.464122
v 1.660392 -0.410166 -6.463248
v 1.659855 -0.420385 -6.462352
v 1.659305 -0.430601 -6.461434
v 1.658741 -0.440815 -6.460494
v 1.658164 -0.451025 -6.459532
v 1.657573 -0.461233 -6.458548
v 1.656969 -0.471439 -6.457543
v 1.656352 -0.481641 -6.456516
v 1.655721 -0.491840 -6.455467
v 1.655077 -0.502036 -6.454396
v 1.654420 -0.512229 -6.453303
v 1.653749 -0.522419 -6.452189
v 1.653065 -0.532606 -6.451052
v 1.652367 -0.542790 -6.449894
v 1.651656 -0.552970 -6.448714
v 1.663395 0.000000 -6.488642
v 1.667227 0.000000 -6.484986
v 1.659375 0.000000 -6.492089
v 1.655178 0.000000 -6.495319
v 1.650816 0.000000 -6.498322
v 1.646301 0.000000 -6.501090
v 1.641646 0.000000 -6.503616
v 1.636864 0.000000 -6.505891
v 1.631968 0.000000 -6.507910
v 1.626972 0.000000 -6.509666
v 1.649111 -0.563251 -6.449509
v 1.647237 -0.563345 -6.451456
v 1.645312 -0.563430 -6.453352
v 1.643336 -0.563504 -6.455196
v 1.641312 -0.563569 -6.456986
v 1.639240 -0.563625 -6.458722
v 1.637122 -0.563670 -6.460402
v 1.634959 -0.563705 -6.462024
v 1.632754 -0.563730 -6.463588
v 1.630508 -0.563745 -6.465093
v 1.628222 -0.563750 -6.466537
v 1.625899 -0.563745 -6.467919
v 1.623539 -0.563730 -6.469238
v 1.621145 -0.563705 -6.470494
v 1.618718 -0.563670 -6.471685
v 1.616260 -0.563625 -6.472811
v 1.613773 -0.563569 -6.473870
v 1.611259 -0.563504 -6.474862
v 1.608720 -0.563430 -6.475787
v 1.606157 -0.563345 -6.476642
v 1.603572 -0.563251 -6.477429
v 1.626910 -0.010275 -6.509673
v 1.626834 -0.020550 -6.509658
v 1.626745 -0.030824 -6.509621
v 1.626643 -0.041098 -6.509562
v 1.626527 -0.051372 -6.509481
v 1.626397 -0.061646 -6.509378
v 1.626254 -0.071919 -6.509253
v 1.626097 -0.082191 -6.509105
v 1.625927 -0.092463 -6.508936
v 1.625744 -0.102734 -6.508745
v 1.625547 -0.113005 -6.508532
v 1.625337 -0.123275 -6.508297
v 1.625113 -0.133544 -6.508040
v 1.624876 -0.143812 -6.507761
v 1.624625 -0.154079 -6.507460
v 1.624360 -0.164345 -6.507137
v 1.624083 -0.174610 -6.506792
v 1.623792 -0.184874 -6.506425
v 1.623487 -0.195136 -6.506036
v 1.623169 -0.205398 -6.505625
v 1.622837 -0.215658 -6.505192
v 1.622492 -0.225916 -6.504737
v 1.622134 -0.236174 -6.504260
v 1.621762 -0.246429 -6.503761
v 1.621376 -0.256683 -6.503241
v 1.620977 -0.266936 -6.502698
v 1.620565 -0.277187 -6.502133
v 1.620139 -0.287435 -6.501547
v 1.619700 -0.297683 -6.500938
v 1.619247 -0.307928 -6.500308
v 1.618781 -0.318171 -6.499655
v 1.618302 -0.328412 -6.498981
v 1.617809 -0.338651 -6.498285
v 1.617303 -0.348888 -6.497566
v 1.616783 -0.359123 -6.496826
v 1.616250 -0.369355 -6.496064
v 1.615703 -0.379585 -6.495280
v 1.615143 -0.389813 -6.494475
v 1.614569 -0.400038 -6.493647
v 1.613982 -0.410260 -6.492797
v 1.613382 -0.420480 -6.491926
v 1.612768 -0.430697 -6.491032
v 1.612141 -0.440912 -6.490117
v 1.611501 -0.451124 -6.489180
v 1.610847 -0.461332 -6.488221
v 1.610180 -0.471538 -6.487240
v 1.609499 -0.481741 -6.486237
v 1.608805 -0.491941 -6.485213
v 1.608097 -0.502138 -6.484166
v 1.607376 -0.512332 -6.483098
v 1.606642 -0.522522 -6.482008
v 1.605895 -0.532709 -6.480896
v 1.605134 -0.542893 -6.479762
v 1.604359 -0.553074 -6.478607
v 1.616736 0.000000 -6.512375
v 1.621890 0.000000 -6.511156
v 1.611525 0.000000 -6.513319
v 1.606272 0.000000 -6.513986
v 1.600990 0.000000 -6.514374
v 1.595695 0.000000 -6.514482
v 1.590402 0.000000 -6.514309
v 1.585126 0.000000 -6.513857
v 1.579881 0.000000 -6.513125
v 1.574681 0.000000 -6.512117
v 1.569543 0.000000 -6.510835
v 1.569536 -0.010202 -6.510824
v 1.569514 -0.020404 -6.510791
v 1.569478 -0.030606 -6.510736
v 1.569427 -0.040808 -6.510658
v 1.569362 -0.051009 -6.510559
v 1.569282 -0.061210 -6.510437
v 1.569188 -0.071411 -6.510293
v 1.569080 -0.081611 -6.510128
v 1.568957 -0.091810 -6.509940
v 1.568819 -0.102009 -6.509729
v 1.568667 -0.112207 -6.509497
v 1.568501 -0.122405 -6.509243
v 1.568320 -0.132601 -6.508967
v 1.568125 -0.142797 -6.508668
v 1.567915 -0.152992 -6.508347
v 1.567690 -0.163185 -6.508005
v 1.567452 -0.173378 -6.507640
v 1.567199 -0.183569 -6.507253
v 1.566931 -0.193760 -6.506844
v 1.566649 -0.203948 -6.506413
v 1.566352 -0.214136 -6.505959
v 1.566041 -0.224322 -6.505484
v 1.600967 -0.563146 -6.478146
v 1.598345 -0.563033 -6.478793
v 1.595706 -0.562909 -6.479370
v 1.593053 -0.562777 -6.479875
v 1.590388 -0.562635 -6.480308
v 1.587713 -0.562483 -6.480670
v 1.585030 -0.562323 -6.480960
v 1.582341 -0.562154 -6.481178
v 1.579647 -0.561975 -6.481323
v 1.576951 -0.561788 -6.481395
v 1.566566 -0.234544 -6.505221
v 1.567080 -0.244767 -6.504929
v 1.567582 -0.254991 -6.504608
v 1.568073 -0.265217 -6.504257
v 1.568552 -0.275444 -6.503878
v 1.569019 -0.285671 -6.503470
v 1.569474 -0.295900 -6.503032
v 1.569917 -0.306129 -6.502565
v 1.570349 -0.316359 -6.502069
v 1.570768 -0.326590 -6.501544
v 1.571175 -0.336821 -6.500990
v 1.571571 -0.347052 -6.500407
v 1.571953 -0.357283 -6.499794
v 1.572324 -0.367515 -6.499152
v 1.572682 -0.377746 -6.498481
v 1.573028 -0.387978 -6.497781
v 1.573362 -0.398209 -6.497051
v 1.573683 -0.408440 -6.496292
v 1.573991 -0.418670 -6.495504
v 1.574286 -0.428900 -6.494687
v 1.574569 -0.439129 -6.493840
v 1.574840 -0.449358 -6.492964
v 1.575097 -0.459585 -6.492059
v 1.575341 -0.469812 -6.491125
v 1.575573 -0.480038 -6.490161
v 1.575791 -0.490262 -6.489168
v 1.575997 -0.500485 -6.488145
v 1.576189 -0.510706 -6.487094
v 1.576368 -0.520926 -6.486012
v 1.576534 -0.531145 -6.484902
v 1.576686 -0.541361 -6.483763
v 1.576825 -0.551576 -6.482594
v 1.565376 -0.244690 -6.504467
v 1.565716 -0.234507 -6.504987
v 1.565021 -0.254871 -6.503925
v 1.564653 -0.265050 -6.503362
v 1.564269 -0.275228 -6.502776
v 1.563872 -0.285404 -6.502168
v 1.563460 -0.295578 -6.501538
v 1.563033 -0.305750 -6.500886
v 1.562593 -0.315920 -6.500212
v 1.562137 -0.326088 -6.499516
v 1.561668 -0.336253 -6.498798
v 1.561184 -0.346417 -6.498058
v 1.560685 -0.356578 -6.497296
v 1.560172 -0.366736 -6.496512
v 1.559645 -0.376892 -6.495705
v 1.559103 -0.387045 -6.494877
v 1.558547 -0.397196 -6.494027
v 1.557977 -0.407344 -6.493154
v 1.557392 -0.417490 -6.492260
v 1.556793 -0.427632 -6.491344
v 1.556180 -0.437772 -6.490405
v 1.555552 -0.447908 -6.489445
v 1.554910 -0.458042 -6.488462
v 1.554253 -0.468173 -6.487458
v 1.553582 -0.478300 -6.486432
v 1.552897 -0.488424 -6.485383
v 1.552198 -0.498545 -6.484313
v 1.551484 -0.508662 -6.483221
v 1.550756 -0.518776 -6.482106
v 1.550014 -0.528887 -6.480970
v 1.549257 -0.538994 -6.479812
v 1.548486 -0.549097 -6.478632
v 1.547701 -0.559197 -6.477430
v 1.574254 -0.561593 -6.481395
v 1.571559 -0.561389 -6.481323
v 1.568868 -0.561176 -6.481178
v 1.566182 -0.560955 -6.480960
v 1.563504 -0.560727 -6.480670
v 1.560835 -0.560490 -6.480309
v 1.558178 -0.560246 -6.479875
v 1.555534 -0.559995 -6.479370
v 1.552905 -0.559736 -6.478794
v 1.550293 -0.559470 -6.478147
f 1 2 3
f 1 4 2
f 1 5 4
f 1 6 5
f 1 7 6
f 1 8 7
f 1 9 8
f 1 10 9
f 1 11 10
f 1 12 11
f 1 13 12
f 1 14 13
f 1 15 14
f 1 16 15
f 1 17 16
f 1 18 17
f 1 19 18
f 1 20 19
f 1 21 20
f 1 22 21
f 1 23 22
f 1 24 23
f 1 25 24
f 1 26 25
f 1 27 26
f 1 28 27
f 1 29 28
f 1 30 29
f 1 31 30
f 1 32 31
f 1 33 32
f 1 34 35
f 1 35 36
f 1 36 37
f 1 37 38
f 1 38 39
f 1 39 40
f 1 40 41
f 1 41 42
f 1 42 43
f 1 44 33
f 1 45 44
f 1 46 45
f 1 47 46
f 1 48 47
f 1 49 48
f 1 50 49
f 1 51 50
f 1 52 51
f 1 53 52
f 1 54 53
f 1 55 54
f 1 56 55
f 1 57 56
f 1 58 57
f 1 59 58
f 1 60 59
f 1 61 60
f 1 62 61
f 1 63 62
f 1 64 63
f 1 65 64
f 1 66 65
f 1 67 66
f 1 68 67
f 1 69 68
f 1 70 69
f 1 71 70
f 1 72 71
f 1 73 72
f 1 74 73
f 1 43 74
f 33 75 76
f 33 77 75
f 33 78 77
f 33 79 78
f 33 80 79
f 33 81 80
f 33 82 81
f 33 83 82
f 33 84 83
f 33 85 84
f 33 86 85
f 33 87 86
f 33 88 87
f 33 89 88
f 33 90 89
f 33 91 90
f 33 92 91
f 33 93 92
f 33 94 93
f 33 95 94
f 33 96 95
f 33 97 96
f 33 98 97
f 33 99 98
f 33 100 99
f 33 101 100
f 33 102 101
f 33 103 102
f 33 104 103
f 33 105 104
f 33 106 105
f 33 107 106
f 43 108 109
f 43 109 110
f 43 110 111
f 43 111 112
f 43 112 113
f 43 113 114
f 43 114 115
f 43 115 116
f 43 116 117
f 33 118 107
f 33 119 118
f 33 120 119
f 33 121 120
f 33 122 121
f 33 123 122
f 33 124 123
f 33 125 124
f 33 126 125
f 33 127 126
f 33 128 127
f 33 129 128
f 33 130 129
f 33 131 130
f 33 132 131
f 33 133 132
f 33 134 133
f 33 135 134
f 33 136 135
f 33 137 136
f 33 138 137
f 33 139 138
f 33 140 139
f 33 44 140
f 44 141 140
f 44 45 141
f 45 142 141
f 45 46 142
f 46 143 142
f 46 47 143
f 47 144 143
f 47 48 144
f 48 145 144
f 48 49 145
f 49 146 145
f 49 50 146
f 50 147 146
f 50 51 147
f 51 148 147
f 51 52 148
f 52 149 148
f 52 53 149
f 53 150 149
f 53 54 150
f 54 151 150
f 54 55 151
f 55 152 151
f 55 56 152
f 56 153 152
f 56 57 153
f 57 154 153
f 57 58 154
f 58 155 154
f 58 59 155
f 59 156 155
f 59 60 156
f 60 157 156
f 60 61 157
f 61 158 157
f 61 62 158
f 62 159 158
f 62 63 159
f 63 160 159
f 63 64 160
f 64 161 160
f 64 65 161
f 65 162 161
f 65 66 162
f 66 163 162
f 66 67 163
f 67 164 163
f 67 68 164
f 68 165 164
f 68 69 165
f 69 166 165
f 69 70 166
f 70 167 166
f 70 71 167
f 71 168 167
f 71 72 168
f 72 169 168
f 72 73 169
f 73 170 169
f 73 74 170
f 74 171 170
f 74 43 171
f 43 117 171
f 107 172 173
f 107 174 172
f 107 175 174
f 107 176 175
f 107 177 176
f 107 178 177
f 107 179 178
f 107 180 179
f 107 181 180
f 117 182 183
f 117 183 184
f 117 184 185
f 117 185 186
f 117 186 187
f 117 187 188
f 117 188 189
f 117 189 190
f 117 190 191
f 117 191 192
f 117 192 193
f 117 193 194
f 117 194 195
f 117 195 196
f 117 196 197
f 117 197 198
f 117 198 199
f 117 199 200
f 117 200 201
f 117 201 202
f 107 118 181
f 118 203 181
f 118 119 203
f 119 204 203
f 119 120 204
f 120 205 204
f 120 121 205
f 121 206 205
f 121 122 206
f 122 207 206
f 122 123 207
f 123 208 207
f 123 124 208
f 124 209 208
f 124 125 209
f 125 210 209
f 125 126 210
f 126 211 210
f 126 127 211
f 127 212 211
f 127 128 212
f 128 213 212
f 128 129 213
f 129 214 213
f 129 130 214
f 130 215 214
f 130 131 215
f 131 216 215
f 131 132 216
f 132 217 216
f 132 133 217
f 133 218 217
f 133 134 218
f 134 219 218
f 134 135 219
f 135 220 219
f 135 136 220
f 136 221 220
f 136 137 221
f 137 222 221
f 137 138 222
f 138 223 222
f 138 139 223
f 139 224 223
f 139 140 224
f 140 225 224
f 140 141 225
f 141 226 225
f 141 142 226
f 142 227 226
f 142 143 227
f 143 228 227
f 143 144 228
f 144 229 228
f 144 145 229
f 145 230 229
f 145 146 230
f 146 231 230
f 146 147 231
f 147 232 231
f 147 148 232
f 148 233 232
f 148 149 233
f 149 234 233
f 149 150 234
f 150 235 234
f 150 151 235
f 151 236 235
f 151 152 236
f 152 237 236
f 152 153 237
f 153 238 237
f 153 154 238
f 154 239 238
f 154 155 239
f 155 240 239
f 155 156 240
f 156 241 240
f 156 157 241
f 157 242 241
f 157 158 242
f 158 243 242
f 158 159 243
f 159 244 243
f 159 160 244
f 160 245 244
f 160 161 245
f 161 246 245
f 161 162 246
f 162 247 246
f 162 163 247
f 163 248 247
f 163 164 248
f 164 249 248
f 164 165 249
f 165 250 249
f 165 166 250
f 166 251 250
f 166 167 251
f 167 252 251
f 167 168 252
f 168 253 252
f 168 169 253
f 169 254 253
f 169 170 254
f 170 255 254
f 170 171 255
f 171 256 255
f 171 117 256
f 117 202 256
f 181 257 258
f 181 259 257
f 181 260 259
f 181 261 260
f 181 262 261
f 181 263 262
f 181 264 263
f 181 265 264
f 181 266 265
f 181 267 266
f 181 268 267
f 181 269 268
f 181 270 269
f 181 271 270
f 181 272 271
f 181 273 272
f 181 274 273
f 181 275 274
f 181 276 275
f 181 277 276
f 181 278 277
f 181 279 278
f 181 280 279
f 181 281 280
f 181 282 281
f 181 283 282
f 181 284 283
f 181 285 284
f 181 286 285
f 181 287 286
f 181 288 287
f 181 289 288
f 202 290 291
f 202 291 292
f 202 292 293
f 202 293 294
f 202 294 295
f 202 295 296
f 202 296 297
f 202 297 298
f 202 298 299
f 181 203 289
f 203 204 289
f 204 205 289
f 205 206 289
f 206 207 289
f 207 208 289
f 208 209 289
f 209 210 289
f 210 211 289
f 211 212 289
f 212 213 289
f 213 214 289
f 214 215 289
f 215 216 289
f 216 217 289
f 217 218 289
f 218 219 289
f 219 220 289
f 220 221 289
f 221 222 289
f 222 223 289
f 223 224 289
f 224 225 289
f 225 300 289
f 225 226 300
f 226 301 300
f 226 227 301
f 227 302 301
f 227 228 302
f 228 303 302
f 228 229 303
f 229 304 303
f 229 230 304
f 230 305 304
f 230 231 305
f 231 306 305
f 231 232 306
f 232 307 306
f 232 233 307
f 233 308 307
f 233 234 308
f 234 309 308
f 234 235 309
f 235 310 309
f 235 236 310
f 236 311 310
f 236 237 311
f 237 312 311
f 237 238 312
f 238 313 312
f 238 239 313
f 239 314 313
f 239 240 314
f 240 315 314
f 240 241 315
f 241 316 315
f 241 242 316
f 242 317 316
f 242 243 317
f 243 318 317
f 243 244 318
f 244 319 318
f 244 245 319
f 245 320 319
f 245 246 320
f 246 321 320
f 246 247 321
f 247 322 321
f 247 248 322
f 248 323 322
f 248 249 323
f 249 324 323
f 249 250 324
f 250 325 324
f 250 251 325
f 251 326 325
f 251 252 326
f 252 327 326
f 252 253 327
f 253 328 327
f 253 254 328
f 254 329 328
f 254 255 329
f 255 330 329
f 255 256 330
f 256 331 330
f 256 202 331
f 202 299 331
f 289 332 333
f 289 334 332
f 289 335 334
f 289 336 335
f 289 337 336
f 289 338 337
f 289 339 338
f 289 340 339
f 289 341 340
f 289 342 341
f 289 343 342
f 289 344 343
f 289 345 344
f 289 346 345
f 289 347 346
f 289 348 347
f 289 349 348
f 289 350 349
f 289 351 350
f 289 352 351
f 289 353 352
f 289 354 353
f 289 355 354
f 289 356 355
f 289 357 356
f 289 358 357
f 289 359 358
f 289 360 359
f 289 361 360
f 289 362 361
f 289 363 362
f 289 364 363
f 299 365 366
f 299 366 367
f 299 367 368
f 299 368 369
f 299 369 370
f 299 370 371
f 299 371 372
f 299 372 373
f 299 373 374
f 299 374 364
f 289 300 364
f 300 301 364
f 301 302 364
f 302 303 364
f 303 304 364
f 304 305 364
f 305 306 364
f 306 307 364
f 307 308 364
f 308 309 364
f 309 310 364
f 310 311 364
f 311 312 364
f 312 313 364
f 313 314 364
f 314 315 364
f 315 316 364
f 316 317 364
f 317 318 364
f 318 319 364
f 319 320 364
f 320 321 364
f 321 322 364
f 322 323 364
f 323 324 364
f 324 325 364
f 325 326 364
f 326 327 364
f 327 328 364
f 328 329 364
f 329 330 364
f 330 331 364
f 331 299 364
