v 1.992500 0.885067 -4.837000
v 1.992136 0.877534 -4.826163
v 1.992500 0.350000 -4.837000
v 1.991666 0.350000 -4.820560
v 1.991078 0.870360 -4.815602
v 1.989380 0.863565 -4.805353
v 1.989174 0.350000 -4.804289
v 1.987097 0.857170 -4.795453
v 1.985048 0.350000 -4.788353
v 1.984277 0.851195 -4.785932
v 1.980954 0.845637 -4.776793
v 1.979331 0.350000 -4.772917
v 1.977149 0.840489 -4.768018
v 1.972885 0.835739 -4.759593
v 1.972081 0.350000 -4.758138
v 1.968184 0.831381 -4.751503
v 1.963374 0.350000 -4.744169
v 1.963073 0.827415 -4.743754
v 1.957579 0.823854 -4.736365
v 1.953298 0.350000 -4.731152
v 1.951733 0.820709 -4.729359
v 1.945564 0.817994 -4.722758
v 1.941957 0.350000 -4.719221
v 1.939103 0.815712 -4.716577
v 1.932386 0.813858 -4.710821
v 1.929467 0.350000 -4.708499
v 1.925451 0.812424 -4.705495
v 1.918332 0.811404 -4.700604
v 1.915957 0.350000 -4.699095
v 1.911056 0.810789 -4.696148
v 1.903617 0.810576 -4.692116
v 1.901564 0.350000 -4.691107
v 1.896001 0.810758 -4.688497
v 1.888195 0.811332 -4.685277
v 1.886437 0.350000 -4.684615
v 1.880186 0.812294 -4.682446
v 1.871971 0.813650 -4.680014
v 1.870731 0.350000 -4.679687
v 1.863550 0.815413 -4.678001
v 1.854921 0.817594 -4.676422
v 1.854607 0.350000 -4.676374
v 1.846087 0.820203 -4.675298
v 1.838230 0.350000 -4.674709
v 1.837066 0.823245 -4.674650
v 1.827892 0.826720 -4.674507
v 1.821770 0.350000 -4.674709
v 1.818599 0.830628 -4.674895
v 1.809223 0.834968 -4.675840
v 1.805393 0.350000 -4.676374
v 1.799814 0.839720 -4.677352
v 1.790452 0.844833 -4.679416
v 1.789269 0.350000 -4.679687
v 1.781214 0.850258 -4.682014
v 1.773563 0.350000 -4.684615
v 1.772180 0.855943 -4.685132
v 1.763408 0.861848 -4.688752
v 1.758436 0.350000 -4.691107
v 1.754910 0.867954 -4.692868
v 1.746686 0.874249 -4.697468
v 1.744043 0.350000 -4.699095
v 1.738739 0.880719 -4.702546
v 1.731075 0.887350 -4.708090
v 1.730533 0.350000 -4.708499
v 1.723719 0.894116 -4.714086
v 1.718043 0.350000 -4.719221
v 1.716702 0.900991 -4.720518
v 1.710055 0.907946 -4.727368
v 1.706702 0.350000 -4.731152
v 1.703808 0.914954 -4.734620
v 1.697992 0.921982 -4.742240
v 1.696626 0.350000 -4.744169
v 1.692634 0.928991 -4.750187
v 1.687919 0.350000 -4.758138
v 1.687761 0.935945 -4.758421
v 1.683401 0.942807 -4.766900
v 1.680669 0.350000 -4.772917
v 1.679571 0.949541 -4.775572
v 1.676272 0.956110 -4.784375
v 1.674952 0.350000 -4.788353
v 1.673510 0.962479 -4.793245
v 1.671286 0.968613 -4.802120
v 1.670826 0.350000 -4.804289
v 1.669595 0.974489 -4.810950
v 1.668415 0.980107 -4.819717
v 1.668334 0.350000 -4.820560
v 1.667725 0.985474 -4.828405
v 1.667500 0.990594 -4.837000
v 1.667500 0.350000 -4.837000
f 1 3 2
f 2 3 4
f 2 4 5
f 5 4 6
f 6 4 7
f 6 7 8
f 8 7 9
f 8 9 10
f 10 9 11
f 11 9 12
f 11 12 13
f 13 12 14
f 14 12 15
f 14 15 16
f 16 15 17
f 16 17 18
f 18 17 19
f 19 17 20
f 19 20 21
f 21 20 22
f 22 20 23
f 22 23 24
f 24 23 25
f 25 23 26
f 25 26 27
f 27 26 28
f 28 26 29
f 28 29 30
f 30 29 31
f 31 29 32
f 31 32 33
f 33 32 34
f 34 32 35
f 34 35 36
f 36 35 37
f 37 35 38
f 37 38 39
f 39 38 40
f 40 38 41
f 40 41 42
f 42 41 43
f 42 43 44
f 44 43 45
f 45 43 46
f 45 46 47
f 47 46 48
f 48 46 49
f 48 49 50
f 50 49 51
f 51 49 52
f 51 52 53
f 53 52 54
f 53 54 55
f 55 54 56
f 56 54 57
f 56 57 58
f 58 57 59
f 59 57 60
f 59 60 61
f 61 60 62
f 62 60 63
f 62 63 64
f 64 63 65
f 64 65 66
f 66 65 67
f 67 65 68
f 67 68 69
f 69 68 70
f 70 68 71
f 70 71 72
f 72 71 73
f 72 73 74
f 74 73 75
f 75 73 76
f 75 76 77
f 77 76 78
f 78 76 79
f 78 79 80
f 80 79 81
f 81 79 82
f 81 82 83
f 83 82 84
f 84 82 85
f 84 85 86
f 86 85 87
f 87 85 88
