v -0.646859 -0.192870 -0.825000
v -0.646859 -0.192870 -0.036213
v -0.646857 -0.192870 -0.035995
v -0.646853 -0.192868 -0.035778
v -0.646846 -0.192866 -0.035562
v -0.646836 -0.192862 -0.035347
v -0.646823 -0.192857 -0.035132
v -0.646807 -0.192852 -0.034918
v -0.646789 -0.192845 -0.034705
v -0.646767 -0.192837 -0.034493
v -0.646743 -0.192828 -0.034282
v -0.646716 -0.192818 -0.034071
v -0.646686 -0.192807 -0.033860
v -0.646653 -0.192795 -0.033651
v -0.646618 -0.192782 -0.033442
v -0.646579 -0.192768 -0.033233
v -0.646538 -0.192753 -0.033026
v -0.646493 -0.192737 -0.032818
v -0.646446 -0.192720 -0.032611
v -0.646396 -0.192702 -0.032405
v -0.646343 -0.192683 -0.032199
v -0.646288 -0.192662 -0.031994
v -0.646229 -0.192641 -0.031789
v -0.646168 -0.192619 -0.031585
v -0.646104 -0.192595 -0.031381
v -0.646037 -0.192571 -0.031178
v -0.645967 -0.192546 -0.030977
v -0.645895 -0.192519 -0.030776
v -0.645820 -0.192492 -0.030576
v -0.645743 -0.192464 -0.030377
v -0.645663 -0.192435 -0.030180
v -0.645580 -0.192405 -0.029983
v -0.645495 -0.192374 -0.029788
v -0.645407 -0.192342 -0.029595
v -0.645317 -0.192309 -0.029403
v -0.645225 -0.192275 -0.029212
v -0.645130 -0.192241 -0.029023
v -0.645032 -0.192205 -0.028836
v -0.644933 -0.192169 -0.028650
v -0.644831 -0.192132 -0.028467
v -0.644726 -0.192094 -0.028285
v -0.644620 -0.192055 -0.028105
v -0.644510 -0.192016 -0.027927
v -0.644399 -0.191975 -0.027750
v -0.644285 -0.191933 -0.027575
v -0.644169 -0.191891 -0.027402
v -0.644050 -0.191848 -0.027231
v -0.643928 -0.191804 -0.027061
v -0.643805 -0.191759 -0.026893
v -0.643678 -0.191713 -0.026727
v -0.643550 -0.191666 -0.026562
v -0.643418 -0.191618 -0.026399
v -0.643284 -0.191569 -0.026237
v -0.643148 -0.191520 -0.026077
v -0.643009 -0.191469 -0.025919
v -0.642867 -0.191417 -0.025762
v -0.642723 -0.191365 -0.025607
v -0.642562 -0.191306 -0.025435
v -0.642401 -0.191248 -0.025264
v -0.642239 -0.191189 -0.025093
v -0.642078 -0.191130 -0.024922
v -0.641917 -0.191072 -0.024751
v -0.641756 -0.191013 -0.024580
v -0.641595 -0.190954 -0.024408
v -0.641434 -0.190896 -0.024237
v -0.641273 -0.190837 -0.024066
v -0.641112 -0.190778 -0.023895
v -0.640951 -0.190720 -0.023724
v -0.640790 -0.190661 -0.023553
v -0.640629 -0.190603 -0.023382
v -0.640468 -0.190544 -0.023211
v -0.640307 -0.190485 -0.023040
v -0.640146 -0.190427 -0.022869
v -0.639985 -0.190368 -0.022698
v -0.639824 -0.190310 -0.022527
v -0.639663 -0.190251 -0.022356
v -0.639502 -0.190193 -0.022185
v -0.639341 -0.190134 -0.022014
v -0.639180 -0.190075 -0.021843
v -0.639019 -0.190017 -0.021672
v -0.638858 -0.189958 -0.021501
v -0.638697 -0.189900 -0.021331
v -0.638537 -0.189841 -0.021160
v -0.638376 -0.189783 -0.020989
v -0.638215 -0.189724 -0.020818
v -0.638054 -0.189666 -0.020647
v -0.637893 -0.189607 -0.020476
v -0.637733 -0.189549 -0.020306
v -0.637572 -0.189490 -0.020135
v -0.637411 -0.189432 -0.019964
v -0.637250 -0.189373 -0.019793
v -0.637090 -0.189315 -0.019623
v -0.636929 -0.189256 -0.019452
v -0.636768 -0.189198 -0.019281
v -0.636608 -0.189139 -0.019111
v -0.636447 -0.189081 -0.018940
v -0.636286 -0.189022 -0.018769
v -0.636126 -0.188964 -0.018599
v -0.635965 -0.188905 -0.018428
v -0.635804 -0.188847 -0.018257
v -0.635644 -0.188788 -0.018087
v -0.635483 -0.188730 -0.017916
v -0.635323 -0.188671 -0.017746
v -0.635162 -0.188613 -0.017575
v -0.635001 -0.188555 -0.017404
v -0.634841 -0.188496 -0.017234
v -0.634680 -0.188438 -0.017063
v -0.634520 -0.188379 -0.016893
v -0.634359 -0.188321 -0.016722
v -0.634199 -0.188262 -0.016552
v -0.634038 -0.188204 -0.016381
v -0.633878 -0.188146 -0.016211
v -0.633878 -0.188146 -0.857174
v -0.634113 -0.188231 -0.856591
v -0.634348 -0.188317 -0.856008
v -0.634584 -0.188402 -0.855425
v -0.634819 -0.188488 -0.854842
v -0.635054 -0.188574 -0.854258
v -0.635290 -0.188659 -0.853675
v -0.635525 -0.188745 -0.853091
v -0.635761 -0.188831 -0.852508
v -0.635996 -0.188917 -0.851924
v -0.636232 -0.189002 -0.851340
v -0.636467 -0.189088 -0.850757
v -0.636703 -0.189174 -0.850173
v -0.636938 -0.189259 -0.849589
v -0.637174 -0.189345 -0.849005
v -0.637410 -0.189431 -0.848421
v -0.637645 -0.189517 -0.847837
v -0.637881 -0.189603 -0.847252
v -0.638117 -0.189688 -0.846668
v -0.638352 -0.189774 -0.846084
v -0.638588 -0.189860 -0.845499
v -0.638824 -0.189946 -0.844915
v -0.639060 -0.190032 -0.844330
v -0.639296 -0.190118 -0.843746
v -0.639532 -0.190203 -0.843161
v -0.639768 -0.190289 -0.842576
v -0.640004 -0.190375 -0.841991
v -0.640240 -0.190461 -0.841406
v -0.640476 -0.190547 -0.840822
v -0.640712 -0.190633 -0.840236
v -0.640948 -0.190719 -0.839651
v -0.641184 -0.190805 -0.839066
v -0.641420 -0.190891 -0.838481
v -0.641656 -0.190977 -0.837896
v -0.641892 -0.191063 -0.837310
v -0.642128 -0.191149 -0.836725
v -0.642365 -0.191235 -0.836139
v -0.642601 -0.191321 -0.835553
v -0.642837 -0.191407 -0.834968
v -0.643074 -0.191493 -0.834382
v -0.643310 -0.191579 -0.833796
v -0.643546 -0.191665 -0.833210
v -0.643783 -0.191751 -0.832624
v -0.644019 -0.191837 -0.832038
v -0.644256 -0.191923 -0.831452
v -0.644492 -0.192009 -0.830866
v -0.644729 -0.192095 -0.830280
v -0.644965 -0.192181 -0.829693
v -0.645202 -0.192267 -0.829107
v -0.645438 -0.192353 -0.828520
v -0.645675 -0.192439 -0.827934
v -0.645912 -0.192526 -0.827347
v -0.646148 -0.192612 -0.826761
v -0.646385 -0.192698 -0.826174
v -0.646622 -0.192784 -0.825587
f 112 110 111
f 112 109 110
f 112 108 109
f 112 107 108
f 112 106 107
f 112 105 106
f 112 104 105
f 112 103 104
f 112 102 103
f 112 101 102
f 112 100 101
f 112 99 100
f 112 98 99
f 112 97 98
f 112 96 97
f 112 95 96
f 112 94 95
f 112 93 94
f 112 92 93
f 112 91 92
f 112 90 91
f 112 89 90
f 112 88 89
f 112 87 88
f 112 86 87
f 112 85 86
f 112 84 85
f 112 83 84
f 112 82 83
f 112 81 82
f 112 80 81
f 112 79 80
f 112 78 79
f 112 77 78
f 112 76 77
f 112 75 76
f 112 74 75
f 112 73 74
f 112 72 73
f 112 71 72
f 112 70 71
f 112 69 70
f 112 68 69
f 112 67 68
f 112 66 67
f 112 65 66
f 112 64 65
f 112 63 64
f 112 62 63
f 112 61 62
f 112 60 61
f 112 59 60
f 112 58 59
f 112 57 58
f 112 56 57
f 112 55 56
f 112 54 55
f 112 53 54
f 112 52 53
f 112 51 52
f 112 50 51
f 112 49 50
f 112 48 49
f 112 47 48
f 112 46 47
f 112 45 46
f 112 44 45
f 112 43 44
f 112 42 43
f 112 41 42
f 112 40 41
f 112 39 40
f 112 38 39
f 112 37 38
f 112 36 37
f 112 35 36
f 112 34 35
f 112 33 34
f 112 32 33
f 112 31 32
f 112 30 31
f 112 29 30
f 112 28 29
f 112 27 28
f 112 26 27
f 112 25 26
f 112 24 25
f 112 23 24
f 112 22 23
f 112 21 22
f 112 20 21
f 112 19 20
f 112 18 19
f 112 17 18
f 112 16 17
f 112 15 16
f 112 14 15
f 112 13 14
f 112 12 13
f 112 11 12
f 112 10 11
f 112 9 10
f 112 8 9
f 112 7 8
f 112 6 7
f 112 5 6
f 112 4 5
f 112 3 4
f 112 2 3
f 112 1 2
f 112 167 1
f 112 166 167
f 112 165 166
f 112 164 165
f 112 163 164
f 112 162 163
f 112 161 162
f 112 160 161
f 112 159 160
f 112 158 159
f 112 157 158
f 112 156 157
f 112 155 156
f 112 154 155
f 112 153 154
f 112 152 153
f 112 151 152
f 112 150 151
f 112 149 150
f 112 148 149
f 112 147 148
f 112 146 147
f 112 145 146
f 112 144 145
f 112 143 144
f 112 142 143
f 112 141 142
f 112 140 141
f 112 139 140
f 112 138 139
f 112 137 138
f 112 136 137
f 112 135 136
f 112 134 135
f 112 133 134
f 112 132 133
f 112 131 132
f 112 130 131
f 112 129 130
f 112 128 129
f 112 127 128
f 112 126 127
f 112 125 126
f 112 124 125
f 112 123 124
f 112 122 123
f 112 121 122
f 112 120 121
f 112 119 120
f 112 118 119
f 112 117 118
f 112 116 117
f 112 115 116
f 112 114 115
f 112 113 114
