v -2.962500 0.350000 -6.509085
v -2.543183 0.000000 -6.563000
v -2.993082 0.213701 -6.543198
v -3.625000 0.000000 -4.237000
v -2.915000 0.000000 -4.237000
v -3.414361 0.213701 -4.256802
v -3.337500 0.350000 -4.290915
v -2.915000 0.008010 -4.237028
v -2.915000 0.016020 -4.237110
v -2.689185 0.591815 -4.398837
v -3.025565 0.737607 -4.500833
v -2.699383 0.588033 -4.396612
v -3.625000 1.117083 -5.723567
v -2.849137 0.811457 -6.233131
v -2.858062 0.808242 -6.236250
v -2.540000 0.617304 -4.414350
v -1.171011 0.617304 -4.414350
v -1.160925 0.624045 -4.418606
v -0.629446 0.783469 -4.540497
v -0.624011 0.783512 -4.540536
v -0.547324 0.784966 -4.541864
v -0.618573 0.783563 -4.540583
v -0.613131 0.783622 -4.540637
v -0.607684 0.783690 -4.540698
v -0.602232 0.783765 -4.540767
v -0.596775 0.783848 -4.540843
v -0.591312 0.783940 -4.540926
v -0.585842 0.784040 -4.541017
v -0.580365 0.784147 -4.541116
v -0.574880 0.784263 -4.541221
v -0.569387 0.784387 -4.541335
v -0.563885 0.784520 -4.541456
v -0.558375 0.784660 -4.541584
v -0.552854 0.784809 -4.541720
v -0.541782 0.785132 -4.542015
v -0.536230 0.785305 -4.542174
v -0.530665 0.785487 -4.542341
v -0.525088 0.785677 -4.542515
v 0.375000 0.929952 -4.701603
v -0.519500 0.785875 -4.542697
v -0.513902 0.786080 -4.542885
v -0.508296 0.786291 -4.543078
v -0.502683 0.786506 -4.543276
v -0.497064 0.786726 -4.543478
v -0.491442 0.786948 -4.543682
v -0.485818 0.787173 -4.543889
v -0.480193 0.787399 -4.544097
v 0.357065 0.624510 -4.418906
v 0.385871 0.609051 -4.409233
v 0.510000 0.929952 -4.701603
v 0.377150 0.783508 -4.540533
v 0.825000 0.929952 -4.701603
v 0.599906 0.457007 -4.330561
v 0.619013 0.438925 -4.323012
v 0.514373 0.527201 -4.363355
v 0.735000 0.929952 -4.701603
v 0.587790 0.783508 -4.540533
v 0.825131 0.017123 -4.237126
v 1.375000 0.000000 -4.237000
v 1.375000 0.046829 -4.237943
v 0.700984 0.346436 -4.289799
v 0.960000 0.954457 -4.735484
v 0.798429 0.783508 -4.540533
v 0.825423 0.000000 -4.237000
v 1.050000 1.142465 -5.617582
v 1.380127 1.163000 -5.400024
v 1.385267 1.163000 -5.400096
v 1.390419 1.163000 -5.400215
v 1.395585 1.163001 -5.400383
v 1.400763 1.163001 -5.400599
v 1.405954 1.163001 -5.400863
v 1.411157 1.163001 -5.401177
v 1.416372 1.163000 -5.401540
v 1.421600 1.163000 -5.401953
v 1.426839 1.162999 -5.402415
v 1.432091 1.162998 -5.402928
v 1.437354 1.162996 -5.403491
v 1.442629 1.162993 -5.404105
v 1.447915 1.162991 -5.404770
v 1.453213 1.162987 -5.405487
v 1.458522 1.162983 -5.406255
v 1.463842 1.162978 -5.407075
v 1.469173 1.162973 -5.407947
v 1.474515 1.162966 -5.408872
v 1.479868 1.162959 -5.409850
v 1.485232 1.162950 -5.410881
v 1.490609 1.162940 -5.411967
v 1.495997 1.162929 -5.413107
v 1.501398 1.162915 -5.414302
v 1.506812 1.162899 -5.415553
v 1.512240 1.162881 -5.416860
v 1.517682 1.162861 -5.418224
v 1.523137 1.162838 -5.419646
v 1.528608 1.162812 -5.421125
v 1.534093 1.162782 -5.422662
v 1.539593 1.162750 -5.424259
v 1.545110 1.162713 -5.425914
v 1.550642 1.162673 -5.427630
v 1.556192 1.162629 -5.429406
v 1.561758 1.162581 -5.431244
v 1.567341 1.162528 -5.433143
v 1.572942 1.162470 -5.435104
v 1.578561 1.162408 -5.437127
v 1.584198 1.162340 -5.439214
v 1.589851 1.162266 -5.441363
v 1.595521 1.162186 -5.443577
v 1.601208 1.162099 -5.445854
v 1.606910 1.162005 -5.448195
v 1.612628 1.161903 -5.450600
v 1.618360 1.161793 -5.453070
v 1.624107 1.161674 -5.455606
v 1.629869 1.161547 -5.458206
v 1.635644 1.161410 -5.460872
v 1.641433 1.161263 -5.463604
v 1.647234 1.161106 -5.466403
v 1.653048 1.160937 -5.469267
v 1.658874 1.160758 -5.472199
v 1.664712 1.160567 -5.475198
v 1.670562 1.160364 -5.478264
v 1.676422 1.160148 -5.481398
v 1.683578 1.159870 -5.485263
v 1.690729 1.159580 -5.489125
v 1.697875 1.159277 -5.492985
v 1.705017 1.158961 -5.496842
v 1.712154 1.158633 -5.500697
v 1.719287 1.158292 -5.504549
v 1.726416 1.157938 -5.508399
v 1.733540 1.157571 -5.512247
v 1.740660 1.157192 -5.516093
v 1.747776 1.156800 -5.519936
v 1.754888 1.156395 -5.523777
v 1.761996 1.155978 -5.527616
v 1.769101 1.155548 -5.531453
v 1.776201 1.155105 -5.535288
v 1.783298 1.154650 -5.539121
v 1.790391 1.154181 -5.542952
v 1.797481 1.153701 -5.546781
v 1.804567 1.153207 -5.550608
v 1.811650 1.152701 -5.554434
v 1.818729 1.152182 -5.558257
v 1.825804 1.151650 -5.562078
v 1.832876 1.151106 -5.565897
v 1.839942 1.150549 -5.569714
v 1.847004 1.149980 -5.573528
v 1.854061 1.149398 -5.577340
v 1.861113 1.148804 -5.581148
v 1.868158 1.148197 -5.584953
v 2.057054 1.121082 -5.709427
v 1.875198 1.147579 -5.588756
v 1.882231 1.146947 -5.592554
v 1.889258 1.146304 -5.596349
v 1.896278 1.145648 -5.600141
v 1.903290 1.144980 -5.603928
v 1.910295 1.144300 -5.607711
v 1.917293 1.143608 -5.611490
v 1.924281 1.142904 -5.615265
v 1.931262 1.142187 -5.619035
v 1.938234 1.141459 -5.622801
v 1.945196 1.140719 -5.626561
v 1.952150 1.139967 -5.630317
v 1.959095 1.139203 -5.634068
v 1.966031 1.138427 -5.637814
v 1.972959 1.137639 -5.641555
v 1.979878 1.136839 -5.645292
v 1.986788 1.136027 -5.649024
v 1.993690 1.135204 -5.652752
v 2.061697 1.125754 -5.691972
v 2.000584 1.134368 -5.656475
v 2.007469 1.133521 -5.660194
v 2.014347 1.132662 -5.663909
v 2.021216 1.131791 -5.667619
v 2.028077 1.130908 -5.671324
v 2.034930 1.130014 -5.675026
v 2.041776 1.129107 -5.678723
v 2.048614 1.128189 -5.682416
v 2.055444 1.127259 -5.686105
v 2.062266 1.126318 -5.689790
v 2.061982 1.126036 -5.690881
v 2.061411 1.125470 -5.693064
v 2.061125 1.125185 -5.694155
v 2.060838 1.124900 -5.695246
v 2.060551 1.124613 -5.696337
v 2.060263 1.124325 -5.697428
v 2.059974 1.124035 -5.698520
v 2.059685 1.123745 -5.699611
v 2.059395 1.123454 -5.700702
v 2.059104 1.123161 -5.701792
v 2.058813 1.122867 -5.702883
v 2.058522 1.122573 -5.703974
v 2.058229 1.122277 -5.705065
v 2.057936 1.121980 -5.706155
v 2.057643 1.121681 -5.707246
v 2.057348 1.121382 -5.708337
v 0.285000 1.124068 -5.698397
v 2.056758 1.120780 -5.710518
v 2.056462 1.120477 -5.711608
v 2.056166 1.120174 -5.712698
v 2.055868 1.119869 -5.713788
v 2.055570 1.119563 -5.714879
v 2.055272 1.119256 -5.715969
v 2.054973 1.118947 -5.717059
v 2.054673 1.118638 -5.718149
v 2.054373 1.118327 -5.719238
v 2.054072 1.118016 -5.720328
v 2.053771 1.117703 -5.721418
v 2.053469 1.117389 -5.722508
v 2.053166 1.117074 -5.723597
v 2.052863 1.116758 -5.724687
v 2.052559 1.116440 -5.725776
v 2.052254 1.116122 -5.726866
v 2.051949 1.115802 -5.727955
v 2.051644 1.115481 -5.729044
v 2.051337 1.115160 -5.730133
v 2.051030 1.114837 -5.731222
v 2.050723 1.114513 -5.732311
v 2.050415 1.114187 -5.733400
v 2.050106 1.113861 -5.734489
v 2.049797 1.113533 -5.735577
v 2.049487 1.113205 -5.736666
v 2.049176 1.112875 -5.737754
v 2.048865 1.112544 -5.738843
v 2.048553 1.112212 -5.739931
v 2.048241 1.111879 -5.741019
v 2.047928 1.111545 -5.742107
v 2.047614 1.111209 -5.743195
v 2.047300 1.110873 -5.744283
v 2.046985 1.110535 -5.745371
v 2.046670 1.110196 -5.746459
v 2.046354 1.109856 -5.747546
v 2.046037 1.109515 -5.748634
v 2.045720 1.109173 -5.749721
v -2.425000 1.109173 -5.749721
v -2.428570 1.100779 -5.775306
v -2.432229 1.091808 -5.800660
v -2.637500 0.350000 -6.509085
v -2.435956 1.082263 -5.825776
v -2.439728 1.072148 -5.850645
v -2.443525 1.061466 -5.875259
v -2.447324 1.050222 -5.899610
v -3.625000 0.000000 -6.563000
v -3.625000 0.093583 -6.559229
v -3.625000 0.093583 -4.240771
v -2.915000 0.024029 -4.237248
v -2.709456 0.583993 -4.394256
v -3.029526 0.747945 -4.509412
v -1.150844 0.630616 -4.422815
v 0.327174 0.639598 -4.428672
v 0.375000 0.945882 -4.723335
v 0.579891 0.474897 -4.338383
v 0.600000 0.929952 -4.701603
v 0.600000 0.945882 -4.723335
v 0.824246 0.034406 -4.237509
v 0.825000 0.945882 -4.723335
v 0.778863 0.215062 -4.257059
v 1.375000 0.093583 -4.240771
v 0.770255 0.233743 -4.260734
v 0.739488 0.290071 -4.273755
v 0.961659 0.954919 -4.736148
v -2.542411 0.026808 -6.562690
v -3.625000 0.186558 -4.252061
v -2.915000 0.032036 -4.237441
v -3.625000 1.087424 -5.812405
v -2.866780 0.804487 -6.239863
v -2.678876 0.595338 -4.400927
v -1.140770 0.637019 -4.426976
v -0.474569 0.787625 -4.544305
v 0.296180 0.654276 -4.438493
v 0.510000 0.945882 -4.723335
v 0.558967 0.492574 -4.346465
v 0.735000 0.945882 -4.723335
v 0.825000 0.961305 -4.745430
v 0.960000 0.968508 -4.756136
v 0.750584 0.271265 -4.269080
v 1.009069 0.420124 -4.315535
v -2.541617 0.053600 -6.561762
v -3.625000 0.278324 -4.270795
v -2.915000 0.040043 -4.237690
v -3.022114 0.726761 -4.492045
v -2.840075 0.814119 -6.230529
v -1.130704 0.643255 -4.431087
v 0.264063 0.668505 -4.448330
v 0.375000 0.961305 -4.745430
v 0.537132 0.510013 -4.354793
v 0.587790 0.612241 -4.411197
v 0.600000 0.961305 -4.745430
v 0.822750 0.051845 -4.238156
v 0.825000 0.976212 -4.767877
v 0.960000 0.982112 -4.777084
v 0.963317 0.955385 -4.736819
v -2.451106 1.038420 -5.923691
v -2.540799 0.080363 -6.560218
v -3.625000 0.368285 -4.296852
v -2.915000 0.048047 -4.237993
v -2.719389 0.579699 -4.391775
v -3.033980 0.757752 -4.517740
v -1.120648 0.649326 -4.435144
v -0.468947 0.787850 -4.544512
v 0.230808 0.682247 -4.458143
v 0.510000 0.961305 -4.745430
v 0.735000 0.961305 -4.745430
v 0.820626 0.069438 -4.239074
v 0.825000 0.990595 -4.790664
v 0.960000 0.995264 -4.798320
v 0.964975 0.955855 -4.737496
v 1.640987 1.158039 -5.507308
v -2.454850 1.026064 -5.947490
v -2.539957 0.107082 -6.558057
v -3.337500 0.358224 -4.293544
v -2.915000 0.056049 -4.238351
v -2.875221 0.800202 -6.243947
v -2.668472 0.598602 -4.402879
v -1.110604 0.655233 -4.439145
v -0.463329 0.788074 -4.544718
v 0.196502 0.695438 -4.467858
v 0.375000 0.976212 -4.767877
v 0.490665 0.544128 -4.372139
v 0.600000 0.976212 -4.767877
v 0.817858 0.087180 -4.240272
v 0.825000 1.004446 -4.813777
v 0.960000 1.007956 -4.819833
v 0.966632 0.956328 -4.738180
v -3.337500 0.366428 -4.296234
v -2.915000 0.064049 -4.238765
v -3.019180 0.715433 -4.483093
v -2.657987 0.601604 -4.404688
v -1.100573 0.660979 -4.443089
v -0.457717 0.788295 -4.544922
v 0.161333 0.707995 -4.477370
v 0.510000 0.976212 -4.767877
v 0.465986 0.560785 -4.381131
v 0.735000 0.976212 -4.767877
v 0.814428 0.105070 -4.241756
v 0.825000 1.017758 -4.837205
v 0.960000 1.020183 -4.841614
v 0.968289 0.956806 -4.738871
v -2.539089 0.133742 -6.555283
v -3.337500 0.374612 -4.298985
v -2.915000 0.072045 -4.239234
v -2.738791 0.570369 -4.386467
v -2.729171 0.575155 -4.389176
v -3.625000 1.139497 -5.632630
v -2.993082 0.928094 -6.100864
v -1.090557 0.666565 -4.446971
v -0.452112 0.788512 -4.545122
v 0.125495 0.719832 -4.486574
v 0.375000 0.990595 -4.790664
v 0.440310 0.577165 -4.390320
v 0.600000 0.990595 -4.790664
v 0.810317 0.123102 -4.243534
v 0.825000 1.030523 -4.860935
v 0.960000 1.031940 -4.863652
v 0.969945 0.957288 -4.739569
v -2.571803 0.213701 -6.543198
v -3.337500 0.382775 -4.301796
v -2.915000 0.080038 -4.239757
v -3.625000 1.050713 -5.898569
v -2.883360 0.795383 -6.248491
v -3.038901 0.767015 -4.525782
v -1.080558 0.671992 -4.450791
v -0.639110 0.783404 -4.540437
v 0.089181 0.730864 -4.495363
v 0.166511 0.783508 -4.540533
v 0.510000 0.990595 -4.790664
v 0.735000 0.990595 -4.790664
v 0.805507 0.141265 -4.245611
v 0.825000 1.042735 -4.884955
v 0.960000 1.043221 -4.885938
v 0.760834 0.252483 -4.264740
v -2.538196 0.160330 -6.551895
v -2.537275 0.186830 -6.547895
v -3.337500 0.390917 -4.304668
v -2.915000 0.088027 -4.240336
v -3.016773 0.703653 -4.474019
v -2.647437 0.604345 -4.406351
v -1.070577 0.677262 -4.454544
v -0.446515 0.788726 -4.545319
v 0.052584 0.741006 -4.503630
v 0.375000 1.004446 -4.813777
v 0.413613 0.593258 -4.399693
v 0.600000 1.004446 -4.813777
v 0.799976 0.159552 -4.247996
v 0.825000 1.054388 -4.909251
v 0.960000 1.054020 -4.908461
v 0.971600 0.957773 -4.740273
v -2.536326 0.213230 -6.543285
v -3.337500 0.399038 -4.307600
v -2.915000 0.096012 -4.240970
v -3.014902 0.691440 -4.464862
v -2.748237 0.565345 -4.383655
v -2.830947 0.816217 -6.228468
v -1.060616 0.682376 -4.458230
v -0.440929 0.788933 -4.545510
v 0.015891 0.750187 -4.511281
v 0.510000 1.004446 -4.813777
v 0.735000 1.004446 -4.813777
v 0.793705 0.177954 -4.250695
v 0.960000 1.064334 -4.931211
v 0.825000 1.065475 -4.933810
v 1.375000 0.140184 -4.245480
v 1.375000 0.186558 -4.252061
v -2.535347 0.239515 -6.538069
v -3.337500 0.407136 -4.310592
v -2.915000 0.103993 -4.241659
v -2.891199 0.790017 -6.253489
v -3.044260 0.775726 -4.533502
v -1.050677 0.687337 -4.461845
v -0.435354 0.789135 -4.545696
v -0.020731 0.758402 -4.518271
v 0.375000 1.017758 -4.837205
v 0.510000 1.017758 -4.837205
v 0.600000 1.017758 -4.837205
v 0.786674 0.196460 -4.253714
v 0.960000 1.074156 -4.954177
v 0.825000 1.075989 -4.958620
v 1.375000 0.232630 -4.260503
v -2.534337 0.265672 -6.532248
v -3.337500 0.415213 -4.313645
v -2.915000 0.111968 -4.242402
v -2.757497 0.560090 -4.380750
v -2.636836 0.606823 -4.407863
v -1.040761 0.692146 -4.465387
v -0.429793 0.789329 -4.545876
v -0.057121 0.765662 -4.524570
v 0.375000 1.030523 -4.860935
v 0.510000 1.030523 -4.860935
v 0.735000 1.017758 -4.837205
v 0.960000 1.083483 -4.977349
v 0.825000 1.085926 -4.983666
v 1.375000 0.278324 -4.270795
v -2.533293 0.291686 -6.525827
v -3.414361 0.420124 -4.315535
v -2.915000 0.119938 -4.243201
v -3.013567 0.678786 -4.455636
v -2.821794 0.817751 -6.226955
v -1.030870 0.696805 -4.468854
v -0.424246 0.789515 -4.546047
v -0.093120 0.771977 -4.530145
v 0.375000 1.042735 -4.884955
v 0.510000 1.042735 -4.884955
v 0.600000 1.030523 -4.860935
v 0.960000 1.092310 -5.000715
v 0.825000 1.095280 -5.008937
v 1.375000 0.323567 -4.282917
v -2.532214 0.317545 -6.518809
v -2.531098 0.343234 -6.511198
v -3.625000 0.455857 -4.330064
v -3.337500 0.423266 -4.316757
v -2.993082 0.213701 -4.256802
v -3.625000 1.007188 -5.981500
v -2.898742 0.784089 -6.258938
v -2.626199 0.609036 -4.409220
v -1.021004 0.701315 -4.472243
v -0.418715 0.789692 -4.546211
v -0.128565 0.777359 -4.534963
v 0.375000 1.054388 -4.909251
v 0.510000 1.054388 -4.909251
v 0.735000 1.030523 -4.860935
v 0.960000 1.100633 -5.024266
v 0.825000 1.104046 -5.034417
v 1.375000 0.368285 -4.296852
v -3.337500 0.431296 -4.319929
v -3.012500 0.350000 -4.290915
v -2.915000 0.127903 -4.244055
v -2.766559 0.554609 -4.377757
v -3.050027 0.783873 -4.540865
v -1.011160 0.705678 -4.475555
v 0.285000 0.929952 -4.701603
v 0.285000 0.945882 -4.723335
v -0.163301 0.781818 -4.538995
v 0.375000 1.065475 -4.933810
v 0.510000 1.065475 -4.933810
v 0.600000 1.042735 -4.884955
v 0.727529 0.308881 -4.278768
v 0.960000 1.108449 -5.047990
v 0.825000 1.112220 -5.060093
v 1.375000 0.412405 -4.312576
v -3.337500 0.439302 -4.323161
v -2.915000 0.135861 -4.244963
v -3.012766 0.665670 -4.446347
v -2.775413 0.548909 -4.374686
v -1.001336 0.709899 -4.478788
v -0.413199 0.789861 -4.546367
v -0.197275 0.785379 -4.542238
v 0.375000 1.075989 -4.958620
v 0.510000 1.075989 -4.958620
v 0.735000 1.042735 -4.884955
v 0.714697 0.327677 -4.284118
v 0.960000 1.115753 -5.071877
v 0.825000 1.119796 -5.085952
v 1.375000 0.455857 -4.330064
v -3.337500 0.447284 -4.326452
v -2.915000 0.143813 -4.245926
v -2.905990 0.777586 -6.264830
v -3.069516 0.804976 -4.560605
v -3.076663 0.810945 -4.566371
v -0.991528 0.713979 -4.481944
v -0.407697 0.790021 -4.546515
v -0.230535 0.788081 -4.544716
v 0.375000 1.085926 -4.983666
v 0.510000 1.085926 -4.983666
v 0.600000 1.054388 -4.909251
v 0.960000 1.122542 -5.095915
v 0.825000 1.126771 -5.111979
v 1.219708 0.420124 -4.315535
v -3.337500 0.455241 -4.329802
v -2.915000 0.151758 -4.246944
v -2.784047 0.542997 -4.371544
v -2.812620 0.818735 -6.225980
v -0.981733 0.717920 -4.485020
v -0.263136 0.789964 -4.546455
v 0.375000 1.095280 -5.008937
v 0.510000 1.095280 -5.008937
v 0.735000 1.054388 -4.909251
v 0.686386 0.365137 -4.295808
v 0.960000 1.128814 -5.120093
v 0.825000 1.133141 -5.138161
v 1.375000 0.498569 -4.349287
v 1.375000 0.540473 -4.370215
v -3.337500 0.463174 -4.333211
v -2.915000 0.159696 -4.248016
v -3.012500 0.652074 -4.437000
v -2.792449 0.536879 -4.368339
v -2.803426 0.819185 -6.225533
v -0.971949 0.721726 -4.488018
v -0.295131 0.791068 -4.547483
v 0.375000 1.104046 -5.034417
v 0.510000 1.104046 -5.034417
v 0.600000 1.065475 -4.933810
v 0.670895 0.383758 -4.302139
v 0.960000 1.134565 -5.144400
v 0.825000 1.138903 -5.164484
v 1.375000 0.581500 -4.392812
v -3.337500 0.471080 -4.336679
v -2.915000 0.167627 -4.249144
v -3.625000 0.957130 -6.060659
v -2.912921 0.770496 -6.271153
v -2.794214 0.819115 -6.225603
v -0.962171 0.725399 -4.490937
v -0.326574 0.791432 -4.547824
v 0.375000 1.112220 -5.060093
v 0.510000 1.112220 -5.060093
v 0.735000 1.065475 -4.933810
v 0.654505 0.402278 -4.308789
v 0.960000 1.139793 -5.168825
v 0.825000 1.144054 -5.190933
v 1.375000 0.621584 -4.417044
v -3.337500 0.478961 -4.340205
v -2.915000 0.175549 -4.250325
v -3.012500 0.644907 -4.432186
v -2.784996 0.818524 -6.226191
v -0.952397 0.728941 -4.493776
v -0.331919 0.791393 -4.547788
v 0.375000 1.119796 -5.085952
v 0.510000 1.119796 -5.085952
v 0.600000 1.075989 -4.958620
v 0.637212 0.420674 -4.315751
v 0.960000 1.144495 -5.193357
v 0.825000 1.148591 -5.217494
v 1.219708 0.612241 -4.411197
v -3.337500 0.486815 -4.343790
v -2.915000 0.183463 -4.251562
v -2.800612 0.530569 -4.365081
v -2.775789 0.817396 -6.227306
v -0.942625 0.732356 -4.496535
v -0.337270 0.791347 -4.547744
v 0.375000 1.126771 -5.111979
v 0.510000 1.126771 -5.111979
v 0.735000 1.075989 -4.958620
v 0.960000 1.148668 -5.217984
v 0.960000 1.152313 -5.242695
v 1.219708 0.783508 -4.540533
v -3.337500 0.494643 -4.347433
v -2.915000 0.191369 -4.252853
v -2.919504 0.762813 -6.277889
v -2.766613 0.815715 -6.228962
v -0.932850 0.735645 -4.499214
v -0.342629 0.791293 -4.547694
v 0.375000 1.133141 -5.138161
v 0.510000 1.133141 -5.138161
v 0.600000 1.085926 -4.983666
v 0.825000 1.152511 -5.244153
v 0.960000 1.155425 -5.267479
v 1.375000 0.660659 -4.442870
v 1.375000 0.698663 -4.470248
v -3.337500 0.502443 -4.351134
v -2.915000 0.199265 -4.254198
v -3.012500 0.637704 -4.427425
v -2.757488 0.813466 -6.231169
v -0.923070 0.738812 -4.501813
v -0.347996 0.791231 -4.547637
v 0.375000 1.138903 -5.164484
v 0.510000 1.138903 -5.164484
v 0.735000 1.085926 -4.983666
v 0.600000 1.095280 -5.008937
v 0.825000 1.155812 -5.270896
v 0.960000 1.158005 -5.292324
v 1.375000 0.735534 -4.499134
v -3.625000 0.540473 -4.370215
v -2.915000 0.207152 -4.255598
v -3.012500 0.630467 -4.422718
v -2.808527 0.524077 -4.361780
v -2.748464 0.810653 -6.233913
v -0.913282 0.741859 -4.504332
v -0.353371 0.791161 -4.547572
v 0.375000 1.144054 -5.190933
v 0.510000 1.144054 -5.190933
v 0.735000 1.095280 -5.008937
v 0.600000 1.104046 -5.034417
v 0.825000 1.158493 -5.297708
v 0.960000 1.160050 -5.317218
v 1.375000 0.771212 -4.529482
v -3.337500 0.510216 -4.354893
v -2.915000 0.215029 -4.257051
v -3.625000 0.900866 -6.135534
v -2.925704 0.754526 -6.285020
v -2.739610 0.807296 -6.237162
v -0.903483 0.744788 -4.506769
v -0.358755 0.791084 -4.547500
v 0.375000 1.148591 -5.217494
v 0.510000 1.148591 -5.217494
v 0.735000 1.104046 -5.034417
v 0.600000 1.112220 -5.060093
v 0.825000 1.160552 -5.324575
v 0.960000 1.161560 -5.342151
v 0.973255 0.958263 -4.740984
v -3.337500 0.517960 -4.358709
v -2.915000 0.222896 -4.258560
v -3.012500 0.623194 -4.418064
v -2.730999 0.803418 -6.240885
v -0.893669 0.747603 -4.509125
v -0.364148 0.790998 -4.547421
v 0.375000 1.152511 -5.244153
v 0.510000 1.152511 -5.244153
v 0.735000 1.112220 -5.060093
v 0.600000 1.119796 -5.085952
v 0.825000 1.161988 -5.351483
v 0.960000 1.162535 -5.367110
v 0.974909 0.958756 -4.741702
v -3.337500 0.525676 -4.362583
v -2.915000 0.230752 -4.260122
v -3.012500 0.615887 -4.413465
v -2.722698 0.799037 -6.245051
v -0.883841 0.750304 -4.511400
v -0.369552 0.790905 -4.547334
v 0.375000 1.155812 -5.270896
v 0.510000 1.155812 -5.270896
v 0.735000 1.119796 -5.085952
v 0.600000 1.126771 -5.111979
v 0.825000 1.162800 -5.378416
v 0.960000 1.162973 -5.392085
v 0.976562 0.959253 -4.742427
v -3.337500 0.533363 -4.366514
v -2.915000 0.238598 -4.261738
v -3.012500 0.608547 -4.408920
v -2.816184 0.517415 -4.358444
v -2.714725 0.794148 -6.249647
v -0.874000 0.752893 -4.513592
v -0.374966 0.790803 -4.547240
v 0.375000 1.158493 -5.297708
v 0.510000 1.158493 -5.297708
v 0.735000 1.126771 -5.111979
v 0.600000 1.133141 -5.138161
v 0.825000 1.162988 -5.405362
v 0.960000 1.162875 -5.417063
v 0.978215 0.959755 -4.743159
v -3.337500 0.541021 -4.370502
v -2.915000 0.246432 -4.263408
v -3.012500 0.601173 -4.404430
v -2.707064 0.788731 -6.254678
v -0.864149 0.755371 -4.515702
v -0.380390 0.790694 -4.547138
v 0.375000 1.160552 -5.324575
v 0.510000 1.160552 -5.324575
v 0.735000 1.133141 -5.138161
v 0.600000 1.138903 -5.164484
v 0.825000 1.162551 -5.432304
v 0.960000 1.162240 -5.442033
v 0.979868 0.960260 -4.743897
v -3.337500 0.548648 -4.374547
v -2.915000 0.254254 -4.265133
v -2.823575 0.510595 -4.355082
v -2.699697 0.782764 -6.260145
v -0.854291 0.757737 -4.517728
v -0.385827 0.790576 -4.547029
v 0.375000 1.161988 -5.351483
v 0.510000 1.161988 -5.351483
v 0.735000 1.138903 -5.164484
v 0.600000 1.144054 -5.190933
v 0.825000 1.161491 -5.459229
v 0.960000 1.161069 -5.466984
v 0.981520 0.960769 -4.744643
v -3.337500 0.556246 -4.378648
v -2.915000 0.262064 -4.266911
v -3.012500 0.593765 -4.399994
v -2.692611 0.776226 -6.266051
v -0.844427 0.759993 -4.519669
v -0.391275 0.790450 -4.546912
v 0.375000 1.162800 -5.378416
v 0.510000 1.162800 -5.378416
v 0.735000 1.144054 -5.190933
v 0.600000 1.148591 -5.217494
v 0.825000 1.159807 -5.486122
v 0.960000 1.159363 -5.491904
v 0.983172 0.961282 -4.745396
v -3.337500 0.563813 -4.382806
v -2.915000 0.269862 -4.268743
v -3.012500 0.586325 -4.395614
v -2.830691 0.503629 -4.351705
v -2.685826 0.769106 -6.272381
v -0.834561 0.762140 -4.521527
v -0.396736 0.790315 -4.546788
v 0.375000 1.162988 -5.405362
v 0.510000 1.162988 -5.405362
v 0.735000 1.148591 -5.217494
v 0.600000 1.152511 -5.244153
v 0.825000 1.157500 -5.512969
v 0.960000 1.157122 -5.516781
v 0.984823 0.961799 -4.746156
v -3.337500 0.571348 -4.387019
v -2.915000 0.277647 -4.270628
v -3.012500 0.578853 -4.391289
v -2.679379 0.761397 -6.279118
v -0.824693 0.764178 -4.523299
v -0.402210 0.790172 -4.546655
v 0.375000 1.162551 -5.432304
v 0.510000 1.162551 -5.432304
v 0.735000 1.152511 -5.244153
v 0.600000 1.155812 -5.270896
v 0.825000 1.154572 -5.539755
v 0.960000 1.154347 -5.541605
v 0.986474 0.962320 -4.746923
v -3.337500 0.578853 -4.391289
v -2.915000 0.285419 -4.272567
v -2.837523 0.496528 -4.348321
v -2.673308 0.753094 -6.286239
v -0.814827 0.766108 -4.524985
v 0.375000 1.161491 -5.459229
v 0.510000 1.161491 -5.459229
v 0.735000 1.155812 -5.270896
v 0.600000 1.158493 -5.297708
v 0.825000 1.151025 -5.566466
v 0.960000 1.151040 -5.566363
v 0.988124 0.962844 -4.747697
v -3.625000 0.621584 -4.417044
v -2.915000 0.293177 -4.274560
v -3.012500 0.571348 -4.387019
v -2.667651 0.744195 -6.293721
v -0.804966 0.767931 -4.526585
v 0.285000 0.961305 -4.745430
v 0.375000 1.159807 -5.486122
v 0.510000 1.159807 -5.486122
v 0.735000 1.158493 -5.297708
v 0.600000 1.160552 -5.324575
v 0.960000 1.147201 -5.591045
v 0.825000 1.146859 -5.593088
v 0.989774 0.963373 -4.748478
v -3.337500 0.586325 -4.395614
v -2.915000 0.300922 -4.276606
v -3.012500 0.563813 -4.382806
v -2.662436 0.734727 -6.301519
v -0.795110 0.769647 -4.528097
v 0.375000 1.157500 -5.512969
v 0.510000 1.157500 -5.512969
v 0.735000 1.160552 -5.324575
v 0.600000 1.161988 -5.351483
v 0.960000 1.142834 -5.615639
v 0.825000 1.142078 -5.619607
v 0.991423 0.963906 -4.749266
v -3.337500 0.593765 -4.399994
v -2.915000 0.308652 -4.278705
v -3.012500 0.556246 -4.378648
v -2.844063 0.489304 -4.344940
v -2.657688 0.724730 -6.309576
v -0.785263 0.771258 -4.529522
v -0.648781 0.783251 -4.540297
v 0.375000 1.154572 -5.539755
v 0.510000 1.154572 -5.539755
v 0.735000 1.161988 -5.351483
v 0.600000 1.162800 -5.378416
v 0.960000 1.137939 -5.640133
v 0.825000 1.136684 -5.646007
v 0.993072 0.964442 -4.750062
v -3.337500 0.601173 -4.404430
v -2.914879 0.316571 -4.280914
v -3.012500 0.548648 -4.374547
v -2.653430 0.714246 -6.317835
v -1.097326 0.783508 -4.540533
v -0.658459 0.783011 -4.540077
v 0.375000 1.151025 -5.566466
v 0.735000 1.162800 -5.378416
v 0.960000 1.132519 -5.664516
v 0.994720 0.964983 -4.750865
v -3.337500 0.608547 -4.408920
v -2.914513 0.324494 -4.283185
v -2.850307 0.481968 -4.341569
v -2.649685 0.703310 -6.326244
v -0.775427 0.772763 -4.530859
v -0.668144 0.782680 -4.539775
v 0.510000 1.151025 -5.566466
v 0.600000 1.162988 -5.405362
v 0.825000 1.130679 -5.672275
v 1.375000 0.805638 -4.561242
v -3.337500 0.615887 -4.413465
v -2.913898 0.332424 -4.285519
v -3.012500 0.541021 -4.370502
v -2.646452 0.691922 -6.334782
v -0.755798 0.775461 -4.533265
v -0.765605 0.774164 -4.532107
v -0.677839 0.782259 -4.539390
v 0.375000 1.146859 -5.593088
v 0.735000 1.162988 -5.405362
v 0.825000 1.124068 -5.698397
v 0.996368 0.965527 -4.751675
v -3.337500 0.623194 -4.418064
v -2.913031 0.340361 -4.287917
v -2.856255 0.474527 -4.338213
v -2.643724 0.680073 -6.343437
v -0.687542 0.781745 -4.538923
v 0.510000 1.146859 -5.593088
v 0.600000 1.162551 -5.432304
v 0.998015 0.966076 -4.752492
v -3.337500 0.630467 -4.422718
v -2.911908 0.348309 -4.290380
v -3.012500 0.533363 -4.366514
v -2.641493 0.667750 -6.352197
v -0.736230 0.777750 -4.535315
v -0.746006 0.776656 -4.534334
v -0.697256 0.781138 -4.538372
v 0.375000 1.142078 -5.619607
v 0.735000 1.162551 -5.432304
v 0.999662 0.966628 -4.753316
v -3.337500 0.637704 -4.427425
v -3.012500 0.358224 -4.293544
v -3.012500 0.525676 -4.362583
v -2.639752 0.654941 -6.361052
v -0.726467 0.778744 -4.536209
v -0.706981 0.780437 -4.537737
v 0.510000 1.142078 -5.619607
v 0.600000 1.161491 -5.459229
v 1.001307 0.967183 -4.754148
v -3.337500 0.644907 -4.432186
v -3.012500 0.366428 -4.296234
v -2.861907 0.466990 -4.334877
v -2.638504 0.641640 -6.369983
v -0.716718 0.779639 -4.537016
v 0.375000 1.136684 -5.646007
v 0.735000 1.161491 -5.459229
v 1.002952 0.967743 -4.754986
v -3.337500 0.652074 -4.437000
v -2.910523 0.356270 -4.292911
v -3.012500 0.517960 -4.358709
v -2.637752 0.627840 -6.378972
v -2.550925 0.617176 -4.414270
v 0.510000 1.136684 -5.646007
v 0.600000 1.159807 -5.486122
v 1.004595 0.968306 -4.755832
v -3.625000 0.698663 -4.470248
v -3.012500 0.374612 -4.298985
v -2.867263 0.459366 -4.331567
v -2.637500 0.613535 -6.388000
v 0.285000 0.976212 -4.767877
v 0.285000 0.990595 -4.790664
v 0.375000 1.130679 -5.672275
v 0.735000 1.159807 -5.486122
v 1.006238 0.968873 -4.756685
v -3.337242 0.665465 -4.446204
v -2.908874 0.364245 -4.295510
v -3.012500 0.502443 -4.351134
v -3.012500 0.510216 -4.354893
v -2.637500 0.607188 -6.391913
v 0.285000 1.004446 -4.813777
v 0.510000 1.130679 -5.672275
v 0.600000 1.157500 -5.512969
v 1.007879 0.969443 -4.757545
v -3.336466 0.678402 -4.455360
v -3.012500 0.382775 -4.301796
v -2.872325 0.451664 -4.328288
v -2.637500 0.600817 -6.395785
v -2.637500 0.594421 -6.399616
v 0.285000 1.017758 -4.837205
v 0.375000 1.124068 -5.698397
v 0.735000 1.157500 -5.512969
v 1.009520 0.970017 -4.758412
v -3.335168 0.690905 -4.464466
v -2.906956 0.372237 -4.298180
v -3.012500 0.494643 -4.347433
v -2.637500 0.588000 -6.403407
v 0.285000 1.030523 -4.860935
v 0.510000 1.124068 -5.698397
v 0.600000 1.154572 -5.539755
v 1.011159 0.970595 -4.759286
v -3.333343 0.702996 -4.473520
v -3.012500 0.390917 -4.304668
v -2.877091 0.443891 -4.325045
v -2.637500 0.581555 -6.407156
v 0.285000 1.042735 -4.884955
v 0.735000 1.154572 -5.539755
v 1.012796 0.971176 -4.760168
v -3.330990 0.714683 -4.482509
v -2.904766 0.380245 -4.300920
v -3.012500 0.486815 -4.343790
v -2.637500 0.575087 -6.410863
v 0.285000 1.054388 -4.909251
v 0.600000 1.151025 -5.566466
v 1.014432 0.971761 -4.761056
v -3.625000 0.771212 -4.529482
v -3.012500 0.399038 -4.307600
v -3.012500 0.478961 -4.340205
v -2.637500 0.568594 -6.414529
v 0.285000 1.065475 -4.933810
v 0.735000 1.151025 -5.566466
v 1.016067 0.972349 -4.761952
v -3.328118 0.725941 -4.491391
v -3.012500 0.407136 -4.310592
v -2.881563 0.436058 -4.321843
v -2.637500 0.562079 -6.418153
v 0.285000 1.075989 -4.958620
v 0.600000 1.146859 -5.593088
v 1.017700 0.972941 -4.762854
v -3.324736 0.736734 -4.500118
v -2.902300 0.388262 -4.303728
v -3.012500 0.471080 -4.336679
v -2.637500 0.555540 -6.421736
v 0.285000 1.085926 -4.983666
v 0.735000 1.146859 -5.593088
v 1.019331 0.973536 -4.763764
v -3.320855 0.747028 -4.508642
v -3.012500 0.415213 -4.313645
v -2.885741 0.428172 -4.318688
v -2.637500 0.548978 -6.425276
v 0.285000 1.095280 -5.008937
v 0.600000 1.142078 -5.619607
v 1.375000 0.838758 -4.594362
v -3.316490 0.756796 -4.516920
v -2.899556 0.396279 -4.306602
v -3.012500 0.463174 -4.333211
v -2.637500 0.542394 -6.428775
v 0.285000 1.104046 -5.034417
v 0.735000 1.142078 -5.619607
v 1.020961 0.974134 -4.764680
v -3.625000 0.838758 -4.594362
v -3.012500 0.423266 -4.316757
v -3.012500 0.455241 -4.329802
v -2.637500 0.535788 -6.432231
v 0.285000 1.112220 -5.060093
v 0.600000 1.136684 -5.646007
v 1.022589 0.974736 -4.765604
v -3.311664 0.766028 -4.524917
v -2.896531 0.404288 -4.309537
v -2.889626 0.420243 -4.315583
v -2.637500 0.529159 -6.435644
v 0.285000 1.119796 -5.085952
v 0.735000 1.136684 -5.646007
v 1.024215 0.975341 -4.766535
v -3.306404 0.774717 -4.532600
v -3.012500 0.431296 -4.319929
v -3.012500 0.447284 -4.326452
v -2.637500 0.522509 -6.439015
v 0.285000 1.126771 -5.111979
v 0.600000 1.130679 -5.672275
v 1.025839 0.975950 -4.767473
v -3.300737 0.782855 -4.539938
v -3.012500 0.439302 -4.323161
v -2.893222 0.412278 -4.312532
v -2.637500 0.515838 -6.442344
v 0.285000 1.133141 -5.138161
v 0.735000 1.130679 -5.672275
v 1.027462 0.976562 -4.768418
v -3.294690 0.790441 -4.546904
v -2.637500 0.509145 -6.445629
v 0.285000 1.138903 -5.164484
v 0.600000 1.124068 -5.698397
v 1.029083 0.977177 -4.769370
v -3.625000 0.900866 -4.664466
v -2.637500 0.502431 -6.448872
v 0.285000 1.144054 -5.190933
v 0.735000 1.124068 -5.698397
v 1.030702 0.977795 -4.770329
v -3.288292 0.797482 -4.553482
v -2.637500 0.495696 -6.452071
v 0.285000 1.148591 -5.217494
v 1.032319 0.978417 -4.771296
v -3.281575 0.803991 -4.559662
v -2.637500 0.488942 -6.455228
v 0.285000 1.152511 -5.244153
v 1.033935 0.979042 -4.772270
v -3.274567 0.809975 -4.565429
v -2.637500 0.482167 -6.458340
v 0.285000 1.155812 -5.270896
v 1.035549 0.979671 -4.773251
v -3.625000 0.957130 -4.739341
v -2.637500 0.475372 -6.461410
v 0.285000 1.158493 -5.297708
v 1.037161 0.980303 -4.774240
v -3.267282 0.815450 -4.570775
v -2.637500 0.468558 -6.464435
v 0.285000 1.160552 -5.324575
v 1.038772 0.980938 -4.775236
v -3.259704 0.820431 -4.575703
v -2.637500 0.461724 -6.467417
v 0.285000 1.161988 -5.351483
v 1.040381 0.981576 -4.776239
v -3.251811 0.824937 -4.580214
v -2.637500 0.454872 -6.470355
v 0.285000 1.162800 -5.378416
v 1.041988 0.982218 -4.777250
v -3.243586 0.828985 -4.584309
v -2.637500 0.448000 -6.473250
v 0.285000 1.162988 -5.405362
v 1.043594 0.982863 -4.778268
v -3.625000 1.007188 -4.818500
v -2.615539 0.610985 -4.410420
v -2.637500 0.441111 -6.476100
v 0.285000 1.162551 -5.432304
v 1.375000 0.870518 -4.628788
v -3.235043 0.832578 -4.587977
v -2.604857 0.612669 -4.411461
v -2.637500 0.434203 -6.478905
v 0.285000 1.161491 -5.459229
v 1.045198 0.983511 -4.779294
v -3.226248 0.835694 -4.591184
v -3.056175 0.791455 -4.547844
v -2.637500 0.427277 -6.481667
v 0.285000 1.159807 -5.486122
v 1.046800 0.984162 -4.780328
v -3.414361 0.928094 -4.699136
v -3.084105 0.816403 -4.571715
v -2.637500 0.420334 -6.484384
v 0.285000 1.157500 -5.512969
v 1.048401 0.984817 -4.781369
v -3.625000 1.050713 -4.901431
v -3.217272 0.838311 -4.593896
v -3.091848 0.821362 -4.576632
v -2.637500 0.413374 -6.487056
v 0.285000 1.154572 -5.539755
v 1.050000 0.985475 -4.782418
v -3.208184 0.840406 -4.596080
v -3.099897 0.825830 -4.581114
v -2.637500 0.406396 -6.489684
v 0.285000 1.151025 -5.566466
v 1.375000 0.900866 -4.664466
v -3.199032 0.841973 -4.597720
v -3.108259 0.829817 -4.585155
v -2.637500 0.399402 -6.492267
v 0.285000 1.146859 -5.593088
v 1.375000 0.929752 -4.701337
v -3.625000 1.087424 -4.987595
v -3.116910 0.833323 -4.588740
v -2.637500 0.392392 -6.494805
v 0.285000 1.142078 -5.619607
v 1.375000 0.957130 -4.739341
v -3.189839 0.843024 -4.598824
v -3.625000 1.154520 -5.540184
v -3.625000 1.162057 -5.446829
v -2.637500 0.385365 -6.497298
v 0.285000 1.136684 -5.646007
v 1.375000 0.982956 -4.778416
v -3.180627 0.843572 -4.599402
v -2.637500 0.378323 -6.499746
v 0.285000 1.130679 -5.672275
v 1.050000 0.997138 -4.801431
v -3.625000 1.117083 -5.076433
v -2.637500 0.371265 -6.502149
v 1.375000 1.007188 -4.818500
v -3.171416 0.843629 -4.599463
v -3.414361 1.041075 -5.918394
v -2.637500 0.364191 -6.504506
v -0.254768 1.118603 -5.081730
v 1.050000 1.008434 -4.820665
v -3.162222 0.843196 -4.599006
v -2.150524 1.158039 -5.507308
v 1.050000 1.019360 -4.840112
v -3.414361 1.041075 -4.881606
v -2.561797 0.616792 -4.414028
v 1.375000 1.029785 -4.859527
v -3.625000 1.139497 -5.167370
v -3.153050 0.842261 -4.598023
v -3.414361 0.928094 -6.100864
v -2.571803 0.783508 -4.540533
v 1.050000 1.029910 -4.859764
v -3.143908 0.840811 -4.596504
v -2.572621 0.616150 -4.413626
v 1.050000 1.040081 -4.879616
v -3.625000 1.154520 -5.259816
v -2.931489 0.745631 -6.292525
v -3.062679 0.798484 -4.554427
v 1.219708 1.041075 -4.881606
v -3.134805 0.838834 -4.594441
v -2.936832 0.736147 -6.300362
v -2.583403 0.615250 -4.413064
v 1.375000 1.050713 -4.901431
v 1.050000 1.049870 -4.899659
v -2.993082 1.158039 -5.507308
v -3.203721 0.783508 -6.259467
v -2.594146 0.614090 -4.412343
v 1.050000 1.059273 -4.919886
v -3.125782 0.836333 -4.591844
v -3.625000 0.838758 -6.205638
v -2.941706 0.726105 -6.308480
v 1.375000 1.069936 -4.944143
v -2.946085 0.715537 -6.316829
v 1.050000 1.068286 -4.940289
v -3.625000 1.162057 -5.353171
v -3.203721 1.158039 -5.507308
v 1.050000 1.076906 -4.960862
v -3.414361 0.783508 -6.259467
v -3.625000 0.771212 -6.270518
v -2.949945 0.704470 -6.325361
v 1.375000 1.087424 -4.987595
v -2.956103 0.680883 -6.342850
v -2.953284 0.692916 -6.334043
v -3.625000 0.698663 -6.329752
v -2.958407 0.668375 -6.351758
v -2.960198 0.655396 -6.360742
v -2.961477 0.641938 -6.369787
v -3.625000 0.621584 -6.382956
v -2.962244 0.627988 -6.378877
v -2.962500 0.613535 -6.388000
v -2.962500 0.607188 -6.391913
v -2.962500 0.600817 -6.395785
v -2.962500 0.594421 -6.399616
v -2.962500 0.588000 -6.403407
v -2.962500 0.581555 -6.407156
v -3.625000 0.540473 -6.429785
v -2.962500 0.575087 -6.410863
v -2.962500 0.568594 -6.414529
v -2.962500 0.562079 -6.418153
v -2.962500 0.555540 -6.421736
v -2.962500 0.548978 -6.425276
v -2.962500 0.542394 -6.428775
v -2.962500 0.535788 -6.432231
v -2.962500 0.529159 -6.435644
v -2.962500 0.522509 -6.439015
v -2.962500 0.515838 -6.442344
v -2.962500 0.509145 -6.445629
v -2.962500 0.502431 -6.448872
v -2.962500 0.495696 -6.452071
v -3.625000 0.455857 -6.469936
v -2.962500 0.488942 -6.455228
v -2.962500 0.482167 -6.458340
v -2.962500 0.475372 -6.461410
v -2.962500 0.468558 -6.464435
v -2.962500 0.461724 -6.467417
v -2.962500 0.454872 -6.470355
v -2.962500 0.448000 -6.473250
v -2.962500 0.441111 -6.476100
v -2.962500 0.434203 -6.478905
v -2.962500 0.427277 -6.481667
v -2.962500 0.420334 -6.484384
v -2.962500 0.413374 -6.487056
v -3.625000 0.368285 -6.503148
v -3.203721 0.420124 -6.484465
v -2.962500 0.406396 -6.489684
v -2.962500 0.399402 -6.492267
v -2.962500 0.392392 -6.494805
v -2.962500 0.385365 -6.497298
v -2.962500 0.378323 -6.499746
v -2.962500 0.371265 -6.502149
v -2.962500 0.364191 -6.504506
v -2.962500 0.357103 -6.506818
v -3.625000 0.278324 -6.529205
v -3.625000 0.186558 -6.547939
v -3.414361 0.213701 -6.543198
v -2.529943 0.368740 -6.502996
v -2.528747 0.394048 -6.494208
v -2.527509 0.419146 -6.484840
v -2.526226 0.444019 -6.474898
v -2.524897 0.468653 -6.464389
v -2.523520 0.493034 -6.453318
v -2.522094 0.517149 -6.441692
v -2.520616 0.540984 -6.429518
v -2.519084 0.564525 -6.416801
v -2.517496 0.587761 -6.403549
v -2.515847 0.610681 -6.389770
v -2.514137 0.633274 -6.375469
v -2.512360 0.655527 -6.360656
v -2.510514 0.677429 -6.345337
v -2.508597 0.698970 -6.329519
v -2.506606 0.720136 -6.313213
v -2.504537 0.740917 -6.296430
v -2.502388 0.761299 -6.279183
v -2.500156 0.781270 -6.261485
v -2.497838 0.800819 -6.243349
v -2.495432 0.819933 -6.224786
v -2.492935 0.838600 -6.205810
v -2.490344 0.856814 -6.186425
v -2.487652 0.874570 -6.166636
v -2.484858 0.891867 -6.146445
v -2.481955 0.908701 -6.125855
v -2.478940 0.925070 -6.104867
v -2.475808 0.940969 -6.083484
v -2.472556 0.956396 -6.061711
v -2.469191 0.971341 -6.039559
v -2.465725 0.985793 -6.017044
v -2.462172 0.999738 -5.994183
v -2.458543 1.013166 -5.970993
v -2.637500 0.357103 -6.506818
v 0.961709 1.132679 -5.663831
v 0.963416 1.132840 -5.663141
v 0.965120 1.133001 -5.662444
v 0.966822 1.133164 -5.661741
v 0.968520 1.133328 -5.661032
v 0.970217 1.133492 -5.660316
v 0.971910 1.133658 -5.659594
v 0.973601 1.133824 -5.658866
v 0.975290 1.133992 -5.658131
v 0.976976 1.134160 -5.657391
v 0.978660 1.134329 -5.656643
v 0.980341 1.134500 -5.655890
v 0.982020 1.134671 -5.655130
v 0.983696 1.134843 -5.654364
v 0.985370 1.135016 -5.653591
v 0.987041 1.135189 -5.652812
v 0.988710 1.135364 -5.652027
v 0.990377 1.135540 -5.651235
v 0.992042 1.135716 -5.650436
v 0.993704 1.135893 -5.649632
v 0.995363 1.136071 -5.648820
v 0.997020 1.136250 -5.648003
v 0.998675 1.136429 -5.647179
v 1.000327 1.136610 -5.646349
v 1.001976 1.136791 -5.645512
v 1.003623 1.136972 -5.644669
v 1.005267 1.137155 -5.643820
v 1.006908 1.137338 -5.642965
v 1.008546 1.137521 -5.642104
v 1.010181 1.137706 -5.641236
v 1.011813 1.137891 -5.640362
v 1.013442 1.138076 -5.639482
v 1.015068 1.138262 -5.638596
v 1.016691 1.138449 -5.637705
v 1.018310 1.138636 -5.636807
v 1.019926 1.138823 -5.635903
v 1.021539 1.139012 -5.634993
v 1.023148 1.139200 -5.634077
v 1.024754 1.139389 -5.633155
v 1.026356 1.139579 -5.632227
v 1.027956 1.139769 -5.631293
v 1.029551 1.139959 -5.630353
v 1.031144 1.140150 -5.629408
v 1.032733 1.140341 -5.628456
v 1.034319 1.140532 -5.627498
v 1.035901 1.140724 -5.626534
v 1.037481 1.140916 -5.625564
v 1.039057 1.141109 -5.624587
v 1.040629 1.141302 -5.623605
v 1.042199 1.141495 -5.622617
v 1.043766 1.141689 -5.621622
v 1.045329 1.141882 -5.620621
v 1.046889 1.142076 -5.619615
v 1.048446 1.142271 -5.618602
v 1.375000 1.163000 -5.400000
v 1.050000 1.146428 -5.595632
v 1.050000 1.149969 -5.573609
v 1.050000 1.085130 -4.981596
v 1.050000 1.092955 -5.002484
v 1.375000 1.103148 -5.031715
v 1.050000 1.100377 -5.023518
v 1.050000 1.107395 -5.044691
v 1.375000 1.117083 -5.076433
v 1.050000 1.114006 -5.065995
v 1.050000 1.120207 -5.087421
v 1.050000 1.125996 -5.108962
v 1.375000 1.129205 -5.121676
v 1.050000 1.131370 -5.130611
v 1.050000 1.136329 -5.152358
v 1.375000 1.139497 -5.167370
v 1.050000 1.140869 -5.174197
v 1.050000 1.144990 -5.196118
v 1.375000 1.147939 -5.213442
v 1.050000 1.148689 -5.218115
v 1.050000 1.151966 -5.240179
v 1.375000 1.154520 -5.259816
v 1.050000 1.154819 -5.262301
v 1.050000 1.157248 -5.284474
v 1.219708 1.158039 -5.292692
v 1.375000 1.159229 -5.306417
v 1.050000 1.159251 -5.306689
v 1.050000 1.160827 -5.328939
v 1.375000 1.162057 -5.353171
v 1.050000 1.161976 -5.351215
v 1.050000 1.162698 -5.373509
v 1.050000 1.162992 -5.395813
v 1.050000 1.162859 -5.418118
v 1.050000 1.162298 -5.440416
v 1.050000 1.161309 -5.462700
v 1.050000 1.159893 -5.484961
v 1.050000 1.158050 -5.507190
v 1.050000 1.155781 -5.529380
v 1.050000 1.153087 -5.551522
v 1.009069 0.213701 -4.256802
v 1.219708 0.213701 -4.256802
v 1.009069 0.612241 -4.411197
v 1.009069 0.783508 -4.540533
v -1.729245 1.118603 -5.718270
v -1.518605 1.118603 -5.081730
v -0.044129 1.158039 -5.507308
v -0.465408 1.041075 -4.881606
v -0.465408 1.118603 -5.081730
v -0.465408 1.158039 -5.507308
v -0.886687 1.158039 -5.292692
v -0.465408 1.158039 -5.292692
v -1.307966 1.158039 -5.507308
v -0.676047 1.118603 -5.081730
v -0.676047 1.158039 -5.292692
v -0.676047 1.158039 -5.507308
v -0.886687 0.928094 -4.699136
v -1.307966 1.158039 -5.292692
v -1.097326 1.041075 -4.881606
v -0.886687 1.041075 -4.881606
v -1.097326 1.118603 -5.081730
v -0.886687 1.118603 -5.081730
v -0.886687 1.158039 -5.507308
v -1.307966 1.118603 -5.081730
v -1.097326 1.158039 -5.507308
v -2.361163 0.928094 -4.699136
v -1.518605 0.783508 -4.540533
v -1.307966 0.928094 -4.699136
v -1.729245 0.783508 -4.540533
v -1.729245 0.928094 -4.699136
v -1.729245 1.041075 -4.881606
v -1.939884 1.118603 -5.081730
v -1.939884 0.928094 -4.699136
v -2.150524 1.158039 -5.292692
v -1.939884 1.041075 -4.881606
v -2.150524 0.928094 -4.699136
v -2.150524 1.118603 -5.081730
v -2.150524 1.041075 -4.881606
v -2.361163 1.158039 -5.292692
v -2.361163 1.041075 -4.881606
v -2.361163 1.118603 -5.081730
v -2.571803 1.158039 -5.292692
v -2.993082 0.783508 -4.540533
v -2.782442 0.928094 -4.699136
v -2.571803 1.041075 -4.881606
v -2.571803 1.118603 -5.081730
v -2.782442 1.041075 -4.881606
v -2.782442 0.783508 -4.540533
v -3.203721 1.041075 -4.881606
v -2.782442 1.158039 -5.292692
v -3.203721 1.158039 -5.292692
v -2.782442 1.158039 -5.507308
v -2.993082 1.118603 -5.718270
v -2.782442 0.928094 -6.100864
v -2.782442 1.041075 -5.918394
v -2.993082 1.118603 -5.081730
v -3.203721 1.118603 -5.718270
v -3.414361 1.118603 -5.718270
v -2.993082 1.041075 -5.918394
v -3.203721 1.041075 -5.918394
v -3.203721 0.213701 -6.543198
v -3.203721 1.118603 -5.081730
v -3.414361 1.118603 -5.081730
v -3.414361 1.158039 -5.292692
v -3.414361 0.420124 -6.484465
v 1.009069 0.612241 -4.411197
v -0.149449 1.158039 -5.292692
v -1.729245 1.118603 -5.081730
v -2.571803 0.928094 -4.699136
v 1.114388 0.518394 -4.358925
v -1.202646 1.041075 -4.881606
v -0.254768 1.143198 -5.186299
v -0.254768 1.158039 -5.292692
v -0.781367 1.041075 -4.881606
v -1.834564 1.041075 -4.881606
v -1.939884 1.084465 -4.979876
v -2.045204 1.041075 -4.881606
v -2.045204 1.118603 -5.081730
v -2.255843 1.084465 -4.979876
v -2.255843 1.041075 -4.881606
v -2.677122 1.118603 -5.081730
v -1.939884 1.158039 -5.292692
v 1.114388 0.420124 -4.315535
v 1.167048 0.369591 -4.297289
v 1.061728 0.657254 -4.440528
v -0.149449 1.161759 -5.346289
v -0.360088 1.102711 -5.030409
v -1.518605 1.041075 -4.881606
v -1.834564 1.016023 -4.834079
v -1.887224 1.041075 -4.881606
v -2.045204 1.132108 -5.133731
v -2.203184 1.016023 -4.834079
v -2.308503 1.132108 -5.133731
f 1 2 3
f 4 5 6
f 7 5 8
f 7 8 9
f 10 11 12
f 13 14 15
f 16 17 18
f 19 20 21
f 20 22 23
f 23 24 25
f 25 26 27
f 27 28 29
f 29 30 31
f 31 32 33
f 33 34 21
f 21 35 36
f 36 37 38
f 39 40 41
f 39 42 43
f 39 44 45
f 39 46 47
f 48 49 50
f 48 50 51
f 52 53 54
f 55 56 57
f 58 59 60
f 61 62 63
f 58 64 59
f 65 66 67
f 68 69 65
f 65 70 71
f 72 73 65
f 65 74 75
f 76 77 65
f 78 79 65
f 80 81 65
f 82 83 65
f 84 85 65
f 86 87 65
f 88 89 65
f 90 91 65
f 65 92 93
f 65 94 95
f 65 96 97
f 65 98 99
f 65 100 101
f 65 102 103
f 65 104 105
f 65 106 107
f 65 108 109
f 65 110 111
f 65 112 113
f 113 114 115
f 115 116 117
f 117 118 119
f 120 121 113
f 122 123 113
f 124 125 113
f 97 126 127
f 128 129 97
f 129 130 131
f 131 132 133
f 133 134 135
f 135 136 137
f 137 138 139
f 139 140 141
f 141 142 143
f 143 144 145
f 146 147 148
f 149 150 148
f 151 152 148
f 153 154 148
f 148 155 156
f 157 158 148
f 159 160 148
f 161 162 148
f 162 163 164
f 165 166 167
f 167 168 169
f 170 171 167
f 167 172 173
f 174 175 167
f 176 177 178
f 167 176 178
f 179 180 162
f 181 182 162
f 162 183 184
f 185 186 162
f 187 188 162
f 189 190 162
f 162 191 192
f 193 148 162
f 194 195 196
f 197 198 194
f 194 199 200
f 201 202 194
f 203 204 194
f 205 206 194
f 194 207 208
f 209 210 194
f 194 211 212
f 213 214 194
f 194 215 216
f 217 218 194
f 219 220 194
f 221 222 194
f 194 223 224
f 225 226 194
f 226 227 228
f 228 229 230
f 148 231 232
f 232 233 234
f 235 236 237
f 238 239 235
f 240 241 1
f 4 7 242
f 7 9 243
f 12 11 244
f 10 245 11
f 16 18 246
f 21 20 23
f 23 25 27
f 27 29 31
f 31 33 21
f 21 36 38
f 41 42 39
f 45 46 39
f 247 48 39
f 39 50 248
f 56 249 53
f 250 56 251
f 58 60 252
f 52 62 253
f 254 255 256
f 257 258 62
f 68 65 67
f 72 65 71
f 76 65 75
f 80 65 79
f 84 65 83
f 88 65 87
f 91 92 65
f 95 96 65
f 99 100 65
f 103 104 65
f 107 108 65
f 111 112 65
f 113 115 117
f 120 113 119
f 124 113 123
f 128 97 127
f 145 131 133
f 133 135 137
f 137 139 141
f 141 143 145
f 151 148 150
f 153 148 152
f 157 148 156
f 161 148 160
f 165 167 164
f 170 167 169
f 174 167 173
f 167 175 176
f 181 162 180
f 185 162 184
f 189 162 188
f 193 162 192
f 197 194 196
f 201 194 200
f 205 194 204
f 209 194 208
f 213 194 212
f 217 194 216
f 221 194 220
f 225 194 224
f 226 228 230
f 236 232 234
f 1 259 2
f 242 7 260
f 7 243 261
f 262 15 263
f 264 245 10
f 16 246 265
f 23 27 21
f 27 31 21
f 38 40 39
f 47 266 39
f 267 247 39
f 248 50 268
f 269 249 56
f 251 56 270
f 252 60 255
f 253 62 271
f 62 272 271
f 258 273 274
f 65 69 70
f 78 65 77
f 86 65 85
f 93 94 65
f 101 102 65
f 109 110 65
f 119 113 117
f 97 125 126
f 133 137 145
f 137 141 145
f 148 154 155
f 159 148 158
f 167 166 168
f 167 171 172
f 162 182 183
f 162 190 191
f 194 198 199
f 194 206 207
f 194 214 215
f 194 222 223
f 231 226 230
f 237 238 235
f 259 1 275
f 260 7 276
f 7 261 277
f 244 11 278
f 13 279 14
f 16 265 280
f 38 19 21
f 43 44 39
f 281 267 39
f 248 268 282
f 283 269 284
f 251 270 285
f 252 255 286
f 271 272 287
f 272 288 287
f 258 255 289
f 65 73 74
f 90 65 89
f 105 106 65
f 122 113 121
f 226 146 162
f 149 148 147
f 179 162 167
f 187 162 186
f 203 194 202
f 219 194 218
f 235 239 290
f 275 1 291
f 276 7 292
f 7 277 293
f 244 278 294
f 264 295 245
f 16 280 296
f 41 19 38
f 39 266 297
f 298 281 39
f 282 268 299
f 55 283 56
f 285 270 300
f 286 255 301
f 287 288 302
f 288 303 302
f 289 255 304
f 82 65 81
f 113 129 305
f 146 226 145
f 226 166 148
f 194 210 211
f 290 306 235
f 291 1 307
f 292 7 308
f 7 293 309
f 262 263 310
f 311 295 264
f 16 296 312
f 297 313 39
f 314 298 39
f 282 299 315
f 316 55 250
f 285 300 317
f 301 255 318
f 302 303 319
f 303 320 319
f 304 255 321
f 97 98 65
f 226 133 146
f 226 232 194
f 307 1 235
f 292 308 322
f 7 309 323
f 324 294 278
f 325 295 311
f 16 312 326
f 39 313 327
f 328 314 39
f 315 299 329
f 330 316 250
f 317 300 331
f 318 255 332
f 319 320 333
f 320 334 333
f 321 255 335
f 65 133 226
f 307 235 336
f 292 322 337
f 7 323 338
f 324 339 340
f 279 341 342
f 16 326 343
f 327 344 39
f 345 328 39
f 315 329 346
f 347 330 250
f 317 331 348
f 332 255 349
f 333 334 350
f 334 351 350
f 335 255 352
f 336 235 353
f 292 337 354
f 7 338 355
f 356 310 357
f 325 358 295
f 16 343 359
f 38 39 360
f 361 345 362
f 346 329 363
f 347 250 50
f 348 331 364
f 349 255 365
f 350 351 366
f 351 367 366
f 368 255 273
f 369 235 370
f 292 354 371
f 7 355 372
f 373 339 324
f 374 358 325
f 16 359 375
f 39 344 376
f 377 361 39
f 346 363 378
f 347 50 379
f 348 364 380
f 365 255 381
f 366 367 382
f 367 383 382
f 255 384 352
f 370 235 385
f 292 371 386
f 7 372 387
f 388 389 373
f 279 232 390
f 16 375 391
f 376 392 39
f 393 377 39
f 378 363 394
f 379 50 49
f 380 364 395
f 381 255 396
f 382 383 397
f 382 397 398
f 273 399 400
f 385 235 401
f 292 386 402
f 7 387 403
f 356 357 404
f 374 405 358
f 16 391 406
f 39 392 407
f 408 393 39
f 378 394 409
f 409 394 410
f 380 395 411
f 396 255 412
f 398 397 413
f 398 413 414
f 273 400 415
f 401 235 416
f 292 402 417
f 7 403 418
f 388 419 389
f 420 405 374
f 16 406 421
f 407 422 39
f 423 408 39
f 409 410 424
f 424 410 425
f 411 395 426
f 412 255 254
f 414 413 427
f 414 427 428
f 273 415 429
f 416 235 430
f 292 417 431
f 7 418 432
f 433 419 388
f 390 232 434
f 16 421 435
f 39 422 436
f 437 423 39
f 424 425 438
f 438 425 439
f 411 426 440
f 256 255 368
f 428 427 441
f 428 441 442
f 273 429 443
f 444 235 445
f 446 417 447
f 7 432 448
f 449 404 450
f 405 420 451
f 16 435 452
f 436 453 39
f 454 437 39
f 438 439 455
f 455 439 456
f 440 426 457
f 257 273 258
f 442 441 458
f 442 458 459
f 273 443 460
f 446 447 461
f 462 432 463
f 433 464 419
f 405 451 465
f 16 452 466
f 41 467 468
f 469 454 39
f 455 456 470
f 470 456 471
f 440 457 472
f 473 257 62
f 459 458 474
f 459 474 475
f 273 460 476
f 446 461 477
f 462 463 478
f 479 480 433
f 434 232 290
f 16 466 481
f 39 453 482
f 483 469 39
f 470 471 484
f 484 471 485
f 472 457 486
f 487 473 62
f 475 474 488
f 475 488 489
f 273 476 490
f 446 477 491
f 462 478 492
f 449 450 493
f 494 232 495
f 16 481 496
f 482 497 39
f 498 483 39
f 484 485 499
f 499 485 500
f 472 486 501
f 61 487 62
f 489 488 502
f 489 502 503
f 273 490 504
f 446 491 505
f 462 492 506
f 479 507 480
f 434 290 508
f 16 496 509
f 510 498 39
f 499 500 511
f 511 500 512
f 501 486 513
f 514 61 52
f 503 502 515
f 503 515 516
f 273 517 518
f 446 505 519
f 462 506 520
f 521 522 507
f 508 290 523
f 16 509 524
f 525 510 39
f 511 512 526
f 526 512 527
f 501 513 528
f 529 514 52
f 516 515 530
f 516 530 531
f 273 518 532
f 446 519 533
f 462 520 534
f 535 493 536
f 523 290 537
f 16 524 538
f 539 525 39
f 526 527 540
f 540 527 541
f 528 513 542
f 543 529 52
f 531 530 544
f 531 544 545
f 273 532 546
f 446 533 547
f 462 534 548
f 549 522 521
f 537 290 550
f 16 538 551
f 552 539 39
f 540 541 553
f 553 541 554
f 528 542 555
f 556 543 52
f 545 544 557
f 545 557 558
f 273 546 559
f 446 547 560
f 462 548 561
f 549 562 522
f 550 290 563
f 16 551 564
f 565 552 39
f 553 554 566
f 566 554 567
f 555 542 568
f 54 556 52
f 558 557 569
f 558 569 570
f 384 546 571
f 446 560 572
f 462 561 573
f 535 536 574
f 563 290 575
f 16 564 576
f 577 565 39
f 566 567 578
f 578 567 579
f 555 568 580
f 52 56 53
f 558 570 581
f 581 570 582
f 384 583 584
f 446 572 585
f 462 573 586
f 587 562 549
f 575 290 588
f 16 576 589
f 590 577 39
f 578 579 591
f 591 579 592
f 580 568 593
f 580 593 594
f 581 582 595
f 595 582 596
f 384 584 597
f 446 585 598
f 462 586 599
f 600 601 562
f 588 290 602
f 16 589 603
f 604 590 39
f 591 592 605
f 605 592 606
f 594 593 607
f 594 607 608
f 595 596 609
f 609 596 610
f 384 597 611
f 598 585 612
f 462 599 613
f 614 574 615
f 602 290 616
f 16 603 617
f 618 604 39
f 605 606 619
f 619 606 620
f 608 607 621
f 608 621 622
f 609 610 623
f 623 610 624
f 384 611 625
f 598 612 626
f 462 613 627
f 628 601 600
f 616 290 629
f 16 617 630
f 631 618 39
f 619 620 632
f 632 620 633
f 622 621 634
f 622 634 635
f 623 624 636
f 636 624 637
f 625 611 638
f 598 626 639
f 462 627 640
f 641 601 628
f 629 290 642
f 16 630 643
f 644 631 39
f 632 633 645
f 645 633 646
f 635 634 647
f 635 647 648
f 636 637 649
f 649 637 650
f 638 611 651
f 598 639 652
f 462 640 653
f 654 655 641
f 642 290 656
f 16 643 657
f 658 644 39
f 645 646 659
f 659 646 660
f 648 647 661
f 648 661 662
f 649 650 663
f 663 650 664
f 651 611 665
f 598 652 666
f 462 653 667
f 668 655 654
f 656 290 669
f 16 657 670
f 671 658 39
f 659 660 672
f 672 660 673
f 662 661 674
f 662 674 675
f 663 664 676
f 676 664 677
f 665 611 678
f 598 666 679
f 462 667 680
f 668 681 655
f 669 290 682
f 16 670 683
f 684 671 39
f 672 673 685
f 685 673 686
f 675 674 687
f 675 687 688
f 676 677 689
f 689 677 690
f 678 611 691
f 598 679 692
f 462 680 693
f 694 681 668
f 682 290 695
f 16 683 696
f 697 684 39
f 685 686 698
f 698 686 699
f 688 687 700
f 688 700 701
f 689 690 702
f 702 690 703
f 691 611 704
f 598 692 705
f 462 693 706
f 707 708 681
f 695 290 709
f 16 696 710
f 711 697 39
f 698 699 712
f 712 699 713
f 701 700 714
f 701 714 715
f 702 703 716
f 716 703 717
f 704 611 718
f 598 705 719
f 462 706 720
f 721 708 707
f 709 290 722
f 16 710 723
f 724 711 39
f 712 713 725
f 725 713 726
f 715 714 727
f 715 727 728
f 716 717 729
f 729 717 730
f 718 611 731
f 598 719 732
f 462 720 733
f 721 734 708
f 722 290 735
f 16 723 736
f 497 724 39
f 725 726 737
f 737 726 738
f 728 727 739
f 728 739 740
f 729 730 741
f 741 730 742
f 731 611 743
f 598 732 744
f 462 733 745
f 746 734 721
f 735 290 747
f 16 736 748
f 41 468 749
f 737 738 750
f 750 738 751
f 740 739 752
f 740 752 753
f 741 742 754
f 741 754 755
f 743 611 756
f 744 732 757
f 462 745 758
f 759 734 746
f 747 290 760
f 16 748 761
f 41 749 360
f 750 751 762
f 762 751 763
f 753 752 764
f 753 764 765
f 755 754 766
f 755 766 767
f 756 611 768
f 744 757 769
f 462 758 770
f 771 772 759
f 760 290 773
f 16 761 774
f 360 749 775
f 762 763 776
f 776 763 777
f 765 764 778
f 765 778 779
f 767 766 780
f 767 780 781
f 768 611 782
f 744 769 783
f 462 770 784
f 785 772 771
f 773 290 786
f 16 774 787
f 775 749 788
f 776 777 789
f 779 778 790
f 781 780 791
f 782 611 792
f 744 783 793
f 462 784 794
f 785 795 772
f 786 290 796
f 749 774 797
f 788 749 798
f 789 777 799
f 779 790 800
f 781 791 801
f 792 611 802
f 744 793 803
f 462 794 804
f 805 795 785
f 796 290 806
f 807 749 808
f 798 749 809
f 789 799 810
f 800 790 811
f 801 791 812
f 792 802 813
f 744 803 814
f 462 804 815
f 805 816 795
f 806 290 817
f 808 749 797
f 809 749 818
f 810 799 819
f 800 811 820
f 813 802 821
f 744 814 822
f 462 815 823
f 824 816 805
f 817 290 825
f 826 749 827
f 818 749 828
f 810 819 829
f 820 811 830
f 821 802 831
f 744 822 832
f 462 823 833
f 834 816 824
f 825 290 835
f 836 749 826
f 828 749 837
f 829 819 838
f 820 830 839
f 831 802 840
f 744 832 841
f 833 823 842
f 834 843 816
f 835 290 844
f 827 749 807
f 837 749 845
f 829 838 846
f 839 830 847
f 840 802 848
f 744 841 849
f 842 823 850
f 851 843 834
f 844 290 852
f 16 749 853
f 845 749 836
f 846 838 854
f 839 847 855
f 848 802 856
f 744 849 857
f 842 850 858
f 851 859 843
f 852 290 860
f 797 861 862
f 846 854 863
f 855 847 864
f 856 802 865
f 857 849 866
f 858 850 867
f 868 859 869
f 860 290 870
f 797 862 871
f 863 854 872
f 855 864 873
f 865 802 874
f 857 866 875
f 858 867 876
f 868 877 859
f 878 290 879
f 797 871 880
f 863 872 881
f 873 864 882
f 874 802 883
f 857 875 884
f 876 867 885
f 886 877 868
f 879 290 887
f 797 880 888
f 881 872 889
f 873 882 890
f 883 802 891
f 857 884 892
f 876 885 893
f 886 894 877
f 887 290 895
f 797 888 896
f 890 882 897
f 891 802 898
f 857 892 899
f 893 885 900
f 901 894 886
f 895 290 902
f 797 896 903
f 890 897 904
f 898 802 905
f 857 899 906
f 893 900 907
f 908 894 901
f 902 290 909
f 797 903 910
f 904 897 911
f 905 802 912
f 906 899 913
f 907 900 914
f 908 915 894
f 909 290 916
f 797 910 917
f 904 911 918
f 912 802 919
f 906 913 920
f 914 900 921
f 922 915 908
f 916 290 923
f 797 917 924
f 918 911 925
f 919 802 926
f 906 920 927
f 914 921 928
f 922 929 915
f 923 290 930
f 797 924 931
f 918 925 932
f 926 802 933
f 906 927 934
f 928 921 935
f 936 929 922
f 930 290 937
f 797 931 938
f 932 925 939
f 926 933 940
f 906 934 941
f 928 935 942
f 943 929 936
f 937 290 944
f 797 938 945
f 932 939 946
f 940 933 947
f 941 934 948
f 942 935 949
f 943 950 929
f 944 290 951
f 797 945 952
f 946 939 953
f 947 933 954
f 941 948 955
f 942 949 956
f 957 950 943
f 951 290 958
f 797 952 959
f 946 953 960
f 954 933 961
f 941 955 962
f 956 949 963
f 957 964 950
f 958 290 965
f 797 959 966
f 960 953 967
f 961 933 968
f 941 962 969
f 963 949 964
f 963 964 957
f 965 290 970
f 797 966 971
f 960 967 972
f 968 933 973
f 941 969 974
f 869 859 851
f 970 290 975
f 797 971 976
f 972 967 977
f 973 933 978
f 974 969 979
f 759 772 734
f 975 290 980
f 797 976 981
f 978 933 982
f 974 979 983
f 707 681 694
f 980 290 984
f 797 981 985
f 982 933 986
f 974 983 987
f 641 655 601
f 984 290 988
f 797 985 989
f 986 933 990
f 974 987 991
f 600 562 587
f 988 290 992
f 797 989 993
f 990 933 994
f 991 987 995
f 521 507 479
f 992 290 996
f 797 993 997
f 994 933 998
f 991 995 999
f 433 480 464
f 996 290 1000
f 797 997 1001
f 998 933 1002
f 991 999 1003
f 373 389 339
f 1000 290 1004
f 797 1001 1005
f 1002 933 1006
f 991 1003 1007
f 324 340 294
f 1004 290 1008
f 797 1005 1009
f 1006 933 1010
f 991 1007 1011
f 465 451 1012
f 1008 290 1013
f 797 1009 1014
f 1010 933 1015
f 1011 1007 1016
f 465 1012 1017
f 1013 290 1018
f 797 1014 1019
f 1010 1015 1020
f 1011 1016 1021
f 465 1017 1022
f 1018 290 1023
f 797 1019 1024
f 1020 1015 1025
f 1011 1021 1026
f 232 1027 495
f 1023 290 1028
f 797 1024 1029
f 1025 1015 1030
f 1031 1021 1032
f 1033 1027 232
f 1028 290 1034
f 797 1029 1035
f 1030 1015 1036
f 1031 1032 1037
f 1038 1033 232
f 1034 290 1039
f 797 1035 1040
f 1036 1015 1041
f 1031 1037 1042
f 1043 1038 232
f 1039 290 1044
f 797 1040 1045
f 1036 1041 1046
f 1031 1042 1047
f 1048 1043 232
f 1044 290 1049
f 797 1045 1050
f 1036 1046 1051
f 1047 1042 1052
f 1053 1054 232
f 1049 290 1055
f 797 1050 1056
f 1036 1051 1057
f 1047 1052 1058
f 341 1053 232
f 1055 290 1059
f 797 1056 1060
f 1036 1057 1061
f 1047 1058 1062
f 13 341 279
f 1059 290 1063
f 797 1060 194
f 1061 1057 1064
f 1062 1058 1065
f 262 13 1066
f 1063 290 1067
f 797 194 1068
f 1061 1064 1069
f 1062 1065 1070
f 356 262 310
f 870 290 878
f 797 232 1071
f 1069 1064 1072
f 1062 1070 1073
f 449 356 404
f 853 232 1074
f 1072 1064 1075
f 1076 1070 1077
f 535 449 1078
f 1074 232 1079
f 1072 1075 1080
f 1076 1077 1081
f 614 535 574
f 1074 494 1082
f 1080 1075 1083
f 1076 1081 1084
f 614 615 1085
f 1082 494 1086
f 1083 1075 1087
f 1084 1081 1088
f 614 1085 1089
f 1082 1086 1090
f 1083 1091 1092
f 232 1084 1093
f 614 1089 1094
f 1090 1086 1095
f 1092 1091 1096
f 1088 1097 232
f 1098 1089 1099
f 1095 1086 1022
f 1096 1091 1100
f 1097 1048 232
f 1098 1099 1101
f 1096 1100 1102
f 232 1103 1084
f 1054 1103 1104
f 1102 1100 1105
f 1098 1101 1106
f 1107 1101 1108
f 1105 1100 1109
f 1110 1107 1111
f 1111 1107 1108
f 1110 1112 1107
f 1113 1112 1110
f 1114 1112 1113
f 1115 1112 1114
f 1115 1116 1112
f 1117 1116 1115
f 1118 1116 1117
f 1119 1116 1118
f 1120 1116 1119
f 1121 1116 1120
f 1122 1116 1121
f 1123 1116 1122
f 1123 1124 1116
f 1125 1124 1123
f 1126 1124 1125
f 1127 1124 1126
f 1128 1124 1127
f 1129 1124 1128
f 1130 1124 1129
f 1131 1124 1130
f 1132 1124 1131
f 1133 1124 1132
f 1134 1124 1133
f 1135 1124 1134
f 1136 1124 1135
f 1137 1124 1136
f 1137 1138 1124
f 1139 1138 1137
f 1140 1138 1139
f 1141 1138 1140
f 1142 1138 1141
f 1143 1138 1142
f 1144 1138 1143
f 1145 1138 1144
f 1146 1138 1145
f 1147 1138 1146
f 1148 1138 1147
f 1149 1138 1148
f 1150 1138 1149
f 1150 1151 1152
f 1153 1151 1150
f 1154 1151 1153
f 1155 1151 1154
f 1156 1151 1155
f 1157 1151 1156
f 1158 1151 1157
f 1159 1151 1158
f 1160 1151 1159
f 1 1151 1160
f 1 1161 1151
f 1161 1 1162
f 1162 1 1163
f 430 235 444
f 445 235 1164
f 1165 1164 235
f 1166 1165 235
f 1167 1166 235
f 1168 1167 235
f 1169 1168 235
f 1170 1169 235
f 1171 1170 235
f 1172 1171 235
f 1173 1172 235
f 1174 1173 235
f 1175 1174 235
f 1176 1175 235
f 1177 1176 235
f 1178 1177 235
f 1179 1178 235
f 1180 1179 235
f 1181 1180 235
f 1182 1181 235
f 1183 1182 235
f 1184 1183 235
f 1185 1184 235
f 1186 1185 235
f 1187 1186 235
f 1188 1187 235
f 1189 1188 235
f 1190 1189 235
f 1191 1190 235
f 1192 1191 235
f 1193 1192 235
f 1194 1193 235
f 1195 1194 235
f 1196 1195 235
f 306 1196 235
f 235 232 236
f 1067 290 1197
f 1095 1022 1017
f 194 148 195
f 226 881 889
f 226 889 972
f 226 972 977
f 226 977 812
f 226 812 791
f 226 791 1198
f 226 1198 1199
f 226 1199 1200
f 226 1200 1201
f 226 1201 1202
f 226 1202 1203
f 226 1203 1204
f 226 1204 1205
f 226 1205 1206
f 226 1206 1207
f 226 1207 1208
f 226 1208 1209
f 226 1209 1210
f 226 1210 1211
f 226 1211 1212
f 226 1212 1213
f 226 1213 1214
f 226 1214 1215
f 226 1215 1216
f 226 1216 1217
f 226 1217 1218
f 226 1218 1219
f 226 1219 1220
f 226 1220 1221
f 226 1221 1222
f 226 1222 1223
f 226 1223 1224
f 226 1224 1225
f 226 1225 1226
f 226 1226 1227
f 226 1227 1228
f 226 1228 1229
f 226 1229 1230
f 226 1230 1231
f 226 1231 1232
f 226 1232 1233
f 226 1233 1234
f 226 1234 1235
f 226 1235 1236
f 226 1236 1237
f 226 1237 1238
f 226 1238 1239
f 226 1239 1240
f 226 1240 1241
f 226 1241 1242
f 226 1242 1243
f 226 1243 1244
f 226 1244 1245
f 226 1245 1246
f 226 1246 1247
f 226 1247 1248
f 226 1248 1249
f 226 1249 1250
f 226 1250 1251
f 226 1251 65
f 65 1252 66
f 65 129 133
f 1252 65 1253
f 1254 1252 1253
f 1105 1109 1255
f 1255 1109 1256
f 1256 1109 1257
f 1256 1257 1258
f 1258 1257 1259
f 1259 1257 1260
f 1259 1260 1261
f 1261 1260 1262
f 1262 1260 1263
f 1263 1260 1264
f 1263 1264 1265
f 1265 1264 1266
f 1266 1264 1267
f 1266 1267 1268
f 1268 1267 1269
f 1269 1267 1270
f 1269 1270 1271
f 1271 1270 1272
f 1272 1270 1273
f 1272 1273 1274
f 1274 1273 1275
f 1275 1273 1276
f 1275 1277 1278
f 1278 1277 1279
f 1279 1277 1280
f 1279 1280 1281
f 1281 1280 1282
f 1282 1280 1252
f 1282 1252 1283
f 1283 1252 1284
f 1284 1252 1285
f 1285 1252 1286
f 1286 1252 1287
f 1287 1252 1288
f 1288 1252 1289
f 1289 1252 1290
f 1290 1252 1254
f 129 65 305
f 65 113 305
f 273 255 1291
f 255 258 1292
f 490 517 504
f 517 273 504
f 546 384 559
f 384 273 1293
f 546 583 571
f 583 384 571
f 1075 1091 1087
f 1091 1083 1087
f 1273 1277 1276
f 1277 1275 1276
f 255 1292 1291
f 1292 273 1291
f 273 1292 274
f 1294 1375 258
f 1375 1360 258
f 1360 1374 258
f 1374 1292 258
f 273 559 1293
f 559 384 1293
f 274 1356 258
f 1356 1294 258
f 1292 1374 1360
f 1356 1373 1374
f 1374 1292 1373
f 1360 1375 1356
f 1375 1294 1356
f 1292 1373 274
f 1373 1356 274
f 62 52 63
f 52 61 63
f 269 56 284
f 56 283 284
f 56 250 57
f 250 55 57
f 50 39 51
f 39 48 51
f 345 39 362
f 39 361 362
f 194 232 1295
f 232 797 1296
f 1297 1357 194
f 1357 1068 194
f 1298 1377 797
f 1377 1362 797
f 1362 1376 797
f 1376 1297 797
f 797 1068 1298
f 1068 1357 1362
f 1297 1376 1357
f 1376 1362 1357
f 1362 1377 1068
f 1377 1298 1068
f 1297 1363 797
f 1363 1299 797
f 1297 232 1300
f 232 1299 1301
f 1299 1363 1302
f 1363 1297 1302
f 232 1302 1303
f 1302 1297 1300
f 797 1299 1304
f 1299 232 1304
f 1299 1302 1305
f 1302 232 1305
f 1302 1300 1306
f 1300 232 1306
f 1304 1364 797
f 1364 1307 797
f 1304 232 1308
f 232 1307 1309
f 1307 1364 1310
f 1364 1304 1310
f 232 1310 1311
f 1310 1304 1312
f 1299 1305 1301
f 1305 232 1301
f 1302 1306 1313
f 1306 232 1313
f 774 749 787
f 749 16 787
f 1307 1310 1309
f 1310 232 1314
f 1310 1312 1311
f 1312 232 1311
f 1302 1313 1315
f 1313 232 1315
f 232 853 1316
f 853 797 1317
f 232 1309 1314
f 1309 1310 1314
f 232 1312 1308
f 1312 1304 1308
f 1302 1315 1303
f 1315 232 1303
f 797 1318 1317
f 1318 853 1319
f 1307 1361 797
f 1361 1296 797
f 1296 1361 232
f 1361 1307 232
f 853 1317 1319
f 1317 1318 1319
f 853 1318 1320
f 1318 232 1321
f 1320 1365 232
f 1365 1322 232
f 1320 1318 1321
f 232 1297 1295
f 1297 194 1295
f 853 1320 1323
f 1324 1381 232
f 1381 1366 232
f 1366 1379 232
f 1379 1320 232
f 232 1323 1325
f 1323 1320 1325
f 1322 1365 1321
f 1365 1320 1321
f 1321 232 1322
f 853 1323 1326
f 1327 1367 232
f 1367 1323 232
f 232 1326 1328
f 1326 1323 1328
f 232 1328 1327
f 1323 1367 1328
f 1367 1327 1328
f 1325 1368 232
f 1368 1324 232
f 1320 1379 1366
f 1368 1380 1379
f 1379 1320 1380
f 1366 1381 1368
f 1381 1324 1368
f 1320 1380 1325
f 1380 1368 1325
f 1318 1378 232
f 1378 1358 232
f 1358 1372 232
f 1372 1071 232
f 1071 1372 797
f 1372 1358 797
f 1358 1378 797
f 1378 1318 797
f 853 1326 1316
f 1329 1383 232
f 1383 1369 232
f 1369 1382 232
f 1382 1326 232
f 232 1316 1330
f 1316 1326 1330
f 232 1330 1331
f 1326 1370 1330
f 1370 1331 1330
f 232 1331 1329
f 1331 1370 1369
f 1326 1382 1370
f 1382 1369 1370
f 1369 1383 1331
f 1383 1329 1331
f 232 494 1332
f 494 1074 1333
f 494 1079 1334
f 1335 1359 232
f 1359 1079 232
f 494 1335 1336
f 1335 232 1336
f 494 1336 1337
f 1336 232 1332
f 235 369 353
f 369 336 353
f 1074 1079 1338
f 1079 494 1338
f 1079 1359 1334
f 1359 1335 1334
f 1335 494 1334
f 1332 1371 1336
f 1371 1337 1336
f 1337 1371 494
f 1371 1332 494
f 1084 1088 1339
f 1088 232 1340
f 1084 1340 1341
f 1340 232 1342
f 341 232 1343
f 232 279 1344
f 279 1345 1344
f 1345 232 1344
f 432 462 448
f 462 7 448
f 1074 1338 1333
f 1338 494 1333
f 1088 1340 1346
f 1340 1084 1346
f 1084 1342 1093
f 1342 232 1093
f 232 1345 1343
f 1345 341 1347
f 341 1345 1348
f 1345 279 1349
f 341 1349 1350
f 1349 279 342
f 2 240 3
f 240 1 1351
f 1088 1346 1339
f 1346 1084 1352
f 1084 1339 1353
f 1339 1346 1352
f 1340 1342 1341
f 1342 1084 1354
f 1103 232 1104
f 232 1054 1104
f 341 1343 1347
f 1343 1345 1347
f 1349 342 1350
f 342 341 1350
f 1089 1098 1094
f 1098 614 1094
f 1151 1138 1355
f 1138 1150 1152
f 1 3 1351
f 3 240 1351
f 5 7 6
f 7 4 6
f 417 446 431
f 446 292 431
f 1021 1031 1026
f 1031 1011 1026
f 1070 1076 1073
f 1076 1062 1073
f 1339 1352 1353
f 1352 1084 1353
f 1084 1341 1354
f 1341 1342 1354
f 1345 1349 1348
f 1349 341 1348
f 13 15 1066
f 15 262 1066
f 449 493 1078
f 493 535 1078
f 1101 1107 1106
f 1107 1098 1106
f 1138 1152 1355
f 1152 1151 1355
f 1 241 1163
f 241 1162 1163
f 360 19 38
f 255 399 273
f 231 7 1298
f 308 860 1346
f 1197 235 290
f 812 889 226
f 972 194 226
f 861 749 797
f 467 39 41
f 881 232 226
