v 0.228190 0.220000 0.691229
v 0.197490 0.220000 0.647385
v 0.197253 0.220000 0.647061
v 0.197004 0.220000 0.646747
v 0.196743 0.220000 0.646444
v 0.196469 0.220000 0.646151
v 0.196184 0.220000 0.645869
v 0.195888 0.220000 0.645599
v 0.195582 0.220000 0.645341
v 0.195265 0.220000 0.645096
v 0.194939 0.220000 0.644863
v 0.194604 0.220000 0.644644
v 0.194260 0.220000 0.644438
v 0.193908 0.220000 0.644246
v 0.193549 0.220000 0.644069
v 0.193183 0.220000 0.643906
v 0.192811 0.220000 0.643758
v 0.192433 0.220000 0.643625
v 0.192050 0.220000 0.643507
v 0.191663 0.220000 0.643404
v 0.191272 0.220000 0.643317
v 0.190878 0.220000 0.643246
v 0.190481 0.220000 0.643191
v 0.190082 0.220000 0.643151
v 0.189682 0.220000 0.643128
v 0.189282 0.220000 0.643120
v 0.188881 0.220000 0.643129
v 0.188481 0.220000 0.643154
v 0.188083 0.220000 0.643195
v 0.187686 0.220000 0.643251
v 0.187292 0.220000 0.643324
v 0.186901 0.220000 0.643412
v 0.186514 0.220000 0.643516
v 0.189293 0.220000 0.642704
v 0.192067 0.220000 0.641880
v 0.194838 0.220000 0.641044
v 0.197606 0.220000 0.640197
v 0.200370 0.220000 0.639337
v 0.203130 0.220000 0.638466
v 0.205886 0.220000 0.637582
v 0.208638 0.220000 0.636687
v 0.211387 0.220000 0.635780
v 0.214131 0.220000 0.634860
v 0.216872 0.220000 0.633930
v 0.219608 0.220000 0.632987
v 0.222341 0.220000 0.632032
v 0.225069 0.220000 0.631066
v 0.227793 0.220000 0.630088
v 0.230513 0.220000 0.629098
v 0.233228 0.220000 0.628096
v 0.235940 0.220000 0.627083
v 0.238646 0.220000 0.626057
v 0.241349 0.220000 0.625021
v 0.244046 0.220000 0.623972
v 0.246740 0.220000 0.622912
v 0.249428 0.220000 0.621840
v 0.252112 0.220000 0.620757
v 0.254792 0.220000 0.619662
v 0.257466 0.220000 0.618556
v 0.260136 0.220000 0.617438
v 0.262801 0.220000 0.616308
v 0.265461 0.220000 0.615167
v 0.268116 0.220000 0.614015
v 0.270766 0.220000 0.612851
v 0.270402 0.220000 0.613020
v 0.270046 0.220000 0.613204
v 0.269698 0.220000 0.613401
v 0.269358 0.220000 0.613613
v 0.269026 0.220000 0.613838
v 0.268704 0.220000 0.614076
v 0.268392 0.220000 0.614327
v 0.268090 0.220000 0.614590
v 0.267798 0.220000 0.614865
v 0.267518 0.220000 0.615151
v 0.267250 0.220000 0.615449
v 0.266993 0.220000 0.615757
v 0.266750 0.220000 0.616075
v 0.266519 0.220000 0.616402
v 0.266302 0.220000 0.616739
v 0.266098 0.220000 0.617084
v 0.265908 0.220000 0.617436
v 0.265732 0.220000 0.617796
v 0.265571 0.220000 0.618163
v 0.265425 0.220000 0.618536
v 0.265294 0.220000 0.618915
v 0.265178 0.220000 0.619298
v 0.265078 0.220000 0.619686
v 0.264993 0.220000 0.620078
v 0.264924 0.220000 0.620472
v 0.264871 0.220000 0.620870
v 0.264834 0.220000 0.621268
v 0.264812 0.220000 0.621668
v 0.264807 0.220000 0.622069
v 0.264818 0.220000 0.622470
v 0.264845 0.220000 0.622869
v 0.269510 0.220000 0.676190
v 0.269538 0.220000 0.676611
v 0.269548 0.220000 0.677033
v 0.269540 0.220000 0.677455
v 0.269515 0.220000 0.677877
v 0.269471 0.220000 0.678297
v 0.269410 0.220000 0.678714
v 0.269332 0.220000 0.679129
v 0.269236 0.220000 0.679540
v 0.269122 0.220000 0.679947
v 0.268992 0.220000 0.680349
v 0.268845 0.220000 0.680744
v 0.268681 0.220000 0.681134
v 0.268501 0.220000 0.681516
v 0.268305 0.220000 0.681890
v 0.268093 0.220000 0.682255
v 0.267867 0.220000 0.682611
v 0.267625 0.220000 0.682957
v 0.267369 0.220000 0.683293
v 0.267099 0.220000 0.683618
v 0.266815 0.220000 0.683930
v 0.266519 0.220000 0.684231
v 0.266210 0.220000 0.684519
v 0.265889 0.220000 0.684793
v 0.265557 0.220000 0.685054
v 0.265214 0.220000 0.685301
v 0.264861 0.220000 0.685533
v 0.264499 0.220000 0.685749
v 0.264128 0.220000 0.685951
v 0.263749 0.220000 0.686136
v 0.263362 0.220000 0.686305
v 0.262968 0.220000 0.686458
v 0.239801 0.220000 0.694890
v 0.239402 0.220000 0.695026
v 0.238997 0.220000 0.695145
v 0.238587 0.220000 0.695247
v 0.238173 0.220000 0.695331
v 0.237756 0.220000 0.695398
v 0.237337 0.220000 0.695447
v 0.236916 0.220000 0.695479
v 0.236494 0.220000 0.695493
v 0.236072 0.220000 0.695488
v 0.235650 0.220000 0.695466
v 0.235230 0.220000 0.695427
v 0.234811 0.220000 0.695369
v 0.234396 0.220000 0.695294
v 0.233984 0.220000 0.695202
v 0.233576 0.220000 0.695092
v 0.233174 0.220000 0.694965
v 0.232777 0.220000 0.694821
v 0.232386 0.220000 0.694660
v 0.232003 0.220000 0.694484
v 0.231627 0.220000 0.694291
v 0.231260 0.220000 0.694082
v 0.230902 0.220000 0.693858
v 0.230554 0.220000 0.693620
v 0.230216 0.220000 0.693366
v 0.229889 0.220000 0.693099
v 0.229574 0.220000 0.692818
v 0.229271 0.220000 0.692524
v 0.228980 0.220000 0.692218
v 0.228703 0.220000 0.691899
v 0.228439 0.220000 0.691570
f 158 1 2
f 32 33 34
f 31 32 34
f 30 31 34
f 29 30 34
f 28 29 34
f 27 28 34
f 26 27 34
f 25 26 34
f 24 25 34
f 23 24 34
f 22 23 34
f 21 22 34
f 20 21 34
f 19 20 34
f 19 34 35
f 18 19 35
f 17 18 35
f 16 17 35
f 15 16 35
f 14 15 35
f 13 14 35
f 12 13 35
f 11 12 35
f 10 11 35
f 9 10 35
f 8 9 35
f 7 8 35
f 7 35 36
f 6 7 36
f 5 6 36
f 4 5 36
f 3 4 36
f 2 3 36
f 158 2 36
f 158 36 37
f 158 37 38
f 158 38 39
f 158 39 40
f 158 40 41
f 158 41 42
f 158 42 43
f 158 43 44
f 158 44 45
f 158 45 46
f 158 46 47
f 158 47 48
f 158 48 49
f 158 49 50
f 158 50 51
f 158 51 52
f 158 52 53
f 158 53 54
f 158 54 55
f 158 55 56
f 158 56 57
f 158 57 58
f 158 58 59
f 158 59 60
f 158 60 61
f 158 61 62
f 63 64 65
f 63 65 66
f 62 63 66
f 62 66 67
f 62 67 68
f 62 68 69
f 62 69 70
f 62 70 71
f 62 71 72
f 62 72 73
f 62 73 74
f 62 74 75
f 62 75 76
f 62 76 77
f 62 77 78
f 62 78 79
f 62 79 80
f 62 80 81
f 158 62 81
f 158 81 82
f 158 82 83
f 158 83 84
f 158 84 85
f 158 85 86
f 158 86 87
f 158 87 88
f 158 88 89
f 158 89 90
f 158 90 91
f 158 91 92
f 158 92 93
f 158 93 94
f 158 94 95
f 158 95 96
f 158 96 97
f 158 97 98
f 158 98 99
f 158 99 100
f 158 100 101
f 158 101 102
f 158 102 103
f 158 103 104
f 158 104 105
f 158 105 106
f 158 106 107
f 158 107 108
f 158 108 109
f 158 109 110
f 158 110 111
f 158 111 112
f 158 112 113
f 158 113 114
f 158 114 115
f 158 115 116
f 158 116 117
f 158 117 118
f 158 118 119
f 158 119 120
f 158 120 121
f 158 121 122
f 158 122 123
f 158 123 124
f 158 124 125
f 158 125 126
f 158 126 127
f 158 127 128
f 158 128 129
f 158 129 130
f 158 130 131
f 158 131 132
f 158 132 133
f 158 133 134
f 158 134 135
f 158 135 136
f 158 136 137
f 158 137 138
f 158 138 139
f 158 139 140
f 158 140 141
f 158 141 142
f 158 142 143
f 158 143 144
f 158 144 145
f 158 145 146
f 158 146 147
f 158 147 148
f 158 148 149
f 158 149 150
f 158 150 151
f 158 151 152
f 158 152 153
f 158 153 154
f 158 154 155
f 158 155 156
f 156 157 158
