v 2.173132 -0.559197 -5.788969
v 2.174987 -0.559736 -5.794019
v 2.174094 -0.559470 -5.791481
v 2.175813 -0.559995 -5.796580
v 2.176568 -0.560246 -5.799164
v 2.177254 -0.560490 -5.801768
v 2.177870 -0.560727 -5.804390
v 2.178415 -0.560955 -5.807028
v 2.178889 -0.561176 -5.809680
v 2.179291 -0.561389 -5.812345
v 2.179621 -0.561593 -5.815021
v 2.171978 -0.567828 -5.788503
v 2.170748 -0.576196 -5.788266
v 2.169446 -0.584316 -5.788247
v 2.168076 -0.592201 -5.788434
v 2.166641 -0.599864 -5.788818
v 2.165143 -0.607308 -5.789396
v 2.163581 -0.614531 -5.790171
v 2.161956 -0.621533 -5.791145
v 2.160268 -0.628312 -5.792318
v 2.158519 -0.634858 -5.793692
v 2.178178 -0.570626 -5.812980
v 2.178176 -0.570637 -5.812977
v 2.176514 -0.579272 -5.810885
v 2.176510 -0.579292 -5.810880
v 2.174660 -0.587530 -5.808751
v 2.174654 -0.587558 -5.808744
v 2.172643 -0.595404 -5.806591
v 2.172634 -0.595439 -5.806581
v 2.170489 -0.602901 -5.804414
v 2.170476 -0.602942 -5.804401
v 2.168223 -0.610023 -5.802233
v 2.168208 -0.610069 -5.802219
v 2.165873 -0.616769 -5.800062
v 2.165854 -0.616820 -5.800045
v 2.163461 -0.623145 -5.797910
v 2.163440 -0.623199 -5.797892
v 2.161012 -0.629156 -5.795790
v 2.160988 -0.629212 -5.795770
v 2.158549 -0.634803 -5.793712
v 2.180065 -0.561975 -5.820396
v 2.179879 -0.561788 -5.817705
v 2.180178 -0.562154 -5.823091
v 2.180219 -0.562323 -5.825789
v 2.180187 -0.562483 -5.828488
v 2.180083 -0.562635 -5.831185
v 2.179907 -0.562777 -5.833879
v 2.179658 -0.562909 -5.836568
v 2.179337 -0.563033 -5.839250
v 2.178944 -0.563146 -5.841922
v 2.156714 -0.641156 -5.795264
v 2.154856 -0.647189 -5.797031
v 2.152950 -0.652941 -5.798992
v 2.150997 -0.658400 -5.801148
v 2.148995 -0.663561 -5.803507
v 2.146941 -0.668421 -5.806077
v 2.144830 -0.672974 -5.808867
v 2.142665 -0.677212 -5.811878
v 2.140462 -0.681101 -5.815086
v 2.138239 -0.684606 -5.818465
v 2.136015 -0.687690 -5.821987
v 2.177601 -0.572680 -5.841340
v 2.177599 -0.572691 -5.841339
v 2.176036 -0.581860 -5.840647
v 2.176032 -0.581881 -5.840645
v 2.174275 -0.590681 -5.839855
v 2.174268 -0.590711 -5.839853
v 2.172344 -0.599145 -5.838979
v 2.172335 -0.599182 -5.838975
v 2.170268 -0.607253 -5.838030
v 2.170256 -0.607298 -5.838024
v 2.168071 -0.615003 -5.837019
v 2.168056 -0.615054 -5.837012
v 2.165779 -0.622390 -5.835959
v 2.165761 -0.622446 -5.835951
v 2.163416 -0.629414 -5.834862
v 2.163395 -0.629474 -5.834853
v 2.161003 -0.636076 -5.833739
v 2.160980 -0.636138 -5.833728
v 2.158566 -0.642373 -5.832602
v 2.158541 -0.642436 -5.832590
v 2.156130 -0.648296 -5.831461
v 2.156102 -0.648361 -5.831449
v 2.153718 -0.653844 -5.830331
v 2.153688 -0.653909 -5.830317
v 2.151354 -0.659012 -5.829221
v 2.151322 -0.659079 -5.829206
v 2.149057 -0.663806 -5.828141
v 2.149024 -0.663874 -5.828125
v 2.146843 -0.668237 -5.827099
v 2.146808 -0.668306 -5.827082
v 2.144724 -0.672320 -5.826100
v 2.144688 -0.672388 -5.826083
v 2.142710 -0.676065 -5.825150
v 2.142673 -0.676132 -5.825132
v 2.140814 -0.679480 -5.824255
v 2.140778 -0.679545 -5.824237
v 2.139057 -0.682556 -5.823425
v 2.139022 -0.682618 -5.823408
v 2.137461 -0.685280 -5.822670
v 2.137427 -0.685337 -5.822654
v 2.136047 -0.687640 -5.822002
v 2.177943 -0.563345 -5.847232
v 2.178479 -0.563251 -5.844584
v 2.177337 -0.563430 -5.849865
v 2.176660 -0.563504 -5.852482
v 2.175913 -0.563569 -5.855079
v 2.175096 -0.563625 -5.857656
v 2.174211 -0.563670 -5.860210
v 2.173258 -0.563705 -5.862740
v 2.172237 -0.563730 -5.865243
v 2.171150 -0.563745 -5.867718
v 2.169996 -0.563750 -5.870164
v 2.168778 -0.563745 -5.872577
v 2.167495 -0.563730 -5.874957
v 2.166149 -0.563705 -5.877302
v 2.164741 -0.563670 -5.879609
v 2.163272 -0.563625 -5.881878
v 2.161743 -0.563569 -5.884107
v 2.160154 -0.563504 -5.886294
v 2.158508 -0.563430 -5.888437
v 2.156805 -0.563345 -5.890535
v 2.155046 -0.563251 -5.892587
v 2.133809 -0.690322 -5.825626
v 2.131631 -0.692499 -5.829362
v 2.129486 -0.694227 -5.833180
v 2.127381 -0.695514 -5.837064
v 2.125323 -0.696369 -5.840996
v 2.123316 -0.696793 -5.844966
v 2.121363 -0.696787 -5.848967
v 2.119469 -0.696351 -5.852992
v 2.117638 -0.695485 -5.857032
v 2.115874 -0.694187 -5.861078
v 2.114186 -0.692448 -5.865115
v 2.112584 -0.690263 -5.869127
v 2.153829 -0.572813 -5.891800
v 2.153828 -0.572824 -5.891799
v 2.152384 -0.582023 -5.890909
v 2.152381 -0.582044 -5.890906
v 2.150738 -0.590874 -5.889925
v 2.150732 -0.590904 -5.889922
v 2.148918 -0.599368 -5.888863
v 2.148909 -0.599406 -5.888857
v 2.146947 -0.607506 -5.887732
v 2.146936 -0.607551 -5.887726
v 2.144851 -0.615286 -5.886547
v 2.144837 -0.615337 -5.886539
v 2.142655 -0.622704 -5.885319
v 2.142638 -0.622760 -5.885309
v 2.140383 -0.629757 -5.884060
v 2.140363 -0.629817 -5.884049
v 2.138056 -0.636447 -5.882781
v 2.138034 -0.636510 -5.882769
v 2.135701 -0.642772 -5.881494
v 2.135676 -0.642836 -5.881481
v 2.133341 -0.648723 -5.880212
v 2.133314 -0.648788 -5.880198
v 2.131000 -0.654296 -5.878947
v 2.130972 -0.654362 -5.878931
v 2.128703 -0.659489 -5.877709
v 2.128673 -0.659556 -5.877693
v 2.126469 -0.664306 -5.876510
v 2.126437 -0.664374 -5.876493
v 2.124312 -0.668760 -5.875356
v 2.124278 -0.668828 -5.875338
v 2.122246 -0.672862 -5.874253
v 2.122211 -0.672931 -5.874234
v 2.120281 -0.676627 -5.873207
v 2.120245 -0.676695 -5.873187
v 2.118429 -0.680060 -5.872222
v 2.118394 -0.680126 -5.872203
v 2.116712 -0.683153 -5.871311
v 2.116678 -0.683214 -5.871293
v 2.115152 -0.685891 -5.870485
v 2.115119 -0.685948 -5.870467
v 2.113769 -0.688263 -5.869753
v 2.113738 -0.688315 -5.869737
v 2.151368 -0.563033 -5.896543
v 2.153234 -0.563146 -5.894590
v 2.149451 -0.562909 -5.898446
v 2.147485 -0.562777 -5.900296
v 2.145469 -0.562635 -5.902093
v 2.143406 -0.562483 -5.903834
v 2.141298 -0.562323 -5.905519
v 2.139146 -0.562154 -5.907146
v 2.136951 -0.561975 -5.908715
v 2.134715 -0.561788 -5.910223
v 2.111075 -0.687623 -5.873099
v 2.109670 -0.684532 -5.877013
v 2.108378 -0.681023 -5.880837
v 2.107208 -0.677130 -5.884540
v 2.106170 -0.672892 -5.888091
v 2.105272 -0.668338 -5.891464
v 2.104513 -0.663481 -5.894658
v 2.103887 -0.658322 -5.897680
v 2.103391 -0.652866 -5.900540
v 2.103019 -0.647117 -5.903244
v 2.102770 -0.641086 -5.905791
v 2.132327 -0.570884 -5.910310
v 2.132324 -0.570894 -5.910310
v 2.129756 -0.579595 -5.910259
v 2.129750 -0.579615 -5.910258
v 2.127032 -0.587921 -5.910083
v 2.127023 -0.587949 -5.910083
v 2.124182 -0.595867 -5.909798
v 2.124169 -0.595902 -5.909797
v 2.121230 -0.603438 -5.909417
v 2.121213 -0.603480 -5.909415
v 2.118201 -0.610636 -5.908952
v 2.118180 -0.610683 -5.908948
v 2.115122 -0.617461 -5.908416
v 2.115098 -0.617512 -5.908411
v 2.112016 -0.623915 -5.907821
v 2.111989 -0.623969 -5.907815
v 2.108906 -0.630004 -5.907178
v 2.108876 -0.630060 -5.907172
v 2.105816 -0.635729 -5.906499
v 2.105784 -0.635787 -5.906492
v 2.130128 -0.561389 -5.913056
v 2.132440 -0.561593 -5.911671
v 2.127779 -0.561176 -5.914379
v 2.125396 -0.560955 -5.915637
v 2.122981 -0.560727 -5.916830
v 2.120535 -0.560490 -5.917958
v 2.118060 -0.560246 -5.919018
v 2.115559 -0.559995 -5.920012
v 2.113031 -0.559736 -5.920937
v 2.110481 -0.559470 -5.921793
v 2.107909 -0.559197 -5.922580
v 2.102643 -0.634791 -5.908178
v 2.102637 -0.628248 -5.910398
v 2.102751 -0.621473 -5.912448
v 2.102984 -0.614476 -5.914324
v 2.103334 -0.607259 -5.916029
v 2.103800 -0.599821 -5.917563
v 2.104380 -0.592166 -5.918928
v 2.105075 -0.584288 -5.920122
v 2.105890 -0.576177 -5.921135
v 2.106833 -0.567818 -5.921957
f 1 2 3
f 1 4 2
f 1 5 4
f 1 6 5
f 1 7 6
f 1 8 7
f 1 9 8
f 1 10 9
f 1 11 10
f 1 12 13
f 1 13 14
f 1 14 15
f 1 15 16
f 1 16 17
f 1 17 18
f 1 18 19
f 1 19 20
f 1 20 21
f 1 22 11
f 1 23 22
f 1 24 23
f 1 25 24
f 1 26 25
f 1 27 26
f 1 28 27
f 1 29 28
f 1 30 29
f 1 31 30
f 1 32 31
f 1 33 32
f 1 34 33
f 1 35 34
f 1 36 35
f 1 37 36
f 1 38 37
f 1 39 38
f 1 40 39
f 1 21 40
f 11 41 42
f 11 43 41
f 11 44 43
f 11 45 44
f 11 46 45
f 11 47 46
f 11 48 47
f 11 49 48
f 11 50 49
f 21 51 52
f 21 52 53
f 21 53 54
f 21 54 55
f 21 55 56
f 21 56 57
f 21 57 58
f 21 58 59
f 21 59 60
f 21 60 61
f 11 22 50
f 22 62 50
f 22 23 62
f 23 63 62
f 23 24 63
f 24 64 63
f 24 25 64
f 25 65 64
f 25 26 65
f 26 66 65
f 26 27 66
f 27 67 66
f 27 28 67
f 28 68 67
f 28 29 68
f 29 69 68
f 29 30 69
f 30 70 69
f 30 31 70
f 31 71 70
f 31 32 71
f 32 72 71
f 32 33 72
f 33 73 72
f 33 34 73
f 34 74 73
f 34 35 74
f 35 75 74
f 35 36 75
f 36 76 75
f 36 37 76
f 37 77 76
f 37 38 77
f 38 78 77
f 38 39 78
f 39 79 78
f 39 40 79
f 40 80 79
f 40 21 80
f 21 81 80
f 21 82 81
f 21 83 82
f 21 84 83
f 21 85 84
f 21 86 85
f 21 87 86
f 21 88 87
f 21 89 88
f 21 90 89
f 21 91 90
f 21 92 91
f 21 93 92
f 21 94 93
f 21 95 94
f 21 96 95
f 21 97 96
f 21 98 97
f 21 99 98
f 21 100 99
f 21 101 100
f 21 102 101
f 21 61 102
f 50 103 104
f 50 105 103
f 50 106 105
f 50 107 106
f 50 108 107
f 50 109 108
f 50 110 109
f 50 111 110
f 50 112 111
f 50 113 112
f 50 114 113
f 50 115 114
f 50 116 115
f 50 117 116
f 50 118 117
f 50 119 118
f 50 120 119
f 50 121 120
f 50 122 121
f 50 123 122
f 61 124 125
f 61 125 126
f 61 126 127
f 61 127 128
f 61 128 129
f 61 129 130
f 61 130 131
f 61 131 132
f 61 132 133
f 61 133 134
f 61 134 135
f 50 62 123
f 62 136 123
f 62 63 136
f 63 137 136
f 63 64 137
f 64 138 137
f 64 65 138
f 65 139 138
f 65 66 139
f 66 140 139
f 66 67 140
f 67 141 140
f 67 68 141
f 68 142 141
f 68 69 142
f 69 143 142
f 69 70 143
f 70 144 143
f 70 71 144
f 71 145 144
f 71 72 145
f 72 146 145
f 72 73 146
f 73 147 146
f 73 74 147
f 74 148 147
f 74 75 148
f 75 149 148
f 75 76 149
f 76 150 149
f 76 77 150
f 77 151 150
f 77 78 151
f 78 152 151
f 78 79 152
f 79 153 152
f 79 80 153
f 80 154 153
f 80 81 154
f 81 155 154
f 81 82 155
f 82 156 155
f 82 83 156
f 83 157 156
f 83 84 157
f 84 158 157
f 84 85 158
f 85 159 158
f 85 86 159
f 86 160 159
f 86 87 160
f 87 161 160
f 87 88 161
f 88 162 161
f 88 89 162
f 89 163 162
f 89 90 163
f 90 164 163
f 90 91 164
f 91 165 164
f 91 92 165
f 92 166 165
f 92 93 166
f 93 167 166
f 93 94 167
f 94 168 167
f 94 95 168
f 95 169 168
f 95 96 169
f 96 170 169
f 96 97 170
f 97 171 170
f 97 98 171
f 98 172 171
f 98 99 172
f 99 173 172
f 99 100 173
f 100 174 173
f 100 101 174
f 101 175 174
f 101 102 175
f 102 176 175
f 102 61 176
f 61 177 176
f 61 135 177
f 123 178 179
f 123 180 178
f 123 181 180
f 123 182 181
f 123 183 182
f 123 184 183
f 123 185 184
f 123 186 185
f 123 187 186
f 135 188 189
f 135 189 190
f 135 190 191
f 135 191 192
f 135 192 193
f 135 193 194
f 135 194 195
f 135 195 196
f 135 196 197
f 135 197 198
f 123 136 187
f 136 199 187
f 136 137 199
f 137 200 199
f 137 138 200
f 138 201 200
f 138 139 201
f 139 202 201
f 139 140 202
f 140 203 202
f 140 141 203
f 141 204 203
f 141 142 204
f 142 205 204
f 142 143 205
f 143 206 205
f 143 144 206
f 144 207 206
f 144 145 207
f 145 208 207
f 145 146 208
f 146 209 208
f 146 147 209
f 147 210 209
f 147 148 210
f 148 211 210
f 148 149 211
f 149 212 211
f 149 150 212
f 150 213 212
f 150 151 213
f 151 214 213
f 151 152 214
f 152 215 214
f 152 153 215
f 153 216 215
f 153 154 216
f 154 217 216
f 154 155 217
f 155 218 217
f 155 156 218
f 156 198 218
f 156 157 198
f 157 158 198
f 158 159 198
f 159 160 198
f 160 161 198
f 161 162 198
f 162 163 198
f 163 164 198
f 164 165 198
f 165 166 198
f 166 167 198
f 167 168 198
f 168 169 198
f 169 170 198
f 170 171 198
f 171 172 198
f 172 173 198
f 173 174 198
f 174 175 198
f 175 176 198
f 176 177 198
f 177 135 198
f 187 219 220
f 187 221 219
f 187 222 221
f 187 223 222
f 187 224 223
f 187 225 224
f 187 226 225
f 187 227 226
f 187 228 227
f 187 229 228
f 198 230 231
f 198 231 232
f 198 232 233
f 198 233 234
f 198 234 235
f 198 235 236
f 198 236 237
f 198 237 238
f 198 238 239
f 198 239 229
f 187 199 229
f 199 200 229
f 200 201 229
f 201 202 229
f 202 203 229
f 203 204 229
f 204 205 229
f 205 206 229
f 206 207 229
f 207 208 229
f 208 209 229
f 209 210 229
f 210 211 229
f 211 212 229
f 212 213 229
f 213 214 229
f 214 215 229
f 215 216 229
f 216 217 229
f 217 218 229
f 218 198 229
