v 2.375000 0.000000 -5.238000
v 2.374974 0.014512 -5.238000
v 2.375000 0.000000 -4.664620
v 2.374940 0.021974 -4.664849
v 2.374895 0.029023 -5.238000
v 2.374763 0.043534 -5.238000
v 2.374764 0.043612 -4.665527
v 2.374579 0.058045 -5.238000
v 2.374476 0.064916 -4.666638
v 2.374342 0.072554 -5.238000
v 2.374081 0.085888 -4.668163
v 2.374052 0.087063 -5.238000
v 2.373710 0.101571 -5.238000
v 2.373584 0.106530 -4.670086
v 2.373315 0.116077 -5.238000
v 2.372991 0.126842 -4.672391
v 2.372868 0.130582 -5.238000
v 2.372368 0.145085 -5.238000
v 2.372305 0.146829 -4.675061
v 2.371815 0.159586 -5.238000
v 2.371533 0.166490 -4.678078
v 2.371210 0.174085 -5.238000
v 2.370680 0.185827 -4.681426
v 2.370552 0.188582 -5.238000
v 2.369842 0.203076 -5.238000
v 2.369750 0.204833 -4.685089
v 2.369079 0.217568 -5.238000
v 2.368748 0.223501 -4.689051
v 2.368263 0.232056 -5.238000
v 2.367680 0.241826 -4.693296
v 2.367395 0.246542 -5.238000
v 2.366551 0.259801 -4.697807
v 2.366474 0.261024 -5.238000
v 2.365501 0.275503 -5.238000
v 2.365366 0.277420 -4.702568
v 2.364475 0.289979 -5.238000
v 2.364130 0.294675 -4.707563
v 2.363397 0.304450 -5.238000
v 2.362848 0.311560 -4.712775
v 2.362266 0.318918 -5.238000
v 2.361525 0.328074 -4.718191
v 2.361083 0.333381 -5.238000
v 2.360165 0.344222 -4.723800
v 2.359847 0.347840 -5.238000
v 2.358770 0.360013 -4.729590
v 2.358559 0.362295 -5.238000
v 2.357345 0.375451 -4.735551
v 2.357218 0.376744 -5.238000
v 2.355892 0.390545 -4.741672
v 2.355825 0.391189 -5.238000
v 2.354415 0.405302 -4.747942
v 2.354380 0.405628 -5.238000
v 2.352918 0.419728 -4.754350
v 2.352882 0.420063 -5.238000
v 2.351404 0.433831 -4.760886
v 2.351332 0.434491 -5.238000
v 2.349876 0.447616 -4.767540
v 2.349730 0.448914 -5.238000
v 2.348336 0.461088 -4.774305
v 2.348075 0.463331 -5.238000
v 2.346786 0.474253 -4.781171
v 2.346368 0.477742 -5.238000
v 2.345229 0.487114 -4.788133
v 2.344609 0.492147 -5.238000
v 2.343668 0.499678 -4.795180
v 2.342797 0.506545 -5.238000
v 2.342103 0.511949 -4.802307
v 2.340933 0.520936 -5.238000
v 2.340538 0.523932 -4.809505
v 2.339017 0.535321 -5.238000
v 2.338975 0.535631 -4.816766
v 2.337416 0.547054 -4.824085
v 2.337049 0.549698 -5.238000
v 2.335861 0.558206 -4.831457
v 2.335029 0.564069 -5.238000
v 2.334311 0.569095 -4.838879
v 2.332956 0.578432 -5.238000
v 2.332768 0.579729 -4.846347
v 2.331233 0.590113 -4.853857
v 2.330832 0.592787 -5.238000
v 2.329706 0.600255 -4.861405
v 2.328655 0.607134 -5.238000
v 2.328189 0.610162 -4.868987
v 2.326683 0.619841 -4.876600
v 2.326426 0.621474 -5.238000
v 2.325188 0.629298 -4.884240
v 2.324146 0.635805 -5.238000
v 2.323705 0.638536 -4.891903
v 2.322236 0.647561 -4.899588
v 2.321813 0.650128 -5.238000
v 2.320779 0.656376 -4.907291
v 2.319428 0.664443 -5.238000
v 2.319337 0.664987 -4.915009
v 2.317910 0.673398 -4.922739
v 2.316992 0.678748 -5.238000
v 2.316497 0.681614 -4.930477
v 2.315101 0.689639 -4.938222
v 2.314504 0.693045 -5.238000
v 2.313722 0.697476 -4.945970
v 2.312359 0.705129 -4.953718
v 2.311963 0.707333 -5.238000
v 2.311014 0.712601 -4.961463
v 2.309686 0.719895 -4.969201
v 2.309371 0.721611 -5.238000
v 2.308377 0.727015 -4.976931
v 2.307086 0.733963 -4.984648
v 2.306727 0.735880 -5.238000
v 2.305814 0.740743 -4.992350
v 2.305053 0.744769 -4.997000
v 2.304297 0.748749 -5.001648
v 2.304032 0.750139 -5.238000
v 2.303545 0.752686 -5.006294
v 2.302797 0.756579 -5.010939
v 2.302054 0.760428 -5.015581
v 2.301315 0.764235 -5.020220
v 2.301285 0.764388 -5.238000
v 2.300580 0.767999 -5.024857
v 2.299851 0.771721 -5.029489
v 2.299125 0.775402 -5.034118
v 2.298486 0.778627 -5.238000
v 2.298404 0.779040 -5.038742
v 2.297688 0.782638 -5.043361
v 2.296977 0.786195 -5.047975
v 2.296270 0.789712 -5.052584
v 2.295635 0.792856 -5.238000
v 2.295568 0.793189 -5.057186
v 2.294871 0.796626 -5.061782
v 2.294179 0.800024 -5.066371
v 2.293492 0.803383 -5.070953
v 2.292809 0.806704 -5.075527
v 2.292733 0.807075 -5.238000
v 2.292132 0.809987 -5.080093
v 2.291459 0.813233 -5.084651
v 2.290792 0.816441 -5.089200
v 2.290129 0.819612 -5.093741
v 2.289779 0.821283 -5.238000
v 2.289472 0.822747 -5.098274
v 2.288819 0.825846 -5.102797
v 2.288172 0.828910 -5.107312
v 2.287529 0.831939 -5.111817
v 2.286891 0.834933 -5.116314
v 2.286774 0.835480 -5.238000
v 2.286258 0.837893 -5.120801
v 2.285630 0.840819 -5.125279
v 2.285007 0.843712 -5.129748
v 2.284389 0.846571 -5.134207
v 2.283775 0.849399 -5.138656
v 2.283717 0.849666 -5.238000
v 2.283167 0.852194 -5.143096
v 2.282563 0.854958 -5.147525
v 2.281964 0.857691 -5.151945
v 2.281370 0.860393 -5.156355
v 2.280780 0.863064 -5.160754
v 2.280609 0.863841 -5.238000
v 2.280196 0.865706 -5.165143
v 2.279616 0.868318 -5.169521
v 2.279040 0.870901 -5.173889
v 2.278470 0.873454 -5.178246
v 2.277904 0.875979 -5.182592
v 2.277449 0.878004 -5.238000
v 2.277343 0.878475 -5.186926
v 2.276787 0.880943 -5.191250
v 2.276235 0.883383 -5.195561
v 2.275688 0.885794 -5.199861
v 2.275146 0.888179 -5.204149
v 2.274609 0.890536 -5.208424
v 2.274238 0.892156 -5.238000
v 2.274076 0.892866 -5.212688
v 2.273547 0.895170 -5.216939
v 2.273024 0.897447 -5.221177
v 2.272505 0.899698 -5.225402
v 2.271991 0.901923 -5.229615
v 2.271481 0.904122 -5.233814
v 2.270976 0.906296 -5.238000
f 1 2 3
f 2 4 3
f 2 5 4
f 5 6 4
f 6 7 4
f 6 8 7
f 8 9 7
f 8 10 9
f 10 11 9
f 10 12 11
f 12 13 11
f 13 14 11
f 13 15 14
f 15 16 14
f 15 17 16
f 17 18 16
f 18 19 16
f 18 20 19
f 20 21 19
f 20 22 21
f 22 23 21
f 22 24 23
f 24 25 23
f 25 26 23
f 25 27 26
f 27 28 26
f 27 29 28
f 29 30 28
f 29 31 30
f 31 32 30
f 31 33 32
f 33 34 32
f 34 35 32
f 34 36 35
f 36 37 35
f 36 38 37
f 38 39 37
f 38 40 39
f 40 41 39
f 40 42 41
f 42 43 41
f 42 44 43
f 44 45 43
f 44 46 45
f 46 47 45
f 46 48 47
f 48 49 47
f 48 50 49
f 50 51 49
f 50 52 51
f 52 53 51
f 52 54 53
f 54 55 53
f 54 56 55
f 56 57 55
f 56 58 57
f 58 59 57
f 58 60 59
f 60 61 59
f 60 62 61
f 62 63 61
f 62 64 63
f 64 65 63
f 64 66 65
f 66 67 65
f 66 68 67
f 68 69 67
f 68 70 69
f 70 71 69
f 70 72 71
f 70 73 72
f 73 74 72
f 73 75 74
f 75 76 74
f 75 77 76
f 77 78 76
f 77 79 78
f 77 80 79
f 80 81 79
f 80 82 81
f 82 83 81
f 82 84 83
f 82 85 84
f 85 86 84
f 85 87 86
f 87 88 86
f 87 89 88
f 87 90 89
f 90 91 89
f 90 92 91
f 92 93 91
f 92 94 93
f 92 95 94
f 95 96 94
f 95 97 96
f 95 98 97
f 98 99 97
f 98 100 99
f 98 101 100
f 101 102 100
f 101 103 102
f 101 104 103
f 104 105 103
f 104 106 105
f 104 107 106
f 107 108 106
f 107 109 108
f 107 110 109
f 107 111 110
f 111 112 110
f 111 113 112
f 111 114 113
f 111 115 114
f 111 116 115
f 116 117 115
f 116 118 117
f 116 119 118
f 116 120 119
f 120 121 119
f 120 122 121
f 120 123 122
f 120 124 123
f 120 125 124
f 125 126 124
f 125 127 126
f 125 128 127
f 125 129 128
f 125 130 129
f 125 131 130
f 131 132 130
f 131 133 132
f 131 134 133
f 131 135 134
f 131 136 135
f 136 137 135
f 136 138 137
f 136 139 138
f 136 140 139
f 136 141 140
f 136 142 141
f 142 143 141
f 142 144 143
f 142 145 144
f 142 146 145
f 142 147 146
f 142 148 147
f 148 149 147
f 148 150 149
f 148 151 150
f 148 152 151
f 148 153 152
f 148 154 153
f 154 155 153
f 154 156 155
f 154 157 156
f 154 158 157
f 154 159 158
f 154 160 159
f 160 161 159
f 160 162 161
f 160 163 162
f 160 164 163
f 160 165 164
f 160 166 165
f 160 167 166
f 167 168 166
f 167 169 168
f 167 170 169
f 167 171 170
f 167 172 171
f 167 173 172
f 167 174 173
