v 0.012327 0.000000 -0.735000
v -0.012327 0.000000 -0.735000
v -0.012749 0.000000 -0.734991
v -0.013170 0.000000 -0.734964
v -0.013590 0.000000 -0.734920
v -0.014008 0.000000 -0.734858
v -0.014422 0.000000 -0.734778
v -0.014833 0.000000 -0.734681
v -0.015240 0.000000 -0.734566
v -0.015641 0.000000 -0.734435
v -0.016036 0.000000 -0.734287
v -0.016425 0.000000 -0.734122
v -0.016806 0.000000 -0.733941
v -0.017180 0.000000 -0.733743
v -0.017545 0.000000 -0.733531
v -0.017900 0.000000 -0.733303
v -0.018246 0.000000 -0.733060
v -0.018580 0.000000 -0.732803
v -0.018904 0.000000 -0.732532
v -0.019216 0.000000 -0.732248
v -0.019516 0.000000 -0.731951
v -0.019803 0.000000 -0.731641
v -0.020077 0.000000 -0.731319
v -0.020337 0.000000 -0.730987
v -0.020582 0.000000 -0.730643
v -0.020813 0.000000 -0.730290
v -0.021029 0.000000 -0.729927
v -0.021229 0.000000 -0.729555
v -0.021413 0.000000 -0.729175
v -0.021582 0.000000 -0.728788
v -0.021733 0.000000 -0.728394
v -0.021868 0.000000 -0.727994
v -0.021986 0.000000 -0.727588
v -0.037701 0.000000 -0.668938
v 0.037701 0.010000 -0.668938
v 0.035271 0.010000 -0.669071
v 0.032841 0.010000 -0.669195
v 0.030410 0.010000 -0.669310
v 0.027978 0.010000 -0.669416
v 0.025547 0.010000 -0.669513
v 0.023115 0.010000 -0.669601
v 0.020682 0.010000 -0.669681
v 0.018250 0.010000 -0.669751
v 0.015817 0.010000 -0.669813
v 0.013384 0.010000 -0.669866
v 0.010951 0.010000 -0.669911
v 0.008517 0.010000 -0.669946
v 0.006084 0.010000 -0.669972
v 0.003650 0.010000 -0.669990
v 0.001217 0.010000 -0.669999
v -0.001217 0.010000 -0.669999
v -0.003650 0.010000 -0.669990
v -0.006084 0.010000 -0.669972
v -0.008517 0.010000 -0.669946
v -0.010951 0.010000 -0.669911
v -0.013384 0.010000 -0.669866
v -0.015817 0.010000 -0.669813
v -0.018250 0.010000 -0.669751
v -0.020682 0.010000 -0.669681
v -0.023115 0.010000 -0.669601
v -0.025547 0.010000 -0.669513
v -0.027978 0.010000 -0.669416
v -0.030410 0.010000 -0.669310
v -0.032841 0.010000 -0.669195
v -0.035271 0.010000 -0.669071
v -0.037701 0.010000 -0.668938
v 0.037701 0.000000 -0.668938
v 0.021986 0.000000 -0.727588
v 0.021868 0.000000 -0.727994
v 0.021733 0.000000 -0.728394
v 0.021582 0.000000 -0.728788
v 0.021413 0.000000 -0.729175
v 0.021229 0.000000 -0.729555
v 0.021029 0.000000 -0.729927
v 0.020813 0.000000 -0.730290
v 0.020582 0.000000 -0.730643
v 0.020337 0.000000 -0.730987
v 0.020077 0.000000 -0.731319
v 0.019803 0.000000 -0.731641
v 0.019516 0.000000 -0.731951
v 0.019216 0.000000 -0.732248
v 0.018904 0.000000 -0.732532
v 0.018580 0.000000 -0.732803
v 0.018246 0.000000 -0.733060
v 0.017900 0.000000 -0.733303
v 0.017545 0.000000 -0.733531
v 0.017180 0.000000 -0.733743
v 0.016806 0.000000 -0.733941
v 0.016425 0.000000 -0.734122
v 0.016036 0.000000 -0.734287
v 0.015641 0.000000 -0.734435
v 0.015240 0.000000 -0.734566
v 0.014833 0.000000 -0.734681
v 0.014422 0.000000 -0.734778
v 0.014008 0.000000 -0.734858
v 0.013590 0.000000 -0.734920
v 0.013170 0.000000 -0.734964
v 0.012749 0.000000 -0.734991
f 1 2 3
f 1 3 4
f 1 4 5
f 1 5 6
f 1 6 7
f 1 7 8
f 1 8 9
f 1 9 10
f 1 10 11
f 1 11 12
f 1 12 13
f 1 13 14
f 1 14 15
f 1 15 16
f 1 16 17
f 1 17 18
f 1 18 19
f 1 19 20
f 1 20 21
f 1 21 22
f 1 22 23
f 1 23 24
f 1 24 25
f 1 25 26
f 1 26 27
f 1 27 28
f 1 28 29
f 1 29 30
f 1 30 31
f 1 31 32
f 1 32 33
f 1 33 34
f 1 34 35
f 1 35 36
f 1 36 37
f 1 37 38
f 1 38 39
f 1 39 40
f 1 40 41
f 1 41 42
f 1 42 43
f 1 43 44
f 1 44 45
f 1 45 46
f 1 46 47
f 1 47 48
f 1 48 49
f 1 49 50
f 1 50 51
f 1 51 52
f 1 52 53
f 1 53 54
f 1 54 55
f 1 55 56
f 1 56 57
f 1 57 58
f 1 58 59
f 1 59 60
f 1 60 61
f 1 61 62
f 1 62 63
f 1 63 64
f 1 64 65
f 1 65 66
f 1 66 67
f 1 67 68
f 1 68 69
f 1 69 70
f 1 70 71
f 1 71 72
f 1 72 73
f 1 73 74
f 1 74 75
f 1 75 76
f 1 76 77
f 1 77 78
f 1 78 79
f 1 79 80
f 1 80 81
f 1 81 82
f 1 82 83
f 1 83 84
f 1 84 85
f 1 85 86
f 1 86 87
f 1 87 88
f 1 88 89
f 1 89 90
f 1 90 91
f 1 91 92
f 1 92 93
f 1 93 94
f 1 94 95
f 1 95 96
f 1 96 97
f 1 97 98
