v -0.251826 -0.577481 -1.084841
v -0.251826 -0.577481 -1.061000
v -0.187956 -0.457928 -1.061000
v -0.187956 -0.457928 -1.120893
v -0.189112 -0.460093 -1.120241
v -0.190269 -0.462258 -1.119588
v -0.191426 -0.464424 -1.118935
v -0.192583 -0.466590 -1.118283
v -0.193741 -0.468756 -1.117630
v -0.194898 -0.470923 -1.116977
v -0.196056 -0.473090 -1.116324
v -0.197214 -0.475258 -1.115670
v -0.198372 -0.477425 -1.115017
v -0.199530 -0.479593 -1.114363
v -0.200689 -0.481762 -1.113710
v -0.201847 -0.483930 -1.113056
v -0.203006 -0.486099 -1.112402
v -0.204165 -0.488269 -1.111748
v -0.205324 -0.490438 -1.111094
v -0.206483 -0.492608 -1.110440
v -0.207643 -0.494778 -1.109786
v -0.208802 -0.496949 -1.109131
v -0.209962 -0.499120 -1.108477
v -0.211122 -0.501291 -1.107822
v -0.212282 -0.503463 -1.107167
v -0.213443 -0.505635 -1.106512
v -0.214603 -0.507807 -1.105857
v -0.215764 -0.509979 -1.105202
v -0.216925 -0.512152 -1.104547
v -0.218086 -0.514325 -1.103892
v -0.219247 -0.516499 -1.103236
v -0.220408 -0.518673 -1.102581
v -0.221569 -0.520847 -1.101925
v -0.222731 -0.523021 -1.101269
v -0.223893 -0.525196 -1.100613
v -0.225055 -0.527371 -1.099957
v -0.226217 -0.529546 -1.099301
v -0.227379 -0.531722 -1.098645
v -0.228542 -0.533898 -1.097989
v -0.229705 -0.536074 -1.097332
v -0.230867 -0.538251 -1.096676
v -0.232030 -0.540427 -1.096019
v -0.233193 -0.542605 -1.095363
v -0.234357 -0.544782 -1.094706
v -0.235520 -0.546960 -1.094049
v -0.236684 -0.549138 -1.093392
v -0.237848 -0.551316 -1.092735
v -0.239012 -0.553495 -1.092078
v -0.240176 -0.555674 -1.091420
v -0.241340 -0.557853 -1.090763
v -0.242504 -0.560033 -1.090105
v -0.243669 -0.562213 -1.089448
v -0.244834 -0.564393 -1.088790
v -0.245999 -0.566573 -1.088132
v -0.247164 -0.568754 -1.087474
v -0.248329 -0.570935 -1.086816
v -0.249494 -0.573117 -1.086158
v -0.250660 -0.575299 -1.085500
f 1 3 2
f 1 4 3
f 1 5 4
f 1 6 5
f 1 7 6
f 1 8 7
f 1 9 8
f 1 10 9
f 1 11 10
f 1 12 11
f 1 13 12
f 1 14 13
f 1 15 14
f 1 16 15
f 1 17 16
f 1 18 17
f 1 19 18
f 1 20 19
f 1 21 20
f 1 22 21
f 1 23 22
f 1 24 23
f 1 25 24
f 1 26 25
f 1 27 26
f 1 28 27
f 1 29 28
f 1 30 29
f 1 31 30
f 1 32 31
f 1 33 32
f 1 34 33
f 1 35 34
f 1 36 35
f 1 37 36
f 1 38 37
f 1 39 38
f 1 40 39
f 1 41 40
f 1 42 41
f 1 43 42
f 1 44 43
f 1 45 44
f 1 46 45
f 1 47 46
f 1 48 47
f 1 49 48
f 1 50 49
f 1 51 50
f 1 52 51
f 1 53 52
f 1 54 53
f 1 55 54
f 1 56 55
f 1 57 56
f 1 58 57
