v -2.587500 -0.300000 -6.471806
v -2.587500 -0.305645 -6.470210
v -2.587500 -0.311282 -6.468584
v -2.587500 -0.316911 -6.466929
v -2.587500 -0.322530 -6.465243
v -2.587500 -0.328141 -6.463528
v -2.587500 -0.333742 -6.461784
v -2.587500 -0.339334 -6.460010
v -2.587500 -0.344917 -6.458207
v -2.587500 -0.350490 -6.456374
v -2.587500 -0.356053 -6.454512
v -2.587500 -0.361607 -6.452620
v -2.587500 -0.367150 -6.450700
v -2.587500 -0.372683 -6.448750
v -2.587500 -0.378206 -6.446771
v -2.587500 -0.383719 -6.444763
v -2.587500 -0.389220 -6.442726
v -2.587500 -0.394711 -6.440659
v -2.587500 -0.400191 -6.438564
v -2.587500 -0.405660 -6.436441
v -2.587500 -0.411118 -6.434288
v -2.587500 -0.416564 -6.432106
v -2.587500 -0.421998 -6.429896
v -2.587500 -0.427421 -6.427658
v -2.587500 -0.432832 -6.425390
v -2.587500 -0.438231 -6.423095
v -2.587500 -0.443618 -6.420771
v -2.587500 -0.448992 -6.418418
v -2.587500 -0.454354 -6.416037
v -2.587500 -0.459703 -6.413628
v -2.587500 -0.465040 -6.411191
v -2.587500 -0.470363 -6.408726
v -2.587500 -0.475674 -6.406232
v -2.587500 -0.480971 -6.403711
v -2.587500 -0.486255 -6.401162
v -2.587500 -0.491526 -6.398585
v -2.587500 -0.496783 -6.395980
v -2.587500 -0.502026 -6.393348
v -2.587500 -0.507255 -6.390688
v -2.587500 -0.512470 -6.388000
v -2.587500 -0.300000 -6.388000
f 1 2 3
f 1 3 4
f 1 4 5
f 1 5 6
f 1 6 7
f 1 7 8
f 1 8 9
f 1 9 10
f 1 10 11
f 1 11 12
f 1 12 13
f 1 13 14
f 1 14 15
f 1 15 16
f 1 16 17
f 1 17 18
f 1 18 19
f 1 19 20
f 1 20 21
f 1 21 22
f 1 22 23
f 1 23 24
f 1 24 25
f 1 25 26
f 1 26 27
f 1 27 28
f 1 28 29
f 1 29 30
f 1 30 31
f 1 31 32
f 1 32 33
f 1 33 34
f 1 34 35
f 1 35 36
f 1 36 37
f 1 37 38
f 1 38 39
f 1 39 40
f 1 40 41
