v 1.166802 0.565914 -6.668303
v 1.172935 0.566481 -6.670867
v 1.169854 0.566201 -6.669619
v 1.176044 0.566753 -6.672047
v 1.179179 0.567016 -6.673157
v 1.182338 0.567271 -6.674198
v 1.185520 0.567518 -6.675169
v 1.188724 0.567756 -6.676070
v 1.191947 0.567985 -6.676899
v 1.195189 0.568205 -6.677658
v 1.198447 0.568416 -6.678344
v 1.166552 0.575930 -6.666880
v 1.166672 0.585612 -6.665406
v 1.167143 0.594978 -6.663883
v 1.167944 0.604043 -6.662315
v 1.169057 0.612826 -6.660705
v 1.170466 0.621330 -6.659057
v 1.172164 0.629546 -6.657374
v 1.174145 0.637460 -6.655661
v 1.176402 0.645061 -6.653921
v 1.178927 0.652338 -6.652158
v 1.196439 0.578802 -6.676452
v 1.196427 0.578864 -6.676439
v 1.194423 0.588726 -6.674312
v 1.194399 0.588845 -6.674284
v 1.192409 0.598191 -6.671961
v 1.192372 0.598360 -6.671916
v 1.190403 0.607203 -6.669433
v 1.190355 0.607416 -6.669369
v 1.188414 0.615774 -6.666758
v 1.188354 0.616027 -6.666675
v 1.186448 0.623908 -6.663968
v 1.186377 0.624194 -6.663865
v 1.184517 0.631596 -6.661098
v 1.184436 0.631911 -6.660975
v 1.182630 0.638836 -6.658180
v 1.182541 0.639173 -6.658040
v 1.180799 0.645628 -6.655247
v 1.180702 0.645981 -6.655090
v 1.179030 0.651975 -6.652329
v 1.205006 0.568811 -6.679500
v 1.201720 0.568618 -6.678958
v 1.208304 0.568994 -6.679969
v 1.211612 0.569168 -6.680366
v 1.214928 0.569333 -6.680689
v 1.218251 0.569488 -6.680939
v 1.221580 0.569633 -6.681115
v 1.224911 0.569769 -6.681218
v 1.228245 0.569895 -6.681248
v 1.231579 0.570011 -6.681204
v 1.181713 0.659279 -6.650376
v 1.184754 0.665875 -6.648578
v 1.188042 0.672115 -6.646767
v 1.191570 0.677988 -6.644948
v 1.195326 0.683484 -6.643123
v 1.199294 0.688586 -6.641302
v 1.203451 0.693278 -6.639489
v 1.207780 0.697545 -6.637694
v 1.212259 0.701371 -6.635922
v 1.216867 0.704753 -6.634180
v 1.230993 0.580880 -6.679580
v 1.230989 0.580946 -6.679569
v 1.230342 0.591314 -6.677697
v 1.230333 0.591439 -6.677673
v 1.229634 0.601309 -6.675590
v 1.229620 0.601488 -6.675549
v 1.228878 0.610871 -6.673291
v 1.228859 0.611098 -6.673233
v 1.228083 0.620006 -6.670829
v 1.228058 0.620276 -6.670753
v 1.227257 0.628714 -6.668237
v 1.227226 0.629022 -6.668141
v 1.226409 0.636984 -6.665547
v 1.226373 0.637323 -6.665432
v 1.225549 0.644805 -6.662793
v 1.225508 0.645170 -6.662659
v 1.224686 0.652175 -6.660006
v 1.224639 0.652559 -6.659856
v 1.223827 0.659092 -6.657216
v 1.223776 0.659488 -6.657052
v 1.222980 0.665559 -6.654452
v 1.222926 0.665960 -6.654275
v 1.222153 0.671579 -6.651739
v 1.222096 0.671981 -6.651553
v 1.221351 0.677161 -6.649099
v 1.221293 0.677558 -6.648907
v 1.220582 0.682312 -6.646555
v 1.220522 0.682700 -6.646359
v 1.219849 0.687038 -6.644127
v 1.219790 0.687414 -6.643930
v 1.219159 0.691347 -6.641833
v 1.219100 0.691705 -6.641639
v 1.218516 0.695242 -6.639691
v 1.218459 0.695578 -6.639503
v 1.217925 0.698729 -6.637718
v 1.217871 0.699040 -6.637540
v 1.217389 0.701814 -6.635928
v 1.217340 0.702094 -6.635764
v 1.216912 0.704508 -6.634330
v 1.238241 0.570213 -6.680895
v 1.234911 0.570117 -6.681086
v 1.241565 0.570299 -6.680631
v 1.244883 0.570376 -6.680293
v 1.248194 0.570442 -6.679882
v 1.251494 0.570498 -6.679399
v 1.254783 0.570543 -6.678842
v 1.258059 0.570579 -6.678214
v 1.261321 0.570605 -6.677513
v 1.264567 0.570620 -6.676741
v 1.267794 0.570625 -6.675897
v 1.271003 0.570620 -6.674983
v 1.274190 0.570605 -6.673998
v 1.277355 0.570579 -6.672943
v 1.280496 0.570543 -6.671818
v 1.283611 0.570498 -6.670625
v 1.286699 0.570442 -6.669364
v 1.289758 0.570376 -6.668034
v 1.292787 0.570299 -6.666638
v 1.295784 0.570213 -6.665176
v 1.298749 0.570117 -6.663647
v 1.221580 0.707693 -6.632474
v 1.226372 0.710195 -6.630810
v 1.231219 0.712262 -6.629193
v 1.236102 0.713897 -6.627628
v 1.241016 0.715108 -6.626114
v 1.245960 0.715902 -6.624652
v 1.250932 0.716285 -6.623240
v 1.255930 0.716265 -6.621877
v 1.260948 0.715843 -6.620566
v 1.265978 0.715009 -6.619309
v 1.271011 0.713757 -6.618112
v 1.276036 0.712079 -6.616976
v 1.281044 0.709968 -6.615907
v 1.286015 0.707421 -6.614911
v 1.298341 0.581015 -6.661997
v 1.298338 0.581080 -6.661986
v 1.297861 0.591477 -6.660087
v 1.297855 0.591603 -6.660062
v 1.297319 0.601502 -6.657952
v 1.297308 0.601681 -6.657911
v 1.296722 0.611093 -6.655626
v 1.296707 0.611321 -6.655567
v 1.296080 0.620257 -6.653138
v 1.296060 0.620528 -6.653061
v 1.295401 0.628994 -6.650519
v 1.295375 0.629303 -6.650422
v 1.294693 0.637292 -6.647803
v 1.294663 0.637632 -6.647687
v 1.293967 0.645142 -6.645023
v 1.293931 0.645508 -6.644889
v 1.293230 0.652539 -6.642211
v 1.293190 0.652924 -6.642060
v 1.292491 0.659482 -6.639397
v 1.292447 0.659879 -6.639231
v 1.291757 0.665974 -6.636610
v 1.291710 0.666377 -6.636431
v 1.291036 0.672019 -6.633873
v 1.290987 0.672422 -6.633686
v 1.290334 0.677624 -6.631212
v 1.290282 0.678023 -6.631018
v 1.289656 0.682796 -6.628647
v 1.289604 0.683186 -6.628450
v 1.289008 0.687543 -6.626199
v 1.288956 0.687920 -6.626001
v 1.288396 0.691870 -6.623887
v 1.288344 0.692230 -6.623691
v 1.287824 0.695783 -6.621729
v 1.287774 0.696121 -6.621539
v 1.287297 0.699286 -6.619740
v 1.287250 0.699598 -6.619560
v 1.286819 0.702385 -6.617936
v 1.286775 0.702667 -6.617770
v 1.286391 0.705092 -6.616325
v 1.286352 0.705339 -6.616176
v 1.304571 0.569895 -6.660397
v 1.301678 0.570011 -6.662054
v 1.307427 0.569769 -6.658677
v 1.310244 0.569633 -6.656895
v 1.313020 0.569488 -6.655050
v 1.315755 0.569333 -6.653146
v 1.318446 0.569168 -6.651181
v 1.321093 0.568994 -6.649158
v 1.323694 0.568811 -6.647078
v 1.326249 0.568618 -6.644940
v 1.290929 0.704438 -6.613994
v 1.295763 0.701017 -6.613162
v 1.300496 0.697159 -6.612421
v 1.305108 0.692867 -6.611779
v 1.309578 0.688156 -6.611237
v 1.313887 0.683042 -6.610800
v 1.318016 0.677541 -6.610471
v 1.321945 0.671666 -6.610254
v 1.325664 0.665430 -6.610150
v 1.329164 0.658844 -6.610160
v 1.326947 0.579064 -6.642388
v 1.326951 0.579127 -6.642372
v 1.327530 0.589052 -6.639615
v 1.327536 0.589172 -6.639580
v 1.328008 0.598583 -6.636656
v 1.328016 0.598753 -6.636600
v 1.328391 0.607664 -6.633544
v 1.328399 0.607879 -6.633467
v 1.328690 0.616305 -6.630310
v 1.328697 0.616560 -6.630211
v 1.328912 0.624510 -6.626985
v 1.328918 0.624800 -6.626863
v 1.329066 0.632271 -6.623603
v 1.329071 0.632589 -6.623459
v 1.329160 0.639584 -6.620198
v 1.329163 0.639924 -6.620034
v 1.329203 0.646447 -6.616803
v 1.329204 0.646804 -6.616621
v 1.329201 0.652865 -6.613448
v 1.329200 0.653232 -6.613251
v 1.331211 0.568205 -6.640500
v 1.328755 0.568416 -6.642747
v 1.333617 0.567985 -6.638199
v 1.335971 0.567756 -6.635846
v 1.338272 0.567518 -6.633442
v 1.340518 0.567271 -6.630988
v 1.342710 0.567016 -6.628485
v 1.344844 0.566753 -6.625935
v 1.346922 0.566481 -6.623339
v 1.348941 0.566201 -6.620697
v 1.350900 0.565914 -6.618012
v 1.332438 0.651918 -6.610284
v 1.335479 0.644663 -6.610524
v 1.338278 0.637089 -6.610879
v 1.340829 0.629207 -6.611350
v 1.343123 0.621029 -6.611937
v 1.345153 0.612566 -6.612639
v 1.346911 0.603828 -6.613459
v 1.348383 0.594810 -6.614398
v 1.349551 0.585497 -6.615466
v 1.350396 0.575870 -6.616668
f 1 2 3
f 1 4 2
f 1 5 4
f 1 6 5
f 1 7 6
f 1 8 7
f 1 9 8
f 1 10 9
f 1 11 10
f 1 12 13
f 1 13 14
f 1 14 15
f 1 15 16
f 1 16 17
f 1 17 18
f 1 18 19
f 1 19 20
f 1 20 21
f 1 22 11
f 1 23 22
f 1 24 23
f 1 25 24
f 1 26 25
f 1 27 26
f 1 28 27
f 1 29 28
f 1 30 29
f 1 31 30
f 1 32 31
f 1 33 32
f 1 34 33
f 1 35 34
f 1 36 35
f 1 37 36
f 1 38 37
f 1 39 38
f 1 40 39
f 1 21 40
f 11 41 42
f 11 43 41
f 11 44 43
f 11 45 44
f 11 46 45
f 11 47 46
f 11 48 47
f 11 49 48
f 11 50 49
f 21 51 52
f 21 52 53
f 21 53 54
f 21 54 55
f 21 55 56
f 21 56 57
f 21 57 58
f 21 58 59
f 21 59 60
f 11 22 50
f 22 61 50
f 22 23 61
f 23 62 61
f 23 24 62
f 24 63 62
f 24 25 63
f 25 64 63
f 25 26 64
f 26 65 64
f 26 27 65
f 27 66 65
f 27 28 66
f 28 67 66
f 28 29 67
f 29 68 67
f 29 30 68
f 30 69 68
f 30 31 69
f 31 70 69
f 31 32 70
f 32 71 70
f 32 33 71
f 33 72 71
f 33 34 72
f 34 73 72
f 34 35 73
f 35 74 73
f 35 36 74
f 36 75 74
f 36 37 75
f 37 76 75
f 37 38 76
f 38 77 76
f 38 39 77
f 39 78 77
f 39 40 78
f 40 79 78
f 40 21 79
f 21 80 79
f 21 81 80
f 21 82 81
f 21 83 82
f 21 84 83
f 21 85 84
f 21 86 85
f 21 87 86
f 21 88 87
f 21 89 88
f 21 90 89
f 21 91 90
f 21 92 91
f 21 93 92
f 21 94 93
f 21 95 94
f 21 96 95
f 21 97 96
f 21 98 97
f 21 99 98
f 21 60 99
f 50 100 101
f 50 102 100
f 50 103 102
f 50 104 103
f 50 105 104
f 50 106 105
f 50 107 106
f 50 108 107
f 50 109 108
f 50 110 109
f 50 111 110
f 50 112 111
f 50 113 112
f 50 114 113
f 50 115 114
f 50 116 115
f 50 117 116
f 50 118 117
f 50 119 118
f 50 120 119
f 60 121 122
f 60 122 123
f 60 123 124
f 60 124 125
f 60 125 126
f 60 126 127
f 60 127 128
f 60 128 129
f 60 129 130
f 60 130 131
f 60 131 132
f 60 132 133
f 60 133 134
f 50 61 120
f 61 135 120
f 61 62 135
f 62 136 135
f 62 63 136
f 63 137 136
f 63 64 137
f 64 138 137
f 64 65 138
f 65 139 138
f 65 66 139
f 66 140 139
f 66 67 140
f 67 141 140
f 67 68 141
f 68 142 141
f 68 69 142
f 69 143 142
f 69 70 143
f 70 144 143
f 70 71 144
f 71 145 144
f 71 72 145
f 72 146 145
f 72 73 146
f 73 147 146
f 73 74 147
f 74 148 147
f 74 75 148
f 75 149 148
f 75 76 149
f 76 150 149
f 76 77 150
f 77 151 150
f 77 78 151
f 78 152 151
f 78 79 152
f 79 153 152
f 79 80 153
f 80 154 153
f 80 81 154
f 81 155 154
f 81 82 155
f 82 156 155
f 82 83 156
f 83 157 156
f 83 84 157
f 84 158 157
f 84 85 158
f 85 159 158
f 85 86 159
f 86 160 159
f 86 87 160
f 87 161 160
f 87 88 161
f 88 162 161
f 88 89 162
f 89 163 162
f 89 90 163
f 90 164 163
f 90 91 164
f 91 165 164
f 91 92 165
f 92 166 165
f 92 93 166
f 93 167 166
f 93 94 167
f 94 168 167
f 94 95 168
f 95 169 168
f 95 96 169
f 96 170 169
f 96 97 170
f 97 171 170
f 97 98 171
f 98 172 171
f 98 99 172
f 99 173 172
f 99 60 173
f 60 174 173
f 60 134 174
f 120 175 176
f 120 177 175
f 120 178 177
f 120 179 178
f 120 180 179
f 120 181 180
f 120 182 181
f 120 183 182
f 120 184 183
f 134 185 186
f 134 186 187
f 134 187 188
f 134 188 189
f 134 189 190
f 134 190 191
f 134 191 192
f 134 192 193
f 134 193 194
f 120 135 184
f 135 195 184
f 135 136 195
f 136 196 195
f 136 137 196
f 137 197 196
f 137 138 197
f 138 198 197
f 138 139 198
f 139 199 198
f 139 140 199
f 140 200 199
f 140 141 200
f 141 201 200
f 141 142 201
f 142 202 201
f 142 143 202
f 143 203 202
f 143 144 203
f 144 204 203
f 144 145 204
f 145 205 204
f 145 146 205
f 146 206 205
f 146 147 206
f 147 207 206
f 147 148 207
f 148 208 207
f 148 149 208
f 149 209 208
f 149 150 209
f 150 210 209
f 150 151 210
f 151 211 210
f 151 152 211
f 152 212 211
f 152 153 212
f 153 213 212
f 153 154 213
f 154 214 213
f 154 155 214
f 155 194 214
f 155 156 194
f 156 157 194
f 157 158 194
f 158 159 194
f 159 160 194
f 160 161 194
f 161 162 194
f 162 163 194
f 163 164 194
f 164 165 194
f 165 166 194
f 166 167 194
f 167 168 194
f 168 169 194
f 169 170 194
f 170 171 194
f 171 172 194
f 172 173 194
f 173 174 194
f 174 134 194
f 184 215 216
f 184 217 215
f 184 218 217
f 184 219 218
f 184 220 219
f 184 221 220
f 184 222 221
f 184 223 222
f 184 224 223
f 184 225 224
f 194 226 227
f 194 227 228
f 194 228 229
f 194 229 230
f 194 230 231
f 194 231 232
f 194 232 233
f 194 233 234
f 194 234 235
f 194 235 225
f 184 195 225
f 195 196 225
f 196 197 225
f 197 198 225
f 198 199 225
f 199 200 225
f 200 201 225
f 201 202 225
f 202 203 225
f 203 204 225
f 204 205 225
f 205 206 225
f 206 207 225
f 207 208 225
f 208 209 225
f 209 210 225
f 210 211 225
f 211 212 225
f 212 213 225
f 213 214 225
f 214 194 225
