v -0.411362 -0.237500 -2.530628
v -0.458815 -0.122939 -2.530628
v 0.458815 -0.122939 -2.646255
v -0.411362 -0.237500 -2.646255
v -0.458815 -0.122939 -2.646255
v 0.458815 -0.122939 -2.761883
v -0.411362 -0.237500 -2.877511
v -0.458815 -0.122939 -2.877511
v 0.458815 -0.122939 -2.993138
v -0.411362 -0.237500 -2.993138
v -0.458815 -0.122939 -2.993138
v 0.458815 -0.122939 -3.108766
v -0.334363 -0.337382 -2.880000
v -0.334509 -0.337238 -2.872896
v -0.334946 -0.336804 -2.865873
v -0.335672 -0.336081 -2.858922
v -0.336684 -0.335065 -2.852033
v -0.337981 -0.333758 -2.845198
v -0.339555 -0.332157 -2.838436
v -0.341398 -0.330263 -2.831777
v -0.343501 -0.328074 -2.825250
v -0.345855 -0.325591 -2.818886
v -0.348446 -0.322816 -2.812710
v -0.351258 -0.319755 -2.806747
v -0.354271 -0.316413 -2.801018
v -0.357468 -0.312796 -2.795548
v -0.360829 -0.308913 -2.790358
v -0.364330 -0.304775 -2.785467
v -0.367949 -0.300396 -2.780895
v -0.371663 -0.295790 -2.776662
v -0.375448 -0.290969 -2.772784
v -0.379284 -0.285950 -2.769271
v -0.383151 -0.280749 -2.766130
v -0.387027 -0.275381 -2.763371
v -0.390895 -0.269863 -2.761000
v -0.394737 -0.264210 -2.759020
v -0.398541 -0.258436 -2.757433
v -0.402293 -0.252558 -2.756242
v -0.405979 -0.246589 -2.755447
v -0.409588 -0.240546 -2.755050
v -0.413112 -0.234442 -2.755049
v -0.416541 -0.228295 -2.755447
v -0.419867 -0.222118 -2.756242
v -0.423083 -0.215929 -2.757433
v -0.426181 -0.209747 -2.759020
v -0.429156 -0.203592 -2.761000
v -0.432002 -0.197483 -2.763372
v -0.434712 -0.191442 -2.766131
v -0.437283 -0.185492 -2.769272
v -0.439712 -0.179660 -2.772786
v -0.441994 -0.173972 -2.776664
v -0.444127 -0.168453 -2.780898
v -0.446109 -0.163129 -2.785469
v -0.447941 -0.158028 -2.790360
v -0.449624 -0.153176 -2.795550
v -0.451158 -0.148599 -2.801021
v -0.452545 -0.144319 -2.806749
v -0.453791 -0.140354 -2.812713
v -0.454898 -0.136722 -2.818889
v -0.455871 -0.133442 -2.825253
v -0.456715 -0.130527 -2.831779
v -0.457434 -0.127984 -2.838438
v -0.458033 -0.125821 -2.845199
v -0.458517 -0.124044 -2.852033
v -0.458890 -0.122660 -2.858922
v -0.459154 -0.121669 -2.865873
v -0.459311 -0.121074 -2.872896
v -0.459363 -0.120876 -2.880000
v -0.472563 -0.048055 -2.415000
v -0.475000 0.000000 -2.415000
v -0.475000 0.000000 -3.213787
v -0.470607 0.000000 -3.224393
v -0.468192 -0.047610 -3.224393
v 0.468192 -0.047610 -3.224393
v 0.470607 0.000000 -3.224393
v 0.475000 0.000000 -3.213787
v -0.335876 -0.335876 -2.530628
v -0.335876 -0.335876 -2.646255
v -0.335876 -0.335876 -2.877511
v -0.335876 -0.335876 -2.993138
v -0.458815 -0.122939 -3.108766
v -0.465277 -0.095617 -2.415000
v -0.460973 -0.094732 -3.224393
v 0.460973 -0.094732 -3.224393
v -0.237500 -0.411362 -2.530628
v -0.237500 -0.411362 -2.646255
v -0.237500 -0.411362 -2.877511
v -0.237500 -0.411362 -2.993138
v -0.453216 -0.142197 -2.415000
v -0.449024 -0.140882 -3.224393
v 0.449024 -0.140882 -3.224393
v -0.122939 -0.458815 -2.530628
v -0.122939 -0.458815 -2.646255
v -0.122939 -0.458815 -2.877511
v -0.122939 -0.458815 -2.993138
v -0.436505 -0.187319 -2.415000
v -0.432468 -0.185586 -3.224393
v 0.432468 -0.185586 -3.224393
v 0.000000 -0.475000 -2.530628
v 0.000000 -0.475000 -2.646255
v 0.000000 -0.475000 -2.877511
v 0.000000 -0.475000 -2.993138
v -0.415315 -0.230518 -2.415000
v -0.411473 -0.228386 -3.224393
v 0.411473 -0.228386 -3.224393
v 0.122939 -0.458815 -2.530628
v 0.122939 -0.458815 -2.646255
v 0.122939 -0.458815 -2.877511
v 0.122939 -0.458815 -2.993138
v -0.389863 -0.271352 -2.415000
v -0.386257 -0.268843 -3.224393
v 0.386257 -0.268843 -3.224393
v 0.237500 -0.411362 -2.530628
v 0.237500 -0.411362 -2.646255
v 0.237500 -0.411362 -2.877511
v 0.237500 -0.411362 -2.993138
v -0.360410 -0.309402 -2.415000
v -0.357077 -0.306540 -3.224393
v 0.357077 -0.306540 -3.224393
v 0.335876 -0.335876 -2.530628
v 0.335876 -0.335876 -2.646255
v 0.335876 -0.335876 -2.993138
v -0.327259 -0.344277 -2.415000
v -0.324232 -0.341092 -3.224393
v 0.324232 -0.341092 -3.224393
v 0.411362 -0.237500 -2.530628
v 0.411362 -0.237500 -2.646255
v 0.411362 -0.237500 -2.993138
v -0.290750 -0.375618 -2.415000
v -0.288061 -0.372144 -3.224393
v 0.288061 -0.372144 -3.224393
v 0.458815 -0.122939 -2.530628
v 0.475000 0.000000 -2.415000
v 0.472563 -0.048055 -2.415000
v -0.248934 -0.399378 -3.224393
v 0.248934 -0.399378 -3.224393
v 0.465277 -0.095617 -2.415000
v -0.207252 -0.422513 -3.224393
v 0.207252 -0.422513 -3.224393
v 0.453216 -0.142197 -2.415000
v -0.163444 -0.441312 -3.224393
v 0.163444 -0.441312 -3.224393
v 0.436505 -0.187319 -2.415000
v -0.117959 -0.455583 -3.224393
v 0.117959 -0.455583 -3.224393
v 0.415315 -0.230518 -2.415000
v -0.071263 -0.465180 -3.224393
v 0.071263 -0.465180 -3.224393
v 0.389863 -0.271352 -2.415000
v -0.023836 -0.470003 -3.224393
v 0.023836 -0.470003 -3.224393
v 0.360410 -0.309402 -2.415000
v 0.327259 -0.344277 -2.415000
v 0.290750 -0.375618 -2.415000
v 0.251258 -0.403106 -2.415000
v 0.209187 -0.426457 -2.415000
v 0.164970 -0.445432 -2.415000
v 0.119060 -0.459837 -2.415000
v 0.071928 -0.469522 -2.415000
v 0.024058 -0.474390 -2.415000
v -0.024058 -0.474390 -2.415000
v -0.071928 -0.469522 -2.415000
v -0.119060 -0.459837 -2.415000
v -0.164970 -0.445432 -2.415000
v -0.209187 -0.426457 -2.415000
v -0.251258 -0.403106 -2.415000
v 0.459363 -0.120876 -2.880000
v 0.334363 -0.337382 -2.880000
v 0.336684 -0.335065 -2.852033
v -0.458815 -0.122939 -2.761883
v 0.458815 -0.122939 -2.877511
v 0.337981 -0.333758 -2.845199
v 0.339555 -0.332157 -2.838437
v 0.341397 -0.330263 -2.831778
v 0.343500 -0.328074 -2.825251
v 0.345854 -0.325591 -2.818887
v 0.348446 -0.322816 -2.812711
v 0.351258 -0.319755 -2.806747
v 0.354271 -0.316414 -2.801018
v 0.357468 -0.312797 -2.795548
v 0.360828 -0.308913 -2.790358
v 0.364330 -0.304775 -2.785467
v 0.367949 -0.300397 -2.780896
v 0.371663 -0.295790 -2.776662
v 0.375448 -0.290970 -2.772784
v 0.379284 -0.285951 -2.769271
v 0.383150 -0.280749 -2.766131
v 0.387027 -0.275382 -2.763371
v 0.432001 -0.197484 -2.763371
v 0.390894 -0.269863 -2.761000
v 0.394737 -0.264210 -2.759020
v 0.398541 -0.258437 -2.757433
v 0.402293 -0.252558 -2.756242
v 0.405979 -0.246589 -2.755447
v 0.409588 -0.240546 -2.755050
v 0.434712 -0.191442 -2.766131
v 0.437283 -0.185493 -2.769272
v 0.439712 -0.179661 -2.772785
v 0.441994 -0.173972 -2.776664
v 0.444126 -0.168453 -2.780897
v 0.446109 -0.163130 -2.785469
v 0.447941 -0.158028 -2.790360
v 0.449624 -0.153176 -2.795550
v 0.451158 -0.148599 -2.801020
v 0.452545 -0.144319 -2.806749
v 0.453791 -0.140354 -2.812713
v 0.454898 -0.136722 -2.818888
v 0.455871 -0.133442 -2.825252
v 0.456715 -0.130527 -2.831779
v 0.457434 -0.127984 -2.838437
v 0.458033 -0.125821 -2.845199
v 0.458517 -0.124044 -2.852033
v 0.458890 -0.122660 -2.858922
v 0.459154 -0.121670 -2.865873
v 0.459311 -0.121074 -2.872895
v 0.062000 -0.470936 -2.588441
v 0.000000 -0.475000 -2.588441
v 0.122939 -0.458815 -2.588441
v 0.181775 -0.438843 -2.588441
v 0.237500 -0.411362 -2.588441
v 0.289162 -0.376843 -2.588441
v 0.335876 -0.335876 -2.588441
v 0.376843 -0.289162 -2.588441
v 0.411362 -0.237500 -2.588441
v 0.062000 -0.470936 -2.704069
v 0.000000 -0.475000 -2.704069
v 0.122939 -0.458815 -2.704069
v 0.181775 -0.438843 -2.704069
v 0.237500 -0.411362 -2.704069
v 0.289162 -0.376843 -2.704069
v 0.335876 -0.335876 -2.704069
v 0.376843 -0.289162 -2.704069
v 0.411362 -0.237500 -2.704069
v 0.000000 -0.475000 -2.761883
v 0.062000 -0.470936 -2.935324
v 0.000000 -0.475000 -2.935324
v 0.122939 -0.458815 -2.935324
v 0.181775 -0.438843 -2.935324
v 0.237500 -0.411362 -2.935324
v 0.289162 -0.376843 -2.935324
v 0.335876 -0.335876 -2.935324
v 0.376843 -0.289162 -2.935324
v 0.062000 -0.470936 -3.050952
v 0.000000 -0.475000 -3.050952
v 0.122939 -0.458815 -3.050952
v 0.000000 -0.475000 -3.108766
v 0.181775 -0.438843 -3.050952
v 0.237500 -0.411362 -3.050952
v 0.289162 -0.376843 -3.050952
v 0.335876 -0.335876 -3.050952
v 0.376843 -0.289162 -3.050952
v 0.411362 -0.237500 -3.050952
v 0.376843 -0.289162 -2.877511
v 0.000000 -0.475000 -2.819697
v -0.210087 -0.426015 -2.559535
v -0.181775 -0.438843 -2.559535
v -0.263896 -0.394948 -2.559535
v -0.289162 -0.376843 -2.559535
v 0.313189 -0.357124 -2.617348
v 0.289162 -0.376843 -2.617348
v 0.335876 -0.335876 -2.617348
v 0.357124 -0.313189 -2.617348
v 0.376843 -0.289162 -2.617348
v 0.394948 -0.263896 -2.617348
v 0.411362 -0.237500 -2.617348
v 0.426015 -0.210087 -2.617348
v -0.210087 -0.426015 -2.675162
v -0.181775 -0.438843 -2.675162
v -0.263896 -0.394948 -2.675162
v -0.289162 -0.376843 -2.675162
v 0.313189 -0.357124 -2.732976
v 0.289162 -0.376843 -2.732976
v 0.335876 -0.335876 -2.732976
v 0.357124 -0.313189 -2.732976
v 0.376843 -0.289162 -2.732976
v 0.394948 -0.263896 -2.732976
v 0.411362 -0.237500 -2.732976
v 0.426015 -0.210087 -2.732976
v 0.289162 -0.376843 -2.761883
v -0.210087 -0.426015 -2.906417
v -0.181775 -0.438843 -2.906417
v -0.263896 -0.394948 -2.906417
v -0.289162 -0.376843 -2.906417
v 0.313189 -0.357124 -2.964231
v 0.289162 -0.376843 -2.964231
v 0.335876 -0.335876 -2.964231
v 0.357124 -0.313189 -2.964231
v 0.376843 -0.289162 -2.964231
v 0.394948 -0.263896 -2.964231
v 0.411362 -0.237500 -2.964231
v 0.426015 -0.210087 -2.964231
v -0.210087 -0.426015 -3.022045
v -0.181775 -0.438843 -3.022045
v -0.263896 -0.394948 -3.022045
v -0.289162 -0.376843 -3.022045
v 0.313189 -0.357124 -3.079859
v 0.289162 -0.376843 -3.079859
v 0.335876 -0.335876 -3.079859
v 0.289162 -0.376843 -3.108766
v 0.357124 -0.313189 -3.079859
v 0.376843 -0.289162 -3.079859
v 0.394948 -0.263896 -3.079859
v 0.411362 -0.237500 -3.079859
v 0.426015 -0.210087 -3.079859
v -0.122939 -0.458815 -2.559535
v -0.092668 -0.465873 -2.559535
v -0.122939 -0.458815 -2.675162
v -0.092668 -0.465873 -2.675162
v -0.122939 -0.458815 -2.906417
v -0.092668 -0.465873 -2.906417
v -0.122939 -0.458815 -3.022045
v -0.092668 -0.465873 -3.022045
v -0.289162 -0.376843 -3.108766
v -0.031066 -0.473983 -2.559535
v 0.000000 -0.475000 -2.559535
v -0.031066 -0.473983 -2.675162
v 0.000000 -0.475000 -2.675162
v -0.031066 -0.473983 -2.906417
v 0.000000 -0.475000 -2.906417
v -0.031066 -0.473983 -3.022045
v 0.000000 -0.475000 -3.022045
v 0.062000 -0.470936 -2.559535
v 0.092668 -0.465873 -2.559535
v 0.062000 -0.470936 -2.675162
v 0.092668 -0.465873 -2.675162
v 0.062000 -0.470936 -2.906417
v 0.092668 -0.465873 -2.906417
v 0.062000 -0.470936 -3.022045
v 0.092668 -0.465873 -3.022045
v 0.152684 -0.449792 -2.559535
v 0.181775 -0.438843 -2.559535
v 0.152684 -0.449792 -2.675162
v 0.181775 -0.438843 -2.675162
v 0.152684 -0.449792 -2.906417
v 0.181775 -0.438843 -2.906417
v 0.152684 -0.449792 -3.022045
v 0.181775 -0.438843 -3.022045
v 0.237500 -0.411362 -2.559535
v 0.263896 -0.394948 -2.559535
v 0.237500 -0.411362 -2.675162
v 0.263896 -0.394948 -2.675162
v 0.237500 -0.411362 -2.906417
v 0.263896 -0.394948 -2.906417
v 0.237500 -0.411362 -3.022045
v 0.263896 -0.394948 -3.022045
v 0.313189 -0.357124 -2.559535
v 0.335876 -0.335876 -2.559535
v 0.313189 -0.357124 -2.675162
v 0.335876 -0.335876 -2.675162
v 0.313189 -0.357124 -2.906417
v 0.313189 -0.357124 -2.877511
v 0.313189 -0.357124 -3.022045
v 0.335876 -0.335876 -3.022045
v -0.289162 -0.376843 -2.761883
v -0.289162 -0.376843 -2.790790
v 0.426015 -0.210087 -2.877511
v 0.289162 -0.376843 -2.848604
f 2 258 217
f 216 257 258
f 258 2 257
f 217 260 259
f 260 3 259
f 217 259 216
f 2 257 255
f 257 216 255
f 2 255 1
f 5 270 226
f 225 269 270
f 270 5 269
f 226 272 271
f 272 6 271
f 226 271 225
f 5 269 267
f 269 225 267
f 5 267 4
f 8 283 236
f 235 282 283
f 283 8 282
f 236 285 284
f 285 9 284
f 236 284 235
f 8 282 280
f 282 235 280
f 8 280 7
f 11 295 244
f 243 294 295
f 295 11 294
f 244 297 296
f 297 12 296
f 244 296 243
f 11 294 292
f 294 243 292
f 11 292 10
f 13 14 15
f 15 16 17
f 17 18 19
f 19 20 21
f 21 22 23
f 23 24 25
f 25 26 27
f 27 28 29
f 29 30 31
f 31 32 33
f 33 34 35
f 35 36 37
f 37 38 39
f 39 40 41
f 41 42 43
f 43 44 45
f 45 46 47
f 47 48 49
f 49 50 51
f 51 52 53
f 53 54 55
f 55 56 57
f 57 58 59
f 59 60 61
f 61 62 63
f 63 64 65
f 65 66 67
f 67 68 13
f 13 14 15
f 15 16 17
f 17 18 19
f 19 20 21
f 21 22 23
f 23 24 25
f 25 26 27
f 27 28 29
f 29 30 31
f 31 32 33
f 33 34 35
f 35 36 37
f 37 38 39
f 39 40 41
f 41 42 43
f 43 44 45
f 45 46 47
f 47 48 49
f 49 50 51
f 51 52 53
f 53 54 55
f 55 56 57
f 57 58 59
f 59 60 61
f 61 62 63
f 63 64 65
f 65 66 67
f 69 70 71
f 71 72 73
f 74 75 76
f 1 255 216
f 218 256 255
f 255 1 256
f 216 259 261
f 259 3 261
f 216 261 218
f 1 256 305
f 256 218 305
f 1 305 77
f 4 267 225
f 227 268 267
f 267 4 268
f 225 271 273
f 271 6 273
f 225 273 227
f 4 268 307
f 268 227 307
f 4 307 78
f 7 280 235
f 237 281 280
f 280 7 281
f 235 284 286
f 284 9 286
f 235 286 237
f 7 281 309
f 281 237 309
f 7 309 79
f 10 292 243
f 245 293 292
f 292 10 293
f 243 296 298
f 296 12 298
f 243 298 245
f 10 293 311
f 293 245 311
f 10 311 80
f 81 13 15
f 15 17 19
f 19 21 23
f 23 25 27
f 27 29 31
f 31 33 35
f 35 37 39
f 39 41 43
f 43 45 47
f 47 49 51
f 51 53 55
f 55 57 59
f 59 61 63
f 63 65 67
f 67 13 15
f 15 17 19
f 19 21 23
f 23 25 27
f 27 29 31
f 31 33 35
f 35 37 39
f 39 41 43
f 43 45 47
f 47 49 51
f 51 53 55
f 55 57 59
f 59 61 63
f 63 65 67
f 82 69 71
f 71 73 83
f 84 74 76
f 77 305 218
f 219 306 305
f 305 77 306
f 218 261 262
f 261 3 262
f 218 262 219
f 77 306 314
f 306 219 314
f 77 314 85
f 78 307 227
f 228 308 307
f 307 78 308
f 227 273 274
f 273 6 274
f 227 274 228
f 78 308 316
f 308 228 316
f 78 316 86
f 79 309 237
f 238 310 309
f 309 79 310
f 237 286 287
f 286 9 287
f 237 287 238
f 79 310 318
f 310 238 318
f 79 318 87
f 80 311 245
f 247 312 311
f 311 80 312
f 245 298 300
f 298 12 300
f 245 300 247
f 80 312 320
f 312 247 320
f 80 320 88
f 81 15 19
f 19 23 27
f 27 31 35
f 35 39 43
f 43 47 51
f 51 55 59
f 59 63 67
f 67 15 19
f 19 23 27
f 27 31 35
f 35 39 43
f 43 47 51
f 51 55 59
f 59 63 67
f 89 82 71
f 71 83 90
f 91 84 76
f 85 314 219
f 220 315 314
f 314 85 315
f 219 262 263
f 262 3 263
f 219 263 220
f 85 315 322
f 315 220 322
f 85 322 92
f 86 316 228
f 229 317 316
f 316 86 317
f 228 274 275
f 274 6 275
f 228 275 229
f 86 317 324
f 317 229 324
f 86 324 93
f 87 318 238
f 239 319 318
f 318 87 319
f 238 287 288
f 287 9 288
f 238 288 239
f 87 319 326
f 319 239 326
f 87 326 94
f 88 320 247
f 248 321 320
f 320 88 321
f 247 300 301
f 300 12 301
f 247 301 248
f 88 321 328
f 321 248 328
f 88 328 95
f 81 19 27
f 43 51 59
f 59 67 19
f 19 27 35
f 43 51 59
f 59 67 68
f 96 89 71
f 71 90 97
f 98 91 76
f 92 322 220
f 221 323 322
f 322 92 323
f 220 263 264
f 263 3 264
f 220 264 221
f 92 323 330
f 323 221 330
f 92 330 99
f 93 324 229
f 230 325 324
f 324 93 325
f 229 275 276
f 275 6 276
f 229 276 230
f 93 325 332
f 325 230 332
f 93 332 100
f 94 326 239
f 240 327 326
f 326 94 327
f 239 288 289
f 288 9 289
f 239 289 240
f 94 327 334
f 327 240 334
f 94 334 101
f 95 328 248
f 249 329 328
f 328 95 329
f 248 301 302
f 301 12 302
f 248 302 249
f 95 329 336
f 329 249 336
f 95 336 102
f 81 27 35
f 43 59 19
f 43 59 68
f 103 96 71
f 71 97 104
f 105 98 76
f 99 330 221
f 222 331 330
f 330 99 331
f 221 264 265
f 264 3 265
f 221 265 222
f 99 331 338
f 331 222 338
f 99 338 106
f 100 332 230
f 231 333 332
f 332 100 333
f 230 276 277
f 276 6 277
f 230 277 231
f 100 333 340
f 333 231 340
f 100 340 107
f 101 334 240
f 241 335 334
f 334 101 335
f 240 289 290
f 289 9 290
f 240 290 241
f 101 335 342
f 335 241 342
f 101 342 108
f 102 336 249
f 250 337 336
f 336 102 337
f 249 302 303
f 302 12 303
f 249 303 250
f 102 337 344
f 337 250 344
f 102 344 109
f 110 103 71
f 71 104 111
f 112 105 76
f 106 338 222
f 223 339 338
f 338 106 339
f 222 265 266
f 265 3 266
f 222 266 223
f 106 339 346
f 339 223 346
f 106 346 113
f 107 340 231
f 232 341 340
f 340 107 341
f 231 277 278
f 277 6 278
f 231 278 232
f 107 341 348
f 341 232 348
f 107 348 114
f 108 342 241
f 242 343 342
f 342 108 343
f 241 290 291
f 290 9 291
f 241 291 242
f 108 343 350
f 343 242 350
f 108 350 115
f 109 344 250
f 251 345 344
f 344 109 345
f 250 303 304
f 303 12 304
f 250 304 251
f 109 345 352
f 345 251 352
f 109 352 116
f 117 110 71
f 71 111 118
f 119 112 76
f 113 346 223
f 224 347 346
f 346 113 347
f 223 266 224
f 266 3 224
f 113 347 120
f 347 224 120
f 114 348 232
f 233 349 348
f 348 114 349
f 232 278 233
f 278 6 233
f 114 349 121
f 349 233 121
f 116 352 251
f 252 353 352
f 352 116 353
f 251 304 252
f 304 12 252
f 116 353 122
f 353 252 122
f 123 117 71
f 71 118 124
f 125 119 76
f 120 224 126
f 224 3 126
f 121 233 127
f 233 6 127
f 122 252 128
f 252 12 128
f 129 123 71
f 71 124 130
f 131 125 76
f 132 126 3
f 3 127 6
f 9 128 12
f 132 133 134
f 71 130 135
f 136 131 76
f 133 132 3
f 132 134 137
f 71 135 138
f 139 136 76
f 133 3 6
f 132 137 140
f 71 138 141
f 142 139 76
f 132 140 143
f 71 141 144
f 145 142 76
f 132 143 146
f 71 144 147
f 148 145 76
f 132 146 149
f 71 147 150
f 151 148 76
f 132 149 152
f 71 150 151
f 132 152 153
f 71 151 76
f 132 153 154
f 132 154 155
f 132 155 156
f 132 156 157
f 132 157 158
f 132 158 159
f 132 159 160
f 132 160 161
f 132 161 162
f 132 162 163
f 132 163 164
f 132 164 165
f 132 165 166
f 132 166 129
f 81 35 43
f 43 19 35
f 35 43 68
f 68 132 35
f 35 132 129
f 43 35 129
f 81 43 71
f 81 71 76
f 12 299 76
f 299 246 76
f 246 313 76
f 313 81 76
f 9 12 76
f 9 76 133
f 9 133 167
f 167 168 9
f 170 355 169
f 355 254 169
f 254 357 169
f 357 171 169
f 115 350 168
f 350 242 168
f 242 291 168
f 291 9 168
f 171 356 168
f 356 253 168
f 253 351 168
f 351 115 168
f 172 170 169
f 173 170 172
f 174 170 173
f 175 170 174
f 176 170 175
f 177 170 176
f 178 170 177
f 179 170 178
f 180 170 179
f 181 170 180
f 182 170 181
f 183 170 182
f 184 170 183
f 185 170 184
f 186 170 185
f 187 170 186
f 188 170 187
f 6 279 189
f 279 234 189
f 234 354 189
f 354 170 189
f 170 188 190
f 170 190 191
f 170 191 192
f 170 192 193
f 170 193 194
f 170 194 195
f 196 6 189
f 197 6 196
f 198 6 197
f 199 6 198
f 200 6 199
f 201 6 200
f 202 6 201
f 203 6 202
f 204 6 203
f 205 6 204
f 206 133 6
f 6 205 206
f 207 133 206
f 208 133 207
f 209 133 208
f 210 133 209
f 211 133 210
f 212 133 211
f 213 133 212
f 214 133 213
f 215 133 214
f 167 133 215
f 68 134 132
