v -0.668499 0.010000 0.044829
v -0.668317 0.010000 0.047456
v -0.668126 0.010000 0.050083
v -0.667924 0.010000 0.052708
v -0.667711 0.010000 0.055333
v -0.667489 0.010000 0.057957
v -0.667256 0.010000 0.060580
v -0.667012 0.010000 0.063202
v -0.666759 0.010000 0.065823
v -0.666495 0.010000 0.068444
v -0.666221 0.010000 0.071063
v -0.668499 0.220000 0.044829
v -0.668317 0.220000 0.047456
v -0.668126 0.220000 0.050083
v -0.667924 0.220000 0.052708
v -0.667711 0.220000 0.055333
v -0.667489 0.220000 0.057957
v -0.667256 0.220000 0.060580
v -0.667012 0.220000 0.063202
v -0.666759 0.220000 0.065823
v -0.666495 0.220000 0.068444
v -0.666221 0.220000 0.071063
f 1 2 13
f 1 13 12
f 2 3 14
f 2 14 13
f 3 4 15
f 3 15 14
f 4 5 16
f 4 16 15
f 5 6 17
f 5 17 16
f 6 7 18
f 6 18 17
f 7 8 19
f 7 19 18
f 8 9 20
f 8 20 19
f 9 10 21
f 9 21 20
f 10 11 22
f 10 22 21
