v 0.077614 0.672375 -0.034418
v 0.072627 0.672645 -0.034697
v 0.067636 0.672898 -0.034958
v 0.062641 0.673133 -0.035200
v 0.057642 0.673349 -0.035423
v 0.052640 0.673548 -0.035628
v 0.047636 0.673729 -0.035814
v 0.042629 0.673891 -0.035982
v 0.037619 0.674036 -0.036131
v 0.032607 0.674162 -0.036262
v 0.027594 0.674271 -0.036373
v 0.022579 0.674361 -0.036467
v 0.017563 0.674433 -0.036541
v 0.012545 0.674487 -0.036597
v 0.007528 0.674524 -0.036634
v 0.002509 0.674542 -0.036653
v -0.002509 0.674542 -0.036653
v -0.007528 0.674524 -0.036634
v -0.012545 0.674487 -0.036597
v -0.017563 0.674433 -0.036541
v -0.022579 0.674361 -0.036467
v -0.027594 0.674271 -0.036373
v -0.032607 0.674162 -0.036262
v -0.037619 0.674036 -0.036131
v -0.042629 0.673891 -0.035982
v -0.047636 0.673729 -0.035814
v -0.052640 0.673548 -0.035628
v -0.057642 0.673349 -0.035423
v -0.062641 0.673133 -0.035200
v -0.067636 0.672898 -0.034958
v -0.072627 0.672645 -0.034697
v -0.077614 0.672375 -0.034418
v 0.076850 0.664974 -0.026784
v 0.076877 0.665125 -0.026940
v 0.076903 0.665275 -0.027095
v 0.076928 0.665425 -0.027249
v 0.076954 0.665575 -0.027403
v 0.076978 0.665723 -0.027556
v 0.077003 0.665871 -0.027709
v 0.077027 0.666019 -0.027862
v 0.077050 0.666167 -0.028014
v 0.077073 0.666313 -0.028165
v 0.077095 0.666460 -0.028316
v 0.077117 0.666606 -0.028467
v 0.077139 0.666751 -0.028617
v 0.077160 0.666896 -0.028767
v 0.077180 0.667041 -0.028916
v 0.077200 0.667186 -0.029065
v 0.077220 0.667330 -0.029214
v 0.077239 0.667474 -0.029362
v 0.077258 0.667617 -0.029510
v 0.077277 0.667761 -0.029658
v 0.077295 0.667904 -0.029806
v 0.077312 0.668046 -0.029953
v 0.077329 0.668189 -0.030100
v 0.077346 0.668330 -0.030246
v 0.077362 0.668472 -0.030391
v 0.077378 0.668612 -0.030537
v 0.077393 0.668752 -0.030681
v 0.077408 0.668892 -0.030825
v 0.077422 0.669030 -0.030968
v 0.077436 0.669168 -0.031110
v 0.077449 0.669305 -0.031251
v 0.077462 0.669441 -0.031392
v 0.077475 0.669577 -0.031531
v 0.077487 0.669711 -0.031670
v 0.077498 0.669844 -0.031807
v 0.077509 0.669976 -0.031944
v 0.077519 0.670107 -0.032079
v 0.077529 0.670237 -0.032212
v 0.077538 0.670365 -0.032345
v 0.077547 0.670493 -0.032476
v 0.077555 0.670619 -0.032606
v 0.077563 0.670744 -0.032735
v 0.077570 0.670867 -0.032863
v 0.077576 0.670990 -0.032989
v 0.077582 0.671111 -0.033115
v 0.077588 0.671232 -0.033239
v 0.077593 0.671351 -0.033362
v 0.077597 0.671469 -0.033483
v 0.077601 0.671586 -0.033604
v 0.077605 0.671702 -0.033724
v 0.077608 0.671817 -0.033842
v 0.077610 0.671930 -0.033959
v 0.077612 0.672043 -0.034076
v 0.077613 0.672155 -0.034191
v 0.077614 0.672265 -0.034305
v 0.077614 0.672375 -0.034418
v 0.072627 0.672645 -0.034697
v 0.067636 0.672898 -0.034958
v 0.062641 0.673133 -0.035200
v 0.057642 0.673349 -0.035423
v 0.052640 0.673548 -0.035628
v 0.047636 0.673729 -0.035814
v 0.042629 0.673891 -0.035982
v 0.037619 0.674036 -0.036131
v 0.032607 0.674162 -0.036262
v 0.027594 0.674271 -0.036373
v 0.022579 0.674361 -0.036467
v 0.017563 0.674433 -0.036541
v 0.012545 0.674487 -0.036597
v 0.007528 0.674524 -0.036634
v 0.002509 0.674542 -0.036653
v -0.002509 0.674542 -0.036653
v -0.007528 0.674524 -0.036634
v -0.012545 0.674487 -0.036597
v -0.017563 0.674433 -0.036541
v -0.022579 0.674361 -0.036467
v -0.027594 0.674271 -0.036373
v -0.032607 0.674162 -0.036262
v -0.037619 0.674036 -0.036131
v -0.042629 0.673891 -0.035982
v -0.047636 0.673729 -0.035814
v -0.052640 0.673548 -0.035628
v -0.057642 0.673349 -0.035423
v -0.062641 0.673133 -0.035200
v -0.067636 0.672898 -0.034958
v -0.072627 0.672645 -0.034697
v -0.077614 0.672375 -0.034418
v -0.077614 0.672265 -0.034305
v -0.077613 0.672155 -0.034191
v -0.077612 0.672043 -0.034076
v -0.077610 0.671930 -0.033959
v -0.077608 0.671817 -0.033842
v -0.077605 0.671702 -0.033724
v -0.077601 0.671586 -0.033604
v -0.077597 0.671469 -0.033483
v -0.077593 0.671351 -0.033362
v -0.077588 0.671232 -0.033239
v -0.077582 0.671111 -0.033115
v -0.077576 0.670990 -0.032989
v -0.077570 0.670867 -0.032863
v -0.077563 0.670744 -0.032735
v -0.077555 0.670619 -0.032606
v -0.077547 0.670493 -0.032476
v -0.077538 0.670365 -0.032345
v -0.077529 0.670237 -0.032212
v -0.077519 0.670107 -0.032079
v -0.077509 0.669976 -0.031944
v -0.077498 0.669844 -0.031807
v -0.077487 0.669711 -0.031670
v -0.077475 0.669577 -0.031531
v -0.077462 0.669441 -0.031392
v -0.077449 0.669305 -0.031251
v -0.077436 0.669168 -0.031110
v -0.077422 0.669030 -0.030968
v -0.077408 0.668892 -0.030825
v -0.077393 0.668752 -0.030681
v -0.077378 0.668612 -0.030537
v -0.077362 0.668472 -0.030391
v -0.077346 0.668330 -0.030246
v -0.077329 0.668189 -0.030100
v -0.077312 0.668046 -0.029953
v -0.077295 0.667904 -0.029806
v -0.077277 0.667761 -0.029658
v -0.077258 0.667617 -0.029510
v -0.077239 0.667474 -0.029362
v -0.077220 0.667330 -0.029214
v -0.077200 0.667186 -0.029065
v -0.077180 0.667041 -0.028916
v -0.077160 0.666896 -0.028767
v -0.077139 0.666751 -0.028617
v -0.077117 0.666606 -0.028467
v -0.077095 0.666460 -0.028316
v -0.077073 0.666313 -0.028165
v -0.077050 0.666167 -0.028014
v -0.077027 0.666019 -0.027862
v -0.077003 0.665871 -0.027709
v -0.076978 0.665723 -0.027556
v -0.076954 0.665575 -0.027403
v -0.076928 0.665425 -0.027249
v -0.076903 0.665275 -0.027095
v -0.076877 0.665125 -0.026940
v -0.076850 0.664974 -0.026784
f 173 174 1
f 1 2 3
f 3 4 5
f 5 6 7
f 7 8 9
f 9 10 11
f 11 12 13
f 13 14 15
f 15 16 17
f 17 18 19
f 19 20 21
f 21 22 23
f 23 24 25
f 25 26 27
f 27 28 29
f 29 30 31
f 31 32 33
f 33 34 35
f 35 36 37
f 37 38 39
f 39 40 41
f 41 42 43
f 43 44 45
f 45 46 47
f 47 48 49
f 49 50 51
f 51 52 53
f 53 54 55
f 55 56 57
f 57 58 59
f 59 60 61
f 61 62 63
f 63 64 65
f 65 66 67
f 67 68 69
f 69 70 71
f 71 72 73
f 73 74 75
f 75 76 77
f 77 78 79
f 79 80 81
f 81 82 83
f 83 84 85
f 85 86 87
f 87 88 89
f 89 90 91
f 91 92 93
f 93 94 95
f 95 96 97
f 97 98 99
f 99 100 101
f 101 102 103
f 103 104 105
f 105 106 107
f 107 108 109
f 109 110 111
f 111 112 113
f 113 114 115
f 115 116 117
f 117 118 119
f 119 120 121
f 121 122 123
f 123 124 125
f 125 126 127
f 127 128 129
f 129 130 131
f 131 132 133
f 133 134 135
f 135 136 137
f 137 138 139
f 139 140 141
f 141 142 143
f 143 144 145
f 145 146 147
f 147 148 149
f 149 150 151
f 151 152 153
f 153 154 155
f 155 156 157
f 157 158 159
f 159 160 161
f 161 162 163
f 163 164 165
f 165 166 167
f 167 168 169
f 169 170 171
f 171 172 173
f 173 1 3
f 3 5 7
f 7 9 11
f 11 13 15
f 15 17 19
f 19 21 23
f 23 25 27
f 27 29 31
f 31 33 35
f 35 37 39
f 39 41 43
f 43 45 47
f 47 49 51
f 51 53 55
f 55 57 59
f 59 61 63
f 63 65 67
f 67 69 71
f 71 73 75
f 75 77 79
f 79 81 83
f 83 85 87
f 87 89 91
f 91 93 95
f 95 97 99
f 99 101 103
f 103 105 107
f 107 109 111
f 111 113 115
f 115 117 119
f 119 121 123
f 123 125 127
f 127 129 131
f 131 133 135
f 135 137 139
f 139 141 143
f 143 145 147
f 147 149 151
f 151 153 155
f 155 157 159
f 159 161 163
f 163 165 167
f 167 169 171
f 171 173 3
f 3 7 11
f 11 15 19
f 19 23 27
f 27 31 35
f 35 39 43
f 43 47 51
f 51 55 59
f 59 63 67
f 67 71 75
f 75 79 83
f 83 87 91
f 91 95 99
f 99 103 107
f 107 111 115
f 115 119 123
f 123 127 131
f 131 135 139
f 139 143 147
f 147 151 155
f 155 159 163
f 163 167 171
f 171 3 11
f 11 19 27
f 27 35 43
f 43 51 59
f 59 67 75
f 75 83 91
f 91 99 107
f 107 115 123
f 123 131 139
f 139 147 155
f 155 163 171
f 171 11 27
f 27 43 59
f 59 75 91
f 91 107 123
f 123 139 155
f 155 171 27
f 27 59 91
f 91 123 155
