v -0.629446 0.636000 -4.319765
v 0.000000 0.636000 -0.750000
v 0.000000 0.636000 -0.500000
v 0.378000 0.636000 -0.500000
v 0.378000 0.636000 -0.750000
v 0.377696 0.636000 -0.814655
v 0.376788 0.636000 -0.879310
v 0.375281 0.636000 -0.943964
v 0.373184 0.636000 -1.008619
v 0.370502 0.636000 -1.073274
v 0.367240 0.636000 -1.137929
v 0.363407 0.636000 -1.202583
v 0.359007 0.636000 -1.267238
v 0.354048 0.636000 -1.331893
v 0.348536 0.636000 -1.396548
v 0.342477 0.636000 -1.461203
v 0.335877 0.636000 -1.525857
v 0.328744 0.636000 -1.590512
v 0.321082 0.636000 -1.655167
v 0.312899 0.636000 -1.719822
v 0.304201 0.636000 -1.784476
v 0.294995 0.636000 -1.849131
v 0.285286 0.636000 -1.913786
v 0.275081 0.636000 -1.978441
v 0.264389 0.636000 -2.043096
v 0.253215 0.636000 -2.107750
v 0.241568 0.636000 -2.172405
v 0.229455 0.636000 -2.237060
v 0.216882 0.636000 -2.301715
v 0.203858 0.636000 -2.366369
v 0.190389 0.636000 -2.431024
v 0.176485 0.636000 -2.495679
v 0.162160 0.636000 -2.560334
v 0.147429 0.636000 -2.624989
v 0.132305 0.636000 -2.689643
v 0.116803 0.636000 -2.754298
v 0.100936 0.636000 -2.818953
v 0.084720 0.636000 -2.883608
v 0.068168 0.636000 -2.948262
v 0.051297 0.636000 -3.012917
v 0.034124 0.636000 -3.077572
v 0.016666 0.636000 -3.142226
v -0.001060 0.636000 -3.206881
v -0.019035 0.636000 -3.271535
v -0.037243 0.636000 -3.336190
v -0.055667 0.636000 -3.400845
v -0.074289 0.636000 -3.465499
v -0.093091 0.636000 -3.530154
v -0.112056 0.636000 -3.594809
v -0.131168 0.636000 -3.659463
v -0.150408 0.636000 -3.724118
v -0.169759 0.636000 -3.788773
v -0.189205 0.636000 -3.853428
v -0.208727 0.636000 -3.918084
v -0.228308 0.636000 -3.982739
v -0.247936 0.636000 -4.047394
v -0.267599 0.636000 -4.112049
v -0.287289 0.636000 -4.176705
v -0.306995 0.636000 -4.241360
v -0.326706 0.636000 -4.306015
v -0.332045 0.636000 -4.306083
v -0.337390 0.636000 -4.306165
v -0.342741 0.636000 -4.306260
v -0.348098 0.636000 -4.306368
v -0.353464 0.636000 -4.306490
v -0.358838 0.636000 -4.306626
v -0.364221 0.636000 -4.306776
v -0.369614 0.636000 -4.306940
v -0.375018 0.636000 -4.307118
v -0.380433 0.636000 -4.307310
v -0.385861 0.636000 -4.307516
v -0.391302 0.636000 -4.307736
v -0.396757 0.636000 -4.307972
v -0.402227 0.636000 -4.308221
v -0.407712 0.636000 -4.308485
v -0.413213 0.636000 -4.308765
v -0.418731 0.636000 -4.309058
v -0.424267 0.636000 -4.309367
v -0.429821 0.636000 -4.309691
v -0.435393 0.636000 -4.310029
v -0.440980 0.636000 -4.310380
v -0.446581 0.636000 -4.310741
v -0.452194 0.636000 -4.311111
v -0.457817 0.636000 -4.311488
v -0.463448 0.636000 -4.311872
v -0.469086 0.636000 -4.312260
v -0.474728 0.636000 -4.312650
v -0.480372 0.636000 -4.313041
v -0.486017 0.636000 -4.313432
v -0.491661 0.636000 -4.313820
v -0.497301 0.636000 -4.314205
v -0.502937 0.636000 -4.314584
v -0.508566 0.636000 -4.314955
v -0.514186 0.636000 -4.315318
v -0.519795 0.636000 -4.315670
v -0.525392 0.636000 -4.316011
v -0.530975 0.636000 -4.316337
v -0.536542 0.636000 -4.316649
v -0.542095 0.636000 -4.316946
v -0.547633 0.636000 -4.317229
v -0.553158 0.636000 -4.317496
v -0.558670 0.636000 -4.317750
v -0.564170 0.636000 -4.317989
v -0.569659 0.636000 -4.318214
v -0.575136 0.636000 -4.318424
v -0.580603 0.636000 -4.318620
v -0.586060 0.636000 -4.318803
v -0.591509 0.636000 -4.318971
v -0.596949 0.636000 -4.319126
v -0.602381 0.636000 -4.319266
v -0.607805 0.636000 -4.319393
v -0.613224 0.636000 -4.319506
v -0.618636 0.636000 -4.319606
v -0.624043 0.636000 -4.319692
f 1 113 114
f 1 112 113
f 1 111 112
f 1 110 111
f 1 109 110
f 1 108 109
f 1 107 108
f 1 106 107
f 1 105 106
f 1 104 105
f 1 103 104
f 1 102 103
f 1 101 102
f 1 100 101
f 1 99 100
f 1 98 99
f 1 97 98
f 1 96 97
f 1 95 96
f 1 94 95
f 1 93 94
f 1 92 93
f 1 91 92
f 1 90 91
f 1 89 90
f 1 88 89
f 1 87 88
f 1 86 87
f 1 85 86
f 1 84 85
f 1 83 84
f 1 82 83
f 1 81 82
f 1 80 81
f 1 79 80
f 1 78 79
f 1 77 78
f 1 76 77
f 1 75 76
f 1 74 75
f 1 73 74
f 1 72 73
f 1 71 72
f 1 70 71
f 1 69 70
f 1 68 69
f 1 67 68
f 1 66 67
f 1 65 66
f 1 64 65
f 1 63 64
f 1 62 63
f 1 61 62
f 1 60 61
f 1 59 60
f 1 58 59
f 1 57 58
f 1 56 57
f 1 55 56
f 1 54 55
f 1 53 54
f 1 52 53
f 1 51 52
f 1 50 51
f 1 49 50
f 1 48 49
f 1 47 48
f 1 46 47
f 1 45 46
f 1 44 45
f 1 43 44
f 1 42 43
f 1 41 42
f 1 40 41
f 1 39 40
f 1 38 39
f 1 37 38
f 1 36 37
f 1 35 36
f 1 34 35
f 1 33 34
f 1 32 33
f 1 31 32
f 1 30 31
f 1 29 30
f 1 28 29
f 1 27 28
f 1 26 27
f 1 25 26
f 1 24 25
f 1 23 24
f 1 22 23
f 1 21 22
f 1 20 21
f 1 19 20
f 1 18 19
f 1 17 18
f 1 16 17
f 1 15 16
f 1 14 15
f 1 13 14
f 1 12 13
f 1 11 12
f 1 10 11
f 1 9 10
f 1 8 9
f 1 7 8
f 1 2 7
f 2 6 7
f 2 5 6
f 2 3 5
f 3 4 5
