v 0.355000 0.860629 -6.538000
v 0.354946 0.458830 -6.534356
v 0.355000 0.457930 -6.538000
v 0.354932 0.862009 -6.533625
v 0.354787 0.459728 -6.530720
v 0.354730 0.863348 -6.529377
v 0.354522 0.460623 -6.527093
v 0.354401 0.864649 -6.525251
v 0.354152 0.461515 -6.523479
v 0.353949 0.865913 -6.521241
v 0.353678 0.462403 -6.519880
v 0.353380 0.867142 -6.517344
v 0.353101 0.463287 -6.516299
v 0.352700 0.868338 -6.513552
v 0.352420 0.464166 -6.512739
v 0.351912 0.869501 -6.509863
v 0.351637 0.465039 -6.509202
v 0.351024 0.870634 -6.506270
v 0.350753 0.465906 -6.505692
v 0.350040 0.871738 -6.502768
v 0.349767 0.466765 -6.502210
v 0.348966 0.872815 -6.499352
v 0.348681 0.467617 -6.498759
v 0.347806 0.873866 -6.496018
v 0.347495 0.468460 -6.495343
v 0.346567 0.874894 -6.492759
v 0.346211 0.469295 -6.491964
v 0.345254 0.875899 -6.489572
v 0.344830 0.470119 -6.488625
v 0.343871 0.876883 -6.486450
v 0.343355 0.470933 -6.485328
v 0.342423 0.877848 -6.483391
v 0.341786 0.471735 -6.482077
v 0.340911 0.878793 -6.480393
v 0.340125 0.472526 -6.478874
v 0.339334 0.879719 -6.477457
v 0.338374 0.473304 -6.475721
v 0.337693 0.880625 -6.474581
v 0.336536 0.474069 -6.472623
v 0.335989 0.881513 -6.471766
v 0.334610 0.474820 -6.469581
v 0.334223 0.882382 -6.469011
v 0.332600 0.475556 -6.466599
v 0.332393 0.883231 -6.466315
v 0.330506 0.476277 -6.463679
v 0.330501 0.884063 -6.463679
v 0.328547 0.884875 -6.461102
v 0.328330 0.476982 -6.460824
v 0.326532 0.885669 -6.458584
v 0.326076 0.477670 -6.458036
v 0.324455 0.886445 -6.456124
v 0.323744 0.478341 -6.455316
v 0.322318 0.887202 -6.453722
v 0.321338 0.478995 -6.452667
v 0.320121 0.887941 -6.451378
v 0.318859 0.479632 -6.450090
v 0.317863 0.888662 -6.449091
v 0.316311 0.480249 -6.447587
v 0.315546 0.889365 -6.446861
v 0.313695 0.480849 -6.445160
v 0.313167 0.890050 -6.444688
v 0.311014 0.481429 -6.442811
v 0.310728 0.890717 -6.442574
v 0.308271 0.481989 -6.440541
v 0.308228 0.891365 -6.440519
v 0.305665 0.891994 -6.438523
v 0.305467 0.482529 -6.438353
v 0.303040 0.892605 -6.436586
v 0.302605 0.483049 -6.436248
v 0.300352 0.893197 -6.434710
v 0.299687 0.483548 -6.434227
v 0.297600 0.893769 -6.432894
v 0.296716 0.484025 -6.432293
v 0.294784 0.894323 -6.431139
v 0.293695 0.484481 -6.430446
v 0.291904 0.894856 -6.429445
v 0.290625 0.484915 -6.428686
v 0.288959 0.895371 -6.427814
v 0.287509 0.485328 -6.427016
v 0.285949 0.895866 -6.426245
v 0.284351 0.485718 -6.425435
v 0.282872 0.896341 -6.424739
v 0.281151 0.486086 -6.423945
v 0.279729 0.896795 -6.423296
v 0.277913 0.486431 -6.422547
v 0.276514 0.897229 -6.421922
v 0.274638 0.486753 -6.421242
v 0.273222 0.897639 -6.420622
v 0.271331 0.487052 -6.420030
v 0.269844 0.898023 -6.419402
v 0.267992 0.487328 -6.418913
v 0.266376 0.898380 -6.418270
v 0.264625 0.487580 -6.417892
v 0.262811 0.898708 -6.417230
v 0.261232 0.487808 -6.416967
v 0.259142 0.899005 -6.416289
v 0.257816 0.488013 -6.416137
v 0.255362 0.899268 -6.415454
v 0.254379 0.488194 -6.415405
v 0.251465 0.899496 -6.414730
v 0.250926 0.488351 -6.414769
v 0.247458 0.488484 -6.414230
v 0.247445 0.899687 -6.414124
v 0.243979 0.488593 -6.413788
v 0.243295 0.899839 -6.413641
v 0.240490 0.488678 -6.413444
v 0.239008 0.899951 -6.413289
v 0.236996 0.488739 -6.413198
v 0.234579 0.900019 -6.413073
v 0.233498 0.488775 -6.413050
v 0.230000 0.900042 -6.413000
v 0.230000 0.488788 -6.413000
f 1 3 2
f 1 2 4
f 4 2 5
f 4 5 6
f 6 5 7
f 6 7 8
f 8 7 9
f 8 9 10
f 10 9 11
f 10 11 12
f 12 11 13
f 12 13 14
f 14 13 15
f 14 15 16
f 16 15 17
f 16 17 18
f 18 17 19
f 18 19 20
f 20 19 21
f 20 21 22
f 22 21 23
f 22 23 24
f 24 23 25
f 24 25 26
f 26 25 27
f 26 27 28
f 28 27 29
f 28 29 30
f 30 29 31
f 30 31 32
f 32 31 33
f 32 33 34
f 34 33 35
f 34 35 36
f 36 35 37
f 36 37 38
f 38 37 39
f 38 39 40
f 40 39 41
f 40 41 42
f 42 41 43
f 42 43 44
f 44 43 45
f 44 45 46
f 46 45 47
f 47 45 48
f 47 48 49
f 49 48 50
f 49 50 51
f 51 50 52
f 51 52 53
f 53 52 54
f 53 54 55
f 55 54 56
f 55 56 57
f 57 56 58
f 57 58 59
f 59 58 60
f 59 60 61
f 61 60 62
f 61 62 63
f 63 62 64
f 63 64 65
f 65 64 66
f 66 64 67
f 66 67 68
f 68 67 69
f 68 69 70
f 70 69 71
f 70 71 72
f 72 71 73
f 72 73 74
f 74 73 75
f 74 75 76
f 76 75 77
f 76 77 78
f 78 77 79
f 78 79 80
f 80 79 81
f 80 81 82
f 82 81 83
f 82 83 84
f 84 83 85
f 84 85 86
f 86 85 87
f 86 87 88
f 88 87 89
f 88 89 90
f 90 89 91
f 90 91 92
f 92 91 93
f 92 93 94
f 94 93 95
f 94 95 96
f 96 95 97
f 96 97 98
f 98 97 99
f 98 99 100
f 100 99 101
f 100 101 102
f 100 102 103
f 103 102 104
f 103 104 105
f 105 104 106
f 105 106 107
f 107 106 108
f 107 108 109
f 109 108 110
f 109 110 111
f 111 110 112
