v 1.105000 0.849140 -6.574441
v 1.128114 0.850580 -6.569872
v 1.151108 0.852155 -6.564877
v 1.173989 0.853866 -6.559452
v 1.196759 0.855713 -6.553593
v 1.219425 0.857698 -6.547298
v 1.241991 0.859821 -6.540564
v 1.264461 0.862084 -6.533387
v 1.286841 0.864487 -6.525764
v 1.309130 0.867032 -6.517695
v 1.331314 0.869716 -6.509181
v 1.353379 0.872539 -6.500226
v 1.375309 0.875501 -6.490834
v 1.397089 0.878599 -6.481008
v 1.418702 0.881833 -6.470752
v 1.440134 0.885201 -6.460069
v 1.461368 0.888703 -6.448963
v 1.482393 0.892336 -6.437438
v 1.503197 0.896101 -6.425499
v 1.523772 0.899994 -6.413151
v 1.544109 0.904015 -6.400400
v 1.564199 0.908161 -6.387250
v 1.584032 0.912431 -6.373707
v 1.603599 0.916823 -6.359777
v 1.622891 0.921336 -6.345464
v 1.641900 0.925968 -6.330773
v 1.660618 0.930717 -6.315711
v 1.679040 0.935581 -6.300282
v 1.697158 0.940560 -6.284493
v 1.714966 0.945650 -6.268347
v 1.732456 0.950852 -6.251852
v 1.749622 0.956161 -6.235012
v 1.766458 0.961578 -6.217832
v 1.782956 0.967100 -6.200318
v 1.799109 0.972726 -6.182474
v 1.814912 0.978455 -6.164305
v 1.830358 0.984285 -6.145815
v 1.845440 0.990214 -6.127009
v 1.860152 0.996242 -6.107893
v 1.874487 1.002366 -6.088469
v 1.888438 1.008585 -6.068745
v 1.901996 1.014894 -6.048736
v 1.915150 1.021284 -6.028469
v 1.927888 1.027749 -6.007965
v 1.940199 1.034280 -5.987249
v 1.952073 1.040871 -5.966345
v 1.963497 1.047514 -5.945277
v 1.974461 1.054201 -5.924069
v 1.984956 1.060926 -5.902742
v 1.994983 1.067688 -5.881295
v 2.004550 1.074490 -5.859722
v 2.013664 1.081333 -5.838016
v 2.022331 1.088221 -5.816170
v 2.030558 1.095156 -5.794177
v 2.038352 1.102139 -5.772030
v 2.045720 1.109173 -5.749721
v -2.425000 1.109173 -5.749721
v -2.413895 1.098930 -5.782207
v -2.403187 1.088807 -5.814312
v -2.392796 1.078810 -5.846019
v -2.382639 1.068944 -5.877310
v -2.372636 1.059215 -5.908166
v -2.362706 1.049629 -5.938570
v -2.352775 1.040194 -5.968493
v -2.342778 1.030924 -5.997894
v -2.332650 1.021831 -6.026734
v -2.322323 1.012928 -6.054972
v -2.311734 1.004226 -6.082569
v -2.300826 0.995739 -6.109486
v -2.289579 0.987474 -6.135702
v -2.277983 0.979436 -6.161193
v -2.266029 0.971633 -6.185940
v -2.253707 0.964072 -6.209921
v -2.241007 0.956759 -6.233116
v -2.227933 0.949697 -6.255513
v -2.214502 0.942888 -6.277109
v -2.200729 0.936332 -6.297902
v -2.186633 0.930030 -6.317888
v -2.172230 0.923984 -6.337066
v -2.157541 0.918192 -6.355434
v -2.142593 0.912655 -6.372996
v -2.127421 0.907369 -6.389759
v -2.112056 0.902334 -6.405730
v -2.096530 0.897546 -6.420914
v -2.080876 0.893005 -6.435317
v -2.065117 0.888706 -6.448953
v -2.049265 0.884643 -6.461840
v -2.033333 0.880810 -6.473995
v -2.017334 0.877202 -6.485437
v -2.001282 0.873813 -6.496185
v -1.985181 0.870637 -6.506259
v -1.969011 0.867666 -6.515682
v -1.952741 0.864893 -6.524478
v -1.936343 0.862309 -6.532672
v -1.919787 0.859907 -6.540290
v -1.903044 0.857680 -6.547355
v -1.886068 0.855619 -6.553892
v -1.868800 0.853717 -6.559925
v -1.851178 0.851966 -6.565476
v -1.833143 0.850360 -6.570569
v -1.814633 0.848891 -6.575229
v -1.795599 0.847554 -6.579471
v -1.776034 0.846351 -6.583284
v -1.755942 0.845290 -6.586650
v -1.735327 0.844375 -6.589551
v -1.714194 0.843613 -6.591968
v -1.692546 0.843010 -6.593883
v -1.670386 0.842566 -6.595288
v -1.647711 0.842283 -6.596186
v -1.624520 0.842160 -6.596579
v -1.600813 0.842194 -6.596469
v -1.576589 0.842386 -6.595860
v 0.355000 0.842386 -6.595860
v 0.355000 0.860629 -6.538000
v 0.354932 0.862009 -6.533625
v 0.354730 0.863348 -6.529377
v 0.354401 0.864649 -6.525251
v 0.353949 0.865913 -6.521241
v 0.353380 0.867142 -6.517344
v 0.352700 0.868338 -6.513552
v 0.351912 0.869501 -6.509863
v 0.351024 0.870634 -6.506270
v 0.350040 0.871738 -6.502768
v 0.348966 0.872815 -6.499352
v 0.347806 0.873866 -6.496018
v 0.346567 0.874894 -6.492759
v 0.345254 0.875899 -6.489572
v 0.343871 0.876883 -6.486450
v 0.342423 0.877848 -6.483391
v 0.340911 0.878793 -6.480393
v 0.339334 0.879719 -6.477457
v 0.337693 0.880625 -6.474581
v 0.335989 0.881513 -6.471766
v 0.334223 0.882382 -6.469011
v 0.332393 0.883231 -6.466315
v 0.330501 0.884063 -6.463679
v 0.328547 0.884875 -6.461102
v 0.326532 0.885669 -6.458584
v 0.324455 0.886445 -6.456124
v 0.322318 0.887202 -6.453722
v 0.320121 0.887941 -6.451378
v 0.317863 0.888662 -6.449091
v 0.315546 0.889365 -6.446861
v 0.313167 0.890050 -6.444688
v 0.310728 0.890717 -6.442574
v 0.308228 0.891365 -6.440519
v 0.305665 0.891994 -6.438523
v 0.303040 0.892605 -6.436586
v 0.300352 0.893197 -6.434710
v 0.297600 0.893769 -6.432894
v 0.294784 0.894323 -6.431139
v 0.291904 0.894856 -6.429445
v 0.288959 0.895371 -6.427814
v 0.285949 0.895866 -6.426245
v 0.282872 0.896341 -6.424739
v 0.279729 0.896795 -6.423296
v 0.276514 0.897229 -6.421922
v 0.273222 0.897639 -6.420622
v 0.269844 0.898023 -6.419402
v 0.266376 0.898380 -6.418270
v 0.262811 0.898708 -6.417230
v 0.259142 0.899005 -6.416289
v 0.255362 0.899268 -6.415454
v 0.251465 0.899496 -6.414730
v 0.247445 0.899687 -6.414124
v 0.243295 0.899839 -6.413641
v 0.239008 0.899951 -6.413289
v 0.234579 0.900019 -6.413073
v 0.230000 0.900042 -6.413000
v -0.970000 0.900042 -6.413000
v -0.971836 0.900050 -6.412975
v -0.973619 0.900073 -6.412899
v -0.975351 0.900113 -6.412775
v -0.977034 0.900167 -6.412604
v -0.978668 0.900235 -6.412386
v -0.980255 0.900318 -6.412124
v -0.981797 0.900414 -6.411818
v -0.983294 0.900524 -6.411470
v -0.984749 0.900647 -6.411081
v -0.986162 0.900782 -6.410653
v -0.987535 0.900929 -6.410186
v -0.988869 0.901088 -6.409682
v -0.990166 0.901258 -6.409143
v -0.991426 0.901439 -6.408569
v -0.992652 0.901630 -6.407962
v -0.993845 0.901832 -6.407323
v -0.995005 0.902043 -6.406654
v -0.996135 0.902263 -6.405955
v -0.997236 0.902492 -6.405229
v -0.998308 0.902729 -6.404476
v -0.999354 0.902975 -6.403697
v -1.000375 0.903228 -6.402895
v -1.001372 0.903488 -6.402070
v -1.002347 0.903755 -6.401223
v -1.003300 0.904028 -6.400356
v -1.004234 0.904308 -6.399470
v -1.005149 0.904592 -6.398567
v -1.006047 0.904882 -6.397647
v -1.006928 0.905177 -6.396712
v -1.007791 0.905478 -6.395758
v -1.008634 0.905784 -6.394787
v -1.009457 0.906097 -6.393796
v -1.010259 0.906416 -6.392784
v -1.011037 0.906742 -6.391750
v -1.011791 0.907075 -6.390693
v -1.012520 0.907416 -6.389613
v -1.013223 0.907764 -6.388507
v -1.013898 0.908121 -6.387374
v -1.014544 0.908487 -6.386215
v -1.015161 0.908862 -6.385026
v -1.015746 0.909246 -6.383808
v -1.016298 0.909640 -6.382559
v -1.016818 0.910044 -6.381278
v -1.017302 0.910458 -6.379964
v -1.017751 0.910883 -6.378616
v -1.018162 0.911319 -6.377232
v -1.018535 0.911767 -6.375812
v -1.018869 0.912227 -6.374354
v -1.019162 0.912699 -6.372857
v -1.019413 0.913183 -6.371321
v -1.019621 0.913681 -6.369743
v -1.019785 0.914191 -6.368123
v -1.019904 0.914716 -6.366460
v -1.019976 0.915254 -6.364753
v -1.020000 0.915807 -6.363000
v -1.020000 0.978866 -6.163000
v -1.019976 0.979419 -6.161247
v -1.019904 0.979957 -6.159540
v -1.019785 0.980482 -6.157877
v -1.019621 0.980992 -6.156257
v -1.019413 0.981490 -6.154679
v -1.019162 0.981974 -6.153143
v -1.018869 0.982446 -6.151646
v -1.018535 0.982906 -6.150188
v -1.018162 0.983354 -6.148768
v -1.017751 0.983790 -6.147384
v -1.017302 0.984215 -6.146036
v -1.016818 0.984629 -6.144722
v -1.016298 0.985033 -6.143441
v -1.015746 0.985427 -6.142192
v -1.015161 0.985811 -6.140974
v -1.014544 0.986186 -6.139785
v -1.013898 0.986552 -6.138626
v -1.013223 0.986909 -6.137493
v -1.012520 0.987257 -6.136387
v -1.011791 0.987598 -6.135307
v -1.011037 0.987931 -6.134250
v -1.010259 0.988257 -6.133216
v -1.009457 0.988576 -6.132204
v -1.008634 0.988889 -6.131213
v -1.007791 0.989195 -6.130242
v -1.006928 0.989496 -6.129288
v -1.006047 0.989791 -6.128353
v -1.005149 0.990081 -6.127433
v -1.004234 0.990365 -6.126530
v -1.003300 0.990645 -6.125644
v -1.002347 0.990918 -6.124777
v -1.001372 0.991185 -6.123930
v -1.000375 0.991445 -6.123105
v -0.999354 0.991698 -6.122303
v -0.998308 0.991944 -6.121524
v -0.997236 0.992181 -6.120771
v -0.996135 0.992410 -6.120045
v -0.995005 0.992630 -6.119346
v -0.993845 0.992841 -6.118677
v -0.992652 0.993043 -6.118038
v -0.991426 0.993234 -6.117431
v -0.990166 0.993415 -6.116857
v -0.988869 0.993585 -6.116318
v -0.987535 0.993744 -6.115814
v -0.986162 0.993891 -6.115347
v -0.984749 0.994026 -6.114919
v -0.983294 0.994149 -6.114530
v -0.981797 0.994259 -6.114182
v -0.980255 0.994355 -6.113876
v -0.978668 0.994438 -6.113614
v -0.977034 0.994506 -6.113396
v -0.975351 0.994560 -6.113225
v -0.973619 0.994600 -6.113101
v -0.971836 0.994623 -6.113025
v -0.970000 0.994631 -6.113000
v 0.855000 0.994631 -6.113000
v 0.864158 0.994585 -6.113147
v 0.873017 0.994449 -6.113578
v 0.881590 0.994227 -6.114283
v 0.889890 0.993923 -6.115247
v 0.897930 0.993541 -6.116459
v 0.905724 0.993084 -6.117907
v 0.913283 0.992557 -6.119578
v 0.920622 0.991964 -6.121459
v 0.927753 0.991308 -6.123539
v 0.934689 0.990594 -6.125805
v 0.941443 0.989825 -6.128244
v 0.948028 0.989005 -6.130844
v 0.954458 0.988139 -6.133592
v 0.960744 0.987229 -6.136477
v 0.966897 0.986279 -6.139490
v 0.972918 0.985290 -6.142628
v 0.978808 0.984261 -6.145891
v 0.984569 0.983193 -6.149278
v 0.990200 0.982086 -6.152788
v 0.995703 0.980941 -6.156420
v 1.001079 0.979758 -6.160173
v 1.006330 0.978537 -6.164046
v 1.011455 0.977278 -6.168038
v 1.016457 0.975982 -6.172149
v 1.021335 0.974649 -6.176377
v 1.026091 0.973279 -6.180721
v 1.030726 0.971873 -6.185181
v 1.035241 0.970430 -6.189756
v 1.039637 0.968952 -6.194444
v 1.043911 0.967437 -6.199248
v 1.048064 0.965886 -6.204168
v 1.052094 0.964298 -6.209205
v 1.056002 0.962673 -6.214359
v 1.059786 0.961011 -6.219630
v 1.063445 0.959311 -6.225021
v 1.066979 0.957574 -6.230531
v 1.070387 0.955799 -6.236162
v 1.073668 0.953985 -6.241913
v 1.076821 0.952133 -6.247786
v 1.079846 0.950243 -6.253782
v 1.082742 0.948314 -6.259900
v 1.085507 0.946345 -6.266144
v 1.088134 0.944335 -6.272519
v 1.090613 0.942281 -6.279035
v 1.092932 0.940178 -6.285704
v 1.095081 0.938024 -6.292536
v 1.097048 0.935816 -6.299539
v 1.098825 0.933550 -6.306726
v 1.100399 0.931223 -6.314105
v 1.101760 0.928833 -6.321687
v 1.102898 0.926375 -6.329482
v 1.103802 0.923846 -6.337501
v 1.104460 0.921244 -6.345754
v 1.104863 0.918566 -6.354250
v 1.105000 0.915807 -6.363000
f 2 337 1
f 170 168 169
f 168 166 167
f 166 164 165
f 164 162 163
f 162 160 161
f 160 158 159
f 158 156 157
f 156 154 155
f 154 152 153
f 152 150 151
f 150 148 149
f 148 146 147
f 146 144 145
f 144 142 143
f 142 140 141
f 140 138 139
f 138 136 137
f 136 134 135
f 134 132 133
f 132 130 131
f 130 128 129
f 128 126 127
f 126 124 125
f 124 122 123
f 122 120 121
f 120 118 119
f 118 116 117
f 116 114 115
f 114 112 113
f 112 110 111
f 110 108 109
f 108 106 107
f 106 104 105
f 104 102 103
f 102 100 101
f 100 98 99
f 98 96 97
f 96 94 95
f 94 92 93
f 92 90 91
f 90 88 89
f 88 86 87
f 86 84 85
f 84 82 83
f 82 80 81
f 80 78 79
f 78 76 77
f 76 74 75
f 74 72 73
f 72 70 71
f 70 68 69
f 68 66 67
f 66 64 65
f 64 62 63
f 58 56 57
f 56 54 55
f 54 52 53
f 52 50 51
f 50 48 49
f 48 46 47
f 46 44 45
f 44 42 43
f 42 40 41
f 40 38 39
f 38 36 37
f 36 34 35
f 34 32 33
f 32 30 31
f 30 28 29
f 28 26 27
f 26 24 25
f 24 22 23
f 22 20 21
f 20 18 19
f 18 16 17
f 16 14 15
f 14 12 13
f 12 10 11
f 10 8 9
f 8 6 7
f 6 4 5
f 4 2 3
f 2 336 337
f 170 166 168
f 166 162 164
f 162 158 160
f 158 154 156
f 154 150 152
f 150 146 148
f 146 142 144
f 142 138 140
f 138 134 136
f 134 130 132
f 130 126 128
f 126 122 124
f 122 118 120
f 118 114 116
f 114 110 112
f 110 106 108
f 106 102 104
f 102 98 100
f 98 94 96
f 94 90 92
f 90 86 88
f 86 82 84
f 82 78 80
f 78 74 76
f 74 70 72
f 70 66 68
f 66 62 64
f 59 56 58
f 56 52 54
f 52 48 50
f 48 44 46
f 44 40 42
f 40 36 38
f 36 32 34
f 32 28 30
f 28 24 26
f 24 20 22
f 20 16 18
f 16 12 14
f 12 8 10
f 8 4 6
f 4 336 2
f 170 162 166
f 162 154 158
f 154 146 150
f 146 138 142
f 138 130 134
f 130 122 126
f 122 114 118
f 114 106 110
f 106 98 102
f 98 90 94
f 90 82 86
f 82 74 78
f 74 66 70
f 66 61 62
f 60 56 59
f 56 48 52
f 48 40 44
f 40 32 36
f 32 24 28
f 24 16 20
f 16 8 12
f 8 336 4
f 170 154 162
f 154 138 146
f 138 122 130
f 122 106 114
f 106 90 98
f 90 74 82
f 74 61 66
f 61 56 60
f 56 40 48
f 40 24 32
f 24 8 16
f 8 335 336
f 170 138 154
f 138 106 122
f 106 74 90
f 74 56 61
f 56 24 40
f 24 335 8
f 171 138 170
f 56 335 24
f 171 106 138
f 56 334 335
f 172 106 171
f 56 333 334
f 173 106 172
f 56 332 333
f 174 106 173
f 56 331 332
f 175 106 174
f 56 330 331
f 176 106 175
f 56 329 330
f 177 106 176
f 56 328 329
f 178 106 177
f 56 327 328
f 179 106 178
f 56 326 327
f 180 106 179
f 56 325 326
f 181 106 180
f 56 324 325
f 182 106 181
f 56 323 324
f 183 106 182
f 56 322 323
f 184 106 183
f 56 321 322
f 185 106 184
f 56 320 321
f 186 106 185
f 56 319 320
f 187 106 186
f 56 318 319
f 188 106 187
f 56 317 318
f 189 106 188
f 56 316 317
f 190 106 189
f 56 315 316
f 191 106 190
f 56 314 315
f 192 106 191
f 56 313 314
f 193 106 192
f 56 312 313
f 194 106 193
f 56 311 312
f 195 106 194
f 56 310 311
f 196 106 195
f 56 309 310
f 197 106 196
f 56 308 309
f 198 106 197
f 56 307 308
f 199 106 198
f 56 306 307
f 200 106 199
f 56 305 306
f 201 106 200
f 56 304 305
f 202 106 201
f 56 303 304
f 203 106 202
f 56 302 303
f 204 106 203
f 56 301 302
f 205 106 204
f 56 300 301
f 206 106 205
f 56 299 300
f 207 106 206
f 56 298 299
f 208 106 207
f 56 297 298
f 209 106 208
f 56 296 297
f 210 106 209
f 56 295 296
f 211 106 210
f 56 294 295
f 212 106 211
f 56 293 294
f 213 106 212
f 56 292 293
f 214 106 213
f 56 291 292
f 215 106 214
f 56 290 291
f 216 106 215
f 56 289 290
f 217 106 216
f 56 288 289
f 218 106 217
f 56 287 288
f 219 106 218
f 56 286 287
f 220 106 219
f 56 285 286
f 221 106 220
f 56 284 285
f 222 106 221
f 56 283 284
f 223 106 222
f 56 282 283
f 224 106 223
f 56 281 282
f 225 106 224
f 56 280 281
f 226 106 225
f 56 279 280
f 227 106 226
f 56 278 279
f 228 106 227
f 74 278 56
f 229 106 228
f 74 277 278
f 230 106 229
f 74 276 277
f 231 106 230
f 74 275 276
f 232 106 231
f 74 274 275
f 233 106 232
f 74 273 274
f 234 106 233
f 74 272 273
f 235 106 234
f 74 271 272
f 236 106 235
f 74 270 271
f 237 106 236
f 74 269 270
f 238 106 237
f 74 268 269
f 239 106 238
f 74 267 268
f 240 106 239
f 74 266 267
f 241 106 240
f 74 265 266
f 242 106 241
f 74 264 265
f 243 106 242
f 74 263 264
f 244 106 243
f 106 263 74
f 245 106 244
f 106 262 263
f 246 106 245
f 106 261 262
f 247 106 246
f 106 260 261
f 248 106 247
f 106 259 260
f 249 106 248
f 106 258 259
f 250 106 249
f 106 257 258
f 251 106 250
f 106 256 257
f 252 106 251
f 106 255 256
f 253 106 252
f 106 254 255
f 254 106 253
