v -3.280000 -0.300000 -4.437000
v -3.279461 -0.300000 -4.447623
v -3.277851 -0.300000 -4.458136
v -3.275185 -0.300000 -4.468433
v -3.271491 -0.300000 -4.478407
v -3.266806 -0.300000 -4.487957
v -3.261180 -0.300000 -4.496983
v -3.254670 -0.300000 -4.505394
v -3.247342 -0.300000 -4.513103
v -3.239271 -0.300000 -4.520031
v -3.230541 -0.300000 -4.526108
v -3.221241 -0.300000 -4.531269
v -3.211467 -0.300000 -4.535464
v -3.201319 -0.300000 -4.538648
v -3.190900 -0.300000 -4.540789
v -3.180318 -0.300000 -4.541865
v -3.169682 -0.300000 -4.541865
v -3.159100 -0.300000 -4.540789
v -3.148681 -0.300000 -4.538648
v -3.138533 -0.300000 -4.535464
v -3.128759 -0.300000 -4.531269
v -3.119459 -0.300000 -4.526108
v -3.110729 -0.300000 -4.520031
v -3.102658 -0.300000 -4.513103
v -3.095330 -0.300000 -4.505394
v -3.088820 -0.300000 -4.496983
v -3.083194 -0.300000 -4.487957
v -3.078509 -0.300000 -4.478407
v -3.074815 -0.300000 -4.468433
v -3.072149 -0.300000 -4.458136
v -3.070539 -0.300000 -4.447623
v -3.070000 -0.300000 -4.437000
v -3.280000 -0.350000 -4.437000
v -3.279461 -0.350000 -4.447623
v -3.277851 -0.350000 -4.458136
v -3.275185 -0.350000 -4.468433
v -3.271491 -0.350000 -4.478407
v -3.266806 -0.350000 -4.487957
v -3.261180 -0.350000 -4.496983
v -3.254670 -0.350000 -4.505394
v -3.247342 -0.350000 -4.513103
v -3.239271 -0.350000 -4.520031
v -3.230541 -0.350000 -4.526108
v -3.221241 -0.350000 -4.531269
v -3.211467 -0.350000 -4.535464
v -3.201319 -0.350000 -4.538648
v -3.190900 -0.350000 -4.540789
v -3.180318 -0.350000 -4.541865
v -3.169682 -0.350000 -4.541865
v -3.159100 -0.350000 -4.540789
v -3.148681 -0.350000 -4.538648
v -3.138533 -0.350000 -4.535464
v -3.128759 -0.350000 -4.531269
v -3.119459 -0.350000 -4.526108
v -3.110729 -0.350000 -4.520031
v -3.102658 -0.350000 -4.513103
v -3.095330 -0.350000 -4.505394
v -3.088820 -0.350000 -4.496983
v -3.083194 -0.350000 -4.487957
v -3.078509 -0.350000 -4.478407
v -3.074815 -0.350000 -4.468433
v -3.072149 -0.350000 -4.458136
v -3.070539 -0.350000 -4.447623
v -3.070000 -0.350000 -4.437000
f 1 2 34
f 1 34 33
f 2 3 35
f 2 35 34
f 3 4 36
f 3 36 35
f 4 5 37
f 4 37 36
f 5 6 38
f 5 38 37
f 6 7 39
f 6 39 38
f 7 8 40
f 7 40 39
f 8 9 41
f 8 41 40
f 9 10 42
f 9 42 41
f 10 11 43
f 10 43 42
f 11 12 44
f 11 44 43
f 12 13 45
f 12 45 44
f 13 14 46
f 13 46 45
f 14 15 47
f 14 47 46
f 15 16 48
f 15 48 47
f 16 17 49
f 16 49 48
f 17 18 50
f 17 50 49
f 18 19 51
f 18 51 50
f 19 20 52
f 19 52 51
f 20 21 53
f 20 53 52
f 21 22 54
f 21 54 53
f 22 23 55
f 22 55 54
f 23 24 56
f 23 56 55
f 24 25 57
f 24 57 56
f 25 26 58
f 25 58 57
f 26 27 59
f 26 59 58
f 27 28 60
f 27 60 59
f 28 29 61
f 28 61 60
f 29 30 62
f 29 62 61
f 30 31 63
f 30 63 62
f 31 32 64
f 31 64 63
