v -0.612436 0.147721 -1.084841
v -0.612436 0.147721 -1.061000
v -0.483609 0.105582 -1.061000
v -0.483609 0.105582 -1.120893
v -0.485942 0.106345 -1.120241
v -0.488275 0.107108 -1.119588
v -0.490609 0.107872 -1.118935
v -0.492943 0.108635 -1.118283
v -0.495278 0.109399 -1.117630
v -0.497613 0.110162 -1.116977
v -0.499948 0.110926 -1.116324
v -0.502283 0.111690 -1.115670
v -0.504619 0.112454 -1.115017
v -0.506955 0.113218 -1.114363
v -0.509292 0.113983 -1.113710
v -0.511629 0.114747 -1.113056
v -0.513966 0.115512 -1.112402
v -0.516303 0.116276 -1.111748
v -0.518641 0.117041 -1.111094
v -0.520980 0.117806 -1.110440
v -0.523318 0.118571 -1.109786
v -0.525657 0.119336 -1.109131
v -0.527997 0.120101 -1.108477
v -0.530336 0.120866 -1.107822
v -0.532676 0.121632 -1.107167
v -0.535017 0.122397 -1.106512
v -0.537357 0.123163 -1.105857
v -0.539699 0.123929 -1.105202
v -0.542040 0.124695 -1.104547
v -0.544382 0.125461 -1.103892
v -0.546724 0.126227 -1.103236
v -0.549066 0.126993 -1.102581
v -0.551409 0.127759 -1.101925
v -0.553752 0.128526 -1.101269
v -0.556095 0.129292 -1.100613
v -0.558439 0.130059 -1.099957
v -0.560783 0.130826 -1.099301
v -0.563128 0.131593 -1.098645
v -0.565473 0.132359 -1.097989
v -0.567818 0.133127 -1.097332
v -0.570163 0.133894 -1.096676
v -0.572509 0.134661 -1.096019
v -0.574855 0.135428 -1.095363
v -0.577201 0.136196 -1.094706
v -0.579548 0.136964 -1.094049
v -0.581895 0.137731 -1.093392
v -0.584242 0.138499 -1.092735
v -0.586590 0.139267 -1.092078
v -0.588938 0.140035 -1.091420
v -0.591286 0.140803 -1.090763
v -0.593635 0.141571 -1.090105
v -0.595984 0.142340 -1.089448
v -0.598333 0.143108 -1.088790
v -0.600683 0.143877 -1.088132
v -0.603033 0.144646 -1.087474
v -0.605383 0.145414 -1.086816
v -0.607734 0.146183 -1.086158
v -0.610085 0.146952 -1.085500
f 1 3 2
f 1 4 3
f 1 5 4
f 1 6 5
f 1 7 6
f 1 8 7
f 1 9 8
f 1 10 9
f 1 11 10
f 1 12 11
f 1 13 12
f 1 14 13
f 1 15 14
f 1 16 15
f 1 17 16
f 1 18 17
f 1 19 18
f 1 20 19
f 1 21 20
f 1 22 21
f 1 23 22
f 1 24 23
f 1 25 24
f 1 26 25
f 1 27 26
f 1 28 27
f 1 29 28
f 1 30 29
f 1 31 30
f 1 32 31
f 1 33 32
f 1 34 33
f 1 35 34
f 1 36 35
f 1 37 36
f 1 38 37
f 1 39 38
f 1 40 39
f 1 41 40
f 1 42 41
f 1 43 42
f 1 44 43
f 1 45 44
f 1 46 45
f 1 47 46
f 1 48 47
f 1 49 48
f 1 50 49
f 1 51 50
f 1 52 51
f 1 53 52
f 1 54 53
f 1 55 54
f 1 56 55
f 1 57 56
f 1 58 57
