v 0.556522 0.010000 0.373073
v 0.556522 0.220000 0.373072
v 0.567417 0.220000 0.368981
v 0.619117 0.220000 0.382835
v 0.619117 0.000000 0.382835
v 0.560467 0.000000 0.367119
v 0.560467 0.010000 0.367119
v 0.567417 0.016837 0.368981
v 0.567185 0.016611 0.368922
v 0.566954 0.016388 0.368869
v 0.566722 0.016168 0.368822
v 0.566490 0.015951 0.368780
v 0.566258 0.015736 0.368743
v 0.566026 0.015525 0.368712
v 0.565794 0.015317 0.368687
v 0.565562 0.015112 0.368667
v 0.565331 0.014911 0.368653
v 0.565100 0.014712 0.368644
v 0.564869 0.014517 0.368641
v 0.564639 0.014325 0.368642
v 0.564409 0.014137 0.368650
v 0.564180 0.013952 0.368662
v 0.563952 0.013770 0.368679
v 0.563724 0.013592 0.368702
v 0.563498 0.013418 0.368730
v 0.563272 0.013247 0.368763
v 0.563047 0.013080 0.368800
v 0.562824 0.012916 0.368843
v 0.562602 0.012757 0.368892
v 0.562381 0.012601 0.368945
v 0.562162 0.012450 0.369003
v 0.561944 0.012302 0.369065
v 0.561728 0.012159 0.369133
v 0.561513 0.012020 0.369206
v 0.561301 0.011885 0.369284
v 0.561090 0.011754 0.369366
v 0.560881 0.011627 0.369453
v 0.560675 0.011505 0.369545
v 0.560470 0.011388 0.369641
v 0.560268 0.011275 0.369742
v 0.560069 0.011166 0.369847
v 0.559872 0.011063 0.369957
v 0.559678 0.010963 0.370071
v 0.559487 0.010869 0.370188
v 0.559299 0.010779 0.370310
v 0.559114 0.010694 0.370436
v 0.558932 0.010614 0.370565
v 0.558753 0.010539 0.370698
v 0.558578 0.010468 0.370835
v 0.558407 0.010403 0.370975
v 0.558239 0.010343 0.371119
v 0.558075 0.010288 0.371266
v 0.557914 0.010237 0.371416
v 0.557758 0.010192 0.371569
v 0.557605 0.010151 0.371725
v 0.557456 0.010116 0.371884
v 0.557311 0.010085 0.372046
v 0.557169 0.010059 0.372211
v 0.557032 0.010038 0.372378
v 0.556899 0.010021 0.372548
v 0.556769 0.010009 0.372721
v 0.556644 0.010002 0.372895
f 62 1 2
f 62 2 3
f 62 3 4
f 5 6 7
f 5 7 8
f 4 5 8
f 62 4 8
f 62 8 9
f 62 9 10
f 62 10 11
f 62 11 12
f 62 12 13
f 62 13 14
f 62 14 15
f 62 15 16
f 62 16 17
f 62 17 18
f 62 18 19
f 62 19 20
f 62 20 21
f 62 21 22
f 62 22 23
f 62 23 24
f 62 24 25
f 62 25 26
f 62 26 27
f 62 27 28
f 62 28 29
f 62 29 30
f 62 30 31
f 62 31 32
f 62 32 33
f 62 33 34
f 62 34 35
f 62 35 36
f 62 36 37
f 62 37 38
f 62 38 39
f 62 39 40
f 62 40 41
f 62 41 42
f 62 42 43
f 62 43 44
f 62 44 45
f 62 45 46
f 62 46 47
f 62 47 48
f 62 48 49
f 62 49 50
f 62 50 51
f 62 51 52
f 62 52 53
f 62 53 54
f 62 54 55
f 62 55 56
f 62 56 57
f 62 57 58
f 62 58 59
f 62 59 60
f 60 61 62
