v 0.767500 0.429200 -6.413000
v 0.767276 0.430689 -6.404553
v 0.767500 0.325000 -6.413000
v 0.766666 0.325000 -6.396560
v 0.766591 0.432206 -6.395952
v 0.765430 0.433742 -6.387239
v 0.764174 0.325000 -6.380289
v 0.763772 0.435291 -6.378456
v 0.761602 0.436845 -6.369643
v 0.760048 0.325000 -6.364353
v 0.758902 0.438397 -6.360843
v 0.755654 0.439939 -6.352096
v 0.754331 0.325000 -6.348917
v 0.751849 0.441464 -6.343446
v 0.747498 0.442964 -6.334942
v 0.747081 0.325000 -6.334138
v 0.742620 0.444428 -6.326635
v 0.738374 0.325000 -6.320169
v 0.737230 0.445850 -6.318575
v 0.731345 0.447218 -6.310813
v 0.728298 0.325000 -6.307152
v 0.724982 0.448526 -6.303398
v 0.718156 0.449763 -6.296381
v 0.716957 0.325000 -6.295221
v 0.710899 0.450923 -6.289802
v 0.704467 0.325000 -6.284499
v 0.703267 0.452002 -6.283683
v 0.695320 0.452997 -6.278042
v 0.690957 0.325000 -6.275095
v 0.687118 0.453903 -6.272900
v 0.678721 0.454719 -6.268274
v 0.676564 0.325000 -6.267107
v 0.670190 0.455440 -6.264185
v 0.661582 0.456063 -6.260650
v 0.661437 0.325000 -6.260615
v 0.652937 0.456588 -6.257674
v 0.645731 0.325000 -6.255687
v 0.644263 0.457017 -6.255240
v 0.635563 0.457354 -6.253330
v 0.629607 0.325000 -6.252374
v 0.626844 0.457602 -6.251925
v 0.618112 0.457764 -6.251006
v 0.613230 0.325000 -6.250709
v 0.609372 0.457843 -6.250555
v 0.600628 0.457843 -6.250555
v 0.596770 0.325000 -6.250709
v 0.591888 0.457764 -6.251006
v 0.583156 0.457602 -6.251925
v 0.580393 0.325000 -6.252374
v 0.574437 0.457354 -6.253330
v 0.565737 0.457017 -6.255240
v 0.564269 0.325000 -6.255687
v 0.557063 0.456588 -6.257674
v 0.548563 0.325000 -6.260615
v 0.548418 0.456063 -6.260650
v 0.539810 0.455440 -6.264185
v 0.533436 0.325000 -6.267107
v 0.531279 0.454719 -6.268274
v 0.522882 0.453903 -6.272900
v 0.519043 0.325000 -6.275095
v 0.514680 0.452997 -6.278042
v 0.506733 0.452002 -6.283683
v 0.505533 0.325000 -6.284499
v 0.499101 0.450923 -6.289802
v 0.493043 0.325000 -6.295221
v 0.491844 0.449763 -6.296381
v 0.485018 0.448526 -6.303398
v 0.481702 0.325000 -6.307152
v 0.478655 0.447218 -6.310813
v 0.472770 0.445850 -6.318575
v 0.471626 0.325000 -6.320169
v 0.467380 0.444428 -6.326635
v 0.462919 0.325000 -6.334138
v 0.462502 0.442964 -6.334942
v 0.458151 0.441464 -6.343446
v 0.455669 0.325000 -6.348917
v 0.454346 0.439939 -6.352096
v 0.451098 0.438397 -6.360843
v 0.449952 0.325000 -6.364353
v 0.448398 0.436845 -6.369643
v 0.446228 0.435291 -6.378456
v 0.445826 0.325000 -6.380289
v 0.444570 0.433742 -6.387239
v 0.443409 0.432206 -6.395952
v 0.443334 0.325000 -6.396560
v 0.442724 0.430689 -6.404553
v 0.442500 0.429200 -6.413000
v 0.442500 0.325000 -6.413000
f 1 3 2
f 2 3 4
f 2 4 5
f 5 4 6
f 6 4 7
f 6 7 8
f 8 7 9
f 9 7 10
f 9 10 11
f 11 10 12
f 12 10 13
f 12 13 14
f 14 13 15
f 15 13 16
f 15 16 17
f 17 16 18
f 17 18 19
f 19 18 20
f 20 18 21
f 20 21 22
f 22 21 23
f 23 21 24
f 23 24 25
f 25 24 26
f 25 26 27
f 27 26 28
f 28 26 29
f 28 29 30
f 30 29 31
f 31 29 32
f 31 32 33
f 33 32 34
f 34 32 35
f 34 35 36
f 36 35 37
f 36 37 38
f 38 37 39
f 39 37 40
f 39 40 41
f 41 40 42
f 42 40 43
f 42 43 44
f 44 43 45
f 45 43 46
f 45 46 47
f 47 46 48
f 48 46 49
f 48 49 50
f 50 49 51
f 51 49 52
f 51 52 53
f 53 52 54
f 53 54 55
f 55 54 56
f 56 54 57
f 56 57 58
f 58 57 59
f 59 57 60
f 59 60 61
f 61 60 62
f 62 60 63
f 62 63 64
f 64 63 65
f 64 65 66
f 66 65 67
f 67 65 68
f 67 68 69
f 69 68 70
f 70 68 71
f 70 71 72
f 72 71 73
f 72 73 74
f 74 73 75
f 75 73 76
f 75 76 77
f 77 76 78
f 78 76 79
f 78 79 80
f 80 79 81
f 81 79 82
f 81 82 83
f 83 82 84
f 84 82 85
f 84 85 86
f 86 85 87
f 87 85 88
