v 0.628784 -0.039129 -1.084841
v 0.628784 -0.039129 -1.061000
v 0.494596 -0.020000 -1.061000
v 0.494596 -0.020000 -1.120893
v 0.497026 -0.020346 -1.120241
v 0.499457 -0.020693 -1.119588
v 0.501887 -0.021039 -1.118935
v 0.504319 -0.021386 -1.118283
v 0.506750 -0.021733 -1.117630
v 0.509182 -0.022079 -1.116977
v 0.511615 -0.022426 -1.116324
v 0.514047 -0.022773 -1.115670
v 0.516480 -0.023120 -1.115017
v 0.518914 -0.023467 -1.114363
v 0.521347 -0.023813 -1.113710
v 0.523782 -0.024160 -1.113056
v 0.526216 -0.024508 -1.112402
v 0.528651 -0.024855 -1.111748
v 0.531086 -0.025202 -1.111094
v 0.533522 -0.025549 -1.110440
v 0.535958 -0.025896 -1.109786
v 0.538394 -0.026243 -1.109131
v 0.540831 -0.026591 -1.108477
v 0.543268 -0.026938 -1.107822
v 0.545705 -0.027286 -1.107167
v 0.548143 -0.027633 -1.106512
v 0.550581 -0.027981 -1.105857
v 0.553019 -0.028328 -1.105202
v 0.555458 -0.028676 -1.104547
v 0.557897 -0.029024 -1.103892
v 0.560337 -0.029371 -1.103236
v 0.562777 -0.029719 -1.102581
v 0.565217 -0.030067 -1.101925
v 0.567658 -0.030415 -1.101269
v 0.570099 -0.030763 -1.100613
v 0.572540 -0.031111 -1.099957
v 0.574981 -0.031459 -1.099301
v 0.577423 -0.031807 -1.098645
v 0.579866 -0.032155 -1.097989
v 0.582308 -0.032504 -1.097332
v 0.584751 -0.032852 -1.096676
v 0.587195 -0.033200 -1.096019
v 0.589638 -0.033548 -1.095363
v 0.592082 -0.033897 -1.094706
v 0.594527 -0.034245 -1.094049
v 0.596971 -0.034594 -1.093392
v 0.599416 -0.034942 -1.092735
v 0.601862 -0.035291 -1.092078
v 0.604308 -0.035640 -1.091420
v 0.606754 -0.035988 -1.090763
v 0.609200 -0.036337 -1.090105
v 0.611647 -0.036686 -1.089448
v 0.614094 -0.037035 -1.088790
v 0.616541 -0.037384 -1.088132
v 0.618989 -0.037732 -1.087474
v 0.621437 -0.038081 -1.086816
v 0.623886 -0.038430 -1.086158
v 0.626335 -0.038780 -1.085500
f 1 3 2
f 1 4 3
f 1 5 4
f 1 6 5
f 1 7 6
f 1 8 7
f 1 9 8
f 1 10 9
f 1 11 10
f 1 12 11
f 1 13 12
f 1 14 13
f 1 15 14
f 1 16 15
f 1 17 16
f 1 18 17
f 1 19 18
f 1 20 19
f 1 21 20
f 1 22 21
f 1 23 22
f 1 24 23
f 1 25 24
f 1 26 25
f 1 27 26
f 1 28 27
f 1 29 28
f 1 30 29
f 1 31 30
f 1 32 31
f 1 33 32
f 1 34 33
f 1 35 34
f 1 36 35
f 1 37 36
f 1 38 37
f 1 39 38
f 1 40 39
f 1 41 40
f 1 42 41
f 1 43 42
f 1 44 43
f 1 45 44
f 1 46 45
f 1 47 46
f 1 48 47
f 1 49 48
f 1 50 49
f 1 51 50
f 1 52 51
f 1 53 52
f 1 54 53
f 1 55 54
f 1 56 55
f 1 57 56
f 1 58 57
