v -2.904969 0.300000 -6.390087
v -2.905000 0.300000 -6.388000
v -2.904953 0.300000 -6.391130
v -2.904953 0.300000 -6.391130
v -2.905000 0.350000 -6.388000
v -2.904813 0.300000 -6.394257
v -2.904580 0.300000 -6.397379
v -2.904461 0.350000 -6.398623
v -2.904254 0.300000 -6.400492
v -2.903836 0.300000 -6.403594
v -2.903325 0.300000 -6.406683
v -2.902851 0.350000 -6.409136
v -2.902722 0.300000 -6.409754
v -2.902028 0.300000 -6.412807
v -2.901243 0.300000 -6.415837
v -2.900368 0.300000 -6.418843
v -2.900185 0.350000 -6.419433
v -2.899404 0.300000 -6.421821
v -2.898352 0.300000 -6.424769
v -2.897212 0.300000 -6.427685
v -2.896491 0.350000 -6.429407
v -2.895986 0.300000 -6.430565
v -2.894674 0.300000 -6.433407
v -2.893278 0.300000 -6.436209
v -2.891806 0.350000 -6.438957
v -2.891800 0.300000 -6.438968
v -2.890240 0.300000 -6.441682
v -2.888599 0.300000 -6.444348
v -2.886880 0.300000 -6.446964
v -2.886180 0.350000 -6.447983
v -2.885084 0.300000 -6.449528
v -2.883212 0.300000 -6.452037
v -2.881266 0.300000 -6.454489
v -2.879670 0.350000 -6.456394
v -2.879248 0.300000 -6.456882
v -2.877160 0.300000 -6.459214
v -2.875002 0.300000 -6.461482
v -2.872779 0.300000 -6.463685
v -2.872342 0.350000 -6.464103
v -2.870490 0.300000 -6.465821
v -2.868139 0.300000 -6.467888
v -2.865727 0.300000 -6.469884
v -2.864271 0.350000 -6.471031
v -2.863257 0.300000 -6.471806
v -2.861409 0.295085 -6.473170
v -2.859552 0.290283 -6.474479
v -2.857686 0.285594 -6.475735
v -2.855811 0.281019 -6.476939
v -2.855541 0.350000 -6.477108
v -2.853928 0.276558 -6.478093
v -2.852037 0.272212 -6.479199
v -2.850136 0.267980 -6.480257
v -2.848224 0.263861 -6.481271
v -2.846303 0.259858 -6.482240
v -2.846241 0.350000 -6.482269
v -2.844370 0.255974 -6.483165
v -2.842425 0.252210 -6.484048
v -2.840468 0.248571 -6.484888
v -2.838499 0.245057 -6.485687
v -2.836514 0.241670 -6.486446
v -2.836467 0.350000 -6.486464
v -2.834515 0.238411 -6.487166
v -2.832492 0.235278 -6.487848
v -2.830430 0.232263 -6.488496
v -2.828312 0.229358 -6.489112
v -2.826319 0.350000 -6.489648
v -2.826121 0.226555 -6.489698
v -2.823855 0.223872 -6.490252
v -2.821518 0.221337 -6.490770
v -2.819116 0.218982 -6.491245
v -2.816650 0.216835 -6.491674
v -2.815900 0.350000 -6.491789
v -2.814102 0.214923 -6.492052
v -2.811448 0.213271 -6.492376
v -2.808668 0.211907 -6.492641
v -2.805755 0.210871 -6.492842
v -2.805318 0.350000 -6.492865
v -2.802729 0.210228 -6.492966
v -2.799610 0.210046 -6.493000
v -2.796423 0.210386 -6.492935
v -2.794682 0.350000 -6.492865
v -2.793215 0.211235 -6.492771
v -2.790050 0.212531 -6.492520
v -2.786993 0.214213 -6.492191
v -2.784100 0.350000 -6.491789
v -2.784090 0.216226 -6.491795
v -2.781324 0.218539 -6.491334
v -2.778658 0.221129 -6.490812
v -2.776056 0.223972 -6.490232
v -2.773681 0.350000 -6.489648
v -2.773500 0.227041 -6.489597
v -2.770999 0.230303 -6.488912
v -2.768562 0.233727 -6.488182
v -2.766200 0.237282 -6.487413
v -2.763908 0.240956 -6.486605
v -2.763533 0.350000 -6.486464
v -2.761672 0.244749 -6.485756
v -2.759481 0.248663 -6.484867
v -2.757321 0.252697 -6.483934
v -2.755188 0.256854 -6.482957
v -2.753759 0.350000 -6.482269
v -2.753078 0.261135 -6.481932
v -2.750988 0.265542 -6.480859
v -2.748914 0.270077 -6.479735
v -2.746855 0.274741 -6.478558
v -2.744810 0.279533 -6.477325
v -2.744459 0.350000 -6.477108
v -2.742776 0.284456 -6.476036
v -2.740753 0.289509 -6.474688
v -2.738741 0.294691 -6.473278
v -2.736743 0.300000 -6.471806
v -2.735729 0.350000 -6.471031
v -2.734273 0.300000 -6.469884
v -2.731861 0.300000 -6.467888
v -2.729510 0.300000 -6.465821
v -2.727658 0.350000 -6.464103
v -2.727221 0.300000 -6.463685
v -2.724998 0.300000 -6.461482
v -2.722840 0.300000 -6.459214
v -2.720752 0.300000 -6.456882
v -2.720330 0.350000 -6.456394
v -2.718734 0.300000 -6.454489
v -2.716788 0.300000 -6.452037
v -2.714916 0.300000 -6.449528
v -2.713820 0.350000 -6.447983
v -2.713120 0.300000 -6.446964
v -2.711401 0.300000 -6.444348
v -2.709760 0.300000 -6.441682
v -2.708200 0.300000 -6.438968
v -2.708194 0.350000 -6.438957
v -2.706722 0.300000 -6.436209
v -2.705326 0.300000 -6.433407
v -2.704014 0.300000 -6.430565
v -2.703509 0.350000 -6.429407
v -2.702788 0.300000 -6.427685
v -2.701648 0.300000 -6.424769
v -2.700596 0.300000 -6.421821
v -2.699815 0.350000 -6.419433
v -2.699632 0.300000 -6.418843
v -2.698757 0.300000 -6.415837
v -2.697972 0.300000 -6.412807
v -2.697278 0.300000 -6.409754
v -2.697149 0.350000 -6.409136
v -2.696675 0.300000 -6.406683
v -2.696164 0.300000 -6.403594
v -2.695746 0.300000 -6.400492
v -2.695539 0.350000 -6.398623
v -2.695420 0.300000 -6.397379
v -2.695187 0.300000 -6.394257
v -2.695047 0.300000 -6.391130
v -2.695000 0.350000 -6.388000
v -2.695000 0.300000 -6.388000
f 1 2 3
f 1 3 4
f 1 4 2
f 5 3 2
f 5 6 3
f 5 7 6
f 5 8 7
f 8 9 7
f 8 10 9
f 8 11 10
f 8 12 11
f 12 13 11
f 12 14 13
f 12 15 14
f 12 16 15
f 12 17 16
f 17 18 16
f 17 19 18
f 17 20 19
f 17 21 20
f 21 22 20
f 21 23 22
f 21 24 23
f 21 25 24
f 25 26 24
f 25 27 26
f 25 28 27
f 25 29 28
f 25 30 29
f 30 31 29
f 30 32 31
f 30 33 32
f 30 34 33
f 34 35 33
f 34 36 35
f 34 37 36
f 34 38 37
f 34 39 38
f 39 40 38
f 39 41 40
f 39 42 41
f 39 43 42
f 43 44 42
f 43 45 44
f 43 46 45
f 43 47 46
f 43 48 47
f 43 49 48
f 49 50 48
f 49 51 50
f 49 52 51
f 49 53 52
f 49 54 53
f 49 55 54
f 55 56 54
f 55 57 56
f 55 58 57
f 55 59 58
f 55 60 59
f 55 61 60
f 61 62 60
f 61 63 62
f 61 64 63
f 61 65 64
f 61 66 65
f 66 67 65
f 66 68 67
f 66 69 68
f 66 70 69
f 66 71 70
f 66 72 71
f 72 73 71
f 72 74 73
f 72 75 74
f 72 76 75
f 72 77 76
f 77 78 76
f 77 79 78
f 77 80 79
f 77 81 80
f 81 82 80
f 81 83 82
f 81 84 83
f 81 85 84
f 85 86 84
f 85 87 86
f 85 88 87
f 85 89 88
f 85 90 89
f 90 91 89
f 90 92 91
f 90 93 92
f 90 94 93
f 90 95 94
f 90 96 95
f 96 97 95
f 96 98 97
f 96 99 98
f 96 100 99
f 96 101 100
f 101 102 100
f 101 103 102
f 101 104 103
f 101 105 104
f 101 106 105
f 101 107 106
f 107 108 106
f 107 109 108
f 107 110 109
f 107 111 110
f 107 112 111
f 112 113 111
f 112 114 113
f 112 115 114
f 112 116 115
f 116 117 115
f 116 118 117
f 116 119 118
f 116 120 119
f 116 121 120
f 121 122 120
f 121 123 122
f 121 124 123
f 121 125 124
f 125 126 124
f 125 127 126
f 125 128 127
f 125 129 128
f 125 130 129
f 130 131 129
f 130 132 131
f 130 133 132
f 130 134 133
f 134 135 133
f 134 136 135
f 134 137 136
f 134 138 137
f 138 139 137
f 138 140 139
f 138 141 140
f 138 142 141
f 138 143 142
f 143 144 142
f 143 145 144
f 143 146 145
f 143 147 146
f 147 148 146
f 147 149 148
f 147 150 149
f 147 151 150
f 151 152 150
