v -0.315000 0.000000 -3.380000
v -0.313384 -0.031868 -3.380000
v -0.308552 -0.063409 -3.380000
v -0.300554 -0.094299 -3.380000
v -0.289472 -0.124222 -3.380000
v -0.275419 -0.152870 -3.380000
v -0.258540 -0.179949 -3.380000
v -0.239009 -0.205182 -3.380000
v -0.217025 -0.228310 -3.380000
v -0.192813 -0.249094 -3.380000
v -0.166624 -0.267323 -3.380000
v -0.138724 -0.282808 -3.380000
v -0.109401 -0.295392 -3.380000
v -0.078956 -0.304944 -3.380000
v -0.047700 -0.311368 -3.380000
v -0.015954 -0.314596 -3.380000
v 0.015954 -0.314596 -3.380000
v 0.047700 -0.311368 -3.380000
v 0.078956 -0.304944 -3.380000
v 0.109401 -0.295392 -3.380000
v 0.138724 -0.282808 -3.380000
v 0.166624 -0.267323 -3.380000
v 0.192813 -0.249094 -3.380000
v 0.217025 -0.228310 -3.380000
v 0.239009 -0.205182 -3.380000
v 0.258540 -0.179949 -3.380000
v 0.275419 -0.152870 -3.380000
v 0.289472 -0.124222 -3.380000
v 0.300554 -0.094299 -3.380000
v 0.308552 -0.063409 -3.380000
v 0.313384 -0.031868 -3.380000
v 0.315000 0.000000 -3.380000
v -0.470607 0.000000 -3.224393
v -0.468192 -0.047610 -3.224393
v -0.460973 -0.094732 -3.224393
v -0.449024 -0.140882 -3.224393
v -0.432468 -0.185586 -3.224393
v -0.411473 -0.228386 -3.224393
v -0.386257 -0.268843 -3.224393
v -0.357077 -0.306540 -3.224393
v -0.324232 -0.341092 -3.224393
v -0.288061 -0.372144 -3.224393
v -0.248934 -0.399378 -3.224393
v -0.207252 -0.422513 -3.224393
v -0.163444 -0.441312 -3.224393
v -0.117959 -0.455583 -3.224393
v -0.071263 -0.465180 -3.224393
v -0.023836 -0.470003 -3.224393
v 0.023836 -0.470003 -3.224393
v 0.071263 -0.465180 -3.224393
v 0.117959 -0.455583 -3.224393
v 0.163444 -0.441312 -3.224393
v 0.207252 -0.422513 -3.224393
v 0.248934 -0.399378 -3.224393
v 0.288061 -0.372144 -3.224393
v 0.324232 -0.341092 -3.224393
v 0.357077 -0.306540 -3.224393
v 0.386257 -0.268843 -3.224393
v 0.411473 -0.228386 -3.224393
v 0.432468 -0.185586 -3.224393
v 0.449024 -0.140882 -3.224393
v 0.460973 -0.094732 -3.224393
v 0.468192 -0.047610 -3.224393
v 0.470607 0.000000 -3.224393
f 1 2 34
f 1 34 33
f 2 3 35
f 2 35 34
f 3 4 36
f 3 36 35
f 4 5 37
f 4 37 36
f 5 6 38
f 5 38 37
f 6 7 39
f 6 39 38
f 7 8 40
f 7 40 39
f 8 9 41
f 8 41 40
f 9 10 42
f 9 42 41
f 10 11 43
f 10 43 42
f 11 12 44
f 11 44 43
f 12 13 45
f 12 45 44
f 13 14 46
f 13 46 45
f 14 15 47
f 14 47 46
f 15 16 48
f 15 48 47
f 16 17 49
f 16 49 48
f 17 18 50
f 17 50 49
f 18 19 51
f 18 51 50
f 19 20 52
f 19 52 51
f 20 21 53
f 20 53 52
f 21 22 54
f 21 54 53
f 22 23 55
f 22 55 54
f 23 24 56
f 23 56 55
f 24 25 57
f 24 57 56
f 25 26 58
f 25 58 57
f 26 27 59
f 26 59 58
f 27 28 60
f 27 60 59
f 28 29 61
f 28 61 60
f 29 30 62
f 29 62 61
f 30 31 63
f 30 63 62
f 31 32 64
f 31 64 63
