v 0.461808 0.016611 -0.494506
v 0.461275 0.015112 -0.492952
v 0.460990 0.013592 -0.491136
v 0.461039 0.012302 -0.489319
v 0.461483 0.011166 -0.487337
v 0.462305 0.010403 -0.485504
v 0.463593 0.010021 -0.483746
v 0.461808 0.115000 -0.494506
v 0.461276 0.115000 -0.492952
v 0.460990 0.115000 -0.491136
v 0.461039 0.115000 -0.489319
v 0.461482 0.115000 -0.487337
v 0.462305 0.115000 -0.485504
v 0.463593 0.115000 -0.483746
v 0.461808 0.220000 -0.494506
v 0.461276 0.220000 -0.492952
v 0.460990 0.220000 -0.491136
v 0.461039 0.220000 -0.489319
v 0.461482 0.220000 -0.487337
v 0.462305 0.220000 -0.485504
v 0.463593 0.220000 -0.483746
f 1 9 2
f 1 8 9
f 2 10 3
f 2 9 10
f 3 11 4
f 3 10 11
f 4 12 5
f 4 11 12
f 5 13 6
f 5 12 13
f 6 14 7
f 6 13 14
f 8 16 9
f 8 15 16
f 9 17 10
f 9 16 17
f 10 18 11
f 10 17 18
f 11 19 12
f 11 18 19
f 12 20 13
f 12 19 20
f 13 21 14
f 13 20 21
