v 0.624820 0.080619 -1.051000
v 0.624577 0.082481 -1.051000
v 0.624329 0.084343 -1.051000
v 0.624074 0.086204 -1.051000
v 0.623815 0.088065 -1.051000
v 0.623549 0.089924 -1.051000
v 0.623278 0.091783 -1.051000
v 0.623002 0.093641 -1.051000
v 0.622720 0.095498 -1.051000
v 0.622432 0.097354 -1.051000
v 0.622139 0.099210 -1.051000
v 0.621841 0.101064 -1.051000
v 0.621537 0.102918 -1.051000
v 0.621227 0.104771 -1.051000
v 0.620912 0.106622 -1.051000
v 0.620591 0.108473 -1.051000
v 0.620265 0.110323 -1.051000
v 0.619933 0.112172 -1.051000
v 0.619596 0.114020 -1.051000
v 0.619253 0.115867 -1.051000
v 0.618905 0.117713 -1.051000
v 0.618552 0.119558 -1.051000
v 0.618192 0.121401 -1.051000
v 0.617828 0.123244 -1.051000
v 0.617457 0.125086 -1.051000
v 0.617082 0.126926 -1.051000
v 0.616700 0.128765 -1.051000
v 0.616314 0.130604 -1.051000
v 0.615922 0.132441 -1.051000
v 0.615524 0.134276 -1.051000
v 0.615121 0.136111 -1.051000
v 0.614712 0.137944 -1.051000
v 0.485655 0.095730 -1.051000
v 0.485779 0.095100 -1.051000
v 0.485902 0.094471 -1.051000
v 0.486024 0.093841 -1.051000
v 0.486145 0.093211 -1.051000
v 0.486265 0.092581 -1.051000
v 0.486385 0.091951 -1.051000
v 0.486503 0.091320 -1.051000
v 0.486621 0.090690 -1.051000
v 0.486739 0.090059 -1.051000
v 0.486855 0.089428 -1.051000
v 0.486970 0.088797 -1.051000
v 0.487085 0.088166 -1.051000
v 0.487199 0.087535 -1.051000
v 0.487312 0.086903 -1.051000
v 0.487424 0.086272 -1.051000
v 0.487535 0.085640 -1.051000
v 0.487646 0.085008 -1.051000
v 0.487756 0.084376 -1.051000
v 0.487865 0.083744 -1.051000
v 0.487973 0.083112 -1.051000
v 0.488080 0.082479 -1.051000
v 0.488187 0.081847 -1.051000
v 0.488292 0.081214 -1.051000
v 0.488397 0.080581 -1.051000
v 0.488501 0.079948 -1.051000
v 0.488604 0.079315 -1.051000
v 0.488707 0.078682 -1.051000
v 0.488808 0.078048 -1.051000
v 0.488909 0.077415 -1.051000
v 0.489009 0.076781 -1.051000
v 0.489108 0.076147 -1.051000
v 0.490555 0.066190 -1.061000
v 0.626026 0.070653 -1.061000
f 66 1 2
f 66 2 3
f 66 3 4
f 66 4 5
f 66 5 6
f 66 6 7
f 66 7 8
f 66 8 9
f 66 9 10
f 66 10 11
f 66 11 12
f 66 12 13
f 66 13 14
f 66 14 15
f 66 15 16
f 66 16 17
f 66 17 18
f 66 18 19
f 66 19 20
f 66 20 21
f 66 21 22
f 66 22 23
f 66 23 24
f 66 24 25
f 66 25 26
f 66 26 27
f 66 27 28
f 66 28 29
f 66 29 30
f 66 30 31
f 66 31 32
f 66 32 33
f 66 33 34
f 66 34 35
f 66 35 36
f 66 36 37
f 66 37 38
f 66 38 39
f 66 39 40
f 66 40 41
f 66 41 42
f 66 42 43
f 66 43 44
f 66 44 45
f 66 45 46
f 66 46 47
f 66 47 48
f 66 48 49
f 66 49 50
f 66 50 51
f 66 51 52
f 66 52 53
f 66 53 54
f 66 54 55
f 66 55 56
f 66 56 57
f 66 57 58
f 66 58 59
f 66 59 60
f 66 60 61
f 66 61 62
f 66 62 63
f 66 63 64
f 64 65 66
