v 2.250131 0.559197 -5.550616
v 2.254590 0.559736 -5.547606
v 2.252380 0.559470 -5.549141
v 2.256758 0.559995 -5.546012
v 2.258882 0.560246 -5.544359
v 2.260962 0.560490 -5.542648
v 2.262995 0.560727 -5.540882
v 2.264980 0.560955 -5.539061
v 2.266916 0.561176 -5.537187
v 2.268802 0.561389 -5.535261
v 2.270635 0.561593 -5.533284
v 2.248924 0.567818 -5.550319
v 2.247789 0.576178 -5.549793
v 2.246723 0.584289 -5.549048
v 2.245722 0.592167 -5.548096
v 2.244783 0.599823 -5.546948
v 2.243907 0.607260 -5.545605
v 2.243094 0.614478 -5.544066
v 2.242346 0.621476 -5.542329
v 2.241663 0.628251 -5.540393
v 2.241049 0.634794 -5.538259
v 2.268267 0.570626 -5.534099
v 2.268264 0.570636 -5.534099
v 2.265690 0.579272 -5.534827
v 2.265684 0.579290 -5.534829
v 2.262935 0.587529 -5.535476
v 2.262926 0.587555 -5.535478
v 2.260032 0.595402 -5.536051
v 2.260019 0.595435 -5.536053
v 2.257008 0.602899 -5.536558
v 2.256992 0.602937 -5.536561
v 2.253892 0.610020 -5.537004
v 2.253873 0.610063 -5.537006
v 2.250713 0.616766 -5.537392
v 2.250690 0.616813 -5.537395
v 2.247496 0.623140 -5.537728
v 2.247470 0.623190 -5.537730
v 2.244267 0.629150 -5.538017
v 2.244238 0.629201 -5.538019
v 2.274139 0.561975 -5.529185
v 2.272414 0.561788 -5.531258
v 2.275808 0.562154 -5.527065
v 2.277420 0.562323 -5.524901
v 2.278973 0.562483 -5.522694
v 2.280466 0.562635 -5.520445
v 2.281899 0.562777 -5.518157
v 2.283270 0.562909 -5.515831
v 2.284579 0.563033 -5.513468
v 2.285824 0.563146 -5.511071
v 2.240504 0.641089 -5.535932
v 2.240030 0.647119 -5.533416
v 2.239631 0.652869 -5.530716
v 2.239309 0.658325 -5.527832
v 2.239064 0.663484 -5.524754
v 2.238901 0.668341 -5.521475
v 2.238820 0.672895 -5.517986
v 2.238823 0.677134 -5.514286
v 2.238912 0.681026 -5.510403
v 2.239083 0.684535 -5.506370
v 2.239339 0.687625 -5.502219
v 2.284391 0.572680 -5.510764
v 2.284389 0.572690 -5.510764
v 2.282713 0.581860 -5.510417
v 2.282709 0.581879 -5.510416
v 2.280819 0.590681 -5.510034
v 2.280812 0.590709 -5.510033
v 2.278737 0.599144 -5.509621
v 2.278728 0.599179 -5.509619
v 2.276495 0.607252 -5.509182
v 2.276483 0.607293 -5.509179
v 2.274120 0.615001 -5.508722
v 2.274105 0.615048 -5.508719
v 2.271638 0.622388 -5.508245
v 2.271620 0.622440 -5.508242
v 2.269078 0.629411 -5.507757
v 2.269057 0.629466 -5.507753
v 2.266462 0.636072 -5.507261
v 2.266439 0.636130 -5.507257
v 2.263818 0.642368 -5.506763
v 2.263792 0.642427 -5.506758
v 2.261173 0.648291 -5.506266
v 2.261145 0.648351 -5.506261
v 2.258553 0.653837 -5.505776
v 2.258524 0.653898 -5.505771
v 2.255985 0.659005 -5.505297
v 2.255954 0.659066 -5.505292
v 2.253490 0.663798 -5.504833
v 2.253456 0.663860 -5.504827
v 2.251083 0.668228 -5.504387
v 2.251048 0.668292 -5.504380
v 2.248778 0.672310 -5.503960
v 2.248742 0.672373 -5.503953
v 2.246588 0.676054 -5.503555
v 2.246551 0.676116 -5.503548
v 2.244526 0.679469 -5.503175
v 2.244489 0.679529 -5.503168
v 2.242615 0.682544 -5.502822
v 2.242579 0.682601 -5.502816
v 2.240878 0.685267 -5.502503
v 2.240844 0.685319 -5.502497
v 2.288119 0.563345 -5.506180
v 2.287004 0.563251 -5.508641
v 2.289167 0.563430 -5.503689
v 2.290149 0.563504 -5.501171
v 2.291063 0.563569 -5.498627
v 2.291908 0.563625 -5.496060
v 2.292685 0.563670 -5.493471
v 2.293391 0.563705 -5.490861
v 2.294028 0.563730 -5.488234
v 2.294594 0.563745 -5.485590
v 2.295089 0.563750 -5.482932
v 2.295513 0.563745 -5.480262
v 2.295865 0.563730 -5.477582
v 2.296146 0.563705 -5.474893
v 2.296354 0.563670 -5.472197
v 2.296490 0.563625 -5.469498
v 2.296553 0.563569 -5.466795
v 2.296544 0.563504 -5.464093
v 2.296463 0.563430 -5.461391
v 2.296309 0.563345 -5.458693
v 2.296083 0.563251 -5.456001
v 2.239677 0.690265 -5.497984
v 2.240094 0.692450 -5.493683
v 2.240585 0.694188 -5.489336
v 2.241148 0.695487 -5.484958
v 2.241777 0.696352 -5.480566
v 2.242471 0.696787 -5.476172
v 2.243227 0.696792 -5.471785
v 2.244044 0.696368 -5.467412
v 2.244921 0.695513 -5.463061
v 2.245856 0.694225 -5.458745
v 2.246848 0.692497 -5.454479
v 2.247896 0.690320 -5.450283
v 2.294637 0.572814 -5.455934
v 2.294635 0.572824 -5.455934
v 2.292944 0.582024 -5.455818
v 2.292940 0.582044 -5.455818
v 2.291034 0.590876 -5.455660
v 2.291028 0.590904 -5.455660
v 2.288937 0.599371 -5.455464
v 2.288927 0.599406 -5.455463
v 2.286677 0.607510 -5.455233
v 2.286665 0.607552 -5.455232
v 2.284284 0.615292 -5.454975
v 2.284269 0.615339 -5.454973
v 2.281785 0.622710 -5.454691
v 2.281767 0.622762 -5.454689
v 2.279205 0.629764 -5.454389
v 2.279184 0.629819 -5.454386
v 2.276571 0.636455 -5.454070
v 2.276547 0.636513 -5.454067
v 2.273907 0.642780 -5.453741
v 2.273882 0.642840 -5.453738
v 2.271243 0.648732 -5.453405
v 2.271215 0.648793 -5.453401
v 2.268605 0.654306 -5.453067
v 2.268575 0.654367 -5.453063
v 2.266018 0.659500 -5.452730
v 2.265986 0.659562 -5.452726
v 2.263504 0.664318 -5.452400
v 2.263471 0.664381 -5.452395
v 2.261080 0.668772 -5.452078
v 2.261045 0.668836 -5.452073
v 2.258759 0.672876 -5.451767
v 2.258722 0.672939 -5.451762
v 2.256552 0.676641 -5.451469
v 2.256515 0.676704 -5.451464
v 2.254475 0.680075 -5.451187
v 2.254438 0.680135 -5.451182
v 2.252550 0.683168 -5.450924
v 2.252514 0.683225 -5.450919
v 2.250800 0.685906 -5.450684
v 2.250766 0.685959 -5.450680
v 2.249250 0.688279 -5.450471
v 2.249219 0.688326 -5.450466
v 2.247920 0.690277 -5.450287
v 2.295415 0.563033 -5.450640
v 2.295785 0.563146 -5.453316
v 2.294974 0.562909 -5.447976
v 2.294461 0.562777 -5.445324
v 2.293878 0.562635 -5.442688
v 2.293223 0.562483 -5.440069
v 2.292499 0.562323 -5.437469
v 2.291706 0.562154 -5.434890
v 2.290844 0.561975 -5.432334
v 2.289913 0.561788 -5.429803
v 2.248996 0.687688 -5.446173
v 2.250146 0.684603 -5.442170
v 2.251336 0.681098 -5.438304
v 2.252555 0.677209 -5.434608
v 2.253792 0.672971 -5.431113
v 2.255038 0.668417 -5.427844
v 2.256292 0.663558 -5.424803
v 2.257555 0.658397 -5.421978
v 2.258827 0.652938 -5.419363
v 2.260109 0.647186 -5.416947
v 2.261398 0.641154 -5.414731
v 2.288028 0.570884 -5.428339
v 2.288026 0.570894 -5.428337
v 2.285915 0.579596 -5.426881
v 2.285910 0.579615 -5.426878
v 2.283605 0.587924 -5.425433
v 2.283597 0.587950 -5.425428
v 2.281128 0.595870 -5.424000
v 2.281117 0.595903 -5.423994
v 2.278512 0.603443 -5.422586
v 2.278498 0.603482 -5.422578
v 2.275785 0.610642 -5.421194
v 2.275768 0.610686 -5.421186
v 2.272975 0.617468 -5.419831
v 2.272955 0.617515 -5.419821
v 2.270110 0.623923 -5.418499
v 2.270087 0.623974 -5.418489
v 2.267213 0.630014 -5.417204
v 2.267187 0.630066 -5.417192
v 2.264311 0.635741 -5.415949
v 2.264283 0.635794 -5.415937
v 2.261432 0.641101 -5.414741
v 2.287850 0.561389 -5.424821
v 2.288915 0.561593 -5.427298
v 2.286719 0.561176 -5.422375
v 2.285522 0.560955 -5.419960
v 2.284262 0.560727 -5.417580
v 2.282938 0.560490 -5.415234
v 2.281551 0.560246 -5.412926
v 2.280103 0.559995 -5.410657
v 2.278595 0.559736 -5.408428
v 2.277027 0.559470 -5.406242
v 2.275401 0.559197 -5.404099
v 2.262692 0.634856 -5.412718
v 2.263987 0.628310 -5.410910
v 2.265280 0.621531 -5.409311
v 2.266568 0.614529 -5.407923
v 2.267851 0.607306 -5.406742
v 2.269127 0.599862 -5.405768
v 2.270398 0.592200 -5.404999
v 2.271661 0.584315 -5.404436
v 2.272917 0.576196 -5.404090
v 2.274164 0.567827 -5.403974
f 1 2 3
f 1 4 2
f 1 5 4
f 1 6 5
f 1 7 6
f 1 8 7
f 1 9 8
f 1 10 9
f 1 11 10
f 1 12 13
f 1 13 14
f 1 14 15
f 1 15 16
f 1 16 17
f 1 17 18
f 1 18 19
f 1 19 20
f 1 20 21
f 1 22 11
f 1 23 22
f 1 24 23
f 1 25 24
f 1 26 25
f 1 27 26
f 1 28 27
f 1 29 28
f 1 30 29
f 1 31 30
f 1 32 31
f 1 33 32
f 1 34 33
f 1 35 34
f 1 36 35
f 1 37 36
f 1 38 37
f 1 39 38
f 1 21 39
f 11 40 41
f 11 42 40
f 11 43 42
f 11 44 43
f 11 45 44
f 11 46 45
f 11 47 46
f 11 48 47
f 11 49 48
f 21 50 51
f 21 51 52
f 21 52 53
f 21 53 54
f 21 54 55
f 21 55 56
f 21 56 57
f 21 57 58
f 21 58 59
f 21 59 60
f 11 22 49
f 22 61 49
f 22 23 61
f 23 62 61
f 23 24 62
f 24 63 62
f 24 25 63
f 25 64 63
f 25 26 64
f 26 65 64
f 26 27 65
f 27 66 65
f 27 28 66
f 28 67 66
f 28 29 67
f 29 68 67
f 29 30 68
f 30 69 68
f 30 31 69
f 31 70 69
f 31 32 70
f 32 71 70
f 32 33 71
f 33 72 71
f 33 34 72
f 34 73 72
f 34 35 73
f 35 74 73
f 35 36 74
f 36 75 74
f 36 37 75
f 37 76 75
f 37 38 76
f 38 77 76
f 38 39 77
f 39 78 77
f 39 21 78
f 21 79 78
f 21 80 79
f 21 81 80
f 21 82 81
f 21 83 82
f 21 84 83
f 21 85 84
f 21 86 85
f 21 87 86
f 21 88 87
f 21 89 88
f 21 90 89
f 21 91 90
f 21 92 91
f 21 93 92
f 21 94 93
f 21 95 94
f 21 96 95
f 21 97 96
f 21 98 97
f 21 99 98
f 21 100 99
f 21 60 100
f 49 101 102
f 49 103 101
f 49 104 103
f 49 105 104
f 49 106 105
f 49 107 106
f 49 108 107
f 49 109 108
f 49 110 109
f 49 111 110
f 49 112 111
f 49 113 112
f 49 114 113
f 49 115 114
f 49 116 115
f 49 117 116
f 49 118 117
f 49 119 118
f 49 120 119
f 49 121 120
f 60 122 123
f 60 123 124
f 60 124 125
f 60 125 126
f 60 126 127
f 60 127 128
f 60 128 129
f 60 129 130
f 60 130 131
f 60 131 132
f 60 132 133
f 49 61 121
f 61 134 121
f 61 62 134
f 62 135 134
f 62 63 135
f 63 136 135
f 63 64 136
f 64 137 136
f 64 65 137
f 65 138 137
f 65 66 138
f 66 139 138
f 66 67 139
f 67 140 139
f 67 68 140
f 68 141 140
f 68 69 141
f 69 142 141
f 69 70 142
f 70 143 142
f 70 71 143
f 71 144 143
f 71 72 144
f 72 145 144
f 72 73 145
f 73 146 145
f 73 74 146
f 74 147 146
f 74 75 147
f 75 148 147
f 75 76 148
f 76 149 148
f 76 77 149
f 77 150 149
f 77 78 150
f 78 151 150
f 78 79 151
f 79 152 151
f 79 80 152
f 80 153 152
f 80 81 153
f 81 154 153
f 81 82 154
f 82 155 154
f 82 83 155
f 83 156 155
f 83 84 156
f 84 157 156
f 84 85 157
f 85 158 157
f 85 86 158
f 86 159 158
f 86 87 159
f 87 160 159
f 87 88 160
f 88 161 160
f 88 89 161
f 89 162 161
f 89 90 162
f 90 163 162
f 90 91 163
f 91 164 163
f 91 92 164
f 92 165 164
f 92 93 165
f 93 166 165
f 93 94 166
f 94 167 166
f 94 95 167
f 95 168 167
f 95 96 168
f 96 169 168
f 96 97 169
f 97 170 169
f 97 98 170
f 98 171 170
f 98 99 171
f 99 172 171
f 99 100 172
f 100 173 172
f 100 60 173
f 60 174 173
f 60 175 174
f 60 176 175
f 60 133 176
f 121 177 178
f 121 179 177
f 121 180 179
f 121 181 180
f 121 182 181
f 121 183 182
f 121 184 183
f 121 185 184
f 121 186 185
f 133 187 188
f 133 188 189
f 133 189 190
f 133 190 191
f 133 191 192
f 133 192 193
f 133 193 194
f 133 194 195
f 133 195 196
f 133 196 197
f 121 134 186
f 134 198 186
f 134 135 198
f 135 199 198
f 135 136 199
f 136 200 199
f 136 137 200
f 137 201 200
f 137 138 201
f 138 202 201
f 138 139 202
f 139 203 202
f 139 140 203
f 140 204 203
f 140 141 204
f 141 205 204
f 141 142 205
f 142 206 205
f 142 143 206
f 143 207 206
f 143 144 207
f 144 208 207
f 144 145 208
f 145 209 208
f 145 146 209
f 146 210 209
f 146 147 210
f 147 211 210
f 147 148 211
f 148 212 211
f 148 149 212
f 149 213 212
f 149 150 213
f 150 214 213
f 150 151 214
f 151 215 214
f 151 152 215
f 152 216 215
f 152 153 216
f 153 217 216
f 153 154 217
f 154 218 217
f 154 155 218
f 155 197 218
f 155 156 197
f 156 157 197
f 157 158 197
f 158 159 197
f 159 160 197
f 160 161 197
f 161 162 197
f 162 163 197
f 163 164 197
f 164 165 197
f 165 166 197
f 166 167 197
f 167 168 197
f 168 169 197
f 169 170 197
f 170 171 197
f 171 172 197
f 172 173 197
f 173 174 197
f 174 175 197
f 175 176 197
f 176 133 197
f 186 219 220
f 186 221 219
f 186 222 221
f 186 223 222
f 186 224 223
f 186 225 224
f 186 226 225
f 186 227 226
f 186 228 227
f 186 229 228
f 197 230 231
f 197 231 232
f 197 232 233
f 197 233 234
f 197 234 235
f 197 235 236
f 197 236 237
f 197 237 238
f 197 238 239
f 197 239 229
f 186 198 229
f 198 199 229
f 199 200 229
f 200 201 229
f 201 202 229
f 202 203 229
f 203 204 229
f 204 205 229
f 205 206 229
f 206 207 229
f 207 208 229
f 208 209 229
f 209 210 229
f 210 211 229
f 211 212 229
f 212 213 229
f 213 214 229
f 214 215 229
f 215 216 229
f 216 217 229
f 217 218 229
f 218 197 229
