v -0.619117 0.220000 0.382835
v -0.567417 0.220000 0.368981
v -0.556522 0.220000 0.373073
v -0.556522 0.010000 0.373073
v -0.567417 0.016837 0.368981
v -0.567290 0.016713 0.368948
v -0.567163 0.016588 0.368914
v -0.567036 0.016463 0.368880
v -0.566910 0.016338 0.368846
v -0.566783 0.016214 0.368812
v -0.566656 0.016089 0.368778
v -0.566529 0.015964 0.368744
v -0.566403 0.015839 0.368710
v -0.566276 0.015715 0.368676
v -0.566149 0.015590 0.368642
v -0.566023 0.015465 0.368608
v -0.565896 0.015341 0.368574
v -0.565769 0.015216 0.368540
v -0.565643 0.015092 0.368506
v -0.565516 0.014967 0.368472
v -0.565390 0.014842 0.368438
v -0.565263 0.014718 0.368404
v -0.565137 0.014593 0.368371
v -0.565010 0.014469 0.368337
v -0.564884 0.014344 0.368303
v -0.564757 0.014220 0.368269
v -0.564631 0.014096 0.368235
v -0.564504 0.013971 0.368201
v -0.564378 0.013847 0.368167
v -0.564251 0.013722 0.368133
v -0.564125 0.013598 0.368100
v -0.563999 0.013474 0.368066
v -0.563872 0.013349 0.368032
v -0.563746 0.013225 0.367998
v -0.563620 0.013101 0.367964
v -0.563493 0.012977 0.367930
v -0.563367 0.012852 0.367896
v -0.563241 0.012728 0.367863
v -0.563115 0.012604 0.367829
v -0.562988 0.012480 0.367795
v -0.562862 0.012356 0.367761
v -0.562736 0.012231 0.367727
v -0.562610 0.012107 0.367693
v -0.562484 0.011983 0.367660
v -0.562357 0.011859 0.367626
v -0.562231 0.011735 0.367592
v -0.562105 0.011611 0.367558
v -0.561979 0.011487 0.367524
v -0.561853 0.011363 0.367491
v -0.561727 0.011239 0.367457
v -0.561601 0.011115 0.367423
v -0.561475 0.010991 0.367389
v -0.561349 0.010867 0.367356
v -0.561223 0.010743 0.367322
v -0.561097 0.010619 0.367288
v -0.560971 0.010495 0.367254
v -0.560845 0.010371 0.367221
v -0.560719 0.010248 0.367187
v -0.560593 0.010124 0.367153
v -0.560467 0.010000 0.367119
v -0.560467 0.000000 0.367119
v -0.619117 0.000000 0.382835
f 62 1 2
f 62 2 3
f 3 4 5
f 62 3 5
f 62 5 6
f 62 6 7
f 62 7 8
f 62 8 9
f 62 9 10
f 62 10 11
f 62 11 12
f 62 12 13
f 62 13 14
f 62 14 15
f 62 15 16
f 62 16 17
f 62 17 18
f 62 18 19
f 62 19 20
f 62 20 21
f 62 21 22
f 62 22 23
f 62 23 24
f 62 24 25
f 62 25 26
f 62 26 27
f 62 27 28
f 62 28 29
f 62 29 30
f 62 30 31
f 62 31 32
f 62 32 33
f 62 33 34
f 62 34 35
f 62 35 36
f 62 36 37
f 62 37 38
f 62 38 39
f 62 39 40
f 62 40 41
f 62 41 42
f 62 42 43
f 62 43 44
f 62 44 45
f 62 45 46
f 62 46 47
f 62 47 48
f 62 48 49
f 62 49 50
f 62 50 51
f 62 51 52
f 62 52 53
f 62 53 54
f 62 54 55
f 62 55 56
f 62 56 57
f 62 57 58
f 62 58 59
f 62 59 60
f 60 61 62
