v -0.453791 -0.140354 -2.812713
v -0.452545 -0.144319 -2.806749
v -0.451158 -0.148599 -2.801021
v -0.449624 -0.153176 -2.795550
v -0.447941 -0.158028 -2.790360
v -0.446109 -0.163129 -2.785469
v -0.444127 -0.168453 -2.780898
v -0.441994 -0.173972 -2.776664
v -0.439712 -0.179660 -2.772786
v -0.437283 -0.185492 -2.769272
v -0.434712 -0.191442 -2.766131
v -0.432002 -0.197483 -2.763372
v -0.429156 -0.203592 -2.761000
v -0.426181 -0.209747 -2.759020
v -0.423083 -0.215929 -2.757433
v -0.419867 -0.222118 -2.756242
v -0.416541 -0.228295 -2.755447
v -0.413112 -0.234442 -2.755049
v -0.409588 -0.240546 -2.755050
v -0.405979 -0.246589 -2.755447
v -0.402293 -0.252558 -2.756242
v -0.398541 -0.258436 -2.757433
v -0.394737 -0.264210 -2.759020
v -0.390895 -0.269863 -2.761000
v -0.387027 -0.275381 -2.763371
v -0.383151 -0.280749 -2.766130
v -0.379284 -0.285950 -2.769271
v -0.375448 -0.290969 -2.772784
v -0.371663 -0.295790 -2.776662
v -0.367949 -0.300396 -2.780895
v -0.364330 -0.304775 -2.785467
v -0.360829 -0.308913 -2.790358
v -0.357468 -0.312796 -2.795548
v -0.354271 -0.316413 -2.801018
v -0.351258 -0.319755 -2.806747
v -0.348446 -0.322816 -2.812710
v -0.355775 -0.083765 -2.812713
v -0.353747 -0.087278 -2.806750
v -0.351547 -0.091089 -2.801021
v -0.349182 -0.095185 -2.795550
v -0.346661 -0.099551 -2.790358
v -0.343994 -0.104170 -2.785467
v -0.341193 -0.109023 -2.780896
v -0.338269 -0.114087 -2.776664
v -0.335236 -0.119341 -2.772786
v -0.332104 -0.124766 -2.769271
v -0.328885 -0.130342 -2.766131
v -0.325591 -0.136047 -2.763371
v -0.322234 -0.141861 -2.761000
v -0.318825 -0.147765 -2.759020
v -0.315374 -0.153743 -2.757433
v -0.311890 -0.159777 -2.756242
v -0.308384 -0.165850 -2.755447
v -0.304864 -0.171946 -2.755050
v -0.301341 -0.178049 -2.755050
v -0.297821 -0.184145 -2.755447
v -0.294315 -0.190217 -2.756242
v -0.290832 -0.196251 -2.757433
v -0.287381 -0.202228 -2.759020
v -0.283972 -0.208132 -2.761000
v -0.280616 -0.213945 -2.763371
v -0.277323 -0.219650 -2.766130
v -0.274104 -0.225225 -2.769270
v -0.270972 -0.230650 -2.772784
v -0.267938 -0.235904 -2.776662
v -0.265014 -0.240968 -2.780894
v -0.262213 -0.245820 -2.785464
v -0.259546 -0.250440 -2.790355
v -0.257025 -0.254806 -2.795547
v -0.254660 -0.258902 -2.801018
v -0.252460 -0.262713 -2.806747
v -0.250431 -0.266226 -2.812711
v -0.247528 -0.021269 -2.812713
v -0.245500 -0.024781 -2.806750
v -0.243300 -0.028592 -2.801021
v -0.240935 -0.032688 -2.795550
v -0.238414 -0.037055 -2.790358
v -0.235747 -0.041674 -2.785467
v -0.232946 -0.046526 -2.780896
v -0.230022 -0.051590 -2.776664
v -0.226989 -0.056844 -2.772786
v -0.223856 -0.062269 -2.769271
v -0.220637 -0.067845 -2.766131
v -0.217343 -0.073550 -2.763371
v -0.213987 -0.079364 -2.761000
v -0.210578 -0.085268 -2.759020
v -0.207126 -0.091246 -2.757433
v -0.203643 -0.097281 -2.756242
v -0.200136 -0.103354 -2.755447
v -0.196617 -0.109449 -2.755050
v -0.193093 -0.115553 -2.755050
v -0.189574 -0.121648 -2.755447
v -0.186068 -0.127721 -2.756242
v -0.182585 -0.133754 -2.757433
v -0.179134 -0.139731 -2.759020
v -0.175725 -0.145635 -2.761000
v -0.172369 -0.151448 -2.763371
v -0.169075 -0.157153 -2.766130
v -0.165856 -0.162728 -2.769270
v -0.162724 -0.168153 -2.772784
v -0.159691 -0.173408 -2.776662
v -0.156767 -0.178471 -2.780894
v -0.153966 -0.183324 -2.785464
v -0.151299 -0.187943 -2.790355
v -0.148778 -0.192310 -2.795547
v -0.146413 -0.196406 -2.801018
v -0.144212 -0.200217 -2.806747
v -0.142184 -0.203730 -2.812711
f 1 2 38
f 1 38 37
f 2 3 39
f 2 39 38
f 3 4 40
f 3 40 39
f 4 5 41
f 4 41 40
f 5 6 42
f 5 42 41
f 6 7 43
f 6 43 42
f 7 8 44
f 7 44 43
f 8 9 45
f 8 45 44
f 9 10 46
f 9 46 45
f 10 11 47
f 10 47 46
f 11 12 48
f 11 48 47
f 12 13 49
f 12 49 48
f 13 14 50
f 13 50 49
f 14 15 51
f 14 51 50
f 15 16 52
f 15 52 51
f 16 17 53
f 16 53 52
f 17 18 54
f 17 54 53
f 18 19 55
f 18 55 54
f 19 20 56
f 19 56 55
f 20 21 57
f 20 57 56
f 21 22 58
f 21 58 57
f 22 23 59
f 22 59 58
f 23 24 60
f 23 60 59
f 24 25 61
f 24 61 60
f 25 26 62
f 25 62 61
f 26 27 63
f 26 63 62
f 27 28 64
f 27 64 63
f 28 29 65
f 28 65 64
f 29 30 66
f 29 66 65
f 30 31 67
f 30 67 66
f 31 32 68
f 31 68 67
f 32 33 69
f 32 69 68
f 33 34 70
f 33 70 69
f 34 35 71
f 34 71 70
f 35 36 72
f 35 72 71
f 36 1 37
f 36 37 72
f 37 38 74
f 37 74 73
f 38 39 75
f 38 75 74
f 39 40 76
f 39 76 75
f 40 41 77
f 40 77 76
f 41 42 78
f 41 78 77
f 42 43 79
f 42 79 78
f 43 44 80
f 43 80 79
f 44 45 81
f 44 81 80
f 45 46 82
f 45 82 81
f 46 47 83
f 46 83 82
f 47 48 84
f 47 84 83
f 48 49 85
f 48 85 84
f 49 50 86
f 49 86 85
f 50 51 87
f 50 87 86
f 51 52 88
f 51 88 87
f 52 53 89
f 52 89 88
f 53 54 90
f 53 90 89
f 54 55 91
f 54 91 90
f 55 56 92
f 55 92 91
f 56 57 93
f 56 93 92
f 57 58 94
f 57 94 93
f 58 59 95
f 58 95 94
f 59 60 96
f 59 96 95
f 60 61 97
f 60 97 96
f 61 62 98
f 61 98 97
f 62 63 99
f 62 99 98
f 63 64 100
f 63 100 99
f 64 65 101
f 64 101 100
f 65 66 102
f 65 102 101
f 66 67 103
f 66 103 102
f 67 68 104
f 67 104 103
f 68 69 105
f 68 105 104
f 69 70 106
f 69 106 105
f 70 71 107
f 70 107 106
f 71 72 108
f 71 108 107
f 72 37 73
f 72 73 108
