v -1.020000 0.524053 -6.163000
v -1.019743 0.524053 -6.157942
v -1.018976 0.524053 -6.152935
v -1.017707 0.524053 -6.148032
v -1.015948 0.524053 -6.143282
v -1.013717 0.524053 -6.138735
v -1.011038 0.524053 -6.134437
v -1.007938 0.524053 -6.130431
v -1.004448 0.524053 -6.126760
v -1.000605 0.524053 -6.123461
v -0.996448 0.524053 -6.120568
v -0.992020 0.524053 -6.118110
v -0.987365 0.524053 -6.116112
v -0.982533 0.524053 -6.114596
v -0.977571 0.524053 -6.113577
v -0.972532 0.524053 -6.113064
v -1.020000 0.759342 -6.163000
v -1.019743 0.759342 -6.157942
v -1.018976 0.759342 -6.152935
v -1.017707 0.759342 -6.148032
v -1.015948 0.759342 -6.143282
v -1.013717 0.759342 -6.138735
v -1.011038 0.759342 -6.134437
v -1.007938 0.759342 -6.130431
v -1.004448 0.759342 -6.126760
v -1.000605 0.759342 -6.123461
v -0.996448 0.759342 -6.120568
v -0.992020 0.759342 -6.118110
v -0.987365 0.759342 -6.116112
v -0.982533 0.759342 -6.114596
v -0.977571 0.759342 -6.113577
v -0.972532 0.759342 -6.113064
v -1.020000 0.994631 -6.163000
v -1.019743 0.994631 -6.157942
v -1.018976 0.994631 -6.152935
v -1.017707 0.994631 -6.148032
v -1.015948 0.994631 -6.143282
v -1.013717 0.994631 -6.138735
v -1.011038 0.994631 -6.134437
v -1.007938 0.994631 -6.130431
v -1.004448 0.994631 -6.126760
v -1.000605 0.994631 -6.123461
v -0.996448 0.994631 -6.120568
v -0.992020 0.994631 -6.118110
v -0.987365 0.994631 -6.116112
v -0.982533 0.994631 -6.114596
v -0.977571 0.994631 -6.113577
v -0.972532 0.994631 -6.113064
f 1 18 2
f 1 17 18
f 2 19 3
f 2 18 19
f 3 20 4
f 3 19 20
f 4 21 5
f 4 20 21
f 5 22 6
f 5 21 22
f 6 23 7
f 6 22 23
f 7 24 8
f 7 23 24
f 8 25 9
f 8 24 25
f 9 26 10
f 9 25 26
f 10 27 11
f 10 26 27
f 11 28 12
f 11 27 28
f 12 29 13
f 12 28 29
f 13 30 14
f 13 29 30
f 14 31 15
f 14 30 31
f 15 32 16
f 15 31 32
f 17 34 18
f 17 33 34
f 18 35 19
f 18 34 35
f 19 36 20
f 19 35 36
f 20 37 21
f 20 36 37
f 21 38 22
f 21 37 38
f 22 39 23
f 22 38 39
f 23 40 24
f 23 39 40
f 24 41 25
f 24 40 41
f 25 42 26
f 25 41 42
f 26 43 27
f 26 42 43
f 27 44 28
f 27 43 44
f 28 45 29
f 28 44 45
f 29 46 30
f 29 45 46
f 30 47 31
f 30 46 47
f 31 48 32
f 31 47 48
