v 0.355000 -0.760818 -6.664978
v 0.355000 -0.766169 -6.663938
v -1.575002 -0.766162 -6.663939
v 0.875000 0.000000 -6.738000
v 0.875000 -0.005974 -6.737996
v 0.855000 -0.375000 -6.720383
v 0.875000 -0.369879 -6.720862
v 0.875000 -0.375827 -6.720305
v 0.874637 -0.375798 -6.720308
v -1.575000 -0.754148 -6.666264
v 0.875000 -0.011949 -6.737982
v 0.875000 -0.363930 -6.721410
v 0.355000 -0.755465 -6.666011
v 0.875000 -0.017923 -6.737960
v 0.875000 -0.357980 -6.721949
v 0.355000 -0.750111 -6.667037
v 0.875000 -0.023897 -6.737929
v 0.875000 -0.352029 -6.722479
v -1.575000 -0.742127 -6.668553
v 0.875000 -0.029871 -6.737888
v 0.875000 -0.346078 -6.723001
v 0.355000 -0.744756 -6.668056
v 0.875000 -0.035845 -6.737839
v 0.875000 -0.340125 -6.723513
v 0.355000 -0.739400 -6.669067
v 0.875000 -0.041820 -6.737781
v 0.875000 -0.334172 -6.724017
v 0.355000 -0.734042 -6.670071
v 0.875000 -0.047793 -6.737714
v 0.875000 -0.328219 -6.724511
v -1.575000 -0.730099 -6.670805
v 0.875000 -0.053767 -6.737639
v 0.875000 -0.322264 -6.724997
v 0.355000 -0.728682 -6.671068
v 0.875000 -0.059741 -6.737554
v 0.874274 -0.375768 -6.720311
v 0.355000 -0.723321 -6.672057
v 0.875000 -0.065715 -6.737460
v 0.873911 -0.375740 -6.720313
v -1.575000 -0.718065 -6.673020
v 0.875000 -0.071688 -6.737358
v 0.873548 -0.375711 -6.720316
v 0.355000 -0.717959 -6.673039
v 0.875000 -0.077661 -6.737246
v 0.873185 -0.375684 -6.720319
v 0.355000 -0.712596 -6.674014
v 0.875000 -0.083634 -6.737126
v 0.872822 -0.375657 -6.720321
v -1.575000 -0.706023 -6.675198
v 0.875000 -0.089607 -6.736996
v 0.872459 -0.375630 -6.720324
v 0.355000 -0.707231 -6.674982
v 0.875000 -0.095580 -6.736858
v 0.872096 -0.375604 -6.720326
v 0.355000 -0.701865 -6.675942
v 0.875000 -0.101553 -6.736711
v 0.871732 -0.375579 -6.720329
v -1.575000 -0.693975 -6.677340
v 0.875000 -0.107525 -6.736555
v 0.871369 -0.375554 -6.720331
v 0.355000 -0.696498 -6.676895
v 0.875000 -0.113497 -6.736389
v 0.871006 -0.375530 -6.720333
v 0.355000 -0.691129 -6.677840
v 0.875000 -0.119469 -6.736216
v 0.875000 -0.316309 -6.725474
v 0.355000 -0.685759 -6.678778
v 0.875000 -0.125440 -6.736033
v 0.870643 -0.375506 -6.720335
v -1.575000 -0.681920 -6.679444
v 0.875000 -0.131412 -6.735841
v 0.870279 -0.375483 -6.720338
v 0.355000 -0.680388 -6.679709
v 0.875000 -0.137382 -6.735640
v 0.869916 -0.375460 -6.720340
v 0.355000 -0.675016 -6.680633
v 0.875000 -0.143353 -6.735430
v 0.869552 -0.375438 -6.720342
v -1.575000 -0.669859 -6.681512
v 0.875000 -0.149323 -6.735212
v 0.869189 -0.375416 -6.720344
v 0.355000 -0.669642 -6.681549
v 0.875000 -0.155293 -6.734984
v 0.868825 -0.375395 -6.720346
v 0.355000 -0.664267 -6.682458
v 0.875000 -0.161263 -6.734748
v 0.868462 -0.375375 -6.720348
v -1.575000 -0.657792 -6.683543
v 0.875000 -0.167232 -6.734503
v 0.868098 -0.375355 -6.720350
v 0.355000 -0.658891 -6.683360
v 0.875000 -0.173201 -6.734248
v 0.867735 -0.375335 -6.720352
v 0.355000 -0.653513 -6.684254
v 0.875000 -0.179170 -6.733985
v 0.867371 -0.375316 -6.720353
v -1.575000 -0.645719 -6.685537
v 0.875000 -0.185138 -6.733713
v 0.875000 -0.310353 -6.725942
v 0.355000 -0.648135 -6.685141
v 0.875000 -0.191106 -6.733432
v 0.867008 -0.375298 -6.720355
v 0.355000 -0.642755 -6.686021
v 0.875000 -0.197073 -6.733142
v 0.355000 -0.637374 -6.686893
v 0.866644 -0.375280 -6.720357
v -1.575000 -0.633639 -6.687494
v 0.866281 -0.375263 -6.720358
v 0.355000 -0.631992 -6.687758
v 0.865917 -0.375246 -6.720360
v 0.355000 -0.626608 -6.688615
v 0.865553 -0.375230 -6.720361
v -1.575000 -0.621554 -6.689414
v 0.865189 -0.375215 -6.720363
v 0.355000 -0.621224 -6.689466
v 0.864826 -0.375199 -6.720364
v 0.355000 -0.615838 -6.690309
v 0.864462 -0.375185 -6.720366
v -1.575000 -0.609463 -6.691297
v 0.875000 -0.304396 -6.726401
v 0.355000 -0.610451 -6.691144
v 0.864098 -0.375171 -6.720367
v 0.355000 -0.605063 -6.691973
v 0.863734 -0.375158 -6.720368
v -1.575000 -0.597366 -6.693143
v 0.863371 -0.375145 -6.720369
v 0.355000 -0.599674 -6.692793
v 0.863007 -0.375132 -6.720371
v 0.355000 -0.594284 -6.693607
v 0.862643 -0.375121 -6.720372
v 0.355000 -0.588892 -6.694413
v 0.862279 -0.375109 -6.720373
v -1.575000 -0.585264 -6.694952
v 0.875000 -0.298439 -6.726851
v 0.355000 -0.583500 -6.695212
v 0.861915 -0.375099 -6.720374
v 0.355000 -0.578107 -6.696004
v 0.861551 -0.375089 -6.720375
v -1.575000 -0.573156 -6.696724
v 0.861187 -0.375079 -6.720376
v 0.355000 -0.572712 -6.696788
v 0.860824 -0.375070 -6.720376
v 0.355000 -0.567316 -6.697565
v 0.860460 -0.375062 -6.720377
v -1.575000 -0.561042 -6.698458
v 0.860096 -0.375054 -6.720378
v 0.355000 -0.561920 -6.698334
v 0.875000 -0.292481 -6.727293
v 0.355000 -0.556522 -6.699096
v 0.859732 -0.375046 -6.720379
v -1.575000 -0.548924 -6.700156
v 0.859368 -0.375039 -6.720379
v 0.355000 -0.551123 -6.699851
v 0.859004 -0.375033 -6.720380
v 0.355000 -0.545723 -6.700598
v 0.858640 -0.375027 -6.720381
v 0.355000 -0.540323 -6.701338
v 0.858276 -0.375022 -6.720381
v -1.575000 -0.536800 -6.701817
v 0.875000 -0.286522 -6.727725
v 0.355000 -0.534921 -6.702071
v 0.857912 -0.375018 -6.720381
v 0.355000 -0.529518 -6.702796
v 0.857548 -0.375013 -6.720382
v -1.575000 -0.524671 -6.703441
v 0.857184 -0.375010 -6.720382
v 0.355000 -0.524114 -6.703514
v 0.856820 -0.375007 -6.720382
v 0.355000 -0.518709 -6.704225
v 0.856456 -0.375004 -6.720383
v -1.575000 -0.512538 -6.705027
v 0.875000 -0.280563 -6.728148
v 0.355000 -0.513304 -6.704928
v 0.856092 -0.375002 -6.720383
v 0.355000 -0.507897 -6.705624
v 0.855728 -0.375001 -6.720383
v -1.575000 -0.500399 -6.706577
v 0.855364 -0.375000 -6.720383
v 0.355000 -0.502489 -6.706313
v 0.355000 -0.497081 -6.706994
v 0.875000 -0.274603 -6.728563
v 0.355000 -0.491671 -6.707667
v 0.875000 -0.268642 -6.728969
v -1.575000 -0.488256 -6.708089
v 0.875000 -0.262681 -6.729366
v 0.355000 -0.486261 -6.708334
v 0.875000 -0.256719 -6.729753
v 0.355000 -0.480850 -6.708993
v 0.875000 -0.250757 -6.730132
v -1.575000 -0.476108 -6.709564
v 0.875000 -0.244794 -6.730502
v 0.355000 -0.475438 -6.709644
v 0.875000 -0.238831 -6.730864
v 0.355000 -0.470024 -6.710289
v 0.875000 -0.232867 -6.731216
v -1.575000 -0.463956 -6.711002
v 0.875000 -0.226903 -6.731559
v 0.355000 -0.464610 -6.710926
v 0.875000 -0.220938 -6.731894
v 0.355000 -0.459196 -6.711555
v 0.875000 -0.214972 -6.732219
v -1.575000 -0.451800 -6.712403
v 0.875000 -0.209006 -6.732536
v 0.355000 -0.453780 -6.712177
v 0.875000 -0.203040 -6.732844
v 0.355000 -0.448364 -6.712792
v -1.575000 -0.439639 -6.713766
v 0.812179 -0.320877 -6.725109
v 0.355000 -0.442946 -6.713399
v 0.405000 -0.375000 -6.720383
v 0.403604 -0.375020 -6.720381
v 0.355000 -0.437528 -6.713999
v 0.402208 -0.375081 -6.720375
v 0.355000 -0.432109 -6.714592
v 0.400814 -0.375183 -6.720366
v -1.575000 -0.427474 -6.715093
v 0.399421 -0.375325 -6.720353
v 0.355000 -0.426689 -6.715177
v 0.398032 -0.375507 -6.720335
v -1.575000 -0.415306 -6.716382
v 0.396648 -0.375729 -6.720314
v -1.575000 -0.403133 -6.717634
v 0.395268 -0.375992 -6.720290
v -1.575000 -0.390956 -6.718848
v 0.435256 -0.320877 -6.725109
v -1.575000 -0.378776 -6.720026
v -1.575000 -0.171265 -6.734332
v 0.355022 -0.425170 -6.715340
v -1.575000 -0.183489 -6.733789
v -1.575000 -0.159038 -6.734837
v -1.575000 -0.146810 -6.735305
v -1.575000 -0.134581 -6.735735
v -1.575000 -0.122350 -6.736128
v -1.575000 -0.110118 -6.736484
v -1.575000 -0.097886 -6.736802
v -1.575000 -0.085652 -6.737083
v -1.575000 -0.073417 -6.737326
v -1.575000 -0.061182 -6.737532
v -1.575000 -0.048946 -6.737701
v -1.575000 -0.036710 -6.737832
v -1.575000 -0.024474 -6.737925
v -1.575000 -0.012237 -6.737981
v -1.575000 0.000000 -6.738000
v 0.355086 -0.423655 -6.715501
v 0.355194 -0.422146 -6.715662
v 0.355343 -0.420642 -6.715821
v 0.355535 -0.419146 -6.715979
v 0.355768 -0.417658 -6.716135
v 0.356043 -0.416180 -6.716290
v 0.356358 -0.414713 -6.716443
v 0.356715 -0.413257 -6.716595
v 0.357111 -0.411814 -6.716745
v 0.357548 -0.410385 -6.716892
v 0.358024 -0.408971 -6.717038
v 0.358539 -0.407573 -6.717181
v 0.359093 -0.406192 -6.717323
v 0.359686 -0.404830 -6.717461
v 0.360316 -0.403487 -6.717598
v 0.360984 -0.402164 -6.717732
v 0.361687 -0.400862 -6.717863
v 0.362425 -0.399583 -6.717992
v 0.363198 -0.398327 -6.718117
v 0.364005 -0.397096 -6.718240
v 0.364844 -0.395889 -6.718361
v 0.365715 -0.394710 -6.718478
v 0.366617 -0.393557 -6.718592
v 0.367550 -0.392434 -6.718703
v 0.368512 -0.391339 -6.718811
v 0.369503 -0.390275 -6.718915
v 0.370521 -0.389243 -6.719016
v 0.371567 -0.388242 -6.719114
v 0.372638 -0.387275 -6.719208
v 0.373734 -0.386340 -6.719299
v 0.374855 -0.385440 -6.719386
v 0.375999 -0.384573 -6.719470
v 0.377165 -0.383741 -6.719550
v 0.378352 -0.382945 -6.719627
v 0.379559 -0.382184 -6.719700
v 0.380786 -0.381459 -6.719770
v 0.382030 -0.380771 -6.719836
v 0.383293 -0.380119 -6.719898
v 0.384571 -0.379506 -6.719956
v 0.385866 -0.378930 -6.720011
v 0.387174 -0.378393 -6.720062
v 0.388496 -0.377895 -6.720109
v 0.389831 -0.377436 -6.720153
v 0.391176 -0.377016 -6.720193
v 0.623718 -0.256801 -6.729748
v 0.392532 -0.376635 -6.720229
v 0.393896 -0.376293 -6.720261
v -1.575000 -0.366592 -6.721166
v -1.575000 -0.195713 -6.733209
v -1.575000 -0.354405 -6.722269
v -1.575000 -0.207934 -6.732592
v -1.575000 -0.342215 -6.723334
v -1.575000 -0.330021 -6.724362
v -1.575000 -0.220153 -6.731937
v -1.575000 -0.317825 -6.725353
v -1.575000 -0.232371 -6.731245
v -1.575000 -0.305625 -6.726307
v -1.575000 -0.244586 -6.730515
v -1.575000 -0.293422 -6.727223
v -1.575000 -0.256799 -6.729748
v -1.575000 -0.281217 -6.728102
v -1.575000 -0.269009 -6.728944
v -0.883976 -0.064242 -6.737484
v -0.381411 -0.128467 -6.735937
v 0.246794 -0.064242 -6.737484
v -0.192949 -0.192659 -6.733358
v -0.130129 -0.128467 -6.735937
v 0.058333 -0.128467 -6.735937
v 0.372436 -0.064242 -6.737484
v 0.183974 -0.256801 -6.729748
v 0.183974 -0.128467 -6.735937
v 0.309615 -0.192659 -6.733358
v 0.623718 -0.064242 -6.737484
v 0.372436 -0.192659 -6.733358
v 0.498077 -0.128467 -6.735937
v 0.372436 -0.128467 -6.735937
v 0.749359 -0.064242 -6.737484
v 0.435256 -0.256801 -6.729748
v 0.498077 -0.320877 -6.725109
v 0.498077 -0.256801 -6.729748
v 0.686538 -0.064242 -6.737484
v 0.560897 -0.256801 -6.729748
v 0.623718 -0.320877 -6.725109
v 0.812179 -0.064242 -6.737484
v 0.686538 -0.128467 -6.735937
v 0.623718 -0.128467 -6.735937
v 0.749359 -0.320877 -6.725109
v 0.812179 -0.128467 -6.735937
v 0.749359 -0.256801 -6.729748
v 0.749359 -0.128467 -6.735937
v 0.812179 -0.256801 -6.729748
f 1 2 3
f 4 5 6
f 7 8 9
f 1 3 10
f 6 5 11
f 12 7 9
f 1 10 13
f 11 14 6
f 15 12 9
f 13 10 16
f 6 14 17
f 18 15 9
f 16 10 19
f 17 20 6
f 21 18 9
f 16 19 22
f 6 20 23
f 24 21 9
f 22 19 25
f 23 26 6
f 27 24 9
f 25 19 28
f 6 26 29
f 30 27 9
f 28 19 31
f 29 32 6
f 33 30 9
f 28 31 34
f 6 32 35
f 33 9 36
f 34 31 37
f 35 38 6
f 33 36 39
f 37 31 40
f 6 38 41
f 33 39 42
f 37 40 43
f 41 44 6
f 33 42 45
f 43 40 46
f 6 44 47
f 33 45 48
f 46 40 49
f 47 50 6
f 33 48 51
f 46 49 52
f 6 50 53
f 33 51 54
f 52 49 55
f 53 56 6
f 33 54 57
f 55 49 58
f 6 56 59
f 33 57 60
f 55 58 61
f 59 62 6
f 33 60 63
f 61 58 64
f 6 62 65
f 33 63 66
f 64 58 67
f 65 68 6
f 66 63 69
f 67 58 70
f 6 68 71
f 66 69 72
f 67 70 73
f 71 74 6
f 66 72 75
f 73 70 76
f 6 74 77
f 66 75 78
f 76 70 79
f 77 80 6
f 66 78 81
f 76 79 82
f 6 80 83
f 66 81 84
f 82 79 85
f 83 86 6
f 66 84 87
f 85 79 88
f 6 86 89
f 66 87 90
f 85 88 91
f 89 92 6
f 66 90 93
f 91 88 94
f 6 92 95
f 66 93 96
f 94 88 97
f 95 98 6
f 66 96 99
f 94 97 100
f 6 98 101
f 99 96 102
f 100 97 103
f 101 104 6
f 103 97 105
f 99 102 106
f 105 97 107
f 99 106 108
f 105 107 109
f 99 108 110
f 109 107 111
f 99 110 112
f 111 107 113
f 99 112 114
f 111 113 115
f 99 114 116
f 115 113 117
f 99 116 118
f 117 113 119
f 99 118 120
f 117 119 121
f 120 118 122
f 121 119 123
f 120 122 124
f 123 119 125
f 120 124 126
f 123 125 127
f 120 126 128
f 127 125 129
f 120 128 130
f 129 125 131
f 120 130 132
f 131 125 133
f 120 132 134
f 131 133 135
f 134 132 136
f 135 133 137
f 134 136 138
f 137 133 139
f 134 138 140
f 137 139 141
f 134 140 142
f 141 139 143
f 134 142 144
f 143 139 145
f 134 144 146
f 143 145 147
f 134 146 148
f 147 145 149
f 148 146 150
f 149 145 151
f 148 150 152
f 149 151 153
f 148 152 154
f 153 151 155
f 148 154 156
f 155 151 157
f 148 156 158
f 157 151 159
f 148 158 160
f 157 159 161
f 160 158 162
f 161 159 163
f 160 162 164
f 163 159 165
f 160 164 166
f 163 165 167
f 160 166 168
f 167 165 169
f 160 168 170
f 169 165 171
f 160 170 172
f 169 171 173
f 172 170 174
f 173 171 175
f 172 174 176
f 175 171 177
f 172 176 178
f 175 177 179
f 172 178 6
f 179 177 180
f 172 6 181
f 180 177 182
f 181 6 183
f 182 177 184
f 183 6 185
f 182 184 186
f 185 6 187
f 186 184 188
f 187 6 189
f 188 184 190
f 189 6 191
f 188 190 192
f 191 6 193
f 192 190 194
f 193 6 195
f 194 190 196
f 195 6 197
f 194 196 198
f 197 6 199
f 198 196 200
f 199 6 201
f 200 196 202
f 201 6 203
f 200 202 204
f 203 6 205
f 204 202 206
f 205 6 104
f 206 202 207
f 4 6 208
f 206 207 209
f 210 211 4
f 209 207 212
f 4 211 213
f 212 207 214
f 213 215 4
f 214 207 216
f 4 215 217
f 214 216 218
f 217 219 4
f 218 216 220
f 4 219 221
f 218 220 222
f 221 223 4
f 218 222 224
f 4 223 225
f 218 224 226
f 227 228 229
f 230 228 227
f 231 228 230
f 232 228 231
f 233 228 232
f 234 228 233
f 235 228 234
f 236 228 235
f 237 228 236
f 238 228 237
f 239 228 238
f 240 228 239
f 241 228 240
f 242 228 241
f 243 228 242
f 243 244 228
f 243 245 244
f 243 246 245
f 243 247 246
f 243 248 247
f 243 249 248
f 243 250 249
f 243 251 250
f 243 252 251
f 243 253 252
f 243 254 253
f 243 255 254
f 243 256 255
f 243 257 256
f 243 258 257
f 243 259 258
f 243 260 259
f 243 261 260
f 243 262 261
f 243 263 262
f 243 264 263
f 243 265 264
f 243 266 265
f 243 267 266
f 243 268 267
f 243 269 268
f 243 270 269
f 243 271 270
f 243 272 271
f 243 273 272
f 243 274 273
f 243 275 274
f 243 276 275
f 243 277 276
f 243 278 277
f 243 279 278
f 243 280 279
f 243 281 280
f 243 282 281
f 243 283 282
f 243 284 283
f 243 285 284
f 243 286 285
f 243 287 286
f 95 287 288
f 95 289 287
f 95 290 289
f 218 226 291
f 229 228 292
f 218 291 293
f 292 228 294
f 218 293 295
f 294 228 218
f 218 295 296
f 294 218 297
f 218 296 298
f 297 218 299
f 218 298 300
f 299 218 301
f 218 300 302
f 301 218 303
f 304 218 302
f 303 218 305
f 305 218 304
f 223 243 306
f 243 4 306
f 223 306 307
f 306 4 308
f 287 243 309
f 243 95 309
f 223 307 310
f 310 307 308
f 223 310 311
f 311 310 312
f 287 309 313
f 309 95 313
f 223 311 314
f 311 4 314
f 306 308 307
f 308 4 312
f 223 314 315
f 314 4 316
f 223 315 317
f 317 315 318
f 318 319 316
f 315 314 319
f 311 312 4
f 308 312 310
f 223 317 225
f 317 4 320
f 287 313 321
f 313 95 321
f 6 210 322
f 210 4 322
f 287 321 323
f 321 95 323
f 317 318 324
f 319 318 315
f 287 323 325
f 323 95 325
f 6 322 326
f 322 4 327
f 287 325 288
f 325 95 288
f 4 225 328
f 225 317 329
f 314 316 319
f 316 4 324
f 225 329 328
f 328 329 320
f 317 324 4
f 316 324 318
f 6 326 330
f 326 4 331
f 330 332 331
f 330 326 332
f 326 333 327
f 326 322 333
f 317 320 329
f 328 320 4
f 6 330 208
f 330 4 334
f 4 208 334
f 208 330 334
f 326 331 332
f 330 331 4
f 322 327 333
f 326 327 4
