v 0.960000 1.132519 -5.664516
v 0.960000 1.081111 -5.664516
v 0.960000 1.086802 -5.640063
v 0.960000 1.091941 -5.615487
v 0.960000 1.096523 -5.590802
v 0.960000 1.100548 -5.566020
v 0.960000 1.104013 -5.541153
v 0.960000 1.106916 -5.516215
v 0.960000 1.109256 -5.491217
v 0.960000 1.111031 -5.466173
v 0.960000 1.112241 -5.441095
v 0.960000 1.112885 -5.415997
v 0.960000 1.112963 -5.390890
v 0.960000 1.112474 -5.365788
v 0.960000 1.111419 -5.340703
v 0.960000 1.109799 -5.315649
v 0.960000 1.107614 -5.290637
v 0.960000 1.104865 -5.265681
v 0.960000 1.101555 -5.240794
v 0.960000 1.097683 -5.215987
v 0.960000 1.093253 -5.191274
v 0.960000 1.088267 -5.166667
v 0.960000 1.082727 -5.142179
v 0.960000 1.076636 -5.117822
v 0.960000 1.069997 -5.093609
v 0.960000 1.062814 -5.069552
v 0.960000 1.055090 -5.045663
v 0.960000 1.046829 -5.021954
v 0.960000 1.038035 -4.998437
v 0.960000 1.028713 -4.975125
v 0.960000 1.018868 -4.952029
v 0.960000 1.008504 -4.929161
v 0.960000 0.997627 -4.906533
v 0.960000 0.986242 -4.884155
v 0.960000 0.974356 -4.862041
v 0.960000 0.961973 -4.840200
v 0.960000 0.949101 -4.818643
v 0.960000 0.935747 -4.797383
v 0.960000 0.921916 -4.776429
v 0.960000 0.907616 -4.755793
v 0.960000 0.892854 -4.735484
v 0.960000 0.954457 -4.735484
v 0.960000 0.968508 -4.756136
v 0.960000 0.982112 -4.777084
v 0.960000 0.995264 -4.798320
v 0.960000 1.007956 -4.819833
v 0.960000 1.020183 -4.841614
v 0.960000 1.031940 -4.863652
v 0.960000 1.043221 -4.885938
v 0.960000 1.054020 -4.908461
v 0.960000 1.064334 -4.931211
v 0.960000 1.074156 -4.954177
v 0.960000 1.083483 -4.977349
v 0.960000 1.092310 -5.000715
v 0.960000 1.100633 -5.024266
v 0.960000 1.108449 -5.047990
v 0.960000 1.115753 -5.071877
v 0.960000 1.122542 -5.095915
v 0.960000 1.128814 -5.120093
v 0.960000 1.134565 -5.144400
v 0.960000 1.139793 -5.168825
v 0.960000 1.144495 -5.193357
v 0.960000 1.148668 -5.217984
v 0.960000 1.152313 -5.242695
v 0.960000 1.155425 -5.267479
v 0.960000 1.158005 -5.292324
v 0.960000 1.160050 -5.317218
v 0.960000 1.161560 -5.342151
v 0.960000 1.162535 -5.367110
v 0.960000 1.162973 -5.392085
v 0.960000 1.162875 -5.417063
v 0.960000 1.162240 -5.442033
v 0.960000 1.161069 -5.466984
v 0.960000 1.159363 -5.491904
v 0.960000 1.157122 -5.516781
v 0.960000 1.154347 -5.541605
v 0.960000 1.151040 -5.566363
v 0.960000 1.147201 -5.591045
v 0.960000 1.142834 -5.615639
v 0.960000 1.137939 -5.640133
f 2 1 80
f 2 80 3
f 3 80 79
f 3 79 4
f 4 79 78
f 4 78 5
f 5 78 77
f 5 77 6
f 6 77 76
f 6 76 7
f 7 76 75
f 7 75 8
f 8 75 74
f 8 74 9
f 9 74 73
f 9 73 10
f 10 73 72
f 10 72 11
f 11 72 71
f 11 71 12
f 12 71 70
f 12 70 13
f 13 70 69
f 13 69 14
f 14 69 68
f 14 68 15
f 15 68 67
f 15 67 16
f 16 67 66
f 16 66 17
f 17 66 65
f 17 65 18
f 18 65 64
f 18 64 19
f 19 64 63
f 19 63 20
f 20 63 62
f 20 62 21
f 21 62 61
f 21 61 22
f 22 61 60
f 22 60 23
f 23 60 59
f 23 59 24
f 24 59 58
f 24 58 25
f 25 58 57
f 25 57 26
f 26 57 56
f 26 56 27
f 27 56 55
f 27 55 28
f 28 55 54
f 28 54 29
f 29 54 53
f 29 53 30
f 30 53 52
f 30 52 31
f 31 52 51
f 31 51 32
f 32 51 50
f 32 50 33
f 33 50 49
f 33 49 34
f 34 49 48
f 34 48 35
f 35 48 47
f 35 47 36
f 36 47 46
f 36 46 37
f 37 46 45
f 37 45 38
f 38 45 44
f 38 44 39
f 39 44 43
f 39 43 40
f 40 43 42
f 40 42 41
