v -0.642692 0.000000 0.356825
v -0.630365 0.000000 0.378175
v -0.630147 0.000000 0.378536
v -0.629913 0.000000 0.378888
v -0.629664 0.000000 0.379229
v -0.629402 0.000000 0.379560
v -0.629125 0.000000 0.379879
v -0.628836 0.000000 0.380186
v -0.628533 0.000000 0.380481
v -0.628219 0.000000 0.380763
v -0.627893 0.000000 0.381031
v -0.627556 0.000000 0.381285
v -0.627208 0.000000 0.381525
v -0.626851 0.000000 0.381750
v -0.626484 0.000000 0.381959
v -0.626109 0.000000 0.382153
v -0.625726 0.000000 0.382331
v -0.625336 0.000000 0.382493
v -0.624939 0.000000 0.382638
v -0.624537 0.000000 0.382766
v -0.624130 0.000000 0.382877
v -0.623718 0.000000 0.382971
v -0.623303 0.000000 0.383047
v -0.622885 0.000000 0.383105
v -0.622464 0.000000 0.383146
v -0.622043 0.000000 0.383170
v -0.621621 0.000000 0.383175
v -0.621199 0.000000 0.383162
v -0.620777 0.000000 0.383132
v -0.620358 0.000000 0.383084
v -0.619941 0.000000 0.383018
v -0.619527 0.000000 0.382935
v -0.619117 0.000000 0.382835
v -0.560467 0.000000 0.367119
v -0.598168 0.010000 0.301819
v -0.597068 0.010000 0.303990
v -0.595960 0.010000 0.306156
v -0.594844 0.010000 0.308319
v -0.593720 0.010000 0.310478
v -0.592588 0.010000 0.312632
v -0.591449 0.010000 0.314783
v -0.590302 0.010000 0.316929
v -0.589147 0.010000 0.319071
v -0.587984 0.010000 0.321209
v -0.586813 0.010000 0.323342
v -0.585635 0.010000 0.325472
v -0.584449 0.010000 0.327597
v -0.583255 0.010000 0.329717
v -0.582054 0.010000 0.331834
v -0.580844 0.010000 0.333946
v -0.579628 0.010000 0.336053
v -0.578403 0.010000 0.338156
v -0.577171 0.010000 0.340255
v -0.575931 0.010000 0.342349
v -0.574684 0.010000 0.344439
v -0.573429 0.010000 0.346524
v -0.572167 0.010000 0.348605
v -0.570897 0.010000 0.350681
v -0.569619 0.010000 0.352752
v -0.568334 0.010000 0.354819
v -0.567042 0.010000 0.356881
v -0.565742 0.010000 0.358938
v -0.564434 0.010000 0.360990
v -0.563119 0.010000 0.363038
v -0.561797 0.010000 0.365081
v -0.560467 0.010000 0.367119
v -0.598168 0.000000 0.301819
v -0.641103 0.000000 0.344754
v -0.641395 0.000000 0.345058
v -0.641674 0.000000 0.345375
v -0.641940 0.000000 0.345704
v -0.642191 0.000000 0.346043
v -0.642428 0.000000 0.346393
v -0.642650 0.000000 0.346752
v -0.642856 0.000000 0.347120
v -0.643047 0.000000 0.347497
v -0.643221 0.000000 0.347881
v -0.643380 0.000000 0.348273
v -0.643521 0.000000 0.348670
v -0.643646 0.000000 0.349074
v -0.643754 0.000000 0.349482
v -0.643844 0.000000 0.349895
v -0.643916 0.000000 0.350310
v -0.643972 0.000000 0.350729
v -0.644009 0.000000 0.351150
v -0.644029 0.000000 0.351571
v -0.644030 0.000000 0.351994
v -0.644014 0.000000 0.352416
v -0.643980 0.000000 0.352836
v -0.643929 0.000000 0.353255
v -0.643860 0.000000 0.353672
v -0.643773 0.000000 0.354085
v -0.643669 0.000000 0.354494
v -0.643548 0.000000 0.354899
v -0.643409 0.000000 0.355298
v -0.643254 0.000000 0.355691
v -0.643083 0.000000 0.356076
v -0.642895 0.000000 0.356455
f 1 2 3
f 1 3 4
f 1 4 5
f 1 5 6
f 1 6 7
f 1 7 8
f 1 8 9
f 1 9 10
f 1 10 11
f 1 11 12
f 1 12 13
f 1 13 14
f 1 14 15
f 1 15 16
f 1 16 17
f 1 17 18
f 1 18 19
f 1 19 20
f 1 20 21
f 1 21 22
f 1 22 23
f 1 23 24
f 1 24 25
f 1 25 26
f 1 26 27
f 1 27 28
f 1 28 29
f 1 29 30
f 1 30 31
f 1 31 32
f 1 32 33
f 1 33 34
f 1 34 35
f 1 35 36
f 1 36 37
f 1 37 38
f 1 38 39
f 1 39 40
f 1 40 41
f 1 41 42
f 1 42 43
f 1 43 44
f 1 44 45
f 1 45 46
f 1 46 47
f 1 47 48
f 1 48 49
f 1 49 50
f 1 50 51
f 1 51 52
f 1 52 53
f 1 53 54
f 1 54 55
f 1 55 56
f 1 56 57
f 1 57 58
f 1 58 59
f 1 59 60
f 1 60 61
f 1 61 62
f 1 62 63
f 1 63 64
f 1 64 65
f 1 65 66
f 1 66 67
f 1 67 68
f 1 68 69
f 1 69 70
f 1 70 71
f 1 71 72
f 1 72 73
f 1 73 74
f 1 74 75
f 1 75 76
f 1 76 77
f 1 77 78
f 1 78 79
f 1 79 80
f 1 80 81
f 1 81 82
f 1 82 83
f 1 83 84
f 1 84 85
f 1 85 86
f 1 86 87
f 1 87 88
f 1 88 89
f 1 89 90
f 1 90 91
f 1 91 92
f 1 92 93
f 1 93 94
f 1 94 95
f 1 95 96
f 1 96 97
f 1 97 98
