v -0.470607 0.147295 -3.224393
v -0.470872 0.147295 -3.224121
v -0.471130 0.147295 -3.223843
v -0.471381 0.147295 -3.223557
v -0.471625 0.147295 -3.223266
v -0.471862 0.147295 -3.222968
v -0.472090 0.147295 -3.222665
v -0.472311 0.147295 -3.222356
v -0.472525 0.147295 -3.222041
v -0.472730 0.147295 -3.221721
v -0.472927 0.147295 -3.221396
v -0.473115 0.147295 -3.221066
v -0.473295 0.147295 -3.220732
v -0.473467 0.147295 -3.220393
v -0.473630 0.147295 -3.220049
v -0.473784 0.147295 -3.219702
v -0.473930 0.147295 -3.219351
v -0.474066 0.147295 -3.218996
v -0.474194 0.147295 -3.218638
v -0.474312 0.147295 -3.218277
v -0.474421 0.147295 -3.217913
v -0.474521 0.147295 -3.217547
v -0.474612 0.147295 -3.217178
v -0.474693 0.147295 -3.216806
v -0.474765 0.147295 -3.216433
v -0.474827 0.147295 -3.216058
v -0.474880 0.147295 -3.215682
v -0.474923 0.147295 -3.215304
v -0.474957 0.147295 -3.214926
v -0.474981 0.147295 -3.214547
v -0.474995 0.147295 -3.214167
v -0.475000 0.147295 -3.213787
v -0.470607 0.147295 -3.224393
v -0.468192 0.147295 -3.224393
v -0.460973 0.147295 -3.224393
v -0.449024 0.147295 -3.224393
v -0.432468 0.147295 -3.224393
v -0.411473 0.147295 -3.224393
v -0.386257 0.147295 -3.224393
v -0.357077 0.147295 -3.224393
v -0.324232 0.147295 -3.224393
v -0.288061 0.147295 -3.224393
v -0.248934 0.147295 -3.224393
v -0.207252 0.147295 -3.224393
v -0.163444 0.147295 -3.224393
v -0.117959 0.147295 -3.224393
v -0.071263 0.147295 -3.224393
v -0.023836 0.147295 -3.224393
v 0.023836 0.147295 -3.224393
v 0.071263 0.147295 -3.224393
v 0.117959 0.147295 -3.224393
v 0.163444 0.147295 -3.224393
v 0.207252 0.147295 -3.224393
v 0.248934 0.147295 -3.224393
v 0.288061 0.147295 -3.224393
v 0.324232 0.147295 -3.224393
v 0.357077 0.147295 -3.224393
v 0.386257 0.147295 -3.224393
v 0.411473 0.147295 -3.224393
v 0.432468 0.147295 -3.224393
v 0.449024 0.147295 -3.224393
v 0.460973 0.147295 -3.224393
v 0.468192 0.147295 -3.224393
v 0.470607 0.147295 -3.224393
v 0.475000 0.147295 -3.213787
v 0.474995 0.147295 -3.214167
v 0.474981 0.147295 -3.214547
v 0.474957 0.147295 -3.214926
v 0.474923 0.147295 -3.215304
v 0.474880 0.147295 -3.215682
v 0.474827 0.147295 -3.216058
v 0.474765 0.147295 -3.216433
v 0.474693 0.147295 -3.216806
v 0.474612 0.147295 -3.217178
v 0.474521 0.147295 -3.217547
v 0.474421 0.147295 -3.217913
v 0.474312 0.147295 -3.218277
v 0.474194 0.147295 -3.218638
v 0.474066 0.147295 -3.218996
v 0.473930 0.147295 -3.219351
v 0.473784 0.147295 -3.219702
v 0.473630 0.147295 -3.220049
v 0.473467 0.147295 -3.220393
v 0.473295 0.147295 -3.220732
v 0.473115 0.147295 -3.221066
v 0.472927 0.147295 -3.221396
v 0.472730 0.147295 -3.221721
v 0.472525 0.147295 -3.222041
v 0.472311 0.147295 -3.222356
v 0.472090 0.147295 -3.222665
v 0.471862 0.147295 -3.222968
v 0.471625 0.147295 -3.223266
v 0.471381 0.147295 -3.223557
v 0.471130 0.147295 -3.223843
v 0.470872 0.147295 -3.224121
v 0.470607 0.147295 -3.224393
v 0.468192 0.147295 -3.224393
v 0.460973 0.147295 -3.224393
v 0.449024 0.147295 -3.224393
v 0.432468 0.147295 -3.224393
v 0.411473 0.147295 -3.224393
v 0.386257 0.147295 -3.224393
v 0.357077 0.147295 -3.224393
v 0.324232 0.147295 -3.224393
v 0.288061 0.147295 -3.224393
v 0.248934 0.147295 -3.224393
v 0.207252 0.147295 -3.224393
v 0.163444 0.147295 -3.224393
v 0.117959 0.147295 -3.224393
v 0.071263 0.147295 -3.224393
v 0.023836 0.147295 -3.224393
v -0.023836 0.147295 -3.224393
v -0.071263 0.147295 -3.224393
v -0.117959 0.147295 -3.224393
v -0.163444 0.147295 -3.224393
v -0.207252 0.147295 -3.224393
v -0.248934 0.147295 -3.224393
v -0.288061 0.147295 -3.224393
v -0.324232 0.147295 -3.224393
v -0.357077 0.147295 -3.224393
v -0.386257 0.147295 -3.224393
v -0.411473 0.147295 -3.224393
v -0.432468 0.147295 -3.224393
v -0.449024 0.147295 -3.224393
v -0.460973 0.147295 -3.224393
v -0.468192 0.147295 -3.224393
f 2 4 3
f 4 6 5
f 6 8 7
f 8 10 9
f 10 12 11
f 12 14 13
f 14 16 15
f 16 18 17
f 18 20 19
f 20 22 21
f 22 24 23
f 24 26 25
f 26 28 27
f 28 30 29
f 30 32 31
f 64 66 65
f 66 68 67
f 68 70 69
f 70 72 71
f 72 74 73
f 74 76 75
f 76 78 77
f 78 80 79
f 80 82 81
f 82 84 83
f 84 86 85
f 86 88 87
f 88 90 89
f 90 92 91
f 92 94 93
f 2 6 4
f 6 10 8
f 10 14 12
f 14 18 16
f 18 22 20
f 22 26 24
f 26 30 28
f 30 33 32
f 64 68 66
f 68 72 70
f 72 76 74
f 76 80 78
f 80 84 82
f 84 88 86
f 88 92 90
f 92 95 94
f 2 10 6
f 10 18 14
f 18 26 22
f 26 33 30
f 64 72 68
f 72 80 76
f 80 88 84
f 88 95 92
f 2 18 10
f 18 33 26
f 64 80 72
f 80 95 88
f 2 33 18
f 64 95 80
