v 0.159650 -0.468548 -1.051004
v 0.158290 -0.469009 -1.051148
v 0.156965 -0.469454 -1.051493
v 0.155701 -0.469875 -1.052032
v 0.154524 -0.470263 -1.052754
v 0.153456 -0.470613 -1.053643
v 0.152521 -0.470916 -1.054681
v 0.151737 -0.471170 -1.055847
v 0.151119 -0.471368 -1.057117
v 0.150681 -0.471508 -1.058465
v 0.150430 -0.471589 -1.059863
v 0.187618 -0.601415 -1.051004
v 0.186253 -0.601839 -1.051148
v 0.184922 -0.602249 -1.051492
v 0.183652 -0.602637 -1.052030
v 0.182469 -0.602997 -1.052751
v 0.181395 -0.603321 -1.053639
v 0.180455 -0.603603 -1.054677
v 0.179666 -0.603838 -1.055843
v 0.179044 -0.604022 -1.057113
v 0.178603 -0.604153 -1.058462
v 0.178351 -0.604228 -1.059862
f 1 13 2
f 1 12 13
f 2 14 3
f 2 13 14
f 3 15 4
f 3 14 15
f 4 16 5
f 4 15 16
f 5 17 6
f 5 16 17
f 6 18 7
f 6 17 18
f 7 19 8
f 7 18 19
f 8 20 9
f 8 19 20
f 9 21 10
f 9 20 21
f 10 22 11
f 10 21 22
