v 0.152500 0.000000 -0.820000
v 0.151718 -0.015428 -0.820000
v 0.149378 -0.030698 -0.820000
v 0.145506 -0.045653 -0.820000
v 0.140141 -0.060139 -0.820000
v 0.133338 -0.074009 -0.820000
v 0.125166 -0.087118 -0.820000
v 0.115711 -0.099334 -0.820000
v 0.105067 -0.110531 -0.820000
v 0.093346 -0.120593 -0.820000
v 0.080667 -0.129418 -0.820000
v 0.067160 -0.136915 -0.820000
v 0.052964 -0.143007 -0.820000
v 0.038225 -0.147632 -0.820000
v 0.023093 -0.150741 -0.820000
v 0.007724 -0.152304 -0.820000
v -0.007724 -0.152304 -0.820000
v -0.023093 -0.150741 -0.820000
v -0.038225 -0.147632 -0.820000
v -0.052964 -0.143007 -0.820000
v -0.067160 -0.136915 -0.820000
v -0.080667 -0.129418 -0.820000
v -0.093346 -0.120593 -0.820000
v -0.105067 -0.110531 -0.820000
v -0.115711 -0.099334 -0.820000
v -0.125166 -0.087118 -0.820000
v -0.133338 -0.074009 -0.820000
v -0.140141 -0.060139 -0.820000
v -0.145506 -0.045653 -0.820000
v -0.149378 -0.030698 -0.820000
v -0.151718 -0.015428 -0.820000
v -0.152500 0.000000 -0.820000
v 0.152500 0.000000 -1.018750
v 0.151718 -0.015428 -1.018750
v 0.149378 -0.030698 -1.018750
v 0.145506 -0.045653 -1.018750
v 0.140141 -0.060139 -1.018750
v 0.133338 -0.074009 -1.018750
v 0.125166 -0.087118 -1.018750
v 0.115711 -0.099334 -1.018750
v 0.105067 -0.110531 -1.018750
v 0.093346 -0.120593 -1.018750
v 0.080667 -0.129418 -1.018750
v 0.067160 -0.136915 -1.018750
v 0.052964 -0.143007 -1.018750
v 0.038225 -0.147632 -1.018750
v 0.023093 -0.150741 -1.018750
v 0.007724 -0.152304 -1.018750
v -0.007724 -0.152304 -1.018750
v -0.023093 -0.150741 -1.018750
v -0.038225 -0.147632 -1.018750
v -0.052964 -0.143007 -1.018750
v -0.067160 -0.136915 -1.018750
v -0.080667 -0.129418 -1.018750
v -0.093346 -0.120593 -1.018750
v -0.105067 -0.110531 -1.018750
v -0.115711 -0.099334 -1.018750
v -0.125166 -0.087118 -1.018750
v -0.133338 -0.074009 -1.018750
v -0.140141 -0.060139 -1.018750
v -0.145506 -0.045653 -1.018750
v -0.149378 -0.030698 -1.018750
v -0.151718 -0.015428 -1.018750
v -0.152500 -0.000000 -1.018750
v 0.152500 0.000000 -1.217500
v 0.151718 -0.015428 -1.217500
v 0.149378 -0.030698 -1.217500
v 0.145506 -0.045653 -1.217500
v 0.140141 -0.060139 -1.217500
v 0.133338 -0.074009 -1.217500
v 0.125166 -0.087118 -1.217500
v 0.115711 -0.099334 -1.217500
v 0.105067 -0.110531 -1.217500
v 0.093346 -0.120593 -1.217500
v 0.080667 -0.129418 -1.217500
v 0.067160 -0.136915 -1.217500
v 0.052964 -0.143007 -1.217500
v 0.038225 -0.147632 -1.217500
v 0.023093 -0.150741 -1.217500
v 0.007724 -0.152304 -1.217500
v -0.007724 -0.152304 -1.217500
v -0.023093 -0.150741 -1.217500
v -0.038225 -0.147632 -1.217500
v -0.052964 -0.143007 -1.217500
v -0.067160 -0.136915 -1.217500
v -0.080667 -0.129418 -1.217500
v -0.093346 -0.120593 -1.217500
v -0.105067 -0.110531 -1.217500
v -0.115711 -0.099334 -1.217500
v -0.125166 -0.087118 -1.217500
v -0.133338 -0.074009 -1.217500
v -0.140141 -0.060139 -1.217500
v -0.145506 -0.045653 -1.217500
v -0.149378 -0.030698 -1.217500
v -0.151718 -0.015428 -1.217500
v -0.152500 -0.000000 -1.217500
f 1 2 34
f 1 34 33
f 2 3 35
f 2 35 34
f 3 4 36
f 3 36 35
f 4 5 37
f 4 37 36
f 5 6 38
f 5 38 37
f 6 7 39
f 6 39 38
f 7 8 40
f 7 40 39
f 8 9 41
f 8 41 40
f 9 10 42
f 9 42 41
f 10 11 43
f 10 43 42
f 11 12 44
f 11 44 43
f 12 13 45
f 12 45 44
f 13 14 46
f 13 46 45
f 14 15 47
f 14 47 46
f 15 16 48
f 15 48 47
f 16 17 49
f 16 49 48
f 17 18 50
f 17 50 49
f 18 19 51
f 18 51 50
f 19 20 52
f 19 52 51
f 20 21 53
f 20 53 52
f 21 22 54
f 21 54 53
f 22 23 55
f 22 55 54
f 23 24 56
f 23 56 55
f 24 25 57
f 24 57 56
f 25 26 58
f 25 58 57
f 26 27 59
f 26 59 58
f 27 28 60
f 27 60 59
f 28 29 61
f 28 61 60
f 29 30 62
f 29 62 61
f 30 31 63
f 30 63 62
f 31 32 64
f 31 64 63
f 33 34 66
f 33 66 65
f 34 35 67
f 34 67 66
f 35 36 68
f 35 68 67
f 36 37 69
f 36 69 68
f 37 38 70
f 37 70 69
f 38 39 71
f 38 71 70
f 39 40 72
f 39 72 71
f 40 41 73
f 40 73 72
f 41 42 74
f 41 74 73
f 42 43 75
f 42 75 74
f 43 44 76
f 43 76 75
f 44 45 77
f 44 77 76
f 45 46 78
f 45 78 77
f 46 47 79
f 46 79 78
f 47 48 80
f 47 80 79
f 48 49 81
f 48 81 80
f 49 50 82
f 49 82 81
f 50 51 83
f 50 83 82
f 51 52 84
f 51 84 83
f 52 53 85
f 52 85 84
f 53 54 86
f 53 86 85
f 54 55 87
f 54 87 86
f 55 56 88
f 55 88 87
f 56 57 89
f 56 89 88
f 57 58 90
f 57 90 89
f 58 59 91
f 58 91 90
f 59 60 92
f 59 92 91
f 60 61 93
f 60 93 92
f 61 62 94
f 61 94 93
f 62 63 95
f 62 95 94
f 63 64 96
f 63 96 95
