v 0.603256 0.016837 -0.306906
v 0.603256 0.220000 -0.306906
v 0.641103 0.220000 -0.344754
v 0.642692 0.220000 -0.356825
v 0.642692 0.000000 -0.356825
v 0.641103 0.000000 -0.344754
v 0.598168 0.000000 -0.301819
v 0.598168 0.010000 -0.301819
v 0.603256 0.016837 -0.306906
v 0.603089 0.016611 -0.306736
v 0.602927 0.016388 -0.306562
v 0.602770 0.016168 -0.306385
v 0.602617 0.015951 -0.306205
v 0.602470 0.015736 -0.306022
v 0.602327 0.015525 -0.305837
v 0.602190 0.015317 -0.305649
v 0.602057 0.015112 -0.305458
v 0.601929 0.014911 -0.305265
v 0.601805 0.014712 -0.305069
v 0.601687 0.014517 -0.304871
v 0.601573 0.014325 -0.304671
v 0.601465 0.014137 -0.304468
v 0.601361 0.013952 -0.304264
v 0.601262 0.013770 -0.304057
v 0.601167 0.013592 -0.303849
v 0.601078 0.013418 -0.303639
v 0.600994 0.013247 -0.303427
v 0.600914 0.013080 -0.303213
v 0.600840 0.012916 -0.302998
v 0.600770 0.012757 -0.302782
v 0.600706 0.012601 -0.302564
v 0.600647 0.012450 -0.302345
v 0.600592 0.012302 -0.302125
v 0.600543 0.012159 -0.301904
v 0.600498 0.012020 -0.301682
v 0.600459 0.011885 -0.301459
v 0.600425 0.011754 -0.301235
v 0.600396 0.011628 -0.301011
v 0.600373 0.011506 -0.300786
v 0.600354 0.011388 -0.300561
v 0.600340 0.011275 -0.300336
v 0.600332 0.011166 -0.300110
v 0.600328 0.011063 -0.299885
v 0.600330 0.010963 -0.299660
v 0.600336 0.010869 -0.299436
v 0.600347 0.010779 -0.299212
v 0.600363 0.010694 -0.298989
v 0.600385 0.010614 -0.298767
v 0.600411 0.010539 -0.298545
v 0.600441 0.010469 -0.298326
v 0.600477 0.010403 -0.298107
v 0.600518 0.010343 -0.297890
v 0.600563 0.010288 -0.297674
v 0.600613 0.010237 -0.297460
v 0.600667 0.010192 -0.297248
v 0.600726 0.010151 -0.297038
v 0.600789 0.010116 -0.296829
v 0.600857 0.010085 -0.296622
v 0.600929 0.010059 -0.296417
v 0.601005 0.010038 -0.296215
v 0.601086 0.010021 -0.296014
v 0.601170 0.010009 -0.295816
v 0.601259 0.010002 -0.295620
v 0.601351 0.010000 -0.295426
f 3 4 5
f 2 3 5
f 2 5 6
f 6 7 8
f 10 11 12
f 10 12 13
f 10 13 14
f 10 14 15
f 10 15 16
f 10 16 17
f 10 17 18
f 10 18 19
f 10 19 20
f 10 20 21
f 10 21 22
f 10 22 23
f 10 23 24
f 10 24 25
f 10 25 26
f 10 26 27
f 10 27 28
f 10 28 29
f 10 29 30
f 10 30 31
f 10 31 32
f 10 32 33
f 10 33 34
f 10 34 35
f 10 35 36
f 10 36 37
f 10 37 38
f 10 38 39
f 10 39 40
f 10 40 41
f 10 41 42
f 10 42 43
f 10 43 44
f 10 44 45
f 10 45 46
f 10 46 47
f 10 47 48
f 10 48 49
f 10 49 50
f 10 50 51
f 10 51 52
f 10 52 53
f 10 53 54
f 10 54 55
f 10 55 56
f 10 56 57
f 10 57 58
f 10 58 59
f 10 59 60
f 10 60 61
f 10 61 62
f 10 62 63
f 10 63 64
f 1 2 6
f 1 6 8
f 1 8 9
f 1 9 10
f 1 10 64
