v 1.350900 -0.565914 -6.618012
v 1.346922 -0.566481 -6.623339
v 1.348941 -0.566201 -6.620697
v 1.344844 -0.566753 -6.625935
v 1.342710 -0.567016 -6.628485
v 1.340518 -0.567271 -6.630988
v 1.338272 -0.567518 -6.633442
v 1.335971 -0.567756 -6.635846
v 1.333617 -0.567985 -6.638199
v 1.331211 -0.568205 -6.640500
v 1.328755 -0.568416 -6.642747
v 1.350396 -0.575870 -6.616668
v 1.349551 -0.585497 -6.615466
v 1.348383 -0.594810 -6.614398
v 1.346911 -0.603828 -6.613459
v 1.345153 -0.612566 -6.612639
v 1.343123 -0.621029 -6.611937
v 1.340829 -0.629207 -6.611350
v 1.338278 -0.637089 -6.610879
v 1.335479 -0.644663 -6.610524
v 1.332438 -0.651918 -6.610284
v 1.329546 -0.578799 -6.640076
v 1.329550 -0.578862 -6.640058
v 1.330216 -0.588720 -6.637187
v 1.330223 -0.588839 -6.637150
v 1.330777 -0.598180 -6.634117
v 1.330786 -0.598349 -6.634060
v 1.331239 -0.607188 -6.630900
v 1.331249 -0.607401 -6.630821
v 1.331612 -0.615753 -6.627566
v 1.331622 -0.616006 -6.627464
v 1.331904 -0.623880 -6.624145
v 1.331914 -0.624166 -6.624020
v 1.332125 -0.631562 -6.620674
v 1.332133 -0.631876 -6.620527
v 1.332282 -0.638795 -6.617185
v 1.332288 -0.639131 -6.617018
v 1.332384 -0.645579 -6.613712
v 1.332388 -0.645931 -6.613526
v 1.323694 -0.568811 -6.647078
v 1.326249 -0.568618 -6.644940
v 1.321093 -0.568994 -6.649158
v 1.318446 -0.569168 -6.651181
v 1.315755 -0.569333 -6.653146
v 1.313020 -0.569488 -6.655050
v 1.310244 -0.569633 -6.656895
v 1.307427 -0.569769 -6.658677
v 1.304571 -0.569895 -6.660397
v 1.301678 -0.570011 -6.662054
v 1.329164 -0.658844 -6.610160
v 1.325664 -0.665430 -6.610150
v 1.321945 -0.671666 -6.610254
v 1.318016 -0.677541 -6.610471
v 1.313887 -0.683042 -6.610800
v 1.309578 -0.688156 -6.611237
v 1.305108 -0.692867 -6.611779
v 1.300496 -0.697159 -6.612421
v 1.295763 -0.701017 -6.613162
v 1.290929 -0.704438 -6.613994
v 1.301391 -0.580879 -6.660339
v 1.301389 -0.580944 -6.660328
v 1.301028 -0.591310 -6.658368
v 1.301023 -0.591435 -6.658343
v 1.300598 -0.601303 -6.656176
v 1.300590 -0.601482 -6.656134
v 1.300111 -0.610862 -6.653795
v 1.300098 -0.611089 -6.653735
v 1.299574 -0.619994 -6.651255
v 1.299557 -0.620263 -6.651176
v 1.298996 -0.628698 -6.648587
v 1.298974 -0.629005 -6.648488
v 1.298385 -0.636963 -6.645825
v 1.298359 -0.637302 -6.645707
v 1.297752 -0.644781 -6.643002
v 1.297721 -0.645145 -6.642865
v 1.297103 -0.652146 -6.640150
v 1.297068 -0.652530 -6.639996
v 1.296448 -0.659059 -6.637299
v 1.296410 -0.659454 -6.637131
v 1.295794 -0.665521 -6.634476
v 1.295752 -0.665922 -6.634296
v 1.295148 -0.671538 -6.631708
v 1.295103 -0.671939 -6.631519
v 1.294516 -0.677115 -6.629018
v 1.294469 -0.677512 -6.628822
v 1.293903 -0.682262 -6.626427
v 1.293856 -0.682650 -6.626227
v 1.293317 -0.686985 -6.623955
v 1.293269 -0.687359 -6.623755
v 1.292760 -0.691289 -6.621621
v 1.292713 -0.691647 -6.621423
v 1.292239 -0.695181 -6.619443
v 1.292193 -0.695517 -6.619252
v 1.291758 -0.698665 -6.617437
v 1.291715 -0.698975 -6.617256
v 1.291321 -0.701747 -6.615618
v 1.291280 -0.702027 -6.615451
v 1.295784 -0.570213 -6.665176
v 1.298749 -0.570117 -6.663647
v 1.292787 -0.570299 -6.666638
v 1.289758 -0.570376 -6.668034
v 1.286699 -0.570442 -6.669364
v 1.283611 -0.570498 -6.670625
v 1.280496 -0.570543 -6.671818
v 1.277355 -0.570579 -6.672943
v 1.274190 -0.570605 -6.673998
v 1.271003 -0.570620 -6.674983
v 1.267794 -0.570625 -6.675897
v 1.264567 -0.570620 -6.676741
v 1.261321 -0.570605 -6.677513
v 1.258059 -0.570579 -6.678214
v 1.254783 -0.570543 -6.678842
v 1.251494 -0.570498 -6.679399
v 1.248194 -0.570442 -6.679882
v 1.244883 -0.570376 -6.680293
v 1.241565 -0.570299 -6.680631
v 1.238241 -0.570213 -6.680895
v 1.234911 -0.570117 -6.681086
v 1.286015 -0.707421 -6.614911
v 1.281044 -0.709968 -6.615907
v 1.276036 -0.712079 -6.616976
v 1.271011 -0.713757 -6.618112
v 1.265978 -0.715009 -6.619309
v 1.260948 -0.715843 -6.620566
v 1.255930 -0.716265 -6.621877
v 1.250932 -0.716285 -6.623240
v 1.245960 -0.715902 -6.624652
v 1.241016 -0.715108 -6.626114
v 1.236102 -0.713897 -6.627628
v 1.231219 -0.712262 -6.629193
v 1.226372 -0.710195 -6.630810
v 1.221580 -0.707693 -6.632474
v 1.234462 -0.581016 -6.679456
v 1.234459 -0.581082 -6.679445
v 1.233942 -0.591481 -6.677565
v 1.233935 -0.591606 -6.677540
v 1.233360 -0.601508 -6.675449
v 1.233349 -0.601687 -6.675409
v 1.232726 -0.611101 -6.673141
v 1.232710 -0.611329 -6.673083
v 1.232048 -0.620269 -6.670670
v 1.232026 -0.620539 -6.670593
v 1.231333 -0.629009 -6.668067
v 1.231307 -0.629318 -6.667971
v 1.230592 -0.637310 -6.665367
v 1.230561 -0.637650 -6.665251
v 1.229834 -0.645163 -6.662602
v 1.229797 -0.645529 -6.662468
v 1.229067 -0.652564 -6.659803
v 1.229025 -0.652949 -6.659653
v 1.228299 -0.659511 -6.657003
v 1.228254 -0.659908 -6.656837
v 1.227538 -0.666006 -6.654227
v 1.227489 -0.666410 -6.654049
v 1.226791 -0.672055 -6.651502
v 1.226740 -0.672459 -6.651315
v 1.226065 -0.677664 -6.648851
v 1.226012 -0.678063 -6.648658
v 1.225365 -0.682839 -6.646296
v 1.225311 -0.683230 -6.646099
v 1.224697 -0.687590 -6.643857
v 1.224642 -0.687967 -6.643659
v 1.224065 -0.691920 -6.641553
v 1.224012 -0.692280 -6.641357
v 1.223476 -0.695836 -6.639401
v 1.223424 -0.696174 -6.639212
v 1.222933 -0.699341 -6.637419
v 1.222884 -0.699654 -6.637240
v 1.222441 -0.702443 -6.635621
v 1.222395 -0.702725 -6.635456
v 1.222001 -0.705152 -6.634015
v 1.221960 -0.705400 -6.633867
v 1.221615 -0.707484 -6.632606
v 1.228245 -0.569895 -6.681248
v 1.231579 -0.570011 -6.681204
v 1.224911 -0.569769 -6.681218
v 1.221580 -0.569633 -6.681115
v 1.218251 -0.569488 -6.680939
v 1.214928 -0.569333 -6.680689
v 1.211612 -0.569168 -6.680366
v 1.208304 -0.568994 -6.679969
v 1.205006 -0.568811 -6.679500
v 1.201720 -0.568618 -6.678958
v 1.216867 -0.704753 -6.634180
v 1.212259 -0.701371 -6.635922
v 1.207780 -0.697545 -6.637694
v 1.203451 -0.693278 -6.639489
v 1.199294 -0.688586 -6.641302
v 1.195326 -0.683484 -6.643123
v 1.191570 -0.677988 -6.644948
v 1.188042 -0.672115 -6.646767
v 1.184754 -0.665875 -6.648578
v 1.181713 -0.659279 -6.650376
v 1.199854 -0.579067 -6.677122
v 1.199842 -0.579130 -6.677110
v 1.197973 -0.589058 -6.675036
v 1.197950 -0.589178 -6.675009
v 1.196087 -0.598593 -6.672737
v 1.196053 -0.598763 -6.672694
v 1.194204 -0.607679 -6.670259
v 1.194158 -0.607894 -6.670197
v 1.192330 -0.616326 -6.667633
v 1.192274 -0.616581 -6.667551
v 1.190474 -0.624537 -6.664888
v 1.190408 -0.624827 -6.664787
v 1.188647 -0.632305 -6.662060
v 1.188571 -0.632623 -6.661940
v 1.186859 -0.639625 -6.659183
v 1.186774 -0.639965 -6.659044
v 1.185119 -0.646496 -6.656287
v 1.185026 -0.646853 -6.656131
v 1.183435 -0.652922 -6.653402
v 1.183337 -0.653288 -6.653232
v 1.181815 -0.658908 -6.650556
v 1.195189 -0.568205 -6.677658
v 1.198447 -0.568416 -6.678344
v 1.191947 -0.567985 -6.676899
v 1.188724 -0.567756 -6.676070
v 1.185520 -0.567518 -6.675169
v 1.182338 -0.567271 -6.674198
v 1.179179 -0.567016 -6.673157
v 1.176044 -0.566753 -6.672047
v 1.172935 -0.566481 -6.670867
v 1.169854 -0.566201 -6.669619
v 1.166802 -0.565914 -6.668303
v 1.178927 -0.652338 -6.652158
v 1.176402 -0.645061 -6.653921
v 1.174145 -0.637460 -6.655661
v 1.172164 -0.629546 -6.657374
v 1.170466 -0.621330 -6.659057
v 1.169057 -0.612826 -6.660705
v 1.167944 -0.604043 -6.662315
v 1.167143 -0.594978 -6.663883
v 1.166672 -0.585612 -6.665406
v 1.166552 -0.575930 -6.666880
f 1 2 3
f 1 4 2
f 1 5 4
f 1 6 5
f 1 7 6
f 1 8 7
f 1 9 8
f 1 10 9
f 1 11 10
f 1 12 13
f 1 13 14
f 1 14 15
f 1 15 16
f 1 16 17
f 1 17 18
f 1 18 19
f 1 19 20
f 1 20 21
f 1 22 11
f 1 23 22
f 1 24 23
f 1 25 24
f 1 26 25
f 1 27 26
f 1 28 27
f 1 29 28
f 1 30 29
f 1 31 30
f 1 32 31
f 1 33 32
f 1 34 33
f 1 35 34
f 1 36 35
f 1 37 36
f 1 38 37
f 1 39 38
f 1 21 39
f 11 40 41
f 11 42 40
f 11 43 42
f 11 44 43
f 11 45 44
f 11 46 45
f 11 47 46
f 11 48 47
f 11 49 48
f 21 50 51
f 21 51 52
f 21 52 53
f 21 53 54
f 21 54 55
f 21 55 56
f 21 56 57
f 21 57 58
f 21 58 59
f 11 22 49
f 22 60 49
f 22 23 60
f 23 61 60
f 23 24 61
f 24 62 61
f 24 25 62
f 25 63 62
f 25 26 63
f 26 64 63
f 26 27 64
f 27 65 64
f 27 28 65
f 28 66 65
f 28 29 66
f 29 67 66
f 29 30 67
f 30 68 67
f 30 31 68
f 31 69 68
f 31 32 69
f 32 70 69
f 32 33 70
f 33 71 70
f 33 34 71
f 34 72 71
f 34 35 72
f 35 73 72
f 35 36 73
f 36 74 73
f 36 37 74
f 37 75 74
f 37 38 75
f 38 76 75
f 38 39 76
f 39 77 76
f 39 21 77
f 21 78 77
f 21 79 78
f 21 80 79
f 21 81 80
f 21 82 81
f 21 83 82
f 21 84 83
f 21 85 84
f 21 86 85
f 21 87 86
f 21 88 87
f 21 89 88
f 21 90 89
f 21 91 90
f 21 92 91
f 21 93 92
f 21 94 93
f 21 95 94
f 21 96 95
f 21 97 96
f 21 59 97
f 49 98 99
f 49 100 98
f 49 101 100
f 49 102 101
f 49 103 102
f 49 104 103
f 49 105 104
f 49 106 105
f 49 107 106
f 49 108 107
f 49 109 108
f 49 110 109
f 49 111 110
f 49 112 111
f 49 113 112
f 49 114 113
f 49 115 114
f 49 116 115
f 49 117 116
f 49 118 117
f 59 119 120
f 59 120 121
f 59 121 122
f 59 122 123
f 59 123 124
f 59 124 125
f 59 125 126
f 59 126 127
f 59 127 128
f 59 128 129
f 59 129 130
f 59 130 131
f 59 131 132
f 49 60 118
f 60 133 118
f 60 61 133
f 61 134 133
f 61 62 134
f 62 135 134
f 62 63 135
f 63 136 135
f 63 64 136
f 64 137 136
f 64 65 137
f 65 138 137
f 65 66 138
f 66 139 138
f 66 67 139
f 67 140 139
f 67 68 140
f 68 141 140
f 68 69 141
f 69 142 141
f 69 70 142
f 70 143 142
f 70 71 143
f 71 144 143
f 71 72 144
f 72 145 144
f 72 73 145
f 73 146 145
f 73 74 146
f 74 147 146
f 74 75 147
f 75 148 147
f 75 76 148
f 76 149 148
f 76 77 149
f 77 150 149
f 77 78 150
f 78 151 150
f 78 79 151
f 79 152 151
f 79 80 152
f 80 153 152
f 80 81 153
f 81 154 153
f 81 82 154
f 82 155 154
f 82 83 155
f 83 156 155
f 83 84 156
f 84 157 156
f 84 85 157
f 85 158 157
f 85 86 158
f 86 159 158
f 86 87 159
f 87 160 159
f 87 88 160
f 88 161 160
f 88 89 161
f 89 162 161
f 89 90 162
f 90 163 162
f 90 91 163
f 91 164 163
f 91 92 164
f 92 165 164
f 92 93 165
f 93 166 165
f 93 94 166
f 94 167 166
f 94 95 167
f 95 168 167
f 95 96 168
f 96 169 168
f 96 97 169
f 97 170 169
f 97 59 170
f 59 171 170
f 59 172 171
f 59 173 172
f 59 132 173
f 118 174 175
f 118 176 174
f 118 177 176
f 118 178 177
f 118 179 178
f 118 180 179
f 118 181 180
f 118 182 181
f 118 183 182
f 132 184 185
f 132 185 186
f 132 186 187
f 132 187 188
f 132 188 189
f 132 189 190
f 132 190 191
f 132 191 192
f 132 192 193
f 118 133 183
f 133 194 183
f 133 134 194
f 134 195 194
f 134 135 195
f 135 196 195
f 135 136 196
f 136 197 196
f 136 137 197
f 137 198 197
f 137 138 198
f 138 199 198
f 138 139 199
f 139 200 199
f 139 140 200
f 140 201 200
f 140 141 201
f 141 202 201
f 141 142 202
f 142 203 202
f 142 143 203
f 143 204 203
f 143 144 204
f 144 205 204
f 144 145 205
f 145 206 205
f 145 146 206
f 146 207 206
f 146 147 207
f 147 208 207
f 147 148 208
f 148 209 208
f 148 149 209
f 149 210 209
f 149 150 210
f 150 211 210
f 150 151 211
f 151 212 211
f 151 152 212
f 152 213 212
f 152 153 213
f 153 214 213
f 153 154 214
f 154 193 214
f 154 155 193
f 155 156 193
f 156 157 193
f 157 158 193
f 158 159 193
f 159 160 193
f 160 161 193
f 161 162 193
f 162 163 193
f 163 164 193
f 164 165 193
f 165 166 193
f 166 167 193
f 167 168 193
f 168 169 193
f 169 170 193
f 170 171 193
f 171 172 193
f 172 173 193
f 173 132 193
f 183 215 216
f 183 217 215
f 183 218 217
f 183 219 218
f 183 220 219
f 183 221 220
f 183 222 221
f 183 223 222
f 183 224 223
f 183 225 224
f 193 226 227
f 193 227 228
f 193 228 229
f 193 229 230
f 193 230 231
f 193 231 232
f 193 232 233
f 193 233 234
f 193 234 235
f 193 235 225
f 183 194 225
f 194 195 225
f 195 196 225
f 196 197 225
f 197 198 225
f 198 199 225
f 199 200 225
f 200 201 225
f 201 202 225
f 202 203 225
f 203 204 225
f 204 205 225
f 205 206 225
f 206 207 225
f 207 208 225
f 208 209 225
f 209 210 225
f 210 211 225
f 211 212 225
f 212 213 225
f 213 214 225
f 214 193 225
