v 1.555020 0.565914 -6.529700
v 1.561625 0.566481 -6.530447
v 1.558318 0.566201 -6.530110
v 1.564940 0.566753 -6.530710
v 1.568260 0.567016 -6.530900
v 1.571585 0.567271 -6.531017
v 1.574911 0.567518 -6.531060
v 1.578239 0.567756 -6.531029
v 1.581566 0.567985 -6.530924
v 1.584890 0.568205 -6.530746
v 1.588210 0.568416 -6.530494
v 1.554384 0.575873 -6.528412
v 1.554087 0.585502 -6.526972
v 1.554109 0.594819 -6.525389
v 1.554432 0.603840 -6.523672
v 1.555039 0.612583 -6.521829
v 1.555918 0.621051 -6.519866
v 1.557063 0.629234 -6.517791
v 1.558468 0.637121 -6.515607
v 1.560129 0.644701 -6.513321
v 1.562039 0.651962 -6.510937
v 1.585725 0.578798 -6.529241
v 1.585724 0.578802 -6.529240
v 1.583164 0.588719 -6.527752
v 1.583161 0.588726 -6.527750
v 1.580545 0.598180 -6.526059
v 1.580542 0.598191 -6.526057
v 1.577887 0.607188 -6.524193
v 1.577883 0.607202 -6.524190
v 1.575204 0.615756 -6.522181
v 1.575199 0.615772 -6.522177
v 1.572512 0.623886 -6.520052
v 1.572506 0.623904 -6.520047
v 1.569832 0.631572 -6.517835
v 1.569826 0.631591 -6.517829
v 1.567183 0.638808 -6.515560
v 1.567176 0.638829 -6.515553
v 1.564583 0.645597 -6.513255
v 1.564575 0.645618 -6.513247
v 1.562048 0.651940 -6.510945
v 1.594830 0.568811 -6.529770
v 1.591524 0.568618 -6.530169
v 1.598128 0.568994 -6.529299
v 1.601415 0.569168 -6.528755
v 1.604689 0.569333 -6.528138
v 1.607950 0.569488 -6.527449
v 1.611195 0.569633 -6.526688
v 1.614423 0.569769 -6.525855
v 1.617632 0.569895 -6.524951
v 1.620820 0.570011 -6.523977
v 1.564195 0.658894 -6.508462
v 1.566588 0.665485 -6.505901
v 1.569215 0.671725 -6.503258
v 1.572068 0.677602 -6.500539
v 1.575140 0.683105 -6.497752
v 1.578414 0.688219 -6.494907
v 1.581876 0.692928 -6.492016
v 1.585508 0.697219 -6.489091
v 1.589296 0.701076 -6.486143
v 1.593222 0.704495 -6.483184
v 1.619773 0.580878 -6.522592
v 1.619773 0.580882 -6.522591
v 1.618592 0.591309 -6.520976
v 1.618591 0.591317 -6.520975
v 1.617294 0.601302 -6.519160
v 1.617293 0.601314 -6.519157
v 1.615899 0.610863 -6.517172
v 1.615897 0.610877 -6.517169
v 1.614421 0.619997 -6.515039
v 1.614418 0.620014 -6.515035
v 1.612877 0.628705 -6.512789
v 1.612874 0.628723 -6.512784
v 1.611286 0.636974 -6.510450
v 1.611282 0.636994 -6.510444
v 1.609667 0.644795 -6.508052
v 1.609662 0.644817 -6.508045
v 1.608036 0.652165 -6.505624
v 1.608030 0.652189 -6.505616
v 1.606410 0.659083 -6.503192
v 1.606404 0.659107 -6.503183
v 1.604803 0.665549 -6.500779
v 1.604797 0.665574 -6.500770
v 1.603231 0.671570 -6.498410
v 1.603225 0.671595 -6.498400
v 1.601706 0.677152 -6.496104
v 1.601699 0.677176 -6.496094
v 1.600239 0.682302 -6.493880
v 1.600232 0.682324 -6.493871
v 1.598841 0.687028 -6.491757
v 1.598835 0.687047 -6.491748
v 1.597522 0.691336 -6.489751
v 1.597517 0.691352 -6.489743
v 1.596293 0.695230 -6.487878
v 1.596289 0.695242 -6.487872
v 1.595163 0.698715 -6.486152
v 1.595159 0.698725 -6.486147
v 1.594138 0.701797 -6.484587
v 1.594135 0.701806 -6.484582
v 1.593225 0.704487 -6.483189
v 1.627130 0.570213 -6.521818
v 1.623987 0.570117 -6.522933
v 1.630248 0.570299 -6.520635
v 1.633340 0.570376 -6.519383
v 1.636403 0.570442 -6.518064
v 1.639437 0.570498 -6.516677
v 1.642439 0.570543 -6.515223
v 1.645409 0.570579 -6.513704
v 1.648345 0.570605 -6.512119
v 1.651245 0.570620 -6.510470
v 1.654108 0.570625 -6.508758
v 1.656933 0.570620 -6.506983
v 1.659718 0.570605 -6.505146
v 1.662462 0.570579 -6.503249
v 1.665163 0.570543 -6.501291
v 1.667820 0.570498 -6.499274
v 1.670433 0.570442 -6.497200
v 1.672998 0.570376 -6.495068
v 1.675516 0.570299 -6.492881
v 1.677985 0.570213 -6.490639
v 1.680404 0.570117 -6.488343
v 1.597265 0.707476 -6.480224
v 1.601408 0.710020 -6.477276
v 1.605630 0.712128 -6.474349
v 1.609915 0.713801 -6.471454
v 1.614253 0.715046 -6.468596
v 1.618635 0.715868 -6.465778
v 1.623053 0.716276 -6.463004
v 1.627498 0.716274 -6.460279
v 1.631965 0.715864 -6.457606
v 1.636450 0.715038 -6.454988
v 1.640949 0.713792 -6.452428
v 1.645459 0.712117 -6.449932
v 1.649973 0.710009 -6.447502
v 1.654475 0.707465 -6.445150
v 1.679546 0.581014 -6.486877
v 1.679546 0.581018 -6.486876
v 1.678547 0.591476 -6.485182
v 1.678546 0.591484 -6.485181
v 1.677425 0.601501 -6.483289
v 1.677424 0.601513 -6.483286
v 1.676197 0.611094 -6.481226
v 1.676196 0.611108 -6.481223
v 1.674881 0.620260 -6.479020
v 1.674878 0.620277 -6.479016
v 1.673492 0.629000 -6.476699
v 1.673489 0.629019 -6.476694
v 1.672049 0.637302 -6.474291
v 1.672045 0.637322 -6.474285
v 1.670570 0.645156 -6.471828
v 1.670566 0.645178 -6.471820
v 1.669072 0.652557 -6.469336
v 1.669067 0.652580 -6.469327
v 1.667571 0.659505 -6.466842
v 1.667566 0.659529 -6.466833
v 1.666083 0.666001 -6.464371
v 1.666077 0.666025 -6.464362
v 1.664622 0.672050 -6.461946
v 1.664616 0.672075 -6.461936
v 1.663199 0.677659 -6.459588
v 1.663193 0.677683 -6.459578
v 1.661828 0.682835 -6.457316
v 1.661822 0.682857 -6.457306
v 1.660518 0.687585 -6.455147
v 1.660513 0.687605 -6.455138
v 1.659281 0.691915 -6.453098
v 1.659276 0.691931 -6.453090
v 1.658125 0.695830 -6.451186
v 1.658122 0.695843 -6.451180
v 1.657061 0.699334 -6.449425
v 1.657058 0.699344 -6.449420
v 1.656095 0.702433 -6.447828
v 1.656093 0.702442 -6.447823
v 1.655233 0.705139 -6.446402
v 1.655231 0.705147 -6.446398
v 1.685086 0.569895 -6.483595
v 1.682771 0.570011 -6.485995
v 1.687347 0.569769 -6.481145
v 1.689553 0.569633 -6.478646
v 1.691703 0.569488 -6.476099
v 1.693796 0.569333 -6.473506
v 1.695831 0.569168 -6.470868
v 1.697807 0.568994 -6.468185
v 1.699723 0.568811 -6.465460
v 1.701578 0.568618 -6.462694
v 1.658946 0.704484 -6.442890
v 1.663365 0.701065 -6.440733
v 1.667712 0.697206 -6.438694
v 1.671968 0.692913 -6.436783
v 1.676115 0.688200 -6.435009
v 1.680136 0.683082 -6.433382
v 1.684013 0.677577 -6.431909
v 1.687730 0.671698 -6.430600
v 1.691275 0.665458 -6.429459
v 1.694642 0.658867 -6.428489
v 1.701534 0.579063 -6.460050
v 1.701534 0.579067 -6.460049
v 1.701317 0.589051 -6.457226
v 1.701317 0.589058 -6.457224
v 1.700948 0.598582 -6.454253
v 1.700948 0.598593 -6.454249
v 1.700446 0.607664 -6.451160
v 1.700445 0.607678 -6.451155
v 1.699827 0.616308 -6.447972
v 1.699826 0.616323 -6.447965
v 1.699110 0.624515 -6.444717
v 1.699108 0.624533 -6.444709
v 1.698311 0.632279 -6.441426
v 1.698309 0.632299 -6.441418
v 1.697449 0.639595 -6.438131
v 1.697446 0.639616 -6.438121
v 1.696539 0.646463 -6.434858
v 1.696536 0.646484 -6.434848
v 1.695599 0.652885 -6.431636
v 1.695595 0.652907 -6.431625
v 1.705101 0.568205 -6.457043
v 1.703371 0.568416 -6.459888
v 1.706768 0.567985 -6.454162
v 1.708370 0.567756 -6.451244
v 1.709907 0.567518 -6.448293
v 1.711378 0.567271 -6.445309
v 1.712782 0.567016 -6.442293
v 1.714119 0.566753 -6.439248
v 1.715388 0.566481 -6.436174
v 1.716588 0.566201 -6.433074
v 1.717718 0.565914 -6.429948
v 1.697824 0.651937 -6.427691
v 1.700813 0.644677 -6.427071
v 1.703602 0.637099 -6.426628
v 1.706184 0.629214 -6.426367
v 1.708552 0.621032 -6.426289
v 1.710698 0.612567 -6.426396
v 1.712615 0.603827 -6.426691
v 1.714292 0.594808 -6.427182
v 1.715711 0.585495 -6.427880
v 1.716859 0.575869 -6.428798
f 1 2 3
f 1 4 2
f 1 5 4
f 1 6 5
f 1 7 6
f 1 8 7
f 1 9 8
f 1 10 9
f 1 11 10
f 1 12 13
f 1 13 14
f 1 14 15
f 1 15 16
f 1 16 17
f 1 17 18
f 1 18 19
f 1 19 20
f 1 20 21
f 1 22 11
f 1 23 22
f 1 24 23
f 1 25 24
f 1 26 25
f 1 27 26
f 1 28 27
f 1 29 28
f 1 30 29
f 1 31 30
f 1 32 31
f 1 33 32
f 1 34 33
f 1 35 34
f 1 36 35
f 1 37 36
f 1 38 37
f 1 39 38
f 1 40 39
f 1 21 40
f 11 41 42
f 11 43 41
f 11 44 43
f 11 45 44
f 11 46 45
f 11 47 46
f 11 48 47
f 11 49 48
f 11 50 49
f 21 51 52
f 21 52 53
f 21 53 54
f 21 54 55
f 21 55 56
f 21 56 57
f 21 57 58
f 21 58 59
f 21 59 60
f 11 22 50
f 22 61 50
f 22 23 61
f 23 62 61
f 23 24 62
f 24 63 62
f 24 25 63
f 25 64 63
f 25 26 64
f 26 65 64
f 26 27 65
f 27 66 65
f 27 28 66
f 28 67 66
f 28 29 67
f 29 68 67
f 29 30 68
f 30 69 68
f 30 31 69
f 31 70 69
f 31 32 70
f 32 71 70
f 32 33 71
f 33 72 71
f 33 34 72
f 34 73 72
f 34 35 73
f 35 74 73
f 35 36 74
f 36 75 74
f 36 37 75
f 37 76 75
f 37 38 76
f 38 77 76
f 38 39 77
f 39 78 77
f 39 40 78
f 40 79 78
f 40 21 79
f 21 80 79
f 21 81 80
f 21 82 81
f 21 83 82
f 21 84 83
f 21 85 84
f 21 86 85
f 21 87 86
f 21 88 87
f 21 89 88
f 21 90 89
f 21 91 90
f 21 92 91
f 21 93 92
f 21 94 93
f 21 95 94
f 21 96 95
f 21 97 96
f 21 98 97
f 21 99 98
f 21 60 99
f 50 100 101
f 50 102 100
f 50 103 102
f 50 104 103
f 50 105 104
f 50 106 105
f 50 107 106
f 50 108 107
f 50 109 108
f 50 110 109
f 50 111 110
f 50 112 111
f 50 113 112
f 50 114 113
f 50 115 114
f 50 116 115
f 50 117 116
f 50 118 117
f 50 119 118
f 50 120 119
f 60 121 122
f 60 122 123
f 60 123 124
f 60 124 125
f 60 125 126
f 60 126 127
f 60 127 128
f 60 128 129
f 60 129 130
f 60 130 131
f 60 131 132
f 60 132 133
f 60 133 134
f 50 61 120
f 61 135 120
f 61 62 135
f 62 136 135
f 62 63 136
f 63 137 136
f 63 64 137
f 64 138 137
f 64 65 138
f 65 139 138
f 65 66 139
f 66 140 139
f 66 67 140
f 67 141 140
f 67 68 141
f 68 142 141
f 68 69 142
f 69 143 142
f 69 70 143
f 70 144 143
f 70 71 144
f 71 145 144
f 71 72 145
f 72 146 145
f 72 73 146
f 73 147 146
f 73 74 147
f 74 148 147
f 74 75 148
f 75 149 148
f 75 76 149
f 76 150 149
f 76 77 150
f 77 151 150
f 77 78 151
f 78 152 151
f 78 79 152
f 79 153 152
f 79 80 153
f 80 154 153
f 80 81 154
f 81 155 154
f 81 82 155
f 82 156 155
f 82 83 156
f 83 157 156
f 83 84 157
f 84 158 157
f 84 85 158
f 85 159 158
f 85 86 159
f 86 160 159
f 86 87 160
f 87 161 160
f 87 88 161
f 88 162 161
f 88 89 162
f 89 163 162
f 89 90 163
f 90 164 163
f 90 91 164
f 91 165 164
f 91 92 165
f 92 166 165
f 92 93 166
f 93 167 166
f 93 94 167
f 94 168 167
f 94 95 168
f 95 169 168
f 95 96 169
f 96 170 169
f 96 97 170
f 97 171 170
f 97 98 171
f 98 172 171
f 98 99 172
f 99 173 172
f 99 60 173
f 60 174 173
f 60 134 174
f 120 175 176
f 120 177 175
f 120 178 177
f 120 179 178
f 120 180 179
f 120 181 180
f 120 182 181
f 120 183 182
f 120 184 183
f 134 185 186
f 134 186 187
f 134 187 188
f 134 188 189
f 134 189 190
f 134 190 191
f 134 191 192
f 134 192 193
f 134 193 194
f 120 135 184
f 135 195 184
f 135 136 195
f 136 196 195
f 136 137 196
f 137 197 196
f 137 138 197
f 138 198 197
f 138 139 198
f 139 199 198
f 139 140 199
f 140 200 199
f 140 141 200
f 141 201 200
f 141 142 201
f 142 202 201
f 142 143 202
f 143 203 202
f 143 144 203
f 144 204 203
f 144 145 204
f 145 205 204
f 145 146 205
f 146 206 205
f 146 147 206
f 147 207 206
f 147 148 207
f 148 208 207
f 148 149 208
f 149 209 208
f 149 150 209
f 150 210 209
f 150 151 210
f 151 211 210
f 151 152 211
f 152 212 211
f 152 153 212
f 153 213 212
f 153 154 213
f 154 214 213
f 154 155 214
f 155 194 214
f 155 156 194
f 156 157 194
f 157 158 194
f 158 159 194
f 159 160 194
f 160 161 194
f 161 162 194
f 162 163 194
f 163 164 194
f 164 165 194
f 165 166 194
f 166 167 194
f 167 168 194
f 168 169 194
f 169 170 194
f 170 171 194
f 171 172 194
f 172 173 194
f 173 174 194
f 174 134 194
f 184 215 216
f 184 217 215
f 184 218 217
f 184 219 218
f 184 220 219
f 184 221 220
f 184 222 221
f 184 223 222
f 184 224 223
f 184 225 224
f 194 226 227
f 194 227 228
f 194 228 229
f 194 229 230
f 194 230 231
f 194 231 232
f 194 232 233
f 194 233 234
f 194 234 235
f 194 235 225
f 184 195 225
f 195 196 225
f 196 197 225
f 197 198 225
f 198 199 225
f 199 200 225
f 200 201 225
f 201 202 225
f 202 203 225
f 203 204 225
f 204 205 225
f 205 206 225
f 206 207 225
f 207 208 225
f 208 209 225
f 209 210 225
f 210 211 225
f 211 212 225
f 212 213 225
f 213 214 225
f 214 194 225
