v 0.646062 0.065698 0.000000
v 0.636100 0.130722 0.000000
v 0.619612 0.194404 0.000000
v 0.596765 0.256092 0.000000
v 0.567795 0.315152 0.000000
v 0.532998 0.370978 0.000000
v 0.492733 0.422997 0.000000
v 0.447411 0.470676 0.000000
v 0.397498 0.513525 0.000000
v 0.343506 0.551104 0.000000
v 0.285989 0.583028 0.000000
v 0.225538 0.608970 0.000000
v 0.162772 0.628663 0.000000
v 0.098336 0.641905 0.000000
v 0.032891 0.648560 0.000000
v -0.032891 0.648560 0.000000
v -0.098336 0.641905 0.000000
v -0.162772 0.628663 0.000000
v -0.225538 0.608970 0.000000
v -0.285989 0.583028 0.000000
v -0.343506 0.551104 0.000000
v -0.397498 0.513525 0.000000
v -0.447411 0.470676 0.000000
v -0.492733 0.422997 0.000000
v -0.532998 0.370978 0.000000
v -0.567795 0.315152 0.000000
v -0.596765 0.256092 0.000000
v -0.619612 0.194404 0.000000
v -0.636100 0.130722 0.000000
v -0.646062 0.065698 0.000000
v -0.649393 0.000000 0.000000
v -0.638787 0.000000 0.000000
v -0.635509 -0.064625 0.000000
v -0.625711 -0.128587 0.000000
v -0.609492 -0.191229 0.000000
v -0.587018 -0.251909 0.000000
v -0.558521 -0.310004 0.000000
v -0.524293 -0.364919 0.000000
v -0.484685 -0.416088 0.000000
v -0.440103 -0.462988 0.000000
v -0.391005 -0.505137 0.000000
v -0.337895 -0.542103 0.000000
v -0.281318 -0.573506 0.000000
v -0.221854 -0.599024 0.000000
v -0.160114 -0.618395 0.000000
v -0.096730 -0.631421 0.000000
v -0.032354 -0.637967 0.000000
v 0.032354 -0.637967 0.000000
v 0.096730 -0.631421 0.000000
v 0.160114 -0.618395 0.000000
v 0.221854 -0.599024 0.000000
v 0.281318 -0.573506 0.000000
v 0.337895 -0.542103 0.000000
v 0.391005 -0.505137 0.000000
v 0.440103 -0.462988 0.000000
v 0.484685 -0.416088 0.000000
v 0.524293 -0.364919 0.000000
v 0.558521 -0.310004 0.000000
v 0.587018 -0.251909 0.000000
v 0.609492 -0.191229 0.000000
v 0.625711 -0.128587 0.000000
v 0.635509 -0.064625 0.000000
v 0.638787 0.000000 0.000000
v 0.649393 0.000000 0.000000
v 0.492460 0.050078 0.000000
v 0.484867 0.099643 0.000000
v 0.472299 0.148185 0.000000
v 0.454884 0.195206 0.000000
v 0.432802 0.240224 0.000000
v 0.406278 0.282778 0.000000
v 0.375585 0.322429 0.000000
v 0.341039 0.358772 0.000000
v 0.302992 0.391434 0.000000
v 0.261837 0.420079 0.000000
v 0.217995 0.444413 0.000000
v 0.171916 0.464187 0.000000
v 0.124073 0.479198 0.000000
v 0.074957 0.489292 0.000000
v 0.025071 0.494365 0.000000
v -0.025071 0.494365 0.000000
v -0.074957 0.489292 0.000000
v -0.124073 0.479198 0.000000
v -0.171916 0.464187 0.000000
v -0.217995 0.444413 0.000000
v -0.261837 0.420079 0.000000
v -0.302992 0.391434 0.000000
v -0.341039 0.358772 0.000000
v -0.375585 0.322429 0.000000
v -0.406278 0.282778 0.000000
v -0.432802 0.240224 0.000000
v -0.454884 0.195206 0.000000
v -0.472299 0.148185 0.000000
v -0.484867 0.099643 0.000000
v -0.492460 0.050078 0.000000
v -0.495000 0.000000 0.000000
v -0.492460 -0.050078 0.000000
v -0.484867 -0.099643 0.000000
v -0.472299 -0.148185 0.000000
v -0.454884 -0.195206 0.000000
v -0.432802 -0.240224 0.000000
v -0.406278 -0.282778 0.000000
v -0.375585 -0.322429 0.000000
v -0.341039 -0.358772 0.000000
v -0.302992 -0.391434 0.000000
v -0.261837 -0.420079 0.000000
v -0.217995 -0.444413 0.000000
v -0.171916 -0.464187 0.000000
v -0.124073 -0.479198 0.000000
v -0.074957 -0.489292 0.000000
v -0.025071 -0.494365 0.000000
v 0.025071 -0.494365 0.000000
v 0.074957 -0.489292 0.000000
v 0.124073 -0.479198 0.000000
v 0.171916 -0.464187 0.000000
v 0.217995 -0.444413 0.000000
v 0.261837 -0.420079 0.000000
v 0.302992 -0.391434 0.000000
v 0.341039 -0.358772 0.000000
v 0.375585 -0.322429 0.000000
v 0.406278 -0.282778 0.000000
v 0.432802 -0.240224 0.000000
v 0.454884 -0.195206 0.000000
v 0.472299 -0.148185 0.000000
v 0.484867 -0.099643 0.000000
v 0.492460 -0.050078 0.000000
v 0.495000 0.000000 0.000000
f 1 2 66
f 1 66 65
f 2 3 67
f 2 67 66
f 3 4 68
f 3 68 67
f 4 5 69
f 4 69 68
f 5 6 70
f 5 70 69
f 6 7 71
f 6 71 70
f 7 8 72
f 7 72 71
f 8 9 73
f 8 73 72
f 9 10 74
f 9 74 73
f 10 11 75
f 10 75 74
f 11 12 76
f 11 76 75
f 12 13 77
f 12 77 76
f 13 14 78
f 13 78 77
f 14 15 79
f 14 79 78
f 15 16 80
f 15 80 79
f 16 17 81
f 16 81 80
f 17 18 82
f 17 82 81
f 18 19 83
f 18 83 82
f 19 20 84
f 19 84 83
f 20 21 85
f 20 85 84
f 21 22 86
f 21 86 85
f 22 23 87
f 22 87 86
f 23 24 88
f 23 88 87
f 24 25 89
f 24 89 88
f 25 26 90
f 25 90 89
f 26 27 91
f 26 91 90
f 27 28 92
f 27 92 91
f 28 29 93
f 28 93 92
f 29 30 94
f 29 94 93
f 30 31 95
f 30 95 94
f 31 32 95
f 32 33 96
f 32 96 95
f 33 34 97
f 33 97 96
f 34 35 98
f 34 98 97
f 35 36 99
f 35 99 98
f 36 37 100
f 36 100 99
f 37 38 101
f 37 101 100
f 38 39 102
f 38 102 101
f 39 40 103
f 39 103 102
f 40 41 104
f 40 104 103
f 41 42 105
f 41 105 104
f 42 43 106
f 42 106 105
f 43 44 107
f 43 107 106
f 44 45 108
f 44 108 107
f 45 46 109
f 45 109 108
f 46 47 110
f 46 110 109
f 47 48 111
f 47 111 110
f 48 49 112
f 48 112 111
f 49 50 113
f 49 113 112
f 50 51 114
f 50 114 113
f 51 52 115
f 51 115 114
f 52 53 116
f 52 116 115
f 53 54 117
f 53 117 116
f 54 55 118
f 54 118 117
f 55 56 119
f 55 119 118
f 56 57 120
f 56 120 119
f 57 58 121
f 57 121 120
f 58 59 122
f 58 122 121
f 59 60 123
f 59 123 122
f 60 61 124
f 60 124 123
f 61 62 125
f 61 125 124
f 62 63 126
f 62 126 125
f 63 64 126
f 64 1 65
f 64 65 126
