v -1.070000 0.524053 -6.163000
v -1.069945 0.927544 -6.159500
v -1.070000 0.926440 -6.163000
v -1.069872 0.524053 -6.157935
v -1.069784 0.928615 -6.156101
v -1.069487 0.524053 -6.152883
v -1.069521 0.929656 -6.152800
v -1.069159 0.930667 -6.149593
v -1.068847 0.524053 -6.147857
v -1.068704 0.931650 -6.146475
v -1.068160 0.932607 -6.143442
v -1.067953 0.524053 -6.142870
v -1.067530 0.933537 -6.140490
v -1.066808 0.524053 -6.137935
v -1.066819 0.934444 -6.137616
v -1.066032 0.935327 -6.134814
v -1.065414 0.524053 -6.133064
v -1.065173 0.936188 -6.132082
v -1.064245 0.937030 -6.129414
v -1.063775 0.524053 -6.128269
v -1.063254 0.937851 -6.126807
v -1.062203 0.938655 -6.124257
v -1.061896 0.524053 -6.123564
v -1.061097 0.939443 -6.121760
v -1.059938 0.940215 -6.119313
v -1.059780 0.524053 -6.118961
v -1.058728 0.940971 -6.116914
v -1.057467 0.941711 -6.114565
v -1.057435 0.524053 -6.114470
v -1.056155 0.942437 -6.112265
v -1.054864 0.524053 -6.110104
v -1.054792 0.943147 -6.110012
v -1.053378 0.943842 -6.107808
v -1.052076 0.524053 -6.105873
v -1.051914 0.944522 -6.105652
v -1.050401 0.945187 -6.103543
v -1.049078 0.524053 -6.101789
v -1.048838 0.945837 -6.101482
v -1.047226 0.946472 -6.099467
v -1.045876 0.524053 -6.097863
v -1.045564 0.947092 -6.097499
v -1.043855 0.947698 -6.095578
v -1.042479 0.524053 -6.094103
v -1.042097 0.948289 -6.093702
v -1.040291 0.948866 -6.091872
v -1.038897 0.524053 -6.090521
v -1.038436 0.949429 -6.090089
v -1.036534 0.949977 -6.088351
v -1.035137 0.524053 -6.087124
v -1.034583 0.950510 -6.086660
v -1.032582 0.951028 -6.085015
v -1.031211 0.524053 -6.083922
v -1.030532 0.951532 -6.083418
v -1.028432 0.952020 -6.081869
v -1.027127 0.524053 -6.080924
v -1.026281 0.952494 -6.080368
v -1.024080 0.952952 -6.078915
v -1.022896 0.524053 -6.078136
v -1.021827 0.953394 -6.077511
v -1.019523 0.953822 -6.076156
v -1.018530 0.524053 -6.075565
v -1.017167 0.954233 -6.074851
v -1.014759 0.954629 -6.073596
v -1.014039 0.524053 -6.073220
v -1.012298 0.955009 -6.072391
v -1.009783 0.955373 -6.071237
v -1.009436 0.524053 -6.071104
v -1.007211 0.955719 -6.070137
v -1.004731 0.524053 -6.069225
v -1.004577 0.956047 -6.069097
v -1.001876 0.956355 -6.068122
v -0.999936 0.524053 -6.067586
v -0.999101 0.956641 -6.067216
v -0.996249 0.956903 -6.066384
v -0.995065 0.524053 -6.066192
v -0.993313 0.957140 -6.065631
v -0.990289 0.957351 -6.064963
v -0.990130 0.524053 -6.065047
v -0.987172 0.957534 -6.064384
v -0.985143 0.524053 -6.064153
v -0.983956 0.957686 -6.063899
v -0.980636 0.957808 -6.063513
v -0.980117 0.524053 -6.063513
v -0.977207 0.957897 -6.063231
v -0.975065 0.524053 -6.063128
v -0.973663 0.957951 -6.063059
v -0.970000 0.524053 -6.063000
v -0.970000 0.957970 -6.063000
f 1 3 2
f 1 2 4
f 4 2 5
f 4 5 6
f 6 5 7
f 6 7 8
f 6 8 9
f 9 8 10
f 9 10 11
f 9 11 12
f 12 11 13
f 12 13 14
f 14 13 15
f 14 15 16
f 14 16 17
f 17 16 18
f 17 18 19
f 17 19 20
f 20 19 21
f 20 21 22
f 20 22 23
f 23 22 24
f 23 24 25
f 23 25 26
f 26 25 27
f 26 27 28
f 26 28 29
f 29 28 30
f 29 30 31
f 31 30 32
f 31 32 33
f 31 33 34
f 34 33 35
f 34 35 36
f 34 36 37
f 37 36 38
f 37 38 39
f 37 39 40
f 40 39 41
f 40 41 42
f 40 42 43
f 43 42 44
f 43 44 45
f 43 45 46
f 46 45 47
f 46 47 48
f 46 48 49
f 49 48 50
f 49 50 51
f 49 51 52
f 52 51 53
f 52 53 54
f 52 54 55
f 55 54 56
f 55 56 57
f 55 57 58
f 58 57 59
f 58 59 60
f 58 60 61
f 61 60 62
f 61 62 63
f 61 63 64
f 64 63 65
f 64 65 66
f 64 66 67
f 67 66 68
f 67 68 69
f 69 68 70
f 69 70 71
f 69 71 72
f 72 71 73
f 72 73 74
f 72 74 75
f 75 74 76
f 75 76 77
f 75 77 78
f 78 77 79
f 78 79 80
f 80 79 81
f 80 81 82
f 80 82 83
f 83 82 84
f 83 84 85
f 85 84 86
f 85 86 87
f 87 86 88
