v -0.617494 0.051226 -1.097769
v -0.617718 0.048448 -1.097769
v -0.628064 0.049349 -1.095000
v -0.627092 0.060462 -1.095000
v -0.627055 0.060845 -1.095000
v -0.624502 0.060762 -1.095680
v -0.494138 0.056511 -1.130371
v -0.491773 0.056434 -1.131000
v -0.491870 0.055577 -1.131000
v -0.494048 0.030679 -1.131000
v -0.494101 0.029819 -1.131000
v -0.496440 0.030154 -1.130372
v -0.504172 0.034982 -1.128231
v -0.504325 0.032714 -1.128231
v -0.512666 0.056496 -1.125462
v -0.514532 0.035701 -1.125462
v -0.514688 0.033386 -1.125462
v -0.523242 0.055280 -1.122692
v -0.524723 0.038780 -1.122692
v -0.524892 0.036419 -1.122692
v -0.533569 0.056371 -1.119923
v -0.535079 0.039546 -1.119923
v -0.535252 0.037138 -1.119923
v -0.543896 0.057462 -1.117154
v -0.545435 0.040311 -1.117154
v -0.545611 0.037857 -1.117154
v -0.554223 0.058554 -1.114385
v -0.555792 0.041076 -1.114385
v -0.555971 0.038576 -1.114385
v -0.564813 0.057105 -1.111615
v -0.565954 0.044388 -1.111615
v -0.566148 0.041842 -1.111615
v -0.575145 0.058149 -1.108846
v -0.576307 0.045200 -1.108846
v -0.576505 0.042607 -1.108846
v -0.585477 0.059194 -1.106077
v -0.586660 0.046012 -1.106077
v -0.586861 0.043373 -1.106077
v -0.596074 0.057558 -1.103308
v -0.596796 0.049509 -1.103308
v -0.597013 0.046824 -1.103308
v -0.606410 0.058556 -1.100538
v -0.607145 0.050367 -1.100538
v -0.607366 0.047636 -1.100538
v -0.616747 0.059554 -1.097769
v -0.617258 0.054003 -1.097769
v -0.627129 0.060080 -1.095000
v -0.496506 0.056588 -1.129741
v -0.493994 0.031540 -1.131000
v -0.504010 0.037249 -1.128231
v -0.514366 0.038015 -1.125462
v -0.524543 0.041140 -1.122692
v -0.534896 0.041952 -1.119923
v -0.545249 0.042764 -1.117154
v -0.555601 0.043576 -1.114385
v -0.565749 0.046933 -1.111615
v -0.576098 0.047792 -1.108846
v -0.586447 0.048650 -1.106077
v -0.596567 0.052193 -1.103308
v -0.606912 0.053098 -1.100538
v -0.617008 0.056779 -1.097769
v -0.627165 0.059697 -1.095000
v -0.498878 0.056665 -1.129110
v -0.493939 0.032400 -1.131000
v -0.503837 0.039516 -1.128231
v -0.514190 0.040328 -1.125462
v -0.524353 0.043499 -1.122692
v -0.534702 0.044358 -1.119923
v -0.545051 0.045216 -1.117154
v -0.555400 0.046075 -1.114385
v -0.565532 0.049478 -1.111615
v -0.575877 0.050383 -1.108846
v -0.586222 0.051288 -1.106077
v -0.596327 0.054876 -1.103308
v -0.606667 0.055827 -1.100538
v -0.627202 0.059314 -1.095000
v -0.501254 0.056742 -1.128479
v -0.493881 0.033260 -1.131000
v -0.503655 0.041782 -1.128231
v -0.514004 0.042641 -1.125462
v -0.524152 0.045857 -1.122692
v -0.534497 0.046762 -1.119923
v -0.544842 0.047667 -1.117154
v -0.555187 0.048573 -1.114385
v -0.565304 0.052021 -1.111615
v -0.575645 0.052973 -1.108846
v -0.585986 0.053924 -1.106077
v -0.628034 0.049733 -1.095000
v -0.627238 0.058931 -1.095000
v -0.503633 0.056819 -1.127846
v -0.493823 0.034120 -1.131000
v -0.503461 0.044047 -1.128231
v -0.513807 0.044952 -1.125462
v -0.523940 0.048215 -1.122692
v -0.534281 0.049166 -1.119923
v -0.544622 0.050118 -1.117154
v -0.554963 0.051069 -1.114385
v -0.565064 0.054563 -1.111615
v -0.575401 0.055561 -1.108846
v -0.585737 0.056560 -1.106077
v -0.628003 0.050116 -1.095000
v -0.627274 0.058548 -1.095000
v -0.506016 0.056897 -1.127212
v -0.493763 0.034980 -1.131000
v -0.503258 0.046311 -1.128231
v -0.513599 0.047263 -1.125462
v -0.523718 0.050571 -1.122692
v -0.534054 0.051569 -1.119923
v -0.544391 0.052567 -1.117154
v -0.554728 0.053565 -1.114385
v -0.627973 0.050500 -1.095000
v -0.627309 0.058165 -1.095000
v -0.508402 0.056975 -1.126577
v -0.493701 0.035839 -1.131000
v -0.625562 0.048604 -1.095681
v -0.628094 0.048966 -1.095000
v -0.502344 0.055358 -1.128231
v -0.503045 0.048575 -1.128231
v -0.513381 0.049573 -1.125462
v -0.523485 0.052926 -1.122692
v -0.533817 0.053971 -1.119923
v -0.544149 0.055015 -1.117154
v -0.554481 0.056060 -1.114385
v -0.627942 0.050883 -1.095000
v -0.627345 0.057782 -1.095000
v -0.510792 0.057052 -1.125942
v -0.493638 0.036699 -1.131000
v -0.623033 0.048243 -1.096361
v -0.502821 0.050837 -1.128231
v -0.513153 0.051882 -1.125462
v -0.627911 0.051267 -1.095000
v -0.627380 0.057399 -1.095000
v -0.513185 0.057130 -1.125305
v -0.493573 0.037558 -1.131000
v -0.620507 0.047882 -1.097039
v -0.502587 0.053098 -1.128231
v -0.512915 0.054189 -1.125462
v -0.627879 0.051650 -1.095000
v -0.627415 0.057015 -1.095000
v -0.515582 0.057208 -1.124668
v -0.493507 0.038418 -1.131000
v -0.617986 0.047522 -1.097717
v -0.627848 0.052033 -1.095000
v -0.627449 0.056632 -1.095000
v -0.517982 0.057287 -1.124029
v -0.493439 0.039277 -1.131000
v -0.615467 0.047162 -1.098394
v -0.627816 0.052417 -1.095000
v -0.627484 0.056249 -1.095000
v -0.520386 0.057365 -1.123390
v -0.493370 0.040136 -1.131000
v -0.612953 0.046803 -1.099070
v -0.627784 0.052800 -1.095000
v -0.627518 0.055866 -1.095000
v -0.522794 0.057443 -1.122749
v -0.493300 0.040995 -1.131000
v -0.610442 0.046445 -1.099745
v -0.627751 0.053183 -1.095000
v -0.627552 0.055483 -1.095000
v -0.525205 0.057522 -1.122108
v -0.493227 0.041854 -1.131000
v -0.607934 0.046086 -1.100419
v -0.627719 0.053567 -1.095000
v -0.627586 0.055100 -1.095000
v -0.527619 0.057600 -1.121466
v -0.493154 0.042713 -1.131000
v -0.605430 0.045729 -1.101092
v -0.627686 0.053950 -1.095000
v -0.627619 0.054717 -1.095000
v -0.530037 0.057679 -1.120822
v -0.493079 0.043571 -1.131000
v -0.602929 0.045371 -1.101764
v -0.627653 0.054333 -1.095000
v -0.532459 0.057758 -1.120178
v -0.493002 0.044430 -1.131000
v -0.600432 0.045015 -1.102435
v -0.534884 0.057837 -1.119533
v -0.492924 0.045288 -1.131000
v -0.597939 0.044659 -1.103106
v -0.537312 0.057916 -1.118887
v -0.492844 0.046146 -1.131000
v -0.595449 0.044303 -1.103775
v -0.621952 0.060679 -1.096359
v -0.539745 0.057996 -1.118240
v -0.492763 0.047005 -1.131000
v -0.592963 0.043948 -1.104443
v -0.619406 0.060595 -1.097036
v -0.542180 0.058075 -1.117592
v -0.492681 0.047863 -1.131000
v -0.590480 0.043593 -1.105110
v -0.616864 0.060512 -1.097713
v -0.544620 0.058155 -1.116942
v -0.492597 0.048720 -1.131000
v -0.588000 0.043239 -1.105777
v -0.614324 0.060429 -1.098389
v -0.547062 0.058234 -1.116292
v -0.492511 0.049578 -1.131000
v -0.585524 0.042885 -1.106442
v -0.611789 0.060347 -1.099065
v -0.549509 0.058314 -1.115642
v -0.492424 0.050436 -1.131000
v -0.583052 0.042532 -1.107106
v -0.609256 0.060264 -1.099739
v -0.551959 0.058394 -1.114990
v -0.492335 0.051293 -1.131000
v -0.580583 0.042179 -1.107770
v -0.606727 0.060181 -1.100412
v -0.554412 0.058474 -1.114337
v -0.492245 0.052150 -1.131000
v -0.578118 0.041827 -1.108432
v -0.604202 0.060099 -1.101084
v -0.556869 0.058554 -1.113683
v -0.492154 0.053007 -1.131000
v -0.575656 0.041475 -1.109094
v -0.601680 0.060016 -1.101756
v -0.559329 0.058634 -1.113028
v -0.492061 0.053864 -1.131000
v -0.573198 0.041124 -1.109754
v -0.599161 0.059934 -1.102426
v -0.561793 0.058715 -1.112373
v -0.491966 0.054721 -1.131000
v -0.570744 0.040773 -1.110414
v -0.596646 0.059852 -1.103096
v -0.564260 0.058795 -1.111716
v -0.568292 0.040423 -1.111072
v -0.594134 0.059770 -1.103764
v -0.566731 0.058876 -1.111059
v -0.498782 0.030488 -1.129743
v -0.565845 0.040073 -1.111730
v -0.591626 0.059688 -1.104432
v -0.569205 0.058956 -1.110400
v -0.501128 0.030824 -1.129113
v -0.563401 0.039724 -1.112387
v -0.589121 0.059606 -1.105099
v -0.571682 0.059037 -1.109741
v -0.503478 0.031160 -1.128482
v -0.560961 0.039375 -1.113042
v -0.586620 0.059525 -1.105765
v -0.574163 0.059118 -1.109080
v -0.505831 0.031496 -1.127850
v -0.558524 0.039027 -1.113697
v -0.584122 0.059443 -1.106430
v -0.576648 0.059199 -1.108419
v -0.508188 0.031833 -1.127218
v -0.556091 0.038680 -1.114351
v -0.581627 0.059362 -1.107094
v -0.510549 0.032171 -1.126584
v -0.553661 0.038332 -1.115004
v -0.579136 0.059280 -1.107757
v -0.512913 0.032509 -1.125949
v -0.551235 0.037986 -1.115655
v -0.515281 0.032847 -1.125313
v -0.548813 0.037640 -1.116306
v -0.517652 0.033186 -1.124676
v -0.546394 0.037294 -1.116956
v -0.520027 0.033526 -1.124038
v -0.543979 0.036949 -1.117605
v -0.522406 0.033866 -1.123399
v -0.541567 0.036604 -1.118253
v -0.524788 0.034206 -1.122759
v -0.539159 0.036260 -1.118899
v -0.527174 0.034547 -1.122119
v -0.536755 0.035916 -1.119545
v -0.529564 0.034889 -1.121477
v -0.534354 0.035573 -1.120190
v -0.531957 0.035231 -1.120834
f 1 2 3
f 4 5 6
f 7 8 9
f 10 11 12
f 13 14 15
f 16 17 18
f 19 20 21
f 22 23 24
f 25 26 27
f 28 29 30
f 31 32 33
f 34 35 36
f 37 38 39
f 40 41 42
f 43 44 45
f 46 1 3
f 47 4 6
f 48 7 9
f 49 10 12
f 50 13 15
f 51 16 18
f 52 19 21
f 53 22 24
f 54 25 27
f 55 28 30
f 56 31 33
f 57 34 36
f 58 37 39
f 59 40 42
f 60 43 45
f 61 46 3
f 62 47 6
f 63 48 9
f 64 49 12
f 65 50 15
f 66 51 18
f 67 52 21
f 68 53 24
f 69 54 27
f 70 55 30
f 71 56 33
f 72 57 36
f 73 58 39
f 74 59 42
f 75 60 45
f 45 61 3
f 76 62 6
f 77 63 9
f 78 64 12
f 79 65 15
f 80 66 18
f 81 67 21
f 82 68 24
f 83 69 27
f 84 70 30
f 85 71 33
f 86 72 36
f 87 73 39
f 39 74 42
f 42 75 45
f 45 3 88
f 89 76 6
f 90 77 9
f 91 78 12
f 92 79 15
f 93 80 18
f 94 81 21
f 95 82 24
f 96 83 27
f 97 84 30
f 98 85 33
f 99 86 36
f 100 87 39
f 45 88 101
f 102 89 6
f 103 90 9
f 104 91 12
f 105 92 15
f 106 93 18
f 107 94 21
f 108 95 24
f 109 96 27
f 110 97 30
f 30 98 33
f 33 99 36
f 36 100 39
f 45 101 111
f 112 102 6
f 113 103 9
f 114 104 12
f 115 116 117
f 118 105 15
f 119 106 18
f 120 107 21
f 121 108 24
f 122 109 27
f 123 110 30
f 36 39 42
f 45 111 124
f 125 112 6
f 126 113 9
f 127 114 12
f 128 115 117
f 129 118 15
f 130 119 18
f 18 120 21
f 21 121 24
f 24 122 27
f 36 42 45
f 45 124 131
f 132 125 6
f 133 126 9
f 134 127 12
f 135 128 117
f 136 129 15
f 137 130 18
f 45 131 138
f 139 132 6
f 140 133 9
f 141 134 12
f 142 135 117
f 117 136 15
f 15 137 18
f 45 138 143
f 144 139 6
f 145 140 9
f 146 141 12
f 147 142 117
f 15 18 21
f 45 143 148
f 149 144 6
f 150 145 9
f 151 146 12
f 152 147 117
f 15 21 24
f 45 148 153
f 154 149 6
f 155 150 9
f 156 151 12
f 157 152 117
f 45 153 158
f 159 154 6
f 160 155 9
f 161 156 12
f 162 157 117
f 45 158 163
f 164 159 6
f 165 160 9
f 166 161 12
f 167 162 117
f 45 163 168
f 169 164 6
f 170 165 9
f 171 166 12
f 172 167 117
f 45 168 173
f 173 169 6
f 174 170 9
f 175 171 12
f 176 172 117
f 45 173 6
f 177 174 9
f 178 175 12
f 179 176 117
f 36 45 6
f 180 177 9
f 181 178 12
f 182 179 117
f 36 6 183
f 184 180 9
f 185 181 12
f 186 182 117
f 36 183 187
f 188 184 9
f 189 185 12
f 190 186 117
f 36 187 191
f 192 188 9
f 193 189 12
f 194 190 117
f 36 191 195
f 196 192 9
f 197 193 12
f 198 194 117
f 36 195 199
f 200 196 9
f 201 197 12
f 202 198 117
f 36 199 203
f 204 200 9
f 205 201 12
f 206 202 117
f 15 24 27
f 36 203 207
f 208 204 9
f 209 205 12
f 210 206 117
f 27 123 30
f 36 207 211
f 212 208 9
f 213 209 12
f 214 210 117
f 27 30 33
f 36 211 215
f 216 212 9
f 217 213 12
f 218 214 117
f 36 215 219
f 220 216 9
f 221 217 12
f 222 218 117
f 27 33 36
f 36 219 223
f 224 220 9
f 9 221 12
f 225 222 117
f 36 223 226
f 227 224 9
f 9 12 228
f 229 225 117
f 36 226 230
f 231 227 9
f 9 228 232
f 233 229 117
f 36 230 234
f 235 231 9
f 9 232 236
f 237 233 117
f 36 234 238
f 239 235 9
f 9 236 240
f 241 237 117
f 36 238 242
f 243 239 9
f 9 240 244
f 245 241 117
f 36 242 246
f 9 244 247
f 248 245 117
f 36 246 249
f 9 247 250
f 251 248 117
f 36 249 243
f 9 250 252
f 253 251 117
f 27 36 243
f 9 252 254
f 255 253 117
f 9 254 256
f 257 255 117
f 9 256 258
f 259 257 117
f 9 258 260
f 261 259 117
f 9 260 262
f 263 261 117
f 9 262 264
f 265 263 117
f 9 264 266
f 266 265 117
f 9 266 117
f 9 117 15
f 243 9 15
