v -0.082072 0.016837 -0.671843
v -0.082072 0.220000 -0.671843
v -0.104692 0.220000 -0.720352
v -0.104692 0.000000 -0.720352
v -0.079032 0.000000 -0.665322
v -0.079032 0.010000 -0.665322
v -0.082072 0.016837 -0.671843
v -0.081969 0.016611 -0.671628
v -0.081861 0.016388 -0.671416
v -0.081748 0.016168 -0.671208
v -0.081631 0.015951 -0.671004
v -0.081510 0.015736 -0.670802
v -0.081384 0.015525 -0.670605
v -0.081255 0.015317 -0.670411
v -0.081121 0.015112 -0.670221
v -0.080983 0.014911 -0.670035
v -0.080841 0.014712 -0.669852
v -0.080696 0.014517 -0.669673
v -0.080547 0.014325 -0.669498
v -0.080394 0.014137 -0.669326
v -0.080237 0.013952 -0.669159
v -0.080077 0.013770 -0.668995
v -0.079913 0.013592 -0.668835
v -0.079746 0.013418 -0.668679
v -0.079576 0.013247 -0.668528
v -0.079403 0.013080 -0.668380
v -0.079226 0.012917 -0.668236
v -0.079047 0.012757 -0.668097
v -0.078864 0.012602 -0.667962
v -0.078679 0.012450 -0.667831
v -0.078490 0.012302 -0.667705
v -0.078299 0.012159 -0.667583
v -0.078106 0.012020 -0.667465
v -0.077910 0.011885 -0.667352
v -0.077711 0.011754 -0.667244
v -0.077510 0.011628 -0.667140
v -0.077307 0.011506 -0.667041
v -0.077102 0.011388 -0.666946
v -0.076895 0.011275 -0.666856
v -0.076686 0.011167 -0.666771
v -0.076476 0.011063 -0.666691
v -0.076264 0.010963 -0.666615
v -0.076051 0.010869 -0.666544
v -0.075837 0.010779 -0.666478
v -0.075621 0.010694 -0.666417
v -0.075405 0.010614 -0.666361
v -0.075189 0.010539 -0.666310
v -0.074971 0.010469 -0.666264
v -0.074754 0.010403 -0.666223
v -0.074536 0.010343 -0.666186
v -0.074318 0.010288 -0.666155
v -0.074100 0.010237 -0.666129
v -0.073882 0.010192 -0.666107
v -0.073664 0.010151 -0.666090
v -0.073446 0.010116 -0.666079
v -0.073229 0.010085 -0.666072
v -0.073011 0.010059 -0.666069
v -0.072795 0.010038 -0.666071
v -0.072579 0.010021 -0.666078
v -0.072364 0.010009 -0.666090
v -0.072149 0.010002 -0.666106
v -0.071935 0.010000 -0.666127
f 2 3 4
f 4 5 6
f 8 9 10
f 8 10 11
f 8 11 12
f 8 12 13
f 8 13 14
f 8 14 15
f 8 15 16
f 8 16 17
f 8 17 18
f 8 18 19
f 8 19 20
f 8 20 21
f 8 21 22
f 8 22 23
f 8 23 24
f 8 24 25
f 8 25 26
f 8 26 27
f 8 27 28
f 8 28 29
f 8 29 30
f 8 30 31
f 8 31 32
f 8 32 33
f 8 33 34
f 8 34 35
f 8 35 36
f 8 36 37
f 8 37 38
f 8 38 39
f 8 39 40
f 8 40 41
f 8 41 42
f 8 42 43
f 8 43 44
f 8 44 45
f 8 45 46
f 8 46 47
f 8 47 48
f 8 48 49
f 8 49 50
f 8 50 51
f 8 51 52
f 8 52 53
f 8 53 54
f 8 54 55
f 8 55 56
f 8 56 57
f 8 57 58
f 8 58 59
f 8 59 60
f 8 60 61
f 8 61 62
f 1 2 4
f 1 4 6
f 1 6 7
f 1 7 8
f 1 8 62
