v 1.825787 -1.102139 -5.555101
v 2.047614 -1.063435 -5.728443
v 2.047927 -1.063756 -5.727402
v 2.048240 -1.064076 -5.726361
v 2.048553 -1.064395 -5.725320
v 2.048864 -1.064712 -5.724279
v 2.049176 -1.065029 -5.723237
v 2.049486 -1.065344 -5.722196
v 2.049796 -1.065659 -5.721154
v 2.050105 -1.065972 -5.720113
v 2.050414 -1.066285 -5.719071
v 2.050722 -1.066596 -5.718029
v 2.051030 -1.066906 -5.716987
v 1.952132 -1.090959 -5.620405
v 2.051336 -1.067215 -5.715945
v 2.051643 -1.067523 -5.714903
v 2.051948 -1.067830 -5.713861
v 2.052253 -1.068136 -5.712818
v 1.945178 -1.091679 -5.616811
v 2.052558 -1.068440 -5.711776
v 2.052861 -1.068744 -5.710733
v 2.034924 -1.081433 -5.663198
v 2.053164 -1.069047 -5.709690
v 2.053467 -1.069348 -5.708648
v 2.053769 -1.069649 -5.707605
v 2.054070 -1.069948 -5.706562
v 2.054371 -1.070246 -5.705519
v 2.054671 -1.070543 -5.704476
v 2.054971 -1.070840 -5.703433
v 2.055270 -1.071135 -5.702389
v 2.055568 -1.071429 -5.701346
v 2.055866 -1.071722 -5.700303
v 2.056163 -1.072013 -5.699259
v 2.056460 -1.072304 -5.698216
v 2.056756 -1.072594 -5.697172
v 2.057051 -1.072883 -5.696128
v 2.057346 -1.073170 -5.695085
v 2.057640 -1.073457 -5.694041
v 2.057934 -1.073742 -5.692997
v 2.058227 -1.074026 -5.691953
v 2.058520 -1.074310 -5.690909
v 2.058812 -1.074592 -5.689865
v 2.059103 -1.074873 -5.688821
v 2.059393 -1.075153 -5.687777
v 2.059684 -1.075432 -5.686732
v 2.059973 -1.075710 -5.685688
v 2.060262 -1.075987 -5.684644
v 2.060550 -1.076262 -5.683599
v 2.060838 -1.076537 -5.682554
v 2.061125 -1.076811 -5.681510
v 2.061411 -1.077083 -5.680465
v 2.061697 -1.077355 -5.679420
v 2.061982 -1.077625 -5.678376
v 2.055442 -1.078796 -5.673804
v 2.062266 -1.077895 -5.677331
v 2.028069 -1.082289 -5.659655
v 2.021207 -1.083134 -5.656108
v 2.014336 -1.083967 -5.652557
v 2.007458 -1.084790 -5.649002
v 2.000571 -1.085601 -5.645442
v 1.993676 -1.086400 -5.641879
v 1.986773 -1.087189 -5.638311
v 1.979862 -1.087965 -5.634738
v 1.972942 -1.088731 -5.631162
v 1.966014 -1.089485 -5.627581
v 1.959077 -1.090228 -5.623995
v 1.938214 -1.092387 -5.613212
v 1.931242 -1.093084 -5.609608
v 1.924262 -1.093770 -5.606000
v 1.917273 -1.094444 -5.602388
v 1.910275 -1.095106 -5.598771
v 1.903270 -1.095757 -5.595150
v 1.896258 -1.096396 -5.591526
v 1.889238 -1.097023 -5.587897
v 1.882211 -1.097639 -5.584265
v 1.875178 -1.098243 -5.580630
v 1.868139 -1.098835 -5.576992
v 1.861093 -1.099416 -5.573350
v 1.854042 -1.099984 -5.569705
v 2.048610 -1.079686 -5.670272
v 1.846986 -1.100541 -5.566058
v 1.839924 -1.101086 -5.562408
v 1.832858 -1.101619 -5.558756
v 1.658878 -1.110854 -5.469097
v 1.818712 -1.102648 -5.551444
v 1.811633 -1.103145 -5.547786
v 1.804551 -1.103629 -5.544125
v 1.797466 -1.104101 -5.540463
v 1.790377 -1.104562 -5.536799
v 1.783284 -1.105010 -5.533133
v 1.776188 -1.105445 -5.529465
v 1.769088 -1.105869 -5.525795
v 1.761985 -1.106281 -5.522124
v 1.754878 -1.106680 -5.518450
v 1.747766 -1.107067 -5.514774
v 1.740651 -1.107442 -5.511097
v 1.612645 -1.111950 -5.448431
v 1.733532 -1.107805 -5.507417
v 1.726409 -1.108156 -5.503735
v 1.719281 -1.108494 -5.500051
v 1.712149 -1.108821 -5.496365
v 1.705013 -1.109135 -5.492676
v 1.697872 -1.109437 -5.488985
v 1.690727 -1.109727 -5.485292
v 1.683577 -1.110005 -5.481596
v 1.676422 -1.110271 -5.477898
v 1.670563 -1.110477 -5.474900
v 1.664714 -1.110672 -5.471966
v 1.437370 -1.112996 -5.403343
v 1.653053 -1.111026 -5.466291
v 1.647240 -1.111187 -5.463550
v 1.641441 -1.111337 -5.460873
v 1.635654 -1.111478 -5.458259
v 1.629880 -1.111609 -5.455708
v 1.624121 -1.111731 -5.453220
v 1.618376 -1.111844 -5.450795
v 1.606929 -1.112047 -5.446130
v 1.601229 -1.112137 -5.443890
v 1.595544 -1.112220 -5.441711
v 1.589876 -1.112297 -5.439594
v 1.584224 -1.112368 -5.437537
v 1.578588 -1.112433 -5.435540
v 1.572971 -1.112493 -5.433604
v 1.567370 -1.112548 -5.431727
v 1.561788 -1.112598 -5.429910
v 1.556222 -1.112645 -5.428152
v 1.550673 -1.112687 -5.426452
v 1.545141 -1.112725 -5.424810
v 1.539624 -1.112760 -5.423225
v 1.534124 -1.112791 -5.421697
v 1.528638 -1.112819 -5.420225
v 1.523168 -1.112844 -5.418809
v 1.517712 -1.112867 -5.417449
v 1.512269 -1.112886 -5.416143
v 1.506841 -1.112903 -5.414892
v 1.501426 -1.112918 -5.413694
v 1.496024 -1.112932 -5.412549
v 1.490635 -1.112943 -5.411458
v 1.485258 -1.112952 -5.410419
v 1.479892 -1.112961 -5.409431
v 1.474538 -1.112968 -5.408495
v 1.469195 -1.112974 -5.407609
v 1.463863 -1.112979 -5.406774
v 1.458542 -1.112984 -5.405989
v 1.453232 -1.112988 -5.405253
v 1.447934 -1.112991 -5.404567
v 1.442646 -1.112994 -5.403931
v 1.432106 -1.112998 -5.402803
v 1.426853 -1.112999 -5.402313
v 1.421613 -1.113000 -5.401870
v 1.416384 -1.113000 -5.401475
v 1.411167 -1.113001 -5.401127
v 1.405963 -1.113001 -5.400827
v 1.400771 -1.113001 -5.400573
v 1.395591 -1.113001 -5.400366
v 1.390424 -1.113000 -5.400206
v 1.385270 -1.113000 -5.400092
v 1.380128 -1.113000 -5.400023
v 1.375000 -1.113000 -5.400000
v 1.375000 -0.044816 -4.287903
v 1.375000 0.000000 -4.287000
v 0.825423 0.000000 -4.287000
v 0.749765 -0.260976 -4.318029
v 1.375000 -0.556500 -4.436114
v 0.760100 -0.242964 -4.313843
v 1.375000 -0.703912 -4.537865
v 0.981452 -0.899576 -4.744612
v 0.983100 -0.900122 -4.745363
v 0.825000 -0.866608 -4.701603
v 1.256942 -0.585919 -4.453708
v 0.600000 -0.866608 -4.701603
v 0.488878 -0.521917 -4.416958
v 0.464119 -0.537850 -4.425584
v 0.261949 -0.640619 -4.489856
v 0.285000 -0.866608 -4.701603
v 0.375000 -0.866608 -4.701603
v -0.497064 -0.752902 -4.580302
v 0.285000 -1.112993 -5.403945
v 0.285000 -1.112759 -5.376842
v -0.513902 -0.752285 -4.579734
v -0.508296 -0.752486 -4.579919
v -0.530665 -0.751717 -4.579214
v -0.519500 -0.752089 -4.579554
v 0.285000 -1.111481 -5.458127
v -0.525088 -0.751899 -4.579381
v -0.536230 -0.751543 -4.579054
v -0.541782 -0.751377 -4.578902
v -0.547324 -0.751219 -4.578757
v -0.552854 -0.751068 -4.578620
v -0.558375 -0.750926 -4.578489
v -0.563885 -0.750791 -4.578366
v -0.569387 -0.750665 -4.578251
v -0.574880 -0.750546 -4.578142
v 0.285000 -1.109736 -5.485175
v -0.580365 -0.750435 -4.578041
v -0.585842 -0.750332 -4.577947
v -0.591312 -0.750237 -4.577860
v -0.596775 -0.750149 -4.577780
v -0.602232 -0.750069 -4.577707
v -0.607684 -0.749997 -4.577642
v -0.613131 -0.749933 -4.577583
v -0.618573 -0.749876 -4.577531
v -0.624011 -0.749827 -4.577487
v -0.629446 -0.749786 -4.577449
v -1.171011 -0.590764 -4.456726
v -2.540000 -0.590764 -4.456726
v -2.367014 -0.749823 -4.577483
v -2.962817 -0.577585 -4.448598
v -2.792202 -0.513975 -4.412785
v -2.800375 -0.507939 -4.409667
v -2.587500 -0.300000 -6.471806
v -2.736743 -0.300000 -6.471806
v -2.738741 -0.294691 -6.473278
v -2.861409 -0.295085 -6.473170
v -2.863257 -0.300000 -6.471806
v -3.012500 -0.300000 -6.471806
v -2.625969 -0.582895 -4.451843
v -2.806752 -0.798247 -6.175611
v -2.793539 -0.798254 -6.175604
v -2.915000 0.000000 -4.287000
v -3.575000 0.000000 -4.287000
v -3.373669 -0.204513 -4.305951
v -2.915000 -0.250797 -4.315625
v -2.962500 -0.300000 -4.328194
v -2.915000 -0.258260 -4.317378
v -3.387500 -0.300000 -4.328194
v -3.575000 -0.089559 -4.290609
v -2.793215 -0.211235 -6.492771
v -2.543183 0.000000 -6.513000
v -2.542412 -0.025645 -6.512704
v -2.432232 -1.044863 -5.783448
v -2.435959 -1.035728 -5.807484
v -2.428572 -1.053451 -5.759179
v -2.425000 -1.061487 -5.734686
v 2.046037 -1.061814 -5.733645
v 2.046354 -1.062141 -5.732605
v 2.045720 -1.061487 -5.734686
v 2.046985 -1.062790 -5.730524
v 2.047300 -1.063113 -5.729483
v 2.041771 -1.080565 -5.666737
v 1.375000 -0.089559 -4.290609
v 0.769602 -0.224987 -4.309978
v 0.979804 -0.899033 -4.743868
v 0.699833 -0.333010 -4.337987
v 0.713623 -0.315045 -4.332521
v 0.960000 -0.892854 -4.735484
v 0.512662 -0.505730 -4.408534
v 0.438364 -0.553511 -4.434395
v 0.293973 -0.627073 -4.480472
v 0.228924 -0.653663 -4.499173
v 0.285000 -1.112567 -5.431045
v -1.161005 -0.597167 -4.460767
v -2.783789 -0.519826 -4.415851
v -2.740753 -0.289509 -6.474688
v -2.859552 -0.290283 -6.474479
v -2.769676 -0.749823 -4.577483
v -2.915000 -0.007666 -4.287026
v -3.575000 -0.178538 -4.301413
v -2.808668 -0.211907 -6.492641
v -3.575000 0.000000 -6.513000
v -2.439732 -1.026049 -5.831280
v 2.046670 -1.062466 -5.731565
v 1.375000 -0.134157 -4.295115
v 0.778288 -0.207060 -4.306431
v 0.978155 -0.898495 -4.743132
v 0.825000 -0.883357 -4.722912
v 0.685158 -0.350910 -4.343765
v 0.535487 -0.489303 -4.400325
v 0.510000 -0.866608 -4.701603
v 0.324969 -0.613079 -4.471080
v 0.250288 -0.749823 -4.577483
v -0.502683 -0.752692 -4.580109
v -1.151000 -0.603413 -4.464767
v -2.775147 -0.525480 -4.418857
v -2.742776 -0.284456 -6.476036
v -2.857686 -0.285594 -6.475735
v -2.819890 -0.797427 -6.176454
v -2.915000 -0.015331 -4.287106
v -3.575000 -0.266358 -4.319342
v -2.811448 -0.213271 -6.492376
v -2.443529 -1.015831 -5.854827
v 1.375000 -0.178538 -4.301413
v 0.786175 -0.189198 -4.303199
v 0.976506 -0.897961 -4.742402
v 0.854280 -0.888193 -4.729268
v 0.669590 -0.368724 -4.349853
v 0.652949 -0.749823 -4.577483
v 0.411592 -0.568884 -4.443370
v 0.354912 -0.598689 -4.461735
v 0.194925 -0.666154 -4.508368
v 0.160008 -0.678036 -4.517376
v -0.491442 -0.753115 -4.580497
v -1.140998 -0.609506 -4.468724
v -2.766285 -0.530929 -4.421795
v -2.744810 -0.279533 -6.477325
v -2.855811 -0.281019 -6.476939
v -2.832842 -0.795839 -6.178082
v -2.915000 -0.022996 -4.287238
v -3.387500 -0.306927 -4.330157
v -2.814102 -0.214923 -6.492052
v -2.447329 -1.005079 -5.878117
v 1.375000 -0.222629 -4.309493
v 0.793281 -0.171416 -4.300279
v 0.974857 -0.897432 -4.741679
v 0.825000 -0.899583 -4.744622
v 0.960000 -0.907616 -4.755793
v 0.653127 -0.386432 -4.356240
v 0.735000 -0.866608 -4.701603
v 0.557370 -0.472648 -4.392344
v 0.383781 -0.583949 -4.452490
v 0.124349 -0.689244 -4.526107
v -0.485818 -0.753330 -4.580695
v 0.285000 -1.107333 -5.512172
v -0.639174 -0.749722 -4.577390
v -1.130999 -0.615445 -4.472636
v -2.757215 -0.536168 -4.424656
v -2.746855 -0.274741 -6.478558
v -2.853928 -0.276558 -6.478093
v -2.845493 -0.793525 -6.180440
v -2.915000 -0.030659 -4.287422
v -3.575000 -0.352451 -4.344279
v -3.172338 -0.204513 -6.494049
v -2.451110 -0.993798 -5.901141
v 1.050000 -1.091525 -5.617582
v 1.375000 -0.266358 -4.319342
v 1.256942 -0.204513 -4.305951
v 0.799624 -0.153728 -4.297667
v 0.973207 -0.896906 -4.740964
v 0.825000 -0.915275 -4.766722
v 0.635770 -0.404012 -4.362919
v 0.735000 -0.883357 -4.722912
v 0.510000 -0.883357 -4.722912
v 0.088152 -0.699710 -4.534467
v -0.480193 -0.753547 -4.580894
v -1.121004 -0.621232 -4.476500
v -2.747949 -0.541191 -4.427435
v -2.748914 -0.270077 -6.479735
v -2.852037 -0.272212 -6.479199
v -2.857738 -0.790530 -6.183475
v -2.915000 -0.038321 -4.287660
v -3.387500 -0.313840 -4.332164
v -3.575000 -0.266358 -6.480658
v -3.575000 -0.178538 -6.498587
v 1.375000 -0.309656 -4.330943
v 0.805221 -0.136142 -4.295358
v 0.971558 -0.896385 -4.740255
v 0.960000 -0.921916 -4.776429
v 0.617518 -0.421443 -4.369878
v 0.600000 -0.883357 -4.722912
v 0.375000 -0.883357 -4.722912
v 0.510000 -0.899583 -4.744622
v 0.451619 -0.888193 -4.729268
v 0.051622 -0.709367 -4.542359
v -0.474569 -0.753763 -4.581093
v -1.111013 -0.626869 -4.480314
v -2.738498 -0.545991 -4.430122
v -2.750988 -0.265542 -6.480859
v -2.850136 -0.267980 -6.480257
v -2.869555 -0.786861 -6.187162
v -2.915000 -0.045981 -4.287950
v -3.387500 -0.320741 -4.334217
v -3.012500 -0.305645 -6.470210
v -3.012500 -0.311282 -6.468584
v 1.375000 -0.352451 -4.344279
v 0.810093 -0.118667 -4.293344
v 0.969907 -0.895868 -4.739553
v 0.825000 -0.930424 -4.789196
v 0.598371 -0.438705 -4.377109
v 0.652949 -0.888193 -4.729268
v 0.510000 -0.915275 -4.766722
v 0.375000 -0.899583 -4.744622
v 0.375000 -0.915275 -4.766722
v 0.014965 -0.718147 -4.549686
v -1.101026 -0.632356 -4.484077
v -2.728874 -0.550565 -4.432711
v -2.753078 -0.261135 -6.481932
v -2.848224 -0.263861 -6.481271
v -2.880998 -0.782496 -6.191501
v -2.915000 -0.053639 -4.288293
v -3.387500 -0.327628 -4.336314
v -3.575000 -0.352451 -6.455721
v 1.375000 -0.394675 -4.359327
v 0.814259 -0.101311 -4.291621
v 0.968257 -0.895355 -4.738858
v 0.960000 -0.935747 -4.797383
v 0.652949 -0.585919 -4.453708
v 0.735000 -0.899583 -4.744622
v 0.600000 -0.899583 -4.744622
v 0.510000 -0.930424 -4.789196
v 0.285000 -0.883357 -4.722912
v 0.285000 -1.104273 -5.539102
v -0.648906 -0.749572 -4.577252
v -1.091045 -0.637696 -4.487786
v -2.719090 -0.554905 -4.435195
v -2.755188 -0.256854 -6.482957
v -2.846303 -0.259858 -6.482240
v -2.808301 -0.501728 -4.406507
v -2.915000 -0.061295 -4.288689
v -3.387500 -0.334502 -4.338455
v 1.375000 -0.436259 -4.376063
v 0.817737 -0.084080 -4.290180
v 0.966606 -0.894846 -4.738170
v 0.825000 -0.945021 -4.812033
v 0.578326 -0.455778 -4.384601
v 0.375000 -0.930424 -4.789196
v 0.510000 -0.945021 -4.812033
v 0.285000 -0.899583 -4.744622
v -1.081070 -0.642890 -4.491438
v -2.709156 -0.559006 -4.437565
v -2.757321 -0.252697 -6.483934
v -2.844370 -0.255974 -6.483165
v -2.892119 -0.777413 -6.196492
v -2.915000 -0.068948 -4.289138
v -3.387500 -0.341362 -4.340641
v 1.375000 -0.477135 -4.394460
v 0.820546 -0.066984 -4.289017
v 0.738580 -0.279007 -4.322539
v 0.825000 -0.959058 -4.835219
v 0.960000 -0.949101 -4.818643
v 0.735000 -0.915275 -4.766722
v 0.600000 -0.915275 -4.766722
v 0.375000 -0.945021 -4.812033
v 0.510000 -0.959058 -4.835219
v 0.048957 -0.749823 -4.577483
v -1.071100 -0.647938 -4.495032
v -2.699084 -0.562862 -4.439815
v -2.759481 -0.248663 -6.484867
v -2.842425 -0.252210 -6.484048
v -2.815969 -0.495354 -4.403314
v -2.962500 -0.558032 -4.437000
v -2.915000 -0.076597 -4.289639
v -3.387500 -0.348207 -4.342871
v 1.375000 -0.517237 -4.414487
v 1.256942 -0.402062 -4.362158
v 0.822703 -0.050024 -4.288125
v 0.964955 -0.894342 -4.737488
v 0.825000 -0.972526 -4.858740
v 0.960000 -0.961973 -4.840200
v 0.600000 -0.930424 -4.789196
v 0.735000 -0.930424 -4.789196
v 0.375000 -0.959058 -4.835219
v 0.510000 -0.972526 -4.858740
v -0.021623 -0.725996 -4.556366
v 0.250288 -0.888193 -4.729268
v -0.658643 -0.749335 -4.577034
v -1.061138 -0.652843 -4.498565
v -2.688890 -0.566472 -4.441939
v -2.761672 -0.244749 -6.485756
v -2.840468 -0.248571 -6.484888
v -2.823372 -0.488828 -4.400096
v -2.915000 -0.084243 -4.290193
v -3.387500 -0.355038 -4.345146
v 0.824225 -0.033205 -4.287495
v 0.963304 -0.893842 -4.736814
v 0.960000 -0.974356 -4.862041
v 0.600000 -0.945021 -4.812033
v 0.735000 -0.959058 -4.835219
v 0.735000 -0.945021 -4.812033
v 0.375000 -0.972526 -4.858740
v 0.510000 -0.985417 -4.882581
v 0.285000 -0.915275 -4.766722
v -0.057981 -0.732917 -4.562366
v 0.285000 -1.100559 -5.565950
v -1.051183 -0.657606 -4.502035
v -2.678586 -0.569834 -4.443934
v -2.763908 -0.240956 -6.486605
v -2.838499 -0.245057 -6.485687
v -2.902968 -0.771590 -6.202133
v -2.915000 -0.091884 -4.290799
v -3.387500 -0.361853 -4.347464
v 0.825126 -0.016529 -4.287123
v 0.961652 -0.893346 -4.736146
v 0.825000 -0.985417 -4.882581
v 0.600000 -0.959058 -4.835219
v 0.375000 -0.985417 -4.882581
v 0.510000 -0.997724 -4.906730
v 0.285000 -0.930424 -4.789196
v -0.668383 -0.749011 -4.576737
v -1.041236 -0.662228 -4.505440
v -2.668189 -0.572948 -4.445796
v -2.766200 -0.237282 -6.487413
v -2.836514 -0.241670 -6.486446
v -2.830500 -0.482162 -4.396863
v -2.962500 -0.545528 -4.429862
v -2.915000 -0.099522 -4.291458
v -3.387500 -0.368654 -4.349827
v 1.375000 -0.594860 -4.459303
v 0.984748 -0.900673 -4.746121
v 0.960000 -0.986242 -4.884155
v 0.735000 -0.972526 -4.858740
v 0.600000 -0.972526 -4.858740
v 0.451619 -0.996317 -4.903893
v 0.375000 -0.997724 -4.906730
v 0.510000 -1.009440 -4.931171
v 0.285000 -0.945021 -4.812033
v 0.285000 -1.096192 -5.592700
v -1.031297 -0.666709 -4.508778
v -2.657714 -0.575811 -4.447522
v -2.768562 -0.233727 -6.488182
v -2.834515 -0.238411 -6.487166
v -2.962500 -0.532932 -4.422885
v -2.837344 -0.475365 -4.393622
v -2.915000 -0.107154 -4.292170
v -3.387500 -0.375439 -4.352234
v 1.375000 -0.632256 -4.484019
v 0.986396 -0.901228 -4.746886
v 1.375000 -0.738056 -4.566908
v 0.726535 -0.297037 -4.327371
v 0.825000 -0.997724 -4.906730
v 0.735000 -0.985417 -4.882581
v 0.600000 -0.985417 -4.882581
v 0.375000 -1.009440 -4.931171
v 0.510000 -1.020556 -4.955890
v -0.093958 -0.738928 -4.567666
v -0.678128 -0.748599 -4.576361
v 0.285000 -1.091174 -5.619335
v -1.021367 -0.671053 -4.512047
v -2.647175 -0.578424 -4.449107
v -2.770999 -0.230303 -6.488912
v -2.832492 -0.235278 -6.487848
v -2.913526 -0.765018 -6.208403
v -2.915000 -0.114782 -4.292934
v -3.387500 -0.382209 -4.354684
v 1.375000 -0.668626 -4.510220
v 0.988044 -0.901787 -4.747659
v 0.960000 -0.997627 -4.906533
v 0.854280 -0.996317 -4.903893
v 0.735000 -0.997724 -4.906730
v 0.600000 -0.997724 -4.906730
v 0.652949 -0.996317 -4.903893
v 0.375000 -1.020556 -4.955890
v 0.510000 -1.031068 -4.980872
v 0.285000 -0.959058 -4.835219
v -0.687875 -0.748098 -4.575904
v -1.011446 -0.675260 -4.515244
v -2.636589 -0.580786 -4.450549
v -2.773500 -0.227041 -6.489597
v -2.830430 -0.232263 -6.488496
v -2.843896 -0.468451 -4.390385
v -2.962500 -0.520246 -4.416073
v -2.915000 -0.122404 -4.293751
v -3.387500 -0.388963 -4.357178
v 1.256942 -0.749823 -4.577483
v 0.989691 -0.902351 -4.748439
v 0.735000 -1.009440 -4.931171
v 0.600000 -1.009440 -4.931171
v 0.375000 -1.031068 -4.980872
v 0.510000 -1.040968 -5.006103
v 0.285000 -0.972526 -4.858740
v -1.001536 -0.679331 -4.518367
v -2.776056 -0.223972 -6.490232
v -2.828312 -0.229358 -6.489112
v -2.962500 -0.507474 -4.409425
v -2.850152 -0.461427 -4.387156
v -2.915000 -0.130020 -4.294621
v -3.387500 -0.395700 -4.359716
v 0.991339 -0.902918 -4.749226
v 0.960000 -1.008504 -4.929161
v 0.825000 -1.009440 -4.931171
v 0.735000 -1.020556 -4.955890
v 0.600000 -1.020556 -4.955890
v 0.375000 -1.040968 -5.006103
v 0.510000 -1.050251 -5.031568
v -0.129402 -0.744045 -4.572245
v -0.991635 -0.683268 -4.521414
v -2.615329 -0.584751 -4.452986
v -2.778658 -0.221129 -6.490812
v -2.826121 -0.226555 -6.489698
v -2.923730 -0.757699 -6.215266
v -2.915000 -0.137630 -4.295542
v -3.575000 -0.436259 -4.376063
v 1.009429 -0.909435 -4.758364
v 1.375000 -0.771002 -4.597302
v 0.992986 -0.903490 -4.750020
v 0.960000 -1.018868 -4.952029
v 0.825000 -1.020556 -4.955890
v 0.735000 -1.031068 -4.980872
v 0.600000 -1.031068 -4.980872
v 0.375000 -1.050251 -5.031568
v 0.510000 -1.058911 -5.057251
v 0.285000 -0.985417 -4.882581
v -0.981746 -0.687072 -4.524383
v -2.604668 -0.586355 -4.453977
v -2.781324 -0.218539 -6.491334
v -2.823855 -0.223872 -6.490252
v -2.856111 -0.454303 -4.383941
v -2.962500 -0.501056 -4.406163
v -2.971007 -0.204513 -4.305951
v -3.387500 -0.402421 -4.362297
v 1.375000 -0.802698 -4.628998
v 1.032262 -0.918399 -4.771262
v 0.994633 -0.904067 -4.750822
v 0.960000 -1.028713 -4.975125
v 0.825000 -1.031068 -4.980872
v 0.735000 -1.040968 -5.006103
v 0.600000 -1.040968 -5.006103
v 0.375000 -1.058911 -5.057251
v 0.510000 -1.066943 -5.083137
v 0.285000 -0.997724 -4.906730
v -0.971868 -0.690745 -4.527273
v -2.593983 -0.587708 -4.454816
v -2.784090 -0.216226 -6.491795
v -2.821518 -0.221337 -6.490770
v -2.962500 -0.488157 -4.399764
v -2.861775 -0.447087 -4.380746
v -2.915000 -0.145234 -4.296516
v -3.387500 -0.409125 -4.364922
v 1.038733 -0.921091 -4.775211
v 1.040347 -0.921773 -4.776218
v 0.996279 -0.904647 -4.751631
v 0.960000 -1.038035 -4.998437
v 0.825000 -1.040968 -5.006103
v 0.735000 -1.050251 -5.031568
v 0.600000 -1.050251 -5.031568
v 0.375000 -1.066943 -5.083137
v 0.451619 -1.070512 -5.095413
v -0.164160 -0.748285 -4.576083
v -0.962000 -0.694288 -4.530084
v -2.780368 -0.797447 -6.176435
v -2.786993 -0.214213 -6.492191
v -2.819116 -0.218982 -6.491245
v -2.867143 -0.439787 -4.377574
v -2.962500 -0.475177 -4.393533
v -2.915000 -0.152831 -4.297543
v -3.387500 -0.415811 -4.367590
v 1.043570 -0.923147 -4.778253
v 1.041959 -0.922458 -4.777232
v 0.997925 -0.905231 -4.752447
v 0.960000 -1.046829 -5.021954
v 0.825000 -1.050251 -5.031568
v 0.735000 -1.058911 -5.057251
v 0.600000 -1.058911 -5.057251
v 0.510000 -1.074342 -5.109211
v 0.375000 -1.074342 -5.109211
v 0.510000 -1.081104 -5.135458
v 0.285000 -1.009440 -4.931171
v -0.952142 -0.697704 -4.532816
v -2.583267 -0.588812 -4.455503
v -2.790050 -0.212531 -6.492520
v -2.816650 -0.216835 -6.491674
v -2.933515 -0.749634 -6.222689
v -2.915000 -0.160420 -4.298622
v -3.387500 -0.422481 -4.370302
v 1.046788 -0.924535 -4.780320
v 1.045180 -0.923839 -4.779283
v 0.999571 -0.905820 -4.753270
v 0.960000 -1.055090 -5.045663
v 0.825000 -1.058911 -5.057251
v 0.735000 -1.066943 -5.083137
v 0.600000 -1.066943 -5.083137
v 0.375000 -1.081104 -5.135458
v 0.510000 -1.087225 -5.161861
v 0.285000 -1.020556 -4.955890
v -0.942292 -0.700994 -4.535468
v -2.572516 -0.589668 -4.456037
v -2.872215 -0.432411 -4.374433
v -2.962500 -0.468656 -4.390480
v -2.915000 -0.168002 -4.299753
v -3.387500 -0.429133 -4.373056
v 1.050000 -0.925938 -4.782418
v 1.048395 -0.925235 -4.781365
v 1.001216 -0.906412 -4.754101
v 0.960000 -1.062814 -5.069552
v 0.825000 -1.066943 -5.083137
v 0.735000 -1.074342 -5.109211
v 0.652949 -1.070512 -5.095413
v 0.375000 -1.087225 -5.161861
v 0.510000 -1.092702 -5.188406
v -0.198114 -0.751669 -4.579169
v -0.932452 -0.704160 -4.538039
v -2.767364 -0.795866 -6.178054
v -3.373669 -0.204513 -6.494049
v -2.962500 -0.455557 -4.384502
v -2.876993 -0.424967 -4.371325
v -2.915000 -0.175576 -4.300936
v -3.387500 -0.435766 -4.375853
v 1.375000 -0.862135 -4.696088
v 1.375000 -0.833092 -4.661944
v 1.002860 -0.907009 -4.754939
v 0.960000 -1.069997 -5.093609
v 0.825000 -1.074342 -5.109211
v 0.854280 -1.070512 -5.095413
v 0.600000 -1.074342 -5.109211
v 0.735000 -1.081104 -5.135458
v 0.600000 -1.081104 -5.135458
v 0.375000 -1.092702 -5.188406
v 0.510000 -1.097530 -5.215076
v 0.285000 -1.031068 -4.980872
v -0.922619 -0.707205 -4.540531
v -2.561724 -0.590278 -4.456419
v -2.942819 -0.740821 -6.230636
v -2.915000 -0.183141 -4.302171
v -3.387500 -0.442382 -4.378693
v 1.375000 -0.915981 -4.767744
v 1.375000 -0.889780 -4.731374
v 1.004503 -0.907610 -4.755785
v 0.960000 -1.076636 -5.117822
v 0.825000 -1.081104 -5.135458
v 0.735000 -1.087225 -5.161861
v 0.600000 -1.087225 -5.161861
v 0.375000 -1.097530 -5.215076
v 0.510000 -1.101707 -5.241856
v 0.285000 -1.040968 -5.006103
v -0.912794 -0.710129 -4.542943
v -2.550887 -0.590643 -4.456649
v -2.962500 -0.442382 -4.378693
v -2.881475 -0.417465 -4.368258
v -2.915000 -0.190698 -4.303459
v -3.387500 -0.448979 -4.381576
v 1.185000 -1.001197 -4.913818
v 1.375000 -0.940697 -4.805140
v 1.006146 -0.908214 -4.756637
v 0.960000 -1.082727 -5.142179
v 0.825000 -1.087225 -5.161861
v 0.735000 -1.092702 -5.188406
v 0.600000 -1.092702 -5.188406
v 0.375000 -1.101707 -5.241856
v 0.510000 -1.105232 -5.268729
v -0.231282 -0.754234 -4.581521
v -0.902977 -0.712934 -4.545274
v -2.951612 -0.731245 -6.239081
v -2.915000 -0.198246 -4.304798
v -3.387500 -0.455557 -4.384502
v 1.375000 -0.985513 -4.882763
v 1.375000 -0.963886 -4.843500
v 1.007788 -0.908823 -4.757497
v 0.960000 -1.088267 -5.166667
v 0.825000 -1.092702 -5.188406
v 0.735000 -1.097530 -5.215076
v 0.600000 -1.097530 -5.215076
v 0.375000 -1.105232 -5.268729
v 0.510000 -1.108100 -5.295681
v 0.285000 -1.050251 -5.031568
v -0.893165 -0.715624 -4.547524
v -2.754649 -0.793555 -6.180410
v -2.962500 -0.435766 -4.375853
v -2.885662 -0.409912 -4.365234
v -2.915000 -0.205784 -4.306189
v -3.387500 -0.462116 -4.387470
v 1.375000 -1.005540 -4.922865
v 0.960000 -1.093253 -5.191274
v 0.825000 -1.097530 -5.215076
v 0.735000 -1.101707 -5.241856
v 0.600000 -1.101707 -5.241856
v 0.375000 -1.108100 -5.295681
v 0.451619 -1.108252 -5.297305
v -0.263713 -0.756018 -4.583169
v -0.883360 -0.718198 -4.549694
v -2.742341 -0.790553 -6.183452
v -2.889557 -0.402316 -4.362259
v -2.962500 -0.422481 -4.370302
v -2.915000 -0.213313 -4.307633
v -3.387500 -0.468656 -4.390480
v 1.375000 -1.023937 -4.963741
v 1.011069 -0.910051 -4.759238
v 0.960000 -1.097683 -5.215987
v 0.960000 -1.101555 -5.240794
v 0.735000 -1.105232 -5.268729
v 0.600000 -1.105232 -5.268729
v 0.510000 -1.110312 -5.322694
v 0.375000 -1.110312 -5.322694
v 0.510000 -1.111865 -5.349753
v 0.285000 -1.058911 -5.057251
v -0.873559 -0.720660 -4.551782
v -2.730468 -0.786868 -6.187154
v -2.959882 -0.720879 -6.248003
v -2.915000 -0.220832 -4.309128
v -3.387500 -0.475177 -4.393533
v 1.375000 -1.040673 -5.005325
v 1.012707 -0.910671 -4.760120
v 0.825000 -1.101707 -5.241856
v 0.960000 -1.104865 -5.265681
v 0.735000 -1.108100 -5.295681
v 0.600000 -1.108100 -5.295681
v 0.375000 -1.111865 -5.349753
v 0.510000 -1.112759 -5.376842
v 0.285000 -1.066943 -5.083137
v -0.863764 -0.723011 -4.553789
v -2.718981 -0.782485 -6.191511
v -2.893162 -0.394687 -4.359335
v -2.962500 -0.415811 -4.367590
v -2.915000 -0.228340 -4.310675
v -3.575000 -0.517237 -4.414487
v 1.375000 -1.055721 -5.047549
v 1.375000 -1.069057 -5.090344
v 1.014345 -0.911295 -4.761009
v 0.825000 -1.105232 -5.268729
v 0.960000 -1.107614 -5.290637
v 0.652949 -1.108252 -5.297305
v 0.735000 -1.110312 -5.322694
v 0.600000 -1.110312 -5.322694
v 0.375000 -1.112759 -5.376842
v 0.510000 -1.112993 -5.403945
v -0.295461 -0.757063 -4.584139
v -0.853973 -0.725252 -4.555715
v -2.707829 -0.777386 -6.196518
v -2.896479 -0.387031 -4.356465
v -2.962500 -0.409125 -4.364922
v -2.915000 -0.235837 -4.312273
v -3.387500 -0.481677 -4.396627
v 1.050000 -1.067694 -5.085678
v 1.015981 -0.911923 -4.761904
v 0.825000 -1.108100 -5.295681
v 0.854280 -1.108252 -5.297305
v 0.735000 -1.111865 -5.349753
v 0.600000 -1.111865 -5.349753
v 0.375000 -1.112993 -5.403945
v 0.510000 -1.112567 -5.431045
v 0.285000 -1.074342 -5.109211
v -0.844185 -0.727387 -4.557559
v -2.696966 -0.771554 -6.202168
v -2.967616 -0.709700 -6.257378
v -2.915000 -0.243323 -4.313923
v -3.387500 -0.488157 -4.399764
v 1.375000 -1.080658 -5.133642
v 1.050000 -1.073804 -5.107231
v 1.017616 -0.912554 -4.762808
v 0.960000 -1.109799 -5.315649
v 0.825000 -1.110312 -5.322694
v 0.960000 -1.111419 -5.340703
v 0.735000 -1.112759 -5.376842
v 0.600000 -1.112759 -5.376842
v 0.375000 -1.112567 -5.431045
v 0.510000 -1.111481 -5.458127
v 0.285000 -1.081104 -5.135458
v -0.834401 -0.729416 -4.559320
v -2.686408 -0.764979 -6.208441
v -2.962500 -0.395700 -4.359716
v -2.899512 -0.379359 -4.353652
v -3.387500 -0.494617 -4.402943
v 1.050000 -1.084716 -5.150683
v 1.375000 -1.090507 -5.177371
v 1.019250 -0.913189 -4.763718
v 0.825000 -1.111865 -5.349753
v 0.960000 -1.112474 -5.365788
v 0.735000 -1.112993 -5.403945
v 0.600000 -1.112993 -5.403945
v 0.375000 -1.111481 -5.458127
v 0.510000 -1.109736 -5.485175
v -0.326574 -0.757407 -4.584461
v -0.824620 -0.731341 -4.561000
v -2.676211 -0.757659 -6.215305
v -2.962500 -0.388963 -4.357178
v -2.902264 -0.371678 -4.350898
v -2.915000 -0.265710 -4.319182
v -3.387500 -0.501056 -4.406163
v 1.375000 -1.098587 -5.221462
v 1.050000 -1.093871 -5.194538
v 1.020882 -0.913828 -4.764635
v 0.825000 -1.112759 -5.376842
v 0.960000 -1.112963 -5.390890
v 0.735000 -1.112567 -5.431045
v 0.600000 -1.112567 -5.431045
v 0.375000 -1.109736 -5.485175
v 0.510000 -1.107333 -5.512172
v 0.285000 -1.087225 -5.161861
v -0.814840 -0.733164 -4.562598
v -2.666435 -0.749591 -6.222728
v -2.974801 -0.697683 -6.267181
v -2.915000 -0.273148 -4.321038
v -3.387500 -0.507474 -4.409425
v 1.050000 -1.101254 -5.238727
v 1.375000 -1.104885 -5.265843
v 1.022512 -0.914470 -4.765560
v 0.825000 -1.112993 -5.403945
v 0.960000 -1.112885 -5.415997
v 0.735000 -1.111481 -5.458127
v 0.600000 -1.111481 -5.458127
v 0.451619 -1.108252 -5.502695
v 0.375000 -1.107333 -5.512172
v 0.510000 -1.104273 -5.539102
v 0.285000 -1.092702 -5.188406
v -0.805062 -0.734888 -4.564112
v -2.657135 -0.740771 -6.230681
v -2.962500 -0.375439 -4.352234
v -2.904736 -0.363996 -4.348206
v -2.915000 -0.280573 -4.322945
v -3.387500 -0.513871 -4.412728
v 1.375000 -1.109391 -5.310441
v 1.256942 -1.108252 -5.297305
v 1.024141 -0.915116 -4.766492
v 0.825000 -1.112567 -5.431045
v 0.960000 -1.112241 -5.441095
v 0.735000 -1.109736 -5.485175
v 0.600000 -1.109736 -5.485175
v 0.375000 -1.104273 -5.539102
v 0.510000 -1.100559 -5.565950
v -0.331919 -0.757369 -4.584426
v -0.795286 -0.736512 -4.565545
v -2.648341 -0.731183 -6.239134
v -2.981412 -0.684832 -6.277365
v -2.915000 -0.287984 -4.324903
v -3.387500 -0.520246 -4.416073
v 1.050000 -1.110657 -5.327816
v 1.375000 -1.112097 -5.355184
v 1.025768 -0.915765 -4.767431
v 0.825000 -1.111481 -5.458127
v 0.735000 -1.107333 -5.512172
v 0.652949 -1.108252 -5.502695
v 0.375000 -1.100559 -5.565950
v 0.510000 -1.096192 -5.592700
v -0.337270 -0.757325 -4.584385
v -1.561691 -1.070512 -5.095413
v -2.640070 -0.720809 -6.248062
v -2.962500 -0.368654 -4.349827
v -2.906933 -0.356323 -4.345579
v -2.915000 -0.295382 -4.326912
v -3.387500 -0.526600 -4.419459
v 1.027394 -0.916418 -4.768378
v 0.960000 -1.111031 -5.466173
v 0.600000 -1.107333 -5.512172
v 0.735000 -1.104273 -5.539102
v 0.375000 -1.096192 -5.592700
v -0.342629 -0.757273 -4.584337
v 0.285000 -1.072254 -5.698397
v -0.785510 -0.738040 -4.566894
v -2.632337 -0.709626 -6.257439
v -2.962500 -0.361853 -4.347464
v -2.908856 -0.348664 -4.343021
v -2.914878 -0.302974 -4.329030
v -3.387500 -0.532932 -4.422885
v 1.029018 -0.917075 -4.769332
v 0.825000 -1.109736 -5.485175
v 0.600000 -1.104273 -5.539102
v 0.510000 -1.091174 -5.619335
v -0.347996 -0.757214 -4.584282
v -0.775737 -0.739470 -4.568162
v -2.625159 -0.697616 -6.267236
v -2.963774 -0.596338 -4.460237
v -2.965383 -0.614313 -4.471888
v -2.962500 -0.306927 -4.330157
v -3.387500 -0.539241 -4.426353
v 1.030641 -0.917735 -4.770293
v 0.960000 -1.109256 -5.491217
v 0.735000 -1.100559 -5.565950
v 0.375000 -1.091174 -5.619335
v 0.285000 -1.097530 -5.215076
v -0.765965 -0.740804 -4.569348
v -2.618560 -0.684780 -6.277407
v -2.967654 -0.631531 -4.483519
v -2.914511 -0.310568 -4.331207
v -3.387500 -0.545528 -4.429862
v 0.854280 -1.108252 -5.502695
v 0.600000 -1.100559 -5.565950
v 0.510000 -1.085510 -5.645840
v -0.353371 -0.757147 -4.584220
v -0.756195 -0.742042 -4.570451
v -2.612564 -0.671125 -6.287896
v -2.970596 -0.648007 -4.495095
v -2.962500 -0.313840 -4.332164
v -3.387500 -0.551791 -4.433411
v 1.033882 -0.919067 -4.772238
v 0.825000 -1.107333 -5.512172
v 0.960000 -1.106916 -5.516215
v 0.735000 -1.096192 -5.592700
v 0.375000 -1.085510 -5.645840
v -0.358755 -0.757073 -4.584151
v -0.746427 -0.743186 -4.571473
v -2.607199 -0.656658 -6.298648
v -2.974210 -0.663739 -4.506570
v -2.913895 -0.318168 -4.333444
v -3.387500 -0.558032 -4.437000
v 1.035500 -0.919738 -4.773221
v 0.825000 -1.104273 -5.539102
v 0.600000 -1.096192 -5.592700
v 0.510000 -1.079202 -5.672199
v -0.364148 -0.756991 -4.584075
v -0.736662 -0.744235 -4.572414
v -2.602487 -0.641389 -6.309608
v -2.962500 -0.320741 -4.334217
v -3.575000 -0.594860 -4.459303
v 1.037117 -0.920413 -4.774213
v 0.960000 -1.104013 -5.541153
v 0.735000 -1.091174 -5.619335
v 0.375000 -1.079202 -5.672199
v -0.369552 -0.756902 -4.583992
v -2.598431 -0.625325 -6.320725
v -2.978497 -0.678719 -4.517895
v -2.962500 -0.327628 -4.336314
v -3.387184 -0.577574 -4.448591
v 0.825000 -1.100559 -5.565950
v 0.600000 -1.091174 -5.619335
v 0.510000 -1.072254 -5.698397
v 0.285000 -1.101707 -5.241856
v -2.595028 -0.608476 -6.331945
v -2.983459 -0.692938 -4.529021
v -2.913025 -0.325776 -4.335742
v -3.386227 -0.596315 -4.460223
v 0.960000 -1.100548 -5.566020
v 0.735000 -1.085510 -5.645840
v 0.375000 -1.072254 -5.698397
v -0.374966 -0.756805 -4.583902
v -2.592272 -0.590851 -6.343220
v -2.962500 -0.334502 -4.338455
v -3.384621 -0.614278 -4.471865
v 0.960000 -1.096523 -5.590802
v 0.600000 -1.085510 -5.645840
v -0.380391 -0.756700 -4.583805
v -2.590157 -0.572454 -6.354499
v -2.911898 -0.333393 -4.338103
v -3.575000 -0.668626 -4.510220
v 0.825000 -1.096192 -5.592700
v 0.735000 -1.079202 -5.672199
v -0.385827 -0.756587 -4.583700
v -2.588669 -0.553272 -6.365745
v -2.962500 -0.341362 -4.340641
v -3.382353 -0.631484 -4.483486
v 0.960000 -1.091941 -5.615487
v 0.600000 -1.079202 -5.672199
v -0.391275 -0.756467 -4.583588
v -2.587789 -0.533284 -6.376923
v -2.910510 -0.341022 -4.340529
v -3.379415 -0.647948 -4.495053
v 1.256942 -0.888193 -4.729268
v 0.825000 -1.091174 -5.619335
v 0.735000 -1.072254 -5.698397
v 0.285000 -1.105232 -5.268729
v -2.587500 -0.512470 -6.388000
v -2.962500 -0.348207 -4.342871
v -3.375807 -0.663667 -4.506517
v 0.960000 -1.086802 -5.640063
v 0.600000 -1.072254 -5.698397
v -0.396736 -0.756338 -4.583469
v -2.587500 -0.507255 -6.390688
v -3.371529 -0.678633 -4.517829
v 0.825000 -1.085510 -5.645840
v -0.402210 -0.756201 -4.583342
v -2.587500 -0.502026 -6.393348
v -2.962500 -0.355038 -4.345146
v -3.575000 -0.738056 -4.566908
v 0.960000 -1.081111 -5.664516
v -0.407697 -0.756056 -4.583208
v -2.587500 -0.496783 -6.395980
v -3.366580 -0.692836 -4.528939
v 1.050000 -0.938180 -4.801178
v 0.825000 -1.079202 -5.672199
v 0.285000 -1.108100 -5.295681
v -2.587500 -0.491526 -6.398585
v -3.360971 -0.706269 -4.539796
v 1.050000 -0.950042 -4.820182
v 0.825000 -1.072254 -5.698397
v -0.413199 -0.755903 -4.583067
v -2.587500 -0.486255 -6.401162
v -3.354733 -0.718923 -4.550344
v 1.050000 -0.961519 -4.839420
v -0.418715 -0.755742 -4.582918
v -2.587500 -0.480971 -6.403711
v -2.962500 -0.382209 -4.354684
v -3.347899 -0.730787 -4.560526
v 1.050000 -0.972607 -4.858885
v -0.424246 -0.755572 -4.582761
v -2.587500 -0.475674 -6.406232
v -3.575000 -0.802698 -4.628998
v 1.050000 -0.983300 -4.878570
v -0.429793 -0.755394 -4.582596
v -2.587500 -0.470363 -6.408726
v -3.340505 -0.741854 -4.570287
v 1.050000 -0.993596 -4.898466
v 0.285000 -1.110312 -5.322694
v -2.587500 -0.465040 -6.411191
v -2.962500 -0.402421 -4.362297
v -3.332580 -0.752122 -4.579581
v 1.050000 -1.003489 -4.918565
v -0.435354 -0.755208 -4.582425
v -2.587500 -0.459703 -6.413628
v -3.324146 -0.761615 -4.588386
v 1.050000 -1.012975 -4.938859
v -0.440929 -0.755015 -4.582247
v -2.587500 -0.454354 -6.416037
v -3.575000 -0.862135 -4.696088
v 1.050000 -1.022051 -4.959340
v -0.446515 -0.754816 -4.582064
v -2.587500 -0.448992 -6.418418
v -3.315220 -0.770358 -4.596682
v 1.050000 -1.030712 -4.979999
v -0.452112 -0.754612 -4.581875
v -2.587500 -0.443618 -6.420771
v -2.962500 -0.429133 -4.373056
v -3.305823 -0.778375 -4.604450
v 1.050000 -1.038957 -5.000829
v 0.285000 -1.111865 -5.349753
v -2.587500 -0.438231 -6.423095
v -3.295989 -0.785685 -4.611668
v 1.050000 -1.046780 -5.021820
v -0.457717 -0.754404 -4.581684
v -2.587500 -0.432832 -6.425390
v -3.285779 -0.792293 -4.618309
v 1.050000 -1.054180 -5.042964
v -0.463329 -0.754193 -4.581489
v -2.587500 -0.427421 -6.427658
v -2.962500 -0.448979 -4.381576
v -3.575000 -0.915981 -4.767744
v 1.050000 -1.061152 -5.064253
v -0.468947 -0.753978 -4.581292
v -2.587500 -0.421998 -6.429896
v -3.275257 -0.798203 -4.624346
v -2.587500 -0.416564 -6.432106
v -2.962500 -0.462116 -4.387470
v -3.264485 -0.803422 -4.629751
v -2.587500 -0.411118 -6.434288
v -3.253486 -0.807959 -4.634510
v 1.050000 -1.079479 -5.128902
v -2.587500 -0.405660 -6.436441
v -3.575000 -0.963886 -4.843500
v 0.285000 -1.085510 -5.645840
v -2.587500 -0.400191 -6.438564
v -2.962500 -0.481677 -4.396627
v -3.242221 -0.811839 -4.638625
v 1.050000 -1.089515 -5.172564
v -0.697627 -0.747508 -4.575367
v -2.587500 -0.394711 -6.440659
v -3.230648 -0.815082 -4.642101
v 0.285000 -1.079202 -5.672199
v -2.587500 -0.389220 -6.442726
v -2.962500 -0.494617 -4.402943
v -3.373669 -0.888193 -4.729268
v 1.050000 -1.097785 -5.216596
v -0.707381 -0.746827 -4.574750
v -2.587500 -0.383719 -6.444763
v -3.575000 -1.005540 -4.922865
v -3.218727 -0.817713 -4.644941
v -2.587500 -0.378206 -6.446771
v -3.206477 -0.819730 -4.647130
v 1.050000 -1.104277 -5.260924
v -0.717138 -0.746055 -4.574052
v -2.587500 -0.372683 -6.448750
v -2.962500 -0.513871 -4.412728
v -3.193993 -0.821105 -4.648630
v 1.050000 -1.106852 -5.283177
v -0.726899 -0.745192 -4.573274
v -2.587500 -0.367150 -6.450700
v -3.575000 -1.040673 -5.005325
v 1.050000 -1.108979 -5.305477
v -2.587500 -0.361607 -6.452620
v -2.962500 -0.526600 -4.419459
v -3.181373 -0.821809 -4.649400
v -2.587500 -0.356053 -6.454512
v -3.168714 -0.821812 -4.649404
v 1.050000 -1.111885 -5.350184
v -2.587500 -0.350490 -6.456374
v -2.962500 -0.539241 -4.426353
v -3.575000 -1.069057 -5.090344
v 1.050000 -1.112662 -5.372573
v -2.587500 -0.344917 -6.458207
v -3.156113 -0.821116 -4.648642
v 1.050000 -1.112989 -5.394972
v -2.587500 -0.339334 -6.460010
v -2.962500 -0.551791 -4.433411
v -3.143658 -0.819751 -4.647153
v 1.050000 -1.112864 -5.417373
v -2.587500 -0.333742 -6.461784
v -3.373669 -0.996317 -4.903893
v 1.050000 -1.112289 -5.439768
v -2.587500 -0.328141 -6.463528
v -3.575000 -1.090507 -5.177371
v -3.131443 -0.817747 -4.644977
v 1.050000 -1.111264 -5.462146
v -2.587500 -0.322530 -6.465243
v -2.989086 -0.706390 -4.539896
v -3.575000 -1.104885 -5.265843
v 1.050000 -1.109788 -5.484499
v -2.587500 -0.316911 -6.466929
v -2.995345 -0.719062 -4.550462
v -3.119553 -0.815133 -4.642155
v 1.050000 -1.107862 -5.506818
v -2.587500 -0.311282 -6.468584
v -3.002199 -0.730941 -4.560660
v -3.108004 -0.811909 -4.638700
v 1.050000 -1.105488 -5.529093
v -2.587500 -0.305645 -6.470210
v -3.009611 -0.742015 -4.570431
v -3.575000 -1.112097 -5.355184
v 1.050000 -1.102666 -5.551316
v -3.017551 -0.752284 -4.579729
v -3.096754 -0.808050 -4.634606
v 1.050000 -1.099397 -5.573478
v -3.025999 -0.761772 -4.588532
v -3.575000 -1.112097 -5.444816
v 1.050000 -1.095683 -5.595570
v -3.034940 -0.770507 -4.596824
v -3.085760 -0.803531 -4.629865
v -3.044355 -0.778517 -4.604588
v -3.575000 -1.040673 -5.794675
v -3.575000 -1.069057 -5.709656
v -3.054211 -0.785821 -4.611804
v -3.575000 -0.802698 -6.171002
v -3.575000 -0.862135 -6.103912
v -3.064442 -0.792423 -4.618442
v -3.575000 -0.594860 -6.340697
v -3.009843 -0.572444 -6.354505
v -3.172338 -0.585919 -6.346292
v -3.074981 -0.798326 -4.624472
v -3.012500 -0.454354 -6.416037
v -3.575000 -0.436259 -6.423937
v -3.012500 -0.448992 -6.418418
v -3.012500 -0.438231 -6.423095
v -3.012500 -0.443618 -6.420771
v -3.172338 -0.996317 -4.903893
v -3.012500 -0.432832 -6.425390
v -3.575000 -1.104885 -5.534157
v -3.012500 -0.421998 -6.429896
v -3.012500 -0.427421 -6.427658
v -3.575000 -1.090507 -5.622629
v -3.012500 -0.411118 -6.434288
v -3.012500 -0.416564 -6.432106
v -3.373669 -0.996317 -5.896107
v -3.012500 -0.405660 -6.436441
v -3.575000 -1.005540 -5.877135
v -3.012500 -0.394711 -6.440659
v -3.012500 -0.400191 -6.438564
v -3.575000 -0.963886 -5.956500
v -3.373669 -0.888193 -6.070732
v -3.373669 -0.402062 -6.437842
v -3.575000 -0.915981 -6.032256
v -3.012500 -0.383719 -6.444763
v -3.012500 -0.389220 -6.442726
v -3.172338 -0.749823 -6.222517
v -3.012500 -0.372683 -6.448750
v -3.012500 -0.378206 -6.446771
v -2.987420 -0.671158 -6.287870
v -3.012500 -0.367150 -6.450700
v -3.575000 -0.738056 -6.233092
v -3.373669 -0.749823 -6.222517
v -3.012500 -0.356053 -6.454512
v -3.012500 -0.361607 -6.452620
v -2.992795 -0.656674 -6.298637
v -3.012500 -0.344917 -6.458207
v -3.012500 -0.350490 -6.456374
v -2.997514 -0.641392 -6.309607
v -3.012500 -0.339334 -6.460010
v -3.575000 -0.668626 -6.289780
v -3.012500 -0.328141 -6.463528
v -3.012500 -0.333742 -6.461784
v -3.001572 -0.625320 -6.320729
v -3.012500 -0.316911 -6.466929
v -3.012500 -0.322530 -6.465243
v -3.004975 -0.608467 -6.331952
v -3.007730 -0.590841 -6.343226
v -3.011331 -0.553263 -6.365750
v -3.575000 -0.517237 -6.385513
v -3.012211 -0.533278 -6.376927
v -3.012500 -0.512470 -6.388000
v -3.012500 -0.507255 -6.390688
v -3.012500 -0.502026 -6.393348
v -3.012500 -0.496783 -6.395980
v -3.012500 -0.491526 -6.398585
v -3.012500 -0.486255 -6.401162
v -3.012500 -0.480971 -6.403711
v -3.012500 -0.475674 -6.406232
v -3.012500 -0.470363 -6.408726
v -3.012500 -0.465040 -6.411191
v -3.012500 -0.459703 -6.413628
v -3.575000 -0.089559 -6.509391
v -2.805755 -0.210871 -6.492842
v -2.802729 -0.210228 -6.492966
v -2.799610 -0.210046 -6.493000
v -2.796423 -0.210386 -6.492935
v -2.541618 -0.051276 -6.511816
v -2.540801 -0.076880 -6.510339
v -2.539960 -0.102442 -6.508272
v -2.539093 -0.127949 -6.505618
v -2.538199 -0.153389 -6.502378
v -2.537278 -0.178746 -6.498553
v -2.536328 -0.204009 -6.494143
v -2.535348 -0.229162 -6.489152
v -2.534337 -0.254194 -6.483581
v -2.533292 -0.279089 -6.477436
v -2.532213 -0.303836 -6.470720
v -2.531097 -0.328421 -6.463438
v -2.529942 -0.352830 -6.455592
v -2.528748 -0.377050 -6.447187
v -2.527512 -0.401067 -6.438227
v -2.526232 -0.424869 -6.428716
v -2.524907 -0.448443 -6.418660
v -2.523532 -0.471777 -6.408065
v -2.522107 -0.494858 -6.396938
v -2.520629 -0.517675 -6.385284
v -2.519095 -0.540214 -6.373110
v -2.517502 -0.562463 -6.360420
v -2.515849 -0.584410 -6.347222
v -2.514133 -0.606043 -6.333524
v -2.512351 -0.627350 -6.319335
v -2.510502 -0.648319 -6.304667
v -2.508582 -0.668936 -6.289528
v -2.506590 -0.689192 -6.273931
v -2.504523 -0.709072 -6.257885
v -2.502379 -0.728566 -6.241401
v -2.500156 -0.747661 -6.224488
v -2.497848 -0.766348 -6.207155
v -2.495452 -0.784624 -6.189407
v -2.492962 -0.802482 -6.171249
v -2.490373 -0.819918 -6.152687
v -2.487679 -0.836926 -6.133725
v -2.484875 -0.853501 -6.114369
v -2.481956 -0.869638 -6.094625
v -2.478918 -0.885331 -6.074498
v -2.475764 -0.900573 -6.053998
v -2.472502 -0.915353 -6.033138
v -2.469139 -0.929662 -6.011932
v -2.465685 -0.943490 -5.990391
v -2.462147 -0.956827 -5.968529
v -2.458533 -0.969664 -5.946358
v -2.454851 -0.981991 -5.923891
v 1.458273 -1.070512 -5.704587
v 0.961709 -1.081278 -5.663832
v 0.963415 -1.081446 -5.663141
v 0.965118 -1.081615 -5.662445
v 0.966819 -1.081786 -5.661742
v 0.968517 -1.081957 -5.661033
v 0.970213 -1.082129 -5.660318
v 0.971906 -1.082303 -5.659596
v 0.973597 -1.082477 -5.658868
v 0.975285 -1.082652 -5.658134
v 0.976970 -1.082829 -5.657393
v 0.978654 -1.083006 -5.656646
v 0.980334 -1.083184 -5.655893
v 0.982013 -1.083363 -5.655133
v 0.983689 -1.083543 -5.654367
v 0.985362 -1.083725 -5.653595
v 0.987033 -1.083906 -5.652816
v 0.988702 -1.084089 -5.652030
v 0.990369 -1.084273 -5.651239
v 0.992033 -1.084458 -5.650441
v 0.993695 -1.084643 -5.649636
v 0.995354 -1.084830 -5.648825
v 0.997011 -1.085017 -5.648007
v 0.998666 -1.085205 -5.647184
v 1.000318 -1.085393 -5.646353
v 1.001967 -1.085583 -5.645517
v 1.003613 -1.085773 -5.644674
v 1.005257 -1.085964 -5.643825
v 1.006898 -1.086156 -5.642970
v 1.008536 -1.086348 -5.642109
v 1.010172 -1.086541 -5.641241
v 1.011804 -1.086735 -5.640367
v 1.013433 -1.086929 -5.639487
v 1.015059 -1.087124 -5.638602
v 1.016682 -1.087319 -5.637710
v 1.018301 -1.087515 -5.636812
v 1.019918 -1.087712 -5.635907
v 1.021530 -1.087909 -5.634997
v 1.023140 -1.088106 -5.634081
v 1.024746 -1.088304 -5.633159
v 1.026349 -1.088502 -5.632231
v 1.027948 -1.088701 -5.631298
v 1.029544 -1.088901 -5.630357
v 1.031137 -1.089100 -5.629411
v 1.032727 -1.089300 -5.628459
v 1.034313 -1.089501 -5.627501
v 1.035896 -1.089702 -5.626537
v 1.037476 -1.089903 -5.625567
v 1.039052 -1.090105 -5.624590
v 1.040626 -1.090307 -5.623607
v 1.042196 -1.090509 -5.622619
v 1.043763 -1.090712 -5.621624
v 1.045327 -1.090915 -5.620623
v 1.046888 -1.091118 -5.619615
v 1.048445 -1.091321 -5.618602
v -3.373669 -1.108252 -5.297305
v -3.373669 -1.070512 -5.704587
v -3.172338 -0.996317 -5.896107
v -3.373669 -1.108252 -5.502695
v -3.172338 -1.070512 -5.704587
v -3.172338 -1.070512 -5.095413
v -3.172338 -1.108252 -5.297305
v -3.172338 -1.108252 -5.502695
v -2.769676 -1.070512 -5.704587
v -2.769676 -1.070512 -5.095413
v -2.165684 -1.108252 -5.297305
v -1.964353 -0.749823 -4.577483
v -2.165684 -0.888193 -4.729268
v -1.964353 -0.888193 -4.729268
v -2.165684 -0.996317 -4.903893
v -1.763022 -0.888193 -4.729268
v -2.165684 -1.070512 -5.095413
v -1.763022 -0.749823 -4.577483
v -1.964353 -0.996317 -4.903893
v -1.964353 -1.070512 -5.704587
v -0.756367 -0.888193 -4.729268
v -1.964353 -1.108252 -5.502695
v -1.763022 -1.108252 -5.297305
v -1.561691 -1.108252 -5.297305
v -1.561691 -1.108252 -5.502695
v -0.756367 -1.108252 -5.502695
v -1.360360 -1.108252 -5.502695
v -0.957698 -0.888193 -4.729268
v -0.555036 -1.108252 -5.502695
v -1.159029 -1.070512 -5.095413
v -0.756367 -1.108252 -5.297305
v -1.159029 -1.108252 -5.297305
v -1.159029 -1.108252 -5.502695
v -0.957698 -1.070512 -5.095413
v -0.152374 -1.108252 -5.502695
v -0.957698 -1.108252 -5.297305
v -0.957698 -1.108252 -5.502695
v -0.756367 -1.070512 -5.095413
v -0.353705 -1.070512 -5.095413
v -0.756367 -0.996317 -4.903893
v -0.555036 -1.070512 -5.095413
v -0.353705 -1.108252 -5.297305
v 0.048957 -1.108252 -5.502695
v 0.854280 -0.585919 -4.453708
v -2.769676 -0.946292 -4.814081
v -3.273004 -1.070512 -5.095413
v -3.273004 -1.094049 -5.604513
v -3.273004 -1.108252 -5.502695
v -3.273004 -1.070512 -5.704587
v -2.769676 -1.113000 -5.400000
v -0.857032 -0.996317 -4.903893
v -0.555036 -0.996317 -4.903893
v -1.259694 -1.037842 -4.997938
v -1.058363 -0.996317 -4.903893
v -0.655702 -1.108252 -5.297305
v -0.555036 -1.108252 -5.297305
v -0.152374 -1.108252 -5.297305
v -0.353705 -1.094049 -5.195487
v -2.769676 -0.856269 -4.688964
v -3.323336 -1.111812 -5.451402
v -3.222671 -1.055303 -5.753702
v -2.769676 -1.102327 -5.553768
v -2.769676 -1.018166 -4.950436
v -2.769676 -1.102327 -5.246232
v -1.410693 -1.083437 -5.145178
v -1.108696 -0.972342 -4.858409
v -0.454371 -1.070512 -5.095413
v -0.555036 -1.055303 -5.046298
v -0.152374 -1.111812 -5.348598
f 1 2 3
f 4 5 1
f 6 7 1
f 8 9 1
f 1 10 11
f 12 13 1
f 14 15 16
f 17 18 14
f 19 20 21
f 22 23 24
f 24 25 26
f 26 27 28
f 28 29 30
f 30 31 32
f 32 33 34
f 34 35 36
f 36 37 38
f 38 39 40
f 40 41 42
f 42 43 44
f 44 45 46
f 46 47 48
f 48 49 50
f 50 51 52
f 52 53 54
f 53 55 54
f 28 22 26
f 56 57 21
f 58 59 21
f 60 61 21
f 62 63 21
f 64 65 21
f 21 66 14
f 19 67 6
f 5 68 69
f 70 71 5
f 5 72 73
f 74 75 5
f 5 76 77
f 78 79 5
f 80 81 82
f 83 1 80
f 84 85 86
f 87 88 84
f 84 89 90
f 91 92 84
f 84 93 94
f 95 96 84
f 97 98 99
f 100 101 97
f 84 102 103
f 104 105 84
f 105 106 107
f 107 108 84
f 109 110 111
f 112 113 109
f 114 115 109
f 116 97 109
f 97 117 118
f 118 119 120
f 120 121 122
f 122 123 124
f 124 125 126
f 126 127 128
f 128 129 130
f 130 131 132
f 132 133 134
f 134 135 136
f 136 137 138
f 138 139 140
f 140 141 142
f 142 143 144
f 144 145 146
f 146 147 109
f 109 148 149
f 149 150 151
f 151 152 153
f 153 154 155
f 155 156 157
f 157 158 159
f 160 161 162
f 163 164 165
f 166 167 168
f 169 164 170
f 171 172 173
f 174 175 176
f 177 178 179
f 180 178 181
f 182 178 183
f 184 183 185
f 184 185 182
f 184 186 187
f 188 189 184
f 184 190 191
f 192 193 194
f 195 196 194
f 194 197 198
f 199 200 194
f 194 201 202
f 203 204 194
f 205 206 207
f 208 209 210
f 211 212 213
f 214 215 216
f 217 218 219
f 220 221 222
f 223 224 225
f 226 221 227
f 228 229 230
f 231 206 232
f 233 206 231
f 233 234 206
f 235 236 19
f 235 19 237
f 1 238 239
f 4 1 3
f 8 1 7
f 12 1 11
f 16 17 14
f 21 23 22
f 30 240 28
f 34 240 32
f 36 80 240
f 38 40 80
f 80 42 44
f 46 48 54
f 50 52 54
f 54 80 44
f 21 22 56
f 21 59 60
f 21 63 64
f 13 14 19
f 70 5 69
f 74 5 73
f 78 5 77
f 83 80 82
f 87 84 86
f 91 84 90
f 95 84 94
f 100 97 99
f 104 84 103
f 105 107 84
f 112 109 111
f 116 109 115
f 132 118 120
f 122 124 132
f 124 126 128
f 128 130 132
f 109 134 136
f 136 138 140
f 140 142 144
f 144 146 109
f 109 149 151
f 151 153 155
f 155 157 159
f 241 160 162
f 165 164 242
f 243 167 164
f 244 164 245
f 169 246 164
f 172 171 247
f 171 173 248
f 174 176 249
f 175 174 250
f 183 178 180
f 182 251 178
f 188 184 187
f 184 189 190
f 195 194 193
f 199 194 198
f 203 194 202
f 205 234 252
f 253 209 208
f 211 213 254
f 255 214 216
f 217 208 256
f 220 226 257
f 226 227 258
f 229 259 260
f 232 206 261
f 262 234 237
f 1 239 2
f 1 9 10
f 19 18 20
f 32 240 30
f 38 80 36
f 54 44 46
f 54 48 50
f 21 57 58
f 21 65 66
f 5 71 72
f 80 79 81
f 84 88 89
f 97 96 98
f 109 84 110
f 114 109 113
f 122 132 120
f 124 128 132
f 136 140 109
f 140 144 109
f 109 151 155
f 263 241 162
f 242 164 264
f 265 243 164
f 246 169 266
f 169 244 267
f 247 171 268
f 171 248 269
f 249 176 270
f 175 250 271
f 181 178 272
f 184 182 186
f 194 196 197
f 194 200 201
f 252 234 273
f 274 253 208
f 211 254 275
f 276 255 216
f 218 208 277
f 257 226 278
f 226 258 279
f 260 259 280
f 261 206 281
f 1 262 238
f 13 15 14
f 36 240 34
f 80 40 42
f 21 61 62
f 5 75 76
f 84 92 93
f 111 159 84
f 132 97 118
f 109 132 134
f 109 155 159
f 282 263 162
f 264 164 283
f 284 265 164
f 246 266 285
f 169 267 286
f 268 171 287
f 269 248 288
f 270 176 289
f 175 290 291
f 177 179 292
f 192 194 191
f 273 234 293
f 294 274 208
f 211 275 295
f 296 276 216
f 277 208 297
f 278 226 298
f 226 279 299
f 260 280 300
f 281 206 301
f 262 1 236
f 28 240 22
f 5 67 68
f 84 1 85
f 120 109 97
f 302 282 162
f 283 164 303
f 304 284 164
f 246 305 306
f 169 286 307
f 268 308 309
f 269 288 310
f 289 176 269
f 175 291 311
f 292 179 312
f 313 204 314
f 293 234 315
f 316 294 208
f 211 295 317
f 318 296 216
f 297 208 319
f 298 226 320
f 299 279 321
f 260 300 322
f 301 206 323
f 26 22 24
f 84 324 103
f 325 302 326
f 303 164 327
f 328 304 164
f 306 305 329
f 169 307 330
f 308 171 331
f 289 269 310
f 269 176 332
f 175 311 333
f 312 179 334
f 196 184 191
f 315 234 335
f 336 316 208
f 211 317 337
f 338 318 216
f 319 208 339
f 320 226 340
f 299 321 341
f 216 342 343
f 103 324 101
f 344 325 162
f 327 164 345
f 346 328 164
f 306 329 347
f 169 330 348
f 331 171 349
f 350 351 352
f 350 332 176
f 175 333 353
f 334 179 354
f 335 234 355
f 356 336 208
f 211 337 357
f 358 338 216
f 339 208 359
f 340 226 360
f 341 321 361
f 342 362 363
f 101 324 1
f 364 344 162
f 345 164 365
f 366 346 164
f 347 329 367
f 169 348 368
f 331 349 369
f 370 371 372
f 351 350 371
f 175 353 373
f 272 178 177
f 355 234 374
f 375 356 208
f 211 357 376
f 377 358 216
f 359 208 378
f 360 226 379
f 361 321 380
f 342 363 381
f 382 364 162
f 365 164 383
f 384 366 164
f 347 367 385
f 169 368 386
f 387 349 388
f 370 372 389
f 351 371 370
f 175 373 390
f 391 314 392
f 374 234 393
f 394 375 208
f 211 376 395
f 396 377 216
f 210 397 208
f 379 226 398
f 380 321 399
f 400 382 162
f 383 164 401
f 402 384 164
f 385 367 403
f 308 368 404
f 309 308 404
f 405 389 372
f 405 406 389
f 390 373 407
f 313 194 204
f 393 234 408
f 409 394 208
f 211 395 410
f 411 396 216
f 378 208 412
f 398 226 413
f 399 321 414
f 415 400 162
f 401 164 416
f 417 164 163
f 418 419 403
f 387 388 420
f 421 420 388
f 406 405 422
f 406 422 423
f 407 373 424
f 391 313 314
f 408 234 425
f 426 409 208
f 211 410 427
f 428 411 216
f 397 429 430
f 413 226 431
f 414 321 432
f 433 415 434
f 416 164 435
f 436 402 164
f 437 438 418
f 439 440 421
f 421 440 420
f 423 422 441
f 423 441 442
f 407 443 444
f 391 392 445
f 425 234 446
f 447 426 208
f 211 427 448
f 449 428 216
f 430 429 450
f 431 226 451
f 432 321 452
f 167 433 162
f 435 164 453
f 454 436 164
f 437 455 438
f 456 457 458
f 439 458 440
f 442 441 459
f 442 459 460
f 461 443 462
f 391 445 463
f 446 234 464
f 465 447 208
f 211 448 466
f 467 449 216
f 412 208 468
f 451 226 469
f 452 321 470
f 164 433 167
f 453 164 471
f 472 454 164
f 473 455 437
f 474 457 456
f 456 458 439
f 460 459 475
f 460 475 476
f 461 462 477
f 463 445 478
f 464 234 479
f 480 465 208
f 230 466 481
f 482 467 216
f 450 483 484
f 469 226 485
f 470 321 486
f 487 164 167
f 168 488 166
f 246 472 164
f 473 489 455
f 474 490 457
f 490 474 491
f 476 475 492
f 476 493 494
f 477 462 495
f 463 478 496
f 479 234 497
f 498 480 208
f 481 499 230
f 500 482 216
f 501 483 502
f 485 226 503
f 486 321 504
f 505 487 167
f 488 506 507
f 508 164 417
f 509 489 473
f 490 491 510
f 510 491 511
f 494 493 512
f 494 512 513
f 495 462 514
f 515 516 496
f 497 234 517
f 518 498 208
f 230 499 519
f 520 500 216
f 468 208 521
f 503 226 522
f 504 321 523
f 524 505 167
f 507 506 525
f 245 164 508
f 509 526 527
f 510 511 528
f 529 528 530
f 513 512 531
f 513 531 532
f 495 514 533
f 534 516 515
f 517 234 535
f 536 518 208
f 519 537 230
f 538 520 216
f 502 539 540
f 522 226 541
f 523 321 542
f 166 524 543
f 525 544 507
f 385 403 419
f 418 438 419
f 529 545 528
f 545 529 546
f 532 531 547
f 532 547 548
f 533 514 549
f 535 234 550
f 217 536 208
f 230 537 551
f 552 538 216
f 553 539 554
f 541 226 555
f 542 321 556
f 488 507 166
f 507 544 557
f 509 558 526
f 559 558 509
f 545 546 560
f 560 546 561
f 548 547 562
f 548 562 563
f 549 514 564
f 550 234 565
f 566 217 219
f 551 567 230
f 568 552 216
f 521 208 569
f 555 226 570
f 556 321 571
f 572 573 507
f 557 574 507
f 559 575 558
f 575 559 576
f 560 561 577
f 577 561 578
f 563 562 579
f 563 579 580
f 549 564 581
f 565 234 582
f 583 566 219
f 230 567 584
f 585 568 216
f 554 586 587
f 570 226 588
f 556 571 589
f 590 573 591
f 507 574 592
f 575 576 593
f 593 576 594
f 577 578 595
f 595 578 596
f 580 579 597
f 580 597 598
f 581 564 599
f 582 234 600
f 601 583 219
f 584 602 230
f 603 585 216
f 604 586 605
f 570 224 606
f 589 571 607
f 590 608 609
f 592 610 507
f 593 594 611
f 611 594 612
f 595 596 613
f 613 596 614
f 598 597 615
f 598 615 616
f 599 564 617
f 600 234 618
f 601 219 619
f 230 602 620
f 621 603 216
f 605 622 623
f 606 224 624
f 607 571 625
f 626 590 627
f 507 610 628
f 611 612 629
f 629 612 630
f 613 614 631
f 631 614 632
f 633 615 634
f 633 634 635
f 599 617 636
f 618 234 637
f 601 619 638
f 620 639 230
f 640 621 216
f 208 641 569
f 624 224 642
f 625 571 643
f 644 590 645
f 628 646 507
f 629 630 647
f 647 630 648
f 631 632 649
f 649 632 650
f 635 634 651
f 635 651 652
f 636 617 653
f 637 234 654
f 638 619 655
f 300 640 216
f 622 656 657
f 642 224 658
f 643 571 659
f 660 590 661
f 507 646 662
f 647 648 663
f 663 648 664
f 649 650 665
f 665 650 666
f 652 651 667
f 652 667 668
f 653 617 669
f 654 234 670
f 655 619 671
f 216 343 672
f 673 656 674
f 658 224 675
f 659 571 676
f 660 677 678
f 662 679 507
f 663 664 680
f 681 680 682
f 665 683 684
f 684 683 685
f 668 667 686
f 668 686 687
f 653 669 688
f 670 234 689
f 655 671 690
f 362 342 216
f 641 208 691
f 675 224 692
f 676 571 693
f 660 694 695
f 507 679 696
f 681 697 680
f 697 681 698
f 684 685 699
f 699 685 700
f 687 686 701
f 687 701 702
f 688 669 703
f 689 234 704
f 690 671 705
f 706 674 707
f 692 224 708
f 693 571 709
f 710 711 694
f 696 712 507
f 697 698 713
f 713 698 714
f 699 700 715
f 715 700 716
f 702 701 717
f 702 717 718
f 703 669 719
f 704 234 720
f 705 671 206
f 208 721 691
f 708 224 722
f 709 571 723
f 710 724 725
f 507 712 726
f 713 714 727
f 727 714 728
f 715 716 729
f 729 716 730
f 718 717 731
f 718 731 732
f 703 719 733
f 720 234 734
f 206 671 735
f 736 707 737
f 722 224 738
f 723 571 739
f 724 710 740
f 726 572 507
f 727 728 741
f 741 728 742
f 729 730 743
f 743 730 744
f 732 731 745
f 732 745 746
f 733 719 747
f 734 234 748
f 206 735 749
f 737 750 751
f 738 224 752
f 739 571 753
f 740 710 754
f 572 755 573
f 741 742 756
f 756 742 757
f 743 744 758
f 758 744 759
f 760 745 761
f 760 761 762
f 733 747 763
f 748 234 764
f 206 749 765
f 721 208 766
f 752 224 767
f 753 571 768
f 754 710 769
f 573 755 770
f 757 742 771
f 757 771 772
f 758 759 773
f 773 759 774
f 762 761 775
f 762 775 776
f 763 747 777
f 764 234 778
f 206 765 779
f 750 780 781
f 767 224 782
f 768 571 783
f 784 710 785
f 770 786 573
f 772 771 787
f 772 787 788
f 773 774 789
f 790 774 791
f 776 775 792
f 776 792 793
f 777 747 794
f 778 234 795
f 206 779 796
f 780 797 798
f 782 224 799
f 768 783 800
f 785 710 801
f 573 786 802
f 788 787 803
f 788 803 804
f 790 791 805
f 805 791 806
f 793 792 807
f 793 807 808
f 777 794 809
f 795 234 810
f 206 796 811
f 766 208 812
f 799 224 813
f 800 783 814
f 815 785 816
f 573 802 817
f 818 803 819
f 818 819 820
f 805 806 821
f 821 806 822
f 808 807 823
f 808 823 824
f 809 794 825
f 810 234 826
f 206 811 827
f 828 797 829
f 813 224 223
f 814 783 830
f 831 832 815
f 573 817 833
f 820 819 834
f 820 834 835
f 821 822 836
f 836 822 837
f 824 823 838
f 824 838 839
f 825 794 840
f 826 234 841
f 206 827 842
f 843 829 844
f 225 224 845
f 830 783 846
f 847 832 848
f 573 833 849
f 835 834 850
f 835 850 851
f 836 837 852
f 852 837 853
f 839 838 854
f 839 854 855
f 825 840 856
f 841 234 857
f 206 842 858
f 812 208 859
f 845 224 860
f 846 783 861
f 862 863 847
f 573 849 864
f 851 850 865
f 851 865 866
f 852 853 867
f 867 853 868
f 855 854 869
f 855 870 871
f 856 840 872
f 857 234 873
f 206 858 874
f 875 844 876
f 860 224 877
f 861 783 878
f 879 863 880
f 573 864 881
f 866 865 882
f 866 882 883
f 867 868 884
f 884 868 885
f 871 870 886
f 871 886 887
f 872 840 888
f 873 234 889
f 206 874 890
f 208 891 859
f 877 224 892
f 878 783 893
f 894 895 879
f 573 881 896
f 883 882 897
f 884 885 898
f 898 885 899
f 887 886 900
f 887 900 901
f 872 888 902
f 889 234 903
f 206 890 904
f 905 876 906
f 892 224 907
f 893 783 908
f 573 896 909
f 883 897 910
f 898 911 912
f 901 900 913
f 872 902 914
f 889 915 916
f 206 904 917
f 918 906 919
f 907 224 920
f 908 783 921
f 573 909 922
f 910 897 923
f 912 911 924
f 901 913 925
f 872 914 926
f 916 915 927
f 206 917 928
f 844 929 930
f 920 224 931
f 921 783 932
f 573 922 933
f 910 923 934
f 912 924 935
f 925 913 936
f 872 926 937
f 927 915 938
f 206 928 939
f 844 930 940
f 920 931 941
f 932 783 942
f 573 933 591
f 934 923 943
f 935 924 944
f 925 936 945
f 937 926 946
f 938 915 947
f 206 939 948
f 844 940 949
f 941 931 950
f 942 783 951
f 590 591 952
f 934 953 954
f 935 944 955
f 945 936 956
f 937 946 957
f 947 915 958
f 206 948 959
f 844 949 960
f 941 950 961
f 951 783 962
f 590 952 963
f 954 953 964
f 955 944 965
f 945 956 966
f 937 957 967
f 958 915 968
f 206 959 969
f 844 960 891
f 961 950 970
f 962 783 971
f 590 963 972
f 954 964 973
f 955 965 974
f 966 956 975
f 937 967 976
f 206 969 977
f 891 960 978
f 961 970 979
f 962 971 980
f 972 608 590
f 973 964 981
f 974 965 982
f 966 975 983
f 937 976 984
f 206 977 985
f 891 978 986
f 961 979 987
f 980 971 988
f 627 590 609
f 973 981 989
f 974 982 990
f 983 975 991
f 984 976 992
f 206 985 993
f 987 979 994
f 988 971 995
f 645 590 626
f 989 981 996
f 990 982 997
f 984 992 998
f 206 993 999
f 987 994 1000
f 995 971 1001
f 661 590 644
f 996 981 1002
f 990 997 1003
f 984 998 1004
f 206 999 1005
f 1000 994 1006
f 995 1001 1007
f 660 678 590
f 996 1002 1008
f 1003 997 1009
f 984 1004 1010
f 1005 1011 230
f 1000 1006 1012
f 1007 1001 1013
f 660 695 1014
f 1008 1002 1015
f 1003 1009 1016
f 984 1010 1017
f 230 1011 1018
f 1012 1006 1019
f 1013 1001 1020
f 710 694 660
f 1008 1015 1021
f 1016 1009 1022
f 1017 1010 1023
f 1018 1024 230
f 1012 1019 919
f 1020 1001 1025
f 710 725 711
f 1021 1015 1026
f 1017 1023 1027
f 230 1024 1028
f 919 1019 1029
f 1025 1001 1030
f 769 710 784
f 1021 1026 1031
f 1017 1027 1032
f 1028 1033 230
f 919 1029 918
f 1025 1030 1034
f 710 660 1035
f 1031 1026 1036
f 1017 1032 1037
f 230 1033 1038
f 918 905 906
f 1034 1030 1039
f 710 1035 1040
f 1031 1036 1041
f 1037 1032 1042
f 1038 1043 230
f 905 875 876
f 1039 1030 1044
f 710 1040 1045
f 1037 1042 1046
f 230 1043 1047
f 875 1048 844
f 1044 1030 1049
f 710 1045 1050
f 1037 1046 1051
f 1047 1052 230
f 844 1048 843
f 1049 1030 1053
f 710 1050 1054
f 1037 1051 1055
f 230 1052 1056
f 843 828 829
f 1049 1053 1057
f 710 1054 1058
f 1037 1055 1059
f 1056 1060 230
f 828 1061 797
f 1057 1053 1062
f 710 1058 1063
f 1059 1055 1064
f 230 1060 1065
f 797 1061 798
f 1062 1053 1066
f 710 1063 1067
f 1059 1064 1068
f 1065 1069 230
f 780 798 781
f 1066 1053 1070
f 710 1067 1071
f 1059 1068 1072
f 230 1069 1073
f 750 781 751
f 1066 1070 1074
f 710 1071 1075
f 1059 1072 1076
f 1073 1077 230
f 737 751 1078
f 1074 1070 1079
f 710 1075 1080
f 1059 1076 1081
f 230 1077 1082
f 1078 736 737
f 1079 1070 1083
f 710 1080 1084
f 1081 1076 1085
f 1082 1086 230
f 736 706 707
f 1083 1070 1087
f 710 1084 1088
f 1081 1085 1089
f 230 1086 1090
f 706 1091 674
f 1087 1070 1092
f 710 1088 1093
f 1081 1089 1094
f 1090 1095 230
f 674 1091 673
f 1087 1092 1096
f 710 1093 801
f 1081 1094 354
f 230 1095 1097
f 673 1098 656
f 1096 1092 1099
f 785 801 816
f 1081 354 179
f 1097 1100 230
f 656 1098 657
f 1099 1092 1101
f 815 816 1102
f 515 496 478
f 230 1100 1103
f 622 657 623
f 1101 1092 1104
f 1102 831 815
f 534 1105 516
f 1103 1106 230
f 605 623 1107
f 1101 1104 1108
f 831 1109 832
f 1105 534 1110
f 230 1106 1111
f 1107 604 605
f 1108 1104 1112
f 832 1109 848
f 1105 1110 1113
f 1111 1114 230
f 604 1115 586
f 1112 1104 1116
f 847 848 1117
f 1118 1113 1110
f 230 1114 1119
f 586 1115 587
f 1112 1120 1121
f 1117 862 847
f 1118 915 1113
f 1119 1122 230
f 554 587 553
f 1121 1120 1123
f 862 1124 863
f 915 1118 1125
f 230 1122 1126
f 553 1127 539
f 1123 1120 1128
f 863 1124 1129
f 1130 915 1125
f 1126 1131 230
f 539 1127 540
f 1128 1120 1132
f 879 1129 1133
f 230 1131 1134
f 502 540 1135
f 1128 1132 1136
f 879 1133 894
f 1134 1137 230
f 1135 501 502
f 1136 1132 1138
f 894 1139 895
f 230 1137 1140
f 501 1141 483
f 1138 1132 1142
f 895 1139 1143
f 1140 1144 230
f 483 1141 484
f 1138 1142 1145
f 159 1143 1146
f 230 1144 1147
f 450 484 1148
f 1145 1142 1149
f 1146 1150 159
f 1147 1151 230
f 1148 430 450
f 1149 1142 1152
f 1150 1153 159
f 230 1151 1154
f 397 430 208
f 1149 1155 1156
f 1153 1157 159
f 1154 1158 230
f 891 986 1159
f 1156 1155 1160
f 159 1157 1161
f 230 1158 1162
f 891 1159 1163
f 1156 1160 1164
f 1161 1165 159
f 1162 1166 230
f 891 1163 1167
f 1164 1160 1168
f 1165 1169 159
f 230 1166 1170
f 891 1167 1171
f 1168 1160 1172
f 1169 1173 159
f 1170 211 230
f 891 1171 1174
f 1168 1172 1175
f 1173 1176 159
f 891 1174 1177
f 1175 1172 1178
f 1176 1179 159
f 891 1177 1180
f 1175 1178 1181
f 159 1179 324
f 891 1180 1182
f 1183 891 1184
f 891 1182 1185
f 1186 891 1187
f 891 1185 1188
f 1189 1190 1191
f 891 1188 1192
f 1193 1194 1195
f 891 1192 1181
f 1194 1196 1197
f 891 1181 1198
f 1194 1199 1196
f 891 1178 1200
f 1194 1201 1202
f 891 1200 1203
f 1194 1204 1205
f 891 1203 1206
f 1194 1207 1204
f 1208 891 1183
f 1194 1209 1210
f 1211 891 1212
f 381 1209 1213
f 1214 891 1211
f 381 1215 1216
f 1187 891 1217
f 381 1218 1219
f 1186 1220 891
f 381 1221 1218
f 1222 1220 1223
f 381 1224 1225
f 1222 1226 1220
f 381 1227 1228
f 1222 1229 1226
f 381 1230 1227
f 1231 1229 1222
f 381 1232 1233
f 1231 1234 1229
f 381 1235 1236
f 1231 1237 1234
f 1231 1238 1237
f 1189 1238 1231
f 1189 1239 1190
f 1240 1239 1189
f 1240 1241 1239
f 1240 1242 1241
f 1240 1243 1242
f 1240 1244 1243
f 1240 1245 1244
f 1240 1246 1245
f 1240 1247 1246
f 1240 1248 1247
f 1240 1249 1248
f 1249 1240 1194
f 1249 1194 1250
f 1250 1194 1251
f 1251 1194 1252
f 1252 1194 1193
f 1194 1197 1195
f 1194 1202 1199
f 1194 1205 1201
f 1194 1210 1207
f 381 1216 1209
f 381 1219 1215
f 381 1225 1221
f 381 1228 1224
f 381 1233 1230
f 381 1236 1232
f 381 363 1235
f 260 216 1253
f 1254 259 229
f 1255 1254 229
f 1256 1255 229
f 1257 1256 229
f 228 1257 229
f 639 228 230
f 230 211 466
f 1005 230 206
f 1170 1258 1259
f 1170 1259 1260
f 1170 1260 1261
f 1170 1261 1262
f 1170 1262 1263
f 1170 1263 1264
f 1170 1264 1265
f 1170 1265 1266
f 1170 1266 1267
f 1170 1267 1268
f 1170 1268 1269
f 1170 1269 1270
f 1170 1270 1271
f 1170 1271 1272
f 1170 1272 1273
f 1170 1273 1274
f 1170 1274 1275
f 1170 1275 1276
f 1170 1276 1277
f 1170 1277 1278
f 1170 1278 1279
f 1170 1279 1280
f 1170 1280 1281
f 1170 1281 1282
f 1170 1282 1283
f 1170 1283 1284
f 1170 1284 1285
f 1170 1285 1286
f 1170 1286 1287
f 1170 1287 1288
f 1170 1288 1289
f 1170 1289 1290
f 1170 1290 1291
f 1170 1291 1292
f 1170 1292 1293
f 1170 1293 206
f 206 1293 1294
f 206 1294 1295
f 206 1295 1296
f 206 1296 1297
f 206 1297 1298
f 206 1298 1299
f 206 1299 1300
f 206 1300 1301
f 206 1301 1302
f 206 1302 1303
f 323 206 1303
f 968 915 1130
f 915 234 5
f 915 5 991
f 991 5 983
f 983 5 1022
f 1022 5 1016
f 1016 5 1041
f 1031 1041 1304
f 1305 1031 5
f 1306 1305 5
f 1307 1306 5
f 1308 1307 5
f 1309 1308 5
f 1310 1309 5
f 1311 1310 5
f 1312 1311 5
f 1313 1312 5
f 1314 1313 5
f 1315 1314 5
f 1316 1315 5
f 1317 1316 5
f 1318 1317 5
f 1319 1318 5
f 1320 1319 5
f 1321 1320 5
f 1322 1321 5
f 1323 1322 5
f 1324 1323 5
f 1325 1324 5
f 1326 1325 5
f 1327 1326 5
f 1328 1327 5
f 1329 1328 5
f 1330 1329 5
f 1331 1330 5
f 1332 1331 5
f 1333 1332 5
f 1334 1333 5
f 1335 1334 5
f 1336 1335 5
f 1337 1336 5
f 1338 1337 5
f 1339 1338 5
f 1340 1339 5
f 1341 1340 5
f 1342 1341 5
f 1343 1342 5
f 1344 1343 5
f 1345 1344 5
f 1346 1345 5
f 1347 1346 5
f 1348 1347 5
f 1349 1348 5
f 1350 1349 5
f 1351 1350 5
f 1352 1351 5
f 1353 1352 5
f 1354 1353 5
f 1355 1354 5
f 1356 1355 5
f 1357 1356 5
f 1358 1357 5
f 324 1358 5
f 1 324 5
f 159 895 1143
f 221 226 222
f 226 220 222
f 1104 1120 1116
f 1120 1112 1116
f 1142 1155 1152
f 1155 1149 1152
f 1181 1178 1359
f 1178 891 1360
f 1359 1418 891
f 1418 1405 891
f 1405 1419 891
f 1419 1361 891
f 1359 1178 1362
f 891 1362 1360
f 1362 1178 1360
f 1203 1184 1206
f 1184 891 1206
f 891 1208 1212
f 1208 1211 1212
f 1220 1186 1223
f 1186 1222 1223
f 1209 1194 1213
f 1194 381 1213
f 343 1253 672
f 1253 216 672
f 1359 1404 1181
f 1404 1198 1181
f 1363 1406 891
f 1406 1359 891
f 891 1198 1364
f 1198 1404 1364
f 1404 1359 1364
f 891 1364 1365
f 1364 1359 1365
f 891 1365 1366
f 1365 1359 1366
f 891 1366 1363
f 1359 1406 1366
f 1406 1363 1366
f 1362 1407 1405
f 1361 1419 1407
f 1419 1405 1407
f 1405 1418 1362
f 1418 1359 1362
f 1361 1407 891
f 1407 1362 891
f 891 1214 1217
f 1214 1187 1217
f 1190 1238 1191
f 1238 1189 1191
f 300 216 322
f 216 260 322
f 226 224 588
f 224 570 588
f 208 218 256
f 218 217 1367
f 256 1417 217
f 1417 1403 217
f 1403 1421 217
f 1421 1368 217
f 1368 1421 218
f 1421 1403 218
f 1403 1417 218
f 1417 256 218
f 1368 1422 217
f 1422 1408 217
f 1408 1420 217
f 1420 1367 217
f 1367 1420 218
f 1420 1408 218
f 1408 1422 218
f 1422 1368 218
f 206 234 207
f 234 205 1369
f 205 207 1370
f 207 234 1371
f 205 1371 1372
f 1371 234 1373
f 205 1373 1374
f 1373 234 1375
f 205 1375 1369
f 1375 234 1369
f 207 1371 1370
f 1371 205 1376
f 1371 1373 1372
f 1373 205 1372
f 1373 1375 1377
f 1375 205 1377
f 234 915 1378
f 915 889 1379
f 915 1380 1378
f 1380 234 1378
f 205 1370 1376
f 1370 1371 1376
f 1373 1377 1374
f 1377 205 1374
f 234 1380 1381
f 1380 889 1381
f 234 1381 903
f 1381 889 903
f 889 1380 1382
f 1380 915 1383
f 915 1382 1384
f 1382 1380 1383
f 1382 1383 1385
f 1383 915 1385
f 1382 1423 889
f 1423 1411 889
f 1411 1424 889
f 1424 1386 889
f 1382 915 1387
f 915 1388 1389
f 1388 1382 1390
f 1382 1385 1391
f 1385 915 1391
f 1388 1412 1411
f 1386 1424 1412
f 1424 1411 1412
f 1411 1423 1388
f 1423 1382 1388
f 1386 1412 889
f 1412 1388 889
f 889 1388 1392
f 1393 1413 915
f 1413 1388 915
f 1388 1390 1394
f 1390 915 1394
f 1382 1391 1395
f 1391 915 1395
f 1392 1409 889
f 1409 1379 889
f 1392 915 1396
f 1379 1410 915
f 1410 1397 915
f 1379 1409 1398
f 1409 1392 1398
f 915 1398 1399
f 1398 1392 1396
f 1388 1394 1389
f 1394 915 1389
f 1382 1395 1384
f 1395 915 1384
f 1398 1396 1399
f 1396 915 1400
f 915 1390 1387
f 1390 1382 1387
f 1397 1410 1398
f 1410 1379 1398
f 1401 1427 915
f 1427 1416 915
f 1416 1426 915
f 1426 1398 915
f 915 1399 1400
f 1399 1396 1400
f 1392 1414 915
f 1414 1393 915
f 1388 1413 1414
f 1413 1393 1414
f 1388 1414 1392
f 373 443 424
f 443 407 424
f 1397 1415 915
f 1415 1401 915
f 1398 1426 1416
f 1415 1425 1426
f 1426 1398 1425
f 1416 1427 1415
f 1427 1401 1415
f 1398 1425 1397
f 1425 1415 1397
f 250 290 271
f 290 175 271
f 443 461 444
f 461 407 444
f 351 332 352
f 332 350 352
f 475 493 492
f 493 476 492
f 615 633 616
f 633 598 616
f 745 760 746
f 760 732 746
f 854 870 869
f 870 855 869
f 368 308 386
f 308 169 386
f 171 308 287
f 308 268 287
f 349 387 369
f 387 331 369
f 528 511 530
f 511 529 530
f 650 683 666
f 683 665 666
f 774 790 789
f 790 773 789
f 885 911 899
f 911 898 899
f 164 244 1402
f 244 169 1402
f 266 305 285
f 305 246 285
f 526 489 527
f 489 509 527
f 680 664 682
f 664 681 682
f 803 818 804
f 818 788 804
f 923 953 943
f 953 934 943
f 302 162 326
f 162 325 326
f 415 162 434
f 162 433 434
f 164 1402 170
f 1402 169 170
f 524 167 543
f 167 166 543
f 695 677 1014
f 677 660 1014
f 863 1129 880
f 1129 879 880
f 1041 5 1304
f 5 1031 1304
f 5 6 67
f 101 102 103
f 230 1258 1170
f 234 226 1368
f 299 1031 1388
f 1041 983 5
f 1022 915 5
f 194 184 191
f 184 251 182
