v 1.867372 0.559197 -6.239954
v 1.869532 0.538994 -6.241806
v 1.868462 0.549097 -6.240888
v 1.870582 0.528887 -6.242706
v 1.871612 0.518776 -6.243590
v 1.872623 0.508662 -6.244456
v 1.873614 0.498545 -6.245305
v 1.874584 0.488424 -6.246137
v 1.875535 0.478300 -6.246952
v 1.876466 0.468173 -6.247750
v 1.877377 0.458042 -6.248531
v 1.878268 0.447908 -6.249295
v 1.879140 0.437772 -6.250041
v 1.879991 0.427632 -6.250771
v 1.880822 0.417490 -6.251483
v 1.881634 0.407344 -6.252179
v 1.882425 0.397196 -6.252857
v 1.883197 0.387045 -6.253518
v 1.883949 0.376892 -6.254162
v 1.884680 0.366736 -6.254788
v 1.885392 0.356578 -6.255398
v 1.886083 0.346417 -6.255990
v 1.886755 0.336253 -6.256566
v 1.887407 0.326088 -6.257124
v 1.888039 0.315920 -6.257665
v 1.888650 0.305750 -6.258189
v 1.889242 0.295578 -6.258696
v 1.889814 0.285404 -6.259185
v 1.890365 0.275228 -6.259658
v 1.890897 0.265050 -6.260113
v 1.891409 0.254871 -6.260551
v 1.891900 0.244690 -6.260972
v 1.892372 0.234507 -6.261376
v 1.870061 0.559470 -6.239917
v 1.872750 0.559736 -6.239808
v 1.875435 0.559995 -6.239627
v 1.878114 0.560246 -6.239373
v 1.880787 0.560490 -6.239046
v 1.883451 0.560727 -6.238647
v 1.886103 0.560955 -6.238177
v 1.888743 0.561176 -6.237635
v 1.891367 0.561389 -6.237022
v 1.893975 0.561593 -6.236338
v 1.892727 0.244726 -6.260960
v 1.893063 0.254946 -6.260521
v 1.893379 0.265168 -6.260058
v 1.893677 0.275391 -6.259572
v 1.893955 0.285614 -6.259061
v 1.894214 0.295838 -6.258527
v 1.894453 0.306063 -6.257970
v 1.894673 0.316288 -6.257388
v 1.894873 0.326514 -6.256783
v 1.895054 0.336740 -6.256155
v 1.895215 0.346966 -6.255502
v 1.895356 0.357193 -6.254826
v 1.895478 0.367419 -6.254126
v 1.895580 0.377646 -6.253403
v 1.895662 0.387872 -6.252655
v 1.895724 0.398098 -6.251885
v 1.895767 0.408324 -6.251090
v 1.895789 0.418549 -6.250272
v 1.895791 0.428773 -6.249430
v 1.895773 0.438997 -6.248564
v 1.895735 0.449220 -6.247675
v 1.895677 0.459442 -6.246763
v 1.895599 0.469664 -6.245826
v 1.895500 0.479884 -6.244866
v 1.895381 0.490103 -6.243883
v 1.895242 0.500320 -6.242875
v 1.895082 0.510536 -6.241845
v 1.894902 0.520751 -6.240790
v 1.894701 0.530964 -6.239713
v 1.894480 0.541176 -6.238611
v 1.894238 0.551385 -6.237486
v 1.893255 0.214136 -6.262132
v 1.892823 0.224322 -6.261762
v 1.893666 0.203948 -6.262484
v 1.894058 0.193760 -6.262819
v 1.894429 0.183569 -6.263137
v 1.894780 0.173378 -6.263438
v 1.895112 0.163185 -6.263721
v 1.895423 0.152992 -6.263988
v 1.895714 0.142797 -6.264237
v 1.895985 0.132601 -6.264469
v 1.896236 0.122405 -6.264684
v 1.896467 0.112207 -6.264881
v 1.896678 0.102009 -6.265062
v 1.896868 0.091810 -6.265225
v 1.897039 0.081611 -6.265371
v 1.897190 0.071411 -6.265500
v 1.897320 0.061210 -6.265612
v 1.897431 0.051009 -6.265706
v 1.897521 0.040808 -6.265784
v 1.897591 0.030606 -6.265844
v 1.897642 0.020404 -6.265887
v 1.897672 0.010202 -6.265913
v 1.897682 0.000000 -6.265921
v 1.902974 0.000000 -6.265715
v 1.908247 0.000000 -6.265230
v 1.913488 0.000000 -6.264466
v 1.918680 0.000000 -6.263425
v 1.923811 0.000000 -6.262111
v 1.928864 0.000000 -6.260528
v 1.933827 0.000000 -6.258679
v 1.938685 0.000000 -6.256570
v 1.943424 0.000000 -6.254206
v 1.948031 0.000000 -6.251595
v 1.896564 0.561788 -6.235584
v 1.899132 0.561975 -6.234761
v 1.901678 0.562154 -6.233868
v 1.904200 0.562323 -6.232908
v 1.906695 0.562483 -6.231879
v 1.909162 0.562635 -6.230784
v 1.911599 0.562777 -6.229623
v 1.914005 0.562909 -6.228396
v 1.916377 0.563033 -6.227105
v 1.918714 0.563146 -6.225751
v 1.948012 0.010271 -6.251592
v 1.947974 0.020543 -6.251572
v 1.947917 0.030814 -6.251535
v 1.947841 0.041085 -6.251480
v 1.947746 0.051355 -6.251407
v 1.947631 0.061626 -6.251318
v 1.947498 0.071896 -6.251211
v 1.947345 0.082165 -6.251087
v 1.947174 0.092434 -6.250945
v 1.946983 0.102702 -6.250787
v 1.946773 0.112970 -6.250610
v 1.946545 0.123237 -6.250417
v 1.946297 0.133503 -6.250206
v 1.946030 0.143768 -6.249978
v 1.945744 0.154033 -6.249733
v 1.945439 0.164296 -6.249470
v 1.945115 0.174559 -6.249190
v 1.944772 0.184820 -6.248893
v 1.944410 0.195080 -6.248578
v 1.944029 0.205339 -6.248246
v 1.943629 0.215597 -6.247897
v 1.943210 0.225853 -6.247531
v 1.942771 0.236108 -6.247147
v 1.942314 0.246362 -6.246746
v 1.941838 0.256614 -6.246327
v 1.941342 0.266864 -6.245892
v 1.940828 0.277113 -6.245439
v 1.940294 0.287360 -6.244968
v 1.939742 0.297605 -6.244481
v 1.939171 0.307848 -6.243976
v 1.938580 0.318090 -6.243454
v 1.937971 0.328329 -6.242915
v 1.937342 0.338567 -6.242358
v 1.936695 0.348802 -6.241784
v 1.936028 0.359035 -6.241193
v 1.935343 0.369266 -6.240584
v 1.934638 0.379495 -6.239959
v 1.933915 0.389721 -6.239316
v 1.933172 0.399945 -6.238656
v 1.932411 0.410166 -6.237978
v 1.931630 0.420385 -6.237284
v 1.930831 0.430601 -6.236572
v 1.930012 0.440815 -6.235843
v 1.929175 0.451025 -6.235096
v 1.928319 0.461233 -6.234333
v 1.927444 0.471439 -6.233552
v 1.926549 0.481641 -6.232754
v 1.925636 0.491840 -6.231939
v 1.924704 0.502036 -6.231106
v 1.923753 0.512229 -6.230257
v 1.922783 0.522419 -6.229390
v 1.921794 0.532606 -6.228506
v 1.920787 0.542790 -6.227605
v 1.919760 0.552970 -6.226686
v 1.956800 0.000000 -6.245661
v 1.952494 0.000000 -6.248744
v 1.960936 0.000000 -6.242354
v 1.964892 0.000000 -6.238832
v 1.968655 0.000000 -6.235106
v 1.972216 0.000000 -6.231187
v 1.975565 0.000000 -6.227084
v 1.978691 0.000000 -6.222809
v 1.981587 0.000000 -6.218375
v 1.984244 0.000000 -6.213794
v 1.921015 0.563251 -6.224334
v 1.923277 0.563345 -6.222856
v 1.925498 0.563430 -6.221318
v 1.927678 0.563504 -6.219720
v 1.929815 0.563569 -6.218065
v 1.931906 0.563625 -6.216352
v 1.933951 0.563670 -6.214585
v 1.935948 0.563705 -6.212763
v 1.937896 0.563730 -6.210888
v 1.939793 0.563745 -6.208961
v 1.941637 0.563750 -6.206985
v 1.943428 0.563745 -6.204959
v 1.945164 0.563730 -6.202887
v 1.946844 0.563705 -6.200769
v 1.948467 0.563670 -6.198606
v 1.950031 0.563625 -6.196401
v 1.951535 0.563569 -6.194156
v 1.952978 0.563504 -6.191870
v 1.954360 0.563430 -6.189548
v 1.955678 0.563345 -6.187189
v 1.956933 0.563251 -6.184796
v 1.984263 0.010275 -6.213734
v 1.984262 0.020550 -6.213657
v 1.984242 0.030824 -6.213563
v 1.984203 0.041098 -6.213451
v 1.984145 0.051372 -6.213322
v 1.984068 0.061646 -6.213175
v 1.983972 0.071919 -6.213012
v 1.983856 0.082191 -6.212830
v 1.983722 0.092463 -6.212632
v 1.983568 0.102734 -6.212416
v 1.983395 0.113005 -6.212183
v 1.983204 0.123275 -6.211932
v 1.982993 0.133544 -6.211664
v 1.982763 0.143812 -6.211379
v 1.982514 0.154079 -6.211077
v 1.982246 0.164345 -6.210757
v 1.981959 0.174610 -6.210420
v 1.981652 0.184874 -6.210065
v 1.981327 0.195136 -6.209693
v 1.980982 0.205398 -6.209304
v 1.980619 0.215658 -6.208898
v 1.980236 0.225916 -6.208474
v 1.979835 0.236174 -6.208033
v 1.979414 0.246429 -6.207575
v 1.978974 0.256683 -6.207099
v 1.978515 0.266936 -6.206606
v 1.978037 0.277187 -6.206096
v 1.977540 0.287435 -6.205568
v 1.977024 0.297683 -6.205023
v 1.976489 0.307928 -6.204461
v 1.975935 0.318171 -6.203881
v 1.975362 0.328412 -6.203285
v 1.974770 0.338651 -6.202670
v 1.974158 0.348888 -6.202039
v 1.973528 0.359123 -6.201391
v 1.972879 0.369355 -6.200725
v 1.972211 0.379585 -6.200041
v 1.971523 0.389813 -6.199341
v 1.970817 0.400038 -6.198623
v 1.970091 0.410260 -6.197888
v 1.969347 0.420480 -6.197136
v 1.968584 0.430697 -6.196367
v 1.967801 0.440912 -6.195580
v 1.967000 0.451124 -6.194776
v 1.966180 0.461332 -6.193955
v 1.965340 0.471538 -6.193116
v 1.964482 0.481741 -6.192261
v 1.963605 0.491941 -6.191388
v 1.962709 0.502138 -6.190498
v 1.961793 0.512332 -6.189591
v 1.960859 0.522522 -6.188666
v 1.959906 0.532709 -6.187724
v 1.958934 0.542893 -6.186765
v 1.957943 0.553074 -6.185789
v 1.988813 0.000000 -6.204243
v 1.986655 0.000000 -6.209079
v 1.990712 0.000000 -6.199299
v 1.992346 0.000000 -6.194262
v 1.993712 0.000000 -6.189145
v 1.994805 0.000000 -6.183963
v 1.995621 0.000000 -6.178730
v 1.996160 0.000000 -6.173462
v 1.996419 0.000000 -6.168172
v 1.996397 0.000000 -6.162877
v 1.996096 0.000000 -6.157589
v 1.996086 0.010202 -6.157580
v 1.996058 0.020404 -6.157553
v 1.996010 0.030606 -6.157507
v 1.995943 0.040808 -6.157442
v 1.995858 0.051009 -6.157360
v 1.995753 0.061210 -6.157259
v 1.995629 0.071411 -6.157140
v 1.995487 0.081611 -6.157002
v 1.995325 0.091810 -6.156846
v 1.995144 0.102009 -6.156672
v 1.994944 0.112207 -6.156479
v 1.994725 0.122405 -6.156269
v 1.994488 0.132601 -6.156039
v 1.994231 0.142797 -6.155792
v 1.993955 0.152992 -6.155526
v 1.993660 0.163185 -6.155242
v 1.993346 0.173378 -6.154939
v 1.993013 0.183569 -6.154618
v 1.992661 0.193760 -6.154279
v 1.992290 0.203948 -6.153921
v 1.991900 0.214136 -6.153546
v 1.991491 0.224322 -6.153151
v 1.958123 0.563146 -6.182371
v 1.959247 0.563033 -6.179915
v 1.960305 0.562909 -6.177430
v 1.961296 0.562777 -6.174917
v 1.962219 0.562635 -6.172380
v 1.963073 0.562483 -6.169820
v 1.963858 0.562323 -6.167237
v 1.964573 0.562154 -6.164635
v 1.965217 0.561975 -6.162016
v 1.965791 0.561788 -6.159381
v 1.991134 0.234544 -6.153618
v 1.990752 0.244767 -6.154069
v 1.990342 0.254991 -6.154502
v 1.989907 0.265217 -6.154919
v 1.989445 0.275444 -6.155319
v 1.988957 0.285671 -6.155701
v 1.988442 0.295900 -6.156067
v 1.987901 0.306129 -6.156416
v 1.987333 0.316359 -6.156747
v 1.986739 0.326590 -6.157061
v 1.986119 0.336821 -6.157358
v 1.985472 0.347052 -6.157638
v 1.984799 0.357283 -6.157900
v 1.984099 0.367515 -6.158144
v 1.983373 0.377746 -6.158371
v 1.982620 0.387978 -6.158580
v 1.981841 0.398209 -6.158772
v 1.981036 0.408440 -6.158946
v 1.980204 0.418670 -6.159102
v 1.979346 0.428900 -6.159240
v 1.978462 0.439129 -6.159360
v 1.977551 0.449358 -6.159462
v 1.976613 0.459585 -6.159547
v 1.975650 0.469812 -6.159613
v 1.974660 0.480038 -6.159660
v 1.973643 0.490262 -6.159690
v 1.972600 0.500485 -6.159701
v 1.971531 0.510706 -6.159694
v 1.970436 0.520926 -6.159668
v 1.969314 0.531145 -6.159624
v 1.968166 0.541361 -6.159562
v 1.966992 0.551576 -6.159480
v 1.990616 0.244690 -6.152308
v 1.991063 0.234507 -6.152739
v 1.990150 0.254871 -6.151859
v 1.989664 0.265050 -6.151392
v 1.989160 0.275228 -6.150906
v 1.988637 0.285404 -6.150402
v 1.988095 0.295578 -6.149880
v 1.987534 0.305750 -6.149339
v 1.986954 0.315920 -6.148781
v 1.986355 0.326088 -6.148204
v 1.985737 0.336253 -6.147608
v 1.985100 0.346417 -6.146995
v 1.984444 0.356578 -6.146363
v 1.983769 0.366736 -6.145713
v 1.983075 0.376892 -6.145045
v 1.982363 0.387045 -6.144358
v 1.981631 0.397196 -6.143654
v 1.980880 0.407344 -6.142931
v 1.980110 0.417490 -6.142189
v 1.979322 0.427632 -6.141430
v 1.978514 0.437772 -6.140652
v 1.977687 0.447908 -6.139857
v 1.976842 0.458042 -6.139043
v 1.975977 0.468173 -6.138210
v 1.975094 0.478300 -6.137360
v 1.974192 0.488424 -6.136492
v 1.973270 0.498545 -6.135605
v 1.972330 0.508662 -6.134700
v 1.971371 0.518776 -6.133777
v 1.970393 0.528887 -6.132836
v 1.969396 0.538994 -6.131877
v 1.968381 0.549097 -6.130900
v 1.967346 0.559197 -6.129904
v 1.966294 0.561593 -6.156731
v 1.966724 0.561389 -6.154070
v 1.967084 0.561176 -6.151399
v 1.967370 0.560955 -6.148720
v 1.967585 0.560727 -6.146034
v 1.967727 0.560490 -6.143345
v 1.967796 0.560246 -6.140653
v 1.967792 0.559995 -6.137961
v 1.967716 0.559736 -6.135271
v 1.967567 0.559470 -6.132585
f 1 2 3
f 1 4 2
f 1 5 4
f 1 6 5
f 1 7 6
f 1 8 7
f 1 9 8
f 1 10 9
f 1 11 10
f 1 12 11
f 1 13 12
f 1 14 13
f 1 15 14
f 1 16 15
f 1 17 16
f 1 18 17
f 1 19 18
f 1 20 19
f 1 21 20
f 1 22 21
f 1 23 22
f 1 24 23
f 1 25 24
f 1 26 25
f 1 27 26
f 1 28 27
f 1 29 28
f 1 30 29
f 1 31 30
f 1 32 31
f 1 33 32
f 1 34 35
f 1 35 36
f 1 36 37
f 1 37 38
f 1 38 39
f 1 39 40
f 1 40 41
f 1 41 42
f 1 42 43
f 1 44 33
f 1 45 44
f 1 46 45
f 1 47 46
f 1 48 47
f 1 49 48
f 1 50 49
f 1 51 50
f 1 52 51
f 1 53 52
f 1 54 53
f 1 55 54
f 1 56 55
f 1 57 56
f 1 58 57
f 1 59 58
f 1 60 59
f 1 61 60
f 1 62 61
f 1 63 62
f 1 64 63
f 1 65 64
f 1 66 65
f 1 67 66
f 1 68 67
f 1 69 68
f 1 70 69
f 1 71 70
f 1 72 71
f 1 73 72
f 1 74 73
f 1 43 74
f 33 75 76
f 33 77 75
f 33 78 77
f 33 79 78
f 33 80 79
f 33 81 80
f 33 82 81
f 33 83 82
f 33 84 83
f 33 85 84
f 33 86 85
f 33 87 86
f 33 88 87
f 33 89 88
f 33 90 89
f 33 91 90
f 33 92 91
f 33 93 92
f 33 94 93
f 33 95 94
f 33 96 95
f 33 97 96
f 33 98 97
f 33 99 98
f 33 100 99
f 33 101 100
f 33 102 101
f 33 103 102
f 33 104 103
f 33 105 104
f 33 106 105
f 33 107 106
f 43 108 109
f 43 109 110
f 43 110 111
f 43 111 112
f 43 112 113
f 43 113 114
f 43 114 115
f 43 115 116
f 43 116 117
f 33 118 107
f 33 119 118
f 33 120 119
f 33 121 120
f 33 122 121
f 33 123 122
f 33 124 123
f 33 125 124
f 33 126 125
f 33 127 126
f 33 128 127
f 33 129 128
f 33 130 129
f 33 131 130
f 33 132 131
f 33 133 132
f 33 134 133
f 33 135 134
f 33 136 135
f 33 137 136
f 33 138 137
f 33 139 138
f 33 140 139
f 33 44 140
f 44 141 140
f 44 45 141
f 45 142 141
f 45 46 142
f 46 143 142
f 46 47 143
f 47 144 143
f 47 48 144
f 48 145 144
f 48 49 145
f 49 146 145
f 49 50 146
f 50 147 146
f 50 51 147
f 51 148 147
f 51 52 148
f 52 149 148
f 52 53 149
f 53 150 149
f 53 54 150
f 54 151 150
f 54 55 151
f 55 152 151
f 55 56 152
f 56 153 152
f 56 57 153
f 57 154 153
f 57 58 154
f 58 155 154
f 58 59 155
f 59 156 155
f 59 60 156
f 60 157 156
f 60 61 157
f 61 158 157
f 61 62 158
f 62 159 158
f 62 63 159
f 63 160 159
f 63 64 160
f 64 161 160
f 64 65 161
f 65 162 161
f 65 66 162
f 66 163 162
f 66 67 163
f 67 164 163
f 67 68 164
f 68 165 164
f 68 69 165
f 69 166 165
f 69 70 166
f 70 167 166
f 70 71 167
f 71 168 167
f 71 72 168
f 72 169 168
f 72 73 169
f 73 170 169
f 73 74 170
f 74 171 170
f 74 43 171
f 43 117 171
f 107 172 173
f 107 174 172
f 107 175 174
f 107 176 175
f 107 177 176
f 107 178 177
f 107 179 178
f 107 180 179
f 107 181 180
f 117 182 183
f 117 183 184
f 117 184 185
f 117 185 186
f 117 186 187
f 117 187 188
f 117 188 189
f 117 189 190
f 117 190 191
f 117 191 192
f 117 192 193
f 117 193 194
f 117 194 195
f 117 195 196
f 117 196 197
f 117 197 198
f 117 198 199
f 117 199 200
f 117 200 201
f 117 201 202
f 107 118 181
f 118 203 181
f 118 119 203
f 119 204 203
f 119 120 204
f 120 205 204
f 120 121 205
f 121 206 205
f 121 122 206
f 122 207 206
f 122 123 207
f 123 208 207
f 123 124 208
f 124 209 208
f 124 125 209
f 125 210 209
f 125 126 210
f 126 211 210
f 126 127 211
f 127 212 211
f 127 128 212
f 128 213 212
f 128 129 213
f 129 214 213
f 129 130 214
f 130 215 214
f 130 131 215
f 131 216 215
f 131 132 216
f 132 217 216
f 132 133 217
f 133 218 217
f 133 134 218
f 134 219 218
f 134 135 219
f 135 220 219
f 135 136 220
f 136 221 220
f 136 137 221
f 137 222 221
f 137 138 222
f 138 223 222
f 138 139 223
f 139 224 223
f 139 140 224
f 140 225 224
f 140 141 225
f 141 226 225
f 141 142 226
f 142 227 226
f 142 143 227
f 143 228 227
f 143 144 228
f 144 229 228
f 144 145 229
f 145 230 229
f 145 146 230
f 146 231 230
f 146 147 231
f 147 232 231
f 147 148 232
f 148 233 232
f 148 149 233
f 149 234 233
f 149 150 234
f 150 235 234
f 150 151 235
f 151 236 235
f 151 152 236
f 152 237 236
f 152 153 237
f 153 238 237
f 153 154 238
f 154 239 238
f 154 155 239
f 155 240 239
f 155 156 240
f 156 241 240
f 156 157 241
f 157 242 241
f 157 158 242
f 158 243 242
f 158 159 243
f 159 244 243
f 159 160 244
f 160 245 244
f 160 161 245
f 161 246 245
f 161 162 246
f 162 247 246
f 162 163 247
f 163 248 247
f 163 164 248
f 164 249 248
f 164 165 249
f 165 250 249
f 165 166 250
f 166 251 250
f 166 167 251
f 167 252 251
f 167 168 252
f 168 253 252
f 168 169 253
f 169 254 253
f 169 170 254
f 170 255 254
f 170 171 255
f 171 256 255
f 171 117 256
f 117 202 256
f 181 257 258
f 181 259 257
f 181 260 259
f 181 261 260
f 181 262 261
f 181 263 262
f 181 264 263
f 181 265 264
f 181 266 265
f 181 267 266
f 181 268 267
f 181 269 268
f 181 270 269
f 181 271 270
f 181 272 271
f 181 273 272
f 181 274 273
f 181 275 274
f 181 276 275
f 181 277 276
f 181 278 277
f 181 279 278
f 181 280 279
f 181 281 280
f 181 282 281
f 181 283 282
f 181 284 283
f 181 285 284
f 181 286 285
f 181 287 286
f 181 288 287
f 181 289 288
f 202 290 291
f 202 291 292
f 202 292 293
f 202 293 294
f 202 294 295
f 202 295 296
f 202 296 297
f 202 297 298
f 202 298 299
f 181 203 289
f 203 204 289
f 204 205 289
f 205 206 289
f 206 207 289
f 207 208 289
f 208 209 289
f 209 210 289
f 210 211 289
f 211 212 289
f 212 213 289
f 213 214 289
f 214 215 289
f 215 216 289
f 216 217 289
f 217 218 289
f 218 219 289
f 219 220 289
f 220 221 289
f 221 222 289
f 222 223 289
f 223 224 289
f 224 225 289
f 225 300 289
f 225 226 300
f 226 301 300
f 226 227 301
f 227 302 301
f 227 228 302
f 228 303 302
f 228 229 303
f 229 304 303
f 229 230 304
f 230 305 304
f 230 231 305
f 231 306 305
f 231 232 306
f 232 307 306
f 232 233 307
f 233 308 307
f 233 234 308
f 234 309 308
f 234 235 309
f 235 310 309
f 235 236 310
f 236 311 310
f 236 237 311
f 237 312 311
f 237 238 312
f 238 313 312
f 238 239 313
f 239 314 313
f 239 240 314
f 240 315 314
f 240 241 315
f 241 316 315
f 241 242 316
f 242 317 316
f 242 243 317
f 243 318 317
f 243 244 318
f 244 319 318
f 244 245 319
f 245 320 319
f 245 246 320
f 246 321 320
f 246 247 321
f 247 322 321
f 247 248 322
f 248 323 322
f 248 249 323
f 249 324 323
f 249 250 324
f 250 325 324
f 250 251 325
f 251 326 325
f 251 252 326
f 252 327 326
f 252 253 327
f 253 328 327
f 253 254 328
f 254 329 328
f 254 255 329
f 255 330 329
f 255 256 330
f 256 331 330
f 256 202 331
f 202 299 331
f 289 332 333
f 289 334 332
f 289 335 334
f 289 336 335
f 289 337 336
f 289 338 337
f 289 339 338
f 289 340 339
f 289 341 340
f 289 342 341
f 289 343 342
f 289 344 343
f 289 345 344
f 289 346 345
f 289 347 346
f 289 348 347
f 289 349 348
f 289 350 349
f 289 351 350
f 289 352 351
f 289 353 352
f 289 354 353
f 289 355 354
f 289 356 355
f 289 357 356
f 289 358 357
f 289 359 358
f 289 360 359
f 289 361 360
f 289 362 361
f 289 363 362
f 289 364 363
f 299 365 366
f 299 366 367
f 299 367 368
f 299 368 369
f 299 369 370
f 299 370 371
f 299 371 372
f 299 372 373
f 299 373 374
f 299 374 364
f 289 300 364
f 300 301 364
f 301 302 364
f 302 303 364
f 303 304 364
f 304 305 364
f 305 306 364
f 306 307 364
f 307 308 364
f 308 309 364
f 309 310 364
f 310 311 364
f 311 312 364
f 312 313 364
f 313 314 364
f 314 315 364
f 315 316 364
f 316 317 364
f 317 318 364
f 318 319 364
f 319 320 364
f 320 321 364
f 321 322 364
f 322 323 364
f 323 324 364
f 324 325 364
f 325 326 364
f 326 327 364
f 327 328 364
f 328 329 364
f 329 330 364
f 330 331 364
f 331 299 364
