v -0.262968 0.000000 0.686458
v -0.239801 0.000000 0.694890
v -0.239402 0.000000 0.695026
v -0.238997 0.000000 0.695145
v -0.238587 0.000000 0.695247
v -0.238173 0.000000 0.695331
v -0.237756 0.000000 0.695398
v -0.237337 0.000000 0.695447
v -0.236916 0.000000 0.695479
v -0.236494 0.000000 0.695493
v -0.236072 0.000000 0.695488
v -0.235650 0.000000 0.695466
v -0.235230 0.000000 0.695427
v -0.234811 0.000000 0.695369
v -0.234396 0.000000 0.695294
v -0.233984 0.000000 0.695202
v -0.233576 0.000000 0.695092
v -0.233174 0.000000 0.694965
v -0.232777 0.000000 0.694821
v -0.232386 0.000000 0.694660
v -0.232003 0.000000 0.694484
v -0.231627 0.000000 0.694291
v -0.231260 0.000000 0.694082
v -0.230902 0.000000 0.693858
v -0.230554 0.000000 0.693620
v -0.230216 0.000000 0.693366
v -0.229889 0.000000 0.693099
v -0.229574 0.000000 0.692818
v -0.229271 0.000000 0.692524
v -0.228980 0.000000 0.692218
v -0.228703 0.000000 0.691899
v -0.228439 0.000000 0.691570
v -0.228190 0.000000 0.691229
v -0.193363 0.000000 0.641491
v -0.264218 0.010000 0.615702
v -0.261980 0.010000 0.616658
v -0.259738 0.010000 0.617605
v -0.257493 0.010000 0.618544
v -0.255245 0.010000 0.619476
v -0.252993 0.010000 0.620399
v -0.250738 0.010000 0.621314
v -0.248479 0.010000 0.622220
v -0.246218 0.010000 0.623119
v -0.243953 0.010000 0.624009
v -0.241685 0.010000 0.624891
v -0.239413 0.010000 0.625765
v -0.237139 0.010000 0.626630
v -0.234861 0.010000 0.627487
v -0.232580 0.010000 0.628336
v -0.230297 0.010000 0.629177
v -0.228010 0.010000 0.630009
v -0.225720 0.010000 0.630833
v -0.223427 0.010000 0.631649
v -0.221131 0.010000 0.632456
v -0.218833 0.010000 0.633255
v -0.216531 0.010000 0.634046
v -0.214226 0.010000 0.634828
v -0.211919 0.010000 0.635602
v -0.209609 0.010000 0.636368
v -0.207296 0.010000 0.637125
v -0.204981 0.010000 0.637874
v -0.202662 0.010000 0.638614
v -0.200342 0.010000 0.639346
v -0.198018 0.010000 0.640069
v -0.195692 0.010000 0.640784
v -0.193363 0.010000 0.641491
v -0.264218 0.000000 0.615702
v -0.269510 0.000000 0.676190
v -0.269538 0.000000 0.676611
v -0.269548 0.000000 0.677033
v -0.269540 0.000000 0.677455
v -0.269515 0.000000 0.677877
v -0.269471 0.000000 0.678297
v -0.269410 0.000000 0.678714
v -0.269332 0.000000 0.679129
v -0.269236 0.000000 0.679540
v -0.269122 0.000000 0.679947
v -0.268992 0.000000 0.680349
v -0.268845 0.000000 0.680744
v -0.268681 0.000000 0.681134
v -0.268501 0.000000 0.681516
v -0.268305 0.000000 0.681890
v -0.268093 0.000000 0.682255
v -0.267867 0.000000 0.682611
v -0.267625 0.000000 0.682957
v -0.267369 0.000000 0.683293
v -0.267099 0.000000 0.683618
v -0.266815 0.000000 0.683930
v -0.266519 0.000000 0.684231
v -0.266210 0.000000 0.684519
v -0.265889 0.000000 0.684793
v -0.265557 0.000000 0.685054
v -0.265214 0.000000 0.685301
v -0.264861 0.000000 0.685533
v -0.264499 0.000000 0.685749
v -0.264128 0.000000 0.685951
v -0.263749 0.000000 0.686136
v -0.263362 0.000000 0.686305
f 1 2 3
f 1 3 4
f 1 4 5
f 1 5 6
f 1 6 7
f 1 7 8
f 1 8 9
f 1 9 10
f 1 10 11
f 1 11 12
f 1 12 13
f 1 13 14
f 1 14 15
f 1 15 16
f 1 16 17
f 1 17 18
f 1 18 19
f 1 19 20
f 1 20 21
f 1 21 22
f 1 22 23
f 1 23 24
f 1 24 25
f 1 25 26
f 1 26 27
f 1 27 28
f 1 28 29
f 1 29 30
f 1 30 31
f 1 31 32
f 1 32 33
f 1 33 34
f 1 34 35
f 1 35 36
f 1 36 37
f 1 37 38
f 1 38 39
f 1 39 40
f 1 40 41
f 1 41 42
f 1 42 43
f 1 43 44
f 1 44 45
f 1 45 46
f 1 46 47
f 1 47 48
f 1 48 49
f 1 49 50
f 1 50 51
f 1 51 52
f 1 52 53
f 1 53 54
f 1 54 55
f 1 55 56
f 1 56 57
f 1 57 58
f 1 58 59
f 1 59 60
f 1 60 61
f 1 61 62
f 1 62 63
f 1 63 64
f 1 64 65
f 1 65 66
f 1 66 67
f 1 67 68
f 1 68 69
f 1 69 70
f 1 70 71
f 1 71 72
f 1 72 73
f 1 73 74
f 1 74 75
f 1 75 76
f 1 76 77
f 1 77 78
f 1 78 79
f 1 79 80
f 1 80 81
f 1 81 82
f 1 82 83
f 1 83 84
f 1 84 85
f 1 85 86
f 1 86 87
f 1 87 88
f 1 88 89
f 1 89 90
f 1 90 91
f 1 91 92
f 1 92 93
f 1 93 94
f 1 94 95
f 1 95 96
f 1 96 97
f 1 97 98
