v 0.629202 0.009706 0.229011
v 0.615702 0.010000 0.264218
v 0.615702 0.000000 0.264218
v 0.641491 0.010000 0.193363
v 0.640784 0.010000 0.195692
v 0.640069 0.010000 0.198018
v 0.639346 0.010000 0.200342
v 0.638614 0.010000 0.202662
v 0.637874 0.010000 0.204981
v 0.637125 0.010000 0.207296
v 0.636368 0.010000 0.209609
v 0.635602 0.010000 0.211919
v 0.634828 0.010000 0.214226
v 0.634046 0.010000 0.216531
v 0.633255 0.010000 0.218833
v 0.632456 0.010000 0.221131
v 0.631649 0.010000 0.223427
v 0.630833 0.010000 0.225720
v 0.630009 0.010000 0.228010
v 0.629177 0.010000 0.230297
v 0.628336 0.010000 0.232580
v 0.627487 0.010000 0.234861
v 0.626630 0.010000 0.237139
v 0.625765 0.010000 0.239413
v 0.624891 0.010000 0.241685
v 0.624009 0.010000 0.243953
v 0.623119 0.010000 0.246218
v 0.622220 0.010000 0.248479
v 0.621314 0.010000 0.250738
v 0.620399 0.010000 0.252993
v 0.619476 0.010000 0.255245
v 0.618544 0.010000 0.257493
v 0.617605 0.010000 0.259738
v 0.616658 0.010000 0.261980
v 0.615702 0.010000 0.264218
v 0.641491 0.000000 0.193363
v 0.641491 0.010000 0.193363
v 0.641491 0.010000 0.193363
v 0.640784 0.010000 0.195692
v 0.640069 0.010000 0.198018
v 0.639346 0.010000 0.200342
v 0.638614 0.010000 0.202662
v 0.637874 0.010000 0.204981
v 0.637125 0.010000 0.207296
v 0.636368 0.010000 0.209609
v 0.635602 0.010000 0.211919
v 0.634828 0.010000 0.214226
v 0.634046 0.010000 0.216531
v 0.633255 0.010000 0.218833
v 0.632456 0.010000 0.221131
v 0.631649 0.010000 0.223427
v 0.630833 0.010000 0.225720
v 0.630009 0.010000 0.228010
v 0.629177 0.010000 0.230297
v 0.628336 0.010000 0.232580
v 0.627487 0.010000 0.234861
v 0.626630 0.010000 0.237139
v 0.625765 0.010000 0.239413
v 0.624891 0.010000 0.241685
v 0.624009 0.010000 0.243953
v 0.623119 0.010000 0.246218
v 0.622220 0.010000 0.248479
v 0.621314 0.010000 0.250738
v 0.620399 0.010000 0.252993
v 0.619476 0.010000 0.255245
v 0.618544 0.010000 0.257493
v 0.617605 0.010000 0.259738
v 0.616658 0.010000 0.261980
v 0.615702 0.010000 0.264218
f 1 2 3
f 1 3 4
f 1 4 5
f 1 5 6
f 1 6 7
f 1 7 8
f 1 8 9
f 1 9 10
f 1 10 11
f 1 11 12
f 1 12 13
f 1 13 14
f 1 14 15
f 1 15 16
f 1 16 17
f 1 17 18
f 1 18 19
f 1 19 20
f 1 20 21
f 1 21 22
f 1 22 23
f 1 23 24
f 1 24 25
f 1 25 26
f 1 26 27
f 1 27 28
f 1 28 29
f 1 29 30
f 1 30 31
f 1 31 32
f 1 32 33
f 1 33 34
f 1 34 35
f 1 35 36
f 1 36 37
f 1 37 38
f 1 38 39
f 1 39 40
f 1 40 41
f 1 41 42
f 1 42 43
f 1 43 44
f 1 44 45
f 1 45 46
f 1 46 47
f 1 47 48
f 1 48 49
f 1 49 50
f 1 50 51
f 1 51 52
f 1 52 53
f 1 53 54
f 1 54 55
f 1 55 56
f 1 56 57
f 1 57 58
f 1 58 59
f 1 59 60
f 1 60 61
f 1 61 62
f 1 62 63
f 1 63 64
f 1 64 65
f 1 65 66
f 1 66 67
f 1 67 68
f 1 68 69
f 1 69 2
