v -0.512071 0.227071 0.025687
v -0.511650 0.227071 0.025687
v -0.510391 0.227071 0.025687
v -0.508307 0.227071 0.025687
v -0.505420 0.227071 0.025687
v -0.501759 0.227071 0.025687
v -0.497361 0.227071 0.025687
v -0.492272 0.227071 0.025687
v -0.486544 0.227071 0.025687
v -0.480236 0.227071 0.025687
v -0.473413 0.227071 0.025687
v -0.466144 0.227071 0.025687
v -0.458504 0.227071 0.025687
v -0.450571 0.227071 0.025687
v -0.442428 0.227071 0.025687
v -0.434157 0.227071 0.025687
v -0.425843 0.227071 0.025687
v -0.417572 0.227071 0.025687
v -0.409429 0.227071 0.025687
v -0.401496 0.227071 0.025687
v -0.393856 0.227071 0.025687
v -0.386587 0.227071 0.025687
v -0.379764 0.227071 0.025687
v -0.373456 0.227071 0.025687
v -0.367728 0.227071 0.025687
v -0.362639 0.227071 0.025687
v -0.358241 0.227071 0.025687
v -0.354580 0.227071 0.025687
v -0.351693 0.227071 0.025687
v -0.349609 0.227071 0.025687
v -0.348350 0.227071 0.025687
v -0.347929 0.227071 0.025687
v -0.347748 0.227248 0.025687
v -0.347562 0.227420 0.025687
v -0.347372 0.227588 0.025687
v -0.347177 0.227750 0.025687
v -0.346979 0.227908 0.025687
v -0.346777 0.228060 0.025687
v -0.346571 0.228208 0.025687
v -0.346361 0.228350 0.025687
v -0.346148 0.228486 0.025687
v -0.345931 0.228618 0.025687
v -0.345711 0.228743 0.025687
v -0.345488 0.228864 0.025687
v -0.345262 0.228978 0.025687
v -0.345033 0.229087 0.025687
v -0.344801 0.229190 0.025687
v -0.344567 0.229287 0.025687
v -0.344331 0.229378 0.025687
v -0.344092 0.229462 0.025687
v -0.343851 0.229541 0.025687
v -0.343609 0.229614 0.025687
v -0.343364 0.229681 0.025687
v -0.343118 0.229741 0.025687
v -0.342871 0.229795 0.025687
v -0.342622 0.229843 0.025687
v -0.342372 0.229885 0.025687
v -0.342121 0.229920 0.025687
v -0.341870 0.229949 0.025687
v -0.341617 0.229971 0.025687
v -0.341364 0.229987 0.025687
v -0.341111 0.229997 0.025687
v -0.340858 0.230000 0.025687
v -0.347929 0.227071 0.025687
v -0.348350 0.227071 0.025687
v -0.349609 0.227071 0.025687
v -0.351693 0.227071 0.025687
v -0.354580 0.227071 0.025687
v -0.358241 0.227071 0.025687
v -0.362639 0.227071 0.025687
v -0.367728 0.227071 0.025687
v -0.373456 0.227071 0.025687
v -0.379764 0.227071 0.025687
v -0.386587 0.227071 0.025687
v -0.393856 0.227071 0.025687
v -0.401496 0.227071 0.025687
v -0.409429 0.227071 0.025687
v -0.417572 0.227071 0.025687
v -0.425843 0.227071 0.025687
v -0.434157 0.227071 0.025687
v -0.442428 0.227071 0.025687
v -0.450571 0.227071 0.025687
v -0.458504 0.227071 0.025687
v -0.466144 0.227071 0.025687
v -0.473413 0.227071 0.025687
v -0.480236 0.227071 0.025687
v -0.486544 0.227071 0.025687
v -0.492272 0.227071 0.025687
v -0.497361 0.227071 0.025687
v -0.501759 0.227071 0.025687
v -0.505420 0.227071 0.025687
v -0.508307 0.227071 0.025687
v -0.510391 0.227071 0.025687
v -0.511650 0.227071 0.025687
v -0.512071 0.227071 0.025687
v -0.519142 0.230000 0.025687
v -0.518889 0.229997 0.025687
v -0.518636 0.229987 0.025687
v -0.518383 0.229971 0.025687
v -0.518130 0.229949 0.025687
v -0.517879 0.229920 0.025687
v -0.517628 0.229885 0.025687
v -0.517378 0.229843 0.025687
v -0.517129 0.229795 0.025687
v -0.516882 0.229741 0.025687
v -0.516636 0.229681 0.025687
v -0.516391 0.229614 0.025687
v -0.516149 0.229541 0.025687
v -0.515908 0.229462 0.025687
v -0.515669 0.229378 0.025687
v -0.515433 0.229287 0.025687
v -0.515199 0.229190 0.025687
v -0.514967 0.229087 0.025687
v -0.514738 0.228978 0.025687
v -0.514512 0.228864 0.025687
v -0.514289 0.228743 0.025687
v -0.514069 0.228618 0.025687
v -0.513852 0.228486 0.025687
v -0.513639 0.228350 0.025687
v -0.513429 0.228208 0.025687
v -0.513223 0.228060 0.025687
v -0.513021 0.227908 0.025687
v -0.512823 0.227750 0.025687
v -0.512628 0.227588 0.025687
v -0.512438 0.227420 0.025687
v -0.512252 0.227248 0.025687
f 125 1 126
f 32 34 33
f 34 36 35
f 36 38 37
f 38 40 39
f 40 42 41
f 42 44 43
f 44 46 45
f 46 48 47
f 48 50 49
f 50 52 51
f 52 54 53
f 54 56 55
f 56 58 57
f 58 60 59
f 60 62 61
f 96 98 97
f 98 100 99
f 100 102 101
f 102 104 103
f 104 106 105
f 106 108 107
f 108 110 109
f 110 112 111
f 112 114 113
f 114 116 115
f 116 118 117
f 118 120 119
f 120 122 121
f 122 124 123
f 124 1 125
f 32 36 34
f 36 40 38
f 40 44 42
f 44 48 46
f 48 52 50
f 52 56 54
f 56 60 58
f 60 63 62
f 96 100 98
f 100 104 102
f 104 108 106
f 108 112 110
f 112 116 114
f 116 120 118
f 120 124 122
f 32 40 36
f 40 48 44
f 48 56 52
f 56 63 60
f 96 104 100
f 104 112 108
f 112 120 116
f 120 1 124
f 32 48 40
f 48 63 56
f 96 112 104
f 112 1 120
f 32 63 48
f 96 1 112
