v -0.970000 -0.524053 -6.063000
v -0.975065 -0.524053 -6.063128
v -0.980117 -0.524053 -6.063513
v -1.069872 -0.524053 -6.157935
v -1.070000 -0.524053 -6.163000
v -1.069872 -0.519065 -6.162120
v -0.975065 -0.425699 -6.145657
v -0.970000 -0.425572 -6.145635
v -0.970000 -0.426454 -6.141219
v -0.970000 -0.515057 -6.063405
v -0.970000 -0.519550 -6.063101
v -0.971685 -0.504617 -6.064921
v -0.973305 -0.485928 -6.070612
v -0.975241 -0.505261 -6.064921
v -0.978618 -0.506551 -6.064921
v -0.988181 -0.516979 -6.064921
v -0.989174 -0.520454 -6.064921
v -1.007612 -0.516993 -6.070612
v -1.024603 -0.513804 -6.079853
v -1.005664 -0.510176 -6.070612
v -1.017170 -0.494701 -6.079853
v -1.021776 -0.503907 -6.079853
v -1.039497 -0.511008 -6.092289
v -1.035898 -0.498412 -6.092289
v -1.051720 -0.508714 -6.107443
v -1.060802 -0.507009 -6.124732
v -1.066395 -0.505960 -6.143491
v -1.061403 -0.488487 -6.143491
v -1.056100 -0.490551 -6.124732
v -1.053273 -0.472236 -6.143491
v -1.042285 -0.457763 -6.143491
v -1.030036 -0.486695 -6.092289
v -1.040595 -0.480125 -6.107443
v -1.022114 -0.476261 -6.092289
v -1.031280 -0.467855 -6.107443
v -1.038091 -0.461609 -6.124732
v -1.028815 -0.445566 -6.143491
v -1.025402 -0.450120 -6.124732
v -1.013326 -0.436063 -6.143491
v -0.996351 -0.429581 -6.143491
v -0.978470 -0.426341 -6.143491
v -0.977979 -0.432010 -6.124732
v -0.977181 -0.441217 -6.107443
v -0.994822 -0.435062 -6.124732
v -1.012403 -0.467467 -6.092289
v -1.006730 -0.449459 -6.107443
v -0.992339 -0.443963 -6.107443
v -0.994542 -0.474211 -6.079853
v -0.988998 -0.455942 -6.092289
v -0.976107 -0.453607 -6.092289
v -0.984926 -0.470539 -6.079853
v -0.974798 -0.468704 -6.079853
v -0.980281 -0.487192 -6.070612
v -0.985143 -0.524053 -6.064153
v -0.990130 -0.524053 -6.065047
v -1.068847 -0.524053 -6.147857
v -1.069487 -0.524053 -6.152883
v -0.980117 -0.426078 -6.145724
v -0.970000 -0.510582 -6.063912
v -0.981699 -0.508441 -6.064921
v -0.986564 -0.513746 -6.064921
v -1.010946 -0.486503 -6.079853
v -1.048441 -0.475242 -6.124732
v -1.047488 -0.493902 -6.107443
v -1.001237 -0.460616 -6.092289
v -1.065414 -0.524053 -6.133064
v -1.066808 -0.524053 -6.137935
v -1.067953 -0.524053 -6.142870
v -0.985143 -0.426708 -6.145835
v -0.970000 -0.506134 -6.064619
v -0.984378 -0.510867 -6.064921
v -1.003316 -0.479594 -6.079853
v -1.010813 -0.441168 -6.124732
v -1.069487 -0.514090 -6.161243
v -0.990130 -0.427588 -6.145991
v -0.970000 -0.501723 -6.065525
v -1.068847 -0.509140 -6.160370
v -0.995065 -0.428716 -6.146190
v -0.970000 -0.497356 -6.066629
v -1.002492 -0.503835 -6.070612
v -1.019861 -0.457515 -6.107443
v -0.995065 -0.524053 -6.066192
v -0.999936 -0.524053 -6.067586
v -1.004731 -0.524053 -6.069225
v -1.009436 -0.524053 -6.071104
v -1.014039 -0.524053 -6.073220
v -1.018530 -0.524053 -6.075565
v -1.022896 -0.524053 -6.078136
v -1.027127 -0.524053 -6.080924
v -1.031211 -0.524053 -6.083922
v -1.035137 -0.524053 -6.087124
v -1.038897 -0.524053 -6.090521
v -1.042479 -0.524053 -6.094103
v -1.045876 -0.524053 -6.097863
v -1.049078 -0.524053 -6.101789
v -1.052076 -0.524053 -6.105873
v -1.054864 -0.524053 -6.110104
v -1.057435 -0.524053 -6.114470
v -1.059780 -0.524053 -6.118961
v -1.061896 -0.524053 -6.123564
v -1.063775 -0.524053 -6.128269
v -0.999936 -0.430089 -6.146432
v -0.970000 -0.493044 -6.067929
v -0.998204 -0.498188 -6.070612
v -1.067953 -0.504229 -6.159504
v -1.004731 -0.431702 -6.146716
v -0.970000 -0.488795 -6.069422
v -0.992948 -0.493429 -6.070612
v -1.066808 -0.499369 -6.158647
v -1.009436 -0.433553 -6.147042
v -0.970000 -0.484617 -6.071104
v -0.986905 -0.489721 -6.070612
v -1.065414 -0.494571 -6.157802
v -1.014039 -0.435637 -6.147410
v -0.970000 -0.480520 -6.072973
v -1.063775 -0.489850 -6.156969
v -1.018530 -0.437947 -6.147817
v -0.970000 -0.476510 -6.075024
v -1.061896 -0.485217 -6.156152
v -1.022896 -0.440478 -6.148263
v -0.970000 -0.472597 -6.077254
v -1.027127 -0.443224 -6.148748
v -0.970000 -0.468789 -6.079658
v -1.031211 -0.446177 -6.149268
v -0.970000 -0.458066 -6.087862
v -0.970000 -0.461516 -6.084968
v -0.970000 -0.465092 -6.082231
v -1.059780 -0.480683 -6.155353
v -1.035137 -0.449330 -6.149824
v -0.970000 -0.448545 -6.097437
v -0.970000 -0.451574 -6.094103
v -0.970000 -0.454749 -6.090910
v -1.057435 -0.476260 -6.154573
v -1.038897 -0.452675 -6.150414
v -0.970000 -0.442953 -6.104495
v -0.970000 -0.445670 -6.100903
v -1.054864 -0.471960 -6.153815
v -0.970000 -0.427534 -6.136846
v -0.970000 -0.428809 -6.132527
v -0.970000 -0.440401 -6.108206
v -1.052076 -0.467794 -6.153080
v -1.042479 -0.456203 -6.151036
v -0.970000 -0.435811 -6.115953
v -0.970000 -0.438019 -6.112028
v -1.049078 -0.463772 -6.152371
v -1.045876 -0.459905 -6.151689
v -0.970000 -0.433782 -6.119974
v -0.970000 -0.430278 -6.128269
v -0.970000 -0.431937 -6.124082
v -1.023863 -0.490537 -6.085699
v -0.999054 -0.476699 -6.079853
f 1 3 2
f 4 6 5
f 7 9 8
f 10 12 11
f 13 15 14
f 16 18 17
f 18 20 19
f 21 23 22
f 24 26 25
f 26 28 27
f 29 31 30
f 32 34 33
f 35 37 36
f 38 40 39
f 40 42 41
f 42 44 43
f 45 47 46
f 48 50 49
f 51 53 52
f 3 1 54
f 54 1 55
f 56 6 57
f 57 6 4
f 58 9 7
f 59 12 10
f 13 60 15
f 61 18 16
f 62 23 21
f 26 29 28
f 31 29 63
f 63 29 64
f 34 37 35
f 40 44 42
f 45 65 47
f 48 51 50
f 66 6 67
f 67 6 68
f 68 6 56
f 69 9 58
f 70 12 59
f 13 71 60
f 71 18 61
f 72 62 150
f 150 62 23
f 26 64 29
f 34 38 37
f 40 73 44
f 45 48 65
f 48 53 51
f 66 74 6
f 75 9 69
f 76 12 70
f 71 20 18
f 23 24 150
f 150 24 72
f 24 64 26
f 38 73 40
f 66 77 74
f 78 9 75
f 79 12 76
f 71 80 20
f 24 32 64
f 38 81 73
f 53 55 1
f 55 77 82
f 82 77 83
f 83 77 84
f 84 77 85
f 85 77 86
f 86 77 87
f 87 77 88
f 88 77 89
f 89 77 90
f 90 77 91
f 91 77 92
f 92 77 93
f 93 77 94
f 94 77 95
f 95 77 96
f 96 77 97
f 97 77 98
f 98 77 99
f 99 77 100
f 100 77 101
f 101 77 66
f 102 9 78
f 103 12 79
f 71 104 80
f 72 32 24
f 34 81 38
f 55 105 77
f 106 9 102
f 107 12 103
f 71 108 104
f 72 34 32
f 34 45 81
f 55 109 105
f 110 9 106
f 111 12 107
f 71 112 108
f 45 34 48
f 34 48 151
f 151 48 53
f 55 113 109
f 114 9 110
f 115 12 111
f 13 112 71
f 112 53 72
f 53 72 151
f 151 72 34
f 55 116 113
f 117 9 114
f 118 12 115
f 112 55 53
f 55 119 116
f 120 9 117
f 121 12 118
f 112 119 55
f 122 9 120
f 123 12 121
f 13 119 112
f 124 9 122
f 125 12 126
f 126 12 127
f 127 12 123
f 13 128 119
f 129 9 124
f 130 12 131
f 131 12 132
f 132 12 125
f 13 133 128
f 134 9 129
f 135 12 136
f 136 12 130
f 13 137 133
f 9 134 138
f 138 134 139
f 140 12 135
f 13 141 137
f 142 139 134
f 143 12 144
f 144 12 140
f 13 145 141
f 146 139 142
f 147 12 143
f 13 146 145
f 139 146 148
f 148 146 149
f 149 146 147
f 147 13 12
f 13 147 146
