v -1.240702 0.250000 -2.900000
v -1.241930 0.245541 -2.900000
v -1.243135 0.241079 -2.900000
v -1.244318 0.236614 -2.900000
v -1.245477 0.232145 -2.900000
v -1.246615 0.227672 -2.900000
v -1.247730 0.223195 -2.900000
v -1.248822 0.218714 -2.900000
v -1.249892 0.214229 -2.900000
v -1.250940 0.209739 -2.900000
v -1.251965 0.205246 -2.900000
v -1.252968 0.200748 -2.900000
v -1.253949 0.196245 -2.900000
v -1.254907 0.191738 -2.900000
v -1.255843 0.187226 -2.900000
v -1.256757 0.182709 -2.900000
v -1.257649 0.178187 -2.900000
v -1.258518 0.173660 -2.900000
v -1.259365 0.169128 -2.900000
v -1.260190 0.164590 -2.900000
v -1.260993 0.160047 -2.900000
v -1.261774 0.155500 -2.900000
v -1.262532 0.150948 -2.900000
v -1.263268 0.146392 -2.900000
v -1.263982 0.141832 -2.900000
v -1.264673 0.137269 -2.900000
v -1.265343 0.132702 -2.900000
v -1.265989 0.128133 -2.900000
v -1.266613 0.123562 -2.900000
v -1.267215 0.118988 -2.900000
v -1.267794 0.114413 -2.900000
v -1.268350 0.109836 -2.900000
v -1.268884 0.105258 -2.900000
v -1.269395 0.100680 -2.900000
v -1.269883 0.096101 -2.900000
v -1.270349 0.091522 -2.900000
v -1.270791 0.086944 -2.900000
v -1.271211 0.082366 -2.900000
v -1.271608 0.077789 -2.900000
v -1.271982 0.073213 -2.900000
v -1.272334 0.068637 -2.900000
v -1.272662 0.064062 -2.900000
v -1.272968 0.059487 -2.900000
v -1.273251 0.054913 -2.900000
v -1.273511 0.050338 -2.900000
v -1.273749 0.045764 -2.900000
v -1.273964 0.041190 -2.900000
v -1.274156 0.036615 -2.900000
v -1.274325 0.032041 -2.900000
v -1.274472 0.027466 -2.900000
v -1.274596 0.022890 -2.900000
v -1.274698 0.018314 -2.900000
v -1.274776 0.013737 -2.900000
v -1.274833 0.009159 -2.900000
v -1.274867 0.004580 -2.900000
v -1.274878 0.000000 -2.900000
v -2.540000 0.000000 -2.900000
v -2.540000 0.250000 -2.900000
f 58 1 2
f 58 2 3
f 58 3 4
f 58 4 5
f 58 5 6
f 58 6 7
f 58 7 8
f 58 8 9
f 58 9 10
f 58 10 11
f 58 11 12
f 58 12 13
f 58 13 14
f 58 14 15
f 58 15 16
f 58 16 17
f 58 17 18
f 58 18 19
f 58 19 20
f 58 20 21
f 58 21 22
f 58 22 23
f 58 23 24
f 58 24 25
f 58 25 26
f 58 26 27
f 58 27 28
f 58 28 29
f 58 29 30
f 58 30 31
f 58 31 32
f 58 32 33
f 58 33 34
f 58 34 35
f 58 35 36
f 58 36 37
f 58 37 38
f 58 38 39
f 58 39 40
f 58 40 41
f 58 41 42
f 58 42 43
f 58 43 44
f 58 44 45
f 58 45 46
f 58 46 47
f 58 47 48
f 58 48 49
f 58 49 50
f 58 50 51
f 58 51 52
f 58 52 53
f 58 53 54
f 58 54 55
f 58 55 56
f 56 57 58
