v 0.025000 1.325000 0.150000
v 0.029652 1.301837 0.150024
v 0.025000 1.301943 0.150000
v 0.034365 1.301737 0.150098
v 0.039139 1.301643 0.150223
v 0.043971 1.301555 0.150401
v 0.047792 1.325000 0.150578
v 0.048860 1.301473 0.150635
v 0.053806 1.301398 0.150925
v 0.058805 1.301330 0.151273
v 0.063857 1.301269 0.151682
v 0.068961 1.301216 0.152153
v 0.070526 1.325000 0.152309
v 0.074116 1.301170 0.152687
v 0.079321 1.301132 0.153288
v 0.084578 1.301102 0.153958
v 0.089888 1.301081 0.154699
v 0.093142 1.325000 0.155189
v 0.095252 1.301068 0.155514
v 0.100672 1.301064 0.156405
v 0.106149 1.301069 0.157375
v 0.111683 1.301084 0.158427
v 0.115584 1.325000 0.159212
v 0.117276 1.301108 0.159562
v 0.122929 1.301141 0.160785
v 0.128642 1.301184 0.162097
v 0.134415 1.301238 0.163502
v 0.137794 1.325000 0.164365
v 0.140247 1.301301 0.165004
v 0.146138 1.301376 0.166607
v 0.152088 1.301460 0.168314
v 0.158095 1.301556 0.170129
v 0.159713 1.325000 0.170637
v 0.164161 1.301662 0.172055
v 0.170284 1.301780 0.174097
v 0.176463 1.301909 0.176257
v 0.181287 1.325000 0.178012
v 0.182698 1.302049 0.178539
v 0.188985 1.302201 0.180947
v 0.195322 1.302363 0.183483
v 0.201706 1.302537 0.186152
v 0.202460 1.325000 0.186469
v 0.208133 1.302722 0.188956
v 0.214601 1.302917 0.191899
v 0.221107 1.303123 0.194984
v 0.223177 1.325000 0.195988
v 0.227649 1.303339 0.198215
v 0.234222 1.303566 0.201594
v 0.240826 1.303803 0.205127
v 0.243386 1.325000 0.206544
v 0.247458 1.304049 0.208819
v 0.254118 1.304304 0.212677
v 0.260803 1.304569 0.216708
v 0.263034 1.325000 0.218110
v 0.267513 1.304841 0.220919
v 0.274246 1.305121 0.225314
v 0.281001 1.305409 0.229902
v 0.282071 1.325000 0.230656
v 0.287776 1.305703 0.234688
v 0.294571 1.306004 0.239679
v 0.300448 1.325000 0.244151
v 0.301381 1.306310 0.244881
v 0.308198 1.306620 0.250296
v 0.315012 1.306934 0.255928
v 0.318118 1.325000 0.258559
v 0.321815 1.307248 0.261779
v 0.328597 1.307562 0.267851
v 0.335035 1.325000 0.273843
v 0.335348 1.307874 0.274148
v 0.342060 1.308182 0.280672
v 0.348723 1.308486 0.287425
v 0.351157 1.325000 0.289965
v 0.355327 1.308783 0.294412
v 0.360606 1.309015 0.300220
v 0.365736 1.309236 0.306066
v 0.366441 1.325000 0.306882
v 0.370718 1.309445 0.311945
v 0.375553 1.309642 0.317853
v 0.380244 1.309827 0.323785
v 0.380849 1.325000 0.324552
v 0.384791 1.309999 0.329738
v 0.389197 1.310159 0.335708
v 0.393462 1.310306 0.341689
v 0.394344 1.325000 0.342929
v 0.397589 1.310440 0.347678
v 0.401579 1.310561 0.353671
v 0.405433 1.310669 0.359663
v 0.406890 1.325000 0.361966
v 0.409154 1.310763 0.365651
v 0.412742 1.310843 0.371629
v 0.416199 1.310909 0.377595
v 0.418456 1.325000 0.381614
v 0.419528 1.310962 0.383544
v 0.422730 1.311000 0.389475
v 0.425809 1.311025 0.395388
v 0.428767 1.311037 0.401282
v 0.429012 1.325000 0.401823
v 0.431608 1.311036 0.407156
v 0.434333 1.311021 0.413010
v 0.436947 1.310994 0.418841
v 0.438531 1.325000 0.422540
v 0.439451 1.310955 0.424650
v 0.441848 1.310903 0.430436
v 0.444141 1.310840 0.436198
v 0.446334 1.310764 0.441934
v 0.446988 1.325000 0.443713
v 0.448428 1.310677 0.447644
v 0.450427 1.310579 0.453328
v 0.452333 1.310469 0.458984
v 0.454149 1.310349 0.464612
v 0.454363 1.325000 0.465287
v 0.455876 1.310218 0.470211
v 0.457516 1.310076 0.475782
v 0.459071 1.309923 0.481324
v 0.460542 1.309760 0.486837
v 0.460635 1.325000 0.487206
v 0.461931 1.309588 0.492321
v 0.463240 1.309405 0.497776
v 0.464471 1.309212 0.503200
v 0.465624 1.309010 0.508595
v 0.465788 1.325000 0.509416
v 0.466702 1.308798 0.513960
v 0.467707 1.308576 0.519295
v 0.468640 1.308346 0.524599
v 0.469502 1.308106 0.529873
v 0.469811 1.325000 0.531858
v 0.470297 1.307858 0.535115
v 0.471024 1.307601 0.540326
v 0.471686 1.307335 0.545504
v 0.472283 1.307061 0.550649
v 0.472691 1.325000 0.554474
v 0.472817 1.306780 0.555758
v 0.473289 1.306490 0.560832
v 0.473701 1.306194 0.565868
v 0.474053 1.305889 0.570867
v 0.474348 1.305578 0.575826
v 0.474422 1.325000 0.577208
v 0.474586 1.305261 0.580745
v 0.474769 1.304936 0.585623
v 0.474898 1.304606 0.590459
v 0.474975 1.304269 0.595252
v 0.475000 1.303926 0.600000
v 0.475000 1.325000 0.600000
f 1 3 2
f 1 2 4
f 1 4 5
f 1 5 6
f 1 6 7
f 7 6 8
f 7 8 9
f 7 9 10
f 7 10 11
f 7 11 12
f 7 12 13
f 13 12 14
f 13 14 15
f 13 15 16
f 13 16 17
f 13 17 18
f 18 17 19
f 18 19 20
f 18 20 21
f 18 21 22
f 18 22 23
f 23 22 24
f 23 24 25
f 23 25 26
f 23 26 27
f 23 27 28
f 28 27 29
f 28 29 30
f 28 30 31
f 28 31 32
f 28 32 33
f 33 32 34
f 33 34 35
f 33 35 36
f 33 36 37
f 37 36 38
f 37 38 39
f 37 39 40
f 37 40 41
f 37 41 42
f 42 41 43
f 42 43 44
f 42 44 45
f 42 45 46
f 46 45 47
f 46 47 48
f 46 48 49
f 46 49 50
f 50 49 51
f 50 51 52
f 50 52 53
f 50 53 54
f 54 53 55
f 54 55 56
f 54 56 57
f 54 57 58
f 58 57 59
f 58 59 60
f 58 60 61
f 61 60 62
f 61 62 63
f 61 63 64
f 61 64 65
f 65 64 66
f 65 66 67
f 65 67 68
f 68 67 69
f 68 69 70
f 68 70 71
f 68 71 72
f 72 71 73
f 72 73 74
f 72 74 75
f 72 75 76
f 76 75 77
f 76 77 78
f 76 78 79
f 76 79 80
f 80 79 81
f 80 81 82
f 80 82 83
f 80 83 84
f 84 83 85
f 84 85 86
f 84 86 87
f 84 87 88
f 88 87 89
f 88 89 90
f 88 90 91
f 88 91 92
f 92 91 93
f 92 93 94
f 92 94 95
f 92 95 96
f 92 96 97
f 97 96 98
f 97 98 99
f 97 99 100
f 97 100 101
f 101 100 102
f 101 102 103
f 101 103 104
f 101 104 105
f 101 105 106
f 106 105 107
f 106 107 108
f 106 108 109
f 106 109 110
f 106 110 111
f 111 110 112
f 111 112 113
f 111 113 114
f 111 114 115
f 111 115 116
f 116 115 117
f 116 117 118
f 116 118 119
f 116 119 120
f 116 120 121
f 121 120 122
f 121 122 123
f 121 123 124
f 121 124 125
f 121 125 126
f 126 125 127
f 126 127 128
f 126 128 129
f 126 129 130
f 126 130 131
f 131 130 132
f 131 132 133
f 131 133 134
f 131 134 135
f 131 135 136
f 131 136 137
f 137 136 138
f 137 138 139
f 137 139 140
f 137 140 141
f 137 141 142
f 137 142 143
