v 0.025000 -1.301943 0.100000
v 0.024545 -1.301952 0.100000
v 0.024091 -1.301960 0.100000
v 0.023636 -1.301968 0.100000
v 0.023182 -1.301977 0.100000
v 0.022727 -1.301985 0.100000
v 0.022273 -1.301993 0.100000
v 0.021818 -1.302000 0.100000
v 0.021364 -1.302008 0.100000
v 0.020909 -1.302015 0.100000
v 0.020455 -1.302022 0.100000
v 0.020000 -1.302029 0.100000
v 0.019546 -1.302036 0.100000
v 0.019091 -1.302043 0.100000
v 0.018637 -1.302050 0.100000
v 0.018182 -1.302056 0.100000
v 0.017728 -1.302062 0.100000
v 0.017273 -1.302068 0.100000
v 0.016819 -1.302074 0.100000
v 0.016364 -1.302080 0.100000
v 0.015910 -1.302086 0.100000
v 0.015455 -1.302091 0.100000
v 0.015001 -1.302097 0.100000
v 0.014546 -1.302102 0.100000
v 0.014091 -1.302107 0.100000
v 0.013637 -1.302112 0.100000
v 0.013182 -1.302116 0.100000
v 0.012728 -1.302121 0.100000
v 0.012273 -1.302125 0.100000
v 0.011819 -1.302129 0.100000
v 0.011364 -1.302134 0.100000
v 0.010910 -1.302137 0.100000
v 0.010455 -1.302141 0.100000
v 0.010001 -1.302145 0.100000
v 0.009546 -1.302148 0.100000
v 0.009091 -1.302151 0.100000
v 0.008637 -1.302154 0.100000
v 0.008182 -1.302157 0.100000
v 0.007728 -1.302160 0.100000
v 0.007273 -1.302163 0.100000
v 0.006819 -1.302165 0.100000
v 0.006364 -1.302167 0.100000
v 0.005909 -1.302169 0.100000
v 0.005455 -1.302171 0.100000
v 0.005000 -1.302173 0.100000
v 0.004546 -1.302175 0.100000
v 0.004091 -1.302176 0.100000
v 0.003637 -1.302178 0.100000
v 0.003182 -1.302179 0.100000
v 0.002727 -1.302180 0.100000
v 0.002273 -1.302181 0.100000
v 0.001818 -1.302181 0.100000
v 0.001364 -1.302182 0.100000
v 0.000909 -1.302182 0.100000
v 0.000455 -1.302182 0.100000
v -0.000000 -1.302183 0.100000
v -0.006818 -1.302183 0.100000
v -0.013636 -1.302183 0.100000
v -0.020455 -1.302183 0.100000
v -0.027273 -1.302183 0.100000
v -0.034091 -1.302183 0.100000
v -0.040909 -1.302183 0.100000
v -0.047727 -1.302183 0.100000
v -0.054545 -1.302183 0.100000
v -0.061364 -1.302183 0.100000
v -0.068182 -1.302183 0.100000
v -0.075000 -1.302183 0.100000
v -0.081818 -1.302182 0.100000
v -0.088636 -1.302182 0.100000
v -0.095455 -1.302182 0.100000
v -0.102273 -1.302182 0.100000
v -0.109091 -1.302182 0.100000
v -0.115909 -1.302182 0.100000
v -0.122727 -1.302182 0.100000
v -0.129545 -1.302182 0.100000
v -0.136364 -1.302182 0.100000
v -0.143182 -1.302182 0.100000
v -0.150000 -1.302182 0.100000
v -0.156818 -1.302182 0.100000
v -0.163636 -1.302182 0.100000
v -0.170455 -1.302182 0.100000
v -0.177273 -1.302182 0.100000
v -0.184091 -1.302182 0.100000
v -0.190909 -1.302182 0.100000
v -0.197727 -1.302182 0.100000
v -0.204545 -1.302182 0.100000
v -0.211364 -1.302182 0.100000
v -0.218182 -1.302182 0.100000
v -0.225000 -1.302182 0.100000
v -0.231818 -1.302182 0.100000
v -0.238636 -1.302182 0.100000
v -0.245455 -1.302182 0.100000
v -0.252273 -1.302182 0.100000
v -0.259091 -1.302182 0.100000
v -0.265909 -1.302182 0.100000
v -0.272727 -1.302182 0.100000
v -0.279545 -1.302182 0.100000
v -0.286364 -1.302182 0.100000
v -0.293182 -1.302182 0.100000
v -0.300000 -1.302182 0.100000
v -0.306818 -1.302182 0.100000
v -0.313636 -1.302182 0.100000
v -0.320455 -1.302182 0.100000
v -0.327273 -1.302182 0.100000
v -0.334091 -1.302182 0.100000
v -0.340909 -1.302182 0.100000
v -0.347727 -1.302182 0.100000
v -0.354545 -1.302182 0.100000
v -0.361364 -1.302182 0.100000
v -0.368182 -1.302182 0.100000
v -0.375000 -1.302182 0.100000
v -0.375000 -1.325000 0.100000
v 0.025000 -1.325000 0.100000
f 112 110 111
f 112 109 110
f 112 108 109
f 112 107 108
f 112 106 107
f 112 105 106
f 112 104 105
f 112 103 104
f 112 102 103
f 112 101 102
f 112 100 101
f 112 99 100
f 112 98 99
f 112 97 98
f 112 96 97
f 112 95 96
f 112 94 95
f 112 93 94
f 112 92 93
f 112 91 92
f 112 90 91
f 112 89 90
f 112 88 89
f 112 87 88
f 112 86 87
f 112 85 86
f 112 84 85
f 112 83 84
f 112 82 83
f 112 81 82
f 112 80 81
f 112 79 80
f 112 78 79
f 112 77 78
f 112 76 77
f 112 75 76
f 112 74 75
f 112 73 74
f 112 72 73
f 112 71 72
f 112 70 71
f 112 69 70
f 112 68 69
f 112 67 68
f 112 66 67
f 112 65 66
f 112 64 65
f 112 63 64
f 112 62 63
f 112 61 62
f 112 60 61
f 112 59 60
f 112 58 59
f 112 57 58
f 112 56 57
f 112 55 56
f 112 54 55
f 112 53 54
f 112 52 53
f 112 51 52
f 112 50 51
f 112 49 50
f 112 48 49
f 112 47 48
f 112 46 47
f 112 45 46
f 112 44 45
f 112 43 44
f 112 42 43
f 112 41 42
f 112 40 41
f 112 39 40
f 112 38 39
f 112 37 38
f 112 36 37
f 112 35 36
f 112 34 35
f 112 33 34
f 112 32 33
f 112 31 32
f 112 30 31
f 112 29 30
f 112 28 29
f 112 27 28
f 112 26 27
f 112 25 26
f 112 24 25
f 112 23 24
f 112 22 23
f 112 21 22
f 112 20 21
f 112 19 20
f 112 18 19
f 112 17 18
f 112 16 17
f 112 15 16
f 112 14 15
f 112 13 14
f 112 12 13
f 112 11 12
f 112 10 11
f 112 9 10
f 112 8 9
f 112 7 8
f 112 6 7
f 112 5 6
f 112 4 5
f 112 3 4
f 112 2 3
f 112 113 2
f 113 1 2
