v 0.570966 0.000000 -0.463006
v 0.555119 0.000000 -0.481892
v 0.554841 0.000000 -0.482209
v 0.554550 0.000000 -0.482515
v 0.554246 0.000000 -0.482808
v 0.553930 0.000000 -0.483088
v 0.553602 0.000000 -0.483354
v 0.553263 0.000000 -0.483607
v 0.552915 0.000000 -0.483844
v 0.552556 0.000000 -0.484067
v 0.552188 0.000000 -0.484275
v 0.551812 0.000000 -0.484467
v 0.551428 0.000000 -0.484642
v 0.551037 0.000000 -0.484802
v 0.550640 0.000000 -0.484944
v 0.550237 0.000000 -0.485070
v 0.549829 0.000000 -0.485179
v 0.549417 0.000000 -0.485270
v 0.549001 0.000000 -0.485344
v 0.548582 0.000000 -0.485401
v 0.548162 0.000000 -0.485439
v 0.547740 0.000000 -0.485460
v 0.547318 0.000000 -0.485463
v 0.546896 0.000000 -0.485448
v 0.546475 0.000000 -0.485415
v 0.546056 0.000000 -0.485365
v 0.545639 0.000000 -0.485297
v 0.545226 0.000000 -0.485211
v 0.544816 0.000000 -0.485108
v 0.544411 0.000000 -0.484988
v 0.544012 0.000000 -0.484851
v 0.543619 0.000000 -0.484697
v 0.543233 0.000000 -0.484527
v 0.488203 0.000000 -0.458866
v 0.536670 0.010000 -0.401105
v 0.535210 0.010000 -0.403051
v 0.533742 0.010000 -0.404993
v 0.532268 0.010000 -0.406929
v 0.530786 0.010000 -0.408859
v 0.529298 0.010000 -0.410785
v 0.527802 0.010000 -0.412704
v 0.526300 0.010000 -0.414619
v 0.524790 0.010000 -0.416528
v 0.523274 0.010000 -0.418431
v 0.521750 0.010000 -0.420329
v 0.520220 0.010000 -0.422221
v 0.518683 0.010000 -0.424108
v 0.517139 0.010000 -0.425989
v 0.515589 0.010000 -0.427865
v 0.514031 0.010000 -0.429735
v 0.512467 0.010000 -0.431599
v 0.510896 0.010000 -0.433458
v 0.509318 0.010000 -0.435311
v 0.507733 0.010000 -0.437158
v 0.506142 0.010000 -0.438999
v 0.504544 0.010000 -0.440835
v 0.502940 0.010000 -0.442664
v 0.501329 0.010000 -0.444488
v 0.499711 0.010000 -0.446306
v 0.498086 0.010000 -0.448118
v 0.496455 0.010000 -0.449924
v 0.494818 0.010000 -0.451725
v 0.493174 0.010000 -0.453519
v 0.491523 0.010000 -0.455307
v 0.489866 0.010000 -0.457090
v 0.488203 0.010000 -0.458866
v 0.536670 0.000000 -0.401105
v 0.571497 0.000000 -0.450842
v 0.571732 0.000000 -0.451193
v 0.571952 0.000000 -0.451554
v 0.572156 0.000000 -0.451923
v 0.572345 0.000000 -0.452301
v 0.572517 0.000000 -0.452686
v 0.572673 0.000000 -0.453079
v 0.572813 0.000000 -0.453477
v 0.572935 0.000000 -0.453881
v 0.573040 0.000000 -0.454290
v 0.573128 0.000000 -0.454703
v 0.573199 0.000000 -0.455120
v 0.573251 0.000000 -0.455539
v 0.573287 0.000000 -0.455959
v 0.573304 0.000000 -0.456381
v 0.573303 0.000000 -0.456803
v 0.573285 0.000000 -0.457225
v 0.573249 0.000000 -0.457646
v 0.573195 0.000000 -0.458065
v 0.573123 0.000000 -0.458481
v 0.573034 0.000000 -0.458893
v 0.572928 0.000000 -0.459302
v 0.572804 0.000000 -0.459706
v 0.572664 0.000000 -0.460104
v 0.572506 0.000000 -0.460496
v 0.572333 0.000000 -0.460881
v 0.572143 0.000000 -0.461258
v 0.571938 0.000000 -0.461627
v 0.571717 0.000000 -0.461987
v 0.571481 0.000000 -0.462337
v 0.571231 0.000000 -0.462677
f 1 2 3
f 1 3 4
f 1 4 5
f 1 5 6
f 1 6 7
f 1 7 8
f 1 8 9
f 1 9 10
f 1 10 11
f 1 11 12
f 1 12 13
f 1 13 14
f 1 14 15
f 1 15 16
f 1 16 17
f 1 17 18
f 1 18 19
f 1 19 20
f 1 20 21
f 1 21 22
f 1 22 23
f 1 23 24
f 1 24 25
f 1 25 26
f 1 26 27
f 1 27 28
f 1 28 29
f 1 29 30
f 1 30 31
f 1 31 32
f 1 32 33
f 1 33 34
f 1 34 35
f 1 35 36
f 1 36 37
f 1 37 38
f 1 38 39
f 1 39 40
f 1 40 41
f 1 41 42
f 1 42 43
f 1 43 44
f 1 44 45
f 1 45 46
f 1 46 47
f 1 47 48
f 1 48 49
f 1 49 50
f 1 50 51
f 1 51 52
f 1 52 53
f 1 53 54
f 1 54 55
f 1 55 56
f 1 56 57
f 1 57 58
f 1 58 59
f 1 59 60
f 1 60 61
f 1 61 62
f 1 62 63
f 1 63 64
f 1 64 65
f 1 65 66
f 1 66 67
f 1 67 68
f 1 68 69
f 1 69 70
f 1 70 71
f 1 71 72
f 1 72 73
f 1 73 74
f 1 74 75
f 1 75 76
f 1 76 77
f 1 77 78
f 1 78 79
f 1 79 80
f 1 80 81
f 1 81 82
f 1 82 83
f 1 83 84
f 1 84 85
f 1 85 86
f 1 86 87
f 1 87 88
f 1 88 89
f 1 89 90
f 1 90 91
f 1 91 92
f 1 92 93
f 1 93 94
f 1 94 95
f 1 95 96
f 1 96 97
f 1 97 98
