v 0.116272 0.009706 0.659411
v 0.079032 0.010000 0.665322
v 0.079032 0.000000 0.665322
v 0.153288 0.010000 0.652229
v 0.150918 0.010000 0.652781
v 0.148546 0.010000 0.653325
v 0.146172 0.010000 0.653861
v 0.143796 0.010000 0.654387
v 0.141418 0.010000 0.654905
v 0.139039 0.010000 0.655415
v 0.136657 0.010000 0.655915
v 0.134274 0.010000 0.656407
v 0.131889 0.010000 0.656891
v 0.129502 0.010000 0.657365
v 0.127113 0.010000 0.657831
v 0.124723 0.010000 0.658289
v 0.122331 0.010000 0.658738
v 0.119938 0.010000 0.659178
v 0.117542 0.010000 0.659609
v 0.115146 0.010000 0.660031
v 0.112748 0.010000 0.660445
v 0.110348 0.010000 0.660850
v 0.107947 0.010000 0.661247
v 0.105544 0.010000 0.661635
v 0.103140 0.010000 0.662014
v 0.100735 0.010000 0.662384
v 0.098328 0.010000 0.662745
v 0.095921 0.010000 0.663098
v 0.093511 0.010000 0.663442
v 0.091101 0.010000 0.663778
v 0.088689 0.010000 0.664104
v 0.086277 0.010000 0.664422
v 0.083863 0.010000 0.664731
v 0.081448 0.010000 0.665031
v 0.079032 0.010000 0.665322
v 0.153288 0.000000 0.652229
v 0.153288 0.010000 0.652229
v 0.153288 0.010000 0.652229
v 0.150918 0.010000 0.652781
v 0.148546 0.010000 0.653325
v 0.146172 0.010000 0.653861
v 0.143796 0.010000 0.654387
v 0.141418 0.010000 0.654905
v 0.139039 0.010000 0.655415
v 0.136657 0.010000 0.655915
v 0.134274 0.010000 0.656407
v 0.131889 0.010000 0.656891
v 0.129502 0.010000 0.657365
v 0.127113 0.010000 0.657831
v 0.124723 0.010000 0.658289
v 0.122331 0.010000 0.658738
v 0.119938 0.010000 0.659178
v 0.117542 0.010000 0.659609
v 0.115146 0.010000 0.660031
v 0.112748 0.010000 0.660445
v 0.110348 0.010000 0.660850
v 0.107947 0.010000 0.661247
v 0.105544 0.010000 0.661635
v 0.103140 0.010000 0.662014
v 0.100735 0.010000 0.662384
v 0.098328 0.010000 0.662745
v 0.095921 0.010000 0.663098
v 0.093511 0.010000 0.663442
v 0.091101 0.010000 0.663778
v 0.088689 0.010000 0.664104
v 0.086277 0.010000 0.664422
v 0.083863 0.010000 0.664731
v 0.081448 0.010000 0.665031
v 0.079032 0.010000 0.665322
f 1 2 3
f 1 3 4
f 1 4 5
f 1 5 6
f 1 6 7
f 1 7 8
f 1 8 9
f 1 9 10
f 1 10 11
f 1 11 12
f 1 12 13
f 1 13 14
f 1 14 15
f 1 15 16
f 1 16 17
f 1 17 18
f 1 18 19
f 1 19 20
f 1 20 21
f 1 21 22
f 1 22 23
f 1 23 24
f 1 24 25
f 1 25 26
f 1 26 27
f 1 27 28
f 1 28 29
f 1 29 30
f 1 30 31
f 1 31 32
f 1 32 33
f 1 33 34
f 1 34 35
f 1 35 36
f 1 36 37
f 1 37 38
f 1 38 39
f 1 39 40
f 1 40 41
f 1 41 42
f 1 42 43
f 1 43 44
f 1 44 45
f 1 45 46
f 1 46 47
f 1 47 48
f 1 48 49
f 1 49 50
f 1 50 51
f 1 51 52
f 1 52 53
f 1 53 54
f 1 54 55
f 1 55 56
f 1 56 57
f 1 57 58
f 1 58 59
f 1 59 60
f 1 60 61
f 1 61 62
f 1 62 63
f 1 63 64
f 1 64 65
f 1 65 66
f 1 66 67
f 1 67 68
f 1 68 69
f 1 69 2
