v 1.725000 0.350000 -4.837000
v 1.725539 0.350000 -4.847623
v 1.727149 0.350000 -4.858136
v 1.729815 0.350000 -4.868433
v 1.733509 0.350000 -4.878407
v 1.738194 0.350000 -4.887957
v 1.743820 0.350000 -4.896983
v 1.750330 0.350000 -4.905394
v 1.757658 0.350000 -4.913103
v 1.765729 0.350000 -4.920031
v 1.774459 0.350000 -4.926108
v 1.783759 0.350000 -4.931269
v 1.793533 0.350000 -4.935464
v 1.803681 0.350000 -4.938648
v 1.814100 0.350000 -4.940789
v 1.824682 0.350000 -4.941865
v 1.835318 0.350000 -4.941865
v 1.845900 0.350000 -4.940789
v 1.856319 0.350000 -4.938648
v 1.866467 0.350000 -4.935464
v 1.876241 0.350000 -4.931269
v 1.885541 0.350000 -4.926108
v 1.894271 0.350000 -4.920031
v 1.902342 0.350000 -4.913103
v 1.909670 0.350000 -4.905394
v 1.916180 0.350000 -4.896983
v 1.921806 0.350000 -4.887957
v 1.926491 0.350000 -4.878407
v 1.930185 0.350000 -4.868433
v 1.932851 0.350000 -4.858136
v 1.934461 0.350000 -4.847623
v 1.935000 0.350000 -4.837000
v 1.725000 0.300000 -4.837000
v 1.725539 0.300000 -4.847623
v 1.727149 0.300000 -4.858136
v 1.729815 0.300000 -4.868433
v 1.733509 0.300000 -4.878407
v 1.738194 0.300000 -4.887957
v 1.743820 0.300000 -4.896983
v 1.750330 0.300000 -4.905394
v 1.757658 0.300000 -4.913103
v 1.765729 0.300000 -4.920031
v 1.774459 0.300000 -4.926108
v 1.783759 0.300000 -4.931269
v 1.793533 0.300000 -4.935464
v 1.803681 0.300000 -4.938648
v 1.814100 0.300000 -4.940789
v 1.824682 0.300000 -4.941865
v 1.835318 0.300000 -4.941865
v 1.845900 0.300000 -4.940789
v 1.856319 0.300000 -4.938648
v 1.866467 0.300000 -4.935464
v 1.876241 0.300000 -4.931269
v 1.885541 0.300000 -4.926108
v 1.894271 0.300000 -4.920031
v 1.902342 0.300000 -4.913103
v 1.909670 0.300000 -4.905394
v 1.916180 0.300000 -4.896983
v 1.921806 0.300000 -4.887957
v 1.926491 0.300000 -4.878407
v 1.930185 0.300000 -4.868433
v 1.932851 0.300000 -4.858136
v 1.934461 0.300000 -4.847623
v 1.935000 0.300000 -4.837000
f 1 2 34
f 1 34 33
f 2 3 35
f 2 35 34
f 3 4 36
f 3 36 35
f 4 5 37
f 4 37 36
f 5 6 38
f 5 38 37
f 6 7 39
f 6 39 38
f 7 8 40
f 7 40 39
f 8 9 41
f 8 41 40
f 9 10 42
f 9 42 41
f 10 11 43
f 10 43 42
f 11 12 44
f 11 44 43
f 12 13 45
f 12 45 44
f 13 14 46
f 13 46 45
f 14 15 47
f 14 47 46
f 15 16 48
f 15 48 47
f 16 17 49
f 16 49 48
f 17 18 50
f 17 50 49
f 18 19 51
f 18 51 50
f 19 20 52
f 19 52 51
f 20 21 53
f 20 53 52
f 21 22 54
f 21 54 53
f 22 23 55
f 22 55 54
f 23 24 56
f 23 56 55
f 24 25 57
f 24 57 56
f 25 26 58
f 25 58 57
f 26 27 59
f 26 59 58
f 27 28 60
f 27 60 59
f 28 29 61
f 28 61 60
f 29 30 62
f 29 62 61
f 30 31 63
f 30 63 62
f 31 32 64
f 31 64 63
