v -3.625000 0.000000 -5.255000
v -3.575000 0.000000 -5.255000
v -3.575000 0.000000 -4.287000
v -2.915000 0.000000 -4.287000
v -2.899805 0.000000 -4.286615
v -2.884650 0.000000 -4.285461
v -2.869572 0.000000 -4.283540
v -2.854610 0.000000 -4.280859
v -2.839804 0.000000 -4.277423
v -2.825191 0.000000 -4.273242
v -2.810808 0.000000 -4.268326
v -2.796693 0.000000 -4.262687
v -2.782882 0.000000 -4.256341
v -2.769409 0.000000 -4.249304
v -2.756311 0.000000 -4.241593
v -2.743620 0.000000 -4.233229
v -2.731368 0.000000 -4.224233
v -2.719588 0.000000 -4.214627
v -2.708310 0.000000 -4.204438
v -2.697562 0.000000 -4.193690
v -2.687373 0.000000 -4.182412
v -2.677767 0.000000 -4.170632
v -2.668771 0.000000 -4.158380
v -2.660407 0.000000 -4.145689
v -2.652696 0.000000 -4.132591
v -2.645659 0.000000 -4.119118
v -2.639313 0.000000 -4.105307
v -2.633674 0.000000 -4.091192
v -2.628758 0.000000 -4.076809
v -2.624577 0.000000 -4.062196
v -2.621141 0.000000 -4.047390
v -2.618460 0.000000 -4.032428
v -2.616539 0.000000 -4.017350
v -2.615385 0.000000 -4.002195
v -2.615000 0.000000 -3.987000
v -2.615000 0.000000 -3.025000
v -2.614904 0.000000 -3.021201
v -2.614615 0.000000 -3.017412
v -2.614135 0.000000 -3.013643
v -2.613465 0.000000 -3.009903
v -2.612606 0.000000 -3.006201
v -2.611560 0.000000 -3.002548
v -2.610331 0.000000 -2.998952
v -2.608922 0.000000 -2.995423
v -2.607335 0.000000 -2.991970
v -2.605576 0.000000 -2.988602
v -2.603648 0.000000 -2.985328
v -2.601557 0.000000 -2.982155
v -2.599308 0.000000 -2.979092
v -2.596907 0.000000 -2.976147
v -2.594359 0.000000 -2.973327
v -2.591673 0.000000 -2.970641
v -2.588853 0.000000 -2.968093
v -2.585908 0.000000 -2.965692
v -2.582845 0.000000 -2.963443
v -2.579672 0.000000 -2.961352
v -2.576398 0.000000 -2.959424
v -2.573030 0.000000 -2.957665
v -2.569577 0.000000 -2.956078
v -2.566048 0.000000 -2.954669
v -2.562452 0.000000 -2.953440
v -2.558799 0.000000 -2.952394
v -2.555097 0.000000 -2.951535
v -2.551357 0.000000 -2.950865
v -2.547588 0.000000 -2.950385
v -2.543799 0.000000 -2.950096
v -2.540000 0.000000 -2.950000
v -1.274878 0.000000 -2.950000
v -1.261370 0.000000 -2.949696
v -1.247890 0.000000 -2.948784
v -1.234464 0.000000 -2.947265
v -1.221121 0.000000 -2.945144
v -1.207886 0.000000 -2.942425
v -1.194788 0.000000 -2.939112
v -1.181852 0.000000 -2.935212
v -1.169104 0.000000 -2.930735
v -1.156571 0.000000 -2.925687
v -1.144278 0.000000 -2.920081
v -1.132250 0.000000 -2.913927
v -1.120511 0.000000 -2.907237
v -1.109086 0.000000 -2.900026
v -1.097996 0.000000 -2.892307
v -1.087266 0.000000 -2.884097
v -1.076915 0.000000 -2.875413
v -1.066967 0.000000 -2.866271
v -1.057440 0.000000 -2.856690
v -1.048354 0.000000 -2.846690
v -1.039728 0.000000 -2.836291
v -1.031579 0.000000 -2.825515
v -1.023923 0.000000 -2.814382
v -1.016776 0.000000 -2.802916
v -1.010152 0.000000 -2.791140
v -1.004066 0.000000 -2.779077
v -0.998529 0.000000 -2.766753
v -0.993552 0.000000 -2.754192
v -0.989146 0.000000 -2.741419
v -0.985320 0.000000 -2.728461
v -0.982081 0.000000 -2.715344
v -0.979436 0.000000 -2.702094
v -0.636000 0.000000 -0.754374
v -0.636000 0.000000 -0.500000
v -0.636127 0.000000 -0.490428
v -0.636506 0.000000 -0.480866
v -0.637134 0.000000 -0.471320
v -0.638011 0.000000 -0.461797
v -0.639132 0.000000 -0.452301
v -0.640497 0.000000 -0.442838
v -0.642103 0.000000 -0.433415
v -0.643947 0.000000 -0.424036
v -0.646027 0.000000 -0.414708
v -0.648341 0.000000 -0.405436
v -0.650887 0.000000 -0.396226
v -0.653663 0.000000 -0.387084
v -0.656666 0.000000 -0.378015
v -0.659893 0.000000 -0.369025
v -0.663344 0.000000 -0.360121
v -0.667015 0.000000 -0.351306
v -0.670904 0.000000 -0.342588
v -0.675009 0.000000 -0.333972
v -0.679327 0.000000 -0.325464
v -0.683857 0.000000 -0.317069
v -0.688597 0.000000 -0.308793
v -0.693543 0.000000 -0.300642
v -0.698693 0.000000 -0.292622
v -0.704046 0.000000 -0.284738
v -0.709599 0.000000 -0.276996
v -0.715350 0.000000 -0.269402
v -0.721297 0.000000 -0.261961
v -0.727436 0.000000 -0.254679
v -0.733765 0.000000 -0.247561
v -0.740279 0.000000 -0.240610
v -0.746971 0.000000 -0.233829
v -0.753837 0.000000 -0.227221
v -0.760872 -0.000000 -0.220789
v -0.768070 -0.000000 -0.214537
v -0.775426 -0.000000 -0.208468
v -0.782935 -0.000000 -0.202585
v -0.790591 -0.000000 -0.196890
v -0.798390 -0.000000 -0.191389
v -0.806326 -0.000000 -0.186083
v -0.814393 -0.000000 -0.180975
v -0.822587 -0.000000 -0.176070
v -0.830902 -0.000000 -0.171370
v -0.839333 -0.000000 -0.166878
v -0.847875 -0.000000 -0.162598
v -0.856522 -0.000000 -0.158532
v -0.865270 -0.000000 -0.154685
v -0.874112 -0.000000 -0.151058
v -0.883045 -0.000000 -0.147656
v -0.892061 -0.000000 -0.144481
v -0.901157 -0.000000 -0.141538
v -0.910327 -0.000000 -0.138828
v -0.919566 -0.000000 -0.136355
v -0.928868 -0.000000 -0.134122
v -0.938228 -0.000000 -0.132133
v -0.947642 0.000000 -0.130391
v -1.974030 0.000000 0.045552
v -1.979573 0.000000 0.054546
v -1.985015 0.000000 0.063603
v -1.990354 0.000000 0.072721
v -1.995591 0.000000 0.081898
v -2.000724 0.000000 0.091135
v -2.005754 0.000000 0.100428
v -2.010679 0.000000 0.109778
v -2.015499 0.000000 0.119183
v -2.020213 0.000000 0.128642
v -2.024821 0.000000 0.138154
v -2.029323 0.000000 0.147716
v -2.033717 0.000000 0.157329
v -2.038004 0.000000 0.166990
v -2.042182 0.000000 0.176699
v -2.046251 0.000000 0.186454
v -2.050211 0.000000 0.196255
v -2.054061 0.000000 0.206099
v -2.057800 0.000000 0.215986
v -2.061427 0.000000 0.225914
v -2.064943 0.000000 0.235882
v -2.068347 0.000000 0.245890
v -2.071638 0.000000 0.255935
v -2.074815 0.000000 0.266016
v -2.077879 0.000000 0.276133
v -2.080827 0.000000 0.286283
v -2.083661 0.000000 0.296467
v -2.086379 0.000000 0.306681
v -2.088981 0.000000 0.316926
v -2.091467 0.000000 0.327200
v -2.093836 0.000000 0.337501
v -2.096090 0.000000 0.347828
v -2.098226 0.000000 0.358180
v -2.100246 0.000000 0.368556
v -2.102150 0.000000 0.378953
v -2.103936 0.000000 0.389372
v -2.105606 0.000000 0.399809
v -2.107158 0.000000 0.410265
v -2.108593 0.000000 0.420737
v -2.109910 0.000000 0.431224
v -2.111110 0.000000 0.441726
v -2.112192 0.000000 0.452240
v -2.113157 0.000000 0.462765
v -2.114003 0.000000 0.473300
v -2.114732 0.000000 0.483844
v -2.115342 0.000000 0.494395
v -2.115834 0.000000 0.504951
v -2.116207 0.000000 0.515513
v -2.116462 0.000000 0.526077
v -2.116598 0.000000 0.536643
v -2.116615 0.000000 0.547209
v -2.116513 0.000000 0.557775
v -2.116292 0.000000 0.568338
v -2.115952 0.000000 0.578897
v -2.115492 0.000000 0.589452
v -2.114913 0.000000 0.600000
v -2.165000 0.000000 0.600000
v -2.165584 0.000000 0.588442
v -2.166035 0.000000 0.576900
v -2.166355 0.000000 0.565374
v -2.166542 0.000000 0.553862
v -2.166598 0.000000 0.542364
v -2.166521 0.000000 0.530879
v -2.166313 0.000000 0.519407
v -2.165972 0.000000 0.507947
v -2.165499 0.000000 0.496498
v -2.164893 0.000000 0.485060
v -2.164155 0.000000 0.473631
v -2.163285 0.000000 0.462212
v -2.162282 0.000000 0.450802
v -2.161147 0.000000 0.439399
v -2.159879 0.000000 0.428005
v -2.158479 0.000000 0.416620
v -2.156946 0.000000 0.405248
v -2.155282 0.000000 0.393889
v -2.153485 0.000000 0.382546
v -2.151557 0.000000 0.371221
v -2.149497 0.000000 0.359916
v -2.147306 0.000000 0.348633
v -2.144984 0.000000 0.337374
v -2.142530 0.000000 0.326141
v -2.139945 0.000000 0.314936
v -2.137230 0.000000 0.303761
v -2.134384 0.000000 0.292618
v -2.131407 0.000000 0.281509
v -2.128300 0.000000 0.270435
v -2.125064 0.000000 0.259400
v -2.121700 0.000000 0.248403
v -2.118209 0.000000 0.237449
v -2.114590 0.000000 0.226537
v -2.110847 0.000000 0.215670
v -2.106978 0.000000 0.204850
v -2.102985 0.000000 0.194078
v -2.098870 0.000000 0.183357
v -2.094632 0.000000 0.172687
v -2.090273 0.000000 0.162072
v -2.085793 0.000000 0.151513
v -2.081194 0.000000 0.141011
v -2.076476 0.000000 0.130568
v -2.071639 0.000000 0.120185
v -2.066683 0.000000 0.109861
v -2.061608 0.000000 0.099595
v -2.056413 0.000000 0.089386
v -2.051099 0.000000 0.079234
v -2.045664 0.000000 0.069139
v -2.040108 0.000000 0.059100
v -2.034432 0.000000 0.049115
v -2.028635 0.000000 0.039185
v -2.022717 0.000000 0.029310
v -2.016677 0.000000 0.019487
v -2.010515 0.000000 0.009718
v -2.004230 0.000000 0.000000
v -0.956089 0.000000 -0.179672
v -0.947910 0.000000 -0.181182
v -0.939806 0.000000 -0.182892
v -0.931775 0.000000 -0.184803
v -0.923813 0.000000 -0.186915
v -0.915918 0.000000 -0.189229
v -0.908085 0.000000 -0.191744
v -0.900311 0.000000 -0.194462
v -0.892593 0.000000 -0.197381
v -0.884931 0.000000 -0.200501
v -0.877333 0.000000 -0.203819
v -0.869808 0.000000 -0.207332
v -0.862367 0.000000 -0.211035
v -0.855018 0.000000 -0.214925
v -0.847771 0.000000 -0.218998
v -0.840636 0.000000 -0.223251
v -0.833623 0.000000 -0.227680
v -0.826738 0.000000 -0.232282
v -0.819982 0.000000 -0.237054
v -0.813358 0.000000 -0.241996
v -0.806867 0.000000 -0.247106
v -0.800509 0.000000 -0.252381
v -0.794286 0.000000 -0.257820
v -0.788200 0.000000 -0.263421
v -0.782252 0.000000 -0.269182
v -0.776444 0.000000 -0.275100
v -0.770782 0.000000 -0.281168
v -0.765272 0.000000 -0.287379
v -0.759919 0.000000 -0.293728
v -0.754727 0.000000 -0.300209
v -0.749703 0.000000 -0.306814
v -0.744852 0.000000 -0.313538
v -0.740179 0.000000 -0.320374
v -0.735687 0.000000 -0.327320
v -0.731377 0.000000 -0.334372
v -0.727252 0.000000 -0.341529
v -0.723313 0.000000 -0.348791
v -0.719561 0.000000 -0.356155
v -0.715998 0.000000 -0.363619
v -0.712626 0.000000 -0.371183
v -0.709446 0.000000 -0.378844
v -0.706459 0.000000 -0.386595
v -0.703669 0.000000 -0.394425
v -0.701077 0.000000 -0.402326
v -0.698684 0.000000 -0.410286
v -0.696493 0.000000 -0.418296
v -0.694507 0.000000 -0.426345
v -0.692726 0.000000 -0.434424
v -0.691153 0.000000 -0.442525
v -0.689788 0.000000 -0.450646
v -0.688632 0.000000 -0.458791
v -0.687686 0.000000 -0.466964
v -0.686949 0.000000 -0.475168
v -0.686422 0.000000 -0.483407
v -0.686106 0.000000 -0.491683
v -0.686000 0.000000 -0.500000
v -0.686000 0.000000 -0.750000
v -1.028676 0.000000 -2.693412
v -1.030880 0.000000 -2.704453
v -1.033580 0.000000 -2.715384
v -1.036768 0.000000 -2.726183
v -1.040440 0.000000 -2.736826
v -1.044587 0.000000 -2.747294
v -1.049201 0.000000 -2.757564
v -1.054273 0.000000 -2.767616
v -1.059793 0.000000 -2.777430
v -1.065749 0.000000 -2.786985
v -1.072128 0.000000 -2.796262
v -1.078920 0.000000 -2.805243
v -1.086108 0.000000 -2.813909
v -1.093680 0.000000 -2.822242
v -1.101619 0.000000 -2.830226
v -1.109909 0.000000 -2.837844
v -1.118534 0.000000 -2.845081
v -1.127476 0.000000 -2.851923
v -1.136718 0.000000 -2.858355
v -1.146239 0.000000 -2.864364
v -1.156021 0.000000 -2.869939
v -1.166045 0.000000 -2.875067
v -1.176289 0.000000 -2.879739
v -1.186733 0.000000 -2.883945
v -1.197356 0.000000 -2.887677
v -1.208136 0.000000 -2.890926
v -1.219052 0.000000 -2.893687
v -1.230080 0.000000 -2.895954
v -1.241200 0.000000 -2.897721
v -1.252388 0.000000 -2.898986
v -1.263622 0.000000 -2.899746
v -1.274878 0.000000 -2.900000
v -2.540000 0.000000 -2.900000
v -2.546331 0.000000 -2.900160
v -2.552646 0.000000 -2.900641
v -2.558928 0.000000 -2.901441
v -2.565162 0.000000 -2.902559
v -2.571332 0.000000 -2.903990
v -2.577420 0.000000 -2.905733
v -2.583413 0.000000 -2.907781
v -2.589294 0.000000 -2.910130
v -2.595049 0.000000 -2.912774
v -2.600663 0.000000 -2.915707
v -2.606121 0.000000 -2.918919
v -2.611409 0.000000 -2.922405
v -2.616513 0.000000 -2.926153
v -2.621422 0.000000 -2.930155
v -2.626121 0.000000 -2.934401
v -2.630599 0.000000 -2.938879
v -2.634845 0.000000 -2.943578
v -2.638847 0.000000 -2.948487
v -2.642595 0.000000 -2.953591
v -2.646081 0.000000 -2.958879
v -2.649293 0.000000 -2.964337
v -2.652226 0.000000 -2.969951
v -2.654870 0.000000 -2.975706
v -2.657219 0.000000 -2.981587
v -2.659267 0.000000 -2.987580
v -2.661010 0.000000 -2.993668
v -2.662441 0.000000 -2.999838
v -2.663559 0.000000 -3.006072
v -2.664359 0.000000 -3.012354
v -2.664840 0.000000 -3.018669
v -2.665000 0.000000 -3.025000
v -2.665000 0.000000 -3.987000
v -2.665321 0.000000 -3.999662
v -2.666283 0.000000 -4.012292
v -2.667883 0.000000 -4.024857
v -2.670118 0.000000 -4.037325
v -2.672981 0.000000 -4.049663
v -2.676465 0.000000 -4.061841
v -2.680562 0.000000 -4.073826
v -2.685261 0.000000 -4.085589
v -2.690549 0.000000 -4.097099
v -2.696413 0.000000 -4.108325
v -2.702839 0.000000 -4.119241
v -2.709809 0.000000 -4.129817
v -2.717306 0.000000 -4.140026
v -2.725310 0.000000 -4.149843
v -2.733802 0.000000 -4.159242
v -2.742758 0.000000 -4.168198
v -2.752157 0.000000 -4.176690
v -2.761974 0.000000 -4.184694
v -2.772183 0.000000 -4.192191
v -2.782759 0.000000 -4.199161
v -2.793675 0.000000 -4.205587
v -2.804901 0.000000 -4.211451
v -2.816411 0.000000 -4.216739
v -2.828174 0.000000 -4.221438
v -2.840159 0.000000 -4.225535
v -2.852337 0.000000 -4.229019
v -2.864675 0.000000 -4.231882
v -2.877143 0.000000 -4.234117
v -2.889708 0.000000 -4.235717
v -2.902338 0.000000 -4.236679
v -2.915000 0.000000 -4.237000
v -3.625000 0.000000 -4.237000
f 422 2 1
f 3 5 4
f 5 7 6
f 7 9 8
f 9 11 10
f 11 13 12
f 13 15 14
f 15 17 16
f 17 19 18
f 19 21 20
f 21 23 22
f 23 25 24
f 25 27 26
f 27 29 28
f 29 31 30
f 31 33 32
f 33 35 34
f 67 69 68
f 69 71 70
f 71 73 72
f 73 75 74
f 75 77 76
f 77 79 78
f 79 81 80
f 81 83 82
f 83 85 84
f 85 87 86
f 87 89 88
f 89 91 90
f 91 93 92
f 93 95 94
f 95 97 96
f 97 99 98
f 99 101 100
f 101 103 102
f 103 105 104
f 105 107 106
f 107 109 108
f 109 111 110
f 111 113 112
f 113 115 114
f 115 117 116
f 117 119 118
f 119 121 120
f 121 123 122
f 123 125 124
f 125 127 126
f 127 129 128
f 129 131 130
f 131 133 132
f 133 135 134
f 135 137 136
f 137 139 138
f 139 141 140
f 141 143 142
f 143 145 144
f 145 147 146
f 147 149 148
f 149 151 150
f 151 153 152
f 153 155 154
f 155 157 156
f 211 213 212
f 213 215 214
f 215 217 216
f 217 219 218
f 219 221 220
f 221 223 222
f 223 225 224
f 225 227 226
f 227 229 228
f 229 231 230
f 231 233 232
f 233 235 234
f 235 237 236
f 237 239 238
f 239 241 240
f 241 243 242
f 243 245 244
f 245 247 246
f 247 249 248
f 249 251 250
f 251 253 252
f 253 255 254
f 255 257 256
f 257 259 258
f 259 261 260
f 261 263 262
f 263 265 264
f 265 267 266
f 267 269 268
f 357 359 358
f 359 361 360
f 361 363 362
f 363 365 364
f 365 367 366
f 367 369 368
f 369 371 370
f 371 373 372
f 373 375 374
f 375 377 376
f 377 379 378
f 379 381 380
f 381 383 382
f 383 385 384
f 385 387 386
f 387 389 388
f 422 3 2
f 3 7 5
f 7 11 9
f 11 15 13
f 15 19 17
f 19 23 21
f 23 27 25
f 27 31 29
f 31 35 33
f 67 71 69
f 71 75 73
f 75 79 77
f 79 83 81
f 83 87 85
f 87 91 89
f 91 95 93
f 95 99 97
f 99 103 101
f 103 107 105
f 107 111 109
f 111 115 113
f 115 119 117
f 119 123 121
f 123 127 125
f 127 131 129
f 131 135 133
f 135 139 137
f 139 143 141
f 143 147 145
f 147 151 149
f 151 155 153
f 210 213 211
f 213 217 215
f 217 221 219
f 221 225 223
f 225 229 227
f 229 233 231
f 233 237 235
f 237 241 239
f 241 245 243
f 245 249 247
f 249 253 251
f 253 257 255
f 257 261 259
f 261 265 263
f 265 269 267
f 357 361 359
f 361 365 363
f 365 369 367
f 369 373 371
f 373 377 375
f 377 381 379
f 381 385 383
f 385 389 387
f 421 3 422
f 3 11 7
f 11 19 15
f 19 27 23
f 27 35 31
f 67 75 71
f 75 83 79
f 83 91 87
f 91 99 95
f 103 111 107
f 111 119 115
f 119 127 123
f 127 135 131
f 135 143 139
f 143 151 147
f 151 157 155
f 209 213 210
f 213 221 217
f 221 229 225
f 229 237 233
f 237 245 241
f 245 253 249
f 253 261 257
f 265 270 269
f 357 365 361
f 365 373 369
f 373 381 377
f 381 389 385
f 420 3 421
f 11 27 19
f 27 36 35
f 75 91 83
f 91 103 99
f 103 119 111
f 119 135 127
f 135 151 143
f 208 213 209
f 213 229 221
f 229 245 237
f 245 261 253
f 357 373 365
f 373 389 381
f 420 11 3
f 103 135 119
f 135 157 151
f 207 213 208
f 213 245 229
f 245 265 261
f 356 373 357
f 373 390 389
f 419 11 420
f 206 213 207
f 213 265 245
f 373 391 390
f 418 11 419
f 205 213 206
f 417 11 418
f 204 213 205
f 416 11 417
f 203 213 204
f 415 11 416
f 202 213 203
f 414 11 415
f 201 213 202
f 413 11 414
f 200 213 201
f 412 11 413
f 199 213 200
f 411 11 412
f 198 213 199
f 410 11 411
f 197 213 198
f 409 11 410
f 196 213 197
f 408 11 409
f 195 213 196
f 407 11 408
f 194 213 195
f 406 11 407
f 193 213 194
f 405 11 406
f 192 213 193
f 404 11 405
f 191 213 192
f 403 11 404
f 190 213 191
f 402 11 403
f 189 213 190
f 402 27 11
f 188 213 189
f 401 27 402
f 187 213 188
f 400 27 401
f 186 213 187
f 399 27 400
f 185 213 186
f 398 27 399
f 184 213 185
f 397 27 398
f 183 213 184
f 396 27 397
f 183 265 213
f 395 27 396
f 182 265 183
f 394 27 395
f 181 265 182
f 393 27 394
f 180 265 181
f 392 27 393
f 179 265 180
f 391 27 392
f 178 265 179
f 373 27 391
f 177 265 178
f 373 36 27
f 176 265 177
f 373 37 36
f 175 265 176
f 373 38 37
f 174 265 175
f 373 39 38
f 173 265 174
f 373 40 39
f 172 265 173
f 373 41 40
f 171 265 172
f 373 42 41
f 170 265 171
f 373 43 42
f 169 265 170
f 373 44 43
f 168 265 169
f 373 45 44
f 167 265 168
f 373 46 45
f 166 265 167
f 373 47 46
f 165 265 166
f 373 48 47
f 164 265 165
f 373 49 48
f 163 265 164
f 373 50 49
f 162 265 163
f 373 51 50
f 161 265 162
f 373 52 51
f 160 265 161
f 373 53 52
f 159 265 160
f 373 54 53
f 158 265 159
f 373 55 54
f 157 265 158
f 373 56 55
f 135 265 157
f 373 57 56
f 135 270 265
f 373 58 57
f 135 271 270
f 373 59 58
f 135 272 271
f 373 60 59
f 135 273 272
f 373 61 60
f 135 274 273
f 373 62 61
f 135 275 274
f 373 63 62
f 135 276 275
f 373 64 63
f 135 277 276
f 373 65 64
f 135 278 277
f 373 66 65
f 135 279 278
f 356 66 373
f 135 280 279
f 356 67 66
f 135 281 280
f 356 75 67
f 135 282 281
f 355 75 356
f 135 283 282
f 354 75 355
f 135 284 283
f 353 75 354
f 135 285 284
f 352 75 353
f 135 286 285
f 351 75 352
f 135 287 286
f 350 75 351
f 135 288 287
f 349 75 350
f 135 289 288
f 348 75 349
f 135 290 289
f 347 75 348
f 135 291 290
f 346 75 347
f 135 292 291
f 345 75 346
f 135 293 292
f 344 75 345
f 135 294 293
f 343 75 344
f 135 295 294
f 342 75 343
f 135 296 295
f 341 75 342
f 135 297 296
f 340 75 341
f 135 298 297
f 339 75 340
f 135 299 298
f 338 75 339
f 135 300 299
f 337 75 338
f 135 301 300
f 337 91 75
f 135 302 301
f 336 91 337
f 103 302 135
f 335 91 336
f 103 303 302
f 334 91 335
f 103 304 303
f 333 91 334
f 103 305 304
f 332 91 333
f 103 306 305
f 331 91 332
f 103 307 306
f 330 91 331
f 103 308 307
f 329 91 330
f 103 309 308
f 328 91 329
f 103 310 309
f 327 91 328
f 103 311 310
f 326 91 327
f 103 312 311
f 325 91 326
f 103 313 312
f 325 103 91
f 103 314 313
f 324 103 325
f 103 315 314
f 323 103 324
f 103 316 315
f 322 103 323
f 103 317 316
f 321 103 322
f 103 318 317
f 320 103 321
f 103 319 318
f 319 103 320
