v -0.694890 0.000000 0.239801
v -0.686458 0.000000 0.262968
v -0.686305 0.000000 0.263362
v -0.686136 0.000000 0.263749
v -0.685951 0.000000 0.264128
v -0.685749 0.000000 0.264499
v -0.685533 0.000000 0.264861
v -0.685301 0.000000 0.265214
v -0.685054 0.000000 0.265557
v -0.684793 0.000000 0.265889
v -0.684519 0.000000 0.266210
v -0.684231 0.000000 0.266519
v -0.683930 0.000000 0.266815
v -0.683618 0.000000 0.267099
v -0.683293 0.000000 0.267369
v -0.682957 0.000000 0.267625
v -0.682611 0.000000 0.267867
v -0.682255 0.000000 0.268093
v -0.681890 0.000000 0.268305
v -0.681516 0.000000 0.268501
v -0.681134 0.000000 0.268681
v -0.680744 0.000000 0.268845
v -0.680349 0.000000 0.268992
v -0.679947 0.000000 0.269122
v -0.679540 0.000000 0.269236
v -0.679129 0.000000 0.269332
v -0.678714 0.000000 0.269410
v -0.678297 0.000000 0.269471
v -0.677877 0.000000 0.269515
v -0.677455 0.000000 0.269540
v -0.677033 0.000000 0.269548
v -0.676611 0.000000 0.269538
v -0.676190 0.000000 0.269510
v -0.615702 0.000000 0.264218
v -0.641491 0.010000 0.193363
v -0.640784 0.010000 0.195692
v -0.640069 0.010000 0.198018
v -0.639346 0.010000 0.200342
v -0.638614 0.010000 0.202662
v -0.637874 0.010000 0.204981
v -0.637125 0.010000 0.207296
v -0.636368 0.010000 0.209609
v -0.635602 0.010000 0.211919
v -0.634828 0.010000 0.214226
v -0.634046 0.010000 0.216531
v -0.633255 0.010000 0.218833
v -0.632456 0.010000 0.221131
v -0.631649 0.010000 0.223427
v -0.630833 0.010000 0.225720
v -0.630009 0.010000 0.228010
v -0.629177 0.010000 0.230297
v -0.628336 0.010000 0.232580
v -0.627487 0.010000 0.234861
v -0.626630 0.010000 0.237139
v -0.625765 0.010000 0.239413
v -0.624891 0.010000 0.241685
v -0.624009 0.010000 0.243953
v -0.623119 0.010000 0.246218
v -0.622220 0.010000 0.248479
v -0.621314 0.010000 0.250738
v -0.620399 0.010000 0.252993
v -0.619476 0.010000 0.255245
v -0.618544 0.010000 0.257493
v -0.617605 0.010000 0.259738
v -0.616658 0.010000 0.261980
v -0.615702 0.010000 0.264218
v -0.641491 0.000000 0.193363
v -0.691229 0.000000 0.228190
v -0.691570 0.000000 0.228439
v -0.691899 0.000000 0.228703
v -0.692218 0.000000 0.228980
v -0.692524 0.000000 0.229271
v -0.692818 0.000000 0.229574
v -0.693099 0.000000 0.229889
v -0.693366 0.000000 0.230216
v -0.693620 0.000000 0.230554
v -0.693858 0.000000 0.230902
v -0.694082 0.000000 0.231260
v -0.694291 0.000000 0.231627
v -0.694484 0.000000 0.232003
v -0.694660 0.000000 0.232386
v -0.694821 0.000000 0.232777
v -0.694965 0.000000 0.233174
v -0.695092 0.000000 0.233576
v -0.695202 0.000000 0.233984
v -0.695294 0.000000 0.234396
v -0.695369 0.000000 0.234811
v -0.695427 0.000000 0.235230
v -0.695466 0.000000 0.235650
v -0.695488 0.000000 0.236072
v -0.695493 0.000000 0.236494
v -0.695479 0.000000 0.236916
v -0.695447 0.000000 0.237337
v -0.695398 0.000000 0.237756
v -0.695331 0.000000 0.238173
v -0.695247 0.000000 0.238587
v -0.695145 0.000000 0.238997
v -0.695026 0.000000 0.239402
f 1 2 3
f 1 3 4
f 1 4 5
f 1 5 6
f 1 6 7
f 1 7 8
f 1 8 9
f 1 9 10
f 1 10 11
f 1 11 12
f 1 12 13
f 1 13 14
f 1 14 15
f 1 15 16
f 1 16 17
f 1 17 18
f 1 18 19
f 1 19 20
f 1 20 21
f 1 21 22
f 1 22 23
f 1 23 24
f 1 24 25
f 1 25 26
f 1 26 27
f 1 27 28
f 1 28 29
f 1 29 30
f 1 30 31
f 1 31 32
f 1 32 33
f 1 33 34
f 1 34 35
f 1 35 36
f 1 36 37
f 1 37 38
f 1 38 39
f 1 39 40
f 1 40 41
f 1 41 42
f 1 42 43
f 1 43 44
f 1 44 45
f 1 45 46
f 1 46 47
f 1 47 48
f 1 48 49
f 1 49 50
f 1 50 51
f 1 51 52
f 1 52 53
f 1 53 54
f 1 54 55
f 1 55 56
f 1 56 57
f 1 57 58
f 1 58 59
f 1 59 60
f 1 60 61
f 1 61 62
f 1 62 63
f 1 63 64
f 1 64 65
f 1 65 66
f 1 66 67
f 1 67 68
f 1 68 69
f 1 69 70
f 1 70 71
f 1 71 72
f 1 72 73
f 1 73 74
f 1 74 75
f 1 75 76
f 1 76 77
f 1 77 78
f 1 78 79
f 1 79 80
f 1 80 81
f 1 81 82
f 1 82 83
f 1 83 84
f 1 84 85
f 1 85 86
f 1 86 87
f 1 87 88
f 1 88 89
f 1 89 90
f 1 90 91
f 1 91 92
f 1 92 93
f 1 93 94
f 1 94 95
f 1 95 96
f 1 96 97
f 1 97 98
