v -0.152500 0.000000 -1.217500
v -0.151718 0.015428 -1.217500
v -0.149378 0.030698 -1.217500
v -0.145506 0.045653 -1.217500
v -0.140141 0.060139 -1.217500
v -0.133338 0.074009 -1.217500
v -0.125166 0.087118 -1.217500
v -0.115711 0.099334 -1.217500
v -0.105067 0.110531 -1.217500
v -0.093346 0.120593 -1.217500
v -0.080667 0.129418 -1.217500
v -0.067160 0.136915 -1.217500
v -0.052964 0.143007 -1.217500
v -0.038225 0.147632 -1.217500
v -0.023093 0.150741 -1.217500
v -0.007724 0.152304 -1.217500
v 0.007724 0.152304 -1.217500
v 0.023093 0.150741 -1.217500
v 0.038225 0.147632 -1.217500
v 0.052964 0.143007 -1.217500
v 0.067160 0.136915 -1.217500
v 0.080667 0.129418 -1.217500
v 0.093346 0.120593 -1.217500
v 0.105067 0.110531 -1.217500
v 0.115711 0.099334 -1.217500
v 0.125166 0.087118 -1.217500
v 0.133338 0.074009 -1.217500
v 0.140141 0.060139 -1.217500
v 0.145506 0.045653 -1.217500
v 0.149378 0.030698 -1.217500
v 0.151718 0.015428 -1.217500
v 0.152500 0.000000 -1.217500
v 0.145000 0.000000 -1.217500
v 0.144256 -0.014669 -1.217500
v 0.142032 -0.029188 -1.217500
v 0.138350 -0.043408 -1.217500
v 0.133249 -0.057182 -1.217500
v 0.126780 -0.070369 -1.217500
v 0.119011 -0.082834 -1.217500
v 0.110020 -0.094449 -1.217500
v 0.099900 -0.105095 -1.217500
v 0.088755 -0.114662 -1.217500
v 0.076700 -0.123053 -1.217500
v 0.063857 -0.130182 -1.217500
v 0.050359 -0.135974 -1.217500
v 0.036345 -0.140371 -1.217500
v 0.021957 -0.143328 -1.217500
v 0.007344 -0.144814 -1.217500
v -0.007344 -0.144814 -1.217500
v -0.021957 -0.143328 -1.217500
v -0.036345 -0.140371 -1.217500
v -0.050359 -0.135974 -1.217500
v -0.063857 -0.130182 -1.217500
v -0.076700 -0.123053 -1.217500
v -0.088755 -0.114662 -1.217500
v -0.099900 -0.105095 -1.217500
v -0.110020 -0.094449 -1.217500
v -0.119011 -0.082834 -1.217500
v -0.126780 -0.070369 -1.217500
v -0.133249 -0.057182 -1.217500
v -0.138350 -0.043408 -1.217500
v -0.142032 -0.029188 -1.217500
v -0.144256 -0.014669 -1.217500
v -0.145000 0.000000 -1.217500
v 0.144256 0.014669 -1.217500
v 0.142032 0.029188 -1.217500
v 0.138350 0.043408 -1.217500
v 0.133249 0.057182 -1.217500
v 0.126780 0.070369 -1.217500
v 0.119011 0.082834 -1.217500
v 0.110020 0.094449 -1.217500
v 0.099900 0.105095 -1.217500
v 0.088755 0.114662 -1.217500
v 0.076700 0.123053 -1.217500
v 0.063857 0.130182 -1.217500
v 0.050359 0.135974 -1.217500
v 0.036345 0.140371 -1.217500
v 0.021957 0.143328 -1.217500
v 0.007344 0.144814 -1.217500
v -0.007344 0.144814 -1.217500
v -0.021957 0.143328 -1.217500
v -0.036345 0.140371 -1.217500
v -0.050359 0.135974 -1.217500
v -0.063857 0.130182 -1.217500
v -0.076700 0.123053 -1.217500
v -0.088755 0.114662 -1.217500
v -0.099900 0.105095 -1.217500
v -0.110020 0.094449 -1.217500
v -0.119011 0.082834 -1.217500
v -0.126780 0.070369 -1.217500
v -0.133249 0.057182 -1.217500
v -0.138350 0.043408 -1.217500
v -0.142032 0.029188 -1.217500
v -0.144256 0.014669 -1.217500
v -0.145000 0.000000 -1.217500
v -0.144256 -0.014669 -1.217500
v -0.142032 -0.029188 -1.217500
v -0.138350 -0.043408 -1.217500
v -0.133249 -0.057182 -1.217500
v -0.126780 -0.070369 -1.217500
v -0.119011 -0.082834 -1.217500
v -0.110020 -0.094449 -1.217500
v -0.099900 -0.105095 -1.217500
v -0.088755 -0.114662 -1.217500
v -0.076700 -0.123053 -1.217500
v -0.063857 -0.130182 -1.217500
v -0.050359 -0.135974 -1.217500
v -0.036345 -0.140371 -1.217500
v -0.021957 -0.143328 -1.217500
v -0.007344 -0.144814 -1.217500
v 0.007344 -0.144814 -1.217500
v 0.021957 -0.143328 -1.217500
v 0.036345 -0.140371 -1.217500
v 0.050359 -0.135974 -1.217500
v 0.063857 -0.130182 -1.217500
v 0.076700 -0.123053 -1.217500
v 0.088755 -0.114662 -1.217500
v 0.099900 -0.105095 -1.217500
v 0.110020 -0.094449 -1.217500
v 0.119011 -0.082834 -1.217500
v 0.126780 -0.070369 -1.217500
v 0.133249 -0.057182 -1.217500
v 0.138350 -0.043408 -1.217500
v 0.142032 -0.029188 -1.217500
v 0.144256 -0.014669 -1.217500
v 0.145000 0.000000 -1.217500
f 31 126 32
f 94 1 64
f 1 3 2
f 3 5 4
f 5 7 6
f 7 9 8
f 9 11 10
f 11 13 12
f 13 15 14
f 15 17 16
f 17 19 18
f 19 21 20
f 21 23 22
f 23 25 24
f 25 27 26
f 27 29 28
f 29 31 30
f 31 65 126
f 93 1 94
f 1 5 3
f 5 9 7
f 9 13 11
f 13 17 15
f 17 21 19
f 21 25 23
f 25 29 27
f 29 65 31
f 92 1 93
f 29 66 65
f 92 5 1
f 29 67 66
f 91 5 92
f 29 68 67
f 90 5 91
f 25 68 29
f 89 5 90
f 25 69 68
f 88 5 89
f 25 70 69
f 88 9 5
f 25 71 70
f 87 9 88
f 25 72 71
f 86 9 87
f 21 72 25
f 85 9 86
f 21 73 72
f 84 9 85
f 21 74 73
f 84 13 9
f 21 75 74
f 83 13 84
f 21 76 75
f 82 13 83
f 17 76 21
f 81 13 82
f 17 77 76
f 80 13 81
f 17 78 77
f 80 17 13
f 17 79 78
f 79 17 80
