v -0.187500 0.000000 -3.380000
v -0.186538 -0.018969 -3.380000
v -0.183662 -0.037743 -3.380000
v -0.178901 -0.056131 -3.380000
v -0.172305 -0.073942 -3.380000
v -0.163940 -0.090994 -3.380000
v -0.153893 -0.107113 -3.380000
v -0.142267 -0.122132 -3.380000
v -0.129181 -0.135899 -3.380000
v -0.114770 -0.148270 -3.380000
v -0.099181 -0.159121 -3.380000
v -0.082574 -0.168338 -3.380000
v -0.065120 -0.175829 -3.380000
v -0.046997 -0.181514 -3.380000
v -0.028393 -0.185338 -3.380000
v -0.009497 -0.187259 -3.380000
v 0.009497 -0.187259 -3.380000
v 0.028393 -0.185338 -3.380000
v 0.046997 -0.181514 -3.380000
v 0.065120 -0.175829 -3.380000
v 0.082574 -0.168338 -3.380000
v 0.099181 -0.159121 -3.380000
v 0.114770 -0.148270 -3.380000
v 0.129181 -0.135899 -3.380000
v 0.142267 -0.122132 -3.380000
v 0.153893 -0.107113 -3.380000
v 0.163940 -0.090994 -3.380000
v 0.172305 -0.073942 -3.380000
v 0.178901 -0.056131 -3.380000
v 0.183662 -0.037743 -3.380000
v 0.186538 -0.018969 -3.380000
v 0.187500 0.000000 -3.380000
v -0.187500 0.000000 -2.580000
v -0.186538 -0.018969 -2.580000
v -0.183662 -0.037743 -2.580000
v -0.178901 -0.056131 -2.580000
v -0.172305 -0.073942 -2.580000
v -0.163940 -0.090994 -2.580000
v -0.153893 -0.107113 -2.580000
v -0.142267 -0.122132 -2.580000
v -0.129181 -0.135899 -2.580000
v -0.114770 -0.148270 -2.580000
v -0.099181 -0.159121 -2.580000
v -0.082574 -0.168338 -2.580000
v -0.065120 -0.175829 -2.580000
v -0.046997 -0.181514 -2.580000
v -0.028393 -0.185338 -2.580000
v -0.009497 -0.187259 -2.580000
v 0.009497 -0.187259 -2.580000
v 0.028393 -0.185338 -2.580000
v 0.046997 -0.181514 -2.580000
v 0.065120 -0.175829 -2.580000
v 0.082574 -0.168338 -2.580000
v 0.099181 -0.159121 -2.580000
v 0.114770 -0.148270 -2.580000
v 0.129181 -0.135899 -2.580000
v 0.142267 -0.122132 -2.580000
v 0.153893 -0.107113 -2.580000
v 0.163940 -0.090994 -2.580000
v 0.172305 -0.073942 -2.580000
v 0.178901 -0.056131 -2.580000
v 0.183662 -0.037743 -2.580000
v 0.186538 -0.018969 -2.580000
v 0.187500 0.000000 -2.580000
f 1 2 34
f 1 34 33
f 2 3 35
f 2 35 34
f 3 4 36
f 3 36 35
f 4 5 37
f 4 37 36
f 5 6 38
f 5 38 37
f 6 7 39
f 6 39 38
f 7 8 40
f 7 40 39
f 8 9 41
f 8 41 40
f 9 10 42
f 9 42 41
f 10 11 43
f 10 43 42
f 11 12 44
f 11 44 43
f 12 13 45
f 12 45 44
f 13 14 46
f 13 46 45
f 14 15 47
f 14 47 46
f 15 16 48
f 15 48 47
f 16 17 49
f 16 49 48
f 17 18 50
f 17 50 49
f 18 19 51
f 18 51 50
f 19 20 52
f 19 52 51
f 20 21 53
f 20 53 52
f 21 22 54
f 21 54 53
f 22 23 55
f 22 55 54
f 23 24 56
f 23 56 55
f 24 25 57
f 24 57 56
f 25 26 58
f 25 58 57
f 26 27 59
f 26 59 58
f 27 28 60
f 27 60 59
f 28 29 61
f 28 61 60
f 29 30 62
f 29 62 61
f 30 31 63
f 30 63 62
f 31 32 64
f 31 64 63
