v 0.285000 -1.072254 -5.698397
v 0.285000 -1.124068 -5.698397
v 0.285000 -1.130679 -5.672275
v 0.285000 -1.136684 -5.646007
v 0.285000 -1.142078 -5.619607
v 0.285000 -1.146859 -5.593088
v 0.285000 -1.151025 -5.566466
v 0.285000 -1.154572 -5.539755
v 0.285000 -1.157500 -5.512969
v 0.285000 -1.159807 -5.486122
v 0.285000 -1.161491 -5.459229
v 0.285000 -1.162551 -5.432304
v 0.285000 -1.162988 -5.405362
v 0.285000 -1.162800 -5.378416
v 0.285000 -1.161988 -5.351483
v 0.285000 -1.160552 -5.324575
v 0.285000 -1.158493 -5.297708
v 0.285000 -1.155812 -5.270896
v 0.285000 -1.152511 -5.244153
v 0.285000 -1.148591 -5.217494
v 0.285000 -1.144054 -5.190933
v 0.285000 -1.138903 -5.164484
v 0.285000 -1.133141 -5.138161
v 0.285000 -1.126771 -5.111979
v 0.285000 -1.119796 -5.085952
v 0.285000 -1.112220 -5.060093
v 0.285000 -1.104046 -5.034417
v 0.285000 -1.095280 -5.008937
v 0.285000 -1.085926 -4.983666
v 0.285000 -1.075989 -4.958620
v 0.285000 -1.065475 -4.933810
v 0.285000 -1.054388 -4.909251
v 0.285000 -1.042735 -4.884955
v 0.285000 -1.030523 -4.860935
v 0.285000 -1.017758 -4.837205
v 0.285000 -1.004446 -4.813777
v 0.285000 -0.990595 -4.790664
v 0.285000 -0.976212 -4.767877
v 0.285000 -0.961305 -4.745430
v 0.285000 -0.945882 -4.723335
v 0.285000 -0.929952 -4.701603
v 0.285000 -0.866608 -4.701603
v 0.285000 -0.883357 -4.722912
v 0.285000 -0.899583 -4.744622
v 0.285000 -0.915275 -4.766722
v 0.285000 -0.930424 -4.789196
v 0.285000 -0.945021 -4.812033
v 0.285000 -0.959058 -4.835219
v 0.285000 -0.972526 -4.858740
v 0.285000 -0.985417 -4.882581
v 0.285000 -0.997724 -4.906730
v 0.285000 -1.009440 -4.931171
v 0.285000 -1.020556 -4.955890
v 0.285000 -1.031068 -4.980872
v 0.285000 -1.040968 -5.006103
v 0.285000 -1.050251 -5.031568
v 0.285000 -1.058911 -5.057251
v 0.285000 -1.066943 -5.083137
v 0.285000 -1.074342 -5.109211
v 0.285000 -1.081104 -5.135458
v 0.285000 -1.087225 -5.161861
v 0.285000 -1.092702 -5.188406
v 0.285000 -1.097530 -5.215076
v 0.285000 -1.101707 -5.241856
v 0.285000 -1.105232 -5.268729
v 0.285000 -1.108100 -5.295681
v 0.285000 -1.110312 -5.322694
v 0.285000 -1.111865 -5.349753
v 0.285000 -1.112759 -5.376842
v 0.285000 -1.112993 -5.403945
v 0.285000 -1.112567 -5.431045
v 0.285000 -1.111481 -5.458127
v 0.285000 -1.109736 -5.485175
v 0.285000 -1.107333 -5.512172
v 0.285000 -1.104273 -5.539102
v 0.285000 -1.100559 -5.565950
v 0.285000 -1.096192 -5.592700
v 0.285000 -1.091174 -5.619335
v 0.285000 -1.085510 -5.645840
v 0.285000 -1.079202 -5.672199
f 2 3 1
f 3 80 1
f 3 4 80
f 4 79 80
f 4 5 79
f 5 78 79
f 5 6 78
f 6 77 78
f 6 7 77
f 7 76 77
f 7 8 76
f 8 75 76
f 8 9 75
f 9 74 75
f 9 10 74
f 10 73 74
f 10 11 73
f 11 72 73
f 11 12 72
f 12 71 72
f 12 13 71
f 13 70 71
f 13 14 70
f 14 69 70
f 14 15 69
f 15 68 69
f 15 16 68
f 16 67 68
f 16 17 67
f 17 66 67
f 17 18 66
f 18 65 66
f 18 19 65
f 19 64 65
f 19 20 64
f 20 63 64
f 20 21 63
f 21 62 63
f 21 22 62
f 22 61 62
f 22 23 61
f 23 60 61
f 23 24 60
f 24 59 60
f 24 25 59
f 25 58 59
f 25 26 58
f 26 57 58
f 26 27 57
f 27 56 57
f 27 28 56
f 28 55 56
f 28 29 55
f 29 54 55
f 29 30 54
f 30 53 54
f 30 31 53
f 31 52 53
f 31 32 52
f 32 51 52
f 32 33 51
f 33 50 51
f 33 34 50
f 34 49 50
f 34 35 49
f 35 48 49
f 35 36 48
f 36 47 48
f 36 37 47
f 37 46 47
f 37 38 46
f 38 45 46
f 38 39 45
f 39 44 45
f 39 40 44
f 40 43 44
f 40 41 43
f 41 42 43
