v 1.155000 0.804753 -6.548942
v 1.155000 0.804426 -6.549947
v 1.155000 0.804082 -6.550938
v 1.155000 0.803723 -6.551916
v 1.155000 0.803347 -6.552880
v 1.155000 0.802956 -6.553831
v 1.155000 0.802548 -6.554769
v 1.155000 0.802124 -6.555694
v 1.155000 0.801683 -6.556607
v 1.155000 0.801227 -6.557507
v 1.155000 0.800754 -6.558394
v 1.155000 0.800265 -6.559270
v 1.155000 0.799760 -6.560134
v 1.155000 0.799239 -6.560986
v 1.155000 0.798701 -6.561826
v 1.155000 0.798147 -6.562655
v 1.155000 0.797577 -6.563473
v 1.155000 0.796991 -6.564279
v 1.155000 0.796388 -6.565076
v 1.155000 0.795769 -6.565861
v 1.155000 0.795134 -6.566636
v 1.155000 0.794484 -6.567399
v 1.155000 0.793819 -6.568151
v 1.155000 0.793139 -6.568890
v 1.155000 0.792445 -6.569617
v 1.155000 0.791738 -6.570332
v 1.155000 0.791018 -6.571033
v 1.155000 0.790286 -6.571720
v 1.155000 0.789541 -6.572393
v 1.155000 0.788785 -6.573052
v 1.155000 0.788019 -6.573696
v 1.155000 0.787241 -6.574324
v 1.155000 0.786454 -6.574936
v 1.155000 0.785657 -6.575533
v 1.155000 0.784852 -6.576112
v 1.155000 0.784038 -6.576675
v 1.155000 0.783216 -6.577220
v 1.155000 0.782386 -6.577748
v 1.155000 0.781550 -6.578257
v 1.155000 0.780706 -6.578748
v 1.155000 0.779854 -6.579222
v 1.155000 0.778995 -6.579677
v 1.155000 0.778128 -6.580114
v 1.155000 0.777253 -6.580534
v 1.155000 0.776369 -6.580935
v 1.155000 0.775477 -6.581319
v 1.155000 0.774576 -6.581686
v 1.155000 0.773667 -6.582034
v 1.155000 0.772749 -6.582365
v 1.155000 0.771821 -6.582678
v 1.155000 0.770884 -6.582974
v 1.155000 0.769937 -6.583253
v 1.155000 0.768981 -6.583513
v 1.155000 0.768014 -6.583757
v 1.155000 0.767038 -6.583983
v 1.155000 0.766051 -6.584192
v 1.155000 0.763931 -6.584620
v 1.155000 0.761810 -6.585046
v 1.155000 0.759689 -6.585471
v 1.155000 0.757568 -6.585895
v 1.155000 0.755446 -6.586318
v 1.155000 0.753325 -6.586740
v 1.155000 0.751203 -6.587161
v 1.155000 0.749080 -6.587580
v 1.155000 0.746958 -6.587998
v 1.155000 0.744835 -6.588415
v 1.155000 0.742712 -6.588831
v 1.155000 0.740588 -6.589246
v 1.155000 0.738465 -6.589659
v 1.155000 0.736341 -6.590072
v 1.155000 0.734217 -6.590483
v 1.155000 0.732092 -6.590893
v 1.155000 0.729968 -6.591302
v 1.155000 0.727843 -6.591709
v 1.155000 0.725717 -6.592115
v 1.155000 0.723592 -6.592521
v 1.155000 0.721466 -6.592925
v 1.155000 0.719340 -6.593327
v 1.155000 0.717213 -6.593729
v 1.155000 0.715087 -6.594129
v 1.155000 0.712960 -6.594528
v 1.155000 0.710833 -6.594926
v 1.155000 0.708705 -6.595323
v 1.155000 0.706578 -6.595719
v 1.155000 0.704450 -6.596113
v 1.155000 0.702321 -6.596506
v 1.155000 0.700193 -6.596898
v 1.155000 0.698064 -6.597289
v 1.155000 0.695935 -6.597679
v 1.155000 0.693806 -6.598067
v 1.155000 0.691676 -6.598454
v 1.155000 0.689547 -6.598841
v 1.155000 0.687417 -6.599225
v 1.155000 0.685286 -6.599609
v 1.155000 0.683156 -6.599992
v 1.155000 0.681025 -6.600373
v 1.155000 0.678894 -6.600753
v 1.155000 0.676763 -6.601132
v 1.155000 0.674631 -6.601510
v 1.155000 0.672500 -6.601887
v 1.155000 0.670368 -6.602262
v 1.155000 0.668236 -6.602636
v 1.155000 0.666103 -6.603009
v 1.155000 0.663970 -6.603381
v 1.155000 0.661837 -6.603752
v 1.155000 0.659704 -6.604121
v 1.155000 0.657571 -6.604490
v 1.155000 0.655437 -6.604857
v 1.155000 0.653303 -6.605223
v 1.155000 0.651169 -6.605587
v 1.155000 0.649034 -6.605951
v 1.155000 0.691873 -6.363000
v 1.155000 0.863380 -6.363000
f 1 2 3
f 1 3 4
f 1 4 5
f 1 5 6
f 1 6 7
f 1 7 8
f 1 8 9
f 1 9 10
f 1 10 11
f 1 11 12
f 1 12 13
f 1 13 14
f 1 14 15
f 1 15 16
f 1 16 17
f 1 17 18
f 1 18 19
f 1 19 20
f 1 20 21
f 1 21 22
f 1 22 23
f 1 23 24
f 1 24 25
f 1 25 26
f 1 26 27
f 1 27 28
f 1 28 29
f 1 29 30
f 1 30 31
f 1 31 32
f 1 32 33
f 1 33 34
f 1 34 35
f 1 35 36
f 1 36 37
f 1 37 38
f 1 38 39
f 1 39 40
f 1 40 41
f 1 41 42
f 1 42 43
f 1 43 44
f 1 44 45
f 1 45 46
f 1 46 47
f 1 47 48
f 1 48 49
f 1 49 50
f 1 50 51
f 1 51 52
f 1 52 53
f 1 53 54
f 1 54 55
f 1 55 56
f 1 56 57
f 1 57 58
f 1 58 59
f 1 59 60
f 1 60 61
f 1 61 62
f 1 62 63
f 1 63 64
f 1 64 65
f 1 65 66
f 1 66 67
f 1 67 68
f 1 68 69
f 1 69 70
f 1 70 71
f 1 71 72
f 1 72 73
f 1 73 74
f 1 74 75
f 1 75 76
f 1 76 77
f 1 77 78
f 1 78 79
f 1 79 80
f 1 80 81
f 1 81 82
f 1 82 83
f 1 83 84
f 1 84 85
f 1 85 86
f 1 86 87
f 1 87 88
f 1 88 89
f 1 89 90
f 1 90 91
f 1 91 92
f 1 92 93
f 1 93 94
f 1 94 95
f 1 95 96
f 1 96 97
f 1 97 98
f 1 98 99
f 1 99 100
f 1 100 101
f 1 101 102
f 1 102 103
f 1 103 104
f 1 104 105
f 1 105 106
f 1 106 107
f 1 107 108
f 1 108 109
f 1 109 110
f 1 110 111
f 1 111 112
f 1 112 113
