v 0.000000 0.686000 -0.750000
v -0.019256 0.685730 -0.750607
v -0.038546 0.684918 -0.751042
v -0.057857 0.683559 -0.751321
v -0.077179 0.681648 -0.751461
v -0.096499 0.679181 -0.751478
v -0.115804 0.676153 -0.751389
v -0.135074 0.672564 -0.751217
v -0.154277 0.668418 -0.750994
v -0.173385 0.663720 -0.750750
v -0.192367 0.658473 -0.750518
v -0.211192 0.652682 -0.750328
v -0.229832 0.646352 -0.750204
v -0.248267 0.639494 -0.750141
v -0.266477 0.632120 -0.750127
v -0.284445 0.624241 -0.750150
v -0.302152 0.615870 -0.750198
v -0.319579 0.607018 -0.750258
v -0.336720 0.597688 -0.750319
v -0.353577 0.587878 -0.750373
v -0.370154 0.577583 -0.750410
v -0.386454 0.566799 -0.750422
v -0.402482 0.555522 -0.750399
v -0.418235 0.543751 -0.750337
v -0.433694 0.531498 -0.750250
v -0.448832 0.518780 -0.750154
v -0.463623 0.505610 -0.750069
v -0.478043 0.492006 -0.750012
v -0.492065 0.477982 -0.750001
v -0.505669 0.463560 -0.750035
v -0.518838 0.448764 -0.750099
v -0.531557 0.433622 -0.750174
v -0.543810 0.418158 -0.750243
v -0.555581 0.402400 -0.750289
v -0.566858 0.386367 -0.750299
v -0.577641 0.370062 -0.750279
v -0.587935 0.353482 -0.750238
v -0.597742 0.336623 -0.750187
v -0.607068 0.319482 -0.750137
v -0.615917 0.302057 -0.750097
v -0.624283 0.284355 -0.750073
v -0.632156 0.266393 -0.750063
v -0.639524 0.248190 -0.750065
v -0.646377 0.229764 -0.750080
v -0.652701 0.211134 -0.750106
v -0.658487 0.192318 -0.750140
v -0.663730 0.173346 -0.750177
v -0.668425 0.154247 -0.750210
v -0.672568 0.135052 -0.750231
v -0.676155 0.115791 -0.750234
v -0.679181 0.096494 -0.750212
v -0.681648 0.077181 -0.750168
v -0.683559 0.057863 -0.750112
v -0.684918 0.038553 -0.750058
v -0.685730 0.019262 -0.750016
v -0.686000 0.000000 -0.750000
v 0.000000 0.686000 -0.625739
v -0.019256 0.685730 -0.625739
v -0.038545 0.684916 -0.625739
v -0.057857 0.683556 -0.625739
v -0.077179 0.681645 -0.625739
v -0.096499 0.679179 -0.625739
v -0.115805 0.676155 -0.625739
v -0.135075 0.672570 -0.625739
v -0.154279 0.668426 -0.625739
v -0.173387 0.663727 -0.625739
v -0.192368 0.658476 -0.625739
v -0.211192 0.652682 -0.625739
v -0.229833 0.646354 -0.625739
v -0.248269 0.639499 -0.625739
v -0.266480 0.632127 -0.625739
v -0.284448 0.624248 -0.625739
v -0.302153 0.615873 -0.625739
v -0.319578 0.607014 -0.625739
v -0.336714 0.597678 -0.625739
v -0.353569 0.587865 -0.625739
v -0.370146 0.577571 -0.625739
v -0.386449 0.566792 -0.625739
v -0.402482 0.555522 -0.625739
v -0.418240 0.543757 -0.625739
v -0.433701 0.531507 -0.625739
v -0.448838 0.518787 -0.625739
v -0.463627 0.505614 -0.625739
v -0.478044 0.492007 -0.625739
v -0.492066 0.477983 -0.625739
v -0.505673 0.463563 -0.625739
v -0.518846 0.448771 -0.625739
v -0.531566 0.433629 -0.625739
v -0.543816 0.418163 -0.625739
v -0.555581 0.402400 -0.625739
v -0.566851 0.386362 -0.625739
v -0.577629 0.370055 -0.625739
v -0.587922 0.353474 -0.625739
v -0.597733 0.336618 -0.625739
v -0.607065 0.319481 -0.625739
v -0.615919 0.302059 -0.625739
v -0.624289 0.284358 -0.625739
v -0.632162 0.266396 -0.625739
v -0.639529 0.248192 -0.625739
v -0.646378 0.229765 -0.625739
v -0.652701 0.211134 -0.625739
v -0.658490 0.192319 -0.625739
v -0.663737 0.173347 -0.625739
v -0.668433 0.154249 -0.625739
v -0.672575 0.135053 -0.625739
v -0.676157 0.115791 -0.625739
v -0.679180 0.096493 -0.625739
v -0.681645 0.077180 -0.625739
v -0.683555 0.057863 -0.625739
v -0.684916 0.038553 -0.625739
v -0.685730 0.019262 -0.625739
v -0.686000 0.000000 -0.625739
v 0.000000 0.686000 -0.500000
v -0.019256 0.685730 -0.500000
v -0.038545 0.684916 -0.500000
v -0.057857 0.683556 -0.500000
v -0.077179 0.681645 -0.500000
v -0.096499 0.679179 -0.500000
v -0.115805 0.676155 -0.500000
v -0.135075 0.672570 -0.500000
v -0.154279 0.668426 -0.500000
v -0.173387 0.663727 -0.500000
v -0.192368 0.658476 -0.500000
v -0.211192 0.652682 -0.500000
v -0.229833 0.646354 -0.500000
v -0.248269 0.639499 -0.500000
v -0.266480 0.632127 -0.500000
v -0.284448 0.624248 -0.500000
v -0.302153 0.615873 -0.500000
v -0.319578 0.607014 -0.500000
v -0.336714 0.597678 -0.500000
v -0.353569 0.587865 -0.500000
v -0.370146 0.577571 -0.500000
v -0.386449 0.566792 -0.500000
v -0.402482 0.555522 -0.500000
v -0.418240 0.543757 -0.500000
v -0.433701 0.531507 -0.500000
v -0.448838 0.518787 -0.500000
v -0.463627 0.505614 -0.500000
v -0.478044 0.492007 -0.500000
v -0.492066 0.477983 -0.500000
v -0.505673 0.463563 -0.500000
v -0.518846 0.448771 -0.500000
v -0.531566 0.433629 -0.500000
v -0.543816 0.418163 -0.500000
v -0.555581 0.402400 -0.500000
v -0.566851 0.386362 -0.500000
v -0.577629 0.370055 -0.500000
v -0.587922 0.353474 -0.500000
v -0.597733 0.336618 -0.500000
v -0.607065 0.319481 -0.500000
v -0.615919 0.302059 -0.500000
v -0.624289 0.284358 -0.500000
v -0.632162 0.266396 -0.500000
v -0.639529 0.248192 -0.500000
v -0.646378 0.229765 -0.500000
v -0.652701 0.211134 -0.500000
v -0.658490 0.192319 -0.500000
v -0.663737 0.173347 -0.500000
v -0.668433 0.154249 -0.500000
v -0.672575 0.135053 -0.500000
v -0.676157 0.115791 -0.500000
v -0.679180 0.096493 -0.500000
v -0.681645 0.077180 -0.500000
v -0.683555 0.057863 -0.500000
v -0.684916 0.038553 -0.500000
v -0.685730 0.019262 -0.500000
v -0.686000 0.000000 -0.500000
f 1 2 58
f 1 58 57
f 2 3 59
f 2 59 58
f 3 4 60
f 3 60 59
f 4 5 61
f 4 61 60
f 5 6 62
f 5 62 61
f 6 7 63
f 6 63 62
f 7 8 64
f 7 64 63
f 8 9 65
f 8 65 64
f 9 10 66
f 9 66 65
f 10 11 67
f 10 67 66
f 11 12 68
f 11 68 67
f 12 13 69
f 12 69 68
f 13 14 70
f 13 70 69
f 14 15 71
f 14 71 70
f 15 16 72
f 15 72 71
f 16 17 73
f 16 73 72
f 17 18 74
f 17 74 73
f 18 19 75
f 18 75 74
f 19 20 76
f 19 76 75
f 20 21 77
f 20 77 76
f 21 22 78
f 21 78 77
f 22 23 79
f 22 79 78
f 23 24 80
f 23 80 79
f 24 25 81
f 24 81 80
f 25 26 82
f 25 82 81
f 26 27 83
f 26 83 82
f 27 28 84
f 27 84 83
f 28 29 85
f 28 85 84
f 29 30 86
f 29 86 85
f 30 31 87
f 30 87 86
f 31 32 88
f 31 88 87
f 32 33 89
f 32 89 88
f 33 34 90
f 33 90 89
f 34 35 91
f 34 91 90
f 35 36 92
f 35 92 91
f 36 37 93
f 36 93 92
f 37 38 94
f 37 94 93
f 38 39 95
f 38 95 94
f 39 40 96
f 39 96 95
f 40 41 97
f 40 97 96
f 41 42 98
f 41 98 97
f 42 43 99
f 42 99 98
f 43 44 100
f 43 100 99
f 44 45 101
f 44 101 100
f 45 46 102
f 45 102 101
f 46 47 103
f 46 103 102
f 47 48 104
f 47 104 103
f 48 49 105
f 48 105 104
f 49 50 106
f 49 106 105
f 50 51 107
f 50 107 106
f 51 52 108
f 51 108 107
f 52 53 109
f 52 109 108
f 53 54 110
f 53 110 109
f 54 55 111
f 54 111 110
f 55 56 112
f 55 112 111
f 57 58 114
f 57 114 113
f 58 59 115
f 58 115 114
f 59 60 116
f 59 116 115
f 60 61 117
f 60 117 116
f 61 62 118
f 61 118 117
f 62 63 119
f 62 119 118
f 63 64 120
f 63 120 119
f 64 65 121
f 64 121 120
f 65 66 122
f 65 122 121
f 66 67 123
f 66 123 122
f 67 68 124
f 67 124 123
f 68 69 125
f 68 125 124
f 69 70 126
f 69 126 125
f 70 71 127
f 70 127 126
f 71 72 128
f 71 128 127
f 72 73 129
f 72 129 128
f 73 74 130
f 73 130 129
f 74 75 131
f 74 131 130
f 75 76 132
f 75 132 131
f 76 77 133
f 76 133 132
f 77 78 134
f 77 134 133
f 78 79 135
f 78 135 134
f 79 80 136
f 79 136 135
f 80 81 137
f 80 137 136
f 81 82 138
f 81 138 137
f 82 83 139
f 82 139 138
f 83 84 140
f 83 140 139
f 84 85 141
f 84 141 140
f 85 86 142
f 85 142 141
f 86 87 143
f 86 143 142
f 87 88 144
f 87 144 143
f 88 89 145
f 88 145 144
f 89 90 146
f 89 146 145
f 90 91 147
f 90 147 146
f 91 92 148
f 91 148 147
f 92 93 149
f 92 149 148
f 93 94 150
f 93 150 149
f 94 95 151
f 94 151 150
f 95 96 152
f 95 152 151
f 96 97 153
f 96 153 152
f 97 98 154
f 97 154 153
f 98 99 155
f 98 155 154
f 99 100 156
f 99 156 155
f 100 101 157
f 100 157 156
f 101 102 158
f 101 158 157
f 102 103 159
f 102 159 158
f 103 104 160
f 103 160 159
f 104 105 161
f 104 161 160
f 105 106 162
f 105 162 161
f 106 107 163
f 106 163 162
f 107 108 164
f 107 164 163
f 108 109 165
f 108 165 164
f 109 110 166
f 109 166 165
f 110 111 167
f 110 167 166
f 111 112 168
f 111 168 167
