v 0.720352 0.220000 0.104692
v 0.671843 0.220000 0.082072
v 0.666127 0.220000 0.071935
v 0.666127 0.010000 0.071935
v 0.671843 0.016837 0.082072
v 0.671724 0.016713 0.082017
v 0.671605 0.016588 0.081961
v 0.671486 0.016463 0.081906
v 0.671367 0.016338 0.081850
v 0.671248 0.016214 0.081795
v 0.671129 0.016089 0.081739
v 0.671011 0.015964 0.081684
v 0.670892 0.015839 0.081629
v 0.670773 0.015715 0.081573
v 0.670654 0.015590 0.081518
v 0.670535 0.015465 0.081462
v 0.670416 0.015341 0.081407
v 0.670298 0.015216 0.081351
v 0.670179 0.015092 0.081296
v 0.670060 0.014967 0.081241
v 0.669941 0.014842 0.081185
v 0.669823 0.014718 0.081130
v 0.669704 0.014593 0.081075
v 0.669585 0.014469 0.081019
v 0.669466 0.014344 0.080964
v 0.669348 0.014220 0.080909
v 0.669229 0.014096 0.080853
v 0.669110 0.013971 0.080798
v 0.668992 0.013847 0.080743
v 0.668873 0.013722 0.080687
v 0.668755 0.013598 0.080632
v 0.668636 0.013474 0.080577
v 0.668518 0.013349 0.080521
v 0.668399 0.013225 0.080466
v 0.668280 0.013101 0.080411
v 0.668162 0.012977 0.080356
v 0.668043 0.012852 0.080300
v 0.667925 0.012728 0.080245
v 0.667807 0.012604 0.080190
v 0.667688 0.012480 0.080135
v 0.667570 0.012356 0.080079
v 0.667451 0.012231 0.080024
v 0.667333 0.012107 0.079969
v 0.667214 0.011983 0.079914
v 0.667096 0.011859 0.079859
v 0.666978 0.011735 0.079803
v 0.666859 0.011611 0.079748
v 0.666741 0.011487 0.079693
v 0.666623 0.011363 0.079638
v 0.666505 0.011239 0.079583
v 0.666386 0.011115 0.079528
v 0.666268 0.010991 0.079472
v 0.666150 0.010867 0.079417
v 0.666032 0.010743 0.079362
v 0.665913 0.010619 0.079307
v 0.665795 0.010495 0.079252
v 0.665677 0.010371 0.079197
v 0.665559 0.010248 0.079142
v 0.665441 0.010124 0.079087
v 0.665322 0.010000 0.079032
v 0.665322 0.000000 0.079032
v 0.720352 0.000000 0.104692
v 0.725974 0.000000 0.115492
v 0.725974 0.220000 0.115492
f 2 3 4
f 1 2 4
f 64 1 4
f 64 4 5
f 59 60 61
f 58 59 61
f 57 58 61
f 56 57 61
f 55 56 61
f 54 55 61
f 53 54 61
f 52 53 61
f 51 52 61
f 50 51 61
f 49 50 61
f 48 49 61
f 47 48 61
f 46 47 61
f 45 46 61
f 44 45 61
f 43 44 61
f 42 43 61
f 41 42 61
f 40 41 61
f 39 40 61
f 38 39 61
f 37 38 61
f 36 37 61
f 35 36 61
f 34 35 61
f 33 34 61
f 32 33 61
f 31 32 61
f 30 31 61
f 29 30 61
f 28 29 61
f 27 28 61
f 26 27 61
f 25 26 61
f 24 25 61
f 23 24 61
f 22 23 61
f 21 22 61
f 20 21 61
f 19 20 61
f 18 19 61
f 17 18 61
f 16 17 61
f 15 16 61
f 14 15 61
f 13 14 61
f 12 13 61
f 11 12 61
f 10 11 61
f 9 10 61
f 8 9 61
f 7 8 61
f 6 7 61
f 5 6 61
f 5 61 62
f 64 5 62
f 62 63 64
