v -2.637500 -0.350000 -6.388000
v -2.637752 -0.627840 -6.378972
v -2.637500 -0.613535 -6.388000
v -2.638334 -0.350000 -6.371560
v -2.638504 -0.641640 -6.369983
v -2.639752 -0.654941 -6.361052
v -2.640826 -0.350000 -6.355289
v -2.641493 -0.667750 -6.352197
v -2.643724 -0.680073 -6.343437
v -2.644952 -0.350000 -6.339353
v -2.646452 -0.691922 -6.334782
v -2.649685 -0.703310 -6.326244
v -2.650669 -0.350000 -6.323917
v -2.653430 -0.714246 -6.317835
v -2.657688 -0.724730 -6.309576
v -2.657919 -0.350000 -6.309138
v -2.662436 -0.734727 -6.301519
v -2.666626 -0.350000 -6.295169
v -2.667651 -0.744195 -6.293721
v -2.673308 -0.753094 -6.286239
v -2.676702 -0.350000 -6.282152
v -2.679379 -0.761397 -6.279118
v -2.685826 -0.769106 -6.272381
v -2.688043 -0.350000 -6.270221
v -2.692611 -0.776226 -6.266051
v -2.699697 -0.782764 -6.260145
v -2.700533 -0.350000 -6.259499
v -2.707064 -0.788731 -6.254678
v -2.714043 -0.350000 -6.250095
v -2.714725 -0.794148 -6.249647
v -2.722698 -0.799037 -6.245051
v -2.728436 -0.350000 -6.242107
v -2.730999 -0.803418 -6.240885
v -2.739610 -0.807296 -6.237162
v -2.743563 -0.350000 -6.235615
v -2.748464 -0.810653 -6.233913
v -2.757488 -0.813466 -6.231169
v -2.759269 -0.350000 -6.230687
v -2.766613 -0.815715 -6.228962
v -2.775393 -0.350000 -6.227374
v -2.775789 -0.817396 -6.227306
v -2.784996 -0.818524 -6.226191
v -2.791770 -0.350000 -6.225709
v -2.794214 -0.819115 -6.225603
v -2.803426 -0.819185 -6.225533
v -2.808230 -0.350000 -6.225709
v -2.812620 -0.818735 -6.225980
v -2.821794 -0.817751 -6.226955
v -2.824607 -0.350000 -6.227374
v -2.830947 -0.816217 -6.228468
v -2.840075 -0.814119 -6.230529
v -2.840731 -0.350000 -6.230687
v -2.849137 -0.811457 -6.233131
v -2.856437 -0.350000 -6.235615
v -2.858062 -0.808242 -6.236250
v -2.866780 -0.804487 -6.239863
v -2.871564 -0.350000 -6.242107
v -2.875221 -0.800202 -6.243947
v -2.883360 -0.795383 -6.248491
v -2.885957 -0.350000 -6.250095
v -2.891199 -0.790017 -6.253489
v -2.898742 -0.784089 -6.258938
v -2.899467 -0.350000 -6.259499
v -2.905990 -0.777586 -6.264830
v -2.911957 -0.350000 -6.270221
v -2.912921 -0.770496 -6.271153
v -2.919504 -0.762813 -6.277889
v -2.923298 -0.350000 -6.282152
v -2.925704 -0.754526 -6.285020
v -2.931489 -0.745631 -6.292525
v -2.933374 -0.350000 -6.295169
v -2.936832 -0.736147 -6.300362
v -2.941706 -0.726105 -6.308480
v -2.942081 -0.350000 -6.309138
v -2.946085 -0.715537 -6.316829
v -2.949331 -0.350000 -6.323917
v -2.949945 -0.704470 -6.325361
v -2.953284 -0.692916 -6.334043
v -2.955048 -0.350000 -6.339353
v -2.956103 -0.680883 -6.342850
v -2.958407 -0.668375 -6.351758
v -2.959174 -0.350000 -6.355289
v -2.960198 -0.655396 -6.360742
v -2.961477 -0.641938 -6.369787
v -2.961666 -0.350000 -6.371560
v -2.962244 -0.627988 -6.378877
v -2.962500 -0.350000 -6.388000
v -2.962500 -0.613535 -6.388000
f 1 3 2
f 1 2 4
f 4 2 5
f 4 5 6
f 4 6 7
f 7 6 8
f 7 8 9
f 7 9 10
f 10 9 11
f 10 11 12
f 10 12 13
f 13 12 14
f 13 14 15
f 13 15 16
f 16 15 17
f 16 17 18
f 18 17 19
f 18 19 20
f 18 20 21
f 21 20 22
f 21 22 23
f 21 23 24
f 24 23 25
f 24 25 26
f 24 26 27
f 27 26 28
f 27 28 29
f 29 28 30
f 29 30 31
f 29 31 32
f 32 31 33
f 32 33 34
f 32 34 35
f 35 34 36
f 35 36 37
f 35 37 38
f 38 37 39
f 38 39 40
f 40 39 41
f 40 41 42
f 40 42 43
f 43 42 44
f 43 44 45
f 43 45 46
f 46 45 47
f 46 47 48
f 46 48 49
f 49 48 50
f 49 50 51
f 49 51 52
f 52 51 53
f 52 53 54
f 54 53 55
f 54 55 56
f 54 56 57
f 57 56 58
f 57 58 59
f 57 59 60
f 60 59 61
f 60 61 62
f 60 62 63
f 63 62 64
f 63 64 65
f 65 64 66
f 65 66 67
f 65 67 68
f 68 67 69
f 68 69 70
f 68 70 71
f 71 70 72
f 71 72 73
f 71 73 74
f 74 73 75
f 74 75 76
f 76 75 77
f 76 77 78
f 76 78 79
f 79 78 80
f 79 80 81
f 79 81 82
f 82 81 83
f 82 83 84
f 82 84 85
f 85 84 86
f 85 86 87
f 87 86 88
