v 0.855000 0.332409 -6.673988
v 0.855364 0.332410 -6.673988
v 0.855000 0.425572 -6.145635
v 0.855728 0.332410 -6.673988
v 0.856092 0.332411 -6.673988
v 0.856456 0.332413 -6.673988
v 0.856819 0.332415 -6.673988
v 0.857183 0.332418 -6.673988
v 0.857547 0.332420 -6.673987
v 0.857911 0.332424 -6.673987
v 0.858275 0.332428 -6.673987
v 0.858639 0.332432 -6.673986
v 0.859003 0.332437 -6.673986
v 0.859367 0.332442 -6.673986
v 0.859730 0.332448 -6.673985
v 0.860094 0.332454 -6.673985
v 0.860458 0.332461 -6.673984
v 0.860822 0.332468 -6.673983
v 0.861186 0.332475 -6.673983
v 0.861550 0.332483 -6.673982
v 0.861913 0.332491 -6.673981
v 0.862277 0.332500 -6.673981
v 0.862516 0.425657 -6.145704
v 0.862641 0.332510 -6.673980
v 0.863005 0.332519 -6.673979
v 0.863369 0.332530 -6.673978
v 0.863732 0.332540 -6.673977
v 0.864096 0.332551 -6.673976
v 0.864460 0.332563 -6.673975
v 0.864823 0.332575 -6.673974
v 0.865187 0.332588 -6.673973
v 0.865551 0.332601 -6.673972
v 0.865915 0.332614 -6.673971
v 0.866278 0.332628 -6.673970
v 0.866642 0.332642 -6.673969
v 0.867005 0.332657 -6.673967
v 0.867369 0.332672 -6.673966
v 0.867733 0.332688 -6.673965
v 0.868096 0.332704 -6.673963
v 0.868460 0.332721 -6.673962
v 0.868823 0.332738 -6.673961
v 0.869187 0.332755 -6.673959
v 0.869550 0.332773 -6.673958
v 0.869914 0.332792 -6.673956
v 0.870055 0.425910 -6.145911
v 0.870277 0.332811 -6.673954
v 0.870641 0.332830 -6.673953
v 0.871004 0.332850 -6.673951
v 0.871367 0.332870 -6.673949
v 0.871731 0.332891 -6.673948
v 0.872094 0.332912 -6.673946
v 0.872458 0.332933 -6.673944
v 0.872821 0.332955 -6.673942
v 0.873184 0.332978 -6.673940
v 0.873547 0.333001 -6.673938
v 0.873911 0.333024 -6.673936
v 0.874274 0.333048 -6.673934
v 0.874637 0.333072 -6.673932
v 0.875000 0.333097 -6.673930
v 0.877610 0.426333 -6.146256
v 0.882581 0.333722 -6.673857
v 0.885176 0.426927 -6.146741
v 0.890175 0.334555 -6.673726
v 0.892746 0.427692 -6.147366
v 0.897779 0.335599 -6.673537
v 0.900315 0.428631 -6.148133
v 0.905388 0.336856 -6.673289
v 0.907878 0.429743 -6.149040
v 0.912997 0.338328 -6.672981
v 0.915427 0.431030 -6.150091
v 0.920601 0.340017 -6.672614
v 0.922958 0.432492 -6.151285
v 0.928195 0.341926 -6.672188
v 0.930467 0.434132 -6.152623
v 0.935776 0.344058 -6.671700
v 0.937951 0.435950 -6.154107
v 0.943337 0.346414 -6.671152
v 0.945408 0.437948 -6.155737
v 0.950874 0.348997 -6.670543
v 0.952833 0.440127 -6.157516
v 0.958380 0.351805 -6.669874
v 0.960225 0.442488 -6.159443
v 0.965845 0.354837 -6.669146
v 0.967579 0.445033 -6.161520
v 0.973260 0.358091 -6.668359
v 0.974892 0.447763 -6.163748
v 0.980616 0.361564 -6.667516
v 0.982162 0.450679 -6.166129
v 0.987905 0.365254 -6.666617
v 0.989381 0.453783 -6.168663
v 0.995118 0.369161 -6.665664
v 0.996544 0.457076 -6.171351
v 1.002245 0.373280 -6.664658
v 1.003645 0.460559 -6.174194
v 1.009278 0.377612 -6.663599
v 1.010679 0.464234 -6.177193
v 1.016208 0.382152 -6.662489
v 1.017639 0.468101 -6.180350
v 1.023028 0.386900 -6.661330
v 1.024520 0.472162 -6.183665
v 1.029733 0.391851 -6.660124
v 1.031316 0.476419 -6.187140
v 1.036318 0.397002 -6.658871
v 1.038021 0.480871 -6.190774
v 1.042778 0.402349 -6.657575
v 1.044625 0.485518 -6.194567
v 1.049107 0.407890 -6.656237
v 1.051122 0.490360 -6.198520
v 1.055301 0.413621 -6.654859
v 1.057504 0.495396 -6.202630
v 1.061354 0.419539 -6.653442
v 1.063761 0.500625 -6.206899
v 1.067261 0.425641 -6.651989
v 1.069887 0.506047 -6.211324
v 1.073017 0.431923 -6.650502
v 1.075873 0.511662 -6.215907
v 1.078617 0.438380 -6.648982
v 1.081711 0.517468 -6.220646
v 1.084055 0.445008 -6.647432
v 1.087392 0.523464 -6.225539
v 1.089327 0.451799 -6.645854
v 1.092907 0.529645 -6.230584
v 1.094427 0.458749 -6.644252
v 1.098247 0.536008 -6.235777
v 1.099350 0.465851 -6.642628
v 1.103401 0.542550 -6.241116
v 1.104092 0.473100 -6.640983
v 1.108361 0.549265 -6.246597
v 1.108646 0.480490 -6.639321
v 1.113009 0.488014 -6.637645
v 1.113117 0.556151 -6.252217
v 1.117174 0.495668 -6.635956
v 1.117659 0.563204 -6.257974
v 1.121138 0.503446 -6.634257
v 1.121978 0.570420 -6.263864
v 1.124898 0.511341 -6.632550
v 1.126065 0.577790 -6.269880
v 1.128450 0.519349 -6.630838
v 1.129914 0.585304 -6.276014
v 1.131792 0.527463 -6.629123
v 1.133515 0.592952 -6.282257
v 1.134921 0.535677 -6.627406
v 1.136861 0.600724 -6.288602
v 1.137835 0.543987 -6.625691
v 1.139944 0.608608 -6.295038
v 1.140529 0.552386 -6.623979
v 1.142757 0.616596 -6.301559
v 1.143003 0.560869 -6.622273
v 1.145252 0.569430 -6.620575
v 1.145291 0.624676 -6.308154
v 1.147273 0.578064 -6.618886
v 1.147540 0.632839 -6.314817
v 1.149066 0.586763 -6.617210
v 1.149498 0.641079 -6.321542
v 1.150627 0.595524 -6.615547
v 1.151164 0.649390 -6.328326
v 1.151953 0.604339 -6.613899
v 1.152534 0.657770 -6.335165
v 1.153044 0.613204 -6.612268
v 1.153605 0.666213 -6.342056
v 1.153896 0.622111 -6.610656
v 1.154375 0.674714 -6.348994
v 1.154508 0.631056 -6.609065
v 1.154841 0.683269 -6.355977
v 1.154877 0.640032 -6.607496
v 1.155000 0.649034 -6.605951
v 1.155000 0.691873 -6.363000
f 1 2 3
f 2 4 3
f 4 5 3
f 5 6 3
f 6 7 3
f 7 8 3
f 8 9 3
f 9 10 3
f 10 11 3
f 11 12 3
f 12 13 3
f 13 14 3
f 14 15 3
f 15 16 3
f 16 17 3
f 17 18 3
f 18 19 3
f 19 20 3
f 20 21 3
f 21 22 3
f 22 23 3
f 22 24 23
f 24 25 23
f 25 26 23
f 26 27 23
f 27 28 23
f 28 29 23
f 29 30 23
f 30 31 23
f 31 32 23
f 32 33 23
f 33 34 23
f 34 35 23
f 35 36 23
f 36 37 23
f 37 38 23
f 38 39 23
f 39 40 23
f 40 41 23
f 41 42 23
f 42 43 23
f 43 44 23
f 44 45 23
f 44 46 45
f 46 47 45
f 47 48 45
f 48 49 45
f 49 50 45
f 50 51 45
f 51 52 45
f 52 53 45
f 53 54 45
f 54 55 45
f 55 56 45
f 56 57 45
f 57 58 45
f 58 59 45
f 59 60 45
f 59 61 60
f 61 62 60
f 61 63 62
f 63 64 62
f 63 65 64
f 65 66 64
f 65 67 66
f 67 68 66
f 67 69 68
f 69 70 68
f 69 71 70
f 71 72 70
f 71 73 72
f 73 74 72
f 73 75 74
f 75 76 74
f 75 77 76
f 77 78 76
f 77 79 78
f 79 80 78
f 79 81 80
f 81 82 80
f 81 83 82
f 83 84 82
f 83 85 84
f 85 86 84
f 85 87 86
f 87 88 86
f 87 89 88
f 89 90 88
f 89 91 90
f 91 92 90
f 91 93 92
f 93 94 92
f 93 95 94
f 95 96 94
f 95 97 96
f 97 98 96
f 97 99 98
f 99 100 98
f 99 101 100
f 101 102 100
f 101 103 102
f 103 104 102
f 103 105 104
f 105 106 104
f 105 107 106
f 107 108 106
f 107 109 108
f 109 110 108
f 109 111 110
f 111 112 110
f 111 113 112
f 113 114 112
f 113 115 114
f 115 116 114
f 115 117 116
f 117 118 116
f 117 119 118
f 119 120 118
f 119 121 120
f 121 122 120
f 121 123 122
f 123 124 122
f 123 125 124
f 125 126 124
f 125 127 126
f 127 128 126
f 127 129 128
f 129 130 128
f 130 131 128
f 130 132 131
f 132 133 131
f 132 134 133
f 134 135 133
f 134 136 135
f 136 137 135
f 136 138 137
f 138 139 137
f 138 140 139
f 140 141 139
f 140 142 141
f 142 143 141
f 142 144 143
f 144 145 143
f 144 146 145
f 146 147 145
f 146 148 147
f 148 149 147
f 149 150 147
f 149 151 150
f 151 152 150
f 151 153 152
f 153 154 152
f 153 155 154
f 155 156 154
f 155 157 156
f 157 158 156
f 157 159 158
f 159 160 158
f 159 161 160
f 161 162 160
f 161 163 162
f 163 164 162
f 163 165 164
f 165 166 164
f 166 167 164
