v -2.962500 0.613535 -6.388000
v -2.962500 0.607188 -6.391913
v -2.962500 0.600817 -6.395785
v -2.962500 0.594421 -6.399616
v -2.962500 0.588000 -6.403407
v -2.962500 0.581555 -6.407156
v -2.962500 0.575087 -6.410863
v -2.962500 0.568594 -6.414529
v -2.962500 0.562079 -6.418153
v -2.962500 0.555540 -6.421736
v -2.962500 0.548978 -6.425276
v -2.962500 0.542394 -6.428775
v -2.962500 0.535788 -6.432231
v -2.962500 0.529159 -6.435644
v -2.962500 0.522509 -6.439015
v -2.962500 0.515838 -6.442344
v -2.962500 0.509145 -6.445629
v -2.962500 0.502431 -6.448872
v -2.962500 0.495696 -6.452071
v -2.962500 0.488942 -6.455228
v -2.962500 0.482167 -6.458340
v -2.962500 0.475372 -6.461410
v -2.962500 0.468558 -6.464435
v -2.962500 0.461724 -6.467417
v -2.962500 0.454872 -6.470355
v -2.962500 0.448000 -6.473250
v -2.962500 0.441111 -6.476100
v -2.962500 0.434203 -6.478905
v -2.962500 0.427277 -6.481667
v -2.962500 0.420334 -6.484384
v -2.962500 0.413374 -6.487056
v -2.962500 0.406396 -6.489684
v -2.962500 0.399402 -6.492267
v -2.962500 0.392392 -6.494805
v -2.962500 0.385365 -6.497298
v -2.962500 0.378323 -6.499746
v -2.962500 0.371265 -6.502149
v -2.962500 0.364191 -6.504506
v -2.962500 0.357103 -6.506818
v -2.962500 0.350000 -6.509085
v -2.962500 0.350000 -6.388000
f 1 2 3
f 1 3 4
f 1 4 5
f 1 5 6
f 1 6 7
f 1 7 8
f 1 8 9
f 1 9 10
f 1 10 11
f 1 11 12
f 1 12 13
f 1 13 14
f 1 14 15
f 1 15 16
f 1 16 17
f 1 17 18
f 1 18 19
f 1 19 20
f 1 20 21
f 1 21 22
f 1 22 23
f 1 23 24
f 1 24 25
f 1 25 26
f 1 26 27
f 1 27 28
f 1 28 29
f 1 29 30
f 1 30 31
f 1 31 32
f 1 32 33
f 1 33 34
f 1 34 35
f 1 35 36
f 1 36 37
f 1 37 38
f 1 38 39
f 1 39 40
f 1 40 41
