v 0.230000 -0.439547 -6.354318
v -0.970000 -0.439547 -6.354318
v -0.970000 -0.474813 -6.154318
v 0.855000 -0.474813 -6.154318
v 0.855000 -0.375000 -6.720383
v 0.405000 -0.375000 -6.720383
v 0.405000 -0.408690 -6.529318
v 0.404929 -0.409584 -6.524247
v 0.404716 -0.410472 -6.519213
v 0.404362 -0.411353 -6.514214
v 0.403865 -0.412229 -6.509246
v 0.403227 -0.413100 -6.504307
v 0.402446 -0.413966 -6.499396
v 0.401522 -0.414828 -6.494510
v 0.400455 -0.415685 -6.489646
v 0.399245 -0.416539 -6.484803
v 0.397892 -0.417390 -6.479979
v 0.396397 -0.418236 -6.475178
v 0.394761 -0.419078 -6.470407
v 0.392988 -0.419912 -6.465673
v 0.391078 -0.420739 -6.460984
v 0.389035 -0.421557 -6.456346
v 0.386859 -0.422365 -6.451765
v 0.384553 -0.423161 -6.447250
v 0.382119 -0.423944 -6.442807
v 0.379559 -0.424714 -6.438443
v 0.376875 -0.425469 -6.434161
v 0.374071 -0.426209 -6.429965
v 0.371149 -0.426933 -6.425856
v 0.368112 -0.427642 -6.421838
v 0.364963 -0.428334 -6.417912
v 0.361706 -0.429009 -6.414082
v 0.358343 -0.429667 -6.410349
v 0.354877 -0.430308 -6.406717
v 0.351311 -0.430930 -6.403188
v 0.347648 -0.431534 -6.399763
v 0.343890 -0.432119 -6.396446
v 0.340041 -0.432684 -6.393239
v 0.336102 -0.433230 -6.390145
v 0.332077 -0.433755 -6.387165
v 0.327969 -0.434260 -6.384302
v 0.323779 -0.434744 -6.381559
v 0.319510 -0.435206 -6.378938
v 0.315166 -0.435646 -6.376441
v 0.310750 -0.436064 -6.374071
v 0.306269 -0.436459 -6.371829
v 0.301729 -0.436832 -6.369716
v 0.297137 -0.437181 -6.367735
v 0.292500 -0.437507 -6.365885
v 0.287825 -0.437810 -6.364170
v 0.283117 -0.438089 -6.362590
v 0.278385 -0.438343 -6.361148
v 0.273634 -0.438573 -6.359843
v 0.268868 -0.438778 -6.358678
v 0.264088 -0.438959 -6.357652
v 0.259289 -0.439116 -6.356765
v 0.254471 -0.439248 -6.356015
v 0.249630 -0.439356 -6.355403
v 0.244765 -0.439440 -6.354928
v 0.239873 -0.439499 -6.354589
v 0.234952 -0.439535 -6.354386
v 0.767500 -0.429200 -6.413000
v 0.767276 -0.430689 -6.404553
v 0.766591 -0.432206 -6.395952
v 0.765430 -0.433742 -6.387239
v 0.763772 -0.435291 -6.378456
v 0.761602 -0.436845 -6.369643
v 0.758902 -0.438397 -6.360843
v 0.755654 -0.439939 -6.352096
v 0.751849 -0.441464 -6.343446
v 0.747498 -0.442964 -6.334942
v 0.742620 -0.444428 -6.326635
v 0.737230 -0.445850 -6.318575
v 0.731345 -0.447218 -6.310813
v 0.724982 -0.448526 -6.303398
v 0.718156 -0.449763 -6.296381
v 0.710899 -0.450923 -6.289802
v 0.703267 -0.452002 -6.283683
v 0.695320 -0.452997 -6.278042
v 0.687118 -0.453903 -6.272900
v 0.678721 -0.454719 -6.268274
v 0.670190 -0.455440 -6.264185
v 0.661582 -0.456063 -6.260650
v 0.652937 -0.456588 -6.257674
v 0.644263 -0.457017 -6.255240
v 0.635563 -0.457354 -6.253330
v 0.626844 -0.457602 -6.251925
v 0.618112 -0.457764 -6.251006
v 0.609372 -0.457843 -6.250555
v 0.600628 -0.457843 -6.250555
v 0.591888 -0.457764 -6.251006
v 0.583156 -0.457602 -6.251925
v 0.574437 -0.457354 -6.253330
v 0.565737 -0.457017 -6.255240
v 0.557063 -0.456588 -6.257674
v 0.548418 -0.456063 -6.260650
v 0.539810 -0.455440 -6.264185
v 0.531279 -0.454719 -6.268274
v 0.522882 -0.453903 -6.272900
v 0.514680 -0.452997 -6.278042
v 0.506733 -0.452002 -6.283683
v 0.499101 -0.450923 -6.289802
v 0.491844 -0.449763 -6.296381
v 0.485018 -0.448526 -6.303398
v 0.478655 -0.447218 -6.310813
v 0.472770 -0.445850 -6.318575
v 0.467380 -0.444428 -6.326635
v 0.462502 -0.442964 -6.334942
v 0.458151 -0.441464 -6.343446
v 0.454346 -0.439939 -6.352096
v 0.451098 -0.438397 -6.360843
v 0.448398 -0.436845 -6.369643
v 0.446228 -0.435291 -6.378456
v 0.444570 -0.433742 -6.387239
v 0.443409 -0.432206 -6.395952
v 0.442724 -0.430689 -6.404553
v 0.442500 -0.429200 -6.413000
v 0.442724 -0.427710 -6.421447
v 0.443409 -0.426194 -6.430048
v 0.444570 -0.424658 -6.438761
v 0.446228 -0.423109 -6.447544
v 0.448398 -0.421555 -6.456357
v 0.451098 -0.420003 -6.465157
v 0.454346 -0.418461 -6.473904
v 0.458151 -0.416936 -6.482554
v 0.462502 -0.415436 -6.491058
v 0.467380 -0.413971 -6.499365
v 0.472770 -0.412550 -6.507425
v 0.478655 -0.411182 -6.515187
v 0.485018 -0.409874 -6.522602
v 0.491844 -0.408637 -6.529619
v 0.499101 -0.407477 -6.536198
v 0.506733 -0.406398 -6.542317
v 0.514680 -0.405403 -6.547958
v 0.522882 -0.404496 -6.553100
v 0.531279 -0.403681 -6.557726
v 0.539810 -0.402960 -6.561815
v 0.548418 -0.402337 -6.565350
v 0.557063 -0.401812 -6.568326
v 0.565737 -0.401383 -6.570760
v 0.574437 -0.401046 -6.572670
v 0.583156 -0.400798 -6.574075
v 0.591888 -0.400636 -6.574994
v 0.600628 -0.400557 -6.575445
v 0.609372 -0.400557 -6.575445
v 0.618112 -0.400636 -6.574994
v 0.626844 -0.400798 -6.574075
v 0.635563 -0.401046 -6.572670
v 0.644263 -0.401383 -6.570760
v 0.652937 -0.401812 -6.568326
v 0.661582 -0.402337 -6.565350
v 0.670190 -0.402960 -6.561815
v 0.678721 -0.403681 -6.557726
v 0.687118 -0.404496 -6.553100
v 0.695320 -0.405403 -6.547958
v 0.703267 -0.406398 -6.542317
v 0.710899 -0.407477 -6.536198
v 0.718156 -0.408637 -6.529619
v 0.724982 -0.409874 -6.522602
v 0.731345 -0.411182 -6.515187
v 0.737230 -0.412550 -6.507425
v 0.742620 -0.413971 -6.499365
v 0.747498 -0.415436 -6.491058
v 0.751849 -0.416936 -6.482554
v 0.755654 -0.418461 -6.473904
v 0.758902 -0.420003 -6.465157
v 0.761602 -0.421555 -6.456357
v 0.763772 -0.423109 -6.447544
v 0.765430 -0.424658 -6.438761
v 0.766591 -0.426194 -6.430048
v 0.767276 -0.427710 -6.421447
f 1 3 2
f 5 144 6
f 143 6 144
f 61 3 1
f 5 145 144
f 142 6 143
f 60 3 61
f 5 146 145
f 141 6 142
f 59 3 60
f 5 147 146
f 140 6 141
f 58 3 59
f 5 148 147
f 139 6 140
f 57 3 58
f 5 149 148
f 138 6 139
f 56 3 57
f 5 150 149
f 137 6 138
f 56 4 3
f 5 151 150
f 136 6 137
f 55 4 56
f 5 152 151
f 135 6 136
f 5 153 152
f 134 6 135
f 5 154 153
f 133 6 134
f 5 155 154
f 132 6 133
f 5 156 155
f 131 6 132
f 5 157 156
f 130 6 131
f 5 158 157
f 129 6 130
f 5 159 158
f 128 6 129
f 5 160 159
f 127 6 128
f 5 161 160
f 126 6 127
f 5 162 161
f 125 6 126
f 5 163 162
f 124 6 125
f 5 164 163
f 123 6 124
f 5 165 164
f 122 6 123
f 5 166 165
f 121 6 122
f 4 166 5
f 120 6 121
f 4 167 166
f 119 6 120
f 4 168 167
f 118 6 119
f 4 169 168
f 117 6 118
f 4 170 169
f 116 6 117
f 4 171 170
f 115 6 116
f 4 62 171
f 115 7 6
f 4 63 62
f 114 7 115
f 4 64 63
f 113 7 114
f 4 65 64
f 112 7 113
f 4 66 65
f 112 8 7
f 4 67 66
f 112 9 8
f 4 68 67
f 112 10 9
f 4 69 68
f 112 11 10
f 4 70 69
f 111 11 112
f 4 71 70
f 111 12 11
f 4 72 71
f 111 13 12
f 4 73 72
f 111 14 13
f 4 74 73
f 111 15 14
f 4 75 74
f 110 15 111
f 4 76 75
f 110 16 15
f 4 77 76
f 110 17 16
f 4 78 77
f 109 17 110
f 4 79 78
f 109 18 17
f 4 80 79
f 109 19 18
f 4 81 80
f 109 20 19
f 4 82 81
f 108 20 109
f 4 83 82
f 108 21 20
f 4 84 83
f 108 22 21
f 4 85 84
f 107 22 108
f 4 86 85
f 107 23 22
f 4 87 86
f 107 24 23
f 4 88 87
f 106 24 107
f 4 89 88
f 106 25 24
f 4 90 89
f 106 26 25
f 4 91 90
f 105 26 106
f 4 92 91
f 105 27 26
f 4 93 92
f 105 28 27
f 4 94 93
f 104 28 105
f 4 95 94
f 104 29 28
f 55 95 4
f 104 30 29
f 55 96 95
f 103 30 104
f 54 96 55
f 103 31 30
f 53 96 54
f 103 32 31
f 52 96 53
f 102 32 103
f 51 96 52
f 102 33 32
f 50 96 51
f 102 34 33
f 50 97 96
f 102 35 34
f 49 97 50
f 101 35 102
f 48 97 49
f 101 36 35
f 47 97 48
f 101 37 36
f 46 97 47
f 100 37 101
f 46 98 97
f 100 38 37
f 45 98 46
f 100 39 38
f 44 98 45
f 100 40 39
f 43 98 44
f 99 40 100
f 42 98 43
f 99 41 40
f 42 99 98
f 99 42 41
