v 2.142143 0.565914 -5.962751
v 2.148117 0.566481 -5.959835
v 2.145146 0.566201 -5.961326
v 2.151055 0.566753 -5.958278
v 2.153958 0.567016 -5.956656
v 2.156826 0.567271 -5.954970
v 2.159655 0.567518 -5.953220
v 2.162446 0.567756 -5.951407
v 2.165197 0.567985 -5.949533
v 2.167906 0.568205 -5.947598
v 2.170572 0.568416 -5.945604
v 2.140910 0.575921 -5.962001
v 2.139882 0.585595 -5.960939
v 2.139049 0.594953 -5.959582
v 2.138400 0.604012 -5.957947
v 2.137925 0.612790 -5.956051
v 2.137616 0.621291 -5.953907
v 2.137472 0.629504 -5.951522
v 2.137491 0.637417 -5.948905
v 2.137672 0.645018 -5.946064
v 2.138013 0.652296 -5.943005
v 2.167826 0.578790 -5.945865
v 2.167808 0.578854 -5.945866
v 2.164889 0.588704 -5.945969
v 2.164851 0.588826 -5.945969
v 2.161794 0.598160 -5.945933
v 2.161734 0.598333 -5.945931
v 2.158572 0.607165 -5.945773
v 2.158490 0.607384 -5.945768
v 2.155250 0.615730 -5.945505
v 2.155145 0.615990 -5.945495
v 2.151858 0.623859 -5.945143
v 2.151730 0.624154 -5.945128
v 2.148427 0.631544 -5.944701
v 2.148277 0.631869 -5.944681
v 2.144990 0.638782 -5.944195
v 2.144820 0.639130 -5.944168
v 2.141578 0.645573 -5.943637
v 2.141389 0.645938 -5.943605
v 2.138217 0.651920 -5.943042
v 2.175769 0.568811 -5.941439
v 2.173193 0.568618 -5.943550
v 2.178298 0.568994 -5.939271
v 2.180779 0.569168 -5.937047
v 2.183211 0.569333 -5.934769
v 2.185592 0.569488 -5.932437
v 2.187921 0.569633 -5.930053
v 2.190197 0.569769 -5.927618
v 2.192419 0.569895 -5.925133
v 2.194587 0.570011 -5.922599
v 2.138512 0.659239 -5.939737
v 2.139167 0.665837 -5.936267
v 2.139976 0.672080 -5.932602
v 2.140937 0.677958 -5.928750
v 2.142046 0.683458 -5.924723
v 2.143295 0.688564 -5.920539
v 2.144678 0.693261 -5.916217
v 2.146187 0.697532 -5.911777
v 2.147813 0.701362 -5.907239
v 2.149547 0.704748 -5.902623
v 2.192982 0.580868 -5.921969
v 2.192971 0.580935 -5.921965
v 2.191139 0.591291 -5.921217
v 2.191115 0.591420 -5.921207
v 2.189091 0.601278 -5.920360
v 2.189051 0.601462 -5.920343
v 2.186868 0.610832 -5.919412
v 2.186810 0.611066 -5.919387
v 2.184496 0.619961 -5.918386
v 2.184420 0.620239 -5.918353
v 2.182005 0.628665 -5.917297
v 2.181910 0.628982 -5.917255
v 2.179427 0.636931 -5.916160
v 2.179313 0.637281 -5.916110
v 2.176792 0.644751 -5.914990
v 2.176660 0.645127 -5.914931
v 2.174130 0.652120 -5.913800
v 2.173981 0.652517 -5.913734
v 2.171468 0.659037 -5.912605
v 2.171305 0.659447 -5.912532
v 2.168833 0.665505 -5.911418
v 2.168658 0.665922 -5.911339
v 2.166248 0.671528 -5.910249
v 2.166064 0.671947 -5.910165
v 2.163736 0.677112 -5.909109
v 2.163545 0.677527 -5.909022
v 2.161316 0.682266 -5.908008
v 2.161121 0.682673 -5.907919
v 2.159007 0.686996 -5.906956
v 2.158811 0.687391 -5.906866
v 2.156826 0.691309 -5.905960
v 2.156632 0.691686 -5.905871
v 2.154791 0.695208 -5.905029
v 2.154603 0.695563 -5.904943
v 2.152917 0.698700 -5.904170
v 2.152738 0.699029 -5.904088
v 2.151216 0.701789 -5.903390
v 2.151051 0.702086 -5.903314
v 2.149698 0.704487 -5.902693
v 2.198751 0.570213 -5.917391
v 2.196698 0.570117 -5.920018
v 2.200747 0.570299 -5.914719
v 2.202683 0.570376 -5.912003
v 2.204559 0.570442 -5.909245
v 2.206374 0.570498 -5.906446
v 2.208127 0.570543 -5.903608
v 2.209817 0.570579 -5.900732
v 2.211443 0.570605 -5.897819
v 2.213005 0.570620 -5.894871
v 2.214502 0.570625 -5.891889
v 2.215932 0.570620 -5.888875
v 2.217296 0.570605 -5.885830
v 2.218592 0.570579 -5.882757
v 2.219820 0.570543 -5.879655
v 2.220980 0.570498 -5.876527
v 2.222070 0.570442 -5.873374
v 2.223090 0.570376 -5.870199
v 2.224040 0.570299 -5.867002
v 2.224920 0.570213 -5.863785
v 2.225728 0.570117 -5.860549
v 2.151377 0.707691 -5.897953
v 2.153291 0.710196 -5.893251
v 2.155277 0.712264 -5.888539
v 2.157324 0.713900 -5.883836
v 2.159431 0.715111 -5.879144
v 2.161595 0.715903 -5.874464
v 2.163816 0.716286 -5.869796
v 2.166093 0.716265 -5.865140
v 2.168421 0.715840 -5.860501
v 2.170799 0.715004 -5.855889
v 2.173223 0.713750 -5.851313
v 2.175689 0.712068 -5.846785
v 2.178193 0.709953 -5.842314
v 2.180728 0.707401 -5.837919
v 2.224221 0.581003 -5.859764
v 2.224211 0.581070 -5.859759
v 2.222473 0.591454 -5.858863
v 2.222449 0.591583 -5.858851
v 2.220514 0.601470 -5.857860
v 2.220475 0.601654 -5.857841
v 2.218376 0.611053 -5.856772
v 2.218320 0.611288 -5.856744
v 2.216086 0.620211 -5.855612
v 2.216013 0.620490 -5.855574
v 2.213673 0.628944 -5.854392
v 2.213581 0.629262 -5.854346
v 2.211169 0.637238 -5.853130
v 2.211058 0.637589 -5.853075
v 2.208603 0.645086 -5.851840
v 2.208475 0.645464 -5.851776
v 2.206006 0.652482 -5.850537
v 2.205862 0.652880 -5.850464
v 2.203406 0.659425 -5.849234
v 2.203247 0.659837 -5.849154
v 2.200829 0.665918 -5.847943
v 2.200657 0.666337 -5.847858
v 2.198298 0.671965 -5.846678
v 2.198117 0.672385 -5.846587
v 2.195835 0.677572 -5.845448
v 2.195647 0.677989 -5.845354
v 2.193461 0.682748 -5.844262
v 2.193269 0.683156 -5.844167
v 2.191194 0.687498 -5.843131
v 2.191001 0.687894 -5.843035
v 2.189051 0.691829 -5.842063
v 2.188861 0.692208 -5.841968
v 2.187051 0.695746 -5.841066
v 2.186866 0.696103 -5.840974
v 2.185208 0.699253 -5.840148
v 2.185031 0.699584 -5.840060
v 2.183535 0.702357 -5.839315
v 2.183371 0.702656 -5.839234
v 2.182040 0.705068 -5.838571
v 2.181894 0.705331 -5.838498
v 2.227129 0.569895 -5.854030
v 2.226464 0.570011 -5.857297
v 2.227721 0.569769 -5.850749
v 2.228241 0.569633 -5.847457
v 2.228688 0.569488 -5.844154
v 2.229062 0.569333 -5.840842
v 2.229362 0.569168 -5.837524
v 2.229590 0.568994 -5.834200
v 2.229743 0.568811 -5.830872
v 2.229823 0.568618 -5.827542
v 2.183283 0.704413 -5.833620
v 2.185850 0.700987 -5.829438
v 2.188418 0.697123 -5.825394
v 2.190980 0.692826 -5.821505
v 2.193523 0.688111 -5.817790
v 2.196039 0.682994 -5.814266
v 2.198516 0.677489 -5.810949
v 2.200946 0.671611 -5.807856
v 2.203321 0.665374 -5.804997
v 2.205637 0.658787 -5.802377
v 2.228369 0.579052 -5.825332
v 2.228359 0.579117 -5.825318
v 2.226672 0.589030 -5.823062
v 2.226649 0.589153 -5.823033
v 2.224767 0.598552 -5.820748
v 2.224729 0.598727 -5.820704
v 2.222684 0.607625 -5.818405
v 2.222630 0.607846 -5.818346
v 2.220454 0.616260 -5.816045
v 2.220382 0.616523 -5.815971
v 2.218104 0.624461 -5.813681
v 2.218015 0.624758 -5.813593
v 2.215667 0.632218 -5.811331
v 2.215559 0.632545 -5.811230
v 2.213173 0.639528 -5.809012
v 2.213049 0.639879 -5.808897
v 2.210652 0.646390 -5.806737
v 2.210512 0.646759 -5.806612
v 2.208131 0.652808 -5.804521
v 2.207977 0.653187 -5.804387
v 2.229763 0.568205 -5.820884
v 2.229830 0.568416 -5.824212
v 2.229622 0.567985 -5.817558
v 2.229407 0.567756 -5.814236
v 2.229120 0.567518 -5.810921
v 2.228759 0.567271 -5.807614
v 2.228325 0.567016 -5.804316
v 2.227818 0.566753 -5.801029
v 2.227238 0.566481 -5.797755
v 2.226586 0.566201 -5.794495
v 2.225862 0.565914 -5.791251
v 2.207890 0.651861 -5.800002
v 2.210075 0.644606 -5.797879
v 2.212188 0.637034 -5.796013
v 2.214223 0.629155 -5.794410
v 2.216176 0.620981 -5.793076
v 2.218042 0.612522 -5.792018
v 2.219815 0.603790 -5.791239
v 2.221491 0.594780 -5.790755
v 2.223062 0.585476 -5.790583
v 2.224521 0.575859 -5.790742
f 1 2 3
f 1 4 2
f 1 5 4
f 1 6 5
f 1 7 6
f 1 8 7
f 1 9 8
f 1 10 9
f 1 11 10
f 1 12 13
f 1 13 14
f 1 14 15
f 1 15 16
f 1 16 17
f 1 17 18
f 1 18 19
f 1 19 20
f 1 20 21
f 1 22 11
f 1 23 22
f 1 24 23
f 1 25 24
f 1 26 25
f 1 27 26
f 1 28 27
f 1 29 28
f 1 30 29
f 1 31 30
f 1 32 31
f 1 33 32
f 1 34 33
f 1 35 34
f 1 36 35
f 1 37 36
f 1 38 37
f 1 39 38
f 1 40 39
f 1 21 40
f 11 41 42
f 11 43 41
f 11 44 43
f 11 45 44
f 11 46 45
f 11 47 46
f 11 48 47
f 11 49 48
f 11 50 49
f 21 51 52
f 21 52 53
f 21 53 54
f 21 54 55
f 21 55 56
f 21 56 57
f 21 57 58
f 21 58 59
f 21 59 60
f 11 22 50
f 22 61 50
f 22 23 61
f 23 62 61
f 23 24 62
f 24 63 62
f 24 25 63
f 25 64 63
f 25 26 64
f 26 65 64
f 26 27 65
f 27 66 65
f 27 28 66
f 28 67 66
f 28 29 67
f 29 68 67
f 29 30 68
f 30 69 68
f 30 31 69
f 31 70 69
f 31 32 70
f 32 71 70
f 32 33 71
f 33 72 71
f 33 34 72
f 34 73 72
f 34 35 73
f 35 74 73
f 35 36 74
f 36 75 74
f 36 37 75
f 37 76 75
f 37 38 76
f 38 77 76
f 38 39 77
f 39 78 77
f 39 40 78
f 40 79 78
f 40 21 79
f 21 80 79
f 21 81 80
f 21 82 81
f 21 83 82
f 21 84 83
f 21 85 84
f 21 86 85
f 21 87 86
f 21 88 87
f 21 89 88
f 21 90 89
f 21 91 90
f 21 92 91
f 21 93 92
f 21 94 93
f 21 95 94
f 21 96 95
f 21 97 96
f 21 98 97
f 21 99 98
f 21 60 99
f 50 100 101
f 50 102 100
f 50 103 102
f 50 104 103
f 50 105 104
f 50 106 105
f 50 107 106
f 50 108 107
f 50 109 108
f 50 110 109
f 50 111 110
f 50 112 111
f 50 113 112
f 50 114 113
f 50 115 114
f 50 116 115
f 50 117 116
f 50 118 117
f 50 119 118
f 50 120 119
f 60 121 122
f 60 122 123
f 60 123 124
f 60 124 125
f 60 125 126
f 60 126 127
f 60 127 128
f 60 128 129
f 60 129 130
f 60 130 131
f 60 131 132
f 60 132 133
f 60 133 134
f 50 61 120
f 61 135 120
f 61 62 135
f 62 136 135
f 62 63 136
f 63 137 136
f 63 64 137
f 64 138 137
f 64 65 138
f 65 139 138
f 65 66 139
f 66 140 139
f 66 67 140
f 67 141 140
f 67 68 141
f 68 142 141
f 68 69 142
f 69 143 142
f 69 70 143
f 70 144 143
f 70 71 144
f 71 145 144
f 71 72 145
f 72 146 145
f 72 73 146
f 73 147 146
f 73 74 147
f 74 148 147
f 74 75 148
f 75 149 148
f 75 76 149
f 76 150 149
f 76 77 150
f 77 151 150
f 77 78 151
f 78 152 151
f 78 79 152
f 79 153 152
f 79 80 153
f 80 154 153
f 80 81 154
f 81 155 154
f 81 82 155
f 82 156 155
f 82 83 156
f 83 157 156
f 83 84 157
f 84 158 157
f 84 85 158
f 85 159 158
f 85 86 159
f 86 160 159
f 86 87 160
f 87 161 160
f 87 88 161
f 88 162 161
f 88 89 162
f 89 163 162
f 89 90 163
f 90 164 163
f 90 91 164
f 91 165 164
f 91 92 165
f 92 166 165
f 92 93 166
f 93 167 166
f 93 94 167
f 94 168 167
f 94 95 168
f 95 169 168
f 95 96 169
f 96 170 169
f 96 97 170
f 97 171 170
f 97 98 171
f 98 172 171
f 98 99 172
f 99 173 172
f 99 60 173
f 60 174 173
f 60 134 174
f 120 175 176
f 120 177 175
f 120 178 177
f 120 179 178
f 120 180 179
f 120 181 180
f 120 182 181
f 120 183 182
f 120 184 183
f 134 185 186
f 134 186 187
f 134 187 188
f 134 188 189
f 134 189 190
f 134 190 191
f 134 191 192
f 134 192 193
f 134 193 194
f 120 135 184
f 135 195 184
f 135 136 195
f 136 196 195
f 136 137 196
f 137 197 196
f 137 138 197
f 138 198 197
f 138 139 198
f 139 199 198
f 139 140 199
f 140 200 199
f 140 141 200
f 141 201 200
f 141 142 201
f 142 202 201
f 142 143 202
f 143 203 202
f 143 144 203
f 144 204 203
f 144 145 204
f 145 205 204
f 145 146 205
f 146 206 205
f 146 147 206
f 147 207 206
f 147 148 207
f 148 208 207
f 148 149 208
f 149 209 208
f 149 150 209
f 150 210 209
f 150 151 210
f 151 211 210
f 151 152 211
f 152 212 211
f 152 153 212
f 153 213 212
f 153 154 213
f 154 214 213
f 154 155 214
f 155 194 214
f 155 156 194
f 156 157 194
f 157 158 194
f 158 159 194
f 159 160 194
f 160 161 194
f 161 162 194
f 162 163 194
f 163 164 194
f 164 165 194
f 165 166 194
f 166 167 194
f 167 168 194
f 168 169 194
f 169 170 194
f 170 171 194
f 171 172 194
f 172 173 194
f 173 174 194
f 174 134 194
f 184 215 216
f 184 217 215
f 184 218 217
f 184 219 218
f 184 220 219
f 184 221 220
f 184 222 221
f 184 223 222
f 184 224 223
f 184 225 224
f 194 226 227
f 194 227 228
f 194 228 229
f 194 229 230
f 194 230 231
f 194 231 232
f 194 232 233
f 194 233 234
f 194 234 235
f 194 235 225
f 184 195 225
f 195 196 225
f 196 197 225
f 197 198 225
f 198 199 225
f 199 200 225
f 200 201 225
f 201 202 225
f 202 203 225
f 203 204 225
f 204 205 225
f 205 206 225
f 206 207 225
f 207 208 225
f 208 209 225
f 209 210 225
f 210 211 225
f 211 212 225
f 212 213 225
f 213 214 225
f 214 194 225
