v 0.619497 0.268046 -0.036213
v 0.619497 0.268046 -0.825000
v 0.619260 0.267959 -0.825587
v 0.619024 0.267873 -0.826174
v 0.618787 0.267787 -0.826760
v 0.618550 0.267701 -0.827347
v 0.618313 0.267615 -0.827934
v 0.618077 0.267529 -0.828520
v 0.617840 0.267443 -0.829107
v 0.617604 0.267356 -0.829693
v 0.617367 0.267270 -0.830279
v 0.617131 0.267184 -0.830866
v 0.616894 0.267098 -0.831452
v 0.616658 0.267012 -0.832038
v 0.616421 0.266926 -0.832624
v 0.616185 0.266840 -0.833210
v 0.615948 0.266754 -0.833796
v 0.615712 0.266668 -0.834382
v 0.615476 0.266582 -0.834968
v 0.615239 0.266496 -0.835553
v 0.615003 0.266410 -0.836139
v 0.614767 0.266324 -0.836724
v 0.614531 0.266238 -0.837310
v 0.614295 0.266152 -0.837895
v 0.614058 0.266066 -0.838481
v 0.613822 0.265980 -0.839066
v 0.613586 0.265894 -0.839651
v 0.613350 0.265808 -0.840236
v 0.613114 0.265722 -0.840821
v 0.612878 0.265636 -0.841406
v 0.612642 0.265551 -0.841991
v 0.612406 0.265465 -0.842576
v 0.612170 0.265379 -0.843161
v 0.611934 0.265293 -0.843746
v 0.611698 0.265207 -0.844330
v 0.611463 0.265121 -0.844915
v 0.611227 0.265035 -0.845499
v 0.610991 0.264950 -0.846084
v 0.610755 0.264864 -0.846668
v 0.610519 0.264778 -0.847252
v 0.610284 0.264692 -0.847837
v 0.610048 0.264606 -0.848421
v 0.609812 0.264521 -0.849005
v 0.609577 0.264435 -0.849589
v 0.609341 0.264349 -0.850173
v 0.609106 0.264263 -0.850757
v 0.608870 0.264178 -0.851340
v 0.608635 0.264092 -0.851924
v 0.608399 0.264006 -0.852508
v 0.608164 0.263921 -0.853091
v 0.607928 0.263835 -0.853675
v 0.607693 0.263749 -0.854258
v 0.607458 0.263664 -0.854842
v 0.607222 0.263578 -0.855425
v 0.606987 0.263492 -0.856008
v 0.606752 0.263407 -0.856591
v 0.606516 0.263321 -0.857174
v 0.606516 0.263321 -0.016211
v 0.606677 0.263379 -0.016381
v 0.606837 0.263438 -0.016552
v 0.606998 0.263496 -0.016722
v 0.607158 0.263555 -0.016893
v 0.607319 0.263613 -0.017063
v 0.607479 0.263671 -0.017234
v 0.607640 0.263730 -0.017404
v 0.607800 0.263788 -0.017575
v 0.607961 0.263847 -0.017746
v 0.608122 0.263905 -0.017916
v 0.608282 0.263964 -0.018087
v 0.608443 0.264022 -0.018257
v 0.608603 0.264081 -0.018428
v 0.608764 0.264139 -0.018599
v 0.608925 0.264198 -0.018769
v 0.609085 0.264256 -0.018940
v 0.609246 0.264315 -0.019111
v 0.609407 0.264373 -0.019281
v 0.609567 0.264431 -0.019452
v 0.609728 0.264490 -0.019623
v 0.609889 0.264548 -0.019793
v 0.610050 0.264607 -0.019964
v 0.610210 0.264665 -0.020135
v 0.610371 0.264724 -0.020306
v 0.610532 0.264783 -0.020476
v 0.610693 0.264841 -0.020647
v 0.610853 0.264900 -0.020818
v 0.611014 0.264958 -0.020989
v 0.611175 0.265017 -0.021160
v 0.611336 0.265075 -0.021331
v 0.611497 0.265134 -0.021501
v 0.611658 0.265192 -0.021672
v 0.611819 0.265251 -0.021843
v 0.611979 0.265309 -0.022014
v 0.612140 0.265368 -0.022185
v 0.612301 0.265427 -0.022356
v 0.612462 0.265485 -0.022527
v 0.612623 0.265544 -0.022698
v 0.612784 0.265602 -0.022869
v 0.612945 0.265661 -0.023040
v 0.613106 0.265719 -0.023211
v 0.613267 0.265778 -0.023382
v 0.613428 0.265837 -0.023553
v 0.613589 0.265895 -0.023724
v 0.613750 0.265954 -0.023895
v 0.613911 0.266013 -0.024066
v 0.614072 0.266071 -0.024237
v 0.614233 0.266130 -0.024408
v 0.614394 0.266188 -0.024580
v 0.614556 0.266247 -0.024751
v 0.614717 0.266306 -0.024922
v 0.614878 0.266364 -0.025093
v 0.615039 0.266423 -0.025264
v 0.615200 0.266482 -0.025435
v 0.615361 0.266540 -0.025607
v 0.615506 0.266593 -0.025762
v 0.615647 0.266644 -0.025919
v 0.615786 0.266695 -0.026077
v 0.615923 0.266745 -0.026237
v 0.616057 0.266793 -0.026399
v 0.616188 0.266841 -0.026562
v 0.616317 0.266888 -0.026727
v 0.616443 0.266934 -0.026893
v 0.616567 0.266979 -0.027061
v 0.616688 0.267023 -0.027231
v 0.616807 0.267066 -0.027402
v 0.616923 0.267109 -0.027575
v 0.617037 0.267150 -0.027750
v 0.617149 0.267191 -0.027927
v 0.617258 0.267231 -0.028105
v 0.617365 0.267269 -0.028285
v 0.617469 0.267307 -0.028467
v 0.617571 0.267345 -0.028650
v 0.617671 0.267381 -0.028836
v 0.617768 0.267416 -0.029023
v 0.617863 0.267451 -0.029212
v 0.617956 0.267485 -0.029403
v 0.618046 0.267517 -0.029595
v 0.618133 0.267549 -0.029788
v 0.618218 0.267580 -0.029983
v 0.618301 0.267610 -0.030180
v 0.618381 0.267639 -0.030377
v 0.618459 0.267668 -0.030576
v 0.618533 0.267695 -0.030776
v 0.618606 0.267721 -0.030977
v 0.618675 0.267746 -0.031178
v 0.618742 0.267771 -0.031381
v 0.618806 0.267794 -0.031585
v 0.618867 0.267816 -0.031789
v 0.618926 0.267838 -0.031994
v 0.618982 0.267858 -0.032199
v 0.619035 0.267877 -0.032405
v 0.619085 0.267895 -0.032611
v 0.619132 0.267913 -0.032818
v 0.619176 0.267929 -0.033026
v 0.619217 0.267944 -0.033233
v 0.619256 0.267958 -0.033442
v 0.619292 0.267971 -0.033651
v 0.619324 0.267983 -0.033860
v 0.619354 0.267994 -0.034071
v 0.619382 0.268004 -0.034282
v 0.619406 0.268012 -0.034493
v 0.619427 0.268020 -0.034705
v 0.619446 0.268027 -0.034918
v 0.619461 0.268033 -0.035132
v 0.619474 0.268037 -0.035347
v 0.619484 0.268041 -0.035562
v 0.619491 0.268044 -0.035778
v 0.619496 0.268045 -0.035995
f 57 55 56
f 57 54 55
f 57 53 54
f 57 52 53
f 57 51 52
f 57 50 51
f 57 49 50
f 57 48 49
f 57 47 48
f 57 46 47
f 57 45 46
f 57 44 45
f 57 43 44
f 57 42 43
f 57 41 42
f 57 40 41
f 57 39 40
f 57 38 39
f 57 37 38
f 57 36 37
f 57 35 36
f 57 34 35
f 57 33 34
f 57 32 33
f 57 31 32
f 57 30 31
f 57 29 30
f 57 28 29
f 57 27 28
f 57 26 27
f 57 25 26
f 57 24 25
f 57 23 24
f 57 22 23
f 57 21 22
f 57 20 21
f 57 19 20
f 57 18 19
f 57 17 18
f 57 16 17
f 57 15 16
f 57 14 15
f 57 13 14
f 57 12 13
f 57 11 12
f 57 10 11
f 57 9 10
f 57 8 9
f 57 7 8
f 57 6 7
f 57 5 6
f 57 4 5
f 57 3 4
f 57 2 3
f 57 1 2
f 57 167 1
f 57 166 167
f 57 165 166
f 57 164 165
f 57 163 164
f 57 162 163
f 57 161 162
f 57 160 161
f 57 159 160
f 57 158 159
f 57 157 158
f 57 156 157
f 57 155 156
f 57 154 155
f 57 153 154
f 57 152 153
f 57 151 152
f 57 150 151
f 57 149 150
f 57 148 149
f 57 147 148
f 57 146 147
f 57 145 146
f 57 144 145
f 57 143 144
f 57 142 143
f 57 141 142
f 57 140 141
f 57 139 140
f 57 138 139
f 57 137 138
f 57 136 137
f 57 135 136
f 57 134 135
f 57 133 134
f 57 132 133
f 57 131 132
f 57 130 131
f 57 129 130
f 57 128 129
f 57 127 128
f 57 126 127
f 57 125 126
f 57 124 125
f 57 123 124
f 57 122 123
f 57 121 122
f 57 120 121
f 57 119 120
f 57 118 119
f 57 117 118
f 57 116 117
f 57 115 116
f 57 114 115
f 57 113 114
f 57 112 113
f 57 111 112
f 57 110 111
f 57 109 110
f 57 108 109
f 57 107 108
f 57 106 107
f 57 105 106
f 57 104 105
f 57 103 104
f 57 102 103
f 57 101 102
f 57 100 101
f 57 99 100
f 57 98 99
f 57 97 98
f 57 96 97
f 57 95 96
f 57 94 95
f 57 93 94
f 57 92 93
f 57 91 92
f 57 90 91
f 57 89 90
f 57 88 89
f 57 87 88
f 57 86 87
f 57 85 86
f 57 84 85
f 57 83 84
f 57 82 83
f 57 81 82
f 57 80 81
f 57 79 80
f 57 78 79
f 57 77 78
f 57 76 77
f 57 75 76
f 57 74 75
f 57 73 74
f 57 72 73
f 57 71 72
f 57 70 71
f 57 69 70
f 57 68 69
f 57 67 68
f 57 66 67
f 57 65 66
f 57 64 65
f 57 63 64
f 57 62 63
f 57 61 62
f 57 60 61
f 57 59 60
f 57 58 59
