v 0.621101 0.268972 -0.034418
v 0.618842 0.273426 -0.034697
v 0.616565 0.277875 -0.034958
v 0.614270 0.282318 -0.035200
v 0.611959 0.286755 -0.035423
v 0.609630 0.291186 -0.035628
v 0.607284 0.295610 -0.035814
v 0.604921 0.300028 -0.035982
v 0.602542 0.304439 -0.036131
v 0.600145 0.308842 -0.036262
v 0.597732 0.313238 -0.036373
v 0.595303 0.317627 -0.036467
v 0.592858 0.322007 -0.036541
v 0.590396 0.326379 -0.036597
v 0.587918 0.330743 -0.036634
v 0.585425 0.335098 -0.036653
v 0.582916 0.339444 -0.036653
v 0.580391 0.343781 -0.036634
v 0.577851 0.348108 -0.036597
v 0.575295 0.352426 -0.036541
v 0.572724 0.356734 -0.036467
v 0.570138 0.361032 -0.036373
v 0.567538 0.365320 -0.036262
v 0.564922 0.369597 -0.036131
v 0.562293 0.373863 -0.035982
v 0.559648 0.378118 -0.035814
v 0.556989 0.382362 -0.035628
v 0.554317 0.386594 -0.035423
v 0.551630 0.390815 -0.035200
v 0.548929 0.395023 -0.034958
v 0.546215 0.399220 -0.034697
v 0.543487 0.403403 -0.034418
v 0.614310 0.265933 -0.026784
v 0.614454 0.265985 -0.026940
v 0.614597 0.266038 -0.027095
v 0.614739 0.266091 -0.027249
v 0.614881 0.266143 -0.027403
v 0.615022 0.266196 -0.027556
v 0.615163 0.266249 -0.027709
v 0.615303 0.266303 -0.027862
v 0.615442 0.266356 -0.028014
v 0.615581 0.266410 -0.028165
v 0.615719 0.266463 -0.028316
v 0.615856 0.266517 -0.028467
v 0.615993 0.266572 -0.028617
v 0.616129 0.266626 -0.028767
v 0.616265 0.266681 -0.028916
v 0.616400 0.266735 -0.029065
v 0.616535 0.266790 -0.029214
v 0.616669 0.266846 -0.029362
v 0.616803 0.266901 -0.029510
v 0.616936 0.266957 -0.029658
v 0.617069 0.267013 -0.029806
v 0.617201 0.267069 -0.029953
v 0.617333 0.267125 -0.030100
v 0.617464 0.267182 -0.030246
v 0.617594 0.267238 -0.030391
v 0.617724 0.267295 -0.030537
v 0.617853 0.267352 -0.030681
v 0.617981 0.267409 -0.030825
v 0.618108 0.267465 -0.030968
v 0.618235 0.267522 -0.031110
v 0.618360 0.267579 -0.031251
v 0.618484 0.267636 -0.031392
v 0.618608 0.267693 -0.031531
v 0.618730 0.267750 -0.031670
v 0.618851 0.267807 -0.031807
v 0.618971 0.267864 -0.031944
v 0.619089 0.267920 -0.032079
v 0.619207 0.267977 -0.032212
v 0.619322 0.268033 -0.032345
v 0.619437 0.268089 -0.032476
v 0.619550 0.268145 -0.032606
v 0.619662 0.268201 -0.032735
v 0.619773 0.268256 -0.032863
v 0.619883 0.268312 -0.032989
v 0.619991 0.268367 -0.033115
v 0.620098 0.268423 -0.033239
v 0.620203 0.268478 -0.033362
v 0.620308 0.268533 -0.033483
v 0.620411 0.268588 -0.033604
v 0.620513 0.268643 -0.033724
v 0.620614 0.268698 -0.033842
v 0.620714 0.268753 -0.033959
v 0.620812 0.268808 -0.034076
v 0.620910 0.268862 -0.034191
v 0.621006 0.268917 -0.034305
v 0.621101 0.268972 -0.034418
v 0.618842 0.273426 -0.034697
v 0.616565 0.277875 -0.034958
v 0.614270 0.282318 -0.035200
v 0.611959 0.286755 -0.035423
v 0.609630 0.291186 -0.035628
v 0.607284 0.295610 -0.035814
v 0.604921 0.300028 -0.035982
v 0.602542 0.304439 -0.036131
v 0.600145 0.308842 -0.036262
v 0.597732 0.313238 -0.036373
v 0.595303 0.317627 -0.036467
v 0.592858 0.322007 -0.036541
v 0.590396 0.326379 -0.036597
v 0.587918 0.330743 -0.036634
v 0.585425 0.335098 -0.036653
v 0.582916 0.339444 -0.036653
v 0.580391 0.343781 -0.036634
v 0.577851 0.348108 -0.036597
v 0.575295 0.352426 -0.036541
v 0.572724 0.356734 -0.036467
v 0.570138 0.361032 -0.036373
v 0.567538 0.365320 -0.036262
v 0.564922 0.369597 -0.036131
v 0.562293 0.373863 -0.035982
v 0.559648 0.378118 -0.035814
v 0.556989 0.382362 -0.035628
v 0.554317 0.386594 -0.035423
v 0.551630 0.390815 -0.035200
v 0.548929 0.395023 -0.034958
v 0.546215 0.399220 -0.034697
v 0.543487 0.403403 -0.034418
v 0.543392 0.403348 -0.034305
v 0.543296 0.403292 -0.034191
v 0.543200 0.403235 -0.034076
v 0.543104 0.403177 -0.033959
v 0.543006 0.403118 -0.033842
v 0.542908 0.403059 -0.033724
v 0.542810 0.402998 -0.033604
v 0.542710 0.402936 -0.033483
v 0.542611 0.402873 -0.033362
v 0.542510 0.402809 -0.033239
v 0.542408 0.402744 -0.033115
v 0.542306 0.402678 -0.032989
v 0.542203 0.402611 -0.032863
v 0.542100 0.402543 -0.032735
v 0.541995 0.402474 -0.032606
v 0.541890 0.402404 -0.032476
v 0.541784 0.402333 -0.032345
v 0.541678 0.402260 -0.032212
v 0.541570 0.402187 -0.032079
v 0.541462 0.402113 -0.031944
v 0.541353 0.402037 -0.031807
v 0.541243 0.401961 -0.031670
v 0.541133 0.401883 -0.031531
v 0.541022 0.401805 -0.031392
v 0.540911 0.401726 -0.031251
v 0.540799 0.401646 -0.031110
v 0.540686 0.401565 -0.030968
v 0.540573 0.401483 -0.030825
v 0.540460 0.401401 -0.030681
v 0.540346 0.401317 -0.030537
v 0.540232 0.401233 -0.030391
v 0.540118 0.401149 -0.030246
v 0.540004 0.401063 -0.030100
v 0.539889 0.400978 -0.029953
v 0.539774 0.400891 -0.029806
v 0.539659 0.400804 -0.029658
v 0.539544 0.400716 -0.029510
v 0.539430 0.400628 -0.029362
v 0.539315 0.400540 -0.029214
v 0.539200 0.400450 -0.029065
v 0.539085 0.400361 -0.028916
v 0.538969 0.400271 -0.028767
v 0.538854 0.400180 -0.028617
v 0.538739 0.400088 -0.028467
v 0.538623 0.399996 -0.028316
v 0.538508 0.399904 -0.028165
v 0.538392 0.399810 -0.028014
v 0.538276 0.399717 -0.027862
v 0.538160 0.399622 -0.027709
v 0.538044 0.399527 -0.027556
v 0.537928 0.399431 -0.027403
v 0.537811 0.399335 -0.027249
v 0.537694 0.399238 -0.027095
v 0.537577 0.399140 -0.026940
v 0.537460 0.399041 -0.026784
f 173 174 1
f 1 2 3
f 3 4 5
f 5 6 7
f 7 8 9
f 9 10 11
f 11 12 13
f 13 14 15
f 15 16 17
f 17 18 19
f 19 20 21
f 21 22 23
f 23 24 25
f 25 26 27
f 27 28 29
f 29 30 31
f 31 32 33
f 33 34 35
f 35 36 37
f 37 38 39
f 39 40 41
f 41 42 43
f 43 44 45
f 45 46 47
f 47 48 49
f 49 50 51
f 51 52 53
f 53 54 55
f 55 56 57
f 57 58 59
f 59 60 61
f 61 62 63
f 63 64 65
f 65 66 67
f 67 68 69
f 69 70 71
f 71 72 73
f 73 74 75
f 75 76 77
f 77 78 79
f 79 80 81
f 81 82 83
f 83 84 85
f 85 86 87
f 87 88 89
f 89 90 91
f 91 92 93
f 93 94 95
f 95 96 97
f 97 98 99
f 99 100 101
f 101 102 103
f 103 104 105
f 105 106 107
f 107 108 109
f 109 110 111
f 111 112 113
f 113 114 115
f 115 116 117
f 117 118 119
f 119 120 121
f 121 122 123
f 123 124 125
f 125 126 127
f 127 128 129
f 129 130 131
f 131 132 133
f 133 134 135
f 135 136 137
f 137 138 139
f 139 140 141
f 141 142 143
f 143 144 145
f 145 146 147
f 147 148 149
f 149 150 151
f 151 152 153
f 153 154 155
f 155 156 157
f 157 158 159
f 159 160 161
f 161 162 163
f 163 164 165
f 165 166 167
f 167 168 169
f 169 170 171
f 171 172 173
f 173 1 3
f 3 5 7
f 7 9 11
f 11 13 15
f 15 17 19
f 19 21 23
f 23 25 27
f 27 29 31
f 31 33 35
f 35 37 39
f 39 41 43
f 43 45 47
f 47 49 51
f 51 53 55
f 55 57 59
f 59 61 63
f 63 65 67
f 67 69 71
f 71 73 75
f 75 77 79
f 79 81 83
f 83 85 87
f 87 89 91
f 91 93 95
f 95 97 99
f 99 101 103
f 103 105 107
f 107 109 111
f 111 113 115
f 115 117 119
f 119 121 123
f 123 125 127
f 127 129 131
f 131 133 135
f 135 137 139
f 139 141 143
f 143 145 147
f 147 149 151
f 151 153 155
f 155 157 159
f 159 161 163
f 163 165 167
f 167 169 171
f 171 173 3
f 3 7 11
f 11 15 19
f 19 23 27
f 27 31 35
f 35 39 43
f 43 47 51
f 51 55 59
f 59 63 67
f 67 71 75
f 75 79 83
f 83 87 91
f 91 95 99
f 99 103 107
f 107 111 115
f 115 119 123
f 123 127 131
f 131 135 139
f 139 143 147
f 147 151 155
f 155 159 163
f 163 167 171
f 171 3 11
f 11 19 27
f 27 35 43
f 43 51 59
f 59 67 75
f 75 83 91
f 91 99 107
f 107 115 123
f 123 131 139
f 139 147 155
f 155 163 171
f 171 11 27
f 27 43 59
f 59 75 91
f 91 107 123
f 123 139 155
f 155 171 27
f 27 59 91
f 91 123 155
