v -0.156399 -0.656631 -0.036213
v -0.155661 -0.652448 -0.025762
v -0.155635 -0.652297 -0.025607
v -0.155687 -0.652596 -0.025919
v -0.155713 -0.652742 -0.026077
v -0.155738 -0.652885 -0.026237
v -0.155763 -0.653025 -0.026399
v -0.155787 -0.653163 -0.026562
v -0.155811 -0.653298 -0.026727
v -0.155834 -0.653430 -0.026893
v -0.155857 -0.653560 -0.027061
v -0.155880 -0.653687 -0.027231
v -0.155902 -0.653812 -0.027402
v -0.155923 -0.653934 -0.027575
v -0.155944 -0.654053 -0.027750
v -0.155965 -0.654170 -0.027927
v -0.155985 -0.654285 -0.028105
v -0.156005 -0.654396 -0.028285
v -0.156024 -0.654506 -0.028467
v -0.156043 -0.654613 -0.028650
v -0.156061 -0.654717 -0.028836
v -0.156079 -0.654819 -0.029023
v -0.156097 -0.654919 -0.029212
v -0.156114 -0.655016 -0.029403
v -0.156131 -0.655110 -0.029595
v -0.156147 -0.655202 -0.029788
v -0.156163 -0.655291 -0.029983
v -0.156178 -0.655378 -0.030180
v -0.156193 -0.655462 -0.030377
v -0.156207 -0.655543 -0.030576
v -0.156221 -0.655621 -0.030776
v -0.156234 -0.655697 -0.030977
v -0.156247 -0.655770 -0.031178
v -0.156259 -0.655840 -0.031381
v -0.156271 -0.655907 -0.031585
v -0.156282 -0.655971 -0.031789
v -0.156293 -0.656033 -0.031994
v -0.156304 -0.656091 -0.032199
v -0.156313 -0.656146 -0.032405
v -0.156323 -0.656199 -0.032611
v -0.156331 -0.656248 -0.032818
v -0.156340 -0.656295 -0.033026
v -0.156347 -0.656338 -0.033233
v -0.156354 -0.656378 -0.033442
v -0.156361 -0.656416 -0.033651
v -0.156367 -0.656450 -0.033860
v -0.156372 -0.656482 -0.034071
v -0.156378 -0.656510 -0.034282
v -0.156382 -0.656535 -0.034493
v -0.156386 -0.656558 -0.034705
v -0.156389 -0.656577 -0.034918
v -0.156392 -0.656594 -0.035132
v -0.156395 -0.656607 -0.035347
v -0.156396 -0.656618 -0.035562
v -0.156398 -0.656625 -0.035778
v -0.156399 -0.656630 -0.035995
v -0.161276 -0.655450 -0.036213
v -0.166145 -0.654233 -0.036213
v -0.171004 -0.652980 -0.036213
v -0.175854 -0.651690 -0.036213
v -0.180695 -0.650365 -0.036213
v -0.185525 -0.649003 -0.036213
v -0.190345 -0.647606 -0.036213
v -0.195154 -0.646173 -0.036213
v -0.199953 -0.644704 -0.036213
v -0.204741 -0.643200 -0.036213
v -0.209517 -0.641660 -0.036213
v -0.214282 -0.640085 -0.036213
v -0.219035 -0.638474 -0.036213
v -0.223776 -0.636828 -0.036213
v -0.228504 -0.635146 -0.036213
v -0.233220 -0.633430 -0.036213
v -0.237923 -0.631679 -0.036213
v -0.242613 -0.629892 -0.036213
v -0.247289 -0.628071 -0.036213
v -0.251952 -0.626215 -0.036213
v -0.256600 -0.624325 -0.036213
v -0.261235 -0.622400 -0.036213
v -0.265855 -0.620440 -0.036213
v -0.270461 -0.618447 -0.036213
v -0.275051 -0.616419 -0.036213
v -0.279626 -0.614357 -0.036213
v -0.284186 -0.612261 -0.036213
v -0.288730 -0.610131 -0.036213
v -0.293258 -0.607968 -0.036213
v -0.297770 -0.605770 -0.036213
v -0.302266 -0.603540 -0.036213
v -0.302265 -0.603539 -0.035995
v -0.302263 -0.603535 -0.035778
v -0.302259 -0.603528 -0.035562
v -0.302254 -0.603519 -0.035347
v -0.302247 -0.603507 -0.035132
v -0.302239 -0.603493 -0.034918
v -0.302229 -0.603475 -0.034705
v -0.302217 -0.603456 -0.034493
v -0.302204 -0.603433 -0.034282
v -0.302190 -0.603408 -0.034071
v -0.302174 -0.603381 -0.033860
v -0.302157 -0.603351 -0.033651
v -0.302138 -0.603318 -0.033442
v -0.302117 -0.603282 -0.033233
v -0.302095 -0.603244 -0.033026
v -0.302071 -0.603203 -0.032818
v -0.302046 -0.603160 -0.032611
v -0.302020 -0.603114 -0.032405
v -0.301992 -0.603065 -0.032199
v -0.301962 -0.603014 -0.031994
v -0.301931 -0.602960 -0.031789
v -0.301898 -0.602903 -0.031585
v -0.301864 -0.602844 -0.031381
v -0.301829 -0.602782 -0.031178
v -0.301792 -0.602718 -0.030977
v -0.301753 -0.602652 -0.030776
v -0.301713 -0.602583 -0.030576
v -0.301672 -0.602511 -0.030377
v -0.301630 -0.602438 -0.030180
v -0.301586 -0.602362 -0.029983
v -0.301540 -0.602283 -0.029788
v -0.301494 -0.602202 -0.029595
v -0.301446 -0.602119 -0.029403
v -0.301396 -0.602034 -0.029212
v -0.301346 -0.601946 -0.029023
v -0.301294 -0.601857 -0.028836
v -0.301241 -0.601765 -0.028650
v -0.301187 -0.601671 -0.028467
v -0.301131 -0.601575 -0.028285
v -0.301075 -0.601476 -0.028105
v -0.301016 -0.601376 -0.027927
v -0.300957 -0.601273 -0.027750
v -0.300896 -0.601168 -0.027575
v -0.300835 -0.601061 -0.027402
v -0.300771 -0.600951 -0.027231
v -0.300707 -0.600839 -0.027061
v -0.300641 -0.600725 -0.026893
v -0.300574 -0.600609 -0.026727
v -0.300505 -0.600490 -0.026562
v -0.300435 -0.600369 -0.026399
v -0.300364 -0.600246 -0.026237
v -0.300291 -0.600120 -0.026077
v -0.300217 -0.599992 -0.025919
v -0.300142 -0.599861 -0.025762
v -0.300065 -0.599728 -0.025607
f 1 2 3
f 1 4 2
f 1 5 4
f 1 6 5
f 1 7 6
f 1 8 7
f 1 9 8
f 1 10 9
f 1 11 10
f 1 12 11
f 1 13 12
f 1 14 13
f 1 15 14
f 1 16 15
f 1 17 16
f 1 18 17
f 1 19 18
f 1 20 19
f 1 21 20
f 1 22 21
f 1 23 22
f 1 24 23
f 1 25 24
f 1 26 25
f 1 27 26
f 1 28 27
f 1 29 28
f 1 30 29
f 1 31 30
f 1 32 31
f 1 33 32
f 1 34 33
f 1 35 34
f 1 36 35
f 1 37 36
f 1 38 37
f 1 39 38
f 1 40 39
f 1 41 40
f 1 42 41
f 1 43 42
f 1 44 43
f 1 45 44
f 1 46 45
f 1 47 46
f 1 48 47
f 1 49 48
f 1 50 49
f 1 51 50
f 1 52 51
f 1 53 52
f 1 54 53
f 1 55 54
f 1 56 55
f 1 58 57
f 1 59 58
f 1 60 59
f 1 61 60
f 1 62 61
f 1 63 62
f 1 64 63
f 1 65 64
f 1 66 65
f 1 67 66
f 1 68 67
f 1 69 68
f 1 70 69
f 1 71 70
f 1 72 71
f 1 73 72
f 1 74 73
f 1 75 74
f 1 76 75
f 1 77 76
f 1 78 77
f 1 79 78
f 1 80 79
f 1 81 80
f 1 82 81
f 1 83 82
f 1 84 83
f 1 85 84
f 1 86 85
f 1 87 86
f 1 88 87
f 1 89 88
f 1 90 89
f 1 91 90
f 1 92 91
f 1 93 92
f 1 94 93
f 1 95 94
f 1 96 95
f 1 97 96
f 1 98 97
f 1 99 98
f 1 100 99
f 1 101 100
f 1 102 101
f 1 103 102
f 1 104 103
f 1 105 104
f 1 106 105
f 1 107 106
f 1 108 107
f 1 109 108
f 1 110 109
f 1 111 110
f 1 112 111
f 1 113 112
f 1 114 113
f 1 115 114
f 1 116 115
f 1 117 116
f 1 118 117
f 1 119 118
f 1 120 119
f 1 121 120
f 1 122 121
f 1 123 122
f 1 124 123
f 1 125 124
f 1 126 125
f 1 127 126
f 1 128 127
f 1 129 128
f 1 130 129
f 1 131 130
f 1 132 131
f 1 133 132
f 1 134 133
f 1 135 134
f 1 136 135
f 1 137 136
f 1 138 137
f 1 139 138
f 1 140 139
f 1 141 140
f 1 142 141
f 87 142 86
f 86 142 85
f 85 142 84
f 84 142 83
f 83 142 82
f 82 142 81
f 81 142 80
f 80 142 79
f 79 142 78
f 78 142 77
f 77 142 76
f 76 142 75
f 75 142 74
f 74 142 73
f 73 142 72
f 72 142 71
f 71 142 70
f 70 142 69
f 69 142 68
f 68 142 67
f 67 142 66
f 66 142 65
f 65 142 64
f 64 142 63
f 63 142 62
f 62 142 61
f 61 142 60
f 60 142 59
f 59 142 58
f 58 142 57
f 57 142 1
