v 0.481892 0.000000 -0.555119
v 0.463006 0.000000 -0.570966
v 0.462677 0.000000 -0.571231
v 0.462337 0.000000 -0.571481
v 0.461987 0.000000 -0.571717
v 0.461627 0.000000 -0.571938
v 0.461258 0.000000 -0.572143
v 0.460881 0.000000 -0.572333
v 0.460496 0.000000 -0.572506
v 0.460104 0.000000 -0.572664
v 0.459706 0.000000 -0.572804
v 0.459302 0.000000 -0.572928
v 0.458893 0.000000 -0.573034
v 0.458481 0.000000 -0.573123
v 0.458065 0.000000 -0.573195
v 0.457646 0.000000 -0.573249
v 0.457225 0.000000 -0.573285
v 0.456803 0.000000 -0.573303
v 0.456381 0.000000 -0.573304
v 0.455959 0.000000 -0.573287
v 0.455539 0.000000 -0.573251
v 0.455120 0.000000 -0.573199
v 0.454703 0.000000 -0.573128
v 0.454290 0.000000 -0.573040
v 0.453881 0.000000 -0.572935
v 0.453477 0.000000 -0.572813
v 0.453079 0.000000 -0.572673
v 0.452686 0.000000 -0.572517
v 0.452301 0.000000 -0.572345
v 0.451923 0.000000 -0.572156
v 0.451554 0.000000 -0.571952
v 0.451193 0.000000 -0.571732
v 0.450842 0.000000 -0.571497
v 0.401105 0.000000 -0.536670
v 0.458866 0.010000 -0.488203
v 0.457090 0.010000 -0.489866
v 0.455307 0.010000 -0.491523
v 0.453519 0.010000 -0.493174
v 0.451725 0.010000 -0.494818
v 0.449924 0.010000 -0.496455
v 0.448118 0.010000 -0.498086
v 0.446306 0.010000 -0.499711
v 0.444488 0.010000 -0.501329
v 0.442664 0.010000 -0.502940
v 0.440835 0.010000 -0.504544
v 0.438999 0.010000 -0.506142
v 0.437158 0.010000 -0.507733
v 0.435311 0.010000 -0.509318
v 0.433458 0.010000 -0.510896
v 0.431599 0.010000 -0.512467
v 0.429735 0.010000 -0.514031
v 0.427865 0.010000 -0.515589
v 0.425989 0.010000 -0.517139
v 0.424108 0.010000 -0.518683
v 0.422221 0.010000 -0.520220
v 0.420329 0.010000 -0.521750
v 0.418431 0.010000 -0.523274
v 0.416528 0.010000 -0.524790
v 0.414619 0.010000 -0.526300
v 0.412704 0.010000 -0.527802
v 0.410785 0.010000 -0.529298
v 0.408859 0.010000 -0.530786
v 0.406929 0.010000 -0.532268
v 0.404993 0.010000 -0.533742
v 0.403051 0.010000 -0.535210
v 0.401105 0.010000 -0.536670
v 0.458866 0.000000 -0.488203
v 0.484527 0.000000 -0.543233
v 0.484697 0.000000 -0.543619
v 0.484851 0.000000 -0.544012
v 0.484988 0.000000 -0.544411
v 0.485108 0.000000 -0.544816
v 0.485211 0.000000 -0.545226
v 0.485297 0.000000 -0.545639
v 0.485365 0.000000 -0.546056
v 0.485415 0.000000 -0.546475
v 0.485448 0.000000 -0.546896
v 0.485463 0.000000 -0.547318
v 0.485460 0.000000 -0.547740
v 0.485439 0.000000 -0.548162
v 0.485401 0.000000 -0.548582
v 0.485344 0.000000 -0.549001
v 0.485270 0.000000 -0.549417
v 0.485179 0.000000 -0.549829
v 0.485070 0.000000 -0.550237
v 0.484944 0.000000 -0.550640
v 0.484802 0.000000 -0.551037
v 0.484642 0.000000 -0.551428
v 0.484467 0.000000 -0.551812
v 0.484275 0.000000 -0.552188
v 0.484067 0.000000 -0.552556
v 0.483844 0.000000 -0.552915
v 0.483607 0.000000 -0.553263
v 0.483354 0.000000 -0.553602
v 0.483088 0.000000 -0.553930
v 0.482808 0.000000 -0.554246
v 0.482515 0.000000 -0.554550
v 0.482209 0.000000 -0.554841
f 1 2 3
f 1 3 4
f 1 4 5
f 1 5 6
f 1 6 7
f 1 7 8
f 1 8 9
f 1 9 10
f 1 10 11
f 1 11 12
f 1 12 13
f 1 13 14
f 1 14 15
f 1 15 16
f 1 16 17
f 1 17 18
f 1 18 19
f 1 19 20
f 1 20 21
f 1 21 22
f 1 22 23
f 1 23 24
f 1 24 25
f 1 25 26
f 1 26 27
f 1 27 28
f 1 28 29
f 1 29 30
f 1 30 31
f 1 31 32
f 1 32 33
f 1 33 34
f 1 34 35
f 1 35 36
f 1 36 37
f 1 37 38
f 1 38 39
f 1 39 40
f 1 40 41
f 1 41 42
f 1 42 43
f 1 43 44
f 1 44 45
f 1 45 46
f 1 46 47
f 1 47 48
f 1 48 49
f 1 49 50
f 1 50 51
f 1 51 52
f 1 52 53
f 1 53 54
f 1 54 55
f 1 55 56
f 1 56 57
f 1 57 58
f 1 58 59
f 1 59 60
f 1 60 61
f 1 61 62
f 1 62 63
f 1 63 64
f 1 64 65
f 1 65 66
f 1 66 67
f 1 67 68
f 1 68 69
f 1 69 70
f 1 70 71
f 1 71 72
f 1 72 73
f 1 73 74
f 1 74 75
f 1 75 76
f 1 76 77
f 1 77 78
f 1 78 79
f 1 79 80
f 1 80 81
f 1 81 82
f 1 82 83
f 1 83 84
f 1 84 85
f 1 85 86
f 1 86 87
f 1 87 88
f 1 88 89
f 1 89 90
f 1 90 91
f 1 91 92
f 1 92 93
f 1 93 94
f 1 94 95
f 1 95 96
f 1 96 97
f 1 97 98
