v 0.626026 -0.070653 -1.061000
v 0.626026 -0.070653 -1.084841
v 0.623553 -0.070571 -1.085500
v 0.621081 -0.070490 -1.086158
v 0.618609 -0.070409 -1.086816
v 0.616137 -0.070327 -1.087474
v 0.613666 -0.070246 -1.088132
v 0.611195 -0.070164 -1.088790
v 0.608725 -0.070083 -1.089448
v 0.606255 -0.070001 -1.090105
v 0.603785 -0.069920 -1.090763
v 0.601316 -0.069839 -1.091420
v 0.598846 -0.069757 -1.092078
v 0.596378 -0.069676 -1.092735
v 0.593909 -0.069595 -1.093392
v 0.591441 -0.069513 -1.094049
v 0.588973 -0.069432 -1.094706
v 0.586506 -0.069351 -1.095363
v 0.584039 -0.069270 -1.096019
v 0.581572 -0.069188 -1.096676
v 0.579106 -0.069107 -1.097332
v 0.576640 -0.069026 -1.097989
v 0.574174 -0.068945 -1.098645
v 0.571709 -0.068863 -1.099301
v 0.569244 -0.068782 -1.099957
v 0.566779 -0.068701 -1.100613
v 0.564315 -0.068620 -1.101269
v 0.561851 -0.068539 -1.101925
v 0.559388 -0.068457 -1.102581
v 0.556924 -0.068376 -1.103236
v 0.554461 -0.068295 -1.103892
v 0.551999 -0.068214 -1.104547
v 0.549537 -0.068133 -1.105202
v 0.547075 -0.068052 -1.105857
v 0.544614 -0.067971 -1.106512
v 0.542153 -0.067890 -1.107167
v 0.539692 -0.067808 -1.107822
v 0.537232 -0.067727 -1.108477
v 0.534772 -0.067646 -1.109131
v 0.532312 -0.067565 -1.109786
v 0.529853 -0.067484 -1.110440
v 0.527394 -0.067403 -1.111094
v 0.524935 -0.067322 -1.111748
v 0.522477 -0.067241 -1.112402
v 0.520020 -0.067160 -1.113056
v 0.517562 -0.067079 -1.113710
v 0.515105 -0.066998 -1.114363
v 0.512648 -0.066917 -1.115017
v 0.510192 -0.066836 -1.115670
v 0.507736 -0.066756 -1.116324
v 0.505281 -0.066675 -1.116977
v 0.502825 -0.066594 -1.117630
v 0.500371 -0.066513 -1.118283
v 0.497916 -0.066432 -1.118935
v 0.495462 -0.066351 -1.119588
v 0.493008 -0.066270 -1.120241
v 0.490555 -0.066190 -1.120893
v 0.490555 -0.066190 -1.061000
v 0.489108 -0.076147 -1.051000
v 0.624820 -0.080619 -1.051000
f 60 2 1
f 60 3 2
f 60 4 3
f 60 5 4
f 60 6 5
f 60 7 6
f 60 8 7
f 60 9 8
f 60 10 9
f 60 11 10
f 60 12 11
f 60 13 12
f 60 14 13
f 60 15 14
f 60 16 15
f 60 17 16
f 60 18 17
f 60 19 18
f 60 20 19
f 60 21 20
f 60 22 21
f 60 23 22
f 60 24 23
f 60 25 24
f 60 26 25
f 60 27 26
f 60 28 27
f 60 29 28
f 60 30 29
f 60 31 30
f 60 32 31
f 60 33 32
f 60 34 33
f 60 35 34
f 60 36 35
f 60 37 36
f 60 38 37
f 60 39 38
f 60 40 39
f 60 41 40
f 60 42 41
f 60 43 42
f 60 44 43
f 60 45 44
f 60 46 45
f 60 47 46
f 60 48 47
f 60 49 48
f 60 50 49
f 60 51 50
f 60 52 51
f 60 53 52
f 60 54 53
f 60 55 54
f 60 56 55
f 60 57 56
f 60 58 57
f 58 60 59
