v -0.228190 0.220000 0.691229
v -0.197490 0.220000 0.647385
v -0.186514 0.220000 0.643516
v -0.186514 0.010000 0.643516
v -0.197490 0.016837 0.647385
v -0.197414 0.016713 0.647277
v -0.197339 0.016588 0.647170
v -0.197264 0.016463 0.647062
v -0.197188 0.016338 0.646955
v -0.197113 0.016214 0.646847
v -0.197038 0.016089 0.646740
v -0.196963 0.015964 0.646632
v -0.196888 0.015839 0.646525
v -0.196812 0.015715 0.646417
v -0.196737 0.015590 0.646310
v -0.196662 0.015465 0.646202
v -0.196587 0.015341 0.646095
v -0.196512 0.015216 0.645988
v -0.196436 0.015092 0.645880
v -0.196361 0.014967 0.645773
v -0.196286 0.014842 0.645666
v -0.196211 0.014718 0.645558
v -0.196136 0.014593 0.645451
v -0.196061 0.014469 0.645344
v -0.195986 0.014344 0.645237
v -0.195910 0.014220 0.645129
v -0.195835 0.014096 0.645022
v -0.195760 0.013971 0.644915
v -0.195685 0.013847 0.644808
v -0.195610 0.013722 0.644700
v -0.195535 0.013598 0.644593
v -0.195460 0.013474 0.644486
v -0.195385 0.013349 0.644379
v -0.195310 0.013225 0.644272
v -0.195235 0.013101 0.644165
v -0.195160 0.012977 0.644057
v -0.195085 0.012852 0.643950
v -0.195010 0.012728 0.643843
v -0.194935 0.012604 0.643736
v -0.194860 0.012480 0.643629
v -0.194785 0.012356 0.643522
v -0.194710 0.012231 0.643415
v -0.194635 0.012107 0.643308
v -0.194560 0.011983 0.643201
v -0.194485 0.011859 0.643094
v -0.194411 0.011735 0.642987
v -0.194336 0.011611 0.642880
v -0.194261 0.011487 0.642773
v -0.194186 0.011363 0.642666
v -0.194111 0.011239 0.642559
v -0.194036 0.011115 0.642453
v -0.193961 0.010991 0.642346
v -0.193886 0.010867 0.642239
v -0.193812 0.010743 0.642132
v -0.193737 0.010619 0.642025
v -0.193662 0.010495 0.641918
v -0.193587 0.010371 0.641811
v -0.193512 0.010248 0.641705
v -0.193438 0.010124 0.641598
v -0.193363 0.010000 0.641491
v -0.193363 0.000000 0.641491
v -0.228190 0.000000 0.691229
f 62 1 2
f 62 2 3
f 3 4 5
f 62 3 5
f 62 5 6
f 62 6 7
f 62 7 8
f 62 8 9
f 62 9 10
f 62 10 11
f 62 11 12
f 62 12 13
f 62 13 14
f 62 14 15
f 62 15 16
f 62 16 17
f 62 17 18
f 62 18 19
f 62 19 20
f 62 20 21
f 62 21 22
f 62 22 23
f 62 23 24
f 62 24 25
f 62 25 26
f 62 26 27
f 62 27 28
f 62 28 29
f 62 29 30
f 62 30 31
f 62 31 32
f 62 32 33
f 62 33 34
f 62 34 35
f 62 35 36
f 62 36 37
f 62 37 38
f 62 38 39
f 62 39 40
f 62 40 41
f 62 41 42
f 62 42 43
f 62 43 44
f 62 44 45
f 62 45 46
f 62 46 47
f 62 47 48
f 62 48 49
f 62 49 50
f 62 50 51
f 62 51 52
f 62 52 53
f 62 53 54
f 62 54 55
f 62 55 56
f 62 56 57
f 62 57 58
f 62 58 59
f 62 59 60
f 60 61 62
