v -0.531301 -0.393598 -0.016211
v -0.530366 -0.394712 -0.016125
v -0.529431 -0.395827 -0.016041
v -0.528496 -0.396941 -0.015961
v -0.527561 -0.398055 -0.015885
v -0.526626 -0.399169 -0.015811
v -0.525691 -0.400284 -0.015741
v -0.524756 -0.401398 -0.015673
v -0.523821 -0.402512 -0.015609
v -0.522886 -0.403626 -0.015548
v -0.521951 -0.404741 -0.015491
v -0.521016 -0.405855 -0.015436
v -0.520081 -0.406969 -0.015385
v -0.519146 -0.408083 -0.015337
v -0.518211 -0.409198 -0.015292
v -0.517276 -0.410312 -0.015250
v -0.516341 -0.411426 -0.015212
v -0.515406 -0.412540 -0.015177
v -0.514471 -0.413655 -0.015145
v -0.513536 -0.414769 -0.015116
v -0.512602 -0.415883 -0.015090
v -0.511667 -0.416997 -0.015068
v -0.510732 -0.418112 -0.015049
v -0.509797 -0.419226 -0.015032
v -0.508862 -0.420340 -0.015020
v -0.507927 -0.421454 -0.015010
v -0.506992 -0.422568 -0.015004
v -0.506057 -0.423683 -0.015000
v -0.505122 -0.424797 -0.015000
v -0.504187 -0.425911 -0.015004
v -0.503252 -0.427025 -0.015010
v -0.502317 -0.428140 -0.015020
v -0.501382 -0.429254 -0.015032
v -0.500447 -0.430368 -0.015049
v -0.499512 -0.431482 -0.015068
v -0.498577 -0.432597 -0.015090
v -0.497642 -0.433711 -0.015116
v -0.496707 -0.434825 -0.015145
v -0.495772 -0.435939 -0.015177
v -0.494837 -0.437054 -0.015212
v -0.493902 -0.438168 -0.015250
v -0.492967 -0.439282 -0.015292
v -0.492032 -0.440396 -0.015337
v -0.491097 -0.441511 -0.015385
v -0.490162 -0.442625 -0.015436
v -0.489227 -0.443739 -0.015491
v -0.488292 -0.444853 -0.015548
v -0.487358 -0.445968 -0.015609
v -0.486423 -0.447082 -0.015673
v -0.485488 -0.448196 -0.015741
v -0.484553 -0.449310 -0.015811
v -0.483618 -0.450425 -0.015885
v -0.482683 -0.451539 -0.015961
v -0.481748 -0.452653 -0.016041
v -0.480813 -0.453767 -0.016125
v -0.479878 -0.454882 -0.016211
v -0.479878 -0.454882 -0.857174
v -0.480813 -0.453767 -0.857376
v -0.481748 -0.452653 -0.857570
v -0.482683 -0.451539 -0.857757
v -0.483618 -0.450425 -0.857936
v -0.484553 -0.449310 -0.858108
v -0.485487 -0.448196 -0.858272
v -0.486422 -0.447082 -0.858429
v -0.487357 -0.445968 -0.858578
v -0.488292 -0.444854 -0.858720
v -0.489227 -0.443739 -0.858855
v -0.490162 -0.442625 -0.858982
v -0.491097 -0.441511 -0.859102
v -0.492032 -0.440397 -0.859214
v -0.492967 -0.439283 -0.859318
v -0.493902 -0.438168 -0.859416
v -0.494837 -0.437054 -0.859505
v -0.495772 -0.435940 -0.859588
v -0.496707 -0.434826 -0.859662
v -0.497642 -0.433711 -0.859730
v -0.498577 -0.432597 -0.859790
v -0.499512 -0.431483 -0.859842
v -0.500447 -0.430369 -0.859887
v -0.501382 -0.429254 -0.859924
v -0.502316 -0.428140 -0.859954
v -0.503251 -0.427026 -0.859977
v -0.504186 -0.425912 -0.859992
v -0.505121 -0.424798 -0.859999
v -0.506056 -0.423683 -0.859999
v -0.506991 -0.422569 -0.859992
v -0.507926 -0.421455 -0.859977
v -0.508861 -0.420341 -0.859954
v -0.509796 -0.419226 -0.859924
v -0.510731 -0.418112 -0.859887
v -0.511666 -0.416998 -0.859842
v -0.512601 -0.415884 -0.859790
v -0.513536 -0.414769 -0.859730
v -0.514471 -0.413655 -0.859662
v -0.515406 -0.412541 -0.859588
v -0.516341 -0.411427 -0.859505
v -0.517276 -0.410312 -0.859416
v -0.518211 -0.409198 -0.859318
v -0.519146 -0.408084 -0.859214
v -0.520081 -0.406970 -0.859102
v -0.521016 -0.405855 -0.858982
v -0.521951 -0.404741 -0.858855
v -0.522886 -0.403627 -0.858720
v -0.523821 -0.402512 -0.858579
v -0.524756 -0.401398 -0.858429
v -0.525691 -0.400284 -0.858272
v -0.526626 -0.399170 -0.858108
v -0.527561 -0.398055 -0.857936
v -0.528496 -0.396941 -0.857757
v -0.529431 -0.395827 -0.857570
v -0.530366 -0.394712 -0.857376
v -0.531301 -0.393598 -0.857174
f 29 28 27
f 29 27 30
f 30 27 26
f 30 26 31
f 31 26 25
f 31 25 32
f 32 25 24
f 32 24 33
f 33 24 23
f 33 23 34
f 34 23 22
f 34 22 35
f 35 22 21
f 35 21 36
f 36 21 20
f 36 20 37
f 37 20 19
f 37 19 38
f 38 19 18
f 38 18 39
f 39 18 17
f 39 17 40
f 40 17 16
f 40 16 41
f 41 16 15
f 41 15 42
f 42 15 14
f 42 14 43
f 43 14 13
f 43 13 44
f 44 13 12
f 44 12 45
f 45 12 11
f 45 11 46
f 46 11 10
f 46 10 47
f 47 10 9
f 47 9 48
f 48 9 8
f 48 8 49
f 49 8 7
f 49 7 50
f 50 7 6
f 50 6 51
f 51 6 5
f 51 5 52
f 52 5 4
f 52 4 53
f 53 4 3
f 53 3 54
f 54 3 2
f 54 2 55
f 55 2 1
f 55 1 56
f 56 1 112
f 56 112 57
f 57 112 111
f 57 111 58
f 58 111 110
f 58 110 59
f 59 110 109
f 59 109 60
f 60 109 61
f 61 109 108
f 61 108 62
f 62 108 107
f 62 107 63
f 63 107 106
f 63 106 64
f 64 106 105
f 64 105 65
f 65 105 104
f 65 104 66
f 66 104 103
f 66 103 67
f 67 103 102
f 67 102 68
f 68 102 101
f 68 101 69
f 69 101 100
f 69 100 70
f 70 100 99
f 70 99 71
f 71 99 98
f 71 98 72
f 72 98 97
f 72 97 73
f 73 97 96
f 73 96 74
f 74 96 95
f 74 95 75
f 75 95 94
f 75 94 76
f 76 94 93
f 76 93 77
f 77 93 92
f 77 92 78
f 78 92 91
f 78 91 79
f 79 91 90
f 79 90 80
f 80 90 89
f 80 89 81
f 81 89 88
f 81 88 82
f 82 88 87
f 82 87 83
f 83 87 86
f 83 86 84
f 84 86 85
