v -2.615000 0.375000 -3.150000
v -2.614615 0.382588 -3.150000
v -2.614904 0.378799 -3.150000
v -2.614135 0.386357 -3.150000
v -2.613465 0.390097 -3.150000
v -2.612606 0.393799 -3.150000
v -2.611560 0.397452 -3.150000
v -2.610331 0.401048 -3.150000
v -2.608922 0.404577 -3.150000
v -2.607335 0.408030 -3.150000
v -2.605576 0.411398 -3.150000
v -2.615000 0.250000 -3.025000
v -2.614904 0.250000 -3.021201
v -2.614615 0.250000 -3.017412
v -2.614135 0.250000 -3.013643
v -2.613465 0.250000 -3.009903
v -2.612606 0.250000 -3.006201
v -2.611560 0.250000 -3.002548
v -2.610331 0.250000 -2.998952
v -2.608922 0.250000 -2.995423
v -2.607335 0.250000 -2.991970
v -2.605576 0.250000 -2.988602
v -2.605576 0.411190 -3.141825
v -2.615000 0.374840 -3.143669
v -2.605576 0.410570 -3.133672
v -2.615000 0.374359 -3.137354
v -2.615000 0.373559 -3.131072
v -2.605576 0.409536 -3.125560
v -2.605576 0.408094 -3.117511
v -2.615000 0.372441 -3.124838
v -2.605576 0.406245 -3.109545
v -2.615000 0.371010 -3.118668
v -2.605576 0.403996 -3.101683
v -2.615000 0.369267 -3.112580
v -2.615000 0.367219 -3.106587
v -2.605576 0.401351 -3.093946
v -2.605576 0.398318 -3.086352
v -2.615000 0.364870 -3.100706
v -2.605576 0.394904 -3.078921
v -2.615000 0.362226 -3.094951
v -2.605576 0.391117 -3.071673
v -2.615000 0.359293 -3.089337
v -2.605576 0.386969 -3.064626
v -2.615000 0.356081 -3.083879
v -2.615000 0.352595 -3.078591
v -2.605576 0.382469 -3.057799
v -2.605576 0.377629 -3.051208
v -2.615000 0.348847 -3.073487
v -2.605576 0.372462 -3.044870
v -2.615000 0.344845 -3.068578
v -2.605576 0.366980 -3.038802
v -2.615000 0.340599 -3.063879
v -2.605576 0.361198 -3.033020
v -2.615000 0.336121 -3.059401
v -2.605576 0.355130 -3.027538
v -2.615000 0.331422 -3.055155
v -2.615000 0.326513 -3.051153
v -2.605576 0.348792 -3.022371
v -2.605576 0.342201 -3.017531
v -2.615000 0.321409 -3.047405
v -2.615000 0.316121 -3.043919
v -2.605576 0.335374 -3.013031
v -2.615000 0.310663 -3.040707
v -2.605576 0.328327 -3.008883
v -2.605576 0.321079 -3.005096
v -2.615000 0.305049 -3.037774
v -2.605576 0.313648 -3.001682
v -2.615000 0.299294 -3.035130
v -2.615000 0.293413 -3.032781
v -2.605576 0.306054 -2.998649
v -2.605576 0.298317 -2.996004
v -2.615000 0.287420 -3.030733
v -2.605576 0.290455 -2.993755
v -2.615000 0.281332 -3.028990
v -2.605576 0.282489 -2.991906
v -2.615000 0.275162 -3.027559
v -2.605576 0.274440 -2.990464
v -2.615000 0.268928 -3.026441
v -2.605576 0.266328 -2.989430
v -2.615000 0.262646 -3.025641
v -2.605576 0.258175 -2.988810
v -2.615000 0.256331 -3.025160
v -2.601557 0.417845 -3.150000
v -2.603648 0.414672 -3.150000
v -2.599308 0.420908 -3.150000
v -2.596907 0.423853 -3.150000
v -2.594359 0.426673 -3.150000
v -2.591673 0.429359 -3.150000
v -2.588853 0.431907 -3.150000
v -2.585908 0.434308 -3.150000
v -2.582845 0.436557 -3.150000
v -2.579672 0.438648 -3.150000
v -2.603648 0.250000 -2.985328
v -2.601557 0.250000 -2.982155
v -2.599308 0.250000 -2.979092
v -2.596907 0.250000 -2.976147
v -2.594359 0.250000 -2.973327
v -2.591673 0.250000 -2.970641
v -2.588853 0.250000 -2.968093
v -2.585908 0.250000 -2.965692
v -2.582845 0.250000 -2.963443
v -2.579672 0.250000 -2.961352
v -2.579672 0.438406 -3.140445
v -2.579672 0.437680 -3.130915
v -2.579672 0.436473 -3.121433
v -2.579672 0.434787 -3.112025
v -2.579672 0.432626 -3.102715
v -2.579672 0.429997 -3.093526
v -2.579672 0.426905 -3.084481
v -2.579672 0.423360 -3.075605
v -2.579672 0.419369 -3.066920
v -2.579672 0.414944 -3.058449
v -2.579672 0.410095 -3.050212
v -2.579672 0.404836 -3.042231
v -2.579672 0.399179 -3.034527
v -2.579672 0.393138 -3.027120
v -2.579672 0.386731 -3.020028
v -2.579672 0.379972 -3.013269
v -2.579672 0.372880 -3.006862
v -2.579672 0.365473 -3.000821
v -2.579672 0.357769 -2.995164
v -2.579672 0.349788 -2.989905
v -2.579672 0.341551 -2.985056
v -2.579672 0.333080 -2.980631
v -2.579672 0.324395 -2.976640
v -2.579672 0.315519 -2.973095
v -2.579672 0.306474 -2.970003
v -2.579672 0.297285 -2.967374
v -2.579672 0.287975 -2.965213
v -2.579672 0.278567 -2.963527
v -2.579672 0.269085 -2.962320
v -2.579672 0.259555 -2.961594
v -2.573030 0.442335 -3.150000
v -2.576398 0.440576 -3.150000
v -2.569577 0.443922 -3.150000
v -2.566048 0.445331 -3.150000
v -2.562452 0.446560 -3.150000
v -2.558799 0.447606 -3.150000
v -2.555097 0.448465 -3.150000
v -2.551357 0.449135 -3.150000
v -2.547588 0.449615 -3.150000
v -2.543799 0.449904 -3.150000
v -2.540000 0.450000 -3.150000
v -2.576398 0.250000 -2.959424
v -2.573030 0.250000 -2.957665
v -2.569577 0.250000 -2.956078
v -2.566048 0.250000 -2.954669
v -2.562452 0.250000 -2.953440
v -2.558799 0.250000 -2.952394
v -2.555097 0.250000 -2.951535
v -2.551357 0.250000 -2.950865
v -2.547588 0.250000 -2.950385
v -2.543799 0.250000 -2.950096
v -2.540000 0.250000 -2.950000
v -2.540000 0.449743 -3.139870
v -2.540000 0.448974 -3.129766
v -2.540000 0.447694 -3.119714
v -2.540000 0.445906 -3.109740
v -2.540000 0.443615 -3.099869
v -2.540000 0.440828 -3.090127
v -2.540000 0.437550 -3.080539
v -2.540000 0.433792 -3.071129
v -2.540000 0.429561 -3.061921
v -2.540000 0.424869 -3.052940
v -2.540000 0.419729 -3.044207
v -2.540000 0.414153 -3.035746
v -2.540000 0.408155 -3.027579
v -2.540000 0.401752 -3.019726
v -2.540000 0.394959 -3.012207
v -2.540000 0.387793 -3.005041
v -2.540000 0.380274 -2.998248
v -2.540000 0.372421 -2.991845
v -2.540000 0.364254 -2.985847
v -2.540000 0.355793 -2.980271
v -2.540000 0.347060 -2.975131
v -2.540000 0.338079 -2.970439
v -2.540000 0.328871 -2.966208
v -2.540000 0.319461 -2.962450
v -2.540000 0.309873 -2.959172
v -2.540000 0.300131 -2.956385
v -2.540000 0.290260 -2.954094
v -2.540000 0.280286 -2.952306
v -2.540000 0.270234 -2.951026
v -2.540000 0.260130 -2.950257
f 1 2 3
f 1 4 2
f 1 5 4
f 1 6 5
f 1 7 6
f 1 8 7
f 1 9 8
f 1 10 9
f 1 11 10
f 12 13 14
f 12 14 15
f 12 15 16
f 12 16 17
f 12 17 18
f 12 18 19
f 12 19 20
f 12 20 21
f 12 21 22
f 1 23 11
f 1 24 23
f 24 25 23
f 24 26 25
f 26 27 25
f 27 28 25
f 27 29 28
f 27 30 29
f 30 31 29
f 30 32 31
f 32 33 31
f 32 34 33
f 34 35 33
f 35 36 33
f 35 37 36
f 35 38 37
f 38 39 37
f 38 40 39
f 40 41 39
f 40 42 41
f 42 43 41
f 42 44 43
f 44 45 43
f 45 46 43
f 45 47 46
f 45 48 47
f 48 49 47
f 48 50 49
f 50 51 49
f 50 52 51
f 52 53 51
f 52 54 53
f 54 55 53
f 54 56 55
f 56 57 55
f 57 58 55
f 57 59 58
f 57 60 59
f 60 61 59
f 61 62 59
f 61 63 62
f 63 64 62
f 63 65 64
f 63 66 65
f 66 67 65
f 66 68 67
f 68 69 67
f 69 70 67
f 69 71 70
f 69 72 71
f 72 73 71
f 72 74 73
f 74 75 73
f 74 76 75
f 76 77 75
f 76 78 77
f 78 79 77
f 78 80 79
f 80 81 79
f 80 82 81
f 82 12 81
f 12 22 81
f 11 83 84
f 11 85 83
f 11 86 85
f 11 87 86
f 11 88 87
f 11 89 88
f 11 90 89
f 11 91 90
f 11 92 91
f 22 93 94
f 22 94 95
f 22 95 96
f 22 96 97
f 22 97 98
f 22 98 99
f 22 99 100
f 22 100 101
f 22 101 102
f 11 23 92
f 23 103 92
f 23 25 103
f 25 104 103
f 25 28 104
f 28 105 104
f 28 29 105
f 29 106 105
f 29 31 106
f 31 107 106
f 31 33 107
f 33 108 107
f 33 36 108
f 36 109 108
f 36 37 109
f 37 110 109
f 37 39 110
f 39 111 110
f 39 41 111
f 41 112 111
f 41 43 112
f 43 113 112
f 43 46 113
f 46 114 113
f 46 47 114
f 47 115 114
f 47 49 115
f 49 116 115
f 49 51 116
f 51 117 116
f 51 53 117
f 53 118 117
f 53 55 118
f 55 119 118
f 55 58 119
f 58 120 119
f 58 59 120
f 59 121 120
f 59 62 121
f 62 122 121
f 62 64 122
f 64 123 122
f 64 65 123
f 65 124 123
f 65 67 124
f 67 125 124
f 67 70 125
f 70 126 125
f 70 71 126
f 71 127 126
f 71 73 127
f 73 128 127
f 73 75 128
f 75 129 128
f 75 77 129
f 77 130 129
f 77 79 130
f 79 131 130
f 79 81 131
f 81 132 131
f 81 22 132
f 22 102 132
f 92 133 134
f 92 135 133
f 92 136 135
f 92 137 136
f 92 138 137
f 92 139 138
f 92 140 139
f 92 141 140
f 92 142 141
f 92 143 142
f 102 144 145
f 102 145 146
f 102 146 147
f 102 147 148
f 102 148 149
f 102 149 150
f 102 150 151
f 102 151 152
f 102 152 153
f 102 153 154
f 92 103 143
f 103 155 143
f 103 104 155
f 104 156 155
f 104 105 156
f 105 157 156
f 105 106 157
f 106 158 157
f 106 107 158
f 107 159 158
f 107 108 159
f 108 160 159
f 108 109 160
f 109 161 160
f 109 110 161
f 110 162 161
f 110 111 162
f 111 163 162
f 111 112 163
f 112 164 163
f 112 113 164
f 113 165 164
f 113 114 165
f 114 166 165
f 114 115 166
f 115 167 166
f 115 116 167
f 116 168 167
f 116 117 168
f 117 169 168
f 117 118 169
f 118 170 169
f 118 119 170
f 119 171 170
f 119 120 171
f 120 172 171
f 120 121 172
f 121 173 172
f 121 122 173
f 122 174 173
f 122 123 174
f 123 175 174
f 123 124 175
f 124 176 175
f 124 125 176
f 125 177 176
f 125 126 177
f 126 178 177
f 126 127 178
f 127 179 178
f 127 128 179
f 128 180 179
f 128 129 180
f 129 181 180
f 129 130 181
f 130 182 181
f 130 131 182
f 131 183 182
f 131 132 183
f 132 184 183
f 132 102 184
f 102 154 184
