v 0.472563 0.048055 -2.415000
v 0.475000 0.000000 -2.415000
v 0.475000 0.000000 -3.213787
v 0.470607 0.000000 -3.224393
v 0.468192 0.047610 -3.224393
v -0.468192 0.047610 -3.224393
v -0.470607 0.000000 -3.224393
v -0.475000 0.000000 -3.213787
v 0.465277 0.095617 -2.415000
v 0.460973 0.094732 -3.224393
v -0.475000 0.000000 -2.415000
v 0.453216 0.142197 -2.415000
v 0.449024 0.140882 -3.224393
v -0.460973 0.094732 -3.224393
v 0.436505 0.187319 -2.415000
v 0.458815 0.122939 -2.646255
v 0.432468 0.185586 -3.224393
v -0.125000 0.458258 -2.880000
v -0.449024 0.140882 -3.224393
v 0.415315 0.230518 -2.415000
v 0.458815 0.122939 -2.761883
v 0.411473 0.228386 -3.224393
v -0.458815 0.122939 -2.993138
v 0.389863 0.271352 -2.415000
v 0.386257 0.268843 -3.224393
v -0.432468 0.185586 -3.224393
v -0.458815 0.122939 -2.877511
v 0.360410 0.309402 -2.415000
v 0.237500 0.411362 -3.108766
v -0.411473 0.228386 -3.224393
v -0.386257 0.268843 -3.224393
v 0.411362 0.237500 -2.646255
v 0.357077 0.306540 -3.224393
v 0.324232 0.341092 -3.224393
v -0.357077 0.306540 -3.224393
v 0.076180 0.468851 -2.780898
v 0.327259 0.344277 -2.415000
v 0.288061 0.372144 -3.224393
v -0.458815 0.122939 -2.646255
v 0.237500 0.411362 -2.530628
v 0.248934 0.399378 -3.224393
v -0.324232 0.341092 -3.224393
v 0.290750 0.375618 -2.415000
v 0.251258 0.403106 -2.415000
v 0.122939 0.458815 -3.108766
v -0.288061 0.372144 -3.224393
v 0.209187 0.426457 -2.415000
v 0.207252 0.422513 -3.224393
v 0.163444 0.441312 -3.224393
v -0.248934 0.399378 -3.224393
v 0.122939 0.458815 -2.646255
v 0.117959 0.455583 -3.224393
v -0.207252 0.422513 -3.224393
v 0.164970 0.445432 -2.415000
v 0.122939 0.458815 -2.530628
v 0.071263 0.465180 -3.224393
v -0.163444 0.441312 -3.224393
v 0.119060 0.459837 -2.415000
v 0.070334 0.469764 -2.776665
v -0.000000 0.475000 -3.108766
v -0.117959 0.455583 -3.224393
v 0.071928 0.469522 -2.415000
v 0.023836 0.470003 -3.224393
v -0.023836 0.470003 -3.224393
v -0.071263 0.465180 -3.224393
v 0.024058 0.474390 -2.415000
v -0.024058 0.474390 -2.415000
v -0.000000 0.475000 -2.530628
v -0.071928 0.469522 -2.415000
v -0.119060 0.459837 -2.415000
v -0.164970 0.445432 -2.415000
v -0.209187 0.426457 -2.415000
v -0.251258 0.403106 -2.415000
v -0.290750 0.375618 -2.415000
v -0.327259 0.344277 -2.415000
v -0.360410 0.309402 -2.415000
v 0.044977 0.472866 -2.763372
v 0.051564 0.472192 -2.766132
v 0.038264 0.473456 -2.761000
v 0.031446 0.473957 -2.759020
v 0.024543 0.474365 -2.757434
v 0.017575 0.474675 -2.756242
v 0.010563 0.474882 -2.755447
v 0.003524 0.474986 -2.755049
v -0.003524 0.474986 -2.755049
v -0.010563 0.474882 -2.755447
v -0.017575 0.474675 -2.756242
v -0.024543 0.474365 -2.757434
v -0.031445 0.473957 -2.759020
v -0.038263 0.473456 -2.761000
v -0.044976 0.472866 -2.763372
v -0.051564 0.472192 -2.766132
v -0.058002 0.471444 -2.769273
v -0.064266 0.470632 -2.772786
v -0.070334 0.469764 -2.776665
v -0.076179 0.468851 -2.780898
v -0.081781 0.467906 -2.785470
v -0.087115 0.466943 -2.790360
v -0.092158 0.465974 -2.795551
v -0.096889 0.465014 -2.801021
v -0.101289 0.464075 -2.806749
v -0.105345 0.463171 -2.812713
v -0.109044 0.462314 -2.818888
v -0.112371 0.461517 -2.825252
v -0.115317 0.460790 -2.831778
v -0.117879 0.460142 -2.838437
v -0.120052 0.459579 -2.845198
v -0.121833 0.459110 -2.852032
v -0.123218 0.458741 -2.858921
v -0.124208 0.458474 -2.865872
v -0.124802 0.458312 -2.872895
v -0.472563 0.048055 -2.415000
v -0.389863 0.271352 -2.415000
v 0.058002 0.471444 -2.769273
v 0.064267 0.470632 -2.772786
v 0.125000 0.458258 -2.880000
v 0.237500 0.411362 -2.993138
v 0.124802 0.458312 -2.872895
v 0.124208 0.458474 -2.865872
v 0.123218 0.458740 -2.858921
v 0.081781 0.467906 -2.785470
v 0.121833 0.459110 -2.852032
v 0.087115 0.466943 -2.790361
v 0.120052 0.459579 -2.845198
v 0.092158 0.465974 -2.795551
v 0.117879 0.460142 -2.838437
v 0.096889 0.465014 -2.801021
v 0.115318 0.460790 -2.831779
v 0.101289 0.464075 -2.806750
v 0.112371 0.461517 -2.825252
v 0.105346 0.463171 -2.812713
v 0.109044 0.462314 -2.818888
v -0.465277 0.095617 -2.415000
v -0.411362 0.237500 -2.530628
v -0.453216 0.142197 -2.415000
v -0.436505 0.187319 -2.415000
v -0.415315 0.230518 -2.415000
v 0.237500 0.411362 -2.877511
v 0.335876 0.335876 -2.530628
v -0.411362 0.237500 -2.646255
v -0.237500 0.411362 -2.993138
v 0.335876 0.335876 -2.646255
v 0.458815 0.122939 -2.993138
v -0.411362 0.237500 -2.877511
v -0.411362 0.237500 -2.761883
v 0.237500 0.411362 -2.761883
v 0.411362 0.237500 -2.877511
v 0.335876 0.335876 -2.761883
v -0.335876 0.335876 -2.877511
v 0.458815 0.122939 -3.108766
v -0.335876 0.335876 -3.108766
v 0.376843 0.289162 -2.993138
v 0.411362 0.237500 -2.761883
v 0.411362 0.237500 -2.819697
v 0.376843 0.289162 -2.935324
v 0.313189 0.357124 -2.935324
v 0.313189 0.357124 -2.877511
v 0.313189 0.357124 -2.848604
v 0.426015 0.210087 -3.050952
v 0.426015 0.210087 -3.022045
f 1 2 3
f 3 4 5
f 6 7 8
f 9 1 3
f 3 5 10
f 6 8 11
f 12 9 3
f 3 10 13
f 6 11 14
f 15 12 16
f 13 17 18
f 14 11 19
f 20 15 21
f 18 17 22
f 19 11 23
f 24 20 3
f 22 25 18
f 26 11 27
f 28 24 3
f 18 25 29
f 30 11 31
f 28 3 32
f 33 34 18
f 31 11 35
f 28 36 37
f 18 34 38
f 35 11 39
f 37 36 40
f 38 41 18
f 35 18 42
f 43 36 44
f 18 41 45
f 42 18 46
f 44 36 47
f 48 49 18
f 46 18 50
f 47 36 51
f 18 49 52
f 50 18 53
f 54 36 55
f 52 56 18
f 53 18 57
f 58 36 59
f 18 56 60
f 57 18 61
f 58 59 62
f 63 64 18
f 61 18 65
f 62 59 66
f 66 59 67
f 67 59 68
f 69 59 70
f 70 59 71
f 71 59 72
f 72 59 73
f 73 59 74
f 75 59 76
f 18 11 112
f 83 113 82
f 65 18 64
f 13 18 3
f 63 116 117
f 3 116 118
f 76 59 113
f 3 118 119
f 3 119 120
f 3 120 122
f 3 122 124
f 3 124 126
f 3 126 128
f 3 128 130
f 3 130 132
f 132 131 3
f 82 113 81
f 81 113 80
f 80 113 79
f 79 113 77
f 113 78 77
f 18 112 133
f 18 133 134
f 18 135 136
f 18 136 137
f 18 137 113
f 18 113 111
f 111 113 110
f 110 113 109
f 109 113 108
f 108 113 107
f 107 113 106
f 106 113 105
f 105 113 104
f 104 113 103
f 103 113 102
f 102 113 101
f 101 113 100
f 100 113 99
f 99 113 98
f 98 113 97
f 97 113 96
f 96 113 95
f 95 113 94
f 94 113 93
f 93 113 92
f 92 113 91
f 91 113 90
f 90 113 89
f 89 113 88
f 88 113 87
f 87 113 86
f 86 113 85
f 85 113 84
f 84 113 83
f 113 114 78
f 113 115 114
f 113 59 115
f 74 59 75
f 3 121 36
f 3 123 121
f 3 125 123
f 3 127 125
f 3 129 127
f 3 131 129
f 133 135 134
f 135 18 134
f 59 69 68
f 69 67 68
f 36 58 55
f 58 54 55
f 36 43 40
f 43 37 40
f 3 36 138
f 36 28 139
f 11 18 140
f 18 35 141
f 18 39 140
f 39 11 140
f 36 54 51
f 54 47 51
f 36 139 142
f 143 153 3
f 153 139 3
f 3 139 32
f 139 28 32
f 12 3 16
f 3 15 16
f 35 39 144
f 39 18 145
f 36 142 146
f 142 3 147
f 3 146 148
f 146 142 148
f 15 3 21
f 3 20 21
f 11 30 27
f 30 26 27
f 39 145 144
f 145 35 144
f 35 145 149
f 145 18 149
f 36 146 138
f 150 160 3
f 160 155 3
f 155 158 3
f 158 146 3
f 3 148 147
f 148 142 147
f 11 26 23
f 26 19 23
f 35 149 151
f 149 18 141
f 116 3 117
f 3 63 117
f 142 154 3
f 154 143 3
f 139 153 154
f 153 143 154
f 139 154 142
f 149 141 151
f 141 35 151
f 56 63 60
f 63 18 60
f 41 48 45
f 48 18 45
f 25 33 29
f 33 18 29
f 138 156 3
f 156 152 3
f 152 159 3
f 159 150 3
f 146 158 155
f 152 157 158
f 158 146 157
f 155 160 159
f 160 150 159
f 155 159 152
f 146 157 156
f 157 152 156
f 146 156 138
f 116 18 63
f 116 112 18
