v 0.541883 -0.402477 -0.825000
v 0.547807 -0.394376 -0.825000
v 0.553611 -0.386187 -0.825000
v 0.559292 -0.377912 -0.825000
v 0.564849 -0.369554 -0.825000
v 0.570282 -0.361115 -0.825000
v 0.575588 -0.352595 -0.825000
v 0.580767 -0.343998 -0.825000
v 0.585818 -0.335325 -0.825000
v 0.590739 -0.326577 -0.825000
v 0.595529 -0.317757 -0.825000
v 0.600188 -0.308867 -0.825000
v 0.604715 -0.299909 -0.825000
v 0.609107 -0.290884 -0.825000
v 0.613365 -0.281795 -0.825000
v 0.617487 -0.272644 -0.825000
v 0.541883 -0.402477 -0.036213
v 0.547807 -0.394376 -0.036213
v 0.553611 -0.386187 -0.036213
v 0.559292 -0.377912 -0.036213
v 0.564849 -0.369554 -0.036213
v 0.570282 -0.361115 -0.036213
v 0.575588 -0.352595 -0.036213
v 0.580767 -0.343998 -0.036213
v 0.585818 -0.335325 -0.036213
v 0.590739 -0.326577 -0.036213
v 0.595529 -0.317757 -0.036213
v 0.600188 -0.308867 -0.036213
v 0.604715 -0.299909 -0.036213
v 0.609107 -0.290884 -0.036213
v 0.613365 -0.281795 -0.036213
v 0.617487 -0.272644 -0.036213
f 1 2 18
f 1 18 17
f 2 3 19
f 2 19 18
f 3 4 20
f 3 20 19
f 4 5 21
f 4 21 20
f 5 6 22
f 5 22 21
f 6 7 23
f 6 23 22
f 7 8 24
f 7 24 23
f 8 9 25
f 8 25 24
f 9 10 26
f 9 26 25
f 10 11 27
f 10 27 26
f 11 12 28
f 11 28 27
f 12 13 29
f 12 29 28
f 13 14 30
f 13 30 29
f 14 15 31
f 14 31 30
f 15 16 32
f 15 32 31
