v -0.395361 0.010000 0.540915
v -0.393232 0.010000 0.542465
v -0.391097 0.010000 0.544006
v -0.388956 0.010000 0.545539
v -0.386809 0.010000 0.547064
v -0.384656 0.010000 0.548580
v -0.382497 0.010000 0.550088
v -0.380332 0.010000 0.551587
v -0.378161 0.010000 0.553077
v -0.375984 0.010000 0.554559
v -0.373801 0.010000 0.556033
v -0.395361 0.220000 0.540915
v -0.393232 0.220000 0.542465
v -0.391097 0.220000 0.544006
v -0.388956 0.220000 0.545539
v -0.386809 0.220000 0.547064
v -0.384656 0.220000 0.548580
v -0.382497 0.220000 0.550088
v -0.380332 0.220000 0.551587
v -0.378161 0.220000 0.553077
v -0.375984 0.220000 0.554559
v -0.373801 0.220000 0.556033
f 1 2 13
f 1 13 12
f 2 3 14
f 2 14 13
f 3 4 15
f 3 15 14
f 4 5 16
f 4 16 15
f 5 6 17
f 5 17 16
f 6 7 18
f 6 18 17
f 7 8 19
f 7 19 18
f 8 9 20
f 8 20 19
f 9 10 21
f 9 21 20
f 10 11 22
f 10 22 21
