v 0.650558 0.010000 0.160232
v 0.650558 0.220000 0.160232
v 0.659396 0.220000 0.152661
v 0.712717 0.220000 0.147996
v 0.712717 0.000000 0.147996
v 0.652229 0.000000 0.153288
v 0.652229 0.010000 0.153288
v 0.659396 0.016837 0.152661
v 0.659159 0.016611 0.152685
v 0.658923 0.016388 0.152714
v 0.658689 0.016168 0.152749
v 0.658456 0.015951 0.152788
v 0.658226 0.015736 0.152834
v 0.657998 0.015525 0.152884
v 0.657771 0.015317 0.152940
v 0.657547 0.015112 0.153000
v 0.657324 0.014911 0.153066
v 0.657104 0.014712 0.153137
v 0.656886 0.014517 0.153212
v 0.656670 0.014325 0.153293
v 0.656457 0.014137 0.153378
v 0.656246 0.013952 0.153468
v 0.656037 0.013770 0.153562
v 0.655831 0.013592 0.153661
v 0.655628 0.013418 0.153765
v 0.655427 0.013247 0.153873
v 0.655229 0.013080 0.153986
v 0.655034 0.012916 0.154102
v 0.654841 0.012757 0.154223
v 0.654652 0.012601 0.154349
v 0.654466 0.012450 0.154478
v 0.654282 0.012302 0.154612
v 0.654103 0.012159 0.154750
v 0.653926 0.012020 0.154891
v 0.653753 0.011885 0.155037
v 0.653583 0.011754 0.155186
v 0.653416 0.011627 0.155340
v 0.653254 0.011505 0.155497
v 0.653095 0.011388 0.155657
v 0.652939 0.011275 0.155821
v 0.652788 0.011166 0.155988
v 0.652640 0.011063 0.156158
v 0.652497 0.010963 0.156331
v 0.652358 0.010869 0.156507
v 0.652222 0.010779 0.156686
v 0.652091 0.010694 0.156868
v 0.651965 0.010614 0.157051
v 0.651842 0.010539 0.157237
v 0.651725 0.010468 0.157426
v 0.651612 0.010403 0.157616
v 0.651503 0.010343 0.157808
v 0.651399 0.010288 0.158003
v 0.651300 0.010237 0.158199
v 0.651205 0.010192 0.158396
v 0.651115 0.010151 0.158595
v 0.651029 0.010116 0.158796
v 0.650948 0.010085 0.158998
v 0.650872 0.010059 0.159201
v 0.650800 0.010038 0.159405
v 0.650732 0.010021 0.159610
v 0.650670 0.010009 0.159817
v 0.650612 0.010002 0.160024
f 62 1 2
f 62 2 3
f 62 3 4
f 5 6 7
f 5 7 8
f 4 5 8
f 62 4 8
f 62 8 9
f 62 9 10
f 62 10 11
f 62 11 12
f 62 12 13
f 62 13 14
f 62 14 15
f 62 15 16
f 62 16 17
f 62 17 18
f 62 18 19
f 62 19 20
f 62 20 21
f 62 21 22
f 62 22 23
f 62 23 24
f 62 24 25
f 62 25 26
f 62 26 27
f 62 27 28
f 62 28 29
f 62 29 30
f 62 30 31
f 62 31 32
f 62 32 33
f 62 33 34
f 62 34 35
f 62 35 36
f 62 36 37
f 62 37 38
f 62 38 39
f 62 39 40
f 62 40 41
f 62 41 42
f 62 42 43
f 62 43 44
f 62 44 45
f 62 45 46
f 62 46 47
f 62 47 48
f 62 48 49
f 62 49 50
f 62 50 51
f 62 51 52
f 62 52 53
f 62 53 54
f 62 54 55
f 62 55 56
f 62 56 57
f 62 57 58
f 62 58 59
f 62 59 60
f 60 61 62
