v 0.603256 0.016837 -0.306906
v 0.602190 0.015317 -0.305649
v 0.601361 0.013952 -0.304264
v 0.600706 0.012601 -0.302564
v 0.600373 0.011506 -0.300786
v 0.600385 0.010614 -0.298767
v 0.600857 0.010085 -0.296622
v 0.603256 0.115000 -0.306906
v 0.602190 0.115000 -0.305648
v 0.601361 0.115000 -0.304264
v 0.600706 0.115000 -0.302564
v 0.600372 0.115000 -0.300786
v 0.600384 0.115000 -0.298767
v 0.600857 0.115000 -0.296622
v 0.603256 0.220000 -0.306906
v 0.602190 0.220000 -0.305648
v 0.601361 0.220000 -0.304264
v 0.600706 0.220000 -0.302564
v 0.600372 0.220000 -0.300786
v 0.600384 0.220000 -0.298767
v 0.600857 0.220000 -0.296622
f 1 9 2
f 1 8 9
f 2 10 3
f 2 9 10
f 3 11 4
f 3 10 11
f 4 12 5
f 4 11 12
f 5 13 6
f 5 12 13
f 6 14 7
f 6 13 14
f 8 16 9
f 8 15 16
f 9 17 10
f 9 16 17
f 10 18 11
f 10 17 18
f 11 19 12
f 11 18 19
f 12 20 13
f 12 19 20
f 13 21 14
f 13 20 21
