v 1.717718 -0.565914 -6.429948
v 1.719126 -0.545468 -6.432466
v 1.718429 -0.555693 -6.431219
v 1.719811 -0.535240 -6.433689
v 1.720482 -0.525008 -6.434890
v 1.721141 -0.514772 -6.436068
v 1.721786 -0.504534 -6.437222
v 1.722419 -0.494291 -6.438353
v 1.723038 -0.484046 -6.439461
v 1.723644 -0.473797 -6.440546
v 1.724238 -0.463545 -6.441608
v 1.724818 -0.453290 -6.442646
v 1.725386 -0.443032 -6.443661
v 1.725940 -0.432770 -6.444653
v 1.726481 -0.422506 -6.445622
v 1.727010 -0.412240 -6.446567
v 1.727525 -0.401970 -6.447489
v 1.728027 -0.391698 -6.448388
v 1.728517 -0.381423 -6.449264
v 1.728993 -0.371146 -6.450116
v 1.729456 -0.360866 -6.450946
v 1.729906 -0.350583 -6.451751
v 1.730343 -0.340299 -6.452534
v 1.730768 -0.330012 -6.453293
v 1.731179 -0.319723 -6.454029
v 1.731577 -0.309431 -6.454742
v 1.731962 -0.299138 -6.455431
v 1.732334 -0.288842 -6.456097
v 1.732693 -0.278545 -6.456740
v 1.733038 -0.268246 -6.457359
v 1.733371 -0.257944 -6.457955
v 1.733691 -0.247641 -6.458528
v 1.733998 -0.237337 -6.459078
v 1.716588 -0.566201 -6.433074
v 1.715388 -0.566481 -6.436174
v 1.714119 -0.566753 -6.439248
v 1.712782 -0.567016 -6.442293
v 1.711378 -0.567271 -6.445309
v 1.709907 -0.567518 -6.448293
v 1.708370 -0.567756 -6.451244
v 1.706768 -0.567985 -6.454162
v 1.705101 -0.568205 -6.457043
v 1.703371 -0.568416 -6.459888
v 1.733344 -0.247680 -6.459488
v 1.732671 -0.258024 -6.459874
v 1.731977 -0.268370 -6.460235
v 1.731265 -0.278716 -6.460572
v 1.730532 -0.289063 -6.460884
v 1.729780 -0.299411 -6.461172
v 1.729008 -0.309760 -6.461435
v 1.728217 -0.320110 -6.461673
v 1.727405 -0.330460 -6.461887
v 1.726575 -0.340810 -6.462076
v 1.725724 -0.351161 -6.462240
v 1.724854 -0.361512 -6.462379
v 1.723965 -0.371863 -6.462494
v 1.723056 -0.382214 -6.462583
v 1.722127 -0.392565 -6.462647
v 1.721179 -0.402916 -6.462687
v 1.720212 -0.413266 -6.462701
v 1.719224 -0.423617 -6.462691
v 1.718218 -0.433966 -6.462655
v 1.717192 -0.444315 -6.462594
v 1.716147 -0.454664 -6.462508
v 1.715082 -0.465011 -6.462397
v 1.713997 -0.475358 -6.462260
v 1.712894 -0.485703 -6.462098
v 1.711771 -0.496047 -6.461911
v 1.710629 -0.506391 -6.461698
v 1.709467 -0.516732 -6.461460
v 1.708286 -0.527072 -6.461197
v 1.707086 -0.537411 -6.460908
v 1.705867 -0.547748 -6.460593
v 1.704629 -0.558083 -6.460253
v 1.734572 -0.216722 -6.460106
v 1.734292 -0.227030 -6.459604
v 1.734840 -0.206413 -6.460586
v 1.735094 -0.196102 -6.461042
v 1.735336 -0.185789 -6.461474
v 1.735564 -0.175475 -6.461884
v 1.735780 -0.165160 -6.462270
v 1.735982 -0.154844 -6.462632
v 1.736172 -0.144526 -6.462971
v 1.736348 -0.134208 -6.463287
v 1.736511 -0.123888 -6.463580
v 1.736661 -0.113567 -6.463849
v 1.736798 -0.103246 -6.464094
v 1.736922 -0.092924 -6.464317
v 1.737033 -0.082601 -6.464515
v 1.737131 -0.072277 -6.464691
v 1.737216 -0.061953 -6.464843
v 1.737288 -0.051628 -6.464972
v 1.737347 -0.041303 -6.465077
v 1.737393 -0.030978 -6.465159
v 1.737425 -0.020652 -6.465217
v 1.737445 -0.010326 -6.465253
v 1.737451 0.000000 -6.465264
v 1.735105 0.000000 -6.471365
v 1.732496 0.000000 -6.477357
v 1.729627 0.000000 -6.483230
v 1.726506 0.000000 -6.488972
v 1.723138 0.000000 -6.494574
v 1.719528 0.000000 -6.500023
v 1.715685 0.000000 -6.505309
v 1.711615 0.000000 -6.510423
v 1.707326 0.000000 -6.515355
v 1.702827 0.000000 -6.520096
v 1.701578 -0.568618 -6.462694
v 1.699723 -0.568811 -6.465460
v 1.697807 -0.568994 -6.468185
v 1.695831 -0.569168 -6.470868
v 1.693796 -0.569333 -6.473506
v 1.691703 -0.569488 -6.476099
v 1.689553 -0.569633 -6.478646
v 1.687347 -0.569769 -6.481145
v 1.685086 -0.569895 -6.483595
v 1.682771 -0.570011 -6.485995
v 1.702829 -0.010398 -6.520075
v 1.702818 -0.020796 -6.520032
v 1.702794 -0.031193 -6.519967
v 1.702756 -0.041591 -6.519879
v 1.702704 -0.051988 -6.519770
v 1.702639 -0.062384 -6.519638
v 1.702560 -0.072780 -6.519483
v 1.702467 -0.083176 -6.519307
v 1.702361 -0.093571 -6.519108
v 1.702241 -0.103965 -6.518888
v 1.702107 -0.114358 -6.518644
v 1.701960 -0.124751 -6.518379
v 1.701799 -0.135142 -6.518092
v 1.701625 -0.145533 -6.517782
v 1.701437 -0.155923 -6.517450
v 1.701235 -0.166312 -6.517096
v 1.701020 -0.176699 -6.516720
v 1.700791 -0.187086 -6.516321
v 1.700549 -0.197471 -6.515900
v 1.700293 -0.207855 -6.515457
v 1.700023 -0.218237 -6.514992
v 1.699740 -0.228618 -6.514505
v 1.699443 -0.238997 -6.513995
v 1.699132 -0.249375 -6.513464
v 1.698808 -0.259752 -6.512910
v 1.698470 -0.270126 -6.512334
v 1.698119 -0.280499 -6.511735
v 1.697754 -0.290870 -6.511115
v 1.697376 -0.301240 -6.510472
v 1.696984 -0.311607 -6.509807
v 1.696578 -0.321973 -6.509121
v 1.696159 -0.332336 -6.508411
v 1.695726 -0.342698 -6.507680
v 1.695279 -0.353057 -6.506927
v 1.694819 -0.363414 -6.506151
v 1.694346 -0.373769 -6.505353
v 1.693859 -0.384122 -6.504534
v 1.693358 -0.394472 -6.503692
v 1.692843 -0.404820 -6.502827
v 1.692316 -0.415166 -6.501941
v 1.691774 -0.425509 -6.501033
v 1.691219 -0.435849 -6.500102
v 1.690650 -0.446187 -6.499150
v 1.690068 -0.456522 -6.498175
v 1.689473 -0.466855 -6.497178
v 1.688863 -0.477184 -6.496159
v 1.688241 -0.487511 -6.495118
v 1.687604 -0.497834 -6.494055
v 1.686954 -0.508155 -6.492970
v 1.686291 -0.518472 -6.491862
v 1.685614 -0.528787 -6.490733
v 1.684924 -0.539098 -6.489581
v 1.684220 -0.549405 -6.488408
v 1.683502 -0.559710 -6.487212
v 1.693230 0.000000 -6.528967
v 1.698125 0.000000 -6.524636
v 1.688150 0.000000 -6.533080
v 1.682897 0.000000 -6.536968
v 1.677479 0.000000 -6.540624
v 1.671907 0.000000 -6.544040
v 1.666191 0.000000 -6.547211
v 1.660343 0.000000 -6.550129
v 1.654373 0.000000 -6.552790
v 1.648293 0.000000 -6.555188
v 1.680404 -0.570117 -6.488343
v 1.677985 -0.570213 -6.490639
v 1.675516 -0.570299 -6.492881
v 1.672998 -0.570376 -6.495068
v 1.670433 -0.570442 -6.497200
v 1.667820 -0.570498 -6.499274
v 1.665163 -0.570543 -6.501291
v 1.662462 -0.570579 -6.503249
v 1.659718 -0.570605 -6.505146
v 1.656933 -0.570620 -6.506983
v 1.654108 -0.570625 -6.508758
v 1.651245 -0.570620 -6.510470
v 1.648345 -0.570605 -6.512119
v 1.645409 -0.570579 -6.513704
v 1.642439 -0.570543 -6.515223
v 1.639437 -0.570498 -6.516677
v 1.636403 -0.570442 -6.518064
v 1.633340 -0.570376 -6.519383
v 1.630248 -0.570299 -6.520635
v 1.627130 -0.570213 -6.521818
v 1.623987 -0.570117 -6.522933
v 1.648219 -0.010402 -6.555202
v 1.648131 -0.020803 -6.555193
v 1.648030 -0.031204 -6.555162
v 1.647914 -0.041604 -6.555109
v 1.647786 -0.052005 -6.555034
v 1.647643 -0.062404 -6.554936
v 1.647487 -0.072804 -6.554816
v 1.647318 -0.083202 -6.554674
v 1.647134 -0.093600 -6.554510
v 1.646937 -0.103997 -6.554323
v 1.646727 -0.114394 -6.554114
v 1.646502 -0.124789 -6.553883
v 1.646265 -0.135184 -6.553630
v 1.646013 -0.145577 -6.553354
v 1.645748 -0.155970 -6.553056
v 1.645469 -0.166361 -6.552736
v 1.645177 -0.176752 -6.552393
v 1.644871 -0.187140 -6.552029
v 1.644551 -0.197528 -6.551642
v 1.644218 -0.207914 -6.551233
v 1.643871 -0.218299 -6.550801
v 1.643510 -0.228682 -6.550348
v 1.643136 -0.239064 -6.549872
v 1.642748 -0.249444 -6.549374
v 1.642347 -0.259823 -6.548853
v 1.641932 -0.270199 -6.548311
v 1.641504 -0.280574 -6.547746
v 1.641061 -0.290947 -6.547159
v 1.640606 -0.301319 -6.546550
v 1.640136 -0.311688 -6.545919
v 1.639653 -0.322055 -6.545265
v 1.639157 -0.332420 -6.544590
v 1.638646 -0.342784 -6.543892
v 1.638122 -0.353145 -6.543172
v 1.637585 -0.363503 -6.542429
v 1.637034 -0.373860 -6.541665
v 1.636470 -0.384214 -6.540878
v 1.635891 -0.394566 -6.540070
v 1.635300 -0.404915 -6.539239
v 1.634694 -0.415262 -6.538385
v 1.634075 -0.425606 -6.537510
v 1.633443 -0.435947 -6.536613
v 1.632797 -0.446286 -6.535693
v 1.632137 -0.456622 -6.534751
v 1.631464 -0.466956 -6.533787
v 1.630777 -0.477286 -6.532801
v 1.630077 -0.487613 -6.531793
v 1.629363 -0.497937 -6.530763
v 1.628636 -0.508259 -6.529711
v 1.627895 -0.518577 -6.528636
v 1.627140 -0.528891 -6.527540
v 1.626372 -0.539203 -6.526421
v 1.625591 -0.549511 -6.525280
v 1.624796 -0.559816 -6.524118
v 1.635848 0.000000 -6.559179
v 1.642114 0.000000 -6.557319
v 1.629508 0.000000 -6.560764
v 1.623104 0.000000 -6.562071
v 1.616649 0.000000 -6.563098
v 1.610156 0.000000 -6.563843
v 1.603636 0.000000 -6.564305
v 1.597102 0.000000 -6.564482
v 1.590567 0.000000 -6.564374
v 1.584043 0.000000 -6.563982
v 1.577542 0.000000 -6.563305
v 1.577535 -0.010326 -6.563294
v 1.577512 -0.020652 -6.563261
v 1.577475 -0.030978 -6.563205
v 1.577423 -0.041303 -6.563127
v 1.577356 -0.051628 -6.563027
v 1.577274 -0.061953 -6.562905
v 1.577177 -0.072277 -6.562760
v 1.577065 -0.082601 -6.562593
v 1.576938 -0.092924 -6.562404
v 1.576796 -0.103246 -6.562193
v 1.576639 -0.113567 -6.561959
v 1.576467 -0.123888 -6.561703
v 1.576281 -0.134208 -6.561425
v 1.576079 -0.144526 -6.561125
v 1.575863 -0.154844 -6.560802
v 1.575632 -0.165160 -6.560457
v 1.575385 -0.175475 -6.560090
v 1.575124 -0.185789 -6.559701
v 1.574848 -0.196102 -6.559289
v 1.574557 -0.206413 -6.558856
v 1.574252 -0.216722 -6.558400
v 1.573931 -0.227030 -6.557922
v 1.620820 -0.570011 -6.523977
v 1.617632 -0.569895 -6.524951
v 1.614423 -0.569769 -6.525855
v 1.611195 -0.569633 -6.526688
v 1.607950 -0.569488 -6.527449
v 1.604689 -0.569333 -6.528138
v 1.601415 -0.569168 -6.528755
v 1.598128 -0.568994 -6.529299
v 1.594830 -0.568811 -6.529770
v 1.591524 -0.568618 -6.530169
v 1.574676 -0.237376 -6.557555
v 1.575409 -0.247723 -6.557160
v 1.576129 -0.258071 -6.556734
v 1.576836 -0.268421 -6.556279
v 1.577530 -0.278772 -6.555794
v 1.578211 -0.289124 -6.555280
v 1.578879 -0.299476 -6.554736
v 1.579535 -0.309830 -6.554162
v 1.580177 -0.320184 -6.553559
v 1.580806 -0.330539 -6.552926
v 1.581422 -0.340894 -6.552263
v 1.582024 -0.351250 -6.551571
v 1.582613 -0.361606 -6.550848
v 1.583189 -0.371963 -6.550097
v 1.583752 -0.382319 -6.549315
v 1.584301 -0.392675 -6.548504
v 1.584836 -0.403032 -6.547663
v 1.585358 -0.413388 -6.546792
v 1.585866 -0.423743 -6.545892
v 1.586361 -0.434098 -6.544962
v 1.586842 -0.444453 -6.544002
v 1.587309 -0.454807 -6.543013
v 1.587762 -0.465160 -6.541993
v 1.588202 -0.475512 -6.540945
v 1.588627 -0.485863 -6.539866
v 1.589039 -0.496212 -6.538758
v 1.589436 -0.506561 -6.537620
v 1.589820 -0.516908 -6.536452
v 1.590189 -0.527253 -6.535255
v 1.590544 -0.537597 -6.534028
v 1.590885 -0.547939 -6.532771
v 1.591212 -0.558280 -6.531485
v 1.573245 -0.247641 -6.556899
v 1.573595 -0.237337 -6.557421
v 1.572879 -0.257944 -6.556354
v 1.572499 -0.268246 -6.555787
v 1.572104 -0.278545 -6.555198
v 1.571694 -0.288842 -6.554586
v 1.571269 -0.299138 -6.553953
v 1.570830 -0.309431 -6.553297
v 1.570375 -0.319723 -6.552619
v 1.569905 -0.330012 -6.551919
v 1.569421 -0.340299 -6.551196
v 1.568922 -0.350583 -6.550452
v 1.568408 -0.360866 -6.549685
v 1.567879 -0.371146 -6.548896
v 1.567336 -0.381423 -6.548085
v 1.566777 -0.391698 -6.547252
v 1.566204 -0.401970 -6.546396
v 1.565616 -0.412240 -6.545519
v 1.565013 -0.422506 -6.544619
v 1.564395 -0.432770 -6.543697
v 1.563762 -0.443032 -6.542753
v 1.563115 -0.453290 -6.541787
v 1.562453 -0.463545 -6.540799
v 1.561776 -0.473797 -6.539788
v 1.561084 -0.484046 -6.538756
v 1.560378 -0.494291 -6.537701
v 1.559657 -0.504534 -6.536624
v 1.558921 -0.514772 -6.535526
v 1.558170 -0.525008 -6.534405
v 1.557404 -0.535240 -6.533261
v 1.556624 -0.545468 -6.532096
v 1.555829 -0.555693 -6.530909
v 1.555020 -0.565914 -6.529700
v 1.588210 -0.568416 -6.530494
v 1.584890 -0.568205 -6.530746
v 1.581566 -0.567985 -6.530924
v 1.578239 -0.567756 -6.531029
v 1.574911 -0.567518 -6.531060
v 1.571585 -0.567271 -6.531017
v 1.568260 -0.567016 -6.530900
v 1.564940 -0.566753 -6.530710
v 1.561625 -0.566481 -6.530447
v 1.558318 -0.566201 -6.530110
f 1 2 3
f 1 4 2
f 1 5 4
f 1 6 5
f 1 7 6
f 1 8 7
f 1 9 8
f 1 10 9
f 1 11 10
f 1 12 11
f 1 13 12
f 1 14 13
f 1 15 14
f 1 16 15
f 1 17 16
f 1 18 17
f 1 19 18
f 1 20 19
f 1 21 20
f 1 22 21
f 1 23 22
f 1 24 23
f 1 25 24
f 1 26 25
f 1 27 26
f 1 28 27
f 1 29 28
f 1 30 29
f 1 31 30
f 1 32 31
f 1 33 32
f 1 34 35
f 1 35 36
f 1 36 37
f 1 37 38
f 1 38 39
f 1 39 40
f 1 40 41
f 1 41 42
f 1 42 43
f 1 44 33
f 1 45 44
f 1 46 45
f 1 47 46
f 1 48 47
f 1 49 48
f 1 50 49
f 1 51 50
f 1 52 51
f 1 53 52
f 1 54 53
f 1 55 54
f 1 56 55
f 1 57 56
f 1 58 57
f 1 59 58
f 1 60 59
f 1 61 60
f 1 62 61
f 1 63 62
f 1 64 63
f 1 65 64
f 1 66 65
f 1 67 66
f 1 68 67
f 1 69 68
f 1 70 69
f 1 71 70
f 1 72 71
f 1 73 72
f 1 74 73
f 1 43 74
f 33 75 76
f 33 77 75
f 33 78 77
f 33 79 78
f 33 80 79
f 33 81 80
f 33 82 81
f 33 83 82
f 33 84 83
f 33 85 84
f 33 86 85
f 33 87 86
f 33 88 87
f 33 89 88
f 33 90 89
f 33 91 90
f 33 92 91
f 33 93 92
f 33 94 93
f 33 95 94
f 33 96 95
f 33 97 96
f 33 98 97
f 33 99 98
f 33 100 99
f 33 101 100
f 33 102 101
f 33 103 102
f 33 104 103
f 33 105 104
f 33 106 105
f 33 107 106
f 43 108 109
f 43 109 110
f 43 110 111
f 43 111 112
f 43 112 113
f 43 113 114
f 43 114 115
f 43 115 116
f 43 116 117
f 33 118 107
f 33 119 118
f 33 120 119
f 33 121 120
f 33 122 121
f 33 123 122
f 33 124 123
f 33 125 124
f 33 126 125
f 33 127 126
f 33 128 127
f 33 129 128
f 33 130 129
f 33 131 130
f 33 132 131
f 33 133 132
f 33 134 133
f 33 135 134
f 33 136 135
f 33 137 136
f 33 138 137
f 33 139 138
f 33 140 139
f 33 44 140
f 44 141 140
f 44 45 141
f 45 142 141
f 45 46 142
f 46 143 142
f 46 47 143
f 47 144 143
f 47 48 144
f 48 145 144
f 48 49 145
f 49 146 145
f 49 50 146
f 50 147 146
f 50 51 147
f 51 148 147
f 51 52 148
f 52 149 148
f 52 53 149
f 53 150 149
f 53 54 150
f 54 151 150
f 54 55 151
f 55 152 151
f 55 56 152
f 56 153 152
f 56 57 153
f 57 154 153
f 57 58 154
f 58 155 154
f 58 59 155
f 59 156 155
f 59 60 156
f 60 157 156
f 60 61 157
f 61 158 157
f 61 62 158
f 62 159 158
f 62 63 159
f 63 160 159
f 63 64 160
f 64 161 160
f 64 65 161
f 65 162 161
f 65 66 162
f 66 163 162
f 66 67 163
f 67 164 163
f 67 68 164
f 68 165 164
f 68 69 165
f 69 166 165
f 69 70 166
f 70 167 166
f 70 71 167
f 71 168 167
f 71 72 168
f 72 169 168
f 72 73 169
f 73 170 169
f 73 74 170
f 74 171 170
f 74 43 171
f 43 117 171
f 107 172 173
f 107 174 172
f 107 175 174
f 107 176 175
f 107 177 176
f 107 178 177
f 107 179 178
f 107 180 179
f 107 181 180
f 117 182 183
f 117 183 184
f 117 184 185
f 117 185 186
f 117 186 187
f 117 187 188
f 117 188 189
f 117 189 190
f 117 190 191
f 117 191 192
f 117 192 193
f 117 193 194
f 117 194 195
f 117 195 196
f 117 196 197
f 117 197 198
f 117 198 199
f 117 199 200
f 117 200 201
f 117 201 202
f 107 118 181
f 118 203 181
f 118 119 203
f 119 204 203
f 119 120 204
f 120 205 204
f 120 121 205
f 121 206 205
f 121 122 206
f 122 207 206
f 122 123 207
f 123 208 207
f 123 124 208
f 124 209 208
f 124 125 209
f 125 210 209
f 125 126 210
f 126 211 210
f 126 127 211
f 127 212 211
f 127 128 212
f 128 213 212
f 128 129 213
f 129 214 213
f 129 130 214
f 130 215 214
f 130 131 215
f 131 216 215
f 131 132 216
f 132 217 216
f 132 133 217
f 133 218 217
f 133 134 218
f 134 219 218
f 134 135 219
f 135 220 219
f 135 136 220
f 136 221 220
f 136 137 221
f 137 222 221
f 137 138 222
f 138 223 222
f 138 139 223
f 139 224 223
f 139 140 224
f 140 225 224
f 140 141 225
f 141 226 225
f 141 142 226
f 142 227 226
f 142 143 227
f 143 228 227
f 143 144 228
f 144 229 228
f 144 145 229
f 145 230 229
f 145 146 230
f 146 231 230
f 146 147 231
f 147 232 231
f 147 148 232
f 148 233 232
f 148 149 233
f 149 234 233
f 149 150 234
f 150 235 234
f 150 151 235
f 151 236 235
f 151 152 236
f 152 237 236
f 152 153 237
f 153 238 237
f 153 154 238
f 154 239 238
f 154 155 239
f 155 240 239
f 155 156 240
f 156 241 240
f 156 157 241
f 157 242 241
f 157 158 242
f 158 243 242
f 158 159 243
f 159 244 243
f 159 160 244
f 160 245 244
f 160 161 245
f 161 246 245
f 161 162 246
f 162 247 246
f 162 163 247
f 163 248 247
f 163 164 248
f 164 249 248
f 164 165 249
f 165 250 249
f 165 166 250
f 166 251 250
f 166 167 251
f 167 252 251
f 167 168 252
f 168 253 252
f 168 169 253
f 169 254 253
f 169 170 254
f 170 255 254
f 170 171 255
f 171 256 255
f 171 117 256
f 117 202 256
f 181 257 258
f 181 259 257
f 181 260 259
f 181 261 260
f 181 262 261
f 181 263 262
f 181 264 263
f 181 265 264
f 181 266 265
f 181 267 266
f 181 268 267
f 181 269 268
f 181 270 269
f 181 271 270
f 181 272 271
f 181 273 272
f 181 274 273
f 181 275 274
f 181 276 275
f 181 277 276
f 181 278 277
f 181 279 278
f 181 280 279
f 181 281 280
f 181 282 281
f 181 283 282
f 181 284 283
f 181 285 284
f 181 286 285
f 181 287 286
f 181 288 287
f 181 289 288
f 202 290 291
f 202 291 292
f 202 292 293
f 202 293 294
f 202 294 295
f 202 295 296
f 202 296 297
f 202 297 298
f 202 298 299
f 181 203 289
f 203 204 289
f 204 205 289
f 205 206 289
f 206 207 289
f 207 208 289
f 208 209 289
f 209 210 289
f 210 211 289
f 211 212 289
f 212 213 289
f 213 214 289
f 214 215 289
f 215 216 289
f 216 217 289
f 217 218 289
f 218 219 289
f 219 220 289
f 220 221 289
f 221 222 289
f 222 223 289
f 223 224 289
f 224 225 289
f 225 300 289
f 225 226 300
f 226 301 300
f 226 227 301
f 227 302 301
f 227 228 302
f 228 303 302
f 228 229 303
f 229 304 303
f 229 230 304
f 230 305 304
f 230 231 305
f 231 306 305
f 231 232 306
f 232 307 306
f 232 233 307
f 233 308 307
f 233 234 308
f 234 309 308
f 234 235 309
f 235 310 309
f 235 236 310
f 236 311 310
f 236 237 311
f 237 312 311
f 237 238 312
f 238 313 312
f 238 239 313
f 239 314 313
f 239 240 314
f 240 315 314
f 240 241 315
f 241 316 315
f 241 242 316
f 242 317 316
f 242 243 317
f 243 318 317
f 243 244 318
f 244 319 318
f 244 245 319
f 245 320 319
f 245 246 320
f 246 321 320
f 246 247 321
f 247 322 321
f 247 248 322
f 248 323 322
f 248 249 323
f 249 324 323
f 249 250 324
f 250 325 324
f 250 251 325
f 251 326 325
f 251 252 326
f 252 327 326
f 252 253 327
f 253 328 327
f 253 254 328
f 254 329 328
f 254 255 329
f 255 330 329
f 255 256 330
f 256 331 330
f 256 202 331
f 202 299 331
f 289 332 333
f 289 334 332
f 289 335 334
f 289 336 335
f 289 337 336
f 289 338 337
f 289 339 338
f 289 340 339
f 289 341 340
f 289 342 341
f 289 343 342
f 289 344 343
f 289 345 344
f 289 346 345
f 289 347 346
f 289 348 347
f 289 349 348
f 289 350 349
f 289 351 350
f 289 352 351
f 289 353 352
f 289 354 353
f 289 355 354
f 289 356 355
f 289 357 356
f 289 358 357
f 289 359 358
f 289 360 359
f 289 361 360
f 289 362 361
f 289 363 362
f 289 364 363
f 299 365 366
f 299 366 367
f 299 367 368
f 299 368 369
f 299 369 370
f 299 370 371
f 299 371 372
f 299 372 373
f 299 373 374
f 299 374 364
f 289 300 364
f 300 301 364
f 301 302 364
f 302 303 364
f 303 304 364
f 304 305 364
f 305 306 364
f 306 307 364
f 307 308 364
f 308 309 364
f 309 310 364
f 310 311 364
f 311 312 364
f 312 313 364
f 313 314 364
f 314 315 364
f 315 316 364
f 316 317 364
f 317 318 364
f 318 319 364
f 319 320 364
f 320 321 364
f 321 322 364
f 322 323 364
f 323 324 364
f 324 325 364
f 325 326 364
f 326 327 364
f 327 328 364
f 328 329 364
f 329 330 364
f 330 331 364
f 331 299 364
