v -0.039129 0.628784 -1.061000
v -0.039129 0.628784 -1.084841
v -0.038780 0.626335 -1.085500
v -0.038430 0.623886 -1.086158
v -0.038081 0.621437 -1.086816
v -0.037732 0.618989 -1.087474
v -0.037384 0.616541 -1.088132
v -0.037035 0.614094 -1.088790
v -0.036686 0.611647 -1.089448
v -0.036337 0.609200 -1.090105
v -0.035988 0.606754 -1.090763
v -0.035640 0.604308 -1.091420
v -0.035291 0.601862 -1.092078
v -0.034942 0.599416 -1.092735
v -0.034594 0.596971 -1.093392
v -0.034245 0.594527 -1.094049
v -0.033897 0.592082 -1.094706
v -0.033548 0.589638 -1.095363
v -0.033200 0.587195 -1.096019
v -0.032852 0.584751 -1.096676
v -0.032504 0.582308 -1.097332
v -0.032155 0.579866 -1.097989
v -0.031807 0.577423 -1.098645
v -0.031459 0.574981 -1.099301
v -0.031111 0.572540 -1.099957
v -0.030763 0.570098 -1.100613
v -0.030415 0.567658 -1.101269
v -0.030067 0.565217 -1.101925
v -0.029719 0.562777 -1.102581
v -0.029371 0.560337 -1.103236
v -0.029024 0.557897 -1.103892
v -0.028676 0.555458 -1.104547
v -0.028328 0.553019 -1.105202
v -0.027981 0.550581 -1.105857
v -0.027633 0.548143 -1.106512
v -0.027286 0.545705 -1.107167
v -0.026938 0.543268 -1.107822
v -0.026591 0.540831 -1.108477
v -0.026243 0.538394 -1.109131
v -0.025896 0.535958 -1.109786
v -0.025549 0.533522 -1.110440
v -0.025202 0.531086 -1.111094
v -0.024855 0.528651 -1.111748
v -0.024508 0.526216 -1.112402
v -0.024160 0.523782 -1.113056
v -0.023813 0.521347 -1.113710
v -0.023467 0.518914 -1.114363
v -0.023120 0.516480 -1.115017
v -0.022773 0.514047 -1.115670
v -0.022426 0.511615 -1.116324
v -0.022079 0.509182 -1.116977
v -0.021733 0.506750 -1.117630
v -0.021386 0.504319 -1.118283
v -0.021039 0.501887 -1.118935
v -0.020693 0.499457 -1.119588
v -0.020346 0.497026 -1.120241
v -0.020000 0.494596 -1.120893
v -0.020000 0.494596 -1.061000
v -0.009942 0.494900 -1.051000
v -0.029105 0.629327 -1.051000
f 60 2 1
f 60 3 2
f 60 4 3
f 60 5 4
f 60 6 5
f 60 7 6
f 60 8 7
f 60 9 8
f 60 10 9
f 60 11 10
f 60 12 11
f 60 13 12
f 60 14 13
f 60 15 14
f 60 16 15
f 60 17 16
f 60 18 17
f 60 19 18
f 60 20 19
f 60 21 20
f 60 22 21
f 60 23 22
f 60 24 23
f 60 25 24
f 60 26 25
f 60 27 26
f 60 28 27
f 60 29 28
f 60 30 29
f 60 31 30
f 60 32 31
f 60 33 32
f 60 34 33
f 60 35 34
f 60 36 35
f 60 37 36
f 60 38 37
f 60 39 38
f 60 40 39
f 60 41 40
f 60 42 41
f 60 43 42
f 60 44 43
f 60 45 44
f 60 46 45
f 60 47 46
f 60 48 47
f 60 49 48
f 60 50 49
f 60 51 50
f 60 52 51
f 60 53 52
f 60 54 53
f 60 55 54
f 60 56 55
f 60 57 56
f 60 58 57
f 58 60 59
