v 0.655858 0.000000 0.000000
v 0.652493 0.000000 -0.066352
v 0.642432 0.000000 -0.132023
v 0.625780 0.000000 -0.196340
v 0.602706 0.000000 -0.258641
v 0.573447 0.000000 -0.318289
v 0.538304 0.000000 -0.374671
v 0.497637 0.000000 -0.427208
v 0.451864 0.000000 -0.475361
v 0.401455 0.000000 -0.518636
v 0.346925 0.000000 -0.556590
v 0.288836 0.000000 -0.588832
v 0.227783 0.000000 -0.615032
v 0.164392 0.000000 -0.634921
v 0.099315 0.000000 -0.648295
v 0.033219 0.000000 -0.655016
v -0.033219 0.000000 -0.655016
v -0.099315 0.000000 -0.648295
v -0.164392 0.000000 -0.634921
v -0.227783 0.000000 -0.615032
v -0.288836 0.000000 -0.588832
v -0.346925 0.000000 -0.556590
v -0.401455 0.000000 -0.518636
v -0.451864 0.000000 -0.475361
v -0.497637 0.000000 -0.427208
v -0.538304 0.000000 -0.374671
v -0.573447 0.000000 -0.318289
v -0.602706 0.000000 -0.258641
v -0.625780 0.000000 -0.196340
v -0.642432 0.000000 -0.132023
v -0.652493 0.000000 -0.066352
v -0.655858 0.000000 0.000000
v -0.652493 0.000000 0.066352
v -0.642432 0.000000 0.132023
v -0.625780 0.000000 0.196340
v -0.602706 0.000000 0.258641
v -0.573447 0.000000 0.318289
v -0.538304 0.000000 0.374671
v -0.497637 0.000000 0.427208
v -0.451864 0.000000 0.475361
v -0.401455 0.000000 0.518636
v -0.346925 0.000000 0.556590
v -0.288836 0.000000 0.588832
v -0.227783 0.000000 0.615032
v -0.164392 0.000000 0.634921
v -0.099315 0.000000 0.648295
v -0.033219 0.000000 0.655016
v 0.033219 0.000000 0.655016
v 0.099315 0.000000 0.648295
v 0.164392 0.000000 0.634921
v 0.227783 0.000000 0.615032
v 0.288836 0.000000 0.588832
v 0.346925 0.000000 0.556590
v 0.401455 0.000000 0.518636
v 0.451864 0.000000 0.475361
v 0.497637 0.000000 0.427208
v 0.538304 0.000000 0.374671
v 0.573447 0.000000 0.318289
v 0.602706 0.000000 0.258641
v 0.625780 0.000000 0.196340
v 0.642432 0.000000 0.132023
v 0.652493 0.000000 0.066352
v -0.340858 0.000000 0.000000
v -0.341315 0.000000 0.009018
v -0.342683 0.000000 0.017944
v -0.344946 0.000000 0.026686
v -0.348082 0.000000 0.035154
v -0.352059 0.000000 0.043261
v -0.356835 0.000000 0.050924
v -0.362363 0.000000 0.058065
v -0.368584 0.000000 0.064610
v -0.375436 0.000000 0.070491
v -0.382847 0.000000 0.075650
v -0.390742 0.000000 0.080032
v -0.399040 0.000000 0.083593
v -0.407656 0.000000 0.086296
v -0.416501 0.000000 0.088114
v -0.425485 0.000000 0.089028
v -0.434515 0.000000 0.089028
v -0.443499 0.000000 0.088114
v -0.452344 0.000000 0.086296
v -0.460960 0.000000 0.083593
v -0.469258 0.000000 0.080032
v -0.477153 0.000000 0.075650
v -0.484564 0.000000 0.070491
v -0.491416 0.000000 0.064610
v -0.497637 0.000000 0.058065
v -0.503165 0.000000 0.050924
v -0.507941 0.000000 0.043261
v -0.511918 0.000000 0.035154
v -0.515054 0.000000 0.026686
v -0.517317 0.000000 0.017944
v -0.518685 0.000000 0.009018
v -0.519142 0.000000 0.000000
v -0.518685 0.000000 -0.009018
v -0.517317 0.000000 -0.017944
v -0.515054 0.000000 -0.026686
v -0.511918 0.000000 -0.035154
v -0.507941 0.000000 -0.043261
v -0.503165 0.000000 -0.050924
v -0.497637 0.000000 -0.058065
v -0.491416 0.000000 -0.064610
v -0.484564 0.000000 -0.070491
v -0.477153 0.000000 -0.075650
v -0.469258 0.000000 -0.080032
v -0.460960 0.000000 -0.083593
v -0.452344 0.000000 -0.086296
v -0.443499 0.000000 -0.088114
v -0.434515 0.000000 -0.089028
v -0.425485 0.000000 -0.089028
v -0.416501 0.000000 -0.088114
v -0.407656 0.000000 -0.086296
v -0.399040 0.000000 -0.083593
v -0.390742 0.000000 -0.080032
v -0.382847 0.000000 -0.075650
v -0.375436 0.000000 -0.070491
v -0.368584 0.000000 -0.064610
v -0.362363 0.000000 -0.058065
v -0.356835 0.000000 -0.050924
v -0.352059 0.000000 -0.043261
v -0.348082 0.000000 -0.035154
v -0.344946 0.000000 -0.026686
v -0.342683 0.000000 -0.017944
v -0.341315 0.000000 -0.009018
v 0.166642 0.000000 0.000000
v 0.165787 0.000000 0.016859
v 0.163231 0.000000 0.033545
v 0.159000 0.000000 0.049887
v 0.153137 0.000000 0.065716
v 0.145703 0.000000 0.080872
v 0.136774 0.000000 0.095197
v 0.126441 0.000000 0.108546
v 0.114811 0.000000 0.120781
v 0.102003 0.000000 0.131777
v 0.088148 0.000000 0.141420
v 0.073388 0.000000 0.149612
v 0.057876 0.000000 0.156269
v 0.041769 0.000000 0.161322
v 0.025234 0.000000 0.164720
v 0.008440 0.000000 0.166428
v -0.008440 0.000000 0.166428
v -0.025234 0.000000 0.164720
v -0.041769 0.000000 0.161322
v -0.057876 0.000000 0.156269
v -0.073388 0.000000 0.149612
v -0.088148 0.000000 0.141420
v -0.102003 0.000000 0.131777
v -0.114811 0.000000 0.120781
v -0.126441 0.000000 0.108546
v -0.136774 0.000000 0.095197
v -0.145703 0.000000 0.080872
v -0.153137 0.000000 0.065716
v -0.159000 0.000000 0.049887
v -0.163231 0.000000 0.033545
v -0.165787 0.000000 0.016859
v -0.166642 0.000000 0.000000
v -0.165787 0.000000 -0.016859
v -0.163231 0.000000 -0.033545
v -0.159000 0.000000 -0.049887
v -0.153137 0.000000 -0.065716
v -0.145703 0.000000 -0.080872
v -0.136774 0.000000 -0.095197
v -0.126441 0.000000 -0.108546
v -0.114811 0.000000 -0.120781
v -0.102003 0.000000 -0.131777
v -0.088148 0.000000 -0.141420
v -0.073388 0.000000 -0.149612
v -0.057876 0.000000 -0.156269
v -0.041769 0.000000 -0.161322
v -0.025234 0.000000 -0.164720
v -0.008440 0.000000 -0.166428
v 0.008440 0.000000 -0.166428
v 0.025234 0.000000 -0.164720
v 0.041769 0.000000 -0.161322
v 0.057876 0.000000 -0.156269
v 0.073388 0.000000 -0.149612
v 0.088148 0.000000 -0.141420
v 0.102003 0.000000 -0.131777
v 0.114811 0.000000 -0.120781
v 0.126441 0.000000 -0.108546
v 0.136774 0.000000 -0.095197
v 0.145703 0.000000 -0.080872
v 0.153137 0.000000 -0.065716
v 0.159000 0.000000 -0.049887
v 0.163231 0.000000 -0.033545
v 0.165787 0.000000 -0.016859
v 0.519142 0.000000 0.000000
v 0.518685 0.000000 0.009018
v 0.517317 0.000000 0.017944
v 0.515054 0.000000 0.026686
v 0.511918 0.000000 0.035154
v 0.507941 0.000000 0.043261
v 0.503165 0.000000 0.050924
v 0.497637 0.000000 0.058065
v 0.491416 0.000000 0.064610
v 0.484564 0.000000 0.070491
v 0.477153 0.000000 0.075650
v 0.469258 0.000000 0.080032
v 0.460960 0.000000 0.083593
v 0.452344 0.000000 0.086296
v 0.443499 0.000000 0.088114
v 0.434515 0.000000 0.089028
v 0.425485 0.000000 0.089028
v 0.416501 0.000000 0.088114
v 0.407656 0.000000 0.086296
v 0.399040 0.000000 0.083593
v 0.390742 0.000000 0.080032
v 0.382847 0.000000 0.075650
v 0.375436 0.000000 0.070491
v 0.368584 0.000000 0.064610
v 0.362363 0.000000 0.058065
v 0.356835 0.000000 0.050924
v 0.352059 0.000000 0.043261
v 0.348082 0.000000 0.035154
v 0.344946 0.000000 0.026686
v 0.342683 0.000000 0.017944
v 0.341315 0.000000 0.009018
v 0.340858 0.000000 0.000000
v 0.341315 0.000000 -0.009018
v 0.342683 0.000000 -0.017944
v 0.344946 0.000000 -0.026686
v 0.348082 0.000000 -0.035154
v 0.352059 0.000000 -0.043261
v 0.356835 0.000000 -0.050924
v 0.362363 0.000000 -0.058065
v 0.368584 0.000000 -0.064610
v 0.375436 0.000000 -0.070491
v 0.382847 0.000000 -0.075650
v 0.390742 0.000000 -0.080032
v 0.399040 0.000000 -0.083593
v 0.407656 0.000000 -0.086296
v 0.416501 0.000000 -0.088114
v 0.425485 0.000000 -0.089028
v 0.434515 0.000000 -0.089028
v 0.443499 0.000000 -0.088114
v 0.452344 0.000000 -0.086296
v 0.460960 0.000000 -0.083593
v 0.469258 0.000000 -0.080032
v 0.477153 0.000000 -0.075650
v 0.484564 0.000000 -0.070491
v 0.491416 0.000000 -0.064610
v 0.497637 0.000000 -0.058065
v 0.503165 0.000000 -0.050924
v 0.507941 0.000000 -0.043261
v 0.511918 0.000000 -0.035154
v 0.515054 0.000000 -0.026686
v 0.517317 0.000000 -0.017944
v 0.518685 0.000000 -0.009018
f 2 4 3
f 4 6 5
f 6 8 7
f 8 10 9
f 10 12 11
f 12 14 13
f 14 16 15
f 16 18 17
f 18 20 19
f 20 22 21
f 22 24 23
f 24 26 25
f 26 28 27
f 28 30 29
f 30 32 31
f 32 95 94
f 124 156 63
f 186 218 125
f 217 125 218
f 155 63 156
f 93 32 94
f 32 34 33
f 34 36 35
f 36 38 37
f 38 40 39
f 40 42 41
f 42 44 43
f 44 46 45
f 46 48 47
f 48 50 49
f 50 52 51
f 52 54 53
f 54 56 55
f 56 58 57
f 58 60 59
f 60 62 61
f 62 2 1
f 2 6 4
f 6 10 8
f 10 14 12
f 14 18 16
f 18 22 20
f 22 26 24
f 26 30 28
f 30 95 32
f 123 156 124
f 185 218 186
f 216 125 217
f 154 63 155
f 92 32 93
f 32 36 34
f 36 40 38
f 40 44 42
f 44 48 46
f 48 52 50
f 52 56 54
f 56 60 58
f 60 2 62
f 2 10 6
f 10 18 14
f 18 26 22
f 26 95 30
f 122 156 123
f 184 218 185
f 215 125 216
f 153 63 154
f 91 32 92
f 32 40 36
f 40 48 44
f 48 56 52
f 56 2 60
f 2 18 10
f 26 96 95
f 121 156 122
f 183 218 184
f 214 125 215
f 152 63 153
f 90 32 91
f 32 48 40
f 48 2 56
f 2 26 18
f 26 97 96
f 120 156 121
f 182 218 183
f 213 125 214
f 151 63 152
f 89 32 90
f 26 98 97
f 119 156 120
f 181 218 182
f 212 125 213
f 150 63 151
f 88 32 89
f 26 99 98
f 118 156 119
f 180 218 181
f 211 125 212
f 149 63 150
f 87 32 88
f 26 100 99
f 117 156 118
f 179 218 180
f 210 125 211
f 148 63 149
f 86 32 87
f 26 101 100
f 116 156 117
f 178 218 179
f 209 125 210
f 147 63 148
f 85 32 86
f 26 102 101
f 115 156 116
f 177 218 178
f 208 125 209
f 146 63 147
f 84 32 85
f 26 103 102
f 114 156 115
f 177 219 218
f 207 125 208
f 146 64 63
f 83 32 84
f 26 104 103
f 113 156 114
f 176 219 177
f 206 125 207
f 145 64 146
f 82 32 83
f 26 105 104
f 113 157 156
f 176 220 219
f 206 126 125
f 145 65 64
f 82 48 32
f 26 106 105
f 112 157 113
f 176 221 220
f 205 126 206
f 145 66 65
f 81 48 82
f 26 107 106
f 112 158 157
f 176 222 221
f 205 127 126
f 145 67 66
f 80 48 81
f 26 108 107
f 112 159 158
f 175 222 176
f 205 128 127
f 144 67 145
f 79 48 80
f 26 109 108
f 111 159 112
f 175 223 222
f 204 128 205
f 144 68 67
f 78 48 79
f 26 110 109
f 111 160 159
f 175 224 223
f 204 129 128
f 144 69 68
f 77 48 78
f 26 111 110
f 111 161 160
f 175 225 224
f 203 129 204
f 144 70 69
f 76 48 77
f 26 161 111
f 175 226 225
f 203 130 129
f 144 71 70
f 75 48 76
f 26 162 161
f 174 226 175
f 203 131 130
f 143 71 144
f 74 48 75
f 26 163 162
f 174 227 226
f 202 131 203
f 143 72 71
f 73 48 74
f 26 164 163
f 174 228 227
f 202 132 131
f 143 73 72
f 26 165 164
f 174 229 228
f 202 133 132
f 143 48 73
f 26 166 165
f 174 230 229
f 202 134 133
f 142 48 143
f 26 167 166
f 174 231 230
f 201 134 202
f 141 48 142
f 26 168 167
f 173 231 174
f 201 135 134
f 140 48 141
f 26 169 168
f 173 232 231
f 201 136 135
f 139 48 140
f 26 170 169
f 173 233 232
f 201 137 136
f 138 48 139
f 26 171 170
f 173 234 233
f 201 138 137
f 26 172 171
f 173 235 234
f 201 48 138
f 26 173 172
f 200 48 201
f 2 173 26
f 199 48 200
f 2 235 173
f 198 48 199
f 2 236 235
f 197 48 198
f 2 237 236
f 196 48 197
f 2 238 237
f 195 48 196
f 2 239 238
f 194 48 195
f 2 240 239
f 194 2 48
f 2 241 240
f 193 2 194
f 2 242 241
f 192 2 193
f 2 243 242
f 191 2 192
f 2 244 243
f 190 2 191
f 2 245 244
f 189 2 190
f 2 246 245
f 188 2 189
f 2 247 246
f 187 2 188
f 2 248 247
f 248 2 187
