v 0.105346 0.463171 -2.812713
v 0.101289 0.464075 -2.806750
v 0.096889 0.465014 -2.801021
v 0.092158 0.465974 -2.795551
v 0.087115 0.466943 -2.790361
v 0.081781 0.467906 -2.785470
v 0.076180 0.468851 -2.780898
v 0.070334 0.469764 -2.776665
v 0.064267 0.470632 -2.772786
v 0.058002 0.471444 -2.769273
v 0.051564 0.472192 -2.766132
v 0.044977 0.472866 -2.763372
v 0.038264 0.473456 -2.761000
v 0.031446 0.473957 -2.759020
v 0.024543 0.474365 -2.757434
v 0.017575 0.474675 -2.756242
v 0.010563 0.474882 -2.755447
v 0.003524 0.474986 -2.755049
v -0.003524 0.474986 -2.755049
v -0.010563 0.474882 -2.755447
v -0.017575 0.474675 -2.756242
v -0.024543 0.474365 -2.757434
v -0.031445 0.473957 -2.759020
v -0.038263 0.473456 -2.761000
v -0.044976 0.472866 -2.763372
v -0.051564 0.472192 -2.766132
v -0.058002 0.471444 -2.769273
v -0.064266 0.470632 -2.772786
v -0.070334 0.469764 -2.776665
v -0.076179 0.468851 -2.780898
v -0.081781 0.467906 -2.785470
v -0.087115 0.466943 -2.790360
v -0.092158 0.465974 -2.795551
v -0.096889 0.465014 -2.801021
v -0.101289 0.464075 -2.806749
v -0.105345 0.463171 -2.812713
v 0.105345 0.349993 -2.812713
v 0.101289 0.349993 -2.806750
v 0.096888 0.349993 -2.801021
v 0.092159 0.349993 -2.795550
v 0.087117 0.349993 -2.790358
v 0.081783 0.349993 -2.785467
v 0.076181 0.349993 -2.780897
v 0.070334 0.349993 -2.776665
v 0.064267 0.349993 -2.772786
v 0.058002 0.349993 -2.769272
v 0.051564 0.349993 -2.766131
v 0.044977 0.349993 -2.763372
v 0.038264 0.349993 -2.761000
v 0.031446 0.349993 -2.759020
v 0.024543 0.349993 -2.757433
v 0.017575 0.349993 -2.756242
v 0.010563 0.349993 -2.755447
v 0.003524 0.349993 -2.755050
v -0.003524 0.349993 -2.755050
v -0.010563 0.349993 -2.755447
v -0.017575 0.349993 -2.756242
v -0.024543 0.349993 -2.757433
v -0.031446 0.349993 -2.759020
v -0.038263 0.349993 -2.761000
v -0.044976 0.349993 -2.763372
v -0.051564 0.349993 -2.766131
v -0.058002 0.349993 -2.769272
v -0.064266 0.349993 -2.772786
v -0.070333 0.349993 -2.776665
v -0.076181 0.349993 -2.780896
v -0.081783 0.349993 -2.785467
v -0.087117 0.349993 -2.790358
v -0.092159 0.349993 -2.795550
v -0.096888 0.349993 -2.801021
v -0.101289 0.349993 -2.806750
v -0.105345 0.349993 -2.812713
v 0.105345 0.225000 -2.812713
v 0.101289 0.225000 -2.806750
v 0.096888 0.225000 -2.801021
v 0.092159 0.225000 -2.795550
v 0.087117 0.225000 -2.790358
v 0.081783 0.225000 -2.785467
v 0.076181 0.225000 -2.780897
v 0.070334 0.225000 -2.776665
v 0.064267 0.225000 -2.772786
v 0.058002 0.225000 -2.769272
v 0.051564 0.225000 -2.766131
v 0.044977 0.225000 -2.763372
v 0.038264 0.225000 -2.761000
v 0.031446 0.225000 -2.759020
v 0.024543 0.225000 -2.757433
v 0.017575 0.225000 -2.756242
v 0.010563 0.225000 -2.755447
v 0.003524 0.225000 -2.755050
v -0.003524 0.225000 -2.755050
v -0.010563 0.225000 -2.755447
v -0.017575 0.225000 -2.756242
v -0.024543 0.225000 -2.757433
v -0.031446 0.225000 -2.759020
v -0.038263 0.225000 -2.761000
v -0.044976 0.225000 -2.763372
v -0.051564 0.225000 -2.766131
v -0.058002 0.225000 -2.769272
v -0.064266 0.225000 -2.772786
v -0.070333 0.225000 -2.776665
v -0.076181 0.225000 -2.780896
v -0.081783 0.225000 -2.785467
v -0.087117 0.225000 -2.790358
v -0.092159 0.225000 -2.795550
v -0.096888 0.225000 -2.801021
v -0.101289 0.225000 -2.806750
v -0.105345 0.225000 -2.812713
f 1 2 38
f 1 38 37
f 2 3 39
f 2 39 38
f 3 4 40
f 3 40 39
f 4 5 41
f 4 41 40
f 5 6 42
f 5 42 41
f 6 7 43
f 6 43 42
f 7 8 44
f 7 44 43
f 8 9 45
f 8 45 44
f 9 10 46
f 9 46 45
f 10 11 47
f 10 47 46
f 11 12 48
f 11 48 47
f 12 13 49
f 12 49 48
f 13 14 50
f 13 50 49
f 14 15 51
f 14 51 50
f 15 16 52
f 15 52 51
f 16 17 53
f 16 53 52
f 17 18 54
f 17 54 53
f 18 19 55
f 18 55 54
f 19 20 56
f 19 56 55
f 20 21 57
f 20 57 56
f 21 22 58
f 21 58 57
f 22 23 59
f 22 59 58
f 23 24 60
f 23 60 59
f 24 25 61
f 24 61 60
f 25 26 62
f 25 62 61
f 26 27 63
f 26 63 62
f 27 28 64
f 27 64 63
f 28 29 65
f 28 65 64
f 29 30 66
f 29 66 65
f 30 31 67
f 30 67 66
f 31 32 68
f 31 68 67
f 32 33 69
f 32 69 68
f 33 34 70
f 33 70 69
f 34 35 71
f 34 71 70
f 35 36 72
f 35 72 71
f 36 1 37
f 36 37 72
f 37 38 74
f 37 74 73
f 38 39 75
f 38 75 74
f 39 40 76
f 39 76 75
f 40 41 77
f 40 77 76
f 41 42 78
f 41 78 77
f 42 43 79
f 42 79 78
f 43 44 80
f 43 80 79
f 44 45 81
f 44 81 80
f 45 46 82
f 45 82 81
f 46 47 83
f 46 83 82
f 47 48 84
f 47 84 83
f 48 49 85
f 48 85 84
f 49 50 86
f 49 86 85
f 50 51 87
f 50 87 86
f 51 52 88
f 51 88 87
f 52 53 89
f 52 89 88
f 53 54 90
f 53 90 89
f 54 55 91
f 54 91 90
f 55 56 92
f 55 92 91
f 56 57 93
f 56 93 92
f 57 58 94
f 57 94 93
f 58 59 95
f 58 95 94
f 59 60 96
f 59 96 95
f 60 61 97
f 60 97 96
f 61 62 98
f 61 98 97
f 62 63 99
f 62 99 98
f 63 64 100
f 63 100 99
f 64 65 101
f 64 101 100
f 65 66 102
f 65 102 101
f 66 67 103
f 66 103 102
f 67 68 104
f 67 104 103
f 68 69 105
f 68 105 104
f 69 70 106
f 69 106 105
f 70 71 107
f 70 107 106
f 71 72 108
f 71 108 107
f 72 37 73
f 72 73 108
