v -0.306906 0.016837 -0.603256
v -0.306906 0.220000 -0.603256
v -0.344754 0.220000 -0.641103
v -0.344754 0.000000 -0.641103
v -0.301819 0.000000 -0.598168
v -0.301819 0.010000 -0.598168
v -0.306906 0.016837 -0.603256
v -0.306736 0.016611 -0.603089
v -0.306562 0.016388 -0.602927
v -0.306385 0.016168 -0.602770
v -0.306205 0.015951 -0.602618
v -0.306022 0.015736 -0.602470
v -0.305837 0.015525 -0.602327
v -0.305649 0.015317 -0.602190
v -0.305458 0.015112 -0.602057
v -0.305265 0.014911 -0.601929
v -0.305069 0.014712 -0.601805
v -0.304871 0.014517 -0.601687
v -0.304671 0.014325 -0.601573
v -0.304468 0.014137 -0.601465
v -0.304264 0.013952 -0.601361
v -0.304057 0.013770 -0.601262
v -0.303849 0.013592 -0.601167
v -0.303639 0.013418 -0.601078
v -0.303427 0.013247 -0.600994
v -0.303213 0.013080 -0.600914
v -0.302999 0.012917 -0.600840
v -0.302782 0.012757 -0.600770
v -0.302564 0.012602 -0.600706
v -0.302345 0.012450 -0.600647
v -0.302125 0.012302 -0.600592
v -0.301904 0.012159 -0.600543
v -0.301682 0.012020 -0.600499
v -0.301459 0.011885 -0.600459
v -0.301236 0.011754 -0.600425
v -0.301011 0.011628 -0.600396
v -0.300786 0.011506 -0.600373
v -0.300561 0.011388 -0.600354
v -0.300336 0.011275 -0.600340
v -0.300111 0.011167 -0.600332
v -0.299885 0.011063 -0.600328
v -0.299660 0.010963 -0.600330
v -0.299436 0.010869 -0.600336
v -0.299212 0.010779 -0.600347
v -0.298989 0.010694 -0.600363
v -0.298767 0.010614 -0.600385
v -0.298546 0.010539 -0.600411
v -0.298326 0.010469 -0.600441
v -0.298107 0.010403 -0.600477
v -0.297890 0.010343 -0.600518
v -0.297674 0.010288 -0.600563
v -0.297460 0.010237 -0.600613
v -0.297248 0.010192 -0.600667
v -0.297038 0.010151 -0.600726
v -0.296829 0.010116 -0.600789
v -0.296622 0.010085 -0.600857
v -0.296417 0.010059 -0.600929
v -0.296215 0.010038 -0.601005
v -0.296014 0.010021 -0.601086
v -0.295816 0.010009 -0.601170
v -0.295620 0.010002 -0.601259
v -0.295426 0.010000 -0.601351
f 2 3 4
f 4 5 6
f 8 9 10
f 8 10 11
f 8 11 12
f 8 12 13
f 8 13 14
f 8 14 15
f 8 15 16
f 8 16 17
f 8 17 18
f 8 18 19
f 8 19 20
f 8 20 21
f 8 21 22
f 8 22 23
f 8 23 24
f 8 24 25
f 8 25 26
f 8 26 27
f 8 27 28
f 8 28 29
f 8 29 30
f 8 30 31
f 8 31 32
f 8 32 33
f 8 33 34
f 8 34 35
f 8 35 36
f 8 36 37
f 8 37 38
f 8 38 39
f 8 39 40
f 8 40 41
f 8 41 42
f 8 42 43
f 8 43 44
f 8 44 45
f 8 45 46
f 8 46 47
f 8 47 48
f 8 48 49
f 8 49 50
f 8 50 51
f 8 51 52
f 8 52 53
f 8 53 54
f 8 54 55
f 8 55 56
f 8 56 57
f 8 57 58
f 8 58 59
f 8 59 60
f 8 60 61
f 8 61 62
f 1 2 4
f 1 4 6
f 1 6 7
f 1 7 8
f 1 8 62
