v -3.012500 0.350000 -4.290915
v -3.337500 0.350000 -4.290915
v -3.337500 0.350000 -4.437000
v -3.336666 0.350000 -4.453440
v -3.334174 0.350000 -4.469711
v -3.330048 0.350000 -4.485647
v -3.324331 0.350000 -4.501083
v -3.317081 0.350000 -4.515862
v -3.308374 0.350000 -4.529831
v -3.298298 0.350000 -4.542848
v -3.286957 0.350000 -4.554779
v -3.274467 0.350000 -4.565501
v -3.260957 0.350000 -4.574905
v -3.246564 0.350000 -4.582893
v -3.231437 0.350000 -4.589385
v -3.215731 0.350000 -4.594313
v -3.199607 0.350000 -4.597626
v -3.183230 0.350000 -4.599291
v -3.166770 0.350000 -4.599291
v -3.150393 0.350000 -4.597626
v -3.134269 0.350000 -4.594313
v -3.118563 0.350000 -4.589385
v -3.103436 0.350000 -4.582893
v -3.089043 0.350000 -4.574905
v -3.075533 0.350000 -4.565501
v -3.063043 0.350000 -4.554779
v -3.051702 0.350000 -4.542848
v -3.041626 0.350000 -4.529831
v -3.032919 0.350000 -4.515862
v -3.025669 0.350000 -4.501083
v -3.019952 0.350000 -4.485647
v -3.015826 0.350000 -4.469711
v -3.013334 0.350000 -4.453440
v -3.012500 0.350000 -4.437000
v -3.280000 0.350000 -4.437000
v -3.279461 0.350000 -4.426377
v -3.277851 0.350000 -4.415864
v -3.275185 0.350000 -4.405567
v -3.271491 0.350000 -4.395593
v -3.266806 0.350000 -4.386043
v -3.261180 0.350000 -4.377017
v -3.254670 0.350000 -4.368606
v -3.247342 0.350000 -4.360897
v -3.239271 0.350000 -4.353969
v -3.230541 0.350000 -4.347892
v -3.221241 0.350000 -4.342731
v -3.211467 0.350000 -4.338536
v -3.201319 0.350000 -4.335352
v -3.190900 0.350000 -4.333211
v -3.180318 0.350000 -4.332135
v -3.169682 0.350000 -4.332135
v -3.159100 0.350000 -4.333211
v -3.148681 0.350000 -4.335352
v -3.138533 0.350000 -4.338536
v -3.128759 0.350000 -4.342731
v -3.119459 0.350000 -4.347892
v -3.110729 0.350000 -4.353969
v -3.102658 0.350000 -4.360897
v -3.095330 0.350000 -4.368606
v -3.088820 0.350000 -4.377017
v -3.083194 0.350000 -4.386043
v -3.078509 0.350000 -4.395593
v -3.074815 0.350000 -4.405567
v -3.072149 0.350000 -4.415864
v -3.070539 0.350000 -4.426377
v -3.070000 0.350000 -4.437000
v -3.070539 0.350000 -4.447623
v -3.072149 0.350000 -4.458136
v -3.074815 0.350000 -4.468433
v -3.078509 0.350000 -4.478407
v -3.083194 0.350000 -4.487957
v -3.088820 0.350000 -4.496983
v -3.095330 0.350000 -4.505394
v -3.102658 0.350000 -4.513103
v -3.110729 0.350000 -4.520031
v -3.119459 0.350000 -4.526108
v -3.128759 0.350000 -4.531269
v -3.138533 0.350000 -4.535464
v -3.148681 0.350000 -4.538648
v -3.159100 0.350000 -4.540789
v -3.169682 0.350000 -4.541865
v -3.180318 0.350000 -4.541865
v -3.190900 0.350000 -4.540789
v -3.201319 0.350000 -4.538648
v -3.211467 0.350000 -4.535464
v -3.221241 0.350000 -4.531269
v -3.230541 0.350000 -4.526108
v -3.239271 0.350000 -4.520031
v -3.247342 0.350000 -4.513103
v -3.254670 0.350000 -4.505394
v -3.261180 0.350000 -4.496983
v -3.266806 0.350000 -4.487957
v -3.271491 0.350000 -4.478407
v -3.275185 0.350000 -4.468433
v -3.277851 0.350000 -4.458136
v -3.279461 0.350000 -4.447623
f 2 3 35
f 96 35 3
f 3 4 5
f 5 6 7
f 7 8 9
f 9 10 11
f 11 12 13
f 13 14 15
f 15 16 17
f 17 18 19
f 19 20 21
f 21 22 23
f 23 24 25
f 25 26 27
f 27 28 29
f 29 30 31
f 31 32 33
f 33 34 1
f 2 35 36
f 95 96 3
f 3 5 7
f 7 9 11
f 11 13 15
f 15 17 19
f 19 21 23
f 23 25 27
f 27 29 31
f 31 33 1
f 2 36 37
f 94 95 3
f 3 7 11
f 11 15 19
f 19 23 27
f 27 31 1
f 2 37 38
f 93 94 3
f 3 11 19
f 2 38 39
f 92 93 3
f 2 39 40
f 91 92 3
f 2 40 41
f 90 91 3
f 2 41 42
f 89 90 3
f 2 42 43
f 88 89 3
f 2 43 44
f 88 3 19
f 2 44 45
f 87 88 19
f 2 45 46
f 86 87 19
f 2 46 47
f 85 86 19
f 2 47 48
f 84 85 19
f 1 2 48
f 83 84 19
f 1 48 49
f 82 83 19
f 1 49 50
f 81 82 19
f 1 50 51
f 80 81 19
f 1 51 52
f 79 80 19
f 1 52 53
f 78 79 19
f 1 53 54
f 77 78 19
f 1 54 55
f 76 77 19
f 1 55 56
f 75 76 19
f 1 56 57
f 74 75 19
f 1 57 58
f 73 74 19
f 1 58 59
f 72 73 19
f 1 59 60
f 72 19 27
f 1 60 61
f 71 72 27
f 1 61 62
f 70 71 27
f 1 62 63
f 69 70 27
f 1 63 64
f 68 69 27
f 27 1 64
f 67 68 27
f 27 64 65
f 66 67 27
f 27 65 66
