v 0.646859 -0.192870 -0.825000
v 0.649655 -0.183231 -0.825000
v 0.652308 -0.173551 -0.825000
v 0.654816 -0.163832 -0.825000
v 0.657180 -0.154078 -0.825000
v 0.659398 -0.144289 -0.825000
v 0.661470 -0.134469 -0.825000
v 0.663397 -0.124618 -0.825000
v 0.665176 -0.114741 -0.825000
v 0.666809 -0.104837 -0.825000
v 0.668294 -0.094911 -0.825000
v 0.669631 -0.084964 -0.825000
v 0.670821 -0.074998 -0.825000
v 0.671862 -0.065015 -0.825000
v 0.672754 -0.055018 -0.825000
v 0.673498 -0.045008 -0.825000
v 0.646859 -0.192870 -0.036213
v 0.649655 -0.183231 -0.036213
v 0.652308 -0.173551 -0.036213
v 0.654816 -0.163832 -0.036213
v 0.657180 -0.154078 -0.036213
v 0.659398 -0.144289 -0.036213
v 0.661470 -0.134469 -0.036213
v 0.663397 -0.124618 -0.036213
v 0.665176 -0.114741 -0.036213
v 0.666809 -0.104837 -0.036213
v 0.668294 -0.094911 -0.036213
v 0.669631 -0.084964 -0.036213
v 0.670821 -0.074998 -0.036213
v 0.671862 -0.065015 -0.036213
v 0.672754 -0.055018 -0.036213
v 0.673498 -0.045008 -0.036213
f 1 2 18
f 1 18 17
f 2 3 19
f 2 19 18
f 3 4 20
f 3 20 19
f 4 5 21
f 4 21 20
f 5 6 22
f 5 22 21
f 6 7 23
f 6 23 22
f 7 8 24
f 7 24 23
f 8 9 25
f 8 25 24
f 9 10 26
f 9 26 25
f 10 11 27
f 10 27 26
f 11 12 28
f 11 28 27
f 12 13 29
f 12 29 28
f 13 14 30
f 13 30 29
f 14 15 31
f 14 31 30
f 15 16 32
f 15 32 31
