v 0.000000 -0.686000 -0.500000
v -0.015235 -0.685831 -0.500000
v -0.030463 -0.685323 -0.500000
v -0.045676 -0.684478 -0.500000
v -0.060866 -0.683294 -0.500000
v -0.076026 -0.681774 -0.500000
v -0.091149 -0.679918 -0.500000
v -0.106227 -0.677726 -0.500000
v -0.121252 -0.675199 -0.500000
v -0.136217 -0.672340 -0.500000
v -0.151116 -0.669149 -0.500000
v -0.165939 -0.665628 -0.500000
v -0.180681 -0.661778 -0.500000
v -0.195334 -0.657602 -0.500000
v -0.209891 -0.653102 -0.500000
v -0.224343 -0.648279 -0.500000
v -0.238686 -0.643137 -0.500000
v -0.252910 -0.637677 -0.500000
v -0.267010 -0.631903 -0.500000
v -0.280978 -0.625817 -0.500000
v -0.294807 -0.619423 -0.500000
v -0.308491 -0.612723 -0.500000
v -0.322023 -0.605720 -0.500000
v -0.335396 -0.598419 -0.500000
v -0.348603 -0.590823 -0.500000
v -0.361639 -0.582935 -0.500000
v -0.374496 -0.574760 -0.500000
v -0.387168 -0.566301 -0.500000
v -0.399650 -0.557563 -0.500000
v -0.411934 -0.548549 -0.500000
v -0.424015 -0.539265 -0.500000
v -0.435887 -0.529715 -0.500000
v -0.447544 -0.519904 -0.500000
v -0.458980 -0.509837 -0.500000
v -0.470190 -0.499517 -0.500000
v -0.481167 -0.488952 -0.500000
v -0.491908 -0.478145 -0.500000
v -0.502406 -0.467102 -0.500000
v -0.512655 -0.455829 -0.500000
v -0.522652 -0.444331 -0.500000
v -0.525853 -0.440539 -0.500000
v -0.529027 -0.436723 -0.500000
v -0.532172 -0.432884 -0.500000
v -0.535290 -0.429023 -0.500000
v -0.538380 -0.425139 -0.500000
v -0.541441 -0.421233 -0.500000
v -0.544475 -0.417305 -0.500000
v -0.547479 -0.413355 -0.500000
v -0.550456 -0.409383 -0.500000
v -0.553403 -0.405390 -0.500000
v -0.556321 -0.401376 -0.500000
v -0.559210 -0.397341 -0.500000
v -0.562070 -0.393285 -0.500000
v -0.564901 -0.389208 -0.500000
v -0.567702 -0.385111 -0.500000
v -0.570473 -0.380994 -0.500000
v -0.573214 -0.376857 -0.500000
v -0.575926 -0.372700 -0.500000
v -0.578607 -0.368524 -0.500000
v -0.581258 -0.364328 -0.500000
v -0.583878 -0.360114 -0.500000
v -0.586468 -0.355880 -0.500000
v -0.589028 -0.351628 -0.500000
v -0.591556 -0.347358 -0.500000
v -0.594054 -0.343069 -0.500000
v -0.596520 -0.338762 -0.500000
v -0.598955 -0.334438 -0.500000
v -0.601359 -0.330096 -0.500000
v -0.603731 -0.325737 -0.500000
v -0.606072 -0.321360 -0.500000
v -0.608381 -0.316967 -0.500000
v -0.610658 -0.312558 -0.500000
v -0.612904 -0.308132 -0.500000
v -0.615117 -0.303690 -0.500000
v -0.617298 -0.299232 -0.500000
v -0.619446 -0.294758 -0.500000
v -0.621563 -0.290269 -0.500000
v -0.623646 -0.285765 -0.500000
v -0.625697 -0.281245 -0.500000
v -0.628707 -0.274452 -0.500000
v -0.631643 -0.267626 -0.500000
v -0.634504 -0.260769 -0.500000
v -0.637292 -0.253881 -0.500000
v -0.640004 -0.246963 -0.500000
v -0.642641 -0.240017 -0.500000
v -0.645203 -0.233042 -0.500000
v -0.647690 -0.226040 -0.500000
v -0.650100 -0.219011 -0.500000
v -0.652434 -0.211957 -0.500000
v -0.654692 -0.204878 -0.500000
v -0.656872 -0.197774 -0.500000
v -0.658976 -0.190648 -0.500000
v -0.661002 -0.183499 -0.500000
v -0.662951 -0.176329 -0.500000
v -0.664822 -0.169138 -0.500000
v -0.666615 -0.161927 -0.500000
v -0.668330 -0.154697 -0.500000
v -0.669966 -0.147449 -0.500000
v -0.671524 -0.140184 -0.500000
v -0.673003 -0.132902 -0.500000
v -0.674403 -0.125605 -0.500000
v -0.675724 -0.118293 -0.500000
v -0.676966 -0.110967 -0.500000
v -0.678128 -0.103628 -0.500000
v -0.679210 -0.096277 -0.500000
v -0.680213 -0.088914 -0.500000
v -0.681137 -0.081542 -0.500000
v -0.681980 -0.074159 -0.500000
v -0.682743 -0.066768 -0.500000
v -0.683426 -0.059369 -0.500000
v -0.684029 -0.051963 -0.500000
v -0.684552 -0.044551 -0.500000
v -0.684994 -0.037134 -0.500000
v -0.685356 -0.029712 -0.500000
v -0.685638 -0.022287 -0.500000
v -0.685839 -0.014860 -0.500000
v -0.685960 -0.007430 -0.500000
v -0.686000 0.000000 -0.500000
v 0.000000 -0.686000 -0.625739
v -0.015235 -0.685831 -0.625739
v -0.030463 -0.685323 -0.625739
v -0.045676 -0.684478 -0.625739
v -0.060866 -0.683294 -0.625739
v -0.076026 -0.681774 -0.625739
v -0.091149 -0.679918 -0.625739
v -0.106227 -0.677726 -0.625739
v -0.121252 -0.675199 -0.625739
v -0.136217 -0.672340 -0.625739
v -0.151116 -0.669149 -0.625739
v -0.165939 -0.665628 -0.625739
v -0.180681 -0.661778 -0.625739
v -0.195334 -0.657602 -0.625739
v -0.209891 -0.653102 -0.625739
v -0.224343 -0.648279 -0.625739
v -0.238686 -0.643137 -0.625739
v -0.252910 -0.637677 -0.625739
v -0.267010 -0.631903 -0.625739
v -0.280978 -0.625817 -0.625739
v -0.294807 -0.619423 -0.625739
v -0.308491 -0.612723 -0.625739
v -0.322023 -0.605720 -0.625739
v -0.335396 -0.598419 -0.625739
v -0.348603 -0.590823 -0.625739
v -0.361639 -0.582935 -0.625739
v -0.374496 -0.574760 -0.625739
v -0.387168 -0.566301 -0.625739
v -0.399650 -0.557563 -0.625739
v -0.411934 -0.548549 -0.625739
v -0.424015 -0.539265 -0.625739
v -0.435887 -0.529715 -0.625739
v -0.447544 -0.519904 -0.625739
v -0.458980 -0.509837 -0.625739
v -0.470190 -0.499517 -0.625739
v -0.481167 -0.488952 -0.625739
v -0.491908 -0.478145 -0.625739
v -0.502406 -0.467102 -0.625739
v -0.512655 -0.455829 -0.625739
v -0.522652 -0.444331 -0.625739
v -0.525853 -0.440539 -0.625739
v -0.529027 -0.436723 -0.625739
v -0.532172 -0.432884 -0.625739
v -0.535290 -0.429023 -0.625739
v -0.538380 -0.425139 -0.625739
v -0.541441 -0.421233 -0.625739
v -0.544475 -0.417305 -0.625739
v -0.547479 -0.413355 -0.625739
v -0.550456 -0.409383 -0.625739
v -0.553403 -0.405390 -0.625739
v -0.556321 -0.401376 -0.625739
v -0.559210 -0.397341 -0.625739
v -0.562070 -0.393285 -0.625739
v -0.564901 -0.389208 -0.625739
v -0.567702 -0.385111 -0.625739
v -0.570473 -0.380994 -0.625739
v -0.573214 -0.376857 -0.625739
v -0.575926 -0.372700 -0.625739
v -0.578607 -0.368524 -0.625739
v -0.581258 -0.364328 -0.625739
v -0.583878 -0.360114 -0.625739
v -0.586468 -0.355880 -0.625739
v -0.589028 -0.351628 -0.625739
v -0.591556 -0.347358 -0.625739
v -0.594054 -0.343069 -0.625739
v -0.596520 -0.338762 -0.625739
v -0.598955 -0.334438 -0.625739
v -0.601359 -0.330096 -0.625739
v -0.603731 -0.325737 -0.625739
v -0.606072 -0.321360 -0.625739
v -0.608381 -0.316967 -0.625739
v -0.610658 -0.312558 -0.625739
v -0.612904 -0.308132 -0.625739
v -0.615117 -0.303690 -0.625739
v -0.617298 -0.299232 -0.625739
v -0.619446 -0.294758 -0.625739
v -0.621563 -0.290269 -0.625739
v -0.623646 -0.285765 -0.625739
v -0.625697 -0.281245 -0.625739
v -0.628707 -0.274452 -0.625739
v -0.631643 -0.267626 -0.625739
v -0.634504 -0.260769 -0.625739
v -0.637292 -0.253881 -0.625739
v -0.640004 -0.246963 -0.625739
v -0.642641 -0.240017 -0.625739
v -0.645203 -0.233042 -0.625739
v -0.647690 -0.226040 -0.625739
v -0.650100 -0.219011 -0.625739
v -0.652434 -0.211957 -0.625739
v -0.654692 -0.204878 -0.625739
v -0.656872 -0.197774 -0.625739
v -0.658976 -0.190648 -0.625739
v -0.661002 -0.183499 -0.625739
v -0.662951 -0.176329 -0.625739
v -0.664822 -0.169138 -0.625739
v -0.666615 -0.161927 -0.625739
v -0.668330 -0.154697 -0.625739
v -0.669966 -0.147449 -0.625739
v -0.671524 -0.140184 -0.625739
v -0.673003 -0.132902 -0.625739
v -0.674403 -0.125605 -0.625739
v -0.675724 -0.118293 -0.625739
v -0.676966 -0.110967 -0.625739
v -0.678128 -0.103628 -0.625739
v -0.679210 -0.096277 -0.625739
v -0.680213 -0.088914 -0.625739
v -0.681137 -0.081542 -0.625739
v -0.681980 -0.074159 -0.625739
v -0.682743 -0.066768 -0.625739
v -0.683426 -0.059369 -0.625739
v -0.684029 -0.051963 -0.625739
v -0.684552 -0.044551 -0.625739
v -0.684994 -0.037134 -0.625739
v -0.685356 -0.029712 -0.625739
v -0.685638 -0.022287 -0.625739
v -0.685839 -0.014860 -0.625739
v -0.685960 -0.007430 -0.625739
v -0.686000 -0.000000 -0.625739
v 0.000000 -0.686000 -0.751478
v -0.015235 -0.685831 -0.751478
v -0.030463 -0.685323 -0.751478
v -0.045676 -0.684478 -0.751478
v -0.060866 -0.683294 -0.751478
v -0.076026 -0.681774 -0.751478
v -0.091149 -0.679918 -0.751478
v -0.106227 -0.677726 -0.751478
v -0.121252 -0.675199 -0.751478
v -0.136217 -0.672340 -0.751478
v -0.151116 -0.669149 -0.751478
v -0.165939 -0.665628 -0.751478
v -0.180681 -0.661778 -0.751478
v -0.195334 -0.657602 -0.751478
v -0.209891 -0.653102 -0.751478
v -0.224343 -0.648279 -0.751478
v -0.238686 -0.643137 -0.751478
v -0.252910 -0.637677 -0.751478
v -0.267010 -0.631903 -0.751478
v -0.280978 -0.625817 -0.751478
v -0.294807 -0.619423 -0.751478
v -0.308491 -0.612723 -0.751478
v -0.322023 -0.605720 -0.751478
v -0.335396 -0.598419 -0.751478
v -0.348603 -0.590823 -0.751478
v -0.361639 -0.582935 -0.751478
v -0.374496 -0.574760 -0.751478
v -0.387168 -0.566301 -0.751478
v -0.399650 -0.557563 -0.751478
v -0.411934 -0.548549 -0.751478
v -0.424015 -0.539265 -0.751478
v -0.435887 -0.529715 -0.751478
v -0.447544 -0.519904 -0.751478
v -0.458980 -0.509837 -0.751478
v -0.470190 -0.499517 -0.751478
v -0.481167 -0.488952 -0.751478
v -0.491908 -0.478145 -0.751478
v -0.502406 -0.467102 -0.751478
v -0.512655 -0.455829 -0.751478
v -0.522652 -0.444331 -0.751478
v -0.525853 -0.440539 -0.751478
v -0.529027 -0.436723 -0.751478
v -0.532172 -0.432884 -0.751478
v -0.535290 -0.429023 -0.751478
v -0.538380 -0.425139 -0.751478
v -0.541441 -0.421233 -0.751478
v -0.544475 -0.417305 -0.751478
v -0.547479 -0.413355 -0.751478
v -0.550456 -0.409383 -0.751478
v -0.553403 -0.405390 -0.751478
v -0.556321 -0.401376 -0.751478
v -0.559210 -0.397341 -0.751478
v -0.562070 -0.393285 -0.751478
v -0.564901 -0.389208 -0.751478
v -0.567702 -0.385111 -0.751478
v -0.570473 -0.380994 -0.751478
v -0.573214 -0.376857 -0.751478
v -0.575926 -0.372700 -0.751478
v -0.578607 -0.368524 -0.751478
v -0.581258 -0.364328 -0.751478
v -0.583878 -0.360114 -0.751478
v -0.586468 -0.355880 -0.751478
v -0.589028 -0.351628 -0.751478
v -0.591556 -0.347358 -0.751478
v -0.594054 -0.343069 -0.751478
v -0.596520 -0.338762 -0.751478
v -0.598955 -0.334438 -0.751478
v -0.601359 -0.330096 -0.751478
v -0.603731 -0.325737 -0.751478
v -0.606072 -0.321360 -0.751478
v -0.608381 -0.316967 -0.751478
v -0.610658 -0.312558 -0.751478
v -0.612904 -0.308132 -0.751478
v -0.615117 -0.303690 -0.751478
v -0.617298 -0.299232 -0.751478
v -0.619446 -0.294758 -0.751478
v -0.621563 -0.290269 -0.751478
v -0.623646 -0.285765 -0.751478
v -0.625697 -0.281245 -0.751478
v -0.628707 -0.274452 -0.751478
v -0.631643 -0.267626 -0.751478
v -0.634504 -0.260769 -0.751478
v -0.637292 -0.253881 -0.751478
v -0.640004 -0.246963 -0.751478
v -0.642641 -0.240017 -0.751478
v -0.645203 -0.233042 -0.751478
v -0.647690 -0.226040 -0.751478
v -0.650100 -0.219011 -0.751478
v -0.652434 -0.211957 -0.751478
v -0.654692 -0.204878 -0.751478
v -0.656872 -0.197774 -0.751478
v -0.658976 -0.190648 -0.751478
v -0.661002 -0.183499 -0.751478
v -0.662951 -0.176329 -0.751478
v -0.664822 -0.169138 -0.751478
v -0.666615 -0.161927 -0.751478
v -0.668330 -0.154697 -0.751478
v -0.669966 -0.147449 -0.751478
v -0.671524 -0.140184 -0.751478
v -0.673003 -0.132902 -0.751478
v -0.674403 -0.125605 -0.751478
v -0.675724 -0.118293 -0.751478
v -0.676966 -0.110967 -0.751478
v -0.678128 -0.103628 -0.751478
v -0.679210 -0.096277 -0.751478
v -0.680213 -0.088914 -0.751478
v -0.681137 -0.081542 -0.751478
v -0.681980 -0.074159 -0.751478
v -0.682743 -0.066768 -0.751478
v -0.683426 -0.059369 -0.751478
v -0.684029 -0.051963 -0.751478
v -0.684552 -0.044551 -0.751478
v -0.684994 -0.037134 -0.751478
v -0.685356 -0.029712 -0.751478
v -0.685638 -0.022287 -0.751478
v -0.685839 -0.014860 -0.751478
v -0.685960 -0.007430 -0.751478
v -0.686000 -0.000000 -0.751478
f 1 2 120
f 1 120 119
f 2 3 121
f 2 121 120
f 3 4 122
f 3 122 121
f 4 5 123
f 4 123 122
f 5 6 124
f 5 124 123
f 6 7 125
f 6 125 124
f 7 8 126
f 7 126 125
f 8 9 127
f 8 127 126
f 9 10 128
f 9 128 127
f 10 11 129
f 10 129 128
f 11 12 130
f 11 130 129
f 12 13 131
f 12 131 130
f 13 14 132
f 13 132 131
f 14 15 133
f 14 133 132
f 15 16 134
f 15 134 133
f 16 17 135
f 16 135 134
f 17 18 136
f 17 136 135
f 18 19 137
f 18 137 136
f 19 20 138
f 19 138 137
f 20 21 139
f 20 139 138
f 21 22 140
f 21 140 139
f 22 23 141
f 22 141 140
f 23 24 142
f 23 142 141
f 24 25 143
f 24 143 142
f 25 26 144
f 25 144 143
f 26 27 145
f 26 145 144
f 27 28 146
f 27 146 145
f 28 29 147
f 28 147 146
f 29 30 148
f 29 148 147
f 30 31 149
f 30 149 148
f 31 32 150
f 31 150 149
f 32 33 151
f 32 151 150
f 33 34 152
f 33 152 151
f 34 35 153
f 34 153 152
f 35 36 154
f 35 154 153
f 36 37 155
f 36 155 154
f 37 38 156
f 37 156 155
f 38 39 157
f 38 157 156
f 39 40 158
f 39 158 157
f 40 41 159
f 40 159 158
f 41 42 160
f 41 160 159
f 42 43 161
f 42 161 160
f 43 44 162
f 43 162 161
f 44 45 163
f 44 163 162
f 45 46 164
f 45 164 163
f 46 47 165
f 46 165 164
f 47 48 166
f 47 166 165
f 48 49 167
f 48 167 166
f 49 50 168
f 49 168 167
f 50 51 169
f 50 169 168
f 51 52 170
f 51 170 169
f 52 53 171
f 52 171 170
f 53 54 172
f 53 172 171
f 54 55 173
f 54 173 172
f 55 56 174
f 55 174 173
f 56 57 175
f 56 175 174
f 57 58 176
f 57 176 175
f 58 59 177
f 58 177 176
f 59 60 178
f 59 178 177
f 60 61 179
f 60 179 178
f 61 62 180
f 61 180 179
f 62 63 181
f 62 181 180
f 63 64 182
f 63 182 181
f 64 65 183
f 64 183 182
f 65 66 184
f 65 184 183
f 66 67 185
f 66 185 184
f 67 68 186
f 67 186 185
f 68 69 187
f 68 187 186
f 69 70 188
f 69 188 187
f 70 71 189
f 70 189 188
f 71 72 190
f 71 190 189
f 72 73 191
f 72 191 190
f 73 74 192
f 73 192 191
f 74 75 193
f 74 193 192
f 75 76 194
f 75 194 193
f 76 77 195
f 76 195 194
f 77 78 196
f 77 196 195
f 78 79 197
f 78 197 196
f 79 80 198
f 79 198 197
f 80 81 199
f 80 199 198
f 81 82 200
f 81 200 199
f 82 83 201
f 82 201 200
f 83 84 202
f 83 202 201
f 84 85 203
f 84 203 202
f 85 86 204
f 85 204 203
f 86 87 205
f 86 205 204
f 87 88 206
f 87 206 205
f 88 89 207
f 88 207 206
f 89 90 208
f 89 208 207
f 90 91 209
f 90 209 208
f 91 92 210
f 91 210 209
f 92 93 211
f 92 211 210
f 93 94 212
f 93 212 211
f 94 95 213
f 94 213 212
f 95 96 214
f 95 214 213
f 96 97 215
f 96 215 214
f 97 98 216
f 97 216 215
f 98 99 217
f 98 217 216
f 99 100 218
f 99 218 217
f 100 101 219
f 100 219 218
f 101 102 220
f 101 220 219
f 102 103 221
f 102 221 220
f 103 104 222
f 103 222 221
f 104 105 223
f 104 223 222
f 105 106 224
f 105 224 223
f 106 107 225
f 106 225 224
f 107 108 226
f 107 226 225
f 108 109 227
f 108 227 226
f 109 110 228
f 109 228 227
f 110 111 229
f 110 229 228
f 111 112 230
f 111 230 229
f 112 113 231
f 112 231 230
f 113 114 232
f 113 232 231
f 114 115 233
f 114 233 232
f 115 116 234
f 115 234 233
f 116 117 235
f 116 235 234
f 117 118 236
f 117 236 235
f 119 120 238
f 119 238 237
f 120 121 239
f 120 239 238
f 121 122 240
f 121 240 239
f 122 123 241
f 122 241 240
f 123 124 242
f 123 242 241
f 124 125 243
f 124 243 242
f 125 126 244
f 125 244 243
f 126 127 245
f 126 245 244
f 127 128 246
f 127 246 245
f 128 129 247
f 128 247 246
f 129 130 248
f 129 248 247
f 130 131 249
f 130 249 248
f 131 132 250
f 131 250 249
f 132 133 251
f 132 251 250
f 133 134 252
f 133 252 251
f 134 135 253
f 134 253 252
f 135 136 254
f 135 254 253
f 136 137 255
f 136 255 254
f 137 138 256
f 137 256 255
f 138 139 257
f 138 257 256
f 139 140 258
f 139 258 257
f 140 141 259
f 140 259 258
f 141 142 260
f 141 260 259
f 142 143 261
f 142 261 260
f 143 144 262
f 143 262 261
f 144 145 263
f 144 263 262
f 145 146 264
f 145 264 263
f 146 147 265
f 146 265 264
f 147 148 266
f 147 266 265
f 148 149 267
f 148 267 266
f 149 150 268
f 149 268 267
f 150 151 269
f 150 269 268
f 151 152 270
f 151 270 269
f 152 153 271
f 152 271 270
f 153 154 272
f 153 272 271
f 154 155 273
f 154 273 272
f 155 156 274
f 155 274 273
f 156 157 275
f 156 275 274
f 157 158 276
f 157 276 275
f 158 159 277
f 158 277 276
f 159 160 278
f 159 278 277
f 160 161 279
f 160 279 278
f 161 162 280
f 161 280 279
f 162 163 281
f 162 281 280
f 163 164 282
f 163 282 281
f 164 165 283
f 164 283 282
f 165 166 284
f 165 284 283
f 166 167 285
f 166 285 284
f 167 168 286
f 167 286 285
f 168 169 287
f 168 287 286
f 169 170 288
f 169 288 287
f 170 171 289
f 170 289 288
f 171 172 290
f 171 290 289
f 172 173 291
f 172 291 290
f 173 174 292
f 173 292 291
f 174 175 293
f 174 293 292
f 175 176 294
f 175 294 293
f 176 177 295
f 176 295 294
f 177 178 296
f 177 296 295
f 178 179 297
f 178 297 296
f 179 180 298
f 179 298 297
f 180 181 299
f 180 299 298
f 181 182 300
f 181 300 299
f 182 183 301
f 182 301 300
f 183 184 302
f 183 302 301
f 184 185 303
f 184 303 302
f 185 186 304
f 185 304 303
f 186 187 305
f 186 305 304
f 187 188 306
f 187 306 305
f 188 189 307
f 188 307 306
f 189 190 308
f 189 308 307
f 190 191 309
f 190 309 308
f 191 192 310
f 191 310 309
f 192 193 311
f 192 311 310
f 193 194 312
f 193 312 311
f 194 195 313
f 194 313 312
f 195 196 314
f 195 314 313
f 196 197 315
f 196 315 314
f 197 198 316
f 197 316 315
f 198 199 317
f 198 317 316
f 199 200 318
f 199 318 317
f 200 201 319
f 200 319 318
f 201 202 320
f 201 320 319
f 202 203 321
f 202 321 320
f 203 204 322
f 203 322 321
f 204 205 323
f 204 323 322
f 205 206 324
f 205 324 323
f 206 207 325
f 206 325 324
f 207 208 326
f 207 326 325
f 208 209 327
f 208 327 326
f 209 210 328
f 209 328 327
f 210 211 329
f 210 329 328
f 211 212 330
f 211 330 329
f 212 213 331
f 212 331 330
f 213 214 332
f 213 332 331
f 214 215 333
f 214 333 332
f 215 216 334
f 215 334 333
f 216 217 335
f 216 335 334
f 217 218 336
f 217 336 335
f 218 219 337
f 218 337 336
f 219 220 338
f 219 338 337
f 220 221 339
f 220 339 338
f 221 222 340
f 221 340 339
f 222 223 341
f 222 341 340
f 223 224 342
f 223 342 341
f 224 225 343
f 224 343 342
f 225 226 344
f 225 344 343
f 226 227 345
f 226 345 344
f 227 228 346
f 227 346 345
f 228 229 347
f 228 347 346
f 229 230 348
f 229 348 347
f 230 231 349
f 230 349 348
f 231 232 350
f 231 350 349
f 232 233 351
f 232 351 350
f 233 234 352
f 233 352 351
f 234 235 353
f 234 353 352
f 235 236 354
f 235 354 353
