v -1.020000 -0.978866 -6.163000
v -1.019785 -0.980482 -6.157877
v -1.019162 -0.981974 -6.153143
v -1.017751 -0.983790 -6.147384
v -1.015746 -0.985427 -6.142192
v -1.013223 -0.986909 -6.137493
v -1.010259 -0.988257 -6.133216
v -1.006928 -0.989496 -6.129288
v -1.003300 -0.990645 -6.125644
v -0.999354 -0.991698 -6.122303
v -0.995005 -0.992630 -6.119346
v -0.990166 -0.993415 -6.116857
v -0.984749 -0.994026 -6.114919
v -0.978668 -0.994438 -6.113614
v -0.973619 -0.994600 -6.113101
v -1.020000 -0.759342 -6.163000
v -1.019737 -0.759342 -6.157882
v -1.019024 -0.759342 -6.153170
v -1.017523 -0.759342 -6.147459
v -1.015513 -0.759342 -6.142298
v -1.013061 -0.759342 -6.137589
v -1.010196 -0.759342 -6.133263
v -1.006927 -0.759342 -6.129289
v -1.003271 -0.759342 -6.125676
v -0.999249 -0.759342 -6.122448
v -0.994852 -0.759342 -6.119614
v -0.990023 -0.759342 -6.117184
v -0.984663 -0.759342 -6.115198
v -0.978644 -0.759342 -6.113753
v -0.973617 -0.759342 -6.113131
v -1.020000 -0.524053 -6.163000
v -1.019737 -0.524053 -6.157882
v -1.019024 -0.524053 -6.153170
v -1.017523 -0.524053 -6.147459
v -1.015513 -0.524053 -6.142298
v -1.013061 -0.524053 -6.137589
v -1.010196 -0.524053 -6.133263
v -1.006927 -0.524053 -6.129289
v -1.003271 -0.524053 -6.125676
v -0.999249 -0.524053 -6.122448
v -0.994852 -0.524053 -6.119614
v -0.990023 -0.524053 -6.117184
v -0.984663 -0.524053 -6.115198
v -0.978644 -0.524053 -6.113753
v -0.973617 -0.524053 -6.113131
f 1 17 2
f 1 16 17
f 2 18 3
f 2 17 18
f 3 19 4
f 3 18 19
f 4 20 5
f 4 19 20
f 5 21 6
f 5 20 21
f 6 22 7
f 6 21 22
f 7 23 8
f 7 22 23
f 8 24 9
f 8 23 24
f 9 25 10
f 9 24 25
f 10 26 11
f 10 25 26
f 11 27 12
f 11 26 27
f 12 28 13
f 12 27 28
f 13 29 14
f 13 28 29
f 14 30 15
f 14 29 30
f 16 32 17
f 16 31 32
f 17 33 18
f 17 32 33
f 18 34 19
f 18 33 34
f 19 35 20
f 19 34 35
f 20 36 21
f 20 35 36
f 21 37 22
f 21 36 37
f 22 38 23
f 22 37 38
f 23 39 24
f 23 38 39
f 24 40 25
f 24 39 40
f 25 41 26
f 25 40 41
f 26 42 27
f 26 41 42
f 27 43 28
f 27 42 43
f 28 44 29
f 28 43 44
f 29 45 30
f 29 44 45
