v 0.629314 0.029392 -1.051004
v 0.629246 0.030820 -1.051148
v 0.629176 0.032211 -1.051492
v 0.629107 0.033538 -1.052030
v 0.629040 0.034773 -1.052751
v 0.628977 0.035892 -1.053639
v 0.628920 0.036872 -1.054677
v 0.628871 0.037694 -1.055843
v 0.628832 0.038341 -1.057113
v 0.628804 0.038800 -1.058462
v 0.628788 0.039063 -1.059862
v 0.561862 0.019777 -1.051004
v 0.561661 0.021186 -1.051147
v 0.561465 0.022559 -1.051491
v 0.561278 0.023869 -1.052030
v 0.561104 0.025089 -1.052750
v 0.560947 0.026194 -1.053639
v 0.560809 0.027163 -1.054677
v 0.560693 0.027975 -1.055843
v 0.560602 0.028615 -1.057113
v 0.560537 0.029069 -1.058462
v 0.560500 0.029329 -1.059862
v 0.493569 0.010042 -1.051004
v 0.493368 0.011450 -1.051147
v 0.493172 0.012824 -1.051491
v 0.492985 0.014133 -1.052030
v 0.492811 0.015354 -1.052750
v 0.492654 0.016459 -1.053639
v 0.492516 0.017428 -1.054677
v 0.492400 0.018240 -1.055843
v 0.492309 0.018880 -1.057113
v 0.492244 0.019334 -1.058462
v 0.492207 0.019594 -1.059862
f 1 13 2
f 1 12 13
f 2 14 3
f 2 13 14
f 3 15 4
f 3 14 15
f 4 16 5
f 4 15 16
f 5 17 6
f 5 16 17
f 6 18 7
f 6 17 18
f 7 19 8
f 7 18 19
f 8 20 9
f 8 19 20
f 9 21 10
f 9 20 21
f 10 22 11
f 10 21 22
f 12 24 13
f 12 23 24
f 13 25 14
f 13 24 25
f 14 26 15
f 14 25 26
f 15 27 16
f 15 26 27
f 16 28 17
f 16 27 28
f 17 29 18
f 17 28 29
f 18 30 19
f 18 29 30
f 19 31 20
f 19 30 31
f 20 32 21
f 20 31 32
f 21 33 22
f 21 32 33
