v 0.132356 -0.220753 -2.880000
v 0.132676 -0.220198 -2.867354
v 0.133635 -0.218537 -2.854838
v 0.135222 -0.215789 -2.842580
v 0.137421 -0.211980 -2.830706
v 0.140209 -0.207151 -2.819337
v 0.143558 -0.201350 -2.808591
v 0.147433 -0.194638 -2.798578
v 0.151795 -0.187083 -2.789401
v 0.156599 -0.178762 -2.781153
v 0.161795 -0.169762 -2.773919
v 0.167331 -0.160174 -2.767774
v 0.173149 -0.150097 -2.762781
v 0.179190 -0.139634 -2.758990
v 0.185391 -0.128893 -2.756441
v 0.191690 -0.117983 -2.755160
v 0.198021 -0.107017 -2.755160
v 0.204320 -0.096107 -2.756441
v 0.210521 -0.085366 -2.758990
v 0.216562 -0.074903 -2.762781
v 0.222380 -0.064826 -2.767774
v 0.227916 -0.055238 -2.773919
v 0.233112 -0.046238 -2.781153
v 0.237916 -0.037917 -2.789401
v 0.242278 -0.030362 -2.798578
v 0.246153 -0.023650 -2.808591
v 0.249502 -0.017849 -2.819337
v 0.252291 -0.013020 -2.830706
v 0.254489 -0.009211 -2.842580
v 0.256076 -0.006463 -2.854838
v 0.257035 -0.004802 -2.867354
v 0.257356 -0.004247 -2.880000
v 0.257035 -0.004802 -2.892646
v 0.256076 -0.006463 -2.905162
v 0.254489 -0.009211 -2.917420
v 0.252291 -0.013020 -2.929294
v 0.249502 -0.017849 -2.940663
v 0.246153 -0.023650 -2.951409
v 0.242278 -0.030362 -2.961422
v 0.237916 -0.037917 -2.970599
v 0.233112 -0.046238 -2.978847
v 0.227916 -0.055238 -2.986081
v 0.222380 -0.064826 -2.992226
v 0.216562 -0.074903 -2.997219
v 0.210521 -0.085366 -3.001010
v 0.204320 -0.096107 -3.003559
v 0.198021 -0.107017 -3.004840
v 0.191690 -0.117983 -3.004840
v 0.185391 -0.128893 -3.003559
v 0.179190 -0.139634 -3.001010
v 0.173149 -0.150097 -2.997219
v 0.167331 -0.160174 -2.992226
v 0.161795 -0.169762 -2.986081
v 0.156599 -0.178762 -2.978847
v 0.151795 -0.187083 -2.970599
v 0.147433 -0.194638 -2.961422
v 0.143558 -0.201350 -2.951409
v 0.140209 -0.207151 -2.940663
v 0.137421 -0.211980 -2.929294
v 0.135222 -0.215789 -2.917420
v 0.133635 -0.218537 -2.905162
v 0.132676 -0.220198 -2.892646
f 1 3 2
f 1 4 3
f 1 5 4
f 1 6 5
f 1 7 6
f 1 8 7
f 1 9 8
f 1 10 9
f 1 11 10
f 1 12 11
f 1 13 12
f 1 14 13
f 1 15 14
f 1 16 15
f 1 17 16
f 1 18 17
f 1 19 18
f 1 20 19
f 1 21 20
f 1 22 21
f 1 23 22
f 1 24 23
f 1 25 24
f 1 26 25
f 1 27 26
f 1 28 27
f 1 29 28
f 1 30 29
f 1 31 30
f 1 32 31
f 1 33 32
f 1 34 33
f 1 35 34
f 1 36 35
f 1 37 36
f 1 38 37
f 1 39 38
f 1 40 39
f 1 41 40
f 1 42 41
f 1 43 42
f 1 44 43
f 1 45 44
f 1 46 45
f 1 47 46
f 1 48 47
f 1 49 48
f 1 50 49
f 1 51 50
f 1 52 51
f 1 53 52
f 1 54 53
f 1 55 54
f 1 56 55
f 1 57 56
f 1 58 57
f 1 59 58
f 1 60 59
f 1 61 60
f 1 62 61
