v -0.970000 -0.425572 -6.145635
v 0.855000 -0.425572 -6.145635
v 0.855000 -0.332409 -6.673988
v 0.405000 -0.332409 -6.673988
v 0.405000 -0.359450 -6.520635
v 0.404929 -0.360353 -6.515514
v 0.404716 -0.361247 -6.510439
v 0.404361 -0.362135 -6.505408
v 0.403864 -0.363014 -6.500418
v 0.403226 -0.363887 -6.495469
v 0.402446 -0.364753 -6.490556
v 0.401523 -0.365613 -6.485680
v 0.400459 -0.366467 -6.480836
v 0.399252 -0.367316 -6.476023
v 0.397903 -0.368159 -6.471240
v 0.396411 -0.368998 -6.466483
v 0.394778 -0.369832 -6.461752
v 0.393004 -0.370661 -6.457052
v 0.391093 -0.371483 -6.452390
v 0.389047 -0.372297 -6.447772
v 0.386869 -0.373103 -6.443204
v 0.384561 -0.373898 -6.438692
v 0.382126 -0.374683 -6.434244
v 0.379566 -0.375455 -6.429865
v 0.376884 -0.376213 -6.425563
v 0.374083 -0.376958 -6.421342
v 0.371165 -0.377686 -6.417210
v 0.368132 -0.378398 -6.413173
v 0.364987 -0.379093 -6.409233
v 0.361733 -0.379770 -6.405392
v 0.358372 -0.380430 -6.401652
v 0.354906 -0.381071 -6.398015
v 0.351338 -0.381694 -6.394483
v 0.347669 -0.382297 -6.391058
v 0.343904 -0.382882 -6.387743
v 0.340043 -0.383447 -6.384538
v 0.336089 -0.383992 -6.381447
v 0.332045 -0.384517 -6.378470
v 0.327914 -0.385021 -6.375611
v 0.323701 -0.385505 -6.372870
v 0.319413 -0.385966 -6.370251
v 0.315055 -0.386407 -6.367754
v 0.310634 -0.386825 -6.365383
v 0.306157 -0.387220 -6.363139
v 0.301628 -0.387593 -6.361024
v 0.297055 -0.387943 -6.359040
v 0.292444 -0.388270 -6.357189
v 0.287801 -0.388572 -6.355474
v 0.283132 -0.388850 -6.353895
v 0.278441 -0.389104 -6.352456
v 0.273729 -0.389333 -6.351155
v 0.268993 -0.389538 -6.349993
v 0.264232 -0.389719 -6.348969
v 0.259442 -0.389875 -6.348083
v 0.254622 -0.390007 -6.347334
v 0.249770 -0.390115 -6.346722
v 0.244884 -0.390199 -6.346246
v 0.239962 -0.390259 -6.345907
v 0.235001 -0.390295 -6.345703
v 0.230000 -0.390307 -6.345635
v -0.970000 -0.390307 -6.345635
v 0.392793 -0.376481 -6.424046
v 0.393688 -0.374498 -6.435293
v 0.395208 -0.372489 -6.446687
v 0.397375 -0.370463 -6.458173
v 0.400212 -0.368431 -6.469697
v 0.403743 -0.366402 -6.481206
v 0.407991 -0.364385 -6.492644
v 0.412967 -0.362391 -6.503956
v 0.418656 -0.360430 -6.515076
v 0.425035 -0.358514 -6.525939
v 0.432083 -0.356656 -6.536478
v 0.439779 -0.354866 -6.546629
v 0.448101 -0.353156 -6.556326
v 0.457027 -0.351538 -6.565502
v 0.466517 -0.350021 -6.574105
v 0.476497 -0.348610 -6.582107
v 0.486889 -0.347310 -6.589483
v 0.497615 -0.346124 -6.596208
v 0.508595 -0.345057 -6.602257
v 0.519752 -0.344115 -6.607605
v 0.531008 -0.343300 -6.612227
v 0.542313 -0.342613 -6.616118
v 0.553657 -0.342052 -6.619301
v 0.565033 -0.341612 -6.621799
v 0.576434 -0.341288 -6.623637
v 0.587853 -0.341076 -6.624838
v 0.599283 -0.340972 -6.625427
v 0.610717 -0.340972 -6.625427
v 0.622147 -0.341076 -6.624838
v 0.633566 -0.341288 -6.623637
v 0.644967 -0.341612 -6.621799
v 0.656343 -0.342052 -6.619301
v 0.667687 -0.342613 -6.616118
v 0.678992 -0.343300 -6.612227
v 0.690248 -0.344115 -6.607605
v 0.701405 -0.345057 -6.602257
v 0.712385 -0.346124 -6.596208
v 0.723111 -0.347310 -6.589483
v 0.733503 -0.348610 -6.582107
v 0.743483 -0.350021 -6.574105
v 0.752973 -0.351538 -6.565502
v 0.761899 -0.353156 -6.556326
v 0.770221 -0.354866 -6.546629
v 0.777917 -0.356656 -6.536478
v 0.784965 -0.358514 -6.525939
v 0.791344 -0.360430 -6.515076
v 0.797033 -0.362391 -6.503956
v 0.802009 -0.364385 -6.492644
v 0.806257 -0.366402 -6.481206
v 0.809788 -0.368431 -6.469697
v 0.812625 -0.370463 -6.458173
v 0.814792 -0.372489 -6.446687
v 0.816312 -0.374498 -6.435293
v 0.817207 -0.376481 -6.424046
v 0.817500 -0.378429 -6.413000
v 0.817207 -0.380376 -6.401954
v 0.816312 -0.382360 -6.390707
v 0.814792 -0.384369 -6.379313
v 0.812625 -0.386394 -6.367827
v 0.809788 -0.388426 -6.356303
v 0.806257 -0.390455 -6.344794
v 0.802009 -0.392472 -6.333356
v 0.797033 -0.394467 -6.322044
v 0.791344 -0.396427 -6.310924
v 0.784965 -0.398343 -6.300061
v 0.777917 -0.400201 -6.289522
v 0.770221 -0.401991 -6.279371
v 0.761899 -0.403701 -6.269674
v 0.752973 -0.405319 -6.260498
v 0.743483 -0.406836 -6.251895
v 0.733503 -0.408247 -6.243893
v 0.723111 -0.409547 -6.236517
v 0.712385 -0.410733 -6.229792
v 0.701405 -0.411800 -6.223743
v 0.690248 -0.412743 -6.218395
v 0.678992 -0.413558 -6.213773
v 0.667687 -0.414244 -6.209882
v 0.656343 -0.414805 -6.206699
v 0.644967 -0.415246 -6.204201
v 0.633566 -0.415570 -6.202363
v 0.622147 -0.415781 -6.201162
v 0.610717 -0.415885 -6.200573
v 0.599283 -0.415885 -6.200573
v 0.587853 -0.415781 -6.201162
v 0.576434 -0.415570 -6.202363
v 0.565033 -0.415246 -6.204201
v 0.553657 -0.414805 -6.206699
v 0.542313 -0.414244 -6.209882
v 0.531008 -0.413558 -6.213773
v 0.519752 -0.412743 -6.218395
v 0.508595 -0.411800 -6.223743
v 0.497615 -0.410733 -6.229792
v 0.486889 -0.409547 -6.236517
v 0.476497 -0.408247 -6.243893
v 0.466517 -0.406836 -6.251895
v 0.457027 -0.405319 -6.260498
v 0.448101 -0.403701 -6.269674
v 0.439779 -0.401991 -6.279371
v 0.432083 -0.400201 -6.289522
v 0.425035 -0.398343 -6.300061
v 0.418656 -0.396427 -6.310924
v 0.412967 -0.394467 -6.322044
v 0.407991 -0.392472 -6.333356
v 0.403743 -0.390455 -6.344794
v 0.400212 -0.388426 -6.356303
v 0.397375 -0.386394 -6.367827
v 0.395208 -0.384369 -6.379313
v 0.393688 -0.382360 -6.390707
v 0.392793 -0.380376 -6.401954
v 0.392500 -0.378429 -6.413000
f 61 2 1
f 3 88 4
f 87 4 88
f 3 89 88
f 86 4 87
f 3 90 89
f 85 4 86
f 3 91 90
f 84 4 85
f 3 92 91
f 83 4 84
f 3 93 92
f 82 4 83
f 3 94 93
f 81 4 82
f 3 95 94
f 80 4 81
f 3 96 95
f 79 4 80
f 3 97 96
f 78 4 79
f 3 98 97
f 77 4 78
f 3 99 98
f 76 4 77
f 3 100 99
f 75 4 76
f 3 101 100
f 74 4 75
f 3 102 101
f 73 4 74
f 3 103 102
f 72 4 73
f 3 104 103
f 71 4 72
f 3 105 104
f 70 4 71
f 3 106 105
f 69 4 70
f 3 107 106
f 68 4 69
f 3 108 107
f 68 5 4
f 3 109 108
f 68 6 5
f 3 110 109
f 67 6 68
f 3 111 110
f 67 7 6
f 3 112 111
f 67 8 7
f 3 113 112
f 67 9 8
f 2 113 3
f 66 9 67
f 2 114 113
f 66 10 9
f 2 115 114
f 65 10 66
f 2 116 115
f 65 11 10
f 2 117 116
f 64 11 65
f 2 118 117
f 64 12 11
f 2 119 118
f 64 13 12
f 2 120 119
f 64 14 13
f 2 121 120
f 64 15 14
f 2 122 121
f 63 15 64
f 2 123 122
f 63 16 15
f 2 124 123
f 63 17 16
f 2 125 124
f 62 17 63
f 2 126 125
f 62 18 17
f 2 127 126
f 171 18 62
f 2 128 127
f 171 19 18
f 2 129 128
f 170 19 171
f 2 130 129
f 170 20 19
f 2 131 130
f 169 20 170
f 2 132 131
f 169 21 20
f 2 133 132
f 169 22 21
f 2 134 133
f 168 22 169
f 2 135 134
f 168 23 22
f 2 136 135
f 167 23 168
f 2 137 136
f 167 24 23
f 2 138 137
f 166 24 167
f 2 139 138
f 166 25 24
f 2 140 139
f 165 25 166
f 2 141 140
f 165 26 25
f 2 142 141
f 164 26 165
f 2 143 142
f 164 27 26
f 2 144 143
f 164 28 27
f 2 145 144
f 163 28 164
f 61 145 2
f 163 29 28
f 61 146 145
f 162 29 163
f 61 147 146
f 162 30 29
f 61 148 147
f 161 30 162
f 61 149 148
f 161 31 30
f 61 150 149
f 161 32 31
f 61 151 150
f 160 32 161
f 60 151 61
f 160 33 32
f 59 151 60
f 159 33 160
f 58 151 59
f 159 34 33
f 57 151 58
f 159 35 34
f 56 151 57
f 158 35 159
f 56 152 151
f 158 36 35
f 55 152 56
f 158 37 36
f 54 152 55
f 157 37 158
f 53 152 54
f 157 38 37
f 52 152 53
f 157 39 38
f 51 152 52
f 156 39 157
f 51 153 152
f 156 40 39
f 50 153 51
f 156 41 40
f 49 153 50
f 156 42 41
f 48 153 49
f 155 42 156
f 47 153 48
f 155 43 42
f 47 154 153
f 155 44 43
f 46 154 47
f 154 44 155
f 45 154 46
f 154 45 44
