v -2.915000 0.000000 -4.287000
v -2.884650 0.000000 -4.285461
v -2.899805 0.000000 -4.286615
v -2.869572 0.000000 -4.283540
v -2.854610 0.000000 -4.280859
v -2.839804 0.000000 -4.277423
v -2.825191 0.000000 -4.273242
v -2.915000 0.295382 -4.326912
v -2.899805 0.295484 -4.326541
v -2.884650 0.295791 -4.325428
v -2.869572 0.296300 -4.323576
v -2.854610 0.297012 -4.320991
v -2.839804 0.297924 -4.317678
v -2.825191 0.299033 -4.313647
v -2.915000 0.007666 -4.287026
v -2.825191 0.007760 -4.273269
v -2.915000 0.015331 -4.287106
v -2.825191 0.015521 -4.273349
v -2.915000 0.022996 -4.287238
v -2.825191 0.023280 -4.273482
v -2.915000 0.030659 -4.287422
v -2.825191 0.031038 -4.273669
v -2.915000 0.038321 -4.287660
v -2.825191 0.038795 -4.273910
v -2.915000 0.045981 -4.287950
v -2.825191 0.046550 -4.274204
v -2.915000 0.053639 -4.288293
v -2.825191 0.054303 -4.274551
v -2.915000 0.061295 -4.288689
v -2.825191 0.062053 -4.274952
v -2.915000 0.068948 -4.289138
v -2.825191 0.069800 -4.275406
v -2.915000 0.076597 -4.289639
v -2.825191 0.077544 -4.275913
v -2.915000 0.084243 -4.290193
v -2.825191 0.085284 -4.276474
v -2.915000 0.091884 -4.290799
v -2.825191 0.093020 -4.277088
v -2.915000 0.099522 -4.291458
v -2.825191 0.100752 -4.277755
v -2.915000 0.107154 -4.292170
v -2.825191 0.108479 -4.278476
v -2.915000 0.114782 -4.292934
v -2.825191 0.116201 -4.279250
v -2.915000 0.122404 -4.293751
v -2.825191 0.123917 -4.280076
v -2.915000 0.130020 -4.294621
v -2.825191 0.131627 -4.280957
v -2.915000 0.137630 -4.295542
v -2.825191 0.139332 -4.281890
v -2.915000 0.145234 -4.296516
v -2.825191 0.147029 -4.282876
v -2.915000 0.152831 -4.297543
v -2.825191 0.154720 -4.283915
v -2.915000 0.160420 -4.298622
v -2.825191 0.162403 -4.285007
v -2.915000 0.168002 -4.299753
v -2.825191 0.170079 -4.286152
v -2.915000 0.175576 -4.300936
v -2.825191 0.177746 -4.287350
v -2.915000 0.183141 -4.302171
v -2.825191 0.185405 -4.288600
v -2.915000 0.190698 -4.303459
v -2.825191 0.193056 -4.289904
v -2.915000 0.198246 -4.304798
v -2.825191 0.200697 -4.291260
v -2.915000 0.205784 -4.306189
v -2.825191 0.208328 -4.292668
v -2.915000 0.213313 -4.307633
v -2.825191 0.215950 -4.294129
v -2.915000 0.220832 -4.309128
v -2.825191 0.223561 -4.295643
v -2.915000 0.228340 -4.310675
v -2.825191 0.231162 -4.297209
v -2.915000 0.235837 -4.312273
v -2.825191 0.238752 -4.298827
v -2.915000 0.243323 -4.313923
v -2.825191 0.246331 -4.300498
v -2.915000 0.250797 -4.315625
v -2.825191 0.253898 -4.302220
v -2.915000 0.258260 -4.317378
v -2.825191 0.261452 -4.303995
v -2.915000 0.265710 -4.319182
v -2.825191 0.268995 -4.305822
v -2.915000 0.273148 -4.321038
v -2.825191 0.276525 -4.307700
v -2.915000 0.280573 -4.322945
v -2.825191 0.284041 -4.309631
v -2.915000 0.287984 -4.324903
v -2.825191 0.291544 -4.311613
v -2.796693 0.000000 -4.262687
v -2.810808 0.000000 -4.268326
v -2.782882 0.000000 -4.256341
v -2.769409 0.000000 -4.249304
v -2.756311 0.000000 -4.241593
v -2.743620 0.000000 -4.233229
v -2.810808 0.300338 -4.308907
v -2.796693 0.301835 -4.303471
v -2.782882 0.303519 -4.297353
v -2.769409 0.305386 -4.290568
v -2.756311 0.307433 -4.283133
v -2.743620 0.309653 -4.275069
v -2.743620 0.008036 -4.233257
v -2.743620 0.016072 -4.233340
v -2.743620 0.024107 -4.233478
v -2.743620 0.032140 -4.233672
v -2.743620 0.040173 -4.233921
v -2.743620 0.048203 -4.234225
v -2.743620 0.056231 -4.234585
v -2.743620 0.064256 -4.235000
v -2.743620 0.072279 -4.235470
v -2.743620 0.080297 -4.235995
v -2.743620 0.088313 -4.236576
v -2.743620 0.096323 -4.237212
v -2.743620 0.104330 -4.237903
v -2.743620 0.112331 -4.238649
v -2.743620 0.120327 -4.239450
v -2.743620 0.128317 -4.240306
v -2.743620 0.136302 -4.241218
v -2.743620 0.144280 -4.242184
v -2.743620 0.152250 -4.243205
v -2.743620 0.160214 -4.244281
v -2.743620 0.168170 -4.245412
v -2.743620 0.176118 -4.246598
v -2.743620 0.184058 -4.247838
v -2.743620 0.191989 -4.249133
v -2.743620 0.199911 -4.250483
v -2.743620 0.207824 -4.251887
v -2.743620 0.215726 -4.253345
v -2.743620 0.223619 -4.254858
v -2.743620 0.231500 -4.256426
v -2.743620 0.239371 -4.258047
v -2.743620 0.247231 -4.259723
v -2.743620 0.255078 -4.261453
v -2.743620 0.262914 -4.263237
v -2.743620 0.270737 -4.265074
v -2.743620 0.278547 -4.266966
v -2.743620 0.286344 -4.268911
v -2.743620 0.294128 -4.270910
v -2.743620 0.301897 -4.272963
v -2.719588 0.000000 -4.214627
v -2.731368 0.000000 -4.224233
v -2.708310 0.000000 -4.204438
v -2.697562 0.000000 -4.193690
v -2.687373 0.000000 -4.182412
v -2.677767 0.000000 -4.170632
v -2.731368 0.312040 -4.266395
v -2.719588 0.314589 -4.257134
v -2.708310 0.317294 -4.247310
v -2.697562 0.320146 -4.236948
v -2.687373 0.323139 -4.226074
v -2.677767 0.326265 -4.214716
v -2.677767 0.008467 -4.170661
v -2.677767 0.016934 -4.170748
v -2.677767 0.025400 -4.170894
v -2.677767 0.033865 -4.171098
v -2.677767 0.042328 -4.171361
v -2.677767 0.050789 -4.171681
v -2.677767 0.059248 -4.172060
v -2.677767 0.067704 -4.172497
v -2.677767 0.076156 -4.172993
v -2.677767 0.084605 -4.173547
v -2.677767 0.093051 -4.174158
v -2.677767 0.101491 -4.174828
v -2.677767 0.109927 -4.175556
v -2.677767 0.118358 -4.176343
v -2.677767 0.126783 -4.177187
v -2.677767 0.135202 -4.178089
v -2.677767 0.143614 -4.179049
v -2.677767 0.152020 -4.180067
v -2.677767 0.160419 -4.181143
v -2.677767 0.168810 -4.182277
v -2.677767 0.177193 -4.183468
v -2.677767 0.185567 -4.184718
v -2.677767 0.193933 -4.186025
v -2.677767 0.202289 -4.187389
v -2.677767 0.210636 -4.188811
v -2.677767 0.218973 -4.190291
v -2.677767 0.227300 -4.191827
v -2.677767 0.235616 -4.193422
v -2.677767 0.243920 -4.195073
v -2.677767 0.252213 -4.196782
v -2.677767 0.260495 -4.198547
v -2.677767 0.268763 -4.200370
v -2.677767 0.277019 -4.202249
v -2.677767 0.285262 -4.204186
v -2.677767 0.293491 -4.206179
v -2.677767 0.301707 -4.208229
v -2.677767 0.309908 -4.210335
v -2.677767 0.318094 -4.212497
v -2.660407 0.000000 -4.145689
v -2.668771 0.000000 -4.158380
v -2.652696 0.000000 -4.132591
v -2.645659 0.000000 -4.119118
v -2.639313 0.000000 -4.105307
v -2.633674 0.000000 -4.091192
v -2.668771 0.329517 -4.202904
v -2.660407 0.332885 -4.190668
v -2.652696 0.336361 -4.178039
v -2.645659 0.339937 -4.165050
v -2.639313 0.343602 -4.151734
v -2.633674 0.347348 -4.138125
v -2.633674 0.009014 -4.091223
v -2.633674 0.018028 -4.091316
v -2.633674 0.027041 -4.091471
v -2.633674 0.036053 -4.091688
v -2.633674 0.045063 -4.091968
v -2.633674 0.054071 -4.092309
v -2.633674 0.063076 -4.092712
v -2.633674 0.072079 -4.093178
v -2.633674 0.081077 -4.093705
v -2.633674 0.090073 -4.094295
v -2.633674 0.099063 -4.094946
v -2.633674 0.108049 -4.095659
v -2.633674 0.117030 -4.096434
v -2.633674 0.126006 -4.097271
v -2.633674 0.134975 -4.098170
v -2.633674 0.143938 -4.099131
v -2.633674 0.152895 -4.100153
v -2.633674 0.161843 -4.101237
v -2.633674 0.170785 -4.102382
v -2.633674 0.179718 -4.103589
v -2.633674 0.188643 -4.104858
v -2.633674 0.197558 -4.106188
v -2.633674 0.206465 -4.107579
v -2.633674 0.215361 -4.109032
v -2.633674 0.224247 -4.110546
v -2.633674 0.233123 -4.112121
v -2.633674 0.241988 -4.113757
v -2.633674 0.250841 -4.115454
v -2.633674 0.259682 -4.117212
v -2.633674 0.268511 -4.119031
v -2.633674 0.277327 -4.120911
v -2.633674 0.286130 -4.122851
v -2.633674 0.294920 -4.124852
v -2.633674 0.303695 -4.126914
v -2.633674 0.312456 -4.129036
v -2.633674 0.321203 -4.131218
v -2.633674 0.329934 -4.133460
v -2.633674 0.338649 -4.135763
v -2.624577 0.000000 -4.062196
v -2.628758 0.000000 -4.076809
v -2.621141 0.000000 -4.047390
v -2.618460 0.000000 -4.032428
v -2.616539 0.000000 -4.017350
v -2.615385 0.000000 -4.002195
v -2.615000 0.000000 -3.987000
v -2.628758 0.351165 -4.124258
v -2.624577 0.355044 -4.110169
v -2.621141 0.358973 -4.095894
v -2.618460 0.362944 -4.081469
v -2.616539 0.366945 -4.066932
v -2.615385 0.370967 -4.052320
v -2.615000 0.375000 -4.037670
v -2.615000 0.009732 -3.987034
v -2.615000 0.019463 -3.987134
v -2.615000 0.029194 -3.987302
v -2.615000 0.038923 -3.987536
v -2.615000 0.048650 -3.987838
v -2.615000 0.058375 -3.988206
v -2.615000 0.068098 -3.988642
v -2.615000 0.077817 -3.989144
v -2.615000 0.087532 -3.989714
v -2.615000 0.097243 -3.990350
v -2.615000 0.106950 -3.991053
v -2.615000 0.116651 -3.991823
v -2.615000 0.126347 -3.992660
v -2.615000 0.136037 -3.993564
v -2.615000 0.145720 -3.994534
v -2.615000 0.155397 -3.995571
v -2.615000 0.165066 -3.996675
v -2.615000 0.174727 -3.997845
v -2.615000 0.184381 -3.999081
v -2.615000 0.194025 -4.000385
v -2.615000 0.203660 -4.001754
v -2.615000 0.213286 -4.003190
v -2.615000 0.222901 -4.004692
v -2.615000 0.232506 -4.006260
v -2.615000 0.242099 -4.007895
v -2.615000 0.251682 -4.009595
v -2.615000 0.261252 -4.011362
v -2.615000 0.270810 -4.013194
v -2.615000 0.280355 -4.015092
v -2.615000 0.289887 -4.017056
v -2.615000 0.299405 -4.019085
v -2.615000 0.308909 -4.021180
v -2.615000 0.318398 -4.023340
v -2.615000 0.327872 -4.025566
v -2.615000 0.337330 -4.027857
v -2.615000 0.346773 -4.030213
v -2.615000 0.356199 -4.032633
v -2.615000 0.365608 -4.035119
f 1 3 2
f 1 2 4
f 1 4 5
f 1 5 6
f 1 6 7
f 8 10 9
f 8 11 10
f 8 12 11
f 8 13 12
f 8 14 13
f 1 7 15
f 15 7 16
f 15 16 17
f 17 16 18
f 17 18 19
f 19 18 20
f 19 20 21
f 21 20 22
f 21 22 23
f 23 22 24
f 23 24 25
f 25 24 26
f 25 26 27
f 27 26 28
f 27 28 29
f 29 28 30
f 29 30 31
f 31 30 32
f 31 32 33
f 33 32 34
f 33 34 35
f 35 34 36
f 35 36 37
f 37 36 38
f 37 38 39
f 39 38 40
f 39 40 41
f 41 40 42
f 41 42 43
f 43 42 44
f 43 44 45
f 45 44 46
f 45 46 47
f 47 46 48
f 47 48 49
f 49 48 50
f 49 50 51
f 51 50 52
f 51 52 53
f 53 52 54
f 53 54 55
f 55 54 56
f 55 56 57
f 57 56 58
f 57 58 59
f 59 58 60
f 59 60 61
f 61 60 62
f 61 62 63
f 63 62 64
f 63 64 65
f 65 64 66
f 65 66 67
f 67 66 68
f 67 68 69
f 69 68 70
f 69 70 71
f 71 70 72
f 71 72 73
f 73 72 74
f 73 74 75
f 75 74 76
f 75 76 77
f 77 76 78
f 77 78 79
f 79 78 80
f 79 80 81
f 81 80 82
f 81 82 83
f 83 82 84
f 83 84 85
f 85 84 86
f 85 86 87
f 87 86 88
f 87 88 89
f 89 88 90
f 89 90 8
f 8 90 14
f 7 92 91
f 7 91 93
f 7 93 94
f 7 94 95
f 7 95 96
f 14 98 97
f 14 99 98
f 14 100 99
f 14 101 100
f 14 102 101
f 7 96 16
f 16 96 103
f 16 103 18
f 18 103 104
f 18 104 20
f 20 104 105
f 20 105 22
f 22 105 106
f 22 106 24
f 24 106 107
f 24 107 26
f 26 107 108
f 26 108 28
f 28 108 109
f 28 109 30
f 30 109 110
f 30 110 32
f 32 110 111
f 32 111 34
f 34 111 112
f 34 112 36
f 36 112 113
f 36 113 38
f 38 113 114
f 38 114 40
f 40 114 115
f 40 115 42
f 42 115 116
f 42 116 44
f 44 116 117
f 44 117 46
f 46 117 118
f 46 118 48
f 48 118 119
f 48 119 50
f 50 119 120
f 50 120 52
f 52 120 121
f 52 121 54
f 54 121 122
f 54 122 56
f 56 122 123
f 56 123 58
f 58 123 124
f 58 124 60
f 60 124 125
f 60 125 62
f 62 125 126
f 62 126 64
f 64 126 127
f 64 127 66
f 66 127 128
f 66 128 68
f 68 128 129
f 68 129 70
f 70 129 130
f 70 130 72
f 72 130 131
f 72 131 74
f 74 131 132
f 74 132 76
f 76 132 133
f 76 133 78
f 78 133 134
f 78 134 80
f 80 134 135
f 80 135 82
f 82 135 136
f 82 136 84
f 84 136 137
f 84 137 86
f 86 137 138
f 86 138 88
f 88 138 139
f 88 139 90
f 90 139 140
f 90 140 102
f 90 102 14
f 96 142 141
f 96 141 143
f 96 143 144
f 96 144 145
f 96 145 146
f 102 148 147
f 102 149 148
f 102 150 149
f 102 151 150
f 102 152 151
f 96 146 103
f 103 146 153
f 103 153 104
f 104 153 154
f 104 154 105
f 105 154 155
f 105 155 106
f 106 155 156
f 106 156 107
f 107 156 157
f 107 157 108
f 108 157 158
f 108 158 109
f 109 158 159
f 109 159 110
f 110 159 160
f 110 160 111
f 111 160 161
f 111 161 112
f 112 161 162
f 112 162 113
f 113 162 163
f 113 163 114
f 114 163 164
f 114 164 115
f 115 164 165
f 115 165 116
f 116 165 166
f 116 166 117
f 117 166 167
f 117 167 118
f 118 167 168
f 118 168 119
f 119 168 169
f 119 169 120
f 120 169 170
f 120 170 121
f 121 170 171
f 121 171 122
f 122 171 172
f 122 172 123
f 123 172 173
f 123 173 124
f 124 173 174
f 124 174 125
f 125 174 175
f 125 175 126
f 126 175 176
f 126 176 127
f 127 176 177
f 127 177 128
f 128 177 178
f 128 178 129
f 129 178 179
f 129 179 130
f 130 179 180
f 130 180 131
f 131 180 181
f 131 181 132
f 132 181 182
f 132 182 133
f 133 182 183
f 133 183 134
f 134 183 184
f 134 184 135
f 135 184 185
f 135 185 136
f 136 185 186
f 136 186 137
f 137 186 187
f 137 187 138
f 138 187 188
f 138 188 139
f 139 188 189
f 139 189 140
f 140 189 190
f 140 190 152
f 140 152 102
f 146 192 191
f 146 191 193
f 146 193 194
f 146 194 195
f 146 195 196
f 152 198 197
f 152 199 198
f 152 200 199
f 152 201 200
f 152 202 201
f 146 196 153
f 153 196 203
f 153 203 154
f 154 203 204
f 154 204 155
f 155 204 205
f 155 205 156
f 156 205 206
f 156 206 157
f 157 206 207
f 157 207 158
f 158 207 208
f 158 208 159
f 159 208 209
f 159 209 160
f 160 209 210
f 160 210 161
f 161 210 211
f 161 211 162
f 162 211 212
f 162 212 163
f 163 212 213
f 163 213 164
f 164 213 214
f 164 214 165
f 165 214 215
f 165 215 166
f 166 215 216
f 166 216 167
f 167 216 217
f 167 217 168
f 168 217 218
f 168 218 169
f 169 218 219
f 169 219 170
f 170 219 220
f 170 220 171
f 171 220 221
f 171 221 172
f 172 221 222
f 172 222 173
f 173 222 223
f 173 223 174
f 174 223 224
f 174 224 175
f 175 224 225
f 175 225 176
f 176 225 226
f 176 226 177
f 177 226 227
f 177 227 178
f 178 227 228
f 178 228 179
f 179 228 229
f 179 229 180
f 180 229 230
f 180 230 181
f 181 230 231
f 181 231 182
f 182 231 232
f 182 232 183
f 183 232 233
f 183 233 184
f 184 233 234
f 184 234 185
f 185 234 235
f 185 235 186
f 186 235 236
f 186 236 187
f 187 236 237
f 187 237 188
f 188 237 238
f 188 238 189
f 189 238 239
f 189 239 190
f 190 239 240
f 190 240 202
f 190 202 152
f 196 242 241
f 196 241 243
f 196 243 244
f 196 244 245
f 196 245 246
f 196 246 247
f 202 249 248
f 202 250 249
f 202 251 250
f 202 252 251
f 202 253 252
f 202 254 253
f 196 247 203
f 203 247 255
f 203 255 204
f 204 255 256
f 204 256 205
f 205 256 257
f 205 257 206
f 206 257 258
f 206 258 207
f 207 258 259
f 207 259 208
f 208 259 260
f 208 260 209
f 209 260 261
f 209 261 210
f 210 261 262
f 210 262 211
f 211 262 263
f 211 263 212
f 212 263 264
f 212 264 213
f 213 264 265
f 213 265 214
f 214 265 266
f 214 266 215
f 215 266 267
f 215 267 216
f 216 267 268
f 216 268 217
f 217 268 269
f 217 269 218
f 218 269 270
f 218 270 219
f 219 270 271
f 219 271 220
f 220 271 272
f 220 272 221
f 221 272 273
f 221 273 222
f 222 273 274
f 222 274 223
f 223 274 275
f 223 275 224
f 224 275 276
f 224 276 225
f 225 276 277
f 225 277 226
f 226 277 278
f 226 278 227
f 227 278 279
f 227 279 228
f 228 279 280
f 228 280 229
f 229 280 281
f 229 281 230
f 230 281 282
f 230 282 231
f 231 282 283
f 231 283 232
f 232 283 284
f 232 284 233
f 233 284 285
f 233 285 234
f 234 285 286
f 234 286 235
f 235 286 287
f 235 287 236
f 236 287 288
f 236 288 237
f 237 288 289
f 237 289 238
f 238 289 290
f 238 290 239
f 239 290 291
f 239 291 240
f 240 291 292
f 240 292 254
f 240 254 202
