v 0.512930 0.009706 -0.430400
v 0.488203 0.010000 -0.458866
v 0.489866 0.010000 -0.457090
v 0.491523 0.010000 -0.455307
v 0.493174 0.010000 -0.453519
v 0.494818 0.010000 -0.451725
v 0.496455 0.010000 -0.449924
v 0.498086 0.010000 -0.448118
v 0.499711 0.010000 -0.446306
v 0.501329 0.010000 -0.444488
v 0.502940 0.010000 -0.442664
v 0.504544 0.010000 -0.440835
v 0.506142 0.010000 -0.438999
v 0.507733 0.010000 -0.437158
v 0.509318 0.010000 -0.435311
v 0.510896 0.010000 -0.433458
v 0.512467 0.010000 -0.431599
v 0.514031 0.010000 -0.429735
v 0.515589 0.010000 -0.427865
v 0.517139 0.010000 -0.425989
v 0.518683 0.010000 -0.424108
v 0.520220 0.010000 -0.422221
v 0.521750 0.010000 -0.420329
v 0.523274 0.010000 -0.418431
v 0.524790 0.010000 -0.416528
v 0.526300 0.010000 -0.414619
v 0.527802 0.010000 -0.412704
v 0.529298 0.010000 -0.410785
v 0.530786 0.010000 -0.408859
v 0.532268 0.010000 -0.406929
v 0.533742 0.010000 -0.404993
v 0.535210 0.010000 -0.403051
v 0.536670 0.010000 -0.401105
v 0.536670 0.010000 -0.401105
v 0.536670 0.000000 -0.401105
v 0.488203 0.010000 -0.458866
v 0.489866 0.010000 -0.457090
v 0.491523 0.010000 -0.455307
v 0.493174 0.010000 -0.453519
v 0.494818 0.010000 -0.451725
v 0.496455 0.010000 -0.449924
v 0.498086 0.010000 -0.448118
v 0.499711 0.010000 -0.446306
v 0.501329 0.010000 -0.444488
v 0.502940 0.010000 -0.442664
v 0.504544 0.010000 -0.440835
v 0.506142 0.010000 -0.438999
v 0.507733 0.010000 -0.437158
v 0.509318 0.010000 -0.435311
v 0.510896 0.010000 -0.433458
v 0.512467 0.010000 -0.431599
v 0.514031 0.010000 -0.429735
v 0.515589 0.010000 -0.427865
v 0.517139 0.010000 -0.425989
v 0.518683 0.010000 -0.424108
v 0.520220 0.010000 -0.422221
v 0.521750 0.010000 -0.420329
v 0.523274 0.010000 -0.418431
v 0.524790 0.010000 -0.416528
v 0.526300 0.010000 -0.414619
v 0.527802 0.010000 -0.412704
v 0.529298 0.010000 -0.410785
v 0.530786 0.010000 -0.408859
v 0.532268 0.010000 -0.406929
v 0.533742 0.010000 -0.404993
v 0.535210 0.010000 -0.403051
v 0.536670 0.010000 -0.401105
v 0.488203 0.000000 -0.458866
v 0.488203 0.010000 -0.458866
f 1 2 3
f 1 3 4
f 1 4 5
f 1 5 6
f 1 6 7
f 1 7 8
f 1 8 9
f 1 9 10
f 1 10 11
f 1 11 12
f 1 12 13
f 1 13 14
f 1 14 15
f 1 15 16
f 1 16 17
f 1 17 18
f 1 18 19
f 1 19 20
f 1 20 21
f 1 21 22
f 1 22 23
f 1 23 24
f 1 24 25
f 1 25 26
f 1 26 27
f 1 27 28
f 1 28 29
f 1 29 30
f 1 30 31
f 1 31 32
f 1 32 33
f 1 33 34
f 1 34 35
f 1 35 36
f 1 36 37
f 1 37 38
f 1 38 39
f 1 39 40
f 1 40 41
f 1 41 42
f 1 42 43
f 1 43 44
f 1 44 45
f 1 45 46
f 1 46 47
f 1 47 48
f 1 48 49
f 1 49 50
f 1 50 51
f 1 51 52
f 1 52 53
f 1 53 54
f 1 54 55
f 1 55 56
f 1 56 57
f 1 57 58
f 1 58 59
f 1 59 60
f 1 60 61
f 1 61 62
f 1 62 63
f 1 63 64
f 1 64 65
f 1 65 66
f 1 66 67
f 1 67 68
f 1 68 69
f 1 69 2
