v 1.515000 0.000000 0.600000
v 1.532370 0.000000 0.599289
v 1.549624 0.000000 0.597160
v 1.566646 0.000000 0.593628
v 1.583323 0.000000 0.588717
v 1.599542 0.000000 0.582459
v 1.615196 0.000000 0.574895
v 1.630179 0.000000 0.566078
v 1.644390 0.000000 0.556066
v 1.657736 0.000000 0.544925
v 1.670127 0.000000 0.532730
v 1.681479 0.000000 0.519564
v 1.691717 0.000000 0.505514
v 1.700773 0.000000 0.490673
v 1.708585 0.000000 0.475143
v 1.715101 0.000000 0.459025
v 1.720278 0.000000 0.442429
v 1.724081 0.000000 0.425466
v 1.726485 0.000000 0.408248
v 1.727473 0.000000 0.390891
v 1.727039 0.000000 0.373512
v 1.725186 0.000000 0.356226
v 1.721926 0.000000 0.339150
v 1.717282 0.000000 0.322397
v 1.711283 0.000000 0.306080
v 1.703971 0.000000 0.290308
v 1.695393 0.000000 0.275186
v 1.685609 0.000000 0.260816
v 1.674683 0.000000 0.247294
v 1.662687 0.000000 0.234710
v 1.649704 0.000000 0.223149
v 1.635819 0.000000 0.212688
v 1.515000 0.180000 0.600000
v 1.532370 0.180000 0.599289
v 1.549624 0.180000 0.597160
v 1.566646 0.180000 0.593628
v 1.583323 0.180000 0.588717
v 1.599542 0.180000 0.582459
v 1.615196 0.180000 0.574895
v 1.630179 0.180000 0.566078
v 1.644390 0.180000 0.556066
v 1.657736 0.180000 0.544925
v 1.670127 0.180000 0.532730
v 1.681479 0.180000 0.519564
v 1.691717 0.180000 0.505514
v 1.700773 0.180000 0.490673
v 1.708585 0.180000 0.475143
v 1.715101 0.180000 0.459025
v 1.720278 0.180000 0.442429
v 1.724081 0.180000 0.425466
v 1.726485 0.180000 0.408248
v 1.727473 0.180000 0.390891
v 1.727039 0.180000 0.373512
v 1.725186 0.180000 0.356226
v 1.721926 0.180000 0.339150
v 1.717282 0.180000 0.322397
v 1.711283 0.180000 0.306080
v 1.703971 0.180000 0.290308
v 1.695393 0.180000 0.275186
v 1.685609 0.180000 0.260816
v 1.674683 0.180000 0.247294
v 1.662687 0.180000 0.234710
v 1.649704 0.180000 0.223149
v 1.635819 0.180000 0.212688
f 1 2 34
f 1 34 33
f 2 3 35
f 2 35 34
f 3 4 36
f 3 36 35
f 4 5 37
f 4 37 36
f 5 6 38
f 5 38 37
f 6 7 39
f 6 39 38
f 7 8 40
f 7 40 39
f 8 9 41
f 8 41 40
f 9 10 42
f 9 42 41
f 10 11 43
f 10 43 42
f 11 12 44
f 11 44 43
f 12 13 45
f 12 45 44
f 13 14 46
f 13 46 45
f 14 15 47
f 14 47 46
f 15 16 48
f 15 48 47
f 16 17 49
f 16 49 48
f 17 18 50
f 17 50 49
f 18 19 51
f 18 51 50
f 19 20 52
f 19 52 51
f 20 21 53
f 20 53 52
f 21 22 54
f 21 54 53
f 22 23 55
f 22 55 54
f 23 24 56
f 23 56 55
f 24 25 57
f 24 57 56
f 25 26 58
f 25 58 57
f 26 27 59
f 26 59 58
f 27 28 60
f 27 60 59
f 28 29 61
f 28 61 60
f 29 30 62
f 29 62 61
f 30 31 63
f 30 63 62
f 31 32 64
f 31 64 63
