v 0.405000 -0.332409 -6.673988
v 0.402235 -0.332448 -6.673985
v 0.405000 -0.359450 -6.520635
v 0.399935 -0.359576 -6.520657
v 0.399468 -0.332565 -6.673975
v 0.396698 -0.332760 -6.673959
v 0.394883 -0.359955 -6.520724
v 0.393929 -0.333035 -6.673936
v 0.391161 -0.333390 -6.673906
v 0.389857 -0.360585 -6.520835
v 0.388398 -0.333826 -6.673869
v 0.385639 -0.334345 -6.673825
v 0.384870 -0.361466 -6.520991
v 0.382888 -0.334947 -6.673773
v 0.380145 -0.335632 -6.673715
v 0.379935 -0.362593 -6.521190
v 0.377412 -0.336402 -6.673649
v 0.375064 -0.363966 -6.521432
v 0.374692 -0.337258 -6.673576
v 0.371986 -0.338200 -6.673495
v 0.370269 -0.365580 -6.521716
v 0.369298 -0.339225 -6.673407
v 0.366632 -0.340332 -6.673311
v 0.365564 -0.367431 -6.522042
v 0.363991 -0.341518 -6.673208
v 0.361381 -0.342782 -6.673098
v 0.360961 -0.369514 -6.522410
v 0.358805 -0.344119 -6.672982
v 0.356470 -0.371824 -6.522817
v 0.356267 -0.345529 -6.672858
v 0.353770 -0.347008 -6.672728
v 0.352104 -0.374355 -6.523263
v 0.351320 -0.348555 -6.672591
v 0.348920 -0.350167 -6.672448
v 0.347873 -0.377101 -6.523748
v 0.346574 -0.351841 -6.672299
v 0.344286 -0.353576 -6.672143
v 0.343789 -0.380054 -6.524268
v 0.342055 -0.355371 -6.671982
v 0.339883 -0.357227 -6.671814
v 0.339863 -0.383207 -6.524824
v 0.337768 -0.359143 -6.671640
v 0.336103 -0.386552 -6.525414
v 0.335711 -0.361121 -6.671459
v 0.333712 -0.363159 -6.671271
v 0.332521 -0.390080 -6.526036
v 0.331769 -0.365259 -6.671076
v 0.329884 -0.367420 -6.670875
v 0.329124 -0.393783 -6.526689
v 0.328056 -0.369643 -6.670667
v 0.326285 -0.371928 -6.670451
v 0.325922 -0.397650 -6.527371
v 0.324571 -0.374275 -6.670228
v 0.322924 -0.401671 -6.528080
v 0.322914 -0.376683 -6.669998
v 0.321316 -0.379150 -6.669761
v 0.320136 -0.405838 -6.528815
v 0.319780 -0.381672 -6.669517
v 0.318307 -0.384245 -6.669266
v 0.317565 -0.410137 -6.529573
v 0.316902 -0.386867 -6.669009
v 0.315565 -0.389533 -6.668745
v 0.315220 -0.414560 -6.530353
v 0.314300 -0.392240 -6.668476
v 0.313104 -0.419094 -6.531152
v 0.313108 -0.394984 -6.668202
v 0.311994 -0.397762 -6.667921
v 0.311225 -0.423727 -6.531969
v 0.310958 -0.400571 -6.667636
v 0.310003 -0.403406 -6.667346
v 0.309586 -0.428449 -6.532802
v 0.309132 -0.406265 -6.667052
v 0.308345 -0.409145 -6.666753
v 0.308192 -0.433246 -6.533647
v 0.307641 -0.412045 -6.666450
v 0.307047 -0.438106 -6.534504
v 0.307021 -0.414962 -6.666143
v 0.306484 -0.417896 -6.665832
v 0.306153 -0.443018 -6.535370
v 0.306030 -0.420844 -6.665517
v 0.305659 -0.423804 -6.665199
v 0.305513 -0.447967 -6.536243
v 0.305370 -0.426775 -6.664877
v 0.305164 -0.429754 -6.664552
v 0.305128 -0.452942 -6.537120
v 0.305041 -0.432740 -6.664224
v 0.305000 -0.435732 -6.663893
v 0.305000 -0.457930 -6.538000
f 1 3 2
f 2 3 4
f 2 4 5
f 5 4 6
f 6 4 7
f 6 7 8
f 8 7 9
f 9 7 10
f 9 10 11
f 11 10 12
f 12 10 13
f 12 13 14
f 14 13 15
f 15 13 16
f 15 16 17
f 17 16 18
f 17 18 19
f 19 18 20
f 20 18 21
f 20 21 22
f 22 21 23
f 23 21 24
f 23 24 25
f 25 24 26
f 26 24 27
f 26 27 28
f 28 27 29
f 28 29 30
f 30 29 31
f 31 29 32
f 31 32 33
f 33 32 34
f 34 32 35
f 34 35 36
f 36 35 37
f 37 35 38
f 37 38 39
f 39 38 40
f 40 38 41
f 40 41 42
f 42 41 43
f 42 43 44
f 44 43 45
f 45 43 46
f 45 46 47
f 47 46 48
f 48 46 49
f 48 49 50
f 50 49 51
f 51 49 52
f 51 52 53
f 53 52 54
f 53 54 55
f 55 54 56
f 56 54 57
f 56 57 58
f 58 57 59
f 59 57 60
f 59 60 61
f 61 60 62
f 62 60 63
f 62 63 64
f 64 63 65
f 64 65 66
f 66 65 67
f 67 65 68
f 67 68 69
f 69 68 70
f 70 68 71
f 70 71 72
f 72 71 73
f 73 71 74
f 73 74 75
f 75 74 76
f 75 76 77
f 77 76 78
f 78 76 79
f 78 79 80
f 80 79 81
f 81 79 82
f 81 82 83
f 83 82 84
f 84 82 85
f 84 85 86
f 86 85 87
f 87 85 88
