v -0.197490 0.016837 -0.647385
v -0.197490 0.220000 -0.647385
v -0.228190 0.220000 -0.691229
v -0.228190 0.000000 -0.691229
v -0.193363 0.000000 -0.641491
v -0.193363 0.010000 -0.641491
v -0.197490 0.016837 -0.647385
v -0.197350 0.016611 -0.647191
v -0.197207 0.016388 -0.647001
v -0.197060 0.016168 -0.646816
v -0.196910 0.015951 -0.646634
v -0.196755 0.015736 -0.646457
v -0.196597 0.015525 -0.646285
v -0.196436 0.015317 -0.646116
v -0.196271 0.015112 -0.645952
v -0.196103 0.014911 -0.645793
v -0.195932 0.014712 -0.645637
v -0.195757 0.014517 -0.645486
v -0.195580 0.014325 -0.645340
v -0.195399 0.014137 -0.645197
v -0.195216 0.013952 -0.645060
v -0.195030 0.013770 -0.644926
v -0.194841 0.013592 -0.644797
v -0.194650 0.013418 -0.644673
v -0.194456 0.013247 -0.644553
v -0.194259 0.013080 -0.644438
v -0.194061 0.012917 -0.644327
v -0.193859 0.012757 -0.644221
v -0.193656 0.012602 -0.644120
v -0.193451 0.012450 -0.644023
v -0.193244 0.012302 -0.643931
v -0.193034 0.012159 -0.643844
v -0.192823 0.012020 -0.643762
v -0.192611 0.011885 -0.643685
v -0.192396 0.011754 -0.643613
v -0.192180 0.011628 -0.643545
v -0.191963 0.011506 -0.643483
v -0.191745 0.011388 -0.643425
v -0.191525 0.011275 -0.643373
v -0.191305 0.011167 -0.643325
v -0.191084 0.011063 -0.643282
v -0.190862 0.010963 -0.643245
v -0.190640 0.010869 -0.643212
v -0.190417 0.010779 -0.643184
v -0.190195 0.010694 -0.643161
v -0.189972 0.010614 -0.643144
v -0.189750 0.010539 -0.643131
v -0.189528 0.010469 -0.643123
v -0.189306 0.010403 -0.643120
v -0.189086 0.010343 -0.643122
v -0.188865 0.010288 -0.643129
v -0.188646 0.010237 -0.643141
v -0.188428 0.010192 -0.643158
v -0.188210 0.010151 -0.643179
v -0.187994 0.010116 -0.643206
v -0.187778 0.010085 -0.643236
v -0.187564 0.010059 -0.643272
v -0.187351 0.010038 -0.643312
v -0.187140 0.010021 -0.643356
v -0.186930 0.010009 -0.643405
v -0.186721 0.010002 -0.643458
v -0.186514 0.010000 -0.643516
f 2 3 4
f 4 5 6
f 8 9 10
f 8 10 11
f 8 11 12
f 8 12 13
f 8 13 14
f 8 14 15
f 8 15 16
f 8 16 17
f 8 17 18
f 8 18 19
f 8 19 20
f 8 20 21
f 8 21 22
f 8 22 23
f 8 23 24
f 8 24 25
f 8 25 26
f 8 26 27
f 8 27 28
f 8 28 29
f 8 29 30
f 8 30 31
f 8 31 32
f 8 32 33
f 8 33 34
f 8 34 35
f 8 35 36
f 8 36 37
f 8 37 38
f 8 38 39
f 8 39 40
f 8 40 41
f 8 41 42
f 8 42 43
f 8 43 44
f 8 44 45
f 8 45 46
f 8 46 47
f 8 47 48
f 8 48 49
f 8 49 50
f 8 50 51
f 8 51 52
f 8 52 53
f 8 53 54
f 8 54 55
f 8 55 56
f 8 56 57
f 8 57 58
f 8 58 59
f 8 59 60
f 8 60 61
f 8 61 62
f 1 2 4
f 1 4 6
f 1 6 7
f 1 7 8
f 1 8 62
