v 2.275401 -0.559197 -5.404099
v 2.278595 -0.559736 -5.408428
v 2.277027 -0.559470 -5.406242
v 2.280103 -0.559995 -5.410657
v 2.281551 -0.560246 -5.412926
v 2.282938 -0.560490 -5.415234
v 2.284262 -0.560727 -5.417580
v 2.285522 -0.560955 -5.419960
v 2.286719 -0.561176 -5.422375
v 2.287850 -0.561389 -5.424821
v 2.288915 -0.561593 -5.427298
v 2.274164 -0.567827 -5.403974
v 2.272917 -0.576196 -5.404090
v 2.271661 -0.584315 -5.404436
v 2.270398 -0.592200 -5.404999
v 2.269127 -0.599862 -5.405768
v 2.267851 -0.607306 -5.406742
v 2.266568 -0.614529 -5.407923
v 2.265280 -0.621531 -5.409311
v 2.263987 -0.628310 -5.410910
v 2.262692 -0.634856 -5.412718
v 2.286958 -0.570627 -5.425741
v 2.286956 -0.570636 -5.425739
v 2.284776 -0.579273 -5.424195
v 2.284771 -0.579291 -5.424192
v 2.282399 -0.587531 -5.422664
v 2.282391 -0.587556 -5.422659
v 2.279858 -0.595405 -5.421153
v 2.279847 -0.595437 -5.421147
v 2.277181 -0.602902 -5.419665
v 2.277166 -0.602940 -5.419658
v 2.274396 -0.610024 -5.418205
v 2.274378 -0.610067 -5.418196
v 2.271532 -0.616771 -5.416777
v 2.271511 -0.616818 -5.416767
v 2.268615 -0.623147 -5.415385
v 2.268591 -0.623197 -5.415374
v 2.265670 -0.629158 -5.414034
v 2.265644 -0.629209 -5.414022
v 2.262724 -0.634804 -5.412728
v 2.290844 -0.561975 -5.432334
v 2.289913 -0.561788 -5.429803
v 2.291706 -0.562154 -5.434890
v 2.292499 -0.562323 -5.437469
v 2.293223 -0.562483 -5.440069
v 2.293878 -0.562635 -5.442688
v 2.294461 -0.562777 -5.445324
v 2.294974 -0.562909 -5.447976
v 2.295415 -0.563033 -5.450640
v 2.295785 -0.563146 -5.453316
v 2.261398 -0.641154 -5.414731
v 2.260109 -0.647186 -5.416947
v 2.258827 -0.652938 -5.419363
v 2.257555 -0.658397 -5.421978
v 2.256292 -0.663558 -5.424803
v 2.255038 -0.668417 -5.427844
v 2.253792 -0.672971 -5.431113
v 2.252555 -0.677209 -5.434608
v 2.251336 -0.681098 -5.438304
v 2.250146 -0.684603 -5.442170
v 2.248996 -0.687688 -5.446173
v 2.294333 -0.572680 -5.453132
v 2.294331 -0.572691 -5.453132
v 2.292636 -0.581860 -5.452903
v 2.292632 -0.581880 -5.452903
v 2.290724 -0.590682 -5.452636
v 2.290718 -0.590710 -5.452635
v 2.288625 -0.599146 -5.452334
v 2.288616 -0.599181 -5.452333
v 2.286366 -0.607254 -5.452002
v 2.286354 -0.607296 -5.452001
v 2.283974 -0.615005 -5.451646
v 2.283959 -0.615052 -5.451644
v 2.281477 -0.622392 -5.451269
v 2.281459 -0.622444 -5.451266
v 2.278902 -0.629416 -5.450876
v 2.278881 -0.629471 -5.450873
v 2.276271 -0.636078 -5.450472
v 2.276248 -0.636136 -5.450468
v 2.273613 -0.642375 -5.450061
v 2.273587 -0.642434 -5.450057
v 2.270955 -0.648299 -5.449647
v 2.270927 -0.648359 -5.449643
v 2.268323 -0.653846 -5.449236
v 2.268293 -0.653906 -5.449231
v 2.265743 -0.659014 -5.448831
v 2.265711 -0.659076 -5.448826
v 2.263236 -0.663808 -5.448436
v 2.263203 -0.663871 -5.448430
v 2.260819 -0.668240 -5.448054
v 2.260784 -0.668303 -5.448048
v 2.258505 -0.672322 -5.447687
v 2.258468 -0.672385 -5.447681
v 2.256305 -0.676067 -5.447338
v 2.256268 -0.676129 -5.447332
v 2.254235 -0.679482 -5.447008
v 2.254198 -0.679542 -5.447002
v 2.252316 -0.682558 -5.446702
v 2.252280 -0.682615 -5.446697
v 2.250573 -0.685282 -5.446424
v 2.250539 -0.685334 -5.446419
v 2.249028 -0.687641 -5.446177
v 2.296309 -0.563345 -5.458693
v 2.296083 -0.563251 -5.456001
v 2.296463 -0.563430 -5.461391
v 2.296544 -0.563504 -5.464093
v 2.296553 -0.563569 -5.466795
v 2.296490 -0.563625 -5.469498
v 2.296354 -0.563670 -5.472197
v 2.296146 -0.563705 -5.474893
v 2.295865 -0.563730 -5.477582
v 2.295513 -0.563745 -5.480262
v 2.295089 -0.563750 -5.482932
v 2.294594 -0.563745 -5.485590
v 2.294028 -0.563730 -5.488234
v 2.293391 -0.563705 -5.490861
v 2.292685 -0.563670 -5.493471
v 2.291908 -0.563625 -5.496060
v 2.291063 -0.563569 -5.498627
v 2.290149 -0.563504 -5.501171
v 2.289167 -0.563430 -5.503689
v 2.288119 -0.563345 -5.506180
v 2.287004 -0.563251 -5.508641
v 2.247896 -0.690320 -5.450283
v 2.246848 -0.692497 -5.454479
v 2.245856 -0.694225 -5.458745
v 2.244921 -0.695513 -5.463061
v 2.244044 -0.696368 -5.467412
v 2.243227 -0.696792 -5.471785
v 2.242471 -0.696787 -5.476172
v 2.241777 -0.696352 -5.480566
v 2.241148 -0.695487 -5.484958
v 2.240585 -0.694188 -5.489336
v 2.240094 -0.692450 -5.493683
v 2.239677 -0.690265 -5.497984
v 2.285616 -0.572814 -5.508226
v 2.285614 -0.572824 -5.508225
v 2.283979 -0.582023 -5.507773
v 2.283975 -0.582043 -5.507772
v 2.282124 -0.590875 -5.507289
v 2.282118 -0.590903 -5.507287
v 2.280079 -0.599369 -5.506777
v 2.280070 -0.599404 -5.506775
v 2.277871 -0.607508 -5.506243
v 2.277859 -0.607550 -5.506240
v 2.275527 -0.615288 -5.505691
v 2.275512 -0.615336 -5.505687
v 2.273075 -0.622706 -5.505125
v 2.273057 -0.622758 -5.505121
v 2.270541 -0.629759 -5.504551
v 2.270521 -0.629815 -5.504547
v 2.267950 -0.636450 -5.503974
v 2.267927 -0.636508 -5.503969
v 2.265329 -0.642774 -5.503396
v 2.265303 -0.642834 -5.503391
v 2.262704 -0.648725 -5.502825
v 2.262677 -0.648786 -5.502819
v 2.260104 -0.654298 -5.502264
v 2.260074 -0.654359 -5.502258
v 2.257552 -0.659491 -5.501718
v 2.257521 -0.659553 -5.501712
v 2.255072 -0.664309 -5.501191
v 2.255039 -0.664372 -5.501184
v 2.252679 -0.668763 -5.500686
v 2.252644 -0.668826 -5.500679
v 2.250386 -0.672865 -5.500204
v 2.250350 -0.672929 -5.500197
v 2.248207 -0.676630 -5.499749
v 2.248170 -0.676692 -5.499741
v 2.246154 -0.680063 -5.499321
v 2.246117 -0.680124 -5.499314
v 2.244251 -0.683155 -5.498927
v 2.244215 -0.683212 -5.498919
v 2.242521 -0.685894 -5.498569
v 2.242488 -0.685946 -5.498562
v 2.240989 -0.688266 -5.498253
v 2.240958 -0.688313 -5.498247
v 2.284579 -0.563033 -5.513468
v 2.285824 -0.563146 -5.511071
v 2.283270 -0.562909 -5.515831
v 2.281899 -0.562777 -5.518157
v 2.280466 -0.562635 -5.520445
v 2.278973 -0.562483 -5.522694
v 2.277420 -0.562323 -5.524901
v 2.275808 -0.562154 -5.527065
v 2.274139 -0.561975 -5.529185
v 2.272414 -0.561788 -5.531258
v 2.239339 -0.687625 -5.502219
v 2.239083 -0.684535 -5.506370
v 2.238912 -0.681026 -5.510403
v 2.238823 -0.677134 -5.514286
v 2.238820 -0.672895 -5.517986
v 2.238901 -0.668341 -5.521475
v 2.239064 -0.663484 -5.524754
v 2.239309 -0.658325 -5.527832
v 2.239631 -0.652869 -5.530716
v 2.240030 -0.647119 -5.533416
v 2.240504 -0.641089 -5.535932
v 2.270145 -0.570884 -5.532009
v 2.270142 -0.570894 -5.532010
v 2.267662 -0.579595 -5.532678
v 2.267657 -0.579614 -5.532680
v 2.264998 -0.587922 -5.533271
v 2.264990 -0.587948 -5.533273
v 2.262182 -0.595868 -5.533794
v 2.262170 -0.595901 -5.533796
v 2.259241 -0.603440 -5.534253
v 2.259225 -0.603478 -5.534256
v 2.256203 -0.610638 -5.534653
v 2.256183 -0.610682 -5.534656
v 2.253096 -0.617463 -5.534999
v 2.253074 -0.617510 -5.535002
v 2.249948 -0.623917 -5.535296
v 2.249923 -0.623967 -5.535298
v 2.246783 -0.630006 -5.535548
v 2.246754 -0.630059 -5.535550
v 2.243626 -0.635732 -5.535760
v 2.243596 -0.635785 -5.535762
v 2.268802 -0.561389 -5.535261
v 2.270635 -0.561593 -5.533284
v 2.266916 -0.561176 -5.537187
v 2.264980 -0.560955 -5.539061
v 2.262995 -0.560727 -5.540882
v 2.260962 -0.560490 -5.542648
v 2.258882 -0.560246 -5.544359
v 2.256758 -0.559995 -5.546012
v 2.254590 -0.559736 -5.547606
v 2.252380 -0.559470 -5.549141
v 2.250131 -0.559197 -5.550616
v 2.241049 -0.634794 -5.538259
v 2.241663 -0.628251 -5.540393
v 2.242346 -0.621476 -5.542329
v 2.243094 -0.614478 -5.544066
v 2.243907 -0.607260 -5.545605
v 2.244783 -0.599823 -5.546948
v 2.245722 -0.592167 -5.548096
v 2.246723 -0.584289 -5.549048
v 2.247789 -0.576178 -5.549793
v 2.248924 -0.567818 -5.550319
f 1 2 3
f 1 4 2
f 1 5 4
f 1 6 5
f 1 7 6
f 1 8 7
f 1 9 8
f 1 10 9
f 1 11 10
f 1 12 13
f 1 13 14
f 1 14 15
f 1 15 16
f 1 16 17
f 1 17 18
f 1 18 19
f 1 19 20
f 1 20 21
f 1 22 11
f 1 23 22
f 1 24 23
f 1 25 24
f 1 26 25
f 1 27 26
f 1 28 27
f 1 29 28
f 1 30 29
f 1 31 30
f 1 32 31
f 1 33 32
f 1 34 33
f 1 35 34
f 1 36 35
f 1 37 36
f 1 38 37
f 1 39 38
f 1 40 39
f 1 21 40
f 11 41 42
f 11 43 41
f 11 44 43
f 11 45 44
f 11 46 45
f 11 47 46
f 11 48 47
f 11 49 48
f 11 50 49
f 21 51 52
f 21 52 53
f 21 53 54
f 21 54 55
f 21 55 56
f 21 56 57
f 21 57 58
f 21 58 59
f 21 59 60
f 21 60 61
f 11 22 50
f 22 62 50
f 22 23 62
f 23 63 62
f 23 24 63
f 24 64 63
f 24 25 64
f 25 65 64
f 25 26 65
f 26 66 65
f 26 27 66
f 27 67 66
f 27 28 67
f 28 68 67
f 28 29 68
f 29 69 68
f 29 30 69
f 30 70 69
f 30 31 70
f 31 71 70
f 31 32 71
f 32 72 71
f 32 33 72
f 33 73 72
f 33 34 73
f 34 74 73
f 34 35 74
f 35 75 74
f 35 36 75
f 36 76 75
f 36 37 76
f 37 77 76
f 37 38 77
f 38 78 77
f 38 39 78
f 39 79 78
f 39 40 79
f 40 80 79
f 40 21 80
f 21 81 80
f 21 82 81
f 21 83 82
f 21 84 83
f 21 85 84
f 21 86 85
f 21 87 86
f 21 88 87
f 21 89 88
f 21 90 89
f 21 91 90
f 21 92 91
f 21 93 92
f 21 94 93
f 21 95 94
f 21 96 95
f 21 97 96
f 21 98 97
f 21 99 98
f 21 100 99
f 21 101 100
f 21 102 101
f 21 61 102
f 50 103 104
f 50 105 103
f 50 106 105
f 50 107 106
f 50 108 107
f 50 109 108
f 50 110 109
f 50 111 110
f 50 112 111
f 50 113 112
f 50 114 113
f 50 115 114
f 50 116 115
f 50 117 116
f 50 118 117
f 50 119 118
f 50 120 119
f 50 121 120
f 50 122 121
f 50 123 122
f 61 124 125
f 61 125 126
f 61 126 127
f 61 127 128
f 61 128 129
f 61 129 130
f 61 130 131
f 61 131 132
f 61 132 133
f 61 133 134
f 61 134 135
f 50 62 123
f 62 136 123
f 62 63 136
f 63 137 136
f 63 64 137
f 64 138 137
f 64 65 138
f 65 139 138
f 65 66 139
f 66 140 139
f 66 67 140
f 67 141 140
f 67 68 141
f 68 142 141
f 68 69 142
f 69 143 142
f 69 70 143
f 70 144 143
f 70 71 144
f 71 145 144
f 71 72 145
f 72 146 145
f 72 73 146
f 73 147 146
f 73 74 147
f 74 148 147
f 74 75 148
f 75 149 148
f 75 76 149
f 76 150 149
f 76 77 150
f 77 151 150
f 77 78 151
f 78 152 151
f 78 79 152
f 79 153 152
f 79 80 153
f 80 154 153
f 80 81 154
f 81 155 154
f 81 82 155
f 82 156 155
f 82 83 156
f 83 157 156
f 83 84 157
f 84 158 157
f 84 85 158
f 85 159 158
f 85 86 159
f 86 160 159
f 86 87 160
f 87 161 160
f 87 88 161
f 88 162 161
f 88 89 162
f 89 163 162
f 89 90 163
f 90 164 163
f 90 91 164
f 91 165 164
f 91 92 165
f 92 166 165
f 92 93 166
f 93 167 166
f 93 94 167
f 94 168 167
f 94 95 168
f 95 169 168
f 95 96 169
f 96 170 169
f 96 97 170
f 97 171 170
f 97 98 171
f 98 172 171
f 98 99 172
f 99 173 172
f 99 100 173
f 100 174 173
f 100 101 174
f 101 175 174
f 101 102 175
f 102 176 175
f 102 61 176
f 61 177 176
f 61 135 177
f 123 178 179
f 123 180 178
f 123 181 180
f 123 182 181
f 123 183 182
f 123 184 183
f 123 185 184
f 123 186 185
f 123 187 186
f 135 188 189
f 135 189 190
f 135 190 191
f 135 191 192
f 135 192 193
f 135 193 194
f 135 194 195
f 135 195 196
f 135 196 197
f 135 197 198
f 123 136 187
f 136 199 187
f 136 137 199
f 137 200 199
f 137 138 200
f 138 201 200
f 138 139 201
f 139 202 201
f 139 140 202
f 140 203 202
f 140 141 203
f 141 204 203
f 141 142 204
f 142 205 204
f 142 143 205
f 143 206 205
f 143 144 206
f 144 207 206
f 144 145 207
f 145 208 207
f 145 146 208
f 146 209 208
f 146 147 209
f 147 210 209
f 147 148 210
f 148 211 210
f 148 149 211
f 149 212 211
f 149 150 212
f 150 213 212
f 150 151 213
f 151 214 213
f 151 152 214
f 152 215 214
f 152 153 215
f 153 216 215
f 153 154 216
f 154 217 216
f 154 155 217
f 155 218 217
f 155 156 218
f 156 198 218
f 156 157 198
f 157 158 198
f 158 159 198
f 159 160 198
f 160 161 198
f 161 162 198
f 162 163 198
f 163 164 198
f 164 165 198
f 165 166 198
f 166 167 198
f 167 168 198
f 168 169 198
f 169 170 198
f 170 171 198
f 171 172 198
f 172 173 198
f 173 174 198
f 174 175 198
f 175 176 198
f 176 177 198
f 177 135 198
f 187 219 220
f 187 221 219
f 187 222 221
f 187 223 222
f 187 224 223
f 187 225 224
f 187 226 225
f 187 227 226
f 187 228 227
f 187 229 228
f 198 230 231
f 198 231 232
f 198 232 233
f 198 233 234
f 198 234 235
f 198 235 236
f 198 236 237
f 198 237 238
f 198 238 239
f 198 239 229
f 187 199 229
f 199 200 229
f 200 201 229
f 201 202 229
f 202 203 229
f 203 204 229
f 204 205 229
f 205 206 229
f 206 207 229
f 207 208 229
f 208 209 229
f 209 210 229
f 210 211 229
f 211 212 229
f 212 213 229
f 213 214 229
f 214 215 229
f 215 216 229
f 216 217 229
f 217 218 229
f 218 198 229
