v -2.665000 -0.375000 -3.150000
v -2.665000 -0.375000 -4.037670
v -2.665000 -0.365608 -4.035119
v -2.665000 -0.356199 -4.032633
v -2.665000 -0.346773 -4.030213
v -2.665000 -0.337330 -4.027857
v -2.665000 -0.327872 -4.025566
v -2.665000 -0.318398 -4.023340
v -2.665000 -0.308909 -4.021180
v -2.665000 -0.299405 -4.019085
v -2.665000 -0.289887 -4.017056
v -2.665000 -0.280355 -4.015092
v -2.665000 -0.270810 -4.013194
v -2.665000 -0.261252 -4.011362
v -2.665000 -0.251682 -4.009595
v -2.665000 -0.242099 -4.007895
v -2.665000 -0.232506 -4.006260
v -2.665000 -0.222901 -4.004692
v -2.665000 -0.213286 -4.003190
v -2.665000 -0.203660 -4.001754
v -2.665000 -0.194025 -4.000385
v -2.665000 -0.184381 -3.999081
v -2.665000 -0.174727 -3.997845
v -2.665000 -0.165066 -3.996675
v -2.665000 -0.155397 -3.995571
v -2.665000 -0.145720 -3.994534
v -2.665000 -0.136037 -3.993564
v -2.665000 -0.126347 -3.992660
v -2.665000 -0.116651 -3.991823
v -2.665000 -0.106950 -3.991053
v -2.665000 -0.097243 -3.990350
v -2.665000 -0.087532 -3.989714
v -2.665000 -0.077817 -3.989144
v -2.665000 -0.068098 -3.988642
v -2.665000 -0.058375 -3.988206
v -2.665000 -0.048650 -3.987838
v -2.665000 -0.038923 -3.987536
v -2.665000 -0.029194 -3.987302
v -2.665000 -0.019463 -3.987134
v -2.665000 -0.009732 -3.987034
v -2.665000 0.000000 -3.987000
v -2.665000 0.000000 -3.025000
v -2.665000 -0.250000 -3.025000
v -2.665000 -0.256331 -3.025160
v -2.665000 -0.262646 -3.025641
v -2.665000 -0.268928 -3.026441
v -2.665000 -0.275162 -3.027559
v -2.665000 -0.281332 -3.028990
v -2.665000 -0.287420 -3.030733
v -2.665000 -0.293413 -3.032781
v -2.665000 -0.299294 -3.035130
v -2.665000 -0.305049 -3.037774
v -2.665000 -0.310663 -3.040707
v -2.665000 -0.316121 -3.043919
v -2.665000 -0.321409 -3.047405
v -2.665000 -0.326513 -3.051153
v -2.665000 -0.331422 -3.055155
v -2.665000 -0.336121 -3.059401
v -2.665000 -0.340599 -3.063879
v -2.665000 -0.344845 -3.068578
v -2.665000 -0.348847 -3.073487
v -2.665000 -0.352595 -3.078591
v -2.665000 -0.356081 -3.083879
v -2.665000 -0.359293 -3.089337
v -2.665000 -0.362226 -3.094951
v -2.665000 -0.364870 -3.100706
v -2.665000 -0.367219 -3.106587
v -2.665000 -0.369267 -3.112580
v -2.665000 -0.371010 -3.118668
v -2.665000 -0.372441 -3.124838
v -2.665000 -0.373559 -3.131072
v -2.665000 -0.374359 -3.137354
v -2.665000 -0.374840 -3.143669
f 73 1 2
f 73 2 3
f 73 3 4
f 73 4 5
f 73 5 6
f 73 6 7
f 73 7 8
f 73 8 9
f 73 9 10
f 73 10 11
f 73 11 12
f 73 12 13
f 73 13 14
f 73 14 15
f 73 15 16
f 73 16 17
f 73 17 18
f 73 18 19
f 73 19 20
f 73 20 21
f 73 21 22
f 73 22 23
f 73 23 24
f 73 24 25
f 73 25 26
f 73 26 27
f 73 27 28
f 73 28 29
f 73 29 30
f 73 30 31
f 73 31 32
f 73 32 33
f 73 33 34
f 73 34 35
f 73 35 36
f 73 36 37
f 73 37 38
f 73 38 39
f 73 39 40
f 73 40 41
f 73 41 42
f 73 42 43
f 73 43 44
f 73 44 45
f 73 45 46
f 73 46 47
f 73 47 48
f 73 48 49
f 73 49 50
f 73 50 51
f 73 51 52
f 73 52 53
f 73 53 54
f 73 54 55
f 73 55 56
f 73 56 57
f 73 57 58
f 73 58 59
f 73 59 60
f 73 60 61
f 73 61 62
f 73 62 63
f 73 63 64
f 73 64 65
f 73 65 66
f 73 66 67
f 73 67 68
f 73 68 69
f 73 69 70
f 73 70 71
f 71 72 73
