v 1.674454 -0.559197 -6.399717
v 1.673309 -0.559736 -6.404973
v 1.673918 -0.559470 -6.402352
v 1.672631 -0.559995 -6.407577
v 1.671881 -0.560246 -6.410163
v 1.671062 -0.560490 -6.412728
v 1.670174 -0.560727 -6.415270
v 1.669218 -0.560955 -6.417789
v 1.668193 -0.561176 -6.420281
v 1.667102 -0.561389 -6.422745
v 1.665944 -0.561593 -6.425180
v 1.673732 -0.567824 -6.398705
v 1.672822 -0.576188 -6.397845
v 1.671734 -0.584305 -6.397130
v 1.670478 -0.592187 -6.396552
v 1.669063 -0.599846 -6.396106
v 1.667489 -0.607287 -6.395789
v 1.665757 -0.614509 -6.395604
v 1.663865 -0.621508 -6.395553
v 1.661812 -0.628285 -6.395636
v 1.659601 -0.634830 -6.395856
v 1.665823 -0.570631 -6.422680
v 1.665823 -0.570632 -6.422679
v 1.665545 -0.579280 -6.420017
v 1.665545 -0.579283 -6.420016
v 1.665126 -0.587541 -6.417218
v 1.665126 -0.587545 -6.417216
v 1.664585 -0.595417 -6.414309
v 1.664584 -0.595423 -6.414307
v 1.663936 -0.602917 -6.411313
v 1.663935 -0.602924 -6.411310
v 1.663195 -0.610040 -6.408254
v 1.663194 -0.610048 -6.408251
v 1.662377 -0.616788 -6.405157
v 1.662376 -0.616797 -6.405153
v 1.661498 -0.623165 -6.402045
v 1.661496 -0.623174 -6.402041
v 1.660569 -0.629175 -6.398939
v 1.660568 -0.629185 -6.398934
v 1.659606 -0.634822 -6.395862
v 1.663433 -0.561975 -6.429953
v 1.664721 -0.561788 -6.427583
v 1.662082 -0.562154 -6.432288
v 1.660668 -0.562323 -6.434586
v 1.659193 -0.562483 -6.436846
v 1.657657 -0.562635 -6.439066
v 1.656062 -0.562777 -6.441244
v 1.654408 -0.562909 -6.443379
v 1.652698 -0.563033 -6.445469
v 1.650932 -0.563146 -6.447513
v 1.657235 -0.641126 -6.396212
v 1.654721 -0.647158 -6.396704
v 1.652063 -0.652909 -6.397335
v 1.649260 -0.658366 -6.398104
v 1.646308 -0.663526 -6.399018
v 1.643197 -0.668385 -6.400082
v 1.639922 -0.672939 -6.401301
v 1.636482 -0.677177 -6.402677
v 1.632903 -0.681068 -6.404199
v 1.629216 -0.684575 -6.405854
v 1.625452 -0.687662 -6.407630
v 1.650113 -0.572685 -6.446298
v 1.650113 -0.572686 -6.446298
v 1.649166 -0.581868 -6.444869
v 1.649166 -0.581872 -6.444869
v 1.648106 -0.590693 -6.443253
v 1.648106 -0.590698 -6.443252
v 1.646949 -0.599160 -6.441475
v 1.646948 -0.599166 -6.441473
v 1.645708 -0.607271 -6.439556
v 1.645707 -0.607278 -6.439554
v 1.644398 -0.615023 -6.437521
v 1.644397 -0.615031 -6.437518
v 1.643034 -0.622412 -6.435393
v 1.643033 -0.622421 -6.435391
v 1.641630 -0.629437 -6.433197
v 1.641628 -0.629447 -6.433193
v 1.640199 -0.636099 -6.430952
v 1.640197 -0.636109 -6.430948
v 1.638755 -0.642395 -6.428681
v 1.638752 -0.642406 -6.428677
v 1.637312 -0.648319 -6.426409
v 1.637309 -0.648330 -6.426405
v 1.635885 -0.653866 -6.424159
v 1.635882 -0.653877 -6.424154
v 1.634487 -0.659034 -6.421951
v 1.634484 -0.659046 -6.421946
v 1.633130 -0.663828 -6.419806
v 1.633127 -0.663840 -6.419800
v 1.631823 -0.668259 -6.417736
v 1.631819 -0.668271 -6.417730
v 1.630572 -0.672341 -6.415754
v 1.630568 -0.672353 -6.415748
v 1.629383 -0.676086 -6.413870
v 1.629379 -0.676098 -6.413864
v 1.628265 -0.679501 -6.412096
v 1.628261 -0.679512 -6.412090
v 1.627229 -0.682575 -6.410452
v 1.627226 -0.682586 -6.410446
v 1.626289 -0.685297 -6.408959
v 1.626285 -0.685307 -6.408953
v 1.625456 -0.687654 -6.407636
v 1.647237 -0.563345 -6.451456
v 1.649111 -0.563251 -6.449509
v 1.645312 -0.563430 -6.453352
v 1.643336 -0.563504 -6.455196
v 1.641312 -0.563569 -6.456986
v 1.639240 -0.563625 -6.458722
v 1.637122 -0.563670 -6.460402
v 1.634959 -0.563705 -6.462024
v 1.632754 -0.563730 -6.463588
v 1.630508 -0.563745 -6.465093
v 1.628222 -0.563750 -6.466537
v 1.625899 -0.563745 -6.467919
v 1.623539 -0.563730 -6.469238
v 1.621145 -0.563705 -6.470494
v 1.618718 -0.563670 -6.471685
v 1.616260 -0.563625 -6.472811
v 1.613773 -0.563569 -6.473870
v 1.611259 -0.563504 -6.474862
v 1.608720 -0.563430 -6.475787
v 1.606157 -0.563345 -6.476642
v 1.603572 -0.563251 -6.477429
v 1.621640 -0.690298 -6.409514
v 1.617798 -0.692478 -6.411496
v 1.613940 -0.694210 -6.413564
v 1.610080 -0.695502 -6.415709
v 1.606233 -0.696361 -6.417921
v 1.602408 -0.696790 -6.420192
v 1.598612 -0.696789 -6.422520
v 1.594853 -0.696358 -6.424898
v 1.591137 -0.695497 -6.427324
v 1.587475 -0.694203 -6.429791
v 1.583883 -0.692469 -6.432291
v 1.580375 -0.690288 -6.434816
v 1.602970 -0.572818 -6.476111
v 1.602970 -0.572820 -6.476111
v 1.602232 -0.582032 -6.474581
v 1.602231 -0.582035 -6.474581
v 1.601373 -0.590887 -6.472866
v 1.601373 -0.590892 -6.472865
v 1.600410 -0.599385 -6.470990
v 1.600409 -0.599391 -6.470989
v 1.599356 -0.607526 -6.468977
v 1.599355 -0.607534 -6.468975
v 1.598226 -0.615309 -6.466850
v 1.598224 -0.615318 -6.466847
v 1.597034 -0.622729 -6.464633
v 1.597032 -0.622738 -6.464630
v 1.595794 -0.629784 -6.462349
v 1.595792 -0.629794 -6.462345
v 1.594520 -0.636475 -6.460019
v 1.594518 -0.636486 -6.460016
v 1.593224 -0.642800 -6.457667
v 1.593222 -0.642811 -6.457663
v 1.591923 -0.648752 -6.455317
v 1.591921 -0.648763 -6.455313
v 1.590630 -0.654325 -6.452992
v 1.590627 -0.654337 -6.452987
v 1.589357 -0.659519 -6.450714
v 1.589354 -0.659530 -6.450709
v 1.588117 -0.664337 -6.448501
v 1.588114 -0.664349 -6.448496
v 1.586918 -0.668791 -6.446369
v 1.586915 -0.668803 -6.446363
v 1.585768 -0.672894 -6.444328
v 1.585764 -0.672906 -6.444321
v 1.584673 -0.676659 -6.442389
v 1.584669 -0.676671 -6.442382
v 1.583640 -0.680092 -6.440564
v 1.583636 -0.680103 -6.440558
v 1.582682 -0.683183 -6.438873
v 1.582678 -0.683194 -6.438867
v 1.581810 -0.685920 -6.437338
v 1.581807 -0.685930 -6.437333
v 1.581037 -0.688290 -6.435979
v 1.581035 -0.688299 -6.435974
v 1.598345 -0.563033 -6.478793
v 1.600967 -0.563146 -6.478146
v 1.595706 -0.562909 -6.479370
v 1.593053 -0.562777 -6.479875
v 1.590388 -0.562635 -6.480308
v 1.587713 -0.562483 -6.480670
v 1.585030 -0.562323 -6.480960
v 1.582341 -0.562154 -6.481178
v 1.579647 -0.561975 -6.481323
v 1.576951 -0.561788 -6.481395
v 1.576967 -0.687651 -6.437359
v 1.573678 -0.684562 -6.439907
v 1.570532 -0.681055 -6.442442
v 1.567553 -0.677163 -6.444940
v 1.564768 -0.672925 -6.447381
v 1.562197 -0.668371 -6.449746
v 1.559839 -0.663512 -6.452035
v 1.557687 -0.658352 -6.454251
v 1.555731 -0.652895 -6.456398
v 1.553964 -0.647145 -6.458481
v 1.552385 -0.641114 -6.460498
v 1.574890 -0.570888 -6.480186
v 1.574889 -0.570890 -6.480185
v 1.572749 -0.579604 -6.478761
v 1.572748 -0.579607 -6.478761
v 1.570546 -0.587934 -6.477150
v 1.570544 -0.587938 -6.477149
v 1.568295 -0.595883 -6.475379
v 1.568293 -0.595889 -6.475377
v 1.566009 -0.603457 -6.473471
v 1.566007 -0.603464 -6.473469
v 1.563704 -0.610658 -6.471452
v 1.563701 -0.610666 -6.471449
v 1.561394 -0.617484 -6.469345
v 1.561391 -0.617493 -6.469343
v 1.559094 -0.623940 -6.467175
v 1.559090 -0.623949 -6.467172
v 1.556816 -0.630030 -6.464963
v 1.556812 -0.630040 -6.464959
v 1.554574 -0.635756 -6.462731
v 1.554570 -0.635766 -6.462727
v 1.571559 -0.561389 -6.481323
v 1.574254 -0.561593 -6.481395
v 1.568868 -0.561176 -6.481178
v 1.566182 -0.560955 -6.480960
v 1.563504 -0.560727 -6.480670
v 1.560835 -0.560490 -6.480309
v 1.558178 -0.560246 -6.479875
v 1.555534 -0.559995 -6.479370
v 1.552905 -0.559736 -6.478794
v 1.550293 -0.559470 -6.478147
v 1.547701 -0.559197 -6.477430
v 1.550995 -0.634819 -6.462444
v 1.549797 -0.628275 -6.464315
v 1.548792 -0.621498 -6.466106
v 1.547980 -0.614499 -6.467815
v 1.547359 -0.607279 -6.469443
v 1.546928 -0.599839 -6.470988
v 1.546684 -0.592181 -6.472452
v 1.546629 -0.584300 -6.473833
v 1.546774 -0.576185 -6.475126
v 1.547127 -0.567822 -6.476327
f 1 2 3
f 1 4 2
f 1 5 4
f 1 6 5
f 1 7 6
f 1 8 7
f 1 9 8
f 1 10 9
f 1 11 10
f 1 12 13
f 1 13 14
f 1 14 15
f 1 15 16
f 1 16 17
f 1 17 18
f 1 18 19
f 1 19 20
f 1 20 21
f 1 22 11
f 1 23 22
f 1 24 23
f 1 25 24
f 1 26 25
f 1 27 26
f 1 28 27
f 1 29 28
f 1 30 29
f 1 31 30
f 1 32 31
f 1 33 32
f 1 34 33
f 1 35 34
f 1 36 35
f 1 37 36
f 1 38 37
f 1 39 38
f 1 40 39
f 1 21 40
f 11 41 42
f 11 43 41
f 11 44 43
f 11 45 44
f 11 46 45
f 11 47 46
f 11 48 47
f 11 49 48
f 11 50 49
f 21 51 52
f 21 52 53
f 21 53 54
f 21 54 55
f 21 55 56
f 21 56 57
f 21 57 58
f 21 58 59
f 21 59 60
f 21 60 61
f 11 22 50
f 22 62 50
f 22 23 62
f 23 63 62
f 23 24 63
f 24 64 63
f 24 25 64
f 25 65 64
f 25 26 65
f 26 66 65
f 26 27 66
f 27 67 66
f 27 28 67
f 28 68 67
f 28 29 68
f 29 69 68
f 29 30 69
f 30 70 69
f 30 31 70
f 31 71 70
f 31 32 71
f 32 72 71
f 32 33 72
f 33 73 72
f 33 34 73
f 34 74 73
f 34 35 74
f 35 75 74
f 35 36 75
f 36 76 75
f 36 37 76
f 37 77 76
f 37 38 77
f 38 78 77
f 38 39 78
f 39 79 78
f 39 40 79
f 40 80 79
f 40 21 80
f 21 81 80
f 21 82 81
f 21 83 82
f 21 84 83
f 21 85 84
f 21 86 85
f 21 87 86
f 21 88 87
f 21 89 88
f 21 90 89
f 21 91 90
f 21 92 91
f 21 93 92
f 21 94 93
f 21 95 94
f 21 96 95
f 21 97 96
f 21 98 97
f 21 99 98
f 21 100 99
f 21 101 100
f 21 102 101
f 21 61 102
f 50 103 104
f 50 105 103
f 50 106 105
f 50 107 106
f 50 108 107
f 50 109 108
f 50 110 109
f 50 111 110
f 50 112 111
f 50 113 112
f 50 114 113
f 50 115 114
f 50 116 115
f 50 117 116
f 50 118 117
f 50 119 118
f 50 120 119
f 50 121 120
f 50 122 121
f 50 123 122
f 61 124 125
f 61 125 126
f 61 126 127
f 61 127 128
f 61 128 129
f 61 129 130
f 61 130 131
f 61 131 132
f 61 132 133
f 61 133 134
f 61 134 135
f 50 62 123
f 62 136 123
f 62 63 136
f 63 137 136
f 63 64 137
f 64 138 137
f 64 65 138
f 65 139 138
f 65 66 139
f 66 140 139
f 66 67 140
f 67 141 140
f 67 68 141
f 68 142 141
f 68 69 142
f 69 143 142
f 69 70 143
f 70 144 143
f 70 71 144
f 71 145 144
f 71 72 145
f 72 146 145
f 72 73 146
f 73 147 146
f 73 74 147
f 74 148 147
f 74 75 148
f 75 149 148
f 75 76 149
f 76 150 149
f 76 77 150
f 77 151 150
f 77 78 151
f 78 152 151
f 78 79 152
f 79 153 152
f 79 80 153
f 80 154 153
f 80 81 154
f 81 155 154
f 81 82 155
f 82 156 155
f 82 83 156
f 83 157 156
f 83 84 157
f 84 158 157
f 84 85 158
f 85 159 158
f 85 86 159
f 86 160 159
f 86 87 160
f 87 161 160
f 87 88 161
f 88 162 161
f 88 89 162
f 89 163 162
f 89 90 163
f 90 164 163
f 90 91 164
f 91 165 164
f 91 92 165
f 92 166 165
f 92 93 166
f 93 167 166
f 93 94 167
f 94 168 167
f 94 95 168
f 95 169 168
f 95 96 169
f 96 170 169
f 96 97 170
f 97 171 170
f 97 98 171
f 98 172 171
f 98 99 172
f 99 173 172
f 99 100 173
f 100 174 173
f 100 101 174
f 101 175 174
f 101 102 175
f 102 176 175
f 102 61 176
f 61 177 176
f 61 135 177
f 123 178 179
f 123 180 178
f 123 181 180
f 123 182 181
f 123 183 182
f 123 184 183
f 123 185 184
f 123 186 185
f 123 187 186
f 135 188 189
f 135 189 190
f 135 190 191
f 135 191 192
f 135 192 193
f 135 193 194
f 135 194 195
f 135 195 196
f 135 196 197
f 135 197 198
f 123 136 187
f 136 199 187
f 136 137 199
f 137 200 199
f 137 138 200
f 138 201 200
f 138 139 201
f 139 202 201
f 139 140 202
f 140 203 202
f 140 141 203
f 141 204 203
f 141 142 204
f 142 205 204
f 142 143 205
f 143 206 205
f 143 144 206
f 144 207 206
f 144 145 207
f 145 208 207
f 145 146 208
f 146 209 208
f 146 147 209
f 147 210 209
f 147 148 210
f 148 211 210
f 148 149 211
f 149 212 211
f 149 150 212
f 150 213 212
f 150 151 213
f 151 214 213
f 151 152 214
f 152 215 214
f 152 153 215
f 153 216 215
f 153 154 216
f 154 217 216
f 154 155 217
f 155 218 217
f 155 156 218
f 156 198 218
f 156 157 198
f 157 158 198
f 158 159 198
f 159 160 198
f 160 161 198
f 161 162 198
f 162 163 198
f 163 164 198
f 164 165 198
f 165 166 198
f 166 167 198
f 167 168 198
f 168 169 198
f 169 170 198
f 170 171 198
f 171 172 198
f 172 173 198
f 173 174 198
f 174 175 198
f 175 176 198
f 176 177 198
f 177 135 198
f 187 219 220
f 187 221 219
f 187 222 221
f 187 223 222
f 187 224 223
f 187 225 224
f 187 226 225
f 187 227 226
f 187 228 227
f 187 229 228
f 198 230 231
f 198 231 232
f 198 232 233
f 198 233 234
f 198 234 235
f 198 235 236
f 198 236 237
f 198 237 238
f 198 238 239
f 198 239 229
f 187 199 229
f 199 200 229
f 200 201 229
f 201 202 229
f 202 203 229
f 203 204 229
f 204 205 229
f 205 206 229
f 206 207 229
f 207 208 229
f 208 209 229
f 209 210 229
f 210 211 229
f 211 212 229
f 212 213 229
f 213 214 229
f 214 215 229
f 215 216 229
f 216 217 229
f 217 218 229
f 218 198 229
