v 1.050000 -0.925938 -4.782418
v 1.050000 -0.985475 -4.782418
v 1.050000 -0.997138 -4.801431
v 1.050000 -1.008434 -4.820665
v 1.050000 -1.019360 -4.840112
v 1.050000 -1.029910 -4.859764
v 1.050000 -1.040081 -4.879616
v 1.050000 -1.049870 -4.899659
v 1.050000 -1.059273 -4.919886
v 1.050000 -1.068286 -4.940289
v 1.050000 -1.076906 -4.960862
v 1.050000 -1.085130 -4.981596
v 1.050000 -1.092955 -5.002484
v 1.050000 -1.100377 -5.023518
v 1.050000 -1.107395 -5.044691
v 1.050000 -1.114006 -5.065995
v 1.050000 -1.120207 -5.087421
v 1.050000 -1.125996 -5.108962
v 1.050000 -1.131370 -5.130611
v 1.050000 -1.136329 -5.152358
v 1.050000 -1.140869 -5.174197
v 1.050000 -1.144990 -5.196118
v 1.050000 -1.148689 -5.218115
v 1.050000 -1.151966 -5.240179
v 1.050000 -1.154819 -5.262301
v 1.050000 -1.157248 -5.284474
v 1.050000 -1.159251 -5.306689
v 1.050000 -1.160827 -5.328939
v 1.050000 -1.161976 -5.351215
v 1.050000 -1.162698 -5.373509
v 1.050000 -1.162992 -5.395813
v 1.050000 -1.162859 -5.418118
v 1.050000 -1.162298 -5.440416
v 1.050000 -1.161309 -5.462700
v 1.050000 -1.159893 -5.484961
v 1.050000 -1.158050 -5.507190
v 1.050000 -1.155781 -5.529380
v 1.050000 -1.153087 -5.551522
v 1.050000 -1.149969 -5.573609
v 1.050000 -1.146428 -5.595632
v 1.050000 -1.142465 -5.617582
v 1.050000 -1.091525 -5.617582
v 1.050000 -1.095683 -5.595570
v 1.050000 -1.099397 -5.573478
v 1.050000 -1.102666 -5.551316
v 1.050000 -1.105488 -5.529093
v 1.050000 -1.107862 -5.506818
v 1.050000 -1.109788 -5.484499
v 1.050000 -1.111264 -5.462146
v 1.050000 -1.112289 -5.439768
v 1.050000 -1.112864 -5.417373
v 1.050000 -1.112989 -5.394972
v 1.050000 -1.112662 -5.372573
v 1.050000 -1.111885 -5.350184
v 1.050000 -1.110657 -5.327816
v 1.050000 -1.108979 -5.305477
v 1.050000 -1.106852 -5.283177
v 1.050000 -1.104277 -5.260924
v 1.050000 -1.101254 -5.238727
v 1.050000 -1.097785 -5.216596
v 1.050000 -1.093871 -5.194538
v 1.050000 -1.089515 -5.172564
v 1.050000 -1.084716 -5.150683
v 1.050000 -1.079479 -5.128902
v 1.050000 -1.073804 -5.107231
v 1.050000 -1.067694 -5.085678
v 1.050000 -1.061152 -5.064253
v 1.050000 -1.054180 -5.042964
v 1.050000 -1.046780 -5.021820
v 1.050000 -1.038957 -5.000829
v 1.050000 -1.030712 -4.979999
v 1.050000 -1.022051 -4.959340
v 1.050000 -1.012975 -4.938859
v 1.050000 -1.003489 -4.918565
v 1.050000 -0.993596 -4.898466
v 1.050000 -0.983300 -4.878570
v 1.050000 -0.972607 -4.858885
v 1.050000 -0.961519 -4.839420
v 1.050000 -0.950042 -4.820182
v 1.050000 -0.938180 -4.801178
f 2 1 80
f 2 80 3
f 3 80 79
f 3 79 4
f 4 79 78
f 4 78 5
f 5 78 77
f 5 77 6
f 6 77 76
f 6 76 7
f 7 76 75
f 7 75 8
f 8 75 74
f 8 74 9
f 9 74 73
f 9 73 10
f 10 73 72
f 10 72 11
f 11 72 71
f 11 71 12
f 12 71 70
f 12 70 13
f 13 70 69
f 13 69 14
f 14 69 68
f 14 68 15
f 15 68 67
f 15 67 16
f 16 67 66
f 16 66 17
f 17 66 65
f 17 65 18
f 18 65 64
f 18 64 19
f 19 64 63
f 19 63 20
f 20 63 62
f 20 62 21
f 21 62 61
f 21 61 22
f 22 61 60
f 22 60 23
f 23 60 59
f 23 59 24
f 24 59 58
f 24 58 25
f 25 58 57
f 25 57 26
f 26 57 56
f 26 56 27
f 27 56 55
f 27 55 28
f 28 55 54
f 28 54 29
f 29 54 53
f 29 53 30
f 30 53 52
f 30 52 31
f 31 52 51
f 31 51 32
f 32 51 50
f 32 50 33
f 33 50 49
f 33 49 34
f 34 49 48
f 34 48 35
f 35 48 47
f 35 47 36
f 36 47 46
f 36 46 37
f 37 46 45
f 37 45 38
f 38 45 44
f 38 44 39
f 39 44 43
f 39 43 40
f 40 43 42
f 40 42 41
