v 0.242592 0.581420 -1.051000
v 0.240858 0.582140 -1.051000
v 0.239121 0.582856 -1.051000
v 0.237382 0.583566 -1.051000
v 0.235641 0.584272 -1.051000
v 0.233898 0.584972 -1.051000
v 0.232153 0.585666 -1.051000
v 0.230406 0.586356 -1.051000
v 0.228656 0.587040 -1.051000
v 0.226905 0.587719 -1.051000
v 0.225152 0.588393 -1.051000
v 0.223396 0.589062 -1.051000
v 0.221639 0.589726 -1.051000
v 0.219880 0.590384 -1.051000
v 0.218118 0.591037 -1.051000
v 0.216355 0.591684 -1.051000
v 0.214590 0.592327 -1.051000
v 0.212823 0.592964 -1.051000
v 0.211054 0.593596 -1.051000
v 0.209283 0.594223 -1.051000
v 0.207510 0.594844 -1.051000
v 0.205736 0.595460 -1.051000
v 0.203960 0.596071 -1.051000
v 0.202181 0.596676 -1.051000
v 0.200401 0.597277 -1.051000
v 0.198620 0.597871 -1.051000
v 0.196836 0.598461 -1.051000
v 0.195051 0.599045 -1.051000
v 0.193264 0.599624 -1.051000
v 0.191475 0.600198 -1.051000
v 0.189685 0.600766 -1.051000
v 0.187893 0.601329 -1.051000
v 0.159923 0.468454 -1.051000
v 0.160530 0.468247 -1.051000
v 0.161137 0.468038 -1.051000
v 0.161743 0.467829 -1.051000
v 0.162349 0.467619 -1.051000
v 0.162955 0.467408 -1.051000
v 0.163561 0.467197 -1.051000
v 0.164166 0.466984 -1.051000
v 0.164771 0.466771 -1.051000
v 0.165376 0.466557 -1.051000
v 0.165980 0.466343 -1.051000
v 0.166585 0.466127 -1.051000
v 0.167188 0.465911 -1.051000
v 0.167792 0.465694 -1.051000
v 0.168395 0.465476 -1.051000
v 0.168999 0.465257 -1.051000
v 0.169601 0.465038 -1.051000
v 0.170204 0.464818 -1.051000
v 0.170806 0.464597 -1.051000
v 0.171408 0.464375 -1.051000
v 0.172010 0.464153 -1.051000
v 0.172611 0.463929 -1.051000
v 0.173212 0.463705 -1.051000
v 0.173813 0.463480 -1.051000
v 0.174413 0.463255 -1.051000
v 0.175014 0.463028 -1.051000
v 0.175613 0.462801 -1.051000
v 0.176213 0.462573 -1.051000
v 0.176812 0.462344 -1.051000
v 0.177411 0.462115 -1.051000
v 0.178010 0.461885 -1.051000
v 0.178609 0.461654 -1.051000
v 0.187956 0.457928 -1.061000
v 0.251826 0.577481 -1.061000
f 66 1 2
f 66 2 3
f 66 3 4
f 66 4 5
f 66 5 6
f 66 6 7
f 66 7 8
f 66 8 9
f 66 9 10
f 66 10 11
f 66 11 12
f 66 12 13
f 66 13 14
f 66 14 15
f 66 15 16
f 66 16 17
f 66 17 18
f 66 18 19
f 66 19 20
f 66 20 21
f 66 21 22
f 66 22 23
f 66 23 24
f 66 24 25
f 66 25 26
f 66 26 27
f 66 27 28
f 66 28 29
f 66 29 30
f 66 30 31
f 66 31 32
f 66 32 33
f 66 33 34
f 66 34 35
f 66 35 36
f 66 36 37
f 66 37 38
f 66 38 39
f 66 39 40
f 66 40 41
f 66 41 42
f 66 42 43
f 66 43 44
f 66 44 45
f 66 45 46
f 66 46 47
f 66 47 48
f 66 48 49
f 66 49 50
f 66 50 51
f 66 51 52
f 66 52 53
f 66 53 54
f 66 54 55
f 66 55 56
f 66 56 57
f 66 57 58
f 66 58 59
f 66 59 60
f 66 60 61
f 66 61 62
f 66 62 63
f 66 63 64
f 64 65 66
