v -0.334791 0.009706 0.579876
v -0.301819 0.010000 0.598168
v -0.303990 0.010000 0.597068
v -0.306156 0.010000 0.595960
v -0.308319 0.010000 0.594844
v -0.310478 0.010000 0.593720
v -0.312632 0.010000 0.592588
v -0.314783 0.010000 0.591449
v -0.316929 0.010000 0.590302
v -0.319071 0.010000 0.589147
v -0.321209 0.010000 0.587984
v -0.323342 0.010000 0.586813
v -0.325472 0.010000 0.585635
v -0.327597 0.010000 0.584449
v -0.329717 0.010000 0.583255
v -0.331834 0.010000 0.582054
v -0.333946 0.010000 0.580844
v -0.336053 0.010000 0.579628
v -0.338156 0.010000 0.578403
v -0.340255 0.010000 0.577171
v -0.342349 0.010000 0.575931
v -0.344439 0.010000 0.574684
v -0.346524 0.010000 0.573429
v -0.348605 0.010000 0.572167
v -0.350681 0.010000 0.570897
v -0.352752 0.010000 0.569619
v -0.354819 0.010000 0.568334
v -0.356881 0.010000 0.567042
v -0.358938 0.010000 0.565742
v -0.360990 0.010000 0.564434
v -0.363038 0.010000 0.563119
v -0.365081 0.010000 0.561797
v -0.367119 0.010000 0.560467
v -0.367119 0.010000 0.560467
v -0.367119 0.000000 0.560467
v -0.301819 0.010000 0.598168
v -0.303990 0.010000 0.597068
v -0.306156 0.010000 0.595960
v -0.308319 0.010000 0.594844
v -0.310478 0.010000 0.593720
v -0.312632 0.010000 0.592588
v -0.314783 0.010000 0.591449
v -0.316929 0.010000 0.590302
v -0.319071 0.010000 0.589147
v -0.321209 0.010000 0.587984
v -0.323342 0.010000 0.586813
v -0.325472 0.010000 0.585635
v -0.327597 0.010000 0.584449
v -0.329717 0.010000 0.583255
v -0.331834 0.010000 0.582054
v -0.333946 0.010000 0.580844
v -0.336053 0.010000 0.579628
v -0.338156 0.010000 0.578403
v -0.340255 0.010000 0.577171
v -0.342349 0.010000 0.575931
v -0.344439 0.010000 0.574684
v -0.346524 0.010000 0.573429
v -0.348605 0.010000 0.572167
v -0.350681 0.010000 0.570897
v -0.352752 0.010000 0.569619
v -0.354819 0.010000 0.568334
v -0.356881 0.010000 0.567042
v -0.358938 0.010000 0.565742
v -0.360990 0.010000 0.564434
v -0.363038 0.010000 0.563119
v -0.365081 0.010000 0.561797
v -0.367119 0.010000 0.560467
v -0.301819 0.000000 0.598168
v -0.301819 0.010000 0.598168
f 1 2 3
f 1 3 4
f 1 4 5
f 1 5 6
f 1 6 7
f 1 7 8
f 1 8 9
f 1 9 10
f 1 10 11
f 1 11 12
f 1 12 13
f 1 13 14
f 1 14 15
f 1 15 16
f 1 16 17
f 1 17 18
f 1 18 19
f 1 19 20
f 1 20 21
f 1 21 22
f 1 22 23
f 1 23 24
f 1 24 25
f 1 25 26
f 1 26 27
f 1 27 28
f 1 28 29
f 1 29 30
f 1 30 31
f 1 31 32
f 1 32 33
f 1 33 34
f 1 34 35
f 1 35 36
f 1 36 37
f 1 37 38
f 1 38 39
f 1 39 40
f 1 40 41
f 1 41 42
f 1 42 43
f 1 43 44
f 1 44 45
f 1 45 46
f 1 46 47
f 1 47 48
f 1 48 49
f 1 49 50
f 1 50 51
f 1 51 52
f 1 52 53
f 1 53 54
f 1 54 55
f 1 55 56
f 1 56 57
f 1 57 58
f 1 58 59
f 1 59 60
f 1 60 61
f 1 61 62
f 1 62 63
f 1 63 64
f 1 64 65
f 1 65 66
f 1 66 67
f 1 67 68
f 1 68 69
f 1 69 2
