v -0.543233 0.220000 0.484527
v -0.494723 0.220000 0.461907
v -0.483284 0.220000 0.464044
v -0.483284 0.010000 0.464044
v -0.494723 0.016837 0.461907
v -0.494604 0.016713 0.461851
v -0.494485 0.016588 0.461796
v -0.494366 0.016463 0.461740
v -0.494248 0.016338 0.461685
v -0.494129 0.016214 0.461629
v -0.494010 0.016089 0.461574
v -0.493891 0.015964 0.461518
v -0.493772 0.015839 0.461463
v -0.493653 0.015715 0.461408
v -0.493534 0.015590 0.461352
v -0.493415 0.015465 0.461297
v -0.493297 0.015341 0.461241
v -0.493178 0.015216 0.461186
v -0.493059 0.015092 0.461131
v -0.492940 0.014967 0.461075
v -0.492822 0.014842 0.461020
v -0.492703 0.014718 0.460964
v -0.492584 0.014593 0.460909
v -0.492465 0.014469 0.460854
v -0.492347 0.014344 0.460798
v -0.492228 0.014220 0.460743
v -0.492109 0.014096 0.460688
v -0.491991 0.013971 0.460632
v -0.491872 0.013847 0.460577
v -0.491754 0.013722 0.460522
v -0.491635 0.013598 0.460467
v -0.491516 0.013474 0.460411
v -0.491398 0.013349 0.460356
v -0.491279 0.013225 0.460301
v -0.491161 0.013101 0.460245
v -0.491042 0.012977 0.460190
v -0.490924 0.012852 0.460135
v -0.490805 0.012728 0.460080
v -0.490687 0.012604 0.460024
v -0.490568 0.012480 0.459969
v -0.490450 0.012356 0.459914
v -0.490332 0.012231 0.459859
v -0.490213 0.012107 0.459804
v -0.490095 0.011983 0.459748
v -0.489976 0.011859 0.459693
v -0.489858 0.011735 0.459638
v -0.489740 0.011611 0.459583
v -0.489621 0.011487 0.459528
v -0.489503 0.011363 0.459472
v -0.489385 0.011239 0.459417
v -0.489266 0.011115 0.459362
v -0.489148 0.010991 0.459307
v -0.489030 0.010867 0.459252
v -0.488912 0.010743 0.459197
v -0.488794 0.010619 0.459142
v -0.488675 0.010495 0.459086
v -0.488557 0.010371 0.459031
v -0.488439 0.010248 0.458976
v -0.488321 0.010124 0.458921
v -0.488203 0.010000 0.458866
v -0.488203 0.000000 0.458866
v -0.543233 0.000000 0.484527
f 62 1 2
f 62 2 3
f 3 4 5
f 62 3 5
f 62 5 6
f 62 6 7
f 62 7 8
f 62 8 9
f 62 9 10
f 62 10 11
f 62 11 12
f 62 12 13
f 62 13 14
f 62 14 15
f 62 15 16
f 62 16 17
f 62 17 18
f 62 18 19
f 62 19 20
f 62 20 21
f 62 21 22
f 62 22 23
f 62 23 24
f 62 24 25
f 62 25 26
f 62 26 27
f 62 27 28
f 62 28 29
f 62 29 30
f 62 30 31
f 62 31 32
f 62 32 33
f 62 33 34
f 62 34 35
f 62 35 36
f 62 36 37
f 62 37 38
f 62 38 39
f 62 39 40
f 62 40 41
f 62 41 42
f 62 42 43
f 62 43 44
f 62 44 45
f 62 45 46
f 62 46 47
f 62 47 48
f 62 48 49
f 62 49 50
f 62 50 51
f 62 51 52
f 62 52 53
f 62 53 54
f 62 54 55
f 62 55 56
f 62 56 57
f 62 57 58
f 62 58 59
f 62 59 60
f 60 61 62
