v 0.159571 0.002929 0.096644
v 0.152500 0.010000 0.096644
v 0.166642 0.000000 0.096644
v 0.165787 0.000000 0.096644
v 0.163231 0.000000 0.096644
v 0.159000 0.000000 0.096644
v 0.153137 0.000000 0.096644
v 0.145703 0.000000 0.096644
v 0.136774 0.000000 0.096644
v 0.126441 -0.000000 0.096644
v 0.114811 -0.000000 0.096644
v 0.102003 -0.000000 0.096644
v 0.088148 -0.000000 0.096644
v 0.073388 -0.000000 0.096644
v 0.057876 -0.000000 0.096644
v 0.041769 -0.000000 0.096644
v 0.025234 -0.000000 0.096644
v 0.008440 -0.000000 0.096644
v -0.008440 -0.000000 0.096644
v -0.025234 -0.000000 0.096644
v -0.041769 -0.000000 0.096644
v -0.057876 -0.000000 0.096644
v -0.073388 -0.000000 0.096644
v -0.088148 -0.000000 0.096644
v -0.102003 -0.000000 0.096644
v -0.114811 -0.000000 0.096644
v -0.126441 -0.000000 0.096644
v -0.136774 0.000000 0.096644
v -0.145703 0.000000 0.096644
v -0.153137 0.000000 0.096644
v -0.159000 0.000000 0.096644
v -0.163231 0.000000 0.096644
v -0.165787 0.000000 0.096644
v -0.166642 0.000000 0.096644
v -0.152500 0.010000 0.096644
v -0.159571 0.002929 0.096644
v -0.166642 0.000000 0.096644
v -0.165787 0.000000 0.096644
v -0.163231 0.000000 0.096644
v -0.159000 0.000000 0.096644
v -0.153137 0.000000 0.096644
v -0.145703 0.000000 0.096644
v -0.136774 0.000000 0.096644
v -0.126441 -0.000000 0.096644
v -0.114811 -0.000000 0.096644
v -0.102003 -0.000000 0.096644
v -0.088148 -0.000000 0.096644
v -0.073388 -0.000000 0.096644
v -0.057876 -0.000000 0.096644
v -0.041769 -0.000000 0.096644
v -0.025234 -0.000000 0.096644
v -0.008440 -0.000000 0.096644
v 0.008440 -0.000000 0.096644
v 0.025234 -0.000000 0.096644
v 0.041769 -0.000000 0.096644
v 0.057876 -0.000000 0.096644
v 0.073388 -0.000000 0.096644
v 0.088148 -0.000000 0.096644
v 0.102003 -0.000000 0.096644
v 0.114811 -0.000000 0.096644
v 0.126441 -0.000000 0.096644
v 0.136774 0.000000 0.096644
v 0.145703 0.000000 0.096644
v 0.153137 0.000000 0.096644
v 0.159000 0.000000 0.096644
v 0.163231 0.000000 0.096644
v 0.165787 0.000000 0.096644
v 0.166642 0.000000 0.096644
f 68 2 1
f 35 37 36
