v -3.387234 -0.576643 -4.447626
v -3.387500 -0.558032 -4.437000
v -3.387184 -0.577574 -4.448591
v -3.387498 -0.559893 -4.437966
v -3.387498 -0.560824 -4.437966
v -3.387498 -0.561754 -4.437966
v -3.387491 -0.561754 -4.438933
v -3.387498 -0.562685 -4.437966
v -3.387491 -0.562685 -4.438933
v -3.387498 -0.563616 -4.437966
v -3.387491 -0.563616 -4.438933
v -3.387480 -0.563616 -4.439899
v -3.387498 -0.564546 -4.437966
v -3.387491 -0.564546 -4.438933
v -3.387480 -0.564546 -4.439899
v -3.387498 -0.565477 -4.437966
v -3.387480 -0.565477 -4.439899
v -3.387465 -0.565477 -4.440865
v -3.387498 -0.566407 -4.437966
v -3.387465 -0.566407 -4.440865
v -3.387445 -0.566407 -4.441831
v -3.387498 -0.567338 -4.437966
v -3.387465 -0.567338 -4.440865
v -3.387445 -0.567338 -4.441831
v -3.387498 -0.568268 -4.437966
v -3.387445 -0.568268 -4.441831
v -3.387421 -0.568268 -4.442798
v -3.387498 -0.569199 -4.437966
v -3.387445 -0.569199 -4.441831
v -3.387421 -0.569199 -4.442798
v -3.387498 -0.570129 -4.437966
v -3.387421 -0.570129 -4.442798
v -3.387392 -0.570129 -4.443763
v -3.387498 -0.571060 -4.437966
v -3.387421 -0.571060 -4.442798
v -3.387392 -0.571060 -4.443763
v -3.387498 -0.571991 -4.437966
v -3.387392 -0.571991 -4.443763
v -3.387359 -0.571991 -4.444729
v -3.387498 -0.572921 -4.437966
v -3.387359 -0.572921 -4.444729
v -3.387322 -0.572921 -4.445695
v -3.387498 -0.573852 -4.437966
v -3.387359 -0.573852 -4.444729
v -3.387322 -0.573852 -4.445695
v -3.387498 -0.574782 -4.437966
v -3.387322 -0.574782 -4.445695
v -3.387280 -0.574782 -4.446660
v -3.387498 -0.575713 -4.437966
v -3.387322 -0.575713 -4.445695
v -3.387280 -0.575713 -4.446660
v -3.387498 -0.576643 -4.437966
v -3.387280 -0.576643 -4.446660
v -3.387491 -0.565477 -4.438933
v -3.387480 -0.566407 -4.439899
v -3.387480 -0.567338 -4.439899
v -3.387465 -0.568268 -4.440865
v -3.387465 -0.569199 -4.440865
v -3.387445 -0.570129 -4.441831
v -3.387445 -0.571060 -4.441831
v -3.387421 -0.571991 -4.442798
v -3.387392 -0.572921 -4.443763
v -3.387392 -0.573852 -4.443763
v -3.387359 -0.574782 -4.444729
v -3.387359 -0.575713 -4.444729
v -3.387322 -0.576643 -4.445695
v -3.387491 -0.566407 -4.438933
v -3.387491 -0.567338 -4.438933
v -3.387480 -0.568268 -4.439899
v -3.387480 -0.569199 -4.439899
v -3.387465 -0.570129 -4.440865
v -3.387465 -0.571060 -4.440865
v -3.387445 -0.571991 -4.441831
v -3.387421 -0.572921 -4.442798
v -3.387421 -0.573852 -4.442798
v -3.387392 -0.574782 -4.443763
v -3.387392 -0.575713 -4.443763
v -3.387359 -0.576643 -4.444729
v -3.387491 -0.568268 -4.438933
v -3.387491 -0.569199 -4.438933
v -3.387480 -0.570129 -4.439899
v -3.387480 -0.571060 -4.439899
v -3.387465 -0.571991 -4.440865
v -3.387445 -0.572921 -4.441831
v -3.387445 -0.573852 -4.441831
v -3.387421 -0.574782 -4.442798
v -3.387421 -0.575713 -4.442798
v -3.387392 -0.576643 -4.443763
v -3.387491 -0.570129 -4.438933
v -3.387491 -0.571060 -4.438933
v -3.387480 -0.571991 -4.439899
v -3.387465 -0.572921 -4.440865
v -3.387465 -0.573852 -4.440865
v -3.387445 -0.574782 -4.441831
v -3.387445 -0.575713 -4.441831
v -3.387421 -0.576643 -4.442798
v -3.387491 -0.571991 -4.438933
v -3.387480 -0.572921 -4.439899
v -3.387480 -0.573852 -4.439899
v -3.387465 -0.574782 -4.440865
v -3.387465 -0.575713 -4.440865
v -3.387445 -0.576643 -4.441831
v -3.387491 -0.572921 -4.438933
v -3.387491 -0.573852 -4.438933
v -3.387480 -0.574782 -4.439899
v -3.387480 -0.575713 -4.439899
v -3.387465 -0.576643 -4.440865
v -3.387491 -0.574782 -4.438933
v -3.387491 -0.575713 -4.438933
v -3.387480 -0.576643 -4.439899
v -3.387491 -0.576643 -4.438933
v -3.387500 -0.300000 -4.437000
v -3.386410 -0.300000 -4.458498
v -2.963590 -0.300000 -4.458498
v -2.962500 -0.300000 -4.437000
v -2.962500 -0.558032 -4.437000
v -2.962817 -0.577585 -4.448598
v -2.963774 -0.596338 -4.460237
v -2.965383 -0.614313 -4.471888
v -2.967654 -0.631531 -4.483519
v -2.970596 -0.648007 -4.495095
v -2.974210 -0.663739 -4.506570
v -2.978497 -0.678719 -4.517895
v -2.983459 -0.692938 -4.529021
v -2.989086 -0.706390 -4.539896
v -2.995345 -0.719062 -4.550462
v -3.002199 -0.730941 -4.560660
v -3.009611 -0.742015 -4.570431
v -3.017551 -0.752284 -4.579729
v -3.025999 -0.761772 -4.588532
v -3.034940 -0.770507 -4.596824
v -3.044355 -0.778517 -4.604588
v -3.054211 -0.785821 -4.611804
v -3.064442 -0.792423 -4.618442
v -3.074981 -0.798326 -4.624472
v -3.085760 -0.803531 -4.629865
v -3.096754 -0.808050 -4.634606
v -3.108004 -0.811909 -4.638700
v -3.119553 -0.815133 -4.642155
v -3.131443 -0.817747 -4.644977
v -3.143658 -0.819751 -4.647153
v -3.156113 -0.821116 -4.648642
v -3.168714 -0.821812 -4.649404
v -3.181373 -0.821809 -4.649400
v -3.193993 -0.821105 -4.648630
v -3.206477 -0.819730 -4.647130
v -3.218727 -0.817713 -4.644941
v -3.230648 -0.815082 -4.642101
v -3.242221 -0.811839 -4.638625
v -3.253486 -0.807959 -4.634510
v -3.264485 -0.803422 -4.629751
v -3.275257 -0.798203 -4.624346
v -3.285779 -0.792293 -4.618309
v -3.295989 -0.785685 -4.611668
v -3.305823 -0.778375 -4.604450
v -3.315220 -0.770358 -4.596682
v -3.324146 -0.761615 -4.588386
v -3.332580 -0.752122 -4.579581
v -3.340505 -0.741854 -4.570287
v -3.347899 -0.730787 -4.560526
v -3.354733 -0.718923 -4.550344
v -3.360971 -0.706269 -4.539796
v -3.366580 -0.692836 -4.528939
v -3.371529 -0.678633 -4.517829
v -3.375807 -0.663667 -4.506517
v -3.379415 -0.647948 -4.495053
v -3.382353 -0.631484 -4.483486
v -3.384621 -0.614278 -4.471865
v -3.386227 -0.596315 -4.460223
v -3.380259 -0.352181 -4.491999
v -2.990970 -0.352181 -4.543250
v -2.969741 -0.352181 -4.491999
v -3.380259 -0.404362 -4.491999
v -2.990970 -0.404362 -4.543250
v -2.969741 -0.404362 -4.491999
v -3.380259 -0.456544 -4.491999
v -2.990970 -0.456544 -4.543250
v -2.969741 -0.456544 -4.491999
v -3.380259 -0.508725 -4.491999
v -2.990970 -0.508725 -4.543250
v -2.969741 -0.508725 -4.491999
v -3.380259 -0.560906 -4.491999
v -2.990970 -0.560906 -4.543250
v -2.969741 -0.560906 -4.491999
v -3.380259 -0.613087 -4.491999
v -2.990970 -0.613087 -4.543250
v -2.969741 -0.613087 -4.491999
v -3.359030 -0.665269 -4.543250
v -3.024740 -0.665269 -4.587260
v -2.990970 -0.665269 -4.543250
v -3.325260 -0.717450 -4.587260
v -3.068750 -0.717450 -4.621030
v -3.024740 -0.717450 -4.587260
v -3.281250 -0.769631 -4.621030
v -3.383150 -0.300000 -4.479776
v -2.966850 -0.300000 -4.479776
v -3.024740 -0.352181 -4.587260
v -3.024740 -0.404362 -4.587260
v -3.024740 -0.456544 -4.587260
v -3.024740 -0.508725 -4.587260
v -3.024740 -0.560906 -4.587260
v -3.024740 -0.613087 -4.587260
v -3.068750 -0.665269 -4.621030
v -3.120001 -0.717450 -4.642259
v -3.377755 -0.300000 -4.500615
v -2.972245 -0.300000 -4.500615
v -3.068750 -0.352181 -4.621030
v -3.068750 -0.404362 -4.621030
v -3.068750 -0.456544 -4.621030
v -3.068750 -0.508725 -4.621030
v -3.068750 -0.560906 -4.621030
v -3.068750 -0.613087 -4.621030
v -3.120001 -0.665269 -4.642259
v -3.175000 -0.717450 -4.649500
v -3.370279 -0.300000 -4.520801
v -2.979721 -0.300000 -4.520801
v -3.120001 -0.352181 -4.642259
v -3.120001 -0.404362 -4.642259
v -3.120001 -0.456544 -4.642259
v -3.120001 -0.508725 -4.642259
v -3.120001 -0.560906 -4.642259
v -3.120001 -0.613087 -4.642259
v -3.175000 -0.665269 -4.649500
v -3.229999 -0.717450 -4.642259
v -2.989201 -0.300000 -4.540127
v -3.175000 -0.352181 -4.649500
v -3.175000 -0.404362 -4.649500
v -3.175000 -0.456544 -4.649500
v -3.175000 -0.508725 -4.649500
v -3.175000 -0.560906 -4.649500
v -3.175000 -0.613087 -4.649500
v -3.229999 -0.665269 -4.642259
v -3.281250 -0.717450 -4.621030
v -3.000588 -0.300000 -4.558394
v -3.229999 -0.352181 -4.642259
v -3.229999 -0.404362 -4.642259
v -3.229999 -0.456544 -4.642259
v -3.229999 -0.508725 -4.642259
v -3.229999 -0.560906 -4.642259
v -3.229999 -0.613087 -4.642259
v -3.281250 -0.665269 -4.621030
v -3.013764 -0.300000 -4.575417
v -3.281250 -0.352181 -4.621030
v -3.281250 -0.404362 -4.621030
v -3.281250 -0.456544 -4.621030
v -3.281250 -0.508725 -4.621030
v -3.281250 -0.560906 -4.621030
v -3.281250 -0.613087 -4.621030
v -3.325260 -0.665269 -4.587260
v -3.028595 -0.300000 -4.591018
v -3.325260 -0.352181 -4.587260
v -3.325260 -0.404362 -4.587260
v -3.325260 -0.456544 -4.587260
v -3.325260 -0.508725 -4.587260
v -3.325260 -0.560906 -4.587260
v -3.325260 -0.613087 -4.587260
v -3.044927 -0.300000 -4.605040
v -3.359030 -0.352181 -4.543250
v -3.359030 -0.404362 -4.543250
v -3.359030 -0.456544 -4.543250
v -3.359030 -0.508725 -4.543250
v -3.359030 -0.560906 -4.543250
v -3.359030 -0.613087 -4.543250
v -3.062595 -0.300000 -4.617337
v -3.081416 -0.300000 -4.627783
v -3.360799 -0.300000 -4.540127
v -3.101198 -0.300000 -4.636272
v -3.349412 -0.300000 -4.558394
v -3.121736 -0.300000 -4.642716
v -3.336236 -0.300000 -4.575417
v -3.142822 -0.300000 -4.647050
v -3.068750 -0.769631 -4.621030
v -3.164237 -0.300000 -4.649227
v -3.321405 -0.300000 -4.591018
v -3.185763 -0.300000 -4.649227
v -3.305073 -0.300000 -4.605040
v -3.207178 -0.300000 -4.647050
v -3.287405 -0.300000 -4.617337
v -3.228264 -0.300000 -4.642716
v -3.268584 -0.300000 -4.627783
v -3.248802 -0.300000 -4.636272
v -3.229999 -0.769631 -4.642259
v -3.120001 -0.769631 -4.642259
v -3.175000 -0.769631 -4.649500
v -3.202737 -0.378272 -4.647682
v -3.175000 -0.378272 -4.649500
v -3.229999 -0.378272 -4.642259
v -3.256320 -0.378272 -4.633324
v -3.281250 -0.378272 -4.621030
v -3.304362 -0.378272 -4.605588
v -3.325260 -0.378272 -4.587260
v -3.343588 -0.378272 -4.566362
v -3.359030 -0.378272 -4.543250
v -3.202737 -0.430453 -4.647682
v -3.175000 -0.430453 -4.649500
v -3.229999 -0.430453 -4.642259
v -3.256320 -0.430453 -4.633324
v -3.281250 -0.430453 -4.621030
v -3.304362 -0.430453 -4.605588
v -3.325260 -0.430453 -4.587260
v -3.343588 -0.430453 -4.566362
v -3.359030 -0.430453 -4.543250
v -3.202737 -0.482634 -4.647682
v -3.175000 -0.482634 -4.649500
v -3.229999 -0.482634 -4.642259
v -3.256320 -0.482634 -4.633324
v -3.281250 -0.482634 -4.621030
v -3.304362 -0.482634 -4.605588
v -3.325260 -0.482634 -4.587260
v -3.343588 -0.482634 -4.566362
v -3.359030 -0.482634 -4.543250
v -3.202737 -0.534816 -4.647682
v -3.175000 -0.534816 -4.649500
v -3.229999 -0.534816 -4.642259
v -3.256320 -0.534816 -4.633324
v -3.281250 -0.534816 -4.621030
v -3.304362 -0.534816 -4.605588
v -3.325260 -0.534816 -4.587260
v -3.343588 -0.534816 -4.566362
v -3.359030 -0.534816 -4.543250
v -3.202737 -0.586997 -4.647682
v -3.175000 -0.586997 -4.649500
v -3.229999 -0.586997 -4.642259
v -3.256320 -0.586997 -4.633324
v -3.281250 -0.586997 -4.621030
v -3.304362 -0.586997 -4.605588
v -3.325260 -0.586997 -4.587260
v -3.343588 -0.586997 -4.566362
v -3.359030 -0.586997 -4.543250
v -3.175000 -0.639178 -4.649500
v -3.147263 -0.639178 -4.647682
v -3.202737 -0.639178 -4.647682
v -3.229999 -0.639178 -4.642259
v -3.256320 -0.639178 -4.633324
v -3.281250 -0.639178 -4.621030
v -3.304362 -0.639178 -4.605588
v -3.325260 -0.639178 -4.587260
v -3.175000 -0.691359 -4.649500
v -3.147263 -0.691359 -4.647682
v -3.202737 -0.691359 -4.647682
v -3.229999 -0.691359 -4.642259
v -3.256320 -0.691359 -4.633324
v -3.281250 -0.691359 -4.621030
v -3.175000 -0.743541 -4.649500
v -3.147263 -0.743541 -4.647682
v -3.202737 -0.743541 -4.647682
v -3.229999 -0.743541 -4.642259
v -3.081014 -0.365227 -4.627585
v -3.093680 -0.365227 -4.633324
v -3.056941 -0.365227 -4.613687
v -3.045638 -0.365227 -4.605588
v -3.315111 -0.391317 -4.596766
v -3.304362 -0.391317 -4.605588
v -3.325260 -0.391317 -4.587260
v -3.334766 -0.391317 -4.577111
v -3.343588 -0.391317 -4.566362
v -3.351687 -0.391317 -4.555059
v -3.359030 -0.391317 -4.543250
v -3.081014 -0.417408 -4.627585
v -3.093680 -0.417408 -4.633324
v -3.056941 -0.417408 -4.613687
v -3.045638 -0.417408 -4.605588
v -3.315111 -0.443498 -4.596766
v -3.304362 -0.443498 -4.605588
v -3.325260 -0.443498 -4.587260
v -3.334766 -0.443498 -4.577111
v -3.343588 -0.443498 -4.566362
v -3.351687 -0.443498 -4.555059
v -3.359030 -0.443498 -4.543250
v -3.081014 -0.469589 -4.627585
v -3.093680 -0.469589 -4.633324
v -3.056941 -0.469589 -4.613687
v -3.045638 -0.469589 -4.605588
v -3.315111 -0.495680 -4.596766
v -3.304362 -0.495680 -4.605588
v -3.325260 -0.495680 -4.587260
v -3.334766 -0.495680 -4.577111
v -3.343588 -0.495680 -4.566362
v -3.351687 -0.495680 -4.555059
v -3.359030 -0.495680 -4.543250
v -3.081014 -0.521770 -4.627585
v -3.093680 -0.521770 -4.633324
v -3.056941 -0.521770 -4.613687
v -3.045638 -0.521770 -4.605588
v -3.315111 -0.547861 -4.596766
v -3.304362 -0.547861 -4.605588
v -3.325260 -0.547861 -4.587260
v -3.334766 -0.547861 -4.577111
v -3.343588 -0.547861 -4.566362
v -3.351687 -0.547861 -4.555059
v -3.359030 -0.547861 -4.543250
v -3.081014 -0.573951 -4.627585
v -3.093680 -0.573951 -4.633324
v -3.056941 -0.573951 -4.613687
v -3.045638 -0.573951 -4.605588
v -3.315111 -0.600042 -4.596766
v -3.304362 -0.600042 -4.605588
v -3.325260 -0.600042 -4.587260
v -3.334766 -0.600042 -4.577111
v -3.343588 -0.600042 -4.566362
v -3.351687 -0.600042 -4.555059
v -3.359030 -0.600042 -4.543250
v -3.068750 -0.626133 -4.621030
v -3.081014 -0.626133 -4.627585
v -3.045638 -0.626133 -4.605588
v -3.034889 -0.626133 -4.596766
v -3.281250 -0.652223 -4.621030
v -3.268986 -0.652223 -4.627585
v -3.293059 -0.652223 -4.613687
v -3.304362 -0.652223 -4.605588
v -3.315111 -0.652223 -4.596766
v -3.325260 -0.652223 -4.587260
v -3.093680 -0.678314 -4.633324
v -3.106694 -0.678314 -4.638223
v -3.068750 -0.678314 -4.621030
v -3.056941 -0.678314 -4.613687
v -3.256320 -0.704405 -4.633324
v -3.243306 -0.704405 -4.638223
v -3.268986 -0.704405 -4.627585
v -3.281250 -0.704405 -4.621030
v -3.120001 -0.730495 -4.642259
v -3.133543 -0.730495 -4.645417
v -3.093680 -0.730495 -4.633324
v -3.081014 -0.730495 -4.627585
v -3.229999 -0.756586 -4.642259
v -3.216457 -0.756586 -4.645417
v -3.120001 -0.365227 -4.642259
v -3.133543 -0.365227 -4.645417
v -3.120001 -0.417408 -4.642259
v -3.133543 -0.417408 -4.645417
v -3.120001 -0.469589 -4.642259
v -3.133543 -0.469589 -4.645417
v -3.120001 -0.521770 -4.642259
v -3.133543 -0.521770 -4.645417
v -3.120001 -0.573951 -4.642259
v -3.133543 -0.573951 -4.645417
v -3.106694 -0.626133 -4.638223
v -3.120001 -0.626133 -4.642259
v -3.133543 -0.678314 -4.645417
v -3.147263 -0.678314 -4.647682
v -3.175000 -0.730495 -4.649500
v -3.161102 -0.365227 -4.649045
v -3.175000 -0.365227 -4.649500
v -3.161102 -0.417408 -4.649045
v -3.175000 -0.417408 -4.649500
v -3.161102 -0.469589 -4.649045
v -3.175000 -0.469589 -4.649500
v -3.161102 -0.521770 -4.649045
v -3.175000 -0.521770 -4.649500
v -3.161102 -0.573951 -4.649045
v -3.175000 -0.573951 -4.649500
v -3.147263 -0.626133 -4.647682
v -3.161102 -0.626133 -4.649045
v -3.175000 -0.678314 -4.649500
v -3.188898 -0.678314 -4.649045
v -3.202737 -0.365227 -4.647682
v -3.216457 -0.365227 -4.645417
v -3.202737 -0.417408 -4.647682
v -3.216457 -0.417408 -4.645417
v -3.202737 -0.469589 -4.647682
v -3.216457 -0.469589 -4.645417
v -3.202737 -0.521770 -4.647682
v -3.216457 -0.521770 -4.645417
v -3.202737 -0.573951 -4.647682
v -3.216457 -0.573951 -4.645417
v -3.188898 -0.626133 -4.649045
v -3.202737 -0.626133 -4.647682
v -3.229999 -0.678314 -4.642259
v -3.243306 -0.365227 -4.638223
v -3.256320 -0.365227 -4.633324
v -3.243306 -0.417408 -4.638223
v -3.256320 -0.417408 -4.633324
v -3.243306 -0.469589 -4.638223
v -3.256320 -0.469589 -4.633324
v -3.243306 -0.521770 -4.638223
v -3.256320 -0.521770 -4.633324
v -3.243306 -0.573951 -4.638223
v -3.256320 -0.573951 -4.633324
v -3.229999 -0.626133 -4.642259
v -3.243306 -0.626133 -4.638223
v -3.281250 -0.365227 -4.621030
v -3.293059 -0.365227 -4.613687
v -3.281250 -0.417408 -4.621030
v -3.293059 -0.417408 -4.613687
v -3.281250 -0.469589 -4.621030
v -3.293059 -0.469589 -4.613687
v -3.281250 -0.521770 -4.621030
v -3.293059 -0.521770 -4.613687
v -3.281250 -0.573951 -4.621030
v -3.293059 -0.573951 -4.613687
v -3.281250 -0.626133 -4.621030
v -3.325260 -0.365227 -4.587260
v -3.325260 -0.417408 -4.587260
v -3.325260 -0.469589 -4.587260
v -3.325260 -0.521770 -4.587260
v -3.325260 -0.573951 -4.587260
f 1 2 3
f 3 4 5
f 6 7 8
f 8 9 10
f 11 12 13
f 14 15 16
f 17 18 19
f 20 21 22
f 23 24 25
f 26 27 28
f 29 30 31
f 32 33 34
f 35 36 37
f 38 39 40
f 41 42 43
f 44 45 46
f 47 48 49
f 50 51 52
f 53 1 3
f 3 5 6
f 10 11 13
f 13 14 16
f 54 17 19
f 55 20 22
f 56 23 25
f 57 26 28
f 58 29 31
f 59 32 34
f 60 35 37
f 61 38 40
f 62 41 43
f 63 44 46
f 64 47 49
f 65 50 52
f 66 53 3
f 3 6 8
f 16 54 19
f 67 55 22
f 68 56 25
f 69 57 28
f 70 58 31
f 71 59 34
f 72 60 37
f 73 61 40
f 74 62 43
f 75 63 46
f 76 64 49
f 77 65 52
f 78 66 3
f 3 8 10
f 19 67 22
f 22 68 25
f 79 69 28
f 80 70 31
f 81 71 34
f 82 72 37
f 83 73 40
f 84 74 43
f 85 75 46
f 86 76 49
f 87 77 52
f 88 78 3
f 3 10 13
f 25 79 28
f 28 80 31
f 89 81 34
f 90 82 37
f 91 83 40
f 92 84 43
f 93 85 46
f 94 86 49
f 95 87 52
f 96 88 3
f 3 13 16
f 31 89 34
f 34 90 37
f 97 91 40
f 98 92 43
f 99 93 46
f 100 94 49
f 101 95 52
f 102 96 3
f 3 16 19
f 37 97 40
f 103 98 43
f 104 99 46
f 105 100 49
f 106 101 52
f 107 102 3
f 3 19 22
f 40 103 43
f 43 104 46
f 108 105 49
f 109 106 52
f 110 107 3
f 3 22 25
f 46 108 49
f 49 109 52
f 111 110 3
f 3 25 28
f 52 111 3
f 3 28 31
f 3 31 34
f 49 52 3
f 3 34 37
f 46 49 3
f 3 37 40
f 43 46 3
f 3 40 43
f 2 112 113
f 114 115 116
f 116 117 118
f 118 119 120
f 120 121 122
f 122 123 124
f 124 125 126
f 126 127 128
f 128 129 130
f 130 131 132
f 132 133 134
f 134 135 136
f 136 137 138
f 138 139 140
f 140 141 142
f 142 143 144
f 144 145 146
f 146 147 148
f 148 149 150
f 150 151 152
f 152 153 154
f 154 155 156
f 156 157 158
f 158 159 160
f 160 161 162
f 162 163 164
f 164 165 166
f 166 167 168
f 169 3 170
f 172 351 286
f 285 350 351
f 351 172 350
f 286 353 352
f 353 173 352
f 286 352 285
f 172 350 348
f 350 285 348
f 172 348 171
f 175 362 295
f 294 361 362
f 362 175 361
f 295 364 363
f 364 176 363
f 295 363 294
f 175 361 359
f 361 294 359
f 175 359 174
f 178 373 304
f 303 372 373
f 373 178 372
f 304 375 374
f 375 179 374
f 304 374 303
f 178 372 370
f 372 303 370
f 178 370 177
f 181 384 313
f 312 383 384
f 384 181 383
f 313 386 385
f 386 182 385
f 313 385 312
f 181 383 381
f 383 312 381
f 181 381 180
f 184 395 322
f 321 394 395
f 395 184 394
f 322 397 396
f 397 185 396
f 322 396 321
f 184 394 392
f 394 321 392
f 184 392 183
f 187 406 331
f 330 405 406
f 406 187 405
f 331 408 407
f 408 188 407
f 331 407 330
f 187 405 403
f 405 330 403
f 187 403 186
f 190 416 339
f 338 415 416
f 416 190 415
f 339 418 417
f 418 191 417
f 339 417 338
f 190 415 413
f 415 338 413
f 190 413 189
f 193 424 345
f 344 423 424
f 424 193 423
f 345 426 425
f 426 194 425
f 345 425 344
f 193 423 421
f 423 344 421
f 193 421 192
f 2 113 195
f 196 114 116
f 116 118 120
f 120 122 124
f 124 126 128
f 128 130 132
f 132 134 136
f 136 138 140
f 140 142 144
f 144 146 148
f 148 150 152
f 152 154 156
f 156 158 160
f 160 162 164
f 164 166 168
f 168 169 170
f 171 348 285
f 287 349 348
f 348 171 349
f 285 352 354
f 352 173 354
f 285 354 287
f 171 349 427
f 349 287 427
f 171 427 197
f 174 359 294
f 296 360 359
f 359 174 360
f 294 363 365
f 363 176 365
f 294 365 296
f 174 360 429
f 360 296 429
f 174 429 198
f 177 370 303
f 305 371 370
f 370 177 371
f 303 374 376
f 374 179 376
f 303 376 305
f 177 371 431
f 371 305 431
f 177 431 199
f 180 381 312
f 314 382 381
f 381 180 382
f 312 385 387
f 385 182 387
f 312 387 314
f 180 382 433
f 382 314 433
f 180 433 200
f 183 392 321
f 323 393 392
f 392 183 393
f 321 396 398
f 396 185 398
f 321 398 323
f 183 393 435
f 393 323 435
f 183 435 201
f 186 403 330
f 332 404 403
f 403 186 404
f 330 407 409
f 407 188 409
f 330 409 332
f 186 404 437
f 404 332 437
f 186 437 202
f 189 413 338
f 340 414 413
f 413 189 414
f 338 417 419
f 417 191 419
f 338 419 340
f 189 414 439
f 414 340 439
f 189 439 203
f 192 421 344
f 346 422 421
f 421 192 422
f 344 425 346
f 425 194 346
f 192 422 204
f 422 346 204
f 2 195 205
f 206 196 116
f 116 120 124
f 124 128 132
f 132 136 140
f 140 144 148
f 148 152 156
f 156 160 164
f 197 427 287
f 288 428 427
f 427 197 428
f 287 354 355
f 354 173 355
f 287 355 288
f 197 428 442
f 428 288 442
f 197 442 207
f 198 429 296
f 297 430 429
f 429 198 430
f 296 365 366
f 365 176 366
f 296 366 297
f 198 430 444
f 430 297 444
f 198 444 208
f 199 431 305
f 306 432 431
f 431 199 432
f 305 376 377
f 376 179 377
f 305 377 306
f 199 432 446
f 432 306 446
f 199 446 209
f 200 433 314
f 315 434 433
f 433 200 434
f 314 387 388
f 387 182 388
f 314 388 315
f 200 434 448
f 434 315 448
f 200 448 210
f 201 435 323
f 324 436 435
f 435 201 436
f 323 398 399
f 398 185 399
f 323 399 324
f 201 436 450
f 436 324 450
f 201 450 211
f 202 437 332
f 333 438 437
f 437 202 438
f 332 409 410
f 409 188 410
f 332 410 333
f 202 438 452
f 438 333 452
f 202 452 212
f 203 439 340
f 341 440 439
f 439 203 440
f 340 419 420
f 419 191 420
f 340 420 341
f 203 440 454
f 440 341 454
f 203 454 213
f 347 441 346
f 441 204 346
f 346 194 347
f 204 441 214
f 441 347 214
f 2 205 215
f 216 206 116
f 116 124 132
f 132 140 148
f 148 156 164
f 207 442 288
f 289 443 442
f 442 207 443
f 288 355 356
f 355 173 356
f 288 356 289
f 207 443 456
f 443 289 456
f 207 456 217
f 208 444 297
f 298 445 444
f 444 208 445
f 297 366 367
f 366 176 367
f 297 367 298
f 208 445 458
f 445 298 458
f 208 458 218
f 209 446 306
f 307 447 446
f 446 209 447
f 306 377 378
f 377 179 378
f 306 378 307
f 209 447 460
f 447 307 460
f 209 460 219
f 210 448 315
f 316 449 448
f 448 210 449
f 315 388 389
f 388 182 389
f 315 389 316
f 210 449 462
f 449 316 462
f 210 462 220
f 211 450 324
f 325 451 450
f 450 211 451
f 324 399 400
f 399 185 400
f 324 400 325
f 211 451 464
f 451 325 464
f 211 464 221
f 212 452 333
f 334 453 452
f 452 212 453
f 333 410 411
f 410 188 411
f 333 411 334
f 212 453 466
f 453 334 466
f 212 466 222
f 213 454 341
f 342 455 454
f 454 213 455
f 341 420 342
f 420 191 342
f 213 455 223
f 455 342 223
f 214 347 224
f 347 194 224
f 225 216 116
f 217 456 289
f 290 457 456
f 456 217 457
f 289 356 357
f 356 173 357
f 289 357 290
f 217 457 469
f 457 290 469
f 217 469 226
f 218 458 298
f 299 459 458
f 458 218 459
f 298 367 368
f 367 176 368
f 298 368 299
f 218 459 471
f 459 299 471
f 218 471 227
f 219 460 307
f 308 461 460
f 460 219 461
f 307 378 379
f 378 179 379
f 307 379 308
f 219 461 473
f 461 308 473
f 219 473 228
f 220 462 316
f 317 463 462
f 462 220 463
f 316 389 390
f 389 182 390
f 316 390 317
f 220 463 475
f 463 317 475
f 220 475 229
f 221 464 325
f 326 465 464
f 464 221 465
f 325 400 401
f 400 185 401
f 325 401 326
f 221 465 477
f 465 326 477
f 221 477 230
f 222 466 334
f 335 467 466
f 466 222 467
f 334 411 412
f 411 188 412
f 334 412 335
f 222 467 479
f 467 335 479
f 222 479 231
f 343 468 342
f 468 223 342
f 342 191 343
f 223 468 232
f 468 343 232
f 233 224 194
f 234 225 116
f 226 469 290
f 291 470 469
f 469 226 470
f 290 357 358
f 357 173 358
f 290 358 291
f 226 470 481
f 470 291 481
f 226 481 235
f 227 471 299
f 300 472 471
f 471 227 472
f 299 368 369
f 368 176 369
f 299 369 300
f 227 472 483
f 472 300 483
f 227 483 236
f 228 473 308
f 309 474 473
f 473 228 474
f 308 379 380
f 379 179 380
f 308 380 309
f 228 474 485
f 474 309 485
f 228 485 237
f 229 475 317
f 318 476 475
f 475 229 476
f 317 390 391
f 390 182 391
f 317 391 318
f 229 476 487
f 476 318 487
f 229 487 238
f 230 477 326
f 327 478 477
f 477 230 478
f 326 401 402
f 401 185 402
f 326 402 327
f 230 478 489
f 478 327 489
f 230 489 239
f 231 479 335
f 336 480 479
f 479 231 480
f 335 412 336
f 412 188 336
f 231 480 240
f 480 336 240
f 232 343 241
f 343 191 241
f 191 233 194
f 242 234 116
f 235 481 291
f 292 482 481
f 481 235 482
f 291 358 292
f 358 173 292
f 235 482 243
f 482 292 243
f 236 483 300
f 301 484 483
f 483 236 484
f 300 369 301
f 369 176 301
f 236 484 244
f 484 301 244
f 237 485 309
f 310 486 485
f 485 237 486
f 309 380 310
f 380 179 310
f 237 486 245
f 486 310 245
f 238 487 318
f 319 488 487
f 487 238 488
f 318 391 319
f 391 182 319
f 238 488 246
f 488 319 246
f 239 489 327
f 328 490 489
f 489 239 490
f 327 402 328
f 402 185 328
f 239 490 247
f 490 328 247
f 337 491 336
f 491 240 336
f 336 188 337
f 240 491 248
f 491 337 248
f 249 241 191
f 250 242 116
f 293 492 292
f 492 243 292
f 292 173 293
f 243 492 251
f 492 293 251
f 302 493 301
f 493 244 301
f 301 176 302
f 244 493 252
f 493 302 252
f 311 494 310
f 494 245 310
f 310 179 311
f 245 494 253
f 494 311 253
f 320 495 319
f 495 246 319
f 319 182 320
f 246 495 254
f 495 320 254
f 329 496 328
f 496 247 328
f 328 185 329
f 247 496 255
f 496 329 255
f 248 337 256
f 337 188 256
f 188 249 191
f 257 250 116
f 251 293 258
f 293 173 258
f 252 302 259
f 302 176 259
f 253 311 260
f 311 179 260
f 254 320 261
f 320 182 261
f 255 329 262
f 329 185 262
f 263 256 188
f 264 257 116
f 170 258 173
f 173 259 176
f 176 260 179
f 179 261 182
f 182 262 185
f 185 263 188
f 265 264 116
f 168 170 173
f 2 215 266
f 267 265 116
f 168 173 176
f 2 266 268
f 269 267 116
f 168 176 179
f 2 268 270
f 271 269 116
f 168 179 182
f 272 2 270
f 273 271 116
f 168 182 185
f 272 270 274
f 275 273 116
f 164 168 185
f 272 274 276
f 277 275 116
f 185 188 164
f 188 191 164
f 272 276 278
f 279 277 116
f 164 191 194
f 272 278 280
f 281 279 116
f 148 164 194
f 272 280 281
f 281 116 132
f 132 148 194
f 272 281 132
f 132 194 282
f 283 272 132
f 132 282 284
f 284 283 132
