v 0.070653 -0.626026 -1.084841
v 0.070653 -0.626026 -1.061000
v 0.066190 -0.490555 -1.061000
v 0.066190 -0.490555 -1.120893
v 0.066270 -0.493008 -1.120241
v 0.066351 -0.495462 -1.119588
v 0.066432 -0.497916 -1.118935
v 0.066513 -0.500371 -1.118283
v 0.066594 -0.502825 -1.117630
v 0.066675 -0.505281 -1.116977
v 0.066756 -0.507736 -1.116324
v 0.066836 -0.510192 -1.115670
v 0.066917 -0.512648 -1.115017
v 0.066998 -0.515105 -1.114363
v 0.067079 -0.517562 -1.113710
v 0.067160 -0.520020 -1.113056
v 0.067241 -0.522477 -1.112402
v 0.067322 -0.524935 -1.111748
v 0.067403 -0.527394 -1.111094
v 0.067484 -0.529853 -1.110440
v 0.067565 -0.532312 -1.109786
v 0.067646 -0.534772 -1.109131
v 0.067727 -0.537232 -1.108477
v 0.067808 -0.539692 -1.107822
v 0.067890 -0.542153 -1.107167
v 0.067971 -0.544614 -1.106512
v 0.068052 -0.547075 -1.105857
v 0.068133 -0.549537 -1.105202
v 0.068214 -0.551999 -1.104547
v 0.068295 -0.554461 -1.103892
v 0.068376 -0.556924 -1.103236
v 0.068457 -0.559388 -1.102581
v 0.068539 -0.561851 -1.101925
v 0.068620 -0.564315 -1.101269
v 0.068701 -0.566779 -1.100613
v 0.068782 -0.569244 -1.099957
v 0.068863 -0.571709 -1.099301
v 0.068945 -0.574174 -1.098645
v 0.069026 -0.576640 -1.097989
v 0.069107 -0.579106 -1.097332
v 0.069188 -0.581572 -1.096676
v 0.069270 -0.584039 -1.096019
v 0.069351 -0.586506 -1.095363
v 0.069432 -0.588973 -1.094706
v 0.069513 -0.591441 -1.094049
v 0.069595 -0.593909 -1.093392
v 0.069676 -0.596378 -1.092735
v 0.069757 -0.598846 -1.092078
v 0.069839 -0.601316 -1.091420
v 0.069920 -0.603785 -1.090763
v 0.070001 -0.606255 -1.090105
v 0.070083 -0.608725 -1.089448
v 0.070164 -0.611195 -1.088790
v 0.070246 -0.613666 -1.088132
v 0.070327 -0.616137 -1.087474
v 0.070409 -0.618609 -1.086816
v 0.070490 -0.621081 -1.086158
v 0.070571 -0.623553 -1.085500
f 1 3 2
f 1 4 3
f 1 5 4
f 1 6 5
f 1 7 6
f 1 8 7
f 1 9 8
f 1 10 9
f 1 11 10
f 1 12 11
f 1 13 12
f 1 14 13
f 1 15 14
f 1 16 15
f 1 17 16
f 1 18 17
f 1 19 18
f 1 20 19
f 1 21 20
f 1 22 21
f 1 23 22
f 1 24 23
f 1 25 24
f 1 26 25
f 1 27 26
f 1 28 27
f 1 29 28
f 1 30 29
f 1 31 30
f 1 32 31
f 1 33 32
f 1 34 33
f 1 35 34
f 1 36 35
f 1 37 36
f 1 38 37
f 1 39 38
f 1 40 39
f 1 41 40
f 1 42 41
f 1 43 42
f 1 44 43
f 1 45 44
f 1 46 45
f 1 47 46
f 1 48 47
f 1 49 48
f 1 50 49
f 1 51 50
f 1 52 51
f 1 53 52
f 1 54 53
f 1 55 54
f 1 56 55
f 1 57 56
f 1 58 57
