v -2.540000 0.450051 -4.207989
v -2.539994 0.450813 -4.224518
v -2.539984 0.452485 -4.240979
v -2.539975 0.455059 -4.257324
v -2.539974 0.458529 -4.273501
v -2.539984 0.462890 -4.289462
v -2.540000 0.468124 -4.305158
v -2.540010 0.474214 -4.320543
v -2.540004 0.481142 -4.335569
v -2.539970 0.488887 -4.350189
v -2.539910 0.497428 -4.364359
v -2.539857 0.506738 -4.378036
v -2.539847 0.516786 -4.391181
v -2.539919 0.527544 -4.403753
v -2.540103 0.538983 -4.415713
v -2.540339 0.551065 -4.427024
v -2.540492 0.563750 -4.437651
v -2.540424 0.576997 -4.447563
v -2.540000 0.590764 -4.456726
v -1.855756 0.450051 -4.207989
v -1.855756 0.450811 -4.224518
v -1.855756 0.452481 -4.240980
v -1.855756 0.455057 -4.257324
v -1.855756 0.458529 -4.273501
v -1.855756 0.462889 -4.289462
v -1.855756 0.468121 -4.305159
v -1.855756 0.474211 -4.320544
v -1.855756 0.481140 -4.335570
v -1.855756 0.488887 -4.350189
v -1.855756 0.497427 -4.364359
v -1.855756 0.506736 -4.378037
v -1.855756 0.516785 -4.391182
v -1.855756 0.527544 -4.403753
v -1.855756 0.538982 -4.415714
v -1.855756 0.551062 -4.427026
v -1.855756 0.563748 -4.437655
v -1.855756 0.576996 -4.447565
v -1.855756 0.590764 -4.456726
v -1.171011 0.450051 -4.207989
v -1.171011 0.450811 -4.224518
v -1.171011 0.452481 -4.240980
v -1.171011 0.455057 -4.257324
v -1.171011 0.458529 -4.273501
v -1.171011 0.462889 -4.289462
v -1.171011 0.468121 -4.305159
v -1.171011 0.474211 -4.320544
v -1.171011 0.481140 -4.335570
v -1.171011 0.488887 -4.350189
v -1.171011 0.497427 -4.364359
v -1.171011 0.506736 -4.378037
v -1.171011 0.516785 -4.391182
v -1.171011 0.527544 -4.403753
v -1.171011 0.538982 -4.415714
v -1.171011 0.551062 -4.427026
v -1.171011 0.563748 -4.437655
v -1.171011 0.576996 -4.447565
v -1.171011 0.590764 -4.456726
f 1 2 21
f 1 21 20
f 2 3 22
f 2 22 21
f 3 4 23
f 3 23 22
f 4 5 24
f 4 24 23
f 5 6 25
f 5 25 24
f 6 7 26
f 6 26 25
f 7 8 27
f 7 27 26
f 8 9 28
f 8 28 27
f 9 10 29
f 9 29 28
f 10 11 30
f 10 30 29
f 11 12 31
f 11 31 30
f 12 13 32
f 12 32 31
f 13 14 33
f 13 33 32
f 14 15 34
f 14 34 33
f 15 16 35
f 15 35 34
f 16 17 36
f 16 36 35
f 17 18 37
f 17 37 36
f 18 19 38
f 18 38 37
f 20 21 40
f 20 40 39
f 21 22 41
f 21 41 40
f 22 23 42
f 22 42 41
f 23 24 43
f 23 43 42
f 24 25 44
f 24 44 43
f 25 26 45
f 25 45 44
f 26 27 46
f 26 46 45
f 27 28 47
f 27 47 46
f 28 29 48
f 28 48 47
f 29 30 49
f 29 49 48
f 30 31 50
f 30 50 49
f 31 32 51
f 31 51 50
f 32 33 52
f 32 52 51
f 33 34 53
f 33 53 52
f 34 35 54
f 34 54 53
f 35 36 55
f 35 55 54
f 36 37 56
f 36 56 55
f 37 38 57
f 37 57 56
