v 2.326667 -0.565914 -5.391548
v 2.329807 -0.566481 -5.397408
v 2.328269 -0.566201 -5.394460
v 2.331278 -0.566753 -5.400390
v 2.332684 -0.567016 -5.403404
v 2.334023 -0.567271 -5.406449
v 2.335294 -0.567518 -5.409524
v 2.336497 -0.567756 -5.412626
v 2.337631 -0.567985 -5.415755
v 2.338696 -0.568205 -5.418909
v 2.339691 -0.568416 -5.422086
v 2.325237 -0.575860 -5.391435
v 2.323792 -0.585478 -5.391690
v 2.322331 -0.594784 -5.392295
v 2.320858 -0.603795 -5.393228
v 2.319372 -0.612527 -5.394471
v 2.317877 -0.620986 -5.396010
v 2.316374 -0.629161 -5.397837
v 2.314868 -0.637041 -5.399945
v 2.313361 -0.644614 -5.402328
v 2.311856 -0.651869 -5.404978
v 2.337607 -0.578789 -5.420237
v 2.337594 -0.578850 -5.420225
v 2.335276 -0.588700 -5.418404
v 2.335246 -0.588817 -5.418382
v 2.332735 -0.598152 -5.416594
v 2.332687 -0.598319 -5.416561
v 2.330018 -0.607153 -5.414811
v 2.329951 -0.607363 -5.414768
v 2.327157 -0.615713 -5.413058
v 2.327070 -0.615962 -5.413007
v 2.324184 -0.623836 -5.411342
v 2.324076 -0.624118 -5.411282
v 2.321134 -0.631515 -5.409669
v 2.321006 -0.631825 -5.409601
v 2.318041 -0.638746 -5.408047
v 2.317894 -0.639077 -5.407972
v 2.314938 -0.645529 -5.406481
v 2.314774 -0.645876 -5.406400
v 2.341470 -0.568811 -5.428505
v 2.340616 -0.568618 -5.425286
v 2.342253 -0.568994 -5.431743
v 2.342964 -0.569168 -5.434998
v 2.343603 -0.569333 -5.438268
v 2.344170 -0.569488 -5.441552
v 2.344664 -0.569633 -5.444848
v 2.345086 -0.569769 -5.448155
v 2.345434 -0.569895 -5.451470
v 2.345709 -0.570011 -5.454793
v 2.310357 -0.658795 -5.407888
v 2.308865 -0.665383 -5.411052
v 2.307384 -0.671620 -5.414462
v 2.305916 -0.677498 -5.418112
v 2.304465 -0.683003 -5.421990
v 2.303035 -0.688120 -5.426077
v 2.301631 -0.692835 -5.430356
v 2.300259 -0.697131 -5.434806
v 2.298923 -0.700995 -5.439409
v 2.297628 -0.704420 -5.444142
v 2.344036 -0.580868 -5.454324
v 2.344025 -0.580932 -5.454321
v 2.342099 -0.591289 -5.453817
v 2.342074 -0.591413 -5.453810
v 2.339933 -0.601274 -5.453276
v 2.339892 -0.601451 -5.453266
v 2.337572 -0.610826 -5.452707
v 2.337513 -0.611050 -5.452693
v 2.335046 -0.619953 -5.452116
v 2.334969 -0.620219 -5.452098
v 2.332387 -0.628654 -5.451508
v 2.332290 -0.628956 -5.451486
v 2.329628 -0.636916 -5.450890
v 2.329512 -0.637250 -5.450864
v 2.326804 -0.644732 -5.450266
v 2.326670 -0.645091 -5.450237
v 2.323947 -0.652098 -5.449644
v 2.323796 -0.652475 -5.449611
v 2.321088 -0.659011 -5.449028
v 2.320922 -0.659400 -5.448993
v 2.318255 -0.665474 -5.448424
v 2.318077 -0.665869 -5.448386
v 2.315474 -0.671492 -5.447835
v 2.315286 -0.671888 -5.447796
v 2.312769 -0.677072 -5.447267
v 2.312574 -0.677463 -5.447226
v 2.310161 -0.682222 -5.446723
v 2.309964 -0.682604 -5.446681
v 2.307672 -0.686948 -5.446206
v 2.307474 -0.687317 -5.446164
v 2.305321 -0.691256 -5.445719
v 2.305125 -0.691608 -5.445679
v 2.303125 -0.695151 -5.445267
v 2.302936 -0.695482 -5.445228
v 2.301103 -0.698639 -5.444852
v 2.300923 -0.698945 -5.444815
v 2.299267 -0.701725 -5.444477
v 2.299102 -0.702000 -5.444443
v 2.346040 -0.570213 -5.461454
v 2.345911 -0.570117 -5.458121
v 2.346095 -0.570299 -5.464788
v 2.346076 -0.570376 -5.468124
v 2.345984 -0.570442 -5.471458
v 2.345819 -0.570498 -5.474789
v 2.345580 -0.570543 -5.478117
v 2.345268 -0.570579 -5.481438
v 2.344883 -0.570605 -5.484752
v 2.344425 -0.570620 -5.488056
v 2.343894 -0.570625 -5.491350
v 2.343291 -0.570620 -5.494631
v 2.342615 -0.570605 -5.497898
v 2.341868 -0.570579 -5.501150
v 2.341050 -0.570543 -5.504384
v 2.340160 -0.570498 -5.507599
v 2.339200 -0.570442 -5.510793
v 2.338170 -0.570376 -5.513966
v 2.337070 -0.570299 -5.517114
v 2.335901 -0.570213 -5.520238
v 2.334664 -0.570117 -5.523335
v 2.296376 -0.707407 -5.448985
v 2.295171 -0.709958 -5.453914
v 2.294017 -0.712073 -5.458907
v 2.292915 -0.713754 -5.463944
v 2.291867 -0.715008 -5.469015
v 2.290873 -0.715842 -5.474108
v 2.289934 -0.716266 -5.479214
v 2.289050 -0.716285 -5.484324
v 2.288223 -0.715900 -5.489431
v 2.287452 -0.715105 -5.494534
v 2.286741 -0.713891 -5.499631
v 2.286090 -0.712252 -5.504722
v 2.285501 -0.710182 -5.509802
v 2.284978 -0.707675 -5.514851
v 2.332997 -0.581005 -5.523054
v 2.332986 -0.581070 -5.523052
v 2.331065 -0.591460 -5.522727
v 2.331041 -0.591584 -5.522722
v 2.328904 -0.601479 -5.522360
v 2.328863 -0.601656 -5.522353
v 2.326546 -0.611066 -5.521959
v 2.326488 -0.611290 -5.521949
v 2.324022 -0.620228 -5.521529
v 2.323945 -0.620495 -5.521516
v 2.321364 -0.628964 -5.521076
v 2.321267 -0.629268 -5.521060
v 2.318605 -0.637263 -5.520605
v 2.318488 -0.637598 -5.520585
v 2.315780 -0.645114 -5.520123
v 2.315645 -0.645475 -5.520100
v 2.312921 -0.652515 -5.519635
v 2.312769 -0.652894 -5.519609
v 2.310059 -0.659462 -5.519145
v 2.309892 -0.659854 -5.519117
v 2.307222 -0.665959 -5.518660
v 2.307043 -0.666356 -5.518630
v 2.304437 -0.672009 -5.518184
v 2.304249 -0.672407 -5.518151
v 2.301727 -0.677620 -5.517720
v 2.301532 -0.678013 -5.517687
v 2.299115 -0.682799 -5.517273
v 2.298917 -0.683183 -5.517239
v 2.296620 -0.687553 -5.516846
v 2.296422 -0.687924 -5.516812
v 2.294264 -0.691887 -5.516442
v 2.294068 -0.692241 -5.516409
v 2.292064 -0.695806 -5.516065
v 2.291873 -0.696139 -5.516033
v 2.290036 -0.699316 -5.515718
v 2.289856 -0.699623 -5.515687
v 2.288196 -0.702421 -5.515403
v 2.288030 -0.702698 -5.515374
v 2.286553 -0.705134 -5.515121
v 2.286404 -0.705377 -5.515096
v 2.285111 -0.707469 -5.514874
v 2.331986 -0.569895 -5.529442
v 2.333358 -0.570011 -5.526403
v 2.330547 -0.569769 -5.532449
v 2.329042 -0.569633 -5.535423
v 2.327472 -0.569488 -5.538363
v 2.325838 -0.569333 -5.541268
v 2.324140 -0.569168 -5.544135
v 2.322380 -0.568994 -5.546964
v 2.320558 -0.568811 -5.549752
v 2.318675 -0.568618 -5.552499
v 2.284528 -0.704730 -5.519844
v 2.284154 -0.701342 -5.524758
v 2.283861 -0.697511 -5.529568
v 2.283655 -0.693240 -5.534249
v 2.283536 -0.688543 -5.538783
v 2.283506 -0.683437 -5.543147
v 2.283568 -0.677938 -5.547321
v 2.283722 -0.672062 -5.551285
v 2.283970 -0.665820 -5.555028
v 2.284311 -0.659224 -5.558541
v 2.316221 -0.579056 -5.553414
v 2.316205 -0.579118 -5.553419
v 2.313535 -0.589038 -5.554237
v 2.313502 -0.589156 -5.554246
v 2.310655 -0.598565 -5.554974
v 2.310601 -0.598733 -5.554986
v 2.307613 -0.607644 -5.555633
v 2.307538 -0.607856 -5.555647
v 2.304440 -0.616286 -5.556220
v 2.304344 -0.616537 -5.556236
v 2.301169 -0.624493 -5.556741
v 2.301050 -0.624778 -5.556758
v 2.297833 -0.632258 -5.557200
v 2.297694 -0.632571 -5.557218
v 2.294469 -0.639575 -5.557604
v 2.294309 -0.639911 -5.557622
v 2.291108 -0.646446 -5.557956
v 2.290930 -0.646797 -5.557973
v 2.287780 -0.652871 -5.558261
v 2.287588 -0.653232 -5.558278
v 2.284515 -0.658858 -5.558524
v 2.314730 -0.568205 -5.557864
v 2.316732 -0.568416 -5.555204
v 2.312670 -0.567985 -5.560479
v 2.310553 -0.567756 -5.563048
v 2.308380 -0.567518 -5.565568
v 2.306152 -0.567271 -5.568039
v 2.303871 -0.567016 -5.570460
v 2.301537 -0.566753 -5.572829
v 2.299151 -0.566481 -5.575145
v 2.296715 -0.566201 -5.577407
v 2.294230 -0.565914 -5.579615
v 2.284746 -0.652282 -5.561817
v 2.285273 -0.645006 -5.564848
v 2.285894 -0.637406 -5.567625
v 2.286607 -0.629495 -5.570142
v 2.287412 -0.621283 -5.572391
v 2.288308 -0.612784 -5.574363
v 2.289294 -0.604007 -5.576050
v 2.290375 -0.594949 -5.577437
v 2.291553 -0.585592 -5.578507
v 2.292837 -0.575919 -5.579239
f 1 2 3
f 1 4 2
f 1 5 4
f 1 6 5
f 1 7 6
f 1 8 7
f 1 9 8
f 1 10 9
f 1 11 10
f 1 12 13
f 1 13 14
f 1 14 15
f 1 15 16
f 1 16 17
f 1 17 18
f 1 18 19
f 1 19 20
f 1 20 21
f 1 22 11
f 1 23 22
f 1 24 23
f 1 25 24
f 1 26 25
f 1 27 26
f 1 28 27
f 1 29 28
f 1 30 29
f 1 31 30
f 1 32 31
f 1 33 32
f 1 34 33
f 1 35 34
f 1 36 35
f 1 37 36
f 1 38 37
f 1 39 38
f 1 21 39
f 11 40 41
f 11 42 40
f 11 43 42
f 11 44 43
f 11 45 44
f 11 46 45
f 11 47 46
f 11 48 47
f 11 49 48
f 21 50 51
f 21 51 52
f 21 52 53
f 21 53 54
f 21 54 55
f 21 55 56
f 21 56 57
f 21 57 58
f 21 58 59
f 11 22 49
f 22 60 49
f 22 23 60
f 23 61 60
f 23 24 61
f 24 62 61
f 24 25 62
f 25 63 62
f 25 26 63
f 26 64 63
f 26 27 64
f 27 65 64
f 27 28 65
f 28 66 65
f 28 29 66
f 29 67 66
f 29 30 67
f 30 68 67
f 30 31 68
f 31 69 68
f 31 32 69
f 32 70 69
f 32 33 70
f 33 71 70
f 33 34 71
f 34 72 71
f 34 35 72
f 35 73 72
f 35 36 73
f 36 74 73
f 36 37 74
f 37 75 74
f 37 38 75
f 38 76 75
f 38 39 76
f 39 77 76
f 39 21 77
f 21 78 77
f 21 79 78
f 21 80 79
f 21 81 80
f 21 82 81
f 21 83 82
f 21 84 83
f 21 85 84
f 21 86 85
f 21 87 86
f 21 88 87
f 21 89 88
f 21 90 89
f 21 91 90
f 21 92 91
f 21 93 92
f 21 94 93
f 21 95 94
f 21 96 95
f 21 97 96
f 21 59 97
f 49 98 99
f 49 100 98
f 49 101 100
f 49 102 101
f 49 103 102
f 49 104 103
f 49 105 104
f 49 106 105
f 49 107 106
f 49 108 107
f 49 109 108
f 49 110 109
f 49 111 110
f 49 112 111
f 49 113 112
f 49 114 113
f 49 115 114
f 49 116 115
f 49 117 116
f 49 118 117
f 59 119 120
f 59 120 121
f 59 121 122
f 59 122 123
f 59 123 124
f 59 124 125
f 59 125 126
f 59 126 127
f 59 127 128
f 59 128 129
f 59 129 130
f 59 130 131
f 59 131 132
f 49 60 118
f 60 133 118
f 60 61 133
f 61 134 133
f 61 62 134
f 62 135 134
f 62 63 135
f 63 136 135
f 63 64 136
f 64 137 136
f 64 65 137
f 65 138 137
f 65 66 138
f 66 139 138
f 66 67 139
f 67 140 139
f 67 68 140
f 68 141 140
f 68 69 141
f 69 142 141
f 69 70 142
f 70 143 142
f 70 71 143
f 71 144 143
f 71 72 144
f 72 145 144
f 72 73 145
f 73 146 145
f 73 74 146
f 74 147 146
f 74 75 147
f 75 148 147
f 75 76 148
f 76 149 148
f 76 77 149
f 77 150 149
f 77 78 150
f 78 151 150
f 78 79 151
f 79 152 151
f 79 80 152
f 80 153 152
f 80 81 153
f 81 154 153
f 81 82 154
f 82 155 154
f 82 83 155
f 83 156 155
f 83 84 156
f 84 157 156
f 84 85 157
f 85 158 157
f 85 86 158
f 86 159 158
f 86 87 159
f 87 160 159
f 87 88 160
f 88 161 160
f 88 89 161
f 89 162 161
f 89 90 162
f 90 163 162
f 90 91 163
f 91 164 163
f 91 92 164
f 92 165 164
f 92 93 165
f 93 166 165
f 93 94 166
f 94 167 166
f 94 95 167
f 95 168 167
f 95 96 168
f 96 169 168
f 96 97 169
f 97 170 169
f 97 59 170
f 59 171 170
f 59 172 171
f 59 173 172
f 59 132 173
f 118 174 175
f 118 176 174
f 118 177 176
f 118 178 177
f 118 179 178
f 118 180 179
f 118 181 180
f 118 182 181
f 118 183 182
f 132 184 185
f 132 185 186
f 132 186 187
f 132 187 188
f 132 188 189
f 132 189 190
f 132 190 191
f 132 191 192
f 132 192 193
f 118 133 183
f 133 194 183
f 133 134 194
f 134 195 194
f 134 135 195
f 135 196 195
f 135 136 196
f 136 197 196
f 136 137 197
f 137 198 197
f 137 138 198
f 138 199 198
f 138 139 199
f 139 200 199
f 139 140 200
f 140 201 200
f 140 141 201
f 141 202 201
f 141 142 202
f 142 203 202
f 142 143 203
f 143 204 203
f 143 144 204
f 144 205 204
f 144 145 205
f 145 206 205
f 145 146 206
f 146 207 206
f 146 147 207
f 147 208 207
f 147 148 208
f 148 209 208
f 148 149 209
f 149 210 209
f 149 150 210
f 150 211 210
f 150 151 211
f 151 212 211
f 151 152 212
f 152 213 212
f 152 153 213
f 153 214 213
f 153 154 214
f 154 193 214
f 154 155 193
f 155 156 193
f 156 157 193
f 157 158 193
f 158 159 193
f 159 160 193
f 160 161 193
f 161 162 193
f 162 163 193
f 163 164 193
f 164 165 193
f 165 166 193
f 166 167 193
f 167 168 193
f 168 169 193
f 169 170 193
f 170 171 193
f 171 172 193
f 172 173 193
f 173 132 193
f 183 215 216
f 183 217 215
f 183 218 217
f 183 219 218
f 183 220 219
f 183 221 220
f 183 222 221
f 183 223 222
f 183 224 223
f 183 225 224
f 193 226 227
f 193 227 228
f 193 228 229
f 193 229 230
f 193 230 231
f 193 231 232
f 193 232 233
f 193 233 234
f 193 234 235
f 193 235 225
f 183 194 225
f 194 195 225
f 195 196 225
f 196 197 225
f 197 198 225
f 198 199 225
f 199 200 225
f 200 201 225
f 201 202 225
f 202 203 225
f 203 204 225
f 204 205 225
f 205 206 225
f 206 207 225
f 207 208 225
f 208 209 225
f 209 210 225
f 210 211 225
f 211 212 225
f 212 213 225
f 213 214 225
f 214 193 225
