v 0.295359 -0.591577 -0.016211
v 0.296619 -0.590849 -0.016125
v 0.297878 -0.590122 -0.016041
v 0.299138 -0.589395 -0.015961
v 0.300398 -0.588668 -0.015885
v 0.301657 -0.587940 -0.015811
v 0.302917 -0.587213 -0.015741
v 0.304177 -0.586486 -0.015673
v 0.305436 -0.585759 -0.015609
v 0.306696 -0.585031 -0.015548
v 0.307956 -0.584304 -0.015491
v 0.309215 -0.583577 -0.015436
v 0.310475 -0.582849 -0.015385
v 0.311735 -0.582122 -0.015337
v 0.312994 -0.581395 -0.015292
v 0.314254 -0.580668 -0.015250
v 0.315514 -0.579940 -0.015212
v 0.316773 -0.579213 -0.015177
v 0.318033 -0.578486 -0.015145
v 0.319293 -0.577759 -0.015116
v 0.320553 -0.577031 -0.015090
v 0.321812 -0.576304 -0.015068
v 0.323072 -0.575577 -0.015049
v 0.324332 -0.574849 -0.015032
v 0.325591 -0.574122 -0.015020
v 0.326851 -0.573395 -0.015010
v 0.328111 -0.572668 -0.015004
v 0.329370 -0.571940 -0.015000
v 0.330630 -0.571213 -0.015000
v 0.331890 -0.570486 -0.015004
v 0.333149 -0.569759 -0.015010
v 0.334409 -0.569031 -0.015020
v 0.335669 -0.568304 -0.015032
v 0.336928 -0.567577 -0.015049
v 0.338188 -0.566849 -0.015068
v 0.339448 -0.566122 -0.015090
v 0.340707 -0.565395 -0.015116
v 0.341967 -0.564668 -0.015145
v 0.343227 -0.563940 -0.015177
v 0.344486 -0.563213 -0.015212
v 0.345746 -0.562486 -0.015250
v 0.347006 -0.561759 -0.015292
v 0.348265 -0.561031 -0.015337
v 0.349525 -0.560304 -0.015385
v 0.350785 -0.559577 -0.015436
v 0.352044 -0.558849 -0.015491
v 0.353304 -0.558122 -0.015548
v 0.354564 -0.557395 -0.015609
v 0.355823 -0.556668 -0.015673
v 0.357083 -0.555940 -0.015741
v 0.358343 -0.555213 -0.015811
v 0.359602 -0.554486 -0.015885
v 0.360862 -0.553759 -0.015961
v 0.362122 -0.553031 -0.016041
v 0.363381 -0.552304 -0.016125
v 0.364641 -0.551577 -0.016211
v 0.364641 -0.551577 -0.857174
v 0.363381 -0.552304 -0.857376
v 0.362122 -0.553031 -0.857570
v 0.360862 -0.553759 -0.857757
v 0.359602 -0.554486 -0.857936
v 0.358343 -0.555213 -0.858108
v 0.357083 -0.555940 -0.858272
v 0.355824 -0.556668 -0.858429
v 0.354564 -0.557395 -0.858578
v 0.353304 -0.558122 -0.858720
v 0.352045 -0.558849 -0.858855
v 0.350785 -0.559577 -0.858982
v 0.349525 -0.560304 -0.859102
v 0.348266 -0.561031 -0.859214
v 0.347006 -0.561758 -0.859318
v 0.345746 -0.562486 -0.859416
v 0.344487 -0.563213 -0.859505
v 0.343227 -0.563940 -0.859588
v 0.341967 -0.564667 -0.859662
v 0.340708 -0.565395 -0.859730
v 0.339448 -0.566122 -0.859790
v 0.338188 -0.566849 -0.859842
v 0.336929 -0.567576 -0.859887
v 0.335669 -0.568304 -0.859924
v 0.334410 -0.569031 -0.859954
v 0.333150 -0.569758 -0.859977
v 0.331890 -0.570485 -0.859992
v 0.330631 -0.571213 -0.859999
v 0.329371 -0.571940 -0.859999
v 0.328111 -0.572667 -0.859992
v 0.326852 -0.573395 -0.859977
v 0.325592 -0.574122 -0.859954
v 0.324332 -0.574849 -0.859924
v 0.323073 -0.575576 -0.859887
v 0.321813 -0.576304 -0.859842
v 0.320553 -0.577031 -0.859790
v 0.319293 -0.577758 -0.859730
v 0.318034 -0.578485 -0.859662
v 0.316774 -0.579213 -0.859588
v 0.315514 -0.579940 -0.859505
v 0.314255 -0.580667 -0.859416
v 0.312995 -0.581395 -0.859318
v 0.311735 -0.582122 -0.859214
v 0.310476 -0.582849 -0.859102
v 0.309216 -0.583576 -0.858982
v 0.307956 -0.584304 -0.858855
v 0.306697 -0.585031 -0.858720
v 0.305437 -0.585758 -0.858579
v 0.304177 -0.586486 -0.858429
v 0.302917 -0.587213 -0.858272
v 0.301658 -0.587940 -0.858108
v 0.300398 -0.588668 -0.857936
v 0.299138 -0.589395 -0.857757
v 0.297878 -0.590122 -0.857570
v 0.296619 -0.590849 -0.857376
v 0.295359 -0.591577 -0.857174
f 29 28 27
f 29 27 30
f 30 27 26
f 30 26 31
f 31 26 25
f 31 25 32
f 32 25 24
f 32 24 33
f 33 24 23
f 33 23 34
f 34 23 22
f 34 22 35
f 35 22 21
f 35 21 36
f 36 21 20
f 36 20 37
f 37 20 19
f 37 19 38
f 38 19 18
f 38 18 39
f 39 18 17
f 39 17 40
f 40 17 16
f 40 16 41
f 41 16 15
f 41 15 42
f 42 15 14
f 42 14 43
f 43 14 13
f 43 13 44
f 44 13 12
f 44 12 45
f 45 12 11
f 45 11 46
f 46 11 10
f 46 10 47
f 47 10 9
f 47 9 48
f 48 9 8
f 48 8 49
f 49 8 7
f 49 7 50
f 50 7 6
f 50 6 51
f 51 6 5
f 51 5 52
f 52 5 4
f 52 4 53
f 53 4 3
f 53 3 54
f 54 3 2
f 54 2 55
f 55 2 1
f 55 1 56
f 56 1 112
f 56 112 57
f 57 112 111
f 57 111 58
f 58 111 110
f 58 110 59
f 59 110 109
f 59 109 60
f 60 109 61
f 61 109 108
f 61 108 62
f 62 108 107
f 62 107 63
f 63 107 106
f 63 106 64
f 64 106 105
f 64 105 65
f 65 105 104
f 65 104 66
f 66 104 103
f 66 103 67
f 67 103 102
f 67 102 68
f 68 102 101
f 68 101 69
f 69 101 100
f 69 100 70
f 70 100 99
f 70 99 71
f 71 99 98
f 71 98 72
f 72 98 97
f 72 97 73
f 73 97 96
f 73 96 74
f 74 96 95
f 74 95 75
f 75 95 94
f 75 94 76
f 76 94 93
f 76 93 77
f 77 93 92
f 77 92 78
f 78 92 91
f 78 91 79
f 79 91 90
f 79 90 80
f 80 90 89
f 80 89 81
f 81 89 88
f 81 88 82
f 82 88 87
f 82 87 83
f 83 87 86
f 83 86 84
f 84 86 85
