v -0.340112 0.530306 -1.051004
v -0.341314 0.529533 -1.051148
v -0.342484 0.528777 -1.051492
v -0.343598 0.528054 -1.052030
v -0.344634 0.527378 -1.052751
v -0.345572 0.526764 -1.053639
v -0.346392 0.526225 -1.054677
v -0.347079 0.525772 -1.055843
v -0.347621 0.525414 -1.057113
v -0.348004 0.525160 -1.058462
v -0.348224 0.525015 -1.059862
v -0.256308 0.423475 -1.051004
v -0.257534 0.422730 -1.051148
v -0.258727 0.422002 -1.051493
v -0.259862 0.421304 -1.052032
v -0.260916 0.420651 -1.052754
v -0.261870 0.420058 -1.053643
v -0.262704 0.419537 -1.054681
v -0.263402 0.419099 -1.055847
v -0.263951 0.418754 -1.057117
v -0.264340 0.418508 -1.058465
v -0.264563 0.418368 -1.059863
f 1 13 2
f 1 12 13
f 2 14 3
f 2 13 14
f 3 15 4
f 3 14 15
f 4 16 5
f 4 15 16
f 5 17 6
f 5 16 17
f 6 18 7
f 6 17 18
f 7 19 8
f 7 18 19
f 8 20 9
f 8 19 20
f 9 21 10
f 9 20 21
f 10 22 11
f 10 21 22
