v 0.187500 0.000000 -2.580000
v 0.186538 0.018969 -2.580000
v 0.183662 0.037743 -2.580000
v 0.178901 0.056131 -2.580000
v 0.172305 0.073942 -2.580000
v 0.163940 0.090994 -2.580000
v 0.153893 0.107113 -2.580000
v 0.142267 0.122132 -2.580000
v 0.129181 0.135899 -2.580000
v 0.114770 0.148270 -2.580000
v 0.099181 0.159121 -2.580000
v 0.082574 0.168338 -2.580000
v 0.065120 0.175829 -2.580000
v 0.046997 0.181514 -2.580000
v 0.028393 0.185338 -2.580000
v 0.009497 0.187259 -2.580000
v -0.009497 0.187259 -2.580000
v -0.028393 0.185338 -2.580000
v -0.046997 0.181514 -2.580000
v -0.065120 0.175829 -2.580000
v -0.082574 0.168338 -2.580000
v -0.099181 0.159121 -2.580000
v -0.114770 0.148270 -2.580000
v -0.129181 0.135899 -2.580000
v -0.142267 0.122132 -2.580000
v -0.153893 0.107113 -2.580000
v -0.163940 0.090994 -2.580000
v -0.172305 0.073942 -2.580000
v -0.178901 0.056131 -2.580000
v -0.183662 0.037743 -2.580000
v -0.186538 0.018969 -2.580000
v -0.187500 0.000000 -2.580000
v -0.186538 -0.018969 -2.580000
v -0.183662 -0.037743 -2.580000
v -0.178901 -0.056131 -2.580000
v -0.172305 -0.073942 -2.580000
v -0.163940 -0.090994 -2.580000
v -0.153893 -0.107113 -2.580000
v -0.142267 -0.122132 -2.580000
v -0.129181 -0.135899 -2.580000
v -0.114770 -0.148270 -2.580000
v -0.099181 -0.159121 -2.580000
v -0.082574 -0.168338 -2.580000
v -0.065120 -0.175829 -2.580000
v -0.046997 -0.181514 -2.580000
v -0.028393 -0.185338 -2.580000
v -0.009497 -0.187259 -2.580000
v 0.009497 -0.187259 -2.580000
v 0.028393 -0.185338 -2.580000
v 0.046997 -0.181514 -2.580000
v 0.065120 -0.175829 -2.580000
v 0.082574 -0.168338 -2.580000
v 0.099181 -0.159121 -2.580000
v 0.114770 -0.148270 -2.580000
v 0.129181 -0.135899 -2.580000
v 0.142267 -0.122132 -2.580000
v 0.153893 -0.107113 -2.580000
v 0.163940 -0.090994 -2.580000
v 0.172305 -0.073942 -2.580000
v 0.178901 -0.056131 -2.580000
v 0.183662 -0.037743 -2.580000
v 0.186538 -0.018969 -2.580000
f 1 3 2
f 1 4 3
f 1 5 4
f 1 6 5
f 1 7 6
f 1 8 7
f 1 9 8
f 1 10 9
f 1 11 10
f 1 12 11
f 1 13 12
f 1 14 13
f 1 15 14
f 1 16 15
f 1 17 16
f 1 18 17
f 1 19 18
f 1 20 19
f 1 21 20
f 1 22 21
f 1 23 22
f 1 24 23
f 1 25 24
f 1 26 25
f 1 27 26
f 1 28 27
f 1 29 28
f 1 30 29
f 1 31 30
f 1 32 31
f 1 33 32
f 1 34 33
f 1 35 34
f 1 36 35
f 1 37 36
f 1 38 37
f 1 39 38
f 1 40 39
f 1 41 40
f 1 42 41
f 1 43 42
f 1 44 43
f 1 45 44
f 1 46 45
f 1 47 46
f 1 48 47
f 1 49 48
f 1 50 49
f 1 51 50
f 1 52 51
f 1 53 52
f 1 54 53
f 1 55 54
f 1 56 55
f 1 57 56
f 1 58 57
f 1 59 58
f 1 60 59
f 1 61 60
f 1 62 61
