v -1.012949 0.466699 -6.375941
v -1.019936 0.486294 -6.362560
v -1.019743 0.483806 -6.362122
v -1.019423 0.481331 -6.361685
v -1.018976 0.478876 -6.361252
v -1.018404 0.476445 -6.360824
v -1.017707 0.474047 -6.360401
v -1.016888 0.471686 -6.359985
v -1.015948 0.469369 -6.359576
v -1.014890 0.467102 -6.359176
v -1.013717 0.464891 -6.358786
v -1.012432 0.462741 -6.358407
v -1.011038 0.460658 -6.358040
v -1.009539 0.458647 -6.357685
v -1.007938 0.456714 -6.357345
v -1.006240 0.454863 -6.357018
v -1.004448 0.453099 -6.356707
v -1.002569 0.451426 -6.356412
v -1.000605 0.449850 -6.356134
v -0.998563 0.448373 -6.355874
v -0.996448 0.447000 -6.355632
v -0.994265 0.445734 -6.355409
v -0.992020 0.444579 -6.355205
v -0.989718 0.443538 -6.355021
v -0.987365 0.442612 -6.354858
v -0.984968 0.441805 -6.354716
v -0.982533 0.441119 -6.354595
v -0.980065 0.440555 -6.354495
v -0.977571 0.440115 -6.354418
v -0.975058 0.439800 -6.354362
v -0.972532 0.439610 -6.354329
v -0.970000 0.439547 -6.354318
v -0.970000 0.439137 -6.357102
v -0.970000 0.485974 -6.412921
v -0.970000 0.488788 -6.413000
v -0.972532 0.488788 -6.412936
v -1.019936 0.488788 -6.365532
v -1.020000 0.488788 -6.363000
v -1.018550 0.477035 -6.365181
v -1.014422 0.465941 -6.365181
v -1.016940 0.477424 -6.375941
v -0.979624 0.483838 -6.411815
v -0.988791 0.479123 -6.408315
v -0.978189 0.481713 -6.411815
v -0.973068 0.467881 -6.408315
v -0.977901 0.469190 -6.408315
v -0.974420 0.458672 -6.402668
v -0.998091 0.449501 -6.375941
v -0.988059 0.443995 -6.375941
v -0.986584 0.447654 -6.386087
v -0.984322 0.453264 -6.395139
v -0.981382 0.460558 -6.402668
v -0.982291 0.471599 -6.408315
v -0.985990 0.474973 -6.408315
v -0.997068 0.474866 -6.402668
v -1.003560 0.459793 -6.386087
v -0.998984 0.463747 -6.395139
v -1.004061 0.471270 -6.395139
v -0.970000 0.483169 -6.412683
v -1.019743 0.488788 -6.368058
v -0.993033 0.468889 -6.402668
v -1.006546 0.457214 -6.375941
v -0.970000 0.480383 -6.412288
v -1.019423 0.488788 -6.370571
v -0.987704 0.464028 -6.402668
v -1.009440 0.468504 -6.386087
v -0.970000 0.477622 -6.411737
v -1.016888 0.488788 -6.380365
v -1.017707 0.488788 -6.377968
v -1.018404 0.488788 -6.375533
v -1.018976 0.488788 -6.373065
v -0.970000 0.438883 -6.359905
v -0.992278 0.457631 -6.395139
v -0.970000 0.438788 -6.362718
v -0.975058 0.488788 -6.412743
v -0.977571 0.488788 -6.412423
v -0.980065 0.488788 -6.411976
v -0.982533 0.488788 -6.411404
v -0.984968 0.488788 -6.410707
v -0.987365 0.488788 -6.409888
v -0.989718 0.488788 -6.408948
v -0.992020 0.488788 -6.407890
v -0.994265 0.488788 -6.406717
v -0.996448 0.488788 -6.405432
v -0.998563 0.488788 -6.404038
v -1.000605 0.488788 -6.402539
v -1.002569 0.488788 -6.400938
v -1.004448 0.488788 -6.399240
v -1.006240 0.488788 -6.397448
v -1.007938 0.488788 -6.395569
v -1.009539 0.488788 -6.393605
v -1.011038 0.488788 -6.391563
v -1.012432 0.488788 -6.389448
v -1.013717 0.488788 -6.387265
v -1.014890 0.488788 -6.385020
v -1.015948 0.488788 -6.382718
v -0.995796 0.452711 -6.386087
v -0.970000 0.438852 -6.365532
v -1.013105 0.478353 -6.386087
v -1.007799 0.456131 -6.365181
v -1.007227 0.479776 -6.395139
v -0.999584 0.481626 -6.402668
v -0.990538 0.483816 -6.408315
v -0.980518 0.486241 -6.411815
v -0.999055 0.448154 -6.365181
v -0.988679 0.442459 -6.365181
v -0.977254 0.439365 -6.365181
v -0.976295 0.479985 -6.411815
v -0.974047 0.478751 -6.411815
v -0.977013 0.441003 -6.375941
v -0.971571 0.478080 -6.411815
v -0.976440 0.444907 -6.386087
v -0.975562 0.450891 -6.395139
v -0.970000 0.474898 -6.411032
v -0.970000 0.472217 -6.410174
v -0.970000 0.469588 -6.409167
v -0.970000 0.467021 -6.408013
v -0.970000 0.439073 -6.368338
v -0.970000 0.462101 -6.405283
v -0.970000 0.464523 -6.406717
v -0.970000 0.439453 -6.371127
v -0.970000 0.459764 -6.403714
v -0.970000 0.439988 -6.373891
v -0.970000 0.440678 -6.376619
v -0.970000 0.441521 -6.379305
v -0.970000 0.455373 -6.400195
v -0.970000 0.457519 -6.402016
v -0.970000 0.442513 -6.381939
v -0.970000 0.443652 -6.384513
v -0.970000 0.444934 -6.387019
v -0.970000 0.453333 -6.398256
v -0.970000 0.446355 -6.389448
v -0.970000 0.447911 -6.391794
v -0.970000 0.451405 -6.396205
v -0.970000 0.449596 -6.394049
f 1 2 3
f 3 4 5
f 5 6 7
f 7 8 9
f 9 10 11
f 11 12 13
f 13 14 15
f 15 16 17
f 17 18 19
f 19 20 21
f 21 22 23
f 23 24 25
f 25 26 27
f 27 28 29
f 29 30 31
f 31 32 33
f 34 35 36
f 37 38 39
f 39 40 41
f 42 43 44
f 45 46 47
f 48 49 50
f 51 52 53
f 53 54 55
f 56 57 58
f 1 3 5
f 5 7 9
f 9 11 13
f 13 15 17
f 17 19 21
f 21 23 25
f 25 27 29
f 29 31 33
f 59 34 36
f 60 37 39
f 50 51 53
f 53 55 61
f 62 56 58
f 1 5 9
f 9 13 17
f 17 21 25
f 25 29 33
f 63 59 36
f 64 60 39
f 53 61 65
f 62 58 66
f 1 9 17
f 17 25 33
f 67 63 36
f 68 69 39
f 69 70 39
f 70 71 39
f 71 64 39
f 50 53 65
f 62 66 1
f 17 33 72
f 68 39 41
f 50 65 73
f 17 72 74
f 36 75 41
f 75 76 41
f 76 77 41
f 77 78 41
f 78 79 41
f 79 80 41
f 80 81 41
f 81 82 41
f 82 83 41
f 83 84 41
f 84 85 41
f 85 86 41
f 86 87 41
f 87 88 41
f 88 89 41
f 89 90 41
f 90 91 41
f 91 92 41
f 92 93 41
f 93 94 41
f 94 95 41
f 95 96 41
f 96 68 41
f 50 73 97
f 17 74 98
f 36 41 99
f 100 48 97
f 48 50 97
f 36 99 101
f 100 97 62
f 36 101 102
f 100 62 1
f 36 102 103
f 100 1 17
f 36 103 104
f 105 100 17
f 36 104 42
f 106 105 17
f 36 42 44
f 107 106 17
f 36 44 108
f 107 17 98
f 36 108 109
f 110 107 98
f 36 109 111
f 112 110 98
f 67 36 111
f 113 112 98
f 114 67 111
f 47 113 98
f 115 114 111
f 45 47 98
f 116 115 111
f 111 45 98
f 117 116 111
f 111 98 118
f 119 120 111
f 120 117 111
f 111 118 121
f 122 119 111
f 121 123 111
f 123 124 111
f 124 125 111
f 126 127 111
f 127 122 111
f 125 128 111
f 128 129 111
f 129 130 111
f 131 126 111
f 130 132 111
f 132 133 111
f 134 131 111
f 133 135 111
f 135 134 111
f 38 2 37
