v 0.443334 0.325000 -6.429440
v 0.445826 0.325000 -6.445711
v 0.449952 0.325000 -6.461647
v 0.455669 0.325000 -6.477083
v 0.462919 0.325000 -6.491862
v 0.471626 0.325000 -6.505831
v 0.481702 0.325000 -6.518848
v 0.493043 0.325000 -6.530779
v 0.505533 0.325000 -6.541501
v 0.519043 0.325000 -6.550905
v 0.533436 0.325000 -6.558893
v 0.548563 0.325000 -6.565385
v 0.564269 0.325000 -6.570313
v 0.580393 0.325000 -6.573626
v 0.596770 0.325000 -6.575291
v 0.613230 0.325000 -6.575291
v 0.629607 0.325000 -6.573626
v 0.645731 0.325000 -6.570313
v 0.661437 0.325000 -6.565385
v 0.676564 0.325000 -6.558893
v 0.690957 0.325000 -6.550905
v 0.704467 0.325000 -6.541501
v 0.716957 0.325000 -6.530779
v 0.728298 0.325000 -6.518848
v 0.738374 0.325000 -6.505831
v 0.747081 0.325000 -6.491862
v 0.754331 0.325000 -6.477083
v 0.760048 0.325000 -6.461647
v 0.764174 0.325000 -6.445711
v 0.766666 0.325000 -6.429440
v 0.767500 0.325000 -6.413000
v 0.766666 0.325000 -6.396560
v 0.764174 0.325000 -6.380289
v 0.760048 0.325000 -6.364353
v 0.754331 0.325000 -6.348917
v 0.747081 0.325000 -6.334138
v 0.738374 0.325000 -6.320169
v 0.728298 0.325000 -6.307152
v 0.716957 0.325000 -6.295221
v 0.704467 0.325000 -6.284499
v 0.690957 0.325000 -6.275095
v 0.676564 0.325000 -6.267107
v 0.661437 0.325000 -6.260615
v 0.645731 0.325000 -6.255687
v 0.629607 0.325000 -6.252374
v 0.613230 0.325000 -6.250709
v 0.596770 0.325000 -6.250709
v 0.580393 0.325000 -6.252374
v 0.564269 0.325000 -6.255687
v 0.548563 0.325000 -6.260615
v 0.533436 0.325000 -6.267107
v 0.519043 0.325000 -6.275095
v 0.505533 0.325000 -6.284499
v 0.493043 0.325000 -6.295221
v 0.481702 0.325000 -6.307152
v 0.471626 0.325000 -6.320169
v 0.462919 0.325000 -6.334138
v 0.455669 0.325000 -6.348917
v 0.449952 0.325000 -6.364353
v 0.445826 0.325000 -6.380289
v 0.443334 0.325000 -6.396560
v 0.442500 0.325000 -6.413000
v 0.500539 0.325000 -6.423623
v 0.502149 0.325000 -6.434136
v 0.504815 0.325000 -6.444433
v 0.508509 0.325000 -6.454407
v 0.513194 0.325000 -6.463957
v 0.518820 0.325000 -6.472983
v 0.525330 0.325000 -6.481394
v 0.532658 0.325000 -6.489103
v 0.540729 0.325000 -6.496031
v 0.549459 0.325000 -6.502108
v 0.558759 0.325000 -6.507269
v 0.568533 0.325000 -6.511464
v 0.578681 0.325000 -6.514648
v 0.589100 0.325000 -6.516789
v 0.599682 0.325000 -6.517865
v 0.610318 0.325000 -6.517865
v 0.620900 0.325000 -6.516789
v 0.631319 0.325000 -6.514648
v 0.641467 0.325000 -6.511464
v 0.651241 0.325000 -6.507269
v 0.660541 0.325000 -6.502108
v 0.669271 0.325000 -6.496031
v 0.677342 0.325000 -6.489103
v 0.684670 0.325000 -6.481394
v 0.691180 0.325000 -6.472983
v 0.696806 0.325000 -6.463957
v 0.701491 0.325000 -6.454407
v 0.705185 0.325000 -6.444433
v 0.707851 0.325000 -6.434136
v 0.709461 0.325000 -6.423623
v 0.710000 0.325000 -6.413000
v 0.709461 0.325000 -6.402377
v 0.707851 0.325000 -6.391864
v 0.705185 0.325000 -6.381567
v 0.701491 0.325000 -6.371593
v 0.696806 0.325000 -6.362043
v 0.691180 0.325000 -6.353017
v 0.684670 0.325000 -6.344606
v 0.677342 0.325000 -6.336897
v 0.669271 0.325000 -6.329969
v 0.660541 0.325000 -6.323892
v 0.651241 0.325000 -6.318731
v 0.641467 0.325000 -6.314536
v 0.631319 0.325000 -6.311352
v 0.620900 0.325000 -6.309211
v 0.610318 0.325000 -6.308135
v 0.599682 0.325000 -6.308135
v 0.589100 0.325000 -6.309211
v 0.578681 0.325000 -6.311352
v 0.568533 0.325000 -6.314536
v 0.558759 0.325000 -6.318731
v 0.549459 0.325000 -6.323892
v 0.540729 0.325000 -6.329969
v 0.532658 0.325000 -6.336897
v 0.525330 0.325000 -6.344606
v 0.518820 0.325000 -6.353017
v 0.513194 0.325000 -6.362043
v 0.508509 0.325000 -6.371593
v 0.504815 0.325000 -6.381567
v 0.502149 0.325000 -6.391864
v 0.500539 0.325000 -6.402377
v 0.500000 0.325000 -6.413000
f 1 2 64
f 1 64 63
f 2 3 65
f 2 65 64
f 3 4 66
f 3 66 65
f 4 5 67
f 4 67 66
f 5 6 68
f 5 68 67
f 6 7 69
f 6 69 68
f 7 8 70
f 7 70 69
f 8 9 71
f 8 71 70
f 9 10 72
f 9 72 71
f 10 11 73
f 10 73 72
f 11 12 74
f 11 74 73
f 12 13 75
f 12 75 74
f 13 14 76
f 13 76 75
f 14 15 77
f 14 77 76
f 15 16 78
f 15 78 77
f 16 17 79
f 16 79 78
f 17 18 80
f 17 80 79
f 18 19 81
f 18 81 80
f 19 20 82
f 19 82 81
f 20 21 83
f 20 83 82
f 21 22 84
f 21 84 83
f 22 23 85
f 22 85 84
f 23 24 86
f 23 86 85
f 24 25 87
f 24 87 86
f 25 26 88
f 25 88 87
f 26 27 89
f 26 89 88
f 27 28 90
f 27 90 89
f 28 29 91
f 28 91 90
f 29 30 92
f 29 92 91
f 30 31 93
f 30 93 92
f 31 32 94
f 31 94 93
f 32 33 95
f 32 95 94
f 33 34 96
f 33 96 95
f 34 35 97
f 34 97 96
f 35 36 98
f 35 98 97
f 36 37 99
f 36 99 98
f 37 38 100
f 37 100 99
f 38 39 101
f 38 101 100
f 39 40 102
f 39 102 101
f 40 41 103
f 40 103 102
f 41 42 104
f 41 104 103
f 42 43 105
f 42 105 104
f 43 44 106
f 43 106 105
f 44 45 107
f 44 107 106
f 45 46 108
f 45 108 107
f 46 47 109
f 46 109 108
f 47 48 110
f 47 110 109
f 48 49 111
f 48 111 110
f 49 50 112
f 49 112 111
f 50 51 113
f 50 113 112
f 51 52 114
f 51 114 113
f 52 53 115
f 52 115 114
f 53 54 116
f 53 116 115
f 54 55 117
f 54 117 116
f 55 56 118
f 55 118 117
f 56 57 119
f 56 119 118
f 57 58 120
f 57 120 119
f 58 59 121
f 58 121 120
f 59 60 122
f 59 122 121
f 60 61 123
f 60 123 122
f 61 62 124
f 61 124 123
f 62 1 63
f 62 63 124
