v 0.855000 0.425572 -6.145635
v 0.854990 0.431937 -6.124082
v 0.854990 0.442953 -6.104495
v 0.854990 0.458066 -6.087862
v 0.854990 0.476510 -6.075024
v 0.854990 0.497356 -6.066629
v 0.854991 0.519550 -6.063101
v -0.970000 0.425572 -6.145635
v -0.970000 0.431937 -6.124082
v -0.970000 0.442953 -6.104495
v -0.970000 0.458066 -6.087862
v -0.970000 0.476510 -6.075024
v -0.970000 0.497356 -6.066629
v -0.970000 0.519550 -6.063101
f 1 9 2
f 1 8 9
f 2 10 3
f 2 9 10
f 3 11 4
f 3 10 11
f 4 12 5
f 4 11 12
f 5 13 6
f 5 12 13
f 6 14 7
f 6 13 14
