v 2.142143 0.565914 -5.962751
v 2.144783 0.545468 -5.963911
v 2.143475 0.555693 -5.963336
v 2.146067 0.535240 -5.964476
v 2.147326 0.525008 -5.965029
v 2.148562 0.514772 -5.965572
v 2.149772 0.504534 -5.966104
v 2.150959 0.494291 -5.966625
v 2.152121 0.484046 -5.967136
v 2.153259 0.473797 -5.967635
v 2.154373 0.463545 -5.968125
v 2.155462 0.453290 -5.968603
v 2.156527 0.443032 -5.969071
v 2.157567 0.432770 -5.969527
v 2.158583 0.422506 -5.969974
v 2.159575 0.412240 -5.970409
v 2.160542 0.401970 -5.970834
v 2.161485 0.391698 -5.971248
v 2.162404 0.381423 -5.971651
v 2.163298 0.371146 -5.972043
v 2.164167 0.360866 -5.972425
v 2.165013 0.350583 -5.972796
v 2.165833 0.340299 -5.973156
v 2.166630 0.330012 -5.973506
v 2.167402 0.319723 -5.973844
v 2.168149 0.309431 -5.974172
v 2.168872 0.299138 -5.974490
v 2.169571 0.288842 -5.974796
v 2.170245 0.278545 -5.975092
v 2.170895 0.268246 -5.975377
v 2.171520 0.257944 -5.975651
v 2.172120 0.247641 -5.975915
v 2.172697 0.237337 -5.976167
v 2.145146 0.566201 -5.961326
v 2.148117 0.566481 -5.959835
v 2.151055 0.566753 -5.958278
v 2.153958 0.567016 -5.956656
v 2.156826 0.567271 -5.954970
v 2.159655 0.567518 -5.953220
v 2.162446 0.567756 -5.951407
v 2.165197 0.567985 -5.949533
v 2.167906 0.568205 -5.947598
v 2.170572 0.568416 -5.945604
v 2.173042 0.247680 -5.975477
v 2.173362 0.258024 -5.974770
v 2.173655 0.268370 -5.974046
v 2.173922 0.278716 -5.973304
v 2.174163 0.289063 -5.972545
v 2.174377 0.299411 -5.971768
v 2.174565 0.309760 -5.970975
v 2.174727 0.320110 -5.970164
v 2.174862 0.330460 -5.969336
v 2.174971 0.340810 -5.968491
v 2.175052 0.351161 -5.967629
v 2.175108 0.361512 -5.966750
v 2.175137 0.371863 -5.965854
v 2.175139 0.382214 -5.964940
v 2.175114 0.392565 -5.964010
v 2.175062 0.402916 -5.963062
v 2.174984 0.413266 -5.962098
v 2.174879 0.423617 -5.961116
v 2.174747 0.433966 -5.960118
v 2.174588 0.444315 -5.959102
v 2.174403 0.454664 -5.958070
v 2.174190 0.465011 -5.957020
v 2.173950 0.475358 -5.955954
v 2.173683 0.485703 -5.954871
v 2.173389 0.496047 -5.953771
v 2.173068 0.506391 -5.952655
v 2.172720 0.516732 -5.951521
v 2.172345 0.527072 -5.950371
v 2.171943 0.537411 -5.949204
v 2.171513 0.547748 -5.948021
v 2.171056 0.558083 -5.946821
v 2.173776 0.216722 -5.976641
v 2.173248 0.227030 -5.976409
v 2.174279 0.206413 -5.976861
v 2.174757 0.196102 -5.977071
v 2.175211 0.185789 -5.977270
v 2.175640 0.175475 -5.977458
v 2.176045 0.165160 -5.977636
v 2.176425 0.154844 -5.977802
v 2.176781 0.144526 -5.977958
v 2.177112 0.134208 -5.978104
v 2.177419 0.123888 -5.978238
v 2.177701 0.113567 -5.978362
v 2.177958 0.103246 -5.978475
v 2.178191 0.092924 -5.978577
v 2.178400 0.082601 -5.978669
v 2.178584 0.072277 -5.978749
v 2.178744 0.061953 -5.978819
v 2.178879 0.051628 -5.978878
v 2.178989 0.041303 -5.978927
v 2.179075 0.030978 -5.978964
v 2.179136 0.020652 -5.978991
v 2.179173 0.010326 -5.979007
v 2.179186 0.000000 -5.979013
v 2.185033 0.000000 -5.976094
v 2.190748 0.000000 -5.972922
v 2.196320 0.000000 -5.969505
v 2.201737 0.000000 -5.965848
v 2.206990 0.000000 -5.961959
v 2.212069 0.000000 -5.957845
v 2.216963 0.000000 -5.953513
v 2.221664 0.000000 -5.948972
v 2.226163 0.000000 -5.944231
v 2.230451 0.000000 -5.939298
v 2.173193 0.568618 -5.943550
v 2.175769 0.568811 -5.941439
v 2.178298 0.568994 -5.939271
v 2.180779 0.569168 -5.937047
v 2.183211 0.569333 -5.934769
v 2.185592 0.569488 -5.932437
v 2.187921 0.569633 -5.930053
v 2.190197 0.569769 -5.927618
v 2.192419 0.569895 -5.925133
v 2.194587 0.570011 -5.922599
v 2.230430 0.010398 -5.939303
v 2.230387 0.020796 -5.939296
v 2.230319 0.031193 -5.939278
v 2.230229 0.041591 -5.939249
v 2.230114 0.051988 -5.939208
v 2.229977 0.062384 -5.939155
v 2.229816 0.072780 -5.939091
v 2.229631 0.083176 -5.939016
v 2.229423 0.093571 -5.938929
v 2.229192 0.103965 -5.938831
v 2.228937 0.114358 -5.938721
v 2.228659 0.124751 -5.938600
v 2.228358 0.135142 -5.938468
v 2.228033 0.145533 -5.938324
v 2.227684 0.155923 -5.938168
v 2.227312 0.166312 -5.938002
v 2.226917 0.176699 -5.937823
v 2.226499 0.187086 -5.937634
v 2.226057 0.197471 -5.937433
v 2.225591 0.207855 -5.937220
v 2.225102 0.218237 -5.936996
v 2.224590 0.228618 -5.936761
v 2.224054 0.238997 -5.936514
v 2.223495 0.249375 -5.936256
v 2.222913 0.259752 -5.935986
v 2.222307 0.270126 -5.935705
v 2.221678 0.280499 -5.935413
v 2.221026 0.290870 -5.935109
v 2.220350 0.301240 -5.934794
v 2.219650 0.311607 -5.934467
v 2.218928 0.321973 -5.934129
v 2.218182 0.332336 -5.933780
v 2.217413 0.342698 -5.933419
v 2.216620 0.353057 -5.933046
v 2.215804 0.363414 -5.932663
v 2.214964 0.373769 -5.932268
v 2.214102 0.384122 -5.931861
v 2.213216 0.394472 -5.931443
v 2.212306 0.404820 -5.931014
v 2.211373 0.415166 -5.930573
v 2.210417 0.425509 -5.930121
v 2.209438 0.435849 -5.929658
v 2.208435 0.446187 -5.929183
v 2.207409 0.456522 -5.928697
v 2.206360 0.466855 -5.928200
v 2.205287 0.477184 -5.927691
v 2.204191 0.487511 -5.927170
v 2.203072 0.497834 -5.926639
v 2.201930 0.508155 -5.926096
v 2.200764 0.518472 -5.925541
v 2.199575 0.528787 -5.924976
v 2.198363 0.539098 -5.924399
v 2.197127 0.549405 -5.923810
v 2.195869 0.559710 -5.923210
v 2.238362 0.000000 -5.928896
v 2.234520 0.000000 -5.934184
v 2.241971 0.000000 -5.923447
v 2.245338 0.000000 -5.917845
v 2.248458 0.000000 -5.912102
v 2.251326 0.000000 -5.906229
v 2.253934 0.000000 -5.900236
v 2.256279 0.000000 -5.894135
v 2.258356 0.000000 -5.887938
v 2.260162 0.000000 -5.881656
v 2.196698 0.570117 -5.920018
v 2.198751 0.570213 -5.917391
v 2.200747 0.570299 -5.914719
v 2.202683 0.570376 -5.912003
v 2.204559 0.570442 -5.909245
v 2.206374 0.570498 -5.906446
v 2.208127 0.570543 -5.903608
v 2.209817 0.570579 -5.900732
v 2.211443 0.570605 -5.897819
v 2.213005 0.570620 -5.894871
v 2.214502 0.570625 -5.891889
v 2.215932 0.570620 -5.888875
v 2.217296 0.570605 -5.885830
v 2.218592 0.570579 -5.882757
v 2.219820 0.570543 -5.879655
v 2.220980 0.570498 -5.876527
v 2.222070 0.570442 -5.873374
v 2.223090 0.570376 -5.870199
v 2.224040 0.570299 -5.867002
v 2.224920 0.570213 -5.863785
v 2.225728 0.570117 -5.860549
v 2.260168 0.010402 -5.881581
v 2.260151 0.020803 -5.881494
v 2.260111 0.031204 -5.881396
v 2.260047 0.041604 -5.881287
v 2.259960 0.052005 -5.881166
v 2.259849 0.062404 -5.881033
v 2.259715 0.072804 -5.880890
v 2.259557 0.083202 -5.880734
v 2.259376 0.093600 -5.880568
v 2.259171 0.103997 -5.880389
v 2.258943 0.114394 -5.880200
v 2.258691 0.124789 -5.879999
v 2.258416 0.135184 -5.879786
v 2.258118 0.145577 -5.879562
v 2.257796 0.155970 -5.879327
v 2.257450 0.166361 -5.879080
v 2.257082 0.176752 -5.878822
v 2.256689 0.187140 -5.878552
v 2.256274 0.197528 -5.878271
v 2.255834 0.207914 -5.877978
v 2.255372 0.218299 -5.877674
v 2.254886 0.228682 -5.877359
v 2.254376 0.239064 -5.877032
v 2.253843 0.249444 -5.876694
v 2.253287 0.259823 -5.876344
v 2.252707 0.270199 -5.875983
v 2.252104 0.280574 -5.875610
v 2.251478 0.290947 -5.875226
v 2.250828 0.301319 -5.874831
v 2.250154 0.311688 -5.874424
v 2.249458 0.322055 -5.874006
v 2.248738 0.332420 -5.873576
v 2.247994 0.342784 -5.873135
v 2.247227 0.353145 -5.872683
v 2.246437 0.363503 -5.872219
v 2.245623 0.373860 -5.871743
v 2.244786 0.384214 -5.871257
v 2.243926 0.394566 -5.870759
v 2.243042 0.404915 -5.870249
v 2.242135 0.415262 -5.869728
v 2.241204 0.425606 -5.869196
v 2.240250 0.435947 -5.868652
v 2.239273 0.446286 -5.868097
v 2.238272 0.456622 -5.867531
v 2.237249 0.466956 -5.866953
v 2.236201 0.477286 -5.866364
v 2.235131 0.487613 -5.865763
v 2.234037 0.497937 -5.865151
v 2.232920 0.508259 -5.864528
v 2.231779 0.518577 -5.863893
v 2.230616 0.528891 -5.863247
v 2.229429 0.539203 -5.862590
v 2.228218 0.549511 -5.861921
v 2.226985 0.559816 -5.861241
v 2.262943 0.000000 -5.868887
v 2.261691 0.000000 -5.875302
v 2.263914 0.000000 -5.862423
v 2.264602 0.000000 -5.855924
v 2.265007 0.000000 -5.849400
v 2.265127 0.000000 -5.842865
v 2.264962 0.000000 -5.836332
v 2.264513 0.000000 -5.829811
v 2.263780 0.000000 -5.823316
v 2.262765 0.000000 -5.816860
v 2.261469 0.000000 -5.810453
v 2.261458 0.010326 -5.810447
v 2.261422 0.020652 -5.810428
v 2.261363 0.030978 -5.810396
v 2.261281 0.041303 -5.810351
v 2.261175 0.051628 -5.810294
v 2.261045 0.061953 -5.810224
v 2.260892 0.072277 -5.810141
v 2.260715 0.082601 -5.810046
v 2.260514 0.092924 -5.809938
v 2.260290 0.103246 -5.809817
v 2.260043 0.113567 -5.809683
v 2.259772 0.123888 -5.809537
v 2.259477 0.134208 -5.809378
v 2.259159 0.144526 -5.809206
v 2.258817 0.154844 -5.809021
v 2.258451 0.165160 -5.808824
v 2.258063 0.175475 -5.808614
v 2.257650 0.185789 -5.808391
v 2.257214 0.196102 -5.808156
v 2.256754 0.206413 -5.807908
v 2.256271 0.216722 -5.807647
v 2.255765 0.227030 -5.807374
v 2.226464 0.570011 -5.857297
v 2.227129 0.569895 -5.854030
v 2.227721 0.569769 -5.850749
v 2.228241 0.569633 -5.847457
v 2.228688 0.569488 -5.844154
v 2.229062 0.569333 -5.840842
v 2.229362 0.569168 -5.837524
v 2.229590 0.568994 -5.834200
v 2.229743 0.568811 -5.830872
v 2.229823 0.568618 -5.827542
v 2.255471 0.237376 -5.808151
v 2.255148 0.247723 -5.808918
v 2.254793 0.258071 -5.809675
v 2.254408 0.268421 -5.810423
v 2.253992 0.278772 -5.811160
v 2.253545 0.289124 -5.811887
v 2.253067 0.299476 -5.812605
v 2.252559 0.309830 -5.813312
v 2.252020 0.320184 -5.814009
v 2.251450 0.330539 -5.814695
v 2.250849 0.340894 -5.815372
v 2.250217 0.351250 -5.816038
v 2.249555 0.361606 -5.816693
v 2.248862 0.371963 -5.817339
v 2.248138 0.382319 -5.817973
v 2.247383 0.392675 -5.818598
v 2.246597 0.403032 -5.819211
v 2.245780 0.413388 -5.819814
v 2.244933 0.423743 -5.820406
v 2.244054 0.434098 -5.820987
v 2.243145 0.444453 -5.821558
v 2.242205 0.454807 -5.822118
v 2.241234 0.465160 -5.822667
v 2.240232 0.475512 -5.823204
v 2.239199 0.485863 -5.823731
v 2.238135 0.496212 -5.824247
v 2.237040 0.506561 -5.824751
v 2.235915 0.516908 -5.825245
v 2.234758 0.527253 -5.825727
v 2.233571 0.537597 -5.826198
v 2.232352 0.547939 -5.826658
v 2.231103 0.558280 -5.827106
v 2.254681 0.247641 -5.806789
v 2.255234 0.237337 -5.807088
v 2.254103 0.257944 -5.806477
v 2.253503 0.268246 -5.806153
v 2.252878 0.278545 -5.805816
v 2.252230 0.288842 -5.805467
v 2.251559 0.299138 -5.805104
v 2.250864 0.309431 -5.804729
v 2.250146 0.319723 -5.804342
v 2.249404 0.330012 -5.803941
v 2.248638 0.340299 -5.803529
v 2.247850 0.350583 -5.803103
v 2.247037 0.360866 -5.802665
v 2.246201 0.371146 -5.802214
v 2.245342 0.381423 -5.801750
v 2.244459 0.391698 -5.801274
v 2.243553 0.401970 -5.800785
v 2.242623 0.412240 -5.800284
v 2.241669 0.422506 -5.799770
v 2.240693 0.432770 -5.799243
v 2.239692 0.443032 -5.798704
v 2.238669 0.453290 -5.798152
v 2.237622 0.463545 -5.797588
v 2.236551 0.473797 -5.797010
v 2.235457 0.484046 -5.796421
v 2.234340 0.494291 -5.795819
v 2.233199 0.504534 -5.795204
v 2.232035 0.514772 -5.794576
v 2.230847 0.525008 -5.793936
v 2.229636 0.535240 -5.793284
v 2.228401 0.545468 -5.792619
v 2.227143 0.555693 -5.791941
v 2.225862 0.565914 -5.791251
v 2.229830 0.568416 -5.824212
v 2.229763 0.568205 -5.820884
v 2.229622 0.567985 -5.817558
v 2.229407 0.567756 -5.814236
v 2.229120 0.567518 -5.810921
v 2.228759 0.567271 -5.807614
v 2.228325 0.567016 -5.804316
v 2.227818 0.566753 -5.801029
v 2.227238 0.566481 -5.797755
v 2.226586 0.566201 -5.794495
f 1 2 3
f 1 4 2
f 1 5 4
f 1 6 5
f 1 7 6
f 1 8 7
f 1 9 8
f 1 10 9
f 1 11 10
f 1 12 11
f 1 13 12
f 1 14 13
f 1 15 14
f 1 16 15
f 1 17 16
f 1 18 17
f 1 19 18
f 1 20 19
f 1 21 20
f 1 22 21
f 1 23 22
f 1 24 23
f 1 25 24
f 1 26 25
f 1 27 26
f 1 28 27
f 1 29 28
f 1 30 29
f 1 31 30
f 1 32 31
f 1 33 32
f 1 34 35
f 1 35 36
f 1 36 37
f 1 37 38
f 1 38 39
f 1 39 40
f 1 40 41
f 1 41 42
f 1 42 43
f 1 44 33
f 1 45 44
f 1 46 45
f 1 47 46
f 1 48 47
f 1 49 48
f 1 50 49
f 1 51 50
f 1 52 51
f 1 53 52
f 1 54 53
f 1 55 54
f 1 56 55
f 1 57 56
f 1 58 57
f 1 59 58
f 1 60 59
f 1 61 60
f 1 62 61
f 1 63 62
f 1 64 63
f 1 65 64
f 1 66 65
f 1 67 66
f 1 68 67
f 1 69 68
f 1 70 69
f 1 71 70
f 1 72 71
f 1 73 72
f 1 74 73
f 1 43 74
f 33 75 76
f 33 77 75
f 33 78 77
f 33 79 78
f 33 80 79
f 33 81 80
f 33 82 81
f 33 83 82
f 33 84 83
f 33 85 84
f 33 86 85
f 33 87 86
f 33 88 87
f 33 89 88
f 33 90 89
f 33 91 90
f 33 92 91
f 33 93 92
f 33 94 93
f 33 95 94
f 33 96 95
f 33 97 96
f 33 98 97
f 33 99 98
f 33 100 99
f 33 101 100
f 33 102 101
f 33 103 102
f 33 104 103
f 33 105 104
f 33 106 105
f 33 107 106
f 43 108 109
f 43 109 110
f 43 110 111
f 43 111 112
f 43 112 113
f 43 113 114
f 43 114 115
f 43 115 116
f 43 116 117
f 33 118 107
f 33 119 118
f 33 120 119
f 33 121 120
f 33 122 121
f 33 123 122
f 33 124 123
f 33 125 124
f 33 126 125
f 33 127 126
f 33 128 127
f 33 129 128
f 33 130 129
f 33 131 130
f 33 132 131
f 33 133 132
f 33 134 133
f 33 135 134
f 33 136 135
f 33 137 136
f 33 138 137
f 33 139 138
f 33 140 139
f 33 44 140
f 44 141 140
f 44 45 141
f 45 142 141
f 45 46 142
f 46 143 142
f 46 47 143
f 47 144 143
f 47 48 144
f 48 145 144
f 48 49 145
f 49 146 145
f 49 50 146
f 50 147 146
f 50 51 147
f 51 148 147
f 51 52 148
f 52 149 148
f 52 53 149
f 53 150 149
f 53 54 150
f 54 151 150
f 54 55 151
f 55 152 151
f 55 56 152
f 56 153 152
f 56 57 153
f 57 154 153
f 57 58 154
f 58 155 154
f 58 59 155
f 59 156 155
f 59 60 156
f 60 157 156
f 60 61 157
f 61 158 157
f 61 62 158
f 62 159 158
f 62 63 159
f 63 160 159
f 63 64 160
f 64 161 160
f 64 65 161
f 65 162 161
f 65 66 162
f 66 163 162
f 66 67 163
f 67 164 163
f 67 68 164
f 68 165 164
f 68 69 165
f 69 166 165
f 69 70 166
f 70 167 166
f 70 71 167
f 71 168 167
f 71 72 168
f 72 169 168
f 72 73 169
f 73 170 169
f 73 74 170
f 74 171 170
f 74 43 171
f 43 117 171
f 107 172 173
f 107 174 172
f 107 175 174
f 107 176 175
f 107 177 176
f 107 178 177
f 107 179 178
f 107 180 179
f 107 181 180
f 117 182 183
f 117 183 184
f 117 184 185
f 117 185 186
f 117 186 187
f 117 187 188
f 117 188 189
f 117 189 190
f 117 190 191
f 117 191 192
f 117 192 193
f 117 193 194
f 117 194 195
f 117 195 196
f 117 196 197
f 117 197 198
f 117 198 199
f 117 199 200
f 117 200 201
f 117 201 202
f 107 118 181
f 118 203 181
f 118 119 203
f 119 204 203
f 119 120 204
f 120 205 204
f 120 121 205
f 121 206 205
f 121 122 206
f 122 207 206
f 122 123 207
f 123 208 207
f 123 124 208
f 124 209 208
f 124 125 209
f 125 210 209
f 125 126 210
f 126 211 210
f 126 127 211
f 127 212 211
f 127 128 212
f 128 213 212
f 128 129 213
f 129 214 213
f 129 130 214
f 130 215 214
f 130 131 215
f 131 216 215
f 131 132 216
f 132 217 216
f 132 133 217
f 133 218 217
f 133 134 218
f 134 219 218
f 134 135 219
f 135 220 219
f 135 136 220
f 136 221 220
f 136 137 221
f 137 222 221
f 137 138 222
f 138 223 222
f 138 139 223
f 139 224 223
f 139 140 224
f 140 225 224
f 140 141 225
f 141 226 225
f 141 142 226
f 142 227 226
f 142 143 227
f 143 228 227
f 143 144 228
f 144 229 228
f 144 145 229
f 145 230 229
f 145 146 230
f 146 231 230
f 146 147 231
f 147 232 231
f 147 148 232
f 148 233 232
f 148 149 233
f 149 234 233
f 149 150 234
f 150 235 234
f 150 151 235
f 151 236 235
f 151 152 236
f 152 237 236
f 152 153 237
f 153 238 237
f 153 154 238
f 154 239 238
f 154 155 239
f 155 240 239
f 155 156 240
f 156 241 240
f 156 157 241
f 157 242 241
f 157 158 242
f 158 243 242
f 158 159 243
f 159 244 243
f 159 160 244
f 160 245 244
f 160 161 245
f 161 246 245
f 161 162 246
f 162 247 246
f 162 163 247
f 163 248 247
f 163 164 248
f 164 249 248
f 164 165 249
f 165 250 249
f 165 166 250
f 166 251 250
f 166 167 251
f 167 252 251
f 167 168 252
f 168 253 252
f 168 169 253
f 169 254 253
f 169 170 254
f 170 255 254
f 170 171 255
f 171 256 255
f 171 117 256
f 117 202 256
f 181 257 258
f 181 259 257
f 181 260 259
f 181 261 260
f 181 262 261
f 181 263 262
f 181 264 263
f 181 265 264
f 181 266 265
f 181 267 266
f 181 268 267
f 181 269 268
f 181 270 269
f 181 271 270
f 181 272 271
f 181 273 272
f 181 274 273
f 181 275 274
f 181 276 275
f 181 277 276
f 181 278 277
f 181 279 278
f 181 280 279
f 181 281 280
f 181 282 281
f 181 283 282
f 181 284 283
f 181 285 284
f 181 286 285
f 181 287 286
f 181 288 287
f 181 289 288
f 202 290 291
f 202 291 292
f 202 292 293
f 202 293 294
f 202 294 295
f 202 295 296
f 202 296 297
f 202 297 298
f 202 298 299
f 181 203 289
f 203 204 289
f 204 205 289
f 205 206 289
f 206 207 289
f 207 208 289
f 208 209 289
f 209 210 289
f 210 211 289
f 211 212 289
f 212 213 289
f 213 214 289
f 214 215 289
f 215 216 289
f 216 217 289
f 217 218 289
f 218 219 289
f 219 220 289
f 220 221 289
f 221 222 289
f 222 223 289
f 223 224 289
f 224 225 289
f 225 300 289
f 225 226 300
f 226 301 300
f 226 227 301
f 227 302 301
f 227 228 302
f 228 303 302
f 228 229 303
f 229 304 303
f 229 230 304
f 230 305 304
f 230 231 305
f 231 306 305
f 231 232 306
f 232 307 306
f 232 233 307
f 233 308 307
f 233 234 308
f 234 309 308
f 234 235 309
f 235 310 309
f 235 236 310
f 236 311 310
f 236 237 311
f 237 312 311
f 237 238 312
f 238 313 312
f 238 239 313
f 239 314 313
f 239 240 314
f 240 315 314
f 240 241 315
f 241 316 315
f 241 242 316
f 242 317 316
f 242 243 317
f 243 318 317
f 243 244 318
f 244 319 318
f 244 245 319
f 245 320 319
f 245 246 320
f 246 321 320
f 246 247 321
f 247 322 321
f 247 248 322
f 248 323 322
f 248 249 323
f 249 324 323
f 249 250 324
f 250 325 324
f 250 251 325
f 251 326 325
f 251 252 326
f 252 327 326
f 252 253 327
f 253 328 327
f 253 254 328
f 254 329 328
f 254 255 329
f 255 330 329
f 255 256 330
f 256 331 330
f 256 202 331
f 202 299 331
f 289 332 333
f 289 334 332
f 289 335 334
f 289 336 335
f 289 337 336
f 289 338 337
f 289 339 338
f 289 340 339
f 289 341 340
f 289 342 341
f 289 343 342
f 289 344 343
f 289 345 344
f 289 346 345
f 289 347 346
f 289 348 347
f 289 349 348
f 289 350 349
f 289 351 350
f 289 352 351
f 289 353 352
f 289 354 353
f 289 355 354
f 289 356 355
f 289 357 356
f 289 358 357
f 289 359 358
f 289 360 359
f 289 361 360
f 289 362 361
f 289 363 362
f 289 364 363
f 299 365 366
f 299 366 367
f 299 367 368
f 299 368 369
f 299 369 370
f 299 370 371
f 299 371 372
f 299 372 373
f 299 373 374
f 299 374 364
f 289 300 364
f 300 301 364
f 301 302 364
f 302 303 364
f 303 304 364
f 304 305 364
f 305 306 364
f 306 307 364
f 307 308 364
f 308 309 364
f 309 310 364
f 310 311 364
f 311 312 364
f 312 313 364
f 313 314 364
f 314 315 364
f 315 316 364
f 316 317 364
f 317 318 364
f 318 319 364
f 319 320 364
f 320 321 364
f 321 322 364
f 322 323 364
f 323 324 364
f 324 325 364
f 325 326 364
f 326 327 364
f 327 328 364
f 328 329 364
f 329 330 364
f 330 331 364
f 331 299 364
