v 0.327815 0.000000 -1.413410
v 0.326133 -0.033164 -1.413410
v 0.321104 -0.065989 -1.413410
v 0.312781 -0.098136 -1.413410
v 0.301248 -0.129276 -1.413410
v 0.286624 -0.159089 -1.413410
v 0.269058 -0.187270 -1.413410
v 0.248732 -0.213529 -1.413410
v 0.225853 -0.237598 -1.413410
v 0.200657 -0.259228 -1.413410
v 0.173402 -0.278198 -1.413410
v 0.144368 -0.294313 -1.413410
v 0.113852 -0.307409 -1.413410
v 0.082168 -0.317350 -1.413410
v 0.049640 -0.324034 -1.413410
v 0.016604 -0.327394 -1.413410
v -0.016604 -0.327394 -1.413410
v -0.049640 -0.324034 -1.413410
v -0.082168 -0.317350 -1.413410
v -0.113852 -0.307409 -1.413410
v -0.144368 -0.294313 -1.413410
v -0.173402 -0.278198 -1.413410
v -0.200657 -0.259228 -1.413410
v -0.225853 -0.237598 -1.413410
v -0.248732 -0.213529 -1.413410
v -0.269058 -0.187270 -1.413410
v -0.286624 -0.159089 -1.413410
v -0.301248 -0.129276 -1.413410
v -0.312781 -0.098136 -1.413410
v -0.321104 -0.065989 -1.413410
v -0.326133 -0.033164 -1.413410
v -0.327815 0.000000 -1.413410
v 0.372132 0.000000 -1.517815
v 0.370222 -0.037648 -1.517815
v 0.364514 -0.074910 -1.517815
v 0.355065 -0.111403 -1.517815
v 0.341973 -0.146752 -1.517815
v 0.325372 -0.180596 -1.517815
v 0.305432 -0.212587 -1.517815
v 0.282358 -0.242396 -1.517815
v 0.256386 -0.269718 -1.517815
v 0.227784 -0.294273 -1.517815
v 0.196844 -0.315807 -1.517815
v 0.163885 -0.334102 -1.517815
v 0.129243 -0.348967 -1.517815
v 0.093276 -0.360252 -1.517815
v 0.056351 -0.367840 -1.517815
v 0.018848 -0.371654 -1.517815
v -0.018848 -0.371654 -1.517815
v -0.056351 -0.367840 -1.517815
v -0.093276 -0.360252 -1.517815
v -0.129243 -0.348967 -1.517815
v -0.163885 -0.334102 -1.517815
v -0.196844 -0.315807 -1.517815
v -0.227784 -0.294273 -1.517815
v -0.256386 -0.269718 -1.517815
v -0.282358 -0.242396 -1.517815
v -0.305432 -0.212587 -1.517815
v -0.325372 -0.180596 -1.517815
v -0.341973 -0.146752 -1.517815
v -0.355065 -0.111403 -1.517815
v -0.364514 -0.074910 -1.517815
v -0.370222 -0.037648 -1.517815
v -0.372132 0.000000 -1.517815
f 1 2 34
f 1 34 33
f 2 3 35
f 2 35 34
f 3 4 36
f 3 36 35
f 4 5 37
f 4 37 36
f 5 6 38
f 5 38 37
f 6 7 39
f 6 39 38
f 7 8 40
f 7 40 39
f 8 9 41
f 8 41 40
f 9 10 42
f 9 42 41
f 10 11 43
f 10 43 42
f 11 12 44
f 11 44 43
f 12 13 45
f 12 45 44
f 13 14 46
f 13 46 45
f 14 15 47
f 14 47 46
f 15 16 48
f 15 48 47
f 16 17 49
f 16 49 48
f 17 18 50
f 17 50 49
f 18 19 51
f 18 51 50
f 19 20 52
f 19 52 51
f 20 21 53
f 20 53 52
f 21 22 54
f 21 54 53
f 22 23 55
f 22 55 54
f 23 24 56
f 23 56 55
f 24 25 57
f 24 57 56
f 25 26 58
f 25 58 57
f 26 27 59
f 26 59 58
f 27 28 60
f 27 60 59
f 28 29 61
f 28 61 60
f 29 30 62
f 29 62 61
f 30 31 63
f 30 63 62
f 31 32 64
f 31 64 63
