v -0.163059 0.597775 -1.097769
v -0.165746 0.597036 -1.097769
v -0.168437 0.607066 -1.095000
v -0.157662 0.609953 -1.095000
v -0.157289 0.610049 -1.095000
v -0.156495 0.607622 -1.095680
v -0.115902 0.483665 -1.130371
v -0.115166 0.481416 -1.131000
v -0.116004 0.481215 -1.131000
v -0.140145 0.474747 -1.131000
v -0.140972 0.474502 -1.131000
v -0.141457 0.476814 -1.130372
v -0.139565 0.485732 -1.128231
v -0.141748 0.485099 -1.128231
v -0.122253 0.501071 -1.125462
v -0.142433 0.495712 -1.125462
v -0.144661 0.495067 -1.125462
v -0.127013 0.510593 -1.122692
v -0.143024 0.506342 -1.122692
v -0.145301 0.505693 -1.122692
v -0.129519 0.520671 -1.119923
v -0.145847 0.516335 -1.119923
v -0.148168 0.515674 -1.119923
v -0.132026 0.530748 -1.117154
v -0.148670 0.526329 -1.117154
v -0.151036 0.525655 -1.117154
v -0.134533 0.540826 -1.114385
v -0.151493 0.536322 -1.114385
v -0.153904 0.535636 -1.114385
v -0.139517 0.550281 -1.111615
v -0.151857 0.547005 -1.111615
v -0.154316 0.546316 -1.111615
v -0.142069 0.560348 -1.108846
v -0.154635 0.557011 -1.108846
v -0.157139 0.556310 -1.108846
v -0.144621 0.570414 -1.106077
v -0.157412 0.567017 -1.106077
v -0.159961 0.566303 -1.106077
v -0.149783 0.579812 -1.103308
v -0.157593 0.577738 -1.103308
v -0.160190 0.577023 -1.103308
v -0.152380 0.589866 -1.100538
v -0.160326 0.587757 -1.100538
v -0.162968 0.587029 -1.100538
v -0.154977 0.599921 -1.097769
v -0.160368 0.598503 -1.097769
v -0.158034 0.609857 -1.095000
v -0.116640 0.485917 -1.129741
v -0.139318 0.474990 -1.131000
v -0.137379 0.486355 -1.128231
v -0.140201 0.496348 -1.125462
v -0.140745 0.506980 -1.122692
v -0.143523 0.516986 -1.119923
v -0.146301 0.526992 -1.117154
v -0.149079 0.536998 -1.114385
v -0.149395 0.547682 -1.111615
v -0.152128 0.557701 -1.108846
v -0.154860 0.567719 -1.106077
v -0.154993 0.578441 -1.103308
v -0.157681 0.588472 -1.100538
v -0.157674 0.599218 -1.097769
v -0.158407 0.609760 -1.095000
v -0.117379 0.488173 -1.129110
v -0.138491 0.475232 -1.131000
v -0.135190 0.486968 -1.128231
v -0.137967 0.496974 -1.125462
v -0.138463 0.507608 -1.122692
v -0.141196 0.517626 -1.119923
v -0.143929 0.527645 -1.117154
v -0.146662 0.537664 -1.114385
v -0.146930 0.548349 -1.111615
v -0.149617 0.558379 -1.108846
v -0.152305 0.568410 -1.106077
v -0.152389 0.579132 -1.103308
v -0.155032 0.589175 -1.100538
v -0.158779 0.609663 -1.095000
v -0.118119 0.490432 -1.128479
v -0.137663 0.475472 -1.131000
v -0.132998 0.487571 -1.128231
v -0.135731 0.497589 -1.125462
v -0.136179 0.508226 -1.122692
v -0.138866 0.518256 -1.119923
v -0.141554 0.528287 -1.117154
v -0.144242 0.538318 -1.114385
v -0.144462 0.549004 -1.111615
v -0.147104 0.559047 -1.108846
v -0.149747 0.569090 -1.106077
v -0.168067 0.607169 -1.095000
v -0.159151 0.609566 -1.095000
v -0.118860 0.492694 -1.127846
v -0.136835 0.475711 -1.131000
v -0.130803 0.488164 -1.128231
v -0.133491 0.498195 -1.125462
v -0.133891 0.508833 -1.122692
v -0.136534 0.518876 -1.119923
v -0.139176 0.528919 -1.117154
v -0.141819 0.538961 -1.114385
v -0.141991 0.549648 -1.111615
v -0.144588 0.559703 -1.108846
v -0.147185 0.569757 -1.106077
v -0.167696 0.607271 -1.095000
v -0.159523 0.609469 -1.095000
v -0.119602 0.494959 -1.127212
v -0.136007 0.475949 -1.131000
v -0.128606 0.488747 -1.128231
v -0.131249 0.498790 -1.125462
v -0.131601 0.509430 -1.122692
v -0.134198 0.519485 -1.119923
v -0.136796 0.529539 -1.117154
v -0.139393 0.539594 -1.114385
v -0.167325 0.607373 -1.095000
v -0.159895 0.609371 -1.095000
v -0.120345 0.497228 -1.126577
v -0.135178 0.476185 -1.131000
v -0.168282 0.604459 -1.095681
v -0.168808 0.606963 -1.095000
v -0.119792 0.490982 -1.128231
v -0.126406 0.489321 -1.128231
v -0.129004 0.499376 -1.125462
v -0.129308 0.510017 -1.122692
v -0.131860 0.520083 -1.119923
v -0.134412 0.530149 -1.117154
v -0.136965 0.540215 -1.114385
v -0.166954 0.607475 -1.095000
v -0.160268 0.609274 -1.095000
v -0.121089 0.499500 -1.125942
v -0.134348 0.476419 -1.131000
v -0.167756 0.601959 -1.096361
v -0.124204 0.489885 -1.128231
v -0.126756 0.499951 -1.125462
v -0.166583 0.607577 -1.095000
v -0.160640 0.609176 -1.095000
v -0.121835 0.501776 -1.125305
v -0.133519 0.476653 -1.131000
v -0.167231 0.599463 -1.097039
v -0.121999 0.490438 -1.128231
v -0.124506 0.500516 -1.125462
v -0.166212 0.607679 -1.095000
v -0.161011 0.609077 -1.095000
v -0.122581 0.504055 -1.124668
v -0.132688 0.476884 -1.131000
v -0.166707 0.596970 -1.097717
v -0.165841 0.607780 -1.095000
v -0.161383 0.608979 -1.095000
v -0.123329 0.506337 -1.124029
v -0.131858 0.477115 -1.131000
v -0.166184 0.594481 -1.098394
v -0.165470 0.607881 -1.095000
v -0.161755 0.608880 -1.095000
v -0.124077 0.508623 -1.123390
v -0.131027 0.477344 -1.131000
v -0.165661 0.591995 -1.099070
v -0.165099 0.607982 -1.095000
v -0.162127 0.608781 -1.095000
v -0.124827 0.510912 -1.122749
v -0.130196 0.477571 -1.131000
v -0.165140 0.589512 -1.099745
v -0.164727 0.608083 -1.095000
v -0.162499 0.608682 -1.095000
v -0.125578 0.513205 -1.122108
v -0.129364 0.477797 -1.131000
v -0.164619 0.587034 -1.100419
v -0.164356 0.608183 -1.095000
v -0.162870 0.608583 -1.095000
v -0.126330 0.515500 -1.121466
v -0.128532 0.478022 -1.131000
v -0.164098 0.584558 -1.101092
v -0.163985 0.608284 -1.095000
v -0.163242 0.608483 -1.095000
v -0.127083 0.517799 -1.120822
v -0.127699 0.478245 -1.131000
v -0.163579 0.582086 -1.101764
v -0.163613 0.608384 -1.095000
v -0.127837 0.520102 -1.120178
v -0.126866 0.478466 -1.131000
v -0.163060 0.579618 -1.102435
v -0.128592 0.522408 -1.119533
v -0.126033 0.478686 -1.131000
v -0.162542 0.577153 -1.103106
v -0.129348 0.524717 -1.118887
v -0.125199 0.478905 -1.131000
v -0.162024 0.574691 -1.103775
v -0.155701 0.605197 -1.096359
v -0.130105 0.527030 -1.118240
v -0.124365 0.479122 -1.131000
v -0.161508 0.572233 -1.104443
v -0.154908 0.602776 -1.097036
v -0.130864 0.529346 -1.117592
v -0.123531 0.479338 -1.131000
v -0.160992 0.569779 -1.105110
v -0.154117 0.600359 -1.097713
v -0.131624 0.531665 -1.116942
v -0.122696 0.479553 -1.131000
v -0.160477 0.567328 -1.105777
v -0.153326 0.597944 -1.098389
v -0.132384 0.533988 -1.116292
v -0.121861 0.479766 -1.131000
v -0.159962 0.564881 -1.106442
v -0.152537 0.595533 -1.099065
v -0.133146 0.536314 -1.115642
v -0.121025 0.479977 -1.131000
v -0.159449 0.562437 -1.107106
v -0.151748 0.593125 -1.099739
v -0.133909 0.538643 -1.114990
v -0.120189 0.480187 -1.131000
v -0.158936 0.559996 -1.107770
v -0.150961 0.590721 -1.100412
v -0.134673 0.540976 -1.114337
v -0.119353 0.480396 -1.131000
v -0.158424 0.557559 -1.108432
v -0.150175 0.588319 -1.101084
v -0.135438 0.543312 -1.113683
v -0.118516 0.480603 -1.131000
v -0.157912 0.555125 -1.109094
v -0.149390 0.585921 -1.101756
v -0.136204 0.545651 -1.113028
v -0.117679 0.480808 -1.131000
v -0.157401 0.552695 -1.109754
v -0.148606 0.583526 -1.102426
v -0.136971 0.547994 -1.112373
v -0.116842 0.481012 -1.131000
v -0.156891 0.550269 -1.110414
v -0.147822 0.581135 -1.103096
v -0.137739 0.550340 -1.111716
v -0.156382 0.547846 -1.111072
v -0.147040 0.578746 -1.103764
v -0.138508 0.552689 -1.111059
v -0.141944 0.479130 -1.129743
v -0.155874 0.545426 -1.111730
v -0.146259 0.576361 -1.104432
v -0.139279 0.555042 -1.110400
v -0.142431 0.481449 -1.129113
v -0.155366 0.543010 -1.112387
v -0.145480 0.573979 -1.105099
v -0.140050 0.557398 -1.109741
v -0.142919 0.483772 -1.128482
v -0.154859 0.540598 -1.113042
v -0.144701 0.571601 -1.105765
v -0.140822 0.559757 -1.109080
v -0.143408 0.486098 -1.127850
v -0.154353 0.538189 -1.113697
v -0.143923 0.569225 -1.106430
v -0.141596 0.562119 -1.108419
v -0.143897 0.488428 -1.127218
v -0.153847 0.535783 -1.114351
v -0.143146 0.566853 -1.107094
v -0.144387 0.490762 -1.126584
v -0.153342 0.533382 -1.115004
v -0.142371 0.564485 -1.107757
v -0.144878 0.493099 -1.125949
v -0.152839 0.530983 -1.115655
v -0.145370 0.495440 -1.125313
v -0.152335 0.528589 -1.116306
v -0.145863 0.497784 -1.124676
v -0.151833 0.526197 -1.116956
v -0.146356 0.500132 -1.124038
v -0.151331 0.523810 -1.117605
v -0.146850 0.502484 -1.123399
v -0.150830 0.521426 -1.118253
v -0.147345 0.504839 -1.122759
v -0.150330 0.519046 -1.118899
v -0.147841 0.507198 -1.122119
v -0.149831 0.516669 -1.119545
v -0.148337 0.509560 -1.121477
v -0.149332 0.514296 -1.120190
v -0.148834 0.511926 -1.120834
f 1 2 3
f 4 5 6
f 7 8 9
f 10 11 12
f 13 14 15
f 16 17 18
f 19 20 21
f 22 23 24
f 25 26 27
f 28 29 30
f 31 32 33
f 34 35 36
f 37 38 39
f 40 41 42
f 43 44 45
f 46 1 3
f 47 4 6
f 48 7 9
f 49 10 12
f 50 13 15
f 51 16 18
f 52 19 21
f 53 22 24
f 54 25 27
f 55 28 30
f 56 31 33
f 57 34 36
f 58 37 39
f 59 40 42
f 60 43 45
f 61 46 3
f 62 47 6
f 63 48 9
f 64 49 12
f 65 50 15
f 66 51 18
f 67 52 21
f 68 53 24
f 69 54 27
f 70 55 30
f 71 56 33
f 72 57 36
f 73 58 39
f 74 59 42
f 75 60 45
f 45 61 3
f 76 62 6
f 77 63 9
f 78 64 12
f 79 65 15
f 80 66 18
f 81 67 21
f 82 68 24
f 83 69 27
f 84 70 30
f 85 71 33
f 86 72 36
f 87 73 39
f 39 74 42
f 42 75 45
f 45 3 88
f 89 76 6
f 90 77 9
f 91 78 12
f 92 79 15
f 93 80 18
f 94 81 21
f 95 82 24
f 96 83 27
f 97 84 30
f 98 85 33
f 99 86 36
f 100 87 39
f 45 88 101
f 102 89 6
f 103 90 9
f 104 91 12
f 105 92 15
f 106 93 18
f 107 94 21
f 108 95 24
f 109 96 27
f 110 97 30
f 30 98 33
f 33 99 36
f 36 100 39
f 45 101 111
f 112 102 6
f 113 103 9
f 114 104 12
f 115 116 117
f 118 105 15
f 119 106 18
f 120 107 21
f 121 108 24
f 122 109 27
f 123 110 30
f 36 39 42
f 45 111 124
f 125 112 6
f 126 113 9
f 127 114 12
f 128 115 117
f 129 118 15
f 130 119 18
f 18 120 21
f 21 121 24
f 24 122 27
f 36 42 45
f 45 124 131
f 132 125 6
f 133 126 9
f 134 127 12
f 135 128 117
f 136 129 15
f 137 130 18
f 45 131 138
f 139 132 6
f 140 133 9
f 141 134 12
f 142 135 117
f 117 136 15
f 15 137 18
f 45 138 143
f 144 139 6
f 145 140 9
f 146 141 12
f 147 142 117
f 15 18 21
f 45 143 148
f 149 144 6
f 150 145 9
f 151 146 12
f 152 147 117
f 15 21 24
f 45 148 153
f 154 149 6
f 155 150 9
f 156 151 12
f 157 152 117
f 45 153 158
f 159 154 6
f 160 155 9
f 161 156 12
f 162 157 117
f 45 158 163
f 164 159 6
f 165 160 9
f 166 161 12
f 167 162 117
f 45 163 168
f 169 164 6
f 170 165 9
f 171 166 12
f 172 167 117
f 45 168 173
f 173 169 6
f 174 170 9
f 175 171 12
f 176 172 117
f 45 173 6
f 177 174 9
f 178 175 12
f 179 176 117
f 36 45 6
f 180 177 9
f 181 178 12
f 182 179 117
f 36 6 183
f 184 180 9
f 185 181 12
f 186 182 117
f 36 183 187
f 188 184 9
f 189 185 12
f 190 186 117
f 36 187 191
f 192 188 9
f 193 189 12
f 194 190 117
f 36 191 195
f 196 192 9
f 197 193 12
f 198 194 117
f 36 195 199
f 200 196 9
f 201 197 12
f 202 198 117
f 36 199 203
f 204 200 9
f 205 201 12
f 206 202 117
f 15 24 27
f 36 203 207
f 208 204 9
f 209 205 12
f 210 206 117
f 27 123 30
f 36 207 211
f 212 208 9
f 213 209 12
f 214 210 117
f 27 30 33
f 36 211 215
f 216 212 9
f 217 213 12
f 218 214 117
f 36 215 219
f 220 216 9
f 221 217 12
f 222 218 117
f 27 33 36
f 36 219 223
f 224 220 9
f 9 221 12
f 225 222 117
f 36 223 226
f 227 224 9
f 9 12 228
f 229 225 117
f 36 226 230
f 231 227 9
f 9 228 232
f 233 229 117
f 36 230 234
f 235 231 9
f 9 232 236
f 237 233 117
f 36 234 238
f 239 235 9
f 9 236 240
f 241 237 117
f 36 238 242
f 243 239 9
f 9 240 244
f 245 241 117
f 36 242 246
f 9 244 247
f 248 245 117
f 36 246 249
f 9 247 250
f 251 248 117
f 36 249 243
f 9 250 252
f 253 251 117
f 27 36 243
f 9 252 254
f 255 253 117
f 9 254 256
f 257 255 117
f 9 256 258
f 259 257 117
f 9 258 260
f 261 259 117
f 9 260 262
f 263 261 117
f 9 262 264
f 265 263 117
f 9 264 266
f 266 265 117
f 9 266 117
f 9 117 15
f 243 9 15
