v 0.000000 0.009706 0.669583
v -0.037701 0.010000 0.668938
v -0.037701 0.000000 0.668938
v 0.037701 0.010000 0.668938
v 0.035271 0.010000 0.669071
v 0.032841 0.010000 0.669195
v 0.030410 0.010000 0.669310
v 0.027978 0.010000 0.669416
v 0.025547 0.010000 0.669513
v 0.023115 0.010000 0.669601
v 0.020682 0.010000 0.669681
v 0.018250 0.010000 0.669751
v 0.015817 0.010000 0.669813
v 0.013384 0.010000 0.669866
v 0.010951 0.010000 0.669911
v 0.008517 0.010000 0.669946
v 0.006084 0.010000 0.669972
v 0.003650 0.010000 0.669990
v 0.001217 0.010000 0.669999
v -0.001217 0.010000 0.669999
v -0.003650 0.010000 0.669990
v -0.006084 0.010000 0.669972
v -0.008517 0.010000 0.669946
v -0.010951 0.010000 0.669911
v -0.013384 0.010000 0.669866
v -0.015817 0.010000 0.669813
v -0.018250 0.010000 0.669751
v -0.020682 0.010000 0.669681
v -0.023115 0.010000 0.669601
v -0.025547 0.010000 0.669513
v -0.027978 0.010000 0.669416
v -0.030410 0.010000 0.669310
v -0.032841 0.010000 0.669195
v -0.035271 0.010000 0.669071
v -0.037701 0.010000 0.668938
v 0.037701 0.000000 0.668938
v 0.037701 0.010000 0.668938
v 0.037701 0.010000 0.668938
v 0.035271 0.010000 0.669071
v 0.032841 0.010000 0.669195
v 0.030410 0.010000 0.669310
v 0.027978 0.010000 0.669416
v 0.025547 0.010000 0.669513
v 0.023115 0.010000 0.669601
v 0.020682 0.010000 0.669681
v 0.018250 0.010000 0.669751
v 0.015817 0.010000 0.669813
v 0.013384 0.010000 0.669866
v 0.010951 0.010000 0.669911
v 0.008517 0.010000 0.669946
v 0.006084 0.010000 0.669972
v 0.003650 0.010000 0.669990
v 0.001217 0.010000 0.669999
v -0.001217 0.010000 0.669999
v -0.003650 0.010000 0.669990
v -0.006084 0.010000 0.669972
v -0.008517 0.010000 0.669946
v -0.010951 0.010000 0.669911
v -0.013384 0.010000 0.669866
v -0.015817 0.010000 0.669813
v -0.018250 0.010000 0.669751
v -0.020682 0.010000 0.669681
v -0.023115 0.010000 0.669601
v -0.025547 0.010000 0.669513
v -0.027978 0.010000 0.669416
v -0.030410 0.010000 0.669310
v -0.032841 0.010000 0.669195
v -0.035271 0.010000 0.669071
v -0.037701 0.010000 0.668938
f 1 2 3
f 1 3 4
f 1 4 5
f 1 5 6
f 1 6 7
f 1 7 8
f 1 8 9
f 1 9 10
f 1 10 11
f 1 11 12
f 1 12 13
f 1 13 14
f 1 14 15
f 1 15 16
f 1 16 17
f 1 17 18
f 1 18 19
f 1 19 20
f 1 20 21
f 1 21 22
f 1 22 23
f 1 23 24
f 1 24 25
f 1 25 26
f 1 26 27
f 1 27 28
f 1 28 29
f 1 29 30
f 1 30 31
f 1 31 32
f 1 32 33
f 1 33 34
f 1 34 35
f 1 35 36
f 1 36 37
f 1 37 38
f 1 38 39
f 1 39 40
f 1 40 41
f 1 41 42
f 1 42 43
f 1 43 44
f 1 44 45
f 1 45 46
f 1 46 47
f 1 47 48
f 1 48 49
f 1 49 50
f 1 50 51
f 1 51 52
f 1 52 53
f 1 53 54
f 1 54 55
f 1 55 56
f 1 56 57
f 1 57 58
f 1 58 59
f 1 59 60
f 1 60 61
f 1 61 62
f 1 62 63
f 1 63 64
f 1 64 65
f 1 65 66
f 1 66 67
f 1 67 68
f 1 68 69
f 1 69 2
