v -2.695000 0.350000 -6.388000
v -2.695539 0.350000 -6.377377
v -2.697149 0.350000 -6.366864
v -2.699815 0.350000 -6.356567
v -2.703509 0.350000 -6.346593
v -2.708194 0.350000 -6.337043
v -2.713820 0.350000 -6.328017
v -2.720330 0.350000 -6.319606
v -2.727658 0.350000 -6.311897
v -2.735729 0.350000 -6.304969
v -2.744459 0.350000 -6.298892
v -2.753759 0.350000 -6.293731
v -2.763533 0.350000 -6.289536
v -2.773681 0.350000 -6.286352
v -2.784100 0.350000 -6.284211
v -2.794682 0.350000 -6.283135
v -2.805318 0.350000 -6.283135
v -2.815900 0.350000 -6.284211
v -2.826319 0.350000 -6.286352
v -2.836467 0.350000 -6.289536
v -2.846241 0.350000 -6.293731
v -2.855541 0.350000 -6.298892
v -2.864271 0.350000 -6.304969
v -2.872342 0.350000 -6.311897
v -2.879670 0.350000 -6.319606
v -2.886180 0.350000 -6.328017
v -2.891806 0.350000 -6.337043
v -2.896491 0.350000 -6.346593
v -2.900185 0.350000 -6.356567
v -2.902851 0.350000 -6.366864
v -2.904461 0.350000 -6.377377
v -2.905000 0.350000 -6.388000
v -2.695000 0.300000 -6.388000
v -2.695539 0.300000 -6.377377
v -2.697149 0.300000 -6.366864
v -2.699815 0.300000 -6.356567
v -2.703509 0.300000 -6.346593
v -2.708194 0.300000 -6.337043
v -2.713820 0.300000 -6.328017
v -2.720330 0.300000 -6.319606
v -2.727658 0.300000 -6.311897
v -2.735729 0.300000 -6.304969
v -2.744459 0.300000 -6.298892
v -2.753759 0.300000 -6.293731
v -2.763533 0.300000 -6.289536
v -2.773681 0.300000 -6.286352
v -2.784100 0.300000 -6.284211
v -2.794682 0.300000 -6.283135
v -2.805318 0.300000 -6.283135
v -2.815900 0.300000 -6.284211
v -2.826319 0.300000 -6.286352
v -2.836467 0.300000 -6.289536
v -2.846241 0.300000 -6.293731
v -2.855541 0.300000 -6.298892
v -2.864271 0.300000 -6.304969
v -2.872342 0.300000 -6.311897
v -2.879670 0.300000 -6.319606
v -2.886180 0.300000 -6.328017
v -2.891806 0.300000 -6.337043
v -2.896491 0.300000 -6.346593
v -2.900185 0.300000 -6.356567
v -2.902851 0.300000 -6.366864
v -2.904461 0.300000 -6.377377
v -2.905000 0.300000 -6.388000
f 1 34 2
f 1 33 34
f 2 35 3
f 2 34 35
f 3 36 4
f 3 35 36
f 4 37 5
f 4 36 37
f 5 38 6
f 5 37 38
f 6 39 7
f 6 38 39
f 7 40 8
f 7 39 40
f 8 41 9
f 8 40 41
f 9 42 10
f 9 41 42
f 10 43 11
f 10 42 43
f 11 44 12
f 11 43 44
f 12 45 13
f 12 44 45
f 13 46 14
f 13 45 46
f 14 47 15
f 14 46 47
f 15 48 16
f 15 47 48
f 16 49 17
f 16 48 49
f 17 50 18
f 17 49 50
f 18 51 19
f 18 50 51
f 19 52 20
f 19 51 52
f 20 53 21
f 20 52 53
f 21 54 22
f 21 53 54
f 22 55 23
f 22 54 55
f 23 56 24
f 23 55 56
f 24 57 25
f 24 56 57
f 25 58 26
f 25 57 58
f 26 59 27
f 26 58 59
f 27 60 28
f 27 59 60
f 28 61 29
f 28 60 61
f 29 62 30
f 29 61 62
f 30 63 31
f 30 62 63
f 31 64 32
f 31 63 64
