v 2.055272 -1.119256 -5.715969
v 2.014347 -1.132662 -5.663909
v 2.007469 -1.133521 -5.660194
v 2.000584 -1.134368 -5.656475
v 1.993690 -1.135204 -5.652752
v 1.567341 -1.162528 -5.433143
v 1.986788 -1.136027 -5.649024
v 1.979878 -1.136839 -5.645292
v 1.972959 -1.137639 -5.641555
v 1.966031 -1.138427 -5.637814
v 1.959095 -1.139203 -5.634068
v 1.952150 -1.139967 -5.630317
v 1.945196 -1.140719 -5.626561
v 1.938234 -1.141459 -5.622801
v 1.931262 -1.142187 -5.619035
v 1.924281 -1.142904 -5.615265
v 1.917293 -1.143608 -5.611490
v 1.910295 -1.144300 -5.607711
v 1.903290 -1.144980 -5.603928
v 1.896278 -1.145648 -5.600141
v 1.889258 -1.146304 -5.596349
v 1.882231 -1.146947 -5.592554
v 1.875198 -1.147579 -5.588756
v 1.868158 -1.148197 -5.584953
v 1.861113 -1.148804 -5.581148
v 1.854061 -1.149398 -5.577340
v 1.847004 -1.149980 -5.573528
v 1.839942 -1.150549 -5.569714
v 1.832876 -1.151106 -5.565897
v 1.825804 -1.151650 -5.562078
v 1.818729 -1.152182 -5.558257
v 1.811650 -1.152701 -5.554434
v 1.804567 -1.153207 -5.550608
v 1.797481 -1.153701 -5.546781
v 1.790391 -1.154181 -5.542952
v 1.783298 -1.154650 -5.539121
v 1.776201 -1.155105 -5.535288
v 1.769101 -1.155548 -5.531453
v 1.761996 -1.155978 -5.527616
v 1.754888 -1.156395 -5.523777
v 1.658874 -1.160758 -5.472199
v 1.747776 -1.156800 -5.519936
v 1.740660 -1.157192 -5.516093
v 1.733540 -1.157571 -5.512247
v 1.726416 -1.157938 -5.508399
v 1.719287 -1.158292 -5.504549
v 1.712154 -1.158633 -5.500697
v 1.705017 -1.158961 -5.496842
v 1.697875 -1.159277 -5.492985
v 1.690729 -1.159580 -5.489125
v 1.683578 -1.159870 -5.485263
v 1.676422 -1.160148 -5.481398
v 1.670562 -1.160364 -5.478264
v 1.664712 -1.160567 -5.475198
v 1.653048 -1.160937 -5.469267
v 1.647234 -1.161106 -5.466403
v 1.641433 -1.161263 -5.463604
v 1.635644 -1.161410 -5.460872
v 1.629869 -1.161547 -5.458206
v 1.624107 -1.161674 -5.455606
v 1.618360 -1.161793 -5.453070
v 1.612628 -1.161903 -5.450600
v 1.606910 -1.162005 -5.448195
v 1.601208 -1.162099 -5.445854
v 1.595521 -1.162186 -5.443577
v 1.589851 -1.162266 -5.441363
v 1.584198 -1.162340 -5.439214
v 1.578561 -1.162408 -5.437127
v 1.572942 -1.162470 -5.435104
v 1.561758 -1.162581 -5.431244
v 1.556192 -1.162629 -5.429406
v 1.550642 -1.162673 -5.427630
v 1.545110 -1.162713 -5.425914
v 1.539593 -1.162750 -5.424259
v 1.534093 -1.162782 -5.422662
v 1.528608 -1.162812 -5.421125
v 1.523137 -1.162838 -5.419646
v 1.517682 -1.162861 -5.418224
v 1.512240 -1.162881 -5.416860
v 1.506812 -1.162899 -5.415553
v 1.501398 -1.162915 -5.414302
v 1.495997 -1.162929 -5.413107
v 1.490609 -1.162940 -5.411967
v 1.485232 -1.162950 -5.410881
v 1.479868 -1.162959 -5.409850
v 1.050000 -1.153087 -5.551522
v 1.474515 -1.162966 -5.408872
v 1.469173 -1.162973 -5.407947
v 1.463842 -1.162978 -5.407075
v 1.458522 -1.162983 -5.406255
v 1.453213 -1.162987 -5.405487
v 1.447915 -1.162991 -5.404770
v 1.442629 -1.162993 -5.404105
v 1.437354 -1.162996 -5.403491
v 1.432091 -1.162998 -5.402928
v 1.426839 -1.162999 -5.402415
v 1.421600 -1.163000 -5.401953
v 1.416372 -1.163000 -5.401540
v 1.411157 -1.163001 -5.401177
v 1.405954 -1.163001 -5.400863
v 1.400763 -1.163001 -5.400599
v 1.395585 -1.163001 -5.400383
v 1.390419 -1.163000 -5.400215
v 1.385267 -1.163000 -5.400096
v 1.380127 -1.163000 -5.400024
v 1.375000 -1.163000 -5.400000
v 1.375000 -0.046829 -4.237943
v 1.375000 0.000000 -4.237000
v 0.825423 0.000000 -4.237000
v 0.760834 -0.252483 -4.264740
v 1.375000 -0.621584 -4.417044
v 0.770255 -0.233743 -4.260734
v 0.750584 -0.271265 -4.269080
v 1.375000 -0.771212 -4.529482
v 0.979868 -0.960260 -4.743897
v 0.981520 -0.960769 -4.744643
v 0.978215 -0.959755 -4.743159
v 0.599906 -0.457007 -4.330561
v 0.735000 -0.929952 -4.701603
v 0.825000 -0.929952 -4.701603
v 0.579891 -0.474897 -4.338383
v 0.357065 -0.624510 -4.418906
v 0.510000 -0.929952 -4.701603
v 0.385871 -0.609051 -4.409233
v 0.375000 -0.929952 -4.701603
v 0.377150 -0.783508 -4.540533
v -0.497064 -0.786726 -4.543478
v 0.285000 -1.162988 -5.405362
v 0.285000 -1.162800 -5.378416
v -0.513902 -0.786080 -4.542885
v -0.508296 -0.786291 -4.543078
v -0.530665 -0.785487 -4.542341
v -0.519500 -0.785875 -4.542697
v 0.285000 -1.161491 -5.459229
v -0.525088 -0.785677 -4.542515
v -0.536230 -0.785305 -4.542174
v -0.541782 -0.785132 -4.542015
v -0.547324 -0.784966 -4.541864
v -0.552854 -0.784809 -4.541720
v -0.558375 -0.784660 -4.541584
v -0.563885 -0.784520 -4.541456
v -0.569387 -0.784387 -4.541335
v -0.574880 -0.784263 -4.541221
v 0.285000 -1.159807 -5.486122
v -0.580365 -0.784147 -4.541116
v -0.585842 -0.784040 -4.541017
v -0.591312 -0.783940 -4.540926
v -0.596775 -0.783848 -4.540843
v -0.602232 -0.783765 -4.540767
v -0.607684 -0.783690 -4.540698
v -0.613131 -0.783622 -4.540637
v -0.618573 -0.783563 -4.540583
v -0.624011 -0.783512 -4.540536
v -0.629446 -0.783469 -4.540497
v 0.285000 -1.157500 -5.512969
v -1.171011 -0.617304 -4.414350
v -2.540000 -0.617304 -4.414350
v -2.361163 -0.783508 -4.540533
v -2.875221 -0.800202 -6.243947
v -2.800612 -0.530569 -4.365081
v -2.808527 -0.524077 -4.361780
v -2.647437 -0.604345 -4.406351
v -2.812620 -0.818735 -6.225980
v -2.803426 -0.819185 -6.225533
v -2.915000 0.000000 -4.237000
v -3.625000 0.000000 -4.237000
v -3.414361 -0.213701 -4.256802
v -2.915000 -0.285419 -4.272567
v -3.012500 -0.350000 -4.290915
v -2.915000 -0.293177 -4.274560
v -3.337500 -0.350000 -4.290915
v -3.625000 -0.093583 -4.240771
v -2.543183 0.000000 -6.563000
v -2.542411 -0.026808 -6.562690
v -2.962500 -0.350000 -6.509085
v -2.432229 -1.091808 -5.800660
v -2.435956 -1.082263 -5.825776
v -2.428570 -1.100779 -5.775306
v -2.425000 -1.109173 -5.749721
v 2.045720 -1.109173 -5.749721
v 2.046037 -1.109515 -5.748634
v 2.046354 -1.109856 -5.747546
v 2.047928 -1.111545 -5.742107
v 2.050415 -1.114187 -5.733400
v 2.046985 -1.110535 -5.745371
v 2.047300 -1.110873 -5.744283
v 2.047614 -1.111209 -5.743195
v 1.050000 -1.149969 -5.573609
v 2.048241 -1.111879 -5.741019
v 2.048553 -1.112212 -5.739931
v 2.048865 -1.112544 -5.738843
v 2.049176 -1.112875 -5.737754
v 2.049487 -1.113205 -5.736666
v 2.049797 -1.113533 -5.735577
v 2.050106 -1.113861 -5.734489
v 2.050723 -1.114513 -5.732311
v 2.051030 -1.114837 -5.731222
v 2.051337 -1.115160 -5.730133
v 2.051644 -1.115481 -5.729044
v 2.051949 -1.115802 -5.727955
v 2.052254 -1.116122 -5.726866
v 2.052559 -1.116440 -5.725776
v 2.052863 -1.116758 -5.724687
v 2.053166 -1.117074 -5.723597
v 2.053469 -1.117389 -5.722508
v 2.053771 -1.117703 -5.721418
v 2.054072 -1.118016 -5.720328
v 2.054373 -1.118327 -5.719238
v 2.054673 -1.118638 -5.718149
v 2.054973 -1.118947 -5.717059
v 2.034930 -1.130014 -5.675026
v 2.055570 -1.119563 -5.714879
v 2.055868 -1.119869 -5.713788
v 2.056166 -1.120174 -5.712698
v 2.056462 -1.120477 -5.711608
v 2.056758 -1.120780 -5.710518
v 2.057054 -1.121082 -5.709427
v 2.057348 -1.121382 -5.708337
v 2.057643 -1.121681 -5.707246
v 2.057936 -1.121980 -5.706155
v 2.058229 -1.122277 -5.705065
v 2.058522 -1.122573 -5.703974
v 2.058813 -1.122867 -5.702883
v 2.059104 -1.123161 -5.701792
v 2.059395 -1.123454 -5.700702
v 2.059685 -1.123745 -5.699611
v 2.059974 -1.124035 -5.698520
v 2.060263 -1.124325 -5.697428
v 2.060551 -1.124613 -5.696337
v 2.060838 -1.124900 -5.695246
v 2.061125 -1.125185 -5.694155
v 2.061411 -1.125470 -5.693064
v 2.061697 -1.125754 -5.691972
v 2.061982 -1.126036 -5.690881
v 2.062266 -1.126318 -5.689790
v 2.055444 -1.127259 -5.686105
v 2.048614 -1.128189 -5.682416
v 2.041776 -1.129107 -5.678723
v 2.028077 -1.130908 -5.671324
v 2.021216 -1.131791 -5.667619
v 1.375000 -0.093583 -4.240771
v 0.778863 -0.215062 -4.257059
v 0.960000 -0.954457 -4.735484
v 0.825000 -0.945882 -4.723335
v 0.825000 -0.961305 -4.745430
v 0.739488 -0.290071 -4.273755
v 0.619013 -0.438925 -4.323012
v 0.558967 -0.492574 -4.346465
v 0.413613 -0.593258 -4.399693
v 0.327174 -0.639598 -4.428672
v 0.285000 -1.162551 -5.432304
v -1.160925 -0.624045 -4.418606
v -2.792449 -0.536879 -4.368339
v -2.668472 -0.598602 -4.402879
v -2.821794 -0.817751 -6.226955
v -2.915000 -0.008010 -4.237028
v -3.625000 -0.186558 -4.252061
v -2.993082 -0.213701 -6.543198
v -2.439728 -1.072148 -5.850645
v 2.046670 -1.110196 -5.746459
v 1.375000 -0.140184 -4.245480
v 0.786674 -0.196460 -4.253714
v 0.960000 -0.968508 -4.756136
v 0.825000 -0.976212 -4.767877
v 0.976562 -0.959253 -4.742427
v 0.637212 -0.420674 -4.315751
v 0.537132 -0.510013 -4.354793
v 0.587790 -0.612241 -4.411197
v 0.440310 -0.577165 -4.390320
v 0.296180 -0.654276 -4.438493
v -0.502683 -0.786506 -4.543276
v -1.150844 -0.630616 -4.422815
v -2.866780 -0.804487 -6.239863
v -2.784047 -0.542997 -4.371544
v -2.689185 -0.591815 -4.398837
v -2.830947 -0.816217 -6.228468
v -2.915000 -0.016020 -4.237110
v -3.625000 -0.278324 -4.270795
v -3.625000 0.000000 -6.563000
v -3.625000 -0.093583 -6.559229
v -2.443525 -1.061466 -5.875259
v 1.375000 -0.186558 -4.252061
v 0.793705 -0.177954 -4.250695
v 0.960000 -0.982112 -4.777084
v 0.825000 -0.990595 -4.790664
v 0.974909 -0.958756 -4.741702
v 0.654505 -0.402278 -4.308789
v 0.514373 -0.527201 -4.363355
v 0.600000 -0.929952 -4.701603
v 0.264063 -0.668505 -4.448330
v -0.491442 -0.786948 -4.543682
v -1.140770 -0.637019 -4.426976
v -2.775413 -0.548909 -4.374686
v -2.709456 -0.583993 -4.394256
v -2.840075 -0.814119 -6.230529
v -2.915000 -0.024029 -4.237248
v -3.625000 -0.368285 -4.296852
v -3.414361 -0.213701 -6.543198
v -2.447324 -1.050222 -5.899610
v 1.050000 -1.155781 -5.529380
v 1.375000 -0.232630 -4.260503
v 0.799976 -0.159552 -4.247996
v 0.960000 -0.995264 -4.798320
v 0.825000 -1.004446 -4.813777
v 0.973255 -0.958263 -4.740984
v 0.670895 -0.383758 -4.302139
v 0.587790 -0.783508 -4.540533
v 0.465986 -0.560785 -4.381131
v 0.285000 -0.929952 -4.701603
v -0.485818 -0.787173 -4.543889
v -0.639110 -0.783404 -4.540437
v -1.130704 -0.643255 -4.431087
v -2.858062 -0.808242 -6.236250
v -2.766559 -0.554609 -4.377757
v -2.738791 -0.570369 -4.386467
v -2.849137 -0.811457 -6.233131
v -2.915000 -0.032036 -4.237441
v -3.337500 -0.358224 -4.293544
v -3.625000 -0.186558 -6.547939
v -3.625000 -0.278324 -6.529205
v -2.451106 -1.038420 -5.923691
v 1.430348 -1.158039 -5.507308
v 1.050000 -1.158050 -5.507190
v 1.375000 -0.278324 -4.270795
v 0.805507 -0.141265 -4.245611
v 0.960000 -1.007956 -4.819833
v 0.825000 -1.017758 -4.837205
v 0.971600 -0.957773 -4.740273
v 0.686386 -0.365137 -4.295808
v 0.490665 -0.544128 -4.372139
v 0.375000 -0.945882 -4.723335
v 0.230808 -0.682247 -4.458143
v -0.480193 -0.787399 -4.544097
v -1.120648 -0.649326 -4.435144
v -2.757497 -0.560090 -4.380750
v -2.915000 -0.040043 -4.237690
v -3.337500 -0.366428 -4.296234
v -3.625000 -0.368285 -6.503148
v 1.375000 -0.323567 -4.282917
v 1.219708 -0.213701 -4.256802
v 0.810317 -0.123102 -4.243534
v 0.960000 -1.020183 -4.841614
v 0.825000 -1.030523 -4.860935
v 0.969945 -0.957288 -4.739569
v 0.798429 -0.612241 -4.411197
v 0.196502 -0.695438 -4.467858
v -0.474569 -0.787625 -4.544305
v -1.110604 -0.655233 -4.439145
v -2.748237 -0.565345 -4.383655
v -2.915000 -0.048047 -4.237993
v -3.337500 -0.374612 -4.298985
v -2.962500 -0.357103 -6.506818
v 1.050000 -1.159893 -5.484961
v 1.050000 -1.161309 -5.462700
v 1.375000 -0.368285 -4.296852
v 0.814428 -0.105070 -4.241756
v 0.960000 -1.031940 -4.863652
v 0.825000 -1.042735 -4.884955
v 0.968289 -0.956806 -4.738871
v 0.510000 -0.945882 -4.723335
v 0.161333 -0.707995 -4.477370
v -1.100573 -0.660979 -4.443089
v -2.915000 -0.056049 -4.238351
v -3.337500 -0.382775 -4.301796
v -2.962500 -0.364191 -6.504506
v 1.375000 -0.412405 -4.312576
v 0.817858 -0.087180 -4.240272
v 0.960000 -1.043221 -4.885938
v 0.825000 -1.054388 -4.909251
v 0.966632 -0.956328 -4.738180
v 0.700984 -0.346436 -4.289799
v 0.510000 -0.961305 -4.745430
v 0.125495 -0.719832 -4.486574
v 0.285000 -1.154572 -5.539755
v -0.648781 -0.783251 -4.540297
v -1.090557 -0.666565 -4.446971
v -2.729171 -0.575155 -4.389176
v -2.883360 -0.795383 -6.248491
v -2.915000 -0.064049 -4.238765
v -3.337500 -0.390917 -4.304668
v -2.962500 -0.371265 -6.502149
v 1.375000 -0.455857 -4.330064
v 0.820626 -0.069438 -4.239074
v 0.960000 -1.054020 -4.908461
v 0.960000 -1.064334 -4.931211
v 0.964975 -0.955855 -4.737496
v 0.714697 -0.327677 -4.284118
v 0.375000 -0.961305 -4.745430
v 0.166511 -0.783508 -4.540533
v -1.080558 -0.671992 -4.450791
v -2.719389 -0.579699 -4.391775
v -2.816184 -0.517415 -4.358444
v -2.915000 -0.072045 -4.239234
v -3.337500 -0.399038 -4.307600
v -2.962500 -0.378323 -6.499746
v 1.375000 -0.498569 -4.349287
v 0.822750 -0.051845 -4.238156
v 0.825000 -1.065475 -4.933810
v 0.960000 -1.074156 -4.954177
v 0.963317 -0.955385 -4.736819
v 0.727529 -0.308881 -4.278768
v 0.510000 -0.976212 -4.767877
v 0.089181 -0.730864 -4.495363
v 0.052584 -0.741006 -4.503630
v -1.070577 -0.677262 -4.454544
v -2.823575 -0.510595 -4.355082
v -2.915000 -0.080038 -4.239757
v -3.337500 -0.407136 -4.310592
v 1.375000 -0.540473 -4.370215
v 0.824246 -0.034406 -4.237509
v 0.825000 -1.075989 -4.958620
v 0.960000 -1.083483 -4.977349
v 0.961659 -0.954919 -4.736148
v 0.375000 -0.976212 -4.767877
v 0.015891 -0.750187 -4.511281
v 0.285000 -1.151025 -5.566466
v -1.060616 -0.682376 -4.458230
v -2.699383 -0.588033 -4.396612
v -3.012500 -0.358224 -4.293544
v -2.915000 -0.088027 -4.240336
v -3.337500 -0.415213 -4.313645
v 1.009069 -0.783508 -4.540533
v 0.825131 -0.017123 -4.237126
v 0.825000 -1.085926 -4.983666
v 0.960000 -1.092310 -5.000715
v 0.510000 -0.990595 -4.790664
v -0.020731 -0.758402 -4.518271
v -0.658459 -0.783011 -4.540077
v -1.050677 -0.687337 -4.461845
v -2.830691 -0.503629 -4.351705
v -2.915000 -0.096012 -4.240970
v -3.414361 -0.420124 -4.315535
v 1.375000 -0.581500 -4.392812
v 0.983172 -0.961282 -4.745396
v 0.825000 -1.095280 -5.008937
v 0.960000 -1.100633 -5.024266
v 0.735000 -0.945882 -4.723335
v 0.375000 -0.990595 -4.790664
v 0.285000 -0.945882 -4.723335
v -0.668144 -0.782680 -4.539775
v -1.040761 -0.692146 -4.465387
v -2.678876 -0.595338 -4.400927
v -2.844063 -0.489304 -4.344940
v -2.837523 -0.496528 -4.348321
v -2.915000 -0.103993 -4.241659
v -3.625000 -0.455857 -4.330064
v -3.337500 -0.423266 -4.316757
v 0.984823 -0.961799 -4.746156
v 0.825000 -1.104046 -5.034417
v 0.960000 -1.108449 -5.047990
v 0.600000 -0.945882 -4.723335
v 0.510000 -1.004446 -4.813777
v 0.285000 -0.961305 -4.745430
v -0.677839 -0.782259 -4.539390
v 0.285000 -1.146859 -5.593088
v -1.030870 -0.696805 -4.468854
v -2.915000 -0.111968 -4.242402
v -3.337500 -0.431296 -4.319929
v 1.375000 -0.660659 -4.442870
v 1.219708 -0.783508 -4.540533
v 0.986474 -0.962320 -4.746923
v 0.825000 -1.112220 -5.060093
v 0.960000 -1.115753 -5.071877
v 0.735000 -0.961305 -4.745430
v 0.375000 -1.004446 -4.813777
v -0.057121 -0.765662 -4.524570
v 0.285000 -1.142078 -5.619607
v -1.021004 -0.701315 -4.472243
v -2.657987 -0.601604 -4.404688
v -2.850307 -0.481968 -4.341569
v -2.915000 -0.119938 -4.243201
v -3.337500 -0.439302 -4.323161
v 1.375000 -0.698663 -4.470248
v 0.988124 -0.962844 -4.747697
v 0.825000 -1.119796 -5.085952
v 0.960000 -1.122542 -5.095915
v 0.600000 -0.961305 -4.745430
v 0.510000 -1.017758 -4.837205
v 0.285000 -0.976212 -4.767877
v -0.687542 -0.781745 -4.538923
v -1.011160 -0.705678 -4.475555
v -2.856255 -0.474527 -4.338213
v -2.993082 -0.213701 -4.256802
v -3.337500 -0.447284 -4.326452
v 1.375000 -0.735534 -4.499134
v 0.989774 -0.963373 -4.748478
v 0.825000 -1.126771 -5.111979
v 0.960000 -1.128814 -5.120093
v 0.735000 -0.976212 -4.767877
v 0.375000 -1.017758 -4.837205
v 0.285000 -0.990595 -4.790664
v -1.001336 -0.709899 -4.478788
v -2.636836 -0.606823 -4.407863
v -2.891199 -0.790017 -6.253489
v -2.915000 -0.127903 -4.244055
v -3.337500 -0.455241 -4.329802
v 0.991423 -0.963906 -4.749266
v 0.825000 -1.133141 -5.138161
v 0.960000 -1.134565 -5.144400
v 0.600000 -0.976212 -4.767877
v 0.510000 -1.030523 -4.860935
v 0.166511 -0.928094 -4.699136
v -0.991528 -0.713979 -4.481944
v -2.626199 -0.609036 -4.409220
v -2.861907 -0.466990 -4.334877
v -2.915000 -0.135861 -4.244963
v -3.337500 -0.463174 -4.333211
v 0.994720 -0.964983 -4.750865
v 1.375000 -0.805638 -4.561242
v 0.993072 -0.964442 -4.750062
v 0.825000 -1.138903 -5.164484
v 0.960000 -1.139793 -5.168825
v 0.735000 -0.990595 -4.790664
v 0.375000 -1.030523 -4.860935
v -0.093120 -0.771977 -4.530145
v 0.285000 -1.004446 -4.813777
v -0.981733 -0.717920 -4.485020
v -2.794214 -0.819115 -6.225603
v -2.867263 -0.459366 -4.331567
v -2.915000 -0.143813 -4.245926
v -3.337500 -0.471080 -4.336679
v 1.375000 -0.838758 -4.594362
v 1.019331 -0.973536 -4.763764
v 0.825000 -1.144054 -5.190933
v 0.960000 -1.144495 -5.193357
v 0.600000 -0.990595 -4.790664
v 0.510000 -1.042735 -4.884955
v 0.285000 -1.017758 -4.837205
v -0.971949 -0.721726 -4.488018
v -2.615539 -0.610985 -4.410420
v -3.012500 -0.366428 -4.296234
v -3.012500 -0.374612 -4.298985
v -2.915000 -0.151758 -4.246944
v -3.337500 -0.478961 -4.340205
v 1.037161 -0.980303 -4.774240
v 1.038772 -0.980938 -4.775236
v 0.996368 -0.965527 -4.751675
v 0.825000 -1.148591 -5.217494
v 0.960000 -1.148668 -5.217984
v 0.735000 -1.004446 -4.813777
v 0.375000 -1.042735 -4.884955
v -0.128565 -0.777359 -4.534963
v -0.962171 -0.725399 -4.490937
v -2.604857 -0.612669 -4.411461
v -2.872325 -0.451664 -4.328288
v -2.915000 -0.159696 -4.248016
v -3.337500 -0.486815 -4.343790
v 1.041988 -0.982218 -4.777250
v 1.040381 -0.981576 -4.776239
v 0.998015 -0.966076 -4.752492
v 0.960000 -1.152313 -5.242695
v 0.825000 -1.152511 -5.244153
v 0.600000 -1.004446 -4.813777
v 0.510000 -1.054388 -4.909251
v 0.285000 -1.030523 -4.860935
v -0.952397 -0.728941 -4.493776
v -2.594146 -0.614090 -4.412343
v -2.877091 -0.443891 -4.325045
v -2.915000 -0.167627 -4.249144
v -3.337500 -0.494643 -4.347433
v 1.043594 -0.982863 -4.778268
v 1.375000 -0.870518 -4.628788
v 0.999662 -0.966628 -4.753316
v 0.960000 -1.155425 -5.267479
v 0.825000 -1.155812 -5.270896
v 0.735000 -1.017758 -4.837205
v 0.375000 -1.054388 -4.909251
v 0.285000 -1.042735 -4.884955
v -0.942625 -0.732356 -4.496535
v -2.784996 -0.818524 -6.226191
v -3.012500 -0.382775 -4.301796
v -2.915000 -0.175549 -4.250325
v -3.337500 -0.502443 -4.351134
v 1.046800 -0.984162 -4.780328
v 1.045198 -0.983511 -4.779294
v 1.001307 -0.967183 -4.754148
v 0.960000 -1.158005 -5.292324
v 0.825000 -1.158493 -5.297708
v 0.600000 -1.017758 -4.837205
v 0.510000 -1.065475 -4.933810
v -0.163301 -0.781818 -4.538995
v -0.932850 -0.735645 -4.499214
v -2.583403 -0.615250 -4.413064
v -2.881563 -0.436058 -4.321843
v -2.915000 -0.183463 -4.251562
v -3.625000 -0.540473 -4.370215
v 1.050000 -0.985475 -4.782418
v 1.048401 -0.984817 -4.781369
v 1.002952 -0.967743 -4.754986
v 0.960000 -1.160050 -5.317218
v 0.825000 -1.160552 -5.324575
v 0.735000 -1.030523 -4.860935
v 0.375000 -1.065475 -4.933810
v 0.285000 -1.054388 -4.909251
v -0.923070 -0.738812 -4.501813
v -2.572621 -0.616150 -4.413626
v -2.885741 -0.428172 -4.318688
v -2.915000 -0.191369 -4.252853
v -3.337500 -0.510216 -4.354893
v 1.375000 -0.929752 -4.701337
v 1.375000 -0.900866 -4.664466
v 1.004595 -0.968306 -4.755832
v 0.960000 -1.161560 -5.342151
v 0.825000 -1.161988 -5.351483
v 0.600000 -1.030523 -4.860935
v 0.510000 -1.075989 -4.958620
v 0.285000 -1.065475 -4.933810
v -0.913282 -0.741859 -4.504332
v -2.775789 -0.817396 -6.227306
v -3.012500 -0.390917 -4.304668
v -2.915000 -0.199265 -4.254198
v -3.337500 -0.517960 -4.358709
v 1.375000 -0.982956 -4.778416
v 1.375000 -0.957130 -4.739341
v 1.006238 -0.968873 -4.756685
v 0.960000 -1.162535 -5.367110
v 0.825000 -1.162800 -5.378416
v 0.735000 -1.042735 -4.884955
v 0.375000 -1.075989 -4.958620
v -0.197275 -0.785379 -4.542238
v -0.903483 -0.744788 -4.506769
v -2.561797 -0.616792 -4.414028
v -2.889626 -0.420243 -4.315583
v -2.915000 -0.207152 -4.255598
v -3.337500 -0.525676 -4.362583
v 1.050000 -0.997138 -4.801431
v 1.375000 -1.007188 -4.818500
v 1.007879 -0.969443 -4.757545
v 0.960000 -1.162973 -5.392085
v 0.825000 -1.162988 -5.405362
v 0.600000 -1.042735 -4.884955
v 0.510000 -1.085926 -4.983666
v 0.285000 -1.075989 -4.958620
v -0.893669 -0.747603 -4.509125
v -2.550925 -0.617176 -4.414270
v -2.893222 -0.412278 -4.312532
v -2.915000 -0.215029 -4.257051
v -3.337500 -0.533363 -4.366514
v 1.050000 -1.019360 -4.840112
v 1.050000 -1.008434 -4.820665
v 1.009520 -0.970017 -4.758412
v 0.960000 -1.162875 -5.417063
v 0.825000 -1.162551 -5.432304
v 0.735000 -1.054388 -4.909251
v 0.375000 -1.085926 -4.983666
v 0.285000 -1.085926 -4.983666
v -0.883841 -0.750304 -4.511400
v -2.766613 -0.815715 -6.228962
v -3.012500 -0.399038 -4.307600
v -2.915000 -0.222896 -4.258560
v -3.337500 -0.541021 -4.370502
v 1.375000 -1.029785 -4.859527
v 1.011159 -0.970595 -4.759286
v 0.960000 -1.162240 -5.442033
v 0.825000 -1.161491 -5.459229
v 0.600000 -1.054388 -4.909251
v 0.510000 -1.095280 -5.008937
v -0.230535 -0.788081 -4.544716
v -0.874000 -0.752893 -4.513592
v -2.896531 -0.404288 -4.309537
v -2.915000 -0.230752 -4.260122
v -3.337500 -0.548648 -4.374547
v 1.050000 -1.029910 -4.859764
v 1.012796 -0.971176 -4.760168
v 0.960000 -1.161069 -5.466984
v 0.825000 -1.159807 -5.486122
v 0.735000 -1.065475 -4.933810
v 0.375000 -1.095280 -5.008937
v 0.166511 -1.041075 -4.881606
v -0.864149 -0.755371 -4.515702
v -2.757488 -0.813466 -6.231169
v -3.012500 -0.407136 -4.310592
v -2.915000 -0.238598 -4.261738
v -3.337500 -0.556246 -4.378648
v 1.050000 -1.040081 -4.879616
v 1.014432 -0.971761 -4.761056
v 0.960000 -1.159363 -5.491904
v 0.825000 -1.157500 -5.512969
v 0.600000 -1.065475 -4.933810
v 0.510000 -1.104046 -5.034417
v 0.285000 -1.095280 -5.008937
v 0.285000 -1.104046 -5.034417
v -0.854291 -0.757737 -4.517728
v -2.748464 -0.810653 -6.233913
v -2.899556 -0.396279 -4.306602
v -2.915000 -0.246432 -4.263408
v -3.337500 -0.563813 -4.382806
v 1.375000 -1.050713 -4.901431
v 1.219708 -1.041075 -4.881606
v 1.016067 -0.972349 -4.761952
v 0.960000 -1.157122 -5.516781
v 0.825000 -1.154572 -5.539755
v 0.735000 -1.075989 -4.958620
v 0.375000 -1.104046 -5.034417
v -0.263136 -0.789964 -4.546455
v -0.844427 -0.759993 -4.519669
v -2.739610 -0.807296 -6.237162
v -2.902300 -0.388262 -4.303728
v -2.915000 -0.254254 -4.265133
v -3.337500 -0.571348 -4.387019
v 1.050000 -1.049870 -4.899659
v 1.017700 -0.972941 -4.762854
v 0.960000 -1.154347 -5.541605
v 0.825000 -1.151025 -5.566466
v 0.600000 -1.075989 -4.958620
v 0.510000 -1.112220 -5.060093
v 0.285000 -1.112220 -5.060093
v -0.834561 -0.762140 -4.521527
v -2.730999 -0.803418 -6.240885
v -3.012500 -0.415213 -4.313645
v -2.915000 -0.262064 -4.266911
v -3.337500 -0.578853 -4.391289
v 1.050000 -1.059273 -4.919886
v 0.960000 -1.151040 -5.566363
v 0.960000 -1.147201 -5.591045
v 0.825000 -1.146859 -5.593088
v 0.735000 -1.085926 -4.983666
v 0.375000 -1.112220 -5.060093
v 0.285000 -1.119796 -5.085952
v -0.824693 -0.764178 -4.523299
v -2.722698 -0.799037 -6.245051
v -2.904766 -0.380245 -4.300920
v -2.915000 -0.269862 -4.268743
v -3.625000 -0.621584 -4.417044
v 1.375000 -1.069936 -4.944143
v 1.020961 -0.974134 -4.764680
v 0.960000 -1.142834 -5.615639
v 0.825000 -1.142078 -5.619607
v 0.600000 -1.085926 -4.983666
v 0.510000 -1.119796 -5.085952
v -0.295131 -0.791068 -4.547483
v -0.814827 -0.766108 -4.524985
v -2.714725 -0.794148 -6.249647
v -2.906956 -0.372237 -4.298180
v -2.915000 -0.277647 -4.270628
v -3.337500 -0.586325 -4.395614
v 1.050000 -1.068286 -4.940289
v 1.022589 -0.974736 -4.765604
v 0.960000 -1.137939 -5.640133
v 0.825000 -1.136684 -5.646007
v 0.735000 -1.095280 -5.008937
v 0.375000 -1.119796 -5.085952
v 0.285000 -1.126771 -5.111979
v -0.804966 -0.767931 -4.526585
v -2.707064 -0.788731 -6.254678
v -3.012500 -0.423266 -4.316757
v -3.337500 -0.593765 -4.399994
v 1.050000 -1.076906 -4.960862
v 1.024215 -0.975341 -4.766535
v 0.960000 -1.132519 -5.664516
v 0.825000 -1.130679 -5.672275
v 0.600000 -1.095280 -5.008937
v 0.510000 -1.126771 -5.111979
v 0.285000 -1.133141 -5.138161
v -0.795110 -0.769647 -4.528097
v -2.699697 -0.782764 -6.260145
v -2.908874 -0.364245 -4.295510
v -2.915000 -0.300922 -4.276606
v -3.337500 -0.601173 -4.404430
v 1.025839 -0.975950 -4.767473
v 0.735000 -1.104046 -5.034417
v 0.375000 -1.126771 -5.111979
v -0.326574 -0.791432 -4.547824
v -1.518605 -1.118603 -5.081730
v -2.692611 -0.776226 -6.266051
v -3.012500 -0.431296 -4.319929
v -2.915000 -0.308652 -4.278705
v -3.337500 -0.608547 -4.408920
v 1.027462 -0.976562 -4.768418
v 0.825000 -1.124068 -5.698397
v 0.600000 -1.104046 -5.034417
v 0.510000 -1.133141 -5.138161
v 0.285000 -1.138903 -5.164484
v 0.285000 -1.124068 -5.698397
v -0.785263 -0.771258 -4.529522
v -2.685826 -0.769106 -6.272381
v -2.910523 -0.356270 -4.292911
v -2.914879 -0.316571 -4.280914
v -3.337500 -0.615887 -4.413465
v 1.029083 -0.977177 -4.769370
v 0.735000 -1.112220 -5.060093
v 0.375000 -1.133141 -5.138161
v -0.331919 -0.791393 -4.547788
v -0.775427 -0.772763 -4.530859
v -2.679379 -0.761397 -6.279118
v -3.012500 -0.439302 -4.323161
v -2.914513 -0.324494 -4.283185
v -3.337500 -0.623194 -4.418064
v 1.030702 -0.977795 -4.770329
v 0.600000 -1.112220 -5.060093
v 0.510000 -1.138903 -5.164484
v -0.337270 -0.791347 -4.547744
v -0.765605 -0.774164 -4.532107
v -2.673308 -0.753094 -6.286239
v -3.012500 -0.447284 -4.326452
v -2.913898 -0.332424 -4.285519
v -3.337500 -0.630467 -4.422718
v 1.032319 -0.978417 -4.771296
v 0.735000 -1.119796 -5.085952
v 0.375000 -1.138903 -5.164484
v 0.285000 -1.144054 -5.190933
v -0.755798 -0.775461 -4.533265
v -2.667651 -0.744195 -6.293721
v -3.012500 -0.455241 -4.329802
v -2.913031 -0.340361 -4.287917
v -3.337500 -0.637704 -4.427425
v 1.033935 -0.979042 -4.772270
v 0.600000 -1.119796 -5.085952
v 0.510000 -1.144054 -5.190933
v -0.342629 -0.791293 -4.547694
v -0.746006 -0.776656 -4.534334
v -2.662436 -0.734727 -6.301519
v -3.012500 -0.463174 -4.333211
v -2.911908 -0.348309 -4.290380
v -3.337500 -0.644907 -4.432186
v 1.035549 -0.979671 -4.773251
v 0.735000 -1.126771 -5.111979
v 0.375000 -1.144054 -5.190933
v -0.347996 -0.791231 -4.547637
v -0.736230 -0.777750 -4.535315
v -2.657688 -0.724730 -6.309576
v -3.012500 -0.471080 -4.336679
v -3.337500 -0.652074 -4.437000
v 0.600000 -1.126771 -5.111979
v 0.510000 -1.148591 -5.217494
v -0.353371 -0.791161 -4.547572
v -2.653430 -0.714246 -6.317835
v -3.012500 -0.478961 -4.340205
v -3.625000 -0.698663 -4.470248
v 0.735000 -1.133141 -5.138161
v 0.375000 -1.148591 -5.217494
v -0.358755 -0.791084 -4.547500
v -2.649685 -0.703310 -6.326244
v -3.012500 -0.486815 -4.343790
v -3.337242 -0.665465 -4.446204
v 0.600000 -1.133141 -5.138161
v 0.510000 -1.152511 -5.244153
v 0.285000 -1.148591 -5.217494
v -2.646452 -0.691922 -6.334782
v -3.012500 -0.494643 -4.347433
v -3.336466 -0.678402 -4.455360
v 0.735000 -1.138903 -5.164484
v 0.375000 -1.152511 -5.244153
v -0.364148 -0.790998 -4.547421
v -2.643724 -0.680073 -6.343437
v -3.012500 -0.502443 -4.351134
v -3.335168 -0.690905 -4.464466
v 0.600000 -1.138903 -5.164484
v 0.510000 -1.155812 -5.270896
v -0.369552 -0.790905 -4.547334
v -2.641493 -0.667750 -6.352197
v -3.012500 -0.510216 -4.354893
v -3.333343 -0.702996 -4.473520
v 0.735000 -1.144054 -5.190933
v 0.375000 -1.155812 -5.270896
v -0.374966 -0.790803 -4.547240
v -2.639752 -0.654941 -6.361052
v -3.012500 -0.517960 -4.358709
v -3.330990 -0.714683 -4.482509
v 0.600000 -1.144054 -5.190933
v 0.510000 -1.158493 -5.297708
v 0.285000 -1.152511 -5.244153
v -2.638504 -0.641640 -6.369983
v -3.012500 -0.525676 -4.362583
v -3.625000 -0.771212 -4.529482
v 0.735000 -1.148591 -5.217494
v 0.375000 -1.158493 -5.297708
v -0.380390 -0.790694 -4.547138
v -2.637752 -0.627840 -6.378972
v -3.012500 -0.533363 -4.366514
v -3.328118 -0.725941 -4.491391
v 0.600000 -1.148591 -5.217494
v 0.510000 -1.160552 -5.324575
v -0.385827 -0.790576 -4.547029
v -2.637500 -0.613535 -6.388000
v -3.012500 -0.541021 -4.370502
v -3.324736 -0.736734 -4.500118
v 0.735000 -1.152511 -5.244153
v 0.375000 -1.160552 -5.324575
v -0.391275 -0.790450 -4.546912
v -2.637500 -0.607188 -6.391913
v -3.012500 -0.548648 -4.374547
v -3.320855 -0.747028 -4.508642
v 0.600000 -1.152511 -5.244153
v 0.510000 -1.161988 -5.351483
v -0.396736 -0.790315 -4.546788
v -2.637500 -0.600817 -6.395785
v -3.012500 -0.556246 -4.378648
v -3.316490 -0.756796 -4.516920
v 0.735000 -1.155812 -5.270896
v 0.375000 -1.161988 -5.351483
v 0.285000 -1.155812 -5.270896
v -2.637500 -0.594421 -6.399616
v -3.012500 -0.563813 -4.382806
v -3.625000 -0.838758 -4.594362
v 0.600000 -1.155812 -5.270896
v 0.510000 -1.162800 -5.378416
v -0.402210 -0.790172 -4.546655
v -2.637500 -0.588000 -6.403407
v -3.012500 -0.571348 -4.387019
v -3.311664 -0.766028 -4.524917
v 0.735000 -1.158493 -5.297708
v 0.375000 -1.162800 -5.378416
v -0.407697 -0.790021 -4.546515
v -2.637500 -0.581555 -6.407156
v -3.012500 -0.578853 -4.391289
v -3.306404 -0.774717 -4.532600
v 0.600000 -1.158493 -5.297708
v 0.510000 -1.162988 -5.405362
v -0.413199 -0.789861 -4.546367
v -2.637500 -0.575087 -6.410863
v -3.012500 -0.586325 -4.395614
v -3.300737 -0.782855 -4.539938
v 0.735000 -1.160552 -5.324575
v 0.375000 -1.162988 -5.405362
v 0.285000 -1.158493 -5.297708
v -2.637500 -0.568594 -6.414529
v -3.012500 -0.593765 -4.399994
v -3.294690 -0.790441 -4.546904
v 0.600000 -1.160552 -5.324575
v 0.510000 -1.162551 -5.432304
v -0.418715 -0.789692 -4.546211
v -2.637500 -0.562079 -6.418153
v -3.012500 -0.601173 -4.404430
v -3.625000 -0.900866 -4.664466
v 0.735000 -1.161988 -5.351483
v 0.375000 -1.162551 -5.432304
v -0.424246 -0.789515 -4.546047
v -2.637500 -0.555540 -6.421736
v -3.012500 -0.608547 -4.408920
v -3.288292 -0.797482 -4.553482
v 0.600000 -1.161988 -5.351483
v 0.510000 -1.161491 -5.459229
v -0.429793 -0.789329 -4.545876
v -2.637500 -0.548978 -6.425276
v -3.012500 -0.615887 -4.413465
v -3.281575 -0.803991 -4.559662
v 0.735000 -1.162800 -5.378416
v 0.375000 -1.161491 -5.459229
v -0.435354 -0.789135 -4.545696
v -2.637500 -0.542394 -6.428775
v -3.012500 -0.623194 -4.418064
v -3.274567 -0.809975 -4.565429
v 0.600000 -1.162800 -5.378416
v 0.510000 -1.159807 -5.486122
v 0.285000 -1.160552 -5.324575
v -2.637500 -0.535788 -6.432231
v -3.012500 -0.630467 -4.422718
v -3.625000 -0.957130 -4.739341
v 0.735000 -1.162988 -5.405362
v 0.375000 -1.159807 -5.486122
v -0.440929 -0.788933 -4.545510
v -2.637500 -0.529159 -6.435644
v -3.012500 -0.637704 -4.427425
v -3.267282 -0.815450 -4.570775
v 0.600000 -1.162988 -5.405362
v 0.510000 -1.157500 -5.512969
v -0.446515 -0.788726 -4.545319
v -2.637500 -0.522509 -6.439015
v -3.012500 -0.644907 -4.432186
v -3.259704 -0.820431 -4.575703
v 0.735000 -1.162551 -5.432304
v 0.375000 -1.157500 -5.512969
v -0.452112 -0.788512 -4.545122
v -2.637500 -0.515838 -6.442344
v -3.012500 -0.652074 -4.437000
v -3.251811 -0.824937 -4.580214
v 0.600000 -1.162551 -5.432304
v 0.510000 -1.154572 -5.539755
v 0.285000 -1.161988 -5.351483
v -2.637500 -0.509145 -6.445629
v -3.012766 -0.665670 -4.446347
v -3.243586 -0.828985 -4.584309
v 0.735000 -1.161491 -5.459229
v 0.375000 -1.154572 -5.539755
v -0.457717 -0.788295 -4.544922
v -2.637500 -0.502431 -6.448872
v -3.013567 -0.678786 -4.455636
v -3.625000 -1.007188 -4.818500
v 0.600000 -1.161491 -5.459229
v 0.510000 -1.151025 -5.566466
v -0.463329 -0.788074 -4.544718
v -2.637500 -0.495696 -6.452071
v -3.014902 -0.691440 -4.464862
v -3.235043 -0.832578 -4.587977
v 0.735000 -1.159807 -5.486122
v 0.375000 -1.151025 -5.566466
v -0.468947 -0.787850 -4.544512
v -2.637500 -0.488942 -6.455228
v -3.016773 -0.703653 -4.474019
v -3.226248 -0.835694 -4.591184
v 0.600000 -1.159807 -5.486122
v 0.510000 -1.146859 -5.593088
v -2.637500 -0.482167 -6.458340
v -3.019180 -0.715433 -4.483093
v -3.414361 -0.928094 -4.699136
v 0.735000 -1.157500 -5.512969
v 0.375000 -1.146859 -5.593088
v -2.637500 -0.475372 -6.461410
v -3.022114 -0.726761 -4.492045
v -3.625000 -1.050713 -4.901431
v -3.217272 -0.838311 -4.593896
v 0.600000 -1.157500 -5.512969
v 0.510000 -1.142078 -5.619607
v -2.637500 -0.468558 -6.464435
v -3.025565 -0.737607 -4.500833
v -3.208184 -0.840406 -4.596080
v 0.735000 -1.154572 -5.539755
v 0.375000 -1.142078 -5.619607
v 0.285000 -1.136684 -5.646007
v -2.637500 -0.461724 -6.467417
v -3.029526 -0.747945 -4.509412
v -3.199032 -0.841973 -4.597720
v 0.600000 -1.154572 -5.539755
v 0.510000 -1.136684 -5.646007
v -0.697256 -0.781138 -4.538372
v -2.637500 -0.454872 -6.470355
v -3.033980 -0.757752 -4.517740
v -3.625000 -1.087424 -4.987595
v 0.735000 -1.151025 -5.566466
v 0.375000 -1.136684 -5.646007
v 0.285000 -1.130679 -5.672275
v -2.637500 -0.448000 -6.473250
v -3.038901 -0.767015 -4.525782
v -3.189839 -0.843024 -4.598824
v 0.600000 -1.151025 -5.566466
v 0.510000 -1.130679 -5.672275
v -0.706981 -0.780437 -4.537737
v -2.637500 -0.441111 -6.476100
v -3.044260 -0.775726 -4.533502
v -3.180627 -0.843572 -4.599402
v 0.735000 -1.146859 -5.593088
v 0.375000 -1.130679 -5.672275
v -2.637500 -0.434203 -6.478905
v -2.993082 -0.928094 -4.699136
v -3.625000 -1.117083 -5.076433
v 0.600000 -1.146859 -5.593088
v 0.510000 -1.124068 -5.698397
v -0.716718 -0.779639 -4.537016
v -2.637500 -0.427277 -6.481667
v -3.050027 -0.783873 -4.540865
v -3.171416 -0.843629 -4.599463
v 0.735000 -1.142078 -5.619607
v 0.375000 -1.124068 -5.698397
v -0.726467 -0.778744 -4.536209
v -2.637500 -0.420334 -6.484384
v -3.056175 -0.791455 -4.547844
v -3.162222 -0.843196 -4.599006
v 0.600000 -1.142078 -5.619607
v -2.637500 -0.413374 -6.487056
v -3.062679 -0.798484 -4.554427
v -3.414361 -1.041075 -4.881606
v 0.735000 -1.136684 -5.646007
v -2.637500 -0.406396 -6.489684
v -3.069516 -0.804976 -4.560605
v -3.625000 -1.139497 -5.167370
v -3.153050 -0.842261 -4.598023
v 0.600000 -1.136684 -5.646007
v -2.637500 -0.399402 -6.492267
v -3.076663 -0.810945 -4.566371
v -3.143908 -0.840811 -4.596504
v 0.735000 -1.130679 -5.672275
v -2.637500 -0.392392 -6.494805
v -3.084105 -0.816403 -4.571715
v -3.625000 -1.154520 -5.259816
v 0.600000 -1.130679 -5.672275
v -2.637500 -0.385365 -6.497298
v -3.091848 -0.821362 -4.576632
v -3.134805 -0.838834 -4.594441
v 0.735000 -1.124068 -5.698397
v -2.637500 -0.378323 -6.499746
v -3.099897 -0.825830 -4.581114
v -3.625000 -1.162057 -5.353171
v 0.600000 -1.124068 -5.698397
v -2.637500 -0.371265 -6.502149
v -3.108259 -0.829817 -4.585155
v -3.125782 -0.836333 -4.591844
v -2.637500 -0.364191 -6.504506
v -3.116910 -0.833323 -4.588740
v -2.637500 -0.357103 -6.506818
v -3.414361 -1.158039 -5.507308
v -3.625000 -1.162057 -5.446829
v -2.637500 -0.350000 -6.509085
v -3.414361 -1.118603 -5.718270
v -2.912921 -0.770496 -6.271153
v -3.625000 -0.957130 -6.060659
v -2.919504 -0.762813 -6.277889
v -3.625000 -1.154520 -5.540184
v -3.625000 -1.139497 -5.632630
v -3.625000 -0.838758 -6.205638
v -2.936832 -0.736147 -6.300362
v -3.203721 -0.783508 -6.259467
v -3.625000 -1.117083 -5.723567
v -2.962500 -0.607188 -6.391913
v -3.625000 -0.621584 -6.382956
v -2.962500 -0.600817 -6.395785
v -3.414361 -1.041075 -5.918394
v -3.625000 -0.540473 -6.429785
v -2.962500 -0.555540 -6.421736
v -2.962500 -0.562079 -6.418153
v -3.625000 -1.087424 -5.812405
v -3.203721 -0.928094 -6.100864
v -2.962500 -0.548978 -6.425276
v -3.625000 -1.050713 -5.898569
v -3.625000 -1.007188 -5.981500
v -2.962500 -0.535788 -6.432231
v -2.962500 -0.542394 -6.428775
v -2.898742 -0.784089 -6.258938
v -2.962500 -0.529159 -6.435644
v -2.905990 -0.777586 -6.264830
v -2.962500 -0.515838 -6.442344
v -2.962500 -0.522509 -6.439015
v -3.414361 -0.928094 -6.100864
v -2.962500 -0.502431 -6.448872
v -2.962500 -0.509145 -6.445629
v -2.962500 -0.495696 -6.452071
v -3.625000 -0.900866 -6.135534
v -3.625000 -0.455857 -6.469936
v -2.962500 -0.488942 -6.455228
v -2.925704 -0.754526 -6.285020
v -2.962500 -0.482167 -6.458340
v -2.931489 -0.745631 -6.292525
v -2.962500 -0.468558 -6.464435
v -2.962500 -0.475372 -6.461410
v -2.962500 -0.454872 -6.470355
v -2.962500 -0.461724 -6.467417
v -2.941706 -0.726105 -6.308480
v -2.962500 -0.448000 -6.473250
v -2.946085 -0.715537 -6.316829
v -2.962500 -0.434203 -6.478905
v -2.962500 -0.441111 -6.476100
v -3.625000 -0.771212 -6.270518
v -3.414361 -0.783508 -6.259467
v -2.962500 -0.420334 -6.484384
v -2.962500 -0.427277 -6.481667
v -2.949945 -0.704470 -6.325361
v -2.962500 -0.413374 -6.487056
v -2.953284 -0.692916 -6.334043
v -3.414361 -0.420124 -6.484465
v -2.956103 -0.680883 -6.342850
v -2.962500 -0.406396 -6.489684
v -3.625000 -0.698663 -6.329752
v -2.962500 -0.399402 -6.492267
v -2.958407 -0.668375 -6.351758
v -2.962500 -0.392392 -6.494805
v -2.960198 -0.655396 -6.360742
v -2.962500 -0.385365 -6.497298
v -2.961477 -0.641938 -6.369787
v -2.962244 -0.627988 -6.378877
v -2.962500 -0.613535 -6.388000
v -2.962500 -0.594421 -6.399616
v -2.962500 -0.588000 -6.403407
v -2.962500 -0.581555 -6.407156
v -2.962500 -0.575087 -6.410863
v -2.962500 -0.568594 -6.414529
v -2.571803 -1.158039 -5.507308
v -2.541617 -0.053600 -6.561762
v -2.540799 -0.080363 -6.560218
v -2.539957 -0.107082 -6.558057
v -2.539089 -0.133742 -6.555283
v -2.538196 -0.160330 -6.551895
v -2.537275 -0.186830 -6.547895
v -2.536326 -0.213230 -6.543285
v -2.535347 -0.239515 -6.538069
v -2.534337 -0.265672 -6.532248
v -2.533293 -0.291686 -6.525827
v -2.532214 -0.317545 -6.518809
v -2.531098 -0.343234 -6.511198
v -2.529943 -0.368740 -6.502996
v -2.528747 -0.394048 -6.494208
v -2.527509 -0.419146 -6.484840
v -2.526226 -0.444019 -6.474898
v -2.571803 -0.420124 -6.484465
v -2.524897 -0.468653 -6.464389
v -2.523520 -0.493034 -6.453318
v -2.522094 -0.517149 -6.441692
v -2.520616 -0.540984 -6.429518
v -2.519084 -0.564525 -6.416801
v -2.517496 -0.587761 -6.403549
v -2.515847 -0.610681 -6.389770
v -2.514137 -0.633274 -6.375469
v -2.512360 -0.655527 -6.360656
v -2.510514 -0.677429 -6.345337
v -2.508597 -0.698970 -6.329519
v -2.506606 -0.720136 -6.313213
v -2.504537 -0.740917 -6.296430
v -2.502388 -0.761299 -6.279183
v -2.500156 -0.781270 -6.261485
v -2.497838 -0.800819 -6.243349
v -2.495432 -0.819933 -6.224786
v -2.492935 -0.838600 -6.205810
v -2.490344 -0.856814 -6.186425
v -2.487652 -0.874570 -6.166636
v -2.484858 -0.891867 -6.146445
v -2.481955 -0.908701 -6.125855
v -2.478940 -0.925070 -6.104867
v -2.475808 -0.940969 -6.083484
v -2.472556 -0.956396 -6.061711
v -2.469191 -0.971341 -6.039559
v -2.465725 -0.985793 -6.017044
v -2.571803 -0.783508 -6.259467
v -2.462172 -0.999738 -5.994183
v -2.458543 -1.013166 -5.970993
v -2.454850 -1.026064 -5.947490
v 0.961709 -1.132679 -5.663831
v 0.963416 -1.132840 -5.663141
v 0.965120 -1.133001 -5.662444
v 0.966822 -1.133164 -5.661741
v 0.968520 -1.133328 -5.661032
v 0.970217 -1.133492 -5.660316
v 0.971910 -1.133658 -5.659594
v 0.973601 -1.133824 -5.658866
v 0.975290 -1.133992 -5.658131
v 0.976976 -1.134160 -5.657391
v 0.978660 -1.134329 -5.656643
v 0.980341 -1.134500 -5.655890
v 0.982020 -1.134671 -5.655130
v 0.983696 -1.134843 -5.654364
v 0.985370 -1.135016 -5.653591
v 0.987041 -1.135189 -5.652812
v 0.988710 -1.135364 -5.652027
v 0.990377 -1.135540 -5.651235
v 0.992042 -1.135716 -5.650436
v 0.993704 -1.135893 -5.649632
v 0.995363 -1.136071 -5.648820
v 0.997020 -1.136250 -5.648003
v 0.998675 -1.136429 -5.647179
v 1.000327 -1.136610 -5.646349
v 1.001976 -1.136791 -5.645512
v 1.003623 -1.136972 -5.644669
v 1.005267 -1.137155 -5.643820
v 1.006908 -1.137338 -5.642965
v 1.008546 -1.137521 -5.642104
v 1.010181 -1.137706 -5.641236
v 1.011813 -1.137891 -5.640362
v 1.013442 -1.138076 -5.639482
v 1.015068 -1.138262 -5.638596
v 1.016691 -1.138449 -5.637705
v 1.018310 -1.138636 -5.636807
v 1.019926 -1.138823 -5.635903
v 1.021539 -1.139012 -5.634993
v 1.023148 -1.139200 -5.634077
v 1.024754 -1.139389 -5.633155
v 1.026356 -1.139579 -5.632227
v 1.027956 -1.139769 -5.631293
v 1.029551 -1.139959 -5.630353
v 1.031144 -1.140150 -5.629408
v 1.032733 -1.140341 -5.628456
v 1.034319 -1.140532 -5.627498
v 1.035901 -1.140724 -5.626534
v 1.037481 -1.140916 -5.625564
v 1.039057 -1.141109 -5.624587
v 1.040629 -1.141302 -5.623605
v 1.042199 -1.141495 -5.622617
v 1.043766 -1.141689 -5.621622
v 1.045329 -1.141882 -5.620621
v 1.046889 -1.142076 -5.619615
v 1.048446 -1.142271 -5.618602
v 1.050000 -1.142465 -5.617582
v 1.050000 -1.146428 -5.595632
v 1.375000 -1.087424 -4.987595
v 1.050000 -1.085130 -4.981596
v 1.050000 -1.162298 -5.440416
v 1.050000 -1.162859 -5.418118
v 1.050000 -1.162992 -5.395813
v 1.050000 -1.162698 -5.373509
v 1.375000 -1.162057 -5.353171
v 1.050000 -1.161976 -5.351215
v 1.050000 -1.160827 -5.328939
v 1.375000 -1.159229 -5.306417
v 1.050000 -1.159251 -5.306689
v 1.050000 -1.157248 -5.284474
v 1.219708 -1.158039 -5.292692
v 1.375000 -1.154520 -5.259816
v 1.050000 -1.154819 -5.262301
v 1.050000 -1.151966 -5.240179
v 1.375000 -1.147939 -5.213442
v 1.050000 -1.148689 -5.218115
v 1.050000 -1.144990 -5.196118
v 1.375000 -1.139497 -5.167370
v 1.050000 -1.140869 -5.174197
v 1.050000 -1.136329 -5.152358
v 1.375000 -1.129205 -5.121676
v 1.050000 -1.131370 -5.130611
v 1.050000 -1.125996 -5.108962
v 1.375000 -1.117083 -5.076433
v 1.050000 -1.120207 -5.087421
v 1.050000 -1.114006 -5.065995
v 1.050000 -1.107395 -5.044691
v 1.375000 -1.103148 -5.031715
v 1.050000 -1.100377 -5.023518
v 1.050000 -1.092955 -5.002484
v -3.203721 -0.213701 -4.256802
v -2.993082 -1.118603 -5.718270
v -3.414361 -1.158039 -5.292692
v -3.203721 -1.041075 -4.881606
v -3.203721 -1.158039 -5.507308
v -3.203721 -1.118603 -5.081730
v -3.203721 -1.158039 -5.292692
v -2.571803 -1.118603 -5.718270
v -2.571803 -1.041075 -5.918394
v -2.571803 -0.928094 -6.100864
v -1.729245 -1.041075 -4.881606
v -1.939884 -0.783508 -4.540533
v -2.150524 -0.928094 -4.699136
v -1.939884 -0.928094 -4.699136
v -2.150524 -1.041075 -4.881606
v -1.729245 -0.928094 -4.699136
v -2.150524 -1.118603 -5.081730
v -2.150524 -1.158039 -5.292692
v -1.729245 -0.783508 -4.540533
v -1.518605 -0.783508 -4.540533
v -1.939884 -1.041075 -4.881606
v -1.939884 -1.118603 -5.718270
v -0.254768 -1.118603 -5.081730
v -1.939884 -1.158039 -5.507308
v -1.518605 -1.158039 -5.292692
v -1.518605 -1.158039 -5.507308
v -0.676047 -1.158039 -5.507308
v -1.307966 -1.158039 -5.507308
v -1.097326 -1.118603 -5.081730
v -0.465408 -1.158039 -5.507308
v -0.676047 -1.158039 -5.292692
v -1.097326 -1.158039 -5.292692
v -1.097326 -1.158039 -5.507308
v -0.886687 -1.041075 -4.881606
v -0.886687 -1.118603 -5.081730
v -0.676047 -1.118603 -5.081730
v -0.886687 -1.158039 -5.292692
v -0.886687 -1.158039 -5.507308
v -0.676047 -0.928094 -4.699136
v -0.254768 -1.158039 -5.292692
v -0.676047 -1.041075 -4.881606
v -0.465408 -1.158039 -5.292692
v -0.465408 -1.041075 -4.881606
v -0.465408 -1.118603 -5.081730
v -0.044129 -1.158039 -5.507308
v 0.798429 -0.783508 -4.540533
v 1.640987 -1.158039 -5.507308
v -1.729245 -1.158039 -5.292692
v -3.098401 -1.158039 -5.292692
v -3.309041 -1.118603 -5.081730
v -1.939884 -1.118603 -5.081730
v -1.834564 -0.928094 -4.699136
v -0.570728 -1.118603 -5.081730
v -0.360088 -1.158039 -5.292692
v -3.045741 -1.158039 -5.507308
v -3.151061 -1.118603 -5.081730
f 1 2 3
f 1 4 5
f 6 7 8
f 9 10 6
f 6 11 12
f 13 14 6
f 6 15 16
f 17 18 6
f 6 19 20
f 21 22 6
f 22 23 24
f 24 25 26
f 26 27 28
f 28 29 30
f 30 31 32
f 32 33 34
f 5 35 36
f 37 38 5
f 39 40 41
f 42 43 41
f 41 44 45
f 46 47 41
f 41 48 49
f 50 51 41
f 51 52 53
f 53 54 41
f 41 55 56
f 56 57 58
f 58 59 60
f 60 61 62
f 62 63 64
f 64 65 66
f 66 67 68
f 68 69 6
f 6 70 71
f 71 72 73
f 73 74 75
f 75 76 77
f 77 78 79
f 79 80 81
f 81 82 83
f 83 84 85
f 86 87 88
f 89 90 86
f 86 91 92
f 93 94 86
f 95 96 86
f 86 97 98
f 86 99 100
f 101 102 86
f 86 103 104
f 105 106 86
f 107 108 109
f 110 111 112
f 113 111 110
f 114 115 116
f 117 115 111
f 118 119 120
f 121 119 118
f 122 123 124
f 122 125 126
f 127 128 129
f 130 128 131
f 132 128 133
f 134 133 135
f 134 135 132
f 134 136 137
f 138 139 134
f 134 140 141
f 142 143 144
f 145 146 144
f 144 147 148
f 149 150 144
f 144 151 152
f 153 154 155
f 156 157 158
f 159 160 161
f 162 163 164
f 165 166 167
f 168 169 170
f 171 166 172
f 173 174 175
f 176 157 177
f 178 157 176
f 178 179 157
f 180 181 182
f 183 184 86
f 86 185 186
f 187 183 86
f 188 189 190
f 86 191 192
f 86 193 194
f 195 184 86
f 184 196 197
f 198 199 86
f 86 200 201
f 202 203 86
f 204 205 86
f 206 207 86
f 86 208 209
f 6 210 1
f 211 212 213
f 211 214 215
f 211 216 217
f 211 218 219
f 211 220 221
f 211 222 223
f 211 224 225
f 211 226 227
f 228 229 5
f 230 231 5
f 231 232 233
f 233 234 235
f 228 236 237
f 238 211 228
f 239 240 1
f 3 4 1
f 9 6 8
f 13 6 12
f 17 6 16
f 21 6 20
f 22 24 26
f 26 28 30
f 30 32 34
f 37 5 36
f 42 41 40
f 46 41 45
f 50 41 49
f 51 53 41
f 6 56 58
f 60 62 6
f 62 64 66
f 66 68 6
f 85 71 73
f 75 77 85
f 77 79 81
f 81 83 85
f 93 86 92
f 95 86 94
f 86 96 97
f 101 86 100
f 105 86 104
f 241 107 109
f 112 111 242
f 243 120 244
f 243 244 245
f 246 111 113
f 118 120 247
f 248 119 121
f 124 123 249
f 125 122 250
f 133 128 130
f 132 251 128
f 138 134 137
f 134 139 140
f 145 144 143
f 149 144 148
f 153 155 144
f 156 179 252
f 159 253 160
f 254 255 163
f 165 171 256
f 171 172 257
f 173 175 258
f 177 157 259
f 260 179 180
f 187 86 186
f 191 188 190
f 195 86 194
f 198 86 197
f 202 86 201
f 206 86 205
f 210 86 209
f 213 214 211
f 217 218 211
f 221 222 211
f 225 226 211
f 230 5 229
f 236 233 235
f 237 238 228
f 240 2 1
f 6 10 11
f 6 18 19
f 22 26 30
f 5 34 35
f 41 43 44
f 41 47 48
f 60 6 58
f 62 66 6
f 75 85 73
f 77 81 85
f 86 102 103
f 86 98 99
f 261 241 109
f 242 111 262
f 243 245 263
f 263 245 264
f 265 117 111
f 247 120 266
f 267 119 268
f 249 123 269
f 125 250 270
f 131 128 271
f 134 132 136
f 144 146 147
f 144 150 151
f 252 179 272
f 273 274 253
f 275 276 255
f 256 171 277
f 171 257 278
f 279 175 280
f 259 157 281
f 86 260 185
f 86 192 193
f 86 199 200
f 86 207 208
f 215 216 211
f 211 223 224
f 231 233 236
f 1 211 239
f 6 14 15
f 34 22 30
f 39 41 38
f 6 41 56
f 89 86 88
f 86 90 91
f 282 261 109
f 262 111 283
f 263 264 284
f 284 264 285
f 286 265 111
f 266 120 287
f 288 119 267
f 269 123 289
f 125 270 290
f 127 129 291
f 142 144 141
f 272 179 292
f 273 293 274
f 294 295 276
f 277 171 296
f 171 278 297
f 280 175 298
f 281 157 299
f 260 86 182
f 204 86 203
f 219 220 211
f 228 231 236
f 22 38 6
f 43 6 38
f 86 106 300
f 301 282 109
f 283 111 302
f 284 285 303
f 303 285 304
f 305 286 111
f 287 120 306
f 288 289 307
f 269 289 308
f 125 290 309
f 291 129 310
f 155 154 311
f 292 179 312
f 313 314 293
f 315 316 295
f 296 171 317
f 171 297 318
f 319 175 320
f 299 157 321
f 86 188 191
f 1 212 211
f 86 5 322
f 300 106 323
f 324 301 109
f 302 111 325
f 303 304 326
f 326 304 327
f 328 305 111
f 306 120 329
f 289 288 330
f 125 331 123
f 309 290 332
f 310 129 333
f 146 134 141
f 312 179 334
f 335 314 313
f 335 313 316
f 317 171 336
f 318 297 337
f 320 175 338
f 22 1 5
f 339 324 340
f 325 111 341
f 326 327 342
f 342 327 343
f 344 328 111
f 111 329 345
f 289 330 308
f 309 332 346
f 333 129 347
f 334 179 348
f 349 335 316
f 273 313 293
f 336 171 350
f 337 297 351
f 338 175 352
f 353 106 354
f 355 339 109
f 341 111 356
f 342 343 357
f 357 343 358
f 359 344 111
f 120 243 111
f 360 123 331
f 309 346 361
f 271 128 127
f 348 179 362
f 315 349 316
f 159 273 253
f 350 171 363
f 351 297 364
f 338 352 365
f 366 355 109
f 356 111 367
f 357 358 368
f 368 358 369
f 370 359 111
f 111 371 329
f 372 360 331
f 309 361 373
f 374 311 375
f 362 179 376
f 377 315 295
f 378 159 161
f 363 171 379
f 364 297 380
f 338 365 381
f 382 366 109
f 367 111 383
f 368 369 384
f 384 369 385
f 386 370 111
f 371 111 387
f 372 331 388
f 309 373 389
f 153 144 152
f 376 179 390
f 391 377 295
f 378 161 392
f 379 171 393
f 380 297 394
f 395 338 381
f 396 382 109
f 383 111 397
f 385 369 398
f 385 398 399
f 400 386 111
f 387 111 401
f 372 388 402
f 309 403 404
f 374 155 311
f 390 179 405
f 294 391 295
f 378 392 406
f 393 171 407
f 394 297 408
f 409 396 109
f 397 111 410
f 399 398 411
f 399 411 412
f 413 400 111
f 243 413 111
f 402 388 414
f 309 404 415
f 374 375 416
f 405 179 417
f 418 294 276
f 378 406 419
f 407 171 420
f 408 297 421
f 115 409 422
f 410 111 423
f 412 411 424
f 412 424 425
f 111 246 401
f 402 414 426
f 309 415 427
f 416 375 428
f 417 179 429
f 275 418 276
f 419 406 430
f 420 171 431
f 421 297 432
f 115 433 409
f 116 434 114
f 425 424 435
f 425 435 436
f 437 119 289
f 426 414 438
f 309 427 439
f 416 428 440
f 429 179 441
f 442 275 255
f 443 419 444
f 431 171 445
f 421 446 447
f 111 433 115
f 114 434 448
f 436 435 449
f 436 449 450
f 437 289 451
f 426 438 452
f 439 427 453
f 454 455 440
f 441 179 456
f 254 442 255
f 444 419 430
f 445 171 457
f 447 446 458
f 459 111 460
f 448 461 114
f 450 449 462
f 450 462 463
f 437 451 464
f 452 438 465
f 453 427 466
f 454 467 455
f 456 179 468
f 469 254 163
f 470 419 443
f 457 171 471
f 458 446 472
f 473 459 115
f 114 461 474
f 463 462 475
f 463 475 476
f 464 451 477
f 452 465 478
f 453 466 479
f 467 454 480
f 468 179 481
f 162 469 163
f 482 419 470
f 471 171 483
f 472 446 484
f 485 473 115
f 474 486 114
f 476 475 487
f 476 487 488
f 464 477 489
f 478 465 490
f 479 466 491
f 481 179 492
f 493 162 164
f 378 419 494
f 471 169 495
f 484 446 496
f 114 485 115
f 486 497 114
f 488 487 498
f 488 498 499
f 489 477 500
f 478 490 501
f 491 466 502
f 492 179 503
f 504 493 164
f 505 419 482
f 495 169 506
f 496 446 507
f 508 509 114
f 114 497 510
f 499 498 511
f 499 511 512
f 489 500 513
f 501 490 514
f 491 515 516
f 503 179 517
f 504 164 518
f 519 419 505
f 506 169 520
f 507 446 521
f 522 509 523
f 510 508 114
f 512 511 524
f 512 524 525
f 513 500 526
f 501 514 527
f 516 515 528
f 517 179 529
f 504 518 530
f 430 531 532
f 520 169 533
f 521 446 534
f 522 535 536
f 508 537 509
f 525 524 538
f 525 538 539
f 513 526 540
f 527 514 541
f 528 515 542
f 529 179 543
f 530 518 544
f 545 419 519
f 533 169 546
f 534 446 547
f 548 522 549
f 509 537 550
f 539 538 551
f 538 552 551
f 540 526 553
f 527 541 554
f 528 542 555
f 543 179 556
f 544 518 557
f 558 419 545
f 546 169 559
f 547 446 560
f 561 562 522
f 550 563 509
f 551 552 564
f 552 565 564
f 540 553 566
f 554 541 567
f 555 542 568
f 556 179 569
f 557 518 570
f 430 532 571
f 559 169 572
f 560 446 573
f 574 562 575
f 509 563 576
f 564 565 577
f 565 578 577
f 566 553 579
f 554 567 580
f 568 542 581
f 569 179 582
f 557 570 583
f 584 419 558
f 572 169 585
f 573 446 586
f 587 562 588
f 509 576 589
f 577 578 590
f 578 591 590
f 566 579 592
f 580 567 593
f 568 581 594
f 582 179 595
f 583 570 596
f 597 419 584
f 585 169 598
f 573 586 599
f 587 600 601
f 509 589 602
f 590 591 603
f 591 604 603
f 592 579 605
f 580 593 606
f 594 581 607
f 595 179 608
f 596 570 609
f 430 571 610
f 598 169 611
f 599 586 612
f 587 613 614
f 602 615 509
f 603 604 616
f 604 617 616
f 592 605 618
f 606 593 619
f 607 581 620
f 608 179 621
f 596 609 622
f 623 419 597
f 611 169 624
f 612 586 625
f 626 627 613
f 509 615 628
f 616 617 629
f 617 630 629
f 618 605 631
f 606 619 632
f 607 620 633
f 621 179 634
f 622 609 635
f 636 419 623
f 624 169 637
f 625 586 638
f 639 627 640
f 628 641 509
f 629 630 642
f 630 643 642
f 618 631 644
f 632 619 645
f 633 620 646
f 634 179 647
f 635 609 648
f 430 610 649
f 637 169 650
f 638 586 651
f 639 652 627
f 509 641 653
f 642 643 654
f 643 655 654
f 644 631 656
f 632 645 657
f 646 620 658
f 647 179 659
f 635 648 157
f 660 419 636
f 650 169 661
f 651 586 662
f 663 652 639
f 653 664 509
f 654 655 665
f 655 666 665
f 644 656 667
f 657 645 668
f 646 658 669
f 659 179 670
f 157 648 671
f 430 649 672
f 661 169 673
f 662 586 674
f 675 652 663
f 509 664 676
f 665 666 677
f 666 678 677
f 667 656 679
f 657 668 680
f 681 658 682
f 670 179 683
f 157 671 684
f 685 419 660
f 673 169 686
f 674 586 687
f 675 688 689
f 676 690 509
f 677 678 691
f 678 692 691
f 667 679 693
f 680 668 694
f 682 658 695
f 683 179 696
f 157 684 697
f 698 419 685
f 686 169 699
f 687 586 700
f 688 675 701
f 509 690 702
f 691 692 703
f 692 704 703
f 693 679 705
f 680 694 706
f 682 695 707
f 696 179 708
f 157 697 709
f 430 672 710
f 699 169 711
f 700 586 712
f 688 701 713
f 509 702 523
f 703 704 714
f 715 704 716
f 693 705 717
f 706 694 718
f 707 695 719
f 708 179 720
f 157 709 721
f 722 419 698
f 711 169 723
f 712 586 724
f 688 713 725
f 522 523 726
f 715 714 704
f 727 716 728
f 717 705 729
f 706 718 730
f 719 695 731
f 720 179 732
f 157 721 733
f 734 419 722
f 723 169 735
f 712 724 736
f 725 713 737
f 522 726 738
f 727 715 716
f 739 728 740
f 717 729 741
f 730 718 742
f 719 731 743
f 732 179 744
f 157 733 745
f 430 710 746
f 735 169 168
f 736 724 747
f 725 737 748
f 522 738 749
f 739 727 728
f 750 740 751
f 741 729 752
f 730 742 753
f 743 731 754
f 744 179 755
f 157 745 756
f 757 419 734
f 170 169 758
f 747 724 759
f 522 749 760
f 750 739 740
f 741 752 761
f 753 742 762
f 754 731 763
f 755 179 764
f 157 756 765
f 430 746 766
f 758 169 767
f 759 724 768
f 522 760 769
f 750 751 770
f 761 752 771
f 753 762 772
f 754 763 773
f 755 774 775
f 157 765 776
f 777 419 757
f 767 169 778
f 768 724 779
f 522 769 780
f 761 771 781
f 772 762 782
f 773 763 783
f 775 774 784
f 157 776 785
f 430 766 786
f 778 169 787
f 779 724 788
f 522 780 789
f 781 771 790
f 772 782 791
f 773 783 792
f 784 774 793
f 157 785 794
f 430 786 795
f 787 169 796
f 788 724 797
f 522 789 798
f 781 790 799
f 791 782 800
f 773 792 801
f 793 774 802
f 157 794 803
f 430 795 804
f 796 169 805
f 797 724 806
f 522 798 807
f 799 790 808
f 791 800 809
f 801 792 810
f 802 774 811
f 157 803 812
f 430 804 813
f 805 169 814
f 806 724 815
f 522 807 816
f 799 808 817
f 809 800 818
f 801 810 819
f 811 774 820
f 157 812 821
f 430 813 822
f 814 169 419
f 815 724 823
f 816 535 522
f 817 808 824
f 809 818 825
f 801 819 826
f 157 821 827
f 430 822 828
f 814 419 777
f 823 724 829
f 549 522 536
f 817 824 830
f 825 818 831
f 801 826 832
f 157 827 833
f 430 828 834
f 823 829 835
f 561 522 548
f 830 824 836
f 825 831 837
f 801 832 838
f 157 833 839
f 430 834 840
f 835 829 841
f 575 562 561
f 830 836 842
f 837 831 843
f 838 832 844
f 157 839 845
f 430 840 846
f 841 829 847
f 588 562 574
f 842 836 848
f 837 843 849
f 838 844 850
f 157 845 851
f 430 846 852
f 847 829 853
f 587 601 562
f 842 848 854
f 849 843 855
f 838 850 856
f 157 851 857
f 430 852 858
f 853 829 859
f 587 614 600
f 854 848 860
f 849 855 861
f 838 856 862
f 174 857 863
f 430 858 864
f 859 829 865
f 626 613 587
f 854 860 866
f 861 855 867
f 862 856 868
f 863 869 174
f 430 864 870
f 859 865 871
f 640 627 626
f 866 860 872
f 861 867 873
f 862 868 874
f 174 869 875
f 430 870 876
f 871 865 877
f 866 872 878
f 873 867 879
f 862 874 880
f 875 881 174
f 430 876 882
f 877 865 883
f 878 872 884
f 873 879 885
f 862 880 886
f 174 881 887
f 430 882 888
f 883 865 889
f 878 884 890
f 885 879 891
f 862 886 892
f 887 893 174
f 430 888 894
f 889 865 895
f 890 884 896
f 885 891 897
f 892 886 898
f 174 893 899
f 430 894 900
f 889 895 901
f 890 896 902
f 897 891 903
f 892 898 904
f 899 905 174
f 430 900 906
f 901 895 907
f 902 896 908
f 897 903 909
f 892 904 910
f 174 905 911
f 430 906 912
f 907 895 913
f 902 908 914
f 909 903 915
f 892 910 916
f 911 917 174
f 430 912 918
f 913 895 919
f 914 908 920
f 909 915 921
f 916 910 922
f 174 917 923
f 430 918 924
f 919 895 925
f 914 920 926
f 921 915 927
f 916 922 928
f 923 929 174
f 430 924 930
f 919 925 931
f 926 920 932
f 921 927 933
f 916 928 934
f 174 929 935
f 430 930 936
f 931 925 937
f 926 932 938
f 933 927 939
f 916 934 940
f 935 941 174
f 430 936 942
f 937 925 943
f 938 932 944
f 933 939 945
f 916 940 946
f 174 941 947
f 430 942 948
f 943 925 949
f 938 944 950
f 945 939 951
f 946 940 952
f 947 953 174
f 430 948 954
f 943 949 955
f 950 944 956
f 945 951 957
f 946 952 958
f 174 953 959
f 430 954 960
f 955 949 961
f 950 956 962
f 957 951 963
f 946 958 964
f 959 965 174
f 430 960 966
f 961 949 967
f 962 956 968
f 957 963 969
f 946 964 970
f 174 965 971
f 430 966 972
f 967 949 973
f 962 968 974
f 969 963 975
f 970 964 976
f 971 977 174
f 430 972 978
f 973 949 979
f 974 968 980
f 969 975 981
f 970 976 982
f 174 977 983
f 430 978 984
f 973 979 985
f 974 980 986
f 981 975 987
f 970 982 988
f 983 989 174
f 430 984 990
f 985 979 991
f 986 980 992
f 981 987 993
f 970 988 347
f 174 989 994
f 430 990 995
f 991 979 996
f 986 992 997
f 993 987 998
f 970 347 129
f 994 999 174
f 430 995 1000
f 991 1001 1002
f 997 992 1003
f 993 998 1004
f 416 440 455
f 174 999 1005
f 430 1000 1006
f 1002 1001 1007
f 997 1003 1008
f 1004 998 1009
f 467 480 1010
f 1005 1011 174
f 430 1006 1012
f 1007 1001 1013
f 1008 1003 1014
f 1004 1009 1015
f 1010 480 1016
f 174 1011 1017
f 430 1012 1018
f 1013 1001 1019
f 1008 1014 1020
f 1015 1009 1021
f 1010 1016 1022
f 1017 1023 174
f 430 1018 1024
f 1013 1019 1025
f 1020 1014 1026
f 1015 1021 1027
f 1028 1022 1016
f 174 1023 1029
f 430 1024 1030
f 1025 1019 1031
f 1020 1026 1032
f 1027 1021 1033
f 1028 774 1022
f 1029 1034 174
f 430 1030 1035
f 1031 1019 1036
f 1032 1026 1037
f 1027 1033 1038
f 774 1028 1039
f 174 1034 1040
f 494 1030 1041
f 1031 1036 1042
f 1032 1037 1043
f 1038 1033 1044
f 1045 774 1039
f 1040 1046 174
f 494 1041 1047
f 1042 1036 1048
f 1043 1037 1049
f 174 1046 1050
f 494 1047 1051
f 1048 1036 1052
f 1043 1049 1053
f 1050 1054 174
f 494 1051 1055
f 1048 1056 1057
f 1053 1049 1058
f 174 1054 1059
f 494 1055 1060
f 1057 1056 1061
f 1053 1058 1062
f 1059 1063 174
f 494 1060 1064
f 1061 1056 1065
f 1062 1058 1066
f 174 1063 1067
f 494 1064 1068
f 1061 1065 1069
f 1062 1066 1070
f 1067 1071 174
f 494 1068 1072
f 1069 1065 1073
f 1070 1066 1074
f 174 1071 1075
f 494 1072 1076
f 1069 1073 1077
f 1075 1078 174
f 494 1076 1079
f 1077 1073 1079
f 174 1078 1080
f 1073 494 1081
f 1073 1082 494
f 1080 1083 174
f 494 1082 1084
f 1085 1086 1087
f 494 1088 1089
f 1090 1091 1092
f 494 1089 1093
f 1094 1095 1096
f 494 1093 1097
f 1098 1099 1100
f 494 1101 1102
f 1098 1103 1099
f 494 1104 1105
f 1098 1106 1107
f 494 1105 1108
f 1098 1109 1106
f 1108 1105 1110
f 1098 1111 1112
f 1110 1105 1113
f 1098 1114 1115
f 1110 1086 1085
f 1098 1116 1114
f 1117 1087 1086
f 1118 1119 1116
f 1117 1120 1087
f 1118 1121 1119
f 1117 1122 1120
f 1118 1123 1124
f 1117 1091 1122
f 1118 1125 1126
f 1090 1127 1091
f 1118 1128 1125
f 1090 1129 1127
f 1118 1130 1131
f 1132 1129 1133
f 1118 1134 1135
f 1132 1136 1129
f 1118 1137 1134
f 1132 1138 1136
f 338 1137 1139
f 1132 1140 1138
f 338 1141 1137
f 1142 1140 1132
f 338 1143 1141
f 1142 1144 1140
f 1143 338 1145
f 1142 1146 1144
f 1145 338 1147
f 1142 1148 1146
f 1148 1142 1095
f 1148 1095 1149
f 1149 1095 1150
f 1150 1095 1094
f 1095 1151 1096
f 1095 1152 1151
f 1095 1153 1152
f 1098 1153 1095
f 1098 1154 1153
f 1098 1155 1154
f 1098 1100 1155
f 1098 1107 1103
f 1098 1112 1109
f 1098 1115 1111
f 1118 1116 1098
f 1118 1124 1121
f 1118 1126 1123
f 1118 1131 1128
f 1118 1135 1130
f 1147 338 395
f 1083 175 174
f 174 157 1156
f 1080 1157 1158
f 1080 1158 1159
f 1080 1159 1160
f 1080 1160 1161
f 1080 1161 1162
f 1080 1162 1163
f 1080 1163 1164
f 1080 1164 1165
f 1080 1165 1166
f 1080 1166 1167
f 1080 1167 1168
f 1080 1168 1169
f 1080 1169 1170
f 1080 1170 1171
f 1080 1171 1172
f 1080 1172 1173
f 1080 1174 1175
f 1080 1175 1176
f 1080 1176 1177
f 1080 1177 1178
f 1080 1178 1179
f 1080 1179 1180
f 1080 1180 1181
f 1080 1181 1182
f 1080 1182 1183
f 1080 1183 1184
f 1080 1184 1185
f 1080 1185 1186
f 1080 1186 1187
f 1080 1187 1188
f 1080 1188 1189
f 1080 1189 1190
f 1080 1190 1191
f 1080 1191 1192
f 1080 1192 1193
f 1080 1193 1194
f 1080 1194 1195
f 1080 1195 1196
f 1080 1196 1197
f 1080 1197 1198
f 1080 1198 1199
f 1080 1199 1200
f 1080 1200 1201
f 157 1200 1202
f 157 1202 1203
f 157 1203 1204
f 321 157 1204
f 820 774 1045
f 774 179 183
f 774 183 1044
f 1044 183 1038
f 1038 183 1074
f 1074 183 1070
f 1070 183 770
f 750 770 183
f 1205 750 183
f 1206 1205 183
f 1207 1206 183
f 1208 1207 183
f 1209 1208 183
f 1210 1209 183
f 1211 1210 183
f 1212 1211 183
f 1213 1212 183
f 1214 1213 183
f 1215 1214 183
f 1216 1215 183
f 1217 1216 183
f 1218 1217 183
f 1219 1218 183
f 1220 1219 183
f 1221 1220 183
f 1222 1221 183
f 1223 1222 183
f 1224 1223 183
f 1225 1224 183
f 1226 1225 183
f 1227 1226 183
f 1228 1227 183
f 1229 1228 183
f 1230 1229 183
f 1231 1230 183
f 1232 1231 183
f 1233 1232 183
f 1234 1233 183
f 1235 1234 183
f 1236 1235 183
f 1237 1236 183
f 1238 1237 183
f 1239 1238 183
f 1240 1239 183
f 1241 1240 183
f 1242 1241 183
f 1243 1242 183
f 1244 1243 183
f 1245 1244 183
f 1246 1245 183
f 1247 1246 183
f 1248 1247 183
f 1249 1248 183
f 1250 1249 183
f 1251 1250 183
f 1252 1251 183
f 1253 1252 183
f 1254 1253 183
f 1255 1254 183
f 1256 1255 183
f 1257 1256 183
f 1258 1257 183
f 1259 1258 183
f 1260 1259 183
f 188 1260 183
f 188 183 189
f 86 1 5
f 86 6 73
f 86 73 85
f 86 85 87
f 323 106 353
f 725 748 1261
f 1261 748 1262
f 106 1263 354
f 106 1264 1263
f 106 1265 1264
f 106 1266 1265
f 1266 106 1267
f 1266 1267 1268
f 1268 1267 1269
f 1269 1267 1270
f 1269 1270 1271
f 1271 1270 1272
f 1272 1270 1273
f 1272 1274 1275
f 1275 1274 1276
f 1276 1274 1277
f 1276 1277 1278
f 1278 1277 1279
f 1279 1277 1280
f 1279 1280 1281
f 1281 1280 1282
f 1282 1280 1283
f 1282 1283 1284
f 1284 1283 1285
f 1285 1283 1286
f 1285 1286 1287
f 1287 1286 1288
f 1288 1286 1289
f 1289 1286 1290
f 1289 1290 1291
f 1291 1290 1292
f 1292 1290 1261
f 1292 1261 1262
f 166 171 167
f 171 165 1293
f 297 446 432
f 446 421 432
f 979 1001 996
f 1001 991 996
f 1036 1056 1052
f 1056 1048 1052
f 494 1079 1294
f 1079 1073 1295
f 494 1295 1081
f 1295 1073 1081
f 1082 1088 1084
f 1088 494 1084
f 1093 1101 1097
f 1101 494 1097
f 1105 1086 1113
f 1086 1110 1113
f 1129 1090 1133
f 1090 1132 1133
f 1137 1118 1139
f 1118 338 1139
f 175 319 298
f 319 280 298
f 165 167 1293
f 167 171 1293
f 1295 1342 1079
f 1342 1296 1079
f 1295 494 1297
f 494 1296 1298
f 1296 1342 1298
f 1342 1295 1298
f 494 1298 1299
f 1298 1295 1299
f 494 1299 1297
f 1299 1295 1297
f 1101 1104 1102
f 1104 494 1102
f 1091 1117 1092
f 1117 1090 1092
f 171 169 483
f 169 471 483
f 1030 494 1035
f 494 430 1035
f 1296 1348 1079
f 1348 1341 1079
f 1341 1347 1079
f 1347 1294 1079
f 1294 1347 494
f 1347 1341 494
f 1341 1348 494
f 1348 1296 494
f 175 279 258
f 279 173 258
f 157 857 1156
f 857 174 1156
f 1200 157 1300
f 157 1080 1300
f 1200 1300 1301
f 1300 1080 1301
f 1200 1301 1302
f 1301 1080 1302
f 1200 1302 1201
f 1302 1080 1201
f 1172 1174 1173
f 1174 1080 1173
f 157 179 158
f 179 156 1303
f 156 158 1304
f 158 179 1305
f 156 1305 1306
f 1305 179 1307
f 156 1307 1308
f 1307 179 1309
f 156 1309 1310
f 1309 179 1310
f 158 1305 1304
f 1305 156 1311
f 1305 1307 1306
f 1312 1344 156
f 1344 1307 156
f 1307 1309 1313
f 1309 156 1313
f 179 774 1314
f 774 755 1315
f 774 1316 1314
f 1316 179 1314
f 156 1304 1311
f 1304 1305 1311
f 1307 1313 1308
f 1313 156 1308
f 1310 1343 156
f 1343 1303 156
f 1303 1343 179
f 1343 1310 179
f 156 1306 1312
f 1307 1344 1306
f 1344 1312 1306
f 1316 1340 179
f 1340 764 179
f 764 1340 755
f 1340 1316 755
f 755 1316 1317
f 1316 774 1318
f 774 1317 1319
f 1317 1316 1318
f 1317 1318 1320
f 1318 774 1320
f 755 1317 1321
f 1317 774 1322
f 774 1321 1323
f 1321 1317 1324
f 1317 1320 1325
f 1320 774 1325
f 755 1321 1326
f 1321 774 1327
f 774 1326 1328
f 1326 1321 1327
f 1321 1324 1329
f 1324 774 1329
f 1317 1325 1330
f 1325 774 1330
f 755 1326 1331
f 1332 1345 774
f 1345 1326 774
f 774 1331 1333
f 1331 1326 1333
f 1326 1327 1328
f 1327 774 1334
f 1321 1329 1323
f 1329 774 1323
f 1317 1330 1319
f 1330 774 1319
f 755 1331 1335
f 1331 774 1335
f 774 1333 1336
f 1333 1326 1336
f 1328 1346 774
f 1346 1337 774
f 1328 1327 1334
f 774 1324 1322
f 1324 1317 1322
f 755 1335 1315
f 1335 774 1315
f 774 1336 1332
f 1326 1345 1336
f 1345 1332 1336
f 1337 1346 1334
f 1346 1328 1334
f 1334 774 1337
f 373 403 389
f 403 309 389
f 466 515 502
f 515 491 502
f 658 681 669
f 681 646 669
f 125 123 126
f 123 122 126
f 119 248 268
f 248 267 268
f 289 119 307
f 119 288 307
f 329 120 1338
f 120 111 345
f 120 345 1338
f 345 329 1338
f 409 109 422
f 109 115 422
f 324 109 340
f 109 339 340
f 111 115 460
f 115 459 460
f 688 652 689
f 652 675 689
f 1270 1274 1273
f 1274 1272 1273
f 5 6 1339
f 6 86 322
f 6 322 1339
f 322 5 1339
f 5 7 6
f 174 1157 1080
f 227 228 211
f 235 169 1335
f 531 419 430
f 419 1083 1294
f 175 243 1325
f 120 123 119
f 289 309 125
f 251 134 132
f 134 144 141
f 125 236 1273
