v 0.541883 0.402477 -0.825000
v 0.541883 0.402477 -0.036213
v 0.541882 0.402476 -0.035995
v 0.541878 0.402473 -0.035778
v 0.541872 0.402469 -0.035562
v 0.541864 0.402462 -0.035347
v 0.541854 0.402453 -0.035132
v 0.541841 0.402442 -0.034918
v 0.541826 0.402430 -0.034705
v 0.541808 0.402415 -0.034493
v 0.541789 0.402398 -0.034282
v 0.541767 0.402380 -0.034071
v 0.541742 0.402359 -0.033860
v 0.541715 0.402337 -0.033651
v 0.541686 0.402312 -0.033442
v 0.541655 0.402286 -0.033233
v 0.541621 0.402258 -0.033026
v 0.541585 0.402227 -0.032818
v 0.541547 0.402195 -0.032611
v 0.541506 0.402161 -0.032405
v 0.541463 0.402125 -0.032199
v 0.541417 0.402087 -0.031994
v 0.541370 0.402047 -0.031789
v 0.541320 0.402005 -0.031585
v 0.541267 0.401961 -0.031381
v 0.541213 0.401915 -0.031178
v 0.541156 0.401868 -0.030977
v 0.541097 0.401818 -0.030776
v 0.541036 0.401767 -0.030576
v 0.540973 0.401714 -0.030377
v 0.540908 0.401659 -0.030180
v 0.540841 0.401603 -0.029983
v 0.540771 0.401545 -0.029788
v 0.540700 0.401485 -0.029595
v 0.540626 0.401423 -0.029403
v 0.540551 0.401360 -0.029212
v 0.540473 0.401295 -0.029023
v 0.540394 0.401228 -0.028836
v 0.540313 0.401160 -0.028650
v 0.540230 0.401090 -0.028467
v 0.540145 0.401019 -0.028285
v 0.540058 0.400946 -0.028105
v 0.539969 0.400871 -0.027927
v 0.539878 0.400795 -0.027750
v 0.539785 0.400717 -0.027575
v 0.539690 0.400637 -0.027402
v 0.539593 0.400556 -0.027231
v 0.539494 0.400473 -0.027061
v 0.539393 0.400388 -0.026893
v 0.539290 0.400302 -0.026727
v 0.539185 0.400214 -0.026562
v 0.539078 0.400124 -0.026399
v 0.538969 0.400032 -0.026237
v 0.538858 0.399939 -0.026077
v 0.538744 0.399844 -0.025919
v 0.538629 0.399747 -0.025762
v 0.538511 0.399648 -0.025607
v 0.538380 0.399538 -0.025435
v 0.538249 0.399428 -0.025264
v 0.538117 0.399318 -0.025093
v 0.537986 0.399207 -0.024922
v 0.537854 0.399097 -0.024751
v 0.537723 0.398987 -0.024580
v 0.537592 0.398877 -0.024408
v 0.537460 0.398767 -0.024237
v 0.537329 0.398656 -0.024066
v 0.537198 0.398546 -0.023895
v 0.537067 0.398436 -0.023724
v 0.536935 0.398326 -0.023553
v 0.536804 0.398216 -0.023382
v 0.536673 0.398106 -0.023211
v 0.536542 0.397996 -0.023040
v 0.536410 0.397885 -0.022869
v 0.536279 0.397775 -0.022698
v 0.536148 0.397665 -0.022527
v 0.536017 0.397555 -0.022356
v 0.535886 0.397445 -0.022185
v 0.535754 0.397335 -0.022014
v 0.535623 0.397225 -0.021843
v 0.535492 0.397115 -0.021672
v 0.535361 0.397005 -0.021501
v 0.535230 0.396895 -0.021331
v 0.535099 0.396785 -0.021160
v 0.534968 0.396675 -0.020989
v 0.534836 0.396565 -0.020818
v 0.534705 0.396455 -0.020647
v 0.534574 0.396345 -0.020476
v 0.534443 0.396235 -0.020306
v 0.534312 0.396125 -0.020135
v 0.534181 0.396015 -0.019964
v 0.534050 0.395905 -0.019793
v 0.533919 0.395795 -0.019623
v 0.533788 0.395685 -0.019452
v 0.533657 0.395575 -0.019281
v 0.533526 0.395465 -0.019111
v 0.533395 0.395355 -0.018940
v 0.533264 0.395245 -0.018769
v 0.533133 0.395136 -0.018599
v 0.533002 0.395026 -0.018428
v 0.532871 0.394916 -0.018257
v 0.532740 0.394806 -0.018087
v 0.532609 0.394696 -0.017916
v 0.532479 0.394586 -0.017746
v 0.532348 0.394476 -0.017575
v 0.532217 0.394367 -0.017404
v 0.532086 0.394257 -0.017234
v 0.531955 0.394147 -0.017063
v 0.531824 0.394037 -0.016893
v 0.531693 0.393927 -0.016722
v 0.531562 0.393818 -0.016552
v 0.531432 0.393708 -0.016381
v 0.531301 0.393598 -0.016211
v 0.531301 0.393598 -0.857174
v 0.531493 0.393759 -0.856591
v 0.531684 0.393920 -0.856008
v 0.531876 0.394081 -0.855425
v 0.532068 0.394242 -0.854842
v 0.532260 0.394403 -0.854258
v 0.532452 0.394564 -0.853675
v 0.532644 0.394725 -0.853091
v 0.532836 0.394886 -0.852508
v 0.533028 0.395047 -0.851924
v 0.533220 0.395208 -0.851340
v 0.533412 0.395369 -0.850757
v 0.533604 0.395530 -0.850173
v 0.533796 0.395692 -0.849589
v 0.533988 0.395853 -0.849005
v 0.534180 0.396014 -0.848421
v 0.534372 0.396175 -0.847837
v 0.534564 0.396336 -0.847252
v 0.534756 0.396498 -0.846668
v 0.534949 0.396659 -0.846084
v 0.535141 0.396820 -0.845499
v 0.535333 0.396981 -0.844915
v 0.535525 0.397143 -0.844330
v 0.535718 0.397304 -0.843746
v 0.535910 0.397465 -0.843161
v 0.536102 0.397627 -0.842576
v 0.536295 0.397788 -0.841991
v 0.536487 0.397950 -0.841406
v 0.536679 0.398111 -0.840822
v 0.536872 0.398273 -0.840236
v 0.537064 0.398434 -0.839651
v 0.537257 0.398596 -0.839066
v 0.537449 0.398757 -0.838481
v 0.537642 0.398919 -0.837896
v 0.537834 0.399080 -0.837310
v 0.538027 0.399242 -0.836725
v 0.538219 0.399403 -0.836139
v 0.538412 0.399565 -0.835553
v 0.538605 0.399727 -0.834968
v 0.538797 0.399888 -0.834382
v 0.538990 0.400050 -0.833796
v 0.539183 0.400212 -0.833210
v 0.539375 0.400373 -0.832624
v 0.539568 0.400535 -0.832038
v 0.539761 0.400697 -0.831452
v 0.539954 0.400859 -0.830866
v 0.540146 0.401020 -0.830280
v 0.540339 0.401182 -0.829693
v 0.540532 0.401344 -0.829107
v 0.540725 0.401506 -0.828520
v 0.540918 0.401668 -0.827934
v 0.541111 0.401830 -0.827347
v 0.541304 0.401992 -0.826761
v 0.541497 0.402153 -0.826174
v 0.541690 0.402315 -0.825587
f 112 110 111
f 112 109 110
f 112 108 109
f 112 107 108
f 112 106 107
f 112 105 106
f 112 104 105
f 112 103 104
f 112 102 103
f 112 101 102
f 112 100 101
f 112 99 100
f 112 98 99
f 112 97 98
f 112 96 97
f 112 95 96
f 112 94 95
f 112 93 94
f 112 92 93
f 112 91 92
f 112 90 91
f 112 89 90
f 112 88 89
f 112 87 88
f 112 86 87
f 112 85 86
f 112 84 85
f 112 83 84
f 112 82 83
f 112 81 82
f 112 80 81
f 112 79 80
f 112 78 79
f 112 77 78
f 112 76 77
f 112 75 76
f 112 74 75
f 112 73 74
f 112 72 73
f 112 71 72
f 112 70 71
f 112 69 70
f 112 68 69
f 112 67 68
f 112 66 67
f 112 65 66
f 112 64 65
f 112 63 64
f 112 62 63
f 112 61 62
f 112 60 61
f 112 59 60
f 112 58 59
f 112 57 58
f 112 56 57
f 112 55 56
f 112 54 55
f 112 53 54
f 112 52 53
f 112 51 52
f 112 50 51
f 112 49 50
f 112 48 49
f 112 47 48
f 112 46 47
f 112 45 46
f 112 44 45
f 112 43 44
f 112 42 43
f 112 41 42
f 112 40 41
f 112 39 40
f 112 38 39
f 112 37 38
f 112 36 37
f 112 35 36
f 112 34 35
f 112 33 34
f 112 32 33
f 112 31 32
f 112 30 31
f 112 29 30
f 112 28 29
f 112 27 28
f 112 26 27
f 112 25 26
f 112 24 25
f 112 23 24
f 112 22 23
f 112 21 22
f 112 20 21
f 112 19 20
f 112 18 19
f 112 17 18
f 112 16 17
f 112 15 16
f 112 14 15
f 112 13 14
f 112 12 13
f 112 11 12
f 112 10 11
f 112 9 10
f 112 8 9
f 112 7 8
f 112 6 7
f 112 5 6
f 112 4 5
f 112 3 4
f 112 2 3
f 112 1 2
f 112 167 1
f 112 166 167
f 112 165 166
f 112 164 165
f 112 163 164
f 112 162 163
f 112 161 162
f 112 160 161
f 112 159 160
f 112 158 159
f 112 157 158
f 112 156 157
f 112 155 156
f 112 154 155
f 112 153 154
f 112 152 153
f 112 151 152
f 112 150 151
f 112 149 150
f 112 148 149
f 112 147 148
f 112 146 147
f 112 145 146
f 112 144 145
f 112 143 144
f 112 142 143
f 112 141 142
f 112 140 141
f 112 139 140
f 112 138 139
f 112 137 138
f 112 136 137
f 112 135 136
f 112 134 135
f 112 133 134
f 112 132 133
f 112 131 132
f 112 130 131
f 112 129 130
f 112 128 129
f 112 127 128
f 112 126 127
f 112 125 126
f 112 124 125
f 112 123 124
f 112 122 123
f 112 121 122
f 112 120 121
f 112 119 120
f 112 118 119
f 112 117 118
f 112 116 117
f 112 115 116
f 112 114 115
f 112 113 114
