v 0.659411 0.009706 0.116272
v 0.652229 0.010000 0.153288
v 0.652229 0.000000 0.153288
v 0.665322 0.010000 0.079032
v 0.665031 0.010000 0.081448
v 0.664731 0.010000 0.083863
v 0.664422 0.010000 0.086277
v 0.664104 0.010000 0.088689
v 0.663778 0.010000 0.091101
v 0.663442 0.010000 0.093511
v 0.663098 0.010000 0.095921
v 0.662745 0.010000 0.098328
v 0.662384 0.010000 0.100735
v 0.662014 0.010000 0.103140
v 0.661635 0.010000 0.105544
v 0.661247 0.010000 0.107947
v 0.660850 0.010000 0.110348
v 0.660445 0.010000 0.112748
v 0.660031 0.010000 0.115146
v 0.659609 0.010000 0.117542
v 0.659178 0.010000 0.119938
v 0.658738 0.010000 0.122331
v 0.658289 0.010000 0.124723
v 0.657831 0.010000 0.127113
v 0.657365 0.010000 0.129502
v 0.656891 0.010000 0.131889
v 0.656407 0.010000 0.134274
v 0.655915 0.010000 0.136657
v 0.655415 0.010000 0.139039
v 0.654905 0.010000 0.141418
v 0.654387 0.010000 0.143796
v 0.653861 0.010000 0.146172
v 0.653325 0.010000 0.148546
v 0.652781 0.010000 0.150918
v 0.652229 0.010000 0.153288
v 0.665322 0.000000 0.079032
v 0.665322 0.010000 0.079032
v 0.665322 0.010000 0.079032
v 0.665031 0.010000 0.081448
v 0.664731 0.010000 0.083863
v 0.664422 0.010000 0.086277
v 0.664104 0.010000 0.088689
v 0.663778 0.010000 0.091101
v 0.663442 0.010000 0.093511
v 0.663098 0.010000 0.095921
v 0.662745 0.010000 0.098328
v 0.662384 0.010000 0.100735
v 0.662014 0.010000 0.103140
v 0.661635 0.010000 0.105544
v 0.661247 0.010000 0.107947
v 0.660850 0.010000 0.110348
v 0.660445 0.010000 0.112748
v 0.660031 0.010000 0.115146
v 0.659609 0.010000 0.117542
v 0.659178 0.010000 0.119938
v 0.658738 0.010000 0.122331
v 0.658289 0.010000 0.124723
v 0.657831 0.010000 0.127113
v 0.657365 0.010000 0.129502
v 0.656891 0.010000 0.131889
v 0.656407 0.010000 0.134274
v 0.655915 0.010000 0.136657
v 0.655415 0.010000 0.139039
v 0.654905 0.010000 0.141418
v 0.654387 0.010000 0.143796
v 0.653861 0.010000 0.146172
v 0.653325 0.010000 0.148546
v 0.652781 0.010000 0.150918
v 0.652229 0.010000 0.153288
f 1 2 3
f 1 3 4
f 1 4 5
f 1 5 6
f 1 6 7
f 1 7 8
f 1 8 9
f 1 9 10
f 1 10 11
f 1 11 12
f 1 12 13
f 1 13 14
f 1 14 15
f 1 15 16
f 1 16 17
f 1 17 18
f 1 18 19
f 1 19 20
f 1 20 21
f 1 21 22
f 1 22 23
f 1 23 24
f 1 24 25
f 1 25 26
f 1 26 27
f 1 27 28
f 1 28 29
f 1 29 30
f 1 30 31
f 1 31 32
f 1 32 33
f 1 33 34
f 1 34 35
f 1 35 36
f 1 36 37
f 1 37 38
f 1 38 39
f 1 39 40
f 1 40 41
f 1 41 42
f 1 42 43
f 1 43 44
f 1 44 45
f 1 45 46
f 1 46 47
f 1 47 48
f 1 48 49
f 1 49 50
f 1 50 51
f 1 51 52
f 1 52 53
f 1 53 54
f 1 54 55
f 1 55 56
f 1 56 57
f 1 57 58
f 1 58 59
f 1 59 60
f 1 60 61
f 1 61 62
f 1 62 63
f 1 63 64
f 1 64 65
f 1 65 66
f 1 66 67
f 1 67 68
f 1 68 69
f 1 69 2
