v -2.962500 0.300000 -4.328194
v -2.962500 0.306927 -4.330157
v -2.962500 0.313840 -4.332164
v -2.962500 0.320741 -4.334217
v -2.962500 0.327628 -4.336314
v -2.962500 0.334502 -4.338455
v -2.962500 0.341362 -4.340641
v -2.962500 0.348207 -4.342871
v -2.962500 0.355038 -4.345146
v -2.962500 0.361853 -4.347464
v -2.962500 0.368654 -4.349827
v -2.962500 0.375439 -4.352234
v -2.962500 0.382209 -4.354684
v -2.962500 0.388963 -4.357178
v -2.962500 0.395700 -4.359716
v -2.962500 0.402421 -4.362297
v -2.962500 0.409125 -4.364922
v -2.962500 0.415811 -4.367590
v -2.962500 0.422481 -4.370302
v -2.962500 0.429133 -4.373056
v -2.962500 0.435766 -4.375853
v -2.962500 0.442382 -4.378693
v -2.962500 0.448979 -4.381576
v -2.962500 0.455557 -4.384502
v -2.962500 0.462116 -4.387470
v -2.962500 0.468656 -4.390480
v -2.962500 0.475177 -4.393533
v -2.962500 0.481677 -4.396627
v -2.962500 0.488157 -4.399764
v -2.962500 0.494617 -4.402943
v -2.962500 0.501056 -4.406163
v -2.962500 0.507474 -4.409425
v -2.962500 0.513871 -4.412728
v -2.962500 0.520246 -4.416073
v -2.962500 0.526600 -4.419459
v -2.962500 0.532932 -4.422885
v -2.962500 0.539241 -4.426353
v -2.962500 0.545528 -4.429862
v -2.962500 0.551791 -4.433411
v -2.962500 0.558032 -4.437000
v -2.962500 0.300000 -4.437000
f 1 3 2
f 1 4 3
f 1 5 4
f 1 6 5
f 1 7 6
f 1 8 7
f 1 9 8
f 1 10 9
f 1 11 10
f 1 12 11
f 1 13 12
f 1 14 13
f 1 15 14
f 1 16 15
f 1 17 16
f 1 18 17
f 1 19 18
f 1 20 19
f 1 21 20
f 1 22 21
f 1 23 22
f 1 24 23
f 1 25 24
f 1 26 25
f 1 27 26
f 1 28 27
f 1 29 28
f 1 30 29
f 1 31 30
f 1 32 31
f 1 33 32
f 1 34 33
f 1 35 34
f 1 36 35
f 1 37 36
f 1 38 37
f 1 39 38
f 1 40 39
f 1 41 40
