v 0.855000 0.524053 -6.113000
v 0.861254 0.524106 -6.113079
v 0.855000 0.994631 -6.113000
v 0.864158 0.994585 -6.113147
v 0.867526 0.524266 -6.113316
v 0.873017 0.994449 -6.113578
v 0.873812 0.524532 -6.113712
v 0.880107 0.524905 -6.114268
v 0.881590 0.994227 -6.114283
v 0.886406 0.525386 -6.114985
v 0.889890 0.993923 -6.115247
v 0.892703 0.525975 -6.115863
v 0.897930 0.993541 -6.116459
v 0.898994 0.526674 -6.116903
v 0.905273 0.527481 -6.118107
v 0.905724 0.993084 -6.117907
v 0.911536 0.528399 -6.119474
v 0.913283 0.992557 -6.119578
v 0.917781 0.529428 -6.121006
v 0.920622 0.991964 -6.121459
v 0.924006 0.530569 -6.122706
v 0.927753 0.991308 -6.123539
v 0.930208 0.531823 -6.124574
v 0.934689 0.990594 -6.125805
v 0.936386 0.533191 -6.126613
v 0.941443 0.989825 -6.128244
v 0.942538 0.534675 -6.128823
v 0.948028 0.989005 -6.130844
v 0.948661 0.536275 -6.131206
v 0.954458 0.988139 -6.133592
v 0.954753 0.537992 -6.133764
v 0.960744 0.987229 -6.136477
v 0.960812 0.539828 -6.136499
v 0.966832 0.541782 -6.139410
v 0.966897 0.986279 -6.139490
v 0.972807 0.543856 -6.142500
v 0.972918 0.985290 -6.142628
v 0.978733 0.546051 -6.145769
v 0.978808 0.984261 -6.145891
v 0.984603 0.548367 -6.149219
v 0.984569 0.983193 -6.149278
v 0.990200 0.982086 -6.152788
v 0.990413 0.550804 -6.152850
v 0.995703 0.980941 -6.156420
v 0.996156 0.553364 -6.156663
v 1.001079 0.979758 -6.160173
v 1.001828 0.556047 -6.160660
v 1.006330 0.978537 -6.164046
v 1.007422 0.558853 -6.164840
v 1.011455 0.977278 -6.168038
v 1.012933 0.561782 -6.169204
v 1.016457 0.975982 -6.172149
v 1.018353 0.564834 -6.173750
v 1.021335 0.974649 -6.176377
v 1.023676 0.568008 -6.178478
v 1.026091 0.973279 -6.180721
v 1.028895 0.571304 -6.183388
v 1.030726 0.971873 -6.185181
v 1.034004 0.574721 -6.188480
v 1.035241 0.970430 -6.189756
v 1.038997 0.578260 -6.193751
v 1.039637 0.968952 -6.194444
v 1.043866 0.581920 -6.199203
v 1.043911 0.967437 -6.199248
v 1.048064 0.965886 -6.204168
v 1.048605 0.585698 -6.204832
v 1.052094 0.964298 -6.209205
v 1.053205 0.589594 -6.210636
v 1.056002 0.962673 -6.214359
v 1.057659 0.593605 -6.216610
v 1.059786 0.961011 -6.219630
v 1.061958 0.597727 -6.222753
v 1.063445 0.959311 -6.225021
v 1.066095 0.601961 -6.229059
v 1.066979 0.957574 -6.230531
v 1.070062 0.606301 -6.235525
v 1.070387 0.955799 -6.236162
v 1.073668 0.953985 -6.241913
v 1.073851 0.610748 -6.242149
v 1.076821 0.952133 -6.247786
v 1.077453 0.615297 -6.248927
v 1.079846 0.950243 -6.253782
v 1.080863 0.619945 -6.255849
v 1.082742 0.948314 -6.259900
v 1.084074 0.624683 -6.262908
v 1.085507 0.946345 -6.266144
v 1.087078 0.629506 -6.270092
v 1.088134 0.944335 -6.272519
v 1.089869 0.634406 -6.277392
v 1.090613 0.942281 -6.279035
v 1.092441 0.639377 -6.284797
v 1.092932 0.940178 -6.285704
v 1.094787 0.644413 -6.292299
v 1.095081 0.938024 -6.292536
v 1.097048 0.935816 -6.299539
v 1.096901 0.649506 -6.299886
v 1.098825 0.933550 -6.306726
v 1.098777 0.654651 -6.307550
v 1.100399 0.931223 -6.314105
v 1.100410 0.659843 -6.315285
v 1.101760 0.928833 -6.321687
v 1.101799 0.665081 -6.323088
v 1.102898 0.926375 -6.329482
v 1.102942 0.670362 -6.330955
v 1.103802 0.923846 -6.337501
v 1.103836 0.675684 -6.338883
v 1.104460 0.921244 -6.345754
v 1.104478 0.681045 -6.346869
v 1.104863 0.918566 -6.354250
v 1.104867 0.686442 -6.354909
v 1.105000 0.691873 -6.363000
v 1.105000 0.915807 -6.363000
f 1 3 2
f 2 3 4
f 2 4 5
f 5 4 6
f 5 6 7
f 7 6 8
f 8 6 9
f 8 9 10
f 10 9 11
f 10 11 12
f 12 11 13
f 12 13 14
f 14 13 15
f 15 13 16
f 15 16 17
f 17 16 18
f 17 18 19
f 19 18 20
f 19 20 21
f 21 20 22
f 21 22 23
f 23 22 24
f 23 24 25
f 25 24 26
f 25 26 27
f 27 26 28
f 27 28 29
f 29 28 30
f 29 30 31
f 31 30 32
f 31 32 33
f 33 32 34
f 34 32 35
f 34 35 36
f 36 35 37
f 36 37 38
f 38 37 39
f 38 39 40
f 40 39 41
f 40 41 42
f 40 42 43
f 43 42 44
f 43 44 45
f 45 44 46
f 45 46 47
f 47 46 48
f 47 48 49
f 49 48 50
f 49 50 51
f 51 50 52
f 51 52 53
f 53 52 54
f 53 54 55
f 55 54 56
f 55 56 57
f 57 56 58
f 57 58 59
f 59 58 60
f 59 60 61
f 61 60 62
f 61 62 63
f 63 62 64
f 63 64 65
f 63 65 66
f 66 65 67
f 66 67 68
f 68 67 69
f 68 69 70
f 70 69 71
f 70 71 72
f 72 71 73
f 72 73 74
f 74 73 75
f 74 75 76
f 76 75 77
f 76 77 78
f 76 78 79
f 79 78 80
f 79 80 81
f 81 80 82
f 81 82 83
f 83 82 84
f 83 84 85
f 85 84 86
f 85 86 87
f 87 86 88
f 87 88 89
f 89 88 90
f 89 90 91
f 91 90 92
f 91 92 93
f 93 92 94
f 93 94 95
f 93 95 96
f 96 95 97
f 96 97 98
f 98 97 99
f 98 99 100
f 100 99 101
f 100 101 102
f 102 101 103
f 102 103 104
f 104 103 105
f 104 105 106
f 106 105 107
f 106 107 108
f 108 107 109
f 108 109 110
f 110 109 111
f 111 109 112
