v 0.855000 0.524053 -6.063000
v 0.862504 0.524106 -6.063095
v 0.855000 0.957970 -6.063000
v 0.865989 0.957914 -6.063176
v 0.870030 0.524266 -6.063379
v 0.876620 0.957751 -6.063694
v 0.877574 0.524532 -6.063855
v 0.885127 0.524906 -6.064522
v 0.886908 0.957485 -6.064539
v 0.892685 0.525387 -6.065382
v 0.896868 0.957120 -6.065697
v 0.900242 0.525977 -6.066435
v 0.906516 0.956661 -6.067151
v 0.907791 0.526675 -6.067684
v 0.915326 0.527483 -6.069127
v 0.915868 0.956113 -6.068889
v 0.922842 0.528401 -6.070768
v 0.924940 0.955481 -6.070894
v 0.930336 0.529430 -6.072607
v 0.933746 0.954769 -6.073151
v 0.937805 0.530571 -6.074647
v 0.942303 0.953982 -6.075647
v 0.945248 0.531825 -6.076889
v 0.950627 0.953125 -6.078366
v 0.952662 0.533193 -6.079335
v 0.958732 0.952202 -6.081292
v 0.960044 0.534677 -6.081987
v 0.966634 0.951219 -6.084412
v 0.967392 0.536276 -6.084847
v 0.974349 0.950179 -6.087711
v 0.974703 0.537994 -6.087917
v 0.981893 0.949087 -6.091173
v 0.981974 0.539829 -6.091198
v 0.989198 0.541784 -6.094692
v 0.989277 0.947947 -6.094788
v 0.996368 0.543858 -6.098400
v 0.996502 0.946760 -6.098553
v 1.003479 0.546053 -6.102323
v 1.003570 0.945525 -6.102469
v 1.010524 0.548368 -6.106463
v 1.010482 0.944244 -6.106533
v 1.017240 0.942916 -6.110745
v 1.017495 0.550806 -6.110820
v 1.023844 0.941542 -6.115104
v 1.024387 0.553366 -6.115396
v 1.030295 0.940122 -6.119607
v 1.031194 0.556049 -6.120192
v 1.036596 0.938656 -6.124255
v 1.037907 0.558855 -6.125208
v 1.042746 0.937146 -6.129046
v 1.044520 0.561784 -6.130444
v 1.048748 0.935590 -6.133979
v 1.051024 0.564836 -6.135900
v 1.054602 0.933991 -6.139052
v 1.057411 0.568010 -6.141574
v 1.060309 0.932347 -6.144266
v 1.063674 0.571306 -6.147466
v 1.065872 0.930659 -6.149617
v 1.069805 0.574723 -6.153575
v 1.071290 0.928929 -6.155107
v 1.075796 0.578262 -6.159901
v 1.076564 0.927155 -6.160733
v 1.081639 0.581921 -6.166444
v 1.081693 0.925337 -6.166498
v 1.086677 0.923476 -6.172402
v 1.087326 0.585699 -6.173199
v 1.091513 0.921570 -6.178446
v 1.092846 0.589595 -6.180164
v 1.096202 0.919620 -6.184630
v 1.098191 0.593605 -6.187334
v 1.100743 0.917625 -6.190956
v 1.103350 0.597728 -6.194705
v 1.105134 0.915586 -6.197425
v 1.108314 0.601960 -6.202272
v 1.109375 0.913501 -6.204037
v 1.113074 0.606301 -6.210032
v 1.113464 0.911371 -6.210794
v 1.117401 0.909194 -6.217696
v 1.117621 0.610747 -6.217980
v 1.121185 0.906972 -6.224743
v 1.121944 0.615296 -6.226111
v 1.124815 0.904704 -6.231938
v 1.126036 0.619943 -6.234417
v 1.128290 0.902389 -6.239280
v 1.129888 0.624681 -6.242886
v 1.131609 0.900027 -6.246772
v 1.133493 0.629503 -6.251505
v 1.134761 0.897615 -6.254422
v 1.136842 0.634404 -6.260265
v 1.137735 0.895149 -6.262242
v 1.139929 0.639376 -6.269151
v 1.140518 0.892626 -6.270245
v 1.142744 0.644412 -6.278154
v 1.143097 0.890041 -6.278443
v 1.145458 0.887391 -6.286847
v 1.145281 0.649507 -6.287261
v 1.147590 0.884672 -6.295471
v 1.147532 0.654654 -6.296462
v 1.149479 0.881880 -6.304326
v 1.149492 0.659849 -6.305748
v 1.151112 0.879011 -6.313424
v 1.151160 0.665089 -6.315117
v 1.152478 0.876062 -6.322779
v 1.152531 0.670372 -6.324561
v 1.153562 0.873028 -6.332401
v 1.153604 0.675694 -6.334077
v 1.154352 0.869905 -6.342304
v 1.154375 0.681054 -6.343659
v 1.154836 0.866691 -6.352500
v 1.154841 0.686448 -6.353302
v 1.155000 0.691873 -6.363000
v 1.155000 0.863380 -6.363000
f 1 3 2
f 2 3 4
f 2 4 5
f 5 4 6
f 5 6 7
f 7 6 8
f 8 6 9
f 8 9 10
f 10 9 11
f 10 11 12
f 12 11 13
f 12 13 14
f 14 13 15
f 15 13 16
f 15 16 17
f 17 16 18
f 17 18 19
f 19 18 20
f 19 20 21
f 21 20 22
f 21 22 23
f 23 22 24
f 23 24 25
f 25 24 26
f 25 26 27
f 27 26 28
f 27 28 29
f 29 28 30
f 29 30 31
f 31 30 32
f 31 32 33
f 33 32 34
f 34 32 35
f 34 35 36
f 36 35 37
f 36 37 38
f 38 37 39
f 38 39 40
f 40 39 41
f 40 41 42
f 40 42 43
f 43 42 44
f 43 44 45
f 45 44 46
f 45 46 47
f 47 46 48
f 47 48 49
f 49 48 50
f 49 50 51
f 51 50 52
f 51 52 53
f 53 52 54
f 53 54 55
f 55 54 56
f 55 56 57
f 57 56 58
f 57 58 59
f 59 58 60
f 59 60 61
f 61 60 62
f 61 62 63
f 63 62 64
f 63 64 65
f 63 65 66
f 66 65 67
f 66 67 68
f 68 67 69
f 68 69 70
f 70 69 71
f 70 71 72
f 72 71 73
f 72 73 74
f 74 73 75
f 74 75 76
f 76 75 77
f 76 77 78
f 76 78 79
f 79 78 80
f 79 80 81
f 81 80 82
f 81 82 83
f 83 82 84
f 83 84 85
f 85 84 86
f 85 86 87
f 87 86 88
f 87 88 89
f 89 88 90
f 89 90 91
f 91 90 92
f 91 92 93
f 93 92 94
f 93 94 95
f 93 95 96
f 96 95 97
f 96 97 98
f 98 97 99
f 98 99 100
f 100 99 101
f 100 101 102
f 102 101 103
f 102 103 104
f 104 103 105
f 104 105 106
f 106 105 107
f 106 107 108
f 108 107 109
f 108 109 110
f 110 109 111
f 111 109 112
