v 0.675638 0.040322 -0.034418
v 0.675038 0.045280 -0.034697
v 0.674420 0.050239 -0.034958
v 0.673784 0.055199 -0.035200
v 0.673129 0.060159 -0.035423
v 0.672456 0.065120 -0.035628
v 0.671765 0.070080 -0.035814
v 0.671056 0.075039 -0.035982
v 0.670328 0.079998 -0.036131
v 0.669582 0.084955 -0.036262
v 0.668818 0.089911 -0.036373
v 0.668037 0.094866 -0.036467
v 0.667237 0.099818 -0.036541
v 0.666419 0.104769 -0.036597
v 0.665583 0.109717 -0.036634
v 0.664730 0.114662 -0.036653
v 0.663858 0.119604 -0.036653
v 0.662969 0.124543 -0.036634
v 0.662062 0.129478 -0.036597
v 0.661137 0.134410 -0.036541
v 0.660195 0.139337 -0.036467
v 0.659235 0.144261 -0.036373
v 0.658258 0.149179 -0.036262
v 0.657263 0.154093 -0.036131
v 0.656251 0.159001 -0.035982
v 0.655221 0.163904 -0.035814
v 0.654174 0.168801 -0.035628
v 0.653110 0.173692 -0.035423
v 0.652029 0.178577 -0.035200
v 0.650930 0.183456 -0.034958
v 0.649815 0.188327 -0.034697
v 0.648682 0.193192 -0.034418
v 0.668217 0.039789 -0.026784
v 0.668370 0.039789 -0.026940
v 0.668522 0.039789 -0.027095
v 0.668674 0.039790 -0.027249
v 0.668826 0.039791 -0.027403
v 0.668977 0.039793 -0.027556
v 0.669127 0.039794 -0.027709
v 0.669276 0.039797 -0.027862
v 0.669426 0.039799 -0.028014
v 0.669574 0.039802 -0.028165
v 0.669722 0.039806 -0.028316
v 0.669870 0.039809 -0.028467
v 0.670017 0.039813 -0.028617
v 0.670163 0.039818 -0.028767
v 0.670310 0.039823 -0.028916
v 0.670456 0.039828 -0.029065
v 0.670601 0.039834 -0.029214
v 0.670746 0.039840 -0.029362
v 0.670891 0.039846 -0.029510
v 0.671035 0.039853 -0.029658
v 0.671179 0.039860 -0.029806
v 0.671322 0.039867 -0.029953
v 0.671465 0.039875 -0.030100
v 0.671608 0.039883 -0.030246
v 0.671750 0.039892 -0.030391
v 0.671891 0.039901 -0.030537
v 0.672032 0.039910 -0.030681
v 0.672171 0.039920 -0.030825
v 0.672310 0.039930 -0.030968
v 0.672449 0.039940 -0.031110
v 0.672586 0.039951 -0.031251
v 0.672722 0.039962 -0.031392
v 0.672858 0.039973 -0.031531
v 0.672992 0.039985 -0.031670
v 0.673125 0.039997 -0.031807
v 0.673257 0.040009 -0.031944
v 0.673388 0.040022 -0.032079
v 0.673517 0.040034 -0.032212
v 0.673645 0.040048 -0.032345
v 0.673772 0.040061 -0.032476
v 0.673898 0.040075 -0.032606
v 0.674022 0.040089 -0.032735
v 0.674145 0.040104 -0.032863
v 0.674267 0.040118 -0.032989
v 0.674388 0.040134 -0.033115
v 0.674507 0.040149 -0.033239
v 0.674625 0.040165 -0.033362
v 0.674742 0.040181 -0.033483
v 0.674858 0.040197 -0.033604
v 0.674973 0.040214 -0.033724
v 0.675087 0.040231 -0.033842
v 0.675199 0.040249 -0.033959
v 0.675310 0.040266 -0.034076
v 0.675420 0.040284 -0.034191
v 0.675530 0.040303 -0.034305
v 0.675638 0.040322 -0.034418
v 0.675038 0.045280 -0.034697
v 0.674420 0.050239 -0.034958
v 0.673784 0.055199 -0.035200
v 0.673129 0.060159 -0.035423
v 0.672456 0.065120 -0.035628
v 0.671765 0.070080 -0.035814
v 0.671056 0.075039 -0.035982
v 0.670328 0.079998 -0.036131
v 0.669582 0.084955 -0.036262
v 0.668818 0.089911 -0.036373
v 0.668037 0.094866 -0.036467
v 0.667237 0.099818 -0.036541
v 0.666419 0.104769 -0.036597
v 0.665583 0.109717 -0.036634
v 0.664730 0.114662 -0.036653
v 0.663858 0.119604 -0.036653
v 0.662969 0.124543 -0.036634
v 0.662062 0.129478 -0.036597
v 0.661137 0.134410 -0.036541
v 0.660195 0.139337 -0.036467
v 0.659235 0.144261 -0.036373
v 0.658258 0.149179 -0.036262
v 0.657263 0.154093 -0.036131
v 0.656251 0.159001 -0.035982
v 0.655221 0.163904 -0.035814
v 0.654174 0.168801 -0.035628
v 0.653110 0.173692 -0.035423
v 0.652029 0.178577 -0.035200
v 0.650930 0.183456 -0.034958
v 0.649815 0.188327 -0.034697
v 0.648682 0.193192 -0.034418
v 0.648575 0.193172 -0.034305
v 0.648466 0.193152 -0.034191
v 0.648356 0.193132 -0.034076
v 0.648245 0.193110 -0.033959
v 0.648134 0.193088 -0.033842
v 0.648021 0.193066 -0.033724
v 0.647908 0.193042 -0.033604
v 0.647793 0.193018 -0.033483
v 0.647678 0.192993 -0.033362
v 0.647561 0.192967 -0.033239
v 0.647444 0.192941 -0.033115
v 0.647325 0.192914 -0.032989
v 0.647206 0.192886 -0.032863
v 0.647085 0.192858 -0.032735
v 0.646963 0.192828 -0.032606
v 0.646841 0.192798 -0.032476
v 0.646717 0.192768 -0.032345
v 0.646592 0.192736 -0.032212
v 0.646466 0.192704 -0.032079
v 0.646338 0.192671 -0.031944
v 0.646210 0.192638 -0.031807
v 0.646081 0.192603 -0.031670
v 0.645951 0.192568 -0.031531
v 0.645820 0.192533 -0.031392
v 0.645688 0.192497 -0.031251
v 0.645555 0.192460 -0.031110
v 0.645422 0.192422 -0.030968
v 0.645288 0.192384 -0.030825
v 0.645153 0.192345 -0.030681
v 0.645018 0.192306 -0.030537
v 0.644882 0.192266 -0.030391
v 0.644746 0.192225 -0.030246
v 0.644609 0.192184 -0.030100
v 0.644472 0.192143 -0.029953
v 0.644335 0.192101 -0.029806
v 0.644197 0.192058 -0.029658
v 0.644059 0.192015 -0.029510
v 0.643921 0.191972 -0.029362
v 0.643783 0.191928 -0.029214
v 0.643644 0.191883 -0.029065
v 0.643505 0.191838 -0.028916
v 0.643366 0.191793 -0.028767
v 0.643227 0.191747 -0.028617
v 0.643087 0.191700 -0.028467
v 0.642947 0.191653 -0.028316
v 0.642807 0.191606 -0.028165
v 0.642666 0.191558 -0.028014
v 0.642525 0.191509 -0.027862
v 0.642384 0.191460 -0.027709
v 0.642242 0.191411 -0.027556
v 0.642100 0.191360 -0.027403
v 0.641957 0.191310 -0.027249
v 0.641814 0.191258 -0.027095
v 0.641671 0.191206 -0.026940
v 0.641527 0.191154 -0.026784
f 173 174 1
f 1 2 3
f 3 4 5
f 5 6 7
f 7 8 9
f 9 10 11
f 11 12 13
f 13 14 15
f 15 16 17
f 17 18 19
f 19 20 21
f 21 22 23
f 23 24 25
f 25 26 27
f 27 28 29
f 29 30 31
f 31 32 33
f 33 34 35
f 35 36 37
f 37 38 39
f 39 40 41
f 41 42 43
f 43 44 45
f 45 46 47
f 47 48 49
f 49 50 51
f 51 52 53
f 53 54 55
f 55 56 57
f 57 58 59
f 59 60 61
f 61 62 63
f 63 64 65
f 65 66 67
f 67 68 69
f 69 70 71
f 71 72 73
f 73 74 75
f 75 76 77
f 77 78 79
f 79 80 81
f 81 82 83
f 83 84 85
f 85 86 87
f 87 88 89
f 89 90 91
f 91 92 93
f 93 94 95
f 95 96 97
f 97 98 99
f 99 100 101
f 101 102 103
f 103 104 105
f 105 106 107
f 107 108 109
f 109 110 111
f 111 112 113
f 113 114 115
f 115 116 117
f 117 118 119
f 119 120 121
f 121 122 123
f 123 124 125
f 125 126 127
f 127 128 129
f 129 130 131
f 131 132 133
f 133 134 135
f 135 136 137
f 137 138 139
f 139 140 141
f 141 142 143
f 143 144 145
f 145 146 147
f 147 148 149
f 149 150 151
f 151 152 153
f 153 154 155
f 155 156 157
f 157 158 159
f 159 160 161
f 161 162 163
f 163 164 165
f 165 166 167
f 167 168 169
f 169 170 171
f 171 172 173
f 173 1 3
f 3 5 7
f 7 9 11
f 11 13 15
f 15 17 19
f 19 21 23
f 23 25 27
f 27 29 31
f 31 33 35
f 35 37 39
f 39 41 43
f 43 45 47
f 47 49 51
f 51 53 55
f 55 57 59
f 59 61 63
f 63 65 67
f 67 69 71
f 71 73 75
f 75 77 79
f 79 81 83
f 83 85 87
f 87 89 91
f 91 93 95
f 95 97 99
f 99 101 103
f 103 105 107
f 107 109 111
f 111 113 115
f 115 117 119
f 119 121 123
f 123 125 127
f 127 129 131
f 131 133 135
f 135 137 139
f 139 141 143
f 143 145 147
f 147 149 151
f 151 153 155
f 155 157 159
f 159 161 163
f 163 165 167
f 167 169 171
f 171 173 3
f 3 7 11
f 11 15 19
f 19 23 27
f 27 31 35
f 35 39 43
f 43 47 51
f 51 55 59
f 59 63 67
f 67 71 75
f 75 79 83
f 83 87 91
f 91 95 99
f 99 103 107
f 107 111 115
f 115 119 123
f 123 127 131
f 131 135 139
f 139 143 147
f 147 151 155
f 155 159 163
f 163 167 171
f 171 3 11
f 11 19 27
f 27 35 43
f 43 51 59
f 59 67 75
f 75 83 91
f 91 99 107
f 107 115 123
f 123 131 139
f 139 147 155
f 155 163 171
f 171 11 27
f 27 43 59
f 59 75 91
f 91 107 123
f 123 139 155
f 155 171 27
f 27 59 91
f 91 123 155
