v 0.556522 0.010000 -0.373073
v 0.555052 0.010000 -0.375257
v 0.553572 0.010000 -0.377436
v 0.552085 0.010000 -0.379609
v 0.550588 0.010000 -0.381776
v 0.549083 0.010000 -0.383937
v 0.547570 0.010000 -0.386092
v 0.546048 0.010000 -0.388241
v 0.544518 0.010000 -0.390384
v 0.542980 0.010000 -0.392521
v 0.541433 0.010000 -0.394652
v 0.556522 0.220000 -0.373073
v 0.555052 0.220000 -0.375257
v 0.553572 0.220000 -0.377436
v 0.552085 0.220000 -0.379609
v 0.550588 0.220000 -0.381776
v 0.549083 0.220000 -0.383937
v 0.547570 0.220000 -0.386092
v 0.546048 0.220000 -0.388241
v 0.544518 0.220000 -0.390384
v 0.542980 0.220000 -0.392521
v 0.541433 0.220000 -0.394652
f 1 2 13
f 1 13 12
f 2 3 14
f 2 14 13
f 3 4 15
f 3 15 14
f 4 5 16
f 4 16 15
f 5 6 17
f 5 17 16
f 6 7 18
f 6 18 17
f 7 8 19
f 7 19 18
f 8 9 20
f 8 20 19
f 9 10 21
f 9 21 20
f 10 11 22
f 10 22 21
