v 0.624857 -0.080333 -1.051004
v 0.625038 -0.078916 -1.051148
v 0.625211 -0.077533 -1.051492
v 0.625373 -0.076215 -1.052030
v 0.625521 -0.074987 -1.052751
v 0.625654 -0.073874 -1.053639
v 0.625768 -0.072899 -1.054677
v 0.625863 -0.072081 -1.055843
v 0.625937 -0.071437 -1.057113
v 0.625989 -0.070980 -1.058462
v 0.626018 -0.070718 -1.059862
v 0.557412 -0.078111 -1.051004
v 0.557458 -0.076689 -1.051147
v 0.557504 -0.075303 -1.051491
v 0.557548 -0.073980 -1.052030
v 0.557588 -0.072749 -1.052750
v 0.557625 -0.071632 -1.053639
v 0.557657 -0.070655 -1.054677
v 0.557684 -0.069834 -1.055843
v 0.557706 -0.069189 -1.057113
v 0.557721 -0.068730 -1.058462
v 0.557729 -0.068468 -1.059862
v 0.489117 -0.075861 -1.051004
v 0.489164 -0.074439 -1.051147
v 0.489210 -0.073053 -1.051491
v 0.489253 -0.071730 -1.052030
v 0.489294 -0.070498 -1.052750
v 0.489331 -0.069382 -1.053639
v 0.489363 -0.068404 -1.054677
v 0.489390 -0.067584 -1.055843
v 0.489411 -0.066939 -1.057113
v 0.489426 -0.066480 -1.058462
v 0.489435 -0.066218 -1.059862
f 1 13 2
f 1 12 13
f 2 14 3
f 2 13 14
f 3 15 4
f 3 14 15
f 4 16 5
f 4 15 16
f 5 17 6
f 5 16 17
f 6 18 7
f 6 17 18
f 7 19 8
f 7 18 19
f 8 20 9
f 8 19 20
f 9 21 10
f 9 20 21
f 10 22 11
f 10 21 22
f 12 24 13
f 12 23 24
f 13 25 14
f 13 24 25
f 14 26 15
f 14 25 26
f 15 27 16
f 15 26 27
f 16 28 17
f 16 27 28
f 17 29 18
f 17 28 29
f 18 30 19
f 18 29 30
f 19 31 20
f 19 30 31
f 20 32 21
f 20 31 32
f 21 33 22
f 21 32 33
