v 0.270766 0.010000 0.612851
v 0.273172 0.010000 0.611782
v 0.275575 0.010000 0.610703
v 0.277973 0.010000 0.609615
v 0.280367 0.010000 0.608518
v 0.282756 0.010000 0.607412
v 0.285142 0.010000 0.606296
v 0.287522 0.010000 0.605170
v 0.289899 0.010000 0.604035
v 0.292271 0.010000 0.602891
v 0.294638 0.010000 0.601738
v 0.270766 0.220000 0.612851
v 0.273172 0.220000 0.611782
v 0.275575 0.220000 0.610703
v 0.277973 0.220000 0.609615
v 0.280367 0.220000 0.608518
v 0.282756 0.220000 0.607412
v 0.285142 0.220000 0.606296
v 0.287522 0.220000 0.605170
v 0.289899 0.220000 0.604035
v 0.292271 0.220000 0.602891
v 0.294638 0.220000 0.601738
f 1 2 13
f 1 13 12
f 2 3 14
f 2 14 13
f 3 4 15
f 3 15 14
f 4 5 16
f 4 16 15
f 5 6 17
f 5 17 16
f 6 7 18
f 6 18 17
f 7 8 19
f 7 19 18
f 8 9 20
f 8 20 19
f 9 10 21
f 9 21 20
f 10 11 22
f 10 22 21
