v 2.045720 1.061487 -5.734686
v 2.038566 1.054650 -5.756369
v 2.031020 1.047869 -5.777878
v 2.023076 1.041140 -5.799217
v 2.014730 1.034464 -5.820392
v 2.005976 1.027837 -5.841411
v 1.996810 1.021257 -5.862279
v 1.987225 1.014723 -5.883002
v 1.977217 1.008233 -5.903587
v 1.966780 1.001784 -5.924039
v 1.955912 0.995376 -5.944362
v 1.944618 0.989013 -5.964544
v 1.932910 0.982701 -5.984564
v 1.920797 0.976446 -6.004402
v 1.908292 0.970254 -6.024039
v 1.895405 0.964132 -6.043456
v 1.882147 0.958086 -6.062632
v 1.868528 0.952122 -6.081547
v 1.854560 0.946247 -6.100181
v 1.840253 0.940466 -6.118517
v 1.825615 0.934782 -6.136544
v 1.810650 0.929195 -6.154261
v 1.795364 0.923708 -6.171665
v 1.779762 0.918319 -6.188756
v 1.763850 0.913030 -6.205530
v 1.747633 0.907842 -6.221985
v 1.731116 0.902755 -6.238120
v 1.714305 0.897769 -6.253932
v 1.697204 0.892886 -6.269419
v 1.679820 0.888107 -6.284578
v 1.662159 0.883432 -6.299404
v 1.644228 0.878864 -6.313891
v 1.626033 0.874404 -6.328035
v 1.607581 0.870055 -6.341831
v 1.588878 0.865816 -6.355274
v 1.569930 0.861691 -6.368358
v 1.550745 0.857680 -6.381079
v 1.531329 0.853785 -6.393432
v 1.511691 0.850008 -6.405412
v 1.491845 0.846349 -6.417015
v 1.471804 0.842811 -6.428237
v 1.451583 0.839394 -6.439074
v 1.431195 0.836100 -6.449521
v 1.410655 0.832930 -6.459574
v 1.389976 0.829886 -6.469231
v 1.369172 0.826968 -6.478485
v 1.348257 0.824178 -6.487334
v 1.327241 0.821517 -6.495775
v 1.306120 0.818983 -6.503810
v 1.284891 0.816577 -6.511442
v 1.263549 0.814296 -6.518674
v 1.242090 0.812141 -6.525510
v 1.220510 0.810110 -6.531951
v 1.198804 0.808202 -6.538002
v 1.176969 0.806417 -6.543664
v 1.155000 0.804753 -6.548942
v 1.155000 0.863380 -6.363000
v 1.154836 0.866691 -6.352500
v 1.154352 0.869905 -6.342304
v 1.153562 0.873028 -6.332401
v 1.152478 0.876062 -6.322779
v 1.151112 0.879011 -6.313424
v 1.149479 0.881880 -6.304326
v 1.147590 0.884672 -6.295471
v 1.145458 0.887391 -6.286847
v 1.143097 0.890041 -6.278443
v 1.140518 0.892626 -6.270245
v 1.137735 0.895149 -6.262242
v 1.134761 0.897615 -6.254422
v 1.131609 0.900027 -6.246772
v 1.128290 0.902389 -6.239280
v 1.124815 0.904704 -6.231938
v 1.121185 0.906972 -6.224743
v 1.117401 0.909194 -6.217696
v 1.113464 0.911371 -6.210794
v 1.109375 0.913501 -6.204037
v 1.105134 0.915586 -6.197425
v 1.100743 0.917625 -6.190956
v 1.096202 0.919620 -6.184630
v 1.091513 0.921570 -6.178446
v 1.086677 0.923476 -6.172402
v 1.081693 0.925337 -6.166498
v 1.076564 0.927155 -6.160733
v 1.071290 0.928929 -6.155107
v 1.065872 0.930659 -6.149617
v 1.060309 0.932347 -6.144266
v 1.054602 0.933991 -6.139052
v 1.048748 0.935590 -6.133979
v 1.042746 0.937146 -6.129046
v 1.036596 0.938656 -6.124255
v 1.030295 0.940122 -6.119607
v 1.023844 0.941542 -6.115104
v 1.017240 0.942916 -6.110745
v 1.010482 0.944244 -6.106533
v 1.003570 0.945525 -6.102469
v 0.996502 0.946760 -6.098553
v 0.989277 0.947947 -6.094788
v 0.981893 0.949087 -6.091173
v 0.974349 0.950179 -6.087711
v 0.966634 0.951219 -6.084412
v 0.958732 0.952202 -6.081292
v 0.950627 0.953125 -6.078366
v 0.942303 0.953982 -6.075647
v 0.933746 0.954769 -6.073151
v 0.924940 0.955481 -6.070894
v 0.915868 0.956113 -6.068889
v 0.906516 0.956661 -6.067151
v 0.896868 0.957120 -6.065697
v 0.886908 0.957485 -6.064539
v 0.876620 0.957751 -6.063694
v 0.865989 0.957914 -6.063176
v 0.855000 0.957970 -6.063000
v -0.970000 0.957970 -6.063000
v -0.973663 0.957951 -6.063059
v -0.977207 0.957897 -6.063231
v -0.980636 0.957808 -6.063513
v -0.983956 0.957686 -6.063899
v -0.987172 0.957534 -6.064384
v -0.990289 0.957351 -6.064963
v -0.993313 0.957140 -6.065631
v -0.996249 0.956903 -6.066384
v -0.999101 0.956641 -6.067216
v -1.001876 0.956355 -6.068122
v -1.004577 0.956047 -6.069097
v -1.007211 0.955719 -6.070137
v -1.009783 0.955373 -6.071237
v -1.012298 0.955009 -6.072391
v -1.014759 0.954629 -6.073596
v -1.017167 0.954233 -6.074851
v -1.019523 0.953822 -6.076156
v -1.021827 0.953394 -6.077511
v -1.024080 0.952952 -6.078915
v -1.026281 0.952494 -6.080368
v -1.028432 0.952020 -6.081869
v -1.030532 0.951532 -6.083418
v -1.032582 0.951028 -6.085015
v -1.034583 0.950510 -6.086660
v -1.036534 0.949977 -6.088351
v -1.038436 0.949429 -6.090089
v -1.040291 0.948866 -6.091872
v -1.042097 0.948289 -6.093702
v -1.043855 0.947698 -6.095578
v -1.045564 0.947092 -6.097499
v -1.047226 0.946472 -6.099467
v -1.048838 0.945837 -6.101482
v -1.050401 0.945187 -6.103543
v -1.051914 0.944522 -6.105652
v -1.053378 0.943842 -6.107808
v -1.054792 0.943147 -6.110012
v -1.056155 0.942437 -6.112265
v -1.057467 0.941711 -6.114565
v -1.058728 0.940971 -6.116914
v -1.059938 0.940215 -6.119313
v -1.061097 0.939443 -6.121760
v -1.062203 0.938655 -6.124257
v -1.063254 0.937851 -6.126807
v -1.064245 0.937030 -6.129414
v -1.065173 0.936188 -6.132082
v -1.066032 0.935327 -6.134814
v -1.066819 0.934444 -6.137616
v -1.067530 0.933537 -6.140490
v -1.068160 0.932607 -6.143442
v -1.068704 0.931650 -6.146475
v -1.069159 0.930667 -6.149593
v -1.069521 0.929656 -6.152800
v -1.069784 0.928615 -6.156101
v -1.069945 0.927544 -6.159500
v -1.070000 0.926440 -6.163000
v -1.070000 0.863380 -6.363000
v -1.069945 0.862277 -6.366500
v -1.069784 0.861205 -6.369899
v -1.069521 0.860164 -6.373200
v -1.069159 0.859153 -6.376407
v -1.068704 0.858170 -6.379525
v -1.068160 0.857214 -6.382558
v -1.067530 0.856283 -6.385510
v -1.066819 0.855377 -6.388384
v -1.066032 0.854493 -6.391186
v -1.065173 0.853632 -6.393918
v -1.064245 0.852791 -6.396586
v -1.063254 0.851969 -6.399193
v -1.062203 0.851165 -6.401743
v -1.061097 0.850377 -6.404240
v -1.059938 0.849606 -6.406687
v -1.058728 0.848849 -6.409086
v -1.057467 0.848109 -6.411435
v -1.056155 0.847383 -6.413735
v -1.054792 0.846673 -6.415988
v -1.053378 0.845978 -6.418192
v -1.051914 0.845298 -6.420348
v -1.050401 0.844634 -6.422457
v -1.048838 0.843984 -6.424518
v -1.047226 0.843348 -6.426533
v -1.045564 0.842728 -6.428501
v -1.043855 0.842122 -6.430422
v -1.042097 0.841531 -6.432298
v -1.040291 0.840954 -6.434128
v -1.038436 0.840391 -6.435911
v -1.036534 0.839843 -6.437649
v -1.034583 0.839310 -6.439340
v -1.032582 0.838792 -6.440985
v -1.030532 0.838288 -6.442582
v -1.028432 0.837800 -6.444131
v -1.026281 0.837326 -6.445632
v -1.024080 0.836868 -6.447085
v -1.021827 0.836426 -6.448489
v -1.019523 0.835998 -6.449844
v -1.017167 0.835587 -6.451149
v -1.014759 0.835191 -6.452404
v -1.012298 0.834811 -6.453609
v -1.009783 0.834447 -6.454763
v -1.007211 0.834101 -6.455863
v -1.004577 0.833773 -6.456903
v -1.001876 0.833465 -6.457878
v -0.999101 0.833179 -6.458784
v -0.996249 0.832917 -6.459616
v -0.993313 0.832680 -6.460369
v -0.990289 0.832469 -6.461037
v -0.987172 0.832287 -6.461616
v -0.983956 0.832134 -6.462101
v -0.980636 0.832012 -6.462487
v -0.977207 0.831923 -6.462769
v -0.973663 0.831869 -6.462941
v -0.970000 0.831850 -6.463000
v 0.230000 0.831850 -6.463000
v 0.232753 0.831838 -6.463038
v 0.235428 0.831803 -6.463151
v 0.238027 0.831744 -6.463337
v 0.240551 0.831663 -6.463594
v 0.243002 0.831560 -6.463921
v 0.245383 0.831436 -6.464314
v 0.247695 0.831291 -6.464773
v 0.249942 0.831127 -6.465295
v 0.252123 0.830943 -6.465878
v 0.254243 0.830740 -6.466521
v 0.256302 0.830520 -6.467221
v 0.258304 0.830281 -6.467976
v 0.260249 0.830026 -6.468785
v 0.262139 0.829755 -6.469646
v 0.263978 0.829468 -6.470557
v 0.265767 0.829166 -6.471515
v 0.267508 0.828849 -6.472519
v 0.269202 0.828519 -6.473567
v 0.270853 0.828175 -6.474657
v 0.272462 0.827819 -6.475786
v 0.274031 0.827451 -6.476954
v 0.275563 0.827071 -6.478158
v 0.277058 0.826681 -6.479396
v 0.278520 0.826280 -6.480666
v 0.279950 0.825870 -6.481966
v 0.281350 0.825451 -6.483295
v 0.282723 0.825024 -6.484649
v 0.284070 0.824589 -6.486029
v 0.285392 0.824147 -6.487433
v 0.286686 0.823696 -6.488862
v 0.287951 0.823236 -6.490320
v 0.289186 0.822768 -6.491807
v 0.290388 0.822289 -6.493324
v 0.291556 0.821800 -6.494875
v 0.292687 0.821300 -6.496460
v 0.293781 0.820789 -6.498081
v 0.294835 0.820266 -6.499740
v 0.295847 0.819731 -6.501438
v 0.296817 0.819182 -6.503178
v 0.297741 0.818620 -6.504961
v 0.298619 0.818044 -6.506788
v 0.299448 0.817453 -6.508661
v 0.300226 0.816848 -6.510583
v 0.300953 0.816226 -6.512554
v 0.301626 0.815588 -6.514576
v 0.302243 0.814934 -6.516652
v 0.302803 0.814262 -6.518782
v 0.303303 0.813573 -6.520969
v 0.303743 0.812865 -6.523214
v 0.304119 0.812138 -6.525519
v 0.304432 0.811392 -6.527885
v 0.304678 0.810626 -6.530315
v 0.304856 0.809839 -6.532809
v 0.304964 0.809032 -6.535371
v 0.305000 0.808203 -6.538000
v 0.305000 0.794700 -6.580824
v -1.576589 0.794700 -6.580824
v -1.600809 0.794510 -6.581430
v -1.624516 0.794478 -6.581530
v -1.647709 0.794605 -6.581128
v -1.670385 0.794889 -6.580226
v -1.692540 0.795331 -6.578824
v -1.714173 0.795930 -6.576925
v -1.735281 0.796684 -6.574532
v -1.755870 0.797592 -6.571655
v -1.775947 0.798648 -6.568304
v -1.795520 0.799850 -6.564492
v -1.814595 0.801194 -6.560229
v -1.833179 0.802677 -6.555527
v -1.851285 0.804295 -6.550395
v -1.868956 0.806053 -6.544817
v -1.886252 0.807961 -6.538768
v -1.903233 0.810024 -6.532223
v -1.919958 0.812253 -6.525154
v -1.936487 0.814655 -6.517536
v -1.952878 0.817238 -6.509344
v -1.969160 0.820010 -6.500552
v -1.985345 0.822979 -6.491136
v -2.001444 0.826152 -6.481072
v -2.017468 0.829537 -6.470336
v -2.033428 0.833142 -6.458903
v -2.049335 0.836974 -6.446750
v -2.065180 0.841038 -6.433860
v -2.080938 0.845339 -6.420220
v -2.096583 0.849879 -6.405820
v -2.112091 0.854663 -6.390647
v -2.127435 0.859694 -6.374691
v -2.142590 0.864975 -6.357941
v -2.157529 0.870510 -6.340388
v -2.172223 0.876298 -6.322029
v -2.186644 0.882341 -6.302863
v -2.200763 0.888640 -6.282886
v -2.214551 0.895195 -6.262096
v -2.227979 0.902007 -6.240490
v -2.241030 0.909076 -6.218073
v -2.253709 0.916394 -6.194861
v -2.266017 0.923958 -6.170870
v -2.277961 0.931762 -6.146119
v -2.289543 0.939801 -6.120624
v -2.300768 0.948068 -6.094403
v -2.311655 0.956558 -6.067478
v -2.322251 0.965258 -6.039885
v -2.332608 0.974157 -6.011661
v -2.342778 0.983243 -5.982843
v -2.352814 0.992505 -5.953468
v -2.362766 1.001931 -5.923573
v -2.372695 1.011510 -5.893192
v -2.382685 1.021236 -5.862345
v -2.392822 1.031103 -5.831052
v -2.403196 1.041104 -5.799331
v -2.413892 1.051234 -5.767203
v -2.425000 1.061487 -5.734686
f 336 337 1
f 1 2 3
f 3 4 5
f 5 6 7
f 7 8 9
f 9 10 11
f 11 12 13
f 13 14 15
f 15 16 17
f 17 18 19
f 19 20 21
f 21 22 23
f 23 24 25
f 25 26 27
f 27 28 29
f 29 30 31
f 31 32 33
f 33 34 35
f 35 36 37
f 37 38 39
f 39 40 41
f 41 42 43
f 43 44 45
f 45 46 47
f 47 48 49
f 49 50 51
f 51 52 53
f 53 54 55
f 55 56 57
f 224 225 226
f 226 227 228
f 228 229 230
f 230 231 232
f 232 233 234
f 234 235 236
f 236 237 238
f 238 239 240
f 240 241 242
f 242 243 244
f 244 245 246
f 246 247 248
f 248 249 250
f 250 251 252
f 252 253 254
f 254 255 256
f 256 257 258
f 258 259 260
f 260 261 262
f 262 263 264
f 264 265 266
f 266 267 268
f 268 269 270
f 270 271 272
f 272 273 274
f 274 275 276
f 276 277 278
f 278 279 280
f 280 281 282
f 282 283 284
f 284 285 286
f 286 287 288
f 288 289 290
f 290 291 292
f 292 293 294
f 294 295 296
f 296 297 298
f 298 299 300
f 300 301 302
f 302 303 304
f 304 305 306
f 306 307 308
f 308 309 310
f 310 311 312
f 312 313 314
f 314 315 316
f 316 317 318
f 318 319 320
f 320 321 322
f 322 323 324
f 324 325 326
f 326 327 328
f 328 329 330
f 330 331 332
f 335 336 1
f 1 3 5
f 5 7 9
f 9 11 13
f 13 15 17
f 17 19 21
f 21 23 25
f 25 27 29
f 29 31 33
f 33 35 37
f 37 39 41
f 41 43 45
f 45 47 49
f 49 51 53
f 53 55 57
f 224 226 228
f 228 230 232
f 232 234 236
f 236 238 240
f 240 242 244
f 244 246 248
f 248 250 252
f 252 254 256
f 256 258 260
f 260 262 264
f 264 266 268
f 268 270 272
f 272 274 276
f 276 278 280
f 280 282 284
f 284 286 288
f 288 290 292
f 292 294 296
f 296 298 300
f 300 302 304
f 304 306 308
f 308 310 312
f 312 314 316
f 316 318 320
f 320 322 324
f 324 326 328
f 328 330 332
f 334 335 1
f 1 5 9
f 9 13 17
f 17 21 25
f 25 29 33
f 33 37 41
f 41 45 49
f 49 53 57
f 224 228 232
f 232 236 240
f 240 244 248
f 248 252 256
f 256 260 264
f 264 268 272
f 272 276 280
f 280 284 288
f 288 292 296
f 296 300 304
f 304 308 312
f 312 316 320
f 320 324 328
f 328 332 333
f 333 334 1
f 1 9 17
f 17 25 33
f 33 41 49
f 49 57 58
f 224 232 240
f 240 248 256
f 256 264 272
f 272 280 288
f 288 296 304
f 304 312 320
f 320 328 333
f 333 1 17
f 17 33 49
f 49 58 59
f 224 240 256
f 256 272 288
f 288 304 320
f 17 49 59
f 223 224 256
f 288 320 333
f 17 59 60
f 223 256 288
f 17 60 61
f 222 223 288
f 17 61 62
f 221 222 288
f 17 62 63
f 220 221 288
f 17 63 64
f 219 220 288
f 17 64 65
f 218 219 288
f 17 65 66
f 217 218 288
f 17 66 67
f 216 217 288
f 17 67 68
f 215 216 288
f 17 68 69
f 214 215 288
f 17 69 70
f 213 214 288
f 17 70 71
f 212 213 288
f 17 71 72
f 211 212 288
f 17 72 73
f 210 211 288
f 17 73 74
f 209 210 288
f 17 74 75
f 208 209 288
f 17 75 76
f 207 208 288
f 17 76 77
f 206 207 288
f 17 77 78
f 205 206 288
f 17 78 79
f 204 205 288
f 17 79 80
f 203 204 288
f 17 80 81
f 202 203 288
f 17 81 82
f 201 202 288
f 17 82 83
f 200 201 288
f 17 83 84
f 199 200 288
f 17 84 85
f 198 199 288
f 17 85 86
f 197 198 288
f 17 86 87
f 196 197 288
f 17 87 88
f 195 196 288
f 17 88 89
f 194 195 288
f 17 89 90
f 193 194 288
f 17 90 91
f 192 193 288
f 17 91 92
f 191 192 288
f 17 92 93
f 190 191 288
f 17 93 94
f 189 190 288
f 17 94 95
f 188 189 288
f 17 95 96
f 187 188 288
f 17 96 97
f 186 187 288
f 17 97 98
f 185 186 288
f 17 98 99
f 184 185 288
f 17 99 100
f 183 184 288
f 17 100 101
f 182 183 288
f 17 101 102
f 181 182 288
f 17 102 103
f 180 181 288
f 17 103 104
f 179 180 288
f 17 104 105
f 178 179 288
f 17 105 106
f 177 178 288
f 17 106 107
f 176 177 288
f 17 107 108
f 175 176 288
f 17 108 109
f 174 175 288
f 17 109 110
f 173 174 288
f 333 17 110
f 172 173 288
f 333 110 111
f 171 172 288
f 333 111 112
f 170 171 288
f 333 112 113
f 169 170 288
f 333 113 114
f 168 169 288
f 333 114 115
f 167 168 288
f 333 115 116
f 166 167 288
f 333 116 117
f 165 166 288
f 333 117 118
f 164 165 288
f 333 118 119
f 163 164 288
f 333 119 120
f 162 163 288
f 333 120 121
f 161 162 288
f 333 121 122
f 160 161 288
f 333 122 123
f 159 160 288
f 333 123 124
f 158 159 288
f 333 124 125
f 157 158 288
f 333 125 126
f 156 157 288
f 333 126 127
f 155 156 288
f 333 127 128
f 154 155 288
f 333 128 129
f 153 154 288
f 333 129 130
f 152 153 288
f 333 130 131
f 151 152 288
f 333 131 132
f 150 151 288
f 333 132 133
f 149 150 288
f 333 133 134
f 148 149 288
f 288 333 134
f 147 148 288
f 288 134 135
f 146 147 288
f 288 135 136
f 145 146 288
f 288 136 137
f 144 145 288
f 288 137 138
f 143 144 288
f 288 138 139
f 142 143 288
f 288 139 140
f 141 142 288
f 288 140 141
