v -0.506828 0.374200 -1.061000
v -0.506828 0.374200 -1.084841
v -0.504727 0.372893 -1.085500
v -0.502627 0.371587 -1.086158
v -0.500527 0.370280 -1.086816
v -0.498427 0.368974 -1.087474
v -0.496328 0.367668 -1.088132
v -0.494229 0.366362 -1.088790
v -0.492130 0.365056 -1.089448
v -0.490031 0.363750 -1.090105
v -0.487933 0.362445 -1.090763
v -0.485835 0.361140 -1.091420
v -0.483738 0.359835 -1.092078
v -0.481640 0.358530 -1.092735
v -0.479543 0.357225 -1.093392
v -0.477446 0.355921 -1.094049
v -0.475350 0.354617 -1.094706
v -0.473254 0.353313 -1.095363
v -0.471158 0.352009 -1.096019
v -0.469062 0.350705 -1.096676
v -0.466967 0.349401 -1.097332
v -0.464872 0.348098 -1.097989
v -0.462777 0.346795 -1.098645
v -0.460683 0.345492 -1.099301
v -0.458589 0.344189 -1.099957
v -0.456495 0.342886 -1.100613
v -0.454401 0.341584 -1.101269
v -0.452308 0.340282 -1.101925
v -0.450215 0.338980 -1.102581
v -0.448123 0.337678 -1.103236
v -0.446030 0.336376 -1.103892
v -0.443938 0.335074 -1.104547
v -0.441846 0.333773 -1.105202
v -0.439755 0.332472 -1.105857
v -0.437664 0.331171 -1.106512
v -0.435573 0.329870 -1.107167
v -0.433483 0.328570 -1.107822
v -0.431392 0.327269 -1.108477
v -0.429303 0.325969 -1.109131
v -0.427213 0.324669 -1.109786
v -0.425124 0.323369 -1.110440
v -0.423035 0.322070 -1.111094
v -0.420946 0.320770 -1.111748
v -0.418858 0.319471 -1.112402
v -0.416770 0.318172 -1.113056
v -0.414682 0.316873 -1.113710
v -0.412595 0.315575 -1.114363
v -0.410508 0.314276 -1.115017
v -0.408421 0.312978 -1.115670
v -0.406335 0.311680 -1.116324
v -0.404249 0.310382 -1.116977
v -0.402163 0.309085 -1.117630
v -0.400077 0.307787 -1.118283
v -0.397992 0.306490 -1.118935
v -0.395907 0.305193 -1.119588
v -0.393822 0.303896 -1.120241
v -0.391738 0.302599 -1.120893
v -0.391738 0.302599 -1.061000
v -0.385506 0.310499 -1.051000
v -0.500801 0.382228 -1.051000
f 60 2 1
f 60 3 2
f 60 4 3
f 60 5 4
f 60 6 5
f 60 7 6
f 60 8 7
f 60 9 8
f 60 10 9
f 60 11 10
f 60 12 11
f 60 13 12
f 60 14 13
f 60 15 14
f 60 16 15
f 60 17 16
f 60 18 17
f 60 19 18
f 60 20 19
f 60 21 20
f 60 22 21
f 60 23 22
f 60 24 23
f 60 25 24
f 60 26 25
f 60 27 26
f 60 28 27
f 60 29 28
f 60 30 29
f 60 31 30
f 60 32 31
f 60 33 32
f 60 34 33
f 60 35 34
f 60 36 35
f 60 37 36
f 60 38 37
f 60 39 38
f 60 40 39
f 60 41 40
f 60 42 41
f 60 43 42
f 60 44 43
f 60 45 44
f 60 46 45
f 60 47 46
f 60 48 47
f 60 49 48
f 60 50 49
f 60 51 50
f 60 52 51
f 60 53 52
f 60 54 53
f 60 55 54
f 60 56 55
f 60 57 56
f 60 58 57
f 58 60 59
