v -0.381999 -0.500976 -1.051004
v -0.380862 -0.501841 -1.051148
v -0.379751 -0.502682 -1.051492
v -0.378691 -0.503481 -1.052030
v -0.377701 -0.504224 -1.052751
v -0.376803 -0.504895 -1.053639
v -0.376016 -0.505482 -1.054677
v -0.375356 -0.505973 -1.055843
v -0.374834 -0.506359 -1.057113
v -0.374465 -0.506632 -1.058462
v -0.374253 -0.506789 -1.059862
v -0.310274 -0.385687 -1.051004
v -0.309155 -0.386585 -1.051148
v -0.308062 -0.387457 -1.051493
v -0.307018 -0.388285 -1.052032
v -0.306044 -0.389053 -1.052754
v -0.305161 -0.389746 -1.053643
v -0.304386 -0.390351 -1.054681
v -0.303736 -0.390857 -1.055847
v -0.303223 -0.391255 -1.057117
v -0.302859 -0.391537 -1.058465
v -0.302651 -0.391698 -1.059863
f 1 13 2
f 1 12 13
f 2 14 3
f 2 13 14
f 3 15 4
f 3 14 15
f 4 16 5
f 4 15 16
f 5 17 6
f 5 16 17
f 6 18 7
f 6 17 18
f 7 19 8
f 7 18 19
f 8 20 9
f 8 19 20
f 9 21 10
f 9 20 21
f 10 22 11
f 10 21 22
