v -2.665000 0.000000 -3.987000
v -2.666283 0.000000 -4.012292
v -2.665321 0.000000 -3.999662
v -2.667883 0.000000 -4.024857
v -2.670118 0.000000 -4.037325
v -2.672981 0.000000 -4.049663
v -2.676465 0.000000 -4.061841
v -2.680562 0.000000 -4.073826
v -2.665000 -0.375000 -4.037670
v -2.665321 -0.371640 -4.049878
v -2.666283 -0.368288 -4.062055
v -2.667883 -0.364953 -4.074169
v -2.670118 -0.361644 -4.086190
v -2.672981 -0.358370 -4.098086
v -2.676465 -0.355138 -4.109827
v -2.680562 -0.351957 -4.121382
v -2.680562 -0.009134 -4.073858
v -2.665000 -0.009732 -3.987034
v -2.680562 -0.018267 -4.073952
v -2.665000 -0.019463 -3.987134
v -2.680562 -0.027400 -4.074109
v -2.665000 -0.029194 -3.987302
v -2.680562 -0.036531 -4.074330
v -2.665000 -0.038923 -3.987536
v -2.680562 -0.045661 -4.074613
v -2.665000 -0.048650 -3.987838
v -2.680562 -0.054788 -4.074959
v -2.665000 -0.058375 -3.988206
v -2.680562 -0.063913 -4.075367
v -2.665000 -0.068098 -3.988642
v -2.680562 -0.073035 -4.075839
v -2.665000 -0.077817 -3.989144
v -2.680562 -0.082153 -4.076373
v -2.665000 -0.087532 -3.989714
v -2.680562 -0.091268 -4.076971
v -2.665000 -0.097243 -3.990350
v -2.680562 -0.100378 -4.077631
v -2.665000 -0.106950 -3.991053
v -2.680562 -0.109483 -4.078353
v -2.665000 -0.116651 -3.991823
v -2.680562 -0.118583 -4.079139
v -2.665000 -0.126347 -3.992660
v -2.680562 -0.127678 -4.079987
v -2.665000 -0.136037 -3.993564
v -2.680562 -0.136766 -4.080897
v -2.665000 -0.145720 -3.994534
v -2.680562 -0.145848 -4.081871
v -2.665000 -0.155397 -3.995571
v -2.680562 -0.154923 -4.082906
v -2.665000 -0.165066 -3.996675
v -2.680562 -0.163991 -4.084005
v -2.665000 -0.174727 -3.997845
v -2.680562 -0.173051 -4.085165
v -2.665000 -0.184381 -3.999081
v -2.680562 -0.182102 -4.086388
v -2.665000 -0.194025 -4.000385
v -2.680562 -0.191145 -4.087674
v -2.665000 -0.203660 -4.001754
v -2.680562 -0.200179 -4.089021
v -2.665000 -0.213286 -4.003190
v -2.680562 -0.209204 -4.090431
v -2.665000 -0.222901 -4.004692
v -2.680562 -0.218219 -4.091903
v -2.665000 -0.232506 -4.006260
v -2.680562 -0.227223 -4.093437
v -2.665000 -0.242099 -4.007895
v -2.680562 -0.236216 -4.095033
v -2.665000 -0.251682 -4.009595
v -2.680562 -0.245199 -4.096691
v -2.665000 -0.261252 -4.011362
v -2.680562 -0.254169 -4.098411
v -2.665000 -0.270810 -4.013194
v -2.680562 -0.263128 -4.100192
v -2.665000 -0.280355 -4.015092
v -2.680562 -0.272074 -4.102035
v -2.665000 -0.289887 -4.017056
v -2.680562 -0.281007 -4.103940
v -2.665000 -0.299405 -4.019085
v -2.680562 -0.289927 -4.105906
v -2.665000 -0.308909 -4.021180
v -2.680562 -0.298833 -4.107934
v -2.665000 -0.318398 -4.023340
v -2.680562 -0.307725 -4.110022
v -2.665000 -0.327872 -4.025566
v -2.680562 -0.316602 -4.112172
v -2.665000 -0.337330 -4.027857
v -2.680562 -0.325464 -4.114384
v -2.665000 -0.346773 -4.030213
v -2.680562 -0.334311 -4.116656
v -2.665000 -0.356199 -4.032633
v -2.680562 -0.343142 -4.118989
v -2.665000 -0.365608 -4.035119
v -2.690549 0.000000 -4.097099
v -2.685261 0.000000 -4.085589
v -2.696413 0.000000 -4.108325
v -2.702839 0.000000 -4.119241
v -2.709809 0.000000 -4.129817
v -2.717306 0.000000 -4.140026
v -2.725310 0.000000 -4.149843
v -2.733802 0.000000 -4.159242
v -2.685261 -0.348835 -4.132723
v -2.690549 -0.345781 -4.143820
v -2.696413 -0.342801 -4.154644
v -2.702839 -0.339904 -4.165169
v -2.709809 -0.337097 -4.175365
v -2.717306 -0.334388 -4.185209
v -2.725310 -0.331783 -4.194673
v -2.733802 -0.329288 -4.203735
v -2.733802 -0.008546 -4.159271
v -2.733802 -0.017091 -4.159359
v -2.733802 -0.025635 -4.159507
v -2.733802 -0.034178 -4.159713
v -2.733802 -0.042720 -4.159977
v -2.733802 -0.051260 -4.160301
v -2.733802 -0.059797 -4.160683
v -2.733802 -0.068331 -4.161125
v -2.733802 -0.076862 -4.161625
v -2.733802 -0.085389 -4.162183
v -2.733802 -0.093913 -4.162801
v -2.733802 -0.102431 -4.163477
v -2.733802 -0.110946 -4.164212
v -2.733802 -0.119454 -4.165005
v -2.733802 -0.127957 -4.165857
v -2.733802 -0.136454 -4.166768
v -2.733802 -0.144945 -4.167737
v -2.733802 -0.153429 -4.168765
v -2.733802 -0.161905 -4.169850
v -2.733802 -0.170374 -4.170995
v -2.733802 -0.178834 -4.172197
v -2.733802 -0.187286 -4.173458
v -2.733802 -0.195730 -4.174777
v -2.733802 -0.204164 -4.176154
v -2.733802 -0.212588 -4.177589
v -2.733802 -0.221002 -4.179083
v -2.733802 -0.229406 -4.180634
v -2.733802 -0.237799 -4.182243
v -2.733802 -0.246180 -4.183909
v -2.733802 -0.254550 -4.185634
v -2.733802 -0.262908 -4.187416
v -2.733802 -0.271253 -4.189255
v -2.733802 -0.279586 -4.191152
v -2.733802 -0.287905 -4.193107
v -2.733802 -0.296211 -4.195118
v -2.733802 -0.304502 -4.197187
v -2.733802 -0.312779 -4.199313
v -2.733802 -0.321041 -4.201495
v -2.752157 0.000000 -4.176690
v -2.742758 0.000000 -4.168198
v -2.761974 0.000000 -4.184694
v -2.772183 0.000000 -4.192191
v -2.782759 0.000000 -4.199161
v -2.793675 0.000000 -4.205587
v -2.804901 0.000000 -4.211451
v -2.816411 0.000000 -4.216739
v -2.742758 -0.326911 -4.212370
v -2.752157 -0.324658 -4.220557
v -2.761974 -0.322533 -4.228274
v -2.772183 -0.320544 -4.235502
v -2.782759 -0.318694 -4.242223
v -2.793675 -0.316989 -4.248418
v -2.804901 -0.315432 -4.254072
v -2.816411 -0.314029 -4.259171
v -2.816411 -0.008150 -4.216768
v -2.816411 -0.016299 -4.216852
v -2.816411 -0.024447 -4.216992
v -2.816411 -0.032595 -4.217188
v -2.816411 -0.040740 -4.217441
v -2.816411 -0.048884 -4.217750
v -2.816411 -0.057026 -4.218114
v -2.816411 -0.065164 -4.218535
v -2.816411 -0.073300 -4.219012
v -2.816411 -0.081432 -4.219545
v -2.816411 -0.089561 -4.220134
v -2.816411 -0.097685 -4.220779
v -2.816411 -0.105804 -4.221479
v -2.816411 -0.113919 -4.222236
v -2.816411 -0.122028 -4.223049
v -2.816411 -0.130131 -4.223917
v -2.816411 -0.138228 -4.224841
v -2.816411 -0.146319 -4.225821
v -2.816411 -0.154402 -4.226857
v -2.816411 -0.162478 -4.227948
v -2.816411 -0.170547 -4.229095
v -2.816411 -0.178607 -4.230297
v -2.816411 -0.186659 -4.231555
v -2.816411 -0.194703 -4.232868
v -2.816411 -0.202736 -4.234237
v -2.816411 -0.210761 -4.235661
v -2.816411 -0.218775 -4.237140
v -2.816411 -0.226779 -4.238675
v -2.816411 -0.234772 -4.240264
v -2.816411 -0.242754 -4.241908
v -2.816411 -0.250725 -4.243608
v -2.816411 -0.258683 -4.245362
v -2.816411 -0.266630 -4.247171
v -2.816411 -0.274563 -4.249035
v -2.816411 -0.282484 -4.250953
v -2.816411 -0.290391 -4.252926
v -2.816411 -0.298285 -4.254953
v -2.816411 -0.306164 -4.257035
v -2.840159 0.000000 -4.225535
v -2.828174 0.000000 -4.221438
v -2.852337 0.000000 -4.229019
v -2.864675 0.000000 -4.231882
v -2.877143 0.000000 -4.234117
v -2.889708 0.000000 -4.235717
v -2.902338 0.000000 -4.236679
v -2.915000 0.000000 -4.237000
v -2.828174 -0.312782 -4.263701
v -2.840159 -0.311695 -4.267651
v -2.852337 -0.310770 -4.271010
v -2.864675 -0.310010 -4.273771
v -2.877143 -0.309417 -4.275925
v -2.889708 -0.308992 -4.277468
v -2.902338 -0.308737 -4.278395
v -2.915000 -0.308652 -4.278705
v -2.915000 -0.008010 -4.237028
v -2.915000 -0.016020 -4.237110
v -2.915000 -0.024029 -4.237248
v -2.915000 -0.032036 -4.237441
v -2.915000 -0.040043 -4.237690
v -2.915000 -0.048047 -4.237993
v -2.915000 -0.056049 -4.238351
v -2.915000 -0.064049 -4.238765
v -2.915000 -0.072045 -4.239234
v -2.915000 -0.080038 -4.239757
v -2.915000 -0.088027 -4.240336
v -2.915000 -0.096012 -4.240970
v -2.915000 -0.103993 -4.241659
v -2.915000 -0.111968 -4.242402
v -2.915000 -0.119938 -4.243201
v -2.915000 -0.127903 -4.244055
v -2.915000 -0.135861 -4.244963
v -2.915000 -0.143813 -4.245926
v -2.915000 -0.151758 -4.246944
v -2.915000 -0.159696 -4.248016
v -2.915000 -0.167627 -4.249144
v -2.915000 -0.175549 -4.250325
v -2.915000 -0.183463 -4.251562
v -2.915000 -0.191369 -4.252853
v -2.915000 -0.199265 -4.254198
v -2.915000 -0.207152 -4.255598
v -2.915000 -0.215029 -4.257051
v -2.915000 -0.222896 -4.258560
v -2.915000 -0.230752 -4.260122
v -2.915000 -0.238598 -4.261738
v -2.915000 -0.246432 -4.263408
v -2.915000 -0.254254 -4.265133
v -2.915000 -0.262064 -4.266911
v -2.915000 -0.269862 -4.268743
v -2.915000 -0.277647 -4.270628
v -2.915000 -0.285419 -4.272567
v -2.915000 -0.293177 -4.274560
v -2.915000 -0.300922 -4.276606
v -2.702839 -0.008821 -4.119271
v -2.702839 -0.013232 -4.119309
v -2.702839 -0.017642 -4.119363
v -2.702839 -0.022052 -4.119431
v -2.702839 -0.026462 -4.119514
v -2.702839 -0.030871 -4.119613
v -2.702839 -0.035280 -4.119727
v -2.702839 -0.039689 -4.119856
v -2.702839 -0.044097 -4.120000
v -2.702839 -0.048505 -4.120160
v -2.702839 -0.052912 -4.120334
v -2.702839 -0.057319 -4.120524
v -2.702839 -0.061724 -4.120729
v -2.702839 -0.066129 -4.120949
v -2.702839 -0.070534 -4.121185
v -2.702839 -0.074937 -4.121435
v -2.702839 -0.079340 -4.121701
v -2.702839 -0.083742 -4.121982
v -2.702839 -0.088142 -4.122278
v -2.702839 -0.092542 -4.122589
v -2.702839 -0.096940 -4.122915
v -2.702839 -0.101338 -4.123256
v -2.702839 -0.105734 -4.123613
v -2.702839 -0.110129 -4.123985
v -2.702839 -0.114522 -4.124371
v -2.702839 -0.118915 -4.124773
v -2.702839 -0.123305 -4.125190
v -2.702839 -0.127695 -4.125623
v -2.702839 -0.132083 -4.126070
v -2.702839 -0.136469 -4.126532
v -2.702839 -0.140854 -4.127010
v -2.702839 -0.145237 -4.127502
v -2.702839 -0.149618 -4.128010
v -2.702839 -0.153997 -4.128533
v -2.702839 -0.158375 -4.129071
v -2.702839 -0.162751 -4.129624
v -2.702839 -0.167125 -4.130192
v -2.702839 -0.171497 -4.130775
v -2.702839 -0.175866 -4.131373
v -2.702839 -0.180234 -4.131986
v -2.702839 -0.184600 -4.132614
v -2.702839 -0.188963 -4.133258
v -2.702839 -0.193324 -4.133916
v -2.702839 -0.197683 -4.134589
v -2.702839 -0.202040 -4.135277
v -2.702839 -0.206394 -4.135981
v -2.702839 -0.210746 -4.136699
v -2.702839 -0.215095 -4.137432
v -2.702839 -0.219442 -4.138180
v -2.702839 -0.223786 -4.138943
v -2.702839 -0.228127 -4.139722
v -2.702839 -0.232466 -4.140515
v -2.702839 -0.236802 -4.141323
v -2.702839 -0.241135 -4.142146
v -2.702839 -0.245465 -4.142983
v -2.702839 -0.249792 -4.143836
v -2.702839 -0.254117 -4.144704
v -2.702839 -0.258438 -4.145586
v -2.702839 -0.262757 -4.146484
v -2.702839 -0.267072 -4.147396
v -2.702839 -0.271384 -4.148323
v -2.702839 -0.275693 -4.149265
v -2.702839 -0.279998 -4.150222
v -2.702839 -0.284300 -4.151194
v -2.702839 -0.288599 -4.152180
v -2.702839 -0.292895 -4.153182
v -2.702839 -0.297187 -4.154198
v -2.702839 -0.301475 -4.155228
v -2.702839 -0.305760 -4.156274
v -2.702839 -0.310041 -4.157334
v -2.702839 -0.314319 -4.158409
v -2.702839 -0.318593 -4.159499
v -2.702839 -0.322863 -4.160604
v -2.702839 -0.327129 -4.161723
v -2.702839 -0.331391 -4.162857
v -2.772183 -0.008319 -4.192220
v -2.772183 -0.012478 -4.192255
v -2.772183 -0.016637 -4.192305
v -2.772183 -0.020796 -4.192370
v -2.772183 -0.024954 -4.192449
v -2.772183 -0.029113 -4.192542
v -2.772183 -0.033271 -4.192649
v -2.772183 -0.037428 -4.192771
v -2.772183 -0.041586 -4.192907
v -2.772183 -0.045742 -4.193057
v -2.772183 -0.049898 -4.193222
v -2.772183 -0.054054 -4.193401
v -2.772183 -0.058209 -4.193594
v -2.772183 -0.062363 -4.193802
v -2.772183 -0.066516 -4.194024
v -2.772183 -0.070669 -4.194260
v -2.772183 -0.074821 -4.194511
v -2.772183 -0.078972 -4.194775
v -2.772183 -0.083122 -4.195054
v -2.772183 -0.087271 -4.195348
v -2.772183 -0.091419 -4.195656
v -2.772183 -0.095566 -4.195978
v -2.772183 -0.099711 -4.196314
v -2.772183 -0.103856 -4.196664
v -2.772183 -0.107999 -4.197029
v -2.772183 -0.112141 -4.197408
v -2.772183 -0.116282 -4.197801
v -2.772183 -0.120421 -4.198209
v -2.772183 -0.124559 -4.198631
v -2.772183 -0.128696 -4.199067
v -2.772183 -0.132831 -4.199517
v -2.772183 -0.136964 -4.199982
v -2.772183 -0.141096 -4.200461
v -2.772183 -0.145226 -4.200954
v -2.772183 -0.149354 -4.201461
v -2.772183 -0.153481 -4.201982
v -2.772183 -0.157605 -4.202518
v -2.772183 -0.161728 -4.203068
v -2.772183 -0.165849 -4.203632
v -2.772183 -0.169968 -4.204210
v -2.772183 -0.174085 -4.204802
v -2.772183 -0.178200 -4.205409
v -2.772183 -0.182313 -4.206030
v -2.772183 -0.186424 -4.206665
v -2.772183 -0.190532 -4.207314
v -2.772183 -0.194638 -4.207977
v -2.772183 -0.198742 -4.208654
v -2.772183 -0.202843 -4.209346
v -2.772183 -0.206943 -4.210051
v -2.772183 -0.211039 -4.210771
v -2.772183 -0.215133 -4.211505
v -2.772183 -0.219225 -4.212253
v -2.772183 -0.223314 -4.213015
v -2.772183 -0.227400 -4.213791
v -2.772183 -0.231484 -4.214581
v -2.772183 -0.235565 -4.215385
v -2.772183 -0.239643 -4.216203
v -2.772183 -0.243718 -4.217036
v -2.772183 -0.247790 -4.217882
v -2.772183 -0.251860 -4.218742
v -2.772183 -0.255926 -4.219617
v -2.772183 -0.259990 -4.220505
v -2.772183 -0.264050 -4.221407
v -2.772183 -0.268107 -4.222324
v -2.772183 -0.272161 -4.223254
v -2.772183 -0.276212 -4.224198
v -2.772183 -0.280259 -4.225156
v -2.772183 -0.284304 -4.226128
v -2.772183 -0.288344 -4.227115
v -2.772183 -0.292382 -4.228114
v -2.772183 -0.296416 -4.229128
v -2.772183 -0.300446 -4.230156
v -2.772183 -0.304473 -4.231198
v -2.772183 -0.308496 -4.232253
v -2.772183 -0.312516 -4.233322
v -2.702839 -0.013232 -4.119309
v -2.702839 -0.022052 -4.119431
v -2.702839 -0.030871 -4.119613
v -2.702839 -0.039689 -4.119856
v -2.702839 -0.048505 -4.120160
v -2.702839 -0.057319 -4.120524
v -2.702839 -0.066129 -4.120949
v -2.702839 -0.074937 -4.121435
v -2.702839 -0.083742 -4.121982
v -2.702839 -0.092542 -4.122589
v -2.702839 -0.101338 -4.123256
v -2.702839 -0.110129 -4.123985
v -2.702839 -0.118915 -4.124773
v -2.702839 -0.127695 -4.125623
v -2.702839 -0.136469 -4.126532
v -2.702839 -0.145237 -4.127502
v -2.702839 -0.153997 -4.128533
v -2.702839 -0.162751 -4.129624
v -2.702839 -0.171497 -4.130775
v -2.702839 -0.180234 -4.131986
v -2.702839 -0.188963 -4.133258
v -2.702839 -0.197683 -4.134589
v -2.702839 -0.206394 -4.135981
v -2.702839 -0.215095 -4.137432
v -2.702839 -0.223786 -4.138943
v -2.702839 -0.232466 -4.140515
v -2.702839 -0.241135 -4.142146
v -2.702839 -0.249792 -4.143836
v -2.702839 -0.258438 -4.145586
v -2.702839 -0.267072 -4.147396
v -2.702839 -0.275693 -4.149265
v -2.702839 -0.284300 -4.151194
v -2.702839 -0.292895 -4.153182
v -2.702839 -0.301475 -4.155228
v -2.702839 -0.310041 -4.157334
v -2.702839 -0.318593 -4.159499
v -2.702839 -0.327129 -4.161723
v -2.772183 -0.012478 -4.192255
v -2.772183 -0.020796 -4.192370
v -2.772183 -0.029113 -4.192542
v -2.772183 -0.037428 -4.192771
v -2.772183 -0.045742 -4.193057
v -2.772183 -0.054054 -4.193401
v -2.772183 -0.062363 -4.193802
v -2.772183 -0.070669 -4.194260
v -2.772183 -0.078972 -4.194775
v -2.772183 -0.087271 -4.195348
v -2.772183 -0.095566 -4.195978
v -2.772183 -0.103856 -4.196664
v -2.772183 -0.112141 -4.197408
v -2.772183 -0.120421 -4.198209
v -2.772183 -0.128696 -4.199067
v -2.772183 -0.136964 -4.199982
v -2.772183 -0.145226 -4.200954
v -2.772183 -0.153481 -4.201982
v -2.772183 -0.161728 -4.203068
v -2.772183 -0.169968 -4.204210
v -2.772183 -0.178200 -4.205409
v -2.772183 -0.186424 -4.206665
v -2.772183 -0.194638 -4.207977
v -2.772183 -0.202843 -4.209346
v -2.772183 -0.211039 -4.210771
v -2.772183 -0.219225 -4.212253
v -2.772183 -0.227400 -4.213791
v -2.772183 -0.235565 -4.215385
v -2.772183 -0.243718 -4.217036
v -2.772183 -0.251860 -4.218742
v -2.772183 -0.259990 -4.220505
v -2.772183 -0.268107 -4.222324
v -2.772183 -0.276212 -4.224198
v -2.772183 -0.284304 -4.226128
v -2.772183 -0.292382 -4.228114
v -2.772183 -0.300446 -4.230156
v -2.772183 -0.308496 -4.232253
f 1 3 2
f 1 2 4
f 1 4 5
f 1 5 6
f 1 6 7
f 1 7 8
f 9 11 10
f 9 12 11
f 9 13 12
f 9 14 13
f 9 15 14
f 9 16 15
f 1 8 17
f 1 17 18
f 18 17 19
f 18 19 20
f 20 19 21
f 20 21 22
f 22 21 23
f 22 23 24
f 24 23 25
f 24 25 26
f 26 25 27
f 26 27 28
f 28 27 29
f 28 29 30
f 30 29 31
f 30 31 32
f 32 31 33
f 32 33 34
f 34 33 35
f 34 35 36
f 36 35 37
f 36 37 38
f 38 37 39
f 38 39 40
f 40 39 41
f 40 41 42
f 42 41 43
f 42 43 44
f 44 43 45
f 44 45 46
f 46 45 47
f 46 47 48
f 48 47 49
f 48 49 50
f 50 49 51
f 50 51 52
f 52 51 53
f 52 53 54
f 54 53 55
f 54 55 56
f 56 55 57
f 56 57 58
f 58 57 59
f 58 59 60
f 60 59 61
f 60 61 62
f 62 61 63
f 62 63 64
f 64 63 65
f 64 65 66
f 66 65 67
f 66 67 68
f 68 67 69
f 68 69 70
f 70 69 71
f 70 71 72
f 72 71 73
f 72 73 74
f 74 73 75
f 74 75 76
f 76 75 77
f 76 77 78
f 78 77 79
f 78 79 80
f 80 79 81
f 80 81 82
f 82 81 83
f 82 83 84
f 84 83 85
f 84 85 86
f 86 85 87
f 86 87 88
f 88 87 89
f 88 89 90
f 90 89 91
f 90 91 92
f 92 91 9
f 9 91 16
f 8 94 93
f 8 93 95
f 8 95 96
f 8 96 97
f 8 97 98
f 8 98 99
f 8 99 100
f 16 102 101
f 16 103 102
f 16 104 103
f 16 105 104
f 16 106 105
f 16 107 106
f 16 108 107
f 8 100 17
f 109 100 255
f 255 100 17
f 17 256 255
f 255 256 109
f 17 19 256
f 19 256 405
f 405 256 109
f 110 256 257
f 256 257 19
f 19 258 257
f 257 258 110
f 19 21 258
f 21 258 406
f 406 258 110
f 111 258 259
f 258 259 21
f 21 260 259
f 259 260 111
f 21 23 260
f 23 260 407
f 407 260 111
f 112 260 261
f 260 261 23
f 23 262 261
f 261 262 112
f 23 25 262
f 25 262 408
f 408 262 112
f 113 262 263
f 262 263 25
f 25 264 263
f 263 264 113
f 25 27 264
f 27 264 409
f 409 264 113
f 114 264 265
f 264 265 27
f 27 266 265
f 265 266 114
f 27 29 266
f 29 266 410
f 410 266 114
f 115 266 267
f 266 267 29
f 29 268 267
f 267 268 115
f 29 31 268
f 31 268 411
f 411 268 115
f 116 268 269
f 268 269 31
f 31 270 269
f 269 270 116
f 31 33 270
f 33 270 412
f 412 270 116
f 117 270 271
f 270 271 33
f 33 272 271
f 271 272 117
f 33 35 272
f 35 272 413
f 413 272 117
f 118 272 273
f 272 273 35
f 35 274 273
f 273 274 118
f 35 37 274
f 37 274 414
f 414 274 118
f 119 274 275
f 274 275 37
f 37 276 275
f 275 276 119
f 37 39 276
f 39 276 415
f 415 276 119
f 120 276 277
f 276 277 39
f 39 278 277
f 277 278 120
f 39 41 278
f 41 278 416
f 416 278 120
f 121 278 279
f 278 279 41
f 41 280 279
f 279 280 121
f 41 43 280
f 43 280 417
f 417 280 121
f 122 280 281
f 280 281 43
f 43 282 281
f 281 282 122
f 43 45 282
f 45 282 418
f 418 282 122
f 123 282 283
f 282 283 45
f 45 284 283
f 283 284 123
f 45 47 284
f 47 284 419
f 419 284 123
f 124 284 285
f 284 285 47
f 47 286 285
f 285 286 124
f 47 49 286
f 49 286 420
f 420 286 124
f 125 286 287
f 286 287 49
f 49 288 287
f 287 288 125
f 49 51 288
f 51 288 421
f 421 288 125
f 126 288 289
f 288 289 51
f 51 290 289
f 289 290 126
f 51 53 290
f 53 290 422
f 422 290 126
f 127 290 291
f 290 291 53
f 53 292 291
f 291 292 127
f 53 55 292
f 55 292 423
f 423 292 127
f 128 292 293
f 292 293 55
f 55 294 293
f 293 294 128
f 55 57 294
f 57 294 424
f 424 294 128
f 129 294 295
f 294 295 57
f 57 296 295
f 295 296 129
f 57 59 296
f 59 296 425
f 425 296 129
f 130 296 297
f 296 297 59
f 59 298 297
f 297 298 130
f 59 61 298
f 61 298 426
f 426 298 130
f 131 298 299
f 298 299 61
f 61 300 299
f 299 300 131
f 61 63 300
f 63 300 427
f 427 300 131
f 132 300 301
f 300 301 63
f 63 302 301
f 301 302 132
f 63 65 302
f 65 302 428
f 428 302 132
f 133 302 303
f 302 303 65
f 65 304 303
f 303 304 133
f 65 67 304
f 67 304 429
f 429 304 133
f 134 304 305
f 304 305 67
f 67 306 305
f 305 306 134
f 67 69 306
f 69 306 430
f 430 306 134
f 135 306 307
f 306 307 69
f 69 308 307
f 307 308 135
f 69 71 308
f 71 308 431
f 431 308 135
f 136 308 309
f 308 309 71
f 71 310 309
f 309 310 136
f 71 73 310
f 73 310 432
f 432 310 136
f 137 310 311
f 310 311 73
f 73 312 311
f 311 312 137
f 73 75 312
f 75 312 433
f 433 312 137
f 138 312 313
f 312 313 75
f 75 314 313
f 313 314 138
f 75 77 314
f 77 314 434
f 434 314 138
f 139 314 315
f 314 315 77
f 77 316 315
f 315 316 139
f 77 79 316
f 79 316 435
f 435 316 139
f 140 316 317
f 316 317 79
f 79 318 317
f 317 318 140
f 79 81 318
f 81 318 436
f 436 318 140
f 141 318 319
f 318 319 81
f 81 320 319
f 319 320 141
f 81 83 320
f 83 320 437
f 437 320 141
f 142 320 321
f 320 321 83
f 83 322 321
f 321 322 142
f 83 85 322
f 85 322 438
f 438 322 142
f 143 322 323
f 322 323 85
f 85 324 323
f 323 324 143
f 85 87 324
f 87 324 439
f 439 324 143
f 144 324 325
f 324 325 87
f 87 326 325
f 325 326 144
f 87 89 326
f 89 326 440
f 440 326 144
f 145 326 327
f 326 327 89
f 89 328 327
f 327 328 145
f 89 91 328
f 91 328 441
f 441 328 145
f 146 328 329
f 328 329 91
f 91 16 329
f 329 16 146
f 16 146 108
f 100 148 147
f 100 147 149
f 100 149 150
f 100 150 151
f 100 151 152
f 100 152 153
f 100 153 154
f 108 156 155
f 108 157 156
f 108 158 157
f 108 159 158
f 108 160 159
f 108 161 160
f 108 162 161
f 100 154 109
f 163 154 330
f 330 154 109
f 109 331 330
f 330 331 163
f 109 110 331
f 110 331 442
f 442 331 163
f 164 331 332
f 331 332 110
f 110 333 332
f 332 333 164
f 110 111 333
f 111 333 443
f 443 333 164
f 165 333 334
f 333 334 111
f 111 335 334
f 334 335 165
f 111 112 335
f 112 335 444
f 444 335 165
f 166 335 336
f 335 336 112
f 112 337 336
f 336 337 166
f 112 113 337
f 113 337 445
f 445 337 166
f 167 337 338
f 337 338 113
f 113 339 338
f 338 339 167
f 113 114 339
f 114 339 446
f 446 339 167
f 168 339 340
f 339 340 114
f 114 341 340
f 340 341 168
f 114 115 341
f 115 341 447
f 447 341 168
f 169 341 342
f 341 342 115
f 115 343 342
f 342 343 169
f 115 116 343
f 116 343 448
f 448 343 169
f 170 343 344
f 343 344 116
f 116 345 344
f 344 345 170
f 116 117 345
f 117 345 449
f 449 345 170
f 171 345 346
f 345 346 117
f 117 347 346
f 346 347 171
f 117 118 347
f 118 347 450
f 450 347 171
f 172 347 348
f 347 348 118
f 118 349 348
f 348 349 172
f 118 119 349
f 119 349 451
f 451 349 172
f 173 349 350
f 349 350 119
f 119 351 350
f 350 351 173
f 119 120 351
f 120 351 452
f 452 351 173
f 174 351 352
f 351 352 120
f 120 353 352
f 352 353 174
f 120 121 353
f 121 353 453
f 453 353 174
f 175 353 354
f 353 354 121
f 121 355 354
f 354 355 175
f 121 122 355
f 122 355 454
f 454 355 175
f 176 355 356
f 355 356 122
f 122 357 356
f 356 357 176
f 122 123 357
f 123 357 455
f 455 357 176
f 177 357 358
f 357 358 123
f 123 359 358
f 358 359 177
f 123 124 359
f 124 359 456
f 456 359 177
f 178 359 360
f 359 360 124
f 124 361 360
f 360 361 178
f 124 125 361
f 125 361 457
f 457 361 178
f 179 361 362
f 361 362 125
f 125 363 362
f 362 363 179
f 125 126 363
f 126 363 458
f 458 363 179
f 180 363 364
f 363 364 126
f 126 365 364
f 364 365 180
f 126 127 365
f 127 365 459
f 459 365 180
f 181 365 366
f 365 366 127
f 127 367 366
f 366 367 181
f 127 128 367
f 128 367 460
f 460 367 181
f 182 367 368
f 367 368 128
f 128 369 368
f 368 369 182
f 128 129 369
f 129 369 461
f 461 369 182
f 183 369 370
f 369 370 129
f 129 371 370
f 370 371 183
f 129 130 371
f 130 371 462
f 462 371 183
f 184 371 372
f 371 372 130
f 130 373 372
f 372 373 184
f 130 131 373
f 131 373 463
f 463 373 184
f 185 373 374
f 373 374 131
f 131 375 374
f 374 375 185
f 131 132 375
f 132 375 464
f 464 375 185
f 186 375 376
f 375 376 132
f 132 377 376
f 376 377 186
f 132 133 377
f 133 377 465
f 465 377 186
f 187 377 378
f 377 378 133
f 133 379 378
f 378 379 187
f 133 134 379
f 134 379 466
f 466 379 187
f 188 379 380
f 379 380 134
f 134 381 380
f 380 381 188
f 134 135 381
f 135 381 467
f 467 381 188
f 189 381 382
f 381 382 135
f 135 383 382
f 382 383 189
f 135 136 383
f 136 383 468
f 468 383 189
f 190 383 384
f 383 384 136
f 136 385 384
f 384 385 190
f 136 137 385
f 137 385 469
f 469 385 190
f 191 385 386
f 385 386 137
f 137 387 386
f 386 387 191
f 137 138 387
f 138 387 470
f 470 387 191
f 192 387 388
f 387 388 138
f 138 389 388
f 388 389 192
f 138 139 389
f 139 389 471
f 471 389 192
f 193 389 390
f 389 390 139
f 139 391 390
f 390 391 193
f 139 140 391
f 140 391 472
f 472 391 193
f 194 391 392
f 391 392 140
f 140 393 392
f 392 393 194
f 140 141 393
f 141 393 473
f 473 393 194
f 195 393 394
f 393 394 141
f 141 395 394
f 394 395 195
f 141 142 395
f 142 395 474
f 474 395 195
f 196 395 396
f 395 396 142
f 142 397 396
f 396 397 196
f 142 143 397
f 143 397 475
f 475 397 196
f 197 397 398
f 397 398 143
f 143 399 398
f 398 399 197
f 143 144 399
f 144 399 476
f 476 399 197
f 198 399 400
f 399 400 144
f 144 401 400
f 400 401 198
f 144 145 401
f 145 401 477
f 477 401 198
f 199 401 402
f 401 402 145
f 145 403 402
f 402 403 199
f 145 146 403
f 146 403 478
f 478 403 199
f 200 403 404
f 403 404 146
f 146 108 404
f 404 108 200
f 108 200 162
f 154 202 201
f 154 201 203
f 154 203 204
f 154 204 205
f 154 205 206
f 154 206 207
f 154 207 208
f 162 210 209
f 162 211 210
f 162 212 211
f 162 213 212
f 162 214 213
f 162 215 214
f 162 216 215
f 154 208 163
f 163 208 217
f 163 217 164
f 164 217 218
f 164 218 165
f 165 218 219
f 165 219 166
f 166 219 220
f 166 220 167
f 167 220 221
f 167 221 168
f 168 221 222
f 168 222 169
f 169 222 223
f 169 223 170
f 170 223 224
f 170 224 171
f 171 224 225
f 171 225 172
f 172 225 226
f 172 226 173
f 173 226 227
f 173 227 174
f 174 227 228
f 174 228 175
f 175 228 229
f 175 229 176
f 176 229 230
f 176 230 177
f 177 230 231
f 177 231 178
f 178 231 232
f 178 232 179
f 179 232 233
f 179 233 180
f 180 233 234
f 180 234 181
f 181 234 235
f 181 235 182
f 182 235 236
f 182 236 183
f 183 236 237
f 183 237 184
f 184 237 238
f 184 238 185
f 185 238 239
f 185 239 186
f 186 239 240
f 186 240 187
f 187 240 241
f 187 241 188
f 188 241 242
f 188 242 189
f 189 242 243
f 189 243 190
f 190 243 244
f 190 244 191
f 191 244 245
f 191 245 192
f 192 245 246
f 192 246 193
f 193 246 247
f 193 247 194
f 194 247 248
f 194 248 195
f 195 248 249
f 195 249 196
f 196 249 250
f 196 250 197
f 197 250 251
f 197 251 198
f 198 251 252
f 198 252 199
f 199 252 253
f 199 253 200
f 200 253 254
f 200 254 216
f 200 216 162
