v 0.125000 0.458258 -2.880000
v 0.124802 0.458312 -2.872895
v 0.125000 0.225000 -2.880000
v 0.124359 0.225000 -2.867354
v 0.124208 0.458474 -2.865872
v 0.123218 0.458740 -2.858921
v 0.122441 0.225000 -2.854838
v 0.121833 0.459110 -2.852032
v 0.120052 0.459579 -2.845198
v 0.119267 0.225000 -2.842580
v 0.117879 0.460142 -2.838437
v 0.115318 0.460790 -2.831779
v 0.114870 0.225000 -2.830706
v 0.112371 0.461517 -2.825252
v 0.109293 0.225000 -2.819337
v 0.109044 0.462314 -2.818888
v 0.105346 0.463171 -2.812713
v 0.102595 0.225000 -2.808591
v 0.101289 0.464075 -2.806750
v 0.096889 0.465014 -2.801021
v 0.094845 0.225000 -2.798578
v 0.092158 0.465974 -2.795551
v 0.087115 0.466943 -2.790361
v 0.086121 0.225000 -2.789401
v 0.081781 0.467906 -2.785470
v 0.076513 0.225000 -2.781153
v 0.076180 0.468851 -2.780898
v 0.070334 0.469764 -2.776665
v 0.066121 0.225000 -2.773919
v 0.064267 0.470632 -2.772786
v 0.058002 0.471444 -2.769273
v 0.055049 0.225000 -2.767774
v 0.051564 0.472192 -2.766132
v 0.044977 0.472866 -2.763372
v 0.043413 0.225000 -2.762781
v 0.038264 0.473456 -2.761000
v 0.031446 0.473957 -2.759020
v 0.031332 0.225000 -2.758990
v 0.024543 0.474365 -2.757434
v 0.018928 0.225000 -2.756441
v 0.017575 0.474675 -2.756242
v 0.010563 0.474882 -2.755447
v 0.006331 0.225000 -2.755160
v 0.003524 0.474986 -2.755049
v -0.003524 0.474986 -2.755049
v -0.006331 0.225000 -2.755160
v -0.010563 0.474882 -2.755447
v -0.017575 0.474675 -2.756242
v -0.018928 0.225000 -2.756441
v -0.024543 0.474365 -2.757434
v -0.031332 0.225000 -2.758990
v -0.031445 0.473957 -2.759020
v -0.038263 0.473456 -2.761000
v -0.043413 0.225000 -2.762781
v -0.044976 0.472866 -2.763372
v -0.051564 0.472192 -2.766132
v -0.055049 0.225000 -2.767774
v -0.058002 0.471444 -2.769273
v -0.064266 0.470632 -2.772786
v -0.066121 0.225000 -2.773919
v -0.070334 0.469764 -2.776665
v -0.076179 0.468851 -2.780898
v -0.076513 0.225000 -2.781153
v -0.081781 0.467906 -2.785470
v -0.086121 0.225000 -2.789401
v -0.087115 0.466943 -2.790360
v -0.092158 0.465974 -2.795551
v -0.094845 0.225000 -2.798578
v -0.096889 0.465014 -2.801021
v -0.101289 0.464075 -2.806749
v -0.102595 0.225000 -2.808591
v -0.105345 0.463171 -2.812713
v -0.109044 0.462314 -2.818888
v -0.109293 0.225000 -2.819337
v -0.112371 0.461517 -2.825252
v -0.114870 0.225000 -2.830706
v -0.115317 0.460790 -2.831778
v -0.117879 0.460142 -2.838437
v -0.119267 0.225000 -2.842580
v -0.120052 0.459579 -2.845198
v -0.121833 0.459110 -2.852032
v -0.122441 0.225000 -2.854838
v -0.123218 0.458741 -2.858921
v -0.124208 0.458474 -2.865872
v -0.124359 0.225000 -2.867354
v -0.124802 0.458312 -2.872895
v -0.125000 0.458258 -2.880000
v -0.125000 0.225000 -2.880000
f 1 3 2
f 2 3 4
f 2 4 5
f 5 4 6
f 6 4 7
f 6 7 8
f 8 7 9
f 9 7 10
f 9 10 11
f 11 10 12
f 12 10 13
f 12 13 14
f 14 13 15
f 14 15 16
f 16 15 17
f 17 15 18
f 17 18 19
f 19 18 20
f 20 18 21
f 20 21 22
f 22 21 23
f 23 21 24
f 23 24 25
f 25 24 26
f 25 26 27
f 27 26 28
f 28 26 29
f 28 29 30
f 30 29 31
f 31 29 32
f 31 32 33
f 33 32 34
f 34 32 35
f 34 35 36
f 36 35 37
f 37 35 38
f 37 38 39
f 39 38 40
f 39 40 41
f 41 40 42
f 42 40 43
f 42 43 44
f 44 43 45
f 45 43 46
f 45 46 47
f 47 46 48
f 48 46 49
f 48 49 50
f 50 49 51
f 50 51 52
f 52 51 53
f 53 51 54
f 53 54 55
f 55 54 56
f 56 54 57
f 56 57 58
f 58 57 59
f 59 57 60
f 59 60 61
f 61 60 62
f 62 60 63
f 62 63 64
f 64 63 65
f 64 65 66
f 66 65 67
f 67 65 68
f 67 68 69
f 69 68 70
f 70 68 71
f 70 71 72
f 72 71 73
f 73 71 74
f 73 74 75
f 75 74 76
f 75 76 77
f 77 76 78
f 78 76 79
f 78 79 80
f 80 79 81
f 81 79 82
f 81 82 83
f 83 82 84
f 84 82 85
f 84 85 86
f 86 85 87
f 87 85 88
