v 0.659396 0.016837 0.152661
v 0.657771 0.015317 0.152940
v 0.656246 0.013952 0.153468
v 0.654652 0.012601 0.154349
v 0.653254 0.011505 0.155497
v 0.651965 0.010614 0.157051
v 0.650948 0.010085 0.158998
v 0.659396 0.115000 0.152661
v 0.657771 0.115000 0.152940
v 0.656246 0.115000 0.153468
v 0.654652 0.115000 0.154349
v 0.653253 0.115000 0.155496
v 0.651964 0.115000 0.157051
v 0.650948 0.115000 0.158998
v 0.659396 0.220000 0.152661
v 0.657771 0.220000 0.152940
v 0.656246 0.220000 0.153468
v 0.654652 0.220000 0.154349
v 0.653253 0.220000 0.155496
v 0.651964 0.220000 0.157051
v 0.650948 0.220000 0.158998
f 1 9 2
f 1 8 9
f 2 10 3
f 2 9 10
f 3 11 4
f 3 10 11
f 4 12 5
f 4 11 12
f 5 13 6
f 5 12 13
f 6 14 7
f 6 13 14
f 8 16 9
f 8 15 16
f 9 17 10
f 9 16 17
f 10 18 11
f 10 17 18
f 11 19 12
f 11 18 19
f 12 20 13
f 12 19 20
f 13 21 14
f 13 20 21
