v 0.055577 -0.491870 -1.131000
v 0.056434 -0.491773 -1.131000
v 0.056510 -0.494134 -1.130372
v 0.060845 -0.627055 -1.095000
v 0.061135 -0.627027 -1.094996
v 0.061421 -0.626999 -1.094984
v 0.061705 -0.626971 -1.094963
v 0.061985 -0.626943 -1.094935
v 0.062262 -0.626916 -1.094899
v 0.062536 -0.626889 -1.094855
v 0.062807 -0.626861 -1.094802
v 0.063076 -0.626834 -1.094743
v 0.063342 -0.626808 -1.094675
v 0.063605 -0.626781 -1.094599
v 0.063866 -0.626754 -1.094516
v 0.064124 -0.626728 -1.094426
v 0.064380 -0.626702 -1.094327
v 0.064634 -0.626676 -1.094221
v 0.064886 -0.626650 -1.094108
v 0.065135 -0.626624 -1.093987
v 0.065381 -0.626598 -1.093859
v 0.065624 -0.626573 -1.093724
v 0.065864 -0.626548 -1.093582
v 0.066101 -0.626523 -1.093432
v 0.066334 -0.626498 -1.093276
v 0.066562 -0.626474 -1.093113
v 0.066787 -0.626450 -1.092943
v 0.067007 -0.626426 -1.092766
v 0.067222 -0.626403 -1.092582
v 0.067432 -0.626381 -1.092392
v 0.067636 -0.626359 -1.092195
v 0.067836 -0.626337 -1.091992
v 0.068029 -0.626316 -1.091782
v 0.068217 -0.626296 -1.091567
v 0.068398 -0.626276 -1.091346
v 0.068574 -0.626257 -1.091119
v 0.068743 -0.626238 -1.090887
v 0.068906 -0.626220 -1.090650
v 0.069062 -0.626203 -1.090409
v 0.069212 -0.626187 -1.090163
v 0.069355 -0.626171 -1.089913
v 0.069491 -0.626156 -1.089658
v 0.069620 -0.626141 -1.089401
v 0.069742 -0.626128 -1.089139
v 0.069857 -0.626115 -1.088875
v 0.069964 -0.626103 -1.088608
v 0.070064 -0.626092 -1.088338
v 0.070157 -0.626081 -1.088065
v 0.070242 -0.626072 -1.087789
v 0.070319 -0.626063 -1.087510
v 0.070388 -0.626056 -1.087227
v 0.070449 -0.626049 -1.086941
v 0.070503 -0.626043 -1.086652
v 0.070548 -0.626038 -1.086360
v 0.070586 -0.626033 -1.086064
v 0.070615 -0.626030 -1.085764
v 0.070636 -0.626028 -1.085460
v 0.070649 -0.626026 -1.085153
v 0.070653 -0.626026 -1.084841
v 0.048966 -0.628094 -1.095000
v 0.030154 -0.496444 -1.130371
v 0.029819 -0.494101 -1.131000
v 0.032742 -0.504758 -1.128115
v 0.053144 -0.503019 -1.128115
v 0.055406 -0.502775 -1.128115
v 0.033442 -0.515553 -1.125230
v 0.054280 -0.513778 -1.125230
v 0.056591 -0.513528 -1.125230
v 0.036510 -0.526190 -1.122345
v 0.053057 -0.524780 -1.122345
v 0.055417 -0.524536 -1.122345
v 0.037258 -0.536983 -1.119460
v 0.054145 -0.535544 -1.119460
v 0.056554 -0.535295 -1.119460
v 0.038007 -0.547775 -1.116575
v 0.055234 -0.546307 -1.116575
v 0.057690 -0.546053 -1.116575
v 0.041268 -0.558388 -1.113690
v 0.053815 -0.557319 -1.113690
v 0.056322 -0.557071 -1.113690
v 0.042066 -0.569177 -1.110805
v 0.054855 -0.568087 -1.110805
v 0.057410 -0.567835 -1.110805
v 0.042863 -0.579966 -1.107921
v 0.055895 -0.578855 -1.107921
v 0.058498 -0.578598 -1.107921
v 0.046317 -0.590553 -1.105036
v 0.054282 -0.589874 -1.105036
v 0.056935 -0.589624 -1.105036
v 0.047163 -0.601338 -1.102151
v 0.055273 -0.600647 -1.102151
v 0.057975 -0.600392 -1.102151
v 0.048009 -0.612124 -1.099266
v 0.056265 -0.611420 -1.099266
v 0.059014 -0.611161 -1.099266
v 0.048855 -0.622909 -1.096381
v 0.057256 -0.622193 -1.096381
v 0.060054 -0.621929 -1.096381
v 0.055400 -0.633221 -1.093496
v 0.061094 -0.632697 -1.093496
v 0.063939 -0.632416 -1.093496
v 0.062134 -0.643466 -1.090611
v 0.065028 -0.643180 -1.090611
v 0.067920 -0.642881 -1.090611
v 0.069057 -0.653639 -1.087726
v 0.054721 -0.491966 -1.131000
v 0.030490 -0.498790 -1.129741
v 0.050881 -0.503253 -1.128115
v 0.051969 -0.514017 -1.125230
v 0.050696 -0.525013 -1.122345
v 0.051736 -0.535782 -1.119460
v 0.052776 -0.546550 -1.116575
v 0.051308 -0.557555 -1.113690
v 0.052299 -0.568328 -1.110805
v 0.053291 -0.579101 -1.107921
v 0.051628 -0.590112 -1.105036
v 0.052571 -0.600890 -1.102151
v 0.053514 -0.611667 -1.099266
v 0.054457 -0.622444 -1.096381
v 0.058247 -0.632966 -1.093496
v 0.053864 -0.492061 -1.131000
v 0.030825 -0.501139 -1.129110
v 0.048616 -0.503477 -1.128115
v 0.049656 -0.514245 -1.125230
v 0.048334 -0.525236 -1.122345
v 0.049325 -0.536009 -1.119460
v 0.050317 -0.546782 -1.116575
v 0.048799 -0.557780 -1.113690
v 0.049742 -0.568558 -1.110805
v 0.050685 -0.579335 -1.107921
v 0.048973 -0.590338 -1.105036
v 0.049868 -0.601120 -1.102151
v 0.050762 -0.611901 -1.099266
v 0.051656 -0.622683 -1.096381
v 0.053007 -0.492154 -1.131000
v 0.031162 -0.503492 -1.128479
v 0.046351 -0.503690 -1.128115
v 0.047343 -0.514463 -1.125230
v 0.045971 -0.525448 -1.122345
v 0.046914 -0.536226 -1.119460
v 0.047857 -0.547003 -1.116575
v 0.046290 -0.557994 -1.113690
v 0.047184 -0.568776 -1.110805
v 0.048079 -0.579557 -1.107921
v 0.052150 -0.492245 -1.131000
v 0.031499 -0.505849 -1.127846
v 0.044085 -0.503894 -1.128115
v 0.045028 -0.514671 -1.125230
v 0.043607 -0.525650 -1.122345
v 0.044501 -0.536431 -1.119460
v 0.045396 -0.547213 -1.116575
v 0.043780 -0.558197 -1.113690
v 0.044625 -0.568982 -1.110805
v 0.045471 -0.579767 -1.107921
v 0.051293 -0.492335 -1.131000
v 0.031836 -0.508208 -1.127212
v 0.041818 -0.504087 -1.128115
v 0.042712 -0.514868 -1.125230
v 0.041242 -0.525841 -1.122345
v 0.042088 -0.536626 -1.119460
v 0.042934 -0.547411 -1.116575
v 0.050436 -0.492424 -1.131000
v 0.032174 -0.510572 -1.126577
v 0.039550 -0.504270 -1.128115
v 0.040396 -0.515055 -1.125230
v 0.038876 -0.526021 -1.122345
v 0.039673 -0.536810 -1.119460
v 0.040471 -0.547599 -1.116575
v 0.049578 -0.492511 -1.131000
v 0.032512 -0.512939 -1.125942
v 0.037281 -0.504443 -1.128115
v 0.038079 -0.515232 -1.125230
v 0.048720 -0.492597 -1.131000
v 0.032851 -0.515309 -1.125305
v 0.035012 -0.504605 -1.128115
v 0.035761 -0.515398 -1.125230
v 0.047863 -0.492681 -1.131000
v 0.033191 -0.517683 -1.124668
v 0.047005 -0.492763 -1.131000
v 0.033530 -0.520061 -1.124029
v 0.046146 -0.492844 -1.131000
v 0.033871 -0.522442 -1.123390
v 0.045288 -0.492924 -1.131000
v 0.044430 -0.493002 -1.131000
v 0.034212 -0.524826 -1.122749
v 0.043571 -0.493079 -1.131000
v 0.034553 -0.527214 -1.122108
v 0.042713 -0.493154 -1.131000
v 0.034895 -0.529606 -1.121466
v 0.041854 -0.493227 -1.131000
v 0.035237 -0.532001 -1.120822
v 0.040995 -0.493300 -1.131000
v 0.035580 -0.534399 -1.120178
v 0.040136 -0.493370 -1.131000
v 0.035923 -0.536801 -1.119533
v 0.039277 -0.493439 -1.131000
v 0.036267 -0.539207 -1.118887
v 0.038418 -0.493507 -1.131000
v 0.036611 -0.541616 -1.118240
v 0.037558 -0.493573 -1.131000
v 0.036956 -0.544028 -1.117592
v 0.036699 -0.493638 -1.131000
v 0.037301 -0.546444 -1.116942
v 0.035839 -0.493701 -1.131000
v 0.037647 -0.548864 -1.116292
v 0.034980 -0.493763 -1.131000
v 0.037993 -0.551287 -1.115642
v 0.034120 -0.493823 -1.131000
v 0.038340 -0.553713 -1.114990
v 0.033260 -0.493881 -1.131000
v 0.038687 -0.556143 -1.114337
v 0.032400 -0.493939 -1.131000
v 0.039035 -0.558576 -1.113683
v 0.031540 -0.493994 -1.131000
v 0.039383 -0.561013 -1.113028
v 0.030679 -0.494048 -1.131000
v 0.039732 -0.563453 -1.112373
v 0.056587 -0.496499 -1.129743
v 0.040081 -0.565897 -1.111716
v 0.056664 -0.498868 -1.129113
v 0.040430 -0.568344 -1.111059
v 0.056742 -0.501240 -1.128482
v 0.040781 -0.570795 -1.110400
v 0.056819 -0.503616 -1.127850
v 0.041131 -0.573249 -1.109741
v 0.056896 -0.505995 -1.127218
v 0.041482 -0.575706 -1.109080
v 0.056974 -0.508379 -1.126584
v 0.041834 -0.578167 -1.108419
v 0.057052 -0.510766 -1.125949
v 0.042186 -0.580631 -1.107757
v 0.057129 -0.513156 -1.125313
v 0.042538 -0.583099 -1.107094
v 0.057207 -0.515551 -1.124676
v 0.057285 -0.517948 -1.124038
v 0.042891 -0.585570 -1.106430
v 0.057364 -0.520350 -1.123399
v 0.043245 -0.588044 -1.105765
v 0.057442 -0.522755 -1.122759
v 0.043599 -0.590522 -1.105099
v 0.057521 -0.525164 -1.122119
v 0.043953 -0.593003 -1.104432
v 0.057599 -0.527577 -1.121477
v 0.044308 -0.595487 -1.103764
v 0.057678 -0.529993 -1.120834
v 0.044664 -0.597975 -1.103096
v 0.057757 -0.532413 -1.120190
v 0.045020 -0.600466 -1.102426
v 0.057836 -0.534837 -1.119545
v 0.045376 -0.602961 -1.101756
v 0.057915 -0.537264 -1.118899
v 0.045733 -0.605459 -1.101084
v 0.057994 -0.539696 -1.118253
v 0.046090 -0.607960 -1.100412
v 0.058073 -0.542130 -1.117605
v 0.046448 -0.610465 -1.099739
v 0.058153 -0.544569 -1.116956
v 0.046806 -0.612973 -1.099065
v 0.058233 -0.547011 -1.116306
v 0.047165 -0.615485 -1.098389
v 0.058312 -0.549456 -1.115655
v 0.047524 -0.618000 -1.097713
v 0.058392 -0.551906 -1.115004
v 0.047884 -0.620518 -1.097036
v 0.058472 -0.554359 -1.114351
v 0.048244 -0.623040 -1.096359
v 0.058552 -0.556815 -1.113697
v 0.048605 -0.625566 -1.095680
v 0.058632 -0.559276 -1.113042
v 0.058713 -0.561739 -1.112387
v 0.058793 -0.564207 -1.111730
v 0.058874 -0.566678 -1.111073
v 0.058955 -0.569153 -1.110414
v 0.071996 -0.653322 -1.087726
v 0.059036 -0.571631 -1.109754
v 0.059117 -0.574113 -1.109094
v 0.059198 -0.576598 -1.108432
v 0.059279 -0.579087 -1.107770
v 0.059360 -0.581580 -1.107106
v 0.059442 -0.584076 -1.106442
v 0.059523 -0.586575 -1.105777
v 0.059605 -0.589079 -1.105110
v 0.059687 -0.591585 -1.104443
v 0.059769 -0.594096 -1.103775
v 0.059851 -0.596610 -1.103106
v 0.059933 -0.599127 -1.102435
v 0.060015 -0.601648 -1.101764
v 0.060098 -0.604173 -1.101092
v 0.060180 -0.606701 -1.100419
v 0.060263 -0.609233 -1.099745
v 0.060346 -0.611768 -1.099070
v 0.060429 -0.614307 -1.098394
v 0.060512 -0.616849 -1.097717
v 0.060595 -0.619395 -1.097039
v 0.060678 -0.621945 -1.096361
v 0.060762 -0.624498 -1.095681
f 1 2 3
f 4 5 6
f 6 7 8
f 8 9 10
f 10 11 12
f 12 13 14
f 14 15 16
f 16 17 18
f 18 19 20
f 20 21 22
f 22 23 24
f 24 25 26
f 26 27 28
f 28 29 30
f 30 31 32
f 32 33 34
f 34 35 36
f 36 37 38
f 38 39 40
f 40 41 42
f 42 43 44
f 44 45 46
f 46 47 48
f 48 49 50
f 50 51 52
f 52 53 54
f 54 55 56
f 56 57 58
f 58 59 60
f 61 62 63
f 64 65 66
f 67 68 69
f 70 71 72
f 73 74 75
f 76 77 78
f 79 80 81
f 82 83 84
f 85 86 87
f 88 89 90
f 91 92 93
f 94 95 96
f 97 98 99
f 100 101 102
f 103 104 105
f 106 1 3
f 4 6 8
f 8 10 12
f 12 14 16
f 16 18 20
f 20 22 24
f 24 26 28
f 28 30 32
f 32 34 36
f 36 38 40
f 40 42 44
f 44 46 48
f 48 50 52
f 52 54 56
f 56 58 60
f 107 61 63
f 108 64 66
f 109 67 69
f 110 70 72
f 111 73 75
f 112 76 78
f 113 79 81
f 114 82 84
f 115 85 87
f 116 88 90
f 117 91 93
f 118 94 96
f 119 97 99
f 120 100 102
f 102 103 105
f 121 106 3
f 4 8 12
f 12 16 20
f 20 24 28
f 28 32 36
f 36 40 44
f 44 48 52
f 122 107 63
f 123 108 66
f 124 109 69
f 125 110 72
f 126 111 75
f 127 112 78
f 128 113 81
f 129 114 84
f 130 115 87
f 131 116 90
f 132 117 93
f 133 118 96
f 134 119 99
f 99 120 102
f 135 121 3
f 4 12 20
f 20 28 36
f 36 44 52
f 136 122 63
f 137 123 66
f 138 124 69
f 139 125 72
f 140 126 75
f 141 127 78
f 142 128 81
f 143 129 84
f 144 130 87
f 87 131 90
f 90 132 93
f 93 133 96
f 96 134 99
f 145 135 3
f 4 20 36
f 36 52 56
f 146 136 63
f 147 137 66
f 148 138 69
f 149 139 72
f 150 140 75
f 151 141 78
f 152 142 81
f 153 143 84
f 154 144 87
f 155 145 3
f 156 146 63
f 157 147 66
f 158 148 69
f 159 149 72
f 160 150 75
f 161 151 78
f 78 152 81
f 81 153 84
f 84 154 87
f 162 155 3
f 163 156 63
f 164 157 66
f 165 158 69
f 166 159 72
f 167 160 75
f 168 161 78
f 84 87 90
f 169 162 3
f 170 163 63
f 171 164 66
f 172 165 69
f 69 166 72
f 72 167 75
f 75 168 78
f 84 90 93
f 173 169 3
f 174 170 63
f 175 171 66
f 176 172 69
f 75 78 81
f 84 93 96
f 177 173 3
f 178 174 63
f 63 175 66
f 66 176 69
f 75 81 84
f 179 177 3
f 180 178 63
f 66 69 72
f 75 84 96
f 181 179 3
f 182 180 63
f 66 72 75
f 183 181 3
f 182 63 66
f 66 75 96
f 184 183 3
f 185 182 66
f 186 184 3
f 187 185 66
f 188 186 3
f 189 187 66
f 190 188 3
f 191 189 66
f 192 190 3
f 193 191 66
f 194 192 3
f 195 193 66
f 196 194 3
f 197 195 66
f 198 196 3
f 199 197 66
f 200 198 3
f 201 199 66
f 202 200 3
f 203 201 66
f 204 202 3
f 205 203 66
f 206 204 3
f 207 205 66
f 208 206 3
f 209 207 66
f 210 208 3
f 211 209 66
f 212 210 3
f 213 211 66
f 214 212 3
f 215 213 66
f 216 214 3
f 217 215 66
f 216 3 218
f 219 217 66
f 216 218 220
f 221 219 66
f 216 220 222
f 223 221 66
f 216 222 224
f 225 223 66
f 216 224 226
f 227 225 66
f 216 226 228
f 229 227 66
f 216 228 230
f 231 229 66
f 216 230 232
f 233 231 66
f 216 232 234
f 233 66 96
f 216 234 235
f 236 233 96
f 216 235 237
f 238 236 96
f 216 237 239
f 240 238 96
f 216 239 241
f 242 240 96
f 216 241 243
f 244 242 96
f 216 243 245
f 246 244 96
f 216 245 247
f 248 246 96
f 216 247 249
f 250 248 96
f 216 249 251
f 252 250 96
f 216 251 253
f 254 252 96
f 216 253 255
f 256 254 96
f 216 255 257
f 258 256 96
f 216 257 259
f 260 258 96
f 216 259 261
f 262 260 96
f 216 261 263
f 264 262 96
f 216 263 265
f 266 264 96
f 216 265 267
f 268 266 96
f 216 267 269
f 60 268 96
f 216 269 270
f 60 96 99
f 216 270 271
f 99 102 60
f 102 105 60
f 216 271 272
f 56 60 105
f 216 272 273
f 56 105 274
f 216 273 275
f 4 36 56
f 216 275 276
f 216 276 277
f 216 277 278
f 216 278 279
f 216 279 280
f 216 280 281
f 216 281 282
f 216 282 283
f 216 283 284
f 216 284 285
f 216 285 286
f 216 286 287
f 216 287 288
f 216 288 289
f 216 289 290
f 216 290 291
f 216 291 292
f 56 274 216
f 216 292 293
f 216 293 294
f 216 294 295
f 216 295 296
f 216 296 4
f 62 216 214
