v -0.643516 0.010000 -0.186514
v -0.644244 0.010000 -0.183984
v -0.644962 0.010000 -0.181450
v -0.645670 0.010000 -0.178914
v -0.646368 0.010000 -0.176375
v -0.647057 0.010000 -0.173833
v -0.647735 0.010000 -0.171288
v -0.648403 0.010000 -0.168741
v -0.649061 0.010000 -0.166191
v -0.649709 0.010000 -0.163639
v -0.650348 0.010000 -0.161084
v -0.643516 0.220000 -0.186514
v -0.644244 0.220000 -0.183984
v -0.644962 0.220000 -0.181450
v -0.645670 0.220000 -0.178914
v -0.646368 0.220000 -0.176375
v -0.647057 0.220000 -0.173833
v -0.647735 0.220000 -0.171288
v -0.648403 0.220000 -0.168741
v -0.649061 0.220000 -0.166191
v -0.649709 0.220000 -0.163639
v -0.650348 0.220000 -0.161084
f 1 2 13
f 1 13 12
f 2 3 14
f 2 14 13
f 3 4 15
f 3 15 14
f 4 5 16
f 4 16 15
f 5 6 17
f 5 17 16
f 6 7 18
f 6 18 17
f 7 8 19
f 7 19 18
f 8 9 20
f 8 20 19
f 9 10 21
f 9 21 20
f 10 11 22
f 10 22 21
