v 0.855000 -0.957970 -6.063000
v 0.862504 -0.524106 -6.063095
v 0.855000 -0.524053 -6.063000
v 0.865989 -0.957914 -6.063176
v 0.870030 -0.524266 -6.063379
v 0.876620 -0.957751 -6.063694
v 0.877574 -0.524532 -6.063855
v 0.885127 -0.524906 -6.064522
v 0.886908 -0.957485 -6.064539
v 0.892685 -0.525387 -6.065382
v 0.896868 -0.957120 -6.065697
v 0.900242 -0.525977 -6.066435
v 0.906516 -0.956661 -6.067151
v 0.907791 -0.526675 -6.067684
v 0.915326 -0.527483 -6.069127
v 0.915868 -0.956113 -6.068889
v 0.922842 -0.528401 -6.070768
v 0.924940 -0.955481 -6.070894
v 0.930336 -0.529430 -6.072607
v 0.933746 -0.954769 -6.073151
v 0.937805 -0.530571 -6.074647
v 0.942303 -0.953982 -6.075647
v 0.945248 -0.531825 -6.076889
v 0.950627 -0.953125 -6.078366
v 0.952662 -0.533193 -6.079335
v 0.958732 -0.952202 -6.081292
v 0.960044 -0.534677 -6.081987
v 0.966634 -0.951219 -6.084412
v 0.967392 -0.536276 -6.084847
v 0.974349 -0.950179 -6.087711
v 0.974703 -0.537994 -6.087917
v 0.981893 -0.949087 -6.091173
v 0.981974 -0.539829 -6.091198
v 0.989198 -0.541784 -6.094692
v 0.989277 -0.947947 -6.094788
v 0.996368 -0.543858 -6.098400
v 0.996502 -0.946760 -6.098553
v 1.003479 -0.546053 -6.102323
v 1.003570 -0.945525 -6.102469
v 1.010524 -0.548368 -6.106463
v 1.010482 -0.944244 -6.106533
v 1.017240 -0.942916 -6.110745
v 1.017495 -0.550806 -6.110820
v 1.023844 -0.941542 -6.115104
v 1.024387 -0.553366 -6.115396
v 1.030295 -0.940122 -6.119607
v 1.031194 -0.556049 -6.120192
v 1.036596 -0.938656 -6.124255
v 1.037907 -0.558855 -6.125208
v 1.042746 -0.937146 -6.129046
v 1.044520 -0.561784 -6.130444
v 1.048748 -0.935590 -6.133979
v 1.051024 -0.564836 -6.135900
v 1.054602 -0.933991 -6.139052
v 1.057411 -0.568010 -6.141574
v 1.060309 -0.932347 -6.144266
v 1.063674 -0.571306 -6.147466
v 1.065872 -0.930659 -6.149617
v 1.069805 -0.574723 -6.153575
v 1.071290 -0.928929 -6.155107
v 1.075796 -0.578262 -6.159901
v 1.076564 -0.927155 -6.160733
v 1.081639 -0.581921 -6.166444
v 1.081693 -0.925337 -6.166498
v 1.086677 -0.923476 -6.172402
v 1.087326 -0.585699 -6.173199
v 1.091513 -0.921570 -6.178446
v 1.092846 -0.589595 -6.180164
v 1.096202 -0.919620 -6.184630
v 1.098191 -0.593605 -6.187334
v 1.100743 -0.917625 -6.190956
v 1.103350 -0.597728 -6.194705
v 1.105134 -0.915586 -6.197425
v 1.108314 -0.601960 -6.202272
v 1.109375 -0.913501 -6.204037
v 1.113074 -0.606301 -6.210032
v 1.113464 -0.911371 -6.210794
v 1.117401 -0.909194 -6.217696
v 1.117621 -0.610747 -6.217980
v 1.121185 -0.906972 -6.224743
v 1.121944 -0.615296 -6.226111
v 1.124815 -0.904704 -6.231938
v 1.126036 -0.619943 -6.234417
v 1.128290 -0.902389 -6.239280
v 1.129888 -0.624681 -6.242886
v 1.131609 -0.900027 -6.246772
v 1.133493 -0.629503 -6.251505
v 1.134761 -0.897615 -6.254422
v 1.136842 -0.634404 -6.260265
v 1.137735 -0.895149 -6.262242
v 1.139929 -0.639376 -6.269151
v 1.140518 -0.892626 -6.270245
v 1.142744 -0.644412 -6.278154
v 1.143097 -0.890041 -6.278443
v 1.145458 -0.887391 -6.286847
v 1.145281 -0.649507 -6.287261
v 1.147590 -0.884672 -6.295471
v 1.147532 -0.654654 -6.296462
v 1.149479 -0.881880 -6.304326
v 1.149492 -0.659849 -6.305748
v 1.151112 -0.879011 -6.313424
v 1.151160 -0.665089 -6.315117
v 1.152478 -0.876062 -6.322779
v 1.152531 -0.670372 -6.324561
v 1.153562 -0.873028 -6.332401
v 1.153604 -0.675694 -6.334077
v 1.154352 -0.869905 -6.342304
v 1.154375 -0.681054 -6.343659
v 1.154836 -0.866691 -6.352500
v 1.154841 -0.686448 -6.353302
v 1.155000 -0.863380 -6.363000
v 1.155000 -0.691873 -6.363000
f 1 3 2
f 1 2 4
f 4 2 5
f 4 5 6
f 6 5 7
f 6 7 8
f 6 8 9
f 9 8 10
f 9 10 11
f 11 10 12
f 11 12 13
f 13 12 14
f 13 14 15
f 13 15 16
f 16 15 17
f 16 17 18
f 18 17 19
f 18 19 20
f 20 19 21
f 20 21 22
f 22 21 23
f 22 23 24
f 24 23 25
f 24 25 26
f 26 25 27
f 26 27 28
f 28 27 29
f 28 29 30
f 30 29 31
f 30 31 32
f 32 31 33
f 32 33 34
f 32 34 35
f 35 34 36
f 35 36 37
f 37 36 38
f 37 38 39
f 39 38 40
f 39 40 41
f 41 40 42
f 42 40 43
f 42 43 44
f 44 43 45
f 44 45 46
f 46 45 47
f 46 47 48
f 48 47 49
f 48 49 50
f 50 49 51
f 50 51 52
f 52 51 53
f 52 53 54
f 54 53 55
f 54 55 56
f 56 55 57
f 56 57 58
f 58 57 59
f 58 59 60
f 60 59 61
f 60 61 62
f 62 61 63
f 62 63 64
f 64 63 65
f 65 63 66
f 65 66 67
f 67 66 68
f 67 68 69
f 69 68 70
f 69 70 71
f 71 70 72
f 71 72 73
f 73 72 74
f 73 74 75
f 75 74 76
f 75 76 77
f 77 76 78
f 78 76 79
f 78 79 80
f 80 79 81
f 80 81 82
f 82 81 83
f 82 83 84
f 84 83 85
f 84 85 86
f 86 85 87
f 86 87 88
f 88 87 89
f 88 89 90
f 90 89 91
f 90 91 92
f 92 91 93
f 92 93 94
f 94 93 95
f 95 93 96
f 95 96 97
f 97 96 98
f 97 98 99
f 99 98 100
f 99 100 101
f 101 100 102
f 101 102 103
f 103 102 104
f 103 104 105
f 105 104 106
f 105 106 107
f 107 106 108
f 107 108 109
f 109 108 110
f 109 110 111
f 111 110 112
