v 1.967346 -0.559197 -6.129904
v 1.967716 -0.559736 -6.135271
v 1.967567 -0.559470 -6.132585
v 1.967792 -0.559995 -6.137961
v 1.967796 -0.560246 -6.140653
v 1.967727 -0.560490 -6.143345
v 1.967585 -0.560727 -6.146034
v 1.967370 -0.560955 -6.148720
v 1.967084 -0.561176 -6.151399
v 1.966724 -0.561389 -6.154070
v 1.966294 -0.561593 -6.156731
v 1.966369 -0.567827 -6.129134
v 1.965254 -0.576196 -6.128563
v 1.964009 -0.584315 -6.128180
v 1.962641 -0.592200 -6.127977
v 1.961157 -0.599862 -6.127944
v 1.959556 -0.607306 -6.128081
v 1.957841 -0.614529 -6.128388
v 1.956009 -0.621531 -6.128868
v 1.954060 -0.628310 -6.129523
v 1.951997 -0.634856 -6.130353
v 1.965479 -0.570627 -6.154367
v 1.965478 -0.570636 -6.154365
v 1.964467 -0.579273 -6.151891
v 1.964465 -0.579291 -6.151886
v 1.963283 -0.587531 -6.149324
v 1.963279 -0.587556 -6.149316
v 1.961951 -0.595405 -6.146685
v 1.961945 -0.595437 -6.146674
v 1.960491 -0.602902 -6.143993
v 1.960483 -0.602940 -6.143978
v 1.958925 -0.610024 -6.141265
v 1.958915 -0.610067 -6.141248
v 1.957275 -0.616771 -6.138523
v 1.957263 -0.616818 -6.138503
v 1.955561 -0.623147 -6.135783
v 1.955547 -0.623197 -6.135761
v 1.953802 -0.629158 -6.133062
v 1.953787 -0.629209 -6.133039
v 1.952018 -0.634804 -6.130379
v 1.965217 -0.561975 -6.162016
v 1.965791 -0.561788 -6.159381
v 1.964573 -0.562154 -6.164635
v 1.963858 -0.562323 -6.167237
v 1.963073 -0.562483 -6.169820
v 1.962219 -0.562635 -6.172380
v 1.961296 -0.562777 -6.174917
v 1.960305 -0.562909 -6.177430
v 1.959247 -0.563033 -6.179915
v 1.958123 -0.563146 -6.182371
v 1.949824 -0.641154 -6.131357
v 1.947546 -0.647186 -6.132535
v 1.945168 -0.652938 -6.133885
v 1.942691 -0.658397 -6.135409
v 1.940110 -0.663558 -6.137114
v 1.937419 -0.668417 -6.139007
v 1.934613 -0.672971 -6.141095
v 1.931692 -0.677209 -6.143380
v 1.928680 -0.681098 -6.145844
v 1.925601 -0.684603 -6.148467
v 1.922482 -0.687688 -6.151227
v 1.956997 -0.572680 -6.181436
v 1.956995 -0.572691 -6.181435
v 1.955688 -0.581860 -6.180332
v 1.955685 -0.581880 -6.180330
v 1.954218 -0.590682 -6.179080
v 1.954213 -0.590710 -6.179076
v 1.952609 -0.599146 -6.177699
v 1.952602 -0.599181 -6.177693
v 1.950881 -0.607254 -6.176206
v 1.950872 -0.607296 -6.176198
v 1.949055 -0.615005 -6.174621
v 1.949043 -0.615052 -6.174611
v 1.947150 -0.622392 -6.172963
v 1.947137 -0.622444 -6.172951
v 1.945188 -0.629416 -6.171249
v 1.945172 -0.629471 -6.171235
v 1.943186 -0.636078 -6.169496
v 1.943168 -0.636136 -6.169480
v 1.941164 -0.642375 -6.167722
v 1.941144 -0.642434 -6.167705
v 1.939143 -0.648299 -6.165946
v 1.939122 -0.648359 -6.165927
v 1.937144 -0.653846 -6.164186
v 1.937121 -0.653906 -6.164166
v 1.935184 -0.659014 -6.162459
v 1.935160 -0.659076 -6.162438
v 1.933281 -0.663808 -6.160780
v 1.933256 -0.663871 -6.160758
v 1.931447 -0.668240 -6.159160
v 1.931420 -0.668303 -6.159137
v 1.929691 -0.672322 -6.157609
v 1.929664 -0.672385 -6.157584
v 1.928023 -0.676067 -6.156133
v 1.927995 -0.676129 -6.156109
v 1.926453 -0.679482 -6.154744
v 1.926425 -0.679542 -6.154719
v 1.924998 -0.682558 -6.153456
v 1.924971 -0.682615 -6.153432
v 1.923677 -0.685282 -6.152285
v 1.923651 -0.685334 -6.152262
v 1.922507 -0.687641 -6.151248
v 1.955678 -0.563345 -6.187189
v 1.956933 -0.563251 -6.184796
v 1.954360 -0.563430 -6.189548
v 1.952978 -0.563504 -6.191870
v 1.951535 -0.563569 -6.194156
v 1.950031 -0.563625 -6.196401
v 1.948467 -0.563670 -6.198606
v 1.946844 -0.563705 -6.200769
v 1.945164 -0.563730 -6.202887
v 1.943428 -0.563745 -6.204959
v 1.941637 -0.563750 -6.206985
v 1.939793 -0.563745 -6.208961
v 1.937896 -0.563730 -6.210888
v 1.935948 -0.563705 -6.212763
v 1.933951 -0.563670 -6.214585
v 1.931906 -0.563625 -6.216352
v 1.929815 -0.563569 -6.218065
v 1.927678 -0.563504 -6.219720
v 1.925498 -0.563430 -6.221318
v 1.923277 -0.563345 -6.222856
v 1.921015 -0.563251 -6.224334
v 1.919347 -0.690320 -6.154103
v 1.916211 -0.692497 -6.157082
v 1.913084 -0.694225 -6.160148
v 1.909978 -0.695513 -6.163288
v 1.906902 -0.696368 -6.166488
v 1.903865 -0.696792 -6.169739
v 1.900872 -0.696787 -6.173034
v 1.897928 -0.696352 -6.176369
v 1.895040 -0.695487 -6.179736
v 1.892215 -0.694188 -6.183128
v 1.889466 -0.692450 -6.186532
v 1.886806 -0.690265 -6.189936
v 1.920066 -0.572814 -6.223239
v 1.920065 -0.572824 -6.223237
v 1.918928 -0.582023 -6.221979
v 1.918926 -0.582043 -6.221976
v 1.917623 -0.590875 -6.220574
v 1.917619 -0.590903 -6.220569
v 1.916173 -0.599369 -6.219045
v 1.916166 -0.599404 -6.219038
v 1.914597 -0.607508 -6.217408
v 1.914588 -0.607550 -6.217400
v 1.912916 -0.615288 -6.215684
v 1.912905 -0.615336 -6.215673
v 1.911150 -0.622706 -6.213891
v 1.911137 -0.622758 -6.213878
v 1.909320 -0.629759 -6.212046
v 1.909306 -0.629815 -6.212031
v 1.907445 -0.636450 -6.210168
v 1.907428 -0.636508 -6.210151
v 1.905543 -0.642774 -6.208274
v 1.905524 -0.642834 -6.208256
v 1.903635 -0.648725 -6.206383
v 1.903615 -0.648786 -6.206363
v 1.901742 -0.654298 -6.204513
v 1.901721 -0.654359 -6.204492
v 1.899883 -0.659491 -6.202683
v 1.899860 -0.659553 -6.202661
v 1.898073 -0.664309 -6.200907
v 1.898049 -0.664372 -6.200883
v 1.896325 -0.668763 -6.199196
v 1.896299 -0.668826 -6.199171
v 1.894649 -0.672865 -6.197559
v 1.894623 -0.672929 -6.197533
v 1.893055 -0.676630 -6.196005
v 1.893028 -0.676692 -6.195979
v 1.891553 -0.680063 -6.194542
v 1.891526 -0.680124 -6.194516
v 1.890159 -0.683155 -6.193188
v 1.890133 -0.683212 -6.193162
v 1.888892 -0.685894 -6.191957
v 1.888867 -0.685946 -6.191933
v 1.887769 -0.688266 -6.190868
v 1.887746 -0.688313 -6.190846
v 1.916377 -0.563033 -6.227105
v 1.918714 -0.563146 -6.225751
v 1.914005 -0.562909 -6.228396
v 1.911599 -0.562777 -6.229623
v 1.909162 -0.562635 -6.230784
v 1.906695 -0.562483 -6.231879
v 1.904200 -0.562323 -6.232908
v 1.901678 -0.562154 -6.233868
v 1.899132 -0.561975 -6.234761
v 1.896564 -0.561788 -6.235584
v 1.884247 -0.687625 -6.193329
v 1.881804 -0.684535 -6.196693
v 1.879493 -0.681026 -6.200004
v 1.877335 -0.677134 -6.203232
v 1.875345 -0.672895 -6.206352
v 1.873540 -0.668341 -6.209340
v 1.871918 -0.663484 -6.212194
v 1.870472 -0.658325 -6.214921
v 1.869196 -0.652869 -6.217528
v 1.868083 -0.647119 -6.220021
v 1.867132 -0.641089 -6.222397
v 1.894246 -0.570884 -6.235000
v 1.894244 -0.570894 -6.234999
v 1.891792 -0.579595 -6.234231
v 1.891787 -0.579614 -6.234230
v 1.889226 -0.587922 -6.233302
v 1.889218 -0.587948 -6.233298
v 1.886569 -0.595868 -6.232231
v 1.886558 -0.595901 -6.232226
v 1.883841 -0.603440 -6.231039
v 1.883827 -0.603478 -6.231033
v 1.881064 -0.610638 -6.229746
v 1.881046 -0.610682 -6.229738
v 1.878257 -0.617463 -6.228370
v 1.878237 -0.617510 -6.228360
v 1.875441 -0.623917 -6.226931
v 1.875419 -0.623967 -6.226919
v 1.872635 -0.630006 -6.225444
v 1.872611 -0.630059 -6.225431
v 1.869859 -0.635732 -6.223928
v 1.869832 -0.635785 -6.223914
v 1.891367 -0.561389 -6.237022
v 1.893975 -0.561593 -6.236338
v 1.888743 -0.561176 -6.237635
v 1.886103 -0.560955 -6.238177
v 1.883451 -0.560727 -6.238647
v 1.880787 -0.560490 -6.239046
v 1.878114 -0.560246 -6.239373
v 1.875435 -0.559995 -6.239627
v 1.872750 -0.559736 -6.239808
v 1.870061 -0.559470 -6.239917
v 1.867372 -0.559197 -6.239954
v 1.866343 -0.634794 -6.224653
v 1.865716 -0.628251 -6.226783
v 1.865252 -0.621476 -6.228783
v 1.864951 -0.614478 -6.230650
v 1.864811 -0.607260 -6.232385
v 1.864829 -0.599823 -6.233988
v 1.865004 -0.592167 -6.235461
v 1.865338 -0.584289 -6.236801
v 1.865838 -0.576178 -6.238002
v 1.866513 -0.567818 -6.239056
f 1 2 3
f 1 4 2
f 1 5 4
f 1 6 5
f 1 7 6
f 1 8 7
f 1 9 8
f 1 10 9
f 1 11 10
f 1 12 13
f 1 13 14
f 1 14 15
f 1 15 16
f 1 16 17
f 1 17 18
f 1 18 19
f 1 19 20
f 1 20 21
f 1 22 11
f 1 23 22
f 1 24 23
f 1 25 24
f 1 26 25
f 1 27 26
f 1 28 27
f 1 29 28
f 1 30 29
f 1 31 30
f 1 32 31
f 1 33 32
f 1 34 33
f 1 35 34
f 1 36 35
f 1 37 36
f 1 38 37
f 1 39 38
f 1 40 39
f 1 21 40
f 11 41 42
f 11 43 41
f 11 44 43
f 11 45 44
f 11 46 45
f 11 47 46
f 11 48 47
f 11 49 48
f 11 50 49
f 21 51 52
f 21 52 53
f 21 53 54
f 21 54 55
f 21 55 56
f 21 56 57
f 21 57 58
f 21 58 59
f 21 59 60
f 21 60 61
f 11 22 50
f 22 62 50
f 22 23 62
f 23 63 62
f 23 24 63
f 24 64 63
f 24 25 64
f 25 65 64
f 25 26 65
f 26 66 65
f 26 27 66
f 27 67 66
f 27 28 67
f 28 68 67
f 28 29 68
f 29 69 68
f 29 30 69
f 30 70 69
f 30 31 70
f 31 71 70
f 31 32 71
f 32 72 71
f 32 33 72
f 33 73 72
f 33 34 73
f 34 74 73
f 34 35 74
f 35 75 74
f 35 36 75
f 36 76 75
f 36 37 76
f 37 77 76
f 37 38 77
f 38 78 77
f 38 39 78
f 39 79 78
f 39 40 79
f 40 80 79
f 40 21 80
f 21 81 80
f 21 82 81
f 21 83 82
f 21 84 83
f 21 85 84
f 21 86 85
f 21 87 86
f 21 88 87
f 21 89 88
f 21 90 89
f 21 91 90
f 21 92 91
f 21 93 92
f 21 94 93
f 21 95 94
f 21 96 95
f 21 97 96
f 21 98 97
f 21 99 98
f 21 100 99
f 21 101 100
f 21 102 101
f 21 61 102
f 50 103 104
f 50 105 103
f 50 106 105
f 50 107 106
f 50 108 107
f 50 109 108
f 50 110 109
f 50 111 110
f 50 112 111
f 50 113 112
f 50 114 113
f 50 115 114
f 50 116 115
f 50 117 116
f 50 118 117
f 50 119 118
f 50 120 119
f 50 121 120
f 50 122 121
f 50 123 122
f 61 124 125
f 61 125 126
f 61 126 127
f 61 127 128
f 61 128 129
f 61 129 130
f 61 130 131
f 61 131 132
f 61 132 133
f 61 133 134
f 61 134 135
f 50 62 123
f 62 136 123
f 62 63 136
f 63 137 136
f 63 64 137
f 64 138 137
f 64 65 138
f 65 139 138
f 65 66 139
f 66 140 139
f 66 67 140
f 67 141 140
f 67 68 141
f 68 142 141
f 68 69 142
f 69 143 142
f 69 70 143
f 70 144 143
f 70 71 144
f 71 145 144
f 71 72 145
f 72 146 145
f 72 73 146
f 73 147 146
f 73 74 147
f 74 148 147
f 74 75 148
f 75 149 148
f 75 76 149
f 76 150 149
f 76 77 150
f 77 151 150
f 77 78 151
f 78 152 151
f 78 79 152
f 79 153 152
f 79 80 153
f 80 154 153
f 80 81 154
f 81 155 154
f 81 82 155
f 82 156 155
f 82 83 156
f 83 157 156
f 83 84 157
f 84 158 157
f 84 85 158
f 85 159 158
f 85 86 159
f 86 160 159
f 86 87 160
f 87 161 160
f 87 88 161
f 88 162 161
f 88 89 162
f 89 163 162
f 89 90 163
f 90 164 163
f 90 91 164
f 91 165 164
f 91 92 165
f 92 166 165
f 92 93 166
f 93 167 166
f 93 94 167
f 94 168 167
f 94 95 168
f 95 169 168
f 95 96 169
f 96 170 169
f 96 97 170
f 97 171 170
f 97 98 171
f 98 172 171
f 98 99 172
f 99 173 172
f 99 100 173
f 100 174 173
f 100 101 174
f 101 175 174
f 101 102 175
f 102 176 175
f 102 61 176
f 61 177 176
f 61 135 177
f 123 178 179
f 123 180 178
f 123 181 180
f 123 182 181
f 123 183 182
f 123 184 183
f 123 185 184
f 123 186 185
f 123 187 186
f 135 188 189
f 135 189 190
f 135 190 191
f 135 191 192
f 135 192 193
f 135 193 194
f 135 194 195
f 135 195 196
f 135 196 197
f 135 197 198
f 123 136 187
f 136 199 187
f 136 137 199
f 137 200 199
f 137 138 200
f 138 201 200
f 138 139 201
f 139 202 201
f 139 140 202
f 140 203 202
f 140 141 203
f 141 204 203
f 141 142 204
f 142 205 204
f 142 143 205
f 143 206 205
f 143 144 206
f 144 207 206
f 144 145 207
f 145 208 207
f 145 146 208
f 146 209 208
f 146 147 209
f 147 210 209
f 147 148 210
f 148 211 210
f 148 149 211
f 149 212 211
f 149 150 212
f 150 213 212
f 150 151 213
f 151 214 213
f 151 152 214
f 152 215 214
f 152 153 215
f 153 216 215
f 153 154 216
f 154 217 216
f 154 155 217
f 155 218 217
f 155 156 218
f 156 198 218
f 156 157 198
f 157 158 198
f 158 159 198
f 159 160 198
f 160 161 198
f 161 162 198
f 162 163 198
f 163 164 198
f 164 165 198
f 165 166 198
f 166 167 198
f 167 168 198
f 168 169 198
f 169 170 198
f 170 171 198
f 171 172 198
f 172 173 198
f 173 174 198
f 174 175 198
f 175 176 198
f 176 177 198
f 177 135 198
f 187 219 220
f 187 221 219
f 187 222 221
f 187 223 222
f 187 224 223
f 187 225 224
f 187 226 225
f 187 227 226
f 187 228 227
f 187 229 228
f 198 230 231
f 198 231 232
f 198 232 233
f 198 233 234
f 198 234 235
f 198 235 236
f 198 236 237
f 198 237 238
f 198 238 239
f 198 239 229
f 187 199 229
f 199 200 229
f 200 201 229
f 201 202 229
f 202 203 229
f 203 204 229
f 204 205 229
f 205 206 229
f 206 207 229
f 207 208 229
f 208 209 229
f 209 210 229
f 210 211 229
f 211 212 229
f 212 213 229
f 213 214 229
f 214 215 229
f 215 216 229
f 216 217 229
f 217 218 229
f 218 198 229
