v 0.554849 1.258081 0.600000
v 0.587692 1.243078 0.600000
v 0.620129 1.227219 0.600000
v 0.652138 1.210513 0.600000
v 0.683697 1.192972 0.600000
v 0.714786 1.174609 0.600000
v 0.745381 1.155436 0.600000
v 0.775462 1.135466 0.600000
v 0.805009 1.114713 0.600000
v 0.834000 1.093192 0.600000
v 0.862417 1.070916 0.600000
v 0.890239 1.047903 0.600000
v 0.917447 1.024166 0.600000
v 0.944022 0.999724 0.600000
v 0.969946 0.974592 0.600000
v 0.995202 0.948788 0.600000
v 1.019771 0.922330 0.600000
v 1.043637 0.895236 0.600000
v 1.066783 0.867524 0.600000
v 1.089194 0.839215 0.600000
v 1.110854 0.810326 0.600000
v 1.131748 0.780879 0.600000
v 1.151861 0.750894 0.600000
v 1.171180 0.720390 0.600000
v 1.189692 0.689390 0.600000
v 1.207383 0.657915 0.600000
v 1.224241 0.625986 0.600000
v 1.240256 0.593625 0.600000
v 1.255415 0.560855 0.600000
v 1.269709 0.527698 0.600000
v 1.283127 0.494177 0.600000
v 1.295660 0.460316 0.600000
v 1.307300 0.426137 0.600000
v 1.318038 0.391664 0.600000
v 1.327868 0.356921 0.600000
v 1.336781 0.321932 0.600000
v 1.344774 0.286721 0.600000
v 1.351838 0.251313 0.600000
v 1.357971 0.215731 0.600000
v 1.363167 0.180000 0.600000
v 1.515000 0.180000 0.600000
v 1.515000 0.000000 0.600000
v 1.324913 0.000000 0.600000
v 1.324619 0.027831 0.600000
v 1.323737 0.055649 0.600000
v 1.322269 0.083442 0.600000
v 1.320217 0.111199 0.600000
v 1.317584 0.138907 0.600000
v 1.314371 0.166554 0.600000
v 1.310580 0.194127 0.600000
v 1.306213 0.221615 0.600000
v 1.301272 0.249006 0.600000
v 1.295759 0.276286 0.600000
v 1.289675 0.303445 0.600000
v 1.283023 0.330470 0.600000
v 1.275805 0.357349 0.600000
v 1.268022 0.384069 0.600000
v 1.259677 0.410619 0.600000
v 1.250772 0.436986 0.600000
v 1.241312 0.463160 0.600000
v 1.231303 0.489130 0.600000
v 1.220751 0.514883 0.600000
v 1.209660 0.540411 0.600000
v 1.198037 0.565700 0.600000
v 1.185887 0.590742 0.600000
v 1.173216 0.615523 0.600000
v 1.160030 0.640034 0.600000
v 1.146333 0.664264 0.600000
v 1.132132 0.688200 0.600000
v 1.117432 0.711834 0.600000
v 1.102238 0.735152 0.600000
v 1.086557 0.758145 0.600000
v 1.070394 0.780802 0.600000
v 1.053755 0.803111 0.600000
v 1.036648 0.825064 0.600000
v 1.019083 0.846653 0.600000
v 1.001068 0.867868 0.600000
v 0.982612 0.888701 0.600000
v 0.963723 0.909144 0.600000
v 0.944411 0.929186 0.600000
v 0.924684 0.948820 0.600000
v 0.904550 0.968038 0.600000
v 0.884018 0.986829 0.600000
v 0.863098 1.005186 0.600000
v 0.841798 1.023100 0.600000
v 0.820126 1.040562 0.600000
v 0.798091 1.057563 0.600000
v 0.775703 1.074095 0.600000
v 0.752970 1.090149 0.600000
v 0.729903 1.105721 0.600000
v 0.706513 1.120804 0.600000
v 0.682811 1.135392 0.600000
v 0.658808 1.149481 0.600000
v 0.634515 1.163064 0.600000
v 0.609943 1.176135 0.600000
v 0.585102 1.188690 0.600000
v 0.560004 1.200721 0.600000
v 0.534660 1.212225 0.600001
v 0.532702 1.213113 0.600000
v 0.530774 1.214038 0.600000
v 0.528877 1.214997 0.600000
v 0.527010 1.215992 0.600000
v 0.525172 1.217022 0.600000
v 0.523363 1.218088 0.600000
v 0.521582 1.219189 0.600000
v 0.519830 1.220325 0.600000
v 0.518106 1.221496 0.600000
v 0.516409 1.222702 0.600000
v 0.514738 1.223943 0.600000
v 0.513094 1.225219 0.600000
v 0.511476 1.226531 0.600000
v 0.509884 1.227877 0.600000
v 0.508316 1.229258 0.600000
v 0.506776 1.230673 0.600000
v 0.505262 1.232121 0.600000
v 0.503777 1.233602 0.600000
v 0.502321 1.235114 0.600000
v 0.500895 1.236658 0.600000
v 0.499501 1.238232 0.600000
v 0.498138 1.239836 0.600000
v 0.496808 1.241469 0.600000
v 0.495512 1.243130 0.600000
v 0.494250 1.244819 0.600000
v 0.493025 1.246535 0.600000
v 0.491836 1.248276 0.600000
v 0.490685 1.250044 0.600000
v 0.489572 1.251835 0.600000
v 0.488497 1.253650 0.600000
v 0.487462 1.255487 0.600000
v 0.486465 1.257346 0.600000
v 0.485508 1.259224 0.600000
v 0.484591 1.261121 0.600000
v 0.483714 1.263035 0.600000
v 0.482877 1.264966 0.600000
v 0.482081 1.266913 0.600000
v 0.481325 1.268873 0.600000
v 0.480611 1.270847 0.600000
v 0.479939 1.272833 0.600000
v 0.479309 1.274829 0.600000
v 0.478720 1.276835 0.600000
v 0.478174 1.278850 0.600000
v 0.477671 1.280876 0.600000
v 0.477211 1.282912 0.600000
v 0.476793 1.284959 0.600000
v 0.476419 1.287017 0.600000
v 0.476088 1.289086 0.600000
v 0.475800 1.291167 0.600000
v 0.475557 1.293261 0.600000
v 0.475357 1.295367 0.600000
v 0.475201 1.297486 0.600000
v 0.475089 1.299619 0.600000
v 0.475022 1.301766 0.600000
v 0.475000 1.303926 0.600000
v 0.475000 1.325000 0.600000
v 0.474743 1.335130 0.600000
v 0.473974 1.345234 0.600000
v 0.472694 1.355286 0.600000
v 0.470906 1.365260 0.600000
v 0.468615 1.375131 0.600000
v 0.465828 1.384873 0.600000
v 0.462550 1.394461 0.600000
v 0.458792 1.403871 0.600000
v 0.454561 1.413079 0.600000
v 0.449869 1.422060 0.600000
v 0.444729 1.430793 0.600000
v 0.439153 1.439254 0.600000
v 0.433155 1.447421 0.600000
v 0.426752 1.455274 0.600000
v 0.419959 1.462793 0.600000
v 0.412793 1.469959 0.600000
v 0.405274 1.476752 0.600000
v 0.397421 1.483155 0.600000
v 0.389254 1.489153 0.600000
v 0.380793 1.494729 0.600000
v 0.372060 1.499869 0.600000
v 0.363079 1.504561 0.600000
v 0.353871 1.508792 0.600000
v 0.344461 1.512550 0.600000
v 0.334873 1.515828 0.600000
v 0.325131 1.518615 0.600000
v 0.315260 1.520906 0.600000
v 0.305286 1.522694 0.600000
v 0.295234 1.523974 0.600000
v 0.285130 1.524743 0.600000
v 0.275000 1.525000 0.600000
v -0.625000 1.525000 0.600000
v -0.632938 1.524842 0.600000
v -0.640863 1.524370 0.600000
v -0.648763 1.523583 0.600000
v -0.656626 1.522484 0.600000
v -0.664439 1.521073 0.600000
v -0.672190 1.519353 0.600000
v -0.679867 1.517327 0.600000
v -0.687457 1.514998 0.600000
v -0.694948 1.512369 0.600000
v -0.702330 1.509445 0.600000
v -0.709589 1.506231 0.600000
v -0.716716 1.502731 0.600000
v -0.723697 1.498951 0.600000
v -0.730524 1.494896 0.600000
v -0.737183 1.490574 0.600000
v -0.743667 1.485991 0.600000
v -0.749963 1.481155 0.600000
v -0.756062 1.476072 0.600000
v -0.761955 1.470751 0.600000
v -0.767631 1.465201 0.600000
v -0.773083 1.459430 0.600000
v -0.778302 1.453446 0.600000
v -0.783279 1.447261 0.600000
v -0.788007 1.440882 0.600000
v -0.792478 1.434321 0.600000
v -0.796685 1.427588 0.600000
v -0.800621 1.420693 0.600000
v -0.804281 1.413648 0.600000
v -0.807658 1.406462 0.600000
v -0.810747 1.399149 0.600000
v -0.813544 1.391718 0.600000
v -0.814337 1.389553 0.600000
v -0.815172 1.387421 0.600000
v -0.816049 1.385321 0.600000
v -0.816968 1.383253 0.600000
v -0.817928 1.381216 0.600000
v -0.818931 1.379210 0.600000
v -0.819975 1.377235 0.600000
v -0.821061 1.375289 0.600000
v -0.822189 1.373372 0.600000
v -0.823358 1.371484 0.600000
v -0.824569 1.369624 0.600000
v -0.825822 1.367792 0.600000
v -0.827116 1.365987 0.600000
v -0.828451 1.364208 0.600000
v -0.829827 1.362457 0.600000
v -0.831244 1.360733 0.600000
v -0.832700 1.359038 0.600000
v -0.834195 1.357373 0.600000
v -0.835727 1.355740 0.600000
v -0.837297 1.354139 0.600000
v -0.838903 1.352571 0.600000
v -0.840544 1.351039 0.600000
v -0.842220 1.349542 0.600000
v -0.843929 1.348083 0.600000
v -0.845671 1.346662 0.600000
v -0.847445 1.345281 0.600000
v -0.849250 1.343940 0.600000
v -0.851086 1.342641 0.600000
v -0.852951 1.341385 0.600000
v -0.854844 1.340172 0.600000
v -0.856763 1.339002 0.600000
v -0.858707 1.337876 0.600000
v -0.860675 1.336795 0.600000
v -0.862665 1.335758 0.600000
v -0.864675 1.334766 0.600000
v -0.866706 1.333820 0.600000
v -0.868754 1.332919 0.600000
v -0.870818 1.332065 0.600000
v -0.872898 1.331257 0.600000
v -0.874992 1.330496 0.600000
v -0.877098 1.329783 0.600000
v -0.879215 1.329118 0.600000
v -0.881343 1.328500 0.600000
v -0.883483 1.327931 0.600000
v -0.885634 1.327410 0.600000
v -0.887798 1.326938 0.600000
v -0.889974 1.326515 0.600000
v -0.892164 1.326141 0.600000
v -0.894368 1.325816 0.600000
v -0.896585 1.325540 0.600000
v -0.898818 1.325314 0.600000
v -0.901066 1.325138 0.600000
v -0.903329 1.325012 0.600000
v -0.905609 1.324936 0.600000
v -0.907905 1.324911 0.600000
v -1.428260 1.324913 0.600000
v -1.430504 1.324913 0.600000
v -1.432748 1.324913 0.600000
v -1.434990 1.324913 0.600000
v -1.437232 1.324913 0.600000
v -1.439472 1.324913 0.600000
v -1.441711 1.324914 0.600000
v -1.443950 1.324914 0.600000
v -1.446187 1.324914 0.600000
v -1.448423 1.324915 0.600000
v -1.450657 1.324915 0.600000
v -1.452891 1.324916 0.600000
v -1.455124 1.324916 0.600000
v -1.457355 1.324917 0.600000
v -1.459585 1.324917 0.600000
v -1.461814 1.324918 0.600000
v -1.464042 1.324919 0.600000
v -1.466269 1.324919 0.600000
v -1.468495 1.324920 0.600000
v -1.470719 1.324921 0.600000
v -1.472943 1.324922 0.600000
v -1.475165 1.324923 0.600000
v -1.477386 1.324924 0.600000
v -1.479606 1.324925 0.600000
v -1.481824 1.324926 0.600000
v -1.484042 1.324927 0.600000
v -1.486259 1.324928 0.600000
v -1.488475 1.324929 0.600000
v -1.490689 1.324931 0.600000
v -1.492903 1.324932 0.600000
v -1.495116 1.324933 0.600000
v -1.497327 1.324935 0.600000
v -1.499538 1.324936 0.600000
v -1.501748 1.324937 0.600000
v -1.503957 1.324939 0.600000
v -1.506165 1.324940 0.600000
v -1.508372 1.324942 0.600000
v -1.510579 1.324943 0.600000
v -1.512784 1.324945 0.600000
v -1.514989 1.324947 0.600000
v -1.517193 1.324948 0.600000
v -1.519396 1.324950 0.600000
v -1.521599 1.324952 0.600000
v -1.523800 1.324953 0.600000
v -1.526001 1.324955 0.600000
v -1.528200 1.324957 0.600000
v -1.530399 1.324958 0.600000
v -1.532597 1.324960 0.600000
v -1.534794 1.324962 0.600000
v -1.536991 1.324963 0.600000
v -1.539186 1.324965 0.600000
v -1.541380 1.324967 0.600000
v -1.543574 1.324968 0.600000
v -1.545766 1.324970 0.600000
v -1.547958 1.324972 0.600000
v -1.550149 1.324973 0.600000
v -1.560629 1.324858 0.600000
v -1.571031 1.324502 0.600000
v -1.581359 1.323909 0.600000
v -1.591612 1.323080 0.600000
v -1.601795 1.322016 0.600000
v -1.611907 1.320720 0.600000
v -1.621951 1.319194 0.600000
v -1.631930 1.317439 0.600000
v -1.641844 1.315457 0.600000
v -1.651694 1.313250 0.600000
v -1.661478 1.310821 0.600000
v -1.671190 1.308170 0.600000
v -1.680824 1.305301 0.600000
v -1.690374 1.302215 0.600000
v -1.699836 1.298915 0.600000
v -1.709204 1.295402 0.600000
v -1.718472 1.291679 0.600000
v -1.727635 1.287747 0.600000
v -1.736688 1.283610 0.600000
v -1.745626 1.279268 0.600000
v -1.754447 1.274725 0.600000
v -1.763149 1.269983 0.600000
v -1.771729 1.265044 0.600000
v -1.780185 1.259910 0.600000
v -1.788513 1.254584 0.600000
v -1.796712 1.249069 0.600000
v -1.804778 1.243366 0.600000
v -1.812709 1.237478 0.600000
v -1.820503 1.231407 0.600000
v -1.828155 1.225155 0.600000
v -1.835664 1.218723 0.600000
v -1.843026 1.212115 0.600000
v -1.850237 1.205330 0.600000
v -1.857296 1.198373 0.600000
v -1.864198 1.191243 0.600000
v -1.870941 1.183943 0.600000
v -1.877522 1.176476 0.600000
v -1.883937 1.168843 0.600000
v -1.890183 1.161049 0.600000
v -1.896257 1.153100 0.600000
v -1.902154 1.144999 0.600000
v -1.907871 1.136751 0.600000
v -1.913405 1.128360 0.600000
v -1.918753 1.119832 0.600000
v -1.923910 1.111171 0.600000
v -1.928873 1.102381 0.600000
v -1.933639 1.093466 0.600000
v -1.938208 1.084423 0.600000
v -1.942576 1.075251 0.600000
v -1.946744 1.065946 0.600000
v -1.950709 1.056508 0.600000
v -1.954472 1.046933 0.600000
v -1.958029 1.037219 0.600000
v -1.961381 1.027364 0.600000
v -1.964525 1.017366 0.600000
v -1.965260 1.014929 0.600000
v -1.965993 1.012489 0.600000
v -1.966725 1.010046 0.600000
v -1.967456 1.007602 0.600000
v -1.968185 1.005155 0.600000
v -1.968913 1.002705 0.600000
v -1.969640 1.000253 0.600000
v -1.970366 0.997799 0.600000
v -1.971091 0.995342 0.600000
v -1.971814 0.992882 0.600000
v -1.972536 0.990420 0.600000
v -1.973257 0.987955 0.600000
v -1.973977 0.985488 0.600000
v -1.974696 0.983017 0.600000
v -1.975413 0.980545 0.600000
v -1.976130 0.978069 0.600000
v -1.976845 0.975591 0.600000
v -1.977559 0.973110 0.600000
v -1.978272 0.970626 0.600000
v -1.978984 0.968139 0.600000
v -1.979694 0.965650 0.600000
v -1.980403 0.963158 0.600000
v -1.981112 0.960663 0.600000
v -1.981818 0.958166 0.600000
v -1.982524 0.955667 0.600000
v -1.983228 0.953165 0.600000
v -1.983931 0.950661 0.600000
v -1.984633 0.948155 0.600000
v -1.985333 0.945647 0.600000
v -1.986032 0.943137 0.600000
v -1.986729 0.940626 0.600000
v -1.987425 0.938112 0.600000
v -1.988120 0.935596 0.600000
v -1.988813 0.933079 0.600000
v -1.989504 0.930561 0.600000
v -1.990194 0.928041 0.600000
v -1.990882 0.925519 0.600000
v -1.991569 0.922996 0.600000
v -1.992254 0.920472 0.600000
v -1.992938 0.917946 0.600000
v -1.993620 0.915419 0.600000
v -1.994300 0.912891 0.600000
v -1.994979 0.910361 0.600000
v -1.995656 0.907829 0.600000
v -1.996332 0.905296 0.600000
v -1.997006 0.902761 0.600000
v -1.997679 0.900225 0.600000
v -1.998350 0.897687 0.600000
v -1.999019 0.895147 0.600000
v -1.999687 0.892605 0.600000
v -2.000354 0.890062 0.600000
v -2.001019 0.887517 0.600000
v -2.001682 0.884971 0.600000
v -2.002344 0.882422 0.600000
v -2.003004 0.879872 0.600000
v -2.007016 0.864208 0.600000
v -2.010955 0.848526 0.600000
v -2.014821 0.832825 0.600000
v -2.018615 0.817107 0.600000
v -2.022337 0.801372 0.600000
v -2.025985 0.785619 0.600000
v -2.029562 0.769850 0.600000
v -2.033065 0.754065 0.600000
v -2.036496 0.738263 0.600000
v -2.039853 0.722446 0.600000
v -2.043138 0.706614 0.600000
v -2.046351 0.690767 0.600000
v -2.049490 0.674905 0.600000
v -2.052556 0.659029 0.600000
v -2.055549 0.643139 0.600000
v -2.058469 0.627235 0.600000
v -2.061316 0.611318 0.600000
v -2.064090 0.595388 0.600000
v -2.066791 0.579446 0.600000
v -2.069419 0.563491 0.600000
v -2.071973 0.547525 0.600000
v -2.074454 0.531547 0.600000
v -2.076861 0.515557 0.600000
v -2.079195 0.499557 0.600000
v -2.081456 0.483546 0.600000
v -2.083643 0.467525 0.600000
v -2.085757 0.451494 0.600000
v -2.087797 0.435454 0.600000
v -2.089764 0.419404 0.600000
v -2.091657 0.403346 0.600000
v -2.093476 0.387279 0.600000
v -2.095221 0.371204 0.600000
v -2.096893 0.355121 0.600000
v -2.098491 0.339031 0.600000
v -2.100015 0.322933 0.600000
v -2.101465 0.306829 0.600000
v -2.102841 0.290718 0.600000
v -2.104143 0.274601 0.600000
v -2.105371 0.258478 0.600000
v -2.106525 0.242350 0.600000
v -2.107604 0.226216 0.600000
v -2.108610 0.210078 0.600000
v -2.109541 0.193935 0.600000
v -2.110398 0.177789 0.600000
v -2.111181 0.161638 0.600000
v -2.111890 0.145484 0.600000
v -2.112524 0.129327 0.600000
v -2.113083 0.113167 0.600000
v -2.113568 0.097005 0.600000
v -2.113979 0.080841 0.600000
v -2.114315 0.064675 0.600000
v -2.114577 0.048507 0.600000
v -2.114763 0.032339 0.600000
v -2.114876 0.016170 0.600000
v -2.114913 0.000000 0.600000
v -2.165000 0.000000 0.600000
v -2.164967 0.015288 0.600000
v -2.164869 0.030575 0.600000
v -2.164705 0.045862 0.600000
v -2.164476 0.061148 0.600000
v -2.164181 0.076433 0.600000
v -2.163820 0.091717 0.600000
v -2.163394 0.106999 0.600000
v -2.162902 0.122279 0.600000
v -2.162345 0.137557 0.600000
v -2.161723 0.152832 0.600000
v -2.161034 0.168104 0.600000
v -2.160281 0.183373 0.600000
v -2.159462 0.198639 0.600000
v -2.158577 0.213902 0.600000
v -2.157627 0.229160 0.600000
v -2.156612 0.244414 0.600000
v -2.155531 0.259664 0.600000
v -2.154385 0.274908 0.600000
v -2.153173 0.290148 0.600000
v -2.151896 0.305383 0.600000
v -2.150554 0.320611 0.600000
v -2.149146 0.335834 0.600000
v -2.147674 0.351051 0.600000
v -2.146136 0.366261 0.600000
v -2.144532 0.381465 0.600000
v -2.142864 0.396661 0.600000
v -2.141130 0.411851 0.600000
v -2.139332 0.427032 0.600000
v -2.137468 0.442206 0.600000
v -2.135539 0.457372 0.600000
v -2.133545 0.472529 0.600000
v -2.131486 0.487678 0.600000
v -2.129363 0.502817 0.600000
v -2.127174 0.517948 0.600000
v -2.124920 0.533068 0.600000
v -2.122602 0.548180 0.600000
v -2.120219 0.563280 0.600000
v -2.117771 0.578371 0.600000
v -2.115258 0.593451 0.600000
v -2.112681 0.608520 0.600000
v -2.110039 0.623578 0.600000
v -2.107333 0.638624 0.600000
v -2.104562 0.653659 0.600000
v -2.101727 0.668682 0.600000
v -2.098827 0.683692 0.600000
v -2.095863 0.698690 0.600000
v -2.092835 0.713675 0.600000
v -2.089742 0.728646 0.600000
v -2.086585 0.743605 0.600000
v -2.083364 0.758550 0.600000
v -2.080079 0.773480 0.600000
v -2.076731 0.788397 0.600000
v -2.073318 0.803299 0.600000
v -2.069841 0.818186 0.600000
v -2.066300 0.833058 0.600000
v -2.062696 0.847915 0.600000
v -2.059028 0.862757 0.600000
v -2.055297 0.877582 0.600000
v -2.051502 0.892391 0.600000
v -2.050886 0.894767 0.600000
v -2.050269 0.897143 0.600000
v -2.049651 0.899519 0.600000
v -2.049031 0.901893 0.600000
v -2.048409 0.904268 0.600000
v -2.047786 0.906642 0.600000
v -2.047161 0.909016 0.600000
v -2.046534 0.911389 0.600000
v -2.045906 0.913761 0.600000
v -2.045276 0.916134 0.600000
v -2.044644 0.918506 0.600000
v -2.044011 0.920877 0.600000
v -2.043376 0.923248 0.600000
v -2.042739 0.925619 0.600000
v -2.042101 0.927989 0.600000
v -2.041462 0.930358 0.600000
v -2.040820 0.932728 0.600000
v -2.040177 0.935097 0.600000
v -2.039533 0.937465 0.600000
v -2.038886 0.939833 0.600000
v -2.038238 0.942200 0.600000
v -2.037589 0.944567 0.600000
v -2.036938 0.946934 0.600000
v -2.036285 0.949300 0.600000
v -2.035631 0.951666 0.600000
v -2.034975 0.954031 0.600000
v -2.034317 0.956396 0.600000
v -2.033658 0.958760 0.600000
v -2.032997 0.961124 0.600000
v -2.032334 0.963487 0.600000
v -2.031670 0.965850 0.600000
v -2.031004 0.968213 0.600000
v -2.030337 0.970575 0.600000
v -2.029668 0.972936 0.600000
v -2.028997 0.975297 0.600000
v -2.028325 0.977658 0.600000
v -2.027651 0.980018 0.600000
v -2.026975 0.982378 0.600000
v -2.026298 0.984737 0.600000
v -2.025619 0.987096 0.600000
v -2.024939 0.989454 0.600000
v -2.024257 0.991812 0.600000
v -2.023573 0.994170 0.600000
v -2.022888 0.996527 0.600000
v -2.022201 0.998883 0.600000
v -2.021512 1.001239 0.600000
v -2.020822 1.003594 0.600000
v -2.020130 1.005949 0.600000
v -2.019437 1.008304 0.600000
v -2.018742 1.010658 0.600000
v -2.018045 1.013012 0.600000
v -2.017347 1.015365 0.600000
v -2.016647 1.017717 0.600000
v -2.015945 1.020070 0.600000
v -2.015242 1.022421 0.600000
v -2.014538 1.024772 0.600000
v -2.013831 1.027123 0.600000
v -2.013123 1.029473 0.600000
v -2.012414 1.031823 0.600000
v -2.008938 1.042858 0.600000
v -2.005230 1.053751 0.600000
v -2.001290 1.064504 0.600000
v -1.997119 1.075119 0.600000
v -1.992717 1.085600 0.600000
v -1.988086 1.095949 0.600000
v -1.983227 1.106168 0.600000
v -1.978141 1.116257 0.600000
v -1.972831 1.126212 0.600000
v -1.967301 1.136029 0.600000
v -1.961554 1.145701 0.600000
v -1.955595 1.155223 0.600000
v -1.949426 1.164589 0.600000
v -1.943050 1.173795 0.600000
v -1.936472 1.182836 0.600000
v -1.929695 1.191709 0.600000
v -1.922722 1.200409 0.600000
v -1.915557 1.208935 0.600000
v -1.908202 1.217282 0.600000
v -1.900663 1.225448 0.600000
v -1.892941 1.233430 0.600000
v -1.885041 1.241224 0.600000
v -1.876966 1.248827 0.600000
v -1.868720 1.256236 0.600000
v -1.860306 1.263448 0.600000
v -1.851729 1.270459 0.600000
v -1.842992 1.277268 0.600000
v -1.834099 1.283869 0.600000
v -1.825054 1.290262 0.600000
v -1.815860 1.296443 0.600000
v -1.806522 1.302409 0.600000
v -1.797044 1.308157 0.600000
v -1.787429 1.313686 0.600000
v -1.777683 1.318992 0.600000
v -1.767809 1.324073 0.600000
v -1.757811 1.328927 0.600000
v -1.747692 1.333550 0.600000
v -1.737458 1.337941 0.600000
v -1.727113 1.342097 0.600000
v -1.716659 1.346017 0.600000
v -1.706101 1.349696 0.600000
v -1.695445 1.353134 0.600000
v -1.684693 1.356328 0.600000
v -1.673854 1.359277 0.600000
v -1.662933 1.361978 0.600000
v -1.651937 1.364430 0.600000
v -1.640870 1.366631 0.600000
v -1.629741 1.368580 0.600000
v -1.618552 1.370274 0.600000
v -1.607306 1.371711 0.600000
v -1.595999 1.372891 0.600000
v -1.584629 1.373811 0.600000
v -1.573195 1.374471 0.600000
v -1.561694 1.374867 0.600000
v -1.550124 1.375000 0.600000
v -1.428260 1.375000 0.600000
v -0.907865 1.374999 0.600000
v -0.906715 1.375012 0.600000
v -0.905573 1.375050 0.600000
v -0.904440 1.375113 0.600000
v -0.903315 1.375202 0.600000
v -0.902197 1.375315 0.600000
v -0.901087 1.375453 0.600000
v -0.899984 1.375615 0.600000
v -0.898888 1.375803 0.600000
v -0.897799 1.376015 0.600000
v -0.896717 1.376251 0.600000
v -0.895641 1.376511 0.600000
v -0.894571 1.376796 0.600000
v -0.893507 1.377105 0.600000
v -0.892449 1.377438 0.600000
v -0.891396 1.377794 0.600000
v -0.890350 1.378174 0.600000
v -0.889311 1.378578 0.600000
v -0.888279 1.379005 0.600000
v -0.887256 1.379454 0.600000
v -0.886242 1.379927 0.600000
v -0.885238 1.380423 0.600000
v -0.884244 1.380941 0.600000
v -0.883261 1.381481 0.600000
v -0.882290 1.382043 0.600000
v -0.881331 1.382627 0.600000
v -0.880386 1.383233 0.600000
v -0.879454 1.383861 0.600000
v -0.878537 1.384510 0.600000
v -0.877634 1.385180 0.600000
v -0.876747 1.385870 0.600000
v -0.875876 1.386580 0.600000
v -0.875022 1.387309 0.600000
v -0.874184 1.388057 0.600000
v -0.873364 1.388823 0.600000
v -0.872561 1.389606 0.600000
v -0.871776 1.390405 0.600000
v -0.871010 1.391221 0.600000
v -0.870263 1.392053 0.600000
v -0.869536 1.392899 0.600000
v -0.868828 1.393760 0.600000
v -0.868141 1.394635 0.600000
v -0.867474 1.395522 0.600000
v -0.866829 1.396423 0.600000
v -0.866205 1.397337 0.600000
v -0.865601 1.398264 0.600000
v -0.865019 1.399205 0.600000
v -0.864458 1.400159 0.600000
v -0.863918 1.401128 0.600000
v -0.863399 1.402110 0.600000
v -0.862901 1.403105 0.600000
v -0.862425 1.404116 0.600000
v -0.861970 1.405140 0.600000
v -0.861536 1.406179 0.600000
v -0.861124 1.407232 0.600000
v -0.860732 1.408300 0.600000
v -0.857223 1.417587 0.600000
v -0.853364 1.426734 0.600000
v -0.849145 1.435720 0.600000
v -0.844572 1.444532 0.600000
v -0.839653 1.453156 0.600000
v -0.834396 1.461577 0.600000
v -0.828808 1.469783 0.600000
v -0.822899 1.477761 0.600000
v -0.816678 1.485498 0.600000
v -0.810154 1.492982 0.600000
v -0.803339 1.500200 0.600000
v -0.796242 1.507143 0.600000
v -0.788876 1.513798 0.600000
v -0.781251 1.520156 0.600000
v -0.773379 1.526206 0.600000
v -0.765273 1.531938 0.600000
v -0.756947 1.537344 0.600000
v -0.748412 1.542415 0.600000
v -0.739682 1.547144 0.600000
v -0.730772 1.551522 0.600000
v -0.721695 1.555543 0.600000
v -0.712466 1.559200 0.600000
v -0.703098 1.562488 0.600000
v -0.693607 1.565402 0.600000
v -0.684009 1.567936 0.600000
v -0.674317 1.570087 0.600000
v -0.664547 1.571852 0.600000
v -0.654715 1.573228 0.600000
v -0.644836 1.574212 0.600000
v -0.634926 1.574803 0.600000
v -0.625000 1.575000 0.600000
v 0.275000 1.575000 0.600000
v 0.287662 1.574679 0.600000
v 0.300292 1.573717 0.600000
v 0.312857 1.572117 0.600000
v 0.325325 1.569882 0.600000
v 0.337663 1.567019 0.600000
v 0.349841 1.563535 0.600000
v 0.361826 1.559438 0.600000
v 0.373589 1.554739 0.600000
v 0.385099 1.549451 0.600000
v 0.396325 1.543587 0.600000
v 0.407241 1.537161 0.600000
v 0.417817 1.530191 0.600000
v 0.428026 1.522694 0.600000
v 0.437843 1.514690 0.600000
v 0.447242 1.506198 0.600000
v 0.456198 1.497242 0.600000
v 0.464690 1.487843 0.600000
v 0.472694 1.478026 0.600000
v 0.480191 1.467817 0.600000
v 0.487161 1.457241 0.600000
v 0.493587 1.446325 0.600000
v 0.499451 1.435099 0.600000
v 0.504739 1.423589 0.600000
v 0.509438 1.411826 0.600000
v 0.513535 1.399841 0.600000
v 0.517019 1.387663 0.600000
v 0.519882 1.375325 0.600000
v 0.522117 1.362857 0.600000
v 0.523717 1.350292 0.600000
v 0.524679 1.337662 0.600000
v 0.525000 1.325000 0.600000
v 0.525000 1.303926 0.600000
v 0.525011 1.302828 0.600000
v 0.525044 1.301738 0.600000
v 0.525099 1.300658 0.600000
v 0.525176 1.299586 0.600000
v 0.525275 1.298524 0.600000
v 0.525396 1.297470 0.600000
v 0.525539 1.296424 0.600000
v 0.525703 1.295386 0.600000
v 0.525889 1.294356 0.600000
v 0.526097 1.293334 0.600000
v 0.526327 1.292319 0.600000
v 0.526578 1.291312 0.600000
v 0.526851 1.290311 0.600000
v 0.527146 1.289317 0.600000
v 0.527462 1.288330 0.600000
v 0.527800 1.287349 0.600000
v 0.528159 1.286375 0.600000
v 0.528539 1.285406 0.600000
v 0.528941 1.284443 0.600000
v 0.529364 1.283486 0.600000
v 0.529808 1.282536 0.600000
v 0.530272 1.281593 0.600000
v 0.530756 1.280658 0.600000
v 0.531259 1.279732 0.600000
v 0.531782 1.278815 0.600000
v 0.532322 1.277908 0.600000
v 0.532881 1.277011 0.600000
v 0.533458 1.276126 0.600000
v 0.534052 1.275253 0.600000
v 0.534663 1.274392 0.600000
v 0.535291 1.273544 0.600000
v 0.535934 1.272710 0.600000
v 0.536593 1.271890 0.600000
v 0.537268 1.271086 0.600000
v 0.537957 1.270297 0.600000
v 0.538661 1.269524 0.600000
v 0.539378 1.268768 0.600000
v 0.540109 1.268030 0.600000
v 0.540855 1.267309 0.600000
v 0.541614 1.266605 0.600000
v 0.542388 1.265919 0.600000
v 0.543177 1.265249 0.600000
v 0.543980 1.264597 0.600000
v 0.544798 1.263962 0.600000
v 0.545631 1.263343 0.600000
v 0.546480 1.262742 0.600000
v 0.547345 1.262158 0.600000
v 0.548225 1.261590 0.600000
v 0.549122 1.261039 0.600000
v 0.550034 1.260504 0.600000
v 0.550964 1.259987 0.600000
v 0.551910 1.259485 0.600000
v 0.552872 1.259001 0.600000
v 0.553852 1.258533 0.600000
f 842 1 2
f 842 2 3
f 842 3 4
f 842 4 5
f 842 5 6
f 842 6 7
f 842 7 8
f 842 8 9
f 842 9 10
f 842 10 11
f 842 11 12
f 842 12 13
f 842 13 14
f 842 14 15
f 842 15 16
f 842 16 17
f 842 17 18
f 842 18 19
f 842 19 20
f 842 20 21
f 21 22 23
f 21 23 24
f 21 24 25
f 21 25 26
f 21 26 27
f 21 27 28
f 21 28 29
f 21 29 30
f 21 30 31
f 21 31 32
f 21 32 33
f 21 33 34
f 21 34 35
f 21 35 36
f 21 36 37
f 21 37 38
f 21 38 39
f 21 39 40
f 40 41 42
f 40 42 43
f 40 43 44
f 40 44 45
f 40 45 46
f 40 46 47
f 40 47 48
f 40 48 49
f 40 49 50
f 40 50 51
f 40 51 52
f 40 52 53
f 40 53 54
f 40 54 55
f 40 55 56
f 40 56 57
f 40 57 58
f 40 58 59
f 40 59 60
f 21 40 60
f 21 60 61
f 21 61 62
f 21 62 63
f 21 63 64
f 21 64 65
f 21 65 66
f 21 66 67
f 21 67 68
f 21 68 69
f 21 69 70
f 21 70 71
f 21 71 72
f 21 72 73
f 21 73 74
f 21 74 75
f 21 75 76
f 21 76 77
f 21 77 78
f 21 78 79
f 21 79 80
f 21 80 81
f 21 81 82
f 21 82 83
f 21 83 84
f 21 84 85
f 842 21 85
f 842 85 86
f 842 86 87
f 842 87 88
f 842 88 89
f 842 89 90
f 842 90 91
f 842 91 92
f 842 92 93
f 842 93 94
f 842 94 95
f 842 95 96
f 842 96 97
f 842 97 98
f 842 98 99
f 842 99 100
f 842 100 101
f 842 101 102
f 842 102 103
f 842 103 104
f 842 104 105
f 842 105 106
f 842 106 107
f 842 107 108
f 842 108 109
f 842 109 110
f 842 110 111
f 842 111 112
f 842 112 113
f 842 113 114
f 842 114 115
f 842 115 116
f 842 116 117
f 842 117 118
f 842 118 119
f 842 119 120
f 842 120 121
f 842 121 122
f 842 122 123
f 842 123 124
f 842 124 125
f 842 125 126
f 842 126 127
f 842 127 128
f 842 128 129
f 842 129 130
f 842 130 131
f 842 131 132
f 842 132 133
f 842 133 134
f 842 134 135
f 842 135 136
f 842 136 137
f 842 137 138
f 842 138 139
f 842 139 140
f 842 140 141
f 842 141 142
f 842 142 143
f 842 143 144
f 842 144 145
f 842 145 146
f 842 146 147
f 842 147 148
f 842 148 149
f 149 150 151
f 149 151 152
f 149 152 153
f 149 153 154
f 217 218 219
f 216 217 219
f 216 219 220
f 216 220 221
f 216 221 222
f 216 222 223
f 216 223 224
f 216 224 225
f 215 216 225
f 215 225 226
f 215 226 227
f 215 227 228
f 215 228 229
f 215 229 230
f 214 215 230
f 214 230 231
f 214 231 232
f 214 232 233
f 214 233 234
f 213 214 234
f 213 234 235
f 213 235 236
f 213 236 237
f 213 237 238
f 213 238 239
f 212 213 239
f 212 239 240
f 212 240 241
f 212 241 242
f 212 242 243
f 212 243 244
f 211 212 244
f 211 244 245
f 211 245 246
f 211 246 247
f 211 247 248
f 211 248 249
f 210 211 249
f 210 249 250
f 210 250 251
f 210 251 252
f 210 252 253
f 210 253 254
f 209 210 254
f 209 254 255
f 209 255 256
f 209 256 257
f 209 257 258
f 209 258 259
f 208 209 259
f 208 259 260
f 208 260 261
f 208 261 262
f 208 262 263
f 208 263 264
f 207 208 264
f 207 264 265
f 207 265 266
f 207 266 267
f 207 267 268
f 207 268 269
f 206 207 269
f 206 269 270
f 206 270 271
f 206 271 272
f 272 273 274
f 272 274 275
f 272 275 276
f 272 276 277
f 272 277 278
f 272 278 279
f 272 279 280
f 272 280 281
f 272 281 282
f 272 282 283
f 272 283 284
f 272 284 285
f 272 285 286
f 272 286 287
f 272 287 288
f 272 288 289
f 272 289 290
f 272 290 291
f 272 291 292
f 272 292 293
f 272 293 294
f 272 294 295
f 272 295 296
f 272 296 297
f 272 297 298
f 272 298 299
f 272 299 300
f 272 300 301
f 272 301 302
f 272 302 303
f 272 303 304
f 272 304 305
f 272 305 306
f 272 306 307
f 272 307 308
f 272 308 309
f 272 309 310
f 272 310 311
f 272 311 312
f 272 312 313
f 272 313 314
f 272 314 315
f 272 315 316
f 272 316 317
f 272 317 318
f 272 318 319
f 272 319 320
f 272 320 321
f 272 321 322
f 272 322 323
f 272 323 324
f 272 324 325
f 272 325 326
f 272 326 327
f 272 327 328
f 492 493 494
f 491 492 494
f 490 491 494
f 489 490 494
f 488 489 494
f 487 488 494
f 486 487 494
f 485 486 494
f 484 485 494
f 483 484 494
f 482 483 494
f 481 482 494
f 480 481 494
f 479 480 494
f 478 479 494
f 477 478 494
f 476 477 494
f 475 476 494
f 474 475 494
f 473 474 494
f 472 473 494
f 471 472 494
f 470 471 494
f 469 470 494
f 468 469 494
f 467 468 494
f 466 467 494
f 465 466 494
f 464 465 494
f 463 464 494
f 462 463 494
f 461 462 494
f 460 461 494
f 459 460 494
f 458 459 494
f 457 458 494
f 456 457 494
f 456 494 495
f 456 495 496
f 455 456 496
f 455 496 497
f 454 455 497
f 454 497 498
f 453 454 498
f 453 498 499
f 452 453 499
f 452 499 500
f 451 452 500
f 451 500 501
f 450 451 501
f 450 501 502
f 449 450 502
f 449 502 503
f 448 449 503
f 448 503 504
f 447 448 504
f 447 504 505
f 446 447 505
f 446 505 506
f 445 446 506
f 445 506 507
f 444 445 507
f 444 507 508
f 443 444 508
f 443 508 509
f 443 509 510
f 442 443 510
f 442 510 511
f 441 442 511
f 441 511 512
f 440 441 512
f 440 512 513
f 439 440 513
f 439 513 514
f 438 439 514
f 437 438 514
f 437 514 515
f 436 437 515
f 435 436 515
f 434 435 515
f 433 434 515
f 432 433 515
f 431 432 515
f 431 515 516
f 430 431 516
f 429 430 516
f 428 429 516
f 427 428 516
f 426 427 516
f 425 426 516
f 425 516 517
f 424 425 517
f 423 424 517
f 422 423 517
f 421 422 517
f 420 421 517
f 420 517 518
f 419 420 518
f 418 419 518
f 417 418 518
f 416 417 518
f 415 416 518
f 414 415 518
f 414 518 519
f 413 414 519
f 412 413 519
f 411 412 519
f 410 411 519
f 409 410 519
f 408 409 519
f 408 519 520
f 407 408 520
f 406 407 520
f 405 406 520
f 404 405 520
f 403 404 520
f 402 403 520
f 402 520 521
f 401 402 521
f 400 401 521
f 399 400 521
f 398 399 521
f 397 398 521
f 396 397 521
f 396 521 522
f 395 396 522
f 394 395 522
f 393 394 522
f 392 393 522
f 391 392 522
f 390 391 522
f 390 522 523
f 389 390 523
f 388 389 523
f 387 388 523
f 386 387 523
f 385 386 523
f 384 385 523
f 384 523 524
f 383 384 524
f 383 524 525
f 383 525 526
f 382 383 526
f 382 526 527
f 382 527 528
f 382 528 529
f 382 529 530
f 382 530 531
f 381 382 531
f 381 531 532
f 381 532 533
f 381 533 534
f 381 534 535
f 380 381 535
f 380 535 536
f 380 536 537
f 380 537 538
f 380 538 539
f 379 380 539
f 379 539 540
f 379 540 541
f 379 541 542
f 378 379 542
f 378 542 543
f 378 543 544
f 378 544 545
f 377 378 545
f 377 545 546
f 377 546 547
f 376 377 547
f 376 547 548
f 376 548 549
f 375 376 549
f 375 549 550
f 375 550 551
f 374 375 551
f 374 551 552
f 374 552 553
f 373 374 553
f 373 553 554
f 373 554 555
f 373 555 556
f 373 556 557
f 372 373 557
f 372 557 558
f 372 558 559
f 372 559 560
f 372 560 561
f 372 561 562
f 372 562 563
f 372 563 564
f 372 564 565
f 371 372 565
f 371 565 566
f 371 566 567
f 371 567 568
f 371 568 569
f 371 569 570
f 371 570 571
f 371 571 572
f 370 371 572
f 370 572 573
f 370 573 574
f 370 574 575
f 370 575 576
f 370 576 577
f 370 577 578
f 370 578 579
f 369 370 579
f 369 579 580
f 369 580 581
f 369 581 582
f 369 582 583
f 369 583 584
f 369 584 585
f 368 369 585
f 368 585 586
f 368 586 587
f 368 587 588
f 368 588 589
f 368 589 590
f 368 590 591
f 367 368 591
f 367 591 592
f 367 592 593
f 367 593 594
f 367 594 595
f 367 595 596
f 367 596 597
f 366 367 597
f 366 597 598
f 366 598 599
f 366 599 600
f 366 600 601
f 366 601 602
f 365 366 602
f 365 602 603
f 365 603 604
f 365 604 605
f 365 605 606
f 365 606 607
f 364 365 607
f 364 607 608
f 364 608 609
f 364 609 610
f 364 610 611
f 364 611 612
f 363 364 612
f 363 612 613
f 362 363 613
f 362 613 614
f 361 362 614
f 361 614 615
f 360 361 615
f 360 615 616
f 359 360 616
f 359 616 617
f 358 359 617
f 358 617 618
f 357 358 618
f 357 618 619
f 356 357 619
f 356 619 620
f 355 356 620
f 355 620 621
f 354 355 621
f 354 621 622
f 353 354 622
f 353 622 623
f 352 353 623
f 352 623 624
f 351 352 624
f 351 624 625
f 350 351 625
f 350 625 626
f 349 350 626
f 349 626 627
f 348 349 627
f 348 627 628
f 347 348 628
f 347 628 629
f 346 347 629
f 346 629 630
f 345 346 630
f 345 630 631
f 344 345 631
f 344 631 632
f 343 344 632
f 343 632 633
f 342 343 633
f 342 633 634
f 341 342 634
f 341 634 635
f 340 341 635
f 340 635 636
f 339 340 636
f 339 636 637
f 338 339 637
f 338 637 638
f 337 338 638
f 337 638 639
f 336 337 639
f 336 639 640
f 335 336 640
f 335 640 641
f 334 335 641
f 334 641 642
f 333 334 642
f 333 642 643
f 332 333 643
f 332 643 644
f 331 332 644
f 331 644 645
f 330 331 645
f 330 645 646
f 329 330 646
f 329 646 647
f 328 329 647
f 328 647 648
f 272 328 648
f 272 648 649
f 272 649 650
f 272 650 651
f 272 651 652
f 272 652 653
f 272 653 654
f 272 654 655
f 272 655 656
f 272 656 657
f 272 657 658
f 272 658 659
f 272 659 660
f 272 660 661
f 272 661 662
f 272 662 663
f 272 663 664
f 272 664 665
f 272 665 666
f 272 666 667
f 272 667 668
f 272 668 669
f 272 669 670
f 272 670 671
f 272 671 672
f 272 672 673
f 272 673 674
f 272 674 675
f 272 675 676
f 272 676 677
f 272 677 678
f 272 678 679
f 272 679 680
f 272 680 681
f 272 681 682
f 272 682 683
f 272 683 684
f 272 684 685
f 272 685 686
f 272 686 687
f 272 687 688
f 272 688 689
f 272 689 690
f 272 690 691
f 272 691 692
f 272 692 693
f 272 693 694
f 272 694 695
f 272 695 696
f 272 696 697
f 206 272 697
f 205 206 697
f 205 697 698
f 204 205 698
f 203 204 698
f 202 203 698
f 202 698 699
f 202 699 700
f 202 700 701
f 202 701 702
f 202 702 703
f 202 703 704
f 202 704 705
f 202 705 706
f 202 706 707
f 202 707 708
f 202 708 709
f 202 709 710
f 202 710 711
f 202 711 712
f 202 712 713
f 202 713 714
f 202 714 715
f 202 715 716
f 202 716 717
f 201 202 717
f 201 717 718
f 201 718 719
f 201 719 720
f 201 720 721
f 201 721 722
f 201 722 723
f 201 723 724
f 201 724 725
f 200 201 725
f 200 725 726
f 199 200 726
f 199 726 727
f 198 199 727
f 198 727 728
f 197 198 728
f 197 728 729
f 196 197 729
f 196 729 730
f 195 196 730
f 195 730 731
f 194 195 731
f 194 731 732
f 193 194 732
f 193 732 733
f 192 193 733
f 192 733 734
f 191 192 734
f 191 734 735
f 190 191 735
f 190 735 736
f 189 190 736
f 189 736 737
f 188 189 737
f 188 737 738
f 187 188 738
f 187 738 739
f 186 187 739
f 185 186 739
f 185 739 740
f 185 740 741
f 185 741 742
f 185 742 743
f 185 743 744
f 184 185 744
f 184 744 745
f 184 745 746
f 184 746 747
f 184 747 748
f 184 748 749
f 184 749 750
f 184 750 751
f 184 751 752
f 184 752 753
f 184 753 754
f 184 754 755
f 184 755 756
f 183 184 756
f 182 183 756
f 181 182 756
f 180 181 756
f 179 180 756
f 178 179 756
f 177 178 756
f 176 177 756
f 175 176 756
f 174 175 756
f 173 174 756
f 172 173 756
f 172 756 757
f 171 172 757
f 171 757 758
f 170 171 758
f 170 758 759
f 169 170 759
f 169 759 760
f 168 169 760
f 168 760 761
f 167 168 761
f 167 761 762
f 166 167 762
f 166 762 763
f 165 166 763
f 165 763 764
f 164 165 764
f 164 764 765
f 163 164 765
f 163 765 766
f 162 163 766
f 162 766 767
f 161 162 767
f 161 767 768
f 160 161 768
f 160 768 769
f 159 160 769
f 159 769 770
f 158 159 770
f 158 770 771
f 157 158 771
f 157 771 772
f 156 157 772
f 156 772 773
f 155 156 773
f 155 773 774
f 154 155 774
f 154 774 775
f 149 154 775
f 149 775 776
f 149 776 777
f 149 777 778
f 149 778 779
f 149 779 780
f 149 780 781
f 149 781 782
f 149 782 783
f 149 783 784
f 149 784 785
f 149 785 786
f 149 786 787
f 149 787 788
f 149 788 789
f 149 789 790
f 149 790 791
f 149 791 792
f 149 792 793
f 149 793 794
f 149 794 795
f 149 795 796
f 149 796 797
f 149 797 798
f 149 798 799
f 149 799 800
f 149 800 801
f 149 801 802
f 149 802 803
f 149 803 804
f 149 804 805
f 149 805 806
f 149 806 807
f 149 807 808
f 149 808 809
f 149 809 810
f 149 810 811
f 149 811 812
f 149 812 813
f 149 813 814
f 149 814 815
f 149 815 816
f 149 816 817
f 149 817 818
f 149 818 819
f 149 819 820
f 149 820 821
f 149 821 822
f 149 822 823
f 149 823 824
f 149 824 825
f 149 825 826
f 149 826 827
f 149 827 828
f 149 828 829
f 149 829 830
f 149 830 831
f 149 831 832
f 149 832 833
f 149 833 834
f 149 834 835
f 149 835 836
f 149 836 837
f 149 837 838
f 149 838 839
f 149 839 840
f 149 840 841
f 149 841 842
