v 0.691229 0.220000 0.228190
v 0.647385 0.220000 0.197490
v 0.643516 0.220000 0.186514
v 0.643516 0.010000 0.186514
v 0.647385 0.016837 0.197490
v 0.647277 0.016713 0.197414
v 0.647170 0.016588 0.197339
v 0.647062 0.016463 0.197264
v 0.646955 0.016338 0.197188
v 0.646847 0.016214 0.197113
v 0.646740 0.016089 0.197038
v 0.646632 0.015964 0.196963
v 0.646525 0.015839 0.196888
v 0.646417 0.015715 0.196812
v 0.646310 0.015590 0.196737
v 0.646202 0.015465 0.196662
v 0.646095 0.015341 0.196587
v 0.645988 0.015216 0.196512
v 0.645880 0.015092 0.196436
v 0.645773 0.014967 0.196361
v 0.645666 0.014842 0.196286
v 0.645558 0.014718 0.196211
v 0.645451 0.014593 0.196136
v 0.645344 0.014469 0.196061
v 0.645237 0.014344 0.195986
v 0.645129 0.014220 0.195910
v 0.645022 0.014096 0.195835
v 0.644915 0.013971 0.195760
v 0.644808 0.013847 0.195685
v 0.644700 0.013722 0.195610
v 0.644593 0.013598 0.195535
v 0.644486 0.013474 0.195460
v 0.644379 0.013349 0.195385
v 0.644272 0.013225 0.195310
v 0.644165 0.013101 0.195235
v 0.644057 0.012977 0.195160
v 0.643950 0.012852 0.195085
v 0.643843 0.012728 0.195010
v 0.643736 0.012604 0.194935
v 0.643629 0.012480 0.194860
v 0.643522 0.012356 0.194785
v 0.643415 0.012231 0.194710
v 0.643308 0.012107 0.194635
v 0.643201 0.011983 0.194560
v 0.643094 0.011859 0.194485
v 0.642987 0.011735 0.194411
v 0.642880 0.011611 0.194336
v 0.642773 0.011487 0.194261
v 0.642666 0.011363 0.194186
v 0.642559 0.011239 0.194111
v 0.642453 0.011115 0.194036
v 0.642346 0.010991 0.193961
v 0.642239 0.010867 0.193886
v 0.642132 0.010743 0.193812
v 0.642025 0.010619 0.193737
v 0.641918 0.010495 0.193662
v 0.641811 0.010371 0.193587
v 0.641705 0.010248 0.193512
v 0.641598 0.010124 0.193438
v 0.641491 0.010000 0.193363
v 0.641491 0.000000 0.193363
v 0.691229 0.000000 0.228190
v 0.694890 0.000000 0.239801
v 0.694890 0.220000 0.239801
f 2 3 4
f 1 2 4
f 64 1 4
f 64 4 5
f 59 60 61
f 58 59 61
f 57 58 61
f 56 57 61
f 55 56 61
f 54 55 61
f 53 54 61
f 52 53 61
f 51 52 61
f 50 51 61
f 49 50 61
f 48 49 61
f 47 48 61
f 46 47 61
f 45 46 61
f 44 45 61
f 43 44 61
f 42 43 61
f 41 42 61
f 40 41 61
f 39 40 61
f 38 39 61
f 37 38 61
f 36 37 61
f 35 36 61
f 34 35 61
f 33 34 61
f 32 33 61
f 31 32 61
f 30 31 61
f 29 30 61
f 28 29 61
f 27 28 61
f 26 27 61
f 25 26 61
f 24 25 61
f 23 24 61
f 22 23 61
f 21 22 61
f 20 21 61
f 19 20 61
f 18 19 61
f 17 18 61
f 16 17 61
f 15 16 61
f 14 15 61
f 13 14 61
f 12 13 61
f 11 12 61
f 10 11 61
f 9 10 61
f 8 9 61
f 7 8 61
f 6 7 61
f 5 6 61
f 5 61 62
f 64 5 62
f 62 63 64
