v 0.302266 0.603540 -0.825000
v 0.293258 0.607968 -0.825000
v 0.284186 0.612261 -0.825000
v 0.275051 0.616419 -0.825000
v 0.265855 0.620440 -0.825000
v 0.256600 0.624325 -0.825000
v 0.247289 0.628071 -0.825000
v 0.237923 0.631679 -0.825000
v 0.228504 0.635146 -0.825000
v 0.219035 0.638474 -0.825000
v 0.209517 0.641660 -0.825000
v 0.199953 0.644704 -0.825000
v 0.190345 0.647606 -0.825000
v 0.180695 0.650365 -0.825000
v 0.171004 0.652980 -0.825000
v 0.161276 0.655450 -0.825000
v 0.302266 0.603540 -0.036213
v 0.293258 0.607968 -0.036213
v 0.284186 0.612261 -0.036213
v 0.275051 0.616419 -0.036213
v 0.265855 0.620440 -0.036213
v 0.256600 0.624325 -0.036213
v 0.247289 0.628071 -0.036213
v 0.237923 0.631679 -0.036213
v 0.228504 0.635146 -0.036213
v 0.219035 0.638474 -0.036213
v 0.209517 0.641660 -0.036213
v 0.199953 0.644704 -0.036213
v 0.190345 0.647606 -0.036213
v 0.180695 0.650365 -0.036213
v 0.171004 0.652980 -0.036213
v 0.161276 0.655450 -0.036213
f 1 2 18
f 1 18 17
f 2 3 19
f 2 19 18
f 3 4 20
f 3 20 19
f 4 5 21
f 4 21 20
f 5 6 22
f 5 22 21
f 6 7 23
f 6 23 22
f 7 8 24
f 7 24 23
f 8 9 25
f 8 25 24
f 9 10 26
f 9 26 25
f 10 11 27
f 10 27 26
f 11 12 28
f 11 28 27
f 12 13 29
f 12 29 28
f 13 14 30
f 13 30 29
f 14 15 31
f 14 31 30
f 15 16 32
f 15 32 31
