v 0.009942 0.494900 -1.051000
v 0.011381 0.494869 -1.051103
v 0.012788 0.494835 -1.051408
v 0.014135 0.494798 -1.051909
v 0.015395 0.494761 -1.052596
v 0.016543 0.494723 -1.053453
v 0.017556 0.494689 -1.054463
v 0.018412 0.494657 -1.055605
v 0.019097 0.494631 -1.056856
v 0.019595 0.494612 -1.058190
v 0.019898 0.494600 -1.059581
v 0.020000 0.494596 -1.061000
v 0.029105 0.629327 -1.051000
v 0.030536 0.629259 -1.051103
v 0.031937 0.629190 -1.051407
v 0.033279 0.629120 -1.051907
v 0.034534 0.629053 -1.052593
v 0.035679 0.628989 -1.053449
v 0.036688 0.628931 -1.054458
v 0.037543 0.628880 -1.055601
v 0.038227 0.628839 -1.056852
v 0.038724 0.628809 -1.058187
v 0.039027 0.628790 -1.059579
v 0.039129 0.628784 -1.061000
f 1 14 2
f 1 13 14
f 2 15 3
f 2 14 15
f 3 16 4
f 3 15 16
f 4 17 5
f 4 16 17
f 5 18 6
f 5 17 18
f 6 19 7
f 6 18 19
f 7 20 8
f 7 19 20
f 8 21 9
f 8 20 21
f 9 22 10
f 9 21 22
f 10 23 11
f 10 22 23
f 11 24 12
f 11 23 24
