v 1.618590 -0.300000 -4.858498
v 1.621850 -0.300000 -4.879776
v 1.627245 -0.300000 -4.900615
v 1.634721 -0.300000 -4.920801
v 1.644201 -0.300000 -4.940127
v 1.655588 -0.300000 -4.958394
v 1.668764 -0.300000 -4.975417
v 1.683595 -0.300000 -4.991018
v 1.699927 -0.300000 -5.005040
v 1.717595 -0.300000 -5.017337
v 1.736416 -0.300000 -5.027783
v 1.756198 -0.300000 -5.036272
v 1.776736 -0.300000 -5.042716
v 1.797822 -0.300000 -5.047050
v 1.819237 -0.300000 -5.049227
v 1.840763 -0.300000 -5.049227
v 1.862178 -0.300000 -5.047050
v 1.883264 -0.300000 -5.042716
v 1.903802 -0.300000 -5.036272
v 1.923584 -0.300000 -5.027783
v 1.942405 -0.300000 -5.017337
v 1.960073 -0.300000 -5.005040
v 1.976405 -0.300000 -4.991018
v 1.991236 -0.300000 -4.975417
v 2.004412 -0.300000 -4.958394
v 2.015799 -0.300000 -4.940127
v 2.025279 -0.300000 -4.920801
v 2.032755 -0.300000 -4.900615
v 2.038150 -0.300000 -4.879776
v 2.041410 -0.300000 -4.858498
v 2.042500 -0.300000 -4.837000
v 2.041410 -0.300000 -4.815502
v 2.038150 -0.300000 -4.794224
v 2.032755 -0.300000 -4.773385
v 2.025279 -0.300000 -4.753199
v 2.015799 -0.300000 -4.733873
v 2.004412 -0.300000 -4.715606
v 1.991236 -0.300000 -4.698583
v 1.976405 -0.300000 -4.682982
v 1.960073 -0.300000 -4.668960
v 1.942405 -0.300000 -4.656663
v 1.923584 -0.300000 -4.646217
v 1.903802 -0.300000 -4.637728
v 1.883264 -0.300000 -4.631284
v 1.862178 -0.300000 -4.626950
v 1.840763 -0.300000 -4.624773
v 1.819237 -0.300000 -4.624773
v 1.797822 -0.300000 -4.626950
v 1.776736 -0.300000 -4.631284
v 1.756198 -0.300000 -4.637728
v 1.736416 -0.300000 -4.646217
v 1.717595 -0.300000 -4.656663
v 1.699927 -0.300000 -4.668960
v 1.683595 -0.300000 -4.682982
v 1.668764 -0.300000 -4.698583
v 1.655588 -0.300000 -4.715606
v 1.644201 -0.300000 -4.733873
v 1.634721 -0.300000 -4.753199
v 1.627245 -0.300000 -4.773385
v 1.621850 -0.300000 -4.794224
v 1.618590 -0.300000 -4.815502
v 1.617500 -0.300000 -4.837000
v 1.725539 -0.300000 -4.847623
v 1.727149 -0.300000 -4.858136
v 1.729815 -0.300000 -4.868433
v 1.733509 -0.300000 -4.878407
v 1.738194 -0.300000 -4.887957
v 1.743820 -0.300000 -4.896983
v 1.750330 -0.300000 -4.905394
v 1.757658 -0.300000 -4.913103
v 1.765729 -0.300000 -4.920031
v 1.774459 -0.300000 -4.926108
v 1.783759 -0.300000 -4.931269
v 1.793533 -0.300000 -4.935464
v 1.803681 -0.300000 -4.938648
v 1.814100 -0.300000 -4.940789
v 1.824682 -0.300000 -4.941865
v 1.835318 -0.300000 -4.941865
v 1.845900 -0.300000 -4.940789
v 1.856319 -0.300000 -4.938648
v 1.866467 -0.300000 -4.935464
v 1.876241 -0.300000 -4.931269
v 1.885541 -0.300000 -4.926108
v 1.894271 -0.300000 -4.920031
v 1.902342 -0.300000 -4.913103
v 1.909670 -0.300000 -4.905394
v 1.916180 -0.300000 -4.896983
v 1.921806 -0.300000 -4.887957
v 1.926491 -0.300000 -4.878407
v 1.930185 -0.300000 -4.868433
v 1.932851 -0.300000 -4.858136
v 1.934461 -0.300000 -4.847623
v 1.935000 -0.300000 -4.837000
v 1.934461 -0.300000 -4.826377
v 1.932851 -0.300000 -4.815864
v 1.930185 -0.300000 -4.805567
v 1.926491 -0.300000 -4.795593
v 1.921806 -0.300000 -4.786043
v 1.916180 -0.300000 -4.777017
v 1.909670 -0.300000 -4.768606
v 1.902342 -0.300000 -4.760897
v 1.894271 -0.300000 -4.753969
v 1.885541 -0.300000 -4.747892
v 1.876241 -0.300000 -4.742731
v 1.866467 -0.300000 -4.738536
v 1.856319 -0.300000 -4.735352
v 1.845900 -0.300000 -4.733211
v 1.835318 -0.300000 -4.732135
v 1.824682 -0.300000 -4.732135
v 1.814100 -0.300000 -4.733211
v 1.803681 -0.300000 -4.735352
v 1.793533 -0.300000 -4.738536
v 1.783759 -0.300000 -4.742731
v 1.774459 -0.300000 -4.747892
v 1.765729 -0.300000 -4.753969
v 1.757658 -0.300000 -4.760897
v 1.750330 -0.300000 -4.768606
v 1.743820 -0.300000 -4.777017
v 1.738194 -0.300000 -4.786043
v 1.733509 -0.300000 -4.795593
v 1.729815 -0.300000 -4.805567
v 1.727149 -0.300000 -4.815864
v 1.725539 -0.300000 -4.826377
v 1.725000 -0.300000 -4.837000
f 1 64 2
f 1 63 64
f 2 65 3
f 2 64 65
f 3 66 4
f 3 65 66
f 4 67 5
f 4 66 67
f 5 68 6
f 5 67 68
f 6 69 7
f 6 68 69
f 7 70 8
f 7 69 70
f 8 71 9
f 8 70 71
f 9 72 10
f 9 71 72
f 10 73 11
f 10 72 73
f 11 74 12
f 11 73 74
f 12 75 13
f 12 74 75
f 13 76 14
f 13 75 76
f 14 77 15
f 14 76 77
f 15 78 16
f 15 77 78
f 16 79 17
f 16 78 79
f 17 80 18
f 17 79 80
f 18 81 19
f 18 80 81
f 19 82 20
f 19 81 82
f 20 83 21
f 20 82 83
f 21 84 22
f 21 83 84
f 22 85 23
f 22 84 85
f 23 86 24
f 23 85 86
f 24 87 25
f 24 86 87
f 25 88 26
f 25 87 88
f 26 89 27
f 26 88 89
f 27 90 28
f 27 89 90
f 28 91 29
f 28 90 91
f 29 92 30
f 29 91 92
f 30 93 31
f 30 92 93
f 31 94 32
f 31 93 94
f 32 95 33
f 32 94 95
f 33 96 34
f 33 95 96
f 34 97 35
f 34 96 97
f 35 98 36
f 35 97 98
f 36 99 37
f 36 98 99
f 37 100 38
f 37 99 100
f 38 101 39
f 38 100 101
f 39 102 40
f 39 101 102
f 40 103 41
f 40 102 103
f 41 104 42
f 41 103 104
f 42 105 43
f 42 104 105
f 43 106 44
f 43 105 106
f 44 107 45
f 44 106 107
f 45 108 46
f 45 107 108
f 46 109 47
f 46 108 109
f 47 110 48
f 47 109 110
f 48 111 49
f 48 110 111
f 49 112 50
f 49 111 112
f 50 113 51
f 50 112 113
f 51 114 52
f 51 113 114
f 52 115 53
f 52 114 115
f 53 116 54
f 53 115 116
f 54 117 55
f 54 116 117
f 55 118 56
f 55 117 118
f 56 119 57
f 56 118 119
f 57 120 58
f 57 119 120
f 58 121 59
f 58 120 121
f 59 122 60
f 59 121 122
f 60 123 61
f 60 122 123
f 61 124 62
f 61 123 124
f 62 63 1
f 62 124 63
