v 0.638787 -0.199933 -0.000000
v 0.635509 -0.199933 -0.000000
v 0.625711 -0.199933 -0.000000
v 0.609492 -0.199933 -0.000000
v 0.587018 -0.199933 0.000000
v 0.558521 -0.199933 0.000000
v 0.524293 -0.199933 0.000000
v 0.484685 -0.199933 0.000000
v 0.440103 -0.199933 0.000000
v 0.391005 -0.199933 0.000000
v 0.337895 -0.199933 0.000000
v 0.281318 -0.199933 0.000000
v 0.221854 -0.199933 0.000000
v 0.160114 -0.199933 0.000000
v 0.096730 -0.199933 0.000000
v 0.032354 -0.199933 0.000000
v -0.032354 -0.199933 0.000000
v -0.096730 -0.199933 0.000000
v -0.160114 -0.199933 0.000000
v -0.221854 -0.199933 0.000000
v -0.281318 -0.199933 0.000000
v -0.337895 -0.199933 0.000000
v -0.391005 -0.199933 0.000000
v -0.440103 -0.199933 0.000000
v -0.484685 -0.199933 0.000000
v -0.524293 -0.199933 0.000000
v -0.558521 -0.199933 0.000000
v -0.587018 -0.199933 0.000000
v -0.609492 -0.199933 -0.000000
v -0.625711 -0.199933 -0.000000
v -0.635509 -0.199933 -0.000000
v -0.638787 -0.199933 -0.000000
v -0.649393 -0.199933 -0.004393
v -0.649121 -0.199933 -0.004128
v -0.648843 -0.199933 -0.003870
v -0.648557 -0.199933 -0.003619
v -0.648266 -0.199933 -0.003375
v -0.647968 -0.199933 -0.003138
v -0.647665 -0.199933 -0.002910
v -0.647356 -0.199933 -0.002689
v -0.647041 -0.199933 -0.002475
v -0.646721 -0.199933 -0.002270
v -0.646396 -0.199933 -0.002073
v -0.646066 -0.199933 -0.001885
v -0.645732 -0.199933 -0.001705
v -0.645393 -0.199933 -0.001533
v -0.645049 -0.199933 -0.001370
v -0.644702 -0.199933 -0.001216
v -0.644351 -0.199933 -0.001070
v -0.643996 -0.199933 -0.000934
v -0.643638 -0.199933 -0.000806
v -0.643277 -0.199933 -0.000688
v -0.642913 -0.199933 -0.000579
v -0.642547 -0.199933 -0.000479
v -0.642178 -0.199933 -0.000388
v -0.641806 -0.199933 -0.000307
v -0.641433 -0.199933 -0.000235
v -0.641058 -0.199933 -0.000173
v -0.640682 -0.199933 -0.000120
v -0.640304 -0.199933 -0.000077
v -0.639926 -0.199933 -0.000043
v -0.639547 -0.199933 -0.000019
v -0.639167 -0.199933 -0.000005
v -0.638787 -0.199933 -0.000000
v -0.635509 -0.199933 -0.000000
v -0.625711 -0.199933 -0.000000
v -0.609492 -0.199933 -0.000000
v -0.587018 -0.199933 0.000000
v -0.558521 -0.199933 0.000000
v -0.524293 -0.199933 0.000000
v -0.484685 -0.199933 0.000000
v -0.440103 -0.199933 0.000000
v -0.391005 -0.199933 0.000000
v -0.337895 -0.199933 0.000000
v -0.281318 -0.199933 0.000000
v -0.221854 -0.199933 0.000000
v -0.160114 -0.199933 0.000000
v -0.096730 -0.199933 0.000000
v -0.032354 -0.199933 0.000000
v 0.032354 -0.199933 0.000000
v 0.096730 -0.199933 0.000000
v 0.160114 -0.199933 0.000000
v 0.221854 -0.199933 0.000000
v 0.281318 -0.199933 0.000000
v 0.337895 -0.199933 0.000000
v 0.391005 -0.199933 0.000000
v 0.440103 -0.199933 0.000000
v 0.484685 -0.199933 0.000000
v 0.524293 -0.199933 0.000000
v 0.558521 -0.199933 0.000000
v 0.587018 -0.199933 0.000000
v 0.609492 -0.199933 -0.000000
v 0.625711 -0.199933 -0.000000
v 0.635509 -0.199933 -0.000000
v 0.638787 -0.199933 -0.000000
v 0.639167 -0.199933 -0.000005
v 0.639547 -0.199933 -0.000019
v 0.639926 -0.199933 -0.000043
v 0.640304 -0.199933 -0.000077
v 0.640682 -0.199933 -0.000120
v 0.641058 -0.199933 -0.000173
v 0.641433 -0.199933 -0.000235
v 0.641806 -0.199933 -0.000307
v 0.642178 -0.199933 -0.000388
v 0.642547 -0.199933 -0.000479
v 0.642913 -0.199933 -0.000579
v 0.643277 -0.199933 -0.000688
v 0.643638 -0.199933 -0.000806
v 0.643996 -0.199933 -0.000934
v 0.644351 -0.199933 -0.001070
v 0.644702 -0.199933 -0.001216
v 0.645049 -0.199933 -0.001370
v 0.645393 -0.199933 -0.001533
v 0.645732 -0.199933 -0.001705
v 0.646066 -0.199933 -0.001885
v 0.646396 -0.199933 -0.002073
v 0.646721 -0.199933 -0.002270
v 0.647041 -0.199933 -0.002475
v 0.647356 -0.199933 -0.002689
v 0.647665 -0.199933 -0.002910
v 0.647968 -0.199933 -0.003138
v 0.648266 -0.199933 -0.003375
v 0.648557 -0.199933 -0.003619
v 0.648843 -0.199933 -0.003870
v 0.649121 -0.199933 -0.004128
v 0.649393 -0.199933 -0.004393
f 125 1 126
f 32 34 33
f 34 36 35
f 36 38 37
f 38 40 39
f 40 42 41
f 42 44 43
f 44 46 45
f 46 48 47
f 48 50 49
f 50 52 51
f 52 54 53
f 54 56 55
f 56 58 57
f 58 60 59
f 60 62 61
f 96 98 97
f 98 100 99
f 100 102 101
f 102 104 103
f 104 106 105
f 106 108 107
f 108 110 109
f 110 112 111
f 112 114 113
f 114 116 115
f 116 118 117
f 118 120 119
f 120 122 121
f 122 124 123
f 124 1 125
f 32 36 34
f 36 40 38
f 40 44 42
f 44 48 46
f 48 52 50
f 52 56 54
f 56 60 58
f 60 63 62
f 96 100 98
f 100 104 102
f 104 108 106
f 108 112 110
f 112 116 114
f 116 120 118
f 120 124 122
f 32 40 36
f 40 48 44
f 48 56 52
f 56 63 60
f 96 104 100
f 104 112 108
f 112 120 116
f 120 1 124
f 32 48 40
f 48 63 56
f 96 112 104
f 112 1 120
f 32 63 48
f 96 1 112
