v 0.406998 0.016837 0.540797
v 0.405574 0.015317 0.539966
v 0.404066 0.013952 0.539390
v 0.402279 0.012601 0.539040
v 0.400470 0.011505 0.539021
v 0.398483 0.010614 0.539383
v 0.396453 0.010085 0.540221
v 0.406998 0.115000 0.540797
v 0.405574 0.115000 0.539966
v 0.404066 0.115000 0.539390
v 0.402279 0.115000 0.539040
v 0.400470 0.115000 0.539020
v 0.398483 0.115000 0.539383
v 0.396454 0.115000 0.540221
v 0.406998 0.220000 0.540797
v 0.405574 0.220000 0.539966
v 0.404066 0.220000 0.539390
v 0.402279 0.220000 0.539040
v 0.400470 0.220000 0.539020
v 0.398483 0.220000 0.539383
v 0.396454 0.220000 0.540221
f 1 9 2
f 1 8 9
f 2 10 3
f 2 9 10
f 3 11 4
f 3 10 11
f 4 12 5
f 4 11 12
f 5 13 6
f 5 12 13
f 6 14 7
f 6 13 14
f 8 16 9
f 8 15 16
f 9 17 10
f 9 16 17
f 10 18 11
f 10 17 18
f 11 19 12
f 11 18 19
f 12 20 13
f 12 19 20
f 13 21 14
f 13 20 21
