v -0.256060 -0.423625 -1.051000
v -0.257291 -0.422879 -1.051103
v -0.258492 -0.422145 -1.051408
v -0.259641 -0.421440 -1.051909
v -0.260713 -0.420778 -1.052596
v -0.261689 -0.420171 -1.053453
v -0.262548 -0.419635 -1.054463
v -0.263274 -0.419180 -1.055605
v -0.263854 -0.418815 -1.056856
v -0.264276 -0.418549 -1.058190
v -0.264532 -0.418387 -1.059581
v -0.264618 -0.418333 -1.061000
v -0.298235 -0.477388 -1.051000
v -0.299360 -0.476506 -1.051103
v -0.300459 -0.475643 -1.051408
v -0.301513 -0.474817 -1.051909
v -0.302499 -0.474043 -1.052595
v -0.303397 -0.473339 -1.053452
v -0.304189 -0.472717 -1.054462
v -0.304860 -0.472191 -1.055605
v -0.305396 -0.471771 -1.056856
v -0.305786 -0.471464 -1.058190
v -0.306024 -0.471278 -1.059581
v -0.306103 -0.471216 -1.061000
v -0.340410 -0.531150 -1.051000
v -0.341535 -0.530269 -1.051103
v -0.342634 -0.529406 -1.051408
v -0.343688 -0.528579 -1.051909
v -0.344674 -0.527806 -1.052595
v -0.345572 -0.527101 -1.053452
v -0.346364 -0.526480 -1.054462
v -0.347035 -0.525954 -1.055605
v -0.347571 -0.525533 -1.056856
v -0.347961 -0.525227 -1.058190
v -0.348199 -0.525041 -1.059581
v -0.348278 -0.524978 -1.061000
f 1 14 2
f 1 13 14
f 2 15 3
f 2 14 15
f 3 16 4
f 3 15 16
f 4 17 5
f 4 16 17
f 5 18 6
f 5 17 18
f 6 19 7
f 6 18 19
f 7 20 8
f 7 19 20
f 8 21 9
f 8 20 21
f 9 22 10
f 9 21 22
f 10 23 11
f 10 22 23
f 11 24 12
f 11 23 24
f 13 26 14
f 13 25 26
f 14 27 15
f 14 26 27
f 15 28 16
f 15 27 28
f 16 29 17
f 16 28 29
f 17 30 18
f 17 29 30
f 18 31 19
f 18 30 31
f 19 32 20
f 19 31 32
f 20 33 21
f 20 32 33
f 21 34 22
f 21 33 34
f 22 35 23
f 22 34 35
f 23 36 24
f 23 35 36
