v 0.960000 -1.081111 -5.664516
v 0.960000 -1.132519 -5.664516
v 0.960000 -1.137939 -5.640133
v 0.960000 -1.142834 -5.615639
v 0.960000 -1.147201 -5.591045
v 0.960000 -1.151040 -5.566363
v 0.960000 -1.154347 -5.541605
v 0.960000 -1.157122 -5.516781
v 0.960000 -1.159363 -5.491904
v 0.960000 -1.161069 -5.466984
v 0.960000 -1.162240 -5.442033
v 0.960000 -1.162875 -5.417063
v 0.960000 -1.162973 -5.392085
v 0.960000 -1.162535 -5.367110
v 0.960000 -1.161560 -5.342151
v 0.960000 -1.160050 -5.317218
v 0.960000 -1.158005 -5.292324
v 0.960000 -1.155425 -5.267479
v 0.960000 -1.152313 -5.242695
v 0.960000 -1.148668 -5.217984
v 0.960000 -1.144495 -5.193357
v 0.960000 -1.139793 -5.168825
v 0.960000 -1.134565 -5.144400
v 0.960000 -1.128814 -5.120093
v 0.960000 -1.122542 -5.095915
v 0.960000 -1.115753 -5.071877
v 0.960000 -1.108449 -5.047990
v 0.960000 -1.100633 -5.024266
v 0.960000 -1.092310 -5.000715
v 0.960000 -1.083483 -4.977349
v 0.960000 -1.074156 -4.954177
v 0.960000 -1.064334 -4.931211
v 0.960000 -1.054020 -4.908461
v 0.960000 -1.043221 -4.885938
v 0.960000 -1.031940 -4.863652
v 0.960000 -1.020183 -4.841614
v 0.960000 -1.007956 -4.819833
v 0.960000 -0.995264 -4.798320
v 0.960000 -0.982112 -4.777084
v 0.960000 -0.968508 -4.756136
v 0.960000 -0.954457 -4.735484
v 0.960000 -0.892854 -4.735484
v 0.960000 -0.907616 -4.755793
v 0.960000 -0.921916 -4.776429
v 0.960000 -0.935747 -4.797383
v 0.960000 -0.949101 -4.818643
v 0.960000 -0.961973 -4.840200
v 0.960000 -0.974356 -4.862041
v 0.960000 -0.986242 -4.884155
v 0.960000 -0.997627 -4.906533
v 0.960000 -1.008504 -4.929161
v 0.960000 -1.018868 -4.952029
v 0.960000 -1.028713 -4.975125
v 0.960000 -1.038035 -4.998437
v 0.960000 -1.046829 -5.021954
v 0.960000 -1.055090 -5.045663
v 0.960000 -1.062814 -5.069552
v 0.960000 -1.069997 -5.093609
v 0.960000 -1.076636 -5.117822
v 0.960000 -1.082727 -5.142179
v 0.960000 -1.088267 -5.166667
v 0.960000 -1.093253 -5.191274
v 0.960000 -1.097683 -5.215987
v 0.960000 -1.101555 -5.240794
v 0.960000 -1.104865 -5.265681
v 0.960000 -1.107614 -5.290637
v 0.960000 -1.109799 -5.315649
v 0.960000 -1.111419 -5.340703
v 0.960000 -1.112474 -5.365788
v 0.960000 -1.112963 -5.390890
v 0.960000 -1.112885 -5.415997
v 0.960000 -1.112241 -5.441095
v 0.960000 -1.111031 -5.466173
v 0.960000 -1.109256 -5.491217
v 0.960000 -1.106916 -5.516215
v 0.960000 -1.104013 -5.541153
v 0.960000 -1.100548 -5.566020
v 0.960000 -1.096523 -5.590802
v 0.960000 -1.091941 -5.615487
v 0.960000 -1.086802 -5.640063
f 2 3 1
f 3 80 1
f 3 4 80
f 4 79 80
f 4 5 79
f 5 78 79
f 5 6 78
f 6 77 78
f 6 7 77
f 7 76 77
f 7 8 76
f 8 75 76
f 8 9 75
f 9 74 75
f 9 10 74
f 10 73 74
f 10 11 73
f 11 72 73
f 11 12 72
f 12 71 72
f 12 13 71
f 13 70 71
f 13 14 70
f 14 69 70
f 14 15 69
f 15 68 69
f 15 16 68
f 16 67 68
f 16 17 67
f 17 66 67
f 17 18 66
f 18 65 66
f 18 19 65
f 19 64 65
f 19 20 64
f 20 63 64
f 20 21 63
f 21 62 63
f 21 22 62
f 22 61 62
f 22 23 61
f 23 60 61
f 23 24 60
f 24 59 60
f 24 25 59
f 25 58 59
f 25 26 58
f 26 57 58
f 26 27 57
f 27 56 57
f 27 28 56
f 28 55 56
f 28 29 55
f 29 54 55
f 29 30 54
f 30 53 54
f 30 31 53
f 31 52 53
f 31 32 52
f 32 51 52
f 32 33 51
f 33 50 51
f 33 34 50
f 34 49 50
f 34 35 49
f 35 48 49
f 35 36 48
f 36 47 48
f 36 37 47
f 37 46 47
f 37 38 46
f 38 45 46
f 38 39 45
f 39 44 45
f 39 40 44
f 40 43 44
f 40 41 43
f 41 42 43
