v -0.670000 0.220000 0.000000
v -0.669998 0.220000 0.001448
v -0.669994 0.220000 0.002895
v -0.669986 0.220000 0.004342
v -0.669975 0.220000 0.005789
v -0.669961 0.220000 0.007236
v -0.669944 0.220000 0.008683
v -0.669923 0.220000 0.010130
v -0.669900 0.220000 0.011577
v -0.669873 0.220000 0.013024
v -0.669844 0.220000 0.014471
v -0.669811 0.220000 0.015918
v -0.669775 0.220000 0.017365
v -0.669736 0.220000 0.018811
v -0.669694 0.220000 0.020258
v -0.669648 0.220000 0.021704
v -0.669600 0.220000 0.023151
v -0.669548 0.220000 0.024597
v -0.669494 0.220000 0.026043
v -0.669436 0.220000 0.027489
v -0.669375 0.220000 0.028935
v -0.669311 0.220000 0.030381
v -0.669244 0.220000 0.031826
v -0.669173 0.220000 0.033272
v -0.669100 0.220000 0.034717
v -0.669023 0.220000 0.036162
v -0.668944 0.220000 0.037607
v -0.668861 0.220000 0.039052
v -0.668775 0.220000 0.040496
v -0.668686 0.220000 0.041941
v -0.668594 0.220000 0.043385
v -0.668499 0.220000 0.044829
v -0.668533 0.220000 0.044430
v -0.668584 0.220000 0.044033
v -0.668651 0.220000 0.043638
v -0.668733 0.220000 0.043246
v -0.668831 0.220000 0.042857
v -0.668945 0.220000 0.042473
v -0.669074 0.220000 0.042094
v -0.669218 0.220000 0.041720
v -0.669376 0.220000 0.041352
v -0.669550 0.220000 0.040991
v -0.669737 0.220000 0.040637
v -0.669939 0.220000 0.040291
v -0.670155 0.220000 0.039953
v -0.670383 0.220000 0.039624
v -0.670625 0.220000 0.039305
v -0.670880 0.220000 0.038995
v -0.671146 0.220000 0.038696
v -0.671425 0.220000 0.038408
v -0.671714 0.220000 0.038131
v -0.672015 0.220000 0.037866
v -0.672326 0.220000 0.037613
v -0.672646 0.220000 0.037373
v -0.672976 0.220000 0.037146
v -0.673315 0.220000 0.036933
v -0.673663 0.220000 0.036733
v -0.674018 0.220000 0.036547
v -0.674380 0.220000 0.036376
v -0.674748 0.220000 0.036219
v -0.675123 0.220000 0.036077
v -0.675503 0.220000 0.035950
v -0.675888 0.220000 0.035839
v -0.727588 0.220000 0.021986
v -0.727994 0.220000 0.021868
v -0.728394 0.220000 0.021733
v -0.728788 0.220000 0.021582
v -0.729175 0.220000 0.021413
v -0.729555 0.220000 0.021229
v -0.729927 0.220000 0.021029
v -0.730290 0.220000 0.020813
v -0.730643 0.220000 0.020582
v -0.730987 0.220000 0.020337
v -0.731319 0.220000 0.020077
v -0.731641 0.220000 0.019803
v -0.731951 0.220000 0.019516
v -0.732248 0.220000 0.019216
v -0.732532 0.220000 0.018904
v -0.732803 0.220000 0.018580
v -0.733060 0.220000 0.018246
v -0.733303 0.220000 0.017900
v -0.733531 0.220000 0.017545
v -0.733743 0.220000 0.017180
v -0.733941 0.220000 0.016806
v -0.734122 0.220000 0.016425
v -0.734287 0.220000 0.016036
v -0.734435 0.220000 0.015641
v -0.734566 0.220000 0.015240
v -0.734681 0.220000 0.014833
v -0.734778 0.220000 0.014422
v -0.734858 0.220000 0.014008
v -0.734920 0.220000 0.013590
v -0.734964 0.220000 0.013170
v -0.734991 0.220000 0.012749
v -0.735000 0.220000 0.012327
v -0.735000 0.220000 -0.012327
v -0.734991 0.220000 -0.012749
v -0.734964 0.220000 -0.013170
v -0.734920 0.220000 -0.013590
v -0.734858 0.220000 -0.014008
v -0.734778 0.220000 -0.014422
v -0.734681 0.220000 -0.014833
v -0.734566 0.220000 -0.015240
v -0.734435 0.220000 -0.015641
v -0.734287 0.220000 -0.016036
v -0.734122 0.220000 -0.016425
v -0.733941 0.220000 -0.016806
v -0.733743 0.220000 -0.017180
v -0.733531 0.220000 -0.017545
v -0.733303 0.220000 -0.017900
v -0.733060 0.220000 -0.018246
v -0.732803 0.220000 -0.018580
v -0.732532 0.220000 -0.018904
v -0.732248 0.220000 -0.019216
v -0.731951 0.220000 -0.019516
v -0.731641 0.220000 -0.019803
v -0.731319 0.220000 -0.020077
v -0.730987 0.220000 -0.020337
v -0.730643 0.220000 -0.020582
v -0.730290 0.220000 -0.020813
v -0.729927 0.220000 -0.021029
v -0.729555 0.220000 -0.021229
v -0.729175 0.220000 -0.021413
v -0.728788 0.220000 -0.021582
v -0.728394 0.220000 -0.021733
v -0.727994 0.220000 -0.021868
v -0.727588 0.220000 -0.021986
v -0.675888 0.220000 -0.035839
v -0.675503 0.220000 -0.035950
v -0.675123 0.220000 -0.036077
v -0.674748 0.220000 -0.036219
v -0.674380 0.220000 -0.036376
v -0.674018 0.220000 -0.036547
v -0.673663 0.220000 -0.036733
v -0.673315 0.220000 -0.036933
v -0.672976 0.220000 -0.037146
v -0.672646 0.220000 -0.037373
v -0.672326 0.220000 -0.037613
v -0.672015 0.220000 -0.037866
v -0.671714 0.220000 -0.038131
v -0.671425 0.220000 -0.038408
v -0.671146 0.220000 -0.038696
v -0.670880 0.220000 -0.038995
v -0.670625 0.220000 -0.039305
v -0.670383 0.220000 -0.039624
v -0.670155 0.220000 -0.039953
v -0.669939 0.220000 -0.040291
v -0.669737 0.220000 -0.040637
v -0.669550 0.220000 -0.040991
v -0.669376 0.220000 -0.041352
v -0.669218 0.220000 -0.041720
v -0.669074 0.220000 -0.042094
v -0.668945 0.220000 -0.042473
v -0.668831 0.220000 -0.042857
v -0.668733 0.220000 -0.043246
v -0.668651 0.220000 -0.043638
v -0.668584 0.220000 -0.044033
v -0.668533 0.220000 -0.044430
v -0.668499 0.220000 -0.044829
v -0.668594 0.220000 -0.043385
v -0.668686 0.220000 -0.041941
v -0.668775 0.220000 -0.040496
v -0.668861 0.220000 -0.039052
v -0.668944 0.220000 -0.037607
v -0.669023 0.220000 -0.036162
v -0.669100 0.220000 -0.034717
v -0.669173 0.220000 -0.033271
v -0.669244 0.220000 -0.031826
v -0.669311 0.220000 -0.030380
v -0.669375 0.220000 -0.028935
v -0.669436 0.220000 -0.027489
v -0.669494 0.220000 -0.026043
v -0.669548 0.220000 -0.024596
v -0.669600 0.220000 -0.023150
v -0.669648 0.220000 -0.021704
v -0.669694 0.220000 -0.020257
v -0.669736 0.220000 -0.018811
v -0.669775 0.220000 -0.017364
v -0.669811 0.220000 -0.015917
v -0.669844 0.220000 -0.014470
v -0.669873 0.220000 -0.013024
v -0.669900 0.220000 -0.011577
v -0.669923 0.220000 -0.010130
v -0.669944 0.220000 -0.008683
v -0.669961 0.220000 -0.007235
v -0.669975 0.220000 -0.005788
v -0.669986 0.220000 -0.004341
v -0.669994 0.220000 -0.002894
v -0.669998 0.220000 -0.001447
f 31 32 33
f 30 31 33
f 29 30 33
f 29 33 34
f 28 29 34
f 27 28 34
f 27 34 35
f 26 27 35
f 25 26 35
f 24 25 35
f 24 35 36
f 23 24 36
f 22 23 36
f 22 36 37
f 21 22 37
f 20 21 37
f 19 20 37
f 19 37 38
f 18 19 38
f 17 18 38
f 17 38 39
f 16 17 39
f 15 16 39
f 14 15 39
f 14 39 40
f 13 14 40
f 12 13 40
f 12 40 41
f 11 12 41
f 10 11 41
f 9 10 41
f 9 41 42
f 8 9 42
f 7 8 42
f 7 42 43
f 6 7 43
f 5 6 43
f 4 5 43
f 4 43 44
f 3 4 44
f 2 3 44
f 2 44 45
f 1 2 45
f 189 1 45
f 189 45 46
f 189 46 47
f 189 47 48
f 189 48 49
f 189 49 50
f 189 50 51
f 189 51 52
f 189 52 53
f 189 53 54
f 189 54 55
f 189 55 56
f 189 56 57
f 189 57 58
f 189 58 59
f 189 59 60
f 189 60 61
f 189 61 62
f 189 62 63
f 189 63 64
f 189 64 65
f 189 65 66
f 189 66 67
f 189 67 68
f 189 68 69
f 189 69 70
f 189 70 71
f 189 71 72
f 189 72 73
f 189 73 74
f 189 74 75
f 189 75 76
f 189 76 77
f 189 77 78
f 189 78 79
f 189 79 80
f 189 80 81
f 189 81 82
f 189 82 83
f 189 83 84
f 189 84 85
f 189 85 86
f 189 86 87
f 189 87 88
f 189 88 89
f 189 89 90
f 189 90 91
f 189 91 92
f 189 92 93
f 189 93 94
f 189 94 95
f 189 95 96
f 189 96 97
f 189 97 98
f 189 98 99
f 189 99 100
f 189 100 101
f 189 101 102
f 189 102 103
f 189 103 104
f 189 104 105
f 189 105 106
f 189 106 107
f 189 107 108
f 189 108 109
f 189 109 110
f 189 110 111
f 189 111 112
f 189 112 113
f 189 113 114
f 189 114 115
f 189 115 116
f 189 116 117
f 189 117 118
f 189 118 119
f 189 119 120
f 189 120 121
f 189 121 122
f 189 122 123
f 189 123 124
f 189 124 125
f 189 125 126
f 189 126 127
f 189 127 128
f 189 128 129
f 189 129 130
f 189 130 131
f 189 131 132
f 189 132 133
f 189 133 134
f 189 134 135
f 189 135 136
f 189 136 137
f 189 137 138
f 189 138 139
f 189 139 140
f 189 140 141
f 189 141 142
f 189 142 143
f 189 143 144
f 189 144 145
f 189 145 146
f 189 146 147
f 158 159 160
f 157 158 160
f 156 157 160
f 155 156 160
f 154 155 160
f 153 154 160
f 152 153 160
f 152 160 161
f 151 152 161
f 150 151 161
f 149 150 161
f 148 149 161
f 147 148 161
f 147 161 162
f 147 162 163
f 147 163 164
f 147 164 165
f 147 165 166
f 147 166 167
f 147 167 168
f 147 168 169
f 147 169 170
f 147 170 171
f 147 171 172
f 147 172 173
f 147 173 174
f 147 174 175
f 147 175 176
f 147 176 177
f 147 177 178
f 147 178 179
f 147 179 180
f 147 180 181
f 147 181 182
f 147 182 183
f 147 183 184
f 147 184 185
f 147 185 186
f 147 186 187
f 147 187 188
f 147 188 189
