v -0.643516 0.010000 0.186514
v -0.643516 0.220000 0.186514
v -0.647385 0.220000 0.197490
v -0.691229 0.220000 0.228190
v -0.691229 0.000000 0.228190
v -0.641491 0.000000 0.193363
v -0.641491 0.010000 0.193363
v -0.647385 0.016837 0.197490
v -0.647191 0.016611 0.197350
v -0.647001 0.016388 0.197207
v -0.646816 0.016168 0.197060
v -0.646634 0.015951 0.196910
v -0.646457 0.015737 0.196755
v -0.646285 0.015525 0.196597
v -0.646116 0.015317 0.196436
v -0.645952 0.015113 0.196271
v -0.645793 0.014911 0.196103
v -0.645637 0.014712 0.195932
v -0.645486 0.014517 0.195757
v -0.645340 0.014325 0.195580
v -0.645197 0.014137 0.195400
v -0.645060 0.013952 0.195216
v -0.644926 0.013770 0.195030
v -0.644797 0.013592 0.194841
v -0.644673 0.013418 0.194650
v -0.644553 0.013247 0.194456
v -0.644438 0.013080 0.194259
v -0.644327 0.012917 0.194061
v -0.644221 0.012757 0.193860
v -0.644120 0.012602 0.193656
v -0.644023 0.012450 0.193451
v -0.643931 0.012303 0.193244
v -0.643844 0.012159 0.193035
v -0.643762 0.012020 0.192824
v -0.643685 0.011885 0.192611
v -0.643613 0.011754 0.192396
v -0.643545 0.011628 0.192181
v -0.643483 0.011506 0.191963
v -0.643425 0.011388 0.191745
v -0.643373 0.011275 0.191525
v -0.643325 0.011167 0.191305
v -0.643282 0.011063 0.191084
v -0.643245 0.010964 0.190862
v -0.643212 0.010869 0.190640
v -0.643184 0.010779 0.190417
v -0.643161 0.010694 0.190195
v -0.643144 0.010614 0.189972
v -0.643131 0.010539 0.189750
v -0.643123 0.010469 0.189528
v -0.643120 0.010403 0.189307
v -0.643122 0.010343 0.189086
v -0.643129 0.010288 0.188865
v -0.643141 0.010237 0.188646
v -0.643158 0.010192 0.188428
v -0.643179 0.010151 0.188210
v -0.643206 0.010116 0.187994
v -0.643236 0.010085 0.187778
v -0.643272 0.010059 0.187564
v -0.643312 0.010038 0.187351
v -0.643356 0.010021 0.187140
v -0.643405 0.010009 0.186930
v -0.643458 0.010002 0.186721
f 62 1 2
f 62 2 3
f 62 3 4
f 5 6 7
f 5 7 8
f 4 5 8
f 62 4 8
f 62 8 9
f 62 9 10
f 62 10 11
f 62 11 12
f 62 12 13
f 62 13 14
f 62 14 15
f 62 15 16
f 62 16 17
f 62 17 18
f 62 18 19
f 62 19 20
f 62 20 21
f 62 21 22
f 62 22 23
f 62 23 24
f 62 24 25
f 62 25 26
f 62 26 27
f 62 27 28
f 62 28 29
f 62 29 30
f 62 30 31
f 62 31 32
f 62 32 33
f 62 33 34
f 62 34 35
f 62 35 36
f 62 36 37
f 62 37 38
f 62 38 39
f 62 39 40
f 62 40 41
f 62 41 42
f 62 42 43
f 62 43 44
f 62 44 45
f 62 45 46
f 62 46 47
f 62 47 48
f 62 48 49
f 62 49 50
f 62 50 51
f 62 51 52
f 62 52 53
f 62 53 54
f 62 54 55
f 62 55 56
f 62 56 57
f 62 57 58
f 62 58 59
f 62 59 60
f 60 61 62
