v -0.427031 0.463189 -1.051004
v -0.428081 0.462219 -1.051148
v -0.429102 0.461272 -1.051492
v -0.430073 0.460366 -1.052030
v -0.430976 0.459521 -1.052751
v -0.431793 0.458753 -1.053639
v -0.432508 0.458080 -1.054677
v -0.433106 0.457514 -1.055843
v -0.433577 0.457068 -1.057113
v -0.433910 0.456752 -1.058462
v -0.434101 0.456570 -1.059862
v -0.325949 0.372534 -1.051004
v -0.327028 0.371588 -1.051148
v -0.328076 0.370663 -1.051493
v -0.329073 0.369779 -1.052032
v -0.329998 0.368953 -1.052754
v -0.330834 0.368203 -1.053643
v -0.331565 0.367545 -1.054681
v -0.332176 0.366993 -1.055847
v -0.332657 0.366557 -1.057117
v -0.332998 0.366248 -1.058465
v -0.333192 0.366071 -1.059863
f 1 13 2
f 1 12 13
f 2 14 3
f 2 13 14
f 3 15 4
f 3 14 15
f 4 16 5
f 4 15 16
f 5 17 6
f 5 16 17
f 6 18 7
f 6 17 18
f 7 19 8
f 7 18 19
f 8 20 9
f 8 19 20
f 9 21 10
f 9 20 21
f 10 22 11
f 10 21 22
