v -0.382835 0.220000 -0.619117
v -0.368981 0.220000 -0.567417
v -0.368981 0.016837 -0.567417
v -0.368948 0.016713 -0.567290
v -0.368914 0.016588 -0.567163
v -0.368880 0.016463 -0.567036
v -0.368846 0.016338 -0.566910
v -0.368812 0.016214 -0.566783
v -0.368778 0.016089 -0.566656
v -0.368744 0.015964 -0.566529
v -0.368710 0.015839 -0.566403
v -0.368676 0.015715 -0.566276
v -0.368642 0.015590 -0.566149
v -0.368608 0.015465 -0.566023
v -0.368574 0.015341 -0.565896
v -0.368540 0.015216 -0.565769
v -0.368506 0.015092 -0.565643
v -0.368472 0.014967 -0.565516
v -0.368438 0.014842 -0.565390
v -0.368404 0.014718 -0.565263
v -0.368371 0.014593 -0.565137
v -0.368337 0.014469 -0.565010
v -0.368303 0.014344 -0.564884
v -0.368269 0.014220 -0.564757
v -0.368235 0.014096 -0.564631
v -0.368201 0.013971 -0.564504
v -0.368167 0.013847 -0.564378
v -0.368133 0.013722 -0.564251
v -0.368100 0.013598 -0.564125
v -0.368066 0.013474 -0.563999
v -0.368032 0.013349 -0.563872
v -0.367998 0.013225 -0.563746
v -0.367964 0.013101 -0.563620
v -0.367930 0.012977 -0.563493
v -0.367896 0.012852 -0.563367
v -0.367863 0.012728 -0.563241
v -0.367829 0.012604 -0.563115
v -0.367795 0.012480 -0.562988
v -0.367761 0.012356 -0.562862
v -0.367727 0.012231 -0.562736
v -0.367693 0.012107 -0.562610
v -0.367660 0.011983 -0.562484
v -0.367626 0.011859 -0.562357
v -0.367592 0.011735 -0.562231
v -0.367558 0.011611 -0.562105
v -0.367524 0.011487 -0.561979
v -0.367491 0.011363 -0.561853
v -0.367457 0.011239 -0.561727
v -0.367423 0.011115 -0.561601
v -0.367389 0.010991 -0.561475
v -0.367356 0.010867 -0.561349
v -0.367322 0.010743 -0.561223
v -0.367288 0.010619 -0.561097
v -0.367254 0.010495 -0.560971
v -0.367221 0.010371 -0.560845
v -0.367187 0.010248 -0.560719
v -0.367153 0.010124 -0.560593
v -0.367119 0.010000 -0.560467
v -0.367119 0.000000 -0.560467
v -0.382835 0.000000 -0.619117
f 60 1 2
f 60 2 3
f 60 3 4
f 60 4 5
f 60 5 6
f 60 6 7
f 60 7 8
f 60 8 9
f 60 9 10
f 60 10 11
f 60 11 12
f 60 12 13
f 60 13 14
f 60 14 15
f 60 15 16
f 60 16 17
f 60 17 18
f 60 18 19
f 60 19 20
f 60 20 21
f 60 21 22
f 60 22 23
f 60 23 24
f 60 24 25
f 60 25 26
f 60 26 27
f 60 27 28
f 60 28 29
f 60 29 30
f 60 30 31
f 60 31 32
f 60 32 33
f 60 33 34
f 60 34 35
f 60 35 36
f 60 36 37
f 60 37 38
f 60 38 39
f 60 39 40
f 60 40 41
f 60 41 42
f 60 42 43
f 60 43 44
f 60 44 45
f 60 45 46
f 60 46 47
f 60 47 48
f 60 48 49
f 60 49 50
f 60 50 51
f 60 51 52
f 60 52 53
f 60 53 54
f 60 54 55
f 60 55 56
f 60 56 57
f 60 57 58
f 58 59 60
