v -0.076147 0.489108 -1.051000
v -0.074725 0.489327 -1.051103
v -0.073333 0.489538 -1.051408
v -0.072000 0.489736 -1.051909
v -0.070753 0.489917 -1.052596
v -0.069616 0.490080 -1.053453
v -0.068613 0.490222 -1.054463
v -0.067764 0.490340 -1.055605
v -0.067085 0.490433 -1.056856
v -0.066591 0.490500 -1.058190
v -0.066291 0.490541 -1.059581
v -0.066190 0.490555 -1.061000
v -0.080619 0.624820 -1.051000
v -0.079197 0.625002 -1.051103
v -0.077806 0.625177 -1.051407
v -0.076472 0.625341 -1.051907
v -0.075224 0.625493 -1.052593
v -0.074086 0.625629 -1.053449
v -0.073082 0.625747 -1.054458
v -0.072231 0.625846 -1.055601
v -0.071551 0.625924 -1.056852
v -0.071056 0.625980 -1.058187
v -0.070755 0.626014 -1.059579
v -0.070653 0.626026 -1.061000
f 1 14 2
f 1 13 14
f 2 15 3
f 2 14 15
f 3 16 4
f 3 15 16
f 4 17 5
f 4 16 17
f 5 18 6
f 5 17 18
f 6 19 7
f 6 18 19
f 7 20 8
f 7 19 20
f 8 21 9
f 8 20 21
f 9 22 10
f 9 21 22
f 10 23 11
f 10 22 23
f 11 24 12
f 11 23 24
