v -0.071935 0.010000 0.666127
v -0.069317 0.010000 0.666405
v -0.066697 0.010000 0.666672
v -0.064076 0.010000 0.666929
v -0.061454 0.010000 0.667176
v -0.058832 0.010000 0.667412
v -0.056208 0.010000 0.667638
v -0.053583 0.010000 0.667854
v -0.050958 0.010000 0.668059
v -0.048332 0.010000 0.668254
v -0.045705 0.010000 0.668439
v -0.035839 0.016837 0.675888
v -0.071935 0.220000 0.666127
v -0.069317 0.220000 0.666405
v -0.066697 0.220000 0.666672
v -0.064076 0.220000 0.666929
v -0.061454 0.220000 0.667176
v -0.058832 0.220000 0.667412
v -0.056208 0.220000 0.667638
v -0.053583 0.220000 0.667854
v -0.050958 0.220000 0.668059
v -0.048332 0.220000 0.668254
v -0.045705 0.220000 0.668439
v -0.035839 0.220000 0.675888
f 1 2 14
f 1 14 13
f 2 3 15
f 2 15 14
f 3 4 16
f 3 16 15
f 4 5 17
f 4 17 16
f 5 6 18
f 5 18 17
f 6 7 19
f 6 19 18
f 7 8 20
f 7 20 19
f 8 9 21
f 8 21 20
f 9 10 22
f 9 22 21
f 10 11 23
f 10 23 22
f 11 12 24
f 11 24 23
