v -2.615000 0.000000 -3.025000
v -2.614904 0.000000 -3.021201
v -2.614615 0.000000 -3.017412
v -2.614135 0.000000 -3.013643
v -2.613465 0.000000 -3.009903
v -2.612606 0.000000 -3.006201
v -2.611560 0.000000 -3.002548
v -2.610331 0.000000 -2.998952
v -2.608922 0.000000 -2.995423
v -2.607335 0.000000 -2.991970
v -2.605576 0.000000 -2.988602
v -2.603648 0.000000 -2.985328
v -2.601557 0.000000 -2.982155
v -2.599308 0.000000 -2.979092
v -2.596907 0.000000 -2.976147
v -2.594359 0.000000 -2.973327
v -2.591673 0.000000 -2.970641
v -2.588853 0.000000 -2.968093
v -2.585908 0.000000 -2.965692
v -2.582845 0.000000 -2.963443
v -2.579672 0.000000 -2.961352
v -2.576398 0.000000 -2.959424
v -2.573030 0.000000 -2.957665
v -2.569577 0.000000 -2.956078
v -2.566048 0.000000 -2.954669
v -2.562452 0.000000 -2.953440
v -2.558799 0.000000 -2.952394
v -2.555097 0.000000 -2.951535
v -2.551357 0.000000 -2.950865
v -2.547588 0.000000 -2.950385
v -2.543799 0.000000 -2.950096
v -2.540000 0.000000 -2.950000
v -2.615000 0.250000 -3.025000
v -2.614904 0.250000 -3.021201
v -2.614615 0.250000 -3.017412
v -2.614135 0.250000 -3.013643
v -2.613465 0.250000 -3.009903
v -2.612606 0.250000 -3.006201
v -2.611560 0.250000 -3.002548
v -2.610331 0.250000 -2.998952
v -2.608922 0.250000 -2.995423
v -2.607335 0.250000 -2.991970
v -2.605576 0.250000 -2.988602
v -2.603648 0.250000 -2.985328
v -2.601557 0.250000 -2.982155
v -2.599308 0.250000 -2.979092
v -2.596907 0.250000 -2.976147
v -2.594359 0.250000 -2.973327
v -2.591673 0.250000 -2.970641
v -2.588853 0.250000 -2.968093
v -2.585908 0.250000 -2.965692
v -2.582845 0.250000 -2.963443
v -2.579672 0.250000 -2.961352
v -2.576398 0.250000 -2.959424
v -2.573030 0.250000 -2.957665
v -2.569577 0.250000 -2.956078
v -2.566048 0.250000 -2.954669
v -2.562452 0.250000 -2.953440
v -2.558799 0.250000 -2.952394
v -2.555097 0.250000 -2.951535
v -2.551357 0.250000 -2.950865
v -2.547588 0.250000 -2.950385
v -2.543799 0.250000 -2.950096
v -2.540000 0.250000 -2.950000
f 1 2 34
f 1 34 33
f 2 3 35
f 2 35 34
f 3 4 36
f 3 36 35
f 4 5 37
f 4 37 36
f 5 6 38
f 5 38 37
f 6 7 39
f 6 39 38
f 7 8 40
f 7 40 39
f 8 9 41
f 8 41 40
f 9 10 42
f 9 42 41
f 10 11 43
f 10 43 42
f 11 12 44
f 11 44 43
f 12 13 45
f 12 45 44
f 13 14 46
f 13 46 45
f 14 15 47
f 14 47 46
f 15 16 48
f 15 48 47
f 16 17 49
f 16 49 48
f 17 18 50
f 17 50 49
f 18 19 51
f 18 51 50
f 19 20 52
f 19 52 51
f 20 21 53
f 20 53 52
f 21 22 54
f 21 54 53
f 22 23 55
f 22 55 54
f 23 24 56
f 23 56 55
f 24 25 57
f 24 57 56
f 25 26 58
f 25 58 57
f 26 27 59
f 26 59 58
f 27 28 60
f 27 60 59
f 28 29 61
f 28 61 60
f 29 30 62
f 29 62 61
f 30 31 63
f 30 63 62
f 31 32 64
f 31 64 63
