v -0.042546 -0.655899 -1.087726
v -0.048676 -0.628117 -1.094996
v -0.048389 -0.628139 -1.094984
v -0.048105 -0.628161 -1.094963
v -0.047824 -0.628182 -1.094935
v -0.047547 -0.628203 -1.094899
v -0.047272 -0.628224 -1.094855
v -0.047000 -0.628244 -1.094802
v -0.046731 -0.628264 -1.094743
v -0.046464 -0.628284 -1.094675
v -0.046201 -0.628304 -1.094599
v -0.045939 -0.628323 -1.094516
v -0.045680 -0.628342 -1.094426
v -0.045423 -0.628360 -1.094327
v -0.045169 -0.628379 -1.094221
v -0.044917 -0.628397 -1.094108
v -0.044667 -0.628415 -1.093987
v -0.044420 -0.628432 -1.093859
v -0.044176 -0.628449 -1.093724
v -0.043935 -0.628466 -1.093582
v -0.043698 -0.628483 -1.093432
v -0.043464 -0.628499 -1.093276
v -0.043235 -0.628515 -1.093113
v -0.043010 -0.628530 -1.092943
v -0.042789 -0.628545 -1.092766
v -0.042573 -0.628560 -1.092582
v -0.042363 -0.628574 -1.092392
v -0.042157 -0.628588 -1.092195
v -0.041957 -0.628601 -1.091992
v -0.041763 -0.628614 -1.091782
v -0.041575 -0.628627 -1.091567
v -0.041393 -0.628639 -1.091346
v -0.041216 -0.628650 -1.091119
v -0.041047 -0.628661 -1.090887
v -0.040883 -0.628672 -1.090650
v -0.040726 -0.628682 -1.090409
v -0.040576 -0.628692 -1.090163
v -0.040432 -0.628701 -1.089913
v -0.040295 -0.628710 -1.089658
v -0.040166 -0.628718 -1.089401
v -0.040043 -0.628726 -1.089139
v -0.039928 -0.628733 -1.088875
v -0.039820 -0.628740 -1.088608
v -0.039720 -0.628747 -1.088338
v -0.039627 -0.628753 -1.088065
v -0.039542 -0.628758 -1.087789
v -0.039464 -0.628763 -1.087510
v -0.039395 -0.628767 -1.087227
v -0.039333 -0.628771 -1.086941
v -0.039279 -0.628774 -1.086652
v -0.039234 -0.628777 -1.086360
v -0.039196 -0.628780 -1.086064
v -0.039167 -0.628781 -1.085764
v -0.039146 -0.628783 -1.085460
v -0.039133 -0.628783 -1.085153
v -0.039129 -0.628784 -1.084841
v -0.060845 -0.627055 -1.095000
v -0.056511 -0.494138 -1.130371
v -0.056434 -0.491773 -1.131000
v -0.055577 -0.491870 -1.131000
v -0.030679 -0.494048 -1.131000
v -0.029819 -0.494101 -1.131000
v -0.030154 -0.496440 -1.130372
v -0.035012 -0.504605 -1.128115
v -0.032742 -0.504758 -1.128115
v -0.056591 -0.513528 -1.125230
v -0.035761 -0.515398 -1.125230
v -0.033442 -0.515553 -1.125230
v -0.055417 -0.524536 -1.122345
v -0.038876 -0.526021 -1.122345
v -0.036510 -0.526190 -1.122345
v -0.056554 -0.535295 -1.119460
v -0.039673 -0.536810 -1.119460
v -0.037258 -0.536983 -1.119460
v -0.057690 -0.546053 -1.116575
v -0.040471 -0.547599 -1.116575
v -0.038007 -0.547775 -1.116575
v -0.056322 -0.557071 -1.113690
v -0.043780 -0.558197 -1.113690
v -0.041268 -0.558388 -1.113690
v -0.057410 -0.567835 -1.110805
v -0.044625 -0.568982 -1.110805
v -0.042066 -0.569177 -1.110805
v -0.058498 -0.578598 -1.107921
v -0.045471 -0.579767 -1.107921
v -0.042863 -0.579966 -1.107921
v -0.056935 -0.589624 -1.105036
v -0.048973 -0.590338 -1.105036
v -0.046317 -0.590553 -1.105036
v -0.057975 -0.600392 -1.102151
v -0.049868 -0.601120 -1.102151
v -0.047163 -0.601338 -1.102151
v -0.059014 -0.611161 -1.099266
v -0.050762 -0.611901 -1.099266
v -0.048009 -0.612124 -1.099266
v -0.060054 -0.621929 -1.096381
v -0.051656 -0.622683 -1.096381
v -0.048855 -0.622909 -1.096381
v -0.055400 -0.633221 -1.093496
v -0.049701 -0.633694 -1.093496
v -0.046850 -0.633911 -1.093496
v -0.050547 -0.644480 -1.090611
v -0.047647 -0.644700 -1.090611
v -0.044747 -0.644908 -1.090611
v -0.045496 -0.655701 -1.087726
v -0.056588 -0.496506 -1.129741
v -0.031540 -0.493994 -1.131000
v -0.037281 -0.504443 -1.128115
v -0.038079 -0.515232 -1.125230
v -0.041242 -0.525841 -1.122345
v -0.042088 -0.536626 -1.119460
v -0.042934 -0.547411 -1.116575
v -0.046290 -0.557994 -1.113690
v -0.047184 -0.568776 -1.110805
v -0.048079 -0.579557 -1.107921
v -0.051628 -0.590112 -1.105036
v -0.052571 -0.600890 -1.102151
v -0.053514 -0.611667 -1.099266
v -0.054457 -0.622444 -1.096381
v -0.052551 -0.633464 -1.093496
v -0.056665 -0.498878 -1.129110
v -0.032400 -0.493939 -1.131000
v -0.048604 -0.625562 -1.095681
v -0.048966 -0.628094 -1.095000
v -0.055406 -0.502775 -1.128115
v -0.039550 -0.504270 -1.128115
v -0.040396 -0.515055 -1.125230
v -0.043607 -0.525650 -1.122345
v -0.044501 -0.536431 -1.119460
v -0.045396 -0.547213 -1.116575
v -0.048799 -0.557780 -1.113690
v -0.049742 -0.568558 -1.110805
v -0.050685 -0.579335 -1.107921
v -0.054282 -0.589874 -1.105036
v -0.055273 -0.600647 -1.102151
v -0.056265 -0.611420 -1.099266
v -0.057256 -0.622193 -1.096381
v -0.056742 -0.501254 -1.128479
v -0.033260 -0.493881 -1.131000
v -0.048243 -0.623033 -1.096361
v -0.041818 -0.504087 -1.128115
v -0.042712 -0.514868 -1.125230
v -0.045971 -0.525448 -1.122345
v -0.046914 -0.536226 -1.119460
v -0.047857 -0.547003 -1.116575
v -0.051308 -0.557555 -1.113690
v -0.052299 -0.568328 -1.110805
v -0.053291 -0.579101 -1.107921
v -0.056819 -0.503633 -1.127846
v -0.034120 -0.493823 -1.131000
v -0.044085 -0.503894 -1.128115
v -0.045028 -0.514671 -1.125230
v -0.048334 -0.525236 -1.122345
v -0.049325 -0.536009 -1.119460
v -0.050317 -0.546782 -1.116575
v -0.053815 -0.557319 -1.113690
v -0.054855 -0.568087 -1.110805
v -0.055895 -0.578855 -1.107921
v -0.056897 -0.506016 -1.127212
v -0.034980 -0.493763 -1.131000
v -0.046351 -0.503690 -1.128115
v -0.047343 -0.514463 -1.125230
v -0.050696 -0.525013 -1.122345
v -0.051736 -0.535782 -1.119460
v -0.052776 -0.546550 -1.116575
v -0.056975 -0.508402 -1.126577
v -0.035839 -0.493701 -1.131000
v -0.048616 -0.503477 -1.128115
v -0.049656 -0.514245 -1.125230
v -0.053057 -0.524780 -1.122345
v -0.054145 -0.535544 -1.119460
v -0.055234 -0.546307 -1.116575
v -0.057052 -0.510792 -1.125942
v -0.036699 -0.493638 -1.131000
v -0.047882 -0.620507 -1.097039
v -0.050881 -0.503253 -1.128115
v -0.051969 -0.514017 -1.125230
v -0.057130 -0.513185 -1.125305
v -0.037558 -0.493573 -1.131000
v -0.047522 -0.617986 -1.097717
v -0.053144 -0.503019 -1.128115
v -0.054280 -0.513778 -1.125230
v -0.057208 -0.515582 -1.124668
v -0.038418 -0.493507 -1.131000
v -0.047162 -0.615467 -1.098394
v -0.057287 -0.517982 -1.124029
v -0.039277 -0.493439 -1.131000
v -0.046803 -0.612953 -1.099070
v -0.060762 -0.624502 -1.095680
v -0.057365 -0.520386 -1.123390
v -0.040136 -0.493370 -1.131000
v -0.046445 -0.610442 -1.099745
v -0.060679 -0.621952 -1.096359
v -0.057443 -0.522794 -1.122749
v -0.040995 -0.493300 -1.131000
v -0.046086 -0.607934 -1.100419
v -0.060595 -0.619406 -1.097036
v -0.057522 -0.525205 -1.122108
v -0.041854 -0.493227 -1.131000
v -0.045729 -0.605430 -1.101092
v -0.060512 -0.616864 -1.097713
v -0.057600 -0.527619 -1.121466
v -0.042713 -0.493154 -1.131000
v -0.045371 -0.602929 -1.101764
v -0.060429 -0.614324 -1.098389
v -0.057679 -0.530037 -1.120822
v -0.043571 -0.493079 -1.131000
v -0.045015 -0.600432 -1.102435
v -0.057758 -0.532459 -1.120178
v -0.044430 -0.493002 -1.131000
v -0.044659 -0.597939 -1.103106
v -0.060347 -0.611789 -1.099065
v -0.057837 -0.534884 -1.119533
v -0.045288 -0.492924 -1.131000
v -0.044303 -0.595449 -1.103775
v -0.060264 -0.609256 -1.099739
v -0.057916 -0.537312 -1.118887
v -0.046146 -0.492844 -1.131000
v -0.043948 -0.592963 -1.104443
v -0.060181 -0.606727 -1.100412
v -0.057996 -0.539745 -1.118240
v -0.047005 -0.492763 -1.131000
v -0.043593 -0.590480 -1.105110
v -0.060099 -0.604202 -1.101084
v -0.058075 -0.542180 -1.117592
v -0.047863 -0.492681 -1.131000
v -0.043239 -0.588000 -1.105777
v -0.060016 -0.601680 -1.101756
v -0.058155 -0.544620 -1.116942
v -0.048720 -0.492597 -1.131000
v -0.042885 -0.585524 -1.106442
v -0.059934 -0.599161 -1.102426
v -0.058234 -0.547062 -1.116292
v -0.049578 -0.492511 -1.131000
v -0.042532 -0.583052 -1.107106
v -0.059852 -0.596646 -1.103096
v -0.058314 -0.549509 -1.115642
v -0.050436 -0.492424 -1.131000
v -0.042179 -0.580583 -1.107770
v -0.059770 -0.594134 -1.103764
v -0.058394 -0.551959 -1.114990
v -0.051293 -0.492335 -1.131000
v -0.041827 -0.578118 -1.108432
v -0.059688 -0.591626 -1.104432
v -0.058474 -0.554412 -1.114337
v -0.052150 -0.492245 -1.131000
v -0.041475 -0.575656 -1.109094
v -0.059606 -0.589121 -1.105099
v -0.058554 -0.556869 -1.113683
v -0.053007 -0.492154 -1.131000
v -0.041124 -0.573198 -1.109754
v -0.059525 -0.586620 -1.105765
v -0.058634 -0.559329 -1.113028
v -0.053864 -0.492061 -1.131000
v -0.040773 -0.570744 -1.110414
v -0.059443 -0.584122 -1.106430
v -0.058715 -0.561793 -1.112373
v -0.054721 -0.491966 -1.131000
v -0.040423 -0.568292 -1.111072
v -0.059362 -0.581627 -1.107094
v -0.058795 -0.564260 -1.111716
v -0.040073 -0.565845 -1.111730
v -0.058876 -0.566731 -1.111059
v -0.030488 -0.498782 -1.129743
v -0.039724 -0.563401 -1.112387
v -0.059280 -0.579136 -1.107757
v -0.058956 -0.569205 -1.110400
v -0.030824 -0.501128 -1.129113
v -0.039375 -0.560961 -1.113042
v -0.059199 -0.576648 -1.108419
v -0.059037 -0.571682 -1.109741
v -0.031160 -0.503478 -1.128482
v -0.039027 -0.558524 -1.113697
v -0.059118 -0.574163 -1.109080
v -0.031496 -0.505831 -1.127850
v -0.038680 -0.556091 -1.114351
v -0.031833 -0.508188 -1.127218
v -0.038332 -0.553661 -1.115004
v -0.032171 -0.510549 -1.126584
v -0.037986 -0.551235 -1.115655
v -0.037640 -0.548813 -1.116306
v -0.032509 -0.512913 -1.125949
v -0.037294 -0.546394 -1.116956
v -0.032847 -0.515281 -1.125313
v -0.036949 -0.543979 -1.117605
v -0.033186 -0.517652 -1.124676
v -0.036604 -0.541567 -1.118253
v -0.033526 -0.520027 -1.124038
v -0.036260 -0.539159 -1.118899
v -0.033866 -0.522406 -1.123399
v -0.035916 -0.536755 -1.119545
v -0.034206 -0.524788 -1.122759
v -0.035573 -0.534354 -1.120190
v -0.034547 -0.527174 -1.122119
v -0.035231 -0.531957 -1.120834
v -0.034889 -0.529564 -1.121477
f 1 2 3
f 3 4 5
f 5 6 7
f 7 8 9
f 9 10 11
f 11 12 13
f 13 14 15
f 15 16 17
f 17 18 19
f 19 20 21
f 21 22 23
f 23 24 25
f 25 26 27
f 27 28 29
f 29 30 31
f 31 32 33
f 33 34 35
f 35 36 37
f 37 38 39
f 39 40 41
f 41 42 43
f 43 44 45
f 45 46 47
f 47 48 49
f 49 50 51
f 51 52 53
f 53 54 55
f 55 56 57
f 58 59 60
f 61 62 63
f 64 65 66
f 67 68 69
f 70 71 72
f 73 74 75
f 76 77 78
f 79 80 81
f 82 83 84
f 85 86 87
f 88 89 90
f 91 92 93
f 94 95 96
f 97 98 99
f 100 101 102
f 103 104 105
f 1 3 5
f 5 7 9
f 9 11 13
f 13 15 17
f 17 19 21
f 21 23 25
f 25 27 29
f 29 31 33
f 33 35 37
f 37 39 41
f 41 43 45
f 45 47 49
f 49 51 53
f 53 55 57
f 106 58 60
f 107 61 63
f 108 64 66
f 109 67 69
f 110 70 72
f 111 73 75
f 112 76 78
f 113 79 81
f 114 82 84
f 115 85 87
f 116 88 90
f 117 91 93
f 118 94 96
f 119 97 99
f 120 100 102
f 102 103 105
f 1 5 9
f 9 13 17
f 17 21 25
f 25 29 33
f 33 37 41
f 41 45 49
f 121 106 60
f 122 107 63
f 123 124 125
f 126 108 66
f 127 109 69
f 128 110 72
f 129 111 75
f 130 112 78
f 131 113 81
f 132 114 84
f 133 115 87
f 134 116 90
f 135 117 93
f 136 118 96
f 137 119 99
f 99 120 102
f 1 9 17
f 17 25 33
f 33 41 49
f 138 121 60
f 139 122 63
f 140 123 125
f 141 126 66
f 142 127 69
f 143 128 72
f 144 129 75
f 145 130 78
f 146 131 81
f 147 132 84
f 148 133 87
f 87 134 90
f 90 135 93
f 93 136 96
f 96 137 99
f 1 17 33
f 33 49 53
f 149 138 60
f 150 139 63
f 151 141 66
f 152 142 69
f 153 143 72
f 154 144 75
f 155 145 78
f 156 146 81
f 157 147 84
f 158 148 87
f 1 33 53
f 159 149 60
f 160 150 63
f 161 151 66
f 162 152 69
f 163 153 72
f 164 154 75
f 165 155 78
f 78 156 81
f 81 157 84
f 84 158 87
f 105 1 53
f 166 159 60
f 167 160 63
f 168 161 66
f 169 162 69
f 170 163 72
f 171 164 75
f 172 165 78
f 84 87 90
f 105 53 57
f 173 166 60
f 174 167 63
f 175 140 125
f 176 168 66
f 177 169 69
f 69 170 72
f 72 171 75
f 75 172 78
f 84 90 93
f 99 102 57
f 102 105 57
f 178 173 60
f 179 174 63
f 180 175 125
f 181 176 66
f 182 177 69
f 75 78 81
f 84 93 96
f 96 99 57
f 183 178 60
f 184 179 63
f 185 180 125
f 125 181 66
f 66 182 69
f 75 81 84
f 84 96 57
f 186 183 60
f 187 184 63
f 188 185 125
f 66 69 72
f 84 57 189
f 190 186 60
f 191 187 63
f 192 188 125
f 66 72 75
f 84 189 193
f 194 190 60
f 195 191 63
f 196 192 125
f 84 193 197
f 198 194 60
f 199 195 63
f 200 196 125
f 84 197 201
f 202 198 60
f 203 199 63
f 204 200 125
f 84 201 205
f 206 202 60
f 207 203 63
f 208 204 125
f 75 84 205
f 209 206 60
f 210 207 63
f 211 208 125
f 75 205 212
f 213 209 60
f 214 210 63
f 215 211 125
f 75 212 216
f 217 213 60
f 218 214 63
f 219 215 125
f 75 216 220
f 221 217 60
f 222 218 63
f 223 219 125
f 75 220 224
f 225 221 60
f 226 222 63
f 227 223 125
f 75 224 228
f 229 225 60
f 230 226 63
f 231 227 125
f 75 228 232
f 233 229 60
f 234 230 63
f 235 231 125
f 75 232 236
f 237 233 60
f 238 234 63
f 239 235 125
f 75 236 240
f 241 237 60
f 242 238 63
f 243 239 125
f 75 240 244
f 245 241 60
f 246 242 63
f 247 243 125
f 75 244 248
f 249 245 60
f 250 246 63
f 251 247 125
f 75 248 252
f 253 249 60
f 254 250 63
f 255 251 125
f 75 252 256
f 257 253 60
f 258 254 63
f 259 255 125
f 75 256 260
f 261 257 60
f 60 258 63
f 262 259 125
f 66 75 260
f 263 261 60
f 60 63 264
f 265 262 125
f 66 260 266
f 267 263 60
f 60 264 268
f 269 265 125
f 66 266 270
f 271 267 60
f 60 268 272
f 273 269 125
f 66 270 274
f 274 271 60
f 60 272 275
f 276 273 125
f 66 274 60
f 60 275 277
f 278 276 125
f 125 66 60
f 60 277 279
f 280 278 125
f 125 60 279
f 281 280 125
f 125 279 282
f 283 281 125
f 125 282 284
f 285 283 125
f 125 284 286
f 287 285 125
f 125 286 288
f 289 287 125
f 125 288 290
f 291 289 125
f 125 290 292
f 293 291 125
f 125 292 294
f 295 293 125
f 125 294 296
f 296 295 125
f 124 2 3
