v -0.970000 0.389486 -6.351204
v -0.970000 0.388916 -6.368065
v -0.970000 0.391189 -6.384781
v -0.970000 0.396239 -6.400878
v -0.970000 0.403923 -6.415896
v -0.970000 0.414023 -6.429409
v -0.970000 0.426250 -6.441032
v -0.970000 0.440257 -6.450435
v -0.970000 0.455646 -6.457348
v -0.970000 0.471978 -6.461577
v -0.970000 0.488788 -6.463000
v 0.230000 0.389486 -6.351204
v 0.230000 0.388916 -6.368065
v 0.230000 0.391189 -6.384781
v 0.230000 0.396239 -6.400878
v 0.230000 0.403923 -6.415896
v 0.230000 0.414023 -6.429409
v 0.230000 0.426250 -6.441032
v 0.230000 0.440257 -6.450435
v 0.230000 0.455646 -6.457348
v 0.230000 0.471978 -6.461577
v 0.230000 0.488788 -6.463000
f 1 2 13
f 1 13 12
f 2 3 14
f 2 14 13
f 3 4 15
f 3 15 14
f 4 5 16
f 4 16 15
f 5 6 17
f 5 17 16
f 6 7 18
f 6 18 17
f 7 8 19
f 7 19 18
f 8 9 20
f 8 20 19
f 9 10 21
f 9 21 20
f 10 11 22
f 10 22 21
