v 0.315000 0.000000 -3.380000
v 0.313384 0.031868 -3.380000
v 0.308552 0.063409 -3.380000
v 0.300554 0.094299 -3.380000
v 0.289472 0.124222 -3.380000
v 0.275419 0.152870 -3.380000
v 0.258540 0.179949 -3.380000
v 0.239009 0.205182 -3.380000
v 0.217025 0.228310 -3.380000
v 0.192813 0.249094 -3.380000
v 0.166624 0.267323 -3.380000
v 0.138724 0.282808 -3.380000
v 0.109401 0.295392 -3.380000
v 0.078956 0.304944 -3.380000
v 0.047700 0.311368 -3.380000
v 0.015954 0.314596 -3.380000
v -0.015954 0.314596 -3.380000
v -0.047700 0.311368 -3.380000
v -0.078956 0.304944 -3.380000
v -0.109401 0.295392 -3.380000
v -0.138724 0.282808 -3.380000
v -0.166624 0.267323 -3.380000
v -0.192813 0.249094 -3.380000
v -0.217025 0.228310 -3.380000
v -0.239009 0.205182 -3.380000
v -0.258540 0.179949 -3.380000
v -0.275419 0.152870 -3.380000
v -0.289472 0.124222 -3.380000
v -0.300554 0.094299 -3.380000
v -0.308552 0.063409 -3.380000
v -0.313384 0.031868 -3.380000
v -0.315000 0.000000 -3.380000
v -0.313384 -0.031868 -3.380000
v -0.308552 -0.063409 -3.380000
v -0.300554 -0.094299 -3.380000
v -0.289472 -0.124222 -3.380000
v -0.275419 -0.152870 -3.380000
v -0.258540 -0.179949 -3.380000
v -0.239009 -0.205182 -3.380000
v -0.217025 -0.228310 -3.380000
v -0.192813 -0.249094 -3.380000
v -0.166624 -0.267323 -3.380000
v -0.138724 -0.282808 -3.380000
v -0.109401 -0.295392 -3.380000
v -0.078956 -0.304944 -3.380000
v -0.047700 -0.311368 -3.380000
v -0.015954 -0.314596 -3.380000
v 0.015954 -0.314596 -3.380000
v 0.047700 -0.311368 -3.380000
v 0.078956 -0.304944 -3.380000
v 0.109401 -0.295392 -3.380000
v 0.138724 -0.282808 -3.380000
v 0.166624 -0.267323 -3.380000
v 0.192813 -0.249094 -3.380000
v 0.217025 -0.228310 -3.380000
v 0.239009 -0.205182 -3.380000
v 0.258540 -0.179949 -3.380000
v 0.275419 -0.152870 -3.380000
v 0.289472 -0.124222 -3.380000
v 0.300554 -0.094299 -3.380000
v 0.308552 -0.063409 -3.380000
v 0.313384 -0.031868 -3.380000
v 0.187500 0.000000 -3.380000
v 0.186538 0.018969 -3.380000
v 0.183662 0.037743 -3.380000
v 0.178901 0.056131 -3.380000
v 0.172305 0.073942 -3.380000
v 0.163940 0.090994 -3.380000
v 0.153893 0.107113 -3.380000
v 0.142267 0.122132 -3.380000
v 0.129181 0.135899 -3.380000
v 0.114770 0.148270 -3.380000
v 0.099181 0.159121 -3.380000
v 0.082574 0.168338 -3.380000
v 0.065120 0.175829 -3.380000
v 0.046997 0.181514 -3.380000
v 0.028393 0.185338 -3.380000
v 0.009497 0.187259 -3.380000
v -0.009497 0.187259 -3.380000
v -0.028393 0.185338 -3.380000
v -0.046997 0.181514 -3.380000
v -0.065120 0.175829 -3.380000
v -0.082574 0.168338 -3.380000
v -0.099181 0.159121 -3.380000
v -0.114770 0.148270 -3.380000
v -0.129181 0.135899 -3.380000
v -0.142267 0.122132 -3.380000
v -0.153893 0.107113 -3.380000
v -0.163940 0.090994 -3.380000
v -0.172305 0.073942 -3.380000
v -0.178901 0.056131 -3.380000
v -0.183662 0.037743 -3.380000
v -0.186538 0.018969 -3.380000
v -0.187500 0.000000 -3.380000
v -0.186538 -0.018969 -3.380000
v -0.183662 -0.037743 -3.380000
v -0.178901 -0.056131 -3.380000
v -0.172305 -0.073942 -3.380000
v -0.163940 -0.090994 -3.380000
v -0.153893 -0.107113 -3.380000
v -0.142267 -0.122132 -3.380000
v -0.129181 -0.135899 -3.380000
v -0.114770 -0.148270 -3.380000
v -0.099181 -0.159121 -3.380000
v -0.082574 -0.168338 -3.380000
v -0.065120 -0.175829 -3.380000
v -0.046997 -0.181514 -3.380000
v -0.028393 -0.185338 -3.380000
v -0.009497 -0.187259 -3.380000
v 0.009497 -0.187259 -3.380000
v 0.028393 -0.185338 -3.380000
v 0.046997 -0.181514 -3.380000
v 0.065120 -0.175829 -3.380000
v 0.082574 -0.168338 -3.380000
v 0.099181 -0.159121 -3.380000
v 0.114770 -0.148270 -3.380000
v 0.129181 -0.135899 -3.380000
v 0.142267 -0.122132 -3.380000
v 0.153893 -0.107113 -3.380000
v 0.163940 -0.090994 -3.380000
v 0.172305 -0.073942 -3.380000
v 0.178901 -0.056131 -3.380000
v 0.183662 -0.037743 -3.380000
v 0.186538 -0.018969 -3.380000
f 1 64 2
f 1 63 64
f 2 65 3
f 2 64 65
f 3 66 4
f 3 65 66
f 4 67 5
f 4 66 67
f 5 68 6
f 5 67 68
f 6 69 7
f 6 68 69
f 7 70 8
f 7 69 70
f 8 71 9
f 8 70 71
f 9 72 10
f 9 71 72
f 10 73 11
f 10 72 73
f 11 74 12
f 11 73 74
f 12 75 13
f 12 74 75
f 13 76 14
f 13 75 76
f 14 77 15
f 14 76 77
f 15 78 16
f 15 77 78
f 16 79 17
f 16 78 79
f 17 80 18
f 17 79 80
f 18 81 19
f 18 80 81
f 19 82 20
f 19 81 82
f 20 83 21
f 20 82 83
f 21 84 22
f 21 83 84
f 22 85 23
f 22 84 85
f 23 86 24
f 23 85 86
f 24 87 25
f 24 86 87
f 25 88 26
f 25 87 88
f 26 89 27
f 26 88 89
f 27 90 28
f 27 89 90
f 28 91 29
f 28 90 91
f 29 92 30
f 29 91 92
f 30 93 31
f 30 92 93
f 31 94 32
f 31 93 94
f 32 95 33
f 32 94 95
f 33 96 34
f 33 95 96
f 34 97 35
f 34 96 97
f 35 98 36
f 35 97 98
f 36 99 37
f 36 98 99
f 37 100 38
f 37 99 100
f 38 101 39
f 38 100 101
f 39 102 40
f 39 101 102
f 40 103 41
f 40 102 103
f 41 104 42
f 41 103 104
f 42 105 43
f 42 104 105
f 43 106 44
f 43 105 106
f 44 107 45
f 44 106 107
f 45 108 46
f 45 107 108
f 46 109 47
f 46 108 109
f 47 110 48
f 47 109 110
f 48 111 49
f 48 110 111
f 49 112 50
f 49 111 112
f 50 113 51
f 50 112 113
f 51 114 52
f 51 113 114
f 52 115 53
f 52 114 115
f 53 116 54
f 53 115 116
f 54 117 55
f 54 116 117
f 55 118 56
f 55 117 118
f 56 119 57
f 56 118 119
f 57 120 58
f 57 119 120
f 58 121 59
f 58 120 121
f 59 122 60
f 59 121 122
f 60 123 61
f 60 122 123
f 61 124 62
f 61 123 124
f 62 63 1
f 62 124 63
