v -0.975141 0.505622 -6.116806
v -0.970000 0.521802 -6.113051
v -0.970000 0.519555 -6.113203
v -1.019936 0.521559 -6.162560
v -1.020000 0.524053 -6.163000
v -1.019936 0.524053 -6.160468
v -0.970842 0.514335 -6.113961
v -0.971652 0.504990 -6.116806
v -0.972621 0.514657 -6.113961
v -0.988806 0.520523 -6.116806
v -0.987832 0.517114 -6.116806
v -0.997302 0.518928 -6.121427
v -1.011636 0.498144 -6.153245
v -1.013050 0.507302 -6.143866
v -1.008744 0.508977 -6.135221
v -1.002949 0.511232 -6.127645
v -0.995888 0.513980 -6.121427
v -0.986246 0.513944 -6.116806
v -0.993585 0.509377 -6.121427
v -0.984102 0.511121 -6.116806
v -0.981474 0.508741 -6.116806
v -0.978453 0.506887 -6.116806
v -0.986658 0.501823 -6.121427
v -1.000018 0.505374 -6.127645
v -0.996057 0.500157 -6.127645
v -1.005298 0.502089 -6.135221
v -0.999407 0.484810 -6.153245
v -1.004045 0.492831 -6.143866
v -1.000640 0.495954 -6.135221
v -0.973590 0.482635 -6.135221
v -0.982411 0.479557 -6.143866
v -0.990406 0.482611 -6.143866
v -0.994930 0.490784 -6.135221
v -0.991202 0.495760 -6.127645
v -0.972399 0.496378 -6.121427
v -0.979499 0.489998 -6.127645
v -0.985618 0.492334 -6.127645
v -0.977463 0.497296 -6.121427
v -0.982271 0.499132 -6.121427
v -0.970000 0.517317 -6.113456
v -1.019743 0.519071 -6.162122
v -0.977571 0.524053 -6.113577
v -0.975058 0.524053 -6.113257
v -0.970000 0.524053 -6.113000
v -0.972532 0.524053 -6.113064
v -0.990473 0.505278 -6.121427
v -0.997701 0.487086 -6.143866
v -0.991663 0.480058 -6.153245
v -0.988365 0.486756 -6.135221
v -1.019423 0.516597 -6.161685
v -0.981169 0.484008 -6.135221
v -0.970000 0.477165 -6.145635
v -0.970000 0.476431 -6.147763
v -0.972532 0.474876 -6.154329
v -0.970000 0.475793 -6.149923
v -0.970000 0.475253 -6.152109
v -0.970000 0.474813 -6.154318
v -1.018976 0.514141 -6.161252
v -0.974309 0.515302 -6.113961
v -0.973053 0.488830 -6.127645
v -0.970000 0.479932 -6.139477
v -0.970000 0.478918 -6.141487
v -0.970000 0.477995 -6.143541
v -1.018404 0.511711 -6.160824
v -0.975850 0.516247 -6.113961
v -0.970000 0.515094 -6.113809
v -0.970000 0.481036 -6.137514
v -1.017707 0.509312 -6.160401
v -0.977189 0.517460 -6.113961
v -0.970000 0.483503 -6.133748
v -0.970000 0.482227 -6.135603
v -1.016888 0.506952 -6.159985
v -0.978282 0.518899 -6.113961
v -1.009221 0.499648 -6.143866
v -0.973989 0.478032 -6.143866
v -0.970000 0.486299 -6.130218
v -0.970000 0.484861 -6.131951
v -1.015948 0.504635 -6.159576
v -0.979091 0.520516 -6.113961
v -0.974235 0.475197 -6.153245
v -0.970000 0.487813 -6.128552
v -1.014890 0.502368 -6.159176
v -0.979587 0.522254 -6.113961
v -1.006142 0.490908 -6.153245
v -0.970000 0.512888 -6.114263
v -0.970000 0.492784 -6.123984
v -0.970000 0.491059 -6.125431
v -0.970000 0.489401 -6.126955
v -1.013717 0.500157 -6.158786
v -1.019743 0.524053 -6.157942
v -1.019423 0.524053 -6.155429
v -1.018976 0.524053 -6.152935
v -1.018404 0.524053 -6.150467
v -1.017707 0.524053 -6.148032
v -1.016888 0.524053 -6.145635
v -1.015948 0.524053 -6.143282
v -1.014890 0.524053 -6.140980
v -1.013717 0.524053 -6.138735
v -1.012432 0.524053 -6.136552
v -1.011038 0.524053 -6.134437
v -1.009539 0.524053 -6.132395
v -1.007938 0.524053 -6.130431
v -1.006240 0.524053 -6.128552
v -1.004448 0.524053 -6.126760
v -1.002569 0.524053 -6.125062
v -1.000605 0.524053 -6.123461
v -0.998563 0.524053 -6.121962
v -0.996448 0.524053 -6.120568
v -0.994265 0.524053 -6.119283
v -0.992020 0.524053 -6.118110
v -0.989718 0.524053 -6.117052
v -0.987365 0.524053 -6.116112
v -0.984968 0.524053 -6.115293
v -0.982533 0.524053 -6.114596
v -0.980065 0.524053 -6.114024
v -0.970000 0.510705 -6.114815
v -0.970000 0.494573 -6.122615
v -1.012432 0.498007 -6.158407
v -0.970000 0.508549 -6.115465
v -0.970000 0.498325 -6.120127
v -0.970000 0.496421 -6.121329
v -1.011038 0.495924 -6.158040
v -0.970000 0.506424 -6.116211
v -0.970000 0.500282 -6.119012
v -1.009539 0.493913 -6.157685
v -1.004749 0.517531 -6.127645
v -0.970000 0.504335 -6.117052
v -0.970000 0.502286 -6.117987
v -1.007938 0.491979 -6.157345
v -1.010860 0.516384 -6.135221
v -1.006240 0.490128 -6.157018
v -1.015401 0.515531 -6.143866
v -1.004448 0.488364 -6.156707
v -1.018198 0.515006 -6.153245
v -0.983175 0.476817 -6.153245
v -1.002569 0.486691 -6.156412
v -1.015701 0.506270 -6.153245
v -1.000605 0.485115 -6.156134
v -0.998563 0.483638 -6.155874
v -0.975058 0.475065 -6.154362
v -0.996448 0.482265 -6.155632
v -0.977571 0.475380 -6.154418
v -0.994265 0.481000 -6.155409
v -0.980065 0.475821 -6.154495
v -0.992020 0.479845 -6.155205
v -0.982533 0.476385 -6.154595
v -0.989718 0.478803 -6.155021
v -0.984968 0.477071 -6.154716
v -0.987365 0.477878 -6.154858
f 1 3 2
f 4 6 5
f 7 9 8
f 10 12 11
f 13 15 14
f 16 18 17
f 19 21 20
f 21 23 22
f 24 26 25
f 27 29 28
f 30 32 31
f 32 34 33
f 35 37 36
f 38 1 39
f 1 40 3
f 41 6 4
f 42 44 43
f 43 44 45
f 44 9 7
f 13 16 15
f 16 19 18
f 21 46 23
f 29 27 47
f 47 27 48
f 32 49 34
f 35 38 37
f 38 40 1
f 50 6 41
f 42 9 44
f 16 21 19
f 32 51 49
f 35 40 38
f 52 54 53
f 53 54 55
f 55 54 56
f 56 54 57
f 58 6 50
f 42 59 9
f 16 46 21
f 30 51 32
f 60 40 35
f 61 54 62
f 62 54 63
f 63 54 52
f 64 6 58
f 42 65 59
f 16 24 46
f 30 60 51
f 60 66 40
f 67 54 61
f 68 6 64
f 42 69 65
f 16 26 24
f 30 66 60
f 70 54 71
f 71 54 67
f 72 6 68
f 42 73 69
f 16 74 26
f 75 66 30
f 76 54 77
f 77 54 70
f 78 6 72
f 42 79 73
f 13 74 16
f 80 66 75
f 81 54 76
f 82 6 78
f 42 83 79
f 13 84 74
f 80 85 66
f 86 54 87
f 87 54 88
f 88 54 81
f 89 6 82
f 6 83 90
f 90 83 91
f 91 83 92
f 92 83 93
f 93 83 94
f 94 83 95
f 95 83 96
f 96 83 97
f 97 83 98
f 98 83 99
f 99 83 100
f 100 83 101
f 101 83 102
f 102 83 103
f 103 83 104
f 104 83 105
f 105 83 106
f 106 83 107
f 107 83 108
f 108 83 109
f 109 83 110
f 110 83 111
f 111 83 112
f 112 83 113
f 113 83 114
f 114 83 115
f 115 83 42
f 80 116 85
f 117 54 86
f 118 6 89
f 6 10 83
f 80 119 116
f 120 54 121
f 121 54 117
f 122 6 118
f 6 12 10
f 80 123 119
f 124 54 120
f 125 6 122
f 6 126 12
f 80 127 123
f 128 54 124
f 129 6 125
f 6 130 126
f 80 128 127
f 131 6 129
f 6 132 130
f 80 54 128
f 133 6 131
f 6 134 132
f 135 54 80
f 136 6 133
f 6 137 134
f 48 54 135
f 138 6 136
f 6 13 137
f 27 54 48
f 139 6 138
f 6 84 13
f 84 54 27
f 139 84 6
f 84 140 54
f 141 84 139
f 84 142 140
f 143 84 141
f 84 144 142
f 145 84 143
f 84 146 144
f 147 84 145
f 84 148 146
f 149 84 147
f 84 149 148
