v -3.070000 0.350000 -4.437000
v -3.070539 0.350000 -4.426377
v -3.072149 0.350000 -4.415864
v -3.074815 0.350000 -4.405567
v -3.078509 0.350000 -4.395593
v -3.083194 0.350000 -4.386043
v -3.088820 0.350000 -4.377017
v -3.095330 0.350000 -4.368606
v -3.102658 0.350000 -4.360897
v -3.110729 0.350000 -4.353969
v -3.119459 0.350000 -4.347892
v -3.128759 0.350000 -4.342731
v -3.138533 0.350000 -4.338536
v -3.148681 0.350000 -4.335352
v -3.159100 0.350000 -4.333211
v -3.169682 0.350000 -4.332135
v -3.180318 0.350000 -4.332135
v -3.190900 0.350000 -4.333211
v -3.201319 0.350000 -4.335352
v -3.211467 0.350000 -4.338536
v -3.221241 0.350000 -4.342731
v -3.230541 0.350000 -4.347892
v -3.239271 0.350000 -4.353969
v -3.247342 0.350000 -4.360897
v -3.254670 0.350000 -4.368606
v -3.261180 0.350000 -4.377017
v -3.266806 0.350000 -4.386043
v -3.271491 0.350000 -4.395593
v -3.275185 0.350000 -4.405567
v -3.277851 0.350000 -4.415864
v -3.279461 0.350000 -4.426377
v -3.280000 0.350000 -4.437000
v -3.070000 0.300000 -4.437000
v -3.070539 0.300000 -4.426377
v -3.072149 0.300000 -4.415864
v -3.074815 0.300000 -4.405567
v -3.078509 0.300000 -4.395593
v -3.083194 0.300000 -4.386043
v -3.088820 0.300000 -4.377017
v -3.095330 0.300000 -4.368606
v -3.102658 0.300000 -4.360897
v -3.110729 0.300000 -4.353969
v -3.119459 0.300000 -4.347892
v -3.128759 0.300000 -4.342731
v -3.138533 0.300000 -4.338536
v -3.148681 0.300000 -4.335352
v -3.159100 0.300000 -4.333211
v -3.169682 0.300000 -4.332135
v -3.180318 0.300000 -4.332135
v -3.190900 0.300000 -4.333211
v -3.201319 0.300000 -4.335352
v -3.211467 0.300000 -4.338536
v -3.221241 0.300000 -4.342731
v -3.230541 0.300000 -4.347892
v -3.239271 0.300000 -4.353969
v -3.247342 0.300000 -4.360897
v -3.254670 0.300000 -4.368606
v -3.261180 0.300000 -4.377017
v -3.266806 0.300000 -4.386043
v -3.271491 0.300000 -4.395593
v -3.275185 0.300000 -4.405567
v -3.277851 0.300000 -4.415864
v -3.279461 0.300000 -4.426377
v -3.280000 0.300000 -4.437000
f 1 34 2
f 1 33 34
f 2 35 3
f 2 34 35
f 3 36 4
f 3 35 36
f 4 37 5
f 4 36 37
f 5 38 6
f 5 37 38
f 6 39 7
f 6 38 39
f 7 40 8
f 7 39 40
f 8 41 9
f 8 40 41
f 9 42 10
f 9 41 42
f 10 43 11
f 10 42 43
f 11 44 12
f 11 43 44
f 12 45 13
f 12 44 45
f 13 46 14
f 13 45 46
f 14 47 15
f 14 46 47
f 15 48 16
f 15 47 48
f 16 49 17
f 16 48 49
f 17 50 18
f 17 49 50
f 18 51 19
f 18 50 51
f 19 52 20
f 19 51 52
f 20 53 21
f 20 52 53
f 21 54 22
f 21 53 54
f 22 55 23
f 22 54 55
f 23 56 24
f 23 55 56
f 24 57 25
f 24 56 57
f 25 58 26
f 25 57 58
f 26 59 27
f 26 58 59
f 27 60 28
f 27 59 60
f 28 61 29
f 28 60 61
f 29 62 30
f 29 61 62
f 30 63 31
f 30 62 63
f 31 64 32
f 31 63 64
