v 0.433567 0.238840 -1.051000
v 0.434260 0.237578 -1.051103
v 0.434934 0.236342 -1.051408
v 0.435575 0.235157 -1.051909
v 0.436173 0.234048 -1.052596
v 0.436715 0.233035 -1.053453
v 0.437191 0.232141 -1.054463
v 0.437592 0.231384 -1.055605
v 0.437912 0.230778 -1.056856
v 0.438144 0.230336 -1.058190
v 0.438285 0.230068 -1.059581
v 0.438333 0.229977 -1.061000
v 0.559566 0.289458 -1.051000
v 0.560223 0.288184 -1.051103
v 0.560863 0.286937 -1.051407
v 0.561474 0.285740 -1.051907
v 0.562043 0.284619 -1.052593
v 0.562560 0.283596 -1.053449
v 0.563014 0.282692 -1.054458
v 0.563398 0.281927 -1.055601
v 0.563704 0.281314 -1.056852
v 0.563926 0.280868 -1.058187
v 0.564061 0.280597 -1.059579
v 0.564107 0.280505 -1.061000
f 1 14 2
f 1 13 14
f 2 15 3
f 2 14 15
f 3 16 4
f 3 15 16
f 4 17 5
f 4 16 17
f 5 18 6
f 5 17 18
f 6 19 7
f 6 18 19
f 7 20 8
f 7 19 20
f 8 21 9
f 8 20 21
f 9 22 10
f 9 21 22
f 10 23 11
f 10 22 23
f 11 24 12
f 11 23 24
