v 2.045720 -1.109173 -5.749721
v 2.038352 -1.102139 -5.772030
v 2.030558 -1.095156 -5.794177
v 2.022331 -1.088221 -5.816170
v 2.013664 -1.081333 -5.838016
v 2.004550 -1.074490 -5.859722
v 1.994983 -1.067688 -5.881295
v 1.984956 -1.060926 -5.902742
v 1.974461 -1.054201 -5.924069
v 1.963497 -1.047514 -5.945277
v 1.952073 -1.040871 -5.966345
v 1.940199 -1.034280 -5.987249
v 1.927888 -1.027749 -6.007965
v 1.915150 -1.021284 -6.028469
v 1.901996 -1.014894 -6.048736
v 1.888438 -1.008585 -6.068745
v 1.874487 -1.002366 -6.088469
v 1.860152 -0.996242 -6.107893
v 1.845440 -0.990214 -6.127009
v 1.830358 -0.984285 -6.145815
v 1.814912 -0.978455 -6.164305
v 1.799109 -0.972726 -6.182474
v 1.782956 -0.967100 -6.200318
v 1.766458 -0.961578 -6.217832
v 1.749622 -0.956161 -6.235012
v 1.732456 -0.950852 -6.251852
v 1.714966 -0.945650 -6.268347
v 1.697158 -0.940560 -6.284493
v 1.679040 -0.935581 -6.300282
v 1.660618 -0.930717 -6.315711
v 1.641900 -0.925968 -6.330773
v 1.622891 -0.921336 -6.345464
v 1.603599 -0.916823 -6.359777
v 1.584032 -0.912431 -6.373707
v 1.564199 -0.908161 -6.387250
v 1.544109 -0.904015 -6.400400
v 1.523772 -0.899994 -6.413151
v 1.503197 -0.896101 -6.425499
v 1.482393 -0.892336 -6.437438
v 1.461368 -0.888703 -6.448963
v 1.440134 -0.885201 -6.460069
v 1.418702 -0.881833 -6.470752
v 1.397089 -0.878599 -6.481008
v 1.375309 -0.875501 -6.490834
v 1.353379 -0.872539 -6.500226
v 1.331314 -0.869716 -6.509181
v 1.309130 -0.867032 -6.517695
v 1.286841 -0.864487 -6.525764
v 1.264461 -0.862084 -6.533387
v 1.241991 -0.859821 -6.540564
v 1.219425 -0.857698 -6.547298
v 1.196759 -0.855713 -6.553593
v 1.173989 -0.853866 -6.559452
v 1.151108 -0.852155 -6.564877
v 1.128114 -0.850580 -6.569872
v 1.105000 -0.849140 -6.574441
v 1.105000 -0.915807 -6.363000
v 1.104863 -0.918566 -6.354250
v 1.104460 -0.921244 -6.345754
v 1.103802 -0.923846 -6.337501
v 1.102898 -0.926375 -6.329482
v 1.101760 -0.928833 -6.321687
v 1.100399 -0.931223 -6.314105
v 1.098825 -0.933550 -6.306726
v 1.097048 -0.935816 -6.299539
v 1.095081 -0.938024 -6.292536
v 1.092932 -0.940178 -6.285704
v 1.090613 -0.942281 -6.279035
v 1.088134 -0.944335 -6.272519
v 1.085507 -0.946345 -6.266144
v 1.082742 -0.948314 -6.259900
v 1.079846 -0.950243 -6.253782
v 1.076821 -0.952133 -6.247786
v 1.073668 -0.953985 -6.241913
v 1.070387 -0.955799 -6.236162
v 1.066979 -0.957574 -6.230531
v 1.063445 -0.959311 -6.225021
v 1.059786 -0.961011 -6.219630
v 1.056002 -0.962673 -6.214359
v 1.052094 -0.964298 -6.209205
v 1.048064 -0.965886 -6.204168
v 1.043911 -0.967437 -6.199248
v 1.039637 -0.968952 -6.194444
v 1.035241 -0.970430 -6.189756
v 1.030726 -0.971873 -6.185181
v 1.026091 -0.973279 -6.180721
v 1.021335 -0.974649 -6.176377
v 1.016457 -0.975982 -6.172149
v 1.011455 -0.977278 -6.168038
v 1.006330 -0.978537 -6.164046
v 1.001079 -0.979758 -6.160173
v 0.995703 -0.980941 -6.156420
v 0.990200 -0.982086 -6.152788
v 0.984569 -0.983193 -6.149278
v 0.978808 -0.984261 -6.145891
v 0.972918 -0.985290 -6.142628
v 0.966897 -0.986279 -6.139490
v 0.960744 -0.987229 -6.136477
v 0.954458 -0.988139 -6.133592
v 0.948028 -0.989005 -6.130844
v 0.941443 -0.989825 -6.128244
v 0.934689 -0.990594 -6.125805
v 0.927753 -0.991308 -6.123539
v 0.920622 -0.991964 -6.121459
v 0.913283 -0.992557 -6.119578
v 0.905724 -0.993084 -6.117907
v 0.897930 -0.993541 -6.116459
v 0.889890 -0.993923 -6.115247
v 0.881590 -0.994227 -6.114283
v 0.873017 -0.994449 -6.113578
v 0.864158 -0.994585 -6.113147
v 0.855000 -0.994631 -6.113000
v -0.970000 -0.994631 -6.113000
v -0.971836 -0.994623 -6.113025
v -0.973619 -0.994600 -6.113101
v -0.975351 -0.994560 -6.113225
v -0.977034 -0.994506 -6.113396
v -0.978668 -0.994438 -6.113614
v -0.980255 -0.994355 -6.113876
v -0.981797 -0.994259 -6.114182
v -0.983294 -0.994149 -6.114530
v -0.984749 -0.994026 -6.114919
v -0.986162 -0.993891 -6.115347
v -0.987535 -0.993744 -6.115814
v -0.988869 -0.993585 -6.116318
v -0.990166 -0.993415 -6.116857
v -0.991426 -0.993234 -6.117431
v -0.992652 -0.993043 -6.118038
v -0.993845 -0.992841 -6.118677
v -0.995005 -0.992630 -6.119346
v -0.996135 -0.992410 -6.120045
v -0.997236 -0.992181 -6.120771
v -0.998308 -0.991944 -6.121524
v -0.999354 -0.991698 -6.122303
v -1.000375 -0.991445 -6.123105
v -1.001372 -0.991185 -6.123930
v -1.002347 -0.990918 -6.124777
v -1.003300 -0.990645 -6.125644
v -1.004234 -0.990365 -6.126530
v -1.005149 -0.990081 -6.127433
v -1.006047 -0.989791 -6.128353
v -1.006928 -0.989496 -6.129288
v -1.007791 -0.989195 -6.130242
v -1.008634 -0.988889 -6.131213
v -1.009457 -0.988576 -6.132204
v -1.010259 -0.988257 -6.133216
v -1.011037 -0.987931 -6.134250
v -1.011791 -0.987598 -6.135307
v -1.012520 -0.987257 -6.136387
v -1.013223 -0.986909 -6.137493
v -1.013898 -0.986552 -6.138626
v -1.014544 -0.986186 -6.139785
v -1.015161 -0.985811 -6.140974
v -1.015746 -0.985427 -6.142192
v -1.016298 -0.985033 -6.143441
v -1.016818 -0.984629 -6.144722
v -1.017302 -0.984215 -6.146036
v -1.017751 -0.983790 -6.147384
v -1.018162 -0.983354 -6.148768
v -1.018535 -0.982906 -6.150188
v -1.018869 -0.982446 -6.151646
v -1.019162 -0.981974 -6.153143
v -1.019413 -0.981490 -6.154679
v -1.019621 -0.980992 -6.156257
v -1.019785 -0.980482 -6.157877
v -1.019904 -0.979957 -6.159540
v -1.019976 -0.979419 -6.161247
v -1.020000 -0.978866 -6.163000
v -1.020000 -0.915807 -6.363000
v -1.019976 -0.915254 -6.364753
v -1.019904 -0.914716 -6.366460
v -1.019785 -0.914191 -6.368123
v -1.019621 -0.913681 -6.369743
v -1.019413 -0.913183 -6.371321
v -1.019162 -0.912699 -6.372857
v -1.018869 -0.912227 -6.374354
v -1.018535 -0.911767 -6.375812
v -1.018162 -0.911319 -6.377232
v -1.017751 -0.910883 -6.378616
v -1.017302 -0.910458 -6.379964
v -1.016818 -0.910044 -6.381278
v -1.016298 -0.909640 -6.382559
v -1.015746 -0.909246 -6.383808
v -1.015161 -0.908862 -6.385026
v -1.014544 -0.908487 -6.386215
v -1.013898 -0.908121 -6.387374
v -1.013223 -0.907764 -6.388507
v -1.012520 -0.907416 -6.389613
v -1.011791 -0.907075 -6.390693
v -1.011037 -0.906742 -6.391750
v -1.010259 -0.906416 -6.392784
v -1.009457 -0.906097 -6.393796
v -1.008634 -0.905784 -6.394787
v -1.007791 -0.905478 -6.395758
v -1.006928 -0.905177 -6.396712
v -1.006047 -0.904882 -6.397647
v -1.005149 -0.904592 -6.398567
v -1.004234 -0.904308 -6.399470
v -1.003300 -0.904028 -6.400356
v -1.002347 -0.903755 -6.401223
v -1.001372 -0.903488 -6.402070
v -1.000375 -0.903228 -6.402895
v -0.999354 -0.902975 -6.403697
v -0.998308 -0.902729 -6.404476
v -0.997236 -0.902492 -6.405229
v -0.996135 -0.902263 -6.405955
v -0.995005 -0.902043 -6.406654
v -0.993845 -0.901832 -6.407323
v -0.992652 -0.901630 -6.407962
v -0.991426 -0.901439 -6.408569
v -0.990166 -0.901258 -6.409143
v -0.988869 -0.901088 -6.409682
v -0.987535 -0.900929 -6.410186
v -0.986162 -0.900782 -6.410653
v -0.984749 -0.900647 -6.411081
v -0.983294 -0.900524 -6.411470
v -0.981797 -0.900414 -6.411818
v -0.980255 -0.900318 -6.412124
v -0.978668 -0.900235 -6.412386
v -0.977034 -0.900167 -6.412604
v -0.975351 -0.900113 -6.412775
v -0.973619 -0.900073 -6.412899
v -0.971836 -0.900050 -6.412975
v -0.970000 -0.900042 -6.413000
v 0.230000 -0.900042 -6.413000
v 0.234579 -0.900019 -6.413073
v 0.239008 -0.899951 -6.413289
v 0.243295 -0.899839 -6.413641
v 0.247445 -0.899687 -6.414124
v 0.251465 -0.899496 -6.414730
v 0.255362 -0.899268 -6.415454
v 0.259142 -0.899005 -6.416289
v 0.262811 -0.898708 -6.417230
v 0.266376 -0.898380 -6.418270
v 0.269844 -0.898023 -6.419402
v 0.273222 -0.897639 -6.420622
v 0.276514 -0.897229 -6.421922
v 0.279729 -0.896795 -6.423296
v 0.282872 -0.896341 -6.424739
v 0.285949 -0.895866 -6.426245
v 0.288959 -0.895371 -6.427814
v 0.291904 -0.894856 -6.429445
v 0.294784 -0.894323 -6.431139
v 0.297600 -0.893769 -6.432894
v 0.300352 -0.893197 -6.434710
v 0.303040 -0.892605 -6.436586
v 0.305665 -0.891994 -6.438523
v 0.308228 -0.891365 -6.440519
v 0.310728 -0.890717 -6.442574
v 0.313167 -0.890050 -6.444688
v 0.315546 -0.889365 -6.446861
v 0.317863 -0.888662 -6.449091
v 0.320121 -0.887941 -6.451378
v 0.322318 -0.887202 -6.453722
v 0.324455 -0.886445 -6.456124
v 0.326532 -0.885669 -6.458584
v 0.328547 -0.884875 -6.461102
v 0.330501 -0.884063 -6.463679
v 0.332393 -0.883231 -6.466315
v 0.334223 -0.882382 -6.469011
v 0.335989 -0.881513 -6.471766
v 0.337693 -0.880625 -6.474581
v 0.339334 -0.879719 -6.477457
v 0.340911 -0.878793 -6.480393
v 0.342423 -0.877848 -6.483391
v 0.343871 -0.876883 -6.486450
v 0.345254 -0.875899 -6.489572
v 0.346567 -0.874894 -6.492759
v 0.347806 -0.873866 -6.496018
v 0.348966 -0.872815 -6.499352
v 0.350040 -0.871738 -6.502768
v 0.351024 -0.870634 -6.506270
v 0.351912 -0.869501 -6.509863
v 0.352700 -0.868338 -6.513552
v 0.353380 -0.867142 -6.517344
v 0.353949 -0.865913 -6.521241
v 0.354401 -0.864649 -6.525251
v 0.354730 -0.863348 -6.529377
v 0.354932 -0.862009 -6.533625
v 0.355000 -0.860629 -6.538000
v 0.355000 -0.842386 -6.595860
v -1.576589 -0.842386 -6.595860
v -1.600813 -0.842194 -6.596469
v -1.624520 -0.842160 -6.596579
v -1.647711 -0.842283 -6.596186
v -1.670386 -0.842566 -6.595288
v -1.692546 -0.843010 -6.593883
v -1.714194 -0.843613 -6.591968
v -1.735327 -0.844375 -6.589551
v -1.755942 -0.845290 -6.586650
v -1.776034 -0.846351 -6.583284
v -1.795599 -0.847554 -6.579471
v -1.814633 -0.848891 -6.575229
v -1.833143 -0.850360 -6.570569
v -1.851178 -0.851966 -6.565476
v -1.868800 -0.853717 -6.559925
v -1.886068 -0.855619 -6.553892
v -1.903044 -0.857680 -6.547355
v -1.919787 -0.859907 -6.540290
v -1.936343 -0.862309 -6.532672
v -1.952741 -0.864893 -6.524478
v -1.969011 -0.867666 -6.515682
v -1.985181 -0.870637 -6.506259
v -2.001282 -0.873813 -6.496185
v -2.017334 -0.877202 -6.485437
v -2.033333 -0.880810 -6.473995
v -2.049265 -0.884643 -6.461840
v -2.065117 -0.888706 -6.448953
v -2.080876 -0.893005 -6.435317
v -2.096530 -0.897546 -6.420914
v -2.112056 -0.902334 -6.405730
v -2.127421 -0.907369 -6.389759
v -2.142593 -0.912655 -6.372996
v -2.157541 -0.918192 -6.355434
v -2.172230 -0.923984 -6.337066
v -2.186633 -0.930030 -6.317888
v -2.200729 -0.936332 -6.297902
v -2.214502 -0.942888 -6.277109
v -2.227933 -0.949697 -6.255513
v -2.241007 -0.956759 -6.233116
v -2.253707 -0.964072 -6.209921
v -2.266029 -0.971633 -6.185940
v -2.277983 -0.979436 -6.161193
v -2.289579 -0.987474 -6.135702
v -2.300826 -0.995739 -6.109486
v -2.311734 -1.004226 -6.082569
v -2.322323 -1.012928 -6.054972
v -2.332650 -1.021831 -6.026734
v -2.342778 -1.030924 -5.997894
v -2.352775 -1.040194 -5.968493
v -2.362706 -1.049629 -5.938570
v -2.372636 -1.059215 -5.908166
v -2.382639 -1.068944 -5.877310
v -2.392796 -1.078810 -5.846019
v -2.403187 -1.088807 -5.814312
v -2.413895 -1.098930 -5.782207
v -2.425000 -1.109173 -5.749721
f 336 1 337
f 1 3 2
f 3 5 4
f 5 7 6
f 7 9 8
f 9 11 10
f 11 13 12
f 13 15 14
f 15 17 16
f 17 19 18
f 19 21 20
f 21 23 22
f 23 25 24
f 25 27 26
f 27 29 28
f 29 31 30
f 31 33 32
f 33 35 34
f 35 37 36
f 37 39 38
f 39 41 40
f 41 43 42
f 43 45 44
f 45 47 46
f 47 49 48
f 49 51 50
f 51 53 52
f 53 55 54
f 55 57 56
f 224 226 225
f 226 228 227
f 228 230 229
f 230 232 231
f 232 234 233
f 234 236 235
f 236 238 237
f 238 240 239
f 240 242 241
f 242 244 243
f 244 246 245
f 246 248 247
f 248 250 249
f 250 252 251
f 252 254 253
f 254 256 255
f 256 258 257
f 258 260 259
f 260 262 261
f 262 264 263
f 264 266 265
f 266 268 267
f 268 270 269
f 270 272 271
f 272 274 273
f 274 276 275
f 276 278 277
f 278 280 279
f 280 282 281
f 282 284 283
f 284 286 285
f 286 288 287
f 288 290 289
f 290 292 291
f 292 294 293
f 294 296 295
f 296 298 297
f 298 300 299
f 300 302 301
f 302 304 303
f 304 306 305
f 306 308 307
f 308 310 309
f 310 312 311
f 312 314 313
f 314 316 315
f 316 318 317
f 318 320 319
f 320 322 321
f 322 324 323
f 324 326 325
f 326 328 327
f 328 330 329
f 330 332 331
f 335 1 336
f 1 5 3
f 5 9 7
f 9 13 11
f 13 17 15
f 17 21 19
f 21 25 23
f 25 29 27
f 29 33 31
f 33 37 35
f 37 41 39
f 41 45 43
f 45 49 47
f 49 53 51
f 53 57 55
f 224 228 226
f 228 232 230
f 232 236 234
f 236 240 238
f 240 244 242
f 244 248 246
f 248 252 250
f 252 256 254
f 256 260 258
f 260 264 262
f 264 268 266
f 268 272 270
f 272 276 274
f 276 280 278
f 280 284 282
f 284 288 286
f 288 292 290
f 292 296 294
f 296 300 298
f 300 304 302
f 304 308 306
f 308 312 310
f 312 316 314
f 316 320 318
f 320 324 322
f 324 328 326
f 328 332 330
f 334 1 335
f 1 9 5
f 9 17 13
f 17 25 21
f 25 33 29
f 33 41 37
f 41 49 45
f 49 57 53
f 224 232 228
f 232 240 236
f 240 248 244
f 248 256 252
f 256 264 260
f 264 272 268
f 272 280 276
f 280 288 284
f 288 296 292
f 296 304 300
f 304 312 308
f 312 320 316
f 320 328 324
f 328 333 332
f 333 1 334
f 1 17 9
f 17 33 25
f 33 49 41
f 49 58 57
f 224 240 232
f 240 256 248
f 256 272 264
f 272 288 280
f 288 304 296
f 304 320 312
f 320 333 328
f 333 17 1
f 17 49 33
f 49 59 58
f 224 256 240
f 256 288 272
f 288 320 304
f 17 59 49
f 223 256 224
f 288 333 320
f 17 60 59
f 223 288 256
f 17 61 60
f 222 288 223
f 17 62 61
f 221 288 222
f 17 63 62
f 220 288 221
f 17 64 63
f 219 288 220
f 17 65 64
f 218 288 219
f 17 66 65
f 217 288 218
f 17 67 66
f 216 288 217
f 17 68 67
f 215 288 216
f 17 69 68
f 214 288 215
f 17 70 69
f 213 288 214
f 17 71 70
f 212 288 213
f 17 72 71
f 211 288 212
f 17 73 72
f 210 288 211
f 17 74 73
f 209 288 210
f 17 75 74
f 208 288 209
f 17 76 75
f 207 288 208
f 17 77 76
f 206 288 207
f 17 78 77
f 205 288 206
f 17 79 78
f 204 288 205
f 17 80 79
f 203 288 204
f 17 81 80
f 202 288 203
f 17 82 81
f 201 288 202
f 17 83 82
f 200 288 201
f 17 84 83
f 199 288 200
f 17 85 84
f 198 288 199
f 17 86 85
f 197 288 198
f 17 87 86
f 196 288 197
f 17 88 87
f 195 288 196
f 17 89 88
f 194 288 195
f 17 90 89
f 193 288 194
f 17 91 90
f 192 288 193
f 17 92 91
f 191 288 192
f 17 93 92
f 190 288 191
f 17 94 93
f 189 288 190
f 17 95 94
f 188 288 189
f 17 96 95
f 187 288 188
f 17 97 96
f 186 288 187
f 17 98 97
f 185 288 186
f 17 99 98
f 184 288 185
f 17 100 99
f 183 288 184
f 17 101 100
f 182 288 183
f 17 102 101
f 181 288 182
f 17 103 102
f 180 288 181
f 17 104 103
f 179 288 180
f 17 105 104
f 178 288 179
f 17 106 105
f 177 288 178
f 17 107 106
f 176 288 177
f 17 108 107
f 175 288 176
f 17 109 108
f 174 288 175
f 17 110 109
f 173 288 174
f 333 110 17
f 172 288 173
f 333 111 110
f 171 288 172
f 333 112 111
f 170 288 171
f 333 113 112
f 169 288 170
f 333 114 113
f 168 288 169
f 333 115 114
f 167 288 168
f 333 116 115
f 166 288 167
f 333 117 116
f 165 288 166
f 333 118 117
f 164 288 165
f 333 119 118
f 163 288 164
f 333 120 119
f 162 288 163
f 333 121 120
f 161 288 162
f 333 122 121
f 160 288 161
f 333 123 122
f 159 288 160
f 333 124 123
f 158 288 159
f 333 125 124
f 157 288 158
f 333 126 125
f 156 288 157
f 333 127 126
f 155 288 156
f 333 128 127
f 154 288 155
f 333 129 128
f 153 288 154
f 333 130 129
f 152 288 153
f 333 131 130
f 151 288 152
f 288 131 333
f 150 288 151
f 288 132 131
f 149 288 150
f 288 133 132
f 148 288 149
f 288 134 133
f 147 288 148
f 288 135 134
f 146 288 147
f 288 136 135
f 145 288 146
f 288 137 136
f 144 288 145
f 288 138 137
f 143 288 144
f 288 139 138
f 142 288 143
f 288 140 139
f 141 288 142
f 288 141 140
