v -0.641691 0.065254 -0.895000
v -0.631797 0.129838 -0.895000
v -0.615420 0.193089 -0.895000
v -0.592728 0.254360 -0.895000
v -0.563954 0.313020 -0.895000
v -0.529392 0.368468 -0.895000
v -0.489399 0.420135 -0.895000
v -0.444384 0.467491 -0.895000
v -0.394808 0.510050 -0.895000
v -0.341182 0.547376 -0.895000
v -0.284054 0.579084 -0.895000
v -0.224012 0.604850 -0.895000
v -0.161671 0.624410 -0.895000
v -0.097671 0.637562 -0.895000
v -0.032669 0.644172 -0.895000
v 0.032669 0.644172 -0.895000
v 0.097671 0.637562 -0.895000
v 0.161671 0.624410 -0.895000
v 0.224012 0.604850 -0.895000
v 0.284054 0.579084 -0.895000
v 0.341182 0.547376 -0.895000
v 0.394808 0.510050 -0.895000
v 0.444384 0.467491 -0.895000
v 0.489399 0.420135 -0.895000
v 0.529392 0.368468 -0.895000
v 0.563954 0.313020 -0.895000
v 0.592728 0.254360 -0.895000
v 0.615420 0.193089 -0.895000
v 0.631797 0.129838 -0.895000
v 0.641691 0.065254 -0.895000
v 0.645000 0.000000 -0.895000
v 0.641691 -0.065254 -0.895000
v 0.631797 -0.129838 -0.895000
v 0.615420 -0.193089 -0.895000
v 0.592728 -0.254360 -0.895000
v 0.563954 -0.313020 -0.895000
v 0.529392 -0.368468 -0.895000
v 0.489399 -0.420135 -0.895000
v 0.444384 -0.467491 -0.895000
v 0.394808 -0.510050 -0.895000
v 0.341182 -0.547376 -0.895000
v 0.284054 -0.579084 -0.895000
v 0.224012 -0.604850 -0.895000
v 0.161671 -0.624410 -0.895000
v 0.097671 -0.637562 -0.895000
v 0.032669 -0.644172 -0.895000
v -0.032669 -0.644172 -0.895000
v -0.097671 -0.637562 -0.895000
v -0.161671 -0.624410 -0.895000
v -0.224012 -0.604850 -0.895000
v -0.284054 -0.579084 -0.895000
v -0.341182 -0.547376 -0.895000
v -0.394808 -0.510050 -0.895000
v -0.444384 -0.467491 -0.895000
v -0.489399 -0.420135 -0.895000
v -0.529392 -0.368468 -0.895000
v -0.563954 -0.313020 -0.895000
v -0.592728 -0.254360 -0.895000
v -0.615420 -0.193089 -0.895000
v -0.631797 -0.129838 -0.895000
v -0.641691 -0.065254 -0.895000
v -0.645000 0.000000 -0.895000
v -0.626768 0.063736 -0.895000
v -0.617104 0.126818 -0.895000
v -0.601108 0.188599 -0.895000
v -0.578943 0.248444 -0.895000
v -0.550838 0.305740 -0.895000
v -0.517081 0.359899 -0.895000
v -0.478018 0.410365 -0.895000
v -0.434049 0.456619 -0.895000
v -0.385627 0.498189 -0.895000
v -0.333247 0.534646 -0.895000
v -0.277448 0.565617 -0.895000
v -0.218802 0.590784 -0.895000
v -0.157911 0.609889 -0.895000
v -0.095399 0.622735 -0.895000
v -0.031909 0.629191 -0.895000
v 0.031909 0.629191 -0.895000
v 0.095399 0.622735 -0.895000
v 0.157911 0.609889 -0.895000
v 0.218802 0.590784 -0.895000
v 0.277448 0.565617 -0.895000
v 0.333247 0.534646 -0.895000
v 0.385627 0.498189 -0.895000
v 0.434049 0.456619 -0.895000
v 0.478018 0.410365 -0.895000
v 0.517081 0.359899 -0.895000
v 0.550838 0.305740 -0.895000
v 0.578943 0.248444 -0.895000
v 0.601108 0.188599 -0.895000
v 0.617104 0.126818 -0.895000
v 0.626768 0.063736 -0.895000
v 0.630000 0.000000 -0.895000
v 0.626768 -0.063736 -0.895000
v 0.617104 -0.126818 -0.895000
v 0.601108 -0.188599 -0.895000
v 0.578943 -0.248444 -0.895000
v 0.550838 -0.305740 -0.895000
v 0.517081 -0.359899 -0.895000
v 0.478018 -0.410365 -0.895000
v 0.434049 -0.456619 -0.895000
v 0.385627 -0.498189 -0.895000
v 0.333247 -0.534646 -0.895000
v 0.277448 -0.565617 -0.895000
v 0.218802 -0.590784 -0.895000
v 0.157911 -0.609889 -0.895000
v 0.095399 -0.622735 -0.895000
v 0.031909 -0.629191 -0.895000
v -0.031909 -0.629191 -0.895000
v -0.095399 -0.622735 -0.895000
v -0.157911 -0.609889 -0.895000
v -0.218802 -0.590784 -0.895000
v -0.277448 -0.565617 -0.895000
v -0.333247 -0.534646 -0.895000
v -0.385627 -0.498189 -0.895000
v -0.434049 -0.456619 -0.895000
v -0.478018 -0.410365 -0.895000
v -0.517081 -0.359899 -0.895000
v -0.550838 -0.305740 -0.895000
v -0.578943 -0.248444 -0.895000
v -0.601108 -0.188599 -0.895000
v -0.617104 -0.126818 -0.895000
v -0.626768 -0.063736 -0.895000
v -0.630000 0.000000 -0.895000
f 1 64 2
f 1 63 64
f 2 65 3
f 2 64 65
f 3 66 4
f 3 65 66
f 4 67 5
f 4 66 67
f 5 68 6
f 5 67 68
f 6 69 7
f 6 68 69
f 7 70 8
f 7 69 70
f 8 71 9
f 8 70 71
f 9 72 10
f 9 71 72
f 10 73 11
f 10 72 73
f 11 74 12
f 11 73 74
f 12 75 13
f 12 74 75
f 13 76 14
f 13 75 76
f 14 77 15
f 14 76 77
f 15 78 16
f 15 77 78
f 16 79 17
f 16 78 79
f 17 80 18
f 17 79 80
f 18 81 19
f 18 80 81
f 19 82 20
f 19 81 82
f 20 83 21
f 20 82 83
f 21 84 22
f 21 83 84
f 22 85 23
f 22 84 85
f 23 86 24
f 23 85 86
f 24 87 25
f 24 86 87
f 25 88 26
f 25 87 88
f 26 89 27
f 26 88 89
f 27 90 28
f 27 89 90
f 28 91 29
f 28 90 91
f 29 92 30
f 29 91 92
f 30 93 31
f 30 92 93
f 31 94 32
f 31 93 94
f 32 95 33
f 32 94 95
f 33 96 34
f 33 95 96
f 34 97 35
f 34 96 97
f 35 98 36
f 35 97 98
f 36 99 37
f 36 98 99
f 37 100 38
f 37 99 100
f 38 101 39
f 38 100 101
f 39 102 40
f 39 101 102
f 40 103 41
f 40 102 103
f 41 104 42
f 41 103 104
f 42 105 43
f 42 104 105
f 43 106 44
f 43 105 106
f 44 107 45
f 44 106 107
f 45 108 46
f 45 107 108
f 46 109 47
f 46 108 109
f 47 110 48
f 47 109 110
f 48 111 49
f 48 110 111
f 49 112 50
f 49 111 112
f 50 113 51
f 50 112 113
f 51 114 52
f 51 113 114
f 52 115 53
f 52 114 115
f 53 116 54
f 53 115 116
f 54 117 55
f 54 116 117
f 55 118 56
f 55 117 118
f 56 119 57
f 56 118 119
f 57 120 58
f 57 119 120
f 58 121 59
f 58 120 121
f 59 122 60
f 59 121 122
f 60 123 61
f 60 122 123
f 61 124 62
f 61 123 124
f 62 63 1
f 62 124 63
