v 1.185000 -1.106003 -5.195637
v 1.185000 -1.056502 -4.913818
v 1.185000 -1.062714 -4.927551
v 1.185000 -1.068748 -4.941364
v 1.185000 -1.074602 -4.955254
v 1.185000 -1.080276 -4.969218
v 1.185000 -1.085768 -4.983255
v 1.185000 -1.091078 -4.997361
v 1.185000 -1.096205 -5.011536
v 1.185000 -1.101147 -5.025775
v 1.185000 -1.105905 -5.040078
v 1.185000 -1.110476 -5.054441
v 1.185000 -1.114862 -5.068861
v 1.185000 -1.119060 -5.083338
v 1.185000 -1.123070 -5.097868
v 1.185000 -1.126891 -5.112448
v 1.185000 -1.130523 -5.127077
v 1.185000 -1.133965 -5.141752
v 1.185000 -1.137217 -5.156470
v 1.185000 -1.140277 -5.171229
v 1.185000 -1.143147 -5.186026
v 1.185000 -1.145824 -5.200859
v 1.185000 -1.148308 -5.215726
v 1.185000 -1.150600 -5.230624
v 1.185000 -1.152699 -5.245550
v 1.185000 -1.154604 -5.260502
v 1.185000 -1.156314 -5.275477
v 1.185000 -1.157831 -5.290474
v 1.185000 -1.159153 -5.305489
v 1.185000 -1.160281 -5.320519
v 1.185000 -1.161214 -5.335563
v 1.185000 -1.161951 -5.350618
v 1.185000 -1.162494 -5.365681
v 1.185000 -1.162841 -5.380750
v 1.185000 -1.162992 -5.395823
v 1.185000 -1.162949 -5.410895
v 1.185000 -1.162710 -5.425967
v 1.185000 -1.162276 -5.441033
v 1.185000 -1.161646 -5.456093
v 1.185000 -1.160822 -5.471143
v 1.185000 -1.159802 -5.486182
v 1.185000 -1.056502 -4.913818
v 1.185000 -1.001197 -4.913818
v 1.185000 -1.007707 -4.927458
v 1.185000 -1.014030 -4.941184
v 1.185000 -1.020167 -4.954995
v 1.185000 -1.026115 -4.968889
v 1.185000 -1.031874 -4.982861
v 1.185000 -1.037443 -4.996911
v 1.185000 -1.042821 -5.011035
v 1.185000 -1.048006 -5.025230
v 1.185000 -1.052998 -5.039495
v 1.185000 -1.057796 -5.053826
v 1.185000 -1.062399 -5.068221
v 1.185000 -1.066806 -5.082677
v 1.185000 -1.071017 -5.097192
v 1.185000 -1.075029 -5.111763
v 1.185000 -1.078844 -5.126386
v 1.185000 -1.082460 -5.141060
v 1.185000 -1.085876 -5.155782
v 1.185000 -1.089092 -5.170549
v 1.185000 -1.092107 -5.185358
v 1.185000 -1.094921 -5.200207
v 1.185000 -1.097533 -5.215093
v 1.185000 -1.099942 -5.230013
v 1.185000 -1.102149 -5.244964
v 1.185000 -1.104153 -5.259943
v 1.185000 -1.105953 -5.274949
v 1.185000 -1.107549 -5.289977
v 1.185000 -1.108940 -5.305026
v 1.185000 -1.110128 -5.320092
v 1.185000 -1.111110 -5.335173
v 1.185000 -1.111888 -5.350266
v 1.185000 -1.112461 -5.365369
v 1.185000 -1.112829 -5.380477
v 1.185000 -1.112991 -5.395589
v 1.185000 -1.112949 -5.410702
v 1.185000 -1.112701 -5.425813
v 1.185000 -1.112248 -5.440919
v 1.185000 -1.111589 -5.456018
v 1.185000 -1.110726 -5.471107
v 1.185000 -1.109658 -5.486182
v 1.185000 -1.159802 -5.486182
f 1 2 3
f 1 3 4
f 1 4 5
f 1 5 6
f 1 6 7
f 1 7 8
f 1 8 9
f 1 9 10
f 1 10 11
f 1 11 12
f 1 12 13
f 1 13 14
f 1 14 15
f 1 15 16
f 1 16 17
f 1 17 18
f 1 18 19
f 1 19 20
f 1 20 21
f 1 21 22
f 1 22 23
f 1 23 24
f 1 24 25
f 1 25 26
f 1 26 27
f 1 27 28
f 1 28 29
f 1 29 30
f 1 30 31
f 1 31 32
f 1 32 33
f 1 33 34
f 1 34 35
f 1 35 36
f 1 36 37
f 1 37 38
f 1 38 39
f 1 39 40
f 1 40 41
f 1 41 42
f 1 42 43
f 1 43 44
f 1 44 45
f 1 45 46
f 1 46 47
f 1 47 48
f 1 48 49
f 1 49 50
f 1 50 51
f 1 51 52
f 1 52 53
f 1 53 54
f 1 54 55
f 1 55 56
f 1 56 57
f 1 57 58
f 1 58 59
f 1 59 60
f 1 60 61
f 1 61 62
f 1 62 63
f 1 63 64
f 1 64 65
f 1 65 66
f 1 66 67
f 1 67 68
f 1 68 69
f 1 69 70
f 1 70 71
f 1 71 72
f 1 72 73
f 1 73 74
f 1 74 75
f 1 75 76
f 1 76 77
f 1 77 78
f 1 78 79
f 1 79 80
f 1 80 81
f 1 81 82
f 1 82 83
f 1 83 2
