v 0.355000 -0.860629 -6.538000
v 0.355000 -0.457930 -6.538000
v 0.355000 -0.426689 -6.715177
v 0.355000 -0.432109 -6.714592
v 0.355000 -0.437528 -6.713999
v 0.355000 -0.442946 -6.713399
v 0.355000 -0.448364 -6.712792
v 0.355000 -0.453780 -6.712177
v 0.355000 -0.459196 -6.711555
v 0.355000 -0.464610 -6.710926
v 0.355000 -0.470024 -6.710289
v 0.355000 -0.475438 -6.709644
v 0.355000 -0.480850 -6.708993
v 0.355000 -0.486261 -6.708334
v 0.355000 -0.491671 -6.707667
v 0.355000 -0.497081 -6.706994
v 0.355000 -0.502489 -6.706313
v 0.355000 -0.507897 -6.705624
v 0.355000 -0.513304 -6.704928
v 0.355000 -0.518709 -6.704225
v 0.355000 -0.524114 -6.703514
v 0.355000 -0.529518 -6.702796
v 0.355000 -0.534921 -6.702071
v 0.355000 -0.540323 -6.701338
v 0.355000 -0.545723 -6.700598
v 0.355000 -0.551123 -6.699851
v 0.355000 -0.556522 -6.699096
v 0.355000 -0.561920 -6.698334
v 0.355000 -0.567316 -6.697565
v 0.355000 -0.572712 -6.696788
v 0.355000 -0.578107 -6.696004
v 0.355000 -0.583500 -6.695212
v 0.355000 -0.588892 -6.694413
v 0.355000 -0.594284 -6.693607
v 0.355000 -0.599674 -6.692793
v 0.355000 -0.605063 -6.691973
v 0.355000 -0.610451 -6.691144
v 0.355000 -0.615838 -6.690309
v 0.355000 -0.621224 -6.689466
v 0.355000 -0.626608 -6.688615
v 0.355000 -0.631992 -6.687758
v 0.355000 -0.637374 -6.686893
v 0.355000 -0.642755 -6.686021
v 0.355000 -0.648135 -6.685141
v 0.355000 -0.653513 -6.684254
v 0.355000 -0.658891 -6.683360
v 0.355000 -0.664267 -6.682458
v 0.355000 -0.669642 -6.681549
v 0.355000 -0.675016 -6.680633
v 0.355000 -0.680388 -6.679709
v 0.355000 -0.685759 -6.678778
v 0.355000 -0.691129 -6.677840
v 0.355000 -0.696498 -6.676895
v 0.355000 -0.701865 -6.675942
v 0.355000 -0.707231 -6.674982
v 0.355000 -0.712596 -6.674014
v 0.355000 -0.717959 -6.673039
v 0.355000 -0.723321 -6.672057
v 0.355000 -0.728682 -6.671068
v 0.355000 -0.734042 -6.670071
v 0.355000 -0.739400 -6.669067
v 0.355000 -0.744756 -6.668056
v 0.355000 -0.750111 -6.667037
v 0.355000 -0.755465 -6.666011
v 0.355000 -0.760818 -6.664978
v 0.355000 -0.766169 -6.663938
v 0.355000 -0.769553 -6.663216
v 0.355000 -0.772910 -6.662378
v 0.355000 -0.776236 -6.661425
v 0.355000 -0.779526 -6.660356
v 0.355000 -0.782778 -6.659175
v 0.355000 -0.785988 -6.657882
v 0.355000 -0.789150 -6.656479
v 0.355000 -0.792262 -6.654967
v 0.355000 -0.795320 -6.653348
v 0.355000 -0.798320 -6.651625
v 0.355000 -0.801259 -6.649798
v 0.355000 -0.804133 -6.647871
v 0.355000 -0.806938 -6.645846
v 0.355000 -0.809672 -6.643725
v 0.355000 -0.812330 -6.641511
v 0.355000 -0.814911 -6.639206
v 0.355000 -0.817410 -6.636814
v 0.355000 -0.819825 -6.634336
v 0.355000 -0.822153 -6.631776
v 0.355000 -0.824390 -6.629137
v 0.355000 -0.826536 -6.626422
v 0.355000 -0.828586 -6.623635
v 0.355000 -0.830538 -6.620779
v 0.355000 -0.832390 -6.617856
v 0.355000 -0.834140 -6.614872
v 0.355000 -0.835786 -6.611828
v 0.355000 -0.837326 -6.608730
v 0.355000 -0.838757 -6.605580
v 0.355000 -0.840079 -6.602382
v 0.355000 -0.841289 -6.599141
v 0.355000 -0.842386 -6.595860
f 1 2 3
f 1 3 4
f 1 4 5
f 1 5 6
f 1 6 7
f 1 7 8
f 1 8 9
f 1 9 10
f 1 10 11
f 1 11 12
f 1 12 13
f 1 13 14
f 1 14 15
f 1 15 16
f 1 16 17
f 1 17 18
f 1 18 19
f 1 19 20
f 1 20 21
f 1 21 22
f 1 22 23
f 1 23 24
f 1 24 25
f 1 25 26
f 1 26 27
f 1 27 28
f 1 28 29
f 1 29 30
f 1 30 31
f 1 31 32
f 1 32 33
f 1 33 34
f 1 34 35
f 1 35 36
f 1 36 37
f 1 37 38
f 1 38 39
f 1 39 40
f 1 40 41
f 1 41 42
f 1 42 43
f 1 43 44
f 1 44 45
f 1 45 46
f 1 46 47
f 1 47 48
f 1 48 49
f 1 49 50
f 1 50 51
f 1 51 52
f 1 52 53
f 1 53 54
f 1 54 55
f 1 55 56
f 1 56 57
f 1 57 58
f 1 58 59
f 1 59 60
f 1 60 61
f 1 61 62
f 1 62 63
f 1 63 64
f 1 64 65
f 1 65 66
f 1 66 67
f 1 67 68
f 1 68 69
f 1 69 70
f 1 70 71
f 1 71 72
f 1 72 73
f 1 73 74
f 1 74 75
f 1 75 76
f 1 76 77
f 1 77 78
f 1 78 79
f 1 79 80
f 1 80 81
f 1 81 82
f 1 82 83
f 1 83 84
f 1 84 85
f 1 85 86
f 1 86 87
f 1 87 88
f 1 88 89
f 1 89 90
f 1 90 91
f 1 91 92
f 1 92 93
f 1 93 94
f 1 94 95
f 1 95 96
f 1 96 97
