v -0.980117 0.524053 -6.063513
v -0.975065 0.524053 -6.063128
v -0.970000 0.524053 -6.063000
v -1.069487 0.514090 -6.161243
v -1.069872 0.519065 -6.162120
v -1.066395 0.505960 -6.143491
v -1.061403 0.488487 -6.143491
v -1.060802 0.507009 -6.124732
v -1.051720 0.508714 -6.107443
v -1.007612 0.516993 -6.070612
v -0.989174 0.520454 -6.064921
v -0.988181 0.516979 -6.064921
v -1.005664 0.510176 -6.070612
v -0.986564 0.513746 -6.064921
v -0.984378 0.510867 -6.064921
v -0.975241 0.505261 -6.064921
v -0.971685 0.504617 -6.064921
v -0.973305 0.485928 -6.070612
v -0.980281 0.487192 -6.070612
v -0.974798 0.468704 -6.079853
v -0.976107 0.453607 -6.092289
v -0.977979 0.432010 -6.124732
v -0.978470 0.426341 -6.143491
v -0.996351 0.429581 -6.143491
v -0.994822 0.435062 -6.124732
v -1.013326 0.436063 -6.143491
v -1.028815 0.445566 -6.143491
v -1.042285 0.457763 -6.143491
v -1.053273 0.472236 -6.143491
v -1.038091 0.461609 -6.124732
v -0.992339 0.443963 -6.107443
v -1.006730 0.449459 -6.107443
v -1.001237 0.460616 -6.092289
v -1.019861 0.457515 -6.107443
v -1.012403 0.467467 -6.092289
v -1.002492 0.503835 -6.070612
v -1.010946 0.486503 -6.079853
v -1.017170 0.494701 -6.079853
v -1.047488 0.493902 -6.107443
v -1.030036 0.486695 -6.092289
v -1.022114 0.476261 -6.092289
v -1.031280 0.467855 -6.107443
v -1.048441 0.475242 -6.124732
v -1.040595 0.480125 -6.107443
v -1.056100 0.490551 -6.124732
v -1.069872 0.524053 -6.157935
v -1.070000 0.524053 -6.163000
v -0.970000 0.519550 -6.063101
v -1.068847 0.509140 -6.160370
v -1.039497 0.511008 -6.092289
v -1.024603 0.513804 -6.079853
v -0.981699 0.508441 -6.064921
v -0.978618 0.506551 -6.064921
v -0.984926 0.470539 -6.079853
v -0.977181 0.441217 -6.107443
v -1.025402 0.450120 -6.124732
v -1.003316 0.479594 -6.079853
v -1.021776 0.503907 -6.079853
v -1.069487 0.524053 -6.152883
v -1.068847 0.524053 -6.147857
v -0.970000 0.515057 -6.063405
v -1.067953 0.504229 -6.159504
v -0.986905 0.489721 -6.070612
v -1.010813 0.441168 -6.124732
v -1.067953 0.524053 -6.142870
v -1.066808 0.524053 -6.137935
v -1.065414 0.524053 -6.133064
v -1.063775 0.524053 -6.128269
v -1.061896 0.524053 -6.123564
v -1.059780 0.524053 -6.118961
v -1.018530 0.524053 -6.075565
v -1.014039 0.524053 -6.073220
v -1.009436 0.524053 -6.071104
v -1.004731 0.524053 -6.069225
v -0.999936 0.524053 -6.067586
v -0.995065 0.524053 -6.066192
v -0.990130 0.524053 -6.065047
v -0.985143 0.524053 -6.064153
v -1.066808 0.499369 -6.158647
v -0.970000 0.510582 -6.063912
v -0.970000 0.438019 -6.112028
v -0.970000 0.435811 -6.115953
v -0.975065 0.425699 -6.145657
v -0.970000 0.433782 -6.119974
v -0.970000 0.431937 -6.124082
v -0.970000 0.430278 -6.128269
v -0.970000 0.428809 -6.132527
v -0.970000 0.427534 -6.136846
v -0.970000 0.426454 -6.141219
v -0.970000 0.425572 -6.145635
v -1.065414 0.494571 -6.157802
v -0.992948 0.493429 -6.070612
v -1.035898 0.498412 -6.092289
v -0.970000 0.506134 -6.064619
v -0.970000 0.442953 -6.104495
v -0.970000 0.440401 -6.108206
v -1.063775 0.489850 -6.156969
v -0.970000 0.448545 -6.097437
v -0.970000 0.445670 -6.100903
v -1.061896 0.485217 -6.156152
v -0.994542 0.474211 -6.079853
v -0.988998 0.455942 -6.092289
v -1.057435 0.524053 -6.114470
v -1.054864 0.524053 -6.110104
v -1.052076 0.524053 -6.105873
v -1.049078 0.524053 -6.101789
v -1.045876 0.524053 -6.097863
v -1.042479 0.524053 -6.094103
v -1.038897 0.524053 -6.090521
v -1.035137 0.524053 -6.087124
v -1.031211 0.524053 -6.083922
v -1.027127 0.524053 -6.080924
v -1.022896 0.524053 -6.078136
v -0.970000 0.468789 -6.079658
v -0.970000 0.465092 -6.082231
v -0.970000 0.461516 -6.084968
v -0.970000 0.458066 -6.087862
v -0.970000 0.454749 -6.090910
v -0.970000 0.451574 -6.094103
v -1.059780 0.480683 -6.155353
v -0.998204 0.498188 -6.070612
v -0.970000 0.472597 -6.077254
v -1.057435 0.476260 -6.154573
v -0.970000 0.476510 -6.075024
v -1.054864 0.471960 -6.153815
v -0.970000 0.501723 -6.065525
v -0.970000 0.480520 -6.072973
v -1.052076 0.467794 -6.153080
v -0.970000 0.497356 -6.066629
v -0.970000 0.484617 -6.071104
v -1.049078 0.463772 -6.152371
v -0.970000 0.493044 -6.067929
v -0.970000 0.488795 -6.069422
v -1.045876 0.459905 -6.151689
v -1.042479 0.456203 -6.151036
v -0.980117 0.426078 -6.145724
v -1.038897 0.452675 -6.150414
v -0.985143 0.426708 -6.145835
v -1.035137 0.449330 -6.149824
v -0.990130 0.427588 -6.145991
v -1.031211 0.446177 -6.149268
v -0.995065 0.428716 -6.146190
v -1.027127 0.443224 -6.148748
v -0.999936 0.430089 -6.146432
v -1.022896 0.440478 -6.148263
v -1.004731 0.431702 -6.146716
v -1.018530 0.437947 -6.147817
v -1.009436 0.433553 -6.147042
v -1.014039 0.435637 -6.147410
v -1.042040 0.496022 -6.099561
v -1.039133 0.489469 -6.099561
v -1.049948 0.501210 -6.107443
v -1.022114 0.476261 -6.092289
v -0.998024 0.467139 -6.085699
v -1.042040 0.496022 -6.099561
v -1.022114 0.476261 -6.092289
v -1.044879 0.477459 -6.115860
v -0.998268 0.486330 -6.074808
f 1 3 2
f 4 6 5
f 7 9 8
f 10 12 11
f 13 15 14
f 16 18 17
f 19 21 20
f 22 24 23
f 25 27 26
f 28 30 29
f 31 33 32
f 33 35 34
f 36 38 37
f 39 41 40
f 41 43 42
f 44 46 45
f 45 46 47
f 1 48 3
f 49 6 4
f 7 50 9
f 51 12 10
f 13 52 15
f 53 18 16
f 19 54 21
f 55 24 22
f 25 28 27
f 28 56 30
f 33 57 35
f 36 58 38
f 41 44 43
f 46 44 59
f 59 44 60
f 1 61 48
f 62 6 49
f 7 50 152
f 152 50 51
f 51 13 12
f 13 53 52
f 53 19 18
f 19 63 54
f 55 25 24
f 28 64 56
f 39 44 41
f 60 44 65
f 65 44 66
f 66 44 67
f 67 44 68
f 68 44 69
f 69 44 70
f 71 61 72
f 72 61 73
f 73 61 74
f 74 61 75
f 75 61 76
f 76 61 77
f 77 61 78
f 78 61 1
f 79 6 62
f 53 63 19
f 25 64 28
f 39 70 44
f 71 80 61
f 81 83 82
f 82 83 84
f 84 83 85
f 85 83 86
f 86 83 87
f 87 83 88
f 88 83 89
f 89 83 90
f 91 6 79
f 53 92 63
f 55 64 25
f 93 70 39
f 71 94 80
f 95 83 96
f 96 83 81
f 97 6 91
f 55 31 64
f 58 70 93
f 98 83 99
f 99 83 95
f 100 6 97
f 92 101 154
f 154 101 31
f 101 31 102
f 102 31 55
f 70 58 103
f 103 58 104
f 104 58 105
f 105 58 106
f 106 58 107
f 107 58 108
f 108 58 109
f 109 58 110
f 110 58 111
f 111 58 112
f 112 58 113
f 113 58 71
f 114 83 115
f 115 83 116
f 116 83 117
f 117 83 118
f 118 83 119
f 119 83 98
f 120 6 100
f 7 150 155
f 155 150 13
f 51 150 152
f 150 152 7
f 31 33 154
f 154 33 92
f 33 92 57
f 57 92 121
f 36 71 58
f 122 83 114
f 123 6 120
f 53 121 92
f 36 94 71
f 124 83 122
f 125 6 123
f 7 157 156
f 156 158 53
f 157 153 158
f 156 157 158
f 13 153 150
f 7 150 157
f 157 150 153
f 53 36 121
f 36 126 94
f 127 83 124
f 128 6 125
f 36 129 126
f 130 83 127
f 131 6 128
f 36 132 129
f 132 83 133
f 133 83 130
f 134 6 131
f 36 83 132
f 135 6 134
f 36 136 83
f 137 6 135
f 36 138 136
f 139 6 137
f 36 140 138
f 141 6 139
f 36 142 140
f 143 6 141
f 36 144 142
f 145 6 143
f 36 146 144
f 147 6 145
f 36 148 146
f 149 6 147
f 36 149 148
f 149 7 6
f 36 149 151
f 151 149 7
f 5 46 47
