v 0.390542 0.000000 -1.530000
v 0.389034 0.000000 -1.529943
v 0.389788 0.000000 -1.529986
v 0.388283 0.000000 -1.529872
v 0.387536 0.000000 -1.529773
v 0.386792 0.000000 -1.529645
v 0.386054 0.000000 -1.529490
v 0.385322 0.000000 -1.529307
v 0.384598 0.000000 -1.529096
v 0.383882 0.000000 -1.528858
v 0.383175 0.000000 -1.528594
v 0.382479 0.000000 -1.528303
v 0.381795 0.000000 -1.527986
v 0.381123 0.000000 -1.527643
v 0.380464 0.000000 -1.527275
v 0.379820 0.000000 -1.526883
v 0.379190 0.000000 -1.526467
v 0.378578 0.000000 -1.526027
v 0.377982 0.000000 -1.525564
v 0.377404 0.000000 -1.525079
v 0.376844 0.000000 -1.524573
v 0.376304 0.000000 -1.524046
v 0.375785 0.000000 -1.523499
v 0.375286 0.000000 -1.522933
v 0.374809 0.000000 -1.522349
v 0.374355 0.000000 -1.521747
v 0.373923 0.000000 -1.521128
v 0.373516 0.000000 -1.520493
v 0.373132 0.000000 -1.519844
v 0.372773 0.000000 -1.519180
v 0.372440 0.000000 -1.518503
v 0.372132 0.000000 -1.517815
v -0.390542 0.000000 -1.530000
v -0.389788 0.000000 -1.529986
v -0.389034 0.000000 -1.529943
v -0.388283 0.000000 -1.529872
v -0.387536 0.000000 -1.529773
v -0.386792 0.000000 -1.529645
v -0.386054 0.000000 -1.529490
v -0.385322 0.000000 -1.529307
v -0.384598 0.000000 -1.529096
v -0.383882 0.000000 -1.528858
v -0.383175 0.000000 -1.528594
v -0.382479 0.000000 -1.528303
v -0.381795 0.000000 -1.527986
v -0.381123 0.000000 -1.527643
v -0.380464 0.000000 -1.527275
v -0.379820 0.000000 -1.526883
v -0.379190 0.000000 -1.526467
v -0.378578 0.000000 -1.526027
v -0.377982 0.000000 -1.525564
v -0.377404 0.000000 -1.525079
v -0.376844 0.000000 -1.524573
v -0.376304 0.000000 -1.524046
v -0.375785 0.000000 -1.523499
v -0.375286 0.000000 -1.522933
v -0.374809 0.000000 -1.522349
v -0.374355 0.000000 -1.521747
v -0.373923 0.000000 -1.521128
v -0.373516 0.000000 -1.520493
v -0.373132 0.000000 -1.519844
v -0.372773 0.000000 -1.519180
v -0.372440 0.000000 -1.518503
v -0.372132 0.000000 -1.517815
v 0.370222 -0.037648 -1.517815
v 0.388538 -0.039510 -1.530000
v 0.382547 -0.078615 -1.530000
v 0.364514 -0.074910 -1.517815
v 0.372631 -0.116914 -1.530000
v 0.355065 -0.111403 -1.517815
v 0.358891 -0.154012 -1.530000
v 0.341973 -0.146752 -1.517815
v 0.341469 -0.189531 -1.530000
v 0.325372 -0.180596 -1.517815
v 0.305432 -0.212587 -1.517815
v 0.320542 -0.223104 -1.530000
v 0.282358 -0.242396 -1.517815
v 0.296327 -0.254388 -1.530000
v 0.269070 -0.283062 -1.530000
v 0.256386 -0.269718 -1.517815
v 0.239053 -0.308831 -1.530000
v 0.227784 -0.294273 -1.517815
v 0.206583 -0.331431 -1.530000
v 0.196844 -0.315807 -1.517815
v 0.171992 -0.350630 -1.530000
v 0.163885 -0.334102 -1.517815
v 0.135637 -0.366231 -1.530000
v 0.129243 -0.348967 -1.517815
v 0.097890 -0.378075 -1.530000
v 0.093276 -0.360252 -1.517815
v 0.056351 -0.367840 -1.517815
v 0.059139 -0.386038 -1.530000
v 0.019781 -0.390041 -1.530000
v 0.018848 -0.371654 -1.517815
v -0.019781 -0.390041 -1.530000
v -0.018848 -0.371654 -1.517815
v -0.059139 -0.386038 -1.530000
v -0.056351 -0.367840 -1.517815
v -0.093276 -0.360252 -1.517815
v -0.097890 -0.378075 -1.530000
v -0.129243 -0.348967 -1.517815
v -0.135637 -0.366231 -1.530000
v -0.171992 -0.350630 -1.530000
v -0.163885 -0.334102 -1.517815
v -0.206583 -0.331431 -1.530000
v -0.196844 -0.315807 -1.517815
v -0.239053 -0.308831 -1.530000
v -0.227784 -0.294273 -1.517815
v -0.256386 -0.269718 -1.517815
v -0.269070 -0.283062 -1.530000
v -0.296327 -0.254388 -1.530000
v -0.282358 -0.242396 -1.517815
v -0.320542 -0.223104 -1.530000
v -0.305432 -0.212587 -1.517815
v -0.341469 -0.189531 -1.530000
v -0.325372 -0.180596 -1.517815
v -0.341973 -0.146752 -1.517815
v -0.358891 -0.154012 -1.530000
v -0.355065 -0.111403 -1.517815
v -0.372631 -0.116914 -1.530000
v -0.364514 -0.074910 -1.517815
v -0.382547 -0.078615 -1.530000
v -0.388538 -0.039510 -1.530000
v -0.370222 -0.037648 -1.517815
f 1 3 2
f 1 2 4
f 1 4 5
f 1 5 6
f 1 6 7
f 1 7 8
f 1 8 9
f 1 9 10
f 1 10 11
f 1 11 12
f 1 12 13
f 1 13 14
f 1 14 15
f 1 15 16
f 1 16 17
f 1 17 18
f 1 18 19
f 1 19 20
f 1 20 21
f 1 21 22
f 1 22 23
f 1 23 24
f 1 24 25
f 1 25 26
f 1 26 27
f 1 27 28
f 1 28 29
f 1 29 30
f 1 30 31
f 1 31 32
f 33 35 34
f 33 36 35
f 33 37 36
f 33 38 37
f 33 39 38
f 33 40 39
f 33 41 40
f 33 42 41
f 33 43 42
f 33 44 43
f 33 45 44
f 33 46 45
f 33 47 46
f 33 48 47
f 33 49 48
f 33 50 49
f 33 51 50
f 33 52 51
f 33 53 52
f 33 54 53
f 33 55 54
f 33 56 55
f 33 57 56
f 33 58 57
f 33 59 58
f 33 60 59
f 33 61 60
f 33 62 61
f 33 63 62
f 33 64 63
f 1 32 65
f 1 65 66
f 66 65 67
f 67 65 68
f 67 68 69
f 69 68 70
f 69 70 71
f 71 70 72
f 71 72 73
f 73 72 74
f 73 74 75
f 73 75 76
f 76 75 77
f 76 77 78
f 78 77 79
f 79 77 80
f 79 80 81
f 81 80 82
f 81 82 83
f 83 82 84
f 83 84 85
f 85 84 86
f 85 86 87
f 87 86 88
f 87 88 89
f 89 88 90
f 89 90 91
f 89 91 92
f 92 91 93
f 93 91 94
f 93 94 95
f 95 94 96
f 95 96 97
f 97 96 98
f 97 98 99
f 97 99 100
f 100 99 101
f 100 101 102
f 102 101 103
f 103 101 104
f 103 104 105
f 105 104 106
f 105 106 107
f 107 106 108
f 107 108 109
f 107 109 110
f 110 109 111
f 111 109 112
f 111 112 113
f 113 112 114
f 113 114 115
f 115 114 116
f 115 116 117
f 115 117 118
f 118 117 119
f 118 119 120
f 120 119 121
f 120 121 122
f 122 121 123
f 123 121 124
f 123 124 33
f 33 124 64
