v 0.025000 -1.525000 0.350000
v 0.037662 -1.525000 0.350321
v 0.050292 -1.525000 0.351283
v 0.062857 -1.525000 0.352883
v 0.075325 -1.525000 0.355118
v 0.087663 -1.525000 0.357981
v 0.099841 -1.525000 0.361465
v 0.111826 -1.525000 0.365562
v 0.123589 -1.525000 0.370261
v 0.135099 -1.525000 0.375549
v 0.146325 -1.525000 0.381413
v 0.157241 -1.525000 0.387839
v 0.167817 -1.525000 0.394809
v 0.178026 -1.525000 0.402306
v 0.187843 -1.525000 0.410310
v 0.197242 -1.525000 0.418802
v 0.206198 -1.525000 0.427758
v 0.214690 -1.525000 0.437157
v 0.222694 -1.525000 0.446974
v 0.230191 -1.525000 0.457183
v 0.237161 -1.525000 0.467759
v 0.243587 -1.525000 0.478675
v 0.249451 -1.525000 0.489901
v 0.254739 -1.525000 0.501411
v 0.259438 -1.525000 0.513174
v 0.263535 -1.525000 0.525159
v 0.267019 -1.525000 0.537337
v 0.269882 -1.525000 0.549675
v 0.272117 -1.525000 0.562143
v 0.273717 -1.525000 0.574708
v 0.274679 -1.525000 0.587338
v 0.275000 -1.525000 0.600000
v -0.625000 -1.525000 0.600000
v -0.624679 -1.525000 0.587338
v -0.623717 -1.525000 0.574708
v -0.622117 -1.525000 0.562143
v -0.619882 -1.525000 0.549675
v -0.617019 -1.525000 0.537337
v -0.613535 -1.525000 0.525159
v -0.609438 -1.525000 0.513174
v -0.604739 -1.525000 0.501411
v -0.599451 -1.525000 0.489901
v -0.593587 -1.525000 0.478675
v -0.587161 -1.525000 0.467759
v -0.580191 -1.525000 0.457183
v -0.572694 -1.525000 0.446974
v -0.564690 -1.525000 0.437157
v -0.556198 -1.525000 0.427758
v -0.547242 -1.525000 0.418802
v -0.537843 -1.525000 0.410310
v -0.528026 -1.525000 0.402306
v -0.517817 -1.525000 0.394809
v -0.507241 -1.525000 0.387839
v -0.496325 -1.525000 0.381413
v -0.485099 -1.525000 0.375549
v -0.473589 -1.525000 0.370261
v -0.461826 -1.525000 0.365562
v -0.449841 -1.525000 0.361465
v -0.437663 -1.525000 0.357981
v -0.425325 -1.525000 0.355118
v -0.412857 -1.525000 0.352883
v -0.400292 -1.525000 0.351283
v -0.387662 -1.525000 0.350321
v -0.375000 -1.525000 0.350000
f 1 2 3
f 1 3 4
f 1 4 5
f 1 5 6
f 1 6 7
f 1 7 8
f 1 8 9
f 1 9 10
f 1 10 11
f 1 11 12
f 1 12 13
f 1 13 14
f 1 14 15
f 1 15 16
f 1 16 17
f 1 17 18
f 1 18 19
f 1 19 20
f 1 20 21
f 1 21 22
f 1 22 23
f 1 23 24
f 1 24 25
f 1 25 26
f 1 26 27
f 1 27 28
f 1 28 29
f 1 29 30
f 1 30 31
f 1 31 32
f 1 32 33
f 1 33 34
f 1 34 35
f 1 35 36
f 1 36 37
f 1 37 38
f 1 38 39
f 1 39 40
f 1 40 41
f 1 41 42
f 1 42 43
f 1 43 44
f 1 44 45
f 1 45 46
f 1 46 47
f 1 47 48
f 1 48 49
f 1 49 50
f 1 50 51
f 1 51 52
f 1 52 53
f 1 53 54
f 1 54 55
f 1 55 56
f 1 56 57
f 1 57 58
f 1 58 59
f 1 59 60
f 1 60 61
f 1 61 62
f 1 62 63
f 1 63 64
