v -1.070000 -0.926440 -6.163000
v -1.069945 -0.927544 -6.159500
v -1.070000 -0.524053 -6.163000
v -1.069872 -0.524053 -6.157935
v -1.069784 -0.928615 -6.156101
v -1.069487 -0.524053 -6.152883
v -1.069521 -0.929656 -6.152800
v -1.069159 -0.930667 -6.149593
v -1.068847 -0.524053 -6.147857
v -1.068704 -0.931650 -6.146475
v -1.068160 -0.932607 -6.143442
v -1.067953 -0.524053 -6.142870
v -1.067530 -0.933537 -6.140490
v -1.066808 -0.524053 -6.137935
v -1.066819 -0.934444 -6.137616
v -1.066032 -0.935327 -6.134814
v -1.065414 -0.524053 -6.133064
v -1.065173 -0.936188 -6.132082
v -1.064245 -0.937030 -6.129414
v -1.063775 -0.524053 -6.128269
v -1.063254 -0.937851 -6.126807
v -1.062203 -0.938655 -6.124257
v -1.061896 -0.524053 -6.123564
v -1.061097 -0.939443 -6.121760
v -1.059938 -0.940215 -6.119313
v -1.059780 -0.524053 -6.118961
v -1.058728 -0.940971 -6.116914
v -1.057467 -0.941711 -6.114565
v -1.057435 -0.524053 -6.114470
v -1.056155 -0.942437 -6.112265
v -1.054864 -0.524053 -6.110104
v -1.054792 -0.943147 -6.110012
v -1.053378 -0.943842 -6.107808
v -1.052076 -0.524053 -6.105873
v -1.051914 -0.944522 -6.105652
v -1.050401 -0.945187 -6.103543
v -1.049078 -0.524053 -6.101789
v -1.048838 -0.945837 -6.101482
v -1.047226 -0.946472 -6.099467
v -1.045876 -0.524053 -6.097863
v -1.045564 -0.947092 -6.097499
v -1.043855 -0.947698 -6.095578
v -1.042479 -0.524053 -6.094103
v -1.042097 -0.948289 -6.093702
v -1.040291 -0.948866 -6.091872
v -1.038897 -0.524053 -6.090521
v -1.038436 -0.949429 -6.090089
v -1.036534 -0.949977 -6.088351
v -1.035137 -0.524053 -6.087124
v -1.034583 -0.950510 -6.086660
v -1.032582 -0.951028 -6.085015
v -1.031211 -0.524053 -6.083922
v -1.030532 -0.951532 -6.083418
v -1.028432 -0.952020 -6.081869
v -1.027127 -0.524053 -6.080924
v -1.026281 -0.952494 -6.080368
v -1.024080 -0.952952 -6.078915
v -1.022896 -0.524053 -6.078136
v -1.021827 -0.953394 -6.077511
v -1.019523 -0.953822 -6.076156
v -1.018530 -0.524053 -6.075565
v -1.017167 -0.954233 -6.074851
v -1.014759 -0.954629 -6.073596
v -1.014039 -0.524053 -6.073220
v -1.012298 -0.955009 -6.072391
v -1.009783 -0.955373 -6.071237
v -1.009436 -0.524053 -6.071104
v -1.007211 -0.955719 -6.070137
v -1.004731 -0.524053 -6.069225
v -1.004577 -0.956047 -6.069097
v -1.001876 -0.956355 -6.068122
v -0.999936 -0.524053 -6.067586
v -0.999101 -0.956641 -6.067216
v -0.996249 -0.956903 -6.066384
v -0.995065 -0.524053 -6.066192
v -0.993313 -0.957140 -6.065631
v -0.990289 -0.957351 -6.064963
v -0.990130 -0.524053 -6.065047
v -0.987172 -0.957534 -6.064384
v -0.985143 -0.524053 -6.064153
v -0.983956 -0.957686 -6.063899
v -0.980636 -0.957808 -6.063513
v -0.980117 -0.524053 -6.063513
v -0.977207 -0.957897 -6.063231
v -0.975065 -0.524053 -6.063128
v -0.973663 -0.957951 -6.063059
v -0.970000 -0.957970 -6.063000
v -0.970000 -0.524053 -6.063000
f 1 3 2
f 2 3 4
f 2 4 5
f 5 4 6
f 5 6 7
f 7 6 8
f 8 6 9
f 8 9 10
f 10 9 11
f 11 9 12
f 11 12 13
f 13 12 14
f 13 14 15
f 15 14 16
f 16 14 17
f 16 17 18
f 18 17 19
f 19 17 20
f 19 20 21
f 21 20 22
f 22 20 23
f 22 23 24
f 24 23 25
f 25 23 26
f 25 26 27
f 27 26 28
f 28 26 29
f 28 29 30
f 30 29 31
f 30 31 32
f 32 31 33
f 33 31 34
f 33 34 35
f 35 34 36
f 36 34 37
f 36 37 38
f 38 37 39
f 39 37 40
f 39 40 41
f 41 40 42
f 42 40 43
f 42 43 44
f 44 43 45
f 45 43 46
f 45 46 47
f 47 46 48
f 48 46 49
f 48 49 50
f 50 49 51
f 51 49 52
f 51 52 53
f 53 52 54
f 54 52 55
f 54 55 56
f 56 55 57
f 57 55 58
f 57 58 59
f 59 58 60
f 60 58 61
f 60 61 62
f 62 61 63
f 63 61 64
f 63 64 65
f 65 64 66
f 66 64 67
f 66 67 68
f 68 67 69
f 68 69 70
f 70 69 71
f 71 69 72
f 71 72 73
f 73 72 74
f 74 72 75
f 74 75 76
f 76 75 77
f 77 75 78
f 77 78 79
f 79 78 80
f 79 80 81
f 81 80 82
f 82 80 83
f 82 83 84
f 84 83 85
f 84 85 86
f 86 85 87
f 87 85 88
