v 0.159571 0.227071 -0.052157
v 0.159752 0.227248 -0.052157
v 0.159938 0.227420 -0.052157
v 0.160128 0.227588 -0.052157
v 0.160323 0.227750 -0.052157
v 0.160521 0.227908 -0.052157
v 0.160723 0.228060 -0.052157
v 0.160929 0.228208 -0.052157
v 0.161139 0.228350 -0.052157
v 0.161352 0.228486 -0.052157
v 0.161569 0.228618 -0.052157
v 0.161789 0.228743 -0.052157
v 0.162012 0.228864 -0.052157
v 0.162238 0.228978 -0.052157
v 0.162467 0.229087 -0.052157
v 0.162699 0.229190 -0.052157
v 0.162933 0.229287 -0.052157
v 0.163169 0.229378 -0.052157
v 0.163408 0.229462 -0.052157
v 0.163649 0.229541 -0.052157
v 0.163891 0.229614 -0.052157
v 0.164136 0.229681 -0.052157
v 0.164382 0.229741 -0.052157
v 0.164629 0.229795 -0.052157
v 0.164878 0.229843 -0.052157
v 0.165128 0.229885 -0.052157
v 0.165379 0.229920 -0.052157
v 0.165630 0.229949 -0.052157
v 0.165883 0.229971 -0.052157
v 0.166136 0.229987 -0.052157
v 0.166389 0.229997 -0.052157
v 0.166642 0.230000 -0.052157
v 0.165787 0.230000 -0.052157
v 0.163231 0.230000 -0.052157
v 0.159000 0.230000 -0.052157
v 0.153137 0.230000 -0.052157
v 0.145703 0.230000 -0.052157
v 0.136774 0.230000 -0.052157
v 0.126441 0.230000 -0.052157
v 0.114811 0.230000 -0.052157
v 0.102003 0.230000 -0.052157
v 0.088148 0.230000 -0.052157
v 0.073388 0.230000 -0.052157
v 0.057876 0.230000 -0.052157
v 0.041769 0.230000 -0.052157
v 0.025234 0.230000 -0.052157
v 0.008440 0.230000 -0.052157
v -0.008440 0.230000 -0.052157
v -0.025234 0.230000 -0.052157
v -0.041769 0.230000 -0.052157
v -0.057876 0.230000 -0.052157
v -0.073388 0.230000 -0.052157
v -0.088148 0.230000 -0.052157
v -0.102003 0.230000 -0.052157
v -0.114811 0.230000 -0.052157
v -0.126441 0.230000 -0.052157
v -0.136774 0.230000 -0.052157
v -0.145703 0.230000 -0.052157
v -0.153137 0.230000 -0.052157
v -0.159000 0.230000 -0.052157
v -0.163231 0.230000 -0.052157
v -0.165787 0.230000 -0.052157
v -0.166642 0.230000 -0.052157
v -0.166389 0.229997 -0.052157
v -0.166136 0.229987 -0.052157
v -0.165883 0.229971 -0.052157
v -0.165630 0.229949 -0.052157
v -0.165379 0.229920 -0.052157
v -0.165128 0.229885 -0.052157
v -0.164878 0.229843 -0.052157
v -0.164629 0.229795 -0.052157
v -0.164382 0.229741 -0.052157
v -0.164136 0.229681 -0.052157
v -0.163891 0.229614 -0.052157
v -0.163649 0.229541 -0.052157
v -0.163408 0.229462 -0.052157
v -0.163169 0.229378 -0.052157
v -0.162933 0.229287 -0.052157
v -0.162699 0.229190 -0.052157
v -0.162467 0.229087 -0.052157
v -0.162238 0.228978 -0.052157
v -0.162012 0.228864 -0.052157
v -0.161789 0.228743 -0.052157
v -0.161569 0.228618 -0.052157
v -0.161352 0.228486 -0.052157
v -0.161139 0.228350 -0.052157
v -0.160929 0.228208 -0.052157
v -0.160723 0.228060 -0.052157
v -0.160521 0.227908 -0.052157
v -0.160323 0.227750 -0.052157
v -0.160128 0.227588 -0.052157
v -0.159938 0.227420 -0.052157
v -0.159752 0.227248 -0.052157
v -0.159571 0.227071 -0.052157
v -0.166642 0.230000 -0.052157
v -0.165787 0.230000 -0.052157
v -0.163231 0.230000 -0.052157
v -0.159000 0.230000 -0.052157
v -0.153137 0.230000 -0.052157
v -0.145703 0.230000 -0.052157
v -0.136774 0.230000 -0.052157
v -0.126441 0.230000 -0.052157
v -0.114811 0.230000 -0.052157
v -0.102003 0.230000 -0.052157
v -0.088148 0.230000 -0.052157
v -0.073388 0.230000 -0.052157
v -0.057876 0.230000 -0.052157
v -0.041769 0.230000 -0.052157
v -0.025234 0.230000 -0.052157
v -0.008440 0.230000 -0.052157
v 0.008440 0.230000 -0.052157
v 0.025234 0.230000 -0.052157
v 0.041769 0.230000 -0.052157
v 0.057876 0.230000 -0.052157
v 0.073388 0.230000 -0.052157
v 0.088148 0.230000 -0.052157
v 0.102003 0.230000 -0.052157
v 0.114811 0.230000 -0.052157
v 0.126441 0.230000 -0.052157
v 0.136774 0.230000 -0.052157
v 0.145703 0.230000 -0.052157
v 0.153137 0.230000 -0.052157
v 0.159000 0.230000 -0.052157
v 0.163231 0.230000 -0.052157
v 0.165787 0.230000 -0.052157
v 0.166642 0.230000 -0.052157
f 1 3 2
f 3 5 4
f 5 7 6
f 7 9 8
f 9 11 10
f 11 13 12
f 13 15 14
f 15 17 16
f 17 19 18
f 19 21 20
f 21 23 22
f 23 25 24
f 25 27 26
f 27 29 28
f 29 31 30
f 63 65 64
f 65 67 66
f 67 69 68
f 69 71 70
f 71 73 72
f 73 75 74
f 75 77 76
f 77 79 78
f 79 81 80
f 81 83 82
f 83 85 84
f 85 87 86
f 87 89 88
f 89 91 90
f 91 93 92
f 1 5 3
f 5 9 7
f 9 13 11
f 13 17 15
f 17 21 19
f 21 25 23
f 25 29 27
f 29 32 31
f 63 67 65
f 67 71 69
f 71 75 73
f 75 79 77
f 79 83 81
f 83 87 85
f 87 91 89
f 91 94 93
f 1 9 5
f 9 17 13
f 17 25 21
f 25 32 29
f 63 71 67
f 71 79 75
f 79 87 83
f 87 94 91
f 1 17 9
f 17 32 25
f 63 79 71
f 79 94 87
f 1 32 17
f 63 94 79
