v -0.139771 0.000000 0.721693
v -0.115492 0.000000 0.725974
v -0.115075 0.000000 0.726039
v -0.114655 0.000000 0.726086
v -0.114234 0.000000 0.726115
v -0.113812 0.000000 0.726126
v -0.113390 0.000000 0.726119
v -0.112968 0.000000 0.726095
v -0.112548 0.000000 0.726053
v -0.112130 0.000000 0.725993
v -0.111715 0.000000 0.725916
v -0.111303 0.000000 0.725821
v -0.110896 0.000000 0.725709
v -0.110494 0.000000 0.725579
v -0.110098 0.000000 0.725433
v -0.109709 0.000000 0.725271
v -0.109326 0.000000 0.725092
v -0.108952 0.000000 0.724897
v -0.108586 0.000000 0.724686
v -0.108229 0.000000 0.724460
v -0.107882 0.000000 0.724220
v -0.107546 0.000000 0.723964
v -0.107220 0.000000 0.723695
v -0.106907 0.000000 0.723413
v -0.106605 0.000000 0.723117
v -0.106316 0.000000 0.722809
v -0.106041 0.000000 0.722489
v -0.105779 0.000000 0.722158
v -0.105532 0.000000 0.721816
v -0.105299 0.000000 0.721463
v -0.105081 0.000000 0.721102
v -0.104879 0.000000 0.720731
v -0.104692 0.000000 0.720352
v -0.079032 0.000000 0.665322
v -0.153288 0.010000 0.652229
v -0.150918 0.010000 0.652781
v -0.148546 0.010000 0.653325
v -0.146172 0.010000 0.653861
v -0.143796 0.010000 0.654387
v -0.141418 0.010000 0.654905
v -0.139039 0.010000 0.655415
v -0.136657 0.010000 0.655915
v -0.134274 0.010000 0.656407
v -0.131889 0.010000 0.656891
v -0.129502 0.010000 0.657365
v -0.127113 0.010000 0.657831
v -0.124723 0.010000 0.658289
v -0.122331 0.010000 0.658738
v -0.119938 0.010000 0.659178
v -0.117542 0.010000 0.659609
v -0.115146 0.010000 0.660031
v -0.112748 0.010000 0.660445
v -0.110348 0.010000 0.660850
v -0.107947 0.010000 0.661247
v -0.105544 0.010000 0.661635
v -0.103140 0.010000 0.662014
v -0.100735 0.010000 0.662384
v -0.098328 0.010000 0.662745
v -0.095921 0.010000 0.663098
v -0.093511 0.010000 0.663442
v -0.091101 0.010000 0.663778
v -0.088689 0.010000 0.664104
v -0.086277 0.010000 0.664422
v -0.083863 0.010000 0.664731
v -0.081448 0.010000 0.665031
v -0.079032 0.010000 0.665322
v -0.153288 0.000000 0.652229
v -0.147996 0.000000 0.712717
v -0.147951 0.000000 0.713136
v -0.147887 0.000000 0.713554
v -0.147806 0.000000 0.713968
v -0.147708 0.000000 0.714379
v -0.147592 0.000000 0.714785
v -0.147460 0.000000 0.715186
v -0.147310 0.000000 0.715581
v -0.147144 0.000000 0.715969
v -0.146962 0.000000 0.716350
v -0.146764 0.000000 0.716723
v -0.146550 0.000000 0.717087
v -0.146322 0.000000 0.717442
v -0.146078 0.000000 0.717787
v -0.145820 0.000000 0.718121
v -0.145548 0.000000 0.718444
v -0.145263 0.000000 0.718755
v -0.144965 0.000000 0.719054
v -0.144654 0.000000 0.719340
v -0.144332 0.000000 0.719613
v -0.143998 0.000000 0.719872
v -0.143654 0.000000 0.720117
v -0.143300 0.000000 0.720346
v -0.142937 0.000000 0.720561
v -0.142564 0.000000 0.720760
v -0.142184 0.000000 0.720944
v -0.141796 0.000000 0.721111
v -0.141402 0.000000 0.721261
v -0.141001 0.000000 0.721395
v -0.140595 0.000000 0.721512
v -0.140185 0.000000 0.721611
f 1 2 3
f 1 3 4
f 1 4 5
f 1 5 6
f 1 6 7
f 1 7 8
f 1 8 9
f 1 9 10
f 1 10 11
f 1 11 12
f 1 12 13
f 1 13 14
f 1 14 15
f 1 15 16
f 1 16 17
f 1 17 18
f 1 18 19
f 1 19 20
f 1 20 21
f 1 21 22
f 1 22 23
f 1 23 24
f 1 24 25
f 1 25 26
f 1 26 27
f 1 27 28
f 1 28 29
f 1 29 30
f 1 30 31
f 1 31 32
f 1 32 33
f 1 33 34
f 1 34 35
f 1 35 36
f 1 36 37
f 1 37 38
f 1 38 39
f 1 39 40
f 1 40 41
f 1 41 42
f 1 42 43
f 1 43 44
f 1 44 45
f 1 45 46
f 1 46 47
f 1 47 48
f 1 48 49
f 1 49 50
f 1 50 51
f 1 51 52
f 1 52 53
f 1 53 54
f 1 54 55
f 1 55 56
f 1 56 57
f 1 57 58
f 1 58 59
f 1 59 60
f 1 60 61
f 1 61 62
f 1 62 63
f 1 63 64
f 1 64 65
f 1 65 66
f 1 66 67
f 1 67 68
f 1 68 69
f 1 69 70
f 1 70 71
f 1 71 72
f 1 72 73
f 1 73 74
f 1 74 75
f 1 75 76
f 1 76 77
f 1 77 78
f 1 78 79
f 1 79 80
f 1 80 81
f 1 81 82
f 1 82 83
f 1 83 84
f 1 84 85
f 1 85 86
f 1 86 87
f 1 87 88
f 1 88 89
f 1 89 90
f 1 90 91
f 1 91 92
f 1 92 93
f 1 93 94
f 1 94 95
f 1 95 96
f 1 96 97
f 1 97 98
