v -0.712717 0.220000 -0.147996
v -0.659396 0.220000 -0.152661
v -0.658998 0.220000 -0.152704
v -0.658602 0.220000 -0.152763
v -0.658208 0.220000 -0.152838
v -0.657818 0.220000 -0.152928
v -0.657431 0.220000 -0.153034
v -0.657050 0.220000 -0.153155
v -0.656673 0.220000 -0.153292
v -0.656302 0.220000 -0.153443
v -0.655938 0.220000 -0.153609
v -0.655580 0.220000 -0.153790
v -0.655230 0.220000 -0.153985
v -0.654888 0.220000 -0.154194
v -0.654555 0.220000 -0.154416
v -0.654230 0.220000 -0.154651
v -0.653916 0.220000 -0.154900
v -0.653612 0.220000 -0.155160
v -0.653318 0.220000 -0.155433
v -0.653036 0.220000 -0.155717
v -0.652765 0.220000 -0.156012
v -0.652506 0.220000 -0.156318
v -0.652260 0.220000 -0.156634
v -0.652026 0.220000 -0.156960
v -0.651806 0.220000 -0.157294
v -0.651599 0.220000 -0.157637
v -0.651407 0.220000 -0.157989
v -0.651228 0.220000 -0.158347
v -0.651064 0.220000 -0.158713
v -0.650915 0.220000 -0.159085
v -0.650781 0.220000 -0.159462
v -0.650662 0.220000 -0.159845
v -0.650558 0.220000 -0.160232
v -0.651244 0.220000 -0.157420
v -0.651918 0.220000 -0.154605
v -0.652580 0.220000 -0.151787
v -0.653230 0.220000 -0.148967
v -0.653867 0.220000 -0.146144
v -0.654492 0.220000 -0.143317
v -0.655105 0.220000 -0.140489
v -0.655706 0.220000 -0.137657
v -0.656295 0.220000 -0.134824
v -0.656871 0.220000 -0.131987
v -0.657435 0.220000 -0.129148
v -0.657987 0.220000 -0.126307
v -0.658526 0.220000 -0.123463
v -0.659053 0.220000 -0.120617
v -0.659568 0.220000 -0.117769
v -0.660071 0.220000 -0.114919
v -0.660561 0.220000 -0.112066
v -0.661039 0.220000 -0.109212
v -0.661505 0.220000 -0.106355
v -0.661958 0.220000 -0.103496
v -0.662399 0.220000 -0.100636
v -0.662828 0.220000 -0.097773
v -0.663244 0.220000 -0.094909
v -0.663648 0.220000 -0.092043
v -0.664039 0.220000 -0.089175
v -0.664418 0.220000 -0.086306
v -0.664785 0.220000 -0.083435
v -0.665139 0.220000 -0.080562
v -0.665481 0.220000 -0.077688
v -0.665810 0.220000 -0.074812
v -0.666127 0.220000 -0.071935
v -0.666092 0.220000 -0.072335
v -0.666073 0.220000 -0.072735
v -0.666070 0.220000 -0.073135
v -0.666083 0.220000 -0.073536
v -0.666112 0.220000 -0.073935
v -0.666157 0.220000 -0.074333
v -0.666218 0.220000 -0.074729
v -0.666295 0.220000 -0.075123
v -0.666388 0.220000 -0.075512
v -0.666496 0.220000 -0.075898
v -0.666619 0.220000 -0.076279
v -0.666758 0.220000 -0.076655
v -0.666911 0.220000 -0.077025
v -0.667079 0.220000 -0.077389
v -0.667262 0.220000 -0.077745
v -0.667459 0.220000 -0.078094
v -0.667669 0.220000 -0.078435
v -0.667894 0.220000 -0.078767
v -0.668131 0.220000 -0.079090
v -0.668381 0.220000 -0.079403
v -0.668643 0.220000 -0.079706
v -0.668917 0.220000 -0.079998
v -0.669203 0.220000 -0.080279
v -0.669500 0.220000 -0.080548
v -0.669807 0.220000 -0.080805
v -0.670124 0.220000 -0.081050
v -0.670451 0.220000 -0.081282
v -0.670787 0.220000 -0.081500
v -0.671131 0.220000 -0.081705
v -0.671483 0.220000 -0.081896
v -0.671843 0.220000 -0.082072
v -0.720352 0.220000 -0.104692
v -0.720731 0.220000 -0.104879
v -0.721102 0.220000 -0.105081
v -0.721463 0.220000 -0.105299
v -0.721816 0.220000 -0.105532
v -0.722158 0.220000 -0.105779
v -0.722489 0.220000 -0.106041
v -0.722809 0.220000 -0.106316
v -0.723117 0.220000 -0.106605
v -0.723413 0.220000 -0.106907
v -0.723695 0.220000 -0.107220
v -0.723964 0.220000 -0.107546
v -0.724220 0.220000 -0.107882
v -0.724460 0.220000 -0.108229
v -0.724686 0.220000 -0.108586
v -0.724897 0.220000 -0.108952
v -0.725092 0.220000 -0.109326
v -0.725271 0.220000 -0.109709
v -0.725433 0.220000 -0.110098
v -0.725579 0.220000 -0.110494
v -0.725709 0.220000 -0.110896
v -0.725821 0.220000 -0.111303
v -0.725916 0.220000 -0.111715
v -0.725993 0.220000 -0.112130
v -0.726053 0.220000 -0.112548
v -0.726095 0.220000 -0.112968
v -0.726119 0.220000 -0.113390
v -0.726126 0.220000 -0.113812
v -0.726115 0.220000 -0.114234
v -0.726086 0.220000 -0.114655
v -0.726039 0.220000 -0.115075
v -0.725974 0.220000 -0.115492
v -0.721693 0.220000 -0.139771
v -0.721611 0.220000 -0.140185
v -0.721512 0.220000 -0.140595
v -0.721395 0.220000 -0.141001
v -0.721261 0.220000 -0.141402
v -0.721111 0.220000 -0.141796
v -0.720944 0.220000 -0.142184
v -0.720760 0.220000 -0.142564
v -0.720561 0.220000 -0.142937
v -0.720346 0.220000 -0.143300
v -0.720117 0.220000 -0.143654
v -0.719872 0.220000 -0.143998
v -0.719613 0.220000 -0.144332
v -0.719340 0.220000 -0.144654
v -0.719054 0.220000 -0.144965
v -0.718755 0.220000 -0.145263
v -0.718444 0.220000 -0.145548
v -0.718121 0.220000 -0.145820
v -0.717787 0.220000 -0.146078
v -0.717442 0.220000 -0.146322
v -0.717087 0.220000 -0.146550
v -0.716723 0.220000 -0.146764
v -0.716350 0.220000 -0.146962
v -0.715969 0.220000 -0.147144
v -0.715581 0.220000 -0.147310
v -0.715186 0.220000 -0.147460
v -0.714785 0.220000 -0.147592
v -0.714379 0.220000 -0.147708
v -0.713968 0.220000 -0.147806
v -0.713554 0.220000 -0.147887
v -0.713136 0.220000 -0.147951
f 158 1 2
f 32 33 34
f 31 32 34
f 30 31 34
f 29 30 34
f 28 29 34
f 27 28 34
f 26 27 34
f 25 26 34
f 24 25 34
f 23 24 34
f 22 23 34
f 21 22 34
f 20 21 34
f 19 20 34
f 19 34 35
f 18 19 35
f 17 18 35
f 16 17 35
f 15 16 35
f 14 15 35
f 13 14 35
f 12 13 35
f 11 12 35
f 10 11 35
f 9 10 35
f 8 9 35
f 7 8 35
f 7 35 36
f 6 7 36
f 5 6 36
f 4 5 36
f 3 4 36
f 2 3 36
f 158 2 36
f 158 36 37
f 158 37 38
f 158 38 39
f 158 39 40
f 158 40 41
f 158 41 42
f 158 42 43
f 158 43 44
f 158 44 45
f 158 45 46
f 158 46 47
f 158 47 48
f 158 48 49
f 158 49 50
f 158 50 51
f 158 51 52
f 158 52 53
f 158 53 54
f 158 54 55
f 158 55 56
f 158 56 57
f 158 57 58
f 158 58 59
f 158 59 60
f 158 60 61
f 158 61 62
f 63 64 65
f 63 65 66
f 62 63 66
f 62 66 67
f 62 67 68
f 62 68 69
f 62 69 70
f 62 70 71
f 62 71 72
f 62 72 73
f 62 73 74
f 62 74 75
f 62 75 76
f 62 76 77
f 62 77 78
f 62 78 79
f 62 79 80
f 62 80 81
f 158 62 81
f 158 81 82
f 158 82 83
f 158 83 84
f 158 84 85
f 158 85 86
f 158 86 87
f 158 87 88
f 158 88 89
f 158 89 90
f 158 90 91
f 158 91 92
f 158 92 93
f 158 93 94
f 158 94 95
f 158 95 96
f 158 96 97
f 158 97 98
f 158 98 99
f 158 99 100
f 158 100 101
f 158 101 102
f 158 102 103
f 158 103 104
f 158 104 105
f 158 105 106
f 158 106 107
f 158 107 108
f 158 108 109
f 158 109 110
f 158 110 111
f 158 111 112
f 158 112 113
f 158 113 114
f 158 114 115
f 158 115 116
f 158 116 117
f 158 117 118
f 158 118 119
f 158 119 120
f 158 120 121
f 158 121 122
f 158 122 123
f 158 123 124
f 158 124 125
f 158 125 126
f 158 126 127
f 158 127 128
f 158 128 129
f 158 129 130
f 158 130 131
f 158 131 132
f 158 132 133
f 158 133 134
f 158 134 135
f 158 135 136
f 158 136 137
f 158 137 138
f 158 138 139
f 158 139 140
f 158 140 141
f 158 141 142
f 158 142 143
f 158 143 144
f 158 144 145
f 158 145 146
f 158 146 147
f 158 147 148
f 158 148 149
f 158 149 150
f 158 150 151
f 158 151 152
f 158 152 153
f 158 153 154
f 158 154 155
f 158 155 156
f 156 157 158
