v -0.970000 0.425572 -6.145635
v -0.975065 0.425699 -6.145657
v -0.980117 0.426078 -6.145724
v -0.985143 0.426708 -6.145835
v -0.990130 0.427588 -6.145991
v -0.995065 0.428716 -6.146190
v -0.999936 0.430089 -6.146432
v -1.004731 0.431702 -6.146716
v -1.009436 0.433553 -6.147042
v -1.014039 0.435637 -6.147410
v -1.018530 0.437947 -6.147817
v -1.022896 0.440478 -6.148263
v -1.027127 0.443224 -6.148748
v -1.031211 0.446177 -6.149268
v -1.035137 0.449330 -6.149824
v -1.038897 0.452675 -6.150414
v -1.042479 0.456203 -6.151036
v -1.045876 0.459905 -6.151689
v -1.049078 0.463772 -6.152371
v -1.052076 0.467794 -6.153080
v -1.054864 0.471960 -6.153815
v -1.057435 0.476260 -6.154573
v -1.059780 0.480683 -6.155353
v -1.061896 0.485217 -6.156152
v -1.063775 0.489850 -6.156969
v -1.065414 0.494571 -6.157802
v -1.066808 0.499369 -6.158647
v -1.067953 0.504229 -6.159504
v -1.068847 0.509140 -6.160370
v -1.069487 0.514090 -6.161243
v -1.069872 0.519065 -6.162120
v -1.070000 0.524053 -6.163000
v -0.970000 0.390307 -6.345635
v -0.975065 0.390433 -6.345657
v -0.980117 0.390812 -6.345724
v -0.985143 0.391442 -6.345835
v -0.990130 0.392323 -6.345991
v -0.995065 0.393451 -6.346190
v -0.999936 0.394823 -6.346432
v -1.004731 0.396437 -6.346716
v -1.009436 0.398288 -6.347042
v -1.014039 0.400371 -6.347410
v -1.018530 0.402681 -6.347817
v -1.022896 0.405212 -6.348263
v -1.027127 0.407958 -6.348748
v -1.031211 0.410911 -6.349268
v -1.035137 0.414065 -6.349824
v -1.038897 0.417409 -6.350414
v -1.042479 0.420938 -6.351036
v -1.045876 0.424640 -6.351689
v -1.049078 0.428507 -6.352371
v -1.052076 0.432529 -6.353080
v -1.054864 0.436695 -6.353815
v -1.057435 0.440995 -6.354573
v -1.059780 0.445417 -6.355353
v -1.061896 0.449951 -6.356152
v -1.063775 0.454585 -6.356969
v -1.065414 0.459306 -6.357802
v -1.066808 0.464103 -6.358647
v -1.067953 0.468964 -6.359504
v -1.068847 0.473875 -6.360370
v -1.069487 0.478824 -6.361243
v -1.069872 0.483800 -6.362120
v -1.070000 0.488788 -6.363000
f 1 2 34
f 1 34 33
f 2 3 35
f 2 35 34
f 3 4 36
f 3 36 35
f 4 5 37
f 4 37 36
f 5 6 38
f 5 38 37
f 6 7 39
f 6 39 38
f 7 8 40
f 7 40 39
f 8 9 41
f 8 41 40
f 9 10 42
f 9 42 41
f 10 11 43
f 10 43 42
f 11 12 44
f 11 44 43
f 12 13 45
f 12 45 44
f 13 14 46
f 13 46 45
f 14 15 47
f 14 47 46
f 15 16 48
f 15 48 47
f 16 17 49
f 16 49 48
f 17 18 50
f 17 50 49
f 18 19 51
f 18 51 50
f 19 20 52
f 19 52 51
f 20 21 53
f 20 53 52
f 21 22 54
f 21 54 53
f 22 23 55
f 22 55 54
f 23 24 56
f 23 56 55
f 24 25 57
f 24 57 56
f 25 26 58
f 25 58 57
f 26 27 59
f 26 59 58
f 27 28 60
f 27 60 59
f 28 29 61
f 28 61 60
f 29 30 62
f 29 62 61
f 30 31 63
f 30 63 62
f 31 32 64
f 31 64 63
