v -3.202617 0.350000 -4.544118
v -3.337500 0.350000 -4.437000
v -3.336666 0.350000 -4.453440
v -3.334174 0.350000 -4.469711
v -3.330048 0.350000 -4.485647
v -3.324331 0.350000 -4.501083
v -3.317081 0.350000 -4.515862
v -3.308374 0.350000 -4.529831
v -3.298298 0.350000 -4.542848
v -3.286957 0.350000 -4.554779
v -3.274467 0.350000 -4.565501
v -3.260957 0.350000 -4.574905
v -3.246564 0.350000 -4.582893
v -3.231437 0.350000 -4.589385
v -3.215731 0.350000 -4.594313
v -3.199607 0.350000 -4.597626
v -3.183230 0.350000 -4.599291
v -3.166770 0.350000 -4.599291
v -3.150393 0.350000 -4.597626
v -3.134269 0.350000 -4.594313
v -3.118563 0.350000 -4.589385
v -3.103436 0.350000 -4.582893
v -3.089043 0.350000 -4.574905
v -3.075533 0.350000 -4.565501
v -3.063043 0.350000 -4.554779
v -3.051702 0.350000 -4.542848
v -3.041626 0.350000 -4.529831
v -3.032919 0.350000 -4.515862
v -3.025669 0.350000 -4.501083
v -3.337500 0.350000 -4.437000
v -3.034271 0.391136 -4.518250
v -3.018037 0.391136 -4.479058
v -3.337500 0.652074 -4.437000
v -3.337242 0.665465 -4.446204
v -3.336466 0.678402 -4.455360
v -3.335168 0.690905 -4.464466
v -3.333343 0.702996 -4.473520
v -3.330990 0.714683 -4.482509
v -3.328118 0.725941 -4.491391
v -3.324736 0.736734 -4.500118
v -3.320855 0.747028 -4.508642
v -3.316490 0.756796 -4.516920
v -3.311664 0.766028 -4.524917
v -3.306404 0.774717 -4.532600
v -3.300737 0.782855 -4.539938
v -3.294690 0.790441 -4.546904
v -3.288292 0.797482 -4.553482
v -3.281575 0.803991 -4.559662
v -3.274567 0.809975 -4.565429
v -3.267282 0.815450 -4.570775
v -3.259704 0.820431 -4.575703
v -3.251811 0.824937 -4.580214
v -3.243586 0.828985 -4.584309
v -3.235043 0.832578 -4.587977
v -3.226248 0.835694 -4.591184
v -3.217272 0.838311 -4.593896
v -3.208184 0.840406 -4.596080
v -3.199032 0.841973 -4.597720
v -3.189839 0.843024 -4.598824
v -3.180627 0.843572 -4.599402
v -3.171416 0.843629 -4.599463
v -3.162222 0.843196 -4.599006
v -3.153050 0.842261 -4.598023
v -3.143908 0.840811 -4.596504
v -3.134805 0.838834 -4.594441
v -3.125782 0.836333 -4.591844
v -3.116910 0.833323 -4.588740
v -3.108259 0.829817 -4.585155
v -3.099897 0.825830 -4.581114
v -3.091848 0.821362 -4.576632
v -3.084105 0.816403 -4.571715
v -3.076663 0.810945 -4.566371
v -3.069516 0.804976 -4.560605
v -3.062679 0.798484 -4.554427
v -3.056175 0.791455 -4.547844
v -3.050027 0.783873 -4.540865
v -3.044260 0.775726 -4.533502
v -3.038901 0.767015 -4.525782
v -3.033980 0.757752 -4.517740
v -3.029526 0.747945 -4.509412
v -3.025565 0.737607 -4.500833
v -3.022114 0.726761 -4.492045
v -3.019180 0.715433 -4.483093
v -3.016773 0.703653 -4.474019
v -3.014902 0.691440 -4.464862
v -3.013567 0.678786 -4.455636
v -3.012766 0.665670 -4.446347
v -3.012500 0.652074 -4.437000
v -3.012500 0.350000 -4.437000
v -3.013334 0.350000 -4.453440
v -3.132942 0.802493 -4.593963
v -3.093750 0.802493 -4.577729
v -3.315729 0.761357 -4.518250
v -3.060095 0.761357 -4.551905
v -3.034271 0.761357 -4.518250
v -3.331963 0.720222 -4.479058
v -3.034271 0.720222 -4.518250
v -3.018037 0.720222 -4.479058
v -3.331963 0.679086 -4.479058
v -3.034271 0.679086 -4.518250
v -3.018037 0.679086 -4.479058
v -3.331963 0.637950 -4.479058
v -3.034271 0.637950 -4.518250
v -3.018037 0.637950 -4.479058
v -3.331963 0.596814 -4.479058
v -3.034271 0.596814 -4.518250
v -3.018037 0.596814 -4.479058
v -3.331963 0.555679 -4.479058
v -3.034271 0.555679 -4.518250
v -3.018037 0.555679 -4.479058
v -3.331963 0.514543 -4.479058
v -3.034271 0.514543 -4.518250
v -3.018037 0.514543 -4.479058
v -3.331963 0.473407 -4.479058
v -3.034271 0.473407 -4.518250
v -3.018037 0.473407 -4.479058
v -3.331963 0.432271 -4.479058
v -3.034271 0.432271 -4.518250
v -3.018037 0.432271 -4.479058
v -3.331963 0.391136 -4.479058
v -3.060095 0.391136 -4.551905
v -3.015826 0.350000 -4.469711
v -3.175000 0.802493 -4.599500
v -3.093750 0.761357 -4.577729
v -3.060095 0.720222 -4.551905
v -3.060095 0.679086 -4.551905
v -3.060095 0.637950 -4.551905
v -3.060095 0.596814 -4.551905
v -3.060095 0.555679 -4.551905
v -3.060095 0.514543 -4.551905
v -3.060095 0.473407 -4.551905
v -3.060095 0.432271 -4.551905
v -3.093750 0.391136 -4.577729
v -3.217058 0.802493 -4.593963
v -3.132942 0.761357 -4.593963
v -3.093750 0.720222 -4.577729
v -3.093750 0.679086 -4.577729
v -3.093750 0.637950 -4.577729
v -3.093750 0.596814 -4.577729
v -3.093750 0.555679 -4.577729
v -3.093750 0.514543 -4.577729
v -3.093750 0.473407 -4.577729
v -3.093750 0.432271 -4.577729
v -3.132942 0.391136 -4.593963
v -3.019952 0.350000 -4.485647
v -3.256250 0.802493 -4.577729
v -3.175000 0.761357 -4.599500
v -3.132942 0.720222 -4.593963
v -3.132942 0.679086 -4.593963
v -3.132942 0.637950 -4.593963
v -3.132942 0.596814 -4.593963
v -3.132942 0.555679 -4.593963
v -3.132942 0.514543 -4.593963
v -3.132942 0.473407 -4.593963
v -3.132942 0.432271 -4.593963
v -3.175000 0.391136 -4.599500
v -3.217058 0.761357 -4.593963
v -3.175000 0.720222 -4.599500
v -3.175000 0.679086 -4.599500
v -3.175000 0.637950 -4.599500
v -3.175000 0.596814 -4.599500
v -3.175000 0.555679 -4.599500
v -3.175000 0.514543 -4.599500
v -3.175000 0.473407 -4.599500
v -3.175000 0.432271 -4.599500
v -3.217058 0.391136 -4.593963
v -3.256250 0.761357 -4.577729
v -3.217058 0.720222 -4.593963
v -3.217058 0.679086 -4.593963
v -3.217058 0.637950 -4.593963
v -3.217058 0.596814 -4.593963
v -3.217058 0.555679 -4.593963
v -3.217058 0.514543 -4.593963
v -3.217058 0.473407 -4.593963
v -3.217058 0.432271 -4.593963
v -3.256250 0.391136 -4.577729
v -3.289905 0.761357 -4.551905
v -3.256250 0.720222 -4.577729
v -3.256250 0.679086 -4.577729
v -3.256250 0.637950 -4.577729
v -3.256250 0.596814 -4.577729
v -3.256250 0.555679 -4.577729
v -3.256250 0.514543 -4.577729
v -3.256250 0.473407 -4.577729
v -3.256250 0.432271 -4.577729
v -3.289905 0.391136 -4.551905
v -3.289905 0.720222 -4.551905
v -3.289905 0.679086 -4.551905
v -3.289905 0.637950 -4.551905
v -3.289905 0.596814 -4.551905
v -3.289905 0.555679 -4.551905
v -3.289905 0.514543 -4.551905
v -3.289905 0.473407 -4.551905
v -3.289905 0.432271 -4.551905
v -3.315729 0.391136 -4.518250
v -3.315729 0.720222 -4.518250
v -3.315729 0.679086 -4.518250
v -3.315729 0.637950 -4.518250
v -3.315729 0.596814 -4.518250
v -3.315729 0.555679 -4.518250
v -3.315729 0.514543 -4.518250
v -3.315729 0.473407 -4.518250
v -3.315729 0.432271 -4.518250
v -3.237186 0.781925 -4.587130
v -3.217058 0.781925 -4.593963
v -3.256250 0.781925 -4.577729
v -3.273924 0.781925 -4.565920
v -3.289905 0.781925 -4.551905
v -3.217058 0.740789 -4.593963
v -3.196211 0.740789 -4.598110
v -3.237186 0.740789 -4.587130
v -3.256250 0.740789 -4.577729
v -3.273924 0.740789 -4.565920
v -3.289905 0.740789 -4.551905
v -3.303920 0.740789 -4.535924
v -3.315729 0.740789 -4.518250
v -3.196211 0.699654 -4.598110
v -3.175000 0.699654 -4.599500
v -3.217058 0.699654 -4.593963
v -3.237186 0.699654 -4.587130
v -3.256250 0.699654 -4.577729
v -3.273924 0.699654 -4.565920
v -3.289905 0.699654 -4.551905
v -3.303920 0.699654 -4.535924
v -3.315729 0.699654 -4.518250
v -3.196211 0.658518 -4.598110
v -3.175000 0.658518 -4.599500
v -3.217058 0.658518 -4.593963
v -3.237186 0.658518 -4.587130
v -3.256250 0.658518 -4.577729
v -3.273924 0.658518 -4.565920
v -3.289905 0.658518 -4.551905
v -3.303920 0.658518 -4.535924
v -3.315729 0.658518 -4.518250
v -3.196211 0.617382 -4.598110
v -3.175000 0.617382 -4.599500
v -3.217058 0.617382 -4.593963
v -3.237186 0.617382 -4.587130
v -3.256250 0.617382 -4.577729
v -3.273924 0.617382 -4.565920
v -3.289905 0.617382 -4.551905
v -3.303920 0.617382 -4.535924
v -3.315729 0.617382 -4.518250
v -3.196211 0.576247 -4.598110
v -3.175000 0.576247 -4.599500
v -3.217058 0.576247 -4.593963
v -3.237186 0.576247 -4.587130
v -3.256250 0.576247 -4.577729
v -3.273924 0.576247 -4.565920
v -3.289905 0.576247 -4.551905
v -3.303920 0.576247 -4.535924
v -3.315729 0.576247 -4.518250
v -3.196211 0.535111 -4.598110
v -3.175000 0.535111 -4.599500
v -3.217058 0.535111 -4.593963
v -3.237186 0.535111 -4.587130
v -3.256250 0.535111 -4.577729
v -3.273924 0.535111 -4.565920
v -3.289905 0.535111 -4.551905
v -3.303920 0.535111 -4.535924
v -3.315729 0.535111 -4.518250
v -3.196211 0.493975 -4.598110
v -3.175000 0.493975 -4.599500
v -3.217058 0.493975 -4.593963
v -3.237186 0.493975 -4.587130
v -3.256250 0.493975 -4.577729
v -3.273924 0.493975 -4.565920
v -3.289905 0.493975 -4.551905
v -3.303920 0.493975 -4.535924
v -3.315729 0.493975 -4.518250
v -3.196211 0.452839 -4.598110
v -3.175000 0.452839 -4.599500
v -3.217058 0.452839 -4.593963
v -3.237186 0.452839 -4.587130
v -3.256250 0.452839 -4.577729
v -3.273924 0.452839 -4.565920
v -3.289905 0.452839 -4.551905
v -3.303920 0.452839 -4.535924
v -3.315729 0.452839 -4.518250
v -3.196211 0.411704 -4.598110
v -3.175000 0.411704 -4.599500
v -3.217058 0.411704 -4.593963
v -3.237186 0.411704 -4.587130
v -3.256250 0.411704 -4.577729
v -3.273924 0.411704 -4.565920
v -3.289905 0.411704 -4.551905
v -3.303920 0.411704 -4.535924
v -3.315729 0.411704 -4.518250
v -3.185628 0.792209 -4.599152
v -3.196211 0.792209 -4.598110
v -3.164372 0.792209 -4.599152
v -3.153789 0.792209 -4.598110
v -3.282144 0.771641 -4.559174
v -3.273924 0.771641 -4.565920
v -3.289905 0.771641 -4.551905
v -3.132942 0.751073 -4.593963
v -3.143298 0.751073 -4.596378
v -3.112814 0.751073 -4.587130
v -3.103128 0.751073 -4.582742
v -3.289905 0.730506 -4.551905
v -3.282144 0.730506 -4.559174
v -3.297174 0.730506 -4.544144
v -3.303920 0.730506 -4.535924
v -3.310114 0.730506 -4.527280
v -3.315729 0.730506 -4.518250
v -3.103128 0.709938 -4.582742
v -3.112814 0.709938 -4.587130
v -3.084720 0.709938 -4.572114
v -3.076076 0.709938 -4.565920
v -3.282144 0.689370 -4.559174
v -3.273924 0.689370 -4.565920
v -3.289905 0.689370 -4.551905
v -3.297174 0.689370 -4.544144
v -3.303920 0.689370 -4.535924
v -3.310114 0.689370 -4.527280
v -3.315729 0.689370 -4.518250
v -3.103128 0.668802 -4.582742
v -3.112814 0.668802 -4.587130
v -3.084720 0.668802 -4.572114
v -3.076076 0.668802 -4.565920
v -3.282144 0.648234 -4.559174
v -3.273924 0.648234 -4.565920
v -3.289905 0.648234 -4.551905
v -3.297174 0.648234 -4.544144
v -3.303920 0.648234 -4.535924
v -3.310114 0.648234 -4.527280
v -3.315729 0.648234 -4.518250
v -3.103128 0.627666 -4.582742
v -3.112814 0.627666 -4.587130
v -3.084720 0.627666 -4.572114
v -3.076076 0.627666 -4.565920
v -3.282144 0.607098 -4.559174
v -3.273924 0.607098 -4.565920
v -3.289905 0.607098 -4.551905
v -3.297174 0.607098 -4.544144
v -3.303920 0.607098 -4.535924
v -3.310114 0.607098 -4.527280
v -3.315729 0.607098 -4.518250
v -3.103128 0.586530 -4.582742
v -3.112814 0.586530 -4.587130
v -3.084720 0.586530 -4.572114
v -3.076076 0.586530 -4.565920
v -3.282144 0.565963 -4.559174
v -3.273924 0.565963 -4.565920
v -3.289905 0.565963 -4.551905
v -3.297174 0.565963 -4.544144
v -3.303920 0.565963 -4.535924
v -3.310114 0.565963 -4.527280
v -3.315729 0.565963 -4.518250
v -3.103128 0.545395 -4.582742
v -3.112814 0.545395 -4.587130
v -3.084720 0.545395 -4.572114
v -3.076076 0.545395 -4.565920
v -3.282144 0.524827 -4.559174
v -3.273924 0.524827 -4.565920
v -3.289905 0.524827 -4.551905
v -3.297174 0.524827 -4.544144
v -3.303920 0.524827 -4.535924
v -3.310114 0.524827 -4.527280
v -3.315729 0.524827 -4.518250
v -3.103128 0.504259 -4.582742
v -3.112814 0.504259 -4.587130
v -3.084720 0.504259 -4.572114
v -3.076076 0.504259 -4.565920
v -3.282144 0.483691 -4.559174
v -3.273924 0.483691 -4.565920
v -3.289905 0.483691 -4.551905
v -3.297174 0.483691 -4.544144
v -3.303920 0.483691 -4.535924
v -3.310114 0.483691 -4.527280
v -3.315729 0.483691 -4.518250
v -3.103128 0.463123 -4.582742
v -3.112814 0.463123 -4.587130
v -3.084720 0.463123 -4.572114
v -3.076076 0.463123 -4.565920
v -3.282144 0.442555 -4.559174
v -3.273924 0.442555 -4.565920
v -3.289905 0.442555 -4.551905
v -3.297174 0.442555 -4.544144
v -3.303920 0.442555 -4.535924
v -3.310114 0.442555 -4.527280
v -3.315729 0.442555 -4.518250
v -3.103128 0.421988 -4.582742
v -3.112814 0.421988 -4.587130
v -3.084720 0.421988 -4.572114
v -3.076076 0.421988 -4.565920
v -3.282144 0.401420 -4.559174
v -3.273924 0.401420 -4.565920
v -3.289905 0.401420 -4.551905
v -3.297174 0.401420 -4.544144
v -3.303920 0.401420 -4.535924
v -3.310114 0.401420 -4.527280
v -3.315729 0.401420 -4.518250
v -3.217058 0.792209 -4.593963
v -3.227234 0.792209 -4.590876
v -3.164372 0.751073 -4.599152
v -3.175000 0.751073 -4.599500
v -3.132942 0.709938 -4.593963
v -3.143298 0.709938 -4.596378
v -3.132942 0.668802 -4.593963
v -3.143298 0.668802 -4.596378
v -3.132942 0.627666 -4.593963
v -3.143298 0.627666 -4.596378
v -3.132942 0.586530 -4.593963
v -3.143298 0.586530 -4.596378
v -3.132942 0.545395 -4.593963
v -3.143298 0.545395 -4.596378
v -3.132942 0.504259 -4.593963
v -3.143298 0.504259 -4.596378
v -3.132942 0.463123 -4.593963
v -3.143298 0.463123 -4.596378
v -3.132942 0.421988 -4.593963
v -3.143298 0.421988 -4.596378
v -3.256250 0.792209 -4.577729
v -3.196211 0.751073 -4.598110
v -3.206702 0.751073 -4.596378
v -3.164372 0.709938 -4.599152
v -3.175000 0.709938 -4.599500
v -3.164372 0.668802 -4.599152
v -3.175000 0.668802 -4.599500
v -3.164372 0.627666 -4.599152
v -3.175000 0.627666 -4.599500
v -3.164372 0.586530 -4.599152
v -3.175000 0.586530 -4.599500
v -3.164372 0.545395 -4.599152
v -3.175000 0.545395 -4.599500
v -3.164372 0.504259 -4.599152
v -3.175000 0.504259 -4.599500
v -3.164372 0.463123 -4.599152
v -3.175000 0.463123 -4.599500
v -3.164372 0.421988 -4.599152
v -3.175000 0.421988 -4.599500
v -3.227234 0.751073 -4.590876
v -3.237186 0.751073 -4.587130
v -3.196211 0.709938 -4.598110
v -3.206702 0.709938 -4.596378
v -3.196211 0.668802 -4.598110
v -3.206702 0.668802 -4.596378
v -3.196211 0.627666 -4.598110
v -3.206702 0.627666 -4.596378
v -3.196211 0.586530 -4.598110
v -3.206702 0.586530 -4.596378
v -3.196211 0.545395 -4.598110
v -3.206702 0.545395 -4.596378
v -3.196211 0.504259 -4.598110
v -3.206702 0.504259 -4.596378
v -3.196211 0.463123 -4.598110
v -3.206702 0.463123 -4.596378
v -3.196211 0.421988 -4.598110
v -3.206702 0.421988 -4.596378
v -3.256250 0.751073 -4.577729
v -3.265280 0.751073 -4.572114
v -3.227234 0.709938 -4.590876
v -3.237186 0.709938 -4.587130
v -3.227234 0.668802 -4.590876
v -3.237186 0.668802 -4.587130
v -3.227234 0.627666 -4.590876
v -3.237186 0.627666 -4.587130
v -3.227234 0.586530 -4.590876
v -3.237186 0.586530 -4.587130
v -3.227234 0.545395 -4.590876
v -3.237186 0.545395 -4.587130
v -3.227234 0.504259 -4.590876
v -3.237186 0.504259 -4.587130
v -3.227234 0.463123 -4.590876
v -3.237186 0.463123 -4.587130
v -3.227234 0.421988 -4.590876
v -3.237186 0.421988 -4.587130
v -3.289905 0.751073 -4.551905
v -3.256250 0.709938 -4.577729
v -3.265280 0.709938 -4.572114
v -3.256250 0.668802 -4.577729
v -3.265280 0.668802 -4.572114
v -3.256250 0.627666 -4.577729
v -3.265280 0.627666 -4.572114
v -3.256250 0.586530 -4.577729
v -3.265280 0.586530 -4.572114
v -3.256250 0.545395 -4.577729
v -3.265280 0.545395 -4.572114
v -3.256250 0.504259 -4.577729
v -3.265280 0.504259 -4.572114
v -3.256250 0.463123 -4.577729
v -3.265280 0.463123 -4.572114
v -3.256250 0.421988 -4.577729
v -3.265280 0.421988 -4.572114
v -3.289905 0.709938 -4.551905
v -3.289905 0.668802 -4.551905
v -3.289905 0.627666 -4.551905
v -3.289905 0.586530 -4.551905
v -3.289905 0.545395 -4.551905
v -3.289905 0.504259 -4.551905
v -3.289905 0.463123 -4.551905
v -3.289905 0.421988 -4.551905
f 1 2 3
f 1 3 4
f 1 4 5
f 1 5 6
f 1 6 7
f 1 7 8
f 1 8 9
f 1 9 10
f 1 10 11
f 1 11 12
f 1 12 13
f 1 13 14
f 1 14 15
f 1 15 16
f 1 16 17
f 1 17 18
f 1 18 19
f 1 19 20
f 1 20 21
f 1 21 22
f 1 22 23
f 1 23 24
f 1 24 25
f 1 25 26
f 1 26 27
f 1 27 28
f 1 28 29
f 1 29 30
f 1 30 2
f 31 32 2
f 2 33 34
f 34 35 36
f 36 37 38
f 38 39 40
f 40 41 42
f 42 43 44
f 44 45 46
f 46 47 48
f 48 49 50
f 50 51 52
f 52 53 54
f 54 55 56
f 56 57 58
f 58 59 60
f 60 61 62
f 62 63 64
f 64 65 66
f 66 67 68
f 68 69 70
f 70 71 72
f 72 73 74
f 74 75 76
f 76 77 78
f 78 79 80
f 80 81 82
f 82 83 84
f 84 85 86
f 86 87 88
f 88 89 90
f 92 292 205
f 204 291 292
f 292 92 291
f 205 294 293
f 294 93 293
f 205 293 204
f 92 291 289
f 291 204 289
f 92 289 91
f 95 299 210
f 209 298 299
f 299 95 298
f 210 301 300
f 301 96 300
f 210 300 209
f 95 298 296
f 298 209 296
f 95 296 94
f 98 309 218
f 217 308 309
f 309 98 308
f 218 311 310
f 311 99 310
f 218 310 217
f 98 308 306
f 308 217 306
f 98 306 97
f 101 320 227
f 226 319 320
f 320 101 319
f 227 322 321
f 322 102 321
f 227 321 226
f 101 319 317
f 319 226 317
f 101 317 100
f 104 331 236
f 235 330 331
f 331 104 330
f 236 333 332
f 333 105 332
f 236 332 235
f 104 330 328
f 330 235 328
f 104 328 103
f 107 342 245
f 244 341 342
f 342 107 341
f 245 344 343
f 344 108 343
f 245 343 244
f 107 341 339
f 341 244 339
f 107 339 106
f 110 353 254
f 253 352 353
f 353 110 352
f 254 355 354
f 355 111 354
f 254 354 253
f 110 352 350
f 352 253 350
f 110 350 109
f 113 364 263
f 262 363 364
f 364 113 363
f 263 366 365
f 366 114 365
f 263 365 262
f 113 363 361
f 363 262 361
f 113 361 112
f 116 375 272
f 271 374 375
f 375 116 374
f 272 377 376
f 377 117 376
f 272 376 271
f 116 374 372
f 374 271 372
f 116 372 115
f 119 386 281
f 280 385 386
f 386 119 385
f 281 388 387
f 388 120 387
f 281 387 280
f 119 385 383
f 385 280 383
f 119 383 118
f 121 31 2
f 2 34 36
f 36 38 40
f 40 42 44
f 44 46 48
f 48 50 52
f 52 54 56
f 56 58 60
f 60 62 64
f 64 66 68
f 68 70 72
f 72 74 76
f 76 78 80
f 80 82 84
f 84 86 88
f 88 90 122
f 91 289 204
f 206 290 289
f 289 91 290
f 204 293 295
f 293 93 295
f 204 295 206
f 91 290 394
f 290 206 394
f 91 394 123
f 94 296 209
f 211 297 296
f 296 94 297
f 209 300 302
f 300 96 302
f 209 302 211
f 94 297 396
f 297 211 396
f 94 396 124
f 97 306 217
f 219 307 306
f 306 97 307
f 217 310 312
f 310 99 312
f 217 312 219
f 97 307 398
f 307 219 398
f 97 398 125
f 100 317 226
f 228 318 317
f 317 100 318
f 226 321 323
f 321 102 323
f 226 323 228
f 100 318 400
f 318 228 400
f 100 400 126
f 103 328 235
f 237 329 328
f 328 103 329
f 235 332 334
f 332 105 334
f 235 334 237
f 103 329 402
f 329 237 402
f 103 402 127
f 106 339 244
f 246 340 339
f 339 106 340
f 244 343 345
f 343 108 345
f 244 345 246
f 106 340 404
f 340 246 404
f 106 404 128
f 109 350 253
f 255 351 350
f 350 109 351
f 253 354 356
f 354 111 356
f 253 356 255
f 109 351 406
f 351 255 406
f 109 406 129
f 112 361 262
f 264 362 361
f 361 112 362
f 262 365 367
f 365 114 367
f 262 367 264
f 112 362 408
f 362 264 408
f 112 408 130
f 115 372 271
f 273 373 372
f 372 115 373
f 271 376 378
f 376 117 378
f 271 378 273
f 115 373 410
f 373 273 410
f 115 410 131
f 118 383 280
f 282 384 383
f 383 118 384
f 280 387 389
f 387 120 389
f 280 389 282
f 118 384 412
f 384 282 412
f 118 412 132
f 133 121 2
f 36 40 44
f 44 48 52
f 52 56 60
f 60 64 68
f 68 72 76
f 76 80 84
f 84 88 122
f 123 394 206
f 207 395 394
f 394 123 395
f 206 295 207
f 295 93 207
f 123 395 134
f 395 207 134
f 124 396 211
f 212 397 396
f 396 124 397
f 211 302 303
f 302 96 303
f 211 303 212
f 124 397 415
f 397 212 415
f 124 415 135
f 125 398 219
f 220 399 398
f 398 125 399
f 219 312 313
f 312 99 313
f 219 313 220
f 125 399 417
f 399 220 417
f 125 417 136
f 126 400 228
f 229 401 400
f 400 126 401
f 228 323 324
f 323 102 324
f 228 324 229
f 126 401 419
f 401 229 419
f 126 419 137
f 127 402 237
f 238 403 402
f 402 127 403
f 237 334 335
f 334 105 335
f 237 335 238
f 127 403 421
f 403 238 421
f 127 421 138
f 128 404 246
f 247 405 404
f 404 128 405
f 246 345 346
f 345 108 346
f 246 346 247
f 128 405 423
f 405 247 423
f 128 423 139
f 129 406 255
f 256 407 406
f 406 129 407
f 255 356 357
f 356 111 357
f 255 357 256
f 129 407 425
f 407 256 425
f 129 425 140
f 130 408 264
f 265 409 408
f 408 130 409
f 264 367 368
f 367 114 368
f 264 368 265
f 130 409 427
f 409 265 427
f 130 427 141
f 131 410 273
f 274 411 410
f 410 131 411
f 273 378 379
f 378 117 379
f 273 379 274
f 131 411 429
f 411 274 429
f 131 429 142
f 132 412 282
f 283 413 412
f 412 132 413
f 282 389 390
f 389 120 390
f 282 390 283
f 132 413 431
f 413 283 431
f 132 431 143
f 144 133 2
f 36 44 52
f 52 60 68
f 68 76 84
f 84 122 145
f 208 414 207
f 414 134 207
f 207 93 208
f 134 414 146
f 414 208 146
f 135 415 212
f 213 416 415
f 415 135 416
f 212 303 304
f 303 96 304
f 212 304 213
f 135 416 433
f 416 213 433
f 135 433 147
f 136 417 220
f 221 418 417
f 417 136 418
f 220 313 314
f 313 99 314
f 220 314 221
f 136 418 435
f 418 221 435
f 136 435 148
f 137 419 229
f 230 420 419
f 419 137 420
f 229 324 325
f 324 102 325
f 229 325 230
f 137 420 437
f 420 230 437
f 137 437 149
f 138 421 238
f 239 422 421
f 421 138 422
f 238 335 336
f 335 105 336
f 238 336 239
f 138 422 439
f 422 239 439
f 138 439 150
f 139 423 247
f 248 424 423
f 423 139 424
f 247 346 347
f 346 108 347
f 247 347 248
f 139 424 441
f 424 248 441
f 139 441 151
f 140 425 256
f 257 426 425
f 425 140 426
f 256 357 358
f 357 111 358
f 256 358 257
f 140 426 443
f 426 257 443
f 140 443 152
f 141 427 265
f 266 428 427
f 427 141 428
f 265 368 369
f 368 114 369
f 265 369 266
f 141 428 445
f 428 266 445
f 141 445 153
f 142 429 274
f 275 430 429
f 429 142 430
f 274 379 380
f 379 117 380
f 274 380 275
f 142 430 447
f 430 275 447
f 142 447 154
f 143 431 283
f 284 432 431
f 431 143 432
f 283 390 391
f 390 120 391
f 283 391 284
f 143 432 449
f 432 284 449
f 143 449 155
f 156 144 2
f 52 68 84
f 147 433 213
f 214 434 433
f 433 147 434
f 213 304 305
f 304 96 305
f 213 305 214
f 147 434 451
f 434 214 451
f 147 451 157
f 148 435 221
f 222 436 435
f 435 148 436
f 221 314 315
f 314 99 315
f 221 315 222
f 148 436 453
f 436 222 453
f 148 453 158
f 149 437 230
f 231 438 437
f 437 149 438
f 230 325 326
f 325 102 326
f 230 326 231
f 149 438 455
f 438 231 455
f 149 455 159
f 150 439 239
f 240 440 439
f 439 150 440
f 239 336 337
f 336 105 337
f 239 337 240
f 150 440 457
f 440 240 457
f 150 457 160
f 151 441 248
f 249 442 441
f 441 151 442
f 248 347 348
f 347 108 348
f 248 348 249
f 151 442 459
f 442 249 459
f 151 459 161
f 152 443 257
f 258 444 443
f 443 152 444
f 257 358 359
f 358 111 359
f 257 359 258
f 152 444 461
f 444 258 461
f 152 461 162
f 153 445 266
f 267 446 445
f 445 153 446
f 266 369 370
f 369 114 370
f 266 370 267
f 153 446 463
f 446 267 463
f 153 463 163
f 154 447 275
f 276 448 447
f 447 154 448
f 275 380 381
f 380 117 381
f 275 381 276
f 154 448 465
f 448 276 465
f 154 465 164
f 155 449 284
f 285 450 449
f 449 155 450
f 284 391 392
f 391 120 392
f 284 392 285
f 155 450 467
f 450 285 467
f 155 467 165
f 166 156 2
f 52 84 145
f 157 451 214
f 215 452 451
f 451 157 452
f 214 305 215
f 305 96 215
f 157 452 167
f 452 215 167
f 158 453 222
f 223 454 453
f 453 158 454
f 222 315 316
f 315 99 316
f 222 316 223
f 158 454 470
f 454 223 470
f 158 470 168
f 159 455 231
f 232 456 455
f 455 159 456
f 231 326 327
f 326 102 327
f 231 327 232
f 159 456 472
f 456 232 472
f 159 472 169
f 160 457 240
f 241 458 457
f 457 160 458
f 240 337 338
f 337 105 338
f 240 338 241
f 160 458 474
f 458 241 474
f 160 474 170
f 161 459 249
f 250 460 459
f 459 161 460
f 249 348 349
f 348 108 349
f 249 349 250
f 161 460 476
f 460 250 476
f 161 476 171
f 162 461 258
f 259 462 461
f 461 162 462
f 258 359 360
f 359 111 360
f 258 360 259
f 162 462 478
f 462 259 478
f 162 478 172
f 163 463 267
f 268 464 463
f 463 163 464
f 267 370 371
f 370 114 371
f 267 371 268
f 163 464 480
f 464 268 480
f 163 480 173
f 164 465 276
f 277 466 465
f 465 164 466
f 276 381 382
f 381 117 382
f 276 382 277
f 164 466 482
f 466 277 482
f 164 482 174
f 165 467 285
f 286 468 467
f 467 165 468
f 285 392 393
f 392 120 393
f 285 393 286
f 165 468 484
f 468 286 484
f 165 484 175
f 176 166 2
f 216 469 215
f 469 167 215
f 215 96 216
f 167 469 177
f 469 216 177
f 168 470 223
f 224 471 470
f 470 168 471
f 223 316 224
f 316 99 224
f 168 471 178
f 471 224 178
f 169 472 232
f 233 473 472
f 472 169 473
f 232 327 233
f 327 102 233
f 169 473 179
f 473 233 179
f 170 474 241
f 242 475 474
f 474 170 475
f 241 338 242
f 338 105 242
f 170 475 180
f 475 242 180
f 171 476 250
f 251 477 476
f 476 171 477
f 250 349 251
f 349 108 251
f 171 477 181
f 477 251 181
f 172 478 259
f 260 479 478
f 478 172 479
f 259 360 260
f 360 111 260
f 172 479 182
f 479 260 182
f 173 480 268
f 269 481 480
f 480 173 481
f 268 371 269
f 371 114 269
f 173 481 183
f 481 269 183
f 174 482 277
f 278 483 482
f 482 174 483
f 277 382 278
f 382 117 278
f 174 483 184
f 483 278 184
f 175 484 286
f 287 485 484
f 484 175 485
f 286 393 287
f 393 120 287
f 175 485 185
f 485 287 185
f 186 176 2
f 177 216 93
f 216 96 93
f 225 486 224
f 486 178 224
f 224 99 225
f 178 486 187
f 486 225 187
f 234 487 233
f 487 179 233
f 233 102 234
f 179 487 188
f 487 234 188
f 243 488 242
f 488 180 242
f 242 105 243
f 180 488 189
f 488 243 189
f 252 489 251
f 489 181 251
f 251 108 252
f 181 489 190
f 489 252 190
f 261 490 260
f 490 182 260
f 260 111 261
f 182 490 191
f 490 261 191
f 270 491 269
f 491 183 269
f 269 114 270
f 183 491 192
f 491 270 192
f 279 492 278
f 492 184 278
f 278 117 279
f 184 492 193
f 492 279 193
f 288 493 287
f 493 185 287
f 287 120 288
f 185 493 194
f 493 288 194
f 195 186 2
f 187 225 196
f 225 99 196
f 188 234 197
f 234 102 197
f 189 243 198
f 243 105 198
f 190 252 199
f 252 108 199
f 191 261 200
f 261 111 200
f 192 270 201
f 270 114 201
f 193 279 202
f 279 117 202
f 194 288 203
f 288 120 203
f 120 195 2
f 96 196 99
f 99 197 102
f 102 198 105
f 105 199 108
f 108 200 111
f 111 201 114
f 114 202 117
f 117 203 120
f 120 2 36
f 117 120 36
f 145 30 146
f 114 117 36
f 52 145 146
f 111 114 36
f 36 52 146
f 108 111 36
f 105 108 36
f 102 105 36
f 99 102 36
f 96 99 36
