v -0.567185 0.016611 -0.368922
v -0.565563 0.015112 -0.368667
v -0.563725 0.013592 -0.368702
v -0.561944 0.012302 -0.369065
v -0.560069 0.011167 -0.369847
v -0.558407 0.010403 -0.370975
v -0.556899 0.010021 -0.372548
v -0.567185 0.115000 -0.368922
v -0.565563 0.115000 -0.368668
v -0.563725 0.115000 -0.368702
v -0.561944 0.115000 -0.369066
v -0.560069 0.115000 -0.369846
v -0.558407 0.115000 -0.370975
v -0.556899 0.115000 -0.372548
v -0.567185 0.220000 -0.368922
v -0.565563 0.220000 -0.368668
v -0.563725 0.220000 -0.368702
v -0.561944 0.220000 -0.369066
v -0.560069 0.220000 -0.369846
v -0.558407 0.220000 -0.370975
v -0.556899 0.220000 -0.372548
f 1 9 2
f 1 8 9
f 2 10 3
f 2 9 10
f 3 11 4
f 3 10 11
f 4 12 5
f 4 11 12
f 5 13 6
f 5 12 13
f 6 14 7
f 6 13 14
f 8 16 9
f 8 15 16
f 9 17 10
f 9 16 17
f 10 18 11
f 10 17 18
f 11 19 12
f 11 18 19
f 12 20 13
f 12 19 20
f 13 21 14
f 13 20 21
