v -2.587500 0.512470 -6.388000
v -2.587789 0.533284 -6.376923
v -2.587500 0.300000 -6.388000
v -2.588590 0.300000 -6.366502
v -2.588669 0.553272 -6.365745
v -2.590157 0.572454 -6.354499
v -2.591850 0.300000 -6.345224
v -2.592272 0.590851 -6.343220
v -2.595028 0.608476 -6.331945
v -2.597245 0.300000 -6.324385
v -2.598431 0.625325 -6.320725
v -2.602487 0.641389 -6.309608
v -2.604721 0.300000 -6.304199
v -2.607199 0.656658 -6.298648
v -2.612564 0.671125 -6.287896
v -2.614201 0.300000 -6.284873
v -2.618560 0.684780 -6.277407
v -2.625159 0.697616 -6.267236
v -2.625588 0.300000 -6.266606
v -2.632337 0.709626 -6.257439
v -2.638764 0.300000 -6.249583
v -2.640070 0.720809 -6.248062
v -2.648341 0.731183 -6.239134
v -2.653595 0.300000 -6.233982
v -2.657135 0.740771 -6.230681
v -2.666435 0.749591 -6.222728
v -2.669927 0.300000 -6.219960
v -2.676211 0.757659 -6.215305
v -2.686408 0.764979 -6.208441
v -2.687595 0.300000 -6.207663
v -2.696966 0.771554 -6.202168
v -2.706416 0.300000 -6.197217
v -2.707829 0.777386 -6.196518
v -2.718981 0.782485 -6.191511
v -2.726198 0.300000 -6.188728
v -2.730468 0.786868 -6.187154
v -2.742341 0.790553 -6.183452
v -2.746736 0.300000 -6.182284
v -2.754649 0.793555 -6.180410
v -2.767364 0.795866 -6.178054
v -2.767822 0.300000 -6.177950
v -2.780368 0.797447 -6.176435
v -2.789237 0.300000 -6.175773
v -2.793539 0.798254 -6.175604
v -2.806752 0.798247 -6.175611
v -2.810763 0.300000 -6.175773
v -2.819890 0.797427 -6.176454
v -2.832178 0.300000 -6.177950
v -2.832842 0.795839 -6.178082
v -2.845493 0.793525 -6.180440
v -2.853264 0.300000 -6.182284
v -2.857738 0.790530 -6.183475
v -2.869555 0.786861 -6.187162
v -2.873802 0.300000 -6.188728
v -2.880998 0.782496 -6.191501
v -2.892119 0.777413 -6.196492
v -2.893584 0.300000 -6.197217
v -2.902968 0.771590 -6.202133
v -2.912405 0.300000 -6.207663
v -2.913526 0.765018 -6.208403
v -2.923730 0.757699 -6.215266
v -2.930073 0.300000 -6.219960
v -2.933515 0.749634 -6.222689
v -2.942819 0.740821 -6.230636
v -2.946405 0.300000 -6.233982
v -2.951612 0.731245 -6.239081
v -2.959882 0.720879 -6.248003
v -2.961236 0.300000 -6.249583
v -2.967616 0.709700 -6.257378
v -2.974412 0.300000 -6.266606
v -2.974801 0.697683 -6.267181
v -2.981412 0.684832 -6.277365
v -2.985799 0.300000 -6.284873
v -2.987420 0.671158 -6.287870
v -2.992795 0.656674 -6.298637
v -2.995279 0.300000 -6.304199
v -2.997514 0.641392 -6.309607
v -3.001572 0.625320 -6.320729
v -3.002755 0.300000 -6.324385
v -3.004975 0.608467 -6.331952
v -3.007730 0.590841 -6.343226
v -3.008150 0.300000 -6.345224
v -3.009843 0.572444 -6.354505
v -3.011331 0.553263 -6.365750
v -3.011410 0.300000 -6.366502
v -3.012211 0.533278 -6.376927
v -3.012500 0.512470 -6.388000
v -3.012500 0.300000 -6.388000
f 1 3 2
f 2 3 4
f 2 4 5
f 5 4 6
f 6 4 7
f 6 7 8
f 8 7 9
f 9 7 10
f 9 10 11
f 11 10 12
f 12 10 13
f 12 13 14
f 14 13 15
f 15 13 16
f 15 16 17
f 17 16 18
f 18 16 19
f 18 19 20
f 20 19 21
f 20 21 22
f 22 21 23
f 23 21 24
f 23 24 25
f 25 24 26
f 26 24 27
f 26 27 28
f 28 27 29
f 29 27 30
f 29 30 31
f 31 30 32
f 31 32 33
f 33 32 34
f 34 32 35
f 34 35 36
f 36 35 37
f 37 35 38
f 37 38 39
f 39 38 40
f 40 38 41
f 40 41 42
f 42 41 43
f 42 43 44
f 44 43 45
f 45 43 46
f 45 46 47
f 47 46 48
f 47 48 49
f 49 48 50
f 50 48 51
f 50 51 52
f 52 51 53
f 53 51 54
f 53 54 55
f 55 54 56
f 56 54 57
f 56 57 58
f 58 57 59
f 58 59 60
f 60 59 61
f 61 59 62
f 61 62 63
f 63 62 64
f 64 62 65
f 64 65 66
f 66 65 67
f 67 65 68
f 67 68 69
f 69 68 70
f 69 70 71
f 71 70 72
f 72 70 73
f 72 73 74
f 74 73 75
f 75 73 76
f 75 76 77
f 77 76 78
f 78 76 79
f 78 79 80
f 80 79 81
f 81 79 82
f 81 82 83
f 83 82 84
f 84 82 85
f 84 85 86
f 86 85 87
f 87 85 88
