v -0.440101 0.436159 -1.097769
v -0.442058 0.434175 -1.097769
v -0.449404 0.441516 -1.095000
v -0.441516 0.449404 -1.095000
v -0.441241 0.449673 -1.095000
v -0.439339 0.447968 -1.095680
v -0.342207 0.360915 -1.130371
v -0.340445 0.359336 -1.131000
v -0.341070 0.358743 -1.131000
v -0.358743 0.341070 -1.131000
v -0.359336 0.340445 -1.131000
v -0.360913 0.342204 -1.130372
v -0.363733 0.350873 -1.128231
v -0.365307 0.349234 -1.128231
v -0.356410 0.372814 -1.125462
v -0.371207 0.358083 -1.125462
v -0.372814 0.356410 -1.125462
v -0.365293 0.378681 -1.122692
v -0.377034 0.366993 -1.122692
v -0.378681 0.365293 -1.122692
v -0.372503 0.386155 -1.119923
v -0.384475 0.374236 -1.119923
v -0.386155 0.372503 -1.119923
v -0.379712 0.393628 -1.117154
v -0.391916 0.381479 -1.117154
v -0.393628 0.379712 -1.117154
v -0.386922 0.401102 -1.114385
v -0.399358 0.388722 -1.114385
v -0.401102 0.386922 -1.114385
v -0.395966 0.406799 -1.111615
v -0.405014 0.397792 -1.111615
v -0.406799 0.395966 -1.111615
v -0.403209 0.414241 -1.108846
v -0.412423 0.405068 -1.108846
v -0.414241 0.403209 -1.108846
v -0.410452 0.421682 -1.106077
v -0.419832 0.412345 -1.106077
v -0.421682 0.410452 -1.106077
v -0.419622 0.427241 -1.103308
v -0.425349 0.421539 -1.103308
v -0.427241 0.419622 -1.103308
v -0.426898 0.434649 -1.100538
v -0.432725 0.428849 -1.100538
v -0.434649 0.426898 -1.100538
v -0.434175 0.442058 -1.097769
v -0.438134 0.438134 -1.097769
v -0.441790 0.449134 -1.095000
v -0.343972 0.362497 -1.129741
v -0.358148 0.341694 -1.131000
v -0.362151 0.352506 -1.128231
v -0.369592 0.359749 -1.125462
v -0.375379 0.368685 -1.122692
v -0.382788 0.375962 -1.119923
v -0.390197 0.383238 -1.117154
v -0.397605 0.390515 -1.114385
v -0.403221 0.399609 -1.111615
v -0.410597 0.406919 -1.108846
v -0.417973 0.414229 -1.106077
v -0.423448 0.423448 -1.103308
v -0.430791 0.430791 -1.100538
v -0.436159 0.440101 -1.097769
v -0.442064 0.448864 -1.095000
v -0.345740 0.364081 -1.129110
v -0.357553 0.342317 -1.131000
v -0.360561 0.354132 -1.128231
v -0.367970 0.361408 -1.125462
v -0.373717 0.370370 -1.122692
v -0.381093 0.377680 -1.119923
v -0.388469 0.384990 -1.117154
v -0.395845 0.392299 -1.114385
v -0.401419 0.401419 -1.111615
v -0.408762 0.408762 -1.108846
v -0.416105 0.416105 -1.106077
v -0.421539 0.425349 -1.103308
v -0.428849 0.432725 -1.100538
v -0.442338 0.448594 -1.095000
v -0.347510 0.365667 -1.128479
v -0.356956 0.342939 -1.131000
v -0.358965 0.355750 -1.128231
v -0.366341 0.363060 -1.125462
v -0.372047 0.372047 -1.122692
v -0.379390 0.379390 -1.119923
v -0.386733 0.386733 -1.117154
v -0.394076 0.394076 -1.114385
v -0.399609 0.403221 -1.111615
v -0.406919 0.410597 -1.108846
v -0.414229 0.417973 -1.106077
v -0.449134 0.441790 -1.095000
v -0.442612 0.448324 -1.095000
v -0.349283 0.367255 -1.127846
v -0.356358 0.343560 -1.131000
v -0.357361 0.357361 -1.128231
v -0.364704 0.364704 -1.125462
v -0.370370 0.373717 -1.122692
v -0.377680 0.381093 -1.119923
v -0.384990 0.388469 -1.117154
v -0.392299 0.395845 -1.114385
v -0.397792 0.405014 -1.111615
v -0.405068 0.412423 -1.108846
v -0.412345 0.419832 -1.106077
v -0.448864 0.442064 -1.095000
v -0.442886 0.448054 -1.095000
v -0.351058 0.368846 -1.127212
v -0.355760 0.344180 -1.131000
v -0.355750 0.358965 -1.128231
v -0.363060 0.366341 -1.125462
v -0.368685 0.375379 -1.122692
v -0.375962 0.382788 -1.119923
v -0.383238 0.390197 -1.117154
v -0.390515 0.397605 -1.114385
v -0.448594 0.442338 -1.095000
v -0.443159 0.447783 -1.095000
v -0.352836 0.370440 -1.126577
v -0.355160 0.344799 -1.131000
v -0.447966 0.439336 -1.095681
v -0.449673 0.441241 -1.095000
v -0.349234 0.365307 -1.128231
v -0.354132 0.360561 -1.128231
v -0.361408 0.367970 -1.125462
v -0.366993 0.377034 -1.122692
v -0.374236 0.384475 -1.119923
v -0.381479 0.391916 -1.117154
v -0.388722 0.399358 -1.114385
v -0.448324 0.442612 -1.095000
v -0.443433 0.447513 -1.095000
v -0.354617 0.372035 -1.125942
v -0.354559 0.345417 -1.131000
v -0.446261 0.437434 -1.096361
v -0.352506 0.362151 -1.128231
v -0.359749 0.369592 -1.125462
v -0.448054 0.442886 -1.095000
v -0.443706 0.447242 -1.095000
v -0.356400 0.373634 -1.125305
v -0.353957 0.346034 -1.131000
v -0.444558 0.435535 -1.097039
v -0.350873 0.363733 -1.128231
v -0.358083 0.371207 -1.125462
v -0.447783 0.443159 -1.095000
v -0.443979 0.446971 -1.095000
v -0.358186 0.375234 -1.124668
v -0.353354 0.346650 -1.131000
v -0.442858 0.433638 -1.097717
v -0.447513 0.443433 -1.095000
v -0.444252 0.446700 -1.095000
v -0.359974 0.376837 -1.124029
v -0.352750 0.347265 -1.131000
v -0.441160 0.431743 -1.098394
v -0.447242 0.443706 -1.095000
v -0.444524 0.446428 -1.095000
v -0.361766 0.378442 -1.123390
v -0.352144 0.347878 -1.131000
v -0.439464 0.429852 -1.099070
v -0.446971 0.443979 -1.095000
v -0.444797 0.446157 -1.095000
v -0.363559 0.380049 -1.122749
v -0.351538 0.348491 -1.131000
v -0.437771 0.427963 -1.099745
v -0.446700 0.444252 -1.095000
v -0.445069 0.445885 -1.095000
v -0.365356 0.381659 -1.122108
v -0.350931 0.349102 -1.131000
v -0.436081 0.426077 -1.100419
v -0.446428 0.444524 -1.095000
v -0.445341 0.445613 -1.095000
v -0.367155 0.383272 -1.121466
v -0.350322 0.349713 -1.131000
v -0.434392 0.424193 -1.101092
v -0.446157 0.444797 -1.095000
v -0.445613 0.445341 -1.095000
v -0.368956 0.384886 -1.120822
v -0.349713 0.350322 -1.131000
v -0.432706 0.422312 -1.101764
v -0.445885 0.445069 -1.095000
v -0.370761 0.386503 -1.120178
v -0.349102 0.350931 -1.131000
v -0.431023 0.420434 -1.102435
v -0.372568 0.388123 -1.119533
v -0.348491 0.351538 -1.131000
v -0.429342 0.418558 -1.103106
v -0.374377 0.389744 -1.118887
v -0.347878 0.352144 -1.131000
v -0.427663 0.416685 -1.103775
v -0.437440 0.446266 -1.096359
v -0.376190 0.391368 -1.118240
v -0.347265 0.352750 -1.131000
v -0.425987 0.414815 -1.104443
v -0.435543 0.444565 -1.097036
v -0.378004 0.392995 -1.117592
v -0.346650 0.353354 -1.131000
v -0.424313 0.412947 -1.105110
v -0.433648 0.442867 -1.097713
v -0.379822 0.394624 -1.116942
v -0.346034 0.353957 -1.131000
v -0.422641 0.411082 -1.105777
v -0.431757 0.441172 -1.098389
v -0.381642 0.396255 -1.116292
v -0.345417 0.354559 -1.131000
v -0.420972 0.409220 -1.106442
v -0.429867 0.439478 -1.099065
v -0.383465 0.397889 -1.115642
v -0.344799 0.355160 -1.131000
v -0.419305 0.407360 -1.107106
v -0.427981 0.437787 -1.099739
v -0.385290 0.399524 -1.114990
v -0.344180 0.355760 -1.131000
v -0.417640 0.405503 -1.107770
v -0.426096 0.436098 -1.100412
v -0.387118 0.401163 -1.114337
v -0.343560 0.356358 -1.131000
v -0.415978 0.403648 -1.108432
v -0.424215 0.434412 -1.101084
v -0.388948 0.402803 -1.113683
v -0.342939 0.356956 -1.131000
v -0.414319 0.401797 -1.109094
v -0.422336 0.432728 -1.101756
v -0.390781 0.404446 -1.113028
v -0.342317 0.357553 -1.131000
v -0.412661 0.399948 -1.109754
v -0.420459 0.431046 -1.102426
v -0.392617 0.406091 -1.112373
v -0.341694 0.358148 -1.131000
v -0.411006 0.398101 -1.110414
v -0.418585 0.429366 -1.103096
v -0.394455 0.407739 -1.111716
v -0.409354 0.396257 -1.111072
v -0.416714 0.427689 -1.103764
v -0.396296 0.409389 -1.111059
v -0.362492 0.343967 -1.129743
v -0.407704 0.394416 -1.111730
v -0.414845 0.426014 -1.104432
v -0.398140 0.411041 -1.110400
v -0.364073 0.345732 -1.129113
v -0.406056 0.392578 -1.112387
v -0.412979 0.424341 -1.105099
v -0.399986 0.412695 -1.109741
v -0.365657 0.347499 -1.128482
v -0.404411 0.390742 -1.113042
v -0.411115 0.422670 -1.105765
v -0.401834 0.414352 -1.109080
v -0.367244 0.349270 -1.127850
v -0.402768 0.388909 -1.113697
v -0.409254 0.421002 -1.106430
v -0.403685 0.416011 -1.108419
v -0.368833 0.351043 -1.127218
v -0.401127 0.387078 -1.114351
v -0.407395 0.419336 -1.107094
v -0.370424 0.352819 -1.126584
v -0.399489 0.385251 -1.115004
v -0.405539 0.417673 -1.107757
v -0.372018 0.354597 -1.125949
v -0.397854 0.383426 -1.115655
v -0.373614 0.356378 -1.125313
v -0.396221 0.381604 -1.116306
v -0.375213 0.358162 -1.124676
v -0.394590 0.379784 -1.116956
v -0.376814 0.359949 -1.124038
v -0.392962 0.377967 -1.117605
v -0.378418 0.361739 -1.123399
v -0.391336 0.376153 -1.118253
v -0.380024 0.363531 -1.122759
v -0.389712 0.374342 -1.118899
v -0.381633 0.365326 -1.122119
v -0.388091 0.372533 -1.119545
v -0.383244 0.367124 -1.121477
v -0.386473 0.370727 -1.120190
v -0.384857 0.368924 -1.120834
f 1 2 3
f 4 5 6
f 7 8 9
f 10 11 12
f 13 14 15
f 16 17 18
f 19 20 21
f 22 23 24
f 25 26 27
f 28 29 30
f 31 32 33
f 34 35 36
f 37 38 39
f 40 41 42
f 43 44 45
f 46 1 3
f 47 4 6
f 48 7 9
f 49 10 12
f 50 13 15
f 51 16 18
f 52 19 21
f 53 22 24
f 54 25 27
f 55 28 30
f 56 31 33
f 57 34 36
f 58 37 39
f 59 40 42
f 60 43 45
f 61 46 3
f 62 47 6
f 63 48 9
f 64 49 12
f 65 50 15
f 66 51 18
f 67 52 21
f 68 53 24
f 69 54 27
f 70 55 30
f 71 56 33
f 72 57 36
f 73 58 39
f 74 59 42
f 75 60 45
f 45 61 3
f 76 62 6
f 77 63 9
f 78 64 12
f 79 65 15
f 80 66 18
f 81 67 21
f 82 68 24
f 83 69 27
f 84 70 30
f 85 71 33
f 86 72 36
f 87 73 39
f 39 74 42
f 42 75 45
f 45 3 88
f 89 76 6
f 90 77 9
f 91 78 12
f 92 79 15
f 93 80 18
f 94 81 21
f 95 82 24
f 96 83 27
f 97 84 30
f 98 85 33
f 99 86 36
f 100 87 39
f 45 88 101
f 102 89 6
f 103 90 9
f 104 91 12
f 105 92 15
f 106 93 18
f 107 94 21
f 108 95 24
f 109 96 27
f 110 97 30
f 30 98 33
f 33 99 36
f 36 100 39
f 45 101 111
f 112 102 6
f 113 103 9
f 114 104 12
f 115 116 117
f 118 105 15
f 119 106 18
f 120 107 21
f 121 108 24
f 122 109 27
f 123 110 30
f 36 39 42
f 45 111 124
f 125 112 6
f 126 113 9
f 127 114 12
f 128 115 117
f 129 118 15
f 130 119 18
f 18 120 21
f 21 121 24
f 24 122 27
f 36 42 45
f 45 124 131
f 132 125 6
f 133 126 9
f 134 127 12
f 135 128 117
f 136 129 15
f 137 130 18
f 45 131 138
f 139 132 6
f 140 133 9
f 141 134 12
f 142 135 117
f 117 136 15
f 15 137 18
f 45 138 143
f 144 139 6
f 145 140 9
f 146 141 12
f 147 142 117
f 15 18 21
f 45 143 148
f 149 144 6
f 150 145 9
f 151 146 12
f 152 147 117
f 15 21 24
f 45 148 153
f 154 149 6
f 155 150 9
f 156 151 12
f 157 152 117
f 45 153 158
f 159 154 6
f 160 155 9
f 161 156 12
f 162 157 117
f 45 158 163
f 164 159 6
f 165 160 9
f 166 161 12
f 167 162 117
f 45 163 168
f 169 164 6
f 170 165 9
f 171 166 12
f 172 167 117
f 45 168 173
f 173 169 6
f 174 170 9
f 175 171 12
f 176 172 117
f 45 173 6
f 177 174 9
f 178 175 12
f 179 176 117
f 36 45 6
f 180 177 9
f 181 178 12
f 182 179 117
f 36 6 183
f 184 180 9
f 185 181 12
f 186 182 117
f 36 183 187
f 188 184 9
f 189 185 12
f 190 186 117
f 36 187 191
f 192 188 9
f 193 189 12
f 194 190 117
f 36 191 195
f 196 192 9
f 197 193 12
f 198 194 117
f 36 195 199
f 200 196 9
f 201 197 12
f 202 198 117
f 36 199 203
f 204 200 9
f 205 201 12
f 206 202 117
f 15 24 27
f 36 203 207
f 208 204 9
f 209 205 12
f 210 206 117
f 27 123 30
f 36 207 211
f 212 208 9
f 213 209 12
f 214 210 117
f 27 30 33
f 36 211 215
f 216 212 9
f 217 213 12
f 218 214 117
f 36 215 219
f 220 216 9
f 221 217 12
f 222 218 117
f 27 33 36
f 36 219 223
f 224 220 9
f 9 221 12
f 225 222 117
f 36 223 226
f 227 224 9
f 9 12 228
f 229 225 117
f 36 226 230
f 231 227 9
f 9 228 232
f 233 229 117
f 36 230 234
f 235 231 9
f 9 232 236
f 237 233 117
f 36 234 238
f 239 235 9
f 9 236 240
f 241 237 117
f 36 238 242
f 243 239 9
f 9 240 244
f 245 241 117
f 36 242 246
f 9 244 247
f 248 245 117
f 36 246 249
f 9 247 250
f 251 248 117
f 36 249 243
f 9 250 252
f 253 251 117
f 27 36 243
f 9 252 254
f 255 253 117
f 9 254 256
f 257 255 117
f 9 256 258
f 259 257 117
f 9 258 260
f 261 259 117
f 9 260 262
f 263 261 117
f 9 262 264
f 265 263 117
f 9 264 266
f 266 265 117
f 9 266 117
f 9 117 15
f 243 9 15
