v -0.666127 0.010000 0.071935
v -0.666127 0.220000 0.071935
v -0.671843 0.220000 0.082072
v -0.720352 0.220000 0.104692
v -0.720352 0.000000 0.104692
v -0.665322 0.000000 0.079032
v -0.665322 0.010000 0.079032
v -0.671843 0.016837 0.082072
v -0.671628 0.016611 0.081969
v -0.671416 0.016388 0.081861
v -0.671208 0.016168 0.081748
v -0.671004 0.015951 0.081631
v -0.670803 0.015737 0.081510
v -0.670605 0.015525 0.081384
v -0.670411 0.015317 0.081255
v -0.670221 0.015113 0.081121
v -0.670035 0.014911 0.080983
v -0.669852 0.014712 0.080842
v -0.669673 0.014517 0.080696
v -0.669498 0.014325 0.080547
v -0.669326 0.014137 0.080394
v -0.669159 0.013952 0.080237
v -0.668995 0.013770 0.080077
v -0.668835 0.013592 0.079913
v -0.668679 0.013418 0.079746
v -0.668528 0.013247 0.079576
v -0.668380 0.013080 0.079403
v -0.668237 0.012917 0.079226
v -0.668097 0.012757 0.079047
v -0.667962 0.012602 0.078864
v -0.667831 0.012450 0.078679
v -0.667705 0.012303 0.078491
v -0.667583 0.012159 0.078300
v -0.667465 0.012020 0.078106
v -0.667352 0.011885 0.077910
v -0.667244 0.011754 0.077711
v -0.667140 0.011628 0.077510
v -0.667041 0.011506 0.077307
v -0.666946 0.011388 0.077102
v -0.666856 0.011275 0.076895
v -0.666771 0.011167 0.076686
v -0.666691 0.011063 0.076476
v -0.666615 0.010964 0.076264
v -0.666544 0.010869 0.076051
v -0.666478 0.010779 0.075837
v -0.666417 0.010694 0.075621
v -0.666361 0.010614 0.075405
v -0.666310 0.010539 0.075189
v -0.666264 0.010469 0.074971
v -0.666223 0.010403 0.074754
v -0.666186 0.010343 0.074536
v -0.666155 0.010288 0.074318
v -0.666129 0.010237 0.074100
v -0.666107 0.010192 0.073882
v -0.666090 0.010151 0.073664
v -0.666079 0.010116 0.073446
v -0.666072 0.010085 0.073229
v -0.666069 0.010059 0.073012
v -0.666071 0.010038 0.072795
v -0.666078 0.010021 0.072579
v -0.666090 0.010009 0.072364
v -0.666106 0.010002 0.072149
f 62 1 2
f 62 2 3
f 62 3 4
f 5 6 7
f 5 7 8
f 4 5 8
f 62 4 8
f 62 8 9
f 62 9 10
f 62 10 11
f 62 11 12
f 62 12 13
f 62 13 14
f 62 14 15
f 62 15 16
f 62 16 17
f 62 17 18
f 62 18 19
f 62 19 20
f 62 20 21
f 62 21 22
f 62 22 23
f 62 23 24
f 62 24 25
f 62 25 26
f 62 26 27
f 62 27 28
f 62 28 29
f 62 29 30
f 62 30 31
f 62 31 32
f 62 32 33
f 62 33 34
f 62 34 35
f 62 35 36
f 62 36 37
f 62 37 38
f 62 38 39
f 62 39 40
f 62 40 41
f 62 41 42
f 62 42 43
f 62 43 44
f 62 44 45
f 62 45 46
f 62 46 47
f 62 47 48
f 62 48 49
f 62 49 50
f 62 50 51
f 62 51 52
f 62 52 53
f 62 53 54
f 62 54 55
f 62 55 56
f 62 56 57
f 62 57 58
f 62 58 59
f 62 59 60
f 60 61 62
