v -0.147721 0.612436 -1.061000
v -0.147721 0.612436 -1.084841
v -0.146952 0.610085 -1.085500
v -0.146183 0.607734 -1.086158
v -0.145414 0.605383 -1.086816
v -0.144646 0.603033 -1.087474
v -0.143877 0.600683 -1.088132
v -0.143108 0.598333 -1.088790
v -0.142340 0.595984 -1.089448
v -0.141571 0.593635 -1.090105
v -0.140803 0.591286 -1.090763
v -0.140035 0.588938 -1.091420
v -0.139267 0.586590 -1.092078
v -0.138499 0.584242 -1.092735
v -0.137731 0.581895 -1.093392
v -0.136964 0.579548 -1.094049
v -0.136196 0.577201 -1.094706
v -0.135428 0.574855 -1.095363
v -0.134661 0.572509 -1.096019
v -0.133894 0.570163 -1.096676
v -0.133127 0.567818 -1.097332
v -0.132359 0.565473 -1.097989
v -0.131593 0.563128 -1.098645
v -0.130826 0.560783 -1.099301
v -0.130059 0.558439 -1.099957
v -0.129292 0.556095 -1.100613
v -0.128526 0.553752 -1.101269
v -0.127759 0.551409 -1.101925
v -0.126993 0.549066 -1.102581
v -0.126227 0.546724 -1.103236
v -0.125461 0.544382 -1.103892
v -0.124695 0.542040 -1.104547
v -0.123929 0.539699 -1.105202
v -0.123163 0.537357 -1.105857
v -0.122397 0.535017 -1.106512
v -0.121632 0.532676 -1.107167
v -0.120866 0.530336 -1.107822
v -0.120101 0.527997 -1.108477
v -0.119336 0.525657 -1.109131
v -0.118571 0.523318 -1.109786
v -0.117806 0.520980 -1.110440
v -0.117041 0.518641 -1.111094
v -0.116276 0.516303 -1.111748
v -0.115512 0.513966 -1.112402
v -0.114747 0.511629 -1.113056
v -0.113983 0.509292 -1.113710
v -0.113218 0.506955 -1.114363
v -0.112454 0.504619 -1.115017
v -0.111690 0.502283 -1.115670
v -0.110926 0.499948 -1.116324
v -0.110162 0.497613 -1.116977
v -0.109399 0.495278 -1.117630
v -0.108635 0.492943 -1.118283
v -0.107872 0.490609 -1.118935
v -0.107108 0.488275 -1.119588
v -0.106345 0.485942 -1.120241
v -0.105582 0.483609 -1.120893
v -0.105582 0.483609 -1.061000
v -0.095730 0.485655 -1.051000
v -0.137944 0.614712 -1.051000
f 60 2 1
f 60 3 2
f 60 4 3
f 60 5 4
f 60 6 5
f 60 7 6
f 60 8 7
f 60 9 8
f 60 10 9
f 60 11 10
f 60 12 11
f 60 13 12
f 60 14 13
f 60 15 14
f 60 16 15
f 60 17 16
f 60 18 17
f 60 19 18
f 60 20 19
f 60 21 20
f 60 22 21
f 60 23 22
f 60 24 23
f 60 25 24
f 60 26 25
f 60 27 26
f 60 28 27
f 60 29 28
f 60 30 29
f 60 31 30
f 60 32 31
f 60 33 32
f 60 34 33
f 60 35 34
f 60 36 35
f 60 37 36
f 60 38 37
f 60 39 38
f 60 40 39
f 60 41 40
f 60 42 41
f 60 43 42
f 60 44 43
f 60 45 44
f 60 46 45
f 60 47 46
f 60 48 47
f 60 49 48
f 60 50 49
f 60 51 50
f 60 52 51
f 60 53 52
f 60 54 53
f 60 55 54
f 60 56 55
f 60 57 56
f 60 58 57
f 58 60 59
