v 0.382835 0.220000 0.619117
v 0.368981 0.220000 0.567417
v 0.373073 0.220000 0.556522
v 0.373073 0.010000 0.556522
v 0.368981 0.016837 0.567417
v 0.368948 0.016713 0.567290
v 0.368914 0.016588 0.567163
v 0.368880 0.016463 0.567036
v 0.368846 0.016338 0.566910
v 0.368812 0.016214 0.566783
v 0.368778 0.016089 0.566656
v 0.368744 0.015964 0.566529
v 0.368710 0.015839 0.566403
v 0.368676 0.015715 0.566276
v 0.368642 0.015590 0.566149
v 0.368608 0.015465 0.566023
v 0.368574 0.015341 0.565896
v 0.368540 0.015216 0.565769
v 0.368506 0.015092 0.565643
v 0.368472 0.014967 0.565516
v 0.368438 0.014842 0.565390
v 0.368404 0.014718 0.565263
v 0.368371 0.014593 0.565137
v 0.368337 0.014469 0.565010
v 0.368303 0.014344 0.564884
v 0.368269 0.014220 0.564757
v 0.368235 0.014096 0.564631
v 0.368201 0.013971 0.564504
v 0.368167 0.013847 0.564378
v 0.368133 0.013722 0.564251
v 0.368100 0.013598 0.564125
v 0.368066 0.013474 0.563999
v 0.368032 0.013349 0.563872
v 0.367998 0.013225 0.563746
v 0.367964 0.013101 0.563620
v 0.367930 0.012977 0.563493
v 0.367896 0.012852 0.563367
v 0.367863 0.012728 0.563241
v 0.367829 0.012604 0.563115
v 0.367795 0.012480 0.562988
v 0.367761 0.012356 0.562862
v 0.367727 0.012231 0.562736
v 0.367693 0.012107 0.562610
v 0.367660 0.011983 0.562484
v 0.367626 0.011859 0.562357
v 0.367592 0.011735 0.562231
v 0.367558 0.011611 0.562105
v 0.367524 0.011487 0.561979
v 0.367491 0.011363 0.561853
v 0.367457 0.011239 0.561727
v 0.367423 0.011115 0.561601
v 0.367389 0.010991 0.561475
v 0.367356 0.010867 0.561349
v 0.367322 0.010743 0.561223
v 0.367288 0.010619 0.561097
v 0.367254 0.010495 0.560971
v 0.367221 0.010371 0.560845
v 0.367187 0.010248 0.560719
v 0.367153 0.010124 0.560593
v 0.367119 0.010000 0.560467
v 0.367119 0.000000 0.560467
v 0.382835 0.000000 0.619117
v 0.378175 0.000000 0.630365
v 0.378175 0.220000 0.630365
f 2 3 4
f 1 2 4
f 64 1 4
f 64 4 5
f 59 60 61
f 58 59 61
f 57 58 61
f 56 57 61
f 55 56 61
f 54 55 61
f 53 54 61
f 52 53 61
f 51 52 61
f 50 51 61
f 49 50 61
f 48 49 61
f 47 48 61
f 46 47 61
f 45 46 61
f 44 45 61
f 43 44 61
f 42 43 61
f 41 42 61
f 40 41 61
f 39 40 61
f 38 39 61
f 37 38 61
f 36 37 61
f 35 36 61
f 34 35 61
f 33 34 61
f 32 33 61
f 31 32 61
f 30 31 61
f 29 30 61
f 28 29 61
f 27 28 61
f 26 27 61
f 25 26 61
f 24 25 61
f 23 24 61
f 22 23 61
f 21 22 61
f 20 21 61
f 19 20 61
f 18 19 61
f 17 18 61
f 16 17 61
f 15 16 61
f 14 15 61
f 13 14 61
f 12 13 61
f 11 12 61
f 10 11 61
f 9 10 61
f 8 9 61
f 7 8 61
f 6 7 61
f 5 6 61
f 5 61 62
f 64 5 62
f 62 63 64
