v 0.000000 0.636000 -0.750000
v -0.017866 0.635750 -0.750761
v -0.035758 0.634997 -0.751342
v -0.053665 0.633737 -0.751761
v -0.071575 0.631966 -0.752038
v -0.089477 0.629679 -0.752189
v -0.107360 0.626874 -0.752234
v -0.125211 0.623546 -0.752191
v -0.143004 0.619700 -0.752088
v -0.160711 0.615342 -0.751953
v -0.178304 0.610479 -0.751815
v -0.195754 0.605116 -0.751703
v -0.213031 0.599259 -0.751647
v -0.230110 0.592916 -0.751672
v -0.246976 0.586093 -0.751770
v -0.263619 0.578796 -0.751921
v -0.280031 0.571034 -0.752101
v -0.296204 0.562813 -0.752290
v -0.312129 0.554140 -0.752466
v -0.327797 0.545022 -0.752608
v -0.343201 0.535462 -0.752713
v -0.358336 0.525459 -0.752791
v -0.373194 0.515015 -0.752851
v -0.387771 0.504128 -0.752903
v -0.402060 0.492798 -0.752954
v -0.416054 0.481027 -0.753015
v -0.429738 0.468826 -0.753088
v -0.443088 0.456220 -0.753171
v -0.456081 0.443231 -0.753261
v -0.468692 0.429884 -0.753356
v -0.480900 0.416201 -0.753454
v -0.492679 0.402206 -0.753552
v -0.504017 0.387914 -0.753648
v -0.514913 0.373333 -0.753739
v -0.525367 0.358469 -0.753823
v -0.535379 0.343329 -0.753896
v -0.544948 0.327920 -0.753956
v -0.554073 0.312247 -0.754001
v -0.562753 0.296319 -0.754031
v -0.570980 0.280143 -0.754052
v -0.578747 0.263728 -0.754072
v -0.586048 0.247083 -0.754096
v -0.592876 0.230214 -0.754132
v -0.599224 0.213132 -0.754185
v -0.605084 0.195850 -0.754258
v -0.610451 0.178395 -0.754342
v -0.615319 0.160797 -0.754426
v -0.619681 0.143084 -0.754500
v -0.623531 0.125286 -0.754555
v -0.626862 0.107430 -0.754579
v -0.629671 0.089541 -0.754568
v -0.631960 0.071633 -0.754531
v -0.633733 0.053714 -0.754481
v -0.634995 0.035796 -0.754430
v -0.635749 0.017888 -0.754390
v -0.636000 0.000000 -0.754374
v 0.000000 0.636000 -0.627289
v -0.017866 0.635749 -0.627289
v -0.035758 0.634994 -0.627289
v -0.053664 0.633732 -0.627289
v -0.071574 0.631960 -0.627289
v -0.089477 0.629674 -0.627289
v -0.107360 0.626873 -0.627289
v -0.125212 0.623553 -0.627289
v -0.143007 0.619714 -0.627289
v -0.160716 0.615359 -0.627289
v -0.178308 0.610493 -0.627289
v -0.195756 0.605124 -0.627289
v -0.213032 0.599261 -0.627289
v -0.230109 0.592913 -0.627289
v -0.246974 0.586089 -0.627289
v -0.263617 0.578793 -0.627289
v -0.280031 0.571033 -0.627289
v -0.296204 0.562813 -0.627289
v -0.312129 0.554140 -0.627289
v -0.327795 0.545020 -0.627289
v -0.343197 0.535455 -0.627289
v -0.358328 0.525449 -0.627289
v -0.373186 0.515003 -0.627289
v -0.387764 0.504118 -0.627289
v -0.402057 0.492794 -0.627289
v -0.416058 0.481032 -0.627289
v -0.429750 0.468840 -0.627289
v -0.443105 0.456238 -0.627289
v -0.456099 0.443249 -0.627289
v -0.468706 0.429896 -0.627289
v -0.480905 0.416205 -0.627289
v -0.492675 0.402203 -0.627289
v -0.504008 0.387907 -0.627289
v -0.514902 0.373325 -0.627289
v -0.525358 0.358462 -0.627289
v -0.535373 0.343325 -0.627289
v -0.544945 0.327918 -0.627289
v -0.554074 0.312247 -0.627289
v -0.562753 0.296319 -0.627289
v -0.570978 0.280143 -0.627289
v -0.578744 0.263727 -0.627289
v -0.586044 0.247081 -0.627289
v -0.592873 0.230213 -0.627289
v -0.599225 0.213133 -0.627289
v -0.605093 0.195853 -0.627289
v -0.610467 0.178400 -0.627289
v -0.615336 0.160802 -0.627289
v -0.619695 0.143088 -0.627289
v -0.623538 0.125287 -0.627289
v -0.626861 0.107430 -0.627289
v -0.629665 0.089541 -0.627289
v -0.631953 0.071632 -0.627289
v -0.633728 0.053714 -0.627289
v -0.634992 0.035796 -0.627289
v -0.635748 0.017888 -0.627289
v -0.636000 0.000000 -0.627289
v 0.000000 0.636000 -0.500000
v -0.017866 0.635749 -0.500000
v -0.035758 0.634994 -0.500000
v -0.053664 0.633732 -0.500000
v -0.071574 0.631960 -0.500000
v -0.089477 0.629674 -0.500000
v -0.107360 0.626873 -0.500000
v -0.125212 0.623553 -0.500000
v -0.143007 0.619714 -0.500000
v -0.160716 0.615359 -0.500000
v -0.178308 0.610493 -0.500000
v -0.195756 0.605124 -0.500000
v -0.213032 0.599261 -0.500000
v -0.230109 0.592913 -0.500000
v -0.246974 0.586089 -0.500000
v -0.263617 0.578793 -0.500000
v -0.280031 0.571033 -0.500000
v -0.296204 0.562813 -0.500000
v -0.312129 0.554140 -0.500000
v -0.327795 0.545020 -0.500000
v -0.343197 0.535455 -0.500000
v -0.358328 0.525449 -0.500000
v -0.373186 0.515003 -0.500000
v -0.387764 0.504118 -0.500000
v -0.402057 0.492794 -0.500000
v -0.416058 0.481032 -0.500000
v -0.429750 0.468840 -0.500000
v -0.443105 0.456238 -0.500000
v -0.456099 0.443249 -0.500000
v -0.468706 0.429896 -0.500000
v -0.480905 0.416205 -0.500000
v -0.492675 0.402203 -0.500000
v -0.504008 0.387907 -0.500000
v -0.514902 0.373325 -0.500000
v -0.525358 0.358462 -0.500000
v -0.535373 0.343325 -0.500000
v -0.544945 0.327918 -0.500000
v -0.554074 0.312247 -0.500000
v -0.562753 0.296319 -0.500000
v -0.570978 0.280143 -0.500000
v -0.578744 0.263727 -0.500000
v -0.586044 0.247081 -0.500000
v -0.592873 0.230213 -0.500000
v -0.599225 0.213133 -0.500000
v -0.605093 0.195853 -0.500000
v -0.610467 0.178400 -0.500000
v -0.615336 0.160802 -0.500000
v -0.619695 0.143088 -0.500000
v -0.623538 0.125287 -0.500000
v -0.626861 0.107430 -0.500000
v -0.629665 0.089541 -0.500000
v -0.631953 0.071632 -0.500000
v -0.633728 0.053714 -0.500000
v -0.634992 0.035796 -0.500000
v -0.635748 0.017888 -0.500000
v -0.636000 0.000000 -0.500000
f 1 2 58
f 1 58 57
f 2 3 59
f 2 59 58
f 3 4 60
f 3 60 59
f 4 5 61
f 4 61 60
f 5 6 62
f 5 62 61
f 6 7 63
f 6 63 62
f 7 8 64
f 7 64 63
f 8 9 65
f 8 65 64
f 9 10 66
f 9 66 65
f 10 11 67
f 10 67 66
f 11 12 68
f 11 68 67
f 12 13 69
f 12 69 68
f 13 14 70
f 13 70 69
f 14 15 71
f 14 71 70
f 15 16 72
f 15 72 71
f 16 17 73
f 16 73 72
f 17 18 74
f 17 74 73
f 18 19 75
f 18 75 74
f 19 20 76
f 19 76 75
f 20 21 77
f 20 77 76
f 21 22 78
f 21 78 77
f 22 23 79
f 22 79 78
f 23 24 80
f 23 80 79
f 24 25 81
f 24 81 80
f 25 26 82
f 25 82 81
f 26 27 83
f 26 83 82
f 27 28 84
f 27 84 83
f 28 29 85
f 28 85 84
f 29 30 86
f 29 86 85
f 30 31 87
f 30 87 86
f 31 32 88
f 31 88 87
f 32 33 89
f 32 89 88
f 33 34 90
f 33 90 89
f 34 35 91
f 34 91 90
f 35 36 92
f 35 92 91
f 36 37 93
f 36 93 92
f 37 38 94
f 37 94 93
f 38 39 95
f 38 95 94
f 39 40 96
f 39 96 95
f 40 41 97
f 40 97 96
f 41 42 98
f 41 98 97
f 42 43 99
f 42 99 98
f 43 44 100
f 43 100 99
f 44 45 101
f 44 101 100
f 45 46 102
f 45 102 101
f 46 47 103
f 46 103 102
f 47 48 104
f 47 104 103
f 48 49 105
f 48 105 104
f 49 50 106
f 49 106 105
f 50 51 107
f 50 107 106
f 51 52 108
f 51 108 107
f 52 53 109
f 52 109 108
f 53 54 110
f 53 110 109
f 54 55 111
f 54 111 110
f 55 56 112
f 55 112 111
f 57 58 114
f 57 114 113
f 58 59 115
f 58 115 114
f 59 60 116
f 59 116 115
f 60 61 117
f 60 117 116
f 61 62 118
f 61 118 117
f 62 63 119
f 62 119 118
f 63 64 120
f 63 120 119
f 64 65 121
f 64 121 120
f 65 66 122
f 65 122 121
f 66 67 123
f 66 123 122
f 67 68 124
f 67 124 123
f 68 69 125
f 68 125 124
f 69 70 126
f 69 126 125
f 70 71 127
f 70 127 126
f 71 72 128
f 71 128 127
f 72 73 129
f 72 129 128
f 73 74 130
f 73 130 129
f 74 75 131
f 74 131 130
f 75 76 132
f 75 132 131
f 76 77 133
f 76 133 132
f 77 78 134
f 77 134 133
f 78 79 135
f 78 135 134
f 79 80 136
f 79 136 135
f 80 81 137
f 80 137 136
f 81 82 138
f 81 138 137
f 82 83 139
f 82 139 138
f 83 84 140
f 83 140 139
f 84 85 141
f 84 141 140
f 85 86 142
f 85 142 141
f 86 87 143
f 86 143 142
f 87 88 144
f 87 144 143
f 88 89 145
f 88 145 144
f 89 90 146
f 89 146 145
f 90 91 147
f 90 147 146
f 91 92 148
f 91 148 147
f 92 93 149
f 92 149 148
f 93 94 150
f 93 150 149
f 94 95 151
f 94 151 150
f 95 96 152
f 95 152 151
f 96 97 153
f 96 153 152
f 97 98 154
f 97 154 153
f 98 99 155
f 98 155 154
f 99 100 156
f 99 156 155
f 100 101 157
f 100 157 156
f 101 102 158
f 101 158 157
f 102 103 159
f 102 159 158
f 103 104 160
f 103 160 159
f 104 105 161
f 104 161 160
f 105 106 162
f 105 162 161
f 106 107 163
f 106 163 162
f 107 108 164
f 107 164 163
f 108 109 165
f 108 165 164
f 109 110 166
f 109 166 165
f 110 111 167
f 110 167 166
f 111 112 168
f 111 168 167
