v 0.000000 0.686000 -0.750000
v -0.629446 0.686000 -4.319765
v -0.624043 0.686000 -4.319692
v -0.618636 0.686000 -4.319606
v -0.613224 0.686000 -4.319506
v -0.607805 0.686000 -4.319393
v -0.602381 0.686000 -4.319266
v -0.596949 0.686000 -4.319126
v -0.591509 0.686000 -4.318971
v -0.586060 0.686000 -4.318803
v -0.580603 0.686000 -4.318620
v -0.575136 0.686000 -4.318424
v -0.569659 0.686000 -4.318214
v -0.564170 0.686000 -4.317989
v -0.558670 0.686000 -4.317750
v -0.553158 0.686000 -4.317496
v -0.547633 0.686000 -4.317229
v -0.542095 0.686000 -4.316946
v -0.536542 0.686000 -4.316649
v -0.530975 0.686000 -4.316337
v -0.525392 0.686000 -4.316011
v -0.519795 0.686000 -4.315670
v -0.514186 0.686000 -4.315318
v -0.508566 0.686000 -4.314955
v -0.502937 0.686000 -4.314584
v -0.497301 0.686000 -4.314205
v -0.491661 0.686000 -4.313820
v -0.486017 0.686000 -4.313432
v -0.480372 0.686000 -4.313041
v -0.474728 0.686000 -4.312650
v -0.469086 0.686000 -4.312260
v -0.463449 0.686000 -4.311872
v -0.457818 0.686000 -4.311488
v -0.452195 0.686000 -4.311111
v -0.446581 0.686000 -4.310741
v -0.440980 0.686000 -4.310379
v -0.435393 0.686000 -4.310029
v -0.429821 0.686000 -4.309691
v -0.424267 0.686000 -4.309367
v -0.418731 0.686000 -4.309059
v -0.413213 0.686000 -4.308765
v -0.407711 0.686000 -4.308486
v -0.402226 0.686000 -4.308221
v -0.396757 0.686000 -4.307972
v -0.391302 0.686000 -4.307737
v -0.385860 0.686000 -4.307516
v -0.380432 0.686000 -4.307310
v -0.375017 0.686000 -4.307118
v -0.369612 0.686000 -4.306940
v -0.364219 0.686000 -4.306777
v -0.358836 0.686000 -4.306627
v -0.353462 0.686000 -4.306491
v -0.348096 0.686000 -4.306369
v -0.342739 0.686000 -4.306260
v -0.337388 0.686000 -4.306165
v -0.332043 0.686000 -4.306084
v -0.326704 0.686000 -4.306015
v -0.306993 0.686000 -4.241360
v -0.287287 0.686000 -4.176705
v -0.267596 0.686000 -4.112049
v -0.247932 0.686000 -4.047394
v -0.228304 0.686000 -3.982738
v -0.208722 0.686000 -3.918082
v -0.189200 0.686000 -3.853427
v -0.169754 0.686000 -3.788771
v -0.150403 0.686000 -3.724116
v -0.131163 0.686000 -3.659461
v -0.112051 0.686000 -3.594807
v -0.093085 0.686000 -3.530152
v -0.074283 0.686000 -3.465497
v -0.055662 0.686000 -3.400843
v -0.037238 0.686000 -3.336188
v -0.019030 0.686000 -3.271534
v -0.001055 0.686000 -3.206879
v 0.016671 0.686000 -3.142225
v 0.034129 0.686000 -3.077570
v 0.051302 0.686000 -3.012916
v 0.068173 0.686000 -2.948261
v 0.084724 0.686000 -2.883607
v 0.100940 0.686000 -2.818952
v 0.116807 0.686000 -2.754297
v 0.132309 0.686000 -2.689643
v 0.147433 0.686000 -2.624988
v 0.162164 0.686000 -2.560333
v 0.176489 0.686000 -2.495678
v 0.190393 0.686000 -2.431023
v 0.203862 0.686000 -2.366369
v 0.216887 0.686000 -2.301714
v 0.229459 0.686000 -2.237059
v 0.241573 0.686000 -2.172404
v 0.253220 0.686000 -2.107750
v 0.264393 0.686000 -2.043095
v 0.275086 0.686000 -1.978440
v 0.285290 0.686000 -1.913785
v 0.294999 0.686000 -1.849131
v 0.304205 0.686000 -1.784476
v 0.312903 0.686000 -1.719821
v 0.321086 0.686000 -1.655166
v 0.328747 0.686000 -1.590512
v 0.335880 0.686000 -1.525857
v 0.342480 0.686000 -1.461202
v 0.348539 0.686000 -1.396547
v 0.354050 0.686000 -1.331893
v 0.359009 0.686000 -1.267238
v 0.363408 0.686000 -1.202583
v 0.367241 0.686000 -1.137928
v 0.370502 0.686000 -1.073274
v 0.373184 0.686000 -1.008619
v 0.375282 0.686000 -0.943964
v 0.376788 0.686000 -0.879309
v 0.377696 0.686000 -0.814655
v 0.378000 0.686000 -0.750000
v 0.378000 0.686000 -0.500000
v 0.000000 0.686000 -0.500000
f 3 4 2
f 4 5 2
f 5 6 2
f 6 7 2
f 7 8 2
f 8 9 2
f 9 10 2
f 10 11 2
f 11 12 2
f 12 13 2
f 13 14 2
f 14 15 2
f 15 16 2
f 16 17 2
f 17 18 2
f 18 19 2
f 19 20 2
f 20 21 2
f 21 22 2
f 22 23 2
f 23 24 2
f 24 25 2
f 25 26 2
f 26 27 2
f 27 28 2
f 28 29 2
f 29 30 2
f 30 31 2
f 31 32 2
f 32 33 2
f 33 34 2
f 34 35 2
f 35 36 2
f 36 37 2
f 37 38 2
f 38 39 2
f 39 40 2
f 40 41 2
f 41 42 2
f 42 43 2
f 43 44 2
f 44 45 2
f 45 46 2
f 46 47 2
f 47 48 2
f 48 49 2
f 49 50 2
f 50 51 2
f 51 52 2
f 52 53 2
f 53 54 2
f 54 55 2
f 55 56 2
f 56 57 2
f 57 58 2
f 58 59 2
f 59 60 2
f 60 61 2
f 61 62 2
f 62 63 2
f 63 64 2
f 64 65 2
f 65 66 2
f 66 67 2
f 67 68 2
f 68 69 2
f 69 70 2
f 70 71 2
f 71 72 2
f 72 73 2
f 73 74 2
f 74 75 2
f 75 76 2
f 76 77 2
f 77 78 2
f 78 79 2
f 79 80 2
f 80 81 2
f 81 82 2
f 82 83 2
f 83 84 2
f 84 85 2
f 85 86 2
f 86 87 2
f 87 88 2
f 88 89 2
f 89 90 2
f 90 91 2
f 91 92 2
f 92 93 2
f 93 94 2
f 94 95 2
f 95 96 2
f 96 97 2
f 97 98 2
f 98 99 2
f 99 100 2
f 100 101 2
f 101 102 2
f 102 103 2
f 103 104 2
f 104 105 2
f 105 106 2
f 106 107 2
f 107 108 2
f 108 109 2
f 109 110 2
f 110 1 2
f 110 111 1
f 111 112 1
f 112 114 1
f 112 113 114
