v 0.077614 0.670523 -0.036213
v 0.077614 0.670523 -0.825000
v 0.077570 0.670275 -0.825587
v 0.077527 0.670027 -0.826174
v 0.077483 0.669779 -0.826760
v 0.077439 0.669531 -0.827347
v 0.077396 0.669283 -0.827934
v 0.077352 0.669035 -0.828520
v 0.077308 0.668787 -0.829107
v 0.077264 0.668539 -0.829693
v 0.077221 0.668291 -0.830279
v 0.077177 0.668043 -0.830866
v 0.077133 0.667795 -0.831452
v 0.077090 0.667547 -0.832038
v 0.077046 0.667299 -0.832624
v 0.077002 0.667052 -0.833210
v 0.076958 0.666804 -0.833796
v 0.076915 0.666556 -0.834382
v 0.076871 0.666309 -0.834968
v 0.076827 0.666061 -0.835553
v 0.076784 0.665813 -0.836139
v 0.076740 0.665566 -0.836724
v 0.076696 0.665318 -0.837310
v 0.076653 0.665071 -0.837895
v 0.076609 0.664823 -0.838481
v 0.076566 0.664576 -0.839066
v 0.076522 0.664328 -0.839651
v 0.076478 0.664081 -0.840236
v 0.076435 0.663834 -0.840821
v 0.076391 0.663586 -0.841406
v 0.076347 0.663339 -0.841991
v 0.076304 0.663092 -0.842576
v 0.076260 0.662844 -0.843161
v 0.076217 0.662597 -0.843746
v 0.076173 0.662350 -0.844330
v 0.076130 0.662103 -0.844915
v 0.076086 0.661856 -0.845499
v 0.076042 0.661608 -0.846084
v 0.075999 0.661361 -0.846668
v 0.075955 0.661114 -0.847252
v 0.075912 0.660867 -0.847837
v 0.075868 0.660620 -0.848421
v 0.075825 0.660373 -0.849005
v 0.075781 0.660126 -0.849589
v 0.075738 0.659880 -0.850173
v 0.075694 0.659633 -0.850757
v 0.075650 0.659386 -0.851340
v 0.075607 0.659139 -0.851924
v 0.075563 0.658892 -0.852508
v 0.075520 0.658645 -0.853091
v 0.075476 0.658399 -0.853675
v 0.075433 0.658152 -0.854258
v 0.075389 0.657905 -0.854842
v 0.075346 0.657659 -0.855425
v 0.075302 0.657412 -0.856008
v 0.075259 0.657166 -0.856591
v 0.075215 0.656919 -0.857174
v 0.075215 0.656919 -0.016211
v 0.075245 0.657087 -0.016381
v 0.075275 0.657255 -0.016552
v 0.075304 0.657424 -0.016722
v 0.075334 0.657592 -0.016893
v 0.075364 0.657760 -0.017063
v 0.075393 0.657928 -0.017234
v 0.075423 0.658096 -0.017404
v 0.075453 0.658265 -0.017575
v 0.075482 0.658433 -0.017746
v 0.075512 0.658601 -0.017916
v 0.075542 0.658770 -0.018087
v 0.075571 0.658938 -0.018257
v 0.075601 0.659106 -0.018428
v 0.075631 0.659275 -0.018599
v 0.075661 0.659443 -0.018769
v 0.075690 0.659611 -0.018940
v 0.075720 0.659780 -0.019111
v 0.075750 0.659948 -0.019281
v 0.075779 0.660117 -0.019452
v 0.075809 0.660285 -0.019623
v 0.075839 0.660453 -0.019793
v 0.075868 0.660622 -0.019964
v 0.075898 0.660790 -0.020135
v 0.075928 0.660959 -0.020306
v 0.075958 0.661127 -0.020476
v 0.075987 0.661296 -0.020647
v 0.076017 0.661464 -0.020818
v 0.076047 0.661633 -0.020989
v 0.076076 0.661801 -0.021160
v 0.076106 0.661970 -0.021331
v 0.076136 0.662139 -0.021501
v 0.076166 0.662307 -0.021672
v 0.076195 0.662476 -0.021843
v 0.076225 0.662644 -0.022014
v 0.076255 0.662813 -0.022185
v 0.076284 0.662982 -0.022356
v 0.076314 0.663150 -0.022527
v 0.076344 0.663319 -0.022698
v 0.076374 0.663488 -0.022869
v 0.076403 0.663656 -0.023040
v 0.076433 0.663825 -0.023211
v 0.076463 0.663994 -0.023382
v 0.076493 0.664163 -0.023553
v 0.076522 0.664331 -0.023724
v 0.076552 0.664500 -0.023895
v 0.076582 0.664669 -0.024066
v 0.076612 0.664838 -0.024237
v 0.076642 0.665007 -0.024408
v 0.076671 0.665175 -0.024580
v 0.076701 0.665344 -0.024751
v 0.076731 0.665513 -0.024922
v 0.076761 0.665682 -0.025093
v 0.076790 0.665851 -0.025264
v 0.076820 0.666020 -0.025435
v 0.076850 0.666189 -0.025607
v 0.076877 0.666340 -0.025762
v 0.076903 0.666488 -0.025919
v 0.076928 0.666634 -0.026077
v 0.076954 0.666777 -0.026237
v 0.076978 0.666917 -0.026399
v 0.077003 0.667055 -0.026562
v 0.077027 0.667190 -0.026727
v 0.077050 0.667322 -0.026893
v 0.077073 0.667452 -0.027061
v 0.077095 0.667579 -0.027231
v 0.077117 0.667704 -0.027402
v 0.077139 0.667826 -0.027575
v 0.077160 0.667945 -0.027750
v 0.077180 0.668062 -0.027927
v 0.077200 0.668176 -0.028105
v 0.077220 0.668288 -0.028285
v 0.077239 0.668398 -0.028467
v 0.077258 0.668505 -0.028650
v 0.077277 0.668609 -0.028836
v 0.077295 0.668711 -0.029023
v 0.077312 0.668811 -0.029212
v 0.077329 0.668908 -0.029403
v 0.077346 0.669002 -0.029595
v 0.077362 0.669094 -0.029788
v 0.077378 0.669183 -0.029983
v 0.077393 0.669270 -0.030180
v 0.077408 0.669353 -0.030377
v 0.077422 0.669435 -0.030576
v 0.077436 0.669513 -0.030776
v 0.077449 0.669589 -0.030977
v 0.077462 0.669662 -0.031178
v 0.077475 0.669732 -0.031381
v 0.077487 0.669799 -0.031585
v 0.077498 0.669863 -0.031789
v 0.077509 0.669924 -0.031994
v 0.077519 0.669983 -0.032199
v 0.077529 0.670038 -0.032405
v 0.077538 0.670091 -0.032611
v 0.077547 0.670140 -0.032818
v 0.077555 0.670186 -0.033026
v 0.077563 0.670230 -0.033233
v 0.077570 0.670270 -0.033442
v 0.077576 0.670308 -0.033651
v 0.077582 0.670342 -0.033860
v 0.077588 0.670374 -0.034071
v 0.077593 0.670402 -0.034282
v 0.077597 0.670427 -0.034493
v 0.077601 0.670450 -0.034705
v 0.077605 0.670469 -0.034918
v 0.077608 0.670486 -0.035132
v 0.077610 0.670499 -0.035347
v 0.077612 0.670510 -0.035562
v 0.077613 0.670517 -0.035778
v 0.077614 0.670521 -0.035995
f 57 55 56
f 57 54 55
f 57 53 54
f 57 52 53
f 57 51 52
f 57 50 51
f 57 49 50
f 57 48 49
f 57 47 48
f 57 46 47
f 57 45 46
f 57 44 45
f 57 43 44
f 57 42 43
f 57 41 42
f 57 40 41
f 57 39 40
f 57 38 39
f 57 37 38
f 57 36 37
f 57 35 36
f 57 34 35
f 57 33 34
f 57 32 33
f 57 31 32
f 57 30 31
f 57 29 30
f 57 28 29
f 57 27 28
f 57 26 27
f 57 25 26
f 57 24 25
f 57 23 24
f 57 22 23
f 57 21 22
f 57 20 21
f 57 19 20
f 57 18 19
f 57 17 18
f 57 16 17
f 57 15 16
f 57 14 15
f 57 13 14
f 57 12 13
f 57 11 12
f 57 10 11
f 57 9 10
f 57 8 9
f 57 7 8
f 57 6 7
f 57 5 6
f 57 4 5
f 57 3 4
f 57 2 3
f 57 1 2
f 57 167 1
f 57 166 167
f 57 165 166
f 57 164 165
f 57 163 164
f 57 162 163
f 57 161 162
f 57 160 161
f 57 159 160
f 57 158 159
f 57 157 158
f 57 156 157
f 57 155 156
f 57 154 155
f 57 153 154
f 57 152 153
f 57 151 152
f 57 150 151
f 57 149 150
f 57 148 149
f 57 147 148
f 57 146 147
f 57 145 146
f 57 144 145
f 57 143 144
f 57 142 143
f 57 141 142
f 57 140 141
f 57 139 140
f 57 138 139
f 57 137 138
f 57 136 137
f 57 135 136
f 57 134 135
f 57 133 134
f 57 132 133
f 57 131 132
f 57 130 131
f 57 129 130
f 57 128 129
f 57 127 128
f 57 126 127
f 57 125 126
f 57 124 125
f 57 123 124
f 57 122 123
f 57 121 122
f 57 120 121
f 57 119 120
f 57 118 119
f 57 117 118
f 57 116 117
f 57 115 116
f 57 114 115
f 57 113 114
f 57 112 113
f 57 111 112
f 57 110 111
f 57 109 110
f 57 108 109
f 57 107 108
f 57 106 107
f 57 105 106
f 57 104 105
f 57 103 104
f 57 102 103
f 57 101 102
f 57 100 101
f 57 99 100
f 57 98 99
f 57 97 98
f 57 96 97
f 57 95 96
f 57 94 95
f 57 93 94
f 57 92 93
f 57 91 92
f 57 90 91
f 57 89 90
f 57 88 89
f 57 87 88
f 57 86 87
f 57 85 86
f 57 84 85
f 57 83 84
f 57 82 83
f 57 81 82
f 57 80 81
f 57 79 80
f 57 78 79
f 57 77 78
f 57 76 77
f 57 75 76
f 57 74 75
f 57 73 74
f 57 72 73
f 57 71 72
f 57 70 71
f 57 69 70
f 57 68 69
f 57 67 68
f 57 66 67
f 57 65 66
f 57 64 65
f 57 63 64
f 57 62 63
f 57 61 62
f 57 60 61
f 57 59 60
f 57 58 59
