v -0.160232 0.010000 -0.650558
v -0.162787 0.010000 -0.649923
v -0.165341 0.010000 -0.649278
v -0.167891 0.010000 -0.648624
v -0.170439 0.010000 -0.647959
v -0.172985 0.010000 -0.647284
v -0.175528 0.010000 -0.646599
v -0.178068 0.010000 -0.645904
v -0.180605 0.010000 -0.645199
v -0.183139 0.010000 -0.644484
v -0.185671 0.010000 -0.643759
v -0.160232 0.220000 -0.650558
v -0.162787 0.220000 -0.649923
v -0.165341 0.220000 -0.649278
v -0.167891 0.220000 -0.648624
v -0.170439 0.220000 -0.647959
v -0.172985 0.220000 -0.647284
v -0.175528 0.220000 -0.646599
v -0.178068 0.220000 -0.645904
v -0.180605 0.220000 -0.645199
v -0.183139 0.220000 -0.644484
v -0.185671 0.220000 -0.643759
f 1 2 13
f 1 13 12
f 2 3 14
f 2 14 13
f 3 4 15
f 3 15 14
f 4 5 16
f 4 16 15
f 5 6 17
f 5 17 16
f 6 7 18
f 6 18 17
f 7 8 19
f 7 19 18
f 8 9 20
f 8 20 19
f 9 10 21
f 9 21 20
f 10 11 22
f 10 22 21
