v 0.395361 0.010000 0.540915
v 0.395361 0.220000 0.540915
v 0.406998 0.220000 0.540797
v 0.450842 0.220000 0.571497
v 0.450842 0.000000 0.571497
v 0.401105 0.000000 0.536670
v 0.401105 0.010000 0.536670
v 0.406998 0.016837 0.540797
v 0.406801 0.016611 0.540662
v 0.406602 0.016388 0.540533
v 0.406400 0.016168 0.540409
v 0.406196 0.015951 0.540290
v 0.405991 0.015736 0.540177
v 0.405783 0.015525 0.540069
v 0.405574 0.015317 0.539966
v 0.405363 0.015112 0.539868
v 0.405151 0.014911 0.539775
v 0.404936 0.014712 0.539688
v 0.404721 0.014517 0.539606
v 0.404504 0.014325 0.539529
v 0.404286 0.014137 0.539457
v 0.404066 0.013952 0.539390
v 0.403846 0.013770 0.539328
v 0.403624 0.013592 0.539272
v 0.403402 0.013418 0.539220
v 0.403178 0.013247 0.539174
v 0.402954 0.013080 0.539133
v 0.402730 0.012916 0.539097
v 0.402505 0.012757 0.539066
v 0.402279 0.012601 0.539040
v 0.402053 0.012450 0.539020
v 0.401827 0.012302 0.539004
v 0.401600 0.012159 0.538994
v 0.401374 0.012020 0.538989
v 0.401148 0.011885 0.538989
v 0.400922 0.011754 0.538995
v 0.400696 0.011627 0.539005
v 0.400470 0.011505 0.539021
v 0.400245 0.011388 0.539041
v 0.400021 0.011275 0.539067
v 0.399797 0.011166 0.539098
v 0.399575 0.011063 0.539133
v 0.399354 0.010963 0.539174
v 0.399134 0.010869 0.539219
v 0.398915 0.010779 0.539269
v 0.398698 0.010694 0.539324
v 0.398483 0.010614 0.539383
v 0.398270 0.010539 0.539447
v 0.398059 0.010468 0.539516
v 0.397850 0.010403 0.539589
v 0.397643 0.010343 0.539666
v 0.397438 0.010288 0.539748
v 0.397236 0.010237 0.539834
v 0.397037 0.010192 0.539925
v 0.396840 0.010151 0.540019
v 0.396645 0.010116 0.540118
v 0.396453 0.010085 0.540221
v 0.396264 0.010059 0.540327
v 0.396078 0.010038 0.540437
v 0.395894 0.010021 0.540551
v 0.395714 0.010009 0.540669
v 0.395536 0.010002 0.540790
f 62 1 2
f 62 2 3
f 62 3 4
f 5 6 7
f 5 7 8
f 4 5 8
f 62 4 8
f 62 8 9
f 62 9 10
f 62 10 11
f 62 11 12
f 62 12 13
f 62 13 14
f 62 14 15
f 62 15 16
f 62 16 17
f 62 17 18
f 62 18 19
f 62 19 20
f 62 20 21
f 62 21 22
f 62 22 23
f 62 23 24
f 62 24 25
f 62 25 26
f 62 26 27
f 62 27 28
f 62 28 29
f 62 29 30
f 62 30 31
f 62 31 32
f 62 32 33
f 62 33 34
f 62 34 35
f 62 35 36
f 62 36 37
f 62 37 38
f 62 38 39
f 62 39 40
f 62 40 41
f 62 41 42
f 62 42 43
f 62 43 44
f 62 44 45
f 62 45 46
f 62 46 47
f 62 47 48
f 62 48 49
f 62 49 50
f 62 50 51
f 62 51 52
f 62 52 53
f 62 53 54
f 62 54 55
f 62 55 56
f 62 56 57
f 62 57 58
f 62 58 59
f 62 59 60
f 60 61 62
