v 0.405000 0.408690 -6.529318
v 0.403604 0.375020 -6.720381
v 0.405000 0.375000 -6.720383
v 0.402468 0.408753 -6.529329
v 0.402208 0.375081 -6.720375
v 0.400814 0.375183 -6.720366
v 0.399942 0.408943 -6.529362
v 0.399421 0.375325 -6.720353
v 0.398032 0.375507 -6.720335
v 0.397429 0.409258 -6.529418
v 0.396648 0.375729 -6.720314
v 0.395268 0.375992 -6.720290
v 0.394935 0.409698 -6.529495
v 0.393896 0.376293 -6.720261
v 0.392532 0.376635 -6.720229
v 0.392467 0.410262 -6.529595
v 0.391176 0.377016 -6.720193
v 0.390032 0.410948 -6.529716
v 0.389831 0.377436 -6.720153
v 0.388496 0.377895 -6.720109
v 0.387635 0.411755 -6.529858
v 0.387174 0.378393 -6.720062
v 0.385866 0.378930 -6.720011
v 0.385282 0.412681 -6.530021
v 0.384571 0.379506 -6.719956
v 0.383293 0.380119 -6.719898
v 0.382980 0.413722 -6.530205
v 0.382030 0.380771 -6.719836
v 0.380786 0.381459 -6.719770
v 0.380735 0.414877 -6.530409
v 0.379559 0.382184 -6.719700
v 0.378552 0.416143 -6.530632
v 0.378352 0.382945 -6.719627
v 0.377165 0.383741 -6.719550
v 0.376437 0.417516 -6.530874
v 0.375999 0.384573 -6.719470
v 0.374855 0.385440 -6.719386
v 0.374395 0.418992 -6.531134
v 0.373734 0.386340 -6.719299
v 0.372638 0.387275 -6.719208
v 0.372431 0.420569 -6.531412
v 0.371567 0.388242 -6.719114
v 0.370552 0.422241 -6.531707
v 0.370521 0.389243 -6.719016
v 0.369503 0.390275 -6.718915
v 0.368760 0.424005 -6.532018
v 0.368512 0.391339 -6.718811
v 0.367550 0.392434 -6.718703
v 0.367062 0.425857 -6.532345
v 0.366617 0.393557 -6.718592
v 0.365715 0.394710 -6.718478
v 0.365461 0.427790 -6.532685
v 0.364844 0.395889 -6.718361
v 0.364005 0.397096 -6.718240
v 0.363962 0.429801 -6.533040
v 0.363198 0.398327 -6.718117
v 0.362568 0.431884 -6.533407
v 0.362425 0.399583 -6.717992
v 0.361687 0.400862 -6.717863
v 0.361283 0.434034 -6.533786
v 0.360984 0.402164 -6.717732
v 0.360316 0.403487 -6.717598
v 0.360110 0.436245 -6.534176
v 0.359686 0.404830 -6.717461
v 0.359093 0.406192 -6.717323
v 0.359052 0.438512 -6.534576
v 0.358539 0.407573 -6.717181
v 0.358112 0.440829 -6.534985
v 0.358024 0.408971 -6.717038
v 0.357548 0.410385 -6.716892
v 0.357293 0.443190 -6.535401
v 0.357111 0.411814 -6.716745
v 0.356715 0.413257 -6.716595
v 0.356596 0.445588 -6.535824
v 0.356358 0.414713 -6.716443
v 0.356043 0.416180 -6.716290
v 0.356024 0.448018 -6.536252
v 0.355768 0.417658 -6.716135
v 0.355577 0.450474 -6.536685
v 0.355535 0.419146 -6.715979
v 0.355343 0.420642 -6.715821
v 0.355257 0.452949 -6.537122
v 0.355194 0.422146 -6.715662
v 0.355086 0.423655 -6.715501
v 0.355064 0.455436 -6.537560
v 0.355022 0.425170 -6.715340
v 0.355000 0.426689 -6.715177
v 0.355000 0.457930 -6.538000
f 1 3 2
f 1 2 4
f 4 2 5
f 4 5 6
f 4 6 7
f 7 6 8
f 7 8 9
f 7 9 10
f 10 9 11
f 10 11 12
f 10 12 13
f 13 12 14
f 13 14 15
f 13 15 16
f 16 15 17
f 16 17 18
f 18 17 19
f 18 19 20
f 18 20 21
f 21 20 22
f 21 22 23
f 21 23 24
f 24 23 25
f 24 25 26
f 24 26 27
f 27 26 28
f 27 28 29
f 27 29 30
f 30 29 31
f 30 31 32
f 32 31 33
f 32 33 34
f 32 34 35
f 35 34 36
f 35 36 37
f 35 37 38
f 38 37 39
f 38 39 40
f 38 40 41
f 41 40 42
f 41 42 43
f 43 42 44
f 43 44 45
f 43 45 46
f 46 45 47
f 46 47 48
f 46 48 49
f 49 48 50
f 49 50 51
f 49 51 52
f 52 51 53
f 52 53 54
f 52 54 55
f 55 54 56
f 55 56 57
f 57 56 58
f 57 58 59
f 57 59 60
f 60 59 61
f 60 61 62
f 60 62 63
f 63 62 64
f 63 64 65
f 63 65 66
f 66 65 67
f 66 67 68
f 68 67 69
f 68 69 70
f 68 70 71
f 71 70 72
f 71 72 73
f 71 73 74
f 74 73 75
f 74 75 76
f 74 76 77
f 77 76 78
f 77 78 79
f 79 78 80
f 79 80 81
f 79 81 82
f 82 81 83
f 82 83 84
f 82 84 85
f 85 84 86
f 85 86 87
f 85 87 88
