v 0.500000 -0.275000 -6.413000
v 0.500539 -0.275000 -6.423623
v 0.502149 -0.275000 -6.434136
v 0.504815 -0.275000 -6.444433
v 0.508509 -0.275000 -6.454407
v 0.513194 -0.275000 -6.463957
v 0.518820 -0.275000 -6.472983
v 0.525330 -0.275000 -6.481394
v 0.532658 -0.275000 -6.489103
v 0.540729 -0.275000 -6.496031
v 0.549459 -0.275000 -6.502108
v 0.558759 -0.275000 -6.507269
v 0.568533 -0.275000 -6.511464
v 0.578681 -0.275000 -6.514648
v 0.589100 -0.275000 -6.516789
v 0.599682 -0.275000 -6.517865
v 0.610318 -0.275000 -6.517865
v 0.620900 -0.275000 -6.516789
v 0.631319 -0.275000 -6.514648
v 0.641467 -0.275000 -6.511464
v 0.651241 -0.275000 -6.507269
v 0.660541 -0.275000 -6.502108
v 0.669271 -0.275000 -6.496031
v 0.677342 -0.275000 -6.489103
v 0.684670 -0.275000 -6.481394
v 0.691180 -0.275000 -6.472983
v 0.696806 -0.275000 -6.463957
v 0.701491 -0.275000 -6.454407
v 0.705185 -0.275000 -6.444433
v 0.707851 -0.275000 -6.434136
v 0.709461 -0.275000 -6.423623
v 0.710000 -0.275000 -6.413000
v 0.500000 -0.325000 -6.413000
v 0.500539 -0.325000 -6.423623
v 0.502149 -0.325000 -6.434136
v 0.504815 -0.325000 -6.444433
v 0.508509 -0.325000 -6.454407
v 0.513194 -0.325000 -6.463957
v 0.518820 -0.325000 -6.472983
v 0.525330 -0.325000 -6.481394
v 0.532658 -0.325000 -6.489103
v 0.540729 -0.325000 -6.496031
v 0.549459 -0.325000 -6.502108
v 0.558759 -0.325000 -6.507269
v 0.568533 -0.325000 -6.511464
v 0.578681 -0.325000 -6.514648
v 0.589100 -0.325000 -6.516789
v 0.599682 -0.325000 -6.517865
v 0.610318 -0.325000 -6.517865
v 0.620900 -0.325000 -6.516789
v 0.631319 -0.325000 -6.514648
v 0.641467 -0.325000 -6.511464
v 0.651241 -0.325000 -6.507269
v 0.660541 -0.325000 -6.502108
v 0.669271 -0.325000 -6.496031
v 0.677342 -0.325000 -6.489103
v 0.684670 -0.325000 -6.481394
v 0.691180 -0.325000 -6.472983
v 0.696806 -0.325000 -6.463957
v 0.701491 -0.325000 -6.454407
v 0.705185 -0.325000 -6.444433
v 0.707851 -0.325000 -6.434136
v 0.709461 -0.325000 -6.423623
v 0.710000 -0.325000 -6.413000
f 1 2 34
f 1 34 33
f 2 3 35
f 2 35 34
f 3 4 36
f 3 36 35
f 4 5 37
f 4 37 36
f 5 6 38
f 5 38 37
f 6 7 39
f 6 39 38
f 7 8 40
f 7 40 39
f 8 9 41
f 8 41 40
f 9 10 42
f 9 42 41
f 10 11 43
f 10 43 42
f 11 12 44
f 11 44 43
f 12 13 45
f 12 45 44
f 13 14 46
f 13 46 45
f 14 15 47
f 14 47 46
f 15 16 48
f 15 48 47
f 16 17 49
f 16 49 48
f 17 18 50
f 17 50 49
f 18 19 51
f 18 51 50
f 19 20 52
f 19 52 51
f 20 21 53
f 20 53 52
f 21 22 54
f 21 54 53
f 22 23 55
f 22 55 54
f 23 24 56
f 23 56 55
f 24 25 57
f 24 57 56
f 25 26 58
f 25 58 57
f 26 27 59
f 26 59 58
f 27 28 60
f 27 60 59
f 28 29 61
f 28 61 60
f 29 30 62
f 29 62 61
f 30 31 63
f 30 63 62
f 31 32 64
f 31 64 63
