v 0.302899 0.605280 -0.034418
v 0.298305 0.607240 -0.034697
v 0.293701 0.609185 -0.034958
v 0.289088 0.611113 -0.035200
v 0.284465 0.613027 -0.035423
v 0.279833 0.614924 -0.035628
v 0.275192 0.616805 -0.035814
v 0.270542 0.618671 -0.035982
v 0.265884 0.620520 -0.036131
v 0.261218 0.622353 -0.036262
v 0.256544 0.624169 -0.036373
v 0.251862 0.625970 -0.036467
v 0.247173 0.627753 -0.036541
v 0.242477 0.629520 -0.036597
v 0.237774 0.631270 -0.036634
v 0.233065 0.633004 -0.036653
v 0.228349 0.634720 -0.036653
v 0.223627 0.636419 -0.036634
v 0.218899 0.638102 -0.036597
v 0.214166 0.639767 -0.036541
v 0.209428 0.641414 -0.036467
v 0.204684 0.643045 -0.036373
v 0.199936 0.644658 -0.036262
v 0.195183 0.646253 -0.036131
v 0.190427 0.647830 -0.035982
v 0.185666 0.649390 -0.035814
v 0.180901 0.650932 -0.035628
v 0.176133 0.652456 -0.035423
v 0.171362 0.653962 -0.035200
v 0.166588 0.655450 -0.034958
v 0.161811 0.656920 -0.034697
v 0.157032 0.658371 -0.034418
v 0.299650 0.598587 -0.026784
v 0.299727 0.598720 -0.026940
v 0.299803 0.598852 -0.027095
v 0.299878 0.598984 -0.027249
v 0.299953 0.599116 -0.027403
v 0.300027 0.599247 -0.027556
v 0.300100 0.599378 -0.027709
v 0.300173 0.599509 -0.027862
v 0.300246 0.599639 -0.028014
v 0.300317 0.599769 -0.028165
v 0.300388 0.599899 -0.028316
v 0.300459 0.600029 -0.028467
v 0.300529 0.600158 -0.028617
v 0.300598 0.600288 -0.028767
v 0.300667 0.600417 -0.028916
v 0.300736 0.600545 -0.029065
v 0.300804 0.600674 -0.029214
v 0.300871 0.600803 -0.029362
v 0.300938 0.600931 -0.029510
v 0.301004 0.601060 -0.029658
v 0.301070 0.601188 -0.029806
v 0.301135 0.601316 -0.029953
v 0.301200 0.601444 -0.030100
v 0.301264 0.601571 -0.030246
v 0.301327 0.601698 -0.030391
v 0.301390 0.601825 -0.030537
v 0.301453 0.601952 -0.030681
v 0.301514 0.602077 -0.030825
v 0.301575 0.602203 -0.030968
v 0.301635 0.602328 -0.031110
v 0.301695 0.602452 -0.031251
v 0.301753 0.602575 -0.031392
v 0.301811 0.602698 -0.031531
v 0.301868 0.602820 -0.031670
v 0.301924 0.602942 -0.031807
v 0.301980 0.603062 -0.031944
v 0.302034 0.603182 -0.032079
v 0.302088 0.603300 -0.032212
v 0.302140 0.603418 -0.032345
v 0.302192 0.603535 -0.032476
v 0.302243 0.603650 -0.032606
v 0.302293 0.603765 -0.032735
v 0.302342 0.603879 -0.032863
v 0.302390 0.603992 -0.032989
v 0.302437 0.604104 -0.033115
v 0.302484 0.604215 -0.033239
v 0.302529 0.604325 -0.033362
v 0.302574 0.604435 -0.033483
v 0.302617 0.604543 -0.033604
v 0.302660 0.604651 -0.033724
v 0.302702 0.604758 -0.033842
v 0.302743 0.604864 -0.033959
v 0.302784 0.604969 -0.034076
v 0.302823 0.605073 -0.034191
v 0.302862 0.605177 -0.034305
v 0.302899 0.605280 -0.034418
v 0.298305 0.607240 -0.034697
v 0.293701 0.609185 -0.034958
v 0.289088 0.611113 -0.035200
v 0.284465 0.613027 -0.035423
v 0.279833 0.614924 -0.035628
v 0.275192 0.616805 -0.035814
v 0.270542 0.618671 -0.035982
v 0.265884 0.620520 -0.036131
v 0.261218 0.622353 -0.036262
v 0.256544 0.624169 -0.036373
v 0.251862 0.625970 -0.036467
v 0.247173 0.627753 -0.036541
v 0.242477 0.629520 -0.036597
v 0.237774 0.631270 -0.036634
v 0.233065 0.633004 -0.036653
v 0.228349 0.634720 -0.036653
v 0.223627 0.636419 -0.036634
v 0.218899 0.638102 -0.036597
v 0.214166 0.639767 -0.036541
v 0.209428 0.641414 -0.036467
v 0.204684 0.643045 -0.036373
v 0.199936 0.644658 -0.036262
v 0.195183 0.646253 -0.036131
v 0.190427 0.647830 -0.035982
v 0.185666 0.649390 -0.035814
v 0.180901 0.650932 -0.035628
v 0.176133 0.652456 -0.035423
v 0.171362 0.653962 -0.035200
v 0.166588 0.655450 -0.034958
v 0.161811 0.656920 -0.034697
v 0.157032 0.658371 -0.034418
v 0.156995 0.658268 -0.034305
v 0.156958 0.658164 -0.034191
v 0.156921 0.658059 -0.034076
v 0.156884 0.657952 -0.033959
v 0.156847 0.657844 -0.033842
v 0.156811 0.657736 -0.033724
v 0.156775 0.657626 -0.033604
v 0.156738 0.657514 -0.033483
v 0.156702 0.657402 -0.033362
v 0.156666 0.657288 -0.033239
v 0.156630 0.657173 -0.033115
v 0.156594 0.657057 -0.032989
v 0.156559 0.656940 -0.032863
v 0.156523 0.656821 -0.032735
v 0.156487 0.656701 -0.032606
v 0.156452 0.656580 -0.032476
v 0.156417 0.656457 -0.032345
v 0.156381 0.656333 -0.032212
v 0.156346 0.656208 -0.032079
v 0.156311 0.656081 -0.031944
v 0.156276 0.655953 -0.031807
v 0.156241 0.655824 -0.031670
v 0.156206 0.655694 -0.031531
v 0.156172 0.655563 -0.031392
v 0.156137 0.655430 -0.031251
v 0.156103 0.655297 -0.031110
v 0.156069 0.655163 -0.030968
v 0.156035 0.655028 -0.030825
v 0.156001 0.654892 -0.030681
v 0.155967 0.654755 -0.030537
v 0.155934 0.654617 -0.030391
v 0.155901 0.654479 -0.030246
v 0.155868 0.654340 -0.030100
v 0.155836 0.654201 -0.029953
v 0.155803 0.654061 -0.029806
v 0.155771 0.653920 -0.029658
v 0.155740 0.653779 -0.029510
v 0.155708 0.653638 -0.029362
v 0.155677 0.653496 -0.029214
v 0.155646 0.653354 -0.029065
v 0.155616 0.653211 -0.028916
v 0.155586 0.653068 -0.028767
v 0.155556 0.652924 -0.028617
v 0.155526 0.652780 -0.028467
v 0.155497 0.652635 -0.028316
v 0.155468 0.652490 -0.028165
v 0.155439 0.652344 -0.028014
v 0.155411 0.652198 -0.027862
v 0.155383 0.652051 -0.027709
v 0.155355 0.651903 -0.027556
v 0.155327 0.651755 -0.027403
v 0.155300 0.651606 -0.027249
v 0.155273 0.651457 -0.027095
v 0.155246 0.651307 -0.026940
v 0.155219 0.651156 -0.026784
f 173 174 1
f 1 2 3
f 3 4 5
f 5 6 7
f 7 8 9
f 9 10 11
f 11 12 13
f 13 14 15
f 15 16 17
f 17 18 19
f 19 20 21
f 21 22 23
f 23 24 25
f 25 26 27
f 27 28 29
f 29 30 31
f 31 32 33
f 33 34 35
f 35 36 37
f 37 38 39
f 39 40 41
f 41 42 43
f 43 44 45
f 45 46 47
f 47 48 49
f 49 50 51
f 51 52 53
f 53 54 55
f 55 56 57
f 57 58 59
f 59 60 61
f 61 62 63
f 63 64 65
f 65 66 67
f 67 68 69
f 69 70 71
f 71 72 73
f 73 74 75
f 75 76 77
f 77 78 79
f 79 80 81
f 81 82 83
f 83 84 85
f 85 86 87
f 87 88 89
f 89 90 91
f 91 92 93
f 93 94 95
f 95 96 97
f 97 98 99
f 99 100 101
f 101 102 103
f 103 104 105
f 105 106 107
f 107 108 109
f 109 110 111
f 111 112 113
f 113 114 115
f 115 116 117
f 117 118 119
f 119 120 121
f 121 122 123
f 123 124 125
f 125 126 127
f 127 128 129
f 129 130 131
f 131 132 133
f 133 134 135
f 135 136 137
f 137 138 139
f 139 140 141
f 141 142 143
f 143 144 145
f 145 146 147
f 147 148 149
f 149 150 151
f 151 152 153
f 153 154 155
f 155 156 157
f 157 158 159
f 159 160 161
f 161 162 163
f 163 164 165
f 165 166 167
f 167 168 169
f 169 170 171
f 171 172 173
f 173 1 3
f 3 5 7
f 7 9 11
f 11 13 15
f 15 17 19
f 19 21 23
f 23 25 27
f 27 29 31
f 31 33 35
f 35 37 39
f 39 41 43
f 43 45 47
f 47 49 51
f 51 53 55
f 55 57 59
f 59 61 63
f 63 65 67
f 67 69 71
f 71 73 75
f 75 77 79
f 79 81 83
f 83 85 87
f 87 89 91
f 91 93 95
f 95 97 99
f 99 101 103
f 103 105 107
f 107 109 111
f 111 113 115
f 115 117 119
f 119 121 123
f 123 125 127
f 127 129 131
f 131 133 135
f 135 137 139
f 139 141 143
f 143 145 147
f 147 149 151
f 151 153 155
f 155 157 159
f 159 161 163
f 163 165 167
f 167 169 171
f 171 173 3
f 3 7 11
f 11 15 19
f 19 23 27
f 27 31 35
f 35 39 43
f 43 47 51
f 51 55 59
f 59 63 67
f 67 71 75
f 75 79 83
f 83 87 91
f 91 95 99
f 99 103 107
f 107 111 115
f 115 119 123
f 123 127 131
f 131 135 139
f 139 143 147
f 147 151 155
f 155 159 163
f 163 167 171
f 171 3 11
f 11 19 27
f 27 35 43
f 43 51 59
f 59 67 75
f 75 83 91
f 91 99 107
f 107 115 123
f 123 131 139
f 139 147 155
f 155 163 171
f 171 11 27
f 27 43 59
f 59 75 91
f 91 107 123
f 123 139 155
f 155 171 27
f 27 59 91
f 91 123 155
