v -0.614649 -0.138225 -1.051004
v -0.614334 -0.139619 -1.051148
v -0.614024 -0.140977 -1.051492
v -0.613725 -0.142271 -1.052030
v -0.613445 -0.143476 -1.052751
v -0.613189 -0.144568 -1.053639
v -0.612963 -0.145523 -1.054677
v -0.612772 -0.146324 -1.055843
v -0.612621 -0.146954 -1.057113
v -0.612514 -0.147402 -1.058462
v -0.612452 -0.147658 -1.059862
v -0.485599 -0.096013 -1.051004
v -0.485319 -0.097421 -1.051148
v -0.485042 -0.098791 -1.051493
v -0.484774 -0.100096 -1.052032
v -0.484522 -0.101310 -1.052754
v -0.484291 -0.102409 -1.053643
v -0.484086 -0.103371 -1.054681
v -0.483913 -0.104176 -1.055847
v -0.483776 -0.104811 -1.057117
v -0.483679 -0.105260 -1.058465
v -0.483623 -0.105518 -1.059863
f 1 13 2
f 1 12 13
f 2 14 3
f 2 13 14
f 3 15 4
f 3 14 15
f 4 16 5
f 4 15 16
f 5 17 6
f 5 16 17
f 6 18 7
f 6 17 18
f 7 19 8
f 7 18 19
f 8 20 9
f 8 19 20
f 9 21 10
f 9 20 21
f 10 22 11
f 10 21 22
