v 0.524978 -0.348278 -1.084841
v 0.524978 -0.348278 -1.061000
v 0.418333 -0.264618 -1.061000
v 0.418333 -0.264618 -1.120893
v 0.420264 -0.266134 -1.120241
v 0.422196 -0.267649 -1.119588
v 0.424128 -0.269164 -1.118935
v 0.426060 -0.270680 -1.118283
v 0.427992 -0.272196 -1.117630
v 0.429925 -0.273712 -1.116977
v 0.431858 -0.275229 -1.116324
v 0.433792 -0.276745 -1.115670
v 0.435725 -0.278262 -1.115017
v 0.437659 -0.279779 -1.114363
v 0.439593 -0.281297 -1.113710
v 0.441528 -0.282814 -1.113056
v 0.443463 -0.284332 -1.112402
v 0.445398 -0.285850 -1.111748
v 0.447333 -0.287368 -1.111094
v 0.449269 -0.288887 -1.110440
v 0.451205 -0.290406 -1.109786
v 0.453141 -0.291924 -1.109131
v 0.455078 -0.293444 -1.108477
v 0.457014 -0.294963 -1.107822
v 0.458951 -0.296483 -1.107167
v 0.460889 -0.298002 -1.106512
v 0.462827 -0.299522 -1.105857
v 0.464765 -0.301043 -1.105202
v 0.466703 -0.302563 -1.104547
v 0.468641 -0.304084 -1.103892
v 0.470580 -0.305605 -1.103236
v 0.472519 -0.307126 -1.102581
v 0.474459 -0.308647 -1.101925
v 0.476398 -0.310169 -1.101269
v 0.478338 -0.311691 -1.100613
v 0.480278 -0.313213 -1.099957
v 0.482219 -0.314735 -1.099301
v 0.484160 -0.316258 -1.098645
v 0.486101 -0.317780 -1.097989
v 0.488042 -0.319303 -1.097332
v 0.489984 -0.320826 -1.096676
v 0.491925 -0.322350 -1.096019
v 0.493868 -0.323873 -1.095363
v 0.495810 -0.325397 -1.094706
v 0.497753 -0.326921 -1.094049
v 0.499696 -0.328445 -1.093392
v 0.501639 -0.329969 -1.092735
v 0.503582 -0.331494 -1.092078
v 0.505526 -0.333019 -1.091420
v 0.507470 -0.334544 -1.090763
v 0.509414 -0.336069 -1.090105
v 0.511359 -0.337594 -1.089448
v 0.513304 -0.339120 -1.088790
v 0.515249 -0.340646 -1.088132
v 0.517194 -0.342172 -1.087474
v 0.519140 -0.343698 -1.086816
v 0.521086 -0.345225 -1.086158
v 0.523032 -0.346751 -1.085500
f 1 3 2
f 1 4 3
f 1 5 4
f 1 6 5
f 1 7 6
f 1 8 7
f 1 9 8
f 1 10 9
f 1 11 10
f 1 12 11
f 1 13 12
f 1 14 13
f 1 15 14
f 1 16 15
f 1 17 16
f 1 18 17
f 1 19 18
f 1 20 19
f 1 21 20
f 1 22 21
f 1 23 22
f 1 24 23
f 1 25 24
f 1 26 25
f 1 27 26
f 1 28 27
f 1 29 28
f 1 30 29
f 1 31 30
f 1 32 31
f 1 33 32
f 1 34 33
f 1 35 34
f 1 36 35
f 1 37 36
f 1 38 37
f 1 39 38
f 1 40 39
f 1 41 40
f 1 42 41
f 1 43 42
f 1 44 43
f 1 45 44
f 1 46 45
f 1 47 46
f 1 48 47
f 1 49 48
f 1 50 49
f 1 51 50
f 1 52 51
f 1 53 52
f 1 54 53
f 1 55 54
f 1 56 55
f 1 57 56
f 1 58 57
