v 0.344754 0.220000 0.641103
v 0.306906 0.220000 0.603256
v 0.306618 0.220000 0.602978
v 0.306318 0.220000 0.602712
v 0.306008 0.220000 0.602459
v 0.305687 0.220000 0.602218
v 0.305358 0.220000 0.601990
v 0.305020 0.220000 0.601775
v 0.304673 0.220000 0.601575
v 0.304319 0.220000 0.601388
v 0.303957 0.220000 0.601216
v 0.303589 0.220000 0.601058
v 0.303214 0.220000 0.600915
v 0.302835 0.220000 0.600787
v 0.302450 0.220000 0.600675
v 0.302061 0.220000 0.600578
v 0.301669 0.220000 0.600496
v 0.301274 0.220000 0.600431
v 0.300876 0.220000 0.600381
v 0.300477 0.220000 0.600347
v 0.300077 0.220000 0.600330
v 0.299676 0.220000 0.600328
v 0.299276 0.220000 0.600342
v 0.298876 0.220000 0.600373
v 0.298478 0.220000 0.600419
v 0.298083 0.220000 0.600482
v 0.297690 0.220000 0.600560
v 0.297300 0.220000 0.600653
v 0.296915 0.220000 0.600763
v 0.296534 0.220000 0.600887
v 0.296159 0.220000 0.601027
v 0.295789 0.220000 0.601182
v 0.295426 0.220000 0.601351
v 0.298021 0.220000 0.600070
v 0.300611 0.220000 0.598776
v 0.303194 0.220000 0.597472
v 0.305773 0.220000 0.596157
v 0.308345 0.220000 0.594830
v 0.310912 0.220000 0.593493
v 0.313473 0.220000 0.592144
v 0.316028 0.220000 0.590784
v 0.318577 0.220000 0.589414
v 0.321120 0.220000 0.588032
v 0.323658 0.220000 0.586639
v 0.326189 0.220000 0.585236
v 0.328714 0.220000 0.583821
v 0.331233 0.220000 0.582396
v 0.333746 0.220000 0.580959
v 0.336253 0.220000 0.579512
v 0.338753 0.220000 0.578054
v 0.341247 0.220000 0.576585
v 0.343734 0.220000 0.575106
v 0.346216 0.220000 0.573615
v 0.348690 0.220000 0.572114
v 0.351159 0.220000 0.570603
v 0.353620 0.220000 0.569081
v 0.356075 0.220000 0.567548
v 0.358524 0.220000 0.566004
v 0.360966 0.220000 0.564450
v 0.363401 0.220000 0.562885
v 0.365829 0.220000 0.561310
v 0.368250 0.220000 0.559725
v 0.370665 0.220000 0.558129
v 0.373073 0.220000 0.556522
v 0.372744 0.220000 0.556752
v 0.372425 0.220000 0.556995
v 0.372117 0.220000 0.557250
v 0.371818 0.220000 0.557517
v 0.371531 0.220000 0.557796
v 0.371255 0.220000 0.558087
v 0.370991 0.220000 0.558388
v 0.370739 0.220000 0.558700
v 0.370500 0.220000 0.559021
v 0.370274 0.220000 0.559352
v 0.370061 0.220000 0.559691
v 0.369862 0.220000 0.560039
v 0.369677 0.220000 0.560394
v 0.369507 0.220000 0.560757
v 0.369351 0.220000 0.561126
v 0.369210 0.220000 0.561501
v 0.369085 0.220000 0.561882
v 0.368974 0.220000 0.562267
v 0.368880 0.220000 0.562656
v 0.368800 0.220000 0.563049
v 0.368737 0.220000 0.563444
v 0.368690 0.220000 0.563842
v 0.368658 0.220000 0.564242
v 0.368642 0.220000 0.564642
v 0.368643 0.220000 0.565042
v 0.368660 0.220000 0.565443
v 0.368692 0.220000 0.565842
v 0.368741 0.220000 0.566240
v 0.368805 0.220000 0.566635
v 0.368886 0.220000 0.567028
v 0.368981 0.220000 0.567417
v 0.382835 0.220000 0.619117
v 0.382935 0.220000 0.619527
v 0.383018 0.220000 0.619941
v 0.383084 0.220000 0.620358
v 0.383132 0.220000 0.620777
v 0.383162 0.220000 0.621199
v 0.383175 0.220000 0.621621
v 0.383170 0.220000 0.622043
v 0.383146 0.220000 0.622464
v 0.383105 0.220000 0.622885
v 0.383047 0.220000 0.623303
v 0.382971 0.220000 0.623718
v 0.382877 0.220000 0.624130
v 0.382766 0.220000 0.624537
v 0.382638 0.220000 0.624939
v 0.382493 0.220000 0.625336
v 0.382331 0.220000 0.625726
v 0.382153 0.220000 0.626109
v 0.381959 0.220000 0.626484
v 0.381750 0.220000 0.626851
v 0.381525 0.220000 0.627208
v 0.381285 0.220000 0.627556
v 0.381031 0.220000 0.627893
v 0.380763 0.220000 0.628219
v 0.380481 0.220000 0.628533
v 0.380186 0.220000 0.628836
v 0.379879 0.220000 0.629125
v 0.379560 0.220000 0.629402
v 0.379229 0.220000 0.629664
v 0.378888 0.220000 0.629913
v 0.378536 0.220000 0.630147
v 0.378175 0.220000 0.630365
v 0.356825 0.220000 0.642692
v 0.356455 0.220000 0.642895
v 0.356076 0.220000 0.643083
v 0.355691 0.220000 0.643254
v 0.355298 0.220000 0.643409
v 0.354899 0.220000 0.643548
v 0.354494 0.220000 0.643669
v 0.354085 0.220000 0.643773
v 0.353672 0.220000 0.643860
v 0.353255 0.220000 0.643929
v 0.352836 0.220000 0.643980
v 0.352416 0.220000 0.644014
v 0.351994 0.220000 0.644030
v 0.351571 0.220000 0.644029
v 0.351150 0.220000 0.644009
v 0.350729 0.220000 0.643972
v 0.350310 0.220000 0.643916
v 0.349895 0.220000 0.643844
v 0.349482 0.220000 0.643754
v 0.349074 0.220000 0.643646
v 0.348670 0.220000 0.643521
v 0.348273 0.220000 0.643380
v 0.347881 0.220000 0.643221
v 0.347497 0.220000 0.643047
v 0.347120 0.220000 0.642856
v 0.346752 0.220000 0.642650
v 0.346393 0.220000 0.642428
v 0.346043 0.220000 0.642191
v 0.345704 0.220000 0.641940
v 0.345375 0.220000 0.641674
v 0.345058 0.220000 0.641395
f 158 1 2
f 32 33 34
f 31 32 34
f 30 31 34
f 29 30 34
f 28 29 34
f 27 28 34
f 26 27 34
f 25 26 34
f 24 25 34
f 23 24 34
f 22 23 34
f 21 22 34
f 20 21 34
f 19 20 34
f 19 34 35
f 18 19 35
f 17 18 35
f 16 17 35
f 15 16 35
f 14 15 35
f 13 14 35
f 12 13 35
f 11 12 35
f 10 11 35
f 9 10 35
f 8 9 35
f 7 8 35
f 7 35 36
f 6 7 36
f 5 6 36
f 4 5 36
f 3 4 36
f 2 3 36
f 158 2 36
f 158 36 37
f 158 37 38
f 158 38 39
f 158 39 40
f 158 40 41
f 158 41 42
f 158 42 43
f 158 43 44
f 158 44 45
f 158 45 46
f 158 46 47
f 158 47 48
f 158 48 49
f 158 49 50
f 158 50 51
f 158 51 52
f 158 52 53
f 158 53 54
f 158 54 55
f 158 55 56
f 158 56 57
f 158 57 58
f 158 58 59
f 158 59 60
f 158 60 61
f 158 61 62
f 63 64 65
f 63 65 66
f 62 63 66
f 62 66 67
f 62 67 68
f 62 68 69
f 62 69 70
f 62 70 71
f 62 71 72
f 62 72 73
f 62 73 74
f 62 74 75
f 62 75 76
f 62 76 77
f 62 77 78
f 62 78 79
f 62 79 80
f 62 80 81
f 158 62 81
f 158 81 82
f 158 82 83
f 158 83 84
f 158 84 85
f 158 85 86
f 158 86 87
f 158 87 88
f 158 88 89
f 158 89 90
f 158 90 91
f 158 91 92
f 158 92 93
f 158 93 94
f 158 94 95
f 158 95 96
f 158 96 97
f 158 97 98
f 158 98 99
f 158 99 100
f 158 100 101
f 158 101 102
f 158 102 103
f 158 103 104
f 158 104 105
f 158 105 106
f 158 106 107
f 158 107 108
f 158 108 109
f 158 109 110
f 158 110 111
f 158 111 112
f 158 112 113
f 158 113 114
f 158 114 115
f 158 115 116
f 158 116 117
f 158 117 118
f 158 118 119
f 158 119 120
f 158 120 121
f 158 121 122
f 158 122 123
f 158 123 124
f 158 124 125
f 158 125 126
f 158 126 127
f 158 127 128
f 158 128 129
f 158 129 130
f 158 130 131
f 158 131 132
f 158 132 133
f 158 133 134
f 158 134 135
f 158 135 136
f 158 136 137
f 158 137 138
f 158 138 139
f 158 139 140
f 158 140 141
f 158 141 142
f 158 142 143
f 158 143 144
f 158 144 145
f 158 145 146
f 158 146 147
f 158 147 148
f 158 148 149
f 158 149 150
f 158 150 151
f 158 151 152
f 158 152 153
f 158 153 154
f 158 154 155
f 158 155 156
f 156 157 158
