v 1.684247 1.110271 -5.460401
v 1.699136 1.109733 -5.466073
v 1.691694 1.110008 -5.463238
v 1.706573 1.109447 -5.468907
v 1.714005 1.109148 -5.471739
v 1.721433 1.108838 -5.474569
v 1.728857 1.108515 -5.477397
v 1.702055 1.108336 -5.444473
v 1.736276 1.108181 -5.480224
v 1.743691 1.107835 -5.483049
v 1.751101 1.107477 -5.485872
v 1.758508 1.107107 -5.488694
v 1.765910 1.106725 -5.491514
v 1.773309 1.106332 -5.494333
v 1.780704 1.105926 -5.497150
v 1.719827 1.105887 -5.428577
v 1.788094 1.105508 -5.499966
v 1.795482 1.105079 -5.502781
v 1.802865 1.104638 -5.505594
v 1.810245 1.104184 -5.508405
v 1.817622 1.103719 -5.511216
v 1.824995 1.103242 -5.514025
v 1.737556 1.102925 -5.412720
v 1.832364 1.102753 -5.516833
v 1.839730 1.102252 -5.519639
v 1.847092 1.101740 -5.522444
v 1.854449 1.101215 -5.525247
v 1.861801 1.100679 -5.528048
v 1.869148 1.100131 -5.530847
v 1.876490 1.099572 -5.533644
v 1.755233 1.099451 -5.396909
v 1.883826 1.099001 -5.536439
v 1.891155 1.098418 -5.539232
v 1.898479 1.097824 -5.542022
v 1.905795 1.097218 -5.544809
v 1.913105 1.096601 -5.547594
v 1.920407 1.095972 -5.550376
v 1.772851 1.095468 -5.381151
v 1.927701 1.095332 -5.553155
v 1.934987 1.094681 -5.555931
v 1.942265 1.094018 -5.558704
v 1.949534 1.093344 -5.561473
v 1.956794 1.092658 -5.564239
v 1.964045 1.091962 -5.567002
v 1.971287 1.091254 -5.569761
v 1.790400 1.090976 -5.365455
v 1.978520 1.090535 -5.572517
v 1.985743 1.089805 -5.575269
v 1.992958 1.089064 -5.578018
v 2.000164 1.088312 -5.580763
v 2.007362 1.087548 -5.583505
v 2.014551 1.086773 -5.586244
v 2.021731 1.085988 -5.588980
v 1.807873 1.085979 -5.349826
v 2.028903 1.085191 -5.591712
v 2.036067 1.084382 -5.594442
v 2.043222 1.083563 -5.597168
v 2.050369 1.082733 -5.599891
v 2.057509 1.081892 -5.602611
v 2.064640 1.081039 -5.605328
v 1.825262 1.080478 -5.334273
v 2.071763 1.080176 -5.608042
v 2.078878 1.079301 -5.610753
v 2.085986 1.078416 -5.613461
v 2.088871 1.076642 -5.606396
v 2.091723 1.074827 -5.599323
v 1.842559 1.074475 -5.318802
v 2.094544 1.072970 -5.592243
v 2.097333 1.071073 -5.585155
v 2.100090 1.069134 -5.578058
v 1.859755 1.067975 -5.303422
v 2.102815 1.067154 -5.570952
v 2.105507 1.065132 -5.563837
v 2.108168 1.063069 -5.556712
v 1.876843 1.060979 -5.288138
v 2.110797 1.060965 -5.549577
v 2.113394 1.058819 -5.542433
v 2.115959 1.056631 -5.535278
v 2.118491 1.054401 -5.528112
v 1.893815 1.053491 -5.272958
v 2.120992 1.052130 -5.520935
v 2.123460 1.049816 -5.513746
v 2.125896 1.047461 -5.506546
v 1.910663 1.045514 -5.257889
v 2.128300 1.045064 -5.499334
v 2.130672 1.042624 -5.492109
v 2.133012 1.040143 -5.484872
v 2.135319 1.037619 -5.477621
v 1.927378 1.037052 -5.242938
v 2.137594 1.035054 -5.470359
v 2.139836 1.032448 -5.463086
v 2.142045 1.029802 -5.455805
v 1.943954 1.028110 -5.228112
v 2.144219 1.027117 -5.448517
v 2.146360 1.024394 -5.441223
v 2.148466 1.021634 -5.433926
v 2.150537 1.018838 -5.426626
v 1.960383 1.018690 -5.213418
v 2.152573 1.016006 -5.419327
v 2.154573 1.013140 -5.412029
v 2.156537 1.010240 -5.404734
v 1.976657 1.008798 -5.198862
v 2.158464 1.007307 -5.397444
v 2.160354 1.004342 -5.390160
v 2.162207 1.001347 -5.382884
v 1.992768 0.998439 -5.184452
v 2.164021 0.998321 -5.375618
v 2.165798 0.995266 -5.368364
v 2.167536 0.992183 -5.361123
v 2.169235 0.989072 -5.353896
v 2.008709 0.987616 -5.170194
v 2.170894 0.985935 -5.346686
v 2.172514 0.982772 -5.339494
v 2.174095 0.979583 -5.332318
v 2.175636 0.976369 -5.325160
v 2.024472 0.976335 -5.156094
v 2.177139 0.973129 -5.318017
v 2.178604 0.969864 -5.310890
v 2.180030 0.966574 -5.303779
v 2.040051 0.964601 -5.142160
v 2.181419 0.963259 -5.296682
v 2.182770 0.959920 -5.289599
v 2.184084 0.956556 -5.282531
v 2.185361 0.953167 -5.275476
v 2.055438 0.952420 -5.128398
v 2.186602 0.949754 -5.268434
v 2.187807 0.946318 -5.261405
v 2.188976 0.942857 -5.254388
v 2.070626 0.939797 -5.114813
v 2.190109 0.939373 -5.247383
v 2.191207 0.935865 -5.240389
v 2.192270 0.932334 -5.233406
v 2.193298 0.928780 -5.226434
v 2.085608 0.926739 -5.101413
v 2.194292 0.925202 -5.219471
v 2.194897 0.922976 -5.215173
v 2.195507 0.920724 -5.210861
v 2.196122 0.918445 -5.206536
v 2.196742 0.916139 -5.202196
v 2.197367 0.913807 -5.197843
v 2.100376 0.913250 -5.088204
v 2.197997 0.911447 -5.193477
v 2.198632 0.909060 -5.189098
v 2.199272 0.906645 -5.184707
v 2.199917 0.904203 -5.180303
v 2.200567 0.901732 -5.175888
v 2.114925 0.899338 -5.075191
v 2.201222 0.899233 -5.171460
v 2.201881 0.896706 -5.167021
v 2.202546 0.894150 -5.162571
v 2.203215 0.891565 -5.158110
v 2.203890 0.888951 -5.153638
v 2.204569 0.886308 -5.149156
v 2.129247 0.885009 -5.062381
v 2.205253 0.883635 -5.144663
v 2.205942 0.880933 -5.140161
v 2.206636 0.878200 -5.135649
v 2.207334 0.875437 -5.131128
v 2.208038 0.872643 -5.126597
v 2.143336 0.870269 -5.049780
v 2.208746 0.869818 -5.122057
v 2.209460 0.866961 -5.117508
v 2.210178 0.864072 -5.112949
v 2.210901 0.861150 -5.108381
v 2.211629 0.858195 -5.103805
v 2.212362 0.855206 -5.099219
v 2.157184 0.855126 -5.037393
v 2.213101 0.852184 -5.094624
v 2.213844 0.849127 -5.090021
v 2.214592 0.846035 -5.085409
v 2.215345 0.842908 -5.080788
v 2.216103 0.839744 -5.076158
v 2.170787 0.839586 -5.025227
v 2.216867 0.836545 -5.071520
v 2.217635 0.833308 -5.066874
v 2.218409 0.830035 -5.062219
v 2.219187 0.826724 -5.057555
v 2.184137 0.823657 -5.013286
v 2.219971 0.823374 -5.052884
v 2.220760 0.819986 -5.048204
v 2.221554 0.816559 -5.043517
v 2.222353 0.813093 -5.038823
v 2.223157 0.809588 -5.034122
v 2.197228 0.807345 -5.001577
v 2.223965 0.806042 -5.029415
v 2.224779 0.802457 -5.024702
v 2.225597 0.798831 -5.019984
v 2.226420 0.795165 -5.015262
v 2.227247 0.791458 -5.010536
v 2.210054 0.790660 -4.990105
v 2.228079 0.787709 -5.005806
v 2.228915 0.783919 -5.001072
v 2.229756 0.780086 -4.996336
v 2.230601 0.776212 -4.991598
v 2.222610 0.773607 -4.978875
v 2.231451 0.772295 -4.986858
v 2.232304 0.768335 -4.982117
v 2.233162 0.764332 -4.977376
v 2.234023 0.760286 -4.972634
v 2.234889 0.756196 -4.967892
f 1 2 3
f 1 4 2
f 1 5 4
f 1 6 5
f 1 7 6
f 1 8 7
f 8 9 7
f 8 10 9
f 8 11 10
f 8 12 11
f 8 13 12
f 8 14 13
f 8 15 14
f 8 16 15
f 16 17 15
f 16 18 17
f 16 19 18
f 16 20 19
f 16 21 20
f 16 22 21
f 16 23 22
f 23 24 22
f 23 25 24
f 23 26 25
f 23 27 26
f 23 28 27
f 23 29 28
f 23 30 29
f 23 31 30
f 31 32 30
f 31 33 32
f 31 34 33
f 31 35 34
f 31 36 35
f 31 37 36
f 31 38 37
f 38 39 37
f 38 40 39
f 38 41 40
f 38 42 41
f 38 43 42
f 38 44 43
f 38 45 44
f 38 46 45
f 46 47 45
f 46 48 47
f 46 49 48
f 46 50 49
f 46 51 50
f 46 52 51
f 46 53 52
f 46 54 53
f 54 55 53
f 54 56 55
f 54 57 56
f 54 58 57
f 54 59 58
f 54 60 59
f 54 61 60
f 61 62 60
f 61 63 62
f 61 64 63
f 61 65 64
f 61 66 65
f 61 67 66
f 67 68 66
f 67 69 68
f 67 70 69
f 67 71 70
f 71 72 70
f 71 73 72
f 71 74 73
f 71 75 74
f 75 76 74
f 75 77 76
f 75 78 77
f 75 79 78
f 75 80 79
f 80 81 79
f 80 82 81
f 80 83 82
f 80 84 83
f 84 85 83
f 84 86 85
f 84 87 86
f 84 88 87
f 84 89 88
f 89 90 88
f 89 91 90
f 89 92 91
f 89 93 92
f 93 94 92
f 93 95 94
f 93 96 95
f 93 97 96
f 93 98 97
f 98 99 97
f 98 100 99
f 98 101 100
f 98 102 101
f 102 103 101
f 102 104 103
f 102 105 104
f 102 106 105
f 106 107 105
f 106 108 107
f 106 109 108
f 106 110 109
f 106 111 110
f 111 112 110
f 111 113 112
f 111 114 113
f 111 115 114
f 111 116 115
f 116 117 115
f 116 118 117
f 116 119 118
f 116 120 119
f 120 121 119
f 120 122 121
f 120 123 122
f 120 124 123
f 120 125 124
f 125 126 124
f 125 127 126
f 125 128 127
f 125 129 128
f 129 130 128
f 129 131 130
f 129 132 131
f 129 133 132
f 129 134 133
f 134 135 133
f 134 136 135
f 134 137 136
f 134 138 137
f 134 139 138
f 134 140 139
f 134 141 140
f 141 142 140
f 141 143 142
f 141 144 143
f 141 145 144
f 141 146 145
f 141 147 146
f 147 148 146
f 147 149 148
f 147 150 149
f 147 151 150
f 147 152 151
f 147 153 152
f 147 154 153
f 154 155 153
f 154 156 155
f 154 157 156
f 154 158 157
f 154 159 158
f 154 160 159
f 160 161 159
f 160 162 161
f 160 163 162
f 160 164 163
f 160 165 164
f 160 166 165
f 160 167 166
f 167 168 166
f 167 169 168
f 167 170 169
f 167 171 170
f 167 172 171
f 167 173 172
f 173 174 172
f 173 175 174
f 173 176 175
f 173 177 176
f 173 178 177
f 178 179 177
f 178 180 179
f 178 181 180
f 178 182 181
f 178 183 182
f 178 184 183
f 184 185 183
f 184 186 185
f 184 187 186
f 184 188 187
f 184 189 188
f 184 190 189
f 190 191 189
f 190 192 191
f 190 193 192
f 190 194 193
f 190 195 194
f 195 196 194
f 195 197 196
f 195 198 197
f 195 199 198
f 195 200 199
