v 1.185000 -1.109658 -5.486182
v 1.185000 -1.159802 -5.486182
v 1.185000 -1.160822 -5.471143
v 1.185000 -1.161646 -5.456093
v 1.185000 -1.162276 -5.441033
v 1.185000 -1.162710 -5.425967
v 1.185000 -1.162949 -5.410895
v 1.185000 -1.162992 -5.395823
v 1.185000 -1.162841 -5.380750
v 1.185000 -1.162494 -5.365681
v 1.185000 -1.161951 -5.350618
v 1.185000 -1.161214 -5.335563
v 1.185000 -1.160281 -5.320519
v 1.185000 -1.159153 -5.305489
v 1.185000 -1.157831 -5.290474
v 1.185000 -1.156314 -5.275477
v 1.185000 -1.154604 -5.260502
v 1.185000 -1.152699 -5.245550
v 1.185000 -1.150600 -5.230624
v 1.185000 -1.148308 -5.215726
v 1.185000 -1.145824 -5.200859
v 1.185000 -1.143147 -5.186026
v 1.185000 -1.140277 -5.171229
v 1.185000 -1.137217 -5.156470
v 1.185000 -1.133965 -5.141752
v 1.185000 -1.130523 -5.127077
v 1.185000 -1.126891 -5.112448
v 1.185000 -1.123070 -5.097868
v 1.185000 -1.119060 -5.083338
v 1.185000 -1.114862 -5.068861
v 1.185000 -1.110476 -5.054441
v 1.185000 -1.105905 -5.040078
v 1.185000 -1.101147 -5.025775
v 1.185000 -1.096205 -5.011536
v 1.185000 -1.091078 -4.997361
v 1.185000 -1.085768 -4.983255
v 1.185000 -1.080276 -4.969218
v 1.185000 -1.074602 -4.955254
v 1.185000 -1.068748 -4.941364
v 1.185000 -1.062714 -4.927551
v 1.185000 -1.056502 -4.913818
v 1.185000 -1.001197 -4.913818
v 1.185000 -1.007707 -4.927458
v 1.185000 -1.014030 -4.941184
v 1.185000 -1.020167 -4.954995
v 1.185000 -1.026115 -4.968889
v 1.185000 -1.031874 -4.982861
v 1.185000 -1.037443 -4.996911
v 1.185000 -1.042821 -5.011035
v 1.185000 -1.048006 -5.025230
v 1.185000 -1.052998 -5.039495
v 1.185000 -1.057796 -5.053826
v 1.185000 -1.062399 -5.068221
v 1.185000 -1.066806 -5.082677
v 1.185000 -1.071017 -5.097192
v 1.185000 -1.075029 -5.111763
v 1.185000 -1.078844 -5.126386
v 1.185000 -1.082460 -5.141060
v 1.185000 -1.085876 -5.155782
v 1.185000 -1.089092 -5.170549
v 1.185000 -1.092107 -5.185358
v 1.185000 -1.094921 -5.200207
v 1.185000 -1.097533 -5.215093
v 1.185000 -1.099942 -5.230013
v 1.185000 -1.102149 -5.244964
v 1.185000 -1.104153 -5.259943
v 1.185000 -1.105953 -5.274949
v 1.185000 -1.107549 -5.289977
v 1.185000 -1.108940 -5.305026
v 1.185000 -1.110128 -5.320092
v 1.185000 -1.111110 -5.335173
v 1.185000 -1.111888 -5.350266
v 1.185000 -1.112461 -5.365369
v 1.185000 -1.112829 -5.380477
v 1.185000 -1.112991 -5.395589
v 1.185000 -1.112949 -5.410702
v 1.185000 -1.112701 -5.425813
v 1.185000 -1.112248 -5.440919
v 1.185000 -1.111589 -5.456018
v 1.185000 -1.110726 -5.471107
f 2 3 1
f 3 80 1
f 3 4 80
f 4 79 80
f 4 5 79
f 5 78 79
f 5 6 78
f 6 77 78
f 6 7 77
f 7 76 77
f 7 8 76
f 8 75 76
f 8 9 75
f 9 74 75
f 9 10 74
f 10 73 74
f 10 11 73
f 11 72 73
f 11 12 72
f 12 71 72
f 12 13 71
f 13 70 71
f 13 14 70
f 14 69 70
f 14 15 69
f 15 68 69
f 15 16 68
f 16 67 68
f 16 17 67
f 17 66 67
f 17 18 66
f 18 65 66
f 18 19 65
f 19 64 65
f 19 20 64
f 20 63 64
f 20 21 63
f 21 62 63
f 21 22 62
f 22 61 62
f 22 23 61
f 23 60 61
f 23 24 60
f 24 59 60
f 24 25 59
f 25 58 59
f 25 26 58
f 26 57 58
f 26 27 57
f 27 56 57
f 27 28 56
f 28 55 56
f 28 29 55
f 29 54 55
f 29 30 54
f 30 53 54
f 30 31 53
f 31 52 53
f 31 32 52
f 32 51 52
f 32 33 51
f 33 50 51
f 33 34 50
f 34 49 50
f 34 35 49
f 35 48 49
f 35 36 48
f 36 47 48
f 36 37 47
f 37 46 47
f 37 38 46
f 38 45 46
f 38 39 45
f 39 44 45
f 39 40 44
f 40 43 44
f 40 41 43
f 41 42 43
