v 1.635819 0.000000 0.212688
v 1.179766 0.000000 -0.102506
v 1.179759 -0.003382 -0.102511
v 1.179738 -0.006760 -0.102525
v 1.179703 -0.010135 -0.102550
v 1.179654 -0.013505 -0.102583
v 1.179591 -0.016872 -0.102627
v 1.179515 -0.020235 -0.102680
v 1.179424 -0.023594 -0.102743
v 1.179319 -0.026950 -0.102815
v 1.179201 -0.030302 -0.102897
v 1.179069 -0.033651 -0.102988
v 1.178923 -0.036997 -0.103089
v 1.178763 -0.040339 -0.103200
v 1.178589 -0.043677 -0.103320
v 1.178402 -0.047013 -0.103449
v 1.178200 -0.050345 -0.103588
v 1.177986 -0.053675 -0.103737
v 1.177757 -0.057001 -0.103895
v 1.177515 -0.060324 -0.104062
v 1.177259 -0.063645 -0.104239
v 1.176989 -0.066962 -0.104425
v 1.176706 -0.070276 -0.104621
v 1.176410 -0.073587 -0.104826
v 1.176100 -0.076894 -0.105040
v 1.175776 -0.080198 -0.105264
v 1.175439 -0.083497 -0.105497
v 1.175089 -0.086793 -0.105739
v 1.174725 -0.090084 -0.105990
v 1.174348 -0.093371 -0.106251
v 1.173957 -0.096653 -0.106521
v 1.173554 -0.099930 -0.106800
v 1.173137 -0.103202 -0.107088
v 1.172707 -0.106469 -0.107385
v 1.172264 -0.109730 -0.107691
v 1.171808 -0.112986 -0.108007
v 1.171338 -0.116236 -0.108331
v 1.170856 -0.119481 -0.108664
v 1.170361 -0.122719 -0.109007
v 1.169853 -0.125950 -0.109358
v 1.169331 -0.129176 -0.109718
v 1.168797 -0.132396 -0.110087
v 1.168250 -0.135609 -0.110465
v 1.167690 -0.138817 -0.110853
v 1.167117 -0.142018 -0.111249
v 1.166531 -0.145214 -0.111654
v 1.165932 -0.148404 -0.112068
v 1.165320 -0.151588 -0.112491
v 1.164695 -0.154767 -0.112923
v 1.164057 -0.157940 -0.113364
v 1.163406 -0.161107 -0.113813
v 1.162742 -0.164269 -0.114272
v 1.162065 -0.167426 -0.114740
v 1.161375 -0.170577 -0.115217
v 1.160672 -0.173723 -0.115703
v 1.159957 -0.176864 -0.116197
v 1.159228 -0.180000 -0.116701
v 1.635819 -0.180000 0.212688
f 58 1 2
f 58 2 3
f 58 3 4
f 58 4 5
f 58 5 6
f 58 6 7
f 58 7 8
f 58 8 9
f 58 9 10
f 58 10 11
f 58 11 12
f 58 12 13
f 58 13 14
f 58 14 15
f 58 15 16
f 58 16 17
f 58 17 18
f 58 18 19
f 58 19 20
f 58 20 21
f 58 21 22
f 58 22 23
f 58 23 24
f 58 24 25
f 58 25 26
f 58 26 27
f 58 27 28
f 58 28 29
f 58 29 30
f 58 30 31
f 58 31 32
f 58 32 33
f 58 33 34
f 58 34 35
f 58 35 36
f 58 36 37
f 58 37 38
f 58 38 39
f 58 39 40
f 58 40 41
f 58 41 42
f 58 42 43
f 58 43 44
f 58 44 45
f 58 45 46
f 58 46 47
f 58 47 48
f 58 48 49
f 58 49 50
f 58 50 51
f 58 51 52
f 58 52 53
f 58 53 54
f 58 54 55
f 58 55 56
f 56 57 58
