v -3.012500 -0.350000 -4.290915
v -3.012500 -0.358224 -4.293544
v -3.012500 -0.366428 -4.296234
v -3.012500 -0.374612 -4.298985
v -3.012500 -0.382775 -4.301796
v -3.012500 -0.390917 -4.304668
v -3.012500 -0.399038 -4.307600
v -3.012500 -0.407136 -4.310592
v -3.012500 -0.415213 -4.313645
v -3.012500 -0.423266 -4.316757
v -3.012500 -0.431296 -4.319929
v -3.012500 -0.439302 -4.323161
v -3.012500 -0.447284 -4.326452
v -3.012500 -0.455241 -4.329802
v -3.012500 -0.463174 -4.333211
v -3.012500 -0.471080 -4.336679
v -3.012500 -0.478961 -4.340205
v -3.012500 -0.486815 -4.343790
v -3.012500 -0.494643 -4.347433
v -3.012500 -0.502443 -4.351134
v -3.012500 -0.510216 -4.354893
v -3.012500 -0.517960 -4.358709
v -3.012500 -0.525676 -4.362583
v -3.012500 -0.533363 -4.366514
v -3.012500 -0.541021 -4.370502
v -3.012500 -0.548648 -4.374547
v -3.012500 -0.556246 -4.378648
v -3.012500 -0.563813 -4.382806
v -3.012500 -0.571348 -4.387019
v -3.012500 -0.578853 -4.391289
v -3.012500 -0.586325 -4.395614
v -3.012500 -0.593765 -4.399994
v -3.012500 -0.601173 -4.404430
v -3.012500 -0.608547 -4.408920
v -3.012500 -0.615887 -4.413465
v -3.012500 -0.623194 -4.418064
v -3.012500 -0.630467 -4.422718
v -3.012500 -0.637704 -4.427425
v -3.012500 -0.644907 -4.432186
v -3.012500 -0.652074 -4.437000
v -3.012500 -0.350000 -4.437000
f 1 2 3
f 1 3 4
f 1 4 5
f 1 5 6
f 1 6 7
f 1 7 8
f 1 8 9
f 1 9 10
f 1 10 11
f 1 11 12
f 1 12 13
f 1 13 14
f 1 14 15
f 1 15 16
f 1 16 17
f 1 17 18
f 1 18 19
f 1 19 20
f 1 20 21
f 1 21 22
f 1 22 23
f 1 23 24
f 1 24 25
f 1 25 26
f 1 26 27
f 1 27 28
f 1 28 29
f 1 29 30
f 1 30 31
f 1 31 32
f 1 32 33
f 1 33 34
f 1 34 35
f 1 35 36
f 1 36 37
f 1 37 38
f 1 38 39
f 1 39 40
f 1 40 41
