v 2.225862 -0.565914 -5.791251
v 2.227238 -0.566481 -5.797755
v 2.226586 -0.566201 -5.794495
v 2.227818 -0.566753 -5.801029
v 2.228325 -0.567016 -5.804316
v 2.228759 -0.567271 -5.807614
v 2.229120 -0.567518 -5.810921
v 2.229407 -0.567756 -5.814236
v 2.229622 -0.567985 -5.817558
v 2.229763 -0.568205 -5.820884
v 2.229830 -0.568416 -5.824212
v 2.224521 -0.575859 -5.790742
v 2.223062 -0.585476 -5.790583
v 2.221491 -0.594780 -5.790755
v 2.219815 -0.603790 -5.791239
v 2.218042 -0.612522 -5.792018
v 2.216176 -0.620981 -5.793076
v 2.214223 -0.629155 -5.794410
v 2.212188 -0.637034 -5.796013
v 2.210075 -0.644606 -5.797879
v 2.207890 -0.651861 -5.800002
v 2.228346 -0.578787 -5.821853
v 2.228336 -0.578852 -5.821838
v 2.226620 -0.588698 -5.819442
v 2.226597 -0.588820 -5.819411
v 2.224687 -0.598149 -5.816993
v 2.224649 -0.598323 -5.816946
v 2.222577 -0.607149 -5.814521
v 2.222522 -0.607368 -5.814459
v 2.220320 -0.615708 -5.812039
v 2.220248 -0.615968 -5.811961
v 2.217946 -0.623830 -5.809560
v 2.217855 -0.624125 -5.809467
v 2.215485 -0.631509 -5.807101
v 2.215377 -0.631833 -5.806994
v 2.212970 -0.638739 -5.804678
v 2.212844 -0.639086 -5.804559
v 2.210428 -0.645522 -5.802307
v 2.210287 -0.645886 -5.802177
v 2.229743 -0.568811 -5.830872
v 2.229823 -0.568618 -5.827542
v 2.229590 -0.568994 -5.834200
v 2.229362 -0.569168 -5.837524
v 2.229062 -0.569333 -5.840842
v 2.228688 -0.569488 -5.844154
v 2.228241 -0.569633 -5.847457
v 2.227721 -0.569769 -5.850749
v 2.227129 -0.569895 -5.854030
v 2.226464 -0.570011 -5.857297
v 2.205637 -0.658787 -5.802377
v 2.203321 -0.665374 -5.804997
v 2.200946 -0.671611 -5.807856
v 2.198516 -0.677489 -5.810949
v 2.196039 -0.682994 -5.814266
v 2.193523 -0.688111 -5.817790
v 2.190980 -0.692826 -5.821505
v 2.188418 -0.697123 -5.825394
v 2.185850 -0.700987 -5.829438
v 2.183283 -0.704413 -5.833620
v 2.224989 -0.580866 -5.856379
v 2.224979 -0.580934 -5.856373
v 2.223272 -0.591287 -5.855349
v 2.223249 -0.591416 -5.855335
v 2.221344 -0.601271 -5.854223
v 2.221306 -0.601455 -5.854201
v 2.219237 -0.610822 -5.853017
v 2.219182 -0.611055 -5.852986
v 2.216977 -0.619948 -5.851743
v 2.216904 -0.620226 -5.851702
v 2.214594 -0.628647 -5.850415
v 2.214503 -0.628964 -5.850365
v 2.212119 -0.636909 -5.849050
v 2.212009 -0.637259 -5.848990
v 2.209582 -0.644725 -5.847661
v 2.209455 -0.645101 -5.847592
v 2.207014 -0.652090 -5.846265
v 2.206870 -0.652486 -5.846187
v 2.204441 -0.659002 -5.844874
v 2.204284 -0.659412 -5.844789
v 2.201890 -0.665465 -5.843501
v 2.201721 -0.665882 -5.843410
v 2.199385 -0.671484 -5.842158
v 2.199206 -0.671902 -5.842062
v 2.196947 -0.677064 -5.840856
v 2.196761 -0.677478 -5.840756
v 2.194596 -0.682213 -5.839603
v 2.194406 -0.682619 -5.839503
v 2.192350 -0.686939 -5.838411
v 2.192159 -0.687333 -5.838309
v 2.190229 -0.691247 -5.837286
v 2.190040 -0.691624 -5.837186
v 2.188247 -0.695143 -5.836238
v 2.188064 -0.695498 -5.836141
v 2.186421 -0.698631 -5.835274
v 2.186247 -0.698960 -5.835182
v 2.184764 -0.701717 -5.834400
v 2.184602 -0.702015 -5.834315
v 2.224920 -0.570213 -5.863785
v 2.225728 -0.570117 -5.860549
v 2.224040 -0.570299 -5.867002
v 2.223090 -0.570376 -5.870199
v 2.222070 -0.570442 -5.873374
v 2.220980 -0.570498 -5.876527
v 2.219820 -0.570543 -5.879655
v 2.218592 -0.570579 -5.882757
v 2.217296 -0.570605 -5.885830
v 2.215932 -0.570620 -5.888875
v 2.214502 -0.570625 -5.891889
v 2.213005 -0.570620 -5.894871
v 2.211443 -0.570605 -5.897819
v 2.209817 -0.570579 -5.900732
v 2.208127 -0.570543 -5.903608
v 2.206374 -0.570498 -5.906446
v 2.204559 -0.570442 -5.909245
v 2.202683 -0.570376 -5.912003
v 2.200747 -0.570299 -5.914719
v 2.198751 -0.570213 -5.917391
v 2.196698 -0.570117 -5.920018
v 2.180728 -0.707401 -5.837919
v 2.178193 -0.709953 -5.842314
v 2.175689 -0.712068 -5.846785
v 2.173223 -0.713750 -5.851313
v 2.170799 -0.715004 -5.855889
v 2.168421 -0.715840 -5.860501
v 2.166093 -0.716265 -5.865140
v 2.163816 -0.716286 -5.869796
v 2.161595 -0.715903 -5.874464
v 2.159431 -0.715111 -5.879144
v 2.157324 -0.713900 -5.883836
v 2.155277 -0.712264 -5.888539
v 2.153291 -0.710196 -5.893251
v 2.151377 -0.707691 -5.897953
v 2.195178 -0.581004 -5.919281
v 2.195168 -0.581072 -5.919276
v 2.193416 -0.591458 -5.918425
v 2.193393 -0.591587 -5.918414
v 2.191445 -0.601476 -5.917467
v 2.191407 -0.601661 -5.917448
v 2.189295 -0.611062 -5.916421
v 2.189239 -0.611297 -5.916394
v 2.186994 -0.620223 -5.915302
v 2.186920 -0.620502 -5.915266
v 2.184569 -0.628959 -5.914122
v 2.184477 -0.629277 -5.914077
v 2.182054 -0.637257 -5.912897
v 2.181943 -0.637609 -5.912843
v 2.179478 -0.645109 -5.911643
v 2.179349 -0.645487 -5.911580
v 2.176870 -0.652509 -5.910374
v 2.176725 -0.652907 -5.910303
v 2.174260 -0.659456 -5.909103
v 2.174101 -0.659868 -5.909025
v 2.171674 -0.665953 -5.907843
v 2.171502 -0.666372 -5.907759
v 2.169134 -0.672004 -5.906605
v 2.168952 -0.672424 -5.906517
v 2.166663 -0.677615 -5.905402
v 2.166474 -0.678032 -5.905310
v 2.164280 -0.682794 -5.904241
v 2.164088 -0.683203 -5.904147
v 2.162006 -0.687548 -5.903133
v 2.161812 -0.687944 -5.903038
v 2.159857 -0.691882 -5.902086
v 2.159665 -0.692262 -5.901992
v 2.157850 -0.695802 -5.901108
v 2.157664 -0.696160 -5.901017
v 2.156001 -0.699313 -5.900207
v 2.155824 -0.699643 -5.900121
v 2.154322 -0.702419 -5.899389
v 2.154159 -0.702718 -5.899309
v 2.152823 -0.705132 -5.898659
v 2.152676 -0.705395 -5.898587
v 2.151508 -0.707468 -5.898018
v 2.192419 -0.569895 -5.925133
v 2.194587 -0.570011 -5.922599
v 2.190197 -0.569769 -5.927618
v 2.187921 -0.569633 -5.930053
v 2.185592 -0.569488 -5.932437
v 2.183211 -0.569333 -5.934769
v 2.180779 -0.569168 -5.937047
v 2.178298 -0.568994 -5.939271
v 2.175769 -0.568811 -5.941439
v 2.173193 -0.568618 -5.943550
v 2.149547 -0.704748 -5.902623
v 2.147813 -0.701362 -5.907239
v 2.146187 -0.697532 -5.911777
v 2.144678 -0.693261 -5.916217
v 2.143295 -0.688564 -5.920539
v 2.142046 -0.683458 -5.924723
v 2.140937 -0.677958 -5.928750
v 2.139976 -0.672080 -5.932602
v 2.139167 -0.665837 -5.936267
v 2.138512 -0.659239 -5.939737
v 2.170583 -0.579055 -5.943742
v 2.170565 -0.579120 -5.943743
v 2.167775 -0.589036 -5.943780
v 2.167739 -0.589159 -5.943780
v 2.164805 -0.598562 -5.943682
v 2.164748 -0.598737 -5.943679
v 2.161702 -0.607641 -5.943464
v 2.161622 -0.607862 -5.943457
v 2.158493 -0.616282 -5.943140
v 2.158391 -0.616544 -5.943128
v 2.155207 -0.624488 -5.942725
v 2.155083 -0.624787 -5.942708
v 2.151877 -0.632253 -5.942234
v 2.151731 -0.632581 -5.942211
v 2.148535 -0.639570 -5.941680
v 2.148369 -0.639922 -5.941651
v 2.145210 -0.646441 -5.941078
v 2.145027 -0.646810 -5.941043
v 2.141931 -0.652866 -5.940441
v 2.141732 -0.653246 -5.940401
v 2.138723 -0.658853 -5.939780
v 2.167906 -0.568205 -5.947598
v 2.170572 -0.568416 -5.945604
v 2.165197 -0.567985 -5.949533
v 2.162446 -0.567756 -5.951407
v 2.159655 -0.567518 -5.953220
v 2.156826 -0.567271 -5.954970
v 2.153958 -0.567016 -5.956656
v 2.151055 -0.566753 -5.958278
v 2.148117 -0.566481 -5.959835
v 2.145146 -0.566201 -5.961326
v 2.142143 -0.565914 -5.962751
v 2.138013 -0.652296 -5.943005
v 2.137672 -0.645018 -5.946064
v 2.137491 -0.637417 -5.948905
v 2.137472 -0.629504 -5.951522
v 2.137616 -0.621291 -5.953907
v 2.137925 -0.612790 -5.956051
v 2.138400 -0.604012 -5.957947
v 2.139049 -0.594953 -5.959582
v 2.139882 -0.585595 -5.960939
v 2.140910 -0.575921 -5.962001
f 1 2 3
f 1 4 2
f 1 5 4
f 1 6 5
f 1 7 6
f 1 8 7
f 1 9 8
f 1 10 9
f 1 11 10
f 1 12 13
f 1 13 14
f 1 14 15
f 1 15 16
f 1 16 17
f 1 17 18
f 1 18 19
f 1 19 20
f 1 20 21
f 1 22 11
f 1 23 22
f 1 24 23
f 1 25 24
f 1 26 25
f 1 27 26
f 1 28 27
f 1 29 28
f 1 30 29
f 1 31 30
f 1 32 31
f 1 33 32
f 1 34 33
f 1 35 34
f 1 36 35
f 1 37 36
f 1 38 37
f 1 39 38
f 1 21 39
f 11 40 41
f 11 42 40
f 11 43 42
f 11 44 43
f 11 45 44
f 11 46 45
f 11 47 46
f 11 48 47
f 11 49 48
f 21 50 51
f 21 51 52
f 21 52 53
f 21 53 54
f 21 54 55
f 21 55 56
f 21 56 57
f 21 57 58
f 21 58 59
f 11 22 49
f 22 60 49
f 22 23 60
f 23 61 60
f 23 24 61
f 24 62 61
f 24 25 62
f 25 63 62
f 25 26 63
f 26 64 63
f 26 27 64
f 27 65 64
f 27 28 65
f 28 66 65
f 28 29 66
f 29 67 66
f 29 30 67
f 30 68 67
f 30 31 68
f 31 69 68
f 31 32 69
f 32 70 69
f 32 33 70
f 33 71 70
f 33 34 71
f 34 72 71
f 34 35 72
f 35 73 72
f 35 36 73
f 36 74 73
f 36 37 74
f 37 75 74
f 37 38 75
f 38 76 75
f 38 39 76
f 39 77 76
f 39 21 77
f 21 78 77
f 21 79 78
f 21 80 79
f 21 81 80
f 21 82 81
f 21 83 82
f 21 84 83
f 21 85 84
f 21 86 85
f 21 87 86
f 21 88 87
f 21 89 88
f 21 90 89
f 21 91 90
f 21 92 91
f 21 93 92
f 21 94 93
f 21 95 94
f 21 96 95
f 21 97 96
f 21 59 97
f 49 98 99
f 49 100 98
f 49 101 100
f 49 102 101
f 49 103 102
f 49 104 103
f 49 105 104
f 49 106 105
f 49 107 106
f 49 108 107
f 49 109 108
f 49 110 109
f 49 111 110
f 49 112 111
f 49 113 112
f 49 114 113
f 49 115 114
f 49 116 115
f 49 117 116
f 49 118 117
f 59 119 120
f 59 120 121
f 59 121 122
f 59 122 123
f 59 123 124
f 59 124 125
f 59 125 126
f 59 126 127
f 59 127 128
f 59 128 129
f 59 129 130
f 59 130 131
f 59 131 132
f 49 60 118
f 60 133 118
f 60 61 133
f 61 134 133
f 61 62 134
f 62 135 134
f 62 63 135
f 63 136 135
f 63 64 136
f 64 137 136
f 64 65 137
f 65 138 137
f 65 66 138
f 66 139 138
f 66 67 139
f 67 140 139
f 67 68 140
f 68 141 140
f 68 69 141
f 69 142 141
f 69 70 142
f 70 143 142
f 70 71 143
f 71 144 143
f 71 72 144
f 72 145 144
f 72 73 145
f 73 146 145
f 73 74 146
f 74 147 146
f 74 75 147
f 75 148 147
f 75 76 148
f 76 149 148
f 76 77 149
f 77 150 149
f 77 78 150
f 78 151 150
f 78 79 151
f 79 152 151
f 79 80 152
f 80 153 152
f 80 81 153
f 81 154 153
f 81 82 154
f 82 155 154
f 82 83 155
f 83 156 155
f 83 84 156
f 84 157 156
f 84 85 157
f 85 158 157
f 85 86 158
f 86 159 158
f 86 87 159
f 87 160 159
f 87 88 160
f 88 161 160
f 88 89 161
f 89 162 161
f 89 90 162
f 90 163 162
f 90 91 163
f 91 164 163
f 91 92 164
f 92 165 164
f 92 93 165
f 93 166 165
f 93 94 166
f 94 167 166
f 94 95 167
f 95 168 167
f 95 96 168
f 96 169 168
f 96 97 169
f 97 170 169
f 97 59 170
f 59 171 170
f 59 172 171
f 59 173 172
f 59 132 173
f 118 174 175
f 118 176 174
f 118 177 176
f 118 178 177
f 118 179 178
f 118 180 179
f 118 181 180
f 118 182 181
f 118 183 182
f 132 184 185
f 132 185 186
f 132 186 187
f 132 187 188
f 132 188 189
f 132 189 190
f 132 190 191
f 132 191 192
f 132 192 193
f 118 133 183
f 133 194 183
f 133 134 194
f 134 195 194
f 134 135 195
f 135 196 195
f 135 136 196
f 136 197 196
f 136 137 197
f 137 198 197
f 137 138 198
f 138 199 198
f 138 139 199
f 139 200 199
f 139 140 200
f 140 201 200
f 140 141 201
f 141 202 201
f 141 142 202
f 142 203 202
f 142 143 203
f 143 204 203
f 143 144 204
f 144 205 204
f 144 145 205
f 145 206 205
f 145 146 206
f 146 207 206
f 146 147 207
f 147 208 207
f 147 148 208
f 148 209 208
f 148 149 209
f 149 210 209
f 149 150 210
f 150 211 210
f 150 151 211
f 151 212 211
f 151 152 212
f 152 213 212
f 152 153 213
f 153 214 213
f 153 154 214
f 154 193 214
f 154 155 193
f 155 156 193
f 156 157 193
f 157 158 193
f 158 159 193
f 159 160 193
f 160 161 193
f 161 162 193
f 162 163 193
f 163 164 193
f 164 165 193
f 165 166 193
f 166 167 193
f 167 168 193
f 168 169 193
f 169 170 193
f 170 171 193
f 171 172 193
f 172 173 193
f 173 132 193
f 183 215 216
f 183 217 215
f 183 218 217
f 183 219 218
f 183 220 219
f 183 221 220
f 183 222 221
f 183 223 222
f 183 224 223
f 183 225 224
f 193 226 227
f 193 227 228
f 193 228 229
f 193 229 230
f 193 230 231
f 193 231 232
f 193 232 233
f 193 233 234
f 193 234 235
f 193 235 225
f 183 194 225
f 194 195 225
f 195 196 225
f 196 197 225
f 197 198 225
f 198 199 225
f 199 200 225
f 200 201 225
f 201 202 225
f 202 203 225
f 203 204 225
f 204 205 225
f 205 206 225
f 206 207 225
f 207 208 225
f 208 209 225
f 209 210 225
f 210 211 225
f 211 212 225
f 212 213 225
f 213 214 225
f 214 193 225
