v -0.630895 -0.184351 -1.087726
v -0.606885 -0.169088 -1.094996
v -0.606807 -0.169365 -1.094984
v -0.606731 -0.169640 -1.094963
v -0.606655 -0.169911 -1.094935
v -0.606580 -0.170179 -1.094899
v -0.606505 -0.170444 -1.094855
v -0.606432 -0.170707 -1.094802
v -0.606358 -0.170966 -1.094743
v -0.606286 -0.171224 -1.094675
v -0.606214 -0.171478 -1.094599
v -0.606142 -0.171730 -1.094516
v -0.606072 -0.171980 -1.094426
v -0.606001 -0.172228 -1.094327
v -0.605931 -0.172473 -1.094221
v -0.605862 -0.172717 -1.094108
v -0.605793 -0.172957 -1.093987
v -0.605725 -0.173195 -1.093859
v -0.605658 -0.173431 -1.093724
v -0.605592 -0.173663 -1.093582
v -0.605526 -0.173891 -1.093432
v -0.605461 -0.174116 -1.093276
v -0.605398 -0.174337 -1.093113
v -0.605335 -0.174554 -1.092943
v -0.605274 -0.174766 -1.092766
v -0.605214 -0.174974 -1.092582
v -0.605155 -0.175177 -1.092392
v -0.605098 -0.175375 -1.092195
v -0.605042 -0.175567 -1.091992
v -0.604988 -0.175754 -1.091782
v -0.604935 -0.175935 -1.091567
v -0.604884 -0.176111 -1.091346
v -0.604835 -0.176280 -1.091119
v -0.604787 -0.176444 -1.090887
v -0.604741 -0.176601 -1.090650
v -0.604697 -0.176752 -1.090409
v -0.604655 -0.176897 -1.090163
v -0.604615 -0.177035 -1.089913
v -0.604576 -0.177166 -1.089658
v -0.604539 -0.177291 -1.089401
v -0.604505 -0.177409 -1.089139
v -0.604472 -0.177519 -1.088875
v -0.604442 -0.177623 -1.088608
v -0.604414 -0.177720 -1.088338
v -0.604387 -0.177809 -1.088065
v -0.604363 -0.177891 -1.087789
v -0.604341 -0.177965 -1.087510
v -0.604322 -0.178032 -1.087227
v -0.604304 -0.178091 -1.086941
v -0.604289 -0.178143 -1.086652
v -0.604276 -0.178187 -1.086360
v -0.604265 -0.178223 -1.086064
v -0.604257 -0.178251 -1.085764
v -0.604251 -0.178271 -1.085460
v -0.604247 -0.178284 -1.085153
v -0.604246 -0.178288 -1.084841
v -0.610049 -0.157289 -1.095000
v -0.483665 -0.115902 -1.130371
v -0.481416 -0.115166 -1.131000
v -0.481215 -0.116004 -1.131000
v -0.474747 -0.140145 -1.131000
v -0.474502 -0.140972 -1.131000
v -0.476814 -0.141457 -1.130372
v -0.486149 -0.139685 -1.128115
v -0.485515 -0.141870 -1.128115
v -0.501914 -0.122459 -1.125230
v -0.496546 -0.142672 -1.125230
v -0.495900 -0.144905 -1.125230
v -0.511857 -0.127327 -1.122345
v -0.507594 -0.143378 -1.122345
v -0.506944 -0.145660 -1.122345
v -0.522355 -0.129938 -1.119460
v -0.518005 -0.146319 -1.119460
v -0.517342 -0.148648 -1.119460
v -0.532854 -0.132550 -1.116575
v -0.528417 -0.149260 -1.116575
v -0.527740 -0.151635 -1.116575
v -0.542739 -0.137604 -1.113690
v -0.539507 -0.149775 -1.113690
v -0.538828 -0.152201 -1.113690
v -0.553225 -0.140263 -1.110805
v -0.549931 -0.152669 -1.110805
v -0.549239 -0.155141 -1.110805
v -0.563712 -0.142922 -1.107921
v -0.560355 -0.155563 -1.107921
v -0.559650 -0.158082 -1.107921
v -0.573538 -0.148162 -1.105036
v -0.571487 -0.155888 -1.105036
v -0.570780 -0.158457 -1.105036
v -0.584013 -0.150868 -1.102151
v -0.581924 -0.158735 -1.102151
v -0.581204 -0.161351 -1.102151
v -0.594487 -0.153574 -1.099266
v -0.592361 -0.161582 -1.099266
v -0.591628 -0.164245 -1.099266
v -0.604962 -0.156280 -1.096381
v -0.602798 -0.164429 -1.096381
v -0.602052 -0.167139 -1.096381
v -0.613981 -0.164516 -1.093496
v -0.612476 -0.170033 -1.093496
v -0.611705 -0.172786 -1.093496
v -0.622901 -0.172927 -1.090611
v -0.622117 -0.175727 -1.090611
v -0.621320 -0.178523 -1.090611
v -0.631718 -0.181511 -1.087726
v -0.485917 -0.116640 -1.129741
v -0.474990 -0.139318 -1.131000
v -0.486772 -0.137497 -1.128115
v -0.497183 -0.140437 -1.125230
v -0.508234 -0.141093 -1.122345
v -0.518658 -0.143987 -1.119460
v -0.529083 -0.146881 -1.116575
v -0.540175 -0.147347 -1.113690
v -0.550612 -0.150194 -1.110805
v -0.561049 -0.153041 -1.107921
v -0.572182 -0.153316 -1.105036
v -0.582632 -0.156116 -1.102151
v -0.593082 -0.158916 -1.099266
v -0.603532 -0.161716 -1.096381
v -0.613235 -0.167276 -1.093496
v -0.488173 -0.117379 -1.129110
v -0.475232 -0.138491 -1.131000
v -0.604459 -0.168282 -1.095681
v -0.606963 -0.168808 -1.095000
v -0.491404 -0.119895 -1.128115
v -0.487386 -0.135306 -1.128115
v -0.497810 -0.138200 -1.125230
v -0.508864 -0.138806 -1.122345
v -0.519301 -0.141653 -1.119460
v -0.529738 -0.144500 -1.116575
v -0.540832 -0.144916 -1.113690
v -0.551282 -0.147716 -1.110805
v -0.561732 -0.150516 -1.107921
v -0.572866 -0.150740 -1.105036
v -0.583328 -0.153493 -1.102151
v -0.593791 -0.156246 -1.099266
v -0.604253 -0.158999 -1.096381
v -0.490432 -0.118119 -1.128479
v -0.475472 -0.137663 -1.131000
v -0.601959 -0.167756 -1.096361
v -0.487989 -0.133112 -1.128115
v -0.498426 -0.135959 -1.125230
v -0.509483 -0.136516 -1.122345
v -0.519933 -0.139316 -1.119460
v -0.530383 -0.142116 -1.116575
v -0.541479 -0.142481 -1.113690
v -0.551941 -0.145234 -1.110805
v -0.562403 -0.147987 -1.107921
v -0.492694 -0.118860 -1.127846
v -0.475711 -0.136835 -1.131000
v -0.488583 -0.130915 -1.128115
v -0.499033 -0.133715 -1.125230
v -0.510092 -0.134222 -1.122345
v -0.520554 -0.136975 -1.119460
v -0.531016 -0.139728 -1.116575
v -0.542114 -0.140044 -1.113690
v -0.552589 -0.142750 -1.110805
v -0.563063 -0.145456 -1.107921
v -0.494959 -0.119602 -1.127212
v -0.475949 -0.136007 -1.131000
v -0.489167 -0.128716 -1.128115
v -0.499629 -0.131469 -1.125230
v -0.510690 -0.131927 -1.122345
v -0.521165 -0.134632 -1.119460
v -0.531640 -0.137338 -1.116575
v -0.497228 -0.120345 -1.126577
v -0.476185 -0.135178 -1.131000
v -0.489741 -0.126515 -1.128115
v -0.500216 -0.129221 -1.125230
v -0.511279 -0.129628 -1.122345
v -0.521765 -0.132287 -1.119460
v -0.532252 -0.134946 -1.116575
v -0.499500 -0.121089 -1.125942
v -0.476419 -0.134348 -1.131000
v -0.599463 -0.167231 -1.097039
v -0.490305 -0.124310 -1.128115
v -0.500792 -0.126969 -1.125230
v -0.501776 -0.121835 -1.125305
v -0.476653 -0.133519 -1.131000
v -0.596970 -0.166707 -1.097717
v -0.490859 -0.122104 -1.128115
v -0.501358 -0.124715 -1.125230
v -0.504055 -0.122581 -1.124668
v -0.476884 -0.132688 -1.131000
v -0.594481 -0.166184 -1.098394
v -0.506337 -0.123329 -1.124029
v -0.477115 -0.131858 -1.131000
v -0.591995 -0.165661 -1.099070
v -0.607622 -0.156495 -1.095680
v -0.508623 -0.124077 -1.123390
v -0.477344 -0.131027 -1.131000
v -0.589512 -0.165140 -1.099745
v -0.605197 -0.155701 -1.096359
v -0.510912 -0.124827 -1.122749
v -0.477571 -0.130196 -1.131000
v -0.587034 -0.164619 -1.100419
v -0.602776 -0.154908 -1.097036
v -0.513205 -0.125578 -1.122108
v -0.477797 -0.129364 -1.131000
v -0.584558 -0.164098 -1.101092
v -0.600359 -0.154117 -1.097713
v -0.515500 -0.126330 -1.121466
v -0.478022 -0.128532 -1.131000
v -0.582086 -0.163579 -1.101764
v -0.597944 -0.153326 -1.098389
v -0.517799 -0.127083 -1.120822
v -0.478245 -0.127699 -1.131000
v -0.579618 -0.163060 -1.102435
v -0.595533 -0.152537 -1.099065
v -0.520102 -0.127837 -1.120178
v -0.478466 -0.126866 -1.131000
v -0.577153 -0.162542 -1.103106
v -0.593125 -0.151748 -1.099739
v -0.522408 -0.128592 -1.119533
v -0.478686 -0.126033 -1.131000
v -0.574691 -0.162024 -1.103775
v -0.590721 -0.150961 -1.100412
v -0.524717 -0.129348 -1.118887
v -0.478905 -0.125199 -1.131000
v -0.572233 -0.161508 -1.104443
v -0.588319 -0.150175 -1.101084
v -0.527030 -0.130105 -1.118240
v -0.479122 -0.124365 -1.131000
v -0.569779 -0.160992 -1.105110
v -0.585921 -0.149390 -1.101756
v -0.529346 -0.130864 -1.117592
v -0.479338 -0.123531 -1.131000
v -0.567328 -0.160477 -1.105777
v -0.583526 -0.148606 -1.102426
v -0.531665 -0.131624 -1.116942
v -0.479553 -0.122696 -1.131000
v -0.564881 -0.159962 -1.106442
v -0.581135 -0.147822 -1.103096
v -0.533988 -0.132384 -1.116292
v -0.479766 -0.121861 -1.131000
v -0.562437 -0.159449 -1.107106
v -0.578746 -0.147040 -1.103764
v -0.536314 -0.133146 -1.115642
v -0.479977 -0.121025 -1.131000
v -0.559996 -0.158936 -1.107770
v -0.576361 -0.146259 -1.104432
v -0.538643 -0.133909 -1.114990
v -0.480187 -0.120189 -1.131000
v -0.557559 -0.158424 -1.108432
v -0.573979 -0.145480 -1.105099
v -0.540976 -0.134673 -1.114337
v -0.480396 -0.119353 -1.131000
v -0.555125 -0.157912 -1.109094
v -0.571601 -0.144701 -1.105765
v -0.543312 -0.135438 -1.113683
v -0.480603 -0.118516 -1.131000
v -0.552695 -0.157401 -1.109754
v -0.569225 -0.143923 -1.106430
v -0.545651 -0.136204 -1.113028
v -0.480808 -0.117679 -1.131000
v -0.550269 -0.156891 -1.110414
v -0.566853 -0.143146 -1.107094
v -0.547994 -0.136971 -1.112373
v -0.481012 -0.116842 -1.131000
v -0.547846 -0.156382 -1.111072
v -0.550340 -0.137739 -1.111716
v -0.545426 -0.155874 -1.111730
v -0.564485 -0.142371 -1.107757
v -0.552689 -0.138508 -1.111059
v -0.479130 -0.141944 -1.129743
v -0.543010 -0.155366 -1.112387
v -0.562119 -0.141596 -1.108419
v -0.555042 -0.139279 -1.110400
v -0.481449 -0.142431 -1.129113
v -0.540598 -0.154859 -1.113042
v -0.559757 -0.140822 -1.109080
v -0.557398 -0.140050 -1.109741
v -0.483772 -0.142919 -1.128482
v -0.538189 -0.154353 -1.113697
v -0.486098 -0.143408 -1.127850
v -0.535783 -0.153847 -1.114351
v -0.488428 -0.143897 -1.127218
v -0.533382 -0.153342 -1.115004
v -0.490762 -0.144387 -1.126584
v -0.530983 -0.152839 -1.115655
v -0.528589 -0.152335 -1.116306
v -0.493099 -0.144878 -1.125949
v -0.526197 -0.151833 -1.116956
v -0.495440 -0.145370 -1.125313
v -0.523810 -0.151331 -1.117605
v -0.497784 -0.145863 -1.124676
v -0.521426 -0.150830 -1.118253
v -0.500132 -0.146356 -1.124038
v -0.519046 -0.150330 -1.118899
v -0.502484 -0.146850 -1.123399
v -0.516669 -0.149831 -1.119545
v -0.504839 -0.147345 -1.122759
v -0.514296 -0.149332 -1.120190
v -0.507198 -0.147841 -1.122119
v -0.511926 -0.148834 -1.120834
v -0.509560 -0.148337 -1.121477
f 1 2 3
f 3 4 5
f 5 6 7
f 7 8 9
f 9 10 11
f 11 12 13
f 13 14 15
f 15 16 17
f 17 18 19
f 19 20 21
f 21 22 23
f 23 24 25
f 25 26 27
f 27 28 29
f 29 30 31
f 31 32 33
f 33 34 35
f 35 36 37
f 37 38 39
f 39 40 41
f 41 42 43
f 43 44 45
f 45 46 47
f 47 48 49
f 49 50 51
f 51 52 53
f 53 54 55
f 55 56 57
f 58 59 60
f 61 62 63
f 64 65 66
f 67 68 69
f 70 71 72
f 73 74 75
f 76 77 78
f 79 80 81
f 82 83 84
f 85 86 87
f 88 89 90
f 91 92 93
f 94 95 96
f 97 98 99
f 100 101 102
f 103 104 105
f 1 3 5
f 5 7 9
f 9 11 13
f 13 15 17
f 17 19 21
f 21 23 25
f 25 27 29
f 29 31 33
f 33 35 37
f 37 39 41
f 41 43 45
f 45 47 49
f 49 51 53
f 53 55 57
f 106 58 60
f 107 61 63
f 108 64 66
f 109 67 69
f 110 70 72
f 111 73 75
f 112 76 78
f 113 79 81
f 114 82 84
f 115 85 87
f 116 88 90
f 117 91 93
f 118 94 96
f 119 97 99
f 120 100 102
f 102 103 105
f 1 5 9
f 9 13 17
f 17 21 25
f 25 29 33
f 33 37 41
f 41 45 49
f 121 106 60
f 122 107 63
f 123 124 125
f 126 108 66
f 127 109 69
f 128 110 72
f 129 111 75
f 130 112 78
f 131 113 81
f 132 114 84
f 133 115 87
f 134 116 90
f 135 117 93
f 136 118 96
f 137 119 99
f 99 120 102
f 1 9 17
f 17 25 33
f 33 41 49
f 138 121 60
f 139 122 63
f 140 123 125
f 141 126 66
f 142 127 69
f 143 128 72
f 144 129 75
f 145 130 78
f 146 131 81
f 147 132 84
f 148 133 87
f 87 134 90
f 90 135 93
f 93 136 96
f 96 137 99
f 1 17 33
f 33 49 53
f 149 138 60
f 150 139 63
f 151 141 66
f 152 142 69
f 153 143 72
f 154 144 75
f 155 145 78
f 156 146 81
f 157 147 84
f 158 148 87
f 1 33 53
f 159 149 60
f 160 150 63
f 161 151 66
f 162 152 69
f 163 153 72
f 164 154 75
f 165 155 78
f 78 156 81
f 81 157 84
f 84 158 87
f 105 1 53
f 166 159 60
f 167 160 63
f 168 161 66
f 169 162 69
f 170 163 72
f 171 164 75
f 172 165 78
f 84 87 90
f 105 53 57
f 173 166 60
f 174 167 63
f 175 140 125
f 176 168 66
f 177 169 69
f 69 170 72
f 72 171 75
f 75 172 78
f 84 90 93
f 102 105 57
f 178 173 60
f 179 174 63
f 180 175 125
f 181 176 66
f 182 177 69
f 75 78 81
f 84 93 96
f 99 102 57
f 183 178 60
f 184 179 63
f 185 180 125
f 125 181 66
f 66 182 69
f 75 81 84
f 96 99 57
f 186 183 60
f 187 184 63
f 188 185 125
f 66 69 72
f 75 84 96
f 96 57 189
f 190 186 60
f 191 187 63
f 192 188 125
f 66 72 75
f 96 189 193
f 194 190 60
f 195 191 63
f 196 192 125
f 66 75 96
f 96 193 197
f 198 194 60
f 199 195 63
f 200 196 125
f 96 197 201
f 202 198 60
f 203 199 63
f 204 200 125
f 96 201 205
f 206 202 60
f 207 203 63
f 208 204 125
f 96 205 209
f 210 206 60
f 211 207 63
f 212 208 125
f 96 209 213
f 214 210 60
f 215 211 63
f 216 212 125
f 96 213 217
f 218 214 60
f 219 215 63
f 220 216 125
f 96 217 221
f 222 218 60
f 223 219 63
f 224 220 125
f 96 221 225
f 226 222 60
f 227 223 63
f 228 224 125
f 96 225 229
f 230 226 60
f 231 227 63
f 232 228 125
f 96 229 233
f 234 230 60
f 235 231 63
f 236 232 125
f 96 233 237
f 238 234 60
f 239 235 63
f 240 236 125
f 96 237 241
f 242 238 60
f 243 239 63
f 244 240 125
f 96 241 245
f 246 242 60
f 247 243 63
f 248 244 125
f 96 245 249
f 250 246 60
f 251 247 63
f 252 248 125
f 96 249 253
f 254 250 60
f 255 251 63
f 256 252 125
f 96 253 257
f 258 254 60
f 259 255 63
f 260 256 125
f 66 96 257
f 261 258 60
f 60 259 63
f 262 260 125
f 66 257 263
f 264 261 60
f 60 63 265
f 266 262 125
f 66 263 267
f 268 264 60
f 60 265 269
f 270 266 125
f 66 267 271
f 272 268 60
f 60 269 273
f 274 270 125
f 66 271 272
f 60 273 275
f 276 274 125
f 66 272 60
f 60 275 277
f 278 276 125
f 125 66 60
f 60 277 279
f 280 278 125
f 125 60 279
f 281 280 125
f 125 279 282
f 283 281 125
f 125 282 284
f 285 283 125
f 125 284 286
f 287 285 125
f 125 286 288
f 289 287 125
f 125 288 290
f 291 289 125
f 125 290 292
f 293 291 125
f 125 292 294
f 295 293 125
f 125 294 296
f 296 295 125
f 124 2 3
