v 0.073669 -0.019740 -0.027354
v 0.000000 0.000000 0.000000
v 0.003047 0.000000 -0.000039
v 0.082822 0.000000 -0.033164
v 0.085000 0.000000 -0.035295
v 0.084564 -0.008599 -0.035295
v -0.084564 -0.008599 -0.035295
v -0.085000 0.000000 -0.035295
v -0.082822 0.000000 -0.033164
v -0.006091 0.000000 -0.000155
v -0.003047 0.000000 -0.000039
v -0.011386 -0.003051 -0.000580
v 0.010209 -0.005894 -0.000580
v 0.011386 -0.003051 -0.000580
v -0.022662 -0.006072 -0.002316
v 0.020319 -0.011731 -0.002316
v 0.022662 -0.006072 -0.002316
v -0.033719 -0.009035 -0.005190
v 0.030232 -0.017454 -0.005190
v 0.033719 -0.009035 -0.005190
v -0.044450 -0.011910 -0.009174
v 0.039853 -0.023009 -0.009174
v 0.044450 -0.011910 -0.009174
v -0.054751 -0.014670 -0.014231
v 0.049088 -0.028341 -0.014231
v 0.054751 -0.014670 -0.014231
v -0.064522 -0.017289 -0.020311
v 0.057849 -0.033399 -0.020311
v 0.064522 -0.017289 -0.020311
v -0.073669 -0.019740 -0.027354
v 0.006091 0.000000 -0.000155
v 0.080591 0.000000 -0.031089
v -0.081102 -0.025446 -0.035295
v -0.083260 -0.017110 -0.035295
v -0.009132 0.000000 -0.000348
v 0.008335 -0.008335 -0.000580
v 0.016590 -0.016590 -0.002316
v 0.024684 -0.024684 -0.005190
v 0.032540 -0.032540 -0.009174
v 0.040081 -0.040081 -0.014231
v 0.047234 -0.047234 -0.020311
v 0.009132 0.000000 -0.000348
v 0.078307 0.000000 -0.029072
v -0.069765 -0.048558 -0.035295
v -0.074319 -0.041251 -0.035295
v -0.078111 -0.033520 -0.035295
v -0.012167 0.000000 -0.000618
v 0.005894 -0.010209 -0.000580
v 0.011731 -0.020319 -0.002316
v 0.017454 -0.030232 -0.005190
v 0.023009 -0.039853 -0.009174
v 0.028341 -0.049088 -0.014231
v 0.033399 -0.057849 -0.020311
v 0.012167 0.000000 -0.000618
v 0.075974 0.000000 -0.027113
v -0.029521 -0.079709 -0.035295
v -0.037434 -0.076313 -0.035295
v -0.044962 -0.072135 -0.035295
v -0.052029 -0.067216 -0.035295
v -0.058562 -0.061607 -0.035295
v -0.064494 -0.055367 -0.035295
v -0.015194 0.000000 -0.000966
v 0.003051 -0.011386 -0.000580
v 0.006072 -0.022662 -0.002316
v 0.009035 -0.033719 -0.005190
v 0.011910 -0.044450 -0.009174
v 0.014670 -0.054751 -0.014231
v 0.017289 -0.064522 -0.020311
v 0.015194 0.000000 -0.000966
v 0.073591 0.000000 -0.025214
v -0.004305 -0.084891 -0.035295
v -0.012871 -0.084020 -0.035295
v -0.021305 -0.082287 -0.035295
v -0.018211 0.000000 -0.001390
v 0.000000 -0.011788 -0.000580
v 0.000000 -0.023462 -0.002316
v 0.000000 -0.034909 -0.005190
v 0.000000 -0.046018 -0.009174
v 0.000000 -0.056682 -0.014231
v 0.000000 -0.066798 -0.020311
v 0.018211 0.000000 -0.001390
v 0.071161 0.000000 -0.023376
v 0.004305 -0.084891 -0.035295
v -0.021217 0.000000 -0.001891
v -0.003051 -0.011386 -0.000580
v -0.006072 -0.022662 -0.002316
v -0.009035 -0.033719 -0.005190
v -0.011910 -0.044450 -0.009174
v -0.014670 -0.054751 -0.014231
v -0.017289 -0.064522 -0.020311
v 0.021217 0.000000 -0.001891
v 0.068685 0.000000 -0.021601
v 0.081102 -0.025446 -0.035295
v 0.078111 -0.033520 -0.035295
v 0.074319 -0.041251 -0.035295
v 0.069765 -0.048558 -0.035295
v 0.064494 -0.055367 -0.035295
v 0.058562 -0.061607 -0.035295
v 0.052029 -0.067216 -0.035295
v 0.044962 -0.072135 -0.035295
v 0.037434 -0.076313 -0.035295
v 0.029521 -0.079709 -0.035295
v 0.021305 -0.082287 -0.035295
v 0.012871 -0.084020 -0.035295
v -0.024208 0.000000 -0.002467
v -0.005894 -0.010209 -0.000580
v -0.011731 -0.020319 -0.002316
v -0.017454 -0.030232 -0.005190
v -0.023009 -0.039853 -0.009174
v -0.028341 -0.049088 -0.014231
v -0.033399 -0.057849 -0.020311
v 0.024208 0.000000 -0.002467
v 0.066164 0.000000 -0.019889
v 0.083260 -0.017110 -0.035295
v -0.027185 0.000000 -0.003120
v -0.008335 -0.008335 -0.000580
v -0.016590 -0.016590 -0.002316
v -0.024684 -0.024684 -0.005190
v -0.032540 -0.032540 -0.009174
v -0.040081 -0.040081 -0.014231
v -0.047234 -0.047234 -0.020311
v 0.027185 0.000000 -0.003120
v 0.063601 0.000000 -0.018241
v -0.080591 0.000000 -0.031089
v -0.030143 0.000000 -0.003848
v -0.010209 -0.005894 -0.000580
v -0.020319 -0.011731 -0.002316
v -0.030232 -0.017454 -0.005190
v -0.039853 -0.023009 -0.009174
v -0.049088 -0.028341 -0.014231
v -0.057849 -0.033399 -0.020311
v 0.030143 0.000000 -0.003848
v 0.060997 0.000000 -0.016659
v -0.078307 0.000000 -0.029072
v -0.033083 0.000000 -0.004650
v 0.033083 0.000000 -0.004650
v 0.058354 0.000000 -0.015144
v -0.075974 0.000000 -0.027113
v -0.036001 0.000000 -0.005527
v 0.036001 0.000000 -0.005527
v 0.055673 0.000000 -0.013696
v -0.038895 0.000000 -0.006478
v 0.038895 0.000000 -0.006478
v 0.052956 0.000000 -0.012317
v -0.041765 0.000000 -0.007502
v 0.041765 0.000000 -0.007502
v 0.050205 0.000000 -0.011007
v -0.044608 0.000000 -0.008599
v 0.044608 0.000000 -0.008599
v 0.047421 0.000000 -0.009768
v -0.047421 0.000000 -0.009768
v -0.050205 0.000000 -0.011007
v -0.052956 0.000000 -0.012317
v 0.066050 -0.038134 -0.027354
v -0.055673 0.000000 -0.013696
v 0.053930 -0.053930 -0.027354
v -0.058354 0.000000 -0.015144
v 0.038134 -0.066050 -0.027354
v -0.060997 0.000000 -0.016659
v 0.019740 -0.073669 -0.027354
v -0.063601 0.000000 -0.018241
v 0.000000 -0.076268 -0.027354
v -0.066164 0.000000 -0.019889
v -0.019740 -0.073669 -0.027354
v -0.068685 0.000000 -0.021601
v -0.038134 -0.066050 -0.027354
v -0.071161 0.000000 -0.023376
v -0.053930 -0.053930 -0.027354
v -0.073591 0.000000 -0.025214
v -0.066050 -0.038134 -0.027354
v -0.002303 -0.017495 -0.001305
v 0.000000 -0.017646 -0.001305
v -0.004567 -0.017045 -0.001305
v -0.006753 -0.016303 -0.001305
v -0.008823 -0.015282 -0.001305
v -0.010742 -0.014000 -0.001305
v -0.003814 -0.028971 -0.003612
v 0.000000 -0.029221 -0.003612
v -0.007563 -0.028225 -0.003612
v -0.011182 -0.026996 -0.003612
v -0.014610 -0.025306 -0.003612
v -0.017788 -0.023182 -0.003612
v -0.005288 -0.040166 -0.007045
v 0.000000 -0.040513 -0.007045
v -0.010485 -0.039132 -0.007045
v -0.015503 -0.037429 -0.007045
v -0.020256 -0.035085 -0.007045
v -0.024663 -0.032141 -0.007045
v -0.028647 -0.028647 -0.007045
v -0.006711 -0.050973 -0.011571
v 0.000000 -0.051413 -0.011571
v -0.013307 -0.049661 -0.011571
v -0.019675 -0.047499 -0.011571
v -0.025706 -0.044525 -0.011571
v -0.031298 -0.040788 -0.011571
v -0.036354 -0.036354 -0.011571
v -0.008068 -0.061286 -0.017146
v 0.000000 -0.061815 -0.017146
v -0.015999 -0.059709 -0.017146
v -0.023656 -0.057110 -0.017146
v -0.030908 -0.053533 -0.017146
v -0.037631 -0.049041 -0.017146
v -0.043710 -0.043710 -0.017146
v -0.049041 -0.037631 -0.017146
v -0.009348 -0.071007 -0.023716
v 0.000000 -0.071620 -0.023716
v -0.018537 -0.069179 -0.023716
v -0.027408 -0.066168 -0.023716
v -0.035810 -0.062025 -0.023716
v -0.043599 -0.056820 -0.023716
v -0.050643 -0.050643 -0.023716
v -0.056820 -0.043599 -0.023716
v 0.010083 -0.024344 -0.002929
v 0.014639 -0.021909 -0.002929
v 0.016040 -0.020904 -0.002929
v -0.021148 -0.024115 -0.004366
v -0.019526 -0.025446 -0.004366
v 0.016684 -0.033832 -0.006083
v 0.014436 -0.034851 -0.006083
v 0.020957 -0.031365 -0.006083
v 0.022964 -0.029927 -0.006083
v -0.028535 -0.032539 -0.008076
v -0.026346 -0.034335 -0.008076
v -0.030603 -0.030603 -0.008076
v 0.021553 -0.043705 -0.010340
v 0.018648 -0.045021 -0.010340
v 0.027073 -0.040518 -0.010340
v 0.029665 -0.038660 -0.010340
v -0.035647 -0.040647 -0.012869
v -0.032912 -0.042892 -0.012869
v -0.038229 -0.038229 -0.012869
v -0.040647 -0.035647 -0.012869
v 0.026213 -0.053155 -0.015657
v 0.022680 -0.054755 -0.015657
v 0.032927 -0.049278 -0.015657
v 0.036079 -0.047019 -0.015657
v -0.042413 -0.048363 -0.018698
v -0.039159 -0.051033 -0.018698
v -0.045485 -0.045485 -0.018698
v -0.048363 -0.042413 -0.018698
v -0.051033 -0.039159 -0.018698
v 0.030620 -0.062090 -0.021984
v 0.026493 -0.063960 -0.021984
v 0.038462 -0.057563 -0.021984
v 0.042145 -0.054924 -0.021984
v -0.048769 -0.055611 -0.025507
v -0.045028 -0.058681 -0.025507
v -0.052302 -0.052302 -0.025507
v -0.055611 -0.048769 -0.025507
v -0.058681 -0.045028 -0.025507
v 0.009763 -0.036437 -0.006083
v 0.007359 -0.036997 -0.006083
v 0.012612 -0.047070 -0.010340
v 0.009507 -0.047794 -0.010340
v 0.015339 -0.057247 -0.015657
v 0.011562 -0.058128 -0.015657
v 0.017918 -0.066871 -0.021984
v 0.013506 -0.067900 -0.021984
v -0.000000 -0.037722 -0.006083
v 0.003187 -0.048626 -0.010340
v -0.000000 -0.048730 -0.010340
v 0.003876 -0.059140 -0.015657
v -0.000000 -0.059267 -0.015657
v 0.004528 -0.069082 -0.021984
v -0.000000 -0.069230 -0.021984
v -0.009507 -0.047794 -0.010340
v -0.011562 -0.058128 -0.015657
v -0.009036 -0.068638 -0.021984
v -0.013506 -0.067900 -0.021984
v -0.026493 -0.063960 -0.021984
f 1 2 3
f 4 5 6
f 7 8 9
f 10 11 12
f 14 172 171
f 172 15 171
f 14 171 13
f 17 215 178
f 177 214 215
f 215 17 214
f 178 217 216
f 217 18 216
f 178 216 177
f 17 214 16
f 214 177 16
f 20 221 184
f 183 220 221
f 221 20 220
f 184 223 222
f 223 21 222
f 184 222 183
f 20 220 218
f 220 183 218
f 20 218 19
f 23 228 191
f 190 227 228
f 228 23 227
f 191 230 229
f 230 24 229
f 191 229 190
f 23 227 225
f 227 190 225
f 23 225 22
f 26 236 198
f 197 235 236
f 236 26 235
f 198 238 237
f 238 27 237
f 198 237 197
f 26 235 233
f 235 197 233
f 26 233 25
f 29 245 206
f 205 244 245
f 245 29 244
f 206 247 246
f 247 30 246
f 206 246 205
f 29 244 242
f 244 205 242
f 29 242 28
f 1 3 31
f 32 4 6
f 33 34 9
f 34 7 9
f 35 10 12
f 13 171 173
f 171 15 173
f 13 173 36
f 179 213 177
f 213 16 177
f 177 216 179
f 216 18 179
f 16 213 37
f 213 179 37
f 19 218 183
f 185 219 218
f 218 19 219
f 183 222 224
f 222 21 224
f 183 224 185
f 19 219 251
f 219 185 251
f 19 251 38
f 22 225 190
f 192 226 225
f 225 22 226
f 190 229 231
f 229 24 231
f 190 231 192
f 22 226 253
f 226 192 253
f 22 253 39
f 25 233 197
f 199 234 233
f 233 25 234
f 197 237 239
f 237 27 239
f 197 239 199
f 25 234 255
f 234 199 255
f 25 255 40
f 28 242 205
f 207 243 242
f 242 28 243
f 205 246 248
f 246 30 248
f 205 248 207
f 28 243 257
f 243 207 257
f 28 257 41
f 1 31 42
f 43 32 6
f 44 45 9
f 45 46 9
f 46 33 9
f 47 35 12
f 36 173 174
f 173 15 174
f 36 174 48
f 37 179 180
f 179 18 180
f 37 180 49
f 38 251 185
f 186 252 251
f 251 38 252
f 185 224 186
f 224 21 186
f 38 252 50
f 252 186 50
f 39 253 192
f 193 254 253
f 253 39 254
f 192 231 232
f 231 24 232
f 192 232 193
f 39 254 260
f 254 193 260
f 39 260 51
f 40 255 199
f 200 256 255
f 255 40 256
f 199 239 240
f 239 27 240
f 199 240 200
f 40 256 262
f 256 200 262
f 40 262 52
f 41 257 207
f 208 258 257
f 257 41 258
f 207 248 249
f 248 30 249
f 207 249 208
f 41 258 264
f 258 208 264
f 41 264 53
f 1 42 54
f 55 43 6
f 56 57 9
f 57 58 9
f 58 59 9
f 59 60 9
f 60 61 9
f 61 44 9
f 62 47 12
f 48 174 175
f 174 15 175
f 48 175 63
f 49 180 181
f 180 18 181
f 49 181 64
f 187 259 186
f 259 50 186
f 186 21 187
f 50 259 65
f 259 187 65
f 51 260 193
f 194 261 260
f 260 51 261
f 193 232 194
f 232 24 194
f 51 261 66
f 261 194 66
f 52 262 200
f 201 263 262
f 262 52 263
f 200 240 241
f 240 27 241
f 200 241 201
f 52 263 67
f 263 201 67
f 53 264 208
f 209 265 264
f 264 53 265
f 208 249 250
f 249 30 250
f 208 250 209
f 53 265 268
f 265 209 268
f 53 268 68
f 1 54 69
f 70 55 6
f 71 72 9
f 72 73 9
f 73 56 9
f 74 62 12
f 63 175 176
f 175 15 176
f 63 176 75
f 64 181 182
f 181 18 182
f 64 182 76
f 65 187 188
f 187 21 188
f 65 188 77
f 195 266 194
f 266 66 194
f 194 24 195
f 66 266 78
f 266 195 78
f 202 267 201
f 267 67 201
f 201 241 202
f 241 27 202
f 67 267 79
f 267 202 79
f 68 268 209
f 210 269 268
f 268 68 269
f 209 250 210
f 250 30 210
f 68 269 80
f 269 210 80
f 1 69 81
f 82 70 6
f 83 71 9
f 84 74 12
f 75 176 85
f 176 15 85
f 76 182 86
f 182 18 86
f 77 188 189
f 188 21 189
f 77 189 87
f 78 195 196
f 195 24 196
f 78 196 88
f 79 202 203
f 202 27 203
f 79 203 89
f 211 270 210
f 270 80 210
f 210 30 211
f 80 270 90
f 270 211 90
f 1 81 91
f 92 82 6
f 93 94 9
f 94 95 9
f 95 96 9
f 96 97 9
f 97 98 9
f 98 99 9
f 99 100 9
f 100 101 9
f 101 102 9
f 102 103 9
f 103 104 9
f 104 83 9
f 105 84 12
f 106 85 15
f 107 86 18
f 87 189 108
f 189 21 108
f 88 196 109
f 196 24 109
f 89 203 204
f 203 27 204
f 89 204 110
f 90 211 212
f 211 30 212
f 90 212 111
f 1 91 112
f 113 92 6
f 6 114 9
f 114 93 9
f 115 105 12
f 116 106 15
f 117 107 18
f 118 108 21
f 119 109 24
f 110 204 120
f 204 27 120
f 111 212 121
f 212 30 121
f 1 112 122
f 123 113 6
f 6 9 124
f 125 115 12
f 126 116 15
f 127 117 18
f 128 118 21
f 129 119 24
f 130 120 27
f 131 121 30
f 1 122 132
f 133 123 6
f 6 124 134
f 135 125 12
f 12 126 15
f 15 127 18
f 18 128 21
f 21 129 24
f 24 130 27
f 27 131 30
f 1 132 136
f 137 133 6
f 6 134 138
f 139 135 12
f 1 136 140
f 141 137 6
f 142 139 12
f 1 140 143
f 144 141 6
f 145 142 12
f 1 143 146
f 147 144 6
f 148 145 12
f 1 146 149
f 150 147 6
f 151 148 12
f 1 149 150
f 152 151 12
f 1 150 6
f 153 152 12
f 154 1 6
f 155 153 12
f 156 154 6
f 157 155 12
f 158 156 6
f 159 157 12
f 160 158 6
f 161 159 12
f 162 160 6
f 163 161 12
f 164 162 6
f 165 163 12
f 166 164 6
f 167 165 12
f 168 166 6
f 169 167 12
f 170 168 6
f 138 169 12
f 30 170 6
f 138 12 15
f 30 6 138
f 138 15 18
f 27 30 138
f 138 18 21
f 24 27 138
f 138 21 24
