v -0.970000 0.474813 -6.154318
v 0.855000 0.474813 -6.154318
v 0.855000 0.375000 -6.720383
v 0.405000 0.375000 -6.720383
v 0.405000 0.408690 -6.529318
v 0.404929 0.409584 -6.524247
v 0.404716 0.410472 -6.519213
v 0.404362 0.411353 -6.514214
v 0.403865 0.412229 -6.509246
v 0.403227 0.413100 -6.504307
v 0.402446 0.413966 -6.499396
v 0.401522 0.414828 -6.494510
v 0.400455 0.415685 -6.489646
v 0.399245 0.416539 -6.484803
v 0.397892 0.417390 -6.479979
v 0.396397 0.418236 -6.475178
v 0.394761 0.419078 -6.470407
v 0.392988 0.419912 -6.465673
v 0.391078 0.420739 -6.460984
v 0.389035 0.421557 -6.456346
v 0.386859 0.422365 -6.451765
v 0.384553 0.423161 -6.447250
v 0.382119 0.423944 -6.442807
v 0.379559 0.424714 -6.438443
v 0.376875 0.425469 -6.434161
v 0.374071 0.426209 -6.429965
v 0.371149 0.426933 -6.425856
v 0.368112 0.427642 -6.421838
v 0.364963 0.428334 -6.417912
v 0.361706 0.429009 -6.414082
v 0.358343 0.429667 -6.410349
v 0.354877 0.430308 -6.406717
v 0.351311 0.430930 -6.403188
v 0.347648 0.431534 -6.399763
v 0.343890 0.432119 -6.396446
v 0.340041 0.432684 -6.393239
v 0.336102 0.433230 -6.390145
v 0.332077 0.433755 -6.387165
v 0.327969 0.434260 -6.384302
v 0.323779 0.434744 -6.381559
v 0.319510 0.435206 -6.378938
v 0.315166 0.435646 -6.376441
v 0.310750 0.436064 -6.374071
v 0.306269 0.436459 -6.371829
v 0.301729 0.436832 -6.369716
v 0.297137 0.437181 -6.367735
v 0.292500 0.437507 -6.365885
v 0.287825 0.437810 -6.364170
v 0.283117 0.438089 -6.362590
v 0.278385 0.438343 -6.361148
v 0.273634 0.438573 -6.359843
v 0.268868 0.438778 -6.358678
v 0.264088 0.438959 -6.357652
v 0.259289 0.439116 -6.356765
v 0.254471 0.439248 -6.356015
v 0.249630 0.439356 -6.355403
v 0.244765 0.439440 -6.354928
v 0.239873 0.439499 -6.354589
v 0.234952 0.439535 -6.354386
v 0.230000 0.439547 -6.354318
v -0.970000 0.439547 -6.354318
v 0.442724 0.427710 -6.421447
v 0.443409 0.426194 -6.430048
v 0.444570 0.424658 -6.438761
v 0.446228 0.423109 -6.447544
v 0.448398 0.421555 -6.456357
v 0.451098 0.420003 -6.465157
v 0.454346 0.418461 -6.473904
v 0.458151 0.416936 -6.482554
v 0.462502 0.415436 -6.491058
v 0.467380 0.413971 -6.499365
v 0.472770 0.412550 -6.507425
v 0.478655 0.411182 -6.515187
v 0.485018 0.409874 -6.522602
v 0.491844 0.408637 -6.529619
v 0.499101 0.407477 -6.536198
v 0.506733 0.406398 -6.542317
v 0.514680 0.405403 -6.547958
v 0.522882 0.404496 -6.553100
v 0.531279 0.403681 -6.557726
v 0.539810 0.402960 -6.561815
v 0.548418 0.402337 -6.565350
v 0.557063 0.401812 -6.568326
v 0.565737 0.401383 -6.570760
v 0.574437 0.401046 -6.572670
v 0.583156 0.400798 -6.574075
v 0.591888 0.400636 -6.574994
v 0.600628 0.400557 -6.575445
v 0.609372 0.400557 -6.575445
v 0.618112 0.400636 -6.574994
v 0.626844 0.400798 -6.574075
v 0.635563 0.401046 -6.572670
v 0.644263 0.401383 -6.570760
v 0.652937 0.401812 -6.568326
v 0.661582 0.402337 -6.565350
v 0.670190 0.402960 -6.561815
v 0.678721 0.403681 -6.557726
v 0.687118 0.404496 -6.553100
v 0.695320 0.405403 -6.547958
v 0.703267 0.406398 -6.542317
v 0.710899 0.407477 -6.536198
v 0.718156 0.408637 -6.529619
v 0.724982 0.409874 -6.522602
v 0.731345 0.411182 -6.515187
v 0.737230 0.412550 -6.507425
v 0.742620 0.413971 -6.499365
v 0.747498 0.415436 -6.491058
v 0.751849 0.416936 -6.482554
v 0.755654 0.418461 -6.473904
v 0.758902 0.420003 -6.465157
v 0.761602 0.421555 -6.456357
v 0.763772 0.423109 -6.447544
v 0.765430 0.424658 -6.438761
v 0.766591 0.426194 -6.430048
v 0.767276 0.427710 -6.421447
v 0.767500 0.429200 -6.413000
v 0.767276 0.430689 -6.404553
v 0.766591 0.432206 -6.395952
v 0.765430 0.433742 -6.387239
v 0.763772 0.435291 -6.378456
v 0.761602 0.436845 -6.369643
v 0.758902 0.438397 -6.360843
v 0.755654 0.439939 -6.352096
v 0.751849 0.441464 -6.343446
v 0.747498 0.442964 -6.334942
v 0.742620 0.444428 -6.326635
v 0.737230 0.445850 -6.318575
v 0.731345 0.447218 -6.310813
v 0.724982 0.448526 -6.303398
v 0.718156 0.449763 -6.296381
v 0.710899 0.450923 -6.289802
v 0.703267 0.452002 -6.283683
v 0.695320 0.452997 -6.278042
v 0.687118 0.453903 -6.272900
v 0.678721 0.454719 -6.268274
v 0.670190 0.455440 -6.264185
v 0.661582 0.456063 -6.260650
v 0.652937 0.456588 -6.257674
v 0.644263 0.457017 -6.255240
v 0.635563 0.457354 -6.253330
v 0.626844 0.457602 -6.251925
v 0.618112 0.457764 -6.251006
v 0.609372 0.457843 -6.250555
v 0.600628 0.457843 -6.250555
v 0.591888 0.457764 -6.251006
v 0.583156 0.457602 -6.251925
v 0.574437 0.457354 -6.253330
v 0.565737 0.457017 -6.255240
v 0.557063 0.456588 -6.257674
v 0.548418 0.456063 -6.260650
v 0.539810 0.455440 -6.264185
v 0.531279 0.454719 -6.268274
v 0.522882 0.453903 -6.272900
v 0.514680 0.452997 -6.278042
v 0.506733 0.452002 -6.283683
v 0.499101 0.450923 -6.289802
v 0.491844 0.449763 -6.296381
v 0.485018 0.448526 -6.303398
v 0.478655 0.447218 -6.310813
v 0.472770 0.445850 -6.318575
v 0.467380 0.444428 -6.326635
v 0.462502 0.442964 -6.334942
v 0.458151 0.441464 -6.343446
v 0.454346 0.439939 -6.352096
v 0.451098 0.438397 -6.360843
v 0.448398 0.436845 -6.369643
v 0.446228 0.435291 -6.378456
v 0.444570 0.433742 -6.387239
v 0.443409 0.432206 -6.395952
v 0.442724 0.430689 -6.404553
v 0.442500 0.429200 -6.413000
f 61 1 2
f 3 4 88
f 87 88 4
f 60 61 2
f 3 88 89
f 86 87 4
f 59 60 2
f 3 89 90
f 85 86 4
f 58 59 2
f 3 90 91
f 84 85 4
f 57 58 2
f 3 91 92
f 83 84 4
f 56 57 2
f 3 92 93
f 82 83 4
f 55 56 2
f 3 93 94
f 81 82 4
f 54 55 2
f 3 94 95
f 80 81 4
f 53 54 2
f 3 95 96
f 79 80 4
f 3 96 97
f 78 79 4
f 3 97 98
f 77 78 4
f 3 98 99
f 76 77 4
f 3 99 100
f 75 76 4
f 3 100 101
f 74 75 4
f 3 101 102
f 73 74 4
f 3 102 103
f 72 73 4
f 3 103 104
f 71 72 4
f 3 104 105
f 70 71 4
f 3 105 106
f 69 70 4
f 3 106 107
f 68 69 4
f 3 107 108
f 67 68 4
f 3 108 109
f 66 67 4
f 3 109 110
f 65 66 4
f 2 3 110
f 64 65 4
f 2 110 111
f 63 64 4
f 2 111 112
f 62 63 4
f 2 112 113
f 171 62 4
f 2 113 114
f 170 171 4
f 2 114 115
f 169 170 4
f 2 115 116
f 169 4 5
f 2 116 117
f 168 169 5
f 2 117 118
f 167 168 5
f 2 118 119
f 166 167 5
f 2 119 120
f 166 5 6
f 2 120 121
f 166 6 7
f 2 121 122
f 166 7 8
f 2 122 123
f 166 8 9
f 2 123 124
f 165 166 9
f 2 124 125
f 165 9 10
f 2 125 126
f 165 10 11
f 2 126 127
f 165 11 12
f 2 127 128
f 165 12 13
f 2 128 129
f 164 165 13
f 2 129 130
f 164 13 14
f 2 130 131
f 164 14 15
f 2 131 132
f 163 164 15
f 2 132 133
f 163 15 16
f 2 133 134
f 163 16 17
f 2 134 135
f 163 17 18
f 2 135 136
f 162 163 18
f 2 136 137
f 162 18 19
f 2 137 138
f 162 19 20
f 2 138 139
f 161 162 20
f 2 139 140
f 161 20 21
f 2 140 141
f 161 21 22
f 2 141 142
f 160 161 22
f 2 142 143
f 160 22 23
f 2 143 144
f 160 23 24
f 2 144 145
f 159 160 24
f 2 145 146
f 159 24 25
f 2 146 147
f 159 25 26
f 2 147 148
f 158 159 26
f 2 148 149
f 158 26 27
f 53 2 149
f 158 27 28
f 53 149 150
f 157 158 28
f 52 53 150
f 157 28 29
f 51 52 150
f 157 29 30
f 50 51 150
f 156 157 30
f 49 50 150
f 156 30 31
f 48 49 150
f 156 31 32
f 48 150 151
f 156 32 33
f 47 48 151
f 155 156 33
f 46 47 151
f 155 33 34
f 45 46 151
f 155 34 35
f 44 45 151
f 154 155 35
f 44 151 152
f 154 35 36
f 43 44 152
f 154 36 37
f 42 43 152
f 154 37 38
f 41 42 152
f 153 154 38
f 40 41 152
f 153 38 39
f 40 152 153
f 153 39 40
