v 1.867372 0.559197 -6.239954
v 1.872750 0.559736 -6.239808
v 1.870061 0.559470 -6.239917
v 1.875435 0.559995 -6.239627
v 1.878114 0.560246 -6.239373
v 1.880787 0.560490 -6.239046
v 1.883451 0.560727 -6.238647
v 1.886103 0.560955 -6.238177
v 1.888743 0.561176 -6.237635
v 1.891367 0.561389 -6.237022
v 1.893975 0.561593 -6.236338
v 1.866513 0.567818 -6.239056
v 1.865838 0.576178 -6.238002
v 1.865338 0.584289 -6.236801
v 1.865004 0.592167 -6.235461
v 1.864829 0.599823 -6.233988
v 1.864811 0.607260 -6.232385
v 1.864951 0.614478 -6.230650
v 1.865252 0.621476 -6.228783
v 1.865716 0.628251 -6.226783
v 1.866343 0.634794 -6.224653
v 1.891540 0.570626 -6.235754
v 1.891537 0.570636 -6.235754
v 1.888974 0.579272 -6.234985
v 1.888969 0.579290 -6.234983
v 1.886302 0.587529 -6.234054
v 1.886293 0.587555 -6.234050
v 1.883544 0.595402 -6.232981
v 1.883532 0.595435 -6.232976
v 1.880721 0.602899 -6.231786
v 1.880706 0.602937 -6.231779
v 1.877853 0.610020 -6.230489
v 1.877835 0.610063 -6.230480
v 1.874962 0.616766 -6.229109
v 1.874941 0.616813 -6.229099
v 1.872067 0.623140 -6.227666
v 1.872044 0.623190 -6.227654
v 1.869188 0.629150 -6.226176
v 1.869162 0.629201 -6.226163
v 1.899132 0.561975 -6.234761
v 1.896564 0.561788 -6.235584
v 1.901678 0.562154 -6.233868
v 1.904200 0.562323 -6.232908
v 1.906695 0.562483 -6.231879
v 1.909162 0.562635 -6.230784
v 1.911599 0.562777 -6.229623
v 1.914005 0.562909 -6.228396
v 1.916377 0.563033 -6.227105
v 1.918714 0.563146 -6.225751
v 1.867132 0.641089 -6.222397
v 1.868083 0.647119 -6.220021
v 1.869196 0.652869 -6.217528
v 1.870472 0.658325 -6.214921
v 1.871918 0.663484 -6.212194
v 1.873540 0.668341 -6.209340
v 1.875345 0.672895 -6.206352
v 1.877335 0.677134 -6.203232
v 1.879493 0.681026 -6.200004
v 1.881804 0.684535 -6.196693
v 1.884247 0.687625 -6.193329
v 1.917670 0.572680 -6.224723
v 1.917669 0.572690 -6.224721
v 1.916441 0.581860 -6.223529
v 1.916438 0.581879 -6.223526
v 1.915048 0.590681 -6.222189
v 1.915043 0.590709 -6.222184
v 1.913514 0.599144 -6.220723
v 1.913507 0.599179 -6.220717
v 1.911858 0.607252 -6.219149
v 1.911849 0.607293 -6.219141
v 1.910101 0.615001 -6.217486
v 1.910090 0.615048 -6.217475
v 1.908263 0.622388 -6.215752
v 1.908250 0.622440 -6.215739
v 1.906365 0.629411 -6.213965
v 1.906349 0.629466 -6.213951
v 1.904424 0.636072 -6.212143
v 1.904407 0.636130 -6.212127
v 1.902461 0.642368 -6.210303
v 1.902442 0.642427 -6.210285
v 1.900496 0.648291 -6.208464
v 1.900475 0.648351 -6.208445
v 1.898549 0.653837 -6.206645
v 1.898527 0.653898 -6.206624
v 1.896639 0.659005 -6.204862
v 1.896616 0.659066 -6.204840
v 1.894783 0.663798 -6.203131
v 1.894758 0.663860 -6.203107
v 1.892992 0.668228 -6.201462
v 1.892966 0.668292 -6.201437
v 1.891277 0.672310 -6.199865
v 1.891250 0.672373 -6.199839
v 1.889646 0.676054 -6.198347
v 1.889619 0.676116 -6.198322
v 1.888111 0.679469 -6.196919
v 1.888083 0.679529 -6.196894
v 1.886687 0.682544 -6.195596
v 1.886660 0.682601 -6.195571
v 1.885393 0.685267 -6.194394
v 1.885368 0.685319 -6.194371
v 1.923277 0.563345 -6.222856
v 1.921015 0.563251 -6.224334
v 1.925498 0.563430 -6.221318
v 1.927678 0.563504 -6.219720
v 1.929815 0.563569 -6.218065
v 1.931906 0.563625 -6.216352
v 1.933951 0.563670 -6.214585
v 1.935948 0.563705 -6.212763
v 1.937896 0.563730 -6.210888
v 1.939793 0.563745 -6.208961
v 1.941637 0.563750 -6.206985
v 1.943428 0.563745 -6.204959
v 1.945164 0.563730 -6.202887
v 1.946844 0.563705 -6.200769
v 1.948467 0.563670 -6.198606
v 1.950031 0.563625 -6.196401
v 1.951535 0.563569 -6.194156
v 1.952978 0.563504 -6.191870
v 1.954360 0.563430 -6.189548
v 1.955678 0.563345 -6.187189
v 1.956933 0.563251 -6.184796
v 1.886806 0.690265 -6.189936
v 1.889466 0.692450 -6.186532
v 1.892215 0.694188 -6.183128
v 1.895040 0.695487 -6.179736
v 1.897928 0.696352 -6.176369
v 1.900872 0.696787 -6.173034
v 1.903865 0.696792 -6.169739
v 1.906902 0.696368 -6.166488
v 1.909978 0.695513 -6.163288
v 1.913084 0.694225 -6.160148
v 1.916211 0.692497 -6.157082
v 1.919347 0.690320 -6.154103
v 1.955749 0.572814 -6.183963
v 1.955747 0.572824 -6.183962
v 1.954382 0.582024 -6.182957
v 1.954379 0.582044 -6.182954
v 1.952856 0.590876 -6.181798
v 1.952851 0.590904 -6.181794
v 1.951192 0.599371 -6.180506
v 1.951185 0.599406 -6.180500
v 1.949409 0.607510 -6.179099
v 1.949400 0.607552 -6.179092
v 1.947529 0.615292 -6.177596
v 1.947517 0.615339 -6.177587
v 1.945572 0.622710 -6.176016
v 1.945558 0.622762 -6.176004
v 1.943559 0.629764 -6.174375
v 1.943542 0.629819 -6.174362
v 1.941507 0.636455 -6.172692
v 1.941489 0.636513 -6.172677
v 1.939437 0.642780 -6.170985
v 1.939417 0.642840 -6.170968
v 1.937369 0.648732 -6.169271
v 1.937348 0.648793 -6.169253
v 1.935325 0.654306 -6.167569
v 1.935302 0.654367 -6.167550
v 1.933323 0.659500 -6.165897
v 1.933298 0.659562 -6.165877
v 1.931380 0.664318 -6.164269
v 1.931354 0.664381 -6.164247
v 1.929507 0.668772 -6.162696
v 1.929480 0.668836 -6.162673
v 1.927715 0.672876 -6.161187
v 1.927687 0.672939 -6.161163
v 1.926014 0.676641 -6.159752
v 1.925985 0.676704 -6.159727
v 1.924413 0.680075 -6.158399
v 1.924384 0.680135 -6.158374
v 1.922929 0.683168 -6.157143
v 1.922902 0.683225 -6.157120
v 1.921582 0.685906 -6.156001
v 1.921556 0.685959 -6.155979
v 1.920389 0.688279 -6.154989
v 1.920365 0.688326 -6.154969
v 1.919366 0.690277 -6.154120
v 1.959247 0.563033 -6.179915
v 1.958123 0.563146 -6.182371
v 1.960305 0.562909 -6.177430
v 1.961296 0.562777 -6.174917
v 1.962219 0.562635 -6.172380
v 1.963073 0.562483 -6.169820
v 1.963858 0.562323 -6.167237
v 1.964573 0.562154 -6.164635
v 1.965217 0.561975 -6.162016
v 1.965791 0.561788 -6.159381
v 1.922482 0.687688 -6.151227
v 1.925601 0.684603 -6.148467
v 1.928680 0.681098 -6.145844
v 1.931692 0.677209 -6.143380
v 1.934613 0.672971 -6.141095
v 1.937419 0.668417 -6.139007
v 1.940110 0.663558 -6.137114
v 1.942691 0.658397 -6.135409
v 1.945168 0.652938 -6.133885
v 1.947546 0.647186 -6.132535
v 1.949824 0.641154 -6.131357
v 1.964987 0.570884 -6.157134
v 1.964986 0.570894 -6.157131
v 1.963986 0.579596 -6.154769
v 1.963984 0.579615 -6.154764
v 1.962814 0.587924 -6.152307
v 1.962810 0.587950 -6.152299
v 1.961494 0.595870 -6.149769
v 1.961488 0.595903 -6.149758
v 1.960046 0.603443 -6.147171
v 1.960038 0.603482 -6.147157
v 1.958492 0.610642 -6.144533
v 1.958482 0.610686 -6.144517
v 1.956854 0.617468 -6.141874
v 1.956842 0.617515 -6.141855
v 1.955151 0.623923 -6.139213
v 1.955137 0.623974 -6.139192
v 1.953403 0.630014 -6.136565
v 1.953387 0.630066 -6.136542
v 1.951628 0.635741 -6.133949
v 1.951611 0.635794 -6.133924
v 1.949847 0.641101 -6.131384
v 1.966724 0.561389 -6.154070
v 1.966294 0.561593 -6.156731
v 1.967084 0.561176 -6.151399
v 1.967370 0.560955 -6.148720
v 1.967585 0.560727 -6.146034
v 1.967727 0.560490 -6.143345
v 1.967796 0.560246 -6.140653
v 1.967792 0.559995 -6.137961
v 1.967716 0.559736 -6.135271
v 1.967567 0.559470 -6.132585
v 1.967346 0.559197 -6.129904
v 1.951997 0.634856 -6.130353
v 1.954060 0.628310 -6.129523
v 1.956009 0.621531 -6.128868
v 1.957841 0.614529 -6.128388
v 1.959556 0.607306 -6.128081
v 1.961157 0.599862 -6.127944
v 1.962641 0.592200 -6.127977
v 1.964009 0.584315 -6.128180
v 1.965254 0.576196 -6.128563
v 1.966369 0.567827 -6.129134
f 1 2 3
f 1 4 2
f 1 5 4
f 1 6 5
f 1 7 6
f 1 8 7
f 1 9 8
f 1 10 9
f 1 11 10
f 1 12 13
f 1 13 14
f 1 14 15
f 1 15 16
f 1 16 17
f 1 17 18
f 1 18 19
f 1 19 20
f 1 20 21
f 1 22 11
f 1 23 22
f 1 24 23
f 1 25 24
f 1 26 25
f 1 27 26
f 1 28 27
f 1 29 28
f 1 30 29
f 1 31 30
f 1 32 31
f 1 33 32
f 1 34 33
f 1 35 34
f 1 36 35
f 1 37 36
f 1 38 37
f 1 39 38
f 1 21 39
f 11 40 41
f 11 42 40
f 11 43 42
f 11 44 43
f 11 45 44
f 11 46 45
f 11 47 46
f 11 48 47
f 11 49 48
f 21 50 51
f 21 51 52
f 21 52 53
f 21 53 54
f 21 54 55
f 21 55 56
f 21 56 57
f 21 57 58
f 21 58 59
f 21 59 60
f 11 22 49
f 22 61 49
f 22 23 61
f 23 62 61
f 23 24 62
f 24 63 62
f 24 25 63
f 25 64 63
f 25 26 64
f 26 65 64
f 26 27 65
f 27 66 65
f 27 28 66
f 28 67 66
f 28 29 67
f 29 68 67
f 29 30 68
f 30 69 68
f 30 31 69
f 31 70 69
f 31 32 70
f 32 71 70
f 32 33 71
f 33 72 71
f 33 34 72
f 34 73 72
f 34 35 73
f 35 74 73
f 35 36 74
f 36 75 74
f 36 37 75
f 37 76 75
f 37 38 76
f 38 77 76
f 38 39 77
f 39 78 77
f 39 21 78
f 21 79 78
f 21 80 79
f 21 81 80
f 21 82 81
f 21 83 82
f 21 84 83
f 21 85 84
f 21 86 85
f 21 87 86
f 21 88 87
f 21 89 88
f 21 90 89
f 21 91 90
f 21 92 91
f 21 93 92
f 21 94 93
f 21 95 94
f 21 96 95
f 21 97 96
f 21 98 97
f 21 99 98
f 21 100 99
f 21 60 100
f 49 101 102
f 49 103 101
f 49 104 103
f 49 105 104
f 49 106 105
f 49 107 106
f 49 108 107
f 49 109 108
f 49 110 109
f 49 111 110
f 49 112 111
f 49 113 112
f 49 114 113
f 49 115 114
f 49 116 115
f 49 117 116
f 49 118 117
f 49 119 118
f 49 120 119
f 49 121 120
f 60 122 123
f 60 123 124
f 60 124 125
f 60 125 126
f 60 126 127
f 60 127 128
f 60 128 129
f 60 129 130
f 60 130 131
f 60 131 132
f 60 132 133
f 49 61 121
f 61 134 121
f 61 62 134
f 62 135 134
f 62 63 135
f 63 136 135
f 63 64 136
f 64 137 136
f 64 65 137
f 65 138 137
f 65 66 138
f 66 139 138
f 66 67 139
f 67 140 139
f 67 68 140
f 68 141 140
f 68 69 141
f 69 142 141
f 69 70 142
f 70 143 142
f 70 71 143
f 71 144 143
f 71 72 144
f 72 145 144
f 72 73 145
f 73 146 145
f 73 74 146
f 74 147 146
f 74 75 147
f 75 148 147
f 75 76 148
f 76 149 148
f 76 77 149
f 77 150 149
f 77 78 150
f 78 151 150
f 78 79 151
f 79 152 151
f 79 80 152
f 80 153 152
f 80 81 153
f 81 154 153
f 81 82 154
f 82 155 154
f 82 83 155
f 83 156 155
f 83 84 156
f 84 157 156
f 84 85 157
f 85 158 157
f 85 86 158
f 86 159 158
f 86 87 159
f 87 160 159
f 87 88 160
f 88 161 160
f 88 89 161
f 89 162 161
f 89 90 162
f 90 163 162
f 90 91 163
f 91 164 163
f 91 92 164
f 92 165 164
f 92 93 165
f 93 166 165
f 93 94 166
f 94 167 166
f 94 95 167
f 95 168 167
f 95 96 168
f 96 169 168
f 96 97 169
f 97 170 169
f 97 98 170
f 98 171 170
f 98 99 171
f 99 172 171
f 99 100 172
f 100 173 172
f 100 60 173
f 60 174 173
f 60 175 174
f 60 176 175
f 60 133 176
f 121 177 178
f 121 179 177
f 121 180 179
f 121 181 180
f 121 182 181
f 121 183 182
f 121 184 183
f 121 185 184
f 121 186 185
f 133 187 188
f 133 188 189
f 133 189 190
f 133 190 191
f 133 191 192
f 133 192 193
f 133 193 194
f 133 194 195
f 133 195 196
f 133 196 197
f 121 134 186
f 134 198 186
f 134 135 198
f 135 199 198
f 135 136 199
f 136 200 199
f 136 137 200
f 137 201 200
f 137 138 201
f 138 202 201
f 138 139 202
f 139 203 202
f 139 140 203
f 140 204 203
f 140 141 204
f 141 205 204
f 141 142 205
f 142 206 205
f 142 143 206
f 143 207 206
f 143 144 207
f 144 208 207
f 144 145 208
f 145 209 208
f 145 146 209
f 146 210 209
f 146 147 210
f 147 211 210
f 147 148 211
f 148 212 211
f 148 149 212
f 149 213 212
f 149 150 213
f 150 214 213
f 150 151 214
f 151 215 214
f 151 152 215
f 152 216 215
f 152 153 216
f 153 217 216
f 153 154 217
f 154 218 217
f 154 155 218
f 155 197 218
f 155 156 197
f 156 157 197
f 157 158 197
f 158 159 197
f 159 160 197
f 160 161 197
f 161 162 197
f 162 163 197
f 163 164 197
f 164 165 197
f 165 166 197
f 166 167 197
f 167 168 197
f 168 169 197
f 169 170 197
f 170 171 197
f 171 172 197
f 172 173 197
f 173 174 197
f 174 175 197
f 175 176 197
f 176 133 197
f 186 219 220
f 186 221 219
f 186 222 221
f 186 223 222
f 186 224 223
f 186 225 224
f 186 226 225
f 186 227 226
f 186 228 227
f 186 229 228
f 197 230 231
f 197 231 232
f 197 232 233
f 197 233 234
f 197 234 235
f 197 235 236
f 197 236 237
f 197 237 238
f 197 238 239
f 197 239 229
f 186 198 229
f 198 199 229
f 199 200 229
f 200 201 229
f 201 202 229
f 202 203 229
f 203 204 229
f 204 205 229
f 205 206 229
f 206 207 229
f 207 208 229
f 208 209 229
f 209 210 229
f 210 211 229
f 211 212 229
f 212 213 229
f 213 214 229
f 214 215 229
f 215 216 229
f 216 217 229
f 217 218 229
f 218 197 229
