v 2.325000 0.000000 -4.664620
v 2.324974 -0.014330 -5.238000
v 2.325000 0.000000 -5.238000
v 2.324941 -0.021648 -4.664848
v 2.324896 -0.028660 -5.238000
v 2.324768 -0.042963 -4.665521
v 2.324766 -0.042990 -5.238000
v 2.324584 -0.057319 -5.238000
v 2.324485 -0.063948 -4.666624
v 2.324350 -0.071647 -5.238000
v 2.324097 -0.084602 -4.668139
v 2.324064 -0.085975 -5.238000
v 2.323726 -0.100301 -5.238000
v 2.323610 -0.104927 -4.670049
v 2.323336 -0.114626 -5.238000
v 2.323028 -0.124923 -4.672339
v 2.322895 -0.128950 -5.238000
v 2.322401 -0.143271 -5.238000
v 2.322355 -0.144593 -4.674991
v 2.321855 -0.157591 -5.238000
v 2.321598 -0.163936 -4.677989
v 2.321257 -0.171909 -5.238000
v 2.320761 -0.182954 -4.681316
v 2.320608 -0.186225 -5.238000
v 2.319906 -0.200538 -5.238000
v 2.319849 -0.201647 -4.684956
v 2.319153 -0.214848 -5.238000
v 2.318866 -0.220013 -4.688893
v 2.318347 -0.229156 -5.238000
v 2.317818 -0.238049 -4.693112
v 2.317490 -0.243460 -5.238000
v 2.316709 -0.255750 -4.697599
v 2.316581 -0.257762 -5.238000
v 2.315620 -0.272060 -5.238000
v 2.315544 -0.273114 -4.702339
v 2.314607 -0.286354 -5.238000
v 2.314327 -0.290136 -4.707316
v 2.313542 -0.300645 -5.238000
v 2.313064 -0.306814 -4.712517
v 2.312425 -0.314931 -5.238000
v 2.311758 -0.323143 -4.717926
v 2.311257 -0.329214 -5.238000
v 2.310415 -0.339121 -4.723528
v 2.310037 -0.343492 -5.238000
v 2.309040 -0.354744 -4.729308
v 2.308765 -0.357766 -5.238000
v 2.307635 -0.370014 -4.735256
v 2.307441 -0.372035 -5.238000
v 2.306203 -0.384940 -4.741362
v 2.306065 -0.386299 -5.238000
v 2.304749 -0.399527 -4.747617
v 2.304638 -0.400558 -5.238000
v 2.303273 -0.413783 -4.754010
v 2.303159 -0.414812 -5.238000
v 2.301780 -0.427714 -4.760534
v 2.301628 -0.429060 -5.238000
v 2.300272 -0.441326 -4.767178
v 2.300046 -0.443303 -5.238000
v 2.298752 -0.454628 -4.773934
v 2.298411 -0.457539 -5.238000
v 2.297223 -0.467625 -4.780791
v 2.296726 -0.471770 -5.238000
v 2.295687 -0.480325 -4.787741
v 2.294988 -0.485995 -5.238000
v 2.294147 -0.492733 -4.794777
v 2.293199 -0.500213 -5.238000
v 2.292604 -0.504856 -4.801892
v 2.291359 -0.514425 -5.238000
v 2.291060 -0.516700 -4.809082
v 2.289517 -0.528269 -4.816340
v 2.289467 -0.528629 -5.238000
v 2.287975 -0.539571 -4.823663
v 2.287523 -0.542827 -5.238000
v 2.286436 -0.550611 -4.831043
v 2.285528 -0.557018 -5.238000
v 2.284903 -0.561395 -4.838475
v 2.283482 -0.571201 -5.238000
v 2.283375 -0.571928 -4.845955
v 2.281856 -0.582217 -4.853477
v 2.281384 -0.585377 -5.238000
v 2.280345 -0.592268 -4.861036
v 2.279234 -0.599545 -5.238000
v 2.278845 -0.602085 -4.868629
v 2.277354 -0.611674 -4.876254
v 2.277034 -0.613706 -5.238000
v 2.275875 -0.621040 -4.883907
v 2.274781 -0.627858 -5.238000
v 2.274407 -0.630189 -4.891585
v 2.272952 -0.639126 -4.899285
v 2.272478 -0.642002 -5.238000
v 2.271510 -0.647856 -4.907005
v 2.270123 -0.656137 -5.238000
v 2.270082 -0.656385 -4.914742
v 2.268668 -0.664718 -4.922492
v 2.267717 -0.670264 -5.238000
v 2.267269 -0.672860 -4.930253
v 2.265886 -0.680813 -4.938021
v 2.265260 -0.684382 -5.238000
v 2.264519 -0.688582 -4.945794
v 2.263168 -0.696169 -4.953568
v 2.262751 -0.698491 -5.238000
v 2.261835 -0.703577 -4.961340
v 2.260518 -0.710810 -4.969107
v 2.260192 -0.712591 -5.238000
v 2.259220 -0.717870 -4.976867
v 2.257940 -0.724760 -4.984616
v 2.257581 -0.726681 -5.238000
v 2.256679 -0.731484 -4.992350
v 2.255928 -0.735457 -4.996998
v 2.255181 -0.739387 -5.001644
v 2.254919 -0.740762 -5.238000
v 2.254439 -0.743273 -5.006289
v 2.253701 -0.747116 -5.010931
v 2.252967 -0.750916 -5.015572
v 2.252238 -0.754673 -5.020209
v 2.252206 -0.754833 -5.238000
v 2.251513 -0.758389 -5.024844
v 2.250792 -0.762063 -5.029475
v 2.250076 -0.765696 -5.034101
v 2.249442 -0.768894 -5.238000
v 2.249365 -0.769288 -5.038724
v 2.248658 -0.772840 -5.043341
v 2.247955 -0.776351 -5.047954
v 2.247258 -0.779823 -5.052561
v 2.246627 -0.782945 -5.238000
v 2.246565 -0.783256 -5.057162
v 2.245877 -0.786649 -5.061756
v 2.245193 -0.790004 -5.066344
v 2.244515 -0.793321 -5.070925
v 2.243841 -0.796599 -5.075498
v 2.243761 -0.796986 -5.238000
v 2.243172 -0.799841 -5.080063
v 2.242508 -0.803045 -5.084620
v 2.241849 -0.806213 -5.089169
v 2.241195 -0.809345 -5.093709
v 2.240844 -0.811017 -5.238000
v 2.240546 -0.812440 -5.098241
v 2.239901 -0.815501 -5.102764
v 2.239262 -0.818526 -5.107278
v 2.238627 -0.821517 -5.111784
v 2.237997 -0.824474 -5.116280
v 2.237877 -0.825036 -5.238000
v 2.237372 -0.827397 -5.120768
v 2.236752 -0.830287 -5.125246
v 2.236137 -0.833144 -5.129715
v 2.235526 -0.835969 -5.134174
v 2.234920 -0.838761 -5.138624
v 2.234858 -0.839045 -5.238000
v 2.234319 -0.841522 -5.143064
v 2.233723 -0.844252 -5.147494
v 2.233131 -0.846951 -5.151914
v 2.232544 -0.849620 -5.156325
v 2.231962 -0.852259 -5.160725
v 2.231789 -0.853043 -5.238000
v 2.231384 -0.854868 -5.165115
v 2.230812 -0.857448 -5.169494
v 2.230243 -0.859999 -5.173863
v 2.229680 -0.862521 -5.178220
v 2.229121 -0.865015 -5.182567
v 2.228668 -0.867029 -5.238000
v 2.228567 -0.867481 -5.186903
v 2.228017 -0.869919 -5.191227
v 2.227472 -0.872329 -5.195540
v 2.226932 -0.874712 -5.199842
v 2.226397 -0.877067 -5.204131
v 2.225865 -0.879396 -5.208408
v 2.225498 -0.881004 -5.238000
v 2.225339 -0.881698 -5.212674
v 2.224817 -0.883974 -5.216927
v 2.224300 -0.886224 -5.221167
v 2.223787 -0.888448 -5.225395
v 2.223279 -0.890646 -5.229610
v 2.222775 -0.892819 -5.233811
v 2.222276 -0.894968 -5.238000
f 1 2 3
f 1 4 2
f 4 5 2
f 4 6 5
f 6 7 5
f 6 8 7
f 6 9 8
f 9 10 8
f 9 11 10
f 11 12 10
f 11 13 12
f 11 14 13
f 14 15 13
f 14 16 15
f 16 17 15
f 16 18 17
f 16 19 18
f 19 20 18
f 19 21 20
f 21 22 20
f 21 23 22
f 23 24 22
f 23 25 24
f 23 26 25
f 26 27 25
f 26 28 27
f 28 29 27
f 28 30 29
f 30 31 29
f 30 32 31
f 32 33 31
f 32 34 33
f 32 35 34
f 35 36 34
f 35 37 36
f 37 38 36
f 37 39 38
f 39 40 38
f 39 41 40
f 41 42 40
f 41 43 42
f 43 44 42
f 43 45 44
f 45 46 44
f 45 47 46
f 47 48 46
f 47 49 48
f 49 50 48
f 49 51 50
f 51 52 50
f 51 53 52
f 53 54 52
f 53 55 54
f 55 56 54
f 55 57 56
f 57 58 56
f 57 59 58
f 59 60 58
f 59 61 60
f 61 62 60
f 61 63 62
f 63 64 62
f 63 65 64
f 65 66 64
f 65 67 66
f 67 68 66
f 67 69 68
f 69 70 68
f 70 71 68
f 70 72 71
f 72 73 71
f 72 74 73
f 74 75 73
f 74 76 75
f 76 77 75
f 76 78 77
f 78 79 77
f 79 80 77
f 79 81 80
f 81 82 80
f 81 83 82
f 83 84 82
f 84 85 82
f 84 86 85
f 86 87 85
f 86 88 87
f 88 89 87
f 89 90 87
f 89 91 90
f 91 92 90
f 91 93 92
f 93 94 92
f 94 95 92
f 94 96 95
f 96 97 95
f 97 98 95
f 97 99 98
f 99 100 98
f 100 101 98
f 100 102 101
f 102 103 101
f 103 104 101
f 103 105 104
f 105 106 104
f 106 107 104
f 106 108 107
f 108 109 107
f 109 110 107
f 110 111 107
f 110 112 111
f 112 113 111
f 113 114 111
f 114 115 111
f 115 116 111
f 115 117 116
f 117 118 116
f 118 119 116
f 119 120 116
f 119 121 120
f 121 122 120
f 122 123 120
f 123 124 120
f 124 125 120
f 124 126 125
f 126 127 125
f 127 128 125
f 128 129 125
f 129 130 125
f 130 131 125
f 130 132 131
f 132 133 131
f 133 134 131
f 134 135 131
f 135 136 131
f 135 137 136
f 137 138 136
f 138 139 136
f 139 140 136
f 140 141 136
f 141 142 136
f 141 143 142
f 143 144 142
f 144 145 142
f 145 146 142
f 146 147 142
f 147 148 142
f 147 149 148
f 149 150 148
f 150 151 148
f 151 152 148
f 152 153 148
f 153 154 148
f 153 155 154
f 155 156 154
f 156 157 154
f 157 158 154
f 158 159 154
f 159 160 154
f 159 161 160
f 161 162 160
f 162 163 160
f 163 164 160
f 164 165 160
f 165 166 160
f 166 167 160
f 166 168 167
f 168 169 167
f 169 170 167
f 170 171 167
f 171 172 167
f 172 173 167
f 173 174 167
