v -1.171011 -0.450160 -4.212259
v -1.171011 -0.451435 -4.231786
v -1.171011 -0.453982 -4.251189
v -1.171011 -0.457788 -4.270385
v -1.171011 -0.462837 -4.289292
v -1.171011 -0.469108 -4.307830
v -1.171011 -0.476575 -4.325919
v -1.171011 -0.485205 -4.343483
v -1.171011 -0.494961 -4.360446
v -1.171011 -0.505803 -4.376738
v -1.171011 -0.517684 -4.392288
v -1.171011 -0.530554 -4.407030
v -1.171011 -0.544357 -4.420902
v -1.171011 -0.559036 -4.433845
v -1.171011 -0.574527 -4.445803
v -1.171011 -0.590764 -4.456726
v -1.855756 -0.450160 -4.212259
v -1.855756 -0.451435 -4.231786
v -1.855756 -0.453982 -4.251189
v -1.855756 -0.457788 -4.270385
v -1.855756 -0.462837 -4.289292
v -1.855756 -0.469108 -4.307830
v -1.855756 -0.476575 -4.325919
v -1.855756 -0.485205 -4.343483
v -1.855756 -0.494961 -4.360446
v -1.855756 -0.505803 -4.376738
v -1.855756 -0.517684 -4.392288
v -1.855756 -0.530554 -4.407030
v -1.855756 -0.544357 -4.420902
v -1.855756 -0.559036 -4.433845
v -1.855756 -0.574527 -4.445803
v -1.855756 -0.590764 -4.456726
v -2.540501 -0.450160 -4.212259
v -2.540501 -0.451435 -4.231786
v -2.540501 -0.453982 -4.251189
v -2.540501 -0.457788 -4.270385
v -2.540501 -0.462837 -4.289292
v -2.540501 -0.469108 -4.307830
v -2.540501 -0.476575 -4.325919
v -2.540501 -0.485205 -4.343483
v -2.540501 -0.494961 -4.360446
v -2.540501 -0.505803 -4.376738
v -2.540501 -0.517684 -4.392288
v -2.540501 -0.530554 -4.407030
v -2.540501 -0.544357 -4.420902
v -2.540501 -0.559036 -4.433845
v -2.540501 -0.574527 -4.445803
v -2.540501 -0.590764 -4.456726
f 1 2 18
f 1 18 17
f 2 3 19
f 2 19 18
f 3 4 20
f 3 20 19
f 4 5 21
f 4 21 20
f 5 6 22
f 5 22 21
f 6 7 23
f 6 23 22
f 7 8 24
f 7 24 23
f 8 9 25
f 8 25 24
f 9 10 26
f 9 26 25
f 10 11 27
f 10 27 26
f 11 12 28
f 11 28 27
f 12 13 29
f 12 29 28
f 13 14 30
f 13 30 29
f 14 15 31
f 14 31 30
f 15 16 32
f 15 32 31
f 17 18 34
f 17 34 33
f 18 19 35
f 18 35 34
f 19 20 36
f 19 36 35
f 20 21 37
f 20 37 36
f 21 22 38
f 21 38 37
f 22 23 39
f 22 39 38
f 23 24 40
f 23 40 39
f 24 25 41
f 24 41 40
f 25 26 42
f 25 42 41
f 26 27 43
f 26 43 42
f 27 28 44
f 27 44 43
f 28 29 45
f 28 45 44
f 29 30 46
f 29 46 45
f 30 31 47
f 30 47 46
f 31 32 48
f 31 48 47
