v 0.622631 0.016611 0.264827
v 0.620989 0.015112 0.264858
v 0.619185 0.013592 0.265211
v 0.617494 0.012302 0.265878
v 0.615784 0.011166 0.266974
v 0.614342 0.010403 0.268373
v 0.613130 0.010021 0.270184
v 0.622631 0.115000 0.264827
v 0.620989 0.115000 0.264858
v 0.619185 0.115000 0.265211
v 0.617494 0.115000 0.265878
v 0.615783 0.115000 0.266973
v 0.614342 0.115000 0.268373
v 0.613130 0.115000 0.270184
v 0.622631 0.220000 0.264827
v 0.620989 0.220000 0.264858
v 0.619185 0.220000 0.265211
v 0.617494 0.220000 0.265878
v 0.615783 0.220000 0.266973
v 0.614342 0.220000 0.268373
v 0.613130 0.220000 0.270184
f 1 9 2
f 1 8 9
f 2 10 3
f 2 9 10
f 3 11 4
f 3 10 11
f 4 12 5
f 4 11 12
f 5 13 6
f 5 12 13
f 6 14 7
f 6 13 14
f 8 16 9
f 8 15 16
f 9 17 10
f 9 16 17
f 10 18 11
f 10 17 18
f 11 19 12
f 11 18 19
f 12 20 13
f 12 19 20
f 13 21 14
f 13 20 21
