v -0.186514 0.010000 0.643516
v -0.183984 0.010000 0.644244
v -0.181450 0.010000 0.644962
v -0.178914 0.010000 0.645670
v -0.176375 0.010000 0.646368
v -0.173833 0.010000 0.647057
v -0.171288 0.010000 0.647735
v -0.168741 0.010000 0.648403
v -0.166191 0.010000 0.649061
v -0.163639 0.010000 0.649709
v -0.161084 0.010000 0.650348
v -0.186514 0.220000 0.643516
v -0.183984 0.220000 0.644244
v -0.181450 0.220000 0.644962
v -0.178914 0.220000 0.645670
v -0.176375 0.220000 0.646368
v -0.173833 0.220000 0.647057
v -0.171288 0.220000 0.647735
v -0.168741 0.220000 0.648403
v -0.166191 0.220000 0.649061
v -0.163639 0.220000 0.649709
v -0.161084 0.220000 0.650348
f 1 2 13
f 1 13 12
f 2 3 14
f 2 14 13
f 3 4 15
f 3 15 14
f 4 5 16
f 4 16 15
f 5 6 17
f 5 17 16
f 6 7 18
f 6 18 17
f 7 8 19
f 7 19 18
f 8 9 20
f 8 20 19
f 9 10 21
f 9 21 20
f 10 11 22
f 10 22 21
