v 1.667500 -0.990594 -4.837000
v 1.667799 -0.996215 -4.846815
v 1.667500 -0.350000 -4.837000
v 1.668334 -0.350000 -4.853440
v 1.668678 -1.001526 -4.856489
v 1.670112 -1.006523 -4.865988
v 1.670826 -0.350000 -4.869711
v 1.672074 -1.011202 -4.875279
v 1.674540 -1.015559 -4.884329
v 1.674952 -0.350000 -4.885647
v 1.677488 -1.019599 -4.893120
v 1.680669 -0.350000 -4.901083
v 1.680901 -1.023328 -4.901643
v 1.684759 -1.026753 -4.909888
v 1.687919 -0.350000 -4.915862
v 1.689043 -1.029880 -4.917843
v 1.693725 -1.032713 -4.925491
v 1.696626 -0.350000 -4.929831
v 1.698763 -1.035252 -4.932802
v 1.704118 -1.037499 -4.939750
v 1.706702 -0.350000 -4.942848
v 1.709752 -1.039454 -4.946305
v 1.715635 -1.041122 -4.952457
v 1.718043 -0.350000 -4.954779
v 1.721761 -1.042516 -4.958218
v 1.728126 -1.043647 -4.963606
v 1.730533 -0.350000 -4.965501
v 1.734723 -1.044529 -4.968638
v 1.741551 -1.045170 -4.973325
v 1.744043 -0.350000 -4.974905
v 1.748617 -1.045567 -4.977664
v 1.755931 -1.045716 -4.981649
v 1.758436 -0.350000 -4.982893
v 1.763504 -1.045610 -4.985274
v 1.771338 -1.045246 -4.988530
v 1.773563 -0.350000 -4.989385
v 1.779398 -1.044621 -4.991400
v 1.787632 -1.043737 -4.993863
v 1.789269 -0.350000 -4.994313
v 1.795991 -1.042594 -4.995897
v 1.804423 -1.041193 -4.997480
v 1.805393 -0.350000 -4.997626
v 1.812904 -1.039534 -4.998606
v 1.821422 -1.037619 -4.999279
v 1.821770 -0.350000 -4.999291
v 1.829969 -1.035447 -4.999501
v 1.838230 -0.350000 -4.999291
v 1.838535 -1.033020 -4.999276
v 1.847116 -1.030334 -4.998600
v 1.854607 -0.350000 -4.997626
v 1.855710 -1.027374 -4.997459
v 1.864319 -1.024128 -4.995838
v 1.870731 -0.350000 -4.994313
v 1.872942 -1.020583 -4.993723
v 1.881571 -1.016727 -4.991099
v 1.886437 -0.350000 -4.989385
v 1.890179 -1.012549 -4.987947
v 1.898734 -1.008040 -4.984250
v 1.901564 -0.350000 -4.982893
v 1.907205 -1.003190 -4.979989
v 1.915557 -0.997993 -4.975148
v 1.915957 -0.350000 -4.974905
v 1.923742 -0.992452 -4.969729
v 1.929467 -0.350000 -4.965501
v 1.931705 -0.986578 -4.963733
v 1.939391 -0.980379 -4.957166
v 1.941957 -0.350000 -4.954779
v 1.946745 -0.973864 -4.950033
v 1.953298 -0.350000 -4.942848
v 1.953713 -0.967059 -4.942360
v 1.960238 -0.959996 -4.934183
v 1.963374 -0.350000 -4.929831
v 1.966263 -0.952708 -4.925541
v 1.971734 -0.945230 -4.916471
v 1.972081 -0.350000 -4.915862
v 1.976609 -0.937608 -4.907033
v 1.979331 -0.350000 -4.901083
v 1.980862 -0.929910 -4.897315
v 1.984469 -0.922201 -4.887403
v 1.985048 -0.350000 -4.885647
v 1.987406 -0.914548 -4.877385
v 1.989174 -0.350000 -4.869711
v 1.989662 -0.906998 -4.867323
v 1.991251 -0.899564 -4.857233
v 1.991666 -0.350000 -4.853440
v 1.992191 -0.892251 -4.847122
v 1.992500 -0.885067 -4.837000
v 1.992500 -0.350000 -4.837000
f 1 2 3
f 2 4 3
f 2 5 4
f 5 6 4
f 6 7 4
f 6 8 7
f 8 9 7
f 9 10 7
f 9 11 10
f 11 12 10
f 11 13 12
f 13 14 12
f 14 15 12
f 14 16 15
f 16 17 15
f 17 18 15
f 17 19 18
f 19 20 18
f 20 21 18
f 20 22 21
f 22 23 21
f 23 24 21
f 23 25 24
f 25 26 24
f 26 27 24
f 26 28 27
f 28 29 27
f 29 30 27
f 29 31 30
f 31 32 30
f 32 33 30
f 32 34 33
f 34 35 33
f 35 36 33
f 35 37 36
f 37 38 36
f 38 39 36
f 38 40 39
f 40 41 39
f 41 42 39
f 41 43 42
f 43 44 42
f 44 45 42
f 44 46 45
f 46 47 45
f 46 48 47
f 48 49 47
f 49 50 47
f 49 51 50
f 51 52 50
f 52 53 50
f 52 54 53
f 54 55 53
f 55 56 53
f 55 57 56
f 57 58 56
f 58 59 56
f 58 60 59
f 60 61 59
f 61 62 59
f 61 63 62
f 63 64 62
f 63 65 64
f 65 66 64
f 66 67 64
f 66 68 67
f 68 69 67
f 68 70 69
f 70 71 69
f 71 72 69
f 71 73 72
f 73 74 72
f 74 75 72
f 74 76 75
f 76 77 75
f 76 78 77
f 78 79 77
f 79 80 77
f 79 81 80
f 81 82 80
f 81 83 82
f 83 84 82
f 84 85 82
f 84 86 85
f 86 87 85
f 87 88 85
