v -0.485655 0.095730 -1.051000
v -0.485375 0.097141 -1.051103
v -0.485096 0.098521 -1.051408
v -0.484826 0.099841 -1.051909
v -0.484571 0.101076 -1.052596
v -0.484335 0.102200 -1.053453
v -0.484125 0.103191 -1.054463
v -0.483945 0.104029 -1.055605
v -0.483801 0.104698 -1.056856
v -0.483695 0.105186 -1.058190
v -0.483631 0.105482 -1.059581
v -0.483609 0.105582 -1.061000
v -0.550600 0.116973 -1.051000
v -0.550156 0.118331 -1.051103
v -0.549721 0.119660 -1.051408
v -0.549305 0.120932 -1.051909
v -0.548916 0.122123 -1.052595
v -0.548561 0.123208 -1.053452
v -0.548248 0.124165 -1.054462
v -0.547983 0.124976 -1.055605
v -0.547771 0.125623 -1.056856
v -0.547617 0.126095 -1.058190
v -0.547523 0.126382 -1.059581
v -0.547491 0.126478 -1.061000
v -0.615545 0.138217 -1.051000
v -0.615101 0.139575 -1.051103
v -0.614667 0.140904 -1.051408
v -0.614250 0.142176 -1.051909
v -0.613861 0.143367 -1.052595
v -0.613506 0.144452 -1.053452
v -0.613193 0.145409 -1.054462
v -0.612928 0.146219 -1.055605
v -0.612716 0.146867 -1.056856
v -0.612562 0.147338 -1.058190
v -0.612468 0.147625 -1.059581
v -0.612436 0.147721 -1.061000
f 1 14 2
f 1 13 14
f 2 15 3
f 2 14 15
f 3 16 4
f 3 15 16
f 4 17 5
f 4 16 17
f 5 18 6
f 5 17 18
f 6 19 7
f 6 18 19
f 7 20 8
f 7 19 20
f 8 21 9
f 8 20 21
f 9 22 10
f 9 21 22
f 10 23 11
f 10 22 23
f 11 24 12
f 11 23 24
f 13 26 14
f 13 25 26
f 14 27 15
f 14 26 27
f 15 28 16
f 15 27 28
f 16 29 17
f 16 28 29
f 17 30 18
f 17 29 30
f 18 31 19
f 18 30 31
f 19 32 20
f 19 31 32
f 20 33 21
f 20 32 33
f 21 34 22
f 21 33 34
f 22 35 23
f 22 34 35
f 23 36 24
f 23 35 36
