v -0.721693 0.000000 -0.139771
v -0.725974 0.000000 -0.115492
v -0.726039 0.000000 -0.115075
v -0.726086 0.000000 -0.114655
v -0.726115 0.000000 -0.114234
v -0.726126 0.000000 -0.113812
v -0.726119 0.000000 -0.113390
v -0.726095 0.000000 -0.112968
v -0.726053 0.000000 -0.112548
v -0.725993 0.000000 -0.112130
v -0.725916 0.000000 -0.111715
v -0.725821 0.000000 -0.111303
v -0.725709 0.000000 -0.110896
v -0.725579 0.000000 -0.110494
v -0.725433 0.000000 -0.110098
v -0.725271 0.000000 -0.109709
v -0.725092 0.000000 -0.109326
v -0.724897 0.000000 -0.108952
v -0.724686 0.000000 -0.108586
v -0.724460 0.000000 -0.108229
v -0.724220 0.000000 -0.107882
v -0.723964 0.000000 -0.107546
v -0.723695 0.000000 -0.107220
v -0.723413 0.000000 -0.106907
v -0.723117 0.000000 -0.106605
v -0.722809 0.000000 -0.106316
v -0.722489 0.000000 -0.106041
v -0.722158 0.000000 -0.105779
v -0.721816 0.000000 -0.105532
v -0.721463 0.000000 -0.105299
v -0.721102 0.000000 -0.105081
v -0.720731 0.000000 -0.104879
v -0.720352 0.000000 -0.104692
v -0.665322 0.000000 -0.079032
v -0.652229 0.010000 -0.153288
v -0.652781 0.010000 -0.150918
v -0.653325 0.010000 -0.148546
v -0.653861 0.010000 -0.146172
v -0.654387 0.010000 -0.143796
v -0.654905 0.010000 -0.141418
v -0.655415 0.010000 -0.139039
v -0.655915 0.010000 -0.136657
v -0.656407 0.010000 -0.134274
v -0.656891 0.010000 -0.131889
v -0.657365 0.010000 -0.129502
v -0.657831 0.010000 -0.127113
v -0.658289 0.010000 -0.124723
v -0.658738 0.010000 -0.122331
v -0.659178 0.010000 -0.119938
v -0.659609 0.010000 -0.117542
v -0.660031 0.010000 -0.115146
v -0.660445 0.010000 -0.112748
v -0.660850 0.010000 -0.110348
v -0.661247 0.010000 -0.107947
v -0.661635 0.010000 -0.105544
v -0.662014 0.010000 -0.103140
v -0.662384 0.010000 -0.100735
v -0.662745 0.010000 -0.098328
v -0.663098 0.010000 -0.095921
v -0.663442 0.010000 -0.093511
v -0.663778 0.010000 -0.091101
v -0.664104 0.010000 -0.088689
v -0.664422 0.010000 -0.086277
v -0.664731 0.010000 -0.083863
v -0.665031 0.010000 -0.081448
v -0.665322 0.010000 -0.079032
v -0.652229 0.000000 -0.153288
v -0.712717 0.000000 -0.147996
v -0.713136 0.000000 -0.147951
v -0.713554 0.000000 -0.147887
v -0.713968 0.000000 -0.147806
v -0.714379 0.000000 -0.147708
v -0.714785 0.000000 -0.147592
v -0.715186 0.000000 -0.147460
v -0.715581 0.000000 -0.147310
v -0.715969 0.000000 -0.147144
v -0.716350 0.000000 -0.146962
v -0.716723 0.000000 -0.146764
v -0.717087 0.000000 -0.146550
v -0.717442 0.000000 -0.146322
v -0.717787 0.000000 -0.146078
v -0.718121 0.000000 -0.145820
v -0.718444 0.000000 -0.145548
v -0.718755 0.000000 -0.145263
v -0.719054 0.000000 -0.144965
v -0.719340 0.000000 -0.144654
v -0.719613 0.000000 -0.144332
v -0.719872 0.000000 -0.143998
v -0.720117 0.000000 -0.143654
v -0.720346 0.000000 -0.143300
v -0.720561 0.000000 -0.142937
v -0.720760 0.000000 -0.142564
v -0.720944 0.000000 -0.142184
v -0.721111 0.000000 -0.141796
v -0.721261 0.000000 -0.141402
v -0.721395 0.000000 -0.141001
v -0.721512 0.000000 -0.140595
v -0.721611 0.000000 -0.140185
f 1 2 3
f 1 3 4
f 1 4 5
f 1 5 6
f 1 6 7
f 1 7 8
f 1 8 9
f 1 9 10
f 1 10 11
f 1 11 12
f 1 12 13
f 1 13 14
f 1 14 15
f 1 15 16
f 1 16 17
f 1 17 18
f 1 18 19
f 1 19 20
f 1 20 21
f 1 21 22
f 1 22 23
f 1 23 24
f 1 24 25
f 1 25 26
f 1 26 27
f 1 27 28
f 1 28 29
f 1 29 30
f 1 30 31
f 1 31 32
f 1 32 33
f 1 33 34
f 1 34 35
f 1 35 36
f 1 36 37
f 1 37 38
f 1 38 39
f 1 39 40
f 1 40 41
f 1 41 42
f 1 42 43
f 1 43 44
f 1 44 45
f 1 45 46
f 1 46 47
f 1 47 48
f 1 48 49
f 1 49 50
f 1 50 51
f 1 51 52
f 1 52 53
f 1 53 54
f 1 54 55
f 1 55 56
f 1 56 57
f 1 57 58
f 1 58 59
f 1 59 60
f 1 60 61
f 1 61 62
f 1 62 63
f 1 63 64
f 1 64 65
f 1 65 66
f 1 66 67
f 1 67 68
f 1 68 69
f 1 69 70
f 1 70 71
f 1 71 72
f 1 72 73
f 1 73 74
f 1 74 75
f 1 75 76
f 1 76 77
f 1 77 78
f 1 78 79
f 1 79 80
f 1 80 81
f 1 81 82
f 1 82 83
f 1 83 84
f 1 84 85
f 1 85 86
f 1 86 87
f 1 87 88
f 1 88 89
f 1 89 90
f 1 90 91
f 1 91 92
f 1 92 93
f 1 93 94
f 1 94 95
f 1 95 96
f 1 96 97
f 1 97 98
