v 1.717718 -0.565914 -6.429948
v 1.715388 -0.566481 -6.436174
v 1.716588 -0.566201 -6.433074
v 1.714119 -0.566753 -6.439248
v 1.712782 -0.567016 -6.442293
v 1.711378 -0.567271 -6.445309
v 1.709907 -0.567518 -6.448293
v 1.708370 -0.567756 -6.451244
v 1.706768 -0.567985 -6.454162
v 1.705101 -0.568205 -6.457043
v 1.703371 -0.568416 -6.459888
v 1.716859 -0.575869 -6.428798
v 1.715711 -0.585495 -6.427880
v 1.714292 -0.594808 -6.427182
v 1.712615 -0.603827 -6.426691
v 1.710698 -0.612567 -6.426396
v 1.708552 -0.621032 -6.426289
v 1.706184 -0.629214 -6.426367
v 1.703602 -0.637099 -6.426628
v 1.700813 -0.644677 -6.427071
v 1.697824 -0.651937 -6.427691
v 1.703383 -0.578798 -6.457103
v 1.703382 -0.578802 -6.457102
v 1.703218 -0.588718 -6.454144
v 1.703218 -0.588726 -6.454141
v 1.702898 -0.598179 -6.451041
v 1.702897 -0.598190 -6.451037
v 1.702441 -0.607188 -6.447824
v 1.702441 -0.607201 -6.447819
v 1.701866 -0.615755 -6.444519
v 1.701865 -0.615771 -6.444512
v 1.701190 -0.623885 -6.441153
v 1.701189 -0.623902 -6.441145
v 1.700431 -0.631569 -6.437757
v 1.700429 -0.631589 -6.437749
v 1.699606 -0.638806 -6.434363
v 1.699603 -0.638826 -6.434353
v 1.698731 -0.645594 -6.430999
v 1.698728 -0.645615 -6.430988
v 1.699723 -0.568811 -6.465460
v 1.701578 -0.568618 -6.462694
v 1.697807 -0.568994 -6.468185
v 1.695831 -0.569168 -6.470868
v 1.693796 -0.569333 -6.473506
v 1.691703 -0.569488 -6.476099
v 1.689553 -0.569633 -6.478646
v 1.687347 -0.569769 -6.481145
v 1.685086 -0.569895 -6.483595
v 1.682771 -0.570011 -6.485995
v 1.694642 -0.658867 -6.428489
v 1.691275 -0.665458 -6.429459
v 1.687730 -0.671698 -6.430600
v 1.684013 -0.677577 -6.431909
v 1.680136 -0.683082 -6.433382
v 1.676115 -0.688200 -6.435009
v 1.671968 -0.692913 -6.436783
v 1.667712 -0.697206 -6.438694
v 1.663365 -0.701065 -6.440733
v 1.658946 -0.704484 -6.442890
v 1.682012 -0.580877 -6.484433
v 1.682012 -0.580882 -6.484432
v 1.681109 -0.591309 -6.482646
v 1.681108 -0.591317 -6.482645
v 1.680079 -0.601302 -6.480665
v 1.680078 -0.601314 -6.480663
v 1.678941 -0.610862 -6.478519
v 1.678940 -0.610877 -6.478516
v 1.677712 -0.619997 -6.476234
v 1.677709 -0.620013 -6.476229
v 1.676407 -0.628704 -6.473837
v 1.676404 -0.628723 -6.473831
v 1.675045 -0.636973 -6.471358
v 1.675041 -0.636994 -6.471351
v 1.673643 -0.644795 -6.468826
v 1.673639 -0.644817 -6.468819
v 1.672219 -0.652165 -6.466271
v 1.672215 -0.652188 -6.466262
v 1.670790 -0.659082 -6.463718
v 1.670784 -0.659106 -6.463708
v 1.669369 -0.665548 -6.461191
v 1.669363 -0.665573 -6.461182
v 1.667970 -0.671569 -6.458715
v 1.667965 -0.671594 -6.458705
v 1.666608 -0.677151 -6.456309
v 1.666602 -0.677174 -6.456299
v 1.665292 -0.682301 -6.453993
v 1.665286 -0.682323 -6.453983
v 1.664034 -0.687027 -6.451783
v 1.664029 -0.687046 -6.451774
v 1.662845 -0.691334 -6.449698
v 1.662840 -0.691350 -6.449690
v 1.661733 -0.695228 -6.447753
v 1.661729 -0.695241 -6.447747
v 1.660708 -0.698713 -6.445963
v 1.660705 -0.698723 -6.445957
v 1.659778 -0.701795 -6.444339
v 1.659775 -0.701804 -6.444335
v 1.677985 -0.570213 -6.490639
v 1.680404 -0.570117 -6.488343
v 1.675516 -0.570299 -6.492881
v 1.672998 -0.570376 -6.495068
v 1.670433 -0.570442 -6.497200
v 1.667820 -0.570498 -6.499274
v 1.665163 -0.570543 -6.501291
v 1.662462 -0.570579 -6.503249
v 1.659718 -0.570605 -6.505146
v 1.656933 -0.570620 -6.506983
v 1.654108 -0.570625 -6.508758
v 1.651245 -0.570620 -6.510470
v 1.648345 -0.570605 -6.512119
v 1.645409 -0.570579 -6.513704
v 1.642439 -0.570543 -6.515223
v 1.639437 -0.570498 -6.516677
v 1.636403 -0.570442 -6.518064
v 1.633340 -0.570376 -6.519383
v 1.630248 -0.570299 -6.520635
v 1.627130 -0.570213 -6.521818
v 1.623987 -0.570117 -6.522933
v 1.654475 -0.707465 -6.445150
v 1.649973 -0.710009 -6.447502
v 1.645459 -0.712117 -6.449932
v 1.640949 -0.713792 -6.452428
v 1.636450 -0.715038 -6.454988
v 1.631965 -0.715864 -6.457606
v 1.627498 -0.716274 -6.460279
v 1.623053 -0.716276 -6.463004
v 1.618635 -0.715868 -6.465778
v 1.614253 -0.715046 -6.468596
v 1.609915 -0.713801 -6.471454
v 1.605630 -0.712128 -6.474349
v 1.601408 -0.710020 -6.477276
v 1.597265 -0.707476 -6.480224
v 1.623070 -0.581014 -6.521503
v 1.623070 -0.581018 -6.521503
v 1.622014 -0.591476 -6.519843
v 1.622013 -0.591484 -6.519842
v 1.620837 -0.601501 -6.517984
v 1.620835 -0.601513 -6.517982
v 1.619556 -0.611094 -6.515954
v 1.619554 -0.611108 -6.515951
v 1.618188 -0.620261 -6.513780
v 1.618186 -0.620277 -6.513776
v 1.616750 -0.629001 -6.511489
v 1.616747 -0.629020 -6.511484
v 1.615260 -0.637302 -6.509111
v 1.615256 -0.637323 -6.509104
v 1.613736 -0.645156 -6.506675
v 1.613732 -0.645178 -6.506667
v 1.612195 -0.652558 -6.504209
v 1.612190 -0.652581 -6.504201
v 1.610654 -0.659505 -6.501740
v 1.610649 -0.659530 -6.501731
v 1.609128 -0.666002 -6.499293
v 1.609122 -0.666026 -6.499284
v 1.607631 -0.672051 -6.496890
v 1.607624 -0.672076 -6.496880
v 1.606175 -0.677660 -6.494553
v 1.606168 -0.677684 -6.494543
v 1.604772 -0.682836 -6.492300
v 1.604766 -0.682858 -6.492290
v 1.603433 -0.687587 -6.490148
v 1.603428 -0.687606 -6.490140
v 1.602169 -0.691917 -6.488116
v 1.602165 -0.691933 -6.488109
v 1.600990 -0.695831 -6.486219
v 1.600986 -0.695844 -6.486213
v 1.599904 -0.699336 -6.484472
v 1.599900 -0.699346 -6.484466
v 1.598919 -0.702435 -6.482886
v 1.598916 -0.702444 -6.482882
v 1.598039 -0.705141 -6.481471
v 1.598037 -0.705149 -6.481467
v 1.597269 -0.707469 -6.480230
v 1.617632 -0.569895 -6.524951
v 1.620820 -0.570011 -6.523977
v 1.614423 -0.569769 -6.525855
v 1.611195 -0.569633 -6.526688
v 1.607950 -0.569488 -6.527449
v 1.604689 -0.569333 -6.528138
v 1.601415 -0.569168 -6.528755
v 1.598128 -0.568994 -6.529299
v 1.594830 -0.568811 -6.529770
v 1.591524 -0.568618 -6.530169
v 1.593222 -0.704495 -6.483184
v 1.589296 -0.701076 -6.486143
v 1.585508 -0.697219 -6.489091
v 1.581876 -0.692928 -6.492016
v 1.578414 -0.688219 -6.494907
v 1.575140 -0.683105 -6.497752
v 1.572068 -0.677602 -6.500539
v 1.569215 -0.671725 -6.503258
v 1.566588 -0.665485 -6.505901
v 1.564195 -0.658894 -6.508462
v 1.589190 -0.579063 -6.528930
v 1.589189 -0.579067 -6.528930
v 1.586773 -0.589051 -6.527456
v 1.586771 -0.589059 -6.527455
v 1.584293 -0.598583 -6.525778
v 1.584290 -0.598594 -6.525776
v 1.581766 -0.607665 -6.523927
v 1.581762 -0.607679 -6.523924
v 1.579207 -0.616309 -6.521930
v 1.579202 -0.616325 -6.521926
v 1.576633 -0.624517 -6.519814
v 1.576627 -0.624535 -6.519809
v 1.574064 -0.632281 -6.517610
v 1.574058 -0.632301 -6.517604
v 1.571520 -0.639598 -6.515346
v 1.571513 -0.639618 -6.515340
v 1.569018 -0.646466 -6.513051
v 1.569010 -0.646487 -6.513044
v 1.566574 -0.652888 -6.510751
v 1.566565 -0.652911 -6.510743
v 1.564204 -0.658871 -6.508470
v 1.584890 -0.568205 -6.530746
v 1.588210 -0.568416 -6.530494
v 1.581566 -0.567985 -6.530924
v 1.578239 -0.567756 -6.531029
v 1.574911 -0.567518 -6.531060
v 1.571585 -0.567271 -6.531017
v 1.568260 -0.567016 -6.530900
v 1.564940 -0.566753 -6.530710
v 1.561625 -0.566481 -6.530447
v 1.558318 -0.566201 -6.530110
v 1.555020 -0.565914 -6.529700
v 1.562039 -0.651962 -6.510937
v 1.560129 -0.644701 -6.513321
v 1.558468 -0.637121 -6.515607
v 1.557063 -0.629234 -6.517791
v 1.555918 -0.621051 -6.519866
v 1.555039 -0.612583 -6.521829
v 1.554432 -0.603840 -6.523672
v 1.554109 -0.594819 -6.525389
v 1.554087 -0.585502 -6.526972
v 1.554384 -0.575873 -6.528412
f 1 2 3
f 1 4 2
f 1 5 4
f 1 6 5
f 1 7 6
f 1 8 7
f 1 9 8
f 1 10 9
f 1 11 10
f 1 12 13
f 1 13 14
f 1 14 15
f 1 15 16
f 1 16 17
f 1 17 18
f 1 18 19
f 1 19 20
f 1 20 21
f 1 22 11
f 1 23 22
f 1 24 23
f 1 25 24
f 1 26 25
f 1 27 26
f 1 28 27
f 1 29 28
f 1 30 29
f 1 31 30
f 1 32 31
f 1 33 32
f 1 34 33
f 1 35 34
f 1 36 35
f 1 37 36
f 1 38 37
f 1 39 38
f 1 21 39
f 11 40 41
f 11 42 40
f 11 43 42
f 11 44 43
f 11 45 44
f 11 46 45
f 11 47 46
f 11 48 47
f 11 49 48
f 21 50 51
f 21 51 52
f 21 52 53
f 21 53 54
f 21 54 55
f 21 55 56
f 21 56 57
f 21 57 58
f 21 58 59
f 11 22 49
f 22 60 49
f 22 23 60
f 23 61 60
f 23 24 61
f 24 62 61
f 24 25 62
f 25 63 62
f 25 26 63
f 26 64 63
f 26 27 64
f 27 65 64
f 27 28 65
f 28 66 65
f 28 29 66
f 29 67 66
f 29 30 67
f 30 68 67
f 30 31 68
f 31 69 68
f 31 32 69
f 32 70 69
f 32 33 70
f 33 71 70
f 33 34 71
f 34 72 71
f 34 35 72
f 35 73 72
f 35 36 73
f 36 74 73
f 36 37 74
f 37 75 74
f 37 38 75
f 38 76 75
f 38 39 76
f 39 77 76
f 39 21 77
f 21 78 77
f 21 79 78
f 21 80 79
f 21 81 80
f 21 82 81
f 21 83 82
f 21 84 83
f 21 85 84
f 21 86 85
f 21 87 86
f 21 88 87
f 21 89 88
f 21 90 89
f 21 91 90
f 21 92 91
f 21 93 92
f 21 94 93
f 21 95 94
f 21 96 95
f 21 97 96
f 21 59 97
f 49 98 99
f 49 100 98
f 49 101 100
f 49 102 101
f 49 103 102
f 49 104 103
f 49 105 104
f 49 106 105
f 49 107 106
f 49 108 107
f 49 109 108
f 49 110 109
f 49 111 110
f 49 112 111
f 49 113 112
f 49 114 113
f 49 115 114
f 49 116 115
f 49 117 116
f 49 118 117
f 59 119 120
f 59 120 121
f 59 121 122
f 59 122 123
f 59 123 124
f 59 124 125
f 59 125 126
f 59 126 127
f 59 127 128
f 59 128 129
f 59 129 130
f 59 130 131
f 59 131 132
f 49 60 118
f 60 133 118
f 60 61 133
f 61 134 133
f 61 62 134
f 62 135 134
f 62 63 135
f 63 136 135
f 63 64 136
f 64 137 136
f 64 65 137
f 65 138 137
f 65 66 138
f 66 139 138
f 66 67 139
f 67 140 139
f 67 68 140
f 68 141 140
f 68 69 141
f 69 142 141
f 69 70 142
f 70 143 142
f 70 71 143
f 71 144 143
f 71 72 144
f 72 145 144
f 72 73 145
f 73 146 145
f 73 74 146
f 74 147 146
f 74 75 147
f 75 148 147
f 75 76 148
f 76 149 148
f 76 77 149
f 77 150 149
f 77 78 150
f 78 151 150
f 78 79 151
f 79 152 151
f 79 80 152
f 80 153 152
f 80 81 153
f 81 154 153
f 81 82 154
f 82 155 154
f 82 83 155
f 83 156 155
f 83 84 156
f 84 157 156
f 84 85 157
f 85 158 157
f 85 86 158
f 86 159 158
f 86 87 159
f 87 160 159
f 87 88 160
f 88 161 160
f 88 89 161
f 89 162 161
f 89 90 162
f 90 163 162
f 90 91 163
f 91 164 163
f 91 92 164
f 92 165 164
f 92 93 165
f 93 166 165
f 93 94 166
f 94 167 166
f 94 95 167
f 95 168 167
f 95 96 168
f 96 169 168
f 96 97 169
f 97 170 169
f 97 59 170
f 59 171 170
f 59 172 171
f 59 173 172
f 59 132 173
f 118 174 175
f 118 176 174
f 118 177 176
f 118 178 177
f 118 179 178
f 118 180 179
f 118 181 180
f 118 182 181
f 118 183 182
f 132 184 185
f 132 185 186
f 132 186 187
f 132 187 188
f 132 188 189
f 132 189 190
f 132 190 191
f 132 191 192
f 132 192 193
f 118 133 183
f 133 194 183
f 133 134 194
f 134 195 194
f 134 135 195
f 135 196 195
f 135 136 196
f 136 197 196
f 136 137 197
f 137 198 197
f 137 138 198
f 138 199 198
f 138 139 199
f 139 200 199
f 139 140 200
f 140 201 200
f 140 141 201
f 141 202 201
f 141 142 202
f 142 203 202
f 142 143 203
f 143 204 203
f 143 144 204
f 144 205 204
f 144 145 205
f 145 206 205
f 145 146 206
f 146 207 206
f 146 147 207
f 147 208 207
f 147 148 208
f 148 209 208
f 148 149 209
f 149 210 209
f 149 150 210
f 150 211 210
f 150 151 211
f 151 212 211
f 151 152 212
f 152 213 212
f 152 153 213
f 153 214 213
f 153 154 214
f 154 193 214
f 154 155 193
f 155 156 193
f 156 157 193
f 157 158 193
f 158 159 193
f 159 160 193
f 160 161 193
f 161 162 193
f 162 163 193
f 163 164 193
f 164 165 193
f 165 166 193
f 166 167 193
f 167 168 193
f 168 169 193
f 169 170 193
f 170 171 193
f 171 172 193
f 172 173 193
f 173 132 193
f 183 215 216
f 183 217 215
f 183 218 217
f 183 219 218
f 183 220 219
f 183 221 220
f 183 222 221
f 183 223 222
f 183 224 223
f 183 225 224
f 193 226 227
f 193 227 228
f 193 228 229
f 193 229 230
f 193 230 231
f 193 231 232
f 193 232 233
f 193 233 234
f 193 234 235
f 193 235 225
f 183 194 225
f 194 195 225
f 195 196 225
f 196 197 225
f 197 198 225
f 198 199 225
f 199 200 225
f 200 201 225
f 201 202 225
f 202 203 225
f 203 204 225
f 204 205 225
f 205 206 225
f 206 207 225
f 207 208 225
f 208 209 225
f 209 210 225
f 210 211 225
f 211 212 225
f 212 213 225
f 213 214 225
f 214 193 225
