v -0.156399 -0.656631 -0.825000
v -0.156399 -0.656631 -0.036213
v -0.156399 -0.656630 -0.035995
v -0.156398 -0.656625 -0.035778
v -0.156396 -0.656618 -0.035562
v -0.156395 -0.656607 -0.035347
v -0.156392 -0.656594 -0.035132
v -0.156389 -0.656577 -0.034918
v -0.156386 -0.656558 -0.034705
v -0.156382 -0.656535 -0.034493
v -0.156378 -0.656510 -0.034282
v -0.156372 -0.656482 -0.034071
v -0.156367 -0.656450 -0.033860
v -0.156361 -0.656416 -0.033651
v -0.156354 -0.656378 -0.033442
v -0.156347 -0.656338 -0.033233
v -0.156340 -0.656295 -0.033026
v -0.156331 -0.656248 -0.032818
v -0.156323 -0.656199 -0.032611
v -0.156313 -0.656146 -0.032405
v -0.156304 -0.656091 -0.032199
v -0.156293 -0.656033 -0.031994
v -0.156282 -0.655971 -0.031789
v -0.156271 -0.655907 -0.031585
v -0.156259 -0.655840 -0.031381
v -0.156247 -0.655770 -0.031178
v -0.156234 -0.655697 -0.030977
v -0.156221 -0.655621 -0.030776
v -0.156207 -0.655543 -0.030576
v -0.156193 -0.655462 -0.030377
v -0.156178 -0.655378 -0.030180
v -0.156163 -0.655291 -0.029983
v -0.156147 -0.655202 -0.029788
v -0.156131 -0.655110 -0.029595
v -0.156114 -0.655016 -0.029403
v -0.156097 -0.654919 -0.029212
v -0.156079 -0.654819 -0.029023
v -0.156061 -0.654717 -0.028836
v -0.156043 -0.654613 -0.028650
v -0.156024 -0.654506 -0.028467
v -0.156005 -0.654396 -0.028285
v -0.155985 -0.654285 -0.028105
v -0.155965 -0.654170 -0.027927
v -0.155944 -0.654053 -0.027750
v -0.155923 -0.653934 -0.027575
v -0.155902 -0.653812 -0.027402
v -0.155880 -0.653687 -0.027231
v -0.155857 -0.653560 -0.027061
v -0.155834 -0.653430 -0.026893
v -0.155811 -0.653298 -0.026727
v -0.155787 -0.653163 -0.026562
v -0.155763 -0.653025 -0.026399
v -0.155738 -0.652885 -0.026237
v -0.155713 -0.652742 -0.026077
v -0.155687 -0.652596 -0.025919
v -0.155661 -0.652448 -0.025762
v -0.155635 -0.652297 -0.025607
v -0.155605 -0.652128 -0.025435
v -0.155575 -0.651959 -0.025264
v -0.155545 -0.651790 -0.025093
v -0.155515 -0.651621 -0.024922
v -0.155486 -0.651452 -0.024751
v -0.155456 -0.651284 -0.024580
v -0.155426 -0.651115 -0.024408
v -0.155396 -0.650946 -0.024237
v -0.155367 -0.650777 -0.024066
v -0.155337 -0.650608 -0.023895
v -0.155307 -0.650440 -0.023724
v -0.155277 -0.650271 -0.023553
v -0.155248 -0.650102 -0.023382
v -0.155218 -0.649933 -0.023211
v -0.155188 -0.649765 -0.023040
v -0.155158 -0.649596 -0.022869
v -0.155129 -0.649427 -0.022698
v -0.155099 -0.649258 -0.022527
v -0.155069 -0.649090 -0.022356
v -0.155039 -0.648921 -0.022185
v -0.155010 -0.648753 -0.022014
v -0.154980 -0.648584 -0.021843
v -0.154950 -0.648415 -0.021672
v -0.154920 -0.648247 -0.021501
v -0.154891 -0.648078 -0.021331
v -0.154861 -0.647910 -0.021160
v -0.154831 -0.647741 -0.020989
v -0.154802 -0.647572 -0.020818
v -0.154772 -0.647404 -0.020647
v -0.154742 -0.647235 -0.020476
v -0.154712 -0.647067 -0.020306
v -0.154683 -0.646898 -0.020135
v -0.154653 -0.646730 -0.019964
v -0.154623 -0.646562 -0.019793
v -0.154594 -0.646393 -0.019623
v -0.154564 -0.646225 -0.019452
v -0.154534 -0.646056 -0.019281
v -0.154505 -0.645888 -0.019111
v -0.154475 -0.645719 -0.018940
v -0.154445 -0.645551 -0.018769
v -0.154415 -0.645383 -0.018599
v -0.154386 -0.645214 -0.018428
v -0.154356 -0.645046 -0.018257
v -0.154326 -0.644878 -0.018087
v -0.154297 -0.644709 -0.017916
v -0.154267 -0.644541 -0.017746
v -0.154237 -0.644373 -0.017575
v -0.154208 -0.644205 -0.017404
v -0.154178 -0.644036 -0.017234
v -0.154148 -0.643868 -0.017063
v -0.154119 -0.643700 -0.016893
v -0.154089 -0.643532 -0.016722
v -0.154059 -0.643364 -0.016552
v -0.154030 -0.643195 -0.016381
v -0.154000 -0.643027 -0.016211
v -0.154000 -0.643027 -0.857174
v -0.154044 -0.643274 -0.856591
v -0.154087 -0.643520 -0.856008
v -0.154131 -0.643767 -0.855425
v -0.154174 -0.644014 -0.854842
v -0.154218 -0.644260 -0.854258
v -0.154261 -0.644507 -0.853675
v -0.154305 -0.644754 -0.853091
v -0.154348 -0.645000 -0.852508
v -0.154392 -0.645247 -0.851924
v -0.154435 -0.645494 -0.851340
v -0.154479 -0.645741 -0.850757
v -0.154522 -0.645988 -0.850173
v -0.154566 -0.646235 -0.849589
v -0.154609 -0.646481 -0.849005
v -0.154653 -0.646728 -0.848421
v -0.154696 -0.646975 -0.847837
v -0.154740 -0.647222 -0.847252
v -0.154783 -0.647469 -0.846668
v -0.154827 -0.647717 -0.846084
v -0.154871 -0.647964 -0.845499
v -0.154914 -0.648211 -0.844915
v -0.154958 -0.648458 -0.844330
v -0.155001 -0.648705 -0.843746
v -0.155045 -0.648952 -0.843161
v -0.155088 -0.649200 -0.842576
v -0.155132 -0.649447 -0.841991
v -0.155176 -0.649694 -0.841406
v -0.155219 -0.649942 -0.840822
v -0.155263 -0.650189 -0.840236
v -0.155307 -0.650436 -0.839651
v -0.155350 -0.650684 -0.839066
v -0.155394 -0.650931 -0.838481
v -0.155437 -0.651179 -0.837896
v -0.155481 -0.651426 -0.837310
v -0.155525 -0.651674 -0.836725
v -0.155568 -0.651921 -0.836139
v -0.155612 -0.652169 -0.835553
v -0.155656 -0.652417 -0.834968
v -0.155699 -0.652664 -0.834382
v -0.155743 -0.652912 -0.833796
v -0.155787 -0.653160 -0.833210
v -0.155830 -0.653408 -0.832624
v -0.155874 -0.653655 -0.832038
v -0.155918 -0.653903 -0.831452
v -0.155962 -0.654151 -0.830866
v -0.156005 -0.654399 -0.830280
v -0.156049 -0.654647 -0.829693
v -0.156093 -0.654895 -0.829107
v -0.156136 -0.655143 -0.828520
v -0.156180 -0.655391 -0.827934
v -0.156224 -0.655639 -0.827347
v -0.156268 -0.655887 -0.826761
v -0.156311 -0.656135 -0.826174
v -0.156355 -0.656383 -0.825587
f 112 110 111
f 112 109 110
f 112 108 109
f 112 107 108
f 112 106 107
f 112 105 106
f 112 104 105
f 112 103 104
f 112 102 103
f 112 101 102
f 112 100 101
f 112 99 100
f 112 98 99
f 112 97 98
f 112 96 97
f 112 95 96
f 112 94 95
f 112 93 94
f 112 92 93
f 112 91 92
f 112 90 91
f 112 89 90
f 112 88 89
f 112 87 88
f 112 86 87
f 112 85 86
f 112 84 85
f 112 83 84
f 112 82 83
f 112 81 82
f 112 80 81
f 112 79 80
f 112 78 79
f 112 77 78
f 112 76 77
f 112 75 76
f 112 74 75
f 112 73 74
f 112 72 73
f 112 71 72
f 112 70 71
f 112 69 70
f 112 68 69
f 112 67 68
f 112 66 67
f 112 65 66
f 112 64 65
f 112 63 64
f 112 62 63
f 112 61 62
f 112 60 61
f 112 59 60
f 112 58 59
f 112 57 58
f 112 56 57
f 112 55 56
f 112 54 55
f 112 53 54
f 112 52 53
f 112 51 52
f 112 50 51
f 112 49 50
f 112 48 49
f 112 47 48
f 112 46 47
f 112 45 46
f 112 44 45
f 112 43 44
f 112 42 43
f 112 41 42
f 112 40 41
f 112 39 40
f 112 38 39
f 112 37 38
f 112 36 37
f 112 35 36
f 112 34 35
f 112 33 34
f 112 32 33
f 112 31 32
f 112 30 31
f 112 29 30
f 112 28 29
f 112 27 28
f 112 26 27
f 112 25 26
f 112 24 25
f 112 23 24
f 112 22 23
f 112 21 22
f 112 20 21
f 112 19 20
f 112 18 19
f 112 17 18
f 112 16 17
f 112 15 16
f 112 14 15
f 112 13 14
f 112 12 13
f 112 11 12
f 112 10 11
f 112 9 10
f 112 8 9
f 112 7 8
f 112 6 7
f 112 5 6
f 112 4 5
f 112 3 4
f 112 2 3
f 112 1 2
f 112 167 1
f 112 166 167
f 112 165 166
f 112 164 165
f 112 163 164
f 112 162 163
f 112 161 162
f 112 160 161
f 112 159 160
f 112 158 159
f 112 157 158
f 112 156 157
f 112 155 156
f 112 154 155
f 112 153 154
f 112 152 153
f 112 151 152
f 112 150 151
f 112 149 150
f 112 148 149
f 112 147 148
f 112 146 147
f 112 145 146
f 112 144 145
f 112 143 144
f 112 142 143
f 112 141 142
f 112 140 141
f 112 139 140
f 112 138 139
f 112 137 138
f 112 136 137
f 112 135 136
f 112 134 135
f 112 133 134
f 112 132 133
f 112 131 132
f 112 130 131
f 112 129 130
f 112 128 129
f 112 127 128
f 112 126 127
f 112 125 126
f 112 124 125
f 112 123 124
f 112 122 123
f 112 121 122
f 112 120 121
f 112 119 120
f 112 118 119
f 112 117 118
f 112 116 117
f 112 115 116
f 112 114 115
f 112 113 114
