v 0.551041 0.325000 -6.523592
v 0.442500 0.325000 -6.413000
v 0.443334 0.325000 -6.429440
v 0.445826 0.325000 -6.445711
v 0.449952 0.325000 -6.461647
v 0.455669 0.325000 -6.477083
v 0.462919 0.325000 -6.491862
v 0.471626 0.325000 -6.505831
v 0.481702 0.325000 -6.518848
v 0.493043 0.325000 -6.530779
v 0.505533 0.325000 -6.541501
v 0.519043 0.325000 -6.550905
v 0.533436 0.325000 -6.558893
v 0.548563 0.325000 -6.565385
v 0.564269 0.325000 -6.570313
v 0.580393 0.325000 -6.573626
v 0.596770 0.325000 -6.575291
v 0.613230 0.325000 -6.575291
v 0.629607 0.325000 -6.573626
v 0.645731 0.325000 -6.570313
v 0.661437 0.325000 -6.565385
v 0.676564 0.325000 -6.558893
v 0.690957 0.325000 -6.550905
v 0.704467 0.325000 -6.541501
v 0.716957 0.325000 -6.530779
v 0.442500 0.325000 -6.413000
v 0.745729 0.359733 -6.494250
v 0.761963 0.359733 -6.455058
v 0.442500 0.429200 -6.413000
v 0.442724 0.427710 -6.421447
v 0.767276 0.427710 -6.421447
v 0.767500 0.429200 -6.413000
v 0.767500 0.325000 -6.413000
v 0.745729 0.394467 -6.494250
v 0.761963 0.394467 -6.455058
v 0.448037 0.359733 -6.455058
v 0.719905 0.359733 -6.527905
v 0.443409 0.426194 -6.430048
v 0.766591 0.426194 -6.430048
v 0.719905 0.394467 -6.527905
v 0.686250 0.359733 -6.553729
v 0.444570 0.424658 -6.438761
v 0.765430 0.424658 -6.438761
v 0.686250 0.394467 -6.553729
v 0.647058 0.359733 -6.569963
v 0.446228 0.423109 -6.447544
v 0.763772 0.423109 -6.447544
v 0.647058 0.394467 -6.569963
v 0.605000 0.359733 -6.575500
v 0.448398 0.421555 -6.456357
v 0.761602 0.421555 -6.456357
v 0.605000 0.394467 -6.575500
v 0.562942 0.359733 -6.569963
v 0.451098 0.420003 -6.465157
v 0.758902 0.420003 -6.465157
v 0.562942 0.394467 -6.569963
v 0.523750 0.359733 -6.553729
v 0.454346 0.418461 -6.473904
v 0.755654 0.418461 -6.473904
v 0.523750 0.394467 -6.553729
v 0.490095 0.359733 -6.527905
v 0.458151 0.416936 -6.482554
v 0.751849 0.416936 -6.482554
v 0.490095 0.394467 -6.527905
v 0.464271 0.359733 -6.494250
v 0.462502 0.415436 -6.491058
v 0.747498 0.415436 -6.491058
v 0.464271 0.394467 -6.494250
v 0.467380 0.413971 -6.499365
v 0.742620 0.413971 -6.499365
v 0.448037 0.394467 -6.455058
v 0.737230 0.412550 -6.507425
v 0.472770 0.412550 -6.507425
v 0.731345 0.411182 -6.515187
v 0.728298 0.325000 -6.518848
v 0.478655 0.411182 -6.515187
v 0.724982 0.409874 -6.522602
v 0.738374 0.325000 -6.505831
v 0.485018 0.409874 -6.522602
v 0.718156 0.408637 -6.529619
v 0.747081 0.325000 -6.491862
v 0.491844 0.408637 -6.529619
v 0.710899 0.407477 -6.536198
v 0.754331 0.325000 -6.477083
v 0.499101 0.407477 -6.536198
v 0.703267 0.406398 -6.542317
v 0.760048 0.325000 -6.461647
v 0.506733 0.406398 -6.542317
v 0.695320 0.405403 -6.547958
v 0.764174 0.325000 -6.445711
v 0.514680 0.405403 -6.547958
v 0.687118 0.404496 -6.553100
v 0.766666 0.325000 -6.429440
v 0.522882 0.404496 -6.553100
v 0.678721 0.403681 -6.557726
v 0.531279 0.403681 -6.557726
v 0.670190 0.402960 -6.561815
v 0.661582 0.402337 -6.565350
v 0.539810 0.402960 -6.561815
v 0.652937 0.401812 -6.568326
v 0.548418 0.402337 -6.565350
v 0.644263 0.401383 -6.570760
v 0.557063 0.401812 -6.568326
v 0.635563 0.401046 -6.572670
v 0.565737 0.401383 -6.570760
v 0.626844 0.400798 -6.574075
v 0.574437 0.401046 -6.572670
v 0.618112 0.400636 -6.574994
v 0.583156 0.400798 -6.574075
v 0.609372 0.400557 -6.575445
v 0.591888 0.400636 -6.574994
v 0.600628 0.400557 -6.575445
v 0.583789 0.377100 -6.574110
v 0.605000 0.377100 -6.575500
v 0.562942 0.377100 -6.569963
v 0.542814 0.377100 -6.563130
v 0.523750 0.377100 -6.553729
v 0.506076 0.377100 -6.541920
v 0.490095 0.377100 -6.527905
v 0.476080 0.377100 -6.511924
v 0.464271 0.377100 -6.494250
v 0.676872 0.385783 -6.558742
v 0.667186 0.385783 -6.563130
v 0.695280 0.385783 -6.548114
v 0.703924 0.385783 -6.541920
v 0.497856 0.368417 -6.535174
v 0.506076 0.368417 -6.541920
v 0.490095 0.368417 -6.527905
v 0.482826 0.368417 -6.520144
v 0.476080 0.368417 -6.511924
v 0.469886 0.368417 -6.503280
v 0.464271 0.368417 -6.494250
v 0.647058 0.385783 -6.569963
v 0.636702 0.385783 -6.572378
v 0.615628 0.385783 -6.575152
v 0.605000 0.385783 -6.575500
v 0.583789 0.385783 -6.574110
v 0.573298 0.385783 -6.572378
v 0.552766 0.385783 -6.566876
v 0.542814 0.385783 -6.563130
v 0.523750 0.385783 -6.553729
v 0.514720 0.385783 -6.548114
v 0.490095 0.385783 -6.527905
f 1 2 3
f 1 3 4
f 1 4 5
f 1 5 6
f 1 6 7
f 1 7 8
f 1 8 9
f 1 9 10
f 1 10 11
f 1 11 12
f 1 12 13
f 1 13 14
f 1 14 15
f 1 15 16
f 1 16 17
f 1 17 18
f 1 18 19
f 1 19 20
f 1 20 21
f 1 21 22
f 1 22 23
f 1 23 24
f 1 24 25
f 1 25 26
f 1 26 2
f 27 28 2
f 2 29 30
f 31 32 33
f 35 125 114
f 113 124 125
f 125 35 124
f 114 127 126
f 127 36 126
f 114 126 113
f 35 124 122
f 124 113 122
f 35 122 34
f 37 27 2
f 2 30 38
f 39 31 33
f 34 122 113
f 115 123 122
f 122 34 123
f 113 126 128
f 126 36 128
f 113 128 115
f 34 123 133
f 123 115 133
f 34 133 40
f 41 37 2
f 2 38 42
f 43 39 33
f 40 133 115
f 116 134 133
f 133 40 134
f 115 128 129
f 128 36 129
f 115 129 116
f 40 134 135
f 134 116 135
f 40 135 44
f 45 41 2
f 2 42 46
f 47 43 33
f 44 135 116
f 117 136 135
f 135 44 136
f 116 129 130
f 129 36 130
f 116 130 117
f 44 136 137
f 136 117 137
f 44 137 48
f 49 45 2
f 2 46 50
f 51 47 33
f 48 137 117
f 118 138 137
f 137 48 138
f 117 130 131
f 130 36 131
f 117 131 118
f 48 138 139
f 138 118 139
f 48 139 52
f 53 49 2
f 2 50 54
f 55 51 33
f 52 139 118
f 119 140 139
f 139 52 140
f 118 131 132
f 131 36 132
f 118 132 119
f 52 140 141
f 140 119 141
f 52 141 56
f 57 53 2
f 2 54 58
f 59 55 33
f 56 141 119
f 120 142 141
f 141 56 142
f 119 132 120
f 132 36 120
f 56 142 60
f 142 120 60
f 61 57 2
f 2 58 62
f 63 59 33
f 121 143 120
f 143 60 120
f 120 36 121
f 60 143 64
f 143 121 64
f 65 61 2
f 2 62 66
f 67 63 33
f 64 121 68
f 121 36 68
f 36 65 2
f 2 66 69
f 70 67 33
f 71 68 36
f 36 2 69
f 72 70 33
f 26 71 36
f 36 69 73
f 74 72 33
f 75 26 36
f 36 73 76
f 77 74 33
f 78 75 36
f 36 76 79
f 80 77 33
f 81 78 36
f 36 79 82
f 83 80 33
f 84 81 36
f 36 82 85
f 86 83 33
f 87 84 36
f 36 85 88
f 89 86 33
f 90 87 36
f 36 88 91
f 92 89 33
f 93 90 36
f 36 91 94
f 95 92 33
f 33 93 36
f 36 94 96
f 97 95 33
f 33 36 96
f 98 97 33
f 33 96 99
f 100 98 33
f 33 99 101
f 102 100 33
f 33 101 103
f 104 102 33
f 33 103 105
f 106 104 33
f 33 105 107
f 108 106 33
f 33 107 109
f 110 108 33
f 33 109 111
f 112 110 33
f 33 111 112
