v 0.655899 -0.042546 -1.087726
v 0.628117 -0.048676 -1.094996
v 0.628139 -0.048389 -1.094984
v 0.628161 -0.048105 -1.094963
v 0.628182 -0.047824 -1.094935
v 0.628203 -0.047547 -1.094899
v 0.628224 -0.047272 -1.094855
v 0.628244 -0.047000 -1.094802
v 0.628264 -0.046731 -1.094743
v 0.628284 -0.046464 -1.094675
v 0.628304 -0.046201 -1.094599
v 0.628323 -0.045939 -1.094516
v 0.628342 -0.045680 -1.094426
v 0.628360 -0.045423 -1.094327
v 0.628379 -0.045169 -1.094221
v 0.628397 -0.044917 -1.094108
v 0.628415 -0.044667 -1.093987
v 0.628432 -0.044420 -1.093859
v 0.628449 -0.044176 -1.093724
v 0.628466 -0.043935 -1.093582
v 0.628483 -0.043698 -1.093432
v 0.628499 -0.043464 -1.093276
v 0.628515 -0.043235 -1.093113
v 0.628530 -0.043010 -1.092943
v 0.628545 -0.042789 -1.092766
v 0.628560 -0.042573 -1.092582
v 0.628574 -0.042363 -1.092392
v 0.628588 -0.042157 -1.092195
v 0.628601 -0.041957 -1.091992
v 0.628614 -0.041763 -1.091782
v 0.628627 -0.041575 -1.091567
v 0.628639 -0.041393 -1.091346
v 0.628650 -0.041216 -1.091119
v 0.628661 -0.041047 -1.090887
v 0.628672 -0.040883 -1.090650
v 0.628682 -0.040726 -1.090409
v 0.628692 -0.040576 -1.090163
v 0.628701 -0.040432 -1.089913
v 0.628710 -0.040295 -1.089658
v 0.628718 -0.040166 -1.089401
v 0.628726 -0.040043 -1.089139
v 0.628733 -0.039928 -1.088875
v 0.628740 -0.039820 -1.088608
v 0.628747 -0.039720 -1.088338
v 0.628753 -0.039627 -1.088065
v 0.628758 -0.039542 -1.087789
v 0.628763 -0.039464 -1.087510
v 0.628767 -0.039395 -1.087227
v 0.628771 -0.039333 -1.086941
v 0.628774 -0.039279 -1.086652
v 0.628777 -0.039234 -1.086360
v 0.628780 -0.039196 -1.086064
v 0.628781 -0.039167 -1.085764
v 0.628783 -0.039146 -1.085460
v 0.628783 -0.039133 -1.085153
v 0.628784 -0.039129 -1.084841
v 0.627055 -0.060845 -1.095000
v 0.494138 -0.056511 -1.130371
v 0.491773 -0.056434 -1.131000
v 0.491870 -0.055577 -1.131000
v 0.494048 -0.030679 -1.131000
v 0.494101 -0.029819 -1.131000
v 0.496440 -0.030154 -1.130372
v 0.504605 -0.035012 -1.128115
v 0.504758 -0.032742 -1.128115
v 0.513528 -0.056591 -1.125230
v 0.515398 -0.035761 -1.125230
v 0.515553 -0.033442 -1.125230
v 0.524536 -0.055417 -1.122345
v 0.526021 -0.038876 -1.122345
v 0.526190 -0.036510 -1.122345
v 0.535295 -0.056554 -1.119460
v 0.536810 -0.039673 -1.119460
v 0.536983 -0.037258 -1.119460
v 0.546053 -0.057690 -1.116575
v 0.547599 -0.040471 -1.116575
v 0.547775 -0.038007 -1.116575
v 0.557071 -0.056322 -1.113690
v 0.558197 -0.043780 -1.113690
v 0.558388 -0.041268 -1.113690
v 0.567835 -0.057410 -1.110805
v 0.568982 -0.044625 -1.110805
v 0.569177 -0.042066 -1.110805
v 0.578598 -0.058498 -1.107921
v 0.579767 -0.045471 -1.107921
v 0.579966 -0.042863 -1.107921
v 0.589624 -0.056935 -1.105036
v 0.590338 -0.048973 -1.105036
v 0.590553 -0.046317 -1.105036
v 0.600392 -0.057975 -1.102151
v 0.601120 -0.049868 -1.102151
v 0.601338 -0.047163 -1.102151
v 0.611161 -0.059014 -1.099266
v 0.611901 -0.050762 -1.099266
v 0.612124 -0.048009 -1.099266
v 0.621929 -0.060054 -1.096381
v 0.622683 -0.051656 -1.096381
v 0.622909 -0.048855 -1.096381
v 0.633221 -0.055400 -1.093496
v 0.633694 -0.049701 -1.093496
v 0.633911 -0.046850 -1.093496
v 0.644480 -0.050547 -1.090611
v 0.644700 -0.047647 -1.090611
v 0.644908 -0.044747 -1.090611
v 0.655701 -0.045496 -1.087726
v 0.496506 -0.056588 -1.129741
v 0.493994 -0.031540 -1.131000
v 0.504443 -0.037281 -1.128115
v 0.515232 -0.038079 -1.125230
v 0.525841 -0.041242 -1.122345
v 0.536626 -0.042088 -1.119460
v 0.547411 -0.042934 -1.116575
v 0.557994 -0.046290 -1.113690
v 0.568776 -0.047184 -1.110805
v 0.579557 -0.048079 -1.107921
v 0.590112 -0.051628 -1.105036
v 0.600890 -0.052571 -1.102151
v 0.611667 -0.053514 -1.099266
v 0.622444 -0.054457 -1.096381
v 0.633464 -0.052551 -1.093496
v 0.498878 -0.056665 -1.129110
v 0.493939 -0.032400 -1.131000
v 0.625562 -0.048604 -1.095681
v 0.628094 -0.048966 -1.095000
v 0.502775 -0.055406 -1.128115
v 0.504270 -0.039550 -1.128115
v 0.515055 -0.040396 -1.125230
v 0.525650 -0.043607 -1.122345
v 0.536431 -0.044501 -1.119460
v 0.547213 -0.045396 -1.116575
v 0.557780 -0.048799 -1.113690
v 0.568558 -0.049742 -1.110805
v 0.579335 -0.050685 -1.107921
v 0.589874 -0.054282 -1.105036
v 0.600647 -0.055273 -1.102151
v 0.611420 -0.056265 -1.099266
v 0.622193 -0.057256 -1.096381
v 0.501254 -0.056742 -1.128479
v 0.493881 -0.033260 -1.131000
v 0.623033 -0.048243 -1.096361
v 0.504087 -0.041818 -1.128115
v 0.514868 -0.042712 -1.125230
v 0.525448 -0.045971 -1.122345
v 0.536226 -0.046914 -1.119460
v 0.547003 -0.047857 -1.116575
v 0.557555 -0.051308 -1.113690
v 0.568328 -0.052299 -1.110805
v 0.579101 -0.053291 -1.107921
v 0.503633 -0.056819 -1.127846
v 0.493823 -0.034120 -1.131000
v 0.503894 -0.044085 -1.128115
v 0.514671 -0.045028 -1.125230
v 0.525236 -0.048334 -1.122345
v 0.536009 -0.049325 -1.119460
v 0.546782 -0.050317 -1.116575
v 0.557319 -0.053815 -1.113690
v 0.568087 -0.054855 -1.110805
v 0.578855 -0.055895 -1.107921
v 0.506016 -0.056897 -1.127212
v 0.493763 -0.034980 -1.131000
v 0.503690 -0.046351 -1.128115
v 0.514463 -0.047343 -1.125230
v 0.525013 -0.050696 -1.122345
v 0.535782 -0.051736 -1.119460
v 0.546550 -0.052776 -1.116575
v 0.508402 -0.056975 -1.126577
v 0.493701 -0.035839 -1.131000
v 0.503477 -0.048616 -1.128115
v 0.514245 -0.049656 -1.125230
v 0.524780 -0.053057 -1.122345
v 0.535544 -0.054145 -1.119460
v 0.546307 -0.055234 -1.116575
v 0.510792 -0.057052 -1.125942
v 0.493638 -0.036699 -1.131000
v 0.620507 -0.047882 -1.097039
v 0.503253 -0.050881 -1.128115
v 0.514017 -0.051969 -1.125230
v 0.513185 -0.057130 -1.125305
v 0.493573 -0.037558 -1.131000
v 0.617986 -0.047522 -1.097717
v 0.503019 -0.053144 -1.128115
v 0.513778 -0.054280 -1.125230
v 0.515582 -0.057208 -1.124668
v 0.493507 -0.038418 -1.131000
v 0.615467 -0.047162 -1.098394
v 0.517982 -0.057287 -1.124029
v 0.493439 -0.039277 -1.131000
v 0.612953 -0.046803 -1.099070
v 0.624502 -0.060762 -1.095680
v 0.520386 -0.057365 -1.123390
v 0.493370 -0.040136 -1.131000
v 0.610442 -0.046445 -1.099745
v 0.621952 -0.060679 -1.096359
v 0.522794 -0.057443 -1.122749
v 0.493300 -0.040995 -1.131000
v 0.607934 -0.046086 -1.100419
v 0.619406 -0.060595 -1.097036
v 0.525205 -0.057522 -1.122108
v 0.493227 -0.041854 -1.131000
v 0.605430 -0.045729 -1.101092
v 0.616864 -0.060512 -1.097713
v 0.527619 -0.057600 -1.121466
v 0.493154 -0.042713 -1.131000
v 0.602929 -0.045371 -1.101764
v 0.614324 -0.060429 -1.098389
v 0.530037 -0.057679 -1.120822
v 0.493079 -0.043571 -1.131000
v 0.600432 -0.045015 -1.102435
v 0.532459 -0.057758 -1.120178
v 0.493002 -0.044430 -1.131000
v 0.597939 -0.044659 -1.103106
v 0.611789 -0.060347 -1.099065
v 0.534884 -0.057837 -1.119533
v 0.492924 -0.045288 -1.131000
v 0.595449 -0.044303 -1.103775
v 0.609256 -0.060264 -1.099739
v 0.537312 -0.057916 -1.118887
v 0.492844 -0.046146 -1.131000
v 0.592963 -0.043948 -1.104443
v 0.606727 -0.060181 -1.100412
v 0.539745 -0.057996 -1.118240
v 0.492763 -0.047005 -1.131000
v 0.590480 -0.043593 -1.105110
v 0.604202 -0.060099 -1.101084
v 0.542180 -0.058075 -1.117592
v 0.492681 -0.047863 -1.131000
v 0.588000 -0.043239 -1.105777
v 0.601680 -0.060016 -1.101756
v 0.544620 -0.058155 -1.116942
v 0.492597 -0.048720 -1.131000
v 0.585524 -0.042885 -1.106442
v 0.599161 -0.059934 -1.102426
v 0.547062 -0.058234 -1.116292
v 0.492511 -0.049578 -1.131000
v 0.583052 -0.042532 -1.107106
v 0.596646 -0.059852 -1.103096
v 0.549509 -0.058314 -1.115642
v 0.492424 -0.050436 -1.131000
v 0.580583 -0.042179 -1.107770
v 0.594134 -0.059770 -1.103764
v 0.551959 -0.058394 -1.114990
v 0.492335 -0.051293 -1.131000
v 0.578118 -0.041827 -1.108432
v 0.591626 -0.059688 -1.104432
v 0.554412 -0.058474 -1.114337
v 0.492245 -0.052150 -1.131000
v 0.575656 -0.041475 -1.109094
v 0.589121 -0.059606 -1.105099
v 0.556869 -0.058554 -1.113683
v 0.492154 -0.053007 -1.131000
v 0.573198 -0.041124 -1.109754
v 0.586620 -0.059525 -1.105765
v 0.559329 -0.058634 -1.113028
v 0.492061 -0.053864 -1.131000
v 0.570744 -0.040773 -1.110414
v 0.584122 -0.059443 -1.106430
v 0.561793 -0.058715 -1.112373
v 0.491966 -0.054721 -1.131000
v 0.568292 -0.040423 -1.111072
v 0.581627 -0.059362 -1.107094
v 0.564260 -0.058795 -1.111716
v 0.565845 -0.040073 -1.111730
v 0.566731 -0.058876 -1.111059
v 0.498782 -0.030488 -1.129743
v 0.563401 -0.039724 -1.112387
v 0.579136 -0.059280 -1.107757
v 0.569205 -0.058956 -1.110400
v 0.501128 -0.030824 -1.129113
v 0.560961 -0.039375 -1.113042
v 0.576648 -0.059199 -1.108419
v 0.571682 -0.059037 -1.109741
v 0.503478 -0.031160 -1.128482
v 0.558524 -0.039027 -1.113697
v 0.574163 -0.059118 -1.109080
v 0.505831 -0.031496 -1.127850
v 0.556091 -0.038680 -1.114351
v 0.508188 -0.031833 -1.127218
v 0.553661 -0.038332 -1.115004
v 0.510549 -0.032171 -1.126584
v 0.551235 -0.037986 -1.115655
v 0.548813 -0.037640 -1.116306
v 0.512913 -0.032509 -1.125949
v 0.546394 -0.037294 -1.116956
v 0.515281 -0.032847 -1.125313
v 0.543979 -0.036949 -1.117605
v 0.517652 -0.033186 -1.124676
v 0.541567 -0.036604 -1.118253
v 0.520027 -0.033526 -1.124038
v 0.539159 -0.036260 -1.118899
v 0.522406 -0.033866 -1.123399
v 0.536755 -0.035916 -1.119545
v 0.524788 -0.034206 -1.122759
v 0.534354 -0.035573 -1.120190
v 0.527174 -0.034547 -1.122119
v 0.531957 -0.035231 -1.120834
v 0.529564 -0.034889 -1.121477
f 1 2 3
f 3 4 5
f 5 6 7
f 7 8 9
f 9 10 11
f 11 12 13
f 13 14 15
f 15 16 17
f 17 18 19
f 19 20 21
f 21 22 23
f 23 24 25
f 25 26 27
f 27 28 29
f 29 30 31
f 31 32 33
f 33 34 35
f 35 36 37
f 37 38 39
f 39 40 41
f 41 42 43
f 43 44 45
f 45 46 47
f 47 48 49
f 49 50 51
f 51 52 53
f 53 54 55
f 55 56 57
f 58 59 60
f 61 62 63
f 64 65 66
f 67 68 69
f 70 71 72
f 73 74 75
f 76 77 78
f 79 80 81
f 82 83 84
f 85 86 87
f 88 89 90
f 91 92 93
f 94 95 96
f 97 98 99
f 100 101 102
f 103 104 105
f 1 3 5
f 5 7 9
f 9 11 13
f 13 15 17
f 17 19 21
f 21 23 25
f 25 27 29
f 29 31 33
f 33 35 37
f 37 39 41
f 41 43 45
f 45 47 49
f 49 51 53
f 53 55 57
f 106 58 60
f 107 61 63
f 108 64 66
f 109 67 69
f 110 70 72
f 111 73 75
f 112 76 78
f 113 79 81
f 114 82 84
f 115 85 87
f 116 88 90
f 117 91 93
f 118 94 96
f 119 97 99
f 120 100 102
f 102 103 105
f 1 5 9
f 9 13 17
f 17 21 25
f 25 29 33
f 33 37 41
f 41 45 49
f 121 106 60
f 122 107 63
f 123 124 125
f 126 108 66
f 127 109 69
f 128 110 72
f 129 111 75
f 130 112 78
f 131 113 81
f 132 114 84
f 133 115 87
f 134 116 90
f 135 117 93
f 136 118 96
f 137 119 99
f 99 120 102
f 1 9 17
f 17 25 33
f 33 41 49
f 138 121 60
f 139 122 63
f 140 123 125
f 141 126 66
f 142 127 69
f 143 128 72
f 144 129 75
f 145 130 78
f 146 131 81
f 147 132 84
f 148 133 87
f 87 134 90
f 90 135 93
f 93 136 96
f 96 137 99
f 1 17 33
f 33 49 53
f 149 138 60
f 150 139 63
f 151 141 66
f 152 142 69
f 153 143 72
f 154 144 75
f 155 145 78
f 156 146 81
f 157 147 84
f 158 148 87
f 1 33 53
f 159 149 60
f 160 150 63
f 161 151 66
f 162 152 69
f 163 153 72
f 164 154 75
f 165 155 78
f 78 156 81
f 81 157 84
f 84 158 87
f 105 1 53
f 166 159 60
f 167 160 63
f 168 161 66
f 169 162 69
f 170 163 72
f 171 164 75
f 172 165 78
f 84 87 90
f 105 53 57
f 173 166 60
f 174 167 63
f 175 140 125
f 176 168 66
f 177 169 69
f 69 170 72
f 72 171 75
f 75 172 78
f 84 90 93
f 99 102 57
f 102 105 57
f 178 173 60
f 179 174 63
f 180 175 125
f 181 176 66
f 182 177 69
f 75 78 81
f 84 93 96
f 96 99 57
f 183 178 60
f 184 179 63
f 185 180 125
f 125 181 66
f 66 182 69
f 75 81 84
f 84 96 57
f 186 183 60
f 187 184 63
f 188 185 125
f 66 69 72
f 84 57 189
f 190 186 60
f 191 187 63
f 192 188 125
f 66 72 75
f 84 189 193
f 194 190 60
f 195 191 63
f 196 192 125
f 84 193 197
f 198 194 60
f 199 195 63
f 200 196 125
f 84 197 201
f 202 198 60
f 203 199 63
f 204 200 125
f 84 201 205
f 206 202 60
f 207 203 63
f 208 204 125
f 75 84 205
f 209 206 60
f 210 207 63
f 211 208 125
f 75 205 212
f 213 209 60
f 214 210 63
f 215 211 125
f 75 212 216
f 217 213 60
f 218 214 63
f 219 215 125
f 75 216 220
f 221 217 60
f 222 218 63
f 223 219 125
f 75 220 224
f 225 221 60
f 226 222 63
f 227 223 125
f 75 224 228
f 229 225 60
f 230 226 63
f 231 227 125
f 75 228 232
f 233 229 60
f 234 230 63
f 235 231 125
f 75 232 236
f 237 233 60
f 238 234 63
f 239 235 125
f 75 236 240
f 241 237 60
f 242 238 63
f 243 239 125
f 75 240 244
f 245 241 60
f 246 242 63
f 247 243 125
f 75 244 248
f 249 245 60
f 250 246 63
f 251 247 125
f 75 248 252
f 253 249 60
f 254 250 63
f 255 251 125
f 75 252 256
f 257 253 60
f 258 254 63
f 259 255 125
f 75 256 260
f 261 257 60
f 60 258 63
f 262 259 125
f 66 75 260
f 263 261 60
f 60 63 264
f 265 262 125
f 66 260 266
f 267 263 60
f 60 264 268
f 269 265 125
f 66 266 270
f 271 267 60
f 60 268 272
f 273 269 125
f 66 270 274
f 274 271 60
f 60 272 275
f 276 273 125
f 66 274 60
f 60 275 277
f 278 276 125
f 125 66 60
f 60 277 279
f 280 278 125
f 125 60 279
f 281 280 125
f 125 279 282
f 283 281 125
f 125 282 284
f 285 283 125
f 125 284 286
f 287 285 125
f 125 286 288
f 289 287 125
f 125 288 290
f 291 289 125
f 125 290 292
f 293 291 125
f 125 292 294
f 295 293 125
f 125 294 296
f 296 295 125
f 124 2 3
