v 0.490460 -0.463761 -0.825000
v 0.490460 -0.463761 -0.036213
v 0.490459 -0.463760 -0.035995
v 0.490455 -0.463757 -0.035778
v 0.490449 -0.463752 -0.035562
v 0.490441 -0.463745 -0.035347
v 0.490431 -0.463737 -0.035132
v 0.490418 -0.463726 -0.034918
v 0.490403 -0.463713 -0.034705
v 0.490385 -0.463699 -0.034493
v 0.490366 -0.463682 -0.034282
v 0.490344 -0.463663 -0.034071
v 0.490319 -0.463643 -0.033860
v 0.490292 -0.463620 -0.033651
v 0.490263 -0.463596 -0.033442
v 0.490232 -0.463570 -0.033233
v 0.490198 -0.463541 -0.033026
v 0.490162 -0.463511 -0.032818
v 0.490124 -0.463479 -0.032611
v 0.490083 -0.463445 -0.032405
v 0.490040 -0.463408 -0.032199
v 0.489994 -0.463370 -0.031994
v 0.489947 -0.463330 -0.031789
v 0.489897 -0.463288 -0.031585
v 0.489844 -0.463244 -0.031381
v 0.489790 -0.463199 -0.031178
v 0.489733 -0.463151 -0.030977
v 0.489674 -0.463102 -0.030776
v 0.489613 -0.463051 -0.030576
v 0.489550 -0.462998 -0.030377
v 0.489485 -0.462943 -0.030180
v 0.489417 -0.462886 -0.029983
v 0.489348 -0.462828 -0.029788
v 0.489277 -0.462768 -0.029595
v 0.489203 -0.462707 -0.029403
v 0.489128 -0.462643 -0.029212
v 0.489050 -0.462578 -0.029023
v 0.488971 -0.462512 -0.028836
v 0.488890 -0.462444 -0.028650
v 0.488807 -0.462374 -0.028467
v 0.488722 -0.462302 -0.028285
v 0.488635 -0.462229 -0.028105
v 0.488546 -0.462155 -0.027927
v 0.488455 -0.462078 -0.027750
v 0.488362 -0.462000 -0.027575
v 0.488267 -0.461921 -0.027402
v 0.488170 -0.461840 -0.027231
v 0.488071 -0.461757 -0.027061
v 0.487970 -0.461672 -0.026893
v 0.487867 -0.461585 -0.026727
v 0.487762 -0.461497 -0.026562
v 0.487655 -0.461408 -0.026399
v 0.487546 -0.461316 -0.026237
v 0.487435 -0.461223 -0.026077
v 0.487321 -0.461127 -0.025919
v 0.487206 -0.461031 -0.025762
v 0.487088 -0.460932 -0.025607
v 0.486957 -0.460822 -0.025435
v 0.486826 -0.460711 -0.025264
v 0.486694 -0.460601 -0.025093
v 0.486563 -0.460491 -0.024922
v 0.486431 -0.460381 -0.024751
v 0.486300 -0.460271 -0.024580
v 0.486169 -0.460160 -0.024408
v 0.486037 -0.460050 -0.024237
v 0.485906 -0.459940 -0.024066
v 0.485775 -0.459830 -0.023895
v 0.485644 -0.459720 -0.023724
v 0.485512 -0.459610 -0.023553
v 0.485381 -0.459499 -0.023382
v 0.485250 -0.459389 -0.023211
v 0.485119 -0.459279 -0.023040
v 0.484987 -0.459169 -0.022869
v 0.484856 -0.459059 -0.022698
v 0.484725 -0.458949 -0.022527
v 0.484594 -0.458839 -0.022356
v 0.484463 -0.458729 -0.022185
v 0.484331 -0.458619 -0.022014
v 0.484200 -0.458509 -0.021843
v 0.484069 -0.458398 -0.021672
v 0.483938 -0.458288 -0.021501
v 0.483807 -0.458178 -0.021331
v 0.483676 -0.458068 -0.021160
v 0.483545 -0.457958 -0.020989
v 0.483413 -0.457848 -0.020818
v 0.483282 -0.457738 -0.020647
v 0.483151 -0.457628 -0.020476
v 0.483020 -0.457518 -0.020306
v 0.482889 -0.457408 -0.020135
v 0.482758 -0.457298 -0.019964
v 0.482627 -0.457188 -0.019793
v 0.482496 -0.457079 -0.019623
v 0.482365 -0.456969 -0.019452
v 0.482234 -0.456859 -0.019281
v 0.482103 -0.456749 -0.019111
v 0.481972 -0.456639 -0.018940
v 0.481841 -0.456529 -0.018769
v 0.481710 -0.456419 -0.018599
v 0.481579 -0.456309 -0.018428
v 0.481448 -0.456199 -0.018257
v 0.481317 -0.456089 -0.018087
v 0.481186 -0.455980 -0.017916
v 0.481055 -0.455870 -0.017746
v 0.480925 -0.455760 -0.017575
v 0.480794 -0.455650 -0.017404
v 0.480663 -0.455540 -0.017234
v 0.480532 -0.455430 -0.017063
v 0.480401 -0.455321 -0.016893
v 0.480270 -0.455211 -0.016722
v 0.480139 -0.455101 -0.016552
v 0.480009 -0.454991 -0.016381
v 0.479878 -0.454882 -0.016211
v 0.479878 -0.454882 -0.857174
v 0.480070 -0.455043 -0.856591
v 0.480261 -0.455203 -0.856008
v 0.480453 -0.455364 -0.855425
v 0.480645 -0.455525 -0.854842
v 0.480837 -0.455686 -0.854258
v 0.481029 -0.455847 -0.853675
v 0.481221 -0.456008 -0.853091
v 0.481413 -0.456169 -0.852508
v 0.481605 -0.456331 -0.851924
v 0.481797 -0.456492 -0.851340
v 0.481989 -0.456653 -0.850757
v 0.482181 -0.456814 -0.850173
v 0.482373 -0.456975 -0.849589
v 0.482565 -0.457136 -0.849005
v 0.482757 -0.457297 -0.848421
v 0.482949 -0.457459 -0.847837
v 0.483141 -0.457620 -0.847252
v 0.483333 -0.457781 -0.846668
v 0.483526 -0.457942 -0.846084
v 0.483718 -0.458104 -0.845499
v 0.483910 -0.458265 -0.844915
v 0.484102 -0.458426 -0.844330
v 0.484295 -0.458588 -0.843746
v 0.484487 -0.458749 -0.843161
v 0.484679 -0.458910 -0.842576
v 0.484872 -0.459072 -0.841991
v 0.485064 -0.459233 -0.841406
v 0.485256 -0.459395 -0.840822
v 0.485449 -0.459556 -0.840236
v 0.485641 -0.459718 -0.839651
v 0.485834 -0.459879 -0.839066
v 0.486026 -0.460041 -0.838481
v 0.486219 -0.460202 -0.837896
v 0.486411 -0.460364 -0.837310
v 0.486604 -0.460525 -0.836725
v 0.486796 -0.460687 -0.836139
v 0.486989 -0.460849 -0.835553
v 0.487182 -0.461010 -0.834968
v 0.487374 -0.461172 -0.834382
v 0.487567 -0.461333 -0.833796
v 0.487760 -0.461495 -0.833210
v 0.487952 -0.461657 -0.832624
v 0.488145 -0.461819 -0.832038
v 0.488338 -0.461980 -0.831452
v 0.488531 -0.462142 -0.830866
v 0.488723 -0.462304 -0.830280
v 0.488916 -0.462466 -0.829693
v 0.489109 -0.462628 -0.829107
v 0.489302 -0.462789 -0.828520
v 0.489495 -0.462951 -0.827934
v 0.489688 -0.463113 -0.827347
v 0.489881 -0.463275 -0.826761
v 0.490074 -0.463437 -0.826174
v 0.490267 -0.463599 -0.825587
f 112 110 111
f 112 109 110
f 112 108 109
f 112 107 108
f 112 106 107
f 112 105 106
f 112 104 105
f 112 103 104
f 112 102 103
f 112 101 102
f 112 100 101
f 112 99 100
f 112 98 99
f 112 97 98
f 112 96 97
f 112 95 96
f 112 94 95
f 112 93 94
f 112 92 93
f 112 91 92
f 112 90 91
f 112 89 90
f 112 88 89
f 112 87 88
f 112 86 87
f 112 85 86
f 112 84 85
f 112 83 84
f 112 82 83
f 112 81 82
f 112 80 81
f 112 79 80
f 112 78 79
f 112 77 78
f 112 76 77
f 112 75 76
f 112 74 75
f 112 73 74
f 112 72 73
f 112 71 72
f 112 70 71
f 112 69 70
f 112 68 69
f 112 67 68
f 112 66 67
f 112 65 66
f 112 64 65
f 112 63 64
f 112 62 63
f 112 61 62
f 112 60 61
f 112 59 60
f 112 58 59
f 112 57 58
f 112 56 57
f 112 55 56
f 112 54 55
f 112 53 54
f 112 52 53
f 112 51 52
f 112 50 51
f 112 49 50
f 112 48 49
f 112 47 48
f 112 46 47
f 112 45 46
f 112 44 45
f 112 43 44
f 112 42 43
f 112 41 42
f 112 40 41
f 112 39 40
f 112 38 39
f 112 37 38
f 112 36 37
f 112 35 36
f 112 34 35
f 112 33 34
f 112 32 33
f 112 31 32
f 112 30 31
f 112 29 30
f 112 28 29
f 112 27 28
f 112 26 27
f 112 25 26
f 112 24 25
f 112 23 24
f 112 22 23
f 112 21 22
f 112 20 21
f 112 19 20
f 112 18 19
f 112 17 18
f 112 16 17
f 112 15 16
f 112 14 15
f 112 13 14
f 112 12 13
f 112 11 12
f 112 10 11
f 112 9 10
f 112 8 9
f 112 7 8
f 112 6 7
f 112 5 6
f 112 4 5
f 112 3 4
f 112 2 3
f 112 1 2
f 112 167 1
f 112 166 167
f 112 165 166
f 112 164 165
f 112 163 164
f 112 162 163
f 112 161 162
f 112 160 161
f 112 159 160
f 112 158 159
f 112 157 158
f 112 156 157
f 112 155 156
f 112 154 155
f 112 153 154
f 112 152 153
f 112 151 152
f 112 150 151
f 112 149 150
f 112 148 149
f 112 147 148
f 112 146 147
f 112 145 146
f 112 144 145
f 112 143 144
f 112 142 143
f 112 141 142
f 112 140 141
f 112 139 140
f 112 138 139
f 112 137 138
f 112 136 137
f 112 135 136
f 112 134 135
f 112 133 134
f 112 132 133
f 112 131 132
f 112 130 131
f 112 129 130
f 112 128 129
f 112 127 128
f 112 126 127
f 112 125 126
f 112 124 125
f 112 123 124
f 112 122 123
f 112 121 122
f 112 120 121
f 112 119 120
f 112 118 119
f 112 117 118
f 112 116 117
f 112 115 116
f 112 114 115
f 112 113 114
