v 2.042500 0.790488 -4.837000
v 2.042057 0.779694 -4.823339
v 2.042500 0.300000 -4.837000
v 2.041410 0.300000 -4.815502
v 2.040777 0.769368 -4.810058
v 2.038728 0.759540 -4.797197
v 2.038150 0.300000 -4.794224
v 2.035984 0.750239 -4.784792
v 2.032755 0.300000 -4.773385
v 2.032609 0.741492 -4.772878
v 2.028643 0.733299 -4.761444
v 2.025279 0.300000 -4.753199
v 2.024108 0.725645 -4.750461
v 2.019028 0.718516 -4.739900
v 2.015799 0.300000 -4.733873
v 2.013427 0.711896 -4.729732
v 2.007335 0.705791 -4.719955
v 2.004412 0.300000 -4.715606
v 2.000785 0.700219 -4.710591
v 1.993813 0.695199 -4.701662
v 1.991236 0.300000 -4.698583
v 1.986453 0.690751 -4.693190
v 1.978724 0.686889 -4.685186
v 1.976405 0.300000 -4.682982
v 1.970617 0.683618 -4.677639
v 1.962119 0.680943 -4.670539
v 1.960073 0.300000 -4.668960
v 1.953218 0.678868 -4.663874
v 1.943918 0.677399 -4.657642
v 1.942405 0.300000 -4.656663
v 1.934269 0.676544 -4.651874
v 1.924328 0.676311 -4.646607
v 1.923584 0.300000 -4.646217
v 1.914155 0.676708 -4.641877
v 1.903802 0.300000 -4.637728
v 1.903803 0.677741 -4.637717
v 1.893296 0.679399 -4.634132
v 1.883264 0.300000 -4.631284
v 1.882642 0.681665 -4.631115
v 1.871851 0.684522 -4.628661
v 1.862178 0.300000 -4.626950
v 1.860934 0.687953 -4.626763
v 1.849890 0.691953 -4.625429
v 1.840763 0.300000 -4.624773
v 1.838716 0.696526 -4.624674
v 1.827406 0.701676 -4.624514
v 1.819237 0.300000 -4.624773
v 1.815956 0.707406 -4.624965
v 1.804374 0.713716 -4.626050
v 1.797822 0.300000 -4.626950
v 1.792685 0.720601 -4.627799
v 1.780918 0.728056 -4.630243
v 1.776736 0.300000 -4.631284
v 1.769099 0.736075 -4.633415
v 1.757265 0.744644 -4.637340
v 1.756198 0.300000 -4.637728
v 1.745483 0.753723 -4.642035
v 1.736416 0.300000 -4.646217
v 1.733822 0.763269 -4.647512
v 1.722351 0.773238 -4.653784
v 1.717595 0.300000 -4.656663
v 1.711141 0.783583 -4.660860
v 1.700270 0.794236 -4.668712
v 1.699927 0.300000 -4.668960
v 1.689820 0.805119 -4.677307
v 1.683595 0.300000 -4.682982
v 1.679872 0.816157 -4.686610
v 1.670504 0.827275 -4.696582
v 1.668764 0.300000 -4.698583
v 1.661782 0.838395 -4.707163
v 1.655588 0.300000 -4.715606
v 1.653759 0.849442 -4.718275
v 1.646491 0.860340 -4.729844
v 1.644201 0.300000 -4.733873
v 1.640032 0.871012 -4.741792
v 1.634721 0.300000 -4.753199
v 1.634410 0.881383 -4.754013
v 1.629623 0.891378 -4.766368
v 1.627245 0.300000 -4.773385
v 1.625671 0.900921 -4.778718
v 1.622550 0.909937 -4.790924
v 1.621850 0.300000 -4.794224
v 1.620238 0.918383 -4.802881
v 1.618671 0.926279 -4.814560
v 1.618590 0.300000 -4.815502
v 1.617781 0.933657 -4.825940
v 1.617500 0.940546 -4.837000
v 1.617500 0.300000 -4.837000
f 1 3 2
f 2 3 4
f 2 4 5
f 5 4 6
f 6 4 7
f 6 7 8
f 8 7 9
f 8 9 10
f 10 9 11
f 11 9 12
f 11 12 13
f 13 12 14
f 14 12 15
f 14 15 16
f 16 15 17
f 17 15 18
f 17 18 19
f 19 18 20
f 20 18 21
f 20 21 22
f 22 21 23
f 23 21 24
f 23 24 25
f 25 24 26
f 26 24 27
f 26 27 28
f 28 27 29
f 29 27 30
f 29 30 31
f 31 30 32
f 32 30 33
f 32 33 34
f 34 33 35
f 34 35 36
f 36 35 37
f 37 35 38
f 37 38 39
f 39 38 40
f 40 38 41
f 40 41 42
f 42 41 43
f 43 41 44
f 43 44 45
f 45 44 46
f 46 44 47
f 46 47 48
f 48 47 49
f 49 47 50
f 49 50 51
f 51 50 52
f 52 50 53
f 52 53 54
f 54 53 55
f 55 53 56
f 55 56 57
f 57 56 58
f 57 58 59
f 59 58 60
f 60 58 61
f 60 61 62
f 62 61 63
f 63 61 64
f 63 64 65
f 65 64 66
f 65 66 67
f 67 66 68
f 68 66 69
f 68 69 70
f 70 69 71
f 70 71 72
f 72 71 73
f 73 71 74
f 73 74 75
f 75 74 76
f 75 76 77
f 77 76 78
f 78 76 79
f 78 79 80
f 80 79 81
f 81 79 82
f 81 82 83
f 83 82 84
f 84 82 85
f 84 85 86
f 86 85 87
f 87 85 88
