v 0.368922 0.016611 -0.567185
v 0.368667 0.015112 -0.565563
v 0.368702 0.013592 -0.563724
v 0.369065 0.012302 -0.561944
v 0.369847 0.011166 -0.560069
v 0.370975 0.010403 -0.558407
v 0.372548 0.010021 -0.556899
v 0.368922 0.115000 -0.567185
v 0.368668 0.115000 -0.565563
v 0.368702 0.115000 -0.563724
v 0.369066 0.115000 -0.561944
v 0.369846 0.115000 -0.560069
v 0.370975 0.115000 -0.558407
v 0.372548 0.115000 -0.556899
v 0.368922 0.220000 -0.567185
v 0.368668 0.220000 -0.565563
v 0.368702 0.220000 -0.563724
v 0.369066 0.220000 -0.561944
v 0.369846 0.220000 -0.560069
v 0.370975 0.220000 -0.558407
v 0.372548 0.220000 -0.556899
f 1 9 2
f 1 8 9
f 2 10 3
f 2 9 10
f 3 11 4
f 3 10 11
f 4 12 5
f 4 11 12
f 5 13 6
f 5 12 13
f 6 14 7
f 6 13 14
f 8 16 9
f 8 15 16
f 9 17 10
f 9 16 17
f 10 18 11
f 10 17 18
f 11 19 12
f 11 18 19
f 12 20 13
f 12 19 20
f 13 21 14
f 13 20 21
