v -0.655857864 0.000000000 -0.530000000
v -0.652492870 -0.066352040 -0.530000000
v -0.642432415 -0.132023217 -0.530000000
v -0.625779735 -0.196339659 -0.530000000
v -0.602705708 -0.258641389 -0.530000000
v -0.573447104 -0.318289109 -0.530000000
v -0.538304158 -0.374670752 -0.530000000
v -0.497637482 -0.427207765 -0.530000000
v -0.451864372 -0.475361050 -0.530000000
v -0.401454522 -0.518636486 -0.530000000
v -0.346925206 -0.556590010 -0.530000000
v -0.288835968 -0.588832168 -0.530000000
v -0.227782881 -0.615032111 -0.530000000
v -0.164392435 -0.634920992 -0.530000000
v -0.099315099 -0.648294724 -0.530000000
v -0.033218656 -0.655016076 -0.530000000
v 0.033218656 -0.655016076 -0.530000000
v 0.099315099 -0.648294724 -0.530000000
v 0.164392435 -0.634920992 -0.530000000
v 0.227782881 -0.615032111 -0.530000000
v 0.288835968 -0.588832168 -0.530000000
v 0.346925206 -0.556590010 -0.530000000
v 0.401454522 -0.518636486 -0.530000000
v 0.451864372 -0.475361050 -0.530000000
v 0.497637482 -0.427207765 -0.530000000
v 0.538304158 -0.374670752 -0.530000000
v 0.573447104 -0.318289109 -0.530000000
v 0.602705708 -0.258641389 -0.530000000
v 0.625779735 -0.196339659 -0.530000000
v 0.642432415 -0.132023217 -0.530000000
v 0.652492870 -0.066352040 -0.530000000
v 0.655857864 0.000000000 -0.530000000
v 0.652492870 0.066352040 -0.530000000
v 0.642432415 0.132023217 -0.530000000
v 0.625779735 0.196339659 -0.530000000
v 0.602705708 0.258641389 -0.530000000
v 0.573447104 0.318289109 -0.530000000
v 0.538304158 0.374670752 -0.530000000
v 0.497637482 0.427207765 -0.530000000
v 0.451864372 0.475361050 -0.530000000
v 0.401454522 0.518636486 -0.530000000
v 0.346925206 0.556590010 -0.530000000
v 0.288835968 0.588832168 -0.530000000
v 0.227782881 0.615032111 -0.530000000
v 0.164392435 0.634920992 -0.530000000
v 0.099315099 0.648294724 -0.530000000
v 0.033218656 0.655016076 -0.530000000
v -0.033218656 0.655016076 -0.530000000
v -0.099315099 0.648294724 -0.530000000
v -0.164392435 0.634920992 -0.530000000
v -0.227782881 0.615032111 -0.530000000
v -0.288835968 0.588832168 -0.530000000
v -0.346925206 0.556590010 -0.530000000
v -0.401454522 0.518636486 -0.530000000
v -0.451864372 0.475361050 -0.530000000
v -0.497637482 0.427207765 -0.530000000
v -0.538304158 0.374670752 -0.530000000
v -0.573447104 0.318289109 -0.530000000
v -0.602705708 0.258641389 -0.530000000
v -0.625779735 0.196339659 -0.530000000
v -0.642432415 0.132023217 -0.530000000
v -0.652492870 0.066352040 -0.530000000
v 0.340857864 0.000000000 -0.530000000
v 0.342682609 0.017944180 -0.530000000
v 0.348082138 0.035153723 -0.530000000
v 0.356835394 0.050924069 -0.530000000
v 0.368584017 0.064609577 -0.530000000
v 0.382847018 0.075649961 -0.530000000
v 0.399040468 0.083593228 -0.530000000
v 0.416501405 0.088114177 -0.530000000
v 0.434514975 0.089027722 -0.530000000
v 0.452343702 0.086296462 -0.530000000
v 0.469257675 0.080032214 -0.530000000
v 0.484564435 0.070491438 -0.530000000
v 0.497637319 0.058064734 -0.530000000
v 0.507941125 0.043260853 -0.530000000
v 0.515054011 0.026685868 -0.530000000
v 0.518684776 0.009018360 -0.530000000
v 0.518684776 -0.009018360 -0.530000000
v 0.515054011 -0.026685868 -0.530000000
v 0.507941125 -0.043260853 -0.530000000
v 0.497637319 -0.058064734 -0.530000000
v 0.484564435 -0.070491438 -0.530000000
v 0.469257675 -0.080032214 -0.530000000
v 0.452343702 -0.086296462 -0.530000000
v 0.434514975 -0.089027722 -0.530000000
v 0.416501405 -0.088114177 -0.530000000
v 0.399040468 -0.083593228 -0.530000000
v 0.382847018 -0.075649961 -0.530000000
v 0.368584017 -0.064609577 -0.530000000
v 0.356835394 -0.050924069 -0.530000000
v 0.348082138 -0.035153723 -0.530000000
v 0.342682609 -0.017944180 -0.530000000
v -0.166642136 0.000000000 -0.530000000
v -0.165787149 0.016858905 -0.530000000
v -0.163230961 0.033544815 -0.530000000
v -0.158999803 0.049886510 -0.530000000
v -0.153137092 0.065716302 -0.530000000
v -0.145702987 0.080871755 -0.530000000
v -0.136773773 0.095197355 -0.530000000
v -0.126441074 0.108546102 -0.530000000
v -0.114810919 0.120781018 -0.530000000
v -0.102002648 0.131776558 -0.530000000
v -0.088147692 0.141419891 -0.530000000
v -0.073388222 0.149612066 -0.530000000
v -0.057875689 0.156269018 -0.530000000
v -0.041769273 0.161322439 -0.530000000
v -0.025234248 0.164720473 -0.530000000
v -0.008440286 0.166428252 -0.530000000
v 0.008440286 0.166428252 -0.530000000
v 0.025234248 0.164720473 -0.530000000
v 0.041769273 0.161322439 -0.530000000
v 0.057875689 0.156269018 -0.530000000
v 0.073388222 0.149612066 -0.530000000
v 0.088147692 0.141419891 -0.530000000
v 0.102002648 0.131776558 -0.530000000
v 0.114810919 0.120781018 -0.530000000
v 0.126441074 0.108546102 -0.530000000
v 0.136773773 0.095197355 -0.530000000
v 0.145702987 0.080871755 -0.530000000
v 0.153137092 0.065716302 -0.530000000
v 0.158999803 0.049886510 -0.530000000
v 0.163230961 0.033544815 -0.530000000
v 0.165787149 0.016858905 -0.530000000
v 0.166642136 0.000000000 -0.530000000
v 0.165787149 -0.016858905 -0.530000000
v 0.163230961 -0.033544815 -0.530000000
v 0.158999803 -0.049886510 -0.530000000
v 0.153137092 -0.065716302 -0.530000000
v 0.145702987 -0.080871755 -0.530000000
v 0.136773773 -0.095197355 -0.530000000
v 0.126441074 -0.108546102 -0.530000000
v 0.114810919 -0.120781018 -0.530000000
v 0.102002648 -0.131776558 -0.530000000
v 0.088147692 -0.141419891 -0.530000000
v 0.073388222 -0.149612066 -0.530000000
v 0.057875689 -0.156269018 -0.530000000
v 0.041769273 -0.161322439 -0.530000000
v 0.025234248 -0.164720473 -0.530000000
v 0.008440286 -0.166428252 -0.530000000
v -0.008440286 -0.166428252 -0.530000000
v -0.025234248 -0.164720473 -0.530000000
v -0.041769273 -0.161322439 -0.530000000
v -0.057875689 -0.156269018 -0.530000000
v -0.073388222 -0.149612066 -0.530000000
v -0.088147692 -0.141419891 -0.530000000
v -0.102002648 -0.131776558 -0.530000000
v -0.114810919 -0.120781018 -0.530000000
v -0.126441074 -0.108546102 -0.530000000
v -0.136773773 -0.095197355 -0.530000000
v -0.145702987 -0.080871755 -0.530000000
v -0.153137092 -0.065716302 -0.530000000
v -0.158999803 -0.049886510 -0.530000000
v -0.163230961 -0.033544815 -0.530000000
v -0.165787149 -0.016858905 -0.530000000
v -0.519142136 0.000000000 -0.530000000
v -0.517317391 0.017944180 -0.530000000
v -0.511917862 0.035153723 -0.530000000
v -0.503164606 0.050924069 -0.530000000
v -0.491415983 0.064609577 -0.530000000
v -0.477152982 0.075649961 -0.530000000
v -0.460959532 0.083593228 -0.530000000
v -0.443498595 0.088114177 -0.530000000
v -0.425485025 0.089027722 -0.530000000
v -0.407656298 0.086296462 -0.530000000
v -0.390742325 0.080032214 -0.530000000
v -0.375435565 0.070491438 -0.530000000
v -0.362362681 0.058064734 -0.530000000
v -0.352058875 0.043260853 -0.530000000
v -0.344945989 0.026685868 -0.530000000
v -0.341315224 0.009018360 -0.530000000
v -0.341315224 -0.009018360 -0.530000000
v -0.344945989 -0.026685868 -0.530000000
v -0.352058875 -0.043260853 -0.530000000
v -0.362362681 -0.058064734 -0.530000000
v -0.375435565 -0.070491438 -0.530000000
v -0.390742325 -0.080032214 -0.530000000
v -0.407656298 -0.086296462 -0.530000000
v -0.425485025 -0.089027722 -0.530000000
v -0.443498595 -0.088114177 -0.530000000
v -0.460959532 -0.083593228 -0.530000000
v -0.477152982 -0.075649961 -0.530000000
v -0.491415983 -0.064609577 -0.530000000
v -0.503164606 -0.050924069 -0.530000000
v -0.511917862 -0.035153723 -0.530000000
v -0.517317391 -0.017944180 -0.530000000
v 0.362362681 0.027900526 -0.530000000
v 0.382847018 0.027900526 -0.530000000
v 0.399040468 0.027900526 -0.530000000
v 0.416501405 0.027900526 -0.530000000
v 0.434514975 0.027900526 -0.530000000
v 0.452343702 0.027900526 -0.530000000
v 0.469257675 0.027900526 -0.530000000
v 0.491415983 0.027900526 -0.530000000
v 0.360000000 0.000000000 -0.515000000
v 0.363210252 0.020955419 -0.515000000
v 0.372546559 0.039988775 -0.515000000
v 0.387152581 0.055354302 -0.515000000
v 0.405688632 0.065642649 -0.515000000
v 0.426454558 0.069910156 -0.515000000
v 0.447545677 0.067765398 -0.515000000
v 0.467027481 0.059405098 -0.515000000
v 0.483113069 0.045596074 -0.515000000
v 0.496789748 0.020955419 -0.515000000
v 0.500000000 0.000000000 -0.515000000
v 0.496789748 -0.020955419 -0.515000000
v 0.487453441 -0.039988775 -0.515000000
v 0.472847419 -0.055354302 -0.515000000
v 0.454311368 -0.065642649 -0.515000000
v 0.433545442 -0.069910156 -0.515000000
v 0.412454323 -0.067765398 -0.515000000
v 0.392972519 -0.059405098 -0.515000000
v 0.376886931 -0.045596074 -0.515000000
v 0.365672953 -0.027604910 -0.515000000
v 0.497637319 -0.027900526 -0.530000000
v 0.477152982 -0.027900526 -0.530000000
v 0.460959532 -0.027900526 -0.530000000
v 0.443498595 -0.027900526 -0.530000000
v 0.425485025 -0.027900526 -0.530000000
v 0.407656298 -0.027900526 -0.530000000
v 0.390742325 -0.027900526 -0.530000000
v 0.362362681 -0.027900526 -0.530000000
v 0.500000000 0.000000000 -0.315000000
v 0.496789748 -0.020955419 -0.315000000
v 0.487453441 -0.039988775 -0.315000000
v 0.472847419 -0.055354302 -0.315000000
v 0.454311368 -0.065642649 -0.315000000
v 0.433545442 -0.069910156 -0.315000000
v 0.412454323 -0.067765398 -0.315000000
v 0.392972519 -0.059405098 -0.315000000
v 0.376886931 -0.045596074 -0.315000000
v 0.365672953 -0.027604910 -0.315000000
v 0.360359147 -0.007081783 -0.315000000
v 0.361432904 0.014090896 -0.315000000
v 0.368795737 0.033971137 -0.315000000
v 0.381772316 0.050735495 -0.315000000
v 0.399172409 0.062846318 -0.315000000
v 0.419400056 0.069192783 -0.315000000
v 0.440599944 0.069192783 -0.315000000
v 0.460827591 0.062846318 -0.315000000
v 0.478227684 0.050735495 -0.315000000
v 0.491204263 0.033971137 -0.315000000
v 0.512071068 0.000000000 -0.302928932
v 0.510391068 0.016520784 -0.302928932
v 0.505419849 0.032365206 -0.302928932
v 0.497360932 0.046884592 -0.302928932
v 0.486544251 0.059484518 -0.302928932
v 0.473412641 0.069649140 -0.302928932
v 0.458503713 0.076962319 -0.302928932
v 0.442427839 0.081124651 -0.302928932
v 0.425843169 0.081965730 -0.302928932
v 0.409428679 0.079451123 -0.302928932
v 0.393856382 0.073683777 -0.302928932
v 0.379763808 0.064899809 -0.302928932
v 0.367727911 0.053458835 -0.302928932
v 0.358241440 0.039829250 -0.302928932
v 0.351692772 0.024569051 -0.302928932
v 0.348350012 0.008302992 -0.302928932
v 0.486544251 0.025687358 -0.302928932
v 0.466143618 0.025687358 -0.302928932
v 0.450571321 0.025687358 -0.302928932
v 0.434156831 0.025687358 -0.302928932
v 0.417572161 0.025687358 -0.302928932
v 0.401496287 0.025687358 -0.302928932
v 0.379763808 0.025687358 -0.302928932
v 0.347928932 -0.025687358 -0.302928932
v 0.379763808 -0.025687358 -0.302928932
v 0.401496287 -0.025687358 -0.302928932
v 0.417572161 -0.025687358 -0.302928932
v 0.434156831 -0.025687358 -0.302928932
v 0.450571321 -0.025687358 -0.302928932
v 0.466143618 -0.025687358 -0.302928932
v 0.486544251 -0.025687358 -0.302928932
v 0.505419849 -0.025687358 -0.302928932
v 0.348350012 -0.008302992 -0.302928932
v 0.358241440 -0.039829250 -0.302928932
v 0.367727911 -0.053458835 -0.302928932
v 0.379763808 -0.064899809 -0.302928932
v 0.393856382 -0.073683777 -0.302928932
v 0.409428679 -0.079451123 -0.302928932
v 0.425843169 -0.081965730 -0.302928932
v 0.442427839 -0.081124651 -0.302928932
v 0.458503713 -0.076962319 -0.302928932
v 0.473412641 -0.069649140 -0.302928932
v 0.486544251 -0.059484518 -0.302928932
v 0.497360932 -0.046884592 -0.302928932
v 0.652492870 0.066352040 -0.300000000
v 0.642432415 0.132023217 -0.300000000
v 0.625779735 0.196339659 -0.300000000
v 0.602705708 0.258641389 -0.300000000
v 0.573447104 0.318289109 -0.300000000
v 0.538304158 0.374670752 -0.300000000
v 0.497637482 0.427207765 -0.300000000
v 0.451864372 0.475361050 -0.300000000
v 0.401454522 0.518636486 -0.300000000
v 0.346925206 0.556590010 -0.300000000
v 0.288835968 0.588832168 -0.300000000
v 0.227782881 0.615032111 -0.300000000
v 0.164392435 0.634920992 -0.300000000
v 0.099315099 0.648294724 -0.300000000
v 0.033218656 0.655016076 -0.300000000
v -0.033218656 0.655016076 -0.300000000
v -0.099315099 0.648294724 -0.300000000
v -0.164392435 0.634920992 -0.300000000
v -0.227782881 0.615032111 -0.300000000
v -0.288835968 0.588832168 -0.300000000
v -0.346925206 0.556590010 -0.300000000
v -0.401454522 0.518636486 -0.300000000
v -0.451864372 0.475361050 -0.300000000
v -0.497637482 0.427207765 -0.300000000
v -0.538304158 0.374670752 -0.300000000
v -0.573447104 0.318289109 -0.300000000
v -0.602705708 0.258641389 -0.300000000
v -0.625779735 0.196339659 -0.300000000
v -0.642432415 0.132023217 -0.300000000
v -0.652492870 0.066352040 -0.300000000
v -0.655857864 0.000000000 -0.300000000
v -0.652492870 -0.066352040 -0.300000000
v -0.642432415 -0.132023217 -0.300000000
v -0.625779735 -0.196339659 -0.300000000
v -0.602705708 -0.258641389 -0.300000000
v -0.573447104 -0.318289109 -0.300000000
v -0.538304158 -0.374670752 -0.300000000
v -0.497637482 -0.427207765 -0.300000000
v -0.451864372 -0.475361050 -0.300000000
v -0.401454522 -0.518636486 -0.300000000
v -0.346925206 -0.556590010 -0.300000000
v -0.288835968 -0.588832168 -0.300000000
v -0.227782881 -0.615032111 -0.300000000
v -0.164392435 -0.634920992 -0.300000000
v -0.099315099 -0.648294724 -0.300000000
v -0.033218656 -0.655016076 -0.300000000
v 0.033218656 -0.655016076 -0.300000000
v 0.099315099 -0.648294724 -0.300000000
v 0.164392435 -0.634920992 -0.300000000
v 0.227782881 -0.615032111 -0.300000000
v 0.288835968 -0.588832168 -0.300000000
v 0.346925206 -0.556590010 -0.300000000
v 0.401454522 -0.518636486 -0.300000000
v 0.451864372 -0.475361050 -0.300000000
v 0.497637482 -0.427207765 -0.300000000
v 0.538304158 -0.374670752 -0.300000000
v 0.573447104 -0.318289109 -0.300000000
v 0.602705708 -0.258641389 -0.300000000
v 0.625779735 -0.196339659 -0.300000000
v 0.642432415 -0.132023217 -0.300000000
v 0.652492870 -0.066352040 -0.300000000
v 0.655857864 0.000000000 -0.300000000
v 0.165787149 -0.016858905 -0.300000000
v 0.163230961 -0.033544815 -0.300000000
v 0.158999803 -0.049886510 -0.300000000
v 0.153137092 -0.065716302 -0.300000000
v 0.145702987 -0.080871755 -0.300000000
v 0.136773773 -0.095197355 -0.300000000
v 0.126441074 -0.108546102 -0.300000000
v 0.114810919 -0.120781018 -0.300000000
v 0.102002648 -0.131776558 -0.300000000
v 0.088147692 -0.141419891 -0.300000000
v 0.073388222 -0.149612066 -0.300000000
v 0.057875689 -0.156269018 -0.300000000
v 0.041769273 -0.161322439 -0.300000000
v 0.025234248 -0.164720473 -0.300000000
v 0.008440286 -0.166428252 -0.300000000
v -0.008440286 -0.166428252 -0.300000000
v -0.025234248 -0.164720473 -0.300000000
v -0.041769273 -0.161322439 -0.300000000
v -0.057875689 -0.156269018 -0.300000000
v -0.073388222 -0.149612066 -0.300000000
v -0.088147692 -0.141419891 -0.300000000
v -0.102002648 -0.131776558 -0.300000000
v -0.114810919 -0.120781018 -0.300000000
v -0.126441074 -0.108546102 -0.300000000
v -0.136773773 -0.095197355 -0.300000000
v -0.145702987 -0.080871755 -0.300000000
v -0.153137092 -0.065716302 -0.300000000
v -0.158999803 -0.049886510 -0.300000000
v -0.163230961 -0.033544815 -0.300000000
v -0.165787149 -0.016858905 -0.300000000
v -0.166642136 0.000000000 -0.300000000
v -0.165787149 0.016858905 -0.300000000
v -0.163230961 0.033544815 -0.300000000
v -0.158999803 0.049886510 -0.300000000
v -0.153137092 0.065716302 -0.300000000
v -0.145702987 0.080871755 -0.300000000
v -0.136773773 0.095197355 -0.300000000
v -0.126441074 0.108546102 -0.300000000
v -0.114810919 0.120781018 -0.300000000
v -0.102002648 0.131776558 -0.300000000
v -0.088147692 0.141419891 -0.300000000
v -0.073388222 0.149612066 -0.300000000
v -0.057875689 0.156269018 -0.300000000
v -0.041769273 0.161322439 -0.300000000
v -0.025234248 0.164720473 -0.300000000
v -0.008440286 0.166428252 -0.300000000
v 0.008440286 0.166428252 -0.300000000
v 0.025234248 0.164720473 -0.300000000
v 0.041769273 0.161322439 -0.300000000
v 0.057875689 0.156269018 -0.300000000
v 0.073388222 0.149612066 -0.300000000
v 0.088147692 0.141419891 -0.300000000
v 0.102002648 0.131776558 -0.300000000
v 0.114810919 0.120781018 -0.300000000
v 0.126441074 0.108546102 -0.300000000
v 0.136773773 0.095197355 -0.300000000
v 0.145702987 0.080871755 -0.300000000
v 0.153137092 0.065716302 -0.300000000
v 0.158999803 0.049886510 -0.300000000
v 0.163230961 0.033544815 -0.300000000
v 0.165787149 0.016858905 -0.300000000
v 0.166642136 0.000000000 -0.300000000
v -0.341315224 -0.009018360 -0.300000000
v -0.344945989 -0.026685868 -0.300000000
v -0.352058875 -0.043260853 -0.300000000
v -0.362362681 -0.058064734 -0.300000000
v -0.375435565 -0.070491438 -0.300000000
v -0.390742325 -0.080032214 -0.300000000
v -0.407656298 -0.086296462 -0.300000000
v -0.425485025 -0.089027722 -0.300000000
v -0.443498595 -0.088114177 -0.300000000
v -0.460959532 -0.083593228 -0.300000000
v -0.477152982 -0.075649961 -0.300000000
v -0.491415983 -0.064609577 -0.300000000
v -0.503164606 -0.050924069 -0.300000000
v -0.511917862 -0.035153723 -0.300000000
v -0.517317391 -0.017944180 -0.300000000
v -0.519142136 0.000000000 -0.300000000
v -0.517317391 0.017944180 -0.300000000
v -0.511917862 0.035153723 -0.300000000
v -0.503164606 0.050924069 -0.300000000
v -0.491415983 0.064609577 -0.300000000
v -0.477152982 0.075649961 -0.300000000
v -0.460959532 0.083593228 -0.300000000
v -0.443498595 0.088114177 -0.300000000
v -0.425485025 0.089027722 -0.300000000
v -0.407656298 0.086296462 -0.300000000
v -0.390742325 0.080032214 -0.300000000
v -0.375435565 0.070491438 -0.300000000
v -0.362362681 0.058064734 -0.300000000
v -0.352058875 0.043260853 -0.300000000
v -0.344945989 0.026685868 -0.300000000
v -0.341315224 0.009018360 -0.300000000
v 0.662928932 -0.205276430 -0.302928932
v 0.642432415 -0.205276430 -0.300000000
v 0.602705708 -0.205276430 -0.300000000
v 0.573447104 -0.205276430 -0.300000000
v 0.538304158 -0.205276430 -0.300000000
v 0.497637482 -0.205276430 -0.300000000
v 0.451864372 -0.205276430 -0.300000000
v 0.401454522 -0.205276430 -0.300000000
v 0.346925206 -0.205276430 -0.300000000
v 0.288835968 -0.205276430 -0.300000000
v 0.227782881 -0.205276430 -0.300000000
v 0.164392435 -0.205276430 -0.300000000
v 0.099315099 -0.205276430 -0.300000000
v 0.033218656 -0.205276430 -0.300000000
v -0.033218656 -0.205276430 -0.300000000
v -0.099315099 -0.205276430 -0.300000000
v -0.164392435 -0.205276430 -0.300000000
v -0.227782881 -0.205276430 -0.300000000
v -0.288835968 -0.205276430 -0.300000000
v -0.346925206 -0.205276430 -0.300000000
v -0.401454522 -0.205276430 -0.300000000
v -0.451864372 -0.205276430 -0.300000000
v -0.497637482 -0.205276430 -0.300000000
v -0.538304158 -0.205276430 -0.300000000
v -0.573447104 -0.205276430 -0.300000000
v -0.602705708 -0.205276430 -0.300000000
v -0.642432415 -0.205276430 -0.300000000
v -0.657870850 -0.205276430 -0.300204701
v 0.670000000 0.000000000 -0.310000000
v 0.666562447 -0.067782776 -0.310000000
v 0.656285061 -0.134870008 -0.310000000
v 0.615701734 -0.264218423 -0.310000000
v 0.585812233 -0.325152315 -0.310000000
v 0.549911506 -0.382749704 -0.310000000
v 0.508367942 -0.436419563 -0.310000000
v 0.461607836 -0.485611167 -0.310000000
v 0.410111008 -0.529819744 -0.310000000
v 0.354405887 -0.568591653 -0.310000000
v 0.295064082 -0.601529042 -0.310000000
v 0.232694519 -0.628293929 -0.310000000
v 0.167937197 -0.648611670 -0.310000000
v 0.101456611 -0.662273777 -0.310000000
v 0.033934943 -0.669140060 -0.310000000
v -0.033934943 -0.669140060 -0.310000000
v -0.101456611 -0.662273777 -0.310000000
v -0.167937197 -0.648611670 -0.310000000
v -0.232694519 -0.628293929 -0.310000000
v -0.295064082 -0.601529042 -0.310000000
v -0.354405887 -0.568591653 -0.310000000
v -0.410111008 -0.529819744 -0.310000000
v -0.461607836 -0.485611167 -0.310000000
v -0.508367942 -0.436419563 -0.310000000
v -0.549911506 -0.382749704 -0.310000000
v -0.585812233 -0.325152315 -0.310000000
v -0.615701734 -0.264218423 -0.310000000
v -0.656285061 -0.134870008 -0.310000000
v -0.666562447 -0.067782776 -0.310000000
v -0.670000000 -0.000000000 -0.310000000
v -0.669810886 -0.015917820 -0.310000000
v -0.669243672 -0.031826198 -0.310000000
v -0.727588190 -0.021985988 -0.310000000
v -0.735000000 0.012326730 -0.310000000
v -0.675887975 0.035839019 -0.310000000
v -0.669648377 0.021703725 -0.310000000
v -0.675503150 -0.035950441 -0.415000000
v -0.675503150 -0.035950441 -0.520000000
v -0.727588190 -0.021985988 -0.530000000
v -0.669998895 -0.001216808 -0.520000000
v 0.669972377 -0.006083960 -0.520000000
v 0.666127085 -0.071935430 -0.520000000
v 0.643515662 -0.186514324 -0.520000000
v 0.601351341 -0.295426074 -0.520000000
v 0.540915263 -0.395361452 -0.520000000
v 0.464043749 -0.483283973 -0.520000000
v 0.373072501 -0.556522155 -0.520000000
v 0.270765633 -0.612850693 -0.520000000
v 0.160231689 -0.650558073 -0.520000000
v 0.044829185 -0.668498575 -0.520000000
v -0.071935430 -0.666127085 -0.520000000
v -0.186514324 -0.643515662 -0.520000000
v -0.295426074 -0.601351341 -0.520000000
v -0.395361452 -0.540915263 -0.520000000
v -0.483283973 -0.464043749 -0.520000000
v -0.556522155 -0.373072501 -0.520000000
v -0.612850693 -0.270765633 -0.520000000
v -0.650558073 -0.160231689 -0.520000000
v 0.669642030 -0.021898655 -0.520000000
v 0.668498575 -0.044829185 -0.520000000
v -0.669783443 -0.017033486 -0.520000000
v 0.659158793 -0.152684882 -0.513388599
v 0.622869276 -0.264844964 -0.513162509
v 0.567416647 -0.368981489 -0.513162509
v 0.494723350 -0.461906697 -0.513162509
v 0.406998134 -0.540797105 -0.513162509
v 0.306906486 -0.603255666 -0.513162509
v 0.197489640 -0.647384609 -0.513162509
v 0.082072171 -0.671843098 -0.513162509
v -0.035839019 -0.675887975 -0.513162509
v -0.152661259 -0.659396337 -0.513162509
v -0.264844964 -0.622869276 -0.513162509
v -0.368981489 -0.567416647 -0.513162509
v -0.461906697 -0.494723350 -0.513162509
v -0.540662503 -0.406800970 -0.513388611
v -0.603255666 -0.306906486 -0.513162509
v -0.647190691 -0.197350403 -0.513388611
v -0.671627948 -0.081968723 -0.513388611
v 0.664104052 -0.088689388 -0.520000000
v 0.661634641 -0.105544315 -0.520000000
v 0.658737522 -0.122331013 -0.520000000
v 0.655414570 -0.139038632 -0.520000000
v 0.649709438 -0.163638767 -0.520000000
v 0.638614069 -0.202662456 -0.520000000
v 0.633255346 -0.218832509 -0.520000000
v 0.627487262 -0.234861100 -0.520000000
v 0.621313545 -0.250737868 -0.520000000
v 0.611781738 -0.273172300 -0.520000000
v 0.593720120 -0.310477727 -0.520000000
v 0.585634908 -0.325471588 -0.520000000
v 0.577171118 -0.340255052 -0.520000000
v 0.568334222 -0.354818562 -0.520000000
v 0.555051526 -0.375256983 -0.520000000
v 0.530786286 -0.408859289 -0.520000000
v 0.520220249 -0.422221378 -0.520000000
v 0.509317922 -0.435310526 -0.520000000
v 0.498086352 -0.448118272 -0.520000000
v 0.481456355 -0.465939672 -0.520000000
v 0.451724779 -0.494817869 -0.520000000
v 0.438998962 -0.506142185 -0.520000000
v 0.425989359 -0.517139310 -0.520000000
v 0.412704380 -0.527802136 -0.520000000
v 0.393232376 -0.542465020 -0.520000000
v 0.358937843 -0.565741659 -0.520000000
v 0.344438913 -0.574684118 -0.520000000
v 0.329717325 -0.583255078 -0.520000000
v 0.314782594 -0.591448999 -0.520000000
v 0.293060231 -0.602507843 -0.520000000
v 0.255244763 -0.619475674 -0.520000000
v 0.239413263 -0.625764564 -0.520000000
v 0.223426996 -0.631648935 -0.520000000
v 0.207296298 -0.637124984 -0.520000000
v 0.183983598 -0.644243770 -0.520000000
v 0.143796199 -0.654387235 -0.520000000
v 0.127113161 -0.657831471 -0.520000000
v 0.110347952 -0.660850459 -0.520000000
v 0.093511409 -0.663442248 -0.520000000
v 0.069316717 -0.666404676 -0.520000000
v 0.027978461 -0.669415570 -0.520000000
v 0.010950790 -0.669910502 -0.520000000
v -0.006083960 -0.669972377 -0.520000000
v -0.023114777 -0.669601155 -0.520000000
v -0.047456317 -0.668317214 -0.520000000
v -0.088689388 -0.664104052 -0.520000000
v -0.105544315 -0.661634641 -0.520000000
v -0.122331013 -0.658737522 -0.520000000
v -0.139038632 -0.655414570 -0.520000000
v -0.162787415 -0.649923270 -0.520000000
v -0.202662456 -0.638614069 -0.520000000
v -0.218832509 -0.633255346 -0.520000000
v -0.234861100 -0.627487262 -0.520000000
v -0.250737868 -0.621313545 -0.520000000
v -0.273172300 -0.611781738 -0.520000000
v -0.310477727 -0.593720120 -0.520000000
v -0.325471588 -0.585634908 -0.520000000
v -0.340255052 -0.577171118 -0.520000000
v -0.354818562 -0.568334222 -0.520000000
v -0.375256983 -0.555051526 -0.520000000
v -0.408859289 -0.530786286 -0.520000000
v -0.422221378 -0.520220249 -0.520000000
v -0.435310526 -0.509317922 -0.520000000
v -0.448118272 -0.498086352 -0.520000000
v -0.465939672 -0.481456355 -0.520000000
v -0.494817869 -0.451724779 -0.520000000
v -0.506142185 -0.438998962 -0.520000000
v -0.517139310 -0.425989359 -0.520000000
v -0.527802136 -0.412704380 -0.520000000
v -0.542979745 -0.392521332 -0.520000000
v -0.565741659 -0.358937843 -0.520000000
v -0.574684118 -0.344438913 -0.520000000
v -0.583255078 -0.329717325 -0.520000000
v -0.591448999 -0.314782594 -0.520000000
v -0.602507843 -0.293060231 -0.520000000
v -0.619475674 -0.255244763 -0.520000000
v -0.625764564 -0.239413263 -0.520000000
v -0.631648935 -0.223426996 -0.520000000
v -0.637124984 -0.207296298 -0.520000000
v -0.644484262 -0.183139389 -0.520000000
v -0.654387235 -0.143796199 -0.520000000
v -0.657831471 -0.127113161 -0.520000000
v -0.660850459 -0.110347952 -0.520000000
v -0.663442248 -0.093511409 -0.520000000
v -0.666494919 -0.068443573 -0.520000000
v -0.667923522 -0.052708341 -0.520000000
v -0.669840895 0.014600548 -0.520000000
v -0.669309529 0.030409766 -0.520000000
v 0.071935430 0.666127085 -0.520000000
v 0.186514324 0.643515662 -0.520000000
v 0.295426074 0.601351341 -0.520000000
v 0.395361452 0.540915263 -0.520000000
v 0.483283973 0.464043749 -0.520000000
v 0.556522155 0.373072501 -0.520000000
v 0.612850693 0.270765633 -0.520000000
v 0.650558073 0.160231689 -0.520000000
v 0.668498575 0.044829185 -0.520000000
v -0.666127085 0.071935430 -0.520000000
v -0.643515662 0.186514324 -0.520000000
v -0.601351341 0.295426074 -0.520000000
v -0.540915263 0.395361452 -0.520000000
v -0.464043749 0.483283973 -0.520000000
v -0.373072501 0.556522155 -0.520000000
v -0.270765633 0.612850693 -0.520000000
v -0.160231689 0.650558073 -0.520000000
v -0.044829185 0.668498575 -0.520000000
v 0.669929285 0.009734127 -0.520000000
v 0.669512779 0.025546788 -0.520000000
v -0.659396337 0.152661259 -0.513162509
v -0.622869276 0.264844964 -0.513162509
v -0.567416647 0.368981489 -0.513162509
v -0.494723350 0.461906697 -0.513162509
v -0.406998134 0.540797105 -0.513162509
v -0.306906486 0.603255666 -0.513162509
v -0.197489640 0.647384609 -0.513162509
v -0.082072171 0.671843098 -0.513162509
v 0.035839019 0.675887975 -0.513162509
v 0.152661259 0.659396337 -0.513162509
v 0.264844964 0.622869276 -0.513162509
v 0.368981489 0.567416647 -0.513162509
v 0.461906697 0.494723350 -0.513162509
v 0.540662517 0.406800991 -0.513388588
v 0.603088889 0.306735709 -0.513388588
v 0.647190711 0.197350418 -0.513388588
v 0.671843098 0.082072171 -0.513162509
v 0.047456317 0.668317214 -0.520000000
v 0.088689388 0.664104052 -0.520000000
v 0.105544315 0.661634641 -0.520000000
v 0.122331013 0.658737522 -0.520000000
v 0.139038632 0.655414570 -0.520000000
v 0.162787415 0.649923270 -0.520000000
v 0.202662456 0.638614069 -0.520000000
v 0.218832509 0.633255346 -0.520000000
v 0.234861100 0.627487262 -0.520000000
v 0.250737868 0.621313545 -0.520000000
v 0.273172300 0.611781738 -0.520000000
v 0.310477727 0.593720120 -0.520000000
v 0.325471588 0.585634908 -0.520000000
v 0.340255052 0.577171118 -0.520000000
v 0.354818562 0.568334222 -0.520000000
v 0.375256983 0.555051526 -0.520000000
v 0.408859289 0.530786286 -0.520000000
v 0.422221378 0.520220249 -0.520000000
v 0.435310526 0.509317922 -0.520000000
v 0.448118272 0.498086352 -0.520000000
v 0.465939672 0.481456355 -0.520000000
v 0.494817869 0.451724779 -0.520000000
v 0.506142185 0.438998962 -0.520000000
v 0.517139310 0.425989359 -0.520000000
v 0.527802136 0.412704380 -0.520000000
v 0.542979745 0.392521332 -0.520000000
v 0.565741659 0.358937843 -0.520000000
v 0.574684118 0.344438913 -0.520000000
v 0.583255078 0.329717325 -0.520000000
v 0.591448999 0.314782594 -0.520000000
v 0.602891277 0.292270608 -0.520000000
v 0.619475674 0.255244763 -0.520000000
v 0.625764564 0.239413263 -0.520000000
v 0.631648935 0.223426996 -0.520000000
v 0.637124984 0.207296298 -0.520000000
v 0.644484262 0.183139389 -0.520000000
v 0.654387235 0.143796199 -0.520000000
v 0.657831471 0.127113161 -0.520000000
v 0.660850459 0.110347952 -0.520000000
v 0.663442248 0.093511409 -0.520000000
v 0.666404676 0.069316717 -0.520000000
v -0.668378815 0.046580686 -0.520000000
v -0.664104052 0.088689388 -0.520000000
v -0.661634641 0.105544315 -0.520000000
v -0.658737522 0.122331013 -0.520000000
v -0.655414570 0.139038632 -0.520000000
v -0.649923270 0.162787415 -0.520000000
v -0.638614069 0.202662456 -0.520000000
v -0.633255346 0.218832509 -0.520000000
v -0.627487262 0.234861100 -0.520000000
v -0.621313545 0.250737868 -0.520000000
v -0.611781738 0.273172300 -0.520000000
v -0.593720120 0.310477727 -0.520000000
v -0.585634908 0.325471588 -0.520000000
v -0.577171118 0.340255052 -0.520000000
v -0.568334222 0.354818562 -0.520000000
v -0.555051526 0.375256983 -0.520000000
v -0.530786286 0.408859289 -0.520000000
v -0.520220249 0.422221378 -0.520000000
v -0.509317922 0.435310526 -0.520000000
v -0.498086352 0.448118272 -0.520000000
v -0.481456355 0.465939672 -0.520000000
v -0.451724779 0.494817869 -0.520000000
v -0.438998962 0.506142185 -0.520000000
v -0.425989359 0.517139310 -0.520000000
v -0.412704380 0.527802136 -0.520000000
v -0.393232376 0.542465020 -0.520000000
v -0.358937843 0.565741659 -0.520000000
v -0.344438913 0.574684118 -0.520000000
v -0.329717325 0.583255078 -0.520000000
v -0.314782594 0.591448999 -0.520000000
v -0.293060231 0.602507843 -0.520000000
v -0.255244763 0.619475674 -0.520000000
v -0.239413263 0.625764564 -0.520000000
v -0.223426996 0.631648935 -0.520000000
v -0.207296298 0.637124984 -0.520000000
v -0.183983598 0.644243770 -0.520000000
v -0.143796199 0.654387235 -0.520000000
v -0.127113161 0.657831471 -0.520000000
v -0.110347952 0.660850459 -0.520000000
v -0.093511409 0.663442248 -0.520000000
v -0.069316717 0.666404676 -0.520000000
v -0.027978461 0.669415570 -0.520000000
v -0.010950790 0.669910502 -0.520000000
v 0.006083960 0.669972377 -0.520000000
v 0.023114777 0.669601155 -0.520000000
v 0.035839019 0.675887975 -0.310000000
v 0.021985988 0.727588190 -0.310000000
v 0.021985988 0.727588190 -0.530000000
v 0.035903558 0.675658124 -0.415000000
v 0.186514323 0.643515662 -0.310000000
v 0.171288120 0.647734807 -0.310000000
v 0.295426073 0.601351341 -0.310000000
v 0.281163837 0.608150390 -0.310000000
v 0.395361452 0.540915264 -0.310000000
v 0.382496534 0.550087631 -0.310000000
v 0.483283973 0.464043749 -0.310000000
v 0.472207267 0.475310737 -0.310000000
v 0.556522155 0.373072502 -0.310000000
v 0.547570221 0.386091768 -0.310000000
v 0.612850693 0.270765634 -0.310000000
v 0.606295531 0.285141596 -0.310000000
v 0.650558073 0.160231689 -0.310000000
v 0.646598858 0.175527540 -0.310000000
v 0.668498574 0.044829186 -0.310000000
v 0.667255606 0.060580169 -0.310000000
v 0.668059339 -0.050958011 -0.310000000
v 0.643515662 -0.186514323 -0.310000000
v 0.647734807 -0.171288120 -0.310000000
v 0.601351341 -0.295426073 -0.310000000
v 0.608150390 -0.281163837 -0.310000000
v 0.540915264 -0.395361452 -0.310000000
v 0.473451095 -0.474071789 -0.310000000
v 0.373072501 -0.556522155 -0.310000000
v 0.386091768 -0.547570221 -0.310000000
v 0.270765634 -0.612850693 -0.310000000
v 0.183139390 -0.644484262 -0.310000000
v 0.050082716 -0.668125528 -0.310000000
v 0.065823442 -0.666758783 -0.310000000
v -0.071935429 -0.666127086 -0.310000000
v -0.056207900 -0.667638130 -0.310000000
v -0.186514323 -0.643515662 -0.310000000
v -0.281163837 -0.608150390 -0.310000000
v -0.395361452 -0.540915264 -0.310000000
v -0.382496534 -0.550087631 -0.310000000
v -0.483283973 -0.464043750 -0.310000000
v -0.608518232 -0.280366834 -0.310000000
v -0.601737874 -0.294637965 -0.310000000
v -0.650558073 -0.160231689 -0.310000000
v -0.646598858 -0.175527540 -0.310000000
v -0.668317214 -0.047456318 -0.310000000
v -0.666127086 0.071935429 -0.310000000
v -0.667638130 0.056207900 -0.310000000
v -0.643515662 0.186514323 -0.310000000
v -0.647734807 0.171288120 -0.310000000
v -0.601351341 0.295426073 -0.310000000
v -0.608150390 0.281163837 -0.310000000
v -0.540915264 0.395361452 -0.310000000
v -0.550087631 0.382496534 -0.310000000
v -0.464043750 0.483283973 -0.310000000
v -0.475310738 0.472207267 -0.310000000
v -0.373072502 0.556522155 -0.310000000
v -0.386091768 0.547570221 -0.310000000
v -0.270765633 0.612850693 -0.310000000
v -0.285141596 0.606295531 -0.310000000
v -0.160231689 0.650558073 -0.310000000
v -0.175527540 0.646598858 -0.310000000
v 0.071935429 0.666127085 -0.310000000
v 0.056207900 0.667638130 -0.310000000
v -0.044829185 0.668498575 -0.310000000
v -0.060580169 0.667255606 -0.310000000
v 0.228189746 0.691228904 -0.310000000
v 0.228189746 0.691228904 -0.530000000
v 0.265460621 0.615167179 -0.310000000
v 0.249428283 0.621840439 -0.310000000
v 0.233228380 0.628095950 -0.310000000
v 0.216871796 0.633929510 -0.310000000
v 0.262968143 0.686458086 -0.310000000
v -0.656285061 0.134870008 -0.310000000
v -0.615701734 0.264218423 -0.310000000
v -0.585812233 0.325152315 -0.310000000
v -0.508367942 0.436419563 -0.310000000
v -0.410111008 0.529819744 -0.310000000
v -0.354405887 0.568591653 -0.310000000
v -0.232694519 0.628293929 -0.310000000
v -0.101456611 0.662273777 -0.310000000
v 0.101456611 0.662273777 -0.310000000
v 0.354405887 0.568591653 -0.310000000
v 0.410111008 0.529819744 -0.310000000
v 0.508367942 0.436419563 -0.310000000
v 0.585812233 0.325152315 -0.310000000
v 0.639273302 0.200573292 -0.310000000
v 0.656285061 0.134870008 -0.310000000
v 0.021703961 0.669648369 -0.310000000
v 0.004341521 0.669985934 -0.310000000
v -0.013023835 0.669873406 -0.310000000
v -0.021985988 0.727588190 -0.310000000
v -0.021985988 0.727588190 -0.530000000
v 0.147996335 0.712716664 -0.310000000
v 0.152661259 0.659396337 -0.310000000
v 0.137657448 0.655706052 -0.310000000
v 0.120617400 0.659053445 -0.310000000
v 0.104692392 0.720352318 -0.310000000
v 0.147996335 0.712716664 -0.530000000
v 0.115491951 0.725974213 -0.530000000
v 0.150918244 0.652781498 -0.530000000
v 0.152661259 0.659396337 -0.415000000
v 0.368250337 0.559724655 -0.310000000
v 0.341246831 0.576585293 -0.310000000
v 0.326188956 0.585235649 -0.310000000
v 0.310911949 0.593492848 -0.310000000
v 0.344753671 0.641102851 -0.310000000
v 0.378175261 0.630365307 -0.310000000
v 0.344753671 0.641102851 -0.530000000
v 0.365081182 0.561796877 -0.530000000
v 0.382834520 0.619116862 -0.530000000
v 0.368922464 0.567185356 -0.415000000
v 0.459850954 0.487275179 -0.310000000
v 0.447067873 0.499029375 -0.310000000
v 0.433984455 0.510448326 -0.310000000
v 0.450842430 0.571497211 -0.310000000
v 0.481891716 0.555119196 -0.310000000
v 0.450842430 0.571497211 -0.530000000
v 0.457089782 0.489866238 -0.530000000
v 0.484526918 0.543232569 -0.530000000
v 0.461808406 0.494505822 -0.415000000
v 0.537479231 0.400020094 -0.310000000
v 0.526931449 0.413815476 -0.310000000
v 0.497093412 0.449219478 -0.310000000
v 0.543232569 0.484526918 -0.310000000
v 0.570966135 0.463006070 -0.310000000
v 0.543232569 0.484526918 -0.530000000
v 0.535209941 0.403051261 -0.530000000
v 0.571497211 0.450842430 -0.530000000
v 0.540797105 0.406998134 -0.415000000
v 0.598776474 0.300610601 -0.310000000
v 0.578054077 0.338752835 -0.310000000
v 0.569080518 0.353620367 -0.310000000
v 0.619116862 0.382834520 -0.310000000
v 0.642692037 0.356824739 -0.310000000
v 0.619116862 0.382834520 -0.530000000
v 0.597068016 0.303989776 -0.530000000
v 0.641102851 0.344753671 -0.530000000
v 0.603255666 0.306906486 -0.415000000
v 0.633929510 0.216871797 -0.310000000
v 0.628095950 0.233228381 -0.310000000
v 0.621840439 0.249428284 -0.310000000
v 0.676189603 0.269509888 -0.310000000
v 0.694890066 0.239801468 -0.310000000
v 0.676189603 0.269509888 -0.530000000
v 0.691228904 0.228189746 -0.530000000
v 0.647190723 0.197350401 -0.415000000
v 0.665480715 0.077687948 -0.310000000
v 0.663243759 0.094908990 -0.310000000
v 0.660561239 0.112066273 -0.310000000
v 0.712716664 0.147996335 -0.310000000
v 0.725974213 0.115491951 -0.310000000
v 0.712716664 0.147996335 -0.530000000
v 0.665031036 0.081447661 -0.530000000
v 0.720352318 0.104692392 -0.530000000
v 0.671627979 0.081968716 -0.415000000
v 0.669810887 0.015917791 -0.310000000
v 0.727588190 0.021985988 -0.310000000
v 0.735000000 -0.012326730 -0.310000000
v 0.675887975 -0.035839019 -0.310000000
v 0.669648376 -0.021703749 -0.310000000
v 0.727588190 0.021985988 -0.530000000
v 0.727588190 -0.021985988 -0.530000000
v 0.675658159 -0.035903548 -0.415000000
v -0.655857864 0.205276430 -0.300000000
v -0.602705708 0.205276430 -0.300000000
v -0.573447104 0.205276430 -0.300000000
v -0.538304158 0.205276430 -0.300000000
v -0.497637482 0.205276430 -0.300000000
v -0.451864372 0.205276430 -0.300000000
v -0.401454522 0.205276430 -0.300000000
v -0.346925206 0.205276430 -0.300000000
v -0.288835968 0.205276430 -0.300000000
v -0.227782881 0.205276430 -0.300000000
v -0.164392435 0.205276430 -0.300000000
v -0.099315099 0.205276430 -0.300000000
v -0.033218656 0.205276430 -0.300000000
v 0.033218656 0.205276430 -0.300000000
v 0.099315099 0.205276430 -0.300000000
v 0.164392435 0.205276430 -0.300000000
v 0.227782881 0.205276430 -0.300000000
v 0.288835968 0.205276430 -0.300000000
v 0.346925206 0.205276430 -0.300000000
v 0.401454522 0.205276430 -0.300000000
v 0.451864372 0.205276430 -0.300000000
v 0.497637482 0.205276430 -0.300000000
v 0.538304158 0.205276430 -0.300000000
v 0.573447104 0.205276430 -0.300000000
v 0.602705708 0.205276430 -0.300000000
v 0.652492870 0.205276430 -0.300000000
v -0.712716664 0.147996335 -0.310000000
v -0.659396337 0.152661259 -0.310000000
v -0.659568355 0.117769204 -0.310000000
v -0.662399010 0.100635738 -0.310000000
v -0.720352318 0.104692392 -0.310000000
v -0.712716664 0.147996335 -0.530000000
v -0.659396337 0.152661259 -0.415000000
v -0.725974213 0.115491951 -0.530000000
v -0.652781498 0.150918244 -0.530000000
v -0.676189603 0.269509888 -0.310000000
v -0.621840439 0.249428283 -0.310000000
v -0.628095950 0.233228380 -0.310000000
v -0.633929510 0.216871796 -0.310000000
v -0.691228904 0.228189746 -0.310000000
v -0.676189603 0.269509888 -0.530000000
v -0.622631213 0.264826997 -0.415000000
v -0.694890066 0.239801468 -0.530000000
v -0.619116862 0.382834520 -0.310000000
v -0.567416647 0.368981489 -0.310000000
v -0.569080519 0.353620366 -0.310000000
v -0.578054078 0.338752834 -0.310000000
v -0.593492848 0.310911949 -0.310000000
v -0.641102851 0.344753671 -0.310000000
v -0.619116862 0.382834520 -0.530000000
v -0.567185320 0.368922455 -0.415000000
v -0.642692037 0.356824739 -0.530000000
v -0.561796877 0.365081182 -0.530000000
v -0.543232569 0.484526918 -0.310000000
v -0.494723350 0.461906697 -0.310000000
v -0.519702487 0.422858517 -0.310000000
v -0.530487064 0.409247449 -0.310000000
v -0.571497211 0.450842430 -0.310000000
v -0.543232569 0.484526918 -0.530000000
v -0.494505789 0.461808391 -0.415000000
v -0.570966135 0.463006070 -0.530000000
v -0.489866238 0.457089782 -0.530000000
v -0.450842430 0.571497211 -0.310000000
v -0.422858518 0.519702486 -0.310000000
v -0.436185512 0.508568775 -0.310000000
v -0.449219479 0.497093412 -0.310000000
v -0.484526918 0.543232569 -0.310000000
v -0.450842430 0.571497211 -0.530000000
v -0.406998134 0.540797105 -0.415000000
v -0.481891716 0.555119196 -0.530000000
v -0.403051261 0.535209941 -0.530000000
v -0.344753671 0.641102851 -0.310000000
v -0.306906486 0.603255666 -0.310000000
v -0.316028004 0.590784479 -0.310000000
v -0.331233100 0.582395599 -0.310000000
v -0.382834520 0.619116862 -0.310000000
v -0.344753671 0.641102851 -0.530000000
v -0.306906486 0.603255666 -0.415000000
v -0.378175261 0.630365307 -0.530000000
v -0.303989776 0.597068016 -0.530000000
v -0.228189746 0.691228904 -0.310000000
v -0.197489640 0.647384609 -0.310000000
v -0.208638179 0.636686823 -0.310000000
v -0.249428284 0.621840439 -0.310000000
v -0.269509888 0.676189603 -0.310000000
v -0.228189746 0.691228904 -0.530000000
v -0.197350380 0.647190693 -0.415000000
v -0.262968143 0.686458086 -0.530000000
v -0.195691715 0.640784482 -0.530000000
v -0.104692392 0.720352318 -0.310000000
v -0.082072171 0.671843098 -0.310000000
v -0.117769205 0.659568355 -0.310000000
v -0.134823555 0.656294605 -0.310000000
v -0.147996335 0.712716664 -0.310000000
v -0.104692392 0.720352318 -0.530000000
v -0.081968699 0.671627946 -0.415000000
v -0.139770870 0.721693184 -0.530000000
v -0.081447661 0.665031036 -0.530000000
v 0.262968143 0.686458086 -0.530000000
v 0.261979774 0.616657602 -0.530000000
v 0.264826999 0.622631250 -0.415000000
v 0.720352318 -0.104692392 -0.310000000
v 0.720352318 -0.104692392 -0.530000000
v 0.712716664 -0.147996335 -0.310000000
v 0.659396337 -0.152661259 -0.310000000
v 0.659568355 -0.117769204 -0.310000000
v 0.662399010 -0.100635738 -0.310000000
v 0.664784669 -0.083434665 -0.310000000
v 0.712716664 -0.147996335 -0.530000000
v 0.659396337 -0.152661259 -0.415000000
v 0.652781498 -0.150918244 -0.530000000
v 0.691228904 -0.228189746 -0.310000000
v 0.691228904 -0.228189746 -0.530000000
v 0.676189603 -0.269509888 -0.310000000
v 0.621840439 -0.249428283 -0.310000000
v 0.628095950 -0.233228380 -0.310000000
v 0.633929510 -0.216871796 -0.310000000
v 0.676189603 -0.269509888 -0.530000000
v 0.622631237 -0.264826999 -0.415000000
v 0.641102851 -0.344753671 -0.310000000
v 0.641102851 -0.344753671 -0.530000000
v 0.619116862 -0.382834520 -0.310000000
v 0.567416647 -0.368981489 -0.310000000
v 0.569080519 -0.353620366 -0.310000000
v 0.578054078 -0.338752834 -0.310000000
v 0.593492848 -0.310911949 -0.310000000
v 0.619116862 -0.382834520 -0.530000000
v 0.567185344 -0.368922461 -0.415000000
v 0.561796877 -0.365081182 -0.530000000
v 0.571497211 -0.450842430 -0.310000000
v 0.571497211 -0.450842430 -0.530000000
v 0.543232569 -0.484526918 -0.310000000
v 0.494723350 -0.461906697 -0.310000000
v 0.519702487 -0.422858517 -0.310000000
v 0.530487064 -0.409247449 -0.310000000
v 0.543232569 -0.484526918 -0.530000000
v 0.494505811 -0.461808401 -0.415000000
v 0.489866238 -0.457089782 -0.530000000
v 0.484526918 -0.543232569 -0.310000000
v 0.484526918 -0.543232569 -0.530000000
v 0.450842430 -0.571497211 -0.310000000
v 0.422858518 -0.519702486 -0.310000000
v 0.436185512 -0.508568775 -0.310000000
v 0.449219479 -0.497093412 -0.310000000
v 0.450842430 -0.571497211 -0.530000000
v 0.406998134 -0.540797105 -0.415000000
v 0.403051261 -0.535209941 -0.530000000
v 0.382834520 -0.619116862 -0.310000000
v 0.382834520 -0.619116862 -0.530000000
v 0.344753671 -0.641102851 -0.310000000
v 0.310911950 -0.593492847 -0.310000000
v 0.326188957 -0.585235649 -0.310000000
v 0.341246832 -0.576585292 -0.310000000
v 0.344753671 -0.641102851 -0.530000000
v 0.306906486 -0.603255666 -0.415000000
v 0.303989776 -0.597068016 -0.530000000
v 0.269509888 -0.676189603 -0.310000000
v 0.269509888 -0.676189603 -0.530000000
v 0.228189746 -0.691228904 -0.310000000
v 0.200369520 -0.639337200 -0.310000000
v 0.216871797 -0.633929510 -0.310000000
v 0.249428284 -0.621840439 -0.310000000
v 0.228189746 -0.691228904 -0.530000000
v 0.197350394 -0.647190713 -0.415000000
v 0.195691715 -0.640784482 -0.530000000
v 0.152661259 -0.659396337 -0.310000000
v 0.147996335 -0.712716664 -0.310000000
v 0.147996335 -0.712716664 -0.530000000
v 0.104692392 -0.720352318 -0.310000000
v 0.082072171 -0.671843098 -0.310000000
v 0.117769205 -0.659568355 -0.310000000
v 0.134823555 -0.656294605 -0.310000000
v 0.104692392 -0.720352318 -0.530000000
v 0.081968710 -0.671627968 -0.415000000
v 0.081447661 -0.665031036 -0.530000000
v 0.021985988 -0.727588190 -0.310000000
v 0.021985988 -0.727588190 -0.530000000
v -0.015917525 -0.669810893 -0.310000000
v 0.001447183 -0.669998437 -0.310000000
v -0.012326730 -0.735000000 -0.310000000
v -0.012326730 -0.735000000 -0.530000000
v -0.035903551 -0.675658147 -0.415000000
v -0.104692392 -0.720352318 -0.310000000
v -0.104692392 -0.720352318 -0.530000000
v -0.151787329 -0.652579962 -0.310000000
v -0.134823553 -0.656294606 -0.310000000
v -0.117769203 -0.659568355 -0.310000000
v -0.139770870 -0.721693184 -0.310000000
v -0.139770870 -0.721693184 -0.530000000
v -0.150918244 -0.652781498 -0.530000000
v -0.152661259 -0.659396337 -0.415000000
v -0.228189746 -0.691228904 -0.310000000
v -0.228189746 -0.691228904 -0.530000000
v -0.265460621 -0.615167180 -0.310000000
v -0.249428283 -0.621840439 -0.310000000
v -0.216871796 -0.633929510 -0.310000000
v -0.262968143 -0.686458086 -0.310000000
v -0.262968143 -0.686458086 -0.530000000
v -0.261979774 -0.616657602 -0.530000000
v -0.264826998 -0.622631225 -0.415000000
v -0.344753671 -0.641102851 -0.310000000
v -0.344753671 -0.641102851 -0.530000000
v -0.368250337 -0.559724655 -0.310000000
v -0.341246831 -0.576585293 -0.310000000
v -0.326188956 -0.585235649 -0.310000000
v -0.310911949 -0.593492848 -0.310000000
v -0.378175261 -0.630365307 -0.310000000
v -0.378175261 -0.630365307 -0.530000000
v -0.365081182 -0.561796877 -0.530000000
v -0.368922458 -0.567185332 -0.415000000
v -0.450842430 -0.571497211 -0.310000000
v -0.450842430 -0.571497211 -0.530000000
v -0.449219477 -0.497093413 -0.310000000
v -0.436185510 -0.508568777 -0.310000000
v -0.422858517 -0.519702487 -0.310000000
v -0.481891716 -0.555119196 -0.310000000
v -0.481891716 -0.555119196 -0.530000000
v -0.457089782 -0.489866238 -0.530000000
v -0.461808396 -0.494505800 -0.415000000
v -0.543232569 -0.484526918 -0.310000000
v -0.543232569 -0.484526918 -0.530000000
v -0.540915263 -0.395361453 -0.310000000
v -0.530487063 -0.409247450 -0.310000000
v -0.519702486 -0.422858518 -0.310000000
v -0.497093412 -0.449219479 -0.310000000
v -0.570966135 -0.463006070 -0.310000000
v -0.570966135 -0.463006070 -0.530000000
v -0.535209941 -0.403051261 -0.530000000
v -0.540797105 -0.406998134 -0.415000000
v -0.567027668 -0.368885570 -0.310000000
v -0.619116862 -0.382834520 -0.310000000
v -0.619116862 -0.382834520 -0.530000000
v -0.594830429 -0.308345196 -0.310000000
v -0.578054078 -0.338752835 -0.310000000
v -0.569080518 -0.353620367 -0.310000000
v -0.642692037 -0.356824739 -0.310000000
v -0.642692037 -0.356824739 -0.530000000
v -0.597068016 -0.303989776 -0.530000000
v -0.603255666 -0.306906486 -0.415000000
v -0.676189603 -0.269509888 -0.310000000
v -0.676189603 -0.269509888 -0.530000000
v -0.641880197 -0.192067207 -0.310000000
v -0.634860468 -0.214131237 -0.310000000
v -0.629097621 -0.230512869 -0.310000000
v -0.622912151 -0.246739644 -0.310000000
v -0.694890066 -0.239801468 -0.310000000
v -0.694890066 -0.239801468 -0.530000000
v -0.647190703 -0.197350387 -0.415000000
v -0.712716664 -0.147996335 -0.310000000
v -0.712716664 -0.147996335 -0.530000000
v -0.664784669 -0.083434666 -0.310000000
v -0.662399010 -0.100635739 -0.310000000
v -0.659568355 -0.117769205 -0.310000000
v -0.725974213 -0.115491951 -0.310000000
v -0.725974213 -0.115491951 -0.530000000
v -0.665031036 -0.081447661 -0.530000000
v -0.671627957 -0.081968705 -0.415000000
v -0.675658135 0.035903555 -0.415000000
v -0.727588190 0.021985988 -0.530000000
v 0.662928932 0.205276430 -0.527071068
v 0.602705708 0.205276430 -0.530000000
v 0.573447104 0.205276430 -0.530000000
v 0.538304158 0.205276430 -0.530000000
v 0.497637482 0.205276430 -0.530000000
v 0.451864372 0.205276430 -0.530000000
v 0.401454522 0.205276430 -0.530000000
v 0.346925206 0.205276430 -0.530000000
v 0.288835968 0.205276430 -0.530000000
v 0.227782881 0.205276430 -0.530000000
v 0.164392435 0.205276430 -0.530000000
v 0.099315099 0.205276430 -0.530000000
v 0.033218656 0.205276430 -0.530000000
v -0.033218656 0.205276430 -0.530000000
v -0.099315099 0.205276430 -0.530000000
v -0.164392435 0.205276430 -0.530000000
v -0.227782881 0.205276430 -0.530000000
v -0.288835968 0.205276430 -0.530000000
v -0.346925206 0.205276430 -0.530000000
v -0.401454522 0.205276430 -0.530000000
v -0.451864372 0.205276430 -0.530000000
v -0.497637482 0.205276430 -0.530000000
v -0.538304158 0.205276430 -0.530000000
v -0.573447104 0.205276430 -0.530000000
v -0.602705708 0.205276430 -0.530000000
v -0.652492870 0.205276430 -0.530000000
v -0.655857864 -0.205276430 -0.530000000
v -0.602705708 -0.205276430 -0.530000000
v -0.573447104 -0.205276430 -0.530000000
v -0.538304158 -0.205276430 -0.530000000
v -0.497637482 -0.205276430 -0.530000000
v -0.451864372 -0.205276430 -0.530000000
v -0.401454522 -0.205276430 -0.530000000
v -0.346925206 -0.205276430 -0.530000000
v -0.288835968 -0.205276430 -0.530000000
v -0.227782881 -0.205276430 -0.530000000
v -0.164392435 -0.205276430 -0.530000000
v -0.099315099 -0.205276430 -0.530000000
v -0.033218656 -0.205276430 -0.530000000
v 0.033218656 -0.205276430 -0.530000000
v 0.099315099 -0.205276430 -0.530000000
v 0.164392435 -0.205276430 -0.530000000
v 0.227782881 -0.205276430 -0.530000000
v 0.288835968 -0.205276430 -0.530000000
v 0.346925206 -0.205276430 -0.530000000
v 0.401454522 -0.205276430 -0.530000000
v 0.451864372 -0.205276430 -0.530000000
v 0.497637482 -0.205276430 -0.530000000
v 0.538304158 -0.205276430 -0.530000000
v 0.573447104 -0.205276430 -0.530000000
v 0.602705708 -0.205276430 -0.530000000
v 0.652492870 -0.205276430 -0.530000000
v 0.136773773 0.052157189 -0.300000000
v 0.114810919 0.052157189 -0.300000000
v 0.088147692 0.052157189 -0.300000000
v 0.057875689 0.052157189 -0.300000000
v 0.041769273 0.052157189 -0.300000000
v 0.025234248 0.052157189 -0.300000000
v 0.008440286 0.052157189 -0.300000000
v -0.008440286 0.052157189 -0.300000000
v -0.025234248 0.052157189 -0.300000000
v -0.041769273 0.052157189 -0.300000000
v -0.057875689 0.052157189 -0.300000000
v -0.073388222 0.052157189 -0.300000000
v -0.102002648 0.052157189 -0.300000000
v -0.126441074 0.052157189 -0.300000000
v -0.166642136 0.096644203 -0.300000000
v -0.114810919 0.096644203 -0.300000000
v -0.088147692 0.096644203 -0.300000000
v -0.057875689 0.096644203 -0.300000000
v -0.041769273 0.096644203 -0.300000000
v -0.025234248 0.096644203 -0.300000000
v -0.008440286 0.096644203 -0.300000000
v 0.008440286 0.096644203 -0.300000000
v 0.025234248 0.096644203 -0.300000000
v 0.041769273 0.096644203 -0.300000000
v 0.057875689 0.096644203 -0.300000000
v 0.073388222 0.096644203 -0.300000000
v 0.102002648 0.096644203 -0.300000000
v 0.153137092 0.096644203 -0.300000000
v -0.152500000 0.096644203 -0.310000000
v 0.159571068 -0.096644203 -0.302928932
v 0.114810919 -0.096644203 -0.300000000
v 0.088147692 -0.096644203 -0.300000000
v 0.057875689 -0.096644203 -0.300000000
v 0.041769273 -0.096644203 -0.300000000
v 0.025234248 -0.096644203 -0.300000000
v 0.008440286 -0.096644203 -0.300000000
v -0.008440286 -0.096644203 -0.300000000
v -0.025234248 -0.096644203 -0.300000000
v -0.041769273 -0.096644203 -0.300000000
v -0.057875689 -0.096644203 -0.300000000
v -0.073388222 -0.096644203 -0.300000000
v -0.102002648 -0.096644203 -0.300000000
v -0.153137092 -0.096644203 -0.300000000
v -0.136773773 -0.052157189 -0.300000000
v -0.114810919 -0.052157189 -0.300000000
v -0.088147692 -0.052157189 -0.300000000
v -0.057875689 -0.052157189 -0.300000000
v -0.041769273 -0.052157189 -0.300000000
v -0.025234248 -0.052157189 -0.300000000
v -0.008440286 -0.052157189 -0.300000000
v 0.008440286 -0.052157189 -0.300000000
v 0.025234248 -0.052157189 -0.300000000
v 0.041769273 -0.052157189 -0.300000000
v 0.057875689 -0.052157189 -0.300000000
v 0.073388222 -0.052157189 -0.300000000
v 0.102002648 -0.052157189 -0.300000000
v 0.126441074 -0.052157189 -0.300000000
v 0.152500000 0.000000000 -0.310000000
v -0.152500000 0.000000000 -0.310000000
v 0.152500000 0.000000000 -0.520000000
v -0.152500000 0.000000000 -0.520000000
v -0.159571068 -0.096644203 -0.527071068
v -0.114810919 -0.096644203 -0.530000000
v -0.088147692 -0.096644203 -0.530000000
v -0.057875689 -0.096644203 -0.530000000
v -0.041769273 -0.096644203 -0.530000000
v -0.025234248 -0.096644203 -0.530000000
v -0.008440286 -0.096644203 -0.530000000
v 0.008440286 -0.096644203 -0.530000000
v 0.025234248 -0.096644203 -0.530000000
v 0.041769273 -0.096644203 -0.530000000
v 0.057875689 -0.096644203 -0.530000000
v 0.073388222 -0.096644203 -0.530000000
v 0.102002648 -0.096644203 -0.530000000
v 0.153137092 -0.096644203 -0.530000000
v -0.159571068 0.096644203 -0.527071068
v -0.114810919 0.096644203 -0.530000000
v -0.088147692 0.096644203 -0.530000000
v -0.057875689 0.096644203 -0.530000000
v -0.041769273 0.096644203 -0.530000000
v -0.025234248 0.096644203 -0.530000000
v -0.008440286 0.096644203 -0.530000000
v 0.008440286 0.096644203 -0.530000000
v 0.025234248 0.096644203 -0.530000000
v 0.041769273 0.096644203 -0.530000000
v 0.057875689 0.096644203 -0.530000000
v 0.073388222 0.096644203 -0.530000000
v 0.102002648 0.096644203 -0.530000000
v 0.153137092 0.096644203 -0.530000000
v -0.362362681 0.027900526 -0.300000000
v -0.382847018 0.027900526 -0.300000000
v -0.399040468 0.027900526 -0.300000000
v -0.416501405 0.027900526 -0.300000000
v -0.434514975 0.027900526 -0.300000000
v -0.452343702 0.027900526 -0.300000000
v -0.469257675 0.027900526 -0.300000000
v -0.491415983 0.027900526 -0.300000000
v -0.360000000 0.000000000 -0.315000000
v -0.363210252 0.020955419 -0.315000000
v -0.372546559 0.039988775 -0.315000000
v -0.387152581 0.055354302 -0.315000000
v -0.405688632 0.065642649 -0.315000000
v -0.426454558 0.069910156 -0.315000000
v -0.447545677 0.067765398 -0.315000000
v -0.467027481 0.059405098 -0.315000000
v -0.483113069 0.045596074 -0.315000000
v -0.496789748 0.020955419 -0.315000000
v -0.500000000 0.000000000 -0.315000000
v -0.496789748 -0.020955419 -0.315000000
v -0.487453441 -0.039988775 -0.315000000
v -0.472847419 -0.055354302 -0.315000000
v -0.454311368 -0.065642649 -0.315000000
v -0.433545442 -0.069910156 -0.315000000
v -0.412454323 -0.067765398 -0.315000000
v -0.392972519 -0.059405098 -0.315000000
v -0.376886931 -0.045596074 -0.315000000
v -0.365672953 -0.027604910 -0.315000000
v -0.497637319 -0.027900526 -0.300000000
v -0.477152982 -0.027900526 -0.300000000
v -0.460959532 -0.027900526 -0.300000000
v -0.443498595 -0.027900526 -0.300000000
v -0.425485025 -0.027900526 -0.300000000
v -0.407656298 -0.027900526 -0.300000000
v -0.390742325 -0.027900526 -0.300000000
v -0.362362681 -0.027900526 -0.300000000
v -0.360000000 0.000000000 -0.515000000
v -0.363210252 -0.020955419 -0.515000000
v -0.372546559 -0.039988775 -0.515000000
v -0.387152581 -0.055354302 -0.515000000
v -0.405688632 -0.065642649 -0.515000000
v -0.426454558 -0.069910156 -0.515000000
v -0.447545677 -0.067765398 -0.515000000
v -0.467027481 -0.059405098 -0.515000000
v -0.483113069 -0.045596074 -0.515000000
v -0.494327047 -0.027604910 -0.515000000
v -0.499640853 -0.007081783 -0.515000000
v -0.362362681 -0.027900526 -0.530000000
v -0.382847018 -0.027900526 -0.530000000
v -0.399040468 -0.027900526 -0.530000000
v -0.416501405 -0.027900526 -0.530000000
v -0.434514975 -0.027900526 -0.530000000
v -0.452343702 -0.027900526 -0.530000000
v -0.469257675 -0.027900526 -0.530000000
v -0.497637319 -0.027900526 -0.530000000
v -0.497637319 0.027900526 -0.530000000
v -0.477152982 0.027900526 -0.530000000
v -0.460959532 0.027900526 -0.530000000
v -0.443498595 0.027900526 -0.530000000
v -0.425485025 0.027900526 -0.530000000
v -0.407656298 0.027900526 -0.530000000
v -0.390742325 0.027900526 -0.530000000
v -0.368584017 0.027900526 -0.530000000
v -0.498567096 0.014090896 -0.515000000
v -0.491204263 0.033971137 -0.515000000
v -0.478227684 0.050735495 -0.515000000
v -0.460827591 0.062846318 -0.515000000
v -0.440599944 0.069192783 -0.515000000
v -0.419400056 0.069192783 -0.515000000
v -0.399172409 0.062846318 -0.515000000
v -0.381772316 0.050735495 -0.515000000
v -0.368795737 0.033971137 -0.515000000
f 2 4 3
f 4 6 5
f 6 8 7
f 8 10 9
f 10 12 11
f 12 14 13
f 14 16 15
f 16 18 17
f 18 20 19
f 20 22 21
f 22 24 23
f 24 26 25
f 26 27 28
f 28 29 30
f 30 31 32
f 32 78 79
f 93 63 125
f 155 94 171
f 124 125 63
f 32 33 34
f 34 35 36
f 36 37 38
f 38 39 40
f 40 41 42
f 42 43 44
f 44 45 46
f 46 47 48
f 48 49 50
f 50 51 52
f 52 53 54
f 54 55 56
f 56 57 58
f 58 59 60
f 60 61 62
f 62 1 2
f 2 6 4
f 6 10 8
f 10 14 12
f 14 18 16
f 18 22 20
f 22 26 24
f 26 28 30
f 30 32 79
f 154 155 171
f 170 171 94
f 123 124 63
f 77 78 32
f 32 34 36
f 36 38 40
f 40 42 44
f 44 46 48
f 48 50 52
f 52 54 56
f 56 58 60
f 60 62 2
f 2 10 6
f 10 18 14
f 18 26 22
f 26 30 79
f 92 93 125
f 153 154 171
f 122 123 63
f 32 36 40
f 40 44 48
f 48 52 56
f 56 60 2
f 2 18 10
f 152 153 171
f 169 170 94
f 121 122 63
f 76 77 32
f 32 40 48
f 48 56 2
f 2 26 18
f 26 79 80
f 91 92 125
f 151 152 171
f 120 121 63
f 150 151 171
f 168 169 94
f 119 120 63
f 75 76 32
f 26 80 81
f 90 91 125
f 149 150 171
f 118 119 63
f 148 149 171
f 167 168 94
f 117 118 63
f 74 75 32
f 26 81 82
f 89 90 125
f 147 148 171
f 116 117 63
f 146 147 171
f 166 167 94
f 115 116 63
f 73 74 32
f 26 82 83
f 88 89 125
f 146 171 172
f 145 146 172
f 165 166 94
f 114 115 63
f 72 73 32
f 26 83 84
f 88 125 126
f 165 94 95
f 114 63 64
f 72 32 48
f 87 126 88
f 145 172 173
f 26 84 85
f 87 127 126
f 165 95 96
f 114 64 65
f 71 72 48
f 87 128 127
f 144 173 145
f 165 96 97
f 113 114 65
f 26 85 86
f 144 173 174
f 164 165 97
f 70 71 48
f 87 129 128
f 164 97 98
f 113 65 66
f 26 87 86
f 87 130 129
f 144 174 175
f 69 70 48
f 26 130 87
f 164 98 99
f 113 66 67
f 26 131 130
f 143 175 144
f 164 99 100
f 112 113 67
f 68 69 48
f 26 132 131
f 143 176 175
f 163 164 100
f 26 133 132
f 163 100 101
f 112 67 68
f 26 134 133
f 143 177 176
f 163 101 102
f 112 68 48
f 26 135 134
f 163 102 103
f 111 112 48
f 26 136 135
f 143 178 177
f 110 111 48
f 26 137 136
f 142 178 143
f 163 103 104
f 109 110 48
f 26 138 137
f 163 104 105
f 108 109 48
f 26 139 138
f 142 179 178
f 163 105 106
f 107 108 48
f 26 140 139
f 163 106 107
f 26 141 140
f 142 180 179
f 163 107 48
f 26 142 141
f 162 163 48
f 2 142 26
f 2 180 142
f 161 162 48
f 2 181 180
f 160 161 48
f 2 182 181
f 159 160 48
f 159 48 2
f 2 183 182
f 158 159 2
f 2 184 183
f 157 158 2
f 2 185 184
f 156 157 2
f 2 185 186
f 186 156 2
f 195 64 63
f 195 196 64
f 196 65 64
f 196 197 66
f 196 66 65
f 197 67 66
f 197 198 67
f 198 68 67
f 198 69 68
f 198 199 69
f 199 70 69
f 199 200 70
f 200 71 70
f 200 201 72
f 200 72 71
f 201 73 72
f 201 202 74
f 201 74 73
f 202 75 74
f 202 203 75
f 203 76 75
f 203 194 76
f 194 204 77
f 194 77 76
f 204 78 77
f 204 205 78
f 205 79 78
f 205 80 79
f 205 206 80
f 206 81 80
f 206 207 82
f 206 82 81
f 207 208 83
f 207 83 82
f 208 84 83
f 208 209 84
f 209 85 84
f 209 86 85
f 209 86 210
f 210 86 87
f 210 88 211
f 210 87 88
f 211 89 212
f 211 88 89
f 212 89 90
f 212 91 213
f 212 90 91
f 213 92 91
f 213 214 92
f 214 93 92
f 214 195 93
f 195 63 93
f 223 206 205
f 223 224 206
f 224 225 207
f 224 207 206
f 225 226 208
f 225 208 207
f 226 227 209
f 226 209 208
f 227 209 210
f 227 210 228
f 228 211 229
f 228 210 211
f 229 212 230
f 229 211 212
f 230 213 231
f 230 212 213
f 231 232 214
f 231 214 213
f 232 233 195
f 232 195 214
f 233 234 195
f 234 196 195
f 234 235 197
f 234 197 196
f 235 236 198
f 235 198 197
f 236 237 199
f 236 199 198
f 237 238 200
f 237 200 199
f 238 201 200
f 238 239 201
f 239 240 202
f 239 202 201
f 240 241 203
f 240 203 202
f 241 242 204
f 241 204 203
f 242 204 194
f 242 223 205
f 242 205 204
f 223 244 243
f 223 242 244
f 242 245 244
f 242 246 245
f 242 241 247
f 242 247 246
f 241 248 247
f 241 240 248
f 240 249 248
f 240 239 250
f 240 250 249
f 239 238 251
f 239 251 250
f 238 237 252
f 238 252 251
f 237 253 252
f 237 254 253
f 237 236 254
f 236 235 255
f 236 255 254
f 235 256 255
f 235 257 256
f 235 234 257
f 234 258 257
f 234 233 275
f 234 275 258
f 233 266 275
f 233 232 266
f 232 231 276
f 232 276 266
f 231 277 276
f 231 277 230
f 230 277 278
f 230 279 229
f 230 278 279
f 229 279 280
f 229 280 228
f 228 280 281
f 228 281 282
f 228 282 227
f 227 283 282
f 227 226 283
f 226 284 283
f 226 225 285
f 226 285 284
f 225 286 285
f 225 224 286
f 224 274 286
f 224 243 274
f 224 223 243
f 378 379 441
f 409 275 410
f 348 287 288
f 288 289 290
f 290 292 291
f 292 294 293
f 294 296 295
f 296 298 297
f 298 300 299
f 300 302 301
f 302 304 303
f 304 306 305
f 306 308 307
f 308 310 309
f 310 312 311
f 312 314 313
f 314 316 315
f 316 318 317
f 318 319 320
f 320 321 322
f 322 323 324
f 324 325 326
f 326 327 328
f 328 329 330
f 330 331 332
f 332 333 334
f 334 335 336
f 336 337 338
f 338 339 340
f 340 341 342
f 342 343 344
f 344 345 346
f 346 347 348
f 266 410 275
f 377 378 441
f 440 441 379
f 408 275 409
f 244 348 243
f 348 288 290
f 290 294 292
f 294 298 296
f 298 302 300
f 302 306 304
f 306 310 308
f 310 314 312
f 314 318 316
f 318 320 322
f 322 324 326
f 326 328 330
f 330 332 334
f 334 336 338
f 338 340 342
f 342 344 346
f 346 348 243
f 376 377 441
f 407 275 408
f 348 294 290
f 294 302 298
f 302 310 306
f 310 318 314
f 318 322 326
f 326 330 334
f 334 338 342
f 342 346 243
f 276 410 266
f 375 376 441
f 439 440 379
f 406 275 407
f 245 348 244
f 348 302 294
f 302 318 310
f 318 326 334
f 342 274 243
f 374 375 441
f 405 275 406
f 318 334 342
f 277 276 410
f 373 374 441
f 438 439 379
f 404 275 405
f 246 348 245
f 372 373 441
f 403 275 404
f 342 286 274
f 278 277 410
f 371 372 441
f 437 379 438
f 402 275 403
f 247 348 246
f 370 371 441
f 401 275 402
f 279 278 410
f 369 370 441
f 436 379 437
f 400 275 401
f 248 348 247
f 342 285 286
f 369 441 411
f 399 275 400
f 280 279 410
f 368 369 411
f 435 379 436
f 399 258 275
f 249 348 248
f 342 284 285
f 280 410 349
f 435 380 379
f 249 302 348
f 368 412 411
f 399 257 258
f 342 284 283
f 280 349 350
f 435 381 380
f 399 256 257
f 250 302 249
f 281 280 350
f 367 368 412
f 435 382 381
f 398 256 399
f 342 283 282
f 281 350 351
f 367 413 412
f 434 382 435
f 251 302 250
f 281 351 352
f 434 383 382
f 342 282 281
f 367 414 413
f 398 255 256
f 252 302 251
f 342 281 352
f 434 384 383
f 398 254 255
f 342 352 353
f 366 367 414
f 434 385 384
f 397 254 398
f 253 302 252
f 342 353 354
f 366 415 414
f 433 385 434
f 342 354 355
f 433 386 385
f 397 253 254
f 342 355 356
f 366 415 416
f 433 387 386
f 397 302 253
f 342 356 357
f 433 388 387
f 396 302 397
f 342 357 358
f 366 416 417
f 395 302 396
f 342 358 359
f 365 366 417
f 433 389 388
f 394 302 395
f 342 359 360
f 433 390 389
f 393 302 394
f 342 360 361
f 365 417 418
f 433 391 390
f 392 302 393
f 342 361 362
f 433 392 391
f 342 362 363
f 365 418 419
f 433 302 392
f 342 363 364
f 432 302 433
f 342 364 365
f 318 342 365
f 431 302 432
f 318 365 419
f 430 302 431
f 318 419 420
f 429 302 430
f 318 420 421
f 429 318 302
f 318 421 422
f 428 318 429
f 318 422 423
f 427 318 428
f 318 424 423
f 426 318 427
f 318 425 424
f 425 318 426
f 346 345 443
f 345 344 443
f 348 347 471
f 348 471 470
f 347 346 472
f 347 472 471
f 346 443 472
f 443 344 473
f 344 343 474
f 344 474 473
f 343 342 475
f 343 475 474
f 342 341 476
f 342 476 475
f 341 340 477
f 341 477 476
f 340 339 478
f 340 478 477
f 339 338 479
f 339 479 478
f 338 337 480
f 338 480 479
f 337 336 481
f 337 481 480
f 336 335 482
f 336 482 481
f 335 334 483
f 335 483 482
f 334 333 484
f 334 484 483
f 333 332 485
f 333 485 484
f 332 331 486
f 332 486 485
f 331 330 487
f 331 487 486
f 330 329 488
f 330 488 487
f 329 328 489
f 329 489 488
f 328 327 490
f 328 490 489
f 327 326 491
f 327 491 490
f 326 325 492
f 326 492 491
f 325 324 493
f 325 493 492
f 324 323 494
f 324 494 493
f 323 322 495
f 323 495 494
f 322 321 496
f 322 496 495
f 321 320 468
f 321 468 496
f 320 319 497
f 320 497 468
f 319 318 498
f 319 498 497
f 318 317 499
f 318 499 498
f 499 501 500
f 499 501 502
f 499 502 503
f 499 503 504
f 504 505 499
f 508 502 501
f 501 507 508
f 1 3 2
f 1 4 3
f 1 5 4
f 32 528 510
f 1 6 5
f 1 7 6
f 1 8 7
f 1 9 8
f 1 10 9
f 1 11 10
f 1 12 11
f 12 529 13
f 32 529 528
f 529 14 13
f 530 1 509
f 14 529 15
f 529 16 15
f 32 31 529
f 31 30 529
f 30 29 529
f 29 28 529
f 28 27 529
f 27 26 529
f 26 25 529
f 25 24 529
f 24 23 529
f 507 1 530
f 23 22 529
f 22 21 529
f 21 20 529
f 20 19 529
f 19 18 529
f 18 17 529
f 17 16 529
f 12 1 529
f 1 511 529
f 1 548 511
f 1 549 548
f 1 550 549
f 1 551 550
f 1 531 551
f 1 552 531
f 1 512 552
f 1 553 512
f 1 554 553
f 1 555 554
f 1 556 555
f 1 532 556
f 1 557 532
f 1 513 557
f 1 558 513
f 1 559 558
f 1 560 559
f 1 561 560
f 1 533 561
f 1 562 533
f 1 514 562
f 1 563 514
f 1 564 563
f 1 565 564
f 1 566 565
f 1 534 566
f 1 567 534
f 1 515 567
f 1 568 515
f 1 569 568
f 1 570 569
f 1 571 570
f 1 535 571
f 1 572 535
f 1 516 572
f 1 573 516
f 1 574 573
f 1 575 574
f 1 576 575
f 1 536 576
f 1 577 536
f 1 517 577
f 1 578 517
f 1 579 578
f 1 580 579
f 1 581 580
f 1 537 581
f 1 582 537
f 1 518 582
f 1 583 518
f 1 584 583
f 1 585 584
f 1 586 585
f 1 538 586
f 1 587 538
f 1 519 587
f 1 588 519
f 1 589 588
f 1 590 589
f 1 591 590
f 1 539 591
f 1 592 539
f 1 520 592
f 1 593 520
f 1 594 593
f 1 595 594
f 1 596 595
f 1 540 596
f 1 597 540
f 1 521 597
f 1 598 521
f 1 599 598
f 1 600 599
f 1 601 600
f 1 541 601
f 1 602 541
f 1 522 602
f 1 603 522
f 1 604 603
f 1 605 604
f 1 606 605
f 1 542 606
f 1 607 542
f 1 523 607
f 1 608 523
f 1 609 608
f 1 610 609
f 1 611 610
f 1 543 611
f 1 612 543
f 1 524 612
f 1 613 524
f 1 614 613
f 1 615 614
f 1 616 615
f 1 544 616
f 1 617 544
f 1 525 617
f 1 618 525
f 1 619 618
f 1 620 619
f 1 621 620
f 1 545 621
f 1 622 545
f 1 526 622
f 1 623 526
f 1 624 623
f 1 625 624
f 1 626 625
f 1 546 626
f 1 627 546
f 1 527 627
f 1 628 527
f 1 629 628
f 1 630 629
f 1 631 630
f 1 547 631
f 1 632 547
f 1 633 632
f 1 507 633
f 509 634 1
f 510 33 32
f 510 34 33
f 510 35 34
f 510 36 35
f 510 37 36
f 510 38 37
f 510 39 38
f 510 40 39
f 510 41 40
f 510 42 41
f 510 43 42
f 43 635 44
f 635 45 44
f 634 1 635
f 45 635 46
f 635 47 46
f 1 62 635
f 62 61 635
f 61 60 635
f 655 510 654
f 60 59 635
f 59 58 635
f 58 57 635
f 57 56 635
f 56 55 635
f 644 510 655
f 55 54 635
f 54 53 635
f 53 52 635
f 52 51 635
f 51 50 635
f 50 49 635
f 49 48 635
f 48 47 635
f 43 510 635
f 510 664 673
f 510 636 673
f 510 674 636
f 510 675 674
f 510 676 675
f 510 677 676
f 510 665 677
f 510 678 665
f 510 637 678
f 510 679 637
f 510 680 679
f 510 681 680
f 510 682 681
f 510 666 682
f 510 683 666
f 510 638 683
f 510 684 638
f 510 685 684
f 510 686 685
f 510 687 686
f 510 667 687
f 510 688 667
f 510 639 688
f 510 689 639
f 510 690 689
f 510 691 690
f 510 692 691
f 510 668 692
f 510 693 668
f 510 640 693
f 510 694 640
f 510 695 694
f 510 696 695
f 510 697 696
f 510 669 697
f 510 698 669
f 510 641 698
f 510 699 641
f 510 700 699
f 510 701 700
f 510 702 701
f 510 670 702
f 510 703 670
f 510 642 703
f 510 704 642
f 510 705 704
f 510 706 705
f 510 707 706
f 510 671 707
f 510 708 671
f 510 643 708
f 510 709 643
f 510 710 709
f 510 711 710
f 510 712 711
f 510 672 712
f 510 713 672
f 510 644 713
f 510 714 635
f 510 645 714
f 510 715 645
f 510 716 715
f 510 717 716
f 510 718 717
f 510 656 718
f 510 719 656
f 510 646 719
f 510 720 646
f 510 721 720
f 510 722 721
f 510 723 722
f 510 657 723
f 510 724 657
f 510 647 724
f 510 725 647
f 510 726 725
f 510 727 726
f 510 728 727
f 510 658 728
f 510 729 658
f 510 648 729
f 510 730 648
f 510 731 730
f 510 732 731
f 510 733 732
f 510 659 733
f 510 734 659
f 510 649 734
f 510 735 649
f 510 736 735
f 510 737 736
f 510 738 737
f 510 660 738
f 510 739 660
f 510 650 739
f 510 740 650
f 510 741 740
f 510 742 741
f 510 743 742
f 510 661 743
f 510 744 661
f 510 651 744
f 510 745 651
f 510 746 745
f 510 747 746
f 510 748 747
f 510 662 748
f 510 749 662
f 510 652 749
f 510 750 652
f 510 751 750
f 510 752 751
f 510 753 752
f 510 663 753
f 510 754 663
f 510 653 754
f 510 755 653
f 510 756 755
f 510 757 756
f 510 758 757
f 510 673 758
f 758 673 47
f 759 760 761
f 664 759 761
f 664 761 673
f 664 762 673
f 637 764 678
f 637 763 764
f 638 766 683
f 638 765 766
f 639 768 688
f 639 767 768
f 640 770 693
f 640 769 770
f 641 771 698
f 698 771 772
f 642 774 703
f 642 773 774
f 643 775 708
f 708 775 776
f 644 778 713
f 644 777 778
f 511 471 529
f 529 471 779
f 512 780 552
f 552 780 781
f 513 783 557
f 513 782 783
f 557 783 473
f 514 475 562
f 514 784 475
f 515 785 567
f 515 477 785
f 516 786 572
f 572 786 787
f 517 788 577
f 577 788 480
f 518 482 582
f 582 482 789
f 519 484 790
f 519 790 587
f 587 790 791
f 520 792 592
f 592 792 793
f 592 485 539
f 592 793 485
f 521 794 487
f 521 487 597
f 522 489 602
f 602 489 795
f 523 797 607
f 523 796 797
f 524 798 612
f 612 798 492
f 525 494 617
f 526 799 622
f 526 496 799
f 622 799 800
f 527 801 627
f 627 801 802
f 633 501 803
f 633 498 632
f 633 803 498
f 645 804 714
f 714 804 805
f 714 805 635
f 646 807 719
f 646 806 807
f 647 808 724
f 724 808 809
f 648 811 729
f 648 810 811
f 649 813 734
f 649 812 813
f 650 814 739
f 739 814 815
f 651 817 744
f 651 816 817
f 652 819 749
f 652 818 819
f 636 820 673
f 673 820 821
f 673 759 664
f 673 821 759
f 653 823 754
f 653 822 823
f 763 637 679
f 825 824 763
f 825 763 679
f 825 637 679
f 828 829 763
f 827 828 763
f 826 827 763
f 766 763 826
f 763 824 830
f 763 830 826
f 317 804 316
f 317 804 499
f 316 804 315
f 312 811 311
f 311 811 310
f 307 817 306
f 306 817 305
f 305 818 304
f 304 818 303
f 303 822 302
f 302 759 301
f 302 822 759
f 301 759 300
f 300 764 299
f 299 828 298
f 299 764 828
f 298 765 297
f 298 828 765
f 297 765 296
f 293 771 292
f 292 771 291
f 291 773 290
f 290 289 773
f 288 287 778
f 287 348 470
f 287 470 778
f 804 831 315
f 315 806 314
f 315 831 806
f 314 832 313
f 314 806 832
f 313 833 312
f 313 832 833
f 312 833 811
f 811 834 310
f 310 812 309
f 310 834 812
f 309 835 308
f 309 812 835
f 308 836 307
f 308 835 836
f 307 836 817
f 817 837 305
f 305 837 818
f 818 838 303
f 303 838 822
f 759 839 300
f 300 839 764
f 765 840 296
f 296 841 295
f 296 840 841
f 295 770 294
f 295 841 770
f 294 842 293
f 294 770 842
f 293 842 771
f 771 843 291
f 291 843 773
f 773 289 844
f 289 288 845
f 289 845 844
f 288 778 845
f 760 759 846
f 760 846 847
f 760 847 848
f 760 848 822
f 760 822 849
f 822 653 755
f 850 849 822
f 850 822 755
f 850 755 653
f 761 850 653
f 761 653 755
f 761 755 756
f 761 756 757
f 761 757 758
f 761 758 47
f 761 47 673
f 850 761 760
f 850 760 849
f 851 852 853
f 851 853 854
f 851 854 839
f 851 839 820
f 851 820 855
f 852 851 856
f 764 852 856
f 856 678 665
f 764 856 665
f 764 665 678
f 764 678 677
f 855 857 851
f 857 856 851
f 856 857 674
f 856 674 675
f 856 675 676
f 856 676 677
f 856 677 858
f 856 858 678
f 855 820 636
f 855 636 674
f 855 674 857
f 820 674 636
f 677 678 858
f 665 859 677
f 677 859 678
f 859 852 764
f 862 863 765
f 861 862 765
f 840 861 765
f 860 840 765
f 768 860 765
f 860 765 863
f 863 864 865
f 863 865 860
f 863 684 765
f 765 638 684
f 866 864 863
f 866 765 863
f 866 684 765
f 866 638 684
f 667 688 687
f 688 867 687
f 688 860 865
f 868 867 667
f 865 868 667
f 688 865 667
f 667 869 688
f 866 868 865
f 866 865 864
f 868 866 638
f 868 638 684
f 868 684 685
f 868 685 686
f 868 686 687
f 868 687 867
f 871 872 841
f 870 871 841
f 770 841 870
f 841 873 874
f 841 874 870
f 841 689 767
f 767 639 689
f 875 873 841
f 875 841 767
f 875 767 689
f 692 693 876
f 693 40 876
f 693 770 870
f 693 870 874
f 877 876 40
f 877 876 668
f 874 877 668
f 693 874 668
f 668 878 693
f 878 870 770
f 875 877 874
f 875 874 873
f 877 875 689
f 877 689 690
f 877 690 691
f 877 691 692
f 877 692 876
f 842 881 769
f 880 842 769
f 880 881 769
f 879 881 880
f 772 879 881
f 881 882 883
f 881 883 879
f 881 694 769
f 769 640 694
f 884 882 881
f 884 881 769
f 884 769 694
f 884 694 640
f 697 698 885
f 698 772 879
f 698 879 883
f 886 698 669
f 883 886 669
f 698 883 669
f 669 887 698
f 887 879 772
f 884 886 883
f 884 883 882
f 886 884 694
f 886 694 695
f 886 695 696
f 886 696 697
f 886 697 885
f 886 885 698
f 889 890 771
f 843 889 771
f 888 843 771
f 774 888 771
f 771 891 892
f 771 892 888
f 771 641 699
f 893 891 771
f 893 771 699
f 893 699 641
f 670 703 894
f 670 894 702
f 703 888 892
f 895 703 670
f 892 895 670
f 703 892 670
f 670 896 703
f 893 895 892
f 893 892 891
f 895 893 699
f 895 699 700
f 895 700 701
f 895 701 702
f 895 702 894
f 895 894 703
f 898 899 773
f 897 898 773
f 844 897 773
f 776 844 773
f 773 900 901
f 773 901 844
f 773 642 704
f 902 900 773
f 902 773 704
f 671 35 708
f 671 707 35
f 708 776 844
f 708 844 901
f 903 671 708
f 901 903 671
f 708 901 671
f 671 904 708
f 904 844 776
f 902 903 901
f 902 901 900
f 903 902 704
f 903 704 705
f 903 705 706
f 903 706 707
f 903 35 707
f 903 708 35
f 907 845 775
f 906 907 775
f 905 906 775
f 778 905 775
f 775 908 909
f 775 909 905
f 775 643 709
f 910 908 775
f 910 775 709
f 910 643 709
f 713 911 712
f 713 778 905
f 713 905 909
f 912 911 672
f 909 912 672
f 713 909 672
f 672 713 913
f 713 911 913
f 913 905 778
f 910 912 909
f 910 909 908
f 912 910 643
f 912 643 709
f 912 709 710
f 912 710 711
f 912 711 712
f 912 712 911
f 470 777 914
f 470 777 915
f 470 915 916
f 470 916 917
f 917 918 470
f 777 644 655
f 919 915 777
f 919 777 655
f 919 644 655
f 917 916 920
f 529 917 920
f 919 920 916
f 919 916 915
f 920 919 644
f 920 644 655
f 920 655 654
f 920 654 510
f 920 510 528
f 920 528 529
f 948 949 831
f 948 831 950
f 948 950 951
f 948 951 804
f 948 804 952
f 719 807 949
f 719 949 948
f 953 719 656
f 948 953 656
f 719 948 656
f 656 954 718
f 718 954 719
f 954 807 949
f 952 955 948
f 955 953 948
f 953 955 715
f 953 715 716
f 953 716 717
f 953 717 61
f 953 61 718
f 953 718 956
f 953 956 719
f 952 804 645
f 645 715 955
f 952 645 955
f 804 645 715
f 717 718 61
f 718 719 956
f 957 832 958
f 957 958 959
f 957 959 960
f 957 960 806
f 957 806 961
f 724 809 832
f 724 832 957
f 962 59 724
f 962 724 657
f 957 962 657
f 724 957 657
f 657 963 724
f 961 964 957
f 964 962 957
f 962 964 646
f 962 646 60
f 962 60 720
f 962 720 721
f 962 721 722
f 962 722 723
f 962 723 59
f 961 806 646
f 961 646 964
f 646 720 60
f 723 724 59
f 965 966 967
f 965 967 968
f 965 968 833
f 965 833 969
f 965 969 808
f 965 969 970
f 729 811 966
f 729 966 965
f 971 729 658
f 965 971 658
f 729 965 658
f 658 972 729
f 972 811 966
f 970 973 965
f 973 971 965
f 971 973 647
f 971 647 725
f 971 725 58
f 971 58 726
f 971 726 727
f 971 727 728
f 971 728 974
f 969 647 808
f 970 647 969
f 970 725 647
f 725 973 647
f 970 973 725
f 969 725 808
f 808 725 647
f 725 726 58
f 975 976 834
f 975 834 977
f 975 977 978
f 975 978 979
f 734 813 976
f 734 976 975
f 980 734 659
f 975 980 659
f 734 975 659
f 659 981 734
f 981 813 976
f 979 982 975
f 982 980 975
f 980 982 730
f 980 730 731
f 980 731 732
f 980 732 56
f 980 56 733
f 980 733 983
f 978 810 648
f 979 978 648
f 979 648 730
f 979 730 982
f 978 810 730
f 810 648 730
f 732 733 56
f 984 835 985
f 984 985 986
f 984 986 987
f 984 987 812
f 984 987 988
f 739 815 835
f 739 835 984
f 989 739 660
f 984 989 660
f 739 984 660
f 660 990 739
f 990 815 835
f 988 991 984
f 991 989 984
f 989 991 55
f 989 55 735
f 989 735 736
f 989 736 737
f 989 737 738
f 989 738 54
f 989 738 992
f 989 992 739
f 987 812 649
f 988 987 649
f 988 649 735
f 649 735 55
f 735 55 991
f 988 735 991
f 987 735 812
f 812 735 649
f 738 739 992
f 993 994 995
f 993 995 996
f 993 996 836
f 993 836 814
f 993 836 997
f 744 817 994
f 744 994 993
f 998 744 661
f 993 998 661
f 744 993 661
f 661 999 744
f 999 817 994
f 997 1000 993
f 1000 998 993
f 998 1000 740
f 998 740 53
f 998 53 741
f 998 741 742
f 998 742 743
f 998 743 1001
f 998 1001 744
f 836 650 814
f 997 836 650
f 997 650 740
f 997 740 1000
f 836 740 650
f 814 650 740
f 740 741 53
f 1002 1003 1004
f 1002 1004 837
f 1002 837 1005
f 1002 1005 816
f 1002 816 1006
f 749 819 1003
f 749 1003 1002
f 1007 749 662
f 1002 1007 662
f 749 1002 662
f 662 1008 749
f 1008 819 1003
f 1006 1009 1002
f 1009 1007 1002
f 1007 1009 745
f 1007 745 746
f 1007 746 51
f 1007 51 747
f 1007 747 748
f 1007 748 1010
f 1006 816 651
f 1006 651 745
f 1006 745 1009
f 816 745 651
f 746 747 51
f 1011 1012 838
f 1011 838 1013
f 1011 1013 1014
f 1011 1014 818
f 1011 818 1015
f 754 823 1012
f 754 1012 1011
f 1016 754 663
f 1011 1016 663
f 754 1011 663
f 663 1017 754
f 1017 823 1012
f 1015 1018 1011
f 1018 1016 1011
f 1016 1018 652
f 1016 652 750
f 1016 750 751
f 1016 751 752
f 1016 752 49
f 1016 49 753
f 1016 753 1019
f 1015 652 818
f 1015 750 652
f 750 1018 652
f 1015 1018 750
f 818 750 652
f 752 753 49
f 824 825 830
f 825 1020 830
f 1020 825 637
f 1020 637 679
f 1020 679 680
f 1020 680 681
f 1020 681 682
f 1020 682 1021
f 1021 683 766
f 1021 766 826
f 1021 826 830
f 1020 1021 666
f 830 1020 666
f 1021 830 666
f 1021 666 683
f 666 1022 683
f 683 1022 1021
f 471 511 548
f 1024 1023 471
f 1024 471 548
f 1025 1026 472
f 1025 472 1027
f 1025 1027 1028
f 1025 1028 1029
f 1025 1029 1023
f 1026 1025 1030
f 531 551 552
f 531 1026 1030
f 531 1030 552
f 531 1031 551
f 551 1031 552
f 1024 1030 1025
f 1024 1025 1023
f 1030 1024 548
f 1030 548 549
f 1030 549 550
f 1030 550 551
f 1030 551 1032
f 1030 1032 552
f 551 552 1032
f 780 512 553
f 1034 1033 780
f 1034 780 553
f 1034 553 512
f 1035 473 1036
f 1035 1036 1037
f 1035 1037 1038
f 1035 1038 780
f 1035 780 1033
f 473 1035 1039
f 1039 557 556
f 532 473 1039
f 532 1039 556
f 532 1040 556
f 1034 1039 1035
f 1034 1035 1033
f 1039 1034 512
f 1039 512 553
f 1039 553 554
f 1039 554 555
f 1039 555 556
f 1039 556 28
f 1039 28 557
f 556 557 28
f 1042 1041 782
f 1042 782 513
f 1043 1044 1045
f 1043 1045 1046
f 1043 1046 474
f 1043 474 1047
f 1043 1047 782
f 1043 782 1041
f 1044 1043 1048
f 1048 562 561
f 533 561 562
f 533 1044 1048
f 533 1048 561
f 533 1049 562
f 1042 1048 1043
f 1042 1043 1041
f 1048 1042 513
f 1048 513 558
f 1048 558 559
f 1048 559 560
f 1048 560 561
f 1048 561 1050
f 1052 1051 784
f 1052 784 514
f 1053 1054 476
f 1053 476 1055
f 1053 1055 1056
f 1053 1056 784
f 1053 784 1051
f 1054 1053 1057
f 1057 567 566
f 534 567 566
f 534 1054 1057
f 534 1057 566
f 534 1058 566
f 566 1058 567
f 1052 1057 1053
f 1052 1053 1051
f 1057 1052 514
f 1057 514 563
f 1057 563 564
f 1057 564 565
f 1057 565 566
f 1057 566 1059
f 1061 1060 477
f 1061 477 515
f 515 24 1061
f 1062 478 1063
f 1062 1063 1064
f 1062 1064 1065
f 1062 1065 477
f 1062 477 1060
f 478 1062 1066
f 1066 572 571
f 535 478 1066
f 535 1066 571
f 535 1067 571
f 535 572 1067
f 1067 478 787
f 1061 1066 1062
f 1061 1062 1060
f 1066 1061 24
f 1066 24 515
f 1066 515 568
f 1066 568 569
f 1066 569 570
f 1066 570 571
f 1066 571 1068
f 786 516 573
f 1070 1069 786
f 1070 786 516
f 1070 516 573
f 1071 480 1072
f 1071 1072 1073
f 1071 1073 1074
f 1071 1074 479
f 1071 479 786
f 1071 786 1069
f 1072 1071 1075
f 536 577 576
f 536 1072 1075
f 536 1075 577
f 536 1076 577
f 1076 1072 480
f 1070 1075 1071
f 1070 1071 1069
f 1075 1070 573
f 1075 573 574
f 1075 574 575
f 1075 575 576
f 1075 576 1077
f 1075 1077 577
f 1079 1078 788
f 1079 788 517
f 1080 789 1081
f 1080 1081 1082
f 1080 1082 481
f 1080 481 1083
f 1080 1083 788
f 1080 788 1078
f 1081 1080 1084
f 1084 582 581
f 537 1081 1084
f 537 1084 581
f 537 582 1085
f 1079 1084 1080
f 1079 1080 1078
f 1084 1079 517
f 1084 517 578
f 1084 578 579
f 1084 579 580
f 1084 580 581
f 1084 581 1086
f 1087 482 583
f 1087 583 518
f 482 518 583
f 1089 1088 1087
f 1089 1087 518
f 1089 518 583
f 1090 1091 483
f 1090 483 1092
f 1090 1092 1093
f 1090 1093 1087
f 1090 482 1087
f 1090 1087 1088
f 1091 1090 1094
f 1094 587 586
f 538 1091 1094
f 538 1094 586
f 538 1095 586
f 538 587 1095
f 1095 1091 791
f 1089 1094 1090
f 1089 1090 1088
f 1094 1089 518
f 1094 518 583
f 1094 583 584
f 1094 584 585
f 1094 585 586
f 1094 586 1096
f 1098 1097 484
f 1098 484 519
f 1099 1100 484
f 485 1099 484
f 485 790 484
f 484 1097 1101
f 484 1101 485
f 1097 1098 1101
f 1098 1102 1101
f 1102 1098 519
f 1102 519 17
f 1102 17 588
f 1102 588 589
f 1102 589 590
f 1102 590 591
f 1102 591 16
f 519 588 17
f 485 1101 1102
f 539 485 1102
f 539 1102 591
f 539 1103 591
f 792 520 593
f 1105 1104 792
f 1105 792 520
f 1105 520 593
f 1108 486 792
f 1107 1108 792
f 1106 1107 792
f 487 1106 792
f 792 1104 1109
f 792 1109 1106
f 1104 1105 1109
f 1105 1110 1109
f 1110 1105 593
f 1110 593 594
f 1110 594 595
f 1110 595 596
f 1110 596 1111
f 1110 1111 597
f 596 597 1111
f 1106 1109 1110
f 540 596 597
f 540 1106 1110
f 540 1110 597
f 540 1112 596
f 596 1112 597
f 1112 1106 487
f 1114 1113 794
f 1114 794 521
f 488 1117 794
f 1116 488 794
f 1115 1116 794
f 795 1115 794
f 794 1113 1118
f 794 1118 1115
f 1113 1114 1118
f 1114 1119 1118
f 1119 1114 521
f 1119 521 598
f 1119 598 599
f 1119 599 13
f 1119 13 600
f 1119 600 601
f 1119 601 1120
f 599 600 13
f 1115 1118 1119
f 541 601 1120
f 541 602 1120
f 541 1115 1119
f 541 1119 1120
f 541 1121 601
f 601 1121 1120
f 1123 1122 489
f 1123 489 522
f 1126 1127 489
f 1125 1126 489
f 490 1125 489
f 1124 490 489
f 797 1124 489
f 489 1122 1128
f 489 1128 490
f 1122 1123 1128
f 1123 1129 1128
f 1129 1123 522
f 1129 522 603
f 1129 603 604
f 1129 604 605
f 1129 605 11
f 1129 11 606
f 1129 606 1130
f 605 606 11
f 490 1128 1129
f 542 607 606
f 542 490 1129
f 542 1129 1130
f 542 1131 607
f 1131 490 1124
f 1133 1132 796
f 1133 796 523
f 1136 491 796
f 1135 1136 796
f 1134 1135 796
f 492 1134 796
f 796 1132 1137
f 796 1137 1134
f 1132 1133 1137
f 1133 1138 1137
f 1138 1133 523
f 1138 523 608
f 1138 608 609
f 1138 609 610
f 1138 610 611
f 1138 611 1139
f 1138 1139 9
f 1134 1137 1138
f 543 612 611
f 543 1134 1138
f 543 1138 1139
f 543 611 1140
f 611 612 1140
f 1140 1134 492
f 1142 1141 798
f 1142 798 524
f 493 1146 798
f 1145 493 798
f 1144 1145 798
f 1143 1144 798
f 798 1141 1147
f 798 1147 1144
f 1141 1142 1147
f 1142 1148 1147
f 1148 1142 524
f 1148 524 613
f 1148 613 614
f 1148 614 8
f 1148 614 615
f 1148 615 616
f 1148 616 1149
f 613 8 614
f 1144 1147 1148
f 544 1149 616
f 544 617 1149
f 544 1144 1148
f 544 1148 616
f 544 616 1150
f 616 1149 1150
f 1149 617 1150
f 1150 1144 1143
f 1151 618 525
f 1151 494 618
f 494 525 618
f 1153 1152 1151
f 1153 1151 525
f 1153 525 618
f 1156 1151 494
f 1155 1156 494
f 1155 1151 494
f 495 1151 1155
f 1154 1151 495
f 800 1154 1151
f 1151 1152 1157
f 1151 1157 1154
f 1158 1157 1153
f 1157 1152 1153
f 1158 1153 618
f 1158 618 619
f 1158 619 620
f 1158 620 621
f 1158 621 1159
f 1158 1159 622
f 1154 1157 1158
f 545 622 621
f 545 1154 1158
f 545 1158 622
f 545 1160 622
f 1160 1154 800
f 1162 1161 496
f 1162 496 526
f 1165 1166 496
f 1164 1165 496
f 468 1164 496
f 1163 468 496
f 802 1163 496
f 496 1161 1167
f 496 1167 1163
f 1161 1162 1167
f 1162 1168 1167
f 1168 1162 526
f 1168 526 623
f 1168 623 624
f 1168 624 625
f 1168 625 626
f 1168 626 4
f 1168 4 627
f 626 627 4
f 1163 1167 1168
f 1168 627 626
f 546 627 626
f 546 1163 1168
f 546 1168 626
f 546 1169 626
f 626 1169 627
f 801 527 628
f 1171 1170 801
f 1171 801 527
f 1171 527 628
f 1174 497 801
f 1173 1174 801
f 1172 1173 801
f 498 1172 801
f 801 1170 1175
f 801 1175 1172
f 1170 1171 1175
f 1171 1176 1175
f 1176 1171 527
f 1176 527 628
f 1176 628 629
f 1176 629 630
f 1176 630 631
f 1176 631 1177
f 1172 1175 1176
f 547 631 1177
f 547 632 1177
f 547 1172 1176
f 547 1176 1177
f 547 631 1178
f 631 1177 1178
f 1177 632 1178
f 1178 1172 498
f 1179 805 504
f 635 805 504
f 635 504 503
f 503 1180 635
f 508 1180 503
f 508 503 502
f 1180 508 507
f 1180 507 530
f 1180 530 509
f 1180 509 1
f 1180 1 634
f 1180 634 635
f 1290 1292 410
f 1290 125 1292
f 410 126 349
f 410 1292 126
f 349 127 350
f 349 126 127
f 350 128 351
f 350 127 128
f 351 129 352
f 351 128 129
f 352 130 353
f 352 129 130
f 353 131 354
f 353 130 131
f 354 132 355
f 354 131 132
f 355 133 356
f 355 132 133
f 356 134 357
f 356 133 134
f 357 135 358
f 357 134 135
f 358 136 359
f 358 135 136
f 359 137 360
f 359 136 137
f 360 138 361
f 360 137 138
f 361 139 362
f 361 138 139
f 362 140 363
f 362 139 140
f 363 141 364
f 363 140 141
f 364 142 365
f 364 141 142
f 365 143 366
f 365 142 143
f 366 144 367
f 366 143 144
f 367 145 368
f 367 144 145
f 368 146 369
f 368 145 146
f 369 147 370
f 369 146 147
f 370 148 371
f 370 147 148
f 371 372 149
f 371 149 148
f 372 373 150
f 372 150 149
f 373 374 151
f 373 151 150
f 374 375 152
f 374 152 151
f 375 376 153
f 375 153 152
f 376 377 154
f 376 154 153
f 377 378 155
f 377 155 154
f 378 379 94
f 378 94 155
f 379 1293 1291
f 379 1293 94
f 1291 94 1293
f 379 380 95
f 379 95 1293
f 380 381 96
f 380 96 95
f 381 382 97
f 381 97 96
f 382 383 98
f 382 98 97
f 383 384 99
f 383 99 98
f 384 385 100
f 384 100 99
f 385 386 101
f 385 101 100
f 386 387 102
f 386 102 101
f 387 388 103
f 387 103 102
f 388 389 104
f 388 104 103
f 389 390 105
f 389 105 104
f 390 391 106
f 390 106 105
f 391 392 107
f 391 107 106
f 392 393 108
f 392 108 107
f 393 394 109
f 393 109 108
f 394 395 110
f 394 110 109
f 395 396 111
f 395 111 110
f 396 397 112
f 396 112 111
f 397 398 113
f 397 113 112
f 398 399 114
f 398 114 113
f 399 400 115
f 399 115 114
f 400 401 116
f 400 116 115
f 401 402 117
f 401 117 116
f 402 403 118
f 402 118 117
f 403 404 119
f 403 119 118
f 404 405 120
f 404 120 119
f 405 406 121
f 405 121 120
f 406 407 122
f 406 122 121
f 407 408 123
f 407 123 122
f 408 409 124
f 408 124 123
f 409 410 125
f 409 125 124
f 410 1292 125
f 1330 441 440
f 1330 440 1331
f 1331 440 439
f 1331 1332 438
f 1331 439 438
f 1332 437 438
f 1332 1333 437
f 1333 436 437
f 1333 1334 435
f 1333 435 436
f 1334 434 435
f 1334 1335 434
f 1335 433 434
f 1335 1336 433
f 1336 432 433
f 1336 1337 431
f 1336 431 432
f 1337 430 431
f 1337 1338 429
f 1337 429 430
f 1338 428 429
f 1338 1329 428
f 1329 1339 427
f 1329 427 428
f 1339 426 427
f 1339 1340 426
f 1340 425 426
f 1340 1341 425
f 1341 424 425
f 1341 1342 423
f 1341 423 424
f 1342 422 423
f 1342 421 1343
f 1342 422 421
f 1343 421 420
f 1343 420 1344
f 1344 420 419
f 1344 419 1345
f 1345 419 418
f 1345 417 1346
f 1345 418 417
f 1346 417 416
f 1346 415 1347
f 1346 416 415
f 1347 414 1348
f 1347 415 414
f 1348 414 413
f 1348 413 1349
f 1349 412 413
f 1349 1330 411
f 1349 411 412
f 1330 411 441
f 1330 1358 1349
f 1349 1358 1359
f 1349 1359 1348
f 1348 1359 1360
f 1348 1361 1347
f 1348 1360 1361
f 1347 1361 1346
f 1346 1361 1362
f 1346 1362 1363
f 1346 1363 1345
f 1345 1364 1344
f 1345 1363 1364
f 1344 1365 1343
f 1344 1364 1365
f 1343 1366 1342
f 1343 1365 1366
f 1342 1341 1367
f 1342 1367 1366
f 1341 1368 1367
f 1341 1340 1368
f 1358 1359 172
f 1358 172 171
f 1359 173 172
f 1359 174 173
f 1359 174 1360
f 1360 174 175
f 1360 175 176
f 1360 176 1361
f 1361 177 1362
f 1361 176 177
f 1362 177 178
f 1362 179 1363
f 1362 178 179
f 1363 179 180
f 1363 180 1364
f 1364 180 181
f 1364 182 1365
f 1364 181 182
f 1365 182 183
f 1365 184 1366
f 1365 183 184
f 1366 184 185
f 1366 1367 185
f 1367 186 185
f 1367 1368 186
f 1368 156 186
f 1368 1385 157
f 1368 157 156
f 1385 158 157
f 1385 1386 158
f 1386 159 158
f 1386 1387 160
f 1386 160 159
f 1387 161 160
f 1387 1388 162
f 1387 162 161
f 1388 163 162
f 1388 1389 163
f 1389 164 163
f 1389 1390 164
f 1390 165 164
f 1390 1391 166
f 1390 166 165
f 1391 167 166
f 1391 1392 167
f 1392 168 167
f 1392 1393 169
f 1392 169 168
f 1393 1384 169
f 1384 1393 170
f 1384 170 169
f 1393 1358 170
f 1358 171 170
f 1340 1339 1385
f 1339 1338 1386
f 1339 1386 1385
f 1338 1387 1386
f 1338 1337 1387
f 1337 1388 1387
f 1337 1336 1388
f 1336 1389 1388
f 1336 1335 1389
f 1335 1390 1389
f 1335 1334 1391
f 1335 1391 1390
f 1334 1333 1392
f 1334 1392 1391
f 1333 1332 1392
f 1332 1393 1392
f 1332 1384 1331
f 1332 1384 1393
f 1331 1384 1393
f 1331 1358 1330
f 1331 1393 1358
